<?xml version="1.0" encoding="utf-8" standalone="no"?>
<!DOCTYPE svg PUBLIC "-//W3C//DTD SVG 1.1//EN"
  "http://www.w3.org/Graphics/SVG/1.1/DTD/svg11.dtd">
<!-- Created with matplotlib (https://matplotlib.org/) -->
<svg height="144pt" version="1.1" viewBox="0 0 216 144" width="216pt" xmlns="http://www.w3.org/2000/svg" xmlns:xlink="http://www.w3.org/1999/xlink">
 <metadata>
  <rdf:RDF xmlns:cc="http://creativecommons.org/ns#" xmlns:dc="http://purl.org/dc/elements/1.1/" xmlns:rdf="http://www.w3.org/1999/02/22-rdf-syntax-ns#">
   <cc:Work>
    <dc:type rdf:resource="http://purl.org/dc/dcmitype/StillImage"/>
    <dc:date>2021-09-29T09:02:34.486281</dc:date>
    <dc:format>image/svg+xml</dc:format>
    <dc:creator>
     <cc:Agent>
      <dc:title>Matplotlib v3.3.2, https://matplotlib.org/</dc:title>
     </cc:Agent>
    </dc:creator>
   </cc:Work>
  </rdf:RDF>
 </metadata>
 <defs>
  <style type="text/css">*{stroke-linecap:butt;stroke-linejoin:round;}</style>
 </defs>
 <g id="figure_1">
  <g id="patch_1">
   <path d="M 0 144 
L 216 144 
L 216 0 
L 0 0 
z
" style="fill:none;"/>
  </g>
  <g id="axes_1">
   <g id="patch_2">
    <path d="M 27 67.68 
L 194.4 67.68 
L 194.4 17.28 
L 27 17.28 
z
" style="fill:none;"/>
   </g>
   <g id="PolyCollection_1">
    <path clip-path="url(#p1937654ed7)" d="M 27 67.543499 
L 27 67.543499 
L 30.416327 67.543499 
L 33.832653 67.543499 
L 37.24898 67.543499 
L 40.665306 67.543499 
L 44.081633 67.543218 
L 47.497959 67.43578 
L 50.914286 67.10164 
L 54.330612 66.381799 
L 57.746939 65.426052 
L 61.163265 63.852571 
L 64.579592 62.069448 
L 67.995918 59.653522 
L 71.412245 56.721305 
L 74.828571 53.169371 
L 78.244898 48.111239 
L 81.661224 44.378598 
L 85.077551 40.18976 
L 88.493878 35.400064 
L 91.910204 30.799495 
L 95.326531 26.721584 
L 98.742857 22.75678 
L 102.159184 18.564021 
L 105.57551 17.818223 
L 108.991837 17.28 
L 112.408163 20.292548 
L 115.82449 20.794975 
L 119.240816 22.528556 
L 122.657143 25.242139 
L 126.073469 29.074175 
L 129.489796 33.032279 
L 132.906122 36.924693 
L 136.322449 41.149598 
L 139.738776 45.62551 
L 143.155102 49.845249 
L 146.571429 53.0031 
L 149.987755 56.327845 
L 153.404082 59.221612 
L 156.820408 61.397108 
L 160.236735 63.47946 
L 163.653061 65.165293 
L 167.069388 66.292131 
L 170.485714 67.016446 
L 173.902041 67.287631 
L 177.318367 67.477054 
L 180.734694 67.543407 
L 184.15102 67.543499 
L 187.567347 67.543499 
L 190.983673 67.543499 
L 194.4 67.543499 
L 194.4 67.543499 
L 194.4 67.543499 
L 190.983673 67.543499 
L 187.567347 67.543499 
L 184.15102 67.543499 
L 180.734694 67.543723 
L 177.318367 67.616451 
L 173.902041 67.68 
L 170.485714 67.670015 
L 167.069388 67.376496 
L 163.653061 66.753475 
L 160.236735 65.607381 
L 156.820408 63.988795 
L 153.404082 62.118868 
L 149.987755 59.801395 
L 146.571429 58.019189 
L 143.155102 54.139881 
L 139.738776 50.060605 
L 136.322449 46.648145 
L 132.906122 43.347091 
L 129.489796 38.867991 
L 126.073469 35.546565 
L 122.657143 33.665665 
L 119.240816 29.150197 
L 115.82449 27.027003 
L 112.408163 22.633771 
L 108.991837 23.361418 
L 105.57551 24.665387 
L 102.159184 26.541899 
L 98.742857 29.426191 
L 95.326531 32.641927 
L 91.910204 36.720373 
L 88.493878 41.010926 
L 85.077551 45.191346 
L 81.661224 48.603895 
L 78.244898 53.093497 
L 74.828571 56.563754 
L 71.412245 59.498286 
L 67.995918 62.443898 
L 64.579592 64.228791 
L 61.163265 65.539514 
L 57.746939 66.506506 
L 54.330612 67.096407 
L 50.914286 67.492073 
L 47.497959 67.574269 
L 44.081633 67.543614 
L 40.665306 67.543499 
L 37.24898 67.543499 
L 33.832653 67.543499 
L 30.416327 67.543499 
L 27 67.543499 
z
" style="fill:#fc8d62;fill-opacity:0.5;"/>
   </g>
   <g id="matplotlib.axis_1">
    <g id="xtick_1">
     <g id="line2d_1">
      <defs>
       <path d="M 0 0 
L 0 3.5 
" id="me3eee24f42" style="stroke:#a9a9a9;stroke-width:2;"/>
      </defs>
      <g>
       <use style="fill:#a9a9a9;stroke:#a9a9a9;stroke-width:2;" x="44.081633" xlink:href="#me3eee24f42" y="67.543499"/>
      </g>
     </g>
    </g>
    <g id="xtick_2">
     <g id="line2d_2">
      <g>
       <use style="fill:#a9a9a9;stroke:#a9a9a9;stroke-width:2;" x="78.244898" xlink:href="#me3eee24f42" y="67.543499"/>
      </g>
     </g>
    </g>
    <g id="xtick_3">
     <g id="line2d_3">
      <g>
       <use style="fill:#a9a9a9;stroke:#a9a9a9;stroke-width:2;" x="112.408163" xlink:href="#me3eee24f42" y="67.543499"/>
      </g>
     </g>
    </g>
    <g id="xtick_4">
     <g id="line2d_4">
      <g>
       <use style="fill:#a9a9a9;stroke:#a9a9a9;stroke-width:2;" x="146.571429" xlink:href="#me3eee24f42" y="67.543499"/>
      </g>
     </g>
    </g>
    <g id="xtick_5">
     <g id="line2d_5">
      <g>
       <use style="fill:#a9a9a9;stroke:#a9a9a9;stroke-width:2;" x="180.734694" xlink:href="#me3eee24f42" y="67.543499"/>
      </g>
     </g>
    </g>
   </g>
   <g id="matplotlib.axis_2"/>
   <g id="line2d_6">
    <path clip-path="url(#p1937654ed7)" d="M 27 67.543499 
L 30.416327 67.543499 
L 33.832653 67.543499 
L 37.24898 67.543499 
L 40.665306 67.543499 
L 44.081633 67.543416 
L 47.497959 67.505025 
L 50.914286 67.296856 
L 54.330612 66.739103 
L 57.746939 65.966279 
L 61.163265 64.696042 
L 64.579592 63.149119 
L 67.995918 61.04871 
L 71.412245 58.109796 
L 74.828571 54.866562 
L 78.244898 50.602368 
L 81.661224 46.491246 
L 85.077551 42.690553 
L 88.493878 38.205495 
L 91.910204 33.759934 
L 95.326531 29.681755 
L 98.742857 26.091486 
L 102.159184 22.55296 
L 105.57551 21.241805 
L 108.991837 20.320709 
L 112.408163 21.46316 
L 115.82449 23.910989 
L 119.240816 25.839376 
L 122.657143 29.453902 
L 126.073469 32.31037 
L 129.489796 35.950135 
L 132.906122 40.135892 
L 136.322449 43.898872 
L 139.738776 47.843058 
L 143.155102 51.992565 
L 146.571429 55.511145 
L 149.987755 58.06462 
L 153.404082 60.67024 
L 156.820408 62.692951 
L 160.236735 64.54342 
L 163.653061 65.959384 
L 167.069388 66.834313 
L 170.485714 67.343231 
L 173.902041 67.483815 
L 177.318367 67.546753 
L 180.734694 67.543565 
L 184.15102 67.543499 
L 187.567347 67.543499 
L 190.983673 67.543499 
L 194.4 67.543499 
" style="fill:none;stroke:#fc8d62;stroke-linecap:square;stroke-width:2;"/>
   </g>
   <g id="line2d_7">
    <path clip-path="url(#p1937654ed7)" d="M 27 67.543499 
L 30.416327 67.543499 
L 33.832653 67.543499 
L 37.24898 67.543499 
L 40.665306 67.543499 
L 44.081633 67.543435 
L 47.497959 67.491397 
L 50.914286 67.257477 
L 54.330612 66.829127 
L 57.746939 66.071282 
L 61.163265 64.896633 
L 64.579592 63.303613 
L 67.995918 60.651562 
L 71.412245 58.112006 
L 74.828571 54.911093 
L 78.244898 51.013979 
L 81.661224 46.902629 
L 85.077551 42.592112 
L 88.493878 38.838422 
L 91.910204 34.154706 
L 95.326531 30.219955 
L 98.742857 27.293765 
L 102.159184 23.536742 
L 105.57551 21.632284 
L 108.991837 20.652962 
L 112.408163 20.320709 
L 115.82449 21.18694 
L 119.240816 23.415095 
L 122.657143 26.585228 
L 126.073469 29.347919 
L 129.489796 33.926617 
L 132.906122 37.85209 
L 136.322449 41.96869 
L 139.738776 46.714621 
L 143.155102 50.720477 
L 146.571429 54.466441 
L 149.987755 57.516371 
L 153.404082 60.437785 
L 156.820408 62.915926 
L 160.236735 64.331209 
L 163.653061 65.759733 
L 167.069388 66.711103 
L 170.485714 67.267461 
L 173.902041 67.535197 
L 177.318367 67.556575 
L 180.734694 67.543549 
L 184.15102 67.543499 
L 187.567347 67.543499 
L 190.983673 67.543499 
L 194.4 67.543499 
" style="fill:none;stroke:#fc8d62;stroke-dasharray:1.5,2.475;stroke-dashoffset:0;stroke-opacity:0.5;stroke-width:1.5;"/>
   </g>
   <g id="patch_3">
    <path d="M 112.408163 67.68 
L 112.408163 17.28 
" style="fill:none;stroke:#a9a9a9;stroke-linecap:square;stroke-linejoin:miter;stroke-width:2;"/>
   </g>
   <g id="patch_4">
    <path d="M 194.4 67.68 
L 194.4 17.28 
" style="fill:none;"/>
   </g>
   <g id="patch_5">
    <path d="M 27 67.543499 
L 194.4 67.543499 
" style="fill:none;stroke:#a9a9a9;stroke-linecap:square;stroke-linejoin:miter;stroke-width:2;"/>
   </g>
   <g id="patch_6">
    <path d="M 27 17.28 
L 194.4 17.28 
" style="fill:none;"/>
   </g>
   <g id="legend_1">
    <g id="line2d_8">
     <path d="M 33.3 36.824219 
L 47.3 36.824219 
" style="fill:none;stroke:#fc8d62;stroke-linecap:square;stroke-width:2;"/>
    </g>
    <g id="line2d_9"/>
    <g id="text_1">
     <!-- $\theta:$      R$^{2}$ = 0.821 -->
     <g transform="translate(52.9 39.274219)scale(0.07 -0.07)">
      <defs>
       <path d="M 45.515625 34.671875 
L 14.453125 34.671875 
Q 12.359375 20.0625 14.5 13.875 
Q 17.1875 6.25 24.46875 6.25 
Q 31.78125 6.25 37.359375 13.921875 
Q 42.234375 20.65625 45.515625 34.671875 
z
M 47.015625 42.96875 
Q 48.34375 56.84375 46.625 61.71875 
Q 43.953125 69.4375 36.765625 69.4375 
Q 29.296875 69.4375 23.828125 61.8125 
Q 19.53125 55.671875 16.15625 42.96875 
z
M 38.1875 76.765625 
Q 49.90625 76.765625 54.59375 66.40625 
Q 59.28125 56.109375 55.71875 37.84375 
Q 52.203125 19.625 43.453125 9.28125 
Q 34.765625 -1.125 23.046875 -1.125 
Q 11.28125 -1.125 6.640625 9.28125 
Q 2 19.625 5.515625 37.84375 
Q 9.078125 56.109375 17.71875 66.40625 
Q 26.421875 76.765625 38.1875 76.765625 
z
" id="DejaVuSans-Oblique-952"/>
       <path d="M 11.71875 12.40625 
L 22.015625 12.40625 
L 22.015625 0 
L 11.71875 0 
z
M 11.71875 51.703125 
L 22.015625 51.703125 
L 22.015625 39.3125 
L 11.71875 39.3125 
z
" id="DejaVuSans-58"/>
       <path id="DejaVuSans-32"/>
       <path d="M 44.390625 34.1875 
Q 47.5625 33.109375 50.5625 29.59375 
Q 53.5625 26.078125 56.59375 19.921875 
L 66.609375 0 
L 56 0 
L 46.6875 18.703125 
Q 43.0625 26.03125 39.671875 28.421875 
Q 36.28125 30.8125 30.421875 30.8125 
L 19.671875 30.8125 
L 19.671875 0 
L 9.8125 0 
L 9.8125 72.90625 
L 32.078125 72.90625 
Q 44.578125 72.90625 50.734375 67.671875 
Q 56.890625 62.453125 56.890625 51.90625 
Q 56.890625 45.015625 53.6875 40.46875 
Q 50.484375 35.9375 44.390625 34.1875 
z
M 19.671875 64.796875 
L 19.671875 38.921875 
L 32.078125 38.921875 
Q 39.203125 38.921875 42.84375 42.21875 
Q 46.484375 45.515625 46.484375 51.90625 
Q 46.484375 58.296875 42.84375 61.546875 
Q 39.203125 64.796875 32.078125 64.796875 
z
" id="DejaVuSans-82"/>
       <path d="M 19.1875 8.296875 
L 53.609375 8.296875 
L 53.609375 0 
L 7.328125 0 
L 7.328125 8.296875 
Q 12.9375 14.109375 22.625 23.890625 
Q 32.328125 33.6875 34.8125 36.53125 
Q 39.546875 41.84375 41.421875 45.53125 
Q 43.3125 49.21875 43.3125 52.78125 
Q 43.3125 58.59375 39.234375 62.25 
Q 35.15625 65.921875 28.609375 65.921875 
Q 23.96875 65.921875 18.8125 64.3125 
Q 13.671875 62.703125 7.8125 59.421875 
L 7.8125 69.390625 
Q 13.765625 71.78125 18.9375 73 
Q 24.125 74.21875 28.421875 74.21875 
Q 39.75 74.21875 46.484375 68.546875 
Q 53.21875 62.890625 53.21875 53.421875 
Q 53.21875 48.921875 51.53125 44.890625 
Q 49.859375 40.875 45.40625 35.40625 
Q 44.1875 33.984375 37.640625 27.21875 
Q 31.109375 20.453125 19.1875 8.296875 
z
" id="DejaVuSans-50"/>
       <path d="M 10.59375 45.40625 
L 73.1875 45.40625 
L 73.1875 37.203125 
L 10.59375 37.203125 
z
M 10.59375 25.484375 
L 73.1875 25.484375 
L 73.1875 17.1875 
L 10.59375 17.1875 
z
" id="DejaVuSans-61"/>
       <path d="M 31.78125 66.40625 
Q 24.171875 66.40625 20.328125 58.90625 
Q 16.5 51.421875 16.5 36.375 
Q 16.5 21.390625 20.328125 13.890625 
Q 24.171875 6.390625 31.78125 6.390625 
Q 39.453125 6.390625 43.28125 13.890625 
Q 47.125 21.390625 47.125 36.375 
Q 47.125 51.421875 43.28125 58.90625 
Q 39.453125 66.40625 31.78125 66.40625 
z
M 31.78125 74.21875 
Q 44.046875 74.21875 50.515625 64.515625 
Q 56.984375 54.828125 56.984375 36.375 
Q 56.984375 17.96875 50.515625 8.265625 
Q 44.046875 -1.421875 31.78125 -1.421875 
Q 19.53125 -1.421875 13.0625 8.265625 
Q 6.59375 17.96875 6.59375 36.375 
Q 6.59375 54.828125 13.0625 64.515625 
Q 19.53125 74.21875 31.78125 74.21875 
z
" id="DejaVuSans-48"/>
       <path d="M 10.6875 12.40625 
L 21 12.40625 
L 21 0 
L 10.6875 0 
z
" id="DejaVuSans-46"/>
       <path d="M 31.78125 34.625 
Q 24.75 34.625 20.71875 30.859375 
Q 16.703125 27.09375 16.703125 20.515625 
Q 16.703125 13.921875 20.71875 10.15625 
Q 24.75 6.390625 31.78125 6.390625 
Q 38.8125 6.390625 42.859375 10.171875 
Q 46.921875 13.96875 46.921875 20.515625 
Q 46.921875 27.09375 42.890625 30.859375 
Q 38.875 34.625 31.78125 34.625 
z
M 21.921875 38.8125 
Q 15.578125 40.375 12.03125 44.71875 
Q 8.5 49.078125 8.5 55.328125 
Q 8.5 64.0625 14.71875 69.140625 
Q 20.953125 74.21875 31.78125 74.21875 
Q 42.671875 74.21875 48.875 69.140625 
Q 55.078125 64.0625 55.078125 55.328125 
Q 55.078125 49.078125 51.53125 44.71875 
Q 48 40.375 41.703125 38.8125 
Q 48.828125 37.15625 52.796875 32.3125 
Q 56.78125 27.484375 56.78125 20.515625 
Q 56.78125 9.90625 50.3125 4.234375 
Q 43.84375 -1.421875 31.78125 -1.421875 
Q 19.734375 -1.421875 13.25 4.234375 
Q 6.78125 9.90625 6.78125 20.515625 
Q 6.78125 27.484375 10.78125 32.3125 
Q 14.796875 37.15625 21.921875 38.8125 
z
M 18.3125 54.390625 
Q 18.3125 48.734375 21.84375 45.5625 
Q 25.390625 42.390625 31.78125 42.390625 
Q 38.140625 42.390625 41.71875 45.5625 
Q 45.3125 48.734375 45.3125 54.390625 
Q 45.3125 60.0625 41.71875 63.234375 
Q 38.140625 66.40625 31.78125 66.40625 
Q 25.390625 66.40625 21.84375 63.234375 
Q 18.3125 60.0625 18.3125 54.390625 
z
" id="DejaVuSans-56"/>
       <path d="M 12.40625 8.296875 
L 28.515625 8.296875 
L 28.515625 63.921875 
L 10.984375 60.40625 
L 10.984375 69.390625 
L 28.421875 72.90625 
L 38.28125 72.90625 
L 38.28125 8.296875 
L 54.390625 8.296875 
L 54.390625 0 
L 12.40625 0 
z
" id="DejaVuSans-49"/>
      </defs>
      <use transform="translate(0 0.765625)" xlink:href="#DejaVuSans-Oblique-952"/>
      <use transform="translate(80.664062 0.765625)" xlink:href="#DejaVuSans-58"/>
      <use transform="translate(133.837891 0.765625)" xlink:href="#DejaVuSans-32"/>
      <use transform="translate(165.625 0.765625)" xlink:href="#DejaVuSans-32"/>
      <use transform="translate(197.412109 0.765625)" xlink:href="#DejaVuSans-32"/>
      <use transform="translate(229.199219 0.765625)" xlink:href="#DejaVuSans-32"/>
      <use transform="translate(260.986328 0.765625)" xlink:href="#DejaVuSans-32"/>
      <use transform="translate(292.773438 0.765625)" xlink:href="#DejaVuSans-32"/>
      <use transform="translate(324.560547 0.765625)" xlink:href="#DejaVuSans-82"/>
      <use transform="translate(395 39.046875)scale(0.7)" xlink:href="#DejaVuSans-50"/>
      <use transform="translate(442.270508 0.765625)" xlink:href="#DejaVuSans-32"/>
      <use transform="translate(474.057617 0.765625)" xlink:href="#DejaVuSans-61"/>
      <use transform="translate(557.84668 0.765625)" xlink:href="#DejaVuSans-32"/>
      <use transform="translate(589.633789 0.765625)" xlink:href="#DejaVuSans-48"/>
      <use transform="translate(653.256836 0.765625)" xlink:href="#DejaVuSans-46"/>
      <use transform="translate(682.418945 0.765625)" xlink:href="#DejaVuSans-56"/>
      <use transform="translate(746.041992 0.765625)" xlink:href="#DejaVuSans-50"/>
      <use transform="translate(809.665039 0.765625)" xlink:href="#DejaVuSans-49"/>
     </g>
    </g>
    <g id="line2d_10">
     <path d="M 33.3 47.098906 
L 47.3 47.098906 
" style="fill:none;stroke:#fc8d62;stroke-dasharray:1.5,2.475;stroke-dashoffset:0;stroke-opacity:0.5;stroke-width:1.5;"/>
    </g>
    <g id="line2d_11"/>
    <g id="text_2">
     <!-- No $\theta:$ R$^{2}$ = 0.791 -->
     <g transform="translate(52.9 49.548906)scale(0.07 -0.07)">
      <defs>
       <path d="M 9.8125 72.90625 
L 23.09375 72.90625 
L 55.421875 11.921875 
L 55.421875 72.90625 
L 64.984375 72.90625 
L 64.984375 0 
L 51.703125 0 
L 19.390625 60.984375 
L 19.390625 0 
L 9.8125 0 
z
" id="DejaVuSans-78"/>
       <path d="M 30.609375 48.390625 
Q 23.390625 48.390625 19.1875 42.75 
Q 14.984375 37.109375 14.984375 27.296875 
Q 14.984375 17.484375 19.15625 11.84375 
Q 23.34375 6.203125 30.609375 6.203125 
Q 37.796875 6.203125 41.984375 11.859375 
Q 46.1875 17.53125 46.1875 27.296875 
Q 46.1875 37.015625 41.984375 42.703125 
Q 37.796875 48.390625 30.609375 48.390625 
z
M 30.609375 56 
Q 42.328125 56 49.015625 48.375 
Q 55.71875 40.765625 55.71875 27.296875 
Q 55.71875 13.875 49.015625 6.21875 
Q 42.328125 -1.421875 30.609375 -1.421875 
Q 18.84375 -1.421875 12.171875 6.21875 
Q 5.515625 13.875 5.515625 27.296875 
Q 5.515625 40.765625 12.171875 48.375 
Q 18.84375 56 30.609375 56 
z
" id="DejaVuSans-111"/>
       <path d="M 8.203125 72.90625 
L 55.078125 72.90625 
L 55.078125 68.703125 
L 28.609375 0 
L 18.3125 0 
L 43.21875 64.59375 
L 8.203125 64.59375 
z
" id="DejaVuSans-55"/>
       <path d="M 10.984375 1.515625 
L 10.984375 10.5 
Q 14.703125 8.734375 18.5 7.8125 
Q 22.3125 6.890625 25.984375 6.890625 
Q 35.75 6.890625 40.890625 13.453125 
Q 46.046875 20.015625 46.78125 33.40625 
Q 43.953125 29.203125 39.59375 26.953125 
Q 35.25 24.703125 29.984375 24.703125 
Q 19.046875 24.703125 12.671875 31.3125 
Q 6.296875 37.9375 6.296875 49.421875 
Q 6.296875 60.640625 12.9375 67.421875 
Q 19.578125 74.21875 30.609375 74.21875 
Q 43.265625 74.21875 49.921875 64.515625 
Q 56.59375 54.828125 56.59375 36.375 
Q 56.59375 19.140625 48.40625 8.859375 
Q 40.234375 -1.421875 26.421875 -1.421875 
Q 22.703125 -1.421875 18.890625 -0.6875 
Q 15.09375 0.046875 10.984375 1.515625 
z
M 30.609375 32.421875 
Q 37.25 32.421875 41.125 36.953125 
Q 45.015625 41.5 45.015625 49.421875 
Q 45.015625 57.28125 41.125 61.84375 
Q 37.25 66.40625 30.609375 66.40625 
Q 23.96875 66.40625 20.09375 61.84375 
Q 16.21875 57.28125 16.21875 49.421875 
Q 16.21875 41.5 20.09375 36.953125 
Q 23.96875 32.421875 30.609375 32.421875 
z
" id="DejaVuSans-57"/>
      </defs>
      <use transform="translate(0 0.765625)" xlink:href="#DejaVuSans-78"/>
      <use transform="translate(74.804688 0.765625)" xlink:href="#DejaVuSans-111"/>
      <use transform="translate(135.986328 0.765625)" xlink:href="#DejaVuSans-32"/>
      <use transform="translate(167.773438 0.765625)" xlink:href="#DejaVuSans-Oblique-952"/>
      <use transform="translate(248.4375 0.765625)" xlink:href="#DejaVuSans-58"/>
      <use transform="translate(301.611328 0.765625)" xlink:href="#DejaVuSans-32"/>
      <use transform="translate(333.398438 0.765625)" xlink:href="#DejaVuSans-82"/>
      <use transform="translate(403.837891 39.046875)scale(0.7)" xlink:href="#DejaVuSans-50"/>
      <use transform="translate(451.108398 0.765625)" xlink:href="#DejaVuSans-32"/>
      <use transform="translate(482.895508 0.765625)" xlink:href="#DejaVuSans-61"/>
      <use transform="translate(566.68457 0.765625)" xlink:href="#DejaVuSans-32"/>
      <use transform="translate(598.47168 0.765625)" xlink:href="#DejaVuSans-48"/>
      <use transform="translate(662.094727 0.765625)" xlink:href="#DejaVuSans-46"/>
      <use transform="translate(686.131836 0.765625)" xlink:href="#DejaVuSans-55"/>
      <use transform="translate(749.754883 0.765625)" xlink:href="#DejaVuSans-57"/>
      <use transform="translate(813.37793 0.765625)" xlink:href="#DejaVuSans-49"/>
     </g>
    </g>
   </g>
  </g>
  <g id="axes_2">
   <g id="patch_7">
    <path d="M 27 128.16 
L 194.4 128.16 
L 194.4 77.76 
L 27 77.76 
z
" style="fill:none;"/>
   </g>
   <g id="PolyCollection_2">
    <path clip-path="url(#p4450e8b801)" d="M 27 120.589405 
L 27 120.509623 
L 30.416327 120.720578 
L 33.832653 120.789446 
L 37.24898 120.721663 
L 40.665306 120.560888 
L 44.081633 120.379249 
L 47.497959 120.220791 
L 50.914286 119.946205 
L 54.330612 119.395593 
L 57.746939 118.442803 
L 61.163265 116.996873 
L 64.579592 115.006359 
L 67.995918 112.462495 
L 71.412245 109.396532 
L 74.828571 105.876287 
L 78.244898 102.002093 
L 81.661224 97.903415 
L 85.077551 93.73463 
L 88.493878 89.670336 
L 91.910204 85.899945 
L 95.326531 82.622184 
L 98.742857 80.039605 
L 102.159184 78.353596 
L 105.57551 77.76 
L 108.991837 78.445606 
L 112.408163 80.578287 
L 115.82449 84.237569 
L 119.240816 89.04271 
L 122.657143 94.555141 
L 126.073469 100.365498 
L 129.489796 106.114848 
L 132.906122 111.503998 
L 136.322449 116.298722 
L 139.738776 120.331402 
L 143.155102 123.500467 
L 146.571429 125.768113 
L 149.987755 127.156121 
L 153.404082 127.73619 
L 156.820408 127.617411 
L 160.236735 126.934749 
L 163.653061 125.840117 
L 167.069388 124.494282 
L 170.485714 123.059993 
L 173.902041 121.696558 
L 177.318367 120.557539 
L 180.734694 119.79306 
L 184.15102 119.50004 
L 187.567347 119.568733 
L 190.983673 119.844596 
L 194.4 120.193402 
L 194.4 120.298089 
L 194.4 120.298089 
L 190.983673 119.973788 
L 187.567347 119.717215 
L 184.15102 119.660393 
L 180.734694 119.960047 
L 177.318367 120.73701 
L 173.902041 121.905307 
L 170.485714 123.31329 
L 167.069388 124.797674 
L 163.653061 126.189681 
L 160.236735 127.320445 
L 156.820408 128.027 
L 153.404082 128.16 
L 149.987755 127.5926 
L 146.571429 126.229839 
L 143.155102 124.015543 
L 139.738776 120.937028 
L 136.322449 117.030603 
L 132.906122 112.389844 
L 129.489796 107.171889 
L 126.073469 101.60034 
L 122.657143 95.964006 
L 119.240816 90.611837 
L 115.82449 85.943616 
L 112.408163 82.389085 
L 108.991837 80.321788 
L 105.57551 79.659197 
L 102.159184 80.232992 
L 98.742857 81.857897 
L 95.326531 84.341397 
L 91.910204 87.487118 
L 88.493878 91.098961 
L 85.077551 94.985921 
L 81.661224 98.967173 
L 78.244898 102.877285 
L 74.828571 106.570976 
L 71.412245 109.927438 
L 67.995918 112.853934 
L 64.579592 115.289298 
L 61.163265 117.205674 
L 57.746939 118.609471 
L 54.330612 119.541386 
L 50.914286 120.080188 
L 47.497959 120.345182 
L 44.081633 120.492825 
L 40.665306 120.658244 
L 37.24898 120.799921 
L 33.832653 120.85253 
L 30.416327 120.783312 
L 27 120.589405 
z
" style="fill:#66c2a5;fill-opacity:0.5;"/>
   </g>
   <g id="matplotlib.axis_3">
    <g id="xtick_6">
     <g id="line2d_12">
      <g>
       <use style="fill:#a9a9a9;stroke:#a9a9a9;stroke-width:2;" x="44.081633" xlink:href="#me3eee24f42" y="122.272257"/>
      </g>
     </g>
    </g>
    <g id="xtick_7">
     <g id="line2d_13">
      <g>
       <use style="fill:#a9a9a9;stroke:#a9a9a9;stroke-width:2;" x="78.244898" xlink:href="#me3eee24f42" y="122.272257"/>
      </g>
     </g>
    </g>
    <g id="xtick_8">
     <g id="line2d_14">
      <g>
       <use style="fill:#a9a9a9;stroke:#a9a9a9;stroke-width:2;" x="112.408163" xlink:href="#me3eee24f42" y="122.272257"/>
      </g>
     </g>
    </g>
    <g id="xtick_9">
     <g id="line2d_15">
      <g>
       <use style="fill:#a9a9a9;stroke:#a9a9a9;stroke-width:2;" x="146.571429" xlink:href="#me3eee24f42" y="122.272257"/>
      </g>
     </g>
    </g>
    <g id="xtick_10">
     <g id="line2d_16">
      <g>
       <use style="fill:#a9a9a9;stroke:#a9a9a9;stroke-width:2;" x="180.734694" xlink:href="#me3eee24f42" y="122.272257"/>
      </g>
     </g>
    </g>
   </g>
   <g id="matplotlib.axis_4"/>
   <g id="line2d_17">
    <path clip-path="url(#p4450e8b801)" d="M 27 120.549514 
L 30.416327 120.751945 
L 33.832653 120.820988 
L 37.24898 120.760792 
L 40.665306 120.609566 
L 44.081633 120.436037 
L 47.497959 120.282986 
L 50.914286 120.013196 
L 54.330612 119.468489 
L 57.746939 118.526137 
L 61.163265 117.101274 
L 64.579592 115.147828 
L 67.995918 112.658214 
L 71.412245 109.661985 
L 74.828571 106.223631 
L 78.244898 102.439689 
L 81.661224 98.435294 
L 85.077551 94.360276 
L 88.493878 90.384649 
L 91.910204 86.693532 
L 95.326531 83.481791 
L 98.742857 80.948751 
L 102.159184 79.293294 
L 105.57551 78.709598 
L 108.991837 79.383697 
L 112.408163 81.483686 
L 115.82449 85.090592 
L 119.240816 89.827274 
L 122.657143 95.259573 
L 126.073469 100.982919 
L 129.489796 106.643369 
L 132.906122 111.946921 
L 136.322449 116.664663 
L 139.738776 120.634215 
L 143.155102 123.758005 
L 146.571429 125.998976 
L 149.987755 127.37436 
L 153.404082 127.948095 
L 156.820408 127.822205 
L 160.236735 127.127597 
L 163.653061 126.014899 
L 167.069388 124.645978 
L 170.485714 123.186641 
L 173.902041 121.800933 
L 177.318367 120.647275 
L 180.734694 119.876554 
L 184.15102 119.580216 
L 187.567347 119.642974 
L 190.983673 119.909192 
L 194.4 120.245745 
" style="fill:none;stroke:#66c2a5;stroke-linecap:square;stroke-width:2;"/>
   </g>
   <g id="patch_8">
    <path d="M 112.408163 128.16 
L 112.408163 77.76 
" style="fill:none;stroke:#a9a9a9;stroke-linecap:square;stroke-linejoin:miter;stroke-width:2;"/>
   </g>
   <g id="patch_9">
    <path d="M 194.4 128.16 
L 194.4 77.76 
" style="fill:none;"/>
   </g>
   <g id="patch_10">
    <path d="M 27 122.272257 
L 194.4 122.272257 
" style="fill:none;stroke:#a9a9a9;stroke-linecap:square;stroke-linejoin:miter;stroke-width:2;"/>
   </g>
   <g id="patch_11">
    <path d="M 27 77.76 
L 194.4 77.76 
" style="fill:none;"/>
   </g>
  </g>
 </g>
 <defs>
  <clipPath id="p1937654ed7">
   <rect height="50.4" width="167.4" x="27" y="17.28"/>
  </clipPath>
  <clipPath id="p4450e8b801">
   <rect height="50.4" width="167.4" x="27" y="77.76"/>
  </clipPath>
 </defs>
</svg>
