<?xml version="1.0" encoding="utf-8" standalone="no"?>
<!DOCTYPE svg PUBLIC "-//W3C//DTD SVG 1.1//EN"
  "http://www.w3.org/Graphics/SVG/1.1/DTD/svg11.dtd">
<!-- Created with matplotlib (https://matplotlib.org/) -->
<svg height="144pt" version="1.1" viewBox="0 0 216 144" width="216pt" xmlns="http://www.w3.org/2000/svg" xmlns:xlink="http://www.w3.org/1999/xlink">
 <metadata>
  <rdf:RDF xmlns:cc="http://creativecommons.org/ns#" xmlns:dc="http://purl.org/dc/elements/1.1/" xmlns:rdf="http://www.w3.org/1999/02/22-rdf-syntax-ns#">
   <cc:Work>
    <dc:type rdf:resource="http://purl.org/dc/dcmitype/StillImage"/>
    <dc:date>2021-09-28T13:54:26.186726</dc:date>
    <dc:format>image/svg+xml</dc:format>
    <dc:creator>
     <cc:Agent>
      <dc:title>Matplotlib v3.3.2, https://matplotlib.org/</dc:title>
     </cc:Agent>
    </dc:creator>
   </cc:Work>
  </rdf:RDF>
 </metadata>
 <defs>
  <style type="text/css">*{stroke-linecap:butt;stroke-linejoin:round;}</style>
 </defs>
 <g id="figure_1">
  <g id="patch_1">
   <path d="M 0 144 
L 216 144 
L 216 0 
L 0 0 
z
" style="fill:none;"/>
  </g>
  <g id="axes_1">
   <g id="patch_2">
    <path d="M 27 67.68 
L 194.4 67.68 
L 194.4 17.28 
L 27 17.28 
z
" style="fill:none;"/>
   </g>
   <g id="PolyCollection_1">
    <path clip-path="url(#pb5672f8513)" d="M 27 64.08953 
L 27 64.08953 
L 30.416327 64.08953 
L 33.832653 64.08953 
L 37.24898 64.08953 
L 40.665306 64.089524 
L 44.081633 64.086555 
L 47.497959 63.91409 
L 50.914286 63.28526 
L 54.330612 62.465916 
L 57.746939 61.038158 
L 61.163265 59.472519 
L 64.579592 57.111908 
L 67.995918 54.51214 
L 71.412245 50.230705 
L 74.828571 46.346175 
L 78.244898 41.982097 
L 81.661224 35.922061 
L 85.077551 31.951322 
L 88.493878 28.039249 
L 91.910204 22.845646 
L 95.326531 21.19692 
L 98.742857 20.460154 
L 102.159184 17.28 
L 105.57551 20.314633 
L 108.991837 22.444752 
L 112.408163 31.901274 
L 115.82449 31.656291 
L 119.240816 35.381719 
L 122.657143 43.165533 
L 126.073469 44.883726 
L 129.489796 50.006423 
L 132.906122 53.585094 
L 136.322449 55.160648 
L 139.738776 58.926378 
L 143.155102 59.398222 
L 146.571429 60.645623 
L 149.987755 61.021651 
L 153.404082 61.665744 
L 156.820408 62.425651 
L 160.236735 63.121878 
L 163.653061 63.049386 
L 167.069388 63.799998 
L 170.485714 63.70977 
L 173.902041 63.981855 
L 177.318367 64.031378 
L 180.734694 64.088894 
L 184.15102 64.089527 
L 187.567347 64.08953 
L 190.983673 64.08953 
L 194.4 64.08953 
L 194.4 64.08953 
L 194.4 64.08953 
L 190.983673 64.08953 
L 187.567347 64.08953 
L 184.15102 64.089536 
L 180.734694 64.092208 
L 177.318367 64.24276 
L 173.902041 64.694299 
L 170.485714 65.03971 
L 167.069388 65.598585 
L 163.653061 65.788331 
L 160.236735 66.21254 
L 156.820408 66.169468 
L 153.404082 67.113478 
L 149.987755 67.035695 
L 146.571429 66.732692 
L 143.155102 67.68 
L 139.738776 65.864322 
L 136.322449 64.491121 
L 132.906122 63.856379 
L 129.489796 60.349349 
L 126.073469 55.637942 
L 122.657143 55.090659 
L 119.240816 48.036587 
L 115.82449 43.848624 
L 112.408163 33.786646 
L 108.991837 34.853498 
L 105.57551 33.535828 
L 102.159184 28.510573 
L 98.742857 31.349983 
L 95.326531 30.875802 
L 91.910204 33.051812 
L 88.493878 37.203616 
L 85.077551 39.463981 
L 81.661224 44.282603 
L 78.244898 48.244472 
L 74.828571 52.337518 
L 71.412245 55.751254 
L 67.995918 58.333071 
L 64.579592 60.196926 
L 61.163265 62.255839 
L 57.746939 62.951752 
L 54.330612 63.841412 
L 50.914286 64.009191 
L 47.497959 64.121753 
L 44.081633 64.090238 
L 40.665306 64.089534 
L 37.24898 64.08953 
L 33.832653 64.08953 
L 30.416327 64.08953 
L 27 64.08953 
z
" style="fill:#fc8d62;fill-opacity:0.5;"/>
   </g>
   <g id="matplotlib.axis_1">
    <g id="xtick_1">
     <g id="line2d_1">
      <defs>
       <path d="M 0 0 
L 0 3.5 
" id="mdad9398f96" style="stroke:#a9a9a9;stroke-width:2;"/>
      </defs>
      <g>
       <use style="fill:#a9a9a9;stroke:#a9a9a9;stroke-width:2;" x="44.081633" xlink:href="#mdad9398f96" y="64.08953"/>
      </g>
     </g>
    </g>
    <g id="xtick_2">
     <g id="line2d_2">
      <g>
       <use style="fill:#a9a9a9;stroke:#a9a9a9;stroke-width:2;" x="78.244898" xlink:href="#mdad9398f96" y="64.08953"/>
      </g>
     </g>
    </g>
    <g id="xtick_3">
     <g id="line2d_3">
      <g>
       <use style="fill:#a9a9a9;stroke:#a9a9a9;stroke-width:2;" x="112.408163" xlink:href="#mdad9398f96" y="64.08953"/>
      </g>
     </g>
    </g>
    <g id="xtick_4">
     <g id="line2d_4">
      <g>
       <use style="fill:#a9a9a9;stroke:#a9a9a9;stroke-width:2;" x="146.571429" xlink:href="#mdad9398f96" y="64.08953"/>
      </g>
     </g>
    </g>
    <g id="xtick_5">
     <g id="line2d_5">
      <g>
       <use style="fill:#a9a9a9;stroke:#a9a9a9;stroke-width:2;" x="180.734694" xlink:href="#mdad9398f96" y="64.08953"/>
      </g>
     </g>
    </g>
   </g>
   <g id="matplotlib.axis_2"/>
   <g id="line2d_6">
    <path clip-path="url(#pb5672f8513)" d="M 27 64.08953 
L 30.416327 64.08953 
L 33.832653 64.08953 
L 37.24898 64.08953 
L 40.665306 64.089529 
L 44.081633 64.088396 
L 47.497959 64.017922 
L 50.914286 63.647225 
L 54.330612 63.153664 
L 57.746939 61.994955 
L 61.163265 60.864179 
L 64.579592 58.654417 
L 67.995918 56.422605 
L 71.412245 52.990979 
L 74.828571 49.341847 
L 78.244898 45.113284 
L 81.661224 40.102332 
L 85.077551 35.707651 
L 88.493878 32.621432 
L 91.910204 27.948729 
L 95.326531 26.036361 
L 98.742857 25.905068 
L 102.159184 22.895286 
L 105.57551 26.925231 
L 108.991837 28.649125 
L 112.408163 32.84396 
L 115.82449 37.752458 
L 119.240816 41.709153 
L 122.657143 49.128096 
L 126.073469 50.260834 
L 129.489796 55.177886 
L 132.906122 58.720737 
L 136.322449 59.825884 
L 139.738776 62.39535 
L 143.155102 63.539111 
L 146.571429 63.689158 
L 149.987755 64.028673 
L 153.404082 64.389611 
L 156.820408 64.29756 
L 160.236735 64.667209 
L 163.653061 64.418858 
L 167.069388 64.699292 
L 170.485714 64.37474 
L 173.902041 64.338077 
L 177.318367 64.137069 
L 180.734694 64.090551 
L 184.15102 64.089531 
L 187.567347 64.08953 
L 190.983673 64.08953 
L 194.4 64.08953 
" style="fill:none;stroke:#fc8d62;stroke-linecap:square;stroke-width:2;"/>
   </g>
   <g id="line2d_7">
    <path clip-path="url(#pb5672f8513)" d="M 27 64.08953 
L 30.416327 64.08953 
L 33.832653 64.08953 
L 37.24898 64.08953 
L 40.665306 64.08953 
L 44.081633 64.089357 
L 47.497959 64.007693 
L 50.914286 63.723874 
L 54.330612 63.116118 
L 57.746939 62.072647 
L 61.163265 61.022213 
L 64.579592 59.206341 
L 67.995918 56.647593 
L 71.412245 54.451575 
L 74.828571 51.047632 
L 78.244898 48.123369 
L 81.661224 44.212417 
L 85.077551 40.709798 
L 88.493878 35.911973 
L 91.910204 32.300773 
L 95.326531 29.17209 
L 98.742857 26.684646 
L 102.159184 25.619955 
L 105.57551 22.895286 
L 108.991837 22.934581 
L 112.408163 23.253844 
L 115.82449 24.52311 
L 119.240816 27.375074 
L 122.657143 28.882901 
L 126.073469 33.289956 
L 129.489796 37.31913 
L 132.906122 41.431774 
L 136.322449 45.071351 
L 139.738776 47.756269 
L 143.155102 51.464225 
L 146.571429 54.146267 
L 149.987755 57.357274 
L 153.404082 59.260605 
L 156.820408 61.507915 
L 160.236735 62.450714 
L 163.653061 63.298006 
L 167.069388 64.086116 
L 170.485714 64.1919 
L 173.902041 64.19342 
L 177.318367 64.139113 
L 180.734694 64.089687 
L 184.15102 64.08953 
L 187.567347 64.08953 
L 190.983673 64.08953 
L 194.4 64.08953 
" style="fill:none;stroke:#fc8d62;stroke-dasharray:1.5,2.475;stroke-dashoffset:0;stroke-opacity:0.5;stroke-width:1.5;"/>
   </g>
   <g id="patch_3">
    <path d="M 112.408163 67.68 
L 112.408163 17.28 
" style="fill:none;stroke:#a9a9a9;stroke-linecap:square;stroke-linejoin:miter;stroke-width:2;"/>
   </g>
   <g id="patch_4">
    <path d="M 194.4 67.68 
L 194.4 17.28 
" style="fill:none;"/>
   </g>
   <g id="patch_5">
    <path d="M 27 64.08953 
L 194.4 64.08953 
" style="fill:none;stroke:#a9a9a9;stroke-linecap:square;stroke-linejoin:miter;stroke-width:2;"/>
   </g>
   <g id="patch_6">
    <path d="M 27 17.28 
L 194.4 17.28 
" style="fill:none;"/>
   </g>
   <g id="legend_1">
    <g id="line2d_8">
     <path d="M 152.47 26.448906 
L 166.47 26.448906 
" style="fill:none;stroke:#fc8d62;stroke-linecap:square;stroke-width:2;"/>
    </g>
    <g id="line2d_9"/>
    <g id="text_1">
     <!-- $\theta$ -->
     <g transform="translate(172.07 28.898906)scale(0.07 -0.07)">
      <defs>
       <path d="M 45.515625 34.671875 
L 14.453125 34.671875 
Q 12.359375 20.0625 14.5 13.875 
Q 17.1875 6.25 24.46875 6.25 
Q 31.78125 6.25 37.359375 13.921875 
Q 42.234375 20.65625 45.515625 34.671875 
z
M 47.015625 42.96875 
Q 48.34375 56.84375 46.625 61.71875 
Q 43.953125 69.4375 36.765625 69.4375 
Q 29.296875 69.4375 23.828125 61.8125 
Q 19.53125 55.671875 16.15625 42.96875 
z
M 38.1875 76.765625 
Q 49.90625 76.765625 54.59375 66.40625 
Q 59.28125 56.109375 55.71875 37.84375 
Q 52.203125 19.625 43.453125 9.28125 
Q 34.765625 -1.125 23.046875 -1.125 
Q 11.28125 -1.125 6.640625 9.28125 
Q 2 19.625 5.515625 37.84375 
Q 9.078125 56.109375 17.71875 66.40625 
Q 26.421875 76.765625 38.1875 76.765625 
z
" id="DejaVuSans-Oblique-952"/>
      </defs>
      <use transform="translate(0 0.234375)" xlink:href="#DejaVuSans-Oblique-952"/>
     </g>
    </g>
    <g id="line2d_10">
     <path d="M 152.47 36.723594 
L 166.47 36.723594 
" style="fill:none;stroke:#fc8d62;stroke-dasharray:1.5,2.475;stroke-dashoffset:0;stroke-opacity:0.5;stroke-width:1.5;"/>
    </g>
    <g id="line2d_11"/>
    <g id="text_2">
     <!-- No $\theta$ -->
     <g transform="translate(172.07 39.173594)scale(0.07 -0.07)">
      <defs>
       <path d="M 9.8125 72.90625 
L 23.09375 72.90625 
L 55.421875 11.921875 
L 55.421875 72.90625 
L 64.984375 72.90625 
L 64.984375 0 
L 51.703125 0 
L 19.390625 60.984375 
L 19.390625 0 
L 9.8125 0 
z
" id="DejaVuSans-78"/>
       <path d="M 30.609375 48.390625 
Q 23.390625 48.390625 19.1875 42.75 
Q 14.984375 37.109375 14.984375 27.296875 
Q 14.984375 17.484375 19.15625 11.84375 
Q 23.34375 6.203125 30.609375 6.203125 
Q 37.796875 6.203125 41.984375 11.859375 
Q 46.1875 17.53125 46.1875 27.296875 
Q 46.1875 37.015625 41.984375 42.703125 
Q 37.796875 48.390625 30.609375 48.390625 
z
M 30.609375 56 
Q 42.328125 56 49.015625 48.375 
Q 55.71875 40.765625 55.71875 27.296875 
Q 55.71875 13.875 49.015625 6.21875 
Q 42.328125 -1.421875 30.609375 -1.421875 
Q 18.84375 -1.421875 12.171875 6.21875 
Q 5.515625 13.875 5.515625 27.296875 
Q 5.515625 40.765625 12.171875 48.375 
Q 18.84375 56 30.609375 56 
z
" id="DejaVuSans-111"/>
       <path id="DejaVuSans-32"/>
      </defs>
      <use transform="translate(0 0.234375)" xlink:href="#DejaVuSans-78"/>
      <use transform="translate(74.804688 0.234375)" xlink:href="#DejaVuSans-111"/>
      <use transform="translate(135.986328 0.234375)" xlink:href="#DejaVuSans-32"/>
      <use transform="translate(167.773438 0.234375)" xlink:href="#DejaVuSans-Oblique-952"/>
     </g>
    </g>
   </g>
  </g>
  <g id="axes_2">
   <g id="patch_7">
    <path d="M 27 128.16 
L 194.4 128.16 
L 194.4 77.76 
L 27 77.76 
z
" style="fill:none;"/>
   </g>
   <g id="PolyCollection_2">
    <path clip-path="url(#p4f09af295d)" d="M 27 120.602644 
L 27 120.519602 
L 30.416327 120.72731 
L 33.832653 120.800752 
L 37.24898 120.74223 
L 40.665306 120.592724 
L 44.081633 120.421793 
L 47.497959 120.27073 
L 50.914286 120.001422 
L 54.330612 119.454929 
L 57.746939 118.50519 
L 61.163265 117.061182 
L 64.579592 115.071947 
L 67.995918 112.528879 
L 71.412245 109.463179 
L 74.828571 105.942277 
L 78.244898 102.066391 
L 81.661224 97.964862 
L 85.077551 93.791992 
L 88.493878 89.722345 
L 91.910204 85.945304 
L 95.326531 82.65946 
L 98.742857 80.067082 
L 102.159184 78.368975 
L 105.57551 77.76 
L 108.991837 78.425437 
L 112.408163 80.53194 
L 115.82449 84.155229 
L 119.240816 88.923179 
L 122.657143 94.402568 
L 126.073469 100.188635 
L 129.489796 105.925242 
L 132.906122 111.314279 
L 136.322449 116.121073 
L 139.738776 120.176358 
L 143.155102 123.375803 
L 146.571429 125.678599 
L 149.987755 127.103823 
L 153.404082 127.721165 
L 156.820408 127.637984 
L 160.236735 126.987687 
L 163.653061 125.92066 
L 167.069388 124.59643 
L 170.485714 123.176777 
L 173.902041 121.820159 
L 177.318367 120.678925 
L 180.734694 119.902088 
L 184.15102 119.58822 
L 187.567347 119.6323 
L 190.983673 119.884773 
L 194.4 120.214954 
L 194.4 120.322306 
L 194.4 120.322306 
L 190.983673 120.014537 
L 187.567347 119.778308 
L 184.15102 119.742737 
L 180.734694 120.060918 
L 177.318367 120.85055 
L 173.902041 122.025272 
L 170.485714 123.432421 
L 167.069388 124.907742 
L 163.653061 126.282365 
L 160.236735 127.388008 
L 156.820408 128.062997 
L 153.404082 128.16 
L 149.987755 127.555093 
L 146.571429 126.156795 
L 143.155102 123.912543 
L 139.738776 120.81256 
L 136.322449 116.895253 
L 132.906122 112.255447 
L 129.489796 107.050929 
L 126.073469 101.504824 
L 122.657143 95.904148 
L 119.240816 90.594534 
L 115.82449 85.970859 
L 112.408163 82.457353 
L 108.991837 80.419803 
L 105.57551 79.778411 
L 102.159184 80.366048 
L 98.742857 81.999064 
L 95.326531 84.486173 
L 91.910204 87.631926 
L 88.493878 91.240949 
L 85.077551 95.122789 
L 81.661224 99.097094 
L 78.244898 102.998832 
L 74.828571 106.68309 
L 71.412245 110.029446 
L 67.995918 112.945646 
L 64.579592 115.37078 
L 61.163265 117.277525 
L 57.746939 118.672818 
L 54.330612 119.5978 
L 50.914286 120.130523 
L 47.497959 120.388917 
L 44.081633 120.527985 
L 40.665306 120.683063 
L 37.24898 120.814678 
L 33.832653 120.861051 
L 30.416327 120.79141 
L 27 120.602644 
z
" style="fill:#66c2a5;fill-opacity:0.5;"/>
   </g>
   <g id="matplotlib.axis_3">
    <g id="xtick_6">
     <g id="line2d_12">
      <g>
       <use style="fill:#a9a9a9;stroke:#a9a9a9;stroke-width:2;" x="44.081633" xlink:href="#mdad9398f96" y="122.296761"/>
      </g>
     </g>
    </g>
    <g id="xtick_7">
     <g id="line2d_13">
      <g>
       <use style="fill:#a9a9a9;stroke:#a9a9a9;stroke-width:2;" x="78.244898" xlink:href="#mdad9398f96" y="122.296761"/>
      </g>
     </g>
    </g>
    <g id="xtick_8">
     <g id="line2d_14">
      <g>
       <use style="fill:#a9a9a9;stroke:#a9a9a9;stroke-width:2;" x="112.408163" xlink:href="#mdad9398f96" y="122.296761"/>
      </g>
     </g>
    </g>
    <g id="xtick_9">
     <g id="line2d_15">
      <g>
       <use style="fill:#a9a9a9;stroke:#a9a9a9;stroke-width:2;" x="146.571429" xlink:href="#mdad9398f96" y="122.296761"/>
      </g>
     </g>
    </g>
    <g id="xtick_10">
     <g id="line2d_16">
      <g>
       <use style="fill:#a9a9a9;stroke:#a9a9a9;stroke-width:2;" x="180.734694" xlink:href="#mdad9398f96" y="122.296761"/>
      </g>
     </g>
    </g>
   </g>
   <g id="matplotlib.axis_4"/>
   <g id="line2d_17">
    <path clip-path="url(#p4f09af295d)" d="M 27 120.561123 
L 30.416327 120.75936 
L 33.832653 120.830901 
L 37.24898 120.778454 
L 40.665306 120.637894 
L 44.081633 120.474889 
L 47.497959 120.329823 
L 50.914286 120.065972 
L 54.330612 119.526365 
L 57.746939 118.589004 
L 61.163265 117.169354 
L 64.579592 115.221363 
L 67.995918 112.737262 
L 71.412245 109.746313 
L 74.828571 106.312684 
L 78.244898 102.532612 
L 81.661224 98.530978 
L 85.077551 94.457391 
L 88.493878 90.481647 
L 91.910204 86.788615 
L 95.326531 83.572816 
L 98.742857 81.033073 
L 102.159184 79.367511 
L 105.57551 78.769206 
L 108.991837 79.42262 
L 112.408163 81.494646 
L 115.82449 85.063044 
L 119.240816 89.758856 
L 122.657143 95.153358 
L 126.073469 100.846729 
L 129.489796 106.488086 
L 132.906122 111.784863 
L 136.322449 116.508163 
L 139.738776 120.494459 
L 143.155102 123.644173 
L 146.571429 125.917697 
L 149.987755 127.329458 
L 153.404082 127.940582 
L 156.820408 127.85049 
L 160.236735 127.187848 
L 163.653061 126.101513 
L 167.069388 124.752086 
L 170.485714 123.304599 
L 173.902041 121.922716 
L 177.318367 120.764737 
L 180.734694 119.981503 
L 184.15102 119.665478 
L 187.567347 119.705304 
L 190.983673 119.949655 
L 194.4 120.26863 
" style="fill:none;stroke:#66c2a5;stroke-linecap:square;stroke-width:2;"/>
   </g>
   <g id="patch_8">
    <path d="M 112.408163 128.16 
L 112.408163 77.76 
" style="fill:none;stroke:#a9a9a9;stroke-linecap:square;stroke-linejoin:miter;stroke-width:2;"/>
   </g>
   <g id="patch_9">
    <path d="M 194.4 128.16 
L 194.4 77.76 
" style="fill:none;"/>
   </g>
   <g id="patch_10">
    <path d="M 27 122.296761 
L 194.4 122.296761 
" style="fill:none;stroke:#a9a9a9;stroke-linecap:square;stroke-linejoin:miter;stroke-width:2;"/>
   </g>
   <g id="patch_11">
    <path d="M 27 77.76 
L 194.4 77.76 
" style="fill:none;"/>
   </g>
  </g>
 </g>
 <defs>
  <clipPath id="pb5672f8513">
   <rect height="50.4" width="167.4" x="27" y="17.28"/>
  </clipPath>
  <clipPath id="p4f09af295d">
   <rect height="50.4" width="167.4" x="27" y="77.76"/>
  </clipPath>
 </defs>
</svg>
