<?xml version="1.0" encoding="utf-8" standalone="no"?>
<!DOCTYPE svg PUBLIC "-//W3C//DTD SVG 1.1//EN"
  "http://www.w3.org/Graphics/SVG/1.1/DTD/svg11.dtd">
<!-- Created with matplotlib (https://matplotlib.org/) -->
<svg height="144pt" version="1.1" viewBox="0 0 216 144" width="216pt" xmlns="http://www.w3.org/2000/svg" xmlns:xlink="http://www.w3.org/1999/xlink">
 <metadata>
  <rdf:RDF xmlns:cc="http://creativecommons.org/ns#" xmlns:dc="http://purl.org/dc/elements/1.1/" xmlns:rdf="http://www.w3.org/1999/02/22-rdf-syntax-ns#">
   <cc:Work>
    <dc:type rdf:resource="http://purl.org/dc/dcmitype/StillImage"/>
    <dc:date>2021-09-28T10:30:21.395384</dc:date>
    <dc:format>image/svg+xml</dc:format>
    <dc:creator>
     <cc:Agent>
      <dc:title>Matplotlib v3.3.2, https://matplotlib.org/</dc:title>
     </cc:Agent>
    </dc:creator>
   </cc:Work>
  </rdf:RDF>
 </metadata>
 <defs>
  <style type="text/css">*{stroke-linecap:butt;stroke-linejoin:round;}</style>
 </defs>
 <g id="figure_1">
  <g id="patch_1">
   <path d="M 0 144 
L 216 144 
L 216 0 
L 0 0 
z
" style="fill:none;"/>
  </g>
  <g id="axes_1">
   <g id="patch_2">
    <path d="M 27 67.68 
L 194.4 67.68 
L 194.4 17.28 
L 27 17.28 
z
" style="fill:none;"/>
   </g>
   <g id="PolyCollection_1">
    <path clip-path="url(#p7d4a000865)" d="M 27 54.241233 
L 27 54.241233 
L 30.416327 54.241233 
L 33.832653 54.241233 
L 37.24898 54.241233 
L 40.665306 54.241233 
L 44.081633 54.241233 
L 47.497959 54.240911 
L 50.914286 53.577687 
L 54.330612 53.423104 
L 57.746939 52.482473 
L 61.163265 51.45114 
L 64.579592 51.413255 
L 67.995918 50.429311 
L 71.412245 50.472308 
L 74.828571 49.682832 
L 78.244898 46.434561 
L 81.661224 43.895051 
L 85.077551 42.776762 
L 88.493878 30.419286 
L 91.910204 29.310786 
L 95.326531 31.543002 
L 98.742857 34.948246 
L 102.159184 17.28 
L 105.57551 22.907129 
L 108.991837 24.924042 
L 112.408163 36.252911 
L 115.82449 38.188833 
L 119.240816 38.696007 
L 122.657143 39.797594 
L 126.073469 38.413804 
L 129.489796 43.810152 
L 132.906122 44.545968 
L 136.322449 44.699367 
L 139.738776 39.850867 
L 143.155102 40.300591 
L 146.571429 44.625089 
L 149.987755 47.120839 
L 153.404082 48.164179 
L 156.820408 48.451685 
L 160.236735 49.130798 
L 163.653061 51.118144 
L 167.069388 52.430161 
L 170.485714 52.837942 
L 173.902041 52.899188 
L 177.318367 54.241061 
L 180.734694 54.241233 
L 184.15102 54.241233 
L 187.567347 54.241233 
L 190.983673 54.241233 
L 194.4 54.241233 
L 194.4 54.241233 
L 194.4 54.241233 
L 190.983673 54.241233 
L 187.567347 54.241233 
L 184.15102 54.241233 
L 180.734694 54.241233 
L 177.318367 54.24149 
L 173.902041 55.070541 
L 170.485714 55.309576 
L 167.069388 55.894921 
L 163.653061 56.646619 
L 160.236735 57.558765 
L 156.820408 57.856871 
L 153.404082 57.109002 
L 149.987755 57.778945 
L 146.571429 59.747641 
L 143.155102 61.333076 
L 139.738776 60.563781 
L 136.322449 65.050027 
L 132.906122 62.895431 
L 129.489796 59.674063 
L 126.073469 60.666898 
L 122.657143 67.68 
L 119.240816 64.647993 
L 115.82449 63.331342 
L 112.408163 56.665923 
L 108.991837 62.492129 
L 105.57551 64.125563 
L 102.159184 66.086666 
L 98.742857 59.815322 
L 95.326531 61.076488 
L 91.910204 61.992689 
L 88.493878 61.56235 
L 85.077551 61.589497 
L 81.661224 60.514321 
L 78.244898 58.352339 
L 74.828571 56.859946 
L 71.412245 56.766819 
L 67.995918 57.457404 
L 64.579592 56.942623 
L 61.163265 56.45458 
L 57.746939 55.604257 
L 54.330612 55.246789 
L 50.914286 55.314643 
L 47.497959 54.241448 
L 44.081633 54.241233 
L 40.665306 54.241233 
L 37.24898 54.241233 
L 33.832653 54.241233 
L 30.416327 54.241233 
L 27 54.241233 
z
" style="fill:#fc8d62;fill-opacity:0.5;"/>
   </g>
   <g id="matplotlib.axis_1">
    <g id="xtick_1">
     <g id="line2d_1">
      <defs>
       <path d="M 0 0 
L 0 3.5 
" id="mb33b14bfb4" style="stroke:#a9a9a9;stroke-width:2;"/>
      </defs>
      <g>
       <use style="fill:#a9a9a9;stroke:#a9a9a9;stroke-width:2;" x="44.081633" xlink:href="#mb33b14bfb4" y="54.241233"/>
      </g>
     </g>
    </g>
    <g id="xtick_2">
     <g id="line2d_2">
      <g>
       <use style="fill:#a9a9a9;stroke:#a9a9a9;stroke-width:2;" x="78.244898" xlink:href="#mb33b14bfb4" y="54.241233"/>
      </g>
     </g>
    </g>
    <g id="xtick_3">
     <g id="line2d_3">
      <g>
       <use style="fill:#a9a9a9;stroke:#a9a9a9;stroke-width:2;" x="112.408163" xlink:href="#mb33b14bfb4" y="54.241233"/>
      </g>
     </g>
    </g>
    <g id="xtick_4">
     <g id="line2d_4">
      <g>
       <use style="fill:#a9a9a9;stroke:#a9a9a9;stroke-width:2;" x="146.571429" xlink:href="#mb33b14bfb4" y="54.241233"/>
      </g>
     </g>
    </g>
    <g id="xtick_5">
     <g id="line2d_5">
      <g>
       <use style="fill:#a9a9a9;stroke:#a9a9a9;stroke-width:2;" x="180.734694" xlink:href="#mb33b14bfb4" y="54.241233"/>
      </g>
     </g>
    </g>
   </g>
   <g id="matplotlib.axis_2"/>
   <g id="line2d_6">
    <path clip-path="url(#p7d4a000865)" d="M 27 54.241233 
L 30.416327 54.241233 
L 33.832653 54.241233 
L 37.24898 54.241233 
L 40.665306 54.241233 
L 44.081633 54.241233 
L 47.497959 54.24118 
L 50.914286 54.446165 
L 54.330612 54.334946 
L 57.746939 54.043365 
L 61.163265 53.95286 
L 64.579592 54.177939 
L 67.995918 53.943358 
L 71.412245 53.619563 
L 74.828571 53.271389 
L 78.244898 52.39345 
L 81.661224 52.204686 
L 85.077551 52.18313 
L 88.493878 45.990818 
L 91.910204 45.651737 
L 95.326531 46.309745 
L 98.742857 47.381784 
L 102.159184 41.683333 
L 105.57551 43.516346 
L 108.991837 43.708085 
L 112.408163 46.459417 
L 115.82449 50.760087 
L 119.240816 51.672 
L 122.657143 53.738797 
L 126.073469 49.540351 
L 129.489796 51.742108 
L 132.906122 53.7207 
L 136.322449 54.874697 
L 139.738776 50.207324 
L 143.155102 50.816833 
L 146.571429 52.186365 
L 149.987755 52.449892 
L 153.404082 52.636591 
L 156.820408 53.154278 
L 160.236735 53.344781 
L 163.653061 53.882381 
L 167.069388 54.162541 
L 170.485714 54.073759 
L 173.902041 53.984864 
L 177.318367 54.241275 
L 180.734694 54.241233 
L 184.15102 54.241233 
L 187.567347 54.241233 
L 190.983673 54.241233 
L 194.4 54.241233 
" style="fill:none;stroke:#fc8d62;stroke-linecap:square;stroke-width:2;"/>
   </g>
   <g id="line2d_7">
    <path clip-path="url(#p7d4a000865)" d="M 27 54.241233 
L 30.416327 54.241233 
L 33.832653 54.241233 
L 37.24898 54.241233 
L 40.665306 54.241233 
L 44.081633 54.241231 
L 47.497959 54.208312 
L 50.914286 54.291431 
L 54.330612 53.937677 
L 57.746939 53.721217 
L 61.163265 53.792819 
L 64.579592 52.944853 
L 67.995918 52.720983 
L 71.412245 53.735617 
L 74.828571 50.765082 
L 78.244898 50.428545 
L 81.661224 50.148934 
L 85.077551 48.120787 
L 88.493878 46.008532 
L 91.910204 46.471665 
L 95.326531 45.731907 
L 98.742857 45.100312 
L 102.159184 43.1506 
L 105.57551 41.683333 
L 108.991837 42.702352 
L 112.408163 43.000888 
L 115.82449 45.474645 
L 119.240816 46.263219 
L 122.657143 46.472799 
L 126.073469 45.767463 
L 129.489796 46.662955 
L 132.906122 47.522672 
L 136.322449 50.592753 
L 139.738776 49.909365 
L 143.155102 49.93969 
L 146.571429 51.810318 
L 149.987755 52.657422 
L 153.404082 50.927094 
L 156.820408 53.086044 
L 160.236735 53.997309 
L 163.653061 53.743156 
L 167.069388 54.277857 
L 170.485714 54.358363 
L 173.902041 54.12726 
L 177.318367 54.267042 
L 180.734694 54.241234 
L 184.15102 54.241233 
L 187.567347 54.241233 
L 190.983673 54.241233 
L 194.4 54.241233 
" style="fill:none;stroke:#fc8d62;stroke-dasharray:1.5,2.475;stroke-dashoffset:0;stroke-opacity:0.5;stroke-width:1.5;"/>
   </g>
   <g id="patch_3">
    <path d="M 112.408163 67.68 
L 112.408163 17.28 
" style="fill:none;stroke:#a9a9a9;stroke-linecap:square;stroke-linejoin:miter;stroke-width:2;"/>
   </g>
   <g id="patch_4">
    <path d="M 194.4 67.68 
L 194.4 17.28 
" style="fill:none;"/>
   </g>
   <g id="patch_5">
    <path d="M 27 54.241233 
L 194.4 54.241233 
" style="fill:none;stroke:#a9a9a9;stroke-linecap:square;stroke-linejoin:miter;stroke-width:2;"/>
   </g>
   <g id="patch_6">
    <path d="M 27 17.28 
L 194.4 17.28 
" style="fill:none;"/>
   </g>
   <g id="legend_1">
    <g id="line2d_8">
     <path d="M 152.47 26.448906 
L 166.47 26.448906 
" style="fill:none;stroke:#fc8d62;stroke-linecap:square;stroke-width:2;"/>
    </g>
    <g id="line2d_9"/>
    <g id="text_1">
     <!-- $\theta$ -->
     <g transform="translate(172.07 28.898906)scale(0.07 -0.07)">
      <defs>
       <path d="M 45.515625 34.671875 
L 14.453125 34.671875 
Q 12.359375 20.0625 14.5 13.875 
Q 17.1875 6.25 24.46875 6.25 
Q 31.78125 6.25 37.359375 13.921875 
Q 42.234375 20.65625 45.515625 34.671875 
z
M 47.015625 42.96875 
Q 48.34375 56.84375 46.625 61.71875 
Q 43.953125 69.4375 36.765625 69.4375 
Q 29.296875 69.4375 23.828125 61.8125 
Q 19.53125 55.671875 16.15625 42.96875 
z
M 38.1875 76.765625 
Q 49.90625 76.765625 54.59375 66.40625 
Q 59.28125 56.109375 55.71875 37.84375 
Q 52.203125 19.625 43.453125 9.28125 
Q 34.765625 -1.125 23.046875 -1.125 
Q 11.28125 -1.125 6.640625 9.28125 
Q 2 19.625 5.515625 37.84375 
Q 9.078125 56.109375 17.71875 66.40625 
Q 26.421875 76.765625 38.1875 76.765625 
z
" id="DejaVuSans-Oblique-952"/>
      </defs>
      <use transform="translate(0 0.234375)" xlink:href="#DejaVuSans-Oblique-952"/>
     </g>
    </g>
    <g id="line2d_10">
     <path d="M 152.47 36.723594 
L 166.47 36.723594 
" style="fill:none;stroke:#fc8d62;stroke-dasharray:1.5,2.475;stroke-dashoffset:0;stroke-opacity:0.5;stroke-width:1.5;"/>
    </g>
    <g id="line2d_11"/>
    <g id="text_2">
     <!-- No $\theta$ -->
     <g transform="translate(172.07 39.173594)scale(0.07 -0.07)">
      <defs>
       <path d="M 9.8125 72.90625 
L 23.09375 72.90625 
L 55.421875 11.921875 
L 55.421875 72.90625 
L 64.984375 72.90625 
L 64.984375 0 
L 51.703125 0 
L 19.390625 60.984375 
L 19.390625 0 
L 9.8125 0 
z
" id="DejaVuSans-78"/>
       <path d="M 30.609375 48.390625 
Q 23.390625 48.390625 19.1875 42.75 
Q 14.984375 37.109375 14.984375 27.296875 
Q 14.984375 17.484375 19.15625 11.84375 
Q 23.34375 6.203125 30.609375 6.203125 
Q 37.796875 6.203125 41.984375 11.859375 
Q 46.1875 17.53125 46.1875 27.296875 
Q 46.1875 37.015625 41.984375 42.703125 
Q 37.796875 48.390625 30.609375 48.390625 
z
M 30.609375 56 
Q 42.328125 56 49.015625 48.375 
Q 55.71875 40.765625 55.71875 27.296875 
Q 55.71875 13.875 49.015625 6.21875 
Q 42.328125 -1.421875 30.609375 -1.421875 
Q 18.84375 -1.421875 12.171875 6.21875 
Q 5.515625 13.875 5.515625 27.296875 
Q 5.515625 40.765625 12.171875 48.375 
Q 18.84375 56 30.609375 56 
z
" id="DejaVuSans-111"/>
       <path id="DejaVuSans-32"/>
      </defs>
      <use transform="translate(0 0.234375)" xlink:href="#DejaVuSans-78"/>
      <use transform="translate(74.804688 0.234375)" xlink:href="#DejaVuSans-111"/>
      <use transform="translate(135.986328 0.234375)" xlink:href="#DejaVuSans-32"/>
      <use transform="translate(167.773438 0.234375)" xlink:href="#DejaVuSans-Oblique-952"/>
     </g>
    </g>
   </g>
  </g>
  <g id="axes_2">
   <g id="patch_7">
    <path d="M 27 128.16 
L 194.4 128.16 
L 194.4 77.76 
L 27 77.76 
z
" style="fill:none;"/>
   </g>
   <g id="PolyCollection_2">
    <path clip-path="url(#pdb268f4f8b)" d="M 27 122.581735 
L 27 122.575982 
L 30.416327 122.577419 
L 33.832653 122.577952 
L 37.24898 122.578084 
L 40.665306 122.578104 
L 44.081633 122.57806 
L 47.497959 122.559301 
L 50.914286 122.43807 
L 54.330612 122.123278 
L 57.746939 121.539324 
L 61.163265 120.629331 
L 64.579592 119.358092 
L 67.995918 117.714028 
L 71.412245 115.709707 
L 74.828571 113.381017 
L 78.244898 110.785466 
L 81.661224 107.999343 
L 85.077551 105.113341 
L 88.493878 102.227925 
L 91.910204 99.449016 
L 95.326531 96.883741 
L 98.742857 94.636163 
L 102.159184 92.803062 
L 105.57551 91.469882 
L 108.991837 90.706946 
L 112.408163 77.76 
L 115.82449 91.067508 
L 119.240816 92.173876 
L 122.657143 93.819045 
L 126.073469 95.921008 
L 129.489796 98.385515 
L 132.906122 101.109932 
L 136.322449 103.987224 
L 139.738776 106.910026 
L 143.155102 109.7747 
L 146.571429 112.485356 
L 149.987755 114.958003 
L 153.404082 117.125204 
L 156.820408 118.940293 
L 160.236735 120.379311 
L 163.653061 121.441122 
L 167.069388 122.143246 
L 170.485714 122.470643 
L 173.902041 122.485631 
L 177.318367 122.495339 
L 180.734694 122.520909 
L 184.15102 122.542587 
L 187.567347 122.557517 
L 190.983673 122.567152 
L 194.4 122.572895 
L 194.4 122.587584 
L 194.4 122.587584 
L 190.983673 122.599252 
L 187.567347 122.620195 
L 184.15102 122.654846 
L 180.734694 122.708506 
L 177.318367 122.771546 
L 173.902041 122.77233 
L 170.485714 122.669635 
L 167.069388 122.712804 
L 163.653061 122.913818 
L 160.236735 123.217487 
L 156.820408 123.613869 
L 153.404082 124.089145 
L 149.987755 124.622998 
L 146.571429 125.189622 
L 143.155102 125.759804 
L 139.738776 126.304505 
L 136.322449 126.79816 
L 132.906122 127.220839 
L 129.489796 127.559656 
L 126.073469 127.809718 
L 122.657143 127.974713 
L 119.240816 128.067178 
L 115.82449 128.108521 
L 112.408163 115.32291 
L 108.991837 128.153507 
L 105.57551 128.16 
L 102.159184 128.118602 
L 98.742857 128.007106 
L 95.326531 127.811175 
L 91.910204 127.524542 
L 88.493878 127.149006 
L 85.077551 126.694151 
L 81.661224 126.176717 
L 78.244898 125.619525 
L 74.828571 125.049717 
L 71.412245 124.49599 
L 67.995918 123.985327 
L 64.579592 123.540543 
L 61.163265 123.178224 
L 57.746939 122.906846 
L 54.330612 122.725672 
L 50.914286 122.624586 
L 47.497959 122.584553 
L 44.081633 122.57813 
L 40.665306 122.578104 
L 37.24898 122.57813 
L 33.832653 122.578332 
L 30.416327 122.579204 
L 27 122.581735 
z
" style="fill:#66c2a5;fill-opacity:0.5;"/>
   </g>
   <g id="matplotlib.axis_3">
    <g id="xtick_6">
     <g id="line2d_12">
      <g>
       <use style="fill:#a9a9a9;stroke:#a9a9a9;stroke-width:2;" x="44.081633" xlink:href="#mb33b14bfb4" y="122.578104"/>
      </g>
     </g>
    </g>
    <g id="xtick_7">
     <g id="line2d_13">
      <g>
       <use style="fill:#a9a9a9;stroke:#a9a9a9;stroke-width:2;" x="78.244898" xlink:href="#mb33b14bfb4" y="122.578104"/>
      </g>
     </g>
    </g>
    <g id="xtick_8">
     <g id="line2d_14">
      <g>
       <use style="fill:#a9a9a9;stroke:#a9a9a9;stroke-width:2;" x="112.408163" xlink:href="#mb33b14bfb4" y="122.578104"/>
      </g>
     </g>
    </g>
    <g id="xtick_9">
     <g id="line2d_15">
      <g>
       <use style="fill:#a9a9a9;stroke:#a9a9a9;stroke-width:2;" x="146.571429" xlink:href="#mb33b14bfb4" y="122.578104"/>
      </g>
     </g>
    </g>
    <g id="xtick_10">
     <g id="line2d_16">
      <g>
       <use style="fill:#a9a9a9;stroke:#a9a9a9;stroke-width:2;" x="180.734694" xlink:href="#mb33b14bfb4" y="122.578104"/>
      </g>
     </g>
    </g>
   </g>
   <g id="matplotlib.axis_4"/>
   <g id="line2d_17">
    <path clip-path="url(#pdb268f4f8b)" d="M 27 122.578858 
L 30.416327 122.578311 
L 33.832653 122.578142 
L 37.24898 122.578107 
L 40.665306 122.578104 
L 44.081633 122.578095 
L 47.497959 122.571927 
L 50.914286 122.531328 
L 54.330612 122.424475 
L 57.746939 122.223085 
L 61.163265 121.903777 
L 64.579592 121.449318 
L 67.995918 120.849677 
L 71.412245 120.102848 
L 74.828571 119.215367 
L 78.244898 118.202496 
L 81.661224 117.08803 
L 85.077551 115.903746 
L 88.493878 114.688466 
L 91.910204 113.486779 
L 95.326531 112.347458 
L 98.742857 111.321635 
L 102.159184 110.460832 
L 105.57551 109.814941 
L 108.991837 109.430227 
L 112.408163 96.541455 
L 115.82449 109.588015 
L 119.240816 110.120527 
L 122.657143 110.896879 
L 126.073469 111.865363 
L 129.489796 112.972586 
L 132.906122 114.165386 
L 136.322449 115.392692 
L 139.738776 116.607266 
L 143.155102 117.767252 
L 146.571429 118.837489 
L 149.987755 119.7905 
L 153.404082 120.607174 
L 156.820408 121.277081 
L 160.236735 121.798399 
L 163.653061 122.17747 
L 167.069388 122.428025 
L 170.485714 122.570139 
L 173.902041 122.628981 
L 177.318367 122.633443 
L 180.734694 122.614708 
L 184.15102 122.598717 
L 187.567347 122.588856 
L 190.983673 122.583202 
L 194.4 122.580239 
" style="fill:none;stroke:#66c2a5;stroke-linecap:square;stroke-width:2;"/>
   </g>
   <g id="patch_8">
    <path d="M 112.408163 128.16 
L 112.408163 77.76 
" style="fill:none;stroke:#a9a9a9;stroke-linecap:square;stroke-linejoin:miter;stroke-width:2;"/>
   </g>
   <g id="patch_9">
    <path d="M 194.4 128.16 
L 194.4 77.76 
" style="fill:none;"/>
   </g>
   <g id="patch_10">
    <path d="M 27 122.578104 
L 194.4 122.578104 
" style="fill:none;stroke:#a9a9a9;stroke-linecap:square;stroke-linejoin:miter;stroke-width:2;"/>
   </g>
   <g id="patch_11">
    <path d="M 27 77.76 
L 194.4 77.76 
" style="fill:none;"/>
   </g>
  </g>
 </g>
 <defs>
  <clipPath id="p7d4a000865">
   <rect height="50.4" width="167.4" x="27" y="17.28"/>
  </clipPath>
  <clipPath id="pdb268f4f8b">
   <rect height="50.4" width="167.4" x="27" y="77.76"/>
  </clipPath>
 </defs>
</svg>
