<?xml version="1.0" encoding="utf-8" standalone="no"?>
<!DOCTYPE svg PUBLIC "-//W3C//DTD SVG 1.1//EN"
  "http://www.w3.org/Graphics/SVG/1.1/DTD/svg11.dtd">
<!-- Created with matplotlib (https://matplotlib.org/) -->
<svg height="144pt" version="1.1" viewBox="0 0 216 144" width="216pt" xmlns="http://www.w3.org/2000/svg" xmlns:xlink="http://www.w3.org/1999/xlink">
 <metadata>
  <rdf:RDF xmlns:cc="http://creativecommons.org/ns#" xmlns:dc="http://purl.org/dc/elements/1.1/" xmlns:rdf="http://www.w3.org/1999/02/22-rdf-syntax-ns#">
   <cc:Work>
    <dc:type rdf:resource="http://purl.org/dc/dcmitype/StillImage"/>
    <dc:date>2021-09-28T10:30:28.772668</dc:date>
    <dc:format>image/svg+xml</dc:format>
    <dc:creator>
     <cc:Agent>
      <dc:title>Matplotlib v3.3.2, https://matplotlib.org/</dc:title>
     </cc:Agent>
    </dc:creator>
   </cc:Work>
  </rdf:RDF>
 </metadata>
 <defs>
  <style type="text/css">*{stroke-linecap:butt;stroke-linejoin:round;}</style>
 </defs>
 <g id="figure_1">
  <g id="patch_1">
   <path d="M 0 144 
L 216 144 
L 216 0 
L 0 0 
z
" style="fill:none;"/>
  </g>
  <g id="axes_1">
   <g id="patch_2">
    <path d="M 27 67.68 
L 194.4 67.68 
L 194.4 17.28 
L 27 17.28 
z
" style="fill:none;"/>
   </g>
   <g id="PolyCollection_1">
    <path clip-path="url(#p553f071af3)" d="M 27 53.542951 
L 27 53.542951 
L 30.416327 53.542951 
L 33.832653 53.542951 
L 37.24898 53.542951 
L 40.665306 53.542951 
L 44.081633 53.542951 
L 47.497959 53.535861 
L 50.914286 53.074686 
L 54.330612 50.056845 
L 57.746939 50.972581 
L 61.163265 49.572327 
L 64.579592 50.450827 
L 67.995918 45.507735 
L 71.412245 48.176345 
L 74.828571 43.532732 
L 78.244898 42.988476 
L 81.661224 44.250009 
L 85.077551 41.28102 
L 88.493878 25.333027 
L 91.910204 21.991786 
L 95.326531 17.887757 
L 98.742857 26.913122 
L 102.159184 18.452621 
L 105.57551 17.28 
L 108.991837 18.888389 
L 112.408163 33.622169 
L 115.82449 31.793533 
L 119.240816 35.570554 
L 122.657143 43.391014 
L 126.073469 40.316912 
L 129.489796 42.176984 
L 132.906122 43.422448 
L 136.322449 42.278905 
L 139.738776 37.938541 
L 143.155102 38.57029 
L 146.571429 40.266882 
L 149.987755 39.091966 
L 153.404082 46.665798 
L 156.820408 45.206641 
L 160.236735 49.607802 
L 163.653061 48.84683 
L 167.069388 50.98249 
L 170.485714 50.848213 
L 173.902041 53.225316 
L 177.318367 53.539257 
L 180.734694 53.542951 
L 184.15102 53.542951 
L 187.567347 53.542951 
L 190.983673 53.542951 
L 194.4 53.542951 
L 194.4 53.542951 
L 194.4 53.542951 
L 190.983673 53.542951 
L 187.567347 53.542951 
L 184.15102 53.542951 
L 180.734694 53.542951 
L 177.318367 53.548623 
L 173.902041 53.875753 
L 170.485714 56.520916 
L 167.069388 55.797998 
L 163.653061 57.32182 
L 160.236735 55.591432 
L 156.820408 59.645053 
L 153.404082 57.701127 
L 149.987755 62.551904 
L 146.571429 61.393674 
L 143.155102 60.188494 
L 139.738776 61.565465 
L 136.322449 66.600778 
L 132.906122 67.025189 
L 129.489796 65.724807 
L 126.073469 61.300105 
L 122.657143 63.982393 
L 119.240816 64.286949 
L 115.82449 66.69875 
L 112.408163 56.035939 
L 108.991837 67.68 
L 105.57551 65.391148 
L 102.159184 62.217085 
L 98.742857 61.304058 
L 95.326531 65.849824 
L 91.910204 62.217641 
L 88.493878 63.278159 
L 85.077551 58.430184 
L 81.661224 60.126767 
L 78.244898 60.357829 
L 74.828571 62.151022 
L 71.412245 56.931704 
L 67.995918 60.014069 
L 64.579592 56.513894 
L 61.163265 56.948864 
L 57.746939 55.603575 
L 54.330612 56.2655 
L 50.914286 53.879483 
L 47.497959 53.547569 
L 44.081633 53.542951 
L 40.665306 53.542951 
L 37.24898 53.542951 
L 33.832653 53.542951 
L 30.416327 53.542951 
L 27 53.542951 
z
" style="fill:#fc8d62;fill-opacity:0.5;"/>
   </g>
   <g id="matplotlib.axis_1">
    <g id="xtick_1">
     <g id="line2d_1">
      <defs>
       <path d="M 0 0 
L 0 3.5 
" id="m00b9ea3034" style="stroke:#a9a9a9;stroke-width:2;"/>
      </defs>
      <g>
       <use style="fill:#a9a9a9;stroke:#a9a9a9;stroke-width:2;" x="44.081633" xlink:href="#m00b9ea3034" y="53.542951"/>
      </g>
     </g>
    </g>
    <g id="xtick_2">
     <g id="line2d_2">
      <g>
       <use style="fill:#a9a9a9;stroke:#a9a9a9;stroke-width:2;" x="78.244898" xlink:href="#m00b9ea3034" y="53.542951"/>
      </g>
     </g>
    </g>
    <g id="xtick_3">
     <g id="line2d_3">
      <g>
       <use style="fill:#a9a9a9;stroke:#a9a9a9;stroke-width:2;" x="112.408163" xlink:href="#m00b9ea3034" y="53.542951"/>
      </g>
     </g>
    </g>
    <g id="xtick_4">
     <g id="line2d_4">
      <g>
       <use style="fill:#a9a9a9;stroke:#a9a9a9;stroke-width:2;" x="146.571429" xlink:href="#m00b9ea3034" y="53.542951"/>
      </g>
     </g>
    </g>
    <g id="xtick_5">
     <g id="line2d_5">
      <g>
       <use style="fill:#a9a9a9;stroke:#a9a9a9;stroke-width:2;" x="180.734694" xlink:href="#m00b9ea3034" y="53.542951"/>
      </g>
     </g>
    </g>
   </g>
   <g id="matplotlib.axis_2"/>
   <g id="line2d_6">
    <path clip-path="url(#p553f071af3)" d="M 27 53.542951 
L 30.416327 53.542951 
L 33.832653 53.542951 
L 37.24898 53.542951 
L 40.665306 53.542951 
L 44.081633 53.542951 
L 47.497959 53.541715 
L 50.914286 53.477084 
L 54.330612 53.161172 
L 57.746939 53.288078 
L 61.163265 53.260596 
L 64.579592 53.48236 
L 67.995918 52.760902 
L 71.412245 52.554025 
L 74.828571 52.841877 
L 78.244898 51.673153 
L 81.661224 52.188388 
L 85.077551 49.855602 
L 88.493878 44.305593 
L 91.910204 42.104714 
L 95.326531 41.86879 
L 98.742857 44.10859 
L 102.159184 40.334853 
L 105.57551 41.335574 
L 108.991837 43.284194 
L 112.408163 44.829054 
L 115.82449 49.246142 
L 119.240816 49.928752 
L 122.657143 53.686703 
L 126.073469 50.808509 
L 129.489796 53.950896 
L 132.906122 55.223819 
L 136.322449 54.439842 
L 139.738776 49.752003 
L 143.155102 49.379392 
L 146.571429 50.830278 
L 149.987755 50.821935 
L 153.404082 52.183462 
L 156.820408 52.425847 
L 160.236735 52.599617 
L 163.653061 53.084325 
L 167.069388 53.390244 
L 170.485714 53.684564 
L 173.902041 53.550535 
L 177.318367 53.54394 
L 180.734694 53.542951 
L 184.15102 53.542951 
L 187.567347 53.542951 
L 190.983673 53.542951 
L 194.4 53.542951 
" style="fill:none;stroke:#fc8d62;stroke-linecap:square;stroke-width:2;"/>
   </g>
   <g id="line2d_7">
    <path clip-path="url(#p553f071af3)" d="M 27 53.542951 
L 30.416327 53.542951 
L 33.832653 53.542951 
L 37.24898 53.542951 
L 40.665306 53.542951 
L 44.081633 53.542951 
L 47.497959 53.602686 
L 50.914286 53.24195 
L 54.330612 53.508792 
L 57.746939 53.456496 
L 61.163265 52.84355 
L 64.579592 52.173497 
L 67.995918 52.078258 
L 71.412245 50.452227 
L 74.828571 49.679829 
L 78.244898 49.086436 
L 81.661224 48.253697 
L 85.077551 49.109029 
L 88.493878 46.314205 
L 91.910204 43.045912 
L 95.326531 43.971981 
L 98.742857 43.103525 
L 102.159184 42.017696 
L 105.57551 42.499177 
L 108.991837 40.558101 
L 112.408163 40.334853 
L 115.82449 41.054166 
L 119.240816 40.359176 
L 122.657143 42.418565 
L 126.073469 42.924245 
L 129.489796 43.990595 
L 132.906122 47.147053 
L 136.322449 46.245853 
L 139.738776 45.805951 
L 143.155102 48.95126 
L 146.571429 50.040453 
L 149.987755 50.939986 
L 153.404082 52.002457 
L 156.820408 51.977566 
L 160.236735 52.970243 
L 163.653061 52.928919 
L 167.069388 53.108588 
L 170.485714 53.375035 
L 173.902041 53.757995 
L 177.318367 53.468272 
L 180.734694 53.542951 
L 184.15102 53.542951 
L 187.567347 53.542951 
L 190.983673 53.542951 
L 194.4 53.542951 
" style="fill:none;stroke:#fc8d62;stroke-dasharray:1.5,2.475;stroke-dashoffset:0;stroke-opacity:0.5;stroke-width:1.5;"/>
   </g>
   <g id="patch_3">
    <path d="M 112.408163 67.68 
L 112.408163 17.28 
" style="fill:none;stroke:#a9a9a9;stroke-linecap:square;stroke-linejoin:miter;stroke-width:2;"/>
   </g>
   <g id="patch_4">
    <path d="M 194.4 67.68 
L 194.4 17.28 
" style="fill:none;"/>
   </g>
   <g id="patch_5">
    <path d="M 27 53.542951 
L 194.4 53.542951 
" style="fill:none;stroke:#a9a9a9;stroke-linecap:square;stroke-linejoin:miter;stroke-width:2;"/>
   </g>
   <g id="patch_6">
    <path d="M 27 17.28 
L 194.4 17.28 
" style="fill:none;"/>
   </g>
   <g id="legend_1">
    <g id="line2d_8">
     <path d="M 152.47 26.448906 
L 166.47 26.448906 
" style="fill:none;stroke:#fc8d62;stroke-linecap:square;stroke-width:2;"/>
    </g>
    <g id="line2d_9"/>
    <g id="text_1">
     <!-- $\theta$ -->
     <g transform="translate(172.07 28.898906)scale(0.07 -0.07)">
      <defs>
       <path d="M 45.515625 34.671875 
L 14.453125 34.671875 
Q 12.359375 20.0625 14.5 13.875 
Q 17.1875 6.25 24.46875 6.25 
Q 31.78125 6.25 37.359375 13.921875 
Q 42.234375 20.65625 45.515625 34.671875 
z
M 47.015625 42.96875 
Q 48.34375 56.84375 46.625 61.71875 
Q 43.953125 69.4375 36.765625 69.4375 
Q 29.296875 69.4375 23.828125 61.8125 
Q 19.53125 55.671875 16.15625 42.96875 
z
M 38.1875 76.765625 
Q 49.90625 76.765625 54.59375 66.40625 
Q 59.28125 56.109375 55.71875 37.84375 
Q 52.203125 19.625 43.453125 9.28125 
Q 34.765625 -1.125 23.046875 -1.125 
Q 11.28125 -1.125 6.640625 9.28125 
Q 2 19.625 5.515625 37.84375 
Q 9.078125 56.109375 17.71875 66.40625 
Q 26.421875 76.765625 38.1875 76.765625 
z
" id="DejaVuSans-Oblique-952"/>
      </defs>
      <use transform="translate(0 0.234375)" xlink:href="#DejaVuSans-Oblique-952"/>
     </g>
    </g>
    <g id="line2d_10">
     <path d="M 152.47 36.723594 
L 166.47 36.723594 
" style="fill:none;stroke:#fc8d62;stroke-dasharray:1.5,2.475;stroke-dashoffset:0;stroke-opacity:0.5;stroke-width:1.5;"/>
    </g>
    <g id="line2d_11"/>
    <g id="text_2">
     <!-- No $\theta$ -->
     <g transform="translate(172.07 39.173594)scale(0.07 -0.07)">
      <defs>
       <path d="M 9.8125 72.90625 
L 23.09375 72.90625 
L 55.421875 11.921875 
L 55.421875 72.90625 
L 64.984375 72.90625 
L 64.984375 0 
L 51.703125 0 
L 19.390625 60.984375 
L 19.390625 0 
L 9.8125 0 
z
" id="DejaVuSans-78"/>
       <path d="M 30.609375 48.390625 
Q 23.390625 48.390625 19.1875 42.75 
Q 14.984375 37.109375 14.984375 27.296875 
Q 14.984375 17.484375 19.15625 11.84375 
Q 23.34375 6.203125 30.609375 6.203125 
Q 37.796875 6.203125 41.984375 11.859375 
Q 46.1875 17.53125 46.1875 27.296875 
Q 46.1875 37.015625 41.984375 42.703125 
Q 37.796875 48.390625 30.609375 48.390625 
z
M 30.609375 56 
Q 42.328125 56 49.015625 48.375 
Q 55.71875 40.765625 55.71875 27.296875 
Q 55.71875 13.875 49.015625 6.21875 
Q 42.328125 -1.421875 30.609375 -1.421875 
Q 18.84375 -1.421875 12.171875 6.21875 
Q 5.515625 13.875 5.515625 27.296875 
Q 5.515625 40.765625 12.171875 48.375 
Q 18.84375 56 30.609375 56 
z
" id="DejaVuSans-111"/>
       <path id="DejaVuSans-32"/>
      </defs>
      <use transform="translate(0 0.234375)" xlink:href="#DejaVuSans-78"/>
      <use transform="translate(74.804688 0.234375)" xlink:href="#DejaVuSans-111"/>
      <use transform="translate(135.986328 0.234375)" xlink:href="#DejaVuSans-32"/>
      <use transform="translate(167.773438 0.234375)" xlink:href="#DejaVuSans-Oblique-952"/>
     </g>
    </g>
   </g>
  </g>
  <g id="axes_2">
   <g id="patch_7">
    <path d="M 27 128.16 
L 194.4 128.16 
L 194.4 77.76 
L 27 77.76 
z
" style="fill:none;"/>
   </g>
   <g id="PolyCollection_2">
    <path clip-path="url(#pf885b4c19c)" d="M 27 122.53357 
L 27 122.528735 
L 30.416327 122.530011 
L 33.832653 122.530443 
L 37.24898 122.530528 
L 40.665306 122.530538 
L 44.081633 122.530506 
L 47.497959 122.511625 
L 50.914286 122.389616 
L 54.330612 122.074406 
L 57.746939 121.491292 
L 61.163265 120.583944 
L 64.579592 119.317109 
L 67.995918 117.679707 
L 71.412245 115.684259 
L 74.828571 113.366433 
L 78.244898 110.783699 
L 81.661224 108.012246 
L 85.077551 105.14228 
L 88.493878 102.273524 
L 91.910204 99.511034 
L 95.326531 96.961027 
L 98.742857 94.726663 
L 102.159184 92.903861 
L 105.57551 91.577278 
L 108.991837 90.81655 
L 112.408163 77.76 
L 115.82449 91.166304 
L 119.240816 92.260137 
L 122.657143 93.889305 
L 126.073469 95.972853 
L 129.489796 98.417599 
L 132.906122 101.121966 
L 136.322449 103.979925 
L 139.738776 106.88503 
L 143.155102 109.734433 
L 146.571429 112.432814 
L 149.987755 114.896365 
L 153.404082 117.057292 
L 156.820408 118.868567 
L 160.236735 120.306229 
L 163.653061 121.369047 
L 167.069388 122.074171 
L 170.485714 122.416782 
L 173.902041 122.441495 
L 177.318367 122.450717 
L 180.734694 122.475334 
L 184.15102 122.496524 
L 187.567347 122.511051 
L 190.983673 122.520358 
L 194.4 122.52585 
L 194.4 122.538907 
L 194.4 122.538907 
L 190.983673 122.549813 
L 187.567347 122.56965 
L 184.15102 122.602772 
L 180.734694 122.654376 
L 177.318367 122.714238 
L 173.902041 122.71234 
L 170.485714 122.617762 
L 167.069388 122.675669 
L 163.653061 122.880842 
L 160.236735 123.188747 
L 156.820408 123.589417 
L 153.404082 124.069171 
L 149.987755 124.607792 
L 146.571429 125.179069 
L 143.155102 125.753239 
L 139.738776 126.301099 
L 136.322449 126.797135 
L 132.906122 127.221526 
L 129.489796 127.561512 
L 126.073469 127.812314 
L 122.657143 127.977692 
L 119.240816 128.070242 
L 115.82449 128.111396 
L 112.408163 115.218466 
L 108.991837 128.154839 
L 105.57551 128.16 
L 102.159184 128.117038 
L 98.742857 128.003763 
L 95.326531 127.805842 
L 91.910204 127.516987 
L 88.493878 127.138948 
L 85.077551 126.681236 
L 81.661224 126.160513 
L 78.244898 125.599561 
L 74.828571 125.025636 
L 71.412245 124.467809 
L 67.995918 123.953344 
L 64.579592 123.504999 
L 61.163265 123.139325 
L 57.746939 122.865168 
L 54.330612 122.681474 
L 50.914286 122.578288 
L 47.497959 122.536982 
L 44.081633 122.530557 
L 40.665306 122.530538 
L 37.24898 122.530551 
L 33.832653 122.530681 
L 30.416327 122.531373 
L 27 122.53357 
z
" style="fill:#66c2a5;fill-opacity:0.5;"/>
   </g>
   <g id="matplotlib.axis_3">
    <g id="xtick_6">
     <g id="line2d_12">
      <g>
       <use style="fill:#a9a9a9;stroke:#a9a9a9;stroke-width:2;" x="44.081633" xlink:href="#m00b9ea3034" y="122.530538"/>
      </g>
     </g>
    </g>
    <g id="xtick_7">
     <g id="line2d_13">
      <g>
       <use style="fill:#a9a9a9;stroke:#a9a9a9;stroke-width:2;" x="78.244898" xlink:href="#m00b9ea3034" y="122.530538"/>
      </g>
     </g>
    </g>
    <g id="xtick_8">
     <g id="line2d_14">
      <g>
       <use style="fill:#a9a9a9;stroke:#a9a9a9;stroke-width:2;" x="112.408163" xlink:href="#m00b9ea3034" y="122.530538"/>
      </g>
     </g>
    </g>
    <g id="xtick_9">
     <g id="line2d_15">
      <g>
       <use style="fill:#a9a9a9;stroke:#a9a9a9;stroke-width:2;" x="146.571429" xlink:href="#m00b9ea3034" y="122.530538"/>
      </g>
     </g>
    </g>
    <g id="xtick_10">
     <g id="line2d_16">
      <g>
       <use style="fill:#a9a9a9;stroke:#a9a9a9;stroke-width:2;" x="180.734694" xlink:href="#m00b9ea3034" y="122.530538"/>
      </g>
     </g>
    </g>
   </g>
   <g id="matplotlib.axis_4"/>
   <g id="line2d_17">
    <path clip-path="url(#pf885b4c19c)" d="M 27 122.531153 
L 30.416327 122.530692 
L 33.832653 122.530562 
L 37.24898 122.53054 
L 40.665306 122.530538 
L 44.081633 122.530532 
L 47.497959 122.524303 
L 50.914286 122.483952 
L 54.330612 122.37794 
L 57.746939 122.17823 
L 61.163265 121.861634 
L 64.579592 121.411054 
L 67.995918 120.816526 
L 71.412245 120.076034 
L 74.828571 119.196035 
L 78.244898 118.19163 
L 81.661224 117.086379 
L 85.077551 115.911758 
L 88.493878 114.706236 
L 91.910204 113.51401 
L 95.326531 112.383434 
L 98.742857 111.365213 
L 102.159184 110.510449 
L 105.57551 109.868639 
L 108.991837 109.485694 
L 112.408163 96.489233 
L 115.82449 109.63885 
L 119.240816 110.165189 
L 122.657143 110.933498 
L 126.073469 111.892583 
L 129.489796 112.989556 
L 132.906122 114.171746 
L 136.322449 115.38853 
L 139.738776 116.593064 
L 143.155102 117.743836 
L 146.571429 118.805941 
L 149.987755 119.752079 
L 153.404082 120.563232 
L 156.820408 121.228992 
L 160.236735 121.747488 
L 163.653061 122.124944 
L 167.069388 122.37492 
L 170.485714 122.517272 
L 173.902041 122.576918 
L 177.318367 122.582478 
L 180.734694 122.564855 
L 184.15102 122.549648 
L 187.567347 122.540351 
L 190.983673 122.535086 
L 194.4 122.532379 
" style="fill:none;stroke:#66c2a5;stroke-linecap:square;stroke-width:2;"/>
   </g>
   <g id="patch_8">
    <path d="M 112.408163 128.16 
L 112.408163 77.76 
" style="fill:none;stroke:#a9a9a9;stroke-linecap:square;stroke-linejoin:miter;stroke-width:2;"/>
   </g>
   <g id="patch_9">
    <path d="M 194.4 128.16 
L 194.4 77.76 
" style="fill:none;"/>
   </g>
   <g id="patch_10">
    <path d="M 27 122.530538 
L 194.4 122.530538 
" style="fill:none;stroke:#a9a9a9;stroke-linecap:square;stroke-linejoin:miter;stroke-width:2;"/>
   </g>
   <g id="patch_11">
    <path d="M 27 77.76 
L 194.4 77.76 
" style="fill:none;"/>
   </g>
  </g>
 </g>
 <defs>
  <clipPath id="p553f071af3">
   <rect height="50.4" width="167.4" x="27" y="17.28"/>
  </clipPath>
  <clipPath id="pf885b4c19c">
   <rect height="50.4" width="167.4" x="27" y="77.76"/>
  </clipPath>
 </defs>
</svg>
