<?xml version="1.0" encoding="utf-8" standalone="no"?>
<!DOCTYPE svg PUBLIC "-//W3C//DTD SVG 1.1//EN"
  "http://www.w3.org/Graphics/SVG/1.1/DTD/svg11.dtd">
<!-- Created with matplotlib (https://matplotlib.org/) -->
<svg height="144pt" version="1.1" viewBox="0 0 216 144" width="216pt" xmlns="http://www.w3.org/2000/svg" xmlns:xlink="http://www.w3.org/1999/xlink">
 <metadata>
  <rdf:RDF xmlns:cc="http://creativecommons.org/ns#" xmlns:dc="http://purl.org/dc/elements/1.1/" xmlns:rdf="http://www.w3.org/1999/02/22-rdf-syntax-ns#">
   <cc:Work>
    <dc:type rdf:resource="http://purl.org/dc/dcmitype/StillImage"/>
    <dc:date>2021-09-28T10:30:29.136065</dc:date>
    <dc:format>image/svg+xml</dc:format>
    <dc:creator>
     <cc:Agent>
      <dc:title>Matplotlib v3.3.2, https://matplotlib.org/</dc:title>
     </cc:Agent>
    </dc:creator>
   </cc:Work>
  </rdf:RDF>
 </metadata>
 <defs>
  <style type="text/css">*{stroke-linecap:butt;stroke-linejoin:round;}</style>
 </defs>
 <g id="figure_1">
  <g id="patch_1">
   <path d="M 0 144 
L 216 144 
L 216 0 
L 0 0 
z
" style="fill:none;"/>
  </g>
  <g id="axes_1">
   <g id="patch_2">
    <path d="M 27 67.68 
L 194.4 67.68 
L 194.4 17.28 
L 27 17.28 
z
" style="fill:none;"/>
   </g>
   <g id="PolyCollection_1">
    <path clip-path="url(#pf4187d2ed2)" d="M 27 52.731642 
L 27 52.731642 
L 30.416327 52.731642 
L 33.832653 52.731642 
L 37.24898 52.731642 
L 40.665306 52.731642 
L 44.081633 52.731642 
L 47.497959 52.704982 
L 50.914286 51.659449 
L 54.330612 50.373792 
L 57.746939 49.554106 
L 61.163265 48.776703 
L 64.579592 48.528222 
L 67.995918 46.000842 
L 71.412245 40.499733 
L 74.828571 46.137844 
L 78.244898 40.567545 
L 81.661224 38.945286 
L 85.077551 33.875112 
L 88.493878 31.486417 
L 91.910204 29.028559 
L 95.326531 23.594309 
L 98.742857 17.28 
L 102.159184 20.56594 
L 105.57551 30.319538 
L 108.991837 26.10194 
L 112.408163 32.689203 
L 115.82449 30.582672 
L 119.240816 28.244859 
L 122.657143 41.893066 
L 126.073469 35.048267 
L 129.489796 41.896997 
L 132.906122 41.005547 
L 136.322449 43.06117 
L 139.738776 44.325559 
L 143.155102 42.106985 
L 146.571429 46.581369 
L 149.987755 40.942046 
L 153.404082 44.976758 
L 156.820408 48.961274 
L 160.236735 49.26504 
L 163.653061 47.248062 
L 167.069388 46.653196 
L 170.485714 48.666267 
L 173.902041 51.924594 
L 177.318367 52.716739 
L 180.734694 52.731642 
L 184.15102 52.731642 
L 187.567347 52.731642 
L 190.983673 52.731642 
L 194.4 52.731642 
L 194.4 52.731642 
L 194.4 52.731642 
L 190.983673 52.731642 
L 187.567347 52.731642 
L 184.15102 52.731642 
L 180.734694 52.731642 
L 177.318367 52.75297 
L 173.902041 53.655842 
L 170.485714 55.465135 
L 167.069388 57.080423 
L 163.653061 56.725007 
L 160.236735 55.857858 
L 156.820408 56.142015 
L 153.404082 60.180543 
L 149.987755 58.119779 
L 146.571429 57.860169 
L 143.155102 59.546287 
L 139.738776 59.172943 
L 136.322449 59.60491 
L 132.906122 60.237284 
L 129.489796 61.979262 
L 126.073469 67.099378 
L 122.657143 61.56913 
L 119.240816 62.978738 
L 115.82449 62.943863 
L 112.408163 55.572236 
L 108.991837 62.911844 
L 105.57551 61.592352 
L 102.159184 60.704468 
L 98.742857 67.68 
L 95.326531 60.946633 
L 91.910204 60.925021 
L 88.493878 59.918134 
L 85.077551 60.173156 
L 81.661224 59.618227 
L 78.244898 57.40133 
L 74.828571 59.399752 
L 71.412245 59.833439 
L 67.995918 56.254754 
L 64.579592 55.369284 
L 61.163265 56.660289 
L 57.746939 56.54229 
L 54.330612 55.882251 
L 50.914286 53.525744 
L 47.497959 52.750272 
L 44.081633 52.731642 
L 40.665306 52.731642 
L 37.24898 52.731642 
L 33.832653 52.731642 
L 30.416327 52.731642 
L 27 52.731642 
z
" style="fill:#fc8d62;fill-opacity:0.5;"/>
   </g>
   <g id="matplotlib.axis_1">
    <g id="xtick_1">
     <g id="line2d_1">
      <defs>
       <path d="M 0 0 
L 0 3.5 
" id="m96dec00af2" style="stroke:#a9a9a9;stroke-width:2;"/>
      </defs>
      <g>
       <use style="fill:#a9a9a9;stroke:#a9a9a9;stroke-width:2;" x="44.081633" xlink:href="#m96dec00af2" y="52.731642"/>
      </g>
     </g>
    </g>
    <g id="xtick_2">
     <g id="line2d_2">
      <g>
       <use style="fill:#a9a9a9;stroke:#a9a9a9;stroke-width:2;" x="78.244898" xlink:href="#m96dec00af2" y="52.731642"/>
      </g>
     </g>
    </g>
    <g id="xtick_3">
     <g id="line2d_3">
      <g>
       <use style="fill:#a9a9a9;stroke:#a9a9a9;stroke-width:2;" x="112.408163" xlink:href="#m96dec00af2" y="52.731642"/>
      </g>
     </g>
    </g>
    <g id="xtick_4">
     <g id="line2d_4">
      <g>
       <use style="fill:#a9a9a9;stroke:#a9a9a9;stroke-width:2;" x="146.571429" xlink:href="#m96dec00af2" y="52.731642"/>
      </g>
     </g>
    </g>
    <g id="xtick_5">
     <g id="line2d_5">
      <g>
       <use style="fill:#a9a9a9;stroke:#a9a9a9;stroke-width:2;" x="180.734694" xlink:href="#m96dec00af2" y="52.731642"/>
      </g>
     </g>
    </g>
   </g>
   <g id="matplotlib.axis_2"/>
   <g id="line2d_6">
    <path clip-path="url(#pf4187d2ed2)" d="M 27 52.731642 
L 30.416327 52.731642 
L 33.832653 52.731642 
L 37.24898 52.731642 
L 40.665306 52.731642 
L 44.081633 52.731642 
L 47.497959 52.727627 
L 50.914286 52.592597 
L 54.330612 53.128022 
L 57.746939 53.048198 
L 61.163265 52.718496 
L 64.579592 51.948753 
L 67.995918 51.127798 
L 71.412245 50.166586 
L 74.828571 52.768798 
L 78.244898 48.984437 
L 81.661224 49.281756 
L 85.077551 47.024134 
L 88.493878 45.702276 
L 91.910204 44.97679 
L 95.326531 42.270471 
L 98.742857 42.48 
L 102.159184 40.635204 
L 105.57551 45.955945 
L 108.991837 44.506892 
L 112.408163 44.130719 
L 115.82449 46.763267 
L 119.240816 45.611798 
L 122.657143 51.731098 
L 126.073469 51.073823 
L 129.489796 51.938129 
L 132.906122 50.621415 
L 136.322449 51.33304 
L 139.738776 51.749251 
L 143.155102 50.826636 
L 146.571429 52.220769 
L 149.987755 49.530912 
L 153.404082 52.578651 
L 156.820408 52.551645 
L 160.236735 52.561449 
L 163.653061 51.986534 
L 167.069388 51.86681 
L 170.485714 52.065701 
L 173.902041 52.790218 
L 177.318367 52.734855 
L 180.734694 52.731642 
L 184.15102 52.731642 
L 187.567347 52.731642 
L 190.983673 52.731642 
L 194.4 52.731642 
" style="fill:none;stroke:#fc8d62;stroke-linecap:square;stroke-width:2;"/>
   </g>
   <g id="line2d_7">
    <path clip-path="url(#pf4187d2ed2)" d="M 27 52.731642 
L 30.416327 52.731642 
L 33.832653 52.731642 
L 37.24898 52.731642 
L 40.665306 52.731642 
L 44.081633 52.731642 
L 47.497959 52.73161 
L 50.914286 52.635142 
L 54.330612 52.798377 
L 57.746939 52.505515 
L 61.163265 51.734955 
L 64.579592 52.591312 
L 67.995918 50.731756 
L 71.412245 49.61797 
L 74.828571 49.115554 
L 78.244898 47.987935 
L 81.661224 48.452717 
L 85.077551 46.034691 
L 88.493878 47.191189 
L 91.910204 46.602643 
L 95.326531 41.359526 
L 98.742857 40.635204 
L 102.159184 43.451085 
L 105.57551 40.666022 
L 108.991837 42.256606 
L 112.408163 41.024636 
L 115.82449 42.148639 
L 119.240816 44.97018 
L 122.657143 42.904027 
L 126.073469 46.290587 
L 129.489796 47.861614 
L 132.906122 44.489065 
L 136.322449 45.614954 
L 139.738776 49.179393 
L 143.155102 48.080687 
L 146.571429 50.49964 
L 149.987755 50.875819 
L 153.404082 51.75953 
L 156.820408 51.829356 
L 160.236735 50.902434 
L 163.653061 52.613855 
L 167.069388 52.434095 
L 170.485714 52.421815 
L 173.902041 52.797507 
L 177.318367 52.731668 
L 180.734694 52.731642 
L 184.15102 52.731642 
L 187.567347 52.731642 
L 190.983673 52.731642 
L 194.4 52.731642 
" style="fill:none;stroke:#fc8d62;stroke-dasharray:1.5,2.475;stroke-dashoffset:0;stroke-opacity:0.5;stroke-width:1.5;"/>
   </g>
   <g id="patch_3">
    <path d="M 112.408163 67.68 
L 112.408163 17.28 
" style="fill:none;stroke:#a9a9a9;stroke-linecap:square;stroke-linejoin:miter;stroke-width:2;"/>
   </g>
   <g id="patch_4">
    <path d="M 194.4 67.68 
L 194.4 17.28 
" style="fill:none;"/>
   </g>
   <g id="patch_5">
    <path d="M 27 52.731642 
L 194.4 52.731642 
" style="fill:none;stroke:#a9a9a9;stroke-linecap:square;stroke-linejoin:miter;stroke-width:2;"/>
   </g>
   <g id="patch_6">
    <path d="M 27 17.28 
L 194.4 17.28 
" style="fill:none;"/>
   </g>
   <g id="legend_1">
    <g id="line2d_8">
     <path d="M 152.47 26.448906 
L 166.47 26.448906 
" style="fill:none;stroke:#fc8d62;stroke-linecap:square;stroke-width:2;"/>
    </g>
    <g id="line2d_9"/>
    <g id="text_1">
     <!-- $\theta$ -->
     <g transform="translate(172.07 28.898906)scale(0.07 -0.07)">
      <defs>
       <path d="M 45.515625 34.671875 
L 14.453125 34.671875 
Q 12.359375 20.0625 14.5 13.875 
Q 17.1875 6.25 24.46875 6.25 
Q 31.78125 6.25 37.359375 13.921875 
Q 42.234375 20.65625 45.515625 34.671875 
z
M 47.015625 42.96875 
Q 48.34375 56.84375 46.625 61.71875 
Q 43.953125 69.4375 36.765625 69.4375 
Q 29.296875 69.4375 23.828125 61.8125 
Q 19.53125 55.671875 16.15625 42.96875 
z
M 38.1875 76.765625 
Q 49.90625 76.765625 54.59375 66.40625 
Q 59.28125 56.109375 55.71875 37.84375 
Q 52.203125 19.625 43.453125 9.28125 
Q 34.765625 -1.125 23.046875 -1.125 
Q 11.28125 -1.125 6.640625 9.28125 
Q 2 19.625 5.515625 37.84375 
Q 9.078125 56.109375 17.71875 66.40625 
Q 26.421875 76.765625 38.1875 76.765625 
z
" id="DejaVuSans-Oblique-952"/>
      </defs>
      <use transform="translate(0 0.234375)" xlink:href="#DejaVuSans-Oblique-952"/>
     </g>
    </g>
    <g id="line2d_10">
     <path d="M 152.47 36.723594 
L 166.47 36.723594 
" style="fill:none;stroke:#fc8d62;stroke-dasharray:1.5,2.475;stroke-dashoffset:0;stroke-opacity:0.5;stroke-width:1.5;"/>
    </g>
    <g id="line2d_11"/>
    <g id="text_2">
     <!-- No $\theta$ -->
     <g transform="translate(172.07 39.173594)scale(0.07 -0.07)">
      <defs>
       <path d="M 9.8125 72.90625 
L 23.09375 72.90625 
L 55.421875 11.921875 
L 55.421875 72.90625 
L 64.984375 72.90625 
L 64.984375 0 
L 51.703125 0 
L 19.390625 60.984375 
L 19.390625 0 
L 9.8125 0 
z
" id="DejaVuSans-78"/>
       <path d="M 30.609375 48.390625 
Q 23.390625 48.390625 19.1875 42.75 
Q 14.984375 37.109375 14.984375 27.296875 
Q 14.984375 17.484375 19.15625 11.84375 
Q 23.34375 6.203125 30.609375 6.203125 
Q 37.796875 6.203125 41.984375 11.859375 
Q 46.1875 17.53125 46.1875 27.296875 
Q 46.1875 37.015625 41.984375 42.703125 
Q 37.796875 48.390625 30.609375 48.390625 
z
M 30.609375 56 
Q 42.328125 56 49.015625 48.375 
Q 55.71875 40.765625 55.71875 27.296875 
Q 55.71875 13.875 49.015625 6.21875 
Q 42.328125 -1.421875 30.609375 -1.421875 
Q 18.84375 -1.421875 12.171875 6.21875 
Q 5.515625 13.875 5.515625 27.296875 
Q 5.515625 40.765625 12.171875 48.375 
Q 18.84375 56 30.609375 56 
z
" id="DejaVuSans-111"/>
       <path id="DejaVuSans-32"/>
      </defs>
      <use transform="translate(0 0.234375)" xlink:href="#DejaVuSans-78"/>
      <use transform="translate(74.804688 0.234375)" xlink:href="#DejaVuSans-111"/>
      <use transform="translate(135.986328 0.234375)" xlink:href="#DejaVuSans-32"/>
      <use transform="translate(167.773438 0.234375)" xlink:href="#DejaVuSans-Oblique-952"/>
     </g>
    </g>
   </g>
  </g>
  <g id="axes_2">
   <g id="patch_7">
    <path d="M 27 128.16 
L 194.4 128.16 
L 194.4 77.76 
L 27 77.76 
z
" style="fill:none;"/>
   </g>
   <g id="PolyCollection_2">
    <path clip-path="url(#pf992cdc879)" d="M 27 122.67253 
L 27 122.665903 
L 30.416327 122.667572 
L 33.832653 122.66819 
L 37.24898 122.668343 
L 40.665306 122.668362 
L 44.081633 122.66834 
L 47.497959 122.650006 
L 50.914286 122.528274 
L 54.330612 122.213335 
L 57.746939 121.630163 
L 61.163265 120.72164 
L 64.579592 119.452109 
L 67.995918 117.809273 
L 71.412245 115.804913 
L 74.828571 113.47395 
L 78.244898 110.873259 
L 81.661224 108.079195 
L 85.077551 105.183 
L 88.493878 102.285892 
L 91.910204 99.494639 
L 95.326531 96.917253 
L 98.742857 94.658689 
L 102.159184 92.816595 
L 105.57551 91.47724 
L 108.991837 90.711711 
L 112.408163 77.76 
L 115.82449 91.08055 
L 119.240816 92.197459 
L 122.657143 93.856145 
L 126.073469 95.973561 
L 129.489796 98.454394 
L 132.906122 101.194957 
L 136.322449 104.087206 
L 139.738776 107.022844 
L 143.155102 109.897402 
L 146.571429 112.614301 
L 149.987755 115.089105 
L 153.404082 117.254533 
L 156.820408 119.064892 
L 160.236735 120.497396 
L 163.653061 121.551287 
L 167.069388 122.242122 
L 170.485714 122.547941 
L 173.902041 122.567406 
L 177.318367 122.580311 
L 180.734694 122.607106 
L 184.15102 122.629746 
L 187.567347 122.645597 
L 190.983673 122.656033 
L 194.4 122.662394 
L 194.4 122.679132 
L 194.4 122.679132 
L 190.983673 122.692016 
L 187.567347 122.7147 
L 184.15102 122.751604 
L 180.734694 122.807953 
L 177.318367 122.874543 
L 173.902041 122.880744 
L 170.485714 122.784135 
L 167.069388 122.806248 
L 163.653061 122.994967 
L 160.236735 123.287808 
L 156.820408 123.672575 
L 153.404082 124.135637 
L 149.987755 124.657779 
L 146.571429 125.214225 
L 143.155102 125.776103 
L 139.738776 126.314246 
L 136.322449 126.802859 
L 132.906122 127.221797 
L 129.489796 127.558011 
L 126.073469 127.80647 
L 122.657143 127.970735 
L 119.240816 128.063197 
L 115.82449 128.105079 
L 112.408163 115.313847 
L 108.991837 128.152116 
L 105.57551 128.16 
L 102.159184 128.120304 
L 98.742857 128.01095 
L 95.326531 127.817727 
L 91.910204 127.5345 
L 88.493878 127.163212 
L 85.077551 126.713611 
L 81.661224 126.202611 
L 78.244898 125.653185 
L 74.828571 125.092524 
L 71.412245 124.548998 
L 67.995918 124.048695 
L 64.579592 123.613352 
L 61.163265 123.258809 
L 57.746939 122.993002 
L 54.330612 122.81503 
L 50.914286 122.71491 
L 47.497959 122.674601 
L 44.081633 122.668374 
L 40.665306 122.668362 
L 37.24898 122.668387 
L 33.832653 122.668616 
L 30.416327 122.669619 
L 27 122.67253 
z
" style="fill:#66c2a5;fill-opacity:0.5;"/>
   </g>
   <g id="matplotlib.axis_3">
    <g id="xtick_6">
     <g id="line2d_12">
      <g>
       <use style="fill:#a9a9a9;stroke:#a9a9a9;stroke-width:2;" x="44.081633" xlink:href="#m96dec00af2" y="122.668362"/>
      </g>
     </g>
    </g>
    <g id="xtick_7">
     <g id="line2d_13">
      <g>
       <use style="fill:#a9a9a9;stroke:#a9a9a9;stroke-width:2;" x="78.244898" xlink:href="#m96dec00af2" y="122.668362"/>
      </g>
     </g>
    </g>
    <g id="xtick_8">
     <g id="line2d_14">
      <g>
       <use style="fill:#a9a9a9;stroke:#a9a9a9;stroke-width:2;" x="112.408163" xlink:href="#m96dec00af2" y="122.668362"/>
      </g>
     </g>
    </g>
    <g id="xtick_9">
     <g id="line2d_15">
      <g>
       <use style="fill:#a9a9a9;stroke:#a9a9a9;stroke-width:2;" x="146.571429" xlink:href="#m96dec00af2" y="122.668362"/>
      </g>
     </g>
    </g>
    <g id="xtick_10">
     <g id="line2d_16">
      <g>
       <use style="fill:#a9a9a9;stroke:#a9a9a9;stroke-width:2;" x="180.734694" xlink:href="#m96dec00af2" y="122.668362"/>
      </g>
     </g>
    </g>
   </g>
   <g id="matplotlib.axis_4"/>
   <g id="line2d_17">
    <path clip-path="url(#pf992cdc879)" d="M 27 122.669217 
L 30.416327 122.668595 
L 33.832653 122.668403 
L 37.24898 122.668365 
L 40.665306 122.668362 
L 44.081633 122.668357 
L 47.497959 122.662304 
L 50.914286 122.621592 
L 54.330612 122.514183 
L 57.746939 122.311582 
L 61.163265 121.990224 
L 64.579592 121.532731 
L 67.995918 120.928984 
L 71.412245 120.176955 
L 74.828571 119.283237 
L 78.244898 118.263222 
L 81.661224 117.140903 
L 85.077551 115.948306 
L 88.493878 114.724552 
L 91.910204 113.514569 
L 95.326531 112.36749 
L 98.742857 111.334819 
L 102.159184 110.46845 
L 105.57551 109.81862 
L 108.991837 109.431914 
L 112.408163 96.536924 
L 115.82449 109.592815 
L 119.240816 110.130328 
L 122.657143 110.91344 
L 126.073469 111.890016 
L 129.489796 113.006203 
L 132.906122 114.208377 
L 136.322449 115.445032 
L 139.738776 116.668545 
L 143.155102 117.836752 
L 146.571429 118.914263 
L 149.987755 119.873442 
L 153.404082 120.695085 
L 156.820408 121.368733 
L 160.236735 121.892602 
L 163.653061 122.273127 
L 167.069388 122.524185 
L 170.485714 122.666038 
L 173.902041 122.724075 
L 177.318367 122.727427 
L 180.734694 122.707529 
L 184.15102 122.690675 
L 187.567347 122.680149 
L 190.983673 122.674024 
L 194.4 122.670763 
" style="fill:none;stroke:#66c2a5;stroke-linecap:square;stroke-width:2;"/>
   </g>
   <g id="patch_8">
    <path d="M 112.408163 128.16 
L 112.408163 77.76 
" style="fill:none;stroke:#a9a9a9;stroke-linecap:square;stroke-linejoin:miter;stroke-width:2;"/>
   </g>
   <g id="patch_9">
    <path d="M 194.4 128.16 
L 194.4 77.76 
" style="fill:none;"/>
   </g>
   <g id="patch_10">
    <path d="M 27 122.668362 
L 194.4 122.668362 
" style="fill:none;stroke:#a9a9a9;stroke-linecap:square;stroke-linejoin:miter;stroke-width:2;"/>
   </g>
   <g id="patch_11">
    <path d="M 27 77.76 
L 194.4 77.76 
" style="fill:none;"/>
   </g>
  </g>
 </g>
 <defs>
  <clipPath id="pf4187d2ed2">
   <rect height="50.4" width="167.4" x="27" y="17.28"/>
  </clipPath>
  <clipPath id="pf992cdc879">
   <rect height="50.4" width="167.4" x="27" y="77.76"/>
  </clipPath>
 </defs>
</svg>
