<?xml version="1.0" encoding="utf-8" standalone="no"?>
<!DOCTYPE svg PUBLIC "-//W3C//DTD SVG 1.1//EN"
  "http://www.w3.org/Graphics/SVG/1.1/DTD/svg11.dtd">
<!-- Created with matplotlib (https://matplotlib.org/) -->
<svg height="144pt" version="1.1" viewBox="0 0 216 144" width="216pt" xmlns="http://www.w3.org/2000/svg" xmlns:xlink="http://www.w3.org/1999/xlink">
 <metadata>
  <rdf:RDF xmlns:cc="http://creativecommons.org/ns#" xmlns:dc="http://purl.org/dc/elements/1.1/" xmlns:rdf="http://www.w3.org/1999/02/22-rdf-syntax-ns#">
   <cc:Work>
    <dc:type rdf:resource="http://purl.org/dc/dcmitype/StillImage"/>
    <dc:date>2021-09-28T10:30:29.880142</dc:date>
    <dc:format>image/svg+xml</dc:format>
    <dc:creator>
     <cc:Agent>
      <dc:title>Matplotlib v3.3.2, https://matplotlib.org/</dc:title>
     </cc:Agent>
    </dc:creator>
   </cc:Work>
  </rdf:RDF>
 </metadata>
 <defs>
  <style type="text/css">*{stroke-linecap:butt;stroke-linejoin:round;}</style>
 </defs>
 <g id="figure_1">
  <g id="patch_1">
   <path d="M 0 144 
L 216 144 
L 216 0 
L 0 0 
z
" style="fill:none;"/>
  </g>
  <g id="axes_1">
   <g id="patch_2">
    <path d="M 27 67.68 
L 194.4 67.68 
L 194.4 17.28 
L 27 17.28 
z
" style="fill:none;"/>
   </g>
   <g id="PolyCollection_1">
    <path clip-path="url(#p8cedb35ede)" d="M 27 53.57962 
L 27 53.57962 
L 30.416327 53.57962 
L 33.832653 53.57962 
L 37.24898 53.57962 
L 40.665306 53.57962 
L 44.081633 53.579305 
L 47.497959 53.569455 
L 50.914286 53.236832 
L 54.330612 50.648351 
L 57.746939 52.672218 
L 61.163265 51.036729 
L 64.579592 47.927331 
L 67.995918 47.68781 
L 71.412245 46.241192 
L 74.828571 45.97874 
L 78.244898 42.696246 
L 81.661224 34.245095 
L 85.077551 36.341489 
L 88.493878 31.755736 
L 91.910204 30.221994 
L 95.326531 21.820293 
L 98.742857 23.037051 
L 102.159184 17.28 
L 105.57551 23.684336 
L 108.991837 27.37068 
L 112.408163 31.373422 
L 115.82449 27.486379 
L 119.240816 31.013327 
L 122.657143 37.999214 
L 126.073469 40.816671 
L 129.489796 39.195085 
L 132.906122 37.111933 
L 136.322449 34.247505 
L 139.738776 41.617071 
L 143.155102 42.180689 
L 146.571429 45.227252 
L 149.987755 42.702639 
L 153.404082 36.710758 
L 156.820408 45.706861 
L 160.236735 49.582241 
L 163.653061 51.631825 
L 167.069388 52.28903 
L 170.485714 51.924929 
L 173.902041 53.401015 
L 177.318367 53.573573 
L 180.734694 53.579431 
L 184.15102 53.57962 
L 187.567347 53.57962 
L 190.983673 53.57962 
L 194.4 53.57962 
L 194.4 53.57962 
L 194.4 53.57962 
L 190.983673 53.57962 
L 187.567347 53.57962 
L 184.15102 53.57962 
L 180.734694 53.579871 
L 177.318367 53.587751 
L 173.902041 53.847833 
L 170.485714 55.62923 
L 167.069388 54.505923 
L 163.653061 55.286791 
L 160.236735 56.725204 
L 156.820408 58.657381 
L 153.404082 61.088878 
L 149.987755 58.666622 
L 146.571429 58.214521 
L 143.155102 63.762377 
L 139.738776 60.889183 
L 136.322449 66.915551 
L 132.906122 62.059504 
L 129.489796 63.672571 
L 126.073469 62.856173 
L 122.657143 65.435532 
L 119.240816 67.68 
L 115.82449 65.090813 
L 112.408163 55.789365 
L 108.991837 61.584455 
L 105.57551 61.374965 
L 102.159184 64.032973 
L 98.742857 62.157576 
L 95.326531 63.85659 
L 91.910204 64.730665 
L 88.493878 62.876584 
L 85.077551 60.055757 
L 81.661224 62.403834 
L 78.244898 58.839828 
L 74.828571 58.615914 
L 71.412245 64.191993 
L 67.995918 57.987269 
L 64.579592 57.497453 
L 61.163265 55.180716 
L 57.746939 54.251739 
L 54.330612 55.705726 
L 50.914286 53.806672 
L 47.497959 53.587178 
L 44.081633 53.579855 
L 40.665306 53.57962 
L 37.24898 53.57962 
L 33.832653 53.57962 
L 30.416327 53.57962 
L 27 53.57962 
z
" style="fill:#fc8d62;fill-opacity:0.5;"/>
   </g>
   <g id="matplotlib.axis_1">
    <g id="xtick_1">
     <g id="line2d_1">
      <defs>
       <path d="M 0 0 
L 0 3.5 
" id="mb0ecab5dc5" style="stroke:#a9a9a9;stroke-width:2;"/>
      </defs>
      <g>
       <use style="fill:#a9a9a9;stroke:#a9a9a9;stroke-width:2;" x="44.081633" xlink:href="#mb0ecab5dc5" y="53.57962"/>
      </g>
     </g>
    </g>
    <g id="xtick_2">
     <g id="line2d_2">
      <g>
       <use style="fill:#a9a9a9;stroke:#a9a9a9;stroke-width:2;" x="78.244898" xlink:href="#mb0ecab5dc5" y="53.57962"/>
      </g>
     </g>
    </g>
    <g id="xtick_3">
     <g id="line2d_3">
      <g>
       <use style="fill:#a9a9a9;stroke:#a9a9a9;stroke-width:2;" x="112.408163" xlink:href="#mb0ecab5dc5" y="53.57962"/>
      </g>
     </g>
    </g>
    <g id="xtick_4">
     <g id="line2d_4">
      <g>
       <use style="fill:#a9a9a9;stroke:#a9a9a9;stroke-width:2;" x="146.571429" xlink:href="#mb0ecab5dc5" y="53.57962"/>
      </g>
     </g>
    </g>
    <g id="xtick_5">
     <g id="line2d_5">
      <g>
       <use style="fill:#a9a9a9;stroke:#a9a9a9;stroke-width:2;" x="180.734694" xlink:href="#mb0ecab5dc5" y="53.57962"/>
      </g>
     </g>
    </g>
   </g>
   <g id="matplotlib.axis_2"/>
   <g id="line2d_6">
    <path clip-path="url(#p8cedb35ede)" d="M 27 53.57962 
L 30.416327 53.57962 
L 33.832653 53.57962 
L 37.24898 53.57962 
L 40.665306 53.57962 
L 44.081633 53.57958 
L 47.497959 53.578317 
L 50.914286 53.521752 
L 54.330612 53.177039 
L 57.746939 53.461979 
L 61.163265 53.108723 
L 64.579592 52.712392 
L 67.995918 52.837539 
L 71.412245 55.216593 
L 74.828571 52.297327 
L 78.244898 50.768037 
L 81.661224 48.324465 
L 85.077551 48.198623 
L 88.493878 47.31616 
L 91.910204 47.476329 
L 95.326531 42.838442 
L 98.742857 42.597314 
L 102.159184 40.656487 
L 105.57551 42.52965 
L 108.991837 44.477568 
L 112.408163 43.581393 
L 115.82449 46.288596 
L 119.240816 49.346664 
L 122.657143 51.717373 
L 126.073469 51.836422 
L 129.489796 51.433828 
L 132.906122 49.585718 
L 136.322449 50.581528 
L 139.738776 51.253127 
L 143.155102 52.971533 
L 146.571429 51.720886 
L 149.987755 50.68463 
L 153.404082 48.899818 
L 156.820408 52.182121 
L 160.236735 53.153722 
L 163.653061 53.459308 
L 167.069388 53.397476 
L 170.485714 53.77708 
L 173.902041 53.624424 
L 177.318367 53.580662 
L 180.734694 53.579651 
L 184.15102 53.57962 
L 187.567347 53.57962 
L 190.983673 53.57962 
L 194.4 53.57962 
" style="fill:none;stroke:#fc8d62;stroke-linecap:square;stroke-width:2;"/>
   </g>
   <g id="line2d_7">
    <path clip-path="url(#p8cedb35ede)" d="M 27 53.57962 
L 30.416327 53.57962 
L 33.832653 53.57962 
L 37.24898 53.57962 
L 40.665306 53.57962 
L 44.081633 53.57962 
L 47.497959 53.575381 
L 50.914286 53.672028 
L 54.330612 53.563706 
L 57.746939 53.636441 
L 61.163265 52.21098 
L 64.579592 52.776022 
L 67.995918 53.456367 
L 71.412245 50.954697 
L 74.828571 50.803367 
L 78.244898 48.851616 
L 81.661224 49.859787 
L 85.077551 48.798836 
L 88.493878 47.938977 
L 91.910204 47.867318 
L 95.326531 46.831198 
L 98.742857 47.167985 
L 102.159184 42.930902 
L 105.57551 47.009496 
L 108.991837 41.569732 
L 112.408163 42.204752 
L 115.82449 44.459965 
L 119.240816 40.656487 
L 122.657143 45.33006 
L 126.073469 42.815488 
L 129.489796 44.474351 
L 132.906122 46.038022 
L 136.322449 47.363401 
L 139.738776 48.017192 
L 143.155102 48.540712 
L 146.571429 51.147804 
L 149.987755 51.208769 
L 153.404082 52.414809 
L 156.820408 51.244161 
L 160.236735 52.411292 
L 163.653061 54.017132 
L 167.069388 52.970139 
L 170.485714 53.40999 
L 173.902041 53.427177 
L 177.318367 53.583011 
L 180.734694 53.57962 
L 184.15102 53.57962 
L 187.567347 53.57962 
L 190.983673 53.57962 
L 194.4 53.57962 
" style="fill:none;stroke:#fc8d62;stroke-dasharray:1.5,2.475;stroke-dashoffset:0;stroke-opacity:0.5;stroke-width:1.5;"/>
   </g>
   <g id="patch_3">
    <path d="M 112.408163 67.68 
L 112.408163 17.28 
" style="fill:none;stroke:#a9a9a9;stroke-linecap:square;stroke-linejoin:miter;stroke-width:2;"/>
   </g>
   <g id="patch_4">
    <path d="M 194.4 67.68 
L 194.4 17.28 
" style="fill:none;"/>
   </g>
   <g id="patch_5">
    <path d="M 27 53.57962 
L 194.4 53.57962 
" style="fill:none;stroke:#a9a9a9;stroke-linecap:square;stroke-linejoin:miter;stroke-width:2;"/>
   </g>
   <g id="patch_6">
    <path d="M 27 17.28 
L 194.4 17.28 
" style="fill:none;"/>
   </g>
   <g id="legend_1">
    <g id="line2d_8">
     <path d="M 152.47 26.448906 
L 166.47 26.448906 
" style="fill:none;stroke:#fc8d62;stroke-linecap:square;stroke-width:2;"/>
    </g>
    <g id="line2d_9"/>
    <g id="text_1">
     <!-- $\theta$ -->
     <g transform="translate(172.07 28.898906)scale(0.07 -0.07)">
      <defs>
       <path d="M 45.515625 34.671875 
L 14.453125 34.671875 
Q 12.359375 20.0625 14.5 13.875 
Q 17.1875 6.25 24.46875 6.25 
Q 31.78125 6.25 37.359375 13.921875 
Q 42.234375 20.65625 45.515625 34.671875 
z
M 47.015625 42.96875 
Q 48.34375 56.84375 46.625 61.71875 
Q 43.953125 69.4375 36.765625 69.4375 
Q 29.296875 69.4375 23.828125 61.8125 
Q 19.53125 55.671875 16.15625 42.96875 
z
M 38.1875 76.765625 
Q 49.90625 76.765625 54.59375 66.40625 
Q 59.28125 56.109375 55.71875 37.84375 
Q 52.203125 19.625 43.453125 9.28125 
Q 34.765625 -1.125 23.046875 -1.125 
Q 11.28125 -1.125 6.640625 9.28125 
Q 2 19.625 5.515625 37.84375 
Q 9.078125 56.109375 17.71875 66.40625 
Q 26.421875 76.765625 38.1875 76.765625 
z
" id="DejaVuSans-Oblique-952"/>
      </defs>
      <use transform="translate(0 0.234375)" xlink:href="#DejaVuSans-Oblique-952"/>
     </g>
    </g>
    <g id="line2d_10">
     <path d="M 152.47 36.723594 
L 166.47 36.723594 
" style="fill:none;stroke:#fc8d62;stroke-dasharray:1.5,2.475;stroke-dashoffset:0;stroke-opacity:0.5;stroke-width:1.5;"/>
    </g>
    <g id="line2d_11"/>
    <g id="text_2">
     <!-- No $\theta$ -->
     <g transform="translate(172.07 39.173594)scale(0.07 -0.07)">
      <defs>
       <path d="M 9.8125 72.90625 
L 23.09375 72.90625 
L 55.421875 11.921875 
L 55.421875 72.90625 
L 64.984375 72.90625 
L 64.984375 0 
L 51.703125 0 
L 19.390625 60.984375 
L 19.390625 0 
L 9.8125 0 
z
" id="DejaVuSans-78"/>
       <path d="M 30.609375 48.390625 
Q 23.390625 48.390625 19.1875 42.75 
Q 14.984375 37.109375 14.984375 27.296875 
Q 14.984375 17.484375 19.15625 11.84375 
Q 23.34375 6.203125 30.609375 6.203125 
Q 37.796875 6.203125 41.984375 11.859375 
Q 46.1875 17.53125 46.1875 27.296875 
Q 46.1875 37.015625 41.984375 42.703125 
Q 37.796875 48.390625 30.609375 48.390625 
z
M 30.609375 56 
Q 42.328125 56 49.015625 48.375 
Q 55.71875 40.765625 55.71875 27.296875 
Q 55.71875 13.875 49.015625 6.21875 
Q 42.328125 -1.421875 30.609375 -1.421875 
Q 18.84375 -1.421875 12.171875 6.21875 
Q 5.515625 13.875 5.515625 27.296875 
Q 5.515625 40.765625 12.171875 48.375 
Q 18.84375 56 30.609375 56 
z
" id="DejaVuSans-111"/>
       <path id="DejaVuSans-32"/>
      </defs>
      <use transform="translate(0 0.234375)" xlink:href="#DejaVuSans-78"/>
      <use transform="translate(74.804688 0.234375)" xlink:href="#DejaVuSans-111"/>
      <use transform="translate(135.986328 0.234375)" xlink:href="#DejaVuSans-32"/>
      <use transform="translate(167.773438 0.234375)" xlink:href="#DejaVuSans-Oblique-952"/>
     </g>
    </g>
   </g>
  </g>
  <g id="axes_2">
   <g id="patch_7">
    <path d="M 27 128.16 
L 194.4 128.16 
L 194.4 77.76 
L 27 77.76 
z
" style="fill:none;"/>
   </g>
   <g id="PolyCollection_2">
    <path clip-path="url(#p41c733139d)" d="M 27 122.562121 
L 27 122.556633 
L 30.416327 122.558043 
L 33.832653 122.558549 
L 37.24898 122.558659 
L 40.665306 122.558672 
L 44.081633 122.558659 
L 47.497959 122.540439 
L 50.914286 122.418834 
L 54.330612 122.103259 
L 57.746939 121.518172 
L 61.163265 120.606894 
L 64.579592 119.334418 
L 67.995918 117.688994 
L 71.412245 115.682915 
L 74.828571 113.351973 
L 78.244898 110.753802 
L 81.661224 107.964974 
L 85.077551 105.076386 
L 88.493878 102.188622 
L 91.910204 99.407678 
L 95.326531 96.840728 
L 98.742857 94.591865 
L 102.159184 92.757881 
L 105.57551 91.424216 
L 108.991837 90.661171 
L 112.408163 77.76 
L 115.82449 91.022683 
L 119.240816 92.130053 
L 122.657143 93.776528 
L 126.073469 95.880101 
L 129.489796 98.346512 
L 132.906122 101.073092 
L 136.322449 103.952769 
L 139.738776 106.878123 
L 143.155102 109.745437 
L 146.571429 112.458683 
L 149.987755 114.933607 
L 153.404082 117.102399 
L 156.820408 118.918237 
L 160.236735 120.357268 
L 163.653061 121.418592 
L 167.069388 122.119315 
L 170.485714 122.444308 
L 173.902041 122.463626 
L 177.318367 122.474657 
L 180.734694 122.50087 
L 184.15102 122.522813 
L 187.567347 122.537958 
L 190.983673 122.547736 
L 194.4 122.553543 
L 194.4 122.567903 
L 194.4 122.567903 
L 190.983673 122.579563 
L 187.567347 122.600581 
L 184.15102 122.635387 
L 180.734694 122.689264 
L 177.318367 122.753223 
L 173.902041 122.755637 
L 170.485714 122.657575 
L 167.069388 122.698618 
L 163.653061 122.898455 
L 160.236735 123.20179 
L 156.820408 123.598245 
L 153.404082 124.074222 
L 149.987755 124.6095 
L 146.571429 125.178112 
L 143.155102 125.75047 
L 139.738776 126.297274 
L 136.322449 126.792819 
L 132.906122 127.217095 
L 129.489796 127.557181 
L 126.073469 127.808184 
L 122.657143 127.973817 
L 119.240816 128.066653 
L 115.82449 128.108141 
L 112.408163 115.368049 
L 108.991837 128.153371 
L 105.57551 128.16 
L 102.159184 128.118531 
L 98.742857 128.006706 
L 95.326531 127.810156 
L 91.910204 127.522593 
L 88.493878 127.14581 
L 85.077551 126.689407 
L 81.661224 126.170167 
L 78.244898 125.610998 
L 74.828571 125.039224 
L 71.412245 124.483802 
L 67.995918 123.971818 
L 64.579592 123.525977 
L 61.163265 123.16258 
L 57.746939 122.889945 
L 54.330612 122.707554 
L 50.914286 122.605511 
L 47.497959 122.564859 
L 44.081633 122.55868 
L 40.665306 122.558672 
L 37.24898 122.558691 
L 33.832653 122.558858 
L 30.416327 122.559671 
L 27 122.562121 
z
" style="fill:#66c2a5;fill-opacity:0.5;"/>
   </g>
   <g id="matplotlib.axis_3">
    <g id="xtick_6">
     <g id="line2d_12">
      <g>
       <use style="fill:#a9a9a9;stroke:#a9a9a9;stroke-width:2;" x="44.081633" xlink:href="#mb0ecab5dc5" y="122.558672"/>
      </g>
     </g>
    </g>
    <g id="xtick_7">
     <g id="line2d_13">
      <g>
       <use style="fill:#a9a9a9;stroke:#a9a9a9;stroke-width:2;" x="78.244898" xlink:href="#mb0ecab5dc5" y="122.558672"/>
      </g>
     </g>
    </g>
    <g id="xtick_8">
     <g id="line2d_14">
      <g>
       <use style="fill:#a9a9a9;stroke:#a9a9a9;stroke-width:2;" x="112.408163" xlink:href="#mb0ecab5dc5" y="122.558672"/>
      </g>
     </g>
    </g>
    <g id="xtick_9">
     <g id="line2d_15">
      <g>
       <use style="fill:#a9a9a9;stroke:#a9a9a9;stroke-width:2;" x="146.571429" xlink:href="#mb0ecab5dc5" y="122.558672"/>
      </g>
     </g>
    </g>
    <g id="xtick_10">
     <g id="line2d_16">
      <g>
       <use style="fill:#a9a9a9;stroke:#a9a9a9;stroke-width:2;" x="180.734694" xlink:href="#mb0ecab5dc5" y="122.558672"/>
      </g>
     </g>
    </g>
   </g>
   <g id="matplotlib.axis_4"/>
   <g id="line2d_17">
    <path clip-path="url(#p41c733139d)" d="M 27 122.559377 
L 30.416327 122.558857 
L 33.832653 122.558703 
L 37.24898 122.558675 
L 40.665306 122.558672 
L 44.081633 122.55867 
L 47.497959 122.552649 
L 50.914286 122.512172 
L 54.330612 122.405407 
L 57.746939 122.204058 
L 61.163265 121.884737 
L 64.579592 121.430197 
L 67.995918 120.830406 
L 71.412245 120.083358 
L 74.828571 119.195598 
L 78.244898 118.1824 
L 81.661224 117.06757 
L 85.077551 115.882896 
L 88.493878 114.667216 
L 91.910204 113.465135 
L 95.326531 112.325442 
L 98.742857 111.299285 
L 102.159184 110.438206 
L 105.57551 109.792108 
L 108.991837 109.407271 
L 112.408163 96.564025 
L 115.82449 109.565412 
L 119.240816 110.098353 
L 122.657143 110.875172 
L 126.073469 111.844142 
L 129.489796 112.951846 
L 132.906122 114.145094 
L 136.322449 115.372794 
L 139.738776 116.587698 
L 143.155102 117.747953 
L 146.571429 118.818398 
L 149.987755 119.771554 
L 153.404082 120.588311 
L 156.820408 121.258241 
L 160.236735 121.779529 
L 163.653061 122.158524 
L 167.069388 122.408966 
L 170.485714 122.550942 
L 173.902041 122.609632 
L 177.318367 122.61394 
L 180.734694 122.595067 
L 184.15102 122.5791 
L 187.567347 122.56927 
L 190.983673 122.563649 
L 194.4 122.560723 
" style="fill:none;stroke:#66c2a5;stroke-linecap:square;stroke-width:2;"/>
   </g>
   <g id="patch_8">
    <path d="M 112.408163 128.16 
L 112.408163 77.76 
" style="fill:none;stroke:#a9a9a9;stroke-linecap:square;stroke-linejoin:miter;stroke-width:2;"/>
   </g>
   <g id="patch_9">
    <path d="M 194.4 128.16 
L 194.4 77.76 
" style="fill:none;"/>
   </g>
   <g id="patch_10">
    <path d="M 27 122.558672 
L 194.4 122.558672 
" style="fill:none;stroke:#a9a9a9;stroke-linecap:square;stroke-linejoin:miter;stroke-width:2;"/>
   </g>
   <g id="patch_11">
    <path d="M 27 77.76 
L 194.4 77.76 
" style="fill:none;"/>
   </g>
  </g>
 </g>
 <defs>
  <clipPath id="p8cedb35ede">
   <rect height="50.4" width="167.4" x="27" y="17.28"/>
  </clipPath>
  <clipPath id="p41c733139d">
   <rect height="50.4" width="167.4" x="27" y="77.76"/>
  </clipPath>
 </defs>
</svg>
