<?xml version="1.0" encoding="utf-8" standalone="no"?>
<!DOCTYPE svg PUBLIC "-//W3C//DTD SVG 1.1//EN"
  "http://www.w3.org/Graphics/SVG/1.1/DTD/svg11.dtd">
<!-- Created with matplotlib (https://matplotlib.org/) -->
<svg height="144pt" version="1.1" viewBox="0 0 216 144" width="216pt" xmlns="http://www.w3.org/2000/svg" xmlns:xlink="http://www.w3.org/1999/xlink">
 <metadata>
  <rdf:RDF xmlns:cc="http://creativecommons.org/ns#" xmlns:dc="http://purl.org/dc/elements/1.1/" xmlns:rdf="http://www.w3.org/1999/02/22-rdf-syntax-ns#">
   <cc:Work>
    <dc:type rdf:resource="http://purl.org/dc/dcmitype/StillImage"/>
    <dc:date>2021-09-28T17:32:22.597254</dc:date>
    <dc:format>image/svg+xml</dc:format>
    <dc:creator>
     <cc:Agent>
      <dc:title>Matplotlib v3.3.2, https://matplotlib.org/</dc:title>
     </cc:Agent>
    </dc:creator>
   </cc:Work>
  </rdf:RDF>
 </metadata>
 <defs>
  <style type="text/css">*{stroke-linecap:butt;stroke-linejoin:round;}</style>
 </defs>
 <g id="figure_1">
  <g id="patch_1">
   <path d="M 0 144 
L 216 144 
L 216 0 
L 0 0 
z
" style="fill:none;"/>
  </g>
  <g id="axes_1">
   <g id="patch_2">
    <path d="M 27 67.68 
L 194.4 67.68 
L 194.4 17.28 
L 27 17.28 
z
" style="fill:none;"/>
   </g>
   <g id="PolyCollection_1">
    <path clip-path="url(#p2777fd8d1a)" d="M 27 44.314788 
L 27 44.314788 
L 30.416327 44.314788 
L 33.832653 44.314788 
L 37.24898 44.314788 
L 40.665306 44.314788 
L 44.081633 44.312923 
L 47.497959 44.201756 
L 50.914286 44.042892 
L 54.330612 44.132144 
L 57.746939 43.676915 
L 61.163265 43.194733 
L 64.579592 43.205365 
L 67.995918 42.66997 
L 71.412245 41.540023 
L 74.828571 39.858445 
L 78.244898 36.353011 
L 81.661224 33.112191 
L 85.077551 27.930122 
L 88.493878 23.951703 
L 91.910204 19.895019 
L 95.326531 18.224545 
L 98.742857 17.28 
L 102.159184 19.298471 
L 105.57551 23.788264 
L 108.991837 32.06763 
L 112.408163 41.981417 
L 115.82449 44.363583 
L 119.240816 50.608746 
L 122.657143 55.221075 
L 126.073469 57.58308 
L 129.489796 59.293478 
L 132.906122 58.224589 
L 136.322449 54.551068 
L 139.738776 52.104945 
L 143.155102 48.942754 
L 146.571429 46.841079 
L 149.987755 42.846276 
L 153.404082 42.609905 
L 156.820408 41.423018 
L 160.236735 42.250063 
L 163.653061 42.881508 
L 167.069388 43.18665 
L 170.485714 43.577521 
L 173.902041 44.035548 
L 177.318367 44.23721 
L 180.734694 44.314062 
L 184.15102 44.314788 
L 187.567347 44.314788 
L 190.983673 44.314788 
L 194.4 44.314788 
L 194.4 44.314788 
L 194.4 44.314788 
L 190.983673 44.314788 
L 187.567347 44.314788 
L 184.15102 44.314788 
L 180.734694 44.316634 
L 177.318367 44.425848 
L 173.902041 44.573948 
L 170.485714 44.451955 
L 167.069388 44.84851 
L 163.653061 45.232544 
L 160.236735 45.08161 
L 156.820408 45.441291 
L 153.404082 46.332198 
L 149.987755 47.728232 
L 146.571429 50.923945 
L 143.155102 53.785181 
L 139.738776 58.584291 
L 136.322449 62.17068 
L 132.906122 65.768852 
L 129.489796 67.092263 
L 126.073469 67.68 
L 122.657143 65.334053 
L 119.240816 60.616992 
L 115.82449 52.157156 
L 112.408163 42.139167 
L 108.991837 39.873052 
L 105.57551 33.75878 
L 102.159184 29.417967 
L 98.742857 27.367029 
L 95.326531 26.02689 
L 91.910204 27.523095 
L 88.493878 31.550128 
L 85.077551 34.429246 
L 81.661224 37.987953 
L 78.244898 40.413663 
L 74.828571 44.745925 
L 71.412245 45.25494 
L 67.995918 46.674279 
L 64.579592 46.035999 
L 61.163265 45.545433 
L 57.746939 45.33393 
L 54.330612 45.004674 
L 50.914286 44.580893 
L 47.497959 44.390415 
L 44.081633 44.315521 
L 40.665306 44.314788 
L 37.24898 44.314788 
L 33.832653 44.314788 
L 30.416327 44.314788 
L 27 44.314788 
z
" style="fill:#fc8d62;fill-opacity:0.5;"/>
   </g>
   <g id="matplotlib.axis_1">
    <g id="xtick_1">
     <g id="line2d_1">
      <defs>
       <path d="M 0 0 
L 0 3.5 
" id="me06e9a3e4f" style="stroke:#a9a9a9;stroke-width:2;"/>
      </defs>
      <g>
       <use style="fill:#a9a9a9;stroke:#a9a9a9;stroke-width:2;" x="44.081633" xlink:href="#me06e9a3e4f" y="44.314788"/>
      </g>
     </g>
    </g>
    <g id="xtick_2">
     <g id="line2d_2">
      <g>
       <use style="fill:#a9a9a9;stroke:#a9a9a9;stroke-width:2;" x="78.244898" xlink:href="#me06e9a3e4f" y="44.314788"/>
      </g>
     </g>
    </g>
    <g id="xtick_3">
     <g id="line2d_3">
      <g>
       <use style="fill:#a9a9a9;stroke:#a9a9a9;stroke-width:2;" x="112.408163" xlink:href="#me06e9a3e4f" y="44.314788"/>
      </g>
     </g>
    </g>
    <g id="xtick_4">
     <g id="line2d_4">
      <g>
       <use style="fill:#a9a9a9;stroke:#a9a9a9;stroke-width:2;" x="146.571429" xlink:href="#me06e9a3e4f" y="44.314788"/>
      </g>
     </g>
    </g>
    <g id="xtick_5">
     <g id="line2d_5">
      <g>
       <use style="fill:#a9a9a9;stroke:#a9a9a9;stroke-width:2;" x="180.734694" xlink:href="#me06e9a3e4f" y="44.314788"/>
      </g>
     </g>
    </g>
   </g>
   <g id="matplotlib.axis_2"/>
   <g id="line2d_6">
    <path clip-path="url(#p2777fd8d1a)" d="M 27 44.314788 
L 30.416327 44.314788 
L 33.832653 44.314788 
L 37.24898 44.314788 
L 40.665306 44.314788 
L 44.081633 44.314222 
L 47.497959 44.296086 
L 50.914286 44.311893 
L 54.330612 44.568409 
L 57.746939 44.505422 
L 61.163265 44.370083 
L 64.579592 44.620682 
L 67.995918 44.672125 
L 71.412245 43.397481 
L 74.828571 42.302185 
L 78.244898 38.383337 
L 81.661224 35.550072 
L 85.077551 31.179684 
L 88.493878 27.750915 
L 91.910204 23.709057 
L 95.326531 22.125718 
L 98.742857 22.323515 
L 102.159184 24.358219 
L 105.57551 28.773522 
L 108.991837 35.970341 
L 112.408163 42.060292 
L 115.82449 48.260369 
L 119.240816 55.612869 
L 122.657143 60.277564 
L 126.073469 62.63154 
L 129.489796 63.192871 
L 132.906122 61.99672 
L 136.322449 58.360874 
L 139.738776 55.344618 
L 143.155102 51.363967 
L 146.571429 48.882512 
L 149.987755 45.287254 
L 153.404082 44.471052 
L 156.820408 43.432154 
L 160.236735 43.665837 
L 163.653061 44.057026 
L 167.069388 44.01758 
L 170.485714 44.014738 
L 173.902041 44.304748 
L 177.318367 44.331529 
L 180.734694 44.315348 
L 184.15102 44.314788 
L 187.567347 44.314788 
L 190.983673 44.314788 
L 194.4 44.314788 
" style="fill:none;stroke:#fc8d62;stroke-linecap:square;stroke-width:2;"/>
   </g>
   <g id="line2d_7">
    <path clip-path="url(#p2777fd8d1a)" d="M 27 44.314788 
L 30.416327 44.314788 
L 33.832653 44.314788 
L 37.24898 44.314788 
L 40.665306 44.314788 
L 44.081633 44.312627 
L 47.497959 44.121481 
L 50.914286 43.415559 
L 54.330612 42.108122 
L 57.746939 40.806436 
L 61.163265 38.678462 
L 64.579592 36.953124 
L 67.995918 34.682035 
L 71.412245 32.153201 
L 74.828571 29.554942 
L 78.244898 27.472108 
L 81.661224 24.19019 
L 85.077551 22.546061 
L 88.493878 24.80657 
L 91.910204 22.901596 
L 95.326531 22.125718 
L 98.742857 24.044464 
L 102.159184 23.536958 
L 105.57551 28.181111 
L 108.991837 29.430581 
L 112.408163 35.049646 
L 115.82449 40.958972 
L 119.240816 42.796012 
L 122.657143 48.423035 
L 126.073469 49.187944 
L 129.489796 52.567551 
L 132.906122 53.401051 
L 136.322449 53.166523 
L 139.738776 57.102098 
L 143.155102 57.076644 
L 146.571429 55.329431 
L 149.987755 54.61684 
L 153.404082 53.206843 
L 156.820408 51.685654 
L 160.236735 50.206476 
L 163.653061 49.080099 
L 167.069388 47.370545 
L 170.485714 46.325937 
L 173.902041 45.155378 
L 177.318367 44.500221 
L 180.734694 44.316928 
L 184.15102 44.314788 
L 187.567347 44.314788 
L 190.983673 44.314788 
L 194.4 44.314788 
" style="fill:none;stroke:#fc8d62;stroke-dasharray:1.5,2.475;stroke-dashoffset:0;stroke-opacity:0.5;stroke-width:1.5;"/>
   </g>
   <g id="patch_3">
    <path d="M 112.408163 67.68 
L 112.408163 17.28 
" style="fill:none;stroke:#a9a9a9;stroke-linecap:square;stroke-linejoin:miter;stroke-width:2;"/>
   </g>
   <g id="patch_4">
    <path d="M 194.4 67.68 
L 194.4 17.28 
" style="fill:none;"/>
   </g>
   <g id="patch_5">
    <path d="M 27 44.314788 
L 194.4 44.314788 
" style="fill:none;stroke:#a9a9a9;stroke-linecap:square;stroke-linejoin:miter;stroke-width:2;"/>
   </g>
   <g id="patch_6">
    <path d="M 27 17.28 
L 194.4 17.28 
" style="fill:none;"/>
   </g>
   <g id="legend_1">
    <g id="line2d_8">
     <path d="M 152.47 26.448906 
L 166.47 26.448906 
" style="fill:none;stroke:#fc8d62;stroke-linecap:square;stroke-width:2;"/>
    </g>
    <g id="line2d_9"/>
    <g id="text_1">
     <!-- $\theta$ -->
     <g transform="translate(172.07 28.898906)scale(0.07 -0.07)">
      <defs>
       <path d="M 45.515625 34.671875 
L 14.453125 34.671875 
Q 12.359375 20.0625 14.5 13.875 
Q 17.1875 6.25 24.46875 6.25 
Q 31.78125 6.25 37.359375 13.921875 
Q 42.234375 20.65625 45.515625 34.671875 
z
M 47.015625 42.96875 
Q 48.34375 56.84375 46.625 61.71875 
Q 43.953125 69.4375 36.765625 69.4375 
Q 29.296875 69.4375 23.828125 61.8125 
Q 19.53125 55.671875 16.15625 42.96875 
z
M 38.1875 76.765625 
Q 49.90625 76.765625 54.59375 66.40625 
Q 59.28125 56.109375 55.71875 37.84375 
Q 52.203125 19.625 43.453125 9.28125 
Q 34.765625 -1.125 23.046875 -1.125 
Q 11.28125 -1.125 6.640625 9.28125 
Q 2 19.625 5.515625 37.84375 
Q 9.078125 56.109375 17.71875 66.40625 
Q 26.421875 76.765625 38.1875 76.765625 
z
" id="DejaVuSans-Oblique-952"/>
      </defs>
      <use transform="translate(0 0.234375)" xlink:href="#DejaVuSans-Oblique-952"/>
     </g>
    </g>
    <g id="line2d_10">
     <path d="M 152.47 36.723594 
L 166.47 36.723594 
" style="fill:none;stroke:#fc8d62;stroke-dasharray:1.5,2.475;stroke-dashoffset:0;stroke-opacity:0.5;stroke-width:1.5;"/>
    </g>
    <g id="line2d_11"/>
    <g id="text_2">
     <!-- No $\theta$ -->
     <g transform="translate(172.07 39.173594)scale(0.07 -0.07)">
      <defs>
       <path d="M 9.8125 72.90625 
L 23.09375 72.90625 
L 55.421875 11.921875 
L 55.421875 72.90625 
L 64.984375 72.90625 
L 64.984375 0 
L 51.703125 0 
L 19.390625 60.984375 
L 19.390625 0 
L 9.8125 0 
z
" id="DejaVuSans-78"/>
       <path d="M 30.609375 48.390625 
Q 23.390625 48.390625 19.1875 42.75 
Q 14.984375 37.109375 14.984375 27.296875 
Q 14.984375 17.484375 19.15625 11.84375 
Q 23.34375 6.203125 30.609375 6.203125 
Q 37.796875 6.203125 41.984375 11.859375 
Q 46.1875 17.53125 46.1875 27.296875 
Q 46.1875 37.015625 41.984375 42.703125 
Q 37.796875 48.390625 30.609375 48.390625 
z
M 30.609375 56 
Q 42.328125 56 49.015625 48.375 
Q 55.71875 40.765625 55.71875 27.296875 
Q 55.71875 13.875 49.015625 6.21875 
Q 42.328125 -1.421875 30.609375 -1.421875 
Q 18.84375 -1.421875 12.171875 6.21875 
Q 5.515625 13.875 5.515625 27.296875 
Q 5.515625 40.765625 12.171875 48.375 
Q 18.84375 56 30.609375 56 
z
" id="DejaVuSans-111"/>
       <path id="DejaVuSans-32"/>
      </defs>
      <use transform="translate(0 0.234375)" xlink:href="#DejaVuSans-78"/>
      <use transform="translate(74.804688 0.234375)" xlink:href="#DejaVuSans-111"/>
      <use transform="translate(135.986328 0.234375)" xlink:href="#DejaVuSans-32"/>
      <use transform="translate(167.773438 0.234375)" xlink:href="#DejaVuSans-Oblique-952"/>
     </g>
    </g>
   </g>
  </g>
  <g id="axes_2">
   <g id="patch_7">
    <path d="M 27 128.16 
L 194.4 128.16 
L 194.4 77.76 
L 27 77.76 
z
" style="fill:none;"/>
   </g>
   <g id="PolyCollection_2">
    <path clip-path="url(#p2707658511)" d="M 27 119.979255 
L 27 119.885623 
L 30.416327 120.014704 
L 33.832653 119.99573 
L 37.24898 119.82804 
L 40.665306 119.547531 
L 44.081633 119.218957 
L 47.497959 118.883077 
L 50.914286 118.412742 
L 54.330612 117.662379 
L 57.746939 116.519521 
L 61.163265 114.906825 
L 64.579592 112.784659 
L 67.995918 110.153343 
L 71.412245 107.051618 
L 74.828571 103.552567 
L 78.244898 99.759702 
L 81.661224 95.803115 
L 85.077551 91.834862 
L 88.493878 88.02399 
L 91.910204 84.551161 
L 95.326531 81.603174 
L 98.742857 79.36761 
L 102.159184 78.028032 
L 105.57551 77.76 
L 108.991837 78.728068 
L 112.408163 81.076434 
L 115.82449 84.868426 
L 119.240816 89.735157 
L 122.657143 95.255585 
L 126.073469 101.034957 
L 129.489796 106.726213 
L 132.906122 112.039669 
L 136.322449 116.748287 
L 139.738776 120.689982 
L 143.155102 123.767381 
L 146.571429 125.946301 
L 149.987755 127.252335 
L 153.404082 127.760673 
L 156.820408 127.582407 
L 160.236735 126.852756 
L 163.653061 125.722501 
L 167.069388 124.350111 
L 170.485714 122.894649 
L 173.902041 121.510274 
L 177.318367 120.344079 
L 180.734694 119.538614 
L 184.15102 119.185517 
L 187.567347 119.181419 
L 190.983673 119.379272 
L 194.4 119.648931 
L 194.4 119.765151 
L 194.4 119.765151 
L 190.983673 119.517908 
L 187.567347 119.336989 
L 184.15102 119.350169 
L 180.734694 119.706714 
L 177.318367 120.52053 
L 173.902041 121.712015 
L 170.485714 123.138075 
L 167.069388 124.641741 
L 163.653061 126.058647 
L 160.236735 127.222825 
L 156.820408 127.972919 
L 153.404082 128.16 
L 149.987755 127.656957 
L 146.571429 126.368474 
L 143.155102 124.237815 
L 139.738776 121.250387 
L 136.322449 117.438638 
L 132.906122 112.890794 
L 129.489796 107.757406 
L 126.073469 102.253901 
L 122.657143 96.65921 
L 119.240816 91.310003 
L 115.82449 86.591153 
L 112.408163 82.914612 
L 108.991837 80.642264 
L 105.57551 79.707104 
L 102.159184 79.964285 
L 98.742857 81.250594 
L 95.326531 83.393692 
L 91.910204 86.214997 
L 88.493878 89.533483 
L 85.077551 93.170171 
L 81.661224 96.953063 
L 78.244898 100.722312 
L 74.828571 104.335147 
L 71.412245 107.670272 
L 67.995918 110.631585 
L 64.579592 113.151815 
L 61.163265 115.195028 
L 57.746939 116.75753 
L 54.330612 117.869548 
L 50.914286 118.598553 
L 47.497959 119.050343 
L 44.081633 119.366595 
L 40.665306 119.671992 
L 37.24898 119.928488 
L 33.832653 120.078136 
L 30.416327 120.094186 
L 27 119.979255 
z
" style="fill:#66c2a5;fill-opacity:0.5;"/>
   </g>
   <g id="matplotlib.axis_3">
    <g id="xtick_6">
     <g id="line2d_12">
      <g>
       <use style="fill:#a9a9a9;stroke:#a9a9a9;stroke-width:2;" x="44.081633" xlink:href="#me06e9a3e4f" y="122.360429"/>
      </g>
     </g>
    </g>
    <g id="xtick_7">
     <g id="line2d_13">
      <g>
       <use style="fill:#a9a9a9;stroke:#a9a9a9;stroke-width:2;" x="78.244898" xlink:href="#me06e9a3e4f" y="122.360429"/>
      </g>
     </g>
    </g>
    <g id="xtick_8">
     <g id="line2d_14">
      <g>
       <use style="fill:#a9a9a9;stroke:#a9a9a9;stroke-width:2;" x="112.408163" xlink:href="#me06e9a3e4f" y="122.360429"/>
      </g>
     </g>
    </g>
    <g id="xtick_9">
     <g id="line2d_15">
      <g>
       <use style="fill:#a9a9a9;stroke:#a9a9a9;stroke-width:2;" x="146.571429" xlink:href="#me06e9a3e4f" y="122.360429"/>
      </g>
     </g>
    </g>
    <g id="xtick_10">
     <g id="line2d_16">
      <g>
       <use style="fill:#a9a9a9;stroke:#a9a9a9;stroke-width:2;" x="180.734694" xlink:href="#me06e9a3e4f" y="122.360429"/>
      </g>
     </g>
    </g>
   </g>
   <g id="matplotlib.axis_4"/>
   <g id="line2d_17">
    <path clip-path="url(#p2707658511)" d="M 27 119.932439 
L 30.416327 120.054445 
L 33.832653 120.036933 
L 37.24898 119.878264 
L 40.665306 119.609761 
L 44.081633 119.292776 
L 47.497959 118.96671 
L 50.914286 118.505648 
L 54.330612 117.765964 
L 57.746939 116.638525 
L 61.163265 115.050926 
L 64.579592 112.968237 
L 67.995918 110.392464 
L 71.412245 107.360945 
L 74.828571 103.943857 
L 78.244898 100.241007 
L 81.661224 96.378089 
L 85.077551 92.502516 
L 88.493878 88.778736 
L 91.910204 85.383079 
L 95.326531 82.498433 
L 98.742857 80.309102 
L 102.159184 78.996158 
L 105.57551 78.733552 
L 108.991837 79.685166 
L 112.408163 81.995523 
L 115.82449 85.72979 
L 119.240816 90.52258 
L 122.657143 95.957398 
L 126.073469 101.644429 
L 129.489796 107.24181 
L 132.906122 112.465231 
L 136.322449 117.093463 
L 139.738776 120.970185 
L 143.155102 124.002598 
L 146.571429 126.157387 
L 149.987755 127.454646 
L 153.404082 127.960337 
L 156.820408 127.777663 
L 160.236735 127.03779 
L 163.653061 125.890574 
L 167.069388 124.495926 
L 170.485714 123.016362 
L 173.902041 121.611144 
L 177.318367 120.432304 
L 180.734694 119.622664 
L 184.15102 119.267843 
L 187.567347 119.259204 
L 190.983673 119.44859 
L 194.4 119.707041 
" style="fill:none;stroke:#66c2a5;stroke-linecap:square;stroke-width:2;"/>
   </g>
   <g id="patch_8">
    <path d="M 112.408163 128.16 
L 112.408163 77.76 
" style="fill:none;stroke:#a9a9a9;stroke-linecap:square;stroke-linejoin:miter;stroke-width:2;"/>
   </g>
   <g id="patch_9">
    <path d="M 194.4 128.16 
L 194.4 77.76 
" style="fill:none;"/>
   </g>
   <g id="patch_10">
    <path d="M 27 122.360429 
L 194.4 122.360429 
" style="fill:none;stroke:#a9a9a9;stroke-linecap:square;stroke-linejoin:miter;stroke-width:2;"/>
   </g>
   <g id="patch_11">
    <path d="M 27 77.76 
L 194.4 77.76 
" style="fill:none;"/>
   </g>
  </g>
 </g>
 <defs>
  <clipPath id="p2777fd8d1a">
   <rect height="50.4" width="167.4" x="27" y="17.28"/>
  </clipPath>
  <clipPath id="p2707658511">
   <rect height="50.4" width="167.4" x="27" y="77.76"/>
  </clipPath>
 </defs>
</svg>
