<?xml version="1.0" encoding="utf-8" standalone="no"?>
<!DOCTYPE svg PUBLIC "-//W3C//DTD SVG 1.1//EN"
  "http://www.w3.org/Graphics/SVG/1.1/DTD/svg11.dtd">
<!-- Created with matplotlib (https://matplotlib.org/) -->
<svg height="144pt" version="1.1" viewBox="0 0 216 144" width="216pt" xmlns="http://www.w3.org/2000/svg" xmlns:xlink="http://www.w3.org/1999/xlink">
 <metadata>
  <rdf:RDF xmlns:cc="http://creativecommons.org/ns#" xmlns:dc="http://purl.org/dc/elements/1.1/" xmlns:rdf="http://www.w3.org/1999/02/22-rdf-syntax-ns#">
   <cc:Work>
    <dc:type rdf:resource="http://purl.org/dc/dcmitype/StillImage"/>
    <dc:date>2021-09-28T10:30:32.359669</dc:date>
    <dc:format>image/svg+xml</dc:format>
    <dc:creator>
     <cc:Agent>
      <dc:title>Matplotlib v3.3.2, https://matplotlib.org/</dc:title>
     </cc:Agent>
    </dc:creator>
   </cc:Work>
  </rdf:RDF>
 </metadata>
 <defs>
  <style type="text/css">*{stroke-linecap:butt;stroke-linejoin:round;}</style>
 </defs>
 <g id="figure_1">
  <g id="patch_1">
   <path d="M 0 144 
L 216 144 
L 216 0 
L 0 0 
z
" style="fill:none;"/>
  </g>
  <g id="axes_1">
   <g id="patch_2">
    <path d="M 27 67.68 
L 194.4 67.68 
L 194.4 17.28 
L 27 17.28 
z
" style="fill:none;"/>
   </g>
   <g id="PolyCollection_1">
    <path clip-path="url(#pbf5ea9aae7)" d="M 27 53.866944 
L 27 53.866944 
L 30.416327 53.866944 
L 33.832653 53.866944 
L 37.24898 53.866944 
L 40.665306 53.866944 
L 44.081633 53.866944 
L 47.497959 53.866898 
L 50.914286 53.530903 
L 54.330612 53.415918 
L 57.746939 52.24748 
L 61.163265 50.300605 
L 64.579592 48.784486 
L 67.995918 50.534844 
L 71.412245 47.284247 
L 74.828571 46.703882 
L 78.244898 42.54994 
L 81.661224 38.556089 
L 85.077551 34.838305 
L 88.493878 24.453666 
L 91.910204 20.465283 
L 95.326531 23.928918 
L 98.742857 20.261568 
L 102.159184 23.63018 
L 105.57551 17.28 
L 108.991837 18.987524 
L 112.408163 29.706187 
L 115.82449 36.042365 
L 119.240816 30.035678 
L 122.657143 36.907611 
L 126.073469 38.948809 
L 129.489796 34.578239 
L 132.906122 41.672325 
L 136.322449 44.078681 
L 139.738776 45.147951 
L 143.155102 45.933645 
L 146.571429 37.074438 
L 149.987755 39.327718 
L 153.404082 47.122497 
L 156.820408 45.929488 
L 160.236735 50.698165 
L 163.653061 48.666706 
L 167.069388 52.098838 
L 170.485714 53.234926 
L 173.902041 53.297535 
L 177.318367 53.866917 
L 180.734694 53.866944 
L 184.15102 53.866944 
L 187.567347 53.866944 
L 190.983673 53.866944 
L 194.4 53.866944 
L 194.4 53.866944 
L 194.4 53.866944 
L 190.983673 53.866944 
L 187.567347 53.866944 
L 184.15102 53.866944 
L 180.734694 53.866944 
L 177.318367 53.866981 
L 173.902041 54.287713 
L 170.485714 54.407526 
L 167.069388 55.407816 
L 163.653061 57.517758 
L 160.236735 57.366348 
L 156.820408 57.382725 
L 153.404082 58.165247 
L 149.987755 61.651916 
L 146.571429 64.031841 
L 143.155102 58.8969 
L 139.738776 60.191832 
L 136.322449 63.727725 
L 132.906122 66.697562 
L 129.489796 66.876061 
L 126.073469 62.711803 
L 122.657143 62.836109 
L 119.240816 67.68 
L 115.82449 62.233685 
L 112.408163 57.900503 
L 108.991837 64.238176 
L 105.57551 66.038467 
L 102.159184 62.603426 
L 98.742857 64.983889 
L 95.326531 64.92127 
L 91.910204 64.460864 
L 88.493878 64.646296 
L 85.077551 59.909611 
L 81.661224 59.617734 
L 78.244898 62.232779 
L 74.828571 60.877309 
L 71.412245 58.36258 
L 67.995918 57.882599 
L 64.579592 56.672342 
L 61.163265 57.741129 
L 57.746939 55.370601 
L 54.330612 54.188368 
L 50.914286 54.321594 
L 47.497959 53.866978 
L 44.081633 53.866944 
L 40.665306 53.866944 
L 37.24898 53.866944 
L 33.832653 53.866944 
L 30.416327 53.866944 
L 27 53.866944 
z
" style="fill:#fc8d62;fill-opacity:0.5;"/>
   </g>
   <g id="matplotlib.axis_1">
    <g id="xtick_1">
     <g id="line2d_1">
      <defs>
       <path d="M 0 0 
L 0 3.5 
" id="m49a66b620c" style="stroke:#a9a9a9;stroke-width:2;"/>
      </defs>
      <g>
       <use style="fill:#a9a9a9;stroke:#a9a9a9;stroke-width:2;" x="44.081633" xlink:href="#m49a66b620c" y="53.866944"/>
      </g>
     </g>
    </g>
    <g id="xtick_2">
     <g id="line2d_2">
      <g>
       <use style="fill:#a9a9a9;stroke:#a9a9a9;stroke-width:2;" x="78.244898" xlink:href="#m49a66b620c" y="53.866944"/>
      </g>
     </g>
    </g>
    <g id="xtick_3">
     <g id="line2d_3">
      <g>
       <use style="fill:#a9a9a9;stroke:#a9a9a9;stroke-width:2;" x="112.408163" xlink:href="#m49a66b620c" y="53.866944"/>
      </g>
     </g>
    </g>
    <g id="xtick_4">
     <g id="line2d_4">
      <g>
       <use style="fill:#a9a9a9;stroke:#a9a9a9;stroke-width:2;" x="146.571429" xlink:href="#m49a66b620c" y="53.866944"/>
      </g>
     </g>
    </g>
    <g id="xtick_5">
     <g id="line2d_5">
      <g>
       <use style="fill:#a9a9a9;stroke:#a9a9a9;stroke-width:2;" x="180.734694" xlink:href="#m49a66b620c" y="53.866944"/>
      </g>
     </g>
    </g>
   </g>
   <g id="matplotlib.axis_2"/>
   <g id="line2d_6">
    <path clip-path="url(#pbf5ea9aae7)" d="M 27 53.866944 
L 30.416327 53.866944 
L 33.832653 53.866944 
L 37.24898 53.866944 
L 40.665306 53.866944 
L 44.081633 53.866944 
L 47.497959 53.866938 
L 50.914286 53.926249 
L 54.330612 53.802143 
L 57.746939 53.809041 
L 61.163265 54.020867 
L 64.579592 52.728414 
L 67.995918 54.208722 
L 71.412245 52.823413 
L 74.828571 53.790595 
L 78.244898 52.391359 
L 81.661224 49.086912 
L 85.077551 47.373958 
L 88.493878 44.549981 
L 91.910204 42.463073 
L 95.326531 44.425094 
L 98.742857 42.622728 
L 102.159184 43.116803 
L 105.57551 41.659233 
L 108.991837 41.61285 
L 112.408163 43.803345 
L 115.82449 49.138025 
L 119.240816 48.857839 
L 122.657143 49.87186 
L 126.073469 50.830306 
L 129.489796 50.72715 
L 132.906122 54.184944 
L 136.322449 53.903203 
L 139.738776 52.669892 
L 143.155102 52.415272 
L 146.571429 50.553139 
L 149.987755 50.489817 
L 153.404082 52.643872 
L 156.820408 51.656106 
L 160.236735 54.032257 
L 163.653061 53.092232 
L 167.069388 53.753327 
L 170.485714 53.821226 
L 173.902041 53.792624 
L 177.318367 53.866949 
L 180.734694 53.866944 
L 184.15102 53.866944 
L 187.567347 53.866944 
L 190.983673 53.866944 
L 194.4 53.866944 
" style="fill:none;stroke:#fc8d62;stroke-linecap:square;stroke-width:2;"/>
   </g>
   <g id="line2d_7">
    <path clip-path="url(#pbf5ea9aae7)" d="M 27 53.866944 
L 30.416327 53.866944 
L 33.832653 53.866944 
L 37.24898 53.866944 
L 40.665306 53.866944 
L 44.081633 53.866944 
L 47.497959 53.831152 
L 50.914286 53.756194 
L 54.330612 53.521202 
L 57.746939 53.342675 
L 61.163265 53.793847 
L 64.579592 53.716743 
L 67.995918 53.354873 
L 71.412245 51.551719 
L 74.828571 50.895475 
L 78.244898 50.131069 
L 81.661224 50.61946 
L 85.077551 48.505546 
L 88.493878 47.32435 
L 91.910204 46.233122 
L 95.326531 46.174372 
L 98.742857 46.152352 
L 102.159184 45.780224 
L 105.57551 48.682104 
L 108.991837 44.559171 
L 112.408163 43.924759 
L 115.82449 44.336253 
L 119.240816 41.61285 
L 122.657143 44.994575 
L 126.073469 46.017468 
L 129.489796 47.723072 
L 132.906122 48.99713 
L 136.322449 49.983065 
L 139.738776 50.484042 
L 143.155102 50.139141 
L 146.571429 51.534796 
L 149.987755 52.085269 
L 153.404082 53.053586 
L 156.820408 52.015692 
L 160.236735 52.534982 
L 163.653061 53.008158 
L 167.069388 53.843427 
L 170.485714 53.9496 
L 173.902041 53.892832 
L 177.318367 53.886989 
L 180.734694 53.866944 
L 184.15102 53.866944 
L 187.567347 53.866944 
L 190.983673 53.866944 
L 194.4 53.866944 
" style="fill:none;stroke:#fc8d62;stroke-dasharray:1.5,2.475;stroke-dashoffset:0;stroke-opacity:0.5;stroke-width:1.5;"/>
   </g>
   <g id="patch_3">
    <path d="M 112.408163 67.68 
L 112.408163 17.28 
" style="fill:none;stroke:#a9a9a9;stroke-linecap:square;stroke-linejoin:miter;stroke-width:2;"/>
   </g>
   <g id="patch_4">
    <path d="M 194.4 67.68 
L 194.4 17.28 
" style="fill:none;"/>
   </g>
   <g id="patch_5">
    <path d="M 27 53.866944 
L 194.4 53.866944 
" style="fill:none;stroke:#a9a9a9;stroke-linecap:square;stroke-linejoin:miter;stroke-width:2;"/>
   </g>
   <g id="patch_6">
    <path d="M 27 17.28 
L 194.4 17.28 
" style="fill:none;"/>
   </g>
   <g id="legend_1">
    <g id="line2d_8">
     <path d="M 152.47 26.448906 
L 166.47 26.448906 
" style="fill:none;stroke:#fc8d62;stroke-linecap:square;stroke-width:2;"/>
    </g>
    <g id="line2d_9"/>
    <g id="text_1">
     <!-- $\theta$ -->
     <g transform="translate(172.07 28.898906)scale(0.07 -0.07)">
      <defs>
       <path d="M 45.515625 34.671875 
L 14.453125 34.671875 
Q 12.359375 20.0625 14.5 13.875 
Q 17.1875 6.25 24.46875 6.25 
Q 31.78125 6.25 37.359375 13.921875 
Q 42.234375 20.65625 45.515625 34.671875 
z
M 47.015625 42.96875 
Q 48.34375 56.84375 46.625 61.71875 
Q 43.953125 69.4375 36.765625 69.4375 
Q 29.296875 69.4375 23.828125 61.8125 
Q 19.53125 55.671875 16.15625 42.96875 
z
M 38.1875 76.765625 
Q 49.90625 76.765625 54.59375 66.40625 
Q 59.28125 56.109375 55.71875 37.84375 
Q 52.203125 19.625 43.453125 9.28125 
Q 34.765625 -1.125 23.046875 -1.125 
Q 11.28125 -1.125 6.640625 9.28125 
Q 2 19.625 5.515625 37.84375 
Q 9.078125 56.109375 17.71875 66.40625 
Q 26.421875 76.765625 38.1875 76.765625 
z
" id="DejaVuSans-Oblique-952"/>
      </defs>
      <use transform="translate(0 0.234375)" xlink:href="#DejaVuSans-Oblique-952"/>
     </g>
    </g>
    <g id="line2d_10">
     <path d="M 152.47 36.723594 
L 166.47 36.723594 
" style="fill:none;stroke:#fc8d62;stroke-dasharray:1.5,2.475;stroke-dashoffset:0;stroke-opacity:0.5;stroke-width:1.5;"/>
    </g>
    <g id="line2d_11"/>
    <g id="text_2">
     <!-- No $\theta$ -->
     <g transform="translate(172.07 39.173594)scale(0.07 -0.07)">
      <defs>
       <path d="M 9.8125 72.90625 
L 23.09375 72.90625 
L 55.421875 11.921875 
L 55.421875 72.90625 
L 64.984375 72.90625 
L 64.984375 0 
L 51.703125 0 
L 19.390625 60.984375 
L 19.390625 0 
L 9.8125 0 
z
" id="DejaVuSans-78"/>
       <path d="M 30.609375 48.390625 
Q 23.390625 48.390625 19.1875 42.75 
Q 14.984375 37.109375 14.984375 27.296875 
Q 14.984375 17.484375 19.15625 11.84375 
Q 23.34375 6.203125 30.609375 6.203125 
Q 37.796875 6.203125 41.984375 11.859375 
Q 46.1875 17.53125 46.1875 27.296875 
Q 46.1875 37.015625 41.984375 42.703125 
Q 37.796875 48.390625 30.609375 48.390625 
z
M 30.609375 56 
Q 42.328125 56 49.015625 48.375 
Q 55.71875 40.765625 55.71875 27.296875 
Q 55.71875 13.875 49.015625 6.21875 
Q 42.328125 -1.421875 30.609375 -1.421875 
Q 18.84375 -1.421875 12.171875 6.21875 
Q 5.515625 13.875 5.515625 27.296875 
Q 5.515625 40.765625 12.171875 48.375 
Q 18.84375 56 30.609375 56 
z
" id="DejaVuSans-111"/>
       <path id="DejaVuSans-32"/>
      </defs>
      <use transform="translate(0 0.234375)" xlink:href="#DejaVuSans-78"/>
      <use transform="translate(74.804688 0.234375)" xlink:href="#DejaVuSans-111"/>
      <use transform="translate(135.986328 0.234375)" xlink:href="#DejaVuSans-32"/>
      <use transform="translate(167.773438 0.234375)" xlink:href="#DejaVuSans-Oblique-952"/>
     </g>
    </g>
   </g>
  </g>
  <g id="axes_2">
   <g id="patch_7">
    <path d="M 27 128.16 
L 194.4 128.16 
L 194.4 77.76 
L 27 77.76 
z
" style="fill:none;"/>
   </g>
   <g id="PolyCollection_2">
    <path clip-path="url(#pf38795317a)" d="M 27 122.557172 
L 27 122.551406 
L 30.416327 122.552864 
L 33.832653 122.553407 
L 37.24898 122.553533 
L 40.665306 122.553547 
L 44.081633 122.553531 
L 47.497959 122.53527 
L 50.914286 122.413413 
L 54.330612 122.097154 
L 57.746939 121.510116 
L 61.163265 120.595458 
L 64.579592 119.318184 
L 67.995918 117.666532 
L 71.412245 115.652751 
L 74.828571 113.312998 
L 78.244898 110.705107 
L 81.661224 107.905877 
L 85.077551 105.006562 
L 88.493878 102.108172 
L 91.910204 99.317154 
L 95.326531 96.741142 
L 98.742857 94.484666 
L 102.159184 92.64492 
L 105.57551 91.307691 
L 108.991837 90.543563 
L 112.408163 77.76 
L 115.82449 90.911015 
L 119.240816 92.025137 
L 122.657143 93.680323 
L 126.073469 95.79409 
L 129.489796 98.271682 
L 132.906122 101.009931 
L 136.322449 103.901273 
L 139.738776 106.837832 
L 143.155102 109.715478 
L 146.571429 112.437841 
L 149.987755 114.92045 
L 153.404082 117.095474 
L 156.820408 118.916095 
L 160.236735 120.35818 
L 163.653061 121.421117 
L 167.069388 122.121981 
L 170.485714 122.441454 
L 173.902041 122.457028 
L 177.318367 122.468212 
L 180.734694 122.494826 
L 184.15102 122.51708 
L 187.567347 122.532443 
L 190.983673 122.542365 
L 194.4 122.548259 
L 194.4 122.563099 
L 194.4 122.563099 
L 190.983673 122.575004 
L 187.567347 122.596431 
L 184.15102 122.631875 
L 180.734694 122.68671 
L 177.318367 122.751991 
L 173.902041 122.755491 
L 170.485714 122.654343 
L 167.069388 122.68997 
L 163.653061 122.889246 
L 160.236735 123.192457 
L 156.820408 123.589021 
L 153.404082 124.065506 
L 149.987755 124.601357 
L 146.571429 125.17063 
L 143.155102 125.743812 
L 139.738776 126.29156 
L 136.322449 126.788082 
L 132.906122 127.21329 
L 129.489796 127.554185 
L 126.073469 127.805834 
L 122.657143 127.971944 
L 119.240816 128.065114 
L 115.82449 128.106859 
L 112.408163 115.483072 
L 108.991837 128.152851 
L 105.57551 128.16 
L 102.159184 128.119 
L 98.742857 128.007515 
L 95.326531 127.811116 
L 91.910204 127.523486 
L 88.493878 127.146414 
L 85.077551 126.689525 
L 81.661224 126.169645 
L 78.244898 125.609741 
L 74.828571 125.037178 
L 71.412245 124.480886 
L 67.995918 123.967981 
L 64.579592 123.521432 
L 61.163265 123.157471 
L 57.746939 122.884462 
L 54.330612 122.702027 
L 50.914286 122.600303 
L 47.497959 122.559755 
L 44.081633 122.553556 
L 40.665306 122.553547 
L 37.24898 122.553567 
L 33.832653 122.553755 
L 30.416327 122.554628 
L 27 122.557172 
z
" style="fill:#66c2a5;fill-opacity:0.5;"/>
   </g>
   <g id="matplotlib.axis_3">
    <g id="xtick_6">
     <g id="line2d_12">
      <g>
       <use style="fill:#a9a9a9;stroke:#a9a9a9;stroke-width:2;" x="44.081633" xlink:href="#m49a66b620c" y="122.553547"/>
      </g>
     </g>
    </g>
    <g id="xtick_7">
     <g id="line2d_13">
      <g>
       <use style="fill:#a9a9a9;stroke:#a9a9a9;stroke-width:2;" x="78.244898" xlink:href="#m49a66b620c" y="122.553547"/>
      </g>
     </g>
    </g>
    <g id="xtick_8">
     <g id="line2d_14">
      <g>
       <use style="fill:#a9a9a9;stroke:#a9a9a9;stroke-width:2;" x="112.408163" xlink:href="#m49a66b620c" y="122.553547"/>
      </g>
     </g>
    </g>
    <g id="xtick_9">
     <g id="line2d_15">
      <g>
       <use style="fill:#a9a9a9;stroke:#a9a9a9;stroke-width:2;" x="146.571429" xlink:href="#m49a66b620c" y="122.553547"/>
      </g>
     </g>
    </g>
    <g id="xtick_10">
     <g id="line2d_16">
      <g>
       <use style="fill:#a9a9a9;stroke:#a9a9a9;stroke-width:2;" x="180.734694" xlink:href="#m49a66b620c" y="122.553547"/>
      </g>
     </g>
    </g>
   </g>
   <g id="matplotlib.axis_4"/>
   <g id="line2d_17">
    <path clip-path="url(#pf38795317a)" d="M 27 122.554289 
L 30.416327 122.553746 
L 33.832653 122.553581 
L 37.24898 122.55355 
L 40.665306 122.553547 
L 44.081633 122.553544 
L 47.497959 122.547513 
L 50.914286 122.506858 
L 54.330612 122.399591 
L 57.746939 122.197289 
L 61.163265 121.876465 
L 64.579592 121.419808 
L 67.995918 120.817257 
L 71.412245 120.066819 
L 74.828571 119.175088 
L 78.244898 118.157424 
L 81.661224 117.037761 
L 85.077551 115.848044 
L 88.493878 114.627293 
L 91.910204 113.42032 
L 95.326531 112.276129 
L 98.742857 111.24609 
L 102.159184 110.38196 
L 105.57551 109.733846 
L 108.991837 109.348207 
L 112.408163 96.621536 
L 115.82449 109.508937 
L 119.240816 110.045125 
L 122.657143 110.826133 
L 126.073469 111.799962 
L 129.489796 112.912933 
L 132.906122 114.11161 
L 136.322449 115.344678 
L 139.738776 116.564696 
L 143.155102 117.729645 
L 146.571429 118.804235 
L 149.987755 119.760903 
L 153.404082 120.58049 
L 156.820408 121.252558 
L 160.236735 121.775319 
L 163.653061 122.155181 
L 167.069388 122.405976 
L 170.485714 122.547898 
L 173.902041 122.606259 
L 177.318367 122.610102 
L 180.734694 122.590768 
L 184.15102 122.574478 
L 187.567347 122.564437 
L 190.983673 122.558684 
L 194.4 122.555679 
" style="fill:none;stroke:#66c2a5;stroke-linecap:square;stroke-width:2;"/>
   </g>
   <g id="patch_8">
    <path d="M 112.408163 128.16 
L 112.408163 77.76 
" style="fill:none;stroke:#a9a9a9;stroke-linecap:square;stroke-linejoin:miter;stroke-width:2;"/>
   </g>
   <g id="patch_9">
    <path d="M 194.4 128.16 
L 194.4 77.76 
" style="fill:none;"/>
   </g>
   <g id="patch_10">
    <path d="M 27 122.553547 
L 194.4 122.553547 
" style="fill:none;stroke:#a9a9a9;stroke-linecap:square;stroke-linejoin:miter;stroke-width:2;"/>
   </g>
   <g id="patch_11">
    <path d="M 27 77.76 
L 194.4 77.76 
" style="fill:none;"/>
   </g>
  </g>
 </g>
 <defs>
  <clipPath id="pbf5ea9aae7">
   <rect height="50.4" width="167.4" x="27" y="17.28"/>
  </clipPath>
  <clipPath id="pf38795317a">
   <rect height="50.4" width="167.4" x="27" y="77.76"/>
  </clipPath>
 </defs>
</svg>
