<?xml version="1.0" encoding="utf-8" standalone="no"?>
<!DOCTYPE svg PUBLIC "-//W3C//DTD SVG 1.1//EN"
  "http://www.w3.org/Graphics/SVG/1.1/DTD/svg11.dtd">
<!-- Created with matplotlib (https://matplotlib.org/) -->
<svg height="144pt" version="1.1" viewBox="0 0 216 144" width="216pt" xmlns="http://www.w3.org/2000/svg" xmlns:xlink="http://www.w3.org/1999/xlink">
 <metadata>
  <rdf:RDF xmlns:cc="http://creativecommons.org/ns#" xmlns:dc="http://purl.org/dc/elements/1.1/" xmlns:rdf="http://www.w3.org/1999/02/22-rdf-syntax-ns#">
   <cc:Work>
    <dc:type rdf:resource="http://purl.org/dc/dcmitype/StillImage"/>
    <dc:date>2021-09-28T08:36:54.818860</dc:date>
    <dc:format>image/svg+xml</dc:format>
    <dc:creator>
     <cc:Agent>
      <dc:title>Matplotlib v3.3.2, https://matplotlib.org/</dc:title>
     </cc:Agent>
    </dc:creator>
   </cc:Work>
  </rdf:RDF>
 </metadata>
 <defs>
  <style type="text/css">*{stroke-linecap:butt;stroke-linejoin:round;}</style>
 </defs>
 <g id="figure_1">
  <g id="patch_1">
   <path d="M 0 144 
L 216 144 
L 216 0 
L 0 0 
z
" style="fill:none;"/>
  </g>
  <g id="axes_1">
   <g id="patch_2">
    <path d="M 27 67.68 
L 194.4 67.68 
L 194.4 17.28 
L 27 17.28 
z
" style="fill:none;"/>
   </g>
   <g id="PolyCollection_1">
    <path clip-path="url(#p6ca75d2a4b)" d="M 27 54.831645 
L 27 54.831645 
L 30.416327 54.831645 
L 33.832653 54.831645 
L 37.24898 54.831645 
L 40.665306 54.831645 
L 44.081633 54.831645 
L 47.497959 54.809206 
L 50.914286 54.289851 
L 54.330612 53.467141 
L 57.746939 52.858574 
L 61.163265 51.988546 
L 64.579592 49.012616 
L 67.995918 50.850656 
L 71.412245 48.055354 
L 74.828571 43.601694 
L 78.244898 41.972381 
L 81.661224 38.691297 
L 85.077551 34.261585 
L 88.493878 33.186357 
L 91.910204 33.542899 
L 95.326531 34.305555 
L 98.742857 17.28 
L 102.159184 22.993975 
L 105.57551 27.486238 
L 108.991837 25.952363 
L 112.408163 31.920127 
L 115.82449 32.926497 
L 119.240816 30.637683 
L 122.657143 35.931427 
L 126.073469 39.040177 
L 129.489796 35.500685 
L 132.906122 43.144876 
L 136.322449 44.367944 
L 139.738776 45.680226 
L 143.155102 46.267445 
L 146.571429 42.937522 
L 149.987755 48.077274 
L 153.404082 48.58811 
L 156.820408 49.713099 
L 160.236735 51.351984 
L 163.653061 53.486081 
L 167.069388 52.927372 
L 170.485714 51.890151 
L 173.902041 53.972448 
L 177.318367 54.819904 
L 180.734694 54.831645 
L 184.15102 54.831645 
L 187.567347 54.831645 
L 190.983673 54.831645 
L 194.4 54.831645 
L 194.4 54.831645 
L 194.4 54.831645 
L 190.983673 54.831645 
L 187.567347 54.831645 
L 184.15102 54.831645 
L 180.734694 54.831645 
L 177.318367 54.847353 
L 173.902041 55.469815 
L 170.485714 56.705503 
L 167.069388 56.338952 
L 163.653061 56.076517 
L 160.236735 58.162558 
L 156.820408 57.712107 
L 153.404082 58.168783 
L 149.987755 58.710141 
L 146.571429 62.013683 
L 143.155102 58.70839 
L 139.738776 59.676241 
L 136.322449 59.942562 
L 132.906122 58.753195 
L 129.489796 62.274356 
L 126.073469 65.172372 
L 122.657143 62.604587 
L 119.240816 63.566061 
L 115.82449 61.809229 
L 112.408163 58.443368 
L 108.991837 62.186803 
L 105.57551 62.331426 
L 102.159184 63.388007 
L 98.742857 67.68 
L 95.326531 59.493814 
L 91.910204 60.476558 
L 88.493878 61.118986 
L 85.077551 61.644398 
L 81.661224 61.327434 
L 78.244898 60.337801 
L 74.828571 59.637407 
L 71.412245 58.17067 
L 67.995918 56.75796 
L 64.579592 57.704998 
L 61.163265 56.141753 
L 57.746939 56.281845 
L 54.330612 56.798736 
L 50.914286 55.459623 
L 47.497959 54.848419 
L 44.081633 54.831645 
L 40.665306 54.831645 
L 37.24898 54.831645 
L 33.832653 54.831645 
L 30.416327 54.831645 
L 27 54.831645 
z
" style="fill:#fc8d62;fill-opacity:0.5;"/>
   </g>
   <g id="matplotlib.axis_1">
    <g id="xtick_1">
     <g id="line2d_1">
      <defs>
       <path d="M 0 0 
L 0 3.5 
" id="m09a8c3b1ac" style="stroke:#a9a9a9;stroke-width:2;"/>
      </defs>
      <g>
       <use style="fill:#a9a9a9;stroke:#a9a9a9;stroke-width:2;" x="44.081633" xlink:href="#m09a8c3b1ac" y="54.831645"/>
      </g>
     </g>
    </g>
    <g id="xtick_2">
     <g id="line2d_2">
      <g>
       <use style="fill:#a9a9a9;stroke:#a9a9a9;stroke-width:2;" x="78.244898" xlink:href="#m09a8c3b1ac" y="54.831645"/>
      </g>
     </g>
    </g>
    <g id="xtick_3">
     <g id="line2d_3">
      <g>
       <use style="fill:#a9a9a9;stroke:#a9a9a9;stroke-width:2;" x="112.408163" xlink:href="#m09a8c3b1ac" y="54.831645"/>
      </g>
     </g>
    </g>
    <g id="xtick_4">
     <g id="line2d_4">
      <g>
       <use style="fill:#a9a9a9;stroke:#a9a9a9;stroke-width:2;" x="146.571429" xlink:href="#m09a8c3b1ac" y="54.831645"/>
      </g>
     </g>
    </g>
    <g id="xtick_5">
     <g id="line2d_5">
      <g>
       <use style="fill:#a9a9a9;stroke:#a9a9a9;stroke-width:2;" x="180.734694" xlink:href="#m09a8c3b1ac" y="54.831645"/>
      </g>
     </g>
    </g>
   </g>
   <g id="matplotlib.axis_2"/>
   <g id="line2d_6">
    <path clip-path="url(#p6ca75d2a4b)" d="M 27 54.831645 
L 30.416327 54.831645 
L 33.832653 54.831645 
L 37.24898 54.831645 
L 40.665306 54.831645 
L 44.081633 54.831645 
L 47.497959 54.828812 
L 50.914286 54.874737 
L 54.330612 55.132939 
L 57.746939 54.570209 
L 61.163265 54.06515 
L 64.579592 53.358807 
L 67.995918 53.804308 
L 71.412245 53.113012 
L 74.828571 51.619551 
L 78.244898 51.155091 
L 81.661224 50.009366 
L 85.077551 47.952992 
L 88.493878 47.152672 
L 91.910204 47.009728 
L 95.326531 46.899684 
L 98.742857 42.48 
L 102.159184 43.190991 
L 105.57551 44.908832 
L 108.991837 44.069583 
L 112.408163 45.181748 
L 115.82449 47.367863 
L 119.240816 47.101872 
L 122.657143 49.268007 
L 126.073469 52.106275 
L 129.489796 48.88752 
L 132.906122 50.949036 
L 136.322449 52.155253 
L 139.738776 52.678234 
L 143.155102 52.487917 
L 146.571429 52.475603 
L 149.987755 53.393707 
L 153.404082 53.378446 
L 156.820408 53.712603 
L 160.236735 54.757271 
L 163.653061 54.781299 
L 167.069388 54.633162 
L 170.485714 54.297827 
L 173.902041 54.721132 
L 177.318367 54.833628 
L 180.734694 54.831645 
L 184.15102 54.831645 
L 187.567347 54.831645 
L 190.983673 54.831645 
L 194.4 54.831645 
" style="fill:none;stroke:#fc8d62;stroke-linecap:square;stroke-width:2;"/>
   </g>
   <g id="line2d_7">
    <path clip-path="url(#p6ca75d2a4b)" d="M 27 54.831645 
L 30.416327 54.831645 
L 33.832653 54.831645 
L 37.24898 54.831645 
L 40.665306 54.831645 
L 44.081633 54.831645 
L 47.497959 54.84848 
L 50.914286 54.828559 
L 54.330612 54.746424 
L 57.746939 54.094129 
L 61.163265 54.31375 
L 64.579592 53.778176 
L 67.995918 52.878502 
L 71.412245 52.888115 
L 74.828571 51.57617 
L 78.244898 50.926984 
L 81.661224 49.309953 
L 85.077551 48.000388 
L 88.493878 49.556339 
L 91.910204 47.813727 
L 95.326531 46.754755 
L 98.742857 46.56797 
L 102.159184 44.207817 
L 105.57551 45.523136 
L 108.991837 42.896239 
L 112.408163 42.48 
L 115.82449 44.29971 
L 119.240816 43.100173 
L 122.657143 44.371082 
L 126.073469 44.027028 
L 129.489796 45.803943 
L 132.906122 46.976495 
L 136.322449 47.187859 
L 139.738776 50.108427 
L 143.155102 50.839043 
L 146.571429 51.16627 
L 149.987755 51.977294 
L 153.404082 52.950147 
L 156.820408 53.683302 
L 160.236735 53.80597 
L 163.653061 54.278354 
L 167.069388 54.915308 
L 170.485714 54.702181 
L 173.902041 54.776988 
L 177.318367 54.806938 
L 180.734694 54.831645 
L 184.15102 54.831645 
L 187.567347 54.831645 
L 190.983673 54.831645 
L 194.4 54.831645 
" style="fill:none;stroke:#fc8d62;stroke-dasharray:1.5,2.475;stroke-dashoffset:0;stroke-opacity:0.5;stroke-width:1.5;"/>
   </g>
   <g id="patch_3">
    <path d="M 112.408163 67.68 
L 112.408163 17.28 
" style="fill:none;stroke:#a9a9a9;stroke-linecap:square;stroke-linejoin:miter;stroke-width:2;"/>
   </g>
   <g id="patch_4">
    <path d="M 194.4 67.68 
L 194.4 17.28 
" style="fill:none;"/>
   </g>
   <g id="patch_5">
    <path d="M 27 54.831645 
L 194.4 54.831645 
" style="fill:none;stroke:#a9a9a9;stroke-linecap:square;stroke-linejoin:miter;stroke-width:2;"/>
   </g>
   <g id="patch_6">
    <path d="M 27 17.28 
L 194.4 17.28 
" style="fill:none;"/>
   </g>
   <g id="legend_1">
    <g id="line2d_8">
     <path d="M 152.47 26.448906 
L 166.47 26.448906 
" style="fill:none;stroke:#fc8d62;stroke-linecap:square;stroke-width:2;"/>
    </g>
    <g id="line2d_9"/>
    <g id="text_1">
     <!-- $\theta$ -->
     <g transform="translate(172.07 28.898906)scale(0.07 -0.07)">
      <defs>
       <path d="M 45.515625 34.671875 
L 14.453125 34.671875 
Q 12.359375 20.0625 14.5 13.875 
Q 17.1875 6.25 24.46875 6.25 
Q 31.78125 6.25 37.359375 13.921875 
Q 42.234375 20.65625 45.515625 34.671875 
z
M 47.015625 42.96875 
Q 48.34375 56.84375 46.625 61.71875 
Q 43.953125 69.4375 36.765625 69.4375 
Q 29.296875 69.4375 23.828125 61.8125 
Q 19.53125 55.671875 16.15625 42.96875 
z
M 38.1875 76.765625 
Q 49.90625 76.765625 54.59375 66.40625 
Q 59.28125 56.109375 55.71875 37.84375 
Q 52.203125 19.625 43.453125 9.28125 
Q 34.765625 -1.125 23.046875 -1.125 
Q 11.28125 -1.125 6.640625 9.28125 
Q 2 19.625 5.515625 37.84375 
Q 9.078125 56.109375 17.71875 66.40625 
Q 26.421875 76.765625 38.1875 76.765625 
z
" id="DejaVuSans-Oblique-952"/>
      </defs>
      <use transform="translate(0 0.234375)" xlink:href="#DejaVuSans-Oblique-952"/>
     </g>
    </g>
    <g id="line2d_10">
     <path d="M 152.47 36.723594 
L 166.47 36.723594 
" style="fill:none;stroke:#fc8d62;stroke-dasharray:1.5,2.475;stroke-dashoffset:0;stroke-opacity:0.5;stroke-width:1.5;"/>
    </g>
    <g id="line2d_11"/>
    <g id="text_2">
     <!-- No $\theta$ -->
     <g transform="translate(172.07 39.173594)scale(0.07 -0.07)">
      <defs>
       <path d="M 9.8125 72.90625 
L 23.09375 72.90625 
L 55.421875 11.921875 
L 55.421875 72.90625 
L 64.984375 72.90625 
L 64.984375 0 
L 51.703125 0 
L 19.390625 60.984375 
L 19.390625 0 
L 9.8125 0 
z
" id="DejaVuSans-78"/>
       <path d="M 30.609375 48.390625 
Q 23.390625 48.390625 19.1875 42.75 
Q 14.984375 37.109375 14.984375 27.296875 
Q 14.984375 17.484375 19.15625 11.84375 
Q 23.34375 6.203125 30.609375 6.203125 
Q 37.796875 6.203125 41.984375 11.859375 
Q 46.1875 17.53125 46.1875 27.296875 
Q 46.1875 37.015625 41.984375 42.703125 
Q 37.796875 48.390625 30.609375 48.390625 
z
M 30.609375 56 
Q 42.328125 56 49.015625 48.375 
Q 55.71875 40.765625 55.71875 27.296875 
Q 55.71875 13.875 49.015625 6.21875 
Q 42.328125 -1.421875 30.609375 -1.421875 
Q 18.84375 -1.421875 12.171875 6.21875 
Q 5.515625 13.875 5.515625 27.296875 
Q 5.515625 40.765625 12.171875 48.375 
Q 18.84375 56 30.609375 56 
z
" id="DejaVuSans-111"/>
       <path id="DejaVuSans-32"/>
      </defs>
      <use transform="translate(0 0.234375)" xlink:href="#DejaVuSans-78"/>
      <use transform="translate(74.804688 0.234375)" xlink:href="#DejaVuSans-111"/>
      <use transform="translate(135.986328 0.234375)" xlink:href="#DejaVuSans-32"/>
      <use transform="translate(167.773438 0.234375)" xlink:href="#DejaVuSans-Oblique-952"/>
     </g>
    </g>
   </g>
  </g>
  <g id="axes_2">
   <g id="patch_7">
    <path d="M 27 128.16 
L 194.4 128.16 
L 194.4 77.76 
L 27 77.76 
z
" style="fill:none;"/>
   </g>
   <g id="PolyCollection_2">
    <path clip-path="url(#p4cc0d08d5c)" d="M 27 122.733926 
L 27 122.726437 
L 30.416327 122.72831 
L 33.832653 122.72901 
L 37.24898 122.729189 
L 40.665306 122.72921 
L 44.081633 122.7292 
L 47.497959 122.710726 
L 50.914286 122.587311 
L 54.330612 122.267555 
L 57.746939 121.675949 
L 61.163265 120.756362 
L 64.579592 119.474725 
L 67.995918 117.82056 
L 71.412245 115.807597 
L 74.828571 113.472802 
L 78.244898 110.874789 
L 81.661224 108.090943 
L 85.077551 105.21302 
L 88.493878 102.342313 
L 91.910204 99.585268 
L 95.326531 97.049199 
L 98.742857 94.838012 
L 102.159184 93.047989 
L 105.57551 91.763765 
L 108.991837 91.054575 
L 112.408163 77.76 
L 115.82449 91.531419 
L 119.240816 92.694757 
L 122.657143 94.391413 
L 126.073469 96.536686 
L 129.489796 99.034319 
L 132.906122 101.780309 
L 136.322449 104.666837 
L 139.738776 107.586268 
L 143.155102 110.435149 
L 146.571429 113.11817 
L 149.987755 115.552331 
L 153.404082 117.671896 
L 156.820408 119.432454 
L 160.236735 120.812307 
L 163.653061 121.810277 
L 167.069388 122.426403 
L 170.485714 122.595779 
L 173.902041 122.59769 
L 177.318367 122.619491 
L 180.734694 122.654669 
L 184.15102 122.682992 
L 187.567347 122.702431 
L 190.983673 122.714956 
L 194.4 122.722421 
L 194.4 122.74152 
L 194.4 122.74152 
L 190.983673 122.756676 
L 187.567347 122.783918 
L 184.15102 122.829122 
L 180.734694 122.899457 
L 177.318367 122.987986 
L 173.902041 123.022224 
L 170.485714 122.932721 
L 167.069388 122.848205 
L 163.653061 122.996511 
L 160.236735 123.271235 
L 156.820408 123.64342 
L 153.404082 124.097537 
L 149.987755 124.613796 
L 146.571429 125.166922 
L 143.155102 125.727756 
L 139.738776 126.266763 
L 136.322449 126.757728 
L 132.906122 127.180041 
L 129.489796 127.520184 
L 126.073469 127.772728 
L 122.657143 127.940986 
L 119.240816 128.03734 
L 115.82449 128.083339 
L 112.408163 114.898829 
L 108.991837 128.142831 
L 105.57551 128.16 
L 102.159184 128.131078 
L 98.742857 128.033467 
L 95.326531 127.852377 
L 91.910204 127.581045 
L 88.493878 127.220777 
L 85.077551 126.7807 
L 81.661224 126.277163 
L 78.244898 125.732685 
L 74.828571 125.17419 
L 71.412245 124.63009 
L 67.995918 124.127091 
L 64.579592 123.68778 
L 61.163265 123.328769 
L 57.746939 123.058773 
L 54.330612 122.877685 
L 50.914286 122.776077 
L 47.497959 122.735477 
L 44.081633 122.729215 
L 40.665306 122.72921 
L 37.24898 122.729237 
L 33.832653 122.729503 
L 30.416327 122.730638 
L 27 122.733926 
z
" style="fill:#66c2a5;fill-opacity:0.5;"/>
   </g>
   <g id="matplotlib.axis_3">
    <g id="xtick_6">
     <g id="line2d_12">
      <g>
       <use style="fill:#a9a9a9;stroke:#a9a9a9;stroke-width:2;" x="44.081633" xlink:href="#m09a8c3b1ac" y="122.72921"/>
      </g>
     </g>
    </g>
    <g id="xtick_7">
     <g id="line2d_13">
      <g>
       <use style="fill:#a9a9a9;stroke:#a9a9a9;stroke-width:2;" x="78.244898" xlink:href="#m09a8c3b1ac" y="122.72921"/>
      </g>
     </g>
    </g>
    <g id="xtick_8">
     <g id="line2d_14">
      <g>
       <use style="fill:#a9a9a9;stroke:#a9a9a9;stroke-width:2;" x="112.408163" xlink:href="#m09a8c3b1ac" y="122.72921"/>
      </g>
     </g>
    </g>
    <g id="xtick_9">
     <g id="line2d_15">
      <g>
       <use style="fill:#a9a9a9;stroke:#a9a9a9;stroke-width:2;" x="146.571429" xlink:href="#m09a8c3b1ac" y="122.72921"/>
      </g>
     </g>
    </g>
    <g id="xtick_10">
     <g id="line2d_16">
      <g>
       <use style="fill:#a9a9a9;stroke:#a9a9a9;stroke-width:2;" x="180.734694" xlink:href="#m09a8c3b1ac" y="122.72921"/>
      </g>
     </g>
    </g>
   </g>
   <g id="matplotlib.axis_4"/>
   <g id="line2d_17">
    <path clip-path="url(#p4cc0d08d5c)" d="M 27 122.730181 
L 30.416327 122.729474 
L 33.832653 122.729257 
L 37.24898 122.729213 
L 40.665306 122.72921 
L 44.081633 122.729207 
L 47.497959 122.723102 
L 50.914286 122.681694 
L 54.330612 122.57262 
L 57.746939 122.367361 
L 61.163265 122.042566 
L 64.579592 121.581252 
L 67.995918 120.973826 
L 71.412245 120.218844 
L 74.828571 119.323496 
L 78.244898 118.303737 
L 81.661224 117.184053 
L 85.077551 115.99686 
L 88.493878 114.781545 
L 91.910204 113.583157 
L 95.326531 112.450788 
L 98.742857 111.435739 
L 102.159184 110.589534 
L 105.57551 109.961883 
L 108.991837 109.598703 
L 112.408163 96.329415 
L 115.82449 109.807379 
L 119.240816 110.366049 
L 122.657143 111.166199 
L 126.073469 112.154707 
L 129.489796 113.277251 
L 132.906122 114.480175 
L 136.322449 115.712282 
L 139.738776 116.926516 
L 143.155102 118.081453 
L 146.571429 119.142546 
L 149.987755 120.083064 
L 153.404082 120.884716 
L 156.820408 121.537937 
L 160.236735 122.041771 
L 163.653061 122.403394 
L 167.069388 122.637304 
L 170.485714 122.76425 
L 173.902041 122.809957 
L 177.318367 122.803738 
L 180.734694 122.777063 
L 184.15102 122.756057 
L 187.567347 122.743175 
L 190.983673 122.735816 
L 194.4 122.73197 
" style="fill:none;stroke:#66c2a5;stroke-linecap:square;stroke-width:2;"/>
   </g>
   <g id="patch_8">
    <path d="M 112.408163 128.16 
L 112.408163 77.76 
" style="fill:none;stroke:#a9a9a9;stroke-linecap:square;stroke-linejoin:miter;stroke-width:2;"/>
   </g>
   <g id="patch_9">
    <path d="M 194.4 128.16 
L 194.4 77.76 
" style="fill:none;"/>
   </g>
   <g id="patch_10">
    <path d="M 27 122.72921 
L 194.4 122.72921 
" style="fill:none;stroke:#a9a9a9;stroke-linecap:square;stroke-linejoin:miter;stroke-width:2;"/>
   </g>
   <g id="patch_11">
    <path d="M 27 77.76 
L 194.4 77.76 
" style="fill:none;"/>
   </g>
  </g>
 </g>
 <defs>
  <clipPath id="p6ca75d2a4b">
   <rect height="50.4" width="167.4" x="27" y="17.28"/>
  </clipPath>
  <clipPath id="p4cc0d08d5c">
   <rect height="50.4" width="167.4" x="27" y="77.76"/>
  </clipPath>
 </defs>
</svg>
