<?xml version="1.0" encoding="utf-8" standalone="no"?>
<!DOCTYPE svg PUBLIC "-//W3C//DTD SVG 1.1//EN"
  "http://www.w3.org/Graphics/SVG/1.1/DTD/svg11.dtd">
<!-- Created with matplotlib (https://matplotlib.org/) -->
<svg height="144pt" version="1.1" viewBox="0 0 216 144" width="216pt" xmlns="http://www.w3.org/2000/svg" xmlns:xlink="http://www.w3.org/1999/xlink">
 <metadata>
  <rdf:RDF xmlns:cc="http://creativecommons.org/ns#" xmlns:dc="http://purl.org/dc/elements/1.1/" xmlns:rdf="http://www.w3.org/1999/02/22-rdf-syntax-ns#">
   <cc:Work>
    <dc:type rdf:resource="http://purl.org/dc/dcmitype/StillImage"/>
    <dc:date>2021-09-28T10:30:29.332572</dc:date>
    <dc:format>image/svg+xml</dc:format>
    <dc:creator>
     <cc:Agent>
      <dc:title>Matplotlib v3.3.2, https://matplotlib.org/</dc:title>
     </cc:Agent>
    </dc:creator>
   </cc:Work>
  </rdf:RDF>
 </metadata>
 <defs>
  <style type="text/css">*{stroke-linecap:butt;stroke-linejoin:round;}</style>
 </defs>
 <g id="figure_1">
  <g id="patch_1">
   <path d="M 0 144 
L 216 144 
L 216 0 
L 0 0 
z
" style="fill:none;"/>
  </g>
  <g id="axes_1">
   <g id="patch_2">
    <path d="M 27 67.68 
L 194.4 67.68 
L 194.4 17.28 
L 27 17.28 
z
" style="fill:none;"/>
   </g>
   <g id="PolyCollection_1">
    <path clip-path="url(#pdd4ece2e34)" d="M 27 51.502116 
L 27 51.502116 
L 30.416327 51.502116 
L 33.832653 51.502116 
L 37.24898 51.502116 
L 40.665306 51.502116 
L 44.081633 51.499678 
L 47.497959 51.498745 
L 50.914286 51.273714 
L 54.330612 50.024173 
L 57.746939 48.743908 
L 61.163265 49.122741 
L 64.579592 48.126481 
L 67.995918 45.383609 
L 71.412245 48.885277 
L 74.828571 43.649795 
L 78.244898 37.251976 
L 81.661224 34.838745 
L 85.077551 32.914997 
L 88.493878 28.678565 
L 91.910204 22.071055 
L 95.326531 30.069824 
L 98.742857 26.717646 
L 102.159184 26.595906 
L 105.57551 17.28 
L 108.991837 28.326082 
L 112.408163 30.4668 
L 115.82449 27.229608 
L 119.240816 27.554551 
L 122.657143 23.856461 
L 126.073469 34.251135 
L 129.489796 33.428309 
L 132.906122 34.229192 
L 136.322449 40.225751 
L 139.738776 37.698412 
L 143.155102 39.51087 
L 146.571429 41.650005 
L 149.987755 39.993022 
L 153.404082 43.366955 
L 156.820408 42.288547 
L 160.236735 44.597474 
L 163.653061 47.325913 
L 167.069388 49.682984 
L 170.485714 50.648539 
L 173.902041 51.441598 
L 177.318367 51.500512 
L 180.734694 51.500653 
L 184.15102 51.502116 
L 187.567347 51.502116 
L 190.983673 51.502116 
L 194.4 51.502116 
L 194.4 51.502116 
L 194.4 51.502116 
L 190.983673 51.502116 
L 187.567347 51.502116 
L 184.15102 51.502116 
L 180.734694 51.504066 
L 177.318367 51.504813 
L 173.902041 51.54696 
L 170.485714 52.599979 
L 167.069388 53.712108 
L 163.653061 54.120576 
L 160.236735 55.583962 
L 156.820408 57.159046 
L 153.404082 55.264814 
L 149.987755 57.66067 
L 146.571429 59.157198 
L 143.155102 61.182665 
L 139.738776 61.749902 
L 136.322449 60.293314 
L 132.906122 67.68 
L 129.489796 59.091982 
L 126.073469 62.152752 
L 122.657143 63.045913 
L 119.240816 66.98695 
L 115.82449 61.042965 
L 112.408163 53.858981 
L 108.991837 59.5157 
L 105.57551 63.199583 
L 102.159184 64.973212 
L 98.742857 59.020715 
L 95.326531 59.774366 
L 91.910204 60.97125 
L 88.493878 59.775319 
L 85.077551 58.981424 
L 81.661224 59.320036 
L 78.244898 58.741188 
L 74.828571 57.598402 
L 71.412245 53.447609 
L 67.995918 57.555817 
L 64.579592 55.395475 
L 61.163265 53.898608 
L 57.746939 53.301951 
L 54.330612 52.432087 
L 50.914286 51.675482 
L 47.497959 51.504121 
L 44.081633 51.503945 
L 40.665306 51.502116 
L 37.24898 51.502116 
L 33.832653 51.502116 
L 30.416327 51.502116 
L 27 51.502116 
z
" style="fill:#fc8d62;fill-opacity:0.5;"/>
   </g>
   <g id="matplotlib.axis_1">
    <g id="xtick_1">
     <g id="line2d_1">
      <defs>
       <path d="M 0 0 
L 0 3.5 
" id="m79addb67f5" style="stroke:#a9a9a9;stroke-width:2;"/>
      </defs>
      <g>
       <use style="fill:#a9a9a9;stroke:#a9a9a9;stroke-width:2;" x="44.081633" xlink:href="#m79addb67f5" y="51.502116"/>
      </g>
     </g>
    </g>
    <g id="xtick_2">
     <g id="line2d_2">
      <g>
       <use style="fill:#a9a9a9;stroke:#a9a9a9;stroke-width:2;" x="78.244898" xlink:href="#m79addb67f5" y="51.502116"/>
      </g>
     </g>
    </g>
    <g id="xtick_3">
     <g id="line2d_3">
      <g>
       <use style="fill:#a9a9a9;stroke:#a9a9a9;stroke-width:2;" x="112.408163" xlink:href="#m79addb67f5" y="51.502116"/>
      </g>
     </g>
    </g>
    <g id="xtick_4">
     <g id="line2d_4">
      <g>
       <use style="fill:#a9a9a9;stroke:#a9a9a9;stroke-width:2;" x="146.571429" xlink:href="#m79addb67f5" y="51.502116"/>
      </g>
     </g>
    </g>
    <g id="xtick_5">
     <g id="line2d_5">
      <g>
       <use style="fill:#a9a9a9;stroke:#a9a9a9;stroke-width:2;" x="180.734694" xlink:href="#m79addb67f5" y="51.502116"/>
      </g>
     </g>
    </g>
   </g>
   <g id="matplotlib.axis_2"/>
   <g id="line2d_6">
    <path clip-path="url(#pdd4ece2e34)" d="M 27 51.502116 
L 30.416327 51.502116 
L 33.832653 51.502116 
L 37.24898 51.502116 
L 40.665306 51.502116 
L 44.081633 51.501811 
L 47.497959 51.501433 
L 50.914286 51.474598 
L 54.330612 51.22813 
L 57.746939 51.022929 
L 61.163265 51.510674 
L 64.579592 51.760978 
L 67.995918 51.469713 
L 71.412245 51.166443 
L 74.828571 50.624098 
L 78.244898 47.996582 
L 81.661224 47.079391 
L 85.077551 45.948211 
L 88.493878 44.226942 
L 91.910204 41.521152 
L 95.326531 44.922095 
L 98.742857 42.86918 
L 102.159184 45.784559 
L 105.57551 40.239792 
L 108.991837 43.920891 
L 112.408163 42.162891 
L 115.82449 44.136287 
L 119.240816 47.270751 
L 122.657143 43.451187 
L 126.073469 48.201943 
L 129.489796 46.260146 
L 132.906122 50.954596 
L 136.322449 50.259532 
L 139.738776 49.724157 
L 143.155102 50.346767 
L 146.571429 50.403602 
L 149.987755 48.826846 
L 153.404082 49.315885 
L 156.820408 49.723796 
L 160.236735 50.090718 
L 163.653061 50.723245 
L 167.069388 51.697546 
L 170.485714 51.624259 
L 173.902041 51.494279 
L 177.318367 51.502663 
L 180.734694 51.50236 
L 184.15102 51.502116 
L 187.567347 51.502116 
L 190.983673 51.502116 
L 194.4 51.502116 
" style="fill:none;stroke:#fc8d62;stroke-linecap:square;stroke-width:2;"/>
   </g>
   <g id="line2d_7">
    <path clip-path="url(#pdd4ece2e34)" d="M 27 51.502116 
L 30.416327 51.502116 
L 33.832653 51.502116 
L 37.24898 51.502116 
L 40.665306 51.502116 
L 44.081633 51.502116 
L 47.497959 51.533018 
L 50.914286 51.372649 
L 54.330612 51.427537 
L 57.746939 51.067676 
L 61.163265 50.454447 
L 64.579592 50.673833 
L 67.995918 50.332348 
L 71.412245 49.97115 
L 74.828571 48.91015 
L 78.244898 48.867899 
L 81.661224 49.119623 
L 85.077551 46.55482 
L 88.493878 44.75348 
L 91.910204 44.045602 
L 95.326531 43.725793 
L 98.742857 40.239792 
L 102.159184 43.422338 
L 105.57551 43.40387 
L 108.991837 42.544553 
L 112.408163 40.904499 
L 115.82449 40.738836 
L 119.240816 40.879203 
L 122.657143 42.847266 
L 126.073469 46.173163 
L 129.489796 44.049211 
L 132.906122 45.831761 
L 136.322449 46.830742 
L 139.738776 46.263391 
L 143.155102 45.76328 
L 146.571429 47.678304 
L 149.987755 49.173946 
L 153.404082 49.55963 
L 156.820408 50.251313 
L 160.236735 50.607386 
L 163.653061 51.491987 
L 167.069388 51.388713 
L 170.485714 51.425074 
L 173.902041 51.569074 
L 177.318367 51.463263 
L 180.734694 51.502116 
L 184.15102 51.502116 
L 187.567347 51.502116 
L 190.983673 51.502116 
L 194.4 51.502116 
" style="fill:none;stroke:#fc8d62;stroke-dasharray:1.5,2.475;stroke-dashoffset:0;stroke-opacity:0.5;stroke-width:1.5;"/>
   </g>
   <g id="patch_3">
    <path d="M 112.408163 67.68 
L 112.408163 17.28 
" style="fill:none;stroke:#a9a9a9;stroke-linecap:square;stroke-linejoin:miter;stroke-width:2;"/>
   </g>
   <g id="patch_4">
    <path d="M 194.4 67.68 
L 194.4 17.28 
" style="fill:none;"/>
   </g>
   <g id="patch_5">
    <path d="M 27 51.502116 
L 194.4 51.502116 
" style="fill:none;stroke:#a9a9a9;stroke-linecap:square;stroke-linejoin:miter;stroke-width:2;"/>
   </g>
   <g id="patch_6">
    <path d="M 27 17.28 
L 194.4 17.28 
" style="fill:none;"/>
   </g>
   <g id="legend_1">
    <g id="line2d_8">
     <path d="M 152.47 26.448906 
L 166.47 26.448906 
" style="fill:none;stroke:#fc8d62;stroke-linecap:square;stroke-width:2;"/>
    </g>
    <g id="line2d_9"/>
    <g id="text_1">
     <!-- $\theta$ -->
     <g transform="translate(172.07 28.898906)scale(0.07 -0.07)">
      <defs>
       <path d="M 45.515625 34.671875 
L 14.453125 34.671875 
Q 12.359375 20.0625 14.5 13.875 
Q 17.1875 6.25 24.46875 6.25 
Q 31.78125 6.25 37.359375 13.921875 
Q 42.234375 20.65625 45.515625 34.671875 
z
M 47.015625 42.96875 
Q 48.34375 56.84375 46.625 61.71875 
Q 43.953125 69.4375 36.765625 69.4375 
Q 29.296875 69.4375 23.828125 61.8125 
Q 19.53125 55.671875 16.15625 42.96875 
z
M 38.1875 76.765625 
Q 49.90625 76.765625 54.59375 66.40625 
Q 59.28125 56.109375 55.71875 37.84375 
Q 52.203125 19.625 43.453125 9.28125 
Q 34.765625 -1.125 23.046875 -1.125 
Q 11.28125 -1.125 6.640625 9.28125 
Q 2 19.625 5.515625 37.84375 
Q 9.078125 56.109375 17.71875 66.40625 
Q 26.421875 76.765625 38.1875 76.765625 
z
" id="DejaVuSans-Oblique-952"/>
      </defs>
      <use transform="translate(0 0.234375)" xlink:href="#DejaVuSans-Oblique-952"/>
     </g>
    </g>
    <g id="line2d_10">
     <path d="M 152.47 36.723594 
L 166.47 36.723594 
" style="fill:none;stroke:#fc8d62;stroke-dasharray:1.5,2.475;stroke-dashoffset:0;stroke-opacity:0.5;stroke-width:1.5;"/>
    </g>
    <g id="line2d_11"/>
    <g id="text_2">
     <!-- No $\theta$ -->
     <g transform="translate(172.07 39.173594)scale(0.07 -0.07)">
      <defs>
       <path d="M 9.8125 72.90625 
L 23.09375 72.90625 
L 55.421875 11.921875 
L 55.421875 72.90625 
L 64.984375 72.90625 
L 64.984375 0 
L 51.703125 0 
L 19.390625 60.984375 
L 19.390625 0 
L 9.8125 0 
z
" id="DejaVuSans-78"/>
       <path d="M 30.609375 48.390625 
Q 23.390625 48.390625 19.1875 42.75 
Q 14.984375 37.109375 14.984375 27.296875 
Q 14.984375 17.484375 19.15625 11.84375 
Q 23.34375 6.203125 30.609375 6.203125 
Q 37.796875 6.203125 41.984375 11.859375 
Q 46.1875 17.53125 46.1875 27.296875 
Q 46.1875 37.015625 41.984375 42.703125 
Q 37.796875 48.390625 30.609375 48.390625 
z
M 30.609375 56 
Q 42.328125 56 49.015625 48.375 
Q 55.71875 40.765625 55.71875 27.296875 
Q 55.71875 13.875 49.015625 6.21875 
Q 42.328125 -1.421875 30.609375 -1.421875 
Q 18.84375 -1.421875 12.171875 6.21875 
Q 5.515625 13.875 5.515625 27.296875 
Q 5.515625 40.765625 12.171875 48.375 
Q 18.84375 56 30.609375 56 
z
" id="DejaVuSans-111"/>
       <path id="DejaVuSans-32"/>
      </defs>
      <use transform="translate(0 0.234375)" xlink:href="#DejaVuSans-78"/>
      <use transform="translate(74.804688 0.234375)" xlink:href="#DejaVuSans-111"/>
      <use transform="translate(135.986328 0.234375)" xlink:href="#DejaVuSans-32"/>
      <use transform="translate(167.773438 0.234375)" xlink:href="#DejaVuSans-Oblique-952"/>
     </g>
    </g>
   </g>
  </g>
  <g id="axes_2">
   <g id="patch_7">
    <path d="M 27 128.16 
L 194.4 128.16 
L 194.4 77.76 
L 27 77.76 
z
" style="fill:none;"/>
   </g>
   <g id="PolyCollection_2">
    <path clip-path="url(#pc3f02f9913)" d="M 27 122.58234 
L 27 122.57668 
L 30.416327 122.578115 
L 33.832653 122.57864 
L 37.24898 122.578762 
L 40.665306 122.578777 
L 44.081633 122.578751 
L 47.497959 122.56014 
L 50.914286 122.438665 
L 54.330612 122.123563 
L 57.746939 121.539255 
L 61.163265 120.629112 
L 64.579592 119.358184 
L 67.995918 117.714597 
L 71.412245 115.710563 
L 74.828571 113.381807 
L 78.244898 110.785836 
L 81.661224 107.999065 
L 85.077551 105.112306 
L 88.493878 102.226104 
L 91.910204 99.446442 
L 95.326531 96.880495 
L 98.742857 94.632368 
L 102.159184 92.798876 
L 105.57551 91.465491 
L 108.991837 90.702562 
L 112.408163 77.76 
L 115.82449 91.063869 
L 119.240816 92.170943 
L 122.657143 93.81698 
L 126.073469 95.919933 
L 129.489796 98.385508 
L 132.906122 101.111012 
L 136.322449 103.989357 
L 139.738776 106.913121 
L 143.155102 109.7786 
L 146.571429 112.489811 
L 149.987755 114.962606 
L 153.404082 117.129374 
L 156.820408 118.943428 
L 160.236735 120.380953 
L 163.653061 121.441117 
L 167.069388 122.141233 
L 170.485714 122.465601 
L 173.902041 122.483984 
L 177.318367 122.494824 
L 180.734694 122.520892 
L 184.15102 122.542804 
L 187.567347 122.557945 
L 190.983673 122.567738 
L 194.4 122.573566 
L 194.4 122.5882 
L 194.4 122.5882 
L 190.983673 122.59996 
L 187.567347 122.621096 
L 184.15102 122.656023 
L 180.734694 122.710007 
L 177.318367 122.773749 
L 173.902041 122.775885 
L 170.485714 122.676795 
L 167.069388 122.717118 
L 163.653061 122.916256 
L 160.236735 123.218341 
L 156.820408 123.61321 
L 153.404082 124.087335 
L 149.987755 124.620535 
L 146.571429 125.18698 
L 143.155102 125.757283 
L 139.738776 126.302253 
L 136.322449 126.796236 
L 132.906122 127.219246 
L 129.489796 127.558368 
L 126.073469 127.8087 
L 122.657143 127.973936 
L 119.240816 128.066608 
L 115.82449 128.108114 
L 112.408163 115.326756 
L 108.991837 128.153385 
L 105.57551 128.16 
L 102.159184 128.11866 
L 98.742857 128.007158 
L 95.326531 127.811163 
L 91.910204 127.524415 
L 88.493878 127.148727 
L 85.077551 126.693705 
L 81.661224 126.176123 
L 78.244898 125.618857 
L 74.828571 125.04915 
L 71.412245 124.495804 
L 67.995918 123.985787 
L 64.579592 123.541743 
L 61.163265 123.179895 
L 57.746939 122.908443 
L 54.330612 122.726928 
L 50.914286 122.625499 
L 47.497959 122.585155 
L 44.081633 122.578791 
L 40.665306 122.578777 
L 37.24898 122.578798 
L 33.832653 122.578983 
L 30.416327 122.579832 
L 27 122.58234 
z
" style="fill:#66c2a5;fill-opacity:0.5;"/>
   </g>
   <g id="matplotlib.axis_3">
    <g id="xtick_6">
     <g id="line2d_12">
      <g>
       <use style="fill:#a9a9a9;stroke:#a9a9a9;stroke-width:2;" x="44.081633" xlink:href="#m79addb67f5" y="122.578777"/>
      </g>
     </g>
    </g>
    <g id="xtick_7">
     <g id="line2d_13">
      <g>
       <use style="fill:#a9a9a9;stroke:#a9a9a9;stroke-width:2;" x="78.244898" xlink:href="#m79addb67f5" y="122.578777"/>
      </g>
     </g>
    </g>
    <g id="xtick_8">
     <g id="line2d_14">
      <g>
       <use style="fill:#a9a9a9;stroke:#a9a9a9;stroke-width:2;" x="112.408163" xlink:href="#m79addb67f5" y="122.578777"/>
      </g>
     </g>
    </g>
    <g id="xtick_9">
     <g id="line2d_15">
      <g>
       <use style="fill:#a9a9a9;stroke:#a9a9a9;stroke-width:2;" x="146.571429" xlink:href="#m79addb67f5" y="122.578777"/>
      </g>
     </g>
    </g>
    <g id="xtick_10">
     <g id="line2d_16">
      <g>
       <use style="fill:#a9a9a9;stroke:#a9a9a9;stroke-width:2;" x="180.734694" xlink:href="#m79addb67f5" y="122.578777"/>
      </g>
     </g>
    </g>
   </g>
   <g id="matplotlib.axis_4"/>
   <g id="line2d_17">
    <path clip-path="url(#pc3f02f9913)" d="M 27 122.57951 
L 30.416327 122.578974 
L 33.832653 122.578811 
L 37.24898 122.57878 
L 40.665306 122.578777 
L 44.081633 122.578771 
L 47.497959 122.572647 
L 50.914286 122.532082 
L 54.330612 122.425246 
L 57.746939 122.223849 
L 61.163265 121.904504 
L 64.579592 121.449963 
L 67.995918 120.850192 
L 71.412245 120.103183 
L 74.828571 119.215478 
L 78.244898 118.202346 
L 81.661224 117.087594 
L 85.077551 115.903005 
L 88.493878 114.687416 
L 91.910204 113.485429 
L 95.326531 112.345829 
L 98.742857 111.319763 
L 102.159184 110.458768 
L 105.57551 109.812746 
L 108.991837 109.427974 
L 112.408163 96.543378 
L 115.82449 109.585991 
L 119.240816 110.118775 
L 122.657143 110.895458 
L 126.073469 111.864317 
L 129.489796 112.971938 
L 132.906122 114.165129 
L 136.322449 115.392796 
L 139.738776 116.607687 
L 143.155102 117.767942 
L 146.571429 118.838396 
L 149.987755 119.791571 
L 153.404082 120.608355 
L 156.820408 121.278319 
L 160.236735 121.799647 
L 163.653061 122.178686 
L 167.069388 122.429175 
L 170.485714 122.571198 
L 173.902041 122.629934 
L 177.318367 122.634287 
L 180.734694 122.615449 
L 184.15102 122.599413 
L 187.567347 122.589521 
L 190.983673 122.583849 
L 194.4 122.580883 
" style="fill:none;stroke:#66c2a5;stroke-linecap:square;stroke-width:2;"/>
   </g>
   <g id="patch_8">
    <path d="M 112.408163 128.16 
L 112.408163 77.76 
" style="fill:none;stroke:#a9a9a9;stroke-linecap:square;stroke-linejoin:miter;stroke-width:2;"/>
   </g>
   <g id="patch_9">
    <path d="M 194.4 128.16 
L 194.4 77.76 
" style="fill:none;"/>
   </g>
   <g id="patch_10">
    <path d="M 27 122.578777 
L 194.4 122.578777 
" style="fill:none;stroke:#a9a9a9;stroke-linecap:square;stroke-linejoin:miter;stroke-width:2;"/>
   </g>
   <g id="patch_11">
    <path d="M 27 77.76 
L 194.4 77.76 
" style="fill:none;"/>
   </g>
  </g>
 </g>
 <defs>
  <clipPath id="pdd4ece2e34">
   <rect height="50.4" width="167.4" x="27" y="17.28"/>
  </clipPath>
  <clipPath id="pc3f02f9913">
   <rect height="50.4" width="167.4" x="27" y="77.76"/>
  </clipPath>
 </defs>
</svg>
