<?xml version="1.0" encoding="utf-8" standalone="no"?>
<!DOCTYPE svg PUBLIC "-//W3C//DTD SVG 1.1//EN"
  "http://www.w3.org/Graphics/SVG/1.1/DTD/svg11.dtd">
<!-- Created with matplotlib (https://matplotlib.org/) -->
<svg height="144pt" version="1.1" viewBox="0 0 216 144" width="216pt" xmlns="http://www.w3.org/2000/svg" xmlns:xlink="http://www.w3.org/1999/xlink">
 <metadata>
  <rdf:RDF xmlns:cc="http://creativecommons.org/ns#" xmlns:dc="http://purl.org/dc/elements/1.1/" xmlns:rdf="http://www.w3.org/1999/02/22-rdf-syntax-ns#">
   <cc:Work>
    <dc:type rdf:resource="http://purl.org/dc/dcmitype/StillImage"/>
    <dc:date>2021-09-28T10:30:33.221046</dc:date>
    <dc:format>image/svg+xml</dc:format>
    <dc:creator>
     <cc:Agent>
      <dc:title>Matplotlib v3.3.2, https://matplotlib.org/</dc:title>
     </cc:Agent>
    </dc:creator>
   </cc:Work>
  </rdf:RDF>
 </metadata>
 <defs>
  <style type="text/css">*{stroke-linecap:butt;stroke-linejoin:round;}</style>
 </defs>
 <g id="figure_1">
  <g id="patch_1">
   <path d="M 0 144 
L 216 144 
L 216 0 
L 0 0 
z
" style="fill:none;"/>
  </g>
  <g id="axes_1">
   <g id="patch_2">
    <path d="M 27 67.68 
L 194.4 67.68 
L 194.4 17.28 
L 27 17.28 
z
" style="fill:none;"/>
   </g>
   <g id="PolyCollection_1">
    <path clip-path="url(#pf260ddff9e)" d="M 27 54.075751 
L 27 54.075751 
L 30.416327 54.075751 
L 33.832653 54.075751 
L 37.24898 54.075751 
L 40.665306 54.075751 
L 44.081633 54.074831 
L 47.497959 54.056018 
L 50.914286 52.688507 
L 54.330612 52.419823 
L 57.746939 51.660901 
L 61.163265 51.743932 
L 64.579592 50.060678 
L 67.995918 49.598779 
L 71.412245 45.822775 
L 74.828571 47.376042 
L 78.244898 41.727294 
L 81.661224 38.502468 
L 85.077551 36.847025 
L 88.493878 36.983304 
L 91.910204 23.55622 
L 95.326531 23.297149 
L 98.742857 24.9322 
L 102.159184 28.246235 
L 105.57551 25.048134 
L 108.991837 17.28 
L 112.408163 30.841763 
L 115.82449 37.668554 
L 119.240816 26.397257 
L 122.657143 28.611668 
L 126.073469 35.917281 
L 129.489796 39.150784 
L 132.906122 37.122865 
L 136.322449 38.600804 
L 139.738776 41.166458 
L 143.155102 46.012 
L 146.571429 46.645968 
L 149.987755 44.30421 
L 153.404082 46.802288 
L 156.820408 44.660738 
L 160.236735 49.54875 
L 163.653061 50.239557 
L 167.069388 51.88682 
L 170.485714 52.7659 
L 173.902041 53.442168 
L 177.318367 54.064256 
L 180.734694 54.075199 
L 184.15102 54.075751 
L 187.567347 54.075751 
L 190.983673 54.075751 
L 194.4 54.075751 
L 194.4 54.075751 
L 194.4 54.075751 
L 190.983673 54.075751 
L 187.567347 54.075751 
L 184.15102 54.075751 
L 180.734694 54.076487 
L 177.318367 54.091537 
L 173.902041 55.163191 
L 170.485714 55.518043 
L 167.069388 55.994014 
L 163.653061 56.388694 
L 160.236735 57.280097 
L 156.820408 59.014155 
L 153.404082 59.302256 
L 149.987755 59.426362 
L 146.571429 59.06674 
L 143.155102 59.540096 
L 139.738776 61.684329 
L 136.322449 62.067566 
L 132.906122 67.68 
L 129.489796 64.129342 
L 126.073469 64.868884 
L 122.657143 65.266793 
L 119.240816 66.590962 
L 115.82449 64.30692 
L 112.408163 57.239293 
L 108.991837 62.756447 
L 105.57551 66.265078 
L 102.159184 63.561835 
L 98.742857 62.715674 
L 95.326531 63.528689 
L 91.910204 66.196502 
L 88.493878 60.109061 
L 85.077551 61.516359 
L 81.661224 59.829454 
L 78.244898 59.338468 
L 74.828571 58.070562 
L 71.412245 59.528043 
L 67.995918 59.264098 
L 64.579592 57.320319 
L 61.163265 56.685035 
L 57.746939 56.159918 
L 54.330612 55.393449 
L 50.914286 54.88429 
L 47.497959 54.090119 
L 44.081633 54.076441 
L 40.665306 54.075751 
L 37.24898 54.075751 
L 33.832653 54.075751 
L 30.416327 54.075751 
L 27 54.075751 
z
" style="fill:#fc8d62;fill-opacity:0.5;"/>
   </g>
   <g id="matplotlib.axis_1">
    <g id="xtick_1">
     <g id="line2d_1">
      <defs>
       <path d="M 0 0 
L 0 3.5 
" id="m4e7cc7fdf3" style="stroke:#a9a9a9;stroke-width:2;"/>
      </defs>
      <g>
       <use style="fill:#a9a9a9;stroke:#a9a9a9;stroke-width:2;" x="44.081633" xlink:href="#m4e7cc7fdf3" y="54.075751"/>
      </g>
     </g>
    </g>
    <g id="xtick_2">
     <g id="line2d_2">
      <g>
       <use style="fill:#a9a9a9;stroke:#a9a9a9;stroke-width:2;" x="78.244898" xlink:href="#m4e7cc7fdf3" y="54.075751"/>
      </g>
     </g>
    </g>
    <g id="xtick_3">
     <g id="line2d_3">
      <g>
       <use style="fill:#a9a9a9;stroke:#a9a9a9;stroke-width:2;" x="112.408163" xlink:href="#m4e7cc7fdf3" y="54.075751"/>
      </g>
     </g>
    </g>
    <g id="xtick_4">
     <g id="line2d_4">
      <g>
       <use style="fill:#a9a9a9;stroke:#a9a9a9;stroke-width:2;" x="146.571429" xlink:href="#m4e7cc7fdf3" y="54.075751"/>
      </g>
     </g>
    </g>
    <g id="xtick_5">
     <g id="line2d_5">
      <g>
       <use style="fill:#a9a9a9;stroke:#a9a9a9;stroke-width:2;" x="180.734694" xlink:href="#m4e7cc7fdf3" y="54.075751"/>
      </g>
     </g>
    </g>
   </g>
   <g id="matplotlib.axis_2"/>
   <g id="line2d_6">
    <path clip-path="url(#pf260ddff9e)" d="M 27 54.075751 
L 30.416327 54.075751 
L 33.832653 54.075751 
L 37.24898 54.075751 
L 40.665306 54.075751 
L 44.081633 54.075636 
L 47.497959 54.073069 
L 50.914286 53.786398 
L 54.330612 53.906636 
L 57.746939 53.91041 
L 61.163265 54.214483 
L 64.579592 53.690499 
L 67.995918 54.431439 
L 71.412245 52.675409 
L 74.828571 52.723302 
L 78.244898 50.532881 
L 81.661224 49.165961 
L 85.077551 49.181692 
L 88.493878 48.546183 
L 91.910204 44.876361 
L 95.326531 43.412919 
L 98.742857 43.823937 
L 102.159184 45.904035 
L 105.57551 45.656606 
L 108.991837 40.018224 
L 112.408163 44.040528 
L 115.82449 50.987737 
L 119.240816 46.494109 
L 122.657143 46.939231 
L 126.073469 50.393082 
L 129.489796 51.640063 
L 132.906122 52.401433 
L 136.322449 50.334185 
L 139.738776 51.425394 
L 143.155102 52.776048 
L 146.571429 52.856354 
L 149.987755 51.865286 
L 153.404082 53.052272 
L 156.820408 51.837447 
L 160.236735 53.414424 
L 163.653061 53.314125 
L 167.069388 53.940417 
L 170.485714 54.141971 
L 173.902041 54.302679 
L 177.318367 54.077897 
L 180.734694 54.075843 
L 184.15102 54.075751 
L 187.567347 54.075751 
L 190.983673 54.075751 
L 194.4 54.075751 
" style="fill:none;stroke:#fc8d62;stroke-linecap:square;stroke-width:2;"/>
   </g>
   <g id="line2d_7">
    <path clip-path="url(#pf260ddff9e)" d="M 27 54.075751 
L 30.416327 54.075751 
L 33.832653 54.075751 
L 37.24898 54.075751 
L 40.665306 54.075751 
L 44.081633 54.075751 
L 47.497959 54.063832 
L 50.914286 54.068016 
L 54.330612 54.166949 
L 57.746939 53.88514 
L 61.163265 52.598905 
L 64.579592 52.460014 
L 67.995918 52.928859 
L 71.412245 52.210195 
L 74.828571 50.874317 
L 78.244898 47.890524 
L 81.661224 47.589657 
L 85.077551 50.357027 
L 88.493878 45.032368 
L 91.910204 47.336809 
L 95.326531 44.387454 
L 98.742857 42.49253 
L 102.159184 42.450433 
L 105.57551 42.93258 
L 108.991837 42.427716 
L 112.408163 40.556136 
L 115.82449 40.018224 
L 119.240816 40.112093 
L 122.657143 42.418487 
L 126.073469 44.105567 
L 129.489796 44.483761 
L 132.906122 43.315702 
L 136.322449 48.21764 
L 139.738776 45.602395 
L 143.155102 50.385642 
L 146.571429 52.384443 
L 149.987755 50.932737 
L 153.404082 51.616214 
L 156.820408 52.244291 
L 160.236735 53.953484 
L 163.653061 54.286259 
L 167.069388 53.676568 
L 170.485714 53.801761 
L 173.902041 54.037569 
L 177.318367 54.085286 
L 180.734694 54.075751 
L 184.15102 54.075751 
L 187.567347 54.075751 
L 190.983673 54.075751 
L 194.4 54.075751 
" style="fill:none;stroke:#fc8d62;stroke-dasharray:1.5,2.475;stroke-dashoffset:0;stroke-opacity:0.5;stroke-width:1.5;"/>
   </g>
   <g id="patch_3">
    <path d="M 112.408163 67.68 
L 112.408163 17.28 
" style="fill:none;stroke:#a9a9a9;stroke-linecap:square;stroke-linejoin:miter;stroke-width:2;"/>
   </g>
   <g id="patch_4">
    <path d="M 194.4 67.68 
L 194.4 17.28 
" style="fill:none;"/>
   </g>
   <g id="patch_5">
    <path d="M 27 54.075751 
L 194.4 54.075751 
" style="fill:none;stroke:#a9a9a9;stroke-linecap:square;stroke-linejoin:miter;stroke-width:2;"/>
   </g>
   <g id="patch_6">
    <path d="M 27 17.28 
L 194.4 17.28 
" style="fill:none;"/>
   </g>
   <g id="legend_1">
    <g id="line2d_8">
     <path d="M 152.47 26.448906 
L 166.47 26.448906 
" style="fill:none;stroke:#fc8d62;stroke-linecap:square;stroke-width:2;"/>
    </g>
    <g id="line2d_9"/>
    <g id="text_1">
     <!-- $\theta$ -->
     <g transform="translate(172.07 28.898906)scale(0.07 -0.07)">
      <defs>
       <path d="M 45.515625 34.671875 
L 14.453125 34.671875 
Q 12.359375 20.0625 14.5 13.875 
Q 17.1875 6.25 24.46875 6.25 
Q 31.78125 6.25 37.359375 13.921875 
Q 42.234375 20.65625 45.515625 34.671875 
z
M 47.015625 42.96875 
Q 48.34375 56.84375 46.625 61.71875 
Q 43.953125 69.4375 36.765625 69.4375 
Q 29.296875 69.4375 23.828125 61.8125 
Q 19.53125 55.671875 16.15625 42.96875 
z
M 38.1875 76.765625 
Q 49.90625 76.765625 54.59375 66.40625 
Q 59.28125 56.109375 55.71875 37.84375 
Q 52.203125 19.625 43.453125 9.28125 
Q 34.765625 -1.125 23.046875 -1.125 
Q 11.28125 -1.125 6.640625 9.28125 
Q 2 19.625 5.515625 37.84375 
Q 9.078125 56.109375 17.71875 66.40625 
Q 26.421875 76.765625 38.1875 76.765625 
z
" id="DejaVuSans-Oblique-952"/>
      </defs>
      <use transform="translate(0 0.234375)" xlink:href="#DejaVuSans-Oblique-952"/>
     </g>
    </g>
    <g id="line2d_10">
     <path d="M 152.47 36.723594 
L 166.47 36.723594 
" style="fill:none;stroke:#fc8d62;stroke-dasharray:1.5,2.475;stroke-dashoffset:0;stroke-opacity:0.5;stroke-width:1.5;"/>
    </g>
    <g id="line2d_11"/>
    <g id="text_2">
     <!-- No $\theta$ -->
     <g transform="translate(172.07 39.173594)scale(0.07 -0.07)">
      <defs>
       <path d="M 9.8125 72.90625 
L 23.09375 72.90625 
L 55.421875 11.921875 
L 55.421875 72.90625 
L 64.984375 72.90625 
L 64.984375 0 
L 51.703125 0 
L 19.390625 60.984375 
L 19.390625 0 
L 9.8125 0 
z
" id="DejaVuSans-78"/>
       <path d="M 30.609375 48.390625 
Q 23.390625 48.390625 19.1875 42.75 
Q 14.984375 37.109375 14.984375 27.296875 
Q 14.984375 17.484375 19.15625 11.84375 
Q 23.34375 6.203125 30.609375 6.203125 
Q 37.796875 6.203125 41.984375 11.859375 
Q 46.1875 17.53125 46.1875 27.296875 
Q 46.1875 37.015625 41.984375 42.703125 
Q 37.796875 48.390625 30.609375 48.390625 
z
M 30.609375 56 
Q 42.328125 56 49.015625 48.375 
Q 55.71875 40.765625 55.71875 27.296875 
Q 55.71875 13.875 49.015625 6.21875 
Q 42.328125 -1.421875 30.609375 -1.421875 
Q 18.84375 -1.421875 12.171875 6.21875 
Q 5.515625 13.875 5.515625 27.296875 
Q 5.515625 40.765625 12.171875 48.375 
Q 18.84375 56 30.609375 56 
z
" id="DejaVuSans-111"/>
       <path id="DejaVuSans-32"/>
      </defs>
      <use transform="translate(0 0.234375)" xlink:href="#DejaVuSans-78"/>
      <use transform="translate(74.804688 0.234375)" xlink:href="#DejaVuSans-111"/>
      <use transform="translate(135.986328 0.234375)" xlink:href="#DejaVuSans-32"/>
      <use transform="translate(167.773438 0.234375)" xlink:href="#DejaVuSans-Oblique-952"/>
     </g>
    </g>
   </g>
  </g>
  <g id="axes_2">
   <g id="patch_7">
    <path d="M 27 128.16 
L 194.4 128.16 
L 194.4 77.76 
L 27 77.76 
z
" style="fill:none;"/>
   </g>
   <g id="PolyCollection_2">
    <path clip-path="url(#pf38fc8ce0f)" d="M 27 122.663527 
L 27 122.65733 
L 30.416327 122.658877 
L 33.832653 122.659454 
L 37.24898 122.659598 
L 40.665306 122.659618 
L 44.081633 122.659589 
L 47.497959 122.640489 
L 50.914286 122.518464 
L 54.330612 122.203706 
L 57.746939 121.620821 
L 61.163265 120.713454 
L 64.579592 119.447349 
L 67.995918 117.809699 
L 71.412245 115.811489 
L 74.828571 113.487663 
L 78.244898 110.895234 
L 81.661224 108.110414 
L 85.077551 105.224091 
L 88.493878 102.337043 
L 91.910204 99.555564 
L 95.326531 96.987184 
L 98.742857 94.736384 
L 102.159184 92.900374 
L 105.57551 91.565026 
L 108.991837 90.801095 
L 112.408163 77.76 
L 115.82449 91.164622 
L 119.240816 92.27486 
L 122.657143 93.924903 
L 126.073469 96.032227 
L 129.489796 98.502065 
L 132.906122 101.231246 
L 136.322449 104.112246 
L 139.738776 107.037265 
L 143.155102 109.902284 
L 146.571429 112.611097 
L 149.987755 115.079516 
L 153.404082 117.240208 
L 156.820408 119.047017 
L 160.236735 120.476856 
L 163.653061 121.530018 
L 167.069388 122.223821 
L 170.485714 122.539261 
L 173.902041 122.56108 
L 177.318367 122.573319 
L 180.734694 122.599454 
L 184.15102 122.62188 
L 187.567347 122.637579 
L 190.983673 122.647856 
L 194.4 122.65402 
L 194.4 122.6698 
L 194.4 122.6698 
L 190.983673 122.682293 
L 187.567347 122.704515 
L 184.15102 122.740799 
L 180.734694 122.796264 
L 177.318367 122.860795 
L 173.902041 122.86496 
L 170.485714 122.769669 
L 167.069388 122.800987 
L 163.653061 122.993143 
L 160.236735 123.28684 
L 156.820408 123.67182 
L 153.404082 124.135623 
L 149.987755 124.658783 
L 146.571429 125.216034 
L 143.155102 125.778348 
L 139.738776 126.316625 
L 136.322449 126.805174 
L 132.906122 127.223945 
L 129.489796 127.559945 
L 126.073469 127.80821 
L 122.657143 127.972358 
L 119.240816 128.064775 
L 115.82449 128.106646 
L 112.408163 115.227088 
L 108.991837 128.152904 
L 105.57551 128.16 
L 102.159184 128.119552 
L 98.742857 128.009528 
L 95.326531 127.815744 
L 91.910204 127.532069 
L 88.493878 127.160427 
L 85.077551 126.710521 
L 81.661224 126.199202 
L 78.244898 125.649371 
L 74.828571 125.088174 
L 71.412245 124.544078 
L 67.995918 124.043479 
L 64.579592 123.608212 
L 61.163265 123.253308 
L 57.746939 122.986125 
L 54.330612 122.807039 
L 50.914286 122.706608 
L 47.497959 122.666147 
L 44.081633 122.659633 
L 40.665306 122.659618 
L 37.24898 122.659645 
L 33.832653 122.659864 
L 30.416327 122.660805 
L 27 122.663527 
z
" style="fill:#66c2a5;fill-opacity:0.5;"/>
   </g>
   <g id="matplotlib.axis_3">
    <g id="xtick_6">
     <g id="line2d_12">
      <g>
       <use style="fill:#a9a9a9;stroke:#a9a9a9;stroke-width:2;" x="44.081633" xlink:href="#m4e7cc7fdf3" y="122.659618"/>
      </g>
     </g>
    </g>
    <g id="xtick_7">
     <g id="line2d_13">
      <g>
       <use style="fill:#a9a9a9;stroke:#a9a9a9;stroke-width:2;" x="78.244898" xlink:href="#m4e7cc7fdf3" y="122.659618"/>
      </g>
     </g>
    </g>
    <g id="xtick_8">
     <g id="line2d_14">
      <g>
       <use style="fill:#a9a9a9;stroke:#a9a9a9;stroke-width:2;" x="112.408163" xlink:href="#m4e7cc7fdf3" y="122.659618"/>
      </g>
     </g>
    </g>
    <g id="xtick_9">
     <g id="line2d_15">
      <g>
       <use style="fill:#a9a9a9;stroke:#a9a9a9;stroke-width:2;" x="146.571429" xlink:href="#m4e7cc7fdf3" y="122.659618"/>
      </g>
     </g>
    </g>
    <g id="xtick_10">
     <g id="line2d_16">
      <g>
       <use style="fill:#a9a9a9;stroke:#a9a9a9;stroke-width:2;" x="180.734694" xlink:href="#m4e7cc7fdf3" y="122.659618"/>
      </g>
     </g>
    </g>
   </g>
   <g id="matplotlib.axis_4"/>
   <g id="line2d_17">
    <path clip-path="url(#pf38fc8ce0f)" d="M 27 122.660428 
L 30.416327 122.659841 
L 33.832653 122.659659 
L 37.24898 122.659622 
L 40.665306 122.659618 
L 44.081633 122.659611 
L 47.497959 122.653318 
L 50.914286 122.612536 
L 54.330612 122.505373 
L 57.746939 122.303473 
L 61.163265 121.983381 
L 64.579592 121.527781 
L 67.995918 120.926589 
L 71.412245 120.177784 
L 74.828571 119.287918 
L 78.244898 118.272303 
L 81.661224 117.154808 
L 85.077551 115.967306 
L 88.493878 114.748735 
L 91.910204 113.543817 
L 95.326531 112.401464 
L 98.742857 111.372956 
L 102.159184 110.509963 
L 105.57551 109.862513 
L 108.991837 109.477 
L 112.408163 96.493544 
L 115.82449 109.635634 
L 119.240816 110.169818 
L 122.657143 110.94863 
L 126.073469 111.920219 
L 129.489796 113.031005 
L 132.906122 114.227596 
L 136.322449 115.45871 
L 139.738776 116.676945 
L 143.155102 117.840316 
L 146.571429 118.913566 
L 149.987755 119.869149 
L 153.404082 120.687915 
L 156.820408 121.359418 
L 160.236735 121.881848 
L 163.653061 122.261581 
L 167.069388 122.512404 
L 170.485714 122.654465 
L 173.902041 122.71302 
L 177.318367 122.717057 
L 180.734694 122.697859 
L 184.15102 122.681339 
L 187.567347 122.671047 
L 190.983673 122.665074 
L 194.4 122.66191 
" style="fill:none;stroke:#66c2a5;stroke-linecap:square;stroke-width:2;"/>
   </g>
   <g id="patch_8">
    <path d="M 112.408163 128.16 
L 112.408163 77.76 
" style="fill:none;stroke:#a9a9a9;stroke-linecap:square;stroke-linejoin:miter;stroke-width:2;"/>
   </g>
   <g id="patch_9">
    <path d="M 194.4 128.16 
L 194.4 77.76 
" style="fill:none;"/>
   </g>
   <g id="patch_10">
    <path d="M 27 122.659618 
L 194.4 122.659618 
" style="fill:none;stroke:#a9a9a9;stroke-linecap:square;stroke-linejoin:miter;stroke-width:2;"/>
   </g>
   <g id="patch_11">
    <path d="M 27 77.76 
L 194.4 77.76 
" style="fill:none;"/>
   </g>
  </g>
 </g>
 <defs>
  <clipPath id="pf260ddff9e">
   <rect height="50.4" width="167.4" x="27" y="17.28"/>
  </clipPath>
  <clipPath id="pf38fc8ce0f">
   <rect height="50.4" width="167.4" x="27" y="77.76"/>
  </clipPath>
 </defs>
</svg>
