<?xml version="1.0" encoding="utf-8" standalone="no"?>
<!DOCTYPE svg PUBLIC "-//W3C//DTD SVG 1.1//EN"
  "http://www.w3.org/Graphics/SVG/1.1/DTD/svg11.dtd">
<!-- Created with matplotlib (https://matplotlib.org/) -->
<svg height="144pt" version="1.1" viewBox="0 0 216 144" width="216pt" xmlns="http://www.w3.org/2000/svg" xmlns:xlink="http://www.w3.org/1999/xlink">
 <metadata>
  <rdf:RDF xmlns:cc="http://creativecommons.org/ns#" xmlns:dc="http://purl.org/dc/elements/1.1/" xmlns:rdf="http://www.w3.org/1999/02/22-rdf-syntax-ns#">
   <cc:Work>
    <dc:type rdf:resource="http://purl.org/dc/dcmitype/StillImage"/>
    <dc:date>2021-09-28T11:41:42.483751</dc:date>
    <dc:format>image/svg+xml</dc:format>
    <dc:creator>
     <cc:Agent>
      <dc:title>Matplotlib v3.3.2, https://matplotlib.org/</dc:title>
     </cc:Agent>
    </dc:creator>
   </cc:Work>
  </rdf:RDF>
 </metadata>
 <defs>
  <style type="text/css">*{stroke-linecap:butt;stroke-linejoin:round;}</style>
 </defs>
 <g id="figure_1">
  <g id="patch_1">
   <path d="M 0 144 
L 216 144 
L 216 0 
L 0 0 
z
" style="fill:none;"/>
  </g>
  <g id="axes_1">
   <g id="patch_2">
    <path d="M 27 67.68 
L 194.4 67.68 
L 194.4 17.28 
L 27 17.28 
z
" style="fill:none;"/>
   </g>
   <g id="PolyCollection_1">
    <path clip-path="url(#p9582ff9cf7)" d="M 27 61.914697 
L 27 61.914697 
L 30.416327 61.914697 
L 33.832653 61.914697 
L 37.24898 61.914697 
L 40.665306 61.914697 
L 44.081633 61.913446 
L 47.497959 61.763582 
L 50.914286 61.487086 
L 54.330612 61.125717 
L 57.746939 60.395413 
L 61.163265 59.671173 
L 64.579592 58.717313 
L 67.995918 57.170379 
L 71.412245 54.629762 
L 74.828571 50.662522 
L 78.244898 45.181281 
L 81.661224 40.767585 
L 85.077551 34.651184 
L 88.493878 30.491348 
L 91.910204 23.636494 
L 95.326531 19.294333 
L 98.742857 17.703412 
L 102.159184 17.28 
L 105.57551 19.581827 
L 108.991837 26.639193 
L 112.408163 36.329732 
L 115.82449 40.200658 
L 119.240816 47.088724 
L 122.657143 50.917151 
L 126.073469 57.201309 
L 129.489796 59.495366 
L 132.906122 58.875287 
L 136.322449 58.915134 
L 139.738776 59.16651 
L 143.155102 58.051078 
L 146.571429 57.475011 
L 149.987755 57.279254 
L 153.404082 56.877458 
L 156.820408 57.839884 
L 160.236735 58.43989 
L 163.653061 59.780946 
L 167.069388 60.767295 
L 170.485714 61.306989 
L 173.902041 61.651886 
L 177.318367 61.84354 
L 180.734694 61.914331 
L 184.15102 61.914697 
L 187.567347 61.914697 
L 190.983673 61.914697 
L 194.4 61.914697 
L 194.4 61.914697 
L 194.4 61.914697 
L 190.983673 61.914697 
L 187.567347 61.914697 
L 184.15102 61.914697 
L 180.734694 61.915823 
L 177.318367 62.046834 
L 173.902041 62.182795 
L 170.485714 62.224214 
L 167.069388 62.277065 
L 163.653061 61.937727 
L 160.236735 61.320478 
L 156.820408 60.766612 
L 153.404082 60.877426 
L 149.987755 61.547261 
L 146.571429 63.560342 
L 143.155102 63.843905 
L 139.738776 65.571781 
L 136.322449 65.335917 
L 132.906122 67.68 
L 129.489796 67.563557 
L 126.073469 64.971607 
L 122.657143 62.033283 
L 119.240816 57.116447 
L 115.82449 48.173063 
L 112.408163 38.04299 
L 108.991837 35.043102 
L 105.57551 29.864488 
L 102.159184 28.45956 
L 98.742857 25.983976 
L 95.326531 27.60926 
L 91.910204 32.542994 
L 88.493878 37.056501 
L 85.077551 41.285821 
L 81.661224 46.698881 
L 78.244898 51.12417 
L 74.828571 55.027047 
L 71.412245 58.486132 
L 67.995918 60.152417 
L 64.579592 61.619703 
L 61.163265 61.763057 
L 57.746939 61.884883 
L 54.330612 62.008554 
L 50.914286 62.026825 
L 47.497959 61.967234 
L 44.081633 61.915104 
L 40.665306 61.914697 
L 37.24898 61.914697 
L 33.832653 61.914697 
L 30.416327 61.914697 
L 27 61.914697 
z
" style="fill:#fc8d62;fill-opacity:0.5;"/>
   </g>
   <g id="matplotlib.axis_1">
    <g id="xtick_1">
     <g id="line2d_1">
      <defs>
       <path d="M 0 0 
L 0 3.5 
" id="me50087d1b9" style="stroke:#a9a9a9;stroke-width:2;"/>
      </defs>
      <g>
       <use style="fill:#a9a9a9;stroke:#a9a9a9;stroke-width:2;" x="44.081633" xlink:href="#me50087d1b9" y="61.914697"/>
      </g>
     </g>
    </g>
    <g id="xtick_2">
     <g id="line2d_2">
      <g>
       <use style="fill:#a9a9a9;stroke:#a9a9a9;stroke-width:2;" x="78.244898" xlink:href="#me50087d1b9" y="61.914697"/>
      </g>
     </g>
    </g>
    <g id="xtick_3">
     <g id="line2d_3">
      <g>
       <use style="fill:#a9a9a9;stroke:#a9a9a9;stroke-width:2;" x="112.408163" xlink:href="#me50087d1b9" y="61.914697"/>
      </g>
     </g>
    </g>
    <g id="xtick_4">
     <g id="line2d_4">
      <g>
       <use style="fill:#a9a9a9;stroke:#a9a9a9;stroke-width:2;" x="146.571429" xlink:href="#me50087d1b9" y="61.914697"/>
      </g>
     </g>
    </g>
    <g id="xtick_5">
     <g id="line2d_5">
      <g>
       <use style="fill:#a9a9a9;stroke:#a9a9a9;stroke-width:2;" x="180.734694" xlink:href="#me50087d1b9" y="61.914697"/>
      </g>
     </g>
    </g>
   </g>
   <g id="matplotlib.axis_2"/>
   <g id="line2d_6">
    <path clip-path="url(#p9582ff9cf7)" d="M 27 61.914697 
L 30.416327 61.914697 
L 33.832653 61.914697 
L 37.24898 61.914697 
L 40.665306 61.914697 
L 44.081633 61.914275 
L 47.497959 61.865408 
L 50.914286 61.756955 
L 54.330612 61.567136 
L 57.746939 61.140148 
L 61.163265 60.717115 
L 64.579592 60.168508 
L 67.995918 58.661398 
L 71.412245 56.557947 
L 74.828571 52.844784 
L 78.244898 48.152726 
L 81.661224 43.733233 
L 85.077551 37.968502 
L 88.493878 33.773925 
L 91.910204 28.089744 
L 95.326531 23.451797 
L 98.742857 21.843694 
L 102.159184 22.86978 
L 105.57551 24.723157 
L 108.991837 30.841147 
L 112.408163 37.186361 
L 115.82449 44.186861 
L 119.240816 52.102586 
L 122.657143 56.475217 
L 126.073469 61.086458 
L 129.489796 63.529462 
L 132.906122 63.277643 
L 136.322449 62.125526 
L 139.738776 62.369145 
L 143.155102 60.947491 
L 146.571429 60.517676 
L 149.987755 59.413258 
L 153.404082 58.877442 
L 156.820408 59.303248 
L 160.236735 59.880184 
L 163.653061 60.859337 
L 167.069388 61.52218 
L 170.485714 61.765601 
L 173.902041 61.91734 
L 177.318367 61.945187 
L 180.734694 61.915077 
L 184.15102 61.914697 
L 187.567347 61.914697 
L 190.983673 61.914697 
L 194.4 61.914697 
" style="fill:none;stroke:#fc8d62;stroke-linecap:square;stroke-width:2;"/>
   </g>
   <g id="line2d_7">
    <path clip-path="url(#p9582ff9cf7)" d="M 27 61.914697 
L 30.416327 61.914697 
L 33.832653 61.914697 
L 37.24898 61.914697 
L 40.665306 61.914697 
L 44.081633 61.914584 
L 47.497959 61.863025 
L 50.914286 61.519559 
L 54.330612 60.885471 
L 57.746939 59.981001 
L 61.163265 58.772003 
L 64.579592 56.757708 
L 67.995918 54.710604 
L 71.412245 51.91103 
L 74.828571 49.012384 
L 78.244898 45.076018 
L 81.661224 41.431027 
L 85.077551 37.003065 
L 88.493878 35.02923 
L 91.910204 30.269936 
L 95.326531 27.371917 
L 98.742857 26.089798 
L 102.159184 23.775789 
L 105.57551 21.843694 
L 108.991837 22.103737 
L 112.408163 22.180569 
L 115.82449 23.26157 
L 119.240816 26.246047 
L 122.657143 28.52909 
L 126.073469 31.57391 
L 129.489796 36.538674 
L 132.906122 40.543105 
L 136.322449 43.08275 
L 139.738776 48.321134 
L 143.155102 50.825489 
L 146.571429 53.6964 
L 149.987755 55.691541 
L 153.404082 57.955467 
L 156.820408 59.396797 
L 160.236735 60.756833 
L 163.653061 61.305338 
L 167.069388 61.876061 
L 170.485714 62.101638 
L 173.902041 62.068342 
L 177.318367 61.934539 
L 180.734694 61.914799 
L 184.15102 61.914697 
L 187.567347 61.914697 
L 190.983673 61.914697 
L 194.4 61.914697 
" style="fill:none;stroke:#fc8d62;stroke-dasharray:1.5,2.475;stroke-dashoffset:0;stroke-opacity:0.5;stroke-width:1.5;"/>
   </g>
   <g id="patch_3">
    <path d="M 112.408163 67.68 
L 112.408163 17.28 
" style="fill:none;stroke:#a9a9a9;stroke-linecap:square;stroke-linejoin:miter;stroke-width:2;"/>
   </g>
   <g id="patch_4">
    <path d="M 194.4 67.68 
L 194.4 17.28 
" style="fill:none;"/>
   </g>
   <g id="patch_5">
    <path d="M 27 61.914697 
L 194.4 61.914697 
" style="fill:none;stroke:#a9a9a9;stroke-linecap:square;stroke-linejoin:miter;stroke-width:2;"/>
   </g>
   <g id="patch_6">
    <path d="M 27 17.28 
L 194.4 17.28 
" style="fill:none;"/>
   </g>
   <g id="legend_1">
    <g id="line2d_8">
     <path d="M 152.47 26.448906 
L 166.47 26.448906 
" style="fill:none;stroke:#fc8d62;stroke-linecap:square;stroke-width:2;"/>
    </g>
    <g id="line2d_9"/>
    <g id="text_1">
     <!-- $\theta$ -->
     <g transform="translate(172.07 28.898906)scale(0.07 -0.07)">
      <defs>
       <path d="M 45.515625 34.671875 
L 14.453125 34.671875 
Q 12.359375 20.0625 14.5 13.875 
Q 17.1875 6.25 24.46875 6.25 
Q 31.78125 6.25 37.359375 13.921875 
Q 42.234375 20.65625 45.515625 34.671875 
z
M 47.015625 42.96875 
Q 48.34375 56.84375 46.625 61.71875 
Q 43.953125 69.4375 36.765625 69.4375 
Q 29.296875 69.4375 23.828125 61.8125 
Q 19.53125 55.671875 16.15625 42.96875 
z
M 38.1875 76.765625 
Q 49.90625 76.765625 54.59375 66.40625 
Q 59.28125 56.109375 55.71875 37.84375 
Q 52.203125 19.625 43.453125 9.28125 
Q 34.765625 -1.125 23.046875 -1.125 
Q 11.28125 -1.125 6.640625 9.28125 
Q 2 19.625 5.515625 37.84375 
Q 9.078125 56.109375 17.71875 66.40625 
Q 26.421875 76.765625 38.1875 76.765625 
z
" id="DejaVuSans-Oblique-952"/>
      </defs>
      <use transform="translate(0 0.234375)" xlink:href="#DejaVuSans-Oblique-952"/>
     </g>
    </g>
    <g id="line2d_10">
     <path d="M 152.47 36.723594 
L 166.47 36.723594 
" style="fill:none;stroke:#fc8d62;stroke-dasharray:1.5,2.475;stroke-dashoffset:0;stroke-opacity:0.5;stroke-width:1.5;"/>
    </g>
    <g id="line2d_11"/>
    <g id="text_2">
     <!-- No $\theta$ -->
     <g transform="translate(172.07 39.173594)scale(0.07 -0.07)">
      <defs>
       <path d="M 9.8125 72.90625 
L 23.09375 72.90625 
L 55.421875 11.921875 
L 55.421875 72.90625 
L 64.984375 72.90625 
L 64.984375 0 
L 51.703125 0 
L 19.390625 60.984375 
L 19.390625 0 
L 9.8125 0 
z
" id="DejaVuSans-78"/>
       <path d="M 30.609375 48.390625 
Q 23.390625 48.390625 19.1875 42.75 
Q 14.984375 37.109375 14.984375 27.296875 
Q 14.984375 17.484375 19.15625 11.84375 
Q 23.34375 6.203125 30.609375 6.203125 
Q 37.796875 6.203125 41.984375 11.859375 
Q 46.1875 17.53125 46.1875 27.296875 
Q 46.1875 37.015625 41.984375 42.703125 
Q 37.796875 48.390625 30.609375 48.390625 
z
M 30.609375 56 
Q 42.328125 56 49.015625 48.375 
Q 55.71875 40.765625 55.71875 27.296875 
Q 55.71875 13.875 49.015625 6.21875 
Q 42.328125 -1.421875 30.609375 -1.421875 
Q 18.84375 -1.421875 12.171875 6.21875 
Q 5.515625 13.875 5.515625 27.296875 
Q 5.515625 40.765625 12.171875 48.375 
Q 18.84375 56 30.609375 56 
z
" id="DejaVuSans-111"/>
       <path id="DejaVuSans-32"/>
      </defs>
      <use transform="translate(0 0.234375)" xlink:href="#DejaVuSans-78"/>
      <use transform="translate(74.804688 0.234375)" xlink:href="#DejaVuSans-111"/>
      <use transform="translate(135.986328 0.234375)" xlink:href="#DejaVuSans-32"/>
      <use transform="translate(167.773438 0.234375)" xlink:href="#DejaVuSans-Oblique-952"/>
     </g>
    </g>
   </g>
  </g>
  <g id="axes_2">
   <g id="patch_7">
    <path d="M 27 128.16 
L 194.4 128.16 
L 194.4 77.76 
L 27 77.76 
z
" style="fill:none;"/>
   </g>
   <g id="PolyCollection_2">
    <path clip-path="url(#p8a40b45866)" d="M 27 120.559758 
L 27 120.476926 
L 30.416327 120.692786 
L 33.832653 120.766675 
L 37.24898 120.701858 
L 40.665306 120.542193 
L 44.081633 120.360635 
L 47.497959 120.20115 
L 50.914286 119.925285 
L 54.330612 119.373512 
L 57.746939 118.419763 
L 61.163265 116.972506 
L 64.579592 114.980053 
L 67.995918 112.433897 
L 71.412245 109.36574 
L 74.828571 105.843675 
L 78.244898 101.968419 
L 81.661224 97.869793 
L 85.077551 93.702365 
L 88.493878 89.640758 
L 91.910204 85.874373 
L 95.326531 82.601807 
L 98.742857 80.025417 
L 102.159184 78.34631 
L 105.57551 77.76 
L 108.991837 78.452917 
L 112.408163 80.592838 
L 115.82449 84.258187 
L 119.240816 89.06875 
L 122.657143 94.585513 
L 126.073469 100.399032 
L 129.489796 106.150289 
L 132.906122 111.539986 
L 136.322449 116.33382 
L 139.738776 120.363973 
L 143.155102 123.528312 
L 146.571429 125.788606 
L 149.987755 127.166731 
L 153.404082 127.735505 
L 156.820408 127.605471 
L 160.236735 126.912788 
L 163.653061 125.810032 
L 167.069388 124.458153 
L 170.485714 123.019763 
L 173.902041 121.653724 
L 177.318367 120.512896 
L 180.734694 119.747247 
L 184.15102 119.454818 
L 187.567347 119.525387 
L 190.983673 119.804168 
L 194.4 120.156571 
L 194.4 120.265839 
L 194.4 120.265839 
L 190.983673 119.937965 
L 187.567347 119.677481 
L 184.15102 119.616944 
L 180.734694 119.913779 
L 177.318367 120.689578 
L 173.902041 121.859468 
L 170.485714 123.271799 
L 167.069388 124.762579 
L 163.653061 126.162383 
L 160.236735 127.301809 
L 156.820408 128.017493 
L 153.404082 128.16 
L 149.987755 127.602793 
L 146.571429 126.2514 
L 143.155102 124.049781 
L 139.738776 120.984403 
L 136.322449 117.090317 
L 132.906122 112.459867 
L 129.489796 107.249536 
L 126.073469 101.682651 
L 122.657143 96.047995 
L 119.240816 90.694789 
L 115.82449 86.023365 
L 112.408163 82.464457 
L 108.991837 80.392153 
L 105.57551 79.724009 
L 102.159184 80.291307 
L 98.742857 81.90877 
L 95.326531 84.383992 
L 91.910204 87.520779 
L 88.493878 91.1233 
L 85.077551 95.000835 
L 81.661224 98.972895 
L 78.244898 102.874312 
L 74.828571 106.560125 
L 71.412245 109.909886 
L 67.995918 112.831123 
L 64.579592 115.262718 
L 61.163265 117.176948 
L 57.746939 118.580098 
L 54.330612 119.512211 
L 50.914286 120.051083 
L 47.497959 120.315754 
L 44.081633 120.462787 
L 40.665306 120.62834 
L 37.24898 120.769985 
L 33.832653 120.822905 
L 30.416327 120.754453 
L 27 120.559758 
z
" style="fill:#66c2a5;fill-opacity:0.5;"/>
   </g>
   <g id="matplotlib.axis_3">
    <g id="xtick_6">
     <g id="line2d_12">
      <g>
       <use style="fill:#a9a9a9;stroke:#a9a9a9;stroke-width:2;" x="44.081633" xlink:href="#me50087d1b9" y="122.249497"/>
      </g>
     </g>
    </g>
    <g id="xtick_7">
     <g id="line2d_13">
      <g>
       <use style="fill:#a9a9a9;stroke:#a9a9a9;stroke-width:2;" x="78.244898" xlink:href="#me50087d1b9" y="122.249497"/>
      </g>
     </g>
    </g>
    <g id="xtick_8">
     <g id="line2d_14">
      <g>
       <use style="fill:#a9a9a9;stroke:#a9a9a9;stroke-width:2;" x="112.408163" xlink:href="#me50087d1b9" y="122.249497"/>
      </g>
     </g>
    </g>
    <g id="xtick_9">
     <g id="line2d_15">
      <g>
       <use style="fill:#a9a9a9;stroke:#a9a9a9;stroke-width:2;" x="146.571429" xlink:href="#me50087d1b9" y="122.249497"/>
      </g>
     </g>
    </g>
    <g id="xtick_10">
     <g id="line2d_16">
      <g>
       <use style="fill:#a9a9a9;stroke:#a9a9a9;stroke-width:2;" x="180.734694" xlink:href="#me50087d1b9" y="122.249497"/>
      </g>
     </g>
    </g>
   </g>
   <g id="matplotlib.axis_4"/>
   <g id="line2d_17">
    <path clip-path="url(#p8a40b45866)" d="M 27 120.518342 
L 30.416327 120.72362 
L 33.832653 120.79479 
L 37.24898 120.735921 
L 40.665306 120.585266 
L 44.081633 120.411711 
L 47.497959 120.258452 
L 50.914286 119.988184 
L 54.330612 119.442861 
L 57.746939 118.49993 
L 61.163265 117.074727 
L 64.579592 115.121386 
L 67.995918 112.63251 
L 71.412245 109.637813 
L 74.828571 106.2019 
L 78.244898 102.421365 
L 81.661224 98.421344 
L 85.077551 94.3516 
L 88.493878 90.382029 
L 91.910204 86.697576 
L 95.326531 83.492899 
L 98.742857 80.967094 
L 102.159184 79.318808 
L 105.57551 78.742005 
L 108.991837 79.422535 
L 112.408163 81.528647 
L 115.82449 85.140776 
L 119.240816 89.881769 
L 122.657143 95.316754 
L 126.073469 101.040842 
L 129.489796 106.699913 
L 132.906122 111.999926 
L 136.322449 116.712068 
L 139.738776 120.674188 
L 143.155102 123.789046 
L 146.571429 126.020003 
L 149.987755 127.384762 
L 153.404082 127.947752 
L 156.820408 127.811482 
L 160.236735 127.107298 
L 163.653061 125.986207 
L 167.069388 124.610366 
L 170.485714 123.145781 
L 173.902041 121.756596 
L 177.318367 120.601237 
L 180.734694 119.830513 
L 184.15102 119.535881 
L 187.567347 119.601434 
L 190.983673 119.871066 
L 194.4 120.211205 
" style="fill:none;stroke:#66c2a5;stroke-linecap:square;stroke-width:2;"/>
   </g>
   <g id="patch_8">
    <path d="M 112.408163 128.16 
L 112.408163 77.76 
" style="fill:none;stroke:#a9a9a9;stroke-linecap:square;stroke-linejoin:miter;stroke-width:2;"/>
   </g>
   <g id="patch_9">
    <path d="M 194.4 128.16 
L 194.4 77.76 
" style="fill:none;"/>
   </g>
   <g id="patch_10">
    <path d="M 27 122.249497 
L 194.4 122.249497 
" style="fill:none;stroke:#a9a9a9;stroke-linecap:square;stroke-linejoin:miter;stroke-width:2;"/>
   </g>
   <g id="patch_11">
    <path d="M 27 77.76 
L 194.4 77.76 
" style="fill:none;"/>
   </g>
  </g>
 </g>
 <defs>
  <clipPath id="p9582ff9cf7">
   <rect height="50.4" width="167.4" x="27" y="17.28"/>
  </clipPath>
  <clipPath id="p8a40b45866">
   <rect height="50.4" width="167.4" x="27" y="77.76"/>
  </clipPath>
 </defs>
</svg>
