<?xml version="1.0" encoding="utf-8" standalone="no"?>
<!DOCTYPE svg PUBLIC "-//W3C//DTD SVG 1.1//EN"
  "http://www.w3.org/Graphics/SVG/1.1/DTD/svg11.dtd">
<!-- Created with matplotlib (https://matplotlib.org/) -->
<svg height="144pt" version="1.1" viewBox="0 0 216 144" width="216pt" xmlns="http://www.w3.org/2000/svg" xmlns:xlink="http://www.w3.org/1999/xlink">
 <metadata>
  <rdf:RDF xmlns:cc="http://creativecommons.org/ns#" xmlns:dc="http://purl.org/dc/elements/1.1/" xmlns:rdf="http://www.w3.org/1999/02/22-rdf-syntax-ns#">
   <cc:Work>
    <dc:type rdf:resource="http://purl.org/dc/dcmitype/StillImage"/>
    <dc:date>2021-09-28T14:07:16.966408</dc:date>
    <dc:format>image/svg+xml</dc:format>
    <dc:creator>
     <cc:Agent>
      <dc:title>Matplotlib v3.3.2, https://matplotlib.org/</dc:title>
     </cc:Agent>
    </dc:creator>
   </cc:Work>
  </rdf:RDF>
 </metadata>
 <defs>
  <style type="text/css">*{stroke-linecap:butt;stroke-linejoin:round;}</style>
 </defs>
 <g id="figure_1">
  <g id="patch_1">
   <path d="M 0 144 
L 216 144 
L 216 0 
L 0 0 
z
" style="fill:none;"/>
  </g>
  <g id="axes_1">
   <g id="patch_2">
    <path d="M 27 67.68 
L 194.4 67.68 
L 194.4 17.28 
L 27 17.28 
z
" style="fill:none;"/>
   </g>
   <g id="PolyCollection_1">
    <path clip-path="url(#pe14816e3b3)" d="M 27 66.450662 
L 27 66.450662 
L 30.416327 66.450662 
L 33.832653 66.450662 
L 37.24898 66.450662 
L 40.665306 66.450662 
L 44.081633 66.449415 
L 47.497959 66.230437 
L 50.914286 65.651014 
L 54.330612 64.758947 
L 57.746939 63.051328 
L 61.163265 61.396107 
L 64.579592 59.034641 
L 67.995918 56.268693 
L 71.412245 53.309011 
L 74.828571 49.392381 
L 78.244898 44.645059 
L 81.661224 40.709922 
L 85.077551 36.254171 
L 88.493878 32.442838 
L 91.910204 27.62808 
L 95.326531 23.724862 
L 98.742857 20.979593 
L 102.159184 19.031145 
L 105.57551 17.28 
L 108.991837 18.426905 
L 112.408163 23.085181 
L 115.82449 19.033354 
L 119.240816 23.724871 
L 122.657143 26.038971 
L 126.073469 30.810627 
L 129.489796 35.683464 
L 132.906122 37.852708 
L 136.322449 44.165687 
L 139.738776 48.357831 
L 143.155102 51.510767 
L 146.571429 54.721657 
L 149.987755 58.294899 
L 153.404082 60.044904 
L 156.820408 62.218955 
L 160.236735 64.100523 
L 163.653061 65.021447 
L 167.069388 65.904377 
L 170.485714 66.052295 
L 173.902041 66.274317 
L 177.318367 66.409437 
L 180.734694 66.450146 
L 184.15102 66.450662 
L 187.567347 66.450662 
L 190.983673 66.450662 
L 194.4 66.450662 
L 194.4 66.450662 
L 194.4 66.450662 
L 190.983673 66.450662 
L 187.567347 66.450662 
L 184.15102 66.450662 
L 180.734694 66.451785 
L 177.318367 66.633377 
L 173.902041 66.971249 
L 170.485714 67.231949 
L 167.069388 67.68 
L 163.653061 67.489314 
L 160.236735 67.02074 
L 156.820408 66.185482 
L 153.404082 64.695209 
L 149.987755 63.088698 
L 146.571429 61.158867 
L 143.155102 58.406666 
L 139.738776 55.364124 
L 136.322449 51.724216 
L 132.906122 48.574368 
L 129.489796 45.076967 
L 126.073469 41.358103 
L 122.657143 37.656897 
L 119.240816 34.765459 
L 115.82449 31.102757 
L 112.408163 25.39524 
L 108.991837 30.407576 
L 105.57551 28.514593 
L 102.159184 30.664504 
L 98.742857 31.445968 
L 95.326531 33.739737 
L 91.910204 38.522868 
L 88.493878 39.735407 
L 85.077551 43.611974 
L 81.661224 47.573423 
L 78.244898 51.82523 
L 74.828571 54.266538 
L 71.412245 57.853515 
L 67.995918 60.193702 
L 64.579592 62.087723 
L 61.163265 63.820985 
L 57.746939 64.923569 
L 54.330612 65.922107 
L 50.914286 66.359847 
L 47.497959 66.459703 
L 44.081633 66.451236 
L 40.665306 66.450662 
L 37.24898 66.450662 
L 33.832653 66.450662 
L 30.416327 66.450662 
L 27 66.450662 
z
" style="fill:#fc8d62;fill-opacity:0.5;"/>
   </g>
   <g id="matplotlib.axis_1">
    <g id="xtick_1">
     <g id="line2d_1">
      <defs>
       <path d="M 0 0 
L 0 3.5 
" id="ma8410c4324" style="stroke:#a9a9a9;stroke-width:2;"/>
      </defs>
      <g>
       <use style="fill:#a9a9a9;stroke:#a9a9a9;stroke-width:2;" x="44.081633" xlink:href="#ma8410c4324" y="66.450662"/>
      </g>
     </g>
    </g>
    <g id="xtick_2">
     <g id="line2d_2">
      <g>
       <use style="fill:#a9a9a9;stroke:#a9a9a9;stroke-width:2;" x="78.244898" xlink:href="#ma8410c4324" y="66.450662"/>
      </g>
     </g>
    </g>
    <g id="xtick_3">
     <g id="line2d_3">
      <g>
       <use style="fill:#a9a9a9;stroke:#a9a9a9;stroke-width:2;" x="112.408163" xlink:href="#ma8410c4324" y="66.450662"/>
      </g>
     </g>
    </g>
    <g id="xtick_4">
     <g id="line2d_4">
      <g>
       <use style="fill:#a9a9a9;stroke:#a9a9a9;stroke-width:2;" x="146.571429" xlink:href="#ma8410c4324" y="66.450662"/>
      </g>
     </g>
    </g>
    <g id="xtick_5">
     <g id="line2d_5">
      <g>
       <use style="fill:#a9a9a9;stroke:#a9a9a9;stroke-width:2;" x="180.734694" xlink:href="#ma8410c4324" y="66.450662"/>
      </g>
     </g>
    </g>
   </g>
   <g id="matplotlib.axis_2"/>
   <g id="line2d_6">
    <path clip-path="url(#pe14816e3b3)" d="M 27 66.450662 
L 30.416327 66.450662 
L 33.832653 66.450662 
L 37.24898 66.450662 
L 40.665306 66.450662 
L 44.081633 66.450326 
L 47.497959 66.34507 
L 50.914286 66.005431 
L 54.330612 65.340527 
L 57.746939 63.987449 
L 61.163265 62.608546 
L 64.579592 60.561182 
L 67.995918 58.231198 
L 71.412245 55.581263 
L 74.828571 51.829459 
L 78.244898 48.235145 
L 81.661224 44.141672 
L 85.077551 39.933073 
L 88.493878 36.089122 
L 91.910204 33.075474 
L 95.326531 28.7323 
L 98.742857 26.212781 
L 102.159184 24.847825 
L 105.57551 22.897297 
L 108.991837 24.417241 
L 112.408163 24.24021 
L 115.82449 25.068055 
L 119.240816 29.245165 
L 122.657143 31.847934 
L 126.073469 36.084365 
L 129.489796 40.380216 
L 132.906122 43.213538 
L 136.322449 47.944952 
L 139.738776 51.860978 
L 143.155102 54.958716 
L 146.571429 57.940262 
L 149.987755 60.691799 
L 153.404082 62.370057 
L 156.820408 64.202219 
L 160.236735 65.560632 
L 163.653061 66.255381 
L 167.069388 66.792188 
L 170.485714 66.642122 
L 173.902041 66.622783 
L 177.318367 66.521407 
L 180.734694 66.450965 
L 184.15102 66.450662 
L 187.567347 66.450662 
L 190.983673 66.450662 
L 194.4 66.450662 
" style="fill:none;stroke:#fc8d62;stroke-linecap:square;stroke-width:2;"/>
   </g>
   <g id="line2d_7">
    <path clip-path="url(#pe14816e3b3)" d="M 27 66.450662 
L 30.416327 66.450662 
L 33.832653 66.450662 
L 37.24898 66.450662 
L 40.665306 66.450662 
L 44.081633 66.449831 
L 47.497959 66.353432 
L 50.914286 65.97695 
L 54.330612 65.256493 
L 57.746939 64.166251 
L 61.163265 62.327996 
L 64.579592 60.342685 
L 67.995918 57.720516 
L 71.412245 54.777082 
L 74.828571 51.457502 
L 78.244898 47.580899 
L 81.661224 43.804465 
L 85.077551 39.480888 
L 88.493878 35.355241 
L 91.910204 31.91159 
L 95.326531 29.423804 
L 98.742857 26.934301 
L 102.159184 24.279687 
L 105.57551 23.339272 
L 108.991837 22.897297 
L 112.408163 24.523178 
L 115.82449 27.18318 
L 119.240816 29.532698 
L 122.657143 33.01433 
L 126.073469 36.194304 
L 129.489796 40.198688 
L 132.906122 44.952074 
L 136.322449 49.218827 
L 139.738776 52.619091 
L 143.155102 55.782728 
L 146.571429 58.759154 
L 149.987755 61.140725 
L 153.404082 63.286006 
L 156.820408 64.806604 
L 160.236735 65.834428 
L 163.653061 66.567971 
L 167.069388 66.642196 
L 170.485714 66.744097 
L 173.902041 66.651188 
L 177.318367 66.511348 
L 180.734694 66.451411 
L 184.15102 66.450662 
L 187.567347 66.450662 
L 190.983673 66.450662 
L 194.4 66.450662 
" style="fill:none;stroke:#fc8d62;stroke-dasharray:1.5,2.475;stroke-dashoffset:0;stroke-opacity:0.5;stroke-width:1.5;"/>
   </g>
   <g id="patch_3">
    <path d="M 112.408163 67.68 
L 112.408163 17.28 
" style="fill:none;stroke:#a9a9a9;stroke-linecap:square;stroke-linejoin:miter;stroke-width:2;"/>
   </g>
   <g id="patch_4">
    <path d="M 194.4 67.68 
L 194.4 17.28 
" style="fill:none;"/>
   </g>
   <g id="patch_5">
    <path d="M 27 66.450662 
L 194.4 66.450662 
" style="fill:none;stroke:#a9a9a9;stroke-linecap:square;stroke-linejoin:miter;stroke-width:2;"/>
   </g>
   <g id="patch_6">
    <path d="M 27 17.28 
L 194.4 17.28 
" style="fill:none;"/>
   </g>
   <g id="legend_1">
    <g id="line2d_8">
     <path d="M 152.47 26.448906 
L 166.47 26.448906 
" style="fill:none;stroke:#fc8d62;stroke-linecap:square;stroke-width:2;"/>
    </g>
    <g id="line2d_9"/>
    <g id="text_1">
     <!-- $\theta$ -->
     <g transform="translate(172.07 28.898906)scale(0.07 -0.07)">
      <defs>
       <path d="M 45.515625 34.671875 
L 14.453125 34.671875 
Q 12.359375 20.0625 14.5 13.875 
Q 17.1875 6.25 24.46875 6.25 
Q 31.78125 6.25 37.359375 13.921875 
Q 42.234375 20.65625 45.515625 34.671875 
z
M 47.015625 42.96875 
Q 48.34375 56.84375 46.625 61.71875 
Q 43.953125 69.4375 36.765625 69.4375 
Q 29.296875 69.4375 23.828125 61.8125 
Q 19.53125 55.671875 16.15625 42.96875 
z
M 38.1875 76.765625 
Q 49.90625 76.765625 54.59375 66.40625 
Q 59.28125 56.109375 55.71875 37.84375 
Q 52.203125 19.625 43.453125 9.28125 
Q 34.765625 -1.125 23.046875 -1.125 
Q 11.28125 -1.125 6.640625 9.28125 
Q 2 19.625 5.515625 37.84375 
Q 9.078125 56.109375 17.71875 66.40625 
Q 26.421875 76.765625 38.1875 76.765625 
z
" id="DejaVuSans-Oblique-952"/>
      </defs>
      <use transform="translate(0 0.234375)" xlink:href="#DejaVuSans-Oblique-952"/>
     </g>
    </g>
    <g id="line2d_10">
     <path d="M 152.47 36.723594 
L 166.47 36.723594 
" style="fill:none;stroke:#fc8d62;stroke-dasharray:1.5,2.475;stroke-dashoffset:0;stroke-opacity:0.5;stroke-width:1.5;"/>
    </g>
    <g id="line2d_11"/>
    <g id="text_2">
     <!-- No $\theta$ -->
     <g transform="translate(172.07 39.173594)scale(0.07 -0.07)">
      <defs>
       <path d="M 9.8125 72.90625 
L 23.09375 72.90625 
L 55.421875 11.921875 
L 55.421875 72.90625 
L 64.984375 72.90625 
L 64.984375 0 
L 51.703125 0 
L 19.390625 60.984375 
L 19.390625 0 
L 9.8125 0 
z
" id="DejaVuSans-78"/>
       <path d="M 30.609375 48.390625 
Q 23.390625 48.390625 19.1875 42.75 
Q 14.984375 37.109375 14.984375 27.296875 
Q 14.984375 17.484375 19.15625 11.84375 
Q 23.34375 6.203125 30.609375 6.203125 
Q 37.796875 6.203125 41.984375 11.859375 
Q 46.1875 17.53125 46.1875 27.296875 
Q 46.1875 37.015625 41.984375 42.703125 
Q 37.796875 48.390625 30.609375 48.390625 
z
M 30.609375 56 
Q 42.328125 56 49.015625 48.375 
Q 55.71875 40.765625 55.71875 27.296875 
Q 55.71875 13.875 49.015625 6.21875 
Q 42.328125 -1.421875 30.609375 -1.421875 
Q 18.84375 -1.421875 12.171875 6.21875 
Q 5.515625 13.875 5.515625 27.296875 
Q 5.515625 40.765625 12.171875 48.375 
Q 18.84375 56 30.609375 56 
z
" id="DejaVuSans-111"/>
       <path id="DejaVuSans-32"/>
      </defs>
      <use transform="translate(0 0.234375)" xlink:href="#DejaVuSans-78"/>
      <use transform="translate(74.804688 0.234375)" xlink:href="#DejaVuSans-111"/>
      <use transform="translate(135.986328 0.234375)" xlink:href="#DejaVuSans-32"/>
      <use transform="translate(167.773438 0.234375)" xlink:href="#DejaVuSans-Oblique-952"/>
     </g>
    </g>
   </g>
  </g>
  <g id="axes_2">
   <g id="patch_7">
    <path d="M 27 128.16 
L 194.4 128.16 
L 194.4 77.76 
L 27 77.76 
z
" style="fill:none;"/>
   </g>
   <g id="PolyCollection_2">
    <path clip-path="url(#pe70f00efe1)" d="M 27 120.042608 
L 27 119.945998 
L 30.416327 120.068274 
L 33.832653 120.052692 
L 37.24898 119.89641 
L 40.665306 119.632183 
L 44.081633 119.320791 
L 47.497959 118.999951 
L 50.914286 118.542444 
L 54.330612 117.803534 
L 57.746939 116.670841 
L 61.163265 115.066712 
L 64.579592 112.951477 
L 67.995918 110.325294 
L 71.412245 107.226201 
L 74.828571 103.726774 
L 78.244898 99.930119 
L 81.661224 95.965977 
L 85.077551 91.986275 
L 88.493878 88.160033 
L 91.910204 84.668027 
L 95.326531 81.697093 
L 98.742857 79.434711 
L 102.159184 78.064088 
L 105.57551 77.76 
L 108.991837 78.68559 
L 112.408163 80.983773 
L 115.82449 84.715167 
L 119.240816 89.521024 
L 122.657143 94.988097 
L 126.073469 100.728102 
L 129.489796 106.398052 
L 132.906122 111.710017 
L 136.322449 116.436847 
L 139.738776 120.414699 
L 143.155102 123.542944 
L 146.571429 125.783517 
L 149.987755 127.156982 
L 153.404082 127.733423 
L 156.820408 127.619519 
L 160.236735 126.947233 
L 163.653061 125.864814 
L 167.069388 124.528877 
L 170.485714 123.0974 
L 173.902041 121.724119 
L 177.318367 120.555872 
L 180.734694 119.734904 
L 184.15102 119.354521 
L 187.567347 119.317491 
L 190.983673 119.483259 
L 194.4 119.726613 
L 194.4 119.845705 
L 194.4 119.845705 
L 190.983673 119.624243 
L 187.567347 119.474672 
L 184.15102 119.520217 
L 180.734694 119.904324 
L 177.318367 120.735705 
L 173.902041 121.932854 
L 170.485714 123.351711 
L 167.069388 124.834906 
L 163.653061 126.218537 
L 160.236735 127.337865 
L 156.820408 128.033632 
L 153.404082 128.16 
L 149.987755 127.593735 
L 146.571429 126.243402 
L 143.155102 124.056097 
L 139.738776 121.021144 
L 136.322449 117.175286 
L 132.906122 112.61004 
L 129.489796 107.478237 
L 126.073469 101.995859 
L 122.657143 96.440181 
L 119.240816 91.143942 
L 115.82449 86.485751 
L 112.408163 82.870017 
L 108.991837 80.648149 
L 105.57551 79.756046 
L 102.159184 80.04978 
L 98.742857 81.367287 
L 95.326531 83.536829 
L 91.910204 86.380052 
L 88.493878 89.715921 
L 85.077551 93.365374 
L 81.661224 97.156409 
L 78.244898 100.929203 
L 74.828571 104.541202 
L 71.412245 107.871464 
L 67.995918 110.824558 
L 64.579592 113.334073 
L 61.163265 115.364844 
L 57.746939 116.91436 
L 54.330612 118.01372 
L 50.914286 118.730231 
L 47.497959 119.168889 
L 44.081633 119.470039 
L 40.665306 119.757781 
L 37.24898 119.997877 
L 33.832653 120.136633 
L 30.416327 120.15024 
L 27 120.042608 
z
" style="fill:#66c2a5;fill-opacity:0.5;"/>
   </g>
   <g id="matplotlib.axis_3">
    <g id="xtick_6">
     <g id="line2d_12">
      <g>
       <use style="fill:#a9a9a9;stroke:#a9a9a9;stroke-width:2;" x="44.081633" xlink:href="#ma8410c4324" y="122.412691"/>
      </g>
     </g>
    </g>
    <g id="xtick_7">
     <g id="line2d_13">
      <g>
       <use style="fill:#a9a9a9;stroke:#a9a9a9;stroke-width:2;" x="78.244898" xlink:href="#ma8410c4324" y="122.412691"/>
      </g>
     </g>
    </g>
    <g id="xtick_8">
     <g id="line2d_14">
      <g>
       <use style="fill:#a9a9a9;stroke:#a9a9a9;stroke-width:2;" x="112.408163" xlink:href="#ma8410c4324" y="122.412691"/>
      </g>
     </g>
    </g>
    <g id="xtick_9">
     <g id="line2d_15">
      <g>
       <use style="fill:#a9a9a9;stroke:#a9a9a9;stroke-width:2;" x="146.571429" xlink:href="#ma8410c4324" y="122.412691"/>
      </g>
     </g>
    </g>
    <g id="xtick_10">
     <g id="line2d_16">
      <g>
       <use style="fill:#a9a9a9;stroke:#a9a9a9;stroke-width:2;" x="180.734694" xlink:href="#ma8410c4324" y="122.412691"/>
      </g>
     </g>
    </g>
   </g>
   <g id="matplotlib.axis_4"/>
   <g id="line2d_17">
    <path clip-path="url(#pe70f00efe1)" d="M 27 119.994303 
L 30.416327 120.109257 
L 33.832653 120.094662 
L 37.24898 119.947143 
L 40.665306 119.694982 
L 44.081633 119.395415 
L 47.497959 119.08442 
L 50.914286 118.636338 
L 54.330612 117.908627 
L 57.746939 116.7926 
L 61.163265 115.215778 
L 64.579592 113.142775 
L 67.995918 110.574926 
L 71.412245 107.548832 
L 74.828571 104.133988 
L 78.244898 100.429661 
L 81.661224 96.561193 
L 85.077551 92.675824 
L 88.493878 88.937977 
L 91.910204 85.52404 
L 95.326531 82.616961 
L 98.742857 80.400999 
L 102.159184 79.056934 
L 105.57551 78.758023 
L 108.991837 79.666869 
L 112.408163 81.926895 
L 115.82449 85.600459 
L 119.240816 90.332483 
L 122.657143 95.714139 
L 126.073469 101.361981 
L 129.489796 106.938144 
L 132.906122 112.160028 
L 136.322449 116.806066 
L 139.738776 120.717922 
L 143.155102 123.799521 
L 146.571429 126.013459 
L 149.987755 127.375359 
L 153.404082 127.946712 
L 156.820408 127.826575 
L 160.236735 127.142549 
L 163.653061 126.041676 
L 167.069388 124.681892 
L 170.485714 123.224556 
L 173.902041 121.828487 
L 177.318367 120.645789 
L 180.734694 119.819614 
L 184.15102 119.437369 
L 187.567347 119.396081 
L 190.983673 119.553751 
L 194.4 119.786159 
" style="fill:none;stroke:#66c2a5;stroke-linecap:square;stroke-width:2;"/>
   </g>
   <g id="patch_8">
    <path d="M 112.408163 128.16 
L 112.408163 77.76 
" style="fill:none;stroke:#a9a9a9;stroke-linecap:square;stroke-linejoin:miter;stroke-width:2;"/>
   </g>
   <g id="patch_9">
    <path d="M 194.4 128.16 
L 194.4 77.76 
" style="fill:none;"/>
   </g>
   <g id="patch_10">
    <path d="M 27 122.412691 
L 194.4 122.412691 
" style="fill:none;stroke:#a9a9a9;stroke-linecap:square;stroke-linejoin:miter;stroke-width:2;"/>
   </g>
   <g id="patch_11">
    <path d="M 27 77.76 
L 194.4 77.76 
" style="fill:none;"/>
   </g>
  </g>
 </g>
 <defs>
  <clipPath id="pe14816e3b3">
   <rect height="50.4" width="167.4" x="27" y="17.28"/>
  </clipPath>
  <clipPath id="pe70f00efe1">
   <rect height="50.4" width="167.4" x="27" y="77.76"/>
  </clipPath>
 </defs>
</svg>
