<?xml version="1.0" encoding="utf-8" standalone="no"?>
<!DOCTYPE svg PUBLIC "-//W3C//DTD SVG 1.1//EN"
  "http://www.w3.org/Graphics/SVG/1.1/DTD/svg11.dtd">
<!-- Created with matplotlib (https://matplotlib.org/) -->
<svg height="144pt" version="1.1" viewBox="0 0 216 144" width="216pt" xmlns="http://www.w3.org/2000/svg" xmlns:xlink="http://www.w3.org/1999/xlink">
 <metadata>
  <rdf:RDF xmlns:cc="http://creativecommons.org/ns#" xmlns:dc="http://purl.org/dc/elements/1.1/" xmlns:rdf="http://www.w3.org/1999/02/22-rdf-syntax-ns#">
   <cc:Work>
    <dc:type rdf:resource="http://purl.org/dc/dcmitype/StillImage"/>
    <dc:date>2021-09-28T17:32:48.069204</dc:date>
    <dc:format>image/svg+xml</dc:format>
    <dc:creator>
     <cc:Agent>
      <dc:title>Matplotlib v3.3.2, https://matplotlib.org/</dc:title>
     </cc:Agent>
    </dc:creator>
   </cc:Work>
  </rdf:RDF>
 </metadata>
 <defs>
  <style type="text/css">*{stroke-linecap:butt;stroke-linejoin:round;}</style>
 </defs>
 <g id="figure_1">
  <g id="patch_1">
   <path d="M 0 144 
L 216 144 
L 216 0 
L 0 0 
z
" style="fill:none;"/>
  </g>
  <g id="axes_1">
   <g id="patch_2">
    <path d="M 27 67.68 
L 194.4 67.68 
L 194.4 17.28 
L 27 17.28 
z
" style="fill:none;"/>
   </g>
   <g id="PolyCollection_1">
    <path clip-path="url(#peb5282bc51)" d="M 27 65.06432 
L 27 65.06432 
L 30.416327 65.06432 
L 33.832653 65.06432 
L 37.24898 65.06432 
L 40.665306 65.06432 
L 44.081633 65.062415 
L 47.497959 64.893583 
L 50.914286 64.460298 
L 54.330612 63.555382 
L 57.746939 62.233401 
L 61.163265 60.807857 
L 64.579592 57.899566 
L 67.995918 55.202982 
L 71.412245 52.271205 
L 74.828571 48.683218 
L 78.244898 44.632973 
L 81.661224 41.541116 
L 85.077551 36.90967 
L 88.493878 31.640247 
L 91.910204 28.28609 
L 95.326531 22.821319 
L 98.742857 22.231684 
L 102.159184 19.504099 
L 105.57551 17.28 
L 108.991837 20.733801 
L 112.408163 23.330986 
L 115.82449 18.999403 
L 119.240816 23.478792 
L 122.657143 27.352385 
L 126.073469 30.090901 
L 129.489796 35.104688 
L 132.906122 37.849753 
L 136.322449 43.099515 
L 139.738776 46.876806 
L 143.155102 50.517063 
L 146.571429 53.975121 
L 149.987755 55.915605 
L 153.404082 58.685112 
L 156.820408 60.622788 
L 160.236735 62.332866 
L 163.653061 63.212804 
L 167.069388 63.943014 
L 170.485714 64.443112 
L 173.902041 64.894062 
L 177.318367 64.960545 
L 180.734694 65.063333 
L 184.15102 65.06432 
L 187.567347 65.06432 
L 190.983673 65.06432 
L 194.4 65.06432 
L 194.4 65.06432 
L 194.4 65.06432 
L 190.983673 65.06432 
L 187.567347 65.06432 
L 184.15102 65.06432 
L 180.734694 65.066035 
L 177.318367 65.204169 
L 173.902041 65.426623 
L 170.485714 65.69507 
L 167.069388 65.879213 
L 163.653061 65.466354 
L 160.236735 65.708592 
L 156.820408 64.766256 
L 153.404082 63.36093 
L 149.987755 61.665242 
L 146.571429 59.729029 
L 143.155102 56.125271 
L 139.738776 53.491391 
L 136.322449 51.160346 
L 132.906122 47.422706 
L 129.489796 45.491069 
L 126.073469 39.750666 
L 122.657143 37.041164 
L 119.240816 34.440812 
L 115.82449 28.640463 
L 112.408163 25.267272 
L 108.991837 30.60762 
L 105.57551 28.942817 
L 102.159184 29.218685 
L 98.742857 32.207288 
L 95.326531 33.447116 
L 91.910204 37.480197 
L 88.493878 40.12377 
L 85.077551 43.534981 
L 81.661224 47.063278 
L 78.244898 50.410137 
L 74.828571 54.460501 
L 71.412245 57.002809 
L 67.995918 59.532286 
L 64.579592 61.236885 
L 61.163265 62.996718 
L 57.746939 64.143155 
L 54.330612 64.824733 
L 50.914286 64.954325 
L 47.497959 65.132513 
L 44.081633 65.065417 
L 40.665306 65.06432 
L 37.24898 65.06432 
L 33.832653 65.06432 
L 30.416327 65.06432 
L 27 65.06432 
z
" style="fill:#fc8d62;fill-opacity:0.5;"/>
   </g>
   <g id="matplotlib.axis_1">
    <g id="xtick_1">
     <g id="line2d_1">
      <defs>
       <path d="M 0 0 
L 0 3.5 
" id="m8b456021b1" style="stroke:#a9a9a9;stroke-width:2;"/>
      </defs>
      <g>
       <use style="fill:#a9a9a9;stroke:#a9a9a9;stroke-width:2;" x="44.081633" xlink:href="#m8b456021b1" y="65.06432"/>
      </g>
     </g>
    </g>
    <g id="xtick_2">
     <g id="line2d_2">
      <g>
       <use style="fill:#a9a9a9;stroke:#a9a9a9;stroke-width:2;" x="78.244898" xlink:href="#m8b456021b1" y="65.06432"/>
      </g>
     </g>
    </g>
    <g id="xtick_3">
     <g id="line2d_3">
      <g>
       <use style="fill:#a9a9a9;stroke:#a9a9a9;stroke-width:2;" x="112.408163" xlink:href="#m8b456021b1" y="65.06432"/>
      </g>
     </g>
    </g>
    <g id="xtick_4">
     <g id="line2d_4">
      <g>
       <use style="fill:#a9a9a9;stroke:#a9a9a9;stroke-width:2;" x="146.571429" xlink:href="#m8b456021b1" y="65.06432"/>
      </g>
     </g>
    </g>
    <g id="xtick_5">
     <g id="line2d_5">
      <g>
       <use style="fill:#a9a9a9;stroke:#a9a9a9;stroke-width:2;" x="180.734694" xlink:href="#m8b456021b1" y="65.06432"/>
      </g>
     </g>
    </g>
   </g>
   <g id="matplotlib.axis_2"/>
   <g id="line2d_6">
    <path clip-path="url(#peb5282bc51)" d="M 27 65.06432 
L 30.416327 65.06432 
L 33.832653 65.06432 
L 37.24898 65.06432 
L 40.665306 65.06432 
L 44.081633 65.063916 
L 47.497959 65.013048 
L 50.914286 64.707311 
L 54.330612 64.190058 
L 57.746939 63.188278 
L 61.163265 61.902288 
L 64.579592 59.568226 
L 67.995918 57.367634 
L 71.412245 54.637007 
L 74.828571 51.571859 
L 78.244898 47.521555 
L 81.661224 44.302197 
L 85.077551 40.222325 
L 88.493878 35.882008 
L 91.910204 32.883143 
L 95.326531 28.134217 
L 98.742857 27.219486 
L 102.159184 24.361392 
L 105.57551 23.111409 
L 108.991837 25.67071 
L 112.408163 24.299129 
L 115.82449 23.819933 
L 119.240816 28.959802 
L 122.657143 32.196774 
L 126.073469 34.920783 
L 129.489796 40.297878 
L 132.906122 42.63623 
L 136.322449 47.129931 
L 139.738776 50.184098 
L 143.155102 53.321167 
L 146.571429 56.852075 
L 149.987755 58.790423 
L 153.404082 61.023021 
L 156.820408 62.694522 
L 160.236735 64.020729 
L 163.653061 64.339579 
L 167.069388 64.911113 
L 170.485714 65.069091 
L 173.902041 65.160342 
L 177.318367 65.082357 
L 180.734694 65.064684 
L 184.15102 65.06432 
L 187.567347 65.06432 
L 190.983673 65.06432 
L 194.4 65.06432 
" style="fill:none;stroke:#fc8d62;stroke-linecap:square;stroke-width:2;"/>
   </g>
   <g id="line2d_7">
    <path clip-path="url(#peb5282bc51)" d="M 27 65.06432 
L 30.416327 65.06432 
L 33.832653 65.06432 
L 37.24898 65.06432 
L 40.665306 65.064254 
L 44.081633 65.055781 
L 47.497959 64.844394 
L 50.914286 64.262966 
L 54.330612 63.167439 
L 57.746939 61.525137 
L 61.163265 59.411992 
L 64.579592 56.678614 
L 67.995918 53.482394 
L 71.412245 49.968014 
L 74.828571 45.818589 
L 78.244898 42.028024 
L 81.661224 37.575894 
L 85.077551 33.444349 
L 88.493878 30.525968 
L 91.910204 27.144555 
L 95.326531 25.750745 
L 98.742857 23.128158 
L 102.159184 23.111409 
L 105.57551 23.876242 
L 108.991837 26.102983 
L 112.408163 28.534362 
L 115.82449 31.946454 
L 119.240816 36.661134 
L 122.657143 41.22079 
L 126.073469 46.183356 
L 129.489796 49.262957 
L 132.906122 54.280066 
L 136.322449 57.469627 
L 139.738776 61.279584 
L 143.155102 63.537081 
L 146.571429 65.071109 
L 149.987755 66.69051 
L 153.404082 67.264145 
L 156.820408 67.68 
L 160.236735 67.62895 
L 163.653061 67.234846 
L 167.069388 66.776875 
L 170.485714 66.171024 
L 173.902041 65.616164 
L 177.318367 65.245737 
L 180.734694 65.072005 
L 184.15102 65.064379 
L 187.567347 65.064321 
L 190.983673 65.06432 
L 194.4 65.06432 
" style="fill:none;stroke:#fc8d62;stroke-dasharray:1.5,2.475;stroke-dashoffset:0;stroke-opacity:0.5;stroke-width:1.5;"/>
   </g>
   <g id="patch_3">
    <path d="M 112.408163 67.68 
L 112.408163 17.28 
" style="fill:none;stroke:#a9a9a9;stroke-linecap:square;stroke-linejoin:miter;stroke-width:2;"/>
   </g>
   <g id="patch_4">
    <path d="M 194.4 67.68 
L 194.4 17.28 
" style="fill:none;"/>
   </g>
   <g id="patch_5">
    <path d="M 27 65.06432 
L 194.4 65.06432 
" style="fill:none;stroke:#a9a9a9;stroke-linecap:square;stroke-linejoin:miter;stroke-width:2;"/>
   </g>
   <g id="patch_6">
    <path d="M 27 17.28 
L 194.4 17.28 
" style="fill:none;"/>
   </g>
   <g id="legend_1">
    <g id="line2d_8">
     <path d="M 152.47 26.448906 
L 166.47 26.448906 
" style="fill:none;stroke:#fc8d62;stroke-linecap:square;stroke-width:2;"/>
    </g>
    <g id="line2d_9"/>
    <g id="text_1">
     <!-- $\theta$ -->
     <g transform="translate(172.07 28.898906)scale(0.07 -0.07)">
      <defs>
       <path d="M 45.515625 34.671875 
L 14.453125 34.671875 
Q 12.359375 20.0625 14.5 13.875 
Q 17.1875 6.25 24.46875 6.25 
Q 31.78125 6.25 37.359375 13.921875 
Q 42.234375 20.65625 45.515625 34.671875 
z
M 47.015625 42.96875 
Q 48.34375 56.84375 46.625 61.71875 
Q 43.953125 69.4375 36.765625 69.4375 
Q 29.296875 69.4375 23.828125 61.8125 
Q 19.53125 55.671875 16.15625 42.96875 
z
M 38.1875 76.765625 
Q 49.90625 76.765625 54.59375 66.40625 
Q 59.28125 56.109375 55.71875 37.84375 
Q 52.203125 19.625 43.453125 9.28125 
Q 34.765625 -1.125 23.046875 -1.125 
Q 11.28125 -1.125 6.640625 9.28125 
Q 2 19.625 5.515625 37.84375 
Q 9.078125 56.109375 17.71875 66.40625 
Q 26.421875 76.765625 38.1875 76.765625 
z
" id="DejaVuSans-Oblique-952"/>
      </defs>
      <use transform="translate(0 0.234375)" xlink:href="#DejaVuSans-Oblique-952"/>
     </g>
    </g>
    <g id="line2d_10">
     <path d="M 152.47 36.723594 
L 166.47 36.723594 
" style="fill:none;stroke:#fc8d62;stroke-dasharray:1.5,2.475;stroke-dashoffset:0;stroke-opacity:0.5;stroke-width:1.5;"/>
    </g>
    <g id="line2d_11"/>
    <g id="text_2">
     <!-- No $\theta$ -->
     <g transform="translate(172.07 39.173594)scale(0.07 -0.07)">
      <defs>
       <path d="M 9.8125 72.90625 
L 23.09375 72.90625 
L 55.421875 11.921875 
L 55.421875 72.90625 
L 64.984375 72.90625 
L 64.984375 0 
L 51.703125 0 
L 19.390625 60.984375 
L 19.390625 0 
L 9.8125 0 
z
" id="DejaVuSans-78"/>
       <path d="M 30.609375 48.390625 
Q 23.390625 48.390625 19.1875 42.75 
Q 14.984375 37.109375 14.984375 27.296875 
Q 14.984375 17.484375 19.15625 11.84375 
Q 23.34375 6.203125 30.609375 6.203125 
Q 37.796875 6.203125 41.984375 11.859375 
Q 46.1875 17.53125 46.1875 27.296875 
Q 46.1875 37.015625 41.984375 42.703125 
Q 37.796875 48.390625 30.609375 48.390625 
z
M 30.609375 56 
Q 42.328125 56 49.015625 48.375 
Q 55.71875 40.765625 55.71875 27.296875 
Q 55.71875 13.875 49.015625 6.21875 
Q 42.328125 -1.421875 30.609375 -1.421875 
Q 18.84375 -1.421875 12.171875 6.21875 
Q 5.515625 13.875 5.515625 27.296875 
Q 5.515625 40.765625 12.171875 48.375 
Q 18.84375 56 30.609375 56 
z
" id="DejaVuSans-111"/>
       <path id="DejaVuSans-32"/>
      </defs>
      <use transform="translate(0 0.234375)" xlink:href="#DejaVuSans-78"/>
      <use transform="translate(74.804688 0.234375)" xlink:href="#DejaVuSans-111"/>
      <use transform="translate(135.986328 0.234375)" xlink:href="#DejaVuSans-32"/>
      <use transform="translate(167.773438 0.234375)" xlink:href="#DejaVuSans-Oblique-952"/>
     </g>
    </g>
   </g>
  </g>
  <g id="axes_2">
   <g id="patch_7">
    <path d="M 27 128.16 
L 194.4 128.16 
L 194.4 77.76 
L 27 77.76 
z
" style="fill:none;"/>
   </g>
   <g id="PolyCollection_2">
    <path clip-path="url(#pc5d82dcdd9)" d="M 27 121.082639 
L 27 121.006926 
L 30.416327 121.304557 
L 33.832653 121.459732 
L 37.24898 121.49109 
L 40.665306 121.459335 
L 44.081633 121.45507 
L 47.497959 121.533215 
L 50.914286 121.535512 
L 54.330612 121.280216 
L 57.746939 120.620731 
L 61.163265 119.442335 
L 64.579592 117.673238 
L 67.995918 115.29214 
L 71.412245 112.320121 
L 74.828571 108.815707 
L 78.244898 104.873428 
L 81.661224 100.620341 
L 85.077551 96.212699 
L 88.493878 91.831681 
L 91.910204 87.678363 
L 95.326531 83.968337 
L 98.742857 80.92628 
L 102.159184 78.780838 
L 105.57551 77.76 
L 108.991837 78.087087 
L 112.408163 79.968023 
L 115.82449 83.517358 
L 119.240816 88.316488 
L 122.657143 93.890537 
L 126.073469 99.799807 
L 129.489796 105.662677 
L 132.906122 111.164085 
L 136.322449 116.059457 
L 139.738776 120.175057 
L 143.155102 123.406436 
L 146.571429 125.715881 
L 149.987755 127.127448 
L 153.404082 127.716097 
L 156.820408 127.594142 
L 160.236735 126.900068 
L 163.653061 125.789279 
L 167.069388 124.426578 
L 170.485714 122.97957 
L 173.902041 121.613557 
L 177.318367 120.489939 
L 180.734694 119.771309 
L 184.15102 119.566176 
L 187.567347 119.746401 
L 190.983673 120.138061 
L 194.4 120.594857 
L 194.4 120.697769 
L 194.4 120.697769 
L 190.983673 120.267299 
L 187.567347 119.89577 
L 184.15102 119.726259 
L 180.734694 119.934456 
L 177.318367 120.660745 
L 173.902041 121.814058 
L 170.485714 123.230621 
L 167.069388 124.735834 
L 163.653061 126.152211 
L 160.236735 127.304451 
L 156.820408 128.024753 
L 153.404082 128.16 
L 149.987755 127.580679 
L 146.571429 126.18977 
L 143.155102 123.930171 
L 139.738776 120.78898 
L 136.322449 116.802822 
L 132.906122 112.066894 
L 129.489796 106.743073 
L 126.073469 101.064244 
L 122.657143 95.334335 
L 119.240816 89.924319 
L 115.82449 85.263855 
L 112.408163 81.818486 
L 108.991837 79.999326 
L 105.57551 79.688992 
L 102.159184 80.681542 
L 98.742857 82.755646 
L 95.326531 85.68715 
L 91.910204 89.252906 
L 88.493878 93.235206 
L 85.077551 97.426653 
L 81.661224 101.635193 
L 78.244898 105.68906 
L 74.828571 109.441264 
L 71.412245 112.773455 
L 67.995918 115.599377 
L 64.579592 117.867301 
L 61.163265 119.563552 
L 57.746939 120.71139 
L 54.330612 121.365242 
L 50.914286 121.618776 
L 47.497959 121.614101 
L 44.081633 121.533659 
L 40.665306 121.531317 
L 37.24898 121.551816 
L 33.832653 121.511027 
L 30.416327 121.360019 
L 27 121.082639 
z
" style="fill:#66c2a5;fill-opacity:0.5;"/>
   </g>
   <g id="matplotlib.axis_3">
    <g id="xtick_6">
     <g id="line2d_12">
      <g>
       <use style="fill:#a9a9a9;stroke:#a9a9a9;stroke-width:2;" x="44.081633" xlink:href="#m8b456021b1" y="122.134942"/>
      </g>
     </g>
    </g>
    <g id="xtick_7">
     <g id="line2d_13">
      <g>
       <use style="fill:#a9a9a9;stroke:#a9a9a9;stroke-width:2;" x="78.244898" xlink:href="#m8b456021b1" y="122.134942"/>
      </g>
     </g>
    </g>
    <g id="xtick_8">
     <g id="line2d_14">
      <g>
       <use style="fill:#a9a9a9;stroke:#a9a9a9;stroke-width:2;" x="112.408163" xlink:href="#m8b456021b1" y="122.134942"/>
      </g>
     </g>
    </g>
    <g id="xtick_9">
     <g id="line2d_15">
      <g>
       <use style="fill:#a9a9a9;stroke:#a9a9a9;stroke-width:2;" x="146.571429" xlink:href="#m8b456021b1" y="122.134942"/>
      </g>
     </g>
    </g>
    <g id="xtick_10">
     <g id="line2d_16">
      <g>
       <use style="fill:#a9a9a9;stroke:#a9a9a9;stroke-width:2;" x="180.734694" xlink:href="#m8b456021b1" y="122.134942"/>
      </g>
     </g>
    </g>
   </g>
   <g id="matplotlib.axis_4"/>
   <g id="line2d_17">
    <path clip-path="url(#pc5d82dcdd9)" d="M 27 121.044782 
L 30.416327 121.332288 
L 33.832653 121.485379 
L 37.24898 121.521453 
L 40.665306 121.495326 
L 44.081633 121.494365 
L 47.497959 121.573658 
L 50.914286 121.577144 
L 54.330612 121.322729 
L 57.746939 120.66606 
L 61.163265 119.502943 
L 64.579592 117.770269 
L 67.995918 115.445758 
L 71.412245 112.546788 
L 74.828571 109.128486 
L 78.244898 105.281244 
L 81.661224 101.127767 
L 85.077551 96.819676 
L 88.493878 92.533443 
L 91.910204 88.465634 
L 95.326531 84.827743 
L 98.742857 81.840963 
L 102.159184 79.73119 
L 105.57551 78.724496 
L 108.991837 79.043206 
L 112.408163 80.893255 
L 115.82449 84.390606 
L 119.240816 89.120403 
L 122.657143 94.612436 
L 126.073469 100.432025 
L 129.489796 106.202875 
L 132.906122 111.61549 
L 136.322449 116.431139 
L 139.738776 120.482019 
L 143.155102 123.668304 
L 146.571429 125.952825 
L 149.987755 127.354064 
L 153.404082 127.938049 
L 156.820408 127.809448 
L 160.236735 127.102259 
L 163.653061 125.970745 
L 167.069388 124.581206 
L 170.485714 123.105096 
L 173.902041 121.713808 
L 177.318367 120.575342 
L 180.734694 119.852882 
L 184.15102 119.646218 
L 187.567347 119.821085 
L 190.983673 120.20268 
L 194.4 120.646313 
" style="fill:none;stroke:#66c2a5;stroke-linecap:square;stroke-width:2;"/>
   </g>
   <g id="patch_8">
    <path d="M 112.408163 128.16 
L 112.408163 77.76 
" style="fill:none;stroke:#a9a9a9;stroke-linecap:square;stroke-linejoin:miter;stroke-width:2;"/>
   </g>
   <g id="patch_9">
    <path d="M 194.4 128.16 
L 194.4 77.76 
" style="fill:none;"/>
   </g>
   <g id="patch_10">
    <path d="M 27 122.134942 
L 194.4 122.134942 
" style="fill:none;stroke:#a9a9a9;stroke-linecap:square;stroke-linejoin:miter;stroke-width:2;"/>
   </g>
   <g id="patch_11">
    <path d="M 27 77.76 
L 194.4 77.76 
" style="fill:none;"/>
   </g>
  </g>
 </g>
 <defs>
  <clipPath id="peb5282bc51">
   <rect height="50.4" width="167.4" x="27" y="17.28"/>
  </clipPath>
  <clipPath id="pc5d82dcdd9">
   <rect height="50.4" width="167.4" x="27" y="77.76"/>
  </clipPath>
 </defs>
</svg>
