<?xml version="1.0" encoding="utf-8" standalone="no"?>
<!DOCTYPE svg PUBLIC "-//W3C//DTD SVG 1.1//EN"
  "http://www.w3.org/Graphics/SVG/1.1/DTD/svg11.dtd">
<!-- Created with matplotlib (https://matplotlib.org/) -->
<svg height="144pt" version="1.1" viewBox="0 0 216 144" width="216pt" xmlns="http://www.w3.org/2000/svg" xmlns:xlink="http://www.w3.org/1999/xlink">
 <metadata>
  <rdf:RDF xmlns:cc="http://creativecommons.org/ns#" xmlns:dc="http://purl.org/dc/elements/1.1/" xmlns:rdf="http://www.w3.org/1999/02/22-rdf-syntax-ns#">
   <cc:Work>
    <dc:type rdf:resource="http://purl.org/dc/dcmitype/StillImage"/>
    <dc:date>2021-09-28T21:35:16.123260</dc:date>
    <dc:format>image/svg+xml</dc:format>
    <dc:creator>
     <cc:Agent>
      <dc:title>Matplotlib v3.3.2, https://matplotlib.org/</dc:title>
     </cc:Agent>
    </dc:creator>
   </cc:Work>
  </rdf:RDF>
 </metadata>
 <defs>
  <style type="text/css">*{stroke-linecap:butt;stroke-linejoin:round;}</style>
 </defs>
 <g id="figure_1">
  <g id="patch_1">
   <path d="M 0 144 
L 216 144 
L 216 0 
L 0 0 
z
" style="fill:none;"/>
  </g>
  <g id="axes_1">
   <g id="patch_2">
    <path d="M 27 67.68 
L 194.4 67.68 
L 194.4 17.28 
L 27 17.28 
z
" style="fill:none;"/>
   </g>
   <g id="PolyCollection_1">
    <path clip-path="url(#pafe6ad1ef6)" d="M 27 66.853043 
L 27 66.853043 
L 30.416327 66.853043 
L 33.832653 66.853043 
L 37.24898 66.853043 
L 40.665306 66.853043 
L 44.081633 66.84994 
L 47.497959 66.682755 
L 50.914286 66.154935 
L 54.330612 65.333935 
L 57.746939 63.97275 
L 61.163265 62.7104 
L 64.579592 60.341083 
L 67.995918 57.654232 
L 71.412245 54.506948 
L 74.828571 49.778213 
L 78.244898 46.868832 
L 81.661224 42.454463 
L 85.077551 38.120157 
L 88.493878 34.800174 
L 91.910204 30.500397 
L 95.326531 24.683034 
L 98.742857 22.605888 
L 102.159184 19.461625 
L 105.57551 17.823429 
L 108.991837 17.28 
L 112.408163 24.458646 
L 115.82449 23.549168 
L 119.240816 22.803006 
L 122.657143 25.645206 
L 126.073469 30.668634 
L 129.489796 34.418864 
L 132.906122 38.382955 
L 136.322449 43.558142 
L 139.738776 46.639369 
L 143.155102 49.583739 
L 146.571429 54.166558 
L 149.987755 57.182601 
L 153.404082 59.293848 
L 156.820408 61.776615 
L 160.236735 63.249762 
L 163.653061 64.957772 
L 167.069388 65.396719 
L 170.485714 66.17376 
L 173.902041 66.55812 
L 177.318367 66.749497 
L 180.734694 66.851254 
L 184.15102 66.853043 
L 187.567347 66.853043 
L 190.983673 66.853043 
L 194.4 66.853043 
L 194.4 66.853043 
L 194.4 66.853043 
L 190.983673 66.853043 
L 187.567347 66.853043 
L 184.15102 66.853043 
L 180.734694 66.855836 
L 177.318367 66.987839 
L 173.902041 67.286749 
L 170.485714 67.483503 
L 167.069388 67.68 
L 163.653061 67.095459 
L 160.236735 66.835933 
L 156.820408 65.901866 
L 153.404082 64.845461 
L 149.987755 64.020943 
L 146.571429 61.049451 
L 143.155102 58.499851 
L 139.738776 55.381627 
L 136.322449 51.198632 
L 132.906122 48.284866 
L 129.489796 46.621819 
L 126.073469 42.406823 
L 122.657143 39.702176 
L 119.240816 36.751727 
L 115.82449 34.627071 
L 112.408163 26.539211 
L 108.991837 28.468638 
L 105.57551 32.435625 
L 102.159184 33.544618 
L 98.742857 34.224618 
L 95.326531 36.855805 
L 91.910204 39.896345 
L 88.493878 42.628266 
L 85.077551 47.430477 
L 81.661224 51.487006 
L 78.244898 53.438216 
L 74.828571 56.825037 
L 71.412245 59.898429 
L 67.995918 61.983335 
L 64.579592 63.929685 
L 61.163265 64.898859 
L 57.746939 66.281406 
L 54.330612 66.648295 
L 50.914286 66.893317 
L 47.497959 66.925684 
L 44.081633 66.855032 
L 40.665306 66.853043 
L 37.24898 66.853043 
L 33.832653 66.853043 
L 30.416327 66.853043 
L 27 66.853043 
z
" style="fill:#fc8d62;fill-opacity:0.5;"/>
   </g>
   <g id="matplotlib.axis_1">
    <g id="xtick_1">
     <g id="line2d_1">
      <defs>
       <path d="M 0 0 
L 0 3.5 
" id="m20a243642d" style="stroke:#a9a9a9;stroke-width:2;"/>
      </defs>
      <g>
       <use style="fill:#a9a9a9;stroke:#a9a9a9;stroke-width:2;" x="44.081633" xlink:href="#m20a243642d" y="66.853043"/>
      </g>
     </g>
    </g>
    <g id="xtick_2">
     <g id="line2d_2">
      <g>
       <use style="fill:#a9a9a9;stroke:#a9a9a9;stroke-width:2;" x="78.244898" xlink:href="#m20a243642d" y="66.853043"/>
      </g>
     </g>
    </g>
    <g id="xtick_3">
     <g id="line2d_3">
      <g>
       <use style="fill:#a9a9a9;stroke:#a9a9a9;stroke-width:2;" x="112.408163" xlink:href="#m20a243642d" y="66.853043"/>
      </g>
     </g>
    </g>
    <g id="xtick_4">
     <g id="line2d_4">
      <g>
       <use style="fill:#a9a9a9;stroke:#a9a9a9;stroke-width:2;" x="146.571429" xlink:href="#m20a243642d" y="66.853043"/>
      </g>
     </g>
    </g>
    <g id="xtick_5">
     <g id="line2d_5">
      <g>
       <use style="fill:#a9a9a9;stroke:#a9a9a9;stroke-width:2;" x="180.734694" xlink:href="#m20a243642d" y="66.853043"/>
      </g>
     </g>
    </g>
   </g>
   <g id="matplotlib.axis_2"/>
   <g id="line2d_6">
    <path clip-path="url(#pafe6ad1ef6)" d="M 27 66.853043 
L 30.416327 66.853043 
L 33.832653 66.853043 
L 37.24898 66.853043 
L 40.665306 66.853043 
L 44.081633 66.852486 
L 47.497959 66.80422 
L 50.914286 66.524126 
L 54.330612 65.991115 
L 57.746939 65.127078 
L 61.163265 63.80463 
L 64.579592 62.135384 
L 67.995918 59.818784 
L 71.412245 57.202688 
L 74.828571 53.301625 
L 78.244898 50.153524 
L 81.661224 46.970735 
L 85.077551 42.775317 
L 88.493878 38.71422 
L 91.910204 35.198371 
L 95.326531 30.76942 
L 98.742857 28.415253 
L 102.159184 26.503121 
L 105.57551 25.129527 
L 108.991837 22.874319 
L 112.408163 25.498929 
L 115.82449 29.08812 
L 119.240816 29.777367 
L 122.657143 32.673691 
L 126.073469 36.537728 
L 129.489796 40.520341 
L 132.906122 43.333911 
L 136.322449 47.378387 
L 139.738776 51.010498 
L 143.155102 54.041795 
L 146.571429 57.608004 
L 149.987755 60.601772 
L 153.404082 62.069655 
L 156.820408 63.83924 
L 160.236735 65.042848 
L 163.653061 66.026615 
L 167.069388 66.53836 
L 170.485714 66.828632 
L 173.902041 66.922434 
L 177.318367 66.868668 
L 180.734694 66.853545 
L 184.15102 66.853043 
L 187.567347 66.853043 
L 190.983673 66.853043 
L 194.4 66.853043 
" style="fill:none;stroke:#fc8d62;stroke-linecap:square;stroke-width:2;"/>
   </g>
   <g id="line2d_7">
    <path clip-path="url(#pafe6ad1ef6)" d="M 27 66.853043 
L 30.416327 66.853043 
L 33.832653 66.853043 
L 37.24898 66.853043 
L 40.665306 66.853043 
L 44.081633 66.85301 
L 47.497959 66.781574 
L 50.914286 66.449449 
L 54.330612 66.198386 
L 57.746939 65.327649 
L 61.163265 63.578802 
L 64.579592 61.95502 
L 67.995918 59.775112 
L 71.412245 57.158526 
L 74.828571 54.479788 
L 78.244898 50.144512 
L 81.661224 46.309347 
L 85.077551 43.619975 
L 88.493878 38.896134 
L 91.910204 35.609151 
L 95.326531 32.50389 
L 98.742857 28.495784 
L 102.159184 29.700985 
L 105.57551 26.514322 
L 108.991837 22.874319 
L 112.408163 25.159957 
L 115.82449 28.397979 
L 119.240816 27.879149 
L 122.657143 28.908054 
L 126.073469 35.79186 
L 129.489796 38.417642 
L 132.906122 42.621261 
L 136.322449 46.858421 
L 139.738776 49.63851 
L 143.155102 54.302558 
L 146.571429 57.376755 
L 149.987755 59.151589 
L 153.404082 61.860084 
L 156.820408 63.77098 
L 160.236735 65.164204 
L 163.653061 66.246119 
L 167.069388 66.353211 
L 170.485714 66.631771 
L 173.902041 66.994452 
L 177.318367 66.889313 
L 180.734694 66.853074 
L 184.15102 66.853043 
L 187.567347 66.853043 
L 190.983673 66.853043 
L 194.4 66.853043 
" style="fill:none;stroke:#fc8d62;stroke-dasharray:1.5,2.475;stroke-dashoffset:0;stroke-opacity:0.5;stroke-width:1.5;"/>
   </g>
   <g id="patch_3">
    <path d="M 112.408163 67.68 
L 112.408163 17.28 
" style="fill:none;stroke:#a9a9a9;stroke-linecap:square;stroke-linejoin:miter;stroke-width:2;"/>
   </g>
   <g id="patch_4">
    <path d="M 194.4 67.68 
L 194.4 17.28 
" style="fill:none;"/>
   </g>
   <g id="patch_5">
    <path d="M 27 66.853043 
L 194.4 66.853043 
" style="fill:none;stroke:#a9a9a9;stroke-linecap:square;stroke-linejoin:miter;stroke-width:2;"/>
   </g>
   <g id="patch_6">
    <path d="M 27 17.28 
L 194.4 17.28 
" style="fill:none;"/>
   </g>
   <g id="legend_1">
    <g id="line2d_8">
     <path d="M 152.47 26.448906 
L 166.47 26.448906 
" style="fill:none;stroke:#fc8d62;stroke-linecap:square;stroke-width:2;"/>
    </g>
    <g id="line2d_9"/>
    <g id="text_1">
     <!-- $\theta$ -->
     <g transform="translate(172.07 28.898906)scale(0.07 -0.07)">
      <defs>
       <path d="M 45.515625 34.671875 
L 14.453125 34.671875 
Q 12.359375 20.0625 14.5 13.875 
Q 17.1875 6.25 24.46875 6.25 
Q 31.78125 6.25 37.359375 13.921875 
Q 42.234375 20.65625 45.515625 34.671875 
z
M 47.015625 42.96875 
Q 48.34375 56.84375 46.625 61.71875 
Q 43.953125 69.4375 36.765625 69.4375 
Q 29.296875 69.4375 23.828125 61.8125 
Q 19.53125 55.671875 16.15625 42.96875 
z
M 38.1875 76.765625 
Q 49.90625 76.765625 54.59375 66.40625 
Q 59.28125 56.109375 55.71875 37.84375 
Q 52.203125 19.625 43.453125 9.28125 
Q 34.765625 -1.125 23.046875 -1.125 
Q 11.28125 -1.125 6.640625 9.28125 
Q 2 19.625 5.515625 37.84375 
Q 9.078125 56.109375 17.71875 66.40625 
Q 26.421875 76.765625 38.1875 76.765625 
z
" id="DejaVuSans-Oblique-952"/>
      </defs>
      <use transform="translate(0 0.234375)" xlink:href="#DejaVuSans-Oblique-952"/>
     </g>
    </g>
    <g id="line2d_10">
     <path d="M 152.47 36.723594 
L 166.47 36.723594 
" style="fill:none;stroke:#fc8d62;stroke-dasharray:1.5,2.475;stroke-dashoffset:0;stroke-opacity:0.5;stroke-width:1.5;"/>
    </g>
    <g id="line2d_11"/>
    <g id="text_2">
     <!-- No $\theta$ -->
     <g transform="translate(172.07 39.173594)scale(0.07 -0.07)">
      <defs>
       <path d="M 9.8125 72.90625 
L 23.09375 72.90625 
L 55.421875 11.921875 
L 55.421875 72.90625 
L 64.984375 72.90625 
L 64.984375 0 
L 51.703125 0 
L 19.390625 60.984375 
L 19.390625 0 
L 9.8125 0 
z
" id="DejaVuSans-78"/>
       <path d="M 30.609375 48.390625 
Q 23.390625 48.390625 19.1875 42.75 
Q 14.984375 37.109375 14.984375 27.296875 
Q 14.984375 17.484375 19.15625 11.84375 
Q 23.34375 6.203125 30.609375 6.203125 
Q 37.796875 6.203125 41.984375 11.859375 
Q 46.1875 17.53125 46.1875 27.296875 
Q 46.1875 37.015625 41.984375 42.703125 
Q 37.796875 48.390625 30.609375 48.390625 
z
M 30.609375 56 
Q 42.328125 56 49.015625 48.375 
Q 55.71875 40.765625 55.71875 27.296875 
Q 55.71875 13.875 49.015625 6.21875 
Q 42.328125 -1.421875 30.609375 -1.421875 
Q 18.84375 -1.421875 12.171875 6.21875 
Q 5.515625 13.875 5.515625 27.296875 
Q 5.515625 40.765625 12.171875 48.375 
Q 18.84375 56 30.609375 56 
z
" id="DejaVuSans-111"/>
       <path id="DejaVuSans-32"/>
      </defs>
      <use transform="translate(0 0.234375)" xlink:href="#DejaVuSans-78"/>
      <use transform="translate(74.804688 0.234375)" xlink:href="#DejaVuSans-111"/>
      <use transform="translate(135.986328 0.234375)" xlink:href="#DejaVuSans-32"/>
      <use transform="translate(167.773438 0.234375)" xlink:href="#DejaVuSans-Oblique-952"/>
     </g>
    </g>
   </g>
  </g>
  <g id="axes_2">
   <g id="patch_7">
    <path d="M 27 128.16 
L 194.4 128.16 
L 194.4 77.76 
L 27 77.76 
z
" style="fill:none;"/>
   </g>
   <g id="PolyCollection_2">
    <path clip-path="url(#pb7c3cb5389)" d="M 27 119.945761 
L 27 119.854183 
L 30.416327 119.978402 
L 33.832653 119.956625 
L 37.24898 119.788672 
L 40.665306 119.509744 
L 44.081633 119.183615 
L 47.497959 118.850455 
L 50.914286 118.382983 
L 54.330612 117.635786 
L 57.746939 116.496512 
L 61.163265 114.88804 
L 64.579592 112.77095 
L 67.995918 110.145158 
L 71.412245 107.04878 
L 74.828571 103.554523 
L 78.244898 99.765869 
L 81.661224 95.812629 
L 85.077551 91.84669 
L 88.493878 88.03698 
L 91.910204 84.564135 
L 95.326531 81.614892 
L 98.742857 79.376784 
L 102.159184 78.033321 
L 105.57551 77.76 
L 108.991837 78.721261 
L 112.408163 81.060946 
L 115.82449 84.843762 
L 119.240816 89.700705 
L 122.657143 95.212236 
L 126.073469 100.984663 
L 129.489796 106.671646 
L 132.906122 111.983814 
L 136.322449 116.694364 
L 139.738776 120.641264 
L 143.155102 123.72721 
L 146.571429 125.918093 
L 149.987755 127.23815 
L 153.404082 127.760278 
L 156.820408 127.593411 
L 160.236735 126.871879 
L 163.653061 125.746062 
L 167.069388 124.374492 
L 170.485714 122.916685 
L 173.902041 121.527736 
L 177.318367 120.355886 
L 180.734694 119.544065 
L 184.15102 119.183955 
L 187.567347 119.171833 
L 190.983673 119.361546 
L 194.4 119.62376 
L 194.4 119.736429 
L 194.4 119.736429 
L 190.983673 119.496464 
L 187.567347 119.324741 
L 184.15102 119.348286 
L 180.734694 119.715278 
L 177.318367 120.538006 
L 173.902041 121.735199 
L 170.485714 123.163422 
L 167.069388 124.666251 
L 163.653061 126.07987 
L 160.236735 127.238674 
L 156.820408 127.981622 
L 153.404082 128.16 
L 149.987755 127.64677 
L 146.571429 126.345723 
L 143.155102 124.199318 
L 139.738776 121.193222 
L 136.322449 117.361565 
L 132.906122 112.794105 
L 129.489796 107.642631 
L 126.073469 102.123557 
L 122.657143 96.516361 
L 119.240816 91.158025 
L 115.82449 86.433422 
L 112.408163 82.753981 
L 108.991837 80.4822 
L 105.57551 79.550133 
L 102.159184 79.81318 
L 98.742857 81.107986 
L 95.326531 83.261874 
L 91.910204 86.095764 
L 88.493878 89.428027 
L 85.077551 93.079029 
L 81.661224 96.876169 
L 78.244898 100.658972 
L 74.828571 104.284111 
L 71.412245 107.629764 
L 67.995918 110.599727 
L 64.579592 113.126441 
L 61.163265 115.173578 
L 57.746939 116.73739 
L 54.330612 117.848733 
L 50.914286 118.575716 
L 47.497959 119.024625 
L 44.081633 119.337562 
L 40.665306 119.640195 
L 37.24898 119.894489 
L 33.832653 120.042829 
L 30.416327 120.058717 
L 27 119.945761 
z
" style="fill:#66c2a5;fill-opacity:0.5;"/>
   </g>
   <g id="matplotlib.axis_3">
    <g id="xtick_6">
     <g id="line2d_12">
      <g>
       <use style="fill:#a9a9a9;stroke:#a9a9a9;stroke-width:2;" x="44.081633" xlink:href="#m20a243642d" y="122.337985"/>
      </g>
     </g>
    </g>
    <g id="xtick_7">
     <g id="line2d_13">
      <g>
       <use style="fill:#a9a9a9;stroke:#a9a9a9;stroke-width:2;" x="78.244898" xlink:href="#m20a243642d" y="122.337985"/>
      </g>
     </g>
    </g>
    <g id="xtick_8">
     <g id="line2d_14">
      <g>
       <use style="fill:#a9a9a9;stroke:#a9a9a9;stroke-width:2;" x="112.408163" xlink:href="#m20a243642d" y="122.337985"/>
      </g>
     </g>
    </g>
    <g id="xtick_9">
     <g id="line2d_15">
      <g>
       <use style="fill:#a9a9a9;stroke:#a9a9a9;stroke-width:2;" x="146.571429" xlink:href="#m20a243642d" y="122.337985"/>
      </g>
     </g>
    </g>
    <g id="xtick_10">
     <g id="line2d_16">
      <g>
       <use style="fill:#a9a9a9;stroke:#a9a9a9;stroke-width:2;" x="180.734694" xlink:href="#m20a243642d" y="122.337985"/>
      </g>
     </g>
    </g>
   </g>
   <g id="matplotlib.axis_4"/>
   <g id="line2d_17">
    <path clip-path="url(#pb7c3cb5389)" d="M 27 119.899972 
L 30.416327 120.01856 
L 33.832653 119.999727 
L 37.24898 119.841581 
L 40.665306 119.57497 
L 44.081633 119.260588 
L 47.497959 118.93754 
L 50.914286 118.479349 
L 54.330612 117.742259 
L 57.746939 116.616951 
L 61.163265 115.030809 
L 64.579592 112.948695 
L 67.995918 110.372442 
L 71.412245 107.339272 
L 74.828571 103.919317 
L 78.244898 100.212421 
L 81.661224 96.344399 
L 85.077551 92.46286 
L 88.493878 88.732504 
L 91.910204 85.32995 
L 95.326531 82.438383 
L 98.742857 80.242385 
L 102.159184 78.923251 
L 105.57551 78.655067 
L 108.991837 79.60173 
L 112.408163 81.907463 
L 115.82449 85.638592 
L 119.240816 90.429365 
L 122.657143 95.864298 
L 126.073469 101.55411 
L 129.489796 107.157138 
L 132.906122 112.388959 
L 136.322449 117.027964 
L 139.738776 120.917243 
L 143.155102 123.963264 
L 146.571429 126.131908 
L 149.987755 127.44246 
L 153.404082 127.960139 
L 156.820408 127.787517 
L 160.236735 127.055276 
L 163.653061 125.912966 
L 167.069388 124.520371 
L 170.485714 123.040053 
L 173.902041 121.631468 
L 177.318367 120.446946 
L 180.734694 119.629671 
L 184.15102 119.26612 
L 187.567347 119.248287 
L 190.983673 119.429005 
L 194.4 119.680094 
" style="fill:none;stroke:#66c2a5;stroke-linecap:square;stroke-width:2;"/>
   </g>
   <g id="patch_8">
    <path d="M 112.408163 128.16 
L 112.408163 77.76 
" style="fill:none;stroke:#a9a9a9;stroke-linecap:square;stroke-linejoin:miter;stroke-width:2;"/>
   </g>
   <g id="patch_9">
    <path d="M 194.4 128.16 
L 194.4 77.76 
" style="fill:none;"/>
   </g>
   <g id="patch_10">
    <path d="M 27 122.337985 
L 194.4 122.337985 
" style="fill:none;stroke:#a9a9a9;stroke-linecap:square;stroke-linejoin:miter;stroke-width:2;"/>
   </g>
   <g id="patch_11">
    <path d="M 27 77.76 
L 194.4 77.76 
" style="fill:none;"/>
   </g>
  </g>
 </g>
 <defs>
  <clipPath id="pafe6ad1ef6">
   <rect height="50.4" width="167.4" x="27" y="17.28"/>
  </clipPath>
  <clipPath id="pb7c3cb5389">
   <rect height="50.4" width="167.4" x="27" y="77.76"/>
  </clipPath>
 </defs>
</svg>
