<?xml version="1.0" encoding="utf-8" standalone="no"?>
<!DOCTYPE svg PUBLIC "-//W3C//DTD SVG 1.1//EN"
  "http://www.w3.org/Graphics/SVG/1.1/DTD/svg11.dtd">
<!-- Created with matplotlib (https://matplotlib.org/) -->
<svg height="144pt" version="1.1" viewBox="0 0 216 144" width="216pt" xmlns="http://www.w3.org/2000/svg" xmlns:xlink="http://www.w3.org/1999/xlink">
 <metadata>
  <rdf:RDF xmlns:cc="http://creativecommons.org/ns#" xmlns:dc="http://purl.org/dc/elements/1.1/" xmlns:rdf="http://www.w3.org/1999/02/22-rdf-syntax-ns#">
   <cc:Work>
    <dc:type rdf:resource="http://purl.org/dc/dcmitype/StillImage"/>
    <dc:date>2021-09-28T21:38:46.617585</dc:date>
    <dc:format>image/svg+xml</dc:format>
    <dc:creator>
     <cc:Agent>
      <dc:title>Matplotlib v3.3.2, https://matplotlib.org/</dc:title>
     </cc:Agent>
    </dc:creator>
   </cc:Work>
  </rdf:RDF>
 </metadata>
 <defs>
  <style type="text/css">*{stroke-linecap:butt;stroke-linejoin:round;}</style>
 </defs>
 <g id="figure_1">
  <g id="patch_1">
   <path d="M 0 144 
L 216 144 
L 216 0 
L 0 0 
z
" style="fill:none;"/>
  </g>
  <g id="axes_1">
   <g id="patch_2">
    <path d="M 27 67.68 
L 194.4 67.68 
L 194.4 17.28 
L 27 17.28 
z
" style="fill:none;"/>
   </g>
   <g id="PolyCollection_1">
    <path clip-path="url(#p27320e822e)" d="M 27 67.195315 
L 27 67.195315 
L 30.416327 67.195315 
L 33.832653 67.195315 
L 37.24898 67.195315 
L 40.665306 67.195315 
L 44.081633 67.195171 
L 47.497959 66.978217 
L 50.914286 66.456287 
L 54.330612 65.859221 
L 57.746939 64.843308 
L 61.163265 62.875159 
L 64.579592 60.350234 
L 67.995918 58.330975 
L 71.412245 54.565103 
L 74.828571 51.706451 
L 78.244898 47.113965 
L 81.661224 42.940282 
L 85.077551 38.47417 
L 88.493878 33.735145 
L 91.910204 30.325239 
L 95.326531 27.504549 
L 98.742857 22.029117 
L 102.159184 19.919508 
L 105.57551 18.123558 
L 108.991837 17.28 
L 112.408163 24.694004 
L 115.82449 20.640698 
L 119.240816 22.284344 
L 122.657143 27.008396 
L 126.073469 27.704996 
L 129.489796 34.837761 
L 132.906122 39.103723 
L 136.322449 41.24093 
L 139.738776 46.682989 
L 143.155102 50.163706 
L 146.571429 53.803516 
L 149.987755 55.594613 
L 153.404082 59.103691 
L 156.820408 61.165922 
L 160.236735 63.216859 
L 163.653061 64.82136 
L 167.069388 65.346253 
L 170.485714 66.31372 
L 173.902041 66.862833 
L 177.318367 67.09187 
L 180.734694 67.195239 
L 184.15102 67.195315 
L 187.567347 67.195315 
L 190.983673 67.195315 
L 194.4 67.195315 
L 194.4 67.195315 
L 194.4 67.195315 
L 190.983673 67.195315 
L 187.567347 67.195315 
L 184.15102 67.195315 
L 180.734694 67.195446 
L 177.318367 67.376318 
L 173.902041 67.660927 
L 170.485714 67.656439 
L 167.069388 67.525628 
L 163.653061 67.68 
L 160.236735 67.332501 
L 156.820408 65.843372 
L 153.404082 65.075923 
L 149.987755 62.738383 
L 146.571429 61.074063 
L 143.155102 58.611849 
L 139.738776 55.698961 
L 136.322449 52.581212 
L 132.906122 48.788087 
L 129.489796 44.555501 
L 126.073469 43.009454 
L 122.657143 39.378432 
L 119.240816 37.133979 
L 115.82449 34.571556 
L 112.408163 26.779493 
L 108.991837 32.028416 
L 105.57551 32.468568 
L 102.159184 32.720419 
L 98.742857 37.604205 
L 95.326531 36.598917 
L 91.910204 39.751391 
L 88.493878 45.372816 
L 85.077551 47.399121 
L 81.661224 51.172549 
L 78.244898 54.26245 
L 74.828571 58.669373 
L 71.412245 60.519761 
L 67.995918 63.091563 
L 64.579592 64.502333 
L 61.163265 65.62696 
L 57.746939 67.010726 
L 54.330612 67.183554 
L 50.914286 67.262741 
L 47.497959 67.271693 
L 44.081633 67.1954 
L 40.665306 67.195315 
L 37.24898 67.195315 
L 33.832653 67.195315 
L 30.416327 67.195315 
L 27 67.195315 
z
" style="fill:#fc8d62;fill-opacity:0.5;"/>
   </g>
   <g id="matplotlib.axis_1">
    <g id="xtick_1">
     <g id="line2d_1">
      <defs>
       <path d="M 0 0 
L 0 3.5 
" id="mec527e42bb" style="stroke:#a9a9a9;stroke-width:2;"/>
      </defs>
      <g>
       <use style="fill:#a9a9a9;stroke:#a9a9a9;stroke-width:2;" x="44.081633" xlink:href="#mec527e42bb" y="67.195315"/>
      </g>
     </g>
    </g>
    <g id="xtick_2">
     <g id="line2d_2">
      <g>
       <use style="fill:#a9a9a9;stroke:#a9a9a9;stroke-width:2;" x="78.244898" xlink:href="#mec527e42bb" y="67.195315"/>
      </g>
     </g>
    </g>
    <g id="xtick_3">
     <g id="line2d_3">
      <g>
       <use style="fill:#a9a9a9;stroke:#a9a9a9;stroke-width:2;" x="112.408163" xlink:href="#mec527e42bb" y="67.195315"/>
      </g>
     </g>
    </g>
    <g id="xtick_4">
     <g id="line2d_4">
      <g>
       <use style="fill:#a9a9a9;stroke:#a9a9a9;stroke-width:2;" x="146.571429" xlink:href="#mec527e42bb" y="67.195315"/>
      </g>
     </g>
    </g>
    <g id="xtick_5">
     <g id="line2d_5">
      <g>
       <use style="fill:#a9a9a9;stroke:#a9a9a9;stroke-width:2;" x="180.734694" xlink:href="#mec527e42bb" y="67.195315"/>
      </g>
     </g>
    </g>
   </g>
   <g id="matplotlib.axis_2"/>
   <g id="line2d_6">
    <path clip-path="url(#p27320e822e)" d="M 27 67.195315 
L 30.416327 67.195315 
L 33.832653 67.195315 
L 37.24898 67.195315 
L 40.665306 67.195315 
L 44.081633 67.195285 
L 47.497959 67.124955 
L 50.914286 66.859514 
L 54.330612 66.521387 
L 57.746939 65.927017 
L 61.163265 64.251059 
L 64.579592 62.426284 
L 67.995918 60.711269 
L 71.412245 57.542432 
L 74.828571 55.187912 
L 78.244898 50.688208 
L 81.661224 47.056415 
L 85.077551 42.936645 
L 88.493878 39.55398 
L 91.910204 35.038315 
L 95.326531 32.051733 
L 98.742857 29.816661 
L 102.159184 26.319963 
L 105.57551 25.296063 
L 108.991837 24.654208 
L 112.408163 25.736749 
L 115.82449 27.606127 
L 119.240816 29.709161 
L 122.657143 33.193414 
L 126.073469 35.357225 
L 129.489796 39.696631 
L 132.906122 43.945905 
L 136.322449 46.911071 
L 139.738776 51.190975 
L 143.155102 54.387777 
L 146.571429 57.438789 
L 149.987755 59.166498 
L 153.404082 62.089807 
L 156.820408 63.504647 
L 160.236735 65.27468 
L 163.653061 66.25068 
L 167.069388 66.435941 
L 170.485714 66.985079 
L 173.902041 67.26188 
L 177.318367 67.234094 
L 180.734694 67.195342 
L 184.15102 67.195315 
L 187.567347 67.195315 
L 190.983673 67.195315 
L 194.4 67.195315 
" style="fill:none;stroke:#fc8d62;stroke-linecap:square;stroke-width:2;"/>
   </g>
   <g id="line2d_7">
    <path clip-path="url(#p27320e822e)" d="M 27 67.195315 
L 30.416327 67.195315 
L 33.832653 67.195315 
L 37.24898 67.195315 
L 40.665306 67.195315 
L 44.081633 67.1953 
L 47.497959 67.179088 
L 50.914286 66.893438 
L 54.330612 66.395773 
L 57.746939 65.569971 
L 61.163265 64.406036 
L 64.579592 62.621602 
L 67.995918 60.313894 
L 71.412245 57.82826 
L 74.828571 55.60793 
L 78.244898 50.957164 
L 81.661224 48.183863 
L 85.077551 44.48739 
L 88.493878 40.388165 
L 91.910204 34.686325 
L 95.326531 32.494048 
L 98.742857 29.298056 
L 102.159184 27.357158 
L 105.57551 24.683772 
L 108.991837 25.676478 
L 112.408163 24.654208 
L 115.82449 24.760439 
L 119.240816 28.612915 
L 122.657143 30.402558 
L 126.073469 34.374084 
L 129.489796 37.791171 
L 132.906122 43.004681 
L 136.322449 44.941259 
L 139.738776 48.653761 
L 143.155102 52.364256 
L 146.571429 56.532389 
L 149.987755 58.305459 
L 153.404082 61.540733 
L 156.820408 63.625683 
L 160.236735 64.988836 
L 163.653061 65.961366 
L 167.069388 66.686893 
L 170.485714 67.065109 
L 173.902041 67.227549 
L 177.318367 67.181679 
L 180.734694 67.195329 
L 184.15102 67.195315 
L 187.567347 67.195315 
L 190.983673 67.195315 
L 194.4 67.195315 
" style="fill:none;stroke:#fc8d62;stroke-dasharray:1.5,2.475;stroke-dashoffset:0;stroke-opacity:0.5;stroke-width:1.5;"/>
   </g>
   <g id="patch_3">
    <path d="M 112.408163 67.68 
L 112.408163 17.28 
" style="fill:none;stroke:#a9a9a9;stroke-linecap:square;stroke-linejoin:miter;stroke-width:2;"/>
   </g>
   <g id="patch_4">
    <path d="M 194.4 67.68 
L 194.4 17.28 
" style="fill:none;"/>
   </g>
   <g id="patch_5">
    <path d="M 27 67.195315 
L 194.4 67.195315 
" style="fill:none;stroke:#a9a9a9;stroke-linecap:square;stroke-linejoin:miter;stroke-width:2;"/>
   </g>
   <g id="patch_6">
    <path d="M 27 17.28 
L 194.4 17.28 
" style="fill:none;"/>
   </g>
   <g id="legend_1">
    <g id="line2d_8">
     <path d="M 152.47 26.448906 
L 166.47 26.448906 
" style="fill:none;stroke:#fc8d62;stroke-linecap:square;stroke-width:2;"/>
    </g>
    <g id="line2d_9"/>
    <g id="text_1">
     <!-- $\theta$ -->
     <g transform="translate(172.07 28.898906)scale(0.07 -0.07)">
      <defs>
       <path d="M 45.515625 34.671875 
L 14.453125 34.671875 
Q 12.359375 20.0625 14.5 13.875 
Q 17.1875 6.25 24.46875 6.25 
Q 31.78125 6.25 37.359375 13.921875 
Q 42.234375 20.65625 45.515625 34.671875 
z
M 47.015625 42.96875 
Q 48.34375 56.84375 46.625 61.71875 
Q 43.953125 69.4375 36.765625 69.4375 
Q 29.296875 69.4375 23.828125 61.8125 
Q 19.53125 55.671875 16.15625 42.96875 
z
M 38.1875 76.765625 
Q 49.90625 76.765625 54.59375 66.40625 
Q 59.28125 56.109375 55.71875 37.84375 
Q 52.203125 19.625 43.453125 9.28125 
Q 34.765625 -1.125 23.046875 -1.125 
Q 11.28125 -1.125 6.640625 9.28125 
Q 2 19.625 5.515625 37.84375 
Q 9.078125 56.109375 17.71875 66.40625 
Q 26.421875 76.765625 38.1875 76.765625 
z
" id="DejaVuSans-Oblique-952"/>
      </defs>
      <use transform="translate(0 0.234375)" xlink:href="#DejaVuSans-Oblique-952"/>
     </g>
    </g>
    <g id="line2d_10">
     <path d="M 152.47 36.723594 
L 166.47 36.723594 
" style="fill:none;stroke:#fc8d62;stroke-dasharray:1.5,2.475;stroke-dashoffset:0;stroke-opacity:0.5;stroke-width:1.5;"/>
    </g>
    <g id="line2d_11"/>
    <g id="text_2">
     <!-- No $\theta$ -->
     <g transform="translate(172.07 39.173594)scale(0.07 -0.07)">
      <defs>
       <path d="M 9.8125 72.90625 
L 23.09375 72.90625 
L 55.421875 11.921875 
L 55.421875 72.90625 
L 64.984375 72.90625 
L 64.984375 0 
L 51.703125 0 
L 19.390625 60.984375 
L 19.390625 0 
L 9.8125 0 
z
" id="DejaVuSans-78"/>
       <path d="M 30.609375 48.390625 
Q 23.390625 48.390625 19.1875 42.75 
Q 14.984375 37.109375 14.984375 27.296875 
Q 14.984375 17.484375 19.15625 11.84375 
Q 23.34375 6.203125 30.609375 6.203125 
Q 37.796875 6.203125 41.984375 11.859375 
Q 46.1875 17.53125 46.1875 27.296875 
Q 46.1875 37.015625 41.984375 42.703125 
Q 37.796875 48.390625 30.609375 48.390625 
z
M 30.609375 56 
Q 42.328125 56 49.015625 48.375 
Q 55.71875 40.765625 55.71875 27.296875 
Q 55.71875 13.875 49.015625 6.21875 
Q 42.328125 -1.421875 30.609375 -1.421875 
Q 18.84375 -1.421875 12.171875 6.21875 
Q 5.515625 13.875 5.515625 27.296875 
Q 5.515625 40.765625 12.171875 48.375 
Q 18.84375 56 30.609375 56 
z
" id="DejaVuSans-111"/>
       <path id="DejaVuSans-32"/>
      </defs>
      <use transform="translate(0 0.234375)" xlink:href="#DejaVuSans-78"/>
      <use transform="translate(74.804688 0.234375)" xlink:href="#DejaVuSans-111"/>
      <use transform="translate(135.986328 0.234375)" xlink:href="#DejaVuSans-32"/>
      <use transform="translate(167.773438 0.234375)" xlink:href="#DejaVuSans-Oblique-952"/>
     </g>
    </g>
   </g>
  </g>
  <g id="axes_2">
   <g id="patch_7">
    <path d="M 27 128.16 
L 194.4 128.16 
L 194.4 77.76 
L 27 77.76 
z
" style="fill:none;"/>
   </g>
   <g id="PolyCollection_2">
    <path clip-path="url(#p8244aec739)" d="M 27 120.507613 
L 27 120.426309 
L 30.416327 120.643495 
L 33.832653 120.715145 
L 37.24898 120.646367 
L 40.665306 120.481993 
L 44.081633 120.29605 
L 47.497959 120.134358 
L 50.914286 119.857066 
L 54.330612 119.303716 
L 57.746939 118.34797 
L 61.163265 116.899098 
L 64.579592 114.906005 
L 67.995918 112.360236 
L 71.412245 109.293443 
L 74.828571 105.773792 
L 78.244898 101.902042 
L 81.661224 97.80795 
L 85.077551 93.646064 
L 88.493878 89.590986 
L 91.910204 85.832084 
L 95.326531 82.568011 
L 98.742857 80.001282 
L 102.159184 78.333285 
L 105.57551 77.76 
L 108.991837 78.46858 
L 112.408163 80.62692 
L 115.82449 84.317121 
L 119.240816 89.152165 
L 122.657143 94.690236 
L 126.073469 100.519055 
L 129.489796 106.277764 
L 132.906122 111.666221 
L 136.322449 116.450036 
L 139.738776 120.462257 
L 143.155102 123.602742 
L 146.571429 125.836265 
L 149.987755 127.187599 
L 153.404082 127.731147 
L 156.820408 127.577961 
L 160.236735 126.864519 
L 163.653061 125.743815 
L 167.069388 124.377357 
L 170.485714 122.928263 
L 173.902041 121.555935 
L 177.318367 120.413894 
L 180.734694 119.652432 
L 184.15102 119.368888 
L 187.567347 119.450382 
L 190.983673 119.739745 
L 194.4 120.100673 
L 194.4 120.207657 
L 194.4 120.207657 
L 190.983673 119.871423 
L 187.567347 119.601225 
L 184.15102 119.531266 
L 180.734694 119.821027 
L 177.318367 120.594111 
L 173.902041 121.765349 
L 170.485714 123.183285 
L 167.069388 124.684306 
L 163.653061 126.098912 
L 160.236735 127.257137 
L 156.820408 127.994559 
L 153.404082 128.16 
L 149.987755 127.624599 
L 146.571429 126.291381 
L 143.155102 124.102696 
L 139.738776 121.044753 
L 136.322449 117.152768 
L 132.906122 112.518857 
L 129.489796 107.29912 
L 126.073469 101.716819 
L 122.657143 96.061483 
L 119.240816 90.683841 
L 115.82449 85.986553 
L 112.408163 82.402574 
L 108.991837 80.311984 
L 105.57551 79.62923 
L 102.159184 80.185841 
L 98.742857 81.79603 
L 95.326531 84.266992 
L 91.910204 87.402216 
L 88.493878 91.00558 
L 85.077551 94.886053 
L 81.661224 98.862751 
L 78.244898 102.770104 
L 74.828571 106.462696 
L 71.412245 109.81951 
L 67.995918 112.747563 
L 64.579592 115.185235 
L 61.163265 117.104246 
L 57.746939 118.51058 
L 54.330612 119.444797 
L 50.914286 119.985803 
L 47.497959 120.253154 
L 44.081633 120.403814 
L 40.665306 120.573852 
L 37.24898 120.719838 
L 33.832653 120.775115 
L 30.416327 120.705817 
L 27 120.507613 
z
" style="fill:#66c2a5;fill-opacity:0.5;"/>
   </g>
   <g id="matplotlib.axis_3">
    <g id="xtick_6">
     <g id="line2d_12">
      <g>
       <use style="fill:#a9a9a9;stroke:#a9a9a9;stroke-width:2;" x="44.081633" xlink:href="#mec527e42bb" y="122.19409"/>
      </g>
     </g>
    </g>
    <g id="xtick_7">
     <g id="line2d_13">
      <g>
       <use style="fill:#a9a9a9;stroke:#a9a9a9;stroke-width:2;" x="78.244898" xlink:href="#mec527e42bb" y="122.19409"/>
      </g>
     </g>
    </g>
    <g id="xtick_8">
     <g id="line2d_14">
      <g>
       <use style="fill:#a9a9a9;stroke:#a9a9a9;stroke-width:2;" x="112.408163" xlink:href="#mec527e42bb" y="122.19409"/>
      </g>
     </g>
    </g>
    <g id="xtick_9">
     <g id="line2d_15">
      <g>
       <use style="fill:#a9a9a9;stroke:#a9a9a9;stroke-width:2;" x="146.571429" xlink:href="#mec527e42bb" y="122.19409"/>
      </g>
     </g>
    </g>
    <g id="xtick_10">
     <g id="line2d_16">
      <g>
       <use style="fill:#a9a9a9;stroke:#a9a9a9;stroke-width:2;" x="180.734694" xlink:href="#mec527e42bb" y="122.19409"/>
      </g>
     </g>
    </g>
   </g>
   <g id="matplotlib.axis_4"/>
   <g id="line2d_17">
    <path clip-path="url(#p8244aec739)" d="M 27 120.466961 
L 30.416327 120.674656 
L 33.832653 120.74513 
L 37.24898 120.683102 
L 40.665306 120.527923 
L 44.081633 120.349932 
L 47.497959 120.193756 
L 50.914286 119.921435 
L 54.330612 119.374256 
L 57.746939 118.429275 
L 61.163265 117.001672 
L 64.579592 115.04562 
L 67.995918 112.553899 
L 71.412245 109.556477 
L 74.828571 106.118244 
L 78.244898 102.336073 
L 81.661224 98.33535 
L 85.077551 94.266059 
L 88.493878 90.298283 
L 91.910204 86.61715 
L 95.326531 83.417501 
L 98.742857 80.898656 
L 102.159184 79.259563 
L 105.57551 78.694615 
L 108.991837 79.390282 
L 112.408163 81.514747 
L 115.82449 85.151837 
L 119.240816 89.918003 
L 122.657143 95.375859 
L 126.073469 101.117937 
L 129.489796 106.788442 
L 132.906122 112.092539 
L 136.322449 116.801402 
L 139.738776 120.753505 
L 143.155102 123.852719 
L 146.571429 126.063823 
L 149.987755 127.406099 
L 153.404082 127.945574 
L 156.820408 127.78626 
L 160.236735 127.060828 
L 163.653061 125.921364 
L 167.069388 124.530831 
L 170.485714 123.055774 
L 173.902041 121.660642 
L 177.318367 120.504003 
L 180.734694 119.73673 
L 184.15102 119.450077 
L 187.567347 119.525804 
L 190.983673 119.805584 
L 194.4 120.154165 
" style="fill:none;stroke:#66c2a5;stroke-linecap:square;stroke-width:2;"/>
   </g>
   <g id="patch_8">
    <path d="M 112.408163 128.16 
L 112.408163 77.76 
" style="fill:none;stroke:#a9a9a9;stroke-linecap:square;stroke-linejoin:miter;stroke-width:2;"/>
   </g>
   <g id="patch_9">
    <path d="M 194.4 128.16 
L 194.4 77.76 
" style="fill:none;"/>
   </g>
   <g id="patch_10">
    <path d="M 27 122.19409 
L 194.4 122.19409 
" style="fill:none;stroke:#a9a9a9;stroke-linecap:square;stroke-linejoin:miter;stroke-width:2;"/>
   </g>
   <g id="patch_11">
    <path d="M 27 77.76 
L 194.4 77.76 
" style="fill:none;"/>
   </g>
  </g>
 </g>
 <defs>
  <clipPath id="p27320e822e">
   <rect height="50.4" width="167.4" x="27" y="17.28"/>
  </clipPath>
  <clipPath id="p8244aec739">
   <rect height="50.4" width="167.4" x="27" y="77.76"/>
  </clipPath>
 </defs>
</svg>
