<?xml version="1.0" encoding="utf-8" standalone="no"?>
<!DOCTYPE svg PUBLIC "-//W3C//DTD SVG 1.1//EN"
  "http://www.w3.org/Graphics/SVG/1.1/DTD/svg11.dtd">
<!-- Created with matplotlib (https://matplotlib.org/) -->
<svg height="144pt" version="1.1" viewBox="0 0 216 144" width="216pt" xmlns="http://www.w3.org/2000/svg" xmlns:xlink="http://www.w3.org/1999/xlink">
 <metadata>
  <rdf:RDF xmlns:cc="http://creativecommons.org/ns#" xmlns:dc="http://purl.org/dc/elements/1.1/" xmlns:rdf="http://www.w3.org/1999/02/22-rdf-syntax-ns#">
   <cc:Work>
    <dc:type rdf:resource="http://purl.org/dc/dcmitype/StillImage"/>
    <dc:date>2021-09-28T21:39:05.549148</dc:date>
    <dc:format>image/svg+xml</dc:format>
    <dc:creator>
     <cc:Agent>
      <dc:title>Matplotlib v3.3.2, https://matplotlib.org/</dc:title>
     </cc:Agent>
    </dc:creator>
   </cc:Work>
  </rdf:RDF>
 </metadata>
 <defs>
  <style type="text/css">*{stroke-linecap:butt;stroke-linejoin:round;}</style>
 </defs>
 <g id="figure_1">
  <g id="patch_1">
   <path d="M 0 144 
L 216 144 
L 216 0 
L 0 0 
z
" style="fill:none;"/>
  </g>
  <g id="axes_1">
   <g id="patch_2">
    <path d="M 27 67.68 
L 194.4 67.68 
L 194.4 17.28 
L 27 17.28 
z
" style="fill:none;"/>
   </g>
   <g id="PolyCollection_1">
    <path clip-path="url(#p77dc9f30aa)" d="M 27 66.93231 
L 27 66.93231 
L 30.416327 66.93231 
L 33.832653 66.93231 
L 37.24898 66.93231 
L 40.665306 66.93231 
L 44.081633 66.932151 
L 47.497959 66.752214 
L 50.914286 66.226595 
L 54.330612 65.398568 
L 57.746939 64.190212 
L 61.163265 62.286087 
L 64.579592 60.524774 
L 67.995918 57.544194 
L 71.412245 54.313779 
L 74.828571 50.513615 
L 78.244898 46.984205 
L 81.661224 42.53858 
L 85.077551 37.544515 
L 88.493878 34.653799 
L 91.910204 29.044435 
L 95.326531 26.128896 
L 98.742857 22.060444 
L 102.159184 17.28 
L 105.57551 19.960608 
L 108.991837 17.778067 
L 112.408163 23.71022 
L 115.82449 22.483374 
L 119.240816 21.140407 
L 122.657143 25.633182 
L 126.073469 29.344068 
L 129.489796 32.705591 
L 132.906122 37.322842 
L 136.322449 39.213112 
L 139.738776 46.519545 
L 143.155102 49.595728 
L 146.571429 54.367936 
L 149.987755 55.770672 
L 153.404082 58.851596 
L 156.820408 61.037619 
L 160.236735 63.32151 
L 163.653061 64.883911 
L 167.069388 65.719923 
L 170.485714 66.196519 
L 173.902041 66.553388 
L 177.318367 66.811613 
L 180.734694 66.932225 
L 184.15102 66.93231 
L 187.567347 66.93231 
L 190.983673 66.93231 
L 194.4 66.93231 
L 194.4 66.93231 
L 194.4 66.93231 
L 190.983673 66.93231 
L 187.567347 66.93231 
L 184.15102 66.93231 
L 180.734694 66.932453 
L 177.318367 67.077874 
L 173.902041 67.377282 
L 170.485714 67.579755 
L 167.069388 67.582532 
L 163.653061 67.68 
L 160.236735 66.784352 
L 156.820408 66.204962 
L 153.404082 64.845488 
L 149.987755 63.263916 
L 146.571429 60.263491 
L 143.155102 58.101925 
L 139.738776 55.557996 
L 136.322449 50.922907 
L 132.906122 48.465341 
L 129.489796 44.170798 
L 126.073469 41.900987 
L 122.657143 40.696958 
L 119.240816 33.395785 
L 115.82449 33.152541 
L 112.408163 25.924977 
L 108.991837 28.125188 
L 105.57551 32.511161 
L 102.159184 32.49411 
L 98.742857 34.196855 
L 95.326531 37.87228 
L 91.910204 40.493315 
L 88.493878 46.052528 
L 85.077551 46.783571 
L 81.661224 50.916232 
L 78.244898 53.332342 
L 74.828571 58.027024 
L 71.412245 60.360639 
L 67.995918 62.496177 
L 64.579592 63.892629 
L 61.163265 65.038494 
L 57.746939 66.083592 
L 54.330612 66.78804 
L 50.914286 67.052585 
L 47.497959 67.021089 
L 44.081633 66.932405 
L 40.665306 66.93231 
L 37.24898 66.93231 
L 33.832653 66.93231 
L 30.416327 66.93231 
L 27 66.93231 
z
" style="fill:#fc8d62;fill-opacity:0.5;"/>
   </g>
   <g id="matplotlib.axis_1">
    <g id="xtick_1">
     <g id="line2d_1">
      <defs>
       <path d="M 0 0 
L 0 3.5 
" id="m0e1d65501b" style="stroke:#a9a9a9;stroke-width:2;"/>
      </defs>
      <g>
       <use style="fill:#a9a9a9;stroke:#a9a9a9;stroke-width:2;" x="44.081633" xlink:href="#m0e1d65501b" y="66.93231"/>
      </g>
     </g>
    </g>
    <g id="xtick_2">
     <g id="line2d_2">
      <g>
       <use style="fill:#a9a9a9;stroke:#a9a9a9;stroke-width:2;" x="78.244898" xlink:href="#m0e1d65501b" y="66.93231"/>
      </g>
     </g>
    </g>
    <g id="xtick_3">
     <g id="line2d_3">
      <g>
       <use style="fill:#a9a9a9;stroke:#a9a9a9;stroke-width:2;" x="112.408163" xlink:href="#m0e1d65501b" y="66.93231"/>
      </g>
     </g>
    </g>
    <g id="xtick_4">
     <g id="line2d_4">
      <g>
       <use style="fill:#a9a9a9;stroke:#a9a9a9;stroke-width:2;" x="146.571429" xlink:href="#m0e1d65501b" y="66.93231"/>
      </g>
     </g>
    </g>
    <g id="xtick_5">
     <g id="line2d_5">
      <g>
       <use style="fill:#a9a9a9;stroke:#a9a9a9;stroke-width:2;" x="180.734694" xlink:href="#m0e1d65501b" y="66.93231"/>
      </g>
     </g>
    </g>
   </g>
   <g id="matplotlib.axis_2"/>
   <g id="line2d_6">
    <path clip-path="url(#p77dc9f30aa)" d="M 27 66.93231 
L 30.416327 66.93231 
L 33.832653 66.93231 
L 37.24898 66.93231 
L 40.665306 66.93231 
L 44.081633 66.932278 
L 47.497959 66.886651 
L 50.914286 66.63959 
L 54.330612 66.093304 
L 57.746939 65.136902 
L 61.163265 63.66229 
L 64.579592 62.208701 
L 67.995918 60.020186 
L 71.412245 57.337209 
L 74.828571 54.270319 
L 78.244898 50.158273 
L 81.661224 46.727406 
L 85.077551 42.164043 
L 88.493878 40.353163 
L 91.910204 34.768875 
L 95.326531 32.000588 
L 98.742857 28.12865 
L 102.159184 24.887055 
L 105.57551 26.235885 
L 108.991837 22.951628 
L 112.408163 24.817599 
L 115.82449 27.817957 
L 119.240816 27.268096 
L 122.657143 33.16507 
L 126.073469 35.622528 
L 129.489796 38.438195 
L 132.906122 42.894092 
L 136.322449 45.06801 
L 139.738776 51.038771 
L 143.155102 53.848826 
L 146.571429 57.315714 
L 149.987755 59.517294 
L 153.404082 61.848542 
L 156.820408 63.62129 
L 160.236735 65.052931 
L 163.653061 66.281955 
L 167.069388 66.651228 
L 170.485714 66.888137 
L 173.902041 66.965335 
L 177.318367 66.944744 
L 180.734694 66.932339 
L 184.15102 66.93231 
L 187.567347 66.93231 
L 190.983673 66.93231 
L 194.4 66.93231 
" style="fill:none;stroke:#fc8d62;stroke-linecap:square;stroke-width:2;"/>
   </g>
   <g id="line2d_7">
    <path clip-path="url(#p77dc9f30aa)" d="M 27 66.93231 
L 30.416327 66.93231 
L 33.832653 66.93231 
L 37.24898 66.93231 
L 40.665306 66.93231 
L 44.081633 66.932248 
L 47.497959 66.851461 
L 50.914286 66.619109 
L 54.330612 66.138304 
L 57.746939 65.316088 
L 61.163265 63.850762 
L 64.579592 62.388006 
L 67.995918 60.013713 
L 71.412245 56.871491 
L 74.828571 53.800044 
L 78.244898 50.012885 
L 81.661224 46.627129 
L 85.077551 41.700468 
L 88.493878 38.966573 
L 91.910204 34.364605 
L 95.326531 31.105465 
L 98.742857 28.694881 
L 102.159184 23.60268 
L 105.57551 24.418464 
L 108.991837 22.951628 
L 112.408163 23.032941 
L 115.82449 24.218108 
L 119.240816 25.633505 
L 122.657143 30.979769 
L 126.073469 32.042466 
L 129.489796 36.54393 
L 132.906122 40.918619 
L 136.322449 44.209873 
L 139.738776 49.45206 
L 143.155102 52.207867 
L 146.571429 55.998775 
L 149.987755 58.815533 
L 153.404082 61.47944 
L 156.820408 62.98854 
L 160.236735 64.415079 
L 163.653061 65.841078 
L 167.069388 66.347902 
L 170.485714 66.769808 
L 173.902041 66.953831 
L 177.318367 66.974918 
L 180.734694 66.932366 
L 184.15102 66.93231 
L 187.567347 66.93231 
L 190.983673 66.93231 
L 194.4 66.93231 
" style="fill:none;stroke:#fc8d62;stroke-dasharray:1.5,2.475;stroke-dashoffset:0;stroke-opacity:0.5;stroke-width:1.5;"/>
   </g>
   <g id="patch_3">
    <path d="M 112.408163 67.68 
L 112.408163 17.28 
" style="fill:none;stroke:#a9a9a9;stroke-linecap:square;stroke-linejoin:miter;stroke-width:2;"/>
   </g>
   <g id="patch_4">
    <path d="M 194.4 67.68 
L 194.4 17.28 
" style="fill:none;"/>
   </g>
   <g id="patch_5">
    <path d="M 27 66.93231 
L 194.4 66.93231 
" style="fill:none;stroke:#a9a9a9;stroke-linecap:square;stroke-linejoin:miter;stroke-width:2;"/>
   </g>
   <g id="patch_6">
    <path d="M 27 17.28 
L 194.4 17.28 
" style="fill:none;"/>
   </g>
   <g id="legend_1">
    <g id="line2d_8">
     <path d="M 152.47 26.448906 
L 166.47 26.448906 
" style="fill:none;stroke:#fc8d62;stroke-linecap:square;stroke-width:2;"/>
    </g>
    <g id="line2d_9"/>
    <g id="text_1">
     <!-- $\theta$ -->
     <g transform="translate(172.07 28.898906)scale(0.07 -0.07)">
      <defs>
       <path d="M 45.515625 34.671875 
L 14.453125 34.671875 
Q 12.359375 20.0625 14.5 13.875 
Q 17.1875 6.25 24.46875 6.25 
Q 31.78125 6.25 37.359375 13.921875 
Q 42.234375 20.65625 45.515625 34.671875 
z
M 47.015625 42.96875 
Q 48.34375 56.84375 46.625 61.71875 
Q 43.953125 69.4375 36.765625 69.4375 
Q 29.296875 69.4375 23.828125 61.8125 
Q 19.53125 55.671875 16.15625 42.96875 
z
M 38.1875 76.765625 
Q 49.90625 76.765625 54.59375 66.40625 
Q 59.28125 56.109375 55.71875 37.84375 
Q 52.203125 19.625 43.453125 9.28125 
Q 34.765625 -1.125 23.046875 -1.125 
Q 11.28125 -1.125 6.640625 9.28125 
Q 2 19.625 5.515625 37.84375 
Q 9.078125 56.109375 17.71875 66.40625 
Q 26.421875 76.765625 38.1875 76.765625 
z
" id="DejaVuSans-Oblique-952"/>
      </defs>
      <use transform="translate(0 0.234375)" xlink:href="#DejaVuSans-Oblique-952"/>
     </g>
    </g>
    <g id="line2d_10">
     <path d="M 152.47 36.723594 
L 166.47 36.723594 
" style="fill:none;stroke:#fc8d62;stroke-dasharray:1.5,2.475;stroke-dashoffset:0;stroke-opacity:0.5;stroke-width:1.5;"/>
    </g>
    <g id="line2d_11"/>
    <g id="text_2">
     <!-- No $\theta$ -->
     <g transform="translate(172.07 39.173594)scale(0.07 -0.07)">
      <defs>
       <path d="M 9.8125 72.90625 
L 23.09375 72.90625 
L 55.421875 11.921875 
L 55.421875 72.90625 
L 64.984375 72.90625 
L 64.984375 0 
L 51.703125 0 
L 19.390625 60.984375 
L 19.390625 0 
L 9.8125 0 
z
" id="DejaVuSans-78"/>
       <path d="M 30.609375 48.390625 
Q 23.390625 48.390625 19.1875 42.75 
Q 14.984375 37.109375 14.984375 27.296875 
Q 14.984375 17.484375 19.15625 11.84375 
Q 23.34375 6.203125 30.609375 6.203125 
Q 37.796875 6.203125 41.984375 11.859375 
Q 46.1875 17.53125 46.1875 27.296875 
Q 46.1875 37.015625 41.984375 42.703125 
Q 37.796875 48.390625 30.609375 48.390625 
z
M 30.609375 56 
Q 42.328125 56 49.015625 48.375 
Q 55.71875 40.765625 55.71875 27.296875 
Q 55.71875 13.875 49.015625 6.21875 
Q 42.328125 -1.421875 30.609375 -1.421875 
Q 18.84375 -1.421875 12.171875 6.21875 
Q 5.515625 13.875 5.515625 27.296875 
Q 5.515625 40.765625 12.171875 48.375 
Q 18.84375 56 30.609375 56 
z
" id="DejaVuSans-111"/>
       <path id="DejaVuSans-32"/>
      </defs>
      <use transform="translate(0 0.234375)" xlink:href="#DejaVuSans-78"/>
      <use transform="translate(74.804688 0.234375)" xlink:href="#DejaVuSans-111"/>
      <use transform="translate(135.986328 0.234375)" xlink:href="#DejaVuSans-32"/>
      <use transform="translate(167.773438 0.234375)" xlink:href="#DejaVuSans-Oblique-952"/>
     </g>
    </g>
   </g>
  </g>
  <g id="axes_2">
   <g id="patch_7">
    <path d="M 27 128.16 
L 194.4 128.16 
L 194.4 77.76 
L 27 77.76 
z
" style="fill:none;"/>
   </g>
   <g id="PolyCollection_2">
    <path clip-path="url(#pc7a89e41a0)" d="M 27 120.484701 
L 27 120.403098 
L 30.416327 120.62126 
L 33.832653 120.691629 
L 37.24898 120.61968 
L 40.665306 120.451451 
L 44.081633 120.262256 
L 47.497959 120.098975 
L 50.914286 119.821141 
L 54.330612 119.267522 
L 57.746939 118.311173 
L 61.163265 116.861437 
L 64.579592 114.867686 
L 67.995918 112.321882 
L 71.412245 109.255955 
L 74.828571 105.737875 
L 78.244898 101.868404 
L 81.661224 97.777113 
L 85.077551 93.61846 
L 88.493878 89.566995 
L 91.910204 85.812053 
L 95.326531 82.552261 
L 98.742857 79.990181 
L 102.159184 78.327347 
L 105.57551 77.76 
L 108.991837 78.47571 
L 112.408163 80.642641 
L 115.82449 84.344238 
L 119.240816 89.190655 
L 122.657143 94.738561 
L 126.073469 100.574392 
L 129.489796 106.336542 
L 132.906122 111.724615 
L 136.322449 116.504438 
L 139.738776 120.509639 
L 143.155102 123.64079 
L 146.571429 125.86313 
L 149.987755 127.201874 
L 153.404082 127.732031 
L 156.820408 127.565465 
L 160.236735 126.839651 
L 163.653061 125.70838 
L 167.069388 124.33374 
L 170.485714 122.879144 
L 173.902041 121.504091 
L 177.318367 120.36203 
L 180.734694 119.603261 
L 184.15102 119.324953 
L 187.567347 119.412871 
L 190.983673 119.708459 
L 194.4 120.074363 
L 194.4 120.182546 
L 194.4 120.182546 
L 190.983673 119.841972 
L 187.567347 119.565911 
L 184.15102 119.489587 
L 180.734694 119.773922 
L 177.318367 120.54392 
L 173.902041 121.714755 
L 170.485714 123.134973 
L 167.069388 124.640879 
L 163.653061 126.062906 
L 160.236735 127.230971 
L 156.820408 127.980494 
L 153.404082 128.16 
L 149.987755 127.640189 
L 146.571429 126.323183 
L 143.155102 124.150042 
L 139.738776 121.105471 
L 136.322449 117.223326 
L 132.906122 112.594927 
L 129.489796 107.37597 
L 126.073469 101.789693 
L 122.657143 96.126077 
L 119.240816 90.736895 
L 115.82449 86.026478 
L 112.408163 82.429662 
L 108.991837 80.329619 
L 105.57551 79.639308 
L 102.159184 80.189792 
L 98.742857 81.794727 
L 95.326531 84.260973 
L 91.910204 87.391853 
L 88.493878 90.991177 
L 85.077551 94.867902 
L 81.661224 98.841186 
L 78.244898 102.745501 
L 74.828571 106.435414 
L 71.412245 109.789752 
L 67.995918 112.715505 
L 64.579592 115.15078 
L 61.163265 117.067475 
L 57.746939 118.471936 
L 54.330612 119.405232 
L 50.914286 119.946569 
L 47.497959 120.21537 
L 44.081633 120.368608 
L 40.665306 120.542176 
L 37.24898 120.691865 
L 33.832653 120.750174 
L 30.416327 120.682795 
L 27 120.484701 
z
" style="fill:#66c2a5;fill-opacity:0.5;"/>
   </g>
   <g id="matplotlib.axis_3">
    <g id="xtick_6">
     <g id="line2d_12">
      <g>
       <use style="fill:#a9a9a9;stroke:#a9a9a9;stroke-width:2;" x="44.081633" xlink:href="#m0e1d65501b" y="122.173643"/>
      </g>
     </g>
    </g>
    <g id="xtick_7">
     <g id="line2d_13">
      <g>
       <use style="fill:#a9a9a9;stroke:#a9a9a9;stroke-width:2;" x="78.244898" xlink:href="#m0e1d65501b" y="122.173643"/>
      </g>
     </g>
    </g>
    <g id="xtick_8">
     <g id="line2d_14">
      <g>
       <use style="fill:#a9a9a9;stroke:#a9a9a9;stroke-width:2;" x="112.408163" xlink:href="#m0e1d65501b" y="122.173643"/>
      </g>
     </g>
    </g>
    <g id="xtick_9">
     <g id="line2d_15">
      <g>
       <use style="fill:#a9a9a9;stroke:#a9a9a9;stroke-width:2;" x="146.571429" xlink:href="#m0e1d65501b" y="122.173643"/>
      </g>
     </g>
    </g>
    <g id="xtick_10">
     <g id="line2d_16">
      <g>
       <use style="fill:#a9a9a9;stroke:#a9a9a9;stroke-width:2;" x="180.734694" xlink:href="#m0e1d65501b" y="122.173643"/>
      </g>
     </g>
    </g>
   </g>
   <g id="matplotlib.axis_4"/>
   <g id="line2d_17">
    <path clip-path="url(#pc7a89e41a0)" d="M 27 120.443899 
L 30.416327 120.652027 
L 33.832653 120.720902 
L 37.24898 120.655772 
L 40.665306 120.496814 
L 44.081633 120.315432 
L 47.497959 120.157173 
L 50.914286 119.883855 
L 54.330612 119.336377 
L 57.746939 118.391554 
L 61.163265 116.964456 
L 64.579592 115.009233 
L 67.995918 112.518693 
L 71.412245 109.522854 
L 74.828571 106.086644 
L 78.244898 102.306953 
L 81.661224 98.309149 
L 85.077551 94.243181 
L 88.493878 90.279086 
L 91.910204 86.601953 
L 95.326531 83.406617 
L 98.742857 80.892454 
L 102.159184 79.25857 
L 105.57551 78.699654 
L 108.991837 79.402665 
L 112.408163 81.536151 
L 115.82449 85.185358 
L 119.240816 89.963775 
L 122.657143 95.432319 
L 126.073469 101.182043 
L 129.489796 106.856256 
L 132.906122 112.159771 
L 136.322449 116.863882 
L 139.738776 120.807555 
L 143.155102 123.895416 
L 146.571429 126.093157 
L 149.987755 127.421031 
L 153.404082 127.946015 
L 156.820408 127.772979 
L 160.236735 127.035311 
L 163.653061 125.885643 
L 167.069388 124.487309 
L 170.485714 123.007059 
L 173.902041 121.609423 
L 177.318367 120.452975 
L 180.734694 119.688591 
L 184.15102 119.40727 
L 187.567347 119.489391 
L 190.983673 119.775216 
L 194.4 120.128454 
" style="fill:none;stroke:#66c2a5;stroke-linecap:square;stroke-width:2;"/>
   </g>
   <g id="patch_8">
    <path d="M 112.408163 128.16 
L 112.408163 77.76 
" style="fill:none;stroke:#a9a9a9;stroke-linecap:square;stroke-linejoin:miter;stroke-width:2;"/>
   </g>
   <g id="patch_9">
    <path d="M 194.4 128.16 
L 194.4 77.76 
" style="fill:none;"/>
   </g>
   <g id="patch_10">
    <path d="M 27 122.173643 
L 194.4 122.173643 
" style="fill:none;stroke:#a9a9a9;stroke-linecap:square;stroke-linejoin:miter;stroke-width:2;"/>
   </g>
   <g id="patch_11">
    <path d="M 27 77.76 
L 194.4 77.76 
" style="fill:none;"/>
   </g>
  </g>
 </g>
 <defs>
  <clipPath id="p77dc9f30aa">
   <rect height="50.4" width="167.4" x="27" y="17.28"/>
  </clipPath>
  <clipPath id="pc7a89e41a0">
   <rect height="50.4" width="167.4" x="27" y="77.76"/>
  </clipPath>
 </defs>
</svg>
