<?xml version="1.0" encoding="utf-8" standalone="no"?>
<!DOCTYPE svg PUBLIC "-//W3C//DTD SVG 1.1//EN"
  "http://www.w3.org/Graphics/SVG/1.1/DTD/svg11.dtd">
<!-- Created with matplotlib (https://matplotlib.org/) -->
<svg height="144pt" version="1.1" viewBox="0 0 216 144" width="216pt" xmlns="http://www.w3.org/2000/svg" xmlns:xlink="http://www.w3.org/1999/xlink">
 <metadata>
  <rdf:RDF xmlns:cc="http://creativecommons.org/ns#" xmlns:dc="http://purl.org/dc/elements/1.1/" xmlns:rdf="http://www.w3.org/1999/02/22-rdf-syntax-ns#">
   <cc:Work>
    <dc:type rdf:resource="http://purl.org/dc/dcmitype/StillImage"/>
    <dc:date>2021-09-28T17:25:53.327757</dc:date>
    <dc:format>image/svg+xml</dc:format>
    <dc:creator>
     <cc:Agent>
      <dc:title>Matplotlib v3.3.2, https://matplotlib.org/</dc:title>
     </cc:Agent>
    </dc:creator>
   </cc:Work>
  </rdf:RDF>
 </metadata>
 <defs>
  <style type="text/css">*{stroke-linecap:butt;stroke-linejoin:round;}</style>
 </defs>
 <g id="figure_1">
  <g id="patch_1">
   <path d="M 0 144 
L 216 144 
L 216 0 
L 0 0 
z
" style="fill:none;"/>
  </g>
  <g id="axes_1">
   <g id="patch_2">
    <path d="M 27 67.68 
L 194.4 67.68 
L 194.4 17.28 
L 27 17.28 
z
" style="fill:none;"/>
   </g>
   <g id="PolyCollection_1">
    <path clip-path="url(#p021b2f8b2f)" d="M 27 50.5383 
L 27 50.5383 
L 30.416327 50.5383 
L 33.832653 50.5383 
L 37.24898 50.5383 
L 40.665306 50.5383 
L 44.081633 50.53361 
L 47.497959 50.024574 
L 50.914286 49.335591 
L 54.330612 47.723384 
L 57.746939 46.312527 
L 61.163265 43.214006 
L 64.579592 41.664444 
L 67.995918 38.186619 
L 71.412245 35.410612 
L 74.828571 32.776367 
L 78.244898 32.119307 
L 81.661224 28.973709 
L 85.077551 25.62391 
L 88.493878 23.619882 
L 91.910204 20.182201 
L 95.326531 19.016638 
L 98.742857 19.491586 
L 102.159184 17.28 
L 105.57551 24.551066 
L 108.991837 28.460125 
L 112.408163 40.384428 
L 115.82449 29.367755 
L 119.240816 34.547573 
L 122.657143 39.670373 
L 126.073469 41.465838 
L 129.489796 44.442967 
L 132.906122 50.416335 
L 136.322449 47.236582 
L 139.738776 46.83313 
L 143.155102 47.03692 
L 146.571429 51.838139 
L 149.987755 50.289005 
L 153.404082 50.701751 
L 156.820408 50.751617 
L 160.236735 49.928659 
L 163.653061 51.430819 
L 167.069388 50.291036 
L 170.485714 50.586371 
L 173.902041 50.186255 
L 177.318367 50.504841 
L 180.734694 50.536419 
L 184.15102 50.5383 
L 187.567347 50.5383 
L 190.983673 50.5383 
L 194.4 50.5383 
L 194.4 50.5383 
L 194.4 50.5383 
L 190.983673 50.5383 
L 187.567347 50.5383 
L 184.15102 50.5383 
L 180.734694 50.542944 
L 177.318367 51.043212 
L 173.902041 51.678015 
L 170.485714 53.143477 
L 167.069388 54.270174 
L 163.653061 56.925834 
L 160.236735 57.840926 
L 156.820408 60.488357 
L 153.404082 62.164656 
L 149.987755 63.568236 
L 146.571429 62.732507 
L 143.155102 64.255251 
L 139.738776 65.902639 
L 136.322449 66.08033 
L 132.906122 67.68 
L 129.489796 67.192598 
L 126.073469 65.091346 
L 122.657143 66.020692 
L 119.240816 57.67951 
L 115.82449 53.206762 
L 112.408163 40.930163 
L 108.991837 52.233791 
L 105.57551 47.806861 
L 102.159184 43.669289 
L 98.742857 43.253149 
L 95.326531 41.79692 
L 91.910204 37.615082 
L 88.493878 42.499122 
L 85.077551 44.693673 
L 81.661224 46.191353 
L 78.244898 42.99136 
L 74.828571 45.987782 
L 71.412245 46.896899 
L 67.995918 47.897438 
L 64.579592 49.578744 
L 61.163265 48.709694 
L 57.746939 50.300734 
L 54.330612 50.280323 
L 50.914286 50.828661 
L 47.497959 50.563509 
L 44.081633 50.540201 
L 40.665306 50.5383 
L 37.24898 50.5383 
L 33.832653 50.5383 
L 30.416327 50.5383 
L 27 50.5383 
z
" style="fill:#fc8d62;fill-opacity:0.5;"/>
   </g>
   <g id="matplotlib.axis_1">
    <g id="xtick_1">
     <g id="line2d_1">
      <defs>
       <path d="M 0 0 
L 0 3.5 
" id="m05d01988f8" style="stroke:#a9a9a9;stroke-width:2;"/>
      </defs>
      <g>
       <use style="fill:#a9a9a9;stroke:#a9a9a9;stroke-width:2;" x="44.081633" xlink:href="#m05d01988f8" y="50.5383"/>
      </g>
     </g>
    </g>
    <g id="xtick_2">
     <g id="line2d_2">
      <g>
       <use style="fill:#a9a9a9;stroke:#a9a9a9;stroke-width:2;" x="78.244898" xlink:href="#m05d01988f8" y="50.5383"/>
      </g>
     </g>
    </g>
    <g id="xtick_3">
     <g id="line2d_3">
      <g>
       <use style="fill:#a9a9a9;stroke:#a9a9a9;stroke-width:2;" x="112.408163" xlink:href="#m05d01988f8" y="50.5383"/>
      </g>
     </g>
    </g>
    <g id="xtick_4">
     <g id="line2d_4">
      <g>
       <use style="fill:#a9a9a9;stroke:#a9a9a9;stroke-width:2;" x="146.571429" xlink:href="#m05d01988f8" y="50.5383"/>
      </g>
     </g>
    </g>
    <g id="xtick_5">
     <g id="line2d_5">
      <g>
       <use style="fill:#a9a9a9;stroke:#a9a9a9;stroke-width:2;" x="180.734694" xlink:href="#m05d01988f8" y="50.5383"/>
      </g>
     </g>
    </g>
   </g>
   <g id="matplotlib.axis_2"/>
   <g id="line2d_6">
    <path clip-path="url(#p021b2f8b2f)" d="M 27 50.5383 
L 30.416327 50.5383 
L 33.832653 50.5383 
L 37.24898 50.5383 
L 40.665306 50.5383 
L 44.081633 50.536906 
L 47.497959 50.294042 
L 50.914286 50.082126 
L 54.330612 49.001854 
L 57.746939 48.306631 
L 61.163265 45.96185 
L 64.579592 45.621594 
L 67.995918 43.042028 
L 71.412245 41.153756 
L 74.828571 39.382075 
L 78.244898 37.555334 
L 81.661224 37.582531 
L 85.077551 35.158792 
L 88.493878 33.059502 
L 91.910204 28.898642 
L 95.326531 30.406779 
L 98.742857 31.372367 
L 102.159184 30.474644 
L 105.57551 36.178963 
L 108.991837 40.346958 
L 112.408163 40.657295 
L 115.82449 41.287259 
L 119.240816 46.113542 
L 122.657143 52.845532 
L 126.073469 53.278592 
L 129.489796 55.817783 
L 132.906122 59.048167 
L 136.322449 56.658456 
L 139.738776 56.367885 
L 143.155102 55.646085 
L 146.571429 57.285323 
L 149.987755 56.92862 
L 153.404082 56.433204 
L 156.820408 55.619987 
L 160.236735 53.884793 
L 163.653061 54.178327 
L 167.069388 52.280605 
L 170.485714 51.864924 
L 173.902041 50.932135 
L 177.318367 50.774026 
L 180.734694 50.539681 
L 184.15102 50.5383 
L 187.567347 50.5383 
L 190.983673 50.5383 
L 194.4 50.5383 
" style="fill:none;stroke:#fc8d62;stroke-linecap:square;stroke-width:2;"/>
   </g>
   <g id="line2d_7">
    <path clip-path="url(#p021b2f8b2f)" d="M 27 50.5383 
L 30.416327 50.5383 
L 33.832653 50.5383 
L 37.24898 50.538297 
L 40.665306 50.538063 
L 44.081633 50.524425 
L 47.497959 50.286666 
L 50.914286 49.51952 
L 54.330612 48.33864 
L 57.746939 46.668107 
L 61.163265 44.512898 
L 64.579592 42.257744 
L 67.995918 40.200961 
L 71.412245 37.42507 
L 74.828571 35.10271 
L 78.244898 32.938542 
L 81.661224 31.25594 
L 85.077551 30.207144 
L 88.493878 28.993514 
L 91.910204 28.898642 
L 95.326531 30.473179 
L 98.742857 32.004277 
L 102.159184 34.097644 
L 105.57551 37.557585 
L 108.991837 41.376085 
L 112.408163 46.299759 
L 115.82449 51.322429 
L 119.240816 55.435971 
L 122.657143 59.336044 
L 126.073469 62.002072 
L 129.489796 64.196684 
L 132.906122 66.512764 
L 136.322449 67.189733 
L 139.738776 66.74242 
L 143.155102 66.446684 
L 146.571429 65.463998 
L 149.987755 63.926602 
L 153.404082 62.149593 
L 156.820408 59.830897 
L 160.236735 58.138462 
L 163.653061 56.161631 
L 167.069388 54.196425 
L 170.485714 52.645213 
L 173.902041 51.52816 
L 177.318367 50.785404 
L 180.734694 50.552037 
L 184.15102 50.538535 
L 187.567347 50.538303 
L 190.983673 50.538301 
L 194.4 50.5383 
" style="fill:none;stroke:#fc8d62;stroke-dasharray:1.5,2.475;stroke-dashoffset:0;stroke-opacity:0.5;stroke-width:1.5;"/>
   </g>
   <g id="patch_3">
    <path d="M 112.408163 67.68 
L 112.408163 17.28 
" style="fill:none;stroke:#a9a9a9;stroke-linecap:square;stroke-linejoin:miter;stroke-width:2;"/>
   </g>
   <g id="patch_4">
    <path d="M 194.4 67.68 
L 194.4 17.28 
" style="fill:none;"/>
   </g>
   <g id="patch_5">
    <path d="M 27 50.5383 
L 194.4 50.5383 
" style="fill:none;stroke:#a9a9a9;stroke-linecap:square;stroke-linejoin:miter;stroke-width:2;"/>
   </g>
   <g id="patch_6">
    <path d="M 27 17.28 
L 194.4 17.28 
" style="fill:none;"/>
   </g>
   <g id="legend_1">
    <g id="line2d_8">
     <path d="M 152.47 26.448906 
L 166.47 26.448906 
" style="fill:none;stroke:#fc8d62;stroke-linecap:square;stroke-width:2;"/>
    </g>
    <g id="line2d_9"/>
    <g id="text_1">
     <!-- $\theta$ -->
     <g transform="translate(172.07 28.898906)scale(0.07 -0.07)">
      <defs>
       <path d="M 45.515625 34.671875 
L 14.453125 34.671875 
Q 12.359375 20.0625 14.5 13.875 
Q 17.1875 6.25 24.46875 6.25 
Q 31.78125 6.25 37.359375 13.921875 
Q 42.234375 20.65625 45.515625 34.671875 
z
M 47.015625 42.96875 
Q 48.34375 56.84375 46.625 61.71875 
Q 43.953125 69.4375 36.765625 69.4375 
Q 29.296875 69.4375 23.828125 61.8125 
Q 19.53125 55.671875 16.15625 42.96875 
z
M 38.1875 76.765625 
Q 49.90625 76.765625 54.59375 66.40625 
Q 59.28125 56.109375 55.71875 37.84375 
Q 52.203125 19.625 43.453125 9.28125 
Q 34.765625 -1.125 23.046875 -1.125 
Q 11.28125 -1.125 6.640625 9.28125 
Q 2 19.625 5.515625 37.84375 
Q 9.078125 56.109375 17.71875 66.40625 
Q 26.421875 76.765625 38.1875 76.765625 
z
" id="DejaVuSans-Oblique-952"/>
      </defs>
      <use transform="translate(0 0.234375)" xlink:href="#DejaVuSans-Oblique-952"/>
     </g>
    </g>
    <g id="line2d_10">
     <path d="M 152.47 36.723594 
L 166.47 36.723594 
" style="fill:none;stroke:#fc8d62;stroke-dasharray:1.5,2.475;stroke-dashoffset:0;stroke-opacity:0.5;stroke-width:1.5;"/>
    </g>
    <g id="line2d_11"/>
    <g id="text_2">
     <!-- No $\theta$ -->
     <g transform="translate(172.07 39.173594)scale(0.07 -0.07)">
      <defs>
       <path d="M 9.8125 72.90625 
L 23.09375 72.90625 
L 55.421875 11.921875 
L 55.421875 72.90625 
L 64.984375 72.90625 
L 64.984375 0 
L 51.703125 0 
L 19.390625 60.984375 
L 19.390625 0 
L 9.8125 0 
z
" id="DejaVuSans-78"/>
       <path d="M 30.609375 48.390625 
Q 23.390625 48.390625 19.1875 42.75 
Q 14.984375 37.109375 14.984375 27.296875 
Q 14.984375 17.484375 19.15625 11.84375 
Q 23.34375 6.203125 30.609375 6.203125 
Q 37.796875 6.203125 41.984375 11.859375 
Q 46.1875 17.53125 46.1875 27.296875 
Q 46.1875 37.015625 41.984375 42.703125 
Q 37.796875 48.390625 30.609375 48.390625 
z
M 30.609375 56 
Q 42.328125 56 49.015625 48.375 
Q 55.71875 40.765625 55.71875 27.296875 
Q 55.71875 13.875 49.015625 6.21875 
Q 42.328125 -1.421875 30.609375 -1.421875 
Q 18.84375 -1.421875 12.171875 6.21875 
Q 5.515625 13.875 5.515625 27.296875 
Q 5.515625 40.765625 12.171875 48.375 
Q 18.84375 56 30.609375 56 
z
" id="DejaVuSans-111"/>
       <path id="DejaVuSans-32"/>
      </defs>
      <use transform="translate(0 0.234375)" xlink:href="#DejaVuSans-78"/>
      <use transform="translate(74.804688 0.234375)" xlink:href="#DejaVuSans-111"/>
      <use transform="translate(135.986328 0.234375)" xlink:href="#DejaVuSans-32"/>
      <use transform="translate(167.773438 0.234375)" xlink:href="#DejaVuSans-Oblique-952"/>
     </g>
    </g>
   </g>
  </g>
  <g id="axes_2">
   <g id="patch_7">
    <path d="M 27 128.16 
L 194.4 128.16 
L 194.4 77.76 
L 27 77.76 
z
" style="fill:none;"/>
   </g>
   <g id="PolyCollection_2">
    <path clip-path="url(#p4f870aa57f)" d="M 27 120.580526 
L 27 120.500907 
L 30.416327 120.713823 
L 33.832653 120.780111 
L 37.24898 120.705357 
L 40.665306 120.53534 
L 44.081633 120.345035 
L 47.497959 120.181136 
L 50.914286 119.903563 
L 54.330612 119.35148 
L 57.746939 118.397801 
L 61.163265 116.950646 
L 64.579592 114.958618 
L 67.995918 112.413277 
L 71.412245 109.346278 
L 74.828571 105.825527 
L 78.244898 101.951732 
L 81.661224 97.854563 
L 85.077551 93.688522 
L 88.493878 89.628165 
L 91.910204 85.862974 
L 95.326531 82.591766 
L 98.742857 80.017276 
L 102.159184 78.341217 
L 105.57551 77.76 
L 108.991837 78.461333 
L 112.408163 80.613123 
L 115.82449 84.300557 
L 119.240816 89.133658 
L 122.657143 94.670844 
L 126.073469 100.499686 
L 129.489796 106.25938 
L 132.906122 111.649951 
L 136.322449 116.437198 
L 139.738776 120.454082 
L 143.155102 123.599683 
L 146.571429 125.837781 
L 149.987755 127.192617 
L 153.404082 127.739344 
L 156.820408 127.590206 
L 160.236735 126.882495 
L 163.653061 125.769328 
L 167.069388 124.41196 
L 170.485714 122.972999 
L 173.902041 121.611004 
L 177.318367 120.478024 
L 180.734694 119.723048 
L 184.15102 119.443868 
L 187.567347 119.528032 
L 190.983673 119.818251 
L 194.4 120.178117 
L 194.4 120.282528 
L 194.4 120.282528 
L 190.983673 119.945605 
L 187.567347 119.671935 
L 184.15102 119.595968 
L 180.734694 119.878111 
L 177.318367 120.643955 
L 173.902041 121.808889 
L 170.485714 123.220535 
L 167.069388 124.714499 
L 163.653061 126.121313 
L 160.236735 127.271444 
L 156.820408 128.001109 
L 153.404082 128.16 
L 149.987755 127.62058 
L 146.571429 126.287293 
L 143.155102 124.103153 
L 139.738776 121.053449 
L 136.322449 117.171742 
L 132.906122 112.548542 
L 129.489796 107.338984 
L 126.073469 101.765772 
L 122.657143 96.118151 
L 119.240816 90.746921 
L 115.82449 86.055213 
L 112.408163 82.476161 
L 108.991837 80.392692 
L 105.57551 79.716471 
L 102.159184 80.278808 
L 98.742857 81.893281 
L 95.326531 84.366691 
L 91.910204 87.502346 
L 88.493878 91.104113 
L 85.077551 94.981125 
L 81.661224 98.952812 
L 78.244898 102.853923 
L 74.828571 106.539471 
L 71.412245 109.888919 
L 67.995918 112.809822 
L 64.579592 115.2409 
L 61.163265 117.154463 
L 57.746939 118.557082 
L 54.330612 119.489579 
L 50.914286 120.030283 
L 47.497959 120.298593 
L 44.081633 120.451721 
L 40.665306 120.626009 
L 37.24898 120.777371 
L 33.832653 120.838414 
L 30.416327 120.774579 
L 27 120.580526 
z
" style="fill:#66c2a5;fill-opacity:0.5;"/>
   </g>
   <g id="matplotlib.axis_3">
    <g id="xtick_6">
     <g id="line2d_12">
      <g>
       <use style="fill:#a9a9a9;stroke:#a9a9a9;stroke-width:2;" x="44.081633" xlink:href="#m05d01988f8" y="122.247837"/>
      </g>
     </g>
    </g>
    <g id="xtick_7">
     <g id="line2d_13">
      <g>
       <use style="fill:#a9a9a9;stroke:#a9a9a9;stroke-width:2;" x="78.244898" xlink:href="#m05d01988f8" y="122.247837"/>
      </g>
     </g>
    </g>
    <g id="xtick_8">
     <g id="line2d_14">
      <g>
       <use style="fill:#a9a9a9;stroke:#a9a9a9;stroke-width:2;" x="112.408163" xlink:href="#m05d01988f8" y="122.247837"/>
      </g>
     </g>
    </g>
    <g id="xtick_9">
     <g id="line2d_15">
      <g>
       <use style="fill:#a9a9a9;stroke:#a9a9a9;stroke-width:2;" x="146.571429" xlink:href="#m05d01988f8" y="122.247837"/>
      </g>
     </g>
    </g>
    <g id="xtick_10">
     <g id="line2d_16">
      <g>
       <use style="fill:#a9a9a9;stroke:#a9a9a9;stroke-width:2;" x="180.734694" xlink:href="#m05d01988f8" y="122.247837"/>
      </g>
     </g>
    </g>
   </g>
   <g id="matplotlib.axis_4"/>
   <g id="line2d_17">
    <path clip-path="url(#p4f870aa57f)" d="M 27 120.540717 
L 30.416327 120.744201 
L 33.832653 120.809263 
L 37.24898 120.741364 
L 40.665306 120.580675 
L 44.081633 120.398378 
L 47.497959 120.239864 
L 50.914286 119.966923 
L 54.330612 119.420529 
L 57.746939 118.477442 
L 61.163265 117.052554 
L 64.579592 115.099759 
L 67.995918 112.611549 
L 71.412245 109.617598 
L 74.828571 106.182499 
L 78.244898 102.402827 
L 81.661224 98.403688 
L 85.077551 94.334823 
L 88.493878 90.366139 
L 91.910204 86.68266 
L 95.326531 83.479229 
L 98.742857 80.955278 
L 102.159184 79.310013 
L 105.57551 78.738235 
L 108.991837 79.427012 
L 112.408163 81.544642 
L 115.82449 85.177885 
L 119.240816 89.94029 
L 122.657143 95.394497 
L 126.073469 101.132729 
L 129.489796 106.799182 
L 132.906122 112.099246 
L 136.322449 116.80447 
L 139.738776 120.753765 
L 143.155102 123.851418 
L 146.571429 126.062537 
L 149.987755 127.406598 
L 153.404082 127.949672 
L 156.820408 127.795658 
L 160.236735 127.076969 
L 163.653061 125.945321 
L 167.069388 124.563229 
L 170.485714 123.096767 
L 173.902041 121.709946 
L 177.318367 120.560989 
L 180.734694 119.800579 
L 184.15102 119.519918 
L 187.567347 119.599983 
L 190.983673 119.881928 
L 194.4 120.230322 
" style="fill:none;stroke:#66c2a5;stroke-linecap:square;stroke-width:2;"/>
   </g>
   <g id="patch_8">
    <path d="M 112.408163 128.16 
L 112.408163 77.76 
" style="fill:none;stroke:#a9a9a9;stroke-linecap:square;stroke-linejoin:miter;stroke-width:2;"/>
   </g>
   <g id="patch_9">
    <path d="M 194.4 128.16 
L 194.4 77.76 
" style="fill:none;"/>
   </g>
   <g id="patch_10">
    <path d="M 27 122.247837 
L 194.4 122.247837 
" style="fill:none;stroke:#a9a9a9;stroke-linecap:square;stroke-linejoin:miter;stroke-width:2;"/>
   </g>
   <g id="patch_11">
    <path d="M 27 77.76 
L 194.4 77.76 
" style="fill:none;"/>
   </g>
  </g>
 </g>
 <defs>
  <clipPath id="p021b2f8b2f">
   <rect height="50.4" width="167.4" x="27" y="17.28"/>
  </clipPath>
  <clipPath id="p4f870aa57f">
   <rect height="50.4" width="167.4" x="27" y="77.76"/>
  </clipPath>
 </defs>
</svg>
