<?xml version="1.0" encoding="utf-8" standalone="no"?>
<!DOCTYPE svg PUBLIC "-//W3C//DTD SVG 1.1//EN"
  "http://www.w3.org/Graphics/SVG/1.1/DTD/svg11.dtd">
<!-- Created with matplotlib (https://matplotlib.org/) -->
<svg height="144pt" version="1.1" viewBox="0 0 216 144" width="216pt" xmlns="http://www.w3.org/2000/svg" xmlns:xlink="http://www.w3.org/1999/xlink">
 <metadata>
  <rdf:RDF xmlns:cc="http://creativecommons.org/ns#" xmlns:dc="http://purl.org/dc/elements/1.1/" xmlns:rdf="http://www.w3.org/1999/02/22-rdf-syntax-ns#">
   <cc:Work>
    <dc:type rdf:resource="http://purl.org/dc/dcmitype/StillImage"/>
    <dc:date>2021-09-29T16:02:36.745220</dc:date>
    <dc:format>image/svg+xml</dc:format>
    <dc:creator>
     <cc:Agent>
      <dc:title>Matplotlib v3.3.2, https://matplotlib.org/</dc:title>
     </cc:Agent>
    </dc:creator>
   </cc:Work>
  </rdf:RDF>
 </metadata>
 <defs>
  <style type="text/css">*{stroke-linecap:butt;stroke-linejoin:round;}</style>
 </defs>
 <g id="figure_1">
  <g id="patch_1">
   <path d="M 0 144 
L 216 144 
L 216 0 
L 0 0 
z
" style="fill:none;"/>
  </g>
  <g id="axes_1">
   <g id="patch_2">
    <path d="M 27 67.68 
L 194.4 67.68 
L 194.4 17.28 
L 27 17.28 
z
" style="fill:none;"/>
   </g>
   <g id="PolyCollection_1">
    <path clip-path="url(#p8628a56661)" d="M 27 56.08785 
L 27 56.08785 
L 30.416327 56.08785 
L 33.832653 56.08785 
L 37.24898 56.08785 
L 40.665306 56.08785 
L 44.081633 56.086536 
L 47.497959 55.620195 
L 50.914286 54.886886 
L 54.330612 53.352052 
L 57.746939 51.474526 
L 61.163265 48.375937 
L 64.579592 45.889161 
L 67.995918 42.870435 
L 71.412245 40.710262 
L 74.828571 38.499098 
L 78.244898 36.348457 
L 81.661224 30.834832 
L 85.077551 25.471743 
L 88.493878 23.255079 
L 91.910204 23.557783 
L 95.326531 19.021855 
L 98.742857 17.28 
L 102.159184 18.606147 
L 105.57551 22.483125 
L 108.991837 23.179812 
L 112.408163 35.758148 
L 115.82449 21.586349 
L 119.240816 21.25629 
L 122.657143 25.385136 
L 126.073469 34.471261 
L 129.489796 35.127643 
L 132.906122 36.965368 
L 136.322449 43.164261 
L 139.738776 40.770464 
L 143.155102 44.617092 
L 146.571429 45.66374 
L 149.987755 51.761345 
L 153.404082 50.373958 
L 156.820408 50.95765 
L 160.236735 53.736347 
L 163.653061 55.293681 
L 167.069388 55.561006 
L 170.485714 55.065357 
L 173.902041 55.585488 
L 177.318367 55.823828 
L 180.734694 56.087026 
L 184.15102 56.08785 
L 187.567347 56.08785 
L 190.983673 56.08785 
L 194.4 56.08785 
L 194.4 56.08785 
L 194.4 56.08785 
L 190.983673 56.08785 
L 187.567347 56.08785 
L 184.15102 56.08785 
L 180.734694 56.089138 
L 177.318367 56.53787 
L 173.902041 57.164389 
L 170.485714 58.397166 
L 167.069388 59.714277 
L 163.653061 61.913971 
L 160.236735 63.160624 
L 156.820408 64.461693 
L 153.404082 64.493616 
L 149.987755 64.122729 
L 146.571429 63.426913 
L 143.155102 65.740531 
L 139.738776 67.68 
L 136.322449 66.361609 
L 132.906122 62.378156 
L 129.489796 63.567074 
L 126.073469 61.879484 
L 122.657143 58.159972 
L 119.240816 52.236781 
L 115.82449 49.954557 
L 112.408163 36.818124 
L 108.991837 51.736637 
L 105.57551 53.259205 
L 102.159184 51.310795 
L 98.742857 45.074237 
L 95.326531 47.233201 
L 91.910204 48.747023 
L 88.493878 46.206237 
L 85.077551 52.169497 
L 81.661224 51.872481 
L 78.244898 54.031389 
L 74.828571 50.957571 
L 71.412245 54.783152 
L 67.995918 56.358791 
L 64.579592 55.30952 
L 61.163265 55.06386 
L 57.746939 55.636131 
L 54.330612 56.704153 
L 50.914286 56.472206 
L 47.497959 56.337202 
L 44.081633 56.088691 
L 40.665306 56.08785 
L 37.24898 56.08785 
L 33.832653 56.08785 
L 30.416327 56.08785 
L 27 56.08785 
z
" style="fill:#fc8d62;fill-opacity:0.5;"/>
   </g>
   <g id="matplotlib.axis_1">
    <g id="xtick_1">
     <g id="line2d_1">
      <defs>
       <path d="M 0 0 
L 0 3.5 
" id="m4fb16d8403" style="stroke:#a9a9a9;stroke-width:2;"/>
      </defs>
      <g>
       <use style="fill:#a9a9a9;stroke:#a9a9a9;stroke-width:2;" x="44.081633" xlink:href="#m4fb16d8403" y="56.08785"/>
      </g>
     </g>
    </g>
    <g id="xtick_2">
     <g id="line2d_2">
      <g>
       <use style="fill:#a9a9a9;stroke:#a9a9a9;stroke-width:2;" x="78.244898" xlink:href="#m4fb16d8403" y="56.08785"/>
      </g>
     </g>
    </g>
    <g id="xtick_3">
     <g id="line2d_3">
      <g>
       <use style="fill:#a9a9a9;stroke:#a9a9a9;stroke-width:2;" x="112.408163" xlink:href="#m4fb16d8403" y="56.08785"/>
      </g>
     </g>
    </g>
    <g id="xtick_4">
     <g id="line2d_4">
      <g>
       <use style="fill:#a9a9a9;stroke:#a9a9a9;stroke-width:2;" x="146.571429" xlink:href="#m4fb16d8403" y="56.08785"/>
      </g>
     </g>
    </g>
    <g id="xtick_5">
     <g id="line2d_5">
      <g>
       <use style="fill:#a9a9a9;stroke:#a9a9a9;stroke-width:2;" x="180.734694" xlink:href="#m4fb16d8403" y="56.08785"/>
      </g>
     </g>
    </g>
   </g>
   <g id="matplotlib.axis_2"/>
   <g id="line2d_6">
    <path clip-path="url(#p8628a56661)" d="M 27 56.08785 
L 30.416327 56.08785 
L 33.832653 56.08785 
L 37.24898 56.08785 
L 40.665306 56.08785 
L 44.081633 56.087614 
L 47.497959 55.978698 
L 50.914286 55.679546 
L 54.330612 55.028103 
L 57.746939 53.555329 
L 61.163265 51.719899 
L 64.579592 50.599341 
L 67.995918 49.614613 
L 71.412245 47.746707 
L 74.828571 44.728335 
L 78.244898 45.189923 
L 81.661224 41.353656 
L 85.077551 38.82062 
L 88.493878 34.730658 
L 91.910204 36.152403 
L 95.326531 33.127528 
L 98.742857 31.177118 
L 102.159184 34.958471 
L 105.57551 37.871165 
L 108.991837 37.458225 
L 112.408163 36.288136 
L 115.82449 35.770453 
L 119.240816 36.746535 
L 122.657143 41.772554 
L 126.073469 48.175373 
L 129.489796 49.347358 
L 132.906122 49.671762 
L 136.322449 54.762935 
L 139.738776 54.225232 
L 143.155102 55.178812 
L 146.571429 54.545326 
L 149.987755 57.942037 
L 153.404082 57.433787 
L 156.820408 57.709671 
L 160.236735 58.448485 
L 163.653061 58.603826 
L 167.069388 57.637642 
L 170.485714 56.731261 
L 173.902041 56.374939 
L 177.318367 56.180849 
L 180.734694 56.088082 
L 184.15102 56.08785 
L 187.567347 56.08785 
L 190.983673 56.08785 
L 194.4 56.08785 
" style="fill:none;stroke:#fc8d62;stroke-linecap:square;stroke-width:2;"/>
   </g>
   <g id="line2d_7">
    <path clip-path="url(#p8628a56661)" d="M 27 56.08785 
L 30.416327 56.08785 
L 33.832653 56.08785 
L 37.24898 56.08785 
L 40.665306 56.08785 
L 44.081633 56.087727 
L 47.497959 55.957342 
L 50.914286 55.737912 
L 54.330612 55.125252 
L 57.746939 54.497444 
L 61.163265 52.538893 
L 64.579592 51.68642 
L 67.995918 49.113472 
L 71.412245 49.10388 
L 74.828571 47.097982 
L 78.244898 45.80057 
L 81.661224 44.202172 
L 85.077551 39.156951 
L 88.493878 37.028421 
L 91.910204 34.136621 
L 95.326531 37.538718 
L 98.742857 34.795238 
L 102.159184 35.680868 
L 105.57551 34.500109 
L 108.991837 38.247399 
L 112.408163 37.053887 
L 115.82449 36.441316 
L 119.240816 41.497338 
L 122.657143 42.254274 
L 126.073469 45.786969 
L 129.489796 45.972318 
L 132.906122 52.70361 
L 136.322449 53.245931 
L 139.738776 54.595338 
L 143.155102 52.813718 
L 146.571429 54.408273 
L 149.987755 55.886646 
L 153.404082 56.342366 
L 156.820408 58.379748 
L 160.236735 57.468017 
L 163.653061 57.840544 
L 167.069388 56.748922 
L 170.485714 56.652252 
L 173.902041 56.316851 
L 177.318367 56.204845 
L 180.734694 56.087971 
L 184.15102 56.08785 
L 187.567347 56.08785 
L 190.983673 56.08785 
L 194.4 56.08785 
" style="fill:none;stroke:#fc8d62;stroke-dasharray:1.5,2.475;stroke-dashoffset:0;stroke-opacity:0.5;stroke-width:1.5;"/>
   </g>
   <g id="patch_3">
    <path d="M 112.408163 67.68 
L 112.408163 17.28 
" style="fill:none;stroke:#a9a9a9;stroke-linecap:square;stroke-linejoin:miter;stroke-width:2;"/>
   </g>
   <g id="patch_4">
    <path d="M 194.4 67.68 
L 194.4 17.28 
" style="fill:none;"/>
   </g>
   <g id="patch_5">
    <path d="M 27 56.08785 
L 194.4 56.08785 
" style="fill:none;stroke:#a9a9a9;stroke-linecap:square;stroke-linejoin:miter;stroke-width:2;"/>
   </g>
   <g id="patch_6">
    <path d="M 27 17.28 
L 194.4 17.28 
" style="fill:none;"/>
   </g>
   <g id="legend_1">
    <g id="line2d_8">
     <path d="M 106.9 26.448906 
L 120.9 26.448906 
" style="fill:none;stroke:#fc8d62;stroke-linecap:square;stroke-width:2;"/>
    </g>
    <g id="line2d_9"/>
    <g id="text_1">
     <!-- $\theta:$      R$^{2}$ = 0.959 -->
     <g transform="translate(126.5 28.898906)scale(0.07 -0.07)">
      <defs>
       <path d="M 45.515625 34.671875 
L 14.453125 34.671875 
Q 12.359375 20.0625 14.5 13.875 
Q 17.1875 6.25 24.46875 6.25 
Q 31.78125 6.25 37.359375 13.921875 
Q 42.234375 20.65625 45.515625 34.671875 
z
M 47.015625 42.96875 
Q 48.34375 56.84375 46.625 61.71875 
Q 43.953125 69.4375 36.765625 69.4375 
Q 29.296875 69.4375 23.828125 61.8125 
Q 19.53125 55.671875 16.15625 42.96875 
z
M 38.1875 76.765625 
Q 49.90625 76.765625 54.59375 66.40625 
Q 59.28125 56.109375 55.71875 37.84375 
Q 52.203125 19.625 43.453125 9.28125 
Q 34.765625 -1.125 23.046875 -1.125 
Q 11.28125 -1.125 6.640625 9.28125 
Q 2 19.625 5.515625 37.84375 
Q 9.078125 56.109375 17.71875 66.40625 
Q 26.421875 76.765625 38.1875 76.765625 
z
" id="DejaVuSans-Oblique-952"/>
       <path d="M 11.71875 12.40625 
L 22.015625 12.40625 
L 22.015625 0 
L 11.71875 0 
z
M 11.71875 51.703125 
L 22.015625 51.703125 
L 22.015625 39.3125 
L 11.71875 39.3125 
z
" id="DejaVuSans-58"/>
       <path id="DejaVuSans-32"/>
       <path d="M 44.390625 34.1875 
Q 47.5625 33.109375 50.5625 29.59375 
Q 53.5625 26.078125 56.59375 19.921875 
L 66.609375 0 
L 56 0 
L 46.6875 18.703125 
Q 43.0625 26.03125 39.671875 28.421875 
Q 36.28125 30.8125 30.421875 30.8125 
L 19.671875 30.8125 
L 19.671875 0 
L 9.8125 0 
L 9.8125 72.90625 
L 32.078125 72.90625 
Q 44.578125 72.90625 50.734375 67.671875 
Q 56.890625 62.453125 56.890625 51.90625 
Q 56.890625 45.015625 53.6875 40.46875 
Q 50.484375 35.9375 44.390625 34.1875 
z
M 19.671875 64.796875 
L 19.671875 38.921875 
L 32.078125 38.921875 
Q 39.203125 38.921875 42.84375 42.21875 
Q 46.484375 45.515625 46.484375 51.90625 
Q 46.484375 58.296875 42.84375 61.546875 
Q 39.203125 64.796875 32.078125 64.796875 
z
" id="DejaVuSans-82"/>
       <path d="M 19.1875 8.296875 
L 53.609375 8.296875 
L 53.609375 0 
L 7.328125 0 
L 7.328125 8.296875 
Q 12.9375 14.109375 22.625 23.890625 
Q 32.328125 33.6875 34.8125 36.53125 
Q 39.546875 41.84375 41.421875 45.53125 
Q 43.3125 49.21875 43.3125 52.78125 
Q 43.3125 58.59375 39.234375 62.25 
Q 35.15625 65.921875 28.609375 65.921875 
Q 23.96875 65.921875 18.8125 64.3125 
Q 13.671875 62.703125 7.8125 59.421875 
L 7.8125 69.390625 
Q 13.765625 71.78125 18.9375 73 
Q 24.125 74.21875 28.421875 74.21875 
Q 39.75 74.21875 46.484375 68.546875 
Q 53.21875 62.890625 53.21875 53.421875 
Q 53.21875 48.921875 51.53125 44.890625 
Q 49.859375 40.875 45.40625 35.40625 
Q 44.1875 33.984375 37.640625 27.21875 
Q 31.109375 20.453125 19.1875 8.296875 
z
" id="DejaVuSans-50"/>
       <path d="M 10.59375 45.40625 
L 73.1875 45.40625 
L 73.1875 37.203125 
L 10.59375 37.203125 
z
M 10.59375 25.484375 
L 73.1875 25.484375 
L 73.1875 17.1875 
L 10.59375 17.1875 
z
" id="DejaVuSans-61"/>
       <path d="M 31.78125 66.40625 
Q 24.171875 66.40625 20.328125 58.90625 
Q 16.5 51.421875 16.5 36.375 
Q 16.5 21.390625 20.328125 13.890625 
Q 24.171875 6.390625 31.78125 6.390625 
Q 39.453125 6.390625 43.28125 13.890625 
Q 47.125 21.390625 47.125 36.375 
Q 47.125 51.421875 43.28125 58.90625 
Q 39.453125 66.40625 31.78125 66.40625 
z
M 31.78125 74.21875 
Q 44.046875 74.21875 50.515625 64.515625 
Q 56.984375 54.828125 56.984375 36.375 
Q 56.984375 17.96875 50.515625 8.265625 
Q 44.046875 -1.421875 31.78125 -1.421875 
Q 19.53125 -1.421875 13.0625 8.265625 
Q 6.59375 17.96875 6.59375 36.375 
Q 6.59375 54.828125 13.0625 64.515625 
Q 19.53125 74.21875 31.78125 74.21875 
z
" id="DejaVuSans-48"/>
       <path d="M 10.6875 12.40625 
L 21 12.40625 
L 21 0 
L 10.6875 0 
z
" id="DejaVuSans-46"/>
       <path d="M 10.984375 1.515625 
L 10.984375 10.5 
Q 14.703125 8.734375 18.5 7.8125 
Q 22.3125 6.890625 25.984375 6.890625 
Q 35.75 6.890625 40.890625 13.453125 
Q 46.046875 20.015625 46.78125 33.40625 
Q 43.953125 29.203125 39.59375 26.953125 
Q 35.25 24.703125 29.984375 24.703125 
Q 19.046875 24.703125 12.671875 31.3125 
Q 6.296875 37.9375 6.296875 49.421875 
Q 6.296875 60.640625 12.9375 67.421875 
Q 19.578125 74.21875 30.609375 74.21875 
Q 43.265625 74.21875 49.921875 64.515625 
Q 56.59375 54.828125 56.59375 36.375 
Q 56.59375 19.140625 48.40625 8.859375 
Q 40.234375 -1.421875 26.421875 -1.421875 
Q 22.703125 -1.421875 18.890625 -0.6875 
Q 15.09375 0.046875 10.984375 1.515625 
z
M 30.609375 32.421875 
Q 37.25 32.421875 41.125 36.953125 
Q 45.015625 41.5 45.015625 49.421875 
Q 45.015625 57.28125 41.125 61.84375 
Q 37.25 66.40625 30.609375 66.40625 
Q 23.96875 66.40625 20.09375 61.84375 
Q 16.21875 57.28125 16.21875 49.421875 
Q 16.21875 41.5 20.09375 36.953125 
Q 23.96875 32.421875 30.609375 32.421875 
z
" id="DejaVuSans-57"/>
       <path d="M 10.796875 72.90625 
L 49.515625 72.90625 
L 49.515625 64.59375 
L 19.828125 64.59375 
L 19.828125 46.734375 
Q 21.96875 47.46875 24.109375 47.828125 
Q 26.265625 48.1875 28.421875 48.1875 
Q 40.625 48.1875 47.75 41.5 
Q 54.890625 34.8125 54.890625 23.390625 
Q 54.890625 11.625 47.5625 5.09375 
Q 40.234375 -1.421875 26.90625 -1.421875 
Q 22.3125 -1.421875 17.546875 -0.640625 
Q 12.796875 0.140625 7.71875 1.703125 
L 7.71875 11.625 
Q 12.109375 9.234375 16.796875 8.0625 
Q 21.484375 6.890625 26.703125 6.890625 
Q 35.15625 6.890625 40.078125 11.328125 
Q 45.015625 15.765625 45.015625 23.390625 
Q 45.015625 31 40.078125 35.4375 
Q 35.15625 39.890625 26.703125 39.890625 
Q 22.75 39.890625 18.8125 39.015625 
Q 14.890625 38.140625 10.796875 36.28125 
z
" id="DejaVuSans-53"/>
      </defs>
      <use transform="translate(0 0.765625)" xlink:href="#DejaVuSans-Oblique-952"/>
      <use transform="translate(80.664062 0.765625)" xlink:href="#DejaVuSans-58"/>
      <use transform="translate(133.837891 0.765625)" xlink:href="#DejaVuSans-32"/>
      <use transform="translate(165.625 0.765625)" xlink:href="#DejaVuSans-32"/>
      <use transform="translate(197.412109 0.765625)" xlink:href="#DejaVuSans-32"/>
      <use transform="translate(229.199219 0.765625)" xlink:href="#DejaVuSans-32"/>
      <use transform="translate(260.986328 0.765625)" xlink:href="#DejaVuSans-32"/>
      <use transform="translate(292.773438 0.765625)" xlink:href="#DejaVuSans-32"/>
      <use transform="translate(324.560547 0.765625)" xlink:href="#DejaVuSans-82"/>
      <use transform="translate(395 39.046875)scale(0.7)" xlink:href="#DejaVuSans-50"/>
      <use transform="translate(442.270508 0.765625)" xlink:href="#DejaVuSans-32"/>
      <use transform="translate(474.057617 0.765625)" xlink:href="#DejaVuSans-61"/>
      <use transform="translate(557.84668 0.765625)" xlink:href="#DejaVuSans-32"/>
      <use transform="translate(589.633789 0.765625)" xlink:href="#DejaVuSans-48"/>
      <use transform="translate(653.256836 0.765625)" xlink:href="#DejaVuSans-46"/>
      <use transform="translate(685.043945 0.765625)" xlink:href="#DejaVuSans-57"/>
      <use transform="translate(748.666992 0.765625)" xlink:href="#DejaVuSans-53"/>
      <use transform="translate(806.790039 0.765625)" xlink:href="#DejaVuSans-57"/>
     </g>
    </g>
    <g id="line2d_10">
     <path d="M 106.9 36.723594 
L 120.9 36.723594 
" style="fill:none;stroke:#fc8d62;stroke-dasharray:1.5,2.475;stroke-dashoffset:0;stroke-opacity:0.5;stroke-width:1.5;"/>
    </g>
    <g id="line2d_11"/>
    <g id="text_2">
     <!-- No $\theta:$ R$^{2}$ = 0.959 -->
     <g transform="translate(126.5 39.173594)scale(0.07 -0.07)">
      <defs>
       <path d="M 9.8125 72.90625 
L 23.09375 72.90625 
L 55.421875 11.921875 
L 55.421875 72.90625 
L 64.984375 72.90625 
L 64.984375 0 
L 51.703125 0 
L 19.390625 60.984375 
L 19.390625 0 
L 9.8125 0 
z
" id="DejaVuSans-78"/>
       <path d="M 30.609375 48.390625 
Q 23.390625 48.390625 19.1875 42.75 
Q 14.984375 37.109375 14.984375 27.296875 
Q 14.984375 17.484375 19.15625 11.84375 
Q 23.34375 6.203125 30.609375 6.203125 
Q 37.796875 6.203125 41.984375 11.859375 
Q 46.1875 17.53125 46.1875 27.296875 
Q 46.1875 37.015625 41.984375 42.703125 
Q 37.796875 48.390625 30.609375 48.390625 
z
M 30.609375 56 
Q 42.328125 56 49.015625 48.375 
Q 55.71875 40.765625 55.71875 27.296875 
Q 55.71875 13.875 49.015625 6.21875 
Q 42.328125 -1.421875 30.609375 -1.421875 
Q 18.84375 -1.421875 12.171875 6.21875 
Q 5.515625 13.875 5.515625 27.296875 
Q 5.515625 40.765625 12.171875 48.375 
Q 18.84375 56 30.609375 56 
z
" id="DejaVuSans-111"/>
      </defs>
      <use transform="translate(0 0.765625)" xlink:href="#DejaVuSans-78"/>
      <use transform="translate(74.804688 0.765625)" xlink:href="#DejaVuSans-111"/>
      <use transform="translate(135.986328 0.765625)" xlink:href="#DejaVuSans-32"/>
      <use transform="translate(167.773438 0.765625)" xlink:href="#DejaVuSans-Oblique-952"/>
      <use transform="translate(248.4375 0.765625)" xlink:href="#DejaVuSans-58"/>
      <use transform="translate(301.611328 0.765625)" xlink:href="#DejaVuSans-32"/>
      <use transform="translate(333.398438 0.765625)" xlink:href="#DejaVuSans-82"/>
      <use transform="translate(403.837891 39.046875)scale(0.7)" xlink:href="#DejaVuSans-50"/>
      <use transform="translate(451.108398 0.765625)" xlink:href="#DejaVuSans-32"/>
      <use transform="translate(482.895508 0.765625)" xlink:href="#DejaVuSans-61"/>
      <use transform="translate(566.68457 0.765625)" xlink:href="#DejaVuSans-32"/>
      <use transform="translate(598.47168 0.765625)" xlink:href="#DejaVuSans-48"/>
      <use transform="translate(662.094727 0.765625)" xlink:href="#DejaVuSans-46"/>
      <use transform="translate(693.881836 0.765625)" xlink:href="#DejaVuSans-57"/>
      <use transform="translate(757.504883 0.765625)" xlink:href="#DejaVuSans-53"/>
      <use transform="translate(815.62793 0.765625)" xlink:href="#DejaVuSans-57"/>
     </g>
    </g>
   </g>
  </g>
  <g id="axes_2">
   <g id="patch_7">
    <path d="M 27 128.16 
L 194.4 128.16 
L 194.4 77.76 
L 27 77.76 
z
" style="fill:none;"/>
   </g>
   <g id="PolyCollection_2">
    <path clip-path="url(#p00171cf346)" d="M 27 119.946965 
L 27 119.850394 
L 30.416327 119.977472 
L 33.832653 119.963461 
L 37.24898 119.805819 
L 40.665306 119.538107 
L 44.081633 119.22234 
L 47.497959 118.897321 
L 50.914286 118.435768 
L 54.330612 117.69271 
L 57.746939 116.555892 
L 61.163265 114.948232 
L 64.579592 112.830477 
L 67.995918 110.203087 
L 71.412245 107.104393 
L 74.828571 103.607233 
L 78.244898 99.815034 
L 81.661224 95.857731 
L 85.077551 91.887197 
L 88.493878 88.072446 
L 91.910204 84.594121 
L 95.326531 81.638914 
L 98.742857 79.394147 
L 102.159184 78.042921 
L 105.57551 77.76 
L 108.991837 78.708691 
L 112.408163 81.032417 
L 115.82449 84.792028 
L 119.240816 89.625226 
L 122.657143 95.11529 
L 126.073469 100.871361 
L 129.489796 106.54875 
L 132.906122 111.858695 
L 136.322449 116.574228 
L 139.738776 120.532441 
L 143.155102 123.634722 
L 146.571429 125.845428 
L 149.987755 127.187603 
L 153.404082 127.732645 
L 156.820408 127.588265 
L 160.236735 126.887445 
L 163.653061 125.779536 
L 167.069388 124.422142 
L 170.485714 122.973928 
L 173.902041 121.589026 
L 177.318367 120.414647 
L 180.734694 119.593645 
L 184.15102 119.219782 
L 187.567347 119.19283 
L 190.983673 119.369693 
L 194.4 119.62318 
L 194.4 119.742535 
L 194.4 119.742535 
L 190.983673 119.511321 
L 187.567347 119.351139 
L 184.15102 119.386949 
L 180.734694 119.764196 
L 177.318367 120.593336 
L 173.902041 121.793868 
L 170.485714 123.222403 
L 167.069388 124.721635 
L 163.653061 126.127208 
L 160.236735 127.273591 
L 156.820408 128.000361 
L 153.404082 128.16 
L 149.987755 127.626982 
L 146.571429 126.307233 
L 143.155102 124.145367 
L 139.738776 121.129525 
L 136.322449 117.295635 
L 132.906122 112.734748 
L 129.489796 107.599197 
L 126.073469 102.10505 
L 122.657143 96.530217 
L 119.240816 91.208906 
L 115.82449 86.522025 
L 112.408163 82.877134 
L 108.991837 80.628738 
L 105.57551 79.712828 
L 102.159184 79.98516 
L 98.742857 81.283636 
L 95.326531 83.436626 
L 91.910204 86.265952 
L 88.493878 89.590751 
L 85.077551 93.23208 
L 81.661224 97.017928 
L 78.244898 100.788392 
L 74.828571 104.400558 
L 71.412245 107.733142 
L 67.995918 110.690279 
L 64.579592 113.204913 
L 61.163265 115.241199 
L 57.746939 116.795998 
L 54.330612 117.900087 
L 50.914286 118.620929 
L 47.497959 119.063661 
L 44.081633 119.368959 
L 40.665306 119.661706 
L 37.24898 119.905878 
L 33.832653 120.046531 
L 30.416327 120.059036 
L 27 119.946965 
z
" style="fill:#66c2a5;fill-opacity:0.5;"/>
   </g>
   <g id="matplotlib.axis_3">
    <g id="xtick_6">
     <g id="line2d_12">
      <g>
       <use style="fill:#a9a9a9;stroke:#a9a9a9;stroke-width:2;" x="44.081633" xlink:href="#m4fb16d8403" y="122.34103"/>
      </g>
     </g>
    </g>
    <g id="xtick_7">
     <g id="line2d_13">
      <g>
       <use style="fill:#a9a9a9;stroke:#a9a9a9;stroke-width:2;" x="78.244898" xlink:href="#m4fb16d8403" y="122.34103"/>
      </g>
     </g>
    </g>
    <g id="xtick_8">
     <g id="line2d_14">
      <g>
       <use style="fill:#a9a9a9;stroke:#a9a9a9;stroke-width:2;" x="112.408163" xlink:href="#m4fb16d8403" y="122.34103"/>
      </g>
     </g>
    </g>
    <g id="xtick_9">
     <g id="line2d_15">
      <g>
       <use style="fill:#a9a9a9;stroke:#a9a9a9;stroke-width:2;" x="146.571429" xlink:href="#m4fb16d8403" y="122.34103"/>
      </g>
     </g>
    </g>
    <g id="xtick_10">
     <g id="line2d_16">
      <g>
       <use style="fill:#a9a9a9;stroke:#a9a9a9;stroke-width:2;" x="180.734694" xlink:href="#m4fb16d8403" y="122.34103"/>
      </g>
     </g>
    </g>
   </g>
   <g id="matplotlib.axis_4"/>
   <g id="line2d_17">
    <path clip-path="url(#p00171cf346)" d="M 27 119.89868 
L 30.416327 120.018254 
L 33.832653 120.004996 
L 37.24898 119.855849 
L 40.665306 119.599907 
L 44.081633 119.29565 
L 47.497959 118.980491 
L 50.914286 118.528348 
L 54.330612 117.796399 
L 57.746939 116.675945 
L 61.163265 115.094715 
L 64.579592 113.017695 
L 67.995918 110.446683 
L 71.412245 107.418767 
L 74.828571 104.003896 
L 78.244898 100.301713 
L 81.661224 96.43783 
L 85.077551 92.559639 
L 88.493878 88.831599 
L 91.910204 85.430037 
L 95.326531 82.53777 
L 98.742857 80.338892 
L 102.159184 79.01404 
L 105.57551 78.736414 
L 108.991837 79.668715 
L 112.408163 81.954775 
L 115.82449 85.657026 
L 119.240816 90.417066 
L 122.657143 95.822753 
L 126.073469 101.488205 
L 129.489796 107.073974 
L 132.906122 112.296722 
L 136.322449 116.934932 
L 139.738776 120.830983 
L 143.155102 123.890045 
L 146.571429 126.07633 
L 149.987755 127.407292 
L 153.404082 127.946323 
L 156.820408 127.794313 
L 160.236735 127.080518 
L 163.653061 125.953372 
L 167.069388 124.571888 
L 170.485714 123.098166 
L 173.902041 121.691447 
L 177.318367 120.503991 
L 180.734694 119.67892 
L 184.15102 119.303366 
L 187.567347 119.271984 
L 190.983673 119.440507 
L 194.4 119.682858 
" style="fill:none;stroke:#66c2a5;stroke-linecap:square;stroke-width:2;"/>
   </g>
   <g id="patch_8">
    <path d="M 112.408163 128.16 
L 112.408163 77.76 
" style="fill:none;stroke:#a9a9a9;stroke-linecap:square;stroke-linejoin:miter;stroke-width:2;"/>
   </g>
   <g id="patch_9">
    <path d="M 194.4 128.16 
L 194.4 77.76 
" style="fill:none;"/>
   </g>
   <g id="patch_10">
    <path d="M 27 122.34103 
L 194.4 122.34103 
" style="fill:none;stroke:#a9a9a9;stroke-linecap:square;stroke-linejoin:miter;stroke-width:2;"/>
   </g>
   <g id="patch_11">
    <path d="M 27 77.76 
L 194.4 77.76 
" style="fill:none;"/>
   </g>
  </g>
 </g>
 <defs>
  <clipPath id="p8628a56661">
   <rect height="50.4" width="167.4" x="27" y="17.28"/>
  </clipPath>
  <clipPath id="p00171cf346">
   <rect height="50.4" width="167.4" x="27" y="77.76"/>
  </clipPath>
 </defs>
</svg>
