<?xml version="1.0" encoding="utf-8" standalone="no"?>
<!DOCTYPE svg PUBLIC "-//W3C//DTD SVG 1.1//EN"
  "http://www.w3.org/Graphics/SVG/1.1/DTD/svg11.dtd">
<!-- Created with matplotlib (https://matplotlib.org/) -->
<svg height="144pt" version="1.1" viewBox="0 0 216 144" width="216pt" xmlns="http://www.w3.org/2000/svg" xmlns:xlink="http://www.w3.org/1999/xlink">
 <metadata>
  <rdf:RDF xmlns:cc="http://creativecommons.org/ns#" xmlns:dc="http://purl.org/dc/elements/1.1/" xmlns:rdf="http://www.w3.org/1999/02/22-rdf-syntax-ns#">
   <cc:Work>
    <dc:type rdf:resource="http://purl.org/dc/dcmitype/StillImage"/>
    <dc:date>2021-09-28T11:10:51.543138</dc:date>
    <dc:format>image/svg+xml</dc:format>
    <dc:creator>
     <cc:Agent>
      <dc:title>Matplotlib v3.3.2, https://matplotlib.org/</dc:title>
     </cc:Agent>
    </dc:creator>
   </cc:Work>
  </rdf:RDF>
 </metadata>
 <defs>
  <style type="text/css">*{stroke-linecap:butt;stroke-linejoin:round;}</style>
 </defs>
 <g id="figure_1">
  <g id="patch_1">
   <path d="M 0 144 
L 216 144 
L 216 0 
L 0 0 
z
" style="fill:none;"/>
  </g>
  <g id="axes_1">
   <g id="patch_2">
    <path d="M 27 67.68 
L 194.4 67.68 
L 194.4 17.28 
L 27 17.28 
z
" style="fill:none;"/>
   </g>
   <g id="PolyCollection_1">
    <path clip-path="url(#p51f6e3fd1c)" d="M 27 57.35158 
L 27 57.35158 
L 30.416327 57.35158 
L 33.832653 57.35158 
L 37.24898 57.35158 
L 40.665306 57.351484 
L 44.081633 57.328882 
L 47.497959 57.190225 
L 50.914286 56.891428 
L 54.330612 56.389004 
L 57.746939 55.810787 
L 61.163265 55.020335 
L 64.579592 54.230026 
L 67.995918 52.151242 
L 71.412245 50.010185 
L 74.828571 46.603509 
L 78.244898 43.06466 
L 81.661224 38.565838 
L 85.077551 32.314848 
L 88.493878 26.677109 
L 91.910204 21.783221 
L 95.326531 19.453385 
L 98.742857 17.28 
L 102.159184 17.999955 
L 105.57551 21.316706 
L 108.991837 26.198537 
L 112.408163 37.431366 
L 115.82449 42.364524 
L 119.240816 48.830983 
L 122.657143 54.135511 
L 126.073469 58.021988 
L 129.489796 60.425739 
L 132.906122 59.528218 
L 136.322449 59.723141 
L 139.738776 57.262278 
L 143.155102 55.909435 
L 146.571429 55.030903 
L 149.987755 54.664252 
L 153.404082 54.876696 
L 156.820408 55.033504 
L 160.236735 55.305757 
L 163.653061 55.997715 
L 167.069388 56.669444 
L 170.485714 56.917443 
L 173.902041 57.206926 
L 177.318367 57.326713 
L 180.734694 57.340704 
L 184.15102 57.351551 
L 187.567347 57.35158 
L 190.983673 57.35158 
L 194.4 57.35158 
L 194.4 57.35158 
L 194.4 57.35158 
L 190.983673 57.35158 
L 187.567347 57.351581 
L 184.15102 57.351667 
L 180.734694 57.372008 
L 177.318367 57.494839 
L 173.902041 57.693312 
L 170.485714 57.925484 
L 167.069388 57.998583 
L 163.653061 57.943139 
L 160.236735 57.530736 
L 156.820408 57.947541 
L 153.404082 58.0476 
L 149.987755 59.073126 
L 146.571429 59.964656 
L 143.155102 61.056096 
L 139.738776 64.148902 
L 136.322449 66.065053 
L 132.906122 67.68 
L 129.489796 66.456605 
L 126.073469 65.491851 
L 122.657143 62.346464 
L 119.240816 56.909254 
L 115.82449 50.723132 
L 112.408163 38.966307 
L 108.991837 34.662029 
L 105.57551 29.524497 
L 102.159184 26.377769 
L 98.742857 25.373751 
L 95.326531 25.795316 
L 91.910204 29.911266 
L 88.493878 33.544061 
L 85.077551 39.207931 
L 81.661224 44.043867 
L 78.244898 47.943387 
L 74.828571 51.075896 
L 71.412245 53.383506 
L 67.995918 55.234253 
L 64.579592 56.514765 
L 61.163265 56.982643 
L 57.746939 57.093821 
L 54.330612 57.386003 
L 50.914286 57.37691 
L 47.497959 57.360115 
L 44.081633 57.363665 
L 40.665306 57.351613 
L 37.24898 57.351581 
L 33.832653 57.35158 
L 30.416327 57.35158 
L 27 57.35158 
z
" style="fill:#fc8d62;fill-opacity:0.5;"/>
   </g>
   <g id="matplotlib.axis_1">
    <g id="xtick_1">
     <g id="line2d_1">
      <defs>
       <path d="M 0 0 
L 0 3.5 
" id="m8276d06b7a" style="stroke:#a9a9a9;stroke-width:2;"/>
      </defs>
      <g>
       <use style="fill:#a9a9a9;stroke:#a9a9a9;stroke-width:2;" x="44.081633" xlink:href="#m8276d06b7a" y="57.35158"/>
      </g>
     </g>
    </g>
    <g id="xtick_2">
     <g id="line2d_2">
      <g>
       <use style="fill:#a9a9a9;stroke:#a9a9a9;stroke-width:2;" x="78.244898" xlink:href="#m8276d06b7a" y="57.35158"/>
      </g>
     </g>
    </g>
    <g id="xtick_3">
     <g id="line2d_3">
      <g>
       <use style="fill:#a9a9a9;stroke:#a9a9a9;stroke-width:2;" x="112.408163" xlink:href="#m8276d06b7a" y="57.35158"/>
      </g>
     </g>
    </g>
    <g id="xtick_4">
     <g id="line2d_4">
      <g>
       <use style="fill:#a9a9a9;stroke:#a9a9a9;stroke-width:2;" x="146.571429" xlink:href="#m8276d06b7a" y="57.35158"/>
      </g>
     </g>
    </g>
    <g id="xtick_5">
     <g id="line2d_5">
      <g>
       <use style="fill:#a9a9a9;stroke:#a9a9a9;stroke-width:2;" x="180.734694" xlink:href="#m8276d06b7a" y="57.35158"/>
      </g>
     </g>
    </g>
   </g>
   <g id="matplotlib.axis_2"/>
   <g id="line2d_6">
    <path clip-path="url(#p51f6e3fd1c)" d="M 27 57.35158 
L 30.416327 57.35158 
L 33.832653 57.35158 
L 37.24898 57.35158 
L 40.665306 57.351549 
L 44.081633 57.346273 
L 47.497959 57.27517 
L 50.914286 57.134169 
L 54.330612 56.887503 
L 57.746939 56.452304 
L 61.163265 56.001489 
L 64.579592 55.372395 
L 67.995918 53.692748 
L 71.412245 51.696846 
L 74.828571 48.839702 
L 78.244898 45.504023 
L 81.661224 41.304853 
L 85.077551 35.76139 
L 88.493878 30.110585 
L 91.910204 25.847243 
L 95.326531 22.624351 
L 98.742857 21.326875 
L 102.159184 22.188862 
L 105.57551 25.420601 
L 108.991837 30.430283 
L 112.408163 38.198836 
L 115.82449 46.543828 
L 119.240816 52.870118 
L 122.657143 58.240988 
L 126.073469 61.756919 
L 129.489796 63.441172 
L 132.906122 63.604109 
L 136.322449 62.894097 
L 139.738776 60.70559 
L 143.155102 58.482765 
L 146.571429 57.49778 
L 149.987755 56.868689 
L 153.404082 56.462148 
L 156.820408 56.490523 
L 160.236735 56.418247 
L 163.653061 56.970427 
L 167.069388 57.334013 
L 170.485714 57.421464 
L 173.902041 57.450119 
L 177.318367 57.410776 
L 180.734694 57.356356 
L 184.15102 57.351609 
L 187.567347 57.351581 
L 190.983673 57.35158 
L 194.4 57.35158 
" style="fill:none;stroke:#fc8d62;stroke-linecap:square;stroke-width:2;"/>
   </g>
   <g id="line2d_7">
    <path clip-path="url(#p51f6e3fd1c)" d="M 27 57.35158 
L 30.416327 57.35158 
L 33.832653 57.35158 
L 37.24898 57.35158 
L 40.665306 57.35158 
L 44.081633 57.351307 
L 47.497959 57.289375 
L 50.914286 57.108127 
L 54.330612 56.474742 
L 57.746939 55.707558 
L 61.163265 54.486309 
L 64.579592 52.911898 
L 67.995918 51.135384 
L 71.412245 48.348925 
L 74.828571 45.954433 
L 78.244898 42.032093 
L 81.661224 39.554193 
L 85.077551 36.106217 
L 88.493878 32.563766 
L 91.910204 30.353832 
L 95.326531 27.201333 
L 98.742857 25.481214 
L 102.159184 23.106305 
L 105.57551 21.326875 
L 108.991837 21.573196 
L 112.408163 22.110586 
L 115.82449 23.456069 
L 119.240816 26.214782 
L 122.657143 28.061053 
L 126.073469 30.480652 
L 129.489796 34.432157 
L 132.906122 37.43376 
L 136.322449 41.576916 
L 139.738776 44.441224 
L 143.155102 47.210371 
L 146.571429 50.473481 
L 149.987755 51.811331 
L 153.404082 54.003877 
L 156.820408 55.000901 
L 160.236735 56.223637 
L 163.653061 56.902668 
L 167.069388 57.258839 
L 170.485714 57.487043 
L 173.902041 57.383687 
L 177.318367 57.384839 
L 180.734694 57.351826 
L 184.15102 57.35158 
L 187.567347 57.35158 
L 190.983673 57.35158 
L 194.4 57.35158 
" style="fill:none;stroke:#fc8d62;stroke-dasharray:1.5,2.475;stroke-dashoffset:0;stroke-opacity:0.5;stroke-width:1.5;"/>
   </g>
   <g id="patch_3">
    <path d="M 112.408163 67.68 
L 112.408163 17.28 
" style="fill:none;stroke:#a9a9a9;stroke-linecap:square;stroke-linejoin:miter;stroke-width:2;"/>
   </g>
   <g id="patch_4">
    <path d="M 194.4 67.68 
L 194.4 17.28 
" style="fill:none;"/>
   </g>
   <g id="patch_5">
    <path d="M 27 57.35158 
L 194.4 57.35158 
" style="fill:none;stroke:#a9a9a9;stroke-linecap:square;stroke-linejoin:miter;stroke-width:2;"/>
   </g>
   <g id="patch_6">
    <path d="M 27 17.28 
L 194.4 17.28 
" style="fill:none;"/>
   </g>
   <g id="legend_1">
    <g id="line2d_8">
     <path d="M 152.47 26.448906 
L 166.47 26.448906 
" style="fill:none;stroke:#fc8d62;stroke-linecap:square;stroke-width:2;"/>
    </g>
    <g id="line2d_9"/>
    <g id="text_1">
     <!-- $\theta$ -->
     <g transform="translate(172.07 28.898906)scale(0.07 -0.07)">
      <defs>
       <path d="M 45.515625 34.671875 
L 14.453125 34.671875 
Q 12.359375 20.0625 14.5 13.875 
Q 17.1875 6.25 24.46875 6.25 
Q 31.78125 6.25 37.359375 13.921875 
Q 42.234375 20.65625 45.515625 34.671875 
z
M 47.015625 42.96875 
Q 48.34375 56.84375 46.625 61.71875 
Q 43.953125 69.4375 36.765625 69.4375 
Q 29.296875 69.4375 23.828125 61.8125 
Q 19.53125 55.671875 16.15625 42.96875 
z
M 38.1875 76.765625 
Q 49.90625 76.765625 54.59375 66.40625 
Q 59.28125 56.109375 55.71875 37.84375 
Q 52.203125 19.625 43.453125 9.28125 
Q 34.765625 -1.125 23.046875 -1.125 
Q 11.28125 -1.125 6.640625 9.28125 
Q 2 19.625 5.515625 37.84375 
Q 9.078125 56.109375 17.71875 66.40625 
Q 26.421875 76.765625 38.1875 76.765625 
z
" id="DejaVuSans-Oblique-952"/>
      </defs>
      <use transform="translate(0 0.234375)" xlink:href="#DejaVuSans-Oblique-952"/>
     </g>
    </g>
    <g id="line2d_10">
     <path d="M 152.47 36.723594 
L 166.47 36.723594 
" style="fill:none;stroke:#fc8d62;stroke-dasharray:1.5,2.475;stroke-dashoffset:0;stroke-opacity:0.5;stroke-width:1.5;"/>
    </g>
    <g id="line2d_11"/>
    <g id="text_2">
     <!-- No $\theta$ -->
     <g transform="translate(172.07 39.173594)scale(0.07 -0.07)">
      <defs>
       <path d="M 9.8125 72.90625 
L 23.09375 72.90625 
L 55.421875 11.921875 
L 55.421875 72.90625 
L 64.984375 72.90625 
L 64.984375 0 
L 51.703125 0 
L 19.390625 60.984375 
L 19.390625 0 
L 9.8125 0 
z
" id="DejaVuSans-78"/>
       <path d="M 30.609375 48.390625 
Q 23.390625 48.390625 19.1875 42.75 
Q 14.984375 37.109375 14.984375 27.296875 
Q 14.984375 17.484375 19.15625 11.84375 
Q 23.34375 6.203125 30.609375 6.203125 
Q 37.796875 6.203125 41.984375 11.859375 
Q 46.1875 17.53125 46.1875 27.296875 
Q 46.1875 37.015625 41.984375 42.703125 
Q 37.796875 48.390625 30.609375 48.390625 
z
M 30.609375 56 
Q 42.328125 56 49.015625 48.375 
Q 55.71875 40.765625 55.71875 27.296875 
Q 55.71875 13.875 49.015625 6.21875 
Q 42.328125 -1.421875 30.609375 -1.421875 
Q 18.84375 -1.421875 12.171875 6.21875 
Q 5.515625 13.875 5.515625 27.296875 
Q 5.515625 40.765625 12.171875 48.375 
Q 18.84375 56 30.609375 56 
z
" id="DejaVuSans-111"/>
       <path id="DejaVuSans-32"/>
      </defs>
      <use transform="translate(0 0.234375)" xlink:href="#DejaVuSans-78"/>
      <use transform="translate(74.804688 0.234375)" xlink:href="#DejaVuSans-111"/>
      <use transform="translate(135.986328 0.234375)" xlink:href="#DejaVuSans-32"/>
      <use transform="translate(167.773438 0.234375)" xlink:href="#DejaVuSans-Oblique-952"/>
     </g>
    </g>
   </g>
  </g>
  <g id="axes_2">
   <g id="patch_7">
    <path d="M 27 128.16 
L 194.4 128.16 
L 194.4 77.76 
L 27 77.76 
z
" style="fill:none;"/>
   </g>
   <g id="PolyCollection_2">
    <path clip-path="url(#p17f034c5b7)" d="M 27 121.515171 
L 27 121.427387 
L 30.416327 121.763006 
L 33.832653 121.960379 
L 37.24898 122.065474 
L 40.665306 122.167952 
L 44.081633 122.38849 
L 47.497959 122.796338 
L 50.914286 123.20275 
L 54.330612 123.397276 
L 57.746939 123.208714 
L 61.163265 122.499973 
L 64.579592 121.16447 
L 67.995918 119.138373 
L 71.412245 116.418442 
L 74.828571 113.048615 
L 78.244898 109.111358 
L 81.661224 104.726345 
L 85.077551 100.048534 
L 88.493878 95.264963 
L 91.910204 90.590897 
L 95.326531 86.265101 
L 98.742857 82.54478 
L 102.159184 79.700532 
L 105.57551 78.011384 
L 108.991837 77.76 
L 112.408163 79.218145 
L 115.82449 82.547807 
L 119.240816 87.284624 
L 122.657143 92.89797 
L 126.073469 98.905751 
L 129.489796 104.896188 
L 132.906122 110.53401 
L 136.322449 115.561983 
L 139.738776 119.798917 
L 143.155102 123.136371 
L 146.571429 125.534786 
L 149.987755 127.017576 
L 153.404082 127.660145 
L 156.820408 127.575457 
L 160.236735 126.902435 
L 163.653061 125.797607 
L 167.069388 124.428209 
L 170.485714 122.966449 
L 173.902041 121.585376 
L 177.318367 120.459426 
L 180.734694 119.772819 
L 184.15102 119.649837 
L 187.567347 119.935219 
L 190.983673 120.426351 
L 194.4 120.961407 
L 194.4 121.078885 
L 194.4 121.078885 
L 190.983673 120.575469 
L 187.567347 120.110373 
L 184.15102 119.839812 
L 180.734694 119.965537 
L 177.318367 120.655609 
L 173.902041 121.808674 
L 170.485714 123.243649 
L 167.069388 124.770867 
L 163.653061 126.201889 
L 160.236735 127.354879 
L 156.820408 128.058892 
L 153.404082 128.16 
L 149.987755 127.529235 
L 146.571429 126.071222 
L 143.155102 123.730658 
L 139.738776 120.495824 
L 136.322449 116.404754 
L 132.906122 111.555303 
L 129.489796 106.114966 
L 126.073469 100.327491 
L 122.657143 94.515277 
L 119.240816 89.077893 
L 115.82449 84.485911 
L 112.408163 81.25935 
L 108.991837 79.85432 
L 105.57551 80.106688 
L 102.159184 81.745934 
L 98.742857 84.492729 
L 95.326531 88.073282 
L 91.910204 92.223974 
L 88.493878 96.696094 
L 85.077551 101.260613 
L 81.661224 105.712789 
L 78.244898 109.87648 
L 74.828571 113.608116 
L 71.412245 116.799589 
L 67.995918 119.380931 
L 64.579592 121.32285 
L 61.163265 122.631392 
L 57.746939 123.337216 
L 54.330612 123.51529 
L 50.914286 123.297738 
L 47.497959 122.868955 
L 44.081633 122.456351 
L 40.665306 122.23878 
L 37.24898 122.134632 
L 33.832653 122.025379 
L 30.416327 121.831742 
L 27 121.515171 
z
" style="fill:#66c2a5;fill-opacity:0.5;"/>
   </g>
   <g id="matplotlib.axis_3">
    <g id="xtick_6">
     <g id="line2d_12">
      <g>
       <use style="fill:#a9a9a9;stroke:#a9a9a9;stroke-width:2;" x="44.081633" xlink:href="#m8276d06b7a" y="122.142844"/>
      </g>
     </g>
    </g>
    <g id="xtick_7">
     <g id="line2d_13">
      <g>
       <use style="fill:#a9a9a9;stroke:#a9a9a9;stroke-width:2;" x="78.244898" xlink:href="#m8276d06b7a" y="122.142844"/>
      </g>
     </g>
    </g>
    <g id="xtick_8">
     <g id="line2d_14">
      <g>
       <use style="fill:#a9a9a9;stroke:#a9a9a9;stroke-width:2;" x="112.408163" xlink:href="#m8276d06b7a" y="122.142844"/>
      </g>
     </g>
    </g>
    <g id="xtick_9">
     <g id="line2d_15">
      <g>
       <use style="fill:#a9a9a9;stroke:#a9a9a9;stroke-width:2;" x="146.571429" xlink:href="#m8276d06b7a" y="122.142844"/>
      </g>
     </g>
    </g>
    <g id="xtick_10">
     <g id="line2d_16">
      <g>
       <use style="fill:#a9a9a9;stroke:#a9a9a9;stroke-width:2;" x="180.734694" xlink:href="#m8276d06b7a" y="122.142844"/>
      </g>
     </g>
    </g>
   </g>
   <g id="matplotlib.axis_4"/>
   <g id="line2d_17">
    <path clip-path="url(#p17f034c5b7)" d="M 27 121.471279 
L 30.416327 121.797374 
L 33.832653 121.992879 
L 37.24898 122.100053 
L 40.665306 122.203366 
L 44.081633 122.42242 
L 47.497959 122.832647 
L 50.914286 123.250244 
L 54.330612 123.456283 
L 57.746939 123.272965 
L 61.163265 122.565683 
L 64.579592 121.24366 
L 67.995918 119.259652 
L 71.412245 116.609016 
L 74.828571 113.328365 
L 78.244898 109.493919 
L 81.661224 105.219567 
L 85.077551 100.654574 
L 88.493878 95.980529 
L 91.910204 91.407436 
L 95.326531 87.169191 
L 98.742857 83.518755 
L 102.159184 80.723233 
L 105.57551 79.059036 
L 108.991837 78.80716 
L 112.408163 80.238748 
L 115.82449 83.516859 
L 119.240816 88.181259 
L 122.657143 93.706623 
L 126.073469 99.616621 
L 129.489796 105.505577 
L 132.906122 111.044656 
L 136.322449 115.983369 
L 139.738776 120.14737 
L 143.155102 123.433514 
L 146.571429 125.803004 
L 149.987755 127.273406 
L 153.404082 127.910073 
L 156.820408 127.817174 
L 160.236735 127.128657 
L 163.653061 125.999748 
L 167.069388 124.599538 
L 170.485714 123.105049 
L 173.902041 121.697025 
L 177.318367 120.557518 
L 180.734694 119.869178 
L 184.15102 119.744824 
L 187.567347 120.022796 
L 190.983673 120.50091 
L 194.4 121.020146 
" style="fill:none;stroke:#66c2a5;stroke-linecap:square;stroke-width:2;"/>
   </g>
   <g id="patch_8">
    <path d="M 112.408163 128.16 
L 112.408163 77.76 
" style="fill:none;stroke:#a9a9a9;stroke-linecap:square;stroke-linejoin:miter;stroke-width:2;"/>
   </g>
   <g id="patch_9">
    <path d="M 194.4 128.16 
L 194.4 77.76 
" style="fill:none;"/>
   </g>
   <g id="patch_10">
    <path d="M 27 122.142844 
L 194.4 122.142844 
" style="fill:none;stroke:#a9a9a9;stroke-linecap:square;stroke-linejoin:miter;stroke-width:2;"/>
   </g>
   <g id="patch_11">
    <path d="M 27 77.76 
L 194.4 77.76 
" style="fill:none;"/>
   </g>
  </g>
 </g>
 <defs>
  <clipPath id="p51f6e3fd1c">
   <rect height="50.4" width="167.4" x="27" y="17.28"/>
  </clipPath>
  <clipPath id="p17f034c5b7">
   <rect height="50.4" width="167.4" x="27" y="77.76"/>
  </clipPath>
 </defs>
</svg>
