<?xml version="1.0" encoding="utf-8" standalone="no"?>
<!DOCTYPE svg PUBLIC "-//W3C//DTD SVG 1.1//EN"
  "http://www.w3.org/Graphics/SVG/1.1/DTD/svg11.dtd">
<!-- Created with matplotlib (https://matplotlib.org/) -->
<svg height="144pt" version="1.1" viewBox="0 0 216 144" width="216pt" xmlns="http://www.w3.org/2000/svg" xmlns:xlink="http://www.w3.org/1999/xlink">
 <metadata>
  <rdf:RDF xmlns:cc="http://creativecommons.org/ns#" xmlns:dc="http://purl.org/dc/elements/1.1/" xmlns:rdf="http://www.w3.org/1999/02/22-rdf-syntax-ns#">
   <cc:Work>
    <dc:type rdf:resource="http://purl.org/dc/dcmitype/StillImage"/>
    <dc:date>2021-09-28T13:50:59.391461</dc:date>
    <dc:format>image/svg+xml</dc:format>
    <dc:creator>
     <cc:Agent>
      <dc:title>Matplotlib v3.3.2, https://matplotlib.org/</dc:title>
     </cc:Agent>
    </dc:creator>
   </cc:Work>
  </rdf:RDF>
 </metadata>
 <defs>
  <style type="text/css">*{stroke-linecap:butt;stroke-linejoin:round;}</style>
 </defs>
 <g id="figure_1">
  <g id="patch_1">
   <path d="M 0 144 
L 216 144 
L 216 0 
L 0 0 
z
" style="fill:none;"/>
  </g>
  <g id="axes_1">
   <g id="patch_2">
    <path d="M 27 67.68 
L 194.4 67.68 
L 194.4 17.28 
L 27 17.28 
z
" style="fill:none;"/>
   </g>
   <g id="PolyCollection_1">
    <path clip-path="url(#p23ae427f76)" d="M 27 65.59968 
L 27 65.59968 
L 30.416327 65.59968 
L 33.832653 65.59968 
L 37.24898 65.59968 
L 40.665306 65.59968 
L 44.081633 65.597545 
L 47.497959 65.371881 
L 50.914286 64.748473 
L 54.330612 63.749481 
L 57.746939 62.633592 
L 61.163265 60.455615 
L 64.579592 57.864558 
L 67.995918 54.22001 
L 71.412245 50.398254 
L 74.828571 47.500368 
L 78.244898 42.531161 
L 81.661224 38.078291 
L 85.077551 33.628226 
L 88.493878 27.166811 
L 91.910204 25.473854 
L 95.326531 21.49564 
L 98.742857 17.28 
L 102.159184 18.288369 
L 105.57551 17.706909 
L 108.991837 18.093686 
L 112.408163 26.036843 
L 115.82449 24.956212 
L 119.240816 28.217648 
L 122.657143 32.426776 
L 126.073469 38.573386 
L 129.489796 41.39397 
L 132.906122 45.458512 
L 136.322449 48.66171 
L 139.738776 51.697398 
L 143.155102 55.50695 
L 146.571429 58.417372 
L 149.987755 60.606656 
L 153.404082 61.739613 
L 156.820408 62.708239 
L 160.236735 63.382216 
L 163.653061 64.638525 
L 167.069388 64.834721 
L 170.485714 65.459245 
L 173.902041 65.440267 
L 177.318367 65.544512 
L 180.734694 65.599051 
L 184.15102 65.59968 
L 187.567347 65.59968 
L 190.983673 65.59968 
L 194.4 65.59968 
L 194.4 65.59968 
L 194.4 65.59968 
L 190.983673 65.59968 
L 187.567347 65.59968 
L 184.15102 65.59968 
L 180.734694 65.601601 
L 177.318367 65.792165 
L 173.902041 66.212236 
L 170.485714 66.620374 
L 167.069388 66.677548 
L 163.653061 67.097571 
L 160.236735 67.300489 
L 156.820408 67.68 
L 153.404082 67.331434 
L 149.987755 65.387777 
L 146.571429 64.63419 
L 143.155102 62.793204 
L 139.738776 60.565882 
L 136.322449 59.473194 
L 132.906122 54.458311 
L 129.489796 51.922246 
L 126.073469 49.671973 
L 122.657143 43.095879 
L 119.240816 40.258761 
L 115.82449 37.035972 
L 112.408163 28.182761 
L 108.991837 30.430315 
L 105.57551 29.750117 
L 102.159184 29.80971 
L 98.742857 28.472372 
L 95.326531 31.658086 
L 91.910204 34.587669 
L 88.493878 38.650924 
L 85.077551 42.189323 
L 81.661224 45.13922 
L 78.244898 48.711811 
L 74.828571 52.309291 
L 71.412245 55.980538 
L 67.995918 59.207725 
L 64.579592 61.767411 
L 61.163265 63.049384 
L 57.746939 64.508956 
L 54.330612 64.924521 
L 50.914286 65.508437 
L 47.497959 65.626458 
L 44.081633 65.600379 
L 40.665306 65.59968 
L 37.24898 65.59968 
L 33.832653 65.59968 
L 30.416327 65.59968 
L 27 65.59968 
z
" style="fill:#fc8d62;fill-opacity:0.5;"/>
   </g>
   <g id="matplotlib.axis_1">
    <g id="xtick_1">
     <g id="line2d_1">
      <defs>
       <path d="M 0 0 
L 0 3.5 
" id="mf9b1fc7178" style="stroke:#a9a9a9;stroke-width:2;"/>
      </defs>
      <g>
       <use style="fill:#a9a9a9;stroke:#a9a9a9;stroke-width:2;" x="44.081633" xlink:href="#mf9b1fc7178" y="65.59968"/>
      </g>
     </g>
    </g>
    <g id="xtick_2">
     <g id="line2d_2">
      <g>
       <use style="fill:#a9a9a9;stroke:#a9a9a9;stroke-width:2;" x="78.244898" xlink:href="#mf9b1fc7178" y="65.59968"/>
      </g>
     </g>
    </g>
    <g id="xtick_3">
     <g id="line2d_3">
      <g>
       <use style="fill:#a9a9a9;stroke:#a9a9a9;stroke-width:2;" x="112.408163" xlink:href="#mf9b1fc7178" y="65.59968"/>
      </g>
     </g>
    </g>
    <g id="xtick_4">
     <g id="line2d_4">
      <g>
       <use style="fill:#a9a9a9;stroke:#a9a9a9;stroke-width:2;" x="146.571429" xlink:href="#mf9b1fc7178" y="65.59968"/>
      </g>
     </g>
    </g>
    <g id="xtick_5">
     <g id="line2d_5">
      <g>
       <use style="fill:#a9a9a9;stroke:#a9a9a9;stroke-width:2;" x="180.734694" xlink:href="#mf9b1fc7178" y="65.59968"/>
      </g>
     </g>
    </g>
   </g>
   <g id="matplotlib.axis_2"/>
   <g id="line2d_6">
    <path clip-path="url(#p23ae427f76)" d="M 27 65.59968 
L 30.416327 65.59968 
L 33.832653 65.59968 
L 37.24898 65.59968 
L 40.665306 65.59968 
L 44.081633 65.598962 
L 47.497959 65.49917 
L 50.914286 65.128455 
L 54.330612 64.337001 
L 57.746939 63.571274 
L 61.163265 61.7525 
L 64.579592 59.815985 
L 67.995918 56.713867 
L 71.412245 53.189396 
L 74.828571 49.90483 
L 78.244898 45.621486 
L 81.661224 41.608756 
L 85.077551 37.908775 
L 88.493878 32.908868 
L 91.910204 30.030761 
L 95.326531 26.576863 
L 98.742857 22.876186 
L 102.159184 24.04904 
L 105.57551 23.728513 
L 108.991837 24.262 
L 112.408163 27.109802 
L 115.82449 30.996092 
L 119.240816 34.238204 
L 122.657143 37.761327 
L 126.073469 44.12268 
L 129.489796 46.658108 
L 132.906122 49.958412 
L 136.322449 54.067452 
L 139.738776 56.13164 
L 143.155102 59.150077 
L 146.571429 61.525781 
L 149.987755 62.997216 
L 153.404082 64.535524 
L 156.820408 65.194119 
L 160.236735 65.341352 
L 163.653061 65.868048 
L 167.069388 65.756134 
L 170.485714 66.039809 
L 173.902041 65.826252 
L 177.318367 65.668338 
L 180.734694 65.600326 
L 184.15102 65.59968 
L 187.567347 65.59968 
L 190.983673 65.59968 
L 194.4 65.59968 
" style="fill:none;stroke:#fc8d62;stroke-linecap:square;stroke-width:2;"/>
   </g>
   <g id="line2d_7">
    <path clip-path="url(#p23ae427f76)" d="M 27 65.59968 
L 30.416327 65.59968 
L 33.832653 65.59968 
L 37.24898 65.59968 
L 40.665306 65.59968 
L 44.081633 65.599193 
L 47.497959 65.510951 
L 50.914286 65.210601 
L 54.330612 64.537666 
L 57.746939 63.525558 
L 61.163265 61.696583 
L 64.579592 59.991502 
L 67.995918 57.196899 
L 71.412245 54.260498 
L 74.828571 51.831834 
L 78.244898 48.072448 
L 81.661224 44.320705 
L 85.077551 40.910592 
L 88.493878 36.624732 
L 91.910204 31.967224 
L 95.326531 29.525511 
L 98.742857 27.486227 
L 102.159184 24.688128 
L 105.57551 23.048989 
L 108.991837 22.876186 
L 112.408163 24.216865 
L 115.82449 26.523956 
L 119.240816 29.106475 
L 122.657143 31.899989 
L 126.073469 34.744902 
L 129.489796 39.169053 
L 132.906122 43.969322 
L 136.322449 46.744439 
L 139.738776 50.015675 
L 143.155102 53.954253 
L 146.571429 56.935478 
L 149.987755 59.26915 
L 153.404082 62.234078 
L 156.820408 63.763048 
L 160.236735 64.521646 
L 163.653061 65.508136 
L 167.069388 65.614947 
L 170.485714 65.765177 
L 173.902041 65.716553 
L 177.318367 65.65287 
L 180.734694 65.600119 
L 184.15102 65.59968 
L 187.567347 65.59968 
L 190.983673 65.59968 
L 194.4 65.59968 
" style="fill:none;stroke:#fc8d62;stroke-dasharray:1.5,2.475;stroke-dashoffset:0;stroke-opacity:0.5;stroke-width:1.5;"/>
   </g>
   <g id="patch_3">
    <path d="M 112.408163 67.68 
L 112.408163 17.28 
" style="fill:none;stroke:#a9a9a9;stroke-linecap:square;stroke-linejoin:miter;stroke-width:2;"/>
   </g>
   <g id="patch_4">
    <path d="M 194.4 67.68 
L 194.4 17.28 
" style="fill:none;"/>
   </g>
   <g id="patch_5">
    <path d="M 27 65.59968 
L 194.4 65.59968 
" style="fill:none;stroke:#a9a9a9;stroke-linecap:square;stroke-linejoin:miter;stroke-width:2;"/>
   </g>
   <g id="patch_6">
    <path d="M 27 17.28 
L 194.4 17.28 
" style="fill:none;"/>
   </g>
   <g id="legend_1">
    <g id="line2d_8">
     <path d="M 152.47 26.448906 
L 166.47 26.448906 
" style="fill:none;stroke:#fc8d62;stroke-linecap:square;stroke-width:2;"/>
    </g>
    <g id="line2d_9"/>
    <g id="text_1">
     <!-- $\theta$ -->
     <g transform="translate(172.07 28.898906)scale(0.07 -0.07)">
      <defs>
       <path d="M 45.515625 34.671875 
L 14.453125 34.671875 
Q 12.359375 20.0625 14.5 13.875 
Q 17.1875 6.25 24.46875 6.25 
Q 31.78125 6.25 37.359375 13.921875 
Q 42.234375 20.65625 45.515625 34.671875 
z
M 47.015625 42.96875 
Q 48.34375 56.84375 46.625 61.71875 
Q 43.953125 69.4375 36.765625 69.4375 
Q 29.296875 69.4375 23.828125 61.8125 
Q 19.53125 55.671875 16.15625 42.96875 
z
M 38.1875 76.765625 
Q 49.90625 76.765625 54.59375 66.40625 
Q 59.28125 56.109375 55.71875 37.84375 
Q 52.203125 19.625 43.453125 9.28125 
Q 34.765625 -1.125 23.046875 -1.125 
Q 11.28125 -1.125 6.640625 9.28125 
Q 2 19.625 5.515625 37.84375 
Q 9.078125 56.109375 17.71875 66.40625 
Q 26.421875 76.765625 38.1875 76.765625 
z
" id="DejaVuSans-Oblique-952"/>
      </defs>
      <use transform="translate(0 0.234375)" xlink:href="#DejaVuSans-Oblique-952"/>
     </g>
    </g>
    <g id="line2d_10">
     <path d="M 152.47 36.723594 
L 166.47 36.723594 
" style="fill:none;stroke:#fc8d62;stroke-dasharray:1.5,2.475;stroke-dashoffset:0;stroke-opacity:0.5;stroke-width:1.5;"/>
    </g>
    <g id="line2d_11"/>
    <g id="text_2">
     <!-- No $\theta$ -->
     <g transform="translate(172.07 39.173594)scale(0.07 -0.07)">
      <defs>
       <path d="M 9.8125 72.90625 
L 23.09375 72.90625 
L 55.421875 11.921875 
L 55.421875 72.90625 
L 64.984375 72.90625 
L 64.984375 0 
L 51.703125 0 
L 19.390625 60.984375 
L 19.390625 0 
L 9.8125 0 
z
" id="DejaVuSans-78"/>
       <path d="M 30.609375 48.390625 
Q 23.390625 48.390625 19.1875 42.75 
Q 14.984375 37.109375 14.984375 27.296875 
Q 14.984375 17.484375 19.15625 11.84375 
Q 23.34375 6.203125 30.609375 6.203125 
Q 37.796875 6.203125 41.984375 11.859375 
Q 46.1875 17.53125 46.1875 27.296875 
Q 46.1875 37.015625 41.984375 42.703125 
Q 37.796875 48.390625 30.609375 48.390625 
z
M 30.609375 56 
Q 42.328125 56 49.015625 48.375 
Q 55.71875 40.765625 55.71875 27.296875 
Q 55.71875 13.875 49.015625 6.21875 
Q 42.328125 -1.421875 30.609375 -1.421875 
Q 18.84375 -1.421875 12.171875 6.21875 
Q 5.515625 13.875 5.515625 27.296875 
Q 5.515625 40.765625 12.171875 48.375 
Q 18.84375 56 30.609375 56 
z
" id="DejaVuSans-111"/>
       <path id="DejaVuSans-32"/>
      </defs>
      <use transform="translate(0 0.234375)" xlink:href="#DejaVuSans-78"/>
      <use transform="translate(74.804688 0.234375)" xlink:href="#DejaVuSans-111"/>
      <use transform="translate(135.986328 0.234375)" xlink:href="#DejaVuSans-32"/>
      <use transform="translate(167.773438 0.234375)" xlink:href="#DejaVuSans-Oblique-952"/>
     </g>
    </g>
   </g>
  </g>
  <g id="axes_2">
   <g id="patch_7">
    <path d="M 27 128.16 
L 194.4 128.16 
L 194.4 77.76 
L 27 77.76 
z
" style="fill:none;"/>
   </g>
   <g id="PolyCollection_2">
    <path clip-path="url(#p0263dae1a1)" d="M 27 117.780726 
L 27 117.581632 
L 30.416327 117.430716 
L 33.832653 117.141261 
L 37.24898 116.700845 
L 40.665306 116.127256 
L 44.081633 115.465973 
L 47.497959 114.748777 
L 50.914286 113.87502 
L 54.330612 112.732951 
L 57.746939 111.241334 
L 61.163265 109.351499 
L 64.579592 107.048307 
L 67.995918 104.350269 
L 71.412245 101.308312 
L 74.828571 98.002705 
L 78.244898 94.539014 
L 81.661224 91.043302 
L 85.077551 87.657274 
L 88.493878 84.532998 
L 91.910204 81.827518 
L 95.326531 79.697507 
L 98.742857 78.294362 
L 102.159184 77.76 
L 105.57551 78.223627 
L 108.991837 79.799653 
L 112.408163 82.581728 
L 115.82449 86.59234 
L 119.240816 91.505408 
L 122.657143 96.947786 
L 126.073469 102.567228 
L 129.489796 108.051141 
L 132.906122 113.136466 
L 136.322449 117.616063 
L 139.738776 121.341746 
L 143.155102 124.224934 
L 146.571429 126.236103 
L 149.987755 127.400989 
L 153.404082 127.791846 
L 156.820408 127.514781 
L 160.236735 126.699262 
L 163.653061 125.489148 
L 167.069388 124.034771 
L 170.485714 122.485937 
L 173.902041 120.986927 
L 177.318367 119.674187 
L 180.734694 118.675643 
L 184.15102 118.071245 
L 187.567347 117.777273 
L 190.983673 117.670636 
L 194.4 117.637507 
L 194.4 117.843542 
L 194.4 117.843542 
L 190.983673 117.887953 
L 187.567347 118.004588 
L 184.15102 118.303624 
L 180.734694 118.908077 
L 177.318367 119.907126 
L 173.902041 121.228764 
L 170.485714 122.748264 
L 167.069388 124.325592 
L 163.653061 125.80947 
L 160.236735 127.04379 
L 156.820408 127.874928 
L 153.404082 128.16 
L 149.987755 127.776241 
L 146.571429 126.630257 
L 143.155102 124.665426 
L 139.738776 121.865503 
L 136.322449 118.259623 
L 132.906122 113.928909 
L 129.489796 109.011955 
L 126.073469 103.706077 
L 122.657143 98.264665 
L 119.240816 92.990977 
L 115.82449 88.228229 
L 112.408163 84.341136 
L 108.991837 81.648507 
L 105.57551 80.124265 
L 102.159184 79.67328 
L 98.742857 80.181541 
L 95.326531 81.522066 
L 91.910204 83.556899 
L 88.493878 86.140179 
L 85.077551 89.12207 
L 81.661224 92.353343 
L 78.244898 95.690249 
L 74.828571 98.999429 
L 71.412245 102.162424 
L 67.995918 105.079905 
L 64.579592 107.675244 
L 61.163265 109.897788 
L 57.746939 111.725659 
L 54.330612 113.168526 
L 50.914286 114.26952 
L 47.497959 115.105451 
L 44.081633 115.785222 
L 40.665306 116.408349 
L 37.24898 116.94672 
L 33.832653 117.359486 
L 30.416327 117.632902 
L 27 117.780726 
z
" style="fill:#66c2a5;fill-opacity:0.5;"/>
   </g>
   <g id="matplotlib.axis_3">
    <g id="xtick_6">
     <g id="line2d_12">
      <g>
       <use style="fill:#a9a9a9;stroke:#a9a9a9;stroke-width:2;" x="44.081633" xlink:href="#mf9b1fc7178" y="123.247885"/>
      </g>
     </g>
    </g>
    <g id="xtick_7">
     <g id="line2d_13">
      <g>
       <use style="fill:#a9a9a9;stroke:#a9a9a9;stroke-width:2;" x="78.244898" xlink:href="#mf9b1fc7178" y="123.247885"/>
      </g>
     </g>
    </g>
    <g id="xtick_8">
     <g id="line2d_14">
      <g>
       <use style="fill:#a9a9a9;stroke:#a9a9a9;stroke-width:2;" x="112.408163" xlink:href="#mf9b1fc7178" y="123.247885"/>
      </g>
     </g>
    </g>
    <g id="xtick_9">
     <g id="line2d_15">
      <g>
       <use style="fill:#a9a9a9;stroke:#a9a9a9;stroke-width:2;" x="146.571429" xlink:href="#mf9b1fc7178" y="123.247885"/>
      </g>
     </g>
    </g>
    <g id="xtick_10">
     <g id="line2d_16">
      <g>
       <use style="fill:#a9a9a9;stroke:#a9a9a9;stroke-width:2;" x="180.734694" xlink:href="#mf9b1fc7178" y="123.247885"/>
      </g>
     </g>
    </g>
   </g>
   <g id="matplotlib.axis_4"/>
   <g id="line2d_17">
    <path clip-path="url(#p0263dae1a1)" d="M 27 117.681179 
L 30.416327 117.531809 
L 33.832653 117.250373 
L 37.24898 116.823782 
L 40.665306 116.267803 
L 44.081633 115.625598 
L 47.497959 114.927114 
L 50.914286 114.07227 
L 54.330612 112.950738 
L 57.746939 111.483497 
L 61.163265 109.624644 
L 64.579592 107.361775 
L 67.995918 104.715087 
L 71.412245 101.735368 
L 74.828571 98.501067 
L 78.244898 95.114632 
L 81.661224 91.698322 
L 85.077551 88.389672 
L 88.493878 85.336588 
L 91.910204 82.692208 
L 95.326531 80.609786 
L 98.742857 79.237952 
L 102.159184 78.71664 
L 105.57551 79.173946 
L 108.991837 80.72408 
L 112.408163 83.461432 
L 115.82449 87.410284 
L 119.240816 92.248193 
L 122.657143 97.606225 
L 126.073469 103.136653 
L 129.489796 108.531548 
L 132.906122 113.532688 
L 136.322449 117.937843 
L 139.738776 121.603624 
L 143.155102 124.44518 
L 146.571429 126.43318 
L 149.987755 127.588615 
L 153.404082 127.975923 
L 156.820408 127.694855 
L 160.236735 126.871526 
L 163.653061 125.649309 
L 167.069388 124.180181 
L 170.485714 122.6171 
L 173.902041 121.107846 
L 177.318367 119.790656 
L 180.734694 118.79186 
L 184.15102 118.187434 
L 187.567347 117.890931 
L 190.983673 117.779294 
L 194.4 117.740524 
" style="fill:none;stroke:#66c2a5;stroke-linecap:square;stroke-width:2;"/>
   </g>
   <g id="patch_8">
    <path d="M 112.408163 128.16 
L 112.408163 77.76 
" style="fill:none;stroke:#a9a9a9;stroke-linecap:square;stroke-linejoin:miter;stroke-width:2;"/>
   </g>
   <g id="patch_9">
    <path d="M 194.4 128.16 
L 194.4 77.76 
" style="fill:none;"/>
   </g>
   <g id="patch_10">
    <path d="M 27 123.247885 
L 194.4 123.247885 
" style="fill:none;stroke:#a9a9a9;stroke-linecap:square;stroke-linejoin:miter;stroke-width:2;"/>
   </g>
   <g id="patch_11">
    <path d="M 27 77.76 
L 194.4 77.76 
" style="fill:none;"/>
   </g>
  </g>
 </g>
 <defs>
  <clipPath id="p23ae427f76">
   <rect height="50.4" width="167.4" x="27" y="17.28"/>
  </clipPath>
  <clipPath id="p0263dae1a1">
   <rect height="50.4" width="167.4" x="27" y="77.76"/>
  </clipPath>
 </defs>
</svg>
