<?xml version="1.0" encoding="utf-8" standalone="no"?>
<!DOCTYPE svg PUBLIC "-//W3C//DTD SVG 1.1//EN"
  "http://www.w3.org/Graphics/SVG/1.1/DTD/svg11.dtd">
<!-- Created with matplotlib (https://matplotlib.org/) -->
<svg height="144pt" version="1.1" viewBox="0 0 216 144" width="216pt" xmlns="http://www.w3.org/2000/svg" xmlns:xlink="http://www.w3.org/1999/xlink">
 <metadata>
  <rdf:RDF xmlns:cc="http://creativecommons.org/ns#" xmlns:dc="http://purl.org/dc/elements/1.1/" xmlns:rdf="http://www.w3.org/1999/02/22-rdf-syntax-ns#">
   <cc:Work>
    <dc:type rdf:resource="http://purl.org/dc/dcmitype/StillImage"/>
    <dc:date>2021-09-28T11:12:08.795053</dc:date>
    <dc:format>image/svg+xml</dc:format>
    <dc:creator>
     <cc:Agent>
      <dc:title>Matplotlib v3.3.2, https://matplotlib.org/</dc:title>
     </cc:Agent>
    </dc:creator>
   </cc:Work>
  </rdf:RDF>
 </metadata>
 <defs>
  <style type="text/css">*{stroke-linecap:butt;stroke-linejoin:round;}</style>
 </defs>
 <g id="figure_1">
  <g id="patch_1">
   <path d="M 0 144 
L 216 144 
L 216 0 
L 0 0 
z
" style="fill:none;"/>
  </g>
  <g id="axes_1">
   <g id="patch_2">
    <path d="M 27 67.68 
L 194.4 67.68 
L 194.4 17.28 
L 27 17.28 
z
" style="fill:none;"/>
   </g>
   <g id="PolyCollection_1">
    <path clip-path="url(#p31e4b082e6)" d="M 27 67.600486 
L 27 67.600486 
L 30.416327 67.600486 
L 33.832653 67.600486 
L 37.24898 67.600486 
L 40.665306 67.600486 
L 44.081633 67.598367 
L 47.497959 67.507778 
L 50.914286 67.216258 
L 54.330612 66.766668 
L 57.746939 65.74271 
L 61.163265 64.329287 
L 64.579592 62.63858 
L 67.995918 59.905022 
L 71.412245 56.984342 
L 74.828571 53.212613 
L 78.244898 49.044613 
L 81.661224 44.095578 
L 85.077551 39.621206 
L 88.493878 33.510521 
L 91.910204 29.070973 
L 95.326531 24.707423 
L 98.742857 21.45944 
L 102.159184 19.053542 
L 105.57551 17.28 
L 108.991837 17.381839 
L 112.408163 19.414769 
L 115.82449 21.250021 
L 119.240816 24.077527 
L 122.657143 28.044659 
L 126.073469 31.84115 
L 129.489796 36.11847 
L 132.906122 40.641924 
L 136.322449 43.95759 
L 139.738776 47.542943 
L 143.155102 51.283653 
L 146.571429 54.564614 
L 149.987755 57.318155 
L 153.404082 60.185231 
L 156.820408 62.210414 
L 160.236735 64.174664 
L 163.653061 65.339576 
L 167.069388 66.603342 
L 170.485714 67.093529 
L 173.902041 67.448262 
L 177.318367 67.569043 
L 180.734694 67.599993 
L 184.15102 67.600486 
L 187.567347 67.600486 
L 190.983673 67.600486 
L 194.4 67.600486 
L 194.4 67.600486 
L 194.4 67.600486 
L 190.983673 67.600486 
L 187.567347 67.600486 
L 184.15102 67.600487 
L 180.734694 67.601969 
L 177.318367 67.65024 
L 173.902041 67.68 
L 170.485714 67.44284 
L 167.069388 67.151222 
L 163.653061 66.492216 
L 160.236735 65.162831 
L 156.820408 63.9638 
L 153.404082 61.731628 
L 149.987755 59.65004 
L 146.571429 56.82723 
L 143.155102 53.87462 
L 139.738776 50.446358 
L 136.322449 47.498775 
L 132.906122 43.762831 
L 129.489796 40.124286 
L 126.073469 35.296999 
L 122.657143 31.448446 
L 119.240816 28.178157 
L 115.82449 25.088619 
L 112.408163 21.917015 
L 108.991837 21.321514 
L 105.57551 21.7199 
L 102.159184 22.855424 
L 98.742857 25.489518 
L 95.326531 28.433115 
L 91.910204 32.474224 
L 88.493878 37.665438 
L 85.077551 42.317126 
L 81.661224 47.086461 
L 78.244898 51.401589 
L 74.828571 55.312483 
L 71.412245 58.615017 
L 67.995918 61.523144 
L 64.579592 63.659511 
L 61.163265 65.428407 
L 57.746939 66.288146 
L 54.330612 67.104178 
L 50.914286 67.464849 
L 47.497959 67.595969 
L 44.081633 67.601191 
L 40.665306 67.600487 
L 37.24898 67.600486 
L 33.832653 67.600486 
L 30.416327 67.600486 
L 27 67.600486 
z
" style="fill:#fc8d62;fill-opacity:0.5;"/>
   </g>
   <g id="matplotlib.axis_1">
    <g id="xtick_1">
     <g id="line2d_1">
      <defs>
       <path d="M 0 0 
L 0 3.5 
" id="mac3fd757f5" style="stroke:#a9a9a9;stroke-width:2;"/>
      </defs>
      <g>
       <use style="fill:#a9a9a9;stroke:#a9a9a9;stroke-width:2;" x="44.081633" xlink:href="#mac3fd757f5" y="67.600486"/>
      </g>
     </g>
    </g>
    <g id="xtick_2">
     <g id="line2d_2">
      <g>
       <use style="fill:#a9a9a9;stroke:#a9a9a9;stroke-width:2;" x="78.244898" xlink:href="#mac3fd757f5" y="67.600486"/>
      </g>
     </g>
    </g>
    <g id="xtick_3">
     <g id="line2d_3">
      <g>
       <use style="fill:#a9a9a9;stroke:#a9a9a9;stroke-width:2;" x="112.408163" xlink:href="#mac3fd757f5" y="67.600486"/>
      </g>
     </g>
    </g>
    <g id="xtick_4">
     <g id="line2d_4">
      <g>
       <use style="fill:#a9a9a9;stroke:#a9a9a9;stroke-width:2;" x="146.571429" xlink:href="#mac3fd757f5" y="67.600486"/>
      </g>
     </g>
    </g>
    <g id="xtick_5">
     <g id="line2d_5">
      <g>
       <use style="fill:#a9a9a9;stroke:#a9a9a9;stroke-width:2;" x="180.734694" xlink:href="#mac3fd757f5" y="67.600486"/>
      </g>
     </g>
    </g>
   </g>
   <g id="matplotlib.axis_2"/>
   <g id="line2d_6">
    <path clip-path="url(#p31e4b082e6)" d="M 27 67.600486 
L 30.416327 67.600486 
L 33.832653 67.600486 
L 37.24898 67.600486 
L 40.665306 67.600486 
L 44.081633 67.599779 
L 47.497959 67.551873 
L 50.914286 67.340553 
L 54.330612 66.935423 
L 57.746939 66.015428 
L 61.163265 64.878847 
L 64.579592 63.149046 
L 67.995918 60.714083 
L 71.412245 57.799679 
L 74.828571 54.262548 
L 78.244898 50.223101 
L 81.661224 45.59102 
L 85.077551 40.969166 
L 88.493878 35.58798 
L 91.910204 30.772598 
L 95.326531 26.570269 
L 98.742857 23.474479 
L 102.159184 20.954483 
L 105.57551 19.49995 
L 108.991837 19.351676 
L 112.408163 20.665892 
L 115.82449 23.16932 
L 119.240816 26.127842 
L 122.657143 29.746553 
L 126.073469 33.569074 
L 129.489796 38.121378 
L 132.906122 42.202378 
L 136.322449 45.728182 
L 139.738776 48.99465 
L 143.155102 52.579136 
L 146.571429 55.695922 
L 149.987755 58.484097 
L 153.404082 60.958429 
L 156.820408 63.087107 
L 160.236735 64.668748 
L 163.653061 65.915896 
L 167.069388 66.877282 
L 170.485714 67.268185 
L 173.902041 67.564131 
L 177.318367 67.609642 
L 180.734694 67.600981 
L 184.15102 67.600486 
L 187.567347 67.600486 
L 190.983673 67.600486 
L 194.4 67.600486 
" style="fill:none;stroke:#fc8d62;stroke-linecap:square;stroke-width:2;"/>
   </g>
   <g id="line2d_7">
    <path clip-path="url(#p31e4b082e6)" d="M 27 67.600486 
L 30.416327 67.600486 
L 33.832653 67.600486 
L 37.24898 67.600486 
L 40.665306 67.600486 
L 44.081633 67.600272 
L 47.497959 67.548707 
L 50.914286 67.349936 
L 54.330612 66.839605 
L 57.746939 66.020823 
L 61.163265 64.592028 
L 64.579592 62.832503 
L 67.995918 60.353992 
L 71.412245 57.758886 
L 74.828571 54.162773 
L 78.244898 50.402562 
L 81.661224 46.365073 
L 85.077551 42.020849 
L 88.493878 37.530434 
L 91.910204 33.403839 
L 95.326531 29.235157 
L 98.742857 25.18801 
L 102.159184 22.746002 
L 105.57551 20.942459 
L 108.991837 19.447081 
L 112.408163 19.351676 
L 115.82449 20.628174 
L 119.240816 22.29092 
L 122.657143 25.56167 
L 126.073469 29.653185 
L 129.489796 33.340501 
L 132.906122 37.414762 
L 136.322449 42.054459 
L 139.738776 46.298788 
L 143.155102 50.533195 
L 146.571429 54.309243 
L 149.987755 57.724637 
L 153.404082 60.36864 
L 156.820408 62.932403 
L 160.236735 64.645443 
L 163.653061 66.026854 
L 167.069388 66.806126 
L 170.485714 67.330762 
L 173.902041 67.536093 
L 177.318367 67.613789 
L 180.734694 67.600636 
L 184.15102 67.600486 
L 187.567347 67.600486 
L 190.983673 67.600486 
L 194.4 67.600486 
" style="fill:none;stroke:#fc8d62;stroke-dasharray:1.5,2.475;stroke-dashoffset:0;stroke-opacity:0.5;stroke-width:1.5;"/>
   </g>
   <g id="patch_3">
    <path d="M 112.408163 67.68 
L 112.408163 17.28 
" style="fill:none;stroke:#a9a9a9;stroke-linecap:square;stroke-linejoin:miter;stroke-width:2;"/>
   </g>
   <g id="patch_4">
    <path d="M 194.4 67.68 
L 194.4 17.28 
" style="fill:none;"/>
   </g>
   <g id="patch_5">
    <path d="M 27 67.600486 
L 194.4 67.600486 
" style="fill:none;stroke:#a9a9a9;stroke-linecap:square;stroke-linejoin:miter;stroke-width:2;"/>
   </g>
   <g id="patch_6">
    <path d="M 27 17.28 
L 194.4 17.28 
" style="fill:none;"/>
   </g>
   <g id="legend_1">
    <g id="line2d_8">
     <path d="M 152.47 26.448906 
L 166.47 26.448906 
" style="fill:none;stroke:#fc8d62;stroke-linecap:square;stroke-width:2;"/>
    </g>
    <g id="line2d_9"/>
    <g id="text_1">
     <!-- $\theta$ -->
     <g transform="translate(172.07 28.898906)scale(0.07 -0.07)">
      <defs>
       <path d="M 45.515625 34.671875 
L 14.453125 34.671875 
Q 12.359375 20.0625 14.5 13.875 
Q 17.1875 6.25 24.46875 6.25 
Q 31.78125 6.25 37.359375 13.921875 
Q 42.234375 20.65625 45.515625 34.671875 
z
M 47.015625 42.96875 
Q 48.34375 56.84375 46.625 61.71875 
Q 43.953125 69.4375 36.765625 69.4375 
Q 29.296875 69.4375 23.828125 61.8125 
Q 19.53125 55.671875 16.15625 42.96875 
z
M 38.1875 76.765625 
Q 49.90625 76.765625 54.59375 66.40625 
Q 59.28125 56.109375 55.71875 37.84375 
Q 52.203125 19.625 43.453125 9.28125 
Q 34.765625 -1.125 23.046875 -1.125 
Q 11.28125 -1.125 6.640625 9.28125 
Q 2 19.625 5.515625 37.84375 
Q 9.078125 56.109375 17.71875 66.40625 
Q 26.421875 76.765625 38.1875 76.765625 
z
" id="DejaVuSans-Oblique-952"/>
      </defs>
      <use transform="translate(0 0.234375)" xlink:href="#DejaVuSans-Oblique-952"/>
     </g>
    </g>
    <g id="line2d_10">
     <path d="M 152.47 36.723594 
L 166.47 36.723594 
" style="fill:none;stroke:#fc8d62;stroke-dasharray:1.5,2.475;stroke-dashoffset:0;stroke-opacity:0.5;stroke-width:1.5;"/>
    </g>
    <g id="line2d_11"/>
    <g id="text_2">
     <!-- No $\theta$ -->
     <g transform="translate(172.07 39.173594)scale(0.07 -0.07)">
      <defs>
       <path d="M 9.8125 72.90625 
L 23.09375 72.90625 
L 55.421875 11.921875 
L 55.421875 72.90625 
L 64.984375 72.90625 
L 64.984375 0 
L 51.703125 0 
L 19.390625 60.984375 
L 19.390625 0 
L 9.8125 0 
z
" id="DejaVuSans-78"/>
       <path d="M 30.609375 48.390625 
Q 23.390625 48.390625 19.1875 42.75 
Q 14.984375 37.109375 14.984375 27.296875 
Q 14.984375 17.484375 19.15625 11.84375 
Q 23.34375 6.203125 30.609375 6.203125 
Q 37.796875 6.203125 41.984375 11.859375 
Q 46.1875 17.53125 46.1875 27.296875 
Q 46.1875 37.015625 41.984375 42.703125 
Q 37.796875 48.390625 30.609375 48.390625 
z
M 30.609375 56 
Q 42.328125 56 49.015625 48.375 
Q 55.71875 40.765625 55.71875 27.296875 
Q 55.71875 13.875 49.015625 6.21875 
Q 42.328125 -1.421875 30.609375 -1.421875 
Q 18.84375 -1.421875 12.171875 6.21875 
Q 5.515625 13.875 5.515625 27.296875 
Q 5.515625 40.765625 12.171875 48.375 
Q 18.84375 56 30.609375 56 
z
" id="DejaVuSans-111"/>
       <path id="DejaVuSans-32"/>
      </defs>
      <use transform="translate(0 0.234375)" xlink:href="#DejaVuSans-78"/>
      <use transform="translate(74.804688 0.234375)" xlink:href="#DejaVuSans-111"/>
      <use transform="translate(135.986328 0.234375)" xlink:href="#DejaVuSans-32"/>
      <use transform="translate(167.773438 0.234375)" xlink:href="#DejaVuSans-Oblique-952"/>
     </g>
    </g>
   </g>
  </g>
  <g id="axes_2">
   <g id="patch_7">
    <path d="M 27 128.16 
L 194.4 128.16 
L 194.4 77.76 
L 27 77.76 
z
" style="fill:none;"/>
   </g>
   <g id="PolyCollection_2">
    <path clip-path="url(#p64904343d4)" d="M 27 121.523307 
L 27 121.436283 
L 30.416327 121.768579 
L 33.832653 121.963266 
L 37.24898 122.066554 
L 40.665306 122.167839 
L 44.081633 122.388422 
L 47.497959 122.797426 
L 50.914286 123.205277 
L 54.330612 123.400121 
L 57.746939 123.210065 
L 61.163265 122.497869 
L 64.579592 121.159697 
L 67.995918 119.134803 
L 71.412245 116.417909 
L 74.828571 113.051262 
L 78.244898 109.116785 
L 81.661224 104.733757 
L 85.077551 100.056999 
L 88.493878 95.273667 
L 91.910204 90.599146 
L 95.326531 86.272306 
L 98.742857 82.550453 
L 102.159184 79.70433 
L 105.57551 78.013186 
L 108.991837 77.76 
L 112.408163 79.216969 
L 115.82449 82.545313 
L 119.240816 87.281394 
L 122.657143 92.894207 
L 126.073469 98.901555 
L 129.489796 104.891742 
L 132.906122 110.529757 
L 136.322449 115.55876 
L 139.738776 119.798001 
L 143.155102 123.139012 
L 146.571429 125.541343 
L 149.987755 127.027063 
L 153.404082 127.670649 
L 156.820408 127.585115 
L 160.236735 126.910107 
L 163.653061 125.802946 
L 167.069388 124.431585 
L 170.485714 122.969022 
L 173.902041 121.589247 
L 177.318367 120.466826 
L 180.734694 119.78394 
L 184.15102 119.663222 
L 187.567347 119.949352 
L 190.983673 120.439886 
L 194.4 120.973137 
L 194.4 121.085285 
L 194.4 121.085285 
L 190.983673 120.579536 
L 187.567347 120.111916 
L 184.15102 119.839414 
L 180.734694 119.965006 
L 177.318367 120.656933 
L 173.902041 121.812761 
L 170.485714 123.248957 
L 167.069388 124.77571 
L 163.653061 126.205343 
L 160.236735 127.35667 
L 156.820408 128.059324 
L 153.404082 128.16 
L 149.987755 127.530238 
L 146.571429 126.074447 
L 143.155102 123.736088 
L 139.738776 120.501771 
L 136.322449 116.408329 
L 132.906122 111.553353 
L 129.489796 106.104701 
L 126.073469 100.306692 
L 122.657143 94.482541 
L 119.240816 89.032935 
L 115.82449 84.429919 
L 112.408163 81.195321 
L 108.991837 79.786147 
L 105.57551 80.038335 
L 102.159184 81.680421 
L 98.742857 84.432292 
L 95.326531 88.019486 
L 91.910204 92.177823 
L 88.493878 96.658129 
L 85.077551 101.231045 
L 81.661224 105.691619 
L 78.244898 109.863591 
L 74.828571 113.603101 
L 71.412245 116.801562 
L 67.995918 119.388444 
L 64.579592 121.332806 
L 61.163265 122.638771 
L 57.746939 123.340297 
L 54.330612 123.515444 
L 50.914286 123.296697 
L 47.497959 122.86846 
L 44.081633 122.457642 
L 40.665306 122.242161 
L 37.24898 122.140346 
L 33.832653 122.033299 
L 30.416327 121.840614 
L 27 121.523307 
z
" style="fill:#66c2a5;fill-opacity:0.5;"/>
   </g>
   <g id="matplotlib.axis_3">
    <g id="xtick_6">
     <g id="line2d_12">
      <g>
       <use style="fill:#a9a9a9;stroke:#a9a9a9;stroke-width:2;" x="44.081633" xlink:href="#mac3fd757f5" y="122.14722"/>
      </g>
     </g>
    </g>
    <g id="xtick_7">
     <g id="line2d_13">
      <g>
       <use style="fill:#a9a9a9;stroke:#a9a9a9;stroke-width:2;" x="78.244898" xlink:href="#mac3fd757f5" y="122.14722"/>
      </g>
     </g>
    </g>
    <g id="xtick_8">
     <g id="line2d_14">
      <g>
       <use style="fill:#a9a9a9;stroke:#a9a9a9;stroke-width:2;" x="112.408163" xlink:href="#mac3fd757f5" y="122.14722"/>
      </g>
     </g>
    </g>
    <g id="xtick_9">
     <g id="line2d_15">
      <g>
       <use style="fill:#a9a9a9;stroke:#a9a9a9;stroke-width:2;" x="146.571429" xlink:href="#mac3fd757f5" y="122.14722"/>
      </g>
     </g>
    </g>
    <g id="xtick_10">
     <g id="line2d_16">
      <g>
       <use style="fill:#a9a9a9;stroke:#a9a9a9;stroke-width:2;" x="180.734694" xlink:href="#mac3fd757f5" y="122.14722"/>
      </g>
     </g>
    </g>
   </g>
   <g id="matplotlib.axis_4"/>
   <g id="line2d_17">
    <path clip-path="url(#p64904343d4)" d="M 27 121.479795 
L 30.416327 121.804596 
L 33.832653 121.998282 
L 37.24898 122.10345 
L 40.665306 122.205 
L 44.081633 122.423032 
L 47.497959 122.832943 
L 50.914286 123.250987 
L 54.330612 123.457782 
L 57.746939 123.275181 
L 61.163265 122.56832 
L 64.579592 121.246252 
L 67.995918 119.261624 
L 71.412245 116.609736 
L 74.828571 113.327182 
L 78.244898 109.490188 
L 81.661224 105.212688 
L 85.077551 100.644022 
L 88.493878 95.965898 
L 91.910204 91.388485 
L 95.326531 87.145896 
L 98.742857 83.491373 
L 102.159184 80.692375 
L 105.57551 79.025761 
L 108.991837 78.773073 
L 112.408163 80.206145 
L 115.82449 83.487616 
L 119.240816 88.157165 
L 122.657143 93.688374 
L 126.073469 99.604123 
L 129.489796 105.498221 
L 132.906122 111.041555 
L 136.322449 115.983544 
L 139.738776 120.149886 
L 143.155102 123.43755 
L 146.571429 125.807895 
L 149.987755 127.278651 
L 153.404082 127.915324 
L 156.820408 127.822219 
L 160.236735 127.133389 
L 163.653061 126.004145 
L 167.069388 124.603648 
L 170.485714 123.108989 
L 173.902041 121.701004 
L 177.318367 120.56188 
L 180.734694 119.874473 
L 184.15102 119.751318 
L 187.567347 120.030634 
L 190.983673 120.509711 
L 194.4 121.029211 
" style="fill:none;stroke:#66c2a5;stroke-linecap:square;stroke-width:2;"/>
   </g>
   <g id="patch_8">
    <path d="M 112.408163 128.16 
L 112.408163 77.76 
" style="fill:none;stroke:#a9a9a9;stroke-linecap:square;stroke-linejoin:miter;stroke-width:2;"/>
   </g>
   <g id="patch_9">
    <path d="M 194.4 128.16 
L 194.4 77.76 
" style="fill:none;"/>
   </g>
   <g id="patch_10">
    <path d="M 27 122.14722 
L 194.4 122.14722 
" style="fill:none;stroke:#a9a9a9;stroke-linecap:square;stroke-linejoin:miter;stroke-width:2;"/>
   </g>
   <g id="patch_11">
    <path d="M 27 77.76 
L 194.4 77.76 
" style="fill:none;"/>
   </g>
  </g>
 </g>
 <defs>
  <clipPath id="p31e4b082e6">
   <rect height="50.4" width="167.4" x="27" y="17.28"/>
  </clipPath>
  <clipPath id="p64904343d4">
   <rect height="50.4" width="167.4" x="27" y="77.76"/>
  </clipPath>
 </defs>
</svg>
