<?xml version="1.0" encoding="utf-8" standalone="no"?>
<!DOCTYPE svg PUBLIC "-//W3C//DTD SVG 1.1//EN"
  "http://www.w3.org/Graphics/SVG/1.1/DTD/svg11.dtd">
<!-- Created with matplotlib (https://matplotlib.org/) -->
<svg height="144pt" version="1.1" viewBox="0 0 216 144" width="216pt" xmlns="http://www.w3.org/2000/svg" xmlns:xlink="http://www.w3.org/1999/xlink">
 <metadata>
  <rdf:RDF xmlns:cc="http://creativecommons.org/ns#" xmlns:dc="http://purl.org/dc/elements/1.1/" xmlns:rdf="http://www.w3.org/1999/02/22-rdf-syntax-ns#">
   <cc:Work>
    <dc:type rdf:resource="http://purl.org/dc/dcmitype/StillImage"/>
    <dc:date>2021-09-28T08:37:06.786916</dc:date>
    <dc:format>image/svg+xml</dc:format>
    <dc:creator>
     <cc:Agent>
      <dc:title>Matplotlib v3.3.2, https://matplotlib.org/</dc:title>
     </cc:Agent>
    </dc:creator>
   </cc:Work>
  </rdf:RDF>
 </metadata>
 <defs>
  <style type="text/css">*{stroke-linecap:butt;stroke-linejoin:round;}</style>
 </defs>
 <g id="figure_1">
  <g id="patch_1">
   <path d="M 0 144 
L 216 144 
L 216 0 
L 0 0 
z
" style="fill:none;"/>
  </g>
  <g id="axes_1">
   <g id="patch_2">
    <path d="M 27 67.68 
L 194.4 67.68 
L 194.4 17.28 
L 27 17.28 
z
" style="fill:none;"/>
   </g>
   <g id="PolyCollection_1">
    <path clip-path="url(#pe0a4ad1e7c)" d="M 27 56.553263 
L 27 56.553263 
L 30.416327 56.553263 
L 33.832653 56.553263 
L 37.24898 56.553263 
L 40.665306 56.553263 
L 44.081633 56.553252 
L 47.497959 56.376695 
L 50.914286 55.784661 
L 54.330612 55.457164 
L 57.746939 53.310147 
L 61.163265 53.308959 
L 64.579592 49.346878 
L 67.995918 49.69747 
L 71.412245 47.34163 
L 74.828571 44.951649 
L 78.244898 42.683817 
L 81.661224 31.984274 
L 85.077551 35.574006 
L 88.493878 25.831443 
L 91.910204 26.414467 
L 95.326531 26.12784 
L 98.742857 25.07565 
L 102.159184 17.98645 
L 105.57551 26.309776 
L 108.991837 23.47527 
L 112.408163 24.184041 
L 115.82449 23.938165 
L 119.240816 17.28 
L 122.657143 27.708404 
L 126.073469 31.084291 
L 129.489796 28.587868 
L 132.906122 32.538747 
L 136.322449 40.974061 
L 139.738776 37.723478 
L 143.155102 48.349862 
L 146.571429 45.510342 
L 149.987755 48.409429 
L 153.404082 49.578849 
L 156.820408 49.526036 
L 160.236735 51.228368 
L 163.653061 53.760555 
L 167.069388 55.498617 
L 170.485714 55.624709 
L 173.902041 56.159987 
L 177.318367 56.460612 
L 180.734694 56.553258 
L 184.15102 56.553263 
L 187.567347 56.553263 
L 190.983673 56.553263 
L 194.4 56.553263 
L 194.4 56.553263 
L 194.4 56.553263 
L 190.983673 56.553263 
L 187.567347 56.553263 
L 184.15102 56.553263 
L 180.734694 56.553271 
L 177.318367 56.676861 
L 173.902041 57.057781 
L 170.485714 57.330255 
L 167.069388 57.714909 
L 163.653061 58.654331 
L 160.236735 60.474078 
L 156.820408 60.090477 
L 153.404082 59.894893 
L 149.987755 60.068175 
L 146.571429 60.838054 
L 143.155102 60.500342 
L 139.738776 63.917634 
L 136.322449 61.147551 
L 132.906122 64.27671 
L 129.489796 66.034375 
L 126.073469 63.945062 
L 122.657143 65.650604 
L 119.240816 67.329182 
L 115.82449 63.232303 
L 112.408163 62.216943 
L 108.991837 63.847158 
L 105.57551 63.884035 
L 102.159184 67.68 
L 98.742857 62.444292 
L 95.326531 64.430701 
L 91.910204 66.512722 
L 88.493878 65.752334 
L 85.077551 62.655945 
L 81.661224 64.297483 
L 78.244898 61.172785 
L 74.828571 59.737281 
L 71.412245 59.53877 
L 67.995918 59.48115 
L 64.579592 60.426007 
L 61.163265 58.241129 
L 57.746939 58.375835 
L 54.330612 57.379187 
L 50.914286 57.077328 
L 47.497959 56.685622 
L 44.081633 56.553271 
L 40.665306 56.553263 
L 37.24898 56.553263 
L 33.832653 56.553263 
L 30.416327 56.553263 
L 27 56.553263 
z
" style="fill:#fc8d62;fill-opacity:0.5;"/>
   </g>
   <g id="matplotlib.axis_1">
    <g id="xtick_1">
     <g id="line2d_1">
      <defs>
       <path d="M 0 0 
L 0 3.5 
" id="mc382edb9c5" style="stroke:#a9a9a9;stroke-width:2;"/>
      </defs>
      <g>
       <use style="fill:#a9a9a9;stroke:#a9a9a9;stroke-width:2;" x="44.081633" xlink:href="#mc382edb9c5" y="56.553263"/>
      </g>
     </g>
    </g>
    <g id="xtick_2">
     <g id="line2d_2">
      <g>
       <use style="fill:#a9a9a9;stroke:#a9a9a9;stroke-width:2;" x="78.244898" xlink:href="#mc382edb9c5" y="56.553263"/>
      </g>
     </g>
    </g>
    <g id="xtick_3">
     <g id="line2d_3">
      <g>
       <use style="fill:#a9a9a9;stroke:#a9a9a9;stroke-width:2;" x="112.408163" xlink:href="#mc382edb9c5" y="56.553263"/>
      </g>
     </g>
    </g>
    <g id="xtick_4">
     <g id="line2d_4">
      <g>
       <use style="fill:#a9a9a9;stroke:#a9a9a9;stroke-width:2;" x="146.571429" xlink:href="#mc382edb9c5" y="56.553263"/>
      </g>
     </g>
    </g>
    <g id="xtick_5">
     <g id="line2d_5">
      <g>
       <use style="fill:#a9a9a9;stroke:#a9a9a9;stroke-width:2;" x="180.734694" xlink:href="#mc382edb9c5" y="56.553263"/>
      </g>
     </g>
    </g>
   </g>
   <g id="matplotlib.axis_2"/>
   <g id="line2d_6">
    <path clip-path="url(#pe0a4ad1e7c)" d="M 27 56.553263 
L 30.416327 56.553263 
L 33.832653 56.553263 
L 37.24898 56.553263 
L 40.665306 56.553263 
L 44.081633 56.553261 
L 47.497959 56.531158 
L 50.914286 56.430995 
L 54.330612 56.418175 
L 57.746939 55.842991 
L 61.163265 55.775044 
L 64.579592 54.886443 
L 67.995918 54.58931 
L 71.412245 53.4402 
L 74.828571 52.344465 
L 78.244898 51.928301 
L 81.661224 48.140879 
L 85.077551 49.114976 
L 88.493878 45.791889 
L 91.910204 46.463594 
L 95.326531 45.27927 
L 98.742857 43.759971 
L 102.159184 42.833225 
L 105.57551 45.096906 
L 108.991837 43.661214 
L 112.408163 43.200492 
L 115.82449 43.585234 
L 119.240816 42.304591 
L 122.657143 46.679504 
L 126.073469 47.514676 
L 129.489796 47.311122 
L 132.906122 48.407728 
L 136.322449 51.060806 
L 139.738776 50.820556 
L 143.155102 54.425102 
L 146.571429 53.174198 
L 149.987755 54.238802 
L 153.404082 54.736871 
L 156.820408 54.808256 
L 160.236735 55.851223 
L 163.653061 56.207443 
L 167.069388 56.606763 
L 170.485714 56.477482 
L 173.902041 56.608884 
L 177.318367 56.568737 
L 180.734694 56.553264 
L 184.15102 56.553263 
L 187.567347 56.553263 
L 190.983673 56.553263 
L 194.4 56.553263 
" style="fill:none;stroke:#fc8d62;stroke-linecap:square;stroke-width:2;"/>
   </g>
   <g id="line2d_7">
    <path clip-path="url(#pe0a4ad1e7c)" d="M 27 56.553263 
L 30.416327 56.553263 
L 33.832653 56.553263 
L 37.24898 56.553263 
L 40.665306 56.553263 
L 44.081633 56.553263 
L 47.497959 56.553537 
L 50.914286 56.520588 
L 54.330612 56.323239 
L 57.746939 56.230845 
L 61.163265 56.175088 
L 64.579592 54.937761 
L 67.995918 55.019144 
L 71.412245 54.501432 
L 74.828571 52.755005 
L 78.244898 51.691445 
L 81.661224 51.380833 
L 85.077551 51.473534 
L 88.493878 46.828366 
L 91.910204 44.497357 
L 95.326531 46.567939 
L 98.742857 46.222727 
L 102.159184 43.560034 
L 105.57551 42.304591 
L 108.991837 43.837858 
L 112.408163 42.692619 
L 115.82449 43.318252 
L 119.240816 45.03318 
L 122.657143 44.802012 
L 126.073469 44.609635 
L 129.489796 45.967526 
L 132.906122 50.260942 
L 136.322449 50.818743 
L 139.738776 47.929424 
L 143.155102 51.114689 
L 146.571429 52.764931 
L 149.987755 53.450026 
L 153.404082 53.990859 
L 156.820408 54.697099 
L 160.236735 55.951681 
L 163.653061 55.673252 
L 167.069388 56.236967 
L 170.485714 56.478777 
L 173.902041 56.514734 
L 177.318367 56.53543 
L 180.734694 56.553263 
L 184.15102 56.553263 
L 187.567347 56.553263 
L 190.983673 56.553263 
L 194.4 56.553263 
" style="fill:none;stroke:#fc8d62;stroke-dasharray:1.5,2.475;stroke-dashoffset:0;stroke-opacity:0.5;stroke-width:1.5;"/>
   </g>
   <g id="patch_3">
    <path d="M 112.408163 67.68 
L 112.408163 17.28 
" style="fill:none;stroke:#a9a9a9;stroke-linecap:square;stroke-linejoin:miter;stroke-width:2;"/>
   </g>
   <g id="patch_4">
    <path d="M 194.4 67.68 
L 194.4 17.28 
" style="fill:none;"/>
   </g>
   <g id="patch_5">
    <path d="M 27 56.553263 
L 194.4 56.553263 
" style="fill:none;stroke:#a9a9a9;stroke-linecap:square;stroke-linejoin:miter;stroke-width:2;"/>
   </g>
   <g id="patch_6">
    <path d="M 27 17.28 
L 194.4 17.28 
" style="fill:none;"/>
   </g>
   <g id="legend_1">
    <g id="line2d_8">
     <path d="M 152.47 26.448906 
L 166.47 26.448906 
" style="fill:none;stroke:#fc8d62;stroke-linecap:square;stroke-width:2;"/>
    </g>
    <g id="line2d_9"/>
    <g id="text_1">
     <!-- $\theta$ -->
     <g transform="translate(172.07 28.898906)scale(0.07 -0.07)">
      <defs>
       <path d="M 45.515625 34.671875 
L 14.453125 34.671875 
Q 12.359375 20.0625 14.5 13.875 
Q 17.1875 6.25 24.46875 6.25 
Q 31.78125 6.25 37.359375 13.921875 
Q 42.234375 20.65625 45.515625 34.671875 
z
M 47.015625 42.96875 
Q 48.34375 56.84375 46.625 61.71875 
Q 43.953125 69.4375 36.765625 69.4375 
Q 29.296875 69.4375 23.828125 61.8125 
Q 19.53125 55.671875 16.15625 42.96875 
z
M 38.1875 76.765625 
Q 49.90625 76.765625 54.59375 66.40625 
Q 59.28125 56.109375 55.71875 37.84375 
Q 52.203125 19.625 43.453125 9.28125 
Q 34.765625 -1.125 23.046875 -1.125 
Q 11.28125 -1.125 6.640625 9.28125 
Q 2 19.625 5.515625 37.84375 
Q 9.078125 56.109375 17.71875 66.40625 
Q 26.421875 76.765625 38.1875 76.765625 
z
" id="DejaVuSans-Oblique-952"/>
      </defs>
      <use transform="translate(0 0.234375)" xlink:href="#DejaVuSans-Oblique-952"/>
     </g>
    </g>
    <g id="line2d_10">
     <path d="M 152.47 36.723594 
L 166.47 36.723594 
" style="fill:none;stroke:#fc8d62;stroke-dasharray:1.5,2.475;stroke-dashoffset:0;stroke-opacity:0.5;stroke-width:1.5;"/>
    </g>
    <g id="line2d_11"/>
    <g id="text_2">
     <!-- No $\theta$ -->
     <g transform="translate(172.07 39.173594)scale(0.07 -0.07)">
      <defs>
       <path d="M 9.8125 72.90625 
L 23.09375 72.90625 
L 55.421875 11.921875 
L 55.421875 72.90625 
L 64.984375 72.90625 
L 64.984375 0 
L 51.703125 0 
L 19.390625 60.984375 
L 19.390625 0 
L 9.8125 0 
z
" id="DejaVuSans-78"/>
       <path d="M 30.609375 48.390625 
Q 23.390625 48.390625 19.1875 42.75 
Q 14.984375 37.109375 14.984375 27.296875 
Q 14.984375 17.484375 19.15625 11.84375 
Q 23.34375 6.203125 30.609375 6.203125 
Q 37.796875 6.203125 41.984375 11.859375 
Q 46.1875 17.53125 46.1875 27.296875 
Q 46.1875 37.015625 41.984375 42.703125 
Q 37.796875 48.390625 30.609375 48.390625 
z
M 30.609375 56 
Q 42.328125 56 49.015625 48.375 
Q 55.71875 40.765625 55.71875 27.296875 
Q 55.71875 13.875 49.015625 6.21875 
Q 42.328125 -1.421875 30.609375 -1.421875 
Q 18.84375 -1.421875 12.171875 6.21875 
Q 5.515625 13.875 5.515625 27.296875 
Q 5.515625 40.765625 12.171875 48.375 
Q 18.84375 56 30.609375 56 
z
" id="DejaVuSans-111"/>
       <path id="DejaVuSans-32"/>
      </defs>
      <use transform="translate(0 0.234375)" xlink:href="#DejaVuSans-78"/>
      <use transform="translate(74.804688 0.234375)" xlink:href="#DejaVuSans-111"/>
      <use transform="translate(135.986328 0.234375)" xlink:href="#DejaVuSans-32"/>
      <use transform="translate(167.773438 0.234375)" xlink:href="#DejaVuSans-Oblique-952"/>
     </g>
    </g>
   </g>
  </g>
  <g id="axes_2">
   <g id="patch_7">
    <path d="M 27 128.16 
L 194.4 128.16 
L 194.4 77.76 
L 27 77.76 
z
" style="fill:none;"/>
   </g>
   <g id="PolyCollection_2">
    <path clip-path="url(#pe799c085f5)" d="M 27 122.722685 
L 27 122.715753 
L 30.416327 122.717509 
L 33.832653 122.718149 
L 37.24898 122.7183 
L 40.665306 122.718319 
L 44.081633 122.718292 
L 47.497959 122.698978 
L 50.914286 122.574508 
L 54.330612 122.2539 
L 57.746939 121.662034 
L 61.163265 120.743416 
L 64.579592 119.465035 
L 67.995918 117.815848 
L 71.412245 115.808635 
L 74.828571 113.480142 
L 78.244898 110.888963 
L 81.661224 108.112438 
L 85.077551 105.242093 
L 88.493878 102.378902 
L 91.910204 99.628949 
L 95.326531 97.099183 
L 98.742857 94.893154 
L 102.159184 93.106824 
L 105.57551 91.824541 
L 108.991837 91.115312 
L 112.408163 77.76 
L 115.82449 91.58531 
L 119.240816 92.742177 
L 122.657143 94.430988 
L 126.073469 96.567519 
L 129.489796 99.05598 
L 132.906122 101.79278 
L 136.322449 104.670499 
L 139.738776 107.581877 
L 143.155102 110.423773 
L 146.571429 113.101083 
L 149.987755 115.530847 
L 153.404082 117.64703 
L 156.820408 119.404844 
L 160.236735 120.782429 
L 163.653061 121.779736 
L 167.069388 122.399662 
L 170.485714 122.583692 
L 173.902041 122.588562 
L 177.318367 122.609883 
L 180.734694 122.644142 
L 184.15102 122.672462 
L 187.567347 122.691972 
L 190.983673 122.704516 
L 194.4 122.711887 
L 194.4 122.729979 
L 194.4 122.729979 
L 190.983673 122.744843 
L 187.567347 122.771811 
L 184.15102 122.816631 
L 180.734694 122.886272 
L 177.318367 122.972356 
L 173.902041 123.004475 
L 170.485714 122.916434 
L 167.069388 122.845465 
L 163.653061 122.997085 
L 160.236735 123.271499 
L 156.820408 123.642783 
L 153.404082 124.096673 
L 149.987755 124.6133 
L 146.571429 125.167031 
L 143.155102 125.728371 
L 139.738776 126.267712 
L 136.322449 126.758858 
L 132.906122 127.181243 
L 129.489796 127.521387 
L 126.073469 127.773928 
L 122.657143 127.942252 
L 119.240816 128.038746 
L 115.82449 128.084916 
L 112.408163 114.842005 
L 108.991837 128.143741 
L 105.57551 128.16 
L 102.159184 128.130133 
L 98.742857 128.031592 
L 95.326531 127.849625 
L 91.910204 127.577496 
L 88.493878 127.216519 
L 85.077551 126.775813 
L 81.661224 126.271714 
L 78.244898 125.726736 
L 74.828571 125.167845 
L 71.412245 124.623632 
L 67.995918 124.120941 
L 64.579592 123.682225 
L 61.163265 123.323166 
L 57.746939 123.051894 
L 54.330612 122.869295 
L 50.914286 122.766413 
L 47.497959 122.724933 
L 44.081633 122.718332 
L 40.665306 122.718319 
L 37.24898 122.718344 
L 33.832653 122.718571 
L 30.416327 122.719608 
L 27 122.722685 
z
" style="fill:#66c2a5;fill-opacity:0.5;"/>
   </g>
   <g id="matplotlib.axis_3">
    <g id="xtick_6">
     <g id="line2d_12">
      <g>
       <use style="fill:#a9a9a9;stroke:#a9a9a9;stroke-width:2;" x="44.081633" xlink:href="#mc382edb9c5" y="122.718319"/>
      </g>
     </g>
    </g>
    <g id="xtick_7">
     <g id="line2d_13">
      <g>
       <use style="fill:#a9a9a9;stroke:#a9a9a9;stroke-width:2;" x="78.244898" xlink:href="#mc382edb9c5" y="122.718319"/>
      </g>
     </g>
    </g>
    <g id="xtick_8">
     <g id="line2d_14">
      <g>
       <use style="fill:#a9a9a9;stroke:#a9a9a9;stroke-width:2;" x="112.408163" xlink:href="#mc382edb9c5" y="122.718319"/>
      </g>
     </g>
    </g>
    <g id="xtick_9">
     <g id="line2d_15">
      <g>
       <use style="fill:#a9a9a9;stroke:#a9a9a9;stroke-width:2;" x="146.571429" xlink:href="#mc382edb9c5" y="122.718319"/>
      </g>
     </g>
    </g>
    <g id="xtick_10">
     <g id="line2d_16">
      <g>
       <use style="fill:#a9a9a9;stroke:#a9a9a9;stroke-width:2;" x="180.734694" xlink:href="#mc382edb9c5" y="122.718319"/>
      </g>
     </g>
    </g>
   </g>
   <g id="matplotlib.axis_4"/>
   <g id="line2d_17">
    <path clip-path="url(#pe799c085f5)" d="M 27 122.719219 
L 30.416327 122.718558 
L 33.832653 122.71836 
L 37.24898 122.718322 
L 40.665306 122.718319 
L 44.081633 122.718312 
L 47.497959 122.711956 
L 50.914286 122.67046 
L 54.330612 122.561598 
L 57.746939 122.356964 
L 61.163265 122.033291 
L 64.579592 121.57363 
L 67.995918 120.968395 
L 71.412245 120.216134 
L 74.828571 119.323993 
L 78.244898 118.30785 
L 81.661224 117.192076 
L 85.077551 116.008953 
L 88.493878 114.79771 
L 91.910204 113.603223 
L 95.326531 112.474404 
L 98.742857 111.462373 
L 102.159184 110.618478 
L 105.57551 109.992271 
L 108.991837 109.629526 
L 112.408163 96.301003 
L 115.82449 109.835113 
L 119.240816 110.390461 
L 122.657143 111.18662 
L 126.073469 112.170724 
L 129.489796 113.288683 
L 132.906122 114.487011 
L 136.322449 115.714679 
L 139.738776 116.924795 
L 143.155102 118.076072 
L 146.571429 119.134057 
L 149.987755 120.072073 
L 153.404082 120.871852 
L 156.820408 121.523814 
L 160.236735 122.026964 
L 163.653061 122.388411 
L 167.069388 122.622563 
L 170.485714 122.750063 
L 173.902041 122.796518 
L 177.318367 122.791119 
L 180.734694 122.765207 
L 184.15102 122.744546 
L 187.567347 122.731892 
L 190.983673 122.724679 
L 194.4 122.720933 
" style="fill:none;stroke:#66c2a5;stroke-linecap:square;stroke-width:2;"/>
   </g>
   <g id="patch_8">
    <path d="M 112.408163 128.16 
L 112.408163 77.76 
" style="fill:none;stroke:#a9a9a9;stroke-linecap:square;stroke-linejoin:miter;stroke-width:2;"/>
   </g>
   <g id="patch_9">
    <path d="M 194.4 128.16 
L 194.4 77.76 
" style="fill:none;"/>
   </g>
   <g id="patch_10">
    <path d="M 27 122.718319 
L 194.4 122.718319 
" style="fill:none;stroke:#a9a9a9;stroke-linecap:square;stroke-linejoin:miter;stroke-width:2;"/>
   </g>
   <g id="patch_11">
    <path d="M 27 77.76 
L 194.4 77.76 
" style="fill:none;"/>
   </g>
  </g>
 </g>
 <defs>
  <clipPath id="pe0a4ad1e7c">
   <rect height="50.4" width="167.4" x="27" y="17.28"/>
  </clipPath>
  <clipPath id="pe799c085f5">
   <rect height="50.4" width="167.4" x="27" y="77.76"/>
  </clipPath>
 </defs>
</svg>
