<?xml version="1.0" encoding="utf-8" standalone="no"?>
<!DOCTYPE svg PUBLIC "-//W3C//DTD SVG 1.1//EN"
  "http://www.w3.org/Graphics/SVG/1.1/DTD/svg11.dtd">
<!-- Created with matplotlib (https://matplotlib.org/) -->
<svg height="144pt" version="1.1" viewBox="0 0 216 144" width="216pt" xmlns="http://www.w3.org/2000/svg" xmlns:xlink="http://www.w3.org/1999/xlink">
 <metadata>
  <rdf:RDF xmlns:cc="http://creativecommons.org/ns#" xmlns:dc="http://purl.org/dc/elements/1.1/" xmlns:rdf="http://www.w3.org/1999/02/22-rdf-syntax-ns#">
   <cc:Work>
    <dc:type rdf:resource="http://purl.org/dc/dcmitype/StillImage"/>
    <dc:date>2021-09-28T17:26:00.032709</dc:date>
    <dc:format>image/svg+xml</dc:format>
    <dc:creator>
     <cc:Agent>
      <dc:title>Matplotlib v3.3.2, https://matplotlib.org/</dc:title>
     </cc:Agent>
    </dc:creator>
   </cc:Work>
  </rdf:RDF>
 </metadata>
 <defs>
  <style type="text/css">*{stroke-linecap:butt;stroke-linejoin:round;}</style>
 </defs>
 <g id="figure_1">
  <g id="patch_1">
   <path d="M 0 144 
L 216 144 
L 216 0 
L 0 0 
z
" style="fill:none;"/>
  </g>
  <g id="axes_1">
   <g id="patch_2">
    <path d="M 27 67.68 
L 194.4 67.68 
L 194.4 17.28 
L 27 17.28 
z
" style="fill:none;"/>
   </g>
   <g id="PolyCollection_1">
    <path clip-path="url(#p09938132ba)" d="M 27 59.637522 
L 27 59.637522 
L 30.416327 59.637522 
L 33.832653 59.637522 
L 37.24898 59.637522 
L 40.665306 59.637522 
L 44.081633 59.634048 
L 47.497959 59.380218 
L 50.914286 58.903732 
L 54.330612 58.629239 
L 57.746939 57.522185 
L 61.163265 55.798884 
L 64.579592 53.781272 
L 67.995918 51.153901 
L 71.412245 48.494047 
L 74.828571 45.064871 
L 78.244898 40.832089 
L 81.661224 35.149553 
L 85.077551 30.473365 
L 88.493878 26.982502 
L 91.910204 23.309493 
L 95.326531 19.831981 
L 98.742857 17.28 
L 102.159184 17.457367 
L 105.57551 22.112304 
L 108.991837 22.651016 
L 112.408163 37.10681 
L 115.82449 36.269588 
L 119.240816 42.183021 
L 122.657143 46.694369 
L 126.073469 49.753841 
L 129.489796 52.264771 
L 132.906122 54.570235 
L 136.322449 55.45941 
L 139.738776 55.105462 
L 143.155102 55.370923 
L 146.571429 54.815729 
L 149.987755 56.664713 
L 153.404082 55.690343 
L 156.820408 56.829324 
L 160.236735 57.032375 
L 163.653061 58.00384 
L 167.069388 58.130202 
L 170.485714 58.660273 
L 173.902041 59.128088 
L 177.318367 59.472885 
L 180.734694 59.635293 
L 184.15102 59.637522 
L 187.567347 59.637522 
L 190.983673 59.637522 
L 194.4 59.637522 
L 194.4 59.637522 
L 194.4 59.637522 
L 190.983673 59.637522 
L 187.567347 59.637522 
L 184.15102 59.637522 
L 180.734694 59.640823 
L 177.318367 59.877556 
L 173.902041 60.238754 
L 170.485714 60.211649 
L 167.069388 60.67053 
L 163.653061 61.46143 
L 160.236735 62.098456 
L 156.820408 62.852794 
L 153.404082 63.200983 
L 149.987755 63.89408 
L 146.571429 64.971477 
L 143.155102 66.964574 
L 139.738776 67.68 
L 136.322449 67.384336 
L 132.906122 67.17501 
L 129.489796 66.732614 
L 126.073469 65.70146 
L 122.657143 62.452375 
L 119.240816 55.60121 
L 115.82449 53.556083 
L 112.408163 38.587686 
L 108.991837 40.059904 
L 105.57551 35.652404 
L 102.159184 33.472125 
L 98.742857 33.383414 
L 95.326531 34.46764 
L 91.910204 35.793441 
L 88.493878 39.021014 
L 85.077551 43.3592 
L 81.661224 46.892678 
L 78.244898 50.86051 
L 74.828571 52.308861 
L 71.412245 56.07223 
L 67.995918 57.21663 
L 64.579592 58.872146 
L 61.163265 59.294323 
L 57.746939 60.131076 
L 54.330612 60.154206 
L 50.914286 60.017291 
L 47.497959 59.783383 
L 44.081633 59.639869 
L 40.665306 59.637522 
L 37.24898 59.637522 
L 33.832653 59.637522 
L 30.416327 59.637522 
L 27 59.637522 
z
" style="fill:#fc8d62;fill-opacity:0.5;"/>
   </g>
   <g id="matplotlib.axis_1">
    <g id="xtick_1">
     <g id="line2d_1">
      <defs>
       <path d="M 0 0 
L 0 3.5 
" id="mbfef116563" style="stroke:#a9a9a9;stroke-width:2;"/>
      </defs>
      <g>
       <use style="fill:#a9a9a9;stroke:#a9a9a9;stroke-width:2;" x="44.081633" xlink:href="#mbfef116563" y="59.637522"/>
      </g>
     </g>
    </g>
    <g id="xtick_2">
     <g id="line2d_2">
      <g>
       <use style="fill:#a9a9a9;stroke:#a9a9a9;stroke-width:2;" x="78.244898" xlink:href="#mbfef116563" y="59.637522"/>
      </g>
     </g>
    </g>
    <g id="xtick_3">
     <g id="line2d_3">
      <g>
       <use style="fill:#a9a9a9;stroke:#a9a9a9;stroke-width:2;" x="112.408163" xlink:href="#mbfef116563" y="59.637522"/>
      </g>
     </g>
    </g>
    <g id="xtick_4">
     <g id="line2d_4">
      <g>
       <use style="fill:#a9a9a9;stroke:#a9a9a9;stroke-width:2;" x="146.571429" xlink:href="#mbfef116563" y="59.637522"/>
      </g>
     </g>
    </g>
    <g id="xtick_5">
     <g id="line2d_5">
      <g>
       <use style="fill:#a9a9a9;stroke:#a9a9a9;stroke-width:2;" x="180.734694" xlink:href="#mbfef116563" y="59.637522"/>
      </g>
     </g>
    </g>
   </g>
   <g id="matplotlib.axis_2"/>
   <g id="line2d_6">
    <path clip-path="url(#p09938132ba)" d="M 27 59.637522 
L 30.416327 59.637522 
L 33.832653 59.637522 
L 37.24898 59.637522 
L 40.665306 59.637522 
L 44.081633 59.636959 
L 47.497959 59.581801 
L 50.914286 59.460511 
L 54.330612 59.391723 
L 57.746939 58.82663 
L 61.163265 57.546603 
L 64.579592 56.326709 
L 67.995918 54.185265 
L 71.412245 52.283138 
L 74.828571 48.686866 
L 78.244898 45.846299 
L 81.661224 41.021116 
L 85.077551 36.916282 
L 88.493878 33.001758 
L 91.910204 29.551467 
L 95.326531 27.149811 
L 98.742857 25.331707 
L 102.159184 25.464746 
L 105.57551 28.882354 
L 108.991837 31.35546 
L 112.408163 37.847248 
L 115.82449 44.912835 
L 119.240816 48.892116 
L 122.657143 54.573372 
L 126.073469 57.72765 
L 129.489796 59.498692 
L 132.906122 60.872622 
L 136.322449 61.421873 
L 139.738776 61.392731 
L 143.155102 61.167748 
L 146.571429 59.893603 
L 149.987755 60.279396 
L 153.404082 59.445663 
L 156.820408 59.841059 
L 160.236735 59.565416 
L 163.653061 59.732635 
L 167.069388 59.400366 
L 170.485714 59.435961 
L 173.902041 59.683421 
L 177.318367 59.675221 
L 180.734694 59.638058 
L 184.15102 59.637522 
L 187.567347 59.637522 
L 190.983673 59.637522 
L 194.4 59.637522 
" style="fill:none;stroke:#fc8d62;stroke-linecap:square;stroke-width:2;"/>
   </g>
   <g id="line2d_7">
    <path clip-path="url(#p09938132ba)" d="M 27 59.637522 
L 30.416327 59.637522 
L 33.832653 59.637522 
L 37.24898 59.637522 
L 40.665306 59.637522 
L 44.081633 59.634988 
L 47.497959 59.494722 
L 50.914286 58.94719 
L 54.330612 57.891092 
L 57.746939 56.647222 
L 61.163265 54.691763 
L 64.579592 52.734172 
L 67.995918 49.019265 
L 71.412245 46.351425 
L 74.828571 44.372169 
L 78.244898 39.829728 
L 81.661224 37.192675 
L 85.077551 33.192805 
L 88.493878 30.92444 
L 91.910204 28.006046 
L 95.326531 26.819773 
L 98.742857 25.331707 
L 102.159184 26.33064 
L 105.57551 26.093551 
L 108.991837 26.957077 
L 112.408163 30.292829 
L 115.82449 34.248669 
L 119.240816 37.206063 
L 122.657143 39.969137 
L 126.073469 44.987738 
L 129.489796 48.180307 
L 132.906122 52.039298 
L 136.322449 54.515126 
L 139.738776 57.620633 
L 143.155102 58.704074 
L 146.571429 60.902509 
L 149.987755 60.749056 
L 153.404082 62.556228 
L 156.820408 63.04741 
L 160.236735 61.858178 
L 163.653061 61.801926 
L 167.069388 61.158683 
L 170.485714 60.767333 
L 173.902041 60.139384 
L 177.318367 59.75656 
L 180.734694 59.63993 
L 184.15102 59.637523 
L 187.567347 59.637522 
L 190.983673 59.637522 
L 194.4 59.637522 
" style="fill:none;stroke:#fc8d62;stroke-dasharray:1.5,2.475;stroke-dashoffset:0;stroke-opacity:0.5;stroke-width:1.5;"/>
   </g>
   <g id="patch_3">
    <path d="M 112.408163 67.68 
L 112.408163 17.28 
" style="fill:none;stroke:#a9a9a9;stroke-linecap:square;stroke-linejoin:miter;stroke-width:2;"/>
   </g>
   <g id="patch_4">
    <path d="M 194.4 67.68 
L 194.4 17.28 
" style="fill:none;"/>
   </g>
   <g id="patch_5">
    <path d="M 27 59.637522 
L 194.4 59.637522 
" style="fill:none;stroke:#a9a9a9;stroke-linecap:square;stroke-linejoin:miter;stroke-width:2;"/>
   </g>
   <g id="patch_6">
    <path d="M 27 17.28 
L 194.4 17.28 
" style="fill:none;"/>
   </g>
   <g id="legend_1">
    <g id="line2d_8">
     <path d="M 152.47 26.448906 
L 166.47 26.448906 
" style="fill:none;stroke:#fc8d62;stroke-linecap:square;stroke-width:2;"/>
    </g>
    <g id="line2d_9"/>
    <g id="text_1">
     <!-- $\theta$ -->
     <g transform="translate(172.07 28.898906)scale(0.07 -0.07)">
      <defs>
       <path d="M 45.515625 34.671875 
L 14.453125 34.671875 
Q 12.359375 20.0625 14.5 13.875 
Q 17.1875 6.25 24.46875 6.25 
Q 31.78125 6.25 37.359375 13.921875 
Q 42.234375 20.65625 45.515625 34.671875 
z
M 47.015625 42.96875 
Q 48.34375 56.84375 46.625 61.71875 
Q 43.953125 69.4375 36.765625 69.4375 
Q 29.296875 69.4375 23.828125 61.8125 
Q 19.53125 55.671875 16.15625 42.96875 
z
M 38.1875 76.765625 
Q 49.90625 76.765625 54.59375 66.40625 
Q 59.28125 56.109375 55.71875 37.84375 
Q 52.203125 19.625 43.453125 9.28125 
Q 34.765625 -1.125 23.046875 -1.125 
Q 11.28125 -1.125 6.640625 9.28125 
Q 2 19.625 5.515625 37.84375 
Q 9.078125 56.109375 17.71875 66.40625 
Q 26.421875 76.765625 38.1875 76.765625 
z
" id="DejaVuSans-Oblique-952"/>
      </defs>
      <use transform="translate(0 0.234375)" xlink:href="#DejaVuSans-Oblique-952"/>
     </g>
    </g>
    <g id="line2d_10">
     <path d="M 152.47 36.723594 
L 166.47 36.723594 
" style="fill:none;stroke:#fc8d62;stroke-dasharray:1.5,2.475;stroke-dashoffset:0;stroke-opacity:0.5;stroke-width:1.5;"/>
    </g>
    <g id="line2d_11"/>
    <g id="text_2">
     <!-- No $\theta$ -->
     <g transform="translate(172.07 39.173594)scale(0.07 -0.07)">
      <defs>
       <path d="M 9.8125 72.90625 
L 23.09375 72.90625 
L 55.421875 11.921875 
L 55.421875 72.90625 
L 64.984375 72.90625 
L 64.984375 0 
L 51.703125 0 
L 19.390625 60.984375 
L 19.390625 0 
L 9.8125 0 
z
" id="DejaVuSans-78"/>
       <path d="M 30.609375 48.390625 
Q 23.390625 48.390625 19.1875 42.75 
Q 14.984375 37.109375 14.984375 27.296875 
Q 14.984375 17.484375 19.15625 11.84375 
Q 23.34375 6.203125 30.609375 6.203125 
Q 37.796875 6.203125 41.984375 11.859375 
Q 46.1875 17.53125 46.1875 27.296875 
Q 46.1875 37.015625 41.984375 42.703125 
Q 37.796875 48.390625 30.609375 48.390625 
z
M 30.609375 56 
Q 42.328125 56 49.015625 48.375 
Q 55.71875 40.765625 55.71875 27.296875 
Q 55.71875 13.875 49.015625 6.21875 
Q 42.328125 -1.421875 30.609375 -1.421875 
Q 18.84375 -1.421875 12.171875 6.21875 
Q 5.515625 13.875 5.515625 27.296875 
Q 5.515625 40.765625 12.171875 48.375 
Q 18.84375 56 30.609375 56 
z
" id="DejaVuSans-111"/>
       <path id="DejaVuSans-32"/>
      </defs>
      <use transform="translate(0 0.234375)" xlink:href="#DejaVuSans-78"/>
      <use transform="translate(74.804688 0.234375)" xlink:href="#DejaVuSans-111"/>
      <use transform="translate(135.986328 0.234375)" xlink:href="#DejaVuSans-32"/>
      <use transform="translate(167.773438 0.234375)" xlink:href="#DejaVuSans-Oblique-952"/>
     </g>
    </g>
   </g>
  </g>
  <g id="axes_2">
   <g id="patch_7">
    <path d="M 27 128.16 
L 194.4 128.16 
L 194.4 77.76 
L 27 77.76 
z
" style="fill:none;"/>
   </g>
   <g id="PolyCollection_2">
    <path clip-path="url(#p8772920bf4)" d="M 27 119.913058 
L 27 119.818955 
L 30.416327 119.949125 
L 33.832653 119.930686 
L 37.24898 119.762877 
L 40.665306 119.482149 
L 44.081633 119.153523 
L 47.497959 118.818299 
L 50.914286 118.348687 
L 54.330612 117.598982 
L 57.746939 116.456692 
L 61.163265 114.844411 
L 64.579592 112.722899 
L 67.995918 110.092743 
L 71.412245 106.992734 
L 74.828571 103.495982 
L 78.244898 99.706251 
L 81.661224 95.753663 
L 85.077551 91.790279 
L 88.493878 87.985185 
L 91.910204 84.519017 
L 95.326531 81.57845 
L 98.742857 79.35087 
L 102.159184 78.019615 
L 105.57551 77.76 
L 108.991837 78.736323 
L 112.408163 81.092411 
L 115.82449 84.892346 
L 119.240816 89.765592 
L 122.657143 95.290631 
L 126.073469 101.072266 
L 129.489796 106.763129 
L 132.906122 112.073293 
L 136.322449 116.775848 
L 139.738776 120.709069 
L 143.155102 123.776513 
L 146.571429 125.945557 
L 149.987755 127.242945 
L 153.404082 127.743806 
L 156.820408 127.558568 
L 160.236735 126.822204 
L 163.653061 125.685387 
L 167.069388 124.306517 
L 170.485714 122.844642 
L 173.902041 121.45404 
L 177.318367 120.282293 
L 180.734694 119.472813 
L 184.15102 119.117614 
L 187.567347 119.112808 
L 190.983673 119.310838 
L 194.4 119.581222 
L 194.4 119.70045 
L 194.4 119.70045 
L 190.983673 119.454834 
L 187.567347 119.275747 
L 184.15102 119.29102 
L 180.734694 119.649856 
L 177.318367 120.466532 
L 173.902041 121.661451 
L 170.485714 123.09235 
L 167.069388 124.602636 
L 163.653061 126.027845 
L 160.236735 127.201667 
L 156.820408 127.962243 
L 153.404082 128.16 
L 149.987755 127.666967 
L 146.571429 126.386499 
L 143.155102 124.261103 
L 139.738776 121.276669 
L 136.322449 117.466588 
L 132.906122 112.919489 
L 129.489796 107.785915 
L 126.073469 102.281235 
L 122.657143 96.684189 
L 119.240816 91.331423 
L 115.82449 86.607917 
L 112.408163 82.925672 
L 108.991837 80.647579 
L 105.57551 79.706064 
L 102.159184 79.956562 
L 98.742857 81.236026 
L 95.326531 83.37229 
L 91.910204 86.186934 
L 88.493878 89.49907 
L 85.077551 93.129846 
L 81.661224 96.907406 
L 78.244898 100.672016 
L 74.828571 104.280891 
L 71.412245 107.612666 
L 67.995918 110.571326 
L 64.579592 113.089407 
L 61.163265 115.130783 
L 57.746939 116.69179 
L 54.330612 117.802851 
L 50.914286 118.531229 
L 47.497959 118.982637 
L 44.081633 119.29866 
L 40.665306 119.603897 
L 37.24898 119.860246 
L 33.832653 120.00991 
L 30.416327 120.026659 
L 27 119.913058 
z
" style="fill:#66c2a5;fill-opacity:0.5;"/>
   </g>
   <g id="matplotlib.axis_3">
    <g id="xtick_6">
     <g id="line2d_12">
      <g>
       <use style="fill:#a9a9a9;stroke:#a9a9a9;stroke-width:2;" x="44.081633" xlink:href="#mbfef116563" y="122.307567"/>
      </g>
     </g>
    </g>
    <g id="xtick_7">
     <g id="line2d_13">
      <g>
       <use style="fill:#a9a9a9;stroke:#a9a9a9;stroke-width:2;" x="78.244898" xlink:href="#mbfef116563" y="122.307567"/>
      </g>
     </g>
    </g>
    <g id="xtick_8">
     <g id="line2d_14">
      <g>
       <use style="fill:#a9a9a9;stroke:#a9a9a9;stroke-width:2;" x="112.408163" xlink:href="#mbfef116563" y="122.307567"/>
      </g>
     </g>
    </g>
    <g id="xtick_9">
     <g id="line2d_15">
      <g>
       <use style="fill:#a9a9a9;stroke:#a9a9a9;stroke-width:2;" x="146.571429" xlink:href="#mbfef116563" y="122.307567"/>
      </g>
     </g>
    </g>
    <g id="xtick_10">
     <g id="line2d_16">
      <g>
       <use style="fill:#a9a9a9;stroke:#a9a9a9;stroke-width:2;" x="180.734694" xlink:href="#mbfef116563" y="122.307567"/>
      </g>
     </g>
    </g>
   </g>
   <g id="matplotlib.axis_4"/>
   <g id="line2d_17">
    <path clip-path="url(#p8772920bf4)" d="M 27 119.866006 
L 30.416327 119.987892 
L 33.832653 119.970298 
L 37.24898 119.811561 
L 40.665306 119.543023 
L 44.081633 119.226092 
L 47.497959 118.900468 
L 50.914286 118.439958 
L 54.330612 117.700917 
L 57.746939 116.574241 
L 61.163265 114.987597 
L 64.579592 112.906153 
L 67.995918 110.332034 
L 71.412245 107.3027 
L 74.828571 103.888437 
L 78.244898 100.189133 
L 81.661224 96.330535 
L 85.077551 92.460063 
L 88.493878 88.742127 
L 91.910204 85.352976 
L 95.326531 82.47537 
L 98.742857 80.293448 
L 102.159184 78.988089 
L 105.57551 78.733032 
L 108.991837 79.691951 
L 112.408163 82.009042 
L 115.82449 85.750132 
L 119.240816 90.548507 
L 122.657143 95.98741 
L 126.073469 101.676751 
L 129.489796 107.274522 
L 132.906122 112.496391 
L 136.322449 117.121218 
L 139.738776 120.992869 
L 143.155102 124.018808 
L 146.571429 126.166028 
L 149.987755 127.454956 
L 153.404082 127.951903 
L 156.820408 127.760405 
L 160.236735 127.011936 
L 163.653061 125.856616 
L 167.069388 124.454577 
L 170.485714 122.968496 
L 173.902041 121.557746 
L 177.318367 120.374413 
L 180.734694 119.561335 
L 184.15102 119.204317 
L 187.567347 119.194277 
L 190.983673 119.382836 
L 194.4 119.640836 
" style="fill:none;stroke:#66c2a5;stroke-linecap:square;stroke-width:2;"/>
   </g>
   <g id="patch_8">
    <path d="M 112.408163 128.16 
L 112.408163 77.76 
" style="fill:none;stroke:#a9a9a9;stroke-linecap:square;stroke-linejoin:miter;stroke-width:2;"/>
   </g>
   <g id="patch_9">
    <path d="M 194.4 128.16 
L 194.4 77.76 
" style="fill:none;"/>
   </g>
   <g id="patch_10">
    <path d="M 27 122.307567 
L 194.4 122.307567 
" style="fill:none;stroke:#a9a9a9;stroke-linecap:square;stroke-linejoin:miter;stroke-width:2;"/>
   </g>
   <g id="patch_11">
    <path d="M 27 77.76 
L 194.4 77.76 
" style="fill:none;"/>
   </g>
  </g>
 </g>
 <defs>
  <clipPath id="p09938132ba">
   <rect height="50.4" width="167.4" x="27" y="17.28"/>
  </clipPath>
  <clipPath id="p8772920bf4">
   <rect height="50.4" width="167.4" x="27" y="77.76"/>
  </clipPath>
 </defs>
</svg>
