<?xml version="1.0" encoding="utf-8" standalone="no"?>
<!DOCTYPE svg PUBLIC "-//W3C//DTD SVG 1.1//EN"
  "http://www.w3.org/Graphics/SVG/1.1/DTD/svg11.dtd">
<!-- Created with matplotlib (https://matplotlib.org/) -->
<svg height="144pt" version="1.1" viewBox="0 0 216 144" width="216pt" xmlns="http://www.w3.org/2000/svg" xmlns:xlink="http://www.w3.org/1999/xlink">
 <metadata>
  <rdf:RDF xmlns:cc="http://creativecommons.org/ns#" xmlns:dc="http://purl.org/dc/elements/1.1/" xmlns:rdf="http://www.w3.org/1999/02/22-rdf-syntax-ns#">
   <cc:Work>
    <dc:type rdf:resource="http://purl.org/dc/dcmitype/StillImage"/>
    <dc:date>2021-09-28T17:32:22.241279</dc:date>
    <dc:format>image/svg+xml</dc:format>
    <dc:creator>
     <cc:Agent>
      <dc:title>Matplotlib v3.3.2, https://matplotlib.org/</dc:title>
     </cc:Agent>
    </dc:creator>
   </cc:Work>
  </rdf:RDF>
 </metadata>
 <defs>
  <style type="text/css">*{stroke-linecap:butt;stroke-linejoin:round;}</style>
 </defs>
 <g id="figure_1">
  <g id="patch_1">
   <path d="M 0 144 
L 216 144 
L 216 0 
L 0 0 
z
" style="fill:none;"/>
  </g>
  <g id="axes_1">
   <g id="patch_2">
    <path d="M 27 67.68 
L 194.4 67.68 
L 194.4 17.28 
L 27 17.28 
z
" style="fill:none;"/>
   </g>
   <g id="PolyCollection_1">
    <path clip-path="url(#p9f9bca454b)" d="M 27 66.036211 
L 27 66.036211 
L 30.416327 66.036211 
L 33.832653 66.036211 
L 37.24898 66.036211 
L 40.665306 66.036211 
L 44.081633 66.032946 
L 47.497959 65.814985 
L 50.914286 65.319962 
L 54.330612 64.75902 
L 57.746939 63.226591 
L 61.163265 62.152848 
L 64.579592 59.753752 
L 67.995918 57.275879 
L 71.412245 52.058569 
L 74.828571 50.47084 
L 78.244898 44.105862 
L 81.661224 39.751835 
L 85.077551 32.811742 
L 88.493878 29.209204 
L 91.910204 25.44227 
L 95.326531 21.360556 
L 98.742857 19.836616 
L 102.159184 18.981494 
L 105.57551 17.28 
L 108.991837 21.961559 
L 112.408163 29.557488 
L 115.82449 25.188172 
L 119.240816 32.857509 
L 122.657143 35.145114 
L 126.073469 40.70403 
L 129.489796 44.930994 
L 132.906122 48.565499 
L 136.322449 50.857383 
L 139.738776 53.714104 
L 143.155102 55.922867 
L 146.571429 58.177662 
L 149.987755 58.057719 
L 153.404082 60.473647 
L 156.820408 60.630713 
L 160.236735 62.900834 
L 163.653061 63.821956 
L 167.069388 64.552236 
L 170.485714 65.264196 
L 173.902041 65.722461 
L 177.318367 65.885435 
L 180.734694 66.034053 
L 184.15102 66.036211 
L 187.567347 66.036211 
L 190.983673 66.036211 
L 194.4 66.036211 
L 194.4 66.036211 
L 194.4 66.036211 
L 190.983673 66.036211 
L 187.567347 66.036211 
L 184.15102 66.036211 
L 180.734694 66.039151 
L 177.318367 66.226457 
L 173.902041 66.535006 
L 170.485714 66.566388 
L 167.069388 67.105841 
L 163.653061 66.594419 
L 160.236735 66.856896 
L 156.820408 66.327738 
L 153.404082 67.68 
L 149.987755 64.890138 
L 146.571429 66.162254 
L 143.155102 64.519794 
L 139.738776 65.250697 
L 136.322449 62.66144 
L 132.906122 59.140875 
L 129.489796 57.765774 
L 126.073469 53.35645 
L 122.657143 49.462396 
L 119.240816 46.859079 
L 115.82449 40.39088 
L 112.408163 31.916012 
L 108.991837 36.607813 
L 105.57551 31.996981 
L 102.159184 32.74849 
L 98.742857 32.613301 
L 95.326531 33.875122 
L 91.910204 36.810107 
L 88.493878 40.629067 
L 85.077551 44.390048 
L 81.661224 48.341155 
L 78.244898 52.057174 
L 74.828571 57.310316 
L 71.412245 59.562917 
L 67.995918 63.055446 
L 64.579592 63.716142 
L 61.163265 65.03012 
L 57.746939 65.87842 
L 54.330612 66.073385 
L 50.914286 66.118374 
L 47.497959 66.163179 
L 44.081633 66.03861 
L 40.665306 66.036211 
L 37.24898 66.036211 
L 33.832653 66.036211 
L 30.416327 66.036211 
L 27 66.036211 
z
" style="fill:#fc8d62;fill-opacity:0.5;"/>
   </g>
   <g id="matplotlib.axis_1">
    <g id="xtick_1">
     <g id="line2d_1">
      <defs>
       <path d="M 0 0 
L 0 3.5 
" id="m916fb9380f" style="stroke:#a9a9a9;stroke-width:2;"/>
      </defs>
      <g>
       <use style="fill:#a9a9a9;stroke:#a9a9a9;stroke-width:2;" x="44.081633" xlink:href="#m916fb9380f" y="66.036211"/>
      </g>
     </g>
    </g>
    <g id="xtick_2">
     <g id="line2d_2">
      <g>
       <use style="fill:#a9a9a9;stroke:#a9a9a9;stroke-width:2;" x="78.244898" xlink:href="#m916fb9380f" y="66.036211"/>
      </g>
     </g>
    </g>
    <g id="xtick_3">
     <g id="line2d_3">
      <g>
       <use style="fill:#a9a9a9;stroke:#a9a9a9;stroke-width:2;" x="112.408163" xlink:href="#m916fb9380f" y="66.036211"/>
      </g>
     </g>
    </g>
    <g id="xtick_4">
     <g id="line2d_4">
      <g>
       <use style="fill:#a9a9a9;stroke:#a9a9a9;stroke-width:2;" x="146.571429" xlink:href="#m916fb9380f" y="66.036211"/>
      </g>
     </g>
    </g>
    <g id="xtick_5">
     <g id="line2d_5">
      <g>
       <use style="fill:#a9a9a9;stroke:#a9a9a9;stroke-width:2;" x="180.734694" xlink:href="#m916fb9380f" y="66.036211"/>
      </g>
     </g>
    </g>
   </g>
   <g id="matplotlib.axis_2"/>
   <g id="line2d_6">
    <path clip-path="url(#p9f9bca454b)" d="M 27 66.036211 
L 30.416327 66.036211 
L 33.832653 66.036211 
L 37.24898 66.036211 
L 40.665306 66.036211 
L 44.081633 66.035778 
L 47.497959 65.989082 
L 50.914286 65.719168 
L 54.330612 65.416202 
L 57.746939 64.552506 
L 61.163265 63.591484 
L 64.579592 61.734947 
L 67.995918 60.165662 
L 71.412245 55.810743 
L 74.828571 53.890578 
L 78.244898 48.081518 
L 81.661224 44.046495 
L 85.077551 38.600895 
L 88.493878 34.919135 
L 91.910204 31.126188 
L 95.326531 27.617839 
L 98.742857 26.224958 
L 102.159184 25.864992 
L 105.57551 24.638491 
L 108.991837 29.284686 
L 112.408163 30.73675 
L 115.82449 32.789526 
L 119.240816 39.858294 
L 122.657143 42.303755 
L 126.073469 47.03024 
L 129.489796 51.348384 
L 132.906122 53.853187 
L 136.322449 56.759411 
L 139.738776 59.4824 
L 143.155102 60.221331 
L 146.571429 62.169958 
L 149.987755 61.473929 
L 153.404082 64.076823 
L 156.820408 63.479226 
L 160.236735 64.878865 
L 163.653061 65.208188 
L 167.069388 65.829038 
L 170.485714 65.915292 
L 173.902041 66.128733 
L 177.318367 66.055946 
L 180.734694 66.036602 
L 184.15102 66.036211 
L 187.567347 66.036211 
L 190.983673 66.036211 
L 194.4 66.036211 
" style="fill:none;stroke:#fc8d62;stroke-linecap:square;stroke-width:2;"/>
   </g>
   <g id="line2d_7">
    <path clip-path="url(#p9f9bca454b)" d="M 27 66.036211 
L 30.416327 66.036211 
L 33.832653 66.036211 
L 37.24898 66.036211 
L 40.665306 66.036211 
L 44.081633 66.035676 
L 47.497959 65.929173 
L 50.914286 65.630425 
L 54.330612 64.72866 
L 57.746939 63.570156 
L 61.163265 62.289807 
L 64.579592 60.021659 
L 67.995918 57.877704 
L 71.412245 54.700087 
L 74.828571 51.51443 
L 78.244898 48.154829 
L 81.661224 43.478975 
L 85.077551 39.499196 
L 88.493878 36.013199 
L 91.910204 32.550637 
L 95.326531 28.390702 
L 98.742857 26.308608 
L 102.159184 24.835911 
L 105.57551 24.842884 
L 108.991837 24.638491 
L 112.408163 25.029673 
L 115.82449 26.500688 
L 119.240816 29.078426 
L 122.657143 33.282885 
L 126.073469 37.448882 
L 129.489796 41.891518 
L 132.906122 44.875548 
L 136.322449 48.810838 
L 139.738776 52.702506 
L 143.155102 56.079393 
L 146.571429 58.156446 
L 149.987755 60.82911 
L 153.404082 62.98301 
L 156.820408 64.131518 
L 160.236735 65.513915 
L 163.653061 65.92144 
L 167.069388 66.478494 
L 170.485714 66.487254 
L 173.902041 66.182396 
L 177.318367 66.110397 
L 180.734694 66.036694 
L 184.15102 66.036211 
L 187.567347 66.036211 
L 190.983673 66.036211 
L 194.4 66.036211 
" style="fill:none;stroke:#fc8d62;stroke-dasharray:1.5,2.475;stroke-dashoffset:0;stroke-opacity:0.5;stroke-width:1.5;"/>
   </g>
   <g id="patch_3">
    <path d="M 112.408163 67.68 
L 112.408163 17.28 
" style="fill:none;stroke:#a9a9a9;stroke-linecap:square;stroke-linejoin:miter;stroke-width:2;"/>
   </g>
   <g id="patch_4">
    <path d="M 194.4 67.68 
L 194.4 17.28 
" style="fill:none;"/>
   </g>
   <g id="patch_5">
    <path d="M 27 66.036211 
L 194.4 66.036211 
" style="fill:none;stroke:#a9a9a9;stroke-linecap:square;stroke-linejoin:miter;stroke-width:2;"/>
   </g>
   <g id="patch_6">
    <path d="M 27 17.28 
L 194.4 17.28 
" style="fill:none;"/>
   </g>
   <g id="legend_1">
    <g id="line2d_8">
     <path d="M 152.47 26.448906 
L 166.47 26.448906 
" style="fill:none;stroke:#fc8d62;stroke-linecap:square;stroke-width:2;"/>
    </g>
    <g id="line2d_9"/>
    <g id="text_1">
     <!-- $\theta$ -->
     <g transform="translate(172.07 28.898906)scale(0.07 -0.07)">
      <defs>
       <path d="M 45.515625 34.671875 
L 14.453125 34.671875 
Q 12.359375 20.0625 14.5 13.875 
Q 17.1875 6.25 24.46875 6.25 
Q 31.78125 6.25 37.359375 13.921875 
Q 42.234375 20.65625 45.515625 34.671875 
z
M 47.015625 42.96875 
Q 48.34375 56.84375 46.625 61.71875 
Q 43.953125 69.4375 36.765625 69.4375 
Q 29.296875 69.4375 23.828125 61.8125 
Q 19.53125 55.671875 16.15625 42.96875 
z
M 38.1875 76.765625 
Q 49.90625 76.765625 54.59375 66.40625 
Q 59.28125 56.109375 55.71875 37.84375 
Q 52.203125 19.625 43.453125 9.28125 
Q 34.765625 -1.125 23.046875 -1.125 
Q 11.28125 -1.125 6.640625 9.28125 
Q 2 19.625 5.515625 37.84375 
Q 9.078125 56.109375 17.71875 66.40625 
Q 26.421875 76.765625 38.1875 76.765625 
z
" id="DejaVuSans-Oblique-952"/>
      </defs>
      <use transform="translate(0 0.234375)" xlink:href="#DejaVuSans-Oblique-952"/>
     </g>
    </g>
    <g id="line2d_10">
     <path d="M 152.47 36.723594 
L 166.47 36.723594 
" style="fill:none;stroke:#fc8d62;stroke-dasharray:1.5,2.475;stroke-dashoffset:0;stroke-opacity:0.5;stroke-width:1.5;"/>
    </g>
    <g id="line2d_11"/>
    <g id="text_2">
     <!-- No $\theta$ -->
     <g transform="translate(172.07 39.173594)scale(0.07 -0.07)">
      <defs>
       <path d="M 9.8125 72.90625 
L 23.09375 72.90625 
L 55.421875 11.921875 
L 55.421875 72.90625 
L 64.984375 72.90625 
L 64.984375 0 
L 51.703125 0 
L 19.390625 60.984375 
L 19.390625 0 
L 9.8125 0 
z
" id="DejaVuSans-78"/>
       <path d="M 30.609375 48.390625 
Q 23.390625 48.390625 19.1875 42.75 
Q 14.984375 37.109375 14.984375 27.296875 
Q 14.984375 17.484375 19.15625 11.84375 
Q 23.34375 6.203125 30.609375 6.203125 
Q 37.796875 6.203125 41.984375 11.859375 
Q 46.1875 17.53125 46.1875 27.296875 
Q 46.1875 37.015625 41.984375 42.703125 
Q 37.796875 48.390625 30.609375 48.390625 
z
M 30.609375 56 
Q 42.328125 56 49.015625 48.375 
Q 55.71875 40.765625 55.71875 27.296875 
Q 55.71875 13.875 49.015625 6.21875 
Q 42.328125 -1.421875 30.609375 -1.421875 
Q 18.84375 -1.421875 12.171875 6.21875 
Q 5.515625 13.875 5.515625 27.296875 
Q 5.515625 40.765625 12.171875 48.375 
Q 18.84375 56 30.609375 56 
z
" id="DejaVuSans-111"/>
       <path id="DejaVuSans-32"/>
      </defs>
      <use transform="translate(0 0.234375)" xlink:href="#DejaVuSans-78"/>
      <use transform="translate(74.804688 0.234375)" xlink:href="#DejaVuSans-111"/>
      <use transform="translate(135.986328 0.234375)" xlink:href="#DejaVuSans-32"/>
      <use transform="translate(167.773438 0.234375)" xlink:href="#DejaVuSans-Oblique-952"/>
     </g>
    </g>
   </g>
  </g>
  <g id="axes_2">
   <g id="patch_7">
    <path d="M 27 128.16 
L 194.4 128.16 
L 194.4 77.76 
L 27 77.76 
z
" style="fill:none;"/>
   </g>
   <g id="PolyCollection_2">
    <path clip-path="url(#pf154372883)" d="M 27 119.985742 
L 27 119.889292 
L 30.416327 120.01714 
L 33.832653 119.998082 
L 37.24898 119.831163 
L 40.665306 119.551785 
L 44.081633 119.224422 
L 47.497959 118.889848 
L 50.914286 118.420961 
L 54.330612 117.672295 
L 57.746939 116.531287 
L 61.163265 114.920221 
L 64.579592 112.799521 
L 67.995918 110.169644 
L 71.412245 107.069043 
L 74.828571 103.570717 
L 78.244898 99.778227 
L 81.661224 95.821575 
L 85.077551 91.852708 
L 88.493878 88.040627 
L 91.910204 84.565981 
L 95.326531 81.615494 
L 98.742857 79.376673 
L 102.159184 78.033014 
L 105.57551 77.76 
L 108.991837 78.722065 
L 112.408163 81.063219 
L 115.82449 84.847007 
L 119.240816 89.70507 
L 122.657143 95.217295 
L 126.073469 100.989755 
L 129.489796 106.676078 
L 132.906122 111.987115 
L 136.322449 116.696543 
L 139.738776 120.642854 
L 143.155102 123.728793 
L 146.571429 125.919316 
L 149.987755 127.237626 
L 153.404082 127.756573 
L 156.820408 127.586313 
L 160.236735 126.86231 
L 163.653061 125.735747 
L 167.069388 124.365409 
L 170.485714 122.910732 
L 173.902041 121.526331 
L 177.318367 120.359686 
L 180.734694 119.553336 
L 184.15102 119.198692 
L 187.567347 119.192291 
L 190.983673 119.387515 
L 194.4 119.654652 
L 194.4 119.772789 
L 194.4 119.772789 
L 190.983673 119.527278 
L 187.567347 119.348562 
L 184.15102 119.364202 
L 180.734694 119.723106 
L 177.318367 120.538428 
L 173.902041 121.729958 
L 170.485714 123.154461 
L 167.069388 124.655288 
L 163.653061 126.068561 
L 160.236735 127.228836 
L 156.820408 127.975354 
L 153.404082 128.16 
L 149.987755 127.656429 
L 146.571429 126.368997 
L 143.155102 124.239288 
L 139.738776 121.250981 
L 136.322449 117.436278 
L 132.906122 112.884023 
L 129.489796 107.745698 
L 126.073469 102.237584 
L 122.657143 96.639048 
L 119.240816 91.287057 
L 115.82449 86.566645 
L 112.408163 82.889737 
L 108.991837 80.618101 
L 105.57551 79.684614 
L 102.159184 79.944315 
L 98.742857 81.233826 
L 95.326531 83.380615 
L 91.910204 86.205881 
L 88.493878 89.528355 
L 85.077551 93.168825 
L 81.661224 96.95515 
L 78.244898 100.727348 
L 74.828571 104.342507 
L 71.412245 107.679265 
L 67.995918 110.641653 
L 64.579592 113.162451 
L 61.163265 115.205606 
L 57.746939 116.76775 
L 54.330612 117.87936 
L 50.914286 118.607678 
L 47.497959 119.058509 
L 44.081633 119.373662 
L 40.665306 119.678017 
L 37.24898 119.933908 
L 33.832653 120.083558 
L 30.416327 120.100021 
L 27 119.985742 
z
" style="fill:#66c2a5;fill-opacity:0.5;"/>
   </g>
   <g id="matplotlib.axis_3">
    <g id="xtick_6">
     <g id="line2d_12">
      <g>
       <use style="fill:#a9a9a9;stroke:#a9a9a9;stroke-width:2;" x="44.081633" xlink:href="#m916fb9380f" y="122.365742"/>
      </g>
     </g>
    </g>
    <g id="xtick_7">
     <g id="line2d_13">
      <g>
       <use style="fill:#a9a9a9;stroke:#a9a9a9;stroke-width:2;" x="78.244898" xlink:href="#m916fb9380f" y="122.365742"/>
      </g>
     </g>
    </g>
    <g id="xtick_8">
     <g id="line2d_14">
      <g>
       <use style="fill:#a9a9a9;stroke:#a9a9a9;stroke-width:2;" x="112.408163" xlink:href="#m916fb9380f" y="122.365742"/>
      </g>
     </g>
    </g>
    <g id="xtick_9">
     <g id="line2d_15">
      <g>
       <use style="fill:#a9a9a9;stroke:#a9a9a9;stroke-width:2;" x="146.571429" xlink:href="#m916fb9380f" y="122.365742"/>
      </g>
     </g>
    </g>
    <g id="xtick_10">
     <g id="line2d_16">
      <g>
       <use style="fill:#a9a9a9;stroke:#a9a9a9;stroke-width:2;" x="180.734694" xlink:href="#m916fb9380f" y="122.365742"/>
      </g>
     </g>
    </g>
   </g>
   <g id="matplotlib.axis_4"/>
   <g id="line2d_17">
    <path clip-path="url(#pf154372883)" d="M 27 119.937517 
L 30.416327 120.05858 
L 33.832653 120.04082 
L 37.24898 119.882535 
L 40.665306 119.614901 
L 44.081633 119.299042 
L 47.497959 118.974179 
L 50.914286 118.51432 
L 54.330612 117.775827 
L 57.746939 116.649519 
L 61.163265 115.062914 
L 64.579592 112.980986 
L 67.995918 110.405649 
L 71.412245 107.374154 
L 74.828571 103.956612 
L 78.244898 100.252787 
L 81.661224 96.388362 
L 85.077551 92.510766 
L 88.493878 88.784491 
L 91.910204 85.385931 
L 95.326531 82.498055 
L 98.742857 80.305249 
L 102.159184 78.988665 
L 105.57551 78.722307 
L 108.991837 79.670083 
L 112.408163 81.976478 
L 115.82449 85.706826 
L 119.240816 90.496063 
L 122.657143 95.928171 
L 126.073469 101.613669 
L 129.489796 107.210888 
L 132.906122 112.435569 
L 136.322449 117.06641 
L 139.738776 120.946918 
L 143.155102 123.984041 
L 146.571429 126.144157 
L 149.987755 127.447027 
L 153.404082 127.958287 
L 156.820408 127.780834 
L 160.236735 127.045573 
L 163.653061 125.902154 
L 167.069388 124.510349 
L 170.485714 123.032596 
L 173.902041 121.628145 
L 177.318367 120.449057 
L 180.734694 119.638221 
L 184.15102 119.281447 
L 187.567347 119.270426 
L 190.983673 119.457397 
L 194.4 119.713721 
" style="fill:none;stroke:#66c2a5;stroke-linecap:square;stroke-width:2;"/>
   </g>
   <g id="patch_8">
    <path d="M 112.408163 128.16 
L 112.408163 77.76 
" style="fill:none;stroke:#a9a9a9;stroke-linecap:square;stroke-linejoin:miter;stroke-width:2;"/>
   </g>
   <g id="patch_9">
    <path d="M 194.4 128.16 
L 194.4 77.76 
" style="fill:none;"/>
   </g>
   <g id="patch_10">
    <path d="M 27 122.365742 
L 194.4 122.365742 
" style="fill:none;stroke:#a9a9a9;stroke-linecap:square;stroke-linejoin:miter;stroke-width:2;"/>
   </g>
   <g id="patch_11">
    <path d="M 27 77.76 
L 194.4 77.76 
" style="fill:none;"/>
   </g>
  </g>
 </g>
 <defs>
  <clipPath id="p9f9bca454b">
   <rect height="50.4" width="167.4" x="27" y="17.28"/>
  </clipPath>
  <clipPath id="pf154372883">
   <rect height="50.4" width="167.4" x="27" y="77.76"/>
  </clipPath>
 </defs>
</svg>
