<?xml version="1.0" encoding="utf-8" standalone="no"?>
<!DOCTYPE svg PUBLIC "-//W3C//DTD SVG 1.1//EN"
  "http://www.w3.org/Graphics/SVG/1.1/DTD/svg11.dtd">
<!-- Created with matplotlib (https://matplotlib.org/) -->
<svg height="144pt" version="1.1" viewBox="0 0 216 144" width="216pt" xmlns="http://www.w3.org/2000/svg" xmlns:xlink="http://www.w3.org/1999/xlink">
 <metadata>
  <rdf:RDF xmlns:cc="http://creativecommons.org/ns#" xmlns:dc="http://purl.org/dc/elements/1.1/" xmlns:rdf="http://www.w3.org/1999/02/22-rdf-syntax-ns#">
   <cc:Work>
    <dc:type rdf:resource="http://purl.org/dc/dcmitype/StillImage"/>
    <dc:date>2021-09-29T15:27:10.339638</dc:date>
    <dc:format>image/svg+xml</dc:format>
    <dc:creator>
     <cc:Agent>
      <dc:title>Matplotlib v3.3.2, https://matplotlib.org/</dc:title>
     </cc:Agent>
    </dc:creator>
   </cc:Work>
  </rdf:RDF>
 </metadata>
 <defs>
  <style type="text/css">*{stroke-linecap:butt;stroke-linejoin:round;}</style>
 </defs>
 <g id="figure_1">
  <g id="patch_1">
   <path d="M 0 144 
L 216 144 
L 216 0 
L 0 0 
z
" style="fill:none;"/>
  </g>
  <g id="axes_1">
   <g id="patch_2">
    <path d="M 27 67.68 
L 194.4 67.68 
L 194.4 17.28 
L 27 17.28 
z
" style="fill:none;"/>
   </g>
   <g id="PolyCollection_1">
    <path clip-path="url(#pb25e89b918)" d="M 27 47.17874 
L 27 47.17874 
L 30.416327 47.17874 
L 33.832653 47.17874 
L 37.24898 47.17874 
L 40.665306 47.17874 
L 44.081633 47.178721 
L 47.497959 46.765998 
L 50.914286 46.641835 
L 54.330612 46.039388 
L 57.746939 45.837841 
L 61.163265 43.959165 
L 64.579592 39.933297 
L 67.995918 41.495214 
L 71.412245 38.520462 
L 74.828571 38.184361 
L 78.244898 36.517992 
L 81.661224 33.068892 
L 85.077551 35.278492 
L 88.493878 34.506331 
L 91.910204 34.694171 
L 95.326531 28.074253 
L 98.742857 29.09976 
L 102.159184 30.694681 
L 105.57551 17.914638 
L 108.991837 26.109333 
L 112.408163 37.254252 
L 115.82449 22.59441 
L 119.240816 35.48904 
L 122.657143 17.28 
L 126.073469 31.131637 
L 129.489796 23.126537 
L 132.906122 32.109787 
L 136.322449 37.084522 
L 139.738776 34.817712 
L 143.155102 30.34471 
L 146.571429 38.803398 
L 149.987755 40.048686 
L 153.404082 38.978396 
L 156.820408 42.275828 
L 160.236735 43.284113 
L 163.653061 44.268547 
L 167.069388 44.691965 
L 170.485714 45.686024 
L 173.902041 46.662993 
L 177.318367 46.896783 
L 180.734694 47.178726 
L 184.15102 47.17874 
L 187.567347 47.17874 
L 190.983673 47.17874 
L 194.4 47.17874 
L 194.4 47.17874 
L 194.4 47.17874 
L 190.983673 47.17874 
L 187.567347 47.17874 
L 184.15102 47.17874 
L 180.734694 47.178759 
L 177.318367 47.57074 
L 173.902041 47.698208 
L 170.485714 48.321255 
L 167.069388 48.523289 
L 163.653061 50.190216 
L 160.236735 53.469033 
L 156.820408 51.901706 
L 153.404082 54.536752 
L 149.987755 54.248641 
L 146.571429 55.097196 
L 143.155102 59.245503 
L 139.738776 56.460179 
L 136.322449 55.996608 
L 132.906122 56.318111 
L 129.489796 64.474708 
L 126.073469 58.507236 
L 122.657143 61.468927 
L 119.240816 64.956599 
L 115.82449 63.43222 
L 112.408163 47.308092 
L 108.991837 63.529276 
L 105.57551 57.694852 
L 102.159184 67.68 
L 98.742857 59.186311 
L 95.326531 63.305439 
L 91.910204 56.586843 
L 88.493878 53.686641 
L 85.077551 55.755586 
L 81.661224 60.917272 
L 78.244898 54.256942 
L 74.828571 53.221096 
L 71.412245 54.405069 
L 67.995918 51.683142 
L 64.579592 51.179505 
L 61.163265 49.788026 
L 57.746939 49.397577 
L 54.330612 48.589891 
L 50.914286 47.690551 
L 47.497959 47.475254 
L 44.081633 47.178755 
L 40.665306 47.17874 
L 37.24898 47.17874 
L 33.832653 47.17874 
L 30.416327 47.17874 
L 27 47.17874 
z
" style="fill:#fc8d62;fill-opacity:0.5;"/>
   </g>
   <g id="matplotlib.axis_1">
    <g id="xtick_1">
     <g id="line2d_1">
      <defs>
       <path d="M 0 0 
L 0 3.5 
" id="m750b26fee5" style="stroke:#a9a9a9;stroke-width:2;"/>
      </defs>
      <g>
       <use style="fill:#a9a9a9;stroke:#a9a9a9;stroke-width:2;" x="44.081633" xlink:href="#m750b26fee5" y="47.17874"/>
      </g>
     </g>
    </g>
    <g id="xtick_2">
     <g id="line2d_2">
      <g>
       <use style="fill:#a9a9a9;stroke:#a9a9a9;stroke-width:2;" x="78.244898" xlink:href="#m750b26fee5" y="47.17874"/>
      </g>
     </g>
    </g>
    <g id="xtick_3">
     <g id="line2d_3">
      <g>
       <use style="fill:#a9a9a9;stroke:#a9a9a9;stroke-width:2;" x="112.408163" xlink:href="#m750b26fee5" y="47.17874"/>
      </g>
     </g>
    </g>
    <g id="xtick_4">
     <g id="line2d_4">
      <g>
       <use style="fill:#a9a9a9;stroke:#a9a9a9;stroke-width:2;" x="146.571429" xlink:href="#m750b26fee5" y="47.17874"/>
      </g>
     </g>
    </g>
    <g id="xtick_5">
     <g id="line2d_5">
      <g>
       <use style="fill:#a9a9a9;stroke:#a9a9a9;stroke-width:2;" x="180.734694" xlink:href="#m750b26fee5" y="47.17874"/>
      </g>
     </g>
    </g>
   </g>
   <g id="matplotlib.axis_2"/>
   <g id="line2d_6">
    <path clip-path="url(#pb25e89b918)" d="M 27 47.17874 
L 30.416327 47.17874 
L 33.832653 47.17874 
L 37.24898 47.17874 
L 40.665306 47.17874 
L 44.081633 47.178738 
L 47.497959 47.120626 
L 50.914286 47.166193 
L 54.330612 47.31464 
L 57.746939 47.617709 
L 61.163265 46.873596 
L 64.579592 45.556401 
L 67.995918 46.589178 
L 71.412245 46.462765 
L 74.828571 45.702729 
L 78.244898 45.387467 
L 81.661224 46.993082 
L 85.077551 45.517039 
L 88.493878 44.096486 
L 91.910204 45.640507 
L 95.326531 45.689846 
L 98.742857 44.143036 
L 102.159184 49.18734 
L 105.57551 37.804745 
L 108.991837 44.819305 
L 112.408163 42.281172 
L 115.82449 43.013315 
L 119.240816 50.222819 
L 122.657143 39.374464 
L 126.073469 44.819437 
L 129.489796 43.800622 
L 132.906122 44.213949 
L 136.322449 46.540565 
L 139.738776 45.638945 
L 143.155102 44.795107 
L 146.571429 46.950297 
L 149.987755 47.148664 
L 153.404082 46.757574 
L 156.820408 47.088767 
L 160.236735 48.376573 
L 163.653061 47.229381 
L 167.069388 46.607627 
L 170.485714 47.003639 
L 173.902041 47.180601 
L 177.318367 47.233761 
L 180.734694 47.178743 
L 184.15102 47.17874 
L 187.567347 47.17874 
L 190.983673 47.17874 
L 194.4 47.17874 
" style="fill:none;stroke:#fc8d62;stroke-linecap:square;stroke-width:2;"/>
   </g>
   <g id="line2d_7">
    <path clip-path="url(#pb25e89b918)" d="M 27 47.17874 
L 30.416327 47.17874 
L 33.832653 47.17874 
L 37.24898 47.17874 
L 40.665306 47.17874 
L 44.081633 47.17874 
L 47.497959 47.118069 
L 50.914286 47.224726 
L 54.330612 46.863983 
L 57.746939 47.11533 
L 61.163265 46.919022 
L 64.579592 46.993744 
L 67.995918 46.352866 
L 71.412245 47.079173 
L 74.828571 44.739412 
L 78.244898 46.262359 
L 81.661224 43.872555 
L 85.077551 45.519489 
L 88.493878 44.513631 
L 91.910204 48.940305 
L 95.326531 45.86418 
L 98.742857 41.741311 
L 102.159184 43.893775 
L 105.57551 44.695038 
L 108.991837 44.545088 
L 112.408163 42.5525 
L 115.82449 43.941944 
L 119.240816 43.893878 
L 122.657143 44.994397 
L 126.073469 47.638494 
L 129.489796 43.9109 
L 132.906122 41.412795 
L 136.322449 46.304119 
L 139.738776 45.877881 
L 143.155102 48.082617 
L 146.571429 46.113342 
L 149.987755 48.158176 
L 153.404082 46.27888 
L 156.820408 47.286341 
L 160.236735 46.914047 
L 163.653061 47.157581 
L 167.069388 47.092552 
L 170.485714 47.428975 
L 173.902041 47.124789 
L 177.318367 47.236377 
L 180.734694 47.17874 
L 184.15102 47.17874 
L 187.567347 47.17874 
L 190.983673 47.17874 
L 194.4 47.17874 
" style="fill:none;stroke:#fc8d62;stroke-dasharray:1.5,2.475;stroke-dashoffset:0;stroke-opacity:0.5;stroke-width:1.5;"/>
   </g>
   <g id="patch_3">
    <path d="M 112.408163 67.68 
L 112.408163 17.28 
" style="fill:none;stroke:#a9a9a9;stroke-linecap:square;stroke-linejoin:miter;stroke-width:2;"/>
   </g>
   <g id="patch_4">
    <path d="M 194.4 67.68 
L 194.4 17.28 
" style="fill:none;"/>
   </g>
   <g id="patch_5">
    <path d="M 27 47.17874 
L 194.4 47.17874 
" style="fill:none;stroke:#a9a9a9;stroke-linecap:square;stroke-linejoin:miter;stroke-width:2;"/>
   </g>
   <g id="patch_6">
    <path d="M 27 17.28 
L 194.4 17.28 
" style="fill:none;"/>
   </g>
   <g id="legend_1">
    <g id="line2d_8">
     <path d="M 33.3 26.448906 
L 47.3 26.448906 
" style="fill:none;stroke:#fc8d62;stroke-linecap:square;stroke-width:2;"/>
    </g>
    <g id="line2d_9"/>
    <g id="text_1">
     <!-- $\theta:$      R$^{2}$ = 0.353 -->
     <g transform="translate(52.9 28.898906)scale(0.07 -0.07)">
      <defs>
       <path d="M 45.515625 34.671875 
L 14.453125 34.671875 
Q 12.359375 20.0625 14.5 13.875 
Q 17.1875 6.25 24.46875 6.25 
Q 31.78125 6.25 37.359375 13.921875 
Q 42.234375 20.65625 45.515625 34.671875 
z
M 47.015625 42.96875 
Q 48.34375 56.84375 46.625 61.71875 
Q 43.953125 69.4375 36.765625 69.4375 
Q 29.296875 69.4375 23.828125 61.8125 
Q 19.53125 55.671875 16.15625 42.96875 
z
M 38.1875 76.765625 
Q 49.90625 76.765625 54.59375 66.40625 
Q 59.28125 56.109375 55.71875 37.84375 
Q 52.203125 19.625 43.453125 9.28125 
Q 34.765625 -1.125 23.046875 -1.125 
Q 11.28125 -1.125 6.640625 9.28125 
Q 2 19.625 5.515625 37.84375 
Q 9.078125 56.109375 17.71875 66.40625 
Q 26.421875 76.765625 38.1875 76.765625 
z
" id="DejaVuSans-Oblique-952"/>
       <path d="M 11.71875 12.40625 
L 22.015625 12.40625 
L 22.015625 0 
L 11.71875 0 
z
M 11.71875 51.703125 
L 22.015625 51.703125 
L 22.015625 39.3125 
L 11.71875 39.3125 
z
" id="DejaVuSans-58"/>
       <path id="DejaVuSans-32"/>
       <path d="M 44.390625 34.1875 
Q 47.5625 33.109375 50.5625 29.59375 
Q 53.5625 26.078125 56.59375 19.921875 
L 66.609375 0 
L 56 0 
L 46.6875 18.703125 
Q 43.0625 26.03125 39.671875 28.421875 
Q 36.28125 30.8125 30.421875 30.8125 
L 19.671875 30.8125 
L 19.671875 0 
L 9.8125 0 
L 9.8125 72.90625 
L 32.078125 72.90625 
Q 44.578125 72.90625 50.734375 67.671875 
Q 56.890625 62.453125 56.890625 51.90625 
Q 56.890625 45.015625 53.6875 40.46875 
Q 50.484375 35.9375 44.390625 34.1875 
z
M 19.671875 64.796875 
L 19.671875 38.921875 
L 32.078125 38.921875 
Q 39.203125 38.921875 42.84375 42.21875 
Q 46.484375 45.515625 46.484375 51.90625 
Q 46.484375 58.296875 42.84375 61.546875 
Q 39.203125 64.796875 32.078125 64.796875 
z
" id="DejaVuSans-82"/>
       <path d="M 19.1875 8.296875 
L 53.609375 8.296875 
L 53.609375 0 
L 7.328125 0 
L 7.328125 8.296875 
Q 12.9375 14.109375 22.625 23.890625 
Q 32.328125 33.6875 34.8125 36.53125 
Q 39.546875 41.84375 41.421875 45.53125 
Q 43.3125 49.21875 43.3125 52.78125 
Q 43.3125 58.59375 39.234375 62.25 
Q 35.15625 65.921875 28.609375 65.921875 
Q 23.96875 65.921875 18.8125 64.3125 
Q 13.671875 62.703125 7.8125 59.421875 
L 7.8125 69.390625 
Q 13.765625 71.78125 18.9375 73 
Q 24.125 74.21875 28.421875 74.21875 
Q 39.75 74.21875 46.484375 68.546875 
Q 53.21875 62.890625 53.21875 53.421875 
Q 53.21875 48.921875 51.53125 44.890625 
Q 49.859375 40.875 45.40625 35.40625 
Q 44.1875 33.984375 37.640625 27.21875 
Q 31.109375 20.453125 19.1875 8.296875 
z
" id="DejaVuSans-50"/>
       <path d="M 10.59375 45.40625 
L 73.1875 45.40625 
L 73.1875 37.203125 
L 10.59375 37.203125 
z
M 10.59375 25.484375 
L 73.1875 25.484375 
L 73.1875 17.1875 
L 10.59375 17.1875 
z
" id="DejaVuSans-61"/>
       <path d="M 31.78125 66.40625 
Q 24.171875 66.40625 20.328125 58.90625 
Q 16.5 51.421875 16.5 36.375 
Q 16.5 21.390625 20.328125 13.890625 
Q 24.171875 6.390625 31.78125 6.390625 
Q 39.453125 6.390625 43.28125 13.890625 
Q 47.125 21.390625 47.125 36.375 
Q 47.125 51.421875 43.28125 58.90625 
Q 39.453125 66.40625 31.78125 66.40625 
z
M 31.78125 74.21875 
Q 44.046875 74.21875 50.515625 64.515625 
Q 56.984375 54.828125 56.984375 36.375 
Q 56.984375 17.96875 50.515625 8.265625 
Q 44.046875 -1.421875 31.78125 -1.421875 
Q 19.53125 -1.421875 13.0625 8.265625 
Q 6.59375 17.96875 6.59375 36.375 
Q 6.59375 54.828125 13.0625 64.515625 
Q 19.53125 74.21875 31.78125 74.21875 
z
" id="DejaVuSans-48"/>
       <path d="M 10.6875 12.40625 
L 21 12.40625 
L 21 0 
L 10.6875 0 
z
" id="DejaVuSans-46"/>
       <path d="M 40.578125 39.3125 
Q 47.65625 37.796875 51.625 33 
Q 55.609375 28.21875 55.609375 21.1875 
Q 55.609375 10.40625 48.1875 4.484375 
Q 40.765625 -1.421875 27.09375 -1.421875 
Q 22.515625 -1.421875 17.65625 -0.515625 
Q 12.796875 0.390625 7.625 2.203125 
L 7.625 11.71875 
Q 11.71875 9.328125 16.59375 8.109375 
Q 21.484375 6.890625 26.8125 6.890625 
Q 36.078125 6.890625 40.9375 10.546875 
Q 45.796875 14.203125 45.796875 21.1875 
Q 45.796875 27.640625 41.28125 31.265625 
Q 36.765625 34.90625 28.71875 34.90625 
L 20.21875 34.90625 
L 20.21875 43.015625 
L 29.109375 43.015625 
Q 36.375 43.015625 40.234375 45.921875 
Q 44.09375 48.828125 44.09375 54.296875 
Q 44.09375 59.90625 40.109375 62.90625 
Q 36.140625 65.921875 28.71875 65.921875 
Q 24.65625 65.921875 20.015625 65.03125 
Q 15.375 64.15625 9.8125 62.3125 
L 9.8125 71.09375 
Q 15.4375 72.65625 20.34375 73.4375 
Q 25.25 74.21875 29.59375 74.21875 
Q 40.828125 74.21875 47.359375 69.109375 
Q 53.90625 64.015625 53.90625 55.328125 
Q 53.90625 49.265625 50.4375 45.09375 
Q 46.96875 40.921875 40.578125 39.3125 
z
" id="DejaVuSans-51"/>
       <path d="M 10.796875 72.90625 
L 49.515625 72.90625 
L 49.515625 64.59375 
L 19.828125 64.59375 
L 19.828125 46.734375 
Q 21.96875 47.46875 24.109375 47.828125 
Q 26.265625 48.1875 28.421875 48.1875 
Q 40.625 48.1875 47.75 41.5 
Q 54.890625 34.8125 54.890625 23.390625 
Q 54.890625 11.625 47.5625 5.09375 
Q 40.234375 -1.421875 26.90625 -1.421875 
Q 22.3125 -1.421875 17.546875 -0.640625 
Q 12.796875 0.140625 7.71875 1.703125 
L 7.71875 11.625 
Q 12.109375 9.234375 16.796875 8.0625 
Q 21.484375 6.890625 26.703125 6.890625 
Q 35.15625 6.890625 40.078125 11.328125 
Q 45.015625 15.765625 45.015625 23.390625 
Q 45.015625 31 40.078125 35.4375 
Q 35.15625 39.890625 26.703125 39.890625 
Q 22.75 39.890625 18.8125 39.015625 
Q 14.890625 38.140625 10.796875 36.28125 
z
" id="DejaVuSans-53"/>
      </defs>
      <use transform="translate(0 0.765625)" xlink:href="#DejaVuSans-Oblique-952"/>
      <use transform="translate(80.664062 0.765625)" xlink:href="#DejaVuSans-58"/>
      <use transform="translate(133.837891 0.765625)" xlink:href="#DejaVuSans-32"/>
      <use transform="translate(165.625 0.765625)" xlink:href="#DejaVuSans-32"/>
      <use transform="translate(197.412109 0.765625)" xlink:href="#DejaVuSans-32"/>
      <use transform="translate(229.199219 0.765625)" xlink:href="#DejaVuSans-32"/>
      <use transform="translate(260.986328 0.765625)" xlink:href="#DejaVuSans-32"/>
      <use transform="translate(292.773438 0.765625)" xlink:href="#DejaVuSans-32"/>
      <use transform="translate(324.560547 0.765625)" xlink:href="#DejaVuSans-82"/>
      <use transform="translate(395 39.046875)scale(0.7)" xlink:href="#DejaVuSans-50"/>
      <use transform="translate(442.270508 0.765625)" xlink:href="#DejaVuSans-32"/>
      <use transform="translate(474.057617 0.765625)" xlink:href="#DejaVuSans-61"/>
      <use transform="translate(557.84668 0.765625)" xlink:href="#DejaVuSans-32"/>
      <use transform="translate(589.633789 0.765625)" xlink:href="#DejaVuSans-48"/>
      <use transform="translate(653.256836 0.765625)" xlink:href="#DejaVuSans-46"/>
      <use transform="translate(685.043945 0.765625)" xlink:href="#DejaVuSans-51"/>
      <use transform="translate(748.666992 0.765625)" xlink:href="#DejaVuSans-53"/>
      <use transform="translate(812.290039 0.765625)" xlink:href="#DejaVuSans-51"/>
     </g>
    </g>
    <g id="line2d_10">
     <path d="M 33.3 36.723594 
L 47.3 36.723594 
" style="fill:none;stroke:#fc8d62;stroke-dasharray:1.5,2.475;stroke-dashoffset:0;stroke-opacity:0.5;stroke-width:1.5;"/>
    </g>
    <g id="line2d_11"/>
    <g id="text_2">
     <!-- No $\theta:$ R$^{2}$ = 0.504 -->
     <g transform="translate(52.9 39.173594)scale(0.07 -0.07)">
      <defs>
       <path d="M 9.8125 72.90625 
L 23.09375 72.90625 
L 55.421875 11.921875 
L 55.421875 72.90625 
L 64.984375 72.90625 
L 64.984375 0 
L 51.703125 0 
L 19.390625 60.984375 
L 19.390625 0 
L 9.8125 0 
z
" id="DejaVuSans-78"/>
       <path d="M 30.609375 48.390625 
Q 23.390625 48.390625 19.1875 42.75 
Q 14.984375 37.109375 14.984375 27.296875 
Q 14.984375 17.484375 19.15625 11.84375 
Q 23.34375 6.203125 30.609375 6.203125 
Q 37.796875 6.203125 41.984375 11.859375 
Q 46.1875 17.53125 46.1875 27.296875 
Q 46.1875 37.015625 41.984375 42.703125 
Q 37.796875 48.390625 30.609375 48.390625 
z
M 30.609375 56 
Q 42.328125 56 49.015625 48.375 
Q 55.71875 40.765625 55.71875 27.296875 
Q 55.71875 13.875 49.015625 6.21875 
Q 42.328125 -1.421875 30.609375 -1.421875 
Q 18.84375 -1.421875 12.171875 6.21875 
Q 5.515625 13.875 5.515625 27.296875 
Q 5.515625 40.765625 12.171875 48.375 
Q 18.84375 56 30.609375 56 
z
" id="DejaVuSans-111"/>
       <path d="M 37.796875 64.3125 
L 12.890625 25.390625 
L 37.796875 25.390625 
z
M 35.203125 72.90625 
L 47.609375 72.90625 
L 47.609375 25.390625 
L 58.015625 25.390625 
L 58.015625 17.1875 
L 47.609375 17.1875 
L 47.609375 0 
L 37.796875 0 
L 37.796875 17.1875 
L 4.890625 17.1875 
L 4.890625 26.703125 
z
" id="DejaVuSans-52"/>
      </defs>
      <use transform="translate(0 0.765625)" xlink:href="#DejaVuSans-78"/>
      <use transform="translate(74.804688 0.765625)" xlink:href="#DejaVuSans-111"/>
      <use transform="translate(135.986328 0.765625)" xlink:href="#DejaVuSans-32"/>
      <use transform="translate(167.773438 0.765625)" xlink:href="#DejaVuSans-Oblique-952"/>
      <use transform="translate(248.4375 0.765625)" xlink:href="#DejaVuSans-58"/>
      <use transform="translate(301.611328 0.765625)" xlink:href="#DejaVuSans-32"/>
      <use transform="translate(333.398438 0.765625)" xlink:href="#DejaVuSans-82"/>
      <use transform="translate(403.837891 39.046875)scale(0.7)" xlink:href="#DejaVuSans-50"/>
      <use transform="translate(451.108398 0.765625)" xlink:href="#DejaVuSans-32"/>
      <use transform="translate(482.895508 0.765625)" xlink:href="#DejaVuSans-61"/>
      <use transform="translate(566.68457 0.765625)" xlink:href="#DejaVuSans-32"/>
      <use transform="translate(598.47168 0.765625)" xlink:href="#DejaVuSans-48"/>
      <use transform="translate(662.094727 0.765625)" xlink:href="#DejaVuSans-46"/>
      <use transform="translate(693.881836 0.765625)" xlink:href="#DejaVuSans-53"/>
      <use transform="translate(757.504883 0.765625)" xlink:href="#DejaVuSans-48"/>
      <use transform="translate(821.12793 0.765625)" xlink:href="#DejaVuSans-52"/>
     </g>
    </g>
   </g>
  </g>
  <g id="axes_2">
   <g id="patch_7">
    <path d="M 27 128.16 
L 194.4 128.16 
L 194.4 77.76 
L 27 77.76 
z
" style="fill:none;"/>
   </g>
   <g id="PolyCollection_2">
    <path clip-path="url(#p9984339d31)" d="M 27 122.578463 
L 27 122.572501 
L 30.416327 122.573964 
L 33.832653 122.574528 
L 37.24898 122.574679 
L 40.665306 122.5747 
L 44.081633 122.574693 
L 47.497959 122.556181 
L 50.914286 122.435247 
L 54.330612 122.121217 
L 57.746939 121.538186 
L 61.163265 120.6286 
L 64.579592 119.356055 
L 67.995918 117.707639 
L 71.412245 115.694596 
L 74.828571 113.351671 
L 78.244898 110.735745 
L 81.661224 107.923043 
L 85.077551 105.004842 
L 88.493878 102.082611 
L 91.910204 99.263568 
L 95.326531 96.656351 
L 98.742857 94.366685 
L 102.159184 92.493101 
L 105.57551 91.122822 
L 108.991837 90.327925 
L 112.408163 77.76 
L 115.82449 90.646458 
L 119.240816 91.744806 
L 122.657143 93.390904 
L 126.073469 95.502355 
L 129.489796 97.984115 
L 132.906122 100.732423 
L 136.322449 103.638883 
L 139.738776 106.594612 
L 143.155102 109.494401 
L 146.571429 112.240823 
L 149.987755 114.748559 
L 153.404082 116.949293 
L 156.820408 118.79577 
L 160.236735 120.263808 
L 163.653061 121.352269 
L 167.069388 122.08018 
L 170.485714 122.453582 
L 173.902041 122.491362 
L 177.318367 122.498767 
L 180.734694 122.521323 
L 184.15102 122.54097 
L 187.567347 122.554777 
L 190.983673 122.563882 
L 194.4 122.569438 
L 194.4 122.584285 
L 194.4 122.584285 
L 190.983673 122.595622 
L 187.567347 122.615519 
L 184.15102 122.647771 
L 180.734694 122.696783 
L 177.318367 122.75213 
L 173.902041 122.743048 
L 170.485714 122.652021 
L 167.069388 122.726031 
L 163.653061 122.933357 
L 160.236735 123.239856 
L 156.820408 123.637316 
L 153.404082 124.112397 
L 149.987755 124.645297 
L 146.571429 125.210599 
L 143.155102 125.779398 
L 139.738776 126.322685 
L 136.322449 126.814858 
L 132.906122 127.235979 
L 129.489796 127.573206 
L 126.073469 127.821718 
L 122.657143 127.985259 
L 119.240816 128.076354 
L 115.82449 128.116272 
L 112.408163 115.733022 
L 108.991837 128.156897 
L 105.57551 128.16 
L 102.159184 128.114482 
L 98.742857 127.998318 
L 95.326531 127.797427 
L 91.910204 127.505867 
L 88.493878 127.12582 
L 85.077551 126.667299 
L 81.661224 126.147488 
L 78.244898 125.589602 
L 74.828571 125.021024 
L 71.412245 124.470299 
L 67.995918 123.96395 
L 64.579592 123.524041 
L 61.163265 123.16641 
L 57.746939 122.8989 
L 54.330612 122.720322 
L 50.914286 122.620586 
L 47.497959 122.580933 
L 44.081633 122.574704 
L 40.665306 122.5747 
L 37.24898 122.574728 
L 33.832653 122.574956 
L 30.416327 122.575878 
L 27 122.578463 
z
" style="fill:#66c2a5;fill-opacity:0.5;"/>
   </g>
   <g id="matplotlib.axis_3">
    <g id="xtick_6">
     <g id="line2d_12">
      <g>
       <use style="fill:#a9a9a9;stroke:#a9a9a9;stroke-width:2;" x="44.081633" xlink:href="#m750b26fee5" y="122.5747"/>
      </g>
     </g>
    </g>
    <g id="xtick_7">
     <g id="line2d_13">
      <g>
       <use style="fill:#a9a9a9;stroke:#a9a9a9;stroke-width:2;" x="78.244898" xlink:href="#m750b26fee5" y="122.5747"/>
      </g>
     </g>
    </g>
    <g id="xtick_8">
     <g id="line2d_14">
      <g>
       <use style="fill:#a9a9a9;stroke:#a9a9a9;stroke-width:2;" x="112.408163" xlink:href="#m750b26fee5" y="122.5747"/>
      </g>
     </g>
    </g>
    <g id="xtick_9">
     <g id="line2d_15">
      <g>
       <use style="fill:#a9a9a9;stroke:#a9a9a9;stroke-width:2;" x="146.571429" xlink:href="#m750b26fee5" y="122.5747"/>
      </g>
     </g>
    </g>
    <g id="xtick_10">
     <g id="line2d_16">
      <g>
       <use style="fill:#a9a9a9;stroke:#a9a9a9;stroke-width:2;" x="180.734694" xlink:href="#m750b26fee5" y="122.5747"/>
      </g>
     </g>
    </g>
   </g>
   <g id="matplotlib.axis_4"/>
   <g id="line2d_17">
    <path clip-path="url(#p9984339d31)" d="M 27 122.575482 
L 30.416327 122.574921 
L 33.832653 122.574742 
L 37.24898 122.574704 
L 40.665306 122.5747 
L 44.081633 122.574698 
L 47.497959 122.568557 
L 50.914286 122.527917 
L 54.330612 122.420769 
L 57.746939 122.218543 
L 61.163265 121.897505 
L 64.579592 121.440048 
L 67.995918 120.835794 
L 71.412245 120.082447 
L 74.828571 119.186347 
L 78.244898 118.162673 
L 81.661224 117.035265 
L 85.077551 115.836071 
L 88.493878 114.604215 
L 91.910204 113.384717 
L 95.326531 112.226889 
L 98.742857 111.182501 
L 102.159184 110.303791 
L 105.57551 109.641411 
L 108.991837 109.242411 
L 112.408163 96.746511 
L 115.82449 109.381365 
L 119.240816 109.91058 
L 122.657143 110.688081 
L 126.073469 111.662037 
L 129.489796 112.77866 
L 132.906122 113.984201 
L 136.322449 115.22687 
L 139.738776 116.458649 
L 143.155102 117.636899 
L 146.571429 118.725711 
L 149.987755 119.696928 
L 153.404082 120.530845 
L 156.820408 121.216543 
L 160.236735 121.751832 
L 163.653061 122.142813 
L 167.069388 122.403106 
L 170.485714 122.552801 
L 173.902041 122.617205 
L 177.318367 122.625449 
L 180.734694 122.609053 
L 184.15102 122.59437 
L 187.567347 122.585148 
L 190.983673 122.579752 
L 194.4 122.576862 
" style="fill:none;stroke:#66c2a5;stroke-linecap:square;stroke-width:2;"/>
   </g>
   <g id="patch_8">
    <path d="M 112.408163 128.16 
L 112.408163 77.76 
" style="fill:none;stroke:#a9a9a9;stroke-linecap:square;stroke-linejoin:miter;stroke-width:2;"/>
   </g>
   <g id="patch_9">
    <path d="M 194.4 128.16 
L 194.4 77.76 
" style="fill:none;"/>
   </g>
   <g id="patch_10">
    <path d="M 27 122.5747 
L 194.4 122.5747 
" style="fill:none;stroke:#a9a9a9;stroke-linecap:square;stroke-linejoin:miter;stroke-width:2;"/>
   </g>
   <g id="patch_11">
    <path d="M 27 77.76 
L 194.4 77.76 
" style="fill:none;"/>
   </g>
  </g>
 </g>
 <defs>
  <clipPath id="pb25e89b918">
   <rect height="50.4" width="167.4" x="27" y="17.28"/>
  </clipPath>
  <clipPath id="p9984339d31">
   <rect height="50.4" width="167.4" x="27" y="77.76"/>
  </clipPath>
 </defs>
</svg>
