<?xml version="1.0" encoding="utf-8" standalone="no"?>
<!DOCTYPE svg PUBLIC "-//W3C//DTD SVG 1.1//EN"
  "http://www.w3.org/Graphics/SVG/1.1/DTD/svg11.dtd">
<!-- Created with matplotlib (https://matplotlib.org/) -->
<svg height="144pt" version="1.1" viewBox="0 0 144 144" width="144pt" xmlns="http://www.w3.org/2000/svg" xmlns:xlink="http://www.w3.org/1999/xlink">
 <metadata>
  <rdf:RDF xmlns:cc="http://creativecommons.org/ns#" xmlns:dc="http://purl.org/dc/elements/1.1/" xmlns:rdf="http://www.w3.org/1999/02/22-rdf-syntax-ns#">
   <cc:Work>
    <dc:type rdf:resource="http://purl.org/dc/dcmitype/StillImage"/>
    <dc:date>2021-10-13T15:36:43.585152</dc:date>
    <dc:format>image/svg+xml</dc:format>
    <dc:creator>
     <cc:Agent>
      <dc:title>Matplotlib v3.3.2, https://matplotlib.org/</dc:title>
     </cc:Agent>
    </dc:creator>
   </cc:Work>
  </rdf:RDF>
 </metadata>
 <defs>
  <style type="text/css">*{stroke-linecap:butt;stroke-linejoin:round;}</style>
 </defs>
 <g id="figure_1">
  <g id="patch_1">
   <path d="M 0 144 
L 144 144 
L 144 0 
L 0 0 
z
" style="fill:none;"/>
  </g>
  <g id="axes_1">
   <g id="patch_2">
    <path d="M 18 67.68 
L 129.6 67.68 
L 129.6 17.28 
L 18 17.28 
z
" style="fill:none;"/>
   </g>
   <g id="PolyCollection_1">
    <path clip-path="url(#pca8d21d16c)" d="M 18 67.643624 
L 18 67.643624 
L 20.277551 67.643624 
L 22.555102 67.643624 
L 24.832653 67.643624 
L 27.110204 67.643624 
L 29.387755 67.64351 
L 31.665306 67.558369 
L 33.942857 67.251882 
L 36.220408 66.768331 
L 38.497959 65.79983 
L 40.77551 64.458432 
L 43.053061 62.546236 
L 45.330612 59.688198 
L 47.608163 56.739554 
L 49.885714 53.590301 
L 52.163265 49.026859 
L 54.440816 44.787183 
L 56.718367 38.914128 
L 58.995918 34.222577 
L 61.273469 30.020515 
L 63.55102 25.808284 
L 65.828571 21.139926 
L 68.106122 19.746847 
L 70.383673 19.783447 
L 72.661224 17.28 
L 74.938776 21.130894 
L 77.216327 19.907795 
L 79.493878 21.874302 
L 81.771429 25.635623 
L 84.04898 30.220869 
L 86.326531 34.395015 
L 88.604082 38.638982 
L 90.881633 42.082342 
L 93.159184 46.892689 
L 95.436735 49.398464 
L 97.714286 53.835812 
L 99.991837 56.177508 
L 102.269388 59.840101 
L 104.546939 61.646682 
L 106.82449 63.648225 
L 109.102041 65.154846 
L 111.379592 66.356079 
L 113.657143 66.845916 
L 115.934694 67.346643 
L 118.212245 67.590132 
L 120.489796 67.643624 
L 122.767347 67.643624 
L 125.044898 67.643624 
L 127.322449 67.643624 
L 129.6 67.643624 
L 129.6 67.643624 
L 129.6 67.643624 
L 127.322449 67.643624 
L 125.044898 67.643624 
L 122.767347 67.643624 
L 120.489796 67.643624 
L 118.212245 67.677565 
L 115.934694 67.659482 
L 113.657143 67.489475 
L 111.379592 67.069067 
L 109.102041 66.338778 
L 106.82449 65.167601 
L 104.546939 63.888104 
L 102.269388 61.822869 
L 99.991837 59.857605 
L 97.714286 56.531447 
L 95.436735 53.846072 
L 93.159184 50.832248 
L 90.881633 46.849857 
L 88.604082 42.668826 
L 86.326531 40.067296 
L 84.04898 36.886929 
L 81.771429 31.980733 
L 79.493878 28.939542 
L 77.216327 26.923658 
L 74.938776 27.563429 
L 72.661224 24.025118 
L 70.383673 24.753888 
L 68.106122 27.420691 
L 65.828571 28.034413 
L 63.55102 31.768722 
L 61.273469 35.204846 
L 58.995918 40.420519 
L 56.718367 44.744914 
L 54.440816 48.799521 
L 52.163265 52.98136 
L 49.885714 56.591445 
L 47.608163 59.745139 
L 45.330612 62.16169 
L 43.053061 64.335334 
L 40.77551 65.764729 
L 38.497959 66.759047 
L 36.220408 67.474603 
L 33.942857 67.659638 
L 31.665306 67.68 
L 29.387755 67.643692 
L 27.110204 67.643624 
L 24.832653 67.643624 
L 22.555102 67.643624 
L 20.277551 67.643624 
L 18 67.643624 
z
" style="fill:#fc8d62;fill-opacity:0.2;"/>
   </g>
   <g id="PolyCollection_2">
    <path clip-path="url(#pca8d21d16c)" d="M 18 67.643624 
L 18 67.643624 
L 20.277551 67.643624 
L 22.555102 67.643624 
L 24.832653 67.643624 
L 27.110204 67.643624 
L 29.387755 67.643416 
L 31.665306 67.605245 
L 33.942857 67.264268 
L 36.220408 66.796511 
L 38.497959 65.892808 
L 40.77551 64.504523 
L 43.053061 62.760222 
L 45.330612 60.502311 
L 47.608163 57.657554 
L 49.885714 54.725412 
L 52.163265 50.592364 
L 54.440816 46.366223 
L 56.718367 42.430641 
L 58.995918 37.644261 
L 61.273469 33.245245 
L 63.55102 29.864342 
L 65.828571 24.722356 
L 68.106122 22.170971 
L 70.383673 19.269143 
L 72.661224 18.849704 
L 74.938776 20.563764 
L 77.216327 18.466987 
L 79.493878 20.261455 
L 81.771429 23.476884 
L 84.04898 26.968416 
L 86.326531 29.457504 
L 88.604082 33.241575 
L 90.881633 38.503147 
L 93.159184 43.161655 
L 95.436735 47.510398 
L 97.714286 51.94668 
L 99.991837 55.082271 
L 102.269388 58.110364 
L 104.546939 60.931543 
L 106.82449 63.189617 
L 109.102041 64.754897 
L 111.379592 66.051126 
L 113.657143 66.97084 
L 115.934694 67.331204 
L 118.212245 67.587644 
L 120.489796 67.643624 
L 122.767347 67.643624 
L 125.044898 67.643624 
L 127.322449 67.643624 
L 129.6 67.643624 
L 129.6 67.643624 
L 129.6 67.643624 
L 127.322449 67.643624 
L 125.044898 67.643624 
L 122.767347 67.643624 
L 120.489796 67.643624 
L 118.212245 67.676478 
L 115.934694 67.680792 
L 113.657143 67.404875 
L 111.379592 67.003593 
L 109.102041 66.245824 
L 106.82449 65.13542 
L 104.546939 63.314692 
L 102.269388 60.942995 
L 99.991837 57.848306 
L 97.714286 55.189649 
L 95.436735 51.786839 
L 93.159184 47.382563 
L 90.881633 44.265659 
L 88.604082 38.949401 
L 86.326531 35.230826 
L 84.04898 32.627665 
L 81.771429 29.261269 
L 79.493878 26.86495 
L 77.216327 24.43321 
L 74.938776 27.575431 
L 72.661224 24.770448 
L 70.383673 26.861999 
L 68.106122 28.386608 
L 65.828571 31.096283 
L 63.55102 34.817725 
L 61.273469 39.0591 
L 58.995918 42.790925 
L 56.718367 47.333296 
L 54.440816 50.940835 
L 52.163265 54.182565 
L 49.885714 57.852177 
L 47.608163 60.467394 
L 45.330612 63.03087 
L 43.053061 64.834745 
L 40.77551 66.002965 
L 38.497959 66.837748 
L 36.220408 67.401098 
L 33.942857 67.62389 
L 31.665306 67.655804 
L 29.387755 67.643757 
L 27.110204 67.643624 
L 24.832653 67.643624 
L 22.555102 67.643624 
L 20.277551 67.643624 
L 18 67.643624 
z
" style="fill:#fc8d62;fill-opacity:0.2;"/>
   </g>
   <g id="matplotlib.axis_1">
    <g id="xtick_1">
     <g id="line2d_1">
      <defs>
       <path d="M 0 0 
L 0 3.5 
" id="m87dccdd8ad" style="stroke:#a9a9a9;stroke-width:2;"/>
      </defs>
      <g>
       <use style="fill:#a9a9a9;stroke:#a9a9a9;stroke-width:2;" x="29.387755" xlink:href="#m87dccdd8ad" y="67.643624"/>
      </g>
     </g>
    </g>
    <g id="xtick_2">
     <g id="line2d_2">
      <g>
       <use style="fill:#a9a9a9;stroke:#a9a9a9;stroke-width:2;" x="52.163265" xlink:href="#m87dccdd8ad" y="67.643624"/>
      </g>
     </g>
    </g>
    <g id="xtick_3">
     <g id="line2d_3">
      <g>
       <use style="fill:#a9a9a9;stroke:#a9a9a9;stroke-width:2;" x="74.938776" xlink:href="#m87dccdd8ad" y="67.643624"/>
      </g>
     </g>
    </g>
    <g id="xtick_4">
     <g id="line2d_4">
      <g>
       <use style="fill:#a9a9a9;stroke:#a9a9a9;stroke-width:2;" x="97.714286" xlink:href="#m87dccdd8ad" y="67.643624"/>
      </g>
     </g>
    </g>
    <g id="xtick_5">
     <g id="line2d_5">
      <g>
       <use style="fill:#a9a9a9;stroke:#a9a9a9;stroke-width:2;" x="120.489796" xlink:href="#m87dccdd8ad" y="67.643624"/>
      </g>
     </g>
    </g>
   </g>
   <g id="matplotlib.axis_2"/>
   <g id="line2d_6">
    <path clip-path="url(#pca8d21d16c)" d="M 18 67.643624 
L 20.277551 67.643624 
L 22.555102 67.643624 
L 24.832653 67.643624 
L 27.110204 67.643624 
L 29.387755 67.643601 
L 31.665306 67.619184 
L 33.942857 67.45576 
L 36.220408 67.121467 
L 38.497959 66.279439 
L 40.77551 65.111581 
L 43.053061 63.440785 
L 45.330612 60.924944 
L 47.608163 58.242346 
L 49.885714 55.090873 
L 52.163265 51.004109 
L 54.440816 46.793352 
L 56.718367 41.829521 
L 58.995918 37.321548 
L 61.273469 32.612681 
L 63.55102 28.788503 
L 65.828571 24.58717 
L 68.106122 23.583769 
L 70.383673 22.268667 
L 72.661224 20.652559 
L 74.938776 24.347161 
L 77.216327 23.415727 
L 79.493878 25.406922 
L 81.771429 28.808178 
L 84.04898 33.553899 
L 86.326531 37.231155 
L 88.604082 40.653904 
L 90.881633 44.466099 
L 93.159184 48.862468 
L 95.436735 51.622268 
L 97.714286 55.18363 
L 99.991837 58.017556 
L 102.269388 60.831485 
L 104.546939 62.767393 
L 106.82449 64.407913 
L 109.102041 65.746812 
L 111.379592 66.712573 
L 113.657143 67.167695 
L 115.934694 67.503062 
L 118.212245 67.633848 
L 120.489796 67.643624 
L 122.767347 67.643624 
L 125.044898 67.643624 
L 127.322449 67.643624 
L 129.6 67.643624 
" style="fill:none;stroke:#fc8d62;stroke-linecap:square;stroke-width:2;"/>
   </g>
   <g id="line2d_7">
    <path clip-path="url(#pca8d21d16c)" d="M 18 67.643624 
L 20.277551 67.643624 
L 22.555102 67.643624 
L 24.832653 67.643624 
L 27.110204 67.643624 
L 29.387755 67.643586 
L 31.665306 67.630525 
L 33.942857 67.444079 
L 36.220408 67.098805 
L 38.497959 66.365278 
L 40.77551 65.253744 
L 43.053061 63.797483 
L 45.330612 61.76659 
L 47.608163 59.062474 
L 49.885714 56.288794 
L 52.163265 52.387465 
L 54.440816 48.653529 
L 56.718367 44.881968 
L 58.995918 40.217593 
L 61.273469 36.152172 
L 63.55102 32.341034 
L 65.828571 27.909319 
L 68.106122 25.278789 
L 70.383673 23.065571 
L 72.661224 21.810076 
L 74.938776 24.069597 
L 77.216327 21.450098 
L 79.493878 23.563202 
L 81.771429 26.369077 
L 84.04898 29.79804 
L 86.326531 32.344165 
L 88.604082 36.095488 
L 90.881633 41.384403 
L 93.159184 45.272109 
L 95.436735 49.648619 
L 97.714286 53.568165 
L 99.991837 56.465288 
L 102.269388 59.526679 
L 104.546939 62.123118 
L 106.82449 64.162519 
L 109.102041 65.50036 
L 111.379592 66.527359 
L 113.657143 67.187857 
L 115.934694 67.505998 
L 118.212245 67.632061 
L 120.489796 67.643624 
L 122.767347 67.643624 
L 125.044898 67.643624 
L 127.322449 67.643624 
L 129.6 67.643624 
" style="fill:none;stroke:#fc8d62;stroke-dasharray:1.5,1.5;stroke-dashoffset:0;stroke-opacity:0.7;stroke-width:1.5;"/>
   </g>
   <g id="patch_3">
    <path d="M 74.938776 67.68 
L 74.938776 17.28 
" style="fill:none;stroke:#a9a9a9;stroke-linecap:square;stroke-linejoin:miter;stroke-width:2;"/>
   </g>
   <g id="patch_4">
    <path d="M 129.6 67.68 
L 129.6 17.28 
" style="fill:none;"/>
   </g>
   <g id="patch_5">
    <path d="M 18 67.643624 
L 129.6 67.643624 
" style="fill:none;stroke:#a9a9a9;stroke-linecap:square;stroke-linejoin:miter;stroke-width:2;"/>
   </g>
   <g id="patch_6">
    <path d="M 18 17.28 
L 129.6 17.28 
" style="fill:none;"/>
   </g>
   <g id="legend_1">
    <g id="line2d_8">
     <path d="M 87.67 26.448906 
L 101.67 26.448906 
" style="fill:none;stroke:#fc8d62;stroke-linecap:square;stroke-width:2;"/>
    </g>
    <g id="line2d_9"/>
    <g id="text_1">
     <!-- $\theta$ -->
     <g transform="translate(107.27 28.898906)scale(0.07 -0.07)">
      <defs>
       <path d="M 45.515625 34.671875 
L 14.453125 34.671875 
Q 12.359375 20.0625 14.5 13.875 
Q 17.1875 6.25 24.46875 6.25 
Q 31.78125 6.25 37.359375 13.921875 
Q 42.234375 20.65625 45.515625 34.671875 
z
M 47.015625 42.96875 
Q 48.34375 56.84375 46.625 61.71875 
Q 43.953125 69.4375 36.765625 69.4375 
Q 29.296875 69.4375 23.828125 61.8125 
Q 19.53125 55.671875 16.15625 42.96875 
z
M 38.1875 76.765625 
Q 49.90625 76.765625 54.59375 66.40625 
Q 59.28125 56.109375 55.71875 37.84375 
Q 52.203125 19.625 43.453125 9.28125 
Q 34.765625 -1.125 23.046875 -1.125 
Q 11.28125 -1.125 6.640625 9.28125 
Q 2 19.625 5.515625 37.84375 
Q 9.078125 56.109375 17.71875 66.40625 
Q 26.421875 76.765625 38.1875 76.765625 
z
" id="DejaVuSans-Oblique-952"/>
      </defs>
      <use transform="translate(0 0.234375)" xlink:href="#DejaVuSans-Oblique-952"/>
     </g>
    </g>
    <g id="line2d_10">
     <path d="M 87.67 36.723594 
L 101.67 36.723594 
" style="fill:none;stroke:#fc8d62;stroke-dasharray:1.5,1.5;stroke-dashoffset:0;stroke-opacity:0.7;stroke-width:1.5;"/>
    </g>
    <g id="line2d_11"/>
    <g id="text_2">
     <!-- No $\theta$ -->
     <g transform="translate(107.27 39.173594)scale(0.07 -0.07)">
      <defs>
       <path d="M 9.8125 72.90625 
L 23.09375 72.90625 
L 55.421875 11.921875 
L 55.421875 72.90625 
L 64.984375 72.90625 
L 64.984375 0 
L 51.703125 0 
L 19.390625 60.984375 
L 19.390625 0 
L 9.8125 0 
z
" id="DejaVuSans-78"/>
       <path d="M 30.609375 48.390625 
Q 23.390625 48.390625 19.1875 42.75 
Q 14.984375 37.109375 14.984375 27.296875 
Q 14.984375 17.484375 19.15625 11.84375 
Q 23.34375 6.203125 30.609375 6.203125 
Q 37.796875 6.203125 41.984375 11.859375 
Q 46.1875 17.53125 46.1875 27.296875 
Q 46.1875 37.015625 41.984375 42.703125 
Q 37.796875 48.390625 30.609375 48.390625 
z
M 30.609375 56 
Q 42.328125 56 49.015625 48.375 
Q 55.71875 40.765625 55.71875 27.296875 
Q 55.71875 13.875 49.015625 6.21875 
Q 42.328125 -1.421875 30.609375 -1.421875 
Q 18.84375 -1.421875 12.171875 6.21875 
Q 5.515625 13.875 5.515625 27.296875 
Q 5.515625 40.765625 12.171875 48.375 
Q 18.84375 56 30.609375 56 
z
" id="DejaVuSans-111"/>
       <path id="DejaVuSans-32"/>
      </defs>
      <use transform="translate(0 0.234375)" xlink:href="#DejaVuSans-78"/>
      <use transform="translate(74.804688 0.234375)" xlink:href="#DejaVuSans-111"/>
      <use transform="translate(135.986328 0.234375)" xlink:href="#DejaVuSans-32"/>
      <use transform="translate(167.773438 0.234375)" xlink:href="#DejaVuSans-Oblique-952"/>
     </g>
    </g>
   </g>
  </g>
  <g id="axes_2">
   <g id="patch_7">
    <path d="M 18 128.16 
L 129.6 128.16 
L 129.6 77.76 
L 18 77.76 
z
" style="fill:none;"/>
   </g>
   <g id="PolyCollection_3">
    <path clip-path="url(#pbbd31ba812)" d="M 18 120.510625 
L 18 120.435092 
L 20.277551 120.651267 
L 22.555102 120.711687 
L 24.832653 120.625518 
L 27.110204 120.44171 
L 29.387755 120.238502 
L 31.665306 120.065619 
L 33.942857 119.781759 
L 36.220408 119.224574 
L 38.497959 118.266939 
L 40.77551 116.817575 
L 43.053061 114.824713 
L 45.330612 112.279847 
L 47.608163 109.214997 
L 49.885714 105.698284 
L 52.163265 101.830477 
L 54.440816 97.741251 
L 56.718367 93.585004 
L 58.995918 89.536303 
L 61.273469 85.784602 
L 63.55102 82.528797 
L 65.828571 79.971966 
L 68.106122 78.316506 
L 70.383673 77.76 
L 72.661224 78.491951 
L 74.938776 80.681303 
L 77.216327 84.419457 
L 79.493878 89.303681 
L 81.771429 94.885735 
L 84.04898 100.747123 
L 86.326531 106.523278 
L 88.604082 111.912679 
L 90.881633 116.681585 
L 93.159184 120.665378 
L 95.436735 123.767329 
L 97.714286 125.955998 
L 99.991837 127.259849 
L 102.269388 127.756398 
L 104.546939 127.559339 
L 106.82449 126.807495 
L 109.102041 125.655722 
L 111.379592 124.266773 
L 113.657143 122.804442 
L 115.934694 121.428364 
L 118.212245 120.292305 
L 120.489796 119.547284 
L 122.767347 119.290377 
L 125.044898 119.401923 
L 127.322449 119.718492 
L 129.6 120.099389 
L 129.6 120.20075 
L 129.6 120.20075 
L 127.322449 119.845267 
L 125.044898 119.548578 
L 122.767347 119.448882 
L 120.489796 119.711146 
L 118.212245 120.464533 
L 115.934694 121.625126 
L 113.657143 123.042313 
L 111.379592 124.552911 
L 109.102041 125.987352 
L 106.82449 127.175083 
L 104.546939 127.950392 
L 102.269388 128.16 
L 99.991837 127.672028 
L 97.714286 126.385603 
L 95.436735 124.238846 
L 93.159184 121.214062 
L 90.881633 117.343068 
L 88.604082 112.715456 
L 86.326531 107.485877 
L 84.04898 101.877555 
L 81.771429 96.181881 
L 79.493878 90.753701 
L 77.216327 86.0022 
L 74.938776 82.367004 
L 72.661224 80.243296 
L 70.383673 79.536979 
L 68.106122 80.078453 
L 65.828571 81.679463 
L 63.55102 84.145461 
L 61.273469 87.278733 
L 58.995918 90.882337 
L 56.718367 94.764678 
L 54.440816 98.744515 
L 52.163265 102.656012 
L 49.885714 106.353431 
L 47.608163 109.715487 
L 45.330612 112.648922 
L 43.053061 115.091746 
L 40.77551 117.015795 
L 38.497959 118.427039 
L 36.220408 119.365935 
L 33.942857 119.912241 
L 31.665306 120.187203 
L 29.387755 120.349617 
L 27.110204 120.536998 
L 24.832653 120.701426 
L 22.555102 120.771269 
L 20.277551 120.709426 
L 18 120.510625 
z
" style="fill:#66c2a5;fill-opacity:0.2;"/>
   </g>
   <g id="matplotlib.axis_3">
    <g id="xtick_6">
     <g id="line2d_12">
      <g>
       <use style="fill:#a9a9a9;stroke:#a9a9a9;stroke-width:2;" x="29.387755" xlink:href="#m87dccdd8ad" y="122.168323"/>
      </g>
     </g>
    </g>
    <g id="xtick_7">
     <g id="line2d_13">
      <g>
       <use style="fill:#a9a9a9;stroke:#a9a9a9;stroke-width:2;" x="52.163265" xlink:href="#m87dccdd8ad" y="122.168323"/>
      </g>
     </g>
    </g>
    <g id="xtick_8">
     <g id="line2d_14">
      <g>
       <use style="fill:#a9a9a9;stroke:#a9a9a9;stroke-width:2;" x="74.938776" xlink:href="#m87dccdd8ad" y="122.168323"/>
      </g>
     </g>
    </g>
    <g id="xtick_9">
     <g id="line2d_15">
      <g>
       <use style="fill:#a9a9a9;stroke:#a9a9a9;stroke-width:2;" x="97.714286" xlink:href="#m87dccdd8ad" y="122.168323"/>
      </g>
     </g>
    </g>
    <g id="xtick_10">
     <g id="line2d_16">
      <g>
       <use style="fill:#a9a9a9;stroke:#a9a9a9;stroke-width:2;" x="120.489796" xlink:href="#m87dccdd8ad" y="122.168323"/>
      </g>
     </g>
    </g>
   </g>
   <g id="matplotlib.axis_4"/>
   <g id="line2d_17">
    <path clip-path="url(#pbbd31ba812)" d="M 18 120.472858 
L 20.277551 120.680347 
L 22.555102 120.741478 
L 24.832653 120.663472 
L 27.110204 120.489354 
L 29.387755 120.294059 
L 31.665306 120.126411 
L 33.942857 119.847 
L 36.220408 119.295255 
L 38.497959 118.346989 
L 40.77551 116.916685 
L 43.053061 114.95823 
L 45.330612 112.464384 
L 47.608163 109.465242 
L 49.885714 106.025858 
L 52.163265 102.243244 
L 54.440816 98.242883 
L 56.718367 94.174841 
L 58.995918 90.20932 
L 61.273469 86.531667 
L 63.55102 83.337129 
L 65.828571 80.825715 
L 68.106122 79.197479 
L 70.383673 78.648489 
L 72.661224 79.367624 
L 74.938776 81.524154 
L 77.216327 85.210828 
L 79.493878 90.028691 
L 81.771429 95.533808 
L 84.04898 101.312339 
L 86.326531 107.004577 
L 88.604082 112.314067 
L 90.881633 117.012326 
L 93.159184 120.93972 
L 95.436735 124.003088 
L 97.714286 126.1708 
L 99.991837 127.465939 
L 102.269388 127.958199 
L 104.546939 127.754866 
L 106.82449 126.991289 
L 109.102041 125.821537 
L 111.379592 124.409842 
L 113.657143 122.923377 
L 115.934694 121.526745 
L 118.212245 120.378419 
L 120.489796 119.629215 
L 122.767347 119.36963 
L 125.044898 119.475251 
L 127.322449 119.78188 
L 129.6 120.15007 
" style="fill:none;stroke:#66c2a5;stroke-linecap:square;stroke-width:2;"/>
   </g>
   <g id="patch_8">
    <path d="M 74.938776 128.16 
L 74.938776 77.76 
" style="fill:none;stroke:#a9a9a9;stroke-linecap:square;stroke-linejoin:miter;stroke-width:2;"/>
   </g>
   <g id="patch_9">
    <path d="M 129.6 128.16 
L 129.6 77.76 
" style="fill:none;"/>
   </g>
   <g id="patch_10">
    <path d="M 18 122.168323 
L 129.6 122.168323 
" style="fill:none;stroke:#a9a9a9;stroke-linecap:square;stroke-linejoin:miter;stroke-width:2;"/>
   </g>
   <g id="patch_11">
    <path d="M 18 77.76 
L 129.6 77.76 
" style="fill:none;"/>
   </g>
  </g>
 </g>
 <defs>
  <clipPath id="pca8d21d16c">
   <rect height="50.4" width="111.6" x="18" y="17.28"/>
  </clipPath>
  <clipPath id="pbbd31ba812">
   <rect height="50.4" width="111.6" x="18" y="77.76"/>
  </clipPath>
 </defs>
</svg>
