<?xml version="1.0" encoding="utf-8" standalone="no"?>
<!DOCTYPE svg PUBLIC "-//W3C//DTD SVG 1.1//EN"
  "http://www.w3.org/Graphics/SVG/1.1/DTD/svg11.dtd">
<!-- Created with matplotlib (https://matplotlib.org/) -->
<svg height="144pt" version="1.1" viewBox="0 0 144 144" width="144pt" xmlns="http://www.w3.org/2000/svg" xmlns:xlink="http://www.w3.org/1999/xlink">
 <metadata>
  <rdf:RDF xmlns:cc="http://creativecommons.org/ns#" xmlns:dc="http://purl.org/dc/elements/1.1/" xmlns:rdf="http://www.w3.org/1999/02/22-rdf-syntax-ns#">
   <cc:Work>
    <dc:type rdf:resource="http://purl.org/dc/dcmitype/StillImage"/>
    <dc:date>2021-10-13T15:58:54.939643</dc:date>
    <dc:format>image/svg+xml</dc:format>
    <dc:creator>
     <cc:Agent>
      <dc:title>Matplotlib v3.3.2, https://matplotlib.org/</dc:title>
     </cc:Agent>
    </dc:creator>
   </cc:Work>
  </rdf:RDF>
 </metadata>
 <defs>
  <style type="text/css">*{stroke-linecap:butt;stroke-linejoin:round;}</style>
 </defs>
 <g id="figure_1">
  <g id="patch_1">
   <path d="M 0 144 
L 144 144 
L 144 0 
L 0 0 
z
" style="fill:none;"/>
  </g>
  <g id="axes_1">
   <g id="patch_2">
    <path d="M 18 67.68 
L 129.6 67.68 
L 129.6 17.28 
L 18 17.28 
z
" style="fill:none;"/>
   </g>
   <g id="PolyCollection_1">
    <path clip-path="url(#p9e25755672)" d="M 18 67.674991 
L 18 67.674991 
L 20.277551 67.674991 
L 22.555102 67.674991 
L 24.832653 67.674991 
L 27.110204 67.674991 
L 29.387755 67.67496 
L 31.665306 67.632196 
L 33.942857 67.434524 
L 36.220408 66.965287 
L 38.497959 66.137858 
L 40.77551 64.774258 
L 43.053061 62.926648 
L 45.330612 60.258109 
L 47.608163 56.924465 
L 49.885714 52.991597 
L 52.163265 48.503881 
L 54.440816 43.900501 
L 56.718367 38.753354 
L 58.995918 33.598654 
L 61.273469 28.896016 
L 63.55102 24.439491 
L 65.828571 21.170297 
L 68.106122 18.610345 
L 70.383673 17.28 
L 72.661224 17.374682 
L 74.938776 30.930436 
L 77.216327 21.456169 
L 79.493878 25.187301 
L 81.771429 29.161914 
L 84.04898 34.242296 
L 86.326531 38.416572 
L 88.604082 43.018637 
L 90.881633 47.150891 
L 93.159184 51.087332 
L 95.436735 54.524713 
L 97.714286 57.506389 
L 99.991837 59.91166 
L 102.269388 61.962176 
L 104.546939 63.684503 
L 106.82449 64.945651 
L 109.102041 66.021628 
L 111.379592 66.736148 
L 113.657143 67.245609 
L 115.934694 67.510812 
L 118.212245 67.650616 
L 120.489796 67.674968 
L 122.767347 67.674991 
L 125.044898 67.674991 
L 127.322449 67.674991 
L 129.6 67.674991 
L 129.6 67.674991 
L 129.6 67.674991 
L 127.322449 67.674991 
L 125.044898 67.674991 
L 122.767347 67.674991 
L 120.489796 67.675036 
L 118.212245 67.68 
L 115.934694 67.598703 
L 113.657143 67.401246 
L 111.379592 66.988763 
L 109.102041 66.324767 
L 106.82449 65.409326 
L 104.546939 64.176829 
L 102.269388 62.589949 
L 99.991837 60.62257 
L 97.714286 58.364975 
L 95.436735 55.584596 
L 93.159184 52.381729 
L 90.881633 48.736039 
L 88.604082 44.52609 
L 86.326531 40.33165 
L 84.04898 35.752932 
L 81.771429 31.179905 
L 79.493878 27.205172 
L 77.216327 23.670568 
L 74.938776 32.345546 
L 72.661224 19.708429 
L 70.383673 19.415769 
L 68.106122 20.827738 
L 65.828571 23.060794 
L 63.55102 26.554594 
L 61.273469 30.625495 
L 58.995918 35.402179 
L 56.718367 40.198321 
L 54.440816 45.112837 
L 52.163265 49.851334 
L 49.885714 54.1162 
L 47.608163 57.936228 
L 45.330612 60.947572 
L 43.053061 63.512032 
L 40.77551 65.228837 
L 38.497959 66.440405 
L 36.220408 67.159066 
L 33.942857 67.560956 
L 31.665306 67.66755 
L 29.387755 67.675011 
L 27.110204 67.674991 
L 24.832653 67.674991 
L 22.555102 67.674991 
L 20.277551 67.674991 
L 18 67.674991 
z
" style="fill:#fc8d62;fill-opacity:0.2;"/>
   </g>
   <g id="PolyCollection_2">
    <path clip-path="url(#p9e25755672)" d="M 18 67.674991 
L 18 67.674991 
L 20.277551 67.674991 
L 22.555102 67.674991 
L 24.832653 67.674991 
L 27.110204 67.674991 
L 29.387755 67.674983 
L 31.665306 67.622768 
L 33.942857 67.43849 
L 36.220408 66.996544 
L 38.497959 66.154011 
L 40.77551 64.88629 
L 43.053061 63.23285 
L 45.330612 60.994036 
L 47.608163 58.490132 
L 49.885714 55.25048 
L 52.163265 51.818952 
L 54.440816 48.01592 
L 56.718367 43.888653 
L 58.995918 39.670024 
L 61.273469 35.759772 
L 63.55102 31.961017 
L 65.828571 28.193747 
L 68.106122 25.198982 
L 70.383673 22.866039 
L 72.661224 21.680423 
L 74.938776 30.423078 
L 77.216327 21.70836 
L 79.493878 23.19004 
L 81.771429 25.661184 
L 84.04898 29.072054 
L 86.326531 32.422907 
L 88.604082 36.407535 
L 90.881633 40.48716 
L 93.159184 44.910981 
L 95.436735 48.68811 
L 97.714286 52.375913 
L 99.991837 55.733267 
L 102.269388 58.92826 
L 104.546939 61.498846 
L 106.82449 63.616417 
L 109.102041 65.232018 
L 111.379592 66.350978 
L 113.657143 67.079441 
L 115.934694 67.480062 
L 118.212245 67.644697 
L 120.489796 67.67498 
L 122.767347 67.674991 
L 125.044898 67.674991 
L 127.322449 67.674991 
L 129.6 67.674991 
L 129.6 67.674991 
L 129.6 67.674991 
L 127.322449 67.674991 
L 125.044898 67.674991 
L 122.767347 67.674991 
L 120.489796 67.675015 
L 118.212245 67.68036 
L 115.934694 67.593406 
L 113.657143 67.276202 
L 111.379592 66.6369 
L 109.102041 65.626714 
L 106.82449 64.16806 
L 104.546939 62.333289 
L 102.269388 59.776288 
L 99.991837 56.824876 
L 97.714286 53.594945 
L 95.436735 50.04138 
L 93.159184 46.247946 
L 90.881633 42.029905 
L 88.604082 37.869194 
L 86.326531 34.150424 
L 84.04898 30.75404 
L 81.771429 27.733929 
L 79.493878 25.33715 
L 77.216327 23.673284 
L 74.938776 32.29769 
L 72.661224 23.595309 
L 70.383673 24.732364 
L 68.106122 27.139565 
L 65.828571 30.141495 
L 63.55102 33.668371 
L 61.273469 37.492307 
L 58.995918 41.225717 
L 56.718367 45.289018 
L 54.440816 49.289253 
L 52.163265 52.92193 
L 49.885714 56.385306 
L 47.608163 59.275248 
L 45.330612 61.769788 
L 43.053061 63.755547 
L 40.77551 65.347836 
L 38.497959 66.481839 
L 36.220408 67.168665 
L 33.942857 67.535973 
L 31.665306 67.663788 
L 29.387755 67.674996 
L 27.110204 67.674991 
L 24.832653 67.674991 
L 22.555102 67.674991 
L 20.277551 67.674991 
L 18 67.674991 
z
" style="fill:#fc8d62;fill-opacity:0.2;"/>
   </g>
   <g id="matplotlib.axis_1">
    <g id="xtick_1">
     <g id="line2d_1">
      <defs>
       <path d="M 0 0 
L 0 3.5 
" id="md6efb87f7b" style="stroke:#a9a9a9;stroke-width:2;"/>
      </defs>
      <g>
       <use style="fill:#a9a9a9;stroke:#a9a9a9;stroke-width:2;" x="29.387755" xlink:href="#md6efb87f7b" y="67.674991"/>
      </g>
     </g>
    </g>
    <g id="xtick_2">
     <g id="line2d_2">
      <g>
       <use style="fill:#a9a9a9;stroke:#a9a9a9;stroke-width:2;" x="52.163265" xlink:href="#md6efb87f7b" y="67.674991"/>
      </g>
     </g>
    </g>
    <g id="xtick_3">
     <g id="line2d_3">
      <g>
       <use style="fill:#a9a9a9;stroke:#a9a9a9;stroke-width:2;" x="74.938776" xlink:href="#md6efb87f7b" y="67.674991"/>
      </g>
     </g>
    </g>
    <g id="xtick_4">
     <g id="line2d_4">
      <g>
       <use style="fill:#a9a9a9;stroke:#a9a9a9;stroke-width:2;" x="97.714286" xlink:href="#md6efb87f7b" y="67.674991"/>
      </g>
     </g>
    </g>
    <g id="xtick_5">
     <g id="line2d_5">
      <g>
       <use style="fill:#a9a9a9;stroke:#a9a9a9;stroke-width:2;" x="120.489796" xlink:href="#md6efb87f7b" y="67.674991"/>
      </g>
     </g>
    </g>
   </g>
   <g id="matplotlib.axis_2"/>
   <g id="line2d_6">
    <path clip-path="url(#p9e25755672)" d="M 18 67.674991 
L 20.277551 67.674991 
L 22.555102 67.674991 
L 24.832653 67.674991 
L 27.110204 67.674991 
L 29.387755 67.674985 
L 31.665306 67.649873 
L 33.942857 67.49774 
L 36.220408 67.062176 
L 38.497959 66.289131 
L 40.77551 65.001548 
L 43.053061 63.21934 
L 45.330612 60.602841 
L 47.608163 57.430347 
L 49.885714 53.553898 
L 52.163265 49.177608 
L 54.440816 44.506669 
L 56.718367 39.475838 
L 58.995918 34.500416 
L 61.273469 29.760755 
L 63.55102 25.497042 
L 65.828571 22.115546 
L 68.106122 19.719041 
L 70.383673 18.347885 
L 72.661224 18.541556 
L 74.938776 31.637991 
L 77.216327 22.563369 
L 79.493878 26.196237 
L 81.771429 30.17091 
L 84.04898 34.997614 
L 86.326531 39.374111 
L 88.604082 43.772364 
L 90.881633 47.943465 
L 93.159184 51.734531 
L 95.436735 55.054654 
L 97.714286 57.935682 
L 99.991837 60.267115 
L 102.269388 62.276063 
L 104.546939 63.930666 
L 106.82449 65.177488 
L 109.102041 66.173197 
L 111.379592 66.862455 
L 113.657143 67.323427 
L 115.934694 67.554757 
L 118.212245 67.665308 
L 120.489796 67.675002 
L 122.767347 67.674991 
L 125.044898 67.674991 
L 127.322449 67.674991 
L 129.6 67.674991 
" style="fill:none;stroke:#fc8d62;stroke-linecap:square;stroke-width:2;"/>
   </g>
   <g id="line2d_7">
    <path clip-path="url(#p9e25755672)" d="M 18 67.674991 
L 20.277551 67.674991 
L 22.555102 67.674991 
L 24.832653 67.674991 
L 27.110204 67.674991 
L 29.387755 67.67499 
L 31.665306 67.643278 
L 33.942857 67.487232 
L 36.220408 67.082605 
L 38.497959 66.317925 
L 40.77551 65.117063 
L 43.053061 63.494198 
L 45.330612 61.381912 
L 47.608163 58.88269 
L 49.885714 55.817893 
L 52.163265 52.370441 
L 54.440816 48.652586 
L 56.718367 44.588835 
L 58.995918 40.447871 
L 61.273469 36.626039 
L 63.55102 32.814694 
L 65.828571 29.167621 
L 68.106122 26.169274 
L 70.383673 23.799201 
L 72.661224 22.637866 
L 74.938776 31.360384 
L 77.216327 22.690822 
L 79.493878 24.263595 
L 81.771429 26.697556 
L 84.04898 29.913047 
L 86.326531 33.286666 
L 88.604082 37.138365 
L 90.881633 41.258533 
L 93.159184 45.579463 
L 95.436735 49.364745 
L 97.714286 52.985429 
L 99.991837 56.279072 
L 102.269388 59.352274 
L 104.546939 61.916068 
L 106.82449 63.892238 
L 109.102041 65.429366 
L 111.379592 66.493939 
L 113.657143 67.177822 
L 115.934694 67.536734 
L 118.212245 67.662528 
L 120.489796 67.674998 
L 122.767347 67.674991 
L 125.044898 67.674991 
L 127.322449 67.674991 
L 129.6 67.674991 
" style="fill:none;stroke:#fc8d62;stroke-dasharray:1.5,1.5;stroke-dashoffset:0;stroke-opacity:0.7;stroke-width:1.5;"/>
   </g>
   <g id="patch_3">
    <path d="M 74.938776 67.68 
L 74.938776 17.28 
" style="fill:none;stroke:#a9a9a9;stroke-linecap:square;stroke-linejoin:miter;stroke-width:2;"/>
   </g>
   <g id="patch_4">
    <path d="M 129.6 67.68 
L 129.6 17.28 
" style="fill:none;"/>
   </g>
   <g id="patch_5">
    <path d="M 18 67.674991 
L 129.6 67.674991 
" style="fill:none;stroke:#a9a9a9;stroke-linecap:square;stroke-linejoin:miter;stroke-width:2;"/>
   </g>
   <g id="patch_6">
    <path d="M 18 17.28 
L 129.6 17.28 
" style="fill:none;"/>
   </g>
   <g id="legend_1">
    <g id="line2d_8">
     <path d="M 87.67 26.448906 
L 101.67 26.448906 
" style="fill:none;stroke:#fc8d62;stroke-linecap:square;stroke-width:2;"/>
    </g>
    <g id="line2d_9"/>
    <g id="text_1">
     <!-- $\theta$ -->
     <g transform="translate(107.27 28.898906)scale(0.07 -0.07)">
      <defs>
       <path d="M 45.515625 34.671875 
L 14.453125 34.671875 
Q 12.359375 20.0625 14.5 13.875 
Q 17.1875 6.25 24.46875 6.25 
Q 31.78125 6.25 37.359375 13.921875 
Q 42.234375 20.65625 45.515625 34.671875 
z
M 47.015625 42.96875 
Q 48.34375 56.84375 46.625 61.71875 
Q 43.953125 69.4375 36.765625 69.4375 
Q 29.296875 69.4375 23.828125 61.8125 
Q 19.53125 55.671875 16.15625 42.96875 
z
M 38.1875 76.765625 
Q 49.90625 76.765625 54.59375 66.40625 
Q 59.28125 56.109375 55.71875 37.84375 
Q 52.203125 19.625 43.453125 9.28125 
Q 34.765625 -1.125 23.046875 -1.125 
Q 11.28125 -1.125 6.640625 9.28125 
Q 2 19.625 5.515625 37.84375 
Q 9.078125 56.109375 17.71875 66.40625 
Q 26.421875 76.765625 38.1875 76.765625 
z
" id="DejaVuSans-Oblique-952"/>
      </defs>
      <use transform="translate(0 0.234375)" xlink:href="#DejaVuSans-Oblique-952"/>
     </g>
    </g>
    <g id="line2d_10">
     <path d="M 87.67 36.723594 
L 101.67 36.723594 
" style="fill:none;stroke:#fc8d62;stroke-dasharray:1.5,1.5;stroke-dashoffset:0;stroke-opacity:0.7;stroke-width:1.5;"/>
    </g>
    <g id="line2d_11"/>
    <g id="text_2">
     <!-- No $\theta$ -->
     <g transform="translate(107.27 39.173594)scale(0.07 -0.07)">
      <defs>
       <path d="M 9.8125 72.90625 
L 23.09375 72.90625 
L 55.421875 11.921875 
L 55.421875 72.90625 
L 64.984375 72.90625 
L 64.984375 0 
L 51.703125 0 
L 19.390625 60.984375 
L 19.390625 0 
L 9.8125 0 
z
" id="DejaVuSans-78"/>
       <path d="M 30.609375 48.390625 
Q 23.390625 48.390625 19.1875 42.75 
Q 14.984375 37.109375 14.984375 27.296875 
Q 14.984375 17.484375 19.15625 11.84375 
Q 23.34375 6.203125 30.609375 6.203125 
Q 37.796875 6.203125 41.984375 11.859375 
Q 46.1875 17.53125 46.1875 27.296875 
Q 46.1875 37.015625 41.984375 42.703125 
Q 37.796875 48.390625 30.609375 48.390625 
z
M 30.609375 56 
Q 42.328125 56 49.015625 48.375 
Q 55.71875 40.765625 55.71875 27.296875 
Q 55.71875 13.875 49.015625 6.21875 
Q 42.328125 -1.421875 30.609375 -1.421875 
Q 18.84375 -1.421875 12.171875 6.21875 
Q 5.515625 13.875 5.515625 27.296875 
Q 5.515625 40.765625 12.171875 48.375 
Q 18.84375 56 30.609375 56 
z
" id="DejaVuSans-111"/>
       <path id="DejaVuSans-32"/>
      </defs>
      <use transform="translate(0 0.234375)" xlink:href="#DejaVuSans-78"/>
      <use transform="translate(74.804688 0.234375)" xlink:href="#DejaVuSans-111"/>
      <use transform="translate(135.986328 0.234375)" xlink:href="#DejaVuSans-32"/>
      <use transform="translate(167.773438 0.234375)" xlink:href="#DejaVuSans-Oblique-952"/>
     </g>
    </g>
   </g>
  </g>
  <g id="axes_2">
   <g id="patch_7">
    <path d="M 18 128.16 
L 129.6 128.16 
L 129.6 77.76 
L 18 77.76 
z
" style="fill:none;"/>
   </g>
   <g id="PolyCollection_3">
    <path clip-path="url(#p7ba26c6f28)" d="M 18 120.498362 
L 18 120.419477 
L 20.277551 120.636364 
L 22.555102 120.699061 
L 24.832653 120.615607 
L 27.110204 120.433986 
L 29.387755 120.232283 
L 31.665306 120.059904 
L 33.942857 119.776231 
L 36.220408 119.219157 
L 38.497959 118.261316 
L 40.77551 116.8112 
L 43.053061 114.817579 
L 45.330612 112.272341 
L 47.608163 109.20756 
L 49.885714 105.691277 
L 52.163265 101.824195 
L 54.440816 97.735895 
L 56.718367 93.58066 
L 58.995918 89.53296 
L 61.273469 85.782219 
L 63.55102 82.527292 
L 65.828571 79.971198 
L 68.106122 78.316269 
L 70.383673 77.76 
L 72.661224 78.491778 
L 74.938776 80.680559 
L 77.216327 84.416956 
L 79.493878 89.29934 
L 81.771429 94.879695 
L 84.04898 100.739792 
L 86.326531 106.515159 
L 88.604082 111.904192 
L 90.881633 116.67303 
L 93.159184 120.656884 
L 95.436735 123.758684 
L 97.714286 125.946804 
L 99.991837 127.249716 
L 102.269388 127.745033 
L 104.546939 127.54664 
L 106.82449 126.793658 
L 109.102041 125.641109 
L 111.379592 124.251893 
L 113.657143 122.789902 
L 115.934694 121.41476 
L 118.212245 120.279797 
L 120.489796 119.535197 
L 122.767347 119.277851 
L 125.044898 119.388399 
L 127.322449 119.703939 
L 129.6 120.084058 
L 129.6 120.187154 
L 129.6 120.187154 
L 127.322449 119.830744 
L 125.044898 119.533694 
L 122.767347 119.434243 
L 120.489796 119.697501 
L 118.212245 120.452436 
L 115.934694 121.615178 
L 113.657143 123.034459 
L 111.379592 124.546798 
L 109.102041 125.982707 
L 106.82449 127.171805 
L 104.546939 127.948588 
L 102.269388 128.16 
L 99.991837 127.67452 
L 97.714286 126.391522 
L 95.436735 124.249273 
L 93.159184 121.230109 
L 90.881633 117.365658 
L 88.604082 112.745104 
L 86.326531 107.522783 
L 84.04898 101.92155 
L 81.771429 96.232331 
L 79.493878 90.809524 
L 77.216327 86.061874 
L 74.938776 82.428668 
L 72.661224 80.304366 
L 70.383673 79.595594 
L 68.106122 80.133076 
L 65.828571 81.728996 
L 63.55102 84.189206 
L 61.273469 87.31635 
L 58.995918 90.913796 
L 56.718367 94.790212 
L 54.440816 98.764572 
L 52.163265 102.671122 
L 49.885714 106.364139 
L 47.608163 109.722301 
L 45.330612 112.652301 
L 43.053061 115.092029 
L 40.77551 117.013287 
L 38.497959 118.422304 
L 36.220408 119.359894 
L 33.942857 119.905345 
L 31.665306 120.179371 
L 29.387755 120.340666 
L 27.110204 120.527075 
L 24.832653 120.690788 
L 22.555102 120.760445 
L 20.277551 120.698339 
L 18 120.498362 
z
" style="fill:#66c2a5;fill-opacity:0.2;"/>
   </g>
   <g id="matplotlib.axis_3">
    <g id="xtick_6">
     <g id="line2d_12">
      <g>
       <use style="fill:#a9a9a9;stroke:#a9a9a9;stroke-width:2;" x="29.387755" xlink:href="#md6efb87f7b" y="122.15627"/>
      </g>
     </g>
    </g>
    <g id="xtick_7">
     <g id="line2d_13">
      <g>
       <use style="fill:#a9a9a9;stroke:#a9a9a9;stroke-width:2;" x="52.163265" xlink:href="#md6efb87f7b" y="122.15627"/>
      </g>
     </g>
    </g>
    <g id="xtick_8">
     <g id="line2d_14">
      <g>
       <use style="fill:#a9a9a9;stroke:#a9a9a9;stroke-width:2;" x="74.938776" xlink:href="#md6efb87f7b" y="122.15627"/>
      </g>
     </g>
    </g>
    <g id="xtick_9">
     <g id="line2d_15">
      <g>
       <use style="fill:#a9a9a9;stroke:#a9a9a9;stroke-width:2;" x="97.714286" xlink:href="#md6efb87f7b" y="122.15627"/>
      </g>
     </g>
    </g>
    <g id="xtick_10">
     <g id="line2d_16">
      <g>
       <use style="fill:#a9a9a9;stroke:#a9a9a9;stroke-width:2;" x="120.489796" xlink:href="#md6efb87f7b" y="122.15627"/>
      </g>
     </g>
    </g>
   </g>
   <g id="matplotlib.axis_4"/>
   <g id="line2d_17">
    <path clip-path="url(#p7ba26c6f28)" d="M 18 120.45892 
L 20.277551 120.667351 
L 22.555102 120.729753 
L 24.832653 120.653198 
L 27.110204 120.48053 
L 29.387755 120.286474 
L 31.665306 120.119637 
L 33.942857 119.840788 
L 36.220408 119.289525 
L 38.497959 118.34181 
L 40.77551 116.912244 
L 43.053061 114.954804 
L 45.330612 112.462321 
L 47.608163 109.46493 
L 49.885714 106.027708 
L 52.163265 102.247659 
L 54.440816 98.250233 
L 56.718367 94.185436 
L 58.995918 90.223378 
L 61.273469 86.549284 
L 63.55102 83.358249 
L 65.828571 80.850097 
L 68.106122 79.224673 
L 70.383673 78.677797 
L 72.661224 79.398072 
L 74.938776 81.554614 
L 77.216327 85.239415 
L 79.493878 90.054432 
L 81.771429 95.556013 
L 84.04898 101.330671 
L 86.326531 107.018971 
L 88.604082 112.324648 
L 90.881633 117.019344 
L 93.159184 120.943497 
L 95.436735 124.003978 
L 97.714286 126.169163 
L 99.991837 127.462118 
L 102.269388 127.952517 
L 104.546939 127.747614 
L 106.82449 126.982732 
L 109.102041 125.811908 
L 111.379592 124.399345 
L 113.657143 122.912181 
L 115.934694 121.514969 
L 118.212245 120.366116 
L 120.489796 119.616349 
L 122.767347 119.356047 
L 125.044898 119.461046 
L 127.322449 119.767342 
L 129.6 120.135606 
" style="fill:none;stroke:#66c2a5;stroke-linecap:square;stroke-width:2;"/>
   </g>
   <g id="patch_8">
    <path d="M 74.938776 128.16 
L 74.938776 77.76 
" style="fill:none;stroke:#a9a9a9;stroke-linecap:square;stroke-linejoin:miter;stroke-width:2;"/>
   </g>
   <g id="patch_9">
    <path d="M 129.6 128.16 
L 129.6 77.76 
" style="fill:none;"/>
   </g>
   <g id="patch_10">
    <path d="M 18 122.15627 
L 129.6 122.15627 
" style="fill:none;stroke:#a9a9a9;stroke-linecap:square;stroke-linejoin:miter;stroke-width:2;"/>
   </g>
   <g id="patch_11">
    <path d="M 18 77.76 
L 129.6 77.76 
" style="fill:none;"/>
   </g>
  </g>
 </g>
 <defs>
  <clipPath id="p9e25755672">
   <rect height="50.4" width="111.6" x="18" y="17.28"/>
  </clipPath>
  <clipPath id="p7ba26c6f28">
   <rect height="50.4" width="111.6" x="18" y="77.76"/>
  </clipPath>
 </defs>
</svg>
