<?xml version="1.0" encoding="utf-8" standalone="no"?>
<!DOCTYPE svg PUBLIC "-//W3C//DTD SVG 1.1//EN"
  "http://www.w3.org/Graphics/SVG/1.1/DTD/svg11.dtd">
<!-- Created with matplotlib (https://matplotlib.org/) -->
<svg height="144pt" version="1.1" viewBox="0 0 144 144" width="144pt" xmlns="http://www.w3.org/2000/svg" xmlns:xlink="http://www.w3.org/1999/xlink">
 <metadata>
  <rdf:RDF xmlns:cc="http://creativecommons.org/ns#" xmlns:dc="http://purl.org/dc/elements/1.1/" xmlns:rdf="http://www.w3.org/1999/02/22-rdf-syntax-ns#">
   <cc:Work>
    <dc:type rdf:resource="http://purl.org/dc/dcmitype/StillImage"/>
    <dc:date>2021-10-11T19:12:29.088373</dc:date>
    <dc:format>image/svg+xml</dc:format>
    <dc:creator>
     <cc:Agent>
      <dc:title>Matplotlib v3.3.2, https://matplotlib.org/</dc:title>
     </cc:Agent>
    </dc:creator>
   </cc:Work>
  </rdf:RDF>
 </metadata>
 <defs>
  <style type="text/css">*{stroke-linecap:butt;stroke-linejoin:round;}</style>
 </defs>
 <g id="figure_1">
  <g id="patch_1">
   <path d="M 0 144 
L 144 144 
L 144 0 
L 0 0 
z
" style="fill:none;"/>
  </g>
  <g id="axes_1">
   <g id="patch_2">
    <path d="M 18 67.68 
L 129.6 67.68 
L 129.6 17.28 
L 18 17.28 
z
" style="fill:none;"/>
   </g>
   <g id="PolyCollection_1">
    <path clip-path="url(#p0e38f3d72b)" d="M 18 42.48 
L 18 42.48 
L 20.277551 42.48 
L 22.555102 42.48 
L 24.832653 42.48 
L 27.110204 42.48 
L 29.387755 42.48 
L 31.665306 42.43127 
L 33.942857 42.455694 
L 36.220408 42.553058 
L 38.497959 42.682993 
L 40.77551 42.721685 
L 43.053061 42.583815 
L 45.330612 42.343403 
L 47.608163 41.459804 
L 49.885714 40.111406 
L 52.163265 38.13121 
L 54.440816 35.182815 
L 56.718367 31.376781 
L 58.995918 26.599562 
L 61.273469 22.944409 
L 63.55102 19.241386 
L 65.828571 17.28 
L 68.106122 19.08167 
L 70.383673 23.057864 
L 72.661224 31.460123 
L 74.938776 42.438361 
L 77.216327 48.102084 
L 79.493878 56.43003 
L 81.771429 61.016847 
L 84.04898 62.323321 
L 86.326531 62.093755 
L 88.604082 58.951714 
L 90.881633 55.474125 
L 93.159184 51.279194 
L 95.436735 47.879545 
L 97.714286 45.205856 
L 99.991837 43.496648 
L 102.269388 42.474713 
L 104.546939 41.782909 
L 106.82449 41.61332 
L 109.102041 41.666023 
L 111.379592 41.793633 
L 113.657143 42.034243 
L 115.934694 42.267768 
L 118.212245 42.398638 
L 120.489796 42.48 
L 122.767347 42.48 
L 125.044898 42.48 
L 127.322449 42.48 
L 129.6 42.48 
L 129.6 42.48 
L 129.6 42.48 
L 127.322449 42.48 
L 125.044898 42.48 
L 122.767347 42.48 
L 120.489796 42.48 
L 118.212245 42.52873 
L 115.934694 42.504306 
L 113.657143 42.406942 
L 111.379592 42.277007 
L 109.102041 42.238315 
L 106.82449 42.376185 
L 104.546939 42.616597 
L 102.269388 43.500196 
L 99.991837 44.848594 
L 97.714286 46.82879 
L 95.436735 49.777185 
L 93.159184 53.583219 
L 90.881633 58.360438 
L 88.604082 62.015591 
L 86.326531 65.718614 
L 84.04898 67.68 
L 81.771429 65.87833 
L 79.493878 61.902136 
L 77.216327 53.499877 
L 74.938776 42.438361 
L 72.661224 36.857916 
L 70.383673 28.52997 
L 68.106122 23.943153 
L 65.828571 22.636679 
L 63.55102 22.866245 
L 61.273469 26.008286 
L 58.995918 29.485875 
L 56.718367 33.680806 
L 54.440816 37.080455 
L 52.163265 39.754144 
L 49.885714 41.463352 
L 47.608163 42.485287 
L 45.330612 43.177091 
L 43.053061 43.34668 
L 40.77551 43.293977 
L 38.497959 43.166367 
L 36.220408 42.925757 
L 33.942857 42.692232 
L 31.665306 42.561362 
L 29.387755 42.48 
L 27.110204 42.48 
L 24.832653 42.48 
L 22.555102 42.48 
L 20.277551 42.48 
L 18 42.48 
z
" style="fill:#fc8d62;fill-opacity:0.2;"/>
   </g>
   <g id="PolyCollection_2">
    <path clip-path="url(#p0e38f3d72b)" d="M 18 42.48 
L 18 42.48 
L 20.277551 42.48 
L 22.555102 42.48 
L 24.832653 42.48 
L 27.110204 42.48 
L 29.387755 42.48 
L 31.665306 42.408553 
L 33.942857 42.349846 
L 36.220408 42.203677 
L 38.497959 42.122513 
L 40.77551 41.874893 
L 43.053061 41.569248 
L 45.330612 41.449622 
L 47.608163 41.009424 
L 49.885714 41.199809 
L 52.163265 41.11401 
L 54.440816 40.980504 
L 56.718367 40.753653 
L 58.995918 40.748312 
L 61.273469 40.449856 
L 63.55102 40.047955 
L 65.828571 40.919288 
L 68.106122 40.231436 
L 70.383673 40.261645 
L 72.661224 39.345577 
L 74.938776 42.438361 
L 77.216327 40.164921 
L 79.493878 40.043159 
L 81.771429 40.280608 
L 84.04898 40.656534 
L 86.326531 41.048164 
L 88.604082 40.533325 
L 90.881633 40.719719 
L 93.159184 40.964584 
L 95.436735 40.940051 
L 97.714286 41.185193 
L 99.991837 41.43178 
L 102.269388 41.629847 
L 104.546939 41.652133 
L 106.82449 41.979955 
L 109.102041 41.924583 
L 111.379592 42.07401 
L 113.657143 42.226656 
L 115.934694 42.352424 
L 118.212245 42.418742 
L 120.489796 42.48 
L 122.767347 42.48 
L 125.044898 42.48 
L 127.322449 42.48 
L 129.6 42.48 
L 129.6 42.48 
L 129.6 42.48 
L 127.322449 42.48 
L 125.044898 42.48 
L 122.767347 42.48 
L 120.489796 42.48 
L 118.212245 42.551447 
L 115.934694 42.610154 
L 113.657143 42.756323 
L 111.379592 42.837487 
L 109.102041 43.085107 
L 106.82449 43.390752 
L 104.546939 43.510378 
L 102.269388 43.950576 
L 99.991837 43.760191 
L 97.714286 43.84599 
L 95.436735 43.979496 
L 93.159184 44.206347 
L 90.881633 44.211688 
L 88.604082 44.510144 
L 86.326531 44.912045 
L 84.04898 44.040712 
L 81.771429 44.728564 
L 79.493878 44.698355 
L 77.216327 45.614423 
L 74.938776 42.438361 
L 72.661224 44.795079 
L 70.383673 44.916841 
L 68.106122 44.679392 
L 65.828571 44.303466 
L 63.55102 43.911836 
L 61.273469 44.426675 
L 58.995918 44.240281 
L 56.718367 43.995416 
L 54.440816 44.019949 
L 52.163265 43.774807 
L 49.885714 43.52822 
L 47.608163 43.330153 
L 45.330612 43.307867 
L 43.053061 42.980045 
L 40.77551 43.035417 
L 38.497959 42.88599 
L 36.220408 42.733344 
L 33.942857 42.607576 
L 31.665306 42.541258 
L 29.387755 42.48 
L 27.110204 42.48 
L 24.832653 42.48 
L 22.555102 42.48 
L 20.277551 42.48 
L 18 42.48 
z
" style="fill:#fc8d62;fill-opacity:0.2;"/>
   </g>
   <g id="matplotlib.axis_1">
    <g id="xtick_1">
     <g id="line2d_1">
      <defs>
       <path d="M 0 0 
L 0 3.5 
" id="mb033129e6e" style="stroke:#a9a9a9;stroke-width:2;"/>
      </defs>
      <g>
       <use style="fill:#a9a9a9;stroke:#a9a9a9;stroke-width:2;" x="29.387755" xlink:href="#mb033129e6e" y="42.48"/>
      </g>
     </g>
    </g>
    <g id="xtick_2">
     <g id="line2d_2">
      <g>
       <use style="fill:#a9a9a9;stroke:#a9a9a9;stroke-width:2;" x="52.163265" xlink:href="#mb033129e6e" y="42.48"/>
      </g>
     </g>
    </g>
    <g id="xtick_3">
     <g id="line2d_3">
      <g>
       <use style="fill:#a9a9a9;stroke:#a9a9a9;stroke-width:2;" x="74.938776" xlink:href="#mb033129e6e" y="42.48"/>
      </g>
     </g>
    </g>
    <g id="xtick_4">
     <g id="line2d_4">
      <g>
       <use style="fill:#a9a9a9;stroke:#a9a9a9;stroke-width:2;" x="97.714286" xlink:href="#mb033129e6e" y="42.48"/>
      </g>
     </g>
    </g>
    <g id="xtick_5">
     <g id="line2d_5">
      <g>
       <use style="fill:#a9a9a9;stroke:#a9a9a9;stroke-width:2;" x="120.489796" xlink:href="#mb033129e6e" y="42.48"/>
      </g>
     </g>
    </g>
   </g>
   <g id="matplotlib.axis_2"/>
   <g id="line2d_6">
    <path clip-path="url(#p0e38f3d72b)" d="M 18 42.48 
L 20.277551 42.48 
L 22.555102 42.48 
L 24.832653 42.48 
L 27.110204 42.48 
L 29.387755 42.48 
L 31.665306 42.496316 
L 33.942857 42.573963 
L 36.220408 42.739407 
L 38.497959 42.92468 
L 40.77551 43.007831 
L 43.053061 42.965247 
L 45.330612 42.760247 
L 47.608163 41.972546 
L 49.885714 40.787379 
L 52.163265 38.942677 
L 54.440816 36.131635 
L 56.718367 32.528793 
L 58.995918 28.042718 
L 61.273469 24.476348 
L 63.55102 21.053815 
L 65.828571 19.95834 
L 68.106122 21.512412 
L 70.383673 25.793917 
L 72.661224 34.159019 
L 74.938776 42.438361 
L 77.216327 50.800981 
L 79.493878 59.166083 
L 81.771429 63.447588 
L 84.04898 65.00166 
L 86.326531 63.906185 
L 88.604082 60.483652 
L 90.881633 56.917282 
L 93.159184 52.431207 
L 95.436735 48.828365 
L 97.714286 46.017323 
L 99.991837 44.172621 
L 102.269388 42.987454 
L 104.546939 42.199753 
L 106.82449 41.994753 
L 109.102041 41.952169 
L 111.379592 42.03532 
L 113.657143 42.220593 
L 115.934694 42.386037 
L 118.212245 42.463684 
L 120.489796 42.48 
L 122.767347 42.48 
L 125.044898 42.48 
L 127.322449 42.48 
L 129.6 42.48 
" style="fill:none;stroke:#fc8d62;stroke-linecap:square;stroke-width:2;"/>
   </g>
   <g id="line2d_7">
    <path clip-path="url(#p0e38f3d72b)" d="M 18 42.48 
L 20.277551 42.48 
L 22.555102 42.48 
L 24.832653 42.48 
L 27.110204 42.48 
L 29.387755 42.48 
L 31.665306 42.474906 
L 33.942857 42.478711 
L 36.220408 42.468511 
L 38.497959 42.504251 
L 40.77551 42.455155 
L 43.053061 42.274646 
L 45.330612 42.378745 
L 47.608163 42.169789 
L 49.885714 42.364014 
L 52.163265 42.444409 
L 54.440816 42.500226 
L 56.718367 42.374535 
L 58.995918 42.494296 
L 61.273469 42.438265 
L 63.55102 41.979896 
L 65.828571 42.611377 
L 68.106122 42.455414 
L 70.383673 42.589243 
L 72.661224 42.070328 
L 74.938776 42.438361 
L 77.216327 42.889672 
L 79.493878 42.370757 
L 81.771429 42.504586 
L 84.04898 42.348623 
L 86.326531 42.980104 
L 88.604082 42.521735 
L 90.881633 42.465704 
L 93.159184 42.585465 
L 95.436735 42.459774 
L 97.714286 42.515591 
L 99.991837 42.595986 
L 102.269388 42.790211 
L 104.546939 42.581255 
L 106.82449 42.685354 
L 109.102041 42.504845 
L 111.379592 42.455749 
L 113.657143 42.491489 
L 115.934694 42.481289 
L 118.212245 42.485094 
L 120.489796 42.48 
L 122.767347 42.48 
L 125.044898 42.48 
L 127.322449 42.48 
L 129.6 42.48 
" style="fill:none;stroke:#fc8d62;stroke-dasharray:1.5,1.5;stroke-dashoffset:0;stroke-opacity:0.7;stroke-width:1.5;"/>
   </g>
   <g id="patch_3">
    <path d="M 74.938776 67.68 
L 74.938776 17.28 
" style="fill:none;stroke:#a9a9a9;stroke-linecap:square;stroke-linejoin:miter;stroke-width:2;"/>
   </g>
   <g id="patch_4">
    <path d="M 129.6 67.68 
L 129.6 17.28 
" style="fill:none;"/>
   </g>
   <g id="patch_5">
    <path d="M 18 42.48 
L 129.6 42.48 
" style="fill:none;stroke:#a9a9a9;stroke-linecap:square;stroke-linejoin:miter;stroke-width:2;"/>
   </g>
   <g id="patch_6">
    <path d="M 18 17.28 
L 129.6 17.28 
" style="fill:none;"/>
   </g>
   <g id="legend_1">
    <g id="line2d_8">
     <path d="M 55.985 36.824219 
L 69.985 36.824219 
" style="fill:none;stroke:#fc8d62;stroke-linecap:square;stroke-width:2;"/>
    </g>
    <g id="line2d_9"/>
    <g id="text_1">
     <!-- $\theta$ -->
     <g transform="translate(75.585 39.274219)scale(0.07 -0.07)">
      <defs>
       <path d="M 45.515625 34.671875 
L 14.453125 34.671875 
Q 12.359375 20.0625 14.5 13.875 
Q 17.1875 6.25 24.46875 6.25 
Q 31.78125 6.25 37.359375 13.921875 
Q 42.234375 20.65625 45.515625 34.671875 
z
M 47.015625 42.96875 
Q 48.34375 56.84375 46.625 61.71875 
Q 43.953125 69.4375 36.765625 69.4375 
Q 29.296875 69.4375 23.828125 61.8125 
Q 19.53125 55.671875 16.15625 42.96875 
z
M 38.1875 76.765625 
Q 49.90625 76.765625 54.59375 66.40625 
Q 59.28125 56.109375 55.71875 37.84375 
Q 52.203125 19.625 43.453125 9.28125 
Q 34.765625 -1.125 23.046875 -1.125 
Q 11.28125 -1.125 6.640625 9.28125 
Q 2 19.625 5.515625 37.84375 
Q 9.078125 56.109375 17.71875 66.40625 
Q 26.421875 76.765625 38.1875 76.765625 
z
" id="DejaVuSans-Oblique-952"/>
      </defs>
      <use transform="translate(0 0.234375)" xlink:href="#DejaVuSans-Oblique-952"/>
     </g>
    </g>
    <g id="line2d_10">
     <path d="M 55.985 47.098906 
L 69.985 47.098906 
" style="fill:none;stroke:#fc8d62;stroke-dasharray:1.5,1.5;stroke-dashoffset:0;stroke-opacity:0.7;stroke-width:1.5;"/>
    </g>
    <g id="line2d_11"/>
    <g id="text_2">
     <!-- No $\theta$ -->
     <g transform="translate(75.585 49.548906)scale(0.07 -0.07)">
      <defs>
       <path d="M 9.8125 72.90625 
L 23.09375 72.90625 
L 55.421875 11.921875 
L 55.421875 72.90625 
L 64.984375 72.90625 
L 64.984375 0 
L 51.703125 0 
L 19.390625 60.984375 
L 19.390625 0 
L 9.8125 0 
z
" id="DejaVuSans-78"/>
       <path d="M 30.609375 48.390625 
Q 23.390625 48.390625 19.1875 42.75 
Q 14.984375 37.109375 14.984375 27.296875 
Q 14.984375 17.484375 19.15625 11.84375 
Q 23.34375 6.203125 30.609375 6.203125 
Q 37.796875 6.203125 41.984375 11.859375 
Q 46.1875 17.53125 46.1875 27.296875 
Q 46.1875 37.015625 41.984375 42.703125 
Q 37.796875 48.390625 30.609375 48.390625 
z
M 30.609375 56 
Q 42.328125 56 49.015625 48.375 
Q 55.71875 40.765625 55.71875 27.296875 
Q 55.71875 13.875 49.015625 6.21875 
Q 42.328125 -1.421875 30.609375 -1.421875 
Q 18.84375 -1.421875 12.171875 6.21875 
Q 5.515625 13.875 5.515625 27.296875 
Q 5.515625 40.765625 12.171875 48.375 
Q 18.84375 56 30.609375 56 
z
" id="DejaVuSans-111"/>
       <path id="DejaVuSans-32"/>
      </defs>
      <use transform="translate(0 0.234375)" xlink:href="#DejaVuSans-78"/>
      <use transform="translate(74.804688 0.234375)" xlink:href="#DejaVuSans-111"/>
      <use transform="translate(135.986328 0.234375)" xlink:href="#DejaVuSans-32"/>
      <use transform="translate(167.773438 0.234375)" xlink:href="#DejaVuSans-Oblique-952"/>
     </g>
    </g>
   </g>
  </g>
  <g id="axes_2">
   <g id="patch_7">
    <path d="M 18 128.16 
L 129.6 128.16 
L 129.6 77.76 
L 18 77.76 
z
" style="fill:none;"/>
   </g>
   <g id="PolyCollection_3">
    <path clip-path="url(#p15e09818a4)" d="M 18 120.531793 
L 18 120.451461 
L 20.277551 120.667748 
L 22.555102 120.730065 
L 24.832653 120.646132 
L 27.110204 120.464211 
L 29.387755 120.262514 
L 31.665306 120.090301 
L 33.942857 119.806722 
L 36.220408 119.249599 
L 38.497959 118.291383 
L 40.77551 116.840545 
L 43.053061 114.846141 
L 45.330612 112.300006 
L 47.608163 109.234046 
L 49.885714 105.716382 
L 52.163265 101.847698 
L 54.440816 97.757508 
L 56.718367 93.600155 
L 58.995918 89.550135 
L 61.273469 85.796791 
L 63.55102 82.538936 
L 65.828571 79.979517 
L 68.106122 78.320755 
L 70.383673 77.76 
L 72.661224 78.486468 
L 74.938776 80.668951 
L 77.216327 84.397503 
L 79.493878 89.271671 
L 81.771429 94.844177 
L 84.04898 100.697443 
L 86.326531 106.46749 
L 88.604082 111.853167 
L 90.881633 116.621 
L 93.159184 120.606417 
L 95.436735 123.712774 
L 97.714286 125.908343 
L 99.991837 127.220569 
L 102.269388 127.725968 
L 104.546939 127.537732 
L 106.82449 126.794473 
L 109.102041 125.650926 
L 111.379592 124.269728 
L 113.657143 122.814421 
L 115.934694 121.444346 
L 118.212245 120.312776 
L 120.489796 119.570136 
L 122.767347 119.313263 
L 125.044898 119.423423 
L 127.322449 119.738041 
L 129.6 120.117037 
L 129.6 120.222873 
L 129.6 120.222873 
L 127.322449 119.86857 
L 125.044898 119.573187 
L 122.767347 119.474582 
L 120.489796 119.737389 
L 118.212245 120.490444 
L 115.934694 121.649829 
L 113.657143 123.064684 
L 111.379592 124.571764 
L 109.102041 126.001723 
L 106.82449 127.184387 
L 104.546939 127.954669 
L 102.269388 128.16 
L 99.991837 127.669179 
L 97.714286 126.381733 
L 95.436735 124.235637 
L 93.159184 121.212914 
L 90.881633 117.345647 
L 88.604082 112.723804 
L 86.326531 107.502039 
L 84.04898 101.903399 
L 81.771429 96.218762 
L 79.493878 90.802192 
L 77.216327 86.061947 
L 74.938776 82.436751 
L 72.661224 80.32044 
L 70.383673 79.61926 
L 68.106122 80.163615 
L 65.828571 81.765447 
L 63.55102 84.230408 
L 61.273469 87.361 
L 58.995918 90.960537 
L 56.718367 94.837709 
L 54.440816 98.811541 
L 52.163265 102.71649 
L 49.885714 106.407131 
L 47.608163 109.76236 
L 45.330612 112.689153 
L 43.053061 115.125795 
L 40.77551 117.044211 
L 38.497959 118.450821 
L 36.220408 119.386898 
L 33.942857 119.931776 
L 31.665306 120.205929 
L 29.387755 120.367784 
L 27.110204 120.554683 
L 24.832653 120.718983 
L 22.555102 120.789691 
L 20.277551 120.729466 
L 18 120.531793 
z
" style="fill:#66c2a5;fill-opacity:0.2;"/>
   </g>
   <g id="matplotlib.axis_3">
    <g id="xtick_6">
     <g id="line2d_12">
      <g>
       <use style="fill:#a9a9a9;stroke:#a9a9a9;stroke-width:2;" x="29.387755" xlink:href="#mb033129e6e" y="122.182895"/>
      </g>
     </g>
    </g>
    <g id="xtick_7">
     <g id="line2d_13">
      <g>
       <use style="fill:#a9a9a9;stroke:#a9a9a9;stroke-width:2;" x="52.163265" xlink:href="#mb033129e6e" y="122.182895"/>
      </g>
     </g>
    </g>
    <g id="xtick_8">
     <g id="line2d_14">
      <g>
       <use style="fill:#a9a9a9;stroke:#a9a9a9;stroke-width:2;" x="74.938776" xlink:href="#mb033129e6e" y="122.182895"/>
      </g>
     </g>
    </g>
    <g id="xtick_9">
     <g id="line2d_15">
      <g>
       <use style="fill:#a9a9a9;stroke:#a9a9a9;stroke-width:2;" x="97.714286" xlink:href="#mb033129e6e" y="122.182895"/>
      </g>
     </g>
    </g>
    <g id="xtick_10">
     <g id="line2d_16">
      <g>
       <use style="fill:#a9a9a9;stroke:#a9a9a9;stroke-width:2;" x="120.489796" xlink:href="#mb033129e6e" y="122.182895"/>
      </g>
     </g>
    </g>
   </g>
   <g id="matplotlib.axis_4"/>
   <g id="line2d_17">
    <path clip-path="url(#p15e09818a4)" d="M 18 120.491627 
L 20.277551 120.698607 
L 22.555102 120.759878 
L 24.832653 120.682558 
L 27.110204 120.509447 
L 29.387755 120.315149 
L 31.665306 120.148115 
L 33.942857 119.869249 
L 36.220408 119.318248 
L 38.497959 118.371102 
L 40.77551 116.942378 
L 43.053061 114.985968 
L 45.330612 112.494579 
L 47.608163 109.498203 
L 49.885714 106.061757 
L 52.163265 102.282094 
L 54.440816 98.284524 
L 56.718367 94.218932 
L 58.995918 90.255336 
L 61.273469 86.578896 
L 63.55102 83.384672 
L 65.828571 80.872482 
L 68.106122 79.242185 
L 70.383673 78.68963 
L 72.661224 79.403454 
L 74.938776 81.552851 
L 77.216327 85.229725 
L 79.493878 90.036931 
L 81.771429 95.531469 
L 84.04898 101.300421 
L 86.326531 106.984765 
L 88.604082 112.288486 
L 90.881633 116.983323 
L 93.159184 120.909665 
L 95.436735 123.974205 
L 97.714286 126.145038 
L 99.991837 127.444874 
L 102.269388 127.942984 
L 104.546939 127.746201 
L 106.82449 126.98943 
L 109.102041 125.826325 
L 111.379592 124.420746 
L 113.657143 122.939553 
L 115.934694 121.547087 
L 118.212245 120.40161 
L 120.489796 119.653762 
L 122.767347 119.393922 
L 125.044898 119.498305 
L 127.322449 119.803306 
L 129.6 120.169955 
" style="fill:none;stroke:#66c2a5;stroke-linecap:square;stroke-width:2;"/>
   </g>
   <g id="patch_8">
    <path d="M 74.938776 128.16 
L 74.938776 77.76 
" style="fill:none;stroke:#a9a9a9;stroke-linecap:square;stroke-linejoin:miter;stroke-width:2;"/>
   </g>
   <g id="patch_9">
    <path d="M 129.6 128.16 
L 129.6 77.76 
" style="fill:none;"/>
   </g>
   <g id="patch_10">
    <path d="M 18 122.182895 
L 129.6 122.182895 
" style="fill:none;stroke:#a9a9a9;stroke-linecap:square;stroke-linejoin:miter;stroke-width:2;"/>
   </g>
   <g id="patch_11">
    <path d="M 18 77.76 
L 129.6 77.76 
" style="fill:none;"/>
   </g>
  </g>
 </g>
 <defs>
  <clipPath id="p0e38f3d72b">
   <rect height="50.4" width="111.6" x="18" y="17.28"/>
  </clipPath>
  <clipPath id="p15e09818a4">
   <rect height="50.4" width="111.6" x="18" y="77.76"/>
  </clipPath>
 </defs>
</svg>
