<?xml version="1.0" encoding="utf-8" standalone="no"?>
<!DOCTYPE svg PUBLIC "-//W3C//DTD SVG 1.1//EN"
  "http://www.w3.org/Graphics/SVG/1.1/DTD/svg11.dtd">
<!-- Created with matplotlib (https://matplotlib.org/) -->
<svg height="144pt" version="1.1" viewBox="0 0 144 144" width="144pt" xmlns="http://www.w3.org/2000/svg" xmlns:xlink="http://www.w3.org/1999/xlink">
 <metadata>
  <rdf:RDF xmlns:cc="http://creativecommons.org/ns#" xmlns:dc="http://purl.org/dc/elements/1.1/" xmlns:rdf="http://www.w3.org/1999/02/22-rdf-syntax-ns#">
   <cc:Work>
    <dc:type rdf:resource="http://purl.org/dc/dcmitype/StillImage"/>
    <dc:date>2021-10-12T18:36:36.413011</dc:date>
    <dc:format>image/svg+xml</dc:format>
    <dc:creator>
     <cc:Agent>
      <dc:title>Matplotlib v3.3.2, https://matplotlib.org/</dc:title>
     </cc:Agent>
    </dc:creator>
   </cc:Work>
  </rdf:RDF>
 </metadata>
 <defs>
  <style type="text/css">*{stroke-linecap:butt;stroke-linejoin:round;}</style>
 </defs>
 <g id="figure_1">
  <g id="patch_1">
   <path d="M 0 144 
L 144 144 
L 144 0 
L 0 0 
z
" style="fill:none;"/>
  </g>
  <g id="axes_1">
   <g id="patch_2">
    <path d="M 18 67.68 
L 129.6 67.68 
L 129.6 17.28 
L 18 17.28 
z
" style="fill:none;"/>
   </g>
   <g id="PolyCollection_1">
    <path clip-path="url(#pdd110c6318)" d="M 18 66.422094 
L 18 66.422094 
L 20.277551 66.422094 
L 22.555102 66.422094 
L 24.832653 66.422094 
L 27.110204 66.422094 
L 29.387755 66.422094 
L 31.665306 66.378198 
L 33.942857 65.32195 
L 36.220408 65.374557 
L 38.497959 64.288371 
L 40.77551 62.240615 
L 43.053061 61.07043 
L 45.330612 59.382686 
L 47.608163 54.366176 
L 49.885714 52.006882 
L 52.163265 48.907058 
L 54.440816 41.620887 
L 56.718367 37.510379 
L 58.995918 31.731384 
L 61.273469 30.232611 
L 63.55102 23.835677 
L 65.828571 22.027853 
L 68.106122 19.318927 
L 70.383673 19.521672 
L 72.661224 18.452364 
L 74.938776 32.135051 
L 77.216327 17.28 
L 79.493878 24.771943 
L 81.771429 28.704552 
L 84.04898 32.154245 
L 86.326531 37.389521 
L 88.604082 38.67124 
L 90.881633 44.866452 
L 93.159184 47.160467 
L 95.436735 50.66371 
L 97.714286 51.88256 
L 99.991837 56.759141 
L 102.269388 58.262973 
L 104.546939 60.766285 
L 106.82449 61.145474 
L 109.102041 63.757137 
L 111.379592 64.795076 
L 113.657143 65.442243 
L 115.934694 65.632883 
L 118.212245 66.404076 
L 120.489796 66.422094 
L 122.767347 66.422094 
L 125.044898 66.422094 
L 127.322449 66.422094 
L 129.6 66.422094 
L 129.6 66.422094 
L 129.6 66.422094 
L 127.322449 66.422094 
L 125.044898 66.422094 
L 122.767347 66.422094 
L 120.489796 66.422094 
L 118.212245 66.448674 
L 115.934694 67.084149 
L 113.657143 66.975472 
L 111.379592 67.351502 
L 109.102041 67.584861 
L 106.82449 67.68 
L 104.546939 67.210449 
L 102.269388 66.96785 
L 99.991837 66.395469 
L 97.714286 64.655021 
L 95.436735 65.770324 
L 93.159184 62.887969 
L 90.881633 60.553023 
L 88.604082 59.925045 
L 86.326531 57.450096 
L 84.04898 54.239491 
L 81.771429 46.458636 
L 79.493878 46.860206 
L 77.216327 43.080738 
L 74.938776 47.872401 
L 72.661224 44.755147 
L 70.383673 42.251938 
L 68.106122 42.08561 
L 65.828571 44.59559 
L 63.55102 45.173758 
L 61.273469 50.491842 
L 58.995918 49.828446 
L 56.718367 55.083799 
L 54.440816 57.980113 
L 52.163265 61.973087 
L 49.885714 63.160805 
L 47.608163 65.099586 
L 45.330612 65.765974 
L 43.053061 67.213 
L 40.77551 67.233083 
L 38.497959 67.200034 
L 36.220408 66.941146 
L 33.942857 67.091645 
L 31.665306 66.453485 
L 29.387755 66.422094 
L 27.110204 66.422094 
L 24.832653 66.422094 
L 22.555102 66.422094 
L 20.277551 66.422094 
L 18 66.422094 
z
" style="fill:#fc8d62;fill-opacity:0.2;"/>
   </g>
   <g id="PolyCollection_2">
    <path clip-path="url(#pdd110c6318)" d="M 18 66.422094 
L 18 66.422094 
L 20.277551 66.422094 
L 22.555102 66.422094 
L 24.832653 66.422094 
L 27.110204 66.422094 
L 29.387755 66.422094 
L 31.665306 66.422091 
L 33.942857 66.062943 
L 36.220408 64.552377 
L 38.497959 64.240976 
L 40.77551 62.223032 
L 43.053061 61.150624 
L 45.330612 58.148755 
L 47.608163 55.834306 
L 49.885714 54.337708 
L 52.163265 51.913784 
L 54.440816 48.478574 
L 56.718367 43.634387 
L 58.995918 40.25253 
L 61.273469 35.284967 
L 63.55102 33.115982 
L 65.828571 32.438022 
L 68.106122 30.229774 
L 70.383673 26.511841 
L 72.661224 25.554919 
L 74.938776 36.898281 
L 77.216327 25.366905 
L 79.493878 27.59341 
L 81.771429 29.706017 
L 84.04898 27.10058 
L 86.326531 34.758351 
L 88.604082 40.416305 
L 90.881633 44.329206 
L 93.159184 46.535829 
L 95.436735 46.905968 
L 97.714286 48.569633 
L 99.991837 52.479814 
L 102.269388 57.6289 
L 104.546939 58.278884 
L 106.82449 62.49086 
L 109.102041 63.087874 
L 111.379592 64.75575 
L 113.657143 65.219322 
L 115.934694 65.629651 
L 118.212245 66.422067 
L 120.489796 66.422094 
L 122.767347 66.422094 
L 125.044898 66.422094 
L 127.322449 66.422094 
L 129.6 66.422094 
L 129.6 66.422094 
L 129.6 66.422094 
L 127.322449 66.422094 
L 125.044898 66.422094 
L 122.767347 66.422094 
L 120.489796 66.422094 
L 118.212245 66.422132 
L 115.934694 66.967432 
L 113.657143 67.177603 
L 111.379592 67.122106 
L 109.102041 67.413471 
L 106.82449 67.583721 
L 104.546939 67.143058 
L 102.269388 66.309019 
L 99.991837 64.885425 
L 97.714286 61.675263 
L 95.436735 60.435755 
L 93.159184 60.12027 
L 90.881633 59.665912 
L 88.604082 54.351083 
L 86.326531 55.374048 
L 84.04898 49.854835 
L 81.771429 47.953386 
L 79.493878 50.877787 
L 77.216327 50.488865 
L 74.938776 50.525367 
L 72.661224 47.649245 
L 70.383673 47.47336 
L 68.106122 53.301366 
L 65.828571 52.663373 
L 63.55102 51.947819 
L 61.273469 56.15619 
L 58.995918 57.297941 
L 56.718367 61.069142 
L 54.440816 62.795904 
L 52.163265 65.250018 
L 49.885714 65.078497 
L 47.608163 65.93746 
L 45.330612 65.368697 
L 43.053061 66.749737 
L 40.77551 67.616098 
L 38.497959 67.533574 
L 36.220408 67.296816 
L 33.942857 66.733453 
L 31.665306 66.422096 
L 29.387755 66.422094 
L 27.110204 66.422094 
L 24.832653 66.422094 
L 22.555102 66.422094 
L 20.277551 66.422094 
L 18 66.422094 
z
" style="fill:#fc8d62;fill-opacity:0.2;"/>
   </g>
   <g id="matplotlib.axis_1">
    <g id="xtick_1">
     <g id="line2d_1">
      <defs>
       <path d="M 0 0 
L 0 3.5 
" id="m0a4fe6affb" style="stroke:#a9a9a9;stroke-width:2;"/>
      </defs>
      <g>
       <use style="fill:#a9a9a9;stroke:#a9a9a9;stroke-width:2;" x="29.387755" xlink:href="#m0a4fe6affb" y="66.422094"/>
      </g>
     </g>
    </g>
    <g id="xtick_2">
     <g id="line2d_2">
      <g>
       <use style="fill:#a9a9a9;stroke:#a9a9a9;stroke-width:2;" x="52.163265" xlink:href="#m0a4fe6affb" y="66.422094"/>
      </g>
     </g>
    </g>
    <g id="xtick_3">
     <g id="line2d_3">
      <g>
       <use style="fill:#a9a9a9;stroke:#a9a9a9;stroke-width:2;" x="74.938776" xlink:href="#m0a4fe6affb" y="66.422094"/>
      </g>
     </g>
    </g>
    <g id="xtick_4">
     <g id="line2d_4">
      <g>
       <use style="fill:#a9a9a9;stroke:#a9a9a9;stroke-width:2;" x="97.714286" xlink:href="#m0a4fe6affb" y="66.422094"/>
      </g>
     </g>
    </g>
    <g id="xtick_5">
     <g id="line2d_5">
      <g>
       <use style="fill:#a9a9a9;stroke:#a9a9a9;stroke-width:2;" x="120.489796" xlink:href="#m0a4fe6affb" y="66.422094"/>
      </g>
     </g>
    </g>
   </g>
   <g id="matplotlib.axis_2"/>
   <g id="line2d_6">
    <path clip-path="url(#pdd110c6318)" d="M 18 66.422094 
L 20.277551 66.422094 
L 22.555102 66.422094 
L 24.832653 66.422094 
L 27.110204 66.422094 
L 29.387755 66.422094 
L 31.665306 66.415841 
L 33.942857 66.206798 
L 36.220408 66.157851 
L 38.497959 65.744203 
L 40.77551 64.736849 
L 43.053061 64.141715 
L 45.330612 62.57433 
L 47.608163 59.732881 
L 49.885714 57.583844 
L 52.163265 55.440073 
L 54.440816 49.8005 
L 56.718367 46.297089 
L 58.995918 40.779915 
L 61.273469 40.362226 
L 63.55102 34.504717 
L 65.828571 33.311721 
L 68.106122 30.702269 
L 70.383673 30.886805 
L 72.661224 31.603756 
L 74.938776 40.003726 
L 77.216327 30.180369 
L 79.493878 35.816074 
L 81.771429 37.581594 
L 84.04898 43.196868 
L 86.326531 47.419808 
L 88.604082 49.298143 
L 90.881633 52.709738 
L 93.159184 55.024218 
L 95.436735 58.217017 
L 97.714286 58.268791 
L 99.991837 61.577305 
L 102.269388 62.615411 
L 104.546939 63.988367 
L 106.82449 64.412737 
L 109.102041 65.670999 
L 111.379592 66.073289 
L 113.657143 66.208858 
L 115.934694 66.358516 
L 118.212245 66.426375 
L 120.489796 66.422094 
L 122.767347 66.422094 
L 125.044898 66.422094 
L 127.322449 66.422094 
L 129.6 66.422094 
" style="fill:none;stroke:#fc8d62;stroke-linecap:square;stroke-width:2;"/>
   </g>
   <g id="line2d_7">
    <path clip-path="url(#pdd110c6318)" d="M 18 66.422094 
L 20.277551 66.422094 
L 22.555102 66.422094 
L 24.832653 66.422094 
L 27.110204 66.422094 
L 29.387755 66.422094 
L 31.665306 66.422093 
L 33.942857 66.398198 
L 36.220408 65.924597 
L 38.497959 65.887275 
L 40.77551 64.919565 
L 43.053061 63.95018 
L 45.330612 61.758726 
L 47.608163 60.885883 
L 49.885714 59.708102 
L 52.163265 58.581901 
L 54.440816 55.637239 
L 56.718367 52.351765 
L 58.995918 48.775236 
L 61.273469 45.720579 
L 63.55102 42.531901 
L 65.828571 42.550698 
L 68.106122 41.76557 
L 70.383673 36.992601 
L 72.661224 36.602082 
L 74.938776 43.711824 
L 77.216327 37.927885 
L 79.493878 39.235599 
L 81.771429 38.829702 
L 84.04898 38.477708 
L 86.326531 45.0662 
L 88.604082 47.383694 
L 90.881633 51.997559 
L 93.159184 53.32805 
L 95.436735 53.670861 
L 97.714286 55.122448 
L 99.991837 58.68262 
L 102.269388 61.968959 
L 104.546939 62.710971 
L 106.82449 65.03729 
L 109.102041 65.250673 
L 111.379592 65.938928 
L 113.657143 66.198463 
L 115.934694 66.298542 
L 118.212245 66.4221 
L 120.489796 66.422094 
L 122.767347 66.422094 
L 125.044898 66.422094 
L 127.322449 66.422094 
L 129.6 66.422094 
" style="fill:none;stroke:#fc8d62;stroke-dasharray:1.5,1.5;stroke-dashoffset:0;stroke-opacity:0.7;stroke-width:1.5;"/>
   </g>
   <g id="patch_3">
    <path d="M 74.938776 67.68 
L 74.938776 17.28 
" style="fill:none;stroke:#a9a9a9;stroke-linecap:square;stroke-linejoin:miter;stroke-width:2;"/>
   </g>
   <g id="patch_4">
    <path d="M 129.6 67.68 
L 129.6 17.28 
" style="fill:none;"/>
   </g>
   <g id="patch_5">
    <path d="M 18 66.422094 
L 129.6 66.422094 
" style="fill:none;stroke:#a9a9a9;stroke-linecap:square;stroke-linejoin:miter;stroke-width:2;"/>
   </g>
   <g id="patch_6">
    <path d="M 18 17.28 
L 129.6 17.28 
" style="fill:none;"/>
   </g>
   <g id="legend_1">
    <g id="line2d_8">
     <path d="M 87.67 26.448906 
L 101.67 26.448906 
" style="fill:none;stroke:#fc8d62;stroke-linecap:square;stroke-width:2;"/>
    </g>
    <g id="line2d_9"/>
    <g id="text_1">
     <!-- $\theta$ -->
     <g transform="translate(107.27 28.898906)scale(0.07 -0.07)">
      <defs>
       <path d="M 45.515625 34.671875 
L 14.453125 34.671875 
Q 12.359375 20.0625 14.5 13.875 
Q 17.1875 6.25 24.46875 6.25 
Q 31.78125 6.25 37.359375 13.921875 
Q 42.234375 20.65625 45.515625 34.671875 
z
M 47.015625 42.96875 
Q 48.34375 56.84375 46.625 61.71875 
Q 43.953125 69.4375 36.765625 69.4375 
Q 29.296875 69.4375 23.828125 61.8125 
Q 19.53125 55.671875 16.15625 42.96875 
z
M 38.1875 76.765625 
Q 49.90625 76.765625 54.59375 66.40625 
Q 59.28125 56.109375 55.71875 37.84375 
Q 52.203125 19.625 43.453125 9.28125 
Q 34.765625 -1.125 23.046875 -1.125 
Q 11.28125 -1.125 6.640625 9.28125 
Q 2 19.625 5.515625 37.84375 
Q 9.078125 56.109375 17.71875 66.40625 
Q 26.421875 76.765625 38.1875 76.765625 
z
" id="DejaVuSans-Oblique-952"/>
      </defs>
      <use transform="translate(0 0.234375)" xlink:href="#DejaVuSans-Oblique-952"/>
     </g>
    </g>
    <g id="line2d_10">
     <path d="M 87.67 36.723594 
L 101.67 36.723594 
" style="fill:none;stroke:#fc8d62;stroke-dasharray:1.5,1.5;stroke-dashoffset:0;stroke-opacity:0.7;stroke-width:1.5;"/>
    </g>
    <g id="line2d_11"/>
    <g id="text_2">
     <!-- No $\theta$ -->
     <g transform="translate(107.27 39.173594)scale(0.07 -0.07)">
      <defs>
       <path d="M 9.8125 72.90625 
L 23.09375 72.90625 
L 55.421875 11.921875 
L 55.421875 72.90625 
L 64.984375 72.90625 
L 64.984375 0 
L 51.703125 0 
L 19.390625 60.984375 
L 19.390625 0 
L 9.8125 0 
z
" id="DejaVuSans-78"/>
       <path d="M 30.609375 48.390625 
Q 23.390625 48.390625 19.1875 42.75 
Q 14.984375 37.109375 14.984375 27.296875 
Q 14.984375 17.484375 19.15625 11.84375 
Q 23.34375 6.203125 30.609375 6.203125 
Q 37.796875 6.203125 41.984375 11.859375 
Q 46.1875 17.53125 46.1875 27.296875 
Q 46.1875 37.015625 41.984375 42.703125 
Q 37.796875 48.390625 30.609375 48.390625 
z
M 30.609375 56 
Q 42.328125 56 49.015625 48.375 
Q 55.71875 40.765625 55.71875 27.296875 
Q 55.71875 13.875 49.015625 6.21875 
Q 42.328125 -1.421875 30.609375 -1.421875 
Q 18.84375 -1.421875 12.171875 6.21875 
Q 5.515625 13.875 5.515625 27.296875 
Q 5.515625 40.765625 12.171875 48.375 
Q 18.84375 56 30.609375 56 
z
" id="DejaVuSans-111"/>
       <path id="DejaVuSans-32"/>
      </defs>
      <use transform="translate(0 0.234375)" xlink:href="#DejaVuSans-78"/>
      <use transform="translate(74.804688 0.234375)" xlink:href="#DejaVuSans-111"/>
      <use transform="translate(135.986328 0.234375)" xlink:href="#DejaVuSans-32"/>
      <use transform="translate(167.773438 0.234375)" xlink:href="#DejaVuSans-Oblique-952"/>
     </g>
    </g>
   </g>
  </g>
  <g id="axes_2">
   <g id="patch_7">
    <path d="M 18 128.16 
L 129.6 128.16 
L 129.6 77.76 
L 18 77.76 
z
" style="fill:none;"/>
   </g>
   <g id="PolyCollection_3">
    <path clip-path="url(#p9d79e079e7)" d="M 18 120.46924 
L 18 120.38407 
L 20.277551 120.600067 
L 22.555102 120.667172 
L 24.832653 120.590737 
L 27.110204 120.417565 
L 29.387755 120.224523 
L 31.665306 120.059004 
L 33.942857 119.780642 
L 36.220408 119.227754 
L 38.497959 118.273218 
L 40.77551 116.825824 
L 43.053061 114.834784 
L 45.330612 112.291738 
L 47.608163 109.228314 
L 49.885714 105.712457 
L 52.163265 101.844879 
L 54.440816 97.75533 
L 56.718367 93.598388 
L 58.995918 89.548767 
L 61.273469 85.795985 
L 63.55102 82.538859 
L 65.828571 79.98015 
L 68.106122 78.321652 
L 70.383673 77.76 
L 72.661224 78.483342 
L 74.938776 80.659059 
L 77.216327 84.37528 
L 79.493878 89.235283 
L 81.771429 94.794731 
L 84.04898 100.638183 
L 86.326531 106.402928 
L 88.604082 111.788232 
L 90.881633 116.560254 
L 93.159184 120.553573 
L 95.436735 123.670399 
L 97.714286 125.878133 
L 99.991837 127.203601 
L 102.269388 127.722406 
L 104.546939 127.546555 
L 106.82449 126.813441 
L 109.102041 125.67672 
L 111.379592 124.298273 
L 113.657143 122.841264 
L 115.934694 121.465017 
L 118.212245 120.323263 
L 120.489796 119.567136 
L 122.767347 119.293949 
L 125.044898 119.387456 
L 127.322449 119.687431 
L 129.6 120.055558 
L 129.6 120.168139 
L 129.6 120.168139 
L 127.322449 119.82601 
L 125.044898 119.54624 
L 122.767347 119.464885 
L 120.489796 119.744024 
L 118.212245 120.509137 
L 115.934694 121.676602 
L 113.657143 123.095937 
L 111.379592 124.604013 
L 109.102041 126.031346 
L 106.82449 127.207674 
L 104.546939 127.967969 
L 102.269388 128.16 
L 99.991837 127.653332 
L 97.714286 126.348779 
L 95.436735 124.186201 
L 93.159184 121.149902 
L 90.881633 117.273838 
L 88.604082 112.649089 
L 86.326531 107.430882 
L 84.04898 101.842138 
L 81.771429 96.172891 
L 79.493878 90.77549 
L 77.216327 86.055495 
L 74.938776 82.448079 
L 72.661224 80.342467 
L 70.383673 79.646899 
L 68.106122 80.193145 
L 65.828571 81.794243 
L 63.55102 84.256655 
L 61.273469 87.383469 
L 58.995918 90.978422 
L 56.718367 94.850526 
L 54.440816 98.819091 
L 52.163265 102.718782 
L 49.885714 106.404344 
L 47.608163 109.754845 
L 45.330612 112.677281 
L 43.053061 115.109799 
L 40.77551 117.024105 
L 38.497959 118.426445 
L 36.220408 119.358123 
L 33.942857 119.89844 
L 31.665306 120.167581 
L 29.387755 120.323338 
L 27.110204 120.502032 
L 24.832653 120.658478 
L 22.555102 120.724187 
L 20.277551 120.663399 
L 18 120.46924 
z
" style="fill:#66c2a5;fill-opacity:0.2;"/>
   </g>
   <g id="matplotlib.axis_3">
    <g id="xtick_6">
     <g id="line2d_12">
      <g>
       <use style="fill:#a9a9a9;stroke:#a9a9a9;stroke-width:2;" x="29.387755" xlink:href="#m0a4fe6affb" y="122.143841"/>
      </g>
     </g>
    </g>
    <g id="xtick_7">
     <g id="line2d_13">
      <g>
       <use style="fill:#a9a9a9;stroke:#a9a9a9;stroke-width:2;" x="52.163265" xlink:href="#m0a4fe6affb" y="122.143841"/>
      </g>
     </g>
    </g>
    <g id="xtick_8">
     <g id="line2d_14">
      <g>
       <use style="fill:#a9a9a9;stroke:#a9a9a9;stroke-width:2;" x="74.938776" xlink:href="#m0a4fe6affb" y="122.143841"/>
      </g>
     </g>
    </g>
    <g id="xtick_9">
     <g id="line2d_15">
      <g>
       <use style="fill:#a9a9a9;stroke:#a9a9a9;stroke-width:2;" x="97.714286" xlink:href="#m0a4fe6affb" y="122.143841"/>
      </g>
     </g>
    </g>
    <g id="xtick_10">
     <g id="line2d_16">
      <g>
       <use style="fill:#a9a9a9;stroke:#a9a9a9;stroke-width:2;" x="120.489796" xlink:href="#m0a4fe6affb" y="122.143841"/>
      </g>
     </g>
    </g>
   </g>
   <g id="matplotlib.axis_4"/>
   <g id="line2d_17">
    <path clip-path="url(#p9d79e079e7)" d="M 18 120.426655 
L 20.277551 120.631733 
L 22.555102 120.695679 
L 24.832653 120.624608 
L 27.110204 120.459799 
L 29.387755 120.27393 
L 31.665306 120.113293 
L 33.942857 119.839541 
L 36.220408 119.292939 
L 38.497959 118.349831 
L 40.77551 116.924965 
L 43.053061 114.972291 
L 45.330612 112.48451 
L 47.608163 109.49158 
L 49.885714 106.0584 
L 52.163265 102.281831 
L 54.440816 98.28721 
L 56.718367 94.224457 
L 58.995918 90.263594 
L 61.273469 86.589727 
L 63.55102 83.397757 
L 65.828571 80.887196 
L 68.106122 79.257399 
L 70.383673 78.70345 
L 72.661224 79.412904 
L 74.938776 81.553569 
L 77.216327 85.215387 
L 79.493878 90.005386 
L 81.771429 95.483811 
L 84.04898 101.24016 
L 86.326531 106.916905 
L 88.604082 112.21866 
L 90.881633 116.917046 
L 93.159184 120.851738 
L 95.436735 123.9283 
L 97.714286 126.113456 
L 99.991837 127.428467 
L 102.269388 127.941203 
L 104.546939 127.757262 
L 106.82449 127.010557 
L 109.102041 125.854033 
L 111.379592 124.451143 
L 113.657143 122.968601 
L 115.934694 121.570809 
L 118.212245 120.4162 
L 120.489796 119.65558 
L 122.767347 119.379417 
L 125.044898 119.466848 
L 127.322449 119.75672 
L 129.6 120.111848 
" style="fill:none;stroke:#66c2a5;stroke-linecap:square;stroke-width:2;"/>
   </g>
   <g id="patch_8">
    <path d="M 74.938776 128.16 
L 74.938776 77.76 
" style="fill:none;stroke:#a9a9a9;stroke-linecap:square;stroke-linejoin:miter;stroke-width:2;"/>
   </g>
   <g id="patch_9">
    <path d="M 129.6 128.16 
L 129.6 77.76 
" style="fill:none;"/>
   </g>
   <g id="patch_10">
    <path d="M 18 122.143841 
L 129.6 122.143841 
" style="fill:none;stroke:#a9a9a9;stroke-linecap:square;stroke-linejoin:miter;stroke-width:2;"/>
   </g>
   <g id="patch_11">
    <path d="M 18 77.76 
L 129.6 77.76 
" style="fill:none;"/>
   </g>
  </g>
 </g>
 <defs>
  <clipPath id="pdd110c6318">
   <rect height="50.4" width="111.6" x="18" y="17.28"/>
  </clipPath>
  <clipPath id="p9d79e079e7">
   <rect height="50.4" width="111.6" x="18" y="77.76"/>
  </clipPath>
 </defs>
</svg>
