<?xml version="1.0" encoding="utf-8" standalone="no"?>
<!DOCTYPE svg PUBLIC "-//W3C//DTD SVG 1.1//EN"
  "http://www.w3.org/Graphics/SVG/1.1/DTD/svg11.dtd">
<!-- Created with matplotlib (https://matplotlib.org/) -->
<svg height="144pt" version="1.1" viewBox="0 0 144 144" width="144pt" xmlns="http://www.w3.org/2000/svg" xmlns:xlink="http://www.w3.org/1999/xlink">
 <metadata>
  <rdf:RDF xmlns:cc="http://creativecommons.org/ns#" xmlns:dc="http://purl.org/dc/elements/1.1/" xmlns:rdf="http://www.w3.org/1999/02/22-rdf-syntax-ns#">
   <cc:Work>
    <dc:type rdf:resource="http://purl.org/dc/dcmitype/StillImage"/>
    <dc:date>2021-10-13T00:10:37.832438</dc:date>
    <dc:format>image/svg+xml</dc:format>
    <dc:creator>
     <cc:Agent>
      <dc:title>Matplotlib v3.3.2, https://matplotlib.org/</dc:title>
     </cc:Agent>
    </dc:creator>
   </cc:Work>
  </rdf:RDF>
 </metadata>
 <defs>
  <style type="text/css">*{stroke-linecap:butt;stroke-linejoin:round;}</style>
 </defs>
 <g id="figure_1">
  <g id="patch_1">
   <path d="M 0 144 
L 144 144 
L 144 0 
L 0 0 
z
" style="fill:none;"/>
  </g>
  <g id="axes_1">
   <g id="patch_2">
    <path d="M 18 67.68 
L 129.6 67.68 
L 129.6 17.28 
L 18 17.28 
z
" style="fill:none;"/>
   </g>
   <g id="PolyCollection_1">
    <path clip-path="url(#pcd29c79616)" d="M 18 62.142972 
L 18 62.142972 
L 20.277551 62.142972 
L 22.555102 62.142972 
L 24.832653 62.142972 
L 27.110204 62.142972 
L 29.387755 62.142972 
L 31.665306 62.142967 
L 33.942857 61.826603 
L 36.220408 60.732448 
L 38.497959 60.990516 
L 40.77551 59.564266 
L 43.053061 57.242002 
L 45.330612 57.428196 
L 47.608163 51.643805 
L 49.885714 50.233025 
L 52.163265 45.043671 
L 54.440816 44.039306 
L 56.718367 41.58441 
L 58.995918 33.098296 
L 61.273469 31.269714 
L 63.55102 25.733042 
L 65.828571 21.567562 
L 68.106122 17.808333 
L 70.383673 21.339159 
L 72.661224 17.28 
L 74.938776 39.300681 
L 77.216327 21.093844 
L 79.493878 22.973519 
L 81.771429 28.086833 
L 84.04898 31.516153 
L 86.326531 40.60871 
L 88.604082 42.02028 
L 90.881633 43.174464 
L 93.159184 43.808397 
L 95.436735 48.608503 
L 97.714286 54.058399 
L 99.991837 53.20895 
L 102.269388 54.376554 
L 104.546939 56.456964 
L 106.82449 59.070532 
L 109.102041 59.268878 
L 111.379592 61.622094 
L 113.657143 61.230052 
L 115.934694 62.048655 
L 118.212245 62.133786 
L 120.489796 62.142972 
L 122.767347 62.142972 
L 125.044898 62.142972 
L 127.322449 62.142972 
L 129.6 62.142972 
L 129.6 62.142972 
L 129.6 62.142972 
L 127.322449 62.142972 
L 125.044898 62.142972 
L 122.767347 62.142972 
L 120.489796 62.142973 
L 118.212245 62.156605 
L 115.934694 62.366445 
L 113.657143 62.813645 
L 111.379592 63.053155 
L 109.102041 63.921513 
L 106.82449 64.796906 
L 104.546939 65.56222 
L 102.269388 65.526645 
L 99.991837 65.812457 
L 97.714286 67.68 
L 95.436735 66.338141 
L 93.159184 66.190402 
L 90.881633 63.299717 
L 88.604082 64.787632 
L 86.326531 62.034087 
L 84.04898 55.436048 
L 81.771429 57.255744 
L 79.493878 55.040476 
L 77.216327 50.886395 
L 74.938776 54.576788 
L 72.661224 48.985182 
L 70.383673 54.80389 
L 68.106122 51.012817 
L 65.828571 52.645651 
L 63.55102 54.891154 
L 61.273469 53.984232 
L 58.995918 56.320775 
L 56.718367 57.969241 
L 54.440816 62.890934 
L 52.163265 61.795616 
L 49.885714 63.961576 
L 47.608163 63.757765 
L 45.330612 64.449641 
L 43.053061 63.771112 
L 40.77551 63.346405 
L 38.497959 63.084371 
L 36.220408 63.419821 
L 33.942857 62.400694 
L 31.665306 62.142977 
L 29.387755 62.142972 
L 27.110204 62.142972 
L 24.832653 62.142972 
L 22.555102 62.142972 
L 20.277551 62.142972 
L 18 62.142972 
z
" style="fill:#fc8d62;fill-opacity:0.2;"/>
   </g>
   <g id="PolyCollection_2">
    <path clip-path="url(#pcd29c79616)" d="M 18 62.142972 
L 18 62.142972 
L 20.277551 62.142972 
L 22.555102 62.142972 
L 24.832653 62.142972 
L 27.110204 62.142972 
L 29.387755 62.142972 
L 31.665306 62.142294 
L 33.942857 60.395813 
L 36.220408 61.343623 
L 38.497959 59.639556 
L 40.77551 58.193923 
L 43.053061 56.803515 
L 45.330612 53.771393 
L 47.608163 53.014184 
L 49.885714 54.925232 
L 52.163265 45.925171 
L 54.440816 43.559281 
L 56.718367 45.910687 
L 58.995918 42.657461 
L 61.273469 41.927823 
L 63.55102 38.651848 
L 65.828571 32.238984 
L 68.106122 30.860577 
L 70.383673 32.721687 
L 72.661224 31.334732 
L 74.938776 44.375658 
L 77.216327 32.606035 
L 79.493878 34.374065 
L 81.771429 33.427352 
L 84.04898 36.523092 
L 86.326531 37.643615 
L 88.604082 37.247146 
L 90.881633 44.637569 
L 93.159184 43.808061 
L 95.436735 47.256886 
L 97.714286 50.62219 
L 99.991837 50.961466 
L 102.269388 53.734759 
L 104.546939 56.780595 
L 106.82449 56.40805 
L 109.102041 59.352907 
L 111.379592 58.811755 
L 113.657143 60.850111 
L 115.934694 61.79721 
L 118.212245 62.115823 
L 120.489796 62.142971 
L 122.767347 62.142972 
L 125.044898 62.142972 
L 127.322449 62.142972 
L 129.6 62.142972 
L 129.6 62.142972 
L 129.6 62.142972 
L 127.322449 62.142972 
L 125.044898 62.142972 
L 122.767347 62.142972 
L 120.489796 62.142975 
L 118.212245 62.192176 
L 115.934694 62.615858 
L 113.657143 63.319475 
L 111.379592 64.180626 
L 109.102041 64.154897 
L 106.82449 64.803139 
L 104.546939 64.919613 
L 102.269388 65.357084 
L 99.991837 63.465249 
L 97.714286 66.065354 
L 95.436735 64.644038 
L 93.159184 61.680475 
L 90.881633 64.037856 
L 88.604082 60.086967 
L 86.326531 62.025748 
L 84.04898 61.136322 
L 81.771429 60.916125 
L 79.493878 61.351399 
L 77.216327 55.566127 
L 74.938776 59.205035 
L 72.661224 56.676578 
L 70.383673 57.346137 
L 68.106122 55.883808 
L 65.828571 57.123075 
L 63.55102 60.563405 
L 61.273469 60.582232 
L 58.995918 63.035871 
L 56.718367 62.47369 
L 54.440816 64.825066 
L 52.163265 63.091311 
L 49.885714 64.576748 
L 47.608163 63.588119 
L 45.330612 65.00045 
L 43.053061 63.397682 
L 40.77551 64.135682 
L 38.497959 63.707414 
L 36.220408 62.790022 
L 33.942857 63.173644 
L 31.665306 62.143451 
L 29.387755 62.142972 
L 27.110204 62.142972 
L 24.832653 62.142972 
L 22.555102 62.142972 
L 20.277551 62.142972 
L 18 62.142972 
z
" style="fill:#fc8d62;fill-opacity:0.2;"/>
   </g>
   <g id="matplotlib.axis_1">
    <g id="xtick_1">
     <g id="line2d_1">
      <defs>
       <path d="M 0 0 
L 0 3.5 
" id="m99d0e02ca4" style="stroke:#a9a9a9;stroke-width:2;"/>
      </defs>
      <g>
       <use style="fill:#a9a9a9;stroke:#a9a9a9;stroke-width:2;" x="29.387755" xlink:href="#m99d0e02ca4" y="62.142972"/>
      </g>
     </g>
    </g>
    <g id="xtick_2">
     <g id="line2d_2">
      <g>
       <use style="fill:#a9a9a9;stroke:#a9a9a9;stroke-width:2;" x="52.163265" xlink:href="#m99d0e02ca4" y="62.142972"/>
      </g>
     </g>
    </g>
    <g id="xtick_3">
     <g id="line2d_3">
      <g>
       <use style="fill:#a9a9a9;stroke:#a9a9a9;stroke-width:2;" x="74.938776" xlink:href="#m99d0e02ca4" y="62.142972"/>
      </g>
     </g>
    </g>
    <g id="xtick_4">
     <g id="line2d_4">
      <g>
       <use style="fill:#a9a9a9;stroke:#a9a9a9;stroke-width:2;" x="97.714286" xlink:href="#m99d0e02ca4" y="62.142972"/>
      </g>
     </g>
    </g>
    <g id="xtick_5">
     <g id="line2d_5">
      <g>
       <use style="fill:#a9a9a9;stroke:#a9a9a9;stroke-width:2;" x="120.489796" xlink:href="#m99d0e02ca4" y="62.142972"/>
      </g>
     </g>
    </g>
   </g>
   <g id="matplotlib.axis_2"/>
   <g id="line2d_6">
    <path clip-path="url(#pcd29c79616)" d="M 18 62.142972 
L 20.277551 62.142972 
L 22.555102 62.142972 
L 24.832653 62.142972 
L 27.110204 62.142972 
L 29.387755 62.142972 
L 31.665306 62.142972 
L 33.942857 62.113648 
L 36.220408 62.076134 
L 38.497959 62.037443 
L 40.77551 61.455335 
L 43.053061 60.506557 
L 45.330612 60.938919 
L 47.608163 57.700785 
L 49.885714 57.097301 
L 52.163265 53.419644 
L 54.440816 53.46512 
L 56.718367 49.776825 
L 58.995918 44.709535 
L 61.273469 42.626973 
L 63.55102 40.312098 
L 65.828571 37.106606 
L 68.106122 34.410575 
L 70.383673 38.071524 
L 72.661224 33.132591 
L 74.938776 46.938734 
L 77.216327 35.99012 
L 79.493878 39.006998 
L 81.771429 42.671288 
L 84.04898 43.476101 
L 86.326531 51.321398 
L 88.604082 53.403956 
L 90.881633 53.23709 
L 93.159184 54.999399 
L 95.436735 57.473322 
L 97.714286 60.869199 
L 99.991837 59.510703 
L 102.269388 59.9516 
L 104.546939 61.009592 
L 106.82449 61.933719 
L 109.102041 61.595195 
L 111.379592 62.337625 
L 113.657143 62.021848 
L 115.934694 62.20755 
L 118.212245 62.145195 
L 120.489796 62.142973 
L 122.767347 62.142972 
L 125.044898 62.142972 
L 127.322449 62.142972 
L 129.6 62.142972 
" style="fill:none;stroke:#fc8d62;stroke-linecap:square;stroke-width:2;"/>
   </g>
   <g id="line2d_7">
    <path clip-path="url(#pcd29c79616)" d="M 18 62.142972 
L 20.277551 62.142972 
L 22.555102 62.142972 
L 24.832653 62.142972 
L 27.110204 62.142972 
L 29.387755 62.142972 
L 31.665306 62.142872 
L 33.942857 61.784729 
L 36.220408 62.066823 
L 38.497959 61.673485 
L 40.77551 61.164802 
L 43.053061 60.100598 
L 45.330612 59.385921 
L 47.608163 58.301152 
L 49.885714 59.75099 
L 52.163265 54.508241 
L 54.440816 54.192173 
L 56.718367 54.192188 
L 58.995918 52.846666 
L 61.273469 51.255028 
L 63.55102 49.607627 
L 65.828571 44.681029 
L 68.106122 43.372192 
L 70.383673 45.033912 
L 72.661224 44.005655 
L 74.938776 51.790346 
L 77.216327 44.086081 
L 79.493878 47.862732 
L 81.771429 47.171738 
L 84.04898 48.829707 
L 86.326531 49.834682 
L 88.604082 48.667056 
L 90.881633 54.337713 
L 93.159184 52.744268 
L 95.436735 55.950462 
L 97.714286 58.343772 
L 99.991837 57.213358 
L 102.269388 59.545921 
L 104.546939 60.850104 
L 106.82449 60.605594 
L 109.102041 61.753902 
L 111.379592 61.496191 
L 113.657143 62.084793 
L 115.934694 62.206534 
L 118.212245 62.154 
L 120.489796 62.142973 
L 122.767347 62.142972 
L 125.044898 62.142972 
L 127.322449 62.142972 
L 129.6 62.142972 
" style="fill:none;stroke:#fc8d62;stroke-dasharray:1.5,1.5;stroke-dashoffset:0;stroke-opacity:0.7;stroke-width:1.5;"/>
   </g>
   <g id="patch_3">
    <path d="M 74.938776 67.68 
L 74.938776 17.28 
" style="fill:none;stroke:#a9a9a9;stroke-linecap:square;stroke-linejoin:miter;stroke-width:2;"/>
   </g>
   <g id="patch_4">
    <path d="M 129.6 67.68 
L 129.6 17.28 
" style="fill:none;"/>
   </g>
   <g id="patch_5">
    <path d="M 18 62.142972 
L 129.6 62.142972 
" style="fill:none;stroke:#a9a9a9;stroke-linecap:square;stroke-linejoin:miter;stroke-width:2;"/>
   </g>
   <g id="patch_6">
    <path d="M 18 17.28 
L 129.6 17.28 
" style="fill:none;"/>
   </g>
   <g id="legend_1">
    <g id="line2d_8">
     <path d="M 87.67 26.448906 
L 101.67 26.448906 
" style="fill:none;stroke:#fc8d62;stroke-linecap:square;stroke-width:2;"/>
    </g>
    <g id="line2d_9"/>
    <g id="text_1">
     <!-- $\theta$ -->
     <g transform="translate(107.27 28.898906)scale(0.07 -0.07)">
      <defs>
       <path d="M 45.515625 34.671875 
L 14.453125 34.671875 
Q 12.359375 20.0625 14.5 13.875 
Q 17.1875 6.25 24.46875 6.25 
Q 31.78125 6.25 37.359375 13.921875 
Q 42.234375 20.65625 45.515625 34.671875 
z
M 47.015625 42.96875 
Q 48.34375 56.84375 46.625 61.71875 
Q 43.953125 69.4375 36.765625 69.4375 
Q 29.296875 69.4375 23.828125 61.8125 
Q 19.53125 55.671875 16.15625 42.96875 
z
M 38.1875 76.765625 
Q 49.90625 76.765625 54.59375 66.40625 
Q 59.28125 56.109375 55.71875 37.84375 
Q 52.203125 19.625 43.453125 9.28125 
Q 34.765625 -1.125 23.046875 -1.125 
Q 11.28125 -1.125 6.640625 9.28125 
Q 2 19.625 5.515625 37.84375 
Q 9.078125 56.109375 17.71875 66.40625 
Q 26.421875 76.765625 38.1875 76.765625 
z
" id="DejaVuSans-Oblique-952"/>
      </defs>
      <use transform="translate(0 0.234375)" xlink:href="#DejaVuSans-Oblique-952"/>
     </g>
    </g>
    <g id="line2d_10">
     <path d="M 87.67 36.723594 
L 101.67 36.723594 
" style="fill:none;stroke:#fc8d62;stroke-dasharray:1.5,1.5;stroke-dashoffset:0;stroke-opacity:0.7;stroke-width:1.5;"/>
    </g>
    <g id="line2d_11"/>
    <g id="text_2">
     <!-- No $\theta$ -->
     <g transform="translate(107.27 39.173594)scale(0.07 -0.07)">
      <defs>
       <path d="M 9.8125 72.90625 
L 23.09375 72.90625 
L 55.421875 11.921875 
L 55.421875 72.90625 
L 64.984375 72.90625 
L 64.984375 0 
L 51.703125 0 
L 19.390625 60.984375 
L 19.390625 0 
L 9.8125 0 
z
" id="DejaVuSans-78"/>
       <path d="M 30.609375 48.390625 
Q 23.390625 48.390625 19.1875 42.75 
Q 14.984375 37.109375 14.984375 27.296875 
Q 14.984375 17.484375 19.15625 11.84375 
Q 23.34375 6.203125 30.609375 6.203125 
Q 37.796875 6.203125 41.984375 11.859375 
Q 46.1875 17.53125 46.1875 27.296875 
Q 46.1875 37.015625 41.984375 42.703125 
Q 37.796875 48.390625 30.609375 48.390625 
z
M 30.609375 56 
Q 42.328125 56 49.015625 48.375 
Q 55.71875 40.765625 55.71875 27.296875 
Q 55.71875 13.875 49.015625 6.21875 
Q 42.328125 -1.421875 30.609375 -1.421875 
Q 18.84375 -1.421875 12.171875 6.21875 
Q 5.515625 13.875 5.515625 27.296875 
Q 5.515625 40.765625 12.171875 48.375 
Q 18.84375 56 30.609375 56 
z
" id="DejaVuSans-111"/>
       <path id="DejaVuSans-32"/>
      </defs>
      <use transform="translate(0 0.234375)" xlink:href="#DejaVuSans-78"/>
      <use transform="translate(74.804688 0.234375)" xlink:href="#DejaVuSans-111"/>
      <use transform="translate(135.986328 0.234375)" xlink:href="#DejaVuSans-32"/>
      <use transform="translate(167.773438 0.234375)" xlink:href="#DejaVuSans-Oblique-952"/>
     </g>
    </g>
   </g>
  </g>
  <g id="axes_2">
   <g id="patch_7">
    <path d="M 18 128.16 
L 129.6 128.16 
L 129.6 77.76 
L 18 77.76 
z
" style="fill:none;"/>
   </g>
   <g id="PolyCollection_3">
    <path clip-path="url(#pc669faa5fe)" d="M 18 120.508736 
L 18 120.429921 
L 20.277551 120.645993 
L 22.555102 120.710182 
L 24.832653 120.630104 
L 27.110204 120.45356 
L 29.387755 120.257368 
L 31.665306 120.089204 
L 33.942857 119.808604 
L 36.220408 119.253505 
L 38.497959 118.296462 
L 40.77551 116.846201 
L 43.053061 114.85222 
L 45.330612 112.306478 
L 47.608163 109.240807 
L 49.885714 105.723269 
L 52.163265 101.854535 
L 54.440816 97.764109 
L 56.718367 93.606325 
L 58.995918 89.555671 
L 61.273469 85.801577 
L 63.55102 82.542919 
L 65.828571 79.982599 
L 68.106122 78.322638 
L 70.383673 77.76 
L 72.661224 78.483265 
L 74.938776 80.660413 
L 77.216327 84.379706 
L 79.493878 89.243779 
L 81.771429 94.807181 
L 84.04898 100.653645 
L 86.326531 106.419832 
L 88.604082 111.804576 
L 90.881633 116.573884 
L 93.159184 120.562452 
L 95.436735 123.673468 
L 97.714286 125.875899 
L 99.991837 127.197651 
L 102.269388 127.714582 
L 104.546939 127.538366 
L 106.82449 126.806092 
L 109.102041 125.671309 
L 111.379592 124.295863 
L 113.657143 122.842871 
L 115.934694 121.471551 
L 118.212245 120.335456 
L 120.489796 119.585672 
L 122.767347 119.319109 
L 125.044898 119.419426 
L 127.322449 119.725582 
L 129.6 120.098548 
L 129.6 120.204484 
L 129.6 120.204484 
L 127.322449 119.858 
L 125.044898 119.57269 
L 122.767347 119.484949 
L 120.489796 119.757449 
L 118.212245 120.517129 
L 115.934694 121.680187 
L 113.657143 123.096269 
L 111.379592 124.602234 
L 109.102041 126.028604 
L 106.82449 127.205064 
L 104.546939 127.966411 
L 102.269388 128.16 
L 99.991837 127.654639 
L 97.714286 126.35023 
L 95.436735 124.186229 
L 93.159184 121.147339 
L 90.881633 117.268452 
L 88.604082 112.641126 
L 86.326531 107.420419 
L 84.04898 101.829099 
L 81.771429 96.157146 
L 79.493878 90.757055 
L 77.216327 86.03478 
L 74.938776 82.426128 
L 72.661224 80.321121 
L 70.383673 79.627513 
L 68.106122 80.176617 
L 65.828571 81.781162 
L 63.55102 84.247403 
L 61.273469 87.37829 
L 58.995918 90.97748 
L 56.718367 94.853937 
L 54.440816 98.82686 
L 52.163265 102.73072 
L 49.885714 106.420078 
L 47.608163 109.773825 
L 45.330612 112.698965 
L 43.053061 115.13379 
L 40.77551 117.050211 
L 38.497959 118.454773 
L 36.220408 119.389059 
L 33.942857 119.932316 
L 31.665306 120.204485 
L 29.387755 120.363143 
L 27.110204 120.544677 
L 24.832653 120.702996 
L 22.555102 120.768448 
L 20.277551 120.705411 
L 18 120.508736 
z
" style="fill:#66c2a5;fill-opacity:0.2;"/>
   </g>
   <g id="matplotlib.axis_3">
    <g id="xtick_6">
     <g id="line2d_12">
      <g>
       <use style="fill:#a9a9a9;stroke:#a9a9a9;stroke-width:2;" x="29.387755" xlink:href="#m99d0e02ca4" y="122.175541"/>
      </g>
     </g>
    </g>
    <g id="xtick_7">
     <g id="line2d_13">
      <g>
       <use style="fill:#a9a9a9;stroke:#a9a9a9;stroke-width:2;" x="52.163265" xlink:href="#m99d0e02ca4" y="122.175541"/>
      </g>
     </g>
    </g>
    <g id="xtick_8">
     <g id="line2d_14">
      <g>
       <use style="fill:#a9a9a9;stroke:#a9a9a9;stroke-width:2;" x="74.938776" xlink:href="#m99d0e02ca4" y="122.175541"/>
      </g>
     </g>
    </g>
    <g id="xtick_9">
     <g id="line2d_15">
      <g>
       <use style="fill:#a9a9a9;stroke:#a9a9a9;stroke-width:2;" x="97.714286" xlink:href="#m99d0e02ca4" y="122.175541"/>
      </g>
     </g>
    </g>
    <g id="xtick_10">
     <g id="line2d_16">
      <g>
       <use style="fill:#a9a9a9;stroke:#a9a9a9;stroke-width:2;" x="120.489796" xlink:href="#m99d0e02ca4" y="122.175541"/>
      </g>
     </g>
    </g>
   </g>
   <g id="matplotlib.axis_4"/>
   <g id="line2d_17">
    <path clip-path="url(#pc669faa5fe)" d="M 18 120.469328 
L 20.277551 120.675702 
L 22.555102 120.739315 
L 24.832653 120.66655 
L 27.110204 120.499118 
L 29.387755 120.310255 
L 31.665306 120.146844 
L 33.942857 119.87046 
L 36.220408 119.321282 
L 38.497959 118.375618 
L 40.77551 116.948206 
L 43.053061 114.993005 
L 45.330612 112.502722 
L 47.608163 109.507316 
L 49.885714 106.071674 
L 52.163265 102.292628 
L 54.440816 98.295485 
L 56.718367 94.230131 
L 58.995918 90.266576 
L 61.273469 86.589934 
L 63.55102 83.395161 
L 65.828571 80.881881 
L 68.106122 79.249628 
L 70.383673 78.693757 
L 72.661224 79.402193 
L 74.938776 81.543271 
L 77.216327 85.207243 
L 79.493878 90.000417 
L 81.771429 95.482163 
L 84.04898 101.241372 
L 86.326531 106.920125 
L 88.604082 112.222851 
L 90.881633 116.921168 
L 93.159184 120.854895 
L 95.436735 123.929848 
L 97.714286 126.113065 
L 99.991837 127.426145 
L 102.269388 127.937291 
L 104.546939 127.752388 
L 106.82449 127.005578 
L 109.102041 125.849956 
L 111.379592 124.449048 
L 113.657143 122.96957 
L 115.934694 121.575869 
L 118.212245 120.426292 
L 120.489796 119.671561 
L 122.767347 119.402029 
L 125.044898 119.496058 
L 127.322449 119.791791 
L 129.6 120.151516 
" style="fill:none;stroke:#66c2a5;stroke-linecap:square;stroke-width:2;"/>
   </g>
   <g id="patch_8">
    <path d="M 74.938776 128.16 
L 74.938776 77.76 
" style="fill:none;stroke:#a9a9a9;stroke-linecap:square;stroke-linejoin:miter;stroke-width:2;"/>
   </g>
   <g id="patch_9">
    <path d="M 129.6 128.16 
L 129.6 77.76 
" style="fill:none;"/>
   </g>
   <g id="patch_10">
    <path d="M 18 122.175541 
L 129.6 122.175541 
" style="fill:none;stroke:#a9a9a9;stroke-linecap:square;stroke-linejoin:miter;stroke-width:2;"/>
   </g>
   <g id="patch_11">
    <path d="M 18 77.76 
L 129.6 77.76 
" style="fill:none;"/>
   </g>
  </g>
 </g>
 <defs>
  <clipPath id="pcd29c79616">
   <rect height="50.4" width="111.6" x="18" y="17.28"/>
  </clipPath>
  <clipPath id="pc669faa5fe">
   <rect height="50.4" width="111.6" x="18" y="77.76"/>
  </clipPath>
 </defs>
</svg>
