<?xml version="1.0" encoding="utf-8" standalone="no"?>
<!DOCTYPE svg PUBLIC "-//W3C//DTD SVG 1.1//EN"
  "http://www.w3.org/Graphics/SVG/1.1/DTD/svg11.dtd">
<!-- Created with matplotlib (https://matplotlib.org/) -->
<svg height="144pt" version="1.1" viewBox="0 0 144 144" width="144pt" xmlns="http://www.w3.org/2000/svg" xmlns:xlink="http://www.w3.org/1999/xlink">
 <metadata>
  <rdf:RDF xmlns:cc="http://creativecommons.org/ns#" xmlns:dc="http://purl.org/dc/elements/1.1/" xmlns:rdf="http://www.w3.org/1999/02/22-rdf-syntax-ns#">
   <cc:Work>
    <dc:type rdf:resource="http://purl.org/dc/dcmitype/StillImage"/>
    <dc:date>2021-10-13T14:37:02.260873</dc:date>
    <dc:format>image/svg+xml</dc:format>
    <dc:creator>
     <cc:Agent>
      <dc:title>Matplotlib v3.3.2, https://matplotlib.org/</dc:title>
     </cc:Agent>
    </dc:creator>
   </cc:Work>
  </rdf:RDF>
 </metadata>
 <defs>
  <style type="text/css">*{stroke-linecap:butt;stroke-linejoin:round;}</style>
 </defs>
 <g id="figure_1">
  <g id="patch_1">
   <path d="M 0 144 
L 144 144 
L 144 0 
L 0 0 
z
" style="fill:none;"/>
  </g>
  <g id="axes_1">
   <g id="patch_2">
    <path d="M 18 67.68 
L 129.6 67.68 
L 129.6 17.28 
L 18 17.28 
z
" style="fill:none;"/>
   </g>
   <g id="PolyCollection_1">
    <path clip-path="url(#p23034b422f)" d="M 18 67.679999 
L 18 67.679999 
L 20.277551 67.679999 
L 22.555102 67.679999 
L 24.832653 67.679999 
L 27.110204 67.679997 
L 29.387755 67.678538 
L 31.665306 67.624463 
L 33.942857 67.375157 
L 36.220408 66.808819 
L 38.497959 65.770228 
L 40.77551 64.2189 
L 43.053061 62.10143 
L 45.330612 59.313476 
L 47.608163 55.936585 
L 49.885714 52.063952 
L 52.163265 47.922656 
L 54.440816 43.31493 
L 56.718367 38.663823 
L 58.995918 34.019949 
L 61.273469 29.682704 
L 63.55102 25.531975 
L 65.828571 22.288325 
L 68.106122 19.661319 
L 70.383673 17.855186 
L 72.661224 17.28 
L 74.938776 18.21543 
L 77.216327 19.827055 
L 79.493878 22.174447 
L 81.771429 25.58758 
L 84.04898 29.287056 
L 86.326531 33.476057 
L 88.604082 37.336786 
L 90.881633 41.788147 
L 93.159184 45.768846 
L 95.436735 49.659004 
L 97.714286 53.194014 
L 99.991837 56.503972 
L 102.269388 59.347858 
L 104.546939 61.770566 
L 106.82449 63.748414 
L 109.102041 65.28519 
L 111.379592 66.434627 
L 113.657143 67.131733 
L 115.934694 67.517838 
L 118.212245 67.657963 
L 120.489796 67.679998 
L 122.767347 67.679999 
L 125.044898 67.679999 
L 127.322449 67.679999 
L 129.6 67.679999 
L 129.6 67.679999 
L 129.6 67.679999 
L 127.322449 67.679999 
L 125.044898 67.679999 
L 122.767347 67.679999 
L 120.489796 67.68 
L 118.212245 67.676575 
L 115.934694 67.57386 
L 113.657143 67.245705 
L 111.379592 66.613195 
L 109.102041 65.584824 
L 106.82449 64.143786 
L 104.546939 62.257915 
L 102.269388 59.969679 
L 99.991837 57.258776 
L 97.714286 54.105408 
L 95.436735 50.575882 
L 93.159184 46.806457 
L 90.881633 42.811007 
L 88.604082 38.767433 
L 86.326531 34.690813 
L 84.04898 30.74499 
L 81.771429 27.088617 
L 79.493878 23.900847 
L 77.216327 21.322951 
L 74.938776 20.442048 
L 72.661224 18.93257 
L 70.383673 19.770918 
L 68.106122 21.523926 
L 65.828571 23.902522 
L 63.55102 27.368996 
L 61.273469 31.25701 
L 58.995918 35.514359 
L 56.718367 40.047797 
L 54.440816 44.603521 
L 52.163265 48.922986 
L 49.885714 53.098056 
L 47.608163 56.784771 
L 45.330612 59.973157 
L 43.053061 62.591365 
L 40.77551 64.581643 
L 38.497959 66.03442 
L 36.220408 66.951372 
L 33.942857 67.464758 
L 31.665306 67.649942 
L 29.387755 67.679878 
L 27.110204 67.679998 
L 24.832653 67.679999 
L 22.555102 67.679999 
L 20.277551 67.679999 
L 18 67.679999 
z
" style="fill:#fc8d62;fill-opacity:0.2;"/>
   </g>
   <g id="PolyCollection_2">
    <path clip-path="url(#p23034b422f)" d="M 18 67.679999 
L 18 67.679999 
L 20.277551 67.679999 
L 22.555102 67.679999 
L 24.832653 67.679999 
L 27.110204 67.679996 
L 29.387755 67.678716 
L 31.665306 67.624262 
L 33.942857 67.384007 
L 36.220408 66.827138 
L 38.497959 65.860581 
L 40.77551 64.389926 
L 43.053061 62.385753 
L 45.330612 59.77518 
L 47.608163 56.752021 
L 49.885714 53.08391 
L 52.163265 48.911719 
L 54.440816 44.445161 
L 56.718367 39.731775 
L 58.995918 34.853082 
L 61.273469 30.173423 
L 63.55102 25.583756 
L 65.828571 21.465142 
L 68.106122 18.023443 
L 70.383673 15.505797 
L 72.661224 13.840783 
L 74.938776 13.565591 
L 77.216327 14.41183 
L 79.493878 16.373655 
L 81.771429 19.428399 
L 84.04898 23.023922 
L 86.326531 27.326749 
L 88.604082 32.067352 
L 90.881633 36.818039 
L 93.159184 41.656792 
L 95.436735 46.290141 
L 97.714286 50.654856 
L 99.991837 54.612866 
L 102.269388 57.998159 
L 104.546939 61.011209 
L 106.82449 63.290118 
L 109.102041 65.08319 
L 111.379592 66.309014 
L 113.657143 67.095551 
L 115.934694 67.50963 
L 118.212245 67.65575 
L 120.489796 67.679998 
L 122.767347 67.679999 
L 125.044898 67.679999 
L 127.322449 67.679999 
L 129.6 67.679999 
L 129.6 67.679999 
L 129.6 67.679999 
L 127.322449 67.679999 
L 125.044898 67.679999 
L 122.767347 67.679999 
L 120.489796 67.679999 
L 118.212245 67.675647 
L 115.934694 67.566973 
L 113.657143 67.216132 
L 111.379592 66.51378 
L 109.102041 65.348668 
L 106.82449 63.646025 
L 104.546939 61.483073 
L 102.269388 58.672326 
L 99.991837 55.302998 
L 97.714286 51.463111 
L 95.436735 47.291436 
L 93.159184 42.761701 
L 90.881633 38.090234 
L 88.604082 33.291376 
L 86.326531 28.846159 
L 84.04898 24.691267 
L 81.771429 21.002226 
L 79.493878 17.978011 
L 77.216327 16.100119 
L 74.938776 15.854284 
L 72.661224 15.585759 
L 70.383673 17.223798 
L 68.106122 19.770338 
L 65.828571 22.907845 
L 63.55102 27.013905 
L 61.273469 31.367697 
L 58.995918 36.084231 
L 56.718367 40.754378 
L 54.440816 45.39407 
L 52.163265 49.849212 
L 49.885714 53.812009 
L 47.608163 57.353879 
L 45.330612 60.322186 
L 43.053061 62.856155 
L 40.77551 64.70741 
L 38.497959 66.064612 
L 36.220408 66.977977 
L 33.942857 67.452067 
L 31.665306 67.65116 
L 29.387755 67.679725 
L 27.110204 67.679998 
L 24.832653 67.679999 
L 22.555102 67.679999 
L 20.277551 67.679999 
L 18 67.679999 
z
" style="fill:#fc8d62;fill-opacity:0.2;"/>
   </g>
   <g id="matplotlib.axis_1">
    <g id="xtick_1">
     <g id="line2d_1">
      <defs>
       <path d="M 0 0 
L 0 3.5 
" id="mf12de1d14f" style="stroke:#a9a9a9;stroke-width:2;"/>
      </defs>
      <g>
       <use style="fill:#a9a9a9;stroke:#a9a9a9;stroke-width:2;" x="29.387755" xlink:href="#mf12de1d14f" y="67.679999"/>
      </g>
     </g>
    </g>
    <g id="xtick_2">
     <g id="line2d_2">
      <g>
       <use style="fill:#a9a9a9;stroke:#a9a9a9;stroke-width:2;" x="52.163265" xlink:href="#mf12de1d14f" y="67.679999"/>
      </g>
     </g>
    </g>
    <g id="xtick_3">
     <g id="line2d_3">
      <g>
       <use style="fill:#a9a9a9;stroke:#a9a9a9;stroke-width:2;" x="74.938776" xlink:href="#mf12de1d14f" y="67.679999"/>
      </g>
     </g>
    </g>
    <g id="xtick_4">
     <g id="line2d_4">
      <g>
       <use style="fill:#a9a9a9;stroke:#a9a9a9;stroke-width:2;" x="97.714286" xlink:href="#mf12de1d14f" y="67.679999"/>
      </g>
     </g>
    </g>
    <g id="xtick_5">
     <g id="line2d_5">
      <g>
       <use style="fill:#a9a9a9;stroke:#a9a9a9;stroke-width:2;" x="120.489796" xlink:href="#mf12de1d14f" y="67.679999"/>
      </g>
     </g>
    </g>
   </g>
   <g id="matplotlib.axis_2"/>
   <g id="line2d_6">
    <path clip-path="url(#p23034b422f)" d="M 18 67.679999 
L 20.277551 67.679999 
L 22.555102 67.679999 
L 24.832653 67.679999 
L 27.110204 67.679997 
L 29.387755 67.679208 
L 31.665306 67.637202 
L 33.942857 67.419958 
L 36.220408 66.880096 
L 38.497959 65.902324 
L 40.77551 64.400271 
L 43.053061 62.346398 
L 45.330612 59.643317 
L 47.608163 56.360678 
L 49.885714 52.581004 
L 52.163265 48.422821 
L 54.440816 43.959225 
L 56.718367 39.35581 
L 58.995918 34.767154 
L 61.273469 30.469857 
L 63.55102 26.450486 
L 65.828571 23.095424 
L 68.106122 20.592622 
L 70.383673 18.813052 
L 72.661224 18.106285 
L 74.938776 19.328739 
L 77.216327 20.575003 
L 79.493878 23.037647 
L 81.771429 26.338098 
L 84.04898 30.016023 
L 86.326531 34.083435 
L 88.604082 38.05211 
L 90.881633 42.299577 
L 93.159184 46.287652 
L 95.436735 50.117443 
L 97.714286 53.649711 
L 99.991837 56.881374 
L 102.269388 59.658768 
L 104.546939 62.014241 
L 106.82449 63.9461 
L 109.102041 65.435007 
L 111.379592 66.523911 
L 113.657143 67.188719 
L 115.934694 67.545849 
L 118.212245 67.667269 
L 120.489796 67.679999 
L 122.767347 67.679999 
L 125.044898 67.679999 
L 127.322449 67.679999 
L 129.6 67.679999 
" style="fill:none;stroke:#fc8d62;stroke-linecap:square;stroke-width:2;"/>
   </g>
   <g id="line2d_7">
    <path clip-path="url(#p23034b422f)" d="M 18 67.679999 
L 20.277551 67.679999 
L 22.555102 67.679999 
L 24.832653 67.679999 
L 27.110204 67.679997 
L 29.387755 67.679221 
L 31.665306 67.637711 
L 33.942857 67.418037 
L 36.220408 66.902558 
L 38.497959 65.962597 
L 40.77551 64.548668 
L 43.053061 62.620954 
L 45.330612 60.048683 
L 47.608163 57.05295 
L 49.885714 53.447959 
L 52.163265 49.380465 
L 54.440816 44.919616 
L 56.718367 40.243077 
L 58.995918 35.468656 
L 61.273469 30.77056 
L 63.55102 26.298831 
L 65.828571 22.186493 
L 68.106122 18.89689 
L 70.383673 16.364798 
L 72.661224 14.713271 
L 74.938776 14.709937 
L 77.216327 15.255974 
L 79.493878 17.175833 
L 81.771429 20.215312 
L 84.04898 23.857594 
L 86.326531 28.086454 
L 88.604082 32.679364 
L 90.881633 37.454137 
L 93.159184 42.209247 
L 95.436735 46.790788 
L 97.714286 51.058983 
L 99.991837 54.957932 
L 102.269388 58.335242 
L 104.546939 61.247141 
L 106.82449 63.468071 
L 109.102041 65.215929 
L 111.379592 66.411397 
L 113.657143 67.155842 
L 115.934694 67.538302 
L 118.212245 67.665699 
L 120.489796 67.679999 
L 122.767347 67.679999 
L 125.044898 67.679999 
L 127.322449 67.679999 
L 129.6 67.679999 
" style="fill:none;stroke:#fc8d62;stroke-dasharray:1.5,1.5;stroke-dashoffset:0;stroke-opacity:0.7;stroke-width:1.5;"/>
   </g>
   <g id="patch_3">
    <path d="M 74.938776 67.68 
L 74.938776 17.28 
" style="fill:none;stroke:#a9a9a9;stroke-linecap:square;stroke-linejoin:miter;stroke-width:2;"/>
   </g>
   <g id="patch_4">
    <path d="M 129.6 67.68 
L 129.6 17.28 
" style="fill:none;"/>
   </g>
   <g id="patch_5">
    <path d="M 18 67.679999 
L 129.6 67.679999 
" style="fill:none;stroke:#a9a9a9;stroke-linecap:square;stroke-linejoin:miter;stroke-width:2;"/>
   </g>
   <g id="patch_6">
    <path d="M 18 17.28 
L 129.6 17.28 
" style="fill:none;"/>
   </g>
   <g id="legend_1">
    <g id="line2d_8">
     <path d="M 55.985 47.199531 
L 69.985 47.199531 
" style="fill:none;stroke:#fc8d62;stroke-linecap:square;stroke-width:2;"/>
    </g>
    <g id="line2d_9"/>
    <g id="text_1">
     <!-- $\theta$ -->
     <g transform="translate(75.585 49.649531)scale(0.07 -0.07)">
      <defs>
       <path d="M 45.515625 34.671875 
L 14.453125 34.671875 
Q 12.359375 20.0625 14.5 13.875 
Q 17.1875 6.25 24.46875 6.25 
Q 31.78125 6.25 37.359375 13.921875 
Q 42.234375 20.65625 45.515625 34.671875 
z
M 47.015625 42.96875 
Q 48.34375 56.84375 46.625 61.71875 
Q 43.953125 69.4375 36.765625 69.4375 
Q 29.296875 69.4375 23.828125 61.8125 
Q 19.53125 55.671875 16.15625 42.96875 
z
M 38.1875 76.765625 
Q 49.90625 76.765625 54.59375 66.40625 
Q 59.28125 56.109375 55.71875 37.84375 
Q 52.203125 19.625 43.453125 9.28125 
Q 34.765625 -1.125 23.046875 -1.125 
Q 11.28125 -1.125 6.640625 9.28125 
Q 2 19.625 5.515625 37.84375 
Q 9.078125 56.109375 17.71875 66.40625 
Q 26.421875 76.765625 38.1875 76.765625 
z
" id="DejaVuSans-Oblique-952"/>
      </defs>
      <use transform="translate(0 0.234375)" xlink:href="#DejaVuSans-Oblique-952"/>
     </g>
    </g>
    <g id="line2d_10">
     <path d="M 55.985 57.474219 
L 69.985 57.474219 
" style="fill:none;stroke:#fc8d62;stroke-dasharray:1.5,1.5;stroke-dashoffset:0;stroke-opacity:0.7;stroke-width:1.5;"/>
    </g>
    <g id="line2d_11"/>
    <g id="text_2">
     <!-- No $\theta$ -->
     <g transform="translate(75.585 59.924219)scale(0.07 -0.07)">
      <defs>
       <path d="M 9.8125 72.90625 
L 23.09375 72.90625 
L 55.421875 11.921875 
L 55.421875 72.90625 
L 64.984375 72.90625 
L 64.984375 0 
L 51.703125 0 
L 19.390625 60.984375 
L 19.390625 0 
L 9.8125 0 
z
" id="DejaVuSans-78"/>
       <path d="M 30.609375 48.390625 
Q 23.390625 48.390625 19.1875 42.75 
Q 14.984375 37.109375 14.984375 27.296875 
Q 14.984375 17.484375 19.15625 11.84375 
Q 23.34375 6.203125 30.609375 6.203125 
Q 37.796875 6.203125 41.984375 11.859375 
Q 46.1875 17.53125 46.1875 27.296875 
Q 46.1875 37.015625 41.984375 42.703125 
Q 37.796875 48.390625 30.609375 48.390625 
z
M 30.609375 56 
Q 42.328125 56 49.015625 48.375 
Q 55.71875 40.765625 55.71875 27.296875 
Q 55.71875 13.875 49.015625 6.21875 
Q 42.328125 -1.421875 30.609375 -1.421875 
Q 18.84375 -1.421875 12.171875 6.21875 
Q 5.515625 13.875 5.515625 27.296875 
Q 5.515625 40.765625 12.171875 48.375 
Q 18.84375 56 30.609375 56 
z
" id="DejaVuSans-111"/>
       <path id="DejaVuSans-32"/>
      </defs>
      <use transform="translate(0 0.234375)" xlink:href="#DejaVuSans-78"/>
      <use transform="translate(74.804688 0.234375)" xlink:href="#DejaVuSans-111"/>
      <use transform="translate(135.986328 0.234375)" xlink:href="#DejaVuSans-32"/>
      <use transform="translate(167.773438 0.234375)" xlink:href="#DejaVuSans-Oblique-952"/>
     </g>
    </g>
   </g>
  </g>
  <g id="axes_2">
   <g id="patch_7">
    <path d="M 18 128.16 
L 129.6 128.16 
L 129.6 77.76 
L 18 77.76 
z
" style="fill:none;"/>
   </g>
   <g id="PolyCollection_3">
    <path clip-path="url(#p83d33b8a3d)" d="M 18 120.510579 
L 18 120.433438 
L 20.277551 120.649791 
L 22.555102 120.712183 
L 24.832653 120.628787 
L 27.110204 120.447558 
L 29.387755 120.246452 
L 31.665306 120.074839 
L 33.942857 119.791786 
L 36.220408 119.23524 
L 38.497959 118.277883 
L 40.77551 116.828433 
L 43.053061 114.835484 
L 45.330612 112.290284 
L 47.608163 109.224649 
L 49.885714 105.706846 
L 52.163265 101.837884 
L 54.440816 97.747561 
L 56.718367 93.59038 
L 58.995918 89.540901 
L 61.273469 85.788513 
L 63.55102 82.532054 
L 65.828571 79.974479 
L 68.106122 78.31801 
L 70.383673 77.76 
L 72.661224 78.489662 
L 74.938776 80.675721 
L 77.216327 84.409051 
L 79.493878 89.288183 
L 81.771429 94.86575 
L 84.04898 100.724088 
L 86.326531 106.499177 
L 88.604082 111.88981 
L 90.881633 116.662353 
L 93.159184 120.651816 
L 95.436735 123.760401 
L 97.714286 125.955004 
L 99.991837 127.262686 
L 102.269388 127.760871 
L 104.546939 127.564069 
L 106.82449 126.811976 
L 109.102041 125.659924 
L 111.379592 124.270968 
L 113.657143 122.809104 
L 115.934694 121.434081 
L 118.212245 120.299272 
L 120.489796 119.554486 
L 122.767347 119.296288 
L 125.044898 119.405613 
L 127.322449 119.719859 
L 129.6 120.098844 
L 129.6 120.199605 
L 129.6 120.199605 
L 127.322449 119.843684 
L 125.044898 119.547353 
L 122.767347 119.448813 
L 120.489796 119.713128 
L 118.212245 120.46954 
L 115.934694 121.633265 
L 113.657143 123.052442 
L 111.379592 124.563442 
L 109.102041 125.996769 
L 106.82449 127.182076 
L 104.546939 127.954032 
L 102.269388 128.16 
L 99.991837 127.669232 
L 97.714286 126.382007 
L 95.436735 124.236762 
L 93.159184 121.214825 
L 90.881633 117.346775 
L 88.604082 112.721496 
L 86.326531 107.493509 
L 84.04898 101.886219 
L 81.771429 96.191177 
L 79.493878 90.763356 
L 77.216327 86.012032 
L 74.938776 82.376946 
L 72.661224 80.253236 
L 70.383673 79.546968 
L 68.106122 80.088545 
L 65.828571 81.689786 
L 63.55102 84.156148 
L 61.273469 87.289875 
L 58.995918 90.893956 
L 56.718367 94.776734 
L 54.440816 98.756858 
L 52.163265 102.668416 
L 49.885714 106.365701 
L 47.608163 109.727472 
L 45.330612 112.66065 
L 43.053061 115.10334 
L 40.77551 117.027134 
L 38.497959 118.437722 
L 36.220408 119.37588 
L 33.942857 119.921293 
L 31.665306 120.194882 
L 29.387755 120.355554 
L 27.110204 120.541351 
L 24.832653 120.704351 
L 22.555102 120.773308 
L 20.277551 120.710676 
L 18 120.510579 
z
" style="fill:#66c2a5;fill-opacity:0.2;"/>
   </g>
   <g id="matplotlib.axis_3">
    <g id="xtick_6">
     <g id="line2d_12">
      <g>
       <use style="fill:#a9a9a9;stroke:#a9a9a9;stroke-width:2;" x="29.387755" xlink:href="#mf12de1d14f" y="122.171636"/>
      </g>
     </g>
    </g>
    <g id="xtick_7">
     <g id="line2d_13">
      <g>
       <use style="fill:#a9a9a9;stroke:#a9a9a9;stroke-width:2;" x="52.163265" xlink:href="#mf12de1d14f" y="122.171636"/>
      </g>
     </g>
    </g>
    <g id="xtick_8">
     <g id="line2d_14">
      <g>
       <use style="fill:#a9a9a9;stroke:#a9a9a9;stroke-width:2;" x="74.938776" xlink:href="#mf12de1d14f" y="122.171636"/>
      </g>
     </g>
    </g>
    <g id="xtick_9">
     <g id="line2d_15">
      <g>
       <use style="fill:#a9a9a9;stroke:#a9a9a9;stroke-width:2;" x="97.714286" xlink:href="#mf12de1d14f" y="122.171636"/>
      </g>
     </g>
    </g>
    <g id="xtick_10">
     <g id="line2d_16">
      <g>
       <use style="fill:#a9a9a9;stroke:#a9a9a9;stroke-width:2;" x="120.489796" xlink:href="#mf12de1d14f" y="122.171636"/>
      </g>
     </g>
    </g>
   </g>
   <g id="matplotlib.axis_4"/>
   <g id="line2d_17">
    <path clip-path="url(#p83d33b8a3d)" d="M 18 120.472009 
L 20.277551 120.680234 
L 22.555102 120.742746 
L 24.832653 120.666569 
L 27.110204 120.494455 
L 29.387755 120.301003 
L 31.665306 120.134861 
L 33.942857 119.856539 
L 36.220408 119.30556 
L 38.497959 118.357802 
L 40.77551 116.927784 
L 43.053061 114.969412 
L 45.330612 112.475467 
L 47.608163 109.47606 
L 49.885714 106.036273 
L 52.163265 102.25315 
L 54.440816 98.25221 
L 56.718367 94.183557 
L 58.995918 90.217429 
L 61.273469 86.539194 
L 63.55102 83.344101 
L 65.828571 80.832132 
L 68.106122 79.203278 
L 70.383673 78.653484 
L 72.661224 79.371449 
L 74.938776 81.526333 
L 77.216327 85.210542 
L 79.493878 90.025769 
L 81.771429 95.528464 
L 84.04898 101.305153 
L 86.326531 106.996343 
L 88.604082 112.305653 
L 90.881633 117.004564 
L 93.159184 120.933321 
L 95.436735 123.998581 
L 97.714286 126.168506 
L 99.991837 127.465959 
L 102.269388 127.960436 
L 104.546939 127.75905 
L 106.82449 126.997026 
L 109.102041 125.828346 
L 111.379592 124.417205 
L 113.657143 122.930773 
L 115.934694 121.533673 
L 118.212245 120.384406 
L 120.489796 119.633807 
L 122.767347 119.372551 
L 125.044898 119.476483 
L 127.322449 119.781772 
L 129.6 120.149225 
" style="fill:none;stroke:#66c2a5;stroke-linecap:square;stroke-width:2;"/>
   </g>
   <g id="patch_8">
    <path d="M 74.938776 128.16 
L 74.938776 77.76 
" style="fill:none;stroke:#a9a9a9;stroke-linecap:square;stroke-linejoin:miter;stroke-width:2;"/>
   </g>
   <g id="patch_9">
    <path d="M 129.6 128.16 
L 129.6 77.76 
" style="fill:none;"/>
   </g>
   <g id="patch_10">
    <path d="M 18 122.171636 
L 129.6 122.171636 
" style="fill:none;stroke:#a9a9a9;stroke-linecap:square;stroke-linejoin:miter;stroke-width:2;"/>
   </g>
   <g id="patch_11">
    <path d="M 18 77.76 
L 129.6 77.76 
" style="fill:none;"/>
   </g>
  </g>
 </g>
 <defs>
  <clipPath id="p23034b422f">
   <rect height="50.4" width="111.6" x="18" y="17.28"/>
  </clipPath>
  <clipPath id="p83d33b8a3d">
   <rect height="50.4" width="111.6" x="18" y="77.76"/>
  </clipPath>
 </defs>
</svg>
