<?xml version="1.0" encoding="utf-8" standalone="no"?>
<!DOCTYPE svg PUBLIC "-//W3C//DTD SVG 1.1//EN"
  "http://www.w3.org/Graphics/SVG/1.1/DTD/svg11.dtd">
<!-- Created with matplotlib (https://matplotlib.org/) -->
<svg height="144pt" version="1.1" viewBox="0 0 144 144" width="144pt" xmlns="http://www.w3.org/2000/svg" xmlns:xlink="http://www.w3.org/1999/xlink">
 <metadata>
  <rdf:RDF xmlns:cc="http://creativecommons.org/ns#" xmlns:dc="http://purl.org/dc/elements/1.1/" xmlns:rdf="http://www.w3.org/1999/02/22-rdf-syntax-ns#">
   <cc:Work>
    <dc:type rdf:resource="http://purl.org/dc/dcmitype/StillImage"/>
    <dc:date>2021-10-11T18:24:31.281429</dc:date>
    <dc:format>image/svg+xml</dc:format>
    <dc:creator>
     <cc:Agent>
      <dc:title>Matplotlib v3.3.2, https://matplotlib.org/</dc:title>
     </cc:Agent>
    </dc:creator>
   </cc:Work>
  </rdf:RDF>
 </metadata>
 <defs>
  <style type="text/css">*{stroke-linecap:butt;stroke-linejoin:round;}</style>
 </defs>
 <g id="figure_1">
  <g id="patch_1">
   <path d="M 0 144 
L 144 144 
L 144 0 
L 0 0 
z
" style="fill:none;"/>
  </g>
  <g id="axes_1">
   <g id="patch_2">
    <path d="M 18 67.68 
L 129.6 67.68 
L 129.6 17.28 
L 18 17.28 
z
" style="fill:none;"/>
   </g>
   <g id="PolyCollection_1">
    <path clip-path="url(#p014734c559)" d="M 18 65.43196 
L 18 65.43196 
L 20.277551 65.43196 
L 22.555102 65.43196 
L 24.832653 65.43196 
L 27.110204 65.43196 
L 29.387755 65.43196 
L 31.665306 65.294903 
L 33.942857 65.14542 
L 36.220408 64.595045 
L 38.497959 63.53944 
L 40.77551 62.487411 
L 43.053061 60.626437 
L 45.330612 58.165074 
L 47.608163 54.078644 
L 49.885714 51.026673 
L 52.163265 46.120887 
L 54.440816 40.395577 
L 56.718367 34.995826 
L 58.995918 30.856673 
L 61.273469 25.181446 
L 63.55102 20.237126 
L 65.828571 19.290217 
L 68.106122 17.28 
L 70.383673 18.018109 
L 72.661224 18.444597 
L 74.938776 44.575976 
L 77.216327 27.317266 
L 79.493878 32.894061 
L 81.771429 38.178071 
L 84.04898 43.060714 
L 86.326531 49.595982 
L 88.604082 53.717487 
L 90.881633 56.18873 
L 93.159184 58.815962 
L 95.436735 60.698548 
L 97.714286 59.782429 
L 99.991837 62.778275 
L 102.269388 63.159903 
L 104.546939 63.515905 
L 106.82449 63.806596 
L 109.102041 64.410519 
L 111.379592 64.800743 
L 113.657143 64.928256 
L 115.934694 65.159006 
L 118.212245 65.335836 
L 120.489796 65.431922 
L 122.767347 65.43196 
L 125.044898 65.43196 
L 127.322449 65.43196 
L 129.6 65.43196 
L 129.6 65.43196 
L 129.6 65.43196 
L 127.322449 65.43196 
L 125.044898 65.43196 
L 122.767347 65.43196 
L 120.489796 65.43204 
L 118.212245 65.524463 
L 115.934694 65.633372 
L 113.657143 65.76338 
L 111.379592 66.048 
L 109.102041 66.013104 
L 106.82449 66.185711 
L 104.546939 66.375093 
L 102.269388 67.68 
L 99.991837 66.711398 
L 97.714286 66.669839 
L 95.436735 66.678047 
L 93.159184 64.83939 
L 90.881633 61.937853 
L 88.604082 60.133359 
L 86.326531 57.57087 
L 84.04898 51.281141 
L 81.771429 46.985568 
L 79.493878 41.946254 
L 77.216327 38.598716 
L 74.938776 48.528982 
L 72.661224 28.93003 
L 70.383673 27.345888 
L 68.106122 27.384122 
L 65.828571 28.662389 
L 63.55102 28.794602 
L 61.273469 32.978145 
L 58.995918 37.244413 
L 56.718367 41.469212 
L 54.440816 46.222918 
L 52.163265 52.30785 
L 49.885714 54.683985 
L 47.608163 58.567356 
L 45.330612 61.609004 
L 43.053061 63.157801 
L 40.77551 64.362926 
L 38.497959 65.024147 
L 36.220408 65.509052 
L 33.942857 65.565253 
L 31.665306 65.527641 
L 29.387755 65.43196 
L 27.110204 65.43196 
L 24.832653 65.43196 
L 22.555102 65.43196 
L 20.277551 65.43196 
L 18 65.43196 
z
" style="fill:#fc8d62;fill-opacity:0.2;"/>
   </g>
   <g id="PolyCollection_2">
    <path clip-path="url(#p014734c559)" d="M 18 65.43196 
L 18 65.43196 
L 20.277551 65.43196 
L 22.555102 65.43196 
L 24.832653 65.43196 
L 27.110204 65.43196 
L 29.387755 65.431956 
L 31.665306 65.370511 
L 33.942857 64.941199 
L 36.220408 64.573495 
L 38.497959 63.807876 
L 40.77551 62.672038 
L 43.053061 61.232796 
L 45.330612 59.814011 
L 47.608163 57.060542 
L 49.885714 55.446709 
L 52.163265 52.821918 
L 54.440816 50.379403 
L 56.718367 47.625644 
L 58.995918 44.418519 
L 61.273469 41.157867 
L 63.55102 37.298344 
L 65.828571 35.641708 
L 68.106122 34.619436 
L 70.383673 33.453757 
L 72.661224 30.896833 
L 74.938776 49.323976 
L 77.216327 31.776881 
L 79.493878 33.518145 
L 81.771429 34.684085 
L 84.04898 37.714237 
L 86.326531 40.959717 
L 88.604082 43.193454 
L 90.881633 47.213878 
L 93.159184 48.329999 
L 95.436735 51.184949 
L 97.714286 54.477992 
L 99.991837 56.714116 
L 102.269388 58.923705 
L 104.546939 60.510388 
L 106.82449 62.525905 
L 109.102041 63.505312 
L 111.379592 64.072164 
L 113.657143 64.665251 
L 115.934694 65.072453 
L 118.212245 65.335898 
L 120.489796 65.431845 
L 122.767347 65.43196 
L 125.044898 65.43196 
L 127.322449 65.43196 
L 129.6 65.43196 
L 129.6 65.43196 
L 129.6 65.43196 
L 127.322449 65.43196 
L 125.044898 65.43196 
L 122.767347 65.43196 
L 120.489796 65.432133 
L 118.212245 65.494253 
L 115.934694 65.714379 
L 113.657143 65.674046 
L 111.379592 65.510813 
L 109.102041 65.087689 
L 106.82449 64.788204 
L 104.546939 63.506069 
L 102.269388 62.727333 
L 99.991837 60.833933 
L 97.714286 59.162222 
L 95.436735 57.538026 
L 93.159184 54.944301 
L 90.881633 51.626214 
L 88.604082 49.470567 
L 86.326531 48.397816 
L 84.04898 46.305909 
L 81.771429 43.915251 
L 79.493878 41.411804 
L 77.216327 40.883756 
L 74.938776 52.191184 
L 72.661224 41.381531 
L 70.383673 42.187606 
L 68.106122 42.297198 
L 65.828571 43.881665 
L 63.55102 44.524267 
L 61.273469 47.586505 
L 58.995918 50.877409 
L 56.718367 53.652092 
L 54.440816 55.804949 
L 52.163265 57.408245 
L 49.885714 59.676297 
L 47.608163 61.74231 
L 45.330612 63.066441 
L 43.053061 63.727865 
L 40.77551 64.620718 
L 38.497959 65.352669 
L 36.220408 65.612791 
L 33.942857 65.573287 
L 31.665306 65.491733 
L 29.387755 65.431963 
L 27.110204 65.43196 
L 24.832653 65.43196 
L 22.555102 65.43196 
L 20.277551 65.43196 
L 18 65.43196 
z
" style="fill:#fc8d62;fill-opacity:0.2;"/>
   </g>
   <g id="matplotlib.axis_1">
    <g id="xtick_1">
     <g id="line2d_1">
      <defs>
       <path d="M 0 0 
L 0 3.5 
" id="m9cc9f966ba" style="stroke:#a9a9a9;stroke-width:2;"/>
      </defs>
      <g>
       <use style="fill:#a9a9a9;stroke:#a9a9a9;stroke-width:2;" x="29.387755" xlink:href="#m9cc9f966ba" y="65.43196"/>
      </g>
     </g>
    </g>
    <g id="xtick_2">
     <g id="line2d_2">
      <g>
       <use style="fill:#a9a9a9;stroke:#a9a9a9;stroke-width:2;" x="52.163265" xlink:href="#m9cc9f966ba" y="65.43196"/>
      </g>
     </g>
    </g>
    <g id="xtick_3">
     <g id="line2d_3">
      <g>
       <use style="fill:#a9a9a9;stroke:#a9a9a9;stroke-width:2;" x="74.938776" xlink:href="#m9cc9f966ba" y="65.43196"/>
      </g>
     </g>
    </g>
    <g id="xtick_4">
     <g id="line2d_4">
      <g>
       <use style="fill:#a9a9a9;stroke:#a9a9a9;stroke-width:2;" x="97.714286" xlink:href="#m9cc9f966ba" y="65.43196"/>
      </g>
     </g>
    </g>
    <g id="xtick_5">
     <g id="line2d_5">
      <g>
       <use style="fill:#a9a9a9;stroke:#a9a9a9;stroke-width:2;" x="120.489796" xlink:href="#m9cc9f966ba" y="65.43196"/>
      </g>
     </g>
    </g>
   </g>
   <g id="matplotlib.axis_2"/>
   <g id="line2d_6">
    <path clip-path="url(#p014734c559)" d="M 18 65.43196 
L 20.277551 65.43196 
L 22.555102 65.43196 
L 24.832653 65.43196 
L 27.110204 65.43196 
L 29.387755 65.43196 
L 31.665306 65.411272 
L 33.942857 65.355337 
L 36.220408 65.052049 
L 38.497959 64.281793 
L 40.77551 63.425168 
L 43.053061 61.892119 
L 45.330612 59.887039 
L 47.608163 56.323 
L 49.885714 52.855329 
L 52.163265 49.214368 
L 54.440816 43.309247 
L 56.718367 38.232519 
L 58.995918 34.050543 
L 61.273469 29.079796 
L 63.55102 24.515864 
L 65.828571 23.976303 
L 68.106122 22.332061 
L 70.383673 22.681999 
L 72.661224 23.687313 
L 74.938776 46.552479 
L 77.216327 32.957991 
L 79.493878 37.420158 
L 81.771429 42.58182 
L 84.04898 47.170928 
L 86.326531 53.583426 
L 88.604082 56.925423 
L 90.881633 59.063291 
L 93.159184 61.827676 
L 95.436735 63.688298 
L 97.714286 63.226134 
L 99.991837 64.744837 
L 102.269388 65.419952 
L 104.546939 64.945499 
L 106.82449 64.996153 
L 109.102041 65.211812 
L 111.379592 65.424372 
L 113.657143 65.345818 
L 115.934694 65.396189 
L 118.212245 65.43015 
L 120.489796 65.431981 
L 122.767347 65.43196 
L 125.044898 65.43196 
L 127.322449 65.43196 
L 129.6 65.43196 
" style="fill:none;stroke:#fc8d62;stroke-linecap:square;stroke-width:2;"/>
   </g>
   <g id="line2d_7">
    <path clip-path="url(#p014734c559)" d="M 18 65.43196 
L 20.277551 65.43196 
L 22.555102 65.43196 
L 24.832653 65.43196 
L 27.110204 65.43196 
L 29.387755 65.431959 
L 31.665306 65.431122 
L 33.942857 65.257243 
L 36.220408 65.093143 
L 38.497959 64.580273 
L 40.77551 63.646378 
L 43.053061 62.480331 
L 45.330612 61.440226 
L 47.608163 59.401426 
L 49.885714 57.561503 
L 52.163265 55.115082 
L 54.440816 53.092176 
L 56.718367 50.638868 
L 58.995918 47.647964 
L 61.273469 44.372186 
L 63.55102 40.911306 
L 65.828571 39.761687 
L 68.106122 38.458317 
L 70.383673 37.820681 
L 72.661224 36.139182 
L 74.938776 50.75758 
L 77.216327 36.330318 
L 79.493878 37.464975 
L 81.771429 39.299668 
L 84.04898 42.010073 
L 86.326531 44.678766 
L 88.604082 46.33201 
L 90.881633 49.420046 
L 93.159184 51.63715 
L 95.436735 54.361488 
L 97.714286 56.820107 
L 99.991837 58.774024 
L 102.269388 60.825519 
L 104.546939 62.008228 
L 106.82449 63.657054 
L 109.102041 64.296501 
L 111.379592 64.791489 
L 113.657143 65.169648 
L 115.934694 65.393416 
L 118.212245 65.415075 
L 120.489796 65.431989 
L 122.767347 65.43196 
L 125.044898 65.43196 
L 127.322449 65.43196 
L 129.6 65.43196 
" style="fill:none;stroke:#fc8d62;stroke-dasharray:1.5,1.5;stroke-dashoffset:0;stroke-opacity:0.7;stroke-width:1.5;"/>
   </g>
   <g id="patch_3">
    <path d="M 74.938776 67.68 
L 74.938776 17.28 
" style="fill:none;stroke:#a9a9a9;stroke-linecap:square;stroke-linejoin:miter;stroke-width:2;"/>
   </g>
   <g id="patch_4">
    <path d="M 129.6 67.68 
L 129.6 17.28 
" style="fill:none;"/>
   </g>
   <g id="patch_5">
    <path d="M 18 65.43196 
L 129.6 65.43196 
" style="fill:none;stroke:#a9a9a9;stroke-linecap:square;stroke-linejoin:miter;stroke-width:2;"/>
   </g>
   <g id="patch_6">
    <path d="M 18 17.28 
L 129.6 17.28 
" style="fill:none;"/>
   </g>
   <g id="legend_1">
    <g id="line2d_8">
     <path d="M 87.67 26.448906 
L 101.67 26.448906 
" style="fill:none;stroke:#fc8d62;stroke-linecap:square;stroke-width:2;"/>
    </g>
    <g id="line2d_9"/>
    <g id="text_1">
     <!-- $\theta$ -->
     <g transform="translate(107.27 28.898906)scale(0.07 -0.07)">
      <defs>
       <path d="M 45.515625 34.671875 
L 14.453125 34.671875 
Q 12.359375 20.0625 14.5 13.875 
Q 17.1875 6.25 24.46875 6.25 
Q 31.78125 6.25 37.359375 13.921875 
Q 42.234375 20.65625 45.515625 34.671875 
z
M 47.015625 42.96875 
Q 48.34375 56.84375 46.625 61.71875 
Q 43.953125 69.4375 36.765625 69.4375 
Q 29.296875 69.4375 23.828125 61.8125 
Q 19.53125 55.671875 16.15625 42.96875 
z
M 38.1875 76.765625 
Q 49.90625 76.765625 54.59375 66.40625 
Q 59.28125 56.109375 55.71875 37.84375 
Q 52.203125 19.625 43.453125 9.28125 
Q 34.765625 -1.125 23.046875 -1.125 
Q 11.28125 -1.125 6.640625 9.28125 
Q 2 19.625 5.515625 37.84375 
Q 9.078125 56.109375 17.71875 66.40625 
Q 26.421875 76.765625 38.1875 76.765625 
z
" id="DejaVuSans-Oblique-952"/>
      </defs>
      <use transform="translate(0 0.234375)" xlink:href="#DejaVuSans-Oblique-952"/>
     </g>
    </g>
    <g id="line2d_10">
     <path d="M 87.67 36.723594 
L 101.67 36.723594 
" style="fill:none;stroke:#fc8d62;stroke-dasharray:1.5,1.5;stroke-dashoffset:0;stroke-opacity:0.7;stroke-width:1.5;"/>
    </g>
    <g id="line2d_11"/>
    <g id="text_2">
     <!-- No $\theta$ -->
     <g transform="translate(107.27 39.173594)scale(0.07 -0.07)">
      <defs>
       <path d="M 9.8125 72.90625 
L 23.09375 72.90625 
L 55.421875 11.921875 
L 55.421875 72.90625 
L 64.984375 72.90625 
L 64.984375 0 
L 51.703125 0 
L 19.390625 60.984375 
L 19.390625 0 
L 9.8125 0 
z
" id="DejaVuSans-78"/>
       <path d="M 30.609375 48.390625 
Q 23.390625 48.390625 19.1875 42.75 
Q 14.984375 37.109375 14.984375 27.296875 
Q 14.984375 17.484375 19.15625 11.84375 
Q 23.34375 6.203125 30.609375 6.203125 
Q 37.796875 6.203125 41.984375 11.859375 
Q 46.1875 17.53125 46.1875 27.296875 
Q 46.1875 37.015625 41.984375 42.703125 
Q 37.796875 48.390625 30.609375 48.390625 
z
M 30.609375 56 
Q 42.328125 56 49.015625 48.375 
Q 55.71875 40.765625 55.71875 27.296875 
Q 55.71875 13.875 49.015625 6.21875 
Q 42.328125 -1.421875 30.609375 -1.421875 
Q 18.84375 -1.421875 12.171875 6.21875 
Q 5.515625 13.875 5.515625 27.296875 
Q 5.515625 40.765625 12.171875 48.375 
Q 18.84375 56 30.609375 56 
z
" id="DejaVuSans-111"/>
       <path id="DejaVuSans-32"/>
      </defs>
      <use transform="translate(0 0.234375)" xlink:href="#DejaVuSans-78"/>
      <use transform="translate(74.804688 0.234375)" xlink:href="#DejaVuSans-111"/>
      <use transform="translate(135.986328 0.234375)" xlink:href="#DejaVuSans-32"/>
      <use transform="translate(167.773438 0.234375)" xlink:href="#DejaVuSans-Oblique-952"/>
     </g>
    </g>
   </g>
  </g>
  <g id="axes_2">
   <g id="patch_7">
    <path d="M 18 128.16 
L 129.6 128.16 
L 129.6 77.76 
L 18 77.76 
z
" style="fill:none;"/>
   </g>
   <g id="PolyCollection_3">
    <path clip-path="url(#pe2660716a9)" d="M 18 119.932394 
L 18 119.846903 
L 20.277551 119.980387 
L 22.555102 119.952304 
L 24.832653 119.765539 
L 27.110204 119.460999 
L 29.387755 119.108814 
L 31.665306 118.754227 
L 33.942857 118.268866 
L 36.220408 117.505319 
L 38.497959 116.350331 
L 40.77551 114.72696 
L 43.053061 112.596597 
L 45.330612 109.960391 
L 47.608163 106.857125 
L 49.885714 103.360287 
L 52.163265 99.573751 
L 54.440816 95.627577 
L 56.718367 91.67368 
L 58.995918 87.88088 
L 61.273469 84.429585 
L 63.55102 81.506407 
L 65.828571 79.29897 
L 68.106122 77.991296 
L 70.383673 77.76 
L 72.661224 78.771498 
L 74.938776 81.17089 
L 77.216327 85.02874 
L 79.493878 89.960273 
L 81.771429 95.536095 
L 84.04898 101.353965 
L 86.326531 107.062271 
L 88.604082 112.369511 
L 90.881633 117.049562 
L 93.159184 120.943496 
L 95.436735 123.959183 
L 97.714286 126.068985 
L 99.991837 127.30425 
L 102.269388 127.744017 
L 104.546939 127.502243 
L 106.82449 126.71716 
L 109.102041 125.542131 
L 111.379592 124.137378 
L 113.657143 122.663031 
L 115.934694 121.273818 
L 118.212245 120.117166 
L 120.489796 119.335602 
L 122.767347 119.019109 
L 125.044898 119.056298 
L 127.322449 119.29255 
L 129.6 119.592156 
L 129.6 119.702293 
L 129.6 119.702293 
L 127.322449 119.427436 
L 125.044898 119.210676 
L 122.767347 119.1853 
L 120.489796 119.507867 
L 118.212245 120.298875 
L 115.934694 121.480615 
L 113.657143 122.910823 
L 111.379592 124.433392 
L 109.102041 125.884038 
L 106.82449 127.09582 
L 104.546939 127.905224 
L 102.269388 128.16 
L 99.991837 127.728291 
L 97.714286 126.508392 
L 95.436735 124.437225 
L 93.159184 121.495583 
L 90.881633 117.712797 
L 88.604082 113.174436 
L 86.326531 108.029193 
L 84.04898 102.492385 
L 81.771429 96.845039 
L 79.493878 91.428806 
L 77.216327 86.636517 
L 74.938776 82.888888 
L 72.661224 80.563532 
L 70.383673 79.586413 
L 68.106122 79.811421 
L 65.828571 81.073068 
L 63.55102 83.1975 
L 61.273469 86.005163 
L 58.995918 89.31441 
L 56.718367 92.945848 
L 54.440816 96.72718 
L 52.163265 100.498259 
L 49.885714 104.115931 
L 47.608163 107.458339 
L 45.330612 110.428892 
L 43.053061 112.959619 
L 40.77551 115.013449 
L 38.497959 116.586553 
L 36.220408 117.709766 
L 33.942857 118.45145 
L 31.665306 118.918357 
L 29.387755 119.253561 
L 27.110204 119.582207 
L 24.832653 119.861315 
L 22.555102 120.02757 
L 20.277551 120.050947 
L 18 119.932394 
z
" style="fill:#66c2a5;fill-opacity:0.2;"/>
   </g>
   <g id="matplotlib.axis_3">
    <g id="xtick_6">
     <g id="line2d_12">
      <g>
       <use style="fill:#a9a9a9;stroke:#a9a9a9;stroke-width:2;" x="29.387755" xlink:href="#m9cc9f966ba" y="122.30815"/>
      </g>
     </g>
    </g>
    <g id="xtick_7">
     <g id="line2d_13">
      <g>
       <use style="fill:#a9a9a9;stroke:#a9a9a9;stroke-width:2;" x="52.163265" xlink:href="#m9cc9f966ba" y="122.30815"/>
      </g>
     </g>
    </g>
    <g id="xtick_8">
     <g id="line2d_14">
      <g>
       <use style="fill:#a9a9a9;stroke:#a9a9a9;stroke-width:2;" x="74.938776" xlink:href="#m9cc9f966ba" y="122.30815"/>
      </g>
     </g>
    </g>
    <g id="xtick_9">
     <g id="line2d_15">
      <g>
       <use style="fill:#a9a9a9;stroke:#a9a9a9;stroke-width:2;" x="97.714286" xlink:href="#m9cc9f966ba" y="122.30815"/>
      </g>
     </g>
    </g>
    <g id="xtick_10">
     <g id="line2d_16">
      <g>
       <use style="fill:#a9a9a9;stroke:#a9a9a9;stroke-width:2;" x="120.489796" xlink:href="#m9cc9f966ba" y="122.30815"/>
      </g>
     </g>
    </g>
   </g>
   <g id="matplotlib.axis_4"/>
   <g id="line2d_17">
    <path clip-path="url(#pe2660716a9)" d="M 18 119.889648 
L 20.277551 120.015667 
L 22.555102 119.989937 
L 24.832653 119.813427 
L 27.110204 119.521603 
L 29.387755 119.181187 
L 31.665306 118.836292 
L 33.942857 118.360158 
L 36.220408 117.607542 
L 38.497959 116.468442 
L 40.77551 114.870205 
L 43.053061 112.778108 
L 45.330612 110.194641 
L 47.608163 107.157732 
L 49.885714 103.738109 
L 52.163265 100.036005 
L 54.440816 96.177378 
L 56.718367 92.309764 
L 58.995918 88.597645 
L 61.273469 85.217374 
L 63.55102 82.351953 
L 65.828571 80.186019 
L 68.106122 78.901358 
L 70.383673 78.673206 
L 72.661224 79.667515 
L 74.938776 82.029889 
L 77.216327 85.832629 
L 79.493878 90.69454 
L 81.771429 96.190567 
L 84.04898 101.923175 
L 86.326531 107.545732 
L 88.604082 112.771973 
L 90.881633 117.381179 
L 93.159184 121.219539 
L 95.436735 124.198204 
L 97.714286 126.288688 
L 99.991837 127.516271 
L 102.269388 127.952008 
L 104.546939 127.703733 
L 106.82449 126.90649 
L 109.102041 125.713084 
L 111.379592 124.285385 
L 113.657143 122.786927 
L 115.934694 121.377217 
L 118.212245 120.20802 
L 120.489796 119.421734 
L 122.767347 119.102205 
L 125.044898 119.133487 
L 127.322449 119.359993 
L 129.6 119.647224 
" style="fill:none;stroke:#66c2a5;stroke-linecap:square;stroke-width:2;"/>
   </g>
   <g id="patch_8">
    <path d="M 74.938776 128.16 
L 74.938776 77.76 
" style="fill:none;stroke:#a9a9a9;stroke-linecap:square;stroke-linejoin:miter;stroke-width:2;"/>
   </g>
   <g id="patch_9">
    <path d="M 129.6 128.16 
L 129.6 77.76 
" style="fill:none;"/>
   </g>
   <g id="patch_10">
    <path d="M 18 122.30815 
L 129.6 122.30815 
" style="fill:none;stroke:#a9a9a9;stroke-linecap:square;stroke-linejoin:miter;stroke-width:2;"/>
   </g>
   <g id="patch_11">
    <path d="M 18 77.76 
L 129.6 77.76 
" style="fill:none;"/>
   </g>
  </g>
 </g>
 <defs>
  <clipPath id="p014734c559">
   <rect height="50.4" width="111.6" x="18" y="17.28"/>
  </clipPath>
  <clipPath id="pe2660716a9">
   <rect height="50.4" width="111.6" x="18" y="77.76"/>
  </clipPath>
 </defs>
</svg>
