<?xml version="1.0" encoding="utf-8" standalone="no"?>
<!DOCTYPE svg PUBLIC "-//W3C//DTD SVG 1.1//EN"
  "http://www.w3.org/Graphics/SVG/1.1/DTD/svg11.dtd">
<!-- Created with matplotlib (https://matplotlib.org/) -->
<svg height="144pt" version="1.1" viewBox="0 0 144 144" width="144pt" xmlns="http://www.w3.org/2000/svg" xmlns:xlink="http://www.w3.org/1999/xlink">
 <metadata>
  <rdf:RDF xmlns:cc="http://creativecommons.org/ns#" xmlns:dc="http://purl.org/dc/elements/1.1/" xmlns:rdf="http://www.w3.org/1999/02/22-rdf-syntax-ns#">
   <cc:Work>
    <dc:type rdf:resource="http://purl.org/dc/dcmitype/StillImage"/>
    <dc:date>2021-10-13T00:33:16.425277</dc:date>
    <dc:format>image/svg+xml</dc:format>
    <dc:creator>
     <cc:Agent>
      <dc:title>Matplotlib v3.3.2, https://matplotlib.org/</dc:title>
     </cc:Agent>
    </dc:creator>
   </cc:Work>
  </rdf:RDF>
 </metadata>
 <defs>
  <style type="text/css">*{stroke-linecap:butt;stroke-linejoin:round;}</style>
 </defs>
 <g id="figure_1">
  <g id="patch_1">
   <path d="M 0 144 
L 144 144 
L 144 0 
L 0 0 
z
" style="fill:none;"/>
  </g>
  <g id="axes_1">
   <g id="patch_2">
    <path d="M 18 67.68 
L 129.6 67.68 
L 129.6 17.28 
L 18 17.28 
z
" style="fill:none;"/>
   </g>
   <g id="PolyCollection_1">
    <path clip-path="url(#pa5ff595215)" d="M 18 67.679978 
L 18 67.679978 
L 20.277551 67.679978 
L 22.555102 67.679978 
L 24.832653 67.679978 
L 27.110204 67.679978 
L 29.387755 67.679701 
L 31.665306 67.616178 
L 33.942857 67.343625 
L 36.220408 66.669925 
L 38.497959 65.507863 
L 40.77551 63.753755 
L 43.053061 61.378686 
L 45.330612 58.358858 
L 47.608163 54.795667 
L 49.885714 50.727295 
L 52.163265 46.242059 
L 54.440816 41.594931 
L 56.718367 36.885252 
L 58.995918 32.257466 
L 61.273469 27.971207 
L 63.55102 24.264734 
L 65.828571 21.025895 
L 68.106122 18.849022 
L 70.383673 17.509084 
L 72.661224 17.28 
L 74.938776 22.159756 
L 77.216327 20.56368 
L 79.493878 23.559262 
L 81.771429 27.277673 
L 84.04898 31.319068 
L 86.326531 35.508843 
L 88.604082 39.717903 
L 90.881633 43.760819 
L 93.159184 47.565039 
L 95.436735 51.101052 
L 97.714286 54.33413 
L 99.991837 57.241999 
L 102.269388 59.797651 
L 104.546939 61.99067 
L 106.82449 63.797702 
L 109.102041 65.241561 
L 111.379592 66.348914 
L 113.657143 67.064479 
L 115.934694 67.483696 
L 118.212245 67.656191 
L 120.489796 67.679972 
L 122.767347 67.679978 
L 125.044898 67.679978 
L 127.322449 67.679978 
L 129.6 67.679978 
L 129.6 67.679978 
L 129.6 67.679978 
L 127.322449 67.679978 
L 125.044898 67.679978 
L 122.767347 67.679978 
L 120.489796 67.68 
L 118.212245 67.673894 
L 115.934694 67.532848 
L 113.657143 67.166297 
L 111.379592 66.463869 
L 109.102041 65.470792 
L 106.82449 64.068267 
L 104.546939 62.331701 
L 102.269388 60.206101 
L 99.991837 57.769497 
L 97.714286 54.993685 
L 95.436735 51.746751 
L 93.159184 48.199443 
L 90.881633 44.545439 
L 88.604082 40.552835 
L 86.326531 36.433002 
L 84.04898 32.381218 
L 81.771429 28.431768 
L 79.493878 24.689298 
L 77.216327 21.859234 
L 74.938776 23.501135 
L 72.661224 18.457653 
L 70.383673 18.812474 
L 68.106122 19.91454 
L 65.828571 22.255639 
L 63.55102 25.308922 
L 61.273469 29.001267 
L 58.995918 33.181687 
L 56.718367 37.820751 
L 54.440816 42.359693 
L 52.163265 46.988442 
L 49.885714 51.306391 
L 47.608163 55.27938 
L 45.330612 58.801653 
L 43.053061 61.723692 
L 40.77551 64.050192 
L 38.497959 65.694007 
L 36.220408 66.814051 
L 33.942857 67.404117 
L 31.665306 67.640325 
L 29.387755 67.679958 
L 27.110204 67.679978 
L 24.832653 67.679978 
L 22.555102 67.679978 
L 20.277551 67.679978 
L 18 67.679978 
z
" style="fill:#fc8d62;fill-opacity:0.2;"/>
   </g>
   <g id="PolyCollection_2">
    <path clip-path="url(#pa5ff595215)" d="M 18 67.679978 
L 18 67.679978 
L 20.277551 67.679978 
L 22.555102 67.679978 
L 24.832653 67.679978 
L 27.110204 67.679978 
L 29.387755 67.679565 
L 31.665306 67.621452 
L 33.942857 67.344579 
L 36.220408 66.713599 
L 38.497959 65.597608 
L 40.77551 63.98185 
L 43.053061 61.748293 
L 45.330612 58.963774 
L 47.608163 55.642591 
L 49.885714 51.814817 
L 52.163265 47.512268 
L 54.440816 42.826269 
L 56.718367 38.040042 
L 58.995918 33.236578 
L 61.273469 28.341769 
L 63.55102 23.857027 
L 65.828571 19.797123 
L 68.106122 16.333189 
L 70.383673 13.535973 
L 72.661224 11.825096 
L 74.938776 14.772232 
L 77.216327 12.233778 
L 79.493878 14.24967 
L 81.771429 17.21911 
L 84.04898 20.933787 
L 86.326531 25.153507 
L 88.604082 29.841001 
L 90.881633 34.646177 
L 93.159184 39.577142 
L 95.436735 44.419025 
L 97.714286 48.857613 
L 99.991837 52.982951 
L 102.269388 56.658322 
L 104.546939 59.847445 
L 106.82449 62.485653 
L 109.102041 64.50372 
L 111.379592 66.013342 
L 113.657143 66.939964 
L 115.934694 67.450033 
L 118.212245 67.653911 
L 120.489796 67.679955 
L 122.767347 67.679978 
L 125.044898 67.679978 
L 127.322449 67.679978 
L 129.6 67.679978 
L 129.6 67.679978 
L 129.6 67.679978 
L 127.322449 67.679978 
L 125.044898 67.679978 
L 122.767347 67.679978 
L 120.489796 67.680037 
L 118.212245 67.669771 
L 115.934694 67.516943 
L 113.657143 67.073787 
L 111.379592 66.190967 
L 109.102041 64.804786 
L 106.82449 62.81884 
L 104.546939 60.350997 
L 102.269388 57.257813 
L 99.991837 53.651732 
L 97.714286 49.627221 
L 95.436735 45.212265 
L 93.159184 40.526053 
L 90.881633 35.721335 
L 88.604082 31.030085 
L 86.326531 26.37268 
L 84.04898 22.078412 
L 81.771429 18.351677 
L 79.493878 15.394898 
L 77.216327 13.492546 
L 74.938776 16.079157 
L 72.661224 13.014739 
L 70.383673 14.753438 
L 68.106122 17.403334 
L 65.828571 20.837106 
L 63.55102 25.076273 
L 61.273469 29.515534 
L 58.995918 34.247306 
L 56.718367 39.100234 
L 54.440816 43.813282 
L 52.163265 48.328571 
L 49.885714 52.475643 
L 47.608163 56.2185 
L 45.330612 59.437056 
L 43.053061 62.118156 
L 40.77551 64.234557 
L 38.497959 65.827903 
L 36.220408 66.819045 
L 33.942857 67.417039 
L 31.665306 67.645158 
L 29.387755 67.679997 
L 27.110204 67.679978 
L 24.832653 67.679978 
L 22.555102 67.679978 
L 20.277551 67.679978 
L 18 67.679978 
z
" style="fill:#fc8d62;fill-opacity:0.2;"/>
   </g>
   <g id="matplotlib.axis_1">
    <g id="xtick_1">
     <g id="line2d_1">
      <defs>
       <path d="M 0 0 
L 0 3.5 
" id="md48b4fe5e6" style="stroke:#a9a9a9;stroke-width:2;"/>
      </defs>
      <g>
       <use style="fill:#a9a9a9;stroke:#a9a9a9;stroke-width:2;" x="29.387755" xlink:href="#md48b4fe5e6" y="67.679978"/>
      </g>
     </g>
    </g>
    <g id="xtick_2">
     <g id="line2d_2">
      <g>
       <use style="fill:#a9a9a9;stroke:#a9a9a9;stroke-width:2;" x="52.163265" xlink:href="#md48b4fe5e6" y="67.679978"/>
      </g>
     </g>
    </g>
    <g id="xtick_3">
     <g id="line2d_3">
      <g>
       <use style="fill:#a9a9a9;stroke:#a9a9a9;stroke-width:2;" x="74.938776" xlink:href="#md48b4fe5e6" y="67.679978"/>
      </g>
     </g>
    </g>
    <g id="xtick_4">
     <g id="line2d_4">
      <g>
       <use style="fill:#a9a9a9;stroke:#a9a9a9;stroke-width:2;" x="97.714286" xlink:href="#md48b4fe5e6" y="67.679978"/>
      </g>
     </g>
    </g>
    <g id="xtick_5">
     <g id="line2d_5">
      <g>
       <use style="fill:#a9a9a9;stroke:#a9a9a9;stroke-width:2;" x="120.489796" xlink:href="#md48b4fe5e6" y="67.679978"/>
      </g>
     </g>
    </g>
   </g>
   <g id="matplotlib.axis_2"/>
   <g id="line2d_6">
    <path clip-path="url(#pa5ff595215)" d="M 18 67.679978 
L 20.277551 67.679978 
L 22.555102 67.679978 
L 24.832653 67.679978 
L 27.110204 67.679978 
L 29.387755 67.67983 
L 31.665306 67.628251 
L 33.942857 67.373871 
L 36.220408 66.741988 
L 38.497959 65.600935 
L 40.77551 63.901974 
L 43.053061 61.551189 
L 45.330612 58.580255 
L 47.608163 55.037523 
L 49.885714 51.016843 
L 52.163265 46.61525 
L 54.440816 41.977312 
L 56.718367 37.353002 
L 58.995918 32.719576 
L 61.273469 28.486237 
L 63.55102 24.786828 
L 65.828571 21.640767 
L 68.106122 19.381781 
L 70.383673 18.160779 
L 72.661224 17.868827 
L 74.938776 22.830446 
L 77.216327 21.211457 
L 79.493878 24.12428 
L 81.771429 27.85472 
L 84.04898 31.850143 
L 86.326531 35.970922 
L 88.604082 40.135369 
L 90.881633 44.153129 
L 93.159184 47.882241 
L 95.436735 51.423901 
L 97.714286 54.663908 
L 99.991837 57.505748 
L 102.269388 60.001876 
L 104.546939 62.161186 
L 106.82449 63.932985 
L 109.102041 65.356176 
L 111.379592 66.406392 
L 113.657143 67.115388 
L 115.934694 67.508272 
L 118.212245 67.665042 
L 120.489796 67.679986 
L 122.767347 67.679978 
L 125.044898 67.679978 
L 127.322449 67.679978 
L 129.6 67.679978 
" style="fill:none;stroke:#fc8d62;stroke-linecap:square;stroke-width:2;"/>
   </g>
   <g id="line2d_7">
    <path clip-path="url(#pa5ff595215)" d="M 18 67.679978 
L 20.277551 67.679978 
L 22.555102 67.679978 
L 24.832653 67.679978 
L 27.110204 67.679978 
L 29.387755 67.679781 
L 31.665306 67.633305 
L 33.942857 67.380809 
L 36.220408 66.766322 
L 38.497959 65.712756 
L 40.77551 64.108204 
L 43.053061 61.933225 
L 45.330612 59.200415 
L 47.608163 55.930546 
L 49.885714 52.14523 
L 52.163265 47.92042 
L 54.440816 43.319776 
L 56.718367 38.570138 
L 58.995918 33.741942 
L 61.273469 28.928652 
L 63.55102 24.46665 
L 65.828571 20.317114 
L 68.106122 16.868261 
L 70.383673 14.144706 
L 72.661224 12.419917 
L 74.938776 15.425694 
L 77.216327 12.863162 
L 79.493878 14.822284 
L 81.771429 17.785393 
L 84.04898 21.506099 
L 86.326531 25.763093 
L 88.604082 30.435543 
L 90.881633 35.183756 
L 93.159184 40.051598 
L 95.436735 44.815645 
L 97.714286 49.242417 
L 99.991837 53.317342 
L 102.269388 56.958068 
L 104.546939 60.099221 
L 106.82449 62.652247 
L 109.102041 64.654253 
L 111.379592 66.102154 
L 113.657143 67.006876 
L 115.934694 67.483488 
L 118.212245 67.661841 
L 120.489796 67.679996 
L 122.767347 67.679978 
L 125.044898 67.679978 
L 127.322449 67.679978 
L 129.6 67.679978 
" style="fill:none;stroke:#fc8d62;stroke-dasharray:1.5,1.5;stroke-dashoffset:0;stroke-opacity:0.7;stroke-width:1.5;"/>
   </g>
   <g id="patch_3">
    <path d="M 74.938776 67.68 
L 74.938776 17.28 
" style="fill:none;stroke:#a9a9a9;stroke-linecap:square;stroke-linejoin:miter;stroke-width:2;"/>
   </g>
   <g id="patch_4">
    <path d="M 129.6 67.68 
L 129.6 17.28 
" style="fill:none;"/>
   </g>
   <g id="patch_5">
    <path d="M 18 67.679978 
L 129.6 67.679978 
" style="fill:none;stroke:#a9a9a9;stroke-linecap:square;stroke-linejoin:miter;stroke-width:2;"/>
   </g>
   <g id="patch_6">
    <path d="M 18 17.28 
L 129.6 17.28 
" style="fill:none;"/>
   </g>
   <g id="legend_1">
    <g id="line2d_8">
     <path d="M 55.985 47.199531 
L 69.985 47.199531 
" style="fill:none;stroke:#fc8d62;stroke-linecap:square;stroke-width:2;"/>
    </g>
    <g id="line2d_9"/>
    <g id="text_1">
     <!-- $\theta$ -->
     <g transform="translate(75.585 49.649531)scale(0.07 -0.07)">
      <defs>
       <path d="M 45.515625 34.671875 
L 14.453125 34.671875 
Q 12.359375 20.0625 14.5 13.875 
Q 17.1875 6.25 24.46875 6.25 
Q 31.78125 6.25 37.359375 13.921875 
Q 42.234375 20.65625 45.515625 34.671875 
z
M 47.015625 42.96875 
Q 48.34375 56.84375 46.625 61.71875 
Q 43.953125 69.4375 36.765625 69.4375 
Q 29.296875 69.4375 23.828125 61.8125 
Q 19.53125 55.671875 16.15625 42.96875 
z
M 38.1875 76.765625 
Q 49.90625 76.765625 54.59375 66.40625 
Q 59.28125 56.109375 55.71875 37.84375 
Q 52.203125 19.625 43.453125 9.28125 
Q 34.765625 -1.125 23.046875 -1.125 
Q 11.28125 -1.125 6.640625 9.28125 
Q 2 19.625 5.515625 37.84375 
Q 9.078125 56.109375 17.71875 66.40625 
Q 26.421875 76.765625 38.1875 76.765625 
z
" id="DejaVuSans-Oblique-952"/>
      </defs>
      <use transform="translate(0 0.234375)" xlink:href="#DejaVuSans-Oblique-952"/>
     </g>
    </g>
    <g id="line2d_10">
     <path d="M 55.985 57.474219 
L 69.985 57.474219 
" style="fill:none;stroke:#fc8d62;stroke-dasharray:1.5,1.5;stroke-dashoffset:0;stroke-opacity:0.7;stroke-width:1.5;"/>
    </g>
    <g id="line2d_11"/>
    <g id="text_2">
     <!-- No $\theta$ -->
     <g transform="translate(75.585 59.924219)scale(0.07 -0.07)">
      <defs>
       <path d="M 9.8125 72.90625 
L 23.09375 72.90625 
L 55.421875 11.921875 
L 55.421875 72.90625 
L 64.984375 72.90625 
L 64.984375 0 
L 51.703125 0 
L 19.390625 60.984375 
L 19.390625 0 
L 9.8125 0 
z
" id="DejaVuSans-78"/>
       <path d="M 30.609375 48.390625 
Q 23.390625 48.390625 19.1875 42.75 
Q 14.984375 37.109375 14.984375 27.296875 
Q 14.984375 17.484375 19.15625 11.84375 
Q 23.34375 6.203125 30.609375 6.203125 
Q 37.796875 6.203125 41.984375 11.859375 
Q 46.1875 17.53125 46.1875 27.296875 
Q 46.1875 37.015625 41.984375 42.703125 
Q 37.796875 48.390625 30.609375 48.390625 
z
M 30.609375 56 
Q 42.328125 56 49.015625 48.375 
Q 55.71875 40.765625 55.71875 27.296875 
Q 55.71875 13.875 49.015625 6.21875 
Q 42.328125 -1.421875 30.609375 -1.421875 
Q 18.84375 -1.421875 12.171875 6.21875 
Q 5.515625 13.875 5.515625 27.296875 
Q 5.515625 40.765625 12.171875 48.375 
Q 18.84375 56 30.609375 56 
z
" id="DejaVuSans-111"/>
       <path id="DejaVuSans-32"/>
      </defs>
      <use transform="translate(0 0.234375)" xlink:href="#DejaVuSans-78"/>
      <use transform="translate(74.804688 0.234375)" xlink:href="#DejaVuSans-111"/>
      <use transform="translate(135.986328 0.234375)" xlink:href="#DejaVuSans-32"/>
      <use transform="translate(167.773438 0.234375)" xlink:href="#DejaVuSans-Oblique-952"/>
     </g>
    </g>
   </g>
  </g>
  <g id="axes_2">
   <g id="patch_7">
    <path d="M 18 128.16 
L 129.6 128.16 
L 129.6 77.76 
L 18 77.76 
z
" style="fill:none;"/>
   </g>
   <g id="PolyCollection_3">
    <path clip-path="url(#p4948fa2d18)" d="M 18 120.482691 
L 18 120.407567 
L 20.277551 120.625847 
L 22.555102 120.688289 
L 24.832653 120.603576 
L 27.110204 120.420454 
L 29.387755 120.217353 
L 31.665306 120.043938 
L 33.942857 119.759234 
L 36.220408 119.201093 
L 38.497959 118.242514 
L 40.77551 116.792536 
L 43.053061 114.799584 
L 45.330612 112.254913 
L 47.608163 109.190364 
L 49.885714 105.674164 
L 52.163265 101.807164 
L 54.440816 97.719116 
L 56.718367 93.564543 
L 58.995918 89.518036 
L 61.273469 85.76905 
L 63.55102 82.516476 
L 65.828571 79.963348 
L 68.106122 78.312007 
L 70.383673 77.76 
L 72.661224 78.496828 
L 74.938776 80.691726 
L 77.216327 84.434939 
L 79.493878 89.324333 
L 81.771429 94.910879 
L 84.04898 100.77569 
L 86.326531 106.55395 
L 88.604082 111.944079 
L 90.881633 116.712391 
L 93.159184 120.694361 
L 95.436735 123.793308 
L 97.714286 125.977765 
L 99.991837 127.275842 
L 102.269388 127.76509 
L 104.546939 127.559732 
L 106.82449 126.799283 
L 109.102041 125.639183 
L 111.379592 124.242741 
L 113.657143 122.77423 
L 115.934694 121.393737 
L 118.212245 120.255314 
L 120.489796 119.509836 
L 122.767347 119.253913 
L 125.044898 119.367371 
L 127.322449 119.686305 
L 129.6 120.069615 
L 129.6 120.169759 
L 129.6 120.169759 
L 127.322449 119.811051 
L 125.044898 119.511497 
L 122.767347 119.409785 
L 120.489796 119.671398 
L 118.212245 120.425642 
L 115.934694 121.58849 
L 113.657143 123.009056 
L 111.379592 124.52419 
L 109.102041 125.964357 
L 106.82449 127.15891 
L 104.546939 127.941969 
L 102.269388 128.16 
L 99.991837 127.680899 
L 97.714286 126.403379 
L 95.436735 124.264695 
L 93.159184 121.245993 
L 90.881633 117.378429 
L 88.604082 112.751243 
L 86.326531 107.519066 
L 84.04898 101.905387 
L 81.771429 96.20211 
L 79.493878 90.764746 
L 77.216327 86.003317 
L 74.938776 82.358637 
L 72.661224 80.226079 
L 70.383673 79.512395 
L 68.106122 80.047751 
L 65.828571 81.643886 
L 63.55102 84.106219 
L 61.273469 87.236986 
L 58.995918 90.839185 
L 56.718367 94.721163 
L 54.440816 98.701581 
L 52.163265 102.614471 
L 49.885714 106.314021 
L 47.608163 109.678764 
L 45.330612 112.615242 
L 43.053061 115.061264 
L 40.77551 116.988191 
L 38.497959 118.401487 
L 36.220408 119.34161 
L 33.942857 119.888519 
L 31.665306 120.16358 
L 29.387755 120.325918 
L 27.110204 120.513296 
L 24.832653 120.67755 
L 22.555102 120.746877 
L 20.277551 120.683816 
L 18 120.482691 
z
" style="fill:#66c2a5;fill-opacity:0.2;"/>
   </g>
   <g id="matplotlib.axis_3">
    <g id="xtick_6">
     <g id="line2d_12">
      <g>
       <use style="fill:#a9a9a9;stroke:#a9a9a9;stroke-width:2;" x="29.387755" xlink:href="#md48b4fe5e6" y="122.146713"/>
      </g>
     </g>
    </g>
    <g id="xtick_7">
     <g id="line2d_13">
      <g>
       <use style="fill:#a9a9a9;stroke:#a9a9a9;stroke-width:2;" x="52.163265" xlink:href="#md48b4fe5e6" y="122.146713"/>
      </g>
     </g>
    </g>
    <g id="xtick_8">
     <g id="line2d_14">
      <g>
       <use style="fill:#a9a9a9;stroke:#a9a9a9;stroke-width:2;" x="74.938776" xlink:href="#md48b4fe5e6" y="122.146713"/>
      </g>
     </g>
    </g>
    <g id="xtick_9">
     <g id="line2d_15">
      <g>
       <use style="fill:#a9a9a9;stroke:#a9a9a9;stroke-width:2;" x="97.714286" xlink:href="#md48b4fe5e6" y="122.146713"/>
      </g>
     </g>
    </g>
    <g id="xtick_10">
     <g id="line2d_16">
      <g>
       <use style="fill:#a9a9a9;stroke:#a9a9a9;stroke-width:2;" x="120.489796" xlink:href="#md48b4fe5e6" y="122.146713"/>
      </g>
     </g>
    </g>
   </g>
   <g id="matplotlib.axis_4"/>
   <g id="line2d_17">
    <path clip-path="url(#p4948fa2d18)" d="M 18 120.445129 
L 20.277551 120.654831 
L 22.555102 120.717583 
L 24.832653 120.640563 
L 27.110204 120.466875 
L 29.387755 120.271635 
L 31.665306 120.103759 
L 33.942857 119.823877 
L 36.220408 119.271352 
L 38.497959 118.322001 
L 40.77551 116.890363 
L 43.053061 114.930424 
L 45.330612 112.435078 
L 47.608163 109.434564 
L 49.885714 105.994092 
L 52.163265 102.210818 
L 54.440816 98.210348 
L 56.718367 94.142853 
L 58.995918 90.178611 
L 61.273469 86.503018 
L 63.55102 83.311348 
L 65.828571 80.803617 
L 68.106122 79.179879 
L 70.383673 78.636197 
L 72.661224 79.361454 
L 74.938776 81.525181 
L 77.216327 85.219128 
L 79.493878 90.044539 
L 81.771429 95.556495 
L 84.04898 101.340538 
L 86.326531 107.036508 
L 88.604082 112.347661 
L 90.881633 117.04541 
L 93.159184 120.970177 
L 95.436735 124.029001 
L 97.714286 126.190572 
L 99.991837 127.47837 
L 102.269388 127.962545 
L 104.546939 127.750851 
L 106.82449 126.979097 
L 109.102041 125.80177 
L 111.379592 124.383466 
L 113.657143 122.891643 
L 115.934694 121.491113 
L 118.212245 120.340478 
L 120.489796 119.590617 
L 122.767347 119.331849 
L 125.044898 119.439434 
L 127.322449 119.748678 
L 129.6 120.119687 
" style="fill:none;stroke:#66c2a5;stroke-linecap:square;stroke-width:2;"/>
   </g>
   <g id="patch_8">
    <path d="M 74.938776 128.16 
L 74.938776 77.76 
" style="fill:none;stroke:#a9a9a9;stroke-linecap:square;stroke-linejoin:miter;stroke-width:2;"/>
   </g>
   <g id="patch_9">
    <path d="M 129.6 128.16 
L 129.6 77.76 
" style="fill:none;"/>
   </g>
   <g id="patch_10">
    <path d="M 18 122.146713 
L 129.6 122.146713 
" style="fill:none;stroke:#a9a9a9;stroke-linecap:square;stroke-linejoin:miter;stroke-width:2;"/>
   </g>
   <g id="patch_11">
    <path d="M 18 77.76 
L 129.6 77.76 
" style="fill:none;"/>
   </g>
  </g>
 </g>
 <defs>
  <clipPath id="pa5ff595215">
   <rect height="50.4" width="111.6" x="18" y="17.28"/>
  </clipPath>
  <clipPath id="p4948fa2d18">
   <rect height="50.4" width="111.6" x="18" y="77.76"/>
  </clipPath>
 </defs>
</svg>
