<?xml version="1.0" encoding="utf-8" standalone="no"?>
<!DOCTYPE svg PUBLIC "-//W3C//DTD SVG 1.1//EN"
  "http://www.w3.org/Graphics/SVG/1.1/DTD/svg11.dtd">
<!-- Created with matplotlib (https://matplotlib.org/) -->
<svg height="144pt" version="1.1" viewBox="0 0 144 144" width="144pt" xmlns="http://www.w3.org/2000/svg" xmlns:xlink="http://www.w3.org/1999/xlink">
 <metadata>
  <rdf:RDF xmlns:cc="http://creativecommons.org/ns#" xmlns:dc="http://purl.org/dc/elements/1.1/" xmlns:rdf="http://www.w3.org/1999/02/22-rdf-syntax-ns#">
   <cc:Work>
    <dc:type rdf:resource="http://purl.org/dc/dcmitype/StillImage"/>
    <dc:date>2021-10-14T21:08:31.596387</dc:date>
    <dc:format>image/svg+xml</dc:format>
    <dc:creator>
     <cc:Agent>
      <dc:title>Matplotlib v3.3.2, https://matplotlib.org/</dc:title>
     </cc:Agent>
    </dc:creator>
   </cc:Work>
  </rdf:RDF>
 </metadata>
 <defs>
  <style type="text/css">*{stroke-linecap:butt;stroke-linejoin:round;}</style>
 </defs>
 <g id="figure_1">
  <g id="patch_1">
   <path d="M 0 144 
L 144 144 
L 144 0 
L 0 0 
z
" style="fill:none;"/>
  </g>
  <g id="axes_1">
   <g id="patch_2">
    <path d="M 18 67.68 
L 129.6 67.68 
L 129.6 17.28 
L 18 17.28 
z
" style="fill:none;"/>
   </g>
   <g id="PolyCollection_1">
    <path clip-path="url(#p89b1bba53c)" d="M 18 67.665493 
L 18 67.665493 
L 20.277551 67.665493 
L 22.555102 67.665493 
L 24.832653 67.665493 
L 27.110204 67.665493 
L 29.387755 67.665493 
L 31.665306 67.633141 
L 33.942857 67.430632 
L 36.220408 66.955124 
L 38.497959 66.080285 
L 40.77551 64.668057 
L 43.053061 62.950931 
L 45.330612 60.415745 
L 47.608163 56.88307 
L 49.885714 52.9715 
L 52.163265 48.69068 
L 54.440816 43.953073 
L 56.718367 38.526683 
L 58.995918 33.207597 
L 61.273469 28.440084 
L 63.55102 24.554425 
L 65.828571 21.134155 
L 68.106122 18.21951 
L 70.383673 17.28 
L 72.661224 17.30176 
L 74.938776 20.060092 
L 77.216327 21.013972 
L 79.493878 24.346108 
L 81.771429 28.670749 
L 84.04898 33.342303 
L 86.326531 38.591968 
L 88.604082 42.233339 
L 90.881633 46.842803 
L 93.159184 50.30986 
L 95.436735 53.850611 
L 97.714286 56.83529 
L 99.991837 59.284092 
L 102.269388 61.515375 
L 104.546939 63.358515 
L 106.82449 64.724793 
L 109.102041 65.832649 
L 111.379592 66.617885 
L 113.657143 67.179885 
L 115.934694 67.441564 
L 118.212245 67.612462 
L 120.489796 67.665493 
L 122.767347 67.665493 
L 125.044898 67.665493 
L 127.322449 67.665493 
L 129.6 67.665493 
L 129.6 67.665493 
L 129.6 67.665493 
L 127.322449 67.665493 
L 125.044898 67.665493 
L 122.767347 67.665493 
L 120.489796 67.665493 
L 118.212245 67.68 
L 115.934694 67.647396 
L 113.657143 67.458017 
L 111.379592 67.086904 
L 109.102041 66.547415 
L 106.82449 65.719742 
L 104.546939 64.350794 
L 102.269388 63.155578 
L 99.991837 61.090724 
L 97.714286 58.721066 
L 95.436735 56.480226 
L 93.159184 53.165888 
L 90.881633 49.881007 
L 88.604082 45.685971 
L 86.326531 42.213635 
L 84.04898 37.743033 
L 81.771429 33.002343 
L 79.493878 29.774176 
L 77.216327 26.39816 
L 74.938776 24.050752 
L 72.661224 21.806823 
L 70.383673 22.246209 
L 68.106122 23.033806 
L 65.828571 25.342889 
L 63.55102 28.252344 
L 61.273469 32.649541 
L 58.995918 36.825567 
L 56.718367 42.017302 
L 54.440816 46.559403 
L 52.163265 51.355632 
L 49.885714 55.166869 
L 47.608163 58.855825 
L 45.330612 61.87573 
L 43.053061 64.075207 
L 40.77551 65.679619 
L 38.497959 66.764983 
L 36.220408 67.362567 
L 33.942857 67.616558 
L 31.665306 67.678151 
L 29.387755 67.665494 
L 27.110204 67.665493 
L 24.832653 67.665493 
L 22.555102 67.665493 
L 20.277551 67.665493 
L 18 67.665493 
z
" style="fill:#fc8d62;fill-opacity:0.2;"/>
   </g>
   <g id="PolyCollection_2">
    <path clip-path="url(#p89b1bba53c)" d="M 18 67.665493 
L 18 67.665493 
L 20.277551 67.665493 
L 22.555102 67.665493 
L 24.832653 67.665493 
L 27.110204 67.665493 
L 29.387755 67.665456 
L 31.665306 67.592909 
L 33.942857 67.385246 
L 36.220408 66.936095 
L 38.497959 66.289522 
L 40.77551 65.104733 
L 43.053061 63.681131 
L 45.330612 61.326857 
L 47.608163 58.907375 
L 49.885714 56.0944 
L 52.163265 52.417267 
L 54.440816 49.166079 
L 56.718367 44.806744 
L 58.995918 40.918115 
L 61.273469 35.935761 
L 63.55102 32.483091 
L 65.828571 28.156458 
L 68.106122 26.064975 
L 70.383673 23.568371 
L 72.661224 22.089459 
L 74.938776 22.159124 
L 77.216327 22.666256 
L 79.493878 24.359937 
L 81.771429 26.635939 
L 84.04898 29.910829 
L 86.326531 32.745406 
L 88.604082 36.906684 
L 90.881633 41.164706 
L 93.159184 44.99162 
L 95.436735 49.048286 
L 97.714286 52.906402 
L 99.991837 55.840058 
L 102.269388 59.070236 
L 104.546939 61.882801 
L 106.82449 63.650588 
L 109.102041 65.127343 
L 111.379592 66.281035 
L 113.657143 66.967199 
L 115.934694 67.448403 
L 118.212245 67.631641 
L 120.489796 67.665493 
L 122.767347 67.665493 
L 125.044898 67.665493 
L 127.322449 67.665493 
L 129.6 67.665493 
L 129.6 67.665493 
L 129.6 67.665493 
L 127.322449 67.665493 
L 125.044898 67.665493 
L 122.767347 67.665493 
L 120.489796 67.665493 
L 118.212245 67.693682 
L 115.934694 67.663372 
L 113.657143 67.409593 
L 111.379592 66.894308 
L 109.102041 66.123637 
L 106.82449 64.696777 
L 104.546939 63.069392 
L 102.269388 61.080802 
L 99.991837 58.220104 
L 97.714286 55.3674 
L 95.436735 51.818511 
L 93.159184 48.686298 
L 90.881633 44.5198 
L 88.604082 40.310805 
L 86.326531 36.811361 
L 84.04898 33.782835 
L 81.771429 30.248933 
L 79.493878 28.797376 
L 77.216327 26.001336 
L 74.938776 26.997191 
L 72.661224 26.836515 
L 70.383673 28.186601 
L 68.106122 30.709374 
L 65.828571 33.212356 
L 63.55102 36.575034 
L 61.273469 40.04542 
L 58.995918 43.742809 
L 56.718367 47.597112 
L 54.440816 51.884595 
L 52.163265 54.627164 
L 49.885714 58.222186 
L 47.608163 60.775582 
L 45.330612 62.939913 
L 43.053061 64.625363 
L 40.77551 65.95582 
L 38.497959 66.929133 
L 36.220408 67.407543 
L 33.942857 67.613711 
L 31.665306 67.685035 
L 29.387755 67.665521 
L 27.110204 67.665493 
L 24.832653 67.665493 
L 22.555102 67.665493 
L 20.277551 67.665493 
L 18 67.665493 
z
" style="fill:#fc8d62;fill-opacity:0.2;"/>
   </g>
   <g id="matplotlib.axis_1">
    <g id="xtick_1">
     <g id="line2d_1">
      <defs>
       <path d="M 0 0 
L 0 3.5 
" id="m7921818481" style="stroke:#a9a9a9;stroke-width:2;"/>
      </defs>
      <g>
       <use style="fill:#a9a9a9;stroke:#a9a9a9;stroke-width:2;" x="29.387755" xlink:href="#m7921818481" y="67.665493"/>
      </g>
     </g>
    </g>
    <g id="xtick_2">
     <g id="line2d_2">
      <g>
       <use style="fill:#a9a9a9;stroke:#a9a9a9;stroke-width:2;" x="52.163265" xlink:href="#m7921818481" y="67.665493"/>
      </g>
     </g>
    </g>
    <g id="xtick_3">
     <g id="line2d_3">
      <g>
       <use style="fill:#a9a9a9;stroke:#a9a9a9;stroke-width:2;" x="74.938776" xlink:href="#m7921818481" y="67.665493"/>
      </g>
     </g>
    </g>
    <g id="xtick_4">
     <g id="line2d_4">
      <g>
       <use style="fill:#a9a9a9;stroke:#a9a9a9;stroke-width:2;" x="97.714286" xlink:href="#m7921818481" y="67.665493"/>
      </g>
     </g>
    </g>
    <g id="xtick_5">
     <g id="line2d_5">
      <g>
       <use style="fill:#a9a9a9;stroke:#a9a9a9;stroke-width:2;" x="120.489796" xlink:href="#m7921818481" y="67.665493"/>
      </g>
     </g>
    </g>
   </g>
   <g id="matplotlib.axis_2"/>
   <g id="line2d_6">
    <path clip-path="url(#p89b1bba53c)" d="M 18 67.665493 
L 20.277551 67.665493 
L 22.555102 67.665493 
L 24.832653 67.665493 
L 27.110204 67.665493 
L 29.387755 67.665493 
L 31.665306 67.655646 
L 33.942857 67.523595 
L 36.220408 67.158845 
L 38.497959 66.422634 
L 40.77551 65.173838 
L 43.053061 63.513069 
L 45.330612 61.145737 
L 47.608163 57.869447 
L 49.885714 54.069184 
L 52.163265 50.023156 
L 54.440816 45.256238 
L 56.718367 40.271992 
L 58.995918 35.016582 
L 61.273469 30.544812 
L 63.55102 26.403385 
L 65.828571 23.238522 
L 68.106122 20.626658 
L 70.383673 19.763105 
L 72.661224 19.554292 
L 74.938776 22.055422 
L 77.216327 23.706066 
L 79.493878 27.060142 
L 81.771429 30.836546 
L 84.04898 35.542668 
L 86.326531 40.402802 
L 88.604082 43.959655 
L 90.881633 48.361905 
L 93.159184 51.737874 
L 95.436735 55.165419 
L 97.714286 57.778178 
L 99.991837 60.187408 
L 102.269388 62.335477 
L 104.546939 63.854655 
L 106.82449 65.222268 
L 109.102041 66.190032 
L 111.379592 66.852395 
L 113.657143 67.318951 
L 115.934694 67.54448 
L 118.212245 67.646231 
L 120.489796 67.665493 
L 122.767347 67.665493 
L 125.044898 67.665493 
L 127.322449 67.665493 
L 129.6 67.665493 
" style="fill:none;stroke:#fc8d62;stroke-linecap:square;stroke-width:2;"/>
   </g>
   <g id="line2d_7">
    <path clip-path="url(#p89b1bba53c)" d="M 18 67.665493 
L 20.277551 67.665493 
L 22.555102 67.665493 
L 24.832653 67.665493 
L 27.110204 67.665493 
L 29.387755 67.665489 
L 31.665306 67.638972 
L 33.942857 67.499478 
L 36.220408 67.171819 
L 38.497959 66.609327 
L 40.77551 65.530277 
L 43.053061 64.153247 
L 45.330612 62.133385 
L 47.608163 59.841478 
L 49.885714 57.158293 
L 52.163265 53.522215 
L 54.440816 50.525337 
L 56.718367 46.201928 
L 58.995918 42.330462 
L 61.273469 37.99059 
L 63.55102 34.529063 
L 65.828571 30.684407 
L 68.106122 28.387174 
L 70.383673 25.877486 
L 72.661224 24.462987 
L 74.938776 24.578158 
L 77.216327 24.333796 
L 79.493878 26.578657 
L 81.771429 28.442436 
L 84.04898 31.846832 
L 86.326531 34.778384 
L 88.604082 38.608745 
L 90.881633 42.842253 
L 93.159184 46.838959 
L 95.436735 50.433399 
L 97.714286 54.136901 
L 99.991837 57.030081 
L 102.269388 60.075519 
L 104.546939 62.476097 
L 106.82449 64.173683 
L 109.102041 65.62549 
L 111.379592 66.587671 
L 113.657143 67.188396 
L 115.934694 67.555887 
L 118.212245 67.662661 
L 120.489796 67.665493 
L 122.767347 67.665493 
L 125.044898 67.665493 
L 127.322449 67.665493 
L 129.6 67.665493 
" style="fill:none;stroke:#fc8d62;stroke-dasharray:1.5,1.5;stroke-dashoffset:0;stroke-opacity:0.7;stroke-width:1.5;"/>
   </g>
   <g id="patch_3">
    <path d="M 74.938776 67.68 
L 74.938776 17.28 
" style="fill:none;stroke:#a9a9a9;stroke-linecap:square;stroke-linejoin:miter;stroke-width:2;"/>
   </g>
   <g id="patch_4">
    <path d="M 129.6 67.68 
L 129.6 17.28 
" style="fill:none;"/>
   </g>
   <g id="patch_5">
    <path d="M 18 67.665493 
L 129.6 67.665493 
" style="fill:none;stroke:#a9a9a9;stroke-linecap:square;stroke-linejoin:miter;stroke-width:2;"/>
   </g>
   <g id="patch_6">
    <path d="M 18 17.28 
L 129.6 17.28 
" style="fill:none;"/>
   </g>
   <g id="legend_1">
    <g id="line2d_8">
     <path d="M 101.475312 26.448906 
L 115.475312 26.448906 
" style="fill:none;stroke:#fc8d62;stroke-linecap:square;stroke-width:2;"/>
    </g>
    <g id="line2d_9"/>
    <g id="text_1">
     <!--   -->
     <g transform="translate(121.075312 28.898906)scale(0.07 -0.07)">
      <defs>
       <path id="DejaVuSans-32"/>
      </defs>
      <use xlink:href="#DejaVuSans-32"/>
     </g>
    </g>
    <g id="line2d_10">
     <path d="M 101.475312 36.723594 
L 115.475312 36.723594 
" style="fill:none;stroke:#fc8d62;stroke-dasharray:1.5,1.5;stroke-dashoffset:0;stroke-opacity:0.7;stroke-width:1.5;"/>
    </g>
    <g id="line2d_11"/>
    <g id="text_2">
     <!--   -->
     <g transform="translate(121.075312 39.173594)scale(0.07 -0.07)">
      <use xlink:href="#DejaVuSans-32"/>
     </g>
    </g>
   </g>
  </g>
  <g id="axes_2">
   <g id="patch_7">
    <path d="M 18 128.16 
L 129.6 128.16 
L 129.6 77.76 
L 18 77.76 
z
" style="fill:none;"/>
   </g>
   <g id="PolyCollection_3">
    <path clip-path="url(#pe4f7db22e5)" d="M 18 120.605989 
L 18 120.525861 
L 20.277551 120.731341 
L 22.555102 120.799466 
L 24.832653 120.734452 
L 27.110204 120.578719 
L 29.387755 120.402748 
L 31.665306 120.24904 
L 33.942857 119.978457 
L 36.220408 119.43152 
L 38.497959 118.482241 
L 40.77551 117.039446 
L 43.053061 115.05199 
L 45.330612 112.510793 
L 47.608163 109.44698 
L 49.885714 105.927813 
L 52.163265 102.053563 
L 54.440816 97.953502 
L 56.718367 93.781998 
L 58.995918 89.713613 
L 61.273469 85.937745 
L 63.55102 82.653113 
L 65.828571 80.062175 
L 68.106122 78.366032 
L 70.383673 77.76 
L 72.661224 78.430027 
L 74.938776 80.542945 
L 77.216327 84.177943 
L 79.493878 88.957733 
L 81.771429 94.447491 
L 84.04898 100.240768 
L 86.326531 105.980387 
L 88.604082 111.367885 
L 90.881633 116.168891 
L 93.159184 120.214906 
L 95.436735 123.403272 
L 97.714286 125.695069 
L 99.991837 127.110569 
L 102.269388 127.719827 
L 104.546939 127.629999 
L 106.82449 126.97436 
L 109.102041 125.903277 
L 111.379592 124.576298 
L 113.657143 123.15507 
L 115.934694 121.797957 
L 118.212245 120.6575 
L 120.489796 119.883656 
L 122.767347 119.575844 
L 125.044898 119.627009 
L 127.322449 119.885743 
L 129.6 120.22004 
L 129.6 120.325209 
L 129.6 120.325209 
L 127.322449 120.014798 
L 125.044898 119.773914 
L 122.767347 119.732291 
L 120.489796 120.044012 
L 118.212245 120.82789 
L 115.934694 121.998523 
L 113.657143 123.404114 
L 111.379592 124.880628 
L 109.102041 126.25908 
L 106.82449 127.370867 
L 104.546939 128.053879 
L 102.269388 128.16 
L 99.991837 127.564087 
L 97.714286 126.173084 
L 95.436735 123.933216 
L 93.159184 120.834233 
L 90.881633 116.914844 
L 88.604082 112.270211 
L 86.326531 107.058054 
L 84.04898 101.501688 
L 81.771429 95.888627 
L 79.493878 90.565442 
L 77.216327 85.928536 
L 74.938776 82.403449 
L 72.661224 80.359995 
L 70.383673 79.715598 
L 68.106122 80.302819 
L 65.828571 81.937162 
L 63.55102 84.426695 
L 61.273469 87.575488 
L 58.995918 91.18784 
L 56.718367 95.073098 
L 54.440816 99.05075 
L 52.163265 102.95568 
L 49.885714 106.643027 
L 47.608163 109.992323 
L 45.330612 112.911406 
L 43.053061 115.339247 
L 40.77551 117.248538 
L 38.497959 118.64591 
L 36.220408 119.572633 
L 33.942857 120.107128 
L 31.665306 120.36819 
L 29.387755 120.511378 
L 27.110204 120.671959 
L 24.832653 120.809367 
L 22.555102 120.860294 
L 20.277551 120.793387 
L 18 120.605989 
z
" style="fill:#66c2a5;fill-opacity:0.2;"/>
   </g>
   <g id="matplotlib.axis_3">
    <g id="xtick_6">
     <g id="line2d_12">
      <g>
       <use style="fill:#a9a9a9;stroke:#a9a9a9;stroke-width:2;" x="29.387755" xlink:href="#m7921818481" y="122.295215"/>
      </g>
     </g>
    </g>
    <g id="xtick_7">
     <g id="line2d_13">
      <g>
       <use style="fill:#a9a9a9;stroke:#a9a9a9;stroke-width:2;" x="52.163265" xlink:href="#m7921818481" y="122.295215"/>
      </g>
     </g>
    </g>
    <g id="xtick_8">
     <g id="line2d_14">
      <g>
       <use style="fill:#a9a9a9;stroke:#a9a9a9;stroke-width:2;" x="74.938776" xlink:href="#m7921818481" y="122.295215"/>
      </g>
     </g>
    </g>
    <g id="xtick_9">
     <g id="line2d_15">
      <g>
       <use style="fill:#a9a9a9;stroke:#a9a9a9;stroke-width:2;" x="97.714286" xlink:href="#m7921818481" y="122.295215"/>
      </g>
     </g>
    </g>
    <g id="xtick_10">
     <g id="line2d_16">
      <g>
       <use style="fill:#a9a9a9;stroke:#a9a9a9;stroke-width:2;" x="120.489796" xlink:href="#m7921818481" y="122.295215"/>
      </g>
     </g>
    </g>
   </g>
   <g id="matplotlib.axis_4"/>
   <g id="line2d_17">
    <path clip-path="url(#pe4f7db22e5)" d="M 18 120.565925 
L 20.277551 120.762364 
L 22.555102 120.82988 
L 24.832653 120.771909 
L 27.110204 120.625339 
L 29.387755 120.457063 
L 31.665306 120.308615 
L 33.942857 120.042793 
L 36.220408 119.502077 
L 38.497959 118.564075 
L 40.77551 117.143992 
L 43.053061 115.195619 
L 45.330612 112.7111 
L 47.608163 109.719651 
L 49.885714 106.28542 
L 52.163265 102.504621 
L 54.440816 98.502126 
L 56.718367 94.427548 
L 58.995918 90.450726 
L 61.273469 86.756616 
L 63.55102 83.539904 
L 65.828571 80.999669 
L 68.106122 79.334426 
L 70.383673 78.737799 
L 72.661224 79.395011 
L 74.938776 81.473197 
L 77.216327 85.053239 
L 79.493878 89.761587 
L 81.771429 95.168059 
L 84.04898 100.871228 
L 86.326531 106.519221 
L 88.604082 111.819048 
L 90.881633 116.541867 
L 93.159184 120.524569 
L 95.436735 123.668244 
L 97.714286 125.934077 
L 99.991837 127.337328 
L 102.269388 127.939913 
L 104.546939 127.841939 
L 106.82449 127.172613 
L 109.102041 126.081179 
L 111.379592 124.728463 
L 113.657143 123.279592 
L 115.934694 121.89824 
L 118.212245 120.742695 
L 120.489796 119.963834 
L 122.767347 119.654068 
L 125.044898 119.700462 
L 127.322449 119.95027 
L 129.6 120.272625 
" style="fill:none;stroke:#66c2a5;stroke-linecap:square;stroke-width:2;"/>
   </g>
   <g id="patch_8">
    <path d="M 74.938776 128.16 
L 74.938776 77.76 
" style="fill:none;stroke:#a9a9a9;stroke-linecap:square;stroke-linejoin:miter;stroke-width:2;"/>
   </g>
   <g id="patch_9">
    <path d="M 129.6 128.16 
L 129.6 77.76 
" style="fill:none;"/>
   </g>
   <g id="patch_10">
    <path d="M 18 122.295215 
L 129.6 122.295215 
" style="fill:none;stroke:#a9a9a9;stroke-linecap:square;stroke-linejoin:miter;stroke-width:2;"/>
   </g>
   <g id="patch_11">
    <path d="M 18 77.76 
L 129.6 77.76 
" style="fill:none;"/>
   </g>
   <g id="legend_2">
    <g id="line2d_18">
     <path d="M 101.475312 86.928906 
L 115.475312 86.928906 
" style="fill:none;stroke:#66c2a5;stroke-linecap:square;stroke-width:2;"/>
    </g>
    <g id="line2d_19"/>
    <g id="text_3">
     <!--   -->
     <g transform="translate(121.075312 89.378906)scale(0.07 -0.07)">
      <use xlink:href="#DejaVuSans-32"/>
     </g>
    </g>
   </g>
  </g>
 </g>
 <defs>
  <clipPath id="p89b1bba53c">
   <rect height="50.4" width="111.6" x="18" y="17.28"/>
  </clipPath>
  <clipPath id="pe4f7db22e5">
   <rect height="50.4" width="111.6" x="18" y="77.76"/>
  </clipPath>
 </defs>
</svg>
