<?xml version="1.0" encoding="utf-8" standalone="no"?>
<!DOCTYPE svg PUBLIC "-//W3C//DTD SVG 1.1//EN"
  "http://www.w3.org/Graphics/SVG/1.1/DTD/svg11.dtd">
<!-- Created with matplotlib (https://matplotlib.org/) -->
<svg height="144pt" version="1.1" viewBox="0 0 144 144" width="144pt" xmlns="http://www.w3.org/2000/svg" xmlns:xlink="http://www.w3.org/1999/xlink">
 <metadata>
  <rdf:RDF xmlns:cc="http://creativecommons.org/ns#" xmlns:dc="http://purl.org/dc/elements/1.1/" xmlns:rdf="http://www.w3.org/1999/02/22-rdf-syntax-ns#">
   <cc:Work>
    <dc:type rdf:resource="http://purl.org/dc/dcmitype/StillImage"/>
    <dc:date>2021-10-13T14:28:19.788794</dc:date>
    <dc:format>image/svg+xml</dc:format>
    <dc:creator>
     <cc:Agent>
      <dc:title>Matplotlib v3.3.2, https://matplotlib.org/</dc:title>
     </cc:Agent>
    </dc:creator>
   </cc:Work>
  </rdf:RDF>
 </metadata>
 <defs>
  <style type="text/css">*{stroke-linecap:butt;stroke-linejoin:round;}</style>
 </defs>
 <g id="figure_1">
  <g id="patch_1">
   <path d="M 0 144 
L 144 144 
L 144 0 
L 0 0 
z
" style="fill:none;"/>
  </g>
  <g id="axes_1">
   <g id="patch_2">
    <path d="M 18 67.68 
L 129.6 67.68 
L 129.6 17.28 
L 18 17.28 
z
" style="fill:none;"/>
   </g>
   <g id="PolyCollection_1">
    <path clip-path="url(#p682cac0885)" d="M 18 67.679987 
L 18 67.679987 
L 20.277551 67.679987 
L 22.555102 67.679987 
L 24.832653 67.679987 
L 27.110204 67.679985 
L 29.387755 67.678827 
L 31.665306 67.61525 
L 33.942857 67.332321 
L 36.220408 66.678334 
L 38.497959 65.577855 
L 40.77551 63.925452 
L 43.053061 61.775678 
L 45.330612 59.038089 
L 47.608163 55.793762 
L 49.885714 52.107706 
L 52.163265 48.073241 
L 54.440816 43.794328 
L 56.718367 39.342735 
L 58.995918 34.955872 
L 61.273469 30.67543 
L 63.55102 26.715759 
L 65.828571 23.217352 
L 68.106122 20.338068 
L 70.383673 18.305736 
L 72.661224 17.28 
L 74.938776 19.690476 
L 77.216327 18.633729 
L 79.493878 20.846141 
L 81.771429 23.785525 
L 84.04898 27.397649 
L 86.326531 31.29116 
L 88.604082 35.477709 
L 90.881633 39.720592 
L 93.159184 43.849673 
L 95.436735 47.918186 
L 97.714286 51.682376 
L 99.991837 55.140105 
L 102.269388 58.243755 
L 104.546939 60.910125 
L 106.82449 63.117188 
L 109.102041 64.876973 
L 111.379592 66.165288 
L 113.657143 67.001508 
L 115.934694 67.477046 
L 118.212245 67.65631 
L 120.489796 67.679979 
L 122.767347 67.679987 
L 125.044898 67.679987 
L 127.322449 67.679987 
L 129.6 67.679987 
L 129.6 67.679987 
L 129.6 67.679987 
L 127.322449 67.679987 
L 125.044898 67.679987 
L 122.767347 67.679987 
L 120.489796 67.68 
L 118.212245 67.664071 
L 115.934694 67.510726 
L 113.657143 67.084779 
L 111.379592 66.275279 
L 109.102041 65.05571 
L 106.82449 63.354892 
L 104.546939 61.202365 
L 102.269388 58.589949 
L 99.991837 55.590843 
L 97.714286 52.185459 
L 95.436735 48.486427 
L 93.159184 44.521105 
L 90.881633 40.400677 
L 88.604082 36.25297 
L 86.326531 32.217979 
L 84.04898 28.309691 
L 81.771429 24.847323 
L 79.493878 21.850539 
L 77.216327 19.625619 
L 74.938776 20.980099 
L 72.661224 18.322671 
L 70.383673 19.395359 
L 68.106122 21.443169 
L 65.828571 24.183952 
L 63.55102 27.66441 
L 61.273469 31.573842 
L 58.995918 35.741169 
L 56.718367 40.109788 
L 54.440816 44.392995 
L 52.163265 48.641595 
L 49.885714 52.609747 
L 47.608163 56.213782 
L 45.330612 59.378781 
L 43.053061 62.020919 
L 40.77551 64.161266 
L 38.497959 65.710993 
L 36.220408 66.77326 
L 33.942857 67.376158 
L 31.665306 67.630468 
L 29.387755 67.679432 
L 27.110204 67.679986 
L 24.832653 67.679987 
L 22.555102 67.679987 
L 20.277551 67.679987 
L 18 67.679987 
z
" style="fill:#fc8d62;fill-opacity:0.2;"/>
   </g>
   <g id="PolyCollection_2">
    <path clip-path="url(#p682cac0885)" d="M 18 67.679987 
L 18 67.679987 
L 20.277551 67.679987 
L 22.555102 67.679987 
L 24.832653 67.679987 
L 27.110204 67.679984 
L 29.387755 67.678719 
L 31.665306 67.61566 
L 33.942857 67.327214 
L 36.220408 66.65675 
L 38.497959 65.538871 
L 40.77551 63.834366 
L 43.053061 61.552193 
L 45.330612 58.678088 
L 47.608163 55.246321 
L 49.885714 51.318442 
L 52.163265 46.94681 
L 54.440816 42.210971 
L 56.718367 37.249782 
L 58.995918 32.264724 
L 61.273469 27.3535 
L 63.55102 22.770915 
L 65.828571 18.433309 
L 68.106122 14.875154 
L 70.383673 12.154796 
L 72.661224 10.409679 
L 74.938776 12.06211 
L 77.216327 10.90269 
L 79.493878 12.946112 
L 81.771429 16.056835 
L 84.04898 19.893693 
L 86.326531 24.374664 
L 88.604082 29.10981 
L 90.881633 34.052513 
L 93.159184 39.037056 
L 95.436735 43.942147 
L 97.714286 48.583259 
L 99.991837 52.80758 
L 102.269388 56.544513 
L 104.546939 59.784695 
L 106.82449 62.452545 
L 109.102041 64.51377 
L 111.379592 65.999801 
L 113.657143 66.954234 
L 115.934694 67.467074 
L 118.212245 67.655563 
L 120.489796 67.679983 
L 122.767347 67.679987 
L 125.044898 67.679987 
L 127.322449 67.679987 
L 129.6 67.679987 
L 129.6 67.679987 
L 129.6 67.679987 
L 127.322449 67.679987 
L 125.044898 67.679987 
L 122.767347 67.679987 
L 120.489796 67.679996 
L 118.212245 67.664858 
L 115.934694 67.502233 
L 113.657143 67.038727 
L 111.379592 66.139046 
L 109.102041 64.727629 
L 106.82449 62.751116 
L 104.546939 60.173266 
L 102.269388 57.017394 
L 99.991837 53.323021 
L 97.714286 49.17005 
L 95.436735 44.68753 
L 93.159184 39.902603 
L 90.881633 34.972703 
L 88.604082 30.089776 
L 86.326531 25.333467 
L 84.04898 21.072282 
L 81.771429 17.305953 
L 79.493878 14.198737 
L 77.216327 12.176391 
L 74.938776 13.554804 
L 72.661224 11.657054 
L 70.383673 13.33456 
L 68.106122 16.070376 
L 65.828571 19.612239 
L 63.55102 23.736999 
L 61.273469 28.378337 
L 58.995918 33.240025 
L 56.718367 38.17057 
L 54.440816 42.984413 
L 52.163265 47.551881 
L 49.885714 51.871105 
L 47.608163 55.743188 
L 45.330612 59.097621 
L 43.053061 61.870739 
L 40.77551 64.087146 
L 38.497959 65.687544 
L 36.220408 66.768507 
L 33.942857 67.379349 
L 31.665306 67.631549 
L 29.387755 67.679392 
L 27.110204 67.679986 
L 24.832653 67.679987 
L 22.555102 67.679987 
L 20.277551 67.679987 
L 18 67.679987 
z
" style="fill:#fc8d62;fill-opacity:0.2;"/>
   </g>
   <g id="matplotlib.axis_1">
    <g id="xtick_1">
     <g id="line2d_1">
      <defs>
       <path d="M 0 0 
L 0 3.5 
" id="m9ecb1c1b41" style="stroke:#a9a9a9;stroke-width:2;"/>
      </defs>
      <g>
       <use style="fill:#a9a9a9;stroke:#a9a9a9;stroke-width:2;" x="29.387755" xlink:href="#m9ecb1c1b41" y="67.679987"/>
      </g>
     </g>
    </g>
    <g id="xtick_2">
     <g id="line2d_2">
      <g>
       <use style="fill:#a9a9a9;stroke:#a9a9a9;stroke-width:2;" x="52.163265" xlink:href="#m9ecb1c1b41" y="67.679987"/>
      </g>
     </g>
    </g>
    <g id="xtick_3">
     <g id="line2d_3">
      <g>
       <use style="fill:#a9a9a9;stroke:#a9a9a9;stroke-width:2;" x="74.938776" xlink:href="#m9ecb1c1b41" y="67.679987"/>
      </g>
     </g>
    </g>
    <g id="xtick_4">
     <g id="line2d_4">
      <g>
       <use style="fill:#a9a9a9;stroke:#a9a9a9;stroke-width:2;" x="97.714286" xlink:href="#m9ecb1c1b41" y="67.679987"/>
      </g>
     </g>
    </g>
    <g id="xtick_5">
     <g id="line2d_5">
      <g>
       <use style="fill:#a9a9a9;stroke:#a9a9a9;stroke-width:2;" x="120.489796" xlink:href="#m9ecb1c1b41" y="67.679987"/>
      </g>
     </g>
    </g>
   </g>
   <g id="matplotlib.axis_2"/>
   <g id="line2d_6">
    <path clip-path="url(#p682cac0885)" d="M 18 67.679987 
L 20.277551 67.679987 
L 22.555102 67.679987 
L 24.832653 67.679987 
L 27.110204 67.679985 
L 29.387755 67.67913 
L 31.665306 67.622859 
L 33.942857 67.354239 
L 36.220408 66.725797 
L 38.497959 65.644424 
L 40.77551 64.043359 
L 43.053061 61.898299 
L 45.330612 59.208435 
L 47.608163 56.003772 
L 49.885714 52.358727 
L 52.163265 48.357418 
L 54.440816 44.093662 
L 56.718367 39.726262 
L 58.995918 35.348521 
L 61.273469 31.124636 
L 63.55102 27.190085 
L 65.828571 23.700652 
L 68.106122 20.890619 
L 70.383673 18.850548 
L 72.661224 17.801335 
L 74.938776 20.335288 
L 77.216327 19.129674 
L 79.493878 21.34834 
L 81.771429 24.316424 
L 84.04898 27.85367 
L 86.326531 31.754569 
L 88.604082 35.865339 
L 90.881633 40.060634 
L 93.159184 44.185389 
L 95.436735 48.202307 
L 97.714286 51.933917 
L 99.991837 55.365474 
L 102.269388 58.416852 
L 104.546939 61.056245 
L 106.82449 63.23604 
L 109.102041 64.966341 
L 111.379592 66.220283 
L 113.657143 67.043144 
L 115.934694 67.493886 
L 118.212245 67.66019 
L 120.489796 67.679989 
L 122.767347 67.679987 
L 125.044898 67.679987 
L 127.322449 67.679987 
L 129.6 67.679987 
" style="fill:none;stroke:#fc8d62;stroke-linecap:square;stroke-width:2;"/>
   </g>
   <g id="line2d_7">
    <path clip-path="url(#p682cac0885)" d="M 18 67.679987 
L 20.277551 67.679987 
L 22.555102 67.679987 
L 24.832653 67.679987 
L 27.110204 67.679985 
L 29.387755 67.679055 
L 31.665306 67.623604 
L 33.942857 67.353281 
L 36.220408 66.712628 
L 38.497959 65.613207 
L 40.77551 63.960756 
L 43.053061 61.711466 
L 45.330612 58.887854 
L 47.608163 55.494754 
L 49.885714 51.594774 
L 52.163265 47.249346 
L 54.440816 42.597692 
L 56.718367 37.710176 
L 58.995918 32.752374 
L 61.273469 27.865919 
L 63.55102 23.253957 
L 65.828571 19.022774 
L 68.106122 15.472765 
L 70.383673 12.744678 
L 72.661224 11.033366 
L 74.938776 12.808457 
L 77.216327 11.539541 
L 79.493878 13.572424 
L 81.771429 16.681394 
L 84.04898 20.482987 
L 86.326531 24.854066 
L 88.604082 29.599793 
L 90.881633 34.512608 
L 93.159184 39.469829 
L 95.436735 44.314838 
L 97.714286 48.876654 
L 99.991837 53.065301 
L 102.269388 56.780954 
L 104.546939 59.97898 
L 106.82449 62.60183 
L 109.102041 64.6207 
L 111.379592 66.069424 
L 113.657143 66.99648 
L 115.934694 67.484653 
L 118.212245 67.66021 
L 120.489796 67.679989 
L 122.767347 67.679987 
L 125.044898 67.679987 
L 127.322449 67.679987 
L 129.6 67.679987 
" style="fill:none;stroke:#fc8d62;stroke-dasharray:1.5,1.5;stroke-dashoffset:0;stroke-opacity:0.7;stroke-width:1.5;"/>
   </g>
   <g id="patch_3">
    <path d="M 74.938776 67.68 
L 74.938776 17.28 
" style="fill:none;stroke:#a9a9a9;stroke-linecap:square;stroke-linejoin:miter;stroke-width:2;"/>
   </g>
   <g id="patch_4">
    <path d="M 129.6 67.68 
L 129.6 17.28 
" style="fill:none;"/>
   </g>
   <g id="patch_5">
    <path d="M 18 67.679987 
L 129.6 67.679987 
" style="fill:none;stroke:#a9a9a9;stroke-linecap:square;stroke-linejoin:miter;stroke-width:2;"/>
   </g>
   <g id="patch_6">
    <path d="M 18 17.28 
L 129.6 17.28 
" style="fill:none;"/>
   </g>
   <g id="legend_1">
    <g id="line2d_8">
     <path d="M 55.985 47.199531 
L 69.985 47.199531 
" style="fill:none;stroke:#fc8d62;stroke-linecap:square;stroke-width:2;"/>
    </g>
    <g id="line2d_9"/>
    <g id="text_1">
     <!-- $\theta$ -->
     <g transform="translate(75.585 49.649531)scale(0.07 -0.07)">
      <defs>
       <path d="M 45.515625 34.671875 
L 14.453125 34.671875 
Q 12.359375 20.0625 14.5 13.875 
Q 17.1875 6.25 24.46875 6.25 
Q 31.78125 6.25 37.359375 13.921875 
Q 42.234375 20.65625 45.515625 34.671875 
z
M 47.015625 42.96875 
Q 48.34375 56.84375 46.625 61.71875 
Q 43.953125 69.4375 36.765625 69.4375 
Q 29.296875 69.4375 23.828125 61.8125 
Q 19.53125 55.671875 16.15625 42.96875 
z
M 38.1875 76.765625 
Q 49.90625 76.765625 54.59375 66.40625 
Q 59.28125 56.109375 55.71875 37.84375 
Q 52.203125 19.625 43.453125 9.28125 
Q 34.765625 -1.125 23.046875 -1.125 
Q 11.28125 -1.125 6.640625 9.28125 
Q 2 19.625 5.515625 37.84375 
Q 9.078125 56.109375 17.71875 66.40625 
Q 26.421875 76.765625 38.1875 76.765625 
z
" id="DejaVuSans-Oblique-952"/>
      </defs>
      <use transform="translate(0 0.234375)" xlink:href="#DejaVuSans-Oblique-952"/>
     </g>
    </g>
    <g id="line2d_10">
     <path d="M 55.985 57.474219 
L 69.985 57.474219 
" style="fill:none;stroke:#fc8d62;stroke-dasharray:1.5,1.5;stroke-dashoffset:0;stroke-opacity:0.7;stroke-width:1.5;"/>
    </g>
    <g id="line2d_11"/>
    <g id="text_2">
     <!-- No $\theta$ -->
     <g transform="translate(75.585 59.924219)scale(0.07 -0.07)">
      <defs>
       <path d="M 9.8125 72.90625 
L 23.09375 72.90625 
L 55.421875 11.921875 
L 55.421875 72.90625 
L 64.984375 72.90625 
L 64.984375 0 
L 51.703125 0 
L 19.390625 60.984375 
L 19.390625 0 
L 9.8125 0 
z
" id="DejaVuSans-78"/>
       <path d="M 30.609375 48.390625 
Q 23.390625 48.390625 19.1875 42.75 
Q 14.984375 37.109375 14.984375 27.296875 
Q 14.984375 17.484375 19.15625 11.84375 
Q 23.34375 6.203125 30.609375 6.203125 
Q 37.796875 6.203125 41.984375 11.859375 
Q 46.1875 17.53125 46.1875 27.296875 
Q 46.1875 37.015625 41.984375 42.703125 
Q 37.796875 48.390625 30.609375 48.390625 
z
M 30.609375 56 
Q 42.328125 56 49.015625 48.375 
Q 55.71875 40.765625 55.71875 27.296875 
Q 55.71875 13.875 49.015625 6.21875 
Q 42.328125 -1.421875 30.609375 -1.421875 
Q 18.84375 -1.421875 12.171875 6.21875 
Q 5.515625 13.875 5.515625 27.296875 
Q 5.515625 40.765625 12.171875 48.375 
Q 18.84375 56 30.609375 56 
z
" id="DejaVuSans-111"/>
       <path id="DejaVuSans-32"/>
      </defs>
      <use transform="translate(0 0.234375)" xlink:href="#DejaVuSans-78"/>
      <use transform="translate(74.804688 0.234375)" xlink:href="#DejaVuSans-111"/>
      <use transform="translate(135.986328 0.234375)" xlink:href="#DejaVuSans-32"/>
      <use transform="translate(167.773438 0.234375)" xlink:href="#DejaVuSans-Oblique-952"/>
     </g>
    </g>
   </g>
  </g>
  <g id="axes_2">
   <g id="patch_7">
    <path d="M 18 128.16 
L 129.6 128.16 
L 129.6 77.76 
L 18 77.76 
z
" style="fill:none;"/>
   </g>
   <g id="PolyCollection_3">
    <path clip-path="url(#pe2798eb2a0)" d="M 18 120.50741 
L 18 120.425909 
L 20.277551 120.644096 
L 22.555102 120.706774 
L 24.832653 120.621688 
L 27.110204 120.437636 
L 29.387755 120.233614 
L 31.665306 120.059404 
L 33.942857 119.774393 
L 36.220408 119.216533 
L 38.497959 118.258646 
L 40.77551 116.809102 
L 43.053061 114.815966 
L 45.330612 112.270629 
L 47.608163 109.205069 
L 49.885714 105.687581 
L 52.163265 101.819097 
L 54.440816 97.729369 
L 56.718367 93.572976 
L 58.995918 89.52461 
L 61.273469 85.77384 
L 63.55102 82.519651 
L 65.828571 79.965149 
L 68.106122 78.312735 
L 70.383673 77.76 
L 72.661224 78.496496 
L 74.938776 80.69117 
L 77.216327 84.435166 
L 79.493878 89.325286 
L 81.771429 94.912646 
L 84.04898 100.77822 
L 86.326531 106.557093 
L 88.604082 111.947563 
L 90.881633 116.715894 
L 93.159184 120.697352 
L 95.436735 123.794965 
L 97.714286 125.977371 
L 99.991837 127.273519 
L 102.269388 127.761863 
L 104.546939 127.556938 
L 106.82449 126.798175 
L 109.102041 125.640733 
L 111.379592 124.247533 
L 113.657143 122.782386 
L 115.934694 121.404903 
L 118.212245 120.268842 
L 120.489796 119.525258 
L 122.767347 119.270674 
L 125.044898 119.385163 
L 127.322449 119.704712 
L 129.6 120.088162 
L 129.6 120.1957 
L 129.6 120.1957 
L 127.322449 119.837376 
L 125.044898 119.537342 
L 122.767347 119.434241 
L 120.489796 119.693646 
L 118.212245 120.445214 
L 115.934694 121.60516 
L 113.657143 123.022966 
L 111.379592 124.535467 
L 109.102041 125.972994 
L 106.82449 127.1648 
L 104.546939 127.944972 
L 102.269388 128.16 
L 99.991837 127.677926 
L 97.714286 126.39791 
L 95.436735 124.258136 
L 93.159184 121.240496 
L 90.881633 117.376057 
L 88.604082 112.753481 
L 86.326531 107.526849 
L 84.04898 101.919258 
L 81.771429 96.222188 
L 79.493878 90.790846 
L 77.216327 86.035074 
L 74.938776 82.395251 
L 72.661224 80.267619 
L 70.383673 79.557744 
L 68.106122 80.095876 
L 65.828571 81.693573 
L 63.55102 84.156181 
L 61.273469 87.285959 
L 58.995918 90.886014 
L 56.718367 94.76488 
L 54.440816 98.741473 
L 52.163265 102.650098 
L 49.885714 106.345193 
L 47.608163 109.705494 
L 45.330612 112.637822 
L 43.053061 115.080244 
L 40.77551 117.004417 
L 38.497959 118.416093 
L 36.220408 119.355493 
L 33.942857 119.902027 
L 31.665306 120.176995 
L 29.387755 120.339741 
L 27.110204 120.528222 
L 24.832653 120.694273 
L 22.555102 120.766241 
L 20.277551 120.706295 
L 18 120.50741 
z
" style="fill:#66c2a5;fill-opacity:0.2;"/>
   </g>
   <g id="matplotlib.axis_3">
    <g id="xtick_6">
     <g id="line2d_12">
      <g>
       <use style="fill:#a9a9a9;stroke:#a9a9a9;stroke-width:2;" x="29.387755" xlink:href="#m9ecb1c1b41" y="122.163306"/>
      </g>
     </g>
    </g>
    <g id="xtick_7">
     <g id="line2d_13">
      <g>
       <use style="fill:#a9a9a9;stroke:#a9a9a9;stroke-width:2;" x="52.163265" xlink:href="#m9ecb1c1b41" y="122.163306"/>
      </g>
     </g>
    </g>
    <g id="xtick_8">
     <g id="line2d_14">
      <g>
       <use style="fill:#a9a9a9;stroke:#a9a9a9;stroke-width:2;" x="74.938776" xlink:href="#m9ecb1c1b41" y="122.163306"/>
      </g>
     </g>
    </g>
    <g id="xtick_9">
     <g id="line2d_15">
      <g>
       <use style="fill:#a9a9a9;stroke:#a9a9a9;stroke-width:2;" x="97.714286" xlink:href="#m9ecb1c1b41" y="122.163306"/>
      </g>
     </g>
    </g>
    <g id="xtick_10">
     <g id="line2d_16">
      <g>
       <use style="fill:#a9a9a9;stroke:#a9a9a9;stroke-width:2;" x="120.489796" xlink:href="#m9ecb1c1b41" y="122.163306"/>
      </g>
     </g>
    </g>
   </g>
   <g id="matplotlib.axis_4"/>
   <g id="line2d_17">
    <path clip-path="url(#pe2798eb2a0)" d="M 18 120.46666 
L 20.277551 120.675196 
L 22.555102 120.736508 
L 24.832653 120.65798 
L 27.110204 120.482929 
L 29.387755 120.286677 
L 31.665306 120.1182 
L 33.942857 119.83821 
L 36.220408 119.286013 
L 38.497959 118.337369 
L 40.77551 116.906759 
L 43.053061 114.948105 
L 45.330612 112.454226 
L 47.608163 109.455281 
L 49.885714 106.016387 
L 52.163265 102.234598 
L 54.440816 98.235421 
L 56.718367 94.168928 
L 58.995918 90.205312 
L 61.273469 86.5299 
L 63.55102 83.337916 
L 65.828571 80.829361 
L 68.106122 79.204305 
L 70.383673 78.658872 
L 72.661224 79.382058 
L 74.938776 81.54321 
L 77.216327 85.23512 
L 79.493878 90.058066 
L 81.771429 95.567417 
L 84.04898 101.348739 
L 86.326531 107.041971 
L 88.604082 112.350522 
L 90.881633 117.045975 
L 93.159184 120.968924 
L 95.436735 124.026551 
L 97.714286 126.187641 
L 99.991837 127.475723 
L 102.269388 127.960931 
L 104.546939 127.750955 
L 106.82449 126.981488 
L 109.102041 125.806863 
L 111.379592 124.3915 
L 113.657143 122.902676 
L 115.934694 121.505032 
L 118.212245 120.357028 
L 120.489796 119.609452 
L 122.767347 119.352458 
L 125.044898 119.461253 
L 127.322449 119.771044 
L 129.6 120.141931 
" style="fill:none;stroke:#66c2a5;stroke-linecap:square;stroke-width:2;"/>
   </g>
   <g id="patch_8">
    <path d="M 74.938776 128.16 
L 74.938776 77.76 
" style="fill:none;stroke:#a9a9a9;stroke-linecap:square;stroke-linejoin:miter;stroke-width:2;"/>
   </g>
   <g id="patch_9">
    <path d="M 129.6 128.16 
L 129.6 77.76 
" style="fill:none;"/>
   </g>
   <g id="patch_10">
    <path d="M 18 122.163306 
L 129.6 122.163306 
" style="fill:none;stroke:#a9a9a9;stroke-linecap:square;stroke-linejoin:miter;stroke-width:2;"/>
   </g>
   <g id="patch_11">
    <path d="M 18 77.76 
L 129.6 77.76 
" style="fill:none;"/>
   </g>
  </g>
 </g>
 <defs>
  <clipPath id="p682cac0885">
   <rect height="50.4" width="111.6" x="18" y="17.28"/>
  </clipPath>
  <clipPath id="pe2798eb2a0">
   <rect height="50.4" width="111.6" x="18" y="77.76"/>
  </clipPath>
 </defs>
</svg>
