<?xml version="1.0" encoding="utf-8" standalone="no"?>
<!DOCTYPE svg PUBLIC "-//W3C//DTD SVG 1.1//EN"
  "http://www.w3.org/Graphics/SVG/1.1/DTD/svg11.dtd">
<!-- Created with matplotlib (https://matplotlib.org/) -->
<svg height="144pt" version="1.1" viewBox="0 0 144 144" width="144pt" xmlns="http://www.w3.org/2000/svg" xmlns:xlink="http://www.w3.org/1999/xlink">
 <metadata>
  <rdf:RDF xmlns:cc="http://creativecommons.org/ns#" xmlns:dc="http://purl.org/dc/elements/1.1/" xmlns:rdf="http://www.w3.org/1999/02/22-rdf-syntax-ns#">
   <cc:Work>
    <dc:type rdf:resource="http://purl.org/dc/dcmitype/StillImage"/>
    <dc:date>2021-10-14T22:28:36.593309</dc:date>
    <dc:format>image/svg+xml</dc:format>
    <dc:creator>
     <cc:Agent>
      <dc:title>Matplotlib v3.3.2, https://matplotlib.org/</dc:title>
     </cc:Agent>
    </dc:creator>
   </cc:Work>
  </rdf:RDF>
 </metadata>
 <defs>
  <style type="text/css">*{stroke-linecap:butt;stroke-linejoin:round;}</style>
 </defs>
 <g id="figure_1">
  <g id="patch_1">
   <path d="M 0 144 
L 144 144 
L 144 0 
L 0 0 
z
" style="fill:none;"/>
  </g>
  <g id="axes_1">
   <g id="patch_2">
    <path d="M 18 67.68 
L 129.6 67.68 
L 129.6 17.28 
L 18 17.28 
z
" style="fill:none;"/>
   </g>
   <g id="PolyCollection_1">
    <path clip-path="url(#p5f36e1f51e)" d="M 18 18.725799 
L 18 18.725799 
L 20.277551 18.725799 
L 22.555102 18.725799 
L 24.832653 18.725799 
L 27.110204 18.725799 
L 29.387755 18.725782 
L 31.665306 18.655784 
L 33.942857 18.63716 
L 36.220408 18.585649 
L 38.497959 18.435683 
L 40.77551 18.732288 
L 43.053061 18.651007 
L 45.330612 18.591672 
L 47.608163 18.093521 
L 49.885714 17.586226 
L 52.163265 17.636243 
L 54.440816 17.28 
L 56.718367 18.844711 
L 58.995918 19.190616 
L 61.273469 20.785486 
L 63.55102 23.59075 
L 65.828571 28.737468 
L 68.106122 31.388575 
L 70.383673 37.87734 
L 72.661224 42.866669 
L 74.938776 51.337228 
L 77.216327 53.963405 
L 79.493878 56.58499 
L 81.771429 59.590061 
L 84.04898 60.466872 
L 86.326531 59.58814 
L 88.604082 56.69009 
L 90.881633 52.969423 
L 93.159184 48.909839 
L 95.436735 44.199755 
L 97.714286 38.471159 
L 99.991837 34.043286 
L 102.269388 29.483397 
L 104.546939 26.054219 
L 106.82449 23.053793 
L 109.102041 21.096088 
L 111.379592 19.901603 
L 113.657143 19.104879 
L 115.934694 18.774755 
L 118.212245 18.686711 
L 120.489796 18.72568 
L 122.767347 18.725799 
L 125.044898 18.725799 
L 127.322449 18.725799 
L 129.6 18.725799 
L 129.6 18.725799 
L 129.6 18.725799 
L 127.322449 18.725799 
L 125.044898 18.725799 
L 122.767347 18.725799 
L 120.489796 18.725991 
L 118.212245 18.830094 
L 115.934694 19.062436 
L 113.657143 19.697695 
L 111.379592 20.876465 
L 109.102041 22.210807 
L 106.82449 24.674914 
L 104.546939 28.029408 
L 102.269388 32.315487 
L 99.991837 37.361012 
L 97.714286 42.516254 
L 95.436735 48.832396 
L 93.159184 52.714265 
L 90.881633 58.677113 
L 88.604082 62.847072 
L 86.326531 65.95257 
L 84.04898 66.01192 
L 81.771429 67.68 
L 79.493878 64.155078 
L 77.216327 61.606064 
L 74.938776 53.538319 
L 72.661224 49.98246 
L 70.383673 45.059772 
L 68.106122 39.207882 
L 65.828571 33.623087 
L 63.55102 29.571771 
L 61.273469 26.794792 
L 58.995918 24.080528 
L 56.718367 22.565202 
L 54.440816 21.059873 
L 52.163265 21.189421 
L 49.885714 20.644421 
L 47.608163 20.533718 
L 45.330612 20.198199 
L 43.053061 20.250395 
L 40.77551 19.84841 
L 38.497959 19.376487 
L 36.220408 19.128895 
L 33.942857 18.90221 
L 31.665306 18.790946 
L 29.387755 18.725811 
L 27.110204 18.725799 
L 24.832653 18.725799 
L 22.555102 18.725799 
L 20.277551 18.725799 
L 18 18.725799 
z
" style="fill:#fc8d62;fill-opacity:0.2;"/>
   </g>
   <g id="PolyCollection_2">
    <path clip-path="url(#p5f36e1f51e)" d="M 18 18.725799 
L 18 18.725799 
L 20.277551 18.725799 
L 22.555102 18.725799 
L 24.832653 18.725799 
L 27.110204 18.725799 
L 29.387755 18.725392 
L 31.665306 18.684159 
L 33.942857 18.619299 
L 36.220408 18.706253 
L 38.497959 19.170105 
L 40.77551 19.473425 
L 43.053061 20.381559 
L 45.330612 21.862351 
L 47.608163 23.444076 
L 49.885714 25.358085 
L 52.163265 28.019532 
L 54.440816 30.809994 
L 56.718367 33.100799 
L 58.995918 36.56635 
L 61.273469 39.287961 
L 63.55102 42.754966 
L 65.828571 45.548546 
L 68.106122 47.31496 
L 70.383673 49.803891 
L 72.661224 50.742136 
L 74.938776 52.957988 
L 77.216327 52.321429 
L 79.493878 49.967004 
L 81.771429 47.792948 
L 84.04898 46.247756 
L 86.326531 43.385961 
L 88.604082 40.987894 
L 90.881633 38.325344 
L 93.159184 34.867293 
L 95.436735 31.368232 
L 97.714286 29.194831 
L 99.991837 26.761649 
L 102.269388 24.368539 
L 104.546939 22.333136 
L 106.82449 21.185569 
L 109.102041 19.931315 
L 111.379592 19.121564 
L 113.657143 18.931692 
L 115.934694 18.698739 
L 118.212245 18.683608 
L 120.489796 18.72478 
L 122.767347 18.725799 
L 125.044898 18.725799 
L 127.322449 18.725799 
L 129.6 18.725799 
L 129.6 18.725799 
L 129.6 18.725799 
L 127.322449 18.725799 
L 125.044898 18.725799 
L 122.767347 18.725799 
L 120.489796 18.727214 
L 118.212245 18.804577 
L 115.934694 19.067613 
L 113.657143 19.490898 
L 111.379592 20.128588 
L 109.102041 21.419067 
L 106.82449 22.754973 
L 104.546939 24.490225 
L 102.269388 26.681749 
L 99.991837 29.311835 
L 97.714286 31.998959 
L 95.436735 34.989299 
L 93.159184 39.185786 
L 90.881633 41.716256 
L 88.604082 45.427432 
L 86.326531 48.499289 
L 84.04898 51.336869 
L 81.771429 54.156731 
L 79.493878 55.813757 
L 77.216327 56.504176 
L 74.938776 55.316663 
L 72.661224 55.890029 
L 70.383673 55.018487 
L 68.106122 53.828339 
L 65.828571 50.031064 
L 63.55102 47.783597 
L 61.273469 44.139861 
L 58.995918 40.134795 
L 56.718367 37.067536 
L 54.440816 34.737743 
L 52.163265 30.703454 
L 49.885714 28.075674 
L 47.608163 25.697135 
L 45.330612 23.771775 
L 43.053061 22.024356 
L 40.77551 20.984258 
L 38.497959 20.072703 
L 36.220408 19.302127 
L 33.942857 18.970489 
L 31.665306 18.794489 
L 29.387755 18.7261 
L 27.110204 18.725799 
L 24.832653 18.725799 
L 22.555102 18.725799 
L 20.277551 18.725799 
L 18 18.725799 
z
" style="fill:#fc8d62;fill-opacity:0.2;"/>
   </g>
   <g id="matplotlib.axis_1">
    <g id="xtick_1">
     <g id="line2d_1">
      <defs>
       <path d="M 0 0 
L 0 3.5 
" id="m0169b37573" style="stroke:#a9a9a9;stroke-width:2;"/>
      </defs>
      <g>
       <use style="fill:#a9a9a9;stroke:#a9a9a9;stroke-width:2;" x="29.387755" xlink:href="#m0169b37573" y="18.725799"/>
      </g>
     </g>
    </g>
    <g id="xtick_2">
     <g id="line2d_2">
      <g>
       <use style="fill:#a9a9a9;stroke:#a9a9a9;stroke-width:2;" x="52.163265" xlink:href="#m0169b37573" y="18.725799"/>
      </g>
     </g>
    </g>
    <g id="xtick_3">
     <g id="line2d_3">
      <g>
       <use style="fill:#a9a9a9;stroke:#a9a9a9;stroke-width:2;" x="74.938776" xlink:href="#m0169b37573" y="18.725799"/>
      </g>
     </g>
    </g>
    <g id="xtick_4">
     <g id="line2d_4">
      <g>
       <use style="fill:#a9a9a9;stroke:#a9a9a9;stroke-width:2;" x="97.714286" xlink:href="#m0169b37573" y="18.725799"/>
      </g>
     </g>
    </g>
    <g id="xtick_5">
     <g id="line2d_5">
      <g>
       <use style="fill:#a9a9a9;stroke:#a9a9a9;stroke-width:2;" x="120.489796" xlink:href="#m0169b37573" y="18.725799"/>
      </g>
     </g>
    </g>
   </g>
   <g id="matplotlib.axis_2"/>
   <g id="line2d_6">
    <path clip-path="url(#p5f36e1f51e)" d="M 18 18.725799 
L 20.277551 18.725799 
L 22.555102 18.725799 
L 24.832653 18.725799 
L 27.110204 18.725799 
L 29.387755 18.725796 
L 31.665306 18.723365 
L 33.942857 18.769685 
L 36.220408 18.857272 
L 38.497959 18.906085 
L 40.77551 19.290349 
L 43.053061 19.450701 
L 45.330612 19.394936 
L 47.608163 19.313619 
L 49.885714 19.115324 
L 52.163265 19.412832 
L 54.440816 19.169937 
L 56.718367 20.704956 
L 58.995918 21.635572 
L 61.273469 23.790139 
L 63.55102 26.581261 
L 65.828571 31.180278 
L 68.106122 35.298229 
L 70.383673 41.468556 
L 72.661224 46.424564 
L 74.938776 52.437774 
L 77.216327 57.784734 
L 79.493878 60.370034 
L 81.771429 63.63503 
L 84.04898 63.239396 
L 86.326531 62.770355 
L 88.604082 59.768581 
L 90.881633 55.823268 
L 93.159184 50.812052 
L 95.436735 46.516076 
L 97.714286 40.493706 
L 99.991837 35.702149 
L 102.269388 30.899442 
L 104.546939 27.041814 
L 106.82449 23.864354 
L 109.102041 21.653447 
L 111.379592 20.389034 
L 113.657143 19.401287 
L 115.934694 18.918595 
L 118.212245 18.758403 
L 120.489796 18.725836 
L 122.767347 18.725799 
L 125.044898 18.725799 
L 127.322449 18.725799 
L 129.6 18.725799 
" style="fill:none;stroke:#fc8d62;stroke-linecap:square;stroke-width:2;"/>
   </g>
   <g id="line2d_7">
    <path clip-path="url(#p5f36e1f51e)" d="M 18 18.725799 
L 20.277551 18.725799 
L 22.555102 18.725799 
L 24.832653 18.725799 
L 27.110204 18.725799 
L 29.387755 18.725746 
L 31.665306 18.739324 
L 33.942857 18.794894 
L 36.220408 19.00419 
L 38.497959 19.621404 
L 40.77551 20.228842 
L 43.053061 21.202958 
L 45.330612 22.817063 
L 47.608163 24.570605 
L 49.885714 26.71688 
L 52.163265 29.361493 
L 54.440816 32.773869 
L 56.718367 35.084167 
L 58.995918 38.350573 
L 61.273469 41.713911 
L 63.55102 45.269281 
L 65.828571 47.789805 
L 68.106122 50.571649 
L 70.383673 52.411189 
L 72.661224 53.316083 
L 74.938776 54.137325 
L 77.216327 54.412802 
L 79.493878 52.89038 
L 81.771429 50.974839 
L 84.04898 48.792313 
L 86.326531 45.942625 
L 88.604082 43.207663 
L 90.881633 40.0208 
L 93.159184 37.02654 
L 95.436735 33.178765 
L 97.714286 30.596895 
L 99.991837 28.036742 
L 102.269388 25.525144 
L 104.546939 23.411681 
L 106.82449 21.970271 
L 109.102041 20.675191 
L 111.379592 19.625076 
L 113.657143 19.211295 
L 115.934694 18.883176 
L 118.212245 18.744092 
L 120.489796 18.725997 
L 122.767347 18.725799 
L 125.044898 18.725799 
L 127.322449 18.725799 
L 129.6 18.725799 
" style="fill:none;stroke:#fc8d62;stroke-dasharray:1.5,1.5;stroke-dashoffset:0;stroke-opacity:0.7;stroke-width:1.5;"/>
   </g>
   <g id="patch_3">
    <path d="M 74.938776 67.68 
L 74.938776 17.28 
" style="fill:none;stroke:#a9a9a9;stroke-linecap:square;stroke-linejoin:miter;stroke-width:2;"/>
   </g>
   <g id="patch_4">
    <path d="M 129.6 67.68 
L 129.6 17.28 
" style="fill:none;"/>
   </g>
   <g id="patch_5">
    <path d="M 18 18.725799 
L 129.6 18.725799 
" style="fill:none;stroke:#a9a9a9;stroke-linecap:square;stroke-linejoin:miter;stroke-width:2;"/>
   </g>
   <g id="patch_6">
    <path d="M 18 17.28 
L 129.6 17.28 
" style="fill:none;"/>
   </g>
   <g id="legend_1">
    <g id="line2d_8">
     <path d="M 24.3 47.199531 
L 38.3 47.199531 
" style="fill:none;stroke:#fc8d62;stroke-linecap:square;stroke-width:2;"/>
    </g>
    <g id="line2d_9"/>
    <g id="text_1">
     <!--   -->
     <g transform="translate(43.9 49.649531)scale(0.07 -0.07)">
      <defs>
       <path id="DejaVuSans-32"/>
      </defs>
      <use xlink:href="#DejaVuSans-32"/>
     </g>
    </g>
    <g id="line2d_10">
     <path d="M 24.3 57.474219 
L 38.3 57.474219 
" style="fill:none;stroke:#fc8d62;stroke-dasharray:1.5,1.5;stroke-dashoffset:0;stroke-opacity:0.7;stroke-width:1.5;"/>
    </g>
    <g id="line2d_11"/>
    <g id="text_2">
     <!--   -->
     <g transform="translate(43.9 59.924219)scale(0.07 -0.07)">
      <use xlink:href="#DejaVuSans-32"/>
     </g>
    </g>
   </g>
  </g>
  <g id="axes_2">
   <g id="patch_7">
    <path d="M 18 128.16 
L 129.6 128.16 
L 129.6 77.76 
L 18 77.76 
z
" style="fill:none;"/>
   </g>
   <g id="PolyCollection_3">
    <path clip-path="url(#pd7444e5964)" d="M 18 120.549329 
L 18 120.463786 
L 20.277551 120.673439 
L 22.555102 120.74733 
L 24.832653 120.687408 
L 27.110204 120.535944 
L 29.387755 120.363309 
L 31.665306 120.212069 
L 33.942857 119.943441 
L 36.220408 119.398539 
L 38.497959 118.451026 
L 40.77551 117.00889 
L 43.053061 115.020606 
L 45.330612 112.477991 
L 47.608163 109.412767 
L 49.885714 105.892722 
L 52.163265 102.018402 
L 54.440816 97.919344 
L 56.718367 93.749971 
L 58.995918 89.684885 
L 61.273469 85.91347 
L 63.55102 82.634271 
L 65.828571 80.049477 
L 68.106122 78.359797 
L 70.383673 77.76 
L 72.661224 78.435313 
L 74.938776 80.551851 
L 77.216327 84.187922 
L 79.493878 88.96734 
L 81.771429 94.456138 
L 84.04898 100.248557 
L 86.326531 105.987745 
L 88.604082 111.375144 
L 90.881633 116.175896 
L 93.159184 120.220815 
L 95.436735 123.406372 
L 97.714286 125.693691 
L 99.991837 127.104189 
L 102.269388 127.708727 
L 104.546939 127.614698 
L 106.82449 126.955215 
L 109.102041 125.880352 
L 111.379592 124.549376 
L 113.657143 123.123758 
L 115.934694 121.761633 
L 118.212245 120.615508 
L 120.489796 119.835671 
L 122.767347 119.521753 
L 125.044898 119.567848 
L 127.322449 119.823265 
L 129.6 120.156489 
L 129.6 120.270082 
L 129.6 120.270082 
L 127.322449 119.962687 
L 125.044898 119.726269 
L 122.767347 119.690104 
L 120.489796 120.007446 
L 118.212245 120.797243 
L 115.934694 121.973544 
L 113.657143 123.384901 
L 111.379592 124.867096 
L 109.102041 126.25069 
L 106.82449 127.366697 
L 104.546939 128.052602 
L 102.269388 128.16 
L 99.991837 127.563751 
L 97.714286 126.171363 
L 95.436735 123.930328 
L 93.159184 120.832101 
L 90.881633 116.916001 
L 88.604082 112.276812 
L 86.326531 107.07185 
L 84.04898 101.523891 
L 81.771429 95.919827 
L 79.493878 90.605445 
L 77.216327 85.976078 
L 74.938776 82.456119 
L 72.661224 80.414364 
L 70.383673 79.768571 
L 68.106122 80.35189 
L 65.828571 81.980509 
L 63.55102 84.463072 
L 61.273469 87.604134 
L 58.995918 91.208377 
L 56.718367 95.085432 
L 54.440816 99.055051 
L 52.163265 102.952292 
L 49.885714 106.632357 
L 47.608163 109.974949 
L 45.330612 112.888011 
L 43.053061 115.310811 
L 40.77551 117.216358 
L 38.497959 118.611836 
L 36.220408 119.537713 
L 33.942857 120.071052 
L 31.665306 120.329659 
L 29.387755 120.468922 
L 27.110204 120.624635 
L 24.832653 120.757009 
L 22.555102 120.804258 
L 20.277551 120.736298 
L 18 120.549329 
z
" style="fill:#66c2a5;fill-opacity:0.2;"/>
   </g>
   <g id="matplotlib.axis_3">
    <g id="xtick_6">
     <g id="line2d_12">
      <g>
       <use style="fill:#a9a9a9;stroke:#a9a9a9;stroke-width:2;" x="29.387755" xlink:href="#m0169b37573" y="122.251299"/>
      </g>
     </g>
    </g>
    <g id="xtick_7">
     <g id="line2d_13">
      <g>
       <use style="fill:#a9a9a9;stroke:#a9a9a9;stroke-width:2;" x="52.163265" xlink:href="#m0169b37573" y="122.251299"/>
      </g>
     </g>
    </g>
    <g id="xtick_8">
     <g id="line2d_14">
      <g>
       <use style="fill:#a9a9a9;stroke:#a9a9a9;stroke-width:2;" x="74.938776" xlink:href="#m0169b37573" y="122.251299"/>
      </g>
     </g>
    </g>
    <g id="xtick_9">
     <g id="line2d_15">
      <g>
       <use style="fill:#a9a9a9;stroke:#a9a9a9;stroke-width:2;" x="97.714286" xlink:href="#m0169b37573" y="122.251299"/>
      </g>
     </g>
    </g>
    <g id="xtick_10">
     <g id="line2d_16">
      <g>
       <use style="fill:#a9a9a9;stroke:#a9a9a9;stroke-width:2;" x="120.489796" xlink:href="#m0169b37573" y="122.251299"/>
      </g>
     </g>
    </g>
   </g>
   <g id="matplotlib.axis_4"/>
   <g id="line2d_17">
    <path clip-path="url(#pd7444e5964)" d="M 18 120.506558 
L 20.277551 120.704868 
L 22.555102 120.775794 
L 24.832653 120.722209 
L 27.110204 120.580289 
L 29.387755 120.416115 
L 31.665306 120.270864 
L 33.942857 120.007246 
L 36.220408 119.468126 
L 38.497959 118.531431 
L 40.77551 117.112624 
L 43.053061 115.165709 
L 45.330612 112.683001 
L 47.608163 109.693858 
L 49.885714 106.262539 
L 52.163265 102.485347 
L 54.440816 98.487197 
L 56.718367 94.417702 
L 58.995918 90.446631 
L 61.273469 86.758802 
L 63.55102 83.548671 
L 65.828571 81.014993 
L 68.106122 79.355844 
L 70.383673 78.764285 
L 72.661224 79.424839 
L 74.938776 81.503985 
L 77.216327 85.082 
L 79.493878 89.786393 
L 81.771429 95.187983 
L 84.04898 100.886224 
L 86.326531 106.529797 
L 88.604082 111.825978 
L 90.881633 116.545948 
L 93.159184 120.526458 
L 95.436735 123.66835 
L 97.714286 125.932527 
L 99.991837 127.33397 
L 102.269388 127.934363 
L 104.546939 127.83365 
L 106.82449 127.160956 
L 109.102041 126.065521 
L 111.379592 124.708236 
L 113.657143 123.25433 
L 115.934694 121.867588 
L 118.212245 120.706376 
L 120.489796 119.921558 
L 122.767347 119.605929 
L 125.044898 119.647059 
L 127.322449 119.892976 
L 129.6 120.213286 
" style="fill:none;stroke:#66c2a5;stroke-linecap:square;stroke-width:2;"/>
   </g>
   <g id="patch_8">
    <path d="M 74.938776 128.16 
L 74.938776 77.76 
" style="fill:none;stroke:#a9a9a9;stroke-linecap:square;stroke-linejoin:miter;stroke-width:2;"/>
   </g>
   <g id="patch_9">
    <path d="M 129.6 128.16 
L 129.6 77.76 
" style="fill:none;"/>
   </g>
   <g id="patch_10">
    <path d="M 18 122.251299 
L 129.6 122.251299 
" style="fill:none;stroke:#a9a9a9;stroke-linecap:square;stroke-linejoin:miter;stroke-width:2;"/>
   </g>
   <g id="patch_11">
    <path d="M 18 77.76 
L 129.6 77.76 
" style="fill:none;"/>
   </g>
   <g id="legend_2">
    <g id="line2d_18">
     <path d="M 101.475312 86.928906 
L 115.475312 86.928906 
" style="fill:none;stroke:#66c2a5;stroke-linecap:square;stroke-width:2;"/>
    </g>
    <g id="line2d_19"/>
    <g id="text_3">
     <!--   -->
     <g transform="translate(121.075312 89.378906)scale(0.07 -0.07)">
      <use xlink:href="#DejaVuSans-32"/>
     </g>
    </g>
   </g>
  </g>
 </g>
 <defs>
  <clipPath id="p5f36e1f51e">
   <rect height="50.4" width="111.6" x="18" y="17.28"/>
  </clipPath>
  <clipPath id="pd7444e5964">
   <rect height="50.4" width="111.6" x="18" y="77.76"/>
  </clipPath>
 </defs>
</svg>
