<?xml version="1.0" encoding="utf-8" standalone="no"?>
<!DOCTYPE svg PUBLIC "-//W3C//DTD SVG 1.1//EN"
  "http://www.w3.org/Graphics/SVG/1.1/DTD/svg11.dtd">
<!-- Created with matplotlib (https://matplotlib.org/) -->
<svg height="144pt" version="1.1" viewBox="0 0 144 144" width="144pt" xmlns="http://www.w3.org/2000/svg" xmlns:xlink="http://www.w3.org/1999/xlink">
 <metadata>
  <rdf:RDF xmlns:cc="http://creativecommons.org/ns#" xmlns:dc="http://purl.org/dc/elements/1.1/" xmlns:rdf="http://www.w3.org/1999/02/22-rdf-syntax-ns#">
   <cc:Work>
    <dc:type rdf:resource="http://purl.org/dc/dcmitype/StillImage"/>
    <dc:date>2021-10-13T00:35:21.359787</dc:date>
    <dc:format>image/svg+xml</dc:format>
    <dc:creator>
     <cc:Agent>
      <dc:title>Matplotlib v3.3.2, https://matplotlib.org/</dc:title>
     </cc:Agent>
    </dc:creator>
   </cc:Work>
  </rdf:RDF>
 </metadata>
 <defs>
  <style type="text/css">*{stroke-linecap:butt;stroke-linejoin:round;}</style>
 </defs>
 <g id="figure_1">
  <g id="patch_1">
   <path d="M 0 144 
L 144 144 
L 144 0 
L 0 0 
z
" style="fill:none;"/>
  </g>
  <g id="axes_1">
   <g id="patch_2">
    <path d="M 18 67.68 
L 129.6 67.68 
L 129.6 17.28 
L 18 17.28 
z
" style="fill:none;"/>
   </g>
   <g id="PolyCollection_1">
    <path clip-path="url(#p3d33870a82)" d="M 18 67.68 
L 18 67.68 
L 20.277551 67.68 
L 22.555102 67.68 
L 24.832653 67.68 
L 27.110204 67.68 
L 29.387755 67.679827 
L 31.665306 67.631951 
L 33.942857 67.380329 
L 36.220408 66.786316 
L 38.497959 65.710219 
L 40.77551 64.107235 
L 43.053061 61.932009 
L 45.330612 59.163639 
L 47.608163 55.901122 
L 49.885714 52.164423 
L 52.163265 48.026298 
L 54.440816 43.616282 
L 56.718367 39.138012 
L 58.995918 34.58984 
L 61.273469 30.305194 
L 63.55102 26.354012 
L 65.828571 22.888376 
L 68.106122 20.101573 
L 70.383673 18.214243 
L 72.661224 17.28 
L 74.938776 21.850287 
L 77.216327 19.018608 
L 79.493878 21.417634 
L 81.771429 24.649178 
L 84.04898 28.274662 
L 86.326531 32.297987 
L 88.604082 36.492485 
L 90.881633 40.573507 
L 93.159184 44.736919 
L 95.436735 48.64248 
L 97.714286 52.255874 
L 99.991837 55.60374 
L 102.269388 58.551682 
L 104.546939 61.064184 
L 106.82449 63.232514 
L 109.102041 64.906869 
L 111.379592 66.152012 
L 113.657143 67.002819 
L 115.934694 67.467655 
L 118.212245 67.651433 
L 120.489796 67.68 
L 122.767347 67.68 
L 125.044898 67.68 
L 127.322449 67.68 
L 129.6 67.68 
L 129.6 67.68 
L 129.6 67.68 
L 127.322449 67.68 
L 125.044898 67.68 
L 122.767347 67.68 
L 120.489796 67.68 
L 118.212245 67.66236 
L 115.934694 67.50493 
L 113.657143 67.068063 
L 111.379592 66.281827 
L 109.102041 65.089455 
L 106.82449 63.447057 
L 104.546939 61.431135 
L 102.269388 58.93044 
L 99.991837 56.023815 
L 97.714286 52.789196 
L 95.436735 49.250308 
L 93.159184 45.406231 
L 90.881633 41.412578 
L 88.604082 37.255636 
L 86.326531 33.166665 
L 84.04898 29.272901 
L 81.771429 25.642034 
L 79.493878 22.536277 
L 77.216327 20.057995 
L 74.938776 23.220806 
L 72.661224 18.400828 
L 70.383673 19.292098 
L 68.106122 21.163039 
L 65.828571 23.956477 
L 63.55102 27.265576 
L 61.273469 31.194003 
L 58.995918 35.449609 
L 56.718367 39.826103 
L 54.440816 44.290732 
L 52.163265 48.607366 
L 49.885714 52.636253 
L 47.608163 56.311092 
L 45.330612 59.520073 
L 43.053061 62.212762 
L 40.77551 64.282463 
L 38.497959 65.84118 
L 36.220408 66.861664 
L 33.942857 67.424311 
L 31.665306 67.646274 
L 29.387755 67.679986 
L 27.110204 67.68 
L 24.832653 67.68 
L 22.555102 67.68 
L 20.277551 67.68 
L 18 67.68 
z
" style="fill:#fc8d62;fill-opacity:0.2;"/>
   </g>
   <g id="PolyCollection_2">
    <path clip-path="url(#p3d33870a82)" d="M 18 67.68 
L 18 67.68 
L 20.277551 67.68 
L 22.555102 67.68 
L 24.832653 67.68 
L 27.110204 67.68 
L 29.387755 67.679796 
L 31.665306 67.629092 
L 33.942857 67.370863 
L 36.220408 66.763301 
L 38.497959 65.714599 
L 40.77551 64.095368 
L 43.053061 61.943799 
L 45.330612 59.172698 
L 47.608163 55.856042 
L 49.885714 52.082599 
L 52.163265 47.745029 
L 54.440816 43.161493 
L 56.718367 38.331562 
L 58.995918 33.369955 
L 61.273469 28.522411 
L 63.55102 23.873685 
L 65.828571 19.612609 
L 68.106122 16.129887 
L 70.383673 13.274463 
L 72.661224 11.50032 
L 74.938776 14.73992 
L 77.216327 11.710848 
L 79.493878 13.702948 
L 81.771429 16.625216 
L 84.04898 20.441838 
L 86.326531 24.640193 
L 88.604082 29.348879 
L 90.881633 34.265589 
L 93.159184 39.096038 
L 95.436735 43.989182 
L 97.714286 48.488217 
L 99.991837 52.767119 
L 102.269388 56.468644 
L 104.546939 59.689134 
L 106.82449 62.36523 
L 109.102041 64.430196 
L 111.379592 65.929131 
L 113.657143 66.888793 
L 115.934694 67.433563 
L 118.212245 67.647504 
L 120.489796 67.68 
L 122.767347 67.68 
L 125.044898 67.68 
L 127.322449 67.68 
L 129.6 67.68 
L 129.6 67.68 
L 129.6 67.68 
L 127.322449 67.68 
L 125.044898 67.68 
L 122.767347 67.68 
L 120.489796 67.68 
L 118.212245 67.66107 
L 115.934694 67.486857 
L 113.657143 66.998085 
L 111.379592 66.065383 
L 109.102041 64.638237 
L 106.82449 62.624458 
L 104.546939 60.059298 
L 102.269388 56.933556 
L 99.991837 53.230815 
L 97.714286 49.187033 
L 95.436735 44.677889 
L 93.159184 39.987321 
L 90.881633 35.083793 
L 88.604082 30.304066 
L 86.326531 25.661405 
L 84.04898 21.41402 
L 81.771429 17.817992 
L 79.493878 14.824623 
L 77.216327 12.980113 
L 74.938776 16.145686 
L 72.661224 12.643039 
L 70.383673 14.530668 
L 68.106122 17.205095 
L 65.828571 20.792821 
L 63.55102 24.935377 
L 61.273469 29.493934 
L 58.995918 34.251554 
L 56.718367 39.18558 
L 54.440816 43.865849 
L 52.163265 48.374188 
L 49.885714 52.564526 
L 47.608163 56.334679 
L 45.330612 59.556808 
L 43.053061 62.224885 
L 40.77551 64.317939 
L 38.497959 65.832535 
L 36.220408 66.866735 
L 33.942857 67.42902 
L 31.665306 67.649167 
L 29.387755 67.680006 
L 27.110204 67.68 
L 24.832653 67.68 
L 22.555102 67.68 
L 20.277551 67.68 
L 18 67.68 
z
" style="fill:#fc8d62;fill-opacity:0.2;"/>
   </g>
   <g id="matplotlib.axis_1">
    <g id="xtick_1">
     <g id="line2d_1">
      <defs>
       <path d="M 0 0 
L 0 3.5 
" id="me023c09ab1" style="stroke:#a9a9a9;stroke-width:2;"/>
      </defs>
      <g>
       <use style="fill:#a9a9a9;stroke:#a9a9a9;stroke-width:2;" x="29.387755" xlink:href="#me023c09ab1" y="67.68"/>
      </g>
     </g>
    </g>
    <g id="xtick_2">
     <g id="line2d_2">
      <g>
       <use style="fill:#a9a9a9;stroke:#a9a9a9;stroke-width:2;" x="52.163265" xlink:href="#me023c09ab1" y="67.68"/>
      </g>
     </g>
    </g>
    <g id="xtick_3">
     <g id="line2d_3">
      <g>
       <use style="fill:#a9a9a9;stroke:#a9a9a9;stroke-width:2;" x="74.938776" xlink:href="#me023c09ab1" y="67.68"/>
      </g>
     </g>
    </g>
    <g id="xtick_4">
     <g id="line2d_4">
      <g>
       <use style="fill:#a9a9a9;stroke:#a9a9a9;stroke-width:2;" x="97.714286" xlink:href="#me023c09ab1" y="67.68"/>
      </g>
     </g>
    </g>
    <g id="xtick_5">
     <g id="line2d_5">
      <g>
       <use style="fill:#a9a9a9;stroke:#a9a9a9;stroke-width:2;" x="120.489796" xlink:href="#me023c09ab1" y="67.68"/>
      </g>
     </g>
    </g>
   </g>
   <g id="matplotlib.axis_2"/>
   <g id="line2d_6">
    <path clip-path="url(#p3d33870a82)" d="M 18 67.68 
L 20.277551 67.68 
L 22.555102 67.68 
L 24.832653 67.68 
L 27.110204 67.68 
L 29.387755 67.679907 
L 31.665306 67.639112 
L 33.942857 67.40232 
L 36.220408 66.82399 
L 38.497959 65.7757 
L 40.77551 64.194849 
L 43.053061 62.072386 
L 45.330612 59.341856 
L 47.608163 56.106107 
L 49.885714 52.400338 
L 52.163265 48.316832 
L 54.440816 43.953507 
L 56.718367 39.482058 
L 58.995918 35.019724 
L 61.273469 30.749598 
L 63.55102 26.809794 
L 65.828571 23.422427 
L 68.106122 20.632306 
L 70.383673 18.75317 
L 72.661224 17.840414 
L 74.938776 22.535547 
L 77.216327 19.538301 
L 79.493878 21.976955 
L 81.771429 25.145606 
L 84.04898 28.773781 
L 86.326531 32.732326 
L 88.604082 36.87406 
L 90.881633 40.993042 
L 93.159184 45.071575 
L 95.436735 48.946394 
L 97.714286 52.522535 
L 99.991837 55.813777 
L 102.269388 58.741061 
L 104.546939 61.24766 
L 106.82449 63.339785 
L 109.102041 64.998162 
L 111.379592 66.21692 
L 113.657143 67.035441 
L 115.934694 67.486293 
L 118.212245 67.656896 
L 120.489796 67.68 
L 122.767347 67.68 
L 125.044898 67.68 
L 127.322449 67.68 
L 129.6 67.68 
" style="fill:none;stroke:#fc8d62;stroke-linecap:square;stroke-width:2;"/>
   </g>
   <g id="line2d_7">
    <path clip-path="url(#p3d33870a82)" d="M 18 67.68 
L 20.277551 67.68 
L 22.555102 67.68 
L 24.832653 67.68 
L 27.110204 67.68 
L 29.387755 67.679901 
L 31.665306 67.639129 
L 33.942857 67.399942 
L 36.220408 66.815018 
L 38.497959 65.773567 
L 40.77551 64.206654 
L 43.053061 62.084342 
L 45.330612 59.364753 
L 47.608163 56.09536 
L 49.885714 52.323562 
L 52.163265 48.059609 
L 54.440816 43.513671 
L 56.718367 38.758571 
L 58.995918 33.810755 
L 61.273469 29.008173 
L 63.55102 24.404531 
L 65.828571 20.202715 
L 68.106122 16.667491 
L 70.383673 13.902565 
L 72.661224 12.071679 
L 74.938776 15.442803 
L 77.216327 12.34548 
L 79.493878 14.263785 
L 81.771429 17.221604 
L 84.04898 20.927929 
L 86.326531 25.150799 
L 88.604082 29.826473 
L 90.881633 34.674691 
L 93.159184 39.541679 
L 95.436735 44.333536 
L 97.714286 48.837625 
L 99.991837 52.998967 
L 102.269388 56.7011 
L 104.546939 59.874216 
L 106.82449 62.494844 
L 109.102041 64.534217 
L 111.379592 65.997257 
L 113.657143 66.943439 
L 115.934694 67.46021 
L 118.212245 67.654287 
L 120.489796 67.68 
L 122.767347 67.68 
L 125.044898 67.68 
L 127.322449 67.68 
L 129.6 67.68 
" style="fill:none;stroke:#fc8d62;stroke-dasharray:1.5,1.5;stroke-dashoffset:0;stroke-opacity:0.7;stroke-width:1.5;"/>
   </g>
   <g id="patch_3">
    <path d="M 74.938776 67.68 
L 74.938776 17.28 
" style="fill:none;stroke:#a9a9a9;stroke-linecap:square;stroke-linejoin:miter;stroke-width:2;"/>
   </g>
   <g id="patch_4">
    <path d="M 129.6 67.68 
L 129.6 17.28 
" style="fill:none;"/>
   </g>
   <g id="patch_5">
    <path d="M 18 67.68 
L 129.6 67.68 
" style="fill:none;stroke:#a9a9a9;stroke-linecap:square;stroke-linejoin:miter;stroke-width:2;"/>
   </g>
   <g id="patch_6">
    <path d="M 18 17.28 
L 129.6 17.28 
" style="fill:none;"/>
   </g>
   <g id="legend_1">
    <g id="line2d_8">
     <path d="M 55.985 47.199531 
L 69.985 47.199531 
" style="fill:none;stroke:#fc8d62;stroke-linecap:square;stroke-width:2;"/>
    </g>
    <g id="line2d_9"/>
    <g id="text_1">
     <!-- $\theta$ -->
     <g transform="translate(75.585 49.649531)scale(0.07 -0.07)">
      <defs>
       <path d="M 45.515625 34.671875 
L 14.453125 34.671875 
Q 12.359375 20.0625 14.5 13.875 
Q 17.1875 6.25 24.46875 6.25 
Q 31.78125 6.25 37.359375 13.921875 
Q 42.234375 20.65625 45.515625 34.671875 
z
M 47.015625 42.96875 
Q 48.34375 56.84375 46.625 61.71875 
Q 43.953125 69.4375 36.765625 69.4375 
Q 29.296875 69.4375 23.828125 61.8125 
Q 19.53125 55.671875 16.15625 42.96875 
z
M 38.1875 76.765625 
Q 49.90625 76.765625 54.59375 66.40625 
Q 59.28125 56.109375 55.71875 37.84375 
Q 52.203125 19.625 43.453125 9.28125 
Q 34.765625 -1.125 23.046875 -1.125 
Q 11.28125 -1.125 6.640625 9.28125 
Q 2 19.625 5.515625 37.84375 
Q 9.078125 56.109375 17.71875 66.40625 
Q 26.421875 76.765625 38.1875 76.765625 
z
" id="DejaVuSans-Oblique-952"/>
      </defs>
      <use transform="translate(0 0.234375)" xlink:href="#DejaVuSans-Oblique-952"/>
     </g>
    </g>
    <g id="line2d_10">
     <path d="M 55.985 57.474219 
L 69.985 57.474219 
" style="fill:none;stroke:#fc8d62;stroke-dasharray:1.5,1.5;stroke-dashoffset:0;stroke-opacity:0.7;stroke-width:1.5;"/>
    </g>
    <g id="line2d_11"/>
    <g id="text_2">
     <!-- No $\theta$ -->
     <g transform="translate(75.585 59.924219)scale(0.07 -0.07)">
      <defs>
       <path d="M 9.8125 72.90625 
L 23.09375 72.90625 
L 55.421875 11.921875 
L 55.421875 72.90625 
L 64.984375 72.90625 
L 64.984375 0 
L 51.703125 0 
L 19.390625 60.984375 
L 19.390625 0 
L 9.8125 0 
z
" id="DejaVuSans-78"/>
       <path d="M 30.609375 48.390625 
Q 23.390625 48.390625 19.1875 42.75 
Q 14.984375 37.109375 14.984375 27.296875 
Q 14.984375 17.484375 19.15625 11.84375 
Q 23.34375 6.203125 30.609375 6.203125 
Q 37.796875 6.203125 41.984375 11.859375 
Q 46.1875 17.53125 46.1875 27.296875 
Q 46.1875 37.015625 41.984375 42.703125 
Q 37.796875 48.390625 30.609375 48.390625 
z
M 30.609375 56 
Q 42.328125 56 49.015625 48.375 
Q 55.71875 40.765625 55.71875 27.296875 
Q 55.71875 13.875 49.015625 6.21875 
Q 42.328125 -1.421875 30.609375 -1.421875 
Q 18.84375 -1.421875 12.171875 6.21875 
Q 5.515625 13.875 5.515625 27.296875 
Q 5.515625 40.765625 12.171875 48.375 
Q 18.84375 56 30.609375 56 
z
" id="DejaVuSans-111"/>
       <path id="DejaVuSans-32"/>
      </defs>
      <use transform="translate(0 0.234375)" xlink:href="#DejaVuSans-78"/>
      <use transform="translate(74.804688 0.234375)" xlink:href="#DejaVuSans-111"/>
      <use transform="translate(135.986328 0.234375)" xlink:href="#DejaVuSans-32"/>
      <use transform="translate(167.773438 0.234375)" xlink:href="#DejaVuSans-Oblique-952"/>
     </g>
    </g>
   </g>
  </g>
  <g id="axes_2">
   <g id="patch_7">
    <path d="M 18 128.16 
L 129.6 128.16 
L 129.6 77.76 
L 18 77.76 
z
" style="fill:none;"/>
   </g>
   <g id="PolyCollection_3">
    <path clip-path="url(#p28c0877e7e)" d="M 18 120.490676 
L 18 120.416895 
L 20.277551 120.637803 
L 22.555102 120.699988 
L 24.832653 120.613105 
L 27.110204 120.427392 
L 29.387755 120.221851 
L 31.665306 120.046612 
L 33.942857 119.760728 
L 36.220408 119.202034 
L 38.497959 118.243202 
L 40.77551 116.792136 
L 43.053061 114.797013 
L 45.330612 112.249615 
L 47.608163 109.182423 
L 49.885714 105.664067 
L 52.163265 101.79554 
L 54.440816 97.706675 
L 56.718367 93.551982 
L 58.995918 89.505988 
L 61.273469 85.75813 
L 63.55102 82.507299 
L 65.828571 79.956533 
L 68.106122 78.30822 
L 70.383673 77.76 
L 72.661224 78.501567 
L 74.938776 80.702473 
L 77.216327 84.452265 
L 79.493878 89.348646 
L 81.771429 94.941455 
L 84.04898 100.810912 
L 86.326531 106.591525 
L 88.604082 111.981151 
L 90.881633 116.745739 
L 93.159184 120.72049 
L 95.436735 123.808995 
L 97.714286 125.981145 
L 99.991837 127.267257 
L 102.269388 127.746611 
L 104.546939 127.534125 
L 106.82449 126.769361 
L 109.102041 125.607573 
L 111.379592 124.211676 
L 113.657143 122.745353 
L 115.934694 121.367928 
L 118.212245 120.23286 
L 120.489796 119.491438 
L 122.767347 119.240629 
L 125.044898 119.36026 
L 127.322449 119.685491 
L 129.6 120.07447 
L 129.6 120.176134 
L 129.6 120.176134 
L 127.322449 119.814275 
L 125.044898 119.510193 
L 122.767347 119.402983 
L 120.489796 119.658742 
L 118.212245 120.407403 
L 115.934694 121.56673 
L 113.657143 122.986576 
L 111.379592 124.50349 
L 109.102041 125.94737 
L 106.82449 127.147002 
L 104.546939 127.935927 
L 102.269388 128.16 
L 99.991837 127.686508 
L 97.714286 126.413999 
L 95.436735 124.280441 
L 93.159184 121.268089 
L 90.881633 117.408369 
L 88.604082 112.789812 
L 86.326531 107.56602 
L 84.04898 101.959692 
L 81.771429 96.262175 
L 79.493878 90.828835 
L 77.216327 86.069891 
L 74.938776 82.42671 
L 72.661224 80.294124 
L 70.383673 79.579699 
L 68.106122 80.113255 
L 65.828571 81.706374 
L 63.55102 84.164475 
L 61.273469 87.289918 
L 58.995918 90.88592 
L 56.718367 94.761114 
L 54.440816 98.734465 
L 52.163265 102.640254 
L 49.885714 106.33292 
L 47.608163 109.691276 
L 45.330612 112.622116 
L 43.053061 115.063674 
L 40.77551 116.987895 
L 38.497959 118.400654 
L 36.220408 119.342026 
L 33.942857 119.890727 
L 31.665306 120.167757 
L 29.387755 120.332302 
L 27.110204 120.521156 
L 24.832653 120.686433 
L 22.555102 120.755742 
L 20.277551 120.692236 
L 18 120.490676 
z
" style="fill:#66c2a5;fill-opacity:0.2;"/>
   </g>
   <g id="matplotlib.axis_3">
    <g id="xtick_6">
     <g id="line2d_12">
      <g>
       <use style="fill:#a9a9a9;stroke:#a9a9a9;stroke-width:2;" x="29.387755" xlink:href="#me023c09ab1" y="122.150331"/>
      </g>
     </g>
    </g>
    <g id="xtick_7">
     <g id="line2d_13">
      <g>
       <use style="fill:#a9a9a9;stroke:#a9a9a9;stroke-width:2;" x="52.163265" xlink:href="#me023c09ab1" y="122.150331"/>
      </g>
     </g>
    </g>
    <g id="xtick_8">
     <g id="line2d_14">
      <g>
       <use style="fill:#a9a9a9;stroke:#a9a9a9;stroke-width:2;" x="74.938776" xlink:href="#me023c09ab1" y="122.150331"/>
      </g>
     </g>
    </g>
    <g id="xtick_9">
     <g id="line2d_15">
      <g>
       <use style="fill:#a9a9a9;stroke:#a9a9a9;stroke-width:2;" x="97.714286" xlink:href="#me023c09ab1" y="122.150331"/>
      </g>
     </g>
    </g>
    <g id="xtick_10">
     <g id="line2d_16">
      <g>
       <use style="fill:#a9a9a9;stroke:#a9a9a9;stroke-width:2;" x="120.489796" xlink:href="#me023c09ab1" y="122.150331"/>
      </g>
     </g>
    </g>
   </g>
   <g id="matplotlib.axis_4"/>
   <g id="line2d_17">
    <path clip-path="url(#p28c0877e7e)" d="M 18 120.453785 
L 20.277551 120.665019 
L 22.555102 120.727865 
L 24.832653 120.649769 
L 27.110204 120.474274 
L 29.387755 120.277077 
L 31.665306 120.107185 
L 33.942857 119.825727 
L 36.220408 119.27203 
L 38.497959 118.321928 
L 40.77551 116.890015 
L 43.053061 114.930344 
L 45.330612 112.435865 
L 47.608163 109.43685 
L 49.885714 105.998493 
L 52.163265 102.217897 
L 54.440816 98.22057 
L 56.718367 94.156548 
L 58.995918 90.195954 
L 61.273469 86.524024 
L 63.55102 83.335887 
L 65.828571 80.831453 
L 68.106122 79.210737 
L 70.383673 78.66985 
L 72.661224 79.397845 
L 74.938776 81.564591 
L 77.216327 85.261078 
L 79.493878 90.08874 
L 81.771429 95.601815 
L 84.04898 101.385302 
L 86.326531 107.078772 
L 88.604082 112.385482 
L 90.881633 117.077054 
L 93.159184 120.99429 
L 95.436735 124.044718 
L 97.714286 126.197572 
L 99.991837 127.476882 
L 102.269388 127.953306 
L 104.546939 127.735026 
L 106.82449 126.958182 
L 109.102041 125.777472 
L 111.379592 124.357583 
L 113.657143 122.865965 
L 115.934694 121.467329 
L 118.212245 120.320131 
L 120.489796 119.57509 
L 122.767347 119.321806 
L 125.044898 119.435226 
L 127.322449 119.749883 
L 129.6 120.125302 
" style="fill:none;stroke:#66c2a5;stroke-linecap:square;stroke-width:2;"/>
   </g>
   <g id="patch_8">
    <path d="M 74.938776 128.16 
L 74.938776 77.76 
" style="fill:none;stroke:#a9a9a9;stroke-linecap:square;stroke-linejoin:miter;stroke-width:2;"/>
   </g>
   <g id="patch_9">
    <path d="M 129.6 128.16 
L 129.6 77.76 
" style="fill:none;"/>
   </g>
   <g id="patch_10">
    <path d="M 18 122.150331 
L 129.6 122.150331 
" style="fill:none;stroke:#a9a9a9;stroke-linecap:square;stroke-linejoin:miter;stroke-width:2;"/>
   </g>
   <g id="patch_11">
    <path d="M 18 77.76 
L 129.6 77.76 
" style="fill:none;"/>
   </g>
  </g>
 </g>
 <defs>
  <clipPath id="p3d33870a82">
   <rect height="50.4" width="111.6" x="18" y="17.28"/>
  </clipPath>
  <clipPath id="p28c0877e7e">
   <rect height="50.4" width="111.6" x="18" y="77.76"/>
  </clipPath>
 </defs>
</svg>
