<?xml version="1.0" encoding="utf-8" standalone="no"?>
<!DOCTYPE svg PUBLIC "-//W3C//DTD SVG 1.1//EN"
  "http://www.w3.org/Graphics/SVG/1.1/DTD/svg11.dtd">
<!-- Created with matplotlib (https://matplotlib.org/) -->
<svg height="144pt" version="1.1" viewBox="0 0 144 144" width="144pt" xmlns="http://www.w3.org/2000/svg" xmlns:xlink="http://www.w3.org/1999/xlink">
 <metadata>
  <rdf:RDF xmlns:cc="http://creativecommons.org/ns#" xmlns:dc="http://purl.org/dc/elements/1.1/" xmlns:rdf="http://www.w3.org/1999/02/22-rdf-syntax-ns#">
   <cc:Work>
    <dc:type rdf:resource="http://purl.org/dc/dcmitype/StillImage"/>
    <dc:date>2021-10-14T20:56:26.175689</dc:date>
    <dc:format>image/svg+xml</dc:format>
    <dc:creator>
     <cc:Agent>
      <dc:title>Matplotlib v3.3.2, https://matplotlib.org/</dc:title>
     </cc:Agent>
    </dc:creator>
   </cc:Work>
  </rdf:RDF>
 </metadata>
 <defs>
  <style type="text/css">*{stroke-linecap:butt;stroke-linejoin:round;}</style>
 </defs>
 <g id="figure_1">
  <g id="patch_1">
   <path d="M 0 144 
L 144 144 
L 144 0 
L 0 0 
z
" style="fill:none;"/>
  </g>
  <g id="axes_1">
   <g id="patch_2">
    <path d="M 18 67.68 
L 129.6 67.68 
L 129.6 17.28 
L 18 17.28 
z
" style="fill:none;"/>
   </g>
   <g id="PolyCollection_1">
    <path clip-path="url(#p61e9536020)" d="M 18 67.68 
L 18 67.68 
L 20.277551 67.68 
L 22.555102 67.68 
L 24.832653 67.68 
L 27.110204 67.679999 
L 29.387755 67.679345 
L 31.665306 67.641542 
L 33.942857 67.452206 
L 36.220408 66.98644 
L 38.497959 66.1429 
L 40.77551 64.824464 
L 43.053061 62.979696 
L 45.330612 60.521712 
L 47.608163 57.509177 
L 49.885714 53.934929 
L 52.163265 49.863153 
L 54.440816 45.449742 
L 56.718367 40.730027 
L 58.995918 36.077683 
L 61.273469 31.453452 
L 63.55102 27.256254 
L 65.828571 23.485547 
L 68.106122 20.518749 
L 70.383673 18.361925 
L 72.661224 17.28 
L 74.938776 17.594192 
L 77.216327 18.706693 
L 79.493878 21.042411 
L 81.771429 24.22637 
L 84.04898 27.991822 
L 86.326531 32.16278 
L 88.604082 36.538866 
L 90.881633 40.963872 
L 93.159184 45.327173 
L 95.436735 49.460774 
L 97.714286 53.265228 
L 99.991837 56.647268 
L 102.269388 59.622456 
L 104.546939 62.071934 
L 106.82449 64.038897 
L 109.102041 65.522288 
L 111.379592 66.55428 
L 113.657143 67.204645 
L 115.934694 67.542094 
L 118.212245 67.66516 
L 120.489796 67.68 
L 122.767347 67.68 
L 125.044898 67.68 
L 127.322449 67.68 
L 129.6 67.68 
L 129.6 67.68 
L 129.6 67.68 
L 127.322449 67.68 
L 125.044898 67.68 
L 122.767347 67.68 
L 120.489796 67.68 
L 118.212245 67.67014 
L 115.934694 67.566883 
L 113.657143 67.259487 
L 111.379592 66.6619 
L 109.102041 65.668638 
L 106.82449 64.254629 
L 104.546939 62.366592 
L 102.269388 59.959338 
L 99.991837 57.070351 
L 97.714286 53.757726 
L 95.436735 50.045717 
L 93.159184 45.999605 
L 90.881633 41.762664 
L 88.604082 37.42478 
L 86.326531 33.059781 
L 84.04898 28.960296 
L 81.771429 25.244306 
L 79.493878 22.191604 
L 77.216327 19.985954 
L 74.938776 19.061407 
L 72.661224 18.534409 
L 70.383673 19.546845 
L 68.106122 21.568066 
L 65.828571 24.622727 
L 63.55102 28.247625 
L 61.273469 32.440348 
L 58.995918 36.980663 
L 56.718367 41.591145 
L 54.440816 46.153136 
L 52.163265 50.492837 
L 49.885714 54.458217 
L 47.608163 57.95085 
L 45.330612 60.888599 
L 43.053061 63.235706 
L 40.77551 65.022837 
L 38.497959 66.27485 
L 36.220408 67.066296 
L 33.942857 67.487615 
L 31.665306 67.650819 
L 29.387755 67.679687 
L 27.110204 67.679999 
L 24.832653 67.68 
L 22.555102 67.68 
L 20.277551 67.68 
L 18 67.68 
z
" style="fill:#fc8d62;fill-opacity:0.2;"/>
   </g>
   <g id="PolyCollection_2">
    <path clip-path="url(#p61e9536020)" d="M 18 67.68 
L 18 67.68 
L 20.277551 67.68 
L 22.555102 67.68 
L 24.832653 67.68 
L 27.110204 67.679999 
L 29.387755 67.679281 
L 31.665306 67.639559 
L 33.942857 67.452998 
L 36.220408 66.996536 
L 38.497959 66.169714 
L 40.77551 64.887986 
L 43.053061 63.114403 
L 45.330612 60.781499 
L 47.608163 57.897357 
L 49.885714 54.519039 
L 52.163265 50.664891 
L 54.440816 46.388507 
L 56.718367 41.948079 
L 58.995918 37.374371 
L 61.273469 32.795877 
L 63.55102 28.460772 
L 65.828571 24.596189 
L 68.106122 21.260095 
L 70.383673 18.775228 
L 72.661224 17.196301 
L 74.938776 16.835231 
L 77.216327 17.62641 
L 79.493878 19.424129 
L 81.771429 22.310579 
L 84.04898 25.834747 
L 86.326531 29.841376 
L 88.604082 34.277022 
L 90.881633 38.8643 
L 93.159184 43.410109 
L 95.436735 47.804884 
L 97.714286 51.942108 
L 99.991837 55.683985 
L 102.269388 58.902093 
L 104.546939 61.619944 
L 106.82449 63.760845 
L 109.102041 65.361379 
L 111.379592 66.48768 
L 113.657143 67.18005 
L 115.934694 67.540907 
L 118.212245 67.663961 
L 120.489796 67.68 
L 122.767347 67.68 
L 125.044898 67.68 
L 127.322449 67.68 
L 129.6 67.68 
L 129.6 67.68 
L 129.6 67.68 
L 127.322449 67.68 
L 125.044898 67.68 
L 122.767347 67.68 
L 120.489796 67.68 
L 118.212245 67.669532 
L 115.934694 67.561993 
L 113.657143 67.236943 
L 111.379592 66.589845 
L 109.102041 65.522038 
L 106.82449 63.97456 
L 104.546939 61.911356 
L 102.269388 59.326062 
L 99.991837 56.167179 
L 97.714286 52.554497 
L 95.436735 48.54712 
L 93.159184 44.22513 
L 90.881633 39.723428 
L 88.604082 35.252382 
L 86.326531 30.936768 
L 84.04898 26.862212 
L 81.771429 23.443139 
L 79.493878 20.7199 
L 77.216327 18.868172 
L 74.938776 18.50283 
L 72.661224 18.45275 
L 70.383673 20.017415 
L 68.106122 22.484753 
L 65.828571 25.686694 
L 63.55102 29.568372 
L 61.273469 33.793271 
L 58.995918 38.264514 
L 56.718367 42.759875 
L 54.440816 47.177952 
L 52.163265 51.281655 
L 49.885714 55.028366 
L 47.608163 58.325313 
L 45.330612 61.127185 
L 43.053061 63.367178 
L 40.77551 65.07153 
L 38.497959 66.290581 
L 36.220408 67.05959 
L 33.942857 67.480373 
L 31.665306 67.64945 
L 29.387755 67.679698 
L 27.110204 67.679999 
L 24.832653 67.68 
L 22.555102 67.68 
L 20.277551 67.68 
L 18 67.68 
z
" style="fill:#fc8d62;fill-opacity:0.2;"/>
   </g>
   <g id="matplotlib.axis_1">
    <g id="xtick_1">
     <g id="line2d_1">
      <defs>
       <path d="M 0 0 
L 0 3.5 
" id="m31195e5af2" style="stroke:#a9a9a9;stroke-width:2;"/>
      </defs>
      <g>
       <use style="fill:#a9a9a9;stroke:#a9a9a9;stroke-width:2;" x="29.387755" xlink:href="#m31195e5af2" y="67.68"/>
      </g>
     </g>
    </g>
    <g id="xtick_2">
     <g id="line2d_2">
      <g>
       <use style="fill:#a9a9a9;stroke:#a9a9a9;stroke-width:2;" x="52.163265" xlink:href="#m31195e5af2" y="67.68"/>
      </g>
     </g>
    </g>
    <g id="xtick_3">
     <g id="line2d_3">
      <g>
       <use style="fill:#a9a9a9;stroke:#a9a9a9;stroke-width:2;" x="74.938776" xlink:href="#m31195e5af2" y="67.68"/>
      </g>
     </g>
    </g>
    <g id="xtick_4">
     <g id="line2d_4">
      <g>
       <use style="fill:#a9a9a9;stroke:#a9a9a9;stroke-width:2;" x="97.714286" xlink:href="#m31195e5af2" y="67.68"/>
      </g>
     </g>
    </g>
    <g id="xtick_5">
     <g id="line2d_5">
      <g>
       <use style="fill:#a9a9a9;stroke:#a9a9a9;stroke-width:2;" x="120.489796" xlink:href="#m31195e5af2" y="67.68"/>
      </g>
     </g>
    </g>
   </g>
   <g id="matplotlib.axis_2"/>
   <g id="line2d_6">
    <path clip-path="url(#p61e9536020)" d="M 18 67.68 
L 20.277551 67.68 
L 22.555102 67.68 
L 24.832653 67.68 
L 27.110204 67.679999 
L 29.387755 67.679516 
L 31.665306 67.64618 
L 33.942857 67.46991 
L 36.220408 67.026368 
L 38.497959 66.208875 
L 40.77551 64.923651 
L 43.053061 63.107701 
L 45.330612 60.705156 
L 47.608163 57.730014 
L 49.885714 54.196573 
L 52.163265 50.177995 
L 54.440816 45.801439 
L 56.718367 41.160586 
L 58.995918 36.529173 
L 61.273469 31.9469 
L 63.55102 27.751939 
L 65.828571 24.054137 
L 68.106122 21.043408 
L 70.383673 18.954385 
L 72.661224 17.907205 
L 74.938776 18.3278 
L 77.216327 19.346324 
L 79.493878 21.617008 
L 81.771429 24.735338 
L 84.04898 28.476059 
L 86.326531 32.611281 
L 88.604082 36.981823 
L 90.881633 41.363268 
L 93.159184 45.663389 
L 95.436735 49.753246 
L 97.714286 53.511477 
L 99.991837 56.85881 
L 102.269388 59.790897 
L 104.546939 62.219263 
L 106.82449 64.146763 
L 109.102041 65.595463 
L 111.379592 66.60809 
L 113.657143 67.232066 
L 115.934694 67.554489 
L 118.212245 67.66765 
L 120.489796 67.68 
L 122.767347 67.68 
L 125.044898 67.68 
L 127.322449 67.68 
L 129.6 67.68 
" style="fill:none;stroke:#fc8d62;stroke-linecap:square;stroke-width:2;"/>
   </g>
   <g id="line2d_7">
    <path clip-path="url(#p61e9536020)" d="M 18 67.68 
L 20.277551 67.68 
L 22.555102 67.68 
L 24.832653 67.68 
L 27.110204 67.679999 
L 29.387755 67.679489 
L 31.665306 67.644504 
L 33.942857 67.466685 
L 36.220408 67.028063 
L 38.497959 66.230148 
L 40.77551 64.979758 
L 43.053061 63.240791 
L 45.330612 60.954342 
L 47.608163 58.111335 
L 49.885714 54.773703 
L 52.163265 50.973273 
L 54.440816 46.78323 
L 56.718367 42.353977 
L 58.995918 37.819443 
L 61.273469 33.294574 
L 63.55102 29.014572 
L 65.828571 25.141442 
L 68.106122 21.872424 
L 70.383673 19.396322 
L 72.661224 17.824525 
L 74.938776 17.669031 
L 77.216327 18.247291 
L 79.493878 20.072014 
L 81.771429 22.876859 
L 84.04898 26.348479 
L 86.326531 30.389072 
L 88.604082 34.764702 
L 90.881633 39.293864 
L 93.159184 43.81762 
L 95.436735 48.176002 
L 97.714286 52.248303 
L 99.991837 55.925582 
L 102.269388 59.114077 
L 104.546939 61.76565 
L 106.82449 63.867703 
L 109.102041 65.441709 
L 111.379592 66.538762 
L 113.657143 67.208497 
L 115.934694 67.55145 
L 118.212245 67.666747 
L 120.489796 67.68 
L 122.767347 67.68 
L 125.044898 67.68 
L 127.322449 67.68 
L 129.6 67.68 
" style="fill:none;stroke:#fc8d62;stroke-dasharray:1.5,1.5;stroke-dashoffset:0;stroke-opacity:0.7;stroke-width:1.5;"/>
   </g>
   <g id="patch_3">
    <path d="M 74.938776 67.68 
L 74.938776 17.28 
" style="fill:none;stroke:#a9a9a9;stroke-linecap:square;stroke-linejoin:miter;stroke-width:2;"/>
   </g>
   <g id="patch_4">
    <path d="M 129.6 67.68 
L 129.6 17.28 
" style="fill:none;"/>
   </g>
   <g id="patch_5">
    <path d="M 18 67.68 
L 129.6 67.68 
" style="fill:none;stroke:#a9a9a9;stroke-linecap:square;stroke-linejoin:miter;stroke-width:2;"/>
   </g>
   <g id="patch_6">
    <path d="M 18 17.28 
L 129.6 17.28 
" style="fill:none;"/>
   </g>
   <g id="legend_1">
    <g id="line2d_8">
     <path d="M 101.475312 26.448906 
L 115.475312 26.448906 
" style="fill:none;stroke:#fc8d62;stroke-linecap:square;stroke-width:2;"/>
    </g>
    <g id="line2d_9"/>
    <g id="text_1">
     <!--   -->
     <g transform="translate(121.075312 28.898906)scale(0.07 -0.07)">
      <defs>
       <path id="DejaVuSans-32"/>
      </defs>
      <use xlink:href="#DejaVuSans-32"/>
     </g>
    </g>
    <g id="line2d_10">
     <path d="M 101.475312 36.723594 
L 115.475312 36.723594 
" style="fill:none;stroke:#fc8d62;stroke-dasharray:1.5,1.5;stroke-dashoffset:0;stroke-opacity:0.7;stroke-width:1.5;"/>
    </g>
    <g id="line2d_11"/>
    <g id="text_2">
     <!--   -->
     <g transform="translate(121.075312 39.173594)scale(0.07 -0.07)">
      <use xlink:href="#DejaVuSans-32"/>
     </g>
    </g>
   </g>
  </g>
  <g id="axes_2">
   <g id="patch_7">
    <path d="M 18 128.16 
L 129.6 128.16 
L 129.6 77.76 
L 18 77.76 
z
" style="fill:none;"/>
   </g>
   <g id="PolyCollection_3">
    <path clip-path="url(#p5d914a88c1)" d="M 18 120.525744 
L 18 120.441455 
L 20.277551 120.656354 
L 22.555102 120.731628 
L 24.832653 120.670467 
L 27.110204 120.515551 
L 29.387755 120.338741 
L 31.665306 120.184221 
L 33.942857 119.91241 
L 36.220408 119.36362 
L 38.497959 118.411459 
L 40.77551 116.964804 
L 43.053061 114.973041 
L 45.330612 112.428128 
L 47.608163 109.361684 
L 49.885714 105.841595 
L 52.163265 101.96837 
L 54.440816 97.871486 
L 56.718367 93.705409 
L 58.995918 89.644671 
L 61.273469 85.878641 
L 63.55102 82.605922 
L 65.828571 80.028842 
L 68.106122 78.348423 
L 70.383673 77.76 
L 72.661224 78.44969 
L 74.938776 80.584747 
L 77.216327 84.24453 
L 79.493878 89.048737 
L 81.771429 94.559554 
L 84.04898 100.368251 
L 86.326531 106.116121 
L 88.604082 111.503909 
L 90.881633 116.297115 
L 93.159184 120.327627 
L 95.436735 123.493342 
L 97.714286 125.756481 
L 99.991837 127.139183 
L 102.269388 127.714038 
L 104.546939 127.590566 
L 106.82449 126.903973 
L 109.102041 125.806137 
L 111.379592 124.457613 
L 113.657143 123.020777 
L 115.934694 121.654364 
L 118.212245 120.511046 
L 120.489796 119.740529 
L 122.767347 119.441474 
L 125.044898 119.50478 
L 127.322449 119.776917 
L 129.6 120.124204 
L 129.6 120.234265 
L 129.6 120.234265 
L 127.322449 119.911178 
L 125.044898 119.657228 
L 122.767347 119.604056 
L 120.489796 119.907856 
L 118.212245 120.689604 
L 115.934694 121.864033 
L 113.657143 123.279341 
L 111.379592 124.771447 
L 109.102041 126.170998 
L 106.82449 127.308732 
L 104.546939 128.021494 
L 102.269388 128.16 
L 99.991837 127.597838 
L 97.714286 126.240762 
L 95.436735 124.033846 
L 93.159184 120.96514 
L 90.881633 117.0713 
L 88.604082 112.445546 
L 86.326531 107.24442 
L 84.04898 101.690749 
L 81.771429 96.072272 
L 79.493878 90.736542 
L 77.216327 86.081698 
L 74.938776 82.535782 
L 72.661224 80.4711 
L 70.383673 79.805396 
L 68.106122 80.371214 
L 65.828571 81.984322 
L 63.55102 84.453207 
L 61.273469 87.582436 
L 58.995918 91.176792 
L 56.718367 95.046058 
L 54.440816 99.010082 
L 52.163265 102.903885 
L 49.885714 106.582616 
L 47.608163 109.925639 
L 45.330612 112.840405 
L 43.053061 115.265677 
L 40.77551 117.173688 
L 38.497959 118.571136 
L 36.220408 119.498968 
L 33.942857 120.035045 
L 31.665306 120.297522 
L 29.387755 120.441997 
L 27.110204 120.603698 
L 24.832653 120.741402 
L 22.555102 120.791126 
L 20.277551 120.720559 
L 18 120.525744 
z
" style="fill:#66c2a5;fill-opacity:0.2;"/>
   </g>
   <g id="matplotlib.axis_3">
    <g id="xtick_6">
     <g id="line2d_12">
      <g>
       <use style="fill:#a9a9a9;stroke:#a9a9a9;stroke-width:2;" x="29.387755" xlink:href="#m31195e5af2" y="122.226826"/>
      </g>
     </g>
    </g>
    <g id="xtick_7">
     <g id="line2d_13">
      <g>
       <use style="fill:#a9a9a9;stroke:#a9a9a9;stroke-width:2;" x="52.163265" xlink:href="#m31195e5af2" y="122.226826"/>
      </g>
     </g>
    </g>
    <g id="xtick_8">
     <g id="line2d_14">
      <g>
       <use style="fill:#a9a9a9;stroke:#a9a9a9;stroke-width:2;" x="74.938776" xlink:href="#m31195e5af2" y="122.226826"/>
      </g>
     </g>
    </g>
    <g id="xtick_9">
     <g id="line2d_15">
      <g>
       <use style="fill:#a9a9a9;stroke:#a9a9a9;stroke-width:2;" x="97.714286" xlink:href="#m31195e5af2" y="122.226826"/>
      </g>
     </g>
    </g>
    <g id="xtick_10">
     <g id="line2d_16">
      <g>
       <use style="fill:#a9a9a9;stroke:#a9a9a9;stroke-width:2;" x="120.489796" xlink:href="#m31195e5af2" y="122.226826"/>
      </g>
     </g>
    </g>
   </g>
   <g id="matplotlib.axis_4"/>
   <g id="line2d_17">
    <path clip-path="url(#p5d914a88c1)" d="M 18 120.483599 
L 20.277551 120.688456 
L 22.555102 120.761377 
L 24.832653 120.705935 
L 27.110204 120.559625 
L 29.387755 120.390369 
L 31.665306 120.240872 
L 33.942857 119.973728 
L 36.220408 119.431294 
L 38.497959 118.491297 
L 40.77551 117.069246 
L 43.053061 115.119359 
L 45.330612 112.634266 
L 47.608163 109.643662 
L 49.885714 106.212105 
L 52.163265 102.436128 
L 54.440816 98.440784 
L 56.718367 94.375734 
L 58.995918 90.410731 
L 61.273469 86.730538 
L 63.55102 83.529565 
L 65.828571 81.006582 
L 68.106122 79.359818 
L 70.383673 78.782698 
L 72.661224 79.460395 
L 74.938776 81.560264 
L 77.216327 85.163114 
L 79.493878 89.892639 
L 81.771429 95.315913 
L 84.04898 101.0295 
L 86.326531 106.68027 
L 88.604082 111.974727 
L 90.881633 116.684208 
L 93.159184 120.646383 
L 95.436735 123.763594 
L 97.714286 125.998621 
L 99.991837 127.36851 
L 102.269388 127.937019 
L 104.546939 127.80603 
L 106.82449 127.106353 
L 109.102041 125.988567 
L 111.379592 124.61453 
L 113.657143 123.150059 
L 115.934694 121.759199 
L 118.212245 120.600325 
L 120.489796 119.824193 
L 122.767347 119.522765 
L 125.044898 119.581004 
L 127.322449 119.844048 
L 129.6 120.179234 
" style="fill:none;stroke:#66c2a5;stroke-linecap:square;stroke-width:2;"/>
   </g>
   <g id="patch_8">
    <path d="M 74.938776 128.16 
L 74.938776 77.76 
" style="fill:none;stroke:#a9a9a9;stroke-linecap:square;stroke-linejoin:miter;stroke-width:2;"/>
   </g>
   <g id="patch_9">
    <path d="M 129.6 128.16 
L 129.6 77.76 
" style="fill:none;"/>
   </g>
   <g id="patch_10">
    <path d="M 18 122.226826 
L 129.6 122.226826 
" style="fill:none;stroke:#a9a9a9;stroke-linecap:square;stroke-linejoin:miter;stroke-width:2;"/>
   </g>
   <g id="patch_11">
    <path d="M 18 77.76 
L 129.6 77.76 
" style="fill:none;"/>
   </g>
   <g id="legend_2">
    <g id="line2d_18">
     <path d="M 101.475312 86.928906 
L 115.475312 86.928906 
" style="fill:none;stroke:#66c2a5;stroke-linecap:square;stroke-width:2;"/>
    </g>
    <g id="line2d_19"/>
    <g id="text_3">
     <!--   -->
     <g transform="translate(121.075312 89.378906)scale(0.07 -0.07)">
      <use xlink:href="#DejaVuSans-32"/>
     </g>
    </g>
   </g>
  </g>
 </g>
 <defs>
  <clipPath id="p61e9536020">
   <rect height="50.4" width="111.6" x="18" y="17.28"/>
  </clipPath>
  <clipPath id="p5d914a88c1">
   <rect height="50.4" width="111.6" x="18" y="77.76"/>
  </clipPath>
 </defs>
</svg>
