<?xml version="1.0" encoding="utf-8" standalone="no"?>
<!DOCTYPE svg PUBLIC "-//W3C//DTD SVG 1.1//EN"
  "http://www.w3.org/Graphics/SVG/1.1/DTD/svg11.dtd">
<!-- Created with matplotlib (https://matplotlib.org/) -->
<svg height="144pt" version="1.1" viewBox="0 0 144 144" width="144pt" xmlns="http://www.w3.org/2000/svg" xmlns:xlink="http://www.w3.org/1999/xlink">
 <metadata>
  <rdf:RDF xmlns:cc="http://creativecommons.org/ns#" xmlns:dc="http://purl.org/dc/elements/1.1/" xmlns:rdf="http://www.w3.org/1999/02/22-rdf-syntax-ns#">
   <cc:Work>
    <dc:type rdf:resource="http://purl.org/dc/dcmitype/StillImage"/>
    <dc:date>2021-10-12T18:46:11.737200</dc:date>
    <dc:format>image/svg+xml</dc:format>
    <dc:creator>
     <cc:Agent>
      <dc:title>Matplotlib v3.3.2, https://matplotlib.org/</dc:title>
     </cc:Agent>
    </dc:creator>
   </cc:Work>
  </rdf:RDF>
 </metadata>
 <defs>
  <style type="text/css">*{stroke-linecap:butt;stroke-linejoin:round;}</style>
 </defs>
 <g id="figure_1">
  <g id="patch_1">
   <path d="M 0 144 
L 144 144 
L 144 0 
L 0 0 
z
" style="fill:none;"/>
  </g>
  <g id="axes_1">
   <g id="patch_2">
    <path d="M 18 67.68 
L 129.6 67.68 
L 129.6 17.28 
L 18 17.28 
z
" style="fill:none;"/>
   </g>
   <g id="PolyCollection_1">
    <path clip-path="url(#p0782792305)" d="M 18 28.036626 
L 18 28.036626 
L 20.277551 28.036626 
L 22.555102 28.036626 
L 24.832653 28.036626 
L 27.110204 28.036626 
L 29.387755 28.036542 
L 31.665306 27.992019 
L 33.942857 27.903908 
L 36.220408 27.774746 
L 38.497959 27.600287 
L 40.77551 27.364371 
L 43.053061 26.362563 
L 45.330612 25.41174 
L 47.608163 23.841639 
L 49.885714 22.412475 
L 52.163265 20.691969 
L 54.440816 19.077142 
L 56.718367 17.421895 
L 58.995918 17.286628 
L 61.273469 17.28 
L 63.55102 18.403254 
L 65.828571 21.187705 
L 68.106122 25.946403 
L 70.383673 31.253555 
L 72.661224 37.7413 
L 74.938776 50.873145 
L 77.216327 49.875647 
L 79.493878 55.896382 
L 81.771429 59.704607 
L 84.04898 62.259493 
L 86.326531 63.243643 
L 88.604082 62.184016 
L 90.881633 60.052124 
L 93.159184 57.134035 
L 95.436735 52.716815 
L 97.714286 48.335961 
L 99.991837 43.637787 
L 102.269388 39.612916 
L 104.546939 35.67601 
L 106.82449 32.975753 
L 109.102041 30.699947 
L 111.379592 29.378788 
L 113.657143 28.521222 
L 115.934694 28.119418 
L 118.212245 28.033679 
L 120.489796 28.036403 
L 122.767347 28.036626 
L 125.044898 28.036626 
L 127.322449 28.036626 
L 129.6 28.036626 
L 129.6 28.036626 
L 129.6 28.036626 
L 127.322449 28.036626 
L 125.044898 28.036626 
L 122.767347 28.036626 
L 120.489796 28.036943 
L 118.212245 28.113987 
L 115.934694 28.391152 
L 113.657143 29.018403 
L 111.379592 30.088584 
L 109.102041 31.639795 
L 106.82449 34.375943 
L 104.546939 37.69011 
L 102.269388 41.677126 
L 99.991837 46.24653 
L 97.714286 50.849136 
L 95.436735 55.623446 
L 93.159184 60.358477 
L 90.881633 63.495155 
L 88.604082 66.268944 
L 86.326531 67.68 
L 84.04898 67.200918 
L 81.771429 63.853027 
L 79.493878 60.01115 
L 77.216327 54.432268 
L 74.938776 52.232055 
L 72.661224 42.191434 
L 70.383673 35.450917 
L 68.106122 30.318527 
L 65.828571 25.642018 
L 63.55102 22.517382 
L 61.273469 21.319926 
L 58.995918 20.548024 
L 56.718367 20.523468 
L 54.440816 21.768639 
L 52.163265 23.023725 
L 49.885714 24.640519 
L 47.608163 25.906796 
L 45.330612 27.185666 
L 43.053061 27.767738 
L 40.77551 28.239111 
L 38.497959 28.266415 
L 36.220408 28.263503 
L 33.942857 28.168677 
L 31.665306 28.069178 
L 29.387755 28.036688 
L 27.110204 28.036626 
L 24.832653 28.036626 
L 22.555102 28.036626 
L 20.277551 28.036626 
L 18 28.036626 
z
" style="fill:#fc8d62;fill-opacity:0.2;"/>
   </g>
   <g id="PolyCollection_2">
    <path clip-path="url(#p0782792305)" d="M 18 28.036626 
L 18 28.036626 
L 20.277551 28.036626 
L 22.555102 28.036626 
L 24.832653 28.036626 
L 27.110204 28.036626 
L 29.387755 28.036609 
L 31.665306 27.975269 
L 33.942857 27.954516 
L 36.220408 27.88727 
L 38.497959 28.138829 
L 40.77551 28.463026 
L 43.053061 29.105433 
L 45.330612 29.688861 
L 47.608163 31.050998 
L 49.885714 32.523826 
L 52.163265 33.863826 
L 54.440816 35.932718 
L 56.718367 37.784233 
L 58.995918 40.133972 
L 61.273469 41.710223 
L 63.55102 44.010305 
L 65.828571 45.589682 
L 68.106122 46.659823 
L 70.383673 49.268255 
L 72.661224 49.171242 
L 74.938776 56.140827 
L 77.216327 49.902521 
L 79.493878 50.113183 
L 81.771429 48.209281 
L 84.04898 47.315956 
L 86.326531 45.998296 
L 88.604082 44.330064 
L 90.881633 41.990956 
L 93.159184 39.381464 
L 95.436735 37.369394 
L 97.714286 35.486073 
L 99.991837 33.965396 
L 102.269388 32.55008 
L 104.546939 31.099996 
L 106.82449 29.888744 
L 109.102041 29.168876 
L 111.379592 28.533914 
L 113.657143 28.243607 
L 115.934694 28.023598 
L 118.212245 27.997032 
L 120.489796 28.036563 
L 122.767347 28.036626 
L 125.044898 28.036626 
L 127.322449 28.036626 
L 129.6 28.036626 
L 129.6 28.036626 
L 129.6 28.036626 
L 127.322449 28.036626 
L 125.044898 28.036626 
L 122.767347 28.036626 
L 120.489796 28.036767 
L 118.212245 28.122705 
L 115.934694 28.300577 
L 113.657143 28.787516 
L 111.379592 29.289512 
L 109.102041 30.191411 
L 106.82449 31.233441 
L 104.546939 32.943689 
L 102.269388 34.128589 
L 99.991837 36.031918 
L 97.714286 38.310147 
L 95.436735 40.221071 
L 93.159184 42.826729 
L 90.881633 44.757429 
L 88.604082 47.526492 
L 86.326531 49.241086 
L 84.04898 51.686844 
L 81.771429 53.779206 
L 79.493878 53.873476 
L 77.216327 55.443513 
L 74.938776 57.164045 
L 72.661224 54.698979 
L 70.383673 52.726055 
L 68.106122 52.104705 
L 65.828571 49.831196 
L 63.55102 47.537873 
L 61.273469 44.941676 
L 58.995918 42.779819 
L 56.718367 40.957428 
L 54.440816 38.826057 
L 52.163265 36.736073 
L 49.885714 34.418543 
L 47.608163 32.818609 
L 45.330612 31.415158 
L 43.053061 30.438776 
L 40.77551 29.496097 
L 38.497959 28.91924 
L 36.220408 28.439479 
L 33.942857 28.236077 
L 31.665306 28.097465 
L 29.387755 28.036634 
L 27.110204 28.036626 
L 24.832653 28.036626 
L 22.555102 28.036626 
L 20.277551 28.036626 
L 18 28.036626 
z
" style="fill:#fc8d62;fill-opacity:0.2;"/>
   </g>
   <g id="matplotlib.axis_1">
    <g id="xtick_1">
     <g id="line2d_1">
      <defs>
       <path d="M 0 0 
L 0 3.5 
" id="m1a1c145f22" style="stroke:#a9a9a9;stroke-width:2;"/>
      </defs>
      <g>
       <use style="fill:#a9a9a9;stroke:#a9a9a9;stroke-width:2;" x="29.387755" xlink:href="#m1a1c145f22" y="28.036626"/>
      </g>
     </g>
    </g>
    <g id="xtick_2">
     <g id="line2d_2">
      <g>
       <use style="fill:#a9a9a9;stroke:#a9a9a9;stroke-width:2;" x="52.163265" xlink:href="#m1a1c145f22" y="28.036626"/>
      </g>
     </g>
    </g>
    <g id="xtick_3">
     <g id="line2d_3">
      <g>
       <use style="fill:#a9a9a9;stroke:#a9a9a9;stroke-width:2;" x="74.938776" xlink:href="#m1a1c145f22" y="28.036626"/>
      </g>
     </g>
    </g>
    <g id="xtick_4">
     <g id="line2d_4">
      <g>
       <use style="fill:#a9a9a9;stroke:#a9a9a9;stroke-width:2;" x="97.714286" xlink:href="#m1a1c145f22" y="28.036626"/>
      </g>
     </g>
    </g>
    <g id="xtick_5">
     <g id="line2d_5">
      <g>
       <use style="fill:#a9a9a9;stroke:#a9a9a9;stroke-width:2;" x="120.489796" xlink:href="#m1a1c145f22" y="28.036626"/>
      </g>
     </g>
    </g>
   </g>
   <g id="matplotlib.axis_2"/>
   <g id="line2d_6">
    <path clip-path="url(#p0782792305)" d="M 18 28.036626 
L 20.277551 28.036626 
L 22.555102 28.036626 
L 24.832653 28.036626 
L 27.110204 28.036626 
L 29.387755 28.036615 
L 31.665306 28.030598 
L 33.942857 28.036293 
L 36.220408 28.019124 
L 38.497959 27.933351 
L 40.77551 27.801741 
L 43.053061 27.06515 
L 45.330612 26.298703 
L 47.608163 24.874218 
L 49.885714 23.526497 
L 52.163265 21.857847 
L 54.440816 20.422891 
L 56.718367 18.972682 
L 58.995918 18.917326 
L 61.273469 19.299963 
L 63.55102 20.460318 
L 65.828571 23.414862 
L 68.106122 28.132465 
L 70.383673 33.352236 
L 72.661224 39.966367 
L 74.938776 51.5526 
L 77.216327 52.153958 
L 79.493878 57.953766 
L 81.771429 61.778817 
L 84.04898 64.730205 
L 86.326531 65.461821 
L 88.604082 64.22648 
L 90.881633 61.773639 
L 93.159184 58.746256 
L 95.436735 54.170131 
L 97.714286 49.592549 
L 99.991837 44.942158 
L 102.269388 40.645021 
L 104.546939 36.68306 
L 106.82449 33.675848 
L 109.102041 31.169871 
L 111.379592 29.733686 
L 113.657143 28.769812 
L 115.934694 28.255285 
L 118.212245 28.073833 
L 120.489796 28.036673 
L 122.767347 28.036626 
L 125.044898 28.036626 
L 127.322449 28.036626 
L 129.6 28.036626 
" style="fill:none;stroke:#fc8d62;stroke-linecap:square;stroke-width:2;"/>
   </g>
   <g id="line2d_7">
    <path clip-path="url(#p0782792305)" d="M 18 28.036626 
L 20.277551 28.036626 
L 22.555102 28.036626 
L 24.832653 28.036626 
L 27.110204 28.036626 
L 29.387755 28.036622 
L 31.665306 28.036367 
L 33.942857 28.095297 
L 36.220408 28.163375 
L 38.497959 28.529034 
L 40.77551 28.979561 
L 43.053061 29.772105 
L 45.330612 30.55201 
L 47.608163 31.934804 
L 49.885714 33.471185 
L 52.163265 35.299949 
L 54.440816 37.379387 
L 56.718367 39.370831 
L 58.995918 41.456896 
L 61.273469 43.32595 
L 63.55102 45.774089 
L 65.828571 47.710439 
L 68.106122 49.382264 
L 70.383673 50.997155 
L 72.661224 51.935111 
L 74.938776 56.652436 
L 77.216327 52.673017 
L 79.493878 51.993329 
L 81.771429 50.994243 
L 84.04898 49.5014 
L 86.326531 47.619691 
L 88.604082 45.928278 
L 90.881633 43.374192 
L 93.159184 41.104096 
L 95.436735 38.795233 
L 97.714286 36.89811 
L 99.991837 34.998657 
L 102.269388 33.339335 
L 104.546939 32.021843 
L 106.82449 30.561092 
L 109.102041 29.680143 
L 111.379592 28.911713 
L 113.657143 28.515561 
L 115.934694 28.162088 
L 118.212245 28.059869 
L 120.489796 28.036665 
L 122.767347 28.036626 
L 125.044898 28.036626 
L 127.322449 28.036626 
L 129.6 28.036626 
" style="fill:none;stroke:#fc8d62;stroke-dasharray:1.5,1.5;stroke-dashoffset:0;stroke-opacity:0.7;stroke-width:1.5;"/>
   </g>
   <g id="patch_3">
    <path d="M 74.938776 67.68 
L 74.938776 17.28 
" style="fill:none;stroke:#a9a9a9;stroke-linecap:square;stroke-linejoin:miter;stroke-width:2;"/>
   </g>
   <g id="patch_4">
    <path d="M 129.6 67.68 
L 129.6 17.28 
" style="fill:none;"/>
   </g>
   <g id="patch_5">
    <path d="M 18 28.036626 
L 129.6 28.036626 
" style="fill:none;stroke:#a9a9a9;stroke-linecap:square;stroke-linejoin:miter;stroke-width:2;"/>
   </g>
   <g id="patch_6">
    <path d="M 18 17.28 
L 129.6 17.28 
" style="fill:none;"/>
   </g>
   <g id="legend_1">
    <g id="line2d_8">
     <path d="M 24.3 47.199531 
L 38.3 47.199531 
" style="fill:none;stroke:#fc8d62;stroke-linecap:square;stroke-width:2;"/>
    </g>
    <g id="line2d_9"/>
    <g id="text_1">
     <!-- $\theta$ -->
     <g transform="translate(43.9 49.649531)scale(0.07 -0.07)">
      <defs>
       <path d="M 45.515625 34.671875 
L 14.453125 34.671875 
Q 12.359375 20.0625 14.5 13.875 
Q 17.1875 6.25 24.46875 6.25 
Q 31.78125 6.25 37.359375 13.921875 
Q 42.234375 20.65625 45.515625 34.671875 
z
M 47.015625 42.96875 
Q 48.34375 56.84375 46.625 61.71875 
Q 43.953125 69.4375 36.765625 69.4375 
Q 29.296875 69.4375 23.828125 61.8125 
Q 19.53125 55.671875 16.15625 42.96875 
z
M 38.1875 76.765625 
Q 49.90625 76.765625 54.59375 66.40625 
Q 59.28125 56.109375 55.71875 37.84375 
Q 52.203125 19.625 43.453125 9.28125 
Q 34.765625 -1.125 23.046875 -1.125 
Q 11.28125 -1.125 6.640625 9.28125 
Q 2 19.625 5.515625 37.84375 
Q 9.078125 56.109375 17.71875 66.40625 
Q 26.421875 76.765625 38.1875 76.765625 
z
" id="DejaVuSans-Oblique-952"/>
      </defs>
      <use transform="translate(0 0.234375)" xlink:href="#DejaVuSans-Oblique-952"/>
     </g>
    </g>
    <g id="line2d_10">
     <path d="M 24.3 57.474219 
L 38.3 57.474219 
" style="fill:none;stroke:#fc8d62;stroke-dasharray:1.5,1.5;stroke-dashoffset:0;stroke-opacity:0.7;stroke-width:1.5;"/>
    </g>
    <g id="line2d_11"/>
    <g id="text_2">
     <!-- No $\theta$ -->
     <g transform="translate(43.9 59.924219)scale(0.07 -0.07)">
      <defs>
       <path d="M 9.8125 72.90625 
L 23.09375 72.90625 
L 55.421875 11.921875 
L 55.421875 72.90625 
L 64.984375 72.90625 
L 64.984375 0 
L 51.703125 0 
L 19.390625 60.984375 
L 19.390625 0 
L 9.8125 0 
z
" id="DejaVuSans-78"/>
       <path d="M 30.609375 48.390625 
Q 23.390625 48.390625 19.1875 42.75 
Q 14.984375 37.109375 14.984375 27.296875 
Q 14.984375 17.484375 19.15625 11.84375 
Q 23.34375 6.203125 30.609375 6.203125 
Q 37.796875 6.203125 41.984375 11.859375 
Q 46.1875 17.53125 46.1875 27.296875 
Q 46.1875 37.015625 41.984375 42.703125 
Q 37.796875 48.390625 30.609375 48.390625 
z
M 30.609375 56 
Q 42.328125 56 49.015625 48.375 
Q 55.71875 40.765625 55.71875 27.296875 
Q 55.71875 13.875 49.015625 6.21875 
Q 42.328125 -1.421875 30.609375 -1.421875 
Q 18.84375 -1.421875 12.171875 6.21875 
Q 5.515625 13.875 5.515625 27.296875 
Q 5.515625 40.765625 12.171875 48.375 
Q 18.84375 56 30.609375 56 
z
" id="DejaVuSans-111"/>
       <path id="DejaVuSans-32"/>
      </defs>
      <use transform="translate(0 0.234375)" xlink:href="#DejaVuSans-78"/>
      <use transform="translate(74.804688 0.234375)" xlink:href="#DejaVuSans-111"/>
      <use transform="translate(135.986328 0.234375)" xlink:href="#DejaVuSans-32"/>
      <use transform="translate(167.773438 0.234375)" xlink:href="#DejaVuSans-Oblique-952"/>
     </g>
    </g>
   </g>
  </g>
  <g id="axes_2">
   <g id="patch_7">
    <path d="M 18 128.16 
L 129.6 128.16 
L 129.6 77.76 
L 18 77.76 
z
" style="fill:none;"/>
   </g>
   <g id="PolyCollection_3">
    <path clip-path="url(#p9234c414bd)" d="M 18 120.49488 
L 18 120.417414 
L 20.277551 120.638187 
L 22.555102 120.703077 
L 24.832653 120.61995 
L 27.110204 120.437905 
L 29.387755 120.235734 
L 31.665306 120.062926 
L 33.942857 119.778648 
L 36.220408 119.220604 
L 38.497959 118.261041 
L 40.77551 116.808259 
L 43.053061 114.81139 
L 45.330612 112.262724 
L 47.608163 109.194668 
L 49.885714 105.675653 
L 52.163265 101.806519 
L 54.440816 97.716985 
L 56.718367 93.561547 
L 58.995918 89.514773 
L 61.273469 85.76604 
L 63.55102 82.514102 
L 65.828571 79.961823 
L 68.106122 78.311352 
L 70.383673 77.76 
L 72.661224 78.496998 
L 74.938776 80.691241 
L 77.216327 84.432395 
L 79.493878 89.318815 
L 81.771429 94.901731 
L 84.04898 100.762507 
L 86.326531 106.536558 
L 88.604082 111.922465 
L 90.881633 116.686795 
L 93.159184 120.665292 
L 95.436735 123.76143 
L 97.714286 125.94371 
L 99.991837 127.240375 
L 102.269388 127.729266 
L 104.546939 127.524876 
L 106.82449 126.766806 
L 109.102041 125.610507 
L 111.379592 124.219116 
L 113.657143 122.756503 
L 115.934694 121.382106 
L 118.212245 120.249078 
L 120.489796 119.507674 
L 122.767347 119.254626 
L 125.044898 119.370543 
L 127.322449 119.691755 
L 129.6 120.077246 
L 129.6 120.181171 
L 129.6 120.181171 
L 127.322449 119.821068 
L 125.044898 119.519539 
L 122.767347 119.415261 
L 120.489796 119.67388 
L 118.212245 120.425327 
L 115.934694 121.586312 
L 113.657143 123.005874 
L 111.379592 124.520512 
L 109.102041 125.960578 
L 106.82449 127.155519 
L 104.546939 127.939719 
L 102.269388 128.16 
L 99.991837 127.684579 
L 97.714286 126.412543 
L 95.436735 124.281402 
L 93.159184 121.272239 
L 90.881633 117.415837 
L 88.604082 112.801096 
L 86.326531 107.582283 
L 84.04898 101.982393 
L 81.771429 96.292647 
L 79.493878 90.867881 
L 77.216327 86.117435 
L 74.938776 82.481459 
L 72.661224 80.35476 
L 70.383673 79.643972 
L 68.106122 80.179306 
L 65.828571 81.772676 
L 63.55102 84.229782 
L 61.273469 87.353211 
L 58.995918 90.946361 
L 56.718367 94.817995 
L 54.440816 98.787232 
L 52.163265 102.688561 
L 49.885714 106.376557 
L 47.608163 109.730055 
L 45.330612 112.655821 
L 43.053061 115.092007 
L 40.77551 117.010567 
L 38.497959 118.417926 
L 36.220408 119.355069 
L 33.942857 119.900942 
L 31.665306 120.175806 
L 29.387755 120.338223 
L 27.110204 120.52552 
L 24.832653 120.689492 
L 22.555102 120.758699 
L 20.277551 120.69601 
L 18 120.49488 
z
" style="fill:#66c2a5;fill-opacity:0.2;"/>
   </g>
   <g id="matplotlib.axis_3">
    <g id="xtick_6">
     <g id="line2d_12">
      <g>
       <use style="fill:#a9a9a9;stroke:#a9a9a9;stroke-width:2;" x="29.387755" xlink:href="#m1a1c145f22" y="122.151909"/>
      </g>
     </g>
    </g>
    <g id="xtick_7">
     <g id="line2d_13">
      <g>
       <use style="fill:#a9a9a9;stroke:#a9a9a9;stroke-width:2;" x="52.163265" xlink:href="#m1a1c145f22" y="122.151909"/>
      </g>
     </g>
    </g>
    <g id="xtick_8">
     <g id="line2d_14">
      <g>
       <use style="fill:#a9a9a9;stroke:#a9a9a9;stroke-width:2;" x="74.938776" xlink:href="#m1a1c145f22" y="122.151909"/>
      </g>
     </g>
    </g>
    <g id="xtick_9">
     <g id="line2d_15">
      <g>
       <use style="fill:#a9a9a9;stroke:#a9a9a9;stroke-width:2;" x="97.714286" xlink:href="#m1a1c145f22" y="122.151909"/>
      </g>
     </g>
    </g>
    <g id="xtick_10">
     <g id="line2d_16">
      <g>
       <use style="fill:#a9a9a9;stroke:#a9a9a9;stroke-width:2;" x="120.489796" xlink:href="#m1a1c145f22" y="122.151909"/>
      </g>
     </g>
    </g>
   </g>
   <g id="matplotlib.axis_4"/>
   <g id="line2d_17">
    <path clip-path="url(#p9234c414bd)" d="M 18 120.456147 
L 20.277551 120.667098 
L 22.555102 120.730888 
L 24.832653 120.654721 
L 27.110204 120.481713 
L 29.387755 120.286978 
L 31.665306 120.119366 
L 33.942857 119.839795 
L 36.220408 119.287836 
L 38.497959 118.339484 
L 40.77551 116.909413 
L 43.053061 114.951699 
L 45.330612 112.459273 
L 47.608163 109.462362 
L 49.885714 106.026105 
L 52.163265 102.24754 
L 54.440816 98.252109 
L 56.718367 94.189771 
L 58.995918 90.230567 
L 61.273469 86.559626 
L 63.55102 83.371942 
L 65.828571 80.867249 
L 68.106122 79.245329 
L 70.383673 78.701986 
L 72.661224 79.425879 
L 74.938776 81.58635 
L 77.216327 85.274915 
L 79.493878 90.093348 
L 81.771429 95.597189 
L 84.04898 101.37245 
L 86.326531 107.059421 
L 88.604082 112.361781 
L 90.881633 117.051316 
L 93.159184 120.968766 
L 95.436735 124.021416 
L 97.714286 126.178127 
L 99.991837 127.462477 
L 102.269388 127.944633 
L 104.546939 127.732297 
L 106.82449 126.961162 
L 109.102041 125.785542 
L 111.379592 124.369814 
L 113.657143 122.881189 
L 115.934694 121.484209 
L 118.212245 120.337203 
L 120.489796 119.590777 
L 122.767347 119.334943 
L 125.044898 119.445041 
L 127.322449 119.756412 
L 129.6 120.129209 
" style="fill:none;stroke:#66c2a5;stroke-linecap:square;stroke-width:2;"/>
   </g>
   <g id="patch_8">
    <path d="M 74.938776 128.16 
L 74.938776 77.76 
" style="fill:none;stroke:#a9a9a9;stroke-linecap:square;stroke-linejoin:miter;stroke-width:2;"/>
   </g>
   <g id="patch_9">
    <path d="M 129.6 128.16 
L 129.6 77.76 
" style="fill:none;"/>
   </g>
   <g id="patch_10">
    <path d="M 18 122.151909 
L 129.6 122.151909 
" style="fill:none;stroke:#a9a9a9;stroke-linecap:square;stroke-linejoin:miter;stroke-width:2;"/>
   </g>
   <g id="patch_11">
    <path d="M 18 77.76 
L 129.6 77.76 
" style="fill:none;"/>
   </g>
  </g>
 </g>
 <defs>
  <clipPath id="p0782792305">
   <rect height="50.4" width="111.6" x="18" y="17.28"/>
  </clipPath>
  <clipPath id="p9234c414bd">
   <rect height="50.4" width="111.6" x="18" y="77.76"/>
  </clipPath>
 </defs>
</svg>
