<?xml version="1.0" encoding="utf-8" standalone="no"?>
<!DOCTYPE svg PUBLIC "-//W3C//DTD SVG 1.1//EN"
  "http://www.w3.org/Graphics/SVG/1.1/DTD/svg11.dtd">
<!-- Created with matplotlib (https://matplotlib.org/) -->
<svg height="144pt" version="1.1" viewBox="0 0 144 144" width="144pt" xmlns="http://www.w3.org/2000/svg" xmlns:xlink="http://www.w3.org/1999/xlink">
 <metadata>
  <rdf:RDF xmlns:cc="http://creativecommons.org/ns#" xmlns:dc="http://purl.org/dc/elements/1.1/" xmlns:rdf="http://www.w3.org/1999/02/22-rdf-syntax-ns#">
   <cc:Work>
    <dc:type rdf:resource="http://purl.org/dc/dcmitype/StillImage"/>
    <dc:date>2021-10-13T15:32:11.835091</dc:date>
    <dc:format>image/svg+xml</dc:format>
    <dc:creator>
     <cc:Agent>
      <dc:title>Matplotlib v3.3.2, https://matplotlib.org/</dc:title>
     </cc:Agent>
    </dc:creator>
   </cc:Work>
  </rdf:RDF>
 </metadata>
 <defs>
  <style type="text/css">*{stroke-linecap:butt;stroke-linejoin:round;}</style>
 </defs>
 <g id="figure_1">
  <g id="patch_1">
   <path d="M 0 144 
L 144 144 
L 144 0 
L 0 0 
z
" style="fill:none;"/>
  </g>
  <g id="axes_1">
   <g id="patch_2">
    <path d="M 18 67.68 
L 129.6 67.68 
L 129.6 17.28 
L 18 17.28 
z
" style="fill:none;"/>
   </g>
   <g id="PolyCollection_1">
    <path clip-path="url(#pd3a93ee061)" d="M 18 66.412902 
L 18 66.412902 
L 20.277551 66.412902 
L 22.555102 66.412902 
L 24.832653 66.412902 
L 27.110204 66.412902 
L 29.387755 66.412899 
L 31.665306 66.350727 
L 33.942857 65.818646 
L 36.220408 65.12324 
L 38.497959 64.196239 
L 40.77551 63.046453 
L 43.053061 59.462985 
L 45.330612 57.087021 
L 47.608163 52.861781 
L 49.885714 49.04239 
L 52.163265 44.759542 
L 54.440816 40.773888 
L 56.718367 34.318046 
L 58.995918 30.1854 
L 61.273469 25.422378 
L 63.55102 19.712406 
L 65.828571 18.108274 
L 68.106122 18.829822 
L 70.383673 17.28 
L 72.661224 20.828852 
L 74.938776 34.060651 
L 77.216327 27.645736 
L 79.493878 30.091012 
L 81.771429 38.299316 
L 84.04898 41.706863 
L 86.326531 46.049441 
L 88.604082 48.281256 
L 90.881633 51.237164 
L 93.159184 55.939623 
L 95.436735 57.391937 
L 97.714286 60.053598 
L 99.991837 61.084313 
L 102.269388 61.521359 
L 104.546939 62.777542 
L 106.82449 63.836328 
L 109.102041 64.086871 
L 111.379592 65.00593 
L 113.657143 65.519941 
L 115.934694 66.030705 
L 118.212245 66.321793 
L 120.489796 66.412901 
L 122.767347 66.412902 
L 125.044898 66.412902 
L 127.322449 66.412902 
L 129.6 66.412902 
L 129.6 66.412902 
L 129.6 66.412902 
L 127.322449 66.412902 
L 125.044898 66.412902 
L 122.767347 66.412902 
L 120.489796 66.412904 
L 118.212245 66.479319 
L 115.934694 66.751031 
L 113.657143 66.964493 
L 111.379592 67.054184 
L 109.102041 66.531538 
L 106.82449 67.68 
L 104.546939 67.415652 
L 102.269388 67.444973 
L 99.991837 67.206857 
L 97.714286 66.849137 
L 95.436735 64.582149 
L 93.159184 63.935602 
L 90.881633 61.989551 
L 88.604082 59.817954 
L 86.326531 58.381028 
L 84.04898 54.704056 
L 81.771429 50.02591 
L 79.493878 45.548044 
L 77.216327 39.665011 
L 74.938776 38.969193 
L 72.661224 35.192897 
L 70.383673 34.626778 
L 68.106122 31.454871 
L 65.828571 31.570729 
L 63.55102 35.099848 
L 61.273469 38.948734 
L 58.995918 42.149498 
L 56.718367 44.715164 
L 54.440816 49.947695 
L 52.163265 51.915138 
L 49.885714 56.950241 
L 47.608163 59.649155 
L 45.330612 62.777082 
L 43.053061 64.050303 
L 40.77551 66.015204 
L 38.497959 66.390002 
L 36.220408 66.663353 
L 33.942857 66.636012 
L 31.665306 66.474416 
L 29.387755 66.412904 
L 27.110204 66.412902 
L 24.832653 66.412902 
L 22.555102 66.412902 
L 20.277551 66.412902 
L 18 66.412902 
z
" style="fill:#fc8d62;fill-opacity:0.2;"/>
   </g>
   <g id="PolyCollection_2">
    <path clip-path="url(#pd3a93ee061)" d="M 18 66.412902 
L 18 66.412902 
L 20.277551 66.412902 
L 22.555102 66.412902 
L 24.832653 66.412902 
L 27.110204 66.412902 
L 29.387755 66.412902 
L 31.665306 66.303026 
L 33.942857 65.974574 
L 36.220408 65.39597 
L 38.497959 64.422998 
L 40.77551 63.064372 
L 43.053061 60.884294 
L 45.330612 58.880618 
L 47.608163 57.511349 
L 49.885714 52.555897 
L 52.163265 50.650154 
L 54.440816 47.928149 
L 56.718367 43.749803 
L 58.995918 41.419694 
L 61.273469 37.124631 
L 63.55102 35.619723 
L 65.828571 32.337531 
L 68.106122 27.271791 
L 70.383673 25.818418 
L 72.661224 26.405723 
L 74.938776 34.377826 
L 77.216327 23.893161 
L 79.493878 27.283798 
L 81.771429 29.057767 
L 84.04898 30.67879 
L 86.326531 34.90184 
L 88.604082 39.930335 
L 90.881633 41.276231 
L 93.159184 44.914437 
L 95.436735 48.386401 
L 97.714286 51.339384 
L 99.991837 55.376651 
L 102.269388 56.648172 
L 104.546939 59.658084 
L 106.82449 62.206149 
L 109.102041 63.214137 
L 111.379592 64.384245 
L 113.657143 65.316559 
L 115.934694 65.774141 
L 118.212245 66.290138 
L 120.489796 66.412902 
L 122.767347 66.412902 
L 125.044898 66.412902 
L 127.322449 66.412902 
L 129.6 66.412902 
L 129.6 66.412902 
L 129.6 66.412902 
L 127.322449 66.412902 
L 125.044898 66.412902 
L 122.767347 66.412902 
L 120.489796 66.412902 
L 118.212245 66.504561 
L 115.934694 66.71141 
L 113.657143 66.667771 
L 111.379592 66.635661 
L 109.102041 66.136589 
L 106.82449 66.576855 
L 104.546939 64.862427 
L 102.269388 62.99191 
L 99.991837 63.232365 
L 97.714286 60.080651 
L 95.436735 56.804569 
L 93.159184 55.558697 
L 90.881633 52.093799 
L 88.604082 48.64669 
L 86.326531 45.524836 
L 84.04898 44.933954 
L 81.771429 43.014202 
L 79.493878 41.091507 
L 77.216327 39.231871 
L 74.938776 39.304191 
L 72.661224 41.99383 
L 70.383673 40.737919 
L 68.106122 42.057022 
L 65.828571 44.773118 
L 63.55102 45.614432 
L 61.273469 47.371301 
L 58.995918 51.798135 
L 56.718367 54.209708 
L 54.440816 56.805272 
L 52.163265 59.663378 
L 49.885714 60.530244 
L 47.608163 63.867319 
L 45.330612 64.802491 
L 43.053061 65.201431 
L 40.77551 66.426046 
L 38.497959 66.649555 
L 36.220408 66.662169 
L 33.942857 66.79524 
L 31.665306 66.51638 
L 29.387755 66.412902 
L 27.110204 66.412902 
L 24.832653 66.412902 
L 22.555102 66.412902 
L 20.277551 66.412902 
L 18 66.412902 
z
" style="fill:#fc8d62;fill-opacity:0.2;"/>
   </g>
   <g id="matplotlib.axis_1">
    <g id="xtick_1">
     <g id="line2d_1">
      <defs>
       <path d="M 0 0 
L 0 3.5 
" id="m2ad89e59e1" style="stroke:#a9a9a9;stroke-width:2;"/>
      </defs>
      <g>
       <use style="fill:#a9a9a9;stroke:#a9a9a9;stroke-width:2;" x="29.387755" xlink:href="#m2ad89e59e1" y="66.412902"/>
      </g>
     </g>
    </g>
    <g id="xtick_2">
     <g id="line2d_2">
      <g>
       <use style="fill:#a9a9a9;stroke:#a9a9a9;stroke-width:2;" x="52.163265" xlink:href="#m2ad89e59e1" y="66.412902"/>
      </g>
     </g>
    </g>
    <g id="xtick_3">
     <g id="line2d_3">
      <g>
       <use style="fill:#a9a9a9;stroke:#a9a9a9;stroke-width:2;" x="74.938776" xlink:href="#m2ad89e59e1" y="66.412902"/>
      </g>
     </g>
    </g>
    <g id="xtick_4">
     <g id="line2d_4">
      <g>
       <use style="fill:#a9a9a9;stroke:#a9a9a9;stroke-width:2;" x="97.714286" xlink:href="#m2ad89e59e1" y="66.412902"/>
      </g>
     </g>
    </g>
    <g id="xtick_5">
     <g id="line2d_5">
      <g>
       <use style="fill:#a9a9a9;stroke:#a9a9a9;stroke-width:2;" x="120.489796" xlink:href="#m2ad89e59e1" y="66.412902"/>
      </g>
     </g>
    </g>
   </g>
   <g id="matplotlib.axis_2"/>
   <g id="line2d_6">
    <path clip-path="url(#pd3a93ee061)" d="M 18 66.412902 
L 20.277551 66.412902 
L 22.555102 66.412902 
L 24.832653 66.412902 
L 27.110204 66.412902 
L 29.387755 66.412902 
L 31.665306 66.412571 
L 33.942857 66.227329 
L 36.220408 65.893296 
L 38.497959 65.29312 
L 40.77551 64.530829 
L 43.053061 61.756644 
L 45.330612 59.932052 
L 47.608163 56.255468 
L 49.885714 52.996315 
L 52.163265 48.33734 
L 54.440816 45.360792 
L 56.718367 39.516605 
L 58.995918 36.167449 
L 61.273469 32.185556 
L 63.55102 27.406127 
L 65.828571 24.839501 
L 68.106122 25.142347 
L 70.383673 25.953389 
L 72.661224 28.010875 
L 74.938776 36.514922 
L 77.216327 33.655373 
L 79.493878 37.819528 
L 81.771429 44.162613 
L 84.04898 48.205459 
L 86.326531 52.215234 
L 88.604082 54.049605 
L 90.881633 56.613358 
L 93.159184 59.937612 
L 95.436735 60.987043 
L 97.714286 63.451367 
L 99.991837 64.145585 
L 102.269388 64.483166 
L 104.546939 65.096597 
L 106.82449 65.758164 
L 109.102041 65.309205 
L 111.379592 66.030057 
L 113.657143 66.242217 
L 115.934694 66.390868 
L 118.212245 66.400556 
L 120.489796 66.412902 
L 122.767347 66.412902 
L 125.044898 66.412902 
L 127.322449 66.412902 
L 129.6 66.412902 
" style="fill:none;stroke:#fc8d62;stroke-linecap:square;stroke-width:2;"/>
   </g>
   <g id="line2d_7">
    <path clip-path="url(#pd3a93ee061)" d="M 18 66.412902 
L 20.277551 66.412902 
L 22.555102 66.412902 
L 24.832653 66.412902 
L 27.110204 66.412902 
L 29.387755 66.412902 
L 31.665306 66.409703 
L 33.942857 66.384907 
L 36.220408 66.029069 
L 38.497959 65.536277 
L 40.77551 64.745209 
L 43.053061 63.042863 
L 45.330612 61.841554 
L 47.608163 60.689334 
L 49.885714 56.543071 
L 52.163265 55.156766 
L 54.440816 52.36671 
L 56.718367 48.979755 
L 58.995918 46.608914 
L 61.273469 42.247966 
L 63.55102 40.617078 
L 65.828571 38.555324 
L 68.106122 34.664407 
L 70.383673 33.278169 
L 72.661224 34.199776 
L 74.938776 36.841008 
L 77.216327 31.562516 
L 79.493878 34.187653 
L 81.771429 36.035985 
L 84.04898 37.806372 
L 86.326531 40.213338 
L 88.604082 44.288512 
L 90.881633 46.685015 
L 93.159184 50.236567 
L 95.436735 52.595485 
L 97.714286 55.710018 
L 99.991837 59.304508 
L 102.269388 59.820041 
L 104.546939 62.260256 
L 106.82449 64.391502 
L 109.102041 64.675363 
L 111.379592 65.509953 
L 113.657143 65.992165 
L 115.934694 66.242775 
L 118.212245 66.39735 
L 120.489796 66.412902 
L 122.767347 66.412902 
L 125.044898 66.412902 
L 127.322449 66.412902 
L 129.6 66.412902 
" style="fill:none;stroke:#fc8d62;stroke-dasharray:1.5,1.5;stroke-dashoffset:0;stroke-opacity:0.7;stroke-width:1.5;"/>
   </g>
   <g id="patch_3">
    <path d="M 74.938776 67.68 
L 74.938776 17.28 
" style="fill:none;stroke:#a9a9a9;stroke-linecap:square;stroke-linejoin:miter;stroke-width:2;"/>
   </g>
   <g id="patch_4">
    <path d="M 129.6 67.68 
L 129.6 17.28 
" style="fill:none;"/>
   </g>
   <g id="patch_5">
    <path d="M 18 66.412902 
L 129.6 66.412902 
" style="fill:none;stroke:#a9a9a9;stroke-linecap:square;stroke-linejoin:miter;stroke-width:2;"/>
   </g>
   <g id="patch_6">
    <path d="M 18 17.28 
L 129.6 17.28 
" style="fill:none;"/>
   </g>
   <g id="legend_1">
    <g id="line2d_8">
     <path d="M 87.67 26.448906 
L 101.67 26.448906 
" style="fill:none;stroke:#fc8d62;stroke-linecap:square;stroke-width:2;"/>
    </g>
    <g id="line2d_9"/>
    <g id="text_1">
     <!-- $\theta$ -->
     <g transform="translate(107.27 28.898906)scale(0.07 -0.07)">
      <defs>
       <path d="M 45.515625 34.671875 
L 14.453125 34.671875 
Q 12.359375 20.0625 14.5 13.875 
Q 17.1875 6.25 24.46875 6.25 
Q 31.78125 6.25 37.359375 13.921875 
Q 42.234375 20.65625 45.515625 34.671875 
z
M 47.015625 42.96875 
Q 48.34375 56.84375 46.625 61.71875 
Q 43.953125 69.4375 36.765625 69.4375 
Q 29.296875 69.4375 23.828125 61.8125 
Q 19.53125 55.671875 16.15625 42.96875 
z
M 38.1875 76.765625 
Q 49.90625 76.765625 54.59375 66.40625 
Q 59.28125 56.109375 55.71875 37.84375 
Q 52.203125 19.625 43.453125 9.28125 
Q 34.765625 -1.125 23.046875 -1.125 
Q 11.28125 -1.125 6.640625 9.28125 
Q 2 19.625 5.515625 37.84375 
Q 9.078125 56.109375 17.71875 66.40625 
Q 26.421875 76.765625 38.1875 76.765625 
z
" id="DejaVuSans-Oblique-952"/>
      </defs>
      <use transform="translate(0 0.234375)" xlink:href="#DejaVuSans-Oblique-952"/>
     </g>
    </g>
    <g id="line2d_10">
     <path d="M 87.67 36.723594 
L 101.67 36.723594 
" style="fill:none;stroke:#fc8d62;stroke-dasharray:1.5,1.5;stroke-dashoffset:0;stroke-opacity:0.7;stroke-width:1.5;"/>
    </g>
    <g id="line2d_11"/>
    <g id="text_2">
     <!-- No $\theta$ -->
     <g transform="translate(107.27 39.173594)scale(0.07 -0.07)">
      <defs>
       <path d="M 9.8125 72.90625 
L 23.09375 72.90625 
L 55.421875 11.921875 
L 55.421875 72.90625 
L 64.984375 72.90625 
L 64.984375 0 
L 51.703125 0 
L 19.390625 60.984375 
L 19.390625 0 
L 9.8125 0 
z
" id="DejaVuSans-78"/>
       <path d="M 30.609375 48.390625 
Q 23.390625 48.390625 19.1875 42.75 
Q 14.984375 37.109375 14.984375 27.296875 
Q 14.984375 17.484375 19.15625 11.84375 
Q 23.34375 6.203125 30.609375 6.203125 
Q 37.796875 6.203125 41.984375 11.859375 
Q 46.1875 17.53125 46.1875 27.296875 
Q 46.1875 37.015625 41.984375 42.703125 
Q 37.796875 48.390625 30.609375 48.390625 
z
M 30.609375 56 
Q 42.328125 56 49.015625 48.375 
Q 55.71875 40.765625 55.71875 27.296875 
Q 55.71875 13.875 49.015625 6.21875 
Q 42.328125 -1.421875 30.609375 -1.421875 
Q 18.84375 -1.421875 12.171875 6.21875 
Q 5.515625 13.875 5.515625 27.296875 
Q 5.515625 40.765625 12.171875 48.375 
Q 18.84375 56 30.609375 56 
z
" id="DejaVuSans-111"/>
       <path id="DejaVuSans-32"/>
      </defs>
      <use transform="translate(0 0.234375)" xlink:href="#DejaVuSans-78"/>
      <use transform="translate(74.804688 0.234375)" xlink:href="#DejaVuSans-111"/>
      <use transform="translate(135.986328 0.234375)" xlink:href="#DejaVuSans-32"/>
      <use transform="translate(167.773438 0.234375)" xlink:href="#DejaVuSans-Oblique-952"/>
     </g>
    </g>
   </g>
  </g>
  <g id="axes_2">
   <g id="patch_7">
    <path d="M 18 128.16 
L 129.6 128.16 
L 129.6 77.76 
L 18 77.76 
z
" style="fill:none;"/>
   </g>
   <g id="PolyCollection_3">
    <path clip-path="url(#p4a98a3f3c0)" d="M 18 120.471857 
L 18 120.396381 
L 20.277551 120.617189 
L 22.555102 120.683021 
L 24.832653 120.602047 
L 27.110204 120.422597 
L 29.387755 120.222581 
L 31.665306 120.05084 
L 33.942857 119.766936 
L 36.220408 119.209017 
L 38.497959 118.249977 
L 40.77551 116.798434 
L 43.053061 114.803218 
L 45.330612 112.256164 
L 47.608163 109.189528 
L 49.885714 105.671752 
L 52.163265 101.803779 
L 54.440816 97.715335 
L 56.718367 93.560843 
L 58.995918 89.514813 
L 61.273469 85.76659 
L 63.55102 82.514935 
L 65.828571 79.962704 
L 68.106122 78.311989 
L 70.383673 77.76 
L 72.661224 78.495803 
L 74.938776 80.688372 
L 77.216327 84.425585 
L 79.493878 89.308421 
L 81.771429 94.888681 
L 84.04898 100.748253 
L 86.326531 106.522717 
L 88.604082 111.91053 
L 90.881633 116.67793 
L 93.159184 120.660314 
L 95.436735 123.761052 
L 97.714286 125.948569 
L 99.991837 127.250589 
L 102.269388 127.743937 
L 104.546939 127.542239 
L 106.82449 126.784736 
L 109.102041 125.626956 
L 111.379592 124.232375 
L 113.657143 122.765424 
L 115.934694 121.386224 
L 118.212245 120.248569 
L 120.489796 119.50285 
L 122.767347 119.244908 
L 125.044898 119.356301 
L 127.322449 119.673938 
L 129.6 120.057158 
L 129.6 120.157526 
L 129.6 120.157526 
L 127.322449 119.798547 
L 125.044898 119.499787 
L 122.767347 119.399692 
L 120.489796 119.663429 
L 118.212245 120.419943 
L 115.934694 121.585177 
L 113.657143 123.007792 
L 111.379592 124.524309 
L 109.102041 125.965141 
L 106.82449 127.159748 
L 104.546939 127.94246 
L 102.269388 128.16 
L 99.991837 127.680303 
L 97.714286 126.401942 
L 95.436735 124.262022 
L 93.159184 121.241959 
L 90.881633 117.373468 
L 88.604082 112.746436 
L 86.326531 107.51583 
L 84.04898 101.90517 
L 81.771429 96.206083 
L 79.493878 90.773651 
L 77.216327 86.017275 
L 74.938776 82.377232 
L 72.661224 80.246608 
L 70.383673 79.53388 
L 68.106122 80.069308 
L 65.828571 81.66493 
L 63.55102 84.126398 
L 61.273469 87.256116 
L 58.995918 90.857205 
L 56.718367 94.738082 
L 54.440816 98.717425 
L 52.163265 102.629238 
L 49.885714 106.32761 
L 47.608163 109.69101 
L 45.330612 112.625998 
L 43.053061 115.0705 
L 40.77551 116.996155 
L 38.497959 118.408815 
L 36.220408 119.349068 
L 33.942857 119.896085 
L 31.665306 120.170642 
L 29.387755 120.331552 
L 27.110204 120.515846 
L 24.832653 120.67631 
L 22.555102 120.741781 
L 20.277551 120.675415 
L 18 120.471857 
z
" style="fill:#66c2a5;fill-opacity:0.2;"/>
   </g>
   <g id="matplotlib.axis_3">
    <g id="xtick_6">
     <g id="line2d_12">
      <g>
       <use style="fill:#a9a9a9;stroke:#a9a9a9;stroke-width:2;" x="29.387755" xlink:href="#m2ad89e59e1" y="122.144166"/>
      </g>
     </g>
    </g>
    <g id="xtick_7">
     <g id="line2d_13">
      <g>
       <use style="fill:#a9a9a9;stroke:#a9a9a9;stroke-width:2;" x="52.163265" xlink:href="#m2ad89e59e1" y="122.144166"/>
      </g>
     </g>
    </g>
    <g id="xtick_8">
     <g id="line2d_14">
      <g>
       <use style="fill:#a9a9a9;stroke:#a9a9a9;stroke-width:2;" x="74.938776" xlink:href="#m2ad89e59e1" y="122.144166"/>
      </g>
     </g>
    </g>
    <g id="xtick_9">
     <g id="line2d_15">
      <g>
       <use style="fill:#a9a9a9;stroke:#a9a9a9;stroke-width:2;" x="97.714286" xlink:href="#m2ad89e59e1" y="122.144166"/>
      </g>
     </g>
    </g>
    <g id="xtick_10">
     <g id="line2d_16">
      <g>
       <use style="fill:#a9a9a9;stroke:#a9a9a9;stroke-width:2;" x="120.489796" xlink:href="#m2ad89e59e1" y="122.144166"/>
      </g>
     </g>
    </g>
   </g>
   <g id="matplotlib.axis_4"/>
   <g id="line2d_17">
    <path clip-path="url(#p4a98a3f3c0)" d="M 18 120.434119 
L 20.277551 120.646302 
L 22.555102 120.712401 
L 24.832653 120.639179 
L 27.110204 120.469222 
L 29.387755 120.277066 
L 31.665306 120.110741 
L 33.942857 119.831511 
L 36.220408 119.279042 
L 38.497959 118.329396 
L 40.77551 116.897295 
L 43.053061 114.936859 
L 45.330612 112.441081 
L 47.608163 109.440269 
L 49.885714 105.999681 
L 52.163265 102.216508 
L 54.440816 98.21638 
L 56.718367 94.149463 
L 58.995918 90.186009 
L 61.273469 86.511353 
L 63.55102 83.320667 
L 65.828571 80.813817 
L 68.106122 79.190649 
L 70.383673 78.64694 
L 72.661224 79.371205 
L 74.938776 81.532802 
L 77.216327 85.22143 
L 79.493878 90.041036 
L 81.771429 95.547382 
L 84.04898 101.326711 
L 86.326531 107.019273 
L 88.604082 112.328483 
L 90.881633 117.025699 
L 93.159184 120.951137 
L 95.436735 124.011537 
L 97.714286 126.175255 
L 99.991837 127.465446 
L 102.269388 127.951968 
L 104.546939 127.742349 
L 106.82449 126.972242 
L 109.102041 125.796049 
L 111.379592 124.378342 
L 113.657143 122.886608 
L 115.934694 121.4857 
L 118.212245 120.334256 
L 120.489796 119.58314 
L 122.767347 119.3223 
L 125.044898 119.428044 
L 127.322449 119.736243 
L 129.6 120.107342 
" style="fill:none;stroke:#66c2a5;stroke-linecap:square;stroke-width:2;"/>
   </g>
   <g id="patch_8">
    <path d="M 74.938776 128.16 
L 74.938776 77.76 
" style="fill:none;stroke:#a9a9a9;stroke-linecap:square;stroke-linejoin:miter;stroke-width:2;"/>
   </g>
   <g id="patch_9">
    <path d="M 129.6 128.16 
L 129.6 77.76 
" style="fill:none;"/>
   </g>
   <g id="patch_10">
    <path d="M 18 122.144166 
L 129.6 122.144166 
" style="fill:none;stroke:#a9a9a9;stroke-linecap:square;stroke-linejoin:miter;stroke-width:2;"/>
   </g>
   <g id="patch_11">
    <path d="M 18 77.76 
L 129.6 77.76 
" style="fill:none;"/>
   </g>
  </g>
 </g>
 <defs>
  <clipPath id="pd3a93ee061">
   <rect height="50.4" width="111.6" x="18" y="17.28"/>
  </clipPath>
  <clipPath id="p4a98a3f3c0">
   <rect height="50.4" width="111.6" x="18" y="77.76"/>
  </clipPath>
 </defs>
</svg>
