<?xml version="1.0" encoding="utf-8" standalone="no"?>
<!DOCTYPE svg PUBLIC "-//W3C//DTD SVG 1.1//EN"
  "http://www.w3.org/Graphics/SVG/1.1/DTD/svg11.dtd">
<!-- Created with matplotlib (https://matplotlib.org/) -->
<svg height="144pt" version="1.1" viewBox="0 0 144 144" width="144pt" xmlns="http://www.w3.org/2000/svg" xmlns:xlink="http://www.w3.org/1999/xlink">
 <metadata>
  <rdf:RDF xmlns:cc="http://creativecommons.org/ns#" xmlns:dc="http://purl.org/dc/elements/1.1/" xmlns:rdf="http://www.w3.org/1999/02/22-rdf-syntax-ns#">
   <cc:Work>
    <dc:type rdf:resource="http://purl.org/dc/dcmitype/StillImage"/>
    <dc:date>2021-10-13T00:24:32.642519</dc:date>
    <dc:format>image/svg+xml</dc:format>
    <dc:creator>
     <cc:Agent>
      <dc:title>Matplotlib v3.3.2, https://matplotlib.org/</dc:title>
     </cc:Agent>
    </dc:creator>
   </cc:Work>
  </rdf:RDF>
 </metadata>
 <defs>
  <style type="text/css">*{stroke-linecap:butt;stroke-linejoin:round;}</style>
 </defs>
 <g id="figure_1">
  <g id="patch_1">
   <path d="M 0 144 
L 144 144 
L 144 0 
L 0 0 
z
" style="fill:none;"/>
  </g>
  <g id="axes_1">
   <g id="patch_2">
    <path d="M 18 67.68 
L 129.6 67.68 
L 129.6 17.28 
L 18 17.28 
z
" style="fill:none;"/>
   </g>
   <g id="PolyCollection_1">
    <path clip-path="url(#p57e6b71f62)" d="M 18 67.679937 
L 18 67.679937 
L 20.277551 67.679937 
L 22.555102 67.679937 
L 24.832653 67.679937 
L 27.110204 67.679937 
L 29.387755 67.679798 
L 31.665306 67.634978 
L 33.942857 67.429305 
L 36.220408 66.969442 
L 38.497959 66.093602 
L 40.77551 64.728469 
L 43.053061 62.771848 
L 45.330612 60.162308 
L 47.608163 57.112874 
L 49.885714 53.389274 
L 52.163265 49.201588 
L 54.440816 44.492415 
L 56.718367 39.82345 
L 58.995918 35.111514 
L 61.273469 30.246171 
L 63.55102 26.048842 
L 65.828571 22.507423 
L 68.106122 19.829535 
L 70.383673 18.012184 
L 72.661224 17.28 
L 74.938776 25.102339 
L 77.216327 19.451611 
L 79.493878 22.351456 
L 81.771429 25.669879 
L 84.04898 29.850169 
L 86.326531 33.907678 
L 88.604082 38.480948 
L 90.881633 42.590591 
L 93.159184 46.916636 
L 95.436735 50.602108 
L 97.714286 54.321275 
L 99.991837 57.373271 
L 102.269388 59.974138 
L 104.546939 62.354987 
L 106.82449 64.065265 
L 109.102041 65.487389 
L 111.379592 66.462228 
L 113.657143 67.13821 
L 115.934694 67.498727 
L 118.212245 67.651094 
L 120.489796 67.67993 
L 122.767347 67.679937 
L 125.044898 67.679937 
L 127.322449 67.679937 
L 129.6 67.679937 
L 129.6 67.679937 
L 129.6 67.679937 
L 127.322449 67.679937 
L 125.044898 67.679937 
L 122.767347 67.679937 
L 120.489796 67.67995 
L 118.212245 67.676221 
L 115.934694 67.566002 
L 113.657143 67.264964 
L 111.379592 66.681189 
L 109.102041 65.766967 
L 106.82449 64.464187 
L 104.546939 62.737909 
L 102.269388 60.603162 
L 99.991837 58.048131 
L 97.714286 55.124435 
L 95.436735 51.735185 
L 93.159184 48.02406 
L 90.881633 44.098548 
L 88.604082 39.765474 
L 86.326531 35.524792 
L 84.04898 31.373282 
L 81.771429 27.476692 
L 79.493878 24.016899 
L 77.216327 21.279105 
L 74.938776 26.775139 
L 72.661224 19.056743 
L 70.383673 19.616292 
L 68.106122 21.481675 
L 65.828571 24.113593 
L 63.55102 27.864319 
L 61.273469 31.817993 
L 58.995918 36.451876 
L 56.718367 41.06772 
L 54.440816 45.785202 
L 52.163265 50.239 
L 49.885714 54.221827 
L 47.608163 57.829326 
L 45.330612 60.747317 
L 43.053061 63.301786 
L 40.77551 65.077764 
L 38.497959 66.328432 
L 36.220408 67.100264 
L 33.942857 67.506639 
L 31.665306 67.663929 
L 29.387755 67.68 
L 27.110204 67.679937 
L 24.832653 67.679937 
L 22.555102 67.679937 
L 20.277551 67.679937 
L 18 67.679937 
z
" style="fill:#fc8d62;fill-opacity:0.2;"/>
   </g>
   <g id="PolyCollection_2">
    <path clip-path="url(#p57e6b71f62)" d="M 18 67.679937 
L 18 67.679937 
L 20.277551 67.679937 
L 22.555102 67.679937 
L 24.832653 67.679937 
L 27.110204 67.679937 
L 29.387755 67.679533 
L 31.665306 67.639311 
L 33.942857 67.4358 
L 36.220408 66.970841 
L 38.497959 66.138665 
L 40.77551 64.781135 
L 43.053061 63.032041 
L 45.330612 60.737882 
L 47.608163 57.832144 
L 49.885714 54.507243 
L 52.163265 50.668032 
L 54.440816 46.625299 
L 56.718367 42.074964 
L 58.995918 37.488007 
L 61.273469 32.94303 
L 63.55102 28.576798 
L 65.828571 24.915219 
L 68.106122 21.566728 
L 70.383673 19.146504 
L 72.661224 17.32502 
L 74.938776 22.471201 
L 77.216327 17.5453 
L 79.493878 19.166938 
L 81.771429 22.056675 
L 84.04898 25.381996 
L 86.326531 29.305368 
L 88.604082 33.736374 
L 90.881633 38.224413 
L 93.159184 42.758569 
L 95.436735 47.120526 
L 97.714286 51.204688 
L 99.991837 55.032374 
L 102.269388 58.35252 
L 104.546939 61.026489 
L 106.82449 63.361122 
L 109.102041 65.043784 
L 111.379592 66.292038 
L 113.657143 67.076871 
L 115.934694 67.47544 
L 118.212245 67.651314 
L 120.489796 67.67991 
L 122.767347 67.679937 
L 125.044898 67.679937 
L 127.322449 67.679937 
L 129.6 67.679937 
L 129.6 67.679937 
L 129.6 67.679937 
L 127.322449 67.679937 
L 125.044898 67.679937 
L 122.767347 67.679937 
L 120.489796 67.679977 
L 118.212245 67.670869 
L 115.934694 67.558376 
L 113.657143 67.229988 
L 111.379592 66.489097 
L 109.102041 65.421643 
L 106.82449 63.787675 
L 104.546939 61.680613 
L 102.269388 59.021825 
L 99.991837 55.852175 
L 97.714286 52.158935 
L 95.436735 48.18652 
L 93.159184 43.874852 
L 90.881633 39.571512 
L 88.604082 35.179951 
L 86.326531 31.058628 
L 84.04898 27.119156 
L 81.771429 23.634096 
L 79.493878 21.212359 
L 77.216327 19.382005 
L 74.938776 24.463908 
L 72.661224 19.305148 
L 70.383673 20.821813 
L 68.106122 23.344886 
L 65.828571 26.533425 
L 63.55102 30.324693 
L 61.273469 34.570064 
L 58.995918 38.923189 
L 56.718367 43.276064 
L 54.440816 47.507064 
L 52.163265 51.657056 
L 49.885714 55.335196 
L 47.608163 58.612045 
L 45.330612 61.253712 
L 43.053061 63.469192 
L 40.77551 65.174566 
L 38.497959 66.363175 
L 36.220408 67.125635 
L 33.942857 67.520531 
L 31.665306 67.665017 
L 29.387755 67.680201 
L 27.110204 67.679937 
L 24.832653 67.679937 
L 22.555102 67.679937 
L 20.277551 67.679937 
L 18 67.679937 
z
" style="fill:#fc8d62;fill-opacity:0.2;"/>
   </g>
   <g id="matplotlib.axis_1">
    <g id="xtick_1">
     <g id="line2d_1">
      <defs>
       <path d="M 0 0 
L 0 3.5 
" id="m27fbb4066f" style="stroke:#a9a9a9;stroke-width:2;"/>
      </defs>
      <g>
       <use style="fill:#a9a9a9;stroke:#a9a9a9;stroke-width:2;" x="29.387755" xlink:href="#m27fbb4066f" y="67.679937"/>
      </g>
     </g>
    </g>
    <g id="xtick_2">
     <g id="line2d_2">
      <g>
       <use style="fill:#a9a9a9;stroke:#a9a9a9;stroke-width:2;" x="52.163265" xlink:href="#m27fbb4066f" y="67.679937"/>
      </g>
     </g>
    </g>
    <g id="xtick_3">
     <g id="line2d_3">
      <g>
       <use style="fill:#a9a9a9;stroke:#a9a9a9;stroke-width:2;" x="74.938776" xlink:href="#m27fbb4066f" y="67.679937"/>
      </g>
     </g>
    </g>
    <g id="xtick_4">
     <g id="line2d_4">
      <g>
       <use style="fill:#a9a9a9;stroke:#a9a9a9;stroke-width:2;" x="97.714286" xlink:href="#m27fbb4066f" y="67.679937"/>
      </g>
     </g>
    </g>
    <g id="xtick_5">
     <g id="line2d_5">
      <g>
       <use style="fill:#a9a9a9;stroke:#a9a9a9;stroke-width:2;" x="120.489796" xlink:href="#m27fbb4066f" y="67.679937"/>
      </g>
     </g>
    </g>
   </g>
   <g id="matplotlib.axis_2"/>
   <g id="line2d_6">
    <path clip-path="url(#p57e6b71f62)" d="M 18 67.679937 
L 20.277551 67.679937 
L 22.555102 67.679937 
L 24.832653 67.679937 
L 27.110204 67.679937 
L 29.387755 67.679899 
L 31.665306 67.649453 
L 33.942857 67.467972 
L 36.220408 67.034853 
L 38.497959 66.211017 
L 40.77551 64.903116 
L 43.053061 63.036817 
L 45.330612 60.454812 
L 47.608163 57.4711 
L 49.885714 53.805551 
L 52.163265 49.720294 
L 54.440816 45.138809 
L 56.718367 40.445585 
L 58.995918 35.781695 
L 61.273469 31.032082 
L 63.55102 26.956581 
L 65.828571 23.310508 
L 68.106122 20.655605 
L 70.383673 18.814238 
L 72.661224 18.168371 
L 74.938776 25.938739 
L 77.216327 20.365358 
L 79.493878 23.184178 
L 81.771429 26.573285 
L 84.04898 30.611726 
L 86.326531 34.716235 
L 88.604082 39.123211 
L 90.881633 43.344569 
L 93.159184 47.470348 
L 95.436735 51.168647 
L 97.714286 54.722855 
L 99.991837 57.710701 
L 102.269388 60.28865 
L 104.546939 62.546448 
L 106.82449 64.264726 
L 109.102041 65.627178 
L 111.379592 66.571708 
L 113.657143 67.201587 
L 115.934694 67.532364 
L 118.212245 67.663658 
L 120.489796 67.67994 
L 122.767347 67.679937 
L 125.044898 67.679937 
L 127.322449 67.679937 
L 129.6 67.679937 
" style="fill:none;stroke:#fc8d62;stroke-linecap:square;stroke-width:2;"/>
   </g>
   <g id="line2d_7">
    <path clip-path="url(#p57e6b71f62)" d="M 18 67.679937 
L 20.277551 67.679937 
L 22.555102 67.679937 
L 24.832653 67.679937 
L 27.110204 67.679937 
L 29.387755 67.679867 
L 31.665306 67.652164 
L 33.942857 67.478166 
L 36.220408 67.048238 
L 38.497959 66.25092 
L 40.77551 64.977851 
L 43.053061 63.250616 
L 45.330612 60.995797 
L 47.608163 58.222095 
L 49.885714 54.92122 
L 52.163265 51.162544 
L 54.440816 47.066182 
L 56.718367 42.675514 
L 58.995918 38.205598 
L 61.273469 33.756547 
L 63.55102 29.450745 
L 65.828571 25.724322 
L 68.106122 22.455807 
L 70.383673 19.984158 
L 72.661224 18.315084 
L 74.938776 23.467555 
L 77.216327 18.463652 
L 79.493878 20.189649 
L 81.771429 22.845386 
L 84.04898 26.250576 
L 86.326531 30.181998 
L 88.604082 34.458162 
L 90.881633 38.897962 
L 93.159184 43.316711 
L 95.436735 47.653523 
L 97.714286 51.681812 
L 99.991837 55.442275 
L 102.269388 58.687172 
L 104.546939 61.353551 
L 106.82449 63.574399 
L 109.102041 65.232714 
L 111.379592 66.390568 
L 113.657143 67.15343 
L 115.934694 67.516908 
L 118.212245 67.661091 
L 120.489796 67.679944 
L 122.767347 67.679937 
L 125.044898 67.679937 
L 127.322449 67.679937 
L 129.6 67.679937 
" style="fill:none;stroke:#fc8d62;stroke-dasharray:1.5,1.5;stroke-dashoffset:0;stroke-opacity:0.7;stroke-width:1.5;"/>
   </g>
   <g id="patch_3">
    <path d="M 74.938776 67.68 
L 74.938776 17.28 
" style="fill:none;stroke:#a9a9a9;stroke-linecap:square;stroke-linejoin:miter;stroke-width:2;"/>
   </g>
   <g id="patch_4">
    <path d="M 129.6 67.68 
L 129.6 17.28 
" style="fill:none;"/>
   </g>
   <g id="patch_5">
    <path d="M 18 67.679937 
L 129.6 67.679937 
" style="fill:none;stroke:#a9a9a9;stroke-linecap:square;stroke-linejoin:miter;stroke-width:2;"/>
   </g>
   <g id="patch_6">
    <path d="M 18 17.28 
L 129.6 17.28 
" style="fill:none;"/>
   </g>
   <g id="legend_1">
    <g id="line2d_8">
     <path d="M 24.3 26.448906 
L 38.3 26.448906 
" style="fill:none;stroke:#fc8d62;stroke-linecap:square;stroke-width:2;"/>
    </g>
    <g id="line2d_9"/>
    <g id="text_1">
     <!-- $\theta$ -->
     <g transform="translate(43.9 28.898906)scale(0.07 -0.07)">
      <defs>
       <path d="M 45.515625 34.671875 
L 14.453125 34.671875 
Q 12.359375 20.0625 14.5 13.875 
Q 17.1875 6.25 24.46875 6.25 
Q 31.78125 6.25 37.359375 13.921875 
Q 42.234375 20.65625 45.515625 34.671875 
z
M 47.015625 42.96875 
Q 48.34375 56.84375 46.625 61.71875 
Q 43.953125 69.4375 36.765625 69.4375 
Q 29.296875 69.4375 23.828125 61.8125 
Q 19.53125 55.671875 16.15625 42.96875 
z
M 38.1875 76.765625 
Q 49.90625 76.765625 54.59375 66.40625 
Q 59.28125 56.109375 55.71875 37.84375 
Q 52.203125 19.625 43.453125 9.28125 
Q 34.765625 -1.125 23.046875 -1.125 
Q 11.28125 -1.125 6.640625 9.28125 
Q 2 19.625 5.515625 37.84375 
Q 9.078125 56.109375 17.71875 66.40625 
Q 26.421875 76.765625 38.1875 76.765625 
z
" id="DejaVuSans-Oblique-952"/>
      </defs>
      <use transform="translate(0 0.234375)" xlink:href="#DejaVuSans-Oblique-952"/>
     </g>
    </g>
    <g id="line2d_10">
     <path d="M 24.3 36.723594 
L 38.3 36.723594 
" style="fill:none;stroke:#fc8d62;stroke-dasharray:1.5,1.5;stroke-dashoffset:0;stroke-opacity:0.7;stroke-width:1.5;"/>
    </g>
    <g id="line2d_11"/>
    <g id="text_2">
     <!-- No $\theta$ -->
     <g transform="translate(43.9 39.173594)scale(0.07 -0.07)">
      <defs>
       <path d="M 9.8125 72.90625 
L 23.09375 72.90625 
L 55.421875 11.921875 
L 55.421875 72.90625 
L 64.984375 72.90625 
L 64.984375 0 
L 51.703125 0 
L 19.390625 60.984375 
L 19.390625 0 
L 9.8125 0 
z
" id="DejaVuSans-78"/>
       <path d="M 30.609375 48.390625 
Q 23.390625 48.390625 19.1875 42.75 
Q 14.984375 37.109375 14.984375 27.296875 
Q 14.984375 17.484375 19.15625 11.84375 
Q 23.34375 6.203125 30.609375 6.203125 
Q 37.796875 6.203125 41.984375 11.859375 
Q 46.1875 17.53125 46.1875 27.296875 
Q 46.1875 37.015625 41.984375 42.703125 
Q 37.796875 48.390625 30.609375 48.390625 
z
M 30.609375 56 
Q 42.328125 56 49.015625 48.375 
Q 55.71875 40.765625 55.71875 27.296875 
Q 55.71875 13.875 49.015625 6.21875 
Q 42.328125 -1.421875 30.609375 -1.421875 
Q 18.84375 -1.421875 12.171875 6.21875 
Q 5.515625 13.875 5.515625 27.296875 
Q 5.515625 40.765625 12.171875 48.375 
Q 18.84375 56 30.609375 56 
z
" id="DejaVuSans-111"/>
       <path id="DejaVuSans-32"/>
      </defs>
      <use transform="translate(0 0.234375)" xlink:href="#DejaVuSans-78"/>
      <use transform="translate(74.804688 0.234375)" xlink:href="#DejaVuSans-111"/>
      <use transform="translate(135.986328 0.234375)" xlink:href="#DejaVuSans-32"/>
      <use transform="translate(167.773438 0.234375)" xlink:href="#DejaVuSans-Oblique-952"/>
     </g>
    </g>
   </g>
  </g>
  <g id="axes_2">
   <g id="patch_7">
    <path d="M 18 128.16 
L 129.6 128.16 
L 129.6 77.76 
L 18 77.76 
z
" style="fill:none;"/>
   </g>
   <g id="PolyCollection_3">
    <path clip-path="url(#p8ae66970bd)" d="M 18 120.483381 
L 18 120.40784 
L 20.277551 120.626458 
L 22.555102 120.688763 
L 24.832653 120.603754 
L 27.110204 120.420734 
L 29.387755 120.218066 
L 31.665306 120.044944 
L 33.942857 119.760499 
L 36.220408 119.202195 
L 38.497959 118.242432 
L 40.77551 116.790264 
L 43.053061 114.795183 
L 45.330612 112.249101 
L 47.608163 109.18403 
L 49.885714 105.667917 
L 52.163265 101.801375 
L 54.440816 97.714022 
L 56.718367 93.560339 
L 58.995918 89.514868 
L 61.273469 85.766947 
L 63.55102 82.515315 
L 65.828571 79.962902 
L 68.106122 78.311973 
L 70.383673 77.76 
L 72.661224 78.49639 
L 74.938776 80.690564 
L 77.216327 84.431267 
L 79.493878 89.318193 
L 81.771429 94.902352 
L 84.04898 100.765043 
L 86.326531 106.541447 
L 88.604082 111.929796 
L 90.881633 116.696184 
L 93.159184 120.675849 
L 95.436735 123.77212 
L 97.714286 125.954098 
L 99.991837 127.251091 
L 102.269388 127.741373 
L 104.546939 127.53898 
L 106.82449 126.782801 
L 109.102041 125.627566 
L 111.379592 124.236036 
L 113.657143 122.771938 
L 115.934694 121.394836 
L 118.212245 120.258323 
L 120.489796 119.513235 
L 122.767347 119.256521 
L 125.044898 119.368883 
L 127.322449 119.686915 
L 129.6 120.069792 
L 129.6 120.172162 
L 129.6 120.172162 
L 127.322449 119.815492 
L 125.044898 119.518006 
L 122.767347 119.418072 
L 120.489796 119.680864 
L 118.212245 120.435336 
L 115.934694 121.598215 
L 113.657143 123.018753 
L 111.379592 124.533538 
L 109.102041 125.972766 
L 106.82449 127.165563 
L 104.546939 127.945899 
L 102.269388 128.16 
L 99.991837 127.675667 
L 97.714286 126.391993 
L 95.436735 124.247522 
L 93.159184 121.225119 
L 90.881633 117.356938 
L 88.604082 112.732503 
L 86.326531 107.506271 
L 84.04898 101.901283 
L 81.771429 96.208686 
L 79.493878 90.783061 
L 77.216327 86.033319 
L 74.938776 82.399343 
L 72.661224 80.273946 
L 70.383673 79.565271 
L 68.106122 80.1034 
L 65.828571 81.70034 
L 63.55102 84.161801 
L 61.273469 87.290297 
L 58.995918 90.889086 
L 56.718367 94.766731 
L 54.440816 98.742138 
L 52.163265 102.649643 
L 49.885714 106.343718 
L 47.608163 109.703063 
L 45.330612 112.634236 
L 43.053061 115.074962 
L 40.77551 116.996894 
L 38.497959 118.406174 
L 36.220408 119.344222 
L 33.942857 119.89079 
L 31.665306 120.166278 
L 29.387755 120.328934 
L 27.110204 120.515766 
L 24.832653 120.678923 
L 22.555102 120.74702 
L 20.277551 120.683541 
L 18 120.483381 
z
" style="fill:#66c2a5;fill-opacity:0.2;"/>
   </g>
   <g id="matplotlib.axis_3">
    <g id="xtick_6">
     <g id="line2d_12">
      <g>
       <use style="fill:#a9a9a9;stroke:#a9a9a9;stroke-width:2;" x="29.387755" xlink:href="#m27fbb4066f" y="122.149572"/>
      </g>
     </g>
    </g>
    <g id="xtick_7">
     <g id="line2d_13">
      <g>
       <use style="fill:#a9a9a9;stroke:#a9a9a9;stroke-width:2;" x="52.163265" xlink:href="#m27fbb4066f" y="122.149572"/>
      </g>
     </g>
    </g>
    <g id="xtick_8">
     <g id="line2d_14">
      <g>
       <use style="fill:#a9a9a9;stroke:#a9a9a9;stroke-width:2;" x="74.938776" xlink:href="#m27fbb4066f" y="122.149572"/>
      </g>
     </g>
    </g>
    <g id="xtick_9">
     <g id="line2d_15">
      <g>
       <use style="fill:#a9a9a9;stroke:#a9a9a9;stroke-width:2;" x="97.714286" xlink:href="#m27fbb4066f" y="122.149572"/>
      </g>
     </g>
    </g>
    <g id="xtick_10">
     <g id="line2d_16">
      <g>
       <use style="fill:#a9a9a9;stroke:#a9a9a9;stroke-width:2;" x="120.489796" xlink:href="#m27fbb4066f" y="122.149572"/>
      </g>
     </g>
    </g>
   </g>
   <g id="matplotlib.axis_4"/>
   <g id="line2d_17">
    <path clip-path="url(#p8ae66970bd)" d="M 18 120.445611 
L 20.277551 120.654999 
L 22.555102 120.717892 
L 24.832653 120.641339 
L 27.110204 120.46825 
L 29.387755 120.2735 
L 31.665306 120.105611 
L 33.942857 119.825644 
L 36.220408 119.273209 
L 38.497959 118.324303 
L 40.77551 116.893579 
L 43.053061 114.935072 
L 45.330612 112.441668 
L 47.608163 109.443547 
L 49.885714 106.005818 
L 52.163265 102.225509 
L 54.440816 98.22808 
L 56.718367 94.163535 
L 58.995918 90.201977 
L 61.273469 86.528622 
L 63.55102 83.338558 
L 65.828571 80.831621 
L 68.106122 79.207686 
L 70.383673 78.662635 
L 72.661224 79.385168 
L 74.938776 81.544954 
L 77.216327 85.232293 
L 79.493878 90.050627 
L 81.771429 95.555519 
L 84.04898 101.333163 
L 86.326531 107.023859 
L 88.604082 112.33115 
L 90.881633 117.026561 
L 93.159184 120.950484 
L 95.436735 124.009821 
L 97.714286 126.173045 
L 99.991837 127.463379 
L 102.269388 127.950686 
L 104.546939 127.742439 
L 106.82449 126.974182 
L 109.102041 125.800166 
L 111.379592 124.384787 
L 113.657143 122.895345 
L 115.934694 121.496525 
L 118.212245 120.34683 
L 120.489796 119.597049 
L 122.767347 119.337296 
L 125.044898 119.443445 
L 127.322449 119.751204 
L 129.6 120.120977 
" style="fill:none;stroke:#66c2a5;stroke-linecap:square;stroke-width:2;"/>
   </g>
   <g id="patch_8">
    <path d="M 74.938776 128.16 
L 74.938776 77.76 
" style="fill:none;stroke:#a9a9a9;stroke-linecap:square;stroke-linejoin:miter;stroke-width:2;"/>
   </g>
   <g id="patch_9">
    <path d="M 129.6 128.16 
L 129.6 77.76 
" style="fill:none;"/>
   </g>
   <g id="patch_10">
    <path d="M 18 122.149572 
L 129.6 122.149572 
" style="fill:none;stroke:#a9a9a9;stroke-linecap:square;stroke-linejoin:miter;stroke-width:2;"/>
   </g>
   <g id="patch_11">
    <path d="M 18 77.76 
L 129.6 77.76 
" style="fill:none;"/>
   </g>
  </g>
 </g>
 <defs>
  <clipPath id="p57e6b71f62">
   <rect height="50.4" width="111.6" x="18" y="17.28"/>
  </clipPath>
  <clipPath id="p8ae66970bd">
   <rect height="50.4" width="111.6" x="18" y="77.76"/>
  </clipPath>
 </defs>
</svg>
