<?xml version="1.0" encoding="utf-8" standalone="no"?>
<!DOCTYPE svg PUBLIC "-//W3C//DTD SVG 1.1//EN"
  "http://www.w3.org/Graphics/SVG/1.1/DTD/svg11.dtd">
<!-- Created with matplotlib (https://matplotlib.org/) -->
<svg height="144pt" version="1.1" viewBox="0 0 144 144" width="144pt" xmlns="http://www.w3.org/2000/svg" xmlns:xlink="http://www.w3.org/1999/xlink">
 <metadata>
  <rdf:RDF xmlns:cc="http://creativecommons.org/ns#" xmlns:dc="http://purl.org/dc/elements/1.1/" xmlns:rdf="http://www.w3.org/1999/02/22-rdf-syntax-ns#">
   <cc:Work>
    <dc:type rdf:resource="http://purl.org/dc/dcmitype/StillImage"/>
    <dc:date>2021-10-13T15:42:18.707009</dc:date>
    <dc:format>image/svg+xml</dc:format>
    <dc:creator>
     <cc:Agent>
      <dc:title>Matplotlib v3.3.2, https://matplotlib.org/</dc:title>
     </cc:Agent>
    </dc:creator>
   </cc:Work>
  </rdf:RDF>
 </metadata>
 <defs>
  <style type="text/css">*{stroke-linecap:butt;stroke-linejoin:round;}</style>
 </defs>
 <g id="figure_1">
  <g id="patch_1">
   <path d="M 0 144 
L 144 144 
L 144 0 
L 0 0 
z
" style="fill:none;"/>
  </g>
  <g id="axes_1">
   <g id="patch_2">
    <path d="M 18 67.68 
L 129.6 67.68 
L 129.6 17.28 
L 18 17.28 
z
" style="fill:none;"/>
   </g>
   <g id="PolyCollection_1">
    <path clip-path="url(#pe67c760b4f)" d="M 18 31.293455 
L 18 31.293455 
L 20.277551 31.293455 
L 22.555102 31.293455 
L 24.832653 31.293455 
L 27.110204 31.293455 
L 29.387755 31.293454 
L 31.665306 31.08375 
L 33.942857 30.855664 
L 36.220408 30.699508 
L 38.497959 30.043741 
L 40.77551 29.931504 
L 43.053061 28.947406 
L 45.330612 27.970434 
L 47.608163 26.39062 
L 49.885714 26.123232 
L 52.163265 24.460858 
L 54.440816 22.818946 
L 56.718367 19.891119 
L 58.995918 17.28 
L 61.273469 18.448468 
L 63.55102 18.550164 
L 65.828571 20.541043 
L 68.106122 21.898136 
L 70.383673 27.8964 
L 72.661224 32.10873 
L 74.938776 60.937816 
L 77.216327 41.265667 
L 79.493878 46.992333 
L 81.771429 51.845973 
L 84.04898 54.975838 
L 86.326531 55.347021 
L 88.604082 55.337777 
L 90.881633 55.690926 
L 93.159184 52.977374 
L 95.436735 49.593 
L 97.714286 46.486508 
L 99.991837 43.459094 
L 102.269388 40.998701 
L 104.546939 37.539742 
L 106.82449 34.580374 
L 109.102041 33.069797 
L 111.379592 32.077989 
L 113.657143 31.590892 
L 115.934694 31.248892 
L 118.212245 31.258259 
L 120.489796 31.292079 
L 122.767347 31.29345 
L 125.044898 31.293455 
L 127.322449 31.293455 
L 129.6 31.293455 
L 129.6 31.293455 
L 129.6 31.293455 
L 127.322449 31.293455 
L 125.044898 31.293455 
L 122.767347 31.293466 
L 120.489796 31.297234 
L 118.212245 31.476791 
L 115.934694 31.924418 
L 113.657143 32.773603 
L 111.379592 34.210867 
L 109.102041 35.865406 
L 106.82449 38.727494 
L 104.546939 41.306271 
L 102.269388 45.156675 
L 99.991837 50.656283 
L 97.714286 54.127154 
L 95.436735 57.68003 
L 93.159184 63.369048 
L 90.881633 66.251462 
L 88.604082 66.455585 
L 86.326531 67.197838 
L 84.04898 66.03409 
L 81.771429 66.133501 
L 79.493878 62.079086 
L 77.216327 55.134265 
L 74.938776 67.68 
L 72.661224 46.397482 
L 70.383673 41.517943 
L 68.106122 36.579598 
L 65.828571 34.176426 
L 63.55102 33.355111 
L 61.273469 30.975253 
L 58.995918 30.661376 
L 56.718367 31.515946 
L 54.440816 31.147928 
L 52.163265 31.727186 
L 49.885714 32.052037 
L 47.608163 32.141731 
L 45.330612 32.848057 
L 43.053061 33.776571 
L 40.77551 32.657932 
L 38.497959 32.445912 
L 36.220408 32.036288 
L 33.942857 31.623767 
L 31.665306 31.43297 
L 29.387755 31.293456 
L 27.110204 31.293455 
L 24.832653 31.293455 
L 22.555102 31.293455 
L 20.277551 31.293455 
L 18 31.293455 
z
" style="fill:#fc8d62;fill-opacity:0.2;"/>
   </g>
   <g id="PolyCollection_2">
    <path clip-path="url(#pe67c760b4f)" d="M 18 31.293455 
L 18 31.293455 
L 20.277551 31.293455 
L 22.555102 31.293455 
L 24.832653 31.293455 
L 27.110204 31.293455 
L 29.387755 31.293439 
L 31.665306 31.144376 
L 33.942857 30.769263 
L 36.220408 30.667256 
L 38.497959 30.486597 
L 40.77551 30.314026 
L 43.053061 30.380685 
L 45.330612 29.976761 
L 47.608163 30.906025 
L 49.885714 32.170893 
L 52.163265 33.110726 
L 54.440816 33.336124 
L 56.718367 34.613948 
L 58.995918 38.331575 
L 61.273469 40.054386 
L 63.55102 43.026446 
L 65.828571 45.146997 
L 68.106122 44.585921 
L 70.383673 48.797287 
L 72.661224 48.596673 
L 74.938776 67.771268 
L 77.216327 51.974284 
L 79.493878 48.614935 
L 81.771429 48.638917 
L 84.04898 48.27134 
L 86.326531 46.680383 
L 88.604082 47.322592 
L 90.881633 44.562622 
L 93.159184 42.684247 
L 95.436735 39.731589 
L 97.714286 39.440017 
L 99.991837 35.969903 
L 102.269388 35.217784 
L 104.546939 33.614786 
L 106.82449 32.362137 
L 109.102041 31.389478 
L 111.379592 31.374453 
L 113.657143 31.281695 
L 115.934694 31.066221 
L 118.212245 31.155705 
L 120.489796 31.291399 
L 122.767347 31.293453 
L 125.044898 31.293455 
L 127.322449 31.293455 
L 129.6 31.293455 
L 129.6 31.293455 
L 129.6 31.293455 
L 127.322449 31.293455 
L 125.044898 31.293455 
L 122.767347 31.293461 
L 120.489796 31.297112 
L 118.212245 31.473355 
L 115.934694 31.916811 
L 113.657143 32.376956 
L 111.379592 33.466804 
L 109.102041 34.497956 
L 106.82449 36.376329 
L 104.546939 38.826399 
L 102.269388 41.104182 
L 99.991837 43.285642 
L 97.714286 46.282015 
L 95.436735 49.64498 
L 93.159184 51.82133 
L 90.881633 54.015252 
L 88.604082 56.901933 
L 86.326531 57.373093 
L 84.04898 60.463144 
L 81.771429 63.222659 
L 79.493878 61.313688 
L 77.216327 64.066422 
L 74.938776 74.465889 
L 72.661224 61.615481 
L 70.383673 60.147328 
L 68.106122 59.007575 
L 65.828571 55.217213 
L 63.55102 54.412691 
L 61.273469 51.065588 
L 58.995918 47.300661 
L 56.718367 44.043011 
L 54.440816 42.778077 
L 52.163265 39.747762 
L 49.885714 37.718684 
L 47.608163 36.745786 
L 45.330612 35.053406 
L 43.053061 34.269487 
L 40.77551 33.079038 
L 38.497959 32.696259 
L 36.220408 32.046915 
L 33.942857 31.686405 
L 31.665306 31.433407 
L 29.387755 31.293467 
L 27.110204 31.293455 
L 24.832653 31.293455 
L 22.555102 31.293455 
L 20.277551 31.293455 
L 18 31.293455 
z
" style="fill:#fc8d62;fill-opacity:0.2;"/>
   </g>
   <g id="matplotlib.axis_1">
    <g id="xtick_1">
     <g id="line2d_1">
      <defs>
       <path d="M 0 0 
L 0 3.5 
" id="m8675b50e66" style="stroke:#a9a9a9;stroke-width:2;"/>
      </defs>
      <g>
       <use style="fill:#a9a9a9;stroke:#a9a9a9;stroke-width:2;" x="29.387755" xlink:href="#m8675b50e66" y="31.293455"/>
      </g>
     </g>
    </g>
    <g id="xtick_2">
     <g id="line2d_2">
      <g>
       <use style="fill:#a9a9a9;stroke:#a9a9a9;stroke-width:2;" x="52.163265" xlink:href="#m8675b50e66" y="31.293455"/>
      </g>
     </g>
    </g>
    <g id="xtick_3">
     <g id="line2d_3">
      <g>
       <use style="fill:#a9a9a9;stroke:#a9a9a9;stroke-width:2;" x="74.938776" xlink:href="#m8675b50e66" y="31.293455"/>
      </g>
     </g>
    </g>
    <g id="xtick_4">
     <g id="line2d_4">
      <g>
       <use style="fill:#a9a9a9;stroke:#a9a9a9;stroke-width:2;" x="97.714286" xlink:href="#m8675b50e66" y="31.293455"/>
      </g>
     </g>
    </g>
    <g id="xtick_5">
     <g id="line2d_5">
      <g>
       <use style="fill:#a9a9a9;stroke:#a9a9a9;stroke-width:2;" x="120.489796" xlink:href="#m8675b50e66" y="31.293455"/>
      </g>
     </g>
    </g>
   </g>
   <g id="matplotlib.axis_2"/>
   <g id="line2d_6">
    <path clip-path="url(#pe67c760b4f)" d="M 18 31.293455 
L 20.277551 31.293455 
L 22.555102 31.293455 
L 24.832653 31.293455 
L 27.110204 31.293455 
L 29.387755 31.293455 
L 31.665306 31.25836 
L 33.942857 31.239716 
L 36.220408 31.367898 
L 38.497959 31.244826 
L 40.77551 31.294718 
L 43.053061 31.361988 
L 45.330612 30.409245 
L 47.608163 29.266176 
L 49.885714 29.087634 
L 52.163265 28.094022 
L 54.440816 26.983437 
L 56.718367 25.703533 
L 58.995918 23.970688 
L 61.273469 24.71186 
L 63.55102 25.952638 
L 65.828571 27.358734 
L 68.106122 29.238867 
L 70.383673 34.707171 
L 72.661224 39.253106 
L 74.938776 64.308908 
L 77.216327 48.199966 
L 79.493878 54.53571 
L 81.771429 58.989737 
L 84.04898 60.504964 
L 86.326531 61.272429 
L 88.604082 60.896681 
L 90.881633 60.971194 
L 93.159184 58.173211 
L 95.436735 53.636515 
L 97.714286 50.306831 
L 99.991837 47.057689 
L 102.269388 43.077688 
L 104.546939 39.423007 
L 106.82449 36.653934 
L 109.102041 34.467602 
L 111.379592 33.144428 
L 113.657143 32.182247 
L 115.934694 31.586655 
L 118.212245 31.367525 
L 120.489796 31.294656 
L 122.767347 31.293458 
L 125.044898 31.293455 
L 127.322449 31.293455 
L 129.6 31.293455 
" style="fill:none;stroke:#fc8d62;stroke-linecap:square;stroke-width:2;"/>
   </g>
   <g id="line2d_7">
    <path clip-path="url(#pe67c760b4f)" d="M 18 31.293455 
L 20.277551 31.293455 
L 22.555102 31.293455 
L 24.832653 31.293455 
L 27.110204 31.293455 
L 29.387755 31.293453 
L 31.665306 31.288892 
L 33.942857 31.227834 
L 36.220408 31.357086 
L 38.497959 31.591428 
L 40.77551 31.696532 
L 43.053061 32.325086 
L 45.330612 32.515084 
L 47.608163 33.825905 
L 49.885714 34.944789 
L 52.163265 36.429244 
L 54.440816 38.0571 
L 56.718367 39.32848 
L 58.995918 42.816118 
L 61.273469 45.559987 
L 63.55102 48.719569 
L 65.828571 50.182105 
L 68.106122 51.796748 
L 70.383673 54.472307 
L 72.661224 55.106077 
L 74.938776 71.118578 
L 77.216327 58.020353 
L 79.493878 54.964311 
L 81.771429 55.930788 
L 84.04898 54.367242 
L 86.326531 52.026738 
L 88.604082 52.112263 
L 90.881633 49.288937 
L 93.159184 47.252789 
L 95.436735 44.688284 
L 97.714286 42.861016 
L 99.991837 39.627772 
L 102.269388 38.160983 
L 104.546939 36.220592 
L 106.82449 34.369233 
L 109.102041 32.943717 
L 111.379592 32.420628 
L 113.657143 31.829326 
L 115.934694 31.491516 
L 118.212245 31.31453 
L 120.489796 31.294255 
L 122.767347 31.293457 
L 125.044898 31.293455 
L 127.322449 31.293455 
L 129.6 31.293455 
" style="fill:none;stroke:#fc8d62;stroke-dasharray:1.5,1.5;stroke-dashoffset:0;stroke-opacity:0.7;stroke-width:1.5;"/>
   </g>
   <g id="patch_3">
    <path d="M 74.938776 67.68 
L 74.938776 17.28 
" style="fill:none;stroke:#a9a9a9;stroke-linecap:square;stroke-linejoin:miter;stroke-width:2;"/>
   </g>
   <g id="patch_4">
    <path d="M 129.6 67.68 
L 129.6 17.28 
" style="fill:none;"/>
   </g>
   <g id="patch_5">
    <path d="M 18 31.293455 
L 129.6 31.293455 
" style="fill:none;stroke:#a9a9a9;stroke-linecap:square;stroke-linejoin:miter;stroke-width:2;"/>
   </g>
   <g id="patch_6">
    <path d="M 18 17.28 
L 129.6 17.28 
" style="fill:none;"/>
   </g>
   <g id="legend_1">
    <g id="line2d_8">
     <path d="M 24.3 47.199531 
L 38.3 47.199531 
" style="fill:none;stroke:#fc8d62;stroke-linecap:square;stroke-width:2;"/>
    </g>
    <g id="line2d_9"/>
    <g id="text_1">
     <!-- $\theta$ -->
     <g transform="translate(43.9 49.649531)scale(0.07 -0.07)">
      <defs>
       <path d="M 45.515625 34.671875 
L 14.453125 34.671875 
Q 12.359375 20.0625 14.5 13.875 
Q 17.1875 6.25 24.46875 6.25 
Q 31.78125 6.25 37.359375 13.921875 
Q 42.234375 20.65625 45.515625 34.671875 
z
M 47.015625 42.96875 
Q 48.34375 56.84375 46.625 61.71875 
Q 43.953125 69.4375 36.765625 69.4375 
Q 29.296875 69.4375 23.828125 61.8125 
Q 19.53125 55.671875 16.15625 42.96875 
z
M 38.1875 76.765625 
Q 49.90625 76.765625 54.59375 66.40625 
Q 59.28125 56.109375 55.71875 37.84375 
Q 52.203125 19.625 43.453125 9.28125 
Q 34.765625 -1.125 23.046875 -1.125 
Q 11.28125 -1.125 6.640625 9.28125 
Q 2 19.625 5.515625 37.84375 
Q 9.078125 56.109375 17.71875 66.40625 
Q 26.421875 76.765625 38.1875 76.765625 
z
" id="DejaVuSans-Oblique-952"/>
      </defs>
      <use transform="translate(0 0.234375)" xlink:href="#DejaVuSans-Oblique-952"/>
     </g>
    </g>
    <g id="line2d_10">
     <path d="M 24.3 57.474219 
L 38.3 57.474219 
" style="fill:none;stroke:#fc8d62;stroke-dasharray:1.5,1.5;stroke-dashoffset:0;stroke-opacity:0.7;stroke-width:1.5;"/>
    </g>
    <g id="line2d_11"/>
    <g id="text_2">
     <!-- No $\theta$ -->
     <g transform="translate(43.9 59.924219)scale(0.07 -0.07)">
      <defs>
       <path d="M 9.8125 72.90625 
L 23.09375 72.90625 
L 55.421875 11.921875 
L 55.421875 72.90625 
L 64.984375 72.90625 
L 64.984375 0 
L 51.703125 0 
L 19.390625 60.984375 
L 19.390625 0 
L 9.8125 0 
z
" id="DejaVuSans-78"/>
       <path d="M 30.609375 48.390625 
Q 23.390625 48.390625 19.1875 42.75 
Q 14.984375 37.109375 14.984375 27.296875 
Q 14.984375 17.484375 19.15625 11.84375 
Q 23.34375 6.203125 30.609375 6.203125 
Q 37.796875 6.203125 41.984375 11.859375 
Q 46.1875 17.53125 46.1875 27.296875 
Q 46.1875 37.015625 41.984375 42.703125 
Q 37.796875 48.390625 30.609375 48.390625 
z
M 30.609375 56 
Q 42.328125 56 49.015625 48.375 
Q 55.71875 40.765625 55.71875 27.296875 
Q 55.71875 13.875 49.015625 6.21875 
Q 42.328125 -1.421875 30.609375 -1.421875 
Q 18.84375 -1.421875 12.171875 6.21875 
Q 5.515625 13.875 5.515625 27.296875 
Q 5.515625 40.765625 12.171875 48.375 
Q 18.84375 56 30.609375 56 
z
" id="DejaVuSans-111"/>
       <path id="DejaVuSans-32"/>
      </defs>
      <use transform="translate(0 0.234375)" xlink:href="#DejaVuSans-78"/>
      <use transform="translate(74.804688 0.234375)" xlink:href="#DejaVuSans-111"/>
      <use transform="translate(135.986328 0.234375)" xlink:href="#DejaVuSans-32"/>
      <use transform="translate(167.773438 0.234375)" xlink:href="#DejaVuSans-Oblique-952"/>
     </g>
    </g>
   </g>
  </g>
  <g id="axes_2">
   <g id="patch_7">
    <path d="M 18 128.16 
L 129.6 128.16 
L 129.6 77.76 
L 18 77.76 
z
" style="fill:none;"/>
   </g>
   <g id="PolyCollection_3">
    <path clip-path="url(#pc7c9e0d2a9)" d="M 18 120.497338 
L 18 120.415529 
L 20.277551 120.633672 
L 22.555102 120.698742 
L 24.832653 120.617073 
L 27.110204 120.436768 
L 29.387755 120.236292 
L 31.665306 120.065002 
L 33.942857 119.782319 
L 36.220408 119.226359 
L 38.497959 118.269589 
L 40.77551 116.820221 
L 43.053061 114.827003 
L 45.330612 112.281515 
L 47.608163 109.215756 
L 49.885714 105.698109 
L 52.163265 101.829536 
L 54.440816 97.739889 
L 56.718367 93.583644 
L 58.995918 89.535317 
L 61.273469 85.784249 
L 63.55102 82.529159 
L 65.828571 79.972864 
L 68.106122 78.317423 
L 70.383673 77.76 
L 72.661224 78.489593 
L 74.938776 80.674482 
L 77.216327 84.40498 
L 79.493878 89.280231 
L 81.771429 94.853324 
L 84.04898 100.706769 
L 86.326531 106.476691 
L 88.604082 111.861997 
L 90.881633 116.629254 
L 93.159184 120.613896 
L 95.436735 123.718889 
L 97.714286 125.912036 
L 99.991837 127.220641 
L 102.269388 127.72148 
L 104.546939 127.528313 
L 106.82449 126.780236 
L 109.102041 125.632258 
L 111.379592 124.247199 
L 113.657143 122.788761 
L 115.934694 121.416332 
L 118.212245 120.28301 
L 120.489796 119.538751 
L 122.767347 119.279744 
L 125.044898 119.388213 
L 127.322449 119.70177 
L 129.6 120.080464 
L 129.6 120.188355 
L 129.6 120.188355 
L 127.322449 119.834129 
L 125.044898 119.539229 
L 122.767347 119.441648 
L 120.489796 119.706133 
L 118.212245 120.46179 
L 115.934694 121.624651 
L 113.657143 123.043391 
L 111.379592 124.554525 
L 109.102041 125.988638 
L 106.82449 127.175558 
L 104.546939 127.950183 
L 102.269388 128.16 
L 99.991837 127.674061 
L 97.714286 126.392223 
L 95.436735 124.252489 
L 93.159184 121.236526 
L 90.881633 117.375737 
L 88.604082 112.75952 
L 86.326531 107.542366 
L 84.04898 101.947214 
L 81.771429 96.264864 
L 79.493878 90.849359 
L 77.216327 86.108928 
L 74.938776 82.482021 
L 72.661224 80.362485 
L 70.383673 79.656785 
L 68.106122 80.195818 
L 65.828571 81.791759 
L 63.55102 84.250479 
L 61.273469 87.374676 
L 58.995918 90.967817 
L 56.718367 94.838726 
L 54.440816 98.806568 
L 52.163265 102.705897 
L 49.885714 106.391424 
L 47.608163 109.742333 
L 45.330612 112.665777 
L 43.053061 115.100163 
L 40.77551 117.017354 
L 38.497959 118.423346 
L 36.220408 119.358942 
L 33.942857 119.903069 
L 31.665306 120.176091 
L 29.387755 120.33663 
L 27.110204 120.521694 
L 24.832653 120.684522 
L 22.555102 120.754634 
L 20.277551 120.694792 
L 18 120.497338 
z
" style="fill:#66c2a5;fill-opacity:0.2;"/>
   </g>
   <g id="matplotlib.axis_3">
    <g id="xtick_6">
     <g id="line2d_12">
      <g>
       <use style="fill:#a9a9a9;stroke:#a9a9a9;stroke-width:2;" x="29.387755" xlink:href="#m8675b50e66" y="122.156819"/>
      </g>
     </g>
    </g>
    <g id="xtick_7">
     <g id="line2d_13">
      <g>
       <use style="fill:#a9a9a9;stroke:#a9a9a9;stroke-width:2;" x="52.163265" xlink:href="#m8675b50e66" y="122.156819"/>
      </g>
     </g>
    </g>
    <g id="xtick_8">
     <g id="line2d_14">
      <g>
       <use style="fill:#a9a9a9;stroke:#a9a9a9;stroke-width:2;" x="74.938776" xlink:href="#m8675b50e66" y="122.156819"/>
      </g>
     </g>
    </g>
    <g id="xtick_9">
     <g id="line2d_15">
      <g>
       <use style="fill:#a9a9a9;stroke:#a9a9a9;stroke-width:2;" x="97.714286" xlink:href="#m8675b50e66" y="122.156819"/>
      </g>
     </g>
    </g>
    <g id="xtick_10">
     <g id="line2d_16">
      <g>
       <use style="fill:#a9a9a9;stroke:#a9a9a9;stroke-width:2;" x="120.489796" xlink:href="#m8675b50e66" y="122.156819"/>
      </g>
     </g>
    </g>
   </g>
   <g id="matplotlib.axis_4"/>
   <g id="line2d_17">
    <path clip-path="url(#pc7c9e0d2a9)" d="M 18 120.456434 
L 20.277551 120.664232 
L 22.555102 120.726688 
L 24.832653 120.650797 
L 27.110204 120.479231 
L 29.387755 120.286461 
L 31.665306 120.120546 
L 33.942857 119.842694 
L 36.220408 119.29265 
L 38.497959 118.346468 
L 40.77551 116.918787 
L 43.053061 114.963583 
L 45.330612 112.473646 
L 47.608163 109.479045 
L 49.885714 106.044767 
L 52.163265 102.267717 
L 54.440816 98.273229 
L 56.718367 94.211185 
L 58.995918 90.251567 
L 61.273469 86.579462 
L 63.55102 83.389819 
L 65.828571 80.882311 
L 68.106122 79.25662 
L 70.383673 78.708393 
L 72.661224 79.426039 
L 74.938776 81.578252 
L 77.216327 85.256954 
L 79.493878 90.064795 
L 81.771429 95.559094 
L 84.04898 101.326992 
L 86.326531 107.009529 
L 88.604082 112.310758 
L 90.881633 117.002496 
L 93.159184 120.925211 
L 95.436735 123.985689 
L 97.714286 126.152129 
L 99.991837 127.447351 
L 102.269388 127.94074 
L 104.546939 127.739248 
L 106.82449 126.977897 
L 109.102041 125.810448 
L 111.379592 124.400862 
L 113.657143 122.916076 
L 115.934694 121.520492 
L 118.212245 120.3724 
L 120.489796 119.622442 
L 122.767347 119.360696 
L 125.044898 119.463721 
L 127.322449 119.76795 
L 129.6 120.134409 
" style="fill:none;stroke:#66c2a5;stroke-linecap:square;stroke-width:2;"/>
   </g>
   <g id="patch_8">
    <path d="M 74.938776 128.16 
L 74.938776 77.76 
" style="fill:none;stroke:#a9a9a9;stroke-linecap:square;stroke-linejoin:miter;stroke-width:2;"/>
   </g>
   <g id="patch_9">
    <path d="M 129.6 128.16 
L 129.6 77.76 
" style="fill:none;"/>
   </g>
   <g id="patch_10">
    <path d="M 18 122.156819 
L 129.6 122.156819 
" style="fill:none;stroke:#a9a9a9;stroke-linecap:square;stroke-linejoin:miter;stroke-width:2;"/>
   </g>
   <g id="patch_11">
    <path d="M 18 77.76 
L 129.6 77.76 
" style="fill:none;"/>
   </g>
  </g>
 </g>
 <defs>
  <clipPath id="pe67c760b4f">
   <rect height="50.4" width="111.6" x="18" y="17.28"/>
  </clipPath>
  <clipPath id="pc7c9e0d2a9">
   <rect height="50.4" width="111.6" x="18" y="77.76"/>
  </clipPath>
 </defs>
</svg>
