<?xml version="1.0" encoding="utf-8" standalone="no"?>
<!DOCTYPE svg PUBLIC "-//W3C//DTD SVG 1.1//EN"
  "http://www.w3.org/Graphics/SVG/1.1/DTD/svg11.dtd">
<!-- Created with matplotlib (https://matplotlib.org/) -->
<svg height="144pt" version="1.1" viewBox="0 0 144 144" width="144pt" xmlns="http://www.w3.org/2000/svg" xmlns:xlink="http://www.w3.org/1999/xlink">
 <metadata>
  <rdf:RDF xmlns:cc="http://creativecommons.org/ns#" xmlns:dc="http://purl.org/dc/elements/1.1/" xmlns:rdf="http://www.w3.org/1999/02/22-rdf-syntax-ns#">
   <cc:Work>
    <dc:type rdf:resource="http://purl.org/dc/dcmitype/StillImage"/>
    <dc:date>2021-10-15T01:16:34.055318</dc:date>
    <dc:format>image/svg+xml</dc:format>
    <dc:creator>
     <cc:Agent>
      <dc:title>Matplotlib v3.3.2, https://matplotlib.org/</dc:title>
     </cc:Agent>
    </dc:creator>
   </cc:Work>
  </rdf:RDF>
 </metadata>
 <defs>
  <style type="text/css">*{stroke-linecap:butt;stroke-linejoin:round;}</style>
 </defs>
 <g id="figure_1">
  <g id="patch_1">
   <path d="M 0 144 
L 144 144 
L 144 0 
L 0 0 
z
" style="fill:none;"/>
  </g>
  <g id="axes_1">
   <g id="patch_2">
    <path d="M 18 67.68 
L 129.6 67.68 
L 129.6 17.28 
L 18 17.28 
z
" style="fill:none;"/>
   </g>
   <g id="PolyCollection_1">
    <path clip-path="url(#p57969ba4dd)" d="M 18 17.286697 
L 18 17.286697 
L 20.277551 17.286697 
L 22.555102 17.286697 
L 24.832653 17.286697 
L 27.110204 17.286697 
L 29.387755 17.286697 
L 31.665306 17.28 
L 33.942857 17.366366 
L 36.220408 17.653409 
L 38.497959 18.227719 
L 40.77551 19.100675 
L 43.053061 20.164568 
L 45.330612 21.692063 
L 47.608163 23.467002 
L 49.885714 25.390818 
L 52.163265 27.869378 
L 54.440816 30.003584 
L 56.718367 32.524938 
L 58.995918 35.452188 
L 61.273469 38.692588 
L 63.55102 42.363379 
L 65.828571 46.042294 
L 68.106122 49.905909 
L 70.383673 53.832807 
L 72.661224 57.777401 
L 74.938776 62.424459 
L 77.216327 63.419972 
L 79.493878 64.772355 
L 81.771429 65.028437 
L 84.04898 63.744893 
L 86.326531 61.778929 
L 88.604082 58.242615 
L 90.881633 54.159658 
L 93.159184 49.251063 
L 95.436735 43.688668 
L 97.714286 38.644377 
L 99.991837 33.759612 
L 102.269388 29.466485 
L 104.546939 25.720661 
L 106.82449 22.7979 
L 109.102041 20.487754 
L 111.379592 18.912862 
L 113.657143 17.949633 
L 115.934694 17.480153 
L 118.212245 17.303594 
L 120.489796 17.286604 
L 122.767347 17.286697 
L 125.044898 17.286697 
L 127.322449 17.286697 
L 129.6 17.286697 
L 129.6 17.286697 
L 129.6 17.286697 
L 127.322449 17.286697 
L 125.044898 17.286697 
L 122.767347 17.286697 
L 120.489796 17.286978 
L 118.212245 17.34241 
L 115.934694 17.589694 
L 113.657143 18.211148 
L 111.379592 19.259706 
L 109.102041 20.967663 
L 106.82449 23.452528 
L 104.546939 26.66413 
L 102.269388 30.710207 
L 99.991837 35.385603 
L 97.714286 40.178983 
L 95.436735 45.859928 
L 93.159184 51.004208 
L 90.881633 56.005399 
L 88.604082 60.203125 
L 86.326531 63.914723 
L 84.04898 66.409476 
L 81.771429 67.68 
L 79.493878 67.478949 
L 77.216327 65.945717 
L 74.938776 64.277425 
L 72.661224 60.332285 
L 70.383673 56.430827 
L 68.106122 51.92177 
L 65.828571 48.021565 
L 63.55102 44.181723 
L 61.273469 40.564309 
L 58.995918 37.119735 
L 56.718367 34.197271 
L 54.440816 31.337489 
L 52.163265 28.699472 
L 49.885714 26.398234 
L 47.608163 24.310119 
L 45.330612 22.447921 
L 43.053061 20.77868 
L 40.77551 19.512043 
L 38.497959 18.545655 
L 36.220408 17.866777 
L 33.942857 17.473686 
L 31.665306 17.316561 
L 29.387755 17.286697 
L 27.110204 17.286697 
L 24.832653 17.286697 
L 22.555102 17.286697 
L 20.277551 17.286697 
L 18 17.286697 
z
" style="fill:#fc8d62;fill-opacity:0.2;"/>
   </g>
   <g id="PolyCollection_2">
    <path clip-path="url(#p57969ba4dd)" d="M 18 17.286697 
L 18 17.286697 
L 20.277551 17.286697 
L 22.555102 17.286697 
L 24.832653 17.286697 
L 27.110204 17.286697 
L 29.387755 17.286697 
L 31.665306 17.285828 
L 33.942857 17.377932 
L 36.220408 17.669064 
L 38.497959 18.291278 
L 40.77551 19.329942 
L 43.053061 20.866185 
L 45.330612 22.953628 
L 47.608163 25.586292 
L 49.885714 28.757136 
L 52.163265 32.4293 
L 54.440816 36.5959 
L 56.718367 41.045911 
L 58.995918 45.502862 
L 61.273469 50.45102 
L 63.55102 54.867837 
L 65.828571 58.980766 
L 68.106122 62.766593 
L 70.383673 65.350827 
L 72.661224 67.19681 
L 74.938776 68.773738 
L 77.216327 67.641162 
L 79.493878 66.034414 
L 81.771429 63.417196 
L 84.04898 59.837361 
L 86.326531 55.916963 
L 88.604082 51.676826 
L 90.881633 47.013019 
L 93.159184 42.413331 
L 95.436735 37.925085 
L 97.714286 33.618443 
L 99.991837 29.871411 
L 102.269388 26.420585 
L 104.546939 23.749336 
L 106.82449 21.405115 
L 109.102041 19.76557 
L 111.379592 18.552313 
L 113.657143 17.816163 
L 115.934694 17.43058 
L 118.212245 17.295654 
L 120.489796 17.286663 
L 122.767347 17.286697 
L 125.044898 17.286697 
L 127.322449 17.286697 
L 129.6 17.286697 
L 129.6 17.286697 
L 129.6 17.286697 
L 127.322449 17.286697 
L 125.044898 17.286697 
L 122.767347 17.286697 
L 120.489796 17.286878 
L 118.212245 17.337775 
L 115.934694 17.549503 
L 113.657143 18.01721 
L 111.379592 18.861948 
L 109.102041 20.284486 
L 106.82449 22.104014 
L 104.546939 24.683521 
L 102.269388 27.629236 
L 99.991837 31.024553 
L 97.714286 35.111986 
L 95.436735 39.302802 
L 93.159184 44.119648 
L 90.881633 49.000207 
L 88.604082 53.511749 
L 86.326531 57.955273 
L 84.04898 62.051484 
L 81.771429 65.521613 
L 79.493878 68.149171 
L 77.216327 69.830036 
L 74.938776 71.285181 
L 72.661224 69.710778 
L 70.383673 67.894919 
L 68.106122 64.860768 
L 65.828571 61.317665 
L 63.55102 56.870199 
L 61.273469 52.152319 
L 58.995918 47.630187 
L 56.718367 42.877061 
L 54.440816 38.124281 
L 52.163265 33.751153 
L 49.885714 29.840777 
L 47.608163 26.543505 
L 45.330612 23.575945 
L 43.053061 21.527099 
L 40.77551 19.764715 
L 38.497959 18.637971 
L 36.220408 17.881026 
L 33.942857 17.474919 
L 31.665306 17.320457 
L 29.387755 17.286697 
L 27.110204 17.286697 
L 24.832653 17.286697 
L 22.555102 17.286697 
L 20.277551 17.286697 
L 18 17.286697 
z
" style="fill:#fc8d62;fill-opacity:0.2;"/>
   </g>
   <g id="matplotlib.axis_1">
    <g id="xtick_1">
     <g id="line2d_1">
      <defs>
       <path d="M 0 0 
L 0 3.5 
" id="mad5e9fab3d" style="stroke:#a9a9a9;stroke-width:2;"/>
      </defs>
      <g>
       <use style="fill:#a9a9a9;stroke:#a9a9a9;stroke-width:2;" x="29.387755" xlink:href="#mad5e9fab3d" y="17.286697"/>
      </g>
     </g>
    </g>
    <g id="xtick_2">
     <g id="line2d_2">
      <g>
       <use style="fill:#a9a9a9;stroke:#a9a9a9;stroke-width:2;" x="52.163265" xlink:href="#mad5e9fab3d" y="17.286697"/>
      </g>
     </g>
    </g>
    <g id="xtick_3">
     <g id="line2d_3">
      <g>
       <use style="fill:#a9a9a9;stroke:#a9a9a9;stroke-width:2;" x="74.938776" xlink:href="#mad5e9fab3d" y="17.286697"/>
      </g>
     </g>
    </g>
    <g id="xtick_4">
     <g id="line2d_4">
      <g>
       <use style="fill:#a9a9a9;stroke:#a9a9a9;stroke-width:2;" x="97.714286" xlink:href="#mad5e9fab3d" y="17.286697"/>
      </g>
     </g>
    </g>
    <g id="xtick_5">
     <g id="line2d_5">
      <g>
       <use style="fill:#a9a9a9;stroke:#a9a9a9;stroke-width:2;" x="120.489796" xlink:href="#mad5e9fab3d" y="17.286697"/>
      </g>
     </g>
    </g>
   </g>
   <g id="matplotlib.axis_2"/>
   <g id="line2d_6">
    <path clip-path="url(#p57969ba4dd)" d="M 18 17.286697 
L 20.277551 17.286697 
L 22.555102 17.286697 
L 24.832653 17.286697 
L 27.110204 17.286697 
L 29.387755 17.286697 
L 31.665306 17.298281 
L 33.942857 17.420026 
L 36.220408 17.760093 
L 38.497959 18.386687 
L 40.77551 19.306359 
L 43.053061 20.471624 
L 45.330612 22.069992 
L 47.608163 23.88856 
L 49.885714 25.894526 
L 52.163265 28.284425 
L 54.440816 30.670537 
L 56.718367 33.361104 
L 58.995918 36.285961 
L 61.273469 39.628449 
L 63.55102 43.272551 
L 65.828571 47.031929 
L 68.106122 50.913839 
L 70.383673 55.131817 
L 72.661224 59.054843 
L 74.938776 63.350942 
L 77.216327 64.682845 
L 79.493878 66.125652 
L 81.771429 66.354219 
L 84.04898 65.077185 
L 86.326531 62.846826 
L 88.604082 59.22287 
L 90.881633 55.082529 
L 93.159184 50.127635 
L 95.436735 44.774298 
L 97.714286 39.41168 
L 99.991837 34.572607 
L 102.269388 30.088346 
L 104.546939 26.192396 
L 106.82449 23.125214 
L 109.102041 20.727708 
L 111.379592 19.086284 
L 113.657143 18.080391 
L 115.934694 17.534923 
L 118.212245 17.323002 
L 120.489796 17.286791 
L 122.767347 17.286697 
L 125.044898 17.286697 
L 127.322449 17.286697 
L 129.6 17.286697 
" style="fill:none;stroke:#fc8d62;stroke-linecap:square;stroke-width:2;"/>
   </g>
   <g id="line2d_7">
    <path clip-path="url(#p57969ba4dd)" d="M 18 17.286697 
L 20.277551 17.286697 
L 22.555102 17.286697 
L 24.832653 17.286697 
L 27.110204 17.286697 
L 29.387755 17.286697 
L 31.665306 17.303142 
L 33.942857 17.426425 
L 36.220408 17.775045 
L 38.497959 18.464625 
L 40.77551 19.547328 
L 43.053061 21.196642 
L 45.330612 23.264787 
L 47.608163 26.064898 
L 49.885714 29.298956 
L 52.163265 33.090227 
L 54.440816 37.360091 
L 56.718367 41.961486 
L 58.995918 46.566525 
L 61.273469 51.301669 
L 63.55102 55.869018 
L 65.828571 60.149216 
L 68.106122 63.813681 
L 70.383673 66.622873 
L 72.661224 68.453794 
L 74.938776 70.02946 
L 77.216327 68.735599 
L 79.493878 67.091792 
L 81.771429 64.469404 
L 84.04898 60.944422 
L 86.326531 56.936118 
L 88.604082 52.594288 
L 90.881633 48.006613 
L 93.159184 43.26649 
L 95.436735 38.613943 
L 97.714286 34.365214 
L 99.991837 30.447982 
L 102.269388 27.024911 
L 104.546939 24.216429 
L 106.82449 21.754564 
L 109.102041 20.025028 
L 111.379592 18.70713 
L 113.657143 17.916686 
L 115.934694 17.490042 
L 118.212245 17.316715 
L 120.489796 17.28677 
L 122.767347 17.286697 
L 125.044898 17.286697 
L 127.322449 17.286697 
L 129.6 17.286697 
" style="fill:none;stroke:#fc8d62;stroke-dasharray:1.5,1.5;stroke-dashoffset:0;stroke-opacity:0.7;stroke-width:1.5;"/>
   </g>
   <g id="patch_3">
    <path d="M 74.938776 67.68 
L 74.938776 17.28 
" style="fill:none;stroke:#a9a9a9;stroke-linecap:square;stroke-linejoin:miter;stroke-width:2;"/>
   </g>
   <g id="patch_4">
    <path d="M 129.6 67.68 
L 129.6 17.28 
" style="fill:none;"/>
   </g>
   <g id="patch_5">
    <path d="M 18 17.286697 
L 129.6 17.286697 
" style="fill:none;stroke:#a9a9a9;stroke-linecap:square;stroke-linejoin:miter;stroke-width:2;"/>
   </g>
   <g id="patch_6">
    <path d="M 18 17.28 
L 129.6 17.28 
" style="fill:none;"/>
   </g>
   <g id="legend_1">
    <g id="line2d_8">
     <path d="M 24.3 47.199531 
L 38.3 47.199531 
" style="fill:none;stroke:#fc8d62;stroke-linecap:square;stroke-width:2;"/>
    </g>
    <g id="line2d_9"/>
    <g id="text_1">
     <!--   -->
     <g transform="translate(43.9 49.649531)scale(0.07 -0.07)">
      <defs>
       <path id="DejaVuSans-32"/>
      </defs>
      <use xlink:href="#DejaVuSans-32"/>
     </g>
    </g>
    <g id="line2d_10">
     <path d="M 24.3 57.474219 
L 38.3 57.474219 
" style="fill:none;stroke:#fc8d62;stroke-dasharray:1.5,1.5;stroke-dashoffset:0;stroke-opacity:0.7;stroke-width:1.5;"/>
    </g>
    <g id="line2d_11"/>
    <g id="text_2">
     <!--   -->
     <g transform="translate(43.9 59.924219)scale(0.07 -0.07)">
      <use xlink:href="#DejaVuSans-32"/>
     </g>
    </g>
   </g>
  </g>
  <g id="axes_2">
   <g id="patch_7">
    <path d="M 18 128.16 
L 129.6 128.16 
L 129.6 77.76 
L 18 77.76 
z
" style="fill:none;"/>
   </g>
   <g id="PolyCollection_3">
    <path clip-path="url(#p627ac0d3a2)" d="M 18 120.573642 
L 18 120.490555 
L 20.277551 120.70199 
L 22.555102 120.774388 
L 24.832653 120.710772 
L 27.110204 120.554372 
L 29.387755 120.376866 
L 31.665306 120.221336 
L 33.942857 119.949182 
L 36.220408 119.400821 
L 38.497959 118.449709 
L 40.77551 117.004302 
L 43.053061 115.013682 
L 45.330612 112.469618 
L 47.608163 109.40365 
L 49.885714 105.883405 
L 52.163265 102.009187 
L 54.440816 97.910377 
L 56.718367 93.741367 
L 58.995918 89.676749 
L 61.273469 85.905918 
L 63.55102 82.627532 
L 65.828571 80.043995 
L 68.106122 78.356372 
L 70.383673 77.76 
L 72.661224 78.44093 
L 74.938776 80.56643 
L 77.216327 84.214556 
L 79.493878 89.00769 
L 81.771429 94.509218 
L 84.04898 100.311428 
L 86.326531 106.056252 
L 88.604082 111.444685 
L 90.881633 116.241944 
L 93.159184 120.279236 
L 95.436735 123.453528 
L 97.714286 125.726359 
L 99.991837 127.120037 
L 102.269388 127.707214 
L 104.546939 127.597147 
L 106.82449 126.924315 
L 109.102041 125.839739 
L 111.379592 124.503211 
L 113.657143 123.076473 
L 115.934694 121.717724 
L 118.212245 120.579161 
L 120.489796 119.810149 
L 122.767347 119.509106 
L 125.044898 119.568371 
L 127.322449 119.83551 
L 129.6 120.177743 
L 129.6 120.287893 
L 129.6 120.287893 
L 127.322449 119.970834 
L 125.044898 119.722573 
L 122.767347 119.67402 
L 120.489796 119.980608 
L 118.212245 120.762155 
L 115.934694 121.933812 
L 113.657143 123.343632 
L 111.379592 124.827465 
L 109.102041 126.216084 
L 106.82449 127.340528 
L 104.546939 128.038075 
L 102.269388 128.16 
L 99.991837 127.58074 
L 97.714286 126.207436 
L 95.436735 123.986838 
L 93.159184 120.908634 
L 90.881633 117.010015 
L 88.604082 112.384098 
L 86.326531 107.187101 
L 84.04898 101.641351 
L 81.771429 96.033984 
L 79.493878 90.71168 
L 77.216327 86.071438 
L 74.938776 82.540106 
L 72.661224 80.487191 
L 70.383673 79.831814 
L 68.106122 80.40643 
L 65.828571 82.026828 
L 63.55102 84.501489 
L 61.273469 87.634975 
L 58.995918 91.232106 
L 56.718367 95.102731 
L 54.440816 99.066807 
L 52.163265 102.9596 
L 49.885714 106.636462 
L 47.608163 109.977044 
L 45.330612 112.889047 
L 43.053061 115.31148 
L 40.77551 117.21701 
L 38.497959 118.612616 
L 36.220408 119.539298 
L 33.942857 120.074695 
L 31.665306 120.336788 
L 29.387755 120.480996 
L 27.110204 120.642318 
L 24.832653 120.78013 
L 22.555102 120.831019 
L 20.277551 120.763584 
L 18 120.573642 
z
" style="fill:#66c2a5;fill-opacity:0.2;"/>
   </g>
   <g id="matplotlib.axis_3">
    <g id="xtick_6">
     <g id="line2d_12">
      <g>
       <use style="fill:#a9a9a9;stroke:#a9a9a9;stroke-width:2;" x="29.387755" xlink:href="#mad5e9fab3d" y="122.260984"/>
      </g>
     </g>
    </g>
    <g id="xtick_7">
     <g id="line2d_13">
      <g>
       <use style="fill:#a9a9a9;stroke:#a9a9a9;stroke-width:2;" x="52.163265" xlink:href="#mad5e9fab3d" y="122.260984"/>
      </g>
     </g>
    </g>
    <g id="xtick_8">
     <g id="line2d_14">
      <g>
       <use style="fill:#a9a9a9;stroke:#a9a9a9;stroke-width:2;" x="74.938776" xlink:href="#mad5e9fab3d" y="122.260984"/>
      </g>
     </g>
    </g>
    <g id="xtick_9">
     <g id="line2d_15">
      <g>
       <use style="fill:#a9a9a9;stroke:#a9a9a9;stroke-width:2;" x="97.714286" xlink:href="#mad5e9fab3d" y="122.260984"/>
      </g>
     </g>
    </g>
    <g id="xtick_10">
     <g id="line2d_16">
      <g>
       <use style="fill:#a9a9a9;stroke:#a9a9a9;stroke-width:2;" x="120.489796" xlink:href="#mad5e9fab3d" y="122.260984"/>
      </g>
     </g>
    </g>
   </g>
   <g id="matplotlib.axis_4"/>
   <g id="line2d_17">
    <path clip-path="url(#p627ac0d3a2)" d="M 18 120.532098 
L 20.277551 120.732787 
L 22.555102 120.802703 
L 24.832653 120.745451 
L 27.110204 120.598345 
L 29.387755 120.428931 
L 31.665306 120.279062 
L 33.942857 120.011939 
L 36.220408 119.470059 
L 38.497959 118.531162 
L 40.77551 117.110656 
L 43.053061 115.162581 
L 45.330612 112.679332 
L 47.608163 109.690347 
L 49.885714 106.259933 
L 52.163265 102.484393 
L 54.440816 98.488592 
L 56.718367 94.422049 
L 58.995918 90.454428 
L 61.273469 86.770446 
L 63.55102 83.564511 
L 65.828571 81.035412 
L 68.106122 79.381401 
L 70.383673 78.795907 
L 72.661224 79.46406 
L 74.938776 81.553268 
L 77.216327 85.142997 
L 79.493878 89.859685 
L 81.771429 95.271601 
L 84.04898 100.976389 
L 86.326531 106.621676 
L 88.604082 111.914391 
L 90.881633 116.625979 
L 93.159184 120.593935 
L 95.436735 123.720183 
L 97.714286 125.966897 
L 99.991837 127.350388 
L 102.269388 127.933607 
L 104.546939 127.817611 
L 106.82449 127.132422 
L 109.102041 126.027911 
L 111.379592 124.665338 
L 113.657143 123.210053 
L 115.934694 121.825768 
L 118.212245 120.670658 
L 120.489796 119.895378 
L 122.767347 119.591563 
L 125.044898 119.645472 
L 127.322449 119.903172 
L 129.6 120.232818 
" style="fill:none;stroke:#66c2a5;stroke-linecap:square;stroke-width:2;"/>
   </g>
   <g id="patch_8">
    <path d="M 74.938776 128.16 
L 74.938776 77.76 
" style="fill:none;stroke:#a9a9a9;stroke-linecap:square;stroke-linejoin:miter;stroke-width:2;"/>
   </g>
   <g id="patch_9">
    <path d="M 129.6 128.16 
L 129.6 77.76 
" style="fill:none;"/>
   </g>
   <g id="patch_10">
    <path d="M 18 122.260984 
L 129.6 122.260984 
" style="fill:none;stroke:#a9a9a9;stroke-linecap:square;stroke-linejoin:miter;stroke-width:2;"/>
   </g>
   <g id="patch_11">
    <path d="M 18 77.76 
L 129.6 77.76 
" style="fill:none;"/>
   </g>
   <g id="legend_2">
    <g id="line2d_18">
     <path d="M 101.475312 86.928906 
L 115.475312 86.928906 
" style="fill:none;stroke:#66c2a5;stroke-linecap:square;stroke-width:2;"/>
    </g>
    <g id="line2d_19"/>
    <g id="text_3">
     <!--   -->
     <g transform="translate(121.075312 89.378906)scale(0.07 -0.07)">
      <use xlink:href="#DejaVuSans-32"/>
     </g>
    </g>
   </g>
  </g>
 </g>
 <defs>
  <clipPath id="p57969ba4dd">
   <rect height="50.4" width="111.6" x="18" y="17.28"/>
  </clipPath>
  <clipPath id="p627ac0d3a2">
   <rect height="50.4" width="111.6" x="18" y="77.76"/>
  </clipPath>
 </defs>
</svg>
