<?xml version="1.0" encoding="utf-8" standalone="no"?>
<!DOCTYPE svg PUBLIC "-//W3C//DTD SVG 1.1//EN"
  "http://www.w3.org/Graphics/SVG/1.1/DTD/svg11.dtd">
<!-- Created with matplotlib (https://matplotlib.org/) -->
<svg height="144pt" version="1.1" viewBox="0 0 144 144" width="144pt" xmlns="http://www.w3.org/2000/svg" xmlns:xlink="http://www.w3.org/1999/xlink">
 <metadata>
  <rdf:RDF xmlns:cc="http://creativecommons.org/ns#" xmlns:dc="http://purl.org/dc/elements/1.1/" xmlns:rdf="http://www.w3.org/1999/02/22-rdf-syntax-ns#">
   <cc:Work>
    <dc:type rdf:resource="http://purl.org/dc/dcmitype/StillImage"/>
    <dc:date>2021-10-13T14:25:43.387951</dc:date>
    <dc:format>image/svg+xml</dc:format>
    <dc:creator>
     <cc:Agent>
      <dc:title>Matplotlib v3.3.2, https://matplotlib.org/</dc:title>
     </cc:Agent>
    </dc:creator>
   </cc:Work>
  </rdf:RDF>
 </metadata>
 <defs>
  <style type="text/css">*{stroke-linecap:butt;stroke-linejoin:round;}</style>
 </defs>
 <g id="figure_1">
  <g id="patch_1">
   <path d="M 0 144 
L 144 144 
L 144 0 
L 0 0 
z
" style="fill:none;"/>
  </g>
  <g id="axes_1">
   <g id="patch_2">
    <path d="M 18 67.68 
L 129.6 67.68 
L 129.6 17.28 
L 18 17.28 
z
" style="fill:none;"/>
   </g>
   <g id="PolyCollection_1">
    <path clip-path="url(#p9fa1c15475)" d="M 18 67.679944 
L 18 67.679944 
L 20.277551 67.679944 
L 22.555102 67.679944 
L 24.832653 67.679944 
L 27.110204 67.679944 
L 29.387755 67.679576 
L 31.665306 67.630269 
L 33.942857 67.374038 
L 36.220408 66.770765 
L 38.497959 65.720095 
L 40.77551 64.133062 
L 43.053061 61.9615 
L 45.330612 59.198252 
L 47.608163 55.875444 
L 49.885714 52.123695 
L 52.163265 47.97888 
L 54.440816 43.523097 
L 56.718367 38.970894 
L 58.995918 34.438317 
L 61.273469 30.071407 
L 63.55102 26.086006 
L 65.828571 22.648875 
L 68.106122 19.942883 
L 70.383673 18.142666 
L 72.661224 17.28 
L 74.938776 23.401958 
L 77.216327 19.371695 
L 79.493878 22.018231 
L 81.771429 25.371282 
L 84.04898 29.095471 
L 86.326531 33.129788 
L 88.604082 37.417361 
L 90.881633 41.584362 
L 93.159184 45.635845 
L 95.436735 49.441447 
L 97.714286 53.026506 
L 99.991837 56.223179 
L 102.269388 59.076182 
L 104.546939 61.485766 
L 106.82449 63.507627 
L 109.102041 65.098655 
L 111.379592 66.267815 
L 113.657143 67.041484 
L 115.934694 67.479713 
L 118.212245 67.654361 
L 120.489796 67.679932 
L 122.767347 67.679944 
L 125.044898 67.679944 
L 127.322449 67.679944 
L 129.6 67.679944 
L 129.6 67.679944 
L 129.6 67.679944 
L 127.322449 67.679944 
L 125.044898 67.679944 
L 122.767347 67.679944 
L 120.489796 67.68 
L 118.212245 67.666175 
L 115.934694 67.522106 
L 113.657143 67.121016 
L 111.379592 66.393487 
L 109.102041 65.262395 
L 106.82449 63.727601 
L 104.546939 61.793405 
L 102.269388 59.458332 
L 99.991837 56.683384 
L 97.714286 53.568347 
L 95.436735 50.116635 
L 93.159184 46.266098 
L 90.881633 42.313905 
L 88.604082 38.181946 
L 86.326531 34.175472 
L 84.04898 30.141641 
L 81.771429 26.367193 
L 79.493878 23.082007 
L 77.216327 20.571472 
L 74.938776 24.744025 
L 72.661224 18.597686 
L 70.383673 19.380366 
L 68.106122 21.003271 
L 65.828571 23.730816 
L 63.55102 27.119661 
L 61.273469 31.029356 
L 58.995918 35.298202 
L 56.718367 39.752221 
L 54.440816 44.206929 
L 52.163265 48.492134 
L 49.885714 52.634209 
L 47.608163 56.311434 
L 45.330612 59.529711 
L 43.053061 62.212114 
L 40.77551 64.32098 
L 38.497959 65.843531 
L 36.220408 66.867627 
L 33.942857 67.419627 
L 31.665306 67.643565 
L 29.387755 67.679995 
L 27.110204 67.679944 
L 24.832653 67.679944 
L 22.555102 67.679944 
L 20.277551 67.679944 
L 18 67.679944 
z
" style="fill:#fc8d62;fill-opacity:0.2;"/>
   </g>
   <g id="PolyCollection_2">
    <path clip-path="url(#p9fa1c15475)" d="M 18 67.679944 
L 18 67.679944 
L 20.277551 67.679944 
L 22.555102 67.679944 
L 24.832653 67.679944 
L 27.110204 67.679944 
L 29.387755 67.679645 
L 31.665306 67.62812 
L 33.942857 67.35978 
L 36.220408 66.766319 
L 38.497959 65.69507 
L 40.77551 64.098564 
L 43.053061 61.917636 
L 45.330612 59.19929 
L 47.608163 55.931215 
L 49.885714 52.051723 
L 52.163265 47.893525 
L 54.440816 43.325975 
L 56.718367 38.541176 
L 58.995918 33.741397 
L 61.273469 28.9229 
L 63.55102 24.406247 
L 65.828571 20.251922 
L 68.106122 16.707156 
L 70.383673 13.988758 
L 72.661224 12.249629 
L 74.938776 16.701377 
L 77.216327 12.541901 
L 79.493878 14.508188 
L 81.771429 17.420712 
L 84.04898 21.113663 
L 86.326531 25.311672 
L 88.604082 29.993654 
L 90.881633 34.83319 
L 93.159184 39.712417 
L 95.436735 44.368569 
L 97.714286 48.845069 
L 99.991837 53.000801 
L 102.269388 56.668601 
L 104.546939 59.875291 
L 106.82449 62.503653 
L 109.102041 64.486217 
L 111.379592 65.982954 
L 113.657143 66.935741 
L 115.934694 67.44714 
L 118.212245 67.653608 
L 120.489796 67.679929 
L 122.767347 67.679944 
L 125.044898 67.679944 
L 127.322449 67.679944 
L 129.6 67.679944 
L 129.6 67.679944 
L 129.6 67.679944 
L 127.322449 67.679944 
L 125.044898 67.679944 
L 122.767347 67.679944 
L 120.489796 67.679991 
L 118.212245 67.665658 
L 115.934694 67.500414 
L 113.657143 67.024015 
L 111.379592 66.123122 
L 109.102041 64.703407 
L 106.82449 62.746313 
L 104.546939 60.21752 
L 102.269388 57.068969 
L 99.991837 53.508826 
L 97.714286 49.408091 
L 95.436735 44.979426 
L 93.159184 40.388514 
L 90.881633 35.510938 
L 88.604082 30.846639 
L 86.326531 26.330516 
L 84.04898 22.083071 
L 81.771429 18.48551 
L 79.493878 15.604736 
L 77.216327 13.578224 
L 74.938776 17.945067 
L 72.661224 13.308839 
L 70.383673 14.989621 
L 68.106122 17.789811 
L 65.828571 21.26721 
L 63.55102 25.339079 
L 61.273469 29.749852 
L 58.995918 34.467016 
L 56.718367 39.216166 
L 54.440816 43.964718 
L 52.163265 48.410457 
L 49.885714 52.593341 
L 47.608163 56.328885 
L 45.330612 59.504674 
L 43.053061 62.22077 
L 40.77551 64.319763 
L 38.497959 65.838273 
L 36.220408 66.855201 
L 33.942857 67.422052 
L 31.665306 67.644592 
L 29.387755 67.680005 
L 27.110204 67.679944 
L 24.832653 67.679944 
L 22.555102 67.679944 
L 20.277551 67.679944 
L 18 67.679944 
z
" style="fill:#fc8d62;fill-opacity:0.2;"/>
   </g>
   <g id="matplotlib.axis_1">
    <g id="xtick_1">
     <g id="line2d_1">
      <defs>
       <path d="M 0 0 
L 0 3.5 
" id="mbbd778ea84" style="stroke:#a9a9a9;stroke-width:2;"/>
      </defs>
      <g>
       <use style="fill:#a9a9a9;stroke:#a9a9a9;stroke-width:2;" x="29.387755" xlink:href="#mbbd778ea84" y="67.679944"/>
      </g>
     </g>
    </g>
    <g id="xtick_2">
     <g id="line2d_2">
      <g>
       <use style="fill:#a9a9a9;stroke:#a9a9a9;stroke-width:2;" x="52.163265" xlink:href="#mbbd778ea84" y="67.679944"/>
      </g>
     </g>
    </g>
    <g id="xtick_3">
     <g id="line2d_3">
      <g>
       <use style="fill:#a9a9a9;stroke:#a9a9a9;stroke-width:2;" x="74.938776" xlink:href="#mbbd778ea84" y="67.679944"/>
      </g>
     </g>
    </g>
    <g id="xtick_4">
     <g id="line2d_4">
      <g>
       <use style="fill:#a9a9a9;stroke:#a9a9a9;stroke-width:2;" x="97.714286" xlink:href="#mbbd778ea84" y="67.679944"/>
      </g>
     </g>
    </g>
    <g id="xtick_5">
     <g id="line2d_5">
      <g>
       <use style="fill:#a9a9a9;stroke:#a9a9a9;stroke-width:2;" x="120.489796" xlink:href="#mbbd778ea84" y="67.679944"/>
      </g>
     </g>
    </g>
   </g>
   <g id="matplotlib.axis_2"/>
   <g id="line2d_6">
    <path clip-path="url(#p9fa1c15475)" d="M 18 67.679944 
L 20.277551 67.679944 
L 22.555102 67.679944 
L 24.832653 67.679944 
L 27.110204 67.679944 
L 29.387755 67.679785 
L 31.665306 67.636917 
L 33.942857 67.396833 
L 36.220408 66.819196 
L 38.497959 65.781813 
L 40.77551 64.227021 
L 43.053061 62.086807 
L 45.330612 59.363982 
L 47.608163 56.093439 
L 49.885714 52.378952 
L 52.163265 48.235507 
L 54.440816 43.865013 
L 56.718367 39.361558 
L 58.995918 34.868259 
L 61.273469 30.550382 
L 63.55102 26.602834 
L 65.828571 23.189846 
L 68.106122 20.473077 
L 70.383673 18.761516 
L 72.661224 17.938843 
L 74.938776 24.072992 
L 77.216327 19.971583 
L 79.493878 22.550119 
L 81.771429 25.869237 
L 84.04898 29.618556 
L 86.326531 33.65263 
L 88.604082 37.799653 
L 90.881633 41.949134 
L 93.159184 45.950972 
L 95.436735 49.779041 
L 97.714286 53.297426 
L 99.991837 56.453282 
L 102.269388 59.267257 
L 104.546939 61.639586 
L 106.82449 63.617614 
L 109.102041 65.180525 
L 111.379592 66.330651 
L 113.657143 67.08125 
L 115.934694 67.50091 
L 118.212245 67.660268 
L 120.489796 67.679966 
L 122.767347 67.679944 
L 125.044898 67.679944 
L 127.322449 67.679944 
L 129.6 67.679944 
" style="fill:none;stroke:#fc8d62;stroke-linecap:square;stroke-width:2;"/>
   </g>
   <g id="line2d_7">
    <path clip-path="url(#p9fa1c15475)" d="M 18 67.679944 
L 20.277551 67.679944 
L 22.555102 67.679944 
L 24.832653 67.679944 
L 27.110204 67.679944 
L 29.387755 67.679825 
L 31.665306 67.636356 
L 33.942857 67.390916 
L 36.220408 66.81076 
L 38.497959 65.766672 
L 40.77551 64.209164 
L 43.053061 62.069203 
L 45.330612 59.351982 
L 47.608163 56.13005 
L 49.885714 52.322532 
L 52.163265 48.151991 
L 54.440816 43.645346 
L 56.718367 38.878671 
L 58.995918 34.104206 
L 61.273469 29.336376 
L 63.55102 24.872663 
L 65.828571 20.759566 
L 68.106122 17.248483 
L 70.383673 14.48919 
L 72.661224 12.779234 
L 74.938776 17.323222 
L 77.216327 13.060063 
L 79.493878 15.056462 
L 81.771429 17.953111 
L 84.04898 21.598367 
L 86.326531 25.821094 
L 88.604082 30.420146 
L 90.881633 35.172064 
L 93.159184 40.050466 
L 95.436735 44.673998 
L 97.714286 49.12658 
L 99.991837 53.254814 
L 102.269388 56.868785 
L 104.546939 60.046406 
L 106.82449 62.624983 
L 109.102041 64.594812 
L 111.379592 66.053038 
L 113.657143 66.979878 
L 115.934694 67.473777 
L 118.212245 67.659633 
L 120.489796 67.67996 
L 122.767347 67.679944 
L 125.044898 67.679944 
L 127.322449 67.679944 
L 129.6 67.679944 
" style="fill:none;stroke:#fc8d62;stroke-dasharray:1.5,1.5;stroke-dashoffset:0;stroke-opacity:0.7;stroke-width:1.5;"/>
   </g>
   <g id="patch_3">
    <path d="M 74.938776 67.68 
L 74.938776 17.28 
" style="fill:none;stroke:#a9a9a9;stroke-linecap:square;stroke-linejoin:miter;stroke-width:2;"/>
   </g>
   <g id="patch_4">
    <path d="M 129.6 67.68 
L 129.6 17.28 
" style="fill:none;"/>
   </g>
   <g id="patch_5">
    <path d="M 18 67.679944 
L 129.6 67.679944 
" style="fill:none;stroke:#a9a9a9;stroke-linecap:square;stroke-linejoin:miter;stroke-width:2;"/>
   </g>
   <g id="patch_6">
    <path d="M 18 17.28 
L 129.6 17.28 
" style="fill:none;"/>
   </g>
   <g id="legend_1">
    <g id="line2d_8">
     <path d="M 55.985 47.199531 
L 69.985 47.199531 
" style="fill:none;stroke:#fc8d62;stroke-linecap:square;stroke-width:2;"/>
    </g>
    <g id="line2d_9"/>
    <g id="text_1">
     <!-- $\theta$ -->
     <g transform="translate(75.585 49.649531)scale(0.07 -0.07)">
      <defs>
       <path d="M 45.515625 34.671875 
L 14.453125 34.671875 
Q 12.359375 20.0625 14.5 13.875 
Q 17.1875 6.25 24.46875 6.25 
Q 31.78125 6.25 37.359375 13.921875 
Q 42.234375 20.65625 45.515625 34.671875 
z
M 47.015625 42.96875 
Q 48.34375 56.84375 46.625 61.71875 
Q 43.953125 69.4375 36.765625 69.4375 
Q 29.296875 69.4375 23.828125 61.8125 
Q 19.53125 55.671875 16.15625 42.96875 
z
M 38.1875 76.765625 
Q 49.90625 76.765625 54.59375 66.40625 
Q 59.28125 56.109375 55.71875 37.84375 
Q 52.203125 19.625 43.453125 9.28125 
Q 34.765625 -1.125 23.046875 -1.125 
Q 11.28125 -1.125 6.640625 9.28125 
Q 2 19.625 5.515625 37.84375 
Q 9.078125 56.109375 17.71875 66.40625 
Q 26.421875 76.765625 38.1875 76.765625 
z
" id="DejaVuSans-Oblique-952"/>
      </defs>
      <use transform="translate(0 0.234375)" xlink:href="#DejaVuSans-Oblique-952"/>
     </g>
    </g>
    <g id="line2d_10">
     <path d="M 55.985 57.474219 
L 69.985 57.474219 
" style="fill:none;stroke:#fc8d62;stroke-dasharray:1.5,1.5;stroke-dashoffset:0;stroke-opacity:0.7;stroke-width:1.5;"/>
    </g>
    <g id="line2d_11"/>
    <g id="text_2">
     <!-- No $\theta$ -->
     <g transform="translate(75.585 59.924219)scale(0.07 -0.07)">
      <defs>
       <path d="M 9.8125 72.90625 
L 23.09375 72.90625 
L 55.421875 11.921875 
L 55.421875 72.90625 
L 64.984375 72.90625 
L 64.984375 0 
L 51.703125 0 
L 19.390625 60.984375 
L 19.390625 0 
L 9.8125 0 
z
" id="DejaVuSans-78"/>
       <path d="M 30.609375 48.390625 
Q 23.390625 48.390625 19.1875 42.75 
Q 14.984375 37.109375 14.984375 27.296875 
Q 14.984375 17.484375 19.15625 11.84375 
Q 23.34375 6.203125 30.609375 6.203125 
Q 37.796875 6.203125 41.984375 11.859375 
Q 46.1875 17.53125 46.1875 27.296875 
Q 46.1875 37.015625 41.984375 42.703125 
Q 37.796875 48.390625 30.609375 48.390625 
z
M 30.609375 56 
Q 42.328125 56 49.015625 48.375 
Q 55.71875 40.765625 55.71875 27.296875 
Q 55.71875 13.875 49.015625 6.21875 
Q 42.328125 -1.421875 30.609375 -1.421875 
Q 18.84375 -1.421875 12.171875 6.21875 
Q 5.515625 13.875 5.515625 27.296875 
Q 5.515625 40.765625 12.171875 48.375 
Q 18.84375 56 30.609375 56 
z
" id="DejaVuSans-111"/>
       <path id="DejaVuSans-32"/>
      </defs>
      <use transform="translate(0 0.234375)" xlink:href="#DejaVuSans-78"/>
      <use transform="translate(74.804688 0.234375)" xlink:href="#DejaVuSans-111"/>
      <use transform="translate(135.986328 0.234375)" xlink:href="#DejaVuSans-32"/>
      <use transform="translate(167.773438 0.234375)" xlink:href="#DejaVuSans-Oblique-952"/>
     </g>
    </g>
   </g>
  </g>
  <g id="axes_2">
   <g id="patch_7">
    <path d="M 18 128.16 
L 129.6 128.16 
L 129.6 77.76 
L 18 77.76 
z
" style="fill:none;"/>
   </g>
   <g id="PolyCollection_3">
    <path clip-path="url(#pda6ecda9ad)" d="M 18 120.53679 
L 18 120.458423 
L 20.277551 120.676536 
L 22.555102 120.737117 
L 24.832653 120.649706 
L 27.110204 120.463642 
L 29.387755 120.257768 
L 31.665306 120.081934 
L 33.942857 119.795582 
L 36.220408 119.236699 
L 38.497959 118.278219 
L 40.77551 116.828767 
L 43.053061 114.835924 
L 45.330612 112.290367 
L 47.608163 109.224001 
L 49.885714 105.705263 
L 52.163265 101.835258 
L 54.440816 97.744003 
L 56.718367 93.586101 
L 58.995918 89.536103 
L 61.273469 85.783469 
L 63.55102 82.527139 
L 65.828571 79.97024 
L 68.106122 78.315268 
L 70.383673 77.76 
L 72.661224 78.494273 
L 74.938776 80.687668 
L 77.216327 84.430472 
L 79.493878 89.320231 
L 81.771429 94.907318 
L 84.04898 100.772285 
L 86.326531 106.549895 
L 88.604082 111.938388 
L 90.881633 116.704101 
L 93.159184 120.682755 
L 95.436735 123.778584 
L 97.714286 125.961296 
L 99.991837 127.25983 
L 102.269388 127.751741 
L 104.546939 127.550833 
L 106.82449 126.796082 
L 109.102041 125.642408 
L 111.379592 124.25261 
L 113.657143 122.790411 
L 115.934694 121.415362 
L 118.212245 120.281549 
L 120.489796 119.54081 
L 122.767347 119.290141 
L 125.044898 119.408825 
L 127.322449 119.732232 
L 129.6 120.118796 
L 129.6 120.223524 
L 129.6 120.223524 
L 127.322449 119.863289 
L 125.044898 119.560829 
L 122.767347 119.454852 
L 120.489796 119.710926 
L 118.212245 120.458025 
L 115.934694 121.613413 
L 113.657143 123.027387 
L 111.379592 124.537147 
L 109.102041 125.972996 
L 106.82449 127.164099 
L 104.546939 127.944378 
L 102.269388 128.16 
L 99.991837 127.678428 
L 97.714286 126.397943 
L 95.436735 124.255672 
L 93.159184 121.23336 
L 90.881633 117.363035 
L 88.604082 112.734527 
L 86.326531 107.502426 
L 84.04898 101.890073 
L 81.771429 96.189186 
L 79.493878 90.7551 
L 77.216327 85.997787 
L 74.938776 82.358092 
L 72.661224 80.230932 
L 70.383673 79.523093 
L 68.106122 80.064307 
L 65.828571 81.665897 
L 63.55102 84.132972 
L 61.273469 87.267556 
L 58.995918 90.87254 
L 56.718367 94.756254 
L 54.440816 98.737415 
L 52.163265 102.650156 
L 49.885714 106.348946 
L 47.608163 109.712826 
L 45.330612 112.648834 
L 43.053061 115.095235 
L 40.77551 117.023666 
L 38.497959 118.43921 
L 36.220408 119.381648 
L 33.942857 119.930692 
L 31.665306 120.207797 
L 29.387755 120.372403 
L 27.110204 120.562017 
L 24.832653 120.728507 
L 22.555102 120.799549 
L 20.277551 120.737463 
L 18 120.53679 
z
" style="fill:#66c2a5;fill-opacity:0.2;"/>
   </g>
   <g id="matplotlib.axis_3">
    <g id="xtick_6">
     <g id="line2d_12">
      <g>
       <use style="fill:#a9a9a9;stroke:#a9a9a9;stroke-width:2;" x="29.387755" xlink:href="#mbbd778ea84" y="122.186236"/>
      </g>
     </g>
    </g>
    <g id="xtick_7">
     <g id="line2d_13">
      <g>
       <use style="fill:#a9a9a9;stroke:#a9a9a9;stroke-width:2;" x="52.163265" xlink:href="#mbbd778ea84" y="122.186236"/>
      </g>
     </g>
    </g>
    <g id="xtick_8">
     <g id="line2d_14">
      <g>
       <use style="fill:#a9a9a9;stroke:#a9a9a9;stroke-width:2;" x="74.938776" xlink:href="#mbbd778ea84" y="122.186236"/>
      </g>
     </g>
    </g>
    <g id="xtick_9">
     <g id="line2d_15">
      <g>
       <use style="fill:#a9a9a9;stroke:#a9a9a9;stroke-width:2;" x="97.714286" xlink:href="#mbbd778ea84" y="122.186236"/>
      </g>
     </g>
    </g>
    <g id="xtick_10">
     <g id="line2d_16">
      <g>
       <use style="fill:#a9a9a9;stroke:#a9a9a9;stroke-width:2;" x="120.489796" xlink:href="#mbbd778ea84" y="122.186236"/>
      </g>
     </g>
    </g>
   </g>
   <g id="matplotlib.axis_4"/>
   <g id="line2d_17">
    <path clip-path="url(#pda6ecda9ad)" d="M 18 120.497606 
L 20.277551 120.706999 
L 22.555102 120.768333 
L 24.832653 120.689106 
L 27.110204 120.512829 
L 29.387755 120.315085 
L 31.665306 120.144866 
L 33.942857 119.863137 
L 36.220408 119.309174 
L 38.497959 118.358715 
L 40.77551 116.926216 
L 43.053061 114.965579 
L 45.330612 112.469601 
L 47.608163 109.468413 
L 49.885714 106.027105 
L 52.163265 102.242707 
L 54.440816 98.240709 
L 56.718367 94.171177 
L 58.995918 90.204321 
L 61.273469 86.525513 
L 63.55102 83.330056 
L 65.828571 80.818068 
L 68.106122 79.189787 
L 70.383673 78.641546 
L 72.661224 79.362602 
L 74.938776 81.52288 
L 77.216327 85.21413 
L 79.493878 90.037665 
L 81.771429 95.548252 
L 84.04898 101.331179 
L 86.326531 107.026161 
L 88.604082 112.336458 
L 90.881633 117.033568 
L 93.159184 120.958058 
L 95.436735 124.017128 
L 97.714286 126.17962 
L 99.991837 127.469129 
L 102.269388 127.955871 
L 104.546939 127.747606 
L 106.82449 126.98009 
L 109.102041 125.807702 
L 111.379592 124.394878 
L 113.657143 122.908899 
L 115.934694 121.514388 
L 118.212245 120.369787 
L 120.489796 119.625868 
L 122.767347 119.372496 
L 125.044898 119.484827 
L 127.322449 119.79776 
L 129.6 120.17116 
" style="fill:none;stroke:#66c2a5;stroke-linecap:square;stroke-width:2;"/>
   </g>
   <g id="patch_8">
    <path d="M 74.938776 128.16 
L 74.938776 77.76 
" style="fill:none;stroke:#a9a9a9;stroke-linecap:square;stroke-linejoin:miter;stroke-width:2;"/>
   </g>
   <g id="patch_9">
    <path d="M 129.6 128.16 
L 129.6 77.76 
" style="fill:none;"/>
   </g>
   <g id="patch_10">
    <path d="M 18 122.186236 
L 129.6 122.186236 
" style="fill:none;stroke:#a9a9a9;stroke-linecap:square;stroke-linejoin:miter;stroke-width:2;"/>
   </g>
   <g id="patch_11">
    <path d="M 18 77.76 
L 129.6 77.76 
" style="fill:none;"/>
   </g>
  </g>
 </g>
 <defs>
  <clipPath id="p9fa1c15475">
   <rect height="50.4" width="111.6" x="18" y="17.28"/>
  </clipPath>
  <clipPath id="pda6ecda9ad">
   <rect height="50.4" width="111.6" x="18" y="77.76"/>
  </clipPath>
 </defs>
</svg>
