<?xml version="1.0" encoding="utf-8" standalone="no"?>
<!DOCTYPE svg PUBLIC "-//W3C//DTD SVG 1.1//EN"
  "http://www.w3.org/Graphics/SVG/1.1/DTD/svg11.dtd">
<!-- Created with matplotlib (https://matplotlib.org/) -->
<svg height="144pt" version="1.1" viewBox="0 0 144 144" width="144pt" xmlns="http://www.w3.org/2000/svg" xmlns:xlink="http://www.w3.org/1999/xlink">
 <metadata>
  <rdf:RDF xmlns:cc="http://creativecommons.org/ns#" xmlns:dc="http://purl.org/dc/elements/1.1/" xmlns:rdf="http://www.w3.org/1999/02/22-rdf-syntax-ns#">
   <cc:Work>
    <dc:type rdf:resource="http://purl.org/dc/dcmitype/StillImage"/>
    <dc:date>2021-10-14T19:35:42.785983</dc:date>
    <dc:format>image/svg+xml</dc:format>
    <dc:creator>
     <cc:Agent>
      <dc:title>Matplotlib v3.3.2, https://matplotlib.org/</dc:title>
     </cc:Agent>
    </dc:creator>
   </cc:Work>
  </rdf:RDF>
 </metadata>
 <defs>
  <style type="text/css">*{stroke-linecap:butt;stroke-linejoin:round;}</style>
 </defs>
 <g id="figure_1">
  <g id="patch_1">
   <path d="M 0 144 
L 144 144 
L 144 0 
L 0 0 
z
" style="fill:none;"/>
  </g>
  <g id="axes_1">
   <g id="patch_2">
    <path d="M 18 67.68 
L 129.6 67.68 
L 129.6 17.28 
L 18 17.28 
z
" style="fill:none;"/>
   </g>
   <g id="PolyCollection_1">
    <path clip-path="url(#p8ef28dac8e)" d="M 18 17.299053 
L 18 17.299053 
L 20.277551 17.299053 
L 22.555102 17.299053 
L 24.832653 17.299053 
L 27.110204 17.299053 
L 29.387755 17.299053 
L 31.665306 17.28 
L 33.942857 17.308697 
L 36.220408 17.476901 
L 38.497959 17.884007 
L 40.77551 18.666572 
L 43.053061 19.811994 
L 45.330612 21.377271 
L 47.608163 23.652592 
L 49.885714 25.946661 
L 52.163265 28.895757 
L 54.440816 31.961295 
L 56.718367 35.14335 
L 58.995918 39.241391 
L 61.273469 42.855905 
L 63.55102 46.97302 
L 65.828571 51.121661 
L 68.106122 53.559795 
L 70.383673 57.172629 
L 72.661224 59.396029 
L 74.938776 61.308222 
L 77.216327 62.22126 
L 79.493878 61.200085 
L 81.771429 59.302471 
L 84.04898 56.657205 
L 86.326531 53.15882 
L 88.604082 50.015962 
L 90.881633 45.417821 
L 93.159184 41.973539 
L 95.436735 36.748644 
L 97.714286 32.804161 
L 99.991837 28.650353 
L 102.269388 26.167372 
L 104.546939 23.105047 
L 106.82449 21.161072 
L 109.102041 19.452035 
L 111.379592 18.293265 
L 113.657143 17.68512 
L 115.934694 17.345738 
L 118.212245 17.282709 
L 120.489796 17.298964 
L 122.767347 17.299051 
L 125.044898 17.299053 
L 127.322449 17.299053 
L 129.6 17.299053 
L 129.6 17.299053 
L 129.6 17.299053 
L 127.322449 17.299053 
L 125.044898 17.299053 
L 122.767347 17.299056 
L 120.489796 17.299574 
L 118.212245 17.407117 
L 115.934694 17.650475 
L 113.657143 18.182723 
L 111.379592 19.251982 
L 109.102041 20.621768 
L 106.82449 22.495221 
L 104.546939 25.107019 
L 102.269388 28.433462 
L 99.991837 31.921483 
L 97.714286 36.361279 
L 95.436735 40.479235 
L 93.159184 45.764629 
L 90.881633 50.671197 
L 88.604082 55.169065 
L 86.326531 58.838876 
L 84.04898 63.044704 
L 81.771429 65.397045 
L 79.493878 66.999594 
L 77.216327 67.351923 
L 74.938776 67.68 
L 72.661224 65.918102 
L 70.383673 63.575576 
L 68.106122 59.700639 
L 65.828571 55.976922 
L 63.55102 51.939873 
L 61.273469 48.036727 
L 58.995918 43.839027 
L 56.718367 39.025382 
L 54.440816 35.959232 
L 52.163265 31.894359 
L 49.885714 28.5165 
L 47.608163 25.640576 
L 45.330612 23.19388 
L 43.053061 20.931624 
L 40.77551 19.691112 
L 38.497959 18.639984 
L 36.220408 17.887865 
L 33.942857 17.498987 
L 31.665306 17.324892 
L 29.387755 17.299053 
L 27.110204 17.299053 
L 24.832653 17.299053 
L 22.555102 17.299053 
L 20.277551 17.299053 
L 18 17.299053 
z
" style="fill:#fc8d62;fill-opacity:0.2;"/>
   </g>
   <g id="PolyCollection_2">
    <path clip-path="url(#p8ef28dac8e)" d="M 18 17.299053 
L 18 17.299053 
L 20.277551 17.299053 
L 22.555102 17.299053 
L 24.832653 17.299053 
L 27.110204 17.299053 
L 29.387755 17.299053 
L 31.665306 17.274748 
L 33.942857 17.296436 
L 36.220408 17.557373 
L 38.497959 17.96943 
L 40.77551 18.857136 
L 43.053061 20.413013 
L 45.330612 22.234514 
L 47.608163 23.943251 
L 49.885714 27.394326 
L 52.163265 30.577122 
L 54.440816 34.495697 
L 56.718367 38.355833 
L 58.995918 42.675808 
L 61.273469 47.220376 
L 63.55102 51.414055 
L 65.828571 55.148852 
L 68.106122 59.132726 
L 70.383673 61.340124 
L 72.661224 63.593575 
L 74.938776 63.172094 
L 77.216327 63.456746 
L 79.493878 61.859142 
L 81.771429 60.40454 
L 84.04898 56.414806 
L 86.326531 52.982495 
L 88.604082 49.261312 
L 90.881633 44.252236 
L 93.159184 40.47222 
L 95.436735 35.708996 
L 97.714286 32.163877 
L 99.991837 28.509716 
L 102.269388 25.609641 
L 104.546939 23.060258 
L 106.82449 20.751096 
L 109.102041 19.279763 
L 111.379592 18.311443 
L 113.657143 17.664646 
L 115.934694 17.364274 
L 118.212245 17.278331 
L 120.489796 17.298305 
L 122.767347 17.299052 
L 125.044898 17.299053 
L 127.322449 17.299053 
L 129.6 17.299053 
L 129.6 17.299053 
L 129.6 17.299053 
L 127.322449 17.299053 
L 125.044898 17.299053 
L 122.767347 17.299054 
L 120.489796 17.300392 
L 118.212245 17.38124 
L 115.934694 17.641072 
L 113.657143 18.19141 
L 111.379592 19.122113 
L 109.102041 20.490387 
L 106.82449 22.228233 
L 104.546939 24.926905 
L 102.269388 27.571674 
L 99.991837 31.494375 
L 97.714286 35.898883 
L 95.436735 39.125714 
L 93.159184 44.815487 
L 90.881633 48.664025 
L 88.604082 54.162296 
L 86.326531 58.376307 
L 84.04898 62.63931 
L 81.771429 66.130423 
L 79.493878 67.582645 
L 77.216327 69.777013 
L 74.938776 70.016723 
L 72.661224 68.979236 
L 70.383673 67.351462 
L 68.106122 64.651404 
L 65.828571 60.936462 
L 63.55102 56.613773 
L 61.273469 53.17677 
L 58.995918 48.355572 
L 56.718367 42.299744 
L 54.440816 38.376942 
L 52.163265 33.670413 
L 49.885714 29.881705 
L 47.608163 26.455204 
L 45.330612 23.711858 
L 43.053061 21.626587 
L 40.77551 20.059479 
L 38.497959 18.772762 
L 36.220408 17.864346 
L 33.942857 17.545465 
L 31.665306 17.331687 
L 29.387755 17.299053 
L 27.110204 17.299053 
L 24.832653 17.299053 
L 22.555102 17.299053 
L 20.277551 17.299053 
L 18 17.299053 
z
" style="fill:#fc8d62;fill-opacity:0.2;"/>
   </g>
   <g id="matplotlib.axis_1">
    <g id="xtick_1">
     <g id="line2d_1">
      <defs>
       <path d="M 0 0 
L 0 3.5 
" id="m5ab5246d32" style="stroke:#a9a9a9;stroke-width:2;"/>
      </defs>
      <g>
       <use style="fill:#a9a9a9;stroke:#a9a9a9;stroke-width:2;" x="29.387755" xlink:href="#m5ab5246d32" y="17.299053"/>
      </g>
     </g>
    </g>
    <g id="xtick_2">
     <g id="line2d_2">
      <g>
       <use style="fill:#a9a9a9;stroke:#a9a9a9;stroke-width:2;" x="52.163265" xlink:href="#m5ab5246d32" y="17.299053"/>
      </g>
     </g>
    </g>
    <g id="xtick_3">
     <g id="line2d_3">
      <g>
       <use style="fill:#a9a9a9;stroke:#a9a9a9;stroke-width:2;" x="74.938776" xlink:href="#m5ab5246d32" y="17.299053"/>
      </g>
     </g>
    </g>
    <g id="xtick_4">
     <g id="line2d_4">
      <g>
       <use style="fill:#a9a9a9;stroke:#a9a9a9;stroke-width:2;" x="97.714286" xlink:href="#m5ab5246d32" y="17.299053"/>
      </g>
     </g>
    </g>
    <g id="xtick_5">
     <g id="line2d_5">
      <g>
       <use style="fill:#a9a9a9;stroke:#a9a9a9;stroke-width:2;" x="120.489796" xlink:href="#m5ab5246d32" y="17.299053"/>
      </g>
     </g>
    </g>
   </g>
   <g id="matplotlib.axis_2"/>
   <g id="line2d_6">
    <path clip-path="url(#p8ef28dac8e)" d="M 18 17.299053 
L 20.277551 17.299053 
L 22.555102 17.299053 
L 24.832653 17.299053 
L 27.110204 17.299053 
L 29.387755 17.299053 
L 31.665306 17.302446 
L 33.942857 17.403842 
L 36.220408 17.682383 
L 38.497959 18.261995 
L 40.77551 19.178842 
L 43.053061 20.371809 
L 45.330612 22.285575 
L 47.608163 24.646584 
L 49.885714 27.23158 
L 52.163265 30.395058 
L 54.440816 33.960264 
L 56.718367 37.084366 
L 58.995918 41.540209 
L 61.273469 45.446316 
L 63.55102 49.456447 
L 65.828571 53.549292 
L 68.106122 56.630217 
L 70.383673 60.374102 
L 72.661224 62.657065 
L 74.938776 64.494111 
L 77.216327 64.786592 
L 79.493878 64.099839 
L 81.771429 62.349758 
L 84.04898 59.850954 
L 86.326531 55.998848 
L 88.604082 52.592513 
L 90.881633 48.044509 
L 93.159184 43.869084 
L 95.436735 38.61394 
L 97.714286 34.58272 
L 99.991837 30.285918 
L 102.269388 27.300417 
L 104.546939 24.106033 
L 106.82449 21.828147 
L 109.102041 20.036901 
L 111.379592 18.772623 
L 113.657143 17.933922 
L 115.934694 17.498107 
L 118.212245 17.344913 
L 120.489796 17.299269 
L 122.767347 17.299054 
L 125.044898 17.299053 
L 127.322449 17.299053 
L 129.6 17.299053 
" style="fill:none;stroke:#fc8d62;stroke-linecap:square;stroke-width:2;"/>
   </g>
   <g id="line2d_7">
    <path clip-path="url(#p8ef28dac8e)" d="M 18 17.299053 
L 20.277551 17.299053 
L 22.555102 17.299053 
L 24.832653 17.299053 
L 27.110204 17.299053 
L 29.387755 17.299053 
L 31.665306 17.303218 
L 33.942857 17.420951 
L 36.220408 17.710859 
L 38.497959 18.371096 
L 40.77551 19.458307 
L 43.053061 21.0198 
L 45.330612 22.973186 
L 47.608163 25.199227 
L 49.885714 28.638016 
L 52.163265 32.123767 
L 54.440816 36.43632 
L 56.718367 40.327788 
L 58.995918 45.51569 
L 61.273469 50.198573 
L 63.55102 54.013914 
L 65.828571 58.042657 
L 68.106122 61.892065 
L 70.383673 64.345793 
L 72.661224 66.286405 
L 74.938776 66.594409 
L 77.216327 66.616879 
L 79.493878 64.720894 
L 81.771429 63.267481 
L 84.04898 59.527058 
L 86.326531 55.679401 
L 88.604082 51.711804 
L 90.881633 46.45813 
L 93.159184 42.643854 
L 95.436735 37.417355 
L 97.714286 34.03138 
L 99.991837 30.002045 
L 102.269388 26.590658 
L 104.546939 23.993581 
L 106.82449 21.489664 
L 109.102041 19.885075 
L 111.379592 18.716778 
L 113.657143 17.928028 
L 115.934694 17.502673 
L 118.212245 17.329785 
L 120.489796 17.299349 
L 122.767347 17.299053 
L 125.044898 17.299053 
L 127.322449 17.299053 
L 129.6 17.299053 
" style="fill:none;stroke:#fc8d62;stroke-dasharray:1.5,1.5;stroke-dashoffset:0;stroke-opacity:0.7;stroke-width:1.5;"/>
   </g>
   <g id="patch_3">
    <path d="M 74.938776 67.68 
L 74.938776 17.28 
" style="fill:none;stroke:#a9a9a9;stroke-linecap:square;stroke-linejoin:miter;stroke-width:2;"/>
   </g>
   <g id="patch_4">
    <path d="M 129.6 67.68 
L 129.6 17.28 
" style="fill:none;"/>
   </g>
   <g id="patch_5">
    <path d="M 18 17.299053 
L 129.6 17.299053 
" style="fill:none;stroke:#a9a9a9;stroke-linecap:square;stroke-linejoin:miter;stroke-width:2;"/>
   </g>
   <g id="patch_6">
    <path d="M 18 17.28 
L 129.6 17.28 
" style="fill:none;"/>
   </g>
   <g id="legend_1">
    <g id="line2d_8">
     <path d="M 24.3 47.199531 
L 38.3 47.199531 
" style="fill:none;stroke:#fc8d62;stroke-linecap:square;stroke-width:2;"/>
    </g>
    <g id="line2d_9"/>
    <g id="text_1">
     <!--   -->
     <g transform="translate(43.9 49.649531)scale(0.07 -0.07)">
      <defs>
       <path id="DejaVuSans-32"/>
      </defs>
      <use xlink:href="#DejaVuSans-32"/>
     </g>
    </g>
    <g id="line2d_10">
     <path d="M 24.3 57.474219 
L 38.3 57.474219 
" style="fill:none;stroke:#fc8d62;stroke-dasharray:1.5,1.5;stroke-dashoffset:0;stroke-opacity:0.7;stroke-width:1.5;"/>
    </g>
    <g id="line2d_11"/>
    <g id="text_2">
     <!--   -->
     <g transform="translate(43.9 59.924219)scale(0.07 -0.07)">
      <use xlink:href="#DejaVuSans-32"/>
     </g>
    </g>
   </g>
  </g>
  <g id="axes_2">
   <g id="patch_7">
    <path d="M 18 128.16 
L 129.6 128.16 
L 129.6 77.76 
L 18 77.76 
z
" style="fill:none;"/>
   </g>
   <g id="PolyCollection_3">
    <path clip-path="url(#p4694770b93)" d="M 18 120.524929 
L 18 120.440931 
L 20.277551 120.65212 
L 22.555102 120.72712 
L 24.832653 120.668481 
L 27.110204 120.518395 
L 29.387755 120.347111 
L 31.665306 120.197208 
L 33.942857 119.929308 
L 36.220408 119.384328 
L 38.497959 118.436167 
L 40.77551 116.993484 
L 43.053061 115.005218 
L 45.330612 112.463061 
L 47.608163 109.398594 
L 49.885714 105.879411 
L 52.163265 102.005958 
L 54.440816 97.907784 
L 56.718367 93.739414 
L 58.995918 89.675468 
L 61.273469 85.905385 
L 63.55102 82.627767 
L 65.828571 80.044828 
L 68.106122 78.357299 
L 70.383673 77.76 
L 72.661224 78.438237 
L 74.938776 80.558321 
L 77.216327 84.198757 
L 79.493878 88.982671 
L 81.771429 94.475465 
L 84.04898 100.270944 
L 86.326531 106.011974 
L 88.604082 111.399951 
L 90.881633 116.200128 
L 93.159184 120.243506 
L 95.436735 123.42677 
L 97.714286 125.71091 
L 99.991837 127.116934 
L 102.269388 127.715819 
L 104.546939 127.615316 
L 106.82449 126.949082 
L 109.102041 125.867551 
L 111.379592 124.530287 
L 113.657143 123.09907 
L 115.934694 121.732383 
L 118.212245 120.583287 
L 120.489796 119.802451 
L 122.767347 119.489875 
L 125.044898 119.538116 
L 127.322449 119.795949 
L 129.6 120.131552 
L 129.6 120.243362 
L 129.6 120.243362 
L 127.322449 119.934022 
L 125.044898 119.696275 
L 122.767347 119.659668 
L 120.489796 119.977542 
L 118.212245 120.76791 
L 115.934694 121.945229 
L 113.657143 123.358377 
L 111.379592 124.843542 
L 109.102041 126.231382 
L 106.82449 127.35285 
L 104.546939 128.045257 
L 102.269388 128.16 
L 99.991837 127.571861 
L 97.714286 126.188053 
L 95.436735 123.955545 
L 93.159184 120.86479 
L 90.881633 116.954482 
L 88.604082 112.319258 
L 86.326531 107.116431 
L 84.04898 101.568893 
L 81.771429 95.963708 
L 79.493878 90.646832 
L 77.216327 86.013825 
L 74.938776 82.489433 
L 72.661224 80.442327 
L 70.383673 79.790895 
L 68.106122 80.368419 
L 65.828571 81.991294 
L 63.55102 84.468367 
L 61.273469 87.60437 
L 58.995918 91.204145 
L 56.718367 95.077476 
L 54.440816 99.044218 
L 52.163265 102.939438 
L 49.885714 106.618366 
L 47.608163 109.960592 
L 45.330612 112.873784 
L 43.053061 115.296812 
L 40.77551 117.202323 
L 38.497959 118.597162 
L 36.220408 119.522075 
L 33.942857 120.05467 
L 31.665306 120.31294 
L 29.387755 120.452115 
L 27.110204 120.607527 
L 24.832653 120.73912 
L 22.555102 120.784823 
L 20.277551 120.714451 
L 18 120.524929 
z
" style="fill:#66c2a5;fill-opacity:0.2;"/>
   </g>
   <g id="matplotlib.axis_3">
    <g id="xtick_6">
     <g id="line2d_12">
      <g>
       <use style="fill:#a9a9a9;stroke:#a9a9a9;stroke-width:2;" x="29.387755" xlink:href="#m5ab5246d32" y="122.23654"/>
      </g>
     </g>
    </g>
    <g id="xtick_7">
     <g id="line2d_13">
      <g>
       <use style="fill:#a9a9a9;stroke:#a9a9a9;stroke-width:2;" x="52.163265" xlink:href="#m5ab5246d32" y="122.23654"/>
      </g>
     </g>
    </g>
    <g id="xtick_8">
     <g id="line2d_14">
      <g>
       <use style="fill:#a9a9a9;stroke:#a9a9a9;stroke-width:2;" x="74.938776" xlink:href="#m5ab5246d32" y="122.23654"/>
      </g>
     </g>
    </g>
    <g id="xtick_9">
     <g id="line2d_15">
      <g>
       <use style="fill:#a9a9a9;stroke:#a9a9a9;stroke-width:2;" x="97.714286" xlink:href="#m5ab5246d32" y="122.23654"/>
      </g>
     </g>
    </g>
    <g id="xtick_10">
     <g id="line2d_16">
      <g>
       <use style="fill:#a9a9a9;stroke:#a9a9a9;stroke-width:2;" x="120.489796" xlink:href="#m5ab5246d32" y="122.23654"/>
      </g>
     </g>
    </g>
   </g>
   <g id="matplotlib.axis_4"/>
   <g id="line2d_17">
    <path clip-path="url(#p4694770b93)" d="M 18 120.48293 
L 20.277551 120.683285 
L 22.555102 120.755971 
L 24.832653 120.703801 
L 27.110204 120.562961 
L 29.387755 120.399613 
L 31.665306 120.255074 
L 33.942857 119.991989 
L 36.220408 119.453201 
L 38.497959 118.516664 
L 40.77551 117.097904 
L 43.053061 115.151015 
L 45.330612 112.668422 
L 47.608163 109.679593 
L 49.885714 106.248888 
L 52.163265 102.472698 
L 54.440816 98.476001 
L 56.718367 94.408445 
L 58.995918 90.439806 
L 61.273469 86.754878 
L 63.55102 83.548067 
L 65.828571 81.018061 
L 68.106122 79.362859 
L 70.383673 78.775448 
L 72.661224 79.440282 
L 74.938776 81.523877 
L 77.216327 85.106291 
L 79.493878 89.814751 
L 81.771429 95.219587 
L 84.04898 100.919918 
L 86.326531 106.564202 
L 88.604082 111.859605 
L 90.881633 116.577305 
L 93.159184 120.554148 
L 95.436735 123.691157 
L 97.714286 125.949481 
L 99.991837 127.344398 
L 102.269388 127.93791 
L 104.546939 127.830286 
L 106.82449 127.150966 
L 109.102041 126.049466 
L 111.379592 124.686914 
L 113.657143 123.228723 
L 115.934694 121.838806 
L 118.212245 120.675599 
L 120.489796 119.889996 
L 122.767347 119.574771 
L 125.044898 119.617195 
L 127.322449 119.864986 
L 129.6 120.187457 
" style="fill:none;stroke:#66c2a5;stroke-linecap:square;stroke-width:2;"/>
   </g>
   <g id="patch_8">
    <path d="M 74.938776 128.16 
L 74.938776 77.76 
" style="fill:none;stroke:#a9a9a9;stroke-linecap:square;stroke-linejoin:miter;stroke-width:2;"/>
   </g>
   <g id="patch_9">
    <path d="M 129.6 128.16 
L 129.6 77.76 
" style="fill:none;"/>
   </g>
   <g id="patch_10">
    <path d="M 18 122.23654 
L 129.6 122.23654 
" style="fill:none;stroke:#a9a9a9;stroke-linecap:square;stroke-linejoin:miter;stroke-width:2;"/>
   </g>
   <g id="patch_11">
    <path d="M 18 77.76 
L 129.6 77.76 
" style="fill:none;"/>
   </g>
   <g id="legend_2">
    <g id="line2d_18">
     <path d="M 101.475312 86.928906 
L 115.475312 86.928906 
" style="fill:none;stroke:#66c2a5;stroke-linecap:square;stroke-width:2;"/>
    </g>
    <g id="line2d_19"/>
    <g id="text_3">
     <!--   -->
     <g transform="translate(121.075312 89.378906)scale(0.07 -0.07)">
      <use xlink:href="#DejaVuSans-32"/>
     </g>
    </g>
   </g>
  </g>
 </g>
 <defs>
  <clipPath id="p8ef28dac8e">
   <rect height="50.4" width="111.6" x="18" y="17.28"/>
  </clipPath>
  <clipPath id="p4694770b93">
   <rect height="50.4" width="111.6" x="18" y="77.76"/>
  </clipPath>
 </defs>
</svg>
