<?xml version="1.0" encoding="utf-8" standalone="no"?>
<!DOCTYPE svg PUBLIC "-//W3C//DTD SVG 1.1//EN"
  "http://www.w3.org/Graphics/SVG/1.1/DTD/svg11.dtd">
<!-- Created with matplotlib (https://matplotlib.org/) -->
<svg height="144pt" version="1.1" viewBox="0 0 144 144" width="144pt" xmlns="http://www.w3.org/2000/svg" xmlns:xlink="http://www.w3.org/1999/xlink">
 <metadata>
  <rdf:RDF xmlns:cc="http://creativecommons.org/ns#" xmlns:dc="http://purl.org/dc/elements/1.1/" xmlns:rdf="http://www.w3.org/1999/02/22-rdf-syntax-ns#">
   <cc:Work>
    <dc:type rdf:resource="http://purl.org/dc/dcmitype/StillImage"/>
    <dc:date>2021-10-13T14:20:35.022309</dc:date>
    <dc:format>image/svg+xml</dc:format>
    <dc:creator>
     <cc:Agent>
      <dc:title>Matplotlib v3.3.2, https://matplotlib.org/</dc:title>
     </cc:Agent>
    </dc:creator>
   </cc:Work>
  </rdf:RDF>
 </metadata>
 <defs>
  <style type="text/css">*{stroke-linecap:butt;stroke-linejoin:round;}</style>
 </defs>
 <g id="figure_1">
  <g id="patch_1">
   <path d="M 0 144 
L 144 144 
L 144 0 
L 0 0 
z
" style="fill:none;"/>
  </g>
  <g id="axes_1">
   <g id="patch_2">
    <path d="M 18 67.68 
L 129.6 67.68 
L 129.6 17.28 
L 18 17.28 
z
" style="fill:none;"/>
   </g>
   <g id="PolyCollection_1">
    <path clip-path="url(#pa24a7eb1a3)" d="M 18 67.654488 
L 18 67.654488 
L 20.277551 67.654488 
L 22.555102 67.654488 
L 24.832653 67.654488 
L 27.110204 67.654488 
L 29.387755 67.654252 
L 31.665306 67.586049 
L 33.942857 67.331392 
L 36.220408 66.814459 
L 38.497959 65.913685 
L 40.77551 64.389551 
L 43.053061 62.505602 
L 45.330612 59.850232 
L 47.608163 56.617941 
L 49.885714 53.072584 
L 52.163265 48.353047 
L 54.440816 44.088922 
L 56.718367 38.462911 
L 58.995918 33.700618 
L 61.273469 28.974502 
L 63.55102 25.521449 
L 65.828571 22.104928 
L 68.106122 18.548725 
L 70.383673 17.28 
L 72.661224 17.70484 
L 74.938776 23.983268 
L 77.216327 19.20545 
L 79.493878 22.618367 
L 81.771429 27.260831 
L 84.04898 30.941191 
L 86.326531 35.52251 
L 88.604082 40.188962 
L 90.881633 43.809054 
L 93.159184 48.139017 
L 95.436735 51.764387 
L 97.714286 54.926966 
L 99.991837 58.00926 
L 102.269388 60.23443 
L 104.546939 62.657125 
L 106.82449 64.161983 
L 109.102041 65.463932 
L 111.379592 66.501651 
L 113.657143 67.104821 
L 115.934694 67.443463 
L 118.212245 67.620559 
L 120.489796 67.654472 
L 122.767347 67.654488 
L 125.044898 67.654488 
L 127.322449 67.654488 
L 129.6 67.654488 
L 129.6 67.654488 
L 129.6 67.654488 
L 127.322449 67.654488 
L 125.044898 67.654488 
L 122.767347 67.654488 
L 120.489796 67.65451 
L 118.212245 67.68 
L 115.934694 67.647732 
L 113.657143 67.495958 
L 111.379592 67.101974 
L 109.102041 66.425771 
L 106.82449 65.415225 
L 104.546939 63.910439 
L 102.269388 62.043333 
L 99.991837 59.928952 
L 97.714286 57.619625 
L 95.436735 54.109493 
L 93.159184 51.225688 
L 90.881633 47.503973 
L 88.604082 43.498358 
L 86.326531 39.42221 
L 84.04898 35.583935 
L 81.771429 31.260165 
L 79.493878 28.028234 
L 77.216327 25.263404 
L 74.938776 28.416617 
L 72.661224 22.068093 
L 70.383673 22.756393 
L 68.106122 24.466491 
L 65.828571 26.23899 
L 63.55102 29.713626 
L 61.273469 33.8533 
L 58.995918 37.613182 
L 56.718367 42.544083 
L 54.440816 47.459549 
L 52.163265 51.379652 
L 49.885714 55.427848 
L 47.608163 58.964508 
L 45.330612 61.679796 
L 43.053061 63.979221 
L 40.77551 65.439072 
L 38.497959 66.619957 
L 36.220408 67.280481 
L 33.942857 67.570907 
L 31.665306 67.673179 
L 29.387755 67.654656 
L 27.110204 67.654488 
L 24.832653 67.654488 
L 22.555102 67.654488 
L 20.277551 67.654488 
L 18 67.654488 
z
" style="fill:#fc8d62;fill-opacity:0.2;"/>
   </g>
   <g id="PolyCollection_2">
    <path clip-path="url(#pa24a7eb1a3)" d="M 18 67.654488 
L 18 67.654488 
L 20.277551 67.654488 
L 22.555102 67.654488 
L 24.832653 67.654488 
L 27.110204 67.654488 
L 29.387755 67.65446 
L 31.665306 67.609348 
L 33.942857 67.319873 
L 36.220408 66.888611 
L 38.497959 66.192315 
L 40.77551 64.797767 
L 43.053061 63.132412 
L 45.330612 60.981291 
L 47.608163 57.879091 
L 49.885714 54.783293 
L 52.163265 51.059096 
L 54.440816 47.149265 
L 56.718367 43.041129 
L 58.995918 38.067203 
L 61.273469 34.118047 
L 63.55102 29.94397 
L 65.828571 25.957339 
L 68.106122 22.677511 
L 70.383673 20.59285 
L 72.661224 19.204898 
L 74.938776 22.222147 
L 77.216327 19.735569 
L 79.493878 21.248322 
L 81.771429 23.520289 
L 84.04898 27.087199 
L 86.326531 31.079872 
L 88.604082 35.134728 
L 90.881633 39.178495 
L 93.159184 43.971133 
L 95.436735 48.229019 
L 97.714286 52.055952 
L 99.991837 55.518339 
L 102.269388 58.905531 
L 104.546939 61.343771 
L 106.82449 63.663809 
L 109.102041 64.919369 
L 111.379592 66.27323 
L 113.657143 66.999953 
L 115.934694 67.435446 
L 118.212245 67.604066 
L 120.489796 67.654487 
L 122.767347 67.654488 
L 125.044898 67.654488 
L 127.322449 67.654488 
L 129.6 67.654488 
L 129.6 67.654488 
L 129.6 67.654488 
L 127.322449 67.654488 
L 125.044898 67.654488 
L 122.767347 67.654488 
L 120.489796 67.654489 
L 118.212245 67.674856 
L 115.934694 67.658314 
L 113.657143 67.449172 
L 111.379592 66.904866 
L 109.102041 66.000258 
L 106.82449 64.768958 
L 104.546939 63.02572 
L 102.269388 61.13361 
L 99.991837 57.99931 
L 97.714286 54.766211 
L 95.436735 51.245823 
L 93.159184 47.576511 
L 90.881633 42.880617 
L 88.604082 39.211298 
L 86.326531 35.029998 
L 84.04898 31.662336 
L 81.771429 28.689633 
L 79.493878 25.491004 
L 77.216327 24.287849 
L 74.938776 27.251275 
L 72.661224 23.506264 
L 70.383673 25.015037 
L 68.106122 27.936459 
L 65.828571 30.381322 
L 63.55102 34.158673 
L 61.273469 38.215693 
L 58.995918 41.648812 
L 56.718367 45.96749 
L 54.440816 49.967943 
L 52.163265 54.077685 
L 49.885714 57.063922 
L 47.608163 59.904201 
L 45.330612 62.532078 
L 43.053061 64.225713 
L 40.77551 65.964398 
L 38.497959 66.796622 
L 36.220408 67.265692 
L 33.942857 67.60382 
L 31.665306 67.670841 
L 29.387755 67.654502 
L 27.110204 67.654488 
L 24.832653 67.654488 
L 22.555102 67.654488 
L 20.277551 67.654488 
L 18 67.654488 
z
" style="fill:#fc8d62;fill-opacity:0.2;"/>
   </g>
   <g id="matplotlib.axis_1">
    <g id="xtick_1">
     <g id="line2d_1">
      <defs>
       <path d="M 0 0 
L 0 3.5 
" id="md4901f1e55" style="stroke:#a9a9a9;stroke-width:2;"/>
      </defs>
      <g>
       <use style="fill:#a9a9a9;stroke:#a9a9a9;stroke-width:2;" x="29.387755" xlink:href="#md4901f1e55" y="67.654488"/>
      </g>
     </g>
    </g>
    <g id="xtick_2">
     <g id="line2d_2">
      <g>
       <use style="fill:#a9a9a9;stroke:#a9a9a9;stroke-width:2;" x="52.163265" xlink:href="#md4901f1e55" y="67.654488"/>
      </g>
     </g>
    </g>
    <g id="xtick_3">
     <g id="line2d_3">
      <g>
       <use style="fill:#a9a9a9;stroke:#a9a9a9;stroke-width:2;" x="74.938776" xlink:href="#md4901f1e55" y="67.654488"/>
      </g>
     </g>
    </g>
    <g id="xtick_4">
     <g id="line2d_4">
      <g>
       <use style="fill:#a9a9a9;stroke:#a9a9a9;stroke-width:2;" x="97.714286" xlink:href="#md4901f1e55" y="67.654488"/>
      </g>
     </g>
    </g>
    <g id="xtick_5">
     <g id="line2d_5">
      <g>
       <use style="fill:#a9a9a9;stroke:#a9a9a9;stroke-width:2;" x="120.489796" xlink:href="#md4901f1e55" y="67.654488"/>
      </g>
     </g>
    </g>
   </g>
   <g id="matplotlib.axis_2"/>
   <g id="line2d_6">
    <path clip-path="url(#pa24a7eb1a3)" d="M 18 67.654488 
L 20.277551 67.654488 
L 22.555102 67.654488 
L 24.832653 67.654488 
L 27.110204 67.654488 
L 29.387755 67.654454 
L 31.665306 67.629614 
L 33.942857 67.45115 
L 36.220408 67.04747 
L 38.497959 66.266821 
L 40.77551 64.914312 
L 43.053061 63.242412 
L 45.330612 60.765014 
L 47.608163 57.791224 
L 49.885714 54.250216 
L 52.163265 49.86635 
L 54.440816 45.774236 
L 56.718367 40.503497 
L 58.995918 35.6569 
L 61.273469 31.413901 
L 63.55102 27.617537 
L 65.828571 24.171959 
L 68.106122 21.507608 
L 70.383673 20.018197 
L 72.661224 19.886467 
L 74.938776 26.199942 
L 77.216327 22.234427 
L 79.493878 25.323301 
L 81.771429 29.260498 
L 84.04898 33.262563 
L 86.326531 37.47236 
L 88.604082 41.84366 
L 90.881633 45.656514 
L 93.159184 49.682353 
L 95.436735 52.93694 
L 97.714286 56.273295 
L 99.991837 58.969106 
L 102.269388 61.138881 
L 104.546939 63.283782 
L 106.82449 64.788604 
L 109.102041 65.944852 
L 111.379592 66.801812 
L 113.657143 67.30039 
L 115.934694 67.545598 
L 118.212245 67.650279 
L 120.489796 67.654491 
L 122.767347 67.654488 
L 125.044898 67.654488 
L 127.322449 67.654488 
L 129.6 67.654488 
" style="fill:none;stroke:#fc8d62;stroke-linecap:square;stroke-width:2;"/>
   </g>
   <g id="line2d_7">
    <path clip-path="url(#pa24a7eb1a3)" d="M 18 67.654488 
L 20.277551 67.654488 
L 22.555102 67.654488 
L 24.832653 67.654488 
L 27.110204 67.654488 
L 29.387755 67.654481 
L 31.665306 67.640094 
L 33.942857 67.461846 
L 36.220408 67.077152 
L 38.497959 66.494468 
L 40.77551 65.381082 
L 43.053061 63.679062 
L 45.330612 61.756685 
L 47.608163 58.891646 
L 49.885714 55.923608 
L 52.163265 52.56839 
L 54.440816 48.558604 
L 56.718367 44.504309 
L 58.995918 39.858008 
L 61.273469 36.16687 
L 63.55102 32.051321 
L 65.828571 28.169331 
L 68.106122 25.306985 
L 70.383673 22.803943 
L 72.661224 21.355581 
L 74.938776 24.736711 
L 77.216327 22.011709 
L 79.493878 23.369663 
L 81.771429 26.104961 
L 84.04898 29.374767 
L 86.326531 33.054935 
L 88.604082 37.173013 
L 90.881633 41.029556 
L 93.159184 45.773822 
L 95.436735 49.737421 
L 97.714286 53.411082 
L 99.991837 56.758825 
L 102.269388 60.01957 
L 104.546939 62.184746 
L 106.82449 64.216384 
L 109.102041 65.459813 
L 111.379592 66.589048 
L 113.657143 67.224563 
L 115.934694 67.54688 
L 118.212245 67.639461 
L 120.489796 67.654488 
L 122.767347 67.654488 
L 125.044898 67.654488 
L 127.322449 67.654488 
L 129.6 67.654488 
" style="fill:none;stroke:#fc8d62;stroke-dasharray:1.5,1.5;stroke-dashoffset:0;stroke-opacity:0.7;stroke-width:1.5;"/>
   </g>
   <g id="patch_3">
    <path d="M 74.938776 67.68 
L 74.938776 17.28 
" style="fill:none;stroke:#a9a9a9;stroke-linecap:square;stroke-linejoin:miter;stroke-width:2;"/>
   </g>
   <g id="patch_4">
    <path d="M 129.6 67.68 
L 129.6 17.28 
" style="fill:none;"/>
   </g>
   <g id="patch_5">
    <path d="M 18 67.654488 
L 129.6 67.654488 
" style="fill:none;stroke:#a9a9a9;stroke-linecap:square;stroke-linejoin:miter;stroke-width:2;"/>
   </g>
   <g id="patch_6">
    <path d="M 18 17.28 
L 129.6 17.28 
" style="fill:none;"/>
   </g>
   <g id="legend_1">
    <g id="line2d_8">
     <path d="M 87.67 26.448906 
L 101.67 26.448906 
" style="fill:none;stroke:#fc8d62;stroke-linecap:square;stroke-width:2;"/>
    </g>
    <g id="line2d_9"/>
    <g id="text_1">
     <!-- $\theta$ -->
     <g transform="translate(107.27 28.898906)scale(0.07 -0.07)">
      <defs>
       <path d="M 45.515625 34.671875 
L 14.453125 34.671875 
Q 12.359375 20.0625 14.5 13.875 
Q 17.1875 6.25 24.46875 6.25 
Q 31.78125 6.25 37.359375 13.921875 
Q 42.234375 20.65625 45.515625 34.671875 
z
M 47.015625 42.96875 
Q 48.34375 56.84375 46.625 61.71875 
Q 43.953125 69.4375 36.765625 69.4375 
Q 29.296875 69.4375 23.828125 61.8125 
Q 19.53125 55.671875 16.15625 42.96875 
z
M 38.1875 76.765625 
Q 49.90625 76.765625 54.59375 66.40625 
Q 59.28125 56.109375 55.71875 37.84375 
Q 52.203125 19.625 43.453125 9.28125 
Q 34.765625 -1.125 23.046875 -1.125 
Q 11.28125 -1.125 6.640625 9.28125 
Q 2 19.625 5.515625 37.84375 
Q 9.078125 56.109375 17.71875 66.40625 
Q 26.421875 76.765625 38.1875 76.765625 
z
" id="DejaVuSans-Oblique-952"/>
      </defs>
      <use transform="translate(0 0.234375)" xlink:href="#DejaVuSans-Oblique-952"/>
     </g>
    </g>
    <g id="line2d_10">
     <path d="M 87.67 36.723594 
L 101.67 36.723594 
" style="fill:none;stroke:#fc8d62;stroke-dasharray:1.5,1.5;stroke-dashoffset:0;stroke-opacity:0.7;stroke-width:1.5;"/>
    </g>
    <g id="line2d_11"/>
    <g id="text_2">
     <!-- No $\theta$ -->
     <g transform="translate(107.27 39.173594)scale(0.07 -0.07)">
      <defs>
       <path d="M 9.8125 72.90625 
L 23.09375 72.90625 
L 55.421875 11.921875 
L 55.421875 72.90625 
L 64.984375 72.90625 
L 64.984375 0 
L 51.703125 0 
L 19.390625 60.984375 
L 19.390625 0 
L 9.8125 0 
z
" id="DejaVuSans-78"/>
       <path d="M 30.609375 48.390625 
Q 23.390625 48.390625 19.1875 42.75 
Q 14.984375 37.109375 14.984375 27.296875 
Q 14.984375 17.484375 19.15625 11.84375 
Q 23.34375 6.203125 30.609375 6.203125 
Q 37.796875 6.203125 41.984375 11.859375 
Q 46.1875 17.53125 46.1875 27.296875 
Q 46.1875 37.015625 41.984375 42.703125 
Q 37.796875 48.390625 30.609375 48.390625 
z
M 30.609375 56 
Q 42.328125 56 49.015625 48.375 
Q 55.71875 40.765625 55.71875 27.296875 
Q 55.71875 13.875 49.015625 6.21875 
Q 42.328125 -1.421875 30.609375 -1.421875 
Q 18.84375 -1.421875 12.171875 6.21875 
Q 5.515625 13.875 5.515625 27.296875 
Q 5.515625 40.765625 12.171875 48.375 
Q 18.84375 56 30.609375 56 
z
" id="DejaVuSans-111"/>
       <path id="DejaVuSans-32"/>
      </defs>
      <use transform="translate(0 0.234375)" xlink:href="#DejaVuSans-78"/>
      <use transform="translate(74.804688 0.234375)" xlink:href="#DejaVuSans-111"/>
      <use transform="translate(135.986328 0.234375)" xlink:href="#DejaVuSans-32"/>
      <use transform="translate(167.773438 0.234375)" xlink:href="#DejaVuSans-Oblique-952"/>
     </g>
    </g>
   </g>
  </g>
  <g id="axes_2">
   <g id="patch_7">
    <path d="M 18 128.16 
L 129.6 128.16 
L 129.6 77.76 
L 18 77.76 
z
" style="fill:none;"/>
   </g>
   <g id="PolyCollection_3">
    <path clip-path="url(#p7cc10ae219)" d="M 18 120.496642 
L 18 120.420258 
L 20.277551 120.638847 
L 22.555102 120.702637 
L 24.832653 120.619803 
L 27.110204 120.438838 
L 29.387755 120.237878 
L 31.665306 120.066382 
L 33.942857 119.783177 
L 36.220408 119.22598 
L 38.497959 118.267353 
L 40.77551 116.816115 
L 43.053061 114.821406 
L 45.330612 112.274894 
L 47.608163 109.208477 
L 49.885714 105.690462 
L 52.163265 101.821772 
L 54.440816 97.732157 
L 56.718367 93.576108 
L 58.995918 89.528175 
L 61.273469 85.777752 
L 63.55102 82.523628 
L 65.828571 79.96868 
L 68.106122 78.315049 
L 70.383673 77.76 
L 72.661224 78.492668 
L 74.938776 80.6818 
L 77.216327 84.41776 
L 79.493878 89.299202 
L 81.771429 94.87836 
L 84.04898 100.737292 
L 86.326531 106.511795 
L 88.604082 111.900548 
L 90.881633 116.669893 
L 93.159184 120.654939 
L 95.436735 123.758358 
L 97.714286 125.947933 
L 99.991837 127.251444 
L 102.269388 127.74643 
L 104.546939 127.547167 
L 106.82449 126.793125 
L 109.102041 125.639577 
L 111.379592 124.249578 
L 113.657143 122.787061 
L 115.934694 121.411594 
L 118.212245 120.2764 
L 120.489796 119.531642 
L 122.767347 119.274319 
L 125.044898 119.385318 
L 127.322449 119.701765 
L 129.6 120.083195 
L 129.6 120.184555 
L 129.6 120.184555 
L 127.322449 119.827209 
L 125.044898 119.529236 
L 122.767347 119.42892 
L 120.489796 119.691426 
L 118.212245 120.446289 
L 115.934694 121.609422 
L 113.657143 123.029499 
L 111.379592 124.54285 
L 109.102041 125.979811 
L 106.82449 127.1699 
L 104.546939 127.947614 
L 102.269388 128.16 
L 99.991837 127.67575 
L 97.714286 126.394523 
L 95.436735 124.254441 
L 93.159184 121.237127 
L 90.881633 117.373628 
L 88.604082 112.75293 
L 86.326531 107.529354 
L 84.04898 101.926058 
L 81.771429 96.234356 
L 79.493878 90.809002 
L 77.216327 86.059075 
L 74.938776 82.42426 
L 72.661224 80.29949 
L 70.383673 79.591052 
L 68.106122 80.129407 
L 65.828571 81.726554 
L 63.55102 84.188157 
L 61.273469 87.316687 
L 58.995918 90.915362 
L 56.718367 94.792757 
L 54.440816 98.767772 
L 52.163265 102.674673 
L 49.885714 106.367865 
L 47.608163 109.726116 
L 45.330612 112.656243 
L 43.053061 115.096311 
L 40.77551 117.017852 
L 38.497959 118.426785 
L 36.220408 119.364211 
L 33.942857 119.90967 
L 31.665306 120.183733 
L 29.387755 120.344866 
L 27.110204 120.530668 
L 24.832653 120.693144 
L 22.555102 120.761115 
L 20.277551 120.697547 
L 18 120.496642 
z
" style="fill:#66c2a5;fill-opacity:0.2;"/>
   </g>
   <g id="matplotlib.axis_3">
    <g id="xtick_6">
     <g id="line2d_12">
      <g>
       <use style="fill:#a9a9a9;stroke:#a9a9a9;stroke-width:2;" x="29.387755" xlink:href="#md4901f1e55" y="122.159372"/>
      </g>
     </g>
    </g>
    <g id="xtick_7">
     <g id="line2d_13">
      <g>
       <use style="fill:#a9a9a9;stroke:#a9a9a9;stroke-width:2;" x="52.163265" xlink:href="#md4901f1e55" y="122.159372"/>
      </g>
     </g>
    </g>
    <g id="xtick_8">
     <g id="line2d_14">
      <g>
       <use style="fill:#a9a9a9;stroke:#a9a9a9;stroke-width:2;" x="74.938776" xlink:href="#md4901f1e55" y="122.159372"/>
      </g>
     </g>
    </g>
    <g id="xtick_9">
     <g id="line2d_15">
      <g>
       <use style="fill:#a9a9a9;stroke:#a9a9a9;stroke-width:2;" x="97.714286" xlink:href="#md4901f1e55" y="122.159372"/>
      </g>
     </g>
    </g>
    <g id="xtick_10">
     <g id="line2d_16">
      <g>
       <use style="fill:#a9a9a9;stroke:#a9a9a9;stroke-width:2;" x="120.489796" xlink:href="#md4901f1e55" y="122.159372"/>
      </g>
     </g>
    </g>
   </g>
   <g id="matplotlib.axis_4"/>
   <g id="line2d_17">
    <path clip-path="url(#p7cc10ae219)" d="M 18 120.45845 
L 20.277551 120.668197 
L 22.555102 120.731876 
L 24.832653 120.656474 
L 27.110204 120.484753 
L 29.387755 120.291372 
L 31.665306 120.125058 
L 33.942857 119.846424 
L 36.220408 119.295095 
L 38.497959 118.347069 
L 40.77551 116.916983 
L 43.053061 114.958858 
L 45.330612 112.465569 
L 47.608163 109.467296 
L 49.885714 106.029163 
L 52.163265 102.248222 
L 54.440816 98.249965 
L 56.718367 94.184432 
L 58.995918 90.221769 
L 61.273469 86.54722 
L 63.55102 83.355893 
L 65.828571 80.847617 
L 68.106122 79.222228 
L 70.383673 78.675526 
L 72.661224 79.396079 
L 74.938776 81.55303 
L 77.216327 85.238417 
L 79.493878 90.054102 
L 81.771429 95.556358 
L 84.04898 101.331675 
L 86.326531 107.020574 
L 88.604082 112.326739 
L 90.881633 117.02176 
L 93.159184 120.946033 
L 95.436735 124.0064 
L 97.714286 126.171228 
L 99.991837 127.463597 
L 102.269388 127.953215 
L 104.546939 127.747391 
L 106.82449 126.981513 
L 109.102041 125.809694 
L 111.379592 124.396214 
L 113.657143 122.90828 
L 115.934694 121.510508 
L 118.212245 120.361344 
L 120.489796 119.611534 
L 122.767347 119.35162 
L 125.044898 119.457277 
L 127.322449 119.764487 
L 129.6 120.133875 
" style="fill:none;stroke:#66c2a5;stroke-linecap:square;stroke-width:2;"/>
   </g>
   <g id="patch_8">
    <path d="M 74.938776 128.16 
L 74.938776 77.76 
" style="fill:none;stroke:#a9a9a9;stroke-linecap:square;stroke-linejoin:miter;stroke-width:2;"/>
   </g>
   <g id="patch_9">
    <path d="M 129.6 128.16 
L 129.6 77.76 
" style="fill:none;"/>
   </g>
   <g id="patch_10">
    <path d="M 18 122.159372 
L 129.6 122.159372 
" style="fill:none;stroke:#a9a9a9;stroke-linecap:square;stroke-linejoin:miter;stroke-width:2;"/>
   </g>
   <g id="patch_11">
    <path d="M 18 77.76 
L 129.6 77.76 
" style="fill:none;"/>
   </g>
  </g>
 </g>
 <defs>
  <clipPath id="pa24a7eb1a3">
   <rect height="50.4" width="111.6" x="18" y="17.28"/>
  </clipPath>
  <clipPath id="p7cc10ae219">
   <rect height="50.4" width="111.6" x="18" y="77.76"/>
  </clipPath>
 </defs>
</svg>
