<?xml version="1.0" encoding="utf-8" standalone="no"?>
<!DOCTYPE svg PUBLIC "-//W3C//DTD SVG 1.1//EN"
  "http://www.w3.org/Graphics/SVG/1.1/DTD/svg11.dtd">
<!-- Created with matplotlib (https://matplotlib.org/) -->
<svg height="144pt" version="1.1" viewBox="0 0 144 144" width="144pt" xmlns="http://www.w3.org/2000/svg" xmlns:xlink="http://www.w3.org/1999/xlink">
 <metadata>
  <rdf:RDF xmlns:cc="http://creativecommons.org/ns#" xmlns:dc="http://purl.org/dc/elements/1.1/" xmlns:rdf="http://www.w3.org/1999/02/22-rdf-syntax-ns#">
   <cc:Work>
    <dc:type rdf:resource="http://purl.org/dc/dcmitype/StillImage"/>
    <dc:date>2021-10-13T16:08:10.537279</dc:date>
    <dc:format>image/svg+xml</dc:format>
    <dc:creator>
     <cc:Agent>
      <dc:title>Matplotlib v3.3.2, https://matplotlib.org/</dc:title>
     </cc:Agent>
    </dc:creator>
   </cc:Work>
  </rdf:RDF>
 </metadata>
 <defs>
  <style type="text/css">*{stroke-linecap:butt;stroke-linejoin:round;}</style>
 </defs>
 <g id="figure_1">
  <g id="patch_1">
   <path d="M 0 144 
L 144 144 
L 144 0 
L 0 0 
z
" style="fill:none;"/>
  </g>
  <g id="axes_1">
   <g id="patch_2">
    <path d="M 18 67.68 
L 129.6 67.68 
L 129.6 17.28 
L 18 17.28 
z
" style="fill:none;"/>
   </g>
   <g id="PolyCollection_1">
    <path clip-path="url(#p25255e2fa8)" d="M 18 67.671601 
L 18 67.671601 
L 20.277551 67.671601 
L 22.555102 67.671601 
L 24.832653 67.671601 
L 27.110204 67.671601 
L 29.387755 67.671374 
L 31.665306 67.625177 
L 33.942857 67.446216 
L 36.220408 67.042864 
L 38.497959 66.224119 
L 40.77551 64.948675 
L 43.053061 63.05689 
L 45.330612 60.403833 
L 47.608163 57.157221 
L 49.885714 53.447863 
L 52.163265 48.993272 
L 54.440816 44.051896 
L 56.718367 38.925305 
L 58.995918 33.726247 
L 61.273469 29.030493 
L 63.55102 24.581776 
L 65.828571 20.905485 
L 68.106122 18.319677 
L 70.383673 17.28 
L 72.661224 17.393873 
L 74.938776 32.382762 
L 77.216327 21.42689 
L 79.493878 25.031548 
L 81.771429 29.57033 
L 84.04898 34.049753 
L 86.326531 38.915714 
L 88.604082 43.578577 
L 90.881633 47.889846 
L 93.159184 51.632819 
L 95.436735 54.834425 
L 97.714286 57.916832 
L 99.991837 60.256803 
L 102.269388 62.274402 
L 104.546939 63.940169 
L 106.82449 65.185218 
L 109.102041 66.054499 
L 111.379592 66.764835 
L 113.657143 67.217798 
L 115.934694 67.517307 
L 118.212245 67.634647 
L 120.489796 67.671511 
L 122.767347 67.671601 
L 125.044898 67.671601 
L 127.322449 67.671601 
L 129.6 67.671601 
L 129.6 67.671601 
L 129.6 67.671601 
L 127.322449 67.671601 
L 125.044898 67.671601 
L 122.767347 67.671601 
L 120.489796 67.671742 
L 118.212245 67.68 
L 115.934694 67.617204 
L 113.657143 67.412002 
L 111.379592 67.087844 
L 109.102041 66.45317 
L 106.82449 65.634736 
L 104.546939 64.392678 
L 102.269388 62.940561 
L 99.991837 61.137614 
L 97.714286 58.791771 
L 95.436735 56.164785 
L 93.159184 52.813336 
L 90.881633 49.141267 
L 88.604082 44.997795 
L 86.326531 40.534916 
L 84.04898 36.088621 
L 81.771429 31.369986 
L 79.493878 27.228731 
L 77.216327 23.583089 
L 74.938776 34.096456 
L 72.661224 19.374544 
L 70.383673 19.502254 
L 68.106122 20.66964 
L 65.828571 23.097882 
L 63.55102 26.751081 
L 61.273469 30.914067 
L 58.995918 35.753634 
L 56.718367 40.586722 
L 54.440816 45.652492 
L 52.163265 50.266289 
L 49.885714 54.561297 
L 47.608163 58.145842 
L 45.330612 61.16545 
L 43.053061 63.57755 
L 40.77551 65.400215 
L 38.497959 66.518129 
L 36.220408 67.219756 
L 33.942857 67.550937 
L 31.665306 67.669899 
L 29.387755 67.671752 
L 27.110204 67.671601 
L 24.832653 67.671601 
L 22.555102 67.671601 
L 20.277551 67.671601 
L 18 67.671601 
z
" style="fill:#fc8d62;fill-opacity:0.2;"/>
   </g>
   <g id="PolyCollection_2">
    <path clip-path="url(#p25255e2fa8)" d="M 18 67.671601 
L 18 67.671601 
L 20.277551 67.671601 
L 22.555102 67.671601 
L 24.832653 67.671601 
L 27.110204 67.671601 
L 29.387755 67.671594 
L 31.665306 67.626442 
L 33.942857 67.440808 
L 36.220408 66.989963 
L 38.497959 66.239495 
L 40.77551 65.068237 
L 43.053061 63.469245 
L 45.330612 61.213467 
L 47.608163 58.75851 
L 49.885714 55.69428 
L 52.163265 52.308834 
L 54.440816 48.551032 
L 56.718367 44.691784 
L 58.995918 40.774564 
L 61.273469 36.674971 
L 63.55102 32.835193 
L 65.828571 29.578602 
L 68.106122 26.716027 
L 70.383673 24.523249 
L 72.661224 22.883061 
L 74.938776 33.207484 
L 77.216327 23.113658 
L 79.493878 24.569276 
L 81.771429 27.069329 
L 84.04898 30.21353 
L 86.326531 33.543191 
L 88.604082 37.128682 
L 90.881633 41.274599 
L 93.159184 45.311193 
L 95.436735 49.226996 
L 97.714286 53.063124 
L 99.991837 56.065843 
L 102.269388 59.030802 
L 104.546939 61.703941 
L 106.82449 63.6561 
L 109.102041 65.18916 
L 111.379592 66.322313 
L 113.657143 67.052666 
L 115.934694 67.455744 
L 118.212245 67.626296 
L 120.489796 67.671594 
L 122.767347 67.671601 
L 125.044898 67.671601 
L 127.322449 67.671601 
L 129.6 67.671601 
L 129.6 67.671601 
L 129.6 67.671601 
L 127.322449 67.671601 
L 125.044898 67.671601 
L 122.767347 67.671601 
L 120.489796 67.671615 
L 118.212245 67.668457 
L 115.934694 67.581139 
L 113.657143 67.289414 
L 111.379592 66.610641 
L 109.102041 65.703954 
L 106.82449 64.238437 
L 104.546939 62.428872 
L 102.269388 60.032984 
L 99.991837 57.1492 
L 97.714286 54.092447 
L 95.436735 50.518909 
L 93.159184 46.909864 
L 90.881633 42.991311 
L 88.604082 39.008635 
L 86.326531 35.271066 
L 84.04898 31.727748 
L 81.771429 28.976892 
L 79.493878 26.736193 
L 77.216327 25.249564 
L 74.938776 35.010161 
L 72.661224 24.761716 
L 70.383673 26.321409 
L 68.106122 28.531025 
L 65.828571 31.496459 
L 63.55102 34.862783 
L 61.273469 38.583347 
L 58.995918 42.301644 
L 56.718367 46.221952 
L 54.440816 49.873815 
L 52.163265 53.501428 
L 49.885714 56.802154 
L 47.608163 59.559546 
L 45.330612 62.004695 
L 43.053061 64.008181 
L 40.77551 65.448274 
L 38.497959 66.57067 
L 36.220408 67.214721 
L 33.942857 67.556997 
L 31.665306 67.668803 
L 29.387755 67.671604 
L 27.110204 67.671601 
L 24.832653 67.671601 
L 22.555102 67.671601 
L 20.277551 67.671601 
L 18 67.671601 
z
" style="fill:#fc8d62;fill-opacity:0.2;"/>
   </g>
   <g id="matplotlib.axis_1">
    <g id="xtick_1">
     <g id="line2d_1">
      <defs>
       <path d="M 0 0 
L 0 3.5 
" id="mcc7ae7d344" style="stroke:#a9a9a9;stroke-width:2;"/>
      </defs>
      <g>
       <use style="fill:#a9a9a9;stroke:#a9a9a9;stroke-width:2;" x="29.387755" xlink:href="#mcc7ae7d344" y="67.671601"/>
      </g>
     </g>
    </g>
    <g id="xtick_2">
     <g id="line2d_2">
      <g>
       <use style="fill:#a9a9a9;stroke:#a9a9a9;stroke-width:2;" x="52.163265" xlink:href="#mcc7ae7d344" y="67.671601"/>
      </g>
     </g>
    </g>
    <g id="xtick_3">
     <g id="line2d_3">
      <g>
       <use style="fill:#a9a9a9;stroke:#a9a9a9;stroke-width:2;" x="74.938776" xlink:href="#mcc7ae7d344" y="67.671601"/>
      </g>
     </g>
    </g>
    <g id="xtick_4">
     <g id="line2d_4">
      <g>
       <use style="fill:#a9a9a9;stroke:#a9a9a9;stroke-width:2;" x="97.714286" xlink:href="#mcc7ae7d344" y="67.671601"/>
      </g>
     </g>
    </g>
    <g id="xtick_5">
     <g id="line2d_5">
      <g>
       <use style="fill:#a9a9a9;stroke:#a9a9a9;stroke-width:2;" x="120.489796" xlink:href="#mcc7ae7d344" y="67.671601"/>
      </g>
     </g>
    </g>
   </g>
   <g id="matplotlib.axis_2"/>
   <g id="line2d_6">
    <path clip-path="url(#p25255e2fa8)" d="M 18 67.671601 
L 20.277551 67.671601 
L 22.555102 67.671601 
L 24.832653 67.671601 
L 27.110204 67.671601 
L 29.387755 67.671563 
L 31.665306 67.647538 
L 33.942857 67.498576 
L 36.220408 67.13131 
L 38.497959 66.371124 
L 40.77551 65.174445 
L 43.053061 63.31722 
L 45.330612 60.784641 
L 47.608163 57.651531 
L 49.885714 54.00458 
L 52.163265 49.62978 
L 54.440816 44.852194 
L 56.718367 39.756014 
L 58.995918 34.73994 
L 61.273469 29.97228 
L 63.55102 25.666428 
L 65.828571 22.001683 
L 68.106122 19.494659 
L 70.383673 18.391127 
L 72.661224 18.384208 
L 74.938776 33.239609 
L 77.216327 22.504989 
L 79.493878 26.13014 
L 81.771429 30.470158 
L 84.04898 35.069187 
L 86.326531 39.725315 
L 88.604082 44.288186 
L 90.881633 48.515556 
L 93.159184 52.223078 
L 95.436735 55.499605 
L 97.714286 58.354302 
L 99.991837 60.697208 
L 102.269388 62.607481 
L 104.546939 64.166423 
L 106.82449 65.409977 
L 109.102041 66.253835 
L 111.379592 66.926339 
L 113.657143 67.3149 
L 115.934694 67.567255 
L 118.212245 67.657323 
L 120.489796 67.671626 
L 122.767347 67.671601 
L 125.044898 67.671601 
L 127.322449 67.671601 
L 129.6 67.671601 
" style="fill:none;stroke:#fc8d62;stroke-linecap:square;stroke-width:2;"/>
   </g>
   <g id="line2d_7">
    <path clip-path="url(#p25255e2fa8)" d="M 18 67.671601 
L 20.277551 67.671601 
L 22.555102 67.671601 
L 24.832653 67.671601 
L 27.110204 67.671601 
L 29.387755 67.671599 
L 31.665306 67.647623 
L 33.942857 67.498903 
L 36.220408 67.102342 
L 38.497959 66.405083 
L 40.77551 65.258255 
L 43.053061 63.738713 
L 45.330612 61.609081 
L 47.608163 59.159028 
L 49.885714 56.248217 
L 52.163265 52.905131 
L 54.440816 49.212423 
L 56.718367 45.456868 
L 58.995918 41.538104 
L 61.273469 37.629159 
L 63.55102 33.848988 
L 65.828571 30.53753 
L 68.106122 27.623526 
L 70.383673 25.422329 
L 72.661224 23.822388 
L 74.938776 34.108822 
L 77.216327 24.181611 
L 79.493878 25.652735 
L 81.771429 28.023111 
L 84.04898 30.970639 
L 86.326531 34.407129 
L 88.604082 38.068659 
L 90.881633 42.132955 
L 93.159184 46.110528 
L 95.436735 49.872952 
L 97.714286 53.577786 
L 99.991837 56.607521 
L 102.269388 59.531893 
L 104.546939 62.066407 
L 106.82449 63.947268 
L 109.102041 65.446557 
L 111.379592 66.466477 
L 113.657143 67.17104 
L 115.934694 67.518441 
L 118.212245 67.647376 
L 120.489796 67.671605 
L 122.767347 67.671601 
L 125.044898 67.671601 
L 127.322449 67.671601 
L 129.6 67.671601 
" style="fill:none;stroke:#fc8d62;stroke-dasharray:1.5,1.5;stroke-dashoffset:0;stroke-opacity:0.7;stroke-width:1.5;"/>
   </g>
   <g id="patch_3">
    <path d="M 74.938776 67.68 
L 74.938776 17.28 
" style="fill:none;stroke:#a9a9a9;stroke-linecap:square;stroke-linejoin:miter;stroke-width:2;"/>
   </g>
   <g id="patch_4">
    <path d="M 129.6 67.68 
L 129.6 17.28 
" style="fill:none;"/>
   </g>
   <g id="patch_5">
    <path d="M 18 67.671601 
L 129.6 67.671601 
" style="fill:none;stroke:#a9a9a9;stroke-linecap:square;stroke-linejoin:miter;stroke-width:2;"/>
   </g>
   <g id="patch_6">
    <path d="M 18 17.28 
L 129.6 17.28 
" style="fill:none;"/>
   </g>
   <g id="legend_1">
    <g id="line2d_8">
     <path d="M 87.67 26.448906 
L 101.67 26.448906 
" style="fill:none;stroke:#fc8d62;stroke-linecap:square;stroke-width:2;"/>
    </g>
    <g id="line2d_9"/>
    <g id="text_1">
     <!-- $\theta$ -->
     <g transform="translate(107.27 28.898906)scale(0.07 -0.07)">
      <defs>
       <path d="M 45.515625 34.671875 
L 14.453125 34.671875 
Q 12.359375 20.0625 14.5 13.875 
Q 17.1875 6.25 24.46875 6.25 
Q 31.78125 6.25 37.359375 13.921875 
Q 42.234375 20.65625 45.515625 34.671875 
z
M 47.015625 42.96875 
Q 48.34375 56.84375 46.625 61.71875 
Q 43.953125 69.4375 36.765625 69.4375 
Q 29.296875 69.4375 23.828125 61.8125 
Q 19.53125 55.671875 16.15625 42.96875 
z
M 38.1875 76.765625 
Q 49.90625 76.765625 54.59375 66.40625 
Q 59.28125 56.109375 55.71875 37.84375 
Q 52.203125 19.625 43.453125 9.28125 
Q 34.765625 -1.125 23.046875 -1.125 
Q 11.28125 -1.125 6.640625 9.28125 
Q 2 19.625 5.515625 37.84375 
Q 9.078125 56.109375 17.71875 66.40625 
Q 26.421875 76.765625 38.1875 76.765625 
z
" id="DejaVuSans-Oblique-952"/>
      </defs>
      <use transform="translate(0 0.234375)" xlink:href="#DejaVuSans-Oblique-952"/>
     </g>
    </g>
    <g id="line2d_10">
     <path d="M 87.67 36.723594 
L 101.67 36.723594 
" style="fill:none;stroke:#fc8d62;stroke-dasharray:1.5,1.5;stroke-dashoffset:0;stroke-opacity:0.7;stroke-width:1.5;"/>
    </g>
    <g id="line2d_11"/>
    <g id="text_2">
     <!-- No $\theta$ -->
     <g transform="translate(107.27 39.173594)scale(0.07 -0.07)">
      <defs>
       <path d="M 9.8125 72.90625 
L 23.09375 72.90625 
L 55.421875 11.921875 
L 55.421875 72.90625 
L 64.984375 72.90625 
L 64.984375 0 
L 51.703125 0 
L 19.390625 60.984375 
L 19.390625 0 
L 9.8125 0 
z
" id="DejaVuSans-78"/>
       <path d="M 30.609375 48.390625 
Q 23.390625 48.390625 19.1875 42.75 
Q 14.984375 37.109375 14.984375 27.296875 
Q 14.984375 17.484375 19.15625 11.84375 
Q 23.34375 6.203125 30.609375 6.203125 
Q 37.796875 6.203125 41.984375 11.859375 
Q 46.1875 17.53125 46.1875 27.296875 
Q 46.1875 37.015625 41.984375 42.703125 
Q 37.796875 48.390625 30.609375 48.390625 
z
M 30.609375 56 
Q 42.328125 56 49.015625 48.375 
Q 55.71875 40.765625 55.71875 27.296875 
Q 55.71875 13.875 49.015625 6.21875 
Q 42.328125 -1.421875 30.609375 -1.421875 
Q 18.84375 -1.421875 12.171875 6.21875 
Q 5.515625 13.875 5.515625 27.296875 
Q 5.515625 40.765625 12.171875 48.375 
Q 18.84375 56 30.609375 56 
z
" id="DejaVuSans-111"/>
       <path id="DejaVuSans-32"/>
      </defs>
      <use transform="translate(0 0.234375)" xlink:href="#DejaVuSans-78"/>
      <use transform="translate(74.804688 0.234375)" xlink:href="#DejaVuSans-111"/>
      <use transform="translate(135.986328 0.234375)" xlink:href="#DejaVuSans-32"/>
      <use transform="translate(167.773438 0.234375)" xlink:href="#DejaVuSans-Oblique-952"/>
     </g>
    </g>
   </g>
  </g>
  <g id="axes_2">
   <g id="patch_7">
    <path d="M 18 128.16 
L 129.6 128.16 
L 129.6 77.76 
L 18 77.76 
z
" style="fill:none;"/>
   </g>
   <g id="PolyCollection_3">
    <path clip-path="url(#pe58ea028e3)" d="M 18 120.424137 
L 18 120.347168 
L 20.277551 120.568946 
L 22.555102 120.633797 
L 24.832653 120.549994 
L 27.110204 120.366625 
L 29.387755 120.162714 
L 31.665306 119.988991 
L 33.942857 119.704028 
L 36.220408 119.145541 
L 38.497959 118.186314 
L 40.77551 116.73506 
L 43.053061 114.740855 
L 45.330612 112.19551 
L 47.608163 109.131091 
L 49.885714 105.616101 
L 52.163265 101.751541 
L 54.440816 97.667183 
L 56.718367 93.517472 
L 58.995918 89.476875 
L 61.273469 85.734691 
L 63.55102 82.4897 
L 65.828571 79.944844 
L 68.106122 78.302425 
L 70.383673 77.76 
L 72.661224 78.507177 
L 74.938776 80.713201 
L 77.216327 84.469093 
L 79.493878 89.370562 
L 81.771429 94.967326 
L 84.04898 100.839354 
L 86.326531 106.621036 
L 88.604082 112.010328 
L 90.881633 116.773474 
L 93.159184 120.746386 
L 95.436735 123.833326 
L 97.714286 126.003989 
L 99.991837 127.28765 
L 102.269388 127.762292 
L 104.546939 127.542378 
L 106.82449 126.767818 
L 109.102041 125.594649 
L 111.379592 124.186777 
L 113.657143 122.70894 
L 115.934694 121.321526 
L 118.212245 120.17876 
L 120.489796 119.431735 
L 122.767347 119.177076 
L 125.044898 119.293833 
L 127.322449 119.617128 
L 129.6 120.005015 
L 129.6 120.107445 
L 129.6 120.107445 
L 127.322449 119.744285 
L 125.044898 119.440276 
L 122.767347 119.334935 
L 120.489796 119.594751 
L 118.212245 120.350051 
L 115.934694 121.516979 
L 113.657143 122.944561 
L 111.379592 124.469329 
L 109.102041 125.921338 
L 106.82449 127.129433 
L 104.546939 127.927113 
L 102.269388 128.16 
L 99.991837 127.694791 
L 97.714286 126.428773 
L 95.436735 124.298002 
L 93.159184 121.283307 
L 90.881633 117.415798 
L 88.604082 112.784846 
L 86.326531 107.545218 
L 84.04898 101.920655 
L 81.771429 96.203605 
L 79.493878 90.75053 
L 77.216327 85.972789 
L 74.938776 82.312679 
L 72.661224 80.167605 
L 70.383673 79.443891 
L 68.106122 79.971648 
L 65.828571 81.56242 
L 63.55102 84.021469 
L 61.273469 87.15087 
L 58.995918 90.753429 
L 56.718367 94.63725 
L 54.440816 98.620658 
L 52.163265 102.537305 
L 49.885714 106.240972 
L 47.608163 109.609818 
L 45.330612 112.550078 
L 43.053061 114.999365 
L 40.77551 116.928805 
L 38.497959 118.344035 
L 36.220408 119.2859 
L 33.942857 119.833973 
L 31.665306 120.109584 
L 29.387755 120.272192 
L 27.110204 120.459536 
L 24.832653 120.623602 
L 22.555102 120.692246 
L 20.277551 120.627817 
L 18 120.424137 
z
" style="fill:#66c2a5;fill-opacity:0.2;"/>
   </g>
   <g id="matplotlib.axis_3">
    <g id="xtick_6">
     <g id="line2d_12">
      <g>
       <use style="fill:#a9a9a9;stroke:#a9a9a9;stroke-width:2;" x="29.387755" xlink:href="#mcc7ae7d344" y="122.103187"/>
      </g>
     </g>
    </g>
    <g id="xtick_7">
     <g id="line2d_13">
      <g>
       <use style="fill:#a9a9a9;stroke:#a9a9a9;stroke-width:2;" x="52.163265" xlink:href="#mcc7ae7d344" y="122.103187"/>
      </g>
     </g>
    </g>
    <g id="xtick_8">
     <g id="line2d_14">
      <g>
       <use style="fill:#a9a9a9;stroke:#a9a9a9;stroke-width:2;" x="74.938776" xlink:href="#mcc7ae7d344" y="122.103187"/>
      </g>
     </g>
    </g>
    <g id="xtick_9">
     <g id="line2d_15">
      <g>
       <use style="fill:#a9a9a9;stroke:#a9a9a9;stroke-width:2;" x="97.714286" xlink:href="#mcc7ae7d344" y="122.103187"/>
      </g>
     </g>
    </g>
    <g id="xtick_10">
     <g id="line2d_16">
      <g>
       <use style="fill:#a9a9a9;stroke:#a9a9a9;stroke-width:2;" x="120.489796" xlink:href="#mcc7ae7d344" y="122.103187"/>
      </g>
     </g>
    </g>
   </g>
   <g id="matplotlib.axis_4"/>
   <g id="line2d_17">
    <path clip-path="url(#pe58ea028e3)" d="M 18 120.385652 
L 20.277551 120.598381 
L 22.555102 120.663021 
L 24.832653 120.586798 
L 27.110204 120.413081 
L 29.387755 120.217453 
L 31.665306 120.049287 
L 33.942857 119.769001 
L 36.220408 119.215721 
L 38.497959 118.265174 
L 40.77551 116.831933 
L 43.053061 114.87011 
L 45.330612 112.372794 
L 47.608163 109.370455 
L 49.885714 105.928537 
L 52.163265 102.144423 
L 54.440816 98.143921 
L 56.718367 94.077361 
L 58.995918 90.115152 
L 61.273469 86.442781 
L 63.55102 83.255584 
L 65.828571 80.753632 
L 68.106122 79.137036 
L 70.383673 78.601945 
L 72.661224 79.337391 
L 74.938776 81.51294 
L 77.216327 85.220941 
L 79.493878 90.060546 
L 81.771429 95.585465 
L 84.04898 101.380004 
L 86.326531 107.083127 
L 88.604082 112.397587 
L 90.881633 117.094636 
L 93.159184 121.014847 
L 95.436735 124.065664 
L 97.714286 126.216381 
L 99.991837 127.49122 
L 102.269388 127.961146 
L 104.546939 127.734745 
L 106.82449 126.948626 
L 109.102041 125.757993 
L 111.379592 124.328053 
L 113.657143 122.82675 
L 115.934694 121.419252 
L 118.212245 120.264406 
L 120.489796 119.513243 
L 122.767347 119.256005 
L 125.044898 119.367054 
L 127.322449 119.680706 
L 129.6 120.05623 
" style="fill:none;stroke:#66c2a5;stroke-linecap:square;stroke-width:2;"/>
   </g>
   <g id="patch_8">
    <path d="M 74.938776 128.16 
L 74.938776 77.76 
" style="fill:none;stroke:#a9a9a9;stroke-linecap:square;stroke-linejoin:miter;stroke-width:2;"/>
   </g>
   <g id="patch_9">
    <path d="M 129.6 128.16 
L 129.6 77.76 
" style="fill:none;"/>
   </g>
   <g id="patch_10">
    <path d="M 18 122.103187 
L 129.6 122.103187 
" style="fill:none;stroke:#a9a9a9;stroke-linecap:square;stroke-linejoin:miter;stroke-width:2;"/>
   </g>
   <g id="patch_11">
    <path d="M 18 77.76 
L 129.6 77.76 
" style="fill:none;"/>
   </g>
  </g>
 </g>
 <defs>
  <clipPath id="p25255e2fa8">
   <rect height="50.4" width="111.6" x="18" y="17.28"/>
  </clipPath>
  <clipPath id="pe58ea028e3">
   <rect height="50.4" width="111.6" x="18" y="77.76"/>
  </clipPath>
 </defs>
</svg>
