<?xml version="1.0" encoding="utf-8" standalone="no"?>
<!DOCTYPE svg PUBLIC "-//W3C//DTD SVG 1.1//EN"
  "http://www.w3.org/Graphics/SVG/1.1/DTD/svg11.dtd">
<!-- Created with matplotlib (https://matplotlib.org/) -->
<svg height="144pt" version="1.1" viewBox="0 0 144 144" width="144pt" xmlns="http://www.w3.org/2000/svg" xmlns:xlink="http://www.w3.org/1999/xlink">
 <metadata>
  <rdf:RDF xmlns:cc="http://creativecommons.org/ns#" xmlns:dc="http://purl.org/dc/elements/1.1/" xmlns:rdf="http://www.w3.org/1999/02/22-rdf-syntax-ns#">
   <cc:Work>
    <dc:type rdf:resource="http://purl.org/dc/dcmitype/StillImage"/>
    <dc:date>2021-10-12T18:50:17.370300</dc:date>
    <dc:format>image/svg+xml</dc:format>
    <dc:creator>
     <cc:Agent>
      <dc:title>Matplotlib v3.3.2, https://matplotlib.org/</dc:title>
     </cc:Agent>
    </dc:creator>
   </cc:Work>
  </rdf:RDF>
 </metadata>
 <defs>
  <style type="text/css">*{stroke-linecap:butt;stroke-linejoin:round;}</style>
 </defs>
 <g id="figure_1">
  <g id="patch_1">
   <path d="M 0 144 
L 144 144 
L 144 0 
L 0 0 
z
" style="fill:none;"/>
  </g>
  <g id="axes_1">
   <g id="patch_2">
    <path d="M 18 67.68 
L 129.6 67.68 
L 129.6 17.28 
L 18 17.28 
z
" style="fill:none;"/>
   </g>
   <g id="PolyCollection_1">
    <path clip-path="url(#p93cfa118a3)" d="M 18 67.678696 
L 18 67.678696 
L 20.277551 67.678696 
L 22.555102 67.678696 
L 24.832653 67.678696 
L 27.110204 67.678696 
L 29.387755 67.67802 
L 31.665306 67.622887 
L 33.942857 67.387901 
L 36.220408 66.806175 
L 38.497959 65.769008 
L 40.77551 64.146668 
L 43.053061 61.862819 
L 45.330612 59.029396 
L 47.608163 55.441881 
L 49.885714 51.270183 
L 52.163265 46.669356 
L 54.440816 41.772794 
L 56.718367 36.982821 
L 58.995918 31.940198 
L 61.273469 27.520044 
L 63.55102 23.649597 
L 65.828571 20.409208 
L 68.106122 18.491605 
L 70.383673 17.28 
L 72.661224 17.372421 
L 74.938776 21.215494 
L 77.216327 21.316587 
L 79.493878 24.592494 
L 81.771429 28.247566 
L 84.04898 32.612211 
L 86.326531 36.810164 
L 88.604082 40.977534 
L 90.881633 44.869365 
L 93.159184 48.570236 
L 95.436735 52.154494 
L 97.714286 55.217205 
L 99.991837 57.946124 
L 102.269388 60.485289 
L 104.546939 62.428982 
L 106.82449 64.125828 
L 109.102041 65.446562 
L 111.379592 66.449035 
L 113.657143 67.092341 
L 115.934694 67.479113 
L 118.212245 67.647761 
L 120.489796 67.67865 
L 122.767347 67.678696 
L 125.044898 67.678696 
L 127.322449 67.678696 
L 129.6 67.678696 
L 129.6 67.678696 
L 129.6 67.678696 
L 127.322449 67.678696 
L 125.044898 67.678696 
L 122.767347 67.678696 
L 120.489796 67.678759 
L 118.212245 67.68 
L 115.934694 67.576309 
L 113.657143 67.293945 
L 111.379592 66.69263 
L 109.102041 65.822166 
L 106.82449 64.601236 
L 104.546939 63.085857 
L 102.269388 61.08959 
L 99.991837 58.787739 
L 97.714286 56.192881 
L 95.436735 53.175452 
L 93.159184 49.879339 
L 90.881633 46.326481 
L 88.604082 42.459546 
L 86.326531 38.29434 
L 84.04898 34.403796 
L 81.771429 30.170836 
L 79.493878 26.681525 
L 77.216327 23.251296 
L 74.938776 23.384928 
L 72.661224 19.579999 
L 70.383673 19.356162 
L 68.106122 20.580005 
L 65.828571 22.605206 
L 63.55102 25.661962 
L 61.273469 29.408964 
L 58.995918 33.885831 
L 56.718367 38.534497 
L 54.440816 43.314714 
L 52.163265 47.958271 
L 49.885714 52.561503 
L 47.608163 56.223413 
L 45.330612 59.680525 
L 43.053061 62.507683 
L 40.77551 64.570349 
L 38.497959 66.110796 
L 36.220408 67.005696 
L 33.942857 67.480519 
L 31.665306 67.65878 
L 29.387755 67.679038 
L 27.110204 67.678696 
L 24.832653 67.678696 
L 22.555102 67.678696 
L 20.277551 67.678696 
L 18 67.678696 
z
" style="fill:#fc8d62;fill-opacity:0.2;"/>
   </g>
   <g id="PolyCollection_2">
    <path clip-path="url(#p93cfa118a3)" d="M 18 67.678696 
L 18 67.678696 
L 20.277551 67.678696 
L 22.555102 67.678696 
L 24.832653 67.678696 
L 27.110204 67.678696 
L 29.387755 67.678134 
L 31.665306 67.626066 
L 33.942857 67.397912 
L 36.220408 66.864899 
L 38.497959 65.982076 
L 40.77551 64.561931 
L 43.053061 62.632149 
L 45.330612 60.151299 
L 47.608163 57.165818 
L 49.885714 53.612839 
L 52.163265 49.646338 
L 54.440816 45.194359 
L 56.718367 40.592553 
L 58.995918 35.842725 
L 61.273469 31.256537 
L 63.55102 26.787766 
L 65.828571 22.685125 
L 68.106122 19.457455 
L 70.383673 16.884229 
L 72.661224 14.857546 
L 74.938776 16.56855 
L 77.216327 15.662789 
L 79.493878 17.400985 
L 81.771429 20.259338 
L 84.04898 23.840866 
L 86.326531 27.865193 
L 88.604082 32.417622 
L 90.881633 37.175881 
L 93.159184 41.77712 
L 95.436735 46.295874 
L 97.714286 50.61011 
L 99.991837 54.537147 
L 102.269388 57.932067 
L 104.546939 60.778249 
L 106.82449 63.194202 
L 109.102041 64.979958 
L 111.379592 66.179476 
L 113.657143 67.01954 
L 115.934694 67.478636 
L 118.212245 67.646016 
L 120.489796 67.678673 
L 122.767347 67.678696 
L 125.044898 67.678696 
L 127.322449 67.678696 
L 129.6 67.678696 
L 129.6 67.678696 
L 129.6 67.678696 
L 127.322449 67.678696 
L 125.044898 67.678696 
L 122.767347 67.678696 
L 120.489796 67.678728 
L 118.212245 67.677568 
L 115.934694 67.565566 
L 113.657143 67.211119 
L 111.379592 66.5183 
L 109.102041 65.369221 
L 106.82449 63.669534 
L 104.546939 61.44468 
L 102.269388 58.639506 
L 99.991837 55.417991 
L 97.714286 51.664434 
L 95.436735 47.675488 
L 93.159184 43.060678 
L 90.881633 38.694402 
L 88.604082 33.921119 
L 86.326531 29.791405 
L 84.04898 25.570375 
L 81.771429 22.239618 
L 79.493878 19.280903 
L 77.216327 17.660291 
L 74.938776 18.889594 
L 72.661224 17.323906 
L 70.383673 18.955273 
L 68.106122 21.276186 
L 65.828571 24.677621 
L 63.55102 28.501284 
L 61.273469 32.948258 
L 58.995918 37.359356 
L 56.718367 42.030027 
L 54.440816 46.48152 
L 52.163265 50.66479 
L 49.885714 54.449668 
L 47.608163 57.847436 
L 45.330612 60.900206 
L 43.053061 63.165442 
L 40.77551 64.971847 
L 38.497959 66.238685 
L 36.220408 67.070471 
L 33.942857 67.485335 
L 31.665306 67.665316 
L 29.387755 67.678973 
L 27.110204 67.678696 
L 24.832653 67.678696 
L 22.555102 67.678696 
L 20.277551 67.678696 
L 18 67.678696 
z
" style="fill:#fc8d62;fill-opacity:0.2;"/>
   </g>
   <g id="matplotlib.axis_1">
    <g id="xtick_1">
     <g id="line2d_1">
      <defs>
       <path d="M 0 0 
L 0 3.5 
" id="m2bf9722ea3" style="stroke:#a9a9a9;stroke-width:2;"/>
      </defs>
      <g>
       <use style="fill:#a9a9a9;stroke:#a9a9a9;stroke-width:2;" x="29.387755" xlink:href="#m2bf9722ea3" y="67.678696"/>
      </g>
     </g>
    </g>
    <g id="xtick_2">
     <g id="line2d_2">
      <g>
       <use style="fill:#a9a9a9;stroke:#a9a9a9;stroke-width:2;" x="52.163265" xlink:href="#m2bf9722ea3" y="67.678696"/>
      </g>
     </g>
    </g>
    <g id="xtick_3">
     <g id="line2d_3">
      <g>
       <use style="fill:#a9a9a9;stroke:#a9a9a9;stroke-width:2;" x="74.938776" xlink:href="#m2bf9722ea3" y="67.678696"/>
      </g>
     </g>
    </g>
    <g id="xtick_4">
     <g id="line2d_4">
      <g>
       <use style="fill:#a9a9a9;stroke:#a9a9a9;stroke-width:2;" x="97.714286" xlink:href="#m2bf9722ea3" y="67.678696"/>
      </g>
     </g>
    </g>
    <g id="xtick_5">
     <g id="line2d_5">
      <g>
       <use style="fill:#a9a9a9;stroke:#a9a9a9;stroke-width:2;" x="120.489796" xlink:href="#m2bf9722ea3" y="67.678696"/>
      </g>
     </g>
    </g>
   </g>
   <g id="matplotlib.axis_2"/>
   <g id="line2d_6">
    <path clip-path="url(#p93cfa118a3)" d="M 18 67.678696 
L 20.277551 67.678696 
L 22.555102 67.678696 
L 24.832653 67.678696 
L 27.110204 67.678696 
L 29.387755 67.678529 
L 31.665306 67.640833 
L 33.942857 67.43421 
L 36.220408 66.905935 
L 38.497959 65.939902 
L 40.77551 64.358508 
L 43.053061 62.185251 
L 45.330612 59.354961 
L 47.608163 55.832647 
L 49.885714 51.915843 
L 52.163265 47.313813 
L 54.440816 42.543754 
L 56.718367 37.758659 
L 58.995918 32.913015 
L 61.273469 28.464504 
L 63.55102 24.65578 
L 65.828571 21.507207 
L 68.106122 19.535805 
L 70.383673 18.318081 
L 72.661224 18.47621 
L 74.938776 22.300211 
L 77.216327 22.283942 
L 79.493878 25.637009 
L 81.771429 29.209201 
L 84.04898 33.508004 
L 86.326531 37.552252 
L 88.604082 41.71854 
L 90.881633 45.597923 
L 93.159184 49.224787 
L 95.436735 52.664973 
L 97.714286 55.705043 
L 99.991837 58.366931 
L 102.269388 60.78744 
L 104.546939 62.75742 
L 106.82449 64.363532 
L 109.102041 65.634364 
L 111.379592 66.570832 
L 113.657143 67.193143 
L 115.934694 67.527711 
L 118.212245 67.663881 
L 120.489796 67.678704 
L 122.767347 67.678696 
L 125.044898 67.678696 
L 127.322449 67.678696 
L 129.6 67.678696 
" style="fill:none;stroke:#fc8d62;stroke-linecap:square;stroke-width:2;"/>
   </g>
   <g id="line2d_7">
    <path clip-path="url(#p93cfa118a3)" d="M 18 67.678696 
L 20.277551 67.678696 
L 22.555102 67.678696 
L 24.832653 67.678696 
L 27.110204 67.678696 
L 29.387755 67.678554 
L 31.665306 67.645691 
L 33.942857 67.441623 
L 36.220408 66.967685 
L 38.497959 66.11038 
L 40.77551 64.766889 
L 43.053061 62.898795 
L 45.330612 60.525752 
L 47.608163 57.506627 
L 49.885714 54.031254 
L 52.163265 50.155564 
L 54.440816 45.83794 
L 56.718367 41.31129 
L 58.995918 36.601041 
L 61.273469 32.102398 
L 63.55102 27.644525 
L 65.828571 23.681373 
L 68.106122 20.366821 
L 70.383673 17.919751 
L 72.661224 16.090726 
L 74.938776 17.729072 
L 77.216327 16.66154 
L 79.493878 18.340944 
L 81.771429 21.249478 
L 84.04898 24.705621 
L 86.326531 28.828299 
L 88.604082 33.169371 
L 90.881633 37.935142 
L 93.159184 42.418899 
L 95.436735 46.985681 
L 97.714286 51.137272 
L 99.991837 54.977569 
L 102.269388 58.285787 
L 104.546939 61.111465 
L 106.82449 63.431868 
L 109.102041 65.17459 
L 111.379592 66.348888 
L 113.657143 67.11533 
L 115.934694 67.522101 
L 118.212245 67.661792 
L 120.489796 67.6787 
L 122.767347 67.678696 
L 125.044898 67.678696 
L 127.322449 67.678696 
L 129.6 67.678696 
" style="fill:none;stroke:#fc8d62;stroke-dasharray:1.5,1.5;stroke-dashoffset:0;stroke-opacity:0.7;stroke-width:1.5;"/>
   </g>
   <g id="patch_3">
    <path d="M 74.938776 67.68 
L 74.938776 17.28 
" style="fill:none;stroke:#a9a9a9;stroke-linecap:square;stroke-linejoin:miter;stroke-width:2;"/>
   </g>
   <g id="patch_4">
    <path d="M 129.6 67.68 
L 129.6 17.28 
" style="fill:none;"/>
   </g>
   <g id="patch_5">
    <path d="M 18 67.678696 
L 129.6 67.678696 
" style="fill:none;stroke:#a9a9a9;stroke-linecap:square;stroke-linejoin:miter;stroke-width:2;"/>
   </g>
   <g id="patch_6">
    <path d="M 18 17.28 
L 129.6 17.28 
" style="fill:none;"/>
   </g>
   <g id="legend_1">
    <g id="line2d_8">
     <path d="M 87.67 26.448906 
L 101.67 26.448906 
" style="fill:none;stroke:#fc8d62;stroke-linecap:square;stroke-width:2;"/>
    </g>
    <g id="line2d_9"/>
    <g id="text_1">
     <!-- $\theta$ -->
     <g transform="translate(107.27 28.898906)scale(0.07 -0.07)">
      <defs>
       <path d="M 45.515625 34.671875 
L 14.453125 34.671875 
Q 12.359375 20.0625 14.5 13.875 
Q 17.1875 6.25 24.46875 6.25 
Q 31.78125 6.25 37.359375 13.921875 
Q 42.234375 20.65625 45.515625 34.671875 
z
M 47.015625 42.96875 
Q 48.34375 56.84375 46.625 61.71875 
Q 43.953125 69.4375 36.765625 69.4375 
Q 29.296875 69.4375 23.828125 61.8125 
Q 19.53125 55.671875 16.15625 42.96875 
z
M 38.1875 76.765625 
Q 49.90625 76.765625 54.59375 66.40625 
Q 59.28125 56.109375 55.71875 37.84375 
Q 52.203125 19.625 43.453125 9.28125 
Q 34.765625 -1.125 23.046875 -1.125 
Q 11.28125 -1.125 6.640625 9.28125 
Q 2 19.625 5.515625 37.84375 
Q 9.078125 56.109375 17.71875 66.40625 
Q 26.421875 76.765625 38.1875 76.765625 
z
" id="DejaVuSans-Oblique-952"/>
      </defs>
      <use transform="translate(0 0.234375)" xlink:href="#DejaVuSans-Oblique-952"/>
     </g>
    </g>
    <g id="line2d_10">
     <path d="M 87.67 36.723594 
L 101.67 36.723594 
" style="fill:none;stroke:#fc8d62;stroke-dasharray:1.5,1.5;stroke-dashoffset:0;stroke-opacity:0.7;stroke-width:1.5;"/>
    </g>
    <g id="line2d_11"/>
    <g id="text_2">
     <!-- No $\theta$ -->
     <g transform="translate(107.27 39.173594)scale(0.07 -0.07)">
      <defs>
       <path d="M 9.8125 72.90625 
L 23.09375 72.90625 
L 55.421875 11.921875 
L 55.421875 72.90625 
L 64.984375 72.90625 
L 64.984375 0 
L 51.703125 0 
L 19.390625 60.984375 
L 19.390625 0 
L 9.8125 0 
z
" id="DejaVuSans-78"/>
       <path d="M 30.609375 48.390625 
Q 23.390625 48.390625 19.1875 42.75 
Q 14.984375 37.109375 14.984375 27.296875 
Q 14.984375 17.484375 19.15625 11.84375 
Q 23.34375 6.203125 30.609375 6.203125 
Q 37.796875 6.203125 41.984375 11.859375 
Q 46.1875 17.53125 46.1875 27.296875 
Q 46.1875 37.015625 41.984375 42.703125 
Q 37.796875 48.390625 30.609375 48.390625 
z
M 30.609375 56 
Q 42.328125 56 49.015625 48.375 
Q 55.71875 40.765625 55.71875 27.296875 
Q 55.71875 13.875 49.015625 6.21875 
Q 42.328125 -1.421875 30.609375 -1.421875 
Q 18.84375 -1.421875 12.171875 6.21875 
Q 5.515625 13.875 5.515625 27.296875 
Q 5.515625 40.765625 12.171875 48.375 
Q 18.84375 56 30.609375 56 
z
" id="DejaVuSans-111"/>
       <path id="DejaVuSans-32"/>
      </defs>
      <use transform="translate(0 0.234375)" xlink:href="#DejaVuSans-78"/>
      <use transform="translate(74.804688 0.234375)" xlink:href="#DejaVuSans-111"/>
      <use transform="translate(135.986328 0.234375)" xlink:href="#DejaVuSans-32"/>
      <use transform="translate(167.773438 0.234375)" xlink:href="#DejaVuSans-Oblique-952"/>
     </g>
    </g>
   </g>
  </g>
  <g id="axes_2">
   <g id="patch_7">
    <path d="M 18 128.16 
L 129.6 128.16 
L 129.6 77.76 
L 18 77.76 
z
" style="fill:none;"/>
   </g>
   <g id="PolyCollection_3">
    <path clip-path="url(#paeba552f42)" d="M 18 120.514482 
L 18 120.439789 
L 20.277551 120.657151 
L 22.555102 120.717839 
L 24.832653 120.630756 
L 27.110204 120.445412 
L 29.387755 120.240722 
L 31.665306 120.066127 
L 33.942857 119.780815 
L 36.220408 119.222163 
L 38.497959 118.262788 
L 40.77551 116.811724 
L 43.053061 114.818 
L 45.330612 112.273078 
L 47.608163 109.2086 
L 49.885714 105.692434 
L 52.163265 101.825229 
L 54.440816 97.736672 
L 56.718367 93.581152 
L 58.995918 89.533175 
L 61.273469 85.782166 
L 63.55102 82.52703 
L 65.828571 79.970823 
L 68.106122 78.315938 
L 70.383673 77.76 
L 72.661224 78.492638 
L 74.938776 80.682911 
L 77.216327 84.421927 
L 79.493878 89.307073 
L 81.771429 94.889797 
L 84.04898 100.751325 
L 86.326531 106.526891 
L 88.604082 111.914848 
L 90.881633 116.681454 
L 93.159184 120.662025 
L 95.436735 123.76011 
L 97.714286 125.944611 
L 99.991837 127.244242 
L 102.269388 127.736743 
L 104.546939 127.536177 
L 106.82449 126.781764 
L 109.102041 125.628597 
L 111.379592 124.23966 
L 113.657143 122.778926 
L 115.934694 121.406145 
L 118.212245 120.274813 
L 120.489796 119.535015 
L 122.767347 119.282864 
L 125.044898 119.398577 
L 127.322449 119.718631 
L 129.6 120.102212 
L 129.6 120.202529 
L 129.6 120.202529 
L 127.322449 119.843679 
L 125.044898 119.542847 
L 122.767347 119.438979 
L 120.489796 119.698136 
L 118.212245 120.450063 
L 115.934694 121.610671 
L 113.657143 123.02853 
L 111.379592 124.540315 
L 109.102041 125.976641 
L 106.82449 127.167091 
L 104.546939 127.946004 
L 102.269388 128.16 
L 99.991837 127.677107 
L 97.714286 126.396196 
L 95.436735 124.254896 
L 93.159184 121.234999 
L 90.881633 117.367927 
L 88.604082 112.742915 
L 86.326531 107.514106 
L 84.04898 101.904561 
L 81.771429 96.205746 
L 79.493878 90.772935 
L 77.216327 86.016097 
L 74.938776 82.375833 
L 72.661224 80.248587 
L 70.383673 79.539865 
L 68.106122 80.079776 
L 65.828571 81.679755 
L 63.55102 84.145026 
L 61.273469 87.277728 
L 58.995918 90.880846 
L 56.718367 94.762809 
L 54.440816 98.742404 
L 52.163265 102.653798 
L 49.885714 106.351315 
L 47.608163 109.713724 
L 45.330612 112.647666 
L 43.053061 115.090891 
L 40.77551 117.014823 
L 38.497959 118.425375 
L 36.220408 119.3638 
L 33.942857 119.910222 
L 31.665306 120.185756 
L 29.387755 120.349164 
L 27.110204 120.538074 
L 24.832653 120.703955 
L 22.555102 120.774942 
L 20.277551 120.713782 
L 18 120.514482 
z
" style="fill:#66c2a5;fill-opacity:0.2;"/>
   </g>
   <g id="matplotlib.axis_3">
    <g id="xtick_6">
     <g id="line2d_12">
      <g>
       <use style="fill:#a9a9a9;stroke:#a9a9a9;stroke-width:2;" x="29.387755" xlink:href="#m2bf9722ea3" y="122.168338"/>
      </g>
     </g>
    </g>
    <g id="xtick_7">
     <g id="line2d_13">
      <g>
       <use style="fill:#a9a9a9;stroke:#a9a9a9;stroke-width:2;" x="52.163265" xlink:href="#m2bf9722ea3" y="122.168338"/>
      </g>
     </g>
    </g>
    <g id="xtick_8">
     <g id="line2d_14">
      <g>
       <use style="fill:#a9a9a9;stroke:#a9a9a9;stroke-width:2;" x="74.938776" xlink:href="#m2bf9722ea3" y="122.168338"/>
      </g>
     </g>
    </g>
    <g id="xtick_9">
     <g id="line2d_15">
      <g>
       <use style="fill:#a9a9a9;stroke:#a9a9a9;stroke-width:2;" x="97.714286" xlink:href="#m2bf9722ea3" y="122.168338"/>
      </g>
     </g>
    </g>
    <g id="xtick_10">
     <g id="line2d_16">
      <g>
       <use style="fill:#a9a9a9;stroke:#a9a9a9;stroke-width:2;" x="120.489796" xlink:href="#m2bf9722ea3" y="122.168338"/>
      </g>
     </g>
    </g>
   </g>
   <g id="matplotlib.axis_4"/>
   <g id="line2d_17">
    <path clip-path="url(#paeba552f42)" d="M 18 120.477136 
L 20.277551 120.685467 
L 22.555102 120.746391 
L 24.832653 120.667355 
L 27.110204 120.491743 
L 29.387755 120.294943 
L 31.665306 120.125942 
L 33.942857 119.845519 
L 36.220408 119.292981 
L 38.497959 118.344081 
L 40.77551 116.913274 
L 43.053061 114.954445 
L 45.330612 112.460372 
L 47.608163 109.461162 
L 49.885714 106.021874 
L 52.163265 102.239514 
L 54.440816 98.239538 
L 56.718367 94.171981 
L 58.995918 90.20701 
L 61.273469 86.529947 
L 63.55102 83.336028 
L 65.828571 80.825289 
L 68.106122 79.197857 
L 70.383673 78.649933 
L 72.661224 79.370613 
L 74.938776 81.529372 
L 77.216327 85.219012 
L 79.493878 90.040004 
L 81.771429 95.547772 
L 84.04898 101.327943 
L 86.326531 107.020499 
L 88.604082 112.328882 
L 90.881633 117.024691 
L 93.159184 120.948512 
L 95.436735 124.007503 
L 97.714286 126.170404 
L 99.991837 127.460674 
L 102.269388 127.948371 
L 104.546939 127.74109 
L 106.82449 126.974427 
L 109.102041 125.802619 
L 111.379592 124.389988 
L 113.657143 122.903728 
L 115.934694 121.508408 
L 118.212245 120.362438 
L 120.489796 119.616576 
L 122.767347 119.360922 
L 125.044898 119.470712 
L 127.322449 119.781155 
L 129.6 120.15237 
" style="fill:none;stroke:#66c2a5;stroke-linecap:square;stroke-width:2;"/>
   </g>
   <g id="patch_8">
    <path d="M 74.938776 128.16 
L 74.938776 77.76 
" style="fill:none;stroke:#a9a9a9;stroke-linecap:square;stroke-linejoin:miter;stroke-width:2;"/>
   </g>
   <g id="patch_9">
    <path d="M 129.6 128.16 
L 129.6 77.76 
" style="fill:none;"/>
   </g>
   <g id="patch_10">
    <path d="M 18 122.168338 
L 129.6 122.168338 
" style="fill:none;stroke:#a9a9a9;stroke-linecap:square;stroke-linejoin:miter;stroke-width:2;"/>
   </g>
   <g id="patch_11">
    <path d="M 18 77.76 
L 129.6 77.76 
" style="fill:none;"/>
   </g>
  </g>
 </g>
 <defs>
  <clipPath id="p93cfa118a3">
   <rect height="50.4" width="111.6" x="18" y="17.28"/>
  </clipPath>
  <clipPath id="paeba552f42">
   <rect height="50.4" width="111.6" x="18" y="77.76"/>
  </clipPath>
 </defs>
</svg>
