<?xml version="1.0" encoding="utf-8" standalone="no"?>
<!DOCTYPE svg PUBLIC "-//W3C//DTD SVG 1.1//EN"
  "http://www.w3.org/Graphics/SVG/1.1/DTD/svg11.dtd">
<!-- Created with matplotlib (https://matplotlib.org/) -->
<svg height="144pt" version="1.1" viewBox="0 0 144 144" width="144pt" xmlns="http://www.w3.org/2000/svg" xmlns:xlink="http://www.w3.org/1999/xlink">
 <metadata>
  <rdf:RDF xmlns:cc="http://creativecommons.org/ns#" xmlns:dc="http://purl.org/dc/elements/1.1/" xmlns:rdf="http://www.w3.org/1999/02/22-rdf-syntax-ns#">
   <cc:Work>
    <dc:type rdf:resource="http://purl.org/dc/dcmitype/StillImage"/>
    <dc:date>2021-10-13T00:12:40.816322</dc:date>
    <dc:format>image/svg+xml</dc:format>
    <dc:creator>
     <cc:Agent>
      <dc:title>Matplotlib v3.3.2, https://matplotlib.org/</dc:title>
     </cc:Agent>
    </dc:creator>
   </cc:Work>
  </rdf:RDF>
 </metadata>
 <defs>
  <style type="text/css">*{stroke-linecap:butt;stroke-linejoin:round;}</style>
 </defs>
 <g id="figure_1">
  <g id="patch_1">
   <path d="M 0 144 
L 144 144 
L 144 0 
L 0 0 
z
" style="fill:none;"/>
  </g>
  <g id="axes_1">
   <g id="patch_2">
    <path d="M 18 67.68 
L 129.6 67.68 
L 129.6 17.28 
L 18 17.28 
z
" style="fill:none;"/>
   </g>
   <g id="PolyCollection_1">
    <path clip-path="url(#pa97b498fae)" d="M 18 67.647183 
L 18 67.647183 
L 20.277551 67.647183 
L 22.555102 67.647183 
L 24.832653 67.647183 
L 27.110204 67.647183 
L 29.387755 67.647105 
L 31.665306 67.596316 
L 33.942857 67.366755 
L 36.220408 66.738506 
L 38.497959 65.896437 
L 40.77551 64.661959 
L 43.053061 62.758484 
L 45.330612 60.096028 
L 47.608163 56.473346 
L 49.885714 52.889932 
L 52.163265 48.212735 
L 54.440816 43.934167 
L 56.718367 39.074954 
L 58.995918 33.629159 
L 61.273469 29.310221 
L 63.55102 25.062835 
L 65.828571 20.937235 
L 68.106122 18.902229 
L 70.383673 17.28 
L 72.661224 17.5162 
L 74.938776 25.057591 
L 77.216327 19.84567 
L 79.493878 22.782057 
L 81.771429 26.888787 
L 84.04898 31.02551 
L 86.326531 34.931173 
L 88.604082 39.51954 
L 90.881633 43.859398 
L 93.159184 48.0104 
L 95.436735 52.073486 
L 97.714286 55.396629 
L 99.991837 57.946234 
L 102.269388 60.495429 
L 104.546939 62.602891 
L 106.82449 64.189432 
L 109.102041 65.33642 
L 111.379592 66.462492 
L 113.657143 67.017109 
L 115.934694 67.412822 
L 118.212245 67.588748 
L 120.489796 67.647176 
L 122.767347 67.647183 
L 125.044898 67.647183 
L 127.322449 67.647183 
L 129.6 67.647183 
L 129.6 67.647183 
L 129.6 67.647183 
L 127.322449 67.647183 
L 125.044898 67.647183 
L 122.767347 67.647183 
L 120.489796 67.647199 
L 118.212245 67.68 
L 115.934694 67.654439 
L 113.657143 67.462768 
L 111.379592 67.054486 
L 109.102041 66.358851 
L 106.82449 65.361562 
L 104.546939 64.207394 
L 102.269388 62.418996 
L 99.991837 60.323768 
L 97.714286 57.591048 
L 95.436735 54.681116 
L 93.159184 51.244188 
L 90.881633 47.526252 
L 88.604082 43.542485 
L 86.326531 39.265117 
L 84.04898 35.683515 
L 81.771429 30.572935 
L 79.493878 27.836764 
L 77.216327 24.765117 
L 74.938776 29.943951 
L 72.661224 22.459484 
L 70.383673 22.792005 
L 68.106122 24.24984 
L 65.828571 26.704225 
L 63.55102 29.874419 
L 61.273469 33.827007 
L 58.995918 38.260747 
L 56.718367 42.983021 
L 54.440816 47.291011 
L 52.163265 51.880533 
L 49.885714 55.548612 
L 47.608163 58.816797 
L 45.330612 61.596717 
L 43.053061 64.071553 
L 40.77551 65.586528 
L 38.497959 66.652565 
L 36.220408 67.286833 
L 33.942857 67.590058 
L 31.665306 67.662709 
L 29.387755 67.647219 
L 27.110204 67.647183 
L 24.832653 67.647183 
L 22.555102 67.647183 
L 20.277551 67.647183 
L 18 67.647183 
z
" style="fill:#fc8d62;fill-opacity:0.2;"/>
   </g>
   <g id="PolyCollection_2">
    <path clip-path="url(#pa97b498fae)" d="M 18 67.647183 
L 18 67.647183 
L 20.277551 67.647183 
L 22.555102 67.647183 
L 24.832653 67.647183 
L 27.110204 67.647183 
L 29.387755 67.647154 
L 31.665306 67.531729 
L 33.942857 67.384601 
L 36.220408 66.871837 
L 38.497959 65.903112 
L 40.77551 64.822864 
L 43.053061 63.043159 
L 45.330612 60.960623 
L 47.608163 58.119764 
L 49.885714 54.713049 
L 52.163265 51.192316 
L 54.440816 47.376274 
L 56.718367 43.026162 
L 58.995918 38.688913 
L 61.273469 34.835544 
L 63.55102 31.139429 
L 65.828571 27.481804 
L 68.106122 23.830847 
L 70.383673 21.298342 
L 72.661224 20.575611 
L 74.938776 25.061667 
L 77.216327 20.62057 
L 79.493878 22.516674 
L 81.771429 24.427433 
L 84.04898 27.574241 
L 86.326531 31.25637 
L 88.604082 35.860544 
L 90.881633 40.572377 
L 93.159184 43.983933 
L 95.436735 48.252698 
L 97.714286 52.421966 
L 99.991837 55.741981 
L 102.269388 58.744861 
L 104.546939 61.184893 
L 106.82449 63.482213 
L 109.102041 64.951942 
L 111.379592 66.202137 
L 113.657143 66.927172 
L 115.934694 67.391017 
L 118.212245 67.618885 
L 120.489796 67.64718 
L 122.767347 67.647183 
L 125.044898 67.647183 
L 127.322449 67.647183 
L 129.6 67.647183 
L 129.6 67.647183 
L 129.6 67.647183 
L 127.322449 67.647183 
L 125.044898 67.647183 
L 122.767347 67.647183 
L 120.489796 67.647189 
L 118.212245 67.672383 
L 115.934694 67.619761 
L 113.657143 67.409222 
L 111.379592 66.962766 
L 109.102041 66.030848 
L 106.82449 64.663483 
L 104.546939 62.777312 
L 102.269388 60.933656 
L 99.991837 57.893033 
L 97.714286 54.69438 
L 95.436735 51.194704 
L 93.159184 47.243317 
L 90.881633 43.7364 
L 88.604082 39.678361 
L 86.326531 35.955841 
L 84.04898 32.61262 
L 81.771429 29.289389 
L 79.493878 26.973532 
L 77.216327 25.251907 
L 74.938776 29.43082 
L 72.661224 25.270113 
L 70.383673 26.765882 
L 68.106122 28.387797 
L 65.828571 31.894126 
L 63.55102 35.188624 
L 61.273469 39.191006 
L 58.995918 42.31203 
L 56.718367 46.412643 
L 54.440816 50.28255 
L 52.163265 54.086614 
L 49.885714 57.499053 
L 47.608163 59.983115 
L 45.330612 62.661217 
L 43.053061 64.273541 
L 40.77551 65.836049 
L 38.497959 66.79782 
L 36.220408 67.418853 
L 33.942857 67.625123 
L 31.665306 67.685831 
L 29.387755 67.647202 
L 27.110204 67.647183 
L 24.832653 67.647183 
L 22.555102 67.647183 
L 20.277551 67.647183 
L 18 67.647183 
z
" style="fill:#fc8d62;fill-opacity:0.2;"/>
   </g>
   <g id="matplotlib.axis_1">
    <g id="xtick_1">
     <g id="line2d_1">
      <defs>
       <path d="M 0 0 
L 0 3.5 
" id="m021abc5259" style="stroke:#a9a9a9;stroke-width:2;"/>
      </defs>
      <g>
       <use style="fill:#a9a9a9;stroke:#a9a9a9;stroke-width:2;" x="29.387755" xlink:href="#m021abc5259" y="67.647183"/>
      </g>
     </g>
    </g>
    <g id="xtick_2">
     <g id="line2d_2">
      <g>
       <use style="fill:#a9a9a9;stroke:#a9a9a9;stroke-width:2;" x="52.163265" xlink:href="#m021abc5259" y="67.647183"/>
      </g>
     </g>
    </g>
    <g id="xtick_3">
     <g id="line2d_3">
      <g>
       <use style="fill:#a9a9a9;stroke:#a9a9a9;stroke-width:2;" x="74.938776" xlink:href="#m021abc5259" y="67.647183"/>
      </g>
     </g>
    </g>
    <g id="xtick_4">
     <g id="line2d_4">
      <g>
       <use style="fill:#a9a9a9;stroke:#a9a9a9;stroke-width:2;" x="97.714286" xlink:href="#m021abc5259" y="67.647183"/>
      </g>
     </g>
    </g>
    <g id="xtick_5">
     <g id="line2d_5">
      <g>
       <use style="fill:#a9a9a9;stroke:#a9a9a9;stroke-width:2;" x="120.489796" xlink:href="#m021abc5259" y="67.647183"/>
      </g>
     </g>
    </g>
   </g>
   <g id="matplotlib.axis_2"/>
   <g id="line2d_6">
    <path clip-path="url(#pa97b498fae)" d="M 18 67.647183 
L 20.277551 67.647183 
L 22.555102 67.647183 
L 24.832653 67.647183 
L 27.110204 67.647183 
L 29.387755 67.647162 
L 31.665306 67.629512 
L 33.942857 67.478406 
L 36.220408 67.012669 
L 38.497959 66.274501 
L 40.77551 65.124244 
L 43.053061 63.415019 
L 45.330612 60.846372 
L 47.608163 57.645072 
L 49.885714 54.219272 
L 52.163265 50.046634 
L 54.440816 45.612589 
L 56.718367 41.028987 
L 58.995918 35.944953 
L 61.273469 31.568614 
L 63.55102 27.468627 
L 65.828571 23.82073 
L 68.106122 21.576035 
L 70.383673 20.036002 
L 72.661224 19.987842 
L 74.938776 27.500771 
L 77.216327 22.305393 
L 79.493878 25.309411 
L 81.771429 28.730861 
L 84.04898 33.354513 
L 86.326531 37.098145 
L 88.604082 41.531012 
L 90.881633 45.692825 
L 93.159184 49.627294 
L 95.436735 53.377301 
L 97.714286 56.493838 
L 99.991837 59.135001 
L 102.269388 61.457213 
L 104.546939 63.405143 
L 106.82449 64.775497 
L 109.102041 65.847635 
L 111.379592 66.758489 
L 113.657143 67.239939 
L 115.934694 67.533631 
L 118.212245 67.634374 
L 120.489796 67.647188 
L 122.767347 67.647183 
L 125.044898 67.647183 
L 127.322449 67.647183 
L 129.6 67.647183 
" style="fill:none;stroke:#fc8d62;stroke-linecap:square;stroke-width:2;"/>
   </g>
   <g id="line2d_7">
    <path clip-path="url(#pa97b498fae)" d="M 18 67.647183 
L 20.277551 67.647183 
L 22.555102 67.647183 
L 24.832653 67.647183 
L 27.110204 67.647183 
L 29.387755 67.647178 
L 31.665306 67.60878 
L 33.942857 67.504862 
L 36.220408 67.145345 
L 38.497959 66.350466 
L 40.77551 65.329456 
L 43.053061 63.65835 
L 45.330612 61.81092 
L 47.608163 59.051439 
L 49.885714 56.106051 
L 52.163265 52.639465 
L 54.440816 48.829412 
L 56.718367 44.719403 
L 58.995918 40.500471 
L 61.273469 37.013275 
L 63.55102 33.164026 
L 65.828571 29.687965 
L 68.106122 26.109322 
L 70.383673 24.032112 
L 72.661224 22.922862 
L 74.938776 27.246243 
L 77.216327 22.936238 
L 79.493878 24.745103 
L 81.771429 26.858411 
L 84.04898 30.09343 
L 86.326531 33.606106 
L 88.604082 37.769453 
L 90.881633 42.154389 
L 93.159184 45.613625 
L 95.436735 49.723701 
L 97.714286 53.558173 
L 99.991837 56.817507 
L 102.269388 59.839258 
L 104.546939 61.981103 
L 106.82449 64.072848 
L 109.102041 65.491395 
L 111.379592 66.582451 
L 113.657143 67.168197 
L 115.934694 67.505389 
L 118.212245 67.645634 
L 120.489796 67.647185 
L 122.767347 67.647183 
L 125.044898 67.647183 
L 127.322449 67.647183 
L 129.6 67.647183 
" style="fill:none;stroke:#fc8d62;stroke-dasharray:1.5,1.5;stroke-dashoffset:0;stroke-opacity:0.7;stroke-width:1.5;"/>
   </g>
   <g id="patch_3">
    <path d="M 74.938776 67.68 
L 74.938776 17.28 
" style="fill:none;stroke:#a9a9a9;stroke-linecap:square;stroke-linejoin:miter;stroke-width:2;"/>
   </g>
   <g id="patch_4">
    <path d="M 129.6 67.68 
L 129.6 17.28 
" style="fill:none;"/>
   </g>
   <g id="patch_5">
    <path d="M 18 67.647183 
L 129.6 67.647183 
" style="fill:none;stroke:#a9a9a9;stroke-linecap:square;stroke-linejoin:miter;stroke-width:2;"/>
   </g>
   <g id="patch_6">
    <path d="M 18 17.28 
L 129.6 17.28 
" style="fill:none;"/>
   </g>
   <g id="legend_1">
    <g id="line2d_8">
     <path d="M 87.67 26.448906 
L 101.67 26.448906 
" style="fill:none;stroke:#fc8d62;stroke-linecap:square;stroke-width:2;"/>
    </g>
    <g id="line2d_9"/>
    <g id="text_1">
     <!-- $\theta$ -->
     <g transform="translate(107.27 28.898906)scale(0.07 -0.07)">
      <defs>
       <path d="M 45.515625 34.671875 
L 14.453125 34.671875 
Q 12.359375 20.0625 14.5 13.875 
Q 17.1875 6.25 24.46875 6.25 
Q 31.78125 6.25 37.359375 13.921875 
Q 42.234375 20.65625 45.515625 34.671875 
z
M 47.015625 42.96875 
Q 48.34375 56.84375 46.625 61.71875 
Q 43.953125 69.4375 36.765625 69.4375 
Q 29.296875 69.4375 23.828125 61.8125 
Q 19.53125 55.671875 16.15625 42.96875 
z
M 38.1875 76.765625 
Q 49.90625 76.765625 54.59375 66.40625 
Q 59.28125 56.109375 55.71875 37.84375 
Q 52.203125 19.625 43.453125 9.28125 
Q 34.765625 -1.125 23.046875 -1.125 
Q 11.28125 -1.125 6.640625 9.28125 
Q 2 19.625 5.515625 37.84375 
Q 9.078125 56.109375 17.71875 66.40625 
Q 26.421875 76.765625 38.1875 76.765625 
z
" id="DejaVuSans-Oblique-952"/>
      </defs>
      <use transform="translate(0 0.234375)" xlink:href="#DejaVuSans-Oblique-952"/>
     </g>
    </g>
    <g id="line2d_10">
     <path d="M 87.67 36.723594 
L 101.67 36.723594 
" style="fill:none;stroke:#fc8d62;stroke-dasharray:1.5,1.5;stroke-dashoffset:0;stroke-opacity:0.7;stroke-width:1.5;"/>
    </g>
    <g id="line2d_11"/>
    <g id="text_2">
     <!-- No $\theta$ -->
     <g transform="translate(107.27 39.173594)scale(0.07 -0.07)">
      <defs>
       <path d="M 9.8125 72.90625 
L 23.09375 72.90625 
L 55.421875 11.921875 
L 55.421875 72.90625 
L 64.984375 72.90625 
L 64.984375 0 
L 51.703125 0 
L 19.390625 60.984375 
L 19.390625 0 
L 9.8125 0 
z
" id="DejaVuSans-78"/>
       <path d="M 30.609375 48.390625 
Q 23.390625 48.390625 19.1875 42.75 
Q 14.984375 37.109375 14.984375 27.296875 
Q 14.984375 17.484375 19.15625 11.84375 
Q 23.34375 6.203125 30.609375 6.203125 
Q 37.796875 6.203125 41.984375 11.859375 
Q 46.1875 17.53125 46.1875 27.296875 
Q 46.1875 37.015625 41.984375 42.703125 
Q 37.796875 48.390625 30.609375 48.390625 
z
M 30.609375 56 
Q 42.328125 56 49.015625 48.375 
Q 55.71875 40.765625 55.71875 27.296875 
Q 55.71875 13.875 49.015625 6.21875 
Q 42.328125 -1.421875 30.609375 -1.421875 
Q 18.84375 -1.421875 12.171875 6.21875 
Q 5.515625 13.875 5.515625 27.296875 
Q 5.515625 40.765625 12.171875 48.375 
Q 18.84375 56 30.609375 56 
z
" id="DejaVuSans-111"/>
       <path id="DejaVuSans-32"/>
      </defs>
      <use transform="translate(0 0.234375)" xlink:href="#DejaVuSans-78"/>
      <use transform="translate(74.804688 0.234375)" xlink:href="#DejaVuSans-111"/>
      <use transform="translate(135.986328 0.234375)" xlink:href="#DejaVuSans-32"/>
      <use transform="translate(167.773438 0.234375)" xlink:href="#DejaVuSans-Oblique-952"/>
     </g>
    </g>
   </g>
  </g>
  <g id="axes_2">
   <g id="patch_7">
    <path d="M 18 128.16 
L 129.6 128.16 
L 129.6 77.76 
L 18 77.76 
z
" style="fill:none;"/>
   </g>
   <g id="PolyCollection_3">
    <path clip-path="url(#p4769f82586)" d="M 18 120.525524 
L 18 120.449732 
L 20.277551 120.664526 
L 22.555102 120.727696 
L 24.832653 120.647133 
L 27.110204 120.470345 
L 29.387755 120.273706 
L 31.665306 120.10508 
L 33.942857 119.824062 
L 36.220408 119.269286 
L 38.497959 118.313699 
L 40.77551 116.865683 
L 43.053061 114.873576 
L 45.330612 112.328781 
L 47.608163 109.263314 
L 49.885714 105.745337 
L 52.163265 101.875657 
L 54.440816 97.783862 
L 56.718367 93.624347 
L 58.995918 89.571621 
L 61.273469 85.815097 
L 63.55102 82.55361 
L 65.828571 79.990069 
L 68.106122 78.326529 
L 70.383673 77.76 
L 72.661224 78.479115 
L 74.938776 80.652214 
L 77.216327 84.367632 
L 79.493878 89.228733 
L 81.771429 94.790412 
L 84.04898 100.636891 
L 86.326531 106.40516 
L 88.604082 111.794153 
L 90.881633 116.569678 
L 93.159184 120.565918 
L 95.436735 123.684828 
L 97.714286 125.894009 
L 99.991837 127.220839 
L 102.269388 127.741488 
L 104.546939 127.567967 
L 106.82449 126.837655 
L 109.102041 125.704176 
L 111.379592 124.329477 
L 113.657143 122.876797 
L 115.934694 121.505368 
L 118.212245 120.368468 
L 120.489796 119.616717 
L 122.767347 119.347933 
L 125.044898 119.445641 
L 127.322449 119.749245 
L 129.6 120.12003 
L 129.6 120.221679 
L 129.6 120.221679 
L 127.322449 119.876045 
L 125.044898 119.591899 
L 122.767347 119.505502 
L 120.489796 119.779362 
L 118.212245 120.54007 
L 115.934694 121.703972 
L 113.657143 123.119976 
L 111.379592 124.624408 
L 109.102041 126.047593 
L 106.82449 127.219213 
L 104.546939 127.974162 
L 102.269388 128.16 
L 99.991837 127.646101 
L 97.714286 126.333114 
L 95.436735 124.161333 
L 93.159184 121.115553 
L 90.881633 117.229968 
L 88.604082 112.595572 
L 86.326531 107.367531 
L 84.04898 101.768927 
L 81.771429 96.090174 
L 79.493878 90.684219 
L 77.216327 85.95737 
L 74.938776 82.345994 
L 72.661224 80.239328 
L 70.383673 79.546299 
L 68.106122 80.098009 
L 65.828571 81.707127 
L 63.55102 84.179698 
L 61.273469 87.318353 
L 58.995918 90.926337 
L 56.718367 94.812141 
L 54.440816 98.79452 
L 52.163265 102.707584 
L 49.885714 106.405628 
L 47.608163 109.767384 
L 45.330612 112.699836 
L 43.053061 115.14131 
L 40.77551 117.063921 
L 38.497959 118.473748 
L 36.220408 119.411346 
L 33.942857 119.955773 
L 31.665306 120.227514 
L 29.387755 120.384951 
L 27.110204 120.565115 
L 24.832653 120.722151 
L 22.555102 120.786442 
L 20.277551 120.722448 
L 18 120.525524 
z
" style="fill:#66c2a5;fill-opacity:0.2;"/>
   </g>
   <g id="matplotlib.axis_3">
    <g id="xtick_6">
     <g id="line2d_12">
      <g>
       <use style="fill:#a9a9a9;stroke:#a9a9a9;stroke-width:2;" x="29.387755" xlink:href="#m021abc5259" y="122.189756"/>
      </g>
     </g>
    </g>
    <g id="xtick_7">
     <g id="line2d_13">
      <g>
       <use style="fill:#a9a9a9;stroke:#a9a9a9;stroke-width:2;" x="52.163265" xlink:href="#m021abc5259" y="122.189756"/>
      </g>
     </g>
    </g>
    <g id="xtick_8">
     <g id="line2d_14">
      <g>
       <use style="fill:#a9a9a9;stroke:#a9a9a9;stroke-width:2;" x="74.938776" xlink:href="#m021abc5259" y="122.189756"/>
      </g>
     </g>
    </g>
    <g id="xtick_9">
     <g id="line2d_15">
      <g>
       <use style="fill:#a9a9a9;stroke:#a9a9a9;stroke-width:2;" x="97.714286" xlink:href="#m021abc5259" y="122.189756"/>
      </g>
     </g>
    </g>
    <g id="xtick_10">
     <g id="line2d_16">
      <g>
       <use style="fill:#a9a9a9;stroke:#a9a9a9;stroke-width:2;" x="120.489796" xlink:href="#m021abc5259" y="122.189756"/>
      </g>
     </g>
    </g>
   </g>
   <g id="matplotlib.axis_4"/>
   <g id="line2d_17">
    <path clip-path="url(#p4769f82586)" d="M 18 120.487628 
L 20.277551 120.693487 
L 22.555102 120.757069 
L 24.832653 120.684642 
L 27.110204 120.51773 
L 29.387755 120.329329 
L 31.665306 120.166297 
L 33.942857 119.889918 
L 36.220408 119.340316 
L 38.497959 118.393723 
L 40.77551 116.964802 
L 43.053061 115.007443 
L 45.330612 112.514309 
L 47.608163 109.515349 
L 49.885714 106.075482 
L 52.163265 102.29162 
L 54.440816 98.289191 
L 56.718367 94.218244 
L 58.995918 90.248979 
L 61.273469 86.566725 
L 63.55102 83.366654 
L 65.828571 80.848598 
L 68.106122 79.212269 
L 70.383673 78.65315 
L 72.661224 79.359221 
L 74.938776 81.499104 
L 77.216327 85.162501 
L 79.493878 89.956476 
L 81.771429 95.440293 
L 84.04898 101.202909 
L 86.326531 106.886345 
L 88.604082 112.194863 
L 90.881633 116.899823 
L 93.159184 120.840736 
L 95.436735 123.92308 
L 97.714286 126.113562 
L 99.991837 127.43347 
L 102.269388 127.950744 
L 104.546939 127.771064 
L 106.82449 127.028434 
L 109.102041 125.875884 
L 111.379592 124.476943 
L 113.657143 122.998387 
L 115.934694 121.60467 
L 118.212245 120.454269 
L 120.489796 119.69804 
L 122.767347 119.426717 
L 125.044898 119.51877 
L 127.322449 119.812645 
L 129.6 120.170854 
" style="fill:none;stroke:#66c2a5;stroke-linecap:square;stroke-width:2;"/>
   </g>
   <g id="patch_8">
    <path d="M 74.938776 128.16 
L 74.938776 77.76 
" style="fill:none;stroke:#a9a9a9;stroke-linecap:square;stroke-linejoin:miter;stroke-width:2;"/>
   </g>
   <g id="patch_9">
    <path d="M 129.6 128.16 
L 129.6 77.76 
" style="fill:none;"/>
   </g>
   <g id="patch_10">
    <path d="M 18 122.189756 
L 129.6 122.189756 
" style="fill:none;stroke:#a9a9a9;stroke-linecap:square;stroke-linejoin:miter;stroke-width:2;"/>
   </g>
   <g id="patch_11">
    <path d="M 18 77.76 
L 129.6 77.76 
" style="fill:none;"/>
   </g>
  </g>
 </g>
 <defs>
  <clipPath id="pa97b498fae">
   <rect height="50.4" width="111.6" x="18" y="17.28"/>
  </clipPath>
  <clipPath id="p4769f82586">
   <rect height="50.4" width="111.6" x="18" y="77.76"/>
  </clipPath>
 </defs>
</svg>
