<?xml version="1.0" encoding="utf-8" standalone="no"?>
<!DOCTYPE svg PUBLIC "-//W3C//DTD SVG 1.1//EN"
  "http://www.w3.org/Graphics/SVG/1.1/DTD/svg11.dtd">
<!-- Created with matplotlib (https://matplotlib.org/) -->
<svg height="144pt" version="1.1" viewBox="0 0 144 144" width="144pt" xmlns="http://www.w3.org/2000/svg" xmlns:xlink="http://www.w3.org/1999/xlink">
 <metadata>
  <rdf:RDF xmlns:cc="http://creativecommons.org/ns#" xmlns:dc="http://purl.org/dc/elements/1.1/" xmlns:rdf="http://www.w3.org/1999/02/22-rdf-syntax-ns#">
   <cc:Work>
    <dc:type rdf:resource="http://purl.org/dc/dcmitype/StillImage"/>
    <dc:date>2021-10-13T15:42:58.875418</dc:date>
    <dc:format>image/svg+xml</dc:format>
    <dc:creator>
     <cc:Agent>
      <dc:title>Matplotlib v3.3.2, https://matplotlib.org/</dc:title>
     </cc:Agent>
    </dc:creator>
   </cc:Work>
  </rdf:RDF>
 </metadata>
 <defs>
  <style type="text/css">*{stroke-linecap:butt;stroke-linejoin:round;}</style>
 </defs>
 <g id="figure_1">
  <g id="patch_1">
   <path d="M 0 144 
L 144 144 
L 144 0 
L 0 0 
z
" style="fill:none;"/>
  </g>
  <g id="axes_1">
   <g id="patch_2">
    <path d="M 18 67.68 
L 129.6 67.68 
L 129.6 17.28 
L 18 17.28 
z
" style="fill:none;"/>
   </g>
   <g id="PolyCollection_1">
    <path clip-path="url(#paab2e96632)" d="M 18 67.670622 
L 18 67.670622 
L 20.277551 67.670622 
L 22.555102 67.670622 
L 24.832653 67.670622 
L 27.110204 67.670622 
L 29.387755 67.670528 
L 31.665306 67.620602 
L 33.942857 67.419612 
L 36.220408 66.865803 
L 38.497959 65.962509 
L 40.77551 64.517398 
L 43.053061 62.231784 
L 45.330612 59.452935 
L 47.608163 55.845544 
L 49.885714 51.513281 
L 52.163265 46.698592 
L 54.440816 41.496762 
L 56.718367 36.571285 
L 58.995918 30.955325 
L 61.273469 26.409505 
L 63.55102 22.618315 
L 65.828571 19.58793 
L 68.106122 17.966628 
L 70.383673 17.28 
L 72.661224 18.825584 
L 74.938776 31.92784 
L 77.216327 24.213898 
L 79.493878 29.132629 
L 81.771429 34.040469 
L 84.04898 38.763376 
L 86.326531 43.360347 
L 88.604082 47.920665 
L 90.881633 51.683769 
L 93.159184 55.10001 
L 95.436735 57.60708 
L 97.714286 59.949336 
L 99.991837 61.844618 
L 102.269388 63.438716 
L 104.546939 64.560963 
L 106.82449 65.597318 
L 109.102041 66.313617 
L 111.379592 66.877519 
L 113.657143 67.303265 
L 115.934694 67.516903 
L 118.212245 67.637614 
L 120.489796 67.670564 
L 122.767347 67.670622 
L 125.044898 67.670622 
L 127.322449 67.670622 
L 129.6 67.670622 
L 129.6 67.670622 
L 129.6 67.670622 
L 127.322449 67.670622 
L 125.044898 67.670622 
L 122.767347 67.670622 
L 120.489796 67.670735 
L 118.212245 67.68 
L 115.934694 67.646185 
L 113.657143 67.532617 
L 111.379592 67.262627 
L 109.102041 66.746549 
L 106.82449 66.197653 
L 104.546939 65.258489 
L 102.269388 64.340429 
L 99.991837 62.968276 
L 97.714286 61.250101 
L 95.436735 58.874058 
L 93.159184 56.347771 
L 90.881633 53.754894 
L 88.604082 49.758139 
L 86.326531 45.386031 
L 84.04898 41.026824 
L 81.771429 36.425079 
L 79.493878 31.612695 
L 77.216327 27.201092 
L 74.938776 33.714363 
L 72.661224 21.441713 
L 70.383673 19.996973 
L 68.106122 20.020258 
L 65.828571 22.170511 
L 63.55102 24.947624 
L 61.273469 28.788413 
L 58.995918 33.234979 
L 56.718367 38.387766 
L 54.440816 43.467306 
L 52.163265 48.2396 
L 49.885714 52.98206 
L 47.608163 56.881782 
L 45.330612 60.341884 
L 43.053061 63.023571 
L 40.77551 65.021082 
L 38.497959 66.347816 
L 36.220408 67.162774 
L 33.942857 67.545795 
L 31.665306 67.669465 
L 29.387755 67.67068 
L 27.110204 67.670622 
L 24.832653 67.670622 
L 22.555102 67.670622 
L 20.277551 67.670622 
L 18 67.670622 
z
" style="fill:#fc8d62;fill-opacity:0.2;"/>
   </g>
   <g id="PolyCollection_2">
    <path clip-path="url(#paab2e96632)" d="M 18 67.670622 
L 18 67.670622 
L 20.277551 67.670622 
L 22.555102 67.670622 
L 24.832653 67.670622 
L 27.110204 67.670622 
L 29.387755 67.670582 
L 31.665306 67.61301 
L 33.942857 67.387904 
L 36.220408 66.927797 
L 38.497959 66.152628 
L 40.77551 64.908575 
L 43.053061 63.183238 
L 45.330612 61.167955 
L 47.608163 58.429761 
L 49.885714 55.469235 
L 52.163265 52.106378 
L 54.440816 48.32938 
L 56.718367 44.537941 
L 58.995918 40.410071 
L 61.273469 36.613653 
L 63.55102 32.68545 
L 65.828571 29.359743 
L 68.106122 26.429889 
L 70.383673 24.345733 
L 72.661224 22.970482 
L 74.938776 31.261708 
L 77.216327 23.092187 
L 79.493878 24.609406 
L 81.771429 27.261375 
L 84.04898 30.333964 
L 86.326531 33.891159 
L 88.604082 37.614499 
L 90.881633 41.85255 
L 93.159184 45.684241 
L 95.436735 49.701623 
L 97.714286 53.141059 
L 99.991837 56.691596 
L 102.269388 59.557763 
L 104.546939 61.817052 
L 106.82449 63.873934 
L 109.102041 65.408017 
L 111.379592 66.443207 
L 113.657143 67.087765 
L 115.934694 67.512117 
L 118.212245 67.633474 
L 120.489796 67.670599 
L 122.767347 67.670622 
L 125.044898 67.670622 
L 127.322449 67.670622 
L 129.6 67.670622 
L 129.6 67.670622 
L 129.6 67.670622 
L 127.322449 67.670622 
L 125.044898 67.670622 
L 122.767347 67.670622 
L 120.489796 67.670698 
L 118.212245 67.683624 
L 115.934694 67.640831 
L 113.657143 67.332187 
L 111.379592 66.790673 
L 109.102041 65.939343 
L 106.82449 64.566317 
L 104.546939 62.790876 
L 102.269388 60.504314 
L 99.991837 57.873499 
L 97.714286 54.586684 
L 95.436735 51.276063 
L 93.159184 47.33653 
L 90.881633 43.56283 
L 88.604082 39.708788 
L 86.326531 36.180811 
L 84.04898 32.711152 
L 81.771429 29.869486 
L 79.493878 27.265799 
L 77.216327 25.560459 
L 74.938776 32.950284 
L 72.661224 25.410671 
L 70.383673 26.659372 
L 68.106122 28.752038 
L 65.828571 31.552024 
L 63.55102 34.748403 
L 61.273469 38.421639 
L 58.995918 42.435714 
L 56.718367 45.978799 
L 54.440816 49.752496 
L 52.163265 53.440749 
L 49.885714 56.521418 
L 47.608163 59.37739 
L 45.330612 61.905312 
L 43.053061 64.019097 
L 40.77551 65.466864 
L 38.497959 66.532862 
L 36.220408 67.182248 
L 33.942857 67.525952 
L 31.665306 67.67251 
L 29.387755 67.670637 
L 27.110204 67.670622 
L 24.832653 67.670622 
L 22.555102 67.670622 
L 20.277551 67.670622 
L 18 67.670622 
z
" style="fill:#fc8d62;fill-opacity:0.2;"/>
   </g>
   <g id="matplotlib.axis_1">
    <g id="xtick_1">
     <g id="line2d_1">
      <defs>
       <path d="M 0 0 
L 0 3.5 
" id="m13b3325a17" style="stroke:#a9a9a9;stroke-width:2;"/>
      </defs>
      <g>
       <use style="fill:#a9a9a9;stroke:#a9a9a9;stroke-width:2;" x="29.387755" xlink:href="#m13b3325a17" y="67.670622"/>
      </g>
     </g>
    </g>
    <g id="xtick_2">
     <g id="line2d_2">
      <g>
       <use style="fill:#a9a9a9;stroke:#a9a9a9;stroke-width:2;" x="52.163265" xlink:href="#m13b3325a17" y="67.670622"/>
      </g>
     </g>
    </g>
    <g id="xtick_3">
     <g id="line2d_3">
      <g>
       <use style="fill:#a9a9a9;stroke:#a9a9a9;stroke-width:2;" x="74.938776" xlink:href="#m13b3325a17" y="67.670622"/>
      </g>
     </g>
    </g>
    <g id="xtick_4">
     <g id="line2d_4">
      <g>
       <use style="fill:#a9a9a9;stroke:#a9a9a9;stroke-width:2;" x="97.714286" xlink:href="#m13b3325a17" y="67.670622"/>
      </g>
     </g>
    </g>
    <g id="xtick_5">
     <g id="line2d_5">
      <g>
       <use style="fill:#a9a9a9;stroke:#a9a9a9;stroke-width:2;" x="120.489796" xlink:href="#m13b3325a17" y="67.670622"/>
      </g>
     </g>
    </g>
   </g>
   <g id="matplotlib.axis_2"/>
   <g id="line2d_6">
    <path clip-path="url(#paab2e96632)" d="M 18 67.670622 
L 20.277551 67.670622 
L 22.555102 67.670622 
L 24.832653 67.670622 
L 27.110204 67.670622 
L 29.387755 67.670604 
L 31.665306 67.645033 
L 33.942857 67.482704 
L 36.220408 67.014289 
L 38.497959 66.155163 
L 40.77551 64.76924 
L 43.053061 62.627678 
L 45.330612 59.89741 
L 47.608163 56.363663 
L 49.885714 52.247671 
L 52.163265 47.469096 
L 54.440816 42.482034 
L 56.718367 37.479525 
L 58.995918 32.095152 
L 61.273469 27.598959 
L 63.55102 23.78297 
L 65.828571 20.879221 
L 68.106122 18.993443 
L 70.383673 18.638486 
L 72.661224 20.133648 
L 74.938776 32.821101 
L 77.216327 25.707495 
L 79.493878 30.372662 
L 81.771429 35.232774 
L 84.04898 39.8951 
L 86.326531 44.373189 
L 88.604082 48.839402 
L 90.881633 52.719332 
L 93.159184 55.72389 
L 95.436735 58.240569 
L 97.714286 60.599719 
L 99.991837 62.406447 
L 102.269388 63.889573 
L 104.546939 64.909726 
L 106.82449 65.897485 
L 109.102041 66.530083 
L 111.379592 67.070073 
L 113.657143 67.417941 
L 115.934694 67.581544 
L 118.212245 67.658807 
L 120.489796 67.67065 
L 122.767347 67.670622 
L 125.044898 67.670622 
L 127.322449 67.670622 
L 129.6 67.670622 
" style="fill:none;stroke:#fc8d62;stroke-linecap:square;stroke-width:2;"/>
   </g>
   <g id="line2d_7">
    <path clip-path="url(#paab2e96632)" d="M 18 67.670622 
L 20.277551 67.670622 
L 22.555102 67.670622 
L 24.832653 67.670622 
L 27.110204 67.670622 
L 29.387755 67.670609 
L 31.665306 67.64276 
L 33.942857 67.456928 
L 36.220408 67.055023 
L 38.497959 66.342745 
L 40.77551 65.187719 
L 43.053061 63.601167 
L 45.330612 61.536634 
L 47.608163 58.903576 
L 49.885714 55.995326 
L 52.163265 52.773563 
L 54.440816 49.040938 
L 56.718367 45.25837 
L 58.995918 41.422893 
L 61.273469 37.517646 
L 63.55102 33.716926 
L 65.828571 30.455883 
L 68.106122 27.590963 
L 70.383673 25.502553 
L 72.661224 24.190576 
L 74.938776 32.105996 
L 77.216327 24.326323 
L 79.493878 25.937602 
L 81.771429 28.56543 
L 84.04898 31.522558 
L 86.326531 35.035985 
L 88.604082 38.661644 
L 90.881633 42.70769 
L 93.159184 46.510386 
L 95.436735 50.488843 
L 97.714286 53.863872 
L 99.991837 57.282547 
L 102.269388 60.031039 
L 104.546939 62.303964 
L 106.82449 64.220125 
L 109.102041 65.67368 
L 111.379592 66.61694 
L 113.657143 67.209976 
L 115.934694 67.576474 
L 118.212245 67.658549 
L 120.489796 67.670649 
L 122.767347 67.670622 
L 125.044898 67.670622 
L 127.322449 67.670622 
L 129.6 67.670622 
" style="fill:none;stroke:#fc8d62;stroke-dasharray:1.5,1.5;stroke-dashoffset:0;stroke-opacity:0.7;stroke-width:1.5;"/>
   </g>
   <g id="patch_3">
    <path d="M 74.938776 67.68 
L 74.938776 17.28 
" style="fill:none;stroke:#a9a9a9;stroke-linecap:square;stroke-linejoin:miter;stroke-width:2;"/>
   </g>
   <g id="patch_4">
    <path d="M 129.6 67.68 
L 129.6 17.28 
" style="fill:none;"/>
   </g>
   <g id="patch_5">
    <path d="M 18 67.670622 
L 129.6 67.670622 
" style="fill:none;stroke:#a9a9a9;stroke-linecap:square;stroke-linejoin:miter;stroke-width:2;"/>
   </g>
   <g id="patch_6">
    <path d="M 18 17.28 
L 129.6 17.28 
" style="fill:none;"/>
   </g>
   <g id="legend_1">
    <g id="line2d_8">
     <path d="M 87.67 26.448906 
L 101.67 26.448906 
" style="fill:none;stroke:#fc8d62;stroke-linecap:square;stroke-width:2;"/>
    </g>
    <g id="line2d_9"/>
    <g id="text_1">
     <!-- $\theta$ -->
     <g transform="translate(107.27 28.898906)scale(0.07 -0.07)">
      <defs>
       <path d="M 45.515625 34.671875 
L 14.453125 34.671875 
Q 12.359375 20.0625 14.5 13.875 
Q 17.1875 6.25 24.46875 6.25 
Q 31.78125 6.25 37.359375 13.921875 
Q 42.234375 20.65625 45.515625 34.671875 
z
M 47.015625 42.96875 
Q 48.34375 56.84375 46.625 61.71875 
Q 43.953125 69.4375 36.765625 69.4375 
Q 29.296875 69.4375 23.828125 61.8125 
Q 19.53125 55.671875 16.15625 42.96875 
z
M 38.1875 76.765625 
Q 49.90625 76.765625 54.59375 66.40625 
Q 59.28125 56.109375 55.71875 37.84375 
Q 52.203125 19.625 43.453125 9.28125 
Q 34.765625 -1.125 23.046875 -1.125 
Q 11.28125 -1.125 6.640625 9.28125 
Q 2 19.625 5.515625 37.84375 
Q 9.078125 56.109375 17.71875 66.40625 
Q 26.421875 76.765625 38.1875 76.765625 
z
" id="DejaVuSans-Oblique-952"/>
      </defs>
      <use transform="translate(0 0.234375)" xlink:href="#DejaVuSans-Oblique-952"/>
     </g>
    </g>
    <g id="line2d_10">
     <path d="M 87.67 36.723594 
L 101.67 36.723594 
" style="fill:none;stroke:#fc8d62;stroke-dasharray:1.5,1.5;stroke-dashoffset:0;stroke-opacity:0.7;stroke-width:1.5;"/>
    </g>
    <g id="line2d_11"/>
    <g id="text_2">
     <!-- No $\theta$ -->
     <g transform="translate(107.27 39.173594)scale(0.07 -0.07)">
      <defs>
       <path d="M 9.8125 72.90625 
L 23.09375 72.90625 
L 55.421875 11.921875 
L 55.421875 72.90625 
L 64.984375 72.90625 
L 64.984375 0 
L 51.703125 0 
L 19.390625 60.984375 
L 19.390625 0 
L 9.8125 0 
z
" id="DejaVuSans-78"/>
       <path d="M 30.609375 48.390625 
Q 23.390625 48.390625 19.1875 42.75 
Q 14.984375 37.109375 14.984375 27.296875 
Q 14.984375 17.484375 19.15625 11.84375 
Q 23.34375 6.203125 30.609375 6.203125 
Q 37.796875 6.203125 41.984375 11.859375 
Q 46.1875 17.53125 46.1875 27.296875 
Q 46.1875 37.015625 41.984375 42.703125 
Q 37.796875 48.390625 30.609375 48.390625 
z
M 30.609375 56 
Q 42.328125 56 49.015625 48.375 
Q 55.71875 40.765625 55.71875 27.296875 
Q 55.71875 13.875 49.015625 6.21875 
Q 42.328125 -1.421875 30.609375 -1.421875 
Q 18.84375 -1.421875 12.171875 6.21875 
Q 5.515625 13.875 5.515625 27.296875 
Q 5.515625 40.765625 12.171875 48.375 
Q 18.84375 56 30.609375 56 
z
" id="DejaVuSans-111"/>
       <path id="DejaVuSans-32"/>
      </defs>
      <use transform="translate(0 0.234375)" xlink:href="#DejaVuSans-78"/>
      <use transform="translate(74.804688 0.234375)" xlink:href="#DejaVuSans-111"/>
      <use transform="translate(135.986328 0.234375)" xlink:href="#DejaVuSans-32"/>
      <use transform="translate(167.773438 0.234375)" xlink:href="#DejaVuSans-Oblique-952"/>
     </g>
    </g>
   </g>
  </g>
  <g id="axes_2">
   <g id="patch_7">
    <path d="M 18 128.16 
L 129.6 128.16 
L 129.6 77.76 
L 18 77.76 
z
" style="fill:none;"/>
   </g>
   <g id="PolyCollection_3">
    <path clip-path="url(#p8d6109beea)" d="M 18 120.459319 
L 18 120.380308 
L 20.277551 120.600257 
L 22.555102 120.667055 
L 24.832653 120.587879 
L 27.110204 120.410556 
L 29.387755 120.212541 
L 31.665306 120.042005 
L 33.942857 119.759208 
L 36.220408 119.202721 
L 38.497959 118.24571 
L 40.77551 116.796807 
L 43.053061 114.804326 
L 45.330612 112.259551 
L 47.608163 109.194663 
L 49.885714 105.678057 
L 52.163265 101.810603 
L 54.440816 97.722166 
L 56.718367 93.567331 
L 58.995918 89.520702 
L 61.273469 85.77169 
L 63.55102 82.519078 
L 65.828571 79.965716 
L 68.106122 78.313655 
L 70.383673 77.76 
L 72.661224 78.493616 
L 74.938776 80.683226 
L 77.216327 84.41607 
L 79.493878 89.294589 
L 81.771429 94.871502 
L 84.04898 100.729384 
L 86.326531 106.504234 
L 88.604082 111.894614 
L 90.881633 116.666468 
L 93.159184 120.654435 
L 95.436735 123.76075 
L 97.714286 125.952946 
L 99.991837 127.258679 
L 102.269388 127.755418 
L 104.546939 127.55723 
L 106.82449 126.803179 
L 109.102041 125.648297 
L 111.379592 124.255533 
L 113.657143 122.788844 
L 115.934694 121.407924 
L 118.212245 120.26635 
L 120.489796 119.514849 
L 122.767347 119.249859 
L 125.044898 119.354189 
L 127.322449 119.66559 
L 129.6 120.044026 
L 129.6 120.148688 
L 129.6 120.148688 
L 127.322449 119.794764 
L 125.044898 119.501942 
L 122.767347 119.407899 
L 120.489796 119.676761 
L 118.212245 120.436373 
L 115.934694 121.603387 
L 113.657143 123.026773 
L 111.379592 124.542835 
L 109.102041 125.98166 
L 106.82449 127.172504 
L 104.546939 127.949646 
L 102.269388 128.16 
L 99.991837 127.672214 
L 97.714286 126.386345 
L 95.436735 124.241268 
L 93.159184 121.21946 
L 90.881633 117.35276 
L 88.604082 112.730704 
L 86.326531 107.507912 
L 84.04898 101.907529 
L 81.771429 96.220597 
L 79.493878 90.80123 
L 77.216327 86.057438 
L 74.938776 82.427787 
L 72.661224 80.302899 
L 70.383673 79.592468 
L 68.106122 80.127399 
L 65.828571 81.720353 
L 63.55102 84.177516 
L 61.273469 87.301752 
L 58.995918 90.896578 
L 56.718367 94.770752 
L 54.440816 98.743277 
L 52.163265 102.648477 
L 49.885714 106.340796 
L 47.608163 109.699022 
L 45.330612 112.62981 
L 43.053061 115.071192 
L 40.77551 116.99484 
L 38.497959 118.406098 
L 36.220408 119.344984 
L 33.942857 119.890477 
L 31.665306 120.163259 
L 29.387755 120.322004 
L 27.110204 120.503582 
L 24.832653 120.661734 
L 22.555102 120.726178 
L 20.277551 120.660604 
L 18 120.459319 
z
" style="fill:#66c2a5;fill-opacity:0.2;"/>
   </g>
   <g id="matplotlib.axis_3">
    <g id="xtick_6">
     <g id="line2d_12">
      <g>
       <use style="fill:#a9a9a9;stroke:#a9a9a9;stroke-width:2;" x="29.387755" xlink:href="#m13b3325a17" y="122.14162"/>
      </g>
     </g>
    </g>
    <g id="xtick_7">
     <g id="line2d_13">
      <g>
       <use style="fill:#a9a9a9;stroke:#a9a9a9;stroke-width:2;" x="52.163265" xlink:href="#m13b3325a17" y="122.14162"/>
      </g>
     </g>
    </g>
    <g id="xtick_8">
     <g id="line2d_14">
      <g>
       <use style="fill:#a9a9a9;stroke:#a9a9a9;stroke-width:2;" x="74.938776" xlink:href="#m13b3325a17" y="122.14162"/>
      </g>
     </g>
    </g>
    <g id="xtick_9">
     <g id="line2d_15">
      <g>
       <use style="fill:#a9a9a9;stroke:#a9a9a9;stroke-width:2;" x="97.714286" xlink:href="#m13b3325a17" y="122.14162"/>
      </g>
     </g>
    </g>
    <g id="xtick_10">
     <g id="line2d_16">
      <g>
       <use style="fill:#a9a9a9;stroke:#a9a9a9;stroke-width:2;" x="120.489796" xlink:href="#m13b3325a17" y="122.14162"/>
      </g>
     </g>
    </g>
   </g>
   <g id="matplotlib.axis_4"/>
   <g id="line2d_17">
    <path clip-path="url(#p8d6109beea)" d="M 18 120.419814 
L 20.277551 120.63043 
L 22.555102 120.696617 
L 24.832653 120.624807 
L 27.110204 120.457069 
L 29.387755 120.267272 
L 31.665306 120.102632 
L 33.942857 119.824843 
L 36.220408 119.273852 
L 38.497959 118.325904 
L 40.77551 116.895823 
L 43.053061 114.937759 
L 45.330612 112.444681 
L 47.608163 109.446842 
L 49.885714 106.009426 
L 52.163265 102.22954 
L 54.440816 98.232722 
L 56.718367 94.169041 
L 58.995918 90.20864 
L 61.273469 86.536721 
L 63.55102 83.348297 
L 65.828571 80.843035 
L 68.106122 79.220527 
L 70.383673 78.676234 
L 72.661224 79.398257 
L 74.938776 81.555507 
L 77.216327 85.236754 
L 79.493878 90.04791 
L 81.771429 95.546049 
L 84.04898 101.318456 
L 86.326531 107.006073 
L 88.604082 112.312659 
L 90.881633 117.009614 
L 93.159184 120.936947 
L 95.436735 124.001009 
L 97.714286 126.169645 
L 99.991837 127.465447 
L 102.269388 127.957709 
L 104.546939 127.753438 
L 106.82449 126.987841 
L 109.102041 125.814978 
L 111.379592 124.399184 
L 113.657143 122.907809 
L 115.934694 121.505656 
L 118.212245 120.351361 
L 120.489796 119.595805 
L 122.767347 119.328879 
L 125.044898 119.428065 
L 127.322449 119.730177 
L 129.6 120.096357 
" style="fill:none;stroke:#66c2a5;stroke-linecap:square;stroke-width:2;"/>
   </g>
   <g id="patch_8">
    <path d="M 74.938776 128.16 
L 74.938776 77.76 
" style="fill:none;stroke:#a9a9a9;stroke-linecap:square;stroke-linejoin:miter;stroke-width:2;"/>
   </g>
   <g id="patch_9">
    <path d="M 129.6 128.16 
L 129.6 77.76 
" style="fill:none;"/>
   </g>
   <g id="patch_10">
    <path d="M 18 122.14162 
L 129.6 122.14162 
" style="fill:none;stroke:#a9a9a9;stroke-linecap:square;stroke-linejoin:miter;stroke-width:2;"/>
   </g>
   <g id="patch_11">
    <path d="M 18 77.76 
L 129.6 77.76 
" style="fill:none;"/>
   </g>
  </g>
 </g>
 <defs>
  <clipPath id="paab2e96632">
   <rect height="50.4" width="111.6" x="18" y="17.28"/>
  </clipPath>
  <clipPath id="p8d6109beea">
   <rect height="50.4" width="111.6" x="18" y="77.76"/>
  </clipPath>
 </defs>
</svg>
