<?xml version="1.0" encoding="utf-8" standalone="no"?>
<!DOCTYPE svg PUBLIC "-//W3C//DTD SVG 1.1//EN"
  "http://www.w3.org/Graphics/SVG/1.1/DTD/svg11.dtd">
<!-- Created with matplotlib (https://matplotlib.org/) -->
<svg height="144pt" version="1.1" viewBox="0 0 144 144" width="144pt" xmlns="http://www.w3.org/2000/svg" xmlns:xlink="http://www.w3.org/1999/xlink">
 <metadata>
  <rdf:RDF xmlns:cc="http://creativecommons.org/ns#" xmlns:dc="http://purl.org/dc/elements/1.1/" xmlns:rdf="http://www.w3.org/1999/02/22-rdf-syntax-ns#">
   <cc:Work>
    <dc:type rdf:resource="http://purl.org/dc/dcmitype/StillImage"/>
    <dc:date>2021-10-13T16:07:58.199882</dc:date>
    <dc:format>image/svg+xml</dc:format>
    <dc:creator>
     <cc:Agent>
      <dc:title>Matplotlib v3.3.2, https://matplotlib.org/</dc:title>
     </cc:Agent>
    </dc:creator>
   </cc:Work>
  </rdf:RDF>
 </metadata>
 <defs>
  <style type="text/css">*{stroke-linecap:butt;stroke-linejoin:round;}</style>
 </defs>
 <g id="figure_1">
  <g id="patch_1">
   <path d="M 0 144 
L 144 144 
L 144 0 
L 0 0 
z
" style="fill:none;"/>
  </g>
  <g id="axes_1">
   <g id="patch_2">
    <path d="M 18 67.68 
L 129.6 67.68 
L 129.6 17.28 
L 18 17.28 
z
" style="fill:none;"/>
   </g>
   <g id="PolyCollection_1">
    <path clip-path="url(#pe336248736)" d="M 18 17.28944 
L 18 17.28944 
L 20.277551 17.28944 
L 22.555102 17.28944 
L 24.832653 17.28944 
L 27.110204 17.28944 
L 29.387755 17.28944 
L 31.665306 17.28 
L 33.942857 17.356823 
L 36.220408 17.622079 
L 38.497959 18.109319 
L 40.77551 18.878589 
L 43.053061 20.059861 
L 45.330612 21.295002 
L 47.608163 22.830657 
L 49.885714 24.447126 
L 52.163265 26.369079 
L 54.440816 28.332691 
L 56.718367 30.094409 
L 58.995918 32.088721 
L 61.273469 34.526154 
L 63.55102 36.641663 
L 65.828571 39.139715 
L 68.106122 41.99471 
L 70.383673 44.847741 
L 72.661224 47.312959 
L 74.938776 65.766979 
L 77.216327 51.617897 
L 79.493878 52.586559 
L 81.771429 52.909954 
L 84.04898 52.473964 
L 86.326531 51.724767 
L 88.604082 49.237275 
L 90.881633 46.591239 
L 93.159184 43.326601 
L 95.436735 39.525953 
L 97.714286 35.714917 
L 99.991837 32.164753 
L 102.269388 28.585327 
L 104.546939 25.400482 
L 106.82449 22.738371 
L 109.102041 20.579846 
L 111.379592 19.077724 
L 113.657143 18.077663 
L 115.934694 17.528235 
L 118.212245 17.319072 
L 120.489796 17.289565 
L 122.767347 17.28944 
L 125.044898 17.28944 
L 127.322449 17.28944 
L 129.6 17.28944 
L 129.6 17.28944 
L 129.6 17.28944 
L 127.322449 17.28944 
L 125.044898 17.28944 
L 122.767347 17.289443 
L 120.489796 17.291595 
L 118.212245 17.362474 
L 115.934694 17.672487 
L 113.657143 18.314766 
L 111.379592 19.417188 
L 109.102041 21.111976 
L 106.82449 23.457792 
L 104.546939 26.365803 
L 102.269388 29.666501 
L 99.991837 33.435316 
L 97.714286 37.220331 
L 95.436735 41.399281 
L 93.159184 45.095576 
L 90.881633 48.469504 
L 88.604082 51.34375 
L 86.326531 53.526115 
L 84.04898 55.052335 
L 81.771429 55.251225 
L 79.493878 55.154083 
L 77.216327 53.765846 
L 74.938776 67.68 
L 72.661224 49.558515 
L 70.383673 46.771061 
L 68.106122 44.062841 
L 65.828571 41.436857 
L 63.55102 38.884354 
L 61.273469 35.805219 
L 58.995918 33.681046 
L 56.718367 31.713434 
L 54.440816 29.552869 
L 52.163265 27.52792 
L 49.885714 25.574747 
L 47.608163 23.742545 
L 45.330612 22.108403 
L 43.053061 20.579391 
L 40.77551 19.432265 
L 38.497959 18.475477 
L 36.220408 17.86452 
L 33.942857 17.469008 
L 31.665306 17.322691 
L 29.387755 17.28944 
L 27.110204 17.28944 
L 24.832653 17.28944 
L 22.555102 17.28944 
L 20.277551 17.28944 
L 18 17.28944 
z
" style="fill:#fc8d62;fill-opacity:0.2;"/>
   </g>
   <g id="PolyCollection_2">
    <path clip-path="url(#pe336248736)" d="M 18 17.28944 
L 18 17.28944 
L 20.277551 17.28944 
L 22.555102 17.28944 
L 24.832653 17.28944 
L 27.110204 17.28944 
L 29.387755 17.28944 
L 31.665306 17.268701 
L 33.942857 17.316178 
L 36.220408 17.556092 
L 38.497959 18.091616 
L 40.77551 18.876421 
L 43.053061 20.439412 
L 45.330612 22.120361 
L 47.608163 24.508654 
L 49.885714 27.329953 
L 52.163265 30.554935 
L 54.440816 34.032387 
L 56.718367 38.110004 
L 58.995918 42.016836 
L 61.273469 46.36536 
L 63.55102 50.241566 
L 65.828571 53.911394 
L 68.106122 56.9069 
L 70.383673 59.523548 
L 72.661224 62.122165 
L 74.938776 74.738031 
L 77.216327 61.732188 
L 79.493878 61.094147 
L 81.771429 58.774614 
L 84.04898 55.942996 
L 86.326531 52.613136 
L 88.604082 48.954598 
L 90.881633 45.134945 
L 93.159184 41.007886 
L 95.436735 36.959662 
L 97.714286 33.164299 
L 99.991837 29.581057 
L 102.269388 26.475181 
L 104.546939 23.780241 
L 106.82449 21.665473 
L 109.102041 19.949508 
L 111.379592 18.67062 
L 113.657143 17.954512 
L 115.934694 17.484496 
L 118.212245 17.313 
L 120.489796 17.289673 
L 122.767347 17.28944 
L 125.044898 17.28944 
L 127.322449 17.28944 
L 129.6 17.28944 
L 129.6 17.28944 
L 129.6 17.28944 
L 127.322449 17.28944 
L 125.044898 17.28944 
L 122.767347 17.289444 
L 120.489796 17.291016 
L 118.212245 17.369306 
L 115.934694 17.606947 
L 113.657143 18.164498 
L 111.379592 19.01599 
L 109.102041 20.476333 
L 106.82449 22.322463 
L 104.546939 24.767981 
L 102.269388 27.424926 
L 99.991837 30.777866 
L 97.714286 34.436319 
L 95.436735 38.341593 
L 93.159184 42.446666 
L 90.881633 46.669478 
L 88.604082 50.873525 
L 86.326531 54.696895 
L 84.04898 58.02583 
L 81.771429 61.050353 
L 79.493878 63.305476 
L 77.216327 64.223524 
L 74.938776 77.62211 
L 72.661224 64.137164 
L 70.383673 61.841308 
L 68.106122 59.109895 
L 65.828571 56.17109 
L 63.55102 52.3457 
L 61.273469 48.50915 
L 58.995918 43.669417 
L 56.718367 39.821688 
L 54.440816 35.723755 
L 52.163265 31.692944 
L 49.885714 28.358322 
L 47.608163 25.554676 
L 45.330612 22.854002 
L 43.053061 21.082378 
L 40.77551 19.585157 
L 38.497959 18.45153 
L 36.220408 17.769456 
L 33.942857 17.446112 
L 31.665306 17.319778 
L 29.387755 17.28944 
L 27.110204 17.28944 
L 24.832653 17.28944 
L 22.555102 17.28944 
L 20.277551 17.28944 
L 18 17.28944 
z
" style="fill:#fc8d62;fill-opacity:0.2;"/>
   </g>
   <g id="matplotlib.axis_1">
    <g id="xtick_1">
     <g id="line2d_1">
      <defs>
       <path d="M 0 0 
L 0 3.5 
" id="m13457c657f" style="stroke:#a9a9a9;stroke-width:2;"/>
      </defs>
      <g>
       <use style="fill:#a9a9a9;stroke:#a9a9a9;stroke-width:2;" x="29.387755" xlink:href="#m13457c657f" y="17.28944"/>
      </g>
     </g>
    </g>
    <g id="xtick_2">
     <g id="line2d_2">
      <g>
       <use style="fill:#a9a9a9;stroke:#a9a9a9;stroke-width:2;" x="52.163265" xlink:href="#m13457c657f" y="17.28944"/>
      </g>
     </g>
    </g>
    <g id="xtick_3">
     <g id="line2d_3">
      <g>
       <use style="fill:#a9a9a9;stroke:#a9a9a9;stroke-width:2;" x="74.938776" xlink:href="#m13457c657f" y="17.28944"/>
      </g>
     </g>
    </g>
    <g id="xtick_4">
     <g id="line2d_4">
      <g>
       <use style="fill:#a9a9a9;stroke:#a9a9a9;stroke-width:2;" x="97.714286" xlink:href="#m13457c657f" y="17.28944"/>
      </g>
     </g>
    </g>
    <g id="xtick_5">
     <g id="line2d_5">
      <g>
       <use style="fill:#a9a9a9;stroke:#a9a9a9;stroke-width:2;" x="120.489796" xlink:href="#m13457c657f" y="17.28944"/>
      </g>
     </g>
    </g>
   </g>
   <g id="matplotlib.axis_2"/>
   <g id="line2d_6">
    <path clip-path="url(#pe336248736)" d="M 18 17.28944 
L 20.277551 17.28944 
L 22.555102 17.28944 
L 24.832653 17.28944 
L 27.110204 17.28944 
L 29.387755 17.28944 
L 31.665306 17.301345 
L 33.942857 17.412915 
L 36.220408 17.7433 
L 38.497959 18.292398 
L 40.77551 19.155427 
L 43.053061 20.319626 
L 45.330612 21.701702 
L 47.608163 23.286601 
L 49.885714 25.010937 
L 52.163265 26.9485 
L 54.440816 28.94278 
L 56.718367 30.903921 
L 58.995918 32.884883 
L 61.273469 35.165687 
L 63.55102 37.763008 
L 65.828571 40.288286 
L 68.106122 43.028775 
L 70.383673 45.809401 
L 72.661224 48.435737 
L 74.938776 66.723489 
L 77.216327 52.691872 
L 79.493878 53.870321 
L 81.771429 54.080589 
L 84.04898 53.76315 
L 86.326531 52.625441 
L 88.604082 50.290512 
L 90.881633 47.530372 
L 93.159184 44.211088 
L 95.436735 40.462617 
L 97.714286 36.467624 
L 99.991837 32.800035 
L 102.269388 29.125914 
L 104.546939 25.883143 
L 106.82449 23.098082 
L 109.102041 20.845911 
L 111.379592 19.247456 
L 113.657143 18.196215 
L 115.934694 17.600361 
L 118.212245 17.340773 
L 120.489796 17.29058 
L 122.767347 17.289442 
L 125.044898 17.28944 
L 127.322449 17.28944 
L 129.6 17.28944 
" style="fill:none;stroke:#fc8d62;stroke-linecap:square;stroke-width:2;"/>
   </g>
   <g id="line2d_7">
    <path clip-path="url(#pe336248736)" d="M 18 17.28944 
L 20.277551 17.28944 
L 22.555102 17.28944 
L 24.832653 17.28944 
L 27.110204 17.28944 
L 29.387755 17.28944 
L 31.665306 17.29424 
L 33.942857 17.381145 
L 36.220408 17.662774 
L 38.497959 18.271573 
L 40.77551 19.230789 
L 43.053061 20.760895 
L 45.330612 22.487181 
L 47.608163 25.031665 
L 49.885714 27.844138 
L 52.163265 31.123939 
L 54.440816 34.878071 
L 56.718367 38.965846 
L 58.995918 42.843126 
L 61.273469 47.437255 
L 63.55102 51.293633 
L 65.828571 55.041242 
L 68.106122 58.008398 
L 70.383673 60.682428 
L 72.661224 63.129664 
L 74.938776 76.18007 
L 77.216327 62.977856 
L 79.493878 62.199812 
L 81.771429 59.912483 
L 84.04898 56.984413 
L 86.326531 53.655016 
L 88.604082 49.914062 
L 90.881633 45.902212 
L 93.159184 41.727276 
L 95.436735 37.650628 
L 97.714286 33.800309 
L 99.991837 30.179462 
L 102.269388 26.950054 
L 104.546939 24.274111 
L 106.82449 21.993968 
L 109.102041 20.212921 
L 111.379592 18.843305 
L 113.657143 18.059505 
L 115.934694 17.545721 
L 118.212245 17.341153 
L 120.489796 17.290345 
L 122.767347 17.289442 
L 125.044898 17.28944 
L 127.322449 17.28944 
L 129.6 17.28944 
" style="fill:none;stroke:#fc8d62;stroke-dasharray:1.5,1.5;stroke-dashoffset:0;stroke-opacity:0.7;stroke-width:1.5;"/>
   </g>
   <g id="patch_3">
    <path d="M 74.938776 67.68 
L 74.938776 17.28 
" style="fill:none;stroke:#a9a9a9;stroke-linecap:square;stroke-linejoin:miter;stroke-width:2;"/>
   </g>
   <g id="patch_4">
    <path d="M 129.6 67.68 
L 129.6 17.28 
" style="fill:none;"/>
   </g>
   <g id="patch_5">
    <path d="M 18 17.28944 
L 129.6 17.28944 
" style="fill:none;stroke:#a9a9a9;stroke-linecap:square;stroke-linejoin:miter;stroke-width:2;"/>
   </g>
   <g id="patch_6">
    <path d="M 18 17.28 
L 129.6 17.28 
" style="fill:none;"/>
   </g>
   <g id="legend_1">
    <g id="line2d_8">
     <path d="M 24.3 47.199531 
L 38.3 47.199531 
" style="fill:none;stroke:#fc8d62;stroke-linecap:square;stroke-width:2;"/>
    </g>
    <g id="line2d_9"/>
    <g id="text_1">
     <!-- $\theta$ -->
     <g transform="translate(43.9 49.649531)scale(0.07 -0.07)">
      <defs>
       <path d="M 45.515625 34.671875 
L 14.453125 34.671875 
Q 12.359375 20.0625 14.5 13.875 
Q 17.1875 6.25 24.46875 6.25 
Q 31.78125 6.25 37.359375 13.921875 
Q 42.234375 20.65625 45.515625 34.671875 
z
M 47.015625 42.96875 
Q 48.34375 56.84375 46.625 61.71875 
Q 43.953125 69.4375 36.765625 69.4375 
Q 29.296875 69.4375 23.828125 61.8125 
Q 19.53125 55.671875 16.15625 42.96875 
z
M 38.1875 76.765625 
Q 49.90625 76.765625 54.59375 66.40625 
Q 59.28125 56.109375 55.71875 37.84375 
Q 52.203125 19.625 43.453125 9.28125 
Q 34.765625 -1.125 23.046875 -1.125 
Q 11.28125 -1.125 6.640625 9.28125 
Q 2 19.625 5.515625 37.84375 
Q 9.078125 56.109375 17.71875 66.40625 
Q 26.421875 76.765625 38.1875 76.765625 
z
" id="DejaVuSans-Oblique-952"/>
      </defs>
      <use transform="translate(0 0.234375)" xlink:href="#DejaVuSans-Oblique-952"/>
     </g>
    </g>
    <g id="line2d_10">
     <path d="M 24.3 57.474219 
L 38.3 57.474219 
" style="fill:none;stroke:#fc8d62;stroke-dasharray:1.5,1.5;stroke-dashoffset:0;stroke-opacity:0.7;stroke-width:1.5;"/>
    </g>
    <g id="line2d_11"/>
    <g id="text_2">
     <!-- No $\theta$ -->
     <g transform="translate(43.9 59.924219)scale(0.07 -0.07)">
      <defs>
       <path d="M 9.8125 72.90625 
L 23.09375 72.90625 
L 55.421875 11.921875 
L 55.421875 72.90625 
L 64.984375 72.90625 
L 64.984375 0 
L 51.703125 0 
L 19.390625 60.984375 
L 19.390625 0 
L 9.8125 0 
z
" id="DejaVuSans-78"/>
       <path d="M 30.609375 48.390625 
Q 23.390625 48.390625 19.1875 42.75 
Q 14.984375 37.109375 14.984375 27.296875 
Q 14.984375 17.484375 19.15625 11.84375 
Q 23.34375 6.203125 30.609375 6.203125 
Q 37.796875 6.203125 41.984375 11.859375 
Q 46.1875 17.53125 46.1875 27.296875 
Q 46.1875 37.015625 41.984375 42.703125 
Q 37.796875 48.390625 30.609375 48.390625 
z
M 30.609375 56 
Q 42.328125 56 49.015625 48.375 
Q 55.71875 40.765625 55.71875 27.296875 
Q 55.71875 13.875 49.015625 6.21875 
Q 42.328125 -1.421875 30.609375 -1.421875 
Q 18.84375 -1.421875 12.171875 6.21875 
Q 5.515625 13.875 5.515625 27.296875 
Q 5.515625 40.765625 12.171875 48.375 
Q 18.84375 56 30.609375 56 
z
" id="DejaVuSans-111"/>
       <path id="DejaVuSans-32"/>
      </defs>
      <use transform="translate(0 0.234375)" xlink:href="#DejaVuSans-78"/>
      <use transform="translate(74.804688 0.234375)" xlink:href="#DejaVuSans-111"/>
      <use transform="translate(135.986328 0.234375)" xlink:href="#DejaVuSans-32"/>
      <use transform="translate(167.773438 0.234375)" xlink:href="#DejaVuSans-Oblique-952"/>
     </g>
    </g>
   </g>
  </g>
  <g id="axes_2">
   <g id="patch_7">
    <path d="M 18 128.16 
L 129.6 128.16 
L 129.6 77.76 
L 18 77.76 
z
" style="fill:none;"/>
   </g>
   <g id="PolyCollection_3">
    <path clip-path="url(#pbd8aa68a65)" d="M 18 120.482337 
L 18 120.407724 
L 20.277551 120.629385 
L 22.555102 120.691313 
L 24.832653 120.603201 
L 27.110204 120.415323 
L 29.387755 120.207561 
L 31.665306 120.030332 
L 33.942857 119.742712 
L 36.220408 119.182109 
L 38.497959 118.221066 
L 40.77551 116.767755 
L 43.053061 114.770768 
L 45.330612 112.222112 
L 47.608163 109.154218 
L 49.885714 105.63569 
L 52.163265 101.767647 
L 54.440816 97.679953 
L 56.718367 93.527121 
L 58.995918 89.48368 
L 61.273469 85.739036 
L 63.55102 82.492038 
L 65.828571 79.945698 
L 68.106122 78.302432 
L 70.383673 77.76 
L 72.661224 78.508334 
L 74.938776 80.717248 
L 77.216327 84.476812 
L 79.493878 89.382727 
L 81.771429 94.983338 
L 84.04898 100.857761 
L 86.326531 106.639918 
L 88.604082 112.027711 
L 90.881633 116.787707 
L 93.159184 120.756065 
L 95.436735 123.837395 
L 97.714286 126.00199 
L 99.991837 127.279742 
L 102.269388 127.749776 
L 104.546939 127.527446 
L 106.82449 126.753139 
L 109.102041 125.582958 
L 111.379592 124.180486 
L 113.657143 122.709871 
L 115.934694 121.330665 
L 118.212245 120.196355 
L 120.489796 119.458094 
L 122.767347 119.212645 
L 125.044898 119.338367 
L 127.322449 119.669303 
L 129.6 120.062708 
L 129.6 120.163569 
L 129.6 120.163569 
L 127.322449 119.795777 
L 125.044898 119.484676 
L 122.767347 119.370324 
L 120.489796 119.620159 
L 118.212245 120.365311 
L 115.934694 121.523579 
L 113.657143 122.944719 
L 111.379592 124.465284 
L 109.102041 125.915206 
L 106.82449 127.123292 
L 104.546939 127.923006 
L 102.269388 128.16 
L 99.991837 127.701051 
L 97.714286 126.443587 
L 95.436735 124.323745 
L 93.159184 121.321669 
L 90.881633 117.467644 
L 88.604082 112.849981 
L 86.326531 107.622489 
L 84.04898 102.008403 
L 81.771429 96.299844 
L 79.493878 90.853238 
L 77.216327 86.080314 
L 74.938776 82.424253 
L 72.661224 80.28246 
L 70.383673 79.561347 
L 68.106122 80.09018 
L 65.828571 81.680047 
L 63.55102 84.13601 
L 61.273469 87.260167 
L 58.995918 90.855543 
L 56.718367 94.730642 
L 54.440816 98.704336 
L 52.163265 102.610844 
L 49.885714 106.304521 
L 47.608163 109.664081 
L 45.330612 112.596264 
L 43.053061 115.039065 
L 40.77551 116.964158 
L 38.497959 118.377477 
L 36.220408 119.319447 
L 33.942857 119.869152 
L 31.665306 120.147788 
L 29.387755 120.314711 
L 27.110204 120.507373 
L 24.832653 120.676417 
L 22.555102 120.748636 
L 20.277551 120.685934 
L 18 120.482337 
z
" style="fill:#66c2a5;fill-opacity:0.2;"/>
   </g>
   <g id="matplotlib.axis_3">
    <g id="xtick_6">
     <g id="line2d_12">
      <g>
       <use style="fill:#a9a9a9;stroke:#a9a9a9;stroke-width:2;" x="29.387755" xlink:href="#m13457c657f" y="122.137544"/>
      </g>
     </g>
    </g>
    <g id="xtick_7">
     <g id="line2d_13">
      <g>
       <use style="fill:#a9a9a9;stroke:#a9a9a9;stroke-width:2;" x="52.163265" xlink:href="#m13457c657f" y="122.137544"/>
      </g>
     </g>
    </g>
    <g id="xtick_8">
     <g id="line2d_14">
      <g>
       <use style="fill:#a9a9a9;stroke:#a9a9a9;stroke-width:2;" x="74.938776" xlink:href="#m13457c657f" y="122.137544"/>
      </g>
     </g>
    </g>
    <g id="xtick_9">
     <g id="line2d_15">
      <g>
       <use style="fill:#a9a9a9;stroke:#a9a9a9;stroke-width:2;" x="97.714286" xlink:href="#m13457c657f" y="122.137544"/>
      </g>
     </g>
    </g>
    <g id="xtick_10">
     <g id="line2d_16">
      <g>
       <use style="fill:#a9a9a9;stroke:#a9a9a9;stroke-width:2;" x="120.489796" xlink:href="#m13457c657f" y="122.137544"/>
      </g>
     </g>
    </g>
   </g>
   <g id="matplotlib.axis_4"/>
   <g id="line2d_17">
    <path clip-path="url(#pbd8aa68a65)" d="M 18 120.44503 
L 20.277551 120.65766 
L 22.555102 120.719975 
L 24.832653 120.639809 
L 27.110204 120.461348 
L 29.387755 120.261136 
L 31.665306 120.08906 
L 33.942857 119.805932 
L 36.220408 119.250778 
L 38.497959 118.299272 
L 40.77551 116.865956 
L 43.053061 114.904916 
L 45.330612 112.409188 
L 47.608163 109.40915 
L 49.885714 105.970106 
L 52.163265 102.189246 
L 54.440816 98.192145 
L 56.718367 94.128882 
L 58.995918 90.169612 
L 61.273469 86.499601 
L 63.55102 83.314024 
L 65.828571 80.812873 
L 68.106122 79.196306 
L 70.383673 78.660674 
L 72.661224 79.395397 
L 74.938776 81.57075 
L 77.216327 85.278563 
L 79.493878 90.117982 
L 81.771429 95.641591 
L 84.04898 101.433082 
L 86.326531 107.131203 
L 88.604082 112.438846 
L 90.881633 117.127675 
L 93.159184 121.038867 
L 95.436735 124.08057 
L 97.714286 126.222789 
L 99.991837 127.490396 
L 102.269388 127.954888 
L 104.546939 127.725226 
L 106.82449 126.938215 
L 109.102041 125.749082 
L 111.379592 124.322885 
L 113.657143 122.827295 
L 115.934694 121.427122 
L 118.212245 120.280833 
L 120.489796 119.539127 
L 122.767347 119.291485 
L 125.044898 119.411522 
L 127.322449 119.73254 
L 129.6 120.113138 
" style="fill:none;stroke:#66c2a5;stroke-linecap:square;stroke-width:2;"/>
   </g>
   <g id="patch_8">
    <path d="M 74.938776 128.16 
L 74.938776 77.76 
" style="fill:none;stroke:#a9a9a9;stroke-linecap:square;stroke-linejoin:miter;stroke-width:2;"/>
   </g>
   <g id="patch_9">
    <path d="M 129.6 128.16 
L 129.6 77.76 
" style="fill:none;"/>
   </g>
   <g id="patch_10">
    <path d="M 18 122.137544 
L 129.6 122.137544 
" style="fill:none;stroke:#a9a9a9;stroke-linecap:square;stroke-linejoin:miter;stroke-width:2;"/>
   </g>
   <g id="patch_11">
    <path d="M 18 77.76 
L 129.6 77.76 
" style="fill:none;"/>
   </g>
  </g>
 </g>
 <defs>
  <clipPath id="pe336248736">
   <rect height="50.4" width="111.6" x="18" y="17.28"/>
  </clipPath>
  <clipPath id="pbd8aa68a65">
   <rect height="50.4" width="111.6" x="18" y="77.76"/>
  </clipPath>
 </defs>
</svg>
