<?xml version="1.0" encoding="utf-8" standalone="no"?>
<!DOCTYPE svg PUBLIC "-//W3C//DTD SVG 1.1//EN"
  "http://www.w3.org/Graphics/SVG/1.1/DTD/svg11.dtd">
<!-- Created with matplotlib (https://matplotlib.org/) -->
<svg height="144pt" version="1.1" viewBox="0 0 144 144" width="144pt" xmlns="http://www.w3.org/2000/svg" xmlns:xlink="http://www.w3.org/1999/xlink">
 <metadata>
  <rdf:RDF xmlns:cc="http://creativecommons.org/ns#" xmlns:dc="http://purl.org/dc/elements/1.1/" xmlns:rdf="http://www.w3.org/1999/02/22-rdf-syntax-ns#">
   <cc:Work>
    <dc:type rdf:resource="http://purl.org/dc/dcmitype/StillImage"/>
    <dc:date>2021-10-14T22:06:57.940470</dc:date>
    <dc:format>image/svg+xml</dc:format>
    <dc:creator>
     <cc:Agent>
      <dc:title>Matplotlib v3.3.2, https://matplotlib.org/</dc:title>
     </cc:Agent>
    </dc:creator>
   </cc:Work>
  </rdf:RDF>
 </metadata>
 <defs>
  <style type="text/css">*{stroke-linecap:butt;stroke-linejoin:round;}</style>
 </defs>
 <g id="figure_1">
  <g id="patch_1">
   <path d="M 0 144 
L 144 144 
L 144 0 
L 0 0 
z
" style="fill:none;"/>
  </g>
  <g id="axes_1">
   <g id="patch_2">
    <path d="M 18 67.68 
L 129.6 67.68 
L 129.6 17.28 
L 18 17.28 
z
" style="fill:none;"/>
   </g>
   <g id="PolyCollection_1">
    <path clip-path="url(#p11a1499697)" d="M 18 67.675148 
L 18 67.675148 
L 20.277551 67.675148 
L 22.555102 67.675148 
L 24.832653 67.675148 
L 27.110204 67.675148 
L 29.387755 67.674707 
L 31.665306 67.631159 
L 33.942857 67.438264 
L 36.220408 67.021132 
L 38.497959 66.205296 
L 40.77551 64.936577 
L 43.053061 63.231354 
L 45.330612 60.739049 
L 47.608163 57.715869 
L 49.885714 54.047476 
L 52.163265 49.757671 
L 54.440816 45.292768 
L 56.718367 40.221099 
L 58.995918 35.443408 
L 61.273469 30.741053 
L 63.55102 26.362581 
L 65.828571 22.777782 
L 68.106122 19.86812 
L 70.383673 18.042889 
L 72.661224 17.28 
L 74.938776 18.6201 
L 77.216327 20.18791 
L 79.493878 23.042657 
L 81.771429 26.419208 
L 84.04898 30.365767 
L 86.326531 35.060036 
L 88.604082 39.457454 
L 90.881633 43.863971 
L 93.159184 47.783037 
L 95.436735 51.618463 
L 97.714286 54.930062 
L 99.991837 57.989766 
L 102.269388 60.517418 
L 104.546939 62.55265 
L 106.82449 64.291516 
L 109.102041 65.679923 
L 111.379592 66.598962 
L 113.657143 67.189754 
L 115.934694 67.490143 
L 118.212245 67.643712 
L 120.489796 67.675148 
L 122.767347 67.675148 
L 125.044898 67.675148 
L 127.322449 67.675148 
L 129.6 67.675148 
L 129.6 67.675148 
L 129.6 67.675148 
L 127.322449 67.675148 
L 125.044898 67.675148 
L 122.767347 67.675148 
L 120.489796 67.675148 
L 118.212245 67.68 
L 115.934694 67.60107 
L 113.657143 67.353637 
L 111.379592 66.876578 
L 109.102041 66.10282 
L 106.82449 64.913404 
L 104.546939 63.345111 
L 102.269388 61.395394 
L 99.991837 58.952229 
L 97.714286 56.117701 
L 95.436735 52.880956 
L 93.159184 49.422769 
L 90.881633 45.584508 
L 88.604082 41.620572 
L 86.326531 37.277829 
L 84.04898 32.969783 
L 81.771429 28.966442 
L 79.493878 25.777789 
L 77.216327 22.91048 
L 74.938776 22.065506 
L 72.661224 20.898958 
L 70.383673 21.090137 
L 68.106122 23.256666 
L 65.828571 25.316624 
L 63.55102 28.794546 
L 61.273469 33.033901 
L 58.995918 37.815495 
L 56.718367 42.321042 
L 54.440816 47.049182 
L 52.163265 51.496852 
L 49.885714 55.441046 
L 47.608163 58.815085 
L 45.330612 61.608791 
L 43.053061 63.94356 
L 40.77551 65.531631 
L 38.497959 66.605304 
L 36.220408 67.220586 
L 33.942857 67.566637 
L 31.665306 67.674733 
L 29.387755 67.675465 
L 27.110204 67.675148 
L 24.832653 67.675148 
L 22.555102 67.675148 
L 20.277551 67.675148 
L 18 67.675148 
z
" style="fill:#fc8d62;fill-opacity:0.2;"/>
   </g>
   <g id="PolyCollection_2">
    <path clip-path="url(#p11a1499697)" d="M 18 67.675148 
L 18 67.675148 
L 20.277551 67.675148 
L 22.555102 67.675148 
L 24.832653 67.675148 
L 27.110204 67.675148 
L 29.387755 67.674596 
L 31.665306 67.62555 
L 33.942857 67.453608 
L 36.220408 67.03819 
L 38.497959 66.37713 
L 40.77551 65.103282 
L 43.053061 63.559633 
L 45.330612 61.473503 
L 47.608163 58.893401 
L 49.885714 55.624992 
L 52.163265 52.091273 
L 54.440816 48.308285 
L 56.718367 44.164539 
L 58.995918 39.5863 
L 61.273469 35.457486 
L 63.55102 31.534037 
L 65.828571 28.078077 
L 68.106122 24.571455 
L 70.383673 21.861539 
L 72.661224 20.671383 
L 74.938776 20.245056 
L 77.216327 20.829995 
L 79.493878 22.565928 
L 81.771429 25.078272 
L 84.04898 28.264623 
L 86.326531 31.730133 
L 88.604082 36.128575 
L 90.881633 40.560191 
L 93.159184 44.417569 
L 95.436735 48.726788 
L 97.714286 52.684104 
L 99.991837 55.971586 
L 102.269388 59.305394 
L 104.546939 61.695195 
L 106.82449 63.836318 
L 109.102041 65.335687 
L 111.379592 66.398515 
L 113.657143 67.094267 
L 115.934694 67.491826 
L 118.212245 67.64766 
L 120.489796 67.675148 
L 122.767347 67.675148 
L 125.044898 67.675148 
L 127.322449 67.675148 
L 129.6 67.675148 
L 129.6 67.675148 
L 129.6 67.675148 
L 127.322449 67.675148 
L 125.044898 67.675148 
L 122.767347 67.675148 
L 120.489796 67.675148 
L 118.212245 67.679036 
L 115.934694 67.601381 
L 113.657143 67.316655 
L 111.379592 66.74897 
L 109.102041 65.787288 
L 106.82449 64.434583 
L 104.546939 62.565267 
L 102.269388 60.125223 
L 99.991837 57.172903 
L 97.714286 54.033599 
L 95.436735 50.318084 
L 93.159184 46.406484 
L 90.881633 42.597037 
L 88.604082 38.4498 
L 86.326531 34.091167 
L 84.04898 30.72289 
L 81.771429 27.869992 
L 79.493878 25.494585 
L 77.216327 23.53448 
L 74.938776 24.03088 
L 72.661224 23.293259 
L 70.383673 24.923182 
L 68.106122 27.03031 
L 65.828571 30.147455 
L 63.55102 34.038169 
L 61.273469 37.704364 
L 58.995918 41.80112 
L 56.718367 45.821793 
L 54.440816 49.752982 
L 52.163265 53.718846 
L 49.885714 56.893162 
L 47.608163 59.808108 
L 45.330612 62.318495 
L 43.053061 64.148442 
L 40.77551 65.6252 
L 38.497959 66.661052 
L 36.220408 67.281675 
L 33.942857 67.577796 
L 31.665306 67.67722 
L 29.387755 67.67551 
L 27.110204 67.675148 
L 24.832653 67.675148 
L 22.555102 67.675148 
L 20.277551 67.675148 
L 18 67.675148 
z
" style="fill:#fc8d62;fill-opacity:0.2;"/>
   </g>
   <g id="matplotlib.axis_1">
    <g id="xtick_1">
     <g id="line2d_1">
      <defs>
       <path d="M 0 0 
L 0 3.5 
" id="mb0c7adae0e" style="stroke:#a9a9a9;stroke-width:2;"/>
      </defs>
      <g>
       <use style="fill:#a9a9a9;stroke:#a9a9a9;stroke-width:2;" x="29.387755" xlink:href="#mb0c7adae0e" y="67.675148"/>
      </g>
     </g>
    </g>
    <g id="xtick_2">
     <g id="line2d_2">
      <g>
       <use style="fill:#a9a9a9;stroke:#a9a9a9;stroke-width:2;" x="52.163265" xlink:href="#mb0c7adae0e" y="67.675148"/>
      </g>
     </g>
    </g>
    <g id="xtick_3">
     <g id="line2d_3">
      <g>
       <use style="fill:#a9a9a9;stroke:#a9a9a9;stroke-width:2;" x="74.938776" xlink:href="#mb0c7adae0e" y="67.675148"/>
      </g>
     </g>
    </g>
    <g id="xtick_4">
     <g id="line2d_4">
      <g>
       <use style="fill:#a9a9a9;stroke:#a9a9a9;stroke-width:2;" x="97.714286" xlink:href="#mb0c7adae0e" y="67.675148"/>
      </g>
     </g>
    </g>
    <g id="xtick_5">
     <g id="line2d_5">
      <g>
       <use style="fill:#a9a9a9;stroke:#a9a9a9;stroke-width:2;" x="120.489796" xlink:href="#mb0c7adae0e" y="67.675148"/>
      </g>
     </g>
    </g>
   </g>
   <g id="matplotlib.axis_2"/>
   <g id="line2d_6">
    <path clip-path="url(#p11a1499697)" d="M 18 67.675148 
L 20.277551 67.675148 
L 22.555102 67.675148 
L 24.832653 67.675148 
L 27.110204 67.675148 
L 29.387755 67.675086 
L 31.665306 67.652946 
L 33.942857 67.502451 
L 36.220408 67.120859 
L 38.497959 66.4053 
L 40.77551 65.234104 
L 43.053061 63.587457 
L 45.330612 61.17392 
L 47.608163 58.265477 
L 49.885714 54.744261 
L 52.163265 50.627262 
L 54.440816 46.170975 
L 56.718367 41.27107 
L 58.995918 36.629452 
L 61.273469 31.887477 
L 63.55102 27.578564 
L 65.828571 24.047203 
L 68.106122 21.562393 
L 70.383673 19.566513 
L 72.661224 19.089479 
L 74.938776 20.342803 
L 77.216327 21.549195 
L 79.493878 24.410223 
L 81.771429 27.692825 
L 84.04898 31.667775 
L 86.326531 36.168932 
L 88.604082 40.539013 
L 90.881633 44.72424 
L 93.159184 48.602903 
L 95.436735 52.249709 
L 97.714286 55.523882 
L 99.991837 58.470997 
L 102.269388 60.956406 
L 104.546939 62.948881 
L 106.82449 64.60246 
L 109.102041 65.891372 
L 111.379592 66.73777 
L 113.657143 67.271696 
L 115.934694 67.545606 
L 118.212245 67.661856 
L 120.489796 67.675148 
L 122.767347 67.675148 
L 125.044898 67.675148 
L 127.322449 67.675148 
L 129.6 67.675148 
" style="fill:none;stroke:#fc8d62;stroke-linecap:square;stroke-width:2;"/>
   </g>
   <g id="line2d_7">
    <path clip-path="url(#p11a1499697)" d="M 18 67.675148 
L 20.277551 67.675148 
L 22.555102 67.675148 
L 24.832653 67.675148 
L 27.110204 67.675148 
L 29.387755 67.675053 
L 31.665306 67.651385 
L 33.942857 67.515702 
L 36.220408 67.159933 
L 38.497959 66.519091 
L 40.77551 65.364241 
L 43.053061 63.854037 
L 45.330612 61.895999 
L 47.608163 59.350754 
L 49.885714 56.259077 
L 52.163265 52.905059 
L 54.440816 49.030634 
L 56.718367 44.993166 
L 58.995918 40.69371 
L 61.273469 36.580925 
L 63.55102 32.786103 
L 65.828571 29.112766 
L 68.106122 25.800883 
L 70.383673 23.39236 
L 72.661224 21.982321 
L 74.938776 22.137968 
L 77.216327 22.182237 
L 79.493878 24.030256 
L 81.771429 26.474132 
L 84.04898 29.493757 
L 86.326531 32.91065 
L 88.604082 37.289187 
L 90.881633 41.578614 
L 93.159184 45.412026 
L 95.436735 49.522436 
L 97.714286 53.358851 
L 99.991837 56.572245 
L 102.269388 59.715309 
L 104.546939 62.130231 
L 106.82449 64.135451 
L 109.102041 65.561488 
L 111.379592 66.573742 
L 113.657143 67.205461 
L 115.934694 67.546603 
L 118.212245 67.663348 
L 120.489796 67.675148 
L 122.767347 67.675148 
L 125.044898 67.675148 
L 127.322449 67.675148 
L 129.6 67.675148 
" style="fill:none;stroke:#fc8d62;stroke-dasharray:1.5,1.5;stroke-dashoffset:0;stroke-opacity:0.7;stroke-width:1.5;"/>
   </g>
   <g id="patch_3">
    <path d="M 74.938776 67.68 
L 74.938776 17.28 
" style="fill:none;stroke:#a9a9a9;stroke-linecap:square;stroke-linejoin:miter;stroke-width:2;"/>
   </g>
   <g id="patch_4">
    <path d="M 129.6 67.68 
L 129.6 17.28 
" style="fill:none;"/>
   </g>
   <g id="patch_5">
    <path d="M 18 67.675148 
L 129.6 67.675148 
" style="fill:none;stroke:#a9a9a9;stroke-linecap:square;stroke-linejoin:miter;stroke-width:2;"/>
   </g>
   <g id="patch_6">
    <path d="M 18 17.28 
L 129.6 17.28 
" style="fill:none;"/>
   </g>
   <g id="legend_1">
    <g id="line2d_8">
     <path d="M 101.475312 26.448906 
L 115.475312 26.448906 
" style="fill:none;stroke:#fc8d62;stroke-linecap:square;stroke-width:2;"/>
    </g>
    <g id="line2d_9"/>
    <g id="text_1">
     <!--   -->
     <g transform="translate(121.075312 28.898906)scale(0.07 -0.07)">
      <defs>
       <path id="DejaVuSans-32"/>
      </defs>
      <use xlink:href="#DejaVuSans-32"/>
     </g>
    </g>
    <g id="line2d_10">
     <path d="M 101.475312 36.723594 
L 115.475312 36.723594 
" style="fill:none;stroke:#fc8d62;stroke-dasharray:1.5,1.5;stroke-dashoffset:0;stroke-opacity:0.7;stroke-width:1.5;"/>
    </g>
    <g id="line2d_11"/>
    <g id="text_2">
     <!--   -->
     <g transform="translate(121.075312 39.173594)scale(0.07 -0.07)">
      <use xlink:href="#DejaVuSans-32"/>
     </g>
    </g>
   </g>
  </g>
  <g id="axes_2">
   <g id="patch_7">
    <path d="M 18 128.16 
L 129.6 128.16 
L 129.6 77.76 
L 18 77.76 
z
" style="fill:none;"/>
   </g>
   <g id="PolyCollection_3">
    <path clip-path="url(#pa043eaecde)" d="M 18 120.585292 
L 18 120.504014 
L 20.277551 120.7147 
L 22.555102 120.785152 
L 24.832653 120.718984 
L 27.110204 120.559843 
L 29.387755 120.379705 
L 31.665306 120.22234 
L 33.942857 119.948515 
L 36.220408 119.398597 
L 38.497959 118.446475 
L 40.77551 117.001274 
L 43.053061 115.011434 
L 45.330612 112.468114 
L 47.608163 109.4028 
L 49.885714 105.883167 
L 52.163265 102.009391 
L 54.440816 97.91092 
L 56.718367 93.742148 
L 58.995918 89.677636 
L 61.273469 85.906773 
L 63.55102 82.628226 
L 65.828571 80.044438 
L 68.106122 78.35654 
L 70.383673 77.76 
L 72.661224 78.441084 
L 74.938776 80.567221 
L 77.216327 84.217904 
L 79.493878 89.013714 
L 81.771429 94.517623 
L 84.04898 100.321562 
L 86.326531 106.067326 
L 88.604082 111.455922 
L 90.881633 116.252661 
L 93.159184 120.289076 
L 95.436735 123.462803 
L 97.714286 125.73579 
L 99.991837 127.130192 
L 102.269388 127.717976 
L 104.546939 127.608003 
L 106.82449 126.934571 
L 109.102041 125.84877 
L 111.379592 124.510638 
L 113.657143 123.082169 
L 115.934694 121.721908 
L 118.212245 120.582627 
L 120.489796 119.814245 
L 122.767347 119.515596 
L 125.044898 119.577543 
L 127.322449 119.84699 
L 129.6 120.190734 
L 129.6 120.298727 
L 129.6 120.298727 
L 127.322449 119.979995 
L 125.044898 119.729452 
L 122.767347 119.6784 
L 120.489796 119.982715 
L 118.212245 120.762551 
L 115.934694 121.93263 
L 113.657143 123.341238 
L 111.379592 124.824506 
L 109.102041 126.213234 
L 106.82449 127.338357 
L 104.546939 128.036984 
L 102.269388 128.16 
L 99.991837 127.58116 
L 97.714286 126.206706 
L 95.436735 123.982234 
L 93.159184 120.896886 
L 90.881633 116.988002 
L 88.604082 112.34931 
L 86.326531 107.137549 
L 84.04898 101.575661 
L 81.771429 95.951686 
L 79.493878 90.613469 
L 77.216327 85.959351 
L 74.938776 82.417518 
L 72.661224 80.35992 
L 70.383673 79.704108 
L 68.106122 80.281979 
L 65.828571 81.908629 
L 63.55102 84.391861 
L 61.273469 87.535588 
L 58.995918 91.144047 
L 56.718367 95.02655 
L 54.440816 99.002588 
L 52.163265 102.907013 
L 49.885714 106.594874 
L 47.608163 109.945656 
L 45.330612 112.866766 
L 43.053061 115.297175 
L 40.77551 117.20948 
L 38.497959 118.610131 
L 36.220408 119.539671 
L 33.942857 120.076719 
L 31.665306 120.340126 
L 29.387755 120.485834 
L 27.110204 120.649403 
L 24.832653 120.789422 
L 22.555102 120.841909 
L 20.277551 120.775209 
L 18 120.585292 
z
" style="fill:#66c2a5;fill-opacity:0.2;"/>
   </g>
   <g id="matplotlib.axis_3">
    <g id="xtick_6">
     <g id="line2d_12">
      <g>
       <use style="fill:#a9a9a9;stroke:#a9a9a9;stroke-width:2;" x="29.387755" xlink:href="#mb0c7adae0e" y="122.270089"/>
      </g>
     </g>
    </g>
    <g id="xtick_7">
     <g id="line2d_13">
      <g>
       <use style="fill:#a9a9a9;stroke:#a9a9a9;stroke-width:2;" x="52.163265" xlink:href="#mb0c7adae0e" y="122.270089"/>
      </g>
     </g>
    </g>
    <g id="xtick_8">
     <g id="line2d_14">
      <g>
       <use style="fill:#a9a9a9;stroke:#a9a9a9;stroke-width:2;" x="74.938776" xlink:href="#mb0c7adae0e" y="122.270089"/>
      </g>
     </g>
    </g>
    <g id="xtick_9">
     <g id="line2d_15">
      <g>
       <use style="fill:#a9a9a9;stroke:#a9a9a9;stroke-width:2;" x="97.714286" xlink:href="#mb0c7adae0e" y="122.270089"/>
      </g>
     </g>
    </g>
    <g id="xtick_10">
     <g id="line2d_16">
      <g>
       <use style="fill:#a9a9a9;stroke:#a9a9a9;stroke-width:2;" x="120.489796" xlink:href="#mb0c7adae0e" y="122.270089"/>
      </g>
     </g>
    </g>
   </g>
   <g id="matplotlib.axis_4"/>
   <g id="line2d_17">
    <path clip-path="url(#pa043eaecde)" d="M 18 120.544653 
L 20.277551 120.744954 
L 22.555102 120.81353 
L 24.832653 120.754203 
L 27.110204 120.604623 
L 29.387755 120.432769 
L 31.665306 120.281233 
L 33.942857 120.012617 
L 36.220408 119.469134 
L 38.497959 118.528303 
L 40.77551 117.105377 
L 43.053061 115.154304 
L 45.330612 112.66744 
L 47.608163 109.674228 
L 49.885714 106.23902 
L 52.163265 102.458202 
L 54.440816 98.456754 
L 56.718367 94.384349 
L 58.995918 90.410841 
L 61.273469 86.721181 
L 63.55102 83.510044 
L 65.828571 80.976533 
L 68.106122 79.31926 
L 70.383673 78.732054 
L 72.661224 79.400502 
L 74.938776 81.492369 
L 77.216327 85.088628 
L 79.493878 89.813591 
L 81.771429 95.234654 
L 84.04898 100.948612 
L 86.326531 106.602438 
L 88.604082 111.902616 
L 90.881633 116.620331 
L 93.159184 120.592981 
L 95.436735 123.722518 
L 97.714286 125.971248 
L 99.991837 127.355676 
L 102.269388 127.938988 
L 104.546939 127.822494 
L 106.82449 127.136464 
L 109.102041 126.031002 
L 111.379592 124.667572 
L 113.657143 123.211704 
L 115.934694 121.827269 
L 118.212245 120.672589 
L 120.489796 119.89848 
L 122.767347 119.596998 
L 125.044898 119.653498 
L 127.322449 119.913493 
L 129.6 120.24473 
" style="fill:none;stroke:#66c2a5;stroke-linecap:square;stroke-width:2;"/>
   </g>
   <g id="patch_8">
    <path d="M 74.938776 128.16 
L 74.938776 77.76 
" style="fill:none;stroke:#a9a9a9;stroke-linecap:square;stroke-linejoin:miter;stroke-width:2;"/>
   </g>
   <g id="patch_9">
    <path d="M 129.6 128.16 
L 129.6 77.76 
" style="fill:none;"/>
   </g>
   <g id="patch_10">
    <path d="M 18 122.270089 
L 129.6 122.270089 
" style="fill:none;stroke:#a9a9a9;stroke-linecap:square;stroke-linejoin:miter;stroke-width:2;"/>
   </g>
   <g id="patch_11">
    <path d="M 18 77.76 
L 129.6 77.76 
" style="fill:none;"/>
   </g>
   <g id="legend_2">
    <g id="line2d_18">
     <path d="M 101.475312 86.928906 
L 115.475312 86.928906 
" style="fill:none;stroke:#66c2a5;stroke-linecap:square;stroke-width:2;"/>
    </g>
    <g id="line2d_19"/>
    <g id="text_3">
     <!--   -->
     <g transform="translate(121.075312 89.378906)scale(0.07 -0.07)">
      <use xlink:href="#DejaVuSans-32"/>
     </g>
    </g>
   </g>
  </g>
 </g>
 <defs>
  <clipPath id="p11a1499697">
   <rect height="50.4" width="111.6" x="18" y="17.28"/>
  </clipPath>
  <clipPath id="pa043eaecde">
   <rect height="50.4" width="111.6" x="18" y="77.76"/>
  </clipPath>
 </defs>
</svg>
