<?xml version="1.0" encoding="utf-8" standalone="no"?>
<!DOCTYPE svg PUBLIC "-//W3C//DTD SVG 1.1//EN"
  "http://www.w3.org/Graphics/SVG/1.1/DTD/svg11.dtd">
<!-- Created with matplotlib (https://matplotlib.org/) -->
<svg height="144pt" version="1.1" viewBox="0 0 144 144" width="144pt" xmlns="http://www.w3.org/2000/svg" xmlns:xlink="http://www.w3.org/1999/xlink">
 <metadata>
  <rdf:RDF xmlns:cc="http://creativecommons.org/ns#" xmlns:dc="http://purl.org/dc/elements/1.1/" xmlns:rdf="http://www.w3.org/1999/02/22-rdf-syntax-ns#">
   <cc:Work>
    <dc:type rdf:resource="http://purl.org/dc/dcmitype/StillImage"/>
    <dc:date>2021-10-13T15:48:35.587088</dc:date>
    <dc:format>image/svg+xml</dc:format>
    <dc:creator>
     <cc:Agent>
      <dc:title>Matplotlib v3.3.2, https://matplotlib.org/</dc:title>
     </cc:Agent>
    </dc:creator>
   </cc:Work>
  </rdf:RDF>
 </metadata>
 <defs>
  <style type="text/css">*{stroke-linecap:butt;stroke-linejoin:round;}</style>
 </defs>
 <g id="figure_1">
  <g id="patch_1">
   <path d="M 0 144 
L 144 144 
L 144 0 
L 0 0 
z
" style="fill:none;"/>
  </g>
  <g id="axes_1">
   <g id="patch_2">
    <path d="M 18 67.68 
L 129.6 67.68 
L 129.6 17.28 
L 18 17.28 
z
" style="fill:none;"/>
   </g>
   <g id="PolyCollection_1">
    <path clip-path="url(#p4b1db2999a)" d="M 18 67.679962 
L 18 67.679962 
L 20.277551 67.679962 
L 22.555102 67.679962 
L 24.832653 67.679962 
L 27.110204 67.679962 
L 29.387755 67.679687 
L 31.665306 67.626736 
L 33.942857 67.372422 
L 36.220408 66.763991 
L 38.497959 65.711084 
L 40.77551 64.118986 
L 43.053061 61.949858 
L 45.330612 59.123062 
L 47.608163 55.804495 
L 49.885714 52.04306 
L 52.163265 47.929513 
L 54.440816 43.421786 
L 56.718367 38.882847 
L 58.995918 34.281201 
L 61.273469 29.98831 
L 63.55102 26.032947 
L 65.828571 22.560812 
L 68.106122 19.894755 
L 70.383673 18.081582 
L 72.661224 17.28 
L 74.938776 23.358287 
L 77.216327 19.220763 
L 79.493878 21.923836 
L 81.771429 25.169538 
L 84.04898 28.991467 
L 86.326531 33.118395 
L 88.604082 37.292704 
L 90.881633 41.522826 
L 93.159184 45.594462 
L 95.436735 49.471542 
L 97.714286 52.988076 
L 99.991837 56.184871 
L 102.269388 59.036725 
L 104.546939 61.457202 
L 106.82449 63.494841 
L 109.102041 65.090031 
L 111.379592 66.273163 
L 113.657143 67.036323 
L 115.934694 67.480375 
L 118.212245 67.654592 
L 120.489796 67.679962 
L 122.767347 67.679962 
L 125.044898 67.679962 
L 127.322449 67.679962 
L 129.6 67.679962 
L 129.6 67.679962 
L 129.6 67.679962 
L 127.322449 67.679962 
L 125.044898 67.679962 
L 122.767347 67.679962 
L 120.489796 67.68 
L 118.212245 67.666294 
L 115.934694 67.523793 
L 113.657143 67.123614 
L 111.379592 66.379032 
L 109.102041 65.246637 
L 106.82449 63.703571 
L 104.546939 61.776246 
L 102.269388 59.40583 
L 99.991837 56.673732 
L 97.714286 53.46209 
L 95.436735 49.978639 
L 93.159184 46.201344 
L 90.881633 42.2229 
L 88.604082 38.101419 
L 86.326531 33.937154 
L 84.04898 29.996636 
L 81.771429 26.221443 
L 79.493878 22.886211 
L 77.216327 20.387315 
L 74.938776 24.592419 
L 72.661224 18.410089 
L 70.383673 19.144252 
L 68.106122 21.032327 
L 65.828571 23.647366 
L 63.55102 27.011605 
L 61.273469 30.970411 
L 58.995918 35.222736 
L 56.718367 39.591418 
L 54.440816 44.085661 
L 52.163265 48.468554 
L 49.885714 52.600557 
L 47.608163 56.295089 
L 45.330612 59.525702 
L 43.053061 62.199556 
L 40.77551 64.297546 
L 38.497959 65.849211 
L 36.220408 66.857689 
L 33.942857 67.418232 
L 31.665306 67.645742 
L 29.387755 67.679948 
L 27.110204 67.679962 
L 24.832653 67.679962 
L 22.555102 67.679962 
L 20.277551 67.679962 
L 18 67.679962 
z
" style="fill:#fc8d62;fill-opacity:0.2;"/>
   </g>
   <g id="PolyCollection_2">
    <path clip-path="url(#p4b1db2999a)" d="M 18 67.679962 
L 18 67.679962 
L 20.277551 67.679962 
L 22.555102 67.679962 
L 24.832653 67.679962 
L 27.110204 67.679962 
L 29.387755 67.679685 
L 31.665306 67.625721 
L 33.942857 67.366222 
L 36.220408 66.755136 
L 38.497959 65.672496 
L 40.77551 64.095365 
L 43.053061 61.899964 
L 45.330612 59.179547 
L 47.608163 55.879575 
L 49.885714 52.084692 
L 52.163265 47.865818 
L 54.440816 43.240559 
L 56.718367 38.500294 
L 58.995918 33.63001 
L 61.273469 28.883951 
L 63.55102 24.253087 
L 65.828571 20.179208 
L 68.106122 16.626063 
L 70.383673 13.850623 
L 72.661224 12.139806 
L 74.938776 16.605246 
L 77.216327 12.440385 
L 79.493878 14.382854 
L 81.771429 17.351431 
L 84.04898 21.070545 
L 86.326531 25.278661 
L 88.604082 29.894893 
L 90.881633 34.682759 
L 93.159184 39.549772 
L 95.436735 44.309642 
L 97.714286 48.842407 
L 99.991837 52.98724 
L 102.269388 56.664758 
L 104.546939 59.869408 
L 106.82449 62.424425 
L 109.102041 64.522465 
L 111.379592 65.966101 
L 113.657143 66.929706 
L 115.934694 67.449453 
L 118.212245 67.65053 
L 120.489796 67.679956 
L 122.767347 67.679962 
L 125.044898 67.679962 
L 127.322449 67.679962 
L 129.6 67.679962 
L 129.6 67.679962 
L 129.6 67.679962 
L 127.322449 67.679962 
L 125.044898 67.679962 
L 122.767347 67.679962 
L 120.489796 67.680002 
L 118.212245 67.663974 
L 115.934694 67.498871 
L 113.657143 67.025515 
L 111.379592 66.135309 
L 109.102041 64.719739 
L 106.82449 62.778102 
L 104.546939 60.174804 
L 102.269388 57.128884 
L 99.991837 53.547133 
L 97.714286 49.469962 
L 95.436735 45.055452 
L 93.159184 40.388695 
L 90.881633 35.598031 
L 88.604082 30.906889 
L 86.326531 26.309922 
L 84.04898 22.147131 
L 81.771429 18.416873 
L 79.493878 15.611735 
L 77.216327 13.666468 
L 74.938776 18.042556 
L 72.661224 13.39005 
L 70.383673 15.104584 
L 68.106122 17.760699 
L 65.828571 21.224841 
L 63.55102 25.318357 
L 61.273469 29.825141 
L 58.995918 34.615705 
L 56.718367 39.35072 
L 54.440816 44.01166 
L 52.163265 48.534066 
L 49.885714 52.650228 
L 47.608163 56.346197 
L 45.330612 59.581633 
L 43.053061 62.235762 
L 40.77551 64.311786 
L 38.497959 65.858236 
L 36.220408 66.853785 
L 33.942857 67.420647 
L 31.665306 67.6463 
L 29.387755 67.679987 
L 27.110204 67.679962 
L 24.832653 67.679962 
L 22.555102 67.679962 
L 20.277551 67.679962 
L 18 67.679962 
z
" style="fill:#fc8d62;fill-opacity:0.2;"/>
   </g>
   <g id="matplotlib.axis_1">
    <g id="xtick_1">
     <g id="line2d_1">
      <defs>
       <path d="M 0 0 
L 0 3.5 
" id="med8fb7bd50" style="stroke:#a9a9a9;stroke-width:2;"/>
      </defs>
      <g>
       <use style="fill:#a9a9a9;stroke:#a9a9a9;stroke-width:2;" x="29.387755" xlink:href="#med8fb7bd50" y="67.679962"/>
      </g>
     </g>
    </g>
    <g id="xtick_2">
     <g id="line2d_2">
      <g>
       <use style="fill:#a9a9a9;stroke:#a9a9a9;stroke-width:2;" x="52.163265" xlink:href="#med8fb7bd50" y="67.679962"/>
      </g>
     </g>
    </g>
    <g id="xtick_3">
     <g id="line2d_3">
      <g>
       <use style="fill:#a9a9a9;stroke:#a9a9a9;stroke-width:2;" x="74.938776" xlink:href="#med8fb7bd50" y="67.679962"/>
      </g>
     </g>
    </g>
    <g id="xtick_4">
     <g id="line2d_4">
      <g>
       <use style="fill:#a9a9a9;stroke:#a9a9a9;stroke-width:2;" x="97.714286" xlink:href="#med8fb7bd50" y="67.679962"/>
      </g>
     </g>
    </g>
    <g id="xtick_5">
     <g id="line2d_5">
      <g>
       <use style="fill:#a9a9a9;stroke:#a9a9a9;stroke-width:2;" x="120.489796" xlink:href="#med8fb7bd50" y="67.679962"/>
      </g>
     </g>
    </g>
   </g>
   <g id="matplotlib.axis_2"/>
   <g id="line2d_6">
    <path clip-path="url(#p4b1db2999a)" d="M 18 67.679962 
L 20.277551 67.679962 
L 22.555102 67.679962 
L 24.832653 67.679962 
L 27.110204 67.679962 
L 29.387755 67.679817 
L 31.665306 67.636239 
L 33.942857 67.395327 
L 36.220408 66.81084 
L 38.497959 65.780147 
L 40.77551 64.208266 
L 43.053061 62.074707 
L 45.330612 59.324382 
L 47.608163 56.049792 
L 49.885714 52.321808 
L 52.163265 48.199034 
L 54.440816 43.753723 
L 56.718367 39.237132 
L 58.995918 34.751969 
L 61.273469 30.47936 
L 63.55102 26.522276 
L 65.828571 23.104089 
L 68.106122 20.463541 
L 70.383673 18.612917 
L 72.661224 17.845044 
L 74.938776 23.975353 
L 77.216327 19.804039 
L 79.493878 22.405024 
L 81.771429 25.69549 
L 84.04898 29.494052 
L 86.326531 33.527775 
L 88.604082 37.697061 
L 90.881633 41.872863 
L 93.159184 45.897903 
L 95.436735 49.725091 
L 97.714286 53.225083 
L 99.991837 56.429301 
L 102.269388 59.221278 
L 104.546939 61.616724 
L 106.82449 63.599206 
L 109.102041 65.168334 
L 111.379592 66.326097 
L 113.657143 67.079968 
L 115.934694 67.502084 
L 118.212245 67.660443 
L 120.489796 67.679981 
L 122.767347 67.679962 
L 125.044898 67.679962 
L 127.322449 67.679962 
L 129.6 67.679962 
" style="fill:none;stroke:#fc8d62;stroke-linecap:square;stroke-width:2;"/>
   </g>
   <g id="line2d_7">
    <path clip-path="url(#p4b1db2999a)" d="M 18 67.679962 
L 20.277551 67.679962 
L 22.555102 67.679962 
L 24.832653 67.679962 
L 27.110204 67.679962 
L 29.387755 67.679836 
L 31.665306 67.636011 
L 33.942857 67.393435 
L 36.220408 66.80446 
L 38.497959 65.765366 
L 40.77551 64.203575 
L 43.053061 62.067863 
L 45.330612 59.38059 
L 47.608163 56.112886 
L 49.885714 52.36746 
L 52.163265 48.199942 
L 54.440816 43.626109 
L 56.718367 38.925507 
L 58.995918 34.122858 
L 61.273469 29.354546 
L 63.55102 24.785722 
L 65.828571 20.702024 
L 68.106122 17.193381 
L 70.383673 14.477603 
L 72.661224 12.764928 
L 74.938776 17.323901 
L 77.216327 13.053426 
L 79.493878 14.997294 
L 81.771429 17.884152 
L 84.04898 21.608838 
L 86.326531 25.794292 
L 88.604082 30.400891 
L 90.881633 35.140395 
L 93.159184 39.969233 
L 95.436735 44.682547 
L 97.714286 49.156185 
L 99.991837 53.267186 
L 102.269388 56.896821 
L 104.546939 60.022106 
L 106.82449 62.601264 
L 109.102041 64.621102 
L 111.379592 66.050705 
L 113.657143 66.97761 
L 115.934694 67.474162 
L 118.212245 67.657252 
L 120.489796 67.679979 
L 122.767347 67.679962 
L 125.044898 67.679962 
L 127.322449 67.679962 
L 129.6 67.679962 
" style="fill:none;stroke:#fc8d62;stroke-dasharray:1.5,1.5;stroke-dashoffset:0;stroke-opacity:0.7;stroke-width:1.5;"/>
   </g>
   <g id="patch_3">
    <path d="M 74.938776 67.68 
L 74.938776 17.28 
" style="fill:none;stroke:#a9a9a9;stroke-linecap:square;stroke-linejoin:miter;stroke-width:2;"/>
   </g>
   <g id="patch_4">
    <path d="M 129.6 67.68 
L 129.6 17.28 
" style="fill:none;"/>
   </g>
   <g id="patch_5">
    <path d="M 18 67.679962 
L 129.6 67.679962 
" style="fill:none;stroke:#a9a9a9;stroke-linecap:square;stroke-linejoin:miter;stroke-width:2;"/>
   </g>
   <g id="patch_6">
    <path d="M 18 17.28 
L 129.6 17.28 
" style="fill:none;"/>
   </g>
   <g id="legend_1">
    <g id="line2d_8">
     <path d="M 55.985 47.199531 
L 69.985 47.199531 
" style="fill:none;stroke:#fc8d62;stroke-linecap:square;stroke-width:2;"/>
    </g>
    <g id="line2d_9"/>
    <g id="text_1">
     <!-- $\theta$ -->
     <g transform="translate(75.585 49.649531)scale(0.07 -0.07)">
      <defs>
       <path d="M 45.515625 34.671875 
L 14.453125 34.671875 
Q 12.359375 20.0625 14.5 13.875 
Q 17.1875 6.25 24.46875 6.25 
Q 31.78125 6.25 37.359375 13.921875 
Q 42.234375 20.65625 45.515625 34.671875 
z
M 47.015625 42.96875 
Q 48.34375 56.84375 46.625 61.71875 
Q 43.953125 69.4375 36.765625 69.4375 
Q 29.296875 69.4375 23.828125 61.8125 
Q 19.53125 55.671875 16.15625 42.96875 
z
M 38.1875 76.765625 
Q 49.90625 76.765625 54.59375 66.40625 
Q 59.28125 56.109375 55.71875 37.84375 
Q 52.203125 19.625 43.453125 9.28125 
Q 34.765625 -1.125 23.046875 -1.125 
Q 11.28125 -1.125 6.640625 9.28125 
Q 2 19.625 5.515625 37.84375 
Q 9.078125 56.109375 17.71875 66.40625 
Q 26.421875 76.765625 38.1875 76.765625 
z
" id="DejaVuSans-Oblique-952"/>
      </defs>
      <use transform="translate(0 0.234375)" xlink:href="#DejaVuSans-Oblique-952"/>
     </g>
    </g>
    <g id="line2d_10">
     <path d="M 55.985 57.474219 
L 69.985 57.474219 
" style="fill:none;stroke:#fc8d62;stroke-dasharray:1.5,1.5;stroke-dashoffset:0;stroke-opacity:0.7;stroke-width:1.5;"/>
    </g>
    <g id="line2d_11"/>
    <g id="text_2">
     <!-- No $\theta$ -->
     <g transform="translate(75.585 59.924219)scale(0.07 -0.07)">
      <defs>
       <path d="M 9.8125 72.90625 
L 23.09375 72.90625 
L 55.421875 11.921875 
L 55.421875 72.90625 
L 64.984375 72.90625 
L 64.984375 0 
L 51.703125 0 
L 19.390625 60.984375 
L 19.390625 0 
L 9.8125 0 
z
" id="DejaVuSans-78"/>
       <path d="M 30.609375 48.390625 
Q 23.390625 48.390625 19.1875 42.75 
Q 14.984375 37.109375 14.984375 27.296875 
Q 14.984375 17.484375 19.15625 11.84375 
Q 23.34375 6.203125 30.609375 6.203125 
Q 37.796875 6.203125 41.984375 11.859375 
Q 46.1875 17.53125 46.1875 27.296875 
Q 46.1875 37.015625 41.984375 42.703125 
Q 37.796875 48.390625 30.609375 48.390625 
z
M 30.609375 56 
Q 42.328125 56 49.015625 48.375 
Q 55.71875 40.765625 55.71875 27.296875 
Q 55.71875 13.875 49.015625 6.21875 
Q 42.328125 -1.421875 30.609375 -1.421875 
Q 18.84375 -1.421875 12.171875 6.21875 
Q 5.515625 13.875 5.515625 27.296875 
Q 5.515625 40.765625 12.171875 48.375 
Q 18.84375 56 30.609375 56 
z
" id="DejaVuSans-111"/>
       <path id="DejaVuSans-32"/>
      </defs>
      <use transform="translate(0 0.234375)" xlink:href="#DejaVuSans-78"/>
      <use transform="translate(74.804688 0.234375)" xlink:href="#DejaVuSans-111"/>
      <use transform="translate(135.986328 0.234375)" xlink:href="#DejaVuSans-32"/>
      <use transform="translate(167.773438 0.234375)" xlink:href="#DejaVuSans-Oblique-952"/>
     </g>
    </g>
   </g>
  </g>
  <g id="axes_2">
   <g id="patch_7">
    <path d="M 18 128.16 
L 129.6 128.16 
L 129.6 77.76 
L 18 77.76 
z
" style="fill:none;"/>
   </g>
   <g id="PolyCollection_3">
    <path clip-path="url(#pe75b3d7130)" d="M 18 120.509016 
L 18 120.431979 
L 20.277551 120.651409 
L 22.555102 120.714637 
L 24.832653 120.62983 
L 27.110204 120.446074 
L 29.387755 120.242182 
L 31.665306 120.067941 
L 33.942857 119.782426 
L 36.220408 119.223401 
L 38.497959 118.263654 
L 40.77551 116.811851 
L 43.053061 114.816896 
L 45.330612 112.270503 
L 47.608163 109.204469 
L 49.885714 105.686933 
L 52.163265 101.818702 
L 54.440816 97.729542 
L 56.718367 93.573795 
L 58.995918 89.526 
L 61.273469 85.775606 
L 63.55102 82.5215 
L 65.828571 79.966732 
L 68.106122 78.313696 
L 70.383673 77.76 
L 72.661224 78.495235 
L 74.938776 80.688535 
L 77.216327 84.430101 
L 79.493878 89.317929 
L 81.771429 94.903179 
L 84.04898 100.766969 
L 86.326531 106.544459 
L 88.604082 111.933858 
L 90.881633 116.701348 
L 93.159184 120.682176 
L 95.436735 123.779585 
L 97.714286 125.962434 
L 99.991837 127.259855 
L 102.269388 127.749624 
L 104.546939 127.545973 
L 106.82449 126.788287 
L 109.102041 125.631732 
L 111.379592 124.239357 
L 113.657143 122.775222 
L 115.934694 121.39924 
L 118.212245 120.265261 
L 120.489796 119.523859 
L 122.767347 119.270907 
L 125.044898 119.386825 
L 127.322449 119.70779 
L 129.6 120.092725 
L 129.6 120.195693 
L 129.6 120.195693 
L 127.322449 119.835924 
L 125.044898 119.534755 
L 122.767347 119.431027 
L 120.489796 119.690525 
L 118.212245 120.442782 
L 115.934694 121.603723 
L 113.657143 123.022264 
L 111.379592 124.535195 
L 109.102041 125.972988 
L 106.82449 127.164971 
L 104.546939 127.945189 
L 102.269388 128.16 
L 99.991837 127.677303 
L 97.714286 126.395923 
L 95.436735 124.253393 
L 93.159184 121.231902 
L 90.881633 117.362915 
L 88.604082 112.735543 
L 86.326531 107.504122 
L 84.04898 101.891945 
L 81.771429 96.190644 
L 79.493878 90.755674 
L 77.216327 85.997087 
L 74.938776 82.355566 
L 72.661224 80.226664 
L 70.383673 79.516712 
L 68.106122 80.055815 
L 65.828571 81.655504 
L 63.55102 84.121053 
L 61.273469 87.254612 
L 58.995918 90.859126 
L 56.718367 94.742922 
L 54.440816 98.724693 
L 52.163265 102.638486 
L 49.885714 106.338403 
L 47.608163 109.703102 
L 45.330612 112.639191 
L 43.053061 115.084497 
L 40.77551 117.010423 
L 38.497959 118.422969 
L 36.220408 119.363117 
L 33.942857 119.910482 
L 31.665306 120.186239 
L 29.387755 120.349445 
L 27.110204 120.537258 
L 24.832653 120.701989 
L 22.555102 120.771938 
L 20.277551 120.709739 
L 18 120.509016 
z
" style="fill:#66c2a5;fill-opacity:0.2;"/>
   </g>
   <g id="matplotlib.axis_3">
    <g id="xtick_6">
     <g id="line2d_12">
      <g>
       <use style="fill:#a9a9a9;stroke:#a9a9a9;stroke-width:2;" x="29.387755" xlink:href="#med8fb7bd50" y="122.167537"/>
      </g>
     </g>
    </g>
    <g id="xtick_7">
     <g id="line2d_13">
      <g>
       <use style="fill:#a9a9a9;stroke:#a9a9a9;stroke-width:2;" x="52.163265" xlink:href="#med8fb7bd50" y="122.167537"/>
      </g>
     </g>
    </g>
    <g id="xtick_8">
     <g id="line2d_14">
      <g>
       <use style="fill:#a9a9a9;stroke:#a9a9a9;stroke-width:2;" x="74.938776" xlink:href="#med8fb7bd50" y="122.167537"/>
      </g>
     </g>
    </g>
    <g id="xtick_9">
     <g id="line2d_15">
      <g>
       <use style="fill:#a9a9a9;stroke:#a9a9a9;stroke-width:2;" x="97.714286" xlink:href="#med8fb7bd50" y="122.167537"/>
      </g>
     </g>
    </g>
    <g id="xtick_10">
     <g id="line2d_16">
      <g>
       <use style="fill:#a9a9a9;stroke:#a9a9a9;stroke-width:2;" x="120.489796" xlink:href="#med8fb7bd50" y="122.167537"/>
      </g>
     </g>
    </g>
   </g>
   <g id="matplotlib.axis_4"/>
   <g id="line2d_17">
    <path clip-path="url(#pe75b3d7130)" d="M 18 120.470498 
L 20.277551 120.680574 
L 22.555102 120.743287 
L 24.832653 120.66591 
L 27.110204 120.491666 
L 29.387755 120.295814 
L 31.665306 120.12709 
L 33.942857 119.846454 
L 36.220408 119.293259 
L 38.497959 118.343312 
L 40.77551 116.911137 
L 43.053061 114.950696 
L 45.330612 112.454847 
L 47.608163 109.453786 
L 49.885714 106.012668 
L 52.163265 102.228594 
L 54.440816 98.227117 
L 56.718367 94.158359 
L 58.995918 90.192563 
L 61.273469 86.515109 
L 63.55102 83.321277 
L 65.828571 80.811118 
L 68.106122 79.184756 
L 70.383673 78.638356 
L 72.661224 79.360949 
L 74.938776 81.52205 
L 77.216327 85.213594 
L 79.493878 90.036802 
L 81.771429 95.546912 
L 84.04898 101.329457 
L 86.326531 107.024291 
L 88.604082 112.334701 
L 90.881633 117.032131 
L 93.159184 120.957039 
L 95.436735 124.016489 
L 97.714286 126.179178 
L 99.991837 127.468579 
L 102.269388 127.954812 
L 104.546939 127.745581 
L 106.82449 126.976629 
L 109.102041 125.80236 
L 111.379592 124.387276 
L 113.657143 122.898743 
L 115.934694 121.501481 
L 118.212245 120.354021 
L 120.489796 119.607192 
L 122.767347 119.350967 
L 125.044898 119.46079 
L 127.322449 119.771857 
L 129.6 120.144209 
" style="fill:none;stroke:#66c2a5;stroke-linecap:square;stroke-width:2;"/>
   </g>
   <g id="patch_8">
    <path d="M 74.938776 128.16 
L 74.938776 77.76 
" style="fill:none;stroke:#a9a9a9;stroke-linecap:square;stroke-linejoin:miter;stroke-width:2;"/>
   </g>
   <g id="patch_9">
    <path d="M 129.6 128.16 
L 129.6 77.76 
" style="fill:none;"/>
   </g>
   <g id="patch_10">
    <path d="M 18 122.167537 
L 129.6 122.167537 
" style="fill:none;stroke:#a9a9a9;stroke-linecap:square;stroke-linejoin:miter;stroke-width:2;"/>
   </g>
   <g id="patch_11">
    <path d="M 18 77.76 
L 129.6 77.76 
" style="fill:none;"/>
   </g>
  </g>
 </g>
 <defs>
  <clipPath id="p4b1db2999a">
   <rect height="50.4" width="111.6" x="18" y="17.28"/>
  </clipPath>
  <clipPath id="pe75b3d7130">
   <rect height="50.4" width="111.6" x="18" y="77.76"/>
  </clipPath>
 </defs>
</svg>
