<?xml version="1.0" encoding="utf-8" standalone="no"?>
<!DOCTYPE svg PUBLIC "-//W3C//DTD SVG 1.1//EN"
  "http://www.w3.org/Graphics/SVG/1.1/DTD/svg11.dtd">
<!-- Created with matplotlib (https://matplotlib.org/) -->
<svg height="144pt" version="1.1" viewBox="0 0 144 144" width="144pt" xmlns="http://www.w3.org/2000/svg" xmlns:xlink="http://www.w3.org/1999/xlink">
 <metadata>
  <rdf:RDF xmlns:cc="http://creativecommons.org/ns#" xmlns:dc="http://purl.org/dc/elements/1.1/" xmlns:rdf="http://www.w3.org/1999/02/22-rdf-syntax-ns#">
   <cc:Work>
    <dc:type rdf:resource="http://purl.org/dc/dcmitype/StillImage"/>
    <dc:date>2021-10-14T20:14:05.747891</dc:date>
    <dc:format>image/svg+xml</dc:format>
    <dc:creator>
     <cc:Agent>
      <dc:title>Matplotlib v3.3.2, https://matplotlib.org/</dc:title>
     </cc:Agent>
    </dc:creator>
   </cc:Work>
  </rdf:RDF>
 </metadata>
 <defs>
  <style type="text/css">*{stroke-linecap:butt;stroke-linejoin:round;}</style>
 </defs>
 <g id="figure_1">
  <g id="patch_1">
   <path d="M 0 144 
L 144 144 
L 144 0 
L 0 0 
z
" style="fill:none;"/>
  </g>
  <g id="axes_1">
   <g id="patch_2">
    <path d="M 18 67.68 
L 129.6 67.68 
L 129.6 17.28 
L 18 17.28 
z
" style="fill:none;"/>
   </g>
   <g id="PolyCollection_1">
    <path clip-path="url(#pbf68c60c69)" d="M 18 65.446352 
L 18 65.446352 
L 20.277551 65.446352 
L 22.555102 65.446352 
L 24.832653 65.446352 
L 27.110204 65.446352 
L 29.387755 65.446351 
L 31.665306 65.333064 
L 33.942857 65.039385 
L 36.220408 64.452686 
L 38.497959 63.47251 
L 40.77551 62.477879 
L 43.053061 60.220602 
L 45.330612 57.116222 
L 47.608163 53.230106 
L 49.885714 48.369864 
L 52.163265 43.183684 
L 54.440816 38.277698 
L 56.718367 34.106911 
L 58.995918 29.329538 
L 61.273469 25.26323 
L 63.55102 20.891919 
L 65.828571 18.515201 
L 68.106122 17.28 
L 70.383673 21.307285 
L 72.661224 22.68122 
L 74.938776 31.377884 
L 77.216327 31.232501 
L 79.493878 37.316401 
L 81.771429 42.828111 
L 84.04898 46.641334 
L 86.326531 52.132772 
L 88.604082 54.846078 
L 90.881633 56.752605 
L 93.159184 57.760757 
L 95.436735 60.822359 
L 97.714286 61.945895 
L 99.991837 62.784884 
L 102.269388 62.415303 
L 104.546939 63.172644 
L 106.82449 63.005064 
L 109.102041 63.8919 
L 111.379592 64.180528 
L 113.657143 64.772937 
L 115.934694 65.107215 
L 118.212245 65.376127 
L 120.489796 65.446352 
L 122.767347 65.446352 
L 125.044898 65.446352 
L 127.322449 65.446352 
L 129.6 65.446352 
L 129.6 65.446352 
L 129.6 65.446352 
L 127.322449 65.446352 
L 125.044898 65.446352 
L 122.767347 65.446352 
L 120.489796 65.446352 
L 118.212245 65.529238 
L 115.934694 65.640592 
L 113.657143 65.783143 
L 111.379592 65.849805 
L 109.102041 65.476509 
L 106.82449 65.57405 
L 104.546939 66.164778 
L 102.269388 66.494532 
L 99.991837 67.241151 
L 97.714286 67.68 
L 95.436735 67.180877 
L 93.159184 66.100864 
L 90.881633 64.709692 
L 88.604082 62.645301 
L 86.326531 61.593843 
L 84.04898 58.457892 
L 81.771429 54.440647 
L 79.493878 47.609418 
L 77.216327 44.563241 
L 74.938776 35.385834 
L 72.661224 35.841852 
L 70.383673 32.371292 
L 68.106122 30.601623 
L 65.828571 31.086794 
L 63.55102 30.99495 
L 61.273469 34.126827 
L 58.995918 38.331631 
L 56.718367 42.52242 
L 54.440816 45.459119 
L 52.163265 49.73234 
L 49.885714 53.589308 
L 47.608163 57.922401 
L 45.330612 60.107694 
L 43.053061 63.058184 
L 40.77551 64.208202 
L 38.497959 65.19264 
L 36.220408 65.401419 
L 33.942857 65.602545 
L 31.665306 65.503669 
L 29.387755 65.446353 
L 27.110204 65.446352 
L 24.832653 65.446352 
L 22.555102 65.446352 
L 20.277551 65.446352 
L 18 65.446352 
z
" style="fill:#fc8d62;fill-opacity:0.2;"/>
   </g>
   <g id="PolyCollection_2">
    <path clip-path="url(#pbf68c60c69)" d="M 18 65.446352 
L 18 65.446352 
L 20.277551 65.446352 
L 22.555102 65.446352 
L 24.832653 65.446352 
L 27.110204 65.446352 
L 29.387755 65.446233 
L 31.665306 65.298088 
L 33.942857 64.93341 
L 36.220408 64.383896 
L 38.497959 63.989813 
L 40.77551 62.492965 
L 43.053061 61.213588 
L 45.330612 59.957702 
L 47.608163 56.989078 
L 49.885714 55.264649 
L 52.163265 51.907145 
L 54.440816 48.961261 
L 56.718367 47.195869 
L 58.995918 42.523101 
L 61.273469 40.585774 
L 63.55102 37.218206 
L 65.828571 35.681478 
L 68.106122 33.050434 
L 70.383673 30.855403 
L 72.661224 30.901384 
L 74.938776 32.645733 
L 77.216327 27.575199 
L 79.493878 30.284952 
L 81.771429 32.396262 
L 84.04898 34.022041 
L 86.326531 38.031954 
L 88.604082 41.850351 
L 90.881633 44.334776 
L 93.159184 47.31594 
L 95.436735 50.549875 
L 97.714286 53.640291 
L 99.991837 56.289653 
L 102.269388 57.900734 
L 104.546939 59.651077 
L 106.82449 61.781114 
L 109.102041 62.716084 
L 111.379592 63.884544 
L 113.657143 64.640788 
L 115.934694 65.08464 
L 118.212245 65.345667 
L 120.489796 65.446337 
L 122.767347 65.446352 
L 125.044898 65.446352 
L 127.322449 65.446352 
L 129.6 65.446352 
L 129.6 65.446352 
L 129.6 65.446352 
L 127.322449 65.446352 
L 125.044898 65.446352 
L 122.767347 65.446352 
L 120.489796 65.446372 
L 118.212245 65.557156 
L 115.934694 65.725254 
L 113.657143 65.819506 
L 111.379592 65.365672 
L 109.102041 65.604342 
L 106.82449 64.661102 
L 104.546939 63.489237 
L 102.269388 62.787739 
L 99.991837 60.635164 
L 97.714286 59.069263 
L 95.436735 57.047541 
L 93.159184 53.766097 
L 90.881633 52.822313 
L 88.604082 49.098456 
L 86.326531 46.471415 
L 84.04898 43.482137 
L 81.771429 41.869637 
L 79.493878 40.653152 
L 77.216327 38.967933 
L 74.938776 36.393244 
L 72.661224 40.703789 
L 70.383673 40.876315 
L 68.106122 42.176777 
L 65.828571 45.053835 
L 63.55102 45.925003 
L 61.273469 47.666494 
L 58.995918 50.313116 
L 56.718367 53.43364 
L 54.440816 55.756459 
L 52.163265 58.098457 
L 49.885714 59.769426 
L 47.608163 62.086384 
L 45.330612 63.462962 
L 43.053061 64.263025 
L 40.77551 65.26218 
L 38.497959 65.49378 
L 36.220408 65.587742 
L 33.942857 65.619647 
L 31.665306 65.525637 
L 29.387755 65.446442 
L 27.110204 65.446352 
L 24.832653 65.446352 
L 22.555102 65.446352 
L 20.277551 65.446352 
L 18 65.446352 
z
" style="fill:#fc8d62;fill-opacity:0.2;"/>
   </g>
   <g id="matplotlib.axis_1">
    <g id="xtick_1">
     <g id="line2d_1">
      <defs>
       <path d="M 0 0 
L 0 3.5 
" id="m8947cad0d4" style="stroke:#a9a9a9;stroke-width:2;"/>
      </defs>
      <g>
       <use style="fill:#a9a9a9;stroke:#a9a9a9;stroke-width:2;" x="29.387755" xlink:href="#m8947cad0d4" y="65.446352"/>
      </g>
     </g>
    </g>
    <g id="xtick_2">
     <g id="line2d_2">
      <g>
       <use style="fill:#a9a9a9;stroke:#a9a9a9;stroke-width:2;" x="52.163265" xlink:href="#m8947cad0d4" y="65.446352"/>
      </g>
     </g>
    </g>
    <g id="xtick_3">
     <g id="line2d_3">
      <g>
       <use style="fill:#a9a9a9;stroke:#a9a9a9;stroke-width:2;" x="74.938776" xlink:href="#m8947cad0d4" y="65.446352"/>
      </g>
     </g>
    </g>
    <g id="xtick_4">
     <g id="line2d_4">
      <g>
       <use style="fill:#a9a9a9;stroke:#a9a9a9;stroke-width:2;" x="97.714286" xlink:href="#m8947cad0d4" y="65.446352"/>
      </g>
     </g>
    </g>
    <g id="xtick_5">
     <g id="line2d_5">
      <g>
       <use style="fill:#a9a9a9;stroke:#a9a9a9;stroke-width:2;" x="120.489796" xlink:href="#m8947cad0d4" y="65.446352"/>
      </g>
     </g>
    </g>
   </g>
   <g id="matplotlib.axis_2"/>
   <g id="line2d_6">
    <path clip-path="url(#pbf68c60c69)" d="M 18 65.446352 
L 20.277551 65.446352 
L 22.555102 65.446352 
L 24.832653 65.446352 
L 27.110204 65.446352 
L 29.387755 65.446352 
L 31.665306 65.418366 
L 33.942857 65.320965 
L 36.220408 64.927052 
L 38.497959 64.332575 
L 40.77551 63.343041 
L 43.053061 61.639393 
L 45.330612 58.611958 
L 47.608163 55.576253 
L 49.885714 50.979586 
L 52.163265 46.458012 
L 54.440816 41.868409 
L 56.718367 38.314665 
L 58.995918 33.830584 
L 61.273469 29.695028 
L 63.55102 25.943434 
L 65.828571 24.800997 
L 68.106122 23.940811 
L 70.383673 26.839288 
L 72.661224 29.261536 
L 74.938776 33.381859 
L 77.216327 37.897871 
L 79.493878 42.462909 
L 81.771429 48.634379 
L 84.04898 52.549613 
L 86.326531 56.863307 
L 88.604082 58.745689 
L 90.881633 60.731149 
L 93.159184 61.93081 
L 95.436735 64.001618 
L 97.714286 64.812948 
L 99.991837 65.013018 
L 102.269388 64.454918 
L 104.546939 64.668711 
L 106.82449 64.289557 
L 109.102041 64.684205 
L 111.379592 65.015166 
L 113.657143 65.27804 
L 115.934694 65.373904 
L 118.212245 65.452683 
L 120.489796 65.446352 
L 122.767347 65.446352 
L 125.044898 65.446352 
L 127.322449 65.446352 
L 129.6 65.446352 
" style="fill:none;stroke:#fc8d62;stroke-linecap:square;stroke-width:2;"/>
   </g>
   <g id="line2d_7">
    <path clip-path="url(#pbf68c60c69)" d="M 18 65.446352 
L 20.277551 65.446352 
L 22.555102 65.446352 
L 24.832653 65.446352 
L 27.110204 65.446352 
L 29.387755 65.446337 
L 31.665306 65.411863 
L 33.942857 65.276529 
L 36.220408 64.985819 
L 38.497959 64.741797 
L 40.77551 63.877573 
L 43.053061 62.738306 
L 45.330612 61.710332 
L 47.608163 59.537731 
L 49.885714 57.517038 
L 52.163265 55.002801 
L 54.440816 52.35886 
L 56.718367 50.314754 
L 58.995918 46.418108 
L 61.273469 44.126134 
L 63.55102 41.571605 
L 65.828571 40.367657 
L 68.106122 37.613606 
L 70.383673 35.865859 
L 72.661224 35.802587 
L 74.938776 34.519489 
L 77.216327 33.271566 
L 79.493878 35.469052 
L 81.771429 37.132949 
L 84.04898 38.752089 
L 86.326531 42.251685 
L 88.604082 45.474403 
L 90.881633 48.578545 
L 93.159184 50.541019 
L 95.436735 53.798708 
L 97.714286 56.354777 
L 99.991837 58.462409 
L 102.269388 60.344236 
L 104.546939 61.570157 
L 106.82449 63.221108 
L 109.102041 64.160213 
L 111.379592 64.625108 
L 113.657143 65.230147 
L 115.934694 65.404947 
L 118.212245 65.451412 
L 120.489796 65.446355 
L 122.767347 65.446352 
L 125.044898 65.446352 
L 127.322449 65.446352 
L 129.6 65.446352 
" style="fill:none;stroke:#fc8d62;stroke-dasharray:1.5,1.5;stroke-dashoffset:0;stroke-opacity:0.7;stroke-width:1.5;"/>
   </g>
   <g id="patch_3">
    <path d="M 74.938776 67.68 
L 74.938776 17.28 
" style="fill:none;stroke:#a9a9a9;stroke-linecap:square;stroke-linejoin:miter;stroke-width:2;"/>
   </g>
   <g id="patch_4">
    <path d="M 129.6 67.68 
L 129.6 17.28 
" style="fill:none;"/>
   </g>
   <g id="patch_5">
    <path d="M 18 65.446352 
L 129.6 65.446352 
" style="fill:none;stroke:#a9a9a9;stroke-linecap:square;stroke-linejoin:miter;stroke-width:2;"/>
   </g>
   <g id="patch_6">
    <path d="M 18 17.28 
L 129.6 17.28 
" style="fill:none;"/>
   </g>
   <g id="legend_1">
    <g id="line2d_8">
     <path d="M 101.475312 26.448906 
L 115.475312 26.448906 
" style="fill:none;stroke:#fc8d62;stroke-linecap:square;stroke-width:2;"/>
    </g>
    <g id="line2d_9"/>
    <g id="text_1">
     <!--   -->
     <g transform="translate(121.075312 28.898906)scale(0.07 -0.07)">
      <defs>
       <path id="DejaVuSans-32"/>
      </defs>
      <use xlink:href="#DejaVuSans-32"/>
     </g>
    </g>
    <g id="line2d_10">
     <path d="M 101.475312 36.723594 
L 115.475312 36.723594 
" style="fill:none;stroke:#fc8d62;stroke-dasharray:1.5,1.5;stroke-dashoffset:0;stroke-opacity:0.7;stroke-width:1.5;"/>
    </g>
    <g id="line2d_11"/>
    <g id="text_2">
     <!--   -->
     <g transform="translate(121.075312 39.173594)scale(0.07 -0.07)">
      <use xlink:href="#DejaVuSans-32"/>
     </g>
    </g>
   </g>
  </g>
  <g id="axes_2">
   <g id="patch_7">
    <path d="M 18 128.16 
L 129.6 128.16 
L 129.6 77.76 
L 18 77.76 
z
" style="fill:none;"/>
   </g>
   <g id="PolyCollection_3">
    <path clip-path="url(#p0f3cbe9380)" d="M 18 120.587742 
L 18 120.503364 
L 20.277551 120.712858 
L 22.555102 120.78428 
L 24.832653 120.720486 
L 27.110204 120.564375 
L 29.387755 120.387401 
L 31.665306 120.232486 
L 33.942857 119.960792 
L 36.220408 119.412852 
L 38.497959 118.462226 
L 40.77551 117.017811 
L 43.053061 115.028208 
L 45.330612 112.484911 
L 47.608163 109.419113 
L 49.885714 105.898437 
L 52.163265 102.023316 
L 54.440816 97.923332 
L 56.718367 93.752914 
L 58.995918 89.686716 
L 61.273469 85.914214 
L 63.55102 82.63408 
L 65.828571 80.048658 
L 68.106122 78.358907 
L 70.383673 77.76 
L 72.661224 78.437764 
L 74.938776 80.558858 
L 77.216327 84.202437 
L 79.493878 88.990179 
L 81.771429 94.486518 
L 84.04898 100.28439 
L 86.326531 106.026264 
L 88.604082 111.413547 
L 90.881633 116.211824 
L 93.159184 120.252566 
L 95.436735 123.432809 
L 97.714286 125.713744 
L 99.991837 127.116791 
L 102.269388 127.71336 
L 104.546939 127.611871 
L 106.82449 126.946389 
L 109.102041 125.867667 
L 111.379592 124.535233 
L 113.657143 123.110677 
L 115.934694 121.752044 
L 118.212245 120.611561 
L 120.489796 119.839251 
L 122.767347 119.534844 
L 125.044898 119.590554 
L 127.322449 119.854187 
L 129.6 120.193218 
L 129.6 120.304544 
L 129.6 120.304544 
L 127.322449 119.990503 
L 125.044898 119.745361 
L 122.767347 119.699495 
L 120.489796 120.007657 
L 118.212245 120.789006 
L 115.934694 121.95928 
L 113.657143 123.366974 
L 111.379592 124.84786 
L 109.102041 126.232587 
L 106.82449 127.352242 
L 104.546939 128.044201 
L 102.269388 128.16 
L 99.991837 127.574331 
L 97.714286 126.194279 
L 95.436735 123.966185 
L 93.159184 120.879692 
L 90.881633 116.972415 
L 88.604082 112.338193 
L 86.326531 107.133969 
L 84.04898 101.582666 
L 81.771429 95.971779 
L 79.493878 90.648175 
L 77.216327 86.008831 
L 74.938776 82.480078 
L 72.661224 80.432302 
L 70.383673 79.783062 
L 68.106122 80.364767 
L 65.828571 81.99283 
L 63.55102 84.475347 
L 61.273469 87.616509 
L 58.995918 91.220805 
L 56.718367 95.097834 
L 54.440816 99.067415 
L 52.163265 102.964711 
L 49.885714 106.645023 
L 47.608163 109.988193 
L 45.330612 112.902115 
L 43.053061 115.32594 
L 40.77551 117.232182 
L 38.497959 118.627784 
L 36.220408 119.553514 
L 33.942857 120.087683 
L 31.665306 120.348558 
L 29.387755 120.491778 
L 27.110204 120.65258 
L 24.832653 120.790344 
L 22.555102 120.841896 
L 20.277551 120.775789 
L 18 120.587742 
z
" style="fill:#66c2a5;fill-opacity:0.2;"/>
   </g>
   <g id="matplotlib.axis_3">
    <g id="xtick_6">
     <g id="line2d_12">
      <g>
       <use style="fill:#a9a9a9;stroke:#a9a9a9;stroke-width:2;" x="29.387755" xlink:href="#m8947cad0d4" y="122.276325"/>
      </g>
     </g>
    </g>
    <g id="xtick_7">
     <g id="line2d_13">
      <g>
       <use style="fill:#a9a9a9;stroke:#a9a9a9;stroke-width:2;" x="52.163265" xlink:href="#m8947cad0d4" y="122.276325"/>
      </g>
     </g>
    </g>
    <g id="xtick_8">
     <g id="line2d_14">
      <g>
       <use style="fill:#a9a9a9;stroke:#a9a9a9;stroke-width:2;" x="74.938776" xlink:href="#m8947cad0d4" y="122.276325"/>
      </g>
     </g>
    </g>
    <g id="xtick_9">
     <g id="line2d_15">
      <g>
       <use style="fill:#a9a9a9;stroke:#a9a9a9;stroke-width:2;" x="97.714286" xlink:href="#m8947cad0d4" y="122.276325"/>
      </g>
     </g>
    </g>
    <g id="xtick_10">
     <g id="line2d_16">
      <g>
       <use style="fill:#a9a9a9;stroke:#a9a9a9;stroke-width:2;" x="120.489796" xlink:href="#m8947cad0d4" y="122.276325"/>
      </g>
     </g>
    </g>
   </g>
   <g id="matplotlib.axis_4"/>
   <g id="line2d_17">
    <path clip-path="url(#p0f3cbe9380)" d="M 18 120.545553 
L 20.277551 120.744324 
L 22.555102 120.813088 
L 24.832653 120.755415 
L 27.110204 120.608478 
L 29.387755 120.43959 
L 31.665306 120.290522 
L 33.942857 120.024238 
L 36.220408 119.483183 
L 38.497959 118.545005 
L 40.77551 117.124997 
L 43.053061 115.177074 
L 45.330612 112.693513 
L 47.608163 109.703653 
L 49.885714 106.27173 
L 52.163265 102.494013 
L 54.440816 98.495373 
L 56.718367 94.425374 
L 58.995918 90.45376 
L 61.273469 86.765362 
L 63.55102 83.554714 
L 65.828571 81.020744 
L 68.106122 79.361837 
L 70.383673 78.771531 
L 72.661224 79.435033 
L 74.938776 81.519468 
L 77.216327 85.105634 
L 79.493878 89.819177 
L 81.771429 95.229149 
L 84.04898 100.933528 
L 86.326531 106.580116 
L 88.604082 111.87587 
L 90.881633 116.592119 
L 93.159184 120.566129 
L 95.436735 123.699497 
L 97.714286 125.954011 
L 99.991837 127.345561 
L 102.269388 127.93668 
L 104.546939 127.828036 
L 106.82449 127.149316 
L 109.102041 126.050127 
L 111.379592 124.691546 
L 113.657143 123.238825 
L 115.934694 121.855662 
L 118.212245 120.700283 
L 120.489796 119.923454 
L 122.767347 119.617169 
L 125.044898 119.667957 
L 127.322449 119.922345 
L 129.6 120.248881 
" style="fill:none;stroke:#66c2a5;stroke-linecap:square;stroke-width:2;"/>
   </g>
   <g id="patch_8">
    <path d="M 74.938776 128.16 
L 74.938776 77.76 
" style="fill:none;stroke:#a9a9a9;stroke-linecap:square;stroke-linejoin:miter;stroke-width:2;"/>
   </g>
   <g id="patch_9">
    <path d="M 129.6 128.16 
L 129.6 77.76 
" style="fill:none;"/>
   </g>
   <g id="patch_10">
    <path d="M 18 122.276325 
L 129.6 122.276325 
" style="fill:none;stroke:#a9a9a9;stroke-linecap:square;stroke-linejoin:miter;stroke-width:2;"/>
   </g>
   <g id="patch_11">
    <path d="M 18 77.76 
L 129.6 77.76 
" style="fill:none;"/>
   </g>
   <g id="legend_2">
    <g id="line2d_18">
     <path d="M 101.475312 86.928906 
L 115.475312 86.928906 
" style="fill:none;stroke:#66c2a5;stroke-linecap:square;stroke-width:2;"/>
    </g>
    <g id="line2d_19"/>
    <g id="text_3">
     <!--   -->
     <g transform="translate(121.075312 89.378906)scale(0.07 -0.07)">
      <use xlink:href="#DejaVuSans-32"/>
     </g>
    </g>
   </g>
  </g>
 </g>
 <defs>
  <clipPath id="pbf68c60c69">
   <rect height="50.4" width="111.6" x="18" y="17.28"/>
  </clipPath>
  <clipPath id="p0f3cbe9380">
   <rect height="50.4" width="111.6" x="18" y="77.76"/>
  </clipPath>
 </defs>
</svg>
