<?xml version="1.0" encoding="utf-8" standalone="no"?>
<!DOCTYPE svg PUBLIC "-//W3C//DTD SVG 1.1//EN"
  "http://www.w3.org/Graphics/SVG/1.1/DTD/svg11.dtd">
<!-- Created with matplotlib (https://matplotlib.org/) -->
<svg height="144pt" version="1.1" viewBox="0 0 144 144" width="144pt" xmlns="http://www.w3.org/2000/svg" xmlns:xlink="http://www.w3.org/1999/xlink">
 <metadata>
  <rdf:RDF xmlns:cc="http://creativecommons.org/ns#" xmlns:dc="http://purl.org/dc/elements/1.1/" xmlns:rdf="http://www.w3.org/1999/02/22-rdf-syntax-ns#">
   <cc:Work>
    <dc:type rdf:resource="http://purl.org/dc/dcmitype/StillImage"/>
    <dc:date>2021-10-14T23:09:08.519787</dc:date>
    <dc:format>image/svg+xml</dc:format>
    <dc:creator>
     <cc:Agent>
      <dc:title>Matplotlib v3.3.2, https://matplotlib.org/</dc:title>
     </cc:Agent>
    </dc:creator>
   </cc:Work>
  </rdf:RDF>
 </metadata>
 <defs>
  <style type="text/css">*{stroke-linecap:butt;stroke-linejoin:round;}</style>
 </defs>
 <g id="figure_1">
  <g id="patch_1">
   <path d="M 0 144 
L 144 144 
L 144 0 
L 0 0 
z
" style="fill:none;"/>
  </g>
  <g id="axes_1">
   <g id="patch_2">
    <path d="M 18 67.68 
L 129.6 67.68 
L 129.6 17.28 
L 18 17.28 
z
" style="fill:none;"/>
   </g>
   <g id="PolyCollection_1">
    <path clip-path="url(#pbde363649e)" d="M 18 17.302508 
L 18 17.302508 
L 20.277551 17.302508 
L 22.555102 17.302508 
L 24.832653 17.302508 
L 27.110204 17.302508 
L 29.387755 17.302498 
L 31.665306 17.28 
L 33.942857 17.308306 
L 36.220408 17.422169 
L 38.497959 17.688687 
L 40.77551 18.130741 
L 43.053061 18.685337 
L 45.330612 19.537185 
L 47.608163 20.255388 
L 49.885714 21.113054 
L 52.163265 22.281964 
L 54.440816 23.85593 
L 56.718367 25.464756 
L 58.995918 27.853843 
L 61.273469 30.855751 
L 63.55102 34.321778 
L 65.828571 38.844692 
L 68.106122 44.046464 
L 70.383673 48.62679 
L 72.661224 54.003007 
L 74.938776 58.741224 
L 77.216327 61.653117 
L 79.493878 64.300215 
L 81.771429 64.747358 
L 84.04898 64.482666 
L 86.326531 62.339579 
L 88.604082 58.878485 
L 90.881633 54.70458 
L 93.159184 49.591484 
L 95.436735 44.363837 
L 97.714286 38.915764 
L 99.991837 33.880627 
L 102.269388 29.270172 
L 104.546939 25.53091 
L 106.82449 22.670592 
L 109.102041 20.315183 
L 111.379592 18.863602 
L 113.657143 17.922676 
L 115.934694 17.478623 
L 118.212245 17.31408 
L 120.489796 17.302483 
L 122.767347 17.302508 
L 125.044898 17.302508 
L 127.322449 17.302508 
L 129.6 17.302508 
L 129.6 17.302508 
L 129.6 17.302508 
L 127.322449 17.302508 
L 125.044898 17.302508 
L 122.767347 17.302508 
L 120.489796 17.302695 
L 118.212245 17.374553 
L 115.934694 17.610909 
L 113.657143 18.195405 
L 111.379592 19.298589 
L 109.102041 20.949271 
L 106.82449 23.278413 
L 104.546939 26.473365 
L 102.269388 30.516189 
L 99.991837 35.418695 
L 97.714286 40.816252 
L 95.436735 46.035934 
L 93.159184 52.151941 
L 90.881633 57.121053 
L 88.604082 62.009055 
L 86.326531 65.367286 
L 84.04898 67.368083 
L 81.771429 67.68 
L 79.493878 66.979459 
L 77.216327 64.522416 
L 74.938776 60.846804 
L 72.661224 56.773125 
L 70.383673 51.612763 
L 68.106122 46.607018 
L 65.828571 41.310595 
L 63.55102 37.049785 
L 61.273469 33.023721 
L 58.995918 29.949879 
L 56.718367 27.352903 
L 54.440816 25.397598 
L 52.163265 23.555648 
L 49.885714 22.211128 
L 47.608163 21.218793 
L 45.330612 20.159545 
L 43.053061 19.313861 
L 40.77551 18.635279 
L 38.497959 18.042247 
L 36.220408 17.673898 
L 33.942857 17.424241 
L 31.665306 17.329877 
L 29.387755 17.302511 
L 27.110204 17.302508 
L 24.832653 17.302508 
L 22.555102 17.302508 
L 20.277551 17.302508 
L 18 17.302508 
z
" style="fill:#fc8d62;fill-opacity:0.2;"/>
   </g>
   <g id="PolyCollection_2">
    <path clip-path="url(#pbde363649e)" d="M 18 17.302508 
L 18 17.302508 
L 20.277551 17.302508 
L 22.555102 17.302508 
L 24.832653 17.302508 
L 27.110204 17.302508 
L 29.387755 17.302228 
L 31.665306 17.284503 
L 33.942857 17.30466 
L 36.220408 17.536603 
L 38.497959 18.03112 
L 40.77551 18.714428 
L 43.053061 20.094904 
L 45.330612 21.779037 
L 47.608163 24.015305 
L 49.885714 26.621276 
L 52.163265 29.839097 
L 54.440816 33.121188 
L 56.718367 37.237108 
L 58.995918 41.145646 
L 61.273469 45.121817 
L 63.55102 49.162533 
L 65.828571 52.458431 
L 68.106122 55.552577 
L 70.383673 57.989545 
L 72.661224 59.815366 
L 74.938776 61.068272 
L 77.216327 60.57156 
L 79.493878 59.333441 
L 81.771429 57.126808 
L 84.04898 54.257302 
L 86.326531 50.756019 
L 88.604082 47.041502 
L 90.881633 43.125731 
L 93.159184 39.392497 
L 95.436735 35.465919 
L 97.714286 31.850379 
L 99.991837 28.458449 
L 102.269388 25.49392 
L 104.546939 23.017509 
L 106.82449 20.975626 
L 109.102041 19.625245 
L 111.379592 18.466063 
L 113.657143 17.804884 
L 115.934694 17.4457 
L 118.212245 17.317845 
L 120.489796 17.302084 
L 122.767347 17.302508 
L 125.044898 17.302508 
L 127.322449 17.302508 
L 129.6 17.302508 
L 129.6 17.302508 
L 129.6 17.302508 
L 127.322449 17.302508 
L 125.044898 17.302508 
L 122.767347 17.302508 
L 120.489796 17.30334 
L 118.212245 17.355996 
L 115.934694 17.604785 
L 113.657143 18.052464 
L 111.379592 18.845459 
L 109.102041 20.194841 
L 106.82449 21.768631 
L 104.546939 23.950099 
L 102.269388 26.554429 
L 99.991837 29.872711 
L 97.714286 33.180383 
L 95.436735 37.245433 
L 93.159184 40.995168 
L 90.881633 45.301453 
L 88.604082 49.445194 
L 86.326531 53.275648 
L 84.04898 56.793083 
L 81.771429 59.940255 
L 79.493878 61.731457 
L 77.216327 62.786984 
L 74.938776 63.094629 
L 72.661224 62.821208 
L 70.383673 60.912048 
L 68.106122 57.838447 
L 65.828571 55.02105 
L 63.55102 51.336687 
L 61.273469 47.256699 
L 58.995918 43.107765 
L 56.718367 38.81873 
L 54.440816 34.997331 
L 52.163265 31.165633 
L 49.885714 27.911689 
L 47.608163 25.091889 
L 45.330612 22.760022 
L 43.053061 20.904459 
L 40.77551 19.286096 
L 38.497959 18.376201 
L 36.220408 17.762786 
L 33.942857 17.450156 
L 31.665306 17.325178 
L 29.387755 17.3027 
L 27.110204 17.302508 
L 24.832653 17.302508 
L 22.555102 17.302508 
L 20.277551 17.302508 
L 18 17.302508 
z
" style="fill:#fc8d62;fill-opacity:0.2;"/>
   </g>
   <g id="matplotlib.axis_1">
    <g id="xtick_1">
     <g id="line2d_1">
      <defs>
       <path d="M 0 0 
L 0 3.5 
" id="m15c7b3f513" style="stroke:#a9a9a9;stroke-width:2;"/>
      </defs>
      <g>
       <use style="fill:#a9a9a9;stroke:#a9a9a9;stroke-width:2;" x="29.387755" xlink:href="#m15c7b3f513" y="17.302508"/>
      </g>
     </g>
    </g>
    <g id="xtick_2">
     <g id="line2d_2">
      <g>
       <use style="fill:#a9a9a9;stroke:#a9a9a9;stroke-width:2;" x="52.163265" xlink:href="#m15c7b3f513" y="17.302508"/>
      </g>
     </g>
    </g>
    <g id="xtick_3">
     <g id="line2d_3">
      <g>
       <use style="fill:#a9a9a9;stroke:#a9a9a9;stroke-width:2;" x="74.938776" xlink:href="#m15c7b3f513" y="17.302508"/>
      </g>
     </g>
    </g>
    <g id="xtick_4">
     <g id="line2d_4">
      <g>
       <use style="fill:#a9a9a9;stroke:#a9a9a9;stroke-width:2;" x="97.714286" xlink:href="#m15c7b3f513" y="17.302508"/>
      </g>
     </g>
    </g>
    <g id="xtick_5">
     <g id="line2d_5">
      <g>
       <use style="fill:#a9a9a9;stroke:#a9a9a9;stroke-width:2;" x="120.489796" xlink:href="#m15c7b3f513" y="17.302508"/>
      </g>
     </g>
    </g>
   </g>
   <g id="matplotlib.axis_2"/>
   <g id="line2d_6">
    <path clip-path="url(#pbde363649e)" d="M 18 17.302508 
L 20.277551 17.302508 
L 22.555102 17.302508 
L 24.832653 17.302508 
L 27.110204 17.302508 
L 29.387755 17.302505 
L 31.665306 17.304938 
L 33.942857 17.366274 
L 36.220408 17.548033 
L 38.497959 17.865467 
L 40.77551 18.38301 
L 43.053061 18.999599 
L 45.330612 19.848365 
L 47.608163 20.737091 
L 49.885714 21.662091 
L 52.163265 22.918806 
L 54.440816 24.626764 
L 56.718367 26.40883 
L 58.995918 28.901861 
L 61.273469 31.939736 
L 63.55102 35.685782 
L 65.828571 40.077643 
L 68.106122 45.326741 
L 70.383673 50.119776 
L 72.661224 55.388066 
L 74.938776 59.794014 
L 77.216327 63.087767 
L 79.493878 65.639837 
L 81.771429 66.213679 
L 84.04898 65.925375 
L 86.326531 63.853432 
L 88.604082 60.44377 
L 90.881633 55.912816 
L 93.159184 50.871713 
L 95.436735 45.199885 
L 97.714286 39.866008 
L 99.991837 34.649661 
L 102.269388 29.893181 
L 104.546939 26.002137 
L 106.82449 22.974503 
L 109.102041 20.632227 
L 111.379592 19.081095 
L 113.657143 18.05904 
L 115.934694 17.544766 
L 118.212245 17.344317 
L 120.489796 17.302589 
L 122.767347 17.302508 
L 125.044898 17.302508 
L 127.322449 17.302508 
L 129.6 17.302508 
" style="fill:none;stroke:#fc8d62;stroke-linecap:square;stroke-width:2;"/>
   </g>
   <g id="line2d_7">
    <path clip-path="url(#pbde363649e)" d="M 18 17.302508 
L 20.277551 17.302508 
L 22.555102 17.302508 
L 24.832653 17.302508 
L 27.110204 17.302508 
L 29.387755 17.302464 
L 31.665306 17.30484 
L 33.942857 17.377408 
L 36.220408 17.649695 
L 38.497959 18.203661 
L 40.77551 19.000262 
L 43.053061 20.499681 
L 45.330612 22.269529 
L 47.608163 24.553597 
L 49.885714 27.266482 
L 52.163265 30.502365 
L 54.440816 34.05926 
L 56.718367 38.027919 
L 58.995918 42.126705 
L 61.273469 46.189258 
L 63.55102 50.24961 
L 65.828571 53.73974 
L 68.106122 56.695512 
L 70.383673 59.450797 
L 72.661224 61.318287 
L 74.938776 62.08145 
L 77.216327 61.679272 
L 79.493878 60.532449 
L 81.771429 58.533531 
L 84.04898 55.525193 
L 86.326531 52.015833 
L 88.604082 48.243348 
L 90.881633 44.213592 
L 93.159184 40.193832 
L 95.436735 36.355676 
L 97.714286 32.515381 
L 99.991837 29.16558 
L 102.269388 26.024174 
L 104.546939 23.483804 
L 106.82449 21.372128 
L 109.102041 19.910043 
L 111.379592 18.655761 
L 113.657143 17.928674 
L 115.934694 17.525242 
L 118.212245 17.336921 
L 120.489796 17.302712 
L 122.767347 17.302508 
L 125.044898 17.302508 
L 127.322449 17.302508 
L 129.6 17.302508 
" style="fill:none;stroke:#fc8d62;stroke-dasharray:1.5,1.5;stroke-dashoffset:0;stroke-opacity:0.7;stroke-width:1.5;"/>
   </g>
   <g id="patch_3">
    <path d="M 74.938776 67.68 
L 74.938776 17.28 
" style="fill:none;stroke:#a9a9a9;stroke-linecap:square;stroke-linejoin:miter;stroke-width:2;"/>
   </g>
   <g id="patch_4">
    <path d="M 129.6 67.68 
L 129.6 17.28 
" style="fill:none;"/>
   </g>
   <g id="patch_5">
    <path d="M 18 17.302508 
L 129.6 17.302508 
" style="fill:none;stroke:#a9a9a9;stroke-linecap:square;stroke-linejoin:miter;stroke-width:2;"/>
   </g>
   <g id="patch_6">
    <path d="M 18 17.28 
L 129.6 17.28 
" style="fill:none;"/>
   </g>
   <g id="legend_1">
    <g id="line2d_8">
     <path d="M 24.3 47.199531 
L 38.3 47.199531 
" style="fill:none;stroke:#fc8d62;stroke-linecap:square;stroke-width:2;"/>
    </g>
    <g id="line2d_9"/>
    <g id="text_1">
     <!--   -->
     <g transform="translate(43.9 49.649531)scale(0.07 -0.07)">
      <defs>
       <path id="DejaVuSans-32"/>
      </defs>
      <use xlink:href="#DejaVuSans-32"/>
     </g>
    </g>
    <g id="line2d_10">
     <path d="M 24.3 57.474219 
L 38.3 57.474219 
" style="fill:none;stroke:#fc8d62;stroke-dasharray:1.5,1.5;stroke-dashoffset:0;stroke-opacity:0.7;stroke-width:1.5;"/>
    </g>
    <g id="line2d_11"/>
    <g id="text_2">
     <!--   -->
     <g transform="translate(43.9 59.924219)scale(0.07 -0.07)">
      <use xlink:href="#DejaVuSans-32"/>
     </g>
    </g>
   </g>
  </g>
  <g id="axes_2">
   <g id="patch_7">
    <path d="M 18 128.16 
L 129.6 128.16 
L 129.6 77.76 
L 18 77.76 
z
" style="fill:none;"/>
   </g>
   <g id="PolyCollection_3">
    <path clip-path="url(#p5ca213dffc)" d="M 18 120.529209 
L 18 120.446787 
L 20.277551 120.661007 
L 22.555102 120.735504 
L 24.832653 120.6738 
L 27.110204 120.519009 
L 29.387755 120.342776 
L 31.665306 120.188444 
L 33.942857 119.91681 
L 36.220408 119.36794 
L 38.497959 118.415311 
L 40.77551 116.968158 
L 43.053061 114.976103 
L 45.330612 112.430967 
L 47.608163 109.364411 
L 49.885714 105.844209 
L 52.163265 101.970922 
L 54.440816 97.873937 
L 56.718367 93.707681 
L 58.995918 89.646753 
L 61.273469 85.880532 
L 63.55102 82.607599 
L 65.828571 80.030211 
L 68.106122 78.349284 
L 70.383673 77.76 
L 72.661224 78.448266 
L 74.938776 80.581203 
L 77.216327 84.23735 
L 79.493878 89.037729 
L 81.771429 94.545173 
L 84.04898 100.35163 
L 86.326531 106.098902 
L 88.604082 111.48798 
L 90.881633 116.284277 
L 93.159184 120.319273 
L 95.436735 123.490094 
L 97.714286 125.758136 
L 99.991837 127.145108 
L 102.269388 127.723445 
L 104.546939 127.602703 
L 106.82449 126.918223 
L 109.102041 125.821917 
L 111.379592 124.474398 
L 113.657143 123.038073 
L 115.934694 121.671703 
L 118.212245 120.527876 
L 120.489796 119.755997 
L 122.767347 119.454706 
L 125.044898 119.515409 
L 127.322449 119.785172 
L 129.6 120.130655 
L 129.6 120.239081 
L 129.6 120.239081 
L 127.322449 119.917897 
L 125.044898 119.666191 
L 122.767347 119.615394 
L 120.489796 119.921563 
L 118.212245 120.705229 
L 115.934694 121.881022 
L 113.657143 123.296666 
L 111.379592 124.78784 
L 109.102041 126.185111 
L 106.82449 127.319235 
L 104.546939 128.027207 
L 102.269388 128.16 
L 99.991837 127.591687 
L 97.714286 126.228524 
L 95.436735 124.015982 
L 93.159184 120.942281 
L 90.881633 117.043876 
L 88.604082 112.413775 
L 86.326531 107.208572 
L 84.04898 101.651295 
L 81.771429 96.029984 
L 79.493878 90.692493 
L 77.216327 86.037107 
L 74.938776 82.492028 
L 72.661224 80.428687 
L 70.383673 79.765478 
L 68.106122 80.334695 
L 65.828571 81.951967 
L 63.55102 84.425592 
L 61.273469 87.559911 
L 58.995918 91.159477 
L 56.718367 95.033862 
L 54.440816 99.002738 
L 52.163265 102.901034 
L 49.885714 106.583723 
L 47.608163 109.929996 
L 45.330612 112.847318 
L 43.053061 115.274351 
L 40.77551 117.183417 
L 38.497959 118.581152 
L 36.220408 119.508809 
L 33.942857 120.044662 
L 31.665306 120.306739 
L 29.387755 120.450342 
L 27.110204 120.610894 
L 24.832653 120.747019 
L 22.555102 120.795066 
L 20.277551 120.723582 
L 18 120.529209 
z
" style="fill:#66c2a5;fill-opacity:0.2;"/>
   </g>
   <g id="matplotlib.axis_3">
    <g id="xtick_6">
     <g id="line2d_12">
      <g>
       <use style="fill:#a9a9a9;stroke:#a9a9a9;stroke-width:2;" x="29.387755" xlink:href="#m15c7b3f513" y="122.231948"/>
      </g>
     </g>
    </g>
    <g id="xtick_7">
     <g id="line2d_13">
      <g>
       <use style="fill:#a9a9a9;stroke:#a9a9a9;stroke-width:2;" x="52.163265" xlink:href="#m15c7b3f513" y="122.231948"/>
      </g>
     </g>
    </g>
    <g id="xtick_8">
     <g id="line2d_14">
      <g>
       <use style="fill:#a9a9a9;stroke:#a9a9a9;stroke-width:2;" x="74.938776" xlink:href="#m15c7b3f513" y="122.231948"/>
      </g>
     </g>
    </g>
    <g id="xtick_9">
     <g id="line2d_15">
      <g>
       <use style="fill:#a9a9a9;stroke:#a9a9a9;stroke-width:2;" x="97.714286" xlink:href="#m15c7b3f513" y="122.231948"/>
      </g>
     </g>
    </g>
    <g id="xtick_10">
     <g id="line2d_16">
      <g>
       <use style="fill:#a9a9a9;stroke:#a9a9a9;stroke-width:2;" x="120.489796" xlink:href="#m15c7b3f513" y="122.231948"/>
      </g>
     </g>
    </g>
   </g>
   <g id="matplotlib.axis_4"/>
   <g id="line2d_17">
    <path clip-path="url(#p5ca213dffc)" d="M 18 120.487998 
L 20.277551 120.692295 
L 22.555102 120.765285 
L 24.832653 120.710409 
L 27.110204 120.564952 
L 29.387755 120.396559 
L 31.665306 120.247592 
L 33.942857 119.980736 
L 36.220408 119.438374 
L 38.497959 118.498232 
L 40.77551 117.075787 
L 43.053061 115.125227 
L 45.330612 112.639142 
L 47.608163 109.647204 
L 49.885714 106.213966 
L 52.163265 102.435978 
L 54.440816 98.438338 
L 56.718367 94.370771 
L 58.995918 90.403115 
L 61.273469 86.720222 
L 63.55102 83.516596 
L 65.828571 80.991089 
L 68.106122 79.341989 
L 70.383673 78.762739 
L 72.661224 79.438477 
L 74.938776 81.536616 
L 77.216327 85.137229 
L 79.493878 89.865111 
L 81.771429 95.287579 
L 84.04898 101.001462 
L 86.326531 106.653737 
L 88.604082 111.950877 
L 90.881633 116.664076 
L 93.159184 120.630777 
L 95.436735 123.753038 
L 97.714286 125.99333 
L 99.991837 127.368398 
L 102.269388 127.941723 
L 104.546939 127.814955 
L 106.82449 127.118729 
L 109.102041 126.003514 
L 111.379592 124.631119 
L 113.657143 123.16737 
L 115.934694 121.776362 
L 118.212245 120.616553 
L 120.489796 119.83878 
L 122.767347 119.53505 
L 125.044898 119.5908 
L 127.322449 119.851535 
L 129.6 120.184868 
" style="fill:none;stroke:#66c2a5;stroke-linecap:square;stroke-width:2;"/>
   </g>
   <g id="patch_8">
    <path d="M 74.938776 128.16 
L 74.938776 77.76 
" style="fill:none;stroke:#a9a9a9;stroke-linecap:square;stroke-linejoin:miter;stroke-width:2;"/>
   </g>
   <g id="patch_9">
    <path d="M 129.6 128.16 
L 129.6 77.76 
" style="fill:none;"/>
   </g>
   <g id="patch_10">
    <path d="M 18 122.231948 
L 129.6 122.231948 
" style="fill:none;stroke:#a9a9a9;stroke-linecap:square;stroke-linejoin:miter;stroke-width:2;"/>
   </g>
   <g id="patch_11">
    <path d="M 18 77.76 
L 129.6 77.76 
" style="fill:none;"/>
   </g>
   <g id="legend_2">
    <g id="line2d_18">
     <path d="M 101.475312 86.928906 
L 115.475312 86.928906 
" style="fill:none;stroke:#66c2a5;stroke-linecap:square;stroke-width:2;"/>
    </g>
    <g id="line2d_19"/>
    <g id="text_3">
     <!--   -->
     <g transform="translate(121.075312 89.378906)scale(0.07 -0.07)">
      <use xlink:href="#DejaVuSans-32"/>
     </g>
    </g>
   </g>
  </g>
 </g>
 <defs>
  <clipPath id="pbde363649e">
   <rect height="50.4" width="111.6" x="18" y="17.28"/>
  </clipPath>
  <clipPath id="p5ca213dffc">
   <rect height="50.4" width="111.6" x="18" y="77.76"/>
  </clipPath>
 </defs>
</svg>
