<?xml version="1.0" encoding="utf-8" standalone="no"?>
<!DOCTYPE svg PUBLIC "-//W3C//DTD SVG 1.1//EN"
  "http://www.w3.org/Graphics/SVG/1.1/DTD/svg11.dtd">
<!-- Created with matplotlib (https://matplotlib.org/) -->
<svg height="144pt" version="1.1" viewBox="0 0 144 144" width="144pt" xmlns="http://www.w3.org/2000/svg" xmlns:xlink="http://www.w3.org/1999/xlink">
 <metadata>
  <rdf:RDF xmlns:cc="http://creativecommons.org/ns#" xmlns:dc="http://purl.org/dc/elements/1.1/" xmlns:rdf="http://www.w3.org/1999/02/22-rdf-syntax-ns#">
   <cc:Work>
    <dc:type rdf:resource="http://purl.org/dc/dcmitype/StillImage"/>
    <dc:date>2021-10-13T00:28:21.690047</dc:date>
    <dc:format>image/svg+xml</dc:format>
    <dc:creator>
     <cc:Agent>
      <dc:title>Matplotlib v3.3.2, https://matplotlib.org/</dc:title>
     </cc:Agent>
    </dc:creator>
   </cc:Work>
  </rdf:RDF>
 </metadata>
 <defs>
  <style type="text/css">*{stroke-linecap:butt;stroke-linejoin:round;}</style>
 </defs>
 <g id="figure_1">
  <g id="patch_1">
   <path d="M 0 144 
L 144 144 
L 144 0 
L 0 0 
z
" style="fill:none;"/>
  </g>
  <g id="axes_1">
   <g id="patch_2">
    <path d="M 18 67.68 
L 129.6 67.68 
L 129.6 17.28 
L 18 17.28 
z
" style="fill:none;"/>
   </g>
   <g id="PolyCollection_1">
    <path clip-path="url(#pce705b5e4e)" d="M 18 67.672684 
L 18 67.672684 
L 20.277551 67.672684 
L 22.555102 67.672684 
L 24.832653 67.672684 
L 27.110204 67.672684 
L 29.387755 67.67209 
L 31.665306 67.620375 
L 33.942857 67.376959 
L 36.220408 66.834691 
L 38.497959 65.860365 
L 40.77551 64.247863 
L 43.053061 62.124719 
L 45.330612 59.333327 
L 47.608163 55.833754 
L 49.885714 51.743194 
L 52.163265 47.264511 
L 54.440816 42.627153 
L 56.718367 37.57527 
L 58.995918 32.591829 
L 61.273469 28.301345 
L 63.55102 23.835348 
L 65.828571 20.743278 
L 68.106122 18.509245 
L 70.383673 17.28 
L 72.661224 17.280844 
L 74.938776 24.71653 
L 77.216327 21.263643 
L 79.493878 24.647182 
L 81.771429 28.535053 
L 84.04898 32.902337 
L 86.326531 37.113624 
L 88.604082 41.50775 
L 90.881633 45.817113 
L 93.159184 49.412772 
L 95.436735 52.870332 
L 97.714286 56.048798 
L 99.991837 58.874594 
L 102.269388 61.060492 
L 104.546939 62.999344 
L 106.82449 64.563707 
L 109.102041 65.752934 
L 111.379592 66.626908 
L 113.657143 67.183926 
L 115.934694 67.515312 
L 118.212245 67.643751 
L 120.489796 67.672557 
L 122.767347 67.672684 
L 125.044898 67.672684 
L 127.322449 67.672684 
L 129.6 67.672684 
L 129.6 67.672684 
L 129.6 67.672684 
L 127.322449 67.672684 
L 125.044898 67.672684 
L 122.767347 67.672684 
L 120.489796 67.672922 
L 118.212245 67.68 
L 115.934694 67.60721 
L 113.657143 67.340628 
L 111.379592 66.839504 
L 109.102041 66.169234 
L 106.82449 65.039112 
L 104.546939 63.534277 
L 102.269388 61.824492 
L 99.991837 59.647832 
L 97.714286 57.083664 
L 95.436735 54.066709 
L 93.159184 50.679842 
L 90.881633 47.071749 
L 88.604082 42.85984 
L 86.326531 38.929453 
L 84.04898 34.383587 
L 81.771429 30.277716 
L 79.493878 26.191387 
L 77.216327 23.103543 
L 74.938776 26.356843 
L 72.661224 19.180064 
L 70.383673 19.185946 
L 68.106122 20.16118 
L 65.828571 22.524322 
L 63.55102 26.023182 
L 61.273469 29.744375 
L 58.995918 34.055592 
L 56.718367 39.040349 
L 54.440816 43.890633 
L 52.163265 48.532592 
L 49.885714 52.877272 
L 47.608163 56.787048 
L 45.330612 60.083308 
L 43.053061 62.673526 
L 40.77551 64.775733 
L 38.497959 66.162687 
L 36.220408 67.038826 
L 33.942857 67.491953 
L 31.665306 67.656379 
L 29.387755 67.673003 
L 27.110204 67.672684 
L 24.832653 67.672684 
L 22.555102 67.672684 
L 20.277551 67.672684 
L 18 67.672684 
z
" style="fill:#fc8d62;fill-opacity:0.2;"/>
   </g>
   <g id="PolyCollection_2">
    <path clip-path="url(#pce705b5e4e)" d="M 18 67.672684 
L 18 67.672684 
L 20.277551 67.672684 
L 22.555102 67.672684 
L 24.832653 67.672684 
L 27.110204 67.672684 
L 29.387755 67.672195 
L 31.665306 67.620031 
L 33.942857 67.39275 
L 36.220408 66.882707 
L 38.497959 65.943651 
L 40.77551 64.595188 
L 43.053061 62.736201 
L 45.330612 60.325416 
L 47.608163 57.407464 
L 49.885714 54.01875 
L 52.163265 50.060219 
L 54.440816 45.790579 
L 56.718367 41.569952 
L 58.995918 36.998783 
L 61.273469 32.495247 
L 63.55102 28.316496 
L 65.828571 24.248861 
L 68.106122 21.154049 
L 70.383673 18.834681 
L 72.661224 17.379346 
L 74.938776 21.525588 
L 77.216327 17.576984 
L 79.493878 19.439952 
L 81.771429 22.289471 
L 84.04898 25.895744 
L 86.326531 29.716993 
L 88.604082 34.0227 
L 90.881633 38.420699 
L 93.159184 43.149877 
L 95.436735 47.377092 
L 97.714286 51.49468 
L 99.991837 55.160208 
L 102.269388 58.330615 
L 104.546939 61.172204 
L 106.82449 63.363612 
L 109.102041 65.177816 
L 111.379592 66.33243 
L 113.657143 67.08936 
L 115.934694 67.490791 
L 118.212245 67.637907 
L 120.489796 67.67259 
L 122.767347 67.672684 
L 125.044898 67.672684 
L 127.322449 67.672684 
L 129.6 67.672684 
L 129.6 67.672684 
L 129.6 67.672684 
L 127.322449 67.672684 
L 125.044898 67.672684 
L 122.767347 67.672684 
L 120.489796 67.67288 
L 118.212245 67.674183 
L 115.934694 67.589986 
L 113.657143 67.266199 
L 111.379592 66.589256 
L 109.102041 65.541992 
L 106.82449 63.976353 
L 104.546939 61.853268 
L 102.269388 59.342189 
L 99.991837 56.255845 
L 97.714286 52.826148 
L 95.436735 48.841631 
L 93.159184 44.465096 
L 90.881633 40.242492 
L 88.604082 35.884865 
L 86.326531 31.571485 
L 84.04898 27.863868 
L 81.771429 24.541868 
L 79.493878 21.93981 
L 77.216327 19.95083 
L 74.938776 23.653455 
L 72.661224 19.563456 
L 70.383673 20.776106 
L 68.106122 23.214989 
L 65.828571 26.352475 
L 63.55102 30.186194 
L 61.273469 34.344655 
L 58.995918 38.653573 
L 56.718367 42.831133 
L 54.440816 47.23875 
L 52.163265 51.161805 
L 49.885714 54.926696 
L 47.608163 58.281036 
L 45.330612 61.025683 
L 43.053061 63.293988 
L 40.77551 65.016811 
L 38.497959 66.28366 
L 36.220408 67.064434 
L 33.942857 67.505059 
L 31.665306 67.65787 
L 29.387755 67.67292 
L 27.110204 67.672684 
L 24.832653 67.672684 
L 22.555102 67.672684 
L 20.277551 67.672684 
L 18 67.672684 
z
" style="fill:#fc8d62;fill-opacity:0.2;"/>
   </g>
   <g id="matplotlib.axis_1">
    <g id="xtick_1">
     <g id="line2d_1">
      <defs>
       <path d="M 0 0 
L 0 3.5 
" id="madbb77df3d" style="stroke:#a9a9a9;stroke-width:2;"/>
      </defs>
      <g>
       <use style="fill:#a9a9a9;stroke:#a9a9a9;stroke-width:2;" x="29.387755" xlink:href="#madbb77df3d" y="67.672684"/>
      </g>
     </g>
    </g>
    <g id="xtick_2">
     <g id="line2d_2">
      <g>
       <use style="fill:#a9a9a9;stroke:#a9a9a9;stroke-width:2;" x="52.163265" xlink:href="#madbb77df3d" y="67.672684"/>
      </g>
     </g>
    </g>
    <g id="xtick_3">
     <g id="line2d_3">
      <g>
       <use style="fill:#a9a9a9;stroke:#a9a9a9;stroke-width:2;" x="74.938776" xlink:href="#madbb77df3d" y="67.672684"/>
      </g>
     </g>
    </g>
    <g id="xtick_4">
     <g id="line2d_4">
      <g>
       <use style="fill:#a9a9a9;stroke:#a9a9a9;stroke-width:2;" x="97.714286" xlink:href="#madbb77df3d" y="67.672684"/>
      </g>
     </g>
    </g>
    <g id="xtick_5">
     <g id="line2d_5">
      <g>
       <use style="fill:#a9a9a9;stroke:#a9a9a9;stroke-width:2;" x="120.489796" xlink:href="#madbb77df3d" y="67.672684"/>
      </g>
     </g>
    </g>
   </g>
   <g id="matplotlib.axis_2"/>
   <g id="line2d_6">
    <path clip-path="url(#pce705b5e4e)" d="M 18 67.672684 
L 20.277551 67.672684 
L 22.555102 67.672684 
L 24.832653 67.672684 
L 27.110204 67.672684 
L 29.387755 67.672546 
L 31.665306 67.638377 
L 33.942857 67.434456 
L 36.220408 66.936758 
L 38.497959 66.011526 
L 40.77551 64.511798 
L 43.053061 62.399123 
L 45.330612 59.708318 
L 47.608163 56.310401 
L 49.885714 52.310233 
L 52.163265 47.898551 
L 54.440816 43.258893 
L 56.718367 38.307809 
L 58.995918 33.323711 
L 61.273469 29.02286 
L 63.55102 24.929265 
L 65.828571 21.6338 
L 68.106122 19.335213 
L 70.383673 18.232973 
L 72.661224 18.230454 
L 74.938776 25.536687 
L 77.216327 22.183593 
L 79.493878 25.419284 
L 81.771429 29.406384 
L 84.04898 33.642962 
L 86.326531 38.021539 
L 88.604082 42.183795 
L 90.881633 46.444431 
L 93.159184 50.046307 
L 95.436735 53.46852 
L 97.714286 56.566231 
L 99.991837 59.261213 
L 102.269388 61.442492 
L 104.546939 63.266811 
L 106.82449 64.80141 
L 109.102041 65.961084 
L 111.379592 66.733206 
L 113.657143 67.262277 
L 115.934694 67.561261 
L 118.212245 67.661876 
L 120.489796 67.67274 
L 122.767347 67.672684 
L 125.044898 67.672684 
L 127.322449 67.672684 
L 129.6 67.672684 
" style="fill:none;stroke:#fc8d62;stroke-linecap:square;stroke-width:2;"/>
   </g>
   <g id="line2d_7">
    <path clip-path="url(#pce705b5e4e)" d="M 18 67.672684 
L 20.277551 67.672684 
L 22.555102 67.672684 
L 24.832653 67.672684 
L 27.110204 67.672684 
L 29.387755 67.672557 
L 31.665306 67.638951 
L 33.942857 67.448904 
L 36.220408 66.97357 
L 38.497959 66.113655 
L 40.77551 64.806 
L 43.053061 63.015095 
L 45.330612 60.67555 
L 47.608163 57.84425 
L 49.885714 54.472723 
L 52.163265 50.611012 
L 54.440816 46.514664 
L 56.718367 42.200543 
L 58.995918 37.826178 
L 61.273469 33.419951 
L 63.55102 29.251345 
L 65.828571 25.300668 
L 68.106122 22.184519 
L 70.383673 19.805393 
L 72.661224 18.471401 
L 74.938776 22.589522 
L 77.216327 18.763907 
L 79.493878 20.689881 
L 81.771429 23.415669 
L 84.04898 26.879806 
L 86.326531 30.644239 
L 88.604082 34.953783 
L 90.881633 39.331595 
L 93.159184 43.807486 
L 95.436735 48.109362 
L 97.714286 52.160414 
L 99.991837 55.708026 
L 102.269388 58.836402 
L 104.546939 61.512736 
L 106.82449 63.669983 
L 109.102041 65.359904 
L 111.379592 66.460843 
L 113.657143 67.177779 
L 115.934694 67.540388 
L 118.212245 67.656045 
L 120.489796 67.672735 
L 122.767347 67.672684 
L 125.044898 67.672684 
L 127.322449 67.672684 
L 129.6 67.672684 
" style="fill:none;stroke:#fc8d62;stroke-dasharray:1.5,1.5;stroke-dashoffset:0;stroke-opacity:0.7;stroke-width:1.5;"/>
   </g>
   <g id="patch_3">
    <path d="M 74.938776 67.68 
L 74.938776 17.28 
" style="fill:none;stroke:#a9a9a9;stroke-linecap:square;stroke-linejoin:miter;stroke-width:2;"/>
   </g>
   <g id="patch_4">
    <path d="M 129.6 67.68 
L 129.6 17.28 
" style="fill:none;"/>
   </g>
   <g id="patch_5">
    <path d="M 18 67.672684 
L 129.6 67.672684 
" style="fill:none;stroke:#a9a9a9;stroke-linecap:square;stroke-linejoin:miter;stroke-width:2;"/>
   </g>
   <g id="patch_6">
    <path d="M 18 17.28 
L 129.6 17.28 
" style="fill:none;"/>
   </g>
   <g id="legend_1">
    <g id="line2d_8">
     <path d="M 87.67 26.448906 
L 101.67 26.448906 
" style="fill:none;stroke:#fc8d62;stroke-linecap:square;stroke-width:2;"/>
    </g>
    <g id="line2d_9"/>
    <g id="text_1">
     <!-- $\theta$ -->
     <g transform="translate(107.27 28.898906)scale(0.07 -0.07)">
      <defs>
       <path d="M 45.515625 34.671875 
L 14.453125 34.671875 
Q 12.359375 20.0625 14.5 13.875 
Q 17.1875 6.25 24.46875 6.25 
Q 31.78125 6.25 37.359375 13.921875 
Q 42.234375 20.65625 45.515625 34.671875 
z
M 47.015625 42.96875 
Q 48.34375 56.84375 46.625 61.71875 
Q 43.953125 69.4375 36.765625 69.4375 
Q 29.296875 69.4375 23.828125 61.8125 
Q 19.53125 55.671875 16.15625 42.96875 
z
M 38.1875 76.765625 
Q 49.90625 76.765625 54.59375 66.40625 
Q 59.28125 56.109375 55.71875 37.84375 
Q 52.203125 19.625 43.453125 9.28125 
Q 34.765625 -1.125 23.046875 -1.125 
Q 11.28125 -1.125 6.640625 9.28125 
Q 2 19.625 5.515625 37.84375 
Q 9.078125 56.109375 17.71875 66.40625 
Q 26.421875 76.765625 38.1875 76.765625 
z
" id="DejaVuSans-Oblique-952"/>
      </defs>
      <use transform="translate(0 0.234375)" xlink:href="#DejaVuSans-Oblique-952"/>
     </g>
    </g>
    <g id="line2d_10">
     <path d="M 87.67 36.723594 
L 101.67 36.723594 
" style="fill:none;stroke:#fc8d62;stroke-dasharray:1.5,1.5;stroke-dashoffset:0;stroke-opacity:0.7;stroke-width:1.5;"/>
    </g>
    <g id="line2d_11"/>
    <g id="text_2">
     <!-- No $\theta$ -->
     <g transform="translate(107.27 39.173594)scale(0.07 -0.07)">
      <defs>
       <path d="M 9.8125 72.90625 
L 23.09375 72.90625 
L 55.421875 11.921875 
L 55.421875 72.90625 
L 64.984375 72.90625 
L 64.984375 0 
L 51.703125 0 
L 19.390625 60.984375 
L 19.390625 0 
L 9.8125 0 
z
" id="DejaVuSans-78"/>
       <path d="M 30.609375 48.390625 
Q 23.390625 48.390625 19.1875 42.75 
Q 14.984375 37.109375 14.984375 27.296875 
Q 14.984375 17.484375 19.15625 11.84375 
Q 23.34375 6.203125 30.609375 6.203125 
Q 37.796875 6.203125 41.984375 11.859375 
Q 46.1875 17.53125 46.1875 27.296875 
Q 46.1875 37.015625 41.984375 42.703125 
Q 37.796875 48.390625 30.609375 48.390625 
z
M 30.609375 56 
Q 42.328125 56 49.015625 48.375 
Q 55.71875 40.765625 55.71875 27.296875 
Q 55.71875 13.875 49.015625 6.21875 
Q 42.328125 -1.421875 30.609375 -1.421875 
Q 18.84375 -1.421875 12.171875 6.21875 
Q 5.515625 13.875 5.515625 27.296875 
Q 5.515625 40.765625 12.171875 48.375 
Q 18.84375 56 30.609375 56 
z
" id="DejaVuSans-111"/>
       <path id="DejaVuSans-32"/>
      </defs>
      <use transform="translate(0 0.234375)" xlink:href="#DejaVuSans-78"/>
      <use transform="translate(74.804688 0.234375)" xlink:href="#DejaVuSans-111"/>
      <use transform="translate(135.986328 0.234375)" xlink:href="#DejaVuSans-32"/>
      <use transform="translate(167.773438 0.234375)" xlink:href="#DejaVuSans-Oblique-952"/>
     </g>
    </g>
   </g>
  </g>
  <g id="axes_2">
   <g id="patch_7">
    <path d="M 18 128.16 
L 129.6 128.16 
L 129.6 77.76 
L 18 77.76 
z
" style="fill:none;"/>
   </g>
   <g id="PolyCollection_3">
    <path clip-path="url(#p10b60fa741)" d="M 18 120.496627 
L 18 120.420394 
L 20.277551 120.637298 
L 22.555102 120.698111 
L 24.832653 120.611654 
L 27.110204 120.427035 
L 29.387755 120.222918 
L 31.665306 120.048855 
L 33.942857 119.764214 
L 36.220408 119.206651 
L 38.497959 118.248566 
L 40.77551 116.798312 
L 43.053061 114.804447 
L 45.330612 112.258822 
L 47.608163 109.193616 
L 49.885714 105.677111 
L 52.163265 101.810123 
L 54.440816 97.722219 
L 56.718367 93.567763 
L 58.995918 89.521232 
L 61.273469 85.772034 
L 63.55102 82.519025 
L 65.828571 79.965228 
L 68.106122 78.31302 
L 70.383673 77.76 
L 72.661224 78.495745 
L 74.938776 80.689225 
L 77.216327 84.431313 
L 79.493878 89.31922 
L 81.771429 94.904119 
L 84.04898 100.766982 
L 86.326531 106.542862 
L 88.604082 111.930003 
L 90.881633 116.694723 
L 93.159184 120.672683 
L 95.436735 123.767845 
L 97.714286 125.949781 
L 99.991837 127.247509 
L 102.269388 127.738813 
L 104.546939 127.53748 
L 106.82449 126.782427 
L 109.102041 125.628553 
L 111.379592 124.238715 
L 113.657143 122.776706 
L 115.934694 121.401931 
L 118.212245 120.267555 
L 120.489796 119.524195 
L 122.767347 119.268821 
L 125.044898 119.382349 
L 127.322449 119.700948 
L 129.6 120.083535 
L 129.6 120.185229 
L 129.6 120.185229 
L 127.322449 119.827373 
L 125.044898 119.527738 
L 122.767347 119.424865 
L 120.489796 119.684277 
L 118.212245 120.435918 
L 115.934694 121.596798 
L 113.657143 123.016033 
L 111.379592 124.529954 
L 109.102041 125.968795 
L 106.82449 127.161927 
L 104.546939 127.943527 
L 102.269388 128.16 
L 99.991837 127.679058 
L 97.714286 126.399299 
L 95.436735 124.25841 
L 93.159184 121.238506 
L 90.881633 117.371695 
L 88.604082 112.747631 
L 86.326531 107.520772 
L 84.04898 101.914159 
L 81.771429 96.219007 
L 79.493878 90.790177 
L 77.216327 86.03708 
L 74.938776 82.399619 
L 72.661224 80.273311 
L 70.383673 79.564064 
L 68.106122 80.102249 
L 65.828571 81.69955 
L 63.55102 84.16144 
L 61.273469 87.290287 
L 58.995918 90.889276 
L 56.718367 94.766976 
L 54.440816 98.742314 
L 52.163265 102.649553 
L 49.885714 106.343076 
L 47.608163 109.701585 
L 45.330612 112.631908 
L 43.053061 115.072193 
L 40.77551 116.994363 
L 38.497959 118.404643 
L 36.220408 119.343719 
L 33.942857 119.8909 
L 31.665306 120.166931 
L 29.387755 120.330673 
L 27.110204 120.519554 
L 24.832653 120.685561 
L 22.555102 120.756791 
L 20.277551 120.695786 
L 18 120.496627 
z
" style="fill:#66c2a5;fill-opacity:0.2;"/>
   </g>
   <g id="matplotlib.axis_3">
    <g id="xtick_6">
     <g id="line2d_12">
      <g>
       <use style="fill:#a9a9a9;stroke:#a9a9a9;stroke-width:2;" x="29.387755" xlink:href="#madbb77df3d" y="122.15476"/>
      </g>
     </g>
    </g>
    <g id="xtick_7">
     <g id="line2d_13">
      <g>
       <use style="fill:#a9a9a9;stroke:#a9a9a9;stroke-width:2;" x="52.163265" xlink:href="#madbb77df3d" y="122.15476"/>
      </g>
     </g>
    </g>
    <g id="xtick_8">
     <g id="line2d_14">
      <g>
       <use style="fill:#a9a9a9;stroke:#a9a9a9;stroke-width:2;" x="74.938776" xlink:href="#madbb77df3d" y="122.15476"/>
      </g>
     </g>
    </g>
    <g id="xtick_9">
     <g id="line2d_15">
      <g>
       <use style="fill:#a9a9a9;stroke:#a9a9a9;stroke-width:2;" x="97.714286" xlink:href="#madbb77df3d" y="122.15476"/>
      </g>
     </g>
    </g>
    <g id="xtick_10">
     <g id="line2d_16">
      <g>
       <use style="fill:#a9a9a9;stroke:#a9a9a9;stroke-width:2;" x="120.489796" xlink:href="#madbb77df3d" y="122.15476"/>
      </g>
     </g>
    </g>
   </g>
   <g id="matplotlib.axis_4"/>
   <g id="line2d_17">
    <path clip-path="url(#p10b60fa741)" d="M 18 120.45851 
L 20.277551 120.666542 
L 22.555102 120.727451 
L 24.832653 120.648607 
L 27.110204 120.473294 
L 29.387755 120.276796 
L 31.665306 120.107893 
L 33.942857 119.827557 
L 36.220408 119.275185 
L 38.497959 118.326605 
L 40.77551 116.896337 
L 43.053061 114.93832 
L 45.330612 112.445365 
L 47.608163 109.447601 
L 49.885714 106.010094 
L 52.163265 102.229838 
L 54.440816 98.232266 
L 56.718367 94.167369 
L 58.995918 90.205254 
L 61.273469 86.531161 
L 63.55102 83.340232 
L 65.828571 80.832389 
L 68.106122 79.207635 
L 70.383673 78.662032 
L 72.661224 79.384528 
L 74.938776 81.544422 
L 77.216327 85.234197 
L 79.493878 90.054698 
L 81.771429 95.561563 
L 84.04898 101.34057 
L 86.326531 107.031817 
L 88.604082 112.338817 
L 90.881633 117.033209 
L 93.159184 120.955594 
L 95.436735 124.013127 
L 97.714286 126.17454 
L 99.991837 127.463283 
L 102.269388 127.949406 
L 104.546939 127.740504 
L 106.82449 126.972177 
L 109.102041 125.798674 
L 111.379592 124.384335 
L 113.657143 122.89637 
L 115.934694 121.499365 
L 118.212245 120.351736 
L 120.489796 119.604236 
L 122.767347 119.346843 
L 125.044898 119.455043 
L 127.322449 119.76416 
L 129.6 120.134382 
" style="fill:none;stroke:#66c2a5;stroke-linecap:square;stroke-width:2;"/>
   </g>
   <g id="patch_8">
    <path d="M 74.938776 128.16 
L 74.938776 77.76 
" style="fill:none;stroke:#a9a9a9;stroke-linecap:square;stroke-linejoin:miter;stroke-width:2;"/>
   </g>
   <g id="patch_9">
    <path d="M 129.6 128.16 
L 129.6 77.76 
" style="fill:none;"/>
   </g>
   <g id="patch_10">
    <path d="M 18 122.15476 
L 129.6 122.15476 
" style="fill:none;stroke:#a9a9a9;stroke-linecap:square;stroke-linejoin:miter;stroke-width:2;"/>
   </g>
   <g id="patch_11">
    <path d="M 18 77.76 
L 129.6 77.76 
" style="fill:none;"/>
   </g>
  </g>
 </g>
 <defs>
  <clipPath id="pce705b5e4e">
   <rect height="50.4" width="111.6" x="18" y="17.28"/>
  </clipPath>
  <clipPath id="p10b60fa741">
   <rect height="50.4" width="111.6" x="18" y="77.76"/>
  </clipPath>
 </defs>
</svg>
