<?xml version="1.0" encoding="utf-8" standalone="no"?>
<!DOCTYPE svg PUBLIC "-//W3C//DTD SVG 1.1//EN"
  "http://www.w3.org/Graphics/SVG/1.1/DTD/svg11.dtd">
<!-- Created with matplotlib (https://matplotlib.org/) -->
<svg height="144pt" version="1.1" viewBox="0 0 144 144" width="144pt" xmlns="http://www.w3.org/2000/svg" xmlns:xlink="http://www.w3.org/1999/xlink">
 <metadata>
  <rdf:RDF xmlns:cc="http://creativecommons.org/ns#" xmlns:dc="http://purl.org/dc/elements/1.1/" xmlns:rdf="http://www.w3.org/1999/02/22-rdf-syntax-ns#">
   <cc:Work>
    <dc:type rdf:resource="http://purl.org/dc/dcmitype/StillImage"/>
    <dc:date>2021-10-13T14:17:00.787423</dc:date>
    <dc:format>image/svg+xml</dc:format>
    <dc:creator>
     <cc:Agent>
      <dc:title>Matplotlib v3.3.2, https://matplotlib.org/</dc:title>
     </cc:Agent>
    </dc:creator>
   </cc:Work>
  </rdf:RDF>
 </metadata>
 <defs>
  <style type="text/css">*{stroke-linecap:butt;stroke-linejoin:round;}</style>
 </defs>
 <g id="figure_1">
  <g id="patch_1">
   <path d="M 0 144 
L 144 144 
L 144 0 
L 0 0 
z
" style="fill:none;"/>
  </g>
  <g id="axes_1">
   <g id="patch_2">
    <path d="M 18 67.68 
L 129.6 67.68 
L 129.6 17.28 
L 18 17.28 
z
" style="fill:none;"/>
   </g>
   <g id="PolyCollection_1">
    <path clip-path="url(#p3f0a06a203)" d="M 18 17.301445 
L 18 17.301445 
L 20.277551 17.301445 
L 22.555102 17.301445 
L 24.832653 17.301445 
L 27.110204 17.301445 
L 29.387755 17.301442 
L 31.665306 17.28 
L 33.942857 17.320776 
L 36.220408 17.537226 
L 38.497959 17.908726 
L 40.77551 18.672642 
L 43.053061 19.606681 
L 45.330612 20.904437 
L 47.608163 22.806881 
L 49.885714 24.787361 
L 52.163265 27.222041 
L 54.440816 29.956388 
L 56.718367 32.668855 
L 58.995918 35.675676 
L 61.273469 39.551435 
L 63.55102 42.842692 
L 65.828571 46.254837 
L 68.106122 50.490186 
L 70.383673 53.100837 
L 72.661224 56.218642 
L 74.938776 63.257235 
L 77.216327 61.208486 
L 79.493878 61.080241 
L 81.771429 60.093211 
L 84.04898 59.234892 
L 86.326531 56.170691 
L 88.604082 52.628708 
L 90.881633 48.924022 
L 93.159184 44.724211 
L 95.436735 39.98218 
L 97.714286 35.634651 
L 99.991837 31.67441 
L 102.269388 27.993525 
L 104.546939 24.799534 
L 106.82449 22.108602 
L 109.102041 20.031323 
L 111.379592 18.751314 
L 113.657143 17.912028 
L 115.934694 17.464826 
L 118.212245 17.310407 
L 120.489796 17.300653 
L 122.767347 17.301444 
L 125.044898 17.301445 
L 127.322449 17.301445 
L 129.6 17.301445 
L 129.6 17.301445 
L 129.6 17.301445 
L 127.322449 17.301445 
L 125.044898 17.301445 
L 122.767347 17.301451 
L 120.489796 17.304181 
L 118.212245 17.383206 
L 115.934694 17.65632 
L 113.657143 18.26416 
L 111.379592 19.334399 
L 109.102041 20.96778 
L 106.82449 23.283144 
L 104.546939 26.136243 
L 102.269388 29.632793 
L 99.991837 33.557203 
L 97.714286 38.262112 
L 95.436735 43.330373 
L 93.159184 48.193893 
L 90.881633 52.515919 
L 88.604082 56.672685 
L 86.326531 60.248858 
L 84.04898 62.940047 
L 81.771429 64.527919 
L 79.493878 66.067482 
L 77.216327 65.423545 
L 74.938776 67.68 
L 72.661224 60.305051 
L 70.383673 57.855714 
L 68.106122 54.458411 
L 65.828571 50.406881 
L 63.55102 46.414891 
L 61.273469 42.917077 
L 58.995918 39.132197 
L 56.718367 35.837925 
L 54.440816 32.209812 
L 52.163265 29.656423 
L 49.885714 26.718913 
L 47.608163 24.48839 
L 45.330612 22.24125 
L 43.053061 20.690242 
L 40.77551 19.532479 
L 38.497959 18.482637 
L 36.220408 17.846164 
L 33.942857 17.504866 
L 31.665306 17.339256 
L 29.387755 17.301448 
L 27.110204 17.301445 
L 24.832653 17.301445 
L 22.555102 17.301445 
L 20.277551 17.301445 
L 18 17.301445 
z
" style="fill:#fc8d62;fill-opacity:0.2;"/>
   </g>
   <g id="PolyCollection_2">
    <path clip-path="url(#p3f0a06a203)" d="M 18 17.301445 
L 18 17.301445 
L 20.277551 17.301445 
L 22.555102 17.301445 
L 24.832653 17.301445 
L 27.110204 17.301445 
L 29.387755 17.301445 
L 31.665306 17.257809 
L 33.942857 17.286855 
L 36.220408 17.49463 
L 38.497959 17.965849 
L 40.77551 18.861982 
L 43.053061 20.21802 
L 45.330612 21.993339 
L 47.608163 24.647184 
L 49.885714 27.254646 
L 52.163265 30.533493 
L 54.440816 34.94287 
L 56.718367 38.607101 
L 58.995918 42.46599 
L 61.273469 47.201835 
L 63.55102 51.624701 
L 65.828571 54.918484 
L 68.106122 58.316123 
L 70.383673 60.974642 
L 72.661224 62.875053 
L 74.938776 67.125875 
L 77.216327 64.066882 
L 79.493878 62.412804 
L 81.771429 59.984553 
L 84.04898 57.196956 
L 86.326531 53.321134 
L 88.604082 49.059922 
L 90.881633 45.36265 
L 93.159184 41.201466 
L 95.436735 36.350228 
L 97.714286 32.897525 
L 99.991837 29.255521 
L 102.269388 25.811261 
L 104.546939 23.569502 
L 106.82449 21.234809 
L 109.102041 19.677162 
L 111.379592 18.519573 
L 113.657143 17.772371 
L 115.934694 17.444242 
L 118.212245 17.302605 
L 120.489796 17.301305 
L 122.767347 17.301445 
L 125.044898 17.301445 
L 127.322449 17.301445 
L 129.6 17.301445 
L 129.6 17.301445 
L 129.6 17.301445 
L 127.322449 17.301445 
L 125.044898 17.301445 
L 122.767347 17.301449 
L 120.489796 17.302566 
L 118.212245 17.405245 
L 115.934694 17.683089 
L 113.657143 18.290819 
L 111.379592 19.259744 
L 109.102041 20.49143 
L 106.82449 22.432152 
L 104.546939 24.847271 
L 102.269388 27.577955 
L 99.991837 31.472279 
L 97.714286 35.316053 
L 95.436735 39.371018 
L 93.159184 44.000272 
L 90.881633 48.520057 
L 88.604082 52.834763 
L 86.326531 57.299868 
L 84.04898 61.044782 
L 81.771429 64.072649 
L 79.493878 66.407854 
L 77.216327 68.165322 
L 74.938776 70.82334 
L 72.661224 67.095536 
L 70.383673 65.366223 
L 68.106122 62.632993 
L 65.828571 59.02874 
L 63.55102 54.74309 
L 61.273469 50.576874 
L 58.995918 46.043734 
L 56.718367 41.367392 
L 54.440816 36.950935 
L 52.163265 32.840904 
L 49.885714 29.038814 
L 47.608163 26.482816 
L 45.330612 23.361757 
L 43.053061 21.306791 
L 40.77551 19.823623 
L 38.497959 18.619335 
L 36.220408 17.895697 
L 33.942857 17.53992 
L 31.665306 17.352241 
L 29.387755 17.301445 
L 27.110204 17.301445 
L 24.832653 17.301445 
L 22.555102 17.301445 
L 20.277551 17.301445 
L 18 17.301445 
z
" style="fill:#fc8d62;fill-opacity:0.2;"/>
   </g>
   <g id="matplotlib.axis_1">
    <g id="xtick_1">
     <g id="line2d_1">
      <defs>
       <path d="M 0 0 
L 0 3.5 
" id="ma632dbf42f" style="stroke:#a9a9a9;stroke-width:2;"/>
      </defs>
      <g>
       <use style="fill:#a9a9a9;stroke:#a9a9a9;stroke-width:2;" x="29.387755" xlink:href="#ma632dbf42f" y="17.301445"/>
      </g>
     </g>
    </g>
    <g id="xtick_2">
     <g id="line2d_2">
      <g>
       <use style="fill:#a9a9a9;stroke:#a9a9a9;stroke-width:2;" x="52.163265" xlink:href="#ma632dbf42f" y="17.301445"/>
      </g>
     </g>
    </g>
    <g id="xtick_3">
     <g id="line2d_3">
      <g>
       <use style="fill:#a9a9a9;stroke:#a9a9a9;stroke-width:2;" x="74.938776" xlink:href="#ma632dbf42f" y="17.301445"/>
      </g>
     </g>
    </g>
    <g id="xtick_4">
     <g id="line2d_4">
      <g>
       <use style="fill:#a9a9a9;stroke:#a9a9a9;stroke-width:2;" x="97.714286" xlink:href="#ma632dbf42f" y="17.301445"/>
      </g>
     </g>
    </g>
    <g id="xtick_5">
     <g id="line2d_5">
      <g>
       <use style="fill:#a9a9a9;stroke:#a9a9a9;stroke-width:2;" x="120.489796" xlink:href="#ma632dbf42f" y="17.301445"/>
      </g>
     </g>
    </g>
   </g>
   <g id="matplotlib.axis_2"/>
   <g id="line2d_6">
    <path clip-path="url(#p3f0a06a203)" d="M 18 17.301445 
L 20.277551 17.301445 
L 22.555102 17.301445 
L 24.832653 17.301445 
L 27.110204 17.301445 
L 29.387755 17.301445 
L 31.665306 17.309628 
L 33.942857 17.412821 
L 36.220408 17.691695 
L 38.497959 18.195681 
L 40.77551 19.10256 
L 43.053061 20.148462 
L 45.330612 21.572843 
L 47.608163 23.647636 
L 49.885714 25.753137 
L 52.163265 28.439232 
L 54.440816 31.0831 
L 56.718367 34.25339 
L 58.995918 37.403936 
L 61.273469 41.234256 
L 63.55102 44.628791 
L 65.828571 48.330859 
L 68.106122 52.474299 
L 70.383673 55.478275 
L 72.661224 58.261846 
L 74.938776 65.468617 
L 77.216327 63.316016 
L 79.493878 63.573861 
L 81.771429 62.310565 
L 84.04898 61.087469 
L 86.326531 58.209775 
L 88.604082 54.650696 
L 90.881633 50.71997 
L 93.159184 46.459052 
L 95.436735 41.656277 
L 97.714286 36.948382 
L 99.991837 32.615806 
L 102.269388 28.813159 
L 104.546939 25.467889 
L 106.82449 22.695873 
L 109.102041 20.499552 
L 111.379592 19.042857 
L 113.657143 18.088094 
L 115.934694 17.560573 
L 118.212245 17.346807 
L 120.489796 17.302417 
L 122.767347 17.301447 
L 125.044898 17.301445 
L 127.322449 17.301445 
L 129.6 17.301445 
" style="fill:none;stroke:#fc8d62;stroke-linecap:square;stroke-width:2;"/>
   </g>
   <g id="line2d_7">
    <path clip-path="url(#p3f0a06a203)" d="M 18 17.301445 
L 20.277551 17.301445 
L 22.555102 17.301445 
L 24.832653 17.301445 
L 27.110204 17.301445 
L 29.387755 17.301445 
L 31.665306 17.305025 
L 33.942857 17.413388 
L 36.220408 17.695164 
L 38.497959 18.292592 
L 40.77551 19.342803 
L 43.053061 20.762406 
L 45.330612 22.677548 
L 47.608163 25.565 
L 49.885714 28.14673 
L 52.163265 31.687199 
L 54.440816 35.946902 
L 56.718367 39.987247 
L 58.995918 44.254862 
L 61.273469 48.889354 
L 63.55102 53.183896 
L 65.828571 56.973612 
L 68.106122 60.474558 
L 70.383673 63.170432 
L 72.661224 64.985294 
L 74.938776 68.974607 
L 77.216327 66.116102 
L 79.493878 64.410329 
L 81.771429 62.028601 
L 84.04898 59.120869 
L 86.326531 55.310501 
L 88.604082 50.947342 
L 90.881633 46.941353 
L 93.159184 42.600869 
L 95.436735 37.860623 
L 97.714286 34.106789 
L 99.991837 30.3639 
L 102.269388 26.694608 
L 104.546939 24.208387 
L 106.82449 21.83348 
L 109.102041 20.084296 
L 111.379592 18.889659 
L 113.657143 18.031595 
L 115.934694 17.563665 
L 118.212245 17.353925 
L 120.489796 17.301936 
L 122.767347 17.301447 
L 125.044898 17.301445 
L 127.322449 17.301445 
L 129.6 17.301445 
" style="fill:none;stroke:#fc8d62;stroke-dasharray:1.5,1.5;stroke-dashoffset:0;stroke-opacity:0.7;stroke-width:1.5;"/>
   </g>
   <g id="patch_3">
    <path d="M 74.938776 67.68 
L 74.938776 17.28 
" style="fill:none;stroke:#a9a9a9;stroke-linecap:square;stroke-linejoin:miter;stroke-width:2;"/>
   </g>
   <g id="patch_4">
    <path d="M 129.6 67.68 
L 129.6 17.28 
" style="fill:none;"/>
   </g>
   <g id="patch_5">
    <path d="M 18 17.301445 
L 129.6 17.301445 
" style="fill:none;stroke:#a9a9a9;stroke-linecap:square;stroke-linejoin:miter;stroke-width:2;"/>
   </g>
   <g id="patch_6">
    <path d="M 18 17.28 
L 129.6 17.28 
" style="fill:none;"/>
   </g>
   <g id="legend_1">
    <g id="line2d_8">
     <path d="M 24.3 47.199531 
L 38.3 47.199531 
" style="fill:none;stroke:#fc8d62;stroke-linecap:square;stroke-width:2;"/>
    </g>
    <g id="line2d_9"/>
    <g id="text_1">
     <!-- $\theta$ -->
     <g transform="translate(43.9 49.649531)scale(0.07 -0.07)">
      <defs>
       <path d="M 45.515625 34.671875 
L 14.453125 34.671875 
Q 12.359375 20.0625 14.5 13.875 
Q 17.1875 6.25 24.46875 6.25 
Q 31.78125 6.25 37.359375 13.921875 
Q 42.234375 20.65625 45.515625 34.671875 
z
M 47.015625 42.96875 
Q 48.34375 56.84375 46.625 61.71875 
Q 43.953125 69.4375 36.765625 69.4375 
Q 29.296875 69.4375 23.828125 61.8125 
Q 19.53125 55.671875 16.15625 42.96875 
z
M 38.1875 76.765625 
Q 49.90625 76.765625 54.59375 66.40625 
Q 59.28125 56.109375 55.71875 37.84375 
Q 52.203125 19.625 43.453125 9.28125 
Q 34.765625 -1.125 23.046875 -1.125 
Q 11.28125 -1.125 6.640625 9.28125 
Q 2 19.625 5.515625 37.84375 
Q 9.078125 56.109375 17.71875 66.40625 
Q 26.421875 76.765625 38.1875 76.765625 
z
" id="DejaVuSans-Oblique-952"/>
      </defs>
      <use transform="translate(0 0.234375)" xlink:href="#DejaVuSans-Oblique-952"/>
     </g>
    </g>
    <g id="line2d_10">
     <path d="M 24.3 57.474219 
L 38.3 57.474219 
" style="fill:none;stroke:#fc8d62;stroke-dasharray:1.5,1.5;stroke-dashoffset:0;stroke-opacity:0.7;stroke-width:1.5;"/>
    </g>
    <g id="line2d_11"/>
    <g id="text_2">
     <!-- No $\theta$ -->
     <g transform="translate(43.9 59.924219)scale(0.07 -0.07)">
      <defs>
       <path d="M 9.8125 72.90625 
L 23.09375 72.90625 
L 55.421875 11.921875 
L 55.421875 72.90625 
L 64.984375 72.90625 
L 64.984375 0 
L 51.703125 0 
L 19.390625 60.984375 
L 19.390625 0 
L 9.8125 0 
z
" id="DejaVuSans-78"/>
       <path d="M 30.609375 48.390625 
Q 23.390625 48.390625 19.1875 42.75 
Q 14.984375 37.109375 14.984375 27.296875 
Q 14.984375 17.484375 19.15625 11.84375 
Q 23.34375 6.203125 30.609375 6.203125 
Q 37.796875 6.203125 41.984375 11.859375 
Q 46.1875 17.53125 46.1875 27.296875 
Q 46.1875 37.015625 41.984375 42.703125 
Q 37.796875 48.390625 30.609375 48.390625 
z
M 30.609375 56 
Q 42.328125 56 49.015625 48.375 
Q 55.71875 40.765625 55.71875 27.296875 
Q 55.71875 13.875 49.015625 6.21875 
Q 42.328125 -1.421875 30.609375 -1.421875 
Q 18.84375 -1.421875 12.171875 6.21875 
Q 5.515625 13.875 5.515625 27.296875 
Q 5.515625 40.765625 12.171875 48.375 
Q 18.84375 56 30.609375 56 
z
" id="DejaVuSans-111"/>
       <path id="DejaVuSans-32"/>
      </defs>
      <use transform="translate(0 0.234375)" xlink:href="#DejaVuSans-78"/>
      <use transform="translate(74.804688 0.234375)" xlink:href="#DejaVuSans-111"/>
      <use transform="translate(135.986328 0.234375)" xlink:href="#DejaVuSans-32"/>
      <use transform="translate(167.773438 0.234375)" xlink:href="#DejaVuSans-Oblique-952"/>
     </g>
    </g>
   </g>
  </g>
  <g id="axes_2">
   <g id="patch_7">
    <path d="M 18 128.16 
L 129.6 128.16 
L 129.6 77.76 
L 18 77.76 
z
" style="fill:none;"/>
   </g>
   <g id="PolyCollection_3">
    <path clip-path="url(#p192f48859d)" d="M 18 120.515713 
L 18 120.436947 
L 20.277551 120.656903 
L 22.555102 120.718088 
L 24.832653 120.62986 
L 27.110204 120.44162 
L 29.387755 120.233267 
L 31.665306 120.056195 
L 33.942857 119.768911 
L 36.220408 119.208565 
L 38.497959 118.247555 
L 40.77551 116.794801 
L 43.053061 114.799023 
L 45.330612 112.251904 
L 47.608163 109.185502 
L 49.885714 105.667899 
L 52.163265 101.799931 
L 54.440816 97.711316 
L 56.718367 93.556515 
L 58.995918 89.510038 
L 61.273469 85.761359 
L 63.55102 82.509468 
L 65.828571 79.957589 
L 68.106122 78.308405 
L 70.383673 77.76 
L 72.661224 78.50266 
L 74.938776 80.706224 
L 77.216327 84.463037 
L 79.493878 89.367026 
L 81.771429 94.967023 
L 84.04898 100.842252 
L 86.326531 106.62668 
L 88.604082 112.018114 
L 90.881633 116.782847 
L 93.159184 120.756515 
L 95.436735 123.842825 
L 97.714286 126.01121 
L 99.991837 127.291648 
L 102.269388 127.76366 
L 104.546939 127.54304 
L 106.82449 126.770372 
L 109.102041 125.601686 
L 111.379592 124.200645 
L 113.657143 122.731659 
L 115.934694 121.354673 
L 118.212245 120.223289 
L 120.489796 119.487793 
L 122.767347 119.24427 
L 125.044898 119.370664 
L 127.322449 119.701254 
L 129.6 120.09356 
L 129.6 120.19605 
L 129.6 120.19605 
L 127.322449 119.827233 
L 125.044898 119.515065 
L 122.767347 119.399807 
L 120.489796 119.64915 
L 118.212245 120.394598 
L 115.934694 121.552449 
L 113.657143 122.971503 
L 111.379592 124.488407 
L 109.102041 125.933523 
L 106.82449 127.136021 
L 104.546939 127.929593 
L 102.269388 128.16 
L 99.991837 127.694424 
L 97.714286 126.430955 
L 95.436735 124.306345 
L 93.159184 121.301044 
L 90.881633 117.44468 
L 88.604082 112.824856 
L 86.326531 107.595038 
L 84.04898 101.978373 
L 81.771429 96.267071 
L 79.493878 90.817818 
L 77.216327 86.042697 
L 74.938776 82.384905 
L 72.661224 80.24388 
L 70.383673 79.524373 
L 68.106122 80.055951 
L 65.828571 81.6496 
L 63.55102 84.110252 
L 61.273469 87.239852 
L 58.995918 90.841252 
L 56.718367 94.722757 
L 54.440816 98.703034 
L 52.163265 102.616079 
L 49.885714 106.316065 
L 47.608163 109.681506 
L 45.330612 112.618877 
L 43.053061 115.065735 
L 40.77551 116.993522 
L 38.497959 118.408045 
L 36.220408 119.350081 
L 33.942857 119.899728 
L 31.665306 120.178315 
L 29.387755 120.345214 
L 27.110204 120.538242 
L 24.832653 120.708227 
L 22.555102 120.78181 
L 20.277551 120.719816 
L 18 120.515713 
z
" style="fill:#66c2a5;fill-opacity:0.2;"/>
   </g>
   <g id="matplotlib.axis_3">
    <g id="xtick_6">
     <g id="line2d_12">
      <g>
       <use style="fill:#a9a9a9;stroke:#a9a9a9;stroke-width:2;" x="29.387755" xlink:href="#ma632dbf42f" y="122.162052"/>
      </g>
     </g>
    </g>
    <g id="xtick_7">
     <g id="line2d_13">
      <g>
       <use style="fill:#a9a9a9;stroke:#a9a9a9;stroke-width:2;" x="52.163265" xlink:href="#ma632dbf42f" y="122.162052"/>
      </g>
     </g>
    </g>
    <g id="xtick_8">
     <g id="line2d_14">
      <g>
       <use style="fill:#a9a9a9;stroke:#a9a9a9;stroke-width:2;" x="74.938776" xlink:href="#ma632dbf42f" y="122.162052"/>
      </g>
     </g>
    </g>
    <g id="xtick_9">
     <g id="line2d_15">
      <g>
       <use style="fill:#a9a9a9;stroke:#a9a9a9;stroke-width:2;" x="97.714286" xlink:href="#ma632dbf42f" y="122.162052"/>
      </g>
     </g>
    </g>
    <g id="xtick_10">
     <g id="line2d_16">
      <g>
       <use style="fill:#a9a9a9;stroke:#a9a9a9;stroke-width:2;" x="120.489796" xlink:href="#ma632dbf42f" y="122.162052"/>
      </g>
     </g>
    </g>
   </g>
   <g id="matplotlib.axis_4"/>
   <g id="line2d_17">
    <path clip-path="url(#p192f48859d)" d="M 18 120.47633 
L 20.277551 120.688359 
L 22.555102 120.749949 
L 24.832653 120.669044 
L 27.110204 120.489931 
L 29.387755 120.289241 
L 31.665306 120.117255 
L 33.942857 119.83432 
L 36.220408 119.279323 
L 38.497959 118.3278 
L 40.77551 116.894162 
L 43.053061 114.932379 
L 45.330612 112.43539 
L 47.608163 109.433504 
L 49.885714 105.991982 
L 52.163265 102.208005 
L 54.440816 98.207175 
L 56.718367 94.139636 
L 58.995918 90.175645 
L 61.273469 86.500606 
L 63.55102 83.30986 
L 65.828571 80.803594 
L 68.106122 79.182178 
L 70.383673 78.642187 
L 72.661224 79.37327 
L 74.938776 81.545564 
L 77.216327 85.252867 
L 79.493878 90.092422 
L 81.771429 95.617047 
L 84.04898 101.410312 
L 86.326531 107.110859 
L 88.604082 112.421485 
L 90.881633 117.113764 
L 93.159184 121.02878 
L 95.436735 124.074585 
L 97.714286 126.221083 
L 99.991837 127.493036 
L 102.269388 127.96183 
L 104.546939 127.736316 
L 106.82449 126.953197 
L 109.102041 125.767605 
L 111.379592 124.344526 
L 113.657143 122.851581 
L 115.934694 121.453561 
L 118.212245 120.308944 
L 120.489796 119.568472 
L 122.767347 119.322038 
L 125.044898 119.442865 
L 127.322449 119.764244 
L 129.6 120.144805 
" style="fill:none;stroke:#66c2a5;stroke-linecap:square;stroke-width:2;"/>
   </g>
   <g id="patch_8">
    <path d="M 74.938776 128.16 
L 74.938776 77.76 
" style="fill:none;stroke:#a9a9a9;stroke-linecap:square;stroke-linejoin:miter;stroke-width:2;"/>
   </g>
   <g id="patch_9">
    <path d="M 129.6 128.16 
L 129.6 77.76 
" style="fill:none;"/>
   </g>
   <g id="patch_10">
    <path d="M 18 122.162052 
L 129.6 122.162052 
" style="fill:none;stroke:#a9a9a9;stroke-linecap:square;stroke-linejoin:miter;stroke-width:2;"/>
   </g>
   <g id="patch_11">
    <path d="M 18 77.76 
L 129.6 77.76 
" style="fill:none;"/>
   </g>
  </g>
 </g>
 <defs>
  <clipPath id="p3f0a06a203">
   <rect height="50.4" width="111.6" x="18" y="17.28"/>
  </clipPath>
  <clipPath id="p192f48859d">
   <rect height="50.4" width="111.6" x="18" y="77.76"/>
  </clipPath>
 </defs>
</svg>
