<?xml version="1.0" encoding="utf-8" standalone="no"?>
<!DOCTYPE svg PUBLIC "-//W3C//DTD SVG 1.1//EN"
  "http://www.w3.org/Graphics/SVG/1.1/DTD/svg11.dtd">
<!-- Created with matplotlib (https://matplotlib.org/) -->
<svg height="144pt" version="1.1" viewBox="0 0 144 144" width="144pt" xmlns="http://www.w3.org/2000/svg" xmlns:xlink="http://www.w3.org/1999/xlink">
 <metadata>
  <rdf:RDF xmlns:cc="http://creativecommons.org/ns#" xmlns:dc="http://purl.org/dc/elements/1.1/" xmlns:rdf="http://www.w3.org/1999/02/22-rdf-syntax-ns#">
   <cc:Work>
    <dc:type rdf:resource="http://purl.org/dc/dcmitype/StillImage"/>
    <dc:date>2021-10-14T18:34:12.614642</dc:date>
    <dc:format>image/svg+xml</dc:format>
    <dc:creator>
     <cc:Agent>
      <dc:title>Matplotlib v3.3.2, https://matplotlib.org/</dc:title>
     </cc:Agent>
    </dc:creator>
   </cc:Work>
  </rdf:RDF>
 </metadata>
 <defs>
  <style type="text/css">*{stroke-linecap:butt;stroke-linejoin:round;}</style>
 </defs>
 <g id="figure_1">
  <g id="patch_1">
   <path d="M 0 144 
L 144 144 
L 144 0 
L 0 0 
z
" style="fill:none;"/>
  </g>
  <g id="axes_1">
   <g id="patch_2">
    <path d="M 18 67.68 
L 129.6 67.68 
L 129.6 17.28 
L 18 17.28 
z
" style="fill:none;"/>
   </g>
   <g id="PolyCollection_1">
    <path clip-path="url(#pfeed4b0c48)" d="M 18 67.664075 
L 18 67.664075 
L 20.277551 67.664075 
L 22.555102 67.664075 
L 24.832653 67.664075 
L 27.110204 67.664073 
L 29.387755 67.660165 
L 31.665306 67.586075 
L 33.942857 67.287166 
L 36.220408 66.831669 
L 38.497959 65.889164 
L 40.77551 64.62874 
L 43.053061 62.681137 
L 45.330612 60.280132 
L 47.608163 57.371621 
L 49.885714 53.557857 
L 52.163265 49.982351 
L 54.440816 44.887788 
L 56.718367 40.818106 
L 58.995918 35.582254 
L 61.273469 30.908132 
L 63.55102 26.970547 
L 65.828571 23.267445 
L 68.106122 20.133918 
L 70.383673 19.388311 
L 72.661224 17.557757 
L 74.938776 17.28 
L 77.216327 18.365893 
L 79.493878 21.012738 
L 81.771429 24.840963 
L 84.04898 28.569518 
L 86.326531 32.665479 
L 88.604082 36.717025 
L 90.881633 41.268789 
L 93.159184 45.15393 
L 95.436735 49.492929 
L 97.714286 53.014149 
L 99.991837 56.394758 
L 102.269388 59.604652 
L 104.546939 61.811007 
L 106.82449 63.740375 
L 109.102041 65.432244 
L 111.379592 66.418485 
L 113.657143 67.059952 
L 115.934694 67.43621 
L 118.212245 67.636377 
L 120.489796 67.664075 
L 122.767347 67.664075 
L 125.044898 67.664075 
L 127.322449 67.664075 
L 129.6 67.664075 
L 129.6 67.664075 
L 129.6 67.664075 
L 127.322449 67.664075 
L 125.044898 67.664075 
L 122.767347 67.664075 
L 120.489796 67.664075 
L 118.212245 67.68 
L 115.934694 67.648279 
L 113.657143 67.405005 
L 111.379592 66.9218 
L 109.102041 66.131613 
L 106.82449 65.089423 
L 104.546939 63.551484 
L 102.269388 61.423546 
L 99.991837 59.043394 
L 97.714286 55.758113 
L 95.436735 52.427154 
L 93.159184 48.583145 
L 90.881633 44.780141 
L 88.604082 41.175887 
L 86.326531 37.333683 
L 84.04898 32.659542 
L 81.771429 29.626869 
L 79.493878 26.960724 
L 77.216327 24.91212 
L 74.938776 23.809276 
L 72.661224 23.25305 
L 70.383673 23.967003 
L 68.106122 25.634318 
L 65.828571 28.868237 
L 63.55102 31.812158 
L 61.273469 36.122424 
L 58.995918 40.347963 
L 56.718367 44.593413 
L 54.440816 48.700558 
L 52.163265 52.783778 
L 49.885714 56.221486 
L 47.608163 59.508714 
L 45.330612 62.03127 
L 43.053061 64.118328 
L 40.77551 65.643074 
L 38.497959 66.628753 
L 36.220408 67.27429 
L 33.942857 67.571823 
L 31.665306 67.675785 
L 29.387755 67.66655 
L 27.110204 67.664076 
L 24.832653 67.664075 
L 22.555102 67.664075 
L 20.277551 67.664075 
L 18 67.664075 
z
" style="fill:#fc8d62;fill-opacity:0.2;"/>
   </g>
   <g id="PolyCollection_2">
    <path clip-path="url(#pfeed4b0c48)" d="M 18 67.664075 
L 18 67.664075 
L 20.277551 67.664075 
L 22.555102 67.664075 
L 24.832653 67.664075 
L 27.110204 67.664073 
L 29.387755 67.663424 
L 31.665306 67.579977 
L 33.942857 67.312144 
L 36.220408 66.851775 
L 38.497959 65.873332 
L 40.77551 64.432737 
L 43.053061 62.686499 
L 45.330612 60.510933 
L 47.608163 57.394937 
L 49.885714 54.108003 
L 52.163265 50.714981 
L 54.440816 46.043421 
L 56.718367 41.931218 
L 58.995918 37.307438 
L 61.273469 33.083732 
L 63.55102 28.824126 
L 65.828571 25.066627 
L 68.106122 21.990002 
L 70.383673 19.54748 
L 72.661224 17.616105 
L 74.938776 16.819055 
L 77.216327 18.326486 
L 79.493878 18.877459 
L 81.771429 21.913683 
L 84.04898 25.810228 
L 86.326531 30.051103 
L 88.604082 34.369528 
L 90.881633 39.507827 
L 93.159184 43.130413 
L 95.436735 47.814031 
L 97.714286 51.703503 
L 99.991837 55.388022 
L 102.269388 58.644979 
L 104.546939 61.447526 
L 106.82449 63.510458 
L 109.102041 65.205094 
L 111.379592 66.246418 
L 113.657143 67.035373 
L 115.934694 67.421239 
L 118.212245 67.63059 
L 120.489796 67.664075 
L 122.767347 67.664075 
L 125.044898 67.664075 
L 127.322449 67.664075 
L 129.6 67.664075 
L 129.6 67.664075 
L 129.6 67.664075 
L 127.322449 67.664075 
L 125.044898 67.664075 
L 122.767347 67.664075 
L 120.489796 67.664075 
L 118.212245 67.682702 
L 115.934694 67.685144 
L 113.657143 67.450639 
L 111.379592 67.006395 
L 109.102041 66.131382 
L 106.82449 64.865984 
L 104.546939 63.080163 
L 102.269388 60.810239 
L 99.991837 57.882267 
L 97.714286 54.749687 
L 95.436735 50.892177 
L 93.159184 46.485739 
L 90.881633 43.446111 
L 88.604082 38.480645 
L 86.326531 34.513102 
L 84.04898 31.113858 
L 81.771429 27.999689 
L 79.493878 24.795134 
L 77.216327 24.152235 
L 74.938776 23.307464 
L 72.661224 23.214954 
L 70.383673 24.851362 
L 68.106122 27.647383 
L 65.828571 30.216613 
L 63.55102 33.246855 
L 61.273469 37.794423 
L 58.995918 41.373265 
L 56.718367 45.821199 
L 54.440816 49.715948 
L 52.163265 53.824778 
L 49.885714 56.959967 
L 47.608163 59.954678 
L 45.330612 62.109835 
L 43.053061 64.254492 
L 40.77551 65.741255 
L 38.497959 66.709928 
L 36.220408 67.300919 
L 33.942857 67.588083 
L 31.665306 67.677699 
L 29.387755 67.664394 
L 27.110204 67.664077 
L 24.832653 67.664075 
L 22.555102 67.664075 
L 20.277551 67.664075 
L 18 67.664075 
z
" style="fill:#fc8d62;fill-opacity:0.2;"/>
   </g>
   <g id="matplotlib.axis_1">
    <g id="xtick_1">
     <g id="line2d_1">
      <defs>
       <path d="M 0 0 
L 0 3.5 
" id="m8e22b2b88d" style="stroke:#a9a9a9;stroke-width:2;"/>
      </defs>
      <g>
       <use style="fill:#a9a9a9;stroke:#a9a9a9;stroke-width:2;" x="29.387755" xlink:href="#m8e22b2b88d" y="67.664075"/>
      </g>
     </g>
    </g>
    <g id="xtick_2">
     <g id="line2d_2">
      <g>
       <use style="fill:#a9a9a9;stroke:#a9a9a9;stroke-width:2;" x="52.163265" xlink:href="#m8e22b2b88d" y="67.664075"/>
      </g>
     </g>
    </g>
    <g id="xtick_3">
     <g id="line2d_3">
      <g>
       <use style="fill:#a9a9a9;stroke:#a9a9a9;stroke-width:2;" x="74.938776" xlink:href="#m8e22b2b88d" y="67.664075"/>
      </g>
     </g>
    </g>
    <g id="xtick_4">
     <g id="line2d_4">
      <g>
       <use style="fill:#a9a9a9;stroke:#a9a9a9;stroke-width:2;" x="97.714286" xlink:href="#m8e22b2b88d" y="67.664075"/>
      </g>
     </g>
    </g>
    <g id="xtick_5">
     <g id="line2d_5">
      <g>
       <use style="fill:#a9a9a9;stroke:#a9a9a9;stroke-width:2;" x="120.489796" xlink:href="#m8e22b2b88d" y="67.664075"/>
      </g>
     </g>
    </g>
   </g>
   <g id="matplotlib.axis_2"/>
   <g id="line2d_6">
    <path clip-path="url(#pfeed4b0c48)" d="M 18 67.664075 
L 20.277551 67.664075 
L 22.555102 67.664075 
L 24.832653 67.664075 
L 27.110204 67.664074 
L 29.387755 67.663358 
L 31.665306 67.63093 
L 33.942857 67.429494 
L 36.220408 67.05298 
L 38.497959 66.258958 
L 40.77551 65.135907 
L 43.053061 63.399733 
L 45.330612 61.155701 
L 47.608163 58.440168 
L 49.885714 54.889671 
L 52.163265 51.383064 
L 54.440816 46.794173 
L 56.718367 42.70576 
L 58.995918 37.965109 
L 61.273469 33.515278 
L 63.55102 29.391353 
L 65.828571 26.067841 
L 68.106122 22.884118 
L 70.383673 21.677657 
L 72.661224 20.405404 
L 74.938776 20.544638 
L 77.216327 21.639007 
L 79.493878 23.986731 
L 81.771429 27.233916 
L 84.04898 30.61453 
L 86.326531 34.999581 
L 88.604082 38.946456 
L 90.881633 43.024465 
L 93.159184 46.868538 
L 95.436735 50.960042 
L 97.714286 54.386131 
L 99.991837 57.719076 
L 102.269388 60.514099 
L 104.546939 62.681245 
L 106.82449 64.414899 
L 109.102041 65.781928 
L 111.379592 66.670143 
L 113.657143 67.232479 
L 115.934694 67.542245 
L 118.212245 67.658189 
L 120.489796 67.664075 
L 122.767347 67.664075 
L 125.044898 67.664075 
L 127.322449 67.664075 
L 129.6 67.664075 
" style="fill:none;stroke:#fc8d62;stroke-linecap:square;stroke-width:2;"/>
   </g>
   <g id="line2d_7">
    <path clip-path="url(#pfeed4b0c48)" d="M 18 67.664075 
L 20.277551 67.664075 
L 22.555102 67.664075 
L 24.832653 67.664075 
L 27.110204 67.664075 
L 29.387755 67.663909 
L 31.665306 67.628838 
L 33.942857 67.450114 
L 36.220408 67.076347 
L 38.497959 66.29163 
L 40.77551 65.086996 
L 43.053061 63.470496 
L 45.330612 61.310384 
L 47.608163 58.674807 
L 49.885714 55.533985 
L 52.163265 52.26988 
L 54.440816 47.879684 
L 56.718367 43.876208 
L 58.995918 39.340352 
L 61.273469 35.439077 
L 63.55102 31.03549 
L 65.828571 27.64162 
L 68.106122 24.818692 
L 70.383673 22.199421 
L 72.661224 20.415529 
L 74.938776 20.063259 
L 77.216327 21.23936 
L 79.493878 21.836296 
L 81.771429 24.956686 
L 84.04898 28.462043 
L 86.326531 32.282102 
L 88.604082 36.425086 
L 90.881633 41.476969 
L 93.159184 44.808076 
L 95.436735 49.353104 
L 97.714286 53.226595 
L 99.991837 56.635145 
L 102.269388 59.727609 
L 104.546939 62.263844 
L 106.82449 64.188221 
L 109.102041 65.668238 
L 111.379592 66.626406 
L 113.657143 67.243006 
L 115.934694 67.553191 
L 118.212245 67.656646 
L 120.489796 67.664075 
L 122.767347 67.664075 
L 125.044898 67.664075 
L 127.322449 67.664075 
L 129.6 67.664075 
" style="fill:none;stroke:#fc8d62;stroke-dasharray:1.5,1.5;stroke-dashoffset:0;stroke-opacity:0.7;stroke-width:1.5;"/>
   </g>
   <g id="patch_3">
    <path d="M 74.938776 67.68 
L 74.938776 17.28 
" style="fill:none;stroke:#a9a9a9;stroke-linecap:square;stroke-linejoin:miter;stroke-width:2;"/>
   </g>
   <g id="patch_4">
    <path d="M 129.6 67.68 
L 129.6 17.28 
" style="fill:none;"/>
   </g>
   <g id="patch_5">
    <path d="M 18 67.664075 
L 129.6 67.664075 
" style="fill:none;stroke:#a9a9a9;stroke-linecap:square;stroke-linejoin:miter;stroke-width:2;"/>
   </g>
   <g id="patch_6">
    <path d="M 18 17.28 
L 129.6 17.28 
" style="fill:none;"/>
   </g>
   <g id="legend_1">
    <g id="line2d_8">
     <path d="M 101.475312 26.448906 
L 115.475312 26.448906 
" style="fill:none;stroke:#fc8d62;stroke-linecap:square;stroke-width:2;"/>
    </g>
    <g id="line2d_9"/>
    <g id="text_1">
     <!--   -->
     <g transform="translate(121.075312 28.898906)scale(0.07 -0.07)">
      <defs>
       <path id="DejaVuSans-32"/>
      </defs>
      <use xlink:href="#DejaVuSans-32"/>
     </g>
    </g>
    <g id="line2d_10">
     <path d="M 101.475312 36.723594 
L 115.475312 36.723594 
" style="fill:none;stroke:#fc8d62;stroke-dasharray:1.5,1.5;stroke-dashoffset:0;stroke-opacity:0.7;stroke-width:1.5;"/>
    </g>
    <g id="line2d_11"/>
    <g id="text_2">
     <!--   -->
     <g transform="translate(121.075312 39.173594)scale(0.07 -0.07)">
      <use xlink:href="#DejaVuSans-32"/>
     </g>
    </g>
   </g>
  </g>
  <g id="axes_2">
   <g id="patch_7">
    <path d="M 18 128.16 
L 129.6 128.16 
L 129.6 77.76 
L 18 77.76 
z
" style="fill:none;"/>
   </g>
   <g id="PolyCollection_3">
    <path clip-path="url(#p385cc81ba0)" d="M 18 120.637099 
L 18 120.555828 
L 20.277551 120.760026 
L 22.555102 120.827565 
L 24.832653 120.762408 
L 27.110204 120.606977 
L 29.387755 120.431671 
L 31.665306 120.278989 
L 33.942857 120.009552 
L 36.220408 119.463695 
L 38.497959 118.51509 
L 40.77551 117.072686 
L 43.053061 115.085159 
L 45.330612 112.54362 
L 47.608163 109.479176 
L 49.885714 105.959109 
L 52.163265 102.083375 
L 54.440816 97.981137 
L 56.718367 93.806793 
L 58.995918 89.734999 
L 61.273469 85.955306 
L 63.55102 82.666526 
L 65.828571 80.071232 
L 68.106122 78.370608 
L 70.383673 77.76 
L 72.661224 78.425317 
L 74.938776 80.533229 
L 77.216327 84.163784 
L 79.493878 88.93954 
L 81.771429 94.426509 
L 84.04898 100.218812 
L 86.326531 105.959621 
L 88.604082 111.350478 
L 90.881633 116.15647 
L 93.159184 120.20825 
L 95.436735 123.401615 
L 97.714286 125.696746 
L 99.991837 127.114535 
L 102.269388 127.726504 
L 104.546939 127.640605 
L 106.82449 126.990017 
L 109.102041 125.924602 
L 111.379592 124.60336 
L 113.657143 123.187499 
L 115.934694 121.834863 
L 118.212245 120.697365 
L 120.489796 119.924289 
L 122.767347 119.615551 
L 125.044898 119.664519 
L 127.322449 119.920498 
L 129.6 120.252122 
L 129.6 120.358716 
L 129.6 120.358716 
L 127.322449 120.05097 
L 125.044898 119.812685 
L 122.767347 119.773193 
L 120.489796 120.086076 
L 118.212245 120.870101 
L 115.934694 122.039733 
L 113.657143 123.442751 
L 111.379592 124.914849 
L 109.102041 126.287011 
L 106.82449 127.390828 
L 104.546939 128.064406 
L 102.269388 128.16 
L 99.991837 127.553309 
L 97.714286 126.153021 
L 95.436735 123.907726 
L 93.159184 120.808568 
L 90.881633 116.89393 
L 88.604082 112.25776 
L 86.326531 107.056924 
L 84.04898 101.513826 
L 81.771429 95.915197 
L 79.493878 90.606765 
L 77.216327 85.98391 
L 74.938776 82.470975 
L 72.661224 80.437258 
L 70.383673 79.799745 
L 68.106122 80.391315 
L 65.828571 82.027753 
L 63.55102 84.517397 
L 61.273469 87.6646 
L 58.995918 91.273953 
L 56.718367 95.155077 
L 54.440816 99.127796 
L 52.163265 103.027302 
L 49.885714 106.709009 
L 47.608163 110.052602 
L 45.330612 112.96589 
L 43.053061 115.388156 
L 40.77551 117.29235 
L 38.497959 118.685524 
L 36.220408 119.60892 
L 33.942857 120.141129 
L 31.665306 120.400506 
L 29.387755 120.542151 
L 27.110204 120.701463 
L 24.832653 120.837882 
L 22.555102 120.888612 
L 20.277551 120.822638 
L 18 120.637099 
z
" style="fill:#66c2a5;fill-opacity:0.2;"/>
   </g>
   <g id="matplotlib.axis_3">
    <g id="xtick_6">
     <g id="line2d_12">
      <g>
       <use style="fill:#a9a9a9;stroke:#a9a9a9;stroke-width:2;" x="29.387755" xlink:href="#m8e22b2b88d" y="122.317124"/>
      </g>
     </g>
    </g>
    <g id="xtick_7">
     <g id="line2d_13">
      <g>
       <use style="fill:#a9a9a9;stroke:#a9a9a9;stroke-width:2;" x="52.163265" xlink:href="#m8e22b2b88d" y="122.317124"/>
      </g>
     </g>
    </g>
    <g id="xtick_8">
     <g id="line2d_14">
      <g>
       <use style="fill:#a9a9a9;stroke:#a9a9a9;stroke-width:2;" x="74.938776" xlink:href="#m8e22b2b88d" y="122.317124"/>
      </g>
     </g>
    </g>
    <g id="xtick_9">
     <g id="line2d_15">
      <g>
       <use style="fill:#a9a9a9;stroke:#a9a9a9;stroke-width:2;" x="97.714286" xlink:href="#m8e22b2b88d" y="122.317124"/>
      </g>
     </g>
    </g>
    <g id="xtick_10">
     <g id="line2d_16">
      <g>
       <use style="fill:#a9a9a9;stroke:#a9a9a9;stroke-width:2;" x="120.489796" xlink:href="#m8e22b2b88d" y="122.317124"/>
      </g>
     </g>
    </g>
   </g>
   <g id="matplotlib.axis_4"/>
   <g id="line2d_17">
    <path clip-path="url(#p385cc81ba0)" d="M 18 120.596463 
L 20.277551 120.791332 
L 22.555102 120.858088 
L 24.832653 120.800145 
L 27.110204 120.65422 
L 29.387755 120.486911 
L 31.665306 120.339747 
L 33.942857 120.075341 
L 36.220408 119.536308 
L 38.497959 118.600307 
L 40.77551 117.182518 
L 43.053061 115.236657 
L 45.330612 112.754755 
L 47.608163 109.765889 
L 49.885714 106.334059 
L 52.163265 102.555339 
L 54.440816 98.554466 
L 56.718367 94.480935 
L 58.995918 90.504476 
L 61.273469 86.809953 
L 63.55102 83.591962 
L 65.828571 81.049493 
L 68.106122 79.380961 
L 70.383673 78.779872 
L 72.661224 79.431288 
L 74.938776 81.502102 
L 77.216327 85.073847 
L 79.493878 89.773153 
L 81.771429 95.170853 
L 84.04898 100.866319 
L 86.326531 106.508273 
L 88.604082 111.804119 
L 90.881633 116.5252 
L 93.159184 120.508409 
L 95.436735 123.654671 
L 97.714286 125.924884 
L 99.991837 127.333922 
L 102.269388 127.943252 
L 104.546939 127.852505 
L 106.82449 127.190422 
L 109.102041 126.105807 
L 111.379592 124.759105 
L 113.657143 123.315125 
L 115.934694 121.937298 
L 118.212245 120.783733 
L 120.489796 120.005183 
L 122.767347 119.694372 
L 125.044898 119.738602 
L 127.322449 119.985734 
L 129.6 120.305419 
" style="fill:none;stroke:#66c2a5;stroke-linecap:square;stroke-width:2;"/>
   </g>
   <g id="patch_8">
    <path d="M 74.938776 128.16 
L 74.938776 77.76 
" style="fill:none;stroke:#a9a9a9;stroke-linecap:square;stroke-linejoin:miter;stroke-width:2;"/>
   </g>
   <g id="patch_9">
    <path d="M 129.6 128.16 
L 129.6 77.76 
" style="fill:none;"/>
   </g>
   <g id="patch_10">
    <path d="M 18 122.317124 
L 129.6 122.317124 
" style="fill:none;stroke:#a9a9a9;stroke-linecap:square;stroke-linejoin:miter;stroke-width:2;"/>
   </g>
   <g id="patch_11">
    <path d="M 18 77.76 
L 129.6 77.76 
" style="fill:none;"/>
   </g>
   <g id="legend_2">
    <g id="line2d_18">
     <path d="M 101.475312 86.928906 
L 115.475312 86.928906 
" style="fill:none;stroke:#66c2a5;stroke-linecap:square;stroke-width:2;"/>
    </g>
    <g id="line2d_19"/>
    <g id="text_3">
     <!--   -->
     <g transform="translate(121.075312 89.378906)scale(0.07 -0.07)">
      <use xlink:href="#DejaVuSans-32"/>
     </g>
    </g>
   </g>
  </g>
 </g>
 <defs>
  <clipPath id="pfeed4b0c48">
   <rect height="50.4" width="111.6" x="18" y="17.28"/>
  </clipPath>
  <clipPath id="p385cc81ba0">
   <rect height="50.4" width="111.6" x="18" y="77.76"/>
  </clipPath>
 </defs>
</svg>
