<?xml version="1.0" encoding="utf-8" standalone="no"?>
<!DOCTYPE svg PUBLIC "-//W3C//DTD SVG 1.1//EN"
  "http://www.w3.org/Graphics/SVG/1.1/DTD/svg11.dtd">
<!-- Created with matplotlib (https://matplotlib.org/) -->
<svg height="144pt" version="1.1" viewBox="0 0 144 144" width="144pt" xmlns="http://www.w3.org/2000/svg" xmlns:xlink="http://www.w3.org/1999/xlink">
 <metadata>
  <rdf:RDF xmlns:cc="http://creativecommons.org/ns#" xmlns:dc="http://purl.org/dc/elements/1.1/" xmlns:rdf="http://www.w3.org/1999/02/22-rdf-syntax-ns#">
   <cc:Work>
    <dc:type rdf:resource="http://purl.org/dc/dcmitype/StillImage"/>
    <dc:date>2021-10-15T00:44:19.842526</dc:date>
    <dc:format>image/svg+xml</dc:format>
    <dc:creator>
     <cc:Agent>
      <dc:title>Matplotlib v3.3.2, https://matplotlib.org/</dc:title>
     </cc:Agent>
    </dc:creator>
   </cc:Work>
  </rdf:RDF>
 </metadata>
 <defs>
  <style type="text/css">*{stroke-linecap:butt;stroke-linejoin:round;}</style>
 </defs>
 <g id="figure_1">
  <g id="patch_1">
   <path d="M 0 144 
L 144 144 
L 144 0 
L 0 0 
z
" style="fill:none;"/>
  </g>
  <g id="axes_1">
   <g id="patch_2">
    <path d="M 18 67.68 
L 129.6 67.68 
L 129.6 17.28 
L 18 17.28 
z
" style="fill:none;"/>
   </g>
   <g id="PolyCollection_1">
    <path clip-path="url(#pfab349f048)" d="M 18 63.516856 
L 18 63.516856 
L 20.277551 63.516856 
L 22.555102 63.516856 
L 24.832653 63.516856 
L 27.110204 63.516856 
L 29.387755 63.516854 
L 31.665306 63.486706 
L 33.942857 63.378244 
L 36.220408 63.210398 
L 38.497959 62.781114 
L 40.77551 62.075771 
L 43.053061 60.893658 
L 45.330612 58.824027 
L 47.608163 56.274253 
L 49.885714 52.966761 
L 52.163265 48.474117 
L 54.440816 43.743755 
L 56.718367 38.288369 
L 58.995918 33.101261 
L 61.273469 27.310363 
L 63.55102 22.437487 
L 65.828571 18.683733 
L 68.106122 17.590175 
L 70.383673 17.28 
L 72.661224 18.78651 
L 74.938776 27.663631 
L 77.216327 27.780585 
L 79.493878 33.479533 
L 81.771429 40.229097 
L 84.04898 46.922571 
L 86.326531 52.20802 
L 88.604082 57.197966 
L 90.881633 60.685499 
L 93.159184 63.316142 
L 95.436735 64.927361 
L 97.714286 65.412129 
L 99.991837 65.703322 
L 102.269388 65.441975 
L 104.546939 64.885352 
L 106.82449 64.389006 
L 109.102041 63.990207 
L 111.379592 63.778792 
L 113.657143 63.541897 
L 115.934694 63.512975 
L 118.212245 63.501202 
L 120.489796 63.5167 
L 122.767347 63.516856 
L 125.044898 63.516856 
L 127.322449 63.516856 
L 129.6 63.516856 
L 129.6 63.516856 
L 129.6 63.516856 
L 127.322449 63.516856 
L 125.044898 63.516856 
L 122.767347 63.516856 
L 120.489796 63.517119 
L 118.212245 63.559167 
L 115.934694 63.690928 
L 113.657143 63.848145 
L 111.379592 64.20107 
L 109.102041 64.618878 
L 106.82449 65.279052 
L 104.546939 66.146218 
L 102.269388 66.924963 
L 99.991837 67.415369 
L 97.714286 67.68 
L 95.436735 67.353115 
L 93.159184 65.847494 
L 90.881633 63.066103 
L 88.604082 59.793265 
L 86.326531 56.486372 
L 84.04898 50.907114 
L 81.771429 43.713625 
L 79.493878 37.325136 
L 77.216327 31.525477 
L 74.938776 31.039164 
L 72.661224 23.315793 
L 70.383673 21.921496 
L 68.106122 21.329339 
L 65.828571 23.097682 
L 63.55102 25.757033 
L 61.273469 31.018568 
L 58.995918 35.614801 
L 56.718367 41.422032 
L 54.440816 46.022163 
L 52.163265 51.287909 
L 49.885714 54.902995 
L 47.608163 57.966016 
L 45.330612 60.439426 
L 43.053061 61.907224 
L 40.77551 62.787895 
L 38.497959 63.225564 
L 36.220408 63.535904 
L 33.942857 63.565592 
L 31.665306 63.533515 
L 29.387755 63.516857 
L 27.110204 63.516856 
L 24.832653 63.516856 
L 22.555102 63.516856 
L 20.277551 63.516856 
L 18 63.516856 
z
" style="fill:#fc8d62;fill-opacity:0.2;"/>
   </g>
   <g id="PolyCollection_2">
    <path clip-path="url(#pfab349f048)" d="M 18 63.516856 
L 18 63.516856 
L 20.277551 63.516856 
L 22.555102 63.516856 
L 24.832653 63.516856 
L 27.110204 63.516856 
L 29.387755 63.516856 
L 31.665306 63.476651 
L 33.942857 63.315498 
L 36.220408 63.127536 
L 38.497959 62.678024 
L 40.77551 62.176667 
L 43.053061 61.469095 
L 45.330612 60.750094 
L 47.608163 59.312353 
L 49.885714 58.362288 
L 52.163265 56.526824 
L 54.440816 54.643783 
L 56.718367 52.9554 
L 58.995918 51.153859 
L 61.273469 50.05264 
L 63.55102 48.113884 
L 65.828571 47.20203 
L 68.106122 46.207306 
L 70.383673 44.523338 
L 72.661224 44.255609 
L 74.938776 48.243219 
L 77.216327 44.783123 
L 79.493878 45.99042 
L 81.771429 46.192515 
L 84.04898 47.761324 
L 86.326531 49.317929 
L 88.604082 50.663052 
L 90.881633 52.677928 
L 93.159184 54.600088 
L 95.436735 55.839328 
L 97.714286 57.281658 
L 99.991837 58.589593 
L 102.269388 60.118429 
L 104.546939 60.918667 
L 106.82449 61.697863 
L 109.102041 62.476797 
L 111.379592 62.841059 
L 113.657143 63.267818 
L 115.934694 63.411364 
L 118.212245 63.474276 
L 120.489796 63.516801 
L 122.767347 63.516856 
L 125.044898 63.516856 
L 127.322449 63.516856 
L 129.6 63.516856 
L 129.6 63.516856 
L 129.6 63.516856 
L 127.322449 63.516856 
L 125.044898 63.516856 
L 122.767347 63.516856 
L 120.489796 63.516997 
L 118.212245 63.545522 
L 115.934694 63.598286 
L 113.657143 63.52869 
L 111.379592 63.423936 
L 109.102041 63.25096 
L 106.82449 62.814944 
L 104.546939 62.124018 
L 102.269388 61.441927 
L 99.991837 60.325064 
L 97.714286 59.296979 
L 95.436735 58.123716 
L 93.159184 56.882043 
L 90.881633 55.271216 
L 88.604082 53.493352 
L 86.326531 52.188213 
L 84.04898 50.2825 
L 81.771429 49.419363 
L 79.493878 49.290086 
L 77.216327 48.005533 
L 74.938776 50.552169 
L 72.661224 47.711224 
L 70.383673 47.427871 
L 68.106122 49.197929 
L 65.828571 50.161706 
L 63.55102 51.532951 
L 61.273469 52.848038 
L 58.995918 54.12457 
L 56.718367 55.704196 
L 54.440816 57.046162 
L 52.163265 58.56134 
L 49.885714 60.03867 
L 47.608163 60.674902 
L 45.330612 61.969798 
L 43.053061 62.443322 
L 40.77551 62.854765 
L 38.497959 63.260182 
L 36.220408 63.434197 
L 33.942857 63.504725 
L 31.665306 63.540139 
L 29.387755 63.516856 
L 27.110204 63.516856 
L 24.832653 63.516856 
L 22.555102 63.516856 
L 20.277551 63.516856 
L 18 63.516856 
z
" style="fill:#fc8d62;fill-opacity:0.2;"/>
   </g>
   <g id="matplotlib.axis_1">
    <g id="xtick_1">
     <g id="line2d_1">
      <defs>
       <path d="M 0 0 
L 0 3.5 
" id="m809b95d1d2" style="stroke:#a9a9a9;stroke-width:2;"/>
      </defs>
      <g>
       <use style="fill:#a9a9a9;stroke:#a9a9a9;stroke-width:2;" x="29.387755" xlink:href="#m809b95d1d2" y="63.516856"/>
      </g>
     </g>
    </g>
    <g id="xtick_2">
     <g id="line2d_2">
      <g>
       <use style="fill:#a9a9a9;stroke:#a9a9a9;stroke-width:2;" x="52.163265" xlink:href="#m809b95d1d2" y="63.516856"/>
      </g>
     </g>
    </g>
    <g id="xtick_3">
     <g id="line2d_3">
      <g>
       <use style="fill:#a9a9a9;stroke:#a9a9a9;stroke-width:2;" x="74.938776" xlink:href="#m809b95d1d2" y="63.516856"/>
      </g>
     </g>
    </g>
    <g id="xtick_4">
     <g id="line2d_4">
      <g>
       <use style="fill:#a9a9a9;stroke:#a9a9a9;stroke-width:2;" x="97.714286" xlink:href="#m809b95d1d2" y="63.516856"/>
      </g>
     </g>
    </g>
    <g id="xtick_5">
     <g id="line2d_5">
      <g>
       <use style="fill:#a9a9a9;stroke:#a9a9a9;stroke-width:2;" x="120.489796" xlink:href="#m809b95d1d2" y="63.516856"/>
      </g>
     </g>
    </g>
   </g>
   <g id="matplotlib.axis_2"/>
   <g id="line2d_6">
    <path clip-path="url(#pfab349f048)" d="M 18 63.516856 
L 20.277551 63.516856 
L 22.555102 63.516856 
L 24.832653 63.516856 
L 27.110204 63.516856 
L 29.387755 63.516856 
L 31.665306 63.510111 
L 33.942857 63.471918 
L 36.220408 63.373151 
L 38.497959 63.003339 
L 40.77551 62.431833 
L 43.053061 61.400441 
L 45.330612 59.631727 
L 47.608163 57.120134 
L 49.885714 53.934878 
L 52.163265 49.881013 
L 54.440816 44.882959 
L 56.718367 39.8552 
L 58.995918 34.358031 
L 61.273469 29.164466 
L 63.55102 24.09726 
L 65.828571 20.890708 
L 68.106122 19.459757 
L 70.383673 19.600748 
L 72.661224 21.051152 
L 74.938776 29.351397 
L 77.216327 29.653031 
L 79.493878 35.402335 
L 81.771429 41.971361 
L 84.04898 48.914843 
L 86.326531 54.347196 
L 88.604082 58.495616 
L 90.881633 61.875801 
L 93.159184 64.581818 
L 95.436735 66.140238 
L 97.714286 66.546064 
L 99.991837 66.559346 
L 102.269388 66.183469 
L 104.546939 65.515785 
L 106.82449 64.834029 
L 109.102041 64.304543 
L 111.379592 63.989931 
L 113.657143 63.695021 
L 115.934694 63.601952 
L 118.212245 63.530184 
L 120.489796 63.51691 
L 122.767347 63.516856 
L 125.044898 63.516856 
L 127.322449 63.516856 
L 129.6 63.516856 
" style="fill:none;stroke:#fc8d62;stroke-linecap:square;stroke-width:2;"/>
   </g>
   <g id="line2d_7">
    <path clip-path="url(#pfab349f048)" d="M 18 63.516856 
L 20.277551 63.516856 
L 22.555102 63.516856 
L 24.832653 63.516856 
L 27.110204 63.516856 
L 29.387755 63.516856 
L 31.665306 63.508395 
L 33.942857 63.410112 
L 36.220408 63.280867 
L 38.497959 62.969103 
L 40.77551 62.515716 
L 43.053061 61.956208 
L 45.330612 61.359946 
L 47.608163 59.993628 
L 49.885714 59.200479 
L 52.163265 57.544082 
L 54.440816 55.844973 
L 56.718367 54.329798 
L 58.995918 52.639215 
L 61.273469 51.450339 
L 63.55102 49.823417 
L 65.828571 48.681868 
L 68.106122 47.702618 
L 70.383673 45.975605 
L 72.661224 45.983417 
L 74.938776 49.397694 
L 77.216327 46.394328 
L 79.493878 47.640253 
L 81.771429 47.805939 
L 84.04898 49.021912 
L 86.326531 50.753071 
L 88.604082 52.078202 
L 90.881633 53.974572 
L 93.159184 55.741066 
L 95.436735 56.981522 
L 97.714286 58.289318 
L 99.991837 59.457329 
L 102.269388 60.780178 
L 104.546939 61.521342 
L 106.82449 62.256404 
L 109.102041 62.863878 
L 111.379592 63.132498 
L 113.657143 63.398254 
L 115.934694 63.504825 
L 118.212245 63.509899 
L 120.489796 63.516899 
L 122.767347 63.516856 
L 125.044898 63.516856 
L 127.322449 63.516856 
L 129.6 63.516856 
" style="fill:none;stroke:#fc8d62;stroke-dasharray:1.5,1.5;stroke-dashoffset:0;stroke-opacity:0.7;stroke-width:1.5;"/>
   </g>
   <g id="patch_3">
    <path d="M 74.938776 67.68 
L 74.938776 17.28 
" style="fill:none;stroke:#a9a9a9;stroke-linecap:square;stroke-linejoin:miter;stroke-width:2;"/>
   </g>
   <g id="patch_4">
    <path d="M 129.6 67.68 
L 129.6 17.28 
" style="fill:none;"/>
   </g>
   <g id="patch_5">
    <path d="M 18 63.516856 
L 129.6 63.516856 
" style="fill:none;stroke:#a9a9a9;stroke-linecap:square;stroke-linejoin:miter;stroke-width:2;"/>
   </g>
   <g id="patch_6">
    <path d="M 18 17.28 
L 129.6 17.28 
" style="fill:none;"/>
   </g>
   <g id="legend_1">
    <g id="line2d_8">
     <path d="M 101.475312 26.448906 
L 115.475312 26.448906 
" style="fill:none;stroke:#fc8d62;stroke-linecap:square;stroke-width:2;"/>
    </g>
    <g id="line2d_9"/>
    <g id="text_1">
     <!--   -->
     <g transform="translate(121.075312 28.898906)scale(0.07 -0.07)">
      <defs>
       <path id="DejaVuSans-32"/>
      </defs>
      <use xlink:href="#DejaVuSans-32"/>
     </g>
    </g>
    <g id="line2d_10">
     <path d="M 101.475312 36.723594 
L 115.475312 36.723594 
" style="fill:none;stroke:#fc8d62;stroke-dasharray:1.5,1.5;stroke-dashoffset:0;stroke-opacity:0.7;stroke-width:1.5;"/>
    </g>
    <g id="line2d_11"/>
    <g id="text_2">
     <!--   -->
     <g transform="translate(121.075312 39.173594)scale(0.07 -0.07)">
      <use xlink:href="#DejaVuSans-32"/>
     </g>
    </g>
   </g>
  </g>
  <g id="axes_2">
   <g id="patch_7">
    <path d="M 18 128.16 
L 129.6 128.16 
L 129.6 77.76 
L 18 77.76 
z
" style="fill:none;"/>
   </g>
   <g id="PolyCollection_3">
    <path clip-path="url(#pef79d0a587)" d="M 18 120.563451 
L 18 120.481656 
L 20.277551 120.690012 
L 22.555102 120.759214 
L 24.832653 120.694129 
L 27.110204 120.537605 
L 29.387755 120.360616 
L 31.665306 120.206146 
L 33.942857 119.935003 
L 36.220408 119.387429 
L 38.497959 118.437157 
L 40.77551 116.993155 
L 43.053061 115.004324 
L 45.330612 112.46215 
L 47.608163 109.398043 
L 49.885714 105.879436 
L 52.163265 102.006731 
L 54.440816 97.909367 
L 56.718367 93.741557 
L 58.995918 89.677731 
L 61.273469 85.907262 
L 63.55102 82.628847 
L 65.828571 80.044984 
L 68.106122 78.356872 
L 70.383673 77.76 
L 72.661224 78.44059 
L 74.938776 80.565696 
L 77.216327 84.2153 
L 79.493878 89.009519 
L 81.771429 94.511774 
L 84.04898 100.314121 
L 86.326531 106.058339 
L 88.604082 111.44527 
L 90.881633 116.240252 
L 93.159184 120.275273 
L 95.436735 123.448993 
L 97.714286 125.724867 
L 99.991837 127.125217 
L 102.269388 127.720344 
L 104.546939 127.617106 
L 106.82449 126.948777 
L 109.102041 125.865852 
L 111.379592 124.528111 
L 113.657143 123.09757 
L 115.934694 121.732991 
L 118.212245 120.587793 
L 120.489796 119.813192 
L 122.767347 119.509006 
L 125.044898 119.565936 
L 127.322449 119.831006 
L 129.6 120.17118 
L 129.6 120.278831 
L 129.6 120.278831 
L 127.322449 119.964056 
L 125.044898 119.718824 
L 122.767347 119.673624 
L 120.489796 119.98316 
L 118.212245 120.76601 
L 115.934694 121.937428 
L 113.657143 123.346625 
L 111.379592 124.830025 
L 109.102041 126.218402 
L 106.82449 127.342619 
L 104.546939 128.039619 
L 102.269388 128.16 
L 99.991837 127.577004 
L 97.714286 126.195562 
L 95.436735 123.960438 
L 93.159184 120.861855 
L 90.881633 116.939579 
L 88.604082 112.289191 
L 86.326531 107.068549 
L 84.04898 101.501017 
L 81.771429 95.874517 
L 79.493878 90.536512 
L 77.216327 85.884663 
L 74.938776 82.345903 
L 72.661224 80.291721 
L 70.383673 79.639273 
L 68.106122 80.221015 
L 65.828571 81.852233 
L 63.55102 84.340799 
L 61.273469 87.490581 
L 58.995918 91.105642 
L 56.718367 94.995027 
L 54.440816 98.977882 
L 52.163265 102.888608 
L 49.885714 106.58179 
L 47.608163 109.936689 
L 45.330612 112.860806 
L 43.053061 115.292829 
L 40.77551 117.205329 
L 38.497959 118.605199 
L 36.220408 119.533609 
L 33.942857 120.069186 
L 31.665306 120.330769 
L 29.387755 120.474252 
L 27.110204 120.63534 
L 24.832653 120.772913 
L 22.555102 120.823007 
L 20.277551 120.75395 
L 18 120.563451 
z
" style="fill:#66c2a5;fill-opacity:0.2;"/>
   </g>
   <g id="matplotlib.axis_3">
    <g id="xtick_6">
     <g id="line2d_12">
      <g>
       <use style="fill:#a9a9a9;stroke:#a9a9a9;stroke-width:2;" x="29.387755" xlink:href="#m809b95d1d2" y="122.257743"/>
      </g>
     </g>
    </g>
    <g id="xtick_7">
     <g id="line2d_13">
      <g>
       <use style="fill:#a9a9a9;stroke:#a9a9a9;stroke-width:2;" x="52.163265" xlink:href="#m809b95d1d2" y="122.257743"/>
      </g>
     </g>
    </g>
    <g id="xtick_8">
     <g id="line2d_14">
      <g>
       <use style="fill:#a9a9a9;stroke:#a9a9a9;stroke-width:2;" x="74.938776" xlink:href="#m809b95d1d2" y="122.257743"/>
      </g>
     </g>
    </g>
    <g id="xtick_9">
     <g id="line2d_15">
      <g>
       <use style="fill:#a9a9a9;stroke:#a9a9a9;stroke-width:2;" x="97.714286" xlink:href="#m809b95d1d2" y="122.257743"/>
      </g>
     </g>
    </g>
    <g id="xtick_10">
     <g id="line2d_16">
      <g>
       <use style="fill:#a9a9a9;stroke:#a9a9a9;stroke-width:2;" x="120.489796" xlink:href="#m809b95d1d2" y="122.257743"/>
      </g>
     </g>
    </g>
   </g>
   <g id="matplotlib.axis_4"/>
   <g id="line2d_17">
    <path clip-path="url(#pef79d0a587)" d="M 18 120.522553 
L 20.277551 120.721981 
L 22.555102 120.791111 
L 24.832653 120.733521 
L 27.110204 120.586473 
L 29.387755 120.417434 
L 31.665306 120.268458 
L 33.942857 120.002095 
L 36.220408 119.460519 
L 38.497959 118.521178 
L 40.77551 117.099242 
L 43.053061 115.148577 
L 45.330612 112.661478 
L 47.608163 109.667366 
L 49.885714 106.230613 
L 52.163265 102.44767 
L 54.440816 98.443625 
L 56.718367 94.368292 
L 58.995918 90.391686 
L 61.273469 86.698922 
L 63.55102 83.484823 
L 65.828571 80.948609 
L 68.106122 79.288943 
L 70.383673 78.699636 
L 72.661224 79.366156 
L 74.938776 81.4558 
L 77.216327 85.049981 
L 79.493878 89.773016 
L 81.771429 95.193146 
L 84.04898 100.907569 
L 86.326531 106.563444 
L 88.604082 111.867231 
L 90.881633 116.589915 
L 93.159184 120.568564 
L 95.436735 123.704715 
L 97.714286 125.960215 
L 99.991837 127.35111 
L 102.269388 127.940172 
L 104.546939 127.828363 
L 106.82449 127.145698 
L 109.102041 126.042127 
L 111.379592 124.679068 
L 113.657143 123.222097 
L 115.934694 121.83521 
L 118.212245 120.676901 
L 120.489796 119.898176 
L 122.767347 119.591315 
L 125.044898 119.64238 
L 127.322449 119.897531 
L 129.6 120.225006 
" style="fill:none;stroke:#66c2a5;stroke-linecap:square;stroke-width:2;"/>
   </g>
   <g id="patch_8">
    <path d="M 74.938776 128.16 
L 74.938776 77.76 
" style="fill:none;stroke:#a9a9a9;stroke-linecap:square;stroke-linejoin:miter;stroke-width:2;"/>
   </g>
   <g id="patch_9">
    <path d="M 129.6 128.16 
L 129.6 77.76 
" style="fill:none;"/>
   </g>
   <g id="patch_10">
    <path d="M 18 122.257743 
L 129.6 122.257743 
" style="fill:none;stroke:#a9a9a9;stroke-linecap:square;stroke-linejoin:miter;stroke-width:2;"/>
   </g>
   <g id="patch_11">
    <path d="M 18 77.76 
L 129.6 77.76 
" style="fill:none;"/>
   </g>
   <g id="legend_2">
    <g id="line2d_18">
     <path d="M 101.475312 86.928906 
L 115.475312 86.928906 
" style="fill:none;stroke:#66c2a5;stroke-linecap:square;stroke-width:2;"/>
    </g>
    <g id="line2d_19"/>
    <g id="text_3">
     <!--   -->
     <g transform="translate(121.075312 89.378906)scale(0.07 -0.07)">
      <use xlink:href="#DejaVuSans-32"/>
     </g>
    </g>
   </g>
  </g>
 </g>
 <defs>
  <clipPath id="pfab349f048">
   <rect height="50.4" width="111.6" x="18" y="17.28"/>
  </clipPath>
  <clipPath id="pef79d0a587">
   <rect height="50.4" width="111.6" x="18" y="77.76"/>
  </clipPath>
 </defs>
</svg>
