<?xml version="1.0" encoding="utf-8" standalone="no"?>
<!DOCTYPE svg PUBLIC "-//W3C//DTD SVG 1.1//EN"
  "http://www.w3.org/Graphics/SVG/1.1/DTD/svg11.dtd">
<!-- Created with matplotlib (https://matplotlib.org/) -->
<svg height="144pt" version="1.1" viewBox="0 0 144 144" width="144pt" xmlns="http://www.w3.org/2000/svg" xmlns:xlink="http://www.w3.org/1999/xlink">
 <metadata>
  <rdf:RDF xmlns:cc="http://creativecommons.org/ns#" xmlns:dc="http://purl.org/dc/elements/1.1/" xmlns:rdf="http://www.w3.org/1999/02/22-rdf-syntax-ns#">
   <cc:Work>
    <dc:type rdf:resource="http://purl.org/dc/dcmitype/StillImage"/>
    <dc:date>2021-10-13T14:32:39.571979</dc:date>
    <dc:format>image/svg+xml</dc:format>
    <dc:creator>
     <cc:Agent>
      <dc:title>Matplotlib v3.3.2, https://matplotlib.org/</dc:title>
     </cc:Agent>
    </dc:creator>
   </cc:Work>
  </rdf:RDF>
 </metadata>
 <defs>
  <style type="text/css">*{stroke-linecap:butt;stroke-linejoin:round;}</style>
 </defs>
 <g id="figure_1">
  <g id="patch_1">
   <path d="M 0 144 
L 144 144 
L 144 0 
L 0 0 
z
" style="fill:none;"/>
  </g>
  <g id="axes_1">
   <g id="patch_2">
    <path d="M 18 67.68 
L 129.6 67.68 
L 129.6 17.28 
L 18 17.28 
z
" style="fill:none;"/>
   </g>
   <g id="PolyCollection_1">
    <path clip-path="url(#pbf3d14c403)" d="M 18 17.314069 
L 18 17.314069 
L 20.277551 17.314069 
L 22.555102 17.314069 
L 24.832653 17.314069 
L 27.110204 17.314069 
L 29.387755 17.314069 
L 31.665306 17.28556 
L 33.942857 17.321377 
L 36.220408 17.518696 
L 38.497959 17.918535 
L 40.77551 18.536856 
L 43.053061 19.4096 
L 45.330612 20.850078 
L 47.608163 22.076162 
L 49.885714 23.17462 
L 52.163265 25.59914 
L 54.440816 26.745102 
L 56.718367 29.339095 
L 58.995918 31.746265 
L 61.273469 34.965606 
L 63.55102 37.811453 
L 65.828571 41.092787 
L 68.106122 43.541952 
L 70.383673 48.702851 
L 72.661224 51.975941 
L 74.938776 64.034559 
L 77.216327 57.605287 
L 79.493878 58.908384 
L 81.771429 60.480394 
L 84.04898 59.471721 
L 86.326531 57.792387 
L 88.604082 54.885915 
L 90.881633 50.619573 
L 93.159184 46.265029 
L 95.436735 41.340373 
L 97.714286 36.274876 
L 99.991837 32.142179 
L 102.269388 28.034819 
L 104.546939 24.75462 
L 106.82449 21.882957 
L 109.102041 20.019177 
L 111.379592 18.453976 
L 113.657143 17.757896 
L 115.934694 17.390947 
L 118.212245 17.28 
L 120.489796 17.313963 
L 122.767347 17.314069 
L 125.044898 17.314069 
L 127.322449 17.314069 
L 129.6 17.314069 
L 129.6 17.314069 
L 129.6 17.314069 
L 127.322449 17.314069 
L 125.044898 17.314069 
L 122.767347 17.314069 
L 120.489796 17.314282 
L 118.212245 17.397535 
L 115.934694 17.727368 
L 113.657143 18.294477 
L 111.379592 19.572749 
L 109.102041 21.585301 
L 106.82449 23.906758 
L 104.546939 26.885557 
L 102.269388 31.003463 
L 99.991837 35.780472 
L 97.714286 40.170142 
L 95.436735 45.996048 
L 93.159184 51.196392 
L 90.881633 55.297119 
L 88.604082 59.611902 
L 86.326531 62.982595 
L 84.04898 65.501335 
L 81.771429 67.080316 
L 79.493878 64.836038 
L 77.216327 65.609081 
L 74.938776 67.68 
L 72.661224 58.253884 
L 70.383673 55.575603 
L 68.106122 50.239177 
L 65.828571 46.998406 
L 63.55102 43.147006 
L 61.273469 39.505668 
L 58.995918 36.167694 
L 56.718367 33.540743 
L 54.440816 31.498138 
L 52.163265 29.115936 
L 49.885714 26.442047 
L 47.608163 24.546997 
L 45.330612 22.626082 
L 43.053061 21.312684 
L 40.77551 19.739816 
L 38.497959 18.757227 
L 36.220408 18.011711 
L 33.942857 17.626776 
L 31.665306 17.393302 
L 29.387755 17.314069 
L 27.110204 17.314069 
L 24.832653 17.314069 
L 22.555102 17.314069 
L 20.277551 17.314069 
L 18 17.314069 
z
" style="fill:#fc8d62;fill-opacity:0.2;"/>
   </g>
   <g id="PolyCollection_2">
    <path clip-path="url(#pbf3d14c403)" d="M 18 17.314069 
L 18 17.314069 
L 20.277551 17.314069 
L 22.555102 17.314069 
L 24.832653 17.314069 
L 27.110204 17.314069 
L 29.387755 17.314069 
L 31.665306 17.259626 
L 33.942857 17.253972 
L 36.220408 17.492961 
L 38.497959 18.082156 
L 40.77551 18.781679 
L 43.053061 20.325814 
L 45.330612 22.239334 
L 47.608163 24.599258 
L 49.885714 27.61387 
L 52.163265 30.544715 
L 54.440816 34.527421 
L 56.718367 38.654695 
L 58.995918 42.946415 
L 61.273469 47.204272 
L 63.55102 50.867481 
L 65.828571 54.872952 
L 68.106122 58.676266 
L 70.383673 60.88245 
L 72.661224 62.966726 
L 74.938776 69.645374 
L 77.216327 62.531088 
L 79.493878 61.833234 
L 81.771429 59.35155 
L 84.04898 56.134824 
L 86.326531 52.964207 
L 88.604082 48.597397 
L 90.881633 44.516753 
L 93.159184 39.791694 
L 95.436735 35.587303 
L 97.714286 31.687699 
L 99.991837 27.904196 
L 102.269388 25.143085 
L 104.546939 22.521242 
L 106.82449 20.645306 
L 109.102041 19.246639 
L 111.379592 18.105898 
L 113.657143 17.530897 
L 115.934694 17.315305 
L 118.212245 17.275906 
L 120.489796 17.31397 
L 122.767347 17.314069 
L 125.044898 17.314069 
L 127.322449 17.314069 
L 129.6 17.314069 
L 129.6 17.314069 
L 129.6 17.314069 
L 127.322449 17.314069 
L 125.044898 17.314069 
L 122.767347 17.314069 
L 120.489796 17.314232 
L 118.212245 17.411966 
L 115.934694 17.683338 
L 113.657143 18.174687 
L 111.379592 19.017829 
L 109.102041 20.478748 
L 106.82449 22.415097 
L 104.546939 24.813924 
L 102.269388 28.112847 
L 99.991837 31.569167 
L 97.714286 35.421162 
L 95.436735 39.75521 
L 93.159184 44.536817 
L 90.881633 48.913034 
L 88.604082 54.23586 
L 86.326531 58.769584 
L 84.04898 62.093873 
L 81.771429 65.738272 
L 79.493878 68.552281 
L 77.216327 69.222638 
L 74.938776 74.218994 
L 72.661224 69.681519 
L 70.383673 67.355638 
L 68.106122 64.76433 
L 65.828571 61.417477 
L 63.55102 56.492285 
L 61.273469 52.259291 
L 58.995918 47.297237 
L 56.718367 43.595607 
L 54.440816 39.193436 
L 52.163265 34.541466 
L 49.885714 30.634093 
L 47.608163 27.180559 
L 45.330612 24.578749 
L 43.053061 21.833665 
L 40.77551 20.124696 
L 38.497959 19.052685 
L 36.220408 18.199862 
L 33.942857 17.64882 
L 31.665306 17.408288 
L 29.387755 17.314069 
L 27.110204 17.314069 
L 24.832653 17.314069 
L 22.555102 17.314069 
L 20.277551 17.314069 
L 18 17.314069 
z
" style="fill:#fc8d62;fill-opacity:0.2;"/>
   </g>
   <g id="matplotlib.axis_1">
    <g id="xtick_1">
     <g id="line2d_1">
      <defs>
       <path d="M 0 0 
L 0 3.5 
" id="mc2739b9b8b" style="stroke:#a9a9a9;stroke-width:2;"/>
      </defs>
      <g>
       <use style="fill:#a9a9a9;stroke:#a9a9a9;stroke-width:2;" x="29.387755" xlink:href="#mc2739b9b8b" y="17.314069"/>
      </g>
     </g>
    </g>
    <g id="xtick_2">
     <g id="line2d_2">
      <g>
       <use style="fill:#a9a9a9;stroke:#a9a9a9;stroke-width:2;" x="52.163265" xlink:href="#mc2739b9b8b" y="17.314069"/>
      </g>
     </g>
    </g>
    <g id="xtick_3">
     <g id="line2d_3">
      <g>
       <use style="fill:#a9a9a9;stroke:#a9a9a9;stroke-width:2;" x="74.938776" xlink:href="#mc2739b9b8b" y="17.314069"/>
      </g>
     </g>
    </g>
    <g id="xtick_4">
     <g id="line2d_4">
      <g>
       <use style="fill:#a9a9a9;stroke:#a9a9a9;stroke-width:2;" x="97.714286" xlink:href="#mc2739b9b8b" y="17.314069"/>
      </g>
     </g>
    </g>
    <g id="xtick_5">
     <g id="line2d_5">
      <g>
       <use style="fill:#a9a9a9;stroke:#a9a9a9;stroke-width:2;" x="120.489796" xlink:href="#mc2739b9b8b" y="17.314069"/>
      </g>
     </g>
    </g>
   </g>
   <g id="matplotlib.axis_2"/>
   <g id="line2d_6">
    <path clip-path="url(#pbf3d14c403)" d="M 18 17.314069 
L 20.277551 17.314069 
L 22.555102 17.314069 
L 24.832653 17.314069 
L 27.110204 17.314069 
L 29.387755 17.314069 
L 31.665306 17.339431 
L 33.942857 17.474077 
L 36.220408 17.765203 
L 38.497959 18.337881 
L 40.77551 19.138336 
L 43.053061 20.361142 
L 45.330612 21.73808 
L 47.608163 23.311579 
L 49.885714 24.808334 
L 52.163265 27.357538 
L 54.440816 29.12162 
L 56.718367 31.439919 
L 58.995918 33.956979 
L 61.273469 37.235637 
L 63.55102 40.47923 
L 65.828571 44.045596 
L 68.106122 46.890565 
L 70.383673 52.139227 
L 72.661224 55.114913 
L 74.938776 65.85728 
L 77.216327 61.607184 
L 79.493878 61.872211 
L 81.771429 63.780355 
L 84.04898 62.486528 
L 86.326531 60.387491 
L 88.604082 57.248909 
L 90.881633 52.958346 
L 93.159184 48.73071 
L 95.436735 43.668211 
L 97.714286 38.222509 
L 99.991837 33.961326 
L 102.269388 29.519141 
L 104.546939 25.820088 
L 106.82449 22.894857 
L 109.102041 20.802239 
L 111.379592 19.013362 
L 113.657143 18.026187 
L 115.934694 17.559158 
L 118.212245 17.338768 
L 120.489796 17.314122 
L 122.767347 17.314069 
L 125.044898 17.314069 
L 127.322449 17.314069 
L 129.6 17.314069 
" style="fill:none;stroke:#fc8d62;stroke-linecap:square;stroke-width:2;"/>
   </g>
   <g id="line2d_7">
    <path clip-path="url(#pbf3d14c403)" d="M 18 17.314069 
L 20.277551 17.314069 
L 22.555102 17.314069 
L 24.832653 17.314069 
L 27.110204 17.314069 
L 29.387755 17.314069 
L 31.665306 17.333957 
L 33.942857 17.451396 
L 36.220408 17.846412 
L 38.497959 18.567421 
L 40.77551 19.453187 
L 43.053061 21.07974 
L 45.330612 23.409042 
L 47.608163 25.889908 
L 49.885714 29.123981 
L 52.163265 32.543091 
L 54.440816 36.860428 
L 56.718367 41.125151 
L 58.995918 45.121826 
L 61.273469 49.731782 
L 63.55102 53.679883 
L 65.828571 58.145214 
L 68.106122 61.720298 
L 70.383673 64.119044 
L 72.661224 66.324123 
L 74.938776 71.932184 
L 77.216327 65.876863 
L 79.493878 65.192757 
L 81.771429 62.544911 
L 84.04898 59.114349 
L 86.326531 55.866896 
L 88.604082 51.416629 
L 90.881633 46.714894 
L 93.159184 42.164255 
L 95.436735 37.671257 
L 97.714286 33.554431 
L 99.991837 29.736682 
L 102.269388 26.627966 
L 104.546939 23.667583 
L 106.82449 21.530201 
L 109.102041 19.862694 
L 111.379592 18.561863 
L 113.657143 17.852792 
L 115.934694 17.499322 
L 118.212245 17.343936 
L 120.489796 17.314101 
L 122.767347 17.314069 
L 125.044898 17.314069 
L 127.322449 17.314069 
L 129.6 17.314069 
" style="fill:none;stroke:#fc8d62;stroke-dasharray:1.5,1.5;stroke-dashoffset:0;stroke-opacity:0.7;stroke-width:1.5;"/>
   </g>
   <g id="patch_3">
    <path d="M 74.938776 67.68 
L 74.938776 17.28 
" style="fill:none;stroke:#a9a9a9;stroke-linecap:square;stroke-linejoin:miter;stroke-width:2;"/>
   </g>
   <g id="patch_4">
    <path d="M 129.6 67.68 
L 129.6 17.28 
" style="fill:none;"/>
   </g>
   <g id="patch_5">
    <path d="M 18 17.314069 
L 129.6 17.314069 
" style="fill:none;stroke:#a9a9a9;stroke-linecap:square;stroke-linejoin:miter;stroke-width:2;"/>
   </g>
   <g id="patch_6">
    <path d="M 18 17.28 
L 129.6 17.28 
" style="fill:none;"/>
   </g>
   <g id="legend_1">
    <g id="line2d_8">
     <path d="M 24.3 47.199531 
L 38.3 47.199531 
" style="fill:none;stroke:#fc8d62;stroke-linecap:square;stroke-width:2;"/>
    </g>
    <g id="line2d_9"/>
    <g id="text_1">
     <!-- $\theta$ -->
     <g transform="translate(43.9 49.649531)scale(0.07 -0.07)">
      <defs>
       <path d="M 45.515625 34.671875 
L 14.453125 34.671875 
Q 12.359375 20.0625 14.5 13.875 
Q 17.1875 6.25 24.46875 6.25 
Q 31.78125 6.25 37.359375 13.921875 
Q 42.234375 20.65625 45.515625 34.671875 
z
M 47.015625 42.96875 
Q 48.34375 56.84375 46.625 61.71875 
Q 43.953125 69.4375 36.765625 69.4375 
Q 29.296875 69.4375 23.828125 61.8125 
Q 19.53125 55.671875 16.15625 42.96875 
z
M 38.1875 76.765625 
Q 49.90625 76.765625 54.59375 66.40625 
Q 59.28125 56.109375 55.71875 37.84375 
Q 52.203125 19.625 43.453125 9.28125 
Q 34.765625 -1.125 23.046875 -1.125 
Q 11.28125 -1.125 6.640625 9.28125 
Q 2 19.625 5.515625 37.84375 
Q 9.078125 56.109375 17.71875 66.40625 
Q 26.421875 76.765625 38.1875 76.765625 
z
" id="DejaVuSans-Oblique-952"/>
      </defs>
      <use transform="translate(0 0.234375)" xlink:href="#DejaVuSans-Oblique-952"/>
     </g>
    </g>
    <g id="line2d_10">
     <path d="M 24.3 57.474219 
L 38.3 57.474219 
" style="fill:none;stroke:#fc8d62;stroke-dasharray:1.5,1.5;stroke-dashoffset:0;stroke-opacity:0.7;stroke-width:1.5;"/>
    </g>
    <g id="line2d_11"/>
    <g id="text_2">
     <!-- No $\theta$ -->
     <g transform="translate(43.9 59.924219)scale(0.07 -0.07)">
      <defs>
       <path d="M 9.8125 72.90625 
L 23.09375 72.90625 
L 55.421875 11.921875 
L 55.421875 72.90625 
L 64.984375 72.90625 
L 64.984375 0 
L 51.703125 0 
L 19.390625 60.984375 
L 19.390625 0 
L 9.8125 0 
z
" id="DejaVuSans-78"/>
       <path d="M 30.609375 48.390625 
Q 23.390625 48.390625 19.1875 42.75 
Q 14.984375 37.109375 14.984375 27.296875 
Q 14.984375 17.484375 19.15625 11.84375 
Q 23.34375 6.203125 30.609375 6.203125 
Q 37.796875 6.203125 41.984375 11.859375 
Q 46.1875 17.53125 46.1875 27.296875 
Q 46.1875 37.015625 41.984375 42.703125 
Q 37.796875 48.390625 30.609375 48.390625 
z
M 30.609375 56 
Q 42.328125 56 49.015625 48.375 
Q 55.71875 40.765625 55.71875 27.296875 
Q 55.71875 13.875 49.015625 6.21875 
Q 42.328125 -1.421875 30.609375 -1.421875 
Q 18.84375 -1.421875 12.171875 6.21875 
Q 5.515625 13.875 5.515625 27.296875 
Q 5.515625 40.765625 12.171875 48.375 
Q 18.84375 56 30.609375 56 
z
" id="DejaVuSans-111"/>
       <path id="DejaVuSans-32"/>
      </defs>
      <use transform="translate(0 0.234375)" xlink:href="#DejaVuSans-78"/>
      <use transform="translate(74.804688 0.234375)" xlink:href="#DejaVuSans-111"/>
      <use transform="translate(135.986328 0.234375)" xlink:href="#DejaVuSans-32"/>
      <use transform="translate(167.773438 0.234375)" xlink:href="#DejaVuSans-Oblique-952"/>
     </g>
    </g>
   </g>
  </g>
  <g id="axes_2">
   <g id="patch_7">
    <path d="M 18 128.16 
L 129.6 128.16 
L 129.6 77.76 
L 18 77.76 
z
" style="fill:none;"/>
   </g>
   <g id="PolyCollection_3">
    <path clip-path="url(#pe4208c0491)" d="M 18 120.51793 
L 18 120.437238 
L 20.277551 120.653713 
L 22.555102 120.718695 
L 24.832653 120.639114 
L 27.110204 120.462695 
L 29.387755 120.26645 
L 31.665306 120.09828 
L 33.942857 119.81785 
L 36.220408 119.263461 
L 38.497959 118.307483 
L 40.77551 116.858077 
L 43.053061 114.863995 
L 45.330612 112.317368 
L 47.608163 109.250477 
L 49.885714 105.73154 
L 52.163265 101.861382 
L 54.440816 97.769592 
L 56.718367 93.610623 
L 58.995918 89.558976 
L 61.273469 85.804077 
L 63.55102 82.54474 
L 65.828571 79.983816 
L 68.106122 78.323274 
L 70.383673 77.76 
L 72.661224 78.482484 
L 74.938776 80.658369 
L 77.216327 84.376855 
L 79.493878 89.239817 
L 81.771429 94.80233 
L 84.04898 100.648402 
L 86.326531 106.414966 
L 88.604082 111.801103 
L 90.881633 116.572947 
L 93.159184 120.565182 
L 95.436735 123.680218 
L 97.714286 125.885829 
L 99.991837 127.209201 
L 102.269388 127.726421 
L 104.546939 127.549796 
L 106.82449 126.817004 
L 109.102041 125.681932 
L 111.379592 124.30661 
L 113.657143 122.854193 
L 115.934694 121.483578 
L 118.212245 120.347611 
L 120.489796 119.596928 
L 122.767347 119.329031 
L 125.044898 119.428185 
L 127.322449 119.733502 
L 129.6 120.105973 
L 129.6 120.213263 
L 129.6 120.213263 
L 127.322449 119.865965 
L 125.044898 119.57945 
L 122.767347 119.490111 
L 120.489796 119.760779 
L 118.212245 120.519261 
L 115.934694 121.682117 
L 113.657143 123.09855 
L 111.379592 124.604722 
L 109.102041 126.030844 
L 106.82449 127.206653 
L 104.546939 127.967138 
L 102.269388 128.16 
L 99.991837 127.654639 
L 97.714286 126.351582 
L 95.436735 124.190501 
L 93.159184 121.155361 
L 90.881633 117.279826 
L 88.604082 112.654647 
L 86.326531 107.434842 
L 84.04898 101.843298 
L 81.771429 96.170246 
L 79.493878 90.768498 
L 77.216327 86.04436 
L 74.938776 82.43381 
L 72.661224 80.328104 
L 70.383673 79.634127 
L 68.106122 80.183341 
L 65.828571 81.788382 
L 63.55102 84.255394 
L 61.273469 87.38722 
L 58.995918 90.987384 
L 56.718367 94.864699 
L 54.440816 98.838264 
L 52.163265 102.742471 
L 49.885714 106.43191 
L 47.608163 109.785486 
L 45.330612 112.710299 
L 43.053061 115.144758 
L 40.77551 117.061216 
L 38.497959 118.466403 
L 36.220408 119.401198 
L 33.942857 119.944351 
L 31.665306 120.215712 
L 29.387755 120.373323 
L 27.110204 120.554042 
L 24.832653 120.711823 
L 22.555102 120.777226 
L 20.277551 120.71455 
L 18 120.51793 
z
" style="fill:#66c2a5;fill-opacity:0.2;"/>
   </g>
   <g id="matplotlib.axis_3">
    <g id="xtick_6">
     <g id="line2d_12">
      <g>
       <use style="fill:#a9a9a9;stroke:#a9a9a9;stroke-width:2;" x="29.387755" xlink:href="#mc2739b9b8b" y="122.18021"/>
      </g>
     </g>
    </g>
    <g id="xtick_7">
     <g id="line2d_13">
      <g>
       <use style="fill:#a9a9a9;stroke:#a9a9a9;stroke-width:2;" x="52.163265" xlink:href="#mc2739b9b8b" y="122.18021"/>
      </g>
     </g>
    </g>
    <g id="xtick_8">
     <g id="line2d_14">
      <g>
       <use style="fill:#a9a9a9;stroke:#a9a9a9;stroke-width:2;" x="74.938776" xlink:href="#mc2739b9b8b" y="122.18021"/>
      </g>
     </g>
    </g>
    <g id="xtick_9">
     <g id="line2d_15">
      <g>
       <use style="fill:#a9a9a9;stroke:#a9a9a9;stroke-width:2;" x="97.714286" xlink:href="#mc2739b9b8b" y="122.18021"/>
      </g>
     </g>
    </g>
    <g id="xtick_10">
     <g id="line2d_16">
      <g>
       <use style="fill:#a9a9a9;stroke:#a9a9a9;stroke-width:2;" x="120.489796" xlink:href="#mc2739b9b8b" y="122.18021"/>
      </g>
     </g>
    </g>
   </g>
   <g id="matplotlib.axis_4"/>
   <g id="line2d_17">
    <path clip-path="url(#pe4208c0491)" d="M 18 120.477584 
L 20.277551 120.684132 
L 22.555102 120.747961 
L 24.832653 120.675469 
L 27.110204 120.508369 
L 29.387755 120.319886 
L 31.665306 120.156996 
L 33.942857 119.881101 
L 36.220408 119.33233 
L 38.497959 118.386943 
L 40.77551 116.959647 
L 43.053061 115.004377 
L 45.330612 112.513834 
L 47.608163 109.517982 
L 49.885714 106.081725 
L 52.163265 102.301926 
L 54.440816 98.303928 
L 56.718367 94.237661 
L 58.995918 90.27318 
L 61.273469 86.595648 
L 63.55102 83.400067 
L 65.828571 80.886099 
L 68.106122 79.253307 
L 70.383673 78.697063 
L 72.661224 79.405294 
L 74.938776 81.54609 
L 77.216327 85.210608 
L 79.493878 90.004157 
L 81.771429 95.486288 
L 84.04898 101.24585 
L 86.326531 106.924904 
L 88.604082 112.227875 
L 90.881633 116.926387 
L 93.159184 120.860271 
L 95.436735 123.93536 
L 97.714286 126.118706 
L 99.991837 127.43192 
L 102.269388 127.94321 
L 104.546939 127.758467 
L 106.82449 127.011829 
L 109.102041 125.856388 
L 111.379592 124.455666 
L 113.657143 122.976372 
L 115.934694 121.582848 
L 118.212245 120.433436 
L 120.489796 119.678853 
L 122.767347 119.409571 
L 125.044898 119.503817 
L 127.322449 119.799733 
L 129.6 120.159618 
" style="fill:none;stroke:#66c2a5;stroke-linecap:square;stroke-width:2;"/>
   </g>
   <g id="patch_8">
    <path d="M 74.938776 128.16 
L 74.938776 77.76 
" style="fill:none;stroke:#a9a9a9;stroke-linecap:square;stroke-linejoin:miter;stroke-width:2;"/>
   </g>
   <g id="patch_9">
    <path d="M 129.6 128.16 
L 129.6 77.76 
" style="fill:none;"/>
   </g>
   <g id="patch_10">
    <path d="M 18 122.18021 
L 129.6 122.18021 
" style="fill:none;stroke:#a9a9a9;stroke-linecap:square;stroke-linejoin:miter;stroke-width:2;"/>
   </g>
   <g id="patch_11">
    <path d="M 18 77.76 
L 129.6 77.76 
" style="fill:none;"/>
   </g>
  </g>
 </g>
 <defs>
  <clipPath id="pbf3d14c403">
   <rect height="50.4" width="111.6" x="18" y="17.28"/>
  </clipPath>
  <clipPath id="pe4208c0491">
   <rect height="50.4" width="111.6" x="18" y="77.76"/>
  </clipPath>
 </defs>
</svg>
