<?xml version="1.0" encoding="utf-8" standalone="no"?>
<!DOCTYPE svg PUBLIC "-//W3C//DTD SVG 1.1//EN"
  "http://www.w3.org/Graphics/SVG/1.1/DTD/svg11.dtd">
<!-- Created with matplotlib (https://matplotlib.org/) -->
<svg height="144pt" version="1.1" viewBox="0 0 144 144" width="144pt" xmlns="http://www.w3.org/2000/svg" xmlns:xlink="http://www.w3.org/1999/xlink">
 <metadata>
  <rdf:RDF xmlns:cc="http://creativecommons.org/ns#" xmlns:dc="http://purl.org/dc/elements/1.1/" xmlns:rdf="http://www.w3.org/1999/02/22-rdf-syntax-ns#">
   <cc:Work>
    <dc:type rdf:resource="http://purl.org/dc/dcmitype/StillImage"/>
    <dc:date>2021-10-14T20:33:15.190315</dc:date>
    <dc:format>image/svg+xml</dc:format>
    <dc:creator>
     <cc:Agent>
      <dc:title>Matplotlib v3.3.2, https://matplotlib.org/</dc:title>
     </cc:Agent>
    </dc:creator>
   </cc:Work>
  </rdf:RDF>
 </metadata>
 <defs>
  <style type="text/css">*{stroke-linecap:butt;stroke-linejoin:round;}</style>
 </defs>
 <g id="figure_1">
  <g id="patch_1">
   <path d="M 0 144 
L 144 144 
L 144 0 
L 0 0 
z
" style="fill:none;"/>
  </g>
  <g id="axes_1">
   <g id="patch_2">
    <path d="M 18 67.68 
L 129.6 67.68 
L 129.6 17.28 
L 18 17.28 
z
" style="fill:none;"/>
   </g>
   <g id="PolyCollection_1">
    <path clip-path="url(#p3e71bd5f74)" d="M 18 54.756463 
L 18 54.756463 
L 20.277551 54.756463 
L 22.555102 54.756463 
L 24.832653 54.756463 
L 27.110204 54.756463 
L 29.387755 54.75629 
L 31.665306 54.690309 
L 33.942857 54.499305 
L 36.220408 53.996887 
L 38.497959 53.155314 
L 40.77551 51.81049 
L 43.053061 49.826683 
L 45.330612 46.885782 
L 47.608163 43.487109 
L 49.885714 38.999343 
L 52.163265 34.762167 
L 54.440816 30.370441 
L 56.718367 25.469294 
L 58.995918 22.097159 
L 61.273469 18.616949 
L 63.55102 17.551882 
L 65.828571 17.28 
L 68.106122 20.748779 
L 70.383673 24.418367 
L 72.661224 29.446416 
L 74.938776 37.457134 
L 77.216327 42.502882 
L 79.493878 48.268177 
L 81.771429 54.518306 
L 84.04898 58.738607 
L 86.326531 62.034828 
L 88.604082 64.321691 
L 90.881633 64.091554 
L 93.159184 63.744242 
L 95.436735 62.599519 
L 97.714286 61.256468 
L 99.991837 59.407691 
L 102.269388 58.118673 
L 104.546939 56.643242 
L 106.82449 55.790807 
L 109.102041 55.195393 
L 111.379592 54.807509 
L 113.657143 54.754104 
L 115.934694 54.724573 
L 118.212245 54.739728 
L 120.489796 54.75642 
L 122.767347 54.756463 
L 125.044898 54.756463 
L 127.322449 54.756463 
L 129.6 54.756463 
L 129.6 54.756463 
L 129.6 54.756463 
L 127.322449 54.756463 
L 125.044898 54.756463 
L 122.767347 54.756463 
L 120.489796 54.756558 
L 118.212245 54.804634 
L 115.934694 54.886286 
L 113.657143 55.110607 
L 111.379592 55.396524 
L 109.102041 55.921584 
L 106.82449 56.705883 
L 104.546939 58.067932 
L 102.269388 59.591797 
L 99.991837 61.7169 
L 97.714286 63.441393 
L 95.436735 64.977745 
L 93.159184 66.985031 
L 90.881633 67.180812 
L 88.604082 67.68 
L 86.326531 66.045125 
L 84.04898 63.653486 
L 81.771429 57.973451 
L 79.493878 52.654525 
L 77.216327 46.692399 
L 74.938776 38.213619 
L 72.661224 33.44476 
L 70.383673 28.890076 
L 68.106122 24.333892 
L 65.828571 22.351527 
L 63.55102 21.560545 
L 61.273469 22.248541 
L 58.995918 25.425109 
L 56.718367 28.758587 
L 54.440816 32.911294 
L 52.163265 37.017042 
L 49.885714 41.568959 
L 47.608163 45.038216 
L 45.330612 48.452537 
L 43.053061 50.811486 
L 40.77551 52.588678 
L 38.497959 53.798579 
L 36.220408 54.371781 
L 33.942857 54.672636 
L 31.665306 54.759417 
L 29.387755 54.756529 
L 27.110204 54.756463 
L 24.832653 54.756463 
L 22.555102 54.756463 
L 20.277551 54.756463 
L 18 54.756463 
z
" style="fill:#fc8d62;fill-opacity:0.2;"/>
   </g>
   <g id="PolyCollection_2">
    <path clip-path="url(#p3e71bd5f74)" d="M 18 54.756463 
L 18 54.756463 
L 20.277551 54.756463 
L 22.555102 54.756463 
L 24.832653 54.756463 
L 27.110204 54.756463 
L 29.387755 54.756133 
L 31.665306 54.695958 
L 33.942857 54.512619 
L 36.220408 54.231712 
L 38.497959 53.803614 
L 40.77551 53.11692 
L 43.053061 52.028683 
L 45.330612 51.164999 
L 47.608163 50.117836 
L 49.885714 48.478444 
L 52.163265 46.746119 
L 54.440816 45.350717 
L 56.718367 43.325118 
L 58.995918 41.782031 
L 61.273469 39.584236 
L 63.55102 38.125794 
L 65.828571 37.10217 
L 68.106122 36.18102 
L 70.383673 35.91177 
L 72.661224 35.411802 
L 74.938776 36.647954 
L 77.216327 35.329708 
L 79.493878 36.402516 
L 81.771429 38.462268 
L 84.04898 39.525506 
L 86.326531 41.273381 
L 88.604082 43.068509 
L 90.881633 44.426285 
L 93.159184 46.463775 
L 95.436735 47.989952 
L 97.714286 49.095687 
L 99.991837 50.717777 
L 102.269388 51.7803 
L 104.546939 52.637488 
L 106.82449 53.611697 
L 109.102041 53.827963 
L 111.379592 54.310774 
L 113.657143 54.507619 
L 115.934694 54.672445 
L 118.212245 54.731946 
L 120.489796 54.756346 
L 122.767347 54.756463 
L 125.044898 54.756463 
L 127.322449 54.756463 
L 129.6 54.756463 
L 129.6 54.756463 
L 129.6 54.756463 
L 127.322449 54.756463 
L 125.044898 54.756463 
L 122.767347 54.756463 
L 120.489796 54.756663 
L 118.212245 54.799837 
L 115.934694 54.886617 
L 113.657143 54.893363 
L 111.379592 54.81818 
L 109.102041 54.684309 
L 106.82449 54.579758 
L 104.546939 53.930486 
L 102.269388 53.079373 
L 99.991837 52.36873 
L 97.714286 51.501777 
L 95.436735 50.004706 
L 93.159184 48.903695 
L 90.881633 47.29261 
L 88.604082 46.309632 
L 86.326531 44.561036 
L 84.04898 42.673722 
L 81.771429 41.464133 
L 79.493878 39.998862 
L 77.216327 39.272301 
L 74.938776 37.463462 
L 72.661224 39.115215 
L 70.383673 39.181652 
L 68.106122 39.120981 
L 65.828571 40.620205 
L 63.55102 41.677863 
L 61.273469 42.840191 
L 58.995918 44.691402 
L 56.718367 45.881421 
L 54.440816 47.428902 
L 52.163265 49.203389 
L 49.885714 50.264308 
L 47.608163 51.408491 
L 45.330612 52.50161 
L 43.053061 53.105735 
L 40.77551 53.992809 
L 38.497959 54.336303 
L 36.220408 54.629636 
L 33.942857 54.725416 
L 31.665306 54.765377 
L 29.387755 54.756641 
L 27.110204 54.756463 
L 24.832653 54.756463 
L 22.555102 54.756463 
L 20.277551 54.756463 
L 18 54.756463 
z
" style="fill:#fc8d62;fill-opacity:0.2;"/>
   </g>
   <g id="matplotlib.axis_1">
    <g id="xtick_1">
     <g id="line2d_1">
      <defs>
       <path d="M 0 0 
L 0 3.5 
" id="maf78ac6aff" style="stroke:#a9a9a9;stroke-width:2;"/>
      </defs>
      <g>
       <use style="fill:#a9a9a9;stroke:#a9a9a9;stroke-width:2;" x="29.387755" xlink:href="#maf78ac6aff" y="54.756463"/>
      </g>
     </g>
    </g>
    <g id="xtick_2">
     <g id="line2d_2">
      <g>
       <use style="fill:#a9a9a9;stroke:#a9a9a9;stroke-width:2;" x="52.163265" xlink:href="#maf78ac6aff" y="54.756463"/>
      </g>
     </g>
    </g>
    <g id="xtick_3">
     <g id="line2d_3">
      <g>
       <use style="fill:#a9a9a9;stroke:#a9a9a9;stroke-width:2;" x="74.938776" xlink:href="#maf78ac6aff" y="54.756463"/>
      </g>
     </g>
    </g>
    <g id="xtick_4">
     <g id="line2d_4">
      <g>
       <use style="fill:#a9a9a9;stroke:#a9a9a9;stroke-width:2;" x="97.714286" xlink:href="#maf78ac6aff" y="54.756463"/>
      </g>
     </g>
    </g>
    <g id="xtick_5">
     <g id="line2d_5">
      <g>
       <use style="fill:#a9a9a9;stroke:#a9a9a9;stroke-width:2;" x="120.489796" xlink:href="#maf78ac6aff" y="54.756463"/>
      </g>
     </g>
    </g>
   </g>
   <g id="matplotlib.axis_2"/>
   <g id="line2d_6">
    <path clip-path="url(#p3e71bd5f74)" d="M 18 54.756463 
L 20.277551 54.756463 
L 22.555102 54.756463 
L 24.832653 54.756463 
L 27.110204 54.756463 
L 29.387755 54.75641 
L 31.665306 54.724863 
L 33.942857 54.58597 
L 36.220408 54.184334 
L 38.497959 53.476947 
L 40.77551 52.199584 
L 43.053061 50.319084 
L 45.330612 47.669159 
L 47.608163 44.262663 
L 49.885714 40.284151 
L 52.163265 35.889604 
L 54.440816 31.640868 
L 56.718367 27.113941 
L 58.995918 23.761134 
L 61.273469 20.432745 
L 63.55102 19.556213 
L 65.828571 19.815763 
L 68.106122 22.541336 
L 70.383673 26.654222 
L 72.661224 31.445588 
L 74.938776 37.835376 
L 77.216327 44.59764 
L 79.493878 50.461351 
L 81.771429 56.245878 
L 84.04898 61.196047 
L 86.326531 64.039977 
L 88.604082 66.000845 
L 90.881633 65.636183 
L 93.159184 65.364637 
L 95.436735 63.788632 
L 97.714286 62.348931 
L 99.991837 60.562296 
L 102.269388 58.855235 
L 104.546939 57.355587 
L 106.82449 56.248345 
L 109.102041 55.558488 
L 111.379592 55.102016 
L 113.657143 54.932355 
L 115.934694 54.80543 
L 118.212245 54.772181 
L 120.489796 54.756489 
L 122.767347 54.756463 
L 125.044898 54.756463 
L 127.322449 54.756463 
L 129.6 54.756463 
" style="fill:none;stroke:#fc8d62;stroke-linecap:square;stroke-width:2;"/>
   </g>
   <g id="line2d_7">
    <path clip-path="url(#p3e71bd5f74)" d="M 18 54.756463 
L 20.277551 54.756463 
L 22.555102 54.756463 
L 24.832653 54.756463 
L 27.110204 54.756463 
L 29.387755 54.756387 
L 31.665306 54.730668 
L 33.942857 54.619018 
L 36.220408 54.430674 
L 38.497959 54.069959 
L 40.77551 53.554865 
L 43.053061 52.567209 
L 45.330612 51.833304 
L 47.608163 50.763163 
L 49.885714 49.371376 
L 52.163265 47.974754 
L 54.440816 46.389809 
L 56.718367 44.60327 
L 58.995918 43.236716 
L 61.273469 41.212214 
L 63.55102 39.901829 
L 65.828571 38.861188 
L 68.106122 37.651001 
L 70.383673 37.546711 
L 72.661224 37.263509 
L 74.938776 37.055708 
L 77.216327 37.301004 
L 79.493878 38.200689 
L 81.771429 39.963201 
L 84.04898 41.099614 
L 86.326531 42.917208 
L 88.604082 44.68907 
L 90.881633 45.859448 
L 93.159184 47.683735 
L 95.436735 48.997329 
L 97.714286 50.298732 
L 99.991837 51.543253 
L 102.269388 52.429837 
L 104.546939 53.283987 
L 106.82449 54.095727 
L 109.102041 54.256136 
L 111.379592 54.564477 
L 113.657143 54.700491 
L 115.934694 54.779531 
L 118.212245 54.765892 
L 120.489796 54.756504 
L 122.767347 54.756463 
L 125.044898 54.756463 
L 127.322449 54.756463 
L 129.6 54.756463 
" style="fill:none;stroke:#fc8d62;stroke-dasharray:1.5,1.5;stroke-dashoffset:0;stroke-opacity:0.7;stroke-width:1.5;"/>
   </g>
   <g id="patch_3">
    <path d="M 74.938776 67.68 
L 74.938776 17.28 
" style="fill:none;stroke:#a9a9a9;stroke-linecap:square;stroke-linejoin:miter;stroke-width:2;"/>
   </g>
   <g id="patch_4">
    <path d="M 129.6 67.68 
L 129.6 17.28 
" style="fill:none;"/>
   </g>
   <g id="patch_5">
    <path d="M 18 54.756463 
L 129.6 54.756463 
" style="fill:none;stroke:#a9a9a9;stroke-linecap:square;stroke-linejoin:miter;stroke-width:2;"/>
   </g>
   <g id="patch_6">
    <path d="M 18 17.28 
L 129.6 17.28 
" style="fill:none;"/>
   </g>
   <g id="legend_1">
    <g id="line2d_8">
     <path d="M 101.475312 26.448906 
L 115.475312 26.448906 
" style="fill:none;stroke:#fc8d62;stroke-linecap:square;stroke-width:2;"/>
    </g>
    <g id="line2d_9"/>
    <g id="text_1">
     <!--   -->
     <g transform="translate(121.075312 28.898906)scale(0.07 -0.07)">
      <defs>
       <path id="DejaVuSans-32"/>
      </defs>
      <use xlink:href="#DejaVuSans-32"/>
     </g>
    </g>
    <g id="line2d_10">
     <path d="M 101.475312 36.723594 
L 115.475312 36.723594 
" style="fill:none;stroke:#fc8d62;stroke-dasharray:1.5,1.5;stroke-dashoffset:0;stroke-opacity:0.7;stroke-width:1.5;"/>
    </g>
    <g id="line2d_11"/>
    <g id="text_2">
     <!--   -->
     <g transform="translate(121.075312 39.173594)scale(0.07 -0.07)">
      <use xlink:href="#DejaVuSans-32"/>
     </g>
    </g>
   </g>
  </g>
  <g id="axes_2">
   <g id="patch_7">
    <path d="M 18 128.16 
L 129.6 128.16 
L 129.6 77.76 
L 18 77.76 
z
" style="fill:none;"/>
   </g>
   <g id="PolyCollection_3">
    <path clip-path="url(#pe5b89ee082)" d="M 18 120.571336 
L 18 120.484959 
L 20.277551 120.696334 
L 22.555102 120.76993 
L 24.832653 120.708401 
L 27.110204 120.554094 
L 29.387755 120.378196 
L 31.665306 120.224337 
L 33.942857 119.953472 
L 36.220408 119.406505 
L 38.497959 118.456989 
L 40.77551 117.012773 
L 43.053061 115.022214 
L 45.330612 112.477399 
L 47.608163 109.410323 
L 49.885714 105.888866 
L 52.163265 102.013561 
L 54.440816 97.913934 
L 56.718367 93.744397 
L 58.995918 89.679434 
L 61.273469 85.908386 
L 63.55102 82.629794 
L 65.828571 80.045918 
L 68.106122 78.357632 
L 70.383673 77.76 
L 72.661224 78.438703 
L 74.938776 80.560566 
L 77.216327 84.204162 
L 79.493878 88.991816 
L 81.771429 94.487827 
L 84.04898 100.285311 
L 86.326531 106.026839 
L 88.604082 111.41385 
L 90.881633 116.211967 
L 93.159184 120.252844 
L 95.436735 123.433683 
L 97.714286 125.715495 
L 99.991837 127.118881 
L 102.269388 127.714577 
L 104.546939 127.610876 
L 106.82449 126.942137 
L 109.102041 125.859546 
L 111.379592 124.523115 
L 113.657143 123.094873 
L 115.934694 121.733292 
L 118.212245 120.591009 
L 120.489796 119.817912 
L 122.767347 119.51318 
L 125.044898 119.568912 
L 127.322449 119.833111 
L 129.6 120.173252 
L 129.6 120.286198 
L 129.6 120.286198 
L 127.322449 119.970778 
L 125.044898 119.724951 
L 122.767347 119.679166 
L 120.489796 119.988268 
L 118.212245 120.771621 
L 115.934694 121.943908 
L 113.657143 123.353453 
L 111.379592 124.836277 
L 109.102041 126.223201 
L 106.82449 127.34543 
L 104.546939 128.040485 
L 102.269388 128.16 
L 99.991837 127.578669 
L 97.714286 126.203215 
L 95.436735 123.979159 
L 93.159184 120.895266 
L 90.881633 116.989008 
L 88.604082 112.354496 
L 86.326531 107.149015 
L 84.04898 101.595686 
L 81.771429 95.98216 
L 79.493878 90.655439 
L 77.216327 86.012598 
L 74.938776 82.480319 
L 72.661224 80.428326 
L 70.383673 79.775141 
L 68.106122 80.353139 
L 65.828571 81.977987 
L 63.55102 84.457973 
L 61.273469 87.597411 
L 58.995918 91.200834 
L 56.718367 95.077757 
L 54.440816 99.047848 
L 52.163265 102.946022 
L 49.885714 106.627432 
L 47.608163 109.971692 
L 45.330612 112.886595 
L 43.053061 115.311328 
L 40.77551 117.218973 
L 38.497959 118.616825 
L 36.220408 119.545164 
L 33.942857 120.081007 
L 31.665306 120.342372 
L 29.387755 120.48504 
L 27.110204 120.644441 
L 24.832653 120.78044 
L 22.555102 120.830034 
L 20.277551 120.761675 
L 18 120.571336 
z
" style="fill:#66c2a5;fill-opacity:0.2;"/>
   </g>
   <g id="matplotlib.axis_3">
    <g id="xtick_6">
     <g id="line2d_12">
      <g>
       <use style="fill:#a9a9a9;stroke:#a9a9a9;stroke-width:2;" x="29.387755" xlink:href="#maf78ac6aff" y="122.263974"/>
      </g>
     </g>
    </g>
    <g id="xtick_7">
     <g id="line2d_13">
      <g>
       <use style="fill:#a9a9a9;stroke:#a9a9a9;stroke-width:2;" x="52.163265" xlink:href="#maf78ac6aff" y="122.263974"/>
      </g>
     </g>
    </g>
    <g id="xtick_8">
     <g id="line2d_14">
      <g>
       <use style="fill:#a9a9a9;stroke:#a9a9a9;stroke-width:2;" x="74.938776" xlink:href="#maf78ac6aff" y="122.263974"/>
      </g>
     </g>
    </g>
    <g id="xtick_9">
     <g id="line2d_15">
      <g>
       <use style="fill:#a9a9a9;stroke:#a9a9a9;stroke-width:2;" x="97.714286" xlink:href="#maf78ac6aff" y="122.263974"/>
      </g>
     </g>
    </g>
    <g id="xtick_10">
     <g id="line2d_16">
      <g>
       <use style="fill:#a9a9a9;stroke:#a9a9a9;stroke-width:2;" x="120.489796" xlink:href="#maf78ac6aff" y="122.263974"/>
      </g>
     </g>
    </g>
   </g>
   <g id="matplotlib.axis_4"/>
   <g id="line2d_17">
    <path clip-path="url(#pe5b89ee082)" d="M 18 120.528147 
L 20.277551 120.729004 
L 22.555102 120.799982 
L 24.832653 120.744421 
L 27.110204 120.599267 
L 29.387755 120.431618 
L 31.665306 120.283354 
L 33.942857 120.017239 
L 36.220408 119.475834 
L 38.497959 118.536907 
L 40.77551 117.115873 
L 43.053061 115.166771 
L 45.330612 112.681997 
L 47.608163 109.691007 
L 49.885714 106.258149 
L 52.163265 102.479792 
L 54.440816 98.480891 
L 56.718367 94.411077 
L 58.995918 90.440134 
L 61.273469 86.752899 
L 63.55102 83.543883 
L 65.828571 81.011952 
L 68.106122 79.355385 
L 70.383673 78.767571 
L 72.661224 79.433514 
L 74.938776 81.520443 
L 77.216327 85.10838 
L 79.493878 89.823628 
L 81.771429 95.234993 
L 84.04898 100.940498 
L 86.326531 106.587927 
L 88.604082 111.884173 
L 90.881633 116.600488 
L 93.159184 120.574055 
L 95.436735 123.706421 
L 97.714286 125.959355 
L 99.991837 127.348775 
L 102.269388 127.937289 
L 104.546939 127.82568 
L 106.82449 127.143784 
L 109.102041 126.041373 
L 111.379592 124.679696 
L 113.657143 123.224163 
L 115.934694 121.8386 
L 118.212245 120.681315 
L 120.489796 119.90309 
L 122.767347 119.596173 
L 125.044898 119.646932 
L 127.322449 119.901945 
L 129.6 120.229725 
" style="fill:none;stroke:#66c2a5;stroke-linecap:square;stroke-width:2;"/>
   </g>
   <g id="patch_8">
    <path d="M 74.938776 128.16 
L 74.938776 77.76 
" style="fill:none;stroke:#a9a9a9;stroke-linecap:square;stroke-linejoin:miter;stroke-width:2;"/>
   </g>
   <g id="patch_9">
    <path d="M 129.6 128.16 
L 129.6 77.76 
" style="fill:none;"/>
   </g>
   <g id="patch_10">
    <path d="M 18 122.263974 
L 129.6 122.263974 
" style="fill:none;stroke:#a9a9a9;stroke-linecap:square;stroke-linejoin:miter;stroke-width:2;"/>
   </g>
   <g id="patch_11">
    <path d="M 18 77.76 
L 129.6 77.76 
" style="fill:none;"/>
   </g>
   <g id="legend_2">
    <g id="line2d_18">
     <path d="M 101.475312 86.928906 
L 115.475312 86.928906 
" style="fill:none;stroke:#66c2a5;stroke-linecap:square;stroke-width:2;"/>
    </g>
    <g id="line2d_19"/>
    <g id="text_3">
     <!--   -->
     <g transform="translate(121.075312 89.378906)scale(0.07 -0.07)">
      <use xlink:href="#DejaVuSans-32"/>
     </g>
    </g>
   </g>
  </g>
 </g>
 <defs>
  <clipPath id="p3e71bd5f74">
   <rect height="50.4" width="111.6" x="18" y="17.28"/>
  </clipPath>
  <clipPath id="pe5b89ee082">
   <rect height="50.4" width="111.6" x="18" y="77.76"/>
  </clipPath>
 </defs>
</svg>
