<?xml version="1.0" encoding="utf-8" standalone="no"?>
<!DOCTYPE svg PUBLIC "-//W3C//DTD SVG 1.1//EN"
  "http://www.w3.org/Graphics/SVG/1.1/DTD/svg11.dtd">
<!-- Created with matplotlib (https://matplotlib.org/) -->
<svg height="144pt" version="1.1" viewBox="0 0 144 144" width="144pt" xmlns="http://www.w3.org/2000/svg" xmlns:xlink="http://www.w3.org/1999/xlink">
 <metadata>
  <rdf:RDF xmlns:cc="http://creativecommons.org/ns#" xmlns:dc="http://purl.org/dc/elements/1.1/" xmlns:rdf="http://www.w3.org/1999/02/22-rdf-syntax-ns#">
   <cc:Work>
    <dc:type rdf:resource="http://purl.org/dc/dcmitype/StillImage"/>
    <dc:date>2021-10-13T14:29:24.464944</dc:date>
    <dc:format>image/svg+xml</dc:format>
    <dc:creator>
     <cc:Agent>
      <dc:title>Matplotlib v3.3.2, https://matplotlib.org/</dc:title>
     </cc:Agent>
    </dc:creator>
   </cc:Work>
  </rdf:RDF>
 </metadata>
 <defs>
  <style type="text/css">*{stroke-linecap:butt;stroke-linejoin:round;}</style>
 </defs>
 <g id="figure_1">
  <g id="patch_1">
   <path d="M 0 144 
L 144 144 
L 144 0 
L 0 0 
z
" style="fill:none;"/>
  </g>
  <g id="axes_1">
   <g id="patch_2">
    <path d="M 18 67.68 
L 129.6 67.68 
L 129.6 17.28 
L 18 17.28 
z
" style="fill:none;"/>
   </g>
   <g id="PolyCollection_1">
    <path clip-path="url(#p7ee54136f9)" d="M 18 67.67999 
L 18 67.67999 
L 20.277551 67.67999 
L 22.555102 67.67999 
L 24.832653 67.67999 
L 27.110204 67.67999 
L 29.387755 67.679969 
L 31.665306 67.633558 
L 33.942857 67.42834 
L 36.220408 66.935952 
L 38.497959 65.994796 
L 40.77551 64.559996 
L 43.053061 62.43923 
L 45.330612 59.646848 
L 47.608163 56.264434 
L 49.885714 52.374927 
L 52.163265 47.934633 
L 54.440816 43.144819 
L 56.718367 38.076911 
L 58.995918 33.308247 
L 61.273469 28.508506 
L 63.55102 24.419261 
L 65.828571 21.094369 
L 68.106122 18.474138 
L 70.383673 17.312039 
L 72.661224 17.28 
L 74.938776 24.232866 
L 77.216327 20.424919 
L 79.493878 23.604284 
L 81.771429 27.820776 
L 84.04898 32.011569 
L 86.326531 36.165458 
L 88.604082 40.374562 
L 90.881633 44.486759 
L 93.159184 48.491764 
L 95.436735 51.908742 
L 97.714286 55.337208 
L 99.991837 58.077002 
L 102.269388 60.478645 
L 104.546939 62.519105 
L 106.82449 64.212631 
L 109.102041 65.50848 
L 111.379592 66.470863 
L 113.657143 67.108178 
L 115.934694 67.497427 
L 118.212245 67.652749 
L 120.489796 67.67999 
L 122.767347 67.67999 
L 125.044898 67.67999 
L 127.322449 67.67999 
L 129.6 67.67999 
L 129.6 67.67999 
L 129.6 67.67999 
L 127.322449 67.67999 
L 125.044898 67.67999 
L 122.767347 67.67999 
L 120.489796 67.67999 
L 118.212245 67.679597 
L 115.934694 67.579376 
L 113.657143 67.28763 
L 111.379592 66.758757 
L 109.102041 65.857786 
L 106.82449 64.652771 
L 104.546939 63.160526 
L 102.269388 61.254937 
L 99.991837 58.884666 
L 97.714286 56.24841 
L 95.436735 53.246148 
L 93.159184 49.811117 
L 90.881633 46.035587 
L 88.604082 42.220878 
L 86.326531 37.826499 
L 84.04898 33.740446 
L 81.771429 29.666208 
L 79.493878 25.759179 
L 77.216327 22.539847 
L 74.938776 26.51336 
L 72.661224 19.385035 
L 70.383673 19.544552 
L 68.106122 20.726609 
L 65.828571 23.067876 
L 63.55102 26.539469 
L 61.273469 30.483645 
L 58.995918 35.160278 
L 56.718367 39.704716 
L 54.440816 44.335012 
L 52.163265 49.189663 
L 49.885714 53.471092 
L 47.608163 57.243412 
L 45.330612 60.478669 
L 43.053061 62.979452 
L 40.77551 64.94106 
L 38.497959 66.28991 
L 36.220408 67.131514 
L 33.942857 67.517167 
L 31.665306 67.668275 
L 29.387755 67.68 
L 27.110204 67.67999 
L 24.832653 67.67999 
L 22.555102 67.67999 
L 20.277551 67.67999 
L 18 67.67999 
z
" style="fill:#fc8d62;fill-opacity:0.2;"/>
   </g>
   <g id="PolyCollection_2">
    <path clip-path="url(#p7ee54136f9)" d="M 18 67.67999 
L 18 67.67999 
L 20.277551 67.67999 
L 22.555102 67.67999 
L 24.832653 67.67999 
L 27.110204 67.67999 
L 29.387755 67.679834 
L 31.665306 67.633375 
L 33.942857 67.442994 
L 36.220408 66.96437 
L 38.497959 66.054843 
L 40.77551 64.761069 
L 43.053061 62.936522 
L 45.330612 60.651371 
L 47.608163 57.670215 
L 49.885714 54.288208 
L 52.163265 50.496392 
L 54.440816 46.365713 
L 56.718367 41.806615 
L 58.995918 37.306473 
L 61.273469 32.659778 
L 63.55102 28.313507 
L 65.828571 24.651885 
L 68.106122 21.197345 
L 70.383673 18.633552 
L 72.661224 17.211599 
L 74.938776 21.296708 
L 77.216327 17.152497 
L 79.493878 19.0607 
L 81.771429 21.781455 
L 84.04898 25.177742 
L 86.326531 29.126584 
L 88.604082 33.388109 
L 90.881633 37.976555 
L 93.159184 42.40524 
L 95.436735 46.806014 
L 97.714286 50.916853 
L 99.991837 54.747533 
L 102.269388 58.05809 
L 104.546939 60.915071 
L 106.82449 63.239286 
L 109.102041 64.947949 
L 111.379592 66.27872 
L 113.657143 67.032838 
L 115.934694 67.450617 
L 118.212245 67.641 
L 120.489796 67.67999 
L 122.767347 67.67999 
L 125.044898 67.67999 
L 127.322449 67.67999 
L 129.6 67.67999 
L 129.6 67.67999 
L 129.6 67.67999 
L 127.322449 67.67999 
L 125.044898 67.67999 
L 122.767347 67.67999 
L 120.489796 67.679991 
L 118.212245 67.67377 
L 115.934694 67.548593 
L 113.657143 67.210267 
L 111.379592 66.531848 
L 109.102041 65.399334 
L 106.82449 63.721435 
L 104.546939 61.633455 
L 102.269388 58.839855 
L 99.991837 55.725176 
L 97.714286 52.050239 
L 95.436735 48.018711 
L 93.159184 43.921975 
L 90.881633 39.491905 
L 88.604082 34.846446 
L 86.326531 30.917906 
L 84.04898 26.893988 
L 81.771429 23.613617 
L 79.493878 21.127036 
L 77.216327 19.230096 
L 74.938776 23.274492 
L 72.661224 19.029262 
L 70.383673 20.59857 
L 68.106122 23.173706 
L 65.828571 26.448846 
L 63.55102 30.112993 
L 61.273469 34.50254 
L 58.995918 38.829733 
L 56.718367 43.281351 
L 54.440816 47.562753 
L 52.163265 51.641836 
L 49.885714 55.370176 
L 47.608163 58.526789 
L 45.330612 61.331942 
L 43.053061 63.501446 
L 40.77551 65.209446 
L 38.497959 66.353525 
L 36.220408 67.140451 
L 33.942857 67.517669 
L 31.665306 67.671926 
L 29.387755 67.680097 
L 27.110204 67.67999 
L 24.832653 67.67999 
L 22.555102 67.67999 
L 20.277551 67.67999 
L 18 67.67999 
z
" style="fill:#fc8d62;fill-opacity:0.2;"/>
   </g>
   <g id="matplotlib.axis_1">
    <g id="xtick_1">
     <g id="line2d_1">
      <defs>
       <path d="M 0 0 
L 0 3.5 
" id="m2a0cc7aaa7" style="stroke:#a9a9a9;stroke-width:2;"/>
      </defs>
      <g>
       <use style="fill:#a9a9a9;stroke:#a9a9a9;stroke-width:2;" x="29.387755" xlink:href="#m2a0cc7aaa7" y="67.67999"/>
      </g>
     </g>
    </g>
    <g id="xtick_2">
     <g id="line2d_2">
      <g>
       <use style="fill:#a9a9a9;stroke:#a9a9a9;stroke-width:2;" x="52.163265" xlink:href="#m2a0cc7aaa7" y="67.67999"/>
      </g>
     </g>
    </g>
    <g id="xtick_3">
     <g id="line2d_3">
      <g>
       <use style="fill:#a9a9a9;stroke:#a9a9a9;stroke-width:2;" x="74.938776" xlink:href="#m2a0cc7aaa7" y="67.67999"/>
      </g>
     </g>
    </g>
    <g id="xtick_4">
     <g id="line2d_4">
      <g>
       <use style="fill:#a9a9a9;stroke:#a9a9a9;stroke-width:2;" x="97.714286" xlink:href="#m2a0cc7aaa7" y="67.67999"/>
      </g>
     </g>
    </g>
    <g id="xtick_5">
     <g id="line2d_5">
      <g>
       <use style="fill:#a9a9a9;stroke:#a9a9a9;stroke-width:2;" x="120.489796" xlink:href="#m2a0cc7aaa7" y="67.67999"/>
      </g>
     </g>
    </g>
   </g>
   <g id="matplotlib.axis_2"/>
   <g id="line2d_6">
    <path clip-path="url(#p7ee54136f9)" d="M 18 67.67999 
L 20.277551 67.67999 
L 22.555102 67.67999 
L 24.832653 67.67999 
L 27.110204 67.67999 
L 29.387755 67.679985 
L 31.665306 67.650917 
L 33.942857 67.472753 
L 36.220408 67.033733 
L 38.497959 66.142353 
L 40.77551 64.750528 
L 43.053061 62.709341 
L 45.330612 60.062758 
L 47.608163 56.753923 
L 49.885714 52.92301 
L 52.163265 48.562148 
L 54.440816 43.739915 
L 56.718367 38.890814 
L 58.995918 34.234262 
L 61.273469 29.496076 
L 63.55102 25.479365 
L 65.828571 22.081123 
L 68.106122 19.600373 
L 70.383673 18.428296 
L 72.661224 18.332518 
L 74.938776 25.373113 
L 77.216327 21.482383 
L 79.493878 24.681731 
L 81.771429 28.743492 
L 84.04898 32.876008 
L 86.326531 36.995978 
L 88.604082 41.29772 
L 90.881633 45.261173 
L 93.159184 49.15144 
L 95.436735 52.577445 
L 97.714286 55.792809 
L 99.991837 58.480834 
L 102.269388 60.866791 
L 104.546939 62.839815 
L 106.82449 64.432701 
L 109.102041 65.683133 
L 111.379592 66.61481 
L 113.657143 67.197904 
L 115.934694 67.538401 
L 118.212245 67.666173 
L 120.489796 67.67999 
L 122.767347 67.67999 
L 125.044898 67.67999 
L 127.322449 67.67999 
L 129.6 67.67999 
" style="fill:none;stroke:#fc8d62;stroke-linecap:square;stroke-width:2;"/>
   </g>
   <g id="line2d_7">
    <path clip-path="url(#p7ee54136f9)" d="M 18 67.67999 
L 20.277551 67.67999 
L 22.555102 67.67999 
L 24.832653 67.67999 
L 27.110204 67.67999 
L 29.387755 67.679966 
L 31.665306 67.65265 
L 33.942857 67.480332 
L 36.220408 67.052411 
L 38.497959 66.204184 
L 40.77551 64.985258 
L 43.053061 63.218984 
L 45.330612 60.991657 
L 47.608163 58.098502 
L 49.885714 54.829192 
L 52.163265 51.069114 
L 54.440816 46.964233 
L 56.718367 42.543983 
L 58.995918 38.068103 
L 61.273469 33.581159 
L 63.55102 29.21325 
L 65.828571 25.550366 
L 68.106122 22.185526 
L 70.383673 19.616061 
L 72.661224 18.12043 
L 74.938776 22.2856 
L 77.216327 18.191297 
L 79.493878 20.093868 
L 81.771429 22.697536 
L 84.04898 26.035865 
L 86.326531 30.022245 
L 88.604082 34.117278 
L 90.881633 38.73423 
L 93.159184 43.163608 
L 95.436735 47.412363 
L 97.714286 51.483546 
L 99.991837 55.236355 
L 102.269388 58.448972 
L 104.546939 61.274263 
L 106.82449 63.48036 
L 109.102041 65.173642 
L 111.379592 66.405284 
L 113.657143 67.121553 
L 115.934694 67.499605 
L 118.212245 67.657385 
L 120.489796 67.67999 
L 122.767347 67.67999 
L 125.044898 67.67999 
L 127.322449 67.67999 
L 129.6 67.67999 
" style="fill:none;stroke:#fc8d62;stroke-dasharray:1.5,1.5;stroke-dashoffset:0;stroke-opacity:0.7;stroke-width:1.5;"/>
   </g>
   <g id="patch_3">
    <path d="M 74.938776 67.68 
L 74.938776 17.28 
" style="fill:none;stroke:#a9a9a9;stroke-linecap:square;stroke-linejoin:miter;stroke-width:2;"/>
   </g>
   <g id="patch_4">
    <path d="M 129.6 67.68 
L 129.6 17.28 
" style="fill:none;"/>
   </g>
   <g id="patch_5">
    <path d="M 18 67.67999 
L 129.6 67.67999 
" style="fill:none;stroke:#a9a9a9;stroke-linecap:square;stroke-linejoin:miter;stroke-width:2;"/>
   </g>
   <g id="patch_6">
    <path d="M 18 17.28 
L 129.6 17.28 
" style="fill:none;"/>
   </g>
   <g id="legend_1">
    <g id="line2d_8">
     <path d="M 87.67 26.448906 
L 101.67 26.448906 
" style="fill:none;stroke:#fc8d62;stroke-linecap:square;stroke-width:2;"/>
    </g>
    <g id="line2d_9"/>
    <g id="text_1">
     <!-- $\theta$ -->
     <g transform="translate(107.27 28.898906)scale(0.07 -0.07)">
      <defs>
       <path d="M 45.515625 34.671875 
L 14.453125 34.671875 
Q 12.359375 20.0625 14.5 13.875 
Q 17.1875 6.25 24.46875 6.25 
Q 31.78125 6.25 37.359375 13.921875 
Q 42.234375 20.65625 45.515625 34.671875 
z
M 47.015625 42.96875 
Q 48.34375 56.84375 46.625 61.71875 
Q 43.953125 69.4375 36.765625 69.4375 
Q 29.296875 69.4375 23.828125 61.8125 
Q 19.53125 55.671875 16.15625 42.96875 
z
M 38.1875 76.765625 
Q 49.90625 76.765625 54.59375 66.40625 
Q 59.28125 56.109375 55.71875 37.84375 
Q 52.203125 19.625 43.453125 9.28125 
Q 34.765625 -1.125 23.046875 -1.125 
Q 11.28125 -1.125 6.640625 9.28125 
Q 2 19.625 5.515625 37.84375 
Q 9.078125 56.109375 17.71875 66.40625 
Q 26.421875 76.765625 38.1875 76.765625 
z
" id="DejaVuSans-Oblique-952"/>
      </defs>
      <use transform="translate(0 0.234375)" xlink:href="#DejaVuSans-Oblique-952"/>
     </g>
    </g>
    <g id="line2d_10">
     <path d="M 87.67 36.723594 
L 101.67 36.723594 
" style="fill:none;stroke:#fc8d62;stroke-dasharray:1.5,1.5;stroke-dashoffset:0;stroke-opacity:0.7;stroke-width:1.5;"/>
    </g>
    <g id="line2d_11"/>
    <g id="text_2">
     <!-- No $\theta$ -->
     <g transform="translate(107.27 39.173594)scale(0.07 -0.07)">
      <defs>
       <path d="M 9.8125 72.90625 
L 23.09375 72.90625 
L 55.421875 11.921875 
L 55.421875 72.90625 
L 64.984375 72.90625 
L 64.984375 0 
L 51.703125 0 
L 19.390625 60.984375 
L 19.390625 0 
L 9.8125 0 
z
" id="DejaVuSans-78"/>
       <path d="M 30.609375 48.390625 
Q 23.390625 48.390625 19.1875 42.75 
Q 14.984375 37.109375 14.984375 27.296875 
Q 14.984375 17.484375 19.15625 11.84375 
Q 23.34375 6.203125 30.609375 6.203125 
Q 37.796875 6.203125 41.984375 11.859375 
Q 46.1875 17.53125 46.1875 27.296875 
Q 46.1875 37.015625 41.984375 42.703125 
Q 37.796875 48.390625 30.609375 48.390625 
z
M 30.609375 56 
Q 42.328125 56 49.015625 48.375 
Q 55.71875 40.765625 55.71875 27.296875 
Q 55.71875 13.875 49.015625 6.21875 
Q 42.328125 -1.421875 30.609375 -1.421875 
Q 18.84375 -1.421875 12.171875 6.21875 
Q 5.515625 13.875 5.515625 27.296875 
Q 5.515625 40.765625 12.171875 48.375 
Q 18.84375 56 30.609375 56 
z
" id="DejaVuSans-111"/>
       <path id="DejaVuSans-32"/>
      </defs>
      <use transform="translate(0 0.234375)" xlink:href="#DejaVuSans-78"/>
      <use transform="translate(74.804688 0.234375)" xlink:href="#DejaVuSans-111"/>
      <use transform="translate(135.986328 0.234375)" xlink:href="#DejaVuSans-32"/>
      <use transform="translate(167.773438 0.234375)" xlink:href="#DejaVuSans-Oblique-952"/>
     </g>
    </g>
   </g>
  </g>
  <g id="axes_2">
   <g id="patch_7">
    <path d="M 18 128.16 
L 129.6 128.16 
L 129.6 77.76 
L 18 77.76 
z
" style="fill:none;"/>
   </g>
   <g id="PolyCollection_3">
    <path clip-path="url(#pf6cbe4f8a7)" d="M 18 120.567888 
L 18 120.488154 
L 20.277551 120.706076 
L 22.555102 120.767115 
L 24.832653 120.679129 
L 27.110204 120.491416 
L 29.387755 120.283604 
L 31.665306 120.106226 
L 33.942857 119.818802 
L 36.220408 119.259162 
L 38.497959 118.299401 
L 40.77551 116.847472 
L 43.053061 114.85185 
L 45.330612 112.304198 
L 47.608163 109.236526 
L 49.885714 105.71713 
L 52.163265 101.84688 
L 54.440816 97.755349 
L 56.718367 93.596927 
L 58.995918 89.546067 
L 61.273469 85.792193 
L 63.55102 82.534202 
L 65.828571 79.975241 
L 68.106122 78.317876 
L 70.383673 77.76 
L 72.661224 78.491589 
L 74.938776 80.682235 
L 77.216327 84.422979 
L 79.493878 89.310891 
L 81.771429 94.896622 
L 84.04898 100.760992 
L 86.326531 106.53909 
L 88.604082 111.929402 
L 90.881633 116.698399 
L 93.159184 120.681524 
L 95.436735 123.781428 
L 97.714286 125.965765 
L 99.991837 127.262647 
L 102.269388 127.751068 
L 104.546939 127.546814 
L 106.82449 126.790279 
L 109.102041 125.637086 
L 111.379592 124.250245 
L 113.657143 122.793393 
L 115.934694 121.425644 
L 118.212245 120.299625 
L 120.489796 119.56495 
L 122.767347 119.317908 
L 125.044898 119.438588 
L 127.322449 119.762772 
L 129.6 120.149162 
L 129.6 120.254174 
L 129.6 120.254174 
L 127.322449 119.891707 
L 125.044898 119.585659 
L 122.767347 119.475259 
L 120.489796 119.727052 
L 118.212245 120.471733 
L 115.934694 121.626218 
L 113.657143 123.039131 
L 111.379592 124.546853 
L 109.102041 125.979893 
L 106.82449 127.167925 
L 104.546939 127.945564 
L 102.269388 128.16 
L 99.991837 127.68023 
L 97.714286 126.406407 
L 95.436735 124.276758 
L 93.159184 121.271642 
L 90.881633 117.4203 
L 88.604082 112.810135 
L 86.326531 107.594568 
L 84.04898 101.996244 
L 81.771429 96.306452 
L 79.493878 90.880421 
L 77.216327 86.128292 
L 74.938776 82.491114 
L 72.661224 80.365106 
L 70.383673 79.656235 
L 68.106122 80.194368 
L 65.828571 81.790947 
L 63.55102 84.251326 
L 61.273469 87.377853 
L 58.995918 90.973785 
L 56.718367 94.847811 
L 54.440816 98.81905 
L 52.163265 102.721972 
L 49.885714 106.411251 
L 47.608163 109.765853 
L 45.330612 112.692895 
L 43.053061 115.130735 
L 40.77551 117.051278 
L 38.497959 118.460684 
L 36.220408 119.399666 
L 33.942857 119.947258 
L 31.665306 120.224064 
L 29.387755 120.389342 
L 27.110204 120.580702 
L 24.832653 120.74992 
L 22.555102 120.82471 
L 20.277551 120.766628 
L 18 120.567888 
z
" style="fill:#66c2a5;fill-opacity:0.2;"/>
   </g>
   <g id="matplotlib.axis_3">
    <g id="xtick_6">
     <g id="line2d_12">
      <g>
       <use style="fill:#a9a9a9;stroke:#a9a9a9;stroke-width:2;" x="29.387755" xlink:href="#m2a0cc7aaa7" y="122.201774"/>
      </g>
     </g>
    </g>
    <g id="xtick_7">
     <g id="line2d_13">
      <g>
       <use style="fill:#a9a9a9;stroke:#a9a9a9;stroke-width:2;" x="52.163265" xlink:href="#m2a0cc7aaa7" y="122.201774"/>
      </g>
     </g>
    </g>
    <g id="xtick_8">
     <g id="line2d_14">
      <g>
       <use style="fill:#a9a9a9;stroke:#a9a9a9;stroke-width:2;" x="74.938776" xlink:href="#m2a0cc7aaa7" y="122.201774"/>
      </g>
     </g>
    </g>
    <g id="xtick_9">
     <g id="line2d_15">
      <g>
       <use style="fill:#a9a9a9;stroke:#a9a9a9;stroke-width:2;" x="97.714286" xlink:href="#m2a0cc7aaa7" y="122.201774"/>
      </g>
     </g>
    </g>
    <g id="xtick_10">
     <g id="line2d_16">
      <g>
       <use style="fill:#a9a9a9;stroke:#a9a9a9;stroke-width:2;" x="120.489796" xlink:href="#m2a0cc7aaa7" y="122.201774"/>
      </g>
     </g>
    </g>
   </g>
   <g id="matplotlib.axis_4"/>
   <g id="line2d_17">
    <path clip-path="url(#pf6cbe4f8a7)" d="M 18 120.528021 
L 20.277551 120.736352 
L 22.555102 120.795912 
L 24.832653 120.714525 
L 27.110204 120.536059 
L 29.387755 120.336473 
L 31.665306 120.165145 
L 33.942857 119.88303 
L 36.220408 119.329414 
L 38.497959 118.380043 
L 40.77551 116.949375 
L 43.053061 114.991292 
L 45.330612 112.498547 
L 47.608163 109.501189 
L 49.885714 106.06419 
L 52.163265 102.284426 
L 54.440816 98.287199 
L 56.718367 94.222369 
L 58.995918 90.259926 
L 61.273469 86.585023 
L 63.55102 83.392764 
L 65.828571 80.883094 
L 68.106122 79.256122 
L 70.383673 78.708117 
L 72.661224 79.428347 
L 74.938776 81.586674 
L 77.216327 85.275636 
L 79.493878 90.095656 
L 81.771429 95.601537 
L 84.04898 101.378618 
L 86.326531 107.066829 
L 88.604082 112.369768 
L 90.881633 117.05935 
L 93.159184 120.976583 
L 95.436735 124.029093 
L 97.714286 126.186086 
L 99.991837 127.471438 
L 102.269388 127.955534 
L 104.546939 127.746189 
L 106.82449 126.979102 
L 109.102041 125.808489 
L 111.379592 124.398549 
L 113.657143 122.916262 
L 115.934694 121.525931 
L 118.212245 120.385679 
L 120.489796 119.646001 
L 122.767347 119.396583 
L 125.044898 119.512124 
L 127.322449 119.827239 
L 129.6 120.201668 
" style="fill:none;stroke:#66c2a5;stroke-linecap:square;stroke-width:2;"/>
   </g>
   <g id="patch_8">
    <path d="M 74.938776 128.16 
L 74.938776 77.76 
" style="fill:none;stroke:#a9a9a9;stroke-linecap:square;stroke-linejoin:miter;stroke-width:2;"/>
   </g>
   <g id="patch_9">
    <path d="M 129.6 128.16 
L 129.6 77.76 
" style="fill:none;"/>
   </g>
   <g id="patch_10">
    <path d="M 18 122.201774 
L 129.6 122.201774 
" style="fill:none;stroke:#a9a9a9;stroke-linecap:square;stroke-linejoin:miter;stroke-width:2;"/>
   </g>
   <g id="patch_11">
    <path d="M 18 77.76 
L 129.6 77.76 
" style="fill:none;"/>
   </g>
  </g>
 </g>
 <defs>
  <clipPath id="p7ee54136f9">
   <rect height="50.4" width="111.6" x="18" y="17.28"/>
  </clipPath>
  <clipPath id="pf6cbe4f8a7">
   <rect height="50.4" width="111.6" x="18" y="77.76"/>
  </clipPath>
 </defs>
</svg>
