<?xml version="1.0" encoding="utf-8" standalone="no"?>
<!DOCTYPE svg PUBLIC "-//W3C//DTD SVG 1.1//EN"
  "http://www.w3.org/Graphics/SVG/1.1/DTD/svg11.dtd">
<!-- Created with matplotlib (https://matplotlib.org/) -->
<svg height="144pt" version="1.1" viewBox="0 0 144 144" width="144pt" xmlns="http://www.w3.org/2000/svg" xmlns:xlink="http://www.w3.org/1999/xlink">
 <metadata>
  <rdf:RDF xmlns:cc="http://creativecommons.org/ns#" xmlns:dc="http://purl.org/dc/elements/1.1/" xmlns:rdf="http://www.w3.org/1999/02/22-rdf-syntax-ns#">
   <cc:Work>
    <dc:type rdf:resource="http://purl.org/dc/dcmitype/StillImage"/>
    <dc:date>2021-10-14T21:16:38.978678</dc:date>
    <dc:format>image/svg+xml</dc:format>
    <dc:creator>
     <cc:Agent>
      <dc:title>Matplotlib v3.3.2, https://matplotlib.org/</dc:title>
     </cc:Agent>
    </dc:creator>
   </cc:Work>
  </rdf:RDF>
 </metadata>
 <defs>
  <style type="text/css">*{stroke-linecap:butt;stroke-linejoin:round;}</style>
 </defs>
 <g id="figure_1">
  <g id="patch_1">
   <path d="M 0 144 
L 144 144 
L 144 0 
L 0 0 
z
" style="fill:none;"/>
  </g>
  <g id="axes_1">
   <g id="patch_2">
    <path d="M 18 67.68 
L 129.6 67.68 
L 129.6 17.28 
L 18 17.28 
z
" style="fill:none;"/>
   </g>
   <g id="PolyCollection_1">
    <path clip-path="url(#p3f57782ef9)" d="M 18 67.621777 
L 18 67.621777 
L 20.277551 67.621777 
L 22.555102 67.621777 
L 24.832653 67.621777 
L 27.110204 67.621777 
L 29.387755 67.621722 
L 31.665306 67.545196 
L 33.942857 67.337532 
L 36.220408 66.798308 
L 38.497959 65.880682 
L 40.77551 64.642918 
L 43.053061 62.441102 
L 45.330612 60.02706 
L 47.608163 56.678064 
L 49.885714 52.686714 
L 52.163265 48.052417 
L 54.440816 43.812303 
L 56.718367 38.43912 
L 58.995918 32.898795 
L 61.273469 28.437092 
L 63.55102 24.031408 
L 65.828571 21.090364 
L 68.106122 19.287962 
L 70.383673 17.28 
L 72.661224 18.432458 
L 74.938776 21.410754 
L 77.216327 23.403789 
L 79.493878 26.865891 
L 81.771429 31.914173 
L 84.04898 36.616286 
L 86.326531 41.308747 
L 88.604082 45.332322 
L 90.881633 49.808796 
L 93.159184 53.099758 
L 95.436735 56.068287 
L 97.714286 59.060761 
L 99.991837 60.987965 
L 102.269388 62.854245 
L 104.546939 63.689991 
L 106.82449 65.320736 
L 109.102041 66.134188 
L 111.379592 66.862251 
L 113.657143 67.23282 
L 115.934694 67.465612 
L 118.212245 67.572525 
L 120.489796 67.621587 
L 122.767347 67.621777 
L 125.044898 67.621777 
L 127.322449 67.621777 
L 129.6 67.621777 
L 129.6 67.621777 
L 129.6 67.621777 
L 127.322449 67.621777 
L 125.044898 67.621777 
L 122.767347 67.621779 
L 120.489796 67.622595 
L 118.212245 67.668197 
L 115.934694 67.68 
L 113.657143 67.656105 
L 111.379592 67.431077 
L 109.102041 67.088157 
L 106.82449 66.570508 
L 104.546939 65.584562 
L 102.269388 64.601208 
L 99.991837 63.193448 
L 97.714286 61.317471 
L 95.436735 58.503356 
L 93.159184 56.272127 
L 90.881633 53.822162 
L 88.604082 49.577789 
L 86.326531 45.91076 
L 84.04898 41.448863 
L 81.771429 36.708973 
L 79.493878 32.510832 
L 77.216327 28.736731 
L 74.938776 26.606468 
L 72.661224 23.074605 
L 70.383673 23.435633 
L 68.106122 24.319056 
L 65.828571 26.132448 
L 63.55102 29.005699 
L 61.273469 33.14997 
L 58.995918 37.86536 
L 56.718367 41.701735 
L 54.440816 47.017034 
L 52.163265 50.98321 
L 49.885714 55.554218 
L 47.608163 58.764003 
L 45.330612 61.962079 
L 43.053061 64.008703 
L 40.77551 65.751245 
L 38.497959 66.636128 
L 36.220408 67.258853 
L 33.942857 67.588454 
L 31.665306 67.641026 
L 29.387755 67.621806 
L 27.110204 67.621777 
L 24.832653 67.621777 
L 22.555102 67.621777 
L 20.277551 67.621777 
L 18 67.621777 
z
" style="fill:#fc8d62;fill-opacity:0.2;"/>
   </g>
   <g id="PolyCollection_2">
    <path clip-path="url(#p3f57782ef9)" d="M 18 67.621777 
L 18 67.621777 
L 20.277551 67.621777 
L 22.555102 67.621777 
L 24.832653 67.621777 
L 27.110204 67.621777 
L 29.387755 67.621487 
L 31.665306 67.528673 
L 33.942857 67.333856 
L 36.220408 66.841383 
L 38.497959 66.008478 
L 40.77551 64.888398 
L 43.053061 63.168985 
L 45.330612 61.239562 
L 47.608163 59.018849 
L 49.885714 55.634205 
L 52.163265 52.616738 
L 54.440816 48.714305 
L 56.718367 45.232436 
L 58.995918 41.215999 
L 61.273469 37.815824 
L 63.55102 33.484645 
L 65.828571 30.124378 
L 68.106122 28.048302 
L 70.383673 26.538644 
L 72.661224 24.648955 
L 74.938776 25.73491 
L 77.216327 25.789653 
L 79.493878 26.485748 
L 81.771429 29.58044 
L 84.04898 32.244859 
L 86.326531 36.759804 
L 88.604082 39.712637 
L 90.881633 43.804511 
L 93.159184 47.516499 
L 95.436735 50.785423 
L 97.714286 54.637945 
L 99.991837 57.405533 
L 102.269388 60.189876 
L 104.546939 62.340447 
L 106.82449 64.133056 
L 109.102041 65.45854 
L 111.379592 66.474039 
L 113.657143 67.132855 
L 115.934694 67.411049 
L 118.212245 67.591739 
L 120.489796 67.621423 
L 122.767347 67.621777 
L 125.044898 67.621777 
L 127.322449 67.621777 
L 129.6 67.621777 
L 129.6 67.621777 
L 129.6 67.621777 
L 127.322449 67.621777 
L 125.044898 67.621777 
L 122.767347 67.621778 
L 120.489796 67.622743 
L 118.212245 67.665002 
L 115.934694 67.659919 
L 113.657143 67.59758 
L 111.379592 67.230724 
L 109.102041 66.432579 
L 106.82449 65.545853 
L 104.546939 64.068641 
L 102.269388 62.150724 
L 99.991837 60.001527 
L 97.714286 57.164288 
L 95.436735 53.752779 
L 93.159184 50.515942 
L 90.881633 47.217796 
L 88.604082 43.503814 
L 86.326531 39.737331 
L 84.04898 36.851336 
L 81.771429 34.151009 
L 79.493878 30.668434 
L 77.216327 30.119992 
L 74.938776 29.842491 
L 72.661224 29.845396 
L 70.383673 31.139262 
L 68.106122 32.153916 
L 65.828571 35.389082 
L 63.55102 38.276891 
L 61.273469 41.700565 
L 58.995918 44.622873 
L 56.718367 48.526135 
L 54.440816 51.991006 
L 52.163265 55.481477 
L 49.885714 58.345796 
L 47.608163 60.885869 
L 45.330612 62.792484 
L 43.053061 64.693805 
L 40.77551 65.987846 
L 38.497959 66.748343 
L 36.220408 67.288277 
L 33.942857 67.58247 
L 31.665306 67.641528 
L 29.387755 67.621989 
L 27.110204 67.621777 
L 24.832653 67.621777 
L 22.555102 67.621777 
L 20.277551 67.621777 
L 18 67.621777 
z
" style="fill:#fc8d62;fill-opacity:0.2;"/>
   </g>
   <g id="matplotlib.axis_1">
    <g id="xtick_1">
     <g id="line2d_1">
      <defs>
       <path d="M 0 0 
L 0 3.5 
" id="m550ad1228e" style="stroke:#a9a9a9;stroke-width:2;"/>
      </defs>
      <g>
       <use style="fill:#a9a9a9;stroke:#a9a9a9;stroke-width:2;" x="29.387755" xlink:href="#m550ad1228e" y="67.621777"/>
      </g>
     </g>
    </g>
    <g id="xtick_2">
     <g id="line2d_2">
      <g>
       <use style="fill:#a9a9a9;stroke:#a9a9a9;stroke-width:2;" x="52.163265" xlink:href="#m550ad1228e" y="67.621777"/>
      </g>
     </g>
    </g>
    <g id="xtick_3">
     <g id="line2d_3">
      <g>
       <use style="fill:#a9a9a9;stroke:#a9a9a9;stroke-width:2;" x="74.938776" xlink:href="#m550ad1228e" y="67.621777"/>
      </g>
     </g>
    </g>
    <g id="xtick_4">
     <g id="line2d_4">
      <g>
       <use style="fill:#a9a9a9;stroke:#a9a9a9;stroke-width:2;" x="97.714286" xlink:href="#m550ad1228e" y="67.621777"/>
      </g>
     </g>
    </g>
    <g id="xtick_5">
     <g id="line2d_5">
      <g>
       <use style="fill:#a9a9a9;stroke:#a9a9a9;stroke-width:2;" x="120.489796" xlink:href="#m550ad1228e" y="67.621777"/>
      </g>
     </g>
    </g>
   </g>
   <g id="matplotlib.axis_2"/>
   <g id="line2d_6">
    <path clip-path="url(#p3f57782ef9)" d="M 18 67.621777 
L 20.277551 67.621777 
L 22.555102 67.621777 
L 24.832653 67.621777 
L 27.110204 67.621777 
L 29.387755 67.621764 
L 31.665306 67.593111 
L 33.942857 67.462993 
L 36.220408 67.028581 
L 38.497959 66.258405 
L 40.77551 65.197082 
L 43.053061 63.224902 
L 45.330612 60.99457 
L 47.608163 57.721034 
L 49.885714 54.120466 
L 52.163265 49.517814 
L 54.440816 45.414668 
L 56.718367 40.070428 
L 58.995918 35.382078 
L 61.273469 30.793531 
L 63.55102 26.518554 
L 65.828571 23.611406 
L 68.106122 21.803509 
L 70.383673 20.357817 
L 72.661224 20.753531 
L 74.938776 24.008611 
L 77.216327 26.07026 
L 79.493878 29.688361 
L 81.771429 34.311573 
L 84.04898 39.032574 
L 86.326531 43.609753 
L 88.604082 47.455055 
L 90.881633 51.815479 
L 93.159184 54.685943 
L 95.436735 57.285822 
L 97.714286 60.189116 
L 99.991837 62.090706 
L 102.269388 63.727726 
L 104.546939 64.637276 
L 106.82449 65.945622 
L 109.102041 66.611173 
L 111.379592 67.146664 
L 113.657143 67.444462 
L 115.934694 67.572806 
L 118.212245 67.620361 
L 120.489796 67.622091 
L 122.767347 67.621778 
L 125.044898 67.621777 
L 127.322449 67.621777 
L 129.6 67.621777 
" style="fill:none;stroke:#fc8d62;stroke-linecap:square;stroke-width:2;"/>
   </g>
   <g id="line2d_7">
    <path clip-path="url(#p3f57782ef9)" d="M 18 67.621777 
L 20.277551 67.621777 
L 22.555102 67.621777 
L 24.832653 67.621777 
L 27.110204 67.621777 
L 29.387755 67.621738 
L 31.665306 67.5851 
L 33.942857 67.458163 
L 36.220408 67.06483 
L 38.497959 66.37841 
L 40.77551 65.438122 
L 43.053061 63.931395 
L 45.330612 62.016023 
L 47.608163 59.952359 
L 49.885714 56.990001 
L 52.163265 54.049108 
L 54.440816 50.352655 
L 56.718367 46.879286 
L 58.995918 42.919436 
L 61.273469 39.758194 
L 63.55102 35.880768 
L 65.828571 32.75673 
L 68.106122 30.101109 
L 70.383673 28.838953 
L 72.661224 27.247176 
L 74.938776 27.7887 
L 77.216327 27.954822 
L 79.493878 28.577091 
L 81.771429 31.865725 
L 84.04898 34.548098 
L 86.326531 38.248567 
L 88.604082 41.608226 
L 90.881633 45.511154 
L 93.159184 49.01622 
L 95.436735 52.269101 
L 97.714286 55.901116 
L 99.991837 58.70353 
L 102.269388 61.1703 
L 104.546939 63.204544 
L 106.82449 64.839455 
L 109.102041 65.945559 
L 111.379592 66.852381 
L 113.657143 67.365217 
L 115.934694 67.535484 
L 118.212245 67.628371 
L 120.489796 67.622083 
L 122.767347 67.621778 
L 125.044898 67.621777 
L 127.322449 67.621777 
L 129.6 67.621777 
" style="fill:none;stroke:#fc8d62;stroke-dasharray:1.5,1.5;stroke-dashoffset:0;stroke-opacity:0.7;stroke-width:1.5;"/>
   </g>
   <g id="patch_3">
    <path d="M 74.938776 67.68 
L 74.938776 17.28 
" style="fill:none;stroke:#a9a9a9;stroke-linecap:square;stroke-linejoin:miter;stroke-width:2;"/>
   </g>
   <g id="patch_4">
    <path d="M 129.6 67.68 
L 129.6 17.28 
" style="fill:none;"/>
   </g>
   <g id="patch_5">
    <path d="M 18 67.621777 
L 129.6 67.621777 
" style="fill:none;stroke:#a9a9a9;stroke-linecap:square;stroke-linejoin:miter;stroke-width:2;"/>
   </g>
   <g id="patch_6">
    <path d="M 18 17.28 
L 129.6 17.28 
" style="fill:none;"/>
   </g>
   <g id="legend_1">
    <g id="line2d_8">
     <path d="M 101.475312 26.448906 
L 115.475312 26.448906 
" style="fill:none;stroke:#fc8d62;stroke-linecap:square;stroke-width:2;"/>
    </g>
    <g id="line2d_9"/>
    <g id="text_1">
     <!--   -->
     <g transform="translate(121.075312 28.898906)scale(0.07 -0.07)">
      <defs>
       <path id="DejaVuSans-32"/>
      </defs>
      <use xlink:href="#DejaVuSans-32"/>
     </g>
    </g>
    <g id="line2d_10">
     <path d="M 101.475312 36.723594 
L 115.475312 36.723594 
" style="fill:none;stroke:#fc8d62;stroke-dasharray:1.5,1.5;stroke-dashoffset:0;stroke-opacity:0.7;stroke-width:1.5;"/>
    </g>
    <g id="line2d_11"/>
    <g id="text_2">
     <!--   -->
     <g transform="translate(121.075312 39.173594)scale(0.07 -0.07)">
      <use xlink:href="#DejaVuSans-32"/>
     </g>
    </g>
   </g>
  </g>
  <g id="axes_2">
   <g id="patch_7">
    <path d="M 18 128.16 
L 129.6 128.16 
L 129.6 77.76 
L 18 77.76 
z
" style="fill:none;"/>
   </g>
   <g id="PolyCollection_3">
    <path clip-path="url(#p2732630189)" d="M 18 120.568028 
L 18 120.488686 
L 20.277551 120.701064 
L 22.555102 120.772205 
L 24.832653 120.706541 
L 27.110204 120.54763 
L 29.387755 120.367366 
L 31.665306 120.209783 
L 33.942857 119.935502 
L 36.220408 119.384965 
L 38.497959 118.432481 
L 40.77551 116.987351 
L 43.053061 114.997642 
L 45.330612 112.454237 
L 47.608163 109.388612 
L 49.885714 105.868574 
L 52.163265 101.994634 
L 54.440816 97.896363 
L 56.718367 93.728234 
L 58.995918 89.664798 
L 61.273469 85.89543 
L 63.55102 82.618832 
L 65.828571 80.037497 
L 68.106122 78.352671 
L 70.383673 77.76 
L 72.661224 78.446022 
L 74.938776 80.57814 
L 77.216327 84.237267 
L 79.493878 89.041575 
L 81.771429 94.553153 
L 84.04898 100.362891 
L 86.326531 106.11182 
L 88.604082 111.500441 
L 90.881633 116.293896 
L 93.159184 120.323969 
L 95.436735 123.489271 
L 97.714286 125.753407 
L 99.991837 127.13969 
L 102.269388 127.72028 
L 104.546939 127.603499 
L 106.82449 126.923418 
L 109.102041 125.831131 
L 111.379592 124.486907 
L 113.657143 123.05317 
L 115.934694 121.689077 
L 118.212245 120.548206 
L 120.489796 119.780862 
L 122.767347 119.485221 
L 125.044898 119.551222 
L 127.322449 119.824905 
L 129.6 120.172465 
L 129.6 120.277885 
L 129.6 120.277885 
L 127.322449 119.955549 
L 125.044898 119.701759 
L 122.767347 119.648313 
L 120.489796 119.951521 
L 118.212245 120.731907 
L 115.934694 121.903395 
L 113.657143 123.314323 
L 111.379592 124.801188 
L 109.102041 126.194837 
L 106.82449 127.325935 
L 104.546939 128.031 
L 102.269388 128.16 
L 99.991837 127.585489 
L 97.714286 126.2122 
L 95.436735 123.985021 
L 93.159184 120.893493 
L 90.881633 116.976073 
L 88.604082 112.32721 
L 86.326531 107.104001 
L 84.04898 101.529732 
L 81.771429 95.892895 
L 79.493878 90.541988 
L 77.216327 85.876181 
L 74.938776 82.324259 
L 72.661224 80.260421 
L 70.383673 79.600899 
L 68.106122 80.177778 
L 65.828571 81.805916 
L 63.55102 84.292836 
L 61.273469 87.442137 
L 58.995918 91.057684 
L 56.718367 94.948405 
L 54.440816 98.933349 
L 52.163265 102.846926 
L 49.885714 106.543833 
L 47.608163 109.903255 
L 45.330612 112.832537 
L 43.053061 115.270422 
L 40.77551 117.189208 
L 38.497959 118.594876 
L 36.220408 119.527527 
L 33.942857 120.066045 
L 31.665306 120.329981 
L 29.387755 120.475833 
L 27.110204 120.639591 
L 24.832653 120.779429 
L 22.555102 120.830699 
L 20.277551 120.76132 
L 18 120.568028 
z
" style="fill:#66c2a5;fill-opacity:0.2;"/>
   </g>
   <g id="matplotlib.axis_3">
    <g id="xtick_6">
     <g id="line2d_12">
      <g>
       <use style="fill:#a9a9a9;stroke:#a9a9a9;stroke-width:2;" x="29.387755" xlink:href="#m550ad1228e" y="122.259727"/>
      </g>
     </g>
    </g>
    <g id="xtick_7">
     <g id="line2d_13">
      <g>
       <use style="fill:#a9a9a9;stroke:#a9a9a9;stroke-width:2;" x="52.163265" xlink:href="#m550ad1228e" y="122.259727"/>
      </g>
     </g>
    </g>
    <g id="xtick_8">
     <g id="line2d_14">
      <g>
       <use style="fill:#a9a9a9;stroke:#a9a9a9;stroke-width:2;" x="74.938776" xlink:href="#m550ad1228e" y="122.259727"/>
      </g>
     </g>
    </g>
    <g id="xtick_9">
     <g id="line2d_15">
      <g>
       <use style="fill:#a9a9a9;stroke:#a9a9a9;stroke-width:2;" x="97.714286" xlink:href="#m550ad1228e" y="122.259727"/>
      </g>
     </g>
    </g>
    <g id="xtick_10">
     <g id="line2d_16">
      <g>
       <use style="fill:#a9a9a9;stroke:#a9a9a9;stroke-width:2;" x="120.489796" xlink:href="#m550ad1228e" y="122.259727"/>
      </g>
     </g>
    </g>
   </g>
   <g id="matplotlib.axis_4"/>
   <g id="line2d_17">
    <path clip-path="url(#p2732630189)" d="M 18 120.528357 
L 20.277551 120.731192 
L 22.555102 120.801452 
L 24.832653 120.742985 
L 27.110204 120.59361 
L 29.387755 120.4216 
L 31.665306 120.269882 
L 33.942857 120.000774 
L 36.220408 119.456246 
L 38.497959 118.513678 
L 40.77551 117.088279 
L 43.053061 115.134032 
L 45.330612 112.643387 
L 47.608163 109.645934 
L 49.885714 106.206204 
L 52.163265 102.42078 
L 54.440816 98.414856 
L 56.718367 94.338319 
L 58.995918 90.361241 
L 61.273469 86.668784 
L 63.55102 83.455834 
L 65.828571 80.921706 
L 68.106122 79.265224 
L 70.383673 78.68045 
L 72.661224 79.353221 
L 74.938776 81.4512 
L 77.216327 85.056724 
L 79.493878 89.791782 
L 81.771429 95.223024 
L 84.04898 100.946312 
L 86.326531 106.60791 
L 88.604082 111.913825 
L 90.881633 116.634984 
L 93.159184 120.608731 
L 95.436735 123.737146 
L 97.714286 125.982804 
L 99.991837 127.36259 
L 102.269388 127.94014 
L 104.546939 127.81725 
L 106.82449 127.124676 
L 109.102041 126.012984 
L 111.379592 124.644048 
L 113.657143 123.183747 
L 115.934694 121.796236 
L 118.212245 120.640056 
L 120.489796 119.866192 
L 122.767347 119.566767 
L 125.044898 119.62649 
L 127.322449 119.890227 
L 129.6 120.225175 
" style="fill:none;stroke:#66c2a5;stroke-linecap:square;stroke-width:2;"/>
   </g>
   <g id="patch_8">
    <path d="M 74.938776 128.16 
L 74.938776 77.76 
" style="fill:none;stroke:#a9a9a9;stroke-linecap:square;stroke-linejoin:miter;stroke-width:2;"/>
   </g>
   <g id="patch_9">
    <path d="M 129.6 128.16 
L 129.6 77.76 
" style="fill:none;"/>
   </g>
   <g id="patch_10">
    <path d="M 18 122.259727 
L 129.6 122.259727 
" style="fill:none;stroke:#a9a9a9;stroke-linecap:square;stroke-linejoin:miter;stroke-width:2;"/>
   </g>
   <g id="patch_11">
    <path d="M 18 77.76 
L 129.6 77.76 
" style="fill:none;"/>
   </g>
   <g id="legend_2">
    <g id="line2d_18">
     <path d="M 101.475312 86.928906 
L 115.475312 86.928906 
" style="fill:none;stroke:#66c2a5;stroke-linecap:square;stroke-width:2;"/>
    </g>
    <g id="line2d_19"/>
    <g id="text_3">
     <!--   -->
     <g transform="translate(121.075312 89.378906)scale(0.07 -0.07)">
      <use xlink:href="#DejaVuSans-32"/>
     </g>
    </g>
   </g>
  </g>
 </g>
 <defs>
  <clipPath id="p3f57782ef9">
   <rect height="50.4" width="111.6" x="18" y="17.28"/>
  </clipPath>
  <clipPath id="p2732630189">
   <rect height="50.4" width="111.6" x="18" y="77.76"/>
  </clipPath>
 </defs>
</svg>
