<?xml version="1.0" encoding="utf-8" standalone="no"?>
<!DOCTYPE svg PUBLIC "-//W3C//DTD SVG 1.1//EN"
  "http://www.w3.org/Graphics/SVG/1.1/DTD/svg11.dtd">
<!-- Created with matplotlib (https://matplotlib.org/) -->
<svg height="144pt" version="1.1" viewBox="0 0 144 144" width="144pt" xmlns="http://www.w3.org/2000/svg" xmlns:xlink="http://www.w3.org/1999/xlink">
 <metadata>
  <rdf:RDF xmlns:cc="http://creativecommons.org/ns#" xmlns:dc="http://purl.org/dc/elements/1.1/" xmlns:rdf="http://www.w3.org/1999/02/22-rdf-syntax-ns#">
   <cc:Work>
    <dc:type rdf:resource="http://purl.org/dc/dcmitype/StillImage"/>
    <dc:date>2021-10-14T21:11:47.018826</dc:date>
    <dc:format>image/svg+xml</dc:format>
    <dc:creator>
     <cc:Agent>
      <dc:title>Matplotlib v3.3.2, https://matplotlib.org/</dc:title>
     </cc:Agent>
    </dc:creator>
   </cc:Work>
  </rdf:RDF>
 </metadata>
 <defs>
  <style type="text/css">*{stroke-linecap:butt;stroke-linejoin:round;}</style>
 </defs>
 <g id="figure_1">
  <g id="patch_1">
   <path d="M 0 144 
L 144 144 
L 144 0 
L 0 0 
z
" style="fill:none;"/>
  </g>
  <g id="axes_1">
   <g id="patch_2">
    <path d="M 18 67.68 
L 129.6 67.68 
L 129.6 17.28 
L 18 17.28 
z
" style="fill:none;"/>
   </g>
   <g id="PolyCollection_1">
    <path clip-path="url(#pae17d6e99f)" d="M 18 67.676715 
L 18 67.676715 
L 20.277551 67.676715 
L 22.555102 67.676715 
L 24.832653 67.676715 
L 27.110204 67.676713 
L 29.387755 67.675229 
L 31.665306 67.622458 
L 33.942857 67.423637 
L 36.220408 66.913498 
L 38.497959 66.061397 
L 40.77551 64.616459 
L 43.053061 62.654226 
L 45.330612 60.081149 
L 47.608163 56.939568 
L 49.885714 53.322349 
L 52.163265 49.069958 
L 54.440816 44.652292 
L 56.718367 39.933233 
L 58.995918 35.026825 
L 61.273469 30.653901 
L 63.55102 26.144087 
L 65.828571 22.946781 
L 68.106122 20.3411 
L 70.383673 17.803932 
L 72.661224 17.299305 
L 74.938776 17.28 
L 77.216327 19.060075 
L 79.493878 21.347333 
L 81.771429 24.793092 
L 84.04898 28.186846 
L 86.326531 32.266012 
L 88.604082 36.833275 
L 90.881633 41.021251 
L 93.159184 45.509609 
L 95.436735 49.471045 
L 97.714286 53.357188 
L 99.991837 56.68644 
L 102.269388 59.485626 
L 104.546939 62.034312 
L 106.82449 63.962257 
L 109.102041 65.416006 
L 111.379592 66.480612 
L 113.657143 67.162896 
L 115.934694 67.515554 
L 118.212245 67.647954 
L 120.489796 67.676715 
L 122.767347 67.676715 
L 125.044898 67.676715 
L 127.322449 67.676715 
L 129.6 67.676715 
L 129.6 67.676715 
L 129.6 67.676715 
L 127.322449 67.676715 
L 125.044898 67.676715 
L 122.767347 67.676715 
L 120.489796 67.676715 
L 118.212245 67.68 
L 115.934694 67.604278 
L 113.657143 67.345678 
L 111.379592 66.802336 
L 109.102041 65.817249 
L 106.82449 64.565968 
L 104.546939 62.778547 
L 102.269388 60.366342 
L 99.991837 57.690296 
L 97.714286 54.627769 
L 95.436735 51.160076 
L 93.159184 47.248126 
L 90.881633 43.294751 
L 88.604082 39.015606 
L 86.326531 34.786506 
L 84.04898 30.829842 
L 81.771429 27.454384 
L 79.493878 24.492297 
L 77.216327 21.976166 
L 74.938776 20.643728 
L 72.661224 19.93824 
L 70.383673 21.131095 
L 68.106122 22.49829 
L 65.828571 25.490187 
L 63.55102 29.107828 
L 61.273469 33.16459 
L 58.995918 37.316776 
L 56.718367 41.925324 
L 54.440816 46.697817 
L 52.163265 51.068053 
L 49.885714 54.743018 
L 47.608163 58.26464 
L 45.330612 61.151624 
L 43.053061 63.402009 
L 40.77551 65.176917 
L 38.497959 66.373353 
L 36.220408 67.148612 
L 33.942857 67.535488 
L 31.665306 67.66349 
L 29.387755 67.676986 
L 27.110204 67.676715 
L 24.832653 67.676715 
L 22.555102 67.676715 
L 20.277551 67.676715 
L 18 67.676715 
z
" style="fill:#fc8d62;fill-opacity:0.2;"/>
   </g>
   <g id="PolyCollection_2">
    <path clip-path="url(#pae17d6e99f)" d="M 18 67.676715 
L 18 67.676715 
L 20.277551 67.676715 
L 22.555102 67.676715 
L 24.832653 67.676715 
L 27.110204 67.676711 
L 29.387755 67.675017 
L 31.665306 67.621508 
L 33.942857 67.410283 
L 36.220408 66.891606 
L 38.497959 66.026364 
L 40.77551 64.804502 
L 43.053061 62.966349 
L 45.330612 60.680874 
L 47.608163 57.825469 
L 49.885714 54.253035 
L 52.163265 50.803094 
L 54.440816 46.260462 
L 56.718367 41.550285 
L 58.995918 37.33757 
L 61.273469 32.514333 
L 63.55102 28.20904 
L 65.828571 24.002436 
L 68.106122 20.429266 
L 70.383673 18.39295 
L 72.661224 16.636312 
L 74.938776 16.203566 
L 77.216327 17.084674 
L 79.493878 18.861678 
L 81.771429 22.319141 
L 84.04898 25.456512 
L 86.326531 29.745253 
L 88.604082 34.456357 
L 90.881633 38.630253 
L 93.159184 43.371742 
L 95.436735 47.73775 
L 97.714286 52.013744 
L 99.991837 55.822825 
L 102.269388 58.726471 
L 104.546939 61.628281 
L 106.82449 63.660419 
L 109.102041 65.239426 
L 111.379592 66.465556 
L 113.657143 67.106407 
L 115.934694 67.492526 
L 118.212245 67.642928 
L 120.489796 67.676715 
L 122.767347 67.676715 
L 125.044898 67.676715 
L 127.322449 67.676715 
L 129.6 67.676715 
L 129.6 67.676715 
L 129.6 67.676715 
L 127.322449 67.676715 
L 125.044898 67.676715 
L 122.767347 67.676715 
L 120.489796 67.676715 
L 118.212245 67.68181 
L 115.934694 67.607192 
L 113.657143 67.356086 
L 111.379592 66.79168 
L 109.102041 65.871376 
L 106.82449 64.384514 
L 104.546939 62.615044 
L 102.269388 59.927924 
L 99.991837 56.990333 
L 97.714286 53.673534 
L 95.436735 49.677065 
L 93.159184 45.554625 
L 90.881633 40.773857 
L 88.604082 36.81363 
L 86.326531 32.878522 
L 84.04898 28.741257 
L 81.771429 25.270359 
L 79.493878 22.67689 
L 77.216327 20.873626 
L 74.938776 20.658134 
L 72.661224 20.584496 
L 70.383673 21.990299 
L 68.106122 24.360735 
L 65.828571 27.376682 
L 63.55102 31.191302 
L 61.273469 35.354456 
L 58.995918 39.792017 
L 56.718367 43.768136 
L 54.440816 48.050126 
L 52.163265 52.119709 
L 49.885714 55.926994 
L 47.608163 59.108611 
L 45.330612 61.70167 
L 43.053061 63.764855 
L 40.77551 65.434701 
L 38.497959 66.474278 
L 36.220408 67.170085 
L 33.942857 67.531533 
L 31.665306 67.66762 
L 29.387755 67.677298 
L 27.110204 67.676717 
L 24.832653 67.676715 
L 22.555102 67.676715 
L 20.277551 67.676715 
L 18 67.676715 
z
" style="fill:#fc8d62;fill-opacity:0.2;"/>
   </g>
   <g id="matplotlib.axis_1">
    <g id="xtick_1">
     <g id="line2d_1">
      <defs>
       <path d="M 0 0 
L 0 3.5 
" id="m2af9f2950f" style="stroke:#a9a9a9;stroke-width:2;"/>
      </defs>
      <g>
       <use style="fill:#a9a9a9;stroke:#a9a9a9;stroke-width:2;" x="29.387755" xlink:href="#m2af9f2950f" y="67.676715"/>
      </g>
     </g>
    </g>
    <g id="xtick_2">
     <g id="line2d_2">
      <g>
       <use style="fill:#a9a9a9;stroke:#a9a9a9;stroke-width:2;" x="52.163265" xlink:href="#m2af9f2950f" y="67.676715"/>
      </g>
     </g>
    </g>
    <g id="xtick_3">
     <g id="line2d_3">
      <g>
       <use style="fill:#a9a9a9;stroke:#a9a9a9;stroke-width:2;" x="74.938776" xlink:href="#m2af9f2950f" y="67.676715"/>
      </g>
     </g>
    </g>
    <g id="xtick_4">
     <g id="line2d_4">
      <g>
       <use style="fill:#a9a9a9;stroke:#a9a9a9;stroke-width:2;" x="97.714286" xlink:href="#m2af9f2950f" y="67.676715"/>
      </g>
     </g>
    </g>
    <g id="xtick_5">
     <g id="line2d_5">
      <g>
       <use style="fill:#a9a9a9;stroke:#a9a9a9;stroke-width:2;" x="120.489796" xlink:href="#m2af9f2950f" y="67.676715"/>
      </g>
     </g>
    </g>
   </g>
   <g id="matplotlib.axis_2"/>
   <g id="line2d_6">
    <path clip-path="url(#pae17d6e99f)" d="M 18 67.676715 
L 20.277551 67.676715 
L 22.555102 67.676715 
L 24.832653 67.676715 
L 27.110204 67.676714 
L 29.387755 67.676108 
L 31.665306 67.642974 
L 33.942857 67.479563 
L 36.220408 67.031055 
L 38.497959 66.217375 
L 40.77551 64.896688 
L 43.053061 63.028117 
L 45.330612 60.616386 
L 47.608163 57.602104 
L 49.885714 54.032683 
L 52.163265 50.069005 
L 54.440816 45.675054 
L 56.718367 40.929279 
L 58.995918 36.171801 
L 61.273469 31.909245 
L 63.55102 27.625958 
L 65.828571 24.218484 
L 68.106122 21.419695 
L 70.383673 19.467513 
L 72.661224 18.618773 
L 74.938776 18.961864 
L 77.216327 20.51812 
L 79.493878 22.919815 
L 81.771429 26.123738 
L 84.04898 29.508344 
L 86.326531 33.526259 
L 88.604082 37.92444 
L 90.881633 42.158001 
L 93.159184 46.378868 
L 95.436735 50.315561 
L 97.714286 53.992478 
L 99.991837 57.188368 
L 102.269388 59.925984 
L 104.546939 62.40643 
L 106.82449 64.264113 
L 109.102041 65.616627 
L 111.379592 66.641474 
L 113.657143 67.254287 
L 115.934694 67.559916 
L 118.212245 67.663977 
L 120.489796 67.676715 
L 122.767347 67.676715 
L 125.044898 67.676715 
L 127.322449 67.676715 
L 129.6 67.676715 
" style="fill:none;stroke:#fc8d62;stroke-linecap:square;stroke-width:2;"/>
   </g>
   <g id="line2d_7">
    <path clip-path="url(#pae17d6e99f)" d="M 18 67.676715 
L 20.277551 67.676715 
L 22.555102 67.676715 
L 24.832653 67.676715 
L 27.110204 67.676714 
L 29.387755 67.676158 
L 31.665306 67.644564 
L 33.942857 67.470908 
L 36.220408 67.030846 
L 38.497959 66.250321 
L 40.77551 65.119602 
L 43.053061 63.365602 
L 45.330612 61.191272 
L 47.608163 58.46704 
L 49.885714 55.090015 
L 52.163265 51.461402 
L 54.440816 47.155294 
L 56.718367 42.65921 
L 58.995918 38.564794 
L 61.273469 33.934395 
L 63.55102 29.700171 
L 65.828571 25.689559 
L 68.106122 22.395001 
L 70.383673 20.191624 
L 72.661224 18.610404 
L 74.938776 18.43085 
L 77.216327 18.97915 
L 79.493878 20.769284 
L 81.771429 23.79475 
L 84.04898 27.098884 
L 86.326531 31.311888 
L 88.604082 35.634994 
L 90.881633 39.702055 
L 93.159184 44.463183 
L 95.436735 48.707408 
L 97.714286 52.843639 
L 99.991837 56.406579 
L 102.269388 59.327197 
L 104.546939 62.121662 
L 106.82449 64.022467 
L 109.102041 65.555401 
L 111.379592 66.628618 
L 113.657143 67.231247 
L 115.934694 67.549859 
L 118.212245 67.662369 
L 120.489796 67.676715 
L 122.767347 67.676715 
L 125.044898 67.676715 
L 127.322449 67.676715 
L 129.6 67.676715 
" style="fill:none;stroke:#fc8d62;stroke-dasharray:1.5,1.5;stroke-dashoffset:0;stroke-opacity:0.7;stroke-width:1.5;"/>
   </g>
   <g id="patch_3">
    <path d="M 74.938776 67.68 
L 74.938776 17.28 
" style="fill:none;stroke:#a9a9a9;stroke-linecap:square;stroke-linejoin:miter;stroke-width:2;"/>
   </g>
   <g id="patch_4">
    <path d="M 129.6 67.68 
L 129.6 17.28 
" style="fill:none;"/>
   </g>
   <g id="patch_5">
    <path d="M 18 67.676715 
L 129.6 67.676715 
" style="fill:none;stroke:#a9a9a9;stroke-linecap:square;stroke-linejoin:miter;stroke-width:2;"/>
   </g>
   <g id="patch_6">
    <path d="M 18 17.28 
L 129.6 17.28 
" style="fill:none;"/>
   </g>
   <g id="legend_1">
    <g id="line2d_8">
     <path d="M 101.475312 26.448906 
L 115.475312 26.448906 
" style="fill:none;stroke:#fc8d62;stroke-linecap:square;stroke-width:2;"/>
    </g>
    <g id="line2d_9"/>
    <g id="text_1">
     <!--   -->
     <g transform="translate(121.075312 28.898906)scale(0.07 -0.07)">
      <defs>
       <path id="DejaVuSans-32"/>
      </defs>
      <use xlink:href="#DejaVuSans-32"/>
     </g>
    </g>
    <g id="line2d_10">
     <path d="M 101.475312 36.723594 
L 115.475312 36.723594 
" style="fill:none;stroke:#fc8d62;stroke-dasharray:1.5,1.5;stroke-dashoffset:0;stroke-opacity:0.7;stroke-width:1.5;"/>
    </g>
    <g id="line2d_11"/>
    <g id="text_2">
     <!--   -->
     <g transform="translate(121.075312 39.173594)scale(0.07 -0.07)">
      <use xlink:href="#DejaVuSans-32"/>
     </g>
    </g>
   </g>
  </g>
  <g id="axes_2">
   <g id="patch_7">
    <path d="M 18 128.16 
L 129.6 128.16 
L 129.6 77.76 
L 18 77.76 
z
" style="fill:none;"/>
   </g>
   <g id="PolyCollection_3">
    <path clip-path="url(#p9c9ccd1865)" d="M 18 120.570914 
L 18 120.492376 
L 20.277551 120.705854 
L 22.555102 120.777978 
L 24.832653 120.713128 
L 27.110204 120.554787 
L 29.387755 120.374969 
L 31.665306 120.217637 
L 33.942857 119.943419 
L 36.220408 119.392296 
L 38.497959 118.437884 
L 40.77551 116.989337 
L 43.053061 114.996098 
L 45.330612 112.449878 
L 47.608163 109.382193 
L 49.885714 105.860803 
L 52.163265 101.986172 
L 54.440816 97.887779 
L 56.718367 93.719929 
L 58.995918 89.657137 
L 61.273469 85.888805 
L 63.55102 82.613582 
L 65.828571 80.03389 
L 68.106122 78.350866 
L 70.383673 77.76 
L 72.661224 78.447619 
L 74.938776 80.581367 
L 77.216327 84.240263 
L 79.493878 89.044453 
L 81.771429 94.555853 
L 84.04898 100.365688 
L 86.326531 106.115271 
L 88.604082 111.505366 
L 90.881633 116.301363 
L 93.159184 120.3349 
L 95.436735 123.503425 
L 97.714286 125.768812 
L 99.991837 127.153453 
L 102.269388 127.730029 
L 104.546939 127.608326 
L 106.82449 126.923796 
L 109.102041 125.828405 
L 111.379592 124.482791 
L 113.657143 123.04939 
L 115.934694 121.686956 
L 118.212245 120.547941 
L 120.489796 119.78152 
L 122.767347 119.48589 
L 125.044898 119.552138 
L 127.322449 119.826486 
L 129.6 120.175031 
L 129.6 120.278425 
L 129.6 120.278425 
L 127.322449 119.953304 
L 125.044898 119.696356 
L 122.767347 119.63954 
L 120.489796 119.939605 
L 118.212245 120.718496 
L 115.934694 121.890459 
L 113.657143 123.303005 
L 111.379592 124.791736 
L 109.102041 126.187242 
L 106.82449 127.320253 
L 104.546939 128.027607 
L 102.269388 128.16 
L 99.991837 127.591136 
L 97.714286 126.226906 
L 95.436735 124.012352 
L 93.159184 120.935698 
L 90.881633 117.03325 
L 88.604082 112.397874 
L 86.326531 107.186125 
L 84.04898 101.621171 
L 81.771429 95.991454 
L 79.493878 90.645479 
L 77.216327 85.982509 
L 74.938776 82.43195 
L 72.661224 80.366988 
L 70.383673 79.70505 
L 68.106122 80.277804 
L 65.828571 81.900279 
L 63.55102 84.380256 
L 61.273469 87.521655 
L 58.995918 91.128698 
L 56.718367 95.010667 
L 54.440816 98.987007 
L 52.163265 102.892405 
L 49.885714 106.581629 
L 47.608163 109.933931 
L 45.330612 112.856686 
L 43.053061 115.288576 
L 40.77551 117.201841 
L 38.497959 118.603117 
L 36.220408 119.533649 
L 33.942857 120.07188 
L 31.665306 120.336338 
L 29.387755 120.482717 
L 27.110204 120.646722 
L 24.832653 120.786275 
L 22.555102 120.836775 
L 20.277551 120.766068 
L 18 120.570914 
z
" style="fill:#66c2a5;fill-opacity:0.2;"/>
   </g>
   <g id="matplotlib.axis_3">
    <g id="xtick_6">
     <g id="line2d_12">
      <g>
       <use style="fill:#a9a9a9;stroke:#a9a9a9;stroke-width:2;" x="29.387755" xlink:href="#m2af9f2950f" y="122.259701"/>
      </g>
     </g>
    </g>
    <g id="xtick_7">
     <g id="line2d_13">
      <g>
       <use style="fill:#a9a9a9;stroke:#a9a9a9;stroke-width:2;" x="52.163265" xlink:href="#m2af9f2950f" y="122.259701"/>
      </g>
     </g>
    </g>
    <g id="xtick_8">
     <g id="line2d_14">
      <g>
       <use style="fill:#a9a9a9;stroke:#a9a9a9;stroke-width:2;" x="74.938776" xlink:href="#m2af9f2950f" y="122.259701"/>
      </g>
     </g>
    </g>
    <g id="xtick_9">
     <g id="line2d_15">
      <g>
       <use style="fill:#a9a9a9;stroke:#a9a9a9;stroke-width:2;" x="97.714286" xlink:href="#m2af9f2950f" y="122.259701"/>
      </g>
     </g>
    </g>
    <g id="xtick_10">
     <g id="line2d_16">
      <g>
       <use style="fill:#a9a9a9;stroke:#a9a9a9;stroke-width:2;" x="120.489796" xlink:href="#m2af9f2950f" y="122.259701"/>
      </g>
     </g>
    </g>
   </g>
   <g id="matplotlib.axis_4"/>
   <g id="line2d_17">
    <path clip-path="url(#p9c9ccd1865)" d="M 18 120.531645 
L 20.277551 120.735961 
L 22.555102 120.807377 
L 24.832653 120.749701 
L 27.110204 120.600755 
L 29.387755 120.428843 
L 31.665306 120.276987 
L 33.942857 120.00765 
L 36.220408 119.462972 
L 38.497959 118.520501 
L 40.77551 117.095589 
L 43.053061 115.142337 
L 45.330612 112.653282 
L 47.608163 109.658062 
L 49.885714 106.221216 
L 52.163265 102.439289 
L 54.440816 98.437393 
L 56.718367 94.365298 
L 58.995918 90.392918 
L 61.273469 86.70523 
L 63.55102 83.496919 
L 65.828571 80.967084 
L 68.106122 79.314335 
L 70.383673 78.732525 
L 72.661224 79.407304 
L 74.938776 81.506658 
L 77.216327 85.111386 
L 79.493878 89.844966 
L 81.771429 95.273654 
L 84.04898 100.99343 
L 86.326531 106.650698 
L 88.604082 111.95162 
L 90.881633 116.667307 
L 93.159184 120.635299 
L 95.436735 123.757889 
L 97.714286 125.997859 
L 99.991837 127.372295 
L 102.269388 127.945014 
L 104.546939 127.817967 
L 106.82449 127.122025 
L 109.102041 126.007824 
L 111.379592 124.637264 
L 113.657143 123.176197 
L 115.934694 121.788707 
L 118.212245 120.633218 
L 120.489796 119.860562 
L 122.767347 119.562715 
L 125.044898 119.624247 
L 127.322449 119.889895 
L 129.6 120.226728 
" style="fill:none;stroke:#66c2a5;stroke-linecap:square;stroke-width:2;"/>
   </g>
   <g id="patch_8">
    <path d="M 74.938776 128.16 
L 74.938776 77.76 
" style="fill:none;stroke:#a9a9a9;stroke-linecap:square;stroke-linejoin:miter;stroke-width:2;"/>
   </g>
   <g id="patch_9">
    <path d="M 129.6 128.16 
L 129.6 77.76 
" style="fill:none;"/>
   </g>
   <g id="patch_10">
    <path d="M 18 122.259701 
L 129.6 122.259701 
" style="fill:none;stroke:#a9a9a9;stroke-linecap:square;stroke-linejoin:miter;stroke-width:2;"/>
   </g>
   <g id="patch_11">
    <path d="M 18 77.76 
L 129.6 77.76 
" style="fill:none;"/>
   </g>
   <g id="legend_2">
    <g id="line2d_18">
     <path d="M 101.475312 86.928906 
L 115.475312 86.928906 
" style="fill:none;stroke:#66c2a5;stroke-linecap:square;stroke-width:2;"/>
    </g>
    <g id="line2d_19"/>
    <g id="text_3">
     <!--   -->
     <g transform="translate(121.075312 89.378906)scale(0.07 -0.07)">
      <use xlink:href="#DejaVuSans-32"/>
     </g>
    </g>
   </g>
  </g>
 </g>
 <defs>
  <clipPath id="pae17d6e99f">
   <rect height="50.4" width="111.6" x="18" y="17.28"/>
  </clipPath>
  <clipPath id="p9c9ccd1865">
   <rect height="50.4" width="111.6" x="18" y="77.76"/>
  </clipPath>
 </defs>
</svg>
