<?xml version="1.0" encoding="utf-8" standalone="no"?>
<!DOCTYPE svg PUBLIC "-//W3C//DTD SVG 1.1//EN"
  "http://www.w3.org/Graphics/SVG/1.1/DTD/svg11.dtd">
<!-- Created with matplotlib (https://matplotlib.org/) -->
<svg height="144pt" version="1.1" viewBox="0 0 144 144" width="144pt" xmlns="http://www.w3.org/2000/svg" xmlns:xlink="http://www.w3.org/1999/xlink">
 <metadata>
  <rdf:RDF xmlns:cc="http://creativecommons.org/ns#" xmlns:dc="http://purl.org/dc/elements/1.1/" xmlns:rdf="http://www.w3.org/1999/02/22-rdf-syntax-ns#">
   <cc:Work>
    <dc:type rdf:resource="http://purl.org/dc/dcmitype/StillImage"/>
    <dc:date>2021-10-13T14:55:33.268800</dc:date>
    <dc:format>image/svg+xml</dc:format>
    <dc:creator>
     <cc:Agent>
      <dc:title>Matplotlib v3.3.2, https://matplotlib.org/</dc:title>
     </cc:Agent>
    </dc:creator>
   </cc:Work>
  </rdf:RDF>
 </metadata>
 <defs>
  <style type="text/css">*{stroke-linecap:butt;stroke-linejoin:round;}</style>
 </defs>
 <g id="figure_1">
  <g id="patch_1">
   <path d="M 0 144 
L 144 144 
L 144 0 
L 0 0 
z
" style="fill:none;"/>
  </g>
  <g id="axes_1">
   <g id="patch_2">
    <path d="M 18 67.68 
L 129.6 67.68 
L 129.6 17.28 
L 18 17.28 
z
" style="fill:none;"/>
   </g>
   <g id="PolyCollection_1">
    <path clip-path="url(#pb55361a9a1)" d="M 18 67.679935 
L 18 67.679935 
L 20.277551 67.679935 
L 22.555102 67.679935 
L 24.832653 67.679935 
L 27.110204 67.679935 
L 29.387755 67.679713 
L 31.665306 67.624285 
L 33.942857 67.359942 
L 36.220408 66.747476 
L 38.497959 65.646398 
L 40.77551 63.971368 
L 43.053061 61.717007 
L 45.330612 58.791747 
L 47.608163 55.316939 
L 49.885714 51.308043 
L 52.163265 46.963118 
L 54.440816 42.360359 
L 56.718367 37.586009 
L 58.995918 33.017519 
L 61.273469 28.681789 
L 63.55102 24.623582 
L 65.828571 21.402018 
L 68.106122 19.14524 
L 70.383673 17.555568 
L 72.661224 17.28 
L 74.938776 24.361752 
L 77.216327 20.282514 
L 79.493878 23.344343 
L 81.771429 26.956029 
L 84.04898 31.07445 
L 86.326531 35.281282 
L 88.604082 39.4505 
L 90.881633 43.493384 
L 93.159184 47.558729 
L 95.436735 51.140211 
L 97.714286 54.380307 
L 99.991837 57.341386 
L 102.269388 59.901907 
L 104.546939 62.065425 
L 106.82449 63.85126 
L 109.102041 65.319273 
L 111.379592 66.353778 
L 113.657143 67.061363 
L 115.934694 67.481438 
L 118.212245 67.6535 
L 120.489796 67.679922 
L 122.767347 67.679935 
L 125.044898 67.679935 
L 127.322449 67.679935 
L 129.6 67.679935 
L 129.6 67.679935 
L 129.6 67.679935 
L 127.322449 67.679935 
L 125.044898 67.679935 
L 122.767347 67.679935 
L 120.489796 67.679969 
L 118.212245 67.670974 
L 115.934694 67.53037 
L 113.657143 67.156774 
L 111.379592 66.49298 
L 109.102041 65.48661 
L 106.82449 64.10439 
L 104.546939 62.452545 
L 102.269388 60.266618 
L 99.991837 57.82834 
L 97.714286 54.946522 
L 95.436735 51.664979 
L 93.159184 48.15085 
L 90.881633 44.436061 
L 88.604082 40.264625 
L 86.326531 36.312664 
L 84.04898 32.040431 
L 81.771429 28.006785 
L 79.493878 24.464859 
L 77.216327 21.569595 
L 74.938776 25.636455 
L 72.661224 18.558477 
L 70.383673 18.87045 
L 68.106122 20.313793 
L 65.828571 22.580702 
L 63.55102 25.80082 
L 61.273469 29.699286 
L 58.995918 33.940117 
L 56.718367 38.558022 
L 54.440816 43.113717 
L 52.163265 47.591058 
L 49.885714 51.905642 
L 47.608163 55.870762 
L 45.330612 59.179576 
L 43.053061 62.037536 
L 40.77551 64.213894 
L 38.497959 65.831279 
L 36.220408 66.849911 
L 33.942857 67.425037 
L 31.665306 67.644143 
L 29.387755 67.68 
L 27.110204 67.679935 
L 24.832653 67.679935 
L 22.555102 67.679935 
L 20.277551 67.679935 
L 18 67.679935 
z
" style="fill:#fc8d62;fill-opacity:0.2;"/>
   </g>
   <g id="PolyCollection_2">
    <path clip-path="url(#pb55361a9a1)" d="M 18 67.679935 
L 18 67.679935 
L 20.277551 67.679935 
L 22.555102 67.679935 
L 24.832653 67.679935 
L 27.110204 67.679935 
L 29.387755 67.679821 
L 31.665306 67.625826 
L 33.942857 67.354448 
L 36.220408 66.752992 
L 38.497959 65.688905 
L 40.77551 64.06073 
L 43.053061 61.931387 
L 45.330612 59.187475 
L 47.608163 55.933898 
L 49.885714 52.087061 
L 52.163265 47.899237 
L 54.440816 43.4468 
L 56.718367 38.699671 
L 58.995918 33.867161 
L 61.273469 29.15139 
L 63.55102 24.645485 
L 65.828571 20.517159 
L 68.106122 16.956608 
L 70.383673 14.306845 
L 72.661224 12.667662 
L 74.938776 17.543265 
L 77.216327 12.924746 
L 79.493878 14.816855 
L 81.771429 17.831734 
L 84.04898 21.337353 
L 86.326531 25.644717 
L 88.604082 30.12268 
L 90.881633 34.957887 
L 93.159184 39.780938 
L 95.436735 44.456242 
L 97.714286 48.921733 
L 99.991837 52.981869 
L 102.269388 56.642347 
L 104.546939 59.824481 
L 106.82449 62.39685 
L 109.102041 64.464756 
L 111.379592 65.943154 
L 113.657143 66.894674 
L 115.934694 67.448411 
L 118.212245 67.646997 
L 120.489796 67.679933 
L 122.767347 67.679935 
L 125.044898 67.679935 
L 127.322449 67.679935 
L 129.6 67.679935 
L 129.6 67.679935 
L 129.6 67.679935 
L 127.322449 67.679935 
L 125.044898 67.679935 
L 122.767347 67.679935 
L 120.489796 67.679949 
L 118.212245 67.667869 
L 115.934694 67.508379 
L 113.657143 67.021158 
L 111.379592 66.12314 
L 109.102041 64.755266 
L 106.82449 62.787619 
L 104.546939 60.245973 
L 102.269388 57.233098 
L 99.991837 53.677224 
L 97.714286 49.631229 
L 95.436735 45.182915 
L 93.159184 40.603588 
L 90.881633 35.928735 
L 88.604082 31.166762 
L 86.326531 26.663368 
L 84.04898 22.53253 
L 81.771429 18.91175 
L 79.493878 16.08236 
L 77.216327 14.044534 
L 74.938776 18.865078 
L 72.661224 13.736455 
L 70.383673 15.520629 
L 68.106122 18.183354 
L 65.828571 21.65923 
L 63.55102 25.729686 
L 61.273469 30.199748 
L 58.995918 34.893812 
L 56.718367 39.548965 
L 54.440816 44.22376 
L 52.163265 48.638545 
L 49.885714 52.802258 
L 47.608163 56.440159 
L 45.330612 59.652198 
L 43.053061 62.31061 
L 40.77551 64.368263 
L 38.497959 65.901525 
L 36.220408 66.873131 
L 33.942857 67.418596 
L 31.665306 67.647591 
L 29.387755 67.679938 
L 27.110204 67.679935 
L 24.832653 67.679935 
L 22.555102 67.679935 
L 20.277551 67.679935 
L 18 67.679935 
z
" style="fill:#fc8d62;fill-opacity:0.2;"/>
   </g>
   <g id="matplotlib.axis_1">
    <g id="xtick_1">
     <g id="line2d_1">
      <defs>
       <path d="M 0 0 
L 0 3.5 
" id="m131dac25ad" style="stroke:#a9a9a9;stroke-width:2;"/>
      </defs>
      <g>
       <use style="fill:#a9a9a9;stroke:#a9a9a9;stroke-width:2;" x="29.387755" xlink:href="#m131dac25ad" y="67.679935"/>
      </g>
     </g>
    </g>
    <g id="xtick_2">
     <g id="line2d_2">
      <g>
       <use style="fill:#a9a9a9;stroke:#a9a9a9;stroke-width:2;" x="52.163265" xlink:href="#m131dac25ad" y="67.679935"/>
      </g>
     </g>
    </g>
    <g id="xtick_3">
     <g id="line2d_3">
      <g>
       <use style="fill:#a9a9a9;stroke:#a9a9a9;stroke-width:2;" x="74.938776" xlink:href="#m131dac25ad" y="67.679935"/>
      </g>
     </g>
    </g>
    <g id="xtick_4">
     <g id="line2d_4">
      <g>
       <use style="fill:#a9a9a9;stroke:#a9a9a9;stroke-width:2;" x="97.714286" xlink:href="#m131dac25ad" y="67.679935"/>
      </g>
     </g>
    </g>
    <g id="xtick_5">
     <g id="line2d_5">
      <g>
       <use style="fill:#a9a9a9;stroke:#a9a9a9;stroke-width:2;" x="120.489796" xlink:href="#m131dac25ad" y="67.679935"/>
      </g>
     </g>
    </g>
   </g>
   <g id="matplotlib.axis_2"/>
   <g id="line2d_6">
    <path clip-path="url(#pb55361a9a1)" d="M 18 67.679935 
L 20.277551 67.679935 
L 22.555102 67.679935 
L 24.832653 67.679935 
L 27.110204 67.679935 
L 29.387755 67.679857 
L 31.665306 67.634214 
L 33.942857 67.39249 
L 36.220408 66.798694 
L 38.497959 65.738839 
L 40.77551 64.092631 
L 43.053061 61.877271 
L 45.330612 58.985662 
L 47.608163 55.59385 
L 49.885714 51.606842 
L 52.163265 47.277088 
L 54.440816 42.737038 
L 56.718367 38.072015 
L 58.995918 33.478818 
L 61.273469 29.190537 
L 63.55102 25.212201 
L 65.828571 21.99136 
L 68.106122 19.729517 
L 70.383673 18.213009 
L 72.661224 17.919238 
L 74.938776 24.999103 
L 77.216327 20.926055 
L 79.493878 23.904601 
L 81.771429 27.481407 
L 84.04898 31.557441 
L 86.326531 35.796973 
L 88.604082 39.857563 
L 90.881633 43.964722 
L 93.159184 47.85479 
L 95.436735 51.402595 
L 97.714286 54.663414 
L 99.991837 57.584863 
L 102.269388 60.084262 
L 104.546939 62.258985 
L 106.82449 63.977825 
L 109.102041 65.402942 
L 111.379592 66.423379 
L 113.657143 67.109068 
L 115.934694 67.505904 
L 118.212245 67.662237 
L 120.489796 67.679945 
L 122.767347 67.679935 
L 125.044898 67.679935 
L 127.322449 67.679935 
L 129.6 67.679935 
" style="fill:none;stroke:#fc8d62;stroke-linecap:square;stroke-width:2;"/>
   </g>
   <g id="line2d_7">
    <path clip-path="url(#pb55361a9a1)" d="M 18 67.679935 
L 20.277551 67.679935 
L 22.555102 67.679935 
L 24.832653 67.679935 
L 27.110204 67.679935 
L 29.387755 67.679879 
L 31.665306 67.636709 
L 33.942857 67.386522 
L 36.220408 66.813062 
L 38.497959 65.795215 
L 40.77551 64.214497 
L 43.053061 62.120998 
L 45.330612 59.419836 
L 47.608163 56.187029 
L 49.885714 52.444659 
L 52.163265 48.268891 
L 54.440816 43.83528 
L 56.718367 39.124318 
L 58.995918 34.380487 
L 61.273469 29.675569 
L 63.55102 25.187586 
L 65.828571 21.088195 
L 68.106122 17.569981 
L 70.383673 14.913737 
L 72.661224 13.202058 
L 74.938776 18.204171 
L 77.216327 13.48464 
L 79.493878 15.449608 
L 81.771429 18.371742 
L 84.04898 21.934942 
L 86.326531 26.154042 
L 88.604082 30.644721 
L 90.881633 35.443311 
L 93.159184 40.192263 
L 95.436735 44.819579 
L 97.714286 49.276481 
L 99.991837 53.329546 
L 102.269388 56.937723 
L 104.546939 60.035227 
L 106.82449 62.592235 
L 109.102041 64.610011 
L 111.379592 66.033147 
L 113.657143 66.957916 
L 115.934694 67.478395 
L 118.212245 67.657433 
L 120.489796 67.679941 
L 122.767347 67.679935 
L 125.044898 67.679935 
L 127.322449 67.679935 
L 129.6 67.679935 
" style="fill:none;stroke:#fc8d62;stroke-dasharray:1.5,1.5;stroke-dashoffset:0;stroke-opacity:0.7;stroke-width:1.5;"/>
   </g>
   <g id="patch_3">
    <path d="M 74.938776 67.68 
L 74.938776 17.28 
" style="fill:none;stroke:#a9a9a9;stroke-linecap:square;stroke-linejoin:miter;stroke-width:2;"/>
   </g>
   <g id="patch_4">
    <path d="M 129.6 67.68 
L 129.6 17.28 
" style="fill:none;"/>
   </g>
   <g id="patch_5">
    <path d="M 18 67.679935 
L 129.6 67.679935 
" style="fill:none;stroke:#a9a9a9;stroke-linecap:square;stroke-linejoin:miter;stroke-width:2;"/>
   </g>
   <g id="patch_6">
    <path d="M 18 17.28 
L 129.6 17.28 
" style="fill:none;"/>
   </g>
   <g id="legend_1">
    <g id="line2d_8">
     <path d="M 55.985 47.199531 
L 69.985 47.199531 
" style="fill:none;stroke:#fc8d62;stroke-linecap:square;stroke-width:2;"/>
    </g>
    <g id="line2d_9"/>
    <g id="text_1">
     <!-- $\theta$ -->
     <g transform="translate(75.585 49.649531)scale(0.07 -0.07)">
      <defs>
       <path d="M 45.515625 34.671875 
L 14.453125 34.671875 
Q 12.359375 20.0625 14.5 13.875 
Q 17.1875 6.25 24.46875 6.25 
Q 31.78125 6.25 37.359375 13.921875 
Q 42.234375 20.65625 45.515625 34.671875 
z
M 47.015625 42.96875 
Q 48.34375 56.84375 46.625 61.71875 
Q 43.953125 69.4375 36.765625 69.4375 
Q 29.296875 69.4375 23.828125 61.8125 
Q 19.53125 55.671875 16.15625 42.96875 
z
M 38.1875 76.765625 
Q 49.90625 76.765625 54.59375 66.40625 
Q 59.28125 56.109375 55.71875 37.84375 
Q 52.203125 19.625 43.453125 9.28125 
Q 34.765625 -1.125 23.046875 -1.125 
Q 11.28125 -1.125 6.640625 9.28125 
Q 2 19.625 5.515625 37.84375 
Q 9.078125 56.109375 17.71875 66.40625 
Q 26.421875 76.765625 38.1875 76.765625 
z
" id="DejaVuSans-Oblique-952"/>
      </defs>
      <use transform="translate(0 0.234375)" xlink:href="#DejaVuSans-Oblique-952"/>
     </g>
    </g>
    <g id="line2d_10">
     <path d="M 55.985 57.474219 
L 69.985 57.474219 
" style="fill:none;stroke:#fc8d62;stroke-dasharray:1.5,1.5;stroke-dashoffset:0;stroke-opacity:0.7;stroke-width:1.5;"/>
    </g>
    <g id="line2d_11"/>
    <g id="text_2">
     <!-- No $\theta$ -->
     <g transform="translate(75.585 59.924219)scale(0.07 -0.07)">
      <defs>
       <path d="M 9.8125 72.90625 
L 23.09375 72.90625 
L 55.421875 11.921875 
L 55.421875 72.90625 
L 64.984375 72.90625 
L 64.984375 0 
L 51.703125 0 
L 19.390625 60.984375 
L 19.390625 0 
L 9.8125 0 
z
" id="DejaVuSans-78"/>
       <path d="M 30.609375 48.390625 
Q 23.390625 48.390625 19.1875 42.75 
Q 14.984375 37.109375 14.984375 27.296875 
Q 14.984375 17.484375 19.15625 11.84375 
Q 23.34375 6.203125 30.609375 6.203125 
Q 37.796875 6.203125 41.984375 11.859375 
Q 46.1875 17.53125 46.1875 27.296875 
Q 46.1875 37.015625 41.984375 42.703125 
Q 37.796875 48.390625 30.609375 48.390625 
z
M 30.609375 56 
Q 42.328125 56 49.015625 48.375 
Q 55.71875 40.765625 55.71875 27.296875 
Q 55.71875 13.875 49.015625 6.21875 
Q 42.328125 -1.421875 30.609375 -1.421875 
Q 18.84375 -1.421875 12.171875 6.21875 
Q 5.515625 13.875 5.515625 27.296875 
Q 5.515625 40.765625 12.171875 48.375 
Q 18.84375 56 30.609375 56 
z
" id="DejaVuSans-111"/>
       <path id="DejaVuSans-32"/>
      </defs>
      <use transform="translate(0 0.234375)" xlink:href="#DejaVuSans-78"/>
      <use transform="translate(74.804688 0.234375)" xlink:href="#DejaVuSans-111"/>
      <use transform="translate(135.986328 0.234375)" xlink:href="#DejaVuSans-32"/>
      <use transform="translate(167.773438 0.234375)" xlink:href="#DejaVuSans-Oblique-952"/>
     </g>
    </g>
   </g>
  </g>
  <g id="axes_2">
   <g id="patch_7">
    <path d="M 18 128.16 
L 129.6 128.16 
L 129.6 77.76 
L 18 77.76 
z
" style="fill:none;"/>
   </g>
   <g id="PolyCollection_3">
    <path clip-path="url(#p5c7d3a5fda)" d="M 18 120.482583 
L 18 120.40767 
L 20.277551 120.626574 
L 22.555102 120.687213 
L 24.832653 120.599149 
L 27.110204 120.4122 
L 29.387755 120.205778 
L 31.665306 120.030333 
L 33.942857 119.744654 
L 36.220408 119.18613 
L 38.497959 118.226983 
L 40.77551 116.775736 
L 43.053061 114.781239 
L 45.330612 112.235217 
L 47.608163 109.169926 
L 49.885714 105.653671 
L 52.163265 101.787385 
L 54.440816 97.700683 
L 56.718367 93.547965 
L 58.995918 89.503651 
L 61.273469 85.757084 
L 63.55102 82.507073 
L 65.828571 79.95667 
L 68.106122 78.308366 
L 70.383673 77.76 
L 72.661224 78.501558 
L 74.938776 80.702534 
L 77.216327 84.454091 
L 79.493878 89.351935 
L 81.771429 94.945733 
L 84.04898 100.815371 
L 86.326531 106.595313 
L 88.604082 111.983676 
L 90.881633 116.74707 
L 93.159184 120.721379 
L 95.436735 123.810695 
L 97.714286 125.984397 
L 99.991837 127.271394 
L 102.269388 127.750177 
L 104.546939 127.535596 
L 106.82449 126.767808 
L 109.102041 125.602539 
L 111.379592 124.203254 
L 113.657143 122.734193 
L 115.934694 121.355329 
L 118.212245 120.22062 
L 120.489796 119.480843 
L 122.767347 119.231792 
L 125.044898 119.352615 
L 127.322449 119.678241 
L 129.6 120.066688 
L 129.6 120.167548 
L 129.6 120.167548 
L 127.322449 119.804741 
L 125.044898 119.499525 
L 122.767347 119.391431 
L 120.489796 119.647202 
L 118.212245 120.397201 
L 115.934694 121.557817 
L 113.657143 122.978247 
L 111.379592 124.495455 
L 109.102041 125.939911 
L 106.82449 127.140852 
L 104.546939 127.932192 
L 102.269388 128.16 
L 99.991837 127.691806 
L 97.714286 126.425655 
L 95.436735 124.298237 
L 93.159184 121.289888 
L 90.881633 117.431033 
L 88.604082 112.810299 
L 86.326531 107.581737 
L 84.04898 101.968716 
L 81.771429 96.263178 
L 79.493878 90.821171 
L 77.216327 86.053743 
L 74.938776 82.402785 
L 72.661224 80.265744 
L 70.383673 79.548277 
L 68.106122 80.080322 
L 65.828571 81.673206 
L 63.55102 84.132126 
L 61.273469 87.259229 
L 58.995918 90.85751 
L 56.718367 94.735346 
L 54.440816 98.711478 
L 52.163265 102.619988 
L 49.885714 106.315148 
L 47.608163 109.675523 
L 45.330612 112.607837 
L 43.053061 115.050016 
L 40.77551 116.973831 
L 38.497959 118.385209 
L 36.220408 119.325075 
L 33.942857 119.873043 
L 31.665306 120.150046 
L 29.387755 120.315331 
L 27.110204 120.506018 
L 24.832653 120.673712 
L 22.555102 120.745644 
L 20.277551 120.683879 
L 18 120.482583 
z
" style="fill:#66c2a5;fill-opacity:0.2;"/>
   </g>
   <g id="matplotlib.axis_3">
    <g id="xtick_6">
     <g id="line2d_12">
      <g>
       <use style="fill:#a9a9a9;stroke:#a9a9a9;stroke-width:2;" x="29.387755" xlink:href="#m131dac25ad" y="122.143063"/>
      </g>
     </g>
    </g>
    <g id="xtick_7">
     <g id="line2d_13">
      <g>
       <use style="fill:#a9a9a9;stroke:#a9a9a9;stroke-width:2;" x="52.163265" xlink:href="#m131dac25ad" y="122.143063"/>
      </g>
     </g>
    </g>
    <g id="xtick_8">
     <g id="line2d_14">
      <g>
       <use style="fill:#a9a9a9;stroke:#a9a9a9;stroke-width:2;" x="74.938776" xlink:href="#m131dac25ad" y="122.143063"/>
      </g>
     </g>
    </g>
    <g id="xtick_9">
     <g id="line2d_15">
      <g>
       <use style="fill:#a9a9a9;stroke:#a9a9a9;stroke-width:2;" x="97.714286" xlink:href="#m131dac25ad" y="122.143063"/>
      </g>
     </g>
    </g>
    <g id="xtick_10">
     <g id="line2d_16">
      <g>
       <use style="fill:#a9a9a9;stroke:#a9a9a9;stroke-width:2;" x="120.489796" xlink:href="#m131dac25ad" y="122.143063"/>
      </g>
     </g>
    </g>
   </g>
   <g id="matplotlib.axis_4"/>
   <g id="line2d_17">
    <path clip-path="url(#p5c7d3a5fda)" d="M 18 120.445127 
L 20.277551 120.655227 
L 22.555102 120.716428 
L 24.832653 120.636431 
L 27.110204 120.459109 
L 29.387755 120.260555 
L 31.665306 120.090189 
L 33.942857 119.808848 
L 36.220408 119.255603 
L 38.497959 118.306096 
L 40.77551 116.874783 
L 43.053061 114.915627 
L 45.330612 112.421527 
L 47.608163 109.422725 
L 49.885714 105.98441 
L 52.163265 102.203687 
L 54.440816 98.206081 
L 56.718367 94.141656 
L 58.995918 90.180581 
L 61.273469 86.508157 
L 63.55102 83.319599 
L 65.828571 80.814938 
L 68.106122 79.194344 
L 70.383673 78.654138 
L 72.661224 79.383651 
L 74.938776 81.552659 
L 77.216327 85.253917 
L 79.493878 90.086553 
L 81.771429 95.604455 
L 84.04898 101.392044 
L 86.326531 107.088525 
L 88.604082 112.396987 
L 90.881633 117.089051 
L 93.159184 121.005634 
L 95.436735 124.054466 
L 97.714286 126.205026 
L 99.991837 127.4816 
L 102.269388 127.955089 
L 104.546939 127.733894 
L 106.82449 126.95433 
L 109.102041 125.771225 
L 111.379592 124.349354 
L 113.657143 122.85622 
L 115.934694 121.456573 
L 118.212245 120.30891 
L 120.489796 119.564022 
L 122.767347 119.311612 
L 125.044898 119.42607 
L 127.322449 119.741491 
L 129.6 120.117118 
" style="fill:none;stroke:#66c2a5;stroke-linecap:square;stroke-width:2;"/>
   </g>
   <g id="patch_8">
    <path d="M 74.938776 128.16 
L 74.938776 77.76 
" style="fill:none;stroke:#a9a9a9;stroke-linecap:square;stroke-linejoin:miter;stroke-width:2;"/>
   </g>
   <g id="patch_9">
    <path d="M 129.6 128.16 
L 129.6 77.76 
" style="fill:none;"/>
   </g>
   <g id="patch_10">
    <path d="M 18 122.143063 
L 129.6 122.143063 
" style="fill:none;stroke:#a9a9a9;stroke-linecap:square;stroke-linejoin:miter;stroke-width:2;"/>
   </g>
   <g id="patch_11">
    <path d="M 18 77.76 
L 129.6 77.76 
" style="fill:none;"/>
   </g>
  </g>
 </g>
 <defs>
  <clipPath id="pb55361a9a1">
   <rect height="50.4" width="111.6" x="18" y="17.28"/>
  </clipPath>
  <clipPath id="p5c7d3a5fda">
   <rect height="50.4" width="111.6" x="18" y="77.76"/>
  </clipPath>
 </defs>
</svg>
