<?xml version="1.0" encoding="utf-8" standalone="no"?>
<!DOCTYPE svg PUBLIC "-//W3C//DTD SVG 1.1//EN"
  "http://www.w3.org/Graphics/SVG/1.1/DTD/svg11.dtd">
<!-- Created with matplotlib (https://matplotlib.org/) -->
<svg height="144pt" version="1.1" viewBox="0 0 144 144" width="144pt" xmlns="http://www.w3.org/2000/svg" xmlns:xlink="http://www.w3.org/1999/xlink">
 <metadata>
  <rdf:RDF xmlns:cc="http://creativecommons.org/ns#" xmlns:dc="http://purl.org/dc/elements/1.1/" xmlns:rdf="http://www.w3.org/1999/02/22-rdf-syntax-ns#">
   <cc:Work>
    <dc:type rdf:resource="http://purl.org/dc/dcmitype/StillImage"/>
    <dc:date>2021-10-14T22:06:33.417665</dc:date>
    <dc:format>image/svg+xml</dc:format>
    <dc:creator>
     <cc:Agent>
      <dc:title>Matplotlib v3.3.2, https://matplotlib.org/</dc:title>
     </cc:Agent>
    </dc:creator>
   </cc:Work>
  </rdf:RDF>
 </metadata>
 <defs>
  <style type="text/css">*{stroke-linecap:butt;stroke-linejoin:round;}</style>
 </defs>
 <g id="figure_1">
  <g id="patch_1">
   <path d="M 0 144 
L 144 144 
L 144 0 
L 0 0 
z
" style="fill:none;"/>
  </g>
  <g id="axes_1">
   <g id="patch_2">
    <path d="M 18 67.68 
L 129.6 67.68 
L 129.6 17.28 
L 18 17.28 
z
" style="fill:none;"/>
   </g>
   <g id="PolyCollection_1">
    <path clip-path="url(#paaf70b7458)" d="M 18 64.598804 
L 18 64.598804 
L 20.277551 64.598804 
L 22.555102 64.598804 
L 24.832653 64.598804 
L 27.110204 64.598804 
L 29.387755 64.598798 
L 31.665306 64.525001 
L 33.942857 64.271735 
L 36.220408 63.863509 
L 38.497959 62.928925 
L 40.77551 61.43875 
L 43.053061 59.322479 
L 45.330612 56.480489 
L 47.608163 53.196275 
L 49.885714 49.229587 
L 52.163265 43.567874 
L 54.440816 38.012554 
L 56.718367 33.423343 
L 58.995918 27.850774 
L 61.273469 24.2201 
L 63.55102 19.623744 
L 65.828571 17.28 
L 68.106122 17.432108 
L 70.383673 19.419456 
L 72.661224 22.151476 
L 74.938776 30.049192 
L 77.216327 31.747483 
L 79.493878 38.312534 
L 81.771429 44.595468 
L 84.04898 50.461776 
L 86.326531 54.40184 
L 88.604082 58.812849 
L 90.881633 61.024055 
L 93.159184 62.260211 
L 95.436735 64.492697 
L 97.714286 64.15585 
L 99.991837 64.287703 
L 102.269388 64.408811 
L 104.546939 64.439075 
L 106.82449 64.284109 
L 109.102041 64.206447 
L 111.379592 64.266685 
L 113.657143 64.329402 
L 115.934694 64.433927 
L 118.212245 64.527414 
L 120.489796 64.598777 
L 122.767347 64.598804 
L 125.044898 64.598804 
L 127.322449 64.598804 
L 129.6 64.598804 
L 129.6 64.598804 
L 129.6 64.598804 
L 127.322449 64.598804 
L 125.044898 64.598804 
L 122.767347 64.598804 
L 120.489796 64.598864 
L 118.212245 64.66038 
L 115.934694 64.762906 
L 113.657143 64.822781 
L 111.379592 65.071882 
L 109.102041 65.378081 
L 106.82449 65.822247 
L 104.546939 66.231549 
L 102.269388 66.459886 
L 99.991837 66.780372 
L 97.714286 67.31604 
L 95.436735 67.68 
L 93.159184 66.296051 
L 90.881633 65.203362 
L 88.604082 62.291296 
L 86.326531 59.702352 
L 84.04898 56.143347 
L 81.771429 50.677642 
L 79.493878 44.24795 
L 77.216327 39.080633 
L 74.938776 33.201374 
L 72.661224 29.291205 
L 70.383673 25.834122 
L 68.106122 23.973121 
L 65.828571 23.60257 
L 63.55102 26.075583 
L 61.273469 28.298075 
L 58.995918 32.800724 
L 56.718367 37.728279 
L 54.440816 42.260506 
L 52.163265 47.858387 
L 49.885714 51.781333 
L 47.608163 55.729976 
L 45.330612 58.726138 
L 43.053061 61.061096 
L 40.77551 62.67344 
L 38.497959 63.773606 
L 36.220408 64.391488 
L 33.942857 64.619147 
L 31.665306 64.642562 
L 29.387755 64.598808 
L 27.110204 64.598804 
L 24.832653 64.598804 
L 22.555102 64.598804 
L 20.277551 64.598804 
L 18 64.598804 
z
" style="fill:#fc8d62;fill-opacity:0.2;"/>
   </g>
   <g id="PolyCollection_2">
    <path clip-path="url(#paaf70b7458)" d="M 18 64.598804 
L 18 64.598804 
L 20.277551 64.598804 
L 22.555102 64.598804 
L 24.832653 64.598804 
L 27.110204 64.598804 
L 29.387755 64.598766 
L 31.665306 64.498203 
L 33.942857 64.301689 
L 36.220408 63.81659 
L 38.497959 63.233123 
L 40.77551 62.385533 
L 43.053061 60.839818 
L 45.330612 59.603155 
L 47.608163 57.349282 
L 49.885714 55.698943 
L 52.163265 53.352299 
L 54.440816 50.851752 
L 56.718367 47.363026 
L 58.995918 44.702637 
L 61.273469 42.28241 
L 63.55102 39.28836 
L 65.828571 37.544637 
L 68.106122 36.053956 
L 70.383673 33.920965 
L 72.661224 33.589228 
L 74.938776 35.718894 
L 77.216327 34.005135 
L 79.493878 35.651486 
L 81.771429 37.136032 
L 84.04898 39.022289 
L 86.326531 41.502315 
L 88.604082 44.103061 
L 90.881633 47.073799 
L 93.159184 49.854465 
L 95.436735 52.622672 
L 97.714286 55.124647 
L 99.991837 57.211938 
L 102.269388 59.210391 
L 104.546939 60.659338 
L 106.82449 61.956646 
L 109.102041 62.953572 
L 111.379592 63.617926 
L 113.657143 64.229753 
L 115.934694 64.358499 
L 118.212245 64.525975 
L 120.489796 64.598724 
L 122.767347 64.598804 
L 125.044898 64.598804 
L 127.322449 64.598804 
L 129.6 64.598804 
L 129.6 64.598804 
L 129.6 64.598804 
L 127.322449 64.598804 
L 125.044898 64.598804 
L 122.767347 64.598804 
L 120.489796 64.598994 
L 118.212245 64.669833 
L 115.934694 64.702996 
L 113.657143 64.768978 
L 111.379592 64.4712 
L 109.102041 64.043846 
L 106.82449 63.663006 
L 104.546939 62.747553 
L 102.269388 61.586229 
L 99.991837 59.861463 
L 97.714286 58.046018 
L 95.436735 55.985612 
L 93.159184 54.13607 
L 90.881633 51.566997 
L 88.604082 49.008898 
L 86.326531 47.121723 
L 84.04898 44.477789 
L 81.771429 42.314238 
L 79.493878 41.037594 
L 77.216327 39.433217 
L 74.938776 38.658886 
L 72.661224 38.455473 
L 70.383673 39.454971 
L 68.106122 40.56855 
L 65.828571 42.552946 
L 63.55102 44.547982 
L 61.273469 47.066306 
L 58.995918 49.413883 
L 56.718367 51.693864 
L 54.440816 53.737255 
L 52.163265 56.235121 
L 49.885714 58.358207 
L 47.608163 59.919281 
L 45.330612 61.554047 
L 43.053061 62.62895 
L 40.77551 63.665241 
L 38.497959 64.201079 
L 36.220408 64.440223 
L 33.942857 64.656322 
L 31.665306 64.647544 
L 29.387755 64.598825 
L 27.110204 64.598804 
L 24.832653 64.598804 
L 22.555102 64.598804 
L 20.277551 64.598804 
L 18 64.598804 
z
" style="fill:#fc8d62;fill-opacity:0.2;"/>
   </g>
   <g id="matplotlib.axis_1">
    <g id="xtick_1">
     <g id="line2d_1">
      <defs>
       <path d="M 0 0 
L 0 3.5 
" id="m393ad8552c" style="stroke:#a9a9a9;stroke-width:2;"/>
      </defs>
      <g>
       <use style="fill:#a9a9a9;stroke:#a9a9a9;stroke-width:2;" x="29.387755" xlink:href="#m393ad8552c" y="64.598804"/>
      </g>
     </g>
    </g>
    <g id="xtick_2">
     <g id="line2d_2">
      <g>
       <use style="fill:#a9a9a9;stroke:#a9a9a9;stroke-width:2;" x="52.163265" xlink:href="#m393ad8552c" y="64.598804"/>
      </g>
     </g>
    </g>
    <g id="xtick_3">
     <g id="line2d_3">
      <g>
       <use style="fill:#a9a9a9;stroke:#a9a9a9;stroke-width:2;" x="74.938776" xlink:href="#m393ad8552c" y="64.598804"/>
      </g>
     </g>
    </g>
    <g id="xtick_4">
     <g id="line2d_4">
      <g>
       <use style="fill:#a9a9a9;stroke:#a9a9a9;stroke-width:2;" x="97.714286" xlink:href="#m393ad8552c" y="64.598804"/>
      </g>
     </g>
    </g>
    <g id="xtick_5">
     <g id="line2d_5">
      <g>
       <use style="fill:#a9a9a9;stroke:#a9a9a9;stroke-width:2;" x="120.489796" xlink:href="#m393ad8552c" y="64.598804"/>
      </g>
     </g>
    </g>
   </g>
   <g id="matplotlib.axis_2"/>
   <g id="line2d_6">
    <path clip-path="url(#paaf70b7458)" d="M 18 64.598804 
L 20.277551 64.598804 
L 22.555102 64.598804 
L 24.832653 64.598804 
L 27.110204 64.598804 
L 29.387755 64.598803 
L 31.665306 64.583781 
L 33.942857 64.445441 
L 36.220408 64.127498 
L 38.497959 63.351266 
L 40.77551 62.056095 
L 43.053061 60.191788 
L 45.330612 57.603313 
L 47.608163 54.463125 
L 49.885714 50.50546 
L 52.163265 45.71313 
L 54.440816 40.13653 
L 56.718367 35.575811 
L 58.995918 30.325749 
L 61.273469 26.259088 
L 63.55102 22.849664 
L 65.828571 20.441285 
L 68.106122 20.702615 
L 70.383673 22.626789 
L 72.661224 25.72134 
L 74.938776 31.625283 
L 77.216327 35.414058 
L 79.493878 41.280242 
L 81.771429 47.636555 
L 84.04898 53.302561 
L 86.326531 57.052096 
L 88.604082 60.552072 
L 90.881633 63.113708 
L 93.159184 64.278131 
L 95.436735 66.086349 
L 97.714286 65.735945 
L 99.991837 65.534038 
L 102.269388 65.434348 
L 104.546939 65.335312 
L 106.82449 65.053178 
L 109.102041 64.792264 
L 111.379592 64.669284 
L 113.657143 64.576091 
L 115.934694 64.598416 
L 118.212245 64.593897 
L 120.489796 64.598821 
L 122.767347 64.598804 
L 125.044898 64.598804 
L 127.322449 64.598804 
L 129.6 64.598804 
" style="fill:none;stroke:#fc8d62;stroke-linecap:square;stroke-width:2;"/>
   </g>
   <g id="line2d_7">
    <path clip-path="url(#paaf70b7458)" d="M 18 64.598804 
L 20.277551 64.598804 
L 22.555102 64.598804 
L 24.832653 64.598804 
L 27.110204 64.598804 
L 29.387755 64.598795 
L 31.665306 64.572874 
L 33.942857 64.479005 
L 36.220408 64.128407 
L 38.497959 63.717101 
L 40.77551 63.025387 
L 43.053061 61.734384 
L 45.330612 60.578601 
L 47.608163 58.634282 
L 49.885714 57.028575 
L 52.163265 54.79371 
L 54.440816 52.294504 
L 56.718367 49.528445 
L 58.995918 47.05826 
L 61.273469 44.674358 
L 63.55102 41.918171 
L 65.828571 40.048791 
L 68.106122 38.311253 
L 70.383673 36.687968 
L 72.661224 36.022351 
L 74.938776 37.18889 
L 77.216327 36.719176 
L 79.493878 38.34454 
L 81.771429 39.725135 
L 84.04898 41.750039 
L 86.326531 44.312019 
L 88.604082 46.555979 
L 90.881633 49.320398 
L 93.159184 51.995268 
L 95.436735 54.304142 
L 97.714286 56.585333 
L 99.991837 58.536701 
L 102.269388 60.39831 
L 104.546939 61.703446 
L 106.82449 62.809826 
L 109.102041 63.498709 
L 111.379592 64.044563 
L 113.657143 64.499365 
L 115.934694 64.530747 
L 118.212245 64.597904 
L 120.489796 64.598859 
L 122.767347 64.598804 
L 125.044898 64.598804 
L 127.322449 64.598804 
L 129.6 64.598804 
" style="fill:none;stroke:#fc8d62;stroke-dasharray:1.5,1.5;stroke-dashoffset:0;stroke-opacity:0.7;stroke-width:1.5;"/>
   </g>
   <g id="patch_3">
    <path d="M 74.938776 67.68 
L 74.938776 17.28 
" style="fill:none;stroke:#a9a9a9;stroke-linecap:square;stroke-linejoin:miter;stroke-width:2;"/>
   </g>
   <g id="patch_4">
    <path d="M 129.6 67.68 
L 129.6 17.28 
" style="fill:none;"/>
   </g>
   <g id="patch_5">
    <path d="M 18 64.598804 
L 129.6 64.598804 
" style="fill:none;stroke:#a9a9a9;stroke-linecap:square;stroke-linejoin:miter;stroke-width:2;"/>
   </g>
   <g id="patch_6">
    <path d="M 18 17.28 
L 129.6 17.28 
" style="fill:none;"/>
   </g>
   <g id="legend_1">
    <g id="line2d_8">
     <path d="M 101.475312 26.448906 
L 115.475312 26.448906 
" style="fill:none;stroke:#fc8d62;stroke-linecap:square;stroke-width:2;"/>
    </g>
    <g id="line2d_9"/>
    <g id="text_1">
     <!--   -->
     <g transform="translate(121.075312 28.898906)scale(0.07 -0.07)">
      <defs>
       <path id="DejaVuSans-32"/>
      </defs>
      <use xlink:href="#DejaVuSans-32"/>
     </g>
    </g>
    <g id="line2d_10">
     <path d="M 101.475312 36.723594 
L 115.475312 36.723594 
" style="fill:none;stroke:#fc8d62;stroke-dasharray:1.5,1.5;stroke-dashoffset:0;stroke-opacity:0.7;stroke-width:1.5;"/>
    </g>
    <g id="line2d_11"/>
    <g id="text_2">
     <!--   -->
     <g transform="translate(121.075312 39.173594)scale(0.07 -0.07)">
      <use xlink:href="#DejaVuSans-32"/>
     </g>
    </g>
   </g>
  </g>
  <g id="axes_2">
   <g id="patch_7">
    <path d="M 18 128.16 
L 129.6 128.16 
L 129.6 77.76 
L 18 77.76 
z
" style="fill:none;"/>
   </g>
   <g id="PolyCollection_3">
    <path clip-path="url(#p806627c0ce)" d="M 18 120.576499 
L 18 120.490857 
L 20.277551 120.701116 
L 22.555102 120.773446 
L 24.832653 120.710817 
L 27.110204 120.555925 
L 29.387755 120.380015 
L 31.665306 120.225856 
L 33.942857 119.954933 
L 36.220408 119.407892 
L 38.497959 118.45822 
L 40.77551 117.014293 
L 43.053061 115.024752 
L 45.330612 112.481409 
L 47.608163 109.415757 
L 49.885714 105.895403 
L 52.163265 102.020656 
L 54.440816 97.921042 
L 56.718367 93.750967 
L 58.995918 89.685071 
L 61.273469 85.912827 
L 63.55102 82.632934 
L 65.828571 80.047788 
L 68.106122 78.358406 
L 70.383673 77.76 
L 72.661224 78.438437 
L 74.938776 80.560534 
L 77.216327 84.204667 
L 79.493878 88.993389 
L 81.771429 94.490979 
L 84.04898 100.290257 
L 86.326531 106.03349 
L 88.604082 111.421735 
L 90.881633 116.220142 
L 93.159184 120.259748 
L 95.436735 123.437458 
L 97.714286 125.714912 
L 99.991837 127.114398 
L 102.269388 127.707872 
L 104.546939 127.604014 
L 106.82449 126.936774 
L 109.102041 125.856788 
L 111.379592 124.523531 
L 113.657143 123.098466 
L 115.934694 121.739533 
L 118.212245 120.598939 
L 120.489796 119.826593 
L 122.767347 119.521761 
L 125.044898 119.577151 
L 127.322449 119.840763 
L 129.6 120.180112 
L 129.6 120.292798 
L 129.6 120.292798 
L 127.322449 119.978672 
L 125.044898 119.733799 
L 122.767347 119.688465 
L 120.489796 119.997357 
L 118.212245 120.779784 
L 115.934694 121.951191 
L 113.657143 123.360104 
L 111.379592 124.842364 
L 109.102041 126.228564 
L 106.82449 127.349674 
L 104.546939 128.043016 
L 102.269388 128.16 
L 99.991837 127.575191 
L 97.714286 126.195922 
L 95.436735 123.969067 
L 93.159184 120.885118 
L 90.881633 116.982103 
L 88.604082 112.353673 
L 86.326531 107.156227 
L 84.04898 101.612066 
L 81.771429 96.008059 
L 79.493878 90.69048 
L 77.216327 86.055679 
L 74.938776 82.529411 
L 72.661224 80.481616 
L 70.383673 79.830193 
L 68.106122 80.408006 
L 65.828571 82.030973 
L 63.55102 84.507646 
L 61.273469 87.642642 
L 58.995918 91.240816 
L 56.718367 95.11206 
L 54.440816 99.076397 
L 52.163265 102.969139 
L 49.885714 106.645658 
L 47.608163 109.985786 
L 45.330612 112.897288 
L 43.053061 115.319249 
L 40.77551 117.224386 
L 38.497959 118.619817 
L 36.220408 119.546163 
L 33.942857 120.080989 
L 31.665306 120.342221 
L 29.387755 120.48531 
L 27.110204 120.645518 
L 24.832653 120.782369 
L 22.555102 120.832808 
L 20.277551 120.765488 
L 18 120.576499 
z
" style="fill:#66c2a5;fill-opacity:0.2;"/>
   </g>
   <g id="matplotlib.axis_3">
    <g id="xtick_6">
     <g id="line2d_12">
      <g>
       <use style="fill:#a9a9a9;stroke:#a9a9a9;stroke-width:2;" x="29.387755" xlink:href="#m393ad8552c" y="122.265253"/>
      </g>
     </g>
    </g>
    <g id="xtick_7">
     <g id="line2d_13">
      <g>
       <use style="fill:#a9a9a9;stroke:#a9a9a9;stroke-width:2;" x="52.163265" xlink:href="#m393ad8552c" y="122.265253"/>
      </g>
     </g>
    </g>
    <g id="xtick_8">
     <g id="line2d_14">
      <g>
       <use style="fill:#a9a9a9;stroke:#a9a9a9;stroke-width:2;" x="74.938776" xlink:href="#m393ad8552c" y="122.265253"/>
      </g>
     </g>
    </g>
    <g id="xtick_9">
     <g id="line2d_15">
      <g>
       <use style="fill:#a9a9a9;stroke:#a9a9a9;stroke-width:2;" x="97.714286" xlink:href="#m393ad8552c" y="122.265253"/>
      </g>
     </g>
    </g>
    <g id="xtick_10">
     <g id="line2d_16">
      <g>
       <use style="fill:#a9a9a9;stroke:#a9a9a9;stroke-width:2;" x="120.489796" xlink:href="#m393ad8552c" y="122.265253"/>
      </g>
     </g>
    </g>
   </g>
   <g id="matplotlib.axis_4"/>
   <g id="line2d_17">
    <path clip-path="url(#p806627c0ce)" d="M 18 120.533678 
L 20.277551 120.733302 
L 22.555102 120.803127 
L 24.832653 120.746593 
L 27.110204 120.600722 
L 29.387755 120.432663 
L 31.665306 120.284039 
L 33.942857 120.017961 
L 36.220408 119.477027 
L 38.497959 118.539018 
L 40.77551 117.11934 
L 43.053061 115.172001 
L 45.330612 112.689349 
L 47.608163 109.700771 
L 49.885714 106.270531 
L 52.163265 102.494898 
L 54.440816 98.49872 
L 56.718367 94.431513 
L 58.995918 90.462944 
L 61.273469 86.777735 
L 63.55102 83.57029 
L 65.828571 81.039381 
L 68.106122 79.383206 
L 70.383673 78.795096 
L 72.661224 79.460026 
L 74.938776 81.544973 
L 77.216327 85.130173 
L 79.493878 89.841934 
L 81.771429 95.249519 
L 84.04898 100.951162 
L 86.326531 106.594858 
L 88.604082 111.887704 
L 90.881633 116.601123 
L 93.159184 120.572433 
L 95.436735 123.703263 
L 97.714286 125.955417 
L 99.991837 127.344795 
L 102.269388 127.933936 
L 104.546939 127.823515 
L 106.82449 127.143224 
L 109.102041 126.042676 
L 111.379592 124.682948 
L 113.657143 123.229285 
L 115.934694 121.845362 
L 118.212245 120.689361 
L 120.489796 119.911975 
L 122.767347 119.605113 
L 125.044898 119.655475 
L 127.322449 119.909717 
L 129.6 120.236455 
" style="fill:none;stroke:#66c2a5;stroke-linecap:square;stroke-width:2;"/>
   </g>
   <g id="patch_8">
    <path d="M 74.938776 128.16 
L 74.938776 77.76 
" style="fill:none;stroke:#a9a9a9;stroke-linecap:square;stroke-linejoin:miter;stroke-width:2;"/>
   </g>
   <g id="patch_9">
    <path d="M 129.6 128.16 
L 129.6 77.76 
" style="fill:none;"/>
   </g>
   <g id="patch_10">
    <path d="M 18 122.265253 
L 129.6 122.265253 
" style="fill:none;stroke:#a9a9a9;stroke-linecap:square;stroke-linejoin:miter;stroke-width:2;"/>
   </g>
   <g id="patch_11">
    <path d="M 18 77.76 
L 129.6 77.76 
" style="fill:none;"/>
   </g>
   <g id="legend_2">
    <g id="line2d_18">
     <path d="M 101.475312 86.928906 
L 115.475312 86.928906 
" style="fill:none;stroke:#66c2a5;stroke-linecap:square;stroke-width:2;"/>
    </g>
    <g id="line2d_19"/>
    <g id="text_3">
     <!--   -->
     <g transform="translate(121.075312 89.378906)scale(0.07 -0.07)">
      <use xlink:href="#DejaVuSans-32"/>
     </g>
    </g>
   </g>
  </g>
 </g>
 <defs>
  <clipPath id="paaf70b7458">
   <rect height="50.4" width="111.6" x="18" y="17.28"/>
  </clipPath>
  <clipPath id="p806627c0ce">
   <rect height="50.4" width="111.6" x="18" y="77.76"/>
  </clipPath>
 </defs>
</svg>
