<?xml version="1.0" encoding="utf-8" standalone="no"?>
<!DOCTYPE svg PUBLIC "-//W3C//DTD SVG 1.1//EN"
  "http://www.w3.org/Graphics/SVG/1.1/DTD/svg11.dtd">
<!-- Created with matplotlib (https://matplotlib.org/) -->
<svg height="144pt" version="1.1" viewBox="0 0 144 144" width="144pt" xmlns="http://www.w3.org/2000/svg" xmlns:xlink="http://www.w3.org/1999/xlink">
 <metadata>
  <rdf:RDF xmlns:cc="http://creativecommons.org/ns#" xmlns:dc="http://purl.org/dc/elements/1.1/" xmlns:rdf="http://www.w3.org/1999/02/22-rdf-syntax-ns#">
   <cc:Work>
    <dc:type rdf:resource="http://purl.org/dc/dcmitype/StillImage"/>
    <dc:date>2021-10-12T18:44:42.248419</dc:date>
    <dc:format>image/svg+xml</dc:format>
    <dc:creator>
     <cc:Agent>
      <dc:title>Matplotlib v3.3.2, https://matplotlib.org/</dc:title>
     </cc:Agent>
    </dc:creator>
   </cc:Work>
  </rdf:RDF>
 </metadata>
 <defs>
  <style type="text/css">*{stroke-linecap:butt;stroke-linejoin:round;}</style>
 </defs>
 <g id="figure_1">
  <g id="patch_1">
   <path d="M 0 144 
L 144 144 
L 144 0 
L 0 0 
z
" style="fill:none;"/>
  </g>
  <g id="axes_1">
   <g id="patch_2">
    <path d="M 18 67.68 
L 129.6 67.68 
L 129.6 17.28 
L 18 17.28 
z
" style="fill:none;"/>
   </g>
   <g id="PolyCollection_1">
    <path clip-path="url(#p064f023cbe)" d="M 18 67.679947 
L 18 67.679947 
L 20.277551 67.679947 
L 22.555102 67.679947 
L 24.832653 67.679947 
L 27.110204 67.679947 
L 29.387755 67.679829 
L 31.665306 67.637294 
L 33.942857 67.405832 
L 36.220408 66.830156 
L 38.497959 65.781774 
L 40.77551 64.202208 
L 43.053061 62.018232 
L 45.330612 59.237306 
L 47.608163 55.894261 
L 49.885714 52.0651 
L 52.163265 47.805527 
L 54.440816 43.311789 
L 56.718367 38.680346 
L 58.995918 34.040632 
L 61.273469 29.708789 
L 63.55102 25.640978 
L 65.828571 22.309397 
L 68.106122 19.693482 
L 70.383673 18.005812 
L 72.661224 17.28 
L 74.938776 24.982872 
L 77.216327 19.64819 
L 79.493878 22.449442 
L 81.771429 26.020992 
L 84.04898 29.889864 
L 86.326531 34.031724 
L 88.604082 38.297942 
L 90.881633 42.473225 
L 93.159184 46.491747 
L 95.436735 50.251994 
L 97.714286 53.657438 
L 99.991837 56.685145 
L 102.269388 59.432297 
L 104.546939 61.730769 
L 106.82449 63.630106 
L 109.102041 65.164163 
L 111.379592 66.279471 
L 113.657143 67.036221 
L 115.934694 67.469035 
L 118.212245 67.651323 
L 120.489796 67.679947 
L 122.767347 67.679947 
L 125.044898 67.679947 
L 127.322449 67.679947 
L 129.6 67.679947 
L 129.6 67.679947 
L 129.6 67.679947 
L 127.322449 67.679947 
L 125.044898 67.679947 
L 122.767347 67.679947 
L 120.489796 67.679947 
L 118.212245 67.663642 
L 115.934694 67.512071 
L 113.657143 67.124954 
L 111.379592 66.414588 
L 109.102041 65.351432 
L 106.82449 63.889623 
L 104.546939 62.0352 
L 102.269388 59.76539 
L 99.991837 57.104076 
L 97.714286 54.097818 
L 95.436735 50.707417 
L 93.159184 47.093871 
L 90.881633 43.17792 
L 88.604082 39.075147 
L 86.326531 34.852719 
L 84.04898 30.726108 
L 81.771429 26.90897 
L 79.493878 23.390749 
L 77.216327 20.743203 
L 74.938776 26.040016 
L 72.661224 18.372905 
L 70.383673 18.934746 
L 68.106122 20.595813 
L 65.828571 23.281664 
L 63.55102 26.642003 
L 61.273469 30.572606 
L 58.995918 34.826819 
L 56.718367 39.391519 
L 54.440816 43.9675 
L 52.163265 48.414155 
L 49.885714 52.574158 
L 47.608163 56.34192 
L 45.330612 59.593692 
L 43.053061 62.330157 
L 40.77551 64.400691 
L 38.497959 65.950801 
L 36.220408 66.924173 
L 33.942857 67.45051 
L 31.665306 67.653963 
L 29.387755 67.68 
L 27.110204 67.679947 
L 24.832653 67.679947 
L 22.555102 67.679947 
L 20.277551 67.679947 
L 18 67.679947 
z
" style="fill:#fc8d62;fill-opacity:0.2;"/>
   </g>
   <g id="PolyCollection_2">
    <path clip-path="url(#p064f023cbe)" d="M 18 67.679947 
L 18 67.679947 
L 20.277551 67.679947 
L 22.555102 67.679947 
L 24.832653 67.679947 
L 27.110204 67.679947 
L 29.387755 67.679899 
L 31.665306 67.631414 
L 33.942857 67.390255 
L 36.220408 66.795389 
L 38.497959 65.765478 
L 40.77551 64.249687 
L 43.053061 62.151763 
L 45.330612 59.515085 
L 47.608163 56.265078 
L 49.885714 52.560545 
L 52.163265 48.487233 
L 54.440816 44.002802 
L 56.718367 39.334632 
L 58.995918 34.573453 
L 61.273469 29.876269 
L 63.55102 25.400564 
L 65.828571 21.341879 
L 68.106122 17.810519 
L 70.383673 15.105927 
L 72.661224 13.352762 
L 74.938776 19.093419 
L 77.216327 13.454912 
L 79.493878 15.34433 
L 81.771429 18.23642 
L 84.04898 21.721526 
L 86.326531 25.898831 
L 88.604082 30.44161 
L 90.881633 35.171252 
L 93.159184 39.786261 
L 95.436735 44.505763 
L 97.714286 48.941652 
L 99.991837 53.0402 
L 102.269388 56.676135 
L 104.546939 59.857037 
L 106.82449 62.417834 
L 109.102041 64.444898 
L 111.379592 65.937729 
L 113.657143 66.892945 
L 115.934694 67.428481 
L 118.212245 67.643659 
L 120.489796 67.679947 
L 122.767347 67.679947 
L 125.044898 67.679947 
L 127.322449 67.679947 
L 129.6 67.679947 
L 129.6 67.679947 
L 129.6 67.679947 
L 127.322449 67.679947 
L 125.044898 67.679947 
L 122.767347 67.679947 
L 120.489796 67.679947 
L 118.212245 67.659816 
L 115.934694 67.484361 
L 113.657143 66.993748 
L 111.379592 66.067022 
L 109.102041 64.67983 
L 106.82449 62.701404 
L 104.546939 60.151428 
L 102.269388 57.142848 
L 99.991837 53.593353 
L 97.714286 49.556756 
L 95.436735 45.29455 
L 93.159184 40.72364 
L 90.881633 35.958326 
L 88.604082 31.288461 
L 86.326531 26.86889 
L 84.04898 22.771112 
L 81.771429 19.333269 
L 79.493878 16.40158 
L 77.216327 14.641377 
L 74.938776 20.253817 
L 72.661224 14.568293 
L 70.383673 16.232659 
L 68.106122 18.852179 
L 65.828571 22.406523 
L 63.55102 26.420576 
L 61.273469 30.837175 
L 58.995918 35.444536 
L 56.718367 40.125215 
L 54.440816 44.691095 
L 52.163265 49.065613 
L 49.885714 53.093273 
L 47.608163 56.741276 
L 45.330612 59.860396 
L 43.053061 62.462794 
L 40.77551 64.480221 
L 38.497959 65.94459 
L 36.220408 66.924686 
L 33.942857 67.451483 
L 31.665306 67.652442 
L 29.387755 67.679961 
L 27.110204 67.679947 
L 24.832653 67.679947 
L 22.555102 67.679947 
L 20.277551 67.679947 
L 18 67.679947 
z
" style="fill:#fc8d62;fill-opacity:0.2;"/>
   </g>
   <g id="matplotlib.axis_1">
    <g id="xtick_1">
     <g id="line2d_1">
      <defs>
       <path d="M 0 0 
L 0 3.5 
" id="m6f74d77309" style="stroke:#a9a9a9;stroke-width:2;"/>
      </defs>
      <g>
       <use style="fill:#a9a9a9;stroke:#a9a9a9;stroke-width:2;" x="29.387755" xlink:href="#m6f74d77309" y="67.679947"/>
      </g>
     </g>
    </g>
    <g id="xtick_2">
     <g id="line2d_2">
      <g>
       <use style="fill:#a9a9a9;stroke:#a9a9a9;stroke-width:2;" x="52.163265" xlink:href="#m6f74d77309" y="67.679947"/>
      </g>
     </g>
    </g>
    <g id="xtick_3">
     <g id="line2d_3">
      <g>
       <use style="fill:#a9a9a9;stroke:#a9a9a9;stroke-width:2;" x="74.938776" xlink:href="#m6f74d77309" y="67.679947"/>
      </g>
     </g>
    </g>
    <g id="xtick_4">
     <g id="line2d_4">
      <g>
       <use style="fill:#a9a9a9;stroke:#a9a9a9;stroke-width:2;" x="97.714286" xlink:href="#m6f74d77309" y="67.679947"/>
      </g>
     </g>
    </g>
    <g id="xtick_5">
     <g id="line2d_5">
      <g>
       <use style="fill:#a9a9a9;stroke:#a9a9a9;stroke-width:2;" x="120.489796" xlink:href="#m6f74d77309" y="67.679947"/>
      </g>
     </g>
    </g>
   </g>
   <g id="matplotlib.axis_2"/>
   <g id="line2d_6">
    <path clip-path="url(#p064f023cbe)" d="M 18 67.679947 
L 20.277551 67.679947 
L 22.555102 67.679947 
L 24.832653 67.679947 
L 27.110204 67.679947 
L 29.387755 67.679914 
L 31.665306 67.645629 
L 33.942857 67.428171 
L 36.220408 66.877164 
L 38.497959 65.866287 
L 40.77551 64.30145 
L 43.053061 62.174194 
L 45.330612 59.415499 
L 47.608163 56.11809 
L 49.885714 52.319629 
L 52.163265 48.109841 
L 54.440816 43.639644 
L 56.718367 39.035932 
L 58.995918 34.433725 
L 61.273469 30.140697 
L 63.55102 26.14149 
L 65.828571 22.79553 
L 68.106122 20.144648 
L 70.383673 18.470279 
L 72.661224 17.826452 
L 74.938776 25.511444 
L 77.216327 20.195697 
L 79.493878 22.920095 
L 81.771429 26.464981 
L 84.04898 30.307986 
L 86.326531 34.442222 
L 88.604082 38.686545 
L 90.881633 42.825572 
L 93.159184 46.792809 
L 95.436735 50.479705 
L 97.714286 53.877628 
L 99.991837 56.89461 
L 102.269388 59.598843 
L 104.546939 61.882984 
L 106.82449 63.759864 
L 109.102041 65.257797 
L 111.379592 66.34703 
L 113.657143 67.080588 
L 115.934694 67.490553 
L 118.212245 67.657483 
L 120.489796 67.679947 
L 122.767347 67.679947 
L 125.044898 67.679947 
L 127.322449 67.679947 
L 129.6 67.679947 
" style="fill:none;stroke:#fc8d62;stroke-linecap:square;stroke-width:2;"/>
   </g>
   <g id="line2d_7">
    <path clip-path="url(#p064f023cbe)" d="M 18 67.679947 
L 20.277551 67.679947 
L 22.555102 67.679947 
L 24.832653 67.679947 
L 27.110204 67.679947 
L 29.387755 67.67993 
L 31.665306 67.641928 
L 33.942857 67.420869 
L 36.220408 66.860037 
L 38.497959 65.855034 
L 40.77551 64.364954 
L 43.053061 62.307278 
L 45.330612 59.687741 
L 47.608163 56.503177 
L 49.885714 52.826909 
L 52.163265 48.776423 
L 54.440816 44.346948 
L 56.718367 39.729923 
L 58.995918 35.008995 
L 61.273469 30.356722 
L 63.55102 25.91057 
L 65.828571 21.874201 
L 68.106122 18.331349 
L 70.383673 15.669293 
L 72.661224 13.960528 
L 74.938776 19.673618 
L 77.216327 14.048144 
L 79.493878 15.872955 
L 81.771429 18.784845 
L 84.04898 22.246319 
L 86.326531 26.38386 
L 88.604082 30.865036 
L 90.881633 35.564789 
L 93.159184 40.25495 
L 95.436735 44.900157 
L 97.714286 49.249204 
L 99.991837 53.316777 
L 102.269388 56.909492 
L 104.546939 60.004233 
L 106.82449 62.559619 
L 109.102041 64.562364 
L 111.379592 66.002375 
L 113.657143 66.943347 
L 115.934694 67.456421 
L 118.212245 67.651737 
L 120.489796 67.679947 
L 122.767347 67.679947 
L 125.044898 67.679947 
L 127.322449 67.679947 
L 129.6 67.679947 
" style="fill:none;stroke:#fc8d62;stroke-dasharray:1.5,1.5;stroke-dashoffset:0;stroke-opacity:0.7;stroke-width:1.5;"/>
   </g>
   <g id="patch_3">
    <path d="M 74.938776 67.68 
L 74.938776 17.28 
" style="fill:none;stroke:#a9a9a9;stroke-linecap:square;stroke-linejoin:miter;stroke-width:2;"/>
   </g>
   <g id="patch_4">
    <path d="M 129.6 67.68 
L 129.6 17.28 
" style="fill:none;"/>
   </g>
   <g id="patch_5">
    <path d="M 18 67.679947 
L 129.6 67.679947 
" style="fill:none;stroke:#a9a9a9;stroke-linecap:square;stroke-linejoin:miter;stroke-width:2;"/>
   </g>
   <g id="patch_6">
    <path d="M 18 17.28 
L 129.6 17.28 
" style="fill:none;"/>
   </g>
   <g id="legend_1">
    <g id="line2d_8">
     <path d="M 55.985 47.199531 
L 69.985 47.199531 
" style="fill:none;stroke:#fc8d62;stroke-linecap:square;stroke-width:2;"/>
    </g>
    <g id="line2d_9"/>
    <g id="text_1">
     <!-- $\theta$ -->
     <g transform="translate(75.585 49.649531)scale(0.07 -0.07)">
      <defs>
       <path d="M 45.515625 34.671875 
L 14.453125 34.671875 
Q 12.359375 20.0625 14.5 13.875 
Q 17.1875 6.25 24.46875 6.25 
Q 31.78125 6.25 37.359375 13.921875 
Q 42.234375 20.65625 45.515625 34.671875 
z
M 47.015625 42.96875 
Q 48.34375 56.84375 46.625 61.71875 
Q 43.953125 69.4375 36.765625 69.4375 
Q 29.296875 69.4375 23.828125 61.8125 
Q 19.53125 55.671875 16.15625 42.96875 
z
M 38.1875 76.765625 
Q 49.90625 76.765625 54.59375 66.40625 
Q 59.28125 56.109375 55.71875 37.84375 
Q 52.203125 19.625 43.453125 9.28125 
Q 34.765625 -1.125 23.046875 -1.125 
Q 11.28125 -1.125 6.640625 9.28125 
Q 2 19.625 5.515625 37.84375 
Q 9.078125 56.109375 17.71875 66.40625 
Q 26.421875 76.765625 38.1875 76.765625 
z
" id="DejaVuSans-Oblique-952"/>
      </defs>
      <use transform="translate(0 0.234375)" xlink:href="#DejaVuSans-Oblique-952"/>
     </g>
    </g>
    <g id="line2d_10">
     <path d="M 55.985 57.474219 
L 69.985 57.474219 
" style="fill:none;stroke:#fc8d62;stroke-dasharray:1.5,1.5;stroke-dashoffset:0;stroke-opacity:0.7;stroke-width:1.5;"/>
    </g>
    <g id="line2d_11"/>
    <g id="text_2">
     <!-- No $\theta$ -->
     <g transform="translate(75.585 59.924219)scale(0.07 -0.07)">
      <defs>
       <path d="M 9.8125 72.90625 
L 23.09375 72.90625 
L 55.421875 11.921875 
L 55.421875 72.90625 
L 64.984375 72.90625 
L 64.984375 0 
L 51.703125 0 
L 19.390625 60.984375 
L 19.390625 0 
L 9.8125 0 
z
" id="DejaVuSans-78"/>
       <path d="M 30.609375 48.390625 
Q 23.390625 48.390625 19.1875 42.75 
Q 14.984375 37.109375 14.984375 27.296875 
Q 14.984375 17.484375 19.15625 11.84375 
Q 23.34375 6.203125 30.609375 6.203125 
Q 37.796875 6.203125 41.984375 11.859375 
Q 46.1875 17.53125 46.1875 27.296875 
Q 46.1875 37.015625 41.984375 42.703125 
Q 37.796875 48.390625 30.609375 48.390625 
z
M 30.609375 56 
Q 42.328125 56 49.015625 48.375 
Q 55.71875 40.765625 55.71875 27.296875 
Q 55.71875 13.875 49.015625 6.21875 
Q 42.328125 -1.421875 30.609375 -1.421875 
Q 18.84375 -1.421875 12.171875 6.21875 
Q 5.515625 13.875 5.515625 27.296875 
Q 5.515625 40.765625 12.171875 48.375 
Q 18.84375 56 30.609375 56 
z
" id="DejaVuSans-111"/>
       <path id="DejaVuSans-32"/>
      </defs>
      <use transform="translate(0 0.234375)" xlink:href="#DejaVuSans-78"/>
      <use transform="translate(74.804688 0.234375)" xlink:href="#DejaVuSans-111"/>
      <use transform="translate(135.986328 0.234375)" xlink:href="#DejaVuSans-32"/>
      <use transform="translate(167.773438 0.234375)" xlink:href="#DejaVuSans-Oblique-952"/>
     </g>
    </g>
   </g>
  </g>
  <g id="axes_2">
   <g id="patch_7">
    <path d="M 18 128.16 
L 129.6 128.16 
L 129.6 77.76 
L 18 77.76 
z
" style="fill:none;"/>
   </g>
   <g id="PolyCollection_3">
    <path clip-path="url(#p27e9aa392d)" d="M 18 120.473066 
L 18 120.391284 
L 20.277551 120.607702 
L 22.555102 120.671359 
L 24.832653 120.589337 
L 27.110204 120.409336 
L 29.387755 120.209193 
L 31.665306 120.038146 
L 33.942857 119.755736 
L 36.220408 119.200353 
L 38.497959 118.244712 
L 40.77551 116.797165 
L 43.053061 114.80606 
L 45.330612 112.262888 
L 47.608163 109.199683 
L 49.885714 105.684775 
L 52.163265 101.819025 
L 54.440816 97.732037 
L 56.718367 93.578103 
L 58.995918 89.531623 
L 61.273469 85.781936 
L 63.55102 82.527819 
L 65.828571 79.972171 
L 68.106122 78.317142 
L 70.383673 77.76 
L 72.661224 78.489861 
L 74.938776 80.675504 
L 77.216327 84.406555 
L 79.493878 89.283037 
L 81.771429 94.857705 
L 84.04898 100.713075 
L 86.326531 106.48522 
L 88.604082 111.872927 
L 90.881633 116.642546 
L 93.159184 120.629243 
L 95.436735 123.735995 
L 97.714286 125.930875 
L 99.991837 127.241317 
L 102.269388 127.74368 
L 104.546939 127.551002 
L 106.82449 126.801976 
L 109.102041 125.651456 
L 111.379592 124.262324 
L 113.657143 122.798538 
L 115.934694 121.419955 
L 118.212245 120.280409 
L 120.489796 119.530571 
L 122.767347 119.266966 
L 125.044898 119.371537 
L 127.322449 119.681922 
L 129.6 120.058147 
L 129.6 120.164991 
L 129.6 120.164991 
L 127.322449 119.812777 
L 125.044898 119.520782 
L 122.767347 119.426733 
L 120.489796 119.694965 
L 118.212245 120.454437 
L 115.934694 121.620335 
L 113.657143 123.041518 
L 111.379592 124.554666 
L 109.102041 125.990269 
L 106.82449 127.177904 
L 104.546939 127.952125 
L 102.269388 128.16 
L 99.991837 127.670082 
L 97.714286 126.381593 
L 95.436735 124.232399 
L 93.159184 121.204745 
L 90.881633 117.33092 
L 88.604082 112.701046 
L 86.326531 107.470132 
L 84.04898 101.861665 
L 81.771429 96.167002 
L 79.493878 90.740677 
L 77.216327 85.991259 
L 74.938776 82.357769 
L 72.661224 80.233873 
L 70.383673 79.526523 
L 68.106122 80.066372 
L 65.828571 81.665598 
L 63.55102 84.129929 
L 61.273469 87.261793 
L 58.995918 90.864308 
L 56.718367 94.745884 
L 54.440816 98.725204 
L 52.163265 102.636246 
L 49.885714 106.333127 
L 47.608163 109.694435 
L 45.330612 112.626967 
L 43.053061 115.068916 
L 40.77551 116.99211 
L 38.497959 118.402476 
L 36.220408 119.340504 
L 33.942857 119.885408 
L 31.665306 120.157969 
L 29.387755 120.317283 
L 27.110204 120.501415 
L 24.832653 120.663245 
L 22.555102 120.732153 
L 20.277551 120.67094 
L 18 120.473066 
z
" style="fill:#66c2a5;fill-opacity:0.2;"/>
   </g>
   <g id="matplotlib.axis_3">
    <g id="xtick_6">
     <g id="line2d_12">
      <g>
       <use style="fill:#a9a9a9;stroke:#a9a9a9;stroke-width:2;" x="29.387755" xlink:href="#m6f74d77309" y="122.139375"/>
      </g>
     </g>
    </g>
    <g id="xtick_7">
     <g id="line2d_13">
      <g>
       <use style="fill:#a9a9a9;stroke:#a9a9a9;stroke-width:2;" x="52.163265" xlink:href="#m6f74d77309" y="122.139375"/>
      </g>
     </g>
    </g>
    <g id="xtick_8">
     <g id="line2d_14">
      <g>
       <use style="fill:#a9a9a9;stroke:#a9a9a9;stroke-width:2;" x="74.938776" xlink:href="#m6f74d77309" y="122.139375"/>
      </g>
     </g>
    </g>
    <g id="xtick_9">
     <g id="line2d_15">
      <g>
       <use style="fill:#a9a9a9;stroke:#a9a9a9;stroke-width:2;" x="97.714286" xlink:href="#m6f74d77309" y="122.139375"/>
      </g>
     </g>
    </g>
    <g id="xtick_10">
     <g id="line2d_16">
      <g>
       <use style="fill:#a9a9a9;stroke:#a9a9a9;stroke-width:2;" x="120.489796" xlink:href="#m6f74d77309" y="122.139375"/>
      </g>
     </g>
    </g>
   </g>
   <g id="matplotlib.axis_4"/>
   <g id="line2d_17">
    <path clip-path="url(#p27e9aa392d)" d="M 18 120.432175 
L 20.277551 120.639321 
L 22.555102 120.701756 
L 24.832653 120.626291 
L 27.110204 120.455375 
L 29.387755 120.263238 
L 31.665306 120.098057 
L 33.942857 119.820572 
L 36.220408 119.270429 
L 38.497959 118.323594 
L 40.77551 116.894637 
L 43.053061 114.937488 
L 45.330612 112.444927 
L 47.608163 109.447059 
L 49.885714 106.008951 
L 52.163265 102.227635 
L 54.440816 98.22862 
L 56.718367 94.161993 
L 58.995918 90.197966 
L 61.273469 86.521864 
L 63.55102 83.328874 
L 65.828571 80.818885 
L 68.106122 79.191757 
L 70.383673 78.643261 
L 72.661224 79.361867 
L 74.938776 81.516636 
L 77.216327 85.198907 
L 79.493878 90.011857 
L 81.771429 95.512354 
L 84.04898 101.28737 
L 86.326531 106.977676 
L 88.604082 112.286987 
L 90.881633 116.986733 
L 93.159184 120.916994 
L 95.436735 123.984197 
L 97.714286 126.156234 
L 99.991837 127.4557 
L 102.269388 127.95184 
L 104.546939 127.751563 
L 106.82449 126.98994 
L 109.102041 125.820863 
L 111.379592 124.408495 
L 113.657143 122.920028 
L 115.934694 121.520145 
L 118.212245 120.367423 
L 120.489796 119.612768 
L 122.767347 119.346849 
L 125.044898 119.44616 
L 127.322449 119.74735 
L 129.6 120.111569 
" style="fill:none;stroke:#66c2a5;stroke-linecap:square;stroke-width:2;"/>
   </g>
   <g id="patch_8">
    <path d="M 74.938776 128.16 
L 74.938776 77.76 
" style="fill:none;stroke:#a9a9a9;stroke-linecap:square;stroke-linejoin:miter;stroke-width:2;"/>
   </g>
   <g id="patch_9">
    <path d="M 129.6 128.16 
L 129.6 77.76 
" style="fill:none;"/>
   </g>
   <g id="patch_10">
    <path d="M 18 122.139375 
L 129.6 122.139375 
" style="fill:none;stroke:#a9a9a9;stroke-linecap:square;stroke-linejoin:miter;stroke-width:2;"/>
   </g>
   <g id="patch_11">
    <path d="M 18 77.76 
L 129.6 77.76 
" style="fill:none;"/>
   </g>
  </g>
 </g>
 <defs>
  <clipPath id="p064f023cbe">
   <rect height="50.4" width="111.6" x="18" y="17.28"/>
  </clipPath>
  <clipPath id="p27e9aa392d">
   <rect height="50.4" width="111.6" x="18" y="77.76"/>
  </clipPath>
 </defs>
</svg>
