<?xml version="1.0" encoding="utf-8" standalone="no"?>
<!DOCTYPE svg PUBLIC "-//W3C//DTD SVG 1.1//EN"
  "http://www.w3.org/Graphics/SVG/1.1/DTD/svg11.dtd">
<!-- Created with matplotlib (https://matplotlib.org/) -->
<svg height="144pt" version="1.1" viewBox="0 0 144 144" width="144pt" xmlns="http://www.w3.org/2000/svg" xmlns:xlink="http://www.w3.org/1999/xlink">
 <metadata>
  <rdf:RDF xmlns:cc="http://creativecommons.org/ns#" xmlns:dc="http://purl.org/dc/elements/1.1/" xmlns:rdf="http://www.w3.org/1999/02/22-rdf-syntax-ns#">
   <cc:Work>
    <dc:type rdf:resource="http://purl.org/dc/dcmitype/StillImage"/>
    <dc:date>2021-10-12T18:48:42.579149</dc:date>
    <dc:format>image/svg+xml</dc:format>
    <dc:creator>
     <cc:Agent>
      <dc:title>Matplotlib v3.3.2, https://matplotlib.org/</dc:title>
     </cc:Agent>
    </dc:creator>
   </cc:Work>
  </rdf:RDF>
 </metadata>
 <defs>
  <style type="text/css">*{stroke-linecap:butt;stroke-linejoin:round;}</style>
 </defs>
 <g id="figure_1">
  <g id="patch_1">
   <path d="M 0 144 
L 144 144 
L 144 0 
L 0 0 
z
" style="fill:none;"/>
  </g>
  <g id="axes_1">
   <g id="patch_2">
    <path d="M 18 67.68 
L 129.6 67.68 
L 129.6 17.28 
L 18 17.28 
z
" style="fill:none;"/>
   </g>
   <g id="PolyCollection_1">
    <path clip-path="url(#p87a1d714cf)" d="M 18 67.661602 
L 18 67.661602 
L 20.277551 67.661602 
L 22.555102 67.661602 
L 24.832653 67.661602 
L 27.110204 67.661602 
L 29.387755 67.661442 
L 31.665306 67.601415 
L 33.942857 67.384067 
L 36.220408 66.922956 
L 38.497959 65.9839 
L 40.77551 64.595501 
L 43.053061 62.55806 
L 45.330612 60.3746 
L 47.608163 57.194211 
L 49.885714 53.434315 
L 52.163265 49.176495 
L 54.440816 44.888626 
L 56.718367 39.862944 
L 58.995918 34.854151 
L 61.273469 29.749731 
L 63.55102 26.272959 
L 65.828571 22.127406 
L 68.106122 20.106863 
L 70.383673 17.28 
L 72.661224 17.548432 
L 74.938776 23.292354 
L 77.216327 18.54568 
L 79.493878 21.755374 
L 81.771429 25.133255 
L 84.04898 29.438797 
L 86.326531 33.508318 
L 88.604082 37.847911 
L 90.881633 42.910436 
L 93.159184 46.749071 
L 95.436735 50.310654 
L 97.714286 54.309979 
L 99.991837 57.260316 
L 102.269388 60.060463 
L 104.546939 62.057701 
L 106.82449 63.904588 
L 109.102041 65.441487 
L 111.379592 66.492679 
L 113.657143 67.018464 
L 115.934694 67.420176 
L 118.212245 67.61619 
L 120.489796 67.661591 
L 122.767347 67.661602 
L 125.044898 67.661602 
L 127.322449 67.661602 
L 129.6 67.661602 
L 129.6 67.661602 
L 129.6 67.661602 
L 127.322449 67.661602 
L 125.044898 67.661602 
L 122.767347 67.661602 
L 120.489796 67.661618 
L 118.212245 67.68 
L 115.934694 67.61554 
L 113.657143 67.442146 
L 111.379592 66.939478 
L 109.102041 66.190536 
L 106.82449 64.896238 
L 104.546939 63.406978 
L 102.269388 61.623019 
L 99.991837 58.908855 
L 97.714286 56.309589 
L 95.436735 53.29319 
L 93.159184 49.221656 
L 90.881633 45.628225 
L 88.604082 41.20912 
L 86.326531 37.072336 
L 84.04898 33.425634 
L 81.771429 29.442912 
L 79.493878 26.329861 
L 77.216327 23.802879 
L 74.938776 27.95688 
L 72.661224 21.288738 
L 70.383673 22.416853 
L 68.106122 24.555468 
L 65.828571 26.279601 
L 63.55102 30.639877 
L 61.273469 34.104123 
L 58.995918 38.227435 
L 56.718367 42.976636 
L 54.440816 47.298492 
L 52.163265 51.780006 
L 49.885714 55.628334 
L 47.608163 58.792498 
L 45.330612 61.726004 
L 43.053061 63.957933 
L 40.77551 65.574922 
L 38.497959 66.588414 
L 36.220408 67.305065 
L 33.942857 67.576531 
L 31.665306 67.670417 
L 29.387755 67.661707 
L 27.110204 67.661602 
L 24.832653 67.661602 
L 22.555102 67.661602 
L 20.277551 67.661602 
L 18 67.661602 
z
" style="fill:#fc8d62;fill-opacity:0.2;"/>
   </g>
   <g id="PolyCollection_2">
    <path clip-path="url(#p87a1d714cf)" d="M 18 67.661602 
L 18 67.661602 
L 20.277551 67.661602 
L 22.555102 67.661602 
L 24.832653 67.661602 
L 27.110204 67.661602 
L 29.387755 67.660517 
L 31.665306 67.61373 
L 33.942857 67.317972 
L 36.220408 66.873153 
L 38.497959 66.062394 
L 40.77551 64.759403 
L 43.053061 62.873138 
L 45.330612 60.76425 
L 47.608163 58.01734 
L 49.885714 54.61721 
L 52.163265 51.120368 
L 54.440816 46.376294 
L 56.718367 42.976114 
L 58.995918 37.944548 
L 61.273469 33.638802 
L 63.55102 29.702717 
L 65.828571 25.38957 
L 68.106122 22.465686 
L 70.383673 20.196562 
L 72.661224 18.436843 
L 74.938776 22.655356 
L 77.216327 18.613622 
L 79.493878 20.433859 
L 81.771429 23.150468 
L 84.04898 26.068742 
L 86.326531 30.124399 
L 88.604082 34.402658 
L 90.881633 38.529334 
L 93.159184 43.162464 
L 95.436735 47.155588 
L 97.714286 51.572492 
L 99.991837 55.352323 
L 102.269388 58.539315 
L 104.546939 61.337952 
L 106.82449 63.304013 
L 109.102041 64.947855 
L 111.379592 66.29218 
L 113.657143 67.005908 
L 115.934694 67.403207 
L 118.212245 67.620133 
L 120.489796 67.661532 
L 122.767347 67.661602 
L 125.044898 67.661602 
L 127.322449 67.661602 
L 129.6 67.661602 
L 129.6 67.661602 
L 129.6 67.661602 
L 127.322449 67.661602 
L 125.044898 67.661602 
L 122.767347 67.661602 
L 120.489796 67.66171 
L 118.212245 67.677243 
L 115.934694 67.652916 
L 113.657143 67.388519 
L 111.379592 66.878678 
L 109.102041 65.823282 
L 106.82449 64.564131 
L 104.546939 62.825974 
L 102.269388 60.37481 
L 99.991837 57.470734 
L 97.714286 54.18457 
L 95.436735 50.016163 
L 93.159184 46.043127 
L 90.881633 42.334791 
L 88.604082 38.195322 
L 86.326531 34.71404 
L 84.04898 30.89901 
L 81.771429 28.003839 
L 79.493878 24.63394 
L 77.216327 23.82287 
L 74.938776 27.638098 
L 72.661224 23.212091 
L 70.383673 24.2245 
L 68.106122 27.147081 
L 65.828571 30.233332 
L 63.55102 33.6679 
L 61.273469 37.567298 
L 58.995918 41.845345 
L 56.718367 45.994557 
L 54.440816 49.567822 
L 52.163265 53.657154 
L 49.885714 56.717964 
L 47.608163 59.918576 
L 45.330612 61.916075 
L 43.053061 64.164242 
L 40.77551 65.725863 
L 38.497959 66.61066 
L 36.220408 67.324458 
L 33.942857 67.595872 
L 31.665306 67.671563 
L 29.387755 67.6623 
L 27.110204 67.661602 
L 24.832653 67.661602 
L 22.555102 67.661602 
L 20.277551 67.661602 
L 18 67.661602 
z
" style="fill:#fc8d62;fill-opacity:0.2;"/>
   </g>
   <g id="matplotlib.axis_1">
    <g id="xtick_1">
     <g id="line2d_1">
      <defs>
       <path d="M 0 0 
L 0 3.5 
" id="mc5b06bd6b6" style="stroke:#a9a9a9;stroke-width:2;"/>
      </defs>
      <g>
       <use style="fill:#a9a9a9;stroke:#a9a9a9;stroke-width:2;" x="29.387755" xlink:href="#mc5b06bd6b6" y="67.661602"/>
      </g>
     </g>
    </g>
    <g id="xtick_2">
     <g id="line2d_2">
      <g>
       <use style="fill:#a9a9a9;stroke:#a9a9a9;stroke-width:2;" x="52.163265" xlink:href="#mc5b06bd6b6" y="67.661602"/>
      </g>
     </g>
    </g>
    <g id="xtick_3">
     <g id="line2d_3">
      <g>
       <use style="fill:#a9a9a9;stroke:#a9a9a9;stroke-width:2;" x="74.938776" xlink:href="#mc5b06bd6b6" y="67.661602"/>
      </g>
     </g>
    </g>
    <g id="xtick_4">
     <g id="line2d_4">
      <g>
       <use style="fill:#a9a9a9;stroke:#a9a9a9;stroke-width:2;" x="97.714286" xlink:href="#mc5b06bd6b6" y="67.661602"/>
      </g>
     </g>
    </g>
    <g id="xtick_5">
     <g id="line2d_5">
      <g>
       <use style="fill:#a9a9a9;stroke:#a9a9a9;stroke-width:2;" x="120.489796" xlink:href="#mc5b06bd6b6" y="67.661602"/>
      </g>
     </g>
    </g>
   </g>
   <g id="matplotlib.axis_2"/>
   <g id="line2d_6">
    <path clip-path="url(#p87a1d714cf)" d="M 18 67.661602 
L 20.277551 67.661602 
L 22.555102 67.661602 
L 24.832653 67.661602 
L 27.110204 67.661602 
L 29.387755 67.661575 
L 31.665306 67.635916 
L 33.942857 67.480299 
L 36.220408 67.114011 
L 38.497959 66.286157 
L 40.77551 65.085211 
L 43.053061 63.257997 
L 45.330612 61.050302 
L 47.608163 57.993355 
L 49.885714 54.531324 
L 52.163265 50.478251 
L 54.440816 46.093559 
L 56.718367 41.41979 
L 58.995918 36.540793 
L 61.273469 31.926927 
L 63.55102 28.456418 
L 65.828571 24.203504 
L 68.106122 22.331165 
L 70.383673 19.848427 
L 72.661224 19.418585 
L 74.938776 25.624617 
L 77.216327 21.17428 
L 79.493878 24.042617 
L 81.771429 27.288083 
L 84.04898 31.432215 
L 86.326531 35.290327 
L 88.604082 39.528515 
L 90.881633 44.26933 
L 93.159184 47.985364 
L 95.436735 51.801922 
L 97.714286 55.309784 
L 99.991837 58.084585 
L 102.269388 60.841741 
L 104.546939 62.732339 
L 106.82449 64.400413 
L 109.102041 65.816011 
L 111.379592 66.716079 
L 113.657143 67.230305 
L 115.934694 67.517858 
L 118.212245 67.648095 
L 120.489796 67.661604 
L 122.767347 67.661602 
L 125.044898 67.661602 
L 127.322449 67.661602 
L 129.6 67.661602 
" style="fill:none;stroke:#fc8d62;stroke-linecap:square;stroke-width:2;"/>
   </g>
   <g id="line2d_7">
    <path clip-path="url(#p87a1d714cf)" d="M 18 67.661602 
L 20.277551 67.661602 
L 22.555102 67.661602 
L 24.832653 67.661602 
L 27.110204 67.661602 
L 29.387755 67.661409 
L 31.665306 67.642647 
L 33.942857 67.456922 
L 36.220408 67.098806 
L 38.497959 66.336527 
L 40.77551 65.242633 
L 43.053061 63.51869 
L 45.330612 61.340162 
L 47.608163 58.967958 
L 49.885714 55.667587 
L 52.163265 52.388761 
L 54.440816 47.972058 
L 56.718367 44.485335 
L 58.995918 39.894947 
L 61.273469 35.60305 
L 63.55102 31.685308 
L 65.828571 27.811451 
L 68.106122 24.806383 
L 70.383673 22.210531 
L 72.661224 20.824467 
L 74.938776 25.146727 
L 77.216327 21.218246 
L 79.493878 22.5339 
L 81.771429 25.577154 
L 84.04898 28.483876 
L 86.326531 32.419219 
L 88.604082 36.29899 
L 90.881633 40.432062 
L 93.159184 44.602796 
L 95.436735 48.585875 
L 97.714286 52.878531 
L 99.991837 56.411529 
L 102.269388 59.457063 
L 104.546939 62.081963 
L 106.82449 63.934072 
L 109.102041 65.385569 
L 111.379592 66.585429 
L 113.657143 67.197214 
L 115.934694 67.528062 
L 118.212245 67.648688 
L 120.489796 67.661621 
L 122.767347 67.661602 
L 125.044898 67.661602 
L 127.322449 67.661602 
L 129.6 67.661602 
" style="fill:none;stroke:#fc8d62;stroke-dasharray:1.5,1.5;stroke-dashoffset:0;stroke-opacity:0.7;stroke-width:1.5;"/>
   </g>
   <g id="patch_3">
    <path d="M 74.938776 67.68 
L 74.938776 17.28 
" style="fill:none;stroke:#a9a9a9;stroke-linecap:square;stroke-linejoin:miter;stroke-width:2;"/>
   </g>
   <g id="patch_4">
    <path d="M 129.6 67.68 
L 129.6 17.28 
" style="fill:none;"/>
   </g>
   <g id="patch_5">
    <path d="M 18 67.661602 
L 129.6 67.661602 
" style="fill:none;stroke:#a9a9a9;stroke-linecap:square;stroke-linejoin:miter;stroke-width:2;"/>
   </g>
   <g id="patch_6">
    <path d="M 18 17.28 
L 129.6 17.28 
" style="fill:none;"/>
   </g>
   <g id="legend_1">
    <g id="line2d_8">
     <path d="M 87.67 26.448906 
L 101.67 26.448906 
" style="fill:none;stroke:#fc8d62;stroke-linecap:square;stroke-width:2;"/>
    </g>
    <g id="line2d_9"/>
    <g id="text_1">
     <!-- $\theta$ -->
     <g transform="translate(107.27 28.898906)scale(0.07 -0.07)">
      <defs>
       <path d="M 45.515625 34.671875 
L 14.453125 34.671875 
Q 12.359375 20.0625 14.5 13.875 
Q 17.1875 6.25 24.46875 6.25 
Q 31.78125 6.25 37.359375 13.921875 
Q 42.234375 20.65625 45.515625 34.671875 
z
M 47.015625 42.96875 
Q 48.34375 56.84375 46.625 61.71875 
Q 43.953125 69.4375 36.765625 69.4375 
Q 29.296875 69.4375 23.828125 61.8125 
Q 19.53125 55.671875 16.15625 42.96875 
z
M 38.1875 76.765625 
Q 49.90625 76.765625 54.59375 66.40625 
Q 59.28125 56.109375 55.71875 37.84375 
Q 52.203125 19.625 43.453125 9.28125 
Q 34.765625 -1.125 23.046875 -1.125 
Q 11.28125 -1.125 6.640625 9.28125 
Q 2 19.625 5.515625 37.84375 
Q 9.078125 56.109375 17.71875 66.40625 
Q 26.421875 76.765625 38.1875 76.765625 
z
" id="DejaVuSans-Oblique-952"/>
      </defs>
      <use transform="translate(0 0.234375)" xlink:href="#DejaVuSans-Oblique-952"/>
     </g>
    </g>
    <g id="line2d_10">
     <path d="M 87.67 36.723594 
L 101.67 36.723594 
" style="fill:none;stroke:#fc8d62;stroke-dasharray:1.5,1.5;stroke-dashoffset:0;stroke-opacity:0.7;stroke-width:1.5;"/>
    </g>
    <g id="line2d_11"/>
    <g id="text_2">
     <!-- No $\theta$ -->
     <g transform="translate(107.27 39.173594)scale(0.07 -0.07)">
      <defs>
       <path d="M 9.8125 72.90625 
L 23.09375 72.90625 
L 55.421875 11.921875 
L 55.421875 72.90625 
L 64.984375 72.90625 
L 64.984375 0 
L 51.703125 0 
L 19.390625 60.984375 
L 19.390625 0 
L 9.8125 0 
z
" id="DejaVuSans-78"/>
       <path d="M 30.609375 48.390625 
Q 23.390625 48.390625 19.1875 42.75 
Q 14.984375 37.109375 14.984375 27.296875 
Q 14.984375 17.484375 19.15625 11.84375 
Q 23.34375 6.203125 30.609375 6.203125 
Q 37.796875 6.203125 41.984375 11.859375 
Q 46.1875 17.53125 46.1875 27.296875 
Q 46.1875 37.015625 41.984375 42.703125 
Q 37.796875 48.390625 30.609375 48.390625 
z
M 30.609375 56 
Q 42.328125 56 49.015625 48.375 
Q 55.71875 40.765625 55.71875 27.296875 
Q 55.71875 13.875 49.015625 6.21875 
Q 42.328125 -1.421875 30.609375 -1.421875 
Q 18.84375 -1.421875 12.171875 6.21875 
Q 5.515625 13.875 5.515625 27.296875 
Q 5.515625 40.765625 12.171875 48.375 
Q 18.84375 56 30.609375 56 
z
" id="DejaVuSans-111"/>
       <path id="DejaVuSans-32"/>
      </defs>
      <use transform="translate(0 0.234375)" xlink:href="#DejaVuSans-78"/>
      <use transform="translate(74.804688 0.234375)" xlink:href="#DejaVuSans-111"/>
      <use transform="translate(135.986328 0.234375)" xlink:href="#DejaVuSans-32"/>
      <use transform="translate(167.773438 0.234375)" xlink:href="#DejaVuSans-Oblique-952"/>
     </g>
    </g>
   </g>
  </g>
  <g id="axes_2">
   <g id="patch_7">
    <path d="M 18 128.16 
L 129.6 128.16 
L 129.6 77.76 
L 18 77.76 
z
" style="fill:none;"/>
   </g>
   <g id="PolyCollection_3">
    <path clip-path="url(#p349b97a723)" d="M 18 120.490445 
L 18 120.410795 
L 20.277551 120.628591 
L 22.555102 120.692668 
L 24.832653 120.610276 
L 27.110204 120.430166 
L 29.387755 120.230353 
L 31.665306 120.059592 
L 33.942857 119.777369 
L 36.220408 119.221943 
L 38.497959 118.265939 
L 40.77551 116.817652 
L 43.053061 114.824947 
L 45.330612 112.279548 
L 47.608163 109.213658 
L 49.885714 105.695852 
L 52.163265 101.827094 
L 54.440816 97.737176 
L 56.718367 93.580647 
L 58.995918 89.53209 
L 61.273469 85.780962 
L 63.55102 82.526105 
L 65.828571 79.970417 
L 68.106122 78.315996 
L 70.383673 77.76 
L 72.661224 78.49138 
L 74.938776 80.678624 
L 77.216327 84.41109 
L 79.493878 89.288934 
L 81.771429 94.865002 
L 84.04898 100.721738 
L 86.326531 106.495058 
L 88.604082 111.88351 
L 90.881633 116.653003 
L 93.159184 120.638177 
L 95.436735 123.741583 
L 97.714286 125.931836 
L 99.991837 127.237859 
L 102.269388 127.737592 
L 104.546939 127.544656 
L 106.82449 126.797478 
L 109.102041 125.650335 
L 111.379592 124.265422 
L 113.657143 122.805917 
L 115.934694 121.430748 
L 118.212245 120.293047 
L 120.489796 119.543933 
L 122.767347 119.281136 
L 125.044898 119.386786 
L 127.322449 119.698474 
L 129.6 120.076142 
L 129.6 120.183402 
L 129.6 120.183402 
L 127.322449 119.831975 
L 125.044898 119.540266 
L 122.767347 119.445666 
L 120.489796 119.712178 
L 118.212245 120.468307 
L 115.934694 121.631085 
L 113.657143 123.050166 
L 111.379592 124.561904 
L 109.102041 125.996262 
L 106.82449 127.182444 
L 104.546939 127.954731 
L 102.269388 128.16 
L 99.991837 127.666879 
L 97.714286 126.37545 
L 95.436735 124.225346 
L 93.159184 121.200377 
L 90.881633 117.333327 
L 88.604082 112.713706 
L 86.326531 107.495646 
L 84.04898 101.9017 
L 81.771429 96.222339 
L 79.493878 90.811148 
L 77.216327 86.075709 
L 74.938776 82.453923 
L 72.661224 80.338517 
L 70.383673 79.636396 
L 68.106122 80.178383 
L 65.828571 81.776801 
L 63.55102 84.237611 
L 61.273469 87.363578 
L 58.995918 90.958236 
L 56.718367 94.830484 
L 54.440816 98.799544 
L 52.163265 102.699972 
L 49.885714 106.386498 
L 47.608163 109.738207 
L 45.330612 112.66224 
L 43.053061 115.097203 
L 40.77551 117.015179 
L 38.497959 118.422322 
L 36.220408 119.358542 
L 33.942857 119.902806 
L 31.665306 120.175526 
L 29.387755 120.335298 
L 27.110204 120.519375 
L 24.832653 120.680606 
L 22.555102 120.74864 
L 20.277551 120.687383 
L 18 120.490445 
z
" style="fill:#66c2a5;fill-opacity:0.2;"/>
   </g>
   <g id="matplotlib.axis_3">
    <g id="xtick_6">
     <g id="line2d_12">
      <g>
       <use style="fill:#a9a9a9;stroke:#a9a9a9;stroke-width:2;" x="29.387755" xlink:href="#mc5b06bd6b6" y="122.157254"/>
      </g>
     </g>
    </g>
    <g id="xtick_7">
     <g id="line2d_13">
      <g>
       <use style="fill:#a9a9a9;stroke:#a9a9a9;stroke-width:2;" x="52.163265" xlink:href="#mc5b06bd6b6" y="122.157254"/>
      </g>
     </g>
    </g>
    <g id="xtick_8">
     <g id="line2d_14">
      <g>
       <use style="fill:#a9a9a9;stroke:#a9a9a9;stroke-width:2;" x="74.938776" xlink:href="#mc5b06bd6b6" y="122.157254"/>
      </g>
     </g>
    </g>
    <g id="xtick_9">
     <g id="line2d_15">
      <g>
       <use style="fill:#a9a9a9;stroke:#a9a9a9;stroke-width:2;" x="97.714286" xlink:href="#mc5b06bd6b6" y="122.157254"/>
      </g>
     </g>
    </g>
    <g id="xtick_10">
     <g id="line2d_16">
      <g>
       <use style="fill:#a9a9a9;stroke:#a9a9a9;stroke-width:2;" x="120.489796" xlink:href="#mc5b06bd6b6" y="122.157254"/>
      </g>
     </g>
    </g>
   </g>
   <g id="matplotlib.axis_4"/>
   <g id="line2d_17">
    <path clip-path="url(#p349b97a723)" d="M 18 120.45062 
L 20.277551 120.657987 
L 22.555102 120.720654 
L 24.832653 120.645441 
L 27.110204 120.474771 
L 29.387755 120.282825 
L 31.665306 120.117559 
L 33.942857 119.840088 
L 36.220408 119.290243 
L 38.497959 118.344131 
L 40.77551 116.916415 
L 43.053061 114.961075 
L 45.330612 112.470894 
L 47.608163 109.475933 
L 49.885714 106.041175 
L 52.163265 102.263533 
L 54.440816 98.26836 
L 56.718367 94.205566 
L 58.995918 90.245163 
L 61.273469 86.57227 
L 63.55102 83.381858 
L 65.828571 80.873609 
L 68.106122 79.24719 
L 70.383673 78.698198 
L 72.661224 79.414948 
L 74.938776 81.566274 
L 77.216327 85.2434 
L 79.493878 90.050041 
L 81.771429 95.54367 
L 84.04898 101.311719 
L 86.326531 106.995352 
L 88.604082 112.298608 
L 90.881633 116.993165 
L 93.159184 120.919277 
L 95.436735 123.983464 
L 97.714286 126.153643 
L 99.991837 127.452369 
L 102.269388 127.948796 
L 104.546939 127.749694 
L 106.82449 126.989961 
L 109.102041 125.823298 
L 111.379592 124.413663 
L 113.657143 122.928041 
L 115.934694 121.530917 
L 118.212245 120.380677 
L 120.489796 119.628055 
L 122.767347 119.363401 
L 125.044898 119.463526 
L 127.322449 119.765225 
L 129.6 120.129772 
" style="fill:none;stroke:#66c2a5;stroke-linecap:square;stroke-width:2;"/>
   </g>
   <g id="patch_8">
    <path d="M 74.938776 128.16 
L 74.938776 77.76 
" style="fill:none;stroke:#a9a9a9;stroke-linecap:square;stroke-linejoin:miter;stroke-width:2;"/>
   </g>
   <g id="patch_9">
    <path d="M 129.6 128.16 
L 129.6 77.76 
" style="fill:none;"/>
   </g>
   <g id="patch_10">
    <path d="M 18 122.157254 
L 129.6 122.157254 
" style="fill:none;stroke:#a9a9a9;stroke-linecap:square;stroke-linejoin:miter;stroke-width:2;"/>
   </g>
   <g id="patch_11">
    <path d="M 18 77.76 
L 129.6 77.76 
" style="fill:none;"/>
   </g>
  </g>
 </g>
 <defs>
  <clipPath id="p87a1d714cf">
   <rect height="50.4" width="111.6" x="18" y="17.28"/>
  </clipPath>
  <clipPath id="p349b97a723">
   <rect height="50.4" width="111.6" x="18" y="77.76"/>
  </clipPath>
 </defs>
</svg>
