<?xml version="1.0" encoding="utf-8" standalone="no"?>
<!DOCTYPE svg PUBLIC "-//W3C//DTD SVG 1.1//EN"
  "http://www.w3.org/Graphics/SVG/1.1/DTD/svg11.dtd">
<!-- Created with matplotlib (https://matplotlib.org/) -->
<svg height="144pt" version="1.1" viewBox="0 0 144 144" width="144pt" xmlns="http://www.w3.org/2000/svg" xmlns:xlink="http://www.w3.org/1999/xlink">
 <metadata>
  <rdf:RDF xmlns:cc="http://creativecommons.org/ns#" xmlns:dc="http://purl.org/dc/elements/1.1/" xmlns:rdf="http://www.w3.org/1999/02/22-rdf-syntax-ns#">
   <cc:Work>
    <dc:type rdf:resource="http://purl.org/dc/dcmitype/StillImage"/>
    <dc:date>2021-10-13T15:36:31.082470</dc:date>
    <dc:format>image/svg+xml</dc:format>
    <dc:creator>
     <cc:Agent>
      <dc:title>Matplotlib v3.3.2, https://matplotlib.org/</dc:title>
     </cc:Agent>
    </dc:creator>
   </cc:Work>
  </rdf:RDF>
 </metadata>
 <defs>
  <style type="text/css">*{stroke-linecap:butt;stroke-linejoin:round;}</style>
 </defs>
 <g id="figure_1">
  <g id="patch_1">
   <path d="M 0 144 
L 144 144 
L 144 0 
L 0 0 
z
" style="fill:none;"/>
  </g>
  <g id="axes_1">
   <g id="patch_2">
    <path d="M 18 67.68 
L 129.6 67.68 
L 129.6 17.28 
L 18 17.28 
z
" style="fill:none;"/>
   </g>
   <g id="PolyCollection_1">
    <path clip-path="url(#p0c37aadc86)" d="M 18 48.140244 
L 18 48.140244 
L 20.277551 48.140244 
L 22.555102 48.140244 
L 24.832653 48.140244 
L 27.110204 48.140244 
L 29.387755 48.1402 
L 31.665306 47.963686 
L 33.942857 47.607668 
L 36.220408 46.988324 
L 38.497959 46.213105 
L 40.77551 44.428459 
L 43.053061 43.257358 
L 45.330612 41.303197 
L 47.608163 40.405897 
L 49.885714 35.651273 
L 52.163265 33.618497 
L 54.440816 29.118869 
L 56.718367 28.082929 
L 58.995918 22.348244 
L 61.273469 21.981741 
L 63.55102 17.28 
L 65.828571 22.186414 
L 68.106122 23.399518 
L 70.383673 24.052705 
L 72.661224 29.184429 
L 74.938776 42.556249 
L 77.216327 35.493412 
L 79.493878 43.508346 
L 81.771429 42.497136 
L 84.04898 47.918464 
L 86.326531 49.299724 
L 88.604082 50.06802 
L 90.881633 53.315202 
L 93.159184 51.031882 
L 95.436735 50.39028 
L 97.714286 50.806737 
L 99.991837 50.242507 
L 102.269388 47.777251 
L 104.546939 47.862203 
L 106.82449 46.86898 
L 109.102041 47.807643 
L 111.379592 47.45124 
L 113.657143 47.403943 
L 115.934694 47.658048 
L 118.212245 48.002831 
L 120.489796 48.140161 
L 122.767347 48.140244 
L 125.044898 48.140244 
L 127.322449 48.140244 
L 129.6 48.140244 
L 129.6 48.140244 
L 129.6 48.140244 
L 127.322449 48.140244 
L 125.044898 48.140244 
L 122.767347 48.140244 
L 120.489796 48.140357 
L 118.212245 48.304406 
L 115.934694 48.615925 
L 113.657143 49.179289 
L 111.379592 49.840269 
L 109.102041 51.367836 
L 106.82449 52.181581 
L 104.546939 53.702656 
L 102.269388 54.021906 
L 99.991837 57.773956 
L 97.714286 58.819073 
L 95.436735 62.092994 
L 93.159184 61.959696 
L 90.881633 65.995829 
L 88.604082 65.367477 
L 86.326531 67.68 
L 84.04898 61.721507 
L 81.771429 59.050356 
L 79.493878 57.585502 
L 77.216327 52.149508 
L 74.938776 44.323415 
L 72.661224 45.517083 
L 70.383673 38.248465 
L 68.106122 40.299005 
L 65.828571 36.286011 
L 63.55102 36.532325 
L 61.273469 37.072067 
L 58.995918 35.721582 
L 56.718367 38.855974 
L 54.440816 41.061777 
L 52.163265 41.843897 
L 49.885714 43.533451 
L 47.608163 46.824492 
L 45.330612 47.25739 
L 43.053061 48.796429 
L 40.77551 48.085542 
L 38.497959 48.6234 
L 36.220408 48.831456 
L 33.942857 48.583086 
L 31.665306 48.283274 
L 29.387755 48.140277 
L 27.110204 48.140244 
L 24.832653 48.140244 
L 22.555102 48.140244 
L 20.277551 48.140244 
L 18 48.140244 
z
" style="fill:#fc8d62;fill-opacity:0.2;"/>
   </g>
   <g id="PolyCollection_2">
    <path clip-path="url(#p0c37aadc86)" d="M 18 48.140244 
L 18 48.140244 
L 20.277551 48.140244 
L 22.555102 48.140244 
L 24.832653 48.140244 
L 27.110204 48.140244 
L 29.387755 48.140233 
L 31.665306 48.000098 
L 33.942857 47.667485 
L 36.220408 47.453101 
L 38.497959 46.446213 
L 40.77551 46.079939 
L 43.053061 45.565253 
L 45.330612 43.452707 
L 47.608163 43.170084 
L 49.885714 41.711895 
L 52.163265 40.260944 
L 54.440816 38.661198 
L 56.718367 38.804906 
L 58.995918 36.946556 
L 61.273469 35.108226 
L 63.55102 34.107017 
L 65.828571 36.144898 
L 68.106122 34.778472 
L 70.383673 32.489918 
L 72.661224 34.708842 
L 74.938776 43.491039 
L 77.216327 35.303258 
L 79.493878 35.118552 
L 81.771429 35.154124 
L 84.04898 34.549573 
L 86.326531 36.364195 
L 88.604082 41.474997 
L 90.881633 40.86516 
L 93.159184 40.889244 
L 95.436735 43.118843 
L 97.714286 43.519252 
L 99.991837 42.255146 
L 102.269388 44.158415 
L 104.546939 45.074991 
L 106.82449 45.694312 
L 109.102041 45.694428 
L 111.379592 46.894809 
L 113.657143 47.211347 
L 115.934694 47.726191 
L 118.212245 47.888694 
L 120.489796 48.140219 
L 122.767347 48.140244 
L 125.044898 48.140244 
L 127.322449 48.140244 
L 129.6 48.140244 
L 129.6 48.140244 
L 129.6 48.140244 
L 127.322449 48.140244 
L 125.044898 48.140244 
L 122.767347 48.140244 
L 120.489796 48.140278 
L 118.212245 48.297388 
L 115.934694 48.579488 
L 113.657143 48.752134 
L 111.379592 49.508415 
L 109.102041 49.63897 
L 106.82449 49.768967 
L 104.546939 51.501023 
L 102.269388 51.069056 
L 99.991837 51.543273 
L 97.714286 52.079655 
L 95.436735 53.123759 
L 93.159184 51.749765 
L 90.881633 52.622422 
L 88.604082 53.321083 
L 86.326531 52.686841 
L 84.04898 50.753676 
L 81.771429 51.017987 
L 79.493878 52.785349 
L 77.216327 50.031541 
L 74.938776 45.125421 
L 72.661224 50.137284 
L 70.383673 50.052106 
L 68.106122 50.52626 
L 65.828571 52.413163 
L 63.55102 50.956584 
L 61.273469 46.982537 
L 58.995918 48.529941 
L 56.718367 49.890493 
L 54.440816 48.579977 
L 52.163265 49.188755 
L 49.885714 51.158299 
L 47.608163 50.0169 
L 45.330612 49.861845 
L 43.053061 49.596836 
L 40.77551 49.869133 
L 38.497959 49.075819 
L 36.220408 48.928785 
L 33.942857 48.530776 
L 31.665306 48.3591 
L 29.387755 48.140252 
L 27.110204 48.140244 
L 24.832653 48.140244 
L 22.555102 48.140244 
L 20.277551 48.140244 
L 18 48.140244 
z
" style="fill:#fc8d62;fill-opacity:0.2;"/>
   </g>
   <g id="matplotlib.axis_1">
    <g id="xtick_1">
     <g id="line2d_1">
      <defs>
       <path d="M 0 0 
L 0 3.5 
" id="me5a5cfea2b" style="stroke:#a9a9a9;stroke-width:2;"/>
      </defs>
      <g>
       <use style="fill:#a9a9a9;stroke:#a9a9a9;stroke-width:2;" x="29.387755" xlink:href="#me5a5cfea2b" y="48.140244"/>
      </g>
     </g>
    </g>
    <g id="xtick_2">
     <g id="line2d_2">
      <g>
       <use style="fill:#a9a9a9;stroke:#a9a9a9;stroke-width:2;" x="52.163265" xlink:href="#me5a5cfea2b" y="48.140244"/>
      </g>
     </g>
    </g>
    <g id="xtick_3">
     <g id="line2d_3">
      <g>
       <use style="fill:#a9a9a9;stroke:#a9a9a9;stroke-width:2;" x="74.938776" xlink:href="#me5a5cfea2b" y="48.140244"/>
      </g>
     </g>
    </g>
    <g id="xtick_4">
     <g id="line2d_4">
      <g>
       <use style="fill:#a9a9a9;stroke:#a9a9a9;stroke-width:2;" x="97.714286" xlink:href="#me5a5cfea2b" y="48.140244"/>
      </g>
     </g>
    </g>
    <g id="xtick_5">
     <g id="line2d_5">
      <g>
       <use style="fill:#a9a9a9;stroke:#a9a9a9;stroke-width:2;" x="120.489796" xlink:href="#me5a5cfea2b" y="48.140244"/>
      </g>
     </g>
    </g>
   </g>
   <g id="matplotlib.axis_2"/>
   <g id="line2d_6">
    <path clip-path="url(#p0c37aadc86)" d="M 18 48.140244 
L 20.277551 48.140244 
L 22.555102 48.140244 
L 24.832653 48.140244 
L 27.110204 48.140244 
L 29.387755 48.140239 
L 31.665306 48.12348 
L 33.942857 48.095377 
L 36.220408 47.90989 
L 38.497959 47.418252 
L 40.77551 46.257 
L 43.053061 46.026893 
L 45.330612 44.280293 
L 47.608163 43.615195 
L 49.885714 39.592362 
L 52.163265 37.731197 
L 54.440816 35.090323 
L 56.718367 33.469451 
L 58.995918 29.034913 
L 61.273469 29.526904 
L 63.55102 26.906163 
L 65.828571 29.236213 
L 68.106122 31.849261 
L 70.383673 31.150585 
L 72.661224 37.350756 
L 74.938776 43.439832 
L 77.216327 43.82146 
L 79.493878 50.546924 
L 81.771429 50.773746 
L 84.04898 54.819985 
L 86.326531 58.489862 
L 88.604082 57.717749 
L 90.881633 59.655516 
L 93.159184 56.495789 
L 95.436735 56.241637 
L 97.714286 54.812905 
L 99.991837 54.008231 
L 102.269388 50.899579 
L 104.546939 50.78243 
L 106.82449 49.525281 
L 109.102041 49.587739 
L 111.379592 48.645755 
L 113.657143 48.291616 
L 115.934694 48.136987 
L 118.212245 48.153618 
L 120.489796 48.140259 
L 122.767347 48.140244 
L 125.044898 48.140244 
L 127.322449 48.140244 
L 129.6 48.140244 
" style="fill:none;stroke:#fc8d62;stroke-linecap:square;stroke-width:2;"/>
   </g>
   <g id="line2d_7">
    <path clip-path="url(#p0c37aadc86)" d="M 18 48.140244 
L 20.277551 48.140244 
L 22.555102 48.140244 
L 24.832653 48.140244 
L 27.110204 48.140244 
L 29.387755 48.140243 
L 31.665306 48.179599 
L 33.942857 48.09913 
L 36.220408 48.190943 
L 38.497959 47.761016 
L 40.77551 47.974536 
L 43.053061 47.581044 
L 45.330612 46.657276 
L 47.608163 46.593492 
L 49.885714 46.435097 
L 52.163265 44.72485 
L 54.440816 43.620587 
L 56.718367 44.3477 
L 58.995918 42.738249 
L 61.273469 41.045382 
L 63.55102 42.5318 
L 65.828571 44.279031 
L 68.106122 42.652366 
L 70.383673 41.271012 
L 72.661224 42.423063 
L 74.938776 44.30823 
L 77.216327 42.667399 
L 79.493878 43.95195 
L 81.771429 43.086056 
L 84.04898 42.651625 
L 86.326531 44.525518 
L 88.604082 47.39804 
L 90.881633 46.743791 
L 93.159184 46.319505 
L 95.436735 48.121301 
L 97.714286 47.799453 
L 99.991837 46.899209 
L 102.269388 47.613735 
L 104.546939 48.288007 
L 106.82449 47.731639 
L 109.102041 47.666699 
L 111.379592 48.201612 
L 113.657143 47.98174 
L 115.934694 48.15284 
L 118.212245 48.093041 
L 120.489796 48.140249 
L 122.767347 48.140244 
L 125.044898 48.140244 
L 127.322449 48.140244 
L 129.6 48.140244 
" style="fill:none;stroke:#fc8d62;stroke-dasharray:1.5,1.5;stroke-dashoffset:0;stroke-opacity:0.7;stroke-width:1.5;"/>
   </g>
   <g id="patch_3">
    <path d="M 74.938776 67.68 
L 74.938776 17.28 
" style="fill:none;stroke:#a9a9a9;stroke-linecap:square;stroke-linejoin:miter;stroke-width:2;"/>
   </g>
   <g id="patch_4">
    <path d="M 129.6 67.68 
L 129.6 17.28 
" style="fill:none;"/>
   </g>
   <g id="patch_5">
    <path d="M 18 48.140244 
L 129.6 48.140244 
" style="fill:none;stroke:#a9a9a9;stroke-linecap:square;stroke-linejoin:miter;stroke-width:2;"/>
   </g>
   <g id="patch_6">
    <path d="M 18 17.28 
L 129.6 17.28 
" style="fill:none;"/>
   </g>
   <g id="legend_1">
    <g id="line2d_8">
     <path d="M 87.67 26.448906 
L 101.67 26.448906 
" style="fill:none;stroke:#fc8d62;stroke-linecap:square;stroke-width:2;"/>
    </g>
    <g id="line2d_9"/>
    <g id="text_1">
     <!-- $\theta$ -->
     <g transform="translate(107.27 28.898906)scale(0.07 -0.07)">
      <defs>
       <path d="M 45.515625 34.671875 
L 14.453125 34.671875 
Q 12.359375 20.0625 14.5 13.875 
Q 17.1875 6.25 24.46875 6.25 
Q 31.78125 6.25 37.359375 13.921875 
Q 42.234375 20.65625 45.515625 34.671875 
z
M 47.015625 42.96875 
Q 48.34375 56.84375 46.625 61.71875 
Q 43.953125 69.4375 36.765625 69.4375 
Q 29.296875 69.4375 23.828125 61.8125 
Q 19.53125 55.671875 16.15625 42.96875 
z
M 38.1875 76.765625 
Q 49.90625 76.765625 54.59375 66.40625 
Q 59.28125 56.109375 55.71875 37.84375 
Q 52.203125 19.625 43.453125 9.28125 
Q 34.765625 -1.125 23.046875 -1.125 
Q 11.28125 -1.125 6.640625 9.28125 
Q 2 19.625 5.515625 37.84375 
Q 9.078125 56.109375 17.71875 66.40625 
Q 26.421875 76.765625 38.1875 76.765625 
z
" id="DejaVuSans-Oblique-952"/>
      </defs>
      <use transform="translate(0 0.234375)" xlink:href="#DejaVuSans-Oblique-952"/>
     </g>
    </g>
    <g id="line2d_10">
     <path d="M 87.67 36.723594 
L 101.67 36.723594 
" style="fill:none;stroke:#fc8d62;stroke-dasharray:1.5,1.5;stroke-dashoffset:0;stroke-opacity:0.7;stroke-width:1.5;"/>
    </g>
    <g id="line2d_11"/>
    <g id="text_2">
     <!-- No $\theta$ -->
     <g transform="translate(107.27 39.173594)scale(0.07 -0.07)">
      <defs>
       <path d="M 9.8125 72.90625 
L 23.09375 72.90625 
L 55.421875 11.921875 
L 55.421875 72.90625 
L 64.984375 72.90625 
L 64.984375 0 
L 51.703125 0 
L 19.390625 60.984375 
L 19.390625 0 
L 9.8125 0 
z
" id="DejaVuSans-78"/>
       <path d="M 30.609375 48.390625 
Q 23.390625 48.390625 19.1875 42.75 
Q 14.984375 37.109375 14.984375 27.296875 
Q 14.984375 17.484375 19.15625 11.84375 
Q 23.34375 6.203125 30.609375 6.203125 
Q 37.796875 6.203125 41.984375 11.859375 
Q 46.1875 17.53125 46.1875 27.296875 
Q 46.1875 37.015625 41.984375 42.703125 
Q 37.796875 48.390625 30.609375 48.390625 
z
M 30.609375 56 
Q 42.328125 56 49.015625 48.375 
Q 55.71875 40.765625 55.71875 27.296875 
Q 55.71875 13.875 49.015625 6.21875 
Q 42.328125 -1.421875 30.609375 -1.421875 
Q 18.84375 -1.421875 12.171875 6.21875 
Q 5.515625 13.875 5.515625 27.296875 
Q 5.515625 40.765625 12.171875 48.375 
Q 18.84375 56 30.609375 56 
z
" id="DejaVuSans-111"/>
       <path id="DejaVuSans-32"/>
      </defs>
      <use transform="translate(0 0.234375)" xlink:href="#DejaVuSans-78"/>
      <use transform="translate(74.804688 0.234375)" xlink:href="#DejaVuSans-111"/>
      <use transform="translate(135.986328 0.234375)" xlink:href="#DejaVuSans-32"/>
      <use transform="translate(167.773438 0.234375)" xlink:href="#DejaVuSans-Oblique-952"/>
     </g>
    </g>
   </g>
  </g>
  <g id="axes_2">
   <g id="patch_7">
    <path d="M 18 128.16 
L 129.6 128.16 
L 129.6 77.76 
L 18 77.76 
z
" style="fill:none;"/>
   </g>
   <g id="PolyCollection_3">
    <path clip-path="url(#p817dc0d87c)" d="M 18 120.478554 
L 18 120.397428 
L 20.277551 120.615348 
L 22.555102 120.680214 
L 24.832653 120.599296 
L 27.110204 120.420715 
L 29.387755 120.222237 
L 31.665306 120.052604 
L 33.942857 119.770993 
L 36.220408 119.215369 
L 38.497959 118.258197 
L 40.77551 116.808028 
L 43.053061 114.814249 
L 45.330612 112.268731 
L 47.608163 109.203472 
L 49.885714 105.686645 
L 52.163265 101.819046 
L 54.440816 97.730354 
L 56.718367 93.575028 
L 58.995918 89.527628 
L 61.273469 85.777595 
L 63.55102 82.523764 
L 65.828571 79.969015 
L 68.106122 78.315399 
L 70.383673 77.76 
L 72.661224 78.491655 
L 74.938776 80.678564 
L 77.216327 84.410207 
L 79.493878 89.286642 
L 81.771429 94.861079 
L 84.04898 100.716135 
L 86.326531 106.487836 
L 88.604082 111.874796 
L 90.881633 116.64303 
L 93.159184 120.627504 
L 95.436735 123.731118 
L 97.714286 125.922542 
L 99.991837 127.230249 
L 102.269388 127.731424 
L 104.546939 127.539266 
L 106.82449 126.792174 
L 109.102041 125.644535 
L 111.379592 124.258758 
L 113.657143 122.798225 
L 115.934694 121.422082 
L 118.212245 120.283507 
L 120.489796 119.533533 
L 122.767347 119.269842 
L 125.044898 119.374667 
L 127.322449 119.6857 
L 129.6 120.062943 
L 129.6 120.170714 
L 129.6 120.170714 
L 127.322449 119.819017 
L 125.044898 119.527563 
L 122.767347 119.433684 
L 120.489796 119.701257 
L 118.212245 120.458337 
L 115.934694 121.622185 
L 113.657143 123.042352 
L 111.379592 124.555174 
L 109.102041 125.990747 
L 106.82449 127.178387 
L 104.546939 127.952498 
L 102.269388 128.16 
L 99.991837 127.669457 
L 97.714286 126.380527 
L 95.436735 124.232116 
L 93.159184 121.207645 
L 90.881633 117.340026 
L 88.604082 112.719202 
L 86.326531 107.499709 
L 84.04898 101.904241 
L 81.771429 96.22333 
L 79.493878 90.810575 
L 77.216327 86.073556 
L 74.938776 82.450007 
L 72.661224 80.332489 
L 70.383673 79.628153 
L 68.106122 80.16813 
L 65.828571 81.764893 
L 63.55102 84.224517 
L 61.273469 87.34984 
L 58.995918 90.944435 
L 56.718367 94.817201 
L 54.440816 98.787309 
L 52.163265 102.689225 
L 49.885714 106.3775 
L 47.608163 109.730996 
L 45.330612 112.656572 
L 43.053061 115.092319 
L 40.77551 117.010009 
L 38.497959 118.415848 
L 36.220408 119.351181 
L 33.942857 119.89515 
L 31.665306 120.167926 
L 29.387755 120.327735 
L 27.110204 120.511198 
L 24.832653 120.671727 
L 22.555102 120.739043 
L 20.277551 120.676696 
L 18 120.478554 
z
" style="fill:#66c2a5;fill-opacity:0.2;"/>
   </g>
   <g id="matplotlib.axis_3">
    <g id="xtick_6">
     <g id="line2d_12">
      <g>
       <use style="fill:#a9a9a9;stroke:#a9a9a9;stroke-width:2;" x="29.387755" xlink:href="#me5a5cfea2b" y="122.146635"/>
      </g>
     </g>
    </g>
    <g id="xtick_7">
     <g id="line2d_13">
      <g>
       <use style="fill:#a9a9a9;stroke:#a9a9a9;stroke-width:2;" x="52.163265" xlink:href="#me5a5cfea2b" y="122.146635"/>
      </g>
     </g>
    </g>
    <g id="xtick_8">
     <g id="line2d_14">
      <g>
       <use style="fill:#a9a9a9;stroke:#a9a9a9;stroke-width:2;" x="74.938776" xlink:href="#me5a5cfea2b" y="122.146635"/>
      </g>
     </g>
    </g>
    <g id="xtick_9">
     <g id="line2d_15">
      <g>
       <use style="fill:#a9a9a9;stroke:#a9a9a9;stroke-width:2;" x="97.714286" xlink:href="#me5a5cfea2b" y="122.146635"/>
      </g>
     </g>
    </g>
    <g id="xtick_10">
     <g id="line2d_16">
      <g>
       <use style="fill:#a9a9a9;stroke:#a9a9a9;stroke-width:2;" x="120.489796" xlink:href="#me5a5cfea2b" y="122.146635"/>
      </g>
     </g>
    </g>
   </g>
   <g id="matplotlib.axis_4"/>
   <g id="line2d_17">
    <path clip-path="url(#p817dc0d87c)" d="M 18 120.437991 
L 20.277551 120.646022 
L 22.555102 120.709629 
L 24.832653 120.635512 
L 27.110204 120.465957 
L 29.387755 120.274986 
L 31.665306 120.110265 
L 33.942857 119.833071 
L 36.220408 119.283275 
L 38.497959 118.337022 
L 40.77551 116.909018 
L 43.053061 114.953284 
L 45.330612 112.462651 
L 47.608163 109.467234 
L 49.885714 106.032073 
L 52.163265 102.254136 
L 54.440816 98.258831 
L 56.718367 94.196115 
L 58.995918 90.236032 
L 61.273469 86.563717 
L 63.55102 83.37414 
L 65.828571 80.866954 
L 68.106122 79.241765 
L 70.383673 78.694076 
L 72.661224 79.412072 
L 74.938776 81.564286 
L 77.216327 85.241882 
L 79.493878 90.048609 
L 81.771429 95.542204 
L 84.04898 101.310188 
L 86.326531 106.993772 
L 88.604082 112.296999 
L 90.881633 116.991528 
L 93.159184 120.917574 
L 95.436735 123.981617 
L 97.714286 126.151534 
L 99.991837 127.449853 
L 102.269388 127.945712 
L 104.546939 127.745882 
L 106.82449 126.98528 
L 109.102041 125.817641 
L 111.379592 124.406966 
L 113.657143 122.920288 
L 115.934694 121.522134 
L 118.212245 120.370922 
L 120.489796 119.617395 
L 122.767347 119.351763 
L 125.044898 119.451115 
L 127.322449 119.752359 
L 129.6 120.116829 
" style="fill:none;stroke:#66c2a5;stroke-linecap:square;stroke-width:2;"/>
   </g>
   <g id="patch_8">
    <path d="M 74.938776 128.16 
L 74.938776 77.76 
" style="fill:none;stroke:#a9a9a9;stroke-linecap:square;stroke-linejoin:miter;stroke-width:2;"/>
   </g>
   <g id="patch_9">
    <path d="M 129.6 128.16 
L 129.6 77.76 
" style="fill:none;"/>
   </g>
   <g id="patch_10">
    <path d="M 18 122.146635 
L 129.6 122.146635 
" style="fill:none;stroke:#a9a9a9;stroke-linecap:square;stroke-linejoin:miter;stroke-width:2;"/>
   </g>
   <g id="patch_11">
    <path d="M 18 77.76 
L 129.6 77.76 
" style="fill:none;"/>
   </g>
  </g>
 </g>
 <defs>
  <clipPath id="p0c37aadc86">
   <rect height="50.4" width="111.6" x="18" y="17.28"/>
  </clipPath>
  <clipPath id="p817dc0d87c">
   <rect height="50.4" width="111.6" x="18" y="77.76"/>
  </clipPath>
 </defs>
</svg>
