<?xml version="1.0" encoding="utf-8" standalone="no"?>
<!DOCTYPE svg PUBLIC "-//W3C//DTD SVG 1.1//EN"
  "http://www.w3.org/Graphics/SVG/1.1/DTD/svg11.dtd">
<!-- Created with matplotlib (https://matplotlib.org/) -->
<svg height="144pt" version="1.1" viewBox="0 0 144 144" width="144pt" xmlns="http://www.w3.org/2000/svg" xmlns:xlink="http://www.w3.org/1999/xlink">
 <metadata>
  <rdf:RDF xmlns:cc="http://creativecommons.org/ns#" xmlns:dc="http://purl.org/dc/elements/1.1/" xmlns:rdf="http://www.w3.org/1999/02/22-rdf-syntax-ns#">
   <cc:Work>
    <dc:type rdf:resource="http://purl.org/dc/dcmitype/StillImage"/>
    <dc:date>2021-10-15T00:04:36.343408</dc:date>
    <dc:format>image/svg+xml</dc:format>
    <dc:creator>
     <cc:Agent>
      <dc:title>Matplotlib v3.3.2, https://matplotlib.org/</dc:title>
     </cc:Agent>
    </dc:creator>
   </cc:Work>
  </rdf:RDF>
 </metadata>
 <defs>
  <style type="text/css">*{stroke-linecap:butt;stroke-linejoin:round;}</style>
 </defs>
 <g id="figure_1">
  <g id="patch_1">
   <path d="M 0 144 
L 144 144 
L 144 0 
L 0 0 
z
" style="fill:none;"/>
  </g>
  <g id="axes_1">
   <g id="patch_2">
    <path d="M 18 67.68 
L 129.6 67.68 
L 129.6 17.28 
L 18 17.28 
z
" style="fill:none;"/>
   </g>
   <g id="PolyCollection_1">
    <path clip-path="url(#p541c7ae906)" d="M 18 67.650825 
L 18 67.650825 
L 20.277551 67.650825 
L 22.555102 67.650825 
L 24.832653 67.650825 
L 27.110204 67.650825 
L 29.387755 67.650824 
L 31.665306 67.593472 
L 33.942857 67.353679 
L 36.220408 66.772666 
L 38.497959 65.930361 
L 40.77551 64.432469 
L 43.053061 62.209293 
L 45.330612 59.295929 
L 47.608163 55.72791 
L 49.885714 50.911649 
L 52.163265 45.633311 
L 54.440816 39.86754 
L 56.718367 34.516311 
L 58.995918 29.768676 
L 61.273469 24.314971 
L 63.55102 20.373197 
L 65.828571 18.405494 
L 68.106122 17.28 
L 70.383673 17.384539 
L 72.661224 20.076813 
L 74.938776 25.332113 
L 77.216327 28.372077 
L 79.493878 32.653146 
L 81.771429 37.435466 
L 84.04898 42.563866 
L 86.326531 47.915665 
L 88.604082 51.333426 
L 90.881633 54.214433 
L 93.159184 56.93462 
L 95.436735 59.364957 
L 97.714286 60.751056 
L 99.991837 62.016824 
L 102.269388 63.384257 
L 104.546939 64.643362 
L 106.82449 65.254335 
L 109.102041 66.1374 
L 111.379592 66.689129 
L 113.657143 67.118167 
L 115.934694 67.434223 
L 118.212245 67.600676 
L 120.489796 67.650825 
L 122.767347 67.650825 
L 125.044898 67.650825 
L 127.322449 67.650825 
L 129.6 67.650825 
L 129.6 67.650825 
L 129.6 67.650825 
L 127.322449 67.650825 
L 125.044898 67.650825 
L 122.767347 67.650825 
L 120.489796 67.650825 
L 118.212245 67.674561 
L 115.934694 67.68 
L 113.657143 67.667184 
L 111.379592 67.388828 
L 109.102041 66.92483 
L 106.82449 66.557204 
L 104.546939 66.167555 
L 102.269388 65.268447 
L 99.991837 64.830565 
L 97.714286 63.802848 
L 95.436735 62.842984 
L 93.159184 61.155994 
L 90.881633 58.853705 
L 88.604082 56.217616 
L 86.326531 53.104627 
L 84.04898 48.42977 
L 81.771429 43.926661 
L 79.493878 39.309222 
L 77.216327 34.040502 
L 74.938776 27.808508 
L 72.661224 26.221074 
L 70.383673 25.103975 
L 68.106122 24.471376 
L 65.828571 24.968756 
L 63.55102 26.178053 
L 61.273469 29.978913 
L 58.995918 34.212061 
L 56.718367 39.141771 
L 54.440816 43.914106 
L 52.163265 48.941587 
L 49.885714 53.748382 
L 47.608163 57.864015 
L 45.330612 61.106219 
L 43.053061 63.772392 
L 40.77551 65.521356 
L 38.497959 66.731769 
L 36.220408 67.349344 
L 33.942857 67.619152 
L 31.665306 67.669258 
L 29.387755 67.650825 
L 27.110204 67.650825 
L 24.832653 67.650825 
L 22.555102 67.650825 
L 20.277551 67.650825 
L 18 67.650825 
z
" style="fill:#fc8d62;fill-opacity:0.2;"/>
   </g>
   <g id="PolyCollection_2">
    <path clip-path="url(#p541c7ae906)" d="M 18 67.650825 
L 18 67.650825 
L 20.277551 67.650825 
L 22.555102 67.650825 
L 24.832653 67.650825 
L 27.110204 67.650825 
L 29.387755 67.650774 
L 31.665306 67.572308 
L 33.942857 67.348753 
L 36.220408 66.979487 
L 38.497959 66.16262 
L 40.77551 65.08949 
L 43.053061 63.655336 
L 45.330612 61.448667 
L 47.608163 59.174249 
L 49.885714 56.437105 
L 52.163265 53.268495 
L 54.440816 49.849166 
L 56.718367 45.833034 
L 58.995918 42.140828 
L 61.273469 38.704085 
L 63.55102 34.508342 
L 65.828571 31.499549 
L 68.106122 28.142688 
L 70.383673 26.191915 
L 72.661224 24.886447 
L 74.938776 26.06427 
L 77.216327 24.611056 
L 79.493878 27.402548 
L 81.771429 30.184489 
L 84.04898 31.98502 
L 86.326531 35.49884 
L 88.604082 38.471563 
L 90.881633 42.391497 
L 93.159184 46.586385 
L 95.436735 49.748142 
L 97.714286 53.360107 
L 99.991837 56.864728 
L 102.269388 59.701022 
L 104.546939 61.903451 
L 106.82449 63.720145 
L 109.102041 65.382126 
L 111.379592 66.21957 
L 113.657143 66.969311 
L 115.934694 67.394256 
L 118.212245 67.585651 
L 120.489796 67.650824 
L 122.767347 67.650825 
L 125.044898 67.650825 
L 127.322449 67.650825 
L 129.6 67.650825 
L 129.6 67.650825 
L 129.6 67.650825 
L 127.322449 67.650825 
L 125.044898 67.650825 
L 122.767347 67.650825 
L 120.489796 67.650825 
L 118.212245 67.695768 
L 115.934694 67.681224 
L 113.657143 67.450406 
L 111.379592 67.077174 
L 109.102041 66.347892 
L 106.82449 65.322134 
L 104.546939 63.844689 
L 102.269388 62.007317 
L 99.991837 59.394168 
L 97.714286 56.505005 
L 95.436735 53.35937 
L 93.159184 50.517593 
L 90.881633 47.022013 
L 88.604082 43.01938 
L 86.326531 39.942649 
L 84.04898 36.114533 
L 81.771429 34.656337 
L 79.493878 31.933923 
L 77.216327 30.535933 
L 74.938776 28.680533 
L 72.661224 31.377333 
L 70.383673 30.981386 
L 68.106122 32.568491 
L 65.828571 36.535308 
L 63.55102 39.138839 
L 61.273469 43.040748 
L 58.995918 46.646367 
L 56.718367 49.803375 
L 54.440816 53.66717 
L 52.163265 56.534469 
L 49.885714 59.084145 
L 47.608163 61.330541 
L 45.330612 63.497167 
L 43.053061 65.161535 
L 40.77551 66.133706 
L 38.497959 67.0294 
L 36.220408 67.458926 
L 33.942857 67.645043 
L 31.665306 67.689869 
L 29.387755 67.650862 
L 27.110204 67.650825 
L 24.832653 67.650825 
L 22.555102 67.650825 
L 20.277551 67.650825 
L 18 67.650825 
z
" style="fill:#fc8d62;fill-opacity:0.2;"/>
   </g>
   <g id="matplotlib.axis_1">
    <g id="xtick_1">
     <g id="line2d_1">
      <defs>
       <path d="M 0 0 
L 0 3.5 
" id="m3f0d0094ef" style="stroke:#a9a9a9;stroke-width:2;"/>
      </defs>
      <g>
       <use style="fill:#a9a9a9;stroke:#a9a9a9;stroke-width:2;" x="29.387755" xlink:href="#m3f0d0094ef" y="67.650825"/>
      </g>
     </g>
    </g>
    <g id="xtick_2">
     <g id="line2d_2">
      <g>
       <use style="fill:#a9a9a9;stroke:#a9a9a9;stroke-width:2;" x="52.163265" xlink:href="#m3f0d0094ef" y="67.650825"/>
      </g>
     </g>
    </g>
    <g id="xtick_3">
     <g id="line2d_3">
      <g>
       <use style="fill:#a9a9a9;stroke:#a9a9a9;stroke-width:2;" x="74.938776" xlink:href="#m3f0d0094ef" y="67.650825"/>
      </g>
     </g>
    </g>
    <g id="xtick_4">
     <g id="line2d_4">
      <g>
       <use style="fill:#a9a9a9;stroke:#a9a9a9;stroke-width:2;" x="97.714286" xlink:href="#m3f0d0094ef" y="67.650825"/>
      </g>
     </g>
    </g>
    <g id="xtick_5">
     <g id="line2d_5">
      <g>
       <use style="fill:#a9a9a9;stroke:#a9a9a9;stroke-width:2;" x="120.489796" xlink:href="#m3f0d0094ef" y="67.650825"/>
      </g>
     </g>
    </g>
   </g>
   <g id="matplotlib.axis_2"/>
   <g id="line2d_6">
    <path clip-path="url(#p541c7ae906)" d="M 18 67.650825 
L 20.277551 67.650825 
L 22.555102 67.650825 
L 24.832653 67.650825 
L 27.110204 67.650825 
L 29.387755 67.650825 
L 31.665306 67.631365 
L 33.942857 67.486416 
L 36.220408 67.061005 
L 38.497959 66.331065 
L 40.77551 64.976913 
L 43.053061 62.990842 
L 45.330612 60.201074 
L 47.608163 56.795962 
L 49.885714 52.330016 
L 52.163265 47.287449 
L 54.440816 41.890823 
L 56.718367 36.829041 
L 58.995918 31.990368 
L 61.273469 27.146942 
L 63.55102 23.275625 
L 65.828571 21.687125 
L 68.106122 20.875688 
L 70.383673 21.244257 
L 72.661224 23.148944 
L 74.938776 26.570311 
L 77.216327 31.206289 
L 79.493878 35.981184 
L 81.771429 40.681063 
L 84.04898 45.496818 
L 86.326531 50.510146 
L 88.604082 53.775521 
L 90.881633 56.534069 
L 93.159184 59.045307 
L 95.436735 61.103971 
L 97.714286 62.276952 
L 99.991837 63.423694 
L 102.269388 64.326352 
L 104.546939 65.405458 
L 106.82449 65.90577 
L 109.102041 66.531115 
L 111.379592 67.038979 
L 113.657143 67.392675 
L 115.934694 67.557111 
L 118.212245 67.637618 
L 120.489796 67.650825 
L 122.767347 67.650825 
L 125.044898 67.650825 
L 127.322449 67.650825 
L 129.6 67.650825 
" style="fill:none;stroke:#fc8d62;stroke-linecap:square;stroke-width:2;"/>
   </g>
   <g id="line2d_7">
    <path clip-path="url(#p541c7ae906)" d="M 18 67.650825 
L 20.277551 67.650825 
L 22.555102 67.650825 
L 24.832653 67.650825 
L 27.110204 67.650825 
L 29.387755 67.650818 
L 31.665306 67.631088 
L 33.942857 67.496898 
L 36.220408 67.219206 
L 38.497959 66.59601 
L 40.77551 65.611598 
L 43.053061 64.408436 
L 45.330612 62.472917 
L 47.608163 60.252395 
L 49.885714 57.760625 
L 52.163265 54.901482 
L 54.440816 51.758168 
L 56.718367 47.818204 
L 58.995918 44.393597 
L 61.273469 40.872417 
L 63.55102 36.82359 
L 65.828571 34.017429 
L 68.106122 30.35559 
L 70.383673 28.586651 
L 72.661224 28.13189 
L 74.938776 27.372401 
L 77.216327 27.573495 
L 79.493878 29.668236 
L 81.771429 32.420413 
L 84.04898 34.049776 
L 86.326531 37.720745 
L 88.604082 40.745472 
L 90.881633 44.706755 
L 93.159184 48.551989 
L 95.436735 51.553756 
L 97.714286 54.932556 
L 99.991837 58.129448 
L 102.269388 60.85417 
L 104.546939 62.87407 
L 106.82449 64.52114 
L 109.102041 65.865009 
L 111.379592 66.648372 
L 113.657143 67.209859 
L 115.934694 67.53774 
L 118.212245 67.64071 
L 120.489796 67.650825 
L 122.767347 67.650825 
L 125.044898 67.650825 
L 127.322449 67.650825 
L 129.6 67.650825 
" style="fill:none;stroke:#fc8d62;stroke-dasharray:1.5,1.5;stroke-dashoffset:0;stroke-opacity:0.7;stroke-width:1.5;"/>
   </g>
   <g id="patch_3">
    <path d="M 74.938776 67.68 
L 74.938776 17.28 
" style="fill:none;stroke:#a9a9a9;stroke-linecap:square;stroke-linejoin:miter;stroke-width:2;"/>
   </g>
   <g id="patch_4">
    <path d="M 129.6 67.68 
L 129.6 17.28 
" style="fill:none;"/>
   </g>
   <g id="patch_5">
    <path d="M 18 67.650825 
L 129.6 67.650825 
" style="fill:none;stroke:#a9a9a9;stroke-linecap:square;stroke-linejoin:miter;stroke-width:2;"/>
   </g>
   <g id="patch_6">
    <path d="M 18 17.28 
L 129.6 17.28 
" style="fill:none;"/>
   </g>
   <g id="legend_1">
    <g id="line2d_8">
     <path d="M 101.475312 26.448906 
L 115.475312 26.448906 
" style="fill:none;stroke:#fc8d62;stroke-linecap:square;stroke-width:2;"/>
    </g>
    <g id="line2d_9"/>
    <g id="text_1">
     <!--   -->
     <g transform="translate(121.075312 28.898906)scale(0.07 -0.07)">
      <defs>
       <path id="DejaVuSans-32"/>
      </defs>
      <use xlink:href="#DejaVuSans-32"/>
     </g>
    </g>
    <g id="line2d_10">
     <path d="M 101.475312 36.723594 
L 115.475312 36.723594 
" style="fill:none;stroke:#fc8d62;stroke-dasharray:1.5,1.5;stroke-dashoffset:0;stroke-opacity:0.7;stroke-width:1.5;"/>
    </g>
    <g id="line2d_11"/>
    <g id="text_2">
     <!--   -->
     <g transform="translate(121.075312 39.173594)scale(0.07 -0.07)">
      <use xlink:href="#DejaVuSans-32"/>
     </g>
    </g>
   </g>
  </g>
  <g id="axes_2">
   <g id="patch_7">
    <path d="M 18 128.16 
L 129.6 128.16 
L 129.6 77.76 
L 18 77.76 
z
" style="fill:none;"/>
   </g>
   <g id="PolyCollection_3">
    <path clip-path="url(#p2d40e81f4f)" d="M 18 120.5243 
L 18 120.444443 
L 20.277551 120.65783 
L 22.555102 120.730135 
L 24.832653 120.665493 
L 27.110204 120.507337 
L 29.387755 120.327749 
L 31.665306 120.170455 
L 33.942857 119.896581 
L 36.220408 119.346318 
L 38.497959 118.393411 
L 40.77551 116.946731 
L 43.053061 114.955498 
L 45.330612 112.411308 
L 47.608163 109.345799 
L 49.885714 105.8269 
L 52.163265 101.955118 
L 54.440816 97.859952 
L 56.718367 93.695751 
L 58.995918 89.636889 
L 61.273469 85.872628 
L 63.55102 82.601508 
L 65.828571 80.025889 
L 68.106122 78.346882 
L 70.383673 77.76 
L 72.661224 78.451644 
L 74.938776 80.589322 
L 77.216327 84.252333 
L 79.493878 89.060033 
L 81.771429 94.574023 
L 84.04898 100.385061 
L 86.326531 106.134123 
L 88.604082 111.521801 
L 90.881633 116.313436 
L 93.159184 120.34102 
L 95.436735 123.502912 
L 97.714286 125.762316 
L 99.991837 127.142116 
L 102.269388 127.714762 
L 104.546939 127.589457 
L 106.82449 126.901167 
L 109.102041 125.801706 
L 111.379592 124.45177 
L 113.657143 123.013997 
L 115.934694 121.647479 
L 118.212245 120.505198 
L 120.489796 119.736782 
L 122.767347 119.440055 
L 125.044898 119.505531 
L 127.322449 119.779296 
L 129.6 120.127405 
L 129.6 120.232567 
L 129.6 120.232567 
L 127.322449 119.9085 
L 125.044898 119.65306 
L 122.767347 119.598419 
L 120.489796 119.901507 
L 118.212245 120.683275 
L 115.934694 121.858233 
L 113.657143 123.274197 
L 111.379592 124.767129 
L 109.102041 126.167757 
L 106.82449 127.306769 
L 104.546939 128.020778 
L 102.269388 128.16 
L 99.991837 127.597293 
L 97.714286 126.237578 
L 95.436735 124.025278 
L 93.159184 120.948739 
L 90.881633 117.045267 
L 88.604082 112.408385 
L 86.326531 107.194845 
L 84.04898 101.627751 
L 81.771429 95.995506 
L 79.493878 90.64659 
L 77.216327 85.980318 
L 74.938776 82.425997 
L 72.661224 80.356782 
L 70.383673 79.690386 
L 68.106122 80.258835 
L 65.828571 81.877283 
L 63.55102 84.353625 
L 61.273469 87.491851 
L 58.995918 91.096212 
L 56.718367 94.975953 
L 54.440816 98.950415 
L 52.163265 102.854148 
L 49.885714 106.541937 
L 47.608163 109.892999 
L 45.330612 112.814672 
L 43.053061 115.24572 
L 40.77551 117.158427 
L 38.497959 118.559254 
L 36.220408 119.489202 
L 33.942857 120.026464 
L 31.665306 120.289803 
L 29.387755 120.435308 
L 27.110204 120.598648 
L 24.832653 120.738072 
L 22.555102 120.788895 
L 20.277551 120.71881 
L 18 120.5243 
z
" style="fill:#66c2a5;fill-opacity:0.2;"/>
   </g>
   <g id="matplotlib.axis_3">
    <g id="xtick_6">
     <g id="line2d_12">
      <g>
       <use style="fill:#a9a9a9;stroke:#a9a9a9;stroke-width:2;" x="29.387755" xlink:href="#m3f0d0094ef" y="122.224287"/>
      </g>
     </g>
    </g>
    <g id="xtick_7">
     <g id="line2d_13">
      <g>
       <use style="fill:#a9a9a9;stroke:#a9a9a9;stroke-width:2;" x="52.163265" xlink:href="#m3f0d0094ef" y="122.224287"/>
      </g>
     </g>
    </g>
    <g id="xtick_8">
     <g id="line2d_14">
      <g>
       <use style="fill:#a9a9a9;stroke:#a9a9a9;stroke-width:2;" x="74.938776" xlink:href="#m3f0d0094ef" y="122.224287"/>
      </g>
     </g>
    </g>
    <g id="xtick_9">
     <g id="line2d_15">
      <g>
       <use style="fill:#a9a9a9;stroke:#a9a9a9;stroke-width:2;" x="97.714286" xlink:href="#m3f0d0094ef" y="122.224287"/>
      </g>
     </g>
    </g>
    <g id="xtick_10">
     <g id="line2d_16">
      <g>
       <use style="fill:#a9a9a9;stroke:#a9a9a9;stroke-width:2;" x="120.489796" xlink:href="#m3f0d0094ef" y="122.224287"/>
      </g>
     </g>
    </g>
   </g>
   <g id="matplotlib.axis_4"/>
   <g id="line2d_17">
    <path clip-path="url(#p2d40e81f4f)" d="M 18 120.484372 
L 20.277551 120.68832 
L 22.555102 120.759515 
L 24.832653 120.701783 
L 27.110204 120.552992 
L 29.387755 120.381529 
L 31.665306 120.230129 
L 33.942857 119.961522 
L 36.220408 119.41776 
L 38.497959 118.476333 
L 40.77551 117.052579 
L 43.053061 115.100609 
L 45.330612 112.61299 
L 47.608163 109.619399 
L 49.885714 106.184419 
L 52.163265 102.404633 
L 54.440816 98.405183 
L 56.718367 94.335852 
L 58.995918 90.36655 
L 61.273469 86.682239 
L 63.55102 83.477567 
L 65.828571 80.951586 
L 68.106122 79.302858 
L 70.383673 78.725193 
L 72.661224 79.404213 
L 74.938776 81.50766 
L 77.216327 85.116325 
L 79.493878 89.853312 
L 81.771429 95.284765 
L 84.04898 101.006406 
L 86.326531 106.664484 
L 88.604082 111.965093 
L 90.881633 116.679352 
L 93.159184 120.644879 
L 95.436735 123.764095 
L 97.714286 125.999947 
L 99.991837 127.369705 
L 102.269388 127.937381 
L 104.546939 127.805118 
L 106.82449 127.103968 
L 109.102041 125.984731 
L 111.379592 124.609449 
L 113.657143 123.144097 
L 115.934694 121.752856 
L 118.212245 120.594237 
L 120.489796 119.819144 
L 122.767347 119.519237 
L 125.044898 119.579296 
L 127.322449 119.843898 
L 129.6 120.179986 
" style="fill:none;stroke:#66c2a5;stroke-linecap:square;stroke-width:2;"/>
   </g>
   <g id="patch_8">
    <path d="M 74.938776 128.16 
L 74.938776 77.76 
" style="fill:none;stroke:#a9a9a9;stroke-linecap:square;stroke-linejoin:miter;stroke-width:2;"/>
   </g>
   <g id="patch_9">
    <path d="M 129.6 128.16 
L 129.6 77.76 
" style="fill:none;"/>
   </g>
   <g id="patch_10">
    <path d="M 18 122.224287 
L 129.6 122.224287 
" style="fill:none;stroke:#a9a9a9;stroke-linecap:square;stroke-linejoin:miter;stroke-width:2;"/>
   </g>
   <g id="patch_11">
    <path d="M 18 77.76 
L 129.6 77.76 
" style="fill:none;"/>
   </g>
   <g id="legend_2">
    <g id="line2d_18">
     <path d="M 101.475312 86.928906 
L 115.475312 86.928906 
" style="fill:none;stroke:#66c2a5;stroke-linecap:square;stroke-width:2;"/>
    </g>
    <g id="line2d_19"/>
    <g id="text_3">
     <!--   -->
     <g transform="translate(121.075312 89.378906)scale(0.07 -0.07)">
      <use xlink:href="#DejaVuSans-32"/>
     </g>
    </g>
   </g>
  </g>
 </g>
 <defs>
  <clipPath id="p541c7ae906">
   <rect height="50.4" width="111.6" x="18" y="17.28"/>
  </clipPath>
  <clipPath id="p2d40e81f4f">
   <rect height="50.4" width="111.6" x="18" y="77.76"/>
  </clipPath>
 </defs>
</svg>
