<?xml version="1.0" encoding="utf-8" standalone="no"?>
<!DOCTYPE svg PUBLIC "-//W3C//DTD SVG 1.1//EN"
  "http://www.w3.org/Graphics/SVG/1.1/DTD/svg11.dtd">
<!-- Created with matplotlib (https://matplotlib.org/) -->
<svg height="144pt" version="1.1" viewBox="0 0 144 144" width="144pt" xmlns="http://www.w3.org/2000/svg" xmlns:xlink="http://www.w3.org/1999/xlink">
 <metadata>
  <rdf:RDF xmlns:cc="http://creativecommons.org/ns#" xmlns:dc="http://purl.org/dc/elements/1.1/" xmlns:rdf="http://www.w3.org/1999/02/22-rdf-syntax-ns#">
   <cc:Work>
    <dc:type rdf:resource="http://purl.org/dc/dcmitype/StillImage"/>
    <dc:date>2021-10-11T19:26:04.067481</dc:date>
    <dc:format>image/svg+xml</dc:format>
    <dc:creator>
     <cc:Agent>
      <dc:title>Matplotlib v3.3.2, https://matplotlib.org/</dc:title>
     </cc:Agent>
    </dc:creator>
   </cc:Work>
  </rdf:RDF>
 </metadata>
 <defs>
  <style type="text/css">*{stroke-linecap:butt;stroke-linejoin:round;}</style>
 </defs>
 <g id="figure_1">
  <g id="patch_1">
   <path d="M 0 144 
L 144 144 
L 144 0 
L 0 0 
z
" style="fill:none;"/>
  </g>
  <g id="axes_1">
   <g id="patch_2">
    <path d="M 18 67.68 
L 129.6 67.68 
L 129.6 17.28 
L 18 17.28 
z
" style="fill:none;"/>
   </g>
   <g id="PolyCollection_1">
    <path clip-path="url(#p7af376191b)" d="M 18 62.998458 
L 18 62.998458 
L 20.277551 62.998458 
L 22.555102 62.998458 
L 24.832653 62.998458 
L 27.110204 62.998458 
L 29.387755 62.998457 
L 31.665306 62.943201 
L 33.942857 62.661835 
L 36.220408 62.438013 
L 38.497959 61.755738 
L 40.77551 60.970901 
L 43.053061 59.350002 
L 45.330612 57.547753 
L 47.608163 54.649395 
L 49.885714 50.409107 
L 52.163265 45.697281 
L 54.440816 40.680136 
L 56.718367 35.338866 
L 58.995918 29.967637 
L 61.273469 24.523453 
L 63.55102 20.139637 
L 65.828571 18.62386 
L 68.106122 17.28 
L 70.383673 18.964354 
L 72.661224 21.357217 
L 74.938776 44.228665 
L 77.216327 33.622893 
L 79.493878 38.878123 
L 81.771429 45.653984 
L 84.04898 50.102307 
L 86.326531 55.957509 
L 88.604082 59.167962 
L 90.881633 60.263101 
L 93.159184 62.344581 
L 95.436735 62.991414 
L 97.714286 63.360667 
L 99.991837 63.001802 
L 102.269388 62.534129 
L 104.546939 62.378876 
L 106.82449 62.165593 
L 109.102041 61.986885 
L 111.379592 62.549258 
L 113.657143 62.557136 
L 115.934694 62.812978 
L 118.212245 62.877608 
L 120.489796 62.998432 
L 122.767347 62.998458 
L 125.044898 62.998458 
L 127.322449 62.998458 
L 129.6 62.998458 
L 129.6 62.998458 
L 129.6 62.998458 
L 127.322449 62.998458 
L 125.044898 62.998458 
L 122.767347 62.998458 
L 120.489796 62.998499 
L 118.212245 63.062051 
L 115.934694 63.216703 
L 113.657143 63.213947 
L 111.379592 63.490028 
L 109.102041 63.593622 
L 106.82449 63.877105 
L 104.546939 64.368312 
L 102.269388 64.926396 
L 99.991837 65.874323 
L 97.714286 67.215051 
L 95.436735 67.68 
L 93.159184 67.480932 
L 90.881633 66.224711 
L 88.604082 65.178009 
L 86.326531 62.737529 
L 84.04898 57.647212 
L 81.771429 53.133386 
L 79.493878 46.369269 
L 77.216327 39.883721 
L 74.938776 47.264938 
L 72.661224 29.908864 
L 70.383673 26.965892 
L 68.106122 24.62864 
L 65.828571 26.209436 
L 63.55102 27.2041 
L 61.273469 30.721268 
L 58.995918 36.789006 
L 56.718367 40.570832 
L 54.440816 45.077187 
L 52.163265 49.224773 
L 49.885714 54.197327 
L 47.608163 57.383688 
L 45.330612 59.486135 
L 43.053061 61.133797 
L 40.77551 62.701503 
L 38.497959 62.704283 
L 36.220408 63.116305 
L 33.942857 63.086248 
L 31.665306 63.075409 
L 29.387755 62.998458 
L 27.110204 62.998458 
L 24.832653 62.998458 
L 22.555102 62.998458 
L 20.277551 62.998458 
L 18 62.998458 
z
" style="fill:#fc8d62;fill-opacity:0.2;"/>
   </g>
   <g id="PolyCollection_2">
    <path clip-path="url(#p7af376191b)" d="M 18 62.998458 
L 18 62.998458 
L 20.277551 62.998458 
L 22.555102 62.998458 
L 24.832653 62.998458 
L 27.110204 62.998458 
L 29.387755 62.998457 
L 31.665306 62.882485 
L 33.942857 62.718916 
L 36.220408 62.330673 
L 38.497959 61.897499 
L 40.77551 60.830821 
L 43.053061 59.728973 
L 45.330612 58.286094 
L 47.608163 56.719168 
L 49.885714 54.971635 
L 52.163265 52.851234 
L 54.440816 50.940531 
L 56.718367 47.978406 
L 58.995918 45.451032 
L 61.273469 43.470343 
L 63.55102 41.727371 
L 65.828571 39.345064 
L 68.106122 36.548997 
L 70.383673 36.48284 
L 72.661224 36.53396 
L 74.938776 48.890165 
L 77.216327 34.935217 
L 79.493878 37.270233 
L 81.771429 37.806637 
L 84.04898 40.407832 
L 86.326531 42.949551 
L 88.604082 43.903985 
L 90.881633 47.137192 
L 93.159184 49.540137 
L 95.436735 52.210523 
L 97.714286 53.763584 
L 99.991837 55.55705 
L 102.269388 57.248552 
L 104.546939 59.518778 
L 106.82449 59.985438 
L 109.102041 61.378798 
L 111.379592 61.742814 
L 113.657143 62.31689 
L 115.934694 62.723641 
L 118.212245 62.924508 
L 120.489796 62.998439 
L 122.767347 62.998458 
L 125.044898 62.998458 
L 127.322449 62.998458 
L 129.6 62.998458 
L 129.6 62.998458 
L 129.6 62.998458 
L 127.322449 62.998458 
L 125.044898 62.998458 
L 122.767347 62.998458 
L 120.489796 62.998495 
L 118.212245 63.092357 
L 115.934694 63.16257 
L 113.657143 63.085936 
L 111.379592 62.924072 
L 109.102041 62.806735 
L 106.82449 62.003507 
L 104.546939 61.903557 
L 102.269388 60.686397 
L 99.991837 59.18659 
L 97.714286 57.808256 
L 95.436735 56.373268 
L 93.159184 54.886324 
L 90.881633 52.838144 
L 88.604082 50.835909 
L 86.326531 48.902289 
L 84.04898 46.34839 
L 81.771429 45.874034 
L 79.493878 44.497351 
L 77.216327 42.923669 
L 74.938776 51.211606 
L 72.661224 43.912977 
L 70.383673 43.262536 
L 68.106122 45.269595 
L 65.828571 46.212061 
L 63.55102 47.072637 
L 61.273469 49.904785 
L 58.995918 51.315589 
L 56.718367 53.237545 
L 54.440816 55.05752 
L 52.163265 57.309145 
L 49.885714 58.787232 
L 47.608163 59.874321 
L 45.330612 60.762469 
L 43.053061 62.169005 
L 40.77551 62.328509 
L 38.497959 62.930253 
L 36.220408 63.178667 
L 33.942857 63.106456 
L 31.665306 63.046042 
L 29.387755 62.998458 
L 27.110204 62.998458 
L 24.832653 62.998458 
L 22.555102 62.998458 
L 20.277551 62.998458 
L 18 62.998458 
z
" style="fill:#fc8d62;fill-opacity:0.2;"/>
   </g>
   <g id="matplotlib.axis_1">
    <g id="xtick_1">
     <g id="line2d_1">
      <defs>
       <path d="M 0 0 
L 0 3.5 
" id="m7e5438492a" style="stroke:#a9a9a9;stroke-width:2;"/>
      </defs>
      <g>
       <use style="fill:#a9a9a9;stroke:#a9a9a9;stroke-width:2;" x="29.387755" xlink:href="#m7e5438492a" y="62.998458"/>
      </g>
     </g>
    </g>
    <g id="xtick_2">
     <g id="line2d_2">
      <g>
       <use style="fill:#a9a9a9;stroke:#a9a9a9;stroke-width:2;" x="52.163265" xlink:href="#m7e5438492a" y="62.998458"/>
      </g>
     </g>
    </g>
    <g id="xtick_3">
     <g id="line2d_3">
      <g>
       <use style="fill:#a9a9a9;stroke:#a9a9a9;stroke-width:2;" x="74.938776" xlink:href="#m7e5438492a" y="62.998458"/>
      </g>
     </g>
    </g>
    <g id="xtick_4">
     <g id="line2d_4">
      <g>
       <use style="fill:#a9a9a9;stroke:#a9a9a9;stroke-width:2;" x="97.714286" xlink:href="#m7e5438492a" y="62.998458"/>
      </g>
     </g>
    </g>
    <g id="xtick_5">
     <g id="line2d_5">
      <g>
       <use style="fill:#a9a9a9;stroke:#a9a9a9;stroke-width:2;" x="120.489796" xlink:href="#m7e5438492a" y="62.998458"/>
      </g>
     </g>
    </g>
   </g>
   <g id="matplotlib.axis_2"/>
   <g id="line2d_6">
    <path clip-path="url(#p7af376191b)" d="M 18 62.998458 
L 20.277551 62.998458 
L 22.555102 62.998458 
L 24.832653 62.998458 
L 27.110204 62.998458 
L 29.387755 62.998458 
L 31.665306 63.009305 
L 33.942857 62.874042 
L 36.220408 62.777159 
L 38.497959 62.230011 
L 40.77551 61.836202 
L 43.053061 60.241899 
L 45.330612 58.516944 
L 47.608163 56.016542 
L 49.885714 52.303217 
L 52.163265 47.461027 
L 54.440816 42.878662 
L 56.718367 37.954849 
L 58.995918 33.378322 
L 61.273469 27.622361 
L 63.55102 23.671869 
L 65.828571 22.416648 
L 68.106122 20.95432 
L 70.383673 22.965123 
L 72.661224 25.63304 
L 74.938776 45.746802 
L 77.216327 36.753307 
L 79.493878 42.623696 
L 81.771429 49.393685 
L 84.04898 53.874759 
L 86.326531 59.347519 
L 88.604082 62.172985 
L 90.881633 63.243906 
L 93.159184 64.912756 
L 95.436735 65.335707 
L 97.714286 65.287859 
L 99.991837 64.438062 
L 102.269388 63.730262 
L 104.546939 63.373594 
L 106.82449 63.021349 
L 109.102041 62.790254 
L 111.379592 63.019643 
L 113.657143 62.885542 
L 115.934694 63.01484 
L 118.212245 62.969829 
L 120.489796 62.998465 
L 122.767347 62.998458 
L 125.044898 62.998458 
L 127.322449 62.998458 
L 129.6 62.998458 
" style="fill:none;stroke:#fc8d62;stroke-linecap:square;stroke-width:2;"/>
   </g>
   <g id="line2d_7">
    <path clip-path="url(#p7af376191b)" d="M 18 62.998458 
L 20.277551 62.998458 
L 22.555102 62.998458 
L 24.832653 62.998458 
L 27.110204 62.998458 
L 29.387755 62.998458 
L 31.665306 62.964264 
L 33.942857 62.912686 
L 36.220408 62.75467 
L 38.497959 62.413876 
L 40.77551 61.579665 
L 43.053061 60.948989 
L 45.330612 59.524281 
L 47.608163 58.296745 
L 49.885714 56.879433 
L 52.163265 55.080189 
L 54.440816 52.999026 
L 56.718367 50.607975 
L 58.995918 48.383311 
L 61.273469 46.687564 
L 63.55102 44.400004 
L 65.828571 42.778563 
L 68.106122 40.909296 
L 70.383673 39.872688 
L 72.661224 40.223469 
L 74.938776 50.050886 
L 77.216327 38.929443 
L 79.493878 40.883792 
L 81.771429 41.840335 
L 84.04898 43.378111 
L 86.326531 45.92592 
L 88.604082 47.369947 
L 90.881633 49.987668 
L 93.159184 52.21323 
L 95.436735 54.291895 
L 97.714286 55.78592 
L 99.991837 57.37182 
L 102.269388 58.967475 
L 104.546939 60.711167 
L 106.82449 60.994473 
L 109.102041 62.092767 
L 111.379592 62.333443 
L 113.657143 62.701413 
L 115.934694 62.943105 
L 118.212245 63.008432 
L 120.489796 62.998467 
L 122.767347 62.998458 
L 125.044898 62.998458 
L 127.322449 62.998458 
L 129.6 62.998458 
" style="fill:none;stroke:#fc8d62;stroke-dasharray:1.5,1.5;stroke-dashoffset:0;stroke-opacity:0.7;stroke-width:1.5;"/>
   </g>
   <g id="patch_3">
    <path d="M 74.938776 67.68 
L 74.938776 17.28 
" style="fill:none;stroke:#a9a9a9;stroke-linecap:square;stroke-linejoin:miter;stroke-width:2;"/>
   </g>
   <g id="patch_4">
    <path d="M 129.6 67.68 
L 129.6 17.28 
" style="fill:none;"/>
   </g>
   <g id="patch_5">
    <path d="M 18 62.998458 
L 129.6 62.998458 
" style="fill:none;stroke:#a9a9a9;stroke-linecap:square;stroke-linejoin:miter;stroke-width:2;"/>
   </g>
   <g id="patch_6">
    <path d="M 18 17.28 
L 129.6 17.28 
" style="fill:none;"/>
   </g>
   <g id="legend_1">
    <g id="line2d_8">
     <path d="M 87.67 26.448906 
L 101.67 26.448906 
" style="fill:none;stroke:#fc8d62;stroke-linecap:square;stroke-width:2;"/>
    </g>
    <g id="line2d_9"/>
    <g id="text_1">
     <!-- $\theta$ -->
     <g transform="translate(107.27 28.898906)scale(0.07 -0.07)">
      <defs>
       <path d="M 45.515625 34.671875 
L 14.453125 34.671875 
Q 12.359375 20.0625 14.5 13.875 
Q 17.1875 6.25 24.46875 6.25 
Q 31.78125 6.25 37.359375 13.921875 
Q 42.234375 20.65625 45.515625 34.671875 
z
M 47.015625 42.96875 
Q 48.34375 56.84375 46.625 61.71875 
Q 43.953125 69.4375 36.765625 69.4375 
Q 29.296875 69.4375 23.828125 61.8125 
Q 19.53125 55.671875 16.15625 42.96875 
z
M 38.1875 76.765625 
Q 49.90625 76.765625 54.59375 66.40625 
Q 59.28125 56.109375 55.71875 37.84375 
Q 52.203125 19.625 43.453125 9.28125 
Q 34.765625 -1.125 23.046875 -1.125 
Q 11.28125 -1.125 6.640625 9.28125 
Q 2 19.625 5.515625 37.84375 
Q 9.078125 56.109375 17.71875 66.40625 
Q 26.421875 76.765625 38.1875 76.765625 
z
" id="DejaVuSans-Oblique-952"/>
      </defs>
      <use transform="translate(0 0.234375)" xlink:href="#DejaVuSans-Oblique-952"/>
     </g>
    </g>
    <g id="line2d_10">
     <path d="M 87.67 36.723594 
L 101.67 36.723594 
" style="fill:none;stroke:#fc8d62;stroke-dasharray:1.5,1.5;stroke-dashoffset:0;stroke-opacity:0.7;stroke-width:1.5;"/>
    </g>
    <g id="line2d_11"/>
    <g id="text_2">
     <!-- No $\theta$ -->
     <g transform="translate(107.27 39.173594)scale(0.07 -0.07)">
      <defs>
       <path d="M 9.8125 72.90625 
L 23.09375 72.90625 
L 55.421875 11.921875 
L 55.421875 72.90625 
L 64.984375 72.90625 
L 64.984375 0 
L 51.703125 0 
L 19.390625 60.984375 
L 19.390625 0 
L 9.8125 0 
z
" id="DejaVuSans-78"/>
       <path d="M 30.609375 48.390625 
Q 23.390625 48.390625 19.1875 42.75 
Q 14.984375 37.109375 14.984375 27.296875 
Q 14.984375 17.484375 19.15625 11.84375 
Q 23.34375 6.203125 30.609375 6.203125 
Q 37.796875 6.203125 41.984375 11.859375 
Q 46.1875 17.53125 46.1875 27.296875 
Q 46.1875 37.015625 41.984375 42.703125 
Q 37.796875 48.390625 30.609375 48.390625 
z
M 30.609375 56 
Q 42.328125 56 49.015625 48.375 
Q 55.71875 40.765625 55.71875 27.296875 
Q 55.71875 13.875 49.015625 6.21875 
Q 42.328125 -1.421875 30.609375 -1.421875 
Q 18.84375 -1.421875 12.171875 6.21875 
Q 5.515625 13.875 5.515625 27.296875 
Q 5.515625 40.765625 12.171875 48.375 
Q 18.84375 56 30.609375 56 
z
" id="DejaVuSans-111"/>
       <path id="DejaVuSans-32"/>
      </defs>
      <use transform="translate(0 0.234375)" xlink:href="#DejaVuSans-78"/>
      <use transform="translate(74.804688 0.234375)" xlink:href="#DejaVuSans-111"/>
      <use transform="translate(135.986328 0.234375)" xlink:href="#DejaVuSans-32"/>
      <use transform="translate(167.773438 0.234375)" xlink:href="#DejaVuSans-Oblique-952"/>
     </g>
    </g>
   </g>
  </g>
  <g id="axes_2">
   <g id="patch_7">
    <path d="M 18 128.16 
L 129.6 128.16 
L 129.6 77.76 
L 18 77.76 
z
" style="fill:none;"/>
   </g>
   <g id="PolyCollection_3">
    <path clip-path="url(#p5f267b25d3)" d="M 18 121.042409 
L 18 120.962703 
L 20.277551 121.264137 
L 22.555102 121.41372 
L 24.832653 121.433542 
L 27.110204 121.387698 
L 29.387755 121.371908 
L 31.665306 121.445108 
L 33.942857 121.446684 
L 36.220408 121.191749 
L 38.497959 120.532408 
L 40.77551 119.354845 
L 43.053061 117.588817 
L 45.330612 115.21184 
L 47.608163 112.2442 
L 49.885714 108.744556 
L 52.163265 104.807194 
L 54.440816 100.559185 
L 56.718367 96.156857 
L 58.995918 91.781501 
L 61.273469 87.634345 
L 63.55102 83.931374 
L 65.828571 80.898025 
L 68.106122 78.764234 
L 70.383673 77.76 
L 72.661224 78.111591 
L 74.938776 80.0268 
L 77.216327 83.628237 
L 79.493878 88.481743 
L 81.771429 94.104363 
L 84.04898 100.049019 
L 86.326531 105.929624 
L 88.604082 111.42936 
L 90.881633 116.304273 
L 93.159184 120.383427 
L 95.436735 123.566778 
L 97.714286 125.821491 
L 99.991837 127.175616 
L 102.269388 127.706976 
L 104.546939 127.530684 
L 106.82449 126.787741 
L 109.102041 125.635965 
L 111.379592 124.242022 
L 113.657143 122.774726 
L 115.934694 121.400398 
L 118.212245 120.281724 
L 120.489796 119.582492 
L 122.767347 119.409307 
L 125.044898 119.626293 
L 127.322449 120.052071 
L 129.6 120.535186 
L 129.6 120.64082 
L 129.6 120.64082 
L 127.322449 120.184148 
L 125.044898 119.779843 
L 122.767347 119.576029 
L 120.489796 119.755044 
L 118.212245 120.463054 
L 115.934694 121.609395 
L 113.657143 123.030859 
L 111.379592 124.553587 
L 109.102041 126.000026 
L 106.82449 127.193948 
L 104.546939 127.965872 
L 102.269388 128.16 
L 99.991837 127.642738 
L 97.714286 126.312021 
L 95.436735 124.104969 
L 93.159184 121.00384 
L 90.881633 117.04191 
L 88.604082 112.312102 
L 86.326531 106.975003 
L 84.04898 101.263704 
L 81.771429 95.48463 
L 79.493878 90.013955 
L 77.216327 85.289462 
L 74.938776 81.785491 
L 72.661224 79.929559 
L 70.383673 79.595437 
L 68.106122 80.574779 
L 65.828571 82.642791 
L 63.55102 85.5728 
L 61.273469 89.139883 
L 58.995918 93.125144 
L 56.718367 97.320406 
L 54.440816 101.533112 
L 52.163265 105.59125 
L 49.885714 109.347673 
L 47.608163 112.683795 
L 45.330612 115.512801 
L 43.053061 117.782739 
L 40.77551 119.47891 
L 38.497959 120.623537 
L 36.220408 121.273463 
L 33.942857 121.525181 
L 31.665306 121.522823 
L 29.387755 121.450641 
L 27.110204 121.463078 
L 24.832653 121.500267 
L 22.555102 121.472545 
L 20.277551 121.325997 
L 18 121.042409 
z
" style="fill:#66c2a5;fill-opacity:0.2;"/>
   </g>
   <g id="matplotlib.axis_3">
    <g id="xtick_6">
     <g id="line2d_12">
      <g>
       <use style="fill:#a9a9a9;stroke:#a9a9a9;stroke-width:2;" x="29.387755" xlink:href="#m7e5438492a" y="122.054343"/>
      </g>
     </g>
    </g>
    <g id="xtick_7">
     <g id="line2d_13">
      <g>
       <use style="fill:#a9a9a9;stroke:#a9a9a9;stroke-width:2;" x="52.163265" xlink:href="#m7e5438492a" y="122.054343"/>
      </g>
     </g>
    </g>
    <g id="xtick_8">
     <g id="line2d_14">
      <g>
       <use style="fill:#a9a9a9;stroke:#a9a9a9;stroke-width:2;" x="74.938776" xlink:href="#m7e5438492a" y="122.054343"/>
      </g>
     </g>
    </g>
    <g id="xtick_9">
     <g id="line2d_15">
      <g>
       <use style="fill:#a9a9a9;stroke:#a9a9a9;stroke-width:2;" x="97.714286" xlink:href="#m7e5438492a" y="122.054343"/>
      </g>
     </g>
    </g>
    <g id="xtick_10">
     <g id="line2d_16">
      <g>
       <use style="fill:#a9a9a9;stroke:#a9a9a9;stroke-width:2;" x="120.489796" xlink:href="#m7e5438492a" y="122.054343"/>
      </g>
     </g>
    </g>
   </g>
   <g id="matplotlib.axis_4"/>
   <g id="line2d_17">
    <path clip-path="url(#p5f267b25d3)" d="M 18 121.002556 
L 20.277551 121.295067 
L 22.555102 121.443132 
L 24.832653 121.466905 
L 27.110204 121.425388 
L 29.387755 121.411275 
L 31.665306 121.483965 
L 33.942857 121.485933 
L 36.220408 121.232606 
L 38.497959 120.577972 
L 40.77551 119.416877 
L 43.053061 117.685778 
L 45.330612 115.362321 
L 47.608163 112.463998 
L 49.885714 109.046114 
L 52.163265 105.199222 
L 54.440816 101.046149 
L 56.718367 96.738631 
L 58.995918 92.453322 
L 61.273469 88.387114 
L 63.55102 84.752087 
L 65.828571 81.770408 
L 68.106122 79.669507 
L 70.383673 78.677719 
L 72.661224 79.020575 
L 74.938776 80.906145 
L 77.216327 84.45885 
L 79.493878 89.247849 
L 81.771429 94.794496 
L 84.04898 100.656361 
L 86.326531 106.452313 
L 88.604082 111.870731 
L 90.881633 116.673091 
L 93.159184 120.693633 
L 95.436735 123.835873 
L 97.714286 126.066756 
L 99.991837 127.409177 
L 102.269388 127.933488 
L 104.546939 127.748278 
L 106.82449 126.990844 
L 109.102041 125.817996 
L 111.379592 124.397804 
L 113.657143 122.902792 
L 115.934694 121.504896 
L 118.212245 120.372389 
L 120.489796 119.668768 
L 122.767347 119.492668 
L 125.044898 119.703068 
L 127.322449 120.118109 
L 129.6 120.588003 
" style="fill:none;stroke:#66c2a5;stroke-linecap:square;stroke-width:2;"/>
   </g>
   <g id="patch_8">
    <path d="M 74.938776 128.16 
L 74.938776 77.76 
" style="fill:none;stroke:#a9a9a9;stroke-linecap:square;stroke-linejoin:miter;stroke-width:2;"/>
   </g>
   <g id="patch_9">
    <path d="M 129.6 128.16 
L 129.6 77.76 
" style="fill:none;"/>
   </g>
   <g id="patch_10">
    <path d="M 18 122.054343 
L 129.6 122.054343 
" style="fill:none;stroke:#a9a9a9;stroke-linecap:square;stroke-linejoin:miter;stroke-width:2;"/>
   </g>
   <g id="patch_11">
    <path d="M 18 77.76 
L 129.6 77.76 
" style="fill:none;"/>
   </g>
  </g>
 </g>
 <defs>
  <clipPath id="p7af376191b">
   <rect height="50.4" width="111.6" x="18" y="17.28"/>
  </clipPath>
  <clipPath id="p5f267b25d3">
   <rect height="50.4" width="111.6" x="18" y="77.76"/>
  </clipPath>
 </defs>
</svg>
