<?xml version="1.0" encoding="utf-8" standalone="no"?>
<!DOCTYPE svg PUBLIC "-//W3C//DTD SVG 1.1//EN"
  "http://www.w3.org/Graphics/SVG/1.1/DTD/svg11.dtd">
<!-- Created with matplotlib (https://matplotlib.org/) -->
<svg height="144pt" version="1.1" viewBox="0 0 144 144" width="144pt" xmlns="http://www.w3.org/2000/svg" xmlns:xlink="http://www.w3.org/1999/xlink">
 <metadata>
  <rdf:RDF xmlns:cc="http://creativecommons.org/ns#" xmlns:dc="http://purl.org/dc/elements/1.1/" xmlns:rdf="http://www.w3.org/1999/02/22-rdf-syntax-ns#">
   <cc:Work>
    <dc:type rdf:resource="http://purl.org/dc/dcmitype/StillImage"/>
    <dc:date>2021-10-13T15:44:16.661109</dc:date>
    <dc:format>image/svg+xml</dc:format>
    <dc:creator>
     <cc:Agent>
      <dc:title>Matplotlib v3.3.2, https://matplotlib.org/</dc:title>
     </cc:Agent>
    </dc:creator>
   </cc:Work>
  </rdf:RDF>
 </metadata>
 <defs>
  <style type="text/css">*{stroke-linecap:butt;stroke-linejoin:round;}</style>
 </defs>
 <g id="figure_1">
  <g id="patch_1">
   <path d="M 0 144 
L 144 144 
L 144 0 
L 0 0 
z
" style="fill:none;"/>
  </g>
  <g id="axes_1">
   <g id="patch_2">
    <path d="M 18 67.68 
L 129.6 67.68 
L 129.6 17.28 
L 18 17.28 
z
" style="fill:none;"/>
   </g>
   <g id="PolyCollection_1">
    <path clip-path="url(#pe43ee07db4)" d="M 18 67.673869 
L 18 67.673869 
L 20.277551 67.673869 
L 22.555102 67.673869 
L 24.832653 67.673869 
L 27.110204 67.673869 
L 29.387755 67.673821 
L 31.665306 67.629082 
L 33.942857 67.434891 
L 36.220408 66.984007 
L 38.497959 66.194735 
L 40.77551 64.830134 
L 43.053061 62.899251 
L 45.330612 60.257282 
L 47.608163 56.929933 
L 49.885714 53.107641 
L 52.163265 48.55243 
L 54.440816 43.470771 
L 56.718367 38.371089 
L 58.995918 33.201595 
L 61.273469 28.631067 
L 63.55102 24.579225 
L 65.828571 20.921397 
L 68.106122 18.826897 
L 70.383673 17.410408 
L 72.661224 17.28 
L 74.938776 31.766857 
L 77.216327 21.706761 
L 79.493878 25.620765 
L 81.771429 29.845503 
L 84.04898 34.530255 
L 86.326531 39.20542 
L 88.604082 43.838721 
L 90.881633 47.940271 
L 93.159184 51.630198 
L 95.436735 55.045392 
L 97.714286 57.945411 
L 99.991837 60.338072 
L 102.269388 62.177787 
L 104.546939 63.80774 
L 106.82449 64.982271 
L 109.102041 66.05713 
L 111.379592 66.743669 
L 113.657143 67.258438 
L 115.934694 67.519414 
L 118.212245 67.649506 
L 120.489796 67.673831 
L 122.767347 67.673869 
L 125.044898 67.673869 
L 127.322449 67.673869 
L 129.6 67.673869 
L 129.6 67.673869 
L 129.6 67.673869 
L 127.322449 67.673869 
L 125.044898 67.673869 
L 122.767347 67.673869 
L 120.489796 67.673971 
L 118.212245 67.68 
L 115.934694 67.623713 
L 113.657143 67.433215 
L 111.379592 67.028589 
L 109.102041 66.462222 
L 106.82449 65.607939 
L 104.546939 64.452227 
L 102.269388 62.99855 
L 99.991837 61.086366 
L 97.714286 58.787652 
L 95.436735 56.177858 
L 93.159184 53.018216 
L 90.881633 49.446033 
L 88.604082 45.293041 
L 86.326531 40.776638 
L 84.04898 36.414702 
L 81.771429 31.763277 
L 79.493878 27.570501 
L 77.216327 23.894579 
L 74.938776 33.362385 
L 72.661224 19.958596 
L 70.383673 19.733207 
L 68.106122 21.06888 
L 65.828571 23.26967 
L 63.55102 26.649683 
L 61.273469 30.732574 
L 58.995918 35.32757 
L 56.718367 40.175172 
L 54.440816 45.325918 
L 52.163265 49.872781 
L 49.885714 54.107458 
L 47.608163 57.787509 
L 45.330612 61.000802 
L 43.053061 63.496416 
L 40.77551 65.25379 
L 38.497959 66.456836 
L 36.220408 67.183291 
L 33.942857 67.546542 
L 31.665306 67.668874 
L 29.387755 67.673897 
L 27.110204 67.673869 
L 24.832653 67.673869 
L 22.555102 67.673869 
L 20.277551 67.673869 
L 18 67.673869 
z
" style="fill:#fc8d62;fill-opacity:0.2;"/>
   </g>
   <g id="PolyCollection_2">
    <path clip-path="url(#pe43ee07db4)" d="M 18 67.673869 
L 18 67.673869 
L 20.277551 67.673869 
L 22.555102 67.673869 
L 24.832653 67.673869 
L 27.110204 67.673869 
L 29.387755 67.673735 
L 31.665306 67.622501 
L 33.942857 67.42751 
L 36.220408 66.97565 
L 38.497959 66.21973 
L 40.77551 65.029518 
L 43.053061 63.286415 
L 45.330612 61.235424 
L 47.608163 58.623964 
L 49.885714 55.546758 
L 52.163265 52.124235 
L 54.440816 48.301222 
L 56.718367 44.494137 
L 58.995918 40.605375 
L 61.273469 36.376212 
L 63.55102 32.533801 
L 65.828571 29.200051 
L 68.106122 26.194833 
L 70.383673 23.921998 
L 72.661224 22.19958 
L 74.938776 31.770848 
L 77.216327 22.774675 
L 79.493878 24.327345 
L 81.771429 26.83466 
L 84.04898 29.84527 
L 86.326531 33.341728 
L 88.604082 37.067393 
L 90.881633 41.234622 
L 93.159184 45.418692 
L 95.436735 49.218715 
L 97.714286 52.950859 
L 99.991837 56.257587 
L 102.269388 59.118615 
L 104.546939 61.714839 
L 106.82449 63.781253 
L 109.102041 65.284697 
L 111.379592 66.397406 
L 113.657143 67.078479 
L 115.934694 67.473927 
L 118.212245 67.644327 
L 120.489796 67.673777 
L 122.767347 67.673869 
L 125.044898 67.673869 
L 127.322449 67.673869 
L 129.6 67.673869 
L 129.6 67.673869 
L 129.6 67.673869 
L 127.322449 67.673869 
L 125.044898 67.673869 
L 122.767347 67.673869 
L 120.489796 67.674023 
L 118.212245 67.685999 
L 115.934694 67.586296 
L 113.657143 67.320616 
L 111.379592 66.661283 
L 109.102041 65.677428 
L 106.82449 64.278158 
L 104.546939 62.307149 
L 102.269388 59.940817 
L 99.991837 57.264812 
L 97.714286 54.00741 
L 95.436735 50.414012 
L 93.159184 46.784414 
L 90.881633 42.9121 
L 88.604082 38.562 
L 86.326531 34.932935 
L 84.04898 31.556347 
L 81.771429 28.703496 
L 79.493878 26.564634 
L 77.216327 24.950694 
L 74.938776 33.652351 
L 72.661224 24.640939 
L 70.383673 25.905401 
L 68.106122 28.262987 
L 65.828571 31.175839 
L 63.55102 34.334003 
L 61.273469 38.271443 
L 58.995918 41.789582 
L 56.718367 45.68085 
L 54.440816 49.514294 
L 52.163265 53.333759 
L 49.885714 56.522989 
L 47.608163 59.491827 
L 45.330612 61.933371 
L 43.053061 63.83271 
L 40.77551 65.386308 
L 38.497959 66.525438 
L 36.220408 67.186572 
L 33.942857 67.551277 
L 31.665306 67.666802 
L 29.387755 67.673968 
L 27.110204 67.673869 
L 24.832653 67.673869 
L 22.555102 67.673869 
L 20.277551 67.673869 
L 18 67.673869 
z
" style="fill:#fc8d62;fill-opacity:0.2;"/>
   </g>
   <g id="matplotlib.axis_1">
    <g id="xtick_1">
     <g id="line2d_1">
      <defs>
       <path d="M 0 0 
L 0 3.5 
" id="m0c9dd844e6" style="stroke:#a9a9a9;stroke-width:2;"/>
      </defs>
      <g>
       <use style="fill:#a9a9a9;stroke:#a9a9a9;stroke-width:2;" x="29.387755" xlink:href="#m0c9dd844e6" y="67.673869"/>
      </g>
     </g>
    </g>
    <g id="xtick_2">
     <g id="line2d_2">
      <g>
       <use style="fill:#a9a9a9;stroke:#a9a9a9;stroke-width:2;" x="52.163265" xlink:href="#m0c9dd844e6" y="67.673869"/>
      </g>
     </g>
    </g>
    <g id="xtick_3">
     <g id="line2d_3">
      <g>
       <use style="fill:#a9a9a9;stroke:#a9a9a9;stroke-width:2;" x="74.938776" xlink:href="#m0c9dd844e6" y="67.673869"/>
      </g>
     </g>
    </g>
    <g id="xtick_4">
     <g id="line2d_4">
      <g>
       <use style="fill:#a9a9a9;stroke:#a9a9a9;stroke-width:2;" x="97.714286" xlink:href="#m0c9dd844e6" y="67.673869"/>
      </g>
     </g>
    </g>
    <g id="xtick_5">
     <g id="line2d_5">
      <g>
       <use style="fill:#a9a9a9;stroke:#a9a9a9;stroke-width:2;" x="120.489796" xlink:href="#m0c9dd844e6" y="67.673869"/>
      </g>
     </g>
    </g>
   </g>
   <g id="matplotlib.axis_2"/>
   <g id="line2d_6">
    <path clip-path="url(#pe43ee07db4)" d="M 18 67.673869 
L 20.277551 67.673869 
L 22.555102 67.673869 
L 24.832653 67.673869 
L 27.110204 67.673869 
L 29.387755 67.673859 
L 31.665306 67.648978 
L 33.942857 67.490717 
L 36.220408 67.083649 
L 38.497959 66.325786 
L 40.77551 65.041962 
L 43.053061 63.197834 
L 45.330612 60.629042 
L 47.608163 57.358721 
L 49.885714 53.607549 
L 52.163265 49.212606 
L 54.440816 44.398344 
L 56.718367 39.273131 
L 58.995918 34.264583 
L 61.273469 29.68182 
L 63.55102 25.614454 
L 65.828571 22.095533 
L 68.106122 19.947889 
L 70.383673 18.571807 
L 72.661224 18.619298 
L 74.938776 32.564621 
L 77.216327 22.80067 
L 79.493878 26.595633 
L 81.771429 30.80439 
L 84.04898 35.472478 
L 86.326531 39.991029 
L 88.604082 44.565881 
L 90.881633 48.693152 
L 93.159184 52.324207 
L 95.436735 55.611625 
L 97.714286 58.366532 
L 99.991837 60.712219 
L 102.269388 62.588168 
L 104.546939 64.129984 
L 106.82449 65.295105 
L 109.102041 66.259676 
L 111.379592 66.886129 
L 113.657143 67.345826 
L 115.934694 67.571563 
L 118.212245 67.664753 
L 120.489796 67.673901 
L 122.767347 67.673869 
L 125.044898 67.673869 
L 127.322449 67.673869 
L 129.6 67.673869 
" style="fill:none;stroke:#fc8d62;stroke-linecap:square;stroke-width:2;"/>
   </g>
   <g id="line2d_7">
    <path clip-path="url(#pe43ee07db4)" d="M 18 67.673869 
L 20.277551 67.673869 
L 22.555102 67.673869 
L 24.832653 67.673869 
L 27.110204 67.673869 
L 29.387755 67.673852 
L 31.665306 67.644651 
L 33.942857 67.489393 
L 36.220408 67.081111 
L 38.497959 66.372584 
L 40.77551 65.207913 
L 43.053061 63.559563 
L 45.330612 61.584397 
L 47.608163 59.057896 
L 49.885714 56.034874 
L 52.163265 52.728997 
L 54.440816 48.907758 
L 56.718367 45.087494 
L 58.995918 41.197479 
L 61.273469 37.323827 
L 63.55102 33.433902 
L 65.828571 30.187945 
L 68.106122 27.22891 
L 70.383673 24.9137 
L 72.661224 23.420259 
L 74.938776 32.711599 
L 77.216327 23.862684 
L 79.493878 25.44599 
L 81.771429 27.769078 
L 84.04898 30.700809 
L 86.326531 34.137332 
L 88.604082 37.814696 
L 90.881633 42.073361 
L 93.159184 46.101553 
L 95.436735 49.816364 
L 97.714286 53.479134 
L 99.991837 56.761199 
L 102.269388 59.529716 
L 104.546939 62.010994 
L 106.82449 64.029706 
L 109.102041 65.481063 
L 111.379592 66.529344 
L 113.657143 67.199547 
L 115.934694 67.530112 
L 118.212245 67.665163 
L 120.489796 67.6739 
L 122.767347 67.673869 
L 125.044898 67.673869 
L 127.322449 67.673869 
L 129.6 67.673869 
" style="fill:none;stroke:#fc8d62;stroke-dasharray:1.5,1.5;stroke-dashoffset:0;stroke-opacity:0.7;stroke-width:1.5;"/>
   </g>
   <g id="patch_3">
    <path d="M 74.938776 67.68 
L 74.938776 17.28 
" style="fill:none;stroke:#a9a9a9;stroke-linecap:square;stroke-linejoin:miter;stroke-width:2;"/>
   </g>
   <g id="patch_4">
    <path d="M 129.6 67.68 
L 129.6 17.28 
" style="fill:none;"/>
   </g>
   <g id="patch_5">
    <path d="M 18 67.673869 
L 129.6 67.673869 
" style="fill:none;stroke:#a9a9a9;stroke-linecap:square;stroke-linejoin:miter;stroke-width:2;"/>
   </g>
   <g id="patch_6">
    <path d="M 18 17.28 
L 129.6 17.28 
" style="fill:none;"/>
   </g>
   <g id="legend_1">
    <g id="line2d_8">
     <path d="M 87.67 26.448906 
L 101.67 26.448906 
" style="fill:none;stroke:#fc8d62;stroke-linecap:square;stroke-width:2;"/>
    </g>
    <g id="line2d_9"/>
    <g id="text_1">
     <!-- $\theta$ -->
     <g transform="translate(107.27 28.898906)scale(0.07 -0.07)">
      <defs>
       <path d="M 45.515625 34.671875 
L 14.453125 34.671875 
Q 12.359375 20.0625 14.5 13.875 
Q 17.1875 6.25 24.46875 6.25 
Q 31.78125 6.25 37.359375 13.921875 
Q 42.234375 20.65625 45.515625 34.671875 
z
M 47.015625 42.96875 
Q 48.34375 56.84375 46.625 61.71875 
Q 43.953125 69.4375 36.765625 69.4375 
Q 29.296875 69.4375 23.828125 61.8125 
Q 19.53125 55.671875 16.15625 42.96875 
z
M 38.1875 76.765625 
Q 49.90625 76.765625 54.59375 66.40625 
Q 59.28125 56.109375 55.71875 37.84375 
Q 52.203125 19.625 43.453125 9.28125 
Q 34.765625 -1.125 23.046875 -1.125 
Q 11.28125 -1.125 6.640625 9.28125 
Q 2 19.625 5.515625 37.84375 
Q 9.078125 56.109375 17.71875 66.40625 
Q 26.421875 76.765625 38.1875 76.765625 
z
" id="DejaVuSans-Oblique-952"/>
      </defs>
      <use transform="translate(0 0.234375)" xlink:href="#DejaVuSans-Oblique-952"/>
     </g>
    </g>
    <g id="line2d_10">
     <path d="M 87.67 36.723594 
L 101.67 36.723594 
" style="fill:none;stroke:#fc8d62;stroke-dasharray:1.5,1.5;stroke-dashoffset:0;stroke-opacity:0.7;stroke-width:1.5;"/>
    </g>
    <g id="line2d_11"/>
    <g id="text_2">
     <!-- No $\theta$ -->
     <g transform="translate(107.27 39.173594)scale(0.07 -0.07)">
      <defs>
       <path d="M 9.8125 72.90625 
L 23.09375 72.90625 
L 55.421875 11.921875 
L 55.421875 72.90625 
L 64.984375 72.90625 
L 64.984375 0 
L 51.703125 0 
L 19.390625 60.984375 
L 19.390625 0 
L 9.8125 0 
z
" id="DejaVuSans-78"/>
       <path d="M 30.609375 48.390625 
Q 23.390625 48.390625 19.1875 42.75 
Q 14.984375 37.109375 14.984375 27.296875 
Q 14.984375 17.484375 19.15625 11.84375 
Q 23.34375 6.203125 30.609375 6.203125 
Q 37.796875 6.203125 41.984375 11.859375 
Q 46.1875 17.53125 46.1875 27.296875 
Q 46.1875 37.015625 41.984375 42.703125 
Q 37.796875 48.390625 30.609375 48.390625 
z
M 30.609375 56 
Q 42.328125 56 49.015625 48.375 
Q 55.71875 40.765625 55.71875 27.296875 
Q 55.71875 13.875 49.015625 6.21875 
Q 42.328125 -1.421875 30.609375 -1.421875 
Q 18.84375 -1.421875 12.171875 6.21875 
Q 5.515625 13.875 5.515625 27.296875 
Q 5.515625 40.765625 12.171875 48.375 
Q 18.84375 56 30.609375 56 
z
" id="DejaVuSans-111"/>
       <path id="DejaVuSans-32"/>
      </defs>
      <use transform="translate(0 0.234375)" xlink:href="#DejaVuSans-78"/>
      <use transform="translate(74.804688 0.234375)" xlink:href="#DejaVuSans-111"/>
      <use transform="translate(135.986328 0.234375)" xlink:href="#DejaVuSans-32"/>
      <use transform="translate(167.773438 0.234375)" xlink:href="#DejaVuSans-Oblique-952"/>
     </g>
    </g>
   </g>
  </g>
  <g id="axes_2">
   <g id="patch_7">
    <path d="M 18 128.16 
L 129.6 128.16 
L 129.6 77.76 
L 18 77.76 
z
" style="fill:none;"/>
   </g>
   <g id="PolyCollection_3">
    <path clip-path="url(#peaa43d7e44)" d="M 18 120.50767 
L 18 120.430534 
L 20.277551 120.648015 
L 22.555102 120.709618 
L 24.832653 120.62471 
L 27.110204 120.441971 
L 29.387755 120.239587 
L 31.665306 120.067205 
L 33.942857 119.783679 
L 36.220408 119.226717 
L 38.497959 118.268894 
L 40.77551 116.818678 
L 43.053061 114.824674 
L 45.330612 112.27858 
L 47.608163 109.212441 
L 49.885714 105.69462 
L 52.163265 101.826008 
L 54.440816 97.736223 
L 56.718367 93.579754 
L 58.995918 89.531145 
L 61.273469 85.779839 
L 63.55102 82.524745 
L 65.828571 79.968939 
L 68.106122 78.314825 
L 70.383673 77.76 
L 72.661224 78.49399 
L 74.938776 80.686012 
L 77.216327 84.425895 
L 79.493878 89.312141 
L 81.771429 94.89593 
L 84.04898 100.758513 
L 86.326531 106.535114 
L 88.604082 111.9241 
L 90.881633 116.691755 
L 93.159184 120.6735 
L 95.436735 123.772836 
L 97.714286 125.958739 
L 99.991837 127.25979 
L 102.269388 127.753548 
L 104.546939 127.553757 
L 106.82449 126.799336 
L 109.102041 125.645239 
L 111.379592 124.254343 
L 113.657143 122.790555 
L 115.934694 121.413679 
L 118.212245 120.277696 
L 120.489796 119.533733 
L 122.767347 119.278105 
L 125.044898 119.39147 
L 127.322449 119.710123 
L 129.6 120.093069 
L 129.6 120.195662 
L 129.6 120.195662 
L 127.322449 119.838234 
L 125.044898 119.539834 
L 122.767347 119.438687 
L 120.489796 119.699832 
L 118.212245 120.452712 
L 115.934694 121.613117 
L 113.657143 123.030587 
L 111.379592 124.542147 
L 109.102041 125.978312 
L 106.82449 127.16849 
L 104.546939 127.946872 
L 102.269388 128.16 
L 99.991837 127.675775 
L 97.714286 126.393035 
L 95.436735 124.249611 
L 93.159184 121.227607 
L 90.881633 117.358994 
L 88.604082 112.733399 
L 86.326531 107.505399 
L 84.04898 101.898228 
L 81.771429 96.203255 
L 79.493878 90.775299 
L 77.216327 86.023555 
L 74.938776 82.387887 
L 72.661224 80.262943 
L 70.383673 79.555254 
L 68.106122 80.095087 
L 65.828571 81.694298 
L 63.55102 84.158447 
L 61.273469 87.28991 
L 58.995918 90.891817 
L 56.718367 94.772638 
L 54.440816 98.751149 
L 52.163265 102.661485 
L 49.885714 106.357968 
L 47.608163 109.719186 
L 45.330612 112.651913 
L 43.053061 115.09429 
L 40.77551 117.018048 
L 38.497959 118.42923 
L 36.220408 119.368551 
L 33.942857 119.915403 
L 31.665306 120.190649 
L 29.387755 120.353093 
L 27.110204 120.540048 
L 24.832653 120.703738 
L 22.555102 120.772414 
L 20.277551 120.708717 
L 18 120.50767 
z
" style="fill:#66c2a5;fill-opacity:0.2;"/>
   </g>
   <g id="matplotlib.axis_3">
    <g id="xtick_6">
     <g id="line2d_12">
      <g>
       <use style="fill:#a9a9a9;stroke:#a9a9a9;stroke-width:2;" x="29.387755" xlink:href="#m0c9dd844e6" y="122.165767"/>
      </g>
     </g>
    </g>
    <g id="xtick_7">
     <g id="line2d_13">
      <g>
       <use style="fill:#a9a9a9;stroke:#a9a9a9;stroke-width:2;" x="52.163265" xlink:href="#m0c9dd844e6" y="122.165767"/>
      </g>
     </g>
    </g>
    <g id="xtick_8">
     <g id="line2d_14">
      <g>
       <use style="fill:#a9a9a9;stroke:#a9a9a9;stroke-width:2;" x="74.938776" xlink:href="#m0c9dd844e6" y="122.165767"/>
      </g>
     </g>
    </g>
    <g id="xtick_9">
     <g id="line2d_15">
      <g>
       <use style="fill:#a9a9a9;stroke:#a9a9a9;stroke-width:2;" x="97.714286" xlink:href="#m0c9dd844e6" y="122.165767"/>
      </g>
     </g>
    </g>
    <g id="xtick_10">
     <g id="line2d_16">
      <g>
       <use style="fill:#a9a9a9;stroke:#a9a9a9;stroke-width:2;" x="120.489796" xlink:href="#m0c9dd844e6" y="122.165767"/>
      </g>
     </g>
    </g>
   </g>
   <g id="matplotlib.axis_4"/>
   <g id="line2d_17">
    <path clip-path="url(#peaa43d7e44)" d="M 18 120.469102 
L 20.277551 120.678366 
L 22.555102 120.741016 
L 24.832653 120.664224 
L 27.110204 120.49101 
L 29.387755 120.29634 
L 31.665306 120.128927 
L 33.942857 119.849541 
L 36.220408 119.297634 
L 38.497959 118.349062 
L 40.77551 116.918363 
L 43.053061 114.959482 
L 45.330612 112.465247 
L 47.608163 109.465813 
L 49.885714 106.026294 
L 52.163265 102.243746 
L 54.440816 98.243686 
L 56.718367 94.176196 
L 58.995918 90.211481 
L 61.273469 86.534874 
L 63.55102 83.341596 
L 65.828571 80.831619 
L 68.106122 79.204956 
L 70.383673 78.657627 
L 72.661224 79.378466 
L 74.938776 81.536949 
L 77.216327 85.224725 
L 79.493878 90.04372 
L 81.771429 95.549593 
L 84.04898 101.32837 
L 86.326531 107.020257 
L 88.604082 112.32875 
L 90.881633 117.025375 
L 93.159184 120.950553 
L 95.436735 124.011223 
L 97.714286 126.175887 
L 99.991837 127.467783 
L 102.269388 127.956774 
L 104.546939 127.750314 
L 106.82449 126.983913 
L 109.102041 125.811776 
L 111.379592 124.398245 
L 113.657143 122.910571 
L 115.934694 121.513398 
L 118.212245 120.365204 
L 120.489796 119.616782 
L 122.767347 119.358396 
L 125.044898 119.465652 
L 127.322449 119.774179 
L 129.6 120.144366 
" style="fill:none;stroke:#66c2a5;stroke-linecap:square;stroke-width:2;"/>
   </g>
   <g id="patch_8">
    <path d="M 74.938776 128.16 
L 74.938776 77.76 
" style="fill:none;stroke:#a9a9a9;stroke-linecap:square;stroke-linejoin:miter;stroke-width:2;"/>
   </g>
   <g id="patch_9">
    <path d="M 129.6 128.16 
L 129.6 77.76 
" style="fill:none;"/>
   </g>
   <g id="patch_10">
    <path d="M 18 122.165767 
L 129.6 122.165767 
" style="fill:none;stroke:#a9a9a9;stroke-linecap:square;stroke-linejoin:miter;stroke-width:2;"/>
   </g>
   <g id="patch_11">
    <path d="M 18 77.76 
L 129.6 77.76 
" style="fill:none;"/>
   </g>
  </g>
 </g>
 <defs>
  <clipPath id="pe43ee07db4">
   <rect height="50.4" width="111.6" x="18" y="17.28"/>
  </clipPath>
  <clipPath id="peaa43d7e44">
   <rect height="50.4" width="111.6" x="18" y="77.76"/>
  </clipPath>
 </defs>
</svg>
