<?xml version="1.0" encoding="utf-8" standalone="no"?>
<!DOCTYPE svg PUBLIC "-//W3C//DTD SVG 1.1//EN"
  "http://www.w3.org/Graphics/SVG/1.1/DTD/svg11.dtd">
<!-- Created with matplotlib (https://matplotlib.org/) -->
<svg height="144pt" version="1.1" viewBox="0 0 144 144" width="144pt" xmlns="http://www.w3.org/2000/svg" xmlns:xlink="http://www.w3.org/1999/xlink">
 <metadata>
  <rdf:RDF xmlns:cc="http://creativecommons.org/ns#" xmlns:dc="http://purl.org/dc/elements/1.1/" xmlns:rdf="http://www.w3.org/1999/02/22-rdf-syntax-ns#">
   <cc:Work>
    <dc:type rdf:resource="http://purl.org/dc/dcmitype/StillImage"/>
    <dc:date>2021-10-13T00:18:56.520901</dc:date>
    <dc:format>image/svg+xml</dc:format>
    <dc:creator>
     <cc:Agent>
      <dc:title>Matplotlib v3.3.2, https://matplotlib.org/</dc:title>
     </cc:Agent>
    </dc:creator>
   </cc:Work>
  </rdf:RDF>
 </metadata>
 <defs>
  <style type="text/css">*{stroke-linecap:butt;stroke-linejoin:round;}</style>
 </defs>
 <g id="figure_1">
  <g id="patch_1">
   <path d="M 0 144 
L 144 144 
L 144 0 
L 0 0 
z
" style="fill:none;"/>
  </g>
  <g id="axes_1">
   <g id="patch_2">
    <path d="M 18 67.68 
L 129.6 67.68 
L 129.6 17.28 
L 18 17.28 
z
" style="fill:none;"/>
   </g>
   <g id="PolyCollection_1">
    <path clip-path="url(#pf21d2ece0c)" d="M 18 67.661345 
L 18 67.661345 
L 20.277551 67.661345 
L 22.555102 67.661345 
L 24.832653 67.661345 
L 27.110204 67.661345 
L 29.387755 67.660923 
L 31.665306 67.591006 
L 33.942857 67.40506 
L 36.220408 66.889102 
L 38.497959 65.911782 
L 40.77551 64.745774 
L 43.053061 62.923383 
L 45.330612 60.298685 
L 47.608163 57.413816 
L 49.885714 53.739779 
L 52.163265 49.918888 
L 54.440816 45.089367 
L 56.718367 39.899476 
L 58.995918 35.067946 
L 61.273469 30.595345 
L 63.55102 26.545218 
L 65.828571 22.779965 
L 68.106122 20.22377 
L 70.383673 17.97965 
L 72.661224 17.28 
L 74.938776 24.311429 
L 77.216327 19.235433 
L 79.493878 22.465525 
L 81.771429 26.347978 
L 84.04898 30.579425 
L 86.326531 34.357415 
L 88.604082 39.120682 
L 90.881633 42.883507 
L 93.159184 47.363511 
L 95.436735 50.980063 
L 97.714286 54.492368 
L 99.991837 57.50308 
L 102.269388 60.157261 
L 104.546939 62.193342 
L 106.82449 64.138516 
L 109.102041 65.382475 
L 111.379592 66.465611 
L 113.657143 67.099915 
L 115.934694 67.46555 
L 118.212245 67.597801 
L 120.489796 67.661345 
L 122.767347 67.661345 
L 125.044898 67.661345 
L 127.322449 67.661345 
L 129.6 67.661345 
L 129.6 67.661345 
L 129.6 67.661345 
L 127.322449 67.661345 
L 125.044898 67.661345 
L 122.767347 67.661345 
L 120.489796 67.661345 
L 118.212245 67.68 
L 115.934694 67.641325 
L 113.657143 67.447148 
L 111.379592 67.000803 
L 109.102041 66.181581 
L 106.82449 65.213201 
L 104.546939 63.4258 
L 102.269388 61.708389 
L 99.991837 59.570822 
L 97.714286 56.526502 
L 95.436735 53.384085 
L 93.159184 49.780064 
L 90.881633 46.170446 
L 88.604082 42.593882 
L 86.326531 37.923332 
L 84.04898 34.132299 
L 81.771429 30.580493 
L 79.493878 27.898704 
L 77.216327 24.296406 
L 74.938776 28.891797 
L 72.661224 22.767595 
L 70.383673 22.832701 
L 68.106122 25.126461 
L 65.828571 27.144077 
L 63.55102 30.879977 
L 61.273469 34.696284 
L 58.995918 39.117967 
L 56.718367 43.408595 
L 54.440816 47.625961 
L 52.163265 51.863612 
L 49.885714 56.088526 
L 47.608163 59.370252 
L 45.330612 61.949767 
L 43.053061 64.175083 
L 40.77551 65.746908 
L 38.497959 66.698814 
L 36.220408 67.357347 
L 33.942857 67.60882 
L 31.665306 67.674367 
L 29.387755 67.661655 
L 27.110204 67.661345 
L 24.832653 67.661345 
L 22.555102 67.661345 
L 20.277551 67.661345 
L 18 67.661345 
z
" style="fill:#fc8d62;fill-opacity:0.2;"/>
   </g>
   <g id="PolyCollection_2">
    <path clip-path="url(#pf21d2ece0c)" d="M 18 67.661345 
L 18 67.661345 
L 20.277551 67.661345 
L 22.555102 67.661345 
L 24.832653 67.661345 
L 27.110204 67.661345 
L 29.387755 67.661313 
L 31.665306 67.601319 
L 33.942857 67.380032 
L 36.220408 66.976552 
L 38.497959 66.097305 
L 40.77551 64.867398 
L 43.053061 63.225742 
L 45.330612 61.078721 
L 47.608163 58.463553 
L 49.885714 54.862245 
L 52.163265 51.505128 
L 54.440816 47.795442 
L 56.718367 43.439092 
L 58.995918 38.553278 
L 61.273469 34.49005 
L 63.55102 30.438785 
L 65.828571 26.928341 
L 68.106122 24.125737 
L 70.383673 21.763174 
L 72.661224 19.565572 
L 74.938776 24.11082 
L 77.216327 19.554111 
L 79.493878 21.252725 
L 81.771429 23.367531 
L 84.04898 27.414999 
L 86.326531 30.735896 
L 88.604082 35.192256 
L 90.881633 39.42022 
L 93.159184 43.555282 
L 95.436735 48.180137 
L 97.714286 51.89159 
L 99.991837 55.393099 
L 102.269388 58.599661 
L 104.546939 61.335391 
L 106.82449 63.625951 
L 109.102041 65.164361 
L 111.379592 66.233658 
L 113.657143 66.955465 
L 115.934694 67.41736 
L 118.212245 67.597461 
L 120.489796 67.661345 
L 122.767347 67.661345 
L 125.044898 67.661345 
L 127.322449 67.661345 
L 129.6 67.661345 
L 129.6 67.661345 
L 129.6 67.661345 
L 127.322449 67.661345 
L 125.044898 67.661345 
L 122.767347 67.661345 
L 120.489796 67.661345 
L 118.212245 67.686696 
L 115.934694 67.607773 
L 113.657143 67.394554 
L 111.379592 66.844417 
L 109.102041 65.904983 
L 106.82449 64.754842 
L 104.546939 62.911348 
L 102.269388 60.714137 
L 99.991837 57.841849 
L 97.714286 54.372267 
L 95.436735 51.323348 
L 93.159184 46.763095 
L 90.881633 42.908518 
L 88.604082 39.099863 
L 86.326531 35.272573 
L 84.04898 32.198229 
L 81.771429 28.14641 
L 79.493878 25.671166 
L 77.216327 24.633028 
L 74.938776 28.612842 
L 72.661224 24.375857 
L 70.383673 25.993272 
L 68.106122 27.136497 
L 65.828571 31.250242 
L 63.55102 34.766298 
L 61.273469 38.897953 
L 58.995918 42.489864 
L 56.718367 46.129899 
L 54.440816 50.417921 
L 52.163265 53.970757 
L 49.885714 57.324357 
L 47.608163 60.12102 
L 45.330612 62.580247 
L 43.053061 64.513389 
L 40.77551 65.914538 
L 38.497959 66.783856 
L 36.220408 67.370583 
L 33.942857 67.593511 
L 31.665306 67.678151 
L 29.387755 67.661363 
L 27.110204 67.661345 
L 24.832653 67.661345 
L 22.555102 67.661345 
L 20.277551 67.661345 
L 18 67.661345 
z
" style="fill:#fc8d62;fill-opacity:0.2;"/>
   </g>
   <g id="matplotlib.axis_1">
    <g id="xtick_1">
     <g id="line2d_1">
      <defs>
       <path d="M 0 0 
L 0 3.5 
" id="m341b363c25" style="stroke:#a9a9a9;stroke-width:2;"/>
      </defs>
      <g>
       <use style="fill:#a9a9a9;stroke:#a9a9a9;stroke-width:2;" x="29.387755" xlink:href="#m341b363c25" y="67.661345"/>
      </g>
     </g>
    </g>
    <g id="xtick_2">
     <g id="line2d_2">
      <g>
       <use style="fill:#a9a9a9;stroke:#a9a9a9;stroke-width:2;" x="52.163265" xlink:href="#m341b363c25" y="67.661345"/>
      </g>
     </g>
    </g>
    <g id="xtick_3">
     <g id="line2d_3">
      <g>
       <use style="fill:#a9a9a9;stroke:#a9a9a9;stroke-width:2;" x="74.938776" xlink:href="#m341b363c25" y="67.661345"/>
      </g>
     </g>
    </g>
    <g id="xtick_4">
     <g id="line2d_4">
      <g>
       <use style="fill:#a9a9a9;stroke:#a9a9a9;stroke-width:2;" x="97.714286" xlink:href="#m341b363c25" y="67.661345"/>
      </g>
     </g>
    </g>
    <g id="xtick_5">
     <g id="line2d_5">
      <g>
       <use style="fill:#a9a9a9;stroke:#a9a9a9;stroke-width:2;" x="120.489796" xlink:href="#m341b363c25" y="67.661345"/>
      </g>
     </g>
    </g>
   </g>
   <g id="matplotlib.axis_2"/>
   <g id="line2d_6">
    <path clip-path="url(#pf21d2ece0c)" d="M 18 67.661345 
L 20.277551 67.661345 
L 22.555102 67.661345 
L 24.832653 67.661345 
L 27.110204 67.661345 
L 29.387755 67.661289 
L 31.665306 67.632686 
L 33.942857 67.50694 
L 36.220408 67.123224 
L 38.497959 66.305298 
L 40.77551 65.246341 
L 43.053061 63.549233 
L 45.330612 61.124226 
L 47.608163 58.392034 
L 49.885714 54.914152 
L 52.163265 50.89125 
L 54.440816 46.357664 
L 56.718367 41.654036 
L 58.995918 37.092957 
L 61.273469 32.645815 
L 63.55102 28.712598 
L 65.828571 24.962021 
L 68.106122 22.675115 
L 70.383673 20.406176 
L 72.661224 20.023797 
L 74.938776 26.601613 
L 77.216327 21.76592 
L 79.493878 25.182114 
L 81.771429 28.464235 
L 84.04898 32.355862 
L 86.326531 36.140373 
L 88.604082 40.857282 
L 90.881633 44.526976 
L 93.159184 48.571788 
L 95.436735 52.182074 
L 97.714286 55.509435 
L 99.991837 58.536951 
L 102.269388 60.932825 
L 104.546939 62.809571 
L 106.82449 64.675858 
L 109.102041 65.782028 
L 111.379592 66.733207 
L 113.657143 67.273532 
L 115.934694 67.553437 
L 118.212245 67.638901 
L 120.489796 67.661345 
L 122.767347 67.661345 
L 125.044898 67.661345 
L 127.322449 67.661345 
L 129.6 67.661345 
" style="fill:none;stroke:#fc8d62;stroke-linecap:square;stroke-width:2;"/>
   </g>
   <g id="line2d_7">
    <path clip-path="url(#pf21d2ece0c)" d="M 18 67.661345 
L 20.277551 67.661345 
L 22.555102 67.661345 
L 24.832653 67.661345 
L 27.110204 67.661345 
L 29.387755 67.661338 
L 31.665306 67.639735 
L 33.942857 67.486771 
L 36.220408 67.173567 
L 38.497959 66.440581 
L 40.77551 65.390968 
L 43.053061 63.869565 
L 45.330612 61.829484 
L 47.608163 59.292287 
L 49.885714 56.093301 
L 52.163265 52.737943 
L 54.440816 49.106682 
L 56.718367 44.784495 
L 58.995918 40.521571 
L 61.273469 36.694001 
L 63.55102 32.602541 
L 65.828571 29.089292 
L 68.106122 25.631117 
L 70.383673 23.878223 
L 72.661224 21.970714 
L 74.938776 26.361831 
L 77.216327 22.093569 
L 79.493878 23.461945 
L 81.771429 25.756971 
L 84.04898 29.806614 
L 86.326531 33.004234 
L 88.604082 37.146059 
L 90.881633 41.164369 
L 93.159184 45.159188 
L 95.436735 49.751742 
L 97.714286 53.131929 
L 99.991837 56.617474 
L 102.269388 59.656899 
L 104.546939 62.12337 
L 106.82449 64.190396 
L 109.102041 65.534672 
L 111.379592 66.539037 
L 113.657143 67.17501 
L 115.934694 67.512566 
L 118.212245 67.642079 
L 120.489796 67.661345 
L 122.767347 67.661345 
L 125.044898 67.661345 
L 127.322449 67.661345 
L 129.6 67.661345 
" style="fill:none;stroke:#fc8d62;stroke-dasharray:1.5,1.5;stroke-dashoffset:0;stroke-opacity:0.7;stroke-width:1.5;"/>
   </g>
   <g id="patch_3">
    <path d="M 74.938776 67.68 
L 74.938776 17.28 
" style="fill:none;stroke:#a9a9a9;stroke-linecap:square;stroke-linejoin:miter;stroke-width:2;"/>
   </g>
   <g id="patch_4">
    <path d="M 129.6 67.68 
L 129.6 17.28 
" style="fill:none;"/>
   </g>
   <g id="patch_5">
    <path d="M 18 67.661345 
L 129.6 67.661345 
" style="fill:none;stroke:#a9a9a9;stroke-linecap:square;stroke-linejoin:miter;stroke-width:2;"/>
   </g>
   <g id="patch_6">
    <path d="M 18 17.28 
L 129.6 17.28 
" style="fill:none;"/>
   </g>
   <g id="legend_1">
    <g id="line2d_8">
     <path d="M 87.67 26.448906 
L 101.67 26.448906 
" style="fill:none;stroke:#fc8d62;stroke-linecap:square;stroke-width:2;"/>
    </g>
    <g id="line2d_9"/>
    <g id="text_1">
     <!-- $\theta$ -->
     <g transform="translate(107.27 28.898906)scale(0.07 -0.07)">
      <defs>
       <path d="M 45.515625 34.671875 
L 14.453125 34.671875 
Q 12.359375 20.0625 14.5 13.875 
Q 17.1875 6.25 24.46875 6.25 
Q 31.78125 6.25 37.359375 13.921875 
Q 42.234375 20.65625 45.515625 34.671875 
z
M 47.015625 42.96875 
Q 48.34375 56.84375 46.625 61.71875 
Q 43.953125 69.4375 36.765625 69.4375 
Q 29.296875 69.4375 23.828125 61.8125 
Q 19.53125 55.671875 16.15625 42.96875 
z
M 38.1875 76.765625 
Q 49.90625 76.765625 54.59375 66.40625 
Q 59.28125 56.109375 55.71875 37.84375 
Q 52.203125 19.625 43.453125 9.28125 
Q 34.765625 -1.125 23.046875 -1.125 
Q 11.28125 -1.125 6.640625 9.28125 
Q 2 19.625 5.515625 37.84375 
Q 9.078125 56.109375 17.71875 66.40625 
Q 26.421875 76.765625 38.1875 76.765625 
z
" id="DejaVuSans-Oblique-952"/>
      </defs>
      <use transform="translate(0 0.234375)" xlink:href="#DejaVuSans-Oblique-952"/>
     </g>
    </g>
    <g id="line2d_10">
     <path d="M 87.67 36.723594 
L 101.67 36.723594 
" style="fill:none;stroke:#fc8d62;stroke-dasharray:1.5,1.5;stroke-dashoffset:0;stroke-opacity:0.7;stroke-width:1.5;"/>
    </g>
    <g id="line2d_11"/>
    <g id="text_2">
     <!-- No $\theta$ -->
     <g transform="translate(107.27 39.173594)scale(0.07 -0.07)">
      <defs>
       <path d="M 9.8125 72.90625 
L 23.09375 72.90625 
L 55.421875 11.921875 
L 55.421875 72.90625 
L 64.984375 72.90625 
L 64.984375 0 
L 51.703125 0 
L 19.390625 60.984375 
L 19.390625 0 
L 9.8125 0 
z
" id="DejaVuSans-78"/>
       <path d="M 30.609375 48.390625 
Q 23.390625 48.390625 19.1875 42.75 
Q 14.984375 37.109375 14.984375 27.296875 
Q 14.984375 17.484375 19.15625 11.84375 
Q 23.34375 6.203125 30.609375 6.203125 
Q 37.796875 6.203125 41.984375 11.859375 
Q 46.1875 17.53125 46.1875 27.296875 
Q 46.1875 37.015625 41.984375 42.703125 
Q 37.796875 48.390625 30.609375 48.390625 
z
M 30.609375 56 
Q 42.328125 56 49.015625 48.375 
Q 55.71875 40.765625 55.71875 27.296875 
Q 55.71875 13.875 49.015625 6.21875 
Q 42.328125 -1.421875 30.609375 -1.421875 
Q 18.84375 -1.421875 12.171875 6.21875 
Q 5.515625 13.875 5.515625 27.296875 
Q 5.515625 40.765625 12.171875 48.375 
Q 18.84375 56 30.609375 56 
z
" id="DejaVuSans-111"/>
       <path id="DejaVuSans-32"/>
      </defs>
      <use transform="translate(0 0.234375)" xlink:href="#DejaVuSans-78"/>
      <use transform="translate(74.804688 0.234375)" xlink:href="#DejaVuSans-111"/>
      <use transform="translate(135.986328 0.234375)" xlink:href="#DejaVuSans-32"/>
      <use transform="translate(167.773438 0.234375)" xlink:href="#DejaVuSans-Oblique-952"/>
     </g>
    </g>
   </g>
  </g>
  <g id="axes_2">
   <g id="patch_7">
    <path d="M 18 128.16 
L 129.6 128.16 
L 129.6 77.76 
L 18 77.76 
z
" style="fill:none;"/>
   </g>
   <g id="PolyCollection_3">
    <path clip-path="url(#pf0a65a9e87)" d="M 18 120.515758 
L 18 120.437548 
L 20.277551 120.656768 
L 22.555102 120.718141 
L 24.832653 120.629963 
L 27.110204 120.442208 
L 29.387755 120.234787 
L 31.665306 120.058027 
L 33.942857 119.771135 
L 36.220408 119.211504 
L 38.497959 118.251544 
L 40.77551 116.799692 
L 43.053061 114.804374 
L 45.330612 112.257133 
L 47.608163 109.190382 
L 49.885714 105.672543 
L 52.163265 101.804544 
L 54.440816 97.715996 
L 56.718367 93.561309 
L 58.995918 89.514966 
L 61.273469 85.766343 
L 63.55102 82.514245 
L 65.828571 79.961662 
L 68.106122 78.311002 
L 70.383673 77.76 
L 72.661224 78.498504 
L 74.938776 80.695888 
L 77.216327 84.443165 
L 79.493878 89.336375 
L 81.771429 94.925529 
L 84.04898 100.79087 
L 86.326531 106.567158 
L 88.604082 111.95289 
L 90.881633 116.714972 
L 93.159184 120.689626 
L 95.436735 123.781109 
L 97.714286 125.958849 
L 99.991837 127.251489 
L 102.269388 127.736686 
L 104.546939 127.52871 
L 106.82449 126.7674 
L 109.102041 125.608419 
L 111.379592 124.215141 
L 113.657143 122.751641 
L 115.934694 121.37759 
L 118.212245 120.246536 
L 120.489796 119.509053 
L 122.767347 119.261358 
L 125.044898 119.38279 
L 127.322449 119.708515 
L 129.6 120.096765 
L 129.6 120.201284 
L 129.6 120.201284 
L 127.322449 119.838119 
L 125.044898 119.531711 
L 122.767347 119.421652 
L 120.489796 119.674831 
L 118.212245 120.421631 
L 115.934694 121.579089 
L 113.657143 122.996332 
L 111.379592 124.510115 
L 109.102041 125.950863 
L 106.82449 127.147952 
L 104.546939 127.935545 
L 102.269388 128.16 
L 99.991837 127.688877 
L 97.714286 126.419969 
L 95.436735 124.289415 
L 93.159184 121.277509 
L 90.881633 117.414881 
L 88.604082 112.790417 
L 86.326531 107.558513 
L 84.04898 101.942781 
L 81.771429 96.235444 
L 79.493878 90.792696 
L 77.216327 86.025757 
L 74.938776 82.376773 
L 72.661224 80.242621 
L 70.383673 79.529265 
L 68.106122 80.066162 
L 65.828571 81.664255 
L 63.55102 84.128401 
L 61.273469 87.26046 
L 58.995918 90.863195 
L 56.718367 94.744852 
L 54.440816 98.724133 
L 52.163265 102.635159 
L 49.885714 106.332239 
L 47.608163 109.693999 
L 45.330612 112.627263 
L 43.053061 115.0702 
L 40.77551 116.994878 
L 38.497959 118.407182 
L 36.220408 119.347749 
L 33.942857 119.896218 
L 31.665306 120.173792 
L 29.387755 120.339753 
L 27.110204 120.531462 
L 24.832653 120.700486 
L 22.555102 120.774416 
L 20.277551 120.715285 
L 18 120.515758 
z
" style="fill:#66c2a5;fill-opacity:0.2;"/>
   </g>
   <g id="matplotlib.axis_3">
    <g id="xtick_6">
     <g id="line2d_12">
      <g>
       <use style="fill:#a9a9a9;stroke:#a9a9a9;stroke-width:2;" x="29.387755" xlink:href="#m341b363c25" y="122.162872"/>
      </g>
     </g>
    </g>
    <g id="xtick_7">
     <g id="line2d_13">
      <g>
       <use style="fill:#a9a9a9;stroke:#a9a9a9;stroke-width:2;" x="52.163265" xlink:href="#m341b363c25" y="122.162872"/>
      </g>
     </g>
    </g>
    <g id="xtick_8">
     <g id="line2d_14">
      <g>
       <use style="fill:#a9a9a9;stroke:#a9a9a9;stroke-width:2;" x="74.938776" xlink:href="#m341b363c25" y="122.162872"/>
      </g>
     </g>
    </g>
    <g id="xtick_9">
     <g id="line2d_15">
      <g>
       <use style="fill:#a9a9a9;stroke:#a9a9a9;stroke-width:2;" x="97.714286" xlink:href="#m341b363c25" y="122.162872"/>
      </g>
     </g>
    </g>
    <g id="xtick_10">
     <g id="line2d_16">
      <g>
       <use style="fill:#a9a9a9;stroke:#a9a9a9;stroke-width:2;" x="120.489796" xlink:href="#m341b363c25" y="122.162872"/>
      </g>
     </g>
    </g>
   </g>
   <g id="matplotlib.axis_4"/>
   <g id="line2d_17">
    <path clip-path="url(#pf0a65a9e87)" d="M 18 120.476653 
L 20.277551 120.686027 
L 22.555102 120.746279 
L 24.832653 120.665224 
L 27.110204 120.486835 
L 29.387755 120.28727 
L 31.665306 120.115909 
L 33.942857 119.833677 
L 36.220408 119.279627 
L 38.497959 118.329363 
L 40.77551 116.897285 
L 43.053061 114.937287 
L 45.330612 112.442198 
L 47.608163 109.442191 
L 49.885714 106.002391 
L 52.163265 102.219852 
L 54.440816 98.220065 
L 56.718367 94.153081 
L 58.995918 90.18908 
L 61.273469 86.513402 
L 63.55102 83.321323 
L 65.828571 80.812959 
L 68.106122 79.188582 
L 70.383673 78.644632 
L 72.661224 79.370562 
L 74.938776 81.536331 
L 77.216327 85.234461 
L 79.493878 90.064535 
L 81.771429 95.580486 
L 84.04898 101.366825 
L 86.326531 107.062835 
L 88.604082 112.371654 
L 90.881633 117.064927 
L 93.159184 120.983567 
L 95.436735 124.035262 
L 97.714286 126.189409 
L 99.991837 127.470183 
L 102.269388 127.948343 
L 104.546939 127.732128 
L 106.82449 126.957676 
L 109.102041 125.779641 
L 111.379592 124.362628 
L 113.657143 122.873987 
L 115.934694 121.47834 
L 118.212245 120.334084 
L 120.489796 119.591942 
L 122.767347 119.341505 
L 125.044898 119.45725 
L 127.322449 119.773317 
L 129.6 120.149024 
" style="fill:none;stroke:#66c2a5;stroke-linecap:square;stroke-width:2;"/>
   </g>
   <g id="patch_8">
    <path d="M 74.938776 128.16 
L 74.938776 77.76 
" style="fill:none;stroke:#a9a9a9;stroke-linecap:square;stroke-linejoin:miter;stroke-width:2;"/>
   </g>
   <g id="patch_9">
    <path d="M 129.6 128.16 
L 129.6 77.76 
" style="fill:none;"/>
   </g>
   <g id="patch_10">
    <path d="M 18 122.162872 
L 129.6 122.162872 
" style="fill:none;stroke:#a9a9a9;stroke-linecap:square;stroke-linejoin:miter;stroke-width:2;"/>
   </g>
   <g id="patch_11">
    <path d="M 18 77.76 
L 129.6 77.76 
" style="fill:none;"/>
   </g>
  </g>
 </g>
 <defs>
  <clipPath id="pf21d2ece0c">
   <rect height="50.4" width="111.6" x="18" y="17.28"/>
  </clipPath>
  <clipPath id="pf0a65a9e87">
   <rect height="50.4" width="111.6" x="18" y="77.76"/>
  </clipPath>
 </defs>
</svg>
