<?xml version="1.0" encoding="utf-8" standalone="no"?>
<!DOCTYPE svg PUBLIC "-//W3C//DTD SVG 1.1//EN"
  "http://www.w3.org/Graphics/SVG/1.1/DTD/svg11.dtd">
<!-- Created with matplotlib (https://matplotlib.org/) -->
<svg height="144pt" version="1.1" viewBox="0 0 144 144" width="144pt" xmlns="http://www.w3.org/2000/svg" xmlns:xlink="http://www.w3.org/1999/xlink">
 <metadata>
  <rdf:RDF xmlns:cc="http://creativecommons.org/ns#" xmlns:dc="http://purl.org/dc/elements/1.1/" xmlns:rdf="http://www.w3.org/1999/02/22-rdf-syntax-ns#">
   <cc:Work>
    <dc:type rdf:resource="http://purl.org/dc/dcmitype/StillImage"/>
    <dc:date>2021-10-13T14:10:42.375935</dc:date>
    <dc:format>image/svg+xml</dc:format>
    <dc:creator>
     <cc:Agent>
      <dc:title>Matplotlib v3.3.2, https://matplotlib.org/</dc:title>
     </cc:Agent>
    </dc:creator>
   </cc:Work>
  </rdf:RDF>
 </metadata>
 <defs>
  <style type="text/css">*{stroke-linecap:butt;stroke-linejoin:round;}</style>
 </defs>
 <g id="figure_1">
  <g id="patch_1">
   <path d="M 0 144 
L 144 144 
L 144 0 
L 0 0 
z
" style="fill:none;"/>
  </g>
  <g id="axes_1">
   <g id="patch_2">
    <path d="M 18 67.68 
L 129.6 67.68 
L 129.6 17.28 
L 18 17.28 
z
" style="fill:none;"/>
   </g>
   <g id="PolyCollection_1">
    <path clip-path="url(#p373af85c79)" d="M 18 66.966867 
L 18 66.966867 
L 20.277551 66.966867 
L 22.555102 66.966867 
L 24.832653 66.966867 
L 27.110204 66.966867 
L 29.387755 66.966867 
L 31.665306 66.802976 
L 33.942857 66.41185 
L 36.220408 65.441948 
L 38.497959 64.242844 
L 40.77551 63.408317 
L 43.053061 60.686852 
L 45.330612 59.251674 
L 47.608163 55.704396 
L 49.885714 50.88641 
L 52.163265 47.069939 
L 54.440816 42.482886 
L 56.718367 37.068368 
L 58.995918 31.795516 
L 61.273469 30.746979 
L 63.55102 24.577168 
L 65.828571 21.475498 
L 68.106122 18.63145 
L 70.383673 17.28 
L 72.661224 20.944028 
L 74.938776 28.733764 
L 77.216327 21.853596 
L 79.493878 24.020412 
L 81.771429 29.051357 
L 84.04898 33.318114 
L 86.326531 36.309399 
L 88.604082 38.156263 
L 90.881633 44.238722 
L 93.159184 47.981864 
L 95.436735 49.158165 
L 97.714286 53.733908 
L 99.991837 57.565206 
L 102.269388 59.052259 
L 104.546939 60.312784 
L 106.82449 62.120855 
L 109.102041 64.275141 
L 111.379592 65.270616 
L 113.657143 65.828208 
L 115.934694 65.840172 
L 118.212245 66.649186 
L 120.489796 66.966867 
L 122.767347 66.966867 
L 125.044898 66.966867 
L 127.322449 66.966867 
L 129.6 66.966867 
L 129.6 66.966867 
L 129.6 66.966867 
L 127.322449 66.966867 
L 125.044898 66.966867 
L 122.767347 66.966867 
L 120.489796 66.966867 
L 118.212245 67.210276 
L 115.934694 67.613454 
L 113.657143 67.46389 
L 111.379592 67.516695 
L 109.102041 67.557317 
L 106.82449 67.68 
L 104.546939 66.781227 
L 102.269388 66.629556 
L 99.991837 65.420885 
L 97.714286 64.303778 
L 95.436735 63.654947 
L 93.159184 59.077136 
L 90.881633 59.927332 
L 88.604082 53.695398 
L 86.326531 53.064547 
L 84.04898 49.513388 
L 81.771429 45.775666 
L 79.493878 43.823839 
L 77.216327 41.842129 
L 74.938776 44.088574 
L 72.661224 42.757778 
L 70.383673 39.606766 
L 68.106122 40.946314 
L 65.828571 41.860928 
L 63.55102 43.736055 
L 61.273469 46.805325 
L 58.995918 47.647491 
L 56.718367 53.762652 
L 54.440816 57.138505 
L 52.163265 59.540859 
L 49.885714 60.562141 
L 47.608163 63.503586 
L 45.330612 65.475731 
L 43.053061 65.919703 
L 40.77551 67.386012 
L 38.497959 67.438065 
L 36.220408 67.595216 
L 33.942857 67.370796 
L 31.665306 67.102668 
L 29.387755 66.966867 
L 27.110204 66.966867 
L 24.832653 66.966867 
L 22.555102 66.966867 
L 20.277551 66.966867 
L 18 66.966867 
z
" style="fill:#fc8d62;fill-opacity:0.2;"/>
   </g>
   <g id="PolyCollection_2">
    <path clip-path="url(#p373af85c79)" d="M 18 66.966867 
L 18 66.966867 
L 20.277551 66.966867 
L 22.555102 66.966867 
L 24.832653 66.966867 
L 27.110204 66.966867 
L 29.387755 66.966867 
L 31.665306 66.956359 
L 33.942857 66.419624 
L 36.220408 65.759692 
L 38.497959 64.214895 
L 40.77551 62.958408 
L 43.053061 62.449832 
L 45.330612 58.307347 
L 47.608163 57.870148 
L 49.885714 53.833357 
L 52.163265 49.789125 
L 54.440816 46.534906 
L 56.718367 43.815324 
L 58.995918 38.946242 
L 61.273469 35.380113 
L 63.55102 32.258201 
L 65.828571 28.831973 
L 68.106122 24.543061 
L 70.383673 24.914814 
L 72.661224 23.079431 
L 74.938776 27.499281 
L 77.216327 24.995319 
L 79.493878 22.120847 
L 81.771429 29.567103 
L 84.04898 26.622531 
L 86.326531 30.718151 
L 88.604082 36.787317 
L 90.881633 38.862592 
L 93.159184 44.239655 
L 95.436735 46.674399 
L 97.714286 51.660231 
L 99.991837 53.330984 
L 102.269388 56.065743 
L 104.546939 59.97315 
L 106.82449 61.016221 
L 109.102041 63.985612 
L 111.379592 64.266033 
L 113.657143 65.699907 
L 115.934694 66.05787 
L 118.212245 66.907339 
L 120.489796 66.966867 
L 122.767347 66.966867 
L 125.044898 66.966867 
L 127.322449 66.966867 
L 129.6 66.966867 
L 129.6 66.966867 
L 129.6 66.966867 
L 127.322449 66.966867 
L 125.044898 66.966867 
L 122.767347 66.966867 
L 120.489796 66.966867 
L 118.212245 67.011658 
L 115.934694 67.553226 
L 113.657143 67.553444 
L 111.379592 67.806496 
L 109.102041 67.330839 
L 106.82449 67.149028 
L 104.546939 66.295572 
L 102.269388 64.498832 
L 99.991837 63.935117 
L 97.714286 62.735057 
L 95.436735 59.36671 
L 93.159184 57.535336 
L 90.881633 56.543083 
L 88.604082 54.398313 
L 86.326531 50.578816 
L 84.04898 47.380429 
L 81.771429 46.701199 
L 79.493878 42.503807 
L 77.216327 44.281172 
L 74.938776 42.480242 
L 72.661224 42.689525 
L 70.383673 44.203755 
L 68.106122 44.562069 
L 65.828571 48.586148 
L 63.55102 49.152508 
L 61.273469 51.720977 
L 58.995918 53.603802 
L 56.718367 58.07995 
L 54.440816 59.670267 
L 52.163265 60.606694 
L 49.885714 63.232108 
L 47.608163 65.413844 
L 45.330612 66.273647 
L 43.053061 66.844359 
L 40.77551 67.368734 
L 38.497959 67.742612 
L 36.220408 67.484117 
L 33.942857 67.290671 
L 31.665306 66.976575 
L 29.387755 66.966867 
L 27.110204 66.966867 
L 24.832653 66.966867 
L 22.555102 66.966867 
L 20.277551 66.966867 
L 18 66.966867 
z
" style="fill:#fc8d62;fill-opacity:0.2;"/>
   </g>
   <g id="matplotlib.axis_1">
    <g id="xtick_1">
     <g id="line2d_1">
      <defs>
       <path d="M 0 0 
L 0 3.5 
" id="m587a4f5bfd" style="stroke:#a9a9a9;stroke-width:2;"/>
      </defs>
      <g>
       <use style="fill:#a9a9a9;stroke:#a9a9a9;stroke-width:2;" x="29.387755" xlink:href="#m587a4f5bfd" y="66.966867"/>
      </g>
     </g>
    </g>
    <g id="xtick_2">
     <g id="line2d_2">
      <g>
       <use style="fill:#a9a9a9;stroke:#a9a9a9;stroke-width:2;" x="52.163265" xlink:href="#m587a4f5bfd" y="66.966867"/>
      </g>
     </g>
    </g>
    <g id="xtick_3">
     <g id="line2d_3">
      <g>
       <use style="fill:#a9a9a9;stroke:#a9a9a9;stroke-width:2;" x="74.938776" xlink:href="#m587a4f5bfd" y="66.966867"/>
      </g>
     </g>
    </g>
    <g id="xtick_4">
     <g id="line2d_4">
      <g>
       <use style="fill:#a9a9a9;stroke:#a9a9a9;stroke-width:2;" x="97.714286" xlink:href="#m587a4f5bfd" y="66.966867"/>
      </g>
     </g>
    </g>
    <g id="xtick_5">
     <g id="line2d_5">
      <g>
       <use style="fill:#a9a9a9;stroke:#a9a9a9;stroke-width:2;" x="120.489796" xlink:href="#m587a4f5bfd" y="66.966867"/>
      </g>
     </g>
    </g>
   </g>
   <g id="matplotlib.axis_2"/>
   <g id="line2d_6">
    <path clip-path="url(#p373af85c79)" d="M 18 66.966867 
L 20.277551 66.966867 
L 22.555102 66.966867 
L 24.832653 66.966867 
L 27.110204 66.966867 
L 29.387755 66.966867 
L 31.665306 66.952822 
L 33.942857 66.891323 
L 36.220408 66.518582 
L 38.497959 65.840454 
L 40.77551 65.397165 
L 43.053061 63.303277 
L 45.330612 62.363703 
L 47.608163 59.603991 
L 49.885714 55.724275 
L 52.163265 53.305399 
L 54.440816 49.810695 
L 56.718367 45.41551 
L 58.995918 39.721503 
L 61.273469 38.776152 
L 63.55102 34.156612 
L 65.828571 31.668213 
L 68.106122 29.788882 
L 70.383673 28.443383 
L 72.661224 31.850903 
L 74.938776 36.411169 
L 77.216327 31.847862 
L 79.493878 33.922125 
L 81.771429 37.413511 
L 84.04898 41.415751 
L 86.326531 44.686973 
L 88.604082 45.92583 
L 90.881633 52.083027 
L 93.159184 53.5295 
L 95.436735 56.406556 
L 97.714286 59.018843 
L 99.991837 61.493046 
L 102.269388 62.840908 
L 104.546939 63.547005 
L 106.82449 64.900428 
L 109.102041 65.916229 
L 111.379592 66.393656 
L 113.657143 66.646049 
L 115.934694 66.726813 
L 118.212245 66.929731 
L 120.489796 66.966867 
L 122.767347 66.966867 
L 125.044898 66.966867 
L 127.322449 66.966867 
L 129.6 66.966867 
" style="fill:none;stroke:#fc8d62;stroke-linecap:square;stroke-width:2;"/>
   </g>
   <g id="line2d_7">
    <path clip-path="url(#p373af85c79)" d="M 18 66.966867 
L 20.277551 66.966867 
L 22.555102 66.966867 
L 24.832653 66.966867 
L 27.110204 66.966867 
L 29.387755 66.966867 
L 31.665306 66.966467 
L 33.942857 66.855148 
L 36.220408 66.621905 
L 38.497959 65.978754 
L 40.77551 65.163571 
L 43.053061 64.647096 
L 45.330612 62.290497 
L 47.608163 61.641996 
L 49.885714 58.532733 
L 52.163265 55.197909 
L 54.440816 53.102586 
L 56.718367 50.947637 
L 58.995918 46.275022 
L 61.273469 43.550545 
L 63.55102 40.705354 
L 65.828571 38.709061 
L 68.106122 34.552565 
L 70.383673 34.559285 
L 72.661224 32.884478 
L 74.938776 34.989761 
L 77.216327 34.638246 
L 79.493878 32.312327 
L 81.771429 38.134151 
L 84.04898 37.00148 
L 86.326531 40.648483 
L 88.604082 45.592815 
L 90.881633 47.702837 
L 93.159184 50.887495 
L 95.436735 53.020555 
L 97.714286 57.197644 
L 99.991837 58.63305 
L 102.269388 60.282288 
L 104.546939 63.134361 
L 106.82449 64.082625 
L 109.102041 65.658226 
L 111.379592 66.036265 
L 113.657143 66.626676 
L 115.934694 66.805548 
L 118.212245 66.959498 
L 120.489796 66.966867 
L 122.767347 66.966867 
L 125.044898 66.966867 
L 127.322449 66.966867 
L 129.6 66.966867 
" style="fill:none;stroke:#fc8d62;stroke-dasharray:1.5,1.5;stroke-dashoffset:0;stroke-opacity:0.7;stroke-width:1.5;"/>
   </g>
   <g id="patch_3">
    <path d="M 74.938776 67.68 
L 74.938776 17.28 
" style="fill:none;stroke:#a9a9a9;stroke-linecap:square;stroke-linejoin:miter;stroke-width:2;"/>
   </g>
   <g id="patch_4">
    <path d="M 129.6 67.68 
L 129.6 17.28 
" style="fill:none;"/>
   </g>
   <g id="patch_5">
    <path d="M 18 66.966867 
L 129.6 66.966867 
" style="fill:none;stroke:#a9a9a9;stroke-linecap:square;stroke-linejoin:miter;stroke-width:2;"/>
   </g>
   <g id="patch_6">
    <path d="M 18 17.28 
L 129.6 17.28 
" style="fill:none;"/>
   </g>
   <g id="legend_1">
    <g id="line2d_8">
     <path d="M 87.67 26.448906 
L 101.67 26.448906 
" style="fill:none;stroke:#fc8d62;stroke-linecap:square;stroke-width:2;"/>
    </g>
    <g id="line2d_9"/>
    <g id="text_1">
     <!-- $\theta$ -->
     <g transform="translate(107.27 28.898906)scale(0.07 -0.07)">
      <defs>
       <path d="M 45.515625 34.671875 
L 14.453125 34.671875 
Q 12.359375 20.0625 14.5 13.875 
Q 17.1875 6.25 24.46875 6.25 
Q 31.78125 6.25 37.359375 13.921875 
Q 42.234375 20.65625 45.515625 34.671875 
z
M 47.015625 42.96875 
Q 48.34375 56.84375 46.625 61.71875 
Q 43.953125 69.4375 36.765625 69.4375 
Q 29.296875 69.4375 23.828125 61.8125 
Q 19.53125 55.671875 16.15625 42.96875 
z
M 38.1875 76.765625 
Q 49.90625 76.765625 54.59375 66.40625 
Q 59.28125 56.109375 55.71875 37.84375 
Q 52.203125 19.625 43.453125 9.28125 
Q 34.765625 -1.125 23.046875 -1.125 
Q 11.28125 -1.125 6.640625 9.28125 
Q 2 19.625 5.515625 37.84375 
Q 9.078125 56.109375 17.71875 66.40625 
Q 26.421875 76.765625 38.1875 76.765625 
z
" id="DejaVuSans-Oblique-952"/>
      </defs>
      <use transform="translate(0 0.234375)" xlink:href="#DejaVuSans-Oblique-952"/>
     </g>
    </g>
    <g id="line2d_10">
     <path d="M 87.67 36.723594 
L 101.67 36.723594 
" style="fill:none;stroke:#fc8d62;stroke-dasharray:1.5,1.5;stroke-dashoffset:0;stroke-opacity:0.7;stroke-width:1.5;"/>
    </g>
    <g id="line2d_11"/>
    <g id="text_2">
     <!-- No $\theta$ -->
     <g transform="translate(107.27 39.173594)scale(0.07 -0.07)">
      <defs>
       <path d="M 9.8125 72.90625 
L 23.09375 72.90625 
L 55.421875 11.921875 
L 55.421875 72.90625 
L 64.984375 72.90625 
L 64.984375 0 
L 51.703125 0 
L 19.390625 60.984375 
L 19.390625 0 
L 9.8125 0 
z
" id="DejaVuSans-78"/>
       <path d="M 30.609375 48.390625 
Q 23.390625 48.390625 19.1875 42.75 
Q 14.984375 37.109375 14.984375 27.296875 
Q 14.984375 17.484375 19.15625 11.84375 
Q 23.34375 6.203125 30.609375 6.203125 
Q 37.796875 6.203125 41.984375 11.859375 
Q 46.1875 17.53125 46.1875 27.296875 
Q 46.1875 37.015625 41.984375 42.703125 
Q 37.796875 48.390625 30.609375 48.390625 
z
M 30.609375 56 
Q 42.328125 56 49.015625 48.375 
Q 55.71875 40.765625 55.71875 27.296875 
Q 55.71875 13.875 49.015625 6.21875 
Q 42.328125 -1.421875 30.609375 -1.421875 
Q 18.84375 -1.421875 12.171875 6.21875 
Q 5.515625 13.875 5.515625 27.296875 
Q 5.515625 40.765625 12.171875 48.375 
Q 18.84375 56 30.609375 56 
z
" id="DejaVuSans-111"/>
       <path id="DejaVuSans-32"/>
      </defs>
      <use transform="translate(0 0.234375)" xlink:href="#DejaVuSans-78"/>
      <use transform="translate(74.804688 0.234375)" xlink:href="#DejaVuSans-111"/>
      <use transform="translate(135.986328 0.234375)" xlink:href="#DejaVuSans-32"/>
      <use transform="translate(167.773438 0.234375)" xlink:href="#DejaVuSans-Oblique-952"/>
     </g>
    </g>
   </g>
  </g>
  <g id="axes_2">
   <g id="patch_7">
    <path d="M 18 128.16 
L 129.6 128.16 
L 129.6 77.76 
L 18 77.76 
z
" style="fill:none;"/>
   </g>
   <g id="PolyCollection_3">
    <path clip-path="url(#pbe8369113e)" d="M 18 120.563017 
L 18 120.484679 
L 20.277551 120.69915 
L 22.555102 120.758228 
L 24.832653 120.670448 
L 27.110204 120.484891 
L 29.387755 120.280131 
L 31.665306 120.105519 
L 33.942857 119.820803 
L 36.220408 119.263887 
L 38.497959 118.30673 
L 40.77551 116.857098 
L 43.053061 114.863453 
L 45.330612 112.317686 
L 47.608163 109.251822 
L 49.885714 105.733969 
L 52.163265 101.864795 
L 54.440816 97.773796 
L 56.718367 93.615254 
L 58.995918 89.563538 
L 61.273469 85.808008 
L 63.55102 82.547535 
L 65.828571 79.985215 
L 68.106122 78.323487 
L 70.383673 77.76 
L 72.661224 78.484347 
L 74.938776 80.665373 
L 77.216327 84.394637 
L 79.493878 89.269962 
L 81.771429 94.843869 
L 84.04898 100.698343 
L 86.326531 106.469126 
L 88.604082 111.854926 
L 90.881633 116.62218 
L 93.159184 120.606448 
L 95.436735 123.711206 
L 97.714286 125.905304 
L 99.991837 127.216806 
L 102.269388 127.722678 
L 104.546939 127.536163 
L 106.82449 126.795761 
L 109.102041 125.655886 
L 111.379592 124.278872 
L 113.657143 122.828018 
L 115.934694 121.462361 
L 118.212245 120.334812 
L 120.489796 119.595611 
L 122.767347 119.342001 
L 125.044898 119.454821 
L 127.322449 119.771168 
L 129.6 120.150787 
L 129.6 120.255098 
L 129.6 120.255098 
L 127.322449 119.900579 
L 125.044898 119.60371 
L 122.767347 119.502517 
L 120.489796 119.762021 
L 118.212245 120.511096 
L 115.934694 121.666795 
L 113.657143 123.078236 
L 111.379592 124.582089 
L 109.102041 126.00904 
L 106.82449 127.189013 
L 104.546939 127.956899 
L 102.269388 128.16 
L 99.991837 127.667069 
L 97.714286 126.377612 
L 95.436735 124.229845 
L 93.159184 121.20608 
L 90.881633 117.338569 
L 88.604082 112.716971 
L 86.326531 107.495701 
L 84.04898 101.897495 
L 81.771429 96.213089 
L 79.493878 90.796597 
L 77.216327 86.056518 
L 74.938776 82.431627 
L 72.661224 80.316745 
L 70.383673 79.617367 
L 68.106122 80.163982 
L 65.828571 81.768292 
L 63.55102 84.235763 
L 61.273469 87.368764 
L 58.995918 90.970503 
L 56.718367 94.849585 
L 54.440816 98.824983 
L 52.163265 102.731043 
L 49.885714 106.422354 
L 47.608163 109.777916 
L 45.330612 112.70485 
L 43.053061 115.141613 
L 40.77551 117.060457 
L 38.497959 118.468094 
L 36.220408 119.405469 
L 33.942857 119.95152 
L 31.665306 120.226569 
L 29.387755 120.389519 
L 27.110204 120.578143 
L 24.832653 120.744575 
L 22.555102 120.817287 
L 20.277551 120.758913 
L 18 120.563017 
z
" style="fill:#66c2a5;fill-opacity:0.2;"/>
   </g>
   <g id="matplotlib.axis_3">
    <g id="xtick_6">
     <g id="line2d_12">
      <g>
       <use style="fill:#a9a9a9;stroke:#a9a9a9;stroke-width:2;" x="29.387755" xlink:href="#m587a4f5bfd" y="122.198492"/>
      </g>
     </g>
    </g>
    <g id="xtick_7">
     <g id="line2d_13">
      <g>
       <use style="fill:#a9a9a9;stroke:#a9a9a9;stroke-width:2;" x="52.163265" xlink:href="#m587a4f5bfd" y="122.198492"/>
      </g>
     </g>
    </g>
    <g id="xtick_8">
     <g id="line2d_14">
      <g>
       <use style="fill:#a9a9a9;stroke:#a9a9a9;stroke-width:2;" x="74.938776" xlink:href="#m587a4f5bfd" y="122.198492"/>
      </g>
     </g>
    </g>
    <g id="xtick_9">
     <g id="line2d_15">
      <g>
       <use style="fill:#a9a9a9;stroke:#a9a9a9;stroke-width:2;" x="97.714286" xlink:href="#m587a4f5bfd" y="122.198492"/>
      </g>
     </g>
    </g>
    <g id="xtick_10">
     <g id="line2d_16">
      <g>
       <use style="fill:#a9a9a9;stroke:#a9a9a9;stroke-width:2;" x="120.489796" xlink:href="#m587a4f5bfd" y="122.198492"/>
      </g>
     </g>
    </g>
   </g>
   <g id="matplotlib.axis_4"/>
   <g id="line2d_17">
    <path clip-path="url(#pbe8369113e)" d="M 18 120.523848 
L 20.277551 120.729031 
L 22.555102 120.787757 
L 24.832653 120.707512 
L 27.110204 120.531517 
L 29.387755 120.334825 
L 31.665306 120.166044 
L 33.942857 119.886162 
L 36.220408 119.334678 
L 38.497959 118.387412 
L 40.77551 116.958777 
L 43.053061 115.002533 
L 45.330612 112.511268 
L 47.608163 109.514869 
L 49.885714 106.078161 
L 52.163265 102.297919 
L 54.440816 98.299389 
L 56.718367 94.232419 
L 58.995918 90.267021 
L 61.273469 86.588386 
L 63.55102 83.391649 
L 65.828571 80.876753 
L 68.106122 79.243735 
L 70.383673 78.688683 
L 72.661224 79.400546 
L 74.938776 81.5485 
L 77.216327 85.225577 
L 79.493878 90.033279 
L 81.771429 95.528479 
L 84.04898 101.297919 
L 86.326531 106.982414 
L 88.604082 112.285949 
L 90.881633 116.980374 
L 93.159184 120.906264 
L 95.436735 123.970525 
L 97.714286 126.141458 
L 99.991837 127.441938 
L 102.269388 127.941339 
L 104.546939 127.746531 
L 106.82449 126.992387 
L 109.102041 125.832463 
L 111.379592 124.43048 
L 113.657143 122.953127 
L 115.934694 121.564578 
L 118.212245 120.422954 
L 120.489796 119.678816 
L 122.767347 119.422259 
L 125.044898 119.529265 
L 127.322449 119.835874 
L 129.6 120.202943 
" style="fill:none;stroke:#66c2a5;stroke-linecap:square;stroke-width:2;"/>
   </g>
   <g id="patch_8">
    <path d="M 74.938776 128.16 
L 74.938776 77.76 
" style="fill:none;stroke:#a9a9a9;stroke-linecap:square;stroke-linejoin:miter;stroke-width:2;"/>
   </g>
   <g id="patch_9">
    <path d="M 129.6 128.16 
L 129.6 77.76 
" style="fill:none;"/>
   </g>
   <g id="patch_10">
    <path d="M 18 122.198492 
L 129.6 122.198492 
" style="fill:none;stroke:#a9a9a9;stroke-linecap:square;stroke-linejoin:miter;stroke-width:2;"/>
   </g>
   <g id="patch_11">
    <path d="M 18 77.76 
L 129.6 77.76 
" style="fill:none;"/>
   </g>
  </g>
 </g>
 <defs>
  <clipPath id="p373af85c79">
   <rect height="50.4" width="111.6" x="18" y="17.28"/>
  </clipPath>
  <clipPath id="pbe8369113e">
   <rect height="50.4" width="111.6" x="18" y="77.76"/>
  </clipPath>
 </defs>
</svg>
