<?xml version="1.0" encoding="utf-8" standalone="no"?>
<!DOCTYPE svg PUBLIC "-//W3C//DTD SVG 1.1//EN"
  "http://www.w3.org/Graphics/SVG/1.1/DTD/svg11.dtd">
<!-- Created with matplotlib (https://matplotlib.org/) -->
<svg height="144pt" version="1.1" viewBox="0 0 144 144" width="144pt" xmlns="http://www.w3.org/2000/svg" xmlns:xlink="http://www.w3.org/1999/xlink">
 <metadata>
  <rdf:RDF xmlns:cc="http://creativecommons.org/ns#" xmlns:dc="http://purl.org/dc/elements/1.1/" xmlns:rdf="http://www.w3.org/1999/02/22-rdf-syntax-ns#">
   <cc:Work>
    <dc:type rdf:resource="http://purl.org/dc/dcmitype/StillImage"/>
    <dc:date>2021-10-15T00:09:02.900019</dc:date>
    <dc:format>image/svg+xml</dc:format>
    <dc:creator>
     <cc:Agent>
      <dc:title>Matplotlib v3.3.2, https://matplotlib.org/</dc:title>
     </cc:Agent>
    </dc:creator>
   </cc:Work>
  </rdf:RDF>
 </metadata>
 <defs>
  <style type="text/css">*{stroke-linecap:butt;stroke-linejoin:round;}</style>
 </defs>
 <g id="figure_1">
  <g id="patch_1">
   <path d="M 0 144 
L 144 144 
L 144 0 
L 0 0 
z
" style="fill:none;"/>
  </g>
  <g id="axes_1">
   <g id="patch_2">
    <path d="M 18 67.68 
L 129.6 67.68 
L 129.6 17.28 
L 18 17.28 
z
" style="fill:none;"/>
   </g>
   <g id="PolyCollection_1">
    <path clip-path="url(#pcf02b92c7e)" d="M 18 67.675385 
L 18 67.675385 
L 20.277551 67.675385 
L 22.555102 67.675385 
L 24.832653 67.675385 
L 27.110204 67.675385 
L 29.387755 67.675378 
L 31.665306 67.648027 
L 33.942857 67.51279 
L 36.220408 67.172594 
L 38.497959 66.507978 
L 40.77551 65.385767 
L 43.053061 63.665148 
L 45.330612 61.253672 
L 47.608163 58.042419 
L 49.885714 54.103319 
L 52.163265 49.483585 
L 54.440816 44.411422 
L 56.718367 38.986515 
L 58.995918 33.410539 
L 61.273469 28.186276 
L 63.55102 23.721023 
L 65.828571 20.31299 
L 68.106122 18.171461 
L 70.383673 17.28 
L 72.661224 18.277298 
L 74.938776 22.614763 
L 77.216327 24.502449 
L 79.493878 29.137792 
L 81.771429 34.502232 
L 84.04898 39.610326 
L 86.326531 44.871412 
L 88.604082 49.496726 
L 90.881633 53.608101 
L 93.159184 56.987738 
L 95.436735 59.768376 
L 97.714286 61.95612 
L 99.991837 63.580317 
L 102.269388 64.822563 
L 104.546939 65.681711 
L 106.82449 66.404437 
L 109.102041 66.904894 
L 111.379592 67.242796 
L 113.657143 67.489094 
L 115.934694 67.608394 
L 118.212245 67.66561 
L 120.489796 67.675395 
L 122.767347 67.675385 
L 125.044898 67.675385 
L 127.322449 67.675385 
L 129.6 67.675385 
L 129.6 67.675385 
L 129.6 67.675385 
L 127.322449 67.675385 
L 125.044898 67.675385 
L 122.767347 67.675385 
L 120.489796 67.675473 
L 118.212245 67.68 
L 115.934694 67.652997 
L 113.657143 67.553113 
L 111.379592 67.370826 
L 109.102041 67.055023 
L 106.82449 66.619141 
L 104.546939 65.970016 
L 102.269388 65.148555 
L 99.991837 64.005939 
L 97.714286 62.425785 
L 95.436735 60.331151 
L 93.159184 57.691489 
L 90.881633 54.397705 
L 88.604082 50.574483 
L 86.326531 46.035915 
L 84.04898 40.984335 
L 81.771429 35.766158 
L 79.493878 30.638326 
L 77.216327 25.779527 
L 74.938776 24.16287 
L 72.661224 19.969721 
L 70.383673 19.060005 
L 68.106122 19.632094 
L 65.828571 21.855431 
L 63.55102 25.452072 
L 61.273469 29.768913 
L 58.995918 34.730094 
L 56.718367 40.202634 
L 54.440816 45.378588 
L 52.163265 50.425587 
L 49.885714 54.871723 
L 47.608163 58.662834 
L 45.330612 61.737278 
L 43.053061 63.98394 
L 40.77551 65.589007 
L 38.497959 66.666454 
L 36.220408 67.25809 
L 33.942857 67.570255 
L 31.665306 67.664001 
L 29.387755 67.675388 
L 27.110204 67.675385 
L 24.832653 67.675385 
L 22.555102 67.675385 
L 20.277551 67.675385 
L 18 67.675385 
z
" style="fill:#fc8d62;fill-opacity:0.2;"/>
   </g>
   <g id="PolyCollection_2">
    <path clip-path="url(#pcf02b92c7e)" d="M 18 67.675385 
L 18 67.675385 
L 20.277551 67.675385 
L 22.555102 67.675385 
L 24.832653 67.675385 
L 27.110204 67.675385 
L 29.387755 67.675379 
L 31.665306 67.637513 
L 33.942857 67.504783 
L 36.220408 67.161701 
L 38.497959 66.559568 
L 40.77551 65.669349 
L 43.053061 64.354551 
L 45.330612 62.620761 
L 47.608163 60.530495 
L 49.885714 58.043957 
L 52.163265 55.259268 
L 54.440816 52.153701 
L 56.718367 48.81314 
L 58.995918 45.546519 
L 61.273469 42.046621 
L 63.55102 38.851374 
L 65.828571 35.984376 
L 68.106122 33.565781 
L 70.383673 31.666289 
L 72.661224 30.474623 
L 74.938776 31.574472 
L 77.216327 30.770563 
L 79.493878 32.128632 
L 81.771429 34.053259 
L 84.04898 36.822516 
L 86.326531 39.807808 
L 88.604082 43.105294 
L 90.881633 46.322185 
L 93.159184 49.656126 
L 95.436735 53.028703 
L 97.714286 56.053494 
L 99.991837 58.838296 
L 102.269388 61.271712 
L 104.546939 63.181978 
L 106.82449 64.778484 
L 109.102041 65.934675 
L 111.379592 66.773581 
L 113.657143 67.288877 
L 115.934694 67.556419 
L 118.212245 67.660557 
L 120.489796 67.67538 
L 122.767347 67.675385 
L 125.044898 67.675385 
L 127.322449 67.675385 
L 129.6 67.675385 
L 129.6 67.675385 
L 129.6 67.675385 
L 127.322449 67.675385 
L 125.044898 67.675385 
L 122.767347 67.675385 
L 120.489796 67.675467 
L 118.212245 67.677122 
L 115.934694 67.608138 
L 113.657143 67.37721 
L 111.379592 66.910268 
L 109.102041 66.154257 
L 106.82449 65.013727 
L 104.546939 63.531863 
L 102.269388 61.580434 
L 99.991837 59.299155 
L 97.714286 56.691909 
L 95.436735 53.719989 
L 93.159184 50.548412 
L 90.881633 47.231896 
L 88.604082 43.91202 
L 86.326531 40.774339 
L 84.04898 37.875728 
L 81.771429 35.358267 
L 79.493878 33.295861 
L 77.216327 31.850051 
L 74.938776 32.847953 
L 72.661224 31.692881 
L 70.383673 32.727034 
L 68.106122 34.733555 
L 65.828571 37.019095 
L 63.55102 39.835539 
L 61.273469 42.997874 
L 58.995918 46.300504 
L 56.718367 49.648635 
L 54.440816 52.81879 
L 52.163265 55.829944 
L 49.885714 58.54689 
L 47.608163 60.999351 
L 45.330612 62.980763 
L 43.053061 64.61787 
L 40.77551 65.847778 
L 38.497959 66.715389 
L 36.220408 67.263925 
L 33.942857 67.54567 
L 31.665306 67.66328 
L 29.387755 67.675388 
L 27.110204 67.675385 
L 24.832653 67.675385 
L 22.555102 67.675385 
L 20.277551 67.675385 
L 18 67.675385 
z
" style="fill:#fc8d62;fill-opacity:0.2;"/>
   </g>
   <g id="matplotlib.axis_1">
    <g id="xtick_1">
     <g id="line2d_1">
      <defs>
       <path d="M 0 0 
L 0 3.5 
" id="m0fba54738a" style="stroke:#a9a9a9;stroke-width:2;"/>
      </defs>
      <g>
       <use style="fill:#a9a9a9;stroke:#a9a9a9;stroke-width:2;" x="29.387755" xlink:href="#m0fba54738a" y="67.675385"/>
      </g>
     </g>
    </g>
    <g id="xtick_2">
     <g id="line2d_2">
      <g>
       <use style="fill:#a9a9a9;stroke:#a9a9a9;stroke-width:2;" x="52.163265" xlink:href="#m0fba54738a" y="67.675385"/>
      </g>
     </g>
    </g>
    <g id="xtick_3">
     <g id="line2d_3">
      <g>
       <use style="fill:#a9a9a9;stroke:#a9a9a9;stroke-width:2;" x="74.938776" xlink:href="#m0fba54738a" y="67.675385"/>
      </g>
     </g>
    </g>
    <g id="xtick_4">
     <g id="line2d_4">
      <g>
       <use style="fill:#a9a9a9;stroke:#a9a9a9;stroke-width:2;" x="97.714286" xlink:href="#m0fba54738a" y="67.675385"/>
      </g>
     </g>
    </g>
    <g id="xtick_5">
     <g id="line2d_5">
      <g>
       <use style="fill:#a9a9a9;stroke:#a9a9a9;stroke-width:2;" x="120.489796" xlink:href="#m0fba54738a" y="67.675385"/>
      </g>
     </g>
    </g>
   </g>
   <g id="matplotlib.axis_2"/>
   <g id="line2d_6">
    <path clip-path="url(#pcf02b92c7e)" d="M 18 67.675385 
L 20.277551 67.675385 
L 22.555102 67.675385 
L 24.832653 67.675385 
L 27.110204 67.675385 
L 29.387755 67.675383 
L 31.665306 67.656014 
L 33.942857 67.541522 
L 36.220408 67.215342 
L 38.497959 66.587216 
L 40.77551 65.487387 
L 43.053061 63.824544 
L 45.330612 61.495475 
L 47.608163 58.352627 
L 49.885714 54.487521 
L 52.163265 49.954586 
L 54.440816 44.895005 
L 56.718367 39.594574 
L 58.995918 34.070316 
L 61.273469 28.977595 
L 63.55102 24.586547 
L 65.828571 21.084211 
L 68.106122 18.901777 
L 70.383673 18.170003 
L 72.661224 19.123509 
L 74.938776 23.388816 
L 77.216327 25.140988 
L 79.493878 29.888059 
L 81.771429 35.134195 
L 84.04898 40.29733 
L 86.326531 45.453664 
L 88.604082 50.035605 
L 90.881633 54.002903 
L 93.159184 57.339613 
L 95.436735 60.049764 
L 97.714286 62.190952 
L 99.991837 63.793128 
L 102.269388 64.985559 
L 104.546939 65.825863 
L 106.82449 66.511789 
L 109.102041 66.979959 
L 111.379592 67.306811 
L 113.657143 67.521104 
L 115.934694 67.630696 
L 118.212245 67.672805 
L 120.489796 67.675434 
L 122.767347 67.675385 
L 125.044898 67.675385 
L 127.322449 67.675385 
L 129.6 67.675385 
" style="fill:none;stroke:#fc8d62;stroke-linecap:square;stroke-width:2;"/>
   </g>
   <g id="line2d_7">
    <path clip-path="url(#pcf02b92c7e)" d="M 18 67.675385 
L 20.277551 67.675385 
L 22.555102 67.675385 
L 24.832653 67.675385 
L 27.110204 67.675385 
L 29.387755 67.675384 
L 31.665306 67.650397 
L 33.942857 67.525227 
L 36.220408 67.212813 
L 38.497959 66.637479 
L 40.77551 65.758563 
L 43.053061 64.486211 
L 45.330612 62.800762 
L 47.608163 60.764923 
L 49.885714 58.295423 
L 52.163265 55.544606 
L 54.440816 52.486246 
L 56.718367 49.230887 
L 58.995918 45.923512 
L 61.273469 42.522248 
L 63.55102 39.343457 
L 65.828571 36.501736 
L 68.106122 34.149668 
L 70.383673 32.196662 
L 72.661224 31.083752 
L 74.938776 32.211213 
L 77.216327 31.310307 
L 79.493878 32.712246 
L 81.771429 34.705763 
L 84.04898 37.349122 
L 86.326531 40.291074 
L 88.604082 43.508657 
L 90.881633 46.77704 
L 93.159184 50.102269 
L 95.436735 53.374346 
L 97.714286 56.372701 
L 99.991837 59.068725 
L 102.269388 61.426073 
L 104.546939 63.356921 
L 106.82449 64.896106 
L 109.102041 66.044466 
L 111.379592 66.841925 
L 113.657143 67.333044 
L 115.934694 67.582278 
L 118.212245 67.66884 
L 120.489796 67.675423 
L 122.767347 67.675385 
L 125.044898 67.675385 
L 127.322449 67.675385 
L 129.6 67.675385 
" style="fill:none;stroke:#fc8d62;stroke-dasharray:1.5,1.5;stroke-dashoffset:0;stroke-opacity:0.7;stroke-width:1.5;"/>
   </g>
   <g id="patch_3">
    <path d="M 74.938776 67.68 
L 74.938776 17.28 
" style="fill:none;stroke:#a9a9a9;stroke-linecap:square;stroke-linejoin:miter;stroke-width:2;"/>
   </g>
   <g id="patch_4">
    <path d="M 129.6 67.68 
L 129.6 17.28 
" style="fill:none;"/>
   </g>
   <g id="patch_5">
    <path d="M 18 67.675385 
L 129.6 67.675385 
" style="fill:none;stroke:#a9a9a9;stroke-linecap:square;stroke-linejoin:miter;stroke-width:2;"/>
   </g>
   <g id="patch_6">
    <path d="M 18 17.28 
L 129.6 17.28 
" style="fill:none;"/>
   </g>
   <g id="legend_1">
    <g id="line2d_8">
     <path d="M 101.475312 26.448906 
L 115.475312 26.448906 
" style="fill:none;stroke:#fc8d62;stroke-linecap:square;stroke-width:2;"/>
    </g>
    <g id="line2d_9"/>
    <g id="text_1">
     <!--   -->
     <g transform="translate(121.075312 28.898906)scale(0.07 -0.07)">
      <defs>
       <path id="DejaVuSans-32"/>
      </defs>
      <use xlink:href="#DejaVuSans-32"/>
     </g>
    </g>
    <g id="line2d_10">
     <path d="M 101.475312 36.723594 
L 115.475312 36.723594 
" style="fill:none;stroke:#fc8d62;stroke-dasharray:1.5,1.5;stroke-dashoffset:0;stroke-opacity:0.7;stroke-width:1.5;"/>
    </g>
    <g id="line2d_11"/>
    <g id="text_2">
     <!--   -->
     <g transform="translate(121.075312 39.173594)scale(0.07 -0.07)">
      <use xlink:href="#DejaVuSans-32"/>
     </g>
    </g>
   </g>
  </g>
  <g id="axes_2">
   <g id="patch_7">
    <path d="M 18 128.16 
L 129.6 128.16 
L 129.6 77.76 
L 18 77.76 
z
" style="fill:none;"/>
   </g>
   <g id="PolyCollection_3">
    <path clip-path="url(#p91d94dfb1c)" d="M 18 120.593107 
L 18 120.515419 
L 20.277551 120.725435 
L 22.555102 120.796351 
L 24.832653 120.732794 
L 27.110204 120.577355 
L 29.387755 120.400754 
L 31.665306 120.245632 
L 33.942857 119.973092 
L 36.220408 119.423737 
L 38.497959 118.471659 
L 40.77551 117.025945 
L 43.053061 115.035226 
L 45.330612 112.490768 
L 47.608163 109.424227 
L 49.885714 105.903169 
L 52.163265 102.028013 
L 54.440816 97.928091 
L 56.718367 93.757769 
L 58.995918 89.691526 
L 61.273469 85.918676 
L 63.55102 82.637821 
L 65.828571 80.051337 
L 68.106122 78.360287 
L 70.383673 77.76 
L 72.661224 78.436515 
L 74.938776 80.557213 
L 77.216327 84.200245 
L 79.493878 88.988355 
L 81.771429 94.485297 
L 84.04898 100.283875 
L 86.326531 106.026519 
L 88.604082 111.414605 
L 90.881633 116.213869 
L 93.159184 120.256274 
L 95.436735 123.439538 
L 97.714286 125.724655 
L 99.991837 127.131572 
L 102.269388 127.730477 
L 104.546939 127.629149 
L 106.82449 126.961855 
L 109.102041 125.879823 
L 111.379592 124.543395 
L 113.657143 123.11494 
L 115.934694 121.753338 
L 118.212245 120.611639 
L 120.489796 119.84001 
L 122.767347 119.537671 
L 125.044898 119.595873 
L 127.322449 119.862092 
L 129.6 120.203506 
L 129.6 120.306007 
L 129.6 120.306007 
L 127.322449 119.988704 
L 125.044898 119.741062 
L 122.767347 119.693688 
L 120.489796 120.001464 
L 118.212245 120.783233 
L 115.934694 121.95376 
L 113.657143 123.361383 
L 111.379592 124.842275 
L 109.102041 126.227404 
L 106.82449 127.348043 
L 104.546939 128.041771 
L 102.269388 128.16 
L 99.991837 127.577087 
L 97.714286 126.199044 
L 95.436735 123.970707 
L 93.159184 120.880142 
L 90.881633 116.964875 
L 88.604082 112.319746 
L 86.326531 107.102725 
L 84.04898 101.537587 
L 81.771429 95.912638 
L 79.493878 90.575628 
L 77.216327 85.924363 
L 74.938776 82.386353 
L 72.661224 80.331615 
L 70.383673 79.678872 
L 68.106122 80.260121 
L 65.828571 81.890699 
L 63.55102 84.378505 
L 61.273469 87.527424 
L 58.995918 91.141534 
L 56.718367 95.029903 
L 54.440816 99.011725 
L 52.163265 102.921534 
L 49.885714 106.614134 
L 47.608163 109.968719 
L 45.330612 112.892821 
L 43.053061 115.325241 
L 40.77551 117.238734 
L 38.497959 118.639851 
L 36.220408 119.5693 
L 33.942857 120.105567 
L 31.665306 120.367509 
L 29.387755 120.51097 
L 27.110204 120.671627 
L 24.832653 120.808197 
L 22.555102 120.8568 
L 20.277551 120.785843 
L 18 120.593107 
z
" style="fill:#66c2a5;fill-opacity:0.2;"/>
   </g>
   <g id="matplotlib.axis_3">
    <g id="xtick_6">
     <g id="line2d_12">
      <g>
       <use style="fill:#a9a9a9;stroke:#a9a9a9;stroke-width:2;" x="29.387755" xlink:href="#m0fba54738a" y="122.284704"/>
      </g>
     </g>
    </g>
    <g id="xtick_7">
     <g id="line2d_13">
      <g>
       <use style="fill:#a9a9a9;stroke:#a9a9a9;stroke-width:2;" x="52.163265" xlink:href="#m0fba54738a" y="122.284704"/>
      </g>
     </g>
    </g>
    <g id="xtick_8">
     <g id="line2d_14">
      <g>
       <use style="fill:#a9a9a9;stroke:#a9a9a9;stroke-width:2;" x="74.938776" xlink:href="#m0fba54738a" y="122.284704"/>
      </g>
     </g>
    </g>
    <g id="xtick_9">
     <g id="line2d_15">
      <g>
       <use style="fill:#a9a9a9;stroke:#a9a9a9;stroke-width:2;" x="97.714286" xlink:href="#m0fba54738a" y="122.284704"/>
      </g>
     </g>
    </g>
    <g id="xtick_10">
     <g id="line2d_16">
      <g>
       <use style="fill:#a9a9a9;stroke:#a9a9a9;stroke-width:2;" x="120.489796" xlink:href="#m0fba54738a" y="122.284704"/>
      </g>
     </g>
    </g>
   </g>
   <g id="matplotlib.axis_4"/>
   <g id="line2d_17">
    <path clip-path="url(#p91d94dfb1c)" d="M 18 120.554263 
L 20.277551 120.755639 
L 22.555102 120.826576 
L 24.832653 120.770495 
L 27.110204 120.624491 
L 29.387755 120.455862 
L 31.665306 120.306571 
L 33.942857 120.03933 
L 36.220408 119.496519 
L 38.497959 118.555755 
L 40.77551 117.13234 
L 43.053061 115.180234 
L 45.330612 112.691794 
L 47.608163 109.696473 
L 49.885714 106.258652 
L 52.163265 102.474774 
L 54.440816 98.469908 
L 56.718367 94.393836 
L 58.995918 90.41653 
L 61.273469 86.72305 
L 63.55102 83.508163 
L 65.828571 80.971018 
L 68.106122 79.310204 
L 70.383673 78.719436 
L 72.661224 79.384065 
L 74.938776 81.471783 
L 77.216327 85.062304 
L 79.493878 89.781992 
L 81.771429 95.198967 
L 84.04898 100.910731 
L 86.326531 106.564622 
L 88.604082 111.867176 
L 90.881633 116.589372 
L 93.159184 120.568208 
L 95.436735 123.705123 
L 97.714286 125.961849 
L 99.991837 127.354329 
L 102.269388 127.945238 
L 104.546939 127.83546 
L 106.82449 127.154949 
L 109.102041 126.053613 
L 111.379592 124.692835 
L 113.657143 123.238161 
L 115.934694 121.853549 
L 118.212245 120.697436 
L 120.489796 119.920737 
L 122.767347 119.61568 
L 125.044898 119.668468 
L 127.322449 119.925398 
L 129.6 120.254756 
" style="fill:none;stroke:#66c2a5;stroke-linecap:square;stroke-width:2;"/>
   </g>
   <g id="patch_8">
    <path d="M 74.938776 128.16 
L 74.938776 77.76 
" style="fill:none;stroke:#a9a9a9;stroke-linecap:square;stroke-linejoin:miter;stroke-width:2;"/>
   </g>
   <g id="patch_9">
    <path d="M 129.6 128.16 
L 129.6 77.76 
" style="fill:none;"/>
   </g>
   <g id="patch_10">
    <path d="M 18 122.284704 
L 129.6 122.284704 
" style="fill:none;stroke:#a9a9a9;stroke-linecap:square;stroke-linejoin:miter;stroke-width:2;"/>
   </g>
   <g id="patch_11">
    <path d="M 18 77.76 
L 129.6 77.76 
" style="fill:none;"/>
   </g>
   <g id="legend_2">
    <g id="line2d_18">
     <path d="M 101.475312 86.928906 
L 115.475312 86.928906 
" style="fill:none;stroke:#66c2a5;stroke-linecap:square;stroke-width:2;"/>
    </g>
    <g id="line2d_19"/>
    <g id="text_3">
     <!--   -->
     <g transform="translate(121.075312 89.378906)scale(0.07 -0.07)">
      <use xlink:href="#DejaVuSans-32"/>
     </g>
    </g>
   </g>
  </g>
 </g>
 <defs>
  <clipPath id="pcf02b92c7e">
   <rect height="50.4" width="111.6" x="18" y="17.28"/>
  </clipPath>
  <clipPath id="p91d94dfb1c">
   <rect height="50.4" width="111.6" x="18" y="77.76"/>
  </clipPath>
 </defs>
</svg>
