<?xml version="1.0" encoding="utf-8" standalone="no"?>
<!DOCTYPE svg PUBLIC "-//W3C//DTD SVG 1.1//EN"
  "http://www.w3.org/Graphics/SVG/1.1/DTD/svg11.dtd">
<!-- Created with matplotlib (https://matplotlib.org/) -->
<svg height="144pt" version="1.1" viewBox="0 0 144 144" width="144pt" xmlns="http://www.w3.org/2000/svg" xmlns:xlink="http://www.w3.org/1999/xlink">
 <metadata>
  <rdf:RDF xmlns:cc="http://creativecommons.org/ns#" xmlns:dc="http://purl.org/dc/elements/1.1/" xmlns:rdf="http://www.w3.org/1999/02/22-rdf-syntax-ns#">
   <cc:Work>
    <dc:type rdf:resource="http://purl.org/dc/dcmitype/StillImage"/>
    <dc:date>2021-10-13T14:10:44.959533</dc:date>
    <dc:format>image/svg+xml</dc:format>
    <dc:creator>
     <cc:Agent>
      <dc:title>Matplotlib v3.3.2, https://matplotlib.org/</dc:title>
     </cc:Agent>
    </dc:creator>
   </cc:Work>
  </rdf:RDF>
 </metadata>
 <defs>
  <style type="text/css">*{stroke-linecap:butt;stroke-linejoin:round;}</style>
 </defs>
 <g id="figure_1">
  <g id="patch_1">
   <path d="M 0 144 
L 144 144 
L 144 0 
L 0 0 
z
" style="fill:none;"/>
  </g>
  <g id="axes_1">
   <g id="patch_2">
    <path d="M 18 67.68 
L 129.6 67.68 
L 129.6 17.28 
L 18 17.28 
z
" style="fill:none;"/>
   </g>
   <g id="PolyCollection_1">
    <path clip-path="url(#p0bcde41b96)" d="M 18 57.796102 
L 18 57.796102 
L 20.277551 57.796102 
L 22.555102 57.796102 
L 24.832653 57.796102 
L 27.110204 57.796102 
L 29.387755 57.796102 
L 31.665306 57.796102 
L 33.942857 56.292758 
L 36.220408 57.50053 
L 38.497959 54.742922 
L 40.77551 53.462199 
L 43.053061 49.544315 
L 45.330612 48.793685 
L 47.608163 47.31939 
L 49.885714 41.189366 
L 52.163265 40.927302 
L 54.440816 35.167197 
L 56.718367 31.000663 
L 58.995918 28.321799 
L 61.273469 30.957764 
L 63.55102 27.455936 
L 65.828571 20.541194 
L 68.106122 19.975044 
L 70.383673 21.91945 
L 72.661224 17.28 
L 74.938776 39.05391 
L 77.216327 20.111091 
L 79.493878 24.962914 
L 81.771429 31.032904 
L 84.04898 39.560658 
L 86.326531 38.304108 
L 88.604082 30.548503 
L 90.881633 41.829488 
L 93.159184 44.313207 
L 95.436735 47.947648 
L 97.714286 48.449534 
L 99.991837 52.256117 
L 102.269388 50.450691 
L 104.546939 50.400217 
L 106.82449 52.563795 
L 109.102041 55.529744 
L 111.379592 55.602049 
L 113.657143 57.026991 
L 115.934694 57.206803 
L 118.212245 57.796102 
L 120.489796 57.796102 
L 122.767347 57.796102 
L 125.044898 57.796102 
L 127.322449 57.796102 
L 129.6 57.796102 
L 129.6 57.796102 
L 129.6 57.796102 
L 127.322449 57.796102 
L 125.044898 57.796102 
L 122.767347 57.796102 
L 120.489796 57.796102 
L 118.212245 57.796103 
L 115.934694 58.695901 
L 113.657143 58.277747 
L 111.379592 60.006169 
L 109.102041 60.752925 
L 106.82449 62.476724 
L 104.546939 62.937694 
L 102.269388 63.304436 
L 99.991837 65.626325 
L 97.714286 63.58305 
L 95.436735 66.955269 
L 93.159184 67.68 
L 90.881633 66.624996 
L 88.604082 60.538952 
L 86.326531 63.087945 
L 84.04898 65.953621 
L 81.771429 63.807709 
L 79.493878 60.008752 
L 77.216327 61.757108 
L 74.938776 46.535274 
L 72.661224 61.339678 
L 70.383673 53.919838 
L 68.106122 52.079942 
L 65.828571 47.881005 
L 63.55102 53.638757 
L 61.273469 58.821968 
L 58.995918 58.891296 
L 56.718367 55.332346 
L 54.440816 55.351459 
L 52.163265 58.931986 
L 49.885714 58.224425 
L 47.608163 60.971782 
L 45.330612 61.480182 
L 43.053061 60.297689 
L 40.77551 59.454111 
L 38.497959 59.534386 
L 36.220408 58.231948 
L 33.942857 58.770994 
L 31.665306 57.796103 
L 29.387755 57.796102 
L 27.110204 57.796102 
L 24.832653 57.796102 
L 22.555102 57.796102 
L 20.277551 57.796102 
L 18 57.796102 
z
" style="fill:#fc8d62;fill-opacity:0.2;"/>
   </g>
   <g id="PolyCollection_2">
    <path clip-path="url(#p0bcde41b96)" d="M 18 57.796102 
L 18 57.796102 
L 20.277551 57.796102 
L 22.555102 57.796102 
L 24.832653 57.796102 
L 27.110204 57.796102 
L 29.387755 57.796102 
L 31.665306 57.795941 
L 33.942857 57.690161 
L 36.220408 56.998116 
L 38.497959 54.191305 
L 40.77551 53.735678 
L 43.053061 52.996737 
L 45.330612 51.470962 
L 47.608163 48.123297 
L 49.885714 46.410816 
L 52.163265 42.638909 
L 54.440816 43.710883 
L 56.718367 37.582798 
L 58.995918 33.721656 
L 61.273469 34.287869 
L 63.55102 31.723471 
L 65.828571 31.728863 
L 68.106122 35.007708 
L 70.383673 27.060676 
L 72.661224 26.783423 
L 74.938776 41.404096 
L 77.216327 28.668636 
L 79.493878 29.871941 
L 81.771429 26.504231 
L 84.04898 30.452293 
L 86.326531 27.433428 
L 88.604082 37.742298 
L 90.881633 39.495697 
L 93.159184 40.095254 
L 95.436735 41.770468 
L 97.714286 42.827296 
L 99.991837 47.005724 
L 102.269388 45.716728 
L 104.546939 50.652332 
L 106.82449 52.780674 
L 109.102041 53.836532 
L 111.379592 54.074598 
L 113.657143 57.078529 
L 115.934694 57.568329 
L 118.212245 57.79603 
L 120.489796 57.796102 
L 122.767347 57.796102 
L 125.044898 57.796102 
L 127.322449 57.796102 
L 129.6 57.796102 
L 129.6 57.796102 
L 129.6 57.796102 
L 127.322449 57.796102 
L 125.044898 57.796102 
L 122.767347 57.796102 
L 120.489796 57.796102 
L 118.212245 57.7962 
L 115.934694 57.969064 
L 113.657143 58.436381 
L 111.379592 60.679198 
L 109.102041 60.199554 
L 106.82449 60.842618 
L 104.546939 60.734926 
L 102.269388 62.253823 
L 99.991837 62.280297 
L 97.714286 64.08741 
L 95.436735 61.090136 
L 93.159184 64.008544 
L 90.881633 63.32015 
L 88.604082 60.713989 
L 86.326531 59.92196 
L 84.04898 61.177336 
L 81.771429 56.798692 
L 79.493878 58.581534 
L 77.216327 60.230112 
L 74.938776 48.456063 
L 72.661224 57.986785 
L 70.383673 56.496587 
L 68.106122 58.454598 
L 65.828571 59.890686 
L 63.55102 64.605061 
L 61.273469 58.020844 
L 58.995918 60.507079 
L 56.718367 62.182036 
L 54.440816 63.303759 
L 52.163265 63.636816 
L 49.885714 60.383418 
L 47.608163 63.295059 
L 45.330612 61.464712 
L 43.053061 60.90358 
L 40.77551 60.969446 
L 38.497959 60.235964 
L 36.220408 58.467068 
L 33.942857 57.932023 
L 31.665306 57.796224 
L 29.387755 57.796102 
L 27.110204 57.796102 
L 24.832653 57.796102 
L 22.555102 57.796102 
L 20.277551 57.796102 
L 18 57.796102 
z
" style="fill:#fc8d62;fill-opacity:0.2;"/>
   </g>
   <g id="matplotlib.axis_1">
    <g id="xtick_1">
     <g id="line2d_1">
      <defs>
       <path d="M 0 0 
L 0 3.5 
" id="m9bcb9236c2" style="stroke:#a9a9a9;stroke-width:2;"/>
      </defs>
      <g>
       <use style="fill:#a9a9a9;stroke:#a9a9a9;stroke-width:2;" x="29.387755" xlink:href="#m9bcb9236c2" y="57.796102"/>
      </g>
     </g>
    </g>
    <g id="xtick_2">
     <g id="line2d_2">
      <g>
       <use style="fill:#a9a9a9;stroke:#a9a9a9;stroke-width:2;" x="52.163265" xlink:href="#m9bcb9236c2" y="57.796102"/>
      </g>
     </g>
    </g>
    <g id="xtick_3">
     <g id="line2d_3">
      <g>
       <use style="fill:#a9a9a9;stroke:#a9a9a9;stroke-width:2;" x="74.938776" xlink:href="#m9bcb9236c2" y="57.796102"/>
      </g>
     </g>
    </g>
    <g id="xtick_4">
     <g id="line2d_4">
      <g>
       <use style="fill:#a9a9a9;stroke:#a9a9a9;stroke-width:2;" x="97.714286" xlink:href="#m9bcb9236c2" y="57.796102"/>
      </g>
     </g>
    </g>
    <g id="xtick_5">
     <g id="line2d_5">
      <g>
       <use style="fill:#a9a9a9;stroke:#a9a9a9;stroke-width:2;" x="120.489796" xlink:href="#m9bcb9236c2" y="57.796102"/>
      </g>
     </g>
    </g>
   </g>
   <g id="matplotlib.axis_2"/>
   <g id="line2d_6">
    <path clip-path="url(#p0bcde41b96)" d="M 18 57.796102 
L 20.277551 57.796102 
L 22.555102 57.796102 
L 24.832653 57.796102 
L 27.110204 57.796102 
L 29.387755 57.796102 
L 31.665306 57.796102 
L 33.942857 57.531876 
L 36.220408 57.866239 
L 38.497959 57.138654 
L 40.77551 56.458155 
L 43.053061 54.921002 
L 45.330612 55.136933 
L 47.608163 54.145586 
L 49.885714 49.706896 
L 52.163265 49.929644 
L 54.440816 45.259328 
L 56.718367 43.166505 
L 58.995918 43.606547 
L 61.273469 44.889866 
L 63.55102 40.547347 
L 65.828571 34.211099 
L 68.106122 36.027493 
L 70.383673 37.919644 
L 72.661224 39.309839 
L 74.938776 42.794592 
L 77.216327 40.9341 
L 79.493878 42.485833 
L 81.771429 47.420306 
L 84.04898 52.75714 
L 86.326531 50.696027 
L 88.604082 45.543728 
L 90.881633 54.227242 
L 93.159184 55.996604 
L 95.436735 57.451458 
L 97.714286 56.016292 
L 99.991837 58.941221 
L 102.269388 56.877564 
L 104.546939 56.668956 
L 106.82449 57.52026 
L 109.102041 58.141334 
L 111.379592 57.804109 
L 113.657143 57.652369 
L 115.934694 57.951352 
L 118.212245 57.796103 
L 120.489796 57.796102 
L 122.767347 57.796102 
L 125.044898 57.796102 
L 127.322449 57.796102 
L 129.6 57.796102 
" style="fill:none;stroke:#fc8d62;stroke-linecap:square;stroke-width:2;"/>
   </g>
   <g id="line2d_7">
    <path clip-path="url(#p0bcde41b96)" d="M 18 57.796102 
L 20.277551 57.796102 
L 22.555102 57.796102 
L 24.832653 57.796102 
L 27.110204 57.796102 
L 29.387755 57.796102 
L 31.665306 57.796082 
L 33.942857 57.811092 
L 36.220408 57.732592 
L 38.497959 57.213635 
L 40.77551 57.352562 
L 43.053061 56.950158 
L 45.330612 56.467837 
L 47.608163 55.709178 
L 49.885714 53.397117 
L 52.163265 53.137862 
L 54.440816 53.507321 
L 56.718367 49.882417 
L 58.995918 47.114367 
L 61.273469 46.154357 
L 63.55102 48.164266 
L 65.828571 45.809774 
L 68.106122 46.731153 
L 70.383673 41.778632 
L 72.661224 42.385104 
L 74.938776 44.93008 
L 77.216327 44.449374 
L 79.493878 44.226737 
L 81.771429 41.651461 
L 84.04898 45.814814 
L 86.326531 43.677694 
L 88.604082 49.228144 
L 90.881633 51.407923 
L 93.159184 52.051899 
L 95.436735 51.430302 
L 97.714286 53.457353 
L 99.991837 54.643011 
L 102.269388 53.985275 
L 104.546939 55.693629 
L 106.82449 56.811646 
L 109.102041 57.018043 
L 111.379592 57.376898 
L 113.657143 57.757455 
L 115.934694 57.768696 
L 118.212245 57.796115 
L 120.489796 57.796102 
L 122.767347 57.796102 
L 125.044898 57.796102 
L 127.322449 57.796102 
L 129.6 57.796102 
" style="fill:none;stroke:#fc8d62;stroke-dasharray:1.5,1.5;stroke-dashoffset:0;stroke-opacity:0.7;stroke-width:1.5;"/>
   </g>
   <g id="patch_3">
    <path d="M 74.938776 67.68 
L 74.938776 17.28 
" style="fill:none;stroke:#a9a9a9;stroke-linecap:square;stroke-linejoin:miter;stroke-width:2;"/>
   </g>
   <g id="patch_4">
    <path d="M 129.6 67.68 
L 129.6 17.28 
" style="fill:none;"/>
   </g>
   <g id="patch_5">
    <path d="M 18 57.796102 
L 129.6 57.796102 
" style="fill:none;stroke:#a9a9a9;stroke-linecap:square;stroke-linejoin:miter;stroke-width:2;"/>
   </g>
   <g id="patch_6">
    <path d="M 18 17.28 
L 129.6 17.28 
" style="fill:none;"/>
   </g>
   <g id="legend_1">
    <g id="line2d_8">
     <path d="M 87.67 26.448906 
L 101.67 26.448906 
" style="fill:none;stroke:#fc8d62;stroke-linecap:square;stroke-width:2;"/>
    </g>
    <g id="line2d_9"/>
    <g id="text_1">
     <!-- $\theta$ -->
     <g transform="translate(107.27 28.898906)scale(0.07 -0.07)">
      <defs>
       <path d="M 45.515625 34.671875 
L 14.453125 34.671875 
Q 12.359375 20.0625 14.5 13.875 
Q 17.1875 6.25 24.46875 6.25 
Q 31.78125 6.25 37.359375 13.921875 
Q 42.234375 20.65625 45.515625 34.671875 
z
M 47.015625 42.96875 
Q 48.34375 56.84375 46.625 61.71875 
Q 43.953125 69.4375 36.765625 69.4375 
Q 29.296875 69.4375 23.828125 61.8125 
Q 19.53125 55.671875 16.15625 42.96875 
z
M 38.1875 76.765625 
Q 49.90625 76.765625 54.59375 66.40625 
Q 59.28125 56.109375 55.71875 37.84375 
Q 52.203125 19.625 43.453125 9.28125 
Q 34.765625 -1.125 23.046875 -1.125 
Q 11.28125 -1.125 6.640625 9.28125 
Q 2 19.625 5.515625 37.84375 
Q 9.078125 56.109375 17.71875 66.40625 
Q 26.421875 76.765625 38.1875 76.765625 
z
" id="DejaVuSans-Oblique-952"/>
      </defs>
      <use transform="translate(0 0.234375)" xlink:href="#DejaVuSans-Oblique-952"/>
     </g>
    </g>
    <g id="line2d_10">
     <path d="M 87.67 36.723594 
L 101.67 36.723594 
" style="fill:none;stroke:#fc8d62;stroke-dasharray:1.5,1.5;stroke-dashoffset:0;stroke-opacity:0.7;stroke-width:1.5;"/>
    </g>
    <g id="line2d_11"/>
    <g id="text_2">
     <!-- No $\theta$ -->
     <g transform="translate(107.27 39.173594)scale(0.07 -0.07)">
      <defs>
       <path d="M 9.8125 72.90625 
L 23.09375 72.90625 
L 55.421875 11.921875 
L 55.421875 72.90625 
L 64.984375 72.90625 
L 64.984375 0 
L 51.703125 0 
L 19.390625 60.984375 
L 19.390625 0 
L 9.8125 0 
z
" id="DejaVuSans-78"/>
       <path d="M 30.609375 48.390625 
Q 23.390625 48.390625 19.1875 42.75 
Q 14.984375 37.109375 14.984375 27.296875 
Q 14.984375 17.484375 19.15625 11.84375 
Q 23.34375 6.203125 30.609375 6.203125 
Q 37.796875 6.203125 41.984375 11.859375 
Q 46.1875 17.53125 46.1875 27.296875 
Q 46.1875 37.015625 41.984375 42.703125 
Q 37.796875 48.390625 30.609375 48.390625 
z
M 30.609375 56 
Q 42.328125 56 49.015625 48.375 
Q 55.71875 40.765625 55.71875 27.296875 
Q 55.71875 13.875 49.015625 6.21875 
Q 42.328125 -1.421875 30.609375 -1.421875 
Q 18.84375 -1.421875 12.171875 6.21875 
Q 5.515625 13.875 5.515625 27.296875 
Q 5.515625 40.765625 12.171875 48.375 
Q 18.84375 56 30.609375 56 
z
" id="DejaVuSans-111"/>
       <path id="DejaVuSans-32"/>
      </defs>
      <use transform="translate(0 0.234375)" xlink:href="#DejaVuSans-78"/>
      <use transform="translate(74.804688 0.234375)" xlink:href="#DejaVuSans-111"/>
      <use transform="translate(135.986328 0.234375)" xlink:href="#DejaVuSans-32"/>
      <use transform="translate(167.773438 0.234375)" xlink:href="#DejaVuSans-Oblique-952"/>
     </g>
    </g>
   </g>
  </g>
  <g id="axes_2">
   <g id="patch_7">
    <path d="M 18 128.16 
L 129.6 128.16 
L 129.6 77.76 
L 18 77.76 
z
" style="fill:none;"/>
   </g>
   <g id="PolyCollection_3">
    <path clip-path="url(#p04532074ad)" d="M 18 120.534136 
L 18 120.457258 
L 20.277551 120.675687 
L 22.555102 120.734641 
L 24.832653 120.644144 
L 27.110204 120.454107 
L 29.387755 120.244412 
L 31.665306 120.066394 
L 33.942857 119.778534 
L 36.220408 119.218104 
L 38.497959 118.257306 
L 40.77551 116.804798 
L 43.053061 114.809236 
L 45.330612 112.262182 
L 47.608163 109.19581 
L 49.885714 105.678378 
L 52.163265 101.810637 
L 54.440816 97.722073 
L 56.718367 93.567011 
L 58.995918 89.519875 
L 61.273469 85.770045 
L 63.55102 82.516507 
L 65.828571 79.962554 
L 68.106122 78.31098 
L 70.383673 77.76 
L 72.661224 78.500055 
L 74.938776 80.701272 
L 77.216327 84.456465 
L 79.493878 89.359131 
L 81.771429 94.957801 
L 84.04898 100.831482 
L 86.326531 106.613969 
L 88.604082 112.002977 
L 90.881633 116.76486 
L 93.159184 120.735662 
L 95.436735 123.820054 
L 97.714286 125.988538 
L 99.991837 127.271571 
L 102.269388 127.748304 
L 104.546939 127.53368 
L 106.82449 126.767471 
L 109.102041 125.605215 
L 111.379592 124.21013 
L 113.657143 122.746166 
L 115.934694 121.372809 
L 118.212245 120.243419 
L 120.489796 119.508656 
L 122.767347 119.265742 
L 125.044898 119.392427 
L 127.322449 119.722955 
L 129.6 120.114786 
L 129.6 120.216634 
L 129.6 120.216634 
L 127.322449 119.849637 
L 125.044898 119.538549 
L 122.767347 119.423221 
L 120.489796 119.671015 
L 118.212245 120.413813 
L 115.934694 121.568448 
L 113.657143 122.984351 
L 111.379592 124.498284 
L 109.102041 125.940583 
L 106.82449 127.140449 
L 104.546939 127.931655 
L 102.269388 128.16 
L 99.991837 127.69235 
L 97.714286 126.426384 
L 95.436735 124.298827 
L 93.159184 121.290833 
L 90.881633 117.433183 
L 88.604082 112.814378 
L 86.326531 107.588071 
L 84.04898 101.977093 
L 81.771429 96.273067 
L 79.493878 90.831897 
L 77.216327 86.064767 
L 74.938776 82.41409 
L 72.661224 80.279093 
L 70.383673 79.564006 
L 68.106122 80.098398 
L 65.828571 81.693398 
L 63.55102 84.154111 
L 61.273469 87.282686 
L 58.995918 90.882186 
L 56.718367 94.761106 
L 54.440816 98.738253 
L 52.163265 102.647798 
L 49.885714 106.344062 
L 47.608163 109.705615 
L 45.330612 112.639125 
L 43.053061 115.08258 
L 40.77551 117.007748 
L 38.497959 118.420472 
L 36.220408 119.361562 
L 33.942857 119.910871 
L 31.665306 120.189469 
L 29.387755 120.356713 
L 27.110204 120.55096 
L 24.832653 120.722189 
L 22.555102 120.79691 
L 20.277551 120.736271 
L 18 120.534136 
z
" style="fill:#66c2a5;fill-opacity:0.2;"/>
   </g>
   <g id="matplotlib.axis_3">
    <g id="xtick_6">
     <g id="line2d_12">
      <g>
       <use style="fill:#a9a9a9;stroke:#a9a9a9;stroke-width:2;" x="29.387755" xlink:href="#m9bcb9236c2" y="122.173336"/>
      </g>
     </g>
    </g>
    <g id="xtick_7">
     <g id="line2d_13">
      <g>
       <use style="fill:#a9a9a9;stroke:#a9a9a9;stroke-width:2;" x="52.163265" xlink:href="#m9bcb9236c2" y="122.173336"/>
      </g>
     </g>
    </g>
    <g id="xtick_8">
     <g id="line2d_14">
      <g>
       <use style="fill:#a9a9a9;stroke:#a9a9a9;stroke-width:2;" x="74.938776" xlink:href="#m9bcb9236c2" y="122.173336"/>
      </g>
     </g>
    </g>
    <g id="xtick_9">
     <g id="line2d_15">
      <g>
       <use style="fill:#a9a9a9;stroke:#a9a9a9;stroke-width:2;" x="97.714286" xlink:href="#m9bcb9236c2" y="122.173336"/>
      </g>
     </g>
    </g>
    <g id="xtick_10">
     <g id="line2d_16">
      <g>
       <use style="fill:#a9a9a9;stroke:#a9a9a9;stroke-width:2;" x="120.489796" xlink:href="#m9bcb9236c2" y="122.173336"/>
      </g>
     </g>
    </g>
   </g>
   <g id="matplotlib.axis_4"/>
   <g id="line2d_17">
    <path clip-path="url(#p04532074ad)" d="M 18 120.495697 
L 20.277551 120.705979 
L 22.555102 120.765775 
L 24.832653 120.683167 
L 27.110204 120.502534 
L 29.387755 120.300563 
L 31.665306 120.127932 
L 33.942857 119.844702 
L 36.220408 119.289833 
L 38.497959 118.338889 
L 40.77551 116.906273 
L 43.053061 114.945908 
L 45.330612 112.450654 
L 47.608163 109.450713 
L 49.885714 106.01122 
L 52.163265 102.229217 
L 54.440816 98.230163 
L 56.718367 94.164059 
L 58.995918 90.201031 
L 61.273469 86.526365 
L 63.55102 83.335309 
L 65.828571 80.827976 
L 68.106122 79.204689 
L 70.383673 78.662003 
L 72.661224 79.389574 
L 74.938776 81.557681 
L 77.216327 85.260616 
L 79.493878 90.095514 
L 81.771429 95.615434 
L 84.04898 101.404287 
L 86.326531 107.10102 
L 88.604082 112.408678 
L 90.881633 117.099022 
L 93.159184 121.013248 
L 95.436735 124.059441 
L 97.714286 126.207461 
L 99.991837 127.481961 
L 102.269388 127.954152 
L 104.546939 127.732668 
L 106.82449 126.95396 
L 109.102041 125.772899 
L 111.379592 124.354207 
L 113.657143 122.865259 
L 115.934694 121.470628 
L 118.212245 120.328616 
L 120.489796 119.589836 
L 122.767347 119.344481 
L 125.044898 119.465488 
L 127.322449 119.786296 
L 129.6 120.16571 
" style="fill:none;stroke:#66c2a5;stroke-linecap:square;stroke-width:2;"/>
   </g>
   <g id="patch_8">
    <path d="M 74.938776 128.16 
L 74.938776 77.76 
" style="fill:none;stroke:#a9a9a9;stroke-linecap:square;stroke-linejoin:miter;stroke-width:2;"/>
   </g>
   <g id="patch_9">
    <path d="M 129.6 128.16 
L 129.6 77.76 
" style="fill:none;"/>
   </g>
   <g id="patch_10">
    <path d="M 18 122.173336 
L 129.6 122.173336 
" style="fill:none;stroke:#a9a9a9;stroke-linecap:square;stroke-linejoin:miter;stroke-width:2;"/>
   </g>
   <g id="patch_11">
    <path d="M 18 77.76 
L 129.6 77.76 
" style="fill:none;"/>
   </g>
  </g>
 </g>
 <defs>
  <clipPath id="p0bcde41b96">
   <rect height="50.4" width="111.6" x="18" y="17.28"/>
  </clipPath>
  <clipPath id="p04532074ad">
   <rect height="50.4" width="111.6" x="18" y="77.76"/>
  </clipPath>
 </defs>
</svg>
