<?xml version="1.0" encoding="utf-8" standalone="no"?>
<!DOCTYPE svg PUBLIC "-//W3C//DTD SVG 1.1//EN"
  "http://www.w3.org/Graphics/SVG/1.1/DTD/svg11.dtd">
<!-- Created with matplotlib (https://matplotlib.org/) -->
<svg height="144pt" version="1.1" viewBox="0 0 144 144" width="144pt" xmlns="http://www.w3.org/2000/svg" xmlns:xlink="http://www.w3.org/1999/xlink">
 <metadata>
  <rdf:RDF xmlns:cc="http://creativecommons.org/ns#" xmlns:dc="http://purl.org/dc/elements/1.1/" xmlns:rdf="http://www.w3.org/1999/02/22-rdf-syntax-ns#">
   <cc:Work>
    <dc:type rdf:resource="http://purl.org/dc/dcmitype/StillImage"/>
    <dc:date>2021-10-13T14:20:55.046776</dc:date>
    <dc:format>image/svg+xml</dc:format>
    <dc:creator>
     <cc:Agent>
      <dc:title>Matplotlib v3.3.2, https://matplotlib.org/</dc:title>
     </cc:Agent>
    </dc:creator>
   </cc:Work>
  </rdf:RDF>
 </metadata>
 <defs>
  <style type="text/css">*{stroke-linecap:butt;stroke-linejoin:round;}</style>
 </defs>
 <g id="figure_1">
  <g id="patch_1">
   <path d="M 0 144 
L 144 144 
L 144 0 
L 0 0 
z
" style="fill:none;"/>
  </g>
  <g id="axes_1">
   <g id="patch_2">
    <path d="M 18 67.68 
L 129.6 67.68 
L 129.6 17.28 
L 18 17.28 
z
" style="fill:none;"/>
   </g>
   <g id="PolyCollection_1">
    <path clip-path="url(#pc5a108a946)" d="M 18 66.198527 
L 18 66.198527 
L 20.277551 66.198527 
L 22.555102 66.198527 
L 24.832653 66.198527 
L 27.110204 66.198527 
L 29.387755 66.198196 
L 31.665306 66.075141 
L 33.942857 65.540715 
L 36.220408 65.030831 
L 38.497959 63.984969 
L 40.77551 62.10059 
L 43.053061 59.71514 
L 45.330612 56.44664 
L 47.608163 52.687993 
L 49.885714 47.497149 
L 52.163265 42.685638 
L 54.440816 37.311823 
L 56.718367 31.937299 
L 58.995918 27.513605 
L 61.273469 21.198379 
L 63.55102 19.815181 
L 65.828571 17.656193 
L 68.106122 17.28 
L 70.383673 19.320092 
L 72.661224 22.421325 
L 74.938776 33.363191 
L 77.216327 29.149839 
L 79.493878 37.474649 
L 81.771429 41.406498 
L 84.04898 47.433471 
L 86.326531 50.740601 
L 88.604082 54.163786 
L 90.881633 57.221568 
L 93.159184 57.495047 
L 95.436735 60.387594 
L 97.714286 61.593599 
L 99.991837 62.184325 
L 102.269388 63.054628 
L 104.546939 63.605309 
L 106.82449 64.326745 
L 109.102041 64.966 
L 111.379592 65.047391 
L 113.657143 65.522526 
L 115.934694 65.816909 
L 118.212245 66.122806 
L 120.489796 66.19846 
L 122.767347 66.198527 
L 125.044898 66.198527 
L 127.322449 66.198527 
L 129.6 66.198527 
L 129.6 66.198527 
L 129.6 66.198527 
L 127.322449 66.198527 
L 125.044898 66.198527 
L 122.767347 66.198527 
L 120.489796 66.198643 
L 118.212245 66.287325 
L 115.934694 66.585415 
L 113.657143 66.623533 
L 111.379592 66.62669 
L 109.102041 66.897412 
L 106.82449 67.219183 
L 104.546939 67.264239 
L 102.269388 67.045642 
L 99.991837 67.68 
L 97.714286 67.437952 
L 95.436735 66.955278 
L 93.159184 66.358565 
L 90.881633 64.409541 
L 88.604082 63.781008 
L 86.326531 59.775365 
L 84.04898 56.792588 
L 81.771429 51.262076 
L 79.493878 46.03046 
L 77.216327 40.613523 
L 74.938776 36.788766 
L 72.661224 34.802244 
L 70.383673 28.424192 
L 68.106122 29.233182 
L 65.828571 26.876211 
L 63.55102 29.300237 
L 61.273469 32.240651 
L 58.995918 35.546611 
L 56.718367 41.595608 
L 54.440816 44.579882 
L 52.163265 49.322941 
L 49.885714 53.85829 
L 47.608163 57.49811 
L 45.330612 60.50588 
L 43.053061 62.760273 
L 40.77551 64.340441 
L 38.497959 65.667055 
L 36.220408 66.131286 
L 33.942857 66.392053 
L 31.665306 66.260679 
L 29.387755 66.198713 
L 27.110204 66.198527 
L 24.832653 66.198527 
L 22.555102 66.198527 
L 20.277551 66.198527 
L 18 66.198527 
z
" style="fill:#fc8d62;fill-opacity:0.2;"/>
   </g>
   <g id="PolyCollection_2">
    <path clip-path="url(#pc5a108a946)" d="M 18 66.198527 
L 18 66.198527 
L 20.277551 66.198527 
L 22.555102 66.198527 
L 24.832653 66.198527 
L 27.110204 66.198527 
L 29.387755 66.198466 
L 31.665306 66.125777 
L 33.942857 65.700996 
L 36.220408 65.062102 
L 38.497959 64.45757 
L 40.77551 63.029657 
L 43.053061 61.500901 
L 45.330612 59.479839 
L 47.608163 56.963116 
L 49.885714 53.245335 
L 52.163265 51.568965 
L 54.440816 48.115777 
L 56.718367 44.224288 
L 58.995918 41.584663 
L 61.273469 37.326224 
L 63.55102 33.376873 
L 65.828571 31.089585 
L 68.106122 27.638389 
L 70.383673 25.887734 
L 72.661224 24.922278 
L 74.938776 31.97076 
L 77.216327 25.363718 
L 79.493878 29.055197 
L 81.771429 30.144402 
L 84.04898 32.261067 
L 86.326531 35.585227 
L 88.604082 39.981357 
L 90.881633 42.602884 
L 93.159184 46.318666 
L 95.436735 49.250433 
L 97.714286 53.401315 
L 99.991837 56.668109 
L 102.269388 58.429937 
L 104.546939 60.650733 
L 106.82449 62.43415 
L 109.102041 63.831874 
L 111.379592 64.733426 
L 113.657143 65.464289 
L 115.934694 65.798001 
L 118.212245 66.052788 
L 120.489796 66.198517 
L 122.767347 66.198527 
L 125.044898 66.198527 
L 127.322449 66.198527 
L 129.6 66.198527 
L 129.6 66.198527 
L 129.6 66.198527 
L 127.322449 66.198527 
L 125.044898 66.198527 
L 122.767347 66.198527 
L 120.489796 66.198544 
L 118.212245 66.270943 
L 115.934694 66.485484 
L 113.657143 66.527182 
L 111.379592 66.211414 
L 109.102041 65.949099 
L 106.82449 65.196696 
L 104.546939 63.718004 
L 102.269388 62.605192 
L 99.991837 62.006325 
L 97.714286 58.676244 
L 95.436735 55.999979 
L 93.159184 53.52395 
L 90.881633 50.938715 
L 88.604082 48.036617 
L 86.326531 46.099133 
L 84.04898 42.196472 
L 81.771429 41.126659 
L 79.493878 39.589742 
L 77.216327 38.170852 
L 74.938776 35.388448 
L 72.661224 37.560947 
L 70.383673 36.674783 
L 68.106122 38.930711 
L 65.828571 42.257793 
L 63.55102 44.087817 
L 61.273469 45.651721 
L 58.995918 48.196929 
L 56.718367 51.835879 
L 54.440816 54.873098 
L 52.163265 56.501192 
L 49.885714 58.344501 
L 47.608163 61.286685 
L 45.330612 63.131726 
L 43.053061 64.095431 
L 40.77551 65.275303 
L 38.497959 65.921109 
L 36.220408 66.246847 
L 33.942857 66.391716 
L 31.665306 66.302405 
L 29.387755 66.198564 
L 27.110204 66.198527 
L 24.832653 66.198527 
L 22.555102 66.198527 
L 20.277551 66.198527 
L 18 66.198527 
z
" style="fill:#fc8d62;fill-opacity:0.2;"/>
   </g>
   <g id="matplotlib.axis_1">
    <g id="xtick_1">
     <g id="line2d_1">
      <defs>
       <path d="M 0 0 
L 0 3.5 
" id="m2ebda8f2c9" style="stroke:#a9a9a9;stroke-width:2;"/>
      </defs>
      <g>
       <use style="fill:#a9a9a9;stroke:#a9a9a9;stroke-width:2;" x="29.387755" xlink:href="#m2ebda8f2c9" y="66.198527"/>
      </g>
     </g>
    </g>
    <g id="xtick_2">
     <g id="line2d_2">
      <g>
       <use style="fill:#a9a9a9;stroke:#a9a9a9;stroke-width:2;" x="52.163265" xlink:href="#m2ebda8f2c9" y="66.198527"/>
      </g>
     </g>
    </g>
    <g id="xtick_3">
     <g id="line2d_3">
      <g>
       <use style="fill:#a9a9a9;stroke:#a9a9a9;stroke-width:2;" x="74.938776" xlink:href="#m2ebda8f2c9" y="66.198527"/>
      </g>
     </g>
    </g>
    <g id="xtick_4">
     <g id="line2d_4">
      <g>
       <use style="fill:#a9a9a9;stroke:#a9a9a9;stroke-width:2;" x="97.714286" xlink:href="#m2ebda8f2c9" y="66.198527"/>
      </g>
     </g>
    </g>
    <g id="xtick_5">
     <g id="line2d_5">
      <g>
       <use style="fill:#a9a9a9;stroke:#a9a9a9;stroke-width:2;" x="120.489796" xlink:href="#m2ebda8f2c9" y="66.198527"/>
      </g>
     </g>
    </g>
   </g>
   <g id="matplotlib.axis_2"/>
   <g id="line2d_6">
    <path clip-path="url(#pc5a108a946)" d="M 18 66.198527 
L 20.277551 66.198527 
L 22.555102 66.198527 
L 24.832653 66.198527 
L 27.110204 66.198527 
L 29.387755 66.198454 
L 31.665306 66.16791 
L 33.942857 65.966384 
L 36.220408 65.581058 
L 38.497959 64.826012 
L 40.77551 63.220515 
L 43.053061 61.237706 
L 45.330612 58.47626 
L 47.608163 55.093052 
L 49.885714 50.67772 
L 52.163265 46.004289 
L 54.440816 40.945852 
L 56.718367 36.766453 
L 58.995918 31.530108 
L 61.273469 26.719515 
L 63.55102 24.557709 
L 65.828571 22.266202 
L 68.106122 23.256591 
L 70.383673 23.872142 
L 72.661224 28.611784 
L 74.938776 35.075979 
L 77.216327 34.881681 
L 79.493878 41.752554 
L 81.771429 46.334287 
L 84.04898 52.11303 
L 86.326531 55.257983 
L 88.604082 58.972397 
L 90.881633 60.815555 
L 93.159184 61.926806 
L 95.436735 63.671436 
L 97.714286 64.515776 
L 99.991837 64.932163 
L 102.269388 65.050135 
L 104.546939 65.434774 
L 106.82449 65.772964 
L 109.102041 65.931706 
L 111.379592 65.83704 
L 113.657143 66.073029 
L 115.934694 66.201162 
L 118.212245 66.205066 
L 120.489796 66.198552 
L 122.767347 66.198527 
L 125.044898 66.198527 
L 127.322449 66.198527 
L 129.6 66.198527 
" style="fill:none;stroke:#fc8d62;stroke-linecap:square;stroke-width:2;"/>
   </g>
   <g id="line2d_7">
    <path clip-path="url(#pc5a108a946)" d="M 18 66.198527 
L 20.277551 66.198527 
L 22.555102 66.198527 
L 24.832653 66.198527 
L 27.110204 66.198527 
L 29.387755 66.198515 
L 31.665306 66.214091 
L 33.942857 66.046356 
L 36.220408 65.654474 
L 38.497959 65.189339 
L 40.77551 64.15248 
L 43.053061 62.798166 
L 45.330612 61.305783 
L 47.608163 59.1249 
L 49.885714 55.794918 
L 52.163265 54.035079 
L 54.440816 51.494438 
L 56.718367 48.030084 
L 58.995918 44.890796 
L 61.273469 41.488973 
L 63.55102 38.732345 
L 65.828571 36.673689 
L 68.106122 33.28455 
L 70.383673 31.281258 
L 72.661224 31.241612 
L 74.938776 33.679604 
L 77.216327 31.767285 
L 79.493878 34.322469 
L 81.771429 35.635531 
L 84.04898 37.22877 
L 86.326531 40.84218 
L 88.604082 44.008987 
L 90.881633 46.7708 
L 93.159184 49.921308 
L 95.436735 52.625206 
L 97.714286 56.038779 
L 99.991837 59.337217 
L 102.269388 60.517565 
L 104.546939 62.184369 
L 106.82449 63.815423 
L 109.102041 64.890487 
L 111.379592 65.47242 
L 113.657143 65.995735 
L 115.934694 66.141743 
L 118.212245 66.161865 
L 120.489796 66.19853 
L 122.767347 66.198527 
L 125.044898 66.198527 
L 127.322449 66.198527 
L 129.6 66.198527 
" style="fill:none;stroke:#fc8d62;stroke-dasharray:1.5,1.5;stroke-dashoffset:0;stroke-opacity:0.7;stroke-width:1.5;"/>
   </g>
   <g id="patch_3">
    <path d="M 74.938776 67.68 
L 74.938776 17.28 
" style="fill:none;stroke:#a9a9a9;stroke-linecap:square;stroke-linejoin:miter;stroke-width:2;"/>
   </g>
   <g id="patch_4">
    <path d="M 129.6 67.68 
L 129.6 17.28 
" style="fill:none;"/>
   </g>
   <g id="patch_5">
    <path d="M 18 66.198527 
L 129.6 66.198527 
" style="fill:none;stroke:#a9a9a9;stroke-linecap:square;stroke-linejoin:miter;stroke-width:2;"/>
   </g>
   <g id="patch_6">
    <path d="M 18 17.28 
L 129.6 17.28 
" style="fill:none;"/>
   </g>
   <g id="legend_1">
    <g id="line2d_8">
     <path d="M 87.67 26.448906 
L 101.67 26.448906 
" style="fill:none;stroke:#fc8d62;stroke-linecap:square;stroke-width:2;"/>
    </g>
    <g id="line2d_9"/>
    <g id="text_1">
     <!-- $\theta$ -->
     <g transform="translate(107.27 28.898906)scale(0.07 -0.07)">
      <defs>
       <path d="M 45.515625 34.671875 
L 14.453125 34.671875 
Q 12.359375 20.0625 14.5 13.875 
Q 17.1875 6.25 24.46875 6.25 
Q 31.78125 6.25 37.359375 13.921875 
Q 42.234375 20.65625 45.515625 34.671875 
z
M 47.015625 42.96875 
Q 48.34375 56.84375 46.625 61.71875 
Q 43.953125 69.4375 36.765625 69.4375 
Q 29.296875 69.4375 23.828125 61.8125 
Q 19.53125 55.671875 16.15625 42.96875 
z
M 38.1875 76.765625 
Q 49.90625 76.765625 54.59375 66.40625 
Q 59.28125 56.109375 55.71875 37.84375 
Q 52.203125 19.625 43.453125 9.28125 
Q 34.765625 -1.125 23.046875 -1.125 
Q 11.28125 -1.125 6.640625 9.28125 
Q 2 19.625 5.515625 37.84375 
Q 9.078125 56.109375 17.71875 66.40625 
Q 26.421875 76.765625 38.1875 76.765625 
z
" id="DejaVuSans-Oblique-952"/>
      </defs>
      <use transform="translate(0 0.234375)" xlink:href="#DejaVuSans-Oblique-952"/>
     </g>
    </g>
    <g id="line2d_10">
     <path d="M 87.67 36.723594 
L 101.67 36.723594 
" style="fill:none;stroke:#fc8d62;stroke-dasharray:1.5,1.5;stroke-dashoffset:0;stroke-opacity:0.7;stroke-width:1.5;"/>
    </g>
    <g id="line2d_11"/>
    <g id="text_2">
     <!-- No $\theta$ -->
     <g transform="translate(107.27 39.173594)scale(0.07 -0.07)">
      <defs>
       <path d="M 9.8125 72.90625 
L 23.09375 72.90625 
L 55.421875 11.921875 
L 55.421875 72.90625 
L 64.984375 72.90625 
L 64.984375 0 
L 51.703125 0 
L 19.390625 60.984375 
L 19.390625 0 
L 9.8125 0 
z
" id="DejaVuSans-78"/>
       <path d="M 30.609375 48.390625 
Q 23.390625 48.390625 19.1875 42.75 
Q 14.984375 37.109375 14.984375 27.296875 
Q 14.984375 17.484375 19.15625 11.84375 
Q 23.34375 6.203125 30.609375 6.203125 
Q 37.796875 6.203125 41.984375 11.859375 
Q 46.1875 17.53125 46.1875 27.296875 
Q 46.1875 37.015625 41.984375 42.703125 
Q 37.796875 48.390625 30.609375 48.390625 
z
M 30.609375 56 
Q 42.328125 56 49.015625 48.375 
Q 55.71875 40.765625 55.71875 27.296875 
Q 55.71875 13.875 49.015625 6.21875 
Q 42.328125 -1.421875 30.609375 -1.421875 
Q 18.84375 -1.421875 12.171875 6.21875 
Q 5.515625 13.875 5.515625 27.296875 
Q 5.515625 40.765625 12.171875 48.375 
Q 18.84375 56 30.609375 56 
z
" id="DejaVuSans-111"/>
       <path id="DejaVuSans-32"/>
      </defs>
      <use transform="translate(0 0.234375)" xlink:href="#DejaVuSans-78"/>
      <use transform="translate(74.804688 0.234375)" xlink:href="#DejaVuSans-111"/>
      <use transform="translate(135.986328 0.234375)" xlink:href="#DejaVuSans-32"/>
      <use transform="translate(167.773438 0.234375)" xlink:href="#DejaVuSans-Oblique-952"/>
     </g>
    </g>
   </g>
  </g>
  <g id="axes_2">
   <g id="patch_7">
    <path d="M 18 128.16 
L 129.6 128.16 
L 129.6 77.76 
L 18 77.76 
z
" style="fill:none;"/>
   </g>
   <g id="PolyCollection_3">
    <path clip-path="url(#pad6084fcaf)" d="M 18 120.51376 
L 18 120.430932 
L 20.277551 120.649357 
L 22.555102 120.714673 
L 24.832653 120.634173 
L 27.110204 120.455572 
L 29.387755 120.256692 
L 31.665306 120.086556 
L 33.942857 119.804405 
L 36.220408 119.248036 
L 38.497959 118.289827 
L 40.77551 116.838361 
L 43.053061 114.842983 
L 45.330612 112.295697 
L 47.608163 109.22856 
L 49.885714 105.709756 
L 52.163265 101.839992 
L 54.440816 97.748995 
L 56.718367 93.591286 
L 58.995918 89.541452 
L 61.273469 85.788901 
L 63.55102 82.532433 
L 65.828571 79.974911 
L 68.106122 78.318394 
L 70.383673 77.76 
L 72.661224 78.488608 
L 74.938776 80.672766 
L 77.216327 84.401503 
L 79.493878 89.275463 
L 81.771429 94.847683 
L 84.04898 100.700994 
L 86.326531 106.471747 
L 88.604082 111.859001 
L 90.881633 116.629251 
L 93.159184 120.617695 
L 95.436735 123.72701 
L 97.714286 125.924502 
L 99.991837 127.237031 
L 102.269388 127.741164 
L 104.546939 127.550506 
L 106.82449 126.803991 
L 109.102041 125.656545 
L 111.379592 124.270978 
L 113.657143 122.811074 
L 115.934694 121.436452 
L 118.212245 120.300771 
L 120.489796 119.554714 
L 122.767347 119.294865 
L 125.044898 119.402862 
L 127.322449 119.716357 
L 129.6 120.095371 
L 129.6 120.203893 
L 129.6 120.203893 
L 127.322449 119.849791 
L 125.044898 119.555728 
L 122.767347 119.459331 
L 120.489796 119.724796 
L 118.212245 120.480414 
L 115.934694 121.641979 
L 113.657143 123.058741 
L 111.379592 124.567572 
L 109.102041 125.999084 
L 106.82449 127.183019 
L 104.546939 127.954181 
L 102.269388 128.16 
L 99.991837 127.669521 
L 97.714286 126.382739 
L 95.436735 124.237863 
L 93.159184 121.216624 
L 90.881633 117.350519 
L 88.604082 112.729251 
L 86.326531 107.507619 
L 84.04898 101.908888 
L 81.771429 96.224194 
L 79.493878 90.80771 
L 77.216327 86.067546 
L 74.938776 82.442273 
L 72.661224 80.324404 
L 70.383673 79.621339 
L 68.106122 80.16358 
L 65.828571 81.763327 
L 63.55102 84.226413 
L 61.273469 87.355454 
L 58.995918 90.953814 
L 56.718367 94.830207 
L 54.440816 98.803663 
L 52.163265 102.708599 
L 49.885714 106.399581 
L 47.608163 109.755495 
L 45.330612 112.683107 
L 43.053061 115.12053 
L 40.77551 117.039611 
L 38.497959 118.446711 
L 36.220408 119.383158 
L 33.942857 119.92816 
L 31.665306 120.201852 
L 29.387755 120.362345 
L 27.110204 120.546817 
L 24.832653 120.708235 
L 22.555102 120.776103 
L 20.277551 120.713356 
L 18 120.51376 
z
" style="fill:#66c2a5;fill-opacity:0.2;"/>
   </g>
   <g id="matplotlib.axis_3">
    <g id="xtick_6">
     <g id="line2d_12">
      <g>
       <use style="fill:#a9a9a9;stroke:#a9a9a9;stroke-width:2;" x="29.387755" xlink:href="#m2ebda8f2c9" y="122.1735"/>
      </g>
     </g>
    </g>
    <g id="xtick_7">
     <g id="line2d_13">
      <g>
       <use style="fill:#a9a9a9;stroke:#a9a9a9;stroke-width:2;" x="52.163265" xlink:href="#m2ebda8f2c9" y="122.1735"/>
      </g>
     </g>
    </g>
    <g id="xtick_8">
     <g id="line2d_14">
      <g>
       <use style="fill:#a9a9a9;stroke:#a9a9a9;stroke-width:2;" x="74.938776" xlink:href="#m2ebda8f2c9" y="122.1735"/>
      </g>
     </g>
    </g>
    <g id="xtick_9">
     <g id="line2d_15">
      <g>
       <use style="fill:#a9a9a9;stroke:#a9a9a9;stroke-width:2;" x="97.714286" xlink:href="#m2ebda8f2c9" y="122.1735"/>
      </g>
     </g>
    </g>
    <g id="xtick_10">
     <g id="line2d_16">
      <g>
       <use style="fill:#a9a9a9;stroke:#a9a9a9;stroke-width:2;" x="120.489796" xlink:href="#m2ebda8f2c9" y="122.1735"/>
      </g>
     </g>
    </g>
   </g>
   <g id="matplotlib.axis_4"/>
   <g id="line2d_17">
    <path clip-path="url(#pad6084fcaf)" d="M 18 120.472346 
L 20.277551 120.681357 
L 22.555102 120.745388 
L 24.832653 120.671204 
L 27.110204 120.501194 
L 29.387755 120.309518 
L 31.665306 120.144204 
L 33.942857 119.866283 
L 36.220408 119.315597 
L 38.497959 118.368269 
L 40.77551 116.938986 
L 43.053061 114.981756 
L 45.330612 112.489402 
L 47.608163 109.492027 
L 49.885714 106.054668 
L 52.163265 102.274295 
L 54.440816 98.276329 
L 56.718367 94.210747 
L 58.995918 90.247633 
L 61.273469 86.572177 
L 63.55102 83.379423 
L 65.828571 80.869119 
L 68.106122 79.240987 
L 70.383673 78.690669 
L 72.661224 79.406506 
L 74.938776 81.557519 
L 77.216327 85.234524 
L 79.493878 90.041586 
L 81.771429 95.535939 
L 84.04898 101.304941 
L 86.326531 106.989683 
L 88.604082 112.294126 
L 90.881633 116.989885 
L 93.159184 120.91716 
L 95.436735 123.982436 
L 97.714286 126.15362 
L 99.991837 127.453276 
L 102.269388 127.950582 
L 104.546939 127.752343 
L 106.82449 126.993505 
L 109.102041 125.827815 
L 111.379592 124.419275 
L 113.657143 122.934907 
L 115.934694 121.539215 
L 118.212245 120.390593 
L 120.489796 119.639755 
L 122.767347 119.377098 
L 125.044898 119.479295 
L 127.322449 119.783074 
L 129.6 120.149632 
" style="fill:none;stroke:#66c2a5;stroke-linecap:square;stroke-width:2;"/>
   </g>
   <g id="patch_8">
    <path d="M 74.938776 128.16 
L 74.938776 77.76 
" style="fill:none;stroke:#a9a9a9;stroke-linecap:square;stroke-linejoin:miter;stroke-width:2;"/>
   </g>
   <g id="patch_9">
    <path d="M 129.6 128.16 
L 129.6 77.76 
" style="fill:none;"/>
   </g>
   <g id="patch_10">
    <path d="M 18 122.1735 
L 129.6 122.1735 
" style="fill:none;stroke:#a9a9a9;stroke-linecap:square;stroke-linejoin:miter;stroke-width:2;"/>
   </g>
   <g id="patch_11">
    <path d="M 18 77.76 
L 129.6 77.76 
" style="fill:none;"/>
   </g>
  </g>
 </g>
 <defs>
  <clipPath id="pc5a108a946">
   <rect height="50.4" width="111.6" x="18" y="17.28"/>
  </clipPath>
  <clipPath id="pad6084fcaf">
   <rect height="50.4" width="111.6" x="18" y="77.76"/>
  </clipPath>
 </defs>
</svg>
