<?xml version="1.0" encoding="utf-8" standalone="no"?>
<!DOCTYPE svg PUBLIC "-//W3C//DTD SVG 1.1//EN"
  "http://www.w3.org/Graphics/SVG/1.1/DTD/svg11.dtd">
<!-- Created with matplotlib (https://matplotlib.org/) -->
<svg height="144pt" version="1.1" viewBox="0 0 144 144" width="144pt" xmlns="http://www.w3.org/2000/svg" xmlns:xlink="http://www.w3.org/1999/xlink">
 <metadata>
  <rdf:RDF xmlns:cc="http://creativecommons.org/ns#" xmlns:dc="http://purl.org/dc/elements/1.1/" xmlns:rdf="http://www.w3.org/1999/02/22-rdf-syntax-ns#">
   <cc:Work>
    <dc:type rdf:resource="http://purl.org/dc/dcmitype/StillImage"/>
    <dc:date>2021-10-14T20:26:20.064508</dc:date>
    <dc:format>image/svg+xml</dc:format>
    <dc:creator>
     <cc:Agent>
      <dc:title>Matplotlib v3.3.2, https://matplotlib.org/</dc:title>
     </cc:Agent>
    </dc:creator>
   </cc:Work>
  </rdf:RDF>
 </metadata>
 <defs>
  <style type="text/css">*{stroke-linecap:butt;stroke-linejoin:round;}</style>
 </defs>
 <g id="figure_1">
  <g id="patch_1">
   <path d="M 0 144 
L 144 144 
L 144 0 
L 0 0 
z
" style="fill:none;"/>
  </g>
  <g id="axes_1">
   <g id="patch_2">
    <path d="M 18 67.68 
L 129.6 67.68 
L 129.6 17.28 
L 18 17.28 
z
" style="fill:none;"/>
   </g>
   <g id="PolyCollection_1">
    <path clip-path="url(#p69e0f32842)" d="M 18 67.671781 
L 18 67.671781 
L 20.277551 67.671781 
L 22.555102 67.671781 
L 24.832653 67.671781 
L 27.110204 67.671778 
L 29.387755 67.67053 
L 31.665306 67.618906 
L 33.942857 67.404391 
L 36.220408 66.928703 
L 38.497959 66.067739 
L 40.77551 64.767196 
L 43.053061 62.78728 
L 45.330612 60.419325 
L 47.608163 57.387219 
L 49.885714 53.705683 
L 52.163265 49.550956 
L 54.440816 45.135982 
L 56.718367 40.141188 
L 58.995918 35.491079 
L 61.273469 31.025556 
L 63.55102 26.507622 
L 65.828571 23.316045 
L 68.106122 20.33079 
L 70.383673 18.195997 
L 72.661224 17.28 
L 74.938776 17.938487 
L 77.216327 19.743894 
L 79.493878 22.084515 
L 81.771429 25.657222 
L 84.04898 29.146935 
L 86.326531 33.652714 
L 88.604082 38.01603 
L 90.881633 42.309423 
L 93.159184 46.619063 
L 95.436735 50.522493 
L 97.714286 54.233792 
L 99.991837 57.510955 
L 102.269388 60.188036 
L 104.546939 62.417191 
L 106.82449 64.266231 
L 109.102041 65.681019 
L 111.379592 66.625865 
L 113.657143 67.188816 
L 115.934694 67.535681 
L 118.212245 67.653155 
L 120.489796 67.671744 
L 122.767347 67.671781 
L 125.044898 67.671781 
L 127.322449 67.671781 
L 129.6 67.671781 
L 129.6 67.671781 
L 129.6 67.671781 
L 127.322449 67.671781 
L 125.044898 67.671781 
L 122.767347 67.671782 
L 120.489796 67.672032 
L 118.212245 67.68 
L 115.934694 67.619164 
L 113.657143 67.372277 
L 111.379592 66.874679 
L 109.102041 66.017794 
L 106.82449 64.794656 
L 104.546939 63.139984 
L 102.269388 61.022648 
L 99.991837 58.394067 
L 97.714286 55.391698 
L 95.436735 52.115367 
L 93.159184 48.179708 
L 90.881633 44.191755 
L 88.604082 40.123944 
L 86.326531 35.803683 
L 84.04898 31.79908 
L 81.771429 28.070997 
L 79.493878 24.946622 
L 77.216327 22.338999 
L 74.938776 21.667419 
L 72.661224 20.7116 
L 70.383673 21.319397 
L 68.106122 23.133688 
L 65.828571 26.078921 
L 63.55102 29.379886 
L 61.273469 33.228076 
L 58.995918 37.94172 
L 56.718367 42.412043 
L 54.440816 46.767409 
L 52.163265 51.116568 
L 49.885714 55.009662 
L 47.608163 58.310918 
L 45.330612 61.206881 
L 43.053061 63.498817 
L 40.77551 65.18242 
L 38.497959 66.344701 
L 36.220408 67.134725 
L 33.942857 67.509728 
L 31.665306 67.652702 
L 29.387755 67.671967 
L 27.110204 67.671782 
L 24.832653 67.671781 
L 22.555102 67.671781 
L 20.277551 67.671781 
L 18 67.671781 
z
" style="fill:#fc8d62;fill-opacity:0.2;"/>
   </g>
   <g id="PolyCollection_2">
    <path clip-path="url(#p69e0f32842)" d="M 18 67.671781 
L 18 67.671781 
L 20.277551 67.671781 
L 22.555102 67.671781 
L 24.832653 67.671781 
L 27.110204 67.671779 
L 29.387755 67.670927 
L 31.665306 67.612411 
L 33.942857 67.410946 
L 36.220408 66.951479 
L 38.497959 66.120359 
L 40.77551 64.771946 
L 43.053061 63.02835 
L 45.330612 60.731306 
L 47.608163 57.973571 
L 49.885714 54.638589 
L 52.163265 50.843116 
L 54.440816 46.762777 
L 56.718367 42.362197 
L 58.995918 37.832938 
L 61.273469 33.525513 
L 63.55102 29.28647 
L 65.828571 25.762427 
L 68.106122 22.61549 
L 70.383673 20.359695 
L 72.661224 18.706457 
L 74.938776 18.215594 
L 77.216327 19.23519 
L 79.493878 20.977904 
L 81.771429 23.704982 
L 84.04898 27.267124 
L 86.326531 31.31032 
L 88.604082 35.644854 
L 90.881633 40.032328 
L 93.159184 44.437262 
L 95.436735 48.737223 
L 97.714286 52.620233 
L 99.991837 56.142393 
L 102.269388 59.324117 
L 104.546939 61.883568 
L 106.82449 63.864087 
L 109.102041 65.443369 
L 111.379592 66.509871 
L 113.657143 67.165464 
L 115.934694 67.526365 
L 118.212245 67.650899 
L 120.489796 67.671779 
L 122.767347 67.671781 
L 125.044898 67.671781 
L 127.322449 67.671781 
L 129.6 67.671781 
L 129.6 67.671781 
L 129.6 67.671781 
L 127.322449 67.671781 
L 125.044898 67.671781 
L 122.767347 67.671782 
L 120.489796 67.671952 
L 118.212245 67.679072 
L 115.934694 67.60786 
L 113.657143 67.338651 
L 111.379592 66.810073 
L 109.102041 65.884072 
L 106.82449 64.515544 
L 104.546939 62.606163 
L 102.269388 60.253592 
L 99.991837 57.393483 
L 97.714286 54.036435 
L 95.436735 50.238496 
L 93.159184 46.083513 
L 90.881633 41.79753 
L 88.604082 37.632639 
L 86.326531 33.331093 
L 84.04898 29.360796 
L 81.771429 26.08027 
L 79.493878 23.570911 
L 77.216327 21.742794 
L 74.938776 21.403648 
L 72.661224 21.082912 
L 70.383673 22.515022 
L 68.106122 24.855082 
L 65.828571 28.066812 
L 63.55102 31.449926 
L 61.273469 35.637321 
L 58.995918 39.763785 
L 56.718367 43.930726 
L 54.440816 48.304073 
L 52.163265 52.146816 
L 49.885714 55.73826 
L 47.608163 58.880437 
L 45.330612 61.534287 
L 43.053061 63.723697 
L 40.77551 65.306278 
L 38.497959 66.448841 
L 36.220408 67.149159 
L 33.942857 67.505302 
L 31.665306 67.651253 
L 29.387755 67.671794 
L 27.110204 67.671781 
L 24.832653 67.671781 
L 22.555102 67.671781 
L 20.277551 67.671781 
L 18 67.671781 
z
" style="fill:#fc8d62;fill-opacity:0.2;"/>
   </g>
   <g id="matplotlib.axis_1">
    <g id="xtick_1">
     <g id="line2d_1">
      <defs>
       <path d="M 0 0 
L 0 3.5 
" id="m505a2a5821" style="stroke:#a9a9a9;stroke-width:2;"/>
      </defs>
      <g>
       <use style="fill:#a9a9a9;stroke:#a9a9a9;stroke-width:2;" x="29.387755" xlink:href="#m505a2a5821" y="67.671781"/>
      </g>
     </g>
    </g>
    <g id="xtick_2">
     <g id="line2d_2">
      <g>
       <use style="fill:#a9a9a9;stroke:#a9a9a9;stroke-width:2;" x="52.163265" xlink:href="#m505a2a5821" y="67.671781"/>
      </g>
     </g>
    </g>
    <g id="xtick_3">
     <g id="line2d_3">
      <g>
       <use style="fill:#a9a9a9;stroke:#a9a9a9;stroke-width:2;" x="74.938776" xlink:href="#m505a2a5821" y="67.671781"/>
      </g>
     </g>
    </g>
    <g id="xtick_4">
     <g id="line2d_4">
      <g>
       <use style="fill:#a9a9a9;stroke:#a9a9a9;stroke-width:2;" x="97.714286" xlink:href="#m505a2a5821" y="67.671781"/>
      </g>
     </g>
    </g>
    <g id="xtick_5">
     <g id="line2d_5">
      <g>
       <use style="fill:#a9a9a9;stroke:#a9a9a9;stroke-width:2;" x="120.489796" xlink:href="#m505a2a5821" y="67.671781"/>
      </g>
     </g>
    </g>
   </g>
   <g id="matplotlib.axis_2"/>
   <g id="line2d_6">
    <path clip-path="url(#p69e0f32842)" d="M 18 67.671781 
L 20.277551 67.671781 
L 22.555102 67.671781 
L 24.832653 67.671781 
L 27.110204 67.67178 
L 29.387755 67.671248 
L 31.665306 67.635804 
L 33.942857 67.45706 
L 36.220408 67.031714 
L 38.497959 66.20622 
L 40.77551 64.974808 
L 43.053061 63.143048 
L 45.330612 60.813103 
L 47.608163 57.849068 
L 49.885714 54.357673 
L 52.163265 50.333762 
L 54.440816 45.951696 
L 56.718367 41.276615 
L 58.995918 36.716399 
L 61.273469 32.126816 
L 63.55102 27.943754 
L 65.828571 24.697483 
L 68.106122 21.732239 
L 70.383673 19.757697 
L 72.661224 18.9958 
L 74.938776 19.802953 
L 77.216327 21.041446 
L 79.493878 23.515568 
L 81.771429 26.864109 
L 84.04898 30.473008 
L 86.326531 34.728198 
L 88.604082 39.069987 
L 90.881633 43.250589 
L 93.159184 47.399385 
L 95.436735 51.31893 
L 97.714286 54.812745 
L 99.991837 57.952511 
L 102.269388 60.605342 
L 104.546939 62.778588 
L 106.82449 64.530444 
L 109.102041 65.849406 
L 111.379592 66.750272 
L 113.657143 67.280547 
L 115.934694 67.577423 
L 118.212245 67.666578 
L 120.489796 67.671888 
L 122.767347 67.671782 
L 125.044898 67.671781 
L 127.322449 67.671781 
L 129.6 67.671781 
" style="fill:none;stroke:#fc8d62;stroke-linecap:square;stroke-width:2;"/>
   </g>
   <g id="line2d_7">
    <path clip-path="url(#p69e0f32842)" d="M 18 67.671781 
L 20.277551 67.671781 
L 22.555102 67.671781 
L 24.832653 67.671781 
L 27.110204 67.67178 
L 29.387755 67.671361 
L 31.665306 67.631832 
L 33.942857 67.458124 
L 36.220408 67.050319 
L 38.497959 66.2846 
L 40.77551 65.039112 
L 43.053061 63.376024 
L 45.330612 61.132797 
L 47.608163 58.427004 
L 49.885714 55.188425 
L 52.163265 51.494966 
L 54.440816 47.533425 
L 56.718367 43.146462 
L 58.995918 38.798361 
L 61.273469 34.581417 
L 63.55102 30.368198 
L 65.828571 26.91462 
L 68.106122 23.735286 
L 70.383673 21.437358 
L 72.661224 19.894684 
L 74.938776 19.809621 
L 77.216327 20.488992 
L 79.493878 22.274407 
L 81.771429 24.892626 
L 84.04898 28.31396 
L 86.326531 32.320707 
L 88.604082 36.638746 
L 90.881633 40.914929 
L 93.159184 45.260388 
L 95.436735 49.487859 
L 97.714286 53.328334 
L 99.991837 56.767938 
L 102.269388 59.788855 
L 104.546939 62.244866 
L 106.82449 64.189816 
L 109.102041 65.66372 
L 111.379592 66.659972 
L 113.657143 67.252058 
L 115.934694 67.567112 
L 118.212245 67.664986 
L 120.489796 67.671866 
L 122.767347 67.671782 
L 125.044898 67.671781 
L 127.322449 67.671781 
L 129.6 67.671781 
" style="fill:none;stroke:#fc8d62;stroke-dasharray:1.5,1.5;stroke-dashoffset:0;stroke-opacity:0.7;stroke-width:1.5;"/>
   </g>
   <g id="patch_3">
    <path d="M 74.938776 67.68 
L 74.938776 17.28 
" style="fill:none;stroke:#a9a9a9;stroke-linecap:square;stroke-linejoin:miter;stroke-width:2;"/>
   </g>
   <g id="patch_4">
    <path d="M 129.6 67.68 
L 129.6 17.28 
" style="fill:none;"/>
   </g>
   <g id="patch_5">
    <path d="M 18 67.671781 
L 129.6 67.671781 
" style="fill:none;stroke:#a9a9a9;stroke-linecap:square;stroke-linejoin:miter;stroke-width:2;"/>
   </g>
   <g id="patch_6">
    <path d="M 18 17.28 
L 129.6 17.28 
" style="fill:none;"/>
   </g>
   <g id="legend_1">
    <g id="line2d_8">
     <path d="M 101.475312 26.448906 
L 115.475312 26.448906 
" style="fill:none;stroke:#fc8d62;stroke-linecap:square;stroke-width:2;"/>
    </g>
    <g id="line2d_9"/>
    <g id="text_1">
     <!--   -->
     <g transform="translate(121.075312 28.898906)scale(0.07 -0.07)">
      <defs>
       <path id="DejaVuSans-32"/>
      </defs>
      <use xlink:href="#DejaVuSans-32"/>
     </g>
    </g>
    <g id="line2d_10">
     <path d="M 101.475312 36.723594 
L 115.475312 36.723594 
" style="fill:none;stroke:#fc8d62;stroke-dasharray:1.5,1.5;stroke-dashoffset:0;stroke-opacity:0.7;stroke-width:1.5;"/>
    </g>
    <g id="line2d_11"/>
    <g id="text_2">
     <!--   -->
     <g transform="translate(121.075312 39.173594)scale(0.07 -0.07)">
      <use xlink:href="#DejaVuSans-32"/>
     </g>
    </g>
   </g>
  </g>
  <g id="axes_2">
   <g id="patch_7">
    <path d="M 18 128.16 
L 129.6 128.16 
L 129.6 77.76 
L 18 77.76 
z
" style="fill:none;"/>
   </g>
   <g id="PolyCollection_3">
    <path clip-path="url(#p5d60ccbacc)" d="M 18 120.537853 
L 18 120.453308 
L 20.277551 120.664049 
L 22.555102 120.738203 
L 24.832653 120.678894 
L 27.110204 120.528254 
L 29.387755 120.356472 
L 31.665306 120.205151 
L 33.942857 119.936229 
L 36.220408 119.390387 
L 38.497959 118.441331 
L 40.77551 116.99786 
L 43.053061 115.008755 
L 45.330612 112.465822 
L 47.608163 109.400831 
L 49.885714 105.881503 
L 52.163265 102.008156 
L 54.440816 97.910272 
L 56.718367 93.74217 
L 58.995918 89.678334 
L 61.273469 85.908102 
L 63.55102 82.63005 
L 65.828571 80.046433 
L 68.106122 78.358093 
L 70.383673 77.76 
L 72.661224 78.437657 
L 74.938776 80.557567 
L 77.216327 84.197403 
L 79.493878 88.981108 
L 81.771429 94.473847 
L 84.04898 100.269162 
L 86.326531 106.009715 
L 88.604082 111.396788 
L 90.881633 116.195625 
L 93.159184 120.237394 
L 95.436735 123.419322 
L 97.714286 125.70323 
L 99.991837 127.110414 
L 102.269388 127.711373 
L 104.546939 127.613315 
L 106.82449 126.949453 
L 109.102041 125.870138 
L 111.379592 124.534942 
L 113.657143 123.105618 
L 115.934694 121.740593 
L 118.212245 120.592776 
L 120.489796 119.812927 
L 122.767347 119.50075 
L 125.044898 119.549489 
L 127.322449 119.807839 
L 129.6 120.143842 
L 129.6 120.25545 
L 129.6 120.25545 
L 127.322449 119.945029 
L 125.044898 119.705887 
L 122.767347 119.667637 
L 120.489796 119.98382 
L 118.212245 120.77244 
L 115.934694 121.948525 
L 113.657143 123.360923 
L 111.379592 124.845577 
L 109.102041 126.233 
L 106.82449 127.354047 
L 104.546939 128.045964 
L 102.269388 128.16 
L 99.991837 127.570432 
L 97.714286 126.183893 
L 95.436735 123.946852 
L 93.159184 120.850066 
L 90.881633 116.933109 
L 88.604082 112.291266 
L 86.326531 107.082187 
L 84.04898 101.528994 
L 81.771429 95.918959 
L 79.493878 90.598233 
L 77.216327 85.962588 
L 74.938776 82.436987 
L 72.661224 80.389665 
L 70.383673 79.739539 
L 68.106122 80.319744 
L 65.828571 81.946487 
L 63.55102 84.428411 
L 61.273469 87.57004 
L 58.995918 91.175973 
L 56.718367 95.055725 
L 54.440816 99.028846 
L 52.163265 102.930106 
L 49.885714 106.614413 
L 47.608163 109.961208 
L 45.330612 112.877993 
L 43.053061 115.303759 
L 40.77551 117.211373 
L 38.497959 118.607857 
L 36.220408 119.533896 
L 33.942857 120.067368 
L 31.665306 120.326228 
L 29.387755 120.465659 
L 27.110204 120.621496 
L 24.832653 120.753446 
L 22.555102 120.799139 
L 20.277551 120.72815 
L 18 120.537853 
z
" style="fill:#66c2a5;fill-opacity:0.2;"/>
   </g>
   <g id="matplotlib.axis_3">
    <g id="xtick_6">
     <g id="line2d_12">
      <g>
       <use style="fill:#a9a9a9;stroke:#a9a9a9;stroke-width:2;" x="29.387755" xlink:href="#m505a2a5821" y="122.247781"/>
      </g>
     </g>
    </g>
    <g id="xtick_7">
     <g id="line2d_13">
      <g>
       <use style="fill:#a9a9a9;stroke:#a9a9a9;stroke-width:2;" x="52.163265" xlink:href="#m505a2a5821" y="122.247781"/>
      </g>
     </g>
    </g>
    <g id="xtick_8">
     <g id="line2d_14">
      <g>
       <use style="fill:#a9a9a9;stroke:#a9a9a9;stroke-width:2;" x="74.938776" xlink:href="#m505a2a5821" y="122.247781"/>
      </g>
     </g>
    </g>
    <g id="xtick_9">
     <g id="line2d_15">
      <g>
       <use style="fill:#a9a9a9;stroke:#a9a9a9;stroke-width:2;" x="97.714286" xlink:href="#m505a2a5821" y="122.247781"/>
      </g>
     </g>
    </g>
    <g id="xtick_10">
     <g id="line2d_16">
      <g>
       <use style="fill:#a9a9a9;stroke:#a9a9a9;stroke-width:2;" x="120.489796" xlink:href="#m505a2a5821" y="122.247781"/>
      </g>
     </g>
    </g>
   </g>
   <g id="matplotlib.axis_4"/>
   <g id="line2d_17">
    <path clip-path="url(#p5d60ccbacc)" d="M 18 120.49558 
L 20.277551 120.696099 
L 22.555102 120.768671 
L 24.832653 120.71617 
L 27.110204 120.574875 
L 29.387755 120.411066 
L 31.665306 120.265689 
L 33.942857 120.001798 
L 36.220408 119.462142 
L 38.497959 118.524594 
L 40.77551 117.104616 
L 43.053061 115.156257 
L 45.330612 112.671908 
L 47.608163 109.68102 
L 49.885714 106.247958 
L 52.163265 102.469131 
L 54.440816 98.469559 
L 56.718367 94.398948 
L 58.995918 90.427154 
L 61.273469 86.739071 
L 63.55102 83.529231 
L 65.828571 80.99646 
L 68.106122 79.338919 
L 70.383673 78.749769 
L 72.661224 79.413661 
L 74.938776 81.497277 
L 77.216327 85.079996 
L 79.493878 89.789671 
L 81.771429 95.196403 
L 84.04898 100.899078 
L 86.326531 106.545951 
L 88.604082 111.844027 
L 90.881633 116.564367 
L 93.159184 120.54373 
L 95.436735 123.683087 
L 97.714286 125.943562 
L 99.991837 127.340423 
L 102.269388 127.935686 
L 104.546939 127.82964 
L 106.82449 127.15175 
L 109.102041 126.051569 
L 111.379592 124.690259 
L 113.657143 123.233271 
L 115.934694 121.844559 
L 118.212245 120.682608 
L 120.489796 119.898373 
L 122.767347 119.584194 
L 125.044898 119.627688 
L 127.322449 119.876434 
L 129.6 120.199646 
" style="fill:none;stroke:#66c2a5;stroke-linecap:square;stroke-width:2;"/>
   </g>
   <g id="patch_8">
    <path d="M 74.938776 128.16 
L 74.938776 77.76 
" style="fill:none;stroke:#a9a9a9;stroke-linecap:square;stroke-linejoin:miter;stroke-width:2;"/>
   </g>
   <g id="patch_9">
    <path d="M 129.6 128.16 
L 129.6 77.76 
" style="fill:none;"/>
   </g>
   <g id="patch_10">
    <path d="M 18 122.247781 
L 129.6 122.247781 
" style="fill:none;stroke:#a9a9a9;stroke-linecap:square;stroke-linejoin:miter;stroke-width:2;"/>
   </g>
   <g id="patch_11">
    <path d="M 18 77.76 
L 129.6 77.76 
" style="fill:none;"/>
   </g>
   <g id="legend_2">
    <g id="line2d_18">
     <path d="M 101.475312 86.928906 
L 115.475312 86.928906 
" style="fill:none;stroke:#66c2a5;stroke-linecap:square;stroke-width:2;"/>
    </g>
    <g id="line2d_19"/>
    <g id="text_3">
     <!--   -->
     <g transform="translate(121.075312 89.378906)scale(0.07 -0.07)">
      <use xlink:href="#DejaVuSans-32"/>
     </g>
    </g>
   </g>
  </g>
 </g>
 <defs>
  <clipPath id="p69e0f32842">
   <rect height="50.4" width="111.6" x="18" y="17.28"/>
  </clipPath>
  <clipPath id="p5d60ccbacc">
   <rect height="50.4" width="111.6" x="18" y="77.76"/>
  </clipPath>
 </defs>
</svg>
