<?xml version="1.0" encoding="utf-8" standalone="no"?>
<!DOCTYPE svg PUBLIC "-//W3C//DTD SVG 1.1//EN"
  "http://www.w3.org/Graphics/SVG/1.1/DTD/svg11.dtd">
<!-- Created with matplotlib (https://matplotlib.org/) -->
<svg height="144pt" version="1.1" viewBox="0 0 144 144" width="144pt" xmlns="http://www.w3.org/2000/svg" xmlns:xlink="http://www.w3.org/1999/xlink">
 <metadata>
  <rdf:RDF xmlns:cc="http://creativecommons.org/ns#" xmlns:dc="http://purl.org/dc/elements/1.1/" xmlns:rdf="http://www.w3.org/1999/02/22-rdf-syntax-ns#">
   <cc:Work>
    <dc:type rdf:resource="http://purl.org/dc/dcmitype/StillImage"/>
    <dc:date>2021-10-13T15:31:39.763286</dc:date>
    <dc:format>image/svg+xml</dc:format>
    <dc:creator>
     <cc:Agent>
      <dc:title>Matplotlib v3.3.2, https://matplotlib.org/</dc:title>
     </cc:Agent>
    </dc:creator>
   </cc:Work>
  </rdf:RDF>
 </metadata>
 <defs>
  <style type="text/css">*{stroke-linecap:butt;stroke-linejoin:round;}</style>
 </defs>
 <g id="figure_1">
  <g id="patch_1">
   <path d="M 0 144 
L 144 144 
L 144 0 
L 0 0 
z
" style="fill:none;"/>
  </g>
  <g id="axes_1">
   <g id="patch_2">
    <path d="M 18 67.68 
L 129.6 67.68 
L 129.6 17.28 
L 18 17.28 
z
" style="fill:none;"/>
   </g>
   <g id="PolyCollection_1">
    <path clip-path="url(#p882716a917)" d="M 18 65.251931 
L 18 65.251931 
L 20.277551 65.251931 
L 22.555102 65.251931 
L 24.832653 65.251931 
L 27.110204 65.251931 
L 29.387755 65.251931 
L 31.665306 65.185118 
L 33.942857 64.382184 
L 36.220408 63.874639 
L 38.497959 62.965916 
L 40.77551 61.594432 
L 43.053061 59.312426 
L 45.330612 57.196773 
L 47.608163 52.38883 
L 49.885714 47.404158 
L 52.163265 45.988383 
L 54.440816 40.129654 
L 56.718367 37.161141 
L 58.995918 34.168356 
L 61.273469 28.298632 
L 63.55102 25.868586 
L 65.828571 24.06077 
L 68.106122 20.568607 
L 70.383673 20.246013 
L 72.661224 17.28 
L 74.938776 32.064894 
L 77.216327 26.344488 
L 79.493878 23.780358 
L 81.771429 28.423427 
L 84.04898 34.29608 
L 86.326531 38.576202 
L 88.604082 42.78818 
L 90.881633 43.921809 
L 93.159184 46.972515 
L 95.436735 52.772868 
L 97.714286 53.361796 
L 99.991837 56.353396 
L 102.269388 58.969957 
L 104.546939 60.324682 
L 106.82449 60.397031 
L 109.102041 61.593598 
L 111.379592 62.776738 
L 113.657143 64.252029 
L 115.934694 64.596869 
L 118.212245 65.20708 
L 120.489796 65.251828 
L 122.767347 65.25192 
L 125.044898 65.251931 
L 127.322449 65.251931 
L 129.6 65.251931 
L 129.6 65.251931 
L 129.6 65.251931 
L 127.322449 65.251931 
L 125.044898 65.251931 
L 122.767347 65.251946 
L 120.489796 65.252093 
L 118.212245 65.355859 
L 115.934694 65.966483 
L 113.657143 66.157998 
L 111.379592 66.475488 
L 109.102041 66.341111 
L 106.82449 66.597099 
L 104.546939 66.208548 
L 102.269388 66.406264 
L 99.991837 67.68 
L 97.714286 65.269968 
L 95.436735 66.071018 
L 93.159184 61.785042 
L 90.881633 63.096906 
L 88.604082 60.562174 
L 86.326531 55.954592 
L 84.04898 53.105514 
L 81.771429 54.472053 
L 79.493878 49.882723 
L 77.216327 49.006515 
L 74.938776 49.024757 
L 72.661224 45.751113 
L 70.383673 43.699184 
L 68.106122 43.329674 
L 65.828571 48.499929 
L 63.55102 48.498841 
L 61.273469 50.39653 
L 58.995918 53.30332 
L 56.718367 56.810298 
L 54.440816 58.439194 
L 52.163265 59.567347 
L 49.885714 60.965318 
L 47.608163 63.425914 
L 45.330612 64.901284 
L 43.053061 65.496022 
L 40.77551 66.166302 
L 38.497959 66.239826 
L 36.220408 65.915364 
L 33.942857 65.717613 
L 31.665306 65.285844 
L 29.387755 65.251931 
L 27.110204 65.251931 
L 24.832653 65.251931 
L 22.555102 65.251931 
L 20.277551 65.251931 
L 18 65.251931 
z
" style="fill:#fc8d62;fill-opacity:0.2;"/>
   </g>
   <g id="PolyCollection_2">
    <path clip-path="url(#p882716a917)" d="M 18 65.251931 
L 18 65.251931 
L 20.277551 65.251931 
L 22.555102 65.251931 
L 24.832653 65.251931 
L 27.110204 65.251931 
L 29.387755 65.249324 
L 31.665306 65.247369 
L 33.942857 64.355103 
L 36.220408 63.171741 
L 38.497959 62.076647 
L 40.77551 60.754881 
L 43.053061 58.612173 
L 45.330612 57.725726 
L 47.608163 55.325027 
L 49.885714 50.487465 
L 52.163265 47.896748 
L 54.440816 45.214417 
L 56.718367 43.230274 
L 58.995918 39.109446 
L 61.273469 38.845362 
L 63.55102 32.932589 
L 65.828571 29.557924 
L 68.106122 27.8181 
L 70.383673 29.69696 
L 72.661224 21.551632 
L 74.938776 33.562098 
L 77.216327 26.140317 
L 79.493878 27.713015 
L 81.771429 31.600682 
L 84.04898 30.352639 
L 86.326531 33.181633 
L 88.604082 38.643165 
L 90.881633 38.552681 
L 93.159184 44.369785 
L 95.436735 48.379897 
L 97.714286 51.147714 
L 99.991837 53.35919 
L 102.269388 55.259502 
L 104.546939 58.436154 
L 106.82449 60.266299 
L 109.102041 62.731108 
L 111.379592 63.28542 
L 113.657143 63.90081 
L 115.934694 65.025328 
L 118.212245 65.239386 
L 120.489796 65.24109 
L 122.767347 65.251931 
L 125.044898 65.251931 
L 127.322449 65.251931 
L 129.6 65.251931 
L 129.6 65.251931 
L 129.6 65.251931 
L 127.322449 65.251931 
L 125.044898 65.251931 
L 122.767347 65.251931 
L 120.489796 65.268061 
L 118.212245 65.277373 
L 115.934694 65.636567 
L 113.657143 66.042883 
L 111.379592 66.782055 
L 109.102041 66.560676 
L 106.82449 66.84338 
L 104.546939 66.056559 
L 102.269388 64.464378 
L 99.991837 65.744313 
L 97.714286 62.765829 
L 95.436735 61.240095 
L 93.159184 60.577019 
L 90.881633 57.01027 
L 88.604082 56.735936 
L 86.326531 53.941863 
L 84.04898 52.133822 
L 81.771429 50.329769 
L 79.493878 46.857309 
L 77.216327 49.352132 
L 74.938776 47.946596 
L 72.661224 48.349532 
L 70.383673 47.932795 
L 68.106122 46.667145 
L 65.828571 50.193574 
L 63.55102 52.300047 
L 61.273469 55.065743 
L 58.995918 56.567326 
L 56.718367 56.953755 
L 54.440816 59.670297 
L 52.163265 61.33628 
L 49.885714 63.987098 
L 47.608163 64.988443 
L 45.330612 65.165797 
L 43.053061 66.834099 
L 40.77551 65.895986 
L 38.497959 65.823702 
L 36.220408 66.29455 
L 33.942857 65.731681 
L 31.665306 65.255056 
L 29.387755 65.253812 
L 27.110204 65.251931 
L 24.832653 65.251931 
L 22.555102 65.251931 
L 20.277551 65.251931 
L 18 65.251931 
z
" style="fill:#fc8d62;fill-opacity:0.2;"/>
   </g>
   <g id="matplotlib.axis_1">
    <g id="xtick_1">
     <g id="line2d_1">
      <defs>
       <path d="M 0 0 
L 0 3.5 
" id="mf302685855" style="stroke:#a9a9a9;stroke-width:2;"/>
      </defs>
      <g>
       <use style="fill:#a9a9a9;stroke:#a9a9a9;stroke-width:2;" x="29.387755" xlink:href="#mf302685855" y="65.251931"/>
      </g>
     </g>
    </g>
    <g id="xtick_2">
     <g id="line2d_2">
      <g>
       <use style="fill:#a9a9a9;stroke:#a9a9a9;stroke-width:2;" x="52.163265" xlink:href="#mf302685855" y="65.251931"/>
      </g>
     </g>
    </g>
    <g id="xtick_3">
     <g id="line2d_3">
      <g>
       <use style="fill:#a9a9a9;stroke:#a9a9a9;stroke-width:2;" x="74.938776" xlink:href="#mf302685855" y="65.251931"/>
      </g>
     </g>
    </g>
    <g id="xtick_4">
     <g id="line2d_4">
      <g>
       <use style="fill:#a9a9a9;stroke:#a9a9a9;stroke-width:2;" x="97.714286" xlink:href="#mf302685855" y="65.251931"/>
      </g>
     </g>
    </g>
    <g id="xtick_5">
     <g id="line2d_5">
      <g>
       <use style="fill:#a9a9a9;stroke:#a9a9a9;stroke-width:2;" x="120.489796" xlink:href="#mf302685855" y="65.251931"/>
      </g>
     </g>
    </g>
   </g>
   <g id="matplotlib.axis_2"/>
   <g id="line2d_6">
    <path clip-path="url(#p882716a917)" d="M 18 65.251931 
L 20.277551 65.251931 
L 22.555102 65.251931 
L 24.832653 65.251931 
L 27.110204 65.251931 
L 29.387755 65.251931 
L 31.665306 65.235481 
L 33.942857 65.049899 
L 36.220408 64.895001 
L 38.497959 64.602871 
L 40.77551 63.880367 
L 43.053061 62.404224 
L 45.330612 61.049029 
L 47.608163 57.907372 
L 49.885714 54.184738 
L 52.163265 52.777865 
L 54.440816 49.284424 
L 56.718367 46.985719 
L 58.995918 43.735838 
L 61.273469 39.347581 
L 63.55102 37.183714 
L 65.828571 36.28035 
L 68.106122 31.94914 
L 70.383673 31.972599 
L 72.661224 31.515556 
L 74.938776 40.544826 
L 77.216327 37.675501 
L 79.493878 36.831541 
L 81.771429 41.44774 
L 84.04898 43.700797 
L 86.326531 47.265397 
L 88.604082 51.675177 
L 90.881633 53.509358 
L 93.159184 54.378778 
L 95.436735 59.421943 
L 97.714286 59.315882 
L 99.991837 62.016698 
L 102.269388 62.688111 
L 104.546939 63.266615 
L 106.82449 63.497065 
L 109.102041 63.967355 
L 111.379592 64.626113 
L 113.657143 65.205013 
L 115.934694 65.281676 
L 118.212245 65.281469 
L 120.489796 65.251961 
L 122.767347 65.251933 
L 125.044898 65.251931 
L 127.322449 65.251931 
L 129.6 65.251931 
" style="fill:none;stroke:#fc8d62;stroke-linecap:square;stroke-width:2;"/>
   </g>
   <g id="line2d_7">
    <path clip-path="url(#p882716a917)" d="M 18 65.251931 
L 20.277551 65.251931 
L 22.555102 65.251931 
L 24.832653 65.251931 
L 27.110204 65.251931 
L 29.387755 65.251568 
L 31.665306 65.251213 
L 33.942857 65.043392 
L 36.220408 64.733145 
L 38.497959 63.950174 
L 40.77551 63.325433 
L 43.053061 62.723136 
L 45.330612 61.445762 
L 47.608163 60.156735 
L 49.885714 57.237282 
L 52.163265 54.616514 
L 54.440816 52.442357 
L 56.718367 50.092015 
L 58.995918 47.838386 
L 61.273469 46.955552 
L 63.55102 42.616318 
L 65.828571 39.875749 
L 68.106122 37.242622 
L 70.383673 38.814878 
L 72.661224 34.950582 
L 74.938776 40.754347 
L 77.216327 37.746224 
L 79.493878 37.285162 
L 81.771429 40.965226 
L 84.04898 41.243231 
L 86.326531 43.561748 
L 88.604082 47.689551 
L 90.881633 47.781475 
L 93.159184 52.473402 
L 95.436735 54.809996 
L 97.714286 56.956771 
L 99.991837 59.551751 
L 102.269388 59.86194 
L 104.546939 62.246357 
L 106.82449 63.55484 
L 109.102041 64.645892 
L 111.379592 65.033738 
L 113.657143 64.971847 
L 115.934694 65.330947 
L 118.212245 65.25838 
L 120.489796 65.254576 
L 122.767347 65.251931 
L 125.044898 65.251931 
L 127.322449 65.251931 
L 129.6 65.251931 
" style="fill:none;stroke:#fc8d62;stroke-dasharray:1.5,1.5;stroke-dashoffset:0;stroke-opacity:0.7;stroke-width:1.5;"/>
   </g>
   <g id="patch_3">
    <path d="M 74.938776 67.68 
L 74.938776 17.28 
" style="fill:none;stroke:#a9a9a9;stroke-linecap:square;stroke-linejoin:miter;stroke-width:2;"/>
   </g>
   <g id="patch_4">
    <path d="M 129.6 67.68 
L 129.6 17.28 
" style="fill:none;"/>
   </g>
   <g id="patch_5">
    <path d="M 18 65.251931 
L 129.6 65.251931 
" style="fill:none;stroke:#a9a9a9;stroke-linecap:square;stroke-linejoin:miter;stroke-width:2;"/>
   </g>
   <g id="patch_6">
    <path d="M 18 17.28 
L 129.6 17.28 
" style="fill:none;"/>
   </g>
   <g id="legend_1">
    <g id="line2d_8">
     <path d="M 87.67 26.448906 
L 101.67 26.448906 
" style="fill:none;stroke:#fc8d62;stroke-linecap:square;stroke-width:2;"/>
    </g>
    <g id="line2d_9"/>
    <g id="text_1">
     <!-- $\theta$ -->
     <g transform="translate(107.27 28.898906)scale(0.07 -0.07)">
      <defs>
       <path d="M 45.515625 34.671875 
L 14.453125 34.671875 
Q 12.359375 20.0625 14.5 13.875 
Q 17.1875 6.25 24.46875 6.25 
Q 31.78125 6.25 37.359375 13.921875 
Q 42.234375 20.65625 45.515625 34.671875 
z
M 47.015625 42.96875 
Q 48.34375 56.84375 46.625 61.71875 
Q 43.953125 69.4375 36.765625 69.4375 
Q 29.296875 69.4375 23.828125 61.8125 
Q 19.53125 55.671875 16.15625 42.96875 
z
M 38.1875 76.765625 
Q 49.90625 76.765625 54.59375 66.40625 
Q 59.28125 56.109375 55.71875 37.84375 
Q 52.203125 19.625 43.453125 9.28125 
Q 34.765625 -1.125 23.046875 -1.125 
Q 11.28125 -1.125 6.640625 9.28125 
Q 2 19.625 5.515625 37.84375 
Q 9.078125 56.109375 17.71875 66.40625 
Q 26.421875 76.765625 38.1875 76.765625 
z
" id="DejaVuSans-Oblique-952"/>
      </defs>
      <use transform="translate(0 0.234375)" xlink:href="#DejaVuSans-Oblique-952"/>
     </g>
    </g>
    <g id="line2d_10">
     <path d="M 87.67 36.723594 
L 101.67 36.723594 
" style="fill:none;stroke:#fc8d62;stroke-dasharray:1.5,1.5;stroke-dashoffset:0;stroke-opacity:0.7;stroke-width:1.5;"/>
    </g>
    <g id="line2d_11"/>
    <g id="text_2">
     <!-- No $\theta$ -->
     <g transform="translate(107.27 39.173594)scale(0.07 -0.07)">
      <defs>
       <path d="M 9.8125 72.90625 
L 23.09375 72.90625 
L 55.421875 11.921875 
L 55.421875 72.90625 
L 64.984375 72.90625 
L 64.984375 0 
L 51.703125 0 
L 19.390625 60.984375 
L 19.390625 0 
L 9.8125 0 
z
" id="DejaVuSans-78"/>
       <path d="M 30.609375 48.390625 
Q 23.390625 48.390625 19.1875 42.75 
Q 14.984375 37.109375 14.984375 27.296875 
Q 14.984375 17.484375 19.15625 11.84375 
Q 23.34375 6.203125 30.609375 6.203125 
Q 37.796875 6.203125 41.984375 11.859375 
Q 46.1875 17.53125 46.1875 27.296875 
Q 46.1875 37.015625 41.984375 42.703125 
Q 37.796875 48.390625 30.609375 48.390625 
z
M 30.609375 56 
Q 42.328125 56 49.015625 48.375 
Q 55.71875 40.765625 55.71875 27.296875 
Q 55.71875 13.875 49.015625 6.21875 
Q 42.328125 -1.421875 30.609375 -1.421875 
Q 18.84375 -1.421875 12.171875 6.21875 
Q 5.515625 13.875 5.515625 27.296875 
Q 5.515625 40.765625 12.171875 48.375 
Q 18.84375 56 30.609375 56 
z
" id="DejaVuSans-111"/>
       <path id="DejaVuSans-32"/>
      </defs>
      <use transform="translate(0 0.234375)" xlink:href="#DejaVuSans-78"/>
      <use transform="translate(74.804688 0.234375)" xlink:href="#DejaVuSans-111"/>
      <use transform="translate(135.986328 0.234375)" xlink:href="#DejaVuSans-32"/>
      <use transform="translate(167.773438 0.234375)" xlink:href="#DejaVuSans-Oblique-952"/>
     </g>
    </g>
   </g>
  </g>
  <g id="axes_2">
   <g id="patch_7">
    <path d="M 18 128.16 
L 129.6 128.16 
L 129.6 77.76 
L 18 77.76 
z
" style="fill:none;"/>
   </g>
   <g id="PolyCollection_3">
    <path clip-path="url(#pd2198eca10)" d="M 18 120.504779 
L 18 120.428251 
L 20.277551 120.645554 
L 22.555102 120.709924 
L 24.832653 120.628836 
L 27.110204 120.450709 
L 29.387755 120.252836 
L 31.665306 120.083861 
L 33.942857 119.802637 
L 36.220408 119.247106 
L 38.497959 118.289917 
L 40.77551 116.839833 
L 43.053061 114.846076 
L 45.330612 112.300459 
L 47.608163 109.234842 
L 49.885714 105.717271 
L 52.163265 101.8484 
L 54.440816 97.757912 
L 56.718367 93.600281 
L 58.995918 89.550098 
L 61.273469 85.796778 
L 63.55102 82.539112 
L 65.828571 79.979933 
L 68.106122 78.321233 
L 70.383673 77.76 
L 72.661224 78.484901 
L 74.938776 80.664193 
L 77.216327 84.387544 
L 79.493878 89.255943 
L 81.771429 94.823513 
L 84.04898 100.673842 
L 86.326531 106.443616 
L 88.604082 111.831791 
L 90.881633 116.604429 
L 93.159184 120.595978 
L 95.436735 123.70852 
L 97.714286 125.909508 
L 99.991837 127.226432 
L 102.269388 127.736229 
L 104.546939 127.552076 
L 106.82449 126.812198 
L 109.102041 125.670797 
L 111.379592 124.290155 
L 113.657143 122.833662 
L 115.934694 121.460554 
L 118.212245 120.323984 
L 120.489796 119.574343 
L 122.767347 119.309391 
L 125.044898 119.411762 
L 127.322449 119.72013 
L 129.6 120.095158 
L 129.6 120.19871 
L 129.6 120.19871 
L 127.322449 119.849384 
L 125.044898 119.560601 
L 122.767347 119.469307 
L 120.489796 119.738986 
L 118.212245 120.498214 
L 115.934694 121.662585 
L 113.657143 123.080959 
L 111.379592 124.589653 
L 109.102041 126.018972 
L 106.82449 127.198523 
L 104.546939 127.963061 
L 102.269388 128.16 
L 99.991837 127.658591 
L 97.714286 126.359482 
L 95.436735 124.202439 
L 93.159184 121.171023 
L 90.881633 117.297986 
L 88.604082 112.67333 
L 86.326531 107.451667 
L 84.04898 101.855935 
L 81.771429 96.176708 
L 79.493878 90.7674 
L 77.216327 86.035123 
L 74.938776 82.417195 
L 72.661224 80.306091 
L 70.383673 79.608326 
L 68.106122 80.154787 
L 65.828571 81.757944 
L 63.55102 84.223813 
L 61.273469 87.35512 
L 58.995918 90.955297 
L 56.718367 94.833091 
L 54.440816 98.807567 
L 52.163265 102.713178 
L 49.885714 106.404496 
L 47.608163 109.760454 
L 45.330612 112.687889 
L 43.053061 115.124926 
L 40.77551 117.04337 
L 38.497959 118.449517 
L 36.220408 119.384634 
L 33.942857 119.928056 
L 31.665306 120.199989 
L 29.387755 120.358321 
L 27.110204 120.5406 
L 24.832653 120.699498 
L 22.555102 120.765158 
L 20.277551 120.702099 
L 18 120.504779 
z
" style="fill:#66c2a5;fill-opacity:0.2;"/>
   </g>
   <g id="matplotlib.axis_3">
    <g id="xtick_6">
     <g id="line2d_12">
      <g>
       <use style="fill:#a9a9a9;stroke:#a9a9a9;stroke-width:2;" x="29.387755" xlink:href="#mf302685855" y="122.174095"/>
      </g>
     </g>
    </g>
    <g id="xtick_7">
     <g id="line2d_13">
      <g>
       <use style="fill:#a9a9a9;stroke:#a9a9a9;stroke-width:2;" x="52.163265" xlink:href="#mf302685855" y="122.174095"/>
      </g>
     </g>
    </g>
    <g id="xtick_8">
     <g id="line2d_14">
      <g>
       <use style="fill:#a9a9a9;stroke:#a9a9a9;stroke-width:2;" x="74.938776" xlink:href="#mf302685855" y="122.174095"/>
      </g>
     </g>
    </g>
    <g id="xtick_9">
     <g id="line2d_15">
      <g>
       <use style="fill:#a9a9a9;stroke:#a9a9a9;stroke-width:2;" x="97.714286" xlink:href="#mf302685855" y="122.174095"/>
      </g>
     </g>
    </g>
    <g id="xtick_10">
     <g id="line2d_16">
      <g>
       <use style="fill:#a9a9a9;stroke:#a9a9a9;stroke-width:2;" x="120.489796" xlink:href="#mf302685855" y="122.174095"/>
      </g>
     </g>
    </g>
   </g>
   <g id="matplotlib.axis_4"/>
   <g id="line2d_17">
    <path clip-path="url(#pd2198eca10)" d="M 18 120.466515 
L 20.277551 120.673826 
L 22.555102 120.737541 
L 24.832653 120.664167 
L 27.110204 120.495654 
L 29.387755 120.305578 
L 31.665306 120.141925 
L 33.942857 119.865346 
L 36.220408 119.31587 
L 38.497959 118.369717 
L 40.77551 116.941602 
L 43.053061 114.985501 
L 45.330612 112.494174 
L 47.608163 109.497648 
L 49.885714 106.060883 
L 52.163265 102.280789 
L 54.440816 98.282739 
L 56.718367 94.216686 
L 58.995918 90.252697 
L 61.273469 86.575949 
L 63.55102 83.381462 
L 65.828571 80.868938 
L 68.106122 79.23801 
L 70.383673 78.684163 
L 72.661224 79.395496 
L 74.938776 81.540694 
L 77.216327 85.211334 
L 79.493878 90.011671 
L 81.771429 95.50011 
L 84.04898 101.264888 
L 86.326531 106.947641 
L 88.604082 112.252561 
L 90.881633 116.951207 
L 93.159184 120.883501 
L 95.436735 123.95548 
L 97.714286 126.134495 
L 99.991837 127.442511 
L 102.269388 127.948114 
L 104.546939 127.757569 
L 106.82449 127.005361 
L 109.102041 125.844885 
L 111.379592 124.439904 
L 113.657143 122.95731 
L 115.934694 121.561569 
L 118.212245 120.411099 
L 120.489796 119.656665 
L 122.767347 119.389349 
L 125.044898 119.486181 
L 127.322449 119.784757 
L 129.6 120.146934 
" style="fill:none;stroke:#66c2a5;stroke-linecap:square;stroke-width:2;"/>
   </g>
   <g id="patch_8">
    <path d="M 74.938776 128.16 
L 74.938776 77.76 
" style="fill:none;stroke:#a9a9a9;stroke-linecap:square;stroke-linejoin:miter;stroke-width:2;"/>
   </g>
   <g id="patch_9">
    <path d="M 129.6 128.16 
L 129.6 77.76 
" style="fill:none;"/>
   </g>
   <g id="patch_10">
    <path d="M 18 122.174095 
L 129.6 122.174095 
" style="fill:none;stroke:#a9a9a9;stroke-linecap:square;stroke-linejoin:miter;stroke-width:2;"/>
   </g>
   <g id="patch_11">
    <path d="M 18 77.76 
L 129.6 77.76 
" style="fill:none;"/>
   </g>
  </g>
 </g>
 <defs>
  <clipPath id="p882716a917">
   <rect height="50.4" width="111.6" x="18" y="17.28"/>
  </clipPath>
  <clipPath id="pd2198eca10">
   <rect height="50.4" width="111.6" x="18" y="77.76"/>
  </clipPath>
 </defs>
</svg>
