<?xml version="1.0" encoding="utf-8" standalone="no"?>
<!DOCTYPE svg PUBLIC "-//W3C//DTD SVG 1.1//EN"
  "http://www.w3.org/Graphics/SVG/1.1/DTD/svg11.dtd">
<!-- Created with matplotlib (https://matplotlib.org/) -->
<svg height="144pt" version="1.1" viewBox="0 0 144 144" width="144pt" xmlns="http://www.w3.org/2000/svg" xmlns:xlink="http://www.w3.org/1999/xlink">
 <metadata>
  <rdf:RDF xmlns:cc="http://creativecommons.org/ns#" xmlns:dc="http://purl.org/dc/elements/1.1/" xmlns:rdf="http://www.w3.org/1999/02/22-rdf-syntax-ns#">
   <cc:Work>
    <dc:type rdf:resource="http://purl.org/dc/dcmitype/StillImage"/>
    <dc:date>2021-10-11T19:05:20.914010</dc:date>
    <dc:format>image/svg+xml</dc:format>
    <dc:creator>
     <cc:Agent>
      <dc:title>Matplotlib v3.3.2, https://matplotlib.org/</dc:title>
     </cc:Agent>
    </dc:creator>
   </cc:Work>
  </rdf:RDF>
 </metadata>
 <defs>
  <style type="text/css">*{stroke-linecap:butt;stroke-linejoin:round;}</style>
 </defs>
 <g id="figure_1">
  <g id="patch_1">
   <path d="M 0 144 
L 144 144 
L 144 0 
L 0 0 
z
" style="fill:none;"/>
  </g>
  <g id="axes_1">
   <g id="patch_2">
    <path d="M 18 67.68 
L 129.6 67.68 
L 129.6 17.28 
L 18 17.28 
z
" style="fill:none;"/>
   </g>
   <g id="PolyCollection_1">
    <path clip-path="url(#pb427aa81eb)" d="M 18 56.042181 
L 18 56.042181 
L 20.277551 56.042181 
L 22.555102 56.042181 
L 24.832653 56.042181 
L 27.110204 56.042181 
L 29.387755 56.042172 
L 31.665306 55.957185 
L 33.942857 55.885509 
L 36.220408 55.679148 
L 38.497959 55.31068 
L 40.77551 54.525342 
L 43.053061 53.196186 
L 45.330612 51.461817 
L 47.608163 48.391823 
L 49.885714 45.586536 
L 52.163265 40.849205 
L 54.440816 36.286046 
L 56.718367 30.570761 
L 58.995918 26.663595 
L 61.273469 21.437599 
L 63.55102 19.08387 
L 65.828571 17.915259 
L 68.106122 17.28 
L 70.383673 18.998851 
L 72.661224 23.171293 
L 74.938776 45.493318 
L 77.216327 36.883301 
L 79.493878 42.565751 
L 81.771429 50.706278 
L 84.04898 54.242641 
L 86.326531 59.272536 
L 88.604082 61.570305 
L 90.881633 62.607596 
L 93.159184 63.352936 
L 95.436735 61.992286 
L 97.714286 60.693277 
L 99.991837 59.433836 
L 102.269388 58.116413 
L 104.546939 57.314525 
L 106.82449 56.193187 
L 109.102041 55.922028 
L 111.379592 55.648153 
L 113.657143 55.805035 
L 115.934694 55.905374 
L 118.212245 55.989521 
L 120.489796 56.04203 
L 122.767347 56.042181 
L 125.044898 56.042181 
L 127.322449 56.042181 
L 129.6 56.042181 
L 129.6 56.042181 
L 129.6 56.042181 
L 127.322449 56.042181 
L 125.044898 56.042181 
L 122.767347 56.042181 
L 120.489796 56.042456 
L 118.212245 56.121864 
L 115.934694 56.197575 
L 113.657143 56.34842 
L 111.379592 56.558719 
L 109.102041 57.141302 
L 106.82449 57.925412 
L 104.546939 59.16953 
L 102.269388 60.667681 
L 99.991837 62.04971 
L 97.714286 64.314722 
L 95.436735 65.893699 
L 93.159184 67.68 
L 90.881633 66.967756 
L 88.604082 66.96272 
L 86.326531 64.728272 
L 84.04898 60.625349 
L 81.771429 57.062978 
L 79.493878 50.901944 
L 77.216327 44.570914 
L 74.938776 47.750351 
L 72.661224 31.531874 
L 70.383673 27.185297 
L 68.106122 23.589727 
L 65.828571 24.175896 
L 63.55102 24.664848 
L 61.273469 28.119566 
L 58.995918 31.248333 
L 56.718367 35.438804 
L 54.440816 40.431747 
L 52.163265 44.515544 
L 49.885714 48.292026 
L 47.608163 51.209556 
L 45.330612 53.395233 
L 43.053061 55.02415 
L 40.77551 55.76492 
L 38.497959 56.265217 
L 36.220408 56.201651 
L 33.942857 56.143333 
L 31.665306 56.091514 
L 29.387755 56.042187 
L 27.110204 56.042181 
L 24.832653 56.042181 
L 22.555102 56.042181 
L 20.277551 56.042181 
L 18 56.042181 
z
" style="fill:#fc8d62;fill-opacity:0.2;"/>
   </g>
   <g id="PolyCollection_2">
    <path clip-path="url(#pb427aa81eb)" d="M 18 56.042181 
L 18 56.042181 
L 20.277551 56.042181 
L 22.555102 56.042181 
L 24.832653 56.042181 
L 27.110204 56.042181 
L 29.387755 56.042093 
L 31.665306 55.961578 
L 33.942857 55.708887 
L 36.220408 55.481808 
L 38.497959 54.742601 
L 40.77551 54.323901 
L 43.053061 53.560998 
L 45.330612 52.789486 
L 47.608163 51.814072 
L 49.885714 50.445392 
L 52.163265 48.78308 
L 54.440816 47.341431 
L 56.718367 45.580749 
L 58.995918 44.579991 
L 61.273469 43.95522 
L 63.55102 41.024595 
L 65.828571 40.629332 
L 68.106122 40.618507 
L 70.383673 40.371781 
L 72.661224 38.992654 
L 74.938776 50.186312 
L 77.216327 39.732217 
L 79.493878 39.769836 
L 81.771429 41.841257 
L 84.04898 42.37496 
L 86.326531 43.663949 
L 88.604082 44.842629 
L 90.881633 45.843558 
L 93.159184 48.441569 
L 95.436735 49.597533 
L 97.714286 50.231698 
L 99.991837 52.081944 
L 102.269388 52.963284 
L 104.546939 53.771886 
L 106.82449 54.3748 
L 109.102041 55.125505 
L 111.379592 55.52188 
L 113.657143 55.733882 
L 115.934694 55.840597 
L 118.212245 55.998728 
L 120.489796 56.04171 
L 122.767347 56.042181 
L 125.044898 56.042181 
L 127.322449 56.042181 
L 129.6 56.042181 
L 129.6 56.042181 
L 129.6 56.042181 
L 127.322449 56.042181 
L 125.044898 56.042181 
L 122.767347 56.042181 
L 120.489796 56.042874 
L 118.212245 56.107673 
L 115.934694 56.271648 
L 113.657143 56.323981 
L 111.379592 56.589402 
L 109.102041 56.408224 
L 106.82449 56.193438 
L 104.546939 55.72886 
L 102.269388 55.496732 
L 99.991837 54.769801 
L 97.714286 54.332725 
L 95.436735 53.574632 
L 93.159184 53.209984 
L 90.881633 51.638213 
L 88.604082 49.682082 
L 86.326531 49.863085 
L 84.04898 48.500041 
L 81.771429 46.880795 
L 79.493878 46.037949 
L 77.216327 45.738302 
L 74.938776 52.175864 
L 72.661224 45.261259 
L 70.383673 45.702312 
L 68.106122 45.838342 
L 65.828571 46.410089 
L 63.55102 47.546724 
L 61.273469 48.888116 
L 58.995918 49.923879 
L 56.718367 50.237093 
L 54.440816 51.18008 
L 52.163265 53.004509 
L 49.885714 53.449612 
L 47.608163 54.06711 
L 45.330612 54.893338 
L 43.053061 55.328541 
L 40.77551 55.692366 
L 38.497959 55.85443 
L 36.220408 56.108095 
L 33.942857 56.154056 
L 31.665306 56.087474 
L 29.387755 56.042246 
L 27.110204 56.042181 
L 24.832653 56.042181 
L 22.555102 56.042181 
L 20.277551 56.042181 
L 18 56.042181 
z
" style="fill:#fc8d62;fill-opacity:0.2;"/>
   </g>
   <g id="matplotlib.axis_1">
    <g id="xtick_1">
     <g id="line2d_1">
      <defs>
       <path d="M 0 0 
L 0 3.5 
" id="mea0c5a079e" style="stroke:#a9a9a9;stroke-width:2;"/>
      </defs>
      <g>
       <use style="fill:#a9a9a9;stroke:#a9a9a9;stroke-width:2;" x="29.387755" xlink:href="#mea0c5a079e" y="56.042181"/>
      </g>
     </g>
    </g>
    <g id="xtick_2">
     <g id="line2d_2">
      <g>
       <use style="fill:#a9a9a9;stroke:#a9a9a9;stroke-width:2;" x="52.163265" xlink:href="#mea0c5a079e" y="56.042181"/>
      </g>
     </g>
    </g>
    <g id="xtick_3">
     <g id="line2d_3">
      <g>
       <use style="fill:#a9a9a9;stroke:#a9a9a9;stroke-width:2;" x="74.938776" xlink:href="#mea0c5a079e" y="56.042181"/>
      </g>
     </g>
    </g>
    <g id="xtick_4">
     <g id="line2d_4">
      <g>
       <use style="fill:#a9a9a9;stroke:#a9a9a9;stroke-width:2;" x="97.714286" xlink:href="#mea0c5a079e" y="56.042181"/>
      </g>
     </g>
    </g>
    <g id="xtick_5">
     <g id="line2d_5">
      <g>
       <use style="fill:#a9a9a9;stroke:#a9a9a9;stroke-width:2;" x="120.489796" xlink:href="#mea0c5a079e" y="56.042181"/>
      </g>
     </g>
    </g>
   </g>
   <g id="matplotlib.axis_2"/>
   <g id="line2d_6">
    <path clip-path="url(#pb427aa81eb)" d="M 18 56.042181 
L 20.277551 56.042181 
L 22.555102 56.042181 
L 24.832653 56.042181 
L 27.110204 56.042181 
L 29.387755 56.042179 
L 31.665306 56.024349 
L 33.942857 56.014421 
L 36.220408 55.940399 
L 38.497959 55.787949 
L 40.77551 55.145131 
L 43.053061 54.110168 
L 45.330612 52.428525 
L 47.608163 49.800689 
L 49.885714 46.939281 
L 52.163265 42.682374 
L 54.440816 38.358896 
L 56.718367 33.004783 
L 58.995918 28.955964 
L 61.273469 24.778583 
L 63.55102 21.874359 
L 65.828571 21.045578 
L 68.106122 20.434864 
L 70.383673 23.092074 
L 72.661224 27.351584 
L 74.938776 46.621834 
L 77.216327 40.727108 
L 79.493878 46.733848 
L 81.771429 53.884628 
L 84.04898 57.433995 
L 86.326531 62.000404 
L 88.604082 64.266513 
L 90.881633 64.787676 
L 93.159184 65.516468 
L 95.436735 63.942992 
L 97.714286 62.504 
L 99.991837 60.741773 
L 102.269388 59.392047 
L 104.546939 58.242028 
L 106.82449 57.059299 
L 109.102041 56.531665 
L 111.379592 56.103436 
L 113.657143 56.076728 
L 115.934694 56.051475 
L 118.212245 56.055693 
L 120.489796 56.042243 
L 122.767347 56.042181 
L 125.044898 56.042181 
L 127.322449 56.042181 
L 129.6 56.042181 
" style="fill:none;stroke:#fc8d62;stroke-linecap:square;stroke-width:2;"/>
   </g>
   <g id="line2d_7">
    <path clip-path="url(#pb427aa81eb)" d="M 18 56.042181 
L 20.277551 56.042181 
L 22.555102 56.042181 
L 24.832653 56.042181 
L 27.110204 56.042181 
L 29.387755 56.04217 
L 31.665306 56.024526 
L 33.942857 55.931471 
L 36.220408 55.794952 
L 38.497959 55.298516 
L 40.77551 55.008133 
L 43.053061 54.444769 
L 45.330612 53.841412 
L 47.608163 52.940591 
L 49.885714 51.947502 
L 52.163265 50.893794 
L 54.440816 49.260755 
L 56.718367 47.908921 
L 58.995918 47.251935 
L 61.273469 46.421668 
L 63.55102 44.285659 
L 65.828571 43.519711 
L 68.106122 43.228425 
L 70.383673 43.037046 
L 72.661224 42.126956 
L 74.938776 51.181088 
L 77.216327 42.735259 
L 79.493878 42.903892 
L 81.771429 44.361026 
L 84.04898 45.437501 
L 86.326531 46.763517 
L 88.604082 47.262355 
L 90.881633 48.740886 
L 93.159184 50.825777 
L 95.436735 51.586083 
L 97.714286 52.282212 
L 99.991837 53.425873 
L 102.269388 54.230008 
L 104.546939 54.750373 
L 106.82449 55.284119 
L 109.102041 55.766864 
L 111.379592 56.055641 
L 113.657143 56.028932 
L 115.934694 56.056123 
L 118.212245 56.0532 
L 120.489796 56.042292 
L 122.767347 56.042181 
L 125.044898 56.042181 
L 127.322449 56.042181 
L 129.6 56.042181 
" style="fill:none;stroke:#fc8d62;stroke-dasharray:1.5,1.5;stroke-dashoffset:0;stroke-opacity:0.7;stroke-width:1.5;"/>
   </g>
   <g id="patch_3">
    <path d="M 74.938776 67.68 
L 74.938776 17.28 
" style="fill:none;stroke:#a9a9a9;stroke-linecap:square;stroke-linejoin:miter;stroke-width:2;"/>
   </g>
   <g id="patch_4">
    <path d="M 129.6 67.68 
L 129.6 17.28 
" style="fill:none;"/>
   </g>
   <g id="patch_5">
    <path d="M 18 56.042181 
L 129.6 56.042181 
" style="fill:none;stroke:#a9a9a9;stroke-linecap:square;stroke-linejoin:miter;stroke-width:2;"/>
   </g>
   <g id="patch_6">
    <path d="M 18 17.28 
L 129.6 17.28 
" style="fill:none;"/>
   </g>
   <g id="legend_1">
    <g id="line2d_8">
     <path d="M 87.67 26.448906 
L 101.67 26.448906 
" style="fill:none;stroke:#fc8d62;stroke-linecap:square;stroke-width:2;"/>
    </g>
    <g id="line2d_9"/>
    <g id="text_1">
     <!-- $\theta$ -->
     <g transform="translate(107.27 28.898906)scale(0.07 -0.07)">
      <defs>
       <path d="M 45.515625 34.671875 
L 14.453125 34.671875 
Q 12.359375 20.0625 14.5 13.875 
Q 17.1875 6.25 24.46875 6.25 
Q 31.78125 6.25 37.359375 13.921875 
Q 42.234375 20.65625 45.515625 34.671875 
z
M 47.015625 42.96875 
Q 48.34375 56.84375 46.625 61.71875 
Q 43.953125 69.4375 36.765625 69.4375 
Q 29.296875 69.4375 23.828125 61.8125 
Q 19.53125 55.671875 16.15625 42.96875 
z
M 38.1875 76.765625 
Q 49.90625 76.765625 54.59375 66.40625 
Q 59.28125 56.109375 55.71875 37.84375 
Q 52.203125 19.625 43.453125 9.28125 
Q 34.765625 -1.125 23.046875 -1.125 
Q 11.28125 -1.125 6.640625 9.28125 
Q 2 19.625 5.515625 37.84375 
Q 9.078125 56.109375 17.71875 66.40625 
Q 26.421875 76.765625 38.1875 76.765625 
z
" id="DejaVuSans-Oblique-952"/>
      </defs>
      <use transform="translate(0 0.234375)" xlink:href="#DejaVuSans-Oblique-952"/>
     </g>
    </g>
    <g id="line2d_10">
     <path d="M 87.67 36.723594 
L 101.67 36.723594 
" style="fill:none;stroke:#fc8d62;stroke-dasharray:1.5,1.5;stroke-dashoffset:0;stroke-opacity:0.7;stroke-width:1.5;"/>
    </g>
    <g id="line2d_11"/>
    <g id="text_2">
     <!-- No $\theta$ -->
     <g transform="translate(107.27 39.173594)scale(0.07 -0.07)">
      <defs>
       <path d="M 9.8125 72.90625 
L 23.09375 72.90625 
L 55.421875 11.921875 
L 55.421875 72.90625 
L 64.984375 72.90625 
L 64.984375 0 
L 51.703125 0 
L 19.390625 60.984375 
L 19.390625 0 
L 9.8125 0 
z
" id="DejaVuSans-78"/>
       <path d="M 30.609375 48.390625 
Q 23.390625 48.390625 19.1875 42.75 
Q 14.984375 37.109375 14.984375 27.296875 
Q 14.984375 17.484375 19.15625 11.84375 
Q 23.34375 6.203125 30.609375 6.203125 
Q 37.796875 6.203125 41.984375 11.859375 
Q 46.1875 17.53125 46.1875 27.296875 
Q 46.1875 37.015625 41.984375 42.703125 
Q 37.796875 48.390625 30.609375 48.390625 
z
M 30.609375 56 
Q 42.328125 56 49.015625 48.375 
Q 55.71875 40.765625 55.71875 27.296875 
Q 55.71875 13.875 49.015625 6.21875 
Q 42.328125 -1.421875 30.609375 -1.421875 
Q 18.84375 -1.421875 12.171875 6.21875 
Q 5.515625 13.875 5.515625 27.296875 
Q 5.515625 40.765625 12.171875 48.375 
Q 18.84375 56 30.609375 56 
z
" id="DejaVuSans-111"/>
       <path id="DejaVuSans-32"/>
      </defs>
      <use transform="translate(0 0.234375)" xlink:href="#DejaVuSans-78"/>
      <use transform="translate(74.804688 0.234375)" xlink:href="#DejaVuSans-111"/>
      <use transform="translate(135.986328 0.234375)" xlink:href="#DejaVuSans-32"/>
      <use transform="translate(167.773438 0.234375)" xlink:href="#DejaVuSans-Oblique-952"/>
     </g>
    </g>
   </g>
  </g>
  <g id="axes_2">
   <g id="patch_7">
    <path d="M 18 128.16 
L 129.6 128.16 
L 129.6 77.76 
L 18 77.76 
z
" style="fill:none;"/>
   </g>
   <g id="PolyCollection_3">
    <path clip-path="url(#pf0a7c9c042)" d="M 18 120.512681 
L 18 120.431569 
L 20.277551 120.648632 
L 22.555102 120.709872 
L 24.832653 120.623155 
L 27.110204 120.437504 
L 29.387755 120.23208 
L 31.665306 120.057156 
L 33.942857 119.771777 
L 36.220408 119.213665 
L 38.497959 118.255263 
L 40.77551 116.804765 
L 43.053061 114.810975 
L 45.330612 112.265763 
L 47.608163 109.201032 
L 49.885714 105.684856 
L 52.163265 101.817941 
L 54.440816 97.729853 
L 56.718367 93.574929 
L 58.995918 89.527653 
L 61.273469 85.77742 
L 63.55102 82.523166 
L 65.828571 79.967988 
L 68.106122 78.314357 
L 70.383673 77.76 
L 72.661224 78.494667 
L 74.938776 80.687602 
L 77.216327 84.429992 
L 79.493878 89.318662 
L 81.771429 94.90448 
L 84.04898 100.768269 
L 86.326531 106.544985 
L 88.604082 111.932885 
L 90.881633 116.698324 
L 93.159184 120.676752 
L 95.436735 123.772067 
L 97.714286 125.953837 
L 99.991837 127.251189 
L 102.269388 127.742056 
L 104.546939 127.54045 
L 106.82449 126.78538 
L 109.102041 125.631781 
L 111.379592 124.242406 
L 113.657143 122.780912 
L 115.934694 121.406649 
L 118.212245 120.272941 
L 120.489796 119.530663 
L 122.767347 119.27693 
L 125.044898 119.391874 
L 127.322449 119.711478 
L 129.6 120.094576 
L 129.6 120.201797 
L 129.6 120.201797 
L 127.322449 119.843744 
L 125.044898 119.543369 
L 122.767347 119.439326 
L 120.489796 119.697303 
L 118.212245 120.447043 
L 115.934694 121.60562 
L 113.657143 123.022508 
L 111.379592 124.534346 
L 109.102041 125.971475 
L 106.82449 127.16328 
L 104.546939 127.943953 
L 102.269388 128.16 
L 99.991837 127.679226 
L 97.714286 126.400391 
L 95.436735 124.261202 
L 93.159184 121.243699 
L 90.881633 117.379766 
L 88.604082 112.758759 
L 86.326531 107.534714 
L 84.04898 101.930556 
L 81.771429 96.237445 
L 79.493878 90.810206 
L 77.216327 86.058317 
L 74.938776 82.421883 
L 72.661224 80.296367 
L 70.383673 79.587715 
L 68.106122 80.126104 
L 65.828571 81.723156 
L 63.55102 84.184332 
L 61.273469 87.312033 
L 58.995918 90.909513 
L 56.718367 94.785479 
L 54.440816 98.758939 
L 52.163265 102.664284 
L 49.885714 106.356009 
L 47.608163 109.712954 
L 45.330612 112.641973 
L 43.053061 115.081125 
L 40.77551 117.002158 
L 38.497959 118.411405 
L 36.220408 119.349863 
L 33.942857 119.896748 
L 31.665306 120.172912 
L 29.387755 120.337355 
L 27.110204 120.527371 
L 24.832653 120.695102 
L 22.555102 120.76872 
L 20.277551 120.710306 
L 18 120.512681 
z
" style="fill:#66c2a5;fill-opacity:0.2;"/>
   </g>
   <g id="matplotlib.axis_3">
    <g id="xtick_6">
     <g id="line2d_12">
      <g>
       <use style="fill:#a9a9a9;stroke:#a9a9a9;stroke-width:2;" x="29.387755" xlink:href="#mea0c5a079e" y="122.164024"/>
      </g>
     </g>
    </g>
    <g id="xtick_7">
     <g id="line2d_13">
      <g>
       <use style="fill:#a9a9a9;stroke:#a9a9a9;stroke-width:2;" x="52.163265" xlink:href="#mea0c5a079e" y="122.164024"/>
      </g>
     </g>
    </g>
    <g id="xtick_8">
     <g id="line2d_14">
      <g>
       <use style="fill:#a9a9a9;stroke:#a9a9a9;stroke-width:2;" x="74.938776" xlink:href="#mea0c5a079e" y="122.164024"/>
      </g>
     </g>
    </g>
    <g id="xtick_9">
     <g id="line2d_15">
      <g>
       <use style="fill:#a9a9a9;stroke:#a9a9a9;stroke-width:2;" x="97.714286" xlink:href="#mea0c5a079e" y="122.164024"/>
      </g>
     </g>
    </g>
    <g id="xtick_10">
     <g id="line2d_16">
      <g>
       <use style="fill:#a9a9a9;stroke:#a9a9a9;stroke-width:2;" x="120.489796" xlink:href="#mea0c5a079e" y="122.164024"/>
      </g>
     </g>
    </g>
   </g>
   <g id="matplotlib.axis_4"/>
   <g id="line2d_17">
    <path clip-path="url(#pf0a7c9c042)" d="M 18 120.472125 
L 20.277551 120.679469 
L 22.555102 120.739296 
L 24.832653 120.659129 
L 27.110204 120.482438 
L 29.387755 120.284717 
L 31.665306 120.115034 
L 33.942857 119.834263 
L 36.220408 119.281764 
L 38.497959 118.333334 
L 40.77551 116.903462 
L 43.053061 114.94605 
L 45.330612 112.453868 
L 47.608163 109.456993 
L 49.885714 106.020432 
L 52.163265 102.241112 
L 54.440816 98.244396 
L 56.718367 94.180204 
L 58.995918 90.218583 
L 61.273469 86.544726 
L 63.55102 83.353749 
L 65.828571 80.845572 
L 68.106122 79.22023 
L 70.383673 78.673857 
L 72.661224 79.395517 
L 74.938776 81.554742 
L 77.216327 85.244154 
L 79.493878 90.064434 
L 81.771429 95.570962 
L 84.04898 101.349412 
L 86.326531 107.039849 
L 88.604082 112.345822 
L 90.881633 117.039045 
L 93.159184 120.960225 
L 95.436735 124.016635 
L 97.714286 126.177114 
L 99.991837 127.465208 
L 102.269388 127.951028 
L 104.546939 127.742202 
L 106.82449 126.97433 
L 109.102041 125.801628 
L 111.379592 124.388376 
L 113.657143 122.90171 
L 115.934694 121.506134 
L 118.212245 120.359992 
L 120.489796 119.613983 
L 122.767347 119.358128 
L 125.044898 119.467621 
L 127.322449 119.777611 
L 129.6 120.148186 
" style="fill:none;stroke:#66c2a5;stroke-linecap:square;stroke-width:2;"/>
   </g>
   <g id="patch_8">
    <path d="M 74.938776 128.16 
L 74.938776 77.76 
" style="fill:none;stroke:#a9a9a9;stroke-linecap:square;stroke-linejoin:miter;stroke-width:2;"/>
   </g>
   <g id="patch_9">
    <path d="M 129.6 128.16 
L 129.6 77.76 
" style="fill:none;"/>
   </g>
   <g id="patch_10">
    <path d="M 18 122.164024 
L 129.6 122.164024 
" style="fill:none;stroke:#a9a9a9;stroke-linecap:square;stroke-linejoin:miter;stroke-width:2;"/>
   </g>
   <g id="patch_11">
    <path d="M 18 77.76 
L 129.6 77.76 
" style="fill:none;"/>
   </g>
  </g>
 </g>
 <defs>
  <clipPath id="pb427aa81eb">
   <rect height="50.4" width="111.6" x="18" y="17.28"/>
  </clipPath>
  <clipPath id="pf0a7c9c042">
   <rect height="50.4" width="111.6" x="18" y="77.76"/>
  </clipPath>
 </defs>
</svg>
