<?xml version="1.0" encoding="utf-8" standalone="no"?>
<!DOCTYPE svg PUBLIC "-//W3C//DTD SVG 1.1//EN"
  "http://www.w3.org/Graphics/SVG/1.1/DTD/svg11.dtd">
<!-- Created with matplotlib (https://matplotlib.org/) -->
<svg height="144pt" version="1.1" viewBox="0 0 144 144" width="144pt" xmlns="http://www.w3.org/2000/svg" xmlns:xlink="http://www.w3.org/1999/xlink">
 <metadata>
  <rdf:RDF xmlns:cc="http://creativecommons.org/ns#" xmlns:dc="http://purl.org/dc/elements/1.1/" xmlns:rdf="http://www.w3.org/1999/02/22-rdf-syntax-ns#">
   <cc:Work>
    <dc:type rdf:resource="http://purl.org/dc/dcmitype/StillImage"/>
    <dc:date>2021-10-13T00:18:46.565371</dc:date>
    <dc:format>image/svg+xml</dc:format>
    <dc:creator>
     <cc:Agent>
      <dc:title>Matplotlib v3.3.2, https://matplotlib.org/</dc:title>
     </cc:Agent>
    </dc:creator>
   </cc:Work>
  </rdf:RDF>
 </metadata>
 <defs>
  <style type="text/css">*{stroke-linecap:butt;stroke-linejoin:round;}</style>
 </defs>
 <g id="figure_1">
  <g id="patch_1">
   <path d="M 0 144 
L 144 144 
L 144 0 
L 0 0 
z
" style="fill:none;"/>
  </g>
  <g id="axes_1">
   <g id="patch_2">
    <path d="M 18 67.68 
L 129.6 67.68 
L 129.6 17.28 
L 18 17.28 
z
" style="fill:none;"/>
   </g>
   <g id="PolyCollection_1">
    <path clip-path="url(#p53918fb88a)" d="M 18 60.582644 
L 18 60.582644 
L 20.277551 60.582644 
L 22.555102 60.582644 
L 24.832653 60.582644 
L 27.110204 60.582644 
L 29.387755 60.582591 
L 31.665306 60.441112 
L 33.942857 60.069173 
L 36.220408 59.39122 
L 38.497959 58.445288 
L 40.77551 57.090425 
L 43.053061 54.427246 
L 45.330612 51.769819 
L 47.608163 47.910931 
L 49.885714 43.883713 
L 52.163265 38.197155 
L 54.440816 33.754873 
L 56.718367 29.088562 
L 58.995918 23.743264 
L 61.273469 21.483115 
L 63.55102 18.873363 
L 65.828571 17.28 
L 68.106122 18.321101 
L 70.383673 21.163144 
L 72.661224 22.368481 
L 74.938776 37.422591 
L 77.216327 33.823896 
L 79.493878 38.085373 
L 81.771429 43.880794 
L 84.04898 47.572709 
L 86.326531 53.3727 
L 88.604082 56.439931 
L 90.881633 58.377232 
L 93.159184 58.084195 
L 95.436735 59.03656 
L 97.714286 60.127803 
L 99.991837 59.412189 
L 102.269388 59.495418 
L 104.546939 59.404569 
L 106.82449 59.320737 
L 109.102041 58.970651 
L 111.379592 59.969786 
L 113.657143 60.235764 
L 115.934694 60.278363 
L 118.212245 60.509081 
L 120.489796 60.582618 
L 122.767347 60.582644 
L 125.044898 60.582644 
L 127.322449 60.582644 
L 129.6 60.582644 
L 129.6 60.582644 
L 129.6 60.582644 
L 127.322449 60.582644 
L 125.044898 60.582644 
L 122.767347 60.582644 
L 120.489796 60.582685 
L 118.212245 60.702605 
L 115.934694 60.927155 
L 113.657143 61.218208 
L 111.379592 61.470674 
L 109.102041 61.718089 
L 106.82449 62.72648 
L 104.546939 63.080389 
L 102.269388 64.48499 
L 99.991837 65.100747 
L 97.714286 66.757646 
L 95.436735 67.263965 
L 93.159184 67.343135 
L 90.881633 67.68 
L 88.604082 65.053776 
L 86.326531 63.229315 
L 84.04898 60.286513 
L 81.771429 55.924303 
L 79.493878 50.365357 
L 77.216327 47.064238 
L 74.938776 39.75323 
L 72.661224 36.747703 
L 70.383673 33.800681 
L 68.106122 31.629403 
L 65.828571 30.58799 
L 63.55102 29.405614 
L 61.273469 31.406355 
L 58.995918 33.842232 
L 56.718367 38.880102 
L 54.440816 41.991878 
L 52.163265 45.509895 
L 49.885714 49.958326 
L 47.608163 52.954426 
L 45.330612 55.772047 
L 43.053061 57.922677 
L 40.77551 59.835765 
L 38.497959 59.993687 
L 36.220408 60.451743 
L 33.942857 60.736918 
L 31.665306 60.641759 
L 29.387755 60.582676 
L 27.110204 60.582644 
L 24.832653 60.582644 
L 22.555102 60.582644 
L 20.277551 60.582644 
L 18 60.582644 
z
" style="fill:#fc8d62;fill-opacity:0.2;"/>
   </g>
   <g id="PolyCollection_2">
    <path clip-path="url(#p53918fb88a)" d="M 18 60.582644 
L 18 60.582644 
L 20.277551 60.582644 
L 22.555102 60.582644 
L 24.832653 60.582644 
L 27.110204 60.582644 
L 29.387755 60.582508 
L 31.665306 60.450292 
L 33.942857 60.075953 
L 36.220408 59.617472 
L 38.497959 58.495638 
L 40.77551 57.792837 
L 43.053061 55.727547 
L 45.330612 53.705848 
L 47.608163 52.572042 
L 49.885714 50.815648 
L 52.163265 48.111814 
L 54.440816 45.783658 
L 56.718367 42.494394 
L 58.995918 39.753596 
L 61.273469 38.320375 
L 63.55102 33.924305 
L 65.828571 33.358448 
L 68.106122 30.657643 
L 70.383673 29.587087 
L 72.661224 29.477265 
L 74.938776 36.843929 
L 77.216327 29.5359 
L 79.493878 30.866788 
L 81.771429 33.540174 
L 84.04898 35.559042 
L 86.326531 37.518604 
L 88.604082 40.937901 
L 90.881633 43.490903 
L 93.159184 45.34494 
L 95.436735 47.448451 
L 97.714286 49.630016 
L 99.991837 52.3906 
L 102.269388 54.105469 
L 104.546939 56.759513 
L 106.82449 57.843385 
L 109.102041 58.316418 
L 111.379592 59.297639 
L 113.657143 59.780812 
L 115.934694 60.187985 
L 118.212245 60.489995 
L 120.489796 60.582574 
L 122.767347 60.582644 
L 125.044898 60.582644 
L 127.322449 60.582644 
L 129.6 60.582644 
L 129.6 60.582644 
L 129.6 60.582644 
L 127.322449 60.582644 
L 125.044898 60.582644 
L 122.767347 60.582644 
L 120.489796 60.582752 
L 118.212245 60.69375 
L 115.934694 60.942492 
L 113.657143 60.964226 
L 111.379592 61.383841 
L 109.102041 60.857891 
L 106.82449 61.350201 
L 104.546939 60.850385 
L 102.269388 59.490418 
L 99.991837 57.771589 
L 97.714286 57.310223 
L 95.436735 55.297204 
L 93.159184 54.049725 
L 90.881633 52.062526 
L 88.604082 49.548821 
L 86.326531 48.838958 
L 84.04898 45.662927 
L 81.771429 45.16415 
L 79.493878 43.65896 
L 77.216327 42.094796 
L 74.938776 39.495921 
L 72.661224 41.318469 
L 70.383673 42.242109 
L 68.106122 42.4717 
L 65.828571 43.697463 
L 63.55102 45.63996 
L 61.273469 46.297956 
L 58.995918 48.650809 
L 56.718367 51.213695 
L 54.440816 53.665633 
L 52.163265 55.516448 
L 49.885714 56.407379 
L 47.608163 57.987359 
L 45.330612 58.223519 
L 43.053061 59.351375 
L 40.77551 60.606688 
L 38.497959 60.498807 
L 36.220408 60.825051 
L 33.942857 60.799278 
L 31.665306 60.660178 
L 29.387755 60.582731 
L 27.110204 60.582644 
L 24.832653 60.582644 
L 22.555102 60.582644 
L 20.277551 60.582644 
L 18 60.582644 
z
" style="fill:#fc8d62;fill-opacity:0.2;"/>
   </g>
   <g id="matplotlib.axis_1">
    <g id="xtick_1">
     <g id="line2d_1">
      <defs>
       <path d="M 0 0 
L 0 3.5 
" id="m85daf7271c" style="stroke:#a9a9a9;stroke-width:2;"/>
      </defs>
      <g>
       <use style="fill:#a9a9a9;stroke:#a9a9a9;stroke-width:2;" x="29.387755" xlink:href="#m85daf7271c" y="60.582644"/>
      </g>
     </g>
    </g>
    <g id="xtick_2">
     <g id="line2d_2">
      <g>
       <use style="fill:#a9a9a9;stroke:#a9a9a9;stroke-width:2;" x="52.163265" xlink:href="#m85daf7271c" y="60.582644"/>
      </g>
     </g>
    </g>
    <g id="xtick_3">
     <g id="line2d_3">
      <g>
       <use style="fill:#a9a9a9;stroke:#a9a9a9;stroke-width:2;" x="74.938776" xlink:href="#m85daf7271c" y="60.582644"/>
      </g>
     </g>
    </g>
    <g id="xtick_4">
     <g id="line2d_4">
      <g>
       <use style="fill:#a9a9a9;stroke:#a9a9a9;stroke-width:2;" x="97.714286" xlink:href="#m85daf7271c" y="60.582644"/>
      </g>
     </g>
    </g>
    <g id="xtick_5">
     <g id="line2d_5">
      <g>
       <use style="fill:#a9a9a9;stroke:#a9a9a9;stroke-width:2;" x="120.489796" xlink:href="#m85daf7271c" y="60.582644"/>
      </g>
     </g>
    </g>
   </g>
   <g id="matplotlib.axis_2"/>
   <g id="line2d_6">
    <path clip-path="url(#p53918fb88a)" d="M 18 60.582644 
L 20.277551 60.582644 
L 22.555102 60.582644 
L 24.832653 60.582644 
L 27.110204 60.582644 
L 29.387755 60.582633 
L 31.665306 60.541436 
L 33.942857 60.403046 
L 36.220408 59.921482 
L 38.497959 59.219487 
L 40.77551 58.463095 
L 43.053061 56.174962 
L 45.330612 53.770933 
L 47.608163 50.432679 
L 49.885714 46.92102 
L 52.163265 41.853525 
L 54.440816 37.873375 
L 56.718367 33.984332 
L 58.995918 28.792748 
L 61.273469 26.444735 
L 63.55102 24.139488 
L 65.828571 23.933995 
L 68.106122 24.975252 
L 70.383673 27.481913 
L 72.661224 29.558092 
L 74.938776 38.587911 
L 77.216327 40.444067 
L 79.493878 44.225365 
L 81.771429 49.902548 
L 84.04898 53.929611 
L 86.326531 58.301008 
L 88.604082 60.746853 
L 90.881633 63.028616 
L 93.159184 62.713665 
L 95.436735 63.150263 
L 97.714286 63.442725 
L 99.991837 62.256468 
L 102.269388 61.990204 
L 104.546939 61.242479 
L 106.82449 61.023608 
L 109.102041 60.34437 
L 111.379592 60.72023 
L 113.657143 60.726986 
L 115.934694 60.602759 
L 118.212245 60.605843 
L 120.489796 60.582652 
L 122.767347 60.582644 
L 125.044898 60.582644 
L 127.322449 60.582644 
L 129.6 60.582644 
" style="fill:none;stroke:#fc8d62;stroke-linecap:square;stroke-width:2;"/>
   </g>
   <g id="line2d_7">
    <path clip-path="url(#p53918fb88a)" d="M 18 60.582644 
L 20.277551 60.582644 
L 22.555102 60.582644 
L 24.832653 60.582644 
L 27.110204 60.582644 
L 29.387755 60.582619 
L 31.665306 60.555235 
L 33.942857 60.437616 
L 36.220408 60.221261 
L 38.497959 59.497223 
L 40.77551 59.199762 
L 43.053061 57.539461 
L 45.330612 55.964684 
L 47.608163 55.2797 
L 49.885714 53.611514 
L 52.163265 51.814131 
L 54.440816 49.724645 
L 56.718367 46.854044 
L 58.995918 44.202203 
L 61.273469 42.309166 
L 63.55102 39.782132 
L 65.828571 38.527955 
L 68.106122 36.564672 
L 70.383673 35.914598 
L 72.661224 35.397867 
L 74.938776 38.169925 
L 77.216327 35.815348 
L 79.493878 37.262874 
L 81.771429 39.352162 
L 84.04898 40.610985 
L 86.326531 43.178781 
L 88.604082 45.243361 
L 90.881633 47.776715 
L 93.159184 49.697332 
L 95.436735 51.372828 
L 97.714286 53.47012 
L 99.991837 55.081095 
L 102.269388 56.797943 
L 104.546939 58.804949 
L 106.82449 59.596793 
L 109.102041 59.587155 
L 111.379592 60.34074 
L 113.657143 60.372519 
L 115.934694 60.565238 
L 118.212245 60.591872 
L 120.489796 60.582663 
L 122.767347 60.582644 
L 125.044898 60.582644 
L 127.322449 60.582644 
L 129.6 60.582644 
" style="fill:none;stroke:#fc8d62;stroke-dasharray:1.5,1.5;stroke-dashoffset:0;stroke-opacity:0.7;stroke-width:1.5;"/>
   </g>
   <g id="patch_3">
    <path d="M 74.938776 67.68 
L 74.938776 17.28 
" style="fill:none;stroke:#a9a9a9;stroke-linecap:square;stroke-linejoin:miter;stroke-width:2;"/>
   </g>
   <g id="patch_4">
    <path d="M 129.6 67.68 
L 129.6 17.28 
" style="fill:none;"/>
   </g>
   <g id="patch_5">
    <path d="M 18 60.582644 
L 129.6 60.582644 
" style="fill:none;stroke:#a9a9a9;stroke-linecap:square;stroke-linejoin:miter;stroke-width:2;"/>
   </g>
   <g id="patch_6">
    <path d="M 18 17.28 
L 129.6 17.28 
" style="fill:none;"/>
   </g>
   <g id="legend_1">
    <g id="line2d_8">
     <path d="M 87.67 26.448906 
L 101.67 26.448906 
" style="fill:none;stroke:#fc8d62;stroke-linecap:square;stroke-width:2;"/>
    </g>
    <g id="line2d_9"/>
    <g id="text_1">
     <!-- $\theta$ -->
     <g transform="translate(107.27 28.898906)scale(0.07 -0.07)">
      <defs>
       <path d="M 45.515625 34.671875 
L 14.453125 34.671875 
Q 12.359375 20.0625 14.5 13.875 
Q 17.1875 6.25 24.46875 6.25 
Q 31.78125 6.25 37.359375 13.921875 
Q 42.234375 20.65625 45.515625 34.671875 
z
M 47.015625 42.96875 
Q 48.34375 56.84375 46.625 61.71875 
Q 43.953125 69.4375 36.765625 69.4375 
Q 29.296875 69.4375 23.828125 61.8125 
Q 19.53125 55.671875 16.15625 42.96875 
z
M 38.1875 76.765625 
Q 49.90625 76.765625 54.59375 66.40625 
Q 59.28125 56.109375 55.71875 37.84375 
Q 52.203125 19.625 43.453125 9.28125 
Q 34.765625 -1.125 23.046875 -1.125 
Q 11.28125 -1.125 6.640625 9.28125 
Q 2 19.625 5.515625 37.84375 
Q 9.078125 56.109375 17.71875 66.40625 
Q 26.421875 76.765625 38.1875 76.765625 
z
" id="DejaVuSans-Oblique-952"/>
      </defs>
      <use transform="translate(0 0.234375)" xlink:href="#DejaVuSans-Oblique-952"/>
     </g>
    </g>
    <g id="line2d_10">
     <path d="M 87.67 36.723594 
L 101.67 36.723594 
" style="fill:none;stroke:#fc8d62;stroke-dasharray:1.5,1.5;stroke-dashoffset:0;stroke-opacity:0.7;stroke-width:1.5;"/>
    </g>
    <g id="line2d_11"/>
    <g id="text_2">
     <!-- No $\theta$ -->
     <g transform="translate(107.27 39.173594)scale(0.07 -0.07)">
      <defs>
       <path d="M 9.8125 72.90625 
L 23.09375 72.90625 
L 55.421875 11.921875 
L 55.421875 72.90625 
L 64.984375 72.90625 
L 64.984375 0 
L 51.703125 0 
L 19.390625 60.984375 
L 19.390625 0 
L 9.8125 0 
z
" id="DejaVuSans-78"/>
       <path d="M 30.609375 48.390625 
Q 23.390625 48.390625 19.1875 42.75 
Q 14.984375 37.109375 14.984375 27.296875 
Q 14.984375 17.484375 19.15625 11.84375 
Q 23.34375 6.203125 30.609375 6.203125 
Q 37.796875 6.203125 41.984375 11.859375 
Q 46.1875 17.53125 46.1875 27.296875 
Q 46.1875 37.015625 41.984375 42.703125 
Q 37.796875 48.390625 30.609375 48.390625 
z
M 30.609375 56 
Q 42.328125 56 49.015625 48.375 
Q 55.71875 40.765625 55.71875 27.296875 
Q 55.71875 13.875 49.015625 6.21875 
Q 42.328125 -1.421875 30.609375 -1.421875 
Q 18.84375 -1.421875 12.171875 6.21875 
Q 5.515625 13.875 5.515625 27.296875 
Q 5.515625 40.765625 12.171875 48.375 
Q 18.84375 56 30.609375 56 
z
" id="DejaVuSans-111"/>
       <path id="DejaVuSans-32"/>
      </defs>
      <use transform="translate(0 0.234375)" xlink:href="#DejaVuSans-78"/>
      <use transform="translate(74.804688 0.234375)" xlink:href="#DejaVuSans-111"/>
      <use transform="translate(135.986328 0.234375)" xlink:href="#DejaVuSans-32"/>
      <use transform="translate(167.773438 0.234375)" xlink:href="#DejaVuSans-Oblique-952"/>
     </g>
    </g>
   </g>
  </g>
  <g id="axes_2">
   <g id="patch_7">
    <path d="M 18 128.16 
L 129.6 128.16 
L 129.6 77.76 
L 18 77.76 
z
" style="fill:none;"/>
   </g>
   <g id="PolyCollection_3">
    <path clip-path="url(#p6e4a732ac1)" d="M 18 120.516738 
L 18 120.436498 
L 20.277551 120.652351 
L 22.555102 120.713544 
L 24.832653 120.627766 
L 27.110204 120.444096 
L 29.387755 120.24121 
L 31.665306 120.068429 
L 33.942857 119.785152 
L 36.220408 119.229283 
L 38.497959 118.273056 
L 40.77551 116.82405 
L 43.053061 114.830508 
L 45.330612 112.284516 
L 47.608163 109.218517 
L 49.885714 105.700905 
L 52.163265 101.832467 
L 54.440816 97.742846 
L 56.718367 93.58643 
L 58.995918 89.537695 
L 61.273469 85.786035 
L 63.55102 82.530262 
L 65.828571 79.973316 
L 68.106122 78.317429 
L 70.383673 77.76 
L 72.661224 78.490336 
L 74.938776 80.676847 
L 77.216327 84.410117 
L 79.493878 89.288597 
L 81.771429 94.864943 
L 84.04898 100.721216 
L 86.326531 106.493289 
L 88.604082 111.879937 
L 90.881633 116.647538 
L 93.159184 120.631317 
L 95.436735 123.73425 
L 97.714286 125.92476 
L 99.991837 127.231137 
L 102.269388 127.730977 
L 104.546939 127.53815 
L 106.82449 126.791459 
L 109.102041 125.64556 
L 111.379592 124.262874 
L 113.657143 122.806684 
L 115.934694 121.435857 
L 118.212245 120.303118 
L 120.489796 119.558986 
L 122.767347 119.300353 
L 125.044898 119.409565 
L 127.322449 119.723702 
L 129.6 120.102381 
L 129.6 120.209379 
L 129.6 120.209379 
L 127.322449 119.855963 
L 125.044898 119.560748 
L 122.767347 119.461595 
L 120.489796 119.7233 
L 118.212245 120.475245 
L 115.934694 121.634723 
L 113.657143 123.051006 
L 111.379592 124.56037 
L 109.102041 125.99307 
L 106.82449 127.178702 
L 104.546939 127.951934 
L 102.269388 128.16 
L 99.991837 127.671682 
L 97.714286 126.386877 
L 95.436735 124.244253 
L 93.159184 121.226225 
L 90.881633 117.364546 
L 88.604082 112.748351 
L 86.326531 107.531706 
L 84.04898 101.937257 
L 81.771429 96.255742 
L 79.493878 90.841275 
L 77.216327 86.10223 
L 74.938776 82.477033 
L 72.661224 80.36011 
L 70.383673 79.657178 
L 68.106122 80.199025 
L 65.828571 81.797577 
L 63.55102 84.258527 
L 61.273469 87.384459 
L 58.995918 90.978796 
L 56.718367 94.850373 
L 54.440816 98.818417 
L 52.163265 102.717515 
L 49.885714 106.402414 
L 47.608163 109.752246 
L 45.330612 112.674173 
L 43.053061 115.106813 
L 40.77551 117.02267 
L 38.497959 118.428453 
L 36.220408 119.364668 
L 33.942857 119.909844 
L 31.665306 120.184368 
L 29.387755 120.34694 
L 27.110204 120.534191 
L 24.832653 120.699191 
L 22.555102 120.770907 
L 20.277551 120.712386 
L 18 120.516738 
z
" style="fill:#66c2a5;fill-opacity:0.2;"/>
   </g>
   <g id="matplotlib.axis_3">
    <g id="xtick_6">
     <g id="line2d_12">
      <g>
       <use style="fill:#a9a9a9;stroke:#a9a9a9;stroke-width:2;" x="29.387755" xlink:href="#m85daf7271c" y="122.170352"/>
      </g>
     </g>
    </g>
    <g id="xtick_7">
     <g id="line2d_13">
      <g>
       <use style="fill:#a9a9a9;stroke:#a9a9a9;stroke-width:2;" x="52.163265" xlink:href="#m85daf7271c" y="122.170352"/>
      </g>
     </g>
    </g>
    <g id="xtick_8">
     <g id="line2d_14">
      <g>
       <use style="fill:#a9a9a9;stroke:#a9a9a9;stroke-width:2;" x="74.938776" xlink:href="#m85daf7271c" y="122.170352"/>
      </g>
     </g>
    </g>
    <g id="xtick_9">
     <g id="line2d_15">
      <g>
       <use style="fill:#a9a9a9;stroke:#a9a9a9;stroke-width:2;" x="97.714286" xlink:href="#m85daf7271c" y="122.170352"/>
      </g>
     </g>
    </g>
    <g id="xtick_10">
     <g id="line2d_16">
      <g>
       <use style="fill:#a9a9a9;stroke:#a9a9a9;stroke-width:2;" x="120.489796" xlink:href="#m85daf7271c" y="122.170352"/>
      </g>
     </g>
    </g>
   </g>
   <g id="matplotlib.axis_4"/>
   <g id="line2d_17">
    <path clip-path="url(#p6e4a732ac1)" d="M 18 120.476618 
L 20.277551 120.682368 
L 22.555102 120.742226 
L 24.832653 120.663478 
L 27.110204 120.489144 
L 29.387755 120.294075 
L 31.665306 120.126398 
L 33.942857 119.847498 
L 36.220408 119.296976 
L 38.497959 118.350755 
L 40.77551 116.92336 
L 43.053061 114.968661 
L 45.330612 112.479345 
L 47.608163 109.485381 
L 49.885714 106.051659 
L 52.163265 102.274991 
L 54.440816 98.280632 
L 56.718367 94.218402 
L 58.995918 90.258246 
L 61.273469 86.585247 
L 63.55102 83.394394 
L 65.828571 80.885446 
L 68.106122 79.258227 
L 70.383673 78.708589 
L 72.661224 79.425223 
L 74.938776 81.57694 
L 77.216327 85.256174 
L 79.493878 90.064936 
L 81.771429 95.560343 
L 84.04898 101.329236 
L 86.326531 107.012497 
L 88.604082 112.314144 
L 90.881633 117.006042 
L 93.159184 120.928771 
L 95.436735 123.989252 
L 97.714286 126.155819 
L 99.991837 127.45141 
L 102.269388 127.945489 
L 104.546939 127.745042 
L 106.82449 126.985081 
L 109.102041 125.819315 
L 111.379592 124.411622 
L 113.657143 122.928845 
L 115.934694 121.53529 
L 118.212245 120.389181 
L 120.489796 119.641143 
L 122.767347 119.380974 
L 125.044898 119.485156 
L 127.322449 119.789832 
L 129.6 120.15588 
" style="fill:none;stroke:#66c2a5;stroke-linecap:square;stroke-width:2;"/>
   </g>
   <g id="patch_8">
    <path d="M 74.938776 128.16 
L 74.938776 77.76 
" style="fill:none;stroke:#a9a9a9;stroke-linecap:square;stroke-linejoin:miter;stroke-width:2;"/>
   </g>
   <g id="patch_9">
    <path d="M 129.6 128.16 
L 129.6 77.76 
" style="fill:none;"/>
   </g>
   <g id="patch_10">
    <path d="M 18 122.170352 
L 129.6 122.170352 
" style="fill:none;stroke:#a9a9a9;stroke-linecap:square;stroke-linejoin:miter;stroke-width:2;"/>
   </g>
   <g id="patch_11">
    <path d="M 18 77.76 
L 129.6 77.76 
" style="fill:none;"/>
   </g>
  </g>
 </g>
 <defs>
  <clipPath id="p53918fb88a">
   <rect height="50.4" width="111.6" x="18" y="17.28"/>
  </clipPath>
  <clipPath id="p6e4a732ac1">
   <rect height="50.4" width="111.6" x="18" y="77.76"/>
  </clipPath>
 </defs>
</svg>
