<?xml version="1.0" encoding="utf-8" standalone="no"?>
<!DOCTYPE svg PUBLIC "-//W3C//DTD SVG 1.1//EN"
  "http://www.w3.org/Graphics/SVG/1.1/DTD/svg11.dtd">
<!-- Created with matplotlib (https://matplotlib.org/) -->
<svg height="144pt" version="1.1" viewBox="0 0 144 144" width="144pt" xmlns="http://www.w3.org/2000/svg" xmlns:xlink="http://www.w3.org/1999/xlink">
 <metadata>
  <rdf:RDF xmlns:cc="http://creativecommons.org/ns#" xmlns:dc="http://purl.org/dc/elements/1.1/" xmlns:rdf="http://www.w3.org/1999/02/22-rdf-syntax-ns#">
   <cc:Work>
    <dc:type rdf:resource="http://purl.org/dc/dcmitype/StillImage"/>
    <dc:date>2021-10-13T00:16:02.152081</dc:date>
    <dc:format>image/svg+xml</dc:format>
    <dc:creator>
     <cc:Agent>
      <dc:title>Matplotlib v3.3.2, https://matplotlib.org/</dc:title>
     </cc:Agent>
    </dc:creator>
   </cc:Work>
  </rdf:RDF>
 </metadata>
 <defs>
  <style type="text/css">*{stroke-linecap:butt;stroke-linejoin:round;}</style>
 </defs>
 <g id="figure_1">
  <g id="patch_1">
   <path d="M 0 144 
L 144 144 
L 144 0 
L 0 0 
z
" style="fill:none;"/>
  </g>
  <g id="axes_1">
   <g id="patch_2">
    <path d="M 18 67.68 
L 129.6 67.68 
L 129.6 17.28 
L 18 17.28 
z
" style="fill:none;"/>
   </g>
   <g id="PolyCollection_1">
    <path clip-path="url(#p366aeb8eed)" d="M 18 65.302469 
L 18 65.302469 
L 20.277551 65.302469 
L 22.555102 65.302469 
L 24.832653 65.302469 
L 27.110204 65.302469 
L 29.387755 65.302469 
L 31.665306 65.257195 
L 33.942857 65.048615 
L 36.220408 64.189847 
L 38.497959 63.643322 
L 40.77551 61.985704 
L 43.053061 60.670477 
L 45.330612 57.277857 
L 47.608163 54.023389 
L 49.885714 49.89016 
L 52.163265 46.334148 
L 54.440816 41.27751 
L 56.718367 34.347508 
L 58.995918 31.179188 
L 61.273469 25.292191 
L 63.55102 22.844336 
L 65.828571 20.559072 
L 68.106122 20.282366 
L 70.383673 17.28 
L 72.661224 22.092118 
L 74.938776 39.740773 
L 77.216327 26.750698 
L 79.493878 32.689149 
L 81.771429 35.690485 
L 84.04898 41.324644 
L 86.326531 46.793711 
L 88.604082 50.027323 
L 90.881633 51.981824 
L 93.159184 56.14772 
L 95.436735 59.210934 
L 97.714286 59.91528 
L 99.991837 60.702763 
L 102.269388 61.426251 
L 104.546939 62.580167 
L 106.82449 62.791845 
L 109.102041 64.060846 
L 111.379592 64.300624 
L 113.657143 64.871505 
L 115.934694 64.999384 
L 118.212245 65.239997 
L 120.489796 65.302468 
L 122.767347 65.302469 
L 125.044898 65.302469 
L 127.322449 65.302469 
L 129.6 65.302469 
L 129.6 65.302469 
L 129.6 65.302469 
L 127.322449 65.302469 
L 125.044898 65.302469 
L 122.767347 65.302469 
L 120.489796 65.30247 
L 118.212245 65.354607 
L 115.934694 65.545776 
L 113.657143 65.893519 
L 111.379592 65.845195 
L 109.102041 66.423599 
L 106.82449 66.43095 
L 104.546939 66.895794 
L 102.269388 66.812349 
L 99.991837 67.68 
L 97.714286 66.39393 
L 95.436735 65.765129 
L 93.159184 66.266941 
L 90.881633 63.432791 
L 88.604082 62.323843 
L 86.326531 57.978332 
L 84.04898 54.71319 
L 81.771429 49.168184 
L 79.493878 47.219664 
L 77.216327 40.270207 
L 74.938776 45.844865 
L 72.661224 35.585215 
L 70.383673 33.720175 
L 68.106122 34.296869 
L 65.828571 32.720971 
L 63.55102 35.910584 
L 61.273469 38.673311 
L 58.995918 44.091592 
L 56.718367 46.225575 
L 54.440816 49.391869 
L 52.163265 54.23799 
L 49.885714 57.008918 
L 47.608163 60.443963 
L 45.330612 62.351082 
L 43.053061 64.18384 
L 40.77551 64.60603 
L 38.497959 65.305714 
L 36.220408 65.440348 
L 33.942857 65.463282 
L 31.665306 65.35181 
L 29.387755 65.302469 
L 27.110204 65.302469 
L 24.832653 65.302469 
L 22.555102 65.302469 
L 20.277551 65.302469 
L 18 65.302469 
z
" style="fill:#fc8d62;fill-opacity:0.2;"/>
   </g>
   <g id="PolyCollection_2">
    <path clip-path="url(#p366aeb8eed)" d="M 18 65.302469 
L 18 65.302469 
L 20.277551 65.302469 
L 22.555102 65.302469 
L 24.832653 65.302469 
L 27.110204 65.302469 
L 29.387755 65.302469 
L 31.665306 65.237347 
L 33.942857 64.749628 
L 36.220408 64.109481 
L 38.497959 63.452441 
L 40.77551 62.755679 
L 43.053061 60.915049 
L 45.330612 59.115632 
L 47.608163 57.356039 
L 49.885714 55.291178 
L 52.163265 53.637529 
L 54.440816 49.248494 
L 56.718367 45.413834 
L 58.995918 43.198871 
L 61.273469 40.9091 
L 63.55102 37.542219 
L 65.828571 36.875028 
L 68.106122 33.54408 
L 70.383673 31.768272 
L 72.661224 32.77694 
L 74.938776 43.539036 
L 77.216327 29.996748 
L 79.493878 33.444947 
L 81.771429 36.268041 
L 84.04898 35.580859 
L 86.326531 41.14708 
L 88.604082 40.475716 
L 90.881633 43.468131 
L 93.159184 48.107203 
L 95.436735 50.823967 
L 97.714286 51.857423 
L 99.991837 55.271188 
L 102.269388 57.850137 
L 104.546939 59.957016 
L 106.82449 61.553571 
L 109.102041 62.816479 
L 111.379592 63.570917 
L 113.657143 64.420335 
L 115.934694 64.828635 
L 118.212245 65.131362 
L 120.489796 65.302465 
L 122.767347 65.302469 
L 125.044898 65.302469 
L 127.322449 65.302469 
L 129.6 65.302469 
L 129.6 65.302469 
L 129.6 65.302469 
L 127.322449 65.302469 
L 125.044898 65.302469 
L 122.767347 65.302469 
L 120.489796 65.302474 
L 118.212245 65.430688 
L 115.934694 65.647277 
L 113.657143 65.732821 
L 111.379592 65.797353 
L 109.102041 65.607628 
L 106.82449 65.315807 
L 104.546939 63.985025 
L 102.269388 63.344897 
L 99.991837 62.517049 
L 97.714286 60.102073 
L 95.436735 58.78955 
L 93.159184 57.854941 
L 90.881633 54.956216 
L 88.604082 52.028115 
L 86.326531 49.60521 
L 84.04898 46.7064 
L 81.771429 45.990317 
L 79.493878 45.263809 
L 77.216327 43.559646 
L 74.938776 48.196992 
L 72.661224 46.231199 
L 70.383673 43.464701 
L 68.106122 43.414965 
L 65.828571 48.642786 
L 63.55102 47.820546 
L 61.273469 53.241822 
L 58.995918 54.287724 
L 56.718367 55.870062 
L 54.440816 58.362828 
L 52.163265 60.821158 
L 49.885714 61.709459 
L 47.608163 62.48268 
L 45.330612 64.135703 
L 43.053061 64.306169 
L 40.77551 65.170425 
L 38.497959 65.527426 
L 36.220408 65.657633 
L 33.942857 65.635314 
L 31.665306 65.381963 
L 29.387755 65.302469 
L 27.110204 65.302469 
L 24.832653 65.302469 
L 22.555102 65.302469 
L 20.277551 65.302469 
L 18 65.302469 
z
" style="fill:#fc8d62;fill-opacity:0.2;"/>
   </g>
   <g id="matplotlib.axis_1">
    <g id="xtick_1">
     <g id="line2d_1">
      <defs>
       <path d="M 0 0 
L 0 3.5 
" id="m704d3df8d2" style="stroke:#a9a9a9;stroke-width:2;"/>
      </defs>
      <g>
       <use style="fill:#a9a9a9;stroke:#a9a9a9;stroke-width:2;" x="29.387755" xlink:href="#m704d3df8d2" y="65.302469"/>
      </g>
     </g>
    </g>
    <g id="xtick_2">
     <g id="line2d_2">
      <g>
       <use style="fill:#a9a9a9;stroke:#a9a9a9;stroke-width:2;" x="52.163265" xlink:href="#m704d3df8d2" y="65.302469"/>
      </g>
     </g>
    </g>
    <g id="xtick_3">
     <g id="line2d_3">
      <g>
       <use style="fill:#a9a9a9;stroke:#a9a9a9;stroke-width:2;" x="74.938776" xlink:href="#m704d3df8d2" y="65.302469"/>
      </g>
     </g>
    </g>
    <g id="xtick_4">
     <g id="line2d_4">
      <g>
       <use style="fill:#a9a9a9;stroke:#a9a9a9;stroke-width:2;" x="97.714286" xlink:href="#m704d3df8d2" y="65.302469"/>
      </g>
     </g>
    </g>
    <g id="xtick_5">
     <g id="line2d_5">
      <g>
       <use style="fill:#a9a9a9;stroke:#a9a9a9;stroke-width:2;" x="120.489796" xlink:href="#m704d3df8d2" y="65.302469"/>
      </g>
     </g>
    </g>
   </g>
   <g id="matplotlib.axis_2"/>
   <g id="line2d_6">
    <path clip-path="url(#p366aeb8eed)" d="M 18 65.302469 
L 20.277551 65.302469 
L 22.555102 65.302469 
L 24.832653 65.302469 
L 27.110204 65.302469 
L 29.387755 65.302469 
L 31.665306 65.304503 
L 33.942857 65.255949 
L 36.220408 64.815097 
L 38.497959 64.474518 
L 40.77551 63.295867 
L 43.053061 62.427159 
L 45.330612 59.814469 
L 47.608163 57.233676 
L 49.885714 53.449539 
L 52.163265 50.286069 
L 54.440816 45.334689 
L 56.718367 40.286541 
L 58.995918 37.63539 
L 61.273469 31.982751 
L 63.55102 29.37746 
L 65.828571 26.640021 
L 68.106122 27.289617 
L 70.383673 25.500087 
L 72.661224 28.838667 
L 74.938776 42.792819 
L 77.216327 33.510453 
L 79.493878 39.954407 
L 81.771429 42.429335 
L 84.04898 48.018917 
L 86.326531 52.386021 
L 88.604082 56.175583 
L 90.881633 57.707307 
L 93.159184 61.207331 
L 95.436735 62.488031 
L 97.714286 63.154605 
L 99.991837 64.191382 
L 102.269388 64.1193 
L 104.546939 64.73798 
L 106.82449 64.611397 
L 109.102041 65.242223 
L 111.379592 65.07291 
L 113.657143 65.382512 
L 115.934694 65.27258 
L 118.212245 65.297302 
L 120.489796 65.302469 
L 122.767347 65.302469 
L 125.044898 65.302469 
L 127.322449 65.302469 
L 129.6 65.302469 
" style="fill:none;stroke:#fc8d62;stroke-linecap:square;stroke-width:2;"/>
   </g>
   <g id="line2d_7">
    <path clip-path="url(#p366aeb8eed)" d="M 18 65.302469 
L 20.277551 65.302469 
L 22.555102 65.302469 
L 24.832653 65.302469 
L 27.110204 65.302469 
L 29.387755 65.302469 
L 31.665306 65.309655 
L 33.942857 65.192471 
L 36.220408 64.883557 
L 38.497959 64.489934 
L 40.77551 63.963052 
L 43.053061 62.610609 
L 45.330612 61.625667 
L 47.608163 59.91936 
L 49.885714 58.500318 
L 52.163265 57.229343 
L 54.440816 53.805661 
L 56.718367 50.641948 
L 58.995918 48.743297 
L 61.273469 47.075461 
L 63.55102 42.681382 
L 65.828571 42.758907 
L 68.106122 38.479523 
L 70.383673 37.616487 
L 72.661224 39.50407 
L 74.938776 45.868014 
L 77.216327 36.778197 
L 79.493878 39.354378 
L 81.771429 41.129179 
L 84.04898 41.14363 
L 86.326531 45.376145 
L 88.604082 46.251916 
L 90.881633 49.212173 
L 93.159184 52.981072 
L 95.436735 54.806759 
L 97.714286 55.979748 
L 99.991837 58.894118 
L 102.269388 60.597517 
L 104.546939 61.97102 
L 106.82449 63.434689 
L 109.102041 64.212054 
L 111.379592 64.684135 
L 113.657143 65.076578 
L 115.934694 65.237956 
L 118.212245 65.281025 
L 120.489796 65.302469 
L 122.767347 65.302469 
L 125.044898 65.302469 
L 127.322449 65.302469 
L 129.6 65.302469 
" style="fill:none;stroke:#fc8d62;stroke-dasharray:1.5,1.5;stroke-dashoffset:0;stroke-opacity:0.7;stroke-width:1.5;"/>
   </g>
   <g id="patch_3">
    <path d="M 74.938776 67.68 
L 74.938776 17.28 
" style="fill:none;stroke:#a9a9a9;stroke-linecap:square;stroke-linejoin:miter;stroke-width:2;"/>
   </g>
   <g id="patch_4">
    <path d="M 129.6 67.68 
L 129.6 17.28 
" style="fill:none;"/>
   </g>
   <g id="patch_5">
    <path d="M 18 65.302469 
L 129.6 65.302469 
" style="fill:none;stroke:#a9a9a9;stroke-linecap:square;stroke-linejoin:miter;stroke-width:2;"/>
   </g>
   <g id="patch_6">
    <path d="M 18 17.28 
L 129.6 17.28 
" style="fill:none;"/>
   </g>
   <g id="legend_1">
    <g id="line2d_8">
     <path d="M 87.67 26.448906 
L 101.67 26.448906 
" style="fill:none;stroke:#fc8d62;stroke-linecap:square;stroke-width:2;"/>
    </g>
    <g id="line2d_9"/>
    <g id="text_1">
     <!-- $\theta$ -->
     <g transform="translate(107.27 28.898906)scale(0.07 -0.07)">
      <defs>
       <path d="M 45.515625 34.671875 
L 14.453125 34.671875 
Q 12.359375 20.0625 14.5 13.875 
Q 17.1875 6.25 24.46875 6.25 
Q 31.78125 6.25 37.359375 13.921875 
Q 42.234375 20.65625 45.515625 34.671875 
z
M 47.015625 42.96875 
Q 48.34375 56.84375 46.625 61.71875 
Q 43.953125 69.4375 36.765625 69.4375 
Q 29.296875 69.4375 23.828125 61.8125 
Q 19.53125 55.671875 16.15625 42.96875 
z
M 38.1875 76.765625 
Q 49.90625 76.765625 54.59375 66.40625 
Q 59.28125 56.109375 55.71875 37.84375 
Q 52.203125 19.625 43.453125 9.28125 
Q 34.765625 -1.125 23.046875 -1.125 
Q 11.28125 -1.125 6.640625 9.28125 
Q 2 19.625 5.515625 37.84375 
Q 9.078125 56.109375 17.71875 66.40625 
Q 26.421875 76.765625 38.1875 76.765625 
z
" id="DejaVuSans-Oblique-952"/>
      </defs>
      <use transform="translate(0 0.234375)" xlink:href="#DejaVuSans-Oblique-952"/>
     </g>
    </g>
    <g id="line2d_10">
     <path d="M 87.67 36.723594 
L 101.67 36.723594 
" style="fill:none;stroke:#fc8d62;stroke-dasharray:1.5,1.5;stroke-dashoffset:0;stroke-opacity:0.7;stroke-width:1.5;"/>
    </g>
    <g id="line2d_11"/>
    <g id="text_2">
     <!-- No $\theta$ -->
     <g transform="translate(107.27 39.173594)scale(0.07 -0.07)">
      <defs>
       <path d="M 9.8125 72.90625 
L 23.09375 72.90625 
L 55.421875 11.921875 
L 55.421875 72.90625 
L 64.984375 72.90625 
L 64.984375 0 
L 51.703125 0 
L 19.390625 60.984375 
L 19.390625 0 
L 9.8125 0 
z
" id="DejaVuSans-78"/>
       <path d="M 30.609375 48.390625 
Q 23.390625 48.390625 19.1875 42.75 
Q 14.984375 37.109375 14.984375 27.296875 
Q 14.984375 17.484375 19.15625 11.84375 
Q 23.34375 6.203125 30.609375 6.203125 
Q 37.796875 6.203125 41.984375 11.859375 
Q 46.1875 17.53125 46.1875 27.296875 
Q 46.1875 37.015625 41.984375 42.703125 
Q 37.796875 48.390625 30.609375 48.390625 
z
M 30.609375 56 
Q 42.328125 56 49.015625 48.375 
Q 55.71875 40.765625 55.71875 27.296875 
Q 55.71875 13.875 49.015625 6.21875 
Q 42.328125 -1.421875 30.609375 -1.421875 
Q 18.84375 -1.421875 12.171875 6.21875 
Q 5.515625 13.875 5.515625 27.296875 
Q 5.515625 40.765625 12.171875 48.375 
Q 18.84375 56 30.609375 56 
z
" id="DejaVuSans-111"/>
       <path id="DejaVuSans-32"/>
      </defs>
      <use transform="translate(0 0.234375)" xlink:href="#DejaVuSans-78"/>
      <use transform="translate(74.804688 0.234375)" xlink:href="#DejaVuSans-111"/>
      <use transform="translate(135.986328 0.234375)" xlink:href="#DejaVuSans-32"/>
      <use transform="translate(167.773438 0.234375)" xlink:href="#DejaVuSans-Oblique-952"/>
     </g>
    </g>
   </g>
  </g>
  <g id="axes_2">
   <g id="patch_7">
    <path d="M 18 128.16 
L 129.6 128.16 
L 129.6 77.76 
L 18 77.76 
z
" style="fill:none;"/>
   </g>
   <g id="PolyCollection_3">
    <path clip-path="url(#p669dab77c1)" d="M 18 120.589851 
L 18 120.511483 
L 20.277551 120.728033 
L 22.555102 120.787707 
L 24.832653 120.69907 
L 27.110204 120.511405 
L 29.387755 120.304112 
L 31.665306 120.127426 
L 33.942857 119.840616 
L 36.220408 119.28118 
L 38.497959 118.321266 
L 40.77551 116.869218 
L 43.053061 114.873595 
L 45.330612 112.326033 
L 47.608163 109.258296 
L 49.885714 105.738499 
L 52.163265 101.867385 
L 54.440816 97.774521 
L 56.718367 93.614278 
L 58.995918 89.561177 
L 61.273469 85.804691 
L 63.55102 82.543811 
L 65.828571 79.981769 
L 68.106122 78.321194 
L 70.383673 77.76 
L 72.661224 78.48815 
L 74.938776 80.675273 
L 77.216327 84.411781 
L 79.493878 89.295595 
L 81.771429 94.87758 
L 84.04898 100.738777 
L 86.326531 106.514438 
L 88.604082 111.903173 
L 90.881633 116.671629 
L 93.159184 120.655558 
L 95.436735 123.758265 
L 97.714286 125.947721 
L 99.991837 127.251534 
L 102.269388 127.747372 
L 104.546939 127.550034 
L 106.82449 126.799504 
L 109.102041 125.651341 
L 111.379592 124.268586 
L 113.657143 122.814951 
L 115.934694 121.44968 
L 118.212245 120.325534 
L 120.489796 119.592123 
L 122.767347 119.34506 
L 125.044898 119.465133 
L 127.322449 119.788382 
L 129.6 120.173677 
L 129.6 120.276625 
L 129.6 120.276625 
L 127.322449 119.914803 
L 125.044898 119.609275 
L 122.767347 119.499017 
L 120.489796 119.75037 
L 118.212245 120.494439 
L 115.934694 121.647278 
L 113.657143 123.057543 
L 111.379592 124.561845 
L 109.102041 125.990995 
L 106.82449 127.174999 
L 104.546939 127.948828 
L 102.269388 128.16 
L 99.991837 127.67754 
L 97.714286 126.401078 
L 95.436735 124.267969 
L 93.159184 121.258495 
L 90.881633 117.40258 
L 88.604082 112.78854 
L 86.326531 107.570263 
L 84.04898 101.970583 
L 81.771429 96.280774 
L 79.493878 90.855926 
L 77.216327 86.105941 
L 74.938776 82.471676 
L 72.661224 80.349237 
L 70.383673 79.64426 
L 68.106122 80.186431 
L 65.828571 81.787086 
L 63.55102 84.251473 
L 61.273469 87.381852 
L 58.995918 90.981406 
L 56.718367 94.858778 
L 54.440816 98.833018 
L 52.163265 102.738591 
L 49.885714 106.430121 
L 47.608163 109.786592 
L 45.330612 112.715057 
L 43.053061 115.153799 
L 40.77551 117.074615 
L 38.497959 118.483791 
L 36.220408 119.422272 
L 33.942857 119.969614 
L 31.665306 120.246554 
L 29.387755 120.412043 
L 27.110204 120.603568 
L 24.832653 120.772729 
L 22.555102 120.847205 
L 20.277551 120.788619 
L 18 120.589851 
z
" style="fill:#66c2a5;fill-opacity:0.2;"/>
   </g>
   <g id="matplotlib.axis_3">
    <g id="xtick_6">
     <g id="line2d_12">
      <g>
       <use style="fill:#a9a9a9;stroke:#a9a9a9;stroke-width:2;" x="29.387755" xlink:href="#m704d3df8d2" y="122.218136"/>
      </g>
     </g>
    </g>
    <g id="xtick_7">
     <g id="line2d_13">
      <g>
       <use style="fill:#a9a9a9;stroke:#a9a9a9;stroke-width:2;" x="52.163265" xlink:href="#m704d3df8d2" y="122.218136"/>
      </g>
     </g>
    </g>
    <g id="xtick_8">
     <g id="line2d_14">
      <g>
       <use style="fill:#a9a9a9;stroke:#a9a9a9;stroke-width:2;" x="74.938776" xlink:href="#m704d3df8d2" y="122.218136"/>
      </g>
     </g>
    </g>
    <g id="xtick_9">
     <g id="line2d_15">
      <g>
       <use style="fill:#a9a9a9;stroke:#a9a9a9;stroke-width:2;" x="97.714286" xlink:href="#m704d3df8d2" y="122.218136"/>
      </g>
     </g>
    </g>
    <g id="xtick_10">
     <g id="line2d_16">
      <g>
       <use style="fill:#a9a9a9;stroke:#a9a9a9;stroke-width:2;" x="120.489796" xlink:href="#m704d3df8d2" y="122.218136"/>
      </g>
     </g>
    </g>
   </g>
   <g id="matplotlib.axis_4"/>
   <g id="line2d_17">
    <path clip-path="url(#p669dab77c1)" d="M 18 120.550667 
L 20.277551 120.758326 
L 22.555102 120.817456 
L 24.832653 120.735899 
L 27.110204 120.557487 
L 29.387755 120.358077 
L 31.665306 120.18699 
L 33.942857 119.905115 
L 36.220408 119.351726 
L 38.497959 118.402528 
L 40.77551 116.971916 
L 43.053061 115.013697 
L 45.330612 112.520545 
L 47.608163 109.522444 
L 49.885714 106.08431 
L 52.163265 102.302988 
L 54.440816 98.30377 
L 56.718367 94.236528 
L 58.995918 90.271292 
L 61.273469 86.593271 
L 63.55102 83.397642 
L 65.828571 80.884427 
L 68.106122 79.253813 
L 70.383673 78.70213 
L 72.661224 79.418693 
L 74.938776 81.573475 
L 77.216327 85.258861 
L 79.493878 90.07576 
L 81.771429 95.579177 
L 84.04898 101.35468 
L 86.326531 107.042351 
L 88.604082 112.345856 
L 90.881633 117.037104 
L 93.159184 120.957027 
L 95.436735 124.013117 
L 97.714286 126.1744 
L 99.991837 127.464537 
L 102.269388 127.953686 
L 104.546939 127.749431 
L 106.82449 126.987252 
L 109.102041 125.821168 
L 111.379592 124.415215 
L 113.657143 122.936247 
L 115.934694 121.548479 
L 118.212245 120.409987 
L 120.489796 119.671247 
L 122.767347 119.422039 
L 125.044898 119.537204 
L 127.322449 119.851593 
L 129.6 120.225151 
" style="fill:none;stroke:#66c2a5;stroke-linecap:square;stroke-width:2;"/>
   </g>
   <g id="patch_8">
    <path d="M 74.938776 128.16 
L 74.938776 77.76 
" style="fill:none;stroke:#a9a9a9;stroke-linecap:square;stroke-linejoin:miter;stroke-width:2;"/>
   </g>
   <g id="patch_9">
    <path d="M 129.6 128.16 
L 129.6 77.76 
" style="fill:none;"/>
   </g>
   <g id="patch_10">
    <path d="M 18 122.218136 
L 129.6 122.218136 
" style="fill:none;stroke:#a9a9a9;stroke-linecap:square;stroke-linejoin:miter;stroke-width:2;"/>
   </g>
   <g id="patch_11">
    <path d="M 18 77.76 
L 129.6 77.76 
" style="fill:none;"/>
   </g>
  </g>
 </g>
 <defs>
  <clipPath id="p366aeb8eed">
   <rect height="50.4" width="111.6" x="18" y="17.28"/>
  </clipPath>
  <clipPath id="p669dab77c1">
   <rect height="50.4" width="111.6" x="18" y="77.76"/>
  </clipPath>
 </defs>
</svg>
