<?xml version="1.0" encoding="utf-8" standalone="no"?>
<!DOCTYPE svg PUBLIC "-//W3C//DTD SVG 1.1//EN"
  "http://www.w3.org/Graphics/SVG/1.1/DTD/svg11.dtd">
<!-- Created with matplotlib (https://matplotlib.org/) -->
<svg height="144pt" version="1.1" viewBox="0 0 144 144" width="144pt" xmlns="http://www.w3.org/2000/svg" xmlns:xlink="http://www.w3.org/1999/xlink">
 <metadata>
  <rdf:RDF xmlns:cc="http://creativecommons.org/ns#" xmlns:dc="http://purl.org/dc/elements/1.1/" xmlns:rdf="http://www.w3.org/1999/02/22-rdf-syntax-ns#">
   <cc:Work>
    <dc:type rdf:resource="http://purl.org/dc/dcmitype/StillImage"/>
    <dc:date>2021-10-14T21:16:40.447921</dc:date>
    <dc:format>image/svg+xml</dc:format>
    <dc:creator>
     <cc:Agent>
      <dc:title>Matplotlib v3.3.2, https://matplotlib.org/</dc:title>
     </cc:Agent>
    </dc:creator>
   </cc:Work>
  </rdf:RDF>
 </metadata>
 <defs>
  <style type="text/css">*{stroke-linecap:butt;stroke-linejoin:round;}</style>
 </defs>
 <g id="figure_1">
  <g id="patch_1">
   <path d="M 0 144 
L 144 144 
L 144 0 
L 0 0 
z
" style="fill:none;"/>
  </g>
  <g id="axes_1">
   <g id="patch_2">
    <path d="M 18 67.68 
L 129.6 67.68 
L 129.6 17.28 
L 18 17.28 
z
" style="fill:none;"/>
   </g>
   <g id="PolyCollection_1">
    <path clip-path="url(#p4037f583f3)" d="M 18 66.642536 
L 18 66.642536 
L 20.277551 66.642536 
L 22.555102 66.642536 
L 24.832653 66.642536 
L 27.110204 66.642536 
L 29.387755 66.642414 
L 31.665306 66.541795 
L 33.942857 66.244343 
L 36.220408 65.598188 
L 38.497959 64.622385 
L 40.77551 63.193525 
L 43.053061 60.589631 
L 45.330612 57.618464 
L 47.608163 53.789172 
L 49.885714 48.813923 
L 52.163265 43.278981 
L 54.440816 38.022486 
L 56.718367 32.715392 
L 58.995918 26.609174 
L 61.273469 23.193689 
L 63.55102 19.930019 
L 65.828571 17.28 
L 68.106122 17.829802 
L 70.383673 18.964938 
L 72.661224 22.689622 
L 74.938776 30.344591 
L 77.216327 31.094936 
L 79.493878 37.654888 
L 81.771429 44.875591 
L 84.04898 48.771046 
L 86.326531 53.206998 
L 88.604082 56.322874 
L 90.881633 59.715707 
L 93.159184 60.928528 
L 95.436735 62.484937 
L 97.714286 63.032641 
L 99.991837 63.829609 
L 102.269388 64.610709 
L 104.546939 64.759933 
L 106.82449 64.93697 
L 109.102041 65.312854 
L 111.379592 65.897658 
L 113.657143 66.142995 
L 115.934694 66.465363 
L 118.212245 66.579891 
L 120.489796 66.642515 
L 122.767347 66.642536 
L 125.044898 66.642536 
L 127.322449 66.642536 
L 129.6 66.642536 
L 129.6 66.642536 
L 129.6 66.642536 
L 127.322449 66.642536 
L 125.044898 66.642536 
L 122.767347 66.642536 
L 120.489796 66.642577 
L 118.212245 66.713146 
L 115.934694 66.803418 
L 113.657143 66.946947 
L 111.379592 66.898255 
L 109.102041 66.812804 
L 106.82449 67.158481 
L 104.546939 67.247049 
L 102.269388 67.144049 
L 99.991837 67.2904 
L 97.714286 67.68 
L 95.436735 67.1992 
L 93.159184 66.415435 
L 90.881633 65.891806 
L 88.604082 63.217486 
L 86.326531 59.664715 
L 84.04898 56.762164 
L 81.771429 51.423005 
L 79.493878 45.447875 
L 77.216327 40.698545 
L 74.938776 33.407754 
L 72.661224 32.420715 
L 70.383673 28.722578 
L 68.106122 25.106259 
L 65.828571 25.80286 
L 63.55102 28.161956 
L 61.273469 30.095719 
L 58.995918 33.330401 
L 56.718367 38.180386 
L 54.440816 43.476096 
L 52.163265 48.648752 
L 49.885714 53.225769 
L 47.608163 56.562356 
L 45.330612 60.248812 
L 43.053061 62.813812 
L 40.77551 64.776266 
L 38.497959 65.758012 
L 36.220408 66.411183 
L 33.942857 66.613694 
L 31.665306 66.681874 
L 29.387755 66.6426 
L 27.110204 66.642536 
L 24.832653 66.642536 
L 22.555102 66.642536 
L 20.277551 66.642536 
L 18 66.642536 
z
" style="fill:#fc8d62;fill-opacity:0.2;"/>
   </g>
   <g id="PolyCollection_2">
    <path clip-path="url(#p4037f583f3)" d="M 18 66.642536 
L 18 66.642536 
L 20.277551 66.642536 
L 22.555102 66.642536 
L 24.832653 66.642536 
L 27.110204 66.642536 
L 29.387755 66.642491 
L 31.665306 66.539481 
L 33.942857 66.218631 
L 36.220408 65.752638 
L 38.497959 65.03837 
L 40.77551 64.123392 
L 43.053061 62.600244 
L 45.330612 60.391504 
L 47.608163 58.019921 
L 49.885714 55.85875 
L 52.163265 52.155752 
L 54.440816 49.47708 
L 56.718367 45.816223 
L 58.995918 42.555602 
L 61.273469 38.358343 
L 63.55102 37.023424 
L 65.828571 34.087431 
L 68.106122 31.240905 
L 70.383673 29.804485 
L 72.661224 28.205952 
L 74.938776 30.791828 
L 77.216327 27.480558 
L 79.493878 30.189629 
L 81.771429 32.339033 
L 84.04898 34.522512 
L 86.326531 38.114756 
L 88.604082 42.894784 
L 90.881633 45.340641 
L 93.159184 48.170473 
L 95.436735 51.931383 
L 97.714286 54.688185 
L 99.991837 57.213868 
L 102.269388 60.107669 
L 104.546939 61.562551 
L 106.82449 62.969847 
L 109.102041 64.377709 
L 111.379592 65.558425 
L 113.657143 66.125652 
L 115.934694 66.366313 
L 118.212245 66.569677 
L 120.489796 66.642527 
L 122.767347 66.642536 
L 125.044898 66.642536 
L 127.322449 66.642536 
L 129.6 66.642536 
L 129.6 66.642536 
L 129.6 66.642536 
L 127.322449 66.642536 
L 125.044898 66.642536 
L 122.767347 66.642536 
L 120.489796 66.64255 
L 118.212245 66.71428 
L 115.934694 66.847172 
L 113.657143 66.752214 
L 111.379592 66.489764 
L 109.102041 65.944073 
L 106.82449 65.208848 
L 104.546939 64.373194 
L 102.269388 63.182724 
L 99.991837 60.598069 
L 97.714286 59.012441 
L 95.436735 56.094449 
L 93.159184 53.359745 
L 90.881633 50.428885 
L 88.604082 48.590278 
L 86.326531 43.925451 
L 84.04898 41.360298 
L 81.771429 39.729281 
L 79.493878 37.815987 
L 77.216327 37.194256 
L 74.938776 33.555974 
L 72.661224 37.080906 
L 70.383673 37.133953 
L 68.106122 37.852181 
L 65.828571 41.349308 
L 63.55102 43.302761 
L 61.273469 44.646741 
L 58.995918 48.303727 
L 56.718367 51.615976 
L 54.440816 53.95897 
L 52.163265 56.653494 
L 49.885714 59.507813 
L 47.608163 60.814525 
L 45.330612 63.3202 
L 43.053061 64.8616 
L 40.77551 65.701157 
L 38.497959 66.158382 
L 36.220408 66.456512 
L 33.942857 66.691889 
L 31.665306 66.682493 
L 29.387755 66.642564 
L 27.110204 66.642536 
L 24.832653 66.642536 
L 22.555102 66.642536 
L 20.277551 66.642536 
L 18 66.642536 
z
" style="fill:#fc8d62;fill-opacity:0.2;"/>
   </g>
   <g id="matplotlib.axis_1">
    <g id="xtick_1">
     <g id="line2d_1">
      <defs>
       <path d="M 0 0 
L 0 3.5 
" id="m7c4c26890c" style="stroke:#a9a9a9;stroke-width:2;"/>
      </defs>
      <g>
       <use style="fill:#a9a9a9;stroke:#a9a9a9;stroke-width:2;" x="29.387755" xlink:href="#m7c4c26890c" y="66.642536"/>
      </g>
     </g>
    </g>
    <g id="xtick_2">
     <g id="line2d_2">
      <g>
       <use style="fill:#a9a9a9;stroke:#a9a9a9;stroke-width:2;" x="52.163265" xlink:href="#m7c4c26890c" y="66.642536"/>
      </g>
     </g>
    </g>
    <g id="xtick_3">
     <g id="line2d_3">
      <g>
       <use style="fill:#a9a9a9;stroke:#a9a9a9;stroke-width:2;" x="74.938776" xlink:href="#m7c4c26890c" y="66.642536"/>
      </g>
     </g>
    </g>
    <g id="xtick_4">
     <g id="line2d_4">
      <g>
       <use style="fill:#a9a9a9;stroke:#a9a9a9;stroke-width:2;" x="97.714286" xlink:href="#m7c4c26890c" y="66.642536"/>
      </g>
     </g>
    </g>
    <g id="xtick_5">
     <g id="line2d_5">
      <g>
       <use style="fill:#a9a9a9;stroke:#a9a9a9;stroke-width:2;" x="120.489796" xlink:href="#m7c4c26890c" y="66.642536"/>
      </g>
     </g>
    </g>
   </g>
   <g id="matplotlib.axis_2"/>
   <g id="line2d_6">
    <path clip-path="url(#p4037f583f3)" d="M 18 66.642536 
L 20.277551 66.642536 
L 22.555102 66.642536 
L 24.832653 66.642536 
L 27.110204 66.642536 
L 29.387755 66.642507 
L 31.665306 66.611835 
L 33.942857 66.429019 
L 36.220408 66.004685 
L 38.497959 65.190199 
L 40.77551 63.984896 
L 43.053061 61.701721 
L 45.330612 58.933638 
L 47.608163 55.175764 
L 49.885714 51.019846 
L 52.163265 45.963866 
L 54.440816 40.749291 
L 56.718367 35.447889 
L 58.995918 29.969788 
L 61.273469 26.644704 
L 63.55102 24.045988 
L 65.828571 21.54143 
L 68.106122 21.46803 
L 70.383673 23.843758 
L 72.661224 27.555169 
L 74.938776 31.876173 
L 77.216327 35.896741 
L 79.493878 41.551382 
L 81.771429 48.149298 
L 84.04898 52.766605 
L 86.326531 56.435857 
L 88.604082 59.77018 
L 90.881633 62.803756 
L 93.159184 63.671982 
L 95.436735 64.842068 
L 97.714286 65.356321 
L 99.991837 65.560004 
L 102.269388 65.877379 
L 104.546939 66.003491 
L 106.82449 66.047725 
L 109.102041 66.062829 
L 111.379592 66.397956 
L 113.657143 66.544971 
L 115.934694 66.634391 
L 118.212245 66.646518 
L 120.489796 66.642546 
L 122.767347 66.642536 
L 125.044898 66.642536 
L 127.322449 66.642536 
L 129.6 66.642536 
" style="fill:none;stroke:#fc8d62;stroke-linecap:square;stroke-width:2;"/>
   </g>
   <g id="line2d_7">
    <path clip-path="url(#p4037f583f3)" d="M 18 66.642536 
L 20.277551 66.642536 
L 22.555102 66.642536 
L 24.832653 66.642536 
L 27.110204 66.642536 
L 29.387755 66.642527 
L 31.665306 66.610987 
L 33.942857 66.45526 
L 36.220408 66.104575 
L 38.497959 65.598376 
L 40.77551 64.912275 
L 43.053061 63.730922 
L 45.330612 61.855852 
L 47.608163 59.417223 
L 49.885714 57.683282 
L 52.163265 54.404623 
L 54.440816 51.718025 
L 56.718367 48.7161 
L 58.995918 45.429665 
L 61.273469 41.502542 
L 63.55102 40.163092 
L 65.828571 37.718369 
L 68.106122 34.546543 
L 70.383673 33.469219 
L 72.661224 32.643429 
L 74.938776 32.173901 
L 77.216327 32.337407 
L 79.493878 34.002808 
L 81.771429 36.034157 
L 84.04898 37.941405 
L 86.326531 41.020104 
L 88.604082 45.742531 
L 90.881633 47.884763 
L 93.159184 50.765109 
L 95.436735 54.012916 
L 97.714286 56.850313 
L 99.991837 58.905969 
L 102.269388 61.645196 
L 104.546939 62.967873 
L 106.82449 64.089348 
L 109.102041 65.160891 
L 111.379592 66.024094 
L 113.657143 66.438933 
L 115.934694 66.606742 
L 118.212245 66.641979 
L 120.489796 66.642539 
L 122.767347 66.642536 
L 125.044898 66.642536 
L 127.322449 66.642536 
L 129.6 66.642536 
" style="fill:none;stroke:#fc8d62;stroke-dasharray:1.5,1.5;stroke-dashoffset:0;stroke-opacity:0.7;stroke-width:1.5;"/>
   </g>
   <g id="patch_3">
    <path d="M 74.938776 67.68 
L 74.938776 17.28 
" style="fill:none;stroke:#a9a9a9;stroke-linecap:square;stroke-linejoin:miter;stroke-width:2;"/>
   </g>
   <g id="patch_4">
    <path d="M 129.6 67.68 
L 129.6 17.28 
" style="fill:none;"/>
   </g>
   <g id="patch_5">
    <path d="M 18 66.642536 
L 129.6 66.642536 
" style="fill:none;stroke:#a9a9a9;stroke-linecap:square;stroke-linejoin:miter;stroke-width:2;"/>
   </g>
   <g id="patch_6">
    <path d="M 18 17.28 
L 129.6 17.28 
" style="fill:none;"/>
   </g>
   <g id="legend_1">
    <g id="line2d_8">
     <path d="M 101.475312 26.448906 
L 115.475312 26.448906 
" style="fill:none;stroke:#fc8d62;stroke-linecap:square;stroke-width:2;"/>
    </g>
    <g id="line2d_9"/>
    <g id="text_1">
     <!--   -->
     <g transform="translate(121.075312 28.898906)scale(0.07 -0.07)">
      <defs>
       <path id="DejaVuSans-32"/>
      </defs>
      <use xlink:href="#DejaVuSans-32"/>
     </g>
    </g>
    <g id="line2d_10">
     <path d="M 101.475312 36.723594 
L 115.475312 36.723594 
" style="fill:none;stroke:#fc8d62;stroke-dasharray:1.5,1.5;stroke-dashoffset:0;stroke-opacity:0.7;stroke-width:1.5;"/>
    </g>
    <g id="line2d_11"/>
    <g id="text_2">
     <!--   -->
     <g transform="translate(121.075312 39.173594)scale(0.07 -0.07)">
      <use xlink:href="#DejaVuSans-32"/>
     </g>
    </g>
   </g>
  </g>
  <g id="axes_2">
   <g id="patch_7">
    <path d="M 18 128.16 
L 129.6 128.16 
L 129.6 77.76 
L 18 77.76 
z
" style="fill:none;"/>
   </g>
   <g id="PolyCollection_3">
    <path clip-path="url(#pfc4dbbc02c)" d="M 18 120.555758 
L 18 120.475577 
L 20.277551 120.684733 
L 22.555102 120.757751 
L 24.832653 120.698006 
L 27.110204 120.547754 
L 29.387755 120.376558 
L 31.665306 120.226144 
L 33.942857 119.957966 
L 36.220408 119.413322 
L 38.497959 118.466207 
L 40.77551 117.024994 
L 43.053061 115.037562 
L 45.330612 112.495462 
L 47.608163 109.430404 
L 49.885714 105.910215 
L 52.163265 102.035358 
L 54.440816 97.935351 
L 56.718367 93.76461 
L 58.995918 89.697729 
L 61.273469 85.924136 
L 63.55102 82.642454 
L 65.828571 80.054975 
L 68.106122 78.362524 
L 70.383673 77.76 
L 72.661224 78.432755 
L 74.938776 80.547116 
L 77.216327 84.180741 
L 79.493878 88.9586 
L 81.771429 94.446931 
L 84.04898 100.240186 
L 86.326531 105.981609 
L 88.604082 111.372655 
L 90.881633 116.178195 
L 93.159184 120.228649 
L 95.436735 123.419703 
L 97.714286 125.711704 
L 99.991837 127.125648 
L 102.269388 127.73259 
L 104.546939 127.640049 
L 106.82449 126.981187 
L 109.102041 125.906095 
L 111.379592 124.574096 
L 113.657143 123.146863 
L 115.934694 121.782828 
L 118.212245 120.634865 
L 120.489796 119.853378 
L 122.767347 119.537705 
L 125.044898 119.582168 
L 127.322449 119.836289 
L 129.6 120.168687 
L 129.6 120.27589 
L 129.6 120.27589 
L 127.322449 119.968985 
L 125.044898 119.733966 
L 122.767347 119.699862 
L 120.489796 120.019536 
L 118.212245 120.810881 
L 115.934694 121.987922 
L 113.657143 123.399051 
L 111.379592 124.880129 
L 109.102041 126.261752 
L 106.82449 127.37494 
L 104.546939 128.057142 
L 102.269388 128.16 
L 99.991837 127.55859 
L 97.714286 126.160851 
L 95.436735 123.914896 
L 93.159184 120.812289 
L 90.881633 116.892161 
L 88.604082 112.249115 
L 86.326531 107.040626 
L 84.04898 101.489637 
L 81.771429 95.883309 
L 79.493878 90.567543 
L 77.216327 85.937622 
L 74.938776 82.417773 
L 72.661224 80.375557 
L 70.383673 79.729963 
L 68.106122 80.314344 
L 65.828571 81.945056 
L 63.55102 84.430788 
L 61.273469 87.576034 
L 58.995918 91.185336 
L 56.718367 95.068117 
L 54.440816 99.043875 
L 52.163265 102.947369 
L 49.885714 106.633528 
L 47.608163 109.981817 
L 45.330612 112.899931 
L 43.053061 115.327081 
L 40.77551 117.236217 
L 38.497959 118.634272 
L 36.220408 119.561152 
L 33.942857 120.094365 
L 31.665306 120.35209 
L 29.387755 120.489917 
L 27.110204 120.643367 
L 24.832653 120.772941 
L 22.555102 120.816646 
L 20.277551 120.744908 
L 18 120.555758 
z
" style="fill:#66c2a5;fill-opacity:0.2;"/>
   </g>
   <g id="matplotlib.axis_3">
    <g id="xtick_6">
     <g id="line2d_12">
      <g>
       <use style="fill:#a9a9a9;stroke:#a9a9a9;stroke-width:2;" x="29.387755" xlink:href="#m7c4c26890c" y="122.266633"/>
      </g>
     </g>
    </g>
    <g id="xtick_7">
     <g id="line2d_13">
      <g>
       <use style="fill:#a9a9a9;stroke:#a9a9a9;stroke-width:2;" x="52.163265" xlink:href="#m7c4c26890c" y="122.266633"/>
      </g>
     </g>
    </g>
    <g id="xtick_8">
     <g id="line2d_14">
      <g>
       <use style="fill:#a9a9a9;stroke:#a9a9a9;stroke-width:2;" x="74.938776" xlink:href="#m7c4c26890c" y="122.266633"/>
      </g>
     </g>
    </g>
    <g id="xtick_9">
     <g id="line2d_15">
      <g>
       <use style="fill:#a9a9a9;stroke:#a9a9a9;stroke-width:2;" x="97.714286" xlink:href="#m7c4c26890c" y="122.266633"/>
      </g>
     </g>
    </g>
    <g id="xtick_10">
     <g id="line2d_16">
      <g>
       <use style="fill:#a9a9a9;stroke:#a9a9a9;stroke-width:2;" x="120.489796" xlink:href="#m7c4c26890c" y="122.266633"/>
      </g>
     </g>
    </g>
   </g>
   <g id="matplotlib.axis_4"/>
   <g id="line2d_17">
    <path clip-path="url(#pfc4dbbc02c)" d="M 18 120.515667 
L 20.277551 120.71482 
L 22.555102 120.787198 
L 24.832653 120.735473 
L 27.110204 120.59556 
L 29.387755 120.433238 
L 31.665306 120.289117 
L 33.942857 120.026165 
L 36.220408 119.487237 
L 38.497959 118.550239 
L 40.77551 117.130606 
L 43.053061 115.182321 
L 45.330612 112.697697 
L 47.608163 109.70611 
L 49.885714 106.271872 
L 52.163265 102.491363 
L 54.440816 98.489613 
L 56.718367 94.416363 
L 58.995918 90.441532 
L 61.273469 86.750085 
L 63.55102 83.536621 
L 65.828571 81.000015 
L 68.106122 79.338434 
L 70.383673 78.744981 
L 72.661224 79.404156 
L 74.938776 81.482444 
L 77.216327 85.059181 
L 79.493878 89.763071 
L 81.771429 95.16512 
L 84.04898 100.864912 
L 86.326531 106.511117 
L 88.604082 111.810885 
L 90.881633 116.535178 
L 93.159184 120.520469 
L 95.436735 123.6673 
L 97.714286 125.936277 
L 99.991837 127.342119 
L 102.269388 127.946295 
L 104.546939 127.848595 
L 106.82449 127.178064 
L 109.102041 126.083923 
L 111.379592 124.727113 
L 113.657143 123.272957 
L 115.934694 121.885375 
L 118.212245 120.722873 
L 120.489796 119.936457 
L 122.767347 119.618783 
L 125.044898 119.658067 
L 127.322449 119.902637 
L 129.6 120.222289 
" style="fill:none;stroke:#66c2a5;stroke-linecap:square;stroke-width:2;"/>
   </g>
   <g id="patch_8">
    <path d="M 74.938776 128.16 
L 74.938776 77.76 
" style="fill:none;stroke:#a9a9a9;stroke-linecap:square;stroke-linejoin:miter;stroke-width:2;"/>
   </g>
   <g id="patch_9">
    <path d="M 129.6 128.16 
L 129.6 77.76 
" style="fill:none;"/>
   </g>
   <g id="patch_10">
    <path d="M 18 122.266633 
L 129.6 122.266633 
" style="fill:none;stroke:#a9a9a9;stroke-linecap:square;stroke-linejoin:miter;stroke-width:2;"/>
   </g>
   <g id="patch_11">
    <path d="M 18 77.76 
L 129.6 77.76 
" style="fill:none;"/>
   </g>
   <g id="legend_2">
    <g id="line2d_18">
     <path d="M 101.475312 86.928906 
L 115.475312 86.928906 
" style="fill:none;stroke:#66c2a5;stroke-linecap:square;stroke-width:2;"/>
    </g>
    <g id="line2d_19"/>
    <g id="text_3">
     <!--   -->
     <g transform="translate(121.075312 89.378906)scale(0.07 -0.07)">
      <use xlink:href="#DejaVuSans-32"/>
     </g>
    </g>
   </g>
  </g>
 </g>
 <defs>
  <clipPath id="p4037f583f3">
   <rect height="50.4" width="111.6" x="18" y="17.28"/>
  </clipPath>
  <clipPath id="pfc4dbbc02c">
   <rect height="50.4" width="111.6" x="18" y="77.76"/>
  </clipPath>
 </defs>
</svg>
