<?xml version="1.0" encoding="utf-8" standalone="no"?>
<!DOCTYPE svg PUBLIC "-//W3C//DTD SVG 1.1//EN"
  "http://www.w3.org/Graphics/SVG/1.1/DTD/svg11.dtd">
<!-- Created with matplotlib (https://matplotlib.org/) -->
<svg height="144pt" version="1.1" viewBox="0 0 144 144" width="144pt" xmlns="http://www.w3.org/2000/svg" xmlns:xlink="http://www.w3.org/1999/xlink">
 <metadata>
  <rdf:RDF xmlns:cc="http://creativecommons.org/ns#" xmlns:dc="http://purl.org/dc/elements/1.1/" xmlns:rdf="http://www.w3.org/1999/02/22-rdf-syntax-ns#">
   <cc:Work>
    <dc:type rdf:resource="http://purl.org/dc/dcmitype/StillImage"/>
    <dc:date>2021-10-13T14:08:21.271115</dc:date>
    <dc:format>image/svg+xml</dc:format>
    <dc:creator>
     <cc:Agent>
      <dc:title>Matplotlib v3.3.2, https://matplotlib.org/</dc:title>
     </cc:Agent>
    </dc:creator>
   </cc:Work>
  </rdf:RDF>
 </metadata>
 <defs>
  <style type="text/css">*{stroke-linecap:butt;stroke-linejoin:round;}</style>
 </defs>
 <g id="figure_1">
  <g id="patch_1">
   <path d="M 0 144 
L 144 144 
L 144 0 
L 0 0 
z
" style="fill:none;"/>
  </g>
  <g id="axes_1">
   <g id="patch_2">
    <path d="M 18 67.68 
L 129.6 67.68 
L 129.6 17.28 
L 18 17.28 
z
" style="fill:none;"/>
   </g>
   <g id="PolyCollection_1">
    <path clip-path="url(#p64fc9216e0)" d="M 18 66.659097 
L 18 66.659097 
L 20.277551 66.659097 
L 22.555102 66.659097 
L 24.832653 66.659097 
L 27.110204 66.659097 
L 29.387755 66.659097 
L 31.665306 66.596487 
L 33.942857 65.614492 
L 36.220408 65.520253 
L 38.497959 64.731529 
L 40.77551 62.735026 
L 43.053061 60.741715 
L 45.330612 56.617428 
L 47.608163 53.734791 
L 49.885714 49.341195 
L 52.163265 47.4918 
L 54.440816 41.141215 
L 56.718367 38.477876 
L 58.995918 32.613679 
L 61.273469 29.427051 
L 63.55102 19.970114 
L 65.828571 24.177489 
L 68.106122 19.579701 
L 70.383673 18.242187 
L 72.661224 17.28 
L 74.938776 29.271565 
L 77.216327 21.356914 
L 79.493878 28.146468 
L 81.771429 25.342059 
L 84.04898 33.444464 
L 86.326531 39.731607 
L 88.604082 40.604612 
L 90.881633 44.275694 
L 93.159184 46.088511 
L 95.436735 54.533827 
L 97.714286 54.121353 
L 99.991837 55.009977 
L 102.269388 57.500654 
L 104.546939 60.400225 
L 106.82449 61.232427 
L 109.102041 62.261794 
L 111.379592 63.48418 
L 113.657143 65.955544 
L 115.934694 66.322065 
L 118.212245 66.655495 
L 120.489796 66.659097 
L 122.767347 66.659097 
L 125.044898 66.659097 
L 127.322449 66.659097 
L 129.6 66.659097 
L 129.6 66.659097 
L 129.6 66.659097 
L 127.322449 66.659097 
L 125.044898 66.659097 
L 122.767347 66.659097 
L 120.489796 66.659097 
L 118.212245 66.661951 
L 115.934694 67.08531 
L 113.657143 66.988442 
L 111.379592 67.239724 
L 109.102041 67.650524 
L 106.82449 67.024247 
L 104.546939 67.68 
L 102.269388 67.482621 
L 99.991837 66.954256 
L 97.714286 66.168481 
L 95.436735 64.568374 
L 93.159184 61.340553 
L 90.881633 58.505284 
L 88.604082 58.133439 
L 86.326531 57.574543 
L 84.04898 52.758929 
L 81.771429 52.134222 
L 79.493878 47.613421 
L 77.216327 46.841526 
L 74.938776 43.515981 
L 72.661224 48.44721 
L 70.383673 41.94867 
L 68.106122 44.810597 
L 65.828571 43.727106 
L 63.55102 42.641967 
L 61.273469 48.366521 
L 58.995918 52.077127 
L 56.718367 55.10426 
L 54.440816 54.019235 
L 52.163265 59.486318 
L 49.885714 61.012066 
L 47.608163 63.731444 
L 45.330612 65.833498 
L 43.053061 67.020637 
L 40.77551 67.403795 
L 38.497959 67.623696 
L 36.220408 67.067392 
L 33.942857 67.241752 
L 31.665306 66.700516 
L 29.387755 66.659097 
L 27.110204 66.659097 
L 24.832653 66.659097 
L 22.555102 66.659097 
L 20.277551 66.659097 
L 18 66.659097 
z
" style="fill:#fc8d62;fill-opacity:0.2;"/>
   </g>
   <g id="PolyCollection_2">
    <path clip-path="url(#p64fc9216e0)" d="M 18 66.659097 
L 18 66.659097 
L 20.277551 66.659097 
L 22.555102 66.659097 
L 24.832653 66.659097 
L 27.110204 66.659097 
L 29.387755 66.659097 
L 31.665306 66.650594 
L 33.942857 66.344586 
L 36.220408 65.393667 
L 38.497959 64.988562 
L 40.77551 62.46144 
L 43.053061 60.999778 
L 45.330612 58.528596 
L 47.608163 54.610264 
L 49.885714 52.220686 
L 52.163265 51.284652 
L 54.440816 47.33522 
L 56.718367 43.962205 
L 58.995918 39.66845 
L 61.273469 36.208018 
L 63.55102 34.862597 
L 65.828571 30.510837 
L 68.106122 27.675684 
L 70.383673 25.876175 
L 72.661224 25.270782 
L 74.938776 29.662207 
L 77.216327 21.412102 
L 79.493878 23.814994 
L 81.771429 30.852702 
L 84.04898 30.714145 
L 86.326531 33.556426 
L 88.604082 37.23354 
L 90.881633 42.08556 
L 93.159184 39.739244 
L 95.436735 46.519471 
L 97.714286 49.481898 
L 99.991837 54.083113 
L 102.269388 55.74828 
L 104.546939 58.304388 
L 106.82449 60.592998 
L 109.102041 62.385179 
L 111.379592 64.803643 
L 113.657143 65.11059 
L 115.934694 65.681569 
L 118.212245 66.492885 
L 120.489796 66.659097 
L 122.767347 66.659097 
L 125.044898 66.659097 
L 127.322449 66.659097 
L 129.6 66.659097 
L 129.6 66.659097 
L 129.6 66.659097 
L 127.322449 66.659097 
L 125.044898 66.659097 
L 122.767347 66.659097 
L 120.489796 66.659097 
L 118.212245 66.77549 
L 115.934694 67.172499 
L 113.657143 67.36262 
L 111.379592 67.223903 
L 109.102041 67.704642 
L 106.82449 67.042889 
L 104.546939 65.94461 
L 102.269388 65.83709 
L 99.991837 63.852565 
L 97.714286 61.370401 
L 95.436735 58.647257 
L 93.159184 57.787536 
L 90.881633 57.107974 
L 88.604082 53.704979 
L 86.326531 50.389927 
L 84.04898 50.443782 
L 81.771429 48.110802 
L 79.493878 46.160721 
L 77.216327 42.906532 
L 74.938776 42.623839 
L 72.661224 44.704321 
L 70.383673 47.191874 
L 68.106122 45.407233 
L 65.828571 50.408072 
L 63.55102 48.962698 
L 61.273469 53.674643 
L 58.995918 56.47739 
L 56.718367 60.689075 
L 54.440816 61.768393 
L 52.163265 63.036226 
L 49.885714 63.023842 
L 47.608163 64.114092 
L 45.330612 66.86195 
L 43.053061 66.782251 
L 40.77551 67.610209 
L 38.497959 67.321924 
L 36.220408 67.364257 
L 33.942857 67.041197 
L 31.665306 66.668003 
L 29.387755 66.659097 
L 27.110204 66.659097 
L 24.832653 66.659097 
L 22.555102 66.659097 
L 20.277551 66.659097 
L 18 66.659097 
z
" style="fill:#fc8d62;fill-opacity:0.2;"/>
   </g>
   <g id="matplotlib.axis_1">
    <g id="xtick_1">
     <g id="line2d_1">
      <defs>
       <path d="M 0 0 
L 0 3.5 
" id="m32b2975fcf" style="stroke:#a9a9a9;stroke-width:2;"/>
      </defs>
      <g>
       <use style="fill:#a9a9a9;stroke:#a9a9a9;stroke-width:2;" x="29.387755" xlink:href="#m32b2975fcf" y="66.659097"/>
      </g>
     </g>
    </g>
    <g id="xtick_2">
     <g id="line2d_2">
      <g>
       <use style="fill:#a9a9a9;stroke:#a9a9a9;stroke-width:2;" x="52.163265" xlink:href="#m32b2975fcf" y="66.659097"/>
      </g>
     </g>
    </g>
    <g id="xtick_3">
     <g id="line2d_3">
      <g>
       <use style="fill:#a9a9a9;stroke:#a9a9a9;stroke-width:2;" x="74.938776" xlink:href="#m32b2975fcf" y="66.659097"/>
      </g>
     </g>
    </g>
    <g id="xtick_4">
     <g id="line2d_4">
      <g>
       <use style="fill:#a9a9a9;stroke:#a9a9a9;stroke-width:2;" x="97.714286" xlink:href="#m32b2975fcf" y="66.659097"/>
      </g>
     </g>
    </g>
    <g id="xtick_5">
     <g id="line2d_5">
      <g>
       <use style="fill:#a9a9a9;stroke:#a9a9a9;stroke-width:2;" x="120.489796" xlink:href="#m32b2975fcf" y="66.659097"/>
      </g>
     </g>
    </g>
   </g>
   <g id="matplotlib.axis_2"/>
   <g id="line2d_6">
    <path clip-path="url(#p64fc9216e0)" d="M 18 66.659097 
L 20.277551 66.659097 
L 22.555102 66.659097 
L 24.832653 66.659097 
L 27.110204 66.659097 
L 29.387755 66.659097 
L 31.665306 66.648502 
L 33.942857 66.428122 
L 36.220408 66.293822 
L 38.497959 66.177612 
L 40.77551 65.069411 
L 43.053061 63.881176 
L 45.330612 61.225463 
L 47.608163 58.733118 
L 49.885714 55.176631 
L 52.163265 53.489059 
L 54.440816 47.580225 
L 56.718367 46.791068 
L 58.995918 42.345403 
L 61.273469 38.896786 
L 63.55102 31.30604 
L 65.828571 33.952297 
L 68.106122 32.195149 
L 70.383673 30.095428 
L 72.661224 32.863605 
L 74.938776 36.393773 
L 77.216327 34.09922 
L 79.493878 37.879945 
L 81.771429 38.738141 
L 84.04898 43.101696 
L 86.326531 48.653075 
L 88.604082 49.369026 
L 90.881633 51.390489 
L 93.159184 53.714532 
L 95.436735 59.551101 
L 97.714286 60.144917 
L 99.991837 60.982117 
L 102.269388 62.491637 
L 104.546939 64.040112 
L 106.82449 64.128337 
L 109.102041 64.956159 
L 111.379592 65.361952 
L 113.657143 66.471993 
L 115.934694 66.703688 
L 118.212245 66.658723 
L 120.489796 66.659097 
L 122.767347 66.659097 
L 125.044898 66.659097 
L 127.322449 66.659097 
L 129.6 66.659097 
" style="fill:none;stroke:#fc8d62;stroke-linecap:square;stroke-width:2;"/>
   </g>
   <g id="line2d_7">
    <path clip-path="url(#p64fc9216e0)" d="M 18 66.659097 
L 20.277551 66.659097 
L 22.555102 66.659097 
L 24.832653 66.659097 
L 27.110204 66.659097 
L 29.387755 66.659097 
L 31.665306 66.659298 
L 33.942857 66.692891 
L 36.220408 66.378962 
L 38.497959 66.155243 
L 40.77551 65.035824 
L 43.053061 63.891014 
L 45.330612 62.695273 
L 47.608163 59.362178 
L 49.885714 57.622264 
L 52.163265 57.160439 
L 54.440816 54.551806 
L 56.718367 52.32564 
L 58.995918 48.07292 
L 61.273469 44.941331 
L 63.55102 41.912648 
L 65.828571 40.459454 
L 68.106122 36.541459 
L 70.383673 36.534024 
L 72.661224 34.987551 
L 74.938776 36.143023 
L 77.216327 32.159317 
L 79.493878 34.987857 
L 81.771429 39.481752 
L 84.04898 40.578963 
L 86.326531 41.973176 
L 88.604082 45.46926 
L 90.881633 49.596767 
L 93.159184 48.76339 
L 95.436735 52.583364 
L 97.714286 55.426149 
L 99.991837 58.967839 
L 102.269388 60.792685 
L 104.546939 62.124499 
L 106.82449 63.817944 
L 109.102041 65.044911 
L 111.379592 66.013773 
L 113.657143 66.236605 
L 115.934694 66.427034 
L 118.212245 66.634188 
L 120.489796 66.659097 
L 122.767347 66.659097 
L 125.044898 66.659097 
L 127.322449 66.659097 
L 129.6 66.659097 
" style="fill:none;stroke:#fc8d62;stroke-dasharray:1.5,1.5;stroke-dashoffset:0;stroke-opacity:0.7;stroke-width:1.5;"/>
   </g>
   <g id="patch_3">
    <path d="M 74.938776 67.68 
L 74.938776 17.28 
" style="fill:none;stroke:#a9a9a9;stroke-linecap:square;stroke-linejoin:miter;stroke-width:2;"/>
   </g>
   <g id="patch_4">
    <path d="M 129.6 67.68 
L 129.6 17.28 
" style="fill:none;"/>
   </g>
   <g id="patch_5">
    <path d="M 18 66.659097 
L 129.6 66.659097 
" style="fill:none;stroke:#a9a9a9;stroke-linecap:square;stroke-linejoin:miter;stroke-width:2;"/>
   </g>
   <g id="patch_6">
    <path d="M 18 17.28 
L 129.6 17.28 
" style="fill:none;"/>
   </g>
   <g id="legend_1">
    <g id="line2d_8">
     <path d="M 87.67 26.448906 
L 101.67 26.448906 
" style="fill:none;stroke:#fc8d62;stroke-linecap:square;stroke-width:2;"/>
    </g>
    <g id="line2d_9"/>
    <g id="text_1">
     <!-- $\theta$ -->
     <g transform="translate(107.27 28.898906)scale(0.07 -0.07)">
      <defs>
       <path d="M 45.515625 34.671875 
L 14.453125 34.671875 
Q 12.359375 20.0625 14.5 13.875 
Q 17.1875 6.25 24.46875 6.25 
Q 31.78125 6.25 37.359375 13.921875 
Q 42.234375 20.65625 45.515625 34.671875 
z
M 47.015625 42.96875 
Q 48.34375 56.84375 46.625 61.71875 
Q 43.953125 69.4375 36.765625 69.4375 
Q 29.296875 69.4375 23.828125 61.8125 
Q 19.53125 55.671875 16.15625 42.96875 
z
M 38.1875 76.765625 
Q 49.90625 76.765625 54.59375 66.40625 
Q 59.28125 56.109375 55.71875 37.84375 
Q 52.203125 19.625 43.453125 9.28125 
Q 34.765625 -1.125 23.046875 -1.125 
Q 11.28125 -1.125 6.640625 9.28125 
Q 2 19.625 5.515625 37.84375 
Q 9.078125 56.109375 17.71875 66.40625 
Q 26.421875 76.765625 38.1875 76.765625 
z
" id="DejaVuSans-Oblique-952"/>
      </defs>
      <use transform="translate(0 0.234375)" xlink:href="#DejaVuSans-Oblique-952"/>
     </g>
    </g>
    <g id="line2d_10">
     <path d="M 87.67 36.723594 
L 101.67 36.723594 
" style="fill:none;stroke:#fc8d62;stroke-dasharray:1.5,1.5;stroke-dashoffset:0;stroke-opacity:0.7;stroke-width:1.5;"/>
    </g>
    <g id="line2d_11"/>
    <g id="text_2">
     <!-- No $\theta$ -->
     <g transform="translate(107.27 39.173594)scale(0.07 -0.07)">
      <defs>
       <path d="M 9.8125 72.90625 
L 23.09375 72.90625 
L 55.421875 11.921875 
L 55.421875 72.90625 
L 64.984375 72.90625 
L 64.984375 0 
L 51.703125 0 
L 19.390625 60.984375 
L 19.390625 0 
L 9.8125 0 
z
" id="DejaVuSans-78"/>
       <path d="M 30.609375 48.390625 
Q 23.390625 48.390625 19.1875 42.75 
Q 14.984375 37.109375 14.984375 27.296875 
Q 14.984375 17.484375 19.15625 11.84375 
Q 23.34375 6.203125 30.609375 6.203125 
Q 37.796875 6.203125 41.984375 11.859375 
Q 46.1875 17.53125 46.1875 27.296875 
Q 46.1875 37.015625 41.984375 42.703125 
Q 37.796875 48.390625 30.609375 48.390625 
z
M 30.609375 56 
Q 42.328125 56 49.015625 48.375 
Q 55.71875 40.765625 55.71875 27.296875 
Q 55.71875 13.875 49.015625 6.21875 
Q 42.328125 -1.421875 30.609375 -1.421875 
Q 18.84375 -1.421875 12.171875 6.21875 
Q 5.515625 13.875 5.515625 27.296875 
Q 5.515625 40.765625 12.171875 48.375 
Q 18.84375 56 30.609375 56 
z
" id="DejaVuSans-111"/>
       <path id="DejaVuSans-32"/>
      </defs>
      <use transform="translate(0 0.234375)" xlink:href="#DejaVuSans-78"/>
      <use transform="translate(74.804688 0.234375)" xlink:href="#DejaVuSans-111"/>
      <use transform="translate(135.986328 0.234375)" xlink:href="#DejaVuSans-32"/>
      <use transform="translate(167.773438 0.234375)" xlink:href="#DejaVuSans-Oblique-952"/>
     </g>
    </g>
   </g>
  </g>
  <g id="axes_2">
   <g id="patch_7">
    <path d="M 18 128.16 
L 129.6 128.16 
L 129.6 77.76 
L 18 77.76 
z
" style="fill:none;"/>
   </g>
   <g id="PolyCollection_3">
    <path clip-path="url(#p8b0d5aa0bc)" d="M 18 120.568647 
L 18 120.491873 
L 20.277551 120.708567 
L 22.555102 120.769819 
L 24.832653 120.68438 
L 27.110204 120.501117 
L 29.387755 120.298167 
L 31.665306 120.124849 
L 33.942857 119.840448 
L 36.220408 119.282936 
L 38.497959 118.324527 
L 40.77551 116.873397 
L 43.053061 114.878047 
L 45.330612 112.330313 
L 47.608163 109.262133 
L 49.885714 105.741741 
L 52.163265 101.870014 
L 54.440816 97.776592 
L 56.718367 93.615919 
L 58.995918 89.56255 
L 61.273469 85.805986 
L 63.55102 82.54514 
L 65.828571 79.98309 
L 68.106122 78.322202 
L 70.383673 77.76 
L 72.661224 78.485887 
L 74.938776 80.668673 
L 77.216327 84.398792 
L 79.493878 89.275156 
L 81.771429 94.850282 
L 84.04898 100.706317 
L 86.326531 106.479112 
L 88.604082 111.867356 
L 90.881633 116.637289 
L 93.159184 120.623969 
L 95.436735 123.730195 
L 97.714286 125.924503 
L 99.991837 127.235305 
L 102.269388 127.740105 
L 104.546939 127.552344 
L 106.82449 126.810549 
L 109.102041 125.669148 
L 111.379592 124.290485 
L 113.657143 122.83789 
L 115.934694 121.47045 
L 118.212245 120.341197 
L 120.489796 119.600603 
L 122.767347 119.345654 
L 125.044898 119.458104 
L 127.322449 119.77502 
L 129.6 120.15601 
L 129.6 120.258811 
L 129.6 120.258811 
L 127.322449 119.903124 
L 125.044898 119.605735 
L 122.767347 119.504405 
L 120.489796 119.763719 
L 118.212245 120.513121 
L 115.934694 121.669136 
L 113.657143 123.08099 
L 111.379592 124.585246 
L 109.102041 126.012366 
L 106.82449 127.192015 
L 104.546939 127.958846 
L 102.269388 128.16 
L 99.991837 127.664191 
L 97.714286 126.371166 
L 95.436735 124.219853 
L 93.159184 121.193199 
L 90.881633 117.323516 
L 88.604082 112.700209 
L 86.326531 107.477594 
L 84.04898 101.878534 
L 81.771429 96.193918 
L 79.493878 90.77791 
L 77.216327 86.038862 
L 74.938776 82.415398 
L 72.661224 80.301738 
L 70.383673 79.603688 
L 68.106122 80.151685 
L 65.828571 81.757541 
L 63.55102 84.226777 
L 61.273469 87.361755 
L 58.995918 90.965654 
L 56.718367 94.84704 
L 54.440816 98.824897 
L 52.163265 102.73358 
L 49.885714 106.42764 
L 47.608163 109.786004 
L 45.330612 112.715788 
L 43.053061 115.15536 
L 40.77551 117.076679 
L 38.497959 118.486199 
L 36.220408 119.424698 
L 33.942857 119.971309 
L 31.665306 120.246391 
L 29.387755 120.408674 
L 27.110204 120.595526 
L 24.832653 120.759389 
L 22.555102 120.828945 
L 20.277551 120.767248 
L 18 120.568647 
z
" style="fill:#66c2a5;fill-opacity:0.2;"/>
   </g>
   <g id="matplotlib.axis_3">
    <g id="xtick_6">
     <g id="line2d_12">
      <g>
       <use style="fill:#a9a9a9;stroke:#a9a9a9;stroke-width:2;" x="29.387755" xlink:href="#m32b2975fcf" y="122.212445"/>
      </g>
     </g>
    </g>
    <g id="xtick_7">
     <g id="line2d_13">
      <g>
       <use style="fill:#a9a9a9;stroke:#a9a9a9;stroke-width:2;" x="52.163265" xlink:href="#m32b2975fcf" y="122.212445"/>
      </g>
     </g>
    </g>
    <g id="xtick_8">
     <g id="line2d_14">
      <g>
       <use style="fill:#a9a9a9;stroke:#a9a9a9;stroke-width:2;" x="74.938776" xlink:href="#m32b2975fcf" y="122.212445"/>
      </g>
     </g>
    </g>
    <g id="xtick_9">
     <g id="line2d_15">
      <g>
       <use style="fill:#a9a9a9;stroke:#a9a9a9;stroke-width:2;" x="97.714286" xlink:href="#m32b2975fcf" y="122.212445"/>
      </g>
     </g>
    </g>
    <g id="xtick_10">
     <g id="line2d_16">
      <g>
       <use style="fill:#a9a9a9;stroke:#a9a9a9;stroke-width:2;" x="120.489796" xlink:href="#m32b2975fcf" y="122.212445"/>
      </g>
     </g>
    </g>
   </g>
   <g id="matplotlib.axis_4"/>
   <g id="line2d_17">
    <path clip-path="url(#p8b0d5aa0bc)" d="M 18 120.53026 
L 20.277551 120.737908 
L 22.555102 120.799382 
L 24.832653 120.721884 
L 27.110204 120.548321 
L 29.387755 120.35342 
L 31.665306 120.18562 
L 33.942857 119.905878 
L 36.220408 119.353817 
L 38.497959 118.405363 
L 40.77551 116.975038 
L 43.053061 115.016703 
L 45.330612 112.523051 
L 47.608163 109.524069 
L 49.885714 106.08469 
L 52.163265 102.301797 
L 54.440816 98.300744 
L 56.718367 94.231479 
L 58.995918 90.264102 
L 61.273469 86.58387 
L 63.55102 83.385958 
L 65.828571 80.870316 
L 68.106122 79.236943 
L 70.383673 78.681844 
L 72.661224 79.393813 
L 74.938776 81.542036 
L 77.216327 85.218827 
L 79.493878 90.026533 
L 81.771429 95.5221 
L 84.04898 101.292426 
L 86.326531 106.978353 
L 88.604082 112.283782 
L 90.881633 116.980403 
L 93.159184 120.908584 
L 95.436735 123.975024 
L 97.714286 126.147835 
L 99.991837 127.449748 
L 102.269388 127.950053 
L 104.546939 127.755595 
L 106.82449 127.001282 
L 109.102041 125.840757 
L 111.379592 124.437865 
L 113.657143 122.95944 
L 115.934694 121.569793 
L 118.212245 120.427159 
L 120.489796 119.682161 
L 122.767347 119.425029 
L 125.044898 119.53192 
L 127.322449 119.839072 
L 129.6 120.207411 
" style="fill:none;stroke:#66c2a5;stroke-linecap:square;stroke-width:2;"/>
   </g>
   <g id="patch_8">
    <path d="M 74.938776 128.16 
L 74.938776 77.76 
" style="fill:none;stroke:#a9a9a9;stroke-linecap:square;stroke-linejoin:miter;stroke-width:2;"/>
   </g>
   <g id="patch_9">
    <path d="M 129.6 128.16 
L 129.6 77.76 
" style="fill:none;"/>
   </g>
   <g id="patch_10">
    <path d="M 18 122.212445 
L 129.6 122.212445 
" style="fill:none;stroke:#a9a9a9;stroke-linecap:square;stroke-linejoin:miter;stroke-width:2;"/>
   </g>
   <g id="patch_11">
    <path d="M 18 77.76 
L 129.6 77.76 
" style="fill:none;"/>
   </g>
  </g>
 </g>
 <defs>
  <clipPath id="p64fc9216e0">
   <rect height="50.4" width="111.6" x="18" y="17.28"/>
  </clipPath>
  <clipPath id="p8b0d5aa0bc">
   <rect height="50.4" width="111.6" x="18" y="77.76"/>
  </clipPath>
 </defs>
</svg>
