<?xml version="1.0" encoding="utf-8" standalone="no"?>
<!DOCTYPE svg PUBLIC "-//W3C//DTD SVG 1.1//EN"
  "http://www.w3.org/Graphics/SVG/1.1/DTD/svg11.dtd">
<!-- Created with matplotlib (https://matplotlib.org/) -->
<svg height="144pt" version="1.1" viewBox="0 0 144 144" width="144pt" xmlns="http://www.w3.org/2000/svg" xmlns:xlink="http://www.w3.org/1999/xlink">
 <metadata>
  <rdf:RDF xmlns:cc="http://creativecommons.org/ns#" xmlns:dc="http://purl.org/dc/elements/1.1/" xmlns:rdf="http://www.w3.org/1999/02/22-rdf-syntax-ns#">
   <cc:Work>
    <dc:type rdf:resource="http://purl.org/dc/dcmitype/StillImage"/>
    <dc:date>2021-10-13T15:50:34.280485</dc:date>
    <dc:format>image/svg+xml</dc:format>
    <dc:creator>
     <cc:Agent>
      <dc:title>Matplotlib v3.3.2, https://matplotlib.org/</dc:title>
     </cc:Agent>
    </dc:creator>
   </cc:Work>
  </rdf:RDF>
 </metadata>
 <defs>
  <style type="text/css">*{stroke-linecap:butt;stroke-linejoin:round;}</style>
 </defs>
 <g id="figure_1">
  <g id="patch_1">
   <path d="M 0 144 
L 144 144 
L 144 0 
L 0 0 
z
" style="fill:none;"/>
  </g>
  <g id="axes_1">
   <g id="patch_2">
    <path d="M 18 67.68 
L 129.6 67.68 
L 129.6 17.28 
L 18 17.28 
z
" style="fill:none;"/>
   </g>
   <g id="PolyCollection_1">
    <path clip-path="url(#pd0b2455630)" d="M 18 17.288056 
L 18 17.288056 
L 20.277551 17.288056 
L 22.555102 17.288056 
L 24.832653 17.288056 
L 27.110204 17.288056 
L 29.387755 17.288038 
L 31.665306 17.28 
L 33.942857 17.397831 
L 36.220408 17.714199 
L 38.497959 18.244837 
L 40.77551 19.095583 
L 43.053061 20.332905 
L 45.330612 21.599156 
L 47.608163 23.377125 
L 49.885714 25.375669 
L 52.163265 27.396427 
L 54.440816 29.767445 
L 56.718367 32.56472 
L 58.995918 35.559779 
L 61.273469 38.865069 
L 63.55102 42.356703 
L 65.828571 46.488276 
L 68.106122 49.92818 
L 70.383673 54.123199 
L 72.661224 57.512837 
L 74.938776 65.403939 
L 77.216327 62.967637 
L 79.493878 63.918199 
L 81.771429 64.256227 
L 84.04898 62.514752 
L 86.326531 60.40374 
L 88.604082 56.78929 
L 90.881633 52.604022 
L 93.159184 48.286907 
L 95.436735 43.449929 
L 97.714286 38.513472 
L 99.991837 33.755485 
L 102.269388 29.635374 
L 104.546939 25.911733 
L 106.82449 22.789006 
L 109.102041 20.590234 
L 111.379592 18.982609 
L 113.657143 18.005872 
L 115.934694 17.480489 
L 118.212245 17.302826 
L 120.489796 17.287517 
L 122.767347 17.288056 
L 125.044898 17.288056 
L 127.322449 17.288056 
L 129.6 17.288056 
L 129.6 17.288056 
L 129.6 17.288056 
L 127.322449 17.288056 
L 125.044898 17.288056 
L 122.767347 17.288056 
L 120.489796 17.288965 
L 118.212245 17.353605 
L 115.934694 17.600117 
L 113.657143 18.263789 
L 111.379592 19.454544 
L 109.102041 21.168449 
L 106.82449 23.692925 
L 104.546939 26.915218 
L 102.269388 30.731205 
L 99.991837 35.244712 
L 97.714286 40.363009 
L 95.436735 45.512197 
L 93.159184 50.300737 
L 90.881633 55.236819 
L 88.604082 59.330401 
L 86.326531 62.87322 
L 84.04898 65.1642 
L 81.771429 66.746929 
L 79.493878 66.611374 
L 77.216327 65.630763 
L 74.938776 67.68 
L 72.661224 60.20078 
L 70.383673 56.646928 
L 68.106122 52.365415 
L 65.828571 48.563868 
L 63.55102 44.455821 
L 61.273469 40.867336 
L 58.995918 37.665352 
L 56.718367 34.265589 
L 54.440816 31.428567 
L 52.163265 28.854618 
L 49.885714 26.556854 
L 47.608163 24.487173 
L 45.330612 22.500956 
L 43.053061 20.968902 
L 40.77551 19.619589 
L 38.497959 18.675108 
L 36.220408 17.961546 
L 33.942857 17.516348 
L 31.665306 17.324025 
L 29.387755 17.28807 
L 27.110204 17.288056 
L 24.832653 17.288056 
L 22.555102 17.288056 
L 20.277551 17.288056 
L 18 17.288056 
z
" style="fill:#fc8d62;fill-opacity:0.2;"/>
   </g>
   <g id="PolyCollection_2">
    <path clip-path="url(#pd0b2455630)" d="M 18 17.288056 
L 18 17.288056 
L 20.277551 17.288056 
L 22.555102 17.288056 
L 24.832653 17.288056 
L 27.110204 17.288056 
L 29.387755 17.288056 
L 31.665306 17.278259 
L 33.942857 17.386315 
L 36.220408 17.760822 
L 38.497959 18.420969 
L 40.77551 19.53981 
L 43.053061 21.348623 
L 45.330612 23.435491 
L 47.608163 26.345378 
L 49.885714 29.598795 
L 52.163265 33.411794 
L 54.440816 37.607476 
L 56.718367 42.025224 
L 58.995918 46.812037 
L 61.273469 51.4258 
L 63.55102 55.685822 
L 65.828571 60.102428 
L 68.106122 63.318041 
L 70.383673 66.239806 
L 72.661224 68.175675 
L 74.938776 72.177046 
L 77.216327 68.069727 
L 79.493878 66.821578 
L 81.771429 63.816733 
L 84.04898 60.875659 
L 86.326531 56.841512 
L 88.604082 52.373592 
L 90.881633 47.773965 
L 93.159184 43.215519 
L 95.436735 38.536151 
L 97.714286 34.378839 
L 99.991837 30.506649 
L 102.269388 27.162836 
L 104.546939 24.230135 
L 106.82449 21.700583 
L 109.102041 19.937492 
L 111.379592 18.717127 
L 113.657143 17.905433 
L 115.934694 17.439734 
L 118.212245 17.297768 
L 120.489796 17.287999 
L 122.767347 17.288056 
L 125.044898 17.288056 
L 127.322449 17.288056 
L 129.6 17.288056 
L 129.6 17.288056 
L 129.6 17.288056 
L 127.322449 17.288056 
L 125.044898 17.288056 
L 122.767347 17.288056 
L 120.489796 17.288228 
L 118.212245 17.356418 
L 115.934694 17.591622 
L 113.657143 18.149623 
L 111.379592 19.163508 
L 109.102041 20.632059 
L 106.82449 22.554749 
L 104.546939 25.160664 
L 102.269388 28.130315 
L 99.991837 31.776514 
L 97.714286 36.001613 
L 95.436735 40.358131 
L 93.159184 45.101435 
L 90.881633 49.985227 
L 88.604082 54.451836 
L 86.326531 59.238559 
L 84.04898 63.090815 
L 81.771429 66.705012 
L 79.493878 69.761258 
L 77.216327 70.885333 
L 74.938776 75.102053 
L 72.661224 70.805884 
L 70.383673 68.683637 
L 68.106122 66.290333 
L 65.828571 62.344983 
L 63.55102 57.835835 
L 61.273469 53.750828 
L 58.995918 48.459485 
L 56.718367 44.213457 
L 54.440816 39.356771 
L 52.163265 34.912507 
L 49.885714 30.974819 
L 47.608163 27.376202 
L 45.330612 24.326817 
L 43.053061 22.061229 
L 40.77551 20.136535 
L 38.497959 18.82496 
L 36.220408 17.943226 
L 33.942857 17.531175 
L 31.665306 17.328838 
L 29.387755 17.288056 
L 27.110204 17.288056 
L 24.832653 17.288056 
L 22.555102 17.288056 
L 20.277551 17.288056 
L 18 17.288056 
z
" style="fill:#fc8d62;fill-opacity:0.2;"/>
   </g>
   <g id="matplotlib.axis_1">
    <g id="xtick_1">
     <g id="line2d_1">
      <defs>
       <path d="M 0 0 
L 0 3.5 
" id="mfe644af0cf" style="stroke:#a9a9a9;stroke-width:2;"/>
      </defs>
      <g>
       <use style="fill:#a9a9a9;stroke:#a9a9a9;stroke-width:2;" x="29.387755" xlink:href="#mfe644af0cf" y="17.288056"/>
      </g>
     </g>
    </g>
    <g id="xtick_2">
     <g id="line2d_2">
      <g>
       <use style="fill:#a9a9a9;stroke:#a9a9a9;stroke-width:2;" x="52.163265" xlink:href="#mfe644af0cf" y="17.288056"/>
      </g>
     </g>
    </g>
    <g id="xtick_3">
     <g id="line2d_3">
      <g>
       <use style="fill:#a9a9a9;stroke:#a9a9a9;stroke-width:2;" x="74.938776" xlink:href="#mfe644af0cf" y="17.288056"/>
      </g>
     </g>
    </g>
    <g id="xtick_4">
     <g id="line2d_4">
      <g>
       <use style="fill:#a9a9a9;stroke:#a9a9a9;stroke-width:2;" x="97.714286" xlink:href="#mfe644af0cf" y="17.288056"/>
      </g>
     </g>
    </g>
    <g id="xtick_5">
     <g id="line2d_5">
      <g>
       <use style="fill:#a9a9a9;stroke:#a9a9a9;stroke-width:2;" x="120.489796" xlink:href="#mfe644af0cf" y="17.288056"/>
      </g>
     </g>
    </g>
   </g>
   <g id="matplotlib.axis_2"/>
   <g id="line2d_6">
    <path clip-path="url(#pd0b2455630)" d="M 18 17.288056 
L 20.277551 17.288056 
L 22.555102 17.288056 
L 24.832653 17.288056 
L 27.110204 17.288056 
L 29.387755 17.288054 
L 31.665306 17.302012 
L 33.942857 17.457089 
L 36.220408 17.837872 
L 38.497959 18.459973 
L 40.77551 19.357586 
L 43.053061 20.650904 
L 45.330612 22.050056 
L 47.608163 23.932149 
L 49.885714 25.966262 
L 52.163265 28.125523 
L 54.440816 30.598006 
L 56.718367 33.415154 
L 58.995918 36.612566 
L 61.273469 39.866203 
L 63.55102 43.406262 
L 65.828571 47.526072 
L 68.106122 51.146798 
L 70.383673 55.385063 
L 72.661224 58.856808 
L 74.938776 66.54197 
L 77.216327 64.2992 
L 79.493878 65.264786 
L 81.771429 65.501578 
L 84.04898 63.839476 
L 86.326531 61.63848 
L 88.604082 58.059845 
L 90.881633 53.92042 
L 93.159184 49.293822 
L 95.436735 44.481063 
L 97.714286 39.43824 
L 99.991837 34.500099 
L 102.269388 30.183289 
L 104.546939 26.413475 
L 106.82449 23.240966 
L 109.102041 20.879341 
L 111.379592 19.218577 
L 113.657143 18.134831 
L 115.934694 17.540303 
L 118.212245 17.328215 
L 120.489796 17.288241 
L 122.767347 17.288056 
L 125.044898 17.288056 
L 127.322449 17.288056 
L 129.6 17.288056 
" style="fill:none;stroke:#fc8d62;stroke-linecap:square;stroke-width:2;"/>
   </g>
   <g id="line2d_7">
    <path clip-path="url(#pd0b2455630)" d="M 18 17.288056 
L 20.277551 17.288056 
L 22.555102 17.288056 
L 24.832653 17.288056 
L 27.110204 17.288056 
L 29.387755 17.288056 
L 31.665306 17.303549 
L 33.942857 17.458745 
L 36.220408 17.852024 
L 38.497959 18.622965 
L 40.77551 19.838172 
L 43.053061 21.704926 
L 45.330612 23.881154 
L 47.608163 26.86079 
L 49.885714 30.286807 
L 52.163265 34.162151 
L 54.440816 38.482124 
L 56.718367 43.119341 
L 58.995918 47.635761 
L 61.273469 52.588314 
L 63.55102 56.760828 
L 65.828571 61.223705 
L 68.106122 64.804187 
L 70.383673 67.461721 
L 72.661224 69.490779 
L 74.938776 73.63955 
L 77.216327 69.47753 
L 79.493878 68.291418 
L 81.771429 65.260872 
L 84.04898 61.983237 
L 86.326531 58.040036 
L 88.604082 53.412714 
L 90.881633 48.879596 
L 93.159184 44.158477 
L 95.436735 39.447141 
L 97.714286 35.190226 
L 99.991837 31.141581 
L 102.269388 27.646576 
L 104.546939 24.695399 
L 106.82449 22.127666 
L 109.102041 20.284776 
L 111.379592 18.940317 
L 113.657143 18.027528 
L 115.934694 17.515678 
L 118.212245 17.327093 
L 120.489796 17.288114 
L 122.767347 17.288056 
L 125.044898 17.288056 
L 127.322449 17.288056 
L 129.6 17.288056 
" style="fill:none;stroke:#fc8d62;stroke-dasharray:1.5,1.5;stroke-dashoffset:0;stroke-opacity:0.7;stroke-width:1.5;"/>
   </g>
   <g id="patch_3">
    <path d="M 74.938776 67.68 
L 74.938776 17.28 
" style="fill:none;stroke:#a9a9a9;stroke-linecap:square;stroke-linejoin:miter;stroke-width:2;"/>
   </g>
   <g id="patch_4">
    <path d="M 129.6 67.68 
L 129.6 17.28 
" style="fill:none;"/>
   </g>
   <g id="patch_5">
    <path d="M 18 17.288056 
L 129.6 17.288056 
" style="fill:none;stroke:#a9a9a9;stroke-linecap:square;stroke-linejoin:miter;stroke-width:2;"/>
   </g>
   <g id="patch_6">
    <path d="M 18 17.28 
L 129.6 17.28 
" style="fill:none;"/>
   </g>
   <g id="legend_1">
    <g id="line2d_8">
     <path d="M 24.3 47.199531 
L 38.3 47.199531 
" style="fill:none;stroke:#fc8d62;stroke-linecap:square;stroke-width:2;"/>
    </g>
    <g id="line2d_9"/>
    <g id="text_1">
     <!-- $\theta$ -->
     <g transform="translate(43.9 49.649531)scale(0.07 -0.07)">
      <defs>
       <path d="M 45.515625 34.671875 
L 14.453125 34.671875 
Q 12.359375 20.0625 14.5 13.875 
Q 17.1875 6.25 24.46875 6.25 
Q 31.78125 6.25 37.359375 13.921875 
Q 42.234375 20.65625 45.515625 34.671875 
z
M 47.015625 42.96875 
Q 48.34375 56.84375 46.625 61.71875 
Q 43.953125 69.4375 36.765625 69.4375 
Q 29.296875 69.4375 23.828125 61.8125 
Q 19.53125 55.671875 16.15625 42.96875 
z
M 38.1875 76.765625 
Q 49.90625 76.765625 54.59375 66.40625 
Q 59.28125 56.109375 55.71875 37.84375 
Q 52.203125 19.625 43.453125 9.28125 
Q 34.765625 -1.125 23.046875 -1.125 
Q 11.28125 -1.125 6.640625 9.28125 
Q 2 19.625 5.515625 37.84375 
Q 9.078125 56.109375 17.71875 66.40625 
Q 26.421875 76.765625 38.1875 76.765625 
z
" id="DejaVuSans-Oblique-952"/>
      </defs>
      <use transform="translate(0 0.234375)" xlink:href="#DejaVuSans-Oblique-952"/>
     </g>
    </g>
    <g id="line2d_10">
     <path d="M 24.3 57.474219 
L 38.3 57.474219 
" style="fill:none;stroke:#fc8d62;stroke-dasharray:1.5,1.5;stroke-dashoffset:0;stroke-opacity:0.7;stroke-width:1.5;"/>
    </g>
    <g id="line2d_11"/>
    <g id="text_2">
     <!-- No $\theta$ -->
     <g transform="translate(43.9 59.924219)scale(0.07 -0.07)">
      <defs>
       <path d="M 9.8125 72.90625 
L 23.09375 72.90625 
L 55.421875 11.921875 
L 55.421875 72.90625 
L 64.984375 72.90625 
L 64.984375 0 
L 51.703125 0 
L 19.390625 60.984375 
L 19.390625 0 
L 9.8125 0 
z
" id="DejaVuSans-78"/>
       <path d="M 30.609375 48.390625 
Q 23.390625 48.390625 19.1875 42.75 
Q 14.984375 37.109375 14.984375 27.296875 
Q 14.984375 17.484375 19.15625 11.84375 
Q 23.34375 6.203125 30.609375 6.203125 
Q 37.796875 6.203125 41.984375 11.859375 
Q 46.1875 17.53125 46.1875 27.296875 
Q 46.1875 37.015625 41.984375 42.703125 
Q 37.796875 48.390625 30.609375 48.390625 
z
M 30.609375 56 
Q 42.328125 56 49.015625 48.375 
Q 55.71875 40.765625 55.71875 27.296875 
Q 55.71875 13.875 49.015625 6.21875 
Q 42.328125 -1.421875 30.609375 -1.421875 
Q 18.84375 -1.421875 12.171875 6.21875 
Q 5.515625 13.875 5.515625 27.296875 
Q 5.515625 40.765625 12.171875 48.375 
Q 18.84375 56 30.609375 56 
z
" id="DejaVuSans-111"/>
       <path id="DejaVuSans-32"/>
      </defs>
      <use transform="translate(0 0.234375)" xlink:href="#DejaVuSans-78"/>
      <use transform="translate(74.804688 0.234375)" xlink:href="#DejaVuSans-111"/>
      <use transform="translate(135.986328 0.234375)" xlink:href="#DejaVuSans-32"/>
      <use transform="translate(167.773438 0.234375)" xlink:href="#DejaVuSans-Oblique-952"/>
     </g>
    </g>
   </g>
  </g>
  <g id="axes_2">
   <g id="patch_7">
    <path d="M 18 128.16 
L 129.6 128.16 
L 129.6 77.76 
L 18 77.76 
z
" style="fill:none;"/>
   </g>
   <g id="PolyCollection_3">
    <path clip-path="url(#pc0bf0e427f)" d="M 18 120.461911 
L 18 120.383285 
L 20.277551 120.601471 
L 22.555102 120.662991 
L 24.832653 120.576582 
L 27.110204 120.391335 
L 29.387755 120.186355 
L 31.665306 120.011867 
L 33.942857 119.726872 
L 36.220408 119.169242 
L 38.497959 118.211744 
L 40.77551 116.763037 
L 43.053061 114.771327 
L 45.330612 112.227711 
L 47.608163 109.164095 
L 49.885714 105.649076 
L 52.163265 101.783639 
L 54.440816 97.697608 
L 56.718367 93.545403 
L 58.995918 89.501533 
L 61.273469 85.755419 
L 63.55102 82.505915 
L 65.828571 79.956045 
L 68.106122 78.308187 
L 70.383673 77.76 
L 72.661224 78.501219 
L 74.938776 80.70097 
L 77.216327 84.451343 
L 79.493878 89.347425 
L 81.771429 94.93947 
L 84.04898 100.80774 
L 86.326531 106.586888 
L 88.604082 111.975064 
L 90.881633 116.738678 
L 93.159184 120.713736 
L 95.436735 123.804437 
L 97.714286 125.980597 
L 99.991837 127.271324 
L 102.269388 127.754153 
L 104.546939 127.543112 
L 106.82449 126.777532 
L 109.102041 125.612902 
L 111.379592 124.212539 
L 113.657143 122.740769 
L 115.934694 121.357834 
L 118.212245 120.218225 
L 120.489796 119.473418 
L 122.767347 119.220131 
L 125.044898 119.336874 
L 127.322449 119.658835 
L 129.6 120.044314 
L 129.6 120.148607 
L 129.6 120.148607 
L 127.322449 119.788548 
L 125.044898 119.48698 
L 122.767347 119.383077 
L 120.489796 119.642942 
L 118.212245 120.396365 
L 115.934694 121.55925 
L 113.657143 122.981156 
L 111.379592 124.499247 
L 109.102041 125.943985 
L 106.82449 127.144506 
L 104.546939 127.934531 
L 102.269388 128.16 
L 99.991837 127.687889 
L 97.714286 126.415853 
L 95.436735 124.280182 
L 93.159184 121.262064 
L 90.881633 117.393048 
L 88.604082 112.762545 
L 86.326531 107.5253 
L 84.04898 101.904904 
L 81.771429 96.193516 
L 79.493878 90.747247 
L 77.216327 85.977079 
L 74.938776 82.32462 
L 72.661224 80.188158 
L 70.383673 79.472312 
L 68.106122 80.007072 
L 65.828571 81.60367 
L 63.55102 84.067126 
L 61.273469 87.199364 
L 58.995918 90.803149 
L 56.718367 94.686652 
L 54.440816 98.668419 
L 52.163265 102.582349 
L 49.885714 106.282499 
L 47.608163 109.64745 
L 45.330612 112.583852 
L 43.053061 115.029866 
L 40.77551 116.956917 
L 38.497959 118.370368 
L 36.220408 119.310592 
L 33.942857 119.85743 
L 31.665306 120.132437 
L 29.387755 120.295373 
L 27.110204 120.484685 
L 24.832653 120.651455 
L 22.555102 120.723332 
L 20.277551 120.662242 
L 18 120.461911 
z
" style="fill:#66c2a5;fill-opacity:0.2;"/>
   </g>
   <g id="matplotlib.axis_3">
    <g id="xtick_6">
     <g id="line2d_12">
      <g>
       <use style="fill:#a9a9a9;stroke:#a9a9a9;stroke-width:2;" x="29.387755" xlink:href="#mfe644af0cf" y="122.128857"/>
      </g>
     </g>
    </g>
    <g id="xtick_7">
     <g id="line2d_13">
      <g>
       <use style="fill:#a9a9a9;stroke:#a9a9a9;stroke-width:2;" x="52.163265" xlink:href="#mfe644af0cf" y="122.128857"/>
      </g>
     </g>
    </g>
    <g id="xtick_8">
     <g id="line2d_14">
      <g>
       <use style="fill:#a9a9a9;stroke:#a9a9a9;stroke-width:2;" x="74.938776" xlink:href="#mfe644af0cf" y="122.128857"/>
      </g>
     </g>
    </g>
    <g id="xtick_9">
     <g id="line2d_15">
      <g>
       <use style="fill:#a9a9a9;stroke:#a9a9a9;stroke-width:2;" x="97.714286" xlink:href="#mfe644af0cf" y="122.128857"/>
      </g>
     </g>
    </g>
    <g id="xtick_10">
     <g id="line2d_16">
      <g>
       <use style="fill:#a9a9a9;stroke:#a9a9a9;stroke-width:2;" x="120.489796" xlink:href="#mfe644af0cf" y="122.128857"/>
      </g>
     </g>
    </g>
   </g>
   <g id="matplotlib.axis_4"/>
   <g id="line2d_17">
    <path clip-path="url(#pc0bf0e427f)" d="M 18 120.422598 
L 20.277551 120.631857 
L 22.555102 120.693162 
L 24.832653 120.614018 
L 27.110204 120.43801 
L 29.387755 120.240864 
L 31.665306 120.072152 
L 33.942857 119.792151 
L 36.220408 119.239917 
L 38.497959 118.291056 
L 40.77551 116.859977 
L 43.053061 114.900597 
L 45.330612 112.405782 
L 47.608163 109.405773 
L 49.885714 105.965787 
L 52.163265 102.182994 
L 54.440816 98.183013 
L 56.718367 94.116027 
L 58.995918 90.152341 
L 61.273469 86.477392 
L 63.55102 83.286521 
L 65.828571 80.779857 
L 68.106122 79.157629 
L 70.383673 78.616156 
L 72.661224 79.344689 
L 74.938776 81.512795 
L 77.216327 85.214211 
L 79.493878 90.047336 
L 81.771429 95.566493 
L 84.04898 101.356322 
L 86.326531 107.056094 
L 88.604082 112.368805 
L 90.881633 117.065863 
L 93.159184 120.9879 
L 95.436735 124.04231 
L 97.714286 126.198225 
L 99.991837 127.479606 
L 102.269388 127.957076 
L 104.546939 127.738822 
L 106.82449 126.961019 
L 109.102041 125.778443 
L 111.379592 124.355893 
L 113.657143 122.860962 
L 115.934694 121.458542 
L 118.212245 120.307295 
L 120.489796 119.55818 
L 122.767347 119.301604 
L 125.044898 119.411927 
L 127.322449 119.723691 
L 129.6 120.096461 
" style="fill:none;stroke:#66c2a5;stroke-linecap:square;stroke-width:2;"/>
   </g>
   <g id="patch_8">
    <path d="M 74.938776 128.16 
L 74.938776 77.76 
" style="fill:none;stroke:#a9a9a9;stroke-linecap:square;stroke-linejoin:miter;stroke-width:2;"/>
   </g>
   <g id="patch_9">
    <path d="M 129.6 128.16 
L 129.6 77.76 
" style="fill:none;"/>
   </g>
   <g id="patch_10">
    <path d="M 18 122.128857 
L 129.6 122.128857 
" style="fill:none;stroke:#a9a9a9;stroke-linecap:square;stroke-linejoin:miter;stroke-width:2;"/>
   </g>
   <g id="patch_11">
    <path d="M 18 77.76 
L 129.6 77.76 
" style="fill:none;"/>
   </g>
  </g>
 </g>
 <defs>
  <clipPath id="pd0b2455630">
   <rect height="50.4" width="111.6" x="18" y="17.28"/>
  </clipPath>
  <clipPath id="pc0bf0e427f">
   <rect height="50.4" width="111.6" x="18" y="77.76"/>
  </clipPath>
 </defs>
</svg>
