<?xml version="1.0" encoding="utf-8" standalone="no"?>
<!DOCTYPE svg PUBLIC "-//W3C//DTD SVG 1.1//EN"
  "http://www.w3.org/Graphics/SVG/1.1/DTD/svg11.dtd">
<!-- Created with matplotlib (https://matplotlib.org/) -->
<svg height="144pt" version="1.1" viewBox="0 0 144 144" width="144pt" xmlns="http://www.w3.org/2000/svg" xmlns:xlink="http://www.w3.org/1999/xlink">
 <metadata>
  <rdf:RDF xmlns:cc="http://creativecommons.org/ns#" xmlns:dc="http://purl.org/dc/elements/1.1/" xmlns:rdf="http://www.w3.org/1999/02/22-rdf-syntax-ns#">
   <cc:Work>
    <dc:type rdf:resource="http://purl.org/dc/dcmitype/StillImage"/>
    <dc:date>2021-10-12T18:35:08.843921</dc:date>
    <dc:format>image/svg+xml</dc:format>
    <dc:creator>
     <cc:Agent>
      <dc:title>Matplotlib v3.3.2, https://matplotlib.org/</dc:title>
     </cc:Agent>
    </dc:creator>
   </cc:Work>
  </rdf:RDF>
 </metadata>
 <defs>
  <style type="text/css">*{stroke-linecap:butt;stroke-linejoin:round;}</style>
 </defs>
 <g id="figure_1">
  <g id="patch_1">
   <path d="M 0 144 
L 144 144 
L 144 0 
L 0 0 
z
" style="fill:none;"/>
  </g>
  <g id="axes_1">
   <g id="patch_2">
    <path d="M 18 67.68 
L 129.6 67.68 
L 129.6 17.28 
L 18 17.28 
z
" style="fill:none;"/>
   </g>
   <g id="PolyCollection_1">
    <path clip-path="url(#ped60aa8fe3)" d="M 18 67.270134 
L 18 67.270134 
L 20.277551 67.270134 
L 22.555102 67.270134 
L 24.832653 67.270134 
L 27.110204 67.270126 
L 29.387755 67.266026 
L 31.665306 66.992785 
L 33.942857 66.135019 
L 36.220408 66.341627 
L 38.497959 64.731033 
L 40.77551 63.557693 
L 43.053061 61.262474 
L 45.330612 58.802215 
L 47.608163 55.278357 
L 49.885714 52.207026 
L 52.163265 48.310117 
L 54.440816 41.110885 
L 56.718367 37.631626 
L 58.995918 35.009215 
L 61.273469 29.394477 
L 63.55102 26.060863 
L 65.828571 22.657923 
L 68.106122 22.594133 
L 70.383673 17.28 
L 72.661224 18.574266 
L 74.938776 23.747652 
L 77.216327 19.797581 
L 79.493878 26.663165 
L 81.771429 27.625418 
L 84.04898 30.11748 
L 86.326531 35.288481 
L 88.604082 38.395931 
L 90.881633 42.726598 
L 93.159184 46.368231 
L 95.436735 49.832611 
L 97.714286 52.280222 
L 99.991837 55.399688 
L 102.269388 59.735876 
L 104.546939 61.080876 
L 106.82449 62.890015 
L 109.102041 63.946359 
L 111.379592 65.768454 
L 113.657143 66.125195 
L 115.934694 66.964283 
L 118.212245 67.220074 
L 120.489796 67.270111 
L 122.767347 67.270134 
L 125.044898 67.270134 
L 127.322449 67.270134 
L 129.6 67.270134 
L 129.6 67.270134 
L 129.6 67.270134 
L 127.322449 67.270134 
L 125.044898 67.270134 
L 122.767347 67.270134 
L 120.489796 67.270166 
L 118.212245 67.3554 
L 115.934694 67.650959 
L 113.657143 67.43511 
L 111.379592 67.68 
L 109.102041 67.297086 
L 106.82449 67.053518 
L 104.546939 65.907576 
L 102.269388 64.623699 
L 99.991837 62.889022 
L 97.714286 60.999346 
L 95.436735 58.972546 
L 93.159184 56.258725 
L 90.881633 54.462225 
L 88.604082 50.302083 
L 86.326531 47.966681 
L 84.04898 45.443588 
L 81.771429 40.612921 
L 79.493878 40.423604 
L 77.216327 36.529798 
L 74.938776 34.091135 
L 72.661224 33.561243 
L 70.383673 33.325219 
L 68.106122 35.182484 
L 65.828571 36.412324 
L 63.55102 39.221262 
L 61.273469 42.256305 
L 58.995918 45.014559 
L 56.718367 50.029789 
L 54.440816 54.363348 
L 52.163265 57.409562 
L 49.885714 59.251432 
L 47.608163 62.074695 
L 45.330612 63.587575 
L 43.053061 65.698036 
L 40.77551 66.498465 
L 38.497959 66.885568 
L 36.220408 67.496937 
L 33.942857 67.531754 
L 31.665306 67.410768 
L 29.387755 67.272764 
L 27.110204 67.270139 
L 24.832653 67.270134 
L 22.555102 67.270134 
L 20.277551 67.270134 
L 18 67.270134 
z
" style="fill:#fc8d62;fill-opacity:0.2;"/>
   </g>
   <g id="PolyCollection_2">
    <path clip-path="url(#ped60aa8fe3)" d="M 18 67.270134 
L 18 67.270134 
L 20.277551 67.270134 
L 22.555102 67.270134 
L 24.832653 67.270134 
L 27.110204 67.270133 
L 29.387755 67.266547 
L 31.665306 67.049382 
L 33.942857 66.61588 
L 36.220408 66.01264 
L 38.497959 64.951329 
L 40.77551 63.820237 
L 43.053061 62.088566 
L 45.330612 59.705724 
L 47.608163 56.690615 
L 49.885714 53.173445 
L 52.163265 50.027602 
L 54.440816 45.335053 
L 56.718367 41.604847 
L 58.995918 36.859507 
L 61.273469 32.746653 
L 63.55102 29.886807 
L 65.828571 26.360253 
L 68.106122 23.243556 
L 70.383673 22.499378 
L 72.661224 18.759284 
L 74.938776 22.990036 
L 77.216327 20.651612 
L 79.493878 23.006871 
L 81.771429 25.43211 
L 84.04898 27.789622 
L 86.326531 31.146796 
L 88.604082 37.905509 
L 90.881633 38.040758 
L 93.159184 43.775594 
L 95.436735 47.354091 
L 97.714286 51.174168 
L 99.991837 54.884353 
L 102.269388 58.281512 
L 104.546939 60.505872 
L 106.82449 62.52934 
L 109.102041 64.402659 
L 111.379592 65.448787 
L 113.657143 65.798134 
L 115.934694 66.832346 
L 118.212245 67.194007 
L 120.489796 67.27012 
L 122.767347 67.270134 
L 125.044898 67.270134 
L 127.322449 67.270134 
L 129.6 67.270134 
L 129.6 67.270134 
L 129.6 67.270134 
L 127.322449 67.270134 
L 125.044898 67.270134 
L 122.767347 67.270134 
L 120.489796 67.270155 
L 118.212245 67.372248 
L 115.934694 67.606354 
L 113.657143 67.686917 
L 111.379592 67.43808 
L 109.102041 66.917793 
L 106.82449 66.324003 
L 104.546939 64.952577 
L 102.269388 64.384198 
L 99.991837 62.103174 
L 97.714286 60.356245 
L 95.436735 57.552611 
L 93.159184 54.335306 
L 90.881633 50.561828 
L 88.604082 48.460424 
L 86.326531 45.695203 
L 84.04898 41.172427 
L 81.771429 38.748606 
L 79.493878 37.228303 
L 77.216327 35.397097 
L 74.938776 32.941938 
L 72.661224 35.686139 
L 70.383673 37.578369 
L 68.106122 37.077035 
L 65.828571 40.540974 
L 63.55102 42.288331 
L 61.273469 44.318549 
L 58.995918 49.099148 
L 56.718367 51.579365 
L 54.440816 54.604068 
L 52.163265 58.188598 
L 49.885714 61.175243 
L 47.608163 63.034793 
L 45.330612 64.155562 
L 43.053061 65.932402 
L 40.77551 66.607293 
L 38.497959 67.269656 
L 36.220408 67.757669 
L 33.942857 67.542812 
L 31.665306 67.420085 
L 29.387755 67.272495 
L 27.110204 67.270135 
L 24.832653 67.270134 
L 22.555102 67.270134 
L 20.277551 67.270134 
L 18 67.270134 
z
" style="fill:#fc8d62;fill-opacity:0.2;"/>
   </g>
   <g id="matplotlib.axis_1">
    <g id="xtick_1">
     <g id="line2d_1">
      <defs>
       <path d="M 0 0 
L 0 3.5 
" id="m7e4b3500e4" style="stroke:#a9a9a9;stroke-width:2;"/>
      </defs>
      <g>
       <use style="fill:#a9a9a9;stroke:#a9a9a9;stroke-width:2;" x="29.387755" xlink:href="#m7e4b3500e4" y="67.270134"/>
      </g>
     </g>
    </g>
    <g id="xtick_2">
     <g id="line2d_2">
      <g>
       <use style="fill:#a9a9a9;stroke:#a9a9a9;stroke-width:2;" x="52.163265" xlink:href="#m7e4b3500e4" y="67.270134"/>
      </g>
     </g>
    </g>
    <g id="xtick_3">
     <g id="line2d_3">
      <g>
       <use style="fill:#a9a9a9;stroke:#a9a9a9;stroke-width:2;" x="74.938776" xlink:href="#m7e4b3500e4" y="67.270134"/>
      </g>
     </g>
    </g>
    <g id="xtick_4">
     <g id="line2d_4">
      <g>
       <use style="fill:#a9a9a9;stroke:#a9a9a9;stroke-width:2;" x="97.714286" xlink:href="#m7e4b3500e4" y="67.270134"/>
      </g>
     </g>
    </g>
    <g id="xtick_5">
     <g id="line2d_5">
      <g>
       <use style="fill:#a9a9a9;stroke:#a9a9a9;stroke-width:2;" x="120.489796" xlink:href="#m7e4b3500e4" y="67.270134"/>
      </g>
     </g>
    </g>
   </g>
   <g id="matplotlib.axis_2"/>
   <g id="line2d_6">
    <path clip-path="url(#ped60aa8fe3)" d="M 18 67.270134 
L 20.277551 67.270134 
L 22.555102 67.270134 
L 24.832653 67.270134 
L 27.110204 67.270133 
L 29.387755 67.269395 
L 31.665306 67.201777 
L 33.942857 66.833386 
L 36.220408 66.919282 
L 38.497959 65.8083 
L 40.77551 65.028079 
L 43.053061 63.480255 
L 45.330612 61.194895 
L 47.608163 58.676526 
L 49.885714 55.729229 
L 52.163265 52.859839 
L 54.440816 47.737117 
L 56.718367 43.830708 
L 58.995918 40.011887 
L 61.273469 35.825391 
L 63.55102 32.641062 
L 65.828571 29.535123 
L 68.106122 28.888309 
L 70.383673 25.302609 
L 72.661224 26.067755 
L 74.938776 28.919393 
L 77.216327 28.163689 
L 79.493878 33.543385 
L 81.771429 34.119169 
L 84.04898 37.780534 
L 86.326531 41.627581 
L 88.604082 44.349007 
L 90.881633 48.594411 
L 93.159184 51.313478 
L 95.436735 54.402579 
L 97.714286 56.639784 
L 99.991837 59.144355 
L 102.269388 62.179788 
L 104.546939 63.494226 
L 106.82449 64.971767 
L 109.102041 65.621722 
L 111.379592 66.724227 
L 113.657143 66.780153 
L 115.934694 67.307621 
L 118.212245 67.287737 
L 120.489796 67.270138 
L 122.767347 67.270134 
L 125.044898 67.270134 
L 127.322449 67.270134 
L 129.6 67.270134 
" style="fill:none;stroke:#fc8d62;stroke-linecap:square;stroke-width:2;"/>
   </g>
   <g id="line2d_7">
    <path clip-path="url(#ped60aa8fe3)" d="M 18 67.270134 
L 20.277551 67.270134 
L 22.555102 67.270134 
L 24.832653 67.270134 
L 27.110204 67.270134 
L 29.387755 67.269521 
L 31.665306 67.234733 
L 33.942857 67.079346 
L 36.220408 66.885154 
L 38.497959 66.110493 
L 40.77551 65.213765 
L 43.053061 64.010484 
L 45.330612 61.930643 
L 47.608163 59.862704 
L 49.885714 57.174344 
L 52.163265 54.1081 
L 54.440816 49.969561 
L 56.718367 46.592106 
L 58.995918 42.979327 
L 61.273469 38.532601 
L 63.55102 36.087569 
L 65.828571 33.450613 
L 68.106122 30.160296 
L 70.383673 30.038874 
L 72.661224 27.222711 
L 74.938776 27.965987 
L 77.216327 28.024354 
L 79.493878 30.117587 
L 81.771429 32.090358 
L 84.04898 34.481024 
L 86.326531 38.421 
L 88.604082 43.182966 
L 90.881633 44.301293 
L 93.159184 49.05545 
L 95.436735 52.453351 
L 97.714286 55.765207 
L 99.991837 58.493763 
L 102.269388 61.332855 
L 104.546939 62.729224 
L 106.82449 64.426671 
L 109.102041 65.660226 
L 111.379592 66.443434 
L 113.657143 66.742525 
L 115.934694 67.21935 
L 118.212245 67.283128 
L 120.489796 67.270137 
L 122.767347 67.270134 
L 125.044898 67.270134 
L 127.322449 67.270134 
L 129.6 67.270134 
" style="fill:none;stroke:#fc8d62;stroke-dasharray:1.5,1.5;stroke-dashoffset:0;stroke-opacity:0.7;stroke-width:1.5;"/>
   </g>
   <g id="patch_3">
    <path d="M 74.938776 67.68 
L 74.938776 17.28 
" style="fill:none;stroke:#a9a9a9;stroke-linecap:square;stroke-linejoin:miter;stroke-width:2;"/>
   </g>
   <g id="patch_4">
    <path d="M 129.6 67.68 
L 129.6 17.28 
" style="fill:none;"/>
   </g>
   <g id="patch_5">
    <path d="M 18 67.270134 
L 129.6 67.270134 
" style="fill:none;stroke:#a9a9a9;stroke-linecap:square;stroke-linejoin:miter;stroke-width:2;"/>
   </g>
   <g id="patch_6">
    <path d="M 18 17.28 
L 129.6 17.28 
" style="fill:none;"/>
   </g>
   <g id="legend_1">
    <g id="line2d_8">
     <path d="M 87.67 26.448906 
L 101.67 26.448906 
" style="fill:none;stroke:#fc8d62;stroke-linecap:square;stroke-width:2;"/>
    </g>
    <g id="line2d_9"/>
    <g id="text_1">
     <!-- $\theta$ -->
     <g transform="translate(107.27 28.898906)scale(0.07 -0.07)">
      <defs>
       <path d="M 45.515625 34.671875 
L 14.453125 34.671875 
Q 12.359375 20.0625 14.5 13.875 
Q 17.1875 6.25 24.46875 6.25 
Q 31.78125 6.25 37.359375 13.921875 
Q 42.234375 20.65625 45.515625 34.671875 
z
M 47.015625 42.96875 
Q 48.34375 56.84375 46.625 61.71875 
Q 43.953125 69.4375 36.765625 69.4375 
Q 29.296875 69.4375 23.828125 61.8125 
Q 19.53125 55.671875 16.15625 42.96875 
z
M 38.1875 76.765625 
Q 49.90625 76.765625 54.59375 66.40625 
Q 59.28125 56.109375 55.71875 37.84375 
Q 52.203125 19.625 43.453125 9.28125 
Q 34.765625 -1.125 23.046875 -1.125 
Q 11.28125 -1.125 6.640625 9.28125 
Q 2 19.625 5.515625 37.84375 
Q 9.078125 56.109375 17.71875 66.40625 
Q 26.421875 76.765625 38.1875 76.765625 
z
" id="DejaVuSans-Oblique-952"/>
      </defs>
      <use transform="translate(0 0.234375)" xlink:href="#DejaVuSans-Oblique-952"/>
     </g>
    </g>
    <g id="line2d_10">
     <path d="M 87.67 36.723594 
L 101.67 36.723594 
" style="fill:none;stroke:#fc8d62;stroke-dasharray:1.5,1.5;stroke-dashoffset:0;stroke-opacity:0.7;stroke-width:1.5;"/>
    </g>
    <g id="line2d_11"/>
    <g id="text_2">
     <!-- No $\theta$ -->
     <g transform="translate(107.27 39.173594)scale(0.07 -0.07)">
      <defs>
       <path d="M 9.8125 72.90625 
L 23.09375 72.90625 
L 55.421875 11.921875 
L 55.421875 72.90625 
L 64.984375 72.90625 
L 64.984375 0 
L 51.703125 0 
L 19.390625 60.984375 
L 19.390625 0 
L 9.8125 0 
z
" id="DejaVuSans-78"/>
       <path d="M 30.609375 48.390625 
Q 23.390625 48.390625 19.1875 42.75 
Q 14.984375 37.109375 14.984375 27.296875 
Q 14.984375 17.484375 19.15625 11.84375 
Q 23.34375 6.203125 30.609375 6.203125 
Q 37.796875 6.203125 41.984375 11.859375 
Q 46.1875 17.53125 46.1875 27.296875 
Q 46.1875 37.015625 41.984375 42.703125 
Q 37.796875 48.390625 30.609375 48.390625 
z
M 30.609375 56 
Q 42.328125 56 49.015625 48.375 
Q 55.71875 40.765625 55.71875 27.296875 
Q 55.71875 13.875 49.015625 6.21875 
Q 42.328125 -1.421875 30.609375 -1.421875 
Q 18.84375 -1.421875 12.171875 6.21875 
Q 5.515625 13.875 5.515625 27.296875 
Q 5.515625 40.765625 12.171875 48.375 
Q 18.84375 56 30.609375 56 
z
" id="DejaVuSans-111"/>
       <path id="DejaVuSans-32"/>
      </defs>
      <use transform="translate(0 0.234375)" xlink:href="#DejaVuSans-78"/>
      <use transform="translate(74.804688 0.234375)" xlink:href="#DejaVuSans-111"/>
      <use transform="translate(135.986328 0.234375)" xlink:href="#DejaVuSans-32"/>
      <use transform="translate(167.773438 0.234375)" xlink:href="#DejaVuSans-Oblique-952"/>
     </g>
    </g>
   </g>
  </g>
  <g id="axes_2">
   <g id="patch_7">
    <path d="M 18 128.16 
L 129.6 128.16 
L 129.6 77.76 
L 18 77.76 
z
" style="fill:none;"/>
   </g>
   <g id="PolyCollection_3">
    <path clip-path="url(#pc8a73b7787)" d="M 18 120.519376 
L 18 120.440736 
L 20.277551 120.658575 
L 22.555102 120.721045 
L 24.832653 120.636582 
L 27.110204 120.453642 
L 29.387755 120.250676 
L 31.665306 120.077359 
L 33.942857 119.792978 
L 36.220408 119.235488 
L 38.497959 118.277801 
L 40.77551 116.828316 
L 43.053061 114.835235 
L 45.330612 112.289952 
L 47.608163 109.224327 
L 49.885714 105.706498 
L 52.163265 101.837322 
L 54.440816 97.746549 
L 56.718367 93.58877 
L 58.995918 89.538629 
L 61.273469 85.785684 
L 63.55102 82.52896 
L 65.828571 79.971595 
L 68.106122 78.316054 
L 70.383673 77.76 
L 72.661224 78.493054 
L 74.938776 80.684389 
L 77.216327 84.424005 
L 79.493878 89.310493 
L 81.771429 94.895264 
L 84.04898 100.759594 
L 86.326531 106.538706 
L 88.604082 111.930984 
L 90.881633 116.702572 
L 93.159184 120.688388 
L 95.436735 123.791045 
L 97.714286 125.97847 
L 99.991837 127.279044 
L 102.269388 127.771114 
L 104.546939 127.569258 
L 106.82449 126.81298 
L 109.102041 125.657464 
L 111.379592 124.265648 
L 113.657143 122.801482 
L 115.934694 121.424688 
L 118.212245 120.288973 
L 120.489796 119.545171 
L 122.767347 119.289118 
L 125.044898 119.402197 
L 127.322449 119.720624 
L 129.6 120.103369 
L 129.6 120.206622 
L 129.6 120.206622 
L 127.322449 119.84789 
L 125.044898 119.547873 
L 122.767347 119.445037 
L 120.489796 119.704702 
L 118.212245 120.456766 
L 115.934694 121.617068 
L 113.657143 123.034705 
L 111.379592 124.546296 
L 109.102041 125.982142 
L 106.82449 127.171555 
L 104.546939 127.948637 
L 102.269388 128.16 
L 99.991837 127.673964 
L 97.714286 126.390035 
L 95.436735 124.246686 
L 93.159184 121.225704 
L 90.881633 117.357936 
L 88.604082 112.732125 
L 86.326531 107.502435 
L 84.04898 101.892165 
L 81.771429 96.19303 
L 79.493878 90.760318 
L 77.216327 86.003854 
L 74.938776 82.36407 
L 72.661224 80.236289 
L 70.383673 79.527024 
L 68.106122 80.066515 
L 65.828571 81.666387 
L 63.55102 84.131974 
L 61.273469 87.265454 
L 58.995918 90.869787 
L 56.718367 94.753352 
L 54.440816 98.734858 
L 52.163265 102.648381 
L 49.885714 106.348215 
L 47.608163 109.712974 
L 45.330612 112.64932 
L 43.053061 115.09512 
L 40.77551 117.021913 
L 38.497959 118.435468 
L 36.220408 119.37617 
L 33.942857 119.923474 
L 31.665306 120.198757 
L 29.387755 120.361309 
L 27.110204 120.548455 
L 24.832653 120.712823 
L 22.555102 120.782665 
L 20.277551 120.720194 
L 18 120.519376 
z
" style="fill:#66c2a5;fill-opacity:0.2;"/>
   </g>
   <g id="matplotlib.axis_3">
    <g id="xtick_6">
     <g id="line2d_12">
      <g>
       <use style="fill:#a9a9a9;stroke:#a9a9a9;stroke-width:2;" x="29.387755" xlink:href="#m7e4b3500e4" y="122.179236"/>
      </g>
     </g>
    </g>
    <g id="xtick_7">
     <g id="line2d_13">
      <g>
       <use style="fill:#a9a9a9;stroke:#a9a9a9;stroke-width:2;" x="52.163265" xlink:href="#m7e4b3500e4" y="122.179236"/>
      </g>
     </g>
    </g>
    <g id="xtick_8">
     <g id="line2d_14">
      <g>
       <use style="fill:#a9a9a9;stroke:#a9a9a9;stroke-width:2;" x="74.938776" xlink:href="#m7e4b3500e4" y="122.179236"/>
      </g>
     </g>
    </g>
    <g id="xtick_9">
     <g id="line2d_15">
      <g>
       <use style="fill:#a9a9a9;stroke:#a9a9a9;stroke-width:2;" x="97.714286" xlink:href="#m7e4b3500e4" y="122.179236"/>
      </g>
     </g>
    </g>
    <g id="xtick_10">
     <g id="line2d_16">
      <g>
       <use style="fill:#a9a9a9;stroke:#a9a9a9;stroke-width:2;" x="120.489796" xlink:href="#m7e4b3500e4" y="122.179236"/>
      </g>
     </g>
    </g>
   </g>
   <g id="matplotlib.axis_4"/>
   <g id="line2d_17">
    <path clip-path="url(#pc8a73b7787)" d="M 18 120.480056 
L 20.277551 120.689384 
L 22.555102 120.751855 
L 24.832653 120.674703 
L 27.110204 120.501048 
L 29.387755 120.305992 
L 31.665306 120.138058 
L 33.942857 119.858226 
L 36.220408 119.305829 
L 38.497959 118.356634 
L 40.77551 116.925114 
L 43.053061 114.965178 
L 45.330612 112.469636 
L 47.608163 109.468651 
L 49.885714 106.027357 
L 52.163265 102.242852 
L 54.440816 98.240703 
L 56.718367 94.171061 
L 58.995918 90.204208 
L 61.273469 86.525569 
L 63.55102 83.330467 
L 65.828571 80.818991 
L 68.106122 79.191284 
L 70.383673 78.643512 
L 72.661224 79.364672 
L 74.938776 81.52423 
L 77.216327 85.21393 
L 79.493878 90.035406 
L 81.771429 95.544147 
L 84.04898 101.325879 
L 86.326531 107.02057 
L 88.604082 112.331555 
L 90.881633 117.030254 
L 93.159184 120.957046 
L 95.436735 124.018866 
L 97.714286 126.184253 
L 99.991837 127.476504 
L 102.269388 127.965557 
L 104.546939 127.758947 
L 106.82449 126.992267 
L 109.102041 125.819803 
L 111.379592 124.405972 
L 113.657143 122.918094 
L 115.934694 121.520878 
L 118.212245 120.37287 
L 120.489796 119.624936 
L 122.767347 119.367078 
L 125.044898 119.475035 
L 127.322449 119.784257 
L 129.6 120.154996 
" style="fill:none;stroke:#66c2a5;stroke-linecap:square;stroke-width:2;"/>
   </g>
   <g id="patch_8">
    <path d="M 74.938776 128.16 
L 74.938776 77.76 
" style="fill:none;stroke:#a9a9a9;stroke-linecap:square;stroke-linejoin:miter;stroke-width:2;"/>
   </g>
   <g id="patch_9">
    <path d="M 129.6 128.16 
L 129.6 77.76 
" style="fill:none;"/>
   </g>
   <g id="patch_10">
    <path d="M 18 122.179236 
L 129.6 122.179236 
" style="fill:none;stroke:#a9a9a9;stroke-linecap:square;stroke-linejoin:miter;stroke-width:2;"/>
   </g>
   <g id="patch_11">
    <path d="M 18 77.76 
L 129.6 77.76 
" style="fill:none;"/>
   </g>
  </g>
 </g>
 <defs>
  <clipPath id="ped60aa8fe3">
   <rect height="50.4" width="111.6" x="18" y="17.28"/>
  </clipPath>
  <clipPath id="pc8a73b7787">
   <rect height="50.4" width="111.6" x="18" y="77.76"/>
  </clipPath>
 </defs>
</svg>
