<?xml version="1.0" encoding="utf-8" standalone="no"?>
<!DOCTYPE svg PUBLIC "-//W3C//DTD SVG 1.1//EN"
  "http://www.w3.org/Graphics/SVG/1.1/DTD/svg11.dtd">
<!-- Created with matplotlib (https://matplotlib.org/) -->
<svg height="144pt" version="1.1" viewBox="0 0 144 144" width="144pt" xmlns="http://www.w3.org/2000/svg" xmlns:xlink="http://www.w3.org/1999/xlink">
 <metadata>
  <rdf:RDF xmlns:cc="http://creativecommons.org/ns#" xmlns:dc="http://purl.org/dc/elements/1.1/" xmlns:rdf="http://www.w3.org/1999/02/22-rdf-syntax-ns#">
   <cc:Work>
    <dc:type rdf:resource="http://purl.org/dc/dcmitype/StillImage"/>
    <dc:date>2021-10-12T18:35:53.008106</dc:date>
    <dc:format>image/svg+xml</dc:format>
    <dc:creator>
     <cc:Agent>
      <dc:title>Matplotlib v3.3.2, https://matplotlib.org/</dc:title>
     </cc:Agent>
    </dc:creator>
   </cc:Work>
  </rdf:RDF>
 </metadata>
 <defs>
  <style type="text/css">*{stroke-linecap:butt;stroke-linejoin:round;}</style>
 </defs>
 <g id="figure_1">
  <g id="patch_1">
   <path d="M 0 144 
L 144 144 
L 144 0 
L 0 0 
z
" style="fill:none;"/>
  </g>
  <g id="axes_1">
   <g id="patch_2">
    <path d="M 18 67.68 
L 129.6 67.68 
L 129.6 17.28 
L 18 17.28 
z
" style="fill:none;"/>
   </g>
   <g id="PolyCollection_1">
    <path clip-path="url(#p0b01e4d8e3)" d="M 18 67.359902 
L 18 67.359902 
L 20.277551 67.359902 
L 22.555102 67.359902 
L 24.832653 67.359902 
L 27.110204 67.359898 
L 29.387755 67.353695 
L 31.665306 67.228171 
L 33.942857 66.681503 
L 36.220408 66.020198 
L 38.497959 64.965712 
L 40.77551 62.687949 
L 43.053061 61.265902 
L 45.330612 58.010327 
L 47.608163 55.333405 
L 49.885714 51.154739 
L 52.163265 46.272343 
L 54.440816 41.660317 
L 56.718367 37.179524 
L 58.995918 32.229932 
L 61.273469 27.724379 
L 63.55102 24.881351 
L 65.828571 21.696012 
L 68.106122 20.04186 
L 70.383673 17.28 
L 72.661224 19.414309 
L 74.938776 25.94162 
L 77.216327 24.239775 
L 79.493878 29.048043 
L 81.771429 31.421003 
L 84.04898 35.198004 
L 86.326531 40.112739 
L 88.604082 43.514124 
L 90.881633 46.933177 
L 93.159184 50.980692 
L 95.436735 53.806191 
L 97.714286 56.833352 
L 99.991837 59.141739 
L 102.269388 61.165991 
L 104.546939 62.926524 
L 106.82449 64.053494 
L 109.102041 65.906471 
L 111.379592 66.313744 
L 113.657143 66.818894 
L 115.934694 67.120923 
L 118.212245 67.306662 
L 120.489796 67.35808 
L 122.767347 67.359901 
L 125.044898 67.359902 
L 127.322449 67.359902 
L 129.6 67.359902 
L 129.6 67.359902 
L 129.6 67.359902 
L 127.322449 67.359902 
L 125.044898 67.359902 
L 122.767347 67.359905 
L 120.489796 67.363627 
L 118.212245 67.445595 
L 115.934694 67.674944 
L 113.657143 67.64636 
L 111.379592 67.561423 
L 109.102041 67.68 
L 106.82449 66.776242 
L 104.546939 66.391302 
L 102.269388 64.478438 
L 99.991837 63.348413 
L 97.714286 61.850187 
L 95.436735 59.645863 
L 93.159184 57.36392 
L 90.881633 55.239819 
L 88.604082 51.220077 
L 86.326531 47.995606 
L 84.04898 43.461343 
L 81.771429 39.761763 
L 79.493878 38.815414 
L 77.216327 34.129641 
L 74.938776 31.285911 
L 72.661224 30.002768 
L 70.383673 27.492301 
L 68.106122 29.221061 
L 65.828571 31.697703 
L 63.55102 32.945695 
L 61.273469 35.873528 
L 58.995918 40.496228 
L 56.718367 43.781564 
L 54.440816 48.330357 
L 52.163265 52.222581 
L 49.885714 55.634362 
L 47.608163 58.830994 
L 45.330612 61.401311 
L 43.053061 63.808536 
L 40.77551 64.929263 
L 38.497959 66.333724 
L 36.220408 67.131066 
L 33.942857 67.331344 
L 31.665306 67.390994 
L 29.387755 67.362939 
L 27.110204 67.359903 
L 24.832653 67.359902 
L 22.555102 67.359902 
L 20.277551 67.359902 
L 18 67.359902 
z
" style="fill:#fc8d62;fill-opacity:0.2;"/>
   </g>
   <g id="PolyCollection_2">
    <path clip-path="url(#p0b01e4d8e3)" d="M 18 67.359902 
L 18 67.359902 
L 20.277551 67.359902 
L 22.555102 67.359902 
L 24.832653 67.359902 
L 27.110204 67.359897 
L 29.387755 67.35699 
L 31.665306 67.169791 
L 33.942857 66.840926 
L 36.220408 65.858126 
L 38.497959 64.89312 
L 40.77551 63.710613 
L 43.053061 61.397181 
L 45.330612 59.699258 
L 47.608163 55.301551 
L 49.885714 52.19764 
L 52.163265 49.105564 
L 54.440816 44.926356 
L 56.718367 41.299485 
L 58.995918 37.44102 
L 61.273469 31.812615 
L 63.55102 28.307703 
L 65.828571 25.836689 
L 68.106122 24.99768 
L 70.383673 21.054045 
L 72.661224 20.966294 
L 74.938776 24.972314 
L 77.216327 21.489657 
L 79.493878 25.071274 
L 81.771429 26.100822 
L 84.04898 31.097885 
L 86.326531 34.499503 
L 88.604082 37.472832 
L 90.881633 42.792961 
L 93.159184 45.478547 
L 95.436735 49.760608 
L 97.714286 53.677839 
L 99.991837 56.792026 
L 102.269388 59.316634 
L 104.546939 61.466821 
L 106.82449 63.438879 
L 109.102041 64.917993 
L 111.379592 66.101549 
L 113.657143 66.690386 
L 115.934694 67.046248 
L 118.212245 67.307668 
L 120.489796 67.35918 
L 122.767347 67.359901 
L 125.044898 67.359902 
L 127.322449 67.359902 
L 129.6 67.359902 
L 129.6 67.359902 
L 129.6 67.359902 
L 127.322449 67.359902 
L 125.044898 67.359902 
L 122.767347 67.359905 
L 120.489796 67.36165 
L 118.212245 67.471119 
L 115.934694 67.57149 
L 113.657143 67.825027 
L 111.379592 67.568284 
L 109.102041 66.927 
L 106.82449 66.647305 
L 104.546939 64.584482 
L 102.269388 63.746983 
L 99.991837 62.329509 
L 97.714286 58.960514 
L 95.436735 56.120993 
L 93.159184 52.253166 
L 90.881633 49.06758 
L 88.604082 46.625159 
L 86.326531 43.523975 
L 84.04898 39.48826 
L 81.771429 35.217432 
L 79.493878 34.226835 
L 77.216327 32.093445 
L 74.938776 30.744552 
L 72.661224 30.238189 
L 70.383673 30.435784 
L 68.106122 33.161367 
L 65.828571 34.177962 
L 63.55102 36.516255 
L 61.273469 42.134478 
L 58.995918 43.874909 
L 56.718367 48.511291 
L 54.440816 51.636123 
L 52.163265 54.371203 
L 49.885714 57.309818 
L 47.608163 60.868229 
L 45.330612 62.759324 
L 43.053061 64.190571 
L 40.77551 65.589021 
L 38.497959 66.539382 
L 36.220408 67.163829 
L 33.942857 67.379541 
L 31.665306 67.398205 
L 29.387755 67.361106 
L 27.110204 67.359904 
L 24.832653 67.359902 
L 22.555102 67.359902 
L 20.277551 67.359902 
L 18 67.359902 
z
" style="fill:#fc8d62;fill-opacity:0.2;"/>
   </g>
   <g id="matplotlib.axis_1">
    <g id="xtick_1">
     <g id="line2d_1">
      <defs>
       <path d="M 0 0 
L 0 3.5 
" id="mc196e90eb1" style="stroke:#a9a9a9;stroke-width:2;"/>
      </defs>
      <g>
       <use style="fill:#a9a9a9;stroke:#a9a9a9;stroke-width:2;" x="29.387755" xlink:href="#mc196e90eb1" y="67.359902"/>
      </g>
     </g>
    </g>
    <g id="xtick_2">
     <g id="line2d_2">
      <g>
       <use style="fill:#a9a9a9;stroke:#a9a9a9;stroke-width:2;" x="52.163265" xlink:href="#mc196e90eb1" y="67.359902"/>
      </g>
     </g>
    </g>
    <g id="xtick_3">
     <g id="line2d_3">
      <g>
       <use style="fill:#a9a9a9;stroke:#a9a9a9;stroke-width:2;" x="74.938776" xlink:href="#mc196e90eb1" y="67.359902"/>
      </g>
     </g>
    </g>
    <g id="xtick_4">
     <g id="line2d_4">
      <g>
       <use style="fill:#a9a9a9;stroke:#a9a9a9;stroke-width:2;" x="97.714286" xlink:href="#mc196e90eb1" y="67.359902"/>
      </g>
     </g>
    </g>
    <g id="xtick_5">
     <g id="line2d_5">
      <g>
       <use style="fill:#a9a9a9;stroke:#a9a9a9;stroke-width:2;" x="120.489796" xlink:href="#mc196e90eb1" y="67.359902"/>
      </g>
     </g>
    </g>
   </g>
   <g id="matplotlib.axis_2"/>
   <g id="line2d_6">
    <path clip-path="url(#p0b01e4d8e3)" d="M 18 67.359902 
L 20.277551 67.359902 
L 22.555102 67.359902 
L 24.832653 67.359902 
L 27.110204 67.359901 
L 29.387755 67.358317 
L 31.665306 67.309582 
L 33.942857 67.006424 
L 36.220408 66.575632 
L 38.497959 65.649718 
L 40.77551 63.808606 
L 43.053061 62.537219 
L 45.330612 59.705819 
L 47.608163 57.082199 
L 49.885714 53.394551 
L 52.163265 49.247462 
L 54.440816 44.995337 
L 56.718367 40.480544 
L 58.995918 36.36308 
L 61.273469 31.798954 
L 63.55102 28.913523 
L 65.828571 26.696857 
L 68.106122 24.63146 
L 70.383673 22.38615 
L 72.661224 24.708539 
L 74.938776 28.613766 
L 77.216327 29.184708 
L 79.493878 33.931728 
L 81.771429 35.591383 
L 84.04898 39.329673 
L 86.326531 44.054172 
L 88.604082 47.367101 
L 90.881633 51.086498 
L 93.159184 54.172306 
L 95.436735 56.726027 
L 97.714286 59.34177 
L 99.991837 61.245076 
L 102.269388 62.822214 
L 104.546939 64.658913 
L 106.82449 65.414868 
L 109.102041 66.793235 
L 111.379592 66.937583 
L 113.657143 67.232627 
L 115.934694 67.397933 
L 118.212245 67.376129 
L 120.489796 67.360853 
L 122.767347 67.359903 
L 125.044898 67.359902 
L 127.322449 67.359902 
L 129.6 67.359902 
" style="fill:none;stroke:#fc8d62;stroke-linecap:square;stroke-width:2;"/>
   </g>
   <g id="line2d_7">
    <path clip-path="url(#p0b01e4d8e3)" d="M 18 67.359902 
L 20.277551 67.359902 
L 22.555102 67.359902 
L 24.832653 67.359902 
L 27.110204 67.359901 
L 29.387755 67.359048 
L 31.665306 67.283998 
L 33.942857 67.110234 
L 36.220408 66.510978 
L 38.497959 65.716251 
L 40.77551 64.649817 
L 43.053061 62.793876 
L 45.330612 61.229291 
L 47.608163 58.08489 
L 49.885714 54.753729 
L 52.163265 51.738383 
L 54.440816 48.281239 
L 56.718367 44.905388 
L 58.995918 40.657965 
L 61.273469 36.973546 
L 63.55102 32.411979 
L 65.828571 30.007325 
L 68.106122 29.079524 
L 70.383673 25.744915 
L 72.661224 25.602242 
L 74.938776 27.858433 
L 77.216327 26.791551 
L 79.493878 29.649054 
L 81.771429 30.659127 
L 84.04898 35.293072 
L 86.326531 39.011739 
L 88.604082 42.048996 
L 90.881633 45.930271 
L 93.159184 48.865856 
L 95.436735 52.940801 
L 97.714286 56.319177 
L 99.991837 59.560768 
L 102.269388 61.531808 
L 104.546939 63.025651 
L 106.82449 65.043092 
L 109.102041 65.922496 
L 111.379592 66.834916 
L 113.657143 67.257707 
L 115.934694 67.308869 
L 118.212245 67.389393 
L 120.489796 67.360415 
L 122.767347 67.359903 
L 125.044898 67.359902 
L 127.322449 67.359902 
L 129.6 67.359902 
" style="fill:none;stroke:#fc8d62;stroke-dasharray:1.5,1.5;stroke-dashoffset:0;stroke-opacity:0.7;stroke-width:1.5;"/>
   </g>
   <g id="patch_3">
    <path d="M 74.938776 67.68 
L 74.938776 17.28 
" style="fill:none;stroke:#a9a9a9;stroke-linecap:square;stroke-linejoin:miter;stroke-width:2;"/>
   </g>
   <g id="patch_4">
    <path d="M 129.6 67.68 
L 129.6 17.28 
" style="fill:none;"/>
   </g>
   <g id="patch_5">
    <path d="M 18 67.359902 
L 129.6 67.359902 
" style="fill:none;stroke:#a9a9a9;stroke-linecap:square;stroke-linejoin:miter;stroke-width:2;"/>
   </g>
   <g id="patch_6">
    <path d="M 18 17.28 
L 129.6 17.28 
" style="fill:none;"/>
   </g>
   <g id="legend_1">
    <g id="line2d_8">
     <path d="M 87.67 26.448906 
L 101.67 26.448906 
" style="fill:none;stroke:#fc8d62;stroke-linecap:square;stroke-width:2;"/>
    </g>
    <g id="line2d_9"/>
    <g id="text_1">
     <!-- $\theta$ -->
     <g transform="translate(107.27 28.898906)scale(0.07 -0.07)">
      <defs>
       <path d="M 45.515625 34.671875 
L 14.453125 34.671875 
Q 12.359375 20.0625 14.5 13.875 
Q 17.1875 6.25 24.46875 6.25 
Q 31.78125 6.25 37.359375 13.921875 
Q 42.234375 20.65625 45.515625 34.671875 
z
M 47.015625 42.96875 
Q 48.34375 56.84375 46.625 61.71875 
Q 43.953125 69.4375 36.765625 69.4375 
Q 29.296875 69.4375 23.828125 61.8125 
Q 19.53125 55.671875 16.15625 42.96875 
z
M 38.1875 76.765625 
Q 49.90625 76.765625 54.59375 66.40625 
Q 59.28125 56.109375 55.71875 37.84375 
Q 52.203125 19.625 43.453125 9.28125 
Q 34.765625 -1.125 23.046875 -1.125 
Q 11.28125 -1.125 6.640625 9.28125 
Q 2 19.625 5.515625 37.84375 
Q 9.078125 56.109375 17.71875 66.40625 
Q 26.421875 76.765625 38.1875 76.765625 
z
" id="DejaVuSans-Oblique-952"/>
      </defs>
      <use transform="translate(0 0.234375)" xlink:href="#DejaVuSans-Oblique-952"/>
     </g>
    </g>
    <g id="line2d_10">
     <path d="M 87.67 36.723594 
L 101.67 36.723594 
" style="fill:none;stroke:#fc8d62;stroke-dasharray:1.5,1.5;stroke-dashoffset:0;stroke-opacity:0.7;stroke-width:1.5;"/>
    </g>
    <g id="line2d_11"/>
    <g id="text_2">
     <!-- No $\theta$ -->
     <g transform="translate(107.27 39.173594)scale(0.07 -0.07)">
      <defs>
       <path d="M 9.8125 72.90625 
L 23.09375 72.90625 
L 55.421875 11.921875 
L 55.421875 72.90625 
L 64.984375 72.90625 
L 64.984375 0 
L 51.703125 0 
L 19.390625 60.984375 
L 19.390625 0 
L 9.8125 0 
z
" id="DejaVuSans-78"/>
       <path d="M 30.609375 48.390625 
Q 23.390625 48.390625 19.1875 42.75 
Q 14.984375 37.109375 14.984375 27.296875 
Q 14.984375 17.484375 19.15625 11.84375 
Q 23.34375 6.203125 30.609375 6.203125 
Q 37.796875 6.203125 41.984375 11.859375 
Q 46.1875 17.53125 46.1875 27.296875 
Q 46.1875 37.015625 41.984375 42.703125 
Q 37.796875 48.390625 30.609375 48.390625 
z
M 30.609375 56 
Q 42.328125 56 49.015625 48.375 
Q 55.71875 40.765625 55.71875 27.296875 
Q 55.71875 13.875 49.015625 6.21875 
Q 42.328125 -1.421875 30.609375 -1.421875 
Q 18.84375 -1.421875 12.171875 6.21875 
Q 5.515625 13.875 5.515625 27.296875 
Q 5.515625 40.765625 12.171875 48.375 
Q 18.84375 56 30.609375 56 
z
" id="DejaVuSans-111"/>
       <path id="DejaVuSans-32"/>
      </defs>
      <use transform="translate(0 0.234375)" xlink:href="#DejaVuSans-78"/>
      <use transform="translate(74.804688 0.234375)" xlink:href="#DejaVuSans-111"/>
      <use transform="translate(135.986328 0.234375)" xlink:href="#DejaVuSans-32"/>
      <use transform="translate(167.773438 0.234375)" xlink:href="#DejaVuSans-Oblique-952"/>
     </g>
    </g>
   </g>
  </g>
  <g id="axes_2">
   <g id="patch_7">
    <path d="M 18 128.16 
L 129.6 128.16 
L 129.6 77.76 
L 18 77.76 
z
" style="fill:none;"/>
   </g>
   <g id="PolyCollection_3">
    <path clip-path="url(#p6bc34d7343)" d="M 18 120.565925 
L 18 120.488153 
L 20.277551 120.70296 
L 22.555102 120.763671 
L 24.832653 120.678906 
L 27.110204 120.496995 
L 29.387755 120.295721 
L 31.665306 120.124121 
L 33.942857 119.841228 
L 36.220408 119.284846 
L 38.497959 118.327561 
L 40.77551 116.877932 
L 43.053061 114.884481 
L 45.330612 112.338688 
L 47.608163 109.272226 
L 49.885714 105.753156 
L 52.163265 101.882122 
L 54.440816 97.788767 
L 56.718367 93.627602 
L 58.995918 89.573265 
L 61.273469 85.815289 
L 63.55102 82.552657 
L 65.828571 79.988476 
L 68.106122 78.325105 
L 70.383673 77.76 
L 72.661224 78.482441 
L 74.938776 80.661205 
L 77.216327 84.386136 
L 79.493878 89.257501 
L 81.771429 94.828442 
L 84.04898 100.68158 
L 86.326531 106.452965 
L 88.604082 111.841236 
L 90.881633 116.612387 
L 93.159184 120.601098 
L 95.436735 123.709964 
L 97.714286 125.907391 
L 99.991837 127.222018 
L 102.269388 127.731374 
L 104.546939 127.548686 
L 106.82449 126.812029 
L 109.102041 125.675384 
L 111.379592 124.300725 
L 113.657143 122.851099 
L 115.934694 121.485366 
L 118.212245 120.356332 
L 120.489796 119.61428 
L 122.767347 119.356318 
L 125.044898 119.46486 
L 127.322449 119.777752 
L 129.6 120.155147 
L 129.6 120.258307 
L 129.6 120.258307 
L 127.322449 119.905752 
L 125.044898 119.612056 
L 122.767347 119.514542 
L 120.489796 119.777344 
L 118.212245 120.529006 
L 115.934694 121.686317 
L 113.657143 123.098346 
L 111.379592 124.601525 
L 109.102041 126.026287 
L 106.82449 127.202352 
L 104.546939 127.964484 
L 102.269388 128.16 
L 99.991837 127.657897 
L 97.714286 126.358533 
L 95.436735 124.201703 
L 93.159184 121.171389 
L 90.881633 117.300472 
L 88.604082 112.678656 
L 86.326531 107.460116 
L 84.04898 101.867354 
L 81.771429 96.190692 
L 79.493878 90.783535 
L 77.216327 86.053293 
L 74.938776 82.437664 
L 72.661224 80.328899 
L 70.383673 79.633958 
L 68.106122 80.183442 
L 65.828571 81.78941 
L 63.55102 84.257596 
L 61.273469 87.390581 
L 58.995918 90.991757 
L 56.718367 94.869924 
L 54.440816 98.844259 
L 52.163265 102.749363 
L 49.885714 106.440029 
L 47.608163 109.795381 
L 45.330612 112.7225 
L 43.053061 115.159784 
L 40.77551 117.079114 
L 38.497959 118.486728 
L 36.220408 119.423496 
L 33.942857 119.968907 
L 31.665306 120.243534 
L 29.387755 120.405634 
L 27.110204 120.591725 
L 24.832653 120.754997 
L 22.555102 120.824522 
L 20.277551 120.763335 
L 18 120.565925 
z
" style="fill:#66c2a5;fill-opacity:0.2;"/>
   </g>
   <g id="matplotlib.axis_3">
    <g id="xtick_6">
     <g id="line2d_12">
      <g>
       <use style="fill:#a9a9a9;stroke:#a9a9a9;stroke-width:2;" x="29.387755" xlink:href="#mc196e90eb1" y="122.211138"/>
      </g>
     </g>
    </g>
    <g id="xtick_7">
     <g id="line2d_13">
      <g>
       <use style="fill:#a9a9a9;stroke:#a9a9a9;stroke-width:2;" x="52.163265" xlink:href="#mc196e90eb1" y="122.211138"/>
      </g>
     </g>
    </g>
    <g id="xtick_8">
     <g id="line2d_14">
      <g>
       <use style="fill:#a9a9a9;stroke:#a9a9a9;stroke-width:2;" x="74.938776" xlink:href="#mc196e90eb1" y="122.211138"/>
      </g>
     </g>
    </g>
    <g id="xtick_9">
     <g id="line2d_15">
      <g>
       <use style="fill:#a9a9a9;stroke:#a9a9a9;stroke-width:2;" x="97.714286" xlink:href="#mc196e90eb1" y="122.211138"/>
      </g>
     </g>
    </g>
    <g id="xtick_10">
     <g id="line2d_16">
      <g>
       <use style="fill:#a9a9a9;stroke:#a9a9a9;stroke-width:2;" x="120.489796" xlink:href="#mc196e90eb1" y="122.211138"/>
      </g>
     </g>
    </g>
   </g>
   <g id="matplotlib.axis_4"/>
   <g id="line2d_17">
    <path clip-path="url(#p6bc34d7343)" d="M 18 120.527039 
L 20.277551 120.733147 
L 22.555102 120.794096 
L 24.832653 120.716952 
L 27.110204 120.54436 
L 29.387755 120.350677 
L 31.665306 120.183828 
L 33.942857 119.905068 
L 36.220408 119.354171 
L 38.497959 118.407145 
L 40.77551 116.978523 
L 43.053061 115.022133 
L 45.330612 112.530594 
L 47.608163 109.533804 
L 49.885714 106.096592 
L 52.163265 102.315742 
L 54.440816 98.316513 
L 56.718367 94.248763 
L 58.995918 90.282511 
L 61.273469 86.602935 
L 63.55102 83.405126 
L 65.828571 80.888943 
L 68.106122 79.254274 
L 70.383673 78.696979 
L 72.661224 79.40567 
L 74.938776 81.549434 
L 77.216327 85.219714 
L 79.493878 90.020518 
L 81.771429 95.509567 
L 84.04898 101.274467 
L 86.326531 106.956541 
L 88.604082 112.259946 
L 90.881633 116.956429 
L 93.159184 120.886244 
L 95.436735 123.955834 
L 97.714286 126.132962 
L 99.991837 127.439958 
L 102.269388 127.945687 
L 104.546939 127.756585 
L 106.82449 127.007191 
L 109.102041 125.850836 
L 111.379592 124.451125 
L 113.657143 122.974722 
L 115.934694 121.585842 
L 118.212245 120.442669 
L 120.489796 119.695812 
L 122.767347 119.43543 
L 125.044898 119.538458 
L 127.322449 119.841752 
L 129.6 120.206727 
" style="fill:none;stroke:#66c2a5;stroke-linecap:square;stroke-width:2;"/>
   </g>
   <g id="patch_8">
    <path d="M 74.938776 128.16 
L 74.938776 77.76 
" style="fill:none;stroke:#a9a9a9;stroke-linecap:square;stroke-linejoin:miter;stroke-width:2;"/>
   </g>
   <g id="patch_9">
    <path d="M 129.6 128.16 
L 129.6 77.76 
" style="fill:none;"/>
   </g>
   <g id="patch_10">
    <path d="M 18 122.211138 
L 129.6 122.211138 
" style="fill:none;stroke:#a9a9a9;stroke-linecap:square;stroke-linejoin:miter;stroke-width:2;"/>
   </g>
   <g id="patch_11">
    <path d="M 18 77.76 
L 129.6 77.76 
" style="fill:none;"/>
   </g>
  </g>
 </g>
 <defs>
  <clipPath id="p0b01e4d8e3">
   <rect height="50.4" width="111.6" x="18" y="17.28"/>
  </clipPath>
  <clipPath id="p6bc34d7343">
   <rect height="50.4" width="111.6" x="18" y="77.76"/>
  </clipPath>
 </defs>
</svg>
