<?xml version="1.0" encoding="utf-8" standalone="no"?>
<!DOCTYPE svg PUBLIC "-//W3C//DTD SVG 1.1//EN"
  "http://www.w3.org/Graphics/SVG/1.1/DTD/svg11.dtd">
<!-- Created with matplotlib (https://matplotlib.org/) -->
<svg height="144pt" version="1.1" viewBox="0 0 144 144" width="144pt" xmlns="http://www.w3.org/2000/svg" xmlns:xlink="http://www.w3.org/1999/xlink">
 <metadata>
  <rdf:RDF xmlns:cc="http://creativecommons.org/ns#" xmlns:dc="http://purl.org/dc/elements/1.1/" xmlns:rdf="http://www.w3.org/1999/02/22-rdf-syntax-ns#">
   <cc:Work>
    <dc:type rdf:resource="http://purl.org/dc/dcmitype/StillImage"/>
    <dc:date>2021-10-11T19:21:11.421569</dc:date>
    <dc:format>image/svg+xml</dc:format>
    <dc:creator>
     <cc:Agent>
      <dc:title>Matplotlib v3.3.2, https://matplotlib.org/</dc:title>
     </cc:Agent>
    </dc:creator>
   </cc:Work>
  </rdf:RDF>
 </metadata>
 <defs>
  <style type="text/css">*{stroke-linecap:butt;stroke-linejoin:round;}</style>
 </defs>
 <g id="figure_1">
  <g id="patch_1">
   <path d="M 0 144 
L 144 144 
L 144 0 
L 0 0 
z
" style="fill:none;"/>
  </g>
  <g id="axes_1">
   <g id="patch_2">
    <path d="M 18 67.68 
L 129.6 67.68 
L 129.6 17.28 
L 18 17.28 
z
" style="fill:none;"/>
   </g>
   <g id="PolyCollection_1">
    <path clip-path="url(#paf5ee052ae)" d="M 18 65.706266 
L 18 65.706266 
L 20.277551 65.706266 
L 22.555102 65.706266 
L 24.832653 65.706266 
L 27.110204 65.706266 
L 29.387755 65.706264 
L 31.665306 65.647963 
L 33.942857 65.424665 
L 36.220408 64.910673 
L 38.497959 64.342907 
L 40.77551 63.118836 
L 43.053061 61.183929 
L 45.330612 58.548469 
L 47.608163 55.890933 
L 49.885714 51.657904 
L 52.163265 46.325119 
L 54.440816 41.607082 
L 56.718367 35.769336 
L 58.995918 29.496058 
L 61.273469 24.148962 
L 63.55102 21.537515 
L 65.828571 19.32356 
L 68.106122 17.28 
L 70.383673 19.149196 
L 72.661224 21.517522 
L 74.938776 43.269156 
L 77.216327 30.330411 
L 79.493878 36.300088 
L 81.771429 42.353942 
L 84.04898 47.823575 
L 86.326531 51.048162 
L 88.604082 54.999607 
L 90.881633 58.446576 
L 93.159184 60.348469 
L 95.436735 62.255388 
L 97.714286 62.525061 
L 99.991837 62.977696 
L 102.269388 63.02581 
L 104.546939 63.891373 
L 106.82449 63.996499 
L 109.102041 64.277341 
L 111.379592 64.519668 
L 113.657143 65.105821 
L 115.934694 65.402484 
L 118.212245 65.600062 
L 120.489796 65.706246 
L 122.767347 65.706266 
L 125.044898 65.706266 
L 127.322449 65.706266 
L 129.6 65.706266 
L 129.6 65.706266 
L 129.6 65.706266 
L 127.322449 65.706266 
L 125.044898 65.706266 
L 122.767347 65.706266 
L 120.489796 65.706296 
L 118.212245 65.761364 
L 115.934694 65.859286 
L 113.657143 65.952491 
L 111.379592 65.978226 
L 109.102041 66.245595 
L 106.82449 66.272445 
L 104.546939 66.523035 
L 102.269388 66.500714 
L 99.991837 66.886683 
L 97.714286 67.68 
L 95.436735 66.801927 
L 93.159184 66.381542 
L 90.881633 65.759747 
L 88.604082 64.174826 
L 86.326531 60.806547 
L 84.04898 55.539664 
L 81.771429 51.463159 
L 79.493878 45.402659 
L 77.216327 39.86041 
L 74.938776 46.34468 
L 72.661224 31.143406 
L 70.383673 28.194453 
L 68.106122 27.478611 
L 65.828571 27.941747 
L 63.55102 30.501898 
L 61.273469 34.517133 
L 58.995918 37.336781 
L 56.718367 42.243023 
L 54.440816 46.519511 
L 52.163265 51.102131 
L 49.885714 55.725876 
L 47.608163 59.52256 
L 45.330612 61.646729 
L 43.053061 63.719165 
L 40.77551 64.855137 
L 38.497959 65.761384 
L 36.220408 65.860237 
L 33.942857 65.826688 
L 31.665306 65.772517 
L 29.387755 65.706267 
L 27.110204 65.706266 
L 24.832653 65.706266 
L 22.555102 65.706266 
L 20.277551 65.706266 
L 18 65.706266 
z
" style="fill:#fc8d62;fill-opacity:0.2;"/>
   </g>
   <g id="PolyCollection_2">
    <path clip-path="url(#paf5ee052ae)" d="M 18 65.706266 
L 18 65.706266 
L 20.277551 65.706266 
L 22.555102 65.706266 
L 24.832653 65.706266 
L 27.110204 65.706266 
L 29.387755 65.706233 
L 31.665306 65.572753 
L 33.942857 65.301355 
L 36.220408 64.81673 
L 38.497959 63.932071 
L 40.77551 62.810076 
L 43.053061 61.691813 
L 45.330612 59.995394 
L 47.608163 57.754319 
L 49.885714 55.60804 
L 52.163265 53.266188 
L 54.440816 50.180982 
L 56.718367 47.333285 
L 58.995918 44.53141 
L 61.273469 42.519404 
L 63.55102 38.915161 
L 65.828571 35.955023 
L 68.106122 33.469742 
L 70.383673 31.518921 
L 72.661224 32.978815 
L 74.938776 46.825159 
L 77.216327 33.611466 
L 79.493878 33.885249 
L 81.771429 35.089705 
L 84.04898 38.335398 
L 86.326531 39.558681 
L 88.604082 42.509024 
L 90.881633 46.070865 
L 93.159184 48.438331 
L 95.436735 51.573952 
L 97.714286 55.145283 
L 99.991837 57.100623 
L 102.269388 58.606466 
L 104.546939 61.01006 
L 106.82449 62.590128 
L 109.102041 63.470435 
L 111.379592 64.297123 
L 113.657143 64.98085 
L 115.934694 65.335176 
L 118.212245 65.613612 
L 120.489796 65.706132 
L 122.767347 65.706266 
L 125.044898 65.706266 
L 127.322449 65.706266 
L 129.6 65.706266 
L 129.6 65.706266 
L 129.6 65.706266 
L 127.322449 65.706266 
L 125.044898 65.706266 
L 122.767347 65.706266 
L 120.489796 65.706448 
L 118.212245 65.803139 
L 115.934694 65.897922 
L 113.657143 65.929369 
L 111.379592 65.87392 
L 109.102041 65.702408 
L 106.82449 65.033113 
L 104.546939 63.869398 
L 102.269388 62.773319 
L 99.991837 61.002585 
L 97.714286 59.083454 
L 95.436735 57.285077 
L 93.159184 55.264636 
L 90.881633 52.825295 
L 88.604082 49.273049 
L 86.326531 47.094377 
L 84.04898 46.244241 
L 81.771429 44.100203 
L 79.493878 43.277305 
L 77.216327 40.327527 
L 74.938776 49.158642 
L 72.661224 39.911246 
L 70.383673 41.402123 
L 68.106122 42.292219 
L 65.828571 43.947348 
L 63.55102 47.182207 
L 61.273469 49.294266 
L 58.995918 51.261968 
L 56.718367 54.202486 
L 54.440816 56.190806 
L 52.163265 58.064715 
L 49.885714 60.147133 
L 47.608163 62.063881 
L 45.330612 63.00558 
L 43.053061 64.168084 
L 40.77551 65.101974 
L 38.497959 65.603799 
L 36.220408 65.840286 
L 33.942857 65.885552 
L 31.665306 65.792079 
L 29.387755 65.70629 
L 27.110204 65.706266 
L 24.832653 65.706266 
L 22.555102 65.706266 
L 20.277551 65.706266 
L 18 65.706266 
z
" style="fill:#fc8d62;fill-opacity:0.2;"/>
   </g>
   <g id="matplotlib.axis_1">
    <g id="xtick_1">
     <g id="line2d_1">
      <defs>
       <path d="M 0 0 
L 0 3.5 
" id="mba8058450c" style="stroke:#a9a9a9;stroke-width:2;"/>
      </defs>
      <g>
       <use style="fill:#a9a9a9;stroke:#a9a9a9;stroke-width:2;" x="29.387755" xlink:href="#mba8058450c" y="65.706266"/>
      </g>
     </g>
    </g>
    <g id="xtick_2">
     <g id="line2d_2">
      <g>
       <use style="fill:#a9a9a9;stroke:#a9a9a9;stroke-width:2;" x="52.163265" xlink:href="#mba8058450c" y="65.706266"/>
      </g>
     </g>
    </g>
    <g id="xtick_3">
     <g id="line2d_3">
      <g>
       <use style="fill:#a9a9a9;stroke:#a9a9a9;stroke-width:2;" x="74.938776" xlink:href="#mba8058450c" y="65.706266"/>
      </g>
     </g>
    </g>
    <g id="xtick_4">
     <g id="line2d_4">
      <g>
       <use style="fill:#a9a9a9;stroke:#a9a9a9;stroke-width:2;" x="97.714286" xlink:href="#mba8058450c" y="65.706266"/>
      </g>
     </g>
    </g>
    <g id="xtick_5">
     <g id="line2d_5">
      <g>
       <use style="fill:#a9a9a9;stroke:#a9a9a9;stroke-width:2;" x="120.489796" xlink:href="#mba8058450c" y="65.706266"/>
      </g>
     </g>
    </g>
   </g>
   <g id="matplotlib.axis_2"/>
   <g id="line2d_6">
    <path clip-path="url(#paf5ee052ae)" d="M 18 65.706266 
L 20.277551 65.706266 
L 22.555102 65.706266 
L 24.832653 65.706266 
L 27.110204 65.706266 
L 29.387755 65.706265 
L 31.665306 65.71024 
L 33.942857 65.625676 
L 36.220408 65.385455 
L 38.497959 65.052145 
L 40.77551 63.986987 
L 43.053061 62.451547 
L 45.330612 60.097599 
L 47.608163 57.706746 
L 49.885714 53.69189 
L 52.163265 48.713625 
L 54.440816 44.063297 
L 56.718367 39.006179 
L 58.995918 33.41642 
L 61.273469 29.333048 
L 63.55102 26.019707 
L 65.828571 23.632653 
L 68.106122 22.379305 
L 70.383673 23.671825 
L 72.661224 26.330464 
L 74.938776 44.806918 
L 77.216327 35.095411 
L 79.493878 40.851374 
L 81.771429 46.908551 
L 84.04898 51.68162 
L 86.326531 55.927354 
L 88.604082 59.587217 
L 90.881633 62.103162 
L 93.159184 63.365005 
L 95.436735 64.528658 
L 97.714286 65.102531 
L 99.991837 64.93219 
L 102.269388 64.763262 
L 104.546939 65.207204 
L 106.82449 65.134472 
L 109.102041 65.261468 
L 111.379592 65.248947 
L 113.657143 65.529156 
L 115.934694 65.630885 
L 118.212245 65.680713 
L 120.489796 65.706271 
L 122.767347 65.706266 
L 125.044898 65.706266 
L 127.322449 65.706266 
L 129.6 65.706266 
" style="fill:none;stroke:#fc8d62;stroke-linecap:square;stroke-width:2;"/>
   </g>
   <g id="line2d_7">
    <path clip-path="url(#paf5ee052ae)" d="M 18 65.706266 
L 20.277551 65.706266 
L 22.555102 65.706266 
L 24.832653 65.706266 
L 27.110204 65.706266 
L 29.387755 65.706262 
L 31.665306 65.682416 
L 33.942857 65.593454 
L 36.220408 65.328508 
L 38.497959 64.767935 
L 40.77551 63.956025 
L 43.053061 62.929949 
L 45.330612 61.500487 
L 47.608163 59.9091 
L 49.885714 57.877587 
L 52.163265 55.665452 
L 54.440816 53.185894 
L 56.718367 50.767885 
L 58.995918 47.896689 
L 61.273469 45.906835 
L 63.55102 43.048684 
L 65.828571 39.951185 
L 68.106122 37.88098 
L 70.383673 36.460522 
L 72.661224 36.44503 
L 74.938776 47.9919 
L 77.216327 36.969496 
L 79.493878 38.581277 
L 81.771429 39.594954 
L 84.04898 42.28982 
L 86.326531 43.326529 
L 88.604082 45.891037 
L 90.881633 49.44808 
L 93.159184 51.851484 
L 95.436735 54.429514 
L 97.714286 57.114369 
L 99.991837 59.051604 
L 102.269388 60.689893 
L 104.546939 62.439729 
L 106.82449 63.811621 
L 109.102041 64.586422 
L 111.379592 65.085522 
L 113.657143 65.455109 
L 115.934694 65.616549 
L 118.212245 65.708375 
L 120.489796 65.70629 
L 122.767347 65.706266 
L 125.044898 65.706266 
L 127.322449 65.706266 
L 129.6 65.706266 
" style="fill:none;stroke:#fc8d62;stroke-dasharray:1.5,1.5;stroke-dashoffset:0;stroke-opacity:0.7;stroke-width:1.5;"/>
   </g>
   <g id="patch_3">
    <path d="M 74.938776 67.68 
L 74.938776 17.28 
" style="fill:none;stroke:#a9a9a9;stroke-linecap:square;stroke-linejoin:miter;stroke-width:2;"/>
   </g>
   <g id="patch_4">
    <path d="M 129.6 67.68 
L 129.6 17.28 
" style="fill:none;"/>
   </g>
   <g id="patch_5">
    <path d="M 18 65.706266 
L 129.6 65.706266 
" style="fill:none;stroke:#a9a9a9;stroke-linecap:square;stroke-linejoin:miter;stroke-width:2;"/>
   </g>
   <g id="patch_6">
    <path d="M 18 17.28 
L 129.6 17.28 
" style="fill:none;"/>
   </g>
   <g id="legend_1">
    <g id="line2d_8">
     <path d="M 87.67 26.448906 
L 101.67 26.448906 
" style="fill:none;stroke:#fc8d62;stroke-linecap:square;stroke-width:2;"/>
    </g>
    <g id="line2d_9"/>
    <g id="text_1">
     <!-- $\theta$ -->
     <g transform="translate(107.27 28.898906)scale(0.07 -0.07)">
      <defs>
       <path d="M 45.515625 34.671875 
L 14.453125 34.671875 
Q 12.359375 20.0625 14.5 13.875 
Q 17.1875 6.25 24.46875 6.25 
Q 31.78125 6.25 37.359375 13.921875 
Q 42.234375 20.65625 45.515625 34.671875 
z
M 47.015625 42.96875 
Q 48.34375 56.84375 46.625 61.71875 
Q 43.953125 69.4375 36.765625 69.4375 
Q 29.296875 69.4375 23.828125 61.8125 
Q 19.53125 55.671875 16.15625 42.96875 
z
M 38.1875 76.765625 
Q 49.90625 76.765625 54.59375 66.40625 
Q 59.28125 56.109375 55.71875 37.84375 
Q 52.203125 19.625 43.453125 9.28125 
Q 34.765625 -1.125 23.046875 -1.125 
Q 11.28125 -1.125 6.640625 9.28125 
Q 2 19.625 5.515625 37.84375 
Q 9.078125 56.109375 17.71875 66.40625 
Q 26.421875 76.765625 38.1875 76.765625 
z
" id="DejaVuSans-Oblique-952"/>
      </defs>
      <use transform="translate(0 0.234375)" xlink:href="#DejaVuSans-Oblique-952"/>
     </g>
    </g>
    <g id="line2d_10">
     <path d="M 87.67 36.723594 
L 101.67 36.723594 
" style="fill:none;stroke:#fc8d62;stroke-dasharray:1.5,1.5;stroke-dashoffset:0;stroke-opacity:0.7;stroke-width:1.5;"/>
    </g>
    <g id="line2d_11"/>
    <g id="text_2">
     <!-- No $\theta$ -->
     <g transform="translate(107.27 39.173594)scale(0.07 -0.07)">
      <defs>
       <path d="M 9.8125 72.90625 
L 23.09375 72.90625 
L 55.421875 11.921875 
L 55.421875 72.90625 
L 64.984375 72.90625 
L 64.984375 0 
L 51.703125 0 
L 19.390625 60.984375 
L 19.390625 0 
L 9.8125 0 
z
" id="DejaVuSans-78"/>
       <path d="M 30.609375 48.390625 
Q 23.390625 48.390625 19.1875 42.75 
Q 14.984375 37.109375 14.984375 27.296875 
Q 14.984375 17.484375 19.15625 11.84375 
Q 23.34375 6.203125 30.609375 6.203125 
Q 37.796875 6.203125 41.984375 11.859375 
Q 46.1875 17.53125 46.1875 27.296875 
Q 46.1875 37.015625 41.984375 42.703125 
Q 37.796875 48.390625 30.609375 48.390625 
z
M 30.609375 56 
Q 42.328125 56 49.015625 48.375 
Q 55.71875 40.765625 55.71875 27.296875 
Q 55.71875 13.875 49.015625 6.21875 
Q 42.328125 -1.421875 30.609375 -1.421875 
Q 18.84375 -1.421875 12.171875 6.21875 
Q 5.515625 13.875 5.515625 27.296875 
Q 5.515625 40.765625 12.171875 48.375 
Q 18.84375 56 30.609375 56 
z
" id="DejaVuSans-111"/>
       <path id="DejaVuSans-32"/>
      </defs>
      <use transform="translate(0 0.234375)" xlink:href="#DejaVuSans-78"/>
      <use transform="translate(74.804688 0.234375)" xlink:href="#DejaVuSans-111"/>
      <use transform="translate(135.986328 0.234375)" xlink:href="#DejaVuSans-32"/>
      <use transform="translate(167.773438 0.234375)" xlink:href="#DejaVuSans-Oblique-952"/>
     </g>
    </g>
   </g>
  </g>
  <g id="axes_2">
   <g id="patch_7">
    <path d="M 18 128.16 
L 129.6 128.16 
L 129.6 77.76 
L 18 77.76 
z
" style="fill:none;"/>
   </g>
   <g id="PolyCollection_3">
    <path clip-path="url(#p8ec90dc2e0)" d="M 18 119.877652 
L 18 119.785255 
L 20.277551 119.916387 
L 22.555102 119.892815 
L 24.832653 119.715516 
L 27.110204 119.422419 
L 29.387755 119.08117 
L 31.665306 118.735719 
L 33.942857 118.257928 
L 36.220408 117.501485 
L 38.497959 116.353878 
L 40.77551 114.73797 
L 43.053061 112.614393 
L 45.330612 109.983391 
L 47.608163 106.883701 
L 49.885714 103.388825 
L 52.163265 99.60285 
L 54.440816 95.656096 
L 56.718367 91.700693 
L 58.995918 87.905625 
L 61.273469 84.4514 
L 63.55102 81.524587 
L 65.828571 79.312619 
L 68.106122 77.999109 
L 70.383673 77.76 
L 72.661224 78.760704 
L 74.938776 81.14528 
L 77.216327 84.983415 
L 79.493878 89.894077 
L 81.771429 95.451361 
L 84.04898 101.255841 
L 86.326531 106.957659 
L 88.604082 112.266137 
L 90.881633 116.955229 
L 93.159184 120.865439 
L 95.436735 123.903105 
L 97.714286 126.038128 
L 99.991837 127.298586 
L 102.269388 127.760827 
L 104.546939 127.53728 
L 106.82449 126.765354 
L 109.102041 125.597949 
L 111.379592 124.195221 
L 113.657143 122.717491 
L 115.934694 121.319973 
L 118.212245 120.150739 
L 120.489796 119.352901 
L 122.767347 119.017279 
L 125.044898 119.03472 
L 127.322449 119.253222 
L 129.6 119.539059 
L 129.6 119.653198 
L 129.6 119.653198 
L 127.322449 119.389688 
L 125.044898 119.188861 
L 122.767347 119.181919 
L 120.489796 119.5224 
L 118.212245 120.328243 
L 115.934694 121.52008 
L 113.657143 122.955471 
L 111.379592 124.478198 
L 109.102041 125.923989 
L 106.82449 127.126163 
L 104.546939 127.921894 
L 102.269388 128.16 
L 99.991837 127.7101 
L 97.714286 126.471922 
L 95.436735 124.383144 
L 93.159184 121.424952 
L 90.881633 117.627777 
L 88.604082 113.078716 
L 86.326531 107.928039 
L 84.04898 102.391924 
L 81.771429 96.751276 
L 79.493878 91.346523 
L 77.216327 86.568158 
L 74.938776 82.833842 
L 72.661224 80.517781 
L 70.383673 79.547037 
L 68.106122 79.776604 
L 65.828571 81.041966 
L 63.55102 83.169833 
L 61.273469 85.980911 
L 58.995918 89.293595 
L 56.718367 92.928388 
L 54.440816 96.712847 
L 52.163265 100.486668 
L 49.885714 104.106593 
L 47.608163 107.450783 
L 45.330612 110.422742 
L 43.053061 112.954523 
L 40.77551 115.009109 
L 38.497959 116.581879 
L 36.220408 117.70292 
L 33.942857 118.440182 
L 31.665306 118.900591 
L 29.387755 119.227298 
L 27.110204 119.546228 
L 24.832653 119.816194 
L 22.555102 119.975893 
L 20.277551 119.995896 
L 18 119.877652 
z
" style="fill:#66c2a5;fill-opacity:0.2;"/>
   </g>
   <g id="matplotlib.axis_3">
    <g id="xtick_6">
     <g id="line2d_12">
      <g>
       <use style="fill:#a9a9a9;stroke:#a9a9a9;stroke-width:2;" x="29.387755" xlink:href="#mba8058450c" y="122.272227"/>
      </g>
     </g>
    </g>
    <g id="xtick_7">
     <g id="line2d_13">
      <g>
       <use style="fill:#a9a9a9;stroke:#a9a9a9;stroke-width:2;" x="52.163265" xlink:href="#mba8058450c" y="122.272227"/>
      </g>
     </g>
    </g>
    <g id="xtick_8">
     <g id="line2d_14">
      <g>
       <use style="fill:#a9a9a9;stroke:#a9a9a9;stroke-width:2;" x="74.938776" xlink:href="#mba8058450c" y="122.272227"/>
      </g>
     </g>
    </g>
    <g id="xtick_9">
     <g id="line2d_15">
      <g>
       <use style="fill:#a9a9a9;stroke:#a9a9a9;stroke-width:2;" x="97.714286" xlink:href="#mba8058450c" y="122.272227"/>
      </g>
     </g>
    </g>
    <g id="xtick_10">
     <g id="line2d_16">
      <g>
       <use style="fill:#a9a9a9;stroke:#a9a9a9;stroke-width:2;" x="120.489796" xlink:href="#mba8058450c" y="122.272227"/>
      </g>
     </g>
    </g>
   </g>
   <g id="matplotlib.axis_4"/>
   <g id="line2d_17">
    <path clip-path="url(#p8ec90dc2e0)" d="M 18 119.831454 
L 20.277551 119.956142 
L 22.555102 119.934354 
L 24.832653 119.765855 
L 27.110204 119.484323 
L 29.387755 119.154234 
L 31.665306 118.818155 
L 33.942857 118.349055 
L 36.220408 117.602203 
L 38.497959 116.467878 
L 40.77551 114.87354 
L 43.053061 112.784458 
L 45.330612 110.203066 
L 47.608163 107.167242 
L 49.885714 103.747709 
L 52.163265 100.044759 
L 54.440816 96.184471 
L 56.718367 92.31454 
L 58.995918 88.59961 
L 61.273469 85.216156 
L 63.55102 82.34721 
L 65.828571 80.177292 
L 68.106122 78.887856 
L 70.383673 78.653518 
L 72.661224 79.639243 
L 74.938776 81.989561 
L 77.216327 85.775787 
L 79.493878 90.6203 
L 81.771429 96.101318 
L 84.04898 101.823882 
L 86.326531 107.442849 
L 88.604082 112.672426 
L 90.881633 117.291503 
L 93.159184 121.145195 
L 95.436735 124.143124 
L 97.714286 126.255025 
L 99.991837 127.504343 
L 102.269388 127.960413 
L 104.546939 127.729587 
L 106.82449 126.945759 
L 109.102041 125.760969 
L 111.379592 124.336709 
L 113.657143 122.836481 
L 115.934694 121.420026 
L 118.212245 120.239491 
L 120.489796 119.437651 
L 122.767347 119.099599 
L 125.044898 119.11179 
L 127.322449 119.321455 
L 129.6 119.596129 
" style="fill:none;stroke:#66c2a5;stroke-linecap:square;stroke-width:2;"/>
   </g>
   <g id="patch_8">
    <path d="M 74.938776 128.16 
L 74.938776 77.76 
" style="fill:none;stroke:#a9a9a9;stroke-linecap:square;stroke-linejoin:miter;stroke-width:2;"/>
   </g>
   <g id="patch_9">
    <path d="M 129.6 128.16 
L 129.6 77.76 
" style="fill:none;"/>
   </g>
   <g id="patch_10">
    <path d="M 18 122.272227 
L 129.6 122.272227 
" style="fill:none;stroke:#a9a9a9;stroke-linecap:square;stroke-linejoin:miter;stroke-width:2;"/>
   </g>
   <g id="patch_11">
    <path d="M 18 77.76 
L 129.6 77.76 
" style="fill:none;"/>
   </g>
  </g>
 </g>
 <defs>
  <clipPath id="paf5ee052ae">
   <rect height="50.4" width="111.6" x="18" y="17.28"/>
  </clipPath>
  <clipPath id="p8ec90dc2e0">
   <rect height="50.4" width="111.6" x="18" y="77.76"/>
  </clipPath>
 </defs>
</svg>
