<?xml version="1.0" encoding="utf-8" standalone="no"?>
<!DOCTYPE svg PUBLIC "-//W3C//DTD SVG 1.1//EN"
  "http://www.w3.org/Graphics/SVG/1.1/DTD/svg11.dtd">
<!-- Created with matplotlib (https://matplotlib.org/) -->
<svg height="144pt" version="1.1" viewBox="0 0 144 144" width="144pt" xmlns="http://www.w3.org/2000/svg" xmlns:xlink="http://www.w3.org/1999/xlink">
 <metadata>
  <rdf:RDF xmlns:cc="http://creativecommons.org/ns#" xmlns:dc="http://purl.org/dc/elements/1.1/" xmlns:rdf="http://www.w3.org/1999/02/22-rdf-syntax-ns#">
   <cc:Work>
    <dc:type rdf:resource="http://purl.org/dc/dcmitype/StillImage"/>
    <dc:date>2021-10-13T14:47:20.223785</dc:date>
    <dc:format>image/svg+xml</dc:format>
    <dc:creator>
     <cc:Agent>
      <dc:title>Matplotlib v3.3.2, https://matplotlib.org/</dc:title>
     </cc:Agent>
    </dc:creator>
   </cc:Work>
  </rdf:RDF>
 </metadata>
 <defs>
  <style type="text/css">*{stroke-linecap:butt;stroke-linejoin:round;}</style>
 </defs>
 <g id="figure_1">
  <g id="patch_1">
   <path d="M 0 144 
L 144 144 
L 144 0 
L 0 0 
z
" style="fill:none;"/>
  </g>
  <g id="axes_1">
   <g id="patch_2">
    <path d="M 18 67.68 
L 129.6 67.68 
L 129.6 17.28 
L 18 17.28 
z
" style="fill:none;"/>
   </g>
   <g id="PolyCollection_1">
    <path clip-path="url(#p4fa35e9631)" d="M 18 17.280068 
L 18 17.280068 
L 20.277551 17.280068 
L 22.555102 17.280068 
L 24.832653 17.280068 
L 27.110204 17.280068 
L 29.387755 17.280068 
L 31.665306 17.285092 
L 33.942857 17.394321 
L 36.220408 17.741092 
L 38.497959 18.347473 
L 40.77551 19.367694 
L 43.053061 20.765656 
L 45.330612 22.580314 
L 47.608163 24.770672 
L 49.885714 27.270316 
L 52.163265 30.204821 
L 54.440816 33.456605 
L 56.718367 37.136016 
L 58.995918 40.892248 
L 61.273469 44.914239 
L 63.55102 48.874534 
L 65.828571 52.903943 
L 68.106122 56.726899 
L 70.383673 60.220195 
L 72.661224 62.95701 
L 74.938776 62.998537 
L 77.216327 65.690819 
L 79.493878 65.277272 
L 81.771429 64.237375 
L 84.04898 61.533075 
L 86.326531 58.22502 
L 88.604082 54.460507 
L 90.881633 50.292723 
L 93.159184 45.449067 
L 95.436735 41.014473 
L 97.714286 36.195669 
L 99.991837 32.141009 
L 102.269388 28.125194 
L 104.546939 24.88527 
L 106.82449 22.276337 
L 109.102041 20.234588 
L 111.379592 18.85044 
L 113.657143 17.938738 
L 115.934694 17.464698 
L 118.212245 17.298343 
L 120.489796 17.28 
L 122.767347 17.280068 
L 125.044898 17.280068 
L 127.322449 17.280068 
L 129.6 17.280068 
L 129.6 17.280068 
L 129.6 17.280068 
L 127.322449 17.280068 
L 125.044898 17.280068 
L 122.767347 17.280068 
L 120.489796 17.280292 
L 118.212245 17.331649 
L 115.934694 17.564415 
L 113.657143 18.100637 
L 111.379592 19.143421 
L 109.102041 20.636313 
L 106.82449 22.7827 
L 104.546939 25.572527 
L 102.269388 28.970262 
L 99.991837 32.961748 
L 97.714286 37.312248 
L 95.436735 41.89861 
L 93.159184 46.89313 
L 90.881633 51.619199 
L 88.604082 56.180122 
L 86.326531 60.251658 
L 84.04898 63.605957 
L 81.771429 65.760829 
L 79.493878 67.470088 
L 77.216327 67.68 
L 74.938776 65.202759 
L 72.661224 64.810728 
L 70.383673 61.853484 
L 68.106122 58.344591 
L 65.828571 54.54864 
L 63.55102 50.484676 
L 61.273469 46.038482 
L 58.995918 41.9379 
L 56.718367 38.195781 
L 54.440816 34.593384 
L 52.163265 31.109907 
L 49.885714 28.025324 
L 47.608163 25.368148 
L 45.330612 23.0866 
L 43.053061 21.194143 
L 40.77551 19.735522 
L 38.497959 18.56976 
L 36.220408 17.879214 
L 33.942857 17.460173 
L 31.665306 17.307391 
L 29.387755 17.280068 
L 27.110204 17.280068 
L 24.832653 17.280068 
L 22.555102 17.280068 
L 20.277551 17.280068 
L 18 17.280068 
z
" style="fill:#fc8d62;fill-opacity:0.2;"/>
   </g>
   <g id="PolyCollection_2">
    <path clip-path="url(#p4fa35e9631)" d="M 18 17.280068 
L 18 17.280068 
L 20.277551 17.280068 
L 22.555102 17.280068 
L 24.832653 17.280068 
L 27.110204 17.280068 
L 29.387755 17.280068 
L 31.665306 17.282868 
L 33.942857 17.391215 
L 36.220408 17.801623 
L 38.497959 18.494487 
L 40.77551 19.651134 
L 43.053061 21.38156 
L 45.330612 23.525743 
L 47.608163 26.407023 
L 49.885714 29.707307 
L 52.163265 33.468415 
L 54.440816 37.735492 
L 56.718367 42.494665 
L 58.995918 46.945312 
L 61.273469 51.563366 
L 63.55102 56.10206 
L 65.828571 60.379091 
L 68.106122 63.67934 
L 70.383673 66.510448 
L 72.661224 68.437243 
L 74.938776 67.606323 
L 77.216327 68.594068 
L 79.493878 67.157546 
L 81.771429 64.461233 
L 84.04898 61.034672 
L 86.326531 57.071426 
L 88.604082 52.657567 
L 90.881633 47.908766 
L 93.159184 43.23827 
L 95.436735 38.585356 
L 97.714286 34.465319 
L 99.991837 30.623265 
L 102.269388 27.035271 
L 104.546939 24.197277 
L 106.82449 21.801816 
L 109.102041 19.996022 
L 111.379592 18.712467 
L 113.657143 17.897955 
L 115.934694 17.470438 
L 118.212245 17.30371 
L 120.489796 17.280053 
L 122.767347 17.280068 
L 125.044898 17.280068 
L 127.322449 17.280068 
L 129.6 17.280068 
L 129.6 17.280068 
L 129.6 17.280068 
L 127.322449 17.280068 
L 125.044898 17.280068 
L 122.767347 17.280068 
L 120.489796 17.280169 
L 118.212245 17.329264 
L 115.934694 17.556855 
L 113.657143 18.072783 
L 111.379592 19.021196 
L 109.102041 20.374883 
L 106.82449 22.321081 
L 104.546939 24.879825 
L 102.269388 27.837706 
L 99.991837 31.410896 
L 97.714286 35.664365 
L 95.436735 40.077642 
L 93.159184 44.551344 
L 90.881633 49.61936 
L 88.604082 54.263626 
L 86.326531 58.764637 
L 84.04898 62.844592 
L 81.771429 66.284868 
L 79.493878 69.174888 
L 77.216327 70.992875 
L 74.938776 70.132453 
L 72.661224 70.47289 
L 70.383673 68.435818 
L 68.106122 65.977156 
L 65.828571 62.243818 
L 63.55102 58.057795 
L 61.273469 53.457706 
L 58.995918 48.464599 
L 56.718367 43.724959 
L 54.440816 39.153343 
L 52.163265 34.752125 
L 49.885714 30.706478 
L 47.608163 27.145326 
L 45.330612 24.255188 
L 43.053061 21.872545 
L 40.77551 20.059007 
L 38.497959 18.720239 
L 36.220408 17.934147 
L 33.942857 17.481081 
L 31.665306 17.312921 
L 29.387755 17.280068 
L 27.110204 17.280068 
L 24.832653 17.280068 
L 22.555102 17.280068 
L 20.277551 17.280068 
L 18 17.280068 
z
" style="fill:#fc8d62;fill-opacity:0.2;"/>
   </g>
   <g id="matplotlib.axis_1">
    <g id="xtick_1">
     <g id="line2d_1">
      <defs>
       <path d="M 0 0 
L 0 3.5 
" id="m92115be54a" style="stroke:#a9a9a9;stroke-width:2;"/>
      </defs>
      <g>
       <use style="fill:#a9a9a9;stroke:#a9a9a9;stroke-width:2;" x="29.387755" xlink:href="#m92115be54a" y="17.280068"/>
      </g>
     </g>
    </g>
    <g id="xtick_2">
     <g id="line2d_2">
      <g>
       <use style="fill:#a9a9a9;stroke:#a9a9a9;stroke-width:2;" x="52.163265" xlink:href="#m92115be54a" y="17.280068"/>
      </g>
     </g>
    </g>
    <g id="xtick_3">
     <g id="line2d_3">
      <g>
       <use style="fill:#a9a9a9;stroke:#a9a9a9;stroke-width:2;" x="74.938776" xlink:href="#m92115be54a" y="17.280068"/>
      </g>
     </g>
    </g>
    <g id="xtick_4">
     <g id="line2d_4">
      <g>
       <use style="fill:#a9a9a9;stroke:#a9a9a9;stroke-width:2;" x="97.714286" xlink:href="#m92115be54a" y="17.280068"/>
      </g>
     </g>
    </g>
    <g id="xtick_5">
     <g id="line2d_5">
      <g>
       <use style="fill:#a9a9a9;stroke:#a9a9a9;stroke-width:2;" x="120.489796" xlink:href="#m92115be54a" y="17.280068"/>
      </g>
     </g>
    </g>
   </g>
   <g id="matplotlib.axis_2"/>
   <g id="line2d_6">
    <path clip-path="url(#p4fa35e9631)" d="M 18 17.280068 
L 20.277551 17.280068 
L 22.555102 17.280068 
L 24.832653 17.280068 
L 27.110204 17.280068 
L 29.387755 17.280068 
L 31.665306 17.296242 
L 33.942857 17.427247 
L 36.220408 17.810153 
L 38.497959 18.458616 
L 40.77551 19.551608 
L 43.053061 20.9799 
L 45.330612 22.833457 
L 47.608163 25.06941 
L 49.885714 27.64782 
L 52.163265 30.657364 
L 54.440816 34.024994 
L 56.718367 37.665898 
L 58.995918 41.415074 
L 61.273469 45.476361 
L 63.55102 49.679605 
L 65.828571 53.726292 
L 68.106122 57.535745 
L 70.383673 61.036839 
L 72.661224 63.883869 
L 74.938776 64.100648 
L 77.216327 66.68541 
L 79.493878 66.37368 
L 81.771429 64.999102 
L 84.04898 62.569516 
L 86.326531 59.238339 
L 88.604082 55.320315 
L 90.881633 50.955961 
L 93.159184 46.171098 
L 95.436735 41.456541 
L 97.714286 36.753958 
L 99.991837 32.551379 
L 102.269388 28.547728 
L 104.546939 25.228898 
L 106.82449 22.529519 
L 109.102041 20.435451 
L 111.379592 18.99693 
L 113.657143 18.019688 
L 115.934694 17.514556 
L 118.212245 17.314996 
L 120.489796 17.280146 
L 122.767347 17.280068 
L 125.044898 17.280068 
L 127.322449 17.280068 
L 129.6 17.280068 
" style="fill:none;stroke:#fc8d62;stroke-linecap:square;stroke-width:2;"/>
   </g>
   <g id="line2d_7">
    <path clip-path="url(#p4fa35e9631)" d="M 18 17.280068 
L 20.277551 17.280068 
L 22.555102 17.280068 
L 24.832653 17.280068 
L 27.110204 17.280068 
L 29.387755 17.280068 
L 31.665306 17.297894 
L 33.942857 17.436148 
L 36.220408 17.867885 
L 38.497959 18.607363 
L 40.77551 19.855071 
L 43.053061 21.627053 
L 45.330612 23.890465 
L 47.608163 26.776174 
L 49.885714 30.206892 
L 52.163265 34.11027 
L 54.440816 38.444418 
L 56.718367 43.109812 
L 58.995918 47.704956 
L 61.273469 52.510536 
L 63.55102 57.079927 
L 65.828571 61.311455 
L 68.106122 64.828248 
L 70.383673 67.473133 
L 72.661224 69.455066 
L 74.938776 68.869388 
L 77.216327 69.793472 
L 79.493878 68.166217 
L 81.771429 65.373051 
L 84.04898 61.939632 
L 86.326531 57.918031 
L 88.604082 53.460596 
L 90.881633 48.764063 
L 93.159184 43.894807 
L 95.436735 39.331499 
L 97.714286 35.064842 
L 99.991837 31.01708 
L 102.269388 27.436488 
L 104.546939 24.538551 
L 106.82449 22.061448 
L 109.102041 20.185452 
L 111.379592 18.866831 
L 113.657143 17.985369 
L 115.934694 17.513647 
L 118.212245 17.316487 
L 120.489796 17.280111 
L 122.767347 17.280068 
L 125.044898 17.280068 
L 127.322449 17.280068 
L 129.6 17.280068 
" style="fill:none;stroke:#fc8d62;stroke-dasharray:1.5,1.5;stroke-dashoffset:0;stroke-opacity:0.7;stroke-width:1.5;"/>
   </g>
   <g id="patch_3">
    <path d="M 74.938776 67.68 
L 74.938776 17.28 
" style="fill:none;stroke:#a9a9a9;stroke-linecap:square;stroke-linejoin:miter;stroke-width:2;"/>
   </g>
   <g id="patch_4">
    <path d="M 129.6 67.68 
L 129.6 17.28 
" style="fill:none;"/>
   </g>
   <g id="patch_5">
    <path d="M 18 17.280068 
L 129.6 17.280068 
" style="fill:none;stroke:#a9a9a9;stroke-linecap:square;stroke-linejoin:miter;stroke-width:2;"/>
   </g>
   <g id="patch_6">
    <path d="M 18 17.28 
L 129.6 17.28 
" style="fill:none;"/>
   </g>
   <g id="legend_1">
    <g id="line2d_8">
     <path d="M 24.3 47.199531 
L 38.3 47.199531 
" style="fill:none;stroke:#fc8d62;stroke-linecap:square;stroke-width:2;"/>
    </g>
    <g id="line2d_9"/>
    <g id="text_1">
     <!-- $\theta$ -->
     <g transform="translate(43.9 49.649531)scale(0.07 -0.07)">
      <defs>
       <path d="M 45.515625 34.671875 
L 14.453125 34.671875 
Q 12.359375 20.0625 14.5 13.875 
Q 17.1875 6.25 24.46875 6.25 
Q 31.78125 6.25 37.359375 13.921875 
Q 42.234375 20.65625 45.515625 34.671875 
z
M 47.015625 42.96875 
Q 48.34375 56.84375 46.625 61.71875 
Q 43.953125 69.4375 36.765625 69.4375 
Q 29.296875 69.4375 23.828125 61.8125 
Q 19.53125 55.671875 16.15625 42.96875 
z
M 38.1875 76.765625 
Q 49.90625 76.765625 54.59375 66.40625 
Q 59.28125 56.109375 55.71875 37.84375 
Q 52.203125 19.625 43.453125 9.28125 
Q 34.765625 -1.125 23.046875 -1.125 
Q 11.28125 -1.125 6.640625 9.28125 
Q 2 19.625 5.515625 37.84375 
Q 9.078125 56.109375 17.71875 66.40625 
Q 26.421875 76.765625 38.1875 76.765625 
z
" id="DejaVuSans-Oblique-952"/>
      </defs>
      <use transform="translate(0 0.234375)" xlink:href="#DejaVuSans-Oblique-952"/>
     </g>
    </g>
    <g id="line2d_10">
     <path d="M 24.3 57.474219 
L 38.3 57.474219 
" style="fill:none;stroke:#fc8d62;stroke-dasharray:1.5,1.5;stroke-dashoffset:0;stroke-opacity:0.7;stroke-width:1.5;"/>
    </g>
    <g id="line2d_11"/>
    <g id="text_2">
     <!-- No $\theta$ -->
     <g transform="translate(43.9 59.924219)scale(0.07 -0.07)">
      <defs>
       <path d="M 9.8125 72.90625 
L 23.09375 72.90625 
L 55.421875 11.921875 
L 55.421875 72.90625 
L 64.984375 72.90625 
L 64.984375 0 
L 51.703125 0 
L 19.390625 60.984375 
L 19.390625 0 
L 9.8125 0 
z
" id="DejaVuSans-78"/>
       <path d="M 30.609375 48.390625 
Q 23.390625 48.390625 19.1875 42.75 
Q 14.984375 37.109375 14.984375 27.296875 
Q 14.984375 17.484375 19.15625 11.84375 
Q 23.34375 6.203125 30.609375 6.203125 
Q 37.796875 6.203125 41.984375 11.859375 
Q 46.1875 17.53125 46.1875 27.296875 
Q 46.1875 37.015625 41.984375 42.703125 
Q 37.796875 48.390625 30.609375 48.390625 
z
M 30.609375 56 
Q 42.328125 56 49.015625 48.375 
Q 55.71875 40.765625 55.71875 27.296875 
Q 55.71875 13.875 49.015625 6.21875 
Q 42.328125 -1.421875 30.609375 -1.421875 
Q 18.84375 -1.421875 12.171875 6.21875 
Q 5.515625 13.875 5.515625 27.296875 
Q 5.515625 40.765625 12.171875 48.375 
Q 18.84375 56 30.609375 56 
z
" id="DejaVuSans-111"/>
       <path id="DejaVuSans-32"/>
      </defs>
      <use transform="translate(0 0.234375)" xlink:href="#DejaVuSans-78"/>
      <use transform="translate(74.804688 0.234375)" xlink:href="#DejaVuSans-111"/>
      <use transform="translate(135.986328 0.234375)" xlink:href="#DejaVuSans-32"/>
      <use transform="translate(167.773438 0.234375)" xlink:href="#DejaVuSans-Oblique-952"/>
     </g>
    </g>
   </g>
  </g>
  <g id="axes_2">
   <g id="patch_7">
    <path d="M 18 128.16 
L 129.6 128.16 
L 129.6 77.76 
L 18 77.76 
z
" style="fill:none;"/>
   </g>
   <g id="PolyCollection_3">
    <path clip-path="url(#p2acc3f1b2f)" d="M 18 120.506713 
L 18 120.431242 
L 20.277551 120.649276 
L 22.555102 120.711668 
L 24.832653 120.626876 
L 27.110204 120.444176 
L 29.387755 120.241929 
L 31.665306 120.069519 
L 33.942857 119.785943 
L 36.220408 119.228885 
L 38.497959 118.27083 
L 40.77551 116.820265 
L 43.053061 114.826135 
L 45.330612 112.280199 
L 47.608163 109.214363 
L 49.885714 105.696847 
L 52.163265 101.828458 
L 54.440816 97.738897 
L 56.718367 93.5826 
L 58.995918 89.534067 
L 61.273469 85.782686 
L 63.55102 82.527327 
L 65.828571 79.971017 
L 68.106122 78.316083 
L 70.383673 77.76 
L 72.661224 78.492139 
L 74.938776 80.681342 
L 77.216327 84.417797 
L 79.493878 89.300242 
L 81.771429 94.880772 
L 84.04898 100.7412 
L 86.326531 106.517123 
L 88.604082 111.90705 
L 90.881633 116.677153 
L 93.159184 120.662482 
L 95.436735 123.765698 
L 97.714286 125.954658 
L 99.991837 127.257545 
L 102.269388 127.752377 
L 104.546939 127.553523 
L 106.82449 126.800306 
L 109.102041 125.64783 
L 111.379592 124.258936 
L 113.657143 122.797383 
L 115.934694 121.422601 
L 118.212245 120.28782 
L 120.489796 119.543404 
L 122.767347 119.285925 
L 125.044898 119.39687 
L 127.322449 119.713222 
L 129.6 120.094471 
L 129.6 120.196416 
L 129.6 120.196416 
L 127.322449 119.84046 
L 125.044898 119.54336 
L 122.767347 119.44335 
L 120.489796 119.705536 
L 118.212245 120.45947 
L 115.934694 121.621282 
L 113.657143 123.039836 
L 111.379592 124.55152 
L 109.102041 125.986647 
L 106.82449 127.174704 
L 104.546939 127.95014 
L 102.269388 128.16 
L 99.991837 127.672976 
L 97.714286 126.388944 
L 95.436735 124.246592 
L 93.159184 121.227987 
L 90.881633 117.364256 
L 88.604082 112.744348 
L 86.326531 107.522474 
L 84.04898 101.921566 
L 81.771429 96.232721 
L 79.493878 90.810491 
L 77.216327 86.063768 
L 74.938776 82.431906 
L 72.661224 80.309596 
L 70.383673 79.603023 
L 68.106122 80.142728 
L 65.828571 81.740684 
L 63.55102 84.202587 
L 61.273469 87.330978 
L 58.995918 90.929182 
L 56.718367 94.805858 
L 54.440816 98.779953 
L 52.163265 102.685769 
L 49.885714 106.377773 
L 47.608163 109.734813 
L 45.330612 112.663739 
L 43.053061 115.102673 
L 40.77551 117.0233 
L 38.497959 118.431766 
L 36.220408 119.369099 
L 33.942857 119.914622 
L 31.665306 120.18894 
L 29.387755 120.350584 
L 27.110204 120.536664 
L 24.832653 120.699577 
L 22.555102 120.768103 
L 20.277551 120.705731 
L 18 120.506713 
z
" style="fill:#66c2a5;fill-opacity:0.2;"/>
   </g>
   <g id="matplotlib.axis_3">
    <g id="xtick_6">
     <g id="line2d_12">
      <g>
       <use style="fill:#a9a9a9;stroke:#a9a9a9;stroke-width:2;" x="29.387755" xlink:href="#m92115be54a" y="122.169057"/>
      </g>
     </g>
    </g>
    <g id="xtick_7">
     <g id="line2d_13">
      <g>
       <use style="fill:#a9a9a9;stroke:#a9a9a9;stroke-width:2;" x="52.163265" xlink:href="#m92115be54a" y="122.169057"/>
      </g>
     </g>
    </g>
    <g id="xtick_8">
     <g id="line2d_14">
      <g>
       <use style="fill:#a9a9a9;stroke:#a9a9a9;stroke-width:2;" x="74.938776" xlink:href="#m92115be54a" y="122.169057"/>
      </g>
     </g>
    </g>
    <g id="xtick_9">
     <g id="line2d_15">
      <g>
       <use style="fill:#a9a9a9;stroke:#a9a9a9;stroke-width:2;" x="97.714286" xlink:href="#m92115be54a" y="122.169057"/>
      </g>
     </g>
    </g>
    <g id="xtick_10">
     <g id="line2d_16">
      <g>
       <use style="fill:#a9a9a9;stroke:#a9a9a9;stroke-width:2;" x="120.489796" xlink:href="#m92115be54a" y="122.169057"/>
      </g>
     </g>
    </g>
   </g>
   <g id="matplotlib.axis_4"/>
   <g id="line2d_17">
    <path clip-path="url(#p2acc3f1b2f)" d="M 18 120.468977 
L 20.277551 120.677503 
L 22.555102 120.739885 
L 24.832653 120.663227 
L 27.110204 120.49042 
L 29.387755 120.296256 
L 31.665306 120.129229 
L 33.942857 119.850283 
L 36.220408 119.298992 
L 38.497959 118.351298 
L 40.77551 116.921783 
L 43.053061 114.964404 
L 45.330612 112.471969 
L 47.608163 109.474588 
L 49.885714 106.03731 
L 52.163265 102.257113 
L 54.440816 98.259425 
L 56.718367 94.194229 
L 58.995918 90.231624 
L 61.273469 86.556832 
L 63.55102 83.364957 
L 65.828571 80.855851 
L 68.106122 79.229405 
L 70.383673 78.681511 
L 72.661224 79.400868 
L 74.938776 81.556624 
L 77.216327 85.240782 
L 79.493878 90.055367 
L 81.771429 95.556747 
L 84.04898 101.331383 
L 86.326531 107.019799 
L 88.604082 112.325699 
L 90.881633 117.020705 
L 93.159184 120.945234 
L 95.436735 124.006145 
L 97.714286 126.171801 
L 99.991837 127.46526 
L 102.269388 127.956188 
L 104.546939 127.751832 
L 106.82449 126.987505 
L 109.102041 125.817238 
L 111.379592 124.405228 
L 113.657143 122.918609 
L 115.934694 121.521941 
L 118.212245 120.373645 
L 120.489796 119.62447 
L 122.767347 119.364638 
L 125.044898 119.470115 
L 127.322449 119.776841 
L 129.6 120.145444 
" style="fill:none;stroke:#66c2a5;stroke-linecap:square;stroke-width:2;"/>
   </g>
   <g id="patch_8">
    <path d="M 74.938776 128.16 
L 74.938776 77.76 
" style="fill:none;stroke:#a9a9a9;stroke-linecap:square;stroke-linejoin:miter;stroke-width:2;"/>
   </g>
   <g id="patch_9">
    <path d="M 129.6 128.16 
L 129.6 77.76 
" style="fill:none;"/>
   </g>
   <g id="patch_10">
    <path d="M 18 122.169057 
L 129.6 122.169057 
" style="fill:none;stroke:#a9a9a9;stroke-linecap:square;stroke-linejoin:miter;stroke-width:2;"/>
   </g>
   <g id="patch_11">
    <path d="M 18 77.76 
L 129.6 77.76 
" style="fill:none;"/>
   </g>
  </g>
 </g>
 <defs>
  <clipPath id="p4fa35e9631">
   <rect height="50.4" width="111.6" x="18" y="17.28"/>
  </clipPath>
  <clipPath id="p2acc3f1b2f">
   <rect height="50.4" width="111.6" x="18" y="77.76"/>
  </clipPath>
 </defs>
</svg>
