<?xml version="1.0" encoding="utf-8" standalone="no"?>
<!DOCTYPE svg PUBLIC "-//W3C//DTD SVG 1.1//EN"
  "http://www.w3.org/Graphics/SVG/1.1/DTD/svg11.dtd">
<!-- Created with matplotlib (https://matplotlib.org/) -->
<svg height="144pt" version="1.1" viewBox="0 0 144 144" width="144pt" xmlns="http://www.w3.org/2000/svg" xmlns:xlink="http://www.w3.org/1999/xlink">
 <metadata>
  <rdf:RDF xmlns:cc="http://creativecommons.org/ns#" xmlns:dc="http://purl.org/dc/elements/1.1/" xmlns:rdf="http://www.w3.org/1999/02/22-rdf-syntax-ns#">
   <cc:Work>
    <dc:type rdf:resource="http://purl.org/dc/dcmitype/StillImage"/>
    <dc:date>2021-10-14T20:18:09.053054</dc:date>
    <dc:format>image/svg+xml</dc:format>
    <dc:creator>
     <cc:Agent>
      <dc:title>Matplotlib v3.3.2, https://matplotlib.org/</dc:title>
     </cc:Agent>
    </dc:creator>
   </cc:Work>
  </rdf:RDF>
 </metadata>
 <defs>
  <style type="text/css">*{stroke-linecap:butt;stroke-linejoin:round;}</style>
 </defs>
 <g id="figure_1">
  <g id="patch_1">
   <path d="M 0 144 
L 144 144 
L 144 0 
L 0 0 
z
" style="fill:none;"/>
  </g>
  <g id="axes_1">
   <g id="patch_2">
    <path d="M 18 67.68 
L 129.6 67.68 
L 129.6 17.28 
L 18 17.28 
z
" style="fill:none;"/>
   </g>
   <g id="PolyCollection_1">
    <path clip-path="url(#p7a9c729835)" d="M 18 67.528639 
L 18 67.528639 
L 20.277551 67.528639 
L 22.555102 67.528639 
L 24.832653 67.528639 
L 27.110204 67.528639 
L 29.387755 67.528504 
L 31.665306 67.418897 
L 33.942857 67.202555 
L 36.220408 66.564834 
L 38.497959 65.614374 
L 40.77551 63.979057 
L 43.053061 61.853925 
L 45.330612 58.996622 
L 47.608163 55.64891 
L 49.885714 51.260855 
L 52.163265 46.194306 
L 54.440816 40.884804 
L 56.718367 35.431677 
L 58.995918 29.61872 
L 61.273469 25.142645 
L 63.55102 21.294917 
L 65.828571 20.041002 
L 68.106122 17.338419 
L 70.383673 17.28 
L 72.661224 18.006099 
L 74.938776 23.264296 
L 77.216327 24.682516 
L 79.493878 29.68581 
L 81.771429 35.4152 
L 84.04898 38.729984 
L 86.326531 43.639739 
L 88.604082 47.498527 
L 90.881633 51.935326 
L 93.159184 53.963324 
L 95.436735 57.108841 
L 97.714286 58.986466 
L 99.991837 60.757798 
L 102.269388 62.374204 
L 104.546939 64.097693 
L 106.82449 65.1365 
L 109.102041 65.789246 
L 111.379592 66.637679 
L 113.657143 66.977591 
L 115.934694 67.21596 
L 118.212245 67.449791 
L 120.489796 67.528614 
L 122.767347 67.528639 
L 125.044898 67.528639 
L 127.322449 67.528639 
L 129.6 67.528639 
L 129.6 67.528639 
L 129.6 67.528639 
L 127.322449 67.528639 
L 125.044898 67.528639 
L 122.767347 67.528639 
L 120.489796 67.528674 
L 118.212245 67.599179 
L 115.934694 67.58506 
L 113.657143 67.68 
L 111.379592 67.461516 
L 109.102041 67.159663 
L 106.82449 66.928121 
L 104.546939 65.826 
L 102.269388 65.094113 
L 99.991837 64.627509 
L 97.714286 63.027487 
L 95.436735 61.42153 
L 93.159184 59.26544 
L 90.881633 57.326291 
L 88.604082 53.845167 
L 86.326531 50.114919 
L 84.04898 45.22654 
L 81.771429 41.458027 
L 79.493878 37.977671 
L 77.216327 33.344633 
L 74.938776 27.905851 
L 72.661224 26.77208 
L 70.383673 23.815498 
L 68.106122 24.720951 
L 65.828571 26.729986 
L 63.55102 29.108937 
L 61.273469 32.81471 
L 58.995918 35.58554 
L 56.718367 41.346328 
L 54.440816 45.968478 
L 52.163265 50.924636 
L 49.885714 54.893995 
L 47.608163 58.630046 
L 45.330612 61.730141 
L 43.053061 63.505699 
L 40.77551 65.708623 
L 38.497959 66.623133 
L 36.220408 67.256448 
L 33.942857 67.597706 
L 31.665306 67.570905 
L 29.387755 67.528733 
L 27.110204 67.528639 
L 24.832653 67.528639 
L 22.555102 67.528639 
L 20.277551 67.528639 
L 18 67.528639 
z
" style="fill:#fc8d62;fill-opacity:0.2;"/>
   </g>
   <g id="PolyCollection_2">
    <path clip-path="url(#p7a9c729835)" d="M 18 67.528639 
L 18 67.528639 
L 20.277551 67.528639 
L 22.555102 67.528639 
L 24.832653 67.528639 
L 27.110204 67.528639 
L 29.387755 67.52799 
L 31.665306 67.445158 
L 33.942857 67.235261 
L 36.220408 66.541832 
L 38.497959 65.910099 
L 40.77551 64.330265 
L 43.053061 62.405689 
L 45.330612 61.055005 
L 47.608163 57.941218 
L 49.885714 55.253085 
L 52.163265 52.413519 
L 54.440816 48.646935 
L 56.718367 43.826174 
L 58.995918 39.687892 
L 61.273469 36.072027 
L 63.55102 33.06236 
L 65.828571 29.272494 
L 68.106122 27.204313 
L 70.383673 23.745353 
L 72.661224 23.448831 
L 74.938776 24.385665 
L 77.216327 22.671162 
L 79.493878 26.127854 
L 81.771429 27.563187 
L 84.04898 31.196097 
L 86.326531 32.960685 
L 88.604082 38.343306 
L 90.881633 41.607522 
L 93.159184 46.71589 
L 95.436735 49.017612 
L 97.714286 53.437145 
L 99.991837 56.531329 
L 102.269388 59.358869 
L 104.546939 61.327502 
L 106.82449 63.970104 
L 109.102041 65.508077 
L 111.379592 66.114309 
L 113.657143 66.911725 
L 115.934694 67.217824 
L 118.212245 67.420496 
L 120.489796 67.528479 
L 122.767347 67.528639 
L 125.044898 67.528639 
L 127.322449 67.528639 
L 129.6 67.528639 
L 129.6 67.528639 
L 129.6 67.528639 
L 127.322449 67.528639 
L 125.044898 67.528639 
L 122.767347 67.528639 
L 120.489796 67.528855 
L 118.212245 67.604012 
L 115.934694 67.603525 
L 113.657143 67.631106 
L 111.379592 67.155687 
L 109.102041 66.915901 
L 106.82449 66.163952 
L 104.546939 64.361136 
L 102.269388 62.348872 
L 99.991837 60.21991 
L 97.714286 56.925339 
L 95.436735 53.987978 
L 93.159184 51.503787 
L 90.881633 47.389262 
L 88.604082 44.231207 
L 86.326531 39.525055 
L 84.04898 38.252378 
L 81.771429 33.946331 
L 79.493878 33.58555 
L 77.216327 31.288745 
L 74.938776 29.764375 
L 72.661224 31.001955 
L 70.383673 31.426657 
L 68.106122 33.931615 
L 65.828571 35.692056 
L 63.55102 40.944422 
L 61.273469 42.962833 
L 58.995918 46.779233 
L 56.718367 48.669097 
L 54.440816 53.626679 
L 52.163265 56.098546 
L 49.885714 59.128635 
L 47.608163 61.669976 
L 45.330612 63.72839 
L 43.053061 64.864431 
L 40.77551 65.828341 
L 38.497959 67.055227 
L 36.220408 67.354139 
L 33.942857 67.583678 
L 31.665306 67.585179 
L 29.387755 67.529117 
L 27.110204 67.528639 
L 24.832653 67.528639 
L 22.555102 67.528639 
L 20.277551 67.528639 
L 18 67.528639 
z
" style="fill:#fc8d62;fill-opacity:0.2;"/>
   </g>
   <g id="matplotlib.axis_1">
    <g id="xtick_1">
     <g id="line2d_1">
      <defs>
       <path d="M 0 0 
L 0 3.5 
" id="md6d77f6287" style="stroke:#a9a9a9;stroke-width:2;"/>
      </defs>
      <g>
       <use style="fill:#a9a9a9;stroke:#a9a9a9;stroke-width:2;" x="29.387755" xlink:href="#md6d77f6287" y="67.528639"/>
      </g>
     </g>
    </g>
    <g id="xtick_2">
     <g id="line2d_2">
      <g>
       <use style="fill:#a9a9a9;stroke:#a9a9a9;stroke-width:2;" x="52.163265" xlink:href="#md6d77f6287" y="67.528639"/>
      </g>
     </g>
    </g>
    <g id="xtick_3">
     <g id="line2d_3">
      <g>
       <use style="fill:#a9a9a9;stroke:#a9a9a9;stroke-width:2;" x="74.938776" xlink:href="#md6d77f6287" y="67.528639"/>
      </g>
     </g>
    </g>
    <g id="xtick_4">
     <g id="line2d_4">
      <g>
       <use style="fill:#a9a9a9;stroke:#a9a9a9;stroke-width:2;" x="97.714286" xlink:href="#md6d77f6287" y="67.528639"/>
      </g>
     </g>
    </g>
    <g id="xtick_5">
     <g id="line2d_5">
      <g>
       <use style="fill:#a9a9a9;stroke:#a9a9a9;stroke-width:2;" x="120.489796" xlink:href="#md6d77f6287" y="67.528639"/>
      </g>
     </g>
    </g>
   </g>
   <g id="matplotlib.axis_2"/>
   <g id="line2d_6">
    <path clip-path="url(#p7a9c729835)" d="M 18 67.528639 
L 20.277551 67.528639 
L 22.555102 67.528639 
L 24.832653 67.528639 
L 27.110204 67.528639 
L 29.387755 67.528618 
L 31.665306 67.494901 
L 33.942857 67.40013 
L 36.220408 66.910641 
L 38.497959 66.118754 
L 40.77551 64.84384 
L 43.053061 62.679812 
L 45.330612 60.363381 
L 47.608163 57.139478 
L 49.885714 53.077425 
L 52.163265 48.559471 
L 54.440816 43.426641 
L 56.718367 38.389003 
L 58.995918 32.60213 
L 61.273469 28.978678 
L 63.55102 25.201927 
L 65.828571 23.385494 
L 68.106122 21.029685 
L 70.383673 20.547749 
L 72.661224 22.38909 
L 74.938776 25.585073 
L 77.216327 29.013575 
L 79.493878 33.831741 
L 81.771429 38.436613 
L 84.04898 41.978262 
L 86.326531 46.877329 
L 88.604082 50.671847 
L 90.881633 54.630808 
L 93.159184 56.614382 
L 95.436735 59.265185 
L 97.714286 61.006977 
L 99.991837 62.692653 
L 102.269388 63.734159 
L 104.546939 64.961847 
L 106.82449 66.03231 
L 109.102041 66.474455 
L 111.379592 67.049597 
L 113.657143 67.328796 
L 115.934694 67.40051 
L 118.212245 67.524485 
L 120.489796 67.528644 
L 122.767347 67.528639 
L 125.044898 67.528639 
L 127.322449 67.528639 
L 129.6 67.528639 
" style="fill:none;stroke:#fc8d62;stroke-linecap:square;stroke-width:2;"/>
   </g>
   <g id="line2d_7">
    <path clip-path="url(#p7a9c729835)" d="M 18 67.528639 
L 20.277551 67.528639 
L 22.555102 67.528639 
L 24.832653 67.528639 
L 27.110204 67.528639 
L 29.387755 67.528554 
L 31.665306 67.515169 
L 33.942857 67.409469 
L 36.220408 66.947985 
L 38.497959 66.482663 
L 40.77551 65.079303 
L 43.053061 63.63506 
L 45.330612 62.391698 
L 47.608163 59.805597 
L 49.885714 57.19086 
L 52.163265 54.256033 
L 54.440816 51.136807 
L 56.718367 46.247635 
L 58.995918 43.233563 
L 61.273469 39.51743 
L 63.55102 37.003391 
L 65.828571 32.482275 
L 68.106122 30.567964 
L 70.383673 27.586005 
L 72.661224 27.225393 
L 74.938776 27.07502 
L 77.216327 26.979954 
L 79.493878 29.856702 
L 81.771429 30.754759 
L 84.04898 34.724238 
L 86.326531 36.24287 
L 88.604082 41.287256 
L 90.881633 44.498392 
L 93.159184 49.109839 
L 95.436735 51.502795 
L 97.714286 55.181242 
L 99.991837 58.37562 
L 102.269388 60.853871 
L 104.546939 62.844319 
L 106.82449 65.067028 
L 109.102041 66.211989 
L 111.379592 66.634998 
L 113.657143 67.271416 
L 115.934694 67.410675 
L 118.212245 67.512254 
L 120.489796 67.528667 
L 122.767347 67.528639 
L 125.044898 67.528639 
L 127.322449 67.528639 
L 129.6 67.528639 
" style="fill:none;stroke:#fc8d62;stroke-dasharray:1.5,1.5;stroke-dashoffset:0;stroke-opacity:0.7;stroke-width:1.5;"/>
   </g>
   <g id="patch_3">
    <path d="M 74.938776 67.68 
L 74.938776 17.28 
" style="fill:none;stroke:#a9a9a9;stroke-linecap:square;stroke-linejoin:miter;stroke-width:2;"/>
   </g>
   <g id="patch_4">
    <path d="M 129.6 67.68 
L 129.6 17.28 
" style="fill:none;"/>
   </g>
   <g id="patch_5">
    <path d="M 18 67.528639 
L 129.6 67.528639 
" style="fill:none;stroke:#a9a9a9;stroke-linecap:square;stroke-linejoin:miter;stroke-width:2;"/>
   </g>
   <g id="patch_6">
    <path d="M 18 17.28 
L 129.6 17.28 
" style="fill:none;"/>
   </g>
   <g id="legend_1">
    <g id="line2d_8">
     <path d="M 101.475312 26.448906 
L 115.475312 26.448906 
" style="fill:none;stroke:#fc8d62;stroke-linecap:square;stroke-width:2;"/>
    </g>
    <g id="line2d_9"/>
    <g id="text_1">
     <!--   -->
     <g transform="translate(121.075312 28.898906)scale(0.07 -0.07)">
      <defs>
       <path id="DejaVuSans-32"/>
      </defs>
      <use xlink:href="#DejaVuSans-32"/>
     </g>
    </g>
    <g id="line2d_10">
     <path d="M 101.475312 36.723594 
L 115.475312 36.723594 
" style="fill:none;stroke:#fc8d62;stroke-dasharray:1.5,1.5;stroke-dashoffset:0;stroke-opacity:0.7;stroke-width:1.5;"/>
    </g>
    <g id="line2d_11"/>
    <g id="text_2">
     <!--   -->
     <g transform="translate(121.075312 39.173594)scale(0.07 -0.07)">
      <use xlink:href="#DejaVuSans-32"/>
     </g>
    </g>
   </g>
  </g>
  <g id="axes_2">
   <g id="patch_7">
    <path d="M 18 128.16 
L 129.6 128.16 
L 129.6 77.76 
L 18 77.76 
z
" style="fill:none;"/>
   </g>
   <g id="PolyCollection_3">
    <path clip-path="url(#p61de823f7d)" d="M 18 120.574202 
L 18 120.49287 
L 20.277551 120.70458 
L 22.555102 120.776235 
L 24.832653 120.711341 
L 27.110204 120.553614 
L 29.387755 120.375037 
L 31.665306 120.218874 
L 33.942857 119.946221 
L 36.220408 119.397397 
L 38.497959 118.44599 
L 40.77551 117.000554 
L 43.053061 115.01004 
L 45.330612 112.465925 
L 47.608163 109.399743 
L 49.885714 105.879215 
L 52.163265 102.004689 
L 54.440816 97.905648 
L 56.718367 93.736565 
L 58.995918 89.67207 
L 61.273469 85.901616 
L 63.55102 82.623864 
L 65.828571 80.041224 
L 68.106122 78.354798 
L 70.383673 77.76 
L 72.661224 78.443025 
L 74.938776 80.571028 
L 77.216327 84.223256 
L 79.493878 89.020228 
L 81.771429 94.5249 
L 84.04898 100.329039 
L 86.326531 106.074302 
L 88.604082 111.461542 
L 90.881633 116.256094 
L 93.159184 120.289557 
L 95.436735 123.459592 
L 97.714286 125.728721 
L 99.991837 127.119643 
L 102.269388 127.704741 
L 104.546939 127.592825 
L 106.82449 126.918259 
L 109.102041 125.832114 
L 111.379592 124.494292 
L 113.657143 123.066628 
L 115.934694 121.707436 
L 118.212245 120.569101 
L 120.489796 119.801224 
L 122.767347 119.502498 
L 125.044898 119.564561 
L 127.322449 119.834407 
L 129.6 120.178773 
L 129.6 120.287213 
L 129.6 120.287213 
L 127.322449 119.968118 
L 125.044898 119.717205 
L 122.767347 119.665682 
L 120.489796 119.969492 
L 118.212245 120.749272 
L 115.934694 121.920058 
L 113.657143 123.329989 
L 111.379592 124.814965 
L 109.102041 126.205708 
L 106.82449 127.333112 
L 104.546939 128.034241 
L 102.269388 128.16 
L 99.991837 127.584206 
L 97.714286 126.212983 
L 95.436735 123.992214 
L 93.159184 120.9114 
L 90.881633 117.008211 
L 88.604082 112.376101 
L 86.326531 107.171544 
L 84.04898 101.617149 
L 81.771429 96.00045 
L 79.493878 90.66882 
L 77.216327 86.020142 
L 74.938776 82.481988 
L 72.661224 80.426626 
L 70.383673 79.771047 
L 68.106122 80.3475 
L 65.828571 81.971285 
L 63.55102 84.450443 
L 61.273469 87.589138 
L 58.995918 91.191838 
L 56.718367 95.068088 
L 54.440816 99.037642 
L 52.163265 102.935585 
L 49.885714 106.617165 
L 47.608163 109.96198 
L 45.330612 112.877649 
L 43.053061 115.30319 
L 40.77551 117.211221 
L 38.497959 118.608454 
L 36.220408 119.535881 
L 33.942857 120.071471 
L 31.665306 120.333696 
L 29.387755 120.478385 
L 27.110204 120.641072 
L 24.832653 120.780215 
L 22.555102 120.831909 
L 20.277551 120.76461 
L 18 120.574202 
z
" style="fill:#66c2a5;fill-opacity:0.2;"/>
   </g>
   <g id="matplotlib.axis_3">
    <g id="xtick_6">
     <g id="line2d_12">
      <g>
       <use style="fill:#a9a9a9;stroke:#a9a9a9;stroke-width:2;" x="29.387755" xlink:href="#md6d77f6287" y="122.261336"/>
      </g>
     </g>
    </g>
    <g id="xtick_7">
     <g id="line2d_13">
      <g>
       <use style="fill:#a9a9a9;stroke:#a9a9a9;stroke-width:2;" x="52.163265" xlink:href="#md6d77f6287" y="122.261336"/>
      </g>
     </g>
    </g>
    <g id="xtick_8">
     <g id="line2d_14">
      <g>
       <use style="fill:#a9a9a9;stroke:#a9a9a9;stroke-width:2;" x="74.938776" xlink:href="#md6d77f6287" y="122.261336"/>
      </g>
     </g>
    </g>
    <g id="xtick_9">
     <g id="line2d_15">
      <g>
       <use style="fill:#a9a9a9;stroke:#a9a9a9;stroke-width:2;" x="97.714286" xlink:href="#md6d77f6287" y="122.261336"/>
      </g>
     </g>
    </g>
    <g id="xtick_10">
     <g id="line2d_16">
      <g>
       <use style="fill:#a9a9a9;stroke:#a9a9a9;stroke-width:2;" x="120.489796" xlink:href="#md6d77f6287" y="122.261336"/>
      </g>
     </g>
    </g>
   </g>
   <g id="matplotlib.axis_4"/>
   <g id="line2d_17">
    <path clip-path="url(#p61de823f7d)" d="M 18 120.533536 
L 20.277551 120.734595 
L 22.555102 120.804072 
L 24.832653 120.745778 
L 27.110204 120.597343 
L 29.387755 120.426711 
L 31.665306 120.276285 
L 33.942857 120.008846 
L 36.220408 119.466639 
L 38.497959 118.527222 
L 40.77551 117.105888 
L 43.053061 115.156615 
L 45.330612 112.671787 
L 47.608163 109.680861 
L 49.885714 106.24819 
L 52.163265 102.470137 
L 54.440816 98.471645 
L 56.718367 94.402326 
L 58.995918 90.431954 
L 61.273469 86.745377 
L 63.55102 83.537154 
L 65.828571 81.006255 
L 68.106122 79.351149 
L 70.383673 78.765523 
L 72.661224 79.434825 
L 74.938776 81.526508 
L 77.216327 85.121699 
L 79.493878 89.844524 
L 81.771429 95.262675 
L 84.04898 100.973094 
L 86.326531 106.622923 
L 88.604082 111.918821 
L 90.881633 116.632153 
L 93.159184 120.600478 
L 95.436735 123.725903 
L 97.714286 125.970852 
L 99.991837 127.351924 
L 102.269388 127.93237 
L 104.546939 127.813533 
L 106.82449 127.125686 
L 109.102041 126.018911 
L 111.379592 124.654629 
L 113.657143 123.198308 
L 115.934694 121.813747 
L 118.212245 120.659187 
L 120.489796 119.885358 
L 122.767347 119.58409 
L 125.044898 119.640883 
L 127.322449 119.901262 
L 129.6 120.232993 
" style="fill:none;stroke:#66c2a5;stroke-linecap:square;stroke-width:2;"/>
   </g>
   <g id="patch_8">
    <path d="M 74.938776 128.16 
L 74.938776 77.76 
" style="fill:none;stroke:#a9a9a9;stroke-linecap:square;stroke-linejoin:miter;stroke-width:2;"/>
   </g>
   <g id="patch_9">
    <path d="M 129.6 128.16 
L 129.6 77.76 
" style="fill:none;"/>
   </g>
   <g id="patch_10">
    <path d="M 18 122.261336 
L 129.6 122.261336 
" style="fill:none;stroke:#a9a9a9;stroke-linecap:square;stroke-linejoin:miter;stroke-width:2;"/>
   </g>
   <g id="patch_11">
    <path d="M 18 77.76 
L 129.6 77.76 
" style="fill:none;"/>
   </g>
   <g id="legend_2">
    <g id="line2d_18">
     <path d="M 101.475312 86.928906 
L 115.475312 86.928906 
" style="fill:none;stroke:#66c2a5;stroke-linecap:square;stroke-width:2;"/>
    </g>
    <g id="line2d_19"/>
    <g id="text_3">
     <!--   -->
     <g transform="translate(121.075312 89.378906)scale(0.07 -0.07)">
      <use xlink:href="#DejaVuSans-32"/>
     </g>
    </g>
   </g>
  </g>
 </g>
 <defs>
  <clipPath id="p7a9c729835">
   <rect height="50.4" width="111.6" x="18" y="17.28"/>
  </clipPath>
  <clipPath id="p61de823f7d">
   <rect height="50.4" width="111.6" x="18" y="77.76"/>
  </clipPath>
 </defs>
</svg>
