<?xml version="1.0" encoding="utf-8" standalone="no"?>
<!DOCTYPE svg PUBLIC "-//W3C//DTD SVG 1.1//EN"
  "http://www.w3.org/Graphics/SVG/1.1/DTD/svg11.dtd">
<!-- Created with matplotlib (https://matplotlib.org/) -->
<svg height="144pt" version="1.1" viewBox="0 0 144 144" width="144pt" xmlns="http://www.w3.org/2000/svg" xmlns:xlink="http://www.w3.org/1999/xlink">
 <metadata>
  <rdf:RDF xmlns:cc="http://creativecommons.org/ns#" xmlns:dc="http://purl.org/dc/elements/1.1/" xmlns:rdf="http://www.w3.org/1999/02/22-rdf-syntax-ns#">
   <cc:Work>
    <dc:type rdf:resource="http://purl.org/dc/dcmitype/StillImage"/>
    <dc:date>2021-10-13T15:57:40.861822</dc:date>
    <dc:format>image/svg+xml</dc:format>
    <dc:creator>
     <cc:Agent>
      <dc:title>Matplotlib v3.3.2, https://matplotlib.org/</dc:title>
     </cc:Agent>
    </dc:creator>
   </cc:Work>
  </rdf:RDF>
 </metadata>
 <defs>
  <style type="text/css">*{stroke-linecap:butt;stroke-linejoin:round;}</style>
 </defs>
 <g id="figure_1">
  <g id="patch_1">
   <path d="M 0 144 
L 144 144 
L 144 0 
L 0 0 
z
" style="fill:none;"/>
  </g>
  <g id="axes_1">
   <g id="patch_2">
    <path d="M 18 67.68 
L 129.6 67.68 
L 129.6 17.28 
L 18 17.28 
z
" style="fill:none;"/>
   </g>
   <g id="PolyCollection_1">
    <path clip-path="url(#p8785f27652)" d="M 18 17.295944 
L 18 17.295944 
L 20.277551 17.295944 
L 22.555102 17.295944 
L 24.832653 17.295944 
L 27.110204 17.295944 
L 29.387755 17.295929 
L 31.665306 17.28 
L 33.942857 17.347887 
L 36.220408 17.555913 
L 38.497959 17.999402 
L 40.77551 18.59324 
L 43.053061 19.381114 
L 45.330612 20.560416 
L 47.608163 21.622468 
L 49.885714 22.896164 
L 52.163265 24.228758 
L 54.440816 26.16563 
L 56.718367 28.268149 
L 58.995918 30.84483 
L 61.273469 34.039272 
L 63.55102 37.442065 
L 65.828571 41.373787 
L 68.106122 46.334469 
L 70.383673 50.609751 
L 72.661224 55.388676 
L 74.938776 62.0103 
L 77.216327 62.253321 
L 79.493878 64.762306 
L 81.771429 65.18771 
L 84.04898 64.632676 
L 86.326531 62.664601 
L 88.604082 59.393064 
L 90.881633 55.06001 
L 93.159184 50.57397 
L 95.436735 45.125478 
L 97.714286 40.024372 
L 99.991837 35.036194 
L 102.269388 30.440897 
L 104.546939 26.358892 
L 106.82449 23.068275 
L 109.102041 20.784738 
L 111.379592 19.111866 
L 113.657143 18.068755 
L 115.934694 17.517135 
L 118.212245 17.311287 
L 120.489796 17.29578 
L 122.767347 17.295944 
L 125.044898 17.295944 
L 127.322449 17.295944 
L 129.6 17.295944 
L 129.6 17.295944 
L 129.6 17.295944 
L 127.322449 17.295944 
L 125.044898 17.295944 
L 122.767347 17.295944 
L 120.489796 17.296407 
L 118.212245 17.369842 
L 115.934694 17.672609 
L 113.657143 18.364416 
L 111.379592 19.49763 
L 109.102041 21.379449 
L 106.82449 24.173543 
L 104.546939 27.436046 
L 102.269388 31.549623 
L 99.991837 36.401067 
L 97.714286 41.812284 
L 95.436735 47.239353 
L 93.159184 52.473836 
L 90.881633 57.639827 
L 88.604082 61.624439 
L 86.326531 65.576912 
L 84.04898 67.400581 
L 81.771429 67.68 
L 79.493878 67.364215 
L 77.216327 65.202529 
L 74.938776 64.007788 
L 72.661224 58.469394 
L 70.383673 53.413947 
L 68.106122 48.970853 
L 65.828571 43.991474 
L 63.55102 39.550029 
L 61.273469 35.978555 
L 58.995918 32.987362 
L 56.718367 29.988333 
L 54.440816 27.874697 
L 52.163265 25.753199 
L 49.885714 24.092765 
L 47.608163 22.638367 
L 45.330612 21.326936 
L 43.053061 20.16279 
L 40.77551 19.21914 
L 38.497959 18.403366 
L 36.220408 17.787497 
L 33.942857 17.469577 
L 31.665306 17.330333 
L 29.387755 17.295952 
L 27.110204 17.295944 
L 24.832653 17.295944 
L 22.555102 17.295944 
L 20.277551 17.295944 
L 18 17.295944 
z
" style="fill:#fc8d62;fill-opacity:0.2;"/>
   </g>
   <g id="PolyCollection_2">
    <path clip-path="url(#p8785f27652)" d="M 18 17.295944 
L 18 17.295944 
L 20.277551 17.295944 
L 22.555102 17.295944 
L 24.832653 17.295944 
L 27.110204 17.295944 
L 29.387755 17.295926 
L 31.665306 17.269235 
L 33.942857 17.3565 
L 36.220408 17.646849 
L 38.497959 18.209179 
L 40.77551 19.225771 
L 43.053061 20.892932 
L 45.330612 22.877568 
L 47.608163 25.495366 
L 49.885714 28.553985 
L 52.163265 31.866752 
L 54.440816 36.31516 
L 56.718367 40.73437 
L 58.995918 44.664872 
L 61.273469 49.366245 
L 63.55102 53.581101 
L 65.828571 57.272403 
L 68.106122 60.852191 
L 70.383673 64.056068 
L 72.661224 65.566604 
L 74.938776 68.278094 
L 77.216327 65.873643 
L 79.493878 64.33781 
L 81.771429 62.285066 
L 84.04898 59.145013 
L 86.326531 55.052466 
L 88.604082 51.030467 
L 90.881633 46.793763 
L 93.159184 41.772259 
L 95.436735 37.880907 
L 97.714286 33.980797 
L 99.991837 29.820889 
L 102.269388 26.919282 
L 104.546939 23.994843 
L 106.82449 21.691792 
L 109.102041 19.850316 
L 111.379592 18.671581 
L 113.657143 17.824454 
L 115.934694 17.449102 
L 118.212245 17.309525 
L 120.489796 17.295774 
L 122.767347 17.295944 
L 125.044898 17.295944 
L 127.322449 17.295944 
L 129.6 17.295944 
L 129.6 17.295944 
L 129.6 17.295944 
L 127.322449 17.295944 
L 125.044898 17.295944 
L 122.767347 17.295944 
L 120.489796 17.296388 
L 118.212245 17.375231 
L 115.934694 17.598859 
L 113.657143 18.181603 
L 111.379592 19.160314 
L 109.102041 20.528345 
L 106.82449 22.351472 
L 104.546939 24.983891 
L 102.269388 27.997413 
L 99.991837 31.438501 
L 97.714286 35.576913 
L 95.436735 39.33763 
L 93.159184 44.126095 
L 90.881633 48.960032 
L 88.604082 53.190636 
L 86.326531 57.698839 
L 84.04898 61.785428 
L 81.771429 65.096492 
L 79.493878 66.632338 
L 77.216327 68.697828 
L 74.938776 70.432893 
L 72.661224 68.460088 
L 70.383673 66.748084 
L 68.106122 63.055518 
L 65.828571 59.524116 
L 63.55102 56.033355 
L 61.273469 51.537624 
L 58.995918 46.812853 
L 56.718367 42.490631 
L 54.440816 38.083975 
L 52.163265 33.768829 
L 49.885714 30.171129 
L 47.608163 26.555787 
L 45.330612 23.864913 
L 43.053061 21.617815 
L 40.77551 20.009837 
L 38.497959 18.699395 
L 36.220408 17.958207 
L 33.942857 17.521351 
L 31.665306 17.331036 
L 29.387755 17.295956 
L 27.110204 17.295944 
L 24.832653 17.295944 
L 22.555102 17.295944 
L 20.277551 17.295944 
L 18 17.295944 
z
" style="fill:#fc8d62;fill-opacity:0.2;"/>
   </g>
   <g id="matplotlib.axis_1">
    <g id="xtick_1">
     <g id="line2d_1">
      <defs>
       <path d="M 0 0 
L 0 3.5 
" id="m59071598bf" style="stroke:#a9a9a9;stroke-width:2;"/>
      </defs>
      <g>
       <use style="fill:#a9a9a9;stroke:#a9a9a9;stroke-width:2;" x="29.387755" xlink:href="#m59071598bf" y="17.295944"/>
      </g>
     </g>
    </g>
    <g id="xtick_2">
     <g id="line2d_2">
      <g>
       <use style="fill:#a9a9a9;stroke:#a9a9a9;stroke-width:2;" x="52.163265" xlink:href="#m59071598bf" y="17.295944"/>
      </g>
     </g>
    </g>
    <g id="xtick_3">
     <g id="line2d_3">
      <g>
       <use style="fill:#a9a9a9;stroke:#a9a9a9;stroke-width:2;" x="74.938776" xlink:href="#m59071598bf" y="17.295944"/>
      </g>
     </g>
    </g>
    <g id="xtick_4">
     <g id="line2d_4">
      <g>
       <use style="fill:#a9a9a9;stroke:#a9a9a9;stroke-width:2;" x="97.714286" xlink:href="#m59071598bf" y="17.295944"/>
      </g>
     </g>
    </g>
    <g id="xtick_5">
     <g id="line2d_5">
      <g>
       <use style="fill:#a9a9a9;stroke:#a9a9a9;stroke-width:2;" x="120.489796" xlink:href="#m59071598bf" y="17.295944"/>
      </g>
     </g>
    </g>
   </g>
   <g id="matplotlib.axis_2"/>
   <g id="line2d_6">
    <path clip-path="url(#p8785f27652)" d="M 18 17.295944 
L 20.277551 17.295944 
L 22.555102 17.295944 
L 24.832653 17.295944 
L 27.110204 17.295944 
L 29.387755 17.295941 
L 31.665306 17.305167 
L 33.942857 17.408732 
L 36.220408 17.671705 
L 38.497959 18.201384 
L 40.77551 18.90619 
L 43.053061 19.771952 
L 45.330612 20.943676 
L 47.608163 22.130418 
L 49.885714 23.494464 
L 52.163265 24.990978 
L 54.440816 27.020164 
L 56.718367 29.128241 
L 58.995918 31.916096 
L 61.273469 35.008913 
L 63.55102 38.496047 
L 65.828571 42.68263 
L 68.106122 47.652661 
L 70.383673 52.011849 
L 72.661224 56.929035 
L 74.938776 63.009044 
L 77.216327 63.727925 
L 79.493878 66.06326 
L 81.771429 66.433855 
L 84.04898 66.016628 
L 86.326531 64.120757 
L 88.604082 60.508752 
L 90.881633 56.349918 
L 93.159184 51.523903 
L 95.436735 46.182415 
L 97.714286 40.918328 
L 99.991837 35.718631 
L 102.269388 30.99526 
L 104.546939 26.897469 
L 106.82449 23.620909 
L 109.102041 21.082093 
L 111.379592 19.304748 
L 113.657143 18.216586 
L 115.934694 17.594872 
L 118.212245 17.340565 
L 120.489796 17.296093 
L 122.767347 17.295944 
L 125.044898 17.295944 
L 127.322449 17.295944 
L 129.6 17.295944 
" style="fill:none;stroke:#fc8d62;stroke-linecap:square;stroke-width:2;"/>
   </g>
   <g id="line2d_7">
    <path clip-path="url(#p8785f27652)" d="M 18 17.295944 
L 20.277551 17.295944 
L 22.555102 17.295944 
L 24.832653 17.295944 
L 27.110204 17.295944 
L 29.387755 17.295941 
L 31.665306 17.300135 
L 33.942857 17.438926 
L 36.220408 17.802528 
L 38.497959 18.454287 
L 40.77551 19.617804 
L 43.053061 21.255373 
L 45.330612 23.371241 
L 47.608163 26.025576 
L 49.885714 29.362557 
L 52.163265 32.81779 
L 54.440816 37.199568 
L 56.718367 41.6125 
L 58.995918 45.738863 
L 61.273469 50.451935 
L 63.55102 54.807228 
L 65.828571 58.398259 
L 68.106122 61.953854 
L 70.383673 65.402076 
L 72.661224 67.013346 
L 74.938776 69.355493 
L 77.216327 67.285736 
L 79.493878 65.485074 
L 81.771429 63.690779 
L 84.04898 60.465221 
L 86.326531 56.375653 
L 88.604082 52.110551 
L 90.881633 47.876898 
L 93.159184 42.949177 
L 95.436735 38.609268 
L 97.714286 34.778855 
L 99.991837 30.629695 
L 102.269388 27.458348 
L 104.546939 24.489367 
L 106.82449 22.021632 
L 109.102041 20.18933 
L 111.379592 18.915947 
L 113.657143 18.003028 
L 115.934694 17.523981 
L 118.212245 17.342378 
L 120.489796 17.296081 
L 122.767347 17.295944 
L 125.044898 17.295944 
L 127.322449 17.295944 
L 129.6 17.295944 
" style="fill:none;stroke:#fc8d62;stroke-dasharray:1.5,1.5;stroke-dashoffset:0;stroke-opacity:0.7;stroke-width:1.5;"/>
   </g>
   <g id="patch_3">
    <path d="M 74.938776 67.68 
L 74.938776 17.28 
" style="fill:none;stroke:#a9a9a9;stroke-linecap:square;stroke-linejoin:miter;stroke-width:2;"/>
   </g>
   <g id="patch_4">
    <path d="M 129.6 67.68 
L 129.6 17.28 
" style="fill:none;"/>
   </g>
   <g id="patch_5">
    <path d="M 18 17.295944 
L 129.6 17.295944 
" style="fill:none;stroke:#a9a9a9;stroke-linecap:square;stroke-linejoin:miter;stroke-width:2;"/>
   </g>
   <g id="patch_6">
    <path d="M 18 17.28 
L 129.6 17.28 
" style="fill:none;"/>
   </g>
   <g id="legend_1">
    <g id="line2d_8">
     <path d="M 24.3 47.199531 
L 38.3 47.199531 
" style="fill:none;stroke:#fc8d62;stroke-linecap:square;stroke-width:2;"/>
    </g>
    <g id="line2d_9"/>
    <g id="text_1">
     <!-- $\theta$ -->
     <g transform="translate(43.9 49.649531)scale(0.07 -0.07)">
      <defs>
       <path d="M 45.515625 34.671875 
L 14.453125 34.671875 
Q 12.359375 20.0625 14.5 13.875 
Q 17.1875 6.25 24.46875 6.25 
Q 31.78125 6.25 37.359375 13.921875 
Q 42.234375 20.65625 45.515625 34.671875 
z
M 47.015625 42.96875 
Q 48.34375 56.84375 46.625 61.71875 
Q 43.953125 69.4375 36.765625 69.4375 
Q 29.296875 69.4375 23.828125 61.8125 
Q 19.53125 55.671875 16.15625 42.96875 
z
M 38.1875 76.765625 
Q 49.90625 76.765625 54.59375 66.40625 
Q 59.28125 56.109375 55.71875 37.84375 
Q 52.203125 19.625 43.453125 9.28125 
Q 34.765625 -1.125 23.046875 -1.125 
Q 11.28125 -1.125 6.640625 9.28125 
Q 2 19.625 5.515625 37.84375 
Q 9.078125 56.109375 17.71875 66.40625 
Q 26.421875 76.765625 38.1875 76.765625 
z
" id="DejaVuSans-Oblique-952"/>
      </defs>
      <use transform="translate(0 0.234375)" xlink:href="#DejaVuSans-Oblique-952"/>
     </g>
    </g>
    <g id="line2d_10">
     <path d="M 24.3 57.474219 
L 38.3 57.474219 
" style="fill:none;stroke:#fc8d62;stroke-dasharray:1.5,1.5;stroke-dashoffset:0;stroke-opacity:0.7;stroke-width:1.5;"/>
    </g>
    <g id="line2d_11"/>
    <g id="text_2">
     <!-- No $\theta$ -->
     <g transform="translate(43.9 59.924219)scale(0.07 -0.07)">
      <defs>
       <path d="M 9.8125 72.90625 
L 23.09375 72.90625 
L 55.421875 11.921875 
L 55.421875 72.90625 
L 64.984375 72.90625 
L 64.984375 0 
L 51.703125 0 
L 19.390625 60.984375 
L 19.390625 0 
L 9.8125 0 
z
" id="DejaVuSans-78"/>
       <path d="M 30.609375 48.390625 
Q 23.390625 48.390625 19.1875 42.75 
Q 14.984375 37.109375 14.984375 27.296875 
Q 14.984375 17.484375 19.15625 11.84375 
Q 23.34375 6.203125 30.609375 6.203125 
Q 37.796875 6.203125 41.984375 11.859375 
Q 46.1875 17.53125 46.1875 27.296875 
Q 46.1875 37.015625 41.984375 42.703125 
Q 37.796875 48.390625 30.609375 48.390625 
z
M 30.609375 56 
Q 42.328125 56 49.015625 48.375 
Q 55.71875 40.765625 55.71875 27.296875 
Q 55.71875 13.875 49.015625 6.21875 
Q 42.328125 -1.421875 30.609375 -1.421875 
Q 18.84375 -1.421875 12.171875 6.21875 
Q 5.515625 13.875 5.515625 27.296875 
Q 5.515625 40.765625 12.171875 48.375 
Q 18.84375 56 30.609375 56 
z
" id="DejaVuSans-111"/>
       <path id="DejaVuSans-32"/>
      </defs>
      <use transform="translate(0 0.234375)" xlink:href="#DejaVuSans-78"/>
      <use transform="translate(74.804688 0.234375)" xlink:href="#DejaVuSans-111"/>
      <use transform="translate(135.986328 0.234375)" xlink:href="#DejaVuSans-32"/>
      <use transform="translate(167.773438 0.234375)" xlink:href="#DejaVuSans-Oblique-952"/>
     </g>
    </g>
   </g>
  </g>
  <g id="axes_2">
   <g id="patch_7">
    <path d="M 18 128.16 
L 129.6 128.16 
L 129.6 77.76 
L 18 77.76 
z
" style="fill:none;"/>
   </g>
   <g id="PolyCollection_3">
    <path clip-path="url(#pb138766bdf)" d="M 18 120.5245 
L 18 120.447733 
L 20.277551 120.664443 
L 22.555102 120.72766 
L 24.832653 120.645277 
L 27.110204 120.465458 
L 29.387755 120.265566 
L 31.665306 120.094201 
L 33.942857 119.810956 
L 36.220408 119.254351 
L 38.497959 118.297388 
L 40.77551 116.848411 
L 43.053061 114.855642 
L 45.330612 112.310247 
L 47.608163 109.24421 
L 49.885714 105.725856 
L 52.163265 101.856125 
L 54.440816 97.764759 
L 56.718367 93.606222 
L 58.995918 89.555035 
L 61.273469 85.800618 
L 63.55102 82.541797 
L 65.828571 79.981485 
L 68.106122 78.321822 
L 70.383673 77.76 
L 72.661224 78.484965 
L 74.938776 80.665319 
L 77.216327 84.390181 
L 79.493878 89.260809 
L 81.771429 94.830702 
L 84.04898 100.682909 
L 86.326531 106.453703 
L 88.604082 111.841757 
L 90.881633 116.613162 
L 93.159184 120.602688 
L 95.436735 123.712963 
L 97.714286 125.912175 
L 99.991837 127.228248 
L 102.269388 127.737782 
L 104.546939 127.553592 
L 106.82449 126.813742 
L 109.102041 125.672491 
L 111.379592 124.29223 
L 113.657143 122.836477 
L 115.934694 121.464638 
L 118.212245 120.330086 
L 120.489796 119.583348 
L 122.767347 119.321473 
L 125.044898 119.426816 
L 127.322449 119.737565 
L 129.6 120.114133 
L 129.6 120.216742 
L 129.6 120.216742 
L 127.322449 119.865137 
L 125.044898 119.573657 
L 122.767347 119.479637 
L 120.489796 119.746956 
L 118.212245 120.503544 
L 115.934694 121.665586 
L 113.657143 123.082019 
L 111.379592 124.589325 
L 109.102041 126.017898 
L 106.82449 127.197338 
L 104.546939 127.962308 
L 102.269388 128.16 
L 99.991837 127.659153 
L 97.714286 126.359657 
L 95.436735 124.200516 
L 93.159184 121.165328 
L 90.881633 117.287245 
L 88.604082 112.656607 
L 86.326531 107.428321 
L 84.04898 101.825578 
L 81.771429 96.13918 
L 79.493878 90.722955 
L 77.216327 85.984639 
L 74.938776 82.362333 
L 72.661224 80.247749 
L 70.383673 79.548784 
L 68.106122 80.096054 
L 65.828571 81.701723 
L 63.55102 84.171496 
L 61.273469 87.307795 
L 58.995918 90.913738 
L 56.718367 94.797774 
L 54.440816 98.77868 
L 52.163265 102.690604 
L 49.885714 106.387918 
L 47.608163 109.749462 
L 45.330612 112.682258 
L 43.053061 115.124647 
L 40.77551 117.048548 
L 38.497959 118.45966 
L 36.220408 119.398373 
L 33.942857 119.9438 
L 31.665306 120.21679 
L 29.387755 120.376185 
L 27.110204 120.559294 
L 24.832653 120.719396 
L 22.555102 120.786027 
L 20.277551 120.722893 
L 18 120.5245 
z
" style="fill:#66c2a5;fill-opacity:0.2;"/>
   </g>
   <g id="matplotlib.axis_3">
    <g id="xtick_6">
     <g id="line2d_12">
      <g>
       <use style="fill:#a9a9a9;stroke:#a9a9a9;stroke-width:2;" x="29.387755" xlink:href="#m59071598bf" y="122.184028"/>
      </g>
     </g>
    </g>
    <g id="xtick_7">
     <g id="line2d_13">
      <g>
       <use style="fill:#a9a9a9;stroke:#a9a9a9;stroke-width:2;" x="52.163265" xlink:href="#m59071598bf" y="122.184028"/>
      </g>
     </g>
    </g>
    <g id="xtick_8">
     <g id="line2d_14">
      <g>
       <use style="fill:#a9a9a9;stroke:#a9a9a9;stroke-width:2;" x="74.938776" xlink:href="#m59071598bf" y="122.184028"/>
      </g>
     </g>
    </g>
    <g id="xtick_9">
     <g id="line2d_15">
      <g>
       <use style="fill:#a9a9a9;stroke:#a9a9a9;stroke-width:2;" x="97.714286" xlink:href="#m59071598bf" y="122.184028"/>
      </g>
     </g>
    </g>
    <g id="xtick_10">
     <g id="line2d_16">
      <g>
       <use style="fill:#a9a9a9;stroke:#a9a9a9;stroke-width:2;" x="120.489796" xlink:href="#m59071598bf" y="122.184028"/>
      </g>
     </g>
    </g>
   </g>
   <g id="matplotlib.axis_4"/>
   <g id="line2d_17">
    <path clip-path="url(#pb138766bdf)" d="M 18 120.486117 
L 20.277551 120.693668 
L 22.555102 120.756843 
L 24.832653 120.682337 
L 27.110204 120.512376 
L 29.387755 120.320875 
L 31.665306 120.155495 
L 33.942857 119.877378 
L 36.220408 119.326362 
L 38.497959 118.378524 
L 40.77551 116.948479 
L 43.053061 114.990144 
L 45.330612 112.496252 
L 47.608163 109.496836 
L 49.885714 106.056887 
L 52.163265 102.273365 
L 54.440816 98.27172 
L 56.718367 94.201998 
L 58.995918 90.234387 
L 61.273469 86.554206 
L 63.55102 83.356646 
L 65.828571 80.841604 
L 68.106122 79.208938 
L 70.383673 78.654392 
L 72.661224 79.366357 
L 74.938776 81.513826 
L 77.216327 85.18741 
L 79.493878 89.991882 
L 81.771429 95.484941 
L 84.04898 101.254244 
L 86.326531 106.941012 
L 88.604082 112.249182 
L 90.881633 116.950203 
L 93.159184 120.884008 
L 95.436735 123.95674 
L 97.714286 126.135916 
L 99.991837 127.443701 
L 102.269388 127.948891 
L 104.546939 127.75795 
L 106.82449 127.00554 
L 109.102041 125.845194 
L 111.379592 124.440778 
L 113.657143 122.959248 
L 115.934694 121.565112 
L 118.212245 120.416815 
L 120.489796 119.665152 
L 122.767347 119.400555 
L 125.044898 119.500237 
L 127.322449 119.801351 
L 129.6 120.165438 
" style="fill:none;stroke:#66c2a5;stroke-linecap:square;stroke-width:2;"/>
   </g>
   <g id="patch_8">
    <path d="M 74.938776 128.16 
L 74.938776 77.76 
" style="fill:none;stroke:#a9a9a9;stroke-linecap:square;stroke-linejoin:miter;stroke-width:2;"/>
   </g>
   <g id="patch_9">
    <path d="M 129.6 128.16 
L 129.6 77.76 
" style="fill:none;"/>
   </g>
   <g id="patch_10">
    <path d="M 18 122.184028 
L 129.6 122.184028 
" style="fill:none;stroke:#a9a9a9;stroke-linecap:square;stroke-linejoin:miter;stroke-width:2;"/>
   </g>
   <g id="patch_11">
    <path d="M 18 77.76 
L 129.6 77.76 
" style="fill:none;"/>
   </g>
  </g>
 </g>
 <defs>
  <clipPath id="p8785f27652">
   <rect height="50.4" width="111.6" x="18" y="17.28"/>
  </clipPath>
  <clipPath id="pb138766bdf">
   <rect height="50.4" width="111.6" x="18" y="77.76"/>
  </clipPath>
 </defs>
</svg>
