<?xml version="1.0" encoding="utf-8" standalone="no"?>
<!DOCTYPE svg PUBLIC "-//W3C//DTD SVG 1.1//EN"
  "http://www.w3.org/Graphics/SVG/1.1/DTD/svg11.dtd">
<!-- Created with matplotlib (https://matplotlib.org/) -->
<svg height="144pt" version="1.1" viewBox="0 0 144 144" width="144pt" xmlns="http://www.w3.org/2000/svg" xmlns:xlink="http://www.w3.org/1999/xlink">
 <metadata>
  <rdf:RDF xmlns:cc="http://creativecommons.org/ns#" xmlns:dc="http://purl.org/dc/elements/1.1/" xmlns:rdf="http://www.w3.org/1999/02/22-rdf-syntax-ns#">
   <cc:Work>
    <dc:type rdf:resource="http://purl.org/dc/dcmitype/StillImage"/>
    <dc:date>2021-10-14T23:14:28.325732</dc:date>
    <dc:format>image/svg+xml</dc:format>
    <dc:creator>
     <cc:Agent>
      <dc:title>Matplotlib v3.3.2, https://matplotlib.org/</dc:title>
     </cc:Agent>
    </dc:creator>
   </cc:Work>
  </rdf:RDF>
 </metadata>
 <defs>
  <style type="text/css">*{stroke-linecap:butt;stroke-linejoin:round;}</style>
 </defs>
 <g id="figure_1">
  <g id="patch_1">
   <path d="M 0 144 
L 144 144 
L 144 0 
L 0 0 
z
" style="fill:none;"/>
  </g>
  <g id="axes_1">
   <g id="patch_2">
    <path d="M 18 67.68 
L 129.6 67.68 
L 129.6 17.28 
L 18 17.28 
z
" style="fill:none;"/>
   </g>
   <g id="PolyCollection_1">
    <path clip-path="url(#p1cb4a0d9ec)" d="M 18 67.678936 
L 18 67.678936 
L 20.277551 67.678936 
L 22.555102 67.678936 
L 24.832653 67.678936 
L 27.110204 67.678933 
L 29.387755 67.677593 
L 31.665306 67.631083 
L 33.942857 67.422825 
L 36.220408 66.925232 
L 38.497959 66.044962 
L 40.77551 64.640411 
L 43.053061 62.730601 
L 45.330612 60.101896 
L 47.608163 56.878562 
L 49.885714 53.068469 
L 52.163265 48.967336 
L 54.440816 44.226538 
L 56.718367 39.484057 
L 58.995918 34.49275 
L 61.273469 29.903354 
L 63.55102 25.717737 
L 65.828571 22.176214 
L 68.106122 19.571682 
L 70.383673 17.77635 
L 72.661224 17.28 
L 74.938776 17.906821 
L 77.216327 19.715537 
L 79.493878 22.58793 
L 81.771429 26.143432 
L 84.04898 30.073022 
L 86.326531 34.138926 
L 88.604082 38.509909 
L 90.881633 42.89344 
L 93.159184 47.050211 
L 95.436735 50.99622 
L 97.714286 54.462967 
L 99.991837 57.704878 
L 102.269388 60.371699 
L 104.546939 62.581022 
L 106.82449 64.377082 
L 109.102041 65.735018 
L 111.379592 66.672425 
L 113.657143 67.244988 
L 115.934694 67.550491 
L 118.212245 67.664525 
L 120.489796 67.678911 
L 122.767347 67.678936 
L 125.044898 67.678936 
L 127.322449 67.678936 
L 129.6 67.678936 
L 129.6 67.678936 
L 129.6 67.678936 
L 127.322449 67.678936 
L 125.044898 67.678936 
L 122.767347 67.678936 
L 120.489796 67.679015 
L 118.212245 67.68 
L 115.934694 67.602608 
L 113.657143 67.359426 
L 111.379592 66.82652 
L 109.102041 65.982619 
L 106.82449 64.685072 
L 104.546939 63.045851 
L 102.269388 60.927838 
L 99.991837 58.424342 
L 97.714286 55.245675 
L 95.436735 51.885144 
L 93.159184 48.192871 
L 90.881633 44.250839 
L 88.604082 40.092977 
L 86.326531 35.848739 
L 84.04898 31.625704 
L 81.771429 27.61144 
L 79.493878 24.285352 
L 77.216327 21.63872 
L 74.938776 20.307362 
L 72.661224 19.253463 
L 70.383673 19.676487 
L 68.106122 21.217079 
L 65.828571 24.02673 
L 63.55102 27.536523 
L 61.273469 31.554285 
L 58.995918 36.10483 
L 56.718367 40.645911 
L 54.440816 45.521884 
L 52.163265 50.010874 
L 49.885714 54.037859 
L 47.608163 57.679277 
L 45.330612 60.802285 
L 43.053061 63.141267 
L 40.77551 64.966269 
L 38.497959 66.265323 
L 36.220408 67.056556 
L 33.942857 67.483305 
L 31.665306 67.651021 
L 29.387755 67.678799 
L 27.110204 67.678935 
L 24.832653 67.678936 
L 22.555102 67.678936 
L 20.277551 67.678936 
L 18 67.678936 
z
" style="fill:#fc8d62;fill-opacity:0.2;"/>
   </g>
   <g id="PolyCollection_2">
    <path clip-path="url(#p1cb4a0d9ec)" d="M 18 67.678936 
L 18 67.678936 
L 20.277551 67.678936 
L 22.555102 67.678936 
L 24.832653 67.678936 
L 27.110204 67.678934 
L 29.387755 67.678005 
L 31.665306 67.629798 
L 33.942857 67.425368 
L 36.220408 66.960402 
L 38.497959 66.127729 
L 40.77551 64.803901 
L 43.053061 63.036043 
L 45.330612 60.681743 
L 47.608163 57.858152 
L 49.885714 54.500352 
L 52.163265 50.706617 
L 54.440816 46.468793 
L 56.718367 42.042559 
L 58.995918 37.473595 
L 61.273469 33.035047 
L 63.55102 28.836338 
L 65.828571 25.110171 
L 68.106122 21.963253 
L 70.383673 19.532645 
L 72.661224 18.068111 
L 74.938776 17.753514 
L 77.216327 18.491516 
L 79.493878 20.476023 
L 81.771429 23.203199 
L 84.04898 26.821706 
L 86.326531 30.780954 
L 88.604082 35.235905 
L 90.881633 39.713089 
L 93.159184 44.17903 
L 95.436735 48.630856 
L 97.714286 52.505754 
L 99.991837 56.234671 
L 102.269388 59.285798 
L 104.546939 61.908442 
L 106.82449 63.918943 
L 109.102041 65.473269 
L 111.379592 66.541515 
L 113.657143 67.199147 
L 115.934694 67.542129 
L 118.212245 67.659661 
L 120.489796 67.678926 
L 122.767347 67.678936 
L 125.044898 67.678936 
L 127.322449 67.678936 
L 129.6 67.678936 
L 129.6 67.678936 
L 129.6 67.678936 
L 127.322449 67.678936 
L 125.044898 67.678936 
L 122.767347 67.678936 
L 120.489796 67.678968 
L 118.212245 67.676811 
L 115.934694 67.588873 
L 113.657143 67.311619 
L 111.379592 66.733404 
L 109.102041 65.739765 
L 106.82449 64.294422 
L 104.546939 62.384017 
L 102.269388 59.945483 
L 99.991837 56.881579 
L 97.714286 53.356183 
L 95.436735 49.49048 
L 93.159184 45.378987 
L 90.881633 40.978357 
L 88.604082 36.385789 
L 86.326531 32.253633 
L 84.04898 28.371727 
L 81.771429 24.875459 
L 79.493878 22.085704 
L 77.216327 20.247564 
L 74.938776 19.703458 
L 72.661224 19.664954 
L 70.383673 21.03176 
L 68.106122 23.338864 
L 65.828571 26.514089 
L 63.55102 30.345702 
L 61.273469 34.449836 
L 58.995918 38.806173 
L 56.718367 43.172551 
L 54.440816 47.569226 
L 52.163265 51.644193 
L 49.885714 55.218829 
L 47.608163 58.462997 
L 45.330612 61.232083 
L 43.053061 63.401085 
L 40.77551 65.107114 
L 38.497959 66.327845 
L 36.220408 67.073452 
L 33.942857 67.492874 
L 31.665306 67.653043 
L 29.387755 67.678687 
L 27.110204 67.678935 
L 24.832653 67.678936 
L 22.555102 67.678936 
L 20.277551 67.678936 
L 18 67.678936 
z
" style="fill:#fc8d62;fill-opacity:0.2;"/>
   </g>
   <g id="matplotlib.axis_1">
    <g id="xtick_1">
     <g id="line2d_1">
      <defs>
       <path d="M 0 0 
L 0 3.5 
" id="m39ed82a71c" style="stroke:#a9a9a9;stroke-width:2;"/>
      </defs>
      <g>
       <use style="fill:#a9a9a9;stroke:#a9a9a9;stroke-width:2;" x="29.387755" xlink:href="#m39ed82a71c" y="67.678936"/>
      </g>
     </g>
    </g>
    <g id="xtick_2">
     <g id="line2d_2">
      <g>
       <use style="fill:#a9a9a9;stroke:#a9a9a9;stroke-width:2;" x="52.163265" xlink:href="#m39ed82a71c" y="67.678936"/>
      </g>
     </g>
    </g>
    <g id="xtick_3">
     <g id="line2d_3">
      <g>
       <use style="fill:#a9a9a9;stroke:#a9a9a9;stroke-width:2;" x="74.938776" xlink:href="#m39ed82a71c" y="67.678936"/>
      </g>
     </g>
    </g>
    <g id="xtick_4">
     <g id="line2d_4">
      <g>
       <use style="fill:#a9a9a9;stroke:#a9a9a9;stroke-width:2;" x="97.714286" xlink:href="#m39ed82a71c" y="67.678936"/>
      </g>
     </g>
    </g>
    <g id="xtick_5">
     <g id="line2d_5">
      <g>
       <use style="fill:#a9a9a9;stroke:#a9a9a9;stroke-width:2;" x="120.489796" xlink:href="#m39ed82a71c" y="67.678936"/>
      </g>
     </g>
    </g>
   </g>
   <g id="matplotlib.axis_2"/>
   <g id="line2d_6">
    <path clip-path="url(#p1cb4a0d9ec)" d="M 18 67.678936 
L 20.277551 67.678936 
L 22.555102 67.678936 
L 24.832653 67.678936 
L 27.110204 67.678934 
L 29.387755 67.678196 
L 31.665306 67.641052 
L 33.942857 67.453065 
L 36.220408 66.990894 
L 38.497959 66.155143 
L 40.77551 64.80334 
L 43.053061 62.935934 
L 45.330612 60.452091 
L 47.608163 57.27892 
L 49.885714 53.553164 
L 52.163265 49.489105 
L 54.440816 44.874211 
L 56.718367 40.064984 
L 58.995918 35.29879 
L 61.273469 30.728819 
L 63.55102 26.62713 
L 65.828571 23.101472 
L 68.106122 20.39438 
L 70.383673 18.726419 
L 72.661224 18.266731 
L 74.938776 19.107092 
L 77.216327 20.677128 
L 79.493878 23.436641 
L 81.771429 26.877436 
L 84.04898 30.849363 
L 86.326531 34.993832 
L 88.604082 39.301443 
L 90.881633 43.57214 
L 93.159184 47.621541 
L 95.436735 51.440682 
L 97.714286 54.854321 
L 99.991837 58.06461 
L 102.269388 60.649769 
L 104.546939 62.813437 
L 106.82449 64.531077 
L 109.102041 65.858818 
L 111.379592 66.749473 
L 113.657143 67.302207 
L 115.934694 67.57655 
L 118.212245 67.672263 
L 120.489796 67.678963 
L 122.767347 67.678936 
L 125.044898 67.678936 
L 127.322449 67.678936 
L 129.6 67.678936 
" style="fill:none;stroke:#fc8d62;stroke-linecap:square;stroke-width:2;"/>
   </g>
   <g id="line2d_7">
    <path clip-path="url(#p1cb4a0d9ec)" d="M 18 67.678936 
L 20.277551 67.678936 
L 22.555102 67.678936 
L 24.832653 67.678936 
L 27.110204 67.678935 
L 29.387755 67.678346 
L 31.665306 67.641421 
L 33.942857 67.459121 
L 36.220408 67.016927 
L 38.497959 66.227787 
L 40.77551 64.955507 
L 43.053061 63.218564 
L 45.330612 60.956913 
L 47.608163 58.160575 
L 49.885714 54.859591 
L 52.163265 51.175405 
L 54.440816 47.01901 
L 56.718367 42.607555 
L 58.995918 38.139884 
L 61.273469 33.742442 
L 63.55102 29.59102 
L 65.828571 25.81213 
L 68.106122 22.651059 
L 70.383673 20.282202 
L 72.661224 18.866533 
L 74.938776 18.728486 
L 77.216327 19.36954 
L 79.493878 21.280863 
L 81.771429 24.039329 
L 84.04898 27.596716 
L 86.326531 31.517294 
L 88.604082 35.810847 
L 90.881633 40.345723 
L 93.159184 44.779008 
L 95.436735 49.060668 
L 97.714286 52.930968 
L 99.991837 56.558125 
L 102.269388 59.61564 
L 104.546939 62.14623 
L 106.82449 64.106682 
L 109.102041 65.606517 
L 111.379592 66.63746 
L 113.657143 67.255383 
L 115.934694 67.565501 
L 118.212245 67.668236 
L 120.489796 67.678947 
L 122.767347 67.678936 
L 125.044898 67.678936 
L 127.322449 67.678936 
L 129.6 67.678936 
" style="fill:none;stroke:#fc8d62;stroke-dasharray:1.5,1.5;stroke-dashoffset:0;stroke-opacity:0.7;stroke-width:1.5;"/>
   </g>
   <g id="patch_3">
    <path d="M 74.938776 67.68 
L 74.938776 17.28 
" style="fill:none;stroke:#a9a9a9;stroke-linecap:square;stroke-linejoin:miter;stroke-width:2;"/>
   </g>
   <g id="patch_4">
    <path d="M 129.6 67.68 
L 129.6 17.28 
" style="fill:none;"/>
   </g>
   <g id="patch_5">
    <path d="M 18 67.678936 
L 129.6 67.678936 
" style="fill:none;stroke:#a9a9a9;stroke-linecap:square;stroke-linejoin:miter;stroke-width:2;"/>
   </g>
   <g id="patch_6">
    <path d="M 18 17.28 
L 129.6 17.28 
" style="fill:none;"/>
   </g>
   <g id="legend_1">
    <g id="line2d_8">
     <path d="M 101.475312 26.448906 
L 115.475312 26.448906 
" style="fill:none;stroke:#fc8d62;stroke-linecap:square;stroke-width:2;"/>
    </g>
    <g id="line2d_9"/>
    <g id="text_1">
     <!--   -->
     <g transform="translate(121.075312 28.898906)scale(0.07 -0.07)">
      <defs>
       <path id="DejaVuSans-32"/>
      </defs>
      <use xlink:href="#DejaVuSans-32"/>
     </g>
    </g>
    <g id="line2d_10">
     <path d="M 101.475312 36.723594 
L 115.475312 36.723594 
" style="fill:none;stroke:#fc8d62;stroke-dasharray:1.5,1.5;stroke-dashoffset:0;stroke-opacity:0.7;stroke-width:1.5;"/>
    </g>
    <g id="line2d_11"/>
    <g id="text_2">
     <!--   -->
     <g transform="translate(121.075312 39.173594)scale(0.07 -0.07)">
      <use xlink:href="#DejaVuSans-32"/>
     </g>
    </g>
   </g>
  </g>
  <g id="axes_2">
   <g id="patch_7">
    <path d="M 18 128.16 
L 129.6 128.16 
L 129.6 77.76 
L 18 77.76 
z
" style="fill:none;"/>
   </g>
   <g id="PolyCollection_3">
    <path clip-path="url(#pcf76569178)" d="M 18 120.61781 
L 18 120.532958 
L 20.277551 120.740357 
L 22.555102 120.811679 
L 24.832653 120.74992 
L 27.110204 120.596882 
L 29.387755 120.422766 
L 31.665306 120.270175 
L 33.942857 120.00033 
L 36.220408 119.45432 
L 38.497959 118.506051 
L 40.77551 117.063562 
L 43.053061 115.075248 
L 45.330612 112.532527 
L 47.608163 109.466903 
L 49.885714 105.946042 
L 52.163265 102.070109 
L 54.440816 97.968509 
L 56.718367 93.795431 
L 58.995918 89.725371 
L 61.273469 85.947683 
L 63.55102 82.661028 
L 65.828571 80.067826 
L 68.106122 78.369095 
L 70.383673 77.76 
L 72.661224 78.426238 
L 74.938776 80.534464 
L 77.216327 84.163654 
L 79.493878 88.937584 
L 81.771429 94.422372 
L 84.04898 100.212366 
L 86.326531 105.950915 
L 88.604082 111.339725 
L 90.881633 116.144107 
L 93.159184 120.195119 
L 95.436735 123.389174 
L 97.714286 125.686265 
L 99.991837 127.106352 
L 102.269388 127.719283 
L 104.546939 127.632577 
L 106.82449 126.979617 
L 109.102041 125.910827 
L 111.379592 124.585767 
L 113.657143 123.166156 
L 115.934694 121.810344 
L 118.212245 120.670739 
L 120.489796 119.896667 
L 122.767347 119.587427 
L 125.044898 119.636518 
L 127.322449 119.893418 
L 129.6 120.226776 
L 129.6 120.337079 
L 129.6 120.337079 
L 127.322449 120.027513 
L 125.044898 119.788187 
L 122.767347 119.748565 
L 120.489796 120.062302 
L 118.212245 120.847931 
L 115.934694 122.019398 
L 113.657143 123.42442 
L 111.379592 124.898931 
L 109.102041 126.27405 
L 106.82449 127.381439 
L 104.546939 128.059297 
L 102.269388 128.16 
L 99.991837 127.559067 
L 97.714286 126.164474 
L 95.436735 123.92297 
L 93.159184 120.824743 
L 90.881633 116.908093 
L 88.604082 112.267796 
L 86.326531 107.061421 
L 84.04898 101.511911 
L 81.771429 95.906438 
L 79.493878 90.591074 
L 77.216327 85.961432 
L 74.938776 82.442262 
L 72.661224 80.402202 
L 70.383673 79.759374 
L 68.106122 80.346737 
L 65.828571 81.980288 
L 63.55102 84.468483 
L 61.273469 87.615684 
L 58.995918 91.226395 
L 56.718367 95.11006 
L 54.440816 99.086194 
L 52.163265 102.989651 
L 49.885714 106.675388 
L 47.608163 110.023056 
L 45.330612 112.940357 
L 43.053061 115.36664 
L 40.77551 117.274932 
L 38.497959 118.672279 
L 36.220408 119.599339 
L 33.942857 120.133497 
L 31.665306 120.39307 
L 29.387755 120.533663 
L 27.110204 120.691043 
L 24.832653 120.825255 
L 22.555102 120.87385 
L 20.277551 120.80578 
L 18 120.61781 
z
" style="fill:#66c2a5;fill-opacity:0.2;"/>
   </g>
   <g id="matplotlib.axis_3">
    <g id="xtick_6">
     <g id="line2d_12">
      <g>
       <use style="fill:#a9a9a9;stroke:#a9a9a9;stroke-width:2;" x="29.387755" xlink:href="#m39ed82a71c" y="122.30309"/>
      </g>
     </g>
    </g>
    <g id="xtick_7">
     <g id="line2d_13">
      <g>
       <use style="fill:#a9a9a9;stroke:#a9a9a9;stroke-width:2;" x="52.163265" xlink:href="#m39ed82a71c" y="122.30309"/>
      </g>
     </g>
    </g>
    <g id="xtick_8">
     <g id="line2d_14">
      <g>
       <use style="fill:#a9a9a9;stroke:#a9a9a9;stroke-width:2;" x="74.938776" xlink:href="#m39ed82a71c" y="122.30309"/>
      </g>
     </g>
    </g>
    <g id="xtick_9">
     <g id="line2d_15">
      <g>
       <use style="fill:#a9a9a9;stroke:#a9a9a9;stroke-width:2;" x="97.714286" xlink:href="#m39ed82a71c" y="122.30309"/>
      </g>
     </g>
    </g>
    <g id="xtick_10">
     <g id="line2d_16">
      <g>
       <use style="fill:#a9a9a9;stroke:#a9a9a9;stroke-width:2;" x="120.489796" xlink:href="#m39ed82a71c" y="122.30309"/>
      </g>
     </g>
    </g>
   </g>
   <g id="matplotlib.axis_4"/>
   <g id="line2d_17">
    <path clip-path="url(#pcf76569178)" d="M 18 120.575384 
L 20.277551 120.773068 
L 22.555102 120.842765 
L 24.832653 120.787588 
L 27.110204 120.643963 
L 29.387755 120.478215 
L 31.665306 120.331623 
L 33.942857 120.066914 
L 36.220408 119.526829 
L 38.497959 118.589165 
L 40.77551 117.169247 
L 43.053061 115.220944 
L 45.330612 112.736442 
L 47.608163 109.744979 
L 49.885714 106.310715 
L 52.163265 102.52988 
L 54.440816 98.527352 
L 56.718367 94.452745 
L 58.995918 90.475883 
L 61.273469 86.781683 
L 63.55102 83.564755 
L 65.828571 81.024057 
L 68.106122 79.357916 
L 70.383673 78.759687 
L 72.661224 79.41422 
L 74.938776 81.488363 
L 77.216327 85.062543 
L 79.493878 89.764329 
L 81.771429 95.164405 
L 84.04898 100.862138 
L 86.326531 106.506168 
L 88.604082 111.80376 
L 90.881633 116.5261 
L 93.159184 120.509931 
L 95.436735 123.656072 
L 97.714286 125.92537 
L 99.991837 127.33271 
L 102.269388 127.939642 
L 104.546939 127.845937 
L 106.82449 127.180528 
L 109.102041 126.092439 
L 111.379592 124.742349 
L 113.657143 123.295288 
L 115.934694 121.914871 
L 118.212245 120.759335 
L 120.489796 119.979484 
L 122.767347 119.667996 
L 125.044898 119.712352 
L 127.322449 119.960466 
L 129.6 120.281927 
" style="fill:none;stroke:#66c2a5;stroke-linecap:square;stroke-width:2;"/>
   </g>
   <g id="patch_8">
    <path d="M 74.938776 128.16 
L 74.938776 77.76 
" style="fill:none;stroke:#a9a9a9;stroke-linecap:square;stroke-linejoin:miter;stroke-width:2;"/>
   </g>
   <g id="patch_9">
    <path d="M 129.6 128.16 
L 129.6 77.76 
" style="fill:none;"/>
   </g>
   <g id="patch_10">
    <path d="M 18 122.30309 
L 129.6 122.30309 
" style="fill:none;stroke:#a9a9a9;stroke-linecap:square;stroke-linejoin:miter;stroke-width:2;"/>
   </g>
   <g id="patch_11">
    <path d="M 18 77.76 
L 129.6 77.76 
" style="fill:none;"/>
   </g>
   <g id="legend_2">
    <g id="line2d_18">
     <path d="M 101.475312 86.928906 
L 115.475312 86.928906 
" style="fill:none;stroke:#66c2a5;stroke-linecap:square;stroke-width:2;"/>
    </g>
    <g id="line2d_19"/>
    <g id="text_3">
     <!--   -->
     <g transform="translate(121.075312 89.378906)scale(0.07 -0.07)">
      <use xlink:href="#DejaVuSans-32"/>
     </g>
    </g>
   </g>
  </g>
 </g>
 <defs>
  <clipPath id="p1cb4a0d9ec">
   <rect height="50.4" width="111.6" x="18" y="17.28"/>
  </clipPath>
  <clipPath id="pcf76569178">
   <rect height="50.4" width="111.6" x="18" y="77.76"/>
  </clipPath>
 </defs>
</svg>
