<?xml version="1.0" encoding="utf-8" standalone="no"?>
<!DOCTYPE svg PUBLIC "-//W3C//DTD SVG 1.1//EN"
  "http://www.w3.org/Graphics/SVG/1.1/DTD/svg11.dtd">
<!-- Created with matplotlib (https://matplotlib.org/) -->
<svg height="144pt" version="1.1" viewBox="0 0 144 144" width="144pt" xmlns="http://www.w3.org/2000/svg" xmlns:xlink="http://www.w3.org/1999/xlink">
 <metadata>
  <rdf:RDF xmlns:cc="http://creativecommons.org/ns#" xmlns:dc="http://purl.org/dc/elements/1.1/" xmlns:rdf="http://www.w3.org/1999/02/22-rdf-syntax-ns#">
   <cc:Work>
    <dc:type rdf:resource="http://purl.org/dc/dcmitype/StillImage"/>
    <dc:date>2021-10-14T23:08:43.766541</dc:date>
    <dc:format>image/svg+xml</dc:format>
    <dc:creator>
     <cc:Agent>
      <dc:title>Matplotlib v3.3.2, https://matplotlib.org/</dc:title>
     </cc:Agent>
    </dc:creator>
   </cc:Work>
  </rdf:RDF>
 </metadata>
 <defs>
  <style type="text/css">*{stroke-linecap:butt;stroke-linejoin:round;}</style>
 </defs>
 <g id="figure_1">
  <g id="patch_1">
   <path d="M 0 144 
L 144 144 
L 144 0 
L 0 0 
z
" style="fill:none;"/>
  </g>
  <g id="axes_1">
   <g id="patch_2">
    <path d="M 18 67.68 
L 129.6 67.68 
L 129.6 17.28 
L 18 17.28 
z
" style="fill:none;"/>
   </g>
   <g id="PolyCollection_1">
    <path clip-path="url(#p32d6721b0c)" d="M 18 67.675711 
L 18 67.675711 
L 20.277551 67.675711 
L 22.555102 67.675711 
L 24.832653 67.675711 
L 27.110204 67.675711 
L 29.387755 67.675413 
L 31.665306 67.629952 
L 33.942857 67.432718 
L 36.220408 66.951104 
L 38.497959 66.035963 
L 40.77551 64.532957 
L 43.053061 62.497352 
L 45.330612 59.657739 
L 47.608163 56.263939 
L 49.885714 52.056234 
L 52.163265 47.386325 
L 54.440816 42.272614 
L 56.718367 36.882602 
L 58.995918 31.519754 
L 61.273469 26.752763 
L 63.55102 22.9229 
L 65.828571 19.82354 
L 68.106122 17.679698 
L 70.383673 17.28 
L 72.661224 17.791395 
L 74.938776 20.245821 
L 77.216327 23.130065 
L 79.493878 26.883657 
L 81.771429 31.245835 
L 84.04898 35.521543 
L 86.326531 40.238327 
L 88.604082 44.327895 
L 90.881633 48.492771 
L 93.159184 51.830489 
L 95.436735 54.840464 
L 97.714286 57.597512 
L 99.991837 60.020602 
L 102.269388 61.918446 
L 104.546939 63.639055 
L 106.82449 64.947919 
L 109.102041 66.027411 
L 111.379592 66.779577 
L 113.657143 67.248036 
L 115.934694 67.546256 
L 118.212245 67.651472 
L 120.489796 67.675692 
L 122.767347 67.675711 
L 125.044898 67.675711 
L 127.322449 67.675711 
L 129.6 67.675711 
L 129.6 67.675711 
L 129.6 67.675711 
L 127.322449 67.675711 
L 125.044898 67.675711 
L 122.767347 67.675711 
L 120.489796 67.675754 
L 118.212245 67.68 
L 115.934694 67.625151 
L 113.657143 67.400481 
L 111.379592 67.013106 
L 109.102041 66.370327 
L 106.82449 65.448649 
L 104.546939 64.252467 
L 102.269388 62.795812 
L 99.991837 60.691256 
L 97.714286 58.57887 
L 95.436735 56.071475 
L 93.159184 52.981148 
L 90.881633 49.641883 
L 88.604082 46.02467 
L 86.326531 41.807242 
L 84.04898 37.297427 
L 81.771429 32.970575 
L 79.493878 28.834529 
L 77.216327 25.031603 
L 74.938776 22.430778 
L 72.661224 19.856526 
L 70.383673 19.157445 
L 68.106122 20.259294 
L 65.828571 22.171812 
L 63.55102 25.052247 
L 61.273469 29.219305 
L 58.995918 33.776382 
L 56.718367 38.711013 
L 54.440816 43.64366 
L 52.163265 48.717104 
L 49.885714 53.267151 
L 47.608163 57.015581 
L 45.330612 60.440785 
L 43.053061 63.080199 
L 40.77551 65.022367 
L 38.497959 66.310543 
L 36.220408 67.122707 
L 33.942857 67.508541 
L 31.665306 67.66292 
L 29.387755 67.675783 
L 27.110204 67.675711 
L 24.832653 67.675711 
L 22.555102 67.675711 
L 20.277551 67.675711 
L 18 67.675711 
z
" style="fill:#fc8d62;fill-opacity:0.2;"/>
   </g>
   <g id="PolyCollection_2">
    <path clip-path="url(#p32d6721b0c)" d="M 18 67.675711 
L 18 67.675711 
L 20.277551 67.675711 
L 22.555102 67.675711 
L 24.832653 67.675711 
L 27.110204 67.675711 
L 29.387755 67.675405 
L 31.665306 67.627771 
L 33.942857 67.43587 
L 36.220408 67.005585 
L 38.497959 66.222023 
L 40.77551 64.973644 
L 43.053061 63.284587 
L 45.330612 61.188229 
L 47.608163 58.501827 
L 49.885714 55.136749 
L 52.163265 51.852189 
L 54.440816 47.861273 
L 56.718367 43.558304 
L 58.995918 39.268644 
L 61.273469 34.793644 
L 63.55102 30.902719 
L 65.828571 27.408258 
L 68.106122 24.207131 
L 70.383673 21.851875 
L 72.661224 20.393036 
L 74.938776 20.285103 
L 77.216327 20.709288 
L 79.493878 22.407447 
L 81.771429 25.222185 
L 84.04898 28.536424 
L 86.326531 32.263637 
L 88.604082 36.444794 
L 90.881633 40.796249 
L 93.159184 44.88935 
L 95.436735 49.187284 
L 97.714286 52.979685 
L 99.991837 56.598297 
L 102.269388 59.515387 
L 104.546939 61.956961 
L 106.82449 64.006991 
L 109.102041 65.513945 
L 111.379592 66.545131 
L 113.657143 67.169128 
L 115.934694 67.516338 
L 118.212245 67.652165 
L 120.489796 67.675689 
L 122.767347 67.675711 
L 125.044898 67.675711 
L 127.322449 67.675711 
L 129.6 67.675711 
L 129.6 67.675711 
L 129.6 67.675711 
L 127.322449 67.675711 
L 125.044898 67.675711 
L 122.767347 67.675711 
L 120.489796 67.675754 
L 118.212245 67.679658 
L 115.934694 67.611102 
L 113.657143 67.361143 
L 111.379592 66.800778 
L 109.102041 65.922859 
L 106.82449 64.534271 
L 104.546939 62.642318 
L 102.269388 60.19291 
L 99.991837 57.353441 
L 97.714286 54.112538 
L 95.436735 50.281331 
L 93.159184 46.537954 
L 90.881633 42.659607 
L 88.604082 38.278136 
L 86.326531 34.36476 
L 84.04898 30.40931 
L 81.771429 27.117613 
L 79.493878 24.760164 
L 77.216327 23.070585 
L 74.938776 22.66462 
L 72.661224 22.861306 
L 70.383673 24.143911 
L 68.106122 26.563026 
L 65.828571 29.43701 
L 63.55102 32.714393 
L 61.273469 36.735906 
L 58.995918 40.693601 
L 56.718367 45.026792 
L 54.440816 49.223794 
L 52.163265 52.810502 
L 49.885714 56.357378 
L 47.608163 59.41475 
L 45.330612 61.848682 
L 43.053061 63.844374 
L 40.77551 65.379912 
L 38.497959 66.50845 
L 36.220408 67.182781 
L 33.942857 67.532451 
L 31.665306 67.660654 
L 29.387755 67.675831 
L 27.110204 67.675711 
L 24.832653 67.675711 
L 22.555102 67.675711 
L 20.277551 67.675711 
L 18 67.675711 
z
" style="fill:#fc8d62;fill-opacity:0.2;"/>
   </g>
   <g id="matplotlib.axis_1">
    <g id="xtick_1">
     <g id="line2d_1">
      <defs>
       <path d="M 0 0 
L 0 3.5 
" id="m6dbc90e9b4" style="stroke:#a9a9a9;stroke-width:2;"/>
      </defs>
      <g>
       <use style="fill:#a9a9a9;stroke:#a9a9a9;stroke-width:2;" x="29.387755" xlink:href="#m6dbc90e9b4" y="67.675711"/>
      </g>
     </g>
    </g>
    <g id="xtick_2">
     <g id="line2d_2">
      <g>
       <use style="fill:#a9a9a9;stroke:#a9a9a9;stroke-width:2;" x="52.163265" xlink:href="#m6dbc90e9b4" y="67.675711"/>
      </g>
     </g>
    </g>
    <g id="xtick_3">
     <g id="line2d_3">
      <g>
       <use style="fill:#a9a9a9;stroke:#a9a9a9;stroke-width:2;" x="74.938776" xlink:href="#m6dbc90e9b4" y="67.675711"/>
      </g>
     </g>
    </g>
    <g id="xtick_4">
     <g id="line2d_4">
      <g>
       <use style="fill:#a9a9a9;stroke:#a9a9a9;stroke-width:2;" x="97.714286" xlink:href="#m6dbc90e9b4" y="67.675711"/>
      </g>
     </g>
    </g>
    <g id="xtick_5">
     <g id="line2d_5">
      <g>
       <use style="fill:#a9a9a9;stroke:#a9a9a9;stroke-width:2;" x="120.489796" xlink:href="#m6dbc90e9b4" y="67.675711"/>
      </g>
     </g>
    </g>
   </g>
   <g id="matplotlib.axis_2"/>
   <g id="line2d_6">
    <path clip-path="url(#p32d6721b0c)" d="M 18 67.675711 
L 20.277551 67.675711 
L 22.555102 67.675711 
L 24.832653 67.675711 
L 27.110204 67.675711 
L 29.387755 67.675598 
L 31.665306 67.646436 
L 33.942857 67.470629 
L 36.220408 67.036906 
L 38.497959 66.173253 
L 40.77551 64.777662 
L 43.053061 62.788775 
L 45.330612 60.049262 
L 47.608163 56.63976 
L 49.885714 52.661692 
L 52.163265 48.051715 
L 54.440816 42.958137 
L 56.718367 37.796807 
L 58.995918 32.648068 
L 61.273469 27.986034 
L 63.55102 23.987573 
L 65.828571 20.997676 
L 68.106122 18.969496 
L 70.383673 18.218723 
L 72.661224 18.823961 
L 74.938776 21.338299 
L 77.216327 24.080834 
L 79.493878 27.859093 
L 81.771429 32.108205 
L 84.04898 36.409485 
L 86.326531 41.022784 
L 88.604082 45.176283 
L 90.881633 49.067327 
L 93.159184 52.405818 
L 95.436735 55.455969 
L 97.714286 58.088191 
L 99.991837 60.355929 
L 102.269388 62.357129 
L 104.546939 63.945761 
L 106.82449 65.198284 
L 109.102041 66.198869 
L 111.379592 66.896341 
L 113.657143 67.324258 
L 115.934694 67.585703 
L 118.212245 67.665736 
L 120.489796 67.675723 
L 122.767347 67.675711 
L 125.044898 67.675711 
L 127.322449 67.675711 
L 129.6 67.675711 
" style="fill:none;stroke:#fc8d62;stroke-linecap:square;stroke-width:2;"/>
   </g>
   <g id="line2d_7">
    <path clip-path="url(#p32d6721b0c)" d="M 18 67.675711 
L 20.277551 67.675711 
L 22.555102 67.675711 
L 24.832653 67.675711 
L 27.110204 67.675711 
L 29.387755 67.675618 
L 31.665306 67.644213 
L 33.942857 67.484161 
L 36.220408 67.094183 
L 38.497959 66.365237 
L 40.77551 65.176778 
L 43.053061 63.56448 
L 45.330612 61.518455 
L 47.608163 58.958289 
L 49.885714 55.747064 
L 52.163265 52.331345 
L 54.440816 48.542534 
L 56.718367 44.292548 
L 58.995918 39.981122 
L 61.273469 35.764775 
L 63.55102 31.808556 
L 65.828571 28.422634 
L 68.106122 25.385078 
L 70.383673 22.997893 
L 72.661224 21.627171 
L 74.938776 21.474861 
L 77.216327 21.889936 
L 79.493878 23.583806 
L 81.771429 26.169899 
L 84.04898 29.472867 
L 86.326531 33.314198 
L 88.604082 37.361465 
L 90.881633 41.727928 
L 93.159184 45.713652 
L 95.436735 49.734308 
L 97.714286 53.546111 
L 99.991837 56.975869 
L 102.269388 59.854149 
L 104.546939 62.29964 
L 106.82449 64.270631 
L 109.102041 65.718402 
L 111.379592 66.672954 
L 113.657143 67.265136 
L 115.934694 67.56372 
L 118.212245 67.665911 
L 120.489796 67.675721 
L 122.767347 67.675711 
L 125.044898 67.675711 
L 127.322449 67.675711 
L 129.6 67.675711 
" style="fill:none;stroke:#fc8d62;stroke-dasharray:1.5,1.5;stroke-dashoffset:0;stroke-opacity:0.7;stroke-width:1.5;"/>
   </g>
   <g id="patch_3">
    <path d="M 74.938776 67.68 
L 74.938776 17.28 
" style="fill:none;stroke:#a9a9a9;stroke-linecap:square;stroke-linejoin:miter;stroke-width:2;"/>
   </g>
   <g id="patch_4">
    <path d="M 129.6 67.68 
L 129.6 17.28 
" style="fill:none;"/>
   </g>
   <g id="patch_5">
    <path d="M 18 67.675711 
L 129.6 67.675711 
" style="fill:none;stroke:#a9a9a9;stroke-linecap:square;stroke-linejoin:miter;stroke-width:2;"/>
   </g>
   <g id="patch_6">
    <path d="M 18 17.28 
L 129.6 17.28 
" style="fill:none;"/>
   </g>
   <g id="legend_1">
    <g id="line2d_8">
     <path d="M 101.475312 26.448906 
L 115.475312 26.448906 
" style="fill:none;stroke:#fc8d62;stroke-linecap:square;stroke-width:2;"/>
    </g>
    <g id="line2d_9"/>
    <g id="text_1">
     <!--   -->
     <g transform="translate(121.075312 28.898906)scale(0.07 -0.07)">
      <defs>
       <path id="DejaVuSans-32"/>
      </defs>
      <use xlink:href="#DejaVuSans-32"/>
     </g>
    </g>
    <g id="line2d_10">
     <path d="M 101.475312 36.723594 
L 115.475312 36.723594 
" style="fill:none;stroke:#fc8d62;stroke-dasharray:1.5,1.5;stroke-dashoffset:0;stroke-opacity:0.7;stroke-width:1.5;"/>
    </g>
    <g id="line2d_11"/>
    <g id="text_2">
     <!--   -->
     <g transform="translate(121.075312 39.173594)scale(0.07 -0.07)">
      <use xlink:href="#DejaVuSans-32"/>
     </g>
    </g>
   </g>
  </g>
  <g id="axes_2">
   <g id="patch_7">
    <path d="M 18 128.16 
L 129.6 128.16 
L 129.6 77.76 
L 18 77.76 
z
" style="fill:none;"/>
   </g>
   <g id="PolyCollection_3">
    <path clip-path="url(#p4e0de34637)" d="M 18 120.54405 
L 18 120.459585 
L 20.277551 120.671554 
L 22.555102 120.746105 
L 24.832653 120.686119 
L 27.110204 120.53423 
L 29.387755 120.361091 
L 31.665306 120.209341 
L 33.942857 119.939853 
L 36.220408 119.39321 
L 38.497959 118.44289 
L 40.77551 116.997627 
L 43.053061 115.0067 
L 45.330612 112.462291 
L 47.608163 109.396156 
L 49.885714 105.875979 
L 52.163265 102.002131 
L 54.440816 97.904011 
L 56.718367 93.735956 
L 58.995918 89.672431 
L 61.273469 85.902783 
L 63.55102 82.625597 
L 65.828571 80.043156 
L 68.106122 78.356305 
L 70.383673 77.76 
L 72.661224 78.439732 
L 74.938776 80.56222 
L 77.216327 84.205086 
L 79.493878 88.991826 
L 81.771429 94.486993 
L 84.04898 100.283895 
L 86.326531 106.025057 
L 88.604082 111.411581 
L 90.881633 116.208475 
L 93.159184 120.246855 
L 95.436735 123.424089 
L 97.714286 125.702675 
L 99.991837 127.104606 
L 102.269388 127.701113 
L 104.546939 127.599566 
L 106.82449 126.933268 
L 109.102041 125.852605 
L 111.379592 124.517205 
L 113.657143 123.088838 
L 115.934694 121.725886 
L 118.212245 120.581092 
L 120.489796 119.804712 
L 122.767347 119.496111 
L 125.044898 119.548303 
L 127.322449 119.809749 
L 129.6 120.148266 
L 129.6 120.260609 
L 129.6 120.260609 
L 127.322449 119.948286 
L 125.044898 119.706623 
L 122.767347 119.66554 
L 120.489796 119.979067 
L 118.212245 120.766475 
L 115.934694 121.942024 
L 113.657143 123.354278 
L 111.379592 124.839206 
L 109.102041 126.227413 
L 106.82449 127.349814 
L 104.546939 128.043643 
L 102.269388 128.16 
L 99.991837 127.57295 
L 97.714286 126.188873 
L 95.436735 123.954484 
L 93.159184 120.860698 
L 90.881633 116.94723 
L 88.604082 112.309013 
L 86.326531 107.10325 
L 84.04898 101.552592 
L 81.771429 95.944094 
L 79.493878 90.623972 
L 77.216327 85.988225 
L 74.938776 82.46236 
L 72.661224 80.415154 
L 70.383673 79.765115 
L 68.106122 80.344965 
L 65.828571 81.970793 
L 63.55102 84.451223 
L 61.273469 87.590837 
L 58.995918 91.194374 
L 56.718367 95.071498 
L 54.440816 99.041917 
L 52.163265 102.940522 
L 49.885714 106.622359 
L 47.608163 109.96687 
L 45.330612 112.881653 
L 43.053061 115.305659 
L 40.77551 117.211695 
L 38.497959 118.607087 
L 36.220408 119.532935 
L 33.942857 120.06697 
L 31.665306 120.326865 
L 29.387755 120.467705 
L 27.110204 120.624946 
L 24.832653 120.758084 
L 22.555102 120.804675 
L 20.277551 120.734375 
L 18 120.54405 
z
" style="fill:#66c2a5;fill-opacity:0.2;"/>
   </g>
   <g id="matplotlib.axis_3">
    <g id="xtick_6">
     <g id="line2d_12">
      <g>
       <use style="fill:#a9a9a9;stroke:#a9a9a9;stroke-width:2;" x="29.387755" xlink:href="#m6dbc90e9b4" y="122.246677"/>
      </g>
     </g>
    </g>
    <g id="xtick_7">
     <g id="line2d_13">
      <g>
       <use style="fill:#a9a9a9;stroke:#a9a9a9;stroke-width:2;" x="52.163265" xlink:href="#m6dbc90e9b4" y="122.246677"/>
      </g>
     </g>
    </g>
    <g id="xtick_8">
     <g id="line2d_14">
      <g>
       <use style="fill:#a9a9a9;stroke:#a9a9a9;stroke-width:2;" x="74.938776" xlink:href="#m6dbc90e9b4" y="122.246677"/>
      </g>
     </g>
    </g>
    <g id="xtick_9">
     <g id="line2d_15">
      <g>
       <use style="fill:#a9a9a9;stroke:#a9a9a9;stroke-width:2;" x="97.714286" xlink:href="#m6dbc90e9b4" y="122.246677"/>
      </g>
     </g>
    </g>
    <g id="xtick_10">
     <g id="line2d_16">
      <g>
       <use style="fill:#a9a9a9;stroke:#a9a9a9;stroke-width:2;" x="120.489796" xlink:href="#m6dbc90e9b4" y="122.246677"/>
      </g>
     </g>
    </g>
   </g>
   <g id="matplotlib.axis_4"/>
   <g id="line2d_17">
    <path clip-path="url(#p4e0de34637)" d="M 18 120.501818 
L 20.277551 120.702965 
L 22.555102 120.77539 
L 24.832653 120.722102 
L 27.110204 120.579588 
L 29.387755 120.414398 
L 31.665306 120.268103 
L 33.942857 120.003412 
L 36.220408 119.463073 
L 38.497959 118.524989 
L 40.77551 117.104661 
L 43.053061 115.15618 
L 45.330612 112.671972 
L 47.608163 109.681513 
L 49.885714 106.249169 
L 52.163265 102.471327 
L 54.440816 98.472964 
L 56.718367 94.403727 
L 58.995918 90.433402 
L 61.273469 86.74681 
L 63.55102 83.53841 
L 65.828571 81.006975 
L 68.106122 79.350635 
L 70.383673 78.762558 
L 72.661224 79.427443 
L 74.938776 81.51229 
L 77.216327 85.096656 
L 79.493878 89.807899 
L 81.771429 95.215543 
L 84.04898 100.918244 
L 86.326531 106.564153 
L 88.604082 111.860297 
L 90.881633 116.577852 
L 93.159184 120.553776 
L 95.436735 123.689286 
L 97.714286 125.945774 
L 99.991837 127.338778 
L 102.269388 127.930556 
L 104.546939 127.821604 
L 106.82449 127.141541 
L 109.102041 126.040009 
L 111.379592 124.678206 
L 113.657143 123.221558 
L 115.934694 121.833955 
L 118.212245 120.673784 
L 120.489796 119.891889 
L 122.767347 119.580826 
L 125.044898 119.627463 
L 127.322449 119.879017 
L 129.6 120.204438 
" style="fill:none;stroke:#66c2a5;stroke-linecap:square;stroke-width:2;"/>
   </g>
   <g id="patch_8">
    <path d="M 74.938776 128.16 
L 74.938776 77.76 
" style="fill:none;stroke:#a9a9a9;stroke-linecap:square;stroke-linejoin:miter;stroke-width:2;"/>
   </g>
   <g id="patch_9">
    <path d="M 129.6 128.16 
L 129.6 77.76 
" style="fill:none;"/>
   </g>
   <g id="patch_10">
    <path d="M 18 122.246677 
L 129.6 122.246677 
" style="fill:none;stroke:#a9a9a9;stroke-linecap:square;stroke-linejoin:miter;stroke-width:2;"/>
   </g>
   <g id="patch_11">
    <path d="M 18 77.76 
L 129.6 77.76 
" style="fill:none;"/>
   </g>
   <g id="legend_2">
    <g id="line2d_18">
     <path d="M 101.475312 86.928906 
L 115.475312 86.928906 
" style="fill:none;stroke:#66c2a5;stroke-linecap:square;stroke-width:2;"/>
    </g>
    <g id="line2d_19"/>
    <g id="text_3">
     <!--   -->
     <g transform="translate(121.075312 89.378906)scale(0.07 -0.07)">
      <use xlink:href="#DejaVuSans-32"/>
     </g>
    </g>
   </g>
  </g>
 </g>
 <defs>
  <clipPath id="p32d6721b0c">
   <rect height="50.4" width="111.6" x="18" y="17.28"/>
  </clipPath>
  <clipPath id="p4e0de34637">
   <rect height="50.4" width="111.6" x="18" y="77.76"/>
  </clipPath>
 </defs>
</svg>
