<?xml version="1.0" encoding="utf-8" standalone="no"?>
<!DOCTYPE svg PUBLIC "-//W3C//DTD SVG 1.1//EN"
  "http://www.w3.org/Graphics/SVG/1.1/DTD/svg11.dtd">
<!-- Created with matplotlib (https://matplotlib.org/) -->
<svg height="144pt" version="1.1" viewBox="0 0 144 144" width="144pt" xmlns="http://www.w3.org/2000/svg" xmlns:xlink="http://www.w3.org/1999/xlink">
 <metadata>
  <rdf:RDF xmlns:cc="http://creativecommons.org/ns#" xmlns:dc="http://purl.org/dc/elements/1.1/" xmlns:rdf="http://www.w3.org/1999/02/22-rdf-syntax-ns#">
   <cc:Work>
    <dc:type rdf:resource="http://purl.org/dc/dcmitype/StillImage"/>
    <dc:date>2021-10-11T18:43:40.531075</dc:date>
    <dc:format>image/svg+xml</dc:format>
    <dc:creator>
     <cc:Agent>
      <dc:title>Matplotlib v3.3.2, https://matplotlib.org/</dc:title>
     </cc:Agent>
    </dc:creator>
   </cc:Work>
  </rdf:RDF>
 </metadata>
 <defs>
  <style type="text/css">*{stroke-linecap:butt;stroke-linejoin:round;}</style>
 </defs>
 <g id="figure_1">
  <g id="patch_1">
   <path d="M 0 144 
L 144 144 
L 144 0 
L 0 0 
z
" style="fill:none;"/>
  </g>
  <g id="axes_1">
   <g id="patch_2">
    <path d="M 18 67.68 
L 129.6 67.68 
L 129.6 17.28 
L 18 17.28 
z
" style="fill:none;"/>
   </g>
   <g id="PolyCollection_1">
    <path clip-path="url(#p1f89168472)" d="M 18 63.181876 
L 18 63.181876 
L 20.277551 63.181876 
L 22.555102 63.181876 
L 24.832653 63.181876 
L 27.110204 63.181876 
L 29.387755 63.181876 
L 31.665306 63.169655 
L 33.942857 63.170191 
L 36.220408 63.114837 
L 38.497959 63.019478 
L 40.77551 62.861045 
L 43.053061 62.301368 
L 45.330612 61.378815 
L 47.608163 59.824537 
L 49.885714 57.4221 
L 52.163265 54.12156 
L 54.440816 49.521797 
L 56.718367 44.400384 
L 58.995918 38.635178 
L 61.273469 32.271057 
L 63.55102 26.444606 
L 65.828571 21.684074 
L 68.106122 18.32437 
L 70.383673 17.28 
L 72.661224 18.154478 
L 74.938776 56.248951 
L 77.216327 28.04962 
L 79.493878 35.649612 
L 81.771429 43.221243 
L 84.04898 50.018757 
L 86.326531 56.154002 
L 88.604082 60.39447 
L 90.881633 63.884181 
L 93.159184 65.337497 
L 95.436735 66.363643 
L 97.714286 66.105769 
L 99.991837 65.600386 
L 102.269388 65.005312 
L 104.546939 64.277291 
L 106.82449 63.808213 
L 109.102041 63.3917 
L 111.379592 63.23398 
L 113.657143 63.15685 
L 115.934694 63.139485 
L 118.212245 63.159569 
L 120.489796 63.181864 
L 122.767347 63.181876 
L 125.044898 63.181876 
L 127.322449 63.181876 
L 129.6 63.181876 
L 129.6 63.181876 
L 129.6 63.181876 
L 127.322449 63.181876 
L 125.044898 63.181876 
L 122.767347 63.181876 
L 120.489796 63.181893 
L 118.212245 63.194245 
L 115.934694 63.225664 
L 113.657143 63.309048 
L 111.379592 63.463702 
L 109.102041 63.781366 
L 106.82449 64.201083 
L 104.546939 64.88624 
L 102.269388 65.706928 
L 99.991837 66.513505 
L 97.714286 67.240592 
L 95.436735 67.68 
L 93.159184 67.046301 
L 90.881633 65.988451 
L 88.604082 62.982337 
L 86.326531 58.532674 
L 84.04898 52.823908 
L 81.771429 45.947727 
L 79.493878 38.53352 
L 77.216327 31.539811 
L 74.938776 57.201988 
L 72.661224 21.817458 
L 70.383673 20.248235 
L 68.106122 21.503205 
L 65.828571 24.473917 
L 63.55102 29.484261 
L 61.273469 35.054335 
L 58.995918 40.470968 
L 56.718367 46.440307 
L 54.440816 51.248258 
L 52.163265 55.470688 
L 49.885714 58.326656 
L 47.608163 60.504619 
L 45.330612 62.01601 
L 43.053061 62.737979 
L 40.77551 63.20787 
L 38.497959 63.272977 
L 36.220408 63.286476 
L 33.942857 63.24244 
L 31.665306 63.202553 
L 29.387755 63.181876 
L 27.110204 63.181876 
L 24.832653 63.181876 
L 22.555102 63.181876 
L 20.277551 63.181876 
L 18 63.181876 
z
" style="fill:#fc8d62;fill-opacity:0.2;"/>
   </g>
   <g id="PolyCollection_2">
    <path clip-path="url(#p1f89168472)" d="M 18 63.181876 
L 18 63.181876 
L 20.277551 63.181876 
L 22.555102 63.181876 
L 24.832653 63.181876 
L 27.110204 63.181876 
L 29.387755 63.181876 
L 31.665306 63.143668 
L 33.942857 63.008058 
L 36.220408 62.791157 
L 38.497959 62.37169 
L 40.77551 61.782492 
L 43.053061 61.0481 
L 45.330612 60.282233 
L 47.608163 58.949276 
L 49.885714 57.475293 
L 52.163265 56.190707 
L 54.440816 54.237127 
L 56.718367 52.480484 
L 58.995918 51.030429 
L 61.273469 49.149229 
L 63.55102 47.553487 
L 65.828571 45.984328 
L 68.106122 44.504977 
L 70.383673 43.448767 
L 72.661224 43.134012 
L 74.938776 63.014312 
L 77.216327 43.028402 
L 79.493878 43.890341 
L 81.771429 44.875867 
L 84.04898 46.331818 
L 86.326531 47.683134 
L 88.604082 49.45416 
L 90.881633 51.104994 
L 93.159184 53.035536 
L 95.436735 54.336459 
L 97.714286 56.298359 
L 99.991837 57.745334 
L 102.269388 59.056506 
L 104.546939 60.236296 
L 106.82449 61.229609 
L 109.102041 61.985796 
L 111.379592 62.380953 
L 113.657143 62.842683 
L 115.934694 63.041039 
L 118.212245 63.159809 
L 120.489796 63.181867 
L 122.767347 63.181876 
L 125.044898 63.181876 
L 127.322449 63.181876 
L 129.6 63.181876 
L 129.6 63.181876 
L 129.6 63.181876 
L 127.322449 63.181876 
L 125.044898 63.181876 
L 122.767347 63.181876 
L 120.489796 63.181888 
L 118.212245 63.200512 
L 115.934694 63.221313 
L 113.657143 63.127752 
L 111.379592 62.92137 
L 109.102041 62.602882 
L 106.82449 62.022422 
L 104.546939 61.195336 
L 102.269388 60.182413 
L 99.991837 59.337368 
L 97.714286 57.723435 
L 95.436735 56.34165 
L 93.159184 55.056183 
L 90.881633 53.12147 
L 88.604082 51.798554 
L 86.326531 50.015995 
L 84.04898 48.488296 
L 81.771429 47.641696 
L 79.493878 46.754708 
L 77.216327 45.856803 
L 74.938776 63.800797 
L 72.661224 45.83271 
L 70.383673 45.992823 
L 68.106122 47.309313 
L 65.828571 48.286739 
L 63.55102 49.828328 
L 61.273469 51.088888 
L 58.995918 52.647543 
L 56.718367 54.303484 
L 54.440816 56.09643 
L 52.163265 57.72093 
L 49.885714 58.980208 
L 47.608163 60.113549 
L 45.330612 61.177033 
L 43.053061 61.892148 
L 40.77551 62.480118 
L 38.497959 62.797695 
L 36.220408 63.112058 
L 33.942857 63.177808 
L 31.665306 63.200887 
L 29.387755 63.181876 
L 27.110204 63.181876 
L 24.832653 63.181876 
L 22.555102 63.181876 
L 20.277551 63.181876 
L 18 63.181876 
z
" style="fill:#fc8d62;fill-opacity:0.2;"/>
   </g>
   <g id="matplotlib.axis_1">
    <g id="xtick_1">
     <g id="line2d_1">
      <defs>
       <path d="M 0 0 
L 0 3.5 
" id="m955eb297e6" style="stroke:#a9a9a9;stroke-width:2;"/>
      </defs>
      <g>
       <use style="fill:#a9a9a9;stroke:#a9a9a9;stroke-width:2;" x="29.387755" xlink:href="#m955eb297e6" y="63.181876"/>
      </g>
     </g>
    </g>
    <g id="xtick_2">
     <g id="line2d_2">
      <g>
       <use style="fill:#a9a9a9;stroke:#a9a9a9;stroke-width:2;" x="52.163265" xlink:href="#m955eb297e6" y="63.181876"/>
      </g>
     </g>
    </g>
    <g id="xtick_3">
     <g id="line2d_3">
      <g>
       <use style="fill:#a9a9a9;stroke:#a9a9a9;stroke-width:2;" x="74.938776" xlink:href="#m955eb297e6" y="63.181876"/>
      </g>
     </g>
    </g>
    <g id="xtick_4">
     <g id="line2d_4">
      <g>
       <use style="fill:#a9a9a9;stroke:#a9a9a9;stroke-width:2;" x="97.714286" xlink:href="#m955eb297e6" y="63.181876"/>
      </g>
     </g>
    </g>
    <g id="xtick_5">
     <g id="line2d_5">
      <g>
       <use style="fill:#a9a9a9;stroke:#a9a9a9;stroke-width:2;" x="120.489796" xlink:href="#m955eb297e6" y="63.181876"/>
      </g>
     </g>
    </g>
   </g>
   <g id="matplotlib.axis_2"/>
   <g id="line2d_6">
    <path clip-path="url(#p1f89168472)" d="M 18 63.181876 
L 20.277551 63.181876 
L 22.555102 63.181876 
L 24.832653 63.181876 
L 27.110204 63.181876 
L 29.387755 63.181876 
L 31.665306 63.186104 
L 33.942857 63.206315 
L 36.220408 63.200656 
L 38.497959 63.146228 
L 40.77551 63.034457 
L 43.053061 62.519674 
L 45.330612 61.697413 
L 47.608163 60.164578 
L 49.885714 57.874378 
L 52.163265 54.796124 
L 54.440816 50.385027 
L 56.718367 45.420345 
L 58.995918 39.553073 
L 61.273469 33.662696 
L 63.55102 27.964433 
L 65.828571 23.078996 
L 68.106122 19.913788 
L 70.383673 18.764117 
L 72.661224 19.985968 
L 74.938776 56.725469 
L 77.216327 29.794716 
L 79.493878 37.091566 
L 81.771429 44.584485 
L 84.04898 51.421332 
L 86.326531 57.343338 
L 88.604082 61.688404 
L 90.881633 64.936316 
L 93.159184 66.191899 
L 95.436735 67.021821 
L 97.714286 66.67318 
L 99.991837 66.056945 
L 102.269388 65.35612 
L 104.546939 64.581766 
L 106.82449 64.004648 
L 109.102041 63.586533 
L 111.379592 63.348841 
L 113.657143 63.232949 
L 115.934694 63.182575 
L 118.212245 63.176907 
L 120.489796 63.181878 
L 122.767347 63.181876 
L 125.044898 63.181876 
L 127.322449 63.181876 
L 129.6 63.181876 
" style="fill:none;stroke:#fc8d62;stroke-linecap:square;stroke-width:2;"/>
   </g>
   <g id="line2d_7">
    <path clip-path="url(#p1f89168472)" d="M 18 63.181876 
L 20.277551 63.181876 
L 22.555102 63.181876 
L 24.832653 63.181876 
L 27.110204 63.181876 
L 29.387755 63.181876 
L 31.665306 63.172277 
L 33.942857 63.092933 
L 36.220408 62.951607 
L 38.497959 62.584692 
L 40.77551 62.131305 
L 43.053061 61.470124 
L 45.330612 60.729633 
L 47.608163 59.531413 
L 49.885714 58.227751 
L 52.163265 56.955818 
L 54.440816 55.166778 
L 56.718367 53.391984 
L 58.995918 51.838986 
L 61.273469 50.119059 
L 63.55102 48.690907 
L 65.828571 47.135534 
L 68.106122 45.907145 
L 70.383673 44.720795 
L 72.661224 44.483361 
L 74.938776 63.407554 
L 77.216327 44.442603 
L 79.493878 45.322525 
L 81.771429 46.258782 
L 84.04898 47.410057 
L 86.326531 48.849564 
L 88.604082 50.626357 
L 90.881633 52.113232 
L 93.159184 54.04586 
L 95.436735 55.339054 
L 97.714286 57.010897 
L 99.991837 58.541351 
L 102.269388 59.619459 
L 104.546939 60.715816 
L 106.82449 61.626015 
L 109.102041 62.294339 
L 111.379592 62.651161 
L 113.657143 62.985217 
L 115.934694 63.131176 
L 118.212245 63.180161 
L 120.489796 63.181878 
L 122.767347 63.181876 
L 125.044898 63.181876 
L 127.322449 63.181876 
L 129.6 63.181876 
" style="fill:none;stroke:#fc8d62;stroke-dasharray:1.5,1.5;stroke-dashoffset:0;stroke-opacity:0.7;stroke-width:1.5;"/>
   </g>
   <g id="patch_3">
    <path d="M 74.938776 67.68 
L 74.938776 17.28 
" style="fill:none;stroke:#a9a9a9;stroke-linecap:square;stroke-linejoin:miter;stroke-width:2;"/>
   </g>
   <g id="patch_4">
    <path d="M 129.6 67.68 
L 129.6 17.28 
" style="fill:none;"/>
   </g>
   <g id="patch_5">
    <path d="M 18 63.181876 
L 129.6 63.181876 
" style="fill:none;stroke:#a9a9a9;stroke-linecap:square;stroke-linejoin:miter;stroke-width:2;"/>
   </g>
   <g id="patch_6">
    <path d="M 18 17.28 
L 129.6 17.28 
" style="fill:none;"/>
   </g>
   <g id="legend_1">
    <g id="line2d_8">
     <path d="M 87.67 26.448906 
L 101.67 26.448906 
" style="fill:none;stroke:#fc8d62;stroke-linecap:square;stroke-width:2;"/>
    </g>
    <g id="line2d_9"/>
    <g id="text_1">
     <!-- $\theta$ -->
     <g transform="translate(107.27 28.898906)scale(0.07 -0.07)">
      <defs>
       <path d="M 45.515625 34.671875 
L 14.453125 34.671875 
Q 12.359375 20.0625 14.5 13.875 
Q 17.1875 6.25 24.46875 6.25 
Q 31.78125 6.25 37.359375 13.921875 
Q 42.234375 20.65625 45.515625 34.671875 
z
M 47.015625 42.96875 
Q 48.34375 56.84375 46.625 61.71875 
Q 43.953125 69.4375 36.765625 69.4375 
Q 29.296875 69.4375 23.828125 61.8125 
Q 19.53125 55.671875 16.15625 42.96875 
z
M 38.1875 76.765625 
Q 49.90625 76.765625 54.59375 66.40625 
Q 59.28125 56.109375 55.71875 37.84375 
Q 52.203125 19.625 43.453125 9.28125 
Q 34.765625 -1.125 23.046875 -1.125 
Q 11.28125 -1.125 6.640625 9.28125 
Q 2 19.625 5.515625 37.84375 
Q 9.078125 56.109375 17.71875 66.40625 
Q 26.421875 76.765625 38.1875 76.765625 
z
" id="DejaVuSans-Oblique-952"/>
      </defs>
      <use transform="translate(0 0.234375)" xlink:href="#DejaVuSans-Oblique-952"/>
     </g>
    </g>
    <g id="line2d_10">
     <path d="M 87.67 36.723594 
L 101.67 36.723594 
" style="fill:none;stroke:#fc8d62;stroke-dasharray:1.5,1.5;stroke-dashoffset:0;stroke-opacity:0.7;stroke-width:1.5;"/>
    </g>
    <g id="line2d_11"/>
    <g id="text_2">
     <!-- No $\theta$ -->
     <g transform="translate(107.27 39.173594)scale(0.07 -0.07)">
      <defs>
       <path d="M 9.8125 72.90625 
L 23.09375 72.90625 
L 55.421875 11.921875 
L 55.421875 72.90625 
L 64.984375 72.90625 
L 64.984375 0 
L 51.703125 0 
L 19.390625 60.984375 
L 19.390625 0 
L 9.8125 0 
z
" id="DejaVuSans-78"/>
       <path d="M 30.609375 48.390625 
Q 23.390625 48.390625 19.1875 42.75 
Q 14.984375 37.109375 14.984375 27.296875 
Q 14.984375 17.484375 19.15625 11.84375 
Q 23.34375 6.203125 30.609375 6.203125 
Q 37.796875 6.203125 41.984375 11.859375 
Q 46.1875 17.53125 46.1875 27.296875 
Q 46.1875 37.015625 41.984375 42.703125 
Q 37.796875 48.390625 30.609375 48.390625 
z
M 30.609375 56 
Q 42.328125 56 49.015625 48.375 
Q 55.71875 40.765625 55.71875 27.296875 
Q 55.71875 13.875 49.015625 6.21875 
Q 42.328125 -1.421875 30.609375 -1.421875 
Q 18.84375 -1.421875 12.171875 6.21875 
Q 5.515625 13.875 5.515625 27.296875 
Q 5.515625 40.765625 12.171875 48.375 
Q 18.84375 56 30.609375 56 
z
" id="DejaVuSans-111"/>
       <path id="DejaVuSans-32"/>
      </defs>
      <use transform="translate(0 0.234375)" xlink:href="#DejaVuSans-78"/>
      <use transform="translate(74.804688 0.234375)" xlink:href="#DejaVuSans-111"/>
      <use transform="translate(135.986328 0.234375)" xlink:href="#DejaVuSans-32"/>
      <use transform="translate(167.773438 0.234375)" xlink:href="#DejaVuSans-Oblique-952"/>
     </g>
    </g>
   </g>
  </g>
  <g id="axes_2">
   <g id="patch_7">
    <path d="M 18 128.16 
L 129.6 128.16 
L 129.6 77.76 
L 18 77.76 
z
" style="fill:none;"/>
   </g>
   <g id="PolyCollection_3">
    <path clip-path="url(#p0fd54b5ff1)" d="M 18 118.412115 
L 18 118.259382 
L 20.277551 118.190991 
L 22.555102 117.970399 
L 24.832653 117.590041 
L 27.110204 117.074999 
L 29.387755 116.479242 
L 31.665306 115.840061 
L 33.942857 115.04984 
L 36.220408 113.987443 
L 38.497959 112.563647 
L 40.77551 110.722915 
L 43.053061 108.444767 
L 45.330612 105.743849 
L 47.608163 102.668703 
L 49.885714 99.29869 
L 52.163265 95.739752 
L 54.440816 92.119681 
L 56.718367 88.583316 
L 58.995918 85.287341 
L 61.273469 82.394955 
L 63.55102 80.070546 
L 65.828571 78.474706 
L 68.106122 77.76 
L 70.383673 78.067694 
L 72.661224 79.525585 
L 74.938776 82.239245 
L 77.216327 86.247996 
L 79.493878 91.201313 
L 81.771429 96.708528 
L 84.04898 102.401092 
L 86.326531 107.954233 
L 88.604082 113.096828 
L 90.881633 117.617313 
L 93.159184 121.366227 
L 95.436735 124.256444 
L 97.714286 126.261751 
L 99.991837 127.411814 
L 102.269388 127.782854 
L 104.546939 127.48533 
L 106.82449 126.653016 
L 109.102041 125.434061 
L 111.379592 123.982536 
L 113.657143 122.451479 
L 115.934694 120.987829 
L 118.212245 119.730368 
L 120.489796 118.810085 
L 122.767347 118.308248 
L 125.044898 118.130144 
L 127.322449 118.140836 
L 129.6 118.217815 
L 129.6 118.38238 
L 129.6 118.38238 
L 127.322449 118.321388 
L 125.044898 118.324646 
L 122.767347 118.51114 
L 120.489796 119.016195 
L 118.212245 119.940358 
L 115.934694 121.211746 
L 113.657143 122.701935 
L 111.379592 124.267244 
L 109.102041 125.753126 
L 106.82449 127.000275 
L 104.546939 127.851515 
L 102.269388 128.16 
L 99.991837 127.798222 
L 97.714286 126.667725 
L 95.436735 124.706753 
L 93.159184 121.89509 
L 90.881633 118.259548 
L 88.604082 113.880614 
L 86.326531 108.89842 
L 84.04898 103.514901 
L 81.771429 97.991813 
L 79.493878 92.644804 
L 77.216327 87.833708 
L 74.938776 83.941061 
L 72.661224 81.310133 
L 70.383673 79.898237 
L 68.106122 79.598248 
L 65.828571 80.282701 
L 63.55102 81.81248 
L 61.273469 84.038877 
L 58.995918 86.806744 
L 56.718367 89.958492 
L 54.440816 93.338672 
L 52.163265 96.798886 
L 49.885714 100.202716 
L 47.608163 103.430187 
L 45.330612 106.381892 
L 43.053061 108.982521 
L 40.77551 111.183888 
L 38.497959 112.967729 
L 36.220408 114.348539 
L 33.942857 115.375493 
L 31.665306 116.133104 
L 29.387755 116.739297 
L 27.110204 117.300294 
L 24.832653 117.782205 
L 22.555102 118.136297 
L 20.277551 118.342971 
L 18 118.412115 
z
" style="fill:#66c2a5;fill-opacity:0.2;"/>
   </g>
   <g id="matplotlib.axis_3">
    <g id="xtick_6">
     <g id="line2d_12">
      <g>
       <use style="fill:#a9a9a9;stroke:#a9a9a9;stroke-width:2;" x="29.387755" xlink:href="#m955eb297e6" y="122.855876"/>
      </g>
     </g>
    </g>
    <g id="xtick_7">
     <g id="line2d_13">
      <g>
       <use style="fill:#a9a9a9;stroke:#a9a9a9;stroke-width:2;" x="52.163265" xlink:href="#m955eb297e6" y="122.855876"/>
      </g>
     </g>
    </g>
    <g id="xtick_8">
     <g id="line2d_14">
      <g>
       <use style="fill:#a9a9a9;stroke:#a9a9a9;stroke-width:2;" x="74.938776" xlink:href="#m955eb297e6" y="122.855876"/>
      </g>
     </g>
    </g>
    <g id="xtick_9">
     <g id="line2d_15">
      <g>
       <use style="fill:#a9a9a9;stroke:#a9a9a9;stroke-width:2;" x="97.714286" xlink:href="#m955eb297e6" y="122.855876"/>
      </g>
     </g>
    </g>
    <g id="xtick_10">
     <g id="line2d_16">
      <g>
       <use style="fill:#a9a9a9;stroke:#a9a9a9;stroke-width:2;" x="120.489796" xlink:href="#m955eb297e6" y="122.855876"/>
      </g>
     </g>
    </g>
   </g>
   <g id="matplotlib.axis_4"/>
   <g id="line2d_17">
    <path clip-path="url(#p0fd54b5ff1)" d="M 18 118.335749 
L 20.277551 118.266981 
L 22.555102 118.053348 
L 24.832653 117.686123 
L 27.110204 117.187646 
L 29.387755 116.609269 
L 31.665306 115.986583 
L 33.942857 115.212666 
L 36.220408 114.167991 
L 38.497959 112.765688 
L 40.77551 110.953401 
L 43.053061 108.713644 
L 45.330612 106.06287 
L 47.608163 103.049445 
L 49.885714 99.750703 
L 52.163265 96.269319 
L 54.440816 92.729176 
L 56.718367 89.270904 
L 58.995918 86.047042 
L 61.273469 83.216916 
L 63.55102 80.941513 
L 65.828571 79.378703 
L 68.106122 78.679124 
L 70.383673 78.982965 
L 72.661224 80.417859 
L 74.938776 83.090153 
L 77.216327 87.040852 
L 79.493878 91.923058 
L 81.771429 97.350171 
L 84.04898 102.957997 
L 86.326531 108.426326 
L 88.604082 113.488721 
L 90.881633 117.93843 
L 93.159184 121.630658 
L 95.436735 124.481598 
L 97.714286 126.464738 
L 99.991837 127.605018 
L 102.269388 127.971427 
L 104.546939 127.668422 
L 106.82449 126.826645 
L 109.102041 125.593593 
L 111.379592 124.12489 
L 113.657143 122.576707 
L 115.934694 121.099787 
L 118.212245 119.835363 
L 120.489796 118.91314 
L 122.767347 118.409694 
L 125.044898 118.227395 
L 127.322449 118.231112 
L 129.6 118.300097 
" style="fill:none;stroke:#66c2a5;stroke-linecap:square;stroke-width:2;"/>
   </g>
   <g id="patch_8">
    <path d="M 74.938776 128.16 
L 74.938776 77.76 
" style="fill:none;stroke:#a9a9a9;stroke-linecap:square;stroke-linejoin:miter;stroke-width:2;"/>
   </g>
   <g id="patch_9">
    <path d="M 129.6 128.16 
L 129.6 77.76 
" style="fill:none;"/>
   </g>
   <g id="patch_10">
    <path d="M 18 122.855876 
L 129.6 122.855876 
" style="fill:none;stroke:#a9a9a9;stroke-linecap:square;stroke-linejoin:miter;stroke-width:2;"/>
   </g>
   <g id="patch_11">
    <path d="M 18 77.76 
L 129.6 77.76 
" style="fill:none;"/>
   </g>
  </g>
 </g>
 <defs>
  <clipPath id="p1f89168472">
   <rect height="50.4" width="111.6" x="18" y="17.28"/>
  </clipPath>
  <clipPath id="p0fd54b5ff1">
   <rect height="50.4" width="111.6" x="18" y="77.76"/>
  </clipPath>
 </defs>
</svg>
