<?xml version="1.0" encoding="utf-8" standalone="no"?>
<!DOCTYPE svg PUBLIC "-//W3C//DTD SVG 1.1//EN"
  "http://www.w3.org/Graphics/SVG/1.1/DTD/svg11.dtd">
<!-- Created with matplotlib (https://matplotlib.org/) -->
<svg height="144pt" version="1.1" viewBox="0 0 144 144" width="144pt" xmlns="http://www.w3.org/2000/svg" xmlns:xlink="http://www.w3.org/1999/xlink">
 <metadata>
  <rdf:RDF xmlns:cc="http://creativecommons.org/ns#" xmlns:dc="http://purl.org/dc/elements/1.1/" xmlns:rdf="http://www.w3.org/1999/02/22-rdf-syntax-ns#">
   <cc:Work>
    <dc:type rdf:resource="http://purl.org/dc/dcmitype/StillImage"/>
    <dc:date>2021-10-12T18:42:02.014158</dc:date>
    <dc:format>image/svg+xml</dc:format>
    <dc:creator>
     <cc:Agent>
      <dc:title>Matplotlib v3.3.2, https://matplotlib.org/</dc:title>
     </cc:Agent>
    </dc:creator>
   </cc:Work>
  </rdf:RDF>
 </metadata>
 <defs>
  <style type="text/css">*{stroke-linecap:butt;stroke-linejoin:round;}</style>
 </defs>
 <g id="figure_1">
  <g id="patch_1">
   <path d="M 0 144 
L 144 144 
L 144 0 
L 0 0 
z
" style="fill:none;"/>
  </g>
  <g id="axes_1">
   <g id="patch_2">
    <path d="M 18 67.68 
L 129.6 67.68 
L 129.6 17.28 
L 18 17.28 
z
" style="fill:none;"/>
   </g>
   <g id="PolyCollection_1">
    <path clip-path="url(#p5e4cbe551f)" d="M 18 67.679997 
L 18 67.679997 
L 20.277551 67.679997 
L 22.555102 67.679997 
L 24.832653 67.679997 
L 27.110204 67.679995 
L 29.387755 67.678998 
L 31.665306 67.628775 
L 33.942857 67.389317 
L 36.220408 66.838205 
L 38.497959 65.863299 
L 40.77551 64.421859 
L 43.053061 62.299869 
L 45.330612 59.723104 
L 47.608163 56.536261 
L 49.885714 52.753627 
L 52.163265 48.691601 
L 54.440816 44.044955 
L 56.718367 39.503093 
L 58.995918 34.810471 
L 61.273469 30.461456 
L 63.55102 26.299905 
L 65.828571 22.813795 
L 68.106122 20.088556 
L 70.383673 18.074591 
L 72.661224 17.28 
L 74.938776 19.094636 
L 77.216327 19.051374 
L 79.493878 21.369876 
L 81.771429 24.532316 
L 84.04898 28.378815 
L 86.326531 32.396073 
L 88.604082 36.626817 
L 90.881633 40.930735 
L 93.159184 45.073841 
L 95.436735 49.18226 
L 97.714286 52.88977 
L 99.991837 56.25814 
L 102.269388 59.245032 
L 104.546939 61.750625 
L 106.82449 63.732302 
L 109.102041 65.288893 
L 111.379592 66.402959 
L 113.657143 67.126501 
L 115.934694 67.512379 
L 118.212245 67.655322 
L 120.489796 67.679995 
L 122.767347 67.679997 
L 125.044898 67.679997 
L 127.322449 67.679997 
L 129.6 67.679997 
L 129.6 67.679997 
L 129.6 67.679997 
L 127.322449 67.679997 
L 125.044898 67.679997 
L 122.767347 67.679997 
L 120.489796 67.68 
L 118.212245 67.67518 
L 115.934694 67.567834 
L 113.657143 67.230952 
L 111.379592 66.59217 
L 109.102041 65.522831 
L 106.82449 64.067569 
L 104.546939 62.143589 
L 102.269388 59.743794 
L 99.991837 56.891033 
L 97.714286 53.596796 
L 95.436735 49.976399 
L 93.159184 46.162255 
L 90.881633 42.011659 
L 88.604082 37.788981 
L 86.326531 33.675449 
L 84.04898 29.544346 
L 81.771429 25.915906 
L 79.493878 22.834672 
L 77.216327 20.380952 
L 74.938776 20.938896 
L 72.661224 18.677441 
L 70.383673 19.607603 
L 68.106122 21.530668 
L 65.828571 24.223833 
L 63.55102 27.74533 
L 61.273469 31.603137 
L 58.995918 36.120221 
L 56.718367 40.673319 
L 54.440816 45.243444 
L 52.163265 49.476797 
L 49.885714 53.47316 
L 47.608163 57.120471 
L 45.330612 60.210981 
L 43.053061 62.760403 
L 40.77551 64.689507 
L 38.497959 66.07218 
L 36.220408 66.975695 
L 33.942857 67.461775 
L 31.665306 67.649285 
L 29.387755 67.679868 
L 27.110204 67.679997 
L 24.832653 67.679997 
L 22.555102 67.679997 
L 20.277551 67.679997 
L 18 67.679997 
z
" style="fill:#fc8d62;fill-opacity:0.2;"/>
   </g>
   <g id="PolyCollection_2">
    <path clip-path="url(#p5e4cbe551f)" d="M 18 67.679997 
L 18 67.679997 
L 20.277551 67.679997 
L 22.555102 67.679997 
L 24.832653 67.679997 
L 27.110204 67.679995 
L 29.387755 67.678627 
L 31.665306 67.628143 
L 33.942857 67.386946 
L 36.220408 66.842185 
L 38.497959 65.881863 
L 40.77551 64.437389 
L 43.053061 62.409012 
L 45.330612 59.89502 
L 47.608163 56.781735 
L 49.885714 53.113482 
L 52.163265 48.948187 
L 54.440816 44.596405 
L 56.718367 39.898761 
L 58.995918 35.03541 
L 61.273469 30.347643 
L 63.55102 25.708689 
L 65.828571 21.738815 
L 68.106122 18.404989 
L 70.383673 15.728627 
L 72.661224 14.099356 
L 74.938776 14.849877 
L 77.216327 14.504745 
L 79.493878 16.528403 
L 81.771429 19.532124 
L 84.04898 23.277615 
L 86.326531 27.345789 
L 88.604082 32.163739 
L 90.881633 36.827313 
L 93.159184 41.694105 
L 95.436735 46.25357 
L 97.714286 50.547982 
L 99.991837 54.548539 
L 102.269388 57.999736 
L 104.546939 60.972089 
L 106.82449 63.220658 
L 109.102041 65.02183 
L 111.379592 66.300471 
L 113.657143 67.088765 
L 115.934694 67.506154 
L 118.212245 67.655114 
L 120.489796 67.679995 
L 122.767347 67.679997 
L 125.044898 67.679997 
L 127.322449 67.679997 
L 129.6 67.679997 
L 129.6 67.679997 
L 129.6 67.679997 
L 127.322449 67.679997 
L 125.044898 67.679997 
L 122.767347 67.679997 
L 120.489796 67.680001 
L 118.212245 67.672008 
L 115.934694 67.556345 
L 113.657143 67.203599 
L 111.379592 66.49945 
L 109.102041 65.328364 
L 106.82449 63.683473 
L 104.546939 61.388577 
L 102.269388 58.70267 
L 99.991837 55.371632 
L 97.714286 51.576159 
L 95.436735 47.420434 
L 93.159184 42.792143 
L 90.881633 38.058211 
L 88.604082 33.493146 
L 86.326531 28.976103 
L 84.04898 24.963264 
L 81.771429 21.206394 
L 79.493878 18.235345 
L 77.216327 16.287022 
L 74.938776 17.185944 
L 72.661224 15.978794 
L 70.383673 17.505678 
L 68.106122 19.929465 
L 65.828571 23.355535 
L 63.55102 27.381745 
L 61.273469 31.689603 
L 58.995918 36.391066 
L 56.718367 40.999431 
L 54.440816 45.661423 
L 52.163265 50.039906 
L 49.885714 53.997528 
L 47.608163 57.449012 
L 45.330612 60.45131 
L 43.053061 62.876737 
L 40.77551 64.779767 
L 38.497959 66.156334 
L 36.220408 66.995066 
L 33.942857 67.461032 
L 31.665306 67.650698 
L 29.387755 67.679831 
L 27.110204 67.679997 
L 24.832653 67.679997 
L 22.555102 67.679997 
L 20.277551 67.679997 
L 18 67.679997 
z
" style="fill:#fc8d62;fill-opacity:0.2;"/>
   </g>
   <g id="matplotlib.axis_1">
    <g id="xtick_1">
     <g id="line2d_1">
      <defs>
       <path d="M 0 0 
L 0 3.5 
" id="m3f7a91622e" style="stroke:#a9a9a9;stroke-width:2;"/>
      </defs>
      <g>
       <use style="fill:#a9a9a9;stroke:#a9a9a9;stroke-width:2;" x="29.387755" xlink:href="#m3f7a91622e" y="67.679997"/>
      </g>
     </g>
    </g>
    <g id="xtick_2">
     <g id="line2d_2">
      <g>
       <use style="fill:#a9a9a9;stroke:#a9a9a9;stroke-width:2;" x="52.163265" xlink:href="#m3f7a91622e" y="67.679997"/>
      </g>
     </g>
    </g>
    <g id="xtick_3">
     <g id="line2d_3">
      <g>
       <use style="fill:#a9a9a9;stroke:#a9a9a9;stroke-width:2;" x="74.938776" xlink:href="#m3f7a91622e" y="67.679997"/>
      </g>
     </g>
    </g>
    <g id="xtick_4">
     <g id="line2d_4">
      <g>
       <use style="fill:#a9a9a9;stroke:#a9a9a9;stroke-width:2;" x="97.714286" xlink:href="#m3f7a91622e" y="67.679997"/>
      </g>
     </g>
    </g>
    <g id="xtick_5">
     <g id="line2d_5">
      <g>
       <use style="fill:#a9a9a9;stroke:#a9a9a9;stroke-width:2;" x="120.489796" xlink:href="#m3f7a91622e" y="67.679997"/>
      </g>
     </g>
    </g>
   </g>
   <g id="matplotlib.axis_2"/>
   <g id="line2d_6">
    <path clip-path="url(#p5e4cbe551f)" d="M 18 67.679997 
L 20.277551 67.679997 
L 22.555102 67.679997 
L 24.832653 67.679997 
L 27.110204 67.679996 
L 29.387755 67.679433 
L 31.665306 67.63903 
L 33.942857 67.425546 
L 36.220408 66.90695 
L 38.497959 65.96774 
L 40.77551 64.555683 
L 43.053061 62.530136 
L 45.330612 59.967042 
L 47.608163 56.828366 
L 49.885714 53.113393 
L 52.163265 49.084199 
L 54.440816 44.644199 
L 56.718367 40.088206 
L 58.995918 35.465346 
L 61.273469 31.032296 
L 63.55102 27.022617 
L 65.828571 23.518814 
L 68.106122 20.809612 
L 70.383673 18.841097 
L 72.661224 17.978721 
L 74.938776 20.016766 
L 77.216327 19.716163 
L 79.493878 22.102274 
L 81.771429 25.224111 
L 84.04898 28.96158 
L 86.326531 33.035761 
L 88.604082 37.207899 
L 90.881633 41.471197 
L 93.159184 45.618048 
L 95.436735 49.579329 
L 97.714286 53.243283 
L 99.991837 56.574586 
L 102.269388 59.494413 
L 104.546939 61.947107 
L 106.82449 63.899936 
L 109.102041 65.405862 
L 111.379592 66.497564 
L 113.657143 67.178726 
L 115.934694 67.540106 
L 118.212245 67.665251 
L 120.489796 67.679998 
L 122.767347 67.679997 
L 125.044898 67.679997 
L 127.322449 67.679997 
L 129.6 67.679997 
" style="fill:none;stroke:#fc8d62;stroke-linecap:square;stroke-width:2;"/>
   </g>
   <g id="line2d_7">
    <path clip-path="url(#p5e4cbe551f)" d="M 18 67.679997 
L 20.277551 67.679997 
L 22.555102 67.679997 
L 24.832653 67.679997 
L 27.110204 67.679996 
L 29.387755 67.679229 
L 31.665306 67.63942 
L 33.942857 67.423989 
L 36.220408 66.918625 
L 38.497959 66.019099 
L 40.77551 64.608578 
L 43.053061 62.642874 
L 45.330612 60.173165 
L 47.608163 57.115374 
L 49.885714 53.555505 
L 52.163265 49.494047 
L 54.440816 45.128914 
L 56.718367 40.449096 
L 58.995918 35.713238 
L 61.273469 31.018623 
L 63.55102 26.545217 
L 65.828571 22.547175 
L 68.106122 19.167227 
L 70.383673 16.617153 
L 72.661224 15.039075 
L 74.938776 16.01791 
L 77.216327 15.395883 
L 79.493878 17.381874 
L 81.771429 20.369259 
L 84.04898 24.12044 
L 86.326531 28.160946 
L 88.604082 32.828443 
L 90.881633 37.442762 
L 93.159184 42.243124 
L 95.436735 46.837002 
L 97.714286 51.06207 
L 99.991837 54.960086 
L 102.269388 58.351203 
L 104.546939 61.180333 
L 106.82449 63.452065 
L 109.102041 65.175097 
L 111.379592 66.39996 
L 113.657143 67.146182 
L 115.934694 67.531249 
L 118.212245 67.663561 
L 120.489796 67.679998 
L 122.767347 67.679997 
L 125.044898 67.679997 
L 127.322449 67.679997 
L 129.6 67.679997 
" style="fill:none;stroke:#fc8d62;stroke-dasharray:1.5,1.5;stroke-dashoffset:0;stroke-opacity:0.7;stroke-width:1.5;"/>
   </g>
   <g id="patch_3">
    <path d="M 74.938776 67.68 
L 74.938776 17.28 
" style="fill:none;stroke:#a9a9a9;stroke-linecap:square;stroke-linejoin:miter;stroke-width:2;"/>
   </g>
   <g id="patch_4">
    <path d="M 129.6 67.68 
L 129.6 17.28 
" style="fill:none;"/>
   </g>
   <g id="patch_5">
    <path d="M 18 67.679997 
L 129.6 67.679997 
" style="fill:none;stroke:#a9a9a9;stroke-linecap:square;stroke-linejoin:miter;stroke-width:2;"/>
   </g>
   <g id="patch_6">
    <path d="M 18 17.28 
L 129.6 17.28 
" style="fill:none;"/>
   </g>
   <g id="legend_1">
    <g id="line2d_8">
     <path d="M 55.985 47.199531 
L 69.985 47.199531 
" style="fill:none;stroke:#fc8d62;stroke-linecap:square;stroke-width:2;"/>
    </g>
    <g id="line2d_9"/>
    <g id="text_1">
     <!-- $\theta$ -->
     <g transform="translate(75.585 49.649531)scale(0.07 -0.07)">
      <defs>
       <path d="M 45.515625 34.671875 
L 14.453125 34.671875 
Q 12.359375 20.0625 14.5 13.875 
Q 17.1875 6.25 24.46875 6.25 
Q 31.78125 6.25 37.359375 13.921875 
Q 42.234375 20.65625 45.515625 34.671875 
z
M 47.015625 42.96875 
Q 48.34375 56.84375 46.625 61.71875 
Q 43.953125 69.4375 36.765625 69.4375 
Q 29.296875 69.4375 23.828125 61.8125 
Q 19.53125 55.671875 16.15625 42.96875 
z
M 38.1875 76.765625 
Q 49.90625 76.765625 54.59375 66.40625 
Q 59.28125 56.109375 55.71875 37.84375 
Q 52.203125 19.625 43.453125 9.28125 
Q 34.765625 -1.125 23.046875 -1.125 
Q 11.28125 -1.125 6.640625 9.28125 
Q 2 19.625 5.515625 37.84375 
Q 9.078125 56.109375 17.71875 66.40625 
Q 26.421875 76.765625 38.1875 76.765625 
z
" id="DejaVuSans-Oblique-952"/>
      </defs>
      <use transform="translate(0 0.234375)" xlink:href="#DejaVuSans-Oblique-952"/>
     </g>
    </g>
    <g id="line2d_10">
     <path d="M 55.985 57.474219 
L 69.985 57.474219 
" style="fill:none;stroke:#fc8d62;stroke-dasharray:1.5,1.5;stroke-dashoffset:0;stroke-opacity:0.7;stroke-width:1.5;"/>
    </g>
    <g id="line2d_11"/>
    <g id="text_2">
     <!-- No $\theta$ -->
     <g transform="translate(75.585 59.924219)scale(0.07 -0.07)">
      <defs>
       <path d="M 9.8125 72.90625 
L 23.09375 72.90625 
L 55.421875 11.921875 
L 55.421875 72.90625 
L 64.984375 72.90625 
L 64.984375 0 
L 51.703125 0 
L 19.390625 60.984375 
L 19.390625 0 
L 9.8125 0 
z
" id="DejaVuSans-78"/>
       <path d="M 30.609375 48.390625 
Q 23.390625 48.390625 19.1875 42.75 
Q 14.984375 37.109375 14.984375 27.296875 
Q 14.984375 17.484375 19.15625 11.84375 
Q 23.34375 6.203125 30.609375 6.203125 
Q 37.796875 6.203125 41.984375 11.859375 
Q 46.1875 17.53125 46.1875 27.296875 
Q 46.1875 37.015625 41.984375 42.703125 
Q 37.796875 48.390625 30.609375 48.390625 
z
M 30.609375 56 
Q 42.328125 56 49.015625 48.375 
Q 55.71875 40.765625 55.71875 27.296875 
Q 55.71875 13.875 49.015625 6.21875 
Q 42.328125 -1.421875 30.609375 -1.421875 
Q 18.84375 -1.421875 12.171875 6.21875 
Q 5.515625 13.875 5.515625 27.296875 
Q 5.515625 40.765625 12.171875 48.375 
Q 18.84375 56 30.609375 56 
z
" id="DejaVuSans-111"/>
       <path id="DejaVuSans-32"/>
      </defs>
      <use transform="translate(0 0.234375)" xlink:href="#DejaVuSans-78"/>
      <use transform="translate(74.804688 0.234375)" xlink:href="#DejaVuSans-111"/>
      <use transform="translate(135.986328 0.234375)" xlink:href="#DejaVuSans-32"/>
      <use transform="translate(167.773438 0.234375)" xlink:href="#DejaVuSans-Oblique-952"/>
     </g>
    </g>
   </g>
  </g>
  <g id="axes_2">
   <g id="patch_7">
    <path d="M 18 128.16 
L 129.6 128.16 
L 129.6 77.76 
L 18 77.76 
z
" style="fill:none;"/>
   </g>
   <g id="PolyCollection_3">
    <path clip-path="url(#pef4a244fe2)" d="M 18 120.532972 
L 18 120.453671 
L 20.277551 120.66974 
L 22.555102 120.734577 
L 24.832653 120.655553 
L 27.110204 120.480053 
L 29.387755 120.284499 
L 31.665306 120.116543 
L 33.942857 119.835673 
L 36.220408 119.280313 
L 38.497959 118.323509 
L 40.77551 116.874266 
L 43.053061 114.881275 
L 45.330612 112.336067 
L 47.608163 109.270157 
L 49.885714 105.751563 
L 52.163265 101.880881 
L 54.440816 97.787785 
L 56.718367 93.626827 
L 58.995918 89.572758 
L 61.273469 85.81517 
L 63.55102 82.553042 
L 65.828571 79.989311 
L 68.106122 78.325995 
L 70.383673 77.76 
L 72.661224 78.479804 
L 74.938776 80.653704 
L 77.216327 84.368987 
L 79.493878 89.230097 
L 81.771429 94.791973 
L 84.04898 100.638921 
L 86.326531 106.407919 
L 88.604082 111.79778 
L 90.881633 116.574009 
L 93.159184 120.570135 
L 95.436735 123.687579 
L 97.714286 125.894135 
L 99.991837 127.218374 
L 102.269388 127.737294 
L 104.546939 127.563312 
L 106.82449 126.833583 
L 109.102041 125.70142 
L 111.379592 124.328367 
L 113.657143 122.877292 
L 115.934694 121.50702 
L 118.212245 120.370616 
L 120.489796 119.619021 
L 122.767347 119.35002 
L 125.044898 119.447766 
L 127.322449 119.75168 
L 129.6 120.123064 
L 129.6 120.228942 
L 129.6 120.228942 
L 127.322449 119.883245 
L 125.044898 119.59905 
L 122.767347 119.512375 
L 120.489796 119.785354 
L 118.212245 120.544654 
L 115.934694 121.70696 
L 113.657143 123.121789 
L 111.379592 124.625511 
L 109.102041 126.048297 
L 106.82449 127.219699 
L 104.546939 127.974441 
L 102.269388 128.16 
L 99.991837 127.645737 
L 97.714286 126.332892 
L 95.436735 124.162738 
L 93.159184 121.121359 
L 90.881633 117.243154 
L 88.604082 112.618498 
L 86.326531 107.401689 
L 84.04898 101.815139 
L 81.771429 96.148593 
L 79.493878 90.754262 
L 77.216327 86.037615 
L 74.938776 82.434307 
L 72.661224 80.332305 
L 70.383673 79.641107 
L 68.106122 80.191907 
L 65.828571 81.797686 
L 63.55102 84.264841 
L 61.273469 87.396411 
L 58.995918 90.996101 
L 56.718367 94.872949 
L 54.440816 98.846264 
L 52.163265 102.750726 
L 49.885714 106.441071 
L 47.608163 109.796333 
L 45.330612 112.72344 
L 43.053061 115.160652 
L 40.77551 117.079586 
L 38.497959 118.486363 
L 36.220408 119.421717 
L 33.942857 119.965066 
L 31.665306 120.236632 
L 29.387755 120.394151 
L 27.110204 120.573986 
L 24.832653 120.73046 
L 22.555102 120.794314 
L 20.277551 120.730141 
L 18 120.532972 
z
" style="fill:#66c2a5;fill-opacity:0.2;"/>
   </g>
   <g id="matplotlib.axis_3">
    <g id="xtick_6">
     <g id="line2d_12">
      <g>
       <use style="fill:#a9a9a9;stroke:#a9a9a9;stroke-width:2;" x="29.387755" xlink:href="#m3f7a91622e" y="122.196935"/>
      </g>
     </g>
    </g>
    <g id="xtick_7">
     <g id="line2d_13">
      <g>
       <use style="fill:#a9a9a9;stroke:#a9a9a9;stroke-width:2;" x="52.163265" xlink:href="#m3f7a91622e" y="122.196935"/>
      </g>
     </g>
    </g>
    <g id="xtick_8">
     <g id="line2d_14">
      <g>
       <use style="fill:#a9a9a9;stroke:#a9a9a9;stroke-width:2;" x="74.938776" xlink:href="#m3f7a91622e" y="122.196935"/>
      </g>
     </g>
    </g>
    <g id="xtick_9">
     <g id="line2d_15">
      <g>
       <use style="fill:#a9a9a9;stroke:#a9a9a9;stroke-width:2;" x="97.714286" xlink:href="#m3f7a91622e" y="122.196935"/>
      </g>
     </g>
    </g>
    <g id="xtick_10">
     <g id="line2d_16">
      <g>
       <use style="fill:#a9a9a9;stroke:#a9a9a9;stroke-width:2;" x="120.489796" xlink:href="#m3f7a91622e" y="122.196935"/>
      </g>
     </g>
    </g>
   </g>
   <g id="matplotlib.axis_4"/>
   <g id="line2d_17">
    <path clip-path="url(#pef4a244fe2)" d="M 18 120.493321 
L 20.277551 120.69994 
L 22.555102 120.764446 
L 24.832653 120.693006 
L 27.110204 120.527019 
L 29.387755 120.339325 
L 31.665306 120.176588 
L 33.942857 119.900369 
L 36.220408 119.351015 
L 38.497959 118.404936 
L 40.77551 116.976926 
L 43.053061 115.020963 
L 45.330612 112.529754 
L 47.608163 109.533245 
L 49.885714 106.096317 
L 52.163265 102.315804 
L 54.440816 98.317024 
L 56.718367 94.249888 
L 58.995918 90.28443 
L 61.273469 86.605791 
L 63.55102 83.408941 
L 65.828571 80.893498 
L 68.106122 79.258951 
L 70.383673 78.700553 
L 72.661224 79.406054 
L 74.938776 81.544005 
L 77.216327 85.203301 
L 79.493878 89.99218 
L 81.771429 95.470283 
L 84.04898 101.22703 
L 86.326531 106.904804 
L 88.604082 112.208139 
L 90.881633 116.908582 
L 93.159184 120.845747 
L 95.436735 123.925159 
L 97.714286 126.113513 
L 99.991837 127.432055 
L 102.269388 127.948647 
L 104.546939 127.768877 
L 106.82449 127.026641 
L 109.102041 125.874858 
L 111.379592 124.476939 
L 113.657143 122.99954 
L 115.934694 121.60699 
L 118.212245 120.457635 
L 120.489796 119.702188 
L 122.767347 119.431198 
L 125.044898 119.523408 
L 127.322449 119.817462 
L 129.6 120.176003 
" style="fill:none;stroke:#66c2a5;stroke-linecap:square;stroke-width:2;"/>
   </g>
   <g id="patch_8">
    <path d="M 74.938776 128.16 
L 74.938776 77.76 
" style="fill:none;stroke:#a9a9a9;stroke-linecap:square;stroke-linejoin:miter;stroke-width:2;"/>
   </g>
   <g id="patch_9">
    <path d="M 129.6 128.16 
L 129.6 77.76 
" style="fill:none;"/>
   </g>
   <g id="patch_10">
    <path d="M 18 122.196935 
L 129.6 122.196935 
" style="fill:none;stroke:#a9a9a9;stroke-linecap:square;stroke-linejoin:miter;stroke-width:2;"/>
   </g>
   <g id="patch_11">
    <path d="M 18 77.76 
L 129.6 77.76 
" style="fill:none;"/>
   </g>
  </g>
 </g>
 <defs>
  <clipPath id="p5e4cbe551f">
   <rect height="50.4" width="111.6" x="18" y="17.28"/>
  </clipPath>
  <clipPath id="pef4a244fe2">
   <rect height="50.4" width="111.6" x="18" y="77.76"/>
  </clipPath>
 </defs>
</svg>
