<?xml version="1.0" encoding="utf-8" standalone="no"?>
<!DOCTYPE svg PUBLIC "-//W3C//DTD SVG 1.1//EN"
  "http://www.w3.org/Graphics/SVG/1.1/DTD/svg11.dtd">
<!-- Created with matplotlib (https://matplotlib.org/) -->
<svg height="144pt" version="1.1" viewBox="0 0 144 144" width="144pt" xmlns="http://www.w3.org/2000/svg" xmlns:xlink="http://www.w3.org/1999/xlink">
 <metadata>
  <rdf:RDF xmlns:cc="http://creativecommons.org/ns#" xmlns:dc="http://purl.org/dc/elements/1.1/" xmlns:rdf="http://www.w3.org/1999/02/22-rdf-syntax-ns#">
   <cc:Work>
    <dc:type rdf:resource="http://purl.org/dc/dcmitype/StillImage"/>
    <dc:date>2021-10-11T19:14:19.650466</dc:date>
    <dc:format>image/svg+xml</dc:format>
    <dc:creator>
     <cc:Agent>
      <dc:title>Matplotlib v3.3.2, https://matplotlib.org/</dc:title>
     </cc:Agent>
    </dc:creator>
   </cc:Work>
  </rdf:RDF>
 </metadata>
 <defs>
  <style type="text/css">*{stroke-linecap:butt;stroke-linejoin:round;}</style>
 </defs>
 <g id="figure_1">
  <g id="patch_1">
   <path d="M 0 144 
L 144 144 
L 144 0 
L 0 0 
z
" style="fill:none;"/>
  </g>
  <g id="axes_1">
   <g id="patch_2">
    <path d="M 18 67.68 
L 129.6 67.68 
L 129.6 17.28 
L 18 17.28 
z
" style="fill:none;"/>
   </g>
   <g id="PolyCollection_1">
    <path clip-path="url(#p840bc0ccba)" d="M 18 59.519168 
L 18 59.519168 
L 20.277551 59.519168 
L 22.555102 59.519168 
L 24.832653 59.519168 
L 27.110204 59.519168 
L 29.387755 59.519145 
L 31.665306 59.369381 
L 33.942857 59.186509 
L 36.220408 58.698607 
L 38.497959 58.157298 
L 40.77551 57.154989 
L 43.053061 55.266299 
L 45.330612 53.907093 
L 47.608163 50.501973 
L 49.885714 47.117862 
L 52.163265 42.923811 
L 54.440816 37.58873 
L 56.718367 31.008841 
L 58.995918 27.864552 
L 61.273469 23.271506 
L 63.55102 20.385757 
L 65.828571 19.605666 
L 68.106122 17.28 
L 70.383673 18.197582 
L 72.661224 23.509078 
L 74.938776 47.753386 
L 77.216327 32.413854 
L 79.493878 39.255652 
L 81.771429 44.686109 
L 84.04898 48.688432 
L 86.326531 54.299091 
L 88.604082 56.245446 
L 90.881633 58.613204 
L 93.159184 59.908812 
L 95.436735 60.493569 
L 97.714286 59.79688 
L 99.991837 58.880179 
L 102.269388 58.631722 
L 104.546939 58.674114 
L 106.82449 58.349206 
L 109.102041 58.826014 
L 111.379592 58.743798 
L 113.657143 58.99114 
L 115.934694 59.181498 
L 118.212245 59.4659 
L 120.489796 59.5189 
L 122.767347 59.519168 
L 125.044898 59.519168 
L 127.322449 59.519168 
L 129.6 59.519168 
L 129.6 59.519168 
L 129.6 59.519168 
L 127.322449 59.519168 
L 125.044898 59.519168 
L 122.767347 59.519168 
L 120.489796 59.51957 
L 118.212245 59.624338 
L 115.934694 59.778636 
L 113.657143 60.043203 
L 111.379592 60.257399 
L 109.102041 60.62015 
L 106.82449 61.715687 
L 104.546939 61.580379 
L 102.269388 63.352525 
L 99.991837 64.274109 
L 97.714286 65.419196 
L 95.436735 66.663546 
L 93.159184 67.68 
L 90.881633 66.299933 
L 88.604082 65.260628 
L 86.326531 62.274746 
L 84.04898 57.940158 
L 81.771429 54.045101 
L 79.493878 49.774044 
L 77.216327 42.008328 
L 74.938776 50.433339 
L 72.661224 32.427248 
L 70.383673 29.671652 
L 68.106122 27.765594 
L 65.828571 29.025718 
L 63.55102 28.576814 
L 61.273469 33.068057 
L 58.995918 35.824827 
L 56.718367 39.895031 
L 54.440816 44.212019 
L 52.163265 47.722834 
L 49.885714 52.446373 
L 47.608163 55.333407 
L 45.330612 57.242159 
L 43.053061 58.769766 
L 40.77551 59.271518 
L 38.497959 59.635205 
L 36.220408 59.793297 
L 33.942857 59.744734 
L 31.665306 59.590885 
L 29.387755 59.519185 
L 27.110204 59.519168 
L 24.832653 59.519168 
L 22.555102 59.519168 
L 20.277551 59.519168 
L 18 59.519168 
z
" style="fill:#fc8d62;fill-opacity:0.2;"/>
   </g>
   <g id="PolyCollection_2">
    <path clip-path="url(#p840bc0ccba)" d="M 18 59.519168 
L 18 59.519168 
L 20.277551 59.519168 
L 22.555102 59.519168 
L 24.832653 59.519168 
L 27.110204 59.519168 
L 29.387755 59.51915 
L 31.665306 59.412364 
L 33.942857 59.072786 
L 36.220408 58.846302 
L 38.497959 58.114862 
L 40.77551 57.006802 
L 43.053061 56.612223 
L 45.330612 54.532266 
L 47.608163 52.976415 
L 49.885714 51.138944 
L 52.163265 50.275181 
L 54.440816 47.992568 
L 56.718367 44.123001 
L 58.995918 43.839001 
L 61.273469 39.858594 
L 63.55102 38.997661 
L 65.828571 37.589056 
L 68.106122 36.566568 
L 70.383673 34.423862 
L 72.661224 35.100533 
L 74.938776 51.85065 
L 77.216327 35.249552 
L 79.493878 37.326056 
L 81.771429 36.909487 
L 84.04898 40.055816 
L 86.326531 40.876736 
L 88.604082 44.023888 
L 90.881633 46.038972 
L 93.159184 46.406577 
L 95.436735 49.538362 
L 97.714286 50.339036 
L 99.991837 53.082955 
L 102.269388 54.572643 
L 104.546939 56.135837 
L 106.82449 56.675633 
L 109.102041 57.547474 
L 111.379592 58.434745 
L 113.657143 58.715095 
L 115.934694 59.289084 
L 118.212245 59.414405 
L 120.489796 59.518964 
L 122.767347 59.519168 
L 125.044898 59.519168 
L 127.322449 59.519168 
L 129.6 59.519168 
L 129.6 59.519168 
L 129.6 59.519168 
L 127.322449 59.519168 
L 125.044898 59.519168 
L 122.767347 59.519168 
L 120.489796 59.519519 
L 118.212245 59.62191 
L 115.934694 59.833295 
L 113.657143 59.77595 
L 111.379592 59.990539 
L 109.102041 60.183569 
L 106.82449 59.165824 
L 104.546939 59.400512 
L 102.269388 59.346134 
L 99.991837 58.263706 
L 97.714286 56.322777 
L 95.436735 55.390144 
L 93.159184 55.318697 
L 90.881633 52.059008 
L 88.604082 52.314117 
L 86.326531 50.631041 
L 84.04898 48.771047 
L 81.771429 47.291844 
L 79.493878 47.266746 
L 77.216327 45.067617 
L 74.938776 54.78617 
L 72.661224 44.501072 
L 70.383673 43.980114 
L 68.106122 46.399327 
L 65.828571 47.290991 
L 63.55102 48.216783 
L 61.273469 49.490814 
L 58.995918 50.410181 
L 56.718367 53.488538 
L 54.440816 53.570814 
L 52.163265 56.070319 
L 49.885714 56.540638 
L 47.608163 57.313288 
L 45.330612 58.346569 
L 43.053061 59.019899 
L 40.77551 59.616943 
L 38.497959 59.581014 
L 36.220408 59.88475 
L 33.942857 59.699826 
L 31.665306 59.610619 
L 29.387755 59.519179 
L 27.110204 59.519168 
L 24.832653 59.519168 
L 22.555102 59.519168 
L 20.277551 59.519168 
L 18 59.519168 
z
" style="fill:#fc8d62;fill-opacity:0.2;"/>
   </g>
   <g id="matplotlib.axis_1">
    <g id="xtick_1">
     <g id="line2d_1">
      <defs>
       <path d="M 0 0 
L 0 3.5 
" id="m032e1828fc" style="stroke:#a9a9a9;stroke-width:2;"/>
      </defs>
      <g>
       <use style="fill:#a9a9a9;stroke:#a9a9a9;stroke-width:2;" x="29.387755" xlink:href="#m032e1828fc" y="59.519168"/>
      </g>
     </g>
    </g>
    <g id="xtick_2">
     <g id="line2d_2">
      <g>
       <use style="fill:#a9a9a9;stroke:#a9a9a9;stroke-width:2;" x="52.163265" xlink:href="#m032e1828fc" y="59.519168"/>
      </g>
     </g>
    </g>
    <g id="xtick_3">
     <g id="line2d_3">
      <g>
       <use style="fill:#a9a9a9;stroke:#a9a9a9;stroke-width:2;" x="74.938776" xlink:href="#m032e1828fc" y="59.519168"/>
      </g>
     </g>
    </g>
    <g id="xtick_4">
     <g id="line2d_4">
      <g>
       <use style="fill:#a9a9a9;stroke:#a9a9a9;stroke-width:2;" x="97.714286" xlink:href="#m032e1828fc" y="59.519168"/>
      </g>
     </g>
    </g>
    <g id="xtick_5">
     <g id="line2d_5">
      <g>
       <use style="fill:#a9a9a9;stroke:#a9a9a9;stroke-width:2;" x="120.489796" xlink:href="#m032e1828fc" y="59.519168"/>
      </g>
     </g>
    </g>
   </g>
   <g id="matplotlib.axis_2"/>
   <g id="line2d_6">
    <path clip-path="url(#p840bc0ccba)" d="M 18 59.519168 
L 20.277551 59.519168 
L 22.555102 59.519168 
L 24.832653 59.519168 
L 27.110204 59.519168 
L 29.387755 59.519165 
L 31.665306 59.480133 
L 33.942857 59.465622 
L 36.220408 59.245952 
L 38.497959 58.896252 
L 40.77551 58.213254 
L 43.053061 57.018032 
L 45.330612 55.574626 
L 47.608163 52.91769 
L 49.885714 49.782117 
L 52.163265 45.323323 
L 54.440816 40.900374 
L 56.718367 35.451936 
L 58.995918 31.84469 
L 61.273469 28.169782 
L 63.55102 24.481285 
L 65.828571 24.315692 
L 68.106122 22.522797 
L 70.383673 23.934617 
L 72.661224 27.968163 
L 74.938776 49.093362 
L 77.216327 37.211091 
L 79.493878 44.514848 
L 81.771429 49.365605 
L 84.04898 53.314295 
L 86.326531 58.286919 
L 88.604082 60.753037 
L 90.881633 62.456569 
L 93.159184 63.794406 
L 95.436735 63.578557 
L 97.714286 62.608038 
L 99.991837 61.577144 
L 102.269388 60.992124 
L 104.546939 60.127246 
L 106.82449 60.032446 
L 109.102041 59.723082 
L 111.379592 59.500599 
L 113.657143 59.517171 
L 115.934694 59.480067 
L 118.212245 59.545119 
L 120.489796 59.519235 
L 122.767347 59.519168 
L 125.044898 59.519168 
L 127.322449 59.519168 
L 129.6 59.519168 
" style="fill:none;stroke:#fc8d62;stroke-linecap:square;stroke-width:2;"/>
   </g>
   <g id="line2d_7">
    <path clip-path="url(#p840bc0ccba)" d="M 18 59.519168 
L 20.277551 59.519168 
L 22.555102 59.519168 
L 24.832653 59.519168 
L 27.110204 59.519168 
L 29.387755 59.519165 
L 31.665306 59.511492 
L 33.942857 59.386306 
L 36.220408 59.365526 
L 38.497959 58.847938 
L 40.77551 58.311873 
L 43.053061 57.816061 
L 45.330612 56.439417 
L 47.608163 55.144852 
L 49.885714 53.839791 
L 52.163265 53.17275 
L 54.440816 50.781691 
L 56.718367 48.80577 
L 58.995918 47.124591 
L 61.273469 44.674704 
L 63.55102 43.607222 
L 65.828571 42.440023 
L 68.106122 41.482947 
L 70.383673 39.201988 
L 72.661224 39.800802 
L 74.938776 53.31841 
L 77.216327 40.158585 
L 79.493878 42.296401 
L 81.771429 42.100665 
L 84.04898 44.413431 
L 86.326531 45.753889 
L 88.604082 48.169003 
L 90.881633 49.04899 
L 93.159184 50.862637 
L 95.436735 52.464253 
L 97.714286 53.330907 
L 99.991837 55.673331 
L 102.269388 56.959389 
L 104.546939 57.768174 
L 106.82449 57.920728 
L 109.102041 58.865521 
L 111.379592 59.212642 
L 113.657143 59.245522 
L 115.934694 59.56119 
L 118.212245 59.518158 
L 120.489796 59.519241 
L 122.767347 59.519168 
L 125.044898 59.519168 
L 127.322449 59.519168 
L 129.6 59.519168 
" style="fill:none;stroke:#fc8d62;stroke-dasharray:1.5,1.5;stroke-dashoffset:0;stroke-opacity:0.7;stroke-width:1.5;"/>
   </g>
   <g id="patch_3">
    <path d="M 74.938776 67.68 
L 74.938776 17.28 
" style="fill:none;stroke:#a9a9a9;stroke-linecap:square;stroke-linejoin:miter;stroke-width:2;"/>
   </g>
   <g id="patch_4">
    <path d="M 129.6 67.68 
L 129.6 17.28 
" style="fill:none;"/>
   </g>
   <g id="patch_5">
    <path d="M 18 59.519168 
L 129.6 59.519168 
" style="fill:none;stroke:#a9a9a9;stroke-linecap:square;stroke-linejoin:miter;stroke-width:2;"/>
   </g>
   <g id="patch_6">
    <path d="M 18 17.28 
L 129.6 17.28 
" style="fill:none;"/>
   </g>
   <g id="legend_1">
    <g id="line2d_8">
     <path d="M 87.67 26.448906 
L 101.67 26.448906 
" style="fill:none;stroke:#fc8d62;stroke-linecap:square;stroke-width:2;"/>
    </g>
    <g id="line2d_9"/>
    <g id="text_1">
     <!-- $\theta$ -->
     <g transform="translate(107.27 28.898906)scale(0.07 -0.07)">
      <defs>
       <path d="M 45.515625 34.671875 
L 14.453125 34.671875 
Q 12.359375 20.0625 14.5 13.875 
Q 17.1875 6.25 24.46875 6.25 
Q 31.78125 6.25 37.359375 13.921875 
Q 42.234375 20.65625 45.515625 34.671875 
z
M 47.015625 42.96875 
Q 48.34375 56.84375 46.625 61.71875 
Q 43.953125 69.4375 36.765625 69.4375 
Q 29.296875 69.4375 23.828125 61.8125 
Q 19.53125 55.671875 16.15625 42.96875 
z
M 38.1875 76.765625 
Q 49.90625 76.765625 54.59375 66.40625 
Q 59.28125 56.109375 55.71875 37.84375 
Q 52.203125 19.625 43.453125 9.28125 
Q 34.765625 -1.125 23.046875 -1.125 
Q 11.28125 -1.125 6.640625 9.28125 
Q 2 19.625 5.515625 37.84375 
Q 9.078125 56.109375 17.71875 66.40625 
Q 26.421875 76.765625 38.1875 76.765625 
z
" id="DejaVuSans-Oblique-952"/>
      </defs>
      <use transform="translate(0 0.234375)" xlink:href="#DejaVuSans-Oblique-952"/>
     </g>
    </g>
    <g id="line2d_10">
     <path d="M 87.67 36.723594 
L 101.67 36.723594 
" style="fill:none;stroke:#fc8d62;stroke-dasharray:1.5,1.5;stroke-dashoffset:0;stroke-opacity:0.7;stroke-width:1.5;"/>
    </g>
    <g id="line2d_11"/>
    <g id="text_2">
     <!-- No $\theta$ -->
     <g transform="translate(107.27 39.173594)scale(0.07 -0.07)">
      <defs>
       <path d="M 9.8125 72.90625 
L 23.09375 72.90625 
L 55.421875 11.921875 
L 55.421875 72.90625 
L 64.984375 72.90625 
L 64.984375 0 
L 51.703125 0 
L 19.390625 60.984375 
L 19.390625 0 
L 9.8125 0 
z
" id="DejaVuSans-78"/>
       <path d="M 30.609375 48.390625 
Q 23.390625 48.390625 19.1875 42.75 
Q 14.984375 37.109375 14.984375 27.296875 
Q 14.984375 17.484375 19.15625 11.84375 
Q 23.34375 6.203125 30.609375 6.203125 
Q 37.796875 6.203125 41.984375 11.859375 
Q 46.1875 17.53125 46.1875 27.296875 
Q 46.1875 37.015625 41.984375 42.703125 
Q 37.796875 48.390625 30.609375 48.390625 
z
M 30.609375 56 
Q 42.328125 56 49.015625 48.375 
Q 55.71875 40.765625 55.71875 27.296875 
Q 55.71875 13.875 49.015625 6.21875 
Q 42.328125 -1.421875 30.609375 -1.421875 
Q 18.84375 -1.421875 12.171875 6.21875 
Q 5.515625 13.875 5.515625 27.296875 
Q 5.515625 40.765625 12.171875 48.375 
Q 18.84375 56 30.609375 56 
z
" id="DejaVuSans-111"/>
       <path id="DejaVuSans-32"/>
      </defs>
      <use transform="translate(0 0.234375)" xlink:href="#DejaVuSans-78"/>
      <use transform="translate(74.804688 0.234375)" xlink:href="#DejaVuSans-111"/>
      <use transform="translate(135.986328 0.234375)" xlink:href="#DejaVuSans-32"/>
      <use transform="translate(167.773438 0.234375)" xlink:href="#DejaVuSans-Oblique-952"/>
     </g>
    </g>
   </g>
  </g>
  <g id="axes_2">
   <g id="patch_7">
    <path d="M 18 128.16 
L 129.6 128.16 
L 129.6 77.76 
L 18 77.76 
z
" style="fill:none;"/>
   </g>
   <g id="PolyCollection_3">
    <path clip-path="url(#p7ba66a33a0)" d="M 18 121.07734 
L 18 120.999865 
L 20.277551 121.300734 
L 22.555102 121.448195 
L 24.832653 121.464903 
L 27.110204 121.415597 
L 29.387755 121.396595 
L 31.665306 121.467672 
L 33.942857 121.467874 
L 36.220408 121.21237 
L 38.497959 120.5538 
L 40.77551 119.378332 
L 43.053061 117.613214 
L 45.330612 115.236086 
L 47.608163 112.26773 
L 49.885714 108.767091 
L 52.163265 104.828357 
L 54.440816 100.57842 
L 56.718367 96.173613 
L 58.995918 91.795261 
L 61.273469 87.644775 
L 63.55102 83.938375 
L 65.828571 80.901844 
L 68.106122 78.765545 
L 70.383673 77.76 
L 72.661224 78.112125 
L 74.938776 80.030592 
L 77.216327 83.63823 
L 79.493878 88.49997 
L 81.771429 94.131369 
L 84.04898 100.084146 
L 86.326531 105.971308 
L 88.604082 111.475352 
L 90.881633 116.351828 
L 93.159184 120.429381 
L 95.436735 123.608011 
L 97.714286 125.85586 
L 99.991837 127.202719 
L 102.269388 127.728104 
L 104.546939 127.547585 
L 106.82449 126.802005 
L 109.102041 125.648904 
L 111.379592 124.254694 
L 113.657143 122.788059 
L 115.934694 121.415158 
L 118.212245 120.298724 
L 120.489796 119.60277 
L 122.767347 119.434143 
L 125.044898 119.655797 
L 127.322449 120.085513 
L 129.6 120.571268 
L 129.6 120.674742 
L 129.6 120.674742 
L 127.322449 120.215581 
L 125.044898 119.807576 
L 122.767347 119.599296 
L 120.489796 119.773713 
L 118.212245 120.47688 
L 115.934694 121.619027 
L 113.657143 123.037164 
L 111.379592 124.557532 
L 109.102041 126.002448 
L 106.82449 127.195508 
L 104.546939 127.966821 
L 102.269388 128.16 
L 99.991837 127.640825 
L 97.714286 126.307089 
L 95.436735 124.096912 
L 93.159184 120.99356 
L 90.881633 117.0306 
L 88.604082 112.300458 
L 86.326531 106.962997 
L 84.04898 101.250875 
L 81.771429 95.470335 
L 79.493878 89.997715 
L 77.216327 85.271228 
L 74.938776 81.766028 
L 72.661224 79.909468 
L 70.383673 79.576 
L 68.106122 80.556844 
L 65.828571 82.626889 
L 63.55102 85.559218 
L 61.273469 89.128765 
L 58.995918 93.116561 
L 56.718367 97.31439 
L 54.440816 101.529701 
L 52.163265 105.590433 
L 49.885714 109.349425 
L 47.608163 112.687942 
L 45.330612 115.519127 
L 43.053061 117.791403 
L 40.77551 119.490677 
L 38.497959 120.639453 
L 36.220408 121.292274 
L 33.942857 121.545928 
L 31.665306 121.545488 
L 29.387755 121.475796 
L 27.110204 121.490819 
L 24.832653 121.530859 
L 22.555102 121.505541 
L 20.277551 121.360515 
L 18 121.07734 
z
" style="fill:#66c2a5;fill-opacity:0.2;"/>
   </g>
   <g id="matplotlib.axis_3">
    <g id="xtick_6">
     <g id="line2d_12">
      <g>
       <use style="fill:#a9a9a9;stroke:#a9a9a9;stroke-width:2;" x="29.387755" xlink:href="#m032e1828fc" y="122.077862"/>
      </g>
     </g>
    </g>
    <g id="xtick_7">
     <g id="line2d_13">
      <g>
       <use style="fill:#a9a9a9;stroke:#a9a9a9;stroke-width:2;" x="52.163265" xlink:href="#m032e1828fc" y="122.077862"/>
      </g>
     </g>
    </g>
    <g id="xtick_8">
     <g id="line2d_14">
      <g>
       <use style="fill:#a9a9a9;stroke:#a9a9a9;stroke-width:2;" x="74.938776" xlink:href="#m032e1828fc" y="122.077862"/>
      </g>
     </g>
    </g>
    <g id="xtick_9">
     <g id="line2d_15">
      <g>
       <use style="fill:#a9a9a9;stroke:#a9a9a9;stroke-width:2;" x="97.714286" xlink:href="#m032e1828fc" y="122.077862"/>
      </g>
     </g>
    </g>
    <g id="xtick_10">
     <g id="line2d_16">
      <g>
       <use style="fill:#a9a9a9;stroke:#a9a9a9;stroke-width:2;" x="120.489796" xlink:href="#m032e1828fc" y="122.077862"/>
      </g>
     </g>
    </g>
   </g>
   <g id="matplotlib.axis_4"/>
   <g id="line2d_17">
    <path clip-path="url(#p7ba66a33a0)" d="M 18 121.038603 
L 20.277551 121.330624 
L 22.555102 121.476868 
L 24.832653 121.497881 
L 27.110204 121.453208 
L 29.387755 121.436196 
L 31.665306 121.50658 
L 33.942857 121.506901 
L 36.220408 121.252322 
L 38.497959 120.596627 
L 40.77551 119.434504 
L 43.053061 117.702308 
L 45.330612 115.377607 
L 47.608163 112.477836 
L 49.885714 109.058258 
L 52.163265 105.209395 
L 54.440816 101.054061 
L 56.718367 96.744001 
L 58.995918 92.455911 
L 61.273469 88.38677 
L 63.55102 84.748796 
L 65.828571 81.764367 
L 68.106122 79.661195 
L 70.383673 78.668 
L 72.661224 79.010797 
L 74.938776 80.89831 
L 77.216327 84.454729 
L 79.493878 89.248843 
L 81.771429 94.800852 
L 84.04898 100.66751 
L 86.326531 106.467153 
L 88.604082 111.887905 
L 90.881633 116.691214 
L 93.159184 120.711471 
L 95.436735 123.852461 
L 97.714286 126.081475 
L 99.991837 127.421772 
L 102.269388 127.944052 
L 104.546939 127.757203 
L 106.82449 126.998757 
L 109.102041 125.825676 
L 111.379592 124.406113 
L 113.657143 122.912612 
L 115.934694 121.517092 
L 118.212245 120.387802 
L 120.489796 119.688242 
L 122.767347 119.516719 
L 125.044898 119.731686 
L 127.322449 120.150547 
L 129.6 120.623005 
" style="fill:none;stroke:#66c2a5;stroke-linecap:square;stroke-width:2;"/>
   </g>
   <g id="patch_8">
    <path d="M 74.938776 128.16 
L 74.938776 77.76 
" style="fill:none;stroke:#a9a9a9;stroke-linecap:square;stroke-linejoin:miter;stroke-width:2;"/>
   </g>
   <g id="patch_9">
    <path d="M 129.6 128.16 
L 129.6 77.76 
" style="fill:none;"/>
   </g>
   <g id="patch_10">
    <path d="M 18 122.077862 
L 129.6 122.077862 
" style="fill:none;stroke:#a9a9a9;stroke-linecap:square;stroke-linejoin:miter;stroke-width:2;"/>
   </g>
   <g id="patch_11">
    <path d="M 18 77.76 
L 129.6 77.76 
" style="fill:none;"/>
   </g>
  </g>
 </g>
 <defs>
  <clipPath id="p840bc0ccba">
   <rect height="50.4" width="111.6" x="18" y="17.28"/>
  </clipPath>
  <clipPath id="p7ba66a33a0">
   <rect height="50.4" width="111.6" x="18" y="77.76"/>
  </clipPath>
 </defs>
</svg>
