<?xml version="1.0" encoding="utf-8" standalone="no"?>
<!DOCTYPE svg PUBLIC "-//W3C//DTD SVG 1.1//EN"
  "http://www.w3.org/Graphics/SVG/1.1/DTD/svg11.dtd">
<!-- Created with matplotlib (https://matplotlib.org/) -->
<svg height="144pt" version="1.1" viewBox="0 0 144 144" width="144pt" xmlns="http://www.w3.org/2000/svg" xmlns:xlink="http://www.w3.org/1999/xlink">
 <metadata>
  <rdf:RDF xmlns:cc="http://creativecommons.org/ns#" xmlns:dc="http://purl.org/dc/elements/1.1/" xmlns:rdf="http://www.w3.org/1999/02/22-rdf-syntax-ns#">
   <cc:Work>
    <dc:type rdf:resource="http://purl.org/dc/dcmitype/StillImage"/>
    <dc:date>2021-10-12T18:36:45.687201</dc:date>
    <dc:format>image/svg+xml</dc:format>
    <dc:creator>
     <cc:Agent>
      <dc:title>Matplotlib v3.3.2, https://matplotlib.org/</dc:title>
     </cc:Agent>
    </dc:creator>
   </cc:Work>
  </rdf:RDF>
 </metadata>
 <defs>
  <style type="text/css">*{stroke-linecap:butt;stroke-linejoin:round;}</style>
 </defs>
 <g id="figure_1">
  <g id="patch_1">
   <path d="M 0 144 
L 144 144 
L 144 0 
L 0 0 
z
" style="fill:none;"/>
  </g>
  <g id="axes_1">
   <g id="patch_2">
    <path d="M 18 67.68 
L 129.6 67.68 
L 129.6 17.28 
L 18 17.28 
z
" style="fill:none;"/>
   </g>
   <g id="PolyCollection_1">
    <path clip-path="url(#pa6b6655049)" d="M 18 42.48 
L 18 42.48 
L 20.277551 42.48 
L 22.555102 42.48 
L 24.832653 42.48 
L 27.110204 42.48 
L 29.387755 42.48 
L 31.665306 42.411734 
L 33.942857 42.144497 
L 36.220408 41.851759 
L 38.497959 40.473506 
L 40.77551 38.715071 
L 43.053061 37.029394 
L 45.330612 35.667186 
L 47.608163 31.690221 
L 49.885714 30.39424 
L 52.163265 28.31907 
L 54.440816 25.678111 
L 56.718367 24.823994 
L 58.995918 21.413048 
L 61.273469 24.923758 
L 63.55102 18.647894 
L 65.828571 22.070641 
L 68.106122 20.265722 
L 70.383673 17.28 
L 72.661224 21.147881 
L 74.938776 38.858977 
L 77.216327 27.469918 
L 79.493878 29.65735 
L 81.771429 33.996479 
L 84.04898 31.939482 
L 86.326531 31.687086 
L 88.604082 31.537437 
L 90.881633 36.790329 
L 93.159184 37.358941 
L 95.436735 38.563246 
L 97.714286 35.900223 
L 99.991837 37.845815 
L 102.269388 38.148489 
L 104.546939 39.493991 
L 106.82449 40.135353 
L 109.102041 39.545999 
L 111.379592 41.15959 
L 113.657143 41.890386 
L 115.934694 42.263727 
L 118.212245 42.428791 
L 120.489796 42.48 
L 122.767347 42.48 
L 125.044898 42.48 
L 127.322449 42.48 
L 129.6 42.48 
L 129.6 42.48 
L 129.6 42.48 
L 127.322449 42.48 
L 125.044898 42.48 
L 122.767347 42.48 
L 120.489796 42.48 
L 118.212245 42.548266 
L 115.934694 42.815503 
L 113.657143 43.108241 
L 111.379592 44.486494 
L 109.102041 46.244929 
L 106.82449 47.930606 
L 104.546939 49.292814 
L 102.269388 53.269779 
L 99.991837 54.56576 
L 97.714286 56.64093 
L 95.436735 59.281889 
L 93.159184 60.136006 
L 90.881633 63.546952 
L 88.604082 60.036242 
L 86.326531 66.312106 
L 84.04898 62.889359 
L 81.771429 64.694278 
L 79.493878 67.68 
L 77.216327 63.812119 
L 74.938776 38.858977 
L 72.661224 57.490082 
L 70.383673 55.30265 
L 68.106122 50.963521 
L 65.828571 53.020518 
L 63.55102 53.272914 
L 61.273469 53.422563 
L 58.995918 48.169671 
L 56.718367 47.601059 
L 54.440816 46.396754 
L 52.163265 49.059777 
L 49.885714 47.114185 
L 47.608163 46.811511 
L 45.330612 45.466009 
L 43.053061 44.824647 
L 40.77551 45.414001 
L 38.497959 43.80041 
L 36.220408 43.069614 
L 33.942857 42.696273 
L 31.665306 42.531209 
L 29.387755 42.48 
L 27.110204 42.48 
L 24.832653 42.48 
L 22.555102 42.48 
L 20.277551 42.48 
L 18 42.48 
z
" style="fill:#fc8d62;fill-opacity:0.2;"/>
   </g>
   <g id="PolyCollection_2">
    <path clip-path="url(#pa6b6655049)" d="M 18 42.48 
L 18 42.48 
L 20.277551 42.48 
L 22.555102 42.48 
L 24.832653 42.48 
L 27.110204 42.48 
L 29.387755 42.48 
L 31.665306 42.472609 
L 33.942857 41.867691 
L 36.220408 40.448042 
L 38.497959 39.235023 
L 40.77551 39.225585 
L 43.053061 39.00651 
L 45.330612 35.899355 
L 47.608163 35.276195 
L 49.885714 34.020828 
L 52.163265 32.888721 
L 54.440816 33.138029 
L 56.718367 32.625832 
L 58.995918 30.63744 
L 61.273469 29.102258 
L 63.55102 25.053903 
L 65.828571 30.248307 
L 68.106122 27.25101 
L 70.383673 22.549403 
L 72.661224 28.745613 
L 74.938776 38.858977 
L 77.216327 25.050416 
L 79.493878 28.688702 
L 81.771429 26.234549 
L 84.04898 29.048893 
L 86.326531 32.228612 
L 88.604082 32.618727 
L 90.881633 28.737507 
L 93.159184 30.748744 
L 95.436735 29.431674 
L 97.714286 31.259374 
L 99.991837 33.614068 
L 102.269388 33.89118 
L 104.546939 36.596731 
L 106.82449 38.623169 
L 109.102041 40.23305 
L 111.379592 40.928741 
L 113.657143 40.80088 
L 115.934694 41.869054 
L 118.212245 42.474546 
L 120.489796 42.48 
L 122.767347 42.48 
L 125.044898 42.48 
L 127.322449 42.48 
L 129.6 42.48 
L 129.6 42.48 
L 129.6 42.48 
L 127.322449 42.48 
L 125.044898 42.48 
L 122.767347 42.48 
L 120.489796 42.48 
L 118.212245 42.487391 
L 115.934694 43.092309 
L 113.657143 44.511958 
L 111.379592 45.724977 
L 109.102041 45.734415 
L 106.82449 45.95349 
L 104.546939 49.060645 
L 102.269388 49.683805 
L 99.991837 50.939172 
L 97.714286 52.071279 
L 95.436735 51.821971 
L 93.159184 52.334168 
L 90.881633 54.32256 
L 88.604082 55.857742 
L 86.326531 59.906097 
L 84.04898 54.711693 
L 81.771429 57.70899 
L 79.493878 62.410597 
L 77.216327 56.214387 
L 74.938776 38.858977 
L 72.661224 59.909584 
L 70.383673 56.271298 
L 68.106122 58.725451 
L 65.828571 55.911107 
L 63.55102 52.731388 
L 61.273469 52.341273 
L 58.995918 56.222493 
L 56.718367 54.211256 
L 54.440816 55.528326 
L 52.163265 53.700626 
L 49.885714 51.345932 
L 47.608163 51.06882 
L 45.330612 48.363269 
L 43.053061 46.336831 
L 40.77551 44.72695 
L 38.497959 44.031259 
L 36.220408 44.15912 
L 33.942857 43.090946 
L 31.665306 42.485454 
L 29.387755 42.48 
L 27.110204 42.48 
L 24.832653 42.48 
L 22.555102 42.48 
L 20.277551 42.48 
L 18 42.48 
z
" style="fill:#fc8d62;fill-opacity:0.2;"/>
   </g>
   <g id="matplotlib.axis_1">
    <g id="xtick_1">
     <g id="line2d_1">
      <defs>
       <path d="M 0 0 
L 0 3.5 
" id="m0d6e10b6cb" style="stroke:#a9a9a9;stroke-width:2;"/>
      </defs>
      <g>
       <use style="fill:#a9a9a9;stroke:#a9a9a9;stroke-width:2;" x="29.387755" xlink:href="#m0d6e10b6cb" y="42.48"/>
      </g>
     </g>
    </g>
    <g id="xtick_2">
     <g id="line2d_2">
      <g>
       <use style="fill:#a9a9a9;stroke:#a9a9a9;stroke-width:2;" x="52.163265" xlink:href="#m0d6e10b6cb" y="42.48"/>
      </g>
     </g>
    </g>
    <g id="xtick_3">
     <g id="line2d_3">
      <g>
       <use style="fill:#a9a9a9;stroke:#a9a9a9;stroke-width:2;" x="74.938776" xlink:href="#m0d6e10b6cb" y="42.48"/>
      </g>
     </g>
    </g>
    <g id="xtick_4">
     <g id="line2d_4">
      <g>
       <use style="fill:#a9a9a9;stroke:#a9a9a9;stroke-width:2;" x="97.714286" xlink:href="#m0d6e10b6cb" y="42.48"/>
      </g>
     </g>
    </g>
    <g id="xtick_5">
     <g id="line2d_5">
      <g>
       <use style="fill:#a9a9a9;stroke:#a9a9a9;stroke-width:2;" x="120.489796" xlink:href="#m0d6e10b6cb" y="42.48"/>
      </g>
     </g>
    </g>
   </g>
   <g id="matplotlib.axis_2"/>
   <g id="line2d_6">
    <path clip-path="url(#pa6b6655049)" d="M 18 42.48 
L 20.277551 42.48 
L 22.555102 42.48 
L 24.832653 42.48 
L 27.110204 42.48 
L 29.387755 42.48 
L 31.665306 42.471472 
L 33.942857 42.420385 
L 36.220408 42.460686 
L 38.497959 42.136958 
L 40.77551 42.064536 
L 43.053061 40.92702 
L 45.330612 40.566597 
L 47.608163 39.250866 
L 49.885714 38.754212 
L 52.163265 38.689424 
L 54.440816 36.037433 
L 56.718367 36.212527 
L 58.995918 34.79136 
L 61.273469 39.173161 
L 63.55102 35.960404 
L 65.828571 37.54558 
L 68.106122 35.614621 
L 70.383673 36.291325 
L 72.661224 39.318981 
L 74.938776 38.858977 
L 77.216327 45.641019 
L 79.493878 48.668675 
L 81.771429 49.345379 
L 84.04898 47.41442 
L 86.326531 48.999596 
L 88.604082 45.786839 
L 90.881633 50.16864 
L 93.159184 48.747473 
L 95.436735 48.922567 
L 97.714286 46.270576 
L 99.991837 46.205788 
L 102.269388 45.709134 
L 104.546939 44.393403 
L 106.82449 44.03298 
L 109.102041 42.895464 
L 111.379592 42.823042 
L 113.657143 42.499314 
L 115.934694 42.539615 
L 118.212245 42.488528 
L 120.489796 42.48 
L 122.767347 42.48 
L 125.044898 42.48 
L 127.322449 42.48 
L 129.6 42.48 
" style="fill:none;stroke:#fc8d62;stroke-linecap:square;stroke-width:2;"/>
   </g>
   <g id="line2d_7">
    <path clip-path="url(#pa6b6655049)" d="M 18 42.48 
L 20.277551 42.48 
L 22.555102 42.48 
L 24.832653 42.48 
L 27.110204 42.48 
L 29.387755 42.48 
L 31.665306 42.479031 
L 33.942857 42.479318 
L 36.220408 42.303581 
L 38.497959 41.633141 
L 40.77551 41.976268 
L 43.053061 42.67167 
L 45.330612 42.131312 
L 47.608163 43.172507 
L 49.885714 42.68338 
L 52.163265 43.294674 
L 54.440816 44.333178 
L 56.718367 43.418544 
L 58.995918 43.429966 
L 61.273469 40.721765 
L 63.55102 38.892646 
L 65.828571 43.079707 
L 68.106122 42.98823 
L 70.383673 39.41035 
L 72.661224 44.327599 
L 74.938776 38.858977 
L 77.216327 40.632401 
L 79.493878 45.54965 
L 81.771429 41.97177 
L 84.04898 41.880293 
L 86.326531 46.067354 
L 88.604082 44.238235 
L 90.881633 41.530034 
L 93.159184 41.541456 
L 95.436735 40.626822 
L 97.714286 41.665326 
L 99.991837 42.27662 
L 102.269388 41.787493 
L 104.546939 42.828688 
L 106.82449 42.28833 
L 109.102041 42.983732 
L 111.379592 43.326859 
L 113.657143 42.656419 
L 115.934694 42.480682 
L 118.212245 42.480969 
L 120.489796 42.48 
L 122.767347 42.48 
L 125.044898 42.48 
L 127.322449 42.48 
L 129.6 42.48 
" style="fill:none;stroke:#fc8d62;stroke-dasharray:1.5,1.5;stroke-dashoffset:0;stroke-opacity:0.7;stroke-width:1.5;"/>
   </g>
   <g id="patch_3">
    <path d="M 74.938776 67.68 
L 74.938776 17.28 
" style="fill:none;stroke:#a9a9a9;stroke-linecap:square;stroke-linejoin:miter;stroke-width:2;"/>
   </g>
   <g id="patch_4">
    <path d="M 129.6 67.68 
L 129.6 17.28 
" style="fill:none;"/>
   </g>
   <g id="patch_5">
    <path d="M 18 42.48 
L 129.6 42.48 
" style="fill:none;stroke:#a9a9a9;stroke-linecap:square;stroke-linejoin:miter;stroke-width:2;"/>
   </g>
   <g id="patch_6">
    <path d="M 18 17.28 
L 129.6 17.28 
" style="fill:none;"/>
   </g>
   <g id="legend_1">
    <g id="line2d_8">
     <path d="M 55.985 47.199531 
L 69.985 47.199531 
" style="fill:none;stroke:#fc8d62;stroke-linecap:square;stroke-width:2;"/>
    </g>
    <g id="line2d_9"/>
    <g id="text_1">
     <!-- $\theta$ -->
     <g transform="translate(75.585 49.649531)scale(0.07 -0.07)">
      <defs>
       <path d="M 45.515625 34.671875 
L 14.453125 34.671875 
Q 12.359375 20.0625 14.5 13.875 
Q 17.1875 6.25 24.46875 6.25 
Q 31.78125 6.25 37.359375 13.921875 
Q 42.234375 20.65625 45.515625 34.671875 
z
M 47.015625 42.96875 
Q 48.34375 56.84375 46.625 61.71875 
Q 43.953125 69.4375 36.765625 69.4375 
Q 29.296875 69.4375 23.828125 61.8125 
Q 19.53125 55.671875 16.15625 42.96875 
z
M 38.1875 76.765625 
Q 49.90625 76.765625 54.59375 66.40625 
Q 59.28125 56.109375 55.71875 37.84375 
Q 52.203125 19.625 43.453125 9.28125 
Q 34.765625 -1.125 23.046875 -1.125 
Q 11.28125 -1.125 6.640625 9.28125 
Q 2 19.625 5.515625 37.84375 
Q 9.078125 56.109375 17.71875 66.40625 
Q 26.421875 76.765625 38.1875 76.765625 
z
" id="DejaVuSans-Oblique-952"/>
      </defs>
      <use transform="translate(0 0.234375)" xlink:href="#DejaVuSans-Oblique-952"/>
     </g>
    </g>
    <g id="line2d_10">
     <path d="M 55.985 57.474219 
L 69.985 57.474219 
" style="fill:none;stroke:#fc8d62;stroke-dasharray:1.5,1.5;stroke-dashoffset:0;stroke-opacity:0.7;stroke-width:1.5;"/>
    </g>
    <g id="line2d_11"/>
    <g id="text_2">
     <!-- No $\theta$ -->
     <g transform="translate(75.585 59.924219)scale(0.07 -0.07)">
      <defs>
       <path d="M 9.8125 72.90625 
L 23.09375 72.90625 
L 55.421875 11.921875 
L 55.421875 72.90625 
L 64.984375 72.90625 
L 64.984375 0 
L 51.703125 0 
L 19.390625 60.984375 
L 19.390625 0 
L 9.8125 0 
z
" id="DejaVuSans-78"/>
       <path d="M 30.609375 48.390625 
Q 23.390625 48.390625 19.1875 42.75 
Q 14.984375 37.109375 14.984375 27.296875 
Q 14.984375 17.484375 19.15625 11.84375 
Q 23.34375 6.203125 30.609375 6.203125 
Q 37.796875 6.203125 41.984375 11.859375 
Q 46.1875 17.53125 46.1875 27.296875 
Q 46.1875 37.015625 41.984375 42.703125 
Q 37.796875 48.390625 30.609375 48.390625 
z
M 30.609375 56 
Q 42.328125 56 49.015625 48.375 
Q 55.71875 40.765625 55.71875 27.296875 
Q 55.71875 13.875 49.015625 6.21875 
Q 42.328125 -1.421875 30.609375 -1.421875 
Q 18.84375 -1.421875 12.171875 6.21875 
Q 5.515625 13.875 5.515625 27.296875 
Q 5.515625 40.765625 12.171875 48.375 
Q 18.84375 56 30.609375 56 
z
" id="DejaVuSans-111"/>
       <path id="DejaVuSans-32"/>
      </defs>
      <use transform="translate(0 0.234375)" xlink:href="#DejaVuSans-78"/>
      <use transform="translate(74.804688 0.234375)" xlink:href="#DejaVuSans-111"/>
      <use transform="translate(135.986328 0.234375)" xlink:href="#DejaVuSans-32"/>
      <use transform="translate(167.773438 0.234375)" xlink:href="#DejaVuSans-Oblique-952"/>
     </g>
    </g>
   </g>
  </g>
  <g id="axes_2">
   <g id="patch_7">
    <path d="M 18 128.16 
L 129.6 128.16 
L 129.6 77.76 
L 18 77.76 
z
" style="fill:none;"/>
   </g>
   <g id="PolyCollection_3">
    <path clip-path="url(#pdc2912d037)" d="M 18 120.579365 
L 18 120.500695 
L 20.277551 120.713279 
L 22.555102 120.773229 
L 24.832653 120.688679 
L 27.110204 120.507154 
L 29.387755 120.305987 
L 31.665306 120.133839 
L 33.942857 119.850417 
L 36.220408 119.294067 
L 38.497959 118.337737 
L 40.77551 116.889685 
L 43.053061 114.89791 
L 45.330612 112.353337 
L 47.608163 109.287821 
L 49.885714 105.769404 
L 52.163265 101.898773 
L 54.440816 97.805502 
L 56.718367 93.64396 
L 58.995918 89.588661 
L 61.273469 85.829036 
L 63.55102 82.564035 
L 65.828571 79.996758 
L 68.106122 78.329585 
L 70.383673 77.76 
L 72.661224 78.477282 
L 74.938776 80.650439 
L 77.216327 84.368722 
L 79.493878 89.233881 
L 81.771429 94.799656 
L 84.04898 100.649401 
L 86.326531 106.419696 
L 88.604082 111.809484 
L 90.881633 116.584985 
L 93.159184 120.580941 
L 95.436735 123.699668 
L 97.714286 125.90846 
L 99.991837 127.234323 
L 102.269388 127.753387 
L 104.546939 127.578199 
L 106.82449 126.84666 
L 109.102041 125.712832 
L 111.379592 124.338918 
L 113.657143 122.888381 
L 115.934694 121.52074 
L 118.212245 120.389523 
L 120.489796 119.6451 
L 122.767347 119.384074 
L 125.044898 119.488731 
L 127.322449 119.797454 
L 129.6 120.170941 
L 129.6 120.273489 
L 129.6 120.273489 
L 127.322449 119.923508 
L 125.044898 119.633115 
L 122.767347 119.539429 
L 120.489796 119.806144 
L 118.212245 120.560896 
L 115.934694 121.719195 
L 113.657143 123.129775 
L 111.379592 124.629421 
L 109.102041 126.048959 
L 106.82449 127.218414 
L 104.546939 127.972864 
L 102.269388 128.16 
L 99.991837 127.649151 
L 97.714286 126.340696 
L 95.436735 124.173892 
L 93.159184 121.132061 
L 90.881633 117.247992 
L 88.604082 112.6121 
L 86.326531 107.379513 
L 84.04898 101.773648 
L 81.771429 96.085547 
L 79.493878 90.669207 
L 77.216327 85.932446 
L 74.938776 82.313413 
L 72.661224 80.203758 
L 70.383673 79.511081 
L 68.106122 80.065642 
L 65.828571 81.679279 
L 63.55102 84.157368 
L 61.273469 87.302013 
L 58.995918 90.916048 
L 56.718367 94.807671 
L 54.440816 98.795423 
L 52.163265 102.71332 
L 49.885714 106.415647 
L 47.608163 109.781208 
L 45.330612 112.717005 
L 43.053061 115.161419 
L 40.77551 117.08663 
L 38.497959 118.498521 
L 36.220408 119.437694 
L 33.942857 119.983598 
L 31.665306 120.257401 
L 29.387755 120.418072 
L 27.110204 120.603241 
L 24.832653 120.766149 
L 22.555102 120.836073 
L 20.277551 120.775721 
L 18 120.579365 
z
" style="fill:#66c2a5;fill-opacity:0.2;"/>
   </g>
   <g id="matplotlib.axis_3">
    <g id="xtick_6">
     <g id="line2d_12">
      <g>
       <use style="fill:#a9a9a9;stroke:#a9a9a9;stroke-width:2;" x="29.387755" xlink:href="#m0d6e10b6cb" y="122.223282"/>
      </g>
     </g>
    </g>
    <g id="xtick_7">
     <g id="line2d_13">
      <g>
       <use style="fill:#a9a9a9;stroke:#a9a9a9;stroke-width:2;" x="52.163265" xlink:href="#m0d6e10b6cb" y="122.223282"/>
      </g>
     </g>
    </g>
    <g id="xtick_8">
     <g id="line2d_14">
      <g>
       <use style="fill:#a9a9a9;stroke:#a9a9a9;stroke-width:2;" x="74.938776" xlink:href="#m0d6e10b6cb" y="122.223282"/>
      </g>
     </g>
    </g>
    <g id="xtick_9">
     <g id="line2d_15">
      <g>
       <use style="fill:#a9a9a9;stroke:#a9a9a9;stroke-width:2;" x="97.714286" xlink:href="#m0d6e10b6cb" y="122.223282"/>
      </g>
     </g>
    </g>
    <g id="xtick_10">
     <g id="line2d_16">
      <g>
       <use style="fill:#a9a9a9;stroke:#a9a9a9;stroke-width:2;" x="120.489796" xlink:href="#m0d6e10b6cb" y="122.223282"/>
      </g>
     </g>
    </g>
   </g>
   <g id="matplotlib.axis_4"/>
   <g id="line2d_17">
    <path clip-path="url(#pdc2912d037)" d="M 18 120.54003 
L 20.277551 120.7445 
L 22.555102 120.804651 
L 24.832653 120.727414 
L 27.110204 120.555197 
L 29.387755 120.362029 
L 31.665306 120.19562 
L 33.942857 119.917008 
L 36.220408 119.365881 
L 38.497959 118.418129 
L 40.77551 116.988157 
L 43.053061 115.029665 
L 45.330612 112.535171 
L 47.608163 109.534514 
L 49.885714 106.092525 
L 52.163265 102.306047 
L 54.440816 98.300462 
L 56.718367 94.225816 
L 58.995918 90.252355 
L 61.273469 86.565525 
L 63.55102 83.360701 
L 65.828571 80.838018 
L 68.106122 79.197613 
L 70.383673 78.63554 
L 72.661224 79.34052 
L 74.938776 81.481926 
L 77.216327 85.150584 
L 79.493878 89.951544 
L 81.771429 95.442602 
L 84.04898 101.211524 
L 86.326531 106.899604 
L 88.604082 112.210792 
L 90.881633 116.916488 
L 93.159184 120.856501 
L 95.436735 123.93678 
L 97.714286 126.124578 
L 99.991837 127.441737 
L 102.269388 127.956693 
L 104.546939 127.775531 
L 106.82449 127.032537 
L 109.102041 125.880896 
L 111.379592 124.484169 
L 113.657143 123.009078 
L 115.934694 121.619967 
L 118.212245 120.475209 
L 120.489796 119.725622 
L 122.767347 119.461752 
L 125.044898 119.560923 
L 127.322449 119.860481 
L 129.6 120.222215 
" style="fill:none;stroke:#66c2a5;stroke-linecap:square;stroke-width:2;"/>
   </g>
   <g id="patch_8">
    <path d="M 74.938776 128.16 
L 74.938776 77.76 
" style="fill:none;stroke:#a9a9a9;stroke-linecap:square;stroke-linejoin:miter;stroke-width:2;"/>
   </g>
   <g id="patch_9">
    <path d="M 129.6 128.16 
L 129.6 77.76 
" style="fill:none;"/>
   </g>
   <g id="patch_10">
    <path d="M 18 122.223282 
L 129.6 122.223282 
" style="fill:none;stroke:#a9a9a9;stroke-linecap:square;stroke-linejoin:miter;stroke-width:2;"/>
   </g>
   <g id="patch_11">
    <path d="M 18 77.76 
L 129.6 77.76 
" style="fill:none;"/>
   </g>
  </g>
 </g>
 <defs>
  <clipPath id="pa6b6655049">
   <rect height="50.4" width="111.6" x="18" y="17.28"/>
  </clipPath>
  <clipPath id="pdc2912d037">
   <rect height="50.4" width="111.6" x="18" y="77.76"/>
  </clipPath>
 </defs>
</svg>
