<?xml version="1.0" encoding="utf-8" standalone="no"?>
<!DOCTYPE svg PUBLIC "-//W3C//DTD SVG 1.1//EN"
  "http://www.w3.org/Graphics/SVG/1.1/DTD/svg11.dtd">
<!-- Created with matplotlib (https://matplotlib.org/) -->
<svg height="144pt" version="1.1" viewBox="0 0 144 144" width="144pt" xmlns="http://www.w3.org/2000/svg" xmlns:xlink="http://www.w3.org/1999/xlink">
 <metadata>
  <rdf:RDF xmlns:cc="http://creativecommons.org/ns#" xmlns:dc="http://purl.org/dc/elements/1.1/" xmlns:rdf="http://www.w3.org/1999/02/22-rdf-syntax-ns#">
   <cc:Work>
    <dc:type rdf:resource="http://purl.org/dc/dcmitype/StillImage"/>
    <dc:date>2021-10-14T21:02:37.627930</dc:date>
    <dc:format>image/svg+xml</dc:format>
    <dc:creator>
     <cc:Agent>
      <dc:title>Matplotlib v3.3.2, https://matplotlib.org/</dc:title>
     </cc:Agent>
    </dc:creator>
   </cc:Work>
  </rdf:RDF>
 </metadata>
 <defs>
  <style type="text/css">*{stroke-linecap:butt;stroke-linejoin:round;}</style>
 </defs>
 <g id="figure_1">
  <g id="patch_1">
   <path d="M 0 144 
L 144 144 
L 144 0 
L 0 0 
z
" style="fill:none;"/>
  </g>
  <g id="axes_1">
   <g id="patch_2">
    <path d="M 18 67.68 
L 129.6 67.68 
L 129.6 17.28 
L 18 17.28 
z
" style="fill:none;"/>
   </g>
   <g id="PolyCollection_1">
    <path clip-path="url(#pb9146d2cdc)" d="M 18 67.679966 
L 18 67.679966 
L 20.277551 67.679966 
L 22.555102 67.679966 
L 24.832653 67.679966 
L 27.110204 67.679966 
L 29.387755 67.679782 
L 31.665306 67.640879 
L 33.942857 67.453672 
L 36.220408 67.004379 
L 38.497959 66.122715 
L 40.77551 64.741795 
L 43.053061 62.723636 
L 45.330612 60.089865 
L 47.608163 56.807577 
L 49.885714 52.812059 
L 52.163265 48.245374 
L 54.440816 43.452803 
L 56.718367 38.244776 
L 58.995918 33.205044 
L 61.273469 28.417795 
L 63.55102 24.351745 
L 65.828571 20.930088 
L 68.106122 18.514961 
L 70.383673 17.28 
L 72.661224 17.284107 
L 74.938776 19.075182 
L 77.216327 21.168507 
L 79.493878 24.509167 
L 81.771429 28.565756 
L 84.04898 32.950035 
L 86.326531 37.3073 
L 88.604082 41.761164 
L 90.881633 45.934538 
L 93.159184 49.794701 
L 95.436735 53.202123 
L 97.714286 56.32344 
L 99.991837 59.021043 
L 102.269388 61.301182 
L 104.546939 63.158251 
L 106.82449 64.729472 
L 109.102041 65.913502 
L 111.379592 66.72775 
L 113.657143 67.261535 
L 115.934694 67.557731 
L 118.212245 67.664807 
L 120.489796 67.679959 
L 122.767347 67.679966 
L 125.044898 67.679966 
L 127.322449 67.679966 
L 129.6 67.679966 
L 129.6 67.679966 
L 129.6 67.679966 
L 127.322449 67.679966 
L 125.044898 67.679966 
L 122.767347 67.679966 
L 120.489796 67.68 
L 118.212245 67.67522 
L 115.934694 67.587466 
L 113.657143 67.32464 
L 111.379592 66.828156 
L 109.102041 66.033471 
L 106.82449 64.928762 
L 104.546939 63.450747 
L 102.269388 61.605803 
L 99.991837 59.408991 
L 97.714286 56.737638 
L 95.436735 53.746678 
L 93.159184 50.476757 
L 90.881633 46.672455 
L 88.604082 42.569616 
L 86.326531 38.321022 
L 84.04898 33.9439 
L 81.771429 29.594534 
L 79.493878 25.603531 
L 77.216327 22.329227 
L 74.938776 20.660698 
L 72.661224 18.585305 
L 70.383673 18.595126 
L 68.106122 19.78627 
L 65.828571 22.100598 
L 63.55102 25.459815 
L 61.273469 29.667871 
L 58.995918 34.179233 
L 56.718367 39.145788 
L 54.440816 44.22023 
L 52.163265 49.013095 
L 49.885714 53.346571 
L 47.608163 57.201482 
L 45.330612 60.489402 
L 43.053061 63.033634 
L 40.77551 64.957087 
L 38.497959 66.275995 
L 36.220408 67.07873 
L 33.942857 67.498415 
L 31.665306 67.654371 
L 29.387755 67.679975 
L 27.110204 67.679966 
L 24.832653 67.679966 
L 22.555102 67.679966 
L 20.277551 67.679966 
L 18 67.679966 
z
" style="fill:#fc8d62;fill-opacity:0.2;"/>
   </g>
   <g id="PolyCollection_2">
    <path clip-path="url(#pb9146d2cdc)" d="M 18 67.679966 
L 18 67.679966 
L 20.277551 67.679966 
L 22.555102 67.679966 
L 24.832653 67.679966 
L 27.110204 67.679966 
L 29.387755 67.679804 
L 31.665306 67.644453 
L 33.942857 67.464752 
L 36.220408 67.037728 
L 38.497959 66.270971 
L 40.77551 65.062335 
L 43.053061 63.365439 
L 45.330612 61.21582 
L 47.608163 58.48514 
L 49.885714 55.238936 
L 52.163265 51.576308 
L 54.440816 47.571955 
L 56.718367 43.259924 
L 58.995918 38.90334 
L 61.273469 34.645723 
L 63.55102 30.43339 
L 65.828571 26.717832 
L 68.106122 23.585318 
L 70.383673 21.208144 
L 72.661224 19.657286 
L 74.938776 19.554511 
L 77.216327 20.072053 
L 79.493878 21.645975 
L 81.771429 24.494698 
L 84.04898 27.772282 
L 86.326531 31.582357 
L 88.604082 35.808672 
L 90.881633 40.21235 
L 93.159184 44.606296 
L 95.436735 48.80904 
L 97.714286 52.67283 
L 99.991837 56.292314 
L 102.269388 59.33842 
L 104.546939 61.8657 
L 106.82449 63.939474 
L 109.102041 65.457764 
L 111.379592 66.532571 
L 113.657143 67.189865 
L 115.934694 67.53899 
L 118.212245 67.661741 
L 120.489796 67.679963 
L 122.767347 67.679966 
L 125.044898 67.679966 
L 127.322449 67.679966 
L 129.6 67.679966 
L 129.6 67.679966 
L 129.6 67.679966 
L 127.322449 67.679966 
L 125.044898 67.679966 
L 122.767347 67.679966 
L 120.489796 67.679993 
L 118.212245 67.67218 
L 115.934694 67.572752 
L 113.657143 67.260199 
L 111.379592 66.650519 
L 109.102041 65.618727 
L 106.82449 64.163028 
L 104.546939 62.184252 
L 102.269388 59.690123 
L 99.991837 56.739873 
L 97.714286 53.275198 
L 95.436735 49.444089 
L 93.159184 45.343835 
L 90.881633 41.033344 
L 88.604082 36.70476 
L 86.326531 32.64947 
L 84.04898 28.71868 
L 81.771429 25.543969 
L 79.493878 22.832767 
L 77.216327 21.243671 
L 74.938776 20.94749 
L 72.661224 20.759684 
L 70.383673 22.340969 
L 68.106122 24.546473 
L 65.828571 27.703894 
L 63.55102 31.412651 
L 61.273469 35.506831 
L 58.995918 39.739231 
L 56.718367 44.052392 
L 54.440816 48.228507 
L 52.163265 52.186401 
L 49.885714 55.762208 
L 47.608163 58.844655 
L 45.330612 61.493049 
L 43.053061 63.624755 
L 40.77551 65.250748 
L 38.497959 66.373099 
L 36.220408 67.117849 
L 33.942857 67.504704 
L 31.665306 67.65731 
L 29.387755 67.679966 
L 27.110204 67.679966 
L 24.832653 67.679966 
L 22.555102 67.679966 
L 20.277551 67.679966 
L 18 67.679966 
z
" style="fill:#fc8d62;fill-opacity:0.2;"/>
   </g>
   <g id="matplotlib.axis_1">
    <g id="xtick_1">
     <g id="line2d_1">
      <defs>
       <path d="M 0 0 
L 0 3.5 
" id="mfe93e0b078" style="stroke:#a9a9a9;stroke-width:2;"/>
      </defs>
      <g>
       <use style="fill:#a9a9a9;stroke:#a9a9a9;stroke-width:2;" x="29.387755" xlink:href="#mfe93e0b078" y="67.679966"/>
      </g>
     </g>
    </g>
    <g id="xtick_2">
     <g id="line2d_2">
      <g>
       <use style="fill:#a9a9a9;stroke:#a9a9a9;stroke-width:2;" x="52.163265" xlink:href="#mfe93e0b078" y="67.679966"/>
      </g>
     </g>
    </g>
    <g id="xtick_3">
     <g id="line2d_3">
      <g>
       <use style="fill:#a9a9a9;stroke:#a9a9a9;stroke-width:2;" x="74.938776" xlink:href="#mfe93e0b078" y="67.679966"/>
      </g>
     </g>
    </g>
    <g id="xtick_4">
     <g id="line2d_4">
      <g>
       <use style="fill:#a9a9a9;stroke:#a9a9a9;stroke-width:2;" x="97.714286" xlink:href="#mfe93e0b078" y="67.679966"/>
      </g>
     </g>
    </g>
    <g id="xtick_5">
     <g id="line2d_5">
      <g>
       <use style="fill:#a9a9a9;stroke:#a9a9a9;stroke-width:2;" x="120.489796" xlink:href="#mfe93e0b078" y="67.679966"/>
      </g>
     </g>
    </g>
   </g>
   <g id="matplotlib.axis_2"/>
   <g id="line2d_6">
    <path clip-path="url(#pb9146d2cdc)" d="M 18 67.679966 
L 20.277551 67.679966 
L 22.555102 67.679966 
L 24.832653 67.679966 
L 27.110204 67.679966 
L 29.387755 67.679879 
L 31.665306 67.647625 
L 33.942857 67.476043 
L 36.220408 67.041555 
L 38.497959 66.199355 
L 40.77551 64.849441 
L 43.053061 62.878635 
L 45.330612 60.289634 
L 47.608163 57.00453 
L 49.885714 53.079315 
L 52.163265 48.629235 
L 54.440816 43.836517 
L 56.718367 38.695282 
L 58.995918 33.692138 
L 61.273469 29.042833 
L 63.55102 24.90578 
L 65.828571 21.515343 
L 68.106122 19.150615 
L 70.383673 17.937563 
L 72.661224 17.934706 
L 74.938776 19.86794 
L 77.216327 21.748867 
L 79.493878 25.056349 
L 81.771429 29.080145 
L 84.04898 33.446967 
L 86.326531 37.814161 
L 88.604082 42.16539 
L 90.881633 46.303497 
L 93.159184 50.135729 
L 95.436735 53.474401 
L 97.714286 56.530539 
L 99.991837 59.215017 
L 102.269388 61.453493 
L 104.546939 63.304499 
L 106.82449 64.829117 
L 109.102041 65.973486 
L 111.379592 66.777953 
L 113.657143 67.293088 
L 115.934694 67.572599 
L 118.212245 67.670013 
L 120.489796 67.67998 
L 122.767347 67.679966 
L 125.044898 67.679966 
L 127.322449 67.679966 
L 129.6 67.679966 
" style="fill:none;stroke:#fc8d62;stroke-linecap:square;stroke-width:2;"/>
   </g>
   <g id="line2d_7">
    <path clip-path="url(#pb9146d2cdc)" d="M 18 67.679966 
L 20.277551 67.679966 
L 22.555102 67.679966 
L 24.832653 67.679966 
L 27.110204 67.679966 
L 29.387755 67.679885 
L 31.665306 67.650882 
L 33.942857 67.484728 
L 36.220408 67.077788 
L 38.497959 66.322035 
L 40.77551 65.156542 
L 43.053061 63.495097 
L 45.330612 61.354434 
L 47.608163 58.664897 
L 49.885714 55.500572 
L 52.163265 51.881355 
L 54.440816 47.900231 
L 56.718367 43.656158 
L 58.995918 39.321286 
L 61.273469 35.076277 
L 63.55102 30.923021 
L 65.828571 27.210863 
L 68.106122 24.065896 
L 70.383673 21.774557 
L 72.661224 20.208485 
L 74.938776 20.251 
L 77.216327 20.657862 
L 79.493878 22.239371 
L 81.771429 25.019334 
L 84.04898 28.245481 
L 86.326531 32.115914 
L 88.604082 36.256716 
L 90.881633 40.622847 
L 93.159184 44.975066 
L 95.436735 49.126565 
L 97.714286 52.974014 
L 99.991837 56.516093 
L 102.269388 59.514271 
L 104.546939 62.024976 
L 106.82449 64.051251 
L 109.102041 65.538246 
L 111.379592 66.591545 
L 113.657143 67.225032 
L 115.934694 67.555871 
L 118.212245 67.66696 
L 120.489796 67.679978 
L 122.767347 67.679966 
L 125.044898 67.679966 
L 127.322449 67.679966 
L 129.6 67.679966 
" style="fill:none;stroke:#fc8d62;stroke-dasharray:1.5,1.5;stroke-dashoffset:0;stroke-opacity:0.7;stroke-width:1.5;"/>
   </g>
   <g id="patch_3">
    <path d="M 74.938776 67.68 
L 74.938776 17.28 
" style="fill:none;stroke:#a9a9a9;stroke-linecap:square;stroke-linejoin:miter;stroke-width:2;"/>
   </g>
   <g id="patch_4">
    <path d="M 129.6 67.68 
L 129.6 17.28 
" style="fill:none;"/>
   </g>
   <g id="patch_5">
    <path d="M 18 67.679966 
L 129.6 67.679966 
" style="fill:none;stroke:#a9a9a9;stroke-linecap:square;stroke-linejoin:miter;stroke-width:2;"/>
   </g>
   <g id="patch_6">
    <path d="M 18 17.28 
L 129.6 17.28 
" style="fill:none;"/>
   </g>
   <g id="legend_1">
    <g id="line2d_8">
     <path d="M 101.475312 26.448906 
L 115.475312 26.448906 
" style="fill:none;stroke:#fc8d62;stroke-linecap:square;stroke-width:2;"/>
    </g>
    <g id="line2d_9"/>
    <g id="text_1">
     <!--   -->
     <g transform="translate(121.075312 28.898906)scale(0.07 -0.07)">
      <defs>
       <path id="DejaVuSans-32"/>
      </defs>
      <use xlink:href="#DejaVuSans-32"/>
     </g>
    </g>
    <g id="line2d_10">
     <path d="M 101.475312 36.723594 
L 115.475312 36.723594 
" style="fill:none;stroke:#fc8d62;stroke-dasharray:1.5,1.5;stroke-dashoffset:0;stroke-opacity:0.7;stroke-width:1.5;"/>
    </g>
    <g id="line2d_11"/>
    <g id="text_2">
     <!--   -->
     <g transform="translate(121.075312 39.173594)scale(0.07 -0.07)">
      <use xlink:href="#DejaVuSans-32"/>
     </g>
    </g>
   </g>
  </g>
  <g id="axes_2">
   <g id="patch_7">
    <path d="M 18 128.16 
L 129.6 128.16 
L 129.6 77.76 
L 18 77.76 
z
" style="fill:none;"/>
   </g>
   <g id="PolyCollection_3">
    <path clip-path="url(#p24aeb68fc5)" d="M 18 120.586807 
L 18 120.502551 
L 20.277551 120.710343 
L 22.555102 120.782925 
L 24.832653 120.723324 
L 27.110204 120.572983 
L 29.387755 120.401559 
L 31.665306 120.251529 
L 33.942857 119.983454 
L 36.220408 119.438193 
L 38.497959 118.489554 
L 40.77551 117.04636 
L 43.053061 115.05802 
L 45.330612 112.515865 
L 47.608163 109.451097 
L 49.885714 105.931151 
L 52.163265 102.056162 
L 54.440816 97.955475 
L 56.718367 93.78342 
L 58.995918 89.714615 
L 61.273469 85.938532 
L 63.55102 82.653847 
L 65.828571 80.062919 
L 68.106122 78.366646 
L 70.383673 77.76 
L 72.661224 78.42841 
L 74.938776 80.538141 
L 77.216327 84.168169 
L 79.493878 88.942455 
L 81.771429 94.427619 
L 84.04898 100.218291 
L 86.326531 105.957839 
L 88.604082 111.347809 
L 90.881633 116.153256 
L 93.159184 120.204664 
L 95.436735 123.397819 
L 97.714286 125.692883 
L 99.991837 127.110538 
L 102.269388 127.721568 
L 104.546939 127.633481 
L 106.82449 126.979297 
L 109.102041 125.909102 
L 111.379592 124.582179 
L 113.657143 123.160013 
L 115.934694 121.800798 
L 118.212245 120.656949 
L 120.489796 119.878391 
L 122.767347 119.565095 
L 125.044898 119.610809 
L 127.322449 119.865148 
L 129.6 120.196917 
L 129.6 120.306825 
L 129.6 120.306825 
L 127.322449 119.999348 
L 125.044898 119.763261 
L 122.767347 119.72759 
L 120.489796 120.045192 
L 118.212245 120.833928 
L 115.934694 122.008146 
L 113.657143 123.416074 
L 111.379592 124.893504 
L 109.102041 126.271243 
L 106.82449 127.380609 
L 104.546939 128.059492 
L 102.269388 128.16 
L 99.991837 127.557474 
L 97.714286 126.160164 
L 95.436735 123.916133 
L 93.159184 120.816714 
L 90.881633 116.900811 
L 88.604082 112.262947 
L 86.326531 107.060357 
L 84.04898 101.515759 
L 81.771429 95.915928 
L 79.493878 90.606367 
L 77.216327 85.982007 
L 74.938776 82.46665 
L 72.661224 80.428376 
L 70.383673 79.785349 
L 68.106122 80.371057 
L 65.828571 82.001881 
L 63.55102 84.486603 
L 61.273469 87.629863 
L 58.995918 91.236404 
L 56.718367 95.115891 
L 54.440816 99.088089 
L 52.163265 102.988035 
L 49.885714 106.67084 
L 47.608163 110.016058 
L 45.330612 112.931307 
L 43.053061 115.355624 
L 40.77551 117.261631 
L 38.497959 118.656161 
L 36.220408 119.580731 
L 33.942857 120.1133 
L 31.665306 120.371813 
L 29.387755 120.5113 
L 27.110204 120.666745 
L 24.832653 120.798732 
L 22.555102 120.845162 
L 20.277551 120.775391 
L 18 120.586807 
z
" style="fill:#66c2a5;fill-opacity:0.2;"/>
   </g>
   <g id="matplotlib.axis_3">
    <g id="xtick_6">
     <g id="line2d_12">
      <g>
       <use style="fill:#a9a9a9;stroke:#a9a9a9;stroke-width:2;" x="29.387755" xlink:href="#mfe93e0b078" y="122.28518"/>
      </g>
     </g>
    </g>
    <g id="xtick_7">
     <g id="line2d_13">
      <g>
       <use style="fill:#a9a9a9;stroke:#a9a9a9;stroke-width:2;" x="52.163265" xlink:href="#mfe93e0b078" y="122.28518"/>
      </g>
     </g>
    </g>
    <g id="xtick_8">
     <g id="line2d_14">
      <g>
       <use style="fill:#a9a9a9;stroke:#a9a9a9;stroke-width:2;" x="74.938776" xlink:href="#mfe93e0b078" y="122.28518"/>
      </g>
     </g>
    </g>
    <g id="xtick_9">
     <g id="line2d_15">
      <g>
       <use style="fill:#a9a9a9;stroke:#a9a9a9;stroke-width:2;" x="97.714286" xlink:href="#mfe93e0b078" y="122.28518"/>
      </g>
     </g>
    </g>
    <g id="xtick_10">
     <g id="line2d_16">
      <g>
       <use style="fill:#a9a9a9;stroke:#a9a9a9;stroke-width:2;" x="120.489796" xlink:href="#mfe93e0b078" y="122.28518"/>
      </g>
     </g>
    </g>
   </g>
   <g id="matplotlib.axis_4"/>
   <g id="line2d_17">
    <path clip-path="url(#p24aeb68fc5)" d="M 18 120.544679 
L 20.277551 120.742867 
L 22.555102 120.814043 
L 24.832653 120.761028 
L 27.110204 120.619864 
L 29.387755 120.45643 
L 31.665306 120.311671 
L 33.942857 120.048377 
L 36.220408 119.509462 
L 38.497959 118.572858 
L 40.77551 117.153995 
L 43.053061 115.206822 
L 45.330612 112.723586 
L 47.608163 109.733577 
L 49.885714 106.300995 
L 52.163265 102.522099 
L 54.440816 98.521782 
L 56.718367 94.449655 
L 58.995918 90.47551 
L 61.273469 86.784197 
L 63.55102 83.570225 
L 65.828571 81.0324 
L 68.106122 79.368852 
L 70.383673 78.772674 
L 72.661224 79.428393 
L 74.938776 81.502395 
L 77.216327 85.075088 
L 79.493878 89.774411 
L 81.771429 95.171774 
L 84.04898 100.867025 
L 86.326531 106.509098 
L 88.604082 111.805378 
L 90.881633 116.527033 
L 93.159184 120.510689 
L 95.436735 123.656976 
L 97.714286 125.926524 
L 99.991837 127.334006 
L 102.269388 127.940784 
L 104.546939 127.846487 
L 106.82449 127.179953 
L 109.102041 126.090173 
L 111.379592 124.737841 
L 113.657143 123.288044 
L 115.934694 121.904472 
L 118.212245 120.745438 
L 120.489796 119.961792 
L 122.767347 119.646343 
L 125.044898 119.687035 
L 127.322449 119.932248 
L 129.6 120.251871 
" style="fill:none;stroke:#66c2a5;stroke-linecap:square;stroke-width:2;"/>
   </g>
   <g id="patch_8">
    <path d="M 74.938776 128.16 
L 74.938776 77.76 
" style="fill:none;stroke:#a9a9a9;stroke-linecap:square;stroke-linejoin:miter;stroke-width:2;"/>
   </g>
   <g id="patch_9">
    <path d="M 129.6 128.16 
L 129.6 77.76 
" style="fill:none;"/>
   </g>
   <g id="patch_10">
    <path d="M 18 122.28518 
L 129.6 122.28518 
" style="fill:none;stroke:#a9a9a9;stroke-linecap:square;stroke-linejoin:miter;stroke-width:2;"/>
   </g>
   <g id="patch_11">
    <path d="M 18 77.76 
L 129.6 77.76 
" style="fill:none;"/>
   </g>
   <g id="legend_2">
    <g id="line2d_18">
     <path d="M 101.475312 86.928906 
L 115.475312 86.928906 
" style="fill:none;stroke:#66c2a5;stroke-linecap:square;stroke-width:2;"/>
    </g>
    <g id="line2d_19"/>
    <g id="text_3">
     <!--   -->
     <g transform="translate(121.075312 89.378906)scale(0.07 -0.07)">
      <use xlink:href="#DejaVuSans-32"/>
     </g>
    </g>
   </g>
  </g>
 </g>
 <defs>
  <clipPath id="pb9146d2cdc">
   <rect height="50.4" width="111.6" x="18" y="17.28"/>
  </clipPath>
  <clipPath id="p24aeb68fc5">
   <rect height="50.4" width="111.6" x="18" y="77.76"/>
  </clipPath>
 </defs>
</svg>
