<?xml version="1.0" encoding="utf-8" standalone="no"?>
<!DOCTYPE svg PUBLIC "-//W3C//DTD SVG 1.1//EN"
  "http://www.w3.org/Graphics/SVG/1.1/DTD/svg11.dtd">
<!-- Created with matplotlib (https://matplotlib.org/) -->
<svg height="144pt" version="1.1" viewBox="0 0 144 144" width="144pt" xmlns="http://www.w3.org/2000/svg" xmlns:xlink="http://www.w3.org/1999/xlink">
 <metadata>
  <rdf:RDF xmlns:cc="http://creativecommons.org/ns#" xmlns:dc="http://purl.org/dc/elements/1.1/" xmlns:rdf="http://www.w3.org/1999/02/22-rdf-syntax-ns#">
   <cc:Work>
    <dc:type rdf:resource="http://purl.org/dc/dcmitype/StillImage"/>
    <dc:date>2021-10-11T19:00:23.908130</dc:date>
    <dc:format>image/svg+xml</dc:format>
    <dc:creator>
     <cc:Agent>
      <dc:title>Matplotlib v3.3.2, https://matplotlib.org/</dc:title>
     </cc:Agent>
    </dc:creator>
   </cc:Work>
  </rdf:RDF>
 </metadata>
 <defs>
  <style type="text/css">*{stroke-linecap:butt;stroke-linejoin:round;}</style>
 </defs>
 <g id="figure_1">
  <g id="patch_1">
   <path d="M 0 144 
L 144 144 
L 144 0 
L 0 0 
z
" style="fill:none;"/>
  </g>
  <g id="axes_1">
   <g id="patch_2">
    <path d="M 18 67.68 
L 129.6 67.68 
L 129.6 17.28 
L 18 17.28 
z
" style="fill:none;"/>
   </g>
   <g id="PolyCollection_1">
    <path clip-path="url(#pec7e00c9d7)" d="M 18 63.449458 
L 18 63.449458 
L 20.277551 63.449458 
L 22.555102 63.449458 
L 24.832653 63.449458 
L 27.110204 63.449458 
L 29.387755 63.449438 
L 31.665306 63.37202 
L 33.942857 63.191807 
L 36.220408 62.780382 
L 38.497959 62.027857 
L 40.77551 60.825043 
L 43.053061 58.909948 
L 45.330612 56.358865 
L 47.608163 53.237176 
L 49.885714 49.425555 
L 52.163265 44.239178 
L 54.440816 39.453525 
L 56.718367 33.538435 
L 58.995918 28.515389 
L 61.273469 23.581916 
L 63.55102 20.230746 
L 65.828571 18.032305 
L 68.106122 17.28 
L 70.383673 19.02097 
L 72.661224 22.122168 
L 74.938776 42.865994 
L 77.216327 33.741056 
L 79.493878 40.514536 
L 81.771429 46.330642 
L 84.04898 51.565982 
L 86.326531 56.076432 
L 88.604082 60.794779 
L 90.881633 62.172394 
L 93.159184 62.790101 
L 95.436735 64.424948 
L 97.714286 64.994491 
L 99.991837 64.162788 
L 102.269388 64.060131 
L 104.546939 63.543457 
L 106.82449 63.121176 
L 109.102041 63.250516 
L 111.379592 63.144701 
L 113.657143 63.199035 
L 115.934694 63.28467 
L 118.212245 63.409483 
L 120.489796 63.44928 
L 122.767347 63.449458 
L 125.044898 63.449458 
L 127.322449 63.449458 
L 129.6 63.449458 
L 129.6 63.449458 
L 129.6 63.449458 
L 127.322449 63.449458 
L 125.044898 63.449458 
L 122.767347 63.449458 
L 120.489796 63.449872 
L 118.212245 63.510685 
L 115.934694 63.612126 
L 113.657143 63.761039 
L 111.379592 63.977339 
L 109.102041 64.237199 
L 106.82449 64.813818 
L 104.546939 65.257865 
L 102.269388 65.853302 
L 99.991837 66.852187 
L 97.714286 67.68 
L 95.436735 67.492483 
L 93.159184 67.509434 
L 90.881633 66.46087 
L 88.604082 64.573609 
L 86.326531 61.580037 
L 84.04898 57.935491 
L 81.771429 51.544623 
L 79.493878 46.597656 
L 77.216327 40.212795 
L 74.938776 45.737279 
L 72.661224 28.62302 
L 70.383673 25.40237 
L 68.106122 24.792552 
L 65.828571 25.122235 
L 63.55102 25.947533 
L 61.273469 28.621529 
L 58.995918 33.803004 
L 56.718367 39.068813 
L 54.440816 43.07172 
L 52.163265 47.37293 
L 49.885714 52.265786 
L 47.608163 55.786497 
L 45.330612 58.469008 
L 43.053061 60.958846 
L 40.77551 61.890883 
L 38.497959 62.856451 
L 36.220408 63.408682 
L 33.942857 63.471853 
L 31.665306 63.47902 
L 29.387755 63.44947 
L 27.110204 63.449458 
L 24.832653 63.449458 
L 22.555102 63.449458 
L 20.277551 63.449458 
L 18 63.449458 
z
" style="fill:#fc8d62;fill-opacity:0.2;"/>
   </g>
   <g id="PolyCollection_2">
    <path clip-path="url(#pec7e00c9d7)" d="M 18 63.449458 
L 18 63.449458 
L 20.277551 63.449458 
L 22.555102 63.449458 
L 24.832653 63.449458 
L 27.110204 63.449458 
L 29.387755 63.449435 
L 31.665306 63.382991 
L 33.942857 63.118992 
L 36.220408 62.675281 
L 38.497959 61.898384 
L 40.77551 61.264847 
L 43.053061 60.071658 
L 45.330612 58.568539 
L 47.608163 56.58048 
L 49.885714 54.975398 
L 52.163265 52.749521 
L 54.440816 50.531965 
L 56.718367 47.874816 
L 58.995918 45.776229 
L 61.273469 42.586157 
L 63.55102 41.254023 
L 65.828571 39.637017 
L 68.106122 37.403217 
L 70.383673 36.213881 
L 72.661224 35.876893 
L 74.938776 46.386144 
L 77.216327 36.190901 
L 79.493878 36.790756 
L 81.771429 38.729961 
L 84.04898 40.594732 
L 86.326531 43.137543 
L 88.604082 45.373812 
L 90.881633 48.0088 
L 93.159184 50.104504 
L 95.436735 52.55723 
L 97.714286 54.79732 
L 99.991837 57.114879 
L 102.269388 58.369209 
L 104.546939 60.07109 
L 106.82449 61.00595 
L 109.102041 61.822364 
L 111.379592 62.322188 
L 113.657143 62.936352 
L 115.934694 63.294315 
L 118.212245 63.388985 
L 120.489796 63.44925 
L 122.767347 63.449458 
L 125.044898 63.449458 
L 127.322449 63.449458 
L 129.6 63.449458 
L 129.6 63.449458 
L 129.6 63.449458 
L 127.322449 63.449458 
L 125.044898 63.449458 
L 122.767347 63.449458 
L 120.489796 63.449862 
L 118.212245 63.50962 
L 115.934694 63.626581 
L 113.657143 63.624926 
L 111.379592 63.594817 
L 109.102041 63.233939 
L 106.82449 62.582299 
L 104.546939 61.955262 
L 102.269388 60.769995 
L 99.991837 59.529396 
L 97.714286 58.006702 
L 95.436735 56.011734 
L 93.159184 54.472094 
L 90.881633 52.611698 
L 88.604082 50.309338 
L 86.326531 47.742326 
L 84.04898 45.320482 
L 81.771429 44.413945 
L 79.493878 42.328221 
L 77.216327 41.228327 
L 74.938776 48.851873 
L 72.661224 41.602797 
L 70.383673 42.238139 
L 68.106122 42.552016 
L 65.828571 44.4085 
L 63.55102 46.361281 
L 61.273469 48.005333 
L 58.995918 49.534827 
L 56.718367 51.791869 
L 54.440816 54.32019 
L 52.163265 56.121954 
L 49.885714 57.716801 
L 47.608163 59.430134 
L 45.330612 60.810042 
L 43.053061 61.78668 
L 40.77551 62.577242 
L 38.497959 63.235428 
L 36.220408 63.452512 
L 33.942857 63.457812 
L 31.665306 63.482613 
L 29.387755 63.449473 
L 27.110204 63.449458 
L 24.832653 63.449458 
L 22.555102 63.449458 
L 20.277551 63.449458 
L 18 63.449458 
z
" style="fill:#fc8d62;fill-opacity:0.2;"/>
   </g>
   <g id="matplotlib.axis_1">
    <g id="xtick_1">
     <g id="line2d_1">
      <defs>
       <path d="M 0 0 
L 0 3.5 
" id="m676bcb8bf6" style="stroke:#a9a9a9;stroke-width:2;"/>
      </defs>
      <g>
       <use style="fill:#a9a9a9;stroke:#a9a9a9;stroke-width:2;" x="29.387755" xlink:href="#m676bcb8bf6" y="63.449458"/>
      </g>
     </g>
    </g>
    <g id="xtick_2">
     <g id="line2d_2">
      <g>
       <use style="fill:#a9a9a9;stroke:#a9a9a9;stroke-width:2;" x="52.163265" xlink:href="#m676bcb8bf6" y="63.449458"/>
      </g>
     </g>
    </g>
    <g id="xtick_3">
     <g id="line2d_3">
      <g>
       <use style="fill:#a9a9a9;stroke:#a9a9a9;stroke-width:2;" x="74.938776" xlink:href="#m676bcb8bf6" y="63.449458"/>
      </g>
     </g>
    </g>
    <g id="xtick_4">
     <g id="line2d_4">
      <g>
       <use style="fill:#a9a9a9;stroke:#a9a9a9;stroke-width:2;" x="97.714286" xlink:href="#m676bcb8bf6" y="63.449458"/>
      </g>
     </g>
    </g>
    <g id="xtick_5">
     <g id="line2d_5">
      <g>
       <use style="fill:#a9a9a9;stroke:#a9a9a9;stroke-width:2;" x="120.489796" xlink:href="#m676bcb8bf6" y="63.449458"/>
      </g>
     </g>
    </g>
   </g>
   <g id="matplotlib.axis_2"/>
   <g id="line2d_6">
    <path clip-path="url(#pec7e00c9d7)" d="M 18 63.449458 
L 20.277551 63.449458 
L 22.555102 63.449458 
L 24.832653 63.449458 
L 27.110204 63.449458 
L 29.387755 63.449454 
L 31.665306 63.42552 
L 33.942857 63.33183 
L 36.220408 63.094532 
L 38.497959 62.442154 
L 40.77551 61.357963 
L 43.053061 59.934397 
L 45.330612 57.413937 
L 47.608163 54.511836 
L 49.885714 50.845671 
L 52.163265 45.806054 
L 54.440816 41.262623 
L 56.718367 36.303624 
L 58.995918 31.159196 
L 61.273469 26.101722 
L 63.55102 23.089139 
L 65.828571 21.57727 
L 68.106122 21.036276 
L 70.383673 22.21167 
L 72.661224 25.372594 
L 74.938776 44.301636 
L 77.216327 36.976926 
L 79.493878 43.556096 
L 81.771429 48.937632 
L 84.04898 54.750737 
L 86.326531 58.828234 
L 88.604082 62.684194 
L 90.881633 64.316632 
L 93.159184 65.149768 
L 95.436735 65.958715 
L 97.714286 66.337245 
L 99.991837 65.507488 
L 102.269388 64.956716 
L 104.546939 64.400661 
L 106.82449 63.967497 
L 109.102041 63.743858 
L 111.379592 63.56102 
L 113.657143 63.480037 
L 115.934694 63.448398 
L 118.212245 63.460084 
L 120.489796 63.449576 
L 122.767347 63.449458 
L 125.044898 63.449458 
L 127.322449 63.449458 
L 129.6 63.449458 
" style="fill:none;stroke:#fc8d62;stroke-linecap:square;stroke-width:2;"/>
   </g>
   <g id="line2d_7">
    <path clip-path="url(#pec7e00c9d7)" d="M 18 63.449458 
L 20.277551 63.449458 
L 22.555102 63.449458 
L 24.832653 63.449458 
L 27.110204 63.449458 
L 29.387755 63.449454 
L 31.665306 63.432802 
L 33.942857 63.288402 
L 36.220408 63.063896 
L 38.497959 62.566906 
L 40.77551 61.921044 
L 43.053061 60.929169 
L 45.330612 59.689291 
L 47.608163 58.005307 
L 49.885714 56.3461 
L 52.163265 54.435738 
L 54.440816 52.426078 
L 56.718367 49.833343 
L 58.995918 47.655528 
L 61.273469 45.295745 
L 63.55102 43.807652 
L 65.828571 42.022758 
L 68.106122 39.977617 
L 70.383673 39.22601 
L 72.661224 38.739845 
L 74.938776 47.619009 
L 77.216327 38.709614 
L 79.493878 39.559488 
L 81.771429 41.571953 
L 84.04898 42.957607 
L 86.326531 45.439934 
L 88.604082 47.841575 
L 90.881633 50.310249 
L 93.159184 52.288299 
L 95.436735 54.284482 
L 97.714286 56.402011 
L 99.991837 58.322137 
L 102.269388 59.569602 
L 104.546939 61.013176 
L 106.82449 61.794125 
L 109.102041 62.528151 
L 111.379592 62.958502 
L 113.657143 63.280639 
L 115.934694 63.460448 
L 118.212245 63.449303 
L 120.489796 63.449556 
L 122.767347 63.449458 
L 125.044898 63.449458 
L 127.322449 63.449458 
L 129.6 63.449458 
" style="fill:none;stroke:#fc8d62;stroke-dasharray:1.5,1.5;stroke-dashoffset:0;stroke-opacity:0.7;stroke-width:1.5;"/>
   </g>
   <g id="patch_3">
    <path d="M 74.938776 67.68 
L 74.938776 17.28 
" style="fill:none;stroke:#a9a9a9;stroke-linecap:square;stroke-linejoin:miter;stroke-width:2;"/>
   </g>
   <g id="patch_4">
    <path d="M 129.6 67.68 
L 129.6 17.28 
" style="fill:none;"/>
   </g>
   <g id="patch_5">
    <path d="M 18 63.449458 
L 129.6 63.449458 
" style="fill:none;stroke:#a9a9a9;stroke-linecap:square;stroke-linejoin:miter;stroke-width:2;"/>
   </g>
   <g id="patch_6">
    <path d="M 18 17.28 
L 129.6 17.28 
" style="fill:none;"/>
   </g>
   <g id="legend_1">
    <g id="line2d_8">
     <path d="M 87.67 26.448906 
L 101.67 26.448906 
" style="fill:none;stroke:#fc8d62;stroke-linecap:square;stroke-width:2;"/>
    </g>
    <g id="line2d_9"/>
    <g id="text_1">
     <!-- $\theta$ -->
     <g transform="translate(107.27 28.898906)scale(0.07 -0.07)">
      <defs>
       <path d="M 45.515625 34.671875 
L 14.453125 34.671875 
Q 12.359375 20.0625 14.5 13.875 
Q 17.1875 6.25 24.46875 6.25 
Q 31.78125 6.25 37.359375 13.921875 
Q 42.234375 20.65625 45.515625 34.671875 
z
M 47.015625 42.96875 
Q 48.34375 56.84375 46.625 61.71875 
Q 43.953125 69.4375 36.765625 69.4375 
Q 29.296875 69.4375 23.828125 61.8125 
Q 19.53125 55.671875 16.15625 42.96875 
z
M 38.1875 76.765625 
Q 49.90625 76.765625 54.59375 66.40625 
Q 59.28125 56.109375 55.71875 37.84375 
Q 52.203125 19.625 43.453125 9.28125 
Q 34.765625 -1.125 23.046875 -1.125 
Q 11.28125 -1.125 6.640625 9.28125 
Q 2 19.625 5.515625 37.84375 
Q 9.078125 56.109375 17.71875 66.40625 
Q 26.421875 76.765625 38.1875 76.765625 
z
" id="DejaVuSans-Oblique-952"/>
      </defs>
      <use transform="translate(0 0.234375)" xlink:href="#DejaVuSans-Oblique-952"/>
     </g>
    </g>
    <g id="line2d_10">
     <path d="M 87.67 36.723594 
L 101.67 36.723594 
" style="fill:none;stroke:#fc8d62;stroke-dasharray:1.5,1.5;stroke-dashoffset:0;stroke-opacity:0.7;stroke-width:1.5;"/>
    </g>
    <g id="line2d_11"/>
    <g id="text_2">
     <!-- No $\theta$ -->
     <g transform="translate(107.27 39.173594)scale(0.07 -0.07)">
      <defs>
       <path d="M 9.8125 72.90625 
L 23.09375 72.90625 
L 55.421875 11.921875 
L 55.421875 72.90625 
L 64.984375 72.90625 
L 64.984375 0 
L 51.703125 0 
L 19.390625 60.984375 
L 19.390625 0 
L 9.8125 0 
z
" id="DejaVuSans-78"/>
       <path d="M 30.609375 48.390625 
Q 23.390625 48.390625 19.1875 42.75 
Q 14.984375 37.109375 14.984375 27.296875 
Q 14.984375 17.484375 19.15625 11.84375 
Q 23.34375 6.203125 30.609375 6.203125 
Q 37.796875 6.203125 41.984375 11.859375 
Q 46.1875 17.53125 46.1875 27.296875 
Q 46.1875 37.015625 41.984375 42.703125 
Q 37.796875 48.390625 30.609375 48.390625 
z
M 30.609375 56 
Q 42.328125 56 49.015625 48.375 
Q 55.71875 40.765625 55.71875 27.296875 
Q 55.71875 13.875 49.015625 6.21875 
Q 42.328125 -1.421875 30.609375 -1.421875 
Q 18.84375 -1.421875 12.171875 6.21875 
Q 5.515625 13.875 5.515625 27.296875 
Q 5.515625 40.765625 12.171875 48.375 
Q 18.84375 56 30.609375 56 
z
" id="DejaVuSans-111"/>
       <path id="DejaVuSans-32"/>
      </defs>
      <use transform="translate(0 0.234375)" xlink:href="#DejaVuSans-78"/>
      <use transform="translate(74.804688 0.234375)" xlink:href="#DejaVuSans-111"/>
      <use transform="translate(135.986328 0.234375)" xlink:href="#DejaVuSans-32"/>
      <use transform="translate(167.773438 0.234375)" xlink:href="#DejaVuSans-Oblique-952"/>
     </g>
    </g>
   </g>
  </g>
  <g id="axes_2">
   <g id="patch_7">
    <path d="M 18 128.16 
L 129.6 128.16 
L 129.6 77.76 
L 18 77.76 
z
" style="fill:none;"/>
   </g>
   <g id="PolyCollection_3">
    <path clip-path="url(#pd47b70d8f9)" d="M 18 121.056005 
L 18 120.974212 
L 20.277551 121.277308 
L 22.555102 121.428519 
L 24.832653 121.449049 
L 27.110204 121.402872 
L 29.387755 121.386102 
L 31.665306 121.458104 
L 33.942857 121.458926 
L 36.220408 121.204282 
L 38.497959 120.546432 
L 40.77551 119.370842 
L 43.053061 117.605012 
L 45.330612 115.227128 
L 47.608163 112.257808 
L 49.885714 108.756211 
L 52.163265 104.816852 
L 54.440816 100.566944 
L 56.718367 96.162758 
L 58.995918 91.785589 
L 61.273469 87.636774 
L 63.55102 83.93242 
L 65.828571 80.898096 
L 68.106122 78.763897 
L 70.383673 77.76 
L 72.661224 78.11288 
L 74.938776 80.030639 
L 77.216327 83.635521 
L 79.493878 88.493328 
L 81.771429 94.120417 
L 84.04898 100.069168 
L 86.326531 105.953104 
L 88.604082 111.4551 
L 90.881633 116.331016 
L 93.159184 120.40963 
L 95.436735 123.590619 
L 97.714286 125.841239 
L 99.991837 127.1903 
L 102.269388 127.716553 
L 104.546939 127.535779 
L 106.82449 126.789403 
L 109.102041 125.635398 
L 111.379592 124.240403 
L 113.657143 122.773216 
L 115.934694 121.399978 
L 118.212245 120.282956 
L 120.489796 119.585525 
L 122.767347 119.41395 
L 125.044898 119.632734 
L 127.322449 120.060342 
L 129.6 120.545141 
L 129.6 120.65286 
L 129.6 120.65286 
L 127.322449 120.193571 
L 125.044898 119.785933 
L 122.767347 119.578422 
L 120.489796 119.753948 
L 118.212245 120.45955 
L 115.934694 121.604691 
L 113.657143 123.02586 
L 111.379592 124.548872 
L 109.102041 125.996036 
L 106.82449 127.191074 
L 104.546939 127.964354 
L 102.269388 128.16 
L 99.991837 127.644511 
L 97.714286 126.316064 
L 95.436735 124.112222 
L 93.159184 121.015492 
L 90.881633 117.058731 
L 88.604082 112.334136 
L 86.326531 107.001683 
L 84.04898 101.29413 
L 81.771429 95.517669 
L 79.493878 90.048451 
L 77.216327 85.324355 
L 74.938776 81.820064 
L 72.661224 79.963184 
L 70.383673 79.627769 
L 68.106122 80.605409 
L 65.828571 82.67133 
L 63.55102 85.598919 
L 61.273469 89.163357 
L 58.995918 93.145861 
L 56.718367 97.338388 
L 54.440816 101.548508 
L 52.163265 105.604229 
L 49.885714 109.358354 
L 47.608163 112.692437 
L 45.330612 115.519855 
L 43.053061 117.789114 
L 40.77551 119.48579 
L 38.497959 120.632738 
L 36.220408 121.284517 
L 33.942857 121.536932 
L 31.665306 121.534353 
L 29.387755 121.461791 
L 27.110204 121.4742 
L 24.832653 121.511951 
L 22.555102 121.485278 
L 20.277551 121.33975 
L 18 121.056005 
z
" style="fill:#66c2a5;fill-opacity:0.2;"/>
   </g>
   <g id="matplotlib.axis_3">
    <g id="xtick_6">
     <g id="line2d_12">
      <g>
       <use style="fill:#a9a9a9;stroke:#a9a9a9;stroke-width:2;" x="29.387755" xlink:href="#m676bcb8bf6" y="122.063395"/>
      </g>
     </g>
    </g>
    <g id="xtick_7">
     <g id="line2d_13">
      <g>
       <use style="fill:#a9a9a9;stroke:#a9a9a9;stroke-width:2;" x="52.163265" xlink:href="#m676bcb8bf6" y="122.063395"/>
      </g>
     </g>
    </g>
    <g id="xtick_8">
     <g id="line2d_14">
      <g>
       <use style="fill:#a9a9a9;stroke:#a9a9a9;stroke-width:2;" x="74.938776" xlink:href="#m676bcb8bf6" y="122.063395"/>
      </g>
     </g>
    </g>
    <g id="xtick_9">
     <g id="line2d_15">
      <g>
       <use style="fill:#a9a9a9;stroke:#a9a9a9;stroke-width:2;" x="97.714286" xlink:href="#m676bcb8bf6" y="122.063395"/>
      </g>
     </g>
    </g>
    <g id="xtick_10">
     <g id="line2d_16">
      <g>
       <use style="fill:#a9a9a9;stroke:#a9a9a9;stroke-width:2;" x="120.489796" xlink:href="#m676bcb8bf6" y="122.063395"/>
      </g>
     </g>
    </g>
   </g>
   <g id="matplotlib.axis_4"/>
   <g id="line2d_17">
    <path clip-path="url(#pd47b70d8f9)" d="M 18 121.015109 
L 20.277551 121.308529 
L 22.555102 121.456898 
L 24.832653 121.4805 
L 27.110204 121.438536 
L 29.387755 121.423947 
L 31.665306 121.496229 
L 33.942857 121.497929 
L 36.220408 121.244399 
L 38.497959 120.589585 
L 40.77551 119.428316 
L 43.053061 117.697063 
L 45.330612 115.373492 
L 47.608163 112.475122 
L 49.885714 109.057283 
L 52.163265 105.21054 
L 54.440816 101.057726 
L 56.718367 96.750573 
L 58.995918 92.465725 
L 61.273469 88.400066 
L 63.55102 84.765669 
L 65.828571 81.784713 
L 68.106122 79.684653 
L 70.383673 78.693884 
L 72.661224 79.038032 
L 74.938776 80.925352 
L 77.216327 84.479938 
L 79.493878 89.270889 
L 81.771429 94.819043 
L 84.04898 100.681649 
L 86.326531 106.477393 
L 88.604082 111.894618 
L 90.881633 116.694874 
L 93.159184 120.712561 
L 95.436735 123.851421 
L 97.714286 126.078651 
L 99.991837 127.417405 
L 102.269388 127.938277 
L 104.546939 127.750066 
L 106.82449 126.990238 
L 109.102041 125.815717 
L 111.379592 124.394637 
L 113.657143 122.899538 
L 115.934694 121.502335 
L 118.212245 120.371253 
L 120.489796 119.669736 
L 122.767347 119.496186 
L 125.044898 119.709333 
L 127.322449 120.126956 
L 129.6 120.599 
" style="fill:none;stroke:#66c2a5;stroke-linecap:square;stroke-width:2;"/>
   </g>
   <g id="patch_8">
    <path d="M 74.938776 128.16 
L 74.938776 77.76 
" style="fill:none;stroke:#a9a9a9;stroke-linecap:square;stroke-linejoin:miter;stroke-width:2;"/>
   </g>
   <g id="patch_9">
    <path d="M 129.6 128.16 
L 129.6 77.76 
" style="fill:none;"/>
   </g>
   <g id="patch_10">
    <path d="M 18 122.063395 
L 129.6 122.063395 
" style="fill:none;stroke:#a9a9a9;stroke-linecap:square;stroke-linejoin:miter;stroke-width:2;"/>
   </g>
   <g id="patch_11">
    <path d="M 18 77.76 
L 129.6 77.76 
" style="fill:none;"/>
   </g>
  </g>
 </g>
 <defs>
  <clipPath id="pec7e00c9d7">
   <rect height="50.4" width="111.6" x="18" y="17.28"/>
  </clipPath>
  <clipPath id="pd47b70d8f9">
   <rect height="50.4" width="111.6" x="18" y="77.76"/>
  </clipPath>
 </defs>
</svg>
