<?xml version="1.0" encoding="utf-8" standalone="no"?>
<!DOCTYPE svg PUBLIC "-//W3C//DTD SVG 1.1//EN"
  "http://www.w3.org/Graphics/SVG/1.1/DTD/svg11.dtd">
<!-- Created with matplotlib (https://matplotlib.org/) -->
<svg height="144pt" version="1.1" viewBox="0 0 144 144" width="144pt" xmlns="http://www.w3.org/2000/svg" xmlns:xlink="http://www.w3.org/1999/xlink">
 <metadata>
  <rdf:RDF xmlns:cc="http://creativecommons.org/ns#" xmlns:dc="http://purl.org/dc/elements/1.1/" xmlns:rdf="http://www.w3.org/1999/02/22-rdf-syntax-ns#">
   <cc:Work>
    <dc:type rdf:resource="http://purl.org/dc/dcmitype/StillImage"/>
    <dc:date>2021-10-14T21:17:56.019748</dc:date>
    <dc:format>image/svg+xml</dc:format>
    <dc:creator>
     <cc:Agent>
      <dc:title>Matplotlib v3.3.2, https://matplotlib.org/</dc:title>
     </cc:Agent>
    </dc:creator>
   </cc:Work>
  </rdf:RDF>
 </metadata>
 <defs>
  <style type="text/css">*{stroke-linecap:butt;stroke-linejoin:round;}</style>
 </defs>
 <g id="figure_1">
  <g id="patch_1">
   <path d="M 0 144 
L 144 144 
L 144 0 
L 0 0 
z
" style="fill:none;"/>
  </g>
  <g id="axes_1">
   <g id="patch_2">
    <path d="M 18 67.68 
L 129.6 67.68 
L 129.6 17.28 
L 18 17.28 
z
" style="fill:none;"/>
   </g>
   <g id="PolyCollection_1">
    <path clip-path="url(#p034875cd16)" d="M 18 24.08859 
L 18 24.08859 
L 20.277551 24.08859 
L 22.555102 24.08859 
L 24.832653 24.08859 
L 27.110204 24.08859 
L 29.387755 24.088168 
L 31.665306 24.021093 
L 33.942857 23.844649 
L 36.220408 23.730208 
L 38.497959 23.818944 
L 40.77551 22.871446 
L 43.053061 22.521518 
L 45.330612 21.705473 
L 47.608163 20.760094 
L 49.885714 20.514977 
L 52.163265 19.193014 
L 54.440816 17.28 
L 56.718367 18.887442 
L 58.995918 18.626493 
L 61.273469 19.29454 
L 63.55102 21.068311 
L 65.828571 24.652095 
L 68.106122 28.779161 
L 70.383673 33.490601 
L 72.661224 39.863179 
L 74.938776 49.100653 
L 77.216327 50.392141 
L 79.493878 53.571544 
L 81.771429 56.43874 
L 84.04898 58.495081 
L 86.326531 58.842591 
L 88.604082 56.780039 
L 90.881633 53.872308 
L 93.159184 49.457209 
L 95.436735 46.28459 
L 97.714286 41.363968 
L 99.991837 37.062296 
L 102.269388 33.41302 
L 104.546939 30.273372 
L 106.82449 28.0601 
L 109.102041 25.924969 
L 111.379592 24.745703 
L 113.657143 24.220636 
L 115.934694 24.035664 
L 118.212245 24.043741 
L 120.489796 24.087955 
L 122.767347 24.08859 
L 125.044898 24.08859 
L 127.322449 24.08859 
L 129.6 24.08859 
L 129.6 24.08859 
L 129.6 24.08859 
L 127.322449 24.08859 
L 125.044898 24.08859 
L 122.767347 24.08859 
L 120.489796 24.089652 
L 118.212245 24.180152 
L 115.934694 24.503979 
L 113.657143 25.046318 
L 111.379592 25.750586 
L 109.102041 27.948343 
L 106.82449 30.128154 
L 104.546939 33.325335 
L 102.269388 37.285515 
L 99.991837 40.934587 
L 97.714286 46.265671 
L 95.436735 52.814755 
L 93.159184 55.691219 
L 90.881633 60.704293 
L 88.604082 64.672054 
L 86.326531 67.592854 
L 84.04898 67.68 
L 81.771429 67.128862 
L 79.493878 64.837236 
L 77.216327 60.159166 
L 74.938776 51.348237 
L 72.661224 49.963486 
L 70.383673 44.429686 
L 68.106122 39.106029 
L 65.828571 33.460542 
L 63.55102 28.822044 
L 61.273469 26.932541 
L 58.995918 25.051021 
L 56.718367 24.693473 
L 54.440816 22.999372 
L 52.163265 23.837093 
L 49.885714 24.358415 
L 47.608163 24.413619 
L 45.330612 24.671756 
L 43.053061 24.539374 
L 40.77551 24.843436 
L 38.497959 24.811517 
L 36.220408 24.516816 
L 33.942857 24.28606 
L 31.665306 24.153101 
L 29.387755 24.088854 
L 27.110204 24.08859 
L 24.832653 24.08859 
L 22.555102 24.08859 
L 20.277551 24.08859 
L 18 24.08859 
z
" style="fill:#fc8d62;fill-opacity:0.2;"/>
   </g>
   <g id="PolyCollection_2">
    <path clip-path="url(#p034875cd16)" d="M 18 24.08859 
L 18 24.08859 
L 20.277551 24.08859 
L 22.555102 24.08859 
L 24.832653 24.08859 
L 27.110204 24.08859 
L 29.387755 24.088155 
L 31.665306 23.986916 
L 33.942857 23.80638 
L 36.220408 23.755088 
L 38.497959 23.779557 
L 40.77551 23.924622 
L 43.053061 24.647146 
L 45.330612 25.100374 
L 47.608163 25.973456 
L 49.885714 28.212852 
L 52.163265 29.029744 
L 54.440816 30.309741 
L 56.718367 31.610984 
L 58.995918 34.899827 
L 61.273469 37.028088 
L 63.55102 39.368566 
L 65.828571 41.715919 
L 68.106122 43.576908 
L 70.383673 44.348683 
L 72.661224 47.242939 
L 74.938776 50.175661 
L 77.216327 45.800003 
L 79.493878 46.372752 
L 81.771429 47.049683 
L 84.04898 44.456752 
L 86.326531 42.019461 
L 88.604082 40.188308 
L 90.881633 37.976456 
L 93.159184 35.561404 
L 95.436735 33.870762 
L 97.714286 31.991208 
L 99.991837 29.598032 
L 102.269388 27.706272 
L 104.546939 26.928402 
L 106.82449 25.500725 
L 109.102041 24.648629 
L 111.379592 24.435616 
L 113.657143 23.938455 
L 115.934694 24.014595 
L 118.212245 24.0466 
L 120.489796 24.087977 
L 122.767347 24.08859 
L 125.044898 24.08859 
L 127.322449 24.08859 
L 129.6 24.08859 
L 129.6 24.08859 
L 129.6 24.08859 
L 127.322449 24.08859 
L 125.044898 24.08859 
L 122.767347 24.08859 
L 120.489796 24.089766 
L 118.212245 24.221408 
L 115.934694 24.539027 
L 113.657143 25.03794 
L 111.379592 25.779176 
L 109.102041 26.815916 
L 106.82449 27.915879 
L 104.546939 29.675752 
L 102.269388 31.906126 
L 99.991837 33.342462 
L 97.714286 36.242474 
L 95.436735 39.556648 
L 93.159184 43.122412 
L 90.881633 44.321571 
L 88.604082 47.44487 
L 86.326531 50.317734 
L 84.04898 51.817557 
L 81.771429 53.574122 
L 79.493878 55.731474 
L 77.216327 54.868325 
L 74.938776 52.381692 
L 72.661224 55.803393 
L 70.383673 53.317705 
L 68.106122 50.224233 
L 65.828571 49.10027 
L 63.55102 46.845977 
L 61.273469 44.307071 
L 58.995918 41.824961 
L 56.718367 38.926421 
L 54.440816 35.879242 
L 52.163265 33.555386 
L 49.885714 31.553799 
L 47.608163 29.995929 
L 45.330612 27.990973 
L 43.053061 26.921627 
L 40.77551 26.098994 
L 38.497959 25.044531 
L 36.220408 24.798209 
L 33.942857 24.342476 
L 31.665306 24.145465 
L 29.387755 24.088835 
L 27.110204 24.08859 
L 24.832653 24.08859 
L 22.555102 24.08859 
L 20.277551 24.08859 
L 18 24.08859 
z
" style="fill:#fc8d62;fill-opacity:0.2;"/>
   </g>
   <g id="matplotlib.axis_1">
    <g id="xtick_1">
     <g id="line2d_1">
      <defs>
       <path d="M 0 0 
L 0 3.5 
" id="m10681e26c5" style="stroke:#a9a9a9;stroke-width:2;"/>
      </defs>
      <g>
       <use style="fill:#a9a9a9;stroke:#a9a9a9;stroke-width:2;" x="29.387755" xlink:href="#m10681e26c5" y="24.08859"/>
      </g>
     </g>
    </g>
    <g id="xtick_2">
     <g id="line2d_2">
      <g>
       <use style="fill:#a9a9a9;stroke:#a9a9a9;stroke-width:2;" x="52.163265" xlink:href="#m10681e26c5" y="24.08859"/>
      </g>
     </g>
    </g>
    <g id="xtick_3">
     <g id="line2d_3">
      <g>
       <use style="fill:#a9a9a9;stroke:#a9a9a9;stroke-width:2;" x="74.938776" xlink:href="#m10681e26c5" y="24.08859"/>
      </g>
     </g>
    </g>
    <g id="xtick_4">
     <g id="line2d_4">
      <g>
       <use style="fill:#a9a9a9;stroke:#a9a9a9;stroke-width:2;" x="97.714286" xlink:href="#m10681e26c5" y="24.08859"/>
      </g>
     </g>
    </g>
    <g id="xtick_5">
     <g id="line2d_5">
      <g>
       <use style="fill:#a9a9a9;stroke:#a9a9a9;stroke-width:2;" x="120.489796" xlink:href="#m10681e26c5" y="24.08859"/>
      </g>
     </g>
    </g>
   </g>
   <g id="matplotlib.axis_2"/>
   <g id="line2d_6">
    <path clip-path="url(#p034875cd16)" d="M 18 24.08859 
L 20.277551 24.08859 
L 22.555102 24.08859 
L 24.832653 24.08859 
L 27.110204 24.08859 
L 29.387755 24.088511 
L 31.665306 24.087097 
L 33.942857 24.065354 
L 36.220408 24.123512 
L 38.497959 24.31523 
L 40.77551 23.857441 
L 43.053061 23.530446 
L 45.330612 23.188615 
L 47.608163 22.586857 
L 49.885714 22.436696 
L 52.163265 21.515053 
L 54.440816 20.139686 
L 56.718367 21.790458 
L 58.995918 21.838757 
L 61.273469 23.113541 
L 63.55102 24.945177 
L 65.828571 29.056318 
L 68.106122 33.942595 
L 70.383673 38.960143 
L 72.661224 44.913332 
L 74.938776 50.224445 
L 77.216327 55.275654 
L 79.493878 59.20439 
L 81.771429 61.783801 
L 84.04898 63.08754 
L 86.326531 63.217723 
L 88.604082 60.726047 
L 90.881633 57.288301 
L 93.159184 52.574214 
L 95.436735 49.549673 
L 97.714286 43.814819 
L 99.991837 38.998441 
L 102.269388 35.349268 
L 104.546939 31.799353 
L 106.82449 29.094127 
L 109.102041 26.936656 
L 111.379592 25.248145 
L 113.657143 24.633477 
L 115.934694 24.269822 
L 118.212245 24.111947 
L 120.489796 24.088804 
L 122.767347 24.08859 
L 125.044898 24.08859 
L 127.322449 24.08859 
L 129.6 24.08859 
" style="fill:none;stroke:#fc8d62;stroke-linecap:square;stroke-width:2;"/>
   </g>
   <g id="line2d_7">
    <path clip-path="url(#p034875cd16)" d="M 18 24.08859 
L 20.277551 24.08859 
L 22.555102 24.08859 
L 24.832653 24.08859 
L 27.110204 24.08859 
L 29.387755 24.088495 
L 31.665306 24.06619 
L 33.942857 24.074428 
L 36.220408 24.276648 
L 38.497959 24.412044 
L 40.77551 25.011808 
L 43.053061 25.784386 
L 45.330612 26.545673 
L 47.608163 27.984693 
L 49.885714 29.883325 
L 52.163265 31.292565 
L 54.440816 33.094491 
L 56.718367 35.268702 
L 58.995918 38.362394 
L 61.273469 40.66758 
L 63.55102 43.107271 
L 65.828571 45.408095 
L 68.106122 46.900571 
L 70.383673 48.833194 
L 72.661224 51.523166 
L 74.938776 51.278677 
L 77.216327 50.334164 
L 79.493878 51.052113 
L 81.771429 50.311902 
L 84.04898 48.137155 
L 86.326531 46.168598 
L 88.604082 43.816589 
L 90.881633 41.149014 
L 93.159184 39.341908 
L 95.436735 36.713705 
L 97.714286 34.116841 
L 99.991837 31.470247 
L 102.269388 29.806199 
L 104.546939 28.302077 
L 106.82449 26.708302 
L 109.102041 25.732272 
L 111.379592 25.107396 
L 113.657143 24.488197 
L 115.934694 24.276811 
L 118.212245 24.134004 
L 120.489796 24.088871 
L 122.767347 24.08859 
L 125.044898 24.08859 
L 127.322449 24.08859 
L 129.6 24.08859 
" style="fill:none;stroke:#fc8d62;stroke-dasharray:1.5,1.5;stroke-dashoffset:0;stroke-opacity:0.7;stroke-width:1.5;"/>
   </g>
   <g id="patch_3">
    <path d="M 74.938776 67.68 
L 74.938776 17.28 
" style="fill:none;stroke:#a9a9a9;stroke-linecap:square;stroke-linejoin:miter;stroke-width:2;"/>
   </g>
   <g id="patch_4">
    <path d="M 129.6 67.68 
L 129.6 17.28 
" style="fill:none;"/>
   </g>
   <g id="patch_5">
    <path d="M 18 24.08859 
L 129.6 24.08859 
" style="fill:none;stroke:#a9a9a9;stroke-linecap:square;stroke-linejoin:miter;stroke-width:2;"/>
   </g>
   <g id="patch_6">
    <path d="M 18 17.28 
L 129.6 17.28 
" style="fill:none;"/>
   </g>
   <g id="legend_1">
    <g id="line2d_8">
     <path d="M 24.3 47.199531 
L 38.3 47.199531 
" style="fill:none;stroke:#fc8d62;stroke-linecap:square;stroke-width:2;"/>
    </g>
    <g id="line2d_9"/>
    <g id="text_1">
     <!--   -->
     <g transform="translate(43.9 49.649531)scale(0.07 -0.07)">
      <defs>
       <path id="DejaVuSans-32"/>
      </defs>
      <use xlink:href="#DejaVuSans-32"/>
     </g>
    </g>
    <g id="line2d_10">
     <path d="M 24.3 57.474219 
L 38.3 57.474219 
" style="fill:none;stroke:#fc8d62;stroke-dasharray:1.5,1.5;stroke-dashoffset:0;stroke-opacity:0.7;stroke-width:1.5;"/>
    </g>
    <g id="line2d_11"/>
    <g id="text_2">
     <!--   -->
     <g transform="translate(43.9 59.924219)scale(0.07 -0.07)">
      <use xlink:href="#DejaVuSans-32"/>
     </g>
    </g>
   </g>
  </g>
  <g id="axes_2">
   <g id="patch_7">
    <path d="M 18 128.16 
L 129.6 128.16 
L 129.6 77.76 
L 18 77.76 
z
" style="fill:none;"/>
   </g>
   <g id="PolyCollection_3">
    <path clip-path="url(#p6702600137)" d="M 18 120.584404 
L 18 120.500038 
L 20.277551 120.710514 
L 22.555102 120.784697 
L 24.832653 120.725269 
L 27.110204 120.574154 
L 29.387755 120.401648 
L 31.665306 120.250314 
L 33.942857 119.981053 
L 36.220408 119.434645 
L 38.497959 118.484903 
L 40.77551 117.040605 
L 43.053061 115.050894 
L 45.330612 112.507452 
L 47.608163 109.441516 
L 49.885714 105.920545 
L 52.163265 102.044892 
L 54.440816 97.943999 
L 56.718367 93.772277 
L 58.995918 89.704351 
L 61.273469 85.929644 
L 63.55102 82.64675 
L 65.828571 80.057936 
L 68.106122 78.364037 
L 70.383673 77.76 
L 72.661224 78.431274 
L 74.938776 80.544132 
L 77.216327 84.177491 
L 79.493878 88.954661 
L 81.771429 94.441667 
L 84.04898 100.232719 
L 86.326531 105.971098 
L 88.604082 111.35852 
L 90.881633 116.160577 
L 93.159184 120.208591 
L 95.436735 123.39911 
L 97.714286 125.692102 
L 99.991837 127.107031 
L 102.269388 127.713906 
L 104.546939 127.620489 
L 106.82449 126.960738 
L 109.102041 125.885508 
L 111.379592 124.554604 
L 113.657143 123.129968 
L 115.934694 121.770182 
L 118.212245 120.628003 
L 120.489796 119.853126 
L 122.767347 119.544558 
L 125.044898 119.595385 
L 127.322449 119.854684 
L 129.6 120.190843 
L 129.6 120.301614 
L 129.6 120.301614 
L 127.322449 119.990285 
L 125.044898 119.749796 
L 122.767347 119.709845 
L 120.489796 120.024131 
L 118.212245 120.810969 
L 115.934694 121.984317 
L 113.657143 123.392272 
L 111.379592 124.871004 
L 109.102041 126.251616 
L 106.82449 127.365625 
L 104.546939 128.051003 
L 102.269388 128.16 
L 99.991837 127.568104 
L 97.714286 126.182906 
L 95.436735 123.950709 
L 93.159184 120.860654 
L 90.881633 116.950554 
L 88.604082 112.314977 
L 86.326531 107.111549 
L 84.04898 101.563433 
L 81.771429 95.957901 
L 79.493878 90.641184 
L 77.216327 86.009106 
L 74.938776 82.486509 
L 72.661224 80.442481 
L 70.383673 79.794977 
L 68.106122 80.37716 
L 65.828571 82.005145 
L 63.55102 84.487525 
L 61.273469 87.62882 
L 58.995918 91.233681 
L 56.718367 95.111713 
L 54.440816 99.082669 
L 52.163265 102.981605 
L 49.885714 106.663691 
L 47.608163 110.008518 
L 45.330612 112.92381 
L 43.053061 115.348479 
L 40.77551 117.255013 
L 38.497959 118.650433 
L 36.220408 119.575855 
L 33.942857 120.109144 
L 31.665306 120.368308 
L 29.387755 120.508492 
L 27.110204 120.664913 
L 24.832653 120.797658 
L 22.555102 120.844415 
L 20.277551 120.774418 
L 18 120.584404 
z
" style="fill:#66c2a5;fill-opacity:0.2;"/>
   </g>
   <g id="matplotlib.axis_3">
    <g id="xtick_6">
     <g id="line2d_12">
      <g>
       <use style="fill:#a9a9a9;stroke:#a9a9a9;stroke-width:2;" x="29.387755" xlink:href="#m10681e26c5" y="122.280134"/>
      </g>
     </g>
    </g>
    <g id="xtick_7">
     <g id="line2d_13">
      <g>
       <use style="fill:#a9a9a9;stroke:#a9a9a9;stroke-width:2;" x="52.163265" xlink:href="#m10681e26c5" y="122.280134"/>
      </g>
     </g>
    </g>
    <g id="xtick_8">
     <g id="line2d_14">
      <g>
       <use style="fill:#a9a9a9;stroke:#a9a9a9;stroke-width:2;" x="74.938776" xlink:href="#m10681e26c5" y="122.280134"/>
      </g>
     </g>
    </g>
    <g id="xtick_9">
     <g id="line2d_15">
      <g>
       <use style="fill:#a9a9a9;stroke:#a9a9a9;stroke-width:2;" x="97.714286" xlink:href="#m10681e26c5" y="122.280134"/>
      </g>
     </g>
    </g>
    <g id="xtick_10">
     <g id="line2d_16">
      <g>
       <use style="fill:#a9a9a9;stroke:#a9a9a9;stroke-width:2;" x="120.489796" xlink:href="#m10681e26c5" y="122.280134"/>
      </g>
     </g>
    </g>
   </g>
   <g id="matplotlib.axis_4"/>
   <g id="line2d_17">
    <path clip-path="url(#p6702600137)" d="M 18 120.542221 
L 20.277551 120.742466 
L 22.555102 120.814556 
L 24.832653 120.761464 
L 27.110204 120.619534 
L 29.387755 120.45507 
L 31.665306 120.309311 
L 33.942857 120.045099 
L 36.220408 119.50525 
L 38.497959 118.567668 
L 40.77551 117.147809 
L 43.053061 115.199686 
L 45.330612 112.715631 
L 47.608163 109.725017 
L 49.885714 106.292118 
L 52.163265 102.513248 
L 54.440816 98.513334 
L 56.718367 94.441995 
L 58.995918 90.469016 
L 61.273469 86.779232 
L 63.55102 83.567138 
L 65.828571 81.03154 
L 68.106122 79.370599 
L 70.383673 78.777488 
L 72.661224 79.436877 
L 74.938776 81.515321 
L 77.216327 85.093299 
L 79.493878 89.797923 
L 81.771429 95.199784 
L 84.04898 100.898076 
L 86.326531 106.541323 
L 88.604082 111.836748 
L 90.881633 116.555565 
L 93.159184 120.534622 
L 95.436735 123.67491 
L 97.714286 125.937504 
L 99.991837 127.337567 
L 102.269388 127.936953 
L 104.546939 127.835746 
L 106.82449 127.163181 
L 109.102041 126.068562 
L 111.379592 124.712804 
L 113.657143 123.26112 
L 115.934694 121.877249 
L 118.212245 120.719486 
L 120.489796 119.938628 
L 122.767347 119.627202 
L 125.044898 119.67259 
L 127.322449 119.922484 
L 129.6 120.246228 
" style="fill:none;stroke:#66c2a5;stroke-linecap:square;stroke-width:2;"/>
   </g>
   <g id="patch_8">
    <path d="M 74.938776 128.16 
L 74.938776 77.76 
" style="fill:none;stroke:#a9a9a9;stroke-linecap:square;stroke-linejoin:miter;stroke-width:2;"/>
   </g>
   <g id="patch_9">
    <path d="M 129.6 128.16 
L 129.6 77.76 
" style="fill:none;"/>
   </g>
   <g id="patch_10">
    <path d="M 18 122.280134 
L 129.6 122.280134 
" style="fill:none;stroke:#a9a9a9;stroke-linecap:square;stroke-linejoin:miter;stroke-width:2;"/>
   </g>
   <g id="patch_11">
    <path d="M 18 77.76 
L 129.6 77.76 
" style="fill:none;"/>
   </g>
   <g id="legend_2">
    <g id="line2d_18">
     <path d="M 101.475312 86.928906 
L 115.475312 86.928906 
" style="fill:none;stroke:#66c2a5;stroke-linecap:square;stroke-width:2;"/>
    </g>
    <g id="line2d_19"/>
    <g id="text_3">
     <!--   -->
     <g transform="translate(121.075312 89.378906)scale(0.07 -0.07)">
      <use xlink:href="#DejaVuSans-32"/>
     </g>
    </g>
   </g>
  </g>
 </g>
 <defs>
  <clipPath id="p034875cd16">
   <rect height="50.4" width="111.6" x="18" y="17.28"/>
  </clipPath>
  <clipPath id="p6702600137">
   <rect height="50.4" width="111.6" x="18" y="77.76"/>
  </clipPath>
 </defs>
</svg>
