<?xml version="1.0" encoding="utf-8" standalone="no"?>
<!DOCTYPE svg PUBLIC "-//W3C//DTD SVG 1.1//EN"
  "http://www.w3.org/Graphics/SVG/1.1/DTD/svg11.dtd">
<!-- Created with matplotlib (https://matplotlib.org/) -->
<svg height="144pt" version="1.1" viewBox="0 0 144 144" width="144pt" xmlns="http://www.w3.org/2000/svg" xmlns:xlink="http://www.w3.org/1999/xlink">
 <metadata>
  <rdf:RDF xmlns:cc="http://creativecommons.org/ns#" xmlns:dc="http://purl.org/dc/elements/1.1/" xmlns:rdf="http://www.w3.org/1999/02/22-rdf-syntax-ns#">
   <cc:Work>
    <dc:type rdf:resource="http://purl.org/dc/dcmitype/StillImage"/>
    <dc:date>2021-10-13T14:26:32.748425</dc:date>
    <dc:format>image/svg+xml</dc:format>
    <dc:creator>
     <cc:Agent>
      <dc:title>Matplotlib v3.3.2, https://matplotlib.org/</dc:title>
     </cc:Agent>
    </dc:creator>
   </cc:Work>
  </rdf:RDF>
 </metadata>
 <defs>
  <style type="text/css">*{stroke-linecap:butt;stroke-linejoin:round;}</style>
 </defs>
 <g id="figure_1">
  <g id="patch_1">
   <path d="M 0 144 
L 144 144 
L 144 0 
L 0 0 
z
" style="fill:none;"/>
  </g>
  <g id="axes_1">
   <g id="patch_2">
    <path d="M 18 67.68 
L 129.6 67.68 
L 129.6 17.28 
L 18 17.28 
z
" style="fill:none;"/>
   </g>
   <g id="PolyCollection_1">
    <path clip-path="url(#p1883b6d4c8)" d="M 18 67.635048 
L 18 67.635048 
L 20.277551 67.635048 
L 22.555102 67.635048 
L 24.832653 67.635048 
L 27.110204 67.635048 
L 29.387755 67.635047 
L 31.665306 67.561583 
L 33.942857 67.363259 
L 36.220408 66.836194 
L 38.497959 66.330214 
L 40.77551 64.913125 
L 43.053061 62.822125 
L 45.330612 60.444185 
L 47.608163 57.254123 
L 49.885714 53.493839 
L 52.163265 48.709834 
L 54.440816 43.896383 
L 56.718367 38.644096 
L 58.995918 33.360531 
L 61.273469 28.088214 
L 63.55102 23.463911 
L 65.828571 20.352324 
L 68.106122 18.164559 
L 70.383673 17.28 
L 72.661224 18.0919 
L 74.938776 36.018406 
L 77.216327 22.456215 
L 79.493878 26.970002 
L 81.771429 32.529505 
L 84.04898 37.329454 
L 86.326531 43.135588 
L 88.604082 46.93777 
L 90.881633 50.982164 
L 93.159184 54.300538 
L 95.436735 57.77911 
L 97.714286 59.89983 
L 99.991837 61.995397 
L 102.269388 63.331565 
L 104.546939 64.486369 
L 106.82449 65.871269 
L 109.102041 66.313458 
L 111.379592 66.582454 
L 113.657143 67.155807 
L 115.934694 67.45359 
L 118.212245 67.582876 
L 120.489796 67.634999 
L 122.767347 67.635048 
L 125.044898 67.635048 
L 127.322449 67.635048 
L 129.6 67.635048 
L 129.6 67.635048 
L 129.6 67.635048 
L 127.322449 67.635048 
L 125.044898 67.635048 
L 122.767347 67.635048 
L 120.489796 67.635133 
L 118.212245 67.68 
L 115.934694 67.661438 
L 113.657143 67.662471 
L 111.379592 67.430956 
L 109.102041 67.220949 
L 106.82449 66.886196 
L 104.546939 66.332297 
L 102.269388 65.226691 
L 99.991837 64.393609 
L 97.714286 62.554878 
L 95.436735 60.547186 
L 93.159184 57.758921 
L 90.881633 54.55992 
L 88.604082 50.535588 
L 86.326531 47.295292 
L 84.04898 42.31546 
L 81.771429 38.154663 
L 79.493878 33.493245 
L 77.216327 28.67239 
L 74.938776 39.910989 
L 72.661224 24.331777 
L 70.383673 23.265154 
L 68.106122 24.04546 
L 65.828571 25.774068 
L 63.55102 28.56295 
L 61.273469 33.448543 
L 58.995918 37.961637 
L 56.718367 43.501895 
L 54.440816 47.794454 
L 52.163265 52.502525 
L 49.885714 56.144471 
L 47.608163 59.413576 
L 45.330612 62.474424 
L 43.053061 64.588543 
L 40.77551 66.233852 
L 38.497959 66.956353 
L 36.220408 67.475935 
L 33.942857 67.641472 
L 31.665306 67.666804 
L 29.387755 67.635049 
L 27.110204 67.635048 
L 24.832653 67.635048 
L 22.555102 67.635048 
L 20.277551 67.635048 
L 18 67.635048 
z
" style="fill:#fc8d62;fill-opacity:0.2;"/>
   </g>
   <g id="PolyCollection_2">
    <path clip-path="url(#p1883b6d4c8)" d="M 18 67.635048 
L 18 67.635048 
L 20.277551 67.635048 
L 22.555102 67.635048 
L 24.832653 67.635048 
L 27.110204 67.635048 
L 29.387755 67.635048 
L 31.665306 67.560967 
L 33.942857 67.349352 
L 36.220408 66.838714 
L 38.497959 66.09604 
L 40.77551 65.098549 
L 43.053061 63.525958 
L 45.330612 61.513846 
L 47.608163 59.416036 
L 49.885714 56.630071 
L 52.163265 53.832906 
L 54.440816 50.505642 
L 56.718367 46.556613 
L 58.995918 43.487175 
L 61.273469 39.929856 
L 63.55102 37.036939 
L 65.828571 33.212335 
L 68.106122 30.914655 
L 70.383673 27.889064 
L 72.661224 27.164245 
L 74.938776 39.977487 
L 77.216327 28.090721 
L 79.493878 29.392047 
L 81.771429 31.413876 
L 84.04898 34.527539 
L 86.326531 37.40288 
L 88.604082 40.595695 
L 90.881633 43.303417 
L 93.159184 48.160942 
L 95.436735 50.716535 
L 97.714286 54.224013 
L 99.991837 56.936541 
L 102.269388 59.70637 
L 104.546939 62.14363 
L 106.82449 63.824278 
L 109.102041 65.321315 
L 111.379592 66.274573 
L 113.657143 66.907877 
L 115.934694 67.374973 
L 118.212245 67.551289 
L 120.489796 67.635032 
L 122.767347 67.635048 
L 125.044898 67.635048 
L 127.322449 67.635048 
L 129.6 67.635048 
L 129.6 67.635048 
L 129.6 67.635048 
L 127.322449 67.635048 
L 125.044898 67.635048 
L 122.767347 67.635048 
L 120.489796 67.635084 
L 118.212245 67.680006 
L 115.934694 67.687018 
L 113.657143 67.510225 
L 111.379592 67.153095 
L 109.102041 66.499155 
L 106.82449 65.467701 
L 104.546939 64.058002 
L 102.269388 62.184752 
L 99.991837 60.021254 
L 97.714286 57.803292 
L 95.436735 54.510275 
L 93.159184 51.863416 
L 90.881633 48.296328 
L 88.604082 45.593342 
L 86.326531 42.151468 
L 84.04898 39.373604 
L 81.771429 36.433906 
L 79.493878 34.70964 
L 77.216327 33.409398 
L 74.938776 43.455136 
L 72.661224 33.83854 
L 70.383673 33.876179 
L 68.106122 36.125294 
L 65.828571 38.371261 
L 63.55102 41.261234 
L 61.273469 43.964108 
L 58.995918 47.468395 
L 56.718367 50.799842 
L 54.440816 54.457327 
L 52.163265 56.700748 
L 49.885714 59.544536 
L 47.608163 61.679754 
L 45.330612 63.694796 
L 43.053061 65.303596 
L 40.77551 66.265755 
L 38.497959 66.919733 
L 36.220408 67.436679 
L 33.942857 67.623788 
L 31.665306 67.67811 
L 29.387755 67.635048 
L 27.110204 67.635048 
L 24.832653 67.635048 
L 22.555102 67.635048 
L 20.277551 67.635048 
L 18 67.635048 
z
" style="fill:#fc8d62;fill-opacity:0.2;"/>
   </g>
   <g id="matplotlib.axis_1">
    <g id="xtick_1">
     <g id="line2d_1">
      <defs>
       <path d="M 0 0 
L 0 3.5 
" id="mb1eaf87e6f" style="stroke:#a9a9a9;stroke-width:2;"/>
      </defs>
      <g>
       <use style="fill:#a9a9a9;stroke:#a9a9a9;stroke-width:2;" x="29.387755" xlink:href="#mb1eaf87e6f" y="67.635048"/>
      </g>
     </g>
    </g>
    <g id="xtick_2">
     <g id="line2d_2">
      <g>
       <use style="fill:#a9a9a9;stroke:#a9a9a9;stroke-width:2;" x="52.163265" xlink:href="#mb1eaf87e6f" y="67.635048"/>
      </g>
     </g>
    </g>
    <g id="xtick_3">
     <g id="line2d_3">
      <g>
       <use style="fill:#a9a9a9;stroke:#a9a9a9;stroke-width:2;" x="74.938776" xlink:href="#mb1eaf87e6f" y="67.635048"/>
      </g>
     </g>
    </g>
    <g id="xtick_4">
     <g id="line2d_4">
      <g>
       <use style="fill:#a9a9a9;stroke:#a9a9a9;stroke-width:2;" x="97.714286" xlink:href="#mb1eaf87e6f" y="67.635048"/>
      </g>
     </g>
    </g>
    <g id="xtick_5">
     <g id="line2d_5">
      <g>
       <use style="fill:#a9a9a9;stroke:#a9a9a9;stroke-width:2;" x="120.489796" xlink:href="#mb1eaf87e6f" y="67.635048"/>
      </g>
     </g>
    </g>
   </g>
   <g id="matplotlib.axis_2"/>
   <g id="line2d_6">
    <path clip-path="url(#p1883b6d4c8)" d="M 18 67.635048 
L 20.277551 67.635048 
L 22.555102 67.635048 
L 24.832653 67.635048 
L 27.110204 67.635048 
L 29.387755 67.635048 
L 31.665306 67.614194 
L 33.942857 67.502365 
L 36.220408 67.156065 
L 38.497959 66.643284 
L 40.77551 65.573488 
L 43.053061 63.705334 
L 45.330612 61.459304 
L 47.608163 58.333849 
L 49.885714 54.819155 
L 52.163265 50.60618 
L 54.440816 45.845419 
L 56.718367 41.072995 
L 58.995918 35.661084 
L 61.273469 30.768379 
L 63.55102 26.013431 
L 65.828571 23.063196 
L 68.106122 21.105009 
L 70.383673 20.272577 
L 72.661224 21.211839 
L 74.938776 37.964698 
L 77.216327 25.564303 
L 79.493878 30.231624 
L 81.771429 35.342084 
L 84.04898 39.822457 
L 86.326531 45.21544 
L 88.604082 48.736679 
L 90.881633 52.771042 
L 93.159184 56.02973 
L 95.436735 59.163148 
L 97.714286 61.227354 
L 99.991837 63.194503 
L 102.269388 64.279128 
L 104.546939 65.409333 
L 106.82449 66.378732 
L 109.102041 66.767204 
L 111.379592 67.006705 
L 113.657143 67.409139 
L 115.934694 67.557514 
L 118.212245 67.631438 
L 120.489796 67.635066 
L 122.767347 67.635048 
L 125.044898 67.635048 
L 127.322449 67.635048 
L 129.6 67.635048 
" style="fill:none;stroke:#fc8d62;stroke-linecap:square;stroke-width:2;"/>
   </g>
   <g id="line2d_7">
    <path clip-path="url(#p1883b6d4c8)" d="M 18 67.635048 
L 20.277551 67.635048 
L 22.555102 67.635048 
L 24.832653 67.635048 
L 27.110204 67.635048 
L 29.387755 67.635048 
L 31.665306 67.619539 
L 33.942857 67.48657 
L 36.220408 67.137696 
L 38.497959 66.507887 
L 40.77551 65.682152 
L 43.053061 64.414777 
L 45.330612 62.604321 
L 47.608163 60.547895 
L 49.885714 58.087303 
L 52.163265 55.266827 
L 54.440816 52.481485 
L 56.718367 48.678227 
L 58.995918 45.477785 
L 61.273469 41.946982 
L 63.55102 39.149087 
L 65.828571 35.791798 
L 68.106122 33.519975 
L 70.383673 30.882621 
L 72.661224 30.501393 
L 74.938776 41.716312 
L 77.216327 30.750059 
L 79.493878 32.050843 
L 81.771429 33.923891 
L 84.04898 36.950571 
L 86.326531 39.777174 
L 88.604082 43.094518 
L 90.881633 45.799873 
L 93.159184 50.012179 
L 95.436735 52.613405 
L 97.714286 56.013653 
L 99.991837 58.478898 
L 102.269388 60.945561 
L 104.546939 63.100816 
L 106.82449 64.64599 
L 109.102041 65.910235 
L 111.379592 66.713834 
L 113.657143 67.209051 
L 115.934694 67.530996 
L 118.212245 67.615647 
L 120.489796 67.635058 
L 122.767347 67.635048 
L 125.044898 67.635048 
L 127.322449 67.635048 
L 129.6 67.635048 
" style="fill:none;stroke:#fc8d62;stroke-dasharray:1.5,1.5;stroke-dashoffset:0;stroke-opacity:0.7;stroke-width:1.5;"/>
   </g>
   <g id="patch_3">
    <path d="M 74.938776 67.68 
L 74.938776 17.28 
" style="fill:none;stroke:#a9a9a9;stroke-linecap:square;stroke-linejoin:miter;stroke-width:2;"/>
   </g>
   <g id="patch_4">
    <path d="M 129.6 67.68 
L 129.6 17.28 
" style="fill:none;"/>
   </g>
   <g id="patch_5">
    <path d="M 18 67.635048 
L 129.6 67.635048 
" style="fill:none;stroke:#a9a9a9;stroke-linecap:square;stroke-linejoin:miter;stroke-width:2;"/>
   </g>
   <g id="patch_6">
    <path d="M 18 17.28 
L 129.6 17.28 
" style="fill:none;"/>
   </g>
   <g id="legend_1">
    <g id="line2d_8">
     <path d="M 87.67 26.448906 
L 101.67 26.448906 
" style="fill:none;stroke:#fc8d62;stroke-linecap:square;stroke-width:2;"/>
    </g>
    <g id="line2d_9"/>
    <g id="text_1">
     <!-- $\theta$ -->
     <g transform="translate(107.27 28.898906)scale(0.07 -0.07)">
      <defs>
       <path d="M 45.515625 34.671875 
L 14.453125 34.671875 
Q 12.359375 20.0625 14.5 13.875 
Q 17.1875 6.25 24.46875 6.25 
Q 31.78125 6.25 37.359375 13.921875 
Q 42.234375 20.65625 45.515625 34.671875 
z
M 47.015625 42.96875 
Q 48.34375 56.84375 46.625 61.71875 
Q 43.953125 69.4375 36.765625 69.4375 
Q 29.296875 69.4375 23.828125 61.8125 
Q 19.53125 55.671875 16.15625 42.96875 
z
M 38.1875 76.765625 
Q 49.90625 76.765625 54.59375 66.40625 
Q 59.28125 56.109375 55.71875 37.84375 
Q 52.203125 19.625 43.453125 9.28125 
Q 34.765625 -1.125 23.046875 -1.125 
Q 11.28125 -1.125 6.640625 9.28125 
Q 2 19.625 5.515625 37.84375 
Q 9.078125 56.109375 17.71875 66.40625 
Q 26.421875 76.765625 38.1875 76.765625 
z
" id="DejaVuSans-Oblique-952"/>
      </defs>
      <use transform="translate(0 0.234375)" xlink:href="#DejaVuSans-Oblique-952"/>
     </g>
    </g>
    <g id="line2d_10">
     <path d="M 87.67 36.723594 
L 101.67 36.723594 
" style="fill:none;stroke:#fc8d62;stroke-dasharray:1.5,1.5;stroke-dashoffset:0;stroke-opacity:0.7;stroke-width:1.5;"/>
    </g>
    <g id="line2d_11"/>
    <g id="text_2">
     <!-- No $\theta$ -->
     <g transform="translate(107.27 39.173594)scale(0.07 -0.07)">
      <defs>
       <path d="M 9.8125 72.90625 
L 23.09375 72.90625 
L 55.421875 11.921875 
L 55.421875 72.90625 
L 64.984375 72.90625 
L 64.984375 0 
L 51.703125 0 
L 19.390625 60.984375 
L 19.390625 0 
L 9.8125 0 
z
" id="DejaVuSans-78"/>
       <path d="M 30.609375 48.390625 
Q 23.390625 48.390625 19.1875 42.75 
Q 14.984375 37.109375 14.984375 27.296875 
Q 14.984375 17.484375 19.15625 11.84375 
Q 23.34375 6.203125 30.609375 6.203125 
Q 37.796875 6.203125 41.984375 11.859375 
Q 46.1875 17.53125 46.1875 27.296875 
Q 46.1875 37.015625 41.984375 42.703125 
Q 37.796875 48.390625 30.609375 48.390625 
z
M 30.609375 56 
Q 42.328125 56 49.015625 48.375 
Q 55.71875 40.765625 55.71875 27.296875 
Q 55.71875 13.875 49.015625 6.21875 
Q 42.328125 -1.421875 30.609375 -1.421875 
Q 18.84375 -1.421875 12.171875 6.21875 
Q 5.515625 13.875 5.515625 27.296875 
Q 5.515625 40.765625 12.171875 48.375 
Q 18.84375 56 30.609375 56 
z
" id="DejaVuSans-111"/>
       <path id="DejaVuSans-32"/>
      </defs>
      <use transform="translate(0 0.234375)" xlink:href="#DejaVuSans-78"/>
      <use transform="translate(74.804688 0.234375)" xlink:href="#DejaVuSans-111"/>
      <use transform="translate(135.986328 0.234375)" xlink:href="#DejaVuSans-32"/>
      <use transform="translate(167.773438 0.234375)" xlink:href="#DejaVuSans-Oblique-952"/>
     </g>
    </g>
   </g>
  </g>
  <g id="axes_2">
   <g id="patch_7">
    <path d="M 18 128.16 
L 129.6 128.16 
L 129.6 77.76 
L 18 77.76 
z
" style="fill:none;"/>
   </g>
   <g id="PolyCollection_3">
    <path clip-path="url(#pdc6a255995)" d="M 18 120.495481 
L 18 120.414988 
L 20.277551 120.632739 
L 22.555102 120.696812 
L 24.832653 120.615315 
L 27.110204 120.435823 
L 29.387755 120.235825 
L 31.665306 120.064622 
L 33.942857 119.781652 
L 36.220408 119.225627 
L 38.497959 118.269597 
L 40.77551 116.821437 
L 43.053061 114.829022 
L 45.330612 112.283711 
L 47.608163 109.217898 
L 49.885714 105.700185 
L 52.163265 101.83156 
L 54.440816 97.741762 
L 56.718367 93.585223 
L 58.995918 89.536467 
L 61.273469 85.784863 
L 63.55102 82.529239 
L 65.828571 79.972559 
L 68.106122 78.317037 
L 70.383673 77.76 
L 72.661224 78.490619 
L 74.938776 80.677955 
L 77.216327 84.411146 
L 79.493878 89.290466 
L 81.771429 94.868106 
L 84.04898 100.726203 
L 86.326531 106.500457 
L 88.604082 111.889334 
L 90.881633 116.65887 
L 93.159184 120.64411 
L 95.436735 123.748156 
L 97.714286 125.939559 
L 99.991837 127.246616 
L 102.269388 127.746368 
L 104.546939 127.552137 
L 106.82449 126.802474 
L 109.102041 125.651977 
L 111.379592 124.263334 
L 113.657143 122.800304 
L 115.934694 121.422623 
L 118.212245 120.284336 
L 120.489796 119.536715 
L 122.767347 119.276676 
L 125.044898 119.385242 
L 127.322449 119.699565 
L 129.6 120.079256 
L 129.6 120.184935 
L 129.6 120.184935 
L 127.322449 119.830525 
L 125.044898 119.536492 
L 122.767347 119.440438 
L 120.489796 119.706476 
L 118.212245 120.462767 
L 115.934694 121.625244 
L 113.657143 123.043583 
L 111.379592 124.554837 
L 109.102041 125.989481 
L 106.82449 127.176929 
L 104.546939 127.951525 
L 102.269388 128.16 
L 99.991837 127.670638 
L 97.714286 126.382788 
L 95.436735 124.234815 
L 93.159184 121.209643 
L 90.881633 117.339863 
L 88.604082 112.715562 
L 86.326531 107.491476 
L 84.04898 101.890641 
L 81.771429 96.203954 
L 79.493878 90.785415 
L 77.216327 86.043042 
L 74.938776 82.415469 
L 72.661224 80.295068 
L 70.383673 79.589615 
L 68.106122 80.129701 
L 65.828571 81.727657 
L 63.55102 84.189417 
L 61.273469 87.317662 
L 58.995918 90.915803 
L 56.718367 94.792534 
L 54.440816 98.766807 
L 52.163265 102.672933 
L 49.885714 106.365343 
L 47.608163 109.722887 
L 45.330612 112.652555 
L 43.053061 115.092818 
L 40.77551 117.015798 
L 38.497959 118.427155 
L 36.220408 119.366708 
L 33.942857 119.912929 
L 31.665306 120.186643 
L 29.387755 120.34694 
L 27.110204 120.531383 
L 24.832653 120.692827 
L 22.555102 120.760217 
L 20.277551 120.696238 
L 18 120.495481 
z
" style="fill:#66c2a5;fill-opacity:0.2;"/>
   </g>
   <g id="matplotlib.axis_3">
    <g id="xtick_6">
     <g id="line2d_12">
      <g>
       <use style="fill:#a9a9a9;stroke:#a9a9a9;stroke-width:2;" x="29.387755" xlink:href="#mb1eaf87e6f" y="122.163664"/>
      </g>
     </g>
    </g>
    <g id="xtick_7">
     <g id="line2d_13">
      <g>
       <use style="fill:#a9a9a9;stroke:#a9a9a9;stroke-width:2;" x="52.163265" xlink:href="#mb1eaf87e6f" y="122.163664"/>
      </g>
     </g>
    </g>
    <g id="xtick_8">
     <g id="line2d_14">
      <g>
       <use style="fill:#a9a9a9;stroke:#a9a9a9;stroke-width:2;" x="74.938776" xlink:href="#mb1eaf87e6f" y="122.163664"/>
      </g>
     </g>
    </g>
    <g id="xtick_9">
     <g id="line2d_15">
      <g>
       <use style="fill:#a9a9a9;stroke:#a9a9a9;stroke-width:2;" x="97.714286" xlink:href="#mb1eaf87e6f" y="122.163664"/>
      </g>
     </g>
    </g>
    <g id="xtick_10">
     <g id="line2d_16">
      <g>
       <use style="fill:#a9a9a9;stroke:#a9a9a9;stroke-width:2;" x="120.489796" xlink:href="#mb1eaf87e6f" y="122.163664"/>
      </g>
     </g>
    </g>
   </g>
   <g id="matplotlib.axis_4"/>
   <g id="line2d_17">
    <path clip-path="url(#pdc6a255995)" d="M 18 120.455234 
L 20.277551 120.664489 
L 22.555102 120.728514 
L 24.832653 120.654071 
L 27.110204 120.483603 
L 29.387755 120.291383 
L 31.665306 120.125632 
L 33.942857 119.84729 
L 36.220408 119.296167 
L 38.497959 118.348376 
L 40.77551 116.918618 
L 43.053061 114.96092 
L 45.330612 112.468133 
L 47.608163 109.470392 
L 49.885714 106.032764 
L 52.163265 102.252246 
L 54.440816 98.254284 
L 56.718367 94.188879 
L 58.995918 90.226135 
L 61.273469 86.551262 
L 63.55102 83.359328 
L 65.828571 80.850108 
L 68.106122 79.223369 
L 70.383673 78.674808 
L 72.661224 79.392843 
L 74.938776 81.546712 
L 77.216327 85.227094 
L 79.493878 90.037941 
L 81.771429 95.53603 
L 84.04898 101.308422 
L 86.326531 106.995967 
L 88.604082 112.302448 
L 90.881633 116.999366 
L 93.159184 120.926877 
L 95.436735 123.991485 
L 97.714286 126.161173 
L 99.991837 127.458627 
L 102.269388 127.953184 
L 104.546939 127.751831 
L 106.82449 126.989702 
L 109.102041 125.820729 
L 111.379592 124.409085 
L 113.657143 122.921943 
L 115.934694 121.523934 
L 118.212245 120.373552 
L 120.489796 119.621595 
L 122.767347 119.358557 
L 125.044898 119.460867 
L 127.322449 119.765045 
L 129.6 120.132095 
" style="fill:none;stroke:#66c2a5;stroke-linecap:square;stroke-width:2;"/>
   </g>
   <g id="patch_8">
    <path d="M 74.938776 128.16 
L 74.938776 77.76 
" style="fill:none;stroke:#a9a9a9;stroke-linecap:square;stroke-linejoin:miter;stroke-width:2;"/>
   </g>
   <g id="patch_9">
    <path d="M 129.6 128.16 
L 129.6 77.76 
" style="fill:none;"/>
   </g>
   <g id="patch_10">
    <path d="M 18 122.163664 
L 129.6 122.163664 
" style="fill:none;stroke:#a9a9a9;stroke-linecap:square;stroke-linejoin:miter;stroke-width:2;"/>
   </g>
   <g id="patch_11">
    <path d="M 18 77.76 
L 129.6 77.76 
" style="fill:none;"/>
   </g>
  </g>
 </g>
 <defs>
  <clipPath id="p1883b6d4c8">
   <rect height="50.4" width="111.6" x="18" y="17.28"/>
  </clipPath>
  <clipPath id="pdc6a255995">
   <rect height="50.4" width="111.6" x="18" y="77.76"/>
  </clipPath>
 </defs>
</svg>
