<?xml version="1.0" encoding="utf-8" standalone="no"?>
<!DOCTYPE svg PUBLIC "-//W3C//DTD SVG 1.1//EN"
  "http://www.w3.org/Graphics/SVG/1.1/DTD/svg11.dtd">
<!-- Created with matplotlib (https://matplotlib.org/) -->
<svg height="144pt" version="1.1" viewBox="0 0 144 144" width="144pt" xmlns="http://www.w3.org/2000/svg" xmlns:xlink="http://www.w3.org/1999/xlink">
 <metadata>
  <rdf:RDF xmlns:cc="http://creativecommons.org/ns#" xmlns:dc="http://purl.org/dc/elements/1.1/" xmlns:rdf="http://www.w3.org/1999/02/22-rdf-syntax-ns#">
   <cc:Work>
    <dc:type rdf:resource="http://purl.org/dc/dcmitype/StillImage"/>
    <dc:date>2021-10-13T15:53:10.180886</dc:date>
    <dc:format>image/svg+xml</dc:format>
    <dc:creator>
     <cc:Agent>
      <dc:title>Matplotlib v3.3.2, https://matplotlib.org/</dc:title>
     </cc:Agent>
    </dc:creator>
   </cc:Work>
  </rdf:RDF>
 </metadata>
 <defs>
  <style type="text/css">*{stroke-linecap:butt;stroke-linejoin:round;}</style>
 </defs>
 <g id="figure_1">
  <g id="patch_1">
   <path d="M 0 144 
L 144 144 
L 144 0 
L 0 0 
z
" style="fill:none;"/>
  </g>
  <g id="axes_1">
   <g id="patch_2">
    <path d="M 18 67.68 
L 129.6 67.68 
L 129.6 17.28 
L 18 17.28 
z
" style="fill:none;"/>
   </g>
   <g id="PolyCollection_1">
    <path clip-path="url(#p6f9dd9056e)" d="M 18 67.665309 
L 18 67.665309 
L 20.277551 67.665309 
L 22.555102 67.665309 
L 24.832653 67.665309 
L 27.110204 67.665309 
L 29.387755 67.665304 
L 31.665306 67.614453 
L 33.942857 67.406662 
L 36.220408 66.910789 
L 38.497959 66.01064 
L 40.77551 64.711476 
L 43.053061 62.789721 
L 45.330612 60.150057 
L 47.608163 56.968013 
L 49.885714 53.01907 
L 52.163265 48.31213 
L 54.440816 43.764623 
L 56.718367 38.755943 
L 58.995918 33.384313 
L 61.273469 28.620574 
L 63.55102 24.034902 
L 65.828571 20.804143 
L 68.106122 18.312064 
L 70.383673 17.28 
L 72.661224 17.321455 
L 74.938776 26.442663 
L 77.216327 20.210531 
L 79.493878 23.86784 
L 81.771429 27.889309 
L 84.04898 32.391474 
L 86.326531 37.211098 
L 88.604082 41.129892 
L 90.881633 45.975492 
L 93.159184 49.338541 
L 95.436735 53.059245 
L 97.714286 56.156301 
L 99.991837 58.948796 
L 102.269388 60.886526 
L 104.546939 62.990501 
L 106.82449 64.439954 
L 109.102041 65.663416 
L 111.379592 66.511201 
L 113.657143 67.114576 
L 115.934694 67.483166 
L 118.212245 67.637617 
L 120.489796 67.665309 
L 122.767347 67.665309 
L 125.044898 67.665309 
L 127.322449 67.665309 
L 129.6 67.665309 
L 129.6 67.665309 
L 129.6 67.665309 
L 127.322449 67.665309 
L 125.044898 67.665309 
L 122.767347 67.665309 
L 120.489796 67.665309 
L 118.212245 67.68 
L 115.934694 67.625972 
L 113.657143 67.39265 
L 111.379592 66.939902 
L 109.102041 66.194541 
L 106.82449 65.268667 
L 104.546939 63.844082 
L 102.269388 62.099045 
L 99.991837 60.120881 
L 97.714286 57.639069 
L 95.436735 54.882019 
L 93.159184 51.654684 
L 90.881633 48.138434 
L 88.604082 43.781264 
L 86.326531 40.065461 
L 84.04898 35.27259 
L 81.771429 31.30189 
L 79.493878 27.751395 
L 77.216327 23.855388 
L 74.938776 29.129662 
L 72.661224 21.200356 
L 70.383673 20.29111 
L 68.106122 21.564098 
L 65.828571 24.027161 
L 63.55102 27.49329 
L 61.273469 31.554085 
L 58.995918 36.004304 
L 56.718367 40.862331 
L 54.440816 46.19841 
L 52.163265 50.550679 
L 49.885714 54.682484 
L 47.608163 58.507173 
L 45.330612 61.421427 
L 43.053061 63.666956 
L 40.77551 65.358019 
L 38.497959 66.60274 
L 36.220408 67.241403 
L 33.942857 67.555726 
L 31.665306 67.668738 
L 29.387755 67.665311 
L 27.110204 67.665309 
L 24.832653 67.665309 
L 22.555102 67.665309 
L 20.277551 67.665309 
L 18 67.665309 
z
" style="fill:#fc8d62;fill-opacity:0.2;"/>
   </g>
   <g id="PolyCollection_2">
    <path clip-path="url(#p6f9dd9056e)" d="M 18 67.665309 
L 18 67.665309 
L 20.277551 67.665309 
L 22.555102 67.665309 
L 24.832653 67.665309 
L 27.110204 67.665309 
L 29.387755 67.665182 
L 31.665306 67.611422 
L 33.942857 67.395291 
L 36.220408 66.973223 
L 38.497959 66.204777 
L 40.77551 64.97274 
L 43.053061 63.23457 
L 45.330612 60.908016 
L 47.608163 58.414434 
L 49.885714 55.040529 
L 52.163265 51.567256 
L 54.440816 47.535459 
L 56.718367 43.31638 
L 58.995918 39.357252 
L 61.273469 34.901428 
L 63.55102 31.291438 
L 65.828571 27.496053 
L 68.106122 23.957824 
L 70.383673 21.635132 
L 72.661224 19.85136 
L 74.938776 25.569921 
L 77.216327 20.67324 
L 79.493878 21.548278 
L 81.771429 24.028227 
L 84.04898 27.264299 
L 86.326531 30.871223 
L 88.604082 35.512498 
L 90.881633 39.723708 
L 93.159184 43.885064 
L 95.436735 48.098374 
L 97.714286 52.14801 
L 99.991837 55.723873 
L 102.269388 58.878478 
L 104.546939 61.629441 
L 106.82449 63.532989 
L 109.102041 65.173656 
L 111.379592 66.249621 
L 113.657143 66.980737 
L 115.934694 67.411998 
L 118.212245 67.62592 
L 120.489796 67.665309 
L 122.767347 67.665309 
L 125.044898 67.665309 
L 127.322449 67.665309 
L 129.6 67.665309 
L 129.6 67.665309 
L 129.6 67.665309 
L 127.322449 67.665309 
L 125.044898 67.665309 
L 122.767347 67.665309 
L 120.489796 67.665309 
L 118.212245 67.676393 
L 115.934694 67.631099 
L 113.657143 67.323607 
L 111.379592 66.844327 
L 109.102041 65.76509 
L 106.82449 64.446561 
L 104.546939 62.602054 
L 102.269388 59.999744 
L 99.991837 57.401343 
L 97.714286 53.938958 
L 95.436735 50.426926 
L 93.159184 46.301708 
L 90.881633 42.066696 
L 88.604082 38.223075 
L 86.326531 34.083098 
L 84.04898 30.916313 
L 81.771429 27.389245 
L 79.493878 25.175383 
L 77.216327 23.878422 
L 74.938776 28.800724 
L 72.661224 23.31878 
L 70.383673 25.428425 
L 68.106122 27.636119 
L 65.828571 30.379074 
L 63.55102 33.920864 
L 61.273469 37.661414 
L 58.995918 41.891481 
L 56.718367 45.930732 
L 54.440816 49.651105 
L 52.163265 53.550939 
L 49.885714 56.772195 
L 47.608163 59.741269 
L 45.330612 61.960736 
L 43.053061 64.151732 
L 40.77551 65.68256 
L 38.497959 66.639197 
L 36.220408 67.332182 
L 33.942857 67.610986 
L 31.665306 67.667532 
L 29.387755 67.665399 
L 27.110204 67.665309 
L 24.832653 67.665309 
L 22.555102 67.665309 
L 20.277551 67.665309 
L 18 67.665309 
z
" style="fill:#fc8d62;fill-opacity:0.2;"/>
   </g>
   <g id="matplotlib.axis_1">
    <g id="xtick_1">
     <g id="line2d_1">
      <defs>
       <path d="M 0 0 
L 0 3.5 
" id="m22bf7f7c38" style="stroke:#a9a9a9;stroke-width:2;"/>
      </defs>
      <g>
       <use style="fill:#a9a9a9;stroke:#a9a9a9;stroke-width:2;" x="29.387755" xlink:href="#m22bf7f7c38" y="67.665309"/>
      </g>
     </g>
    </g>
    <g id="xtick_2">
     <g id="line2d_2">
      <g>
       <use style="fill:#a9a9a9;stroke:#a9a9a9;stroke-width:2;" x="52.163265" xlink:href="#m22bf7f7c38" y="67.665309"/>
      </g>
     </g>
    </g>
    <g id="xtick_3">
     <g id="line2d_3">
      <g>
       <use style="fill:#a9a9a9;stroke:#a9a9a9;stroke-width:2;" x="74.938776" xlink:href="#m22bf7f7c38" y="67.665309"/>
      </g>
     </g>
    </g>
    <g id="xtick_4">
     <g id="line2d_4">
      <g>
       <use style="fill:#a9a9a9;stroke:#a9a9a9;stroke-width:2;" x="97.714286" xlink:href="#m22bf7f7c38" y="67.665309"/>
      </g>
     </g>
    </g>
    <g id="xtick_5">
     <g id="line2d_5">
      <g>
       <use style="fill:#a9a9a9;stroke:#a9a9a9;stroke-width:2;" x="120.489796" xlink:href="#m22bf7f7c38" y="67.665309"/>
      </g>
     </g>
    </g>
   </g>
   <g id="matplotlib.axis_2"/>
   <g id="line2d_6">
    <path clip-path="url(#p6f9dd9056e)" d="M 18 67.665309 
L 20.277551 67.665309 
L 22.555102 67.665309 
L 24.832653 67.665309 
L 27.110204 67.665309 
L 29.387755 67.665308 
L 31.665306 67.641596 
L 33.942857 67.481194 
L 36.220408 67.076096 
L 38.497959 66.30669 
L 40.77551 65.034748 
L 43.053061 63.228338 
L 45.330612 60.785742 
L 47.608163 57.737593 
L 49.885714 53.850777 
L 52.163265 49.431404 
L 54.440816 44.981516 
L 56.718367 39.809137 
L 58.995918 34.694309 
L 61.273469 30.087329 
L 63.55102 25.764096 
L 65.828571 22.415652 
L 68.106122 19.938081 
L 70.383673 18.785555 
L 72.661224 19.260905 
L 74.938776 27.786162 
L 77.216327 22.03296 
L 79.493878 25.809618 
L 81.771429 29.5956 
L 84.04898 33.832032 
L 86.326531 38.63828 
L 88.604082 42.455578 
L 90.881633 47.056963 
L 93.159184 50.496612 
L 95.436735 53.970632 
L 97.714286 56.897685 
L 99.991837 59.534838 
L 102.269388 61.492785 
L 104.546939 63.417291 
L 106.82449 64.854311 
L 109.102041 65.928978 
L 111.379592 66.725551 
L 113.657143 67.253613 
L 115.934694 67.554569 
L 118.212245 67.658808 
L 120.489796 67.665309 
L 122.767347 67.665309 
L 125.044898 67.665309 
L 127.322449 67.665309 
L 129.6 67.665309 
" style="fill:none;stroke:#fc8d62;stroke-linecap:square;stroke-width:2;"/>
   </g>
   <g id="line2d_7">
    <path clip-path="url(#p6f9dd9056e)" d="M 18 67.665309 
L 20.277551 67.665309 
L 22.555102 67.665309 
L 24.832653 67.665309 
L 27.110204 67.665309 
L 29.387755 67.665291 
L 31.665306 67.639477 
L 33.942857 67.503138 
L 36.220408 67.152702 
L 38.497959 66.421987 
L 40.77551 65.32765 
L 43.053061 63.693151 
L 45.330612 61.434376 
L 47.608163 59.077852 
L 49.885714 55.906362 
L 52.163265 52.559097 
L 54.440816 48.593282 
L 56.718367 44.623556 
L 58.995918 40.624367 
L 61.273469 36.281421 
L 63.55102 32.606151 
L 65.828571 28.937564 
L 68.106122 25.796972 
L 70.383673 23.531778 
L 72.661224 21.58507 
L 74.938776 27.185323 
L 77.216327 22.275831 
L 79.493878 23.361831 
L 81.771429 25.708736 
L 84.04898 29.090306 
L 86.326531 32.47716 
L 88.604082 36.867786 
L 90.881633 40.895202 
L 93.159184 45.093386 
L 95.436735 49.26265 
L 97.714286 53.043484 
L 99.991837 56.562608 
L 102.269388 59.439111 
L 104.546939 62.115747 
L 106.82449 63.989775 
L 109.102041 65.469373 
L 111.379592 66.546974 
L 113.657143 67.152172 
L 115.934694 67.521548 
L 118.212245 67.651157 
L 120.489796 67.665309 
L 122.767347 67.665309 
L 125.044898 67.665309 
L 127.322449 67.665309 
L 129.6 67.665309 
" style="fill:none;stroke:#fc8d62;stroke-dasharray:1.5,1.5;stroke-dashoffset:0;stroke-opacity:0.7;stroke-width:1.5;"/>
   </g>
   <g id="patch_3">
    <path d="M 74.938776 67.68 
L 74.938776 17.28 
" style="fill:none;stroke:#a9a9a9;stroke-linecap:square;stroke-linejoin:miter;stroke-width:2;"/>
   </g>
   <g id="patch_4">
    <path d="M 129.6 67.68 
L 129.6 17.28 
" style="fill:none;"/>
   </g>
   <g id="patch_5">
    <path d="M 18 67.665309 
L 129.6 67.665309 
" style="fill:none;stroke:#a9a9a9;stroke-linecap:square;stroke-linejoin:miter;stroke-width:2;"/>
   </g>
   <g id="patch_6">
    <path d="M 18 17.28 
L 129.6 17.28 
" style="fill:none;"/>
   </g>
   <g id="legend_1">
    <g id="line2d_8">
     <path d="M 87.67 26.448906 
L 101.67 26.448906 
" style="fill:none;stroke:#fc8d62;stroke-linecap:square;stroke-width:2;"/>
    </g>
    <g id="line2d_9"/>
    <g id="text_1">
     <!-- $\theta$ -->
     <g transform="translate(107.27 28.898906)scale(0.07 -0.07)">
      <defs>
       <path d="M 45.515625 34.671875 
L 14.453125 34.671875 
Q 12.359375 20.0625 14.5 13.875 
Q 17.1875 6.25 24.46875 6.25 
Q 31.78125 6.25 37.359375 13.921875 
Q 42.234375 20.65625 45.515625 34.671875 
z
M 47.015625 42.96875 
Q 48.34375 56.84375 46.625 61.71875 
Q 43.953125 69.4375 36.765625 69.4375 
Q 29.296875 69.4375 23.828125 61.8125 
Q 19.53125 55.671875 16.15625 42.96875 
z
M 38.1875 76.765625 
Q 49.90625 76.765625 54.59375 66.40625 
Q 59.28125 56.109375 55.71875 37.84375 
Q 52.203125 19.625 43.453125 9.28125 
Q 34.765625 -1.125 23.046875 -1.125 
Q 11.28125 -1.125 6.640625 9.28125 
Q 2 19.625 5.515625 37.84375 
Q 9.078125 56.109375 17.71875 66.40625 
Q 26.421875 76.765625 38.1875 76.765625 
z
" id="DejaVuSans-Oblique-952"/>
      </defs>
      <use transform="translate(0 0.234375)" xlink:href="#DejaVuSans-Oblique-952"/>
     </g>
    </g>
    <g id="line2d_10">
     <path d="M 87.67 36.723594 
L 101.67 36.723594 
" style="fill:none;stroke:#fc8d62;stroke-dasharray:1.5,1.5;stroke-dashoffset:0;stroke-opacity:0.7;stroke-width:1.5;"/>
    </g>
    <g id="line2d_11"/>
    <g id="text_2">
     <!-- No $\theta$ -->
     <g transform="translate(107.27 39.173594)scale(0.07 -0.07)">
      <defs>
       <path d="M 9.8125 72.90625 
L 23.09375 72.90625 
L 55.421875 11.921875 
L 55.421875 72.90625 
L 64.984375 72.90625 
L 64.984375 0 
L 51.703125 0 
L 19.390625 60.984375 
L 19.390625 0 
L 9.8125 0 
z
" id="DejaVuSans-78"/>
       <path d="M 30.609375 48.390625 
Q 23.390625 48.390625 19.1875 42.75 
Q 14.984375 37.109375 14.984375 27.296875 
Q 14.984375 17.484375 19.15625 11.84375 
Q 23.34375 6.203125 30.609375 6.203125 
Q 37.796875 6.203125 41.984375 11.859375 
Q 46.1875 17.53125 46.1875 27.296875 
Q 46.1875 37.015625 41.984375 42.703125 
Q 37.796875 48.390625 30.609375 48.390625 
z
M 30.609375 56 
Q 42.328125 56 49.015625 48.375 
Q 55.71875 40.765625 55.71875 27.296875 
Q 55.71875 13.875 49.015625 6.21875 
Q 42.328125 -1.421875 30.609375 -1.421875 
Q 18.84375 -1.421875 12.171875 6.21875 
Q 5.515625 13.875 5.515625 27.296875 
Q 5.515625 40.765625 12.171875 48.375 
Q 18.84375 56 30.609375 56 
z
" id="DejaVuSans-111"/>
       <path id="DejaVuSans-32"/>
      </defs>
      <use transform="translate(0 0.234375)" xlink:href="#DejaVuSans-78"/>
      <use transform="translate(74.804688 0.234375)" xlink:href="#DejaVuSans-111"/>
      <use transform="translate(135.986328 0.234375)" xlink:href="#DejaVuSans-32"/>
      <use transform="translate(167.773438 0.234375)" xlink:href="#DejaVuSans-Oblique-952"/>
     </g>
    </g>
   </g>
  </g>
  <g id="axes_2">
   <g id="patch_7">
    <path d="M 18 128.16 
L 129.6 128.16 
L 129.6 77.76 
L 18 77.76 
z
" style="fill:none;"/>
   </g>
   <g id="PolyCollection_3">
    <path clip-path="url(#p03da3ecf44)" d="M 18 120.485495 
L 18 120.406413 
L 20.277551 120.626581 
L 22.555102 120.691645 
L 24.832653 120.609168 
L 27.110204 120.427873 
L 29.387755 120.226359 
L 31.665306 120.054167 
L 33.942857 119.77032 
L 36.220408 119.212469 
L 38.497959 118.25329 
L 40.77551 116.801784 
L 43.053061 114.806932 
L 45.330612 112.260151 
L 47.608163 109.193516 
L 49.885714 105.675379 
L 52.163265 101.806747 
L 54.440816 97.717443 
L 56.718367 93.562005 
L 58.995918 89.515063 
L 61.273469 85.766074 
L 63.55102 82.513901 
L 65.828571 79.961499 
L 68.106122 78.311081 
L 70.383673 77.76 
L 72.661224 78.497503 
L 74.938776 80.692324 
L 77.216327 84.43444 
L 79.493878 89.322123 
L 81.771429 94.906913 
L 84.04898 100.770213 
L 86.326531 106.547384 
L 88.604082 111.936864 
L 90.881633 116.704845 
L 93.159184 120.68638 
L 95.436735 123.784334 
L 97.714286 125.96694 
L 99.991837 127.262891 
L 102.269388 127.750634 
L 104.546939 127.544885 
L 106.82449 126.785272 
L 109.102041 125.627109 
L 111.379592 124.233441 
L 113.657143 122.768146 
L 115.934694 121.390718 
L 118.212245 120.254449 
L 120.489796 119.509808 
L 122.767347 119.253215 
L 125.044898 119.365823 
L 127.322449 119.684228 
L 129.6 120.067609 
L 129.6 120.17265 
L 129.6 120.17265 
L 127.322449 119.814049 
L 125.044898 119.51455 
L 122.767347 119.412689 
L 120.489796 119.673861 
L 118.212245 120.427767 
L 115.934694 121.590729 
L 113.657143 123.011756 
L 111.379592 124.527221 
L 109.102041 125.967296 
L 106.82449 127.161245 
L 104.546939 127.943255 
L 102.269388 128.16 
L 99.991837 127.679822 
L 97.714286 126.402241 
L 95.436735 124.265669 
L 93.159184 121.252023 
L 90.881633 117.392241 
L 88.604082 112.775039 
L 86.326531 107.554382 
L 84.04898 101.953185 
L 81.771429 96.262671 
L 79.493878 90.837606 
L 77.216327 86.087146 
L 74.938776 82.450977 
L 72.661224 80.323975 
L 70.383673 79.612664 
L 68.106122 80.147665 
L 65.828571 81.741038 
L 63.55102 84.198562 
L 61.273469 87.322858 
L 58.995918 90.91733 
L 56.718367 94.790735 
L 54.440816 98.76213 
L 52.163265 102.66592 
L 49.885714 106.356578 
L 47.608163 109.71292 
L 45.330612 112.641779 
L 43.053061 115.081159 
L 40.77551 117.002645 
L 38.497959 118.411769 
L 36.220408 119.349365 
L 33.942857 119.895087 
L 31.665306 120.169622 
L 29.387755 120.331462 
L 27.110204 120.517638 
L 24.832653 120.680616 
L 22.555102 120.749231 
L 20.277551 120.686373 
L 18 120.485495 
z
" style="fill:#66c2a5;fill-opacity:0.2;"/>
   </g>
   <g id="matplotlib.axis_3">
    <g id="xtick_6">
     <g id="line2d_12">
      <g>
       <use style="fill:#a9a9a9;stroke:#a9a9a9;stroke-width:2;" x="29.387755" xlink:href="#m22bf7f7c38" y="122.150464"/>
      </g>
     </g>
    </g>
    <g id="xtick_7">
     <g id="line2d_13">
      <g>
       <use style="fill:#a9a9a9;stroke:#a9a9a9;stroke-width:2;" x="52.163265" xlink:href="#m22bf7f7c38" y="122.150464"/>
      </g>
     </g>
    </g>
    <g id="xtick_8">
     <g id="line2d_14">
      <g>
       <use style="fill:#a9a9a9;stroke:#a9a9a9;stroke-width:2;" x="74.938776" xlink:href="#m22bf7f7c38" y="122.150464"/>
      </g>
     </g>
    </g>
    <g id="xtick_9">
     <g id="line2d_15">
      <g>
       <use style="fill:#a9a9a9;stroke:#a9a9a9;stroke-width:2;" x="97.714286" xlink:href="#m22bf7f7c38" y="122.150464"/>
      </g>
     </g>
    </g>
    <g id="xtick_10">
     <g id="line2d_16">
      <g>
       <use style="fill:#a9a9a9;stroke:#a9a9a9;stroke-width:2;" x="120.489796" xlink:href="#m22bf7f7c38" y="122.150464"/>
      </g>
     </g>
    </g>
   </g>
   <g id="matplotlib.axis_4"/>
   <g id="line2d_17">
    <path clip-path="url(#p03da3ecf44)" d="M 18 120.445954 
L 20.277551 120.656477 
L 22.555102 120.720438 
L 24.832653 120.644892 
L 27.110204 120.472756 
L 29.387755 120.278911 
L 31.665306 120.111894 
L 33.942857 119.832703 
L 36.220408 119.280917 
L 38.497959 118.33253 
L 40.77551 116.902214 
L 43.053061 114.944046 
L 45.330612 112.450965 
L 47.608163 109.453218 
L 49.885714 106.015979 
L 52.163265 102.236333 
L 54.440816 98.239787 
L 56.718367 94.17637 
L 58.995918 90.216196 
L 61.273469 86.544466 
L 63.55102 83.356231 
L 65.828571 80.851268 
L 68.106122 79.229373 
L 70.383673 78.686332 
L 72.661224 79.410739 
L 74.938776 81.57165 
L 77.216327 85.260793 
L 79.493878 90.079865 
L 81.771429 95.584792 
L 84.04898 101.361699 
L 86.326531 107.050883 
L 88.604082 112.355951 
L 90.881633 117.048543 
L 93.159184 120.969202 
L 95.436735 124.025002 
L 97.714286 126.18459 
L 99.991837 127.471356 
L 102.269388 127.955317 
L 104.546939 127.74407 
L 106.82449 126.973259 
L 109.102041 125.797202 
L 111.379592 124.380331 
L 113.657143 122.889951 
L 115.934694 121.490724 
L 118.212245 120.341108 
L 120.489796 119.591834 
L 122.767347 119.332952 
L 125.044898 119.440186 
L 127.322449 119.749138 
L 129.6 120.120129 
" style="fill:none;stroke:#66c2a5;stroke-linecap:square;stroke-width:2;"/>
   </g>
   <g id="patch_8">
    <path d="M 74.938776 128.16 
L 74.938776 77.76 
" style="fill:none;stroke:#a9a9a9;stroke-linecap:square;stroke-linejoin:miter;stroke-width:2;"/>
   </g>
   <g id="patch_9">
    <path d="M 129.6 128.16 
L 129.6 77.76 
" style="fill:none;"/>
   </g>
   <g id="patch_10">
    <path d="M 18 122.150464 
L 129.6 122.150464 
" style="fill:none;stroke:#a9a9a9;stroke-linecap:square;stroke-linejoin:miter;stroke-width:2;"/>
   </g>
   <g id="patch_11">
    <path d="M 18 77.76 
L 129.6 77.76 
" style="fill:none;"/>
   </g>
  </g>
 </g>
 <defs>
  <clipPath id="p6f9dd9056e">
   <rect height="50.4" width="111.6" x="18" y="17.28"/>
  </clipPath>
  <clipPath id="p03da3ecf44">
   <rect height="50.4" width="111.6" x="18" y="77.76"/>
  </clipPath>
 </defs>
</svg>
