<?xml version="1.0" encoding="utf-8" standalone="no"?>
<!DOCTYPE svg PUBLIC "-//W3C//DTD SVG 1.1//EN"
  "http://www.w3.org/Graphics/SVG/1.1/DTD/svg11.dtd">
<!-- Created with matplotlib (https://matplotlib.org/) -->
<svg height="144pt" version="1.1" viewBox="0 0 144 144" width="144pt" xmlns="http://www.w3.org/2000/svg" xmlns:xlink="http://www.w3.org/1999/xlink">
 <metadata>
  <rdf:RDF xmlns:cc="http://creativecommons.org/ns#" xmlns:dc="http://purl.org/dc/elements/1.1/" xmlns:rdf="http://www.w3.org/1999/02/22-rdf-syntax-ns#">
   <cc:Work>
    <dc:type rdf:resource="http://purl.org/dc/dcmitype/StillImage"/>
    <dc:date>2021-10-14T20:36:27.327369</dc:date>
    <dc:format>image/svg+xml</dc:format>
    <dc:creator>
     <cc:Agent>
      <dc:title>Matplotlib v3.3.2, https://matplotlib.org/</dc:title>
     </cc:Agent>
    </dc:creator>
   </cc:Work>
  </rdf:RDF>
 </metadata>
 <defs>
  <style type="text/css">*{stroke-linecap:butt;stroke-linejoin:round;}</style>
 </defs>
 <g id="figure_1">
  <g id="patch_1">
   <path d="M 0 144 
L 144 144 
L 144 0 
L 0 0 
z
" style="fill:none;"/>
  </g>
  <g id="axes_1">
   <g id="patch_2">
    <path d="M 18 67.68 
L 129.6 67.68 
L 129.6 17.28 
L 18 17.28 
z
" style="fill:none;"/>
   </g>
   <g id="PolyCollection_1">
    <path clip-path="url(#p14a225b677)" d="M 18 67.672934 
L 18 67.672934 
L 20.277551 67.672934 
L 22.555102 67.672934 
L 24.832653 67.672934 
L 27.110204 67.672934 
L 29.387755 67.672816 
L 31.665306 67.631094 
L 33.942857 67.453327 
L 36.220408 67.029374 
L 38.497959 66.236731 
L 40.77551 64.945509 
L 43.053061 63.051007 
L 45.330612 60.332831 
L 47.608163 57.108299 
L 49.885714 53.212221 
L 52.163265 48.56239 
L 54.440816 43.466729 
L 56.718367 38.172938 
L 58.995918 32.84655 
L 61.273469 28.01861 
L 63.55102 23.601613 
L 65.828571 20.570514 
L 68.106122 18.222796 
L 70.383673 17.28 
L 72.661224 18.011337 
L 74.938776 20.927835 
L 77.216327 22.935388 
L 79.493878 26.996383 
L 81.771429 31.942686 
L 84.04898 36.736073 
L 86.326531 41.51441 
L 88.604082 45.97112 
L 90.881633 50.19078 
L 93.159184 53.589841 
L 95.436735 56.579901 
L 97.714286 59.108083 
L 99.991837 61.141818 
L 102.269388 63.053777 
L 104.546939 64.406883 
L 106.82449 65.431298 
L 109.102041 66.284126 
L 111.379592 66.917969 
L 113.657143 67.32916 
L 115.934694 67.542392 
L 118.212245 67.651892 
L 120.489796 67.672875 
L 122.767347 67.672934 
L 125.044898 67.672934 
L 127.322449 67.672934 
L 129.6 67.672934 
L 129.6 67.672934 
L 129.6 67.672934 
L 127.322449 67.672934 
L 125.044898 67.672934 
L 122.767347 67.672934 
L 120.489796 67.67304 
L 118.212245 67.68 
L 115.934694 67.63993 
L 113.657143 67.478359 
L 111.379592 67.173555 
L 109.102041 66.604189 
L 106.82449 65.814018 
L 104.546939 64.916883 
L 102.269388 63.599388 
L 99.991837 62.008309 
L 97.714286 59.961706 
L 95.436735 57.621903 
L 93.159184 54.931405 
L 90.881633 51.481712 
L 88.604082 47.32899 
L 86.326531 43.179815 
L 84.04898 38.659207 
L 81.771429 33.95155 
L 79.493878 29.448372 
L 77.216327 25.217773 
L 74.938776 23.33282 
L 72.661224 20.457902 
L 70.383673 19.807716 
L 68.106122 20.627689 
L 65.828571 22.525469 
L 63.55102 25.887891 
L 61.273469 29.968259 
L 58.995918 34.542727 
L 56.718367 39.585252 
L 54.440816 44.92138 
L 52.163265 49.81996 
L 49.885714 54.205897 
L 47.608163 58.066396 
L 45.330612 61.187229 
L 43.053061 63.60587 
L 40.77551 65.341539 
L 38.497959 66.507452 
L 36.220408 67.234717 
L 33.942857 67.55159 
L 31.665306 67.664919 
L 29.387755 67.673008 
L 27.110204 67.672934 
L 24.832653 67.672934 
L 22.555102 67.672934 
L 20.277551 67.672934 
L 18 67.672934 
z
" style="fill:#fc8d62;fill-opacity:0.2;"/>
   </g>
   <g id="PolyCollection_2">
    <path clip-path="url(#p14a225b677)" d="M 18 67.672934 
L 18 67.672934 
L 20.277551 67.672934 
L 22.555102 67.672934 
L 24.832653 67.672934 
L 27.110204 67.672934 
L 29.387755 67.67285 
L 31.665306 67.635935 
L 33.942857 67.456643 
L 36.220408 67.083054 
L 38.497959 66.375558 
L 40.77551 65.319944 
L 43.053061 63.781713 
L 45.330612 61.791576 
L 47.608163 59.487098 
L 49.885714 56.707945 
L 52.163265 53.148516 
L 54.440816 49.675337 
L 56.718367 45.934384 
L 58.995918 42.023988 
L 61.273469 38.259557 
L 63.55102 34.321064 
L 65.828571 31.307408 
L 68.106122 28.243752 
L 70.383673 25.949734 
L 72.661224 24.970715 
L 74.938776 25.439297 
L 77.216327 25.053571 
L 79.493878 26.817372 
L 81.771429 28.782707 
L 84.04898 31.665745 
L 86.326531 35.165293 
L 88.604082 38.939299 
L 90.881633 42.945889 
L 93.159184 46.932622 
L 95.436735 50.654355 
L 97.714286 54.138664 
L 99.991837 57.232553 
L 102.269388 60.03964 
L 104.546939 62.437308 
L 106.82449 64.263704 
L 109.102041 65.671063 
L 111.379592 66.593231 
L 113.657143 67.191059 
L 115.934694 67.515483 
L 118.212245 67.644998 
L 120.489796 67.672896 
L 122.767347 67.672934 
L 125.044898 67.672934 
L 127.322449 67.672934 
L 129.6 67.672934 
L 129.6 67.672934 
L 129.6 67.672934 
L 127.322449 67.672934 
L 125.044898 67.672934 
L 122.767347 67.672934 
L 120.489796 67.673002 
L 118.212245 67.675313 
L 115.934694 67.598338 
L 113.657143 67.361035 
L 111.379592 66.867884 
L 109.102041 66.033386 
L 106.82449 64.681888 
L 104.546939 63.088524 
L 102.269388 60.852542 
L 99.991837 58.21606 
L 97.714286 55.325393 
L 95.436735 51.82574 
L 93.159184 48.203267 
L 90.881633 44.570376 
L 88.604082 40.621853 
L 86.326531 37.042407 
L 84.04898 33.624001 
L 81.771429 30.74966 
L 79.493878 28.673467 
L 77.216327 26.981399 
L 74.938776 27.30094 
L 72.661224 26.555815 
L 70.383673 28.065915 
L 68.106122 30.127663 
L 65.828571 32.985964 
L 63.55102 36.195109 
L 61.273469 39.873595 
L 58.995918 43.534503 
L 56.718367 47.413632 
L 54.440816 51.04546 
L 52.163265 54.314228 
L 49.885714 57.523064 
L 47.608163 60.298183 
L 45.330612 62.451045 
L 43.053061 64.370535 
L 40.77551 65.689266 
L 38.497959 66.670051 
L 36.220408 67.256498 
L 33.942857 67.582272 
L 31.665306 67.667548 
L 29.387755 67.672988 
L 27.110204 67.672934 
L 24.832653 67.672934 
L 22.555102 67.672934 
L 20.277551 67.672934 
L 18 67.672934 
z
" style="fill:#fc8d62;fill-opacity:0.2;"/>
   </g>
   <g id="matplotlib.axis_1">
    <g id="xtick_1">
     <g id="line2d_1">
      <defs>
       <path d="M 0 0 
L 0 3.5 
" id="mccaba5d2a3" style="stroke:#a9a9a9;stroke-width:2;"/>
      </defs>
      <g>
       <use style="fill:#a9a9a9;stroke:#a9a9a9;stroke-width:2;" x="29.387755" xlink:href="#mccaba5d2a3" y="67.672934"/>
      </g>
     </g>
    </g>
    <g id="xtick_2">
     <g id="line2d_2">
      <g>
       <use style="fill:#a9a9a9;stroke:#a9a9a9;stroke-width:2;" x="52.163265" xlink:href="#mccaba5d2a3" y="67.672934"/>
      </g>
     </g>
    </g>
    <g id="xtick_3">
     <g id="line2d_3">
      <g>
       <use style="fill:#a9a9a9;stroke:#a9a9a9;stroke-width:2;" x="74.938776" xlink:href="#mccaba5d2a3" y="67.672934"/>
      </g>
     </g>
    </g>
    <g id="xtick_4">
     <g id="line2d_4">
      <g>
       <use style="fill:#a9a9a9;stroke:#a9a9a9;stroke-width:2;" x="97.714286" xlink:href="#mccaba5d2a3" y="67.672934"/>
      </g>
     </g>
    </g>
    <g id="xtick_5">
     <g id="line2d_5">
      <g>
       <use style="fill:#a9a9a9;stroke:#a9a9a9;stroke-width:2;" x="120.489796" xlink:href="#mccaba5d2a3" y="67.672934"/>
      </g>
     </g>
    </g>
   </g>
   <g id="matplotlib.axis_2"/>
   <g id="line2d_6">
    <path clip-path="url(#p14a225b677)" d="M 18 67.672934 
L 20.277551 67.672934 
L 22.555102 67.672934 
L 24.832653 67.672934 
L 27.110204 67.672934 
L 29.387755 67.672912 
L 31.665306 67.648006 
L 33.942857 67.502459 
L 36.220408 67.132045 
L 38.497959 66.372092 
L 40.77551 65.143524 
L 43.053061 63.328438 
L 45.330612 60.76003 
L 47.608163 57.587347 
L 49.885714 53.709059 
L 52.163265 49.191175 
L 54.440816 44.194055 
L 56.718367 38.879095 
L 58.995918 33.694638 
L 61.273469 28.993434 
L 63.55102 24.744752 
L 65.828571 21.547991 
L 68.106122 19.425242 
L 70.383673 18.543858 
L 72.661224 19.23462 
L 74.938776 22.130328 
L 77.216327 24.076581 
L 79.493878 28.222378 
L 81.771429 32.947118 
L 84.04898 37.69764 
L 86.326531 42.347112 
L 88.604082 46.650055 
L 90.881633 50.836246 
L 93.159184 54.260623 
L 95.436735 57.100902 
L 97.714286 59.534894 
L 99.991837 61.575063 
L 102.269388 63.326583 
L 104.546939 64.661883 
L 106.82449 65.622658 
L 109.102041 66.444157 
L 111.379592 67.045762 
L 113.657143 67.40376 
L 115.934694 67.591161 
L 118.212245 67.665946 
L 120.489796 67.672958 
L 122.767347 67.672934 
L 125.044898 67.672934 
L 127.322449 67.672934 
L 129.6 67.672934 
" style="fill:none;stroke:#fc8d62;stroke-linecap:square;stroke-width:2;"/>
   </g>
   <g id="line2d_7">
    <path clip-path="url(#p14a225b677)" d="M 18 67.672934 
L 20.277551 67.672934 
L 22.555102 67.672934 
L 24.832653 67.672934 
L 27.110204 67.672934 
L 29.387755 67.672919 
L 31.665306 67.651742 
L 33.942857 67.519457 
L 36.220408 67.169776 
L 38.497959 66.522804 
L 40.77551 65.504605 
L 43.053061 64.076124 
L 45.330612 62.12131 
L 47.608163 59.89264 
L 49.885714 57.115504 
L 52.163265 53.731372 
L 54.440816 50.360399 
L 56.718367 46.674008 
L 58.995918 42.779245 
L 61.273469 39.066576 
L 63.55102 35.258087 
L 65.828571 32.146686 
L 68.106122 29.185707 
L 70.383673 27.007825 
L 72.661224 25.763265 
L 74.938776 26.370118 
L 77.216327 26.017485 
L 79.493878 27.74542 
L 81.771429 29.766183 
L 84.04898 32.644873 
L 86.326531 36.10385 
L 88.604082 39.780576 
L 90.881633 43.758133 
L 93.159184 47.567944 
L 95.436735 51.240048 
L 97.714286 54.732028 
L 99.991837 57.724306 
L 102.269388 60.446091 
L 104.546939 62.762916 
L 106.82449 64.472796 
L 109.102041 65.852224 
L 111.379592 66.730558 
L 113.657143 67.276047 
L 115.934694 67.556911 
L 118.212245 67.660156 
L 120.489796 67.672949 
L 122.767347 67.672934 
L 125.044898 67.672934 
L 127.322449 67.672934 
L 129.6 67.672934 
" style="fill:none;stroke:#fc8d62;stroke-dasharray:1.5,1.5;stroke-dashoffset:0;stroke-opacity:0.7;stroke-width:1.5;"/>
   </g>
   <g id="patch_3">
    <path d="M 74.938776 67.68 
L 74.938776 17.28 
" style="fill:none;stroke:#a9a9a9;stroke-linecap:square;stroke-linejoin:miter;stroke-width:2;"/>
   </g>
   <g id="patch_4">
    <path d="M 129.6 67.68 
L 129.6 17.28 
" style="fill:none;"/>
   </g>
   <g id="patch_5">
    <path d="M 18 67.672934 
L 129.6 67.672934 
" style="fill:none;stroke:#a9a9a9;stroke-linecap:square;stroke-linejoin:miter;stroke-width:2;"/>
   </g>
   <g id="patch_6">
    <path d="M 18 17.28 
L 129.6 17.28 
" style="fill:none;"/>
   </g>
   <g id="legend_1">
    <g id="line2d_8">
     <path d="M 101.475312 26.448906 
L 115.475312 26.448906 
" style="fill:none;stroke:#fc8d62;stroke-linecap:square;stroke-width:2;"/>
    </g>
    <g id="line2d_9"/>
    <g id="text_1">
     <!--   -->
     <g transform="translate(121.075312 28.898906)scale(0.07 -0.07)">
      <defs>
       <path id="DejaVuSans-32"/>
      </defs>
      <use xlink:href="#DejaVuSans-32"/>
     </g>
    </g>
    <g id="line2d_10">
     <path d="M 101.475312 36.723594 
L 115.475312 36.723594 
" style="fill:none;stroke:#fc8d62;stroke-dasharray:1.5,1.5;stroke-dashoffset:0;stroke-opacity:0.7;stroke-width:1.5;"/>
    </g>
    <g id="line2d_11"/>
    <g id="text_2">
     <!--   -->
     <g transform="translate(121.075312 39.173594)scale(0.07 -0.07)">
      <use xlink:href="#DejaVuSans-32"/>
     </g>
    </g>
   </g>
  </g>
  <g id="axes_2">
   <g id="patch_7">
    <path d="M 18 128.16 
L 129.6 128.16 
L 129.6 77.76 
L 18 77.76 
z
" style="fill:none;"/>
   </g>
   <g id="PolyCollection_3">
    <path clip-path="url(#p8d72f8df42)" d="M 18 120.562363 
L 18 120.479315 
L 20.277551 120.690921 
L 22.555102 120.762592 
L 24.832653 120.698885 
L 27.110204 120.542743 
L 29.387755 120.36555 
L 31.665306 120.21108 
L 33.942857 119.93967 
L 36.220408 119.391445 
L 38.497959 118.439984 
L 40.77551 116.994445 
L 43.053061 115.004133 
L 45.330612 112.460782 
L 47.608163 109.395728 
L 49.885714 105.876319 
L 52.163265 102.002791 
L 54.440816 97.904516 
L 56.718367 93.735943 
L 58.995918 89.671731 
L 61.273469 85.901399 
L 63.55102 82.623673 
L 65.828571 80.041029 
L 68.106122 78.354641 
L 70.383673 77.76 
L 72.661224 78.443353 
L 74.938776 80.571869 
L 77.216327 84.225462 
L 79.493878 89.023881 
L 81.771429 94.530004 
L 84.04898 100.335526 
L 86.326531 106.082079 
L 88.604082 111.470621 
L 90.881633 116.2667 
L 93.159184 120.302125 
L 95.436735 123.474555 
L 97.714286 125.746046 
L 99.991837 127.138604 
L 102.269388 127.724026 
L 104.546939 127.610935 
L 106.82449 126.933725 
L 109.102041 125.843596 
L 111.379592 124.500754 
L 113.657143 123.067487 
L 115.934694 121.702751 
L 118.212245 120.559841 
L 120.489796 119.789084 
L 122.767347 119.489041 
L 125.044898 119.550568 
L 127.322449 119.820334 
L 129.6 120.164937 
L 129.6 120.273695 
L 129.6 120.273695 
L 127.322449 119.954092 
L 125.044898 119.703769 
L 122.767347 119.653843 
L 120.489796 119.959827 
L 118.212245 120.741619 
L 115.934694 121.913592 
L 113.657143 123.324277 
L 111.379592 124.810075 
L 109.102041 126.201878 
L 106.82449 127.330564 
L 104.546939 128.033052 
L 102.269388 128.16 
L 99.991837 127.584972 
L 97.714286 126.213745 
L 95.436735 123.991595 
L 93.159184 120.907457 
L 90.881633 116.998796 
L 88.604082 112.359459 
L 86.326531 107.146608 
L 84.04898 101.583593 
L 81.771429 95.958568 
L 79.493878 90.61934 
L 77.216327 85.964064 
L 74.938776 82.420422 
L 72.661224 80.36064 
L 70.383673 79.701992 
L 68.106122 80.276925 
L 65.828571 81.900842 
L 63.55102 84.381796 
L 61.273469 87.523874 
L 58.995918 91.131381 
L 56.718367 95.013647 
L 54.440816 98.990172 
L 52.163265 102.895729 
L 49.885714 106.5852 
L 47.608163 109.937744 
L 45.330612 112.860573 
L 43.053061 115.292086 
L 40.77551 117.204511 
L 38.497959 118.604686 
L 36.220408 119.53388 
L 33.942857 120.070642 
L 31.665306 120.333465 
L 29.387755 120.478045 
L 27.110204 120.639584 
L 24.832653 120.777087 
L 22.555102 120.826441 
L 20.277551 120.755751 
L 18 120.562363 
z
" style="fill:#66c2a5;fill-opacity:0.2;"/>
   </g>
   <g id="matplotlib.axis_3">
    <g id="xtick_6">
     <g id="line2d_12">
      <g>
       <use style="fill:#a9a9a9;stroke:#a9a9a9;stroke-width:2;" x="29.387755" xlink:href="#mccaba5d2a3" y="122.256693"/>
      </g>
     </g>
    </g>
    <g id="xtick_7">
     <g id="line2d_13">
      <g>
       <use style="fill:#a9a9a9;stroke:#a9a9a9;stroke-width:2;" x="52.163265" xlink:href="#mccaba5d2a3" y="122.256693"/>
      </g>
     </g>
    </g>
    <g id="xtick_8">
     <g id="line2d_14">
      <g>
       <use style="fill:#a9a9a9;stroke:#a9a9a9;stroke-width:2;" x="74.938776" xlink:href="#mccaba5d2a3" y="122.256693"/>
      </g>
     </g>
    </g>
    <g id="xtick_9">
     <g id="line2d_15">
      <g>
       <use style="fill:#a9a9a9;stroke:#a9a9a9;stroke-width:2;" x="97.714286" xlink:href="#mccaba5d2a3" y="122.256693"/>
      </g>
     </g>
    </g>
    <g id="xtick_10">
     <g id="line2d_16">
      <g>
       <use style="fill:#a9a9a9;stroke:#a9a9a9;stroke-width:2;" x="120.489796" xlink:href="#mccaba5d2a3" y="122.256693"/>
      </g>
     </g>
    </g>
   </g>
   <g id="matplotlib.axis_4"/>
   <g id="line2d_17">
    <path clip-path="url(#p8d72f8df42)" d="M 18 120.520839 
L 20.277551 120.723336 
L 22.555102 120.794517 
L 24.832653 120.737986 
L 27.110204 120.591164 
L 29.387755 120.421797 
L 31.665306 120.272273 
L 33.942857 120.005156 
L 36.220408 119.462662 
L 38.497959 118.522335 
L 40.77551 117.099478 
L 43.053061 115.148109 
L 45.330612 112.660677 
L 47.608163 109.666736 
L 49.885714 106.23076 
L 52.163265 102.44926 
L 54.440816 98.447344 
L 56.718367 94.374795 
L 58.995918 90.401556 
L 61.273469 86.712636 
L 63.55102 83.502734 
L 65.828571 80.970935 
L 68.106122 79.315783 
L 70.383673 78.730996 
L 72.661224 79.401996 
L 74.938776 81.496146 
L 77.216327 85.094763 
L 79.493878 89.82161 
L 81.771429 95.244286 
L 84.04898 100.959559 
L 86.326531 106.614344 
L 88.604082 111.91504 
L 90.881633 116.632748 
L 93.159184 120.604791 
L 95.436735 123.733075 
L 97.714286 125.979896 
L 99.991837 127.361788 
L 102.269388 127.942013 
L 104.546939 127.821994 
L 106.82449 127.132144 
L 109.102041 126.022737 
L 111.379592 124.655414 
L 113.657143 123.195882 
L 115.934694 121.808171 
L 118.212245 120.65073 
L 120.489796 119.874456 
L 122.767347 119.571442 
L 125.044898 119.627168 
L 127.322449 119.887213 
L 129.6 120.219316 
" style="fill:none;stroke:#66c2a5;stroke-linecap:square;stroke-width:2;"/>
   </g>
   <g id="patch_8">
    <path d="M 74.938776 128.16 
L 74.938776 77.76 
" style="fill:none;stroke:#a9a9a9;stroke-linecap:square;stroke-linejoin:miter;stroke-width:2;"/>
   </g>
   <g id="patch_9">
    <path d="M 129.6 128.16 
L 129.6 77.76 
" style="fill:none;"/>
   </g>
   <g id="patch_10">
    <path d="M 18 122.256693 
L 129.6 122.256693 
" style="fill:none;stroke:#a9a9a9;stroke-linecap:square;stroke-linejoin:miter;stroke-width:2;"/>
   </g>
   <g id="patch_11">
    <path d="M 18 77.76 
L 129.6 77.76 
" style="fill:none;"/>
   </g>
   <g id="legend_2">
    <g id="line2d_18">
     <path d="M 101.475312 86.928906 
L 115.475312 86.928906 
" style="fill:none;stroke:#66c2a5;stroke-linecap:square;stroke-width:2;"/>
    </g>
    <g id="line2d_19"/>
    <g id="text_3">
     <!--   -->
     <g transform="translate(121.075312 89.378906)scale(0.07 -0.07)">
      <use xlink:href="#DejaVuSans-32"/>
     </g>
    </g>
   </g>
  </g>
 </g>
 <defs>
  <clipPath id="p14a225b677">
   <rect height="50.4" width="111.6" x="18" y="17.28"/>
  </clipPath>
  <clipPath id="p8d72f8df42">
   <rect height="50.4" width="111.6" x="18" y="77.76"/>
  </clipPath>
 </defs>
</svg>
