<?xml version="1.0" encoding="utf-8" standalone="no"?>
<!DOCTYPE svg PUBLIC "-//W3C//DTD SVG 1.1//EN"
  "http://www.w3.org/Graphics/SVG/1.1/DTD/svg11.dtd">
<!-- Created with matplotlib (https://matplotlib.org/) -->
<svg height="144pt" version="1.1" viewBox="0 0 144 144" width="144pt" xmlns="http://www.w3.org/2000/svg" xmlns:xlink="http://www.w3.org/1999/xlink">
 <metadata>
  <rdf:RDF xmlns:cc="http://creativecommons.org/ns#" xmlns:dc="http://purl.org/dc/elements/1.1/" xmlns:rdf="http://www.w3.org/1999/02/22-rdf-syntax-ns#">
   <cc:Work>
    <dc:type rdf:resource="http://purl.org/dc/dcmitype/StillImage"/>
    <dc:date>2021-10-13T14:19:16.429536</dc:date>
    <dc:format>image/svg+xml</dc:format>
    <dc:creator>
     <cc:Agent>
      <dc:title>Matplotlib v3.3.2, https://matplotlib.org/</dc:title>
     </cc:Agent>
    </dc:creator>
   </cc:Work>
  </rdf:RDF>
 </metadata>
 <defs>
  <style type="text/css">*{stroke-linecap:butt;stroke-linejoin:round;}</style>
 </defs>
 <g id="figure_1">
  <g id="patch_1">
   <path d="M 0 144 
L 144 144 
L 144 0 
L 0 0 
z
" style="fill:none;"/>
  </g>
  <g id="axes_1">
   <g id="patch_2">
    <path d="M 18 67.68 
L 129.6 67.68 
L 129.6 17.28 
L 18 17.28 
z
" style="fill:none;"/>
   </g>
   <g id="PolyCollection_1">
    <path clip-path="url(#pe2cbfd937b)" d="M 18 67.658626 
L 18 67.658626 
L 20.277551 67.658626 
L 22.555102 67.658626 
L 24.832653 67.658626 
L 27.110204 67.658626 
L 29.387755 67.657917 
L 31.665306 67.606916 
L 33.942857 67.346811 
L 36.220408 66.808689 
L 38.497959 65.869809 
L 40.77551 64.573508 
L 43.053061 62.516513 
L 45.330612 59.794692 
L 47.608163 56.463243 
L 49.885714 52.627029 
L 52.163265 48.364058 
L 54.440816 43.513182 
L 56.718367 38.414585 
L 58.995918 33.642929 
L 61.273469 28.813094 
L 63.55102 24.831597 
L 65.828571 20.925741 
L 68.106122 18.856106 
L 70.383673 17.408999 
L 72.661224 17.28 
L 74.938776 26.792348 
L 77.216327 21.658044 
L 79.493878 25.000437 
L 81.771429 28.529898 
L 84.04898 32.546241 
L 86.326531 37.291105 
L 88.604082 41.746449 
L 90.881633 45.562304 
L 93.159184 49.660546 
L 95.436735 53.312142 
L 97.714286 56.369151 
L 99.991837 58.879657 
L 102.269388 61.321719 
L 104.546939 63.211953 
L 106.82449 64.734854 
L 109.102041 65.830599 
L 111.379592 66.684699 
L 113.657143 67.239251 
L 115.934694 67.508152 
L 118.212245 67.631504 
L 120.489796 67.658494 
L 122.767347 67.658626 
L 125.044898 67.658626 
L 127.322449 67.658626 
L 129.6 67.658626 
L 129.6 67.658626 
L 129.6 67.658626 
L 127.322449 67.658626 
L 125.044898 67.658626 
L 122.767347 67.658627 
L 120.489796 67.659647 
L 118.212245 67.68 
L 115.934694 67.663762 
L 113.657143 67.499326 
L 111.379592 67.041341 
L 109.102041 66.449574 
L 106.82449 65.338159 
L 104.546939 64.16563 
L 102.269388 62.468806 
L 99.991837 60.328898 
L 97.714286 57.629192 
L 95.436735 54.978188 
L 93.159184 51.400324 
L 90.881633 47.77935 
L 88.604082 43.966974 
L 86.326531 39.804115 
L 84.04898 35.099075 
L 81.771429 31.575955 
L 79.493878 27.45327 
L 77.216327 24.194292 
L 74.938776 29.524729 
L 72.661224 21.163818 
L 70.383673 21.034078 
L 68.106122 22.607457 
L 65.828571 24.858338 
L 63.55102 27.643529 
L 61.273469 31.873523 
L 58.995918 36.310855 
L 56.718367 41.013433 
L 54.440816 45.530797 
L 52.163265 50.197547 
L 49.885714 54.545803 
L 47.608163 57.952057 
L 45.330612 60.997726 
L 43.053061 63.541593 
L 40.77551 65.172026 
L 38.497959 66.358701 
L 36.220408 67.119148 
L 33.942857 67.524906 
L 31.665306 67.656396 
L 29.387755 67.658964 
L 27.110204 67.658626 
L 24.832653 67.658626 
L 22.555102 67.658626 
L 20.277551 67.658626 
L 18 67.658626 
z
" style="fill:#fc8d62;fill-opacity:0.2;"/>
   </g>
   <g id="PolyCollection_2">
    <path clip-path="url(#pe2cbfd937b)" d="M 18 67.658626 
L 18 67.658626 
L 20.277551 67.658626 
L 22.555102 67.658626 
L 24.832653 67.658626 
L 27.110204 67.658626 
L 29.387755 67.656615 
L 31.665306 67.576374 
L 33.942857 67.340811 
L 36.220408 66.842785 
L 38.497959 66.028065 
L 40.77551 64.674203 
L 43.053061 62.780501 
L 45.330612 60.558139 
L 47.608163 57.670223 
L 49.885714 54.496176 
L 52.163265 51.046929 
L 54.440816 46.919116 
L 56.718367 42.74585 
L 58.995918 38.233375 
L 61.273469 33.805684 
L 63.55102 29.765013 
L 65.828571 26.732631 
L 68.106122 23.206331 
L 70.383673 21.313809 
L 72.661224 19.853888 
L 74.938776 25.40631 
L 77.216327 20.304707 
L 79.493878 22.509522 
L 81.771429 24.560947 
L 84.04898 28.048146 
L 86.326531 32.176266 
L 88.604082 36.085009 
L 90.881633 40.107642 
L 93.159184 44.437098 
L 95.436735 48.690237 
L 97.714286 52.34064 
L 99.991837 56.087484 
L 102.269388 59.129281 
L 104.546939 61.726068 
L 106.82449 63.804466 
L 109.102041 65.265435 
L 111.379592 66.416442 
L 113.657143 67.064665 
L 115.934694 67.470751 
L 118.212245 67.616372 
L 120.489796 67.658187 
L 122.767347 67.658626 
L 125.044898 67.658626 
L 127.322449 67.658626 
L 129.6 67.658626 
L 129.6 67.658626 
L 129.6 67.658626 
L 127.322449 67.658626 
L 125.044898 67.658626 
L 122.767347 67.658627 
L 120.489796 67.659746 
L 118.212245 67.683657 
L 115.934694 67.644257 
L 113.657143 67.44771 
L 111.379592 66.892215 
L 109.102041 65.938814 
L 106.82449 64.687792 
L 104.546939 63.009804 
L 102.269388 60.388184 
L 99.991837 57.575426 
L 97.714286 54.17261 
L 95.436735 50.80171 
L 93.159184 47.026539 
L 90.881633 42.469997 
L 88.604082 38.930695 
L 86.326531 34.872922 
L 84.04898 30.932933 
L 81.771429 28.04227 
L 79.493878 25.381622 
L 77.216327 23.959937 
L 74.938776 28.088847 
L 72.661224 23.210812 
L 70.383673 24.493658 
L 68.106122 26.231842 
L 65.828571 29.285544 
L 63.55102 32.632203 
L 61.273469 36.306695 
L 58.995918 40.963933 
L 56.718367 44.752937 
L 54.440816 48.853426 
L 52.163265 52.795149 
L 49.885714 56.029976 
L 47.608163 59.115899 
L 45.330612 61.568823 
L 43.053061 63.802295 
L 40.77551 65.370531 
L 38.497959 66.431073 
L 36.220408 67.187614 
L 33.942857 67.519018 
L 31.665306 67.660617 
L 29.387755 67.660063 
L 27.110204 67.658626 
L 24.832653 67.658626 
L 22.555102 67.658626 
L 20.277551 67.658626 
L 18 67.658626 
z
" style="fill:#fc8d62;fill-opacity:0.2;"/>
   </g>
   <g id="matplotlib.axis_1">
    <g id="xtick_1">
     <g id="line2d_1">
      <defs>
       <path d="M 0 0 
L 0 3.5 
" id="me5377acc83" style="stroke:#a9a9a9;stroke-width:2;"/>
      </defs>
      <g>
       <use style="fill:#a9a9a9;stroke:#a9a9a9;stroke-width:2;" x="29.387755" xlink:href="#me5377acc83" y="67.658626"/>
      </g>
     </g>
    </g>
    <g id="xtick_2">
     <g id="line2d_2">
      <g>
       <use style="fill:#a9a9a9;stroke:#a9a9a9;stroke-width:2;" x="52.163265" xlink:href="#me5377acc83" y="67.658626"/>
      </g>
     </g>
    </g>
    <g id="xtick_3">
     <g id="line2d_3">
      <g>
       <use style="fill:#a9a9a9;stroke:#a9a9a9;stroke-width:2;" x="74.938776" xlink:href="#me5377acc83" y="67.658626"/>
      </g>
     </g>
    </g>
    <g id="xtick_4">
     <g id="line2d_4">
      <g>
       <use style="fill:#a9a9a9;stroke:#a9a9a9;stroke-width:2;" x="97.714286" xlink:href="#me5377acc83" y="67.658626"/>
      </g>
     </g>
    </g>
    <g id="xtick_5">
     <g id="line2d_5">
      <g>
       <use style="fill:#a9a9a9;stroke:#a9a9a9;stroke-width:2;" x="120.489796" xlink:href="#me5377acc83" y="67.658626"/>
      </g>
     </g>
    </g>
   </g>
   <g id="matplotlib.axis_2"/>
   <g id="line2d_6">
    <path clip-path="url(#pe2cbfd937b)" d="M 18 67.658626 
L 20.277551 67.658626 
L 22.555102 67.658626 
L 24.832653 67.658626 
L 27.110204 67.658626 
L 29.387755 67.658441 
L 31.665306 67.631656 
L 33.942857 67.435858 
L 36.220408 66.963919 
L 38.497959 66.114255 
L 40.77551 64.872767 
L 43.053061 63.029053 
L 45.330612 60.396209 
L 47.608163 57.20765 
L 49.885714 53.586416 
L 52.163265 49.280803 
L 54.440816 44.52199 
L 56.718367 39.714009 
L 58.995918 34.976892 
L 61.273469 30.343308 
L 63.55102 26.237563 
L 65.828571 22.892039 
L 68.106122 20.731782 
L 70.383673 19.221539 
L 72.661224 19.221909 
L 74.938776 28.158539 
L 77.216327 22.926168 
L 79.493878 26.226854 
L 81.771429 30.052927 
L 84.04898 33.822658 
L 86.326531 38.54761 
L 88.604082 42.856711 
L 90.881633 46.670827 
L 93.159184 50.530435 
L 95.436735 54.145165 
L 97.714286 56.999172 
L 99.991837 59.604278 
L 102.269388 61.895262 
L 104.546939 63.688791 
L 106.82449 65.036506 
L 109.102041 66.140086 
L 111.379592 66.86302 
L 113.657143 67.369288 
L 115.934694 67.585957 
L 118.212245 67.655752 
L 120.489796 67.65907 
L 122.767347 67.658626 
L 125.044898 67.658626 
L 127.322449 67.658626 
L 129.6 67.658626 
" style="fill:none;stroke:#fc8d62;stroke-linecap:square;stroke-width:2;"/>
   </g>
   <g id="line2d_7">
    <path clip-path="url(#pe2cbfd937b)" d="M 18 67.658626 
L 20.277551 67.658626 
L 22.555102 67.658626 
L 24.832653 67.658626 
L 27.110204 67.658626 
L 29.387755 67.658339 
L 31.665306 67.618496 
L 33.942857 67.429914 
L 36.220408 67.015199 
L 38.497959 66.229569 
L 40.77551 65.022367 
L 43.053061 63.291398 
L 45.330612 61.063481 
L 47.608163 58.393061 
L 49.885714 55.263076 
L 52.163265 51.921039 
L 54.440816 47.886271 
L 56.718367 43.749393 
L 58.995918 39.598654 
L 61.273469 35.056189 
L 63.55102 31.198608 
L 65.828571 28.009088 
L 68.106122 24.719086 
L 70.383673 22.903734 
L 72.661224 21.53235 
L 74.938776 26.747579 
L 77.216327 22.132322 
L 79.493878 23.945572 
L 81.771429 26.301609 
L 84.04898 29.49054 
L 86.326531 33.524594 
L 88.604082 37.507852 
L 90.881633 41.28882 
L 93.159184 45.731818 
L 95.436735 49.745973 
L 97.714286 53.256625 
L 99.991837 56.831455 
L 102.269388 59.758733 
L 104.546939 62.367936 
L 106.82449 64.246129 
L 109.102041 65.602124 
L 111.379592 66.654328 
L 113.657143 67.256188 
L 115.934694 67.557504 
L 118.212245 67.650014 
L 120.489796 67.658967 
L 122.767347 67.658626 
L 125.044898 67.658626 
L 127.322449 67.658626 
L 129.6 67.658626 
" style="fill:none;stroke:#fc8d62;stroke-dasharray:1.5,1.5;stroke-dashoffset:0;stroke-opacity:0.7;stroke-width:1.5;"/>
   </g>
   <g id="patch_3">
    <path d="M 74.938776 67.68 
L 74.938776 17.28 
" style="fill:none;stroke:#a9a9a9;stroke-linecap:square;stroke-linejoin:miter;stroke-width:2;"/>
   </g>
   <g id="patch_4">
    <path d="M 129.6 67.68 
L 129.6 17.28 
" style="fill:none;"/>
   </g>
   <g id="patch_5">
    <path d="M 18 67.658626 
L 129.6 67.658626 
" style="fill:none;stroke:#a9a9a9;stroke-linecap:square;stroke-linejoin:miter;stroke-width:2;"/>
   </g>
   <g id="patch_6">
    <path d="M 18 17.28 
L 129.6 17.28 
" style="fill:none;"/>
   </g>
   <g id="legend_1">
    <g id="line2d_8">
     <path d="M 87.67 26.448906 
L 101.67 26.448906 
" style="fill:none;stroke:#fc8d62;stroke-linecap:square;stroke-width:2;"/>
    </g>
    <g id="line2d_9"/>
    <g id="text_1">
     <!-- $\theta$ -->
     <g transform="translate(107.27 28.898906)scale(0.07 -0.07)">
      <defs>
       <path d="M 45.515625 34.671875 
L 14.453125 34.671875 
Q 12.359375 20.0625 14.5 13.875 
Q 17.1875 6.25 24.46875 6.25 
Q 31.78125 6.25 37.359375 13.921875 
Q 42.234375 20.65625 45.515625 34.671875 
z
M 47.015625 42.96875 
Q 48.34375 56.84375 46.625 61.71875 
Q 43.953125 69.4375 36.765625 69.4375 
Q 29.296875 69.4375 23.828125 61.8125 
Q 19.53125 55.671875 16.15625 42.96875 
z
M 38.1875 76.765625 
Q 49.90625 76.765625 54.59375 66.40625 
Q 59.28125 56.109375 55.71875 37.84375 
Q 52.203125 19.625 43.453125 9.28125 
Q 34.765625 -1.125 23.046875 -1.125 
Q 11.28125 -1.125 6.640625 9.28125 
Q 2 19.625 5.515625 37.84375 
Q 9.078125 56.109375 17.71875 66.40625 
Q 26.421875 76.765625 38.1875 76.765625 
z
" id="DejaVuSans-Oblique-952"/>
      </defs>
      <use transform="translate(0 0.234375)" xlink:href="#DejaVuSans-Oblique-952"/>
     </g>
    </g>
    <g id="line2d_10">
     <path d="M 87.67 36.723594 
L 101.67 36.723594 
" style="fill:none;stroke:#fc8d62;stroke-dasharray:1.5,1.5;stroke-dashoffset:0;stroke-opacity:0.7;stroke-width:1.5;"/>
    </g>
    <g id="line2d_11"/>
    <g id="text_2">
     <!-- No $\theta$ -->
     <g transform="translate(107.27 39.173594)scale(0.07 -0.07)">
      <defs>
       <path d="M 9.8125 72.90625 
L 23.09375 72.90625 
L 55.421875 11.921875 
L 55.421875 72.90625 
L 64.984375 72.90625 
L 64.984375 0 
L 51.703125 0 
L 19.390625 60.984375 
L 19.390625 0 
L 9.8125 0 
z
" id="DejaVuSans-78"/>
       <path d="M 30.609375 48.390625 
Q 23.390625 48.390625 19.1875 42.75 
Q 14.984375 37.109375 14.984375 27.296875 
Q 14.984375 17.484375 19.15625 11.84375 
Q 23.34375 6.203125 30.609375 6.203125 
Q 37.796875 6.203125 41.984375 11.859375 
Q 46.1875 17.53125 46.1875 27.296875 
Q 46.1875 37.015625 41.984375 42.703125 
Q 37.796875 48.390625 30.609375 48.390625 
z
M 30.609375 56 
Q 42.328125 56 49.015625 48.375 
Q 55.71875 40.765625 55.71875 27.296875 
Q 55.71875 13.875 49.015625 6.21875 
Q 42.328125 -1.421875 30.609375 -1.421875 
Q 18.84375 -1.421875 12.171875 6.21875 
Q 5.515625 13.875 5.515625 27.296875 
Q 5.515625 40.765625 12.171875 48.375 
Q 18.84375 56 30.609375 56 
z
" id="DejaVuSans-111"/>
       <path id="DejaVuSans-32"/>
      </defs>
      <use transform="translate(0 0.234375)" xlink:href="#DejaVuSans-78"/>
      <use transform="translate(74.804688 0.234375)" xlink:href="#DejaVuSans-111"/>
      <use transform="translate(135.986328 0.234375)" xlink:href="#DejaVuSans-32"/>
      <use transform="translate(167.773438 0.234375)" xlink:href="#DejaVuSans-Oblique-952"/>
     </g>
    </g>
   </g>
  </g>
  <g id="axes_2">
   <g id="patch_7">
    <path d="M 18 128.16 
L 129.6 128.16 
L 129.6 77.76 
L 18 77.76 
z
" style="fill:none;"/>
   </g>
   <g id="PolyCollection_3">
    <path clip-path="url(#p2d96ac783f)" d="M 18 120.503469 
L 18 120.425438 
L 20.277551 120.642327 
L 22.555102 120.707355 
L 24.832653 120.627776 
L 27.110204 120.451297 
L 29.387755 120.254892 
L 31.665306 120.086213 
L 33.942857 119.805137 
L 36.220408 119.249854 
L 38.497959 118.293014 
L 40.77551 116.843347 
L 43.053061 114.849777 
L 45.330612 112.304184 
L 47.608163 109.23837 
L 49.885714 105.720485 
L 52.163265 101.851318 
L 54.440816 97.76061 
L 56.718367 93.602851 
L 58.995918 89.55258 
L 61.273469 85.799139 
L 63.55102 82.541236 
L 65.828571 79.981633 
L 68.106122 78.322255 
L 70.383673 77.76 
L 72.661224 78.483416 
L 74.938776 80.66035 
L 77.216327 84.37926 
L 79.493878 89.2427 
L 81.771429 94.805557 
L 84.04898 100.651865 
L 86.326531 106.41868 
L 88.604082 111.805284 
L 90.881633 116.578057 
L 93.159184 120.571854 
L 95.436735 123.688846 
L 97.714286 125.89581 
L 99.991837 127.218964 
L 102.269388 127.734052 
L 104.546939 127.553825 
L 106.82449 126.816528 
L 109.102041 125.67661 
L 111.379592 124.296569 
L 113.657143 122.840085 
L 115.934694 121.466756 
L 118.212245 120.330072 
L 120.489796 119.580299 
L 122.767347 119.313568 
L 125.044898 119.413808 
L 127.322449 119.720105 
L 129.6 120.093447 
L 129.6 120.197345 
L 129.6 120.197345 
L 127.322449 119.848721 
L 125.044898 119.561366 
L 122.767347 119.472137 
L 120.489796 119.744329 
L 118.212245 120.505097 
L 115.934694 121.670254 
L 113.657143 123.088411 
L 111.379592 124.596095 
L 109.102041 126.023886 
L 106.82449 127.201653 
L 104.546939 127.964422 
L 102.269388 128.16 
L 99.991837 127.657909 
L 97.714286 126.3587 
L 95.436735 124.201345 
L 93.159184 121.168574 
L 90.881633 117.292903 
L 88.604082 112.664837 
L 86.326531 107.439712 
L 84.04898 101.840975 
L 81.771429 96.159538 
L 79.493878 90.748972 
L 77.216327 86.016384 
L 74.938776 82.398665 
L 72.661224 80.286461 
L 70.383673 79.587893 
L 68.106122 80.13419 
L 65.828571 81.737866 
L 63.55102 84.204913 
L 61.273469 87.337983 
L 58.995918 90.940372 
L 56.718367 94.820646 
L 54.440816 98.797675 
L 52.163265 102.705736 
L 49.885714 106.399295 
L 47.608163 109.757245 
L 45.330612 112.686481 
L 43.053061 115.125193 
L 40.77551 117.045111 
L 38.497959 118.452604 
L 36.220408 119.388652 
L 33.942857 119.932564 
L 31.665306 120.204526 
L 29.387755 120.362611 
L 27.110204 120.543313 
L 24.832653 120.70083 
L 22.555102 120.765495 
L 20.277551 120.701531 
L 18 120.503469 
z
" style="fill:#66c2a5;fill-opacity:0.2;"/>
   </g>
   <g id="matplotlib.axis_3">
    <g id="xtick_6">
     <g id="line2d_12">
      <g>
       <use style="fill:#a9a9a9;stroke:#a9a9a9;stroke-width:2;" x="29.387755" xlink:href="#me5377acc83" y="122.173551"/>
      </g>
     </g>
    </g>
    <g id="xtick_7">
     <g id="line2d_13">
      <g>
       <use style="fill:#a9a9a9;stroke:#a9a9a9;stroke-width:2;" x="52.163265" xlink:href="#me5377acc83" y="122.173551"/>
      </g>
     </g>
    </g>
    <g id="xtick_8">
     <g id="line2d_14">
      <g>
       <use style="fill:#a9a9a9;stroke:#a9a9a9;stroke-width:2;" x="74.938776" xlink:href="#me5377acc83" y="122.173551"/>
      </g>
     </g>
    </g>
    <g id="xtick_9">
     <g id="line2d_15">
      <g>
       <use style="fill:#a9a9a9;stroke:#a9a9a9;stroke-width:2;" x="97.714286" xlink:href="#me5377acc83" y="122.173551"/>
      </g>
     </g>
    </g>
    <g id="xtick_10">
     <g id="line2d_16">
      <g>
       <use style="fill:#a9a9a9;stroke:#a9a9a9;stroke-width:2;" x="120.489796" xlink:href="#me5377acc83" y="122.173551"/>
      </g>
     </g>
    </g>
   </g>
   <g id="matplotlib.axis_4"/>
   <g id="line2d_17">
    <path clip-path="url(#p2d96ac783f)" d="M 18 120.464453 
L 20.277551 120.671929 
L 22.555102 120.736425 
L 24.832653 120.664303 
L 27.110204 120.497305 
L 29.387755 120.308752 
L 31.665306 120.14537 
L 33.942857 119.868851 
L 36.220408 119.319253 
L 38.497959 118.372809 
L 40.77551 116.944229 
L 43.053061 114.987485 
L 45.330612 112.495333 
L 47.608163 109.497807 
L 49.885714 106.05989 
L 52.163265 102.278527 
L 54.440816 98.279143 
L 56.718367 94.211749 
L 58.995918 90.246476 
L 61.273469 86.568561 
L 63.55102 83.373075 
L 65.828571 80.85975 
L 68.106122 79.228223 
L 70.383673 78.673946 
L 72.661224 79.384939 
L 74.938776 81.529507 
L 77.216327 85.197822 
L 79.493878 89.995836 
L 81.771429 95.482548 
L 84.04898 101.24642 
L 86.326531 106.929196 
L 88.604082 112.235061 
L 90.881633 116.93548 
L 93.159184 120.870214 
L 95.436735 123.945095 
L 97.714286 126.127255 
L 99.991837 127.438436 
L 102.269388 127.947026 
L 104.546939 127.759123 
L 106.82449 127.009091 
L 109.102041 125.850248 
L 111.379592 124.446332 
L 113.657143 122.964248 
L 115.934694 121.568505 
L 118.212245 120.417584 
L 120.489796 119.662314 
L 122.767347 119.392852 
L 125.044898 119.487587 
L 127.322449 119.784413 
L 129.6 120.145396 
" style="fill:none;stroke:#66c2a5;stroke-linecap:square;stroke-width:2;"/>
   </g>
   <g id="patch_8">
    <path d="M 74.938776 128.16 
L 74.938776 77.76 
" style="fill:none;stroke:#a9a9a9;stroke-linecap:square;stroke-linejoin:miter;stroke-width:2;"/>
   </g>
   <g id="patch_9">
    <path d="M 129.6 128.16 
L 129.6 77.76 
" style="fill:none;"/>
   </g>
   <g id="patch_10">
    <path d="M 18 122.173551 
L 129.6 122.173551 
" style="fill:none;stroke:#a9a9a9;stroke-linecap:square;stroke-linejoin:miter;stroke-width:2;"/>
   </g>
   <g id="patch_11">
    <path d="M 18 77.76 
L 129.6 77.76 
" style="fill:none;"/>
   </g>
  </g>
 </g>
 <defs>
  <clipPath id="pe2cbfd937b">
   <rect height="50.4" width="111.6" x="18" y="17.28"/>
  </clipPath>
  <clipPath id="p2d96ac783f">
   <rect height="50.4" width="111.6" x="18" y="77.76"/>
  </clipPath>
 </defs>
</svg>
