<?xml version="1.0" encoding="utf-8" standalone="no"?>
<!DOCTYPE svg PUBLIC "-//W3C//DTD SVG 1.1//EN"
  "http://www.w3.org/Graphics/SVG/1.1/DTD/svg11.dtd">
<!-- Created with matplotlib (https://matplotlib.org/) -->
<svg height="144pt" version="1.1" viewBox="0 0 144 144" width="144pt" xmlns="http://www.w3.org/2000/svg" xmlns:xlink="http://www.w3.org/1999/xlink">
 <metadata>
  <rdf:RDF xmlns:cc="http://creativecommons.org/ns#" xmlns:dc="http://purl.org/dc/elements/1.1/" xmlns:rdf="http://www.w3.org/1999/02/22-rdf-syntax-ns#">
   <cc:Work>
    <dc:type rdf:resource="http://purl.org/dc/dcmitype/StillImage"/>
    <dc:date>2021-10-13T15:41:33.095283</dc:date>
    <dc:format>image/svg+xml</dc:format>
    <dc:creator>
     <cc:Agent>
      <dc:title>Matplotlib v3.3.2, https://matplotlib.org/</dc:title>
     </cc:Agent>
    </dc:creator>
   </cc:Work>
  </rdf:RDF>
 </metadata>
 <defs>
  <style type="text/css">*{stroke-linecap:butt;stroke-linejoin:round;}</style>
 </defs>
 <g id="figure_1">
  <g id="patch_1">
   <path d="M 0 144 
L 144 144 
L 144 0 
L 0 0 
z
" style="fill:none;"/>
  </g>
  <g id="axes_1">
   <g id="patch_2">
    <path d="M 18 67.68 
L 129.6 67.68 
L 129.6 17.28 
L 18 17.28 
z
" style="fill:none;"/>
   </g>
   <g id="PolyCollection_1">
    <path clip-path="url(#pb6fb4b4143)" d="M 18 67.650495 
L 18 67.650495 
L 20.277551 67.650495 
L 22.555102 67.650495 
L 24.832653 67.650495 
L 27.110204 67.650495 
L 29.387755 67.650495 
L 31.665306 67.584629 
L 33.942857 67.41395 
L 36.220408 67.026147 
L 38.497959 66.201528 
L 40.77551 64.756264 
L 43.053061 62.989626 
L 45.330612 60.551518 
L 47.608163 57.576172 
L 49.885714 54.060373 
L 52.163265 49.661722 
L 54.440816 44.547836 
L 56.718367 40.691605 
L 58.995918 34.870994 
L 61.273469 30.46032 
L 63.55102 25.734745 
L 65.828571 22.540834 
L 68.106122 19.563563 
L 70.383673 18.793613 
L 72.661224 17.28 
L 74.938776 27.855767 
L 77.216327 20.901098 
L 79.493878 23.935079 
L 81.771429 27.294494 
L 84.04898 32.015375 
L 86.326531 36.538555 
L 88.604082 40.72745 
L 90.881633 45.223285 
L 93.159184 48.524857 
L 95.436735 52.448533 
L 97.714286 55.659858 
L 99.991837 58.37451 
L 102.269388 60.61987 
L 104.546939 62.712464 
L 106.82449 64.449926 
L 109.102041 65.578858 
L 111.379592 66.356871 
L 113.657143 66.997775 
L 115.934694 67.389744 
L 118.212245 67.590345 
L 120.489796 67.650495 
L 122.767347 67.650495 
L 125.044898 67.650495 
L 127.322449 67.650495 
L 129.6 67.650495 
L 129.6 67.650495 
L 129.6 67.650495 
L 127.322449 67.650495 
L 125.044898 67.650495 
L 122.767347 67.650495 
L 120.489796 67.650495 
L 118.212245 67.68 
L 115.934694 67.640245 
L 113.657143 67.514443 
L 111.379592 67.206002 
L 109.102041 66.546633 
L 106.82449 65.501668 
L 104.546939 64.346133 
L 102.269388 62.340815 
L 99.991837 60.363317 
L 97.714286 58.455646 
L 95.436735 55.441454 
L 93.159184 52.08351 
L 90.881633 48.825412 
L 88.604082 44.894344 
L 86.326531 41.183598 
L 84.04898 36.296541 
L 81.771429 32.531217 
L 79.493878 28.977514 
L 77.216327 26.004219 
L 74.938776 33.189615 
L 72.661224 23.166346 
L 70.383673 24.460175 
L 68.106122 24.910718 
L 65.828571 27.49707 
L 63.55102 30.781398 
L 61.273469 35.32092 
L 58.995918 39.418539 
L 56.718367 44.136287 
L 54.440816 48.302534 
L 52.163265 52.889419 
L 49.885714 56.518506 
L 47.608163 59.698362 
L 45.330612 62.588101 
L 43.053061 64.385335 
L 40.77551 66.104255 
L 38.497959 66.899828 
L 36.220408 67.419964 
L 33.942857 67.628573 
L 31.665306 67.673437 
L 29.387755 67.650495 
L 27.110204 67.650495 
L 24.832653 67.650495 
L 22.555102 67.650495 
L 20.277551 67.650495 
L 18 67.650495 
z
" style="fill:#fc8d62;fill-opacity:0.2;"/>
   </g>
   <g id="PolyCollection_2">
    <path clip-path="url(#pb6fb4b4143)" d="M 18 67.650495 
L 18 67.650495 
L 20.277551 67.650495 
L 22.555102 67.650495 
L 24.832653 67.650495 
L 27.110204 67.650495 
L 29.387755 67.650495 
L 31.665306 67.566938 
L 33.942857 67.442257 
L 36.220408 66.921656 
L 38.497959 66.125037 
L 40.77551 64.911619 
L 43.053061 63.17787 
L 45.330612 61.416535 
L 47.608163 58.800651 
L 49.885714 55.798576 
L 52.163265 52.331108 
L 54.440816 48.714158 
L 56.718367 44.579702 
L 58.995918 40.81164 
L 61.273469 36.669817 
L 63.55102 32.841979 
L 65.828571 29.434331 
L 68.106122 26.06689 
L 70.383673 24.501744 
L 72.661224 22.965644 
L 74.938776 29.33651 
L 77.216327 22.784485 
L 79.493878 24.508483 
L 81.771429 27.78647 
L 84.04898 29.125501 
L 86.326531 32.337831 
L 88.604082 37.218689 
L 90.881633 40.641769 
L 93.159184 45.084865 
L 95.436735 49.14759 
L 97.714286 53.051845 
L 99.991837 56.218606 
L 102.269388 59.315631 
L 104.546939 61.558818 
L 106.82449 63.46567 
L 109.102041 65.137595 
L 111.379592 66.135434 
L 113.657143 66.96797 
L 115.934694 67.421104 
L 118.212245 67.563633 
L 120.489796 67.650495 
L 122.767347 67.650495 
L 125.044898 67.650495 
L 127.322449 67.650495 
L 129.6 67.650495 
L 129.6 67.650495 
L 129.6 67.650495 
L 127.322449 67.650495 
L 125.044898 67.650495 
L 122.767347 67.650495 
L 120.489796 67.650495 
L 118.212245 67.699402 
L 115.934694 67.625821 
L 113.657143 67.401473 
L 111.379592 66.965975 
L 109.102041 66.157781 
L 106.82449 65.004648 
L 104.546939 63.562546 
L 102.269388 61.36295 
L 99.991837 58.545513 
L 97.714286 55.326897 
L 95.436735 51.931017 
L 93.159184 48.600503 
L 90.881633 45.019083 
L 88.604082 40.871588 
L 86.326531 36.907458 
L 84.04898 34.053892 
L 81.771429 32.501782 
L 79.493878 28.773789 
L 77.216327 27.195927 
L 74.938776 33.824698 
L 72.661224 27.24341 
L 70.383673 29.819113 
L 68.106122 30.988875 
L 65.828571 34.02856 
L 63.55102 36.684214 
L 61.273469 40.735523 
L 58.995918 44.652564 
L 56.718367 48.500654 
L 54.440816 52.301369 
L 52.163265 55.093271 
L 49.885714 58.182586 
L 47.608163 60.778263 
L 45.330612 62.97265 
L 43.053061 64.685862 
L 40.77551 66.126732 
L 38.497959 66.952613 
L 36.220408 67.440703 
L 33.942857 67.670783 
L 31.665306 67.682205 
L 29.387755 67.650495 
L 27.110204 67.650495 
L 24.832653 67.650495 
L 22.555102 67.650495 
L 20.277551 67.650495 
L 18 67.650495 
z
" style="fill:#fc8d62;fill-opacity:0.2;"/>
   </g>
   <g id="matplotlib.axis_1">
    <g id="xtick_1">
     <g id="line2d_1">
      <defs>
       <path d="M 0 0 
L 0 3.5 
" id="m6a930966bb" style="stroke:#a9a9a9;stroke-width:2;"/>
      </defs>
      <g>
       <use style="fill:#a9a9a9;stroke:#a9a9a9;stroke-width:2;" x="29.387755" xlink:href="#m6a930966bb" y="67.650495"/>
      </g>
     </g>
    </g>
    <g id="xtick_2">
     <g id="line2d_2">
      <g>
       <use style="fill:#a9a9a9;stroke:#a9a9a9;stroke-width:2;" x="52.163265" xlink:href="#m6a930966bb" y="67.650495"/>
      </g>
     </g>
    </g>
    <g id="xtick_3">
     <g id="line2d_3">
      <g>
       <use style="fill:#a9a9a9;stroke:#a9a9a9;stroke-width:2;" x="74.938776" xlink:href="#m6a930966bb" y="67.650495"/>
      </g>
     </g>
    </g>
    <g id="xtick_4">
     <g id="line2d_4">
      <g>
       <use style="fill:#a9a9a9;stroke:#a9a9a9;stroke-width:2;" x="97.714286" xlink:href="#m6a930966bb" y="67.650495"/>
      </g>
     </g>
    </g>
    <g id="xtick_5">
     <g id="line2d_5">
      <g>
       <use style="fill:#a9a9a9;stroke:#a9a9a9;stroke-width:2;" x="120.489796" xlink:href="#m6a930966bb" y="67.650495"/>
      </g>
     </g>
    </g>
   </g>
   <g id="matplotlib.axis_2"/>
   <g id="line2d_6">
    <path clip-path="url(#pb6fb4b4143)" d="M 18 67.650495 
L 20.277551 67.650495 
L 22.555102 67.650495 
L 24.832653 67.650495 
L 27.110204 67.650495 
L 29.387755 67.650495 
L 31.665306 67.629033 
L 33.942857 67.521262 
L 36.220408 67.223056 
L 38.497959 66.550678 
L 40.77551 65.430259 
L 43.053061 63.68748 
L 45.330612 61.56981 
L 47.608163 58.637267 
L 49.885714 55.289439 
L 52.163265 51.275571 
L 54.440816 46.425185 
L 56.718367 42.413946 
L 58.995918 37.144767 
L 61.273469 32.89062 
L 63.55102 28.258071 
L 65.828571 25.018952 
L 68.106122 22.23714 
L 70.383673 21.626894 
L 72.661224 20.223173 
L 74.938776 30.522691 
L 77.216327 23.452658 
L 79.493878 26.456296 
L 81.771429 29.912855 
L 84.04898 34.155958 
L 86.326531 38.861076 
L 88.604082 42.810897 
L 90.881633 47.024349 
L 93.159184 50.304183 
L 95.436735 53.944993 
L 97.714286 57.057752 
L 99.991837 59.368914 
L 102.269388 61.480343 
L 104.546939 63.529298 
L 106.82449 64.975797 
L 109.102041 66.062746 
L 111.379592 66.781436 
L 113.657143 67.256109 
L 115.934694 67.514995 
L 118.212245 67.635173 
L 120.489796 67.650495 
L 122.767347 67.650495 
L 125.044898 67.650495 
L 127.322449 67.650495 
L 129.6 67.650495 
" style="fill:none;stroke:#fc8d62;stroke-linecap:square;stroke-width:2;"/>
   </g>
   <g id="line2d_7">
    <path clip-path="url(#pb6fb4b4143)" d="M 18 67.650495 
L 20.277551 67.650495 
L 22.555102 67.650495 
L 24.832653 67.650495 
L 27.110204 67.650495 
L 29.387755 67.650495 
L 31.665306 67.624571 
L 33.942857 67.55652 
L 36.220408 67.18118 
L 38.497959 66.538825 
L 40.77551 65.519175 
L 43.053061 63.931866 
L 45.330612 62.194593 
L 47.608163 59.789457 
L 49.885714 56.990581 
L 52.163265 53.712189 
L 54.440816 50.507763 
L 56.718367 46.540178 
L 58.995918 42.732102 
L 61.273469 38.70267 
L 63.55102 34.763097 
L 65.828571 31.731446 
L 68.106122 28.527882 
L 70.383673 27.160429 
L 72.661224 25.104527 
L 74.938776 31.580604 
L 77.216327 24.990206 
L 79.493878 26.641136 
L 81.771429 30.144126 
L 84.04898 31.589696 
L 86.326531 34.622644 
L 88.604082 39.045138 
L 90.881633 42.830426 
L 93.159184 46.842684 
L 95.436735 50.539304 
L 97.714286 54.189371 
L 99.991837 57.382059 
L 102.269388 60.33929 
L 104.546939 62.560682 
L 106.82449 64.235159 
L 109.102041 65.647688 
L 111.379592 66.550705 
L 113.657143 67.184722 
L 115.934694 67.523463 
L 118.212245 67.631517 
L 120.489796 67.650495 
L 122.767347 67.650495 
L 125.044898 67.650495 
L 127.322449 67.650495 
L 129.6 67.650495 
" style="fill:none;stroke:#fc8d62;stroke-dasharray:1.5,1.5;stroke-dashoffset:0;stroke-opacity:0.7;stroke-width:1.5;"/>
   </g>
   <g id="patch_3">
    <path d="M 74.938776 67.68 
L 74.938776 17.28 
" style="fill:none;stroke:#a9a9a9;stroke-linecap:square;stroke-linejoin:miter;stroke-width:2;"/>
   </g>
   <g id="patch_4">
    <path d="M 129.6 67.68 
L 129.6 17.28 
" style="fill:none;"/>
   </g>
   <g id="patch_5">
    <path d="M 18 67.650495 
L 129.6 67.650495 
" style="fill:none;stroke:#a9a9a9;stroke-linecap:square;stroke-linejoin:miter;stroke-width:2;"/>
   </g>
   <g id="patch_6">
    <path d="M 18 17.28 
L 129.6 17.28 
" style="fill:none;"/>
   </g>
   <g id="legend_1">
    <g id="line2d_8">
     <path d="M 87.67 26.448906 
L 101.67 26.448906 
" style="fill:none;stroke:#fc8d62;stroke-linecap:square;stroke-width:2;"/>
    </g>
    <g id="line2d_9"/>
    <g id="text_1">
     <!-- $\theta$ -->
     <g transform="translate(107.27 28.898906)scale(0.07 -0.07)">
      <defs>
       <path d="M 45.515625 34.671875 
L 14.453125 34.671875 
Q 12.359375 20.0625 14.5 13.875 
Q 17.1875 6.25 24.46875 6.25 
Q 31.78125 6.25 37.359375 13.921875 
Q 42.234375 20.65625 45.515625 34.671875 
z
M 47.015625 42.96875 
Q 48.34375 56.84375 46.625 61.71875 
Q 43.953125 69.4375 36.765625 69.4375 
Q 29.296875 69.4375 23.828125 61.8125 
Q 19.53125 55.671875 16.15625 42.96875 
z
M 38.1875 76.765625 
Q 49.90625 76.765625 54.59375 66.40625 
Q 59.28125 56.109375 55.71875 37.84375 
Q 52.203125 19.625 43.453125 9.28125 
Q 34.765625 -1.125 23.046875 -1.125 
Q 11.28125 -1.125 6.640625 9.28125 
Q 2 19.625 5.515625 37.84375 
Q 9.078125 56.109375 17.71875 66.40625 
Q 26.421875 76.765625 38.1875 76.765625 
z
" id="DejaVuSans-Oblique-952"/>
      </defs>
      <use transform="translate(0 0.234375)" xlink:href="#DejaVuSans-Oblique-952"/>
     </g>
    </g>
    <g id="line2d_10">
     <path d="M 87.67 36.723594 
L 101.67 36.723594 
" style="fill:none;stroke:#fc8d62;stroke-dasharray:1.5,1.5;stroke-dashoffset:0;stroke-opacity:0.7;stroke-width:1.5;"/>
    </g>
    <g id="line2d_11"/>
    <g id="text_2">
     <!-- No $\theta$ -->
     <g transform="translate(107.27 39.173594)scale(0.07 -0.07)">
      <defs>
       <path d="M 9.8125 72.90625 
L 23.09375 72.90625 
L 55.421875 11.921875 
L 55.421875 72.90625 
L 64.984375 72.90625 
L 64.984375 0 
L 51.703125 0 
L 19.390625 60.984375 
L 19.390625 0 
L 9.8125 0 
z
" id="DejaVuSans-78"/>
       <path d="M 30.609375 48.390625 
Q 23.390625 48.390625 19.1875 42.75 
Q 14.984375 37.109375 14.984375 27.296875 
Q 14.984375 17.484375 19.15625 11.84375 
Q 23.34375 6.203125 30.609375 6.203125 
Q 37.796875 6.203125 41.984375 11.859375 
Q 46.1875 17.53125 46.1875 27.296875 
Q 46.1875 37.015625 41.984375 42.703125 
Q 37.796875 48.390625 30.609375 48.390625 
z
M 30.609375 56 
Q 42.328125 56 49.015625 48.375 
Q 55.71875 40.765625 55.71875 27.296875 
Q 55.71875 13.875 49.015625 6.21875 
Q 42.328125 -1.421875 30.609375 -1.421875 
Q 18.84375 -1.421875 12.171875 6.21875 
Q 5.515625 13.875 5.515625 27.296875 
Q 5.515625 40.765625 12.171875 48.375 
Q 18.84375 56 30.609375 56 
z
" id="DejaVuSans-111"/>
       <path id="DejaVuSans-32"/>
      </defs>
      <use transform="translate(0 0.234375)" xlink:href="#DejaVuSans-78"/>
      <use transform="translate(74.804688 0.234375)" xlink:href="#DejaVuSans-111"/>
      <use transform="translate(135.986328 0.234375)" xlink:href="#DejaVuSans-32"/>
      <use transform="translate(167.773438 0.234375)" xlink:href="#DejaVuSans-Oblique-952"/>
     </g>
    </g>
   </g>
  </g>
  <g id="axes_2">
   <g id="patch_7">
    <path d="M 18 128.16 
L 129.6 128.16 
L 129.6 77.76 
L 18 77.76 
z
" style="fill:none;"/>
   </g>
   <g id="PolyCollection_3">
    <path clip-path="url(#p8160af44e8)" d="M 18 120.516365 
L 18 120.436966 
L 20.277551 120.65646 
L 22.555102 120.719936 
L 24.832653 120.636125 
L 27.110204 120.453446 
L 29.387755 120.250355 
L 31.665306 120.076307 
L 33.942857 119.790739 
L 36.220408 119.231701 
L 38.497959 118.271957 
L 40.77551 116.820105 
L 43.053061 114.824574 
L 45.330612 112.276938 
L 47.608163 109.20939 
L 49.885714 105.69043 
L 52.163265 101.820892 
L 54.440816 97.730495 
L 56.718367 93.57374 
L 58.995918 89.525287 
L 61.273469 85.77457 
L 63.55102 82.520454 
L 65.828571 79.965928 
L 68.106122 78.313283 
L 70.383673 77.76 
L 72.661224 78.495519 
L 74.938776 80.689098 
L 77.216327 84.430212 
L 79.493878 89.317502 
L 81.771429 94.901841 
L 84.04898 100.76431 
L 86.326531 106.540063 
L 88.604082 111.927477 
L 90.881633 116.693032 
L 93.159184 120.672495 
L 95.436735 123.769734 
L 97.714286 125.953627 
L 99.991837 127.252561 
L 102.269388 127.743988 
L 104.546939 127.541909 
L 106.82449 126.785483 
L 109.102041 125.629935 
L 111.379592 124.238343 
L 113.657143 122.774696 
L 115.934694 121.398753 
L 118.212245 120.264451 
L 120.489796 119.522951 
L 122.767347 119.271002 
L 125.044898 119.3884 
L 127.322449 119.710868 
L 129.6 120.097027 
L 129.6 120.201661 
L 129.6 120.201661 
L 127.322449 119.840898 
L 125.044898 119.538921 
L 122.767347 119.434298 
L 120.489796 119.692374 
L 118.212245 120.442329 
L 115.934694 121.600878 
L 113.657143 123.017694 
L 111.379592 124.529796 
L 109.102041 125.967603 
L 106.82449 127.160445 
L 104.546939 127.942436 
L 102.269388 128.16 
L 99.991837 127.68079 
L 97.714286 126.403352 
L 95.436735 124.264826 
L 93.159184 121.24656 
L 90.881633 117.37993 
L 88.604082 112.75456 
L 86.326531 107.525178 
L 84.04898 101.915227 
L 81.771429 96.216343 
L 79.493878 90.783788 
L 77.216327 86.027355 
L 74.938776 82.387738 
L 72.661224 80.25975 
L 70.383673 79.550313 
L 68.106122 80.089284 
L 65.828571 81.688223 
L 63.55102 84.152445 
L 61.273469 87.284151 
L 58.995918 90.88637 
L 56.718367 94.767538 
L 54.440816 98.746442 
L 52.163265 102.657349 
L 49.885714 106.354587 
L 47.608163 109.716813 
L 45.330612 112.650674 
L 43.053061 115.094355 
L 40.77551 117.01962 
L 38.497959 118.432261 
L 36.220408 119.372691 
L 33.942857 119.92034 
L 31.665306 120.196204 
L 29.387755 120.359447 
L 27.110204 120.547692 
L 24.832653 120.712676 
L 22.555102 120.782393 
L 20.277551 120.718874 
L 18 120.516365 
z
" style="fill:#66c2a5;fill-opacity:0.2;"/>
   </g>
   <g id="matplotlib.axis_3">
    <g id="xtick_6">
     <g id="line2d_12">
      <g>
       <use style="fill:#a9a9a9;stroke:#a9a9a9;stroke-width:2;" x="29.387755" xlink:href="#m6a930966bb" y="122.17207"/>
      </g>
     </g>
    </g>
    <g id="xtick_7">
     <g id="line2d_13">
      <g>
       <use style="fill:#a9a9a9;stroke:#a9a9a9;stroke-width:2;" x="52.163265" xlink:href="#m6a930966bb" y="122.17207"/>
      </g>
     </g>
    </g>
    <g id="xtick_8">
     <g id="line2d_14">
      <g>
       <use style="fill:#a9a9a9;stroke:#a9a9a9;stroke-width:2;" x="74.938776" xlink:href="#m6a930966bb" y="122.17207"/>
      </g>
     </g>
    </g>
    <g id="xtick_9">
     <g id="line2d_15">
      <g>
       <use style="fill:#a9a9a9;stroke:#a9a9a9;stroke-width:2;" x="97.714286" xlink:href="#m6a930966bb" y="122.17207"/>
      </g>
     </g>
    </g>
    <g id="xtick_10">
     <g id="line2d_16">
      <g>
       <use style="fill:#a9a9a9;stroke:#a9a9a9;stroke-width:2;" x="120.489796" xlink:href="#m6a930966bb" y="122.17207"/>
      </g>
     </g>
    </g>
   </g>
   <g id="matplotlib.axis_4"/>
   <g id="line2d_17">
    <path clip-path="url(#p8160af44e8)" d="M 18 120.476665 
L 20.277551 120.687667 
L 22.555102 120.751164 
L 24.832653 120.674401 
L 27.110204 120.500569 
L 29.387755 120.304901 
L 31.665306 120.136256 
L 33.942857 119.85554 
L 36.220408 119.302196 
L 38.497959 118.352109 
L 40.77551 116.919862 
L 43.053061 114.959464 
L 45.330612 112.463806 
L 47.608163 109.463101 
L 49.885714 106.022509 
L 52.163265 102.23912 
L 54.440816 98.238469 
L 56.718367 94.170639 
L 58.995918 90.205829 
L 61.273469 86.529361 
L 63.55102 83.336449 
L 65.828571 80.827075 
L 68.106122 79.201283 
L 70.383673 78.655157 
L 72.661224 79.377635 
L 74.938776 81.538418 
L 77.216327 85.228783 
L 79.493878 90.050645 
L 81.771429 95.559092 
L 84.04898 101.339768 
L 86.326531 107.032621 
L 88.604082 112.341019 
L 90.881633 117.036481 
L 93.159184 120.959528 
L 95.436735 124.01728 
L 97.714286 126.178489 
L 99.991837 127.466676 
L 102.269388 127.951994 
L 104.546939 127.742173 
L 106.82449 126.972964 
L 109.102041 125.798769 
L 111.379592 124.384069 
L 113.657143 122.896195 
L 115.934694 121.499815 
L 118.212245 120.35339 
L 120.489796 119.607663 
L 122.767347 119.35265 
L 125.044898 119.46366 
L 127.322449 119.775883 
L 129.6 120.149344 
" style="fill:none;stroke:#66c2a5;stroke-linecap:square;stroke-width:2;"/>
   </g>
   <g id="patch_8">
    <path d="M 74.938776 128.16 
L 74.938776 77.76 
" style="fill:none;stroke:#a9a9a9;stroke-linecap:square;stroke-linejoin:miter;stroke-width:2;"/>
   </g>
   <g id="patch_9">
    <path d="M 129.6 128.16 
L 129.6 77.76 
" style="fill:none;"/>
   </g>
   <g id="patch_10">
    <path d="M 18 122.17207 
L 129.6 122.17207 
" style="fill:none;stroke:#a9a9a9;stroke-linecap:square;stroke-linejoin:miter;stroke-width:2;"/>
   </g>
   <g id="patch_11">
    <path d="M 18 77.76 
L 129.6 77.76 
" style="fill:none;"/>
   </g>
  </g>
 </g>
 <defs>
  <clipPath id="pb6fb4b4143">
   <rect height="50.4" width="111.6" x="18" y="17.28"/>
  </clipPath>
  <clipPath id="p8160af44e8">
   <rect height="50.4" width="111.6" x="18" y="77.76"/>
  </clipPath>
 </defs>
</svg>
