<?xml version="1.0" encoding="utf-8" standalone="no"?>
<!DOCTYPE svg PUBLIC "-//W3C//DTD SVG 1.1//EN"
  "http://www.w3.org/Graphics/SVG/1.1/DTD/svg11.dtd">
<!-- Created with matplotlib (https://matplotlib.org/) -->
<svg height="144pt" version="1.1" viewBox="0 0 144 144" width="144pt" xmlns="http://www.w3.org/2000/svg" xmlns:xlink="http://www.w3.org/1999/xlink">
 <metadata>
  <rdf:RDF xmlns:cc="http://creativecommons.org/ns#" xmlns:dc="http://purl.org/dc/elements/1.1/" xmlns:rdf="http://www.w3.org/1999/02/22-rdf-syntax-ns#">
   <cc:Work>
    <dc:type rdf:resource="http://purl.org/dc/dcmitype/StillImage"/>
    <dc:date>2021-10-13T14:25:53.965873</dc:date>
    <dc:format>image/svg+xml</dc:format>
    <dc:creator>
     <cc:Agent>
      <dc:title>Matplotlib v3.3.2, https://matplotlib.org/</dc:title>
     </cc:Agent>
    </dc:creator>
   </cc:Work>
  </rdf:RDF>
 </metadata>
 <defs>
  <style type="text/css">*{stroke-linecap:butt;stroke-linejoin:round;}</style>
 </defs>
 <g id="figure_1">
  <g id="patch_1">
   <path d="M 0 144 
L 144 144 
L 144 0 
L 0 0 
z
" style="fill:none;"/>
  </g>
  <g id="axes_1">
   <g id="patch_2">
    <path d="M 18 67.68 
L 129.6 67.68 
L 129.6 17.28 
L 18 17.28 
z
" style="fill:none;"/>
   </g>
   <g id="PolyCollection_1">
    <path clip-path="url(#p5b31024e09)" d="M 18 17.321077 
L 18 17.321077 
L 20.277551 17.321077 
L 22.555102 17.321077 
L 24.832653 17.321077 
L 27.110204 17.321077 
L 29.387755 17.321072 
L 31.665306 17.28 
L 33.942857 17.293282 
L 36.220408 17.391795 
L 38.497959 17.672935 
L 40.77551 18.215227 
L 43.053061 18.545078 
L 45.330612 19.630056 
L 47.608163 20.558166 
L 49.885714 21.17679 
L 52.163265 23.119068 
L 54.440816 25.562514 
L 56.718367 27.023404 
L 58.995918 29.589854 
L 61.273469 32.089387 
L 63.55102 34.948771 
L 65.828571 39.237867 
L 68.106122 43.719452 
L 70.383673 47.511132 
L 72.661224 51.947359 
L 74.938776 56.193301 
L 77.216327 59.176876 
L 79.493878 60.037962 
L 81.771429 61.288945 
L 84.04898 59.620103 
L 86.326531 56.732457 
L 88.604082 54.637588 
L 90.881633 49.87746 
L 93.159184 45.913324 
L 95.436735 40.650328 
L 97.714286 36.198864 
L 99.991837 31.470449 
L 102.269388 27.718622 
L 104.546939 24.027084 
L 106.82449 21.836558 
L 109.102041 19.780057 
L 111.379592 18.44636 
L 113.657143 17.756088 
L 115.934694 17.387078 
L 118.212245 17.31088 
L 120.489796 17.320825 
L 122.767347 17.321077 
L 125.044898 17.321077 
L 127.322449 17.321077 
L 129.6 17.321077 
L 129.6 17.321077 
L 129.6 17.321077 
L 127.322449 17.321077 
L 125.044898 17.321077 
L 122.767347 17.321077 
L 120.489796 17.32144 
L 118.212245 17.428105 
L 115.934694 17.684494 
L 113.657143 18.322224 
L 111.379592 19.260341 
L 109.102041 20.977895 
L 106.82449 23.6635 
L 104.546939 26.236029 
L 102.269388 30.76525 
L 99.991837 35.398351 
L 97.714286 39.785193 
L 95.436735 44.829081 
L 93.159184 50.262234 
L 90.881633 55.355983 
L 88.604082 59.792265 
L 86.326531 64.293229 
L 84.04898 65.966369 
L 81.771429 66.34042 
L 79.493878 67.68 
L 77.216327 65.691402 
L 74.938776 59.450751 
L 72.661224 58.469224 
L 70.383673 54.173673 
L 68.106122 49.958244 
L 65.828571 45.112901 
L 63.55102 41.696151 
L 61.273469 36.865513 
L 58.995918 33.977404 
L 56.718367 30.816569 
L 54.440816 28.332679 
L 52.163265 26.270281 
L 49.885714 24.712844 
L 47.608163 22.719409 
L 45.330612 21.81935 
L 43.053061 20.155084 
L 40.77551 19.213697 
L 38.497959 18.551701 
L 36.220408 17.835286 
L 33.942857 17.535571 
L 31.665306 17.374727 
L 29.387755 17.321081 
L 27.110204 17.321077 
L 24.832653 17.321077 
L 22.555102 17.321077 
L 20.277551 17.321077 
L 18 17.321077 
z
" style="fill:#fc8d62;fill-opacity:0.2;"/>
   </g>
   <g id="PolyCollection_2">
    <path clip-path="url(#p5b31024e09)" d="M 18 17.321077 
L 18 17.321077 
L 20.277551 17.321077 
L 22.555102 17.321077 
L 24.832653 17.321077 
L 27.110204 17.321077 
L 29.387755 17.321077 
L 31.665306 17.294989 
L 33.942857 17.288905 
L 36.220408 17.446205 
L 38.497959 17.933255 
L 40.77551 18.917185 
L 43.053061 19.946646 
L 45.330612 21.487096 
L 47.608163 23.612158 
L 49.885714 25.736413 
L 52.163265 28.966796 
L 54.440816 32.816625 
L 56.718367 36.598139 
L 58.995918 39.789606 
L 61.273469 43.887997 
L 63.55102 47.497292 
L 65.828571 50.73034 
L 68.106122 53.964167 
L 70.383673 56.37438 
L 72.661224 57.508826 
L 74.938776 58.631422 
L 77.216327 58.418326 
L 79.493878 57.165394 
L 81.771429 55.583056 
L 84.04898 52.412793 
L 86.326531 48.802027 
L 88.604082 44.927327 
L 90.881633 41.305255 
L 93.159184 36.675033 
L 95.436735 33.50384 
L 97.714286 30.485776 
L 99.991837 27.479289 
L 102.269388 24.589365 
L 104.546939 22.108113 
L 106.82449 19.982612 
L 109.102041 19.122416 
L 111.379592 18.053202 
L 113.657143 17.52493 
L 115.934694 17.319447 
L 118.212245 17.307467 
L 120.489796 17.320999 
L 122.767347 17.321077 
L 125.044898 17.321077 
L 127.322449 17.321077 
L 129.6 17.321077 
L 129.6 17.321077 
L 129.6 17.321077 
L 127.322449 17.321077 
L 125.044898 17.321077 
L 122.767347 17.321077 
L 120.489796 17.321199 
L 118.212245 17.395225 
L 115.934694 17.640037 
L 113.657143 18.191595 
L 111.379592 18.970101 
L 109.102041 20.086684 
L 106.82449 22.171131 
L 104.546939 24.327819 
L 102.269388 26.989856 
L 99.991837 30.591299 
L 97.714286 33.77812 
L 95.436735 37.366679 
L 93.159184 41.661702 
L 90.881633 45.796945 
L 88.604082 50.305925 
L 86.326531 54.305333 
L 84.04898 57.701032 
L 81.771429 60.92276 
L 79.493878 62.903421 
L 77.216327 65.182848 
L 74.938776 62.672226 
L 72.661224 63.848808 
L 70.383673 62.572559 
L 68.106122 59.458605 
L 65.828571 56.740442 
L 63.55102 53.222974 
L 61.273469 49.255138 
L 58.995918 45.016232 
L 56.718367 40.971254 
L 54.440816 36.51174 
L 52.163265 32.949001 
L 49.885714 29.089237 
L 47.608163 26.040335 
L 45.330612 23.570388 
L 43.053061 21.699861 
L 40.77551 19.83661 
L 38.497959 18.849452 
L 36.220408 18.048278 
L 33.942857 17.613013 
L 31.665306 17.363695 
L 29.387755 17.321078 
L 27.110204 17.321077 
L 24.832653 17.321077 
L 22.555102 17.321077 
L 20.277551 17.321077 
L 18 17.321077 
z
" style="fill:#fc8d62;fill-opacity:0.2;"/>
   </g>
   <g id="matplotlib.axis_1">
    <g id="xtick_1">
     <g id="line2d_1">
      <defs>
       <path d="M 0 0 
L 0 3.5 
" id="m953c6681db" style="stroke:#a9a9a9;stroke-width:2;"/>
      </defs>
      <g>
       <use style="fill:#a9a9a9;stroke:#a9a9a9;stroke-width:2;" x="29.387755" xlink:href="#m953c6681db" y="17.321077"/>
      </g>
     </g>
    </g>
    <g id="xtick_2">
     <g id="line2d_2">
      <g>
       <use style="fill:#a9a9a9;stroke:#a9a9a9;stroke-width:2;" x="52.163265" xlink:href="#m953c6681db" y="17.321077"/>
      </g>
     </g>
    </g>
    <g id="xtick_3">
     <g id="line2d_3">
      <g>
       <use style="fill:#a9a9a9;stroke:#a9a9a9;stroke-width:2;" x="74.938776" xlink:href="#m953c6681db" y="17.321077"/>
      </g>
     </g>
    </g>
    <g id="xtick_4">
     <g id="line2d_4">
      <g>
       <use style="fill:#a9a9a9;stroke:#a9a9a9;stroke-width:2;" x="97.714286" xlink:href="#m953c6681db" y="17.321077"/>
      </g>
     </g>
    </g>
    <g id="xtick_5">
     <g id="line2d_5">
      <g>
       <use style="fill:#a9a9a9;stroke:#a9a9a9;stroke-width:2;" x="120.489796" xlink:href="#m953c6681db" y="17.321077"/>
      </g>
     </g>
    </g>
   </g>
   <g id="matplotlib.axis_2"/>
   <g id="line2d_6">
    <path clip-path="url(#p5b31024e09)" d="M 18 17.321077 
L 20.277551 17.321077 
L 22.555102 17.321077 
L 24.832653 17.321077 
L 27.110204 17.321077 
L 29.387755 17.321077 
L 31.665306 17.327363 
L 33.942857 17.414427 
L 36.220408 17.61354 
L 38.497959 18.112318 
L 40.77551 18.714462 
L 43.053061 19.350081 
L 45.330612 20.724703 
L 47.608163 21.638788 
L 49.885714 22.944817 
L 52.163265 24.694675 
L 54.440816 26.947597 
L 56.718367 28.919986 
L 58.995918 31.783629 
L 61.273469 34.47745 
L 63.55102 38.322461 
L 65.828571 42.175384 
L 68.106122 46.838848 
L 70.383673 50.842403 
L 72.661224 55.208292 
L 74.938776 57.822026 
L 77.216327 62.434139 
L 79.493878 63.858981 
L 81.771429 63.814683 
L 84.04898 62.793236 
L 86.326531 60.512843 
L 88.604082 57.214927 
L 90.881633 52.616722 
L 93.159184 48.087779 
L 95.436735 42.739704 
L 97.714286 37.992029 
L 99.991837 33.4344 
L 102.269388 29.241936 
L 104.546939 25.131557 
L 106.82449 22.750029 
L 109.102041 20.378976 
L 111.379592 18.853351 
L 113.657143 18.039156 
L 115.934694 17.535786 
L 118.212245 17.369493 
L 120.489796 17.321132 
L 122.767347 17.321077 
L 125.044898 17.321077 
L 127.322449 17.321077 
L 129.6 17.321077 
" style="fill:none;stroke:#fc8d62;stroke-linecap:square;stroke-width:2;"/>
   </g>
   <g id="line2d_7">
    <path clip-path="url(#p5b31024e09)" d="M 18 17.321077 
L 20.277551 17.321077 
L 22.555102 17.321077 
L 24.832653 17.321077 
L 27.110204 17.321077 
L 29.387755 17.321077 
L 31.665306 17.329342 
L 33.942857 17.450959 
L 36.220408 17.747242 
L 38.497959 18.391354 
L 40.77551 19.376898 
L 43.053061 20.823253 
L 45.330612 22.528742 
L 47.608163 24.826247 
L 49.885714 27.412825 
L 52.163265 30.957899 
L 54.440816 34.664183 
L 56.718367 38.784697 
L 58.995918 42.402919 
L 61.273469 46.571567 
L 63.55102 50.360133 
L 65.828571 53.735391 
L 68.106122 56.711386 
L 70.383673 59.47347 
L 72.661224 60.678817 
L 74.938776 60.651824 
L 77.216327 61.800587 
L 79.493878 60.034408 
L 81.771429 58.252908 
L 84.04898 55.056913 
L 86.326531 51.55368 
L 88.604082 47.616626 
L 90.881633 43.5511 
L 93.159184 39.168367 
L 95.436735 35.435259 
L 97.714286 32.131948 
L 99.991837 29.035294 
L 102.269388 25.78961 
L 104.546939 23.217966 
L 106.82449 21.076871 
L 109.102041 19.60455 
L 111.379592 18.511652 
L 113.657143 17.858263 
L 115.934694 17.479742 
L 118.212245 17.351346 
L 120.489796 17.321099 
L 122.767347 17.321077 
L 125.044898 17.321077 
L 127.322449 17.321077 
L 129.6 17.321077 
" style="fill:none;stroke:#fc8d62;stroke-dasharray:1.5,1.5;stroke-dashoffset:0;stroke-opacity:0.7;stroke-width:1.5;"/>
   </g>
   <g id="patch_3">
    <path d="M 74.938776 67.68 
L 74.938776 17.28 
" style="fill:none;stroke:#a9a9a9;stroke-linecap:square;stroke-linejoin:miter;stroke-width:2;"/>
   </g>
   <g id="patch_4">
    <path d="M 129.6 67.68 
L 129.6 17.28 
" style="fill:none;"/>
   </g>
   <g id="patch_5">
    <path d="M 18 17.321077 
L 129.6 17.321077 
" style="fill:none;stroke:#a9a9a9;stroke-linecap:square;stroke-linejoin:miter;stroke-width:2;"/>
   </g>
   <g id="patch_6">
    <path d="M 18 17.28 
L 129.6 17.28 
" style="fill:none;"/>
   </g>
   <g id="legend_1">
    <g id="line2d_8">
     <path d="M 24.3 47.199531 
L 38.3 47.199531 
" style="fill:none;stroke:#fc8d62;stroke-linecap:square;stroke-width:2;"/>
    </g>
    <g id="line2d_9"/>
    <g id="text_1">
     <!-- $\theta$ -->
     <g transform="translate(43.9 49.649531)scale(0.07 -0.07)">
      <defs>
       <path d="M 45.515625 34.671875 
L 14.453125 34.671875 
Q 12.359375 20.0625 14.5 13.875 
Q 17.1875 6.25 24.46875 6.25 
Q 31.78125 6.25 37.359375 13.921875 
Q 42.234375 20.65625 45.515625 34.671875 
z
M 47.015625 42.96875 
Q 48.34375 56.84375 46.625 61.71875 
Q 43.953125 69.4375 36.765625 69.4375 
Q 29.296875 69.4375 23.828125 61.8125 
Q 19.53125 55.671875 16.15625 42.96875 
z
M 38.1875 76.765625 
Q 49.90625 76.765625 54.59375 66.40625 
Q 59.28125 56.109375 55.71875 37.84375 
Q 52.203125 19.625 43.453125 9.28125 
Q 34.765625 -1.125 23.046875 -1.125 
Q 11.28125 -1.125 6.640625 9.28125 
Q 2 19.625 5.515625 37.84375 
Q 9.078125 56.109375 17.71875 66.40625 
Q 26.421875 76.765625 38.1875 76.765625 
z
" id="DejaVuSans-Oblique-952"/>
      </defs>
      <use transform="translate(0 0.234375)" xlink:href="#DejaVuSans-Oblique-952"/>
     </g>
    </g>
    <g id="line2d_10">
     <path d="M 24.3 57.474219 
L 38.3 57.474219 
" style="fill:none;stroke:#fc8d62;stroke-dasharray:1.5,1.5;stroke-dashoffset:0;stroke-opacity:0.7;stroke-width:1.5;"/>
    </g>
    <g id="line2d_11"/>
    <g id="text_2">
     <!-- No $\theta$ -->
     <g transform="translate(43.9 59.924219)scale(0.07 -0.07)">
      <defs>
       <path d="M 9.8125 72.90625 
L 23.09375 72.90625 
L 55.421875 11.921875 
L 55.421875 72.90625 
L 64.984375 72.90625 
L 64.984375 0 
L 51.703125 0 
L 19.390625 60.984375 
L 19.390625 0 
L 9.8125 0 
z
" id="DejaVuSans-78"/>
       <path d="M 30.609375 48.390625 
Q 23.390625 48.390625 19.1875 42.75 
Q 14.984375 37.109375 14.984375 27.296875 
Q 14.984375 17.484375 19.15625 11.84375 
Q 23.34375 6.203125 30.609375 6.203125 
Q 37.796875 6.203125 41.984375 11.859375 
Q 46.1875 17.53125 46.1875 27.296875 
Q 46.1875 37.015625 41.984375 42.703125 
Q 37.796875 48.390625 30.609375 48.390625 
z
M 30.609375 56 
Q 42.328125 56 49.015625 48.375 
Q 55.71875 40.765625 55.71875 27.296875 
Q 55.71875 13.875 49.015625 6.21875 
Q 42.328125 -1.421875 30.609375 -1.421875 
Q 18.84375 -1.421875 12.171875 6.21875 
Q 5.515625 13.875 5.515625 27.296875 
Q 5.515625 40.765625 12.171875 48.375 
Q 18.84375 56 30.609375 56 
z
" id="DejaVuSans-111"/>
       <path id="DejaVuSans-32"/>
      </defs>
      <use transform="translate(0 0.234375)" xlink:href="#DejaVuSans-78"/>
      <use transform="translate(74.804688 0.234375)" xlink:href="#DejaVuSans-111"/>
      <use transform="translate(135.986328 0.234375)" xlink:href="#DejaVuSans-32"/>
      <use transform="translate(167.773438 0.234375)" xlink:href="#DejaVuSans-Oblique-952"/>
     </g>
    </g>
   </g>
  </g>
  <g id="axes_2">
   <g id="patch_7">
    <path d="M 18 128.16 
L 129.6 128.16 
L 129.6 77.76 
L 18 77.76 
z
" style="fill:none;"/>
   </g>
   <g id="PolyCollection_3">
    <path clip-path="url(#pf9f641c1df)" d="M 18 120.497964 
L 18 120.425249 
L 20.277551 120.644343 
L 22.555102 120.708243 
L 24.832653 120.626208 
L 27.110204 120.446605 
L 29.387755 120.246767 
L 31.665306 120.075466 
L 33.942857 119.791897 
L 36.220408 119.233927 
L 38.497959 118.27438 
L 40.77551 116.822406 
L 43.053061 114.827352 
L 45.330612 112.280793 
L 47.608163 109.2146 
L 49.885714 105.697013 
L 52.163265 101.828705 
L 54.440816 97.739275 
L 56.718367 93.583106 
L 58.995918 89.534695 
L 61.273469 85.783442 
L 63.55102 82.528171 
L 65.828571 79.971847 
L 68.106122 78.316686 
L 70.383673 77.76 
L 72.661224 78.490909 
L 74.938776 80.67852 
L 77.216327 84.411436 
L 79.493878 89.290574 
L 81.771429 94.868103 
L 84.04898 100.72619 
L 86.326531 106.500463 
L 88.604082 111.889095 
L 90.881633 116.657827 
L 93.159184 120.641528 
L 95.436735 123.743344 
L 97.714286 125.932504 
L 99.991837 127.237988 
L 102.269388 127.737177 
L 104.546939 127.543216 
L 106.82449 126.794332 
L 109.102041 125.645013 
L 111.379592 124.257904 
L 113.657143 122.796819 
L 115.934694 121.421459 
L 118.212245 120.285468 
L 120.489796 119.539597 
L 122.767347 119.280762 
L 125.044898 119.390532 
L 127.322449 119.706268 
L 129.6 120.087657 
L 129.6 120.186131 
L 129.6 120.186131 
L 127.322449 119.830352 
L 125.044898 119.534907 
L 122.767347 119.437586 
L 120.489796 119.702759 
L 118.212245 120.458707 
L 115.934694 121.621819 
L 113.657143 123.041252 
L 111.379592 124.553589 
L 109.102041 125.989152 
L 106.82449 127.177262 
L 104.546939 127.952055 
L 102.269388 128.16 
L 99.991837 127.668927 
L 97.714286 126.377911 
L 95.436735 124.225611 
L 93.159184 121.19564 
L 90.881633 117.321335 
L 88.604082 112.692953 
L 86.326531 107.465222 
L 84.04898 101.861078 
L 81.771429 96.171333 
L 79.493878 90.750093 
L 77.216327 86.005524 
L 74.938776 82.376567 
L 72.661224 80.254553 
L 70.383673 79.548578 
L 68.106122 80.089145 
L 65.828571 81.688596 
L 63.55102 84.152834 
L 61.273469 87.284483 
L 58.995918 90.886846 
L 56.718367 94.76848 
L 54.440816 98.748206 
L 52.163265 102.660136 
L 49.885714 106.358476 
L 47.608163 109.721753 
L 45.330612 112.656472 
L 43.053061 115.100582 
L 40.77551 117.025537 
L 38.497959 118.437092 
L 36.220408 119.376432 
L 33.942857 119.923223 
L 31.665306 120.197983 
L 29.387755 120.358893 
L 27.110204 120.542825 
L 24.832653 120.702634 
L 22.555102 120.767277 
L 20.277551 120.70041 
L 18 120.497964 
z
" style="fill:#66c2a5;fill-opacity:0.2;"/>
   </g>
   <g id="matplotlib.axis_3">
    <g id="xtick_6">
     <g id="line2d_12">
      <g>
       <use style="fill:#a9a9a9;stroke:#a9a9a9;stroke-width:2;" x="29.387755" xlink:href="#m953c6681db" y="122.165577"/>
      </g>
     </g>
    </g>
    <g id="xtick_7">
     <g id="line2d_13">
      <g>
       <use style="fill:#a9a9a9;stroke:#a9a9a9;stroke-width:2;" x="52.163265" xlink:href="#m953c6681db" y="122.165577"/>
      </g>
     </g>
    </g>
    <g id="xtick_8">
     <g id="line2d_14">
      <g>
       <use style="fill:#a9a9a9;stroke:#a9a9a9;stroke-width:2;" x="74.938776" xlink:href="#m953c6681db" y="122.165577"/>
      </g>
     </g>
    </g>
    <g id="xtick_9">
     <g id="line2d_15">
      <g>
       <use style="fill:#a9a9a9;stroke:#a9a9a9;stroke-width:2;" x="97.714286" xlink:href="#m953c6681db" y="122.165577"/>
      </g>
     </g>
    </g>
    <g id="xtick_10">
     <g id="line2d_16">
      <g>
       <use style="fill:#a9a9a9;stroke:#a9a9a9;stroke-width:2;" x="120.489796" xlink:href="#m953c6681db" y="122.165577"/>
      </g>
     </g>
    </g>
   </g>
   <g id="matplotlib.axis_4"/>
   <g id="line2d_17">
    <path clip-path="url(#pf9f641c1df)" d="M 18 120.461607 
L 20.277551 120.672376 
L 22.555102 120.73776 
L 24.832653 120.664421 
L 27.110204 120.494715 
L 29.387755 120.30283 
L 31.665306 120.136724 
L 33.942857 119.85756 
L 36.220408 119.30518 
L 38.497959 118.355736 
L 40.77551 116.923972 
L 43.053061 114.963967 
L 45.330612 112.468633 
L 47.608163 109.468177 
L 49.885714 106.027745 
L 52.163265 102.244421 
L 54.440816 98.24374 
L 56.718367 94.175793 
L 58.995918 90.210771 
L 61.273469 86.533963 
L 63.55102 83.340503 
L 65.828571 80.830221 
L 68.106122 79.202916 
L 70.383673 78.654289 
L 72.661224 79.372731 
L 74.938776 81.527544 
L 77.216327 85.20848 
L 79.493878 90.020334 
L 81.771429 95.519718 
L 84.04898 101.293634 
L 86.326531 106.982843 
L 88.604082 112.291024 
L 90.881633 116.989581 
L 93.159184 120.918584 
L 95.436735 123.984477 
L 97.714286 126.155208 
L 99.991837 127.453458 
L 102.269388 127.948589 
L 104.546939 127.747635 
L 106.82449 126.985797 
L 109.102041 125.817083 
L 111.379592 124.405747 
L 113.657143 122.919035 
L 115.934694 121.521639 
L 118.212245 120.372087 
L 120.489796 119.621178 
L 122.767347 119.359174 
L 125.044898 119.46272 
L 127.322449 119.76831 
L 129.6 120.136894 
" style="fill:none;stroke:#66c2a5;stroke-linecap:square;stroke-width:2;"/>
   </g>
   <g id="patch_8">
    <path d="M 74.938776 128.16 
L 74.938776 77.76 
" style="fill:none;stroke:#a9a9a9;stroke-linecap:square;stroke-linejoin:miter;stroke-width:2;"/>
   </g>
   <g id="patch_9">
    <path d="M 129.6 128.16 
L 129.6 77.76 
" style="fill:none;"/>
   </g>
   <g id="patch_10">
    <path d="M 18 122.165577 
L 129.6 122.165577 
" style="fill:none;stroke:#a9a9a9;stroke-linecap:square;stroke-linejoin:miter;stroke-width:2;"/>
   </g>
   <g id="patch_11">
    <path d="M 18 77.76 
L 129.6 77.76 
" style="fill:none;"/>
   </g>
  </g>
 </g>
 <defs>
  <clipPath id="p5b31024e09">
   <rect height="50.4" width="111.6" x="18" y="17.28"/>
  </clipPath>
  <clipPath id="pf9f641c1df">
   <rect height="50.4" width="111.6" x="18" y="77.76"/>
  </clipPath>
 </defs>
</svg>
