<?xml version="1.0" encoding="utf-8" standalone="no"?>
<!DOCTYPE svg PUBLIC "-//W3C//DTD SVG 1.1//EN"
  "http://www.w3.org/Graphics/SVG/1.1/DTD/svg11.dtd">
<!-- Created with matplotlib (https://matplotlib.org/) -->
<svg height="144pt" version="1.1" viewBox="0 0 144 144" width="144pt" xmlns="http://www.w3.org/2000/svg" xmlns:xlink="http://www.w3.org/1999/xlink">
 <metadata>
  <rdf:RDF xmlns:cc="http://creativecommons.org/ns#" xmlns:dc="http://purl.org/dc/elements/1.1/" xmlns:rdf="http://www.w3.org/1999/02/22-rdf-syntax-ns#">
   <cc:Work>
    <dc:type rdf:resource="http://purl.org/dc/dcmitype/StillImage"/>
    <dc:date>2021-10-14T18:23:50.163461</dc:date>
    <dc:format>image/svg+xml</dc:format>
    <dc:creator>
     <cc:Agent>
      <dc:title>Matplotlib v3.3.2, https://matplotlib.org/</dc:title>
     </cc:Agent>
    </dc:creator>
   </cc:Work>
  </rdf:RDF>
 </metadata>
 <defs>
  <style type="text/css">*{stroke-linecap:butt;stroke-linejoin:round;}</style>
 </defs>
 <g id="figure_1">
  <g id="patch_1">
   <path d="M 0 144 
L 144 144 
L 144 0 
L 0 0 
z
" style="fill:none;"/>
  </g>
  <g id="axes_1">
   <g id="patch_2">
    <path d="M 18 67.68 
L 129.6 67.68 
L 129.6 17.28 
L 18 17.28 
z
" style="fill:none;"/>
   </g>
   <g id="PolyCollection_1">
    <path clip-path="url(#pbb486de25e)" d="M 18 45.118025 
L 18 45.118025 
L 20.277551 45.118025 
L 22.555102 45.118025 
L 24.832653 45.118025 
L 27.110204 45.118025 
L 29.387755 45.11802 
L 31.665306 44.946412 
L 33.942857 44.572291 
L 36.220408 43.603103 
L 38.497959 43.213039 
L 40.77551 41.226732 
L 43.053061 38.646476 
L 45.330612 37.975994 
L 47.608163 34.981099 
L 49.885714 32.708797 
L 52.163265 29.283815 
L 54.440816 28.516137 
L 56.718367 25.01689 
L 58.995918 28.448506 
L 61.273469 17.28 
L 63.55102 18.964729 
L 65.828571 19.693255 
L 68.106122 18.993663 
L 70.383673 20.673999 
L 72.661224 17.588655 
L 74.938776 28.711567 
L 77.216327 20.118741 
L 79.493878 22.928834 
L 81.771429 31.677947 
L 84.04898 40.531306 
L 86.326531 40.175684 
L 88.604082 39.421908 
L 90.881633 37.590296 
L 93.159184 41.528219 
L 95.436735 42.383943 
L 97.714286 43.489657 
L 99.991837 45.98953 
L 102.269388 41.685063 
L 104.546939 43.90725 
L 106.82449 43.938486 
L 109.102041 43.14045 
L 111.379592 43.557425 
L 113.657143 43.775867 
L 115.934694 44.519031 
L 118.212245 44.858107 
L 120.489796 45.112101 
L 122.767347 45.118025 
L 125.044898 45.118025 
L 127.322449 45.118025 
L 129.6 45.118025 
L 129.6 45.118025 
L 129.6 45.118025 
L 127.322449 45.118025 
L 125.044898 45.118025 
L 122.767347 45.118025 
L 120.489796 45.126982 
L 118.212245 45.309863 
L 115.934694 45.893393 
L 113.657143 46.874233 
L 111.379592 47.529704 
L 109.102041 49.265908 
L 106.82449 51.251631 
L 104.546939 51.910475 
L 102.269388 55.206267 
L 99.991837 57.941906 
L 97.714286 59.845294 
L 95.436735 60.483317 
L 93.159184 61.908156 
L 90.881633 59.246756 
L 88.604082 67.527916 
L 86.326531 67.68 
L 84.04898 61.937809 
L 81.771429 64.980768 
L 79.493878 59.244681 
L 77.216327 60.146802 
L 74.938776 47.271197 
L 72.661224 53.897228 
L 70.383673 55.922956 
L 68.106122 50.900793 
L 65.828571 46.550226 
L 63.55102 45.871877 
L 61.273469 44.432285 
L 58.995918 50.640553 
L 56.718367 49.120104 
L 54.440816 49.803662 
L 52.163265 48.092016 
L 49.885714 46.793935 
L 47.608163 50.846262 
L 45.330612 49.196071 
L 43.053061 48.280667 
L 40.77551 47.271167 
L 38.497959 47.177338 
L 36.220408 46.56522 
L 33.942857 45.593977 
L 31.665306 45.37739 
L 29.387755 45.118028 
L 27.110204 45.118025 
L 24.832653 45.118025 
L 22.555102 45.118025 
L 20.277551 45.118025 
L 18 45.118025 
z
" style="fill:#fc8d62;fill-opacity:0.2;"/>
   </g>
   <g id="PolyCollection_2">
    <path clip-path="url(#pbb486de25e)" d="M 18 45.118025 
L 18 45.118025 
L 20.277551 45.118025 
L 22.555102 45.118025 
L 24.832653 45.118025 
L 27.110204 45.118025 
L 29.387755 45.117648 
L 31.665306 44.614901 
L 33.942857 44.238393 
L 36.220408 42.768097 
L 38.497959 42.189259 
L 40.77551 41.947809 
L 43.053061 39.706355 
L 45.330612 36.528509 
L 47.608163 37.319392 
L 49.885714 37.347511 
L 52.163265 33.83561 
L 54.440816 32.779043 
L 56.718367 34.006198 
L 58.995918 35.457135 
L 61.273469 25.383081 
L 63.55102 32.477172 
L 65.828571 29.798041 
L 68.106122 25.328262 
L 70.383673 35.959104 
L 72.661224 27.697481 
L 74.938776 36.579073 
L 77.216327 28.544327 
L 79.493878 31.174539 
L 81.771429 33.09573 
L 84.04898 26.576565 
L 86.326531 25.825189 
L 88.604082 32.548289 
L 90.881633 34.578244 
L 93.159184 34.052756 
L 95.436735 36.062061 
L 97.714286 35.860683 
L 99.991837 36.206769 
L 102.269388 41.247851 
L 104.546939 40.344104 
L 106.82449 39.536458 
L 109.102041 42.149734 
L 111.379592 42.707753 
L 113.657143 43.391049 
L 115.934694 43.703551 
L 118.212245 44.8936 
L 120.489796 45.09781 
L 122.767347 45.118017 
L 125.044898 45.118025 
L 127.322449 45.118025 
L 129.6 45.118025 
L 129.6 45.118025 
L 129.6 45.118025 
L 127.322449 45.118025 
L 125.044898 45.118025 
L 122.767347 45.118035 
L 120.489796 45.146559 
L 118.212245 45.516361 
L 115.934694 46.394109 
L 113.657143 47.202205 
L 111.379592 48.231269 
L 109.102041 48.874024 
L 106.82449 50.816881 
L 104.546939 52.407422 
L 102.269388 52.086004 
L 99.991837 53.358104 
L 97.714286 55.221007 
L 95.436735 56.172292 
L 93.159184 58.727473 
L 90.881633 59.411667 
L 88.604082 58.324351 
L 86.326531 60.018961 
L 84.04898 61.948651 
L 81.771429 64.020026 
L 79.493878 57.032892 
L 77.216327 60.804775 
L 74.938776 53.093022 
L 72.661224 63.133392 
L 70.383673 61.834745 
L 68.106122 59.46475 
L 65.828571 61.051436 
L 63.55102 61.925016 
L 61.273469 55.721097 
L 58.995918 54.335158 
L 56.718367 55.87751 
L 54.440816 51.805903 
L 52.163265 53.540448 
L 49.885714 53.82011 
L 47.608163 48.800022 
L 45.330612 49.871703 
L 43.053061 49.193824 
L 40.77551 48.229569 
L 38.497959 46.847542 
L 36.220408 46.835358 
L 33.942857 46.096441 
L 31.665306 45.485682 
L 29.387755 45.118308 
L 27.110204 45.118025 
L 24.832653 45.118025 
L 22.555102 45.118025 
L 20.277551 45.118025 
L 18 45.118025 
z
" style="fill:#fc8d62;fill-opacity:0.2;"/>
   </g>
   <g id="matplotlib.axis_1">
    <g id="xtick_1">
     <g id="line2d_1">
      <defs>
       <path d="M 0 0 
L 0 3.5 
" id="md015084cf1" style="stroke:#a9a9a9;stroke-width:2;"/>
      </defs>
      <g>
       <use style="fill:#a9a9a9;stroke:#a9a9a9;stroke-width:2;" x="29.387755" xlink:href="#md015084cf1" y="45.118025"/>
      </g>
     </g>
    </g>
    <g id="xtick_2">
     <g id="line2d_2">
      <g>
       <use style="fill:#a9a9a9;stroke:#a9a9a9;stroke-width:2;" x="52.163265" xlink:href="#md015084cf1" y="45.118025"/>
      </g>
     </g>
    </g>
    <g id="xtick_3">
     <g id="line2d_3">
      <g>
       <use style="fill:#a9a9a9;stroke:#a9a9a9;stroke-width:2;" x="74.938776" xlink:href="#md015084cf1" y="45.118025"/>
      </g>
     </g>
    </g>
    <g id="xtick_4">
     <g id="line2d_4">
      <g>
       <use style="fill:#a9a9a9;stroke:#a9a9a9;stroke-width:2;" x="97.714286" xlink:href="#md015084cf1" y="45.118025"/>
      </g>
     </g>
    </g>
    <g id="xtick_5">
     <g id="line2d_5">
      <g>
       <use style="fill:#a9a9a9;stroke:#a9a9a9;stroke-width:2;" x="120.489796" xlink:href="#md015084cf1" y="45.118025"/>
      </g>
     </g>
    </g>
   </g>
   <g id="matplotlib.axis_2"/>
   <g id="line2d_6">
    <path clip-path="url(#pbb486de25e)" d="M 18 45.118025 
L 20.277551 45.118025 
L 22.555102 45.118025 
L 24.832653 45.118025 
L 27.110204 45.118025 
L 29.387755 45.118024 
L 31.665306 45.161901 
L 33.942857 45.083134 
L 36.220408 45.084162 
L 38.497959 45.195189 
L 40.77551 44.24895 
L 43.053061 43.463572 
L 45.330612 43.586033 
L 47.608163 42.913681 
L 49.885714 39.751366 
L 52.163265 38.687915 
L 54.440816 39.1599 
L 56.718367 37.068497 
L 58.995918 39.54453 
L 61.273469 30.856142 
L 63.55102 32.418303 
L 65.828571 33.121741 
L 68.106122 34.947228 
L 70.383673 38.298477 
L 72.661224 35.742941 
L 74.938776 37.991382 
L 77.216327 40.132772 
L 79.493878 41.086758 
L 81.771429 48.329357 
L 84.04898 51.234558 
L 86.326531 53.927842 
L 88.604082 53.474912 
L 90.881633 48.418526 
L 93.159184 51.718188 
L 95.436735 51.43363 
L 97.714286 51.667476 
L 99.991837 51.965718 
L 102.269388 48.445665 
L 104.546939 47.908862 
L 106.82449 47.595059 
L 109.102041 46.203179 
L 111.379592 45.543565 
L 113.657143 45.32505 
L 115.934694 45.206212 
L 118.212245 45.083985 
L 120.489796 45.119542 
L 122.767347 45.118025 
L 125.044898 45.118025 
L 127.322449 45.118025 
L 129.6 45.118025 
" style="fill:none;stroke:#fc8d62;stroke-linecap:square;stroke-width:2;"/>
   </g>
   <g id="line2d_7">
    <path clip-path="url(#pbb486de25e)" d="M 18 45.118025 
L 20.277551 45.118025 
L 22.555102 45.118025 
L 24.832653 45.118025 
L 27.110204 45.118025 
L 29.387755 45.117978 
L 31.665306 45.050292 
L 33.942857 45.167417 
L 36.220408 44.801727 
L 38.497959 44.5184 
L 40.77551 45.088689 
L 43.053061 44.450089 
L 45.330612 43.200106 
L 47.608163 43.059707 
L 49.885714 45.583811 
L 52.163265 43.688029 
L 54.440816 42.292473 
L 56.718367 44.941854 
L 58.995918 44.896146 
L 61.273469 40.552089 
L 63.55102 47.201094 
L 65.828571 45.424738 
L 68.106122 42.396506 
L 70.383673 48.896924 
L 72.661224 45.415437 
L 74.938776 44.836048 
L 77.216327 44.674551 
L 79.493878 44.103716 
L 81.771429 48.557878 
L 84.04898 44.262608 
L 86.326531 42.922075 
L 88.604082 45.43632 
L 90.881633 46.994956 
L 93.159184 46.390115 
L 95.436735 46.117176 
L 97.714286 45.540845 
L 99.991837 44.782437 
L 102.269388 46.666928 
L 104.546939 46.375763 
L 106.82449 45.17667 
L 109.102041 45.511879 
L 111.379592 45.469511 
L 113.657143 45.296627 
L 115.934694 45.04883 
L 118.212245 45.204981 
L 120.489796 45.122184 
L 122.767347 45.118026 
L 125.044898 45.118025 
L 127.322449 45.118025 
L 129.6 45.118025 
" style="fill:none;stroke:#fc8d62;stroke-dasharray:1.5,1.5;stroke-dashoffset:0;stroke-opacity:0.7;stroke-width:1.5;"/>
   </g>
   <g id="patch_3">
    <path d="M 74.938776 67.68 
L 74.938776 17.28 
" style="fill:none;stroke:#a9a9a9;stroke-linecap:square;stroke-linejoin:miter;stroke-width:2;"/>
   </g>
   <g id="patch_4">
    <path d="M 129.6 67.68 
L 129.6 17.28 
" style="fill:none;"/>
   </g>
   <g id="patch_5">
    <path d="M 18 45.118025 
L 129.6 45.118025 
" style="fill:none;stroke:#a9a9a9;stroke-linecap:square;stroke-linejoin:miter;stroke-width:2;"/>
   </g>
   <g id="patch_6">
    <path d="M 18 17.28 
L 129.6 17.28 
" style="fill:none;"/>
   </g>
   <g id="legend_1">
    <g id="line2d_8">
     <path d="M 101.475312 26.448906 
L 115.475312 26.448906 
" style="fill:none;stroke:#fc8d62;stroke-linecap:square;stroke-width:2;"/>
    </g>
    <g id="line2d_9"/>
    <g id="text_1">
     <!--   -->
     <g transform="translate(121.075312 28.898906)scale(0.07 -0.07)">
      <defs>
       <path id="DejaVuSans-32"/>
      </defs>
      <use xlink:href="#DejaVuSans-32"/>
     </g>
    </g>
    <g id="line2d_10">
     <path d="M 101.475312 36.723594 
L 115.475312 36.723594 
" style="fill:none;stroke:#fc8d62;stroke-dasharray:1.5,1.5;stroke-dashoffset:0;stroke-opacity:0.7;stroke-width:1.5;"/>
    </g>
    <g id="line2d_11"/>
    <g id="text_2">
     <!--   -->
     <g transform="translate(121.075312 39.173594)scale(0.07 -0.07)">
      <use xlink:href="#DejaVuSans-32"/>
     </g>
    </g>
   </g>
  </g>
  <g id="axes_2">
   <g id="patch_7">
    <path d="M 18 128.16 
L 129.6 128.16 
L 129.6 77.76 
L 18 77.76 
z
" style="fill:none;"/>
   </g>
   <g id="PolyCollection_3">
    <path clip-path="url(#p9dd82ac7b7)" d="M 18 120.569173 
L 18 120.490299 
L 20.277551 120.704376 
L 22.555102 120.773578 
L 24.832653 120.702927 
L 27.110204 120.537736 
L 29.387755 120.351544 
L 31.665306 120.189678 
L 33.942857 119.912658 
L 36.220408 119.360628 
L 38.497959 118.407188 
L 40.77551 116.96077 
L 43.053061 114.969341 
L 45.330612 112.424223 
L 47.608163 109.357176 
L 49.885714 105.836257 
L 52.163265 101.962264 
L 54.440816 97.86484 
L 56.718367 93.698435 
L 58.995918 89.637599 
L 61.273469 85.871741 
L 63.55102 82.599536 
L 65.828571 80.023498 
L 68.106122 78.345007 
L 70.383673 77.76 
L 72.661224 78.455513 
L 74.938776 80.599681 
L 77.216327 84.273727 
L 79.493878 89.093356 
L 81.771429 94.618127 
L 84.04898 100.437156 
L 86.326531 106.19049 
L 88.604082 111.578396 
L 90.881633 116.366464 
L 93.159184 120.387234 
L 95.436735 123.540007 
L 97.714286 125.789019 
L 99.991837 127.158449 
L 102.269388 127.721618 
L 104.546939 127.588412 
L 106.82449 126.894353 
L 109.102041 125.791505 
L 111.379592 124.440522 
L 113.657143 123.003767 
L 115.934694 121.639904 
L 118.212245 120.501843 
L 120.489796 119.740058 
L 122.767347 119.453242 
L 125.044898 119.529702 
L 127.322449 119.813426 
L 129.6 120.169015 
L 129.6 120.275196 
L 129.6 120.275196 
L 127.322449 119.945453 
L 125.044898 119.681397 
L 122.767347 119.616059 
L 120.489796 119.907589 
L 118.212245 120.678868 
L 115.934694 121.845321 
L 113.657143 123.255897 
L 111.379592 124.746831 
L 109.102041 126.148654 
L 106.82449 127.291754 
L 104.546939 128.012315 
L 102.269388 128.16 
L 99.991837 127.606997 
L 97.714286 126.257308 
L 95.436735 124.054355 
L 93.159184 120.985762 
L 90.881633 117.087909 
L 88.604082 112.453582 
L 86.326531 107.238951 
L 84.04898 101.667033 
L 81.771429 96.026626 
L 79.493878 90.667247 
L 77.216327 85.989854 
L 74.938776 82.425739 
L 72.661224 80.351882 
L 70.383673 79.683577 
L 68.106122 80.252008 
L 65.828571 81.871459 
L 63.55102 84.349176 
L 61.273469 87.488712 
L 58.995918 91.094047 
L 56.718367 94.974342 
L 54.440816 98.949023 
L 52.163265 102.852846 
L 49.885714 106.54078 
L 47.608163 109.892277 
L 45.330612 112.815039 
L 43.053061 115.248007 
L 40.77551 117.163636 
L 38.497959 118.568205 
L 36.220408 119.501655 
L 33.942857 120.042119 
L 31.665306 120.308823 
L 29.387755 120.458709 
L 27.110204 120.628053 
L 24.832653 120.773602 
L 22.555102 120.829355 
L 20.277551 120.762623 
L 18 120.569173 
z
" style="fill:#66c2a5;fill-opacity:0.2;"/>
   </g>
   <g id="matplotlib.axis_3">
    <g id="xtick_6">
     <g id="line2d_12">
      <g>
       <use style="fill:#a9a9a9;stroke:#a9a9a9;stroke-width:2;" x="29.387755" xlink:href="#md015084cf1" y="122.247327"/>
      </g>
     </g>
    </g>
    <g id="xtick_7">
     <g id="line2d_13">
      <g>
       <use style="fill:#a9a9a9;stroke:#a9a9a9;stroke-width:2;" x="52.163265" xlink:href="#md015084cf1" y="122.247327"/>
      </g>
     </g>
    </g>
    <g id="xtick_8">
     <g id="line2d_14">
      <g>
       <use style="fill:#a9a9a9;stroke:#a9a9a9;stroke-width:2;" x="74.938776" xlink:href="#md015084cf1" y="122.247327"/>
      </g>
     </g>
    </g>
    <g id="xtick_9">
     <g id="line2d_15">
      <g>
       <use style="fill:#a9a9a9;stroke:#a9a9a9;stroke-width:2;" x="97.714286" xlink:href="#md015084cf1" y="122.247327"/>
      </g>
     </g>
    </g>
    <g id="xtick_10">
     <g id="line2d_16">
      <g>
       <use style="fill:#a9a9a9;stroke:#a9a9a9;stroke-width:2;" x="120.489796" xlink:href="#md015084cf1" y="122.247327"/>
      </g>
     </g>
    </g>
   </g>
   <g id="matplotlib.axis_4"/>
   <g id="line2d_17">
    <path clip-path="url(#p9dd82ac7b7)" d="M 18 120.529736 
L 20.277551 120.733499 
L 22.555102 120.801466 
L 24.832653 120.738265 
L 27.110204 120.582895 
L 29.387755 120.405126 
L 31.665306 120.24925 
L 33.942857 119.977388 
L 36.220408 119.431142 
L 38.497959 118.487696 
L 40.77551 117.062203 
L 43.053061 115.108674 
L 45.330612 112.619631 
L 47.608163 109.624727 
L 49.885714 106.188519 
L 52.163265 102.407555 
L 54.440816 98.406931 
L 56.718367 94.336389 
L 58.995918 90.365823 
L 61.273469 86.680226 
L 63.55102 83.474356 
L 65.828571 80.947478 
L 68.106122 79.298508 
L 70.383673 78.721788 
L 72.661224 79.403697 
L 74.938776 81.51271 
L 77.216327 85.13179 
L 79.493878 89.880302 
L 81.771429 95.322376 
L 84.04898 101.052094 
L 86.326531 106.71472 
L 88.604082 112.015989 
L 90.881633 116.727186 
L 93.159184 120.686498 
L 95.436735 123.797181 
L 97.714286 126.023164 
L 99.991837 127.382723 
L 102.269388 127.940809 
L 104.546939 127.800364 
L 106.82449 127.093053 
L 109.102041 125.970079 
L 111.379592 124.593677 
L 113.657143 123.129832 
L 115.934694 121.742613 
L 118.212245 120.590356 
L 120.489796 119.823824 
L 122.767347 119.534651 
L 125.044898 119.60555 
L 127.322449 119.87944 
L 129.6 120.222106 
" style="fill:none;stroke:#66c2a5;stroke-linecap:square;stroke-width:2;"/>
   </g>
   <g id="patch_8">
    <path d="M 74.938776 128.16 
L 74.938776 77.76 
" style="fill:none;stroke:#a9a9a9;stroke-linecap:square;stroke-linejoin:miter;stroke-width:2;"/>
   </g>
   <g id="patch_9">
    <path d="M 129.6 128.16 
L 129.6 77.76 
" style="fill:none;"/>
   </g>
   <g id="patch_10">
    <path d="M 18 122.247327 
L 129.6 122.247327 
" style="fill:none;stroke:#a9a9a9;stroke-linecap:square;stroke-linejoin:miter;stroke-width:2;"/>
   </g>
   <g id="patch_11">
    <path d="M 18 77.76 
L 129.6 77.76 
" style="fill:none;"/>
   </g>
   <g id="legend_2">
    <g id="line2d_18">
     <path d="M 101.475312 86.928906 
L 115.475312 86.928906 
" style="fill:none;stroke:#66c2a5;stroke-linecap:square;stroke-width:2;"/>
    </g>
    <g id="line2d_19"/>
    <g id="text_3">
     <!--   -->
     <g transform="translate(121.075312 89.378906)scale(0.07 -0.07)">
      <use xlink:href="#DejaVuSans-32"/>
     </g>
    </g>
   </g>
  </g>
 </g>
 <defs>
  <clipPath id="pbb486de25e">
   <rect height="50.4" width="111.6" x="18" y="17.28"/>
  </clipPath>
  <clipPath id="p9dd82ac7b7">
   <rect height="50.4" width="111.6" x="18" y="77.76"/>
  </clipPath>
 </defs>
</svg>
