<?xml version="1.0" encoding="utf-8" standalone="no"?>
<!DOCTYPE svg PUBLIC "-//W3C//DTD SVG 1.1//EN"
  "http://www.w3.org/Graphics/SVG/1.1/DTD/svg11.dtd">
<!-- Created with matplotlib (https://matplotlib.org/) -->
<svg height="144pt" version="1.1" viewBox="0 0 144 144" width="144pt" xmlns="http://www.w3.org/2000/svg" xmlns:xlink="http://www.w3.org/1999/xlink">
 <metadata>
  <rdf:RDF xmlns:cc="http://creativecommons.org/ns#" xmlns:dc="http://purl.org/dc/elements/1.1/" xmlns:rdf="http://www.w3.org/1999/02/22-rdf-syntax-ns#">
   <cc:Work>
    <dc:type rdf:resource="http://purl.org/dc/dcmitype/StillImage"/>
    <dc:date>2021-10-13T15:47:10.420397</dc:date>
    <dc:format>image/svg+xml</dc:format>
    <dc:creator>
     <cc:Agent>
      <dc:title>Matplotlib v3.3.2, https://matplotlib.org/</dc:title>
     </cc:Agent>
    </dc:creator>
   </cc:Work>
  </rdf:RDF>
 </metadata>
 <defs>
  <style type="text/css">*{stroke-linecap:butt;stroke-linejoin:round;}</style>
 </defs>
 <g id="figure_1">
  <g id="patch_1">
   <path d="M 0 144 
L 144 144 
L 144 0 
L 0 0 
z
" style="fill:none;"/>
  </g>
  <g id="axes_1">
   <g id="patch_2">
    <path d="M 18 67.68 
L 129.6 67.68 
L 129.6 17.28 
L 18 17.28 
z
" style="fill:none;"/>
   </g>
   <g id="PolyCollection_1">
    <path clip-path="url(#p69818b5666)" d="M 18 67.66888 
L 18 67.66888 
L 20.277551 67.66888 
L 22.555102 67.66888 
L 24.832653 67.66888 
L 27.110204 67.66888 
L 29.387755 67.668765 
L 31.665306 67.621929 
L 33.942857 67.421467 
L 36.220408 66.993173 
L 38.497959 66.104071 
L 40.77551 64.713665 
L 43.053061 62.771551 
L 45.330612 60.440978 
L 47.608163 57.429928 
L 49.885714 53.438675 
L 52.163265 49.696726 
L 54.440816 44.858922 
L 56.718367 39.680878 
L 58.995918 35.083989 
L 61.273469 30.713654 
L 63.55102 26.395807 
L 65.828571 22.590161 
L 68.106122 19.764891 
L 70.383673 18.262838 
L 72.661224 17.28 
L 74.938776 24.136034 
L 77.216327 20.054824 
L 79.493878 22.569815 
L 81.771429 26.795369 
L 84.04898 30.828643 
L 86.326531 34.632137 
L 88.604082 39.296214 
L 90.881633 43.497087 
L 93.159184 47.462821 
L 95.436735 51.409337 
L 97.714286 54.769625 
L 99.991837 57.521217 
L 102.269388 60.219774 
L 104.546939 62.441375 
L 106.82449 64.09048 
L 109.102041 65.461798 
L 111.379592 66.438472 
L 113.657143 67.079767 
L 115.934694 67.468229 
L 118.212245 67.634585 
L 120.489796 67.66888 
L 122.767347 67.66888 
L 125.044898 67.66888 
L 127.322449 67.66888 
L 129.6 67.66888 
L 129.6 67.66888 
L 129.6 67.66888 
L 127.322449 67.66888 
L 125.044898 67.66888 
L 122.767347 67.66888 
L 120.489796 67.66888 
L 118.212245 67.68 
L 115.934694 67.616383 
L 113.657143 67.385587 
L 111.379592 66.896032 
L 109.102041 66.065175 
L 106.82449 65.005915 
L 104.546939 63.273756 
L 102.269388 61.565064 
L 99.991837 59.099832 
L 97.714286 56.390011 
L 95.436735 53.251154 
L 93.159184 49.787249 
L 90.881633 45.827293 
L 88.604082 41.725138 
L 86.326531 37.934354 
L 84.04898 34.276572 
L 81.771429 30.106601 
L 79.493878 26.739012 
L 77.216327 24.161522 
L 74.938776 28.128028 
L 72.661224 21.341703 
L 70.383673 22.583196 
L 68.106122 23.788046 
L 65.828571 27.020454 
L 63.55102 29.623177 
L 61.273469 33.534999 
L 58.995918 38.533341 
L 56.718367 42.839147 
L 54.440816 47.198078 
L 52.163265 51.804561 
L 49.885714 55.299773 
L 47.608163 59.040343 
L 45.330612 61.520734 
L 43.053061 63.918057 
L 40.77551 65.408711 
L 38.497959 66.581995 
L 36.220408 67.23634 
L 33.942857 67.595293 
L 31.665306 67.671215 
L 29.387755 67.668952 
L 27.110204 67.66888 
L 24.832653 67.66888 
L 22.555102 67.66888 
L 20.277551 67.66888 
L 18 67.66888 
z
" style="fill:#fc8d62;fill-opacity:0.2;"/>
   </g>
   <g id="PolyCollection_2">
    <path clip-path="url(#p69818b5666)" d="M 18 67.66888 
L 18 67.66888 
L 20.277551 67.66888 
L 22.555102 67.66888 
L 24.832653 67.66888 
L 27.110204 67.66888 
L 29.387755 67.66887 
L 31.665306 67.621479 
L 33.942857 67.387548 
L 36.220408 66.972395 
L 38.497959 66.120032 
L 40.77551 65.010998 
L 43.053061 63.34157 
L 45.330612 60.991502 
L 47.608163 58.35079 
L 49.885714 55.193035 
L 52.163265 51.392747 
L 54.440816 47.629582 
L 56.718367 43.597914 
L 58.995918 38.968272 
L 61.273469 34.580317 
L 63.55102 30.860038 
L 65.828571 26.735953 
L 68.106122 23.123774 
L 70.383673 21.011411 
L 72.661224 19.290524 
L 74.938776 23.363243 
L 77.216327 19.904592 
L 79.493878 21.187795 
L 81.771429 23.646992 
L 84.04898 27.501155 
L 86.326531 30.801916 
L 88.604082 34.925226 
L 90.881633 39.511544 
L 93.159184 43.992784 
L 95.436735 48.082011 
L 97.714286 52.108339 
L 99.991837 55.947594 
L 102.269388 58.869446 
L 104.546939 61.388151 
L 106.82449 63.520241 
L 109.102041 65.140036 
L 111.379592 66.325759 
L 113.657143 67.102849 
L 115.934694 67.455384 
L 118.212245 67.624524 
L 120.489796 67.66888 
L 122.767347 67.66888 
L 125.044898 67.66888 
L 127.322449 67.66888 
L 129.6 67.66888 
L 129.6 67.66888 
L 129.6 67.66888 
L 127.322449 67.66888 
L 125.044898 67.66888 
L 122.767347 67.66888 
L 120.489796 67.66888 
L 118.212245 67.682091 
L 115.934694 67.616965 
L 113.657143 67.339474 
L 111.379592 66.834352 
L 109.102041 65.809927 
L 106.82449 64.419147 
L 104.546939 62.513725 
L 102.269388 60.166817 
L 99.991837 57.3557 
L 97.714286 53.982694 
L 95.436735 50.414031 
L 93.159184 46.674645 
L 90.881633 42.244557 
L 88.604082 38.024862 
L 86.326531 34.106791 
L 84.04898 30.174425 
L 81.771429 27.875801 
L 79.493878 25.25131 
L 77.216327 23.254116 
L 74.938776 27.393382 
L 72.661224 23.663982 
L 70.383673 25.014977 
L 68.106122 26.873982 
L 65.828571 30.229684 
L 63.55102 34.163787 
L 61.273469 38.023214 
L 58.995918 42.017808 
L 56.718367 45.534026 
L 54.440816 49.764083 
L 52.163265 53.522314 
L 49.885714 56.728427 
L 47.608163 59.927672 
L 45.330612 62.35504 
L 43.053061 64.327141 
L 40.77551 65.67186 
L 38.497959 66.585953 
L 36.220408 67.256835 
L 33.942857 67.577254 
L 31.665306 67.672889 
L 29.387755 67.668884 
L 27.110204 67.66888 
L 24.832653 67.66888 
L 22.555102 67.66888 
L 20.277551 67.66888 
L 18 67.66888 
z
" style="fill:#fc8d62;fill-opacity:0.2;"/>
   </g>
   <g id="matplotlib.axis_1">
    <g id="xtick_1">
     <g id="line2d_1">
      <defs>
       <path d="M 0 0 
L 0 3.5 
" id="mf25ea2ba86" style="stroke:#a9a9a9;stroke-width:2;"/>
      </defs>
      <g>
       <use style="fill:#a9a9a9;stroke:#a9a9a9;stroke-width:2;" x="29.387755" xlink:href="#mf25ea2ba86" y="67.66888"/>
      </g>
     </g>
    </g>
    <g id="xtick_2">
     <g id="line2d_2">
      <g>
       <use style="fill:#a9a9a9;stroke:#a9a9a9;stroke-width:2;" x="52.163265" xlink:href="#mf25ea2ba86" y="67.66888"/>
      </g>
     </g>
    </g>
    <g id="xtick_3">
     <g id="line2d_3">
      <g>
       <use style="fill:#a9a9a9;stroke:#a9a9a9;stroke-width:2;" x="74.938776" xlink:href="#mf25ea2ba86" y="67.66888"/>
      </g>
     </g>
    </g>
    <g id="xtick_4">
     <g id="line2d_4">
      <g>
       <use style="fill:#a9a9a9;stroke:#a9a9a9;stroke-width:2;" x="97.714286" xlink:href="#mf25ea2ba86" y="67.66888"/>
      </g>
     </g>
    </g>
    <g id="xtick_5">
     <g id="line2d_5">
      <g>
       <use style="fill:#a9a9a9;stroke:#a9a9a9;stroke-width:2;" x="120.489796" xlink:href="#mf25ea2ba86" y="67.66888"/>
      </g>
     </g>
    </g>
   </g>
   <g id="matplotlib.axis_2"/>
   <g id="line2d_6">
    <path clip-path="url(#p69818b5666)" d="M 18 67.66888 
L 20.277551 67.66888 
L 22.555102 67.66888 
L 24.832653 67.66888 
L 27.110204 67.66888 
L 29.387755 67.668859 
L 31.665306 67.646572 
L 33.942857 67.50838 
L 36.220408 67.114757 
L 38.497959 66.343033 
L 40.77551 65.061188 
L 43.053061 63.344804 
L 45.330612 60.980856 
L 47.608163 58.235135 
L 49.885714 54.369224 
L 52.163265 50.750644 
L 54.440816 46.0285 
L 56.718367 41.260012 
L 58.995918 36.808665 
L 61.273469 32.124326 
L 63.55102 28.009492 
L 65.828571 24.805308 
L 68.106122 21.776469 
L 70.383673 20.423017 
L 72.661224 19.310851 
L 74.938776 26.132031 
L 77.216327 22.108173 
L 79.493878 24.654413 
L 81.771429 28.450985 
L 84.04898 32.552607 
L 86.326531 36.283246 
L 88.604082 40.510676 
L 90.881633 44.66219 
L 93.159184 48.625035 
L 95.436735 52.330245 
L 97.714286 55.579818 
L 99.991837 58.310525 
L 102.269388 60.892419 
L 104.546939 62.857566 
L 106.82449 64.548197 
L 109.102041 65.763487 
L 111.379592 66.667252 
L 113.657143 67.232677 
L 115.934694 67.542306 
L 118.212245 67.657293 
L 120.489796 67.66888 
L 122.767347 67.66888 
L 125.044898 67.66888 
L 127.322449 67.66888 
L 129.6 67.66888 
" style="fill:none;stroke:#fc8d62;stroke-linecap:square;stroke-width:2;"/>
   </g>
   <g id="line2d_7">
    <path clip-path="url(#p69818b5666)" d="M 18 67.66888 
L 20.277551 67.66888 
L 22.555102 67.66888 
L 24.832653 67.66888 
L 27.110204 67.66888 
L 29.387755 67.668877 
L 31.665306 67.647184 
L 33.942857 67.482401 
L 36.220408 67.114615 
L 38.497959 66.352992 
L 40.77551 65.341429 
L 43.053061 63.834355 
L 45.330612 61.673271 
L 47.608163 59.139231 
L 49.885714 55.960731 
L 52.163265 52.457531 
L 54.440816 48.696833 
L 56.718367 44.56597 
L 58.995918 40.49304 
L 61.273469 36.301766 
L 63.55102 32.511912 
L 65.828571 28.482819 
L 68.106122 24.998878 
L 70.383673 23.013194 
L 72.661224 21.477253 
L 74.938776 25.378313 
L 77.216327 21.579354 
L 79.493878 23.219553 
L 81.771429 25.761397 
L 84.04898 28.83779 
L 86.326531 32.454353 
L 88.604082 36.475044 
L 90.881633 40.87805 
L 93.159184 45.333714 
L 95.436735 49.248021 
L 97.714286 53.045517 
L 99.991837 56.651647 
L 102.269388 59.518132 
L 104.546939 61.950938 
L 106.82449 63.969694 
L 109.102041 65.474981 
L 111.379592 66.580056 
L 113.657143 67.221162 
L 115.934694 67.536175 
L 118.212245 67.653307 
L 120.489796 67.66888 
L 122.767347 67.66888 
L 125.044898 67.66888 
L 127.322449 67.66888 
L 129.6 67.66888 
" style="fill:none;stroke:#fc8d62;stroke-dasharray:1.5,1.5;stroke-dashoffset:0;stroke-opacity:0.7;stroke-width:1.5;"/>
   </g>
   <g id="patch_3">
    <path d="M 74.938776 67.68 
L 74.938776 17.28 
" style="fill:none;stroke:#a9a9a9;stroke-linecap:square;stroke-linejoin:miter;stroke-width:2;"/>
   </g>
   <g id="patch_4">
    <path d="M 129.6 67.68 
L 129.6 17.28 
" style="fill:none;"/>
   </g>
   <g id="patch_5">
    <path d="M 18 67.66888 
L 129.6 67.66888 
" style="fill:none;stroke:#a9a9a9;stroke-linecap:square;stroke-linejoin:miter;stroke-width:2;"/>
   </g>
   <g id="patch_6">
    <path d="M 18 17.28 
L 129.6 17.28 
" style="fill:none;"/>
   </g>
   <g id="legend_1">
    <g id="line2d_8">
     <path d="M 87.67 26.448906 
L 101.67 26.448906 
" style="fill:none;stroke:#fc8d62;stroke-linecap:square;stroke-width:2;"/>
    </g>
    <g id="line2d_9"/>
    <g id="text_1">
     <!-- $\theta$ -->
     <g transform="translate(107.27 28.898906)scale(0.07 -0.07)">
      <defs>
       <path d="M 45.515625 34.671875 
L 14.453125 34.671875 
Q 12.359375 20.0625 14.5 13.875 
Q 17.1875 6.25 24.46875 6.25 
Q 31.78125 6.25 37.359375 13.921875 
Q 42.234375 20.65625 45.515625 34.671875 
z
M 47.015625 42.96875 
Q 48.34375 56.84375 46.625 61.71875 
Q 43.953125 69.4375 36.765625 69.4375 
Q 29.296875 69.4375 23.828125 61.8125 
Q 19.53125 55.671875 16.15625 42.96875 
z
M 38.1875 76.765625 
Q 49.90625 76.765625 54.59375 66.40625 
Q 59.28125 56.109375 55.71875 37.84375 
Q 52.203125 19.625 43.453125 9.28125 
Q 34.765625 -1.125 23.046875 -1.125 
Q 11.28125 -1.125 6.640625 9.28125 
Q 2 19.625 5.515625 37.84375 
Q 9.078125 56.109375 17.71875 66.40625 
Q 26.421875 76.765625 38.1875 76.765625 
z
" id="DejaVuSans-Oblique-952"/>
      </defs>
      <use transform="translate(0 0.234375)" xlink:href="#DejaVuSans-Oblique-952"/>
     </g>
    </g>
    <g id="line2d_10">
     <path d="M 87.67 36.723594 
L 101.67 36.723594 
" style="fill:none;stroke:#fc8d62;stroke-dasharray:1.5,1.5;stroke-dashoffset:0;stroke-opacity:0.7;stroke-width:1.5;"/>
    </g>
    <g id="line2d_11"/>
    <g id="text_2">
     <!-- No $\theta$ -->
     <g transform="translate(107.27 39.173594)scale(0.07 -0.07)">
      <defs>
       <path d="M 9.8125 72.90625 
L 23.09375 72.90625 
L 55.421875 11.921875 
L 55.421875 72.90625 
L 64.984375 72.90625 
L 64.984375 0 
L 51.703125 0 
L 19.390625 60.984375 
L 19.390625 0 
L 9.8125 0 
z
" id="DejaVuSans-78"/>
       <path d="M 30.609375 48.390625 
Q 23.390625 48.390625 19.1875 42.75 
Q 14.984375 37.109375 14.984375 27.296875 
Q 14.984375 17.484375 19.15625 11.84375 
Q 23.34375 6.203125 30.609375 6.203125 
Q 37.796875 6.203125 41.984375 11.859375 
Q 46.1875 17.53125 46.1875 27.296875 
Q 46.1875 37.015625 41.984375 42.703125 
Q 37.796875 48.390625 30.609375 48.390625 
z
M 30.609375 56 
Q 42.328125 56 49.015625 48.375 
Q 55.71875 40.765625 55.71875 27.296875 
Q 55.71875 13.875 49.015625 6.21875 
Q 42.328125 -1.421875 30.609375 -1.421875 
Q 18.84375 -1.421875 12.171875 6.21875 
Q 5.515625 13.875 5.515625 27.296875 
Q 5.515625 40.765625 12.171875 48.375 
Q 18.84375 56 30.609375 56 
z
" id="DejaVuSans-111"/>
       <path id="DejaVuSans-32"/>
      </defs>
      <use transform="translate(0 0.234375)" xlink:href="#DejaVuSans-78"/>
      <use transform="translate(74.804688 0.234375)" xlink:href="#DejaVuSans-111"/>
      <use transform="translate(135.986328 0.234375)" xlink:href="#DejaVuSans-32"/>
      <use transform="translate(167.773438 0.234375)" xlink:href="#DejaVuSans-Oblique-952"/>
     </g>
    </g>
   </g>
  </g>
  <g id="axes_2">
   <g id="patch_7">
    <path d="M 18 128.16 
L 129.6 128.16 
L 129.6 77.76 
L 18 77.76 
z
" style="fill:none;"/>
   </g>
   <g id="PolyCollection_3">
    <path clip-path="url(#pc388da8466)" d="M 18 120.459805 
L 18 120.38191 
L 20.277551 120.602691 
L 22.555102 120.664734 
L 24.832653 120.577112 
L 27.110204 120.389596 
L 29.387755 120.18215 
L 31.665306 120.005929 
L 33.942857 119.719464 
L 36.220408 119.160018 
L 38.497959 118.199937 
L 40.77551 116.747799 
L 43.053061 114.752584 
L 45.330612 112.20598 
L 47.608163 109.140312 
L 49.885714 105.624092 
L 52.163265 101.758333 
L 54.440816 97.672798 
L 56.718367 93.521893 
L 58.995918 89.480108 
L 61.273469 85.736785 
L 63.55102 82.490753 
L 65.828571 79.945068 
L 68.106122 78.302202 
L 70.383673 77.76 
L 72.661224 78.508484 
L 74.938776 80.717178 
L 77.216327 84.478162 
L 79.493878 89.385207 
L 81.771429 94.987032 
L 84.04898 100.862736 
L 86.326531 106.646235 
L 88.604082 112.035324 
L 90.881633 116.796391 
L 93.159184 120.765449 
L 95.436735 123.846891 
L 97.714286 126.010735 
L 99.991837 127.287008 
L 102.269388 127.754914 
L 104.546939 127.529994 
L 106.82449 126.752719 
L 109.102041 125.579251 
L 111.379592 124.173394 
L 113.657143 122.699587 
L 115.934694 121.317786 
L 118.212245 120.181652 
L 120.489796 119.441791 
L 122.767347 119.19446 
L 125.044898 119.318051 
L 127.322449 119.646891 
L 129.6 120.038412 
L 129.6 120.141271 
L 129.6 120.141271 
L 127.322449 119.774017 
L 125.044898 119.463886 
L 122.767347 119.351081 
L 120.489796 119.603296 
L 118.212245 120.352331 
L 115.934694 121.514584 
L 113.657143 122.938993 
L 111.379592 124.462019 
L 109.102041 125.913731 
L 106.82449 127.122979 
L 104.546939 127.923227 
L 102.269388 128.16 
L 99.991837 127.700012 
L 97.714286 126.44078 
L 95.436735 124.318469 
L 93.159184 121.313371 
L 90.881633 117.455553 
L 88.604082 112.83324 
L 86.326531 107.600281 
L 84.04898 101.979979 
L 81.771429 96.264672 
L 79.493878 90.811159 
L 77.216327 86.031593 
L 74.938776 82.369196 
L 72.661224 80.223711 
L 70.383673 79.499873 
L 68.106122 80.027447 
L 65.828571 81.617536 
L 63.55102 84.075145 
L 61.273469 87.202244 
L 58.995918 90.80167 
L 56.718367 94.681644 
L 54.440816 98.6607 
L 52.163265 102.572745 
L 49.885714 106.271774 
L 47.608163 109.636178 
L 45.330612 112.572416 
L 43.053061 115.018278 
L 40.77551 116.945285 
L 38.497959 118.359081 
L 36.220408 119.300584 
L 33.942857 119.849469 
L 31.665306 120.126981 
L 29.387755 120.292635 
L 27.110204 120.484334 
L 24.832653 120.652934 
L 22.555102 120.725403 
L 20.277551 120.663213 
L 18 120.459805 
z
" style="fill:#66c2a5;fill-opacity:0.2;"/>
   </g>
   <g id="matplotlib.axis_3">
    <g id="xtick_6">
     <g id="line2d_12">
      <g>
       <use style="fill:#a9a9a9;stroke:#a9a9a9;stroke-width:2;" x="29.387755" xlink:href="#mf25ea2ba86" y="122.119671"/>
      </g>
     </g>
    </g>
    <g id="xtick_7">
     <g id="line2d_13">
      <g>
       <use style="fill:#a9a9a9;stroke:#a9a9a9;stroke-width:2;" x="52.163265" xlink:href="#mf25ea2ba86" y="122.119671"/>
      </g>
     </g>
    </g>
    <g id="xtick_8">
     <g id="line2d_14">
      <g>
       <use style="fill:#a9a9a9;stroke:#a9a9a9;stroke-width:2;" x="74.938776" xlink:href="#mf25ea2ba86" y="122.119671"/>
      </g>
     </g>
    </g>
    <g id="xtick_9">
     <g id="line2d_15">
      <g>
       <use style="fill:#a9a9a9;stroke:#a9a9a9;stroke-width:2;" x="97.714286" xlink:href="#mf25ea2ba86" y="122.119671"/>
      </g>
     </g>
    </g>
    <g id="xtick_10">
     <g id="line2d_16">
      <g>
       <use style="fill:#a9a9a9;stroke:#a9a9a9;stroke-width:2;" x="120.489796" xlink:href="#mf25ea2ba86" y="122.119671"/>
      </g>
     </g>
    </g>
   </g>
   <g id="matplotlib.axis_4"/>
   <g id="line2d_17">
    <path clip-path="url(#pc388da8466)" d="M 18 120.420858 
L 20.277551 120.632952 
L 22.555102 120.695069 
L 24.832653 120.615023 
L 27.110204 120.436965 
L 29.387755 120.237392 
L 31.665306 120.066455 
L 33.942857 119.784466 
L 36.220408 119.230301 
L 38.497959 118.279509 
L 40.77551 116.846542 
L 43.053061 114.885431 
L 45.330612 112.389198 
L 47.608163 109.388245 
L 49.885714 105.947933 
L 52.163265 102.165539 
L 54.440816 98.166749 
L 56.718367 94.101768 
L 58.995918 90.140889 
L 61.273469 86.469515 
L 63.55102 83.282949 
L 65.828571 80.781302 
L 68.106122 79.164825 
L 70.383673 78.629937 
L 72.661224 79.366098 
L 74.938776 81.543187 
L 77.216327 85.254877 
L 79.493878 90.098183 
L 81.771429 95.625852 
L 84.04898 101.421358 
L 86.326531 107.123258 
L 88.604082 112.434282 
L 90.881633 117.125972 
L 93.159184 121.03941 
L 95.436735 124.08268 
L 97.714286 126.225758 
L 99.991837 127.49351 
L 102.269388 127.957457 
L 104.546939 127.726611 
L 106.82449 126.937849 
L 109.102041 125.746491 
L 111.379592 124.317706 
L 113.657143 122.81929 
L 115.934694 121.416185 
L 118.212245 120.266991 
L 120.489796 119.522543 
L 122.767347 119.272771 
L 125.044898 119.390969 
L 127.322449 119.710454 
L 129.6 120.089842 
" style="fill:none;stroke:#66c2a5;stroke-linecap:square;stroke-width:2;"/>
   </g>
   <g id="patch_8">
    <path d="M 74.938776 128.16 
L 74.938776 77.76 
" style="fill:none;stroke:#a9a9a9;stroke-linecap:square;stroke-linejoin:miter;stroke-width:2;"/>
   </g>
   <g id="patch_9">
    <path d="M 129.6 128.16 
L 129.6 77.76 
" style="fill:none;"/>
   </g>
   <g id="patch_10">
    <path d="M 18 122.119671 
L 129.6 122.119671 
" style="fill:none;stroke:#a9a9a9;stroke-linecap:square;stroke-linejoin:miter;stroke-width:2;"/>
   </g>
   <g id="patch_11">
    <path d="M 18 77.76 
L 129.6 77.76 
" style="fill:none;"/>
   </g>
  </g>
 </g>
 <defs>
  <clipPath id="p69818b5666">
   <rect height="50.4" width="111.6" x="18" y="17.28"/>
  </clipPath>
  <clipPath id="pc388da8466">
   <rect height="50.4" width="111.6" x="18" y="77.76"/>
  </clipPath>
 </defs>
</svg>
