<?xml version="1.0" encoding="utf-8" standalone="no"?>
<!DOCTYPE svg PUBLIC "-//W3C//DTD SVG 1.1//EN"
  "http://www.w3.org/Graphics/SVG/1.1/DTD/svg11.dtd">
<!-- Created with matplotlib (https://matplotlib.org/) -->
<svg height="144pt" version="1.1" viewBox="0 0 144 144" width="144pt" xmlns="http://www.w3.org/2000/svg" xmlns:xlink="http://www.w3.org/1999/xlink">
 <metadata>
  <rdf:RDF xmlns:cc="http://creativecommons.org/ns#" xmlns:dc="http://purl.org/dc/elements/1.1/" xmlns:rdf="http://www.w3.org/1999/02/22-rdf-syntax-ns#">
   <cc:Work>
    <dc:type rdf:resource="http://purl.org/dc/dcmitype/StillImage"/>
    <dc:date>2021-10-15T00:13:27.106144</dc:date>
    <dc:format>image/svg+xml</dc:format>
    <dc:creator>
     <cc:Agent>
      <dc:title>Matplotlib v3.3.2, https://matplotlib.org/</dc:title>
     </cc:Agent>
    </dc:creator>
   </cc:Work>
  </rdf:RDF>
 </metadata>
 <defs>
  <style type="text/css">*{stroke-linecap:butt;stroke-linejoin:round;}</style>
 </defs>
 <g id="figure_1">
  <g id="patch_1">
   <path d="M 0 144 
L 144 144 
L 144 0 
L 0 0 
z
" style="fill:none;"/>
  </g>
  <g id="axes_1">
   <g id="patch_2">
    <path d="M 18 67.68 
L 129.6 67.68 
L 129.6 17.28 
L 18 17.28 
z
" style="fill:none;"/>
   </g>
   <g id="PolyCollection_1">
    <path clip-path="url(#pa94ccb4293)" d="M 18 55.186004 
L 18 55.186004 
L 20.277551 55.186004 
L 22.555102 55.186004 
L 24.832653 55.186004 
L 27.110204 55.186004 
L 29.387755 55.185876 
L 31.665306 55.140985 
L 33.942857 55.011181 
L 36.220408 54.654011 
L 38.497959 54.013933 
L 40.77551 52.821009 
L 43.053061 50.997482 
L 45.330612 48.545524 
L 47.608163 45.301821 
L 49.885714 41.21893 
L 52.163265 36.702819 
L 54.440816 31.8471 
L 56.718367 27.055235 
L 58.995918 22.813124 
L 61.273469 19.43318 
L 63.55102 17.28 
L 65.828571 17.414466 
L 68.106122 18.789561 
L 70.383673 22.115458 
L 72.661224 27.201897 
L 74.938776 35.248332 
L 77.216327 40.358681 
L 79.493878 47.182663 
L 81.771429 53.704178 
L 84.04898 58.799212 
L 86.326531 62.669541 
L 88.604082 65.201867 
L 90.881633 66.249434 
L 93.159184 66.252972 
L 95.436735 65.242989 
L 97.714286 63.726336 
L 99.991837 61.86621 
L 102.269388 60.020448 
L 104.546939 58.393266 
L 106.82449 57.23103 
L 109.102041 56.294771 
L 111.379592 55.637113 
L 113.657143 55.365458 
L 115.934694 55.23537 
L 118.212245 55.190747 
L 120.489796 55.18595 
L 122.767347 55.186004 
L 125.044898 55.186004 
L 127.322449 55.186004 
L 129.6 55.186004 
L 129.6 55.186004 
L 129.6 55.186004 
L 127.322449 55.186004 
L 125.044898 55.186004 
L 122.767347 55.186004 
L 120.489796 55.186284 
L 118.212245 55.225812 
L 115.934694 55.308038 
L 113.657143 55.535511 
L 111.379592 55.904763 
L 109.102041 56.634982 
L 106.82449 57.650867 
L 104.546939 58.971674 
L 102.269388 60.698204 
L 99.991837 62.692283 
L 97.714286 64.589385 
L 95.436735 66.277515 
L 93.159184 67.458009 
L 90.881633 67.68 
L 88.604082 66.729236 
L 86.326531 64.50433 
L 84.04898 60.316915 
L 81.771429 55.189631 
L 79.493878 49.124657 
L 77.216327 42.085028 
L 74.938776 36.135627 
L 72.661224 29.095658 
L 70.383673 24.117742 
L 68.106122 20.70991 
L 65.828571 19.200587 
L 63.55102 19.461867 
L 61.273469 21.175281 
L 58.995918 24.441425 
L 56.718367 28.460922 
L 54.440816 33.033155 
L 52.163265 37.737923 
L 49.885714 42.215742 
L 47.608163 46.010766 
L 45.330612 49.237472 
L 43.053061 51.500532 
L 40.77551 53.191424 
L 38.497959 54.280781 
L 36.220408 54.833901 
L 33.942857 55.086401 
L 31.665306 55.176674 
L 29.387755 55.186064 
L 27.110204 55.186004 
L 24.832653 55.186004 
L 22.555102 55.186004 
L 20.277551 55.186004 
L 18 55.186004 
z
" style="fill:#fc8d62;fill-opacity:0.2;"/>
   </g>
   <g id="PolyCollection_2">
    <path clip-path="url(#pa94ccb4293)" d="M 18 55.186004 
L 18 55.186004 
L 20.277551 55.186004 
L 22.555102 55.186004 
L 24.832653 55.186004 
L 27.110204 55.186004 
L 29.387755 55.185853 
L 31.665306 55.145909 
L 33.942857 55.021044 
L 36.220408 54.784206 
L 38.497959 54.412837 
L 40.77551 53.850166 
L 43.053061 53.144636 
L 45.330612 52.323797 
L 47.608163 51.300264 
L 49.885714 50.206042 
L 52.163265 48.993713 
L 54.440816 47.586023 
L 56.718367 46.093206 
L 58.995918 45.008201 
L 61.273469 43.618899 
L 63.55102 42.381882 
L 65.828571 41.269694 
L 68.106122 40.785 
L 70.383673 40.067332 
L 72.661224 39.812896 
L 74.938776 41.483585 
L 77.216327 40.770283 
L 79.493878 41.346193 
L 81.771429 42.370038 
L 84.04898 43.713601 
L 86.326531 44.95919 
L 88.604082 46.395604 
L 90.881633 47.740754 
L 93.159184 49.155517 
L 95.436735 50.299602 
L 97.714286 51.366053 
L 99.991837 52.387308 
L 102.269388 53.279142 
L 104.546939 53.974025 
L 106.82449 54.418785 
L 109.102041 54.789013 
L 111.379592 54.989301 
L 113.657143 55.13093 
L 115.934694 55.171355 
L 118.212245 55.179683 
L 120.489796 55.185957 
L 122.767347 55.186004 
L 125.044898 55.186004 
L 127.322449 55.186004 
L 129.6 55.186004 
L 129.6 55.186004 
L 129.6 55.186004 
L 127.322449 55.186004 
L 125.044898 55.186004 
L 122.767347 55.186004 
L 120.489796 55.186343 
L 118.212245 55.213931 
L 115.934694 55.261342 
L 113.657143 55.272313 
L 111.379592 55.245715 
L 109.102041 55.147797 
L 106.82449 54.866383 
L 104.546939 54.444601 
L 102.269388 53.958957 
L 99.991837 53.185568 
L 97.714286 52.241668 
L 95.436735 51.269136 
L 93.159184 50.258667 
L 90.881633 48.799343 
L 88.604082 47.558285 
L 86.326531 46.350937 
L 84.04898 45.256832 
L 81.771429 43.778853 
L 79.493878 42.998328 
L 77.216327 42.147803 
L 74.938776 42.079418 
L 72.661224 41.266564 
L 70.383673 41.561119 
L 68.106122 42.124889 
L 65.828571 42.608446 
L 63.55102 43.694187 
L 61.273469 44.735789 
L 58.995918 46.073984 
L 56.718367 47.107869 
L 54.440816 48.617662 
L 52.163265 49.832191 
L 49.885714 50.931846 
L 47.608163 51.918997 
L 45.330612 52.814083 
L 43.053061 53.638451 
L 40.77551 54.202554 
L 38.497959 54.649662 
L 36.220408 54.93025 
L 33.942857 55.114022 
L 31.665306 55.182296 
L 29.387755 55.186058 
L 27.110204 55.186004 
L 24.832653 55.186004 
L 22.555102 55.186004 
L 20.277551 55.186004 
L 18 55.186004 
z
" style="fill:#fc8d62;fill-opacity:0.2;"/>
   </g>
   <g id="matplotlib.axis_1">
    <g id="xtick_1">
     <g id="line2d_1">
      <defs>
       <path d="M 0 0 
L 0 3.5 
" id="macb4b4148c" style="stroke:#a9a9a9;stroke-width:2;"/>
      </defs>
      <g>
       <use style="fill:#a9a9a9;stroke:#a9a9a9;stroke-width:2;" x="29.387755" xlink:href="#macb4b4148c" y="55.186004"/>
      </g>
     </g>
    </g>
    <g id="xtick_2">
     <g id="line2d_2">
      <g>
       <use style="fill:#a9a9a9;stroke:#a9a9a9;stroke-width:2;" x="52.163265" xlink:href="#macb4b4148c" y="55.186004"/>
      </g>
     </g>
    </g>
    <g id="xtick_3">
     <g id="line2d_3">
      <g>
       <use style="fill:#a9a9a9;stroke:#a9a9a9;stroke-width:2;" x="74.938776" xlink:href="#macb4b4148c" y="55.186004"/>
      </g>
     </g>
    </g>
    <g id="xtick_4">
     <g id="line2d_4">
      <g>
       <use style="fill:#a9a9a9;stroke:#a9a9a9;stroke-width:2;" x="97.714286" xlink:href="#macb4b4148c" y="55.186004"/>
      </g>
     </g>
    </g>
    <g id="xtick_5">
     <g id="line2d_5">
      <g>
       <use style="fill:#a9a9a9;stroke:#a9a9a9;stroke-width:2;" x="120.489796" xlink:href="#macb4b4148c" y="55.186004"/>
      </g>
     </g>
    </g>
   </g>
   <g id="matplotlib.axis_2"/>
   <g id="line2d_6">
    <path clip-path="url(#pa94ccb4293)" d="M 18 55.186004 
L 20.277551 55.186004 
L 22.555102 55.186004 
L 24.832653 55.186004 
L 27.110204 55.186004 
L 29.387755 55.18597 
L 31.665306 55.15883 
L 33.942857 55.048791 
L 36.220408 54.743956 
L 38.497959 54.147357 
L 40.77551 53.006217 
L 43.053061 51.249007 
L 45.330612 48.891498 
L 47.608163 45.656293 
L 49.885714 41.717336 
L 52.163265 37.220371 
L 54.440816 32.440127 
L 56.718367 27.758079 
L 58.995918 23.627274 
L 61.273469 20.304231 
L 63.55102 18.370933 
L 65.828571 18.307527 
L 68.106122 19.749736 
L 70.383673 23.1166 
L 72.661224 28.148778 
L 74.938776 35.691979 
L 77.216327 41.221855 
L 79.493878 48.15366 
L 81.771429 54.446904 
L 84.04898 59.558064 
L 86.326531 63.586935 
L 88.604082 65.965551 
L 90.881633 66.964717 
L 93.159184 66.855491 
L 95.436735 65.760252 
L 97.714286 64.15786 
L 99.991837 62.279246 
L 102.269388 60.359326 
L 104.546939 58.68247 
L 106.82449 57.440949 
L 109.102041 56.464876 
L 111.379592 55.770938 
L 113.657143 55.450485 
L 115.934694 55.271704 
L 118.212245 55.208279 
L 120.489796 55.186117 
L 122.767347 55.186004 
L 125.044898 55.186004 
L 127.322449 55.186004 
L 129.6 55.186004 
" style="fill:none;stroke:#fc8d62;stroke-linecap:square;stroke-width:2;"/>
   </g>
   <g id="line2d_7">
    <path clip-path="url(#pa94ccb4293)" d="M 18 55.186004 
L 20.277551 55.186004 
L 22.555102 55.186004 
L 24.832653 55.186004 
L 27.110204 55.186004 
L 29.387755 55.185955 
L 31.665306 55.164102 
L 33.942857 55.067533 
L 36.220408 54.857228 
L 38.497959 54.531249 
L 40.77551 54.02636 
L 43.053061 53.391543 
L 45.330612 52.56894 
L 47.608163 51.609631 
L 49.885714 50.568944 
L 52.163265 49.412952 
L 54.440816 48.101842 
L 56.718367 46.600537 
L 58.995918 45.541092 
L 61.273469 44.177344 
L 63.55102 43.038034 
L 65.828571 41.93907 
L 68.106122 41.454945 
L 70.383673 40.814225 
L 72.661224 40.53973 
L 74.938776 41.781502 
L 77.216327 41.459043 
L 79.493878 42.172261 
L 81.771429 43.074446 
L 84.04898 44.485216 
L 86.326531 45.655063 
L 88.604082 46.976945 
L 90.881633 48.270049 
L 93.159184 49.707092 
L 95.436735 50.784369 
L 97.714286 51.803861 
L 99.991837 52.786438 
L 102.269388 53.61905 
L 104.546939 54.209313 
L 106.82449 54.642584 
L 109.102041 54.968405 
L 111.379592 55.117508 
L 113.657143 55.201622 
L 115.934694 55.216348 
L 118.212245 55.196807 
L 120.489796 55.18615 
L 122.767347 55.186004 
L 125.044898 55.186004 
L 127.322449 55.186004 
L 129.6 55.186004 
" style="fill:none;stroke:#fc8d62;stroke-dasharray:1.5,1.5;stroke-dashoffset:0;stroke-opacity:0.7;stroke-width:1.5;"/>
   </g>
   <g id="patch_3">
    <path d="M 74.938776 67.68 
L 74.938776 17.28 
" style="fill:none;stroke:#a9a9a9;stroke-linecap:square;stroke-linejoin:miter;stroke-width:2;"/>
   </g>
   <g id="patch_4">
    <path d="M 129.6 67.68 
L 129.6 17.28 
" style="fill:none;"/>
   </g>
   <g id="patch_5">
    <path d="M 18 55.186004 
L 129.6 55.186004 
" style="fill:none;stroke:#a9a9a9;stroke-linecap:square;stroke-linejoin:miter;stroke-width:2;"/>
   </g>
   <g id="patch_6">
    <path d="M 18 17.28 
L 129.6 17.28 
" style="fill:none;"/>
   </g>
   <g id="legend_1">
    <g id="line2d_8">
     <path d="M 101.475312 26.448906 
L 115.475312 26.448906 
" style="fill:none;stroke:#fc8d62;stroke-linecap:square;stroke-width:2;"/>
    </g>
    <g id="line2d_9"/>
    <g id="text_1">
     <!--   -->
     <g transform="translate(121.075312 28.898906)scale(0.07 -0.07)">
      <defs>
       <path id="DejaVuSans-32"/>
      </defs>
      <use xlink:href="#DejaVuSans-32"/>
     </g>
    </g>
    <g id="line2d_10">
     <path d="M 101.475312 36.723594 
L 115.475312 36.723594 
" style="fill:none;stroke:#fc8d62;stroke-dasharray:1.5,1.5;stroke-dashoffset:0;stroke-opacity:0.7;stroke-width:1.5;"/>
    </g>
    <g id="line2d_11"/>
    <g id="text_2">
     <!--   -->
     <g transform="translate(121.075312 39.173594)scale(0.07 -0.07)">
      <use xlink:href="#DejaVuSans-32"/>
     </g>
    </g>
   </g>
  </g>
  <g id="axes_2">
   <g id="patch_7">
    <path d="M 18 128.16 
L 129.6 128.16 
L 129.6 77.76 
L 18 77.76 
z
" style="fill:none;"/>
   </g>
   <g id="PolyCollection_3">
    <path clip-path="url(#p99429fa7bf)" d="M 18 120.619947 
L 18 120.541432 
L 20.277551 120.747781 
L 22.555102 120.817273 
L 24.832653 120.754234 
L 27.110204 120.600993 
L 29.387755 120.427322 
L 31.665306 120.2752 
L 33.942857 120.005673 
L 36.220408 119.459432 
L 38.497959 118.510383 
L 40.77551 117.067546 
L 43.053061 115.079458 
L 45.330612 112.537309 
L 47.608163 109.472257 
L 49.885714 105.9518 
L 52.163265 102.076067 
L 54.440816 97.974352 
L 56.718367 93.800901 
L 58.995918 89.73025 
L 61.273469 85.951797 
L 63.55102 82.664229 
L 65.828571 80.070004 
L 68.106122 78.370188 
L 70.383673 77.76 
L 72.661224 78.425201 
L 74.938776 80.532457 
L 77.216327 84.160745 
L 79.493878 88.934008 
L 81.771429 94.418448 
L 84.04898 100.208436 
L 86.326531 105.947267 
L 88.604082 111.336528 
L 90.881633 116.141432 
L 93.159184 120.192932 
L 95.436735 123.387507 
L 97.714286 125.685611 
L 99.991837 127.107708 
L 102.269388 127.723692 
L 104.546939 127.64041 
L 106.82449 126.990652 
L 109.102041 125.924418 
L 111.379592 124.601004 
L 113.657143 123.182029 
L 115.934694 121.825868 
L 118.212245 120.685164 
L 120.489796 119.90978 
L 122.767347 119.599371 
L 125.044898 119.64738 
L 127.322449 119.903332 
L 129.6 120.235917 
L 129.6 120.340039 
L 129.6 120.340039 
L 127.322449 120.031911 
L 125.044898 119.794382 
L 122.767347 119.756659 
L 120.489796 120.072037 
L 118.212245 120.858226 
L 115.934694 122.029596 
L 113.657143 123.434182 
L 111.379592 124.907961 
L 109.102041 126.281937 
L 106.82449 127.387607 
L 104.546939 128.062936 
L 102.269388 128.16 
L 99.991837 127.55395 
L 97.714286 126.152402 
L 95.436735 123.902541 
L 93.159184 120.7955 
L 90.881633 116.87051 
L 88.604082 112.222868 
L 86.326531 107.010443 
L 84.04898 101.456399 
L 81.771429 95.847991 
L 79.493878 90.531293 
L 77.216327 85.901819 
L 74.938776 82.384016 
L 72.661224 80.345928 
L 70.383673 79.705993 
L 68.106122 80.29719 
L 65.828571 81.935423 
L 63.55102 84.428988 
L 61.273469 87.582046 
L 58.995918 91.198881 
L 56.718367 95.088706 
L 54.440816 99.070846 
L 52.163265 102.979991 
L 49.885714 106.671002 
L 47.608163 110.023311 
L 45.330612 112.944541 
L 43.053061 115.373878 
L 40.77551 117.284058 
L 38.497959 118.681992 
L 36.220408 119.608603 
L 33.942857 120.142388 
L 31.665306 120.401784 
L 29.387755 120.542096 
L 27.110204 120.698688 
L 24.832653 120.831598 
L 22.555102 120.878228 
L 20.277551 120.808268 
L 18 120.619947 
z
" style="fill:#66c2a5;fill-opacity:0.2;"/>
   </g>
   <g id="matplotlib.axis_3">
    <g id="xtick_6">
     <g id="line2d_12">
      <g>
       <use style="fill:#a9a9a9;stroke:#a9a9a9;stroke-width:2;" x="29.387755" xlink:href="#macb4b4148c" y="122.31139"/>
      </g>
     </g>
    </g>
    <g id="xtick_7">
     <g id="line2d_13">
      <g>
       <use style="fill:#a9a9a9;stroke:#a9a9a9;stroke-width:2;" x="52.163265" xlink:href="#macb4b4148c" y="122.31139"/>
      </g>
     </g>
    </g>
    <g id="xtick_8">
     <g id="line2d_14">
      <g>
       <use style="fill:#a9a9a9;stroke:#a9a9a9;stroke-width:2;" x="74.938776" xlink:href="#macb4b4148c" y="122.31139"/>
      </g>
     </g>
    </g>
    <g id="xtick_9">
     <g id="line2d_15">
      <g>
       <use style="fill:#a9a9a9;stroke:#a9a9a9;stroke-width:2;" x="97.714286" xlink:href="#macb4b4148c" y="122.31139"/>
      </g>
     </g>
    </g>
    <g id="xtick_10">
     <g id="line2d_16">
      <g>
       <use style="fill:#a9a9a9;stroke:#a9a9a9;stroke-width:2;" x="120.489796" xlink:href="#macb4b4148c" y="122.31139"/>
      </g>
     </g>
    </g>
   </g>
   <g id="matplotlib.axis_4"/>
   <g id="line2d_17">
    <path clip-path="url(#p99429fa7bf)" d="M 18 120.580689 
L 20.277551 120.778024 
L 22.555102 120.84775 
L 24.832653 120.792916 
L 27.110204 120.649841 
L 29.387755 120.484709 
L 31.665306 120.338492 
L 33.942857 120.074031 
L 36.220408 119.534017 
L 38.497959 118.596188 
L 40.77551 117.175802 
L 43.053061 115.226668 
L 45.330612 112.740925 
L 47.608163 109.747784 
L 49.885714 106.311401 
L 52.163265 102.528029 
L 54.440816 98.522599 
L 56.718367 94.444804 
L 58.995918 90.464566 
L 61.273469 86.766921 
L 63.55102 83.546608 
L 65.828571 81.002714 
L 68.106122 79.333689 
L 70.383673 78.732996 
L 72.661224 79.385564 
L 74.938776 81.458236 
L 77.216327 85.031282 
L 79.493878 89.732651 
L 81.771429 95.133219 
L 84.04898 100.832417 
L 86.326531 106.478855 
L 88.604082 111.779698 
L 90.881633 116.505971 
L 93.159184 120.494216 
L 95.436735 123.645024 
L 97.714286 125.919006 
L 99.991837 127.330829 
L 102.269388 127.941846 
L 104.546939 127.851673 
L 106.82449 127.189129 
L 109.102041 126.103177 
L 111.379592 124.754483 
L 113.657143 123.308106 
L 115.934694 121.927732 
L 118.212245 120.771695 
L 120.489796 119.990909 
L 122.767347 119.678015 
L 125.044898 119.720881 
L 127.322449 119.967622 
L 129.6 120.287978 
" style="fill:none;stroke:#66c2a5;stroke-linecap:square;stroke-width:2;"/>
   </g>
   <g id="patch_8">
    <path d="M 74.938776 128.16 
L 74.938776 77.76 
" style="fill:none;stroke:#a9a9a9;stroke-linecap:square;stroke-linejoin:miter;stroke-width:2;"/>
   </g>
   <g id="patch_9">
    <path d="M 129.6 128.16 
L 129.6 77.76 
" style="fill:none;"/>
   </g>
   <g id="patch_10">
    <path d="M 18 122.31139 
L 129.6 122.31139 
" style="fill:none;stroke:#a9a9a9;stroke-linecap:square;stroke-linejoin:miter;stroke-width:2;"/>
   </g>
   <g id="patch_11">
    <path d="M 18 77.76 
L 129.6 77.76 
" style="fill:none;"/>
   </g>
   <g id="legend_2">
    <g id="line2d_18">
     <path d="M 101.475312 86.928906 
L 115.475312 86.928906 
" style="fill:none;stroke:#66c2a5;stroke-linecap:square;stroke-width:2;"/>
    </g>
    <g id="line2d_19"/>
    <g id="text_3">
     <!--   -->
     <g transform="translate(121.075312 89.378906)scale(0.07 -0.07)">
      <use xlink:href="#DejaVuSans-32"/>
     </g>
    </g>
   </g>
  </g>
 </g>
 <defs>
  <clipPath id="pa94ccb4293">
   <rect height="50.4" width="111.6" x="18" y="17.28"/>
  </clipPath>
  <clipPath id="p99429fa7bf">
   <rect height="50.4" width="111.6" x="18" y="77.76"/>
  </clipPath>
 </defs>
</svg>
