<?xml version="1.0" encoding="utf-8" standalone="no"?>
<!DOCTYPE svg PUBLIC "-//W3C//DTD SVG 1.1//EN"
  "http://www.w3.org/Graphics/SVG/1.1/DTD/svg11.dtd">
<!-- Created with matplotlib (https://matplotlib.org/) -->
<svg height="144pt" version="1.1" viewBox="0 0 144 144" width="144pt" xmlns="http://www.w3.org/2000/svg" xmlns:xlink="http://www.w3.org/1999/xlink">
 <metadata>
  <rdf:RDF xmlns:cc="http://creativecommons.org/ns#" xmlns:dc="http://purl.org/dc/elements/1.1/" xmlns:rdf="http://www.w3.org/1999/02/22-rdf-syntax-ns#">
   <cc:Work>
    <dc:type rdf:resource="http://purl.org/dc/dcmitype/StillImage"/>
    <dc:date>2021-10-13T16:16:48.089295</dc:date>
    <dc:format>image/svg+xml</dc:format>
    <dc:creator>
     <cc:Agent>
      <dc:title>Matplotlib v3.3.2, https://matplotlib.org/</dc:title>
     </cc:Agent>
    </dc:creator>
   </cc:Work>
  </rdf:RDF>
 </metadata>
 <defs>
  <style type="text/css">*{stroke-linecap:butt;stroke-linejoin:round;}</style>
 </defs>
 <g id="figure_1">
  <g id="patch_1">
   <path d="M 0 144 
L 144 144 
L 144 0 
L 0 0 
z
" style="fill:none;"/>
  </g>
  <g id="axes_1">
   <g id="patch_2">
    <path d="M 18 67.68 
L 129.6 67.68 
L 129.6 17.28 
L 18 17.28 
z
" style="fill:none;"/>
   </g>
   <g id="PolyCollection_1">
    <path clip-path="url(#pd9937e7c55)" d="M 18 67.679964 
L 18 67.679964 
L 20.277551 67.679964 
L 22.555102 67.679964 
L 24.832653 67.679964 
L 27.110204 67.679964 
L 29.387755 67.679909 
L 31.665306 67.636842 
L 33.942857 67.427652 
L 36.220408 66.912139 
L 38.497959 65.967389 
L 40.77551 64.479558 
L 43.053061 62.368309 
L 45.330612 59.613185 
L 47.608163 56.270177 
L 49.885714 52.335236 
L 52.163265 48.003297 
L 54.440816 43.238789 
L 56.718367 38.499584 
L 58.995918 33.600544 
L 61.273469 29.188961 
L 63.55102 25.009123 
L 65.828571 21.755638 
L 68.106122 19.108177 
L 70.383673 17.570679 
L 72.661224 17.28 
L 74.938776 31.893808 
L 77.216327 20.780472 
L 79.493878 24.147598 
L 81.771429 28.147257 
L 84.04898 32.584263 
L 86.326531 37.098187 
L 88.604082 41.519728 
L 90.881633 45.866529 
L 93.159184 49.638602 
L 95.436735 53.207511 
L 97.714286 56.389155 
L 99.991837 59.025335 
L 102.269388 61.23547 
L 104.546939 63.16905 
L 106.82449 64.631092 
L 109.102041 65.76222 
L 111.379592 66.611133 
L 113.657143 67.205132 
L 115.934694 67.50994 
L 118.212245 67.654871 
L 120.489796 67.679946 
L 122.767347 67.679964 
L 125.044898 67.679964 
L 127.322449 67.679964 
L 129.6 67.679964 
L 129.6 67.679964 
L 129.6 67.679964 
L 127.322449 67.679964 
L 125.044898 67.679964 
L 122.767347 67.679964 
L 120.489796 67.68 
L 118.212245 67.675578 
L 115.934694 67.56708 
L 113.657143 67.277933 
L 111.379592 66.774285 
L 109.102041 65.972729 
L 106.82449 64.920799 
L 104.546939 63.457699 
L 102.269388 61.711206 
L 99.991837 59.523007 
L 97.714286 56.903284 
L 95.436735 53.94344 
L 93.159184 50.385977 
L 90.881633 46.590663 
L 88.604082 42.511302 
L 86.326531 38.117138 
L 84.04898 33.647304 
L 81.771429 29.29942 
L 79.493878 25.260804 
L 77.216327 22.069652 
L 74.938776 32.93946 
L 72.661224 18.686013 
L 70.383673 18.944852 
L 68.106122 20.297264 
L 65.828571 22.817569 
L 63.55102 26.192237 
L 61.273469 30.198743 
L 58.995918 34.7348 
L 56.718367 39.432091 
L 54.440816 44.215298 
L 52.163265 48.664273 
L 49.885714 53.020631 
L 47.608163 56.863434 
L 45.330612 60.073652 
L 43.053061 62.66899 
L 40.77551 64.732184 
L 38.497959 66.137928 
L 36.220408 67.02111 
L 33.942857 67.489183 
L 31.665306 67.65946 
L 29.387755 67.679999 
L 27.110204 67.679964 
L 24.832653 67.679964 
L 22.555102 67.679964 
L 20.277551 67.679964 
L 18 67.679964 
z
" style="fill:#fc8d62;fill-opacity:0.2;"/>
   </g>
   <g id="PolyCollection_2">
    <path clip-path="url(#pd9937e7c55)" d="M 18 67.679964 
L 18 67.679964 
L 20.277551 67.679964 
L 22.555102 67.679964 
L 24.832653 67.679964 
L 27.110204 67.679964 
L 29.387755 67.679912 
L 31.665306 67.633374 
L 33.942857 67.400176 
L 36.220408 66.870707 
L 38.497959 65.946998 
L 40.77551 64.500844 
L 43.053061 62.642738 
L 45.330612 60.246194 
L 47.608163 57.182953 
L 49.885714 53.838753 
L 52.163265 50.099079 
L 54.440816 46.030293 
L 56.718367 41.758517 
L 58.995918 37.436297 
L 61.273469 33.125275 
L 63.55102 29.021458 
L 65.828571 25.260476 
L 68.106122 21.979386 
L 70.383673 19.70414 
L 72.661224 17.934524 
L 74.938776 29.417498 
L 77.216327 18.156241 
L 79.493878 19.697576 
L 81.771429 22.506651 
L 84.04898 25.612276 
L 86.326531 29.48495 
L 88.604082 33.664998 
L 90.881633 38.001266 
L 93.159184 42.369448 
L 95.436735 46.620446 
L 97.714286 50.600904 
L 99.991837 54.389776 
L 102.269388 57.63993 
L 104.546939 60.487804 
L 106.82449 62.871007 
L 109.102041 64.779411 
L 111.379592 66.079191 
L 113.657143 66.980225 
L 115.934694 67.442276 
L 118.212245 67.643533 
L 120.489796 67.679949 
L 122.767347 67.679964 
L 125.044898 67.679964 
L 127.322449 67.679964 
L 129.6 67.679964 
L 129.6 67.679964 
L 129.6 67.679964 
L 127.322449 67.679964 
L 125.044898 67.679964 
L 122.767347 67.679964 
L 120.489796 67.680001 
L 118.212245 67.668717 
L 115.934694 67.504794 
L 113.657143 67.099055 
L 111.379592 66.25797 
L 109.102041 65.010657 
L 106.82449 63.204509 
L 104.546939 60.922264 
L 102.269388 58.131707 
L 99.991837 54.93229 
L 97.714286 51.233593 
L 95.436735 47.20579 
L 93.159184 43.079606 
L 90.881633 38.823202 
L 88.604082 34.571193 
L 86.326531 30.513307 
L 84.04898 26.853791 
L 81.771429 23.678755 
L 79.493878 20.99527 
L 77.216327 19.305425 
L 74.938776 30.476003 
L 72.661224 19.19524 
L 70.383673 20.787732 
L 68.106122 23.081874 
L 65.828571 26.445736 
L 63.55102 30.07878 
L 61.273469 34.057653 
L 58.995918 38.278675 
L 56.718367 42.553767 
L 54.440816 46.793032 
L 52.163265 50.727533 
L 49.885714 54.40459 
L 47.608163 57.727026 
L 45.330612 60.588223 
L 43.053061 62.937468 
L 40.77551 64.764125 
L 38.497959 66.157649 
L 36.220408 67.003837 
L 33.942857 67.474564 
L 31.665306 67.659078 
L 29.387755 67.679995 
L 27.110204 67.679964 
L 24.832653 67.679964 
L 22.555102 67.679964 
L 20.277551 67.679964 
L 18 67.679964 
z
" style="fill:#fc8d62;fill-opacity:0.2;"/>
   </g>
   <g id="matplotlib.axis_1">
    <g id="xtick_1">
     <g id="line2d_1">
      <defs>
       <path d="M 0 0 
L 0 3.5 
" id="mb3e1915a28" style="stroke:#a9a9a9;stroke-width:2;"/>
      </defs>
      <g>
       <use style="fill:#a9a9a9;stroke:#a9a9a9;stroke-width:2;" x="29.387755" xlink:href="#mb3e1915a28" y="67.679964"/>
      </g>
     </g>
    </g>
    <g id="xtick_2">
     <g id="line2d_2">
      <g>
       <use style="fill:#a9a9a9;stroke:#a9a9a9;stroke-width:2;" x="52.163265" xlink:href="#mb3e1915a28" y="67.679964"/>
      </g>
     </g>
    </g>
    <g id="xtick_3">
     <g id="line2d_3">
      <g>
       <use style="fill:#a9a9a9;stroke:#a9a9a9;stroke-width:2;" x="74.938776" xlink:href="#mb3e1915a28" y="67.679964"/>
      </g>
     </g>
    </g>
    <g id="xtick_4">
     <g id="line2d_4">
      <g>
       <use style="fill:#a9a9a9;stroke:#a9a9a9;stroke-width:2;" x="97.714286" xlink:href="#mb3e1915a28" y="67.679964"/>
      </g>
     </g>
    </g>
    <g id="xtick_5">
     <g id="line2d_5">
      <g>
       <use style="fill:#a9a9a9;stroke:#a9a9a9;stroke-width:2;" x="120.489796" xlink:href="#mb3e1915a28" y="67.679964"/>
      </g>
     </g>
    </g>
   </g>
   <g id="matplotlib.axis_2"/>
   <g id="line2d_6">
    <path clip-path="url(#pd9937e7c55)" d="M 18 67.679964 
L 20.277551 67.679964 
L 22.555102 67.679964 
L 24.832653 67.679964 
L 27.110204 67.679964 
L 29.387755 67.679954 
L 31.665306 67.648151 
L 33.942857 67.458417 
L 36.220408 66.966625 
L 38.497959 66.052658 
L 40.77551 64.605871 
L 43.053061 62.518649 
L 45.330612 59.843418 
L 47.608163 56.566805 
L 49.885714 52.677933 
L 52.163265 48.333785 
L 54.440816 43.727044 
L 56.718367 38.965838 
L 58.995918 34.167672 
L 61.273469 29.693852 
L 63.55102 25.60068 
L 65.828571 22.286604 
L 68.106122 19.70272 
L 70.383673 18.257766 
L 72.661224 17.983007 
L 74.938776 32.416634 
L 77.216327 21.425062 
L 79.493878 24.704201 
L 81.771429 28.723339 
L 84.04898 33.115784 
L 86.326531 37.607662 
L 88.604082 42.015515 
L 90.881633 46.228596 
L 93.159184 50.01229 
L 95.436735 53.575476 
L 97.714286 56.646219 
L 99.991837 59.274171 
L 102.269388 61.473338 
L 104.546939 63.313375 
L 106.82449 64.775945 
L 109.102041 65.867475 
L 111.379592 66.692709 
L 113.657143 67.241532 
L 115.934694 67.53851 
L 118.212245 67.665224 
L 120.489796 67.679973 
L 122.767347 67.679964 
L 125.044898 67.679964 
L 127.322449 67.679964 
L 129.6 67.679964 
" style="fill:none;stroke:#fc8d62;stroke-linecap:square;stroke-width:2;"/>
   </g>
   <g id="line2d_7">
    <path clip-path="url(#pd9937e7c55)" d="M 18 67.679964 
L 20.277551 67.679964 
L 22.555102 67.679964 
L 24.832653 67.679964 
L 27.110204 67.679964 
L 29.387755 67.679954 
L 31.665306 67.646226 
L 33.942857 67.43737 
L 36.220408 66.937272 
L 38.497959 66.052324 
L 40.77551 64.632484 
L 43.053061 62.790103 
L 45.330612 60.417209 
L 47.608163 57.45499 
L 49.885714 54.121672 
L 52.163265 50.413306 
L 54.440816 46.411663 
L 56.718367 42.156142 
L 58.995918 37.857486 
L 61.273469 33.591464 
L 63.55102 29.550119 
L 65.828571 25.853106 
L 68.106122 22.53063 
L 70.383673 20.245936 
L 72.661224 18.564882 
L 74.938776 29.946751 
L 77.216327 18.730833 
L 79.493878 20.346423 
L 81.771429 23.092703 
L 84.04898 26.233033 
L 86.326531 29.999129 
L 88.604082 34.118095 
L 90.881633 38.412234 
L 93.159184 42.724527 
L 95.436735 46.913118 
L 97.714286 50.917248 
L 99.991837 54.661033 
L 102.269388 57.885818 
L 104.546939 60.705034 
L 106.82449 63.037758 
L 109.102041 64.895034 
L 111.379592 66.16858 
L 113.657143 67.03964 
L 115.934694 67.473535 
L 118.212245 67.656125 
L 120.489796 67.679975 
L 122.767347 67.679964 
L 125.044898 67.679964 
L 127.322449 67.679964 
L 129.6 67.679964 
" style="fill:none;stroke:#fc8d62;stroke-dasharray:1.5,1.5;stroke-dashoffset:0;stroke-opacity:0.7;stroke-width:1.5;"/>
   </g>
   <g id="patch_3">
    <path d="M 74.938776 67.68 
L 74.938776 17.28 
" style="fill:none;stroke:#a9a9a9;stroke-linecap:square;stroke-linejoin:miter;stroke-width:2;"/>
   </g>
   <g id="patch_4">
    <path d="M 129.6 67.68 
L 129.6 17.28 
" style="fill:none;"/>
   </g>
   <g id="patch_5">
    <path d="M 18 67.679964 
L 129.6 67.679964 
" style="fill:none;stroke:#a9a9a9;stroke-linecap:square;stroke-linejoin:miter;stroke-width:2;"/>
   </g>
   <g id="patch_6">
    <path d="M 18 17.28 
L 129.6 17.28 
" style="fill:none;"/>
   </g>
   <g id="legend_1">
    <g id="line2d_8">
     <path d="M 87.67 26.448906 
L 101.67 26.448906 
" style="fill:none;stroke:#fc8d62;stroke-linecap:square;stroke-width:2;"/>
    </g>
    <g id="line2d_9"/>
    <g id="text_1">
     <!-- $\theta$ -->
     <g transform="translate(107.27 28.898906)scale(0.07 -0.07)">
      <defs>
       <path d="M 45.515625 34.671875 
L 14.453125 34.671875 
Q 12.359375 20.0625 14.5 13.875 
Q 17.1875 6.25 24.46875 6.25 
Q 31.78125 6.25 37.359375 13.921875 
Q 42.234375 20.65625 45.515625 34.671875 
z
M 47.015625 42.96875 
Q 48.34375 56.84375 46.625 61.71875 
Q 43.953125 69.4375 36.765625 69.4375 
Q 29.296875 69.4375 23.828125 61.8125 
Q 19.53125 55.671875 16.15625 42.96875 
z
M 38.1875 76.765625 
Q 49.90625 76.765625 54.59375 66.40625 
Q 59.28125 56.109375 55.71875 37.84375 
Q 52.203125 19.625 43.453125 9.28125 
Q 34.765625 -1.125 23.046875 -1.125 
Q 11.28125 -1.125 6.640625 9.28125 
Q 2 19.625 5.515625 37.84375 
Q 9.078125 56.109375 17.71875 66.40625 
Q 26.421875 76.765625 38.1875 76.765625 
z
" id="DejaVuSans-Oblique-952"/>
      </defs>
      <use transform="translate(0 0.234375)" xlink:href="#DejaVuSans-Oblique-952"/>
     </g>
    </g>
    <g id="line2d_10">
     <path d="M 87.67 36.723594 
L 101.67 36.723594 
" style="fill:none;stroke:#fc8d62;stroke-dasharray:1.5,1.5;stroke-dashoffset:0;stroke-opacity:0.7;stroke-width:1.5;"/>
    </g>
    <g id="line2d_11"/>
    <g id="text_2">
     <!-- No $\theta$ -->
     <g transform="translate(107.27 39.173594)scale(0.07 -0.07)">
      <defs>
       <path d="M 9.8125 72.90625 
L 23.09375 72.90625 
L 55.421875 11.921875 
L 55.421875 72.90625 
L 64.984375 72.90625 
L 64.984375 0 
L 51.703125 0 
L 19.390625 60.984375 
L 19.390625 0 
L 9.8125 0 
z
" id="DejaVuSans-78"/>
       <path d="M 30.609375 48.390625 
Q 23.390625 48.390625 19.1875 42.75 
Q 14.984375 37.109375 14.984375 27.296875 
Q 14.984375 17.484375 19.15625 11.84375 
Q 23.34375 6.203125 30.609375 6.203125 
Q 37.796875 6.203125 41.984375 11.859375 
Q 46.1875 17.53125 46.1875 27.296875 
Q 46.1875 37.015625 41.984375 42.703125 
Q 37.796875 48.390625 30.609375 48.390625 
z
M 30.609375 56 
Q 42.328125 56 49.015625 48.375 
Q 55.71875 40.765625 55.71875 27.296875 
Q 55.71875 13.875 49.015625 6.21875 
Q 42.328125 -1.421875 30.609375 -1.421875 
Q 18.84375 -1.421875 12.171875 6.21875 
Q 5.515625 13.875 5.515625 27.296875 
Q 5.515625 40.765625 12.171875 48.375 
Q 18.84375 56 30.609375 56 
z
" id="DejaVuSans-111"/>
       <path id="DejaVuSans-32"/>
      </defs>
      <use transform="translate(0 0.234375)" xlink:href="#DejaVuSans-78"/>
      <use transform="translate(74.804688 0.234375)" xlink:href="#DejaVuSans-111"/>
      <use transform="translate(135.986328 0.234375)" xlink:href="#DejaVuSans-32"/>
      <use transform="translate(167.773438 0.234375)" xlink:href="#DejaVuSans-Oblique-952"/>
     </g>
    </g>
   </g>
  </g>
  <g id="axes_2">
   <g id="patch_7">
    <path d="M 18 128.16 
L 129.6 128.16 
L 129.6 77.76 
L 18 77.76 
z
" style="fill:none;"/>
   </g>
   <g id="PolyCollection_3">
    <path clip-path="url(#pac74ec6847)" d="M 18 120.501497 
L 18 120.421632 
L 20.277551 120.639378 
L 22.555102 120.702257 
L 24.832653 120.6181 
L 27.110204 120.435312 
L 29.387755 120.232643 
L 31.665306 120.060157 
L 33.942857 119.776513 
L 36.220408 119.219209 
L 38.497959 118.260617 
L 40.77551 116.809697 
L 43.053061 114.815576 
L 45.330612 112.270241 
L 47.608163 109.205334 
L 49.885714 105.688947 
L 52.163265 101.821721 
L 54.440816 97.733258 
L 56.718367 93.57794 
L 58.995918 89.530308 
L 61.273469 85.779766 
L 63.55102 82.525195 
L 65.828571 79.969615 
L 68.106122 78.315369 
L 70.383673 77.76 
L 72.661224 78.493009 
L 74.938776 80.683185 
L 77.216327 84.422306 
L 79.493878 89.307158 
L 81.771429 94.88953 
L 84.04898 100.750808 
L 86.326531 106.526296 
L 88.604082 111.914328 
L 90.881633 116.681073 
L 93.159184 120.661639 
L 95.436735 123.759152 
L 97.714286 125.942187 
L 99.991837 127.239719 
L 102.269388 127.730126 
L 104.546939 127.527972 
L 106.82449 126.772592 
L 109.102041 125.619123 
L 111.379592 124.230456 
L 113.657143 122.770401 
L 115.934694 121.398328 
L 118.212245 120.266976 
L 120.489796 119.525757 
L 122.767347 119.271311 
L 125.044898 119.384632 
L 127.322449 119.702671 
L 129.6 120.084795 
L 129.6 120.188778 
L 129.6 120.188778 
L 127.322449 119.829634 
L 125.044898 119.528916 
L 122.767347 119.425323 
L 120.489796 119.684777 
L 118.212245 120.437623 
L 115.934694 121.60003 
L 113.657143 123.020141 
L 111.379592 124.534077 
L 109.102041 125.972255 
L 106.82449 127.164276 
L 104.546939 127.944571 
L 102.269388 128.16 
L 99.991837 127.678897 
L 97.714286 126.400822 
L 95.436735 124.264193 
L 93.159184 121.251164 
L 90.881633 117.39285 
L 88.604082 112.777978 
L 86.326531 107.560255 
L 84.04898 101.962244 
L 81.771429 96.274781 
L 79.493878 90.852378 
L 77.216327 86.104113 
L 74.938776 82.469479 
L 72.661224 80.344645 
L 70.383673 79.6349 
L 68.106122 80.171039 
L 65.828571 81.765073 
L 63.55102 84.222774 
L 61.273469 87.346798 
L 58.995918 90.9406 
L 56.718367 94.813017 
L 54.440816 98.783181 
L 52.163265 102.685583 
L 49.885714 106.374762 
L 47.608163 109.729551 
L 45.330612 112.656664 
L 43.053061 115.094086 
L 40.77551 117.013198 
L 38.497959 118.420316 
L 36.220408 119.356601 
L 33.942857 119.90184 
L 31.665306 120.176559 
L 29.387755 120.339221 
L 27.110204 120.527018 
L 24.832653 120.692086 
L 22.555102 120.762936 
L 20.277551 120.701657 
L 18 120.501497 
z
" style="fill:#66c2a5;fill-opacity:0.2;"/>
   </g>
   <g id="matplotlib.axis_3">
    <g id="xtick_6">
     <g id="line2d_12">
      <g>
       <use style="fill:#a9a9a9;stroke:#a9a9a9;stroke-width:2;" x="29.387755" xlink:href="#mb3e1915a28" y="122.156965"/>
      </g>
     </g>
    </g>
    <g id="xtick_7">
     <g id="line2d_13">
      <g>
       <use style="fill:#a9a9a9;stroke:#a9a9a9;stroke-width:2;" x="52.163265" xlink:href="#mb3e1915a28" y="122.156965"/>
      </g>
     </g>
    </g>
    <g id="xtick_8">
     <g id="line2d_14">
      <g>
       <use style="fill:#a9a9a9;stroke:#a9a9a9;stroke-width:2;" x="74.938776" xlink:href="#mb3e1915a28" y="122.156965"/>
      </g>
     </g>
    </g>
    <g id="xtick_9">
     <g id="line2d_15">
      <g>
       <use style="fill:#a9a9a9;stroke:#a9a9a9;stroke-width:2;" x="97.714286" xlink:href="#mb3e1915a28" y="122.156965"/>
      </g>
     </g>
    </g>
    <g id="xtick_10">
     <g id="line2d_16">
      <g>
       <use style="fill:#a9a9a9;stroke:#a9a9a9;stroke-width:2;" x="120.489796" xlink:href="#mb3e1915a28" y="122.156965"/>
      </g>
     </g>
    </g>
   </g>
   <g id="matplotlib.axis_4"/>
   <g id="line2d_17">
    <path clip-path="url(#pac74ec6847)" d="M 18 120.461564 
L 20.277551 120.670518 
L 22.555102 120.732597 
L 24.832653 120.655093 
L 27.110204 120.481165 
L 29.387755 120.285932 
L 31.665306 120.118358 
L 33.942857 119.839176 
L 36.220408 119.287905 
L 38.497959 118.340466 
L 40.77551 116.911448 
L 43.053061 114.954831 
L 45.330612 112.463452 
L 47.608163 109.467442 
L 49.885714 106.031855 
L 52.163265 102.253652 
L 54.440816 98.258219 
L 56.718367 94.195479 
L 58.995918 90.235454 
L 61.273469 86.563282 
L 63.55102 83.373984 
L 65.828571 80.867344 
L 68.106122 79.243204 
L 70.383673 78.69745 
L 72.661224 79.418827 
L 74.938776 81.576332 
L 77.216327 85.26321 
L 79.493878 90.079768 
L 81.771429 95.582156 
L 84.04898 101.356526 
L 86.326531 107.043275 
L 88.604082 112.346153 
L 90.881633 117.036961 
L 93.159184 120.956401 
L 95.436735 124.011672 
L 97.714286 126.171504 
L 99.991837 127.459308 
L 102.269388 127.945063 
L 104.546939 127.736272 
L 106.82449 126.968434 
L 109.102041 125.795689 
L 111.379592 124.382267 
L 113.657143 122.895271 
L 115.934694 121.499179 
L 118.212245 120.352299 
L 120.489796 119.605267 
L 122.767347 119.348317 
L 125.044898 119.456774 
L 127.322449 119.766153 
L 129.6 120.136786 
" style="fill:none;stroke:#66c2a5;stroke-linecap:square;stroke-width:2;"/>
   </g>
   <g id="patch_8">
    <path d="M 74.938776 128.16 
L 74.938776 77.76 
" style="fill:none;stroke:#a9a9a9;stroke-linecap:square;stroke-linejoin:miter;stroke-width:2;"/>
   </g>
   <g id="patch_9">
    <path d="M 129.6 128.16 
L 129.6 77.76 
" style="fill:none;"/>
   </g>
   <g id="patch_10">
    <path d="M 18 122.156965 
L 129.6 122.156965 
" style="fill:none;stroke:#a9a9a9;stroke-linecap:square;stroke-linejoin:miter;stroke-width:2;"/>
   </g>
   <g id="patch_11">
    <path d="M 18 77.76 
L 129.6 77.76 
" style="fill:none;"/>
   </g>
  </g>
 </g>
 <defs>
  <clipPath id="pd9937e7c55">
   <rect height="50.4" width="111.6" x="18" y="17.28"/>
  </clipPath>
  <clipPath id="pac74ec6847">
   <rect height="50.4" width="111.6" x="18" y="77.76"/>
  </clipPath>
 </defs>
</svg>
