<?xml version="1.0" encoding="utf-8" standalone="no"?>
<!DOCTYPE svg PUBLIC "-//W3C//DTD SVG 1.1//EN"
  "http://www.w3.org/Graphics/SVG/1.1/DTD/svg11.dtd">
<!-- Created with matplotlib (https://matplotlib.org/) -->
<svg height="144pt" version="1.1" viewBox="0 0 144 144" width="144pt" xmlns="http://www.w3.org/2000/svg" xmlns:xlink="http://www.w3.org/1999/xlink">
 <metadata>
  <rdf:RDF xmlns:cc="http://creativecommons.org/ns#" xmlns:dc="http://purl.org/dc/elements/1.1/" xmlns:rdf="http://www.w3.org/1999/02/22-rdf-syntax-ns#">
   <cc:Work>
    <dc:type rdf:resource="http://purl.org/dc/dcmitype/StillImage"/>
    <dc:date>2021-10-13T00:26:42.768339</dc:date>
    <dc:format>image/svg+xml</dc:format>
    <dc:creator>
     <cc:Agent>
      <dc:title>Matplotlib v3.3.2, https://matplotlib.org/</dc:title>
     </cc:Agent>
    </dc:creator>
   </cc:Work>
  </rdf:RDF>
 </metadata>
 <defs>
  <style type="text/css">*{stroke-linecap:butt;stroke-linejoin:round;}</style>
 </defs>
 <g id="figure_1">
  <g id="patch_1">
   <path d="M 0 144 
L 144 144 
L 144 0 
L 0 0 
z
" style="fill:none;"/>
  </g>
  <g id="axes_1">
   <g id="patch_2">
    <path d="M 18 67.68 
L 129.6 67.68 
L 129.6 17.28 
L 18 17.28 
z
" style="fill:none;"/>
   </g>
   <g id="PolyCollection_1">
    <path clip-path="url(#p08350e7e1c)" d="M 18 67.679946 
L 18 67.679946 
L 20.277551 67.679946 
L 22.555102 67.679946 
L 24.832653 67.679946 
L 27.110204 67.679946 
L 29.387755 67.679858 
L 31.665306 67.636292 
L 33.942857 67.41395 
L 36.220408 66.911385 
L 38.497959 65.991306 
L 40.77551 64.498077 
L 43.053061 62.383393 
L 45.330612 59.68228 
L 47.608163 56.427306 
L 49.885714 52.451942 
L 52.163265 47.949061 
L 54.440816 43.281105 
L 56.718367 38.304279 
L 58.995918 33.506139 
L 61.273469 28.989901 
L 63.55102 24.706882 
L 65.828571 21.312207 
L 68.106122 18.759144 
L 70.383673 17.46142 
L 72.661224 17.28 
L 74.938776 23.881737 
L 77.216327 20.057671 
L 79.493878 23.19004 
L 81.771429 26.964695 
L 84.04898 31.067089 
L 86.326531 35.350649 
L 88.604082 39.549768 
L 90.881633 44.00209 
L 93.159184 47.972453 
L 95.436735 51.482712 
L 97.714286 54.90776 
L 99.991837 57.72543 
L 102.269388 60.205254 
L 104.546939 62.39569 
L 106.82449 64.166992 
L 109.102041 65.449607 
L 111.379592 66.46363 
L 113.657143 67.099605 
L 115.934694 67.500655 
L 118.212245 67.646828 
L 120.489796 67.679945 
L 122.767347 67.679946 
L 125.044898 67.679946 
L 127.322449 67.679946 
L 129.6 67.679946 
L 129.6 67.679946 
L 129.6 67.679946 
L 127.322449 67.679946 
L 125.044898 67.679946 
L 122.767347 67.679946 
L 120.489796 67.679948 
L 118.212245 67.677944 
L 115.934694 67.573197 
L 113.657143 67.284538 
L 111.379592 66.682651 
L 109.102041 65.806164 
L 106.82449 64.555559 
L 104.546939 62.846889 
L 102.269388 60.943035 
L 99.991837 58.509794 
L 97.714286 55.760575 
L 95.436735 52.502313 
L 93.159184 49.063257 
L 90.881633 45.1313 
L 88.604082 41.030308 
L 86.326531 36.995032 
L 84.04898 32.857954 
L 81.771429 28.772617 
L 79.493878 25.044056 
L 77.216327 22.013178 
L 74.938776 25.743703 
L 72.661224 18.835114 
L 70.383673 19.308303 
L 68.106122 20.802572 
L 65.828571 23.297376 
L 63.55102 26.463412 
L 61.273469 30.609634 
L 58.995918 34.992668 
L 56.718367 39.741078 
L 54.440816 44.613792 
L 52.163265 49.196491 
L 49.885714 53.441066 
L 47.608163 57.244667 
L 45.330612 60.478332 
L 43.053061 62.935676 
L 40.77551 64.870728 
L 38.497959 66.197873 
L 36.220408 67.054823 
L 33.942857 67.50061 
L 31.665306 67.662527 
L 29.387755 67.68 
L 27.110204 67.679946 
L 24.832653 67.679946 
L 22.555102 67.679946 
L 20.277551 67.679946 
L 18 67.679946 
z
" style="fill:#fc8d62;fill-opacity:0.2;"/>
   </g>
   <g id="PolyCollection_2">
    <path clip-path="url(#p08350e7e1c)" d="M 18 67.679946 
L 18 67.679946 
L 20.277551 67.679946 
L 22.555102 67.679946 
L 24.832653 67.679946 
L 27.110204 67.679946 
L 29.387755 67.679888 
L 31.665306 67.634261 
L 33.942857 67.432236 
L 36.220408 66.910795 
L 38.497959 66.125451 
L 40.77551 64.8051 
L 43.053061 62.890978 
L 45.330612 60.444538 
L 47.608163 57.577119 
L 49.885714 54.196738 
L 52.163265 50.302839 
L 54.440816 46.139891 
L 56.718367 41.533117 
L 58.995918 36.973745 
L 61.273469 32.50537 
L 63.55102 28.087075 
L 65.828571 24.26204 
L 68.106122 20.98541 
L 70.383673 18.385529 
L 72.661224 16.447101 
L 74.938776 20.839921 
L 77.216327 16.720641 
L 79.493878 18.726583 
L 81.771429 21.170682 
L 84.04898 24.915633 
L 86.326531 29.022574 
L 88.604082 33.24135 
L 90.881633 37.785484 
L 93.159184 42.325602 
L 95.436735 46.878493 
L 97.714286 50.869583 
L 99.991837 54.732138 
L 102.269388 58.143209 
L 104.546939 61.018755 
L 106.82449 63.32732 
L 109.102041 65.0292 
L 111.379592 66.253212 
L 113.657143 67.062797 
L 115.934694 67.47516 
L 118.212245 67.645847 
L 120.489796 67.679946 
L 122.767347 67.679946 
L 125.044898 67.679946 
L 127.322449 67.679946 
L 129.6 67.679946 
L 129.6 67.679946 
L 129.6 67.679946 
L 127.322449 67.679946 
L 125.044898 67.679946 
L 122.767347 67.679946 
L 120.489796 67.679947 
L 118.212245 67.67712 
L 115.934694 67.556765 
L 113.657143 67.211921 
L 111.379592 66.537773 
L 109.102041 65.358145 
L 106.82449 63.786042 
L 104.546939 61.624834 
L 102.269388 58.857793 
L 99.991837 55.713912 
L 97.714286 52.095572 
L 95.436735 47.913519 
L 93.159184 43.7739 
L 90.881633 39.276096 
L 88.604082 34.888028 
L 86.326531 30.495512 
L 84.04898 26.602767 
L 81.771429 23.245742 
L 79.493878 20.536636 
L 77.216327 18.946225 
L 74.938776 22.957762 
L 72.661224 18.729478 
L 70.383673 20.203749 
L 68.106122 22.920023 
L 65.828571 25.944108 
L 63.55102 29.754049 
L 61.273469 34.119662 
L 58.995918 38.580295 
L 56.718367 42.928022 
L 54.440816 47.256415 
L 52.163265 51.219908 
L 49.885714 55.094614 
L 47.608163 58.421797 
L 45.330612 61.098315 
L 43.053061 63.374544 
L 40.77551 65.113873 
L 38.497959 66.323424 
L 36.220408 67.125619 
L 33.942857 67.511555 
L 31.665306 67.666602 
L 29.387755 67.679966 
L 27.110204 67.679946 
L 24.832653 67.679946 
L 22.555102 67.679946 
L 20.277551 67.679946 
L 18 67.679946 
z
" style="fill:#fc8d62;fill-opacity:0.2;"/>
   </g>
   <g id="matplotlib.axis_1">
    <g id="xtick_1">
     <g id="line2d_1">
      <defs>
       <path d="M 0 0 
L 0 3.5 
" id="m341a187cd2" style="stroke:#a9a9a9;stroke-width:2;"/>
      </defs>
      <g>
       <use style="fill:#a9a9a9;stroke:#a9a9a9;stroke-width:2;" x="29.387755" xlink:href="#m341a187cd2" y="67.679946"/>
      </g>
     </g>
    </g>
    <g id="xtick_2">
     <g id="line2d_2">
      <g>
       <use style="fill:#a9a9a9;stroke:#a9a9a9;stroke-width:2;" x="52.163265" xlink:href="#m341a187cd2" y="67.679946"/>
      </g>
     </g>
    </g>
    <g id="xtick_3">
     <g id="line2d_3">
      <g>
       <use style="fill:#a9a9a9;stroke:#a9a9a9;stroke-width:2;" x="74.938776" xlink:href="#m341a187cd2" y="67.679946"/>
      </g>
     </g>
    </g>
    <g id="xtick_4">
     <g id="line2d_4">
      <g>
       <use style="fill:#a9a9a9;stroke:#a9a9a9;stroke-width:2;" x="97.714286" xlink:href="#m341a187cd2" y="67.679946"/>
      </g>
     </g>
    </g>
    <g id="xtick_5">
     <g id="line2d_5">
      <g>
       <use style="fill:#a9a9a9;stroke:#a9a9a9;stroke-width:2;" x="120.489796" xlink:href="#m341a187cd2" y="67.679946"/>
      </g>
     </g>
    </g>
   </g>
   <g id="matplotlib.axis_2"/>
   <g id="line2d_6">
    <path clip-path="url(#p08350e7e1c)" d="M 18 67.679946 
L 20.277551 67.679946 
L 22.555102 67.679946 
L 24.832653 67.679946 
L 27.110204 67.679946 
L 29.387755 67.679929 
L 31.665306 67.64941 
L 33.942857 67.45728 
L 36.220408 66.983104 
L 38.497959 66.09459 
L 40.77551 64.684402 
L 43.053061 62.659534 
L 45.330612 60.080306 
L 47.608163 56.835986 
L 49.885714 52.946504 
L 52.163265 48.572776 
L 54.440816 43.947448 
L 56.718367 39.022679 
L 58.995918 34.249404 
L 61.273469 29.799768 
L 63.55102 25.585147 
L 65.828571 22.304792 
L 68.106122 19.780858 
L 70.383673 18.384862 
L 72.661224 18.057557 
L 74.938776 24.81272 
L 77.216327 21.035425 
L 79.493878 24.117048 
L 81.771429 27.868656 
L 84.04898 31.962522 
L 86.326531 36.172841 
L 88.604082 40.290038 
L 90.881633 44.566695 
L 93.159184 48.517855 
L 95.436735 51.992512 
L 97.714286 55.334167 
L 99.991837 58.117612 
L 102.269388 60.574144 
L 104.546939 62.62129 
L 106.82449 64.361275 
L 109.102041 65.627885 
L 111.379592 66.573141 
L 113.657143 67.192072 
L 115.934694 67.536926 
L 118.212245 67.662386 
L 120.489796 67.679946 
L 122.767347 67.679946 
L 125.044898 67.679946 
L 127.322449 67.679946 
L 129.6 67.679946 
" style="fill:none;stroke:#fc8d62;stroke-linecap:square;stroke-width:2;"/>
   </g>
   <g id="line2d_7">
    <path clip-path="url(#p08350e7e1c)" d="M 18 67.679946 
L 20.277551 67.679946 
L 22.555102 67.679946 
L 24.832653 67.679946 
L 27.110204 67.679946 
L 29.387755 67.679927 
L 31.665306 67.650431 
L 33.942857 67.471895 
L 36.220408 67.018207 
L 38.497959 66.224438 
L 40.77551 64.959487 
L 43.053061 63.132761 
L 45.330612 60.771427 
L 47.608163 57.999458 
L 49.885714 54.645676 
L 52.163265 50.761373 
L 54.440816 46.698153 
L 56.718367 42.23057 
L 58.995918 37.77702 
L 61.273469 33.312516 
L 63.55102 28.920562 
L 65.828571 25.103074 
L 68.106122 21.952716 
L 70.383673 19.294639 
L 72.661224 17.58829 
L 74.938776 21.898841 
L 77.216327 17.833433 
L 79.493878 19.63161 
L 81.771429 22.208212 
L 84.04898 25.7592 
L 86.326531 29.759043 
L 88.604082 34.064689 
L 90.881633 38.53079 
L 93.159184 43.049751 
L 95.436735 47.396006 
L 97.714286 51.482577 
L 99.991837 55.223025 
L 102.269388 58.500501 
L 104.546939 61.321795 
L 106.82449 63.556681 
L 109.102041 65.193673 
L 111.379592 66.395492 
L 113.657143 67.137359 
L 115.934694 67.515962 
L 118.212245 67.661484 
L 120.489796 67.679946 
L 122.767347 67.679946 
L 125.044898 67.679946 
L 127.322449 67.679946 
L 129.6 67.679946 
" style="fill:none;stroke:#fc8d62;stroke-dasharray:1.5,1.5;stroke-dashoffset:0;stroke-opacity:0.7;stroke-width:1.5;"/>
   </g>
   <g id="patch_3">
    <path d="M 74.938776 67.68 
L 74.938776 17.28 
" style="fill:none;stroke:#a9a9a9;stroke-linecap:square;stroke-linejoin:miter;stroke-width:2;"/>
   </g>
   <g id="patch_4">
    <path d="M 129.6 67.68 
L 129.6 17.28 
" style="fill:none;"/>
   </g>
   <g id="patch_5">
    <path d="M 18 67.679946 
L 129.6 67.679946 
" style="fill:none;stroke:#a9a9a9;stroke-linecap:square;stroke-linejoin:miter;stroke-width:2;"/>
   </g>
   <g id="patch_6">
    <path d="M 18 17.28 
L 129.6 17.28 
" style="fill:none;"/>
   </g>
   <g id="legend_1">
    <g id="line2d_8">
     <path d="M 87.67 26.448906 
L 101.67 26.448906 
" style="fill:none;stroke:#fc8d62;stroke-linecap:square;stroke-width:2;"/>
    </g>
    <g id="line2d_9"/>
    <g id="text_1">
     <!-- $\theta$ -->
     <g transform="translate(107.27 28.898906)scale(0.07 -0.07)">
      <defs>
       <path d="M 45.515625 34.671875 
L 14.453125 34.671875 
Q 12.359375 20.0625 14.5 13.875 
Q 17.1875 6.25 24.46875 6.25 
Q 31.78125 6.25 37.359375 13.921875 
Q 42.234375 20.65625 45.515625 34.671875 
z
M 47.015625 42.96875 
Q 48.34375 56.84375 46.625 61.71875 
Q 43.953125 69.4375 36.765625 69.4375 
Q 29.296875 69.4375 23.828125 61.8125 
Q 19.53125 55.671875 16.15625 42.96875 
z
M 38.1875 76.765625 
Q 49.90625 76.765625 54.59375 66.40625 
Q 59.28125 56.109375 55.71875 37.84375 
Q 52.203125 19.625 43.453125 9.28125 
Q 34.765625 -1.125 23.046875 -1.125 
Q 11.28125 -1.125 6.640625 9.28125 
Q 2 19.625 5.515625 37.84375 
Q 9.078125 56.109375 17.71875 66.40625 
Q 26.421875 76.765625 38.1875 76.765625 
z
" id="DejaVuSans-Oblique-952"/>
      </defs>
      <use transform="translate(0 0.234375)" xlink:href="#DejaVuSans-Oblique-952"/>
     </g>
    </g>
    <g id="line2d_10">
     <path d="M 87.67 36.723594 
L 101.67 36.723594 
" style="fill:none;stroke:#fc8d62;stroke-dasharray:1.5,1.5;stroke-dashoffset:0;stroke-opacity:0.7;stroke-width:1.5;"/>
    </g>
    <g id="line2d_11"/>
    <g id="text_2">
     <!-- No $\theta$ -->
     <g transform="translate(107.27 39.173594)scale(0.07 -0.07)">
      <defs>
       <path d="M 9.8125 72.90625 
L 23.09375 72.90625 
L 55.421875 11.921875 
L 55.421875 72.90625 
L 64.984375 72.90625 
L 64.984375 0 
L 51.703125 0 
L 19.390625 60.984375 
L 19.390625 0 
L 9.8125 0 
z
" id="DejaVuSans-78"/>
       <path d="M 30.609375 48.390625 
Q 23.390625 48.390625 19.1875 42.75 
Q 14.984375 37.109375 14.984375 27.296875 
Q 14.984375 17.484375 19.15625 11.84375 
Q 23.34375 6.203125 30.609375 6.203125 
Q 37.796875 6.203125 41.984375 11.859375 
Q 46.1875 17.53125 46.1875 27.296875 
Q 46.1875 37.015625 41.984375 42.703125 
Q 37.796875 48.390625 30.609375 48.390625 
z
M 30.609375 56 
Q 42.328125 56 49.015625 48.375 
Q 55.71875 40.765625 55.71875 27.296875 
Q 55.71875 13.875 49.015625 6.21875 
Q 42.328125 -1.421875 30.609375 -1.421875 
Q 18.84375 -1.421875 12.171875 6.21875 
Q 5.515625 13.875 5.515625 27.296875 
Q 5.515625 40.765625 12.171875 48.375 
Q 18.84375 56 30.609375 56 
z
" id="DejaVuSans-111"/>
       <path id="DejaVuSans-32"/>
      </defs>
      <use transform="translate(0 0.234375)" xlink:href="#DejaVuSans-78"/>
      <use transform="translate(74.804688 0.234375)" xlink:href="#DejaVuSans-111"/>
      <use transform="translate(135.986328 0.234375)" xlink:href="#DejaVuSans-32"/>
      <use transform="translate(167.773438 0.234375)" xlink:href="#DejaVuSans-Oblique-952"/>
     </g>
    </g>
   </g>
  </g>
  <g id="axes_2">
   <g id="patch_7">
    <path d="M 18 128.16 
L 129.6 128.16 
L 129.6 77.76 
L 18 77.76 
z
" style="fill:none;"/>
   </g>
   <g id="PolyCollection_3">
    <path clip-path="url(#pbf63008823)" d="M 18 120.520953 
L 18 120.443983 
L 20.277551 120.659639 
L 22.555102 120.720303 
L 24.832653 120.634512 
L 27.110204 120.450847 
L 29.387755 120.247732 
L 31.665306 120.0745 
L 33.942857 119.790543 
L 36.220408 119.233373 
L 38.497959 118.275096 
L 40.77551 116.824158 
L 43.053061 114.829893 
L 45.330612 112.284324 
L 47.608163 109.219111 
L 49.885714 105.702201 
L 52.163265 101.834339 
L 54.440816 97.745049 
L 56.718367 93.588702 
L 58.995918 89.539774 
L 61.273469 85.78766 
L 63.55102 82.531276 
L 65.828571 79.973721 
L 68.106122 78.317422 
L 70.383673 77.76 
L 72.661224 78.49102 
L 74.938776 80.679751 
L 77.216327 84.415783 
L 79.493878 89.298341 
L 81.771429 94.879028 
L 84.04898 100.739475 
L 86.326531 106.515233 
L 88.604082 111.904853 
L 90.881633 116.674624 
L 93.159184 120.659678 
L 95.436735 123.762762 
L 97.714286 125.951896 
L 99.991837 127.255271 
L 102.269388 127.750865 
L 104.546939 127.553054 
L 106.82449 126.801281 
L 109.102041 125.650649 
L 111.379592 124.263951 
L 113.657143 122.80486 
L 115.934694 121.432686 
L 118.212245 120.300281 
L 120.489796 119.557578 
L 122.767347 119.301262 
L 125.044898 119.412767 
L 127.322449 119.728923 
L 129.6 120.109108 
L 129.6 120.210426 
L 129.6 120.210426 
L 127.322449 119.853801 
L 125.044898 119.55558 
L 122.767347 119.454035 
L 120.489796 119.714503 
L 118.212245 120.466728 
L 115.934694 121.627291 
L 113.657143 123.044722 
L 111.379592 124.555201 
L 109.102041 125.989123 
L 106.82449 127.176089 
L 104.546939 127.950665 
L 102.269388 128.16 
L 99.991837 127.672942 
L 97.714286 126.38932 
L 95.436735 124.247644 
L 93.159184 121.229773 
L 90.881633 117.366728 
L 88.604082 112.747255 
L 86.326531 107.525393 
L 84.04898 101.92403 
L 81.771429 96.234296 
L 79.493878 90.810886 
L 77.216327 86.062919 
L 74.938776 82.430267 
L 72.661224 80.307254 
L 70.383673 79.60072 
L 68.106122 80.140898 
L 65.828571 81.739646 
L 63.55102 84.202557 
L 61.273469 87.332082 
L 58.995918 90.931463 
L 56.718367 94.809304 
L 54.440816 98.784496 
L 52.163265 102.691295 
L 49.885714 106.384118 
L 47.608163 109.741685 
L 45.330612 112.670853 
L 43.053061 115.109566 
L 40.77551 117.029378 
L 38.497959 118.436844 
L 36.220408 119.373555 
L 33.942857 119.919009 
L 31.665306 120.193666 
L 29.387755 120.356159 
L 27.110204 120.543943 
L 24.832653 120.709228 
L 22.555102 120.78036 
L 20.277551 120.719643 
L 18 120.520953 
z
" style="fill:#66c2a5;fill-opacity:0.2;"/>
   </g>
   <g id="matplotlib.axis_3">
    <g id="xtick_6">
     <g id="line2d_12">
      <g>
       <use style="fill:#a9a9a9;stroke:#a9a9a9;stroke-width:2;" x="29.387755" xlink:href="#m341a187cd2" y="122.1741"/>
      </g>
     </g>
    </g>
    <g id="xtick_7">
     <g id="line2d_13">
      <g>
       <use style="fill:#a9a9a9;stroke:#a9a9a9;stroke-width:2;" x="52.163265" xlink:href="#m341a187cd2" y="122.1741"/>
      </g>
     </g>
    </g>
    <g id="xtick_8">
     <g id="line2d_14">
      <g>
       <use style="fill:#a9a9a9;stroke:#a9a9a9;stroke-width:2;" x="74.938776" xlink:href="#m341a187cd2" y="122.1741"/>
      </g>
     </g>
    </g>
    <g id="xtick_9">
     <g id="line2d_15">
      <g>
       <use style="fill:#a9a9a9;stroke:#a9a9a9;stroke-width:2;" x="97.714286" xlink:href="#m341a187cd2" y="122.1741"/>
      </g>
     </g>
    </g>
    <g id="xtick_10">
     <g id="line2d_16">
      <g>
       <use style="fill:#a9a9a9;stroke:#a9a9a9;stroke-width:2;" x="120.489796" xlink:href="#m341a187cd2" y="122.1741"/>
      </g>
     </g>
    </g>
   </g>
   <g id="matplotlib.axis_4"/>
   <g id="line2d_17">
    <path clip-path="url(#pbf63008823)" d="M 18 120.482468 
L 20.277551 120.689641 
L 22.555102 120.750332 
L 24.832653 120.67187 
L 27.110204 120.497395 
L 29.387755 120.301946 
L 31.665306 120.134083 
L 33.942857 119.854776 
L 36.220408 119.303464 
L 38.497959 118.35597 
L 40.77551 116.926768 
L 43.053061 114.969729 
L 45.330612 112.477589 
L 47.608163 109.480398 
L 49.885714 106.043159 
L 52.163265 102.262817 
L 54.440816 98.264772 
L 56.718367 94.199003 
L 58.995918 90.235618 
L 61.273469 86.559871 
L 63.55102 83.366916 
L 65.828571 80.856683 
L 68.106122 79.22916 
L 70.383673 78.68036 
L 72.661224 79.399137 
L 74.938776 81.555009 
L 77.216327 85.239351 
L 79.493878 90.054613 
L 81.771429 95.556662 
L 84.04898 101.331752 
L 86.326531 107.020313 
L 88.604082 112.326054 
L 90.881633 117.020676 
L 93.159184 120.944725 
L 95.436735 124.005203 
L 97.714286 126.170608 
L 99.991837 127.464107 
L 102.269388 127.955432 
L 104.546939 127.751859 
L 106.82449 126.988685 
L 109.102041 125.819886 
L 111.379592 124.409576 
L 113.657143 122.924791 
L 115.934694 121.529988 
L 118.212245 120.383505 
L 120.489796 119.63604 
L 122.767347 119.377649 
L 125.044898 119.484173 
L 127.322449 119.791362 
L 129.6 120.159767 
" style="fill:none;stroke:#66c2a5;stroke-linecap:square;stroke-width:2;"/>
   </g>
   <g id="patch_8">
    <path d="M 74.938776 128.16 
L 74.938776 77.76 
" style="fill:none;stroke:#a9a9a9;stroke-linecap:square;stroke-linejoin:miter;stroke-width:2;"/>
   </g>
   <g id="patch_9">
    <path d="M 129.6 128.16 
L 129.6 77.76 
" style="fill:none;"/>
   </g>
   <g id="patch_10">
    <path d="M 18 122.1741 
L 129.6 122.1741 
" style="fill:none;stroke:#a9a9a9;stroke-linecap:square;stroke-linejoin:miter;stroke-width:2;"/>
   </g>
   <g id="patch_11">
    <path d="M 18 77.76 
L 129.6 77.76 
" style="fill:none;"/>
   </g>
  </g>
 </g>
 <defs>
  <clipPath id="p08350e7e1c">
   <rect height="50.4" width="111.6" x="18" y="17.28"/>
  </clipPath>
  <clipPath id="pbf63008823">
   <rect height="50.4" width="111.6" x="18" y="77.76"/>
  </clipPath>
 </defs>
</svg>
