<?xml version="1.0" encoding="utf-8" standalone="no"?>
<!DOCTYPE svg PUBLIC "-//W3C//DTD SVG 1.1//EN"
  "http://www.w3.org/Graphics/SVG/1.1/DTD/svg11.dtd">
<!-- Created with matplotlib (https://matplotlib.org/) -->
<svg height="144pt" version="1.1" viewBox="0 0 144 144" width="144pt" xmlns="http://www.w3.org/2000/svg" xmlns:xlink="http://www.w3.org/1999/xlink">
 <metadata>
  <rdf:RDF xmlns:cc="http://creativecommons.org/ns#" xmlns:dc="http://purl.org/dc/elements/1.1/" xmlns:rdf="http://www.w3.org/1999/02/22-rdf-syntax-ns#">
   <cc:Work>
    <dc:type rdf:resource="http://purl.org/dc/dcmitype/StillImage"/>
    <dc:date>2021-10-14T23:25:50.157887</dc:date>
    <dc:format>image/svg+xml</dc:format>
    <dc:creator>
     <cc:Agent>
      <dc:title>Matplotlib v3.3.2, https://matplotlib.org/</dc:title>
     </cc:Agent>
    </dc:creator>
   </cc:Work>
  </rdf:RDF>
 </metadata>
 <defs>
  <style type="text/css">*{stroke-linecap:butt;stroke-linejoin:round;}</style>
 </defs>
 <g id="figure_1">
  <g id="patch_1">
   <path d="M 0 144 
L 144 144 
L 144 0 
L 0 0 
z
" style="fill:none;"/>
  </g>
  <g id="axes_1">
   <g id="patch_2">
    <path d="M 18 67.68 
L 129.6 67.68 
L 129.6 17.28 
L 18 17.28 
z
" style="fill:none;"/>
   </g>
   <g id="PolyCollection_1">
    <path clip-path="url(#p236c171ce5)" d="M 18 47.726588 
L 18 47.726588 
L 20.277551 47.726588 
L 22.555102 47.726588 
L 24.832653 47.726588 
L 27.110204 47.726588 
L 29.387755 47.726588 
L 31.665306 47.659274 
L 33.942857 47.436961 
L 36.220408 47.322316 
L 38.497959 46.810299 
L 40.77551 46.118104 
L 43.053061 44.959039 
L 45.330612 43.160142 
L 47.608163 41.233966 
L 49.885714 37.730028 
L 52.163265 35.041279 
L 54.440816 30.876173 
L 56.718367 26.467737 
L 58.995918 22.785317 
L 61.273469 18.666173 
L 63.55102 17.28 
L 65.828571 18.559712 
L 68.106122 19.263054 
L 70.383673 20.312986 
L 72.661224 23.611692 
L 74.938776 36.579051 
L 77.216327 38.231539 
L 79.493878 42.024357 
L 81.771429 47.516836 
L 84.04898 52.210452 
L 86.326531 55.54116 
L 88.604082 58.889762 
L 90.881633 59.51858 
L 93.159184 59.53126 
L 95.436735 57.344568 
L 97.714286 56.036142 
L 99.991837 54.748464 
L 102.269388 52.150254 
L 104.546939 51.025901 
L 106.82449 49.514274 
L 109.102041 48.706281 
L 111.379592 47.970337 
L 113.657143 47.679375 
L 115.934694 47.613159 
L 118.212245 47.631604 
L 120.489796 47.726522 
L 122.767347 47.726588 
L 125.044898 47.726588 
L 127.322449 47.726588 
L 129.6 47.726588 
L 129.6 47.726588 
L 129.6 47.726588 
L 127.322449 47.726588 
L 125.044898 47.726588 
L 122.767347 47.726588 
L 120.489796 47.726681 
L 118.212245 47.809331 
L 115.934694 48.059315 
L 113.657143 48.343634 
L 111.379592 49.095146 
L 109.102041 50.188105 
L 106.82449 51.731667 
L 104.546939 53.473217 
L 102.269388 55.731055 
L 99.991837 58.512985 
L 97.714286 60.595483 
L 95.436735 63.119633 
L 93.159184 65.684498 
L 90.881633 66.394778 
L 88.604082 67.68 
L 86.326531 65.4623 
L 84.04898 61.076579 
L 81.771429 56.755543 
L 79.493878 52.823935 
L 77.216327 47.050719 
L 74.938776 39.994383 
L 72.661224 32.716152 
L 70.383673 30.60211 
L 68.106122 28.159513 
L 65.828571 27.159162 
L 63.55102 27.209469 
L 61.273469 28.163091 
L 58.995918 30.040921 
L 56.718367 32.716185 
L 54.440816 36.472297 
L 52.163265 39.383068 
L 49.885714 41.872388 
L 47.608163 44.792182 
L 45.330612 45.754147 
L 43.053061 47.119363 
L 40.77551 47.465739 
L 38.497959 47.994724 
L 36.220408 47.962863 
L 33.942857 47.899828 
L 31.665306 47.811371 
L 29.387755 47.726589 
L 27.110204 47.726588 
L 24.832653 47.726588 
L 22.555102 47.726588 
L 20.277551 47.726588 
L 18 47.726588 
z
" style="fill:#fc8d62;fill-opacity:0.2;"/>
   </g>
   <g id="PolyCollection_2">
    <path clip-path="url(#p236c171ce5)" d="M 18 47.726588 
L 18 47.726588 
L 20.277551 47.726588 
L 22.555102 47.726588 
L 24.832653 47.726588 
L 27.110204 47.726588 
L 29.387755 47.726588 
L 31.665306 47.661611 
L 33.942857 47.433575 
L 36.220408 47.377522 
L 38.497959 46.961969 
L 40.77551 46.715644 
L 43.053061 46.345967 
L 45.330612 46.053832 
L 47.608163 45.55754 
L 49.885714 46.123545 
L 52.163265 45.439744 
L 54.440816 44.414682 
L 56.718367 43.128257 
L 58.995918 43.832605 
L 61.273469 43.872964 
L 63.55102 43.95775 
L 65.828571 42.654805 
L 68.106122 44.28063 
L 70.383673 44.274616 
L 72.661224 44.087988 
L 74.938776 48.294786 
L 77.216327 43.95855 
L 79.493878 43.721705 
L 81.771429 43.500868 
L 84.04898 44.297129 
L 86.326531 44.649227 
L 88.604082 43.715756 
L 90.881633 45.508279 
L 93.159184 45.319269 
L 95.436735 45.44928 
L 97.714286 45.20881 
L 99.991837 45.870096 
L 102.269388 46.688107 
L 104.546939 46.481838 
L 106.82449 46.946693 
L 109.102041 46.99529 
L 111.379592 47.027533 
L 113.657143 47.265358 
L 115.934694 47.455662 
L 118.212245 47.634404 
L 120.489796 47.726588 
L 122.767347 47.726588 
L 125.044898 47.726588 
L 127.322449 47.726588 
L 129.6 47.726588 
L 129.6 47.726588 
L 129.6 47.726588 
L 127.322449 47.726588 
L 125.044898 47.726588 
L 122.767347 47.726588 
L 120.489796 47.726589 
L 118.212245 47.813455 
L 115.934694 48.003492 
L 113.657143 48.135338 
L 111.379592 48.484716 
L 109.102041 48.660794 
L 106.82449 49.142925 
L 104.546939 49.299876 
L 102.269388 49.76553 
L 99.991837 49.47065 
L 97.714286 49.717396 
L 95.436735 51.539773 
L 93.159184 51.850013 
L 90.881633 51.769163 
L 88.604082 51.146142 
L 86.326531 51.402989 
L 84.04898 52.069504 
L 81.771429 50.684222 
L 79.493878 51.211807 
L 77.216327 51.61438 
L 74.938776 51.036087 
L 72.661224 51.409534 
L 70.383673 51.41997 
L 68.106122 51.966638 
L 65.828571 50.91221 
L 63.55102 50.598891 
L 61.273469 51.542036 
L 58.995918 50.219266 
L 56.718367 50.089184 
L 54.440816 50.111375 
L 52.163265 50.11062 
L 49.885714 49.416833 
L 47.608163 48.765006 
L 45.330612 49.173426 
L 43.053061 48.573808 
L 40.77551 48.548538 
L 38.497959 48.372311 
L 36.220408 48.15829 
L 33.942857 47.978435 
L 31.665306 47.806256 
L 29.387755 47.726588 
L 27.110204 47.726588 
L 24.832653 47.726588 
L 22.555102 47.726588 
L 20.277551 47.726588 
L 18 47.726588 
z
" style="fill:#fc8d62;fill-opacity:0.2;"/>
   </g>
   <g id="matplotlib.axis_1">
    <g id="xtick_1">
     <g id="line2d_1">
      <defs>
       <path d="M 0 0 
L 0 3.5 
" id="mdee78a8dda" style="stroke:#a9a9a9;stroke-width:2;"/>
      </defs>
      <g>
       <use style="fill:#a9a9a9;stroke:#a9a9a9;stroke-width:2;" x="29.387755" xlink:href="#mdee78a8dda" y="47.726588"/>
      </g>
     </g>
    </g>
    <g id="xtick_2">
     <g id="line2d_2">
      <g>
       <use style="fill:#a9a9a9;stroke:#a9a9a9;stroke-width:2;" x="52.163265" xlink:href="#mdee78a8dda" y="47.726588"/>
      </g>
     </g>
    </g>
    <g id="xtick_3">
     <g id="line2d_3">
      <g>
       <use style="fill:#a9a9a9;stroke:#a9a9a9;stroke-width:2;" x="74.938776" xlink:href="#mdee78a8dda" y="47.726588"/>
      </g>
     </g>
    </g>
    <g id="xtick_4">
     <g id="line2d_4">
      <g>
       <use style="fill:#a9a9a9;stroke:#a9a9a9;stroke-width:2;" x="97.714286" xlink:href="#mdee78a8dda" y="47.726588"/>
      </g>
     </g>
    </g>
    <g id="xtick_5">
     <g id="line2d_5">
      <g>
       <use style="fill:#a9a9a9;stroke:#a9a9a9;stroke-width:2;" x="120.489796" xlink:href="#mdee78a8dda" y="47.726588"/>
      </g>
     </g>
    </g>
   </g>
   <g id="matplotlib.axis_2"/>
   <g id="line2d_6">
    <path clip-path="url(#p236c171ce5)" d="M 18 47.726588 
L 20.277551 47.726588 
L 22.555102 47.726588 
L 24.832653 47.726588 
L 27.110204 47.726588 
L 29.387755 47.726588 
L 31.665306 47.735322 
L 33.942857 47.668394 
L 36.220408 47.64259 
L 38.497959 47.402511 
L 40.77551 46.791921 
L 43.053061 46.039201 
L 45.330612 44.457145 
L 47.608163 43.013074 
L 49.885714 39.801208 
L 52.163265 37.212174 
L 54.440816 33.674235 
L 56.718367 29.591961 
L 58.995918 26.413119 
L 61.273469 23.414632 
L 63.55102 22.244735 
L 65.828571 22.859437 
L 68.106122 23.711283 
L 70.383673 25.457548 
L 72.661224 28.163922 
L 74.938776 38.286717 
L 77.216327 42.641129 
L 79.493878 47.424146 
L 81.771429 52.13619 
L 84.04898 56.643516 
L 86.326531 60.50173 
L 88.604082 63.284881 
L 90.881633 62.956679 
L 93.159184 62.607879 
L 95.436735 60.232101 
L 97.714286 58.315813 
L 99.991837 56.630724 
L 102.269388 53.940654 
L 104.546939 52.249559 
L 106.82449 50.622971 
L 109.102041 49.447193 
L 111.379592 48.532741 
L 113.657143 48.011505 
L 115.934694 47.836237 
L 118.212245 47.720468 
L 120.489796 47.726602 
L 122.767347 47.726588 
L 125.044898 47.726588 
L 127.322449 47.726588 
L 129.6 47.726588 
" style="fill:none;stroke:#fc8d62;stroke-linecap:square;stroke-width:2;"/>
   </g>
   <g id="line2d_7">
    <path clip-path="url(#p236c171ce5)" d="M 18 47.726588 
L 20.277551 47.726588 
L 22.555102 47.726588 
L 24.832653 47.726588 
L 27.110204 47.726588 
L 29.387755 47.726588 
L 31.665306 47.733933 
L 33.942857 47.706005 
L 36.220408 47.767906 
L 38.497959 47.66714 
L 40.77551 47.632091 
L 43.053061 47.459887 
L 45.330612 47.613629 
L 47.608163 47.161273 
L 49.885714 47.770189 
L 52.163265 47.775182 
L 54.440816 47.263029 
L 56.718367 46.60872 
L 58.995918 47.025936 
L 61.273469 47.7075 
L 63.55102 47.278321 
L 65.828571 46.783508 
L 68.106122 48.123634 
L 70.383673 47.847293 
L 72.661224 47.748761 
L 74.938776 49.665436 
L 77.216327 47.786465 
L 79.493878 47.466756 
L 81.771429 47.092545 
L 84.04898 48.183317 
L 86.326531 48.026108 
L 88.604082 47.430949 
L 90.881633 48.638721 
L 93.159184 48.584641 
L 95.436735 48.494527 
L 97.714286 47.463103 
L 99.991837 47.670373 
L 102.269388 48.226819 
L 104.546939 47.890857 
L 106.82449 48.044809 
L 109.102041 47.828042 
L 111.379592 47.756125 
L 113.657143 47.700348 
L 115.934694 47.729577 
L 118.212245 47.72393 
L 120.489796 47.726588 
L 122.767347 47.726588 
L 125.044898 47.726588 
L 127.322449 47.726588 
L 129.6 47.726588 
" style="fill:none;stroke:#fc8d62;stroke-dasharray:1.5,1.5;stroke-dashoffset:0;stroke-opacity:0.7;stroke-width:1.5;"/>
   </g>
   <g id="patch_3">
    <path d="M 74.938776 67.68 
L 74.938776 17.28 
" style="fill:none;stroke:#a9a9a9;stroke-linecap:square;stroke-linejoin:miter;stroke-width:2;"/>
   </g>
   <g id="patch_4">
    <path d="M 129.6 67.68 
L 129.6 17.28 
" style="fill:none;"/>
   </g>
   <g id="patch_5">
    <path d="M 18 47.726588 
L 129.6 47.726588 
" style="fill:none;stroke:#a9a9a9;stroke-linecap:square;stroke-linejoin:miter;stroke-width:2;"/>
   </g>
   <g id="patch_6">
    <path d="M 18 17.28 
L 129.6 17.28 
" style="fill:none;"/>
   </g>
   <g id="legend_1">
    <g id="line2d_8">
     <path d="M 101.475312 26.448906 
L 115.475312 26.448906 
" style="fill:none;stroke:#fc8d62;stroke-linecap:square;stroke-width:2;"/>
    </g>
    <g id="line2d_9"/>
    <g id="text_1">
     <!--   -->
     <g transform="translate(121.075312 28.898906)scale(0.07 -0.07)">
      <defs>
       <path id="DejaVuSans-32"/>
      </defs>
      <use xlink:href="#DejaVuSans-32"/>
     </g>
    </g>
    <g id="line2d_10">
     <path d="M 101.475312 36.723594 
L 115.475312 36.723594 
" style="fill:none;stroke:#fc8d62;stroke-dasharray:1.5,1.5;stroke-dashoffset:0;stroke-opacity:0.7;stroke-width:1.5;"/>
    </g>
    <g id="line2d_11"/>
    <g id="text_2">
     <!--   -->
     <g transform="translate(121.075312 39.173594)scale(0.07 -0.07)">
      <use xlink:href="#DejaVuSans-32"/>
     </g>
    </g>
   </g>
  </g>
  <g id="axes_2">
   <g id="patch_7">
    <path d="M 18 128.16 
L 129.6 128.16 
L 129.6 77.76 
L 18 77.76 
z
" style="fill:none;"/>
   </g>
   <g id="PolyCollection_3">
    <path clip-path="url(#p3c8bd07d28)" d="M 18 120.538459 
L 18 120.451489 
L 20.277551 120.662609 
L 22.555102 120.73369 
L 24.832653 120.667859 
L 27.110204 120.508334 
L 29.387755 120.327756 
L 31.665306 120.170035 
L 33.942857 119.896485 
L 36.220408 119.347637 
L 38.497959 118.396894 
L 40.77551 116.951985 
L 43.053061 114.961139 
L 45.330612 112.416537 
L 47.608163 109.350424 
L 49.885714 105.830816 
L 52.163265 101.958416 
L 54.440816 97.862732 
L 56.718367 93.698142 
L 58.995918 89.639044 
L 61.273469 85.874692 
L 63.55102 82.603519 
L 65.828571 80.027702 
L 68.106122 78.348122 
L 70.383673 77.76 
L 72.661224 78.449403 
L 74.938776 80.583201 
L 77.216327 84.241222 
L 79.493878 89.042519 
L 81.771429 94.54964 
L 84.04898 100.354036 
L 86.326531 106.097362 
L 88.604082 111.480814 
L 90.881633 116.270354 
L 93.159184 120.298684 
L 95.436735 123.464478 
L 97.714286 125.730491 
L 99.991837 127.118275 
L 102.269388 127.699026 
L 104.546939 127.581273 
L 106.82449 126.899971 
L 109.102041 125.80691 
L 111.379592 124.46266 
L 113.657143 123.029488 
L 115.934694 121.665909 
L 118.212245 120.52445 
L 120.489796 119.755127 
L 122.767347 119.457048 
L 125.044898 119.520621 
L 127.322449 119.791971 
L 129.6 120.13729 
L 129.6 120.250625 
L 129.6 120.250625 
L 127.322449 119.929788 
L 125.044898 119.676657 
L 122.767347 119.623016 
L 120.489796 119.92543 
L 118.212245 120.704862 
L 115.934694 121.876793 
L 113.657143 123.289642 
L 111.379592 124.779281 
L 109.102041 126.176358 
L 106.82449 127.311789 
L 104.546939 128.022715 
L 102.269388 128.16 
L 99.991837 127.597133 
L 97.714286 126.238923 
L 95.436735 124.028985 
L 93.159184 120.954623 
L 90.881633 117.052798 
L 88.604082 112.417264 
L 86.326531 107.205212 
L 84.04898 101.63993 
L 81.771429 96.009872 
L 79.493878 90.663576 
L 77.216327 86.000391 
L 74.938776 82.449395 
L 72.661224 80.385244 
L 70.383673 79.723596 
L 68.106122 80.296218 
L 65.828571 81.917829 
L 63.55102 84.395998 
L 61.273469 87.534512 
L 58.995918 91.137529 
L 56.718367 95.014327 
L 54.440816 98.98444 
L 52.163265 102.882695 
L 49.885714 106.564199 
L 47.608163 109.908506 
L 45.330612 112.823488 
L 43.053061 115.248338 
L 40.77551 117.156266 
L 38.497959 118.554609 
L 36.220408 119.483622 
L 33.942857 120.020547 
L 31.665306 120.283921 
L 29.387755 120.430205 
L 27.110204 120.595558 
L 24.832653 120.738005 
L 22.555102 120.793225 
L 20.277551 120.728369 
L 18 120.538459 
z
" style="fill:#66c2a5;fill-opacity:0.2;"/>
   </g>
   <g id="matplotlib.axis_3">
    <g id="xtick_6">
     <g id="line2d_12">
      <g>
       <use style="fill:#a9a9a9;stroke:#a9a9a9;stroke-width:2;" x="29.387755" xlink:href="#mdee78a8dda" y="122.225366"/>
      </g>
     </g>
    </g>
    <g id="xtick_7">
     <g id="line2d_13">
      <g>
       <use style="fill:#a9a9a9;stroke:#a9a9a9;stroke-width:2;" x="52.163265" xlink:href="#mdee78a8dda" y="122.225366"/>
      </g>
     </g>
    </g>
    <g id="xtick_8">
     <g id="line2d_14">
      <g>
       <use style="fill:#a9a9a9;stroke:#a9a9a9;stroke-width:2;" x="74.938776" xlink:href="#mdee78a8dda" y="122.225366"/>
      </g>
     </g>
    </g>
    <g id="xtick_9">
     <g id="line2d_15">
      <g>
       <use style="fill:#a9a9a9;stroke:#a9a9a9;stroke-width:2;" x="97.714286" xlink:href="#mdee78a8dda" y="122.225366"/>
      </g>
     </g>
    </g>
    <g id="xtick_10">
     <g id="line2d_16">
      <g>
       <use style="fill:#a9a9a9;stroke:#a9a9a9;stroke-width:2;" x="120.489796" xlink:href="#mdee78a8dda" y="122.225366"/>
      </g>
     </g>
    </g>
   </g>
   <g id="matplotlib.axis_4"/>
   <g id="line2d_17">
    <path clip-path="url(#p3c8bd07d28)" d="M 18 120.494974 
L 20.277551 120.695489 
L 22.555102 120.763457 
L 24.832653 120.702932 
L 27.110204 120.551946 
L 29.387755 120.378981 
L 31.665306 120.226978 
L 33.942857 119.958516 
L 36.220408 119.415629 
L 38.497959 118.475752 
L 40.77551 117.054126 
L 43.053061 115.104738 
L 45.330612 112.620013 
L 47.608163 109.629465 
L 49.885714 106.197508 
L 52.163265 102.420556 
L 54.440816 98.423586 
L 56.718367 94.356234 
L 58.995918 90.388287 
L 61.273469 86.704602 
L 63.55102 83.499758 
L 65.828571 80.972766 
L 68.106122 79.32217 
L 70.383673 78.741798 
L 72.661224 79.417324 
L 74.938776 81.516298 
L 77.216327 85.120806 
L 79.493878 89.853048 
L 81.771429 95.279756 
L 84.04898 100.996983 
L 86.326531 106.651287 
L 88.604082 111.949039 
L 90.881633 116.661576 
L 93.159184 120.626653 
L 95.436735 123.746732 
L 97.714286 125.984707 
L 99.991837 127.357704 
L 102.269388 127.929513 
L 104.546939 127.801994 
L 106.82449 127.10588 
L 109.102041 125.991634 
L 111.379592 124.62097 
L 113.657143 123.159565 
L 115.934694 121.771351 
L 118.212245 120.614656 
L 120.489796 119.840278 
L 122.767347 119.540032 
L 125.044898 119.598639 
L 127.322449 119.86088 
L 129.6 120.193957 
" style="fill:none;stroke:#66c2a5;stroke-linecap:square;stroke-width:2;"/>
   </g>
   <g id="patch_8">
    <path d="M 74.938776 128.16 
L 74.938776 77.76 
" style="fill:none;stroke:#a9a9a9;stroke-linecap:square;stroke-linejoin:miter;stroke-width:2;"/>
   </g>
   <g id="patch_9">
    <path d="M 129.6 128.16 
L 129.6 77.76 
" style="fill:none;"/>
   </g>
   <g id="patch_10">
    <path d="M 18 122.225366 
L 129.6 122.225366 
" style="fill:none;stroke:#a9a9a9;stroke-linecap:square;stroke-linejoin:miter;stroke-width:2;"/>
   </g>
   <g id="patch_11">
    <path d="M 18 77.76 
L 129.6 77.76 
" style="fill:none;"/>
   </g>
   <g id="legend_2">
    <g id="line2d_18">
     <path d="M 101.475312 86.928906 
L 115.475312 86.928906 
" style="fill:none;stroke:#66c2a5;stroke-linecap:square;stroke-width:2;"/>
    </g>
    <g id="line2d_19"/>
    <g id="text_3">
     <!--   -->
     <g transform="translate(121.075312 89.378906)scale(0.07 -0.07)">
      <use xlink:href="#DejaVuSans-32"/>
     </g>
    </g>
   </g>
  </g>
 </g>
 <defs>
  <clipPath id="p236c171ce5">
   <rect height="50.4" width="111.6" x="18" y="17.28"/>
  </clipPath>
  <clipPath id="p3c8bd07d28">
   <rect height="50.4" width="111.6" x="18" y="77.76"/>
  </clipPath>
 </defs>
</svg>
