<?xml version="1.0" encoding="utf-8" standalone="no"?>
<!DOCTYPE svg PUBLIC "-//W3C//DTD SVG 1.1//EN"
  "http://www.w3.org/Graphics/SVG/1.1/DTD/svg11.dtd">
<!-- Created with matplotlib (https://matplotlib.org/) -->
<svg height="144pt" version="1.1" viewBox="0 0 144 144" width="144pt" xmlns="http://www.w3.org/2000/svg" xmlns:xlink="http://www.w3.org/1999/xlink">
 <metadata>
  <rdf:RDF xmlns:cc="http://creativecommons.org/ns#" xmlns:dc="http://purl.org/dc/elements/1.1/" xmlns:rdf="http://www.w3.org/1999/02/22-rdf-syntax-ns#">
   <cc:Work>
    <dc:type rdf:resource="http://purl.org/dc/dcmitype/StillImage"/>
    <dc:date>2021-10-13T15:32:04.875299</dc:date>
    <dc:format>image/svg+xml</dc:format>
    <dc:creator>
     <cc:Agent>
      <dc:title>Matplotlib v3.3.2, https://matplotlib.org/</dc:title>
     </cc:Agent>
    </dc:creator>
   </cc:Work>
  </rdf:RDF>
 </metadata>
 <defs>
  <style type="text/css">*{stroke-linecap:butt;stroke-linejoin:round;}</style>
 </defs>
 <g id="figure_1">
  <g id="patch_1">
   <path d="M 0 144 
L 144 144 
L 144 0 
L 0 0 
z
" style="fill:none;"/>
  </g>
  <g id="axes_1">
   <g id="patch_2">
    <path d="M 18 67.68 
L 129.6 67.68 
L 129.6 17.28 
L 18 17.28 
z
" style="fill:none;"/>
   </g>
   <g id="PolyCollection_1">
    <path clip-path="url(#p0317962b78)" d="M 18 66.925982 
L 18 66.925982 
L 20.277551 66.925982 
L 22.555102 66.925982 
L 24.832653 66.925982 
L 27.110204 66.925982 
L 29.387755 66.925976 
L 31.665306 66.925968 
L 33.942857 66.247483 
L 36.220408 65.701574 
L 38.497959 65.659013 
L 40.77551 63.569661 
L 43.053061 60.425251 
L 45.330612 58.468272 
L 47.608163 55.567203 
L 49.885714 53.892913 
L 52.163265 47.59599 
L 54.440816 41.174989 
L 56.718367 38.130541 
L 58.995918 35.526998 
L 61.273469 30.846757 
L 63.55102 25.276452 
L 65.828571 22.552182 
L 68.106122 22.07485 
L 70.383673 20.047053 
L 72.661224 17.28 
L 74.938776 29.711216 
L 77.216327 20.484839 
L 79.493878 21.82701 
L 81.771429 26.313612 
L 84.04898 33.646533 
L 86.326531 37.916968 
L 88.604082 39.575226 
L 90.881633 44.119081 
L 93.159184 47.628096 
L 95.436735 50.745289 
L 97.714286 53.466142 
L 99.991837 56.720308 
L 102.269388 57.792995 
L 104.546939 60.632316 
L 106.82449 62.616995 
L 109.102041 63.479624 
L 111.379592 64.646 
L 113.657143 65.115434 
L 115.934694 65.92202 
L 118.212245 66.925982 
L 120.489796 66.925982 
L 122.767347 66.925982 
L 125.044898 66.925982 
L 127.322449 66.925982 
L 129.6 66.925982 
L 129.6 66.925982 
L 129.6 66.925982 
L 127.322449 66.925982 
L 125.044898 66.925982 
L 122.767347 66.925982 
L 120.489796 66.925982 
L 118.212245 66.925982 
L 115.934694 67.570636 
L 113.657143 67.612368 
L 111.379592 67.377091 
L 109.102041 67.68 
L 106.82449 66.820406 
L 104.546939 66.332438 
L 102.269388 65.639506 
L 99.991837 64.533083 
L 97.714286 62.963638 
L 95.436735 61.025854 
L 93.159184 60.804686 
L 90.881633 58.676917 
L 88.604082 57.066305 
L 86.326531 53.858862 
L 84.04898 49.856489 
L 81.771429 44.732778 
L 79.493878 44.38355 
L 77.216327 43.005315 
L 74.938776 42.119651 
L 72.661224 39.08019 
L 70.383673 39.826775 
L 68.106122 42.328387 
L 65.828571 38.797876 
L 63.55102 44.198123 
L 61.273469 45.233719 
L 58.995918 49.166523 
L 56.718367 51.080321 
L 54.440816 56.123329 
L 52.163265 60.429139 
L 49.885714 60.669269 
L 47.608163 64.070175 
L 45.330612 65.519654 
L 43.053061 66.281034 
L 40.77551 66.62351 
L 38.497959 67.279666 
L 36.220408 67.47651 
L 33.942857 67.469779 
L 31.665306 66.925992 
L 29.387755 66.925987 
L 27.110204 66.925982 
L 24.832653 66.925982 
L 22.555102 66.925982 
L 20.277551 66.925982 
L 18 66.925982 
z
" style="fill:#fc8d62;fill-opacity:0.2;"/>
   </g>
   <g id="PolyCollection_2">
    <path clip-path="url(#p0317962b78)" d="M 18 66.925982 
L 18 66.925982 
L 20.277551 66.925982 
L 22.555102 66.925982 
L 24.832653 66.925982 
L 27.110204 66.925982 
L 29.387755 66.925982 
L 31.665306 66.671754 
L 33.942857 66.053085 
L 36.220408 65.512035 
L 38.497959 63.969827 
L 40.77551 63.895411 
L 43.053061 61.813651 
L 45.330612 58.808176 
L 47.608163 57.013774 
L 49.885714 56.025504 
L 52.163265 50.766025 
L 54.440816 47.77905 
L 56.718367 43.775664 
L 58.995918 40.601314 
L 61.273469 38.861336 
L 63.55102 32.510031 
L 65.828571 28.660177 
L 68.106122 30.14781 
L 70.383673 25.430506 
L 72.661224 23.243214 
L 74.938776 30.008894 
L 77.216327 23.715258 
L 79.493878 27.355677 
L 81.771429 26.300431 
L 84.04898 31.89801 
L 86.326531 32.349161 
L 88.604082 37.933708 
L 90.881633 40.76025 
L 93.159184 42.816302 
L 95.436735 47.267275 
L 97.714286 50.759349 
L 99.991837 53.413387 
L 102.269388 56.928873 
L 104.546939 59.399348 
L 106.82449 61.308763 
L 109.102041 63.459261 
L 111.379592 64.56098 
L 113.657143 65.904253 
L 115.934694 66.583514 
L 118.212245 66.882982 
L 120.489796 66.925982 
L 122.767347 66.925982 
L 125.044898 66.925982 
L 127.322449 66.925982 
L 129.6 66.925982 
L 129.6 66.925982 
L 129.6 66.925982 
L 127.322449 66.925982 
L 125.044898 66.925982 
L 122.767347 66.925982 
L 120.489796 66.925982 
L 118.212245 66.962189 
L 115.934694 67.161994 
L 113.657143 67.529693 
L 111.379592 67.602086 
L 109.102041 67.571433 
L 106.82449 66.666555 
L 104.546939 66.742993 
L 102.269388 64.53134 
L 99.991837 61.921642 
L 97.714286 62.55316 
L 95.436735 58.961664 
L 93.159184 56.616671 
L 90.881633 54.507464 
L 88.604082 53.136509 
L 86.326531 49.916498 
L 84.04898 48.568432 
L 81.771429 45.428022 
L 79.493878 43.918207 
L 77.216327 42.62449 
L 74.938776 43.3179 
L 72.661224 44.094798 
L 70.383673 41.808394 
L 68.106122 47.01603 
L 65.828571 47.495009 
L 63.55102 49.772808 
L 61.273469 51.713539 
L 58.995918 54.445981 
L 56.718367 58.233116 
L 54.440816 61.352182 
L 52.163265 61.49838 
L 49.885714 63.895195 
L 47.608163 65.466434 
L 45.330612 66.097674 
L 43.053061 67.681852 
L 40.77551 67.342199 
L 38.497959 67.390852 
L 36.220408 67.719633 
L 33.942857 67.373947 
L 31.665306 67.10111 
L 29.387755 66.925982 
L 27.110204 66.925982 
L 24.832653 66.925982 
L 22.555102 66.925982 
L 20.277551 66.925982 
L 18 66.925982 
z
" style="fill:#fc8d62;fill-opacity:0.2;"/>
   </g>
   <g id="matplotlib.axis_1">
    <g id="xtick_1">
     <g id="line2d_1">
      <defs>
       <path d="M 0 0 
L 0 3.5 
" id="me0b8d0764b" style="stroke:#a9a9a9;stroke-width:2;"/>
      </defs>
      <g>
       <use style="fill:#a9a9a9;stroke:#a9a9a9;stroke-width:2;" x="29.387755" xlink:href="#me0b8d0764b" y="66.925982"/>
      </g>
     </g>
    </g>
    <g id="xtick_2">
     <g id="line2d_2">
      <g>
       <use style="fill:#a9a9a9;stroke:#a9a9a9;stroke-width:2;" x="52.163265" xlink:href="#me0b8d0764b" y="66.925982"/>
      </g>
     </g>
    </g>
    <g id="xtick_3">
     <g id="line2d_3">
      <g>
       <use style="fill:#a9a9a9;stroke:#a9a9a9;stroke-width:2;" x="74.938776" xlink:href="#me0b8d0764b" y="66.925982"/>
      </g>
     </g>
    </g>
    <g id="xtick_4">
     <g id="line2d_4">
      <g>
       <use style="fill:#a9a9a9;stroke:#a9a9a9;stroke-width:2;" x="97.714286" xlink:href="#me0b8d0764b" y="66.925982"/>
      </g>
     </g>
    </g>
    <g id="xtick_5">
     <g id="line2d_5">
      <g>
       <use style="fill:#a9a9a9;stroke:#a9a9a9;stroke-width:2;" x="120.489796" xlink:href="#me0b8d0764b" y="66.925982"/>
      </g>
     </g>
    </g>
   </g>
   <g id="matplotlib.axis_2"/>
   <g id="line2d_6">
    <path clip-path="url(#p0317962b78)" d="M 18 66.925982 
L 20.277551 66.925982 
L 22.555102 66.925982 
L 24.832653 66.925982 
L 27.110204 66.925982 
L 29.387755 66.925982 
L 31.665306 66.92598 
L 33.942857 66.858631 
L 36.220408 66.589042 
L 38.497959 66.469339 
L 40.77551 65.096586 
L 43.053061 63.353143 
L 45.330612 61.993963 
L 47.608163 59.818689 
L 49.885714 57.281091 
L 52.163265 54.012564 
L 54.440816 48.649159 
L 56.718367 44.605431 
L 58.995918 42.34676 
L 61.273469 38.040238 
L 63.55102 34.737287 
L 65.828571 30.675029 
L 68.106122 32.201618 
L 70.383673 29.936914 
L 72.661224 28.180095 
L 74.938776 35.915434 
L 77.216327 31.745077 
L 79.493878 33.10528 
L 81.771429 35.523195 
L 84.04898 41.751511 
L 86.326531 45.887915 
L 88.604082 48.320766 
L 90.881633 51.397999 
L 93.159184 54.216391 
L 95.436735 55.885571 
L 97.714286 58.21489 
L 99.991837 60.626695 
L 102.269388 61.71625 
L 104.546939 63.482377 
L 106.82449 64.7187 
L 109.102041 65.579812 
L 111.379592 66.011545 
L 113.657143 66.363901 
L 115.934694 66.746328 
L 118.212245 66.925982 
L 120.489796 66.925982 
L 122.767347 66.925982 
L 125.044898 66.925982 
L 127.322449 66.925982 
L 129.6 66.925982 
" style="fill:none;stroke:#fc8d62;stroke-linecap:square;stroke-width:2;"/>
   </g>
   <g id="line2d_7">
    <path clip-path="url(#p0317962b78)" d="M 18 66.925982 
L 20.277551 66.925982 
L 22.555102 66.925982 
L 24.832653 66.925982 
L 27.110204 66.925982 
L 29.387755 66.925982 
L 31.665306 66.886432 
L 33.942857 66.713516 
L 36.220408 66.615834 
L 38.497959 65.680339 
L 40.77551 65.618805 
L 43.053061 64.747752 
L 45.330612 62.452925 
L 47.608163 61.240104 
L 49.885714 59.96035 
L 52.163265 56.132203 
L 54.440816 54.565616 
L 56.718367 51.00439 
L 58.995918 47.523648 
L 61.273469 45.287437 
L 63.55102 41.14142 
L 65.828571 38.077593 
L 68.106122 38.58192 
L 70.383673 33.61945 
L 72.661224 33.669006 
L 74.938776 36.663397 
L 77.216327 33.169874 
L 79.493878 35.636942 
L 81.771429 35.864226 
L 84.04898 40.233221 
L 86.326531 41.13283 
L 88.604082 45.535108 
L 90.881633 47.633857 
L 93.159184 49.716487 
L 95.436735 53.114469 
L 97.714286 56.656254 
L 99.991837 57.667515 
L 102.269388 60.730106 
L 104.546939 63.071171 
L 106.82449 63.987659 
L 109.102041 65.515347 
L 111.379592 66.081533 
L 113.657143 66.716973 
L 115.934694 66.872754 
L 118.212245 66.922585 
L 120.489796 66.925982 
L 122.767347 66.925982 
L 125.044898 66.925982 
L 127.322449 66.925982 
L 129.6 66.925982 
" style="fill:none;stroke:#fc8d62;stroke-dasharray:1.5,1.5;stroke-dashoffset:0;stroke-opacity:0.7;stroke-width:1.5;"/>
   </g>
   <g id="patch_3">
    <path d="M 74.938776 67.68 
L 74.938776 17.28 
" style="fill:none;stroke:#a9a9a9;stroke-linecap:square;stroke-linejoin:miter;stroke-width:2;"/>
   </g>
   <g id="patch_4">
    <path d="M 129.6 67.68 
L 129.6 17.28 
" style="fill:none;"/>
   </g>
   <g id="patch_5">
    <path d="M 18 66.925982 
L 129.6 66.925982 
" style="fill:none;stroke:#a9a9a9;stroke-linecap:square;stroke-linejoin:miter;stroke-width:2;"/>
   </g>
   <g id="patch_6">
    <path d="M 18 17.28 
L 129.6 17.28 
" style="fill:none;"/>
   </g>
   <g id="legend_1">
    <g id="line2d_8">
     <path d="M 87.67 26.448906 
L 101.67 26.448906 
" style="fill:none;stroke:#fc8d62;stroke-linecap:square;stroke-width:2;"/>
    </g>
    <g id="line2d_9"/>
    <g id="text_1">
     <!-- $\theta$ -->
     <g transform="translate(107.27 28.898906)scale(0.07 -0.07)">
      <defs>
       <path d="M 45.515625 34.671875 
L 14.453125 34.671875 
Q 12.359375 20.0625 14.5 13.875 
Q 17.1875 6.25 24.46875 6.25 
Q 31.78125 6.25 37.359375 13.921875 
Q 42.234375 20.65625 45.515625 34.671875 
z
M 47.015625 42.96875 
Q 48.34375 56.84375 46.625 61.71875 
Q 43.953125 69.4375 36.765625 69.4375 
Q 29.296875 69.4375 23.828125 61.8125 
Q 19.53125 55.671875 16.15625 42.96875 
z
M 38.1875 76.765625 
Q 49.90625 76.765625 54.59375 66.40625 
Q 59.28125 56.109375 55.71875 37.84375 
Q 52.203125 19.625 43.453125 9.28125 
Q 34.765625 -1.125 23.046875 -1.125 
Q 11.28125 -1.125 6.640625 9.28125 
Q 2 19.625 5.515625 37.84375 
Q 9.078125 56.109375 17.71875 66.40625 
Q 26.421875 76.765625 38.1875 76.765625 
z
" id="DejaVuSans-Oblique-952"/>
      </defs>
      <use transform="translate(0 0.234375)" xlink:href="#DejaVuSans-Oblique-952"/>
     </g>
    </g>
    <g id="line2d_10">
     <path d="M 87.67 36.723594 
L 101.67 36.723594 
" style="fill:none;stroke:#fc8d62;stroke-dasharray:1.5,1.5;stroke-dashoffset:0;stroke-opacity:0.7;stroke-width:1.5;"/>
    </g>
    <g id="line2d_11"/>
    <g id="text_2">
     <!-- No $\theta$ -->
     <g transform="translate(107.27 39.173594)scale(0.07 -0.07)">
      <defs>
       <path d="M 9.8125 72.90625 
L 23.09375 72.90625 
L 55.421875 11.921875 
L 55.421875 72.90625 
L 64.984375 72.90625 
L 64.984375 0 
L 51.703125 0 
L 19.390625 60.984375 
L 19.390625 0 
L 9.8125 0 
z
" id="DejaVuSans-78"/>
       <path d="M 30.609375 48.390625 
Q 23.390625 48.390625 19.1875 42.75 
Q 14.984375 37.109375 14.984375 27.296875 
Q 14.984375 17.484375 19.15625 11.84375 
Q 23.34375 6.203125 30.609375 6.203125 
Q 37.796875 6.203125 41.984375 11.859375 
Q 46.1875 17.53125 46.1875 27.296875 
Q 46.1875 37.015625 41.984375 42.703125 
Q 37.796875 48.390625 30.609375 48.390625 
z
M 30.609375 56 
Q 42.328125 56 49.015625 48.375 
Q 55.71875 40.765625 55.71875 27.296875 
Q 55.71875 13.875 49.015625 6.21875 
Q 42.328125 -1.421875 30.609375 -1.421875 
Q 18.84375 -1.421875 12.171875 6.21875 
Q 5.515625 13.875 5.515625 27.296875 
Q 5.515625 40.765625 12.171875 48.375 
Q 18.84375 56 30.609375 56 
z
" id="DejaVuSans-111"/>
       <path id="DejaVuSans-32"/>
      </defs>
      <use transform="translate(0 0.234375)" xlink:href="#DejaVuSans-78"/>
      <use transform="translate(74.804688 0.234375)" xlink:href="#DejaVuSans-111"/>
      <use transform="translate(135.986328 0.234375)" xlink:href="#DejaVuSans-32"/>
      <use transform="translate(167.773438 0.234375)" xlink:href="#DejaVuSans-Oblique-952"/>
     </g>
    </g>
   </g>
  </g>
  <g id="axes_2">
   <g id="patch_7">
    <path d="M 18 128.16 
L 129.6 128.16 
L 129.6 77.76 
L 18 77.76 
z
" style="fill:none;"/>
   </g>
   <g id="PolyCollection_3">
    <path clip-path="url(#pdb71b65249)" d="M 18 120.545871 
L 18 120.465899 
L 20.277551 120.68078 
L 22.555102 120.740978 
L 24.832653 120.654702 
L 27.110204 120.470755 
L 29.387755 120.26752 
L 31.665306 120.09427 
L 33.942857 119.810316 
L 36.220408 119.25359 
L 38.497959 118.296564 
L 40.77551 116.84738 
L 43.053061 114.854401 
L 45.330612 112.309209 
L 47.608163 109.243553 
L 49.885714 105.725629 
L 52.163265 101.856224 
L 54.440816 97.765029 
L 56.718367 93.606463 
L 58.995918 89.5551 
L 61.273469 85.800408 
L 63.55102 82.541308 
L 65.828571 79.980811 
L 68.106122 78.321221 
L 70.383673 77.76 
L 72.661224 78.486504 
L 74.938776 80.669654 
L 77.216327 84.399616 
L 79.493878 89.275527 
L 81.771429 94.849737 
L 84.04898 100.70437 
L 86.326531 106.475319 
L 88.604082 111.861361 
L 90.881633 116.628989 
L 93.159184 120.613573 
L 95.436735 123.718488 
L 97.714286 125.912462 
L 99.991837 127.223765 
L 102.269388 127.729338 
L 104.546939 127.542323 
L 106.82449 126.801016 
L 109.102041 125.659727 
L 111.379592 124.280617 
L 113.657143 122.826918 
L 115.934694 121.457779 
L 118.212245 120.326594 
L 120.489796 119.584294 
L 122.767347 119.328024 
L 125.044898 119.438734 
L 127.322449 119.753557 
L 129.6 120.132275 
L 129.6 120.238804 
L 129.6 120.238804 
L 127.322449 119.885905 
L 125.044898 119.591312 
L 122.767347 119.492765 
L 120.489796 119.754785 
L 118.212245 120.505732 
L 115.934694 121.662466 
L 113.657143 123.074711 
L 111.379592 124.579491 
L 109.102041 126.007463 
L 106.82449 127.188353 
L 104.546939 127.956804 
L 102.269388 128.16 
L 99.991837 127.666557 
L 97.714286 126.376017 
L 95.436735 124.226785 
L 93.159184 121.20165 
L 90.881633 117.333036 
L 88.604082 112.710783 
L 86.326531 107.489338 
L 84.04898 101.891607 
L 81.771429 96.208352 
L 79.493878 90.793572 
L 77.216327 86.05542 
L 74.938776 82.432525 
L 72.661224 80.317987 
L 70.383673 79.618574 
L 68.106122 80.164564 
L 65.828571 81.767781 
L 63.55102 84.233779 
L 61.273469 87.364986 
L 58.995918 90.964665 
L 56.718367 94.84155 
L 54.440816 98.814765 
L 52.163265 102.718864 
L 49.885714 106.40855 
L 47.608163 109.762984 
L 45.330612 112.689358 
L 43.053061 115.126155 
L 40.77551 117.045291 
L 38.497959 118.453088 
L 36.220408 119.390291 
L 33.942857 119.936073 
L 31.665306 120.2111 
L 29.387755 120.37408 
L 27.110204 120.562185 
L 24.832653 120.72793 
L 22.555102 120.800118 
L 20.277551 120.741566 
L 18 120.545871 
z
" style="fill:#66c2a5;fill-opacity:0.2;"/>
   </g>
   <g id="matplotlib.axis_3">
    <g id="xtick_6">
     <g id="line2d_12">
      <g>
       <use style="fill:#a9a9a9;stroke:#a9a9a9;stroke-width:2;" x="29.387755" xlink:href="#me0b8d0764b" y="122.18796"/>
      </g>
     </g>
    </g>
    <g id="xtick_7">
     <g id="line2d_13">
      <g>
       <use style="fill:#a9a9a9;stroke:#a9a9a9;stroke-width:2;" x="52.163265" xlink:href="#me0b8d0764b" y="122.18796"/>
      </g>
     </g>
    </g>
    <g id="xtick_8">
     <g id="line2d_14">
      <g>
       <use style="fill:#a9a9a9;stroke:#a9a9a9;stroke-width:2;" x="74.938776" xlink:href="#me0b8d0764b" y="122.18796"/>
      </g>
     </g>
    </g>
    <g id="xtick_9">
     <g id="line2d_15">
      <g>
       <use style="fill:#a9a9a9;stroke:#a9a9a9;stroke-width:2;" x="97.714286" xlink:href="#me0b8d0764b" y="122.18796"/>
      </g>
     </g>
    </g>
    <g id="xtick_10">
     <g id="line2d_16">
      <g>
       <use style="fill:#a9a9a9;stroke:#a9a9a9;stroke-width:2;" x="120.489796" xlink:href="#me0b8d0764b" y="122.18796"/>
      </g>
     </g>
    </g>
   </g>
   <g id="matplotlib.axis_4"/>
   <g id="line2d_17">
    <path clip-path="url(#pdb71b65249)" d="M 18 120.505885 
L 20.277551 120.711173 
L 22.555102 120.770548 
L 24.832653 120.691316 
L 27.110204 120.51647 
L 29.387755 120.3208 
L 31.665306 120.152685 
L 33.942857 119.873194 
L 36.220408 119.32194 
L 38.497959 118.374826 
L 40.77551 116.946335 
L 43.053061 114.990278 
L 45.330612 112.499283 
L 47.608163 109.503269 
L 49.885714 106.06709 
L 52.163265 102.287544 
L 54.440816 98.289897 
L 56.718367 94.224006 
L 58.995918 90.259882 
L 61.273469 86.582697 
L 63.55102 83.387544 
L 65.828571 80.874296 
L 68.106122 79.242892 
L 70.383673 78.689287 
L 72.661224 79.402245 
L 74.938776 81.551089 
L 77.216327 85.227518 
L 79.493878 90.034549 
L 81.771429 95.529045 
L 84.04898 101.297989 
L 86.326531 106.982329 
L 88.604082 112.286072 
L 90.881633 116.981013 
L 93.159184 120.907612 
L 95.436735 123.972636 
L 97.714286 126.144239 
L 99.991837 127.445161 
L 102.269388 127.944669 
L 104.546939 127.749563 
L 106.82449 126.994684 
L 109.102041 125.833595 
L 111.379592 124.430054 
L 113.657143 122.950815 
L 115.934694 121.560122 
L 118.212245 120.416163 
L 120.489796 119.669539 
L 122.767347 119.410395 
L 125.044898 119.515023 
L 127.322449 119.819731 
L 129.6 120.185539 
" style="fill:none;stroke:#66c2a5;stroke-linecap:square;stroke-width:2;"/>
   </g>
   <g id="patch_8">
    <path d="M 74.938776 128.16 
L 74.938776 77.76 
" style="fill:none;stroke:#a9a9a9;stroke-linecap:square;stroke-linejoin:miter;stroke-width:2;"/>
   </g>
   <g id="patch_9">
    <path d="M 129.6 128.16 
L 129.6 77.76 
" style="fill:none;"/>
   </g>
   <g id="patch_10">
    <path d="M 18 122.18796 
L 129.6 122.18796 
" style="fill:none;stroke:#a9a9a9;stroke-linecap:square;stroke-linejoin:miter;stroke-width:2;"/>
   </g>
   <g id="patch_11">
    <path d="M 18 77.76 
L 129.6 77.76 
" style="fill:none;"/>
   </g>
  </g>
 </g>
 <defs>
  <clipPath id="p0317962b78">
   <rect height="50.4" width="111.6" x="18" y="17.28"/>
  </clipPath>
  <clipPath id="pdb71b65249">
   <rect height="50.4" width="111.6" x="18" y="77.76"/>
  </clipPath>
 </defs>
</svg>
