<?xml version="1.0" encoding="utf-8" standalone="no"?>
<!DOCTYPE svg PUBLIC "-//W3C//DTD SVG 1.1//EN"
  "http://www.w3.org/Graphics/SVG/1.1/DTD/svg11.dtd">
<!-- Created with matplotlib (https://matplotlib.org/) -->
<svg height="144pt" version="1.1" viewBox="0 0 144 144" width="144pt" xmlns="http://www.w3.org/2000/svg" xmlns:xlink="http://www.w3.org/1999/xlink">
 <metadata>
  <rdf:RDF xmlns:cc="http://creativecommons.org/ns#" xmlns:dc="http://purl.org/dc/elements/1.1/" xmlns:rdf="http://www.w3.org/1999/02/22-rdf-syntax-ns#">
   <cc:Work>
    <dc:type rdf:resource="http://purl.org/dc/dcmitype/StillImage"/>
    <dc:date>2021-10-14T22:05:39.439360</dc:date>
    <dc:format>image/svg+xml</dc:format>
    <dc:creator>
     <cc:Agent>
      <dc:title>Matplotlib v3.3.2, https://matplotlib.org/</dc:title>
     </cc:Agent>
    </dc:creator>
   </cc:Work>
  </rdf:RDF>
 </metadata>
 <defs>
  <style type="text/css">*{stroke-linecap:butt;stroke-linejoin:round;}</style>
 </defs>
 <g id="figure_1">
  <g id="patch_1">
   <path d="M 0 144 
L 144 144 
L 144 0 
L 0 0 
z
" style="fill:none;"/>
  </g>
  <g id="axes_1">
   <g id="patch_2">
    <path d="M 18 67.68 
L 129.6 67.68 
L 129.6 17.28 
L 18 17.28 
z
" style="fill:none;"/>
   </g>
   <g id="PolyCollection_1">
    <path clip-path="url(#p57f814b1fe)" d="M 18 63.511704 
L 18 63.511704 
L 20.277551 63.511704 
L 22.555102 63.511704 
L 24.832653 63.511704 
L 27.110204 63.511704 
L 29.387755 63.511675 
L 31.665306 63.42024 
L 33.942857 63.228583 
L 36.220408 62.645111 
L 38.497959 62.056366 
L 40.77551 60.782159 
L 43.053061 59.060799 
L 45.330612 56.836909 
L 47.608163 53.74193 
L 49.885714 49.889925 
L 52.163265 44.822598 
L 54.440816 40.230603 
L 56.718367 34.930378 
L 58.995918 29.08199 
L 61.273469 25.568305 
L 63.55102 21.425941 
L 65.828571 18.308339 
L 68.106122 17.28 
L 70.383673 19.336223 
L 72.661224 21.388844 
L 74.938776 29.120144 
L 77.216327 31.451483 
L 79.493878 37.465337 
L 81.771429 42.748945 
L 84.04898 49.001844 
L 86.326531 53.392442 
L 88.604082 57.6314 
L 90.881633 60.777929 
L 93.159184 62.953021 
L 95.436735 64.30259 
L 97.714286 64.606705 
L 99.991837 64.495316 
L 102.269388 64.784482 
L 104.546939 64.06556 
L 106.82449 63.75383 
L 109.102041 63.572197 
L 111.379592 63.548186 
L 113.657143 63.497201 
L 115.934694 63.43634 
L 118.212245 63.493336 
L 120.489796 63.511384 
L 122.767347 63.511704 
L 125.044898 63.511704 
L 127.322449 63.511704 
L 129.6 63.511704 
L 129.6 63.511704 
L 129.6 63.511704 
L 127.322449 63.511704 
L 125.044898 63.511704 
L 122.767347 63.511709 
L 120.489796 63.514299 
L 118.212245 63.595527 
L 115.934694 63.721261 
L 113.657143 64.076804 
L 111.379592 64.318039 
L 109.102041 64.643283 
L 106.82449 65.295671 
L 104.546939 66.196204 
L 102.269388 66.415929 
L 99.991837 66.705478 
L 97.714286 67.68 
L 95.436735 67.437125 
L 93.159184 66.664013 
L 90.881633 65.444715 
L 88.604082 62.180081 
L 86.326531 58.455289 
L 84.04898 54.885699 
L 81.771429 48.763174 
L 79.493878 43.251361 
L 77.216327 38.201455 
L 74.938776 33.559642 
L 72.661224 27.945923 
L 70.383673 25.650011 
L 68.106122 24.44338 
L 65.828571 25.423448 
L 63.55102 27.397281 
L 61.273469 30.443959 
L 58.995918 35.418485 
L 56.718367 39.363664 
L 54.440816 43.565252 
L 52.163265 48.819591 
L 49.885714 53.076916 
L 47.608163 55.991497 
L 45.330612 58.842107 
L 43.053061 60.767745 
L 40.77551 62.249452 
L 38.497959 62.989247 
L 36.220408 63.355373 
L 33.942857 63.532901 
L 31.665306 63.53883 
L 29.387755 63.511722 
L 27.110204 63.511704 
L 24.832653 63.511704 
L 22.555102 63.511704 
L 20.277551 63.511704 
L 18 63.511704 
z
" style="fill:#fc8d62;fill-opacity:0.2;"/>
   </g>
   <g id="PolyCollection_2">
    <path clip-path="url(#p57f814b1fe)" d="M 18 63.511704 
L 18 63.511704 
L 20.277551 63.511704 
L 22.555102 63.511704 
L 24.832653 63.511704 
L 27.110204 63.511704 
L 29.387755 63.511702 
L 31.665306 63.382995 
L 33.942857 63.182902 
L 36.220408 62.760326 
L 38.497959 62.116243 
L 40.77551 61.307199 
L 43.053061 60.339639 
L 45.330612 59.046729 
L 47.608163 57.095183 
L 49.885714 55.586304 
L 52.163265 53.457459 
L 54.440816 50.894595 
L 56.718367 48.97302 
L 58.995918 46.880245 
L 61.273469 44.927656 
L 63.55102 42.216652 
L 65.828571 40.776881 
L 68.106122 39.285283 
L 70.383673 39.125749 
L 72.661224 38.239926 
L 74.938776 40.299765 
L 77.216327 38.215971 
L 79.493878 39.579012 
L 81.771429 41.651611 
L 84.04898 43.412341 
L 86.326531 45.862097 
L 88.604082 47.946181 
L 90.881633 50.183918 
L 93.159184 51.495636 
L 95.436735 54.710352 
L 97.714286 56.680599 
L 99.991837 57.476025 
L 102.269388 59.38189 
L 104.546939 60.910574 
L 106.82449 61.594252 
L 109.102041 62.321265 
L 111.379592 62.925729 
L 113.657143 63.189677 
L 115.934694 63.332689 
L 118.212245 63.44819 
L 120.489796 63.511692 
L 122.767347 63.511704 
L 125.044898 63.511704 
L 127.322449 63.511704 
L 129.6 63.511704 
L 129.6 63.511704 
L 129.6 63.511704 
L 127.322449 63.511704 
L 125.044898 63.511704 
L 122.767347 63.511708 
L 120.489796 63.513206 
L 118.212245 63.601278 
L 115.934694 63.700773 
L 113.657143 63.870842 
L 111.379592 63.746944 
L 109.102041 63.522005 
L 106.82449 63.239782 
L 104.546939 62.35586 
L 102.269388 61.944301 
L 99.991837 60.700765 
L 97.714286 59.667693 
L 95.436735 58.383635 
L 93.159184 55.492928 
L 90.881633 54.653109 
L 88.604082 52.293964 
L 86.326531 50.563939 
L 84.04898 48.708625 
L 81.771429 46.571506 
L 79.493878 45.173474 
L 77.216327 44.174419 
L 74.938776 44.555765 
L 72.661224 44.3285 
L 70.383673 43.973526 
L 68.106122 44.674774 
L 65.828571 46.208813 
L 63.55102 47.521446 
L 61.273469 48.935059 
L 58.995918 50.824762 
L 56.718367 52.574148 
L 54.440816 54.490889 
L 52.163265 56.013875 
L 49.885714 58.47005 
L 47.608163 59.632428 
L 45.330612 60.791576 
L 43.053061 61.899089 
L 40.77551 62.631874 
L 38.497959 63.148709 
L 36.220408 63.346404 
L 33.942857 63.518042 
L 31.665306 63.564763 
L 29.387755 63.511705 
L 27.110204 63.511704 
L 24.832653 63.511704 
L 22.555102 63.511704 
L 20.277551 63.511704 
L 18 63.511704 
z
" style="fill:#fc8d62;fill-opacity:0.2;"/>
   </g>
   <g id="matplotlib.axis_1">
    <g id="xtick_1">
     <g id="line2d_1">
      <defs>
       <path d="M 0 0 
L 0 3.5 
" id="mf63e3fc8d2" style="stroke:#a9a9a9;stroke-width:2;"/>
      </defs>
      <g>
       <use style="fill:#a9a9a9;stroke:#a9a9a9;stroke-width:2;" x="29.387755" xlink:href="#mf63e3fc8d2" y="63.511704"/>
      </g>
     </g>
    </g>
    <g id="xtick_2">
     <g id="line2d_2">
      <g>
       <use style="fill:#a9a9a9;stroke:#a9a9a9;stroke-width:2;" x="52.163265" xlink:href="#mf63e3fc8d2" y="63.511704"/>
      </g>
     </g>
    </g>
    <g id="xtick_3">
     <g id="line2d_3">
      <g>
       <use style="fill:#a9a9a9;stroke:#a9a9a9;stroke-width:2;" x="74.938776" xlink:href="#mf63e3fc8d2" y="63.511704"/>
      </g>
     </g>
    </g>
    <g id="xtick_4">
     <g id="line2d_4">
      <g>
       <use style="fill:#a9a9a9;stroke:#a9a9a9;stroke-width:2;" x="97.714286" xlink:href="#mf63e3fc8d2" y="63.511704"/>
      </g>
     </g>
    </g>
    <g id="xtick_5">
     <g id="line2d_5">
      <g>
       <use style="fill:#a9a9a9;stroke:#a9a9a9;stroke-width:2;" x="120.489796" xlink:href="#mf63e3fc8d2" y="63.511704"/>
      </g>
     </g>
    </g>
   </g>
   <g id="matplotlib.axis_2"/>
   <g id="line2d_6">
    <path clip-path="url(#p57f814b1fe)" d="M 18 63.511704 
L 20.277551 63.511704 
L 22.555102 63.511704 
L 24.832653 63.511704 
L 27.110204 63.511704 
L 29.387755 63.511698 
L 31.665306 63.479535 
L 33.942857 63.380742 
L 36.220408 63.000242 
L 38.497959 62.522807 
L 40.77551 61.515806 
L 43.053061 59.914272 
L 45.330612 57.839508 
L 47.608163 54.866714 
L 49.885714 51.48342 
L 52.163265 46.821094 
L 54.440816 41.897928 
L 56.718367 37.147021 
L 58.995918 32.250238 
L 61.273469 28.006132 
L 63.55102 24.411611 
L 65.828571 21.865893 
L 68.106122 20.86169 
L 70.383673 22.493117 
L 72.661224 24.667383 
L 74.938776 31.339893 
L 77.216327 34.826469 
L 79.493878 40.358349 
L 81.771429 45.756059 
L 84.04898 51.943772 
L 86.326531 55.923866 
L 88.604082 59.90574 
L 90.881633 63.111322 
L 93.159184 64.808517 
L 95.436735 65.869858 
L 97.714286 66.143353 
L 99.991837 65.600397 
L 102.269388 65.600206 
L 104.546939 65.130882 
L 106.82449 64.52475 
L 109.102041 64.10774 
L 111.379592 63.933113 
L 113.657143 63.787003 
L 115.934694 63.5788 
L 118.212245 63.544431 
L 120.489796 63.512841 
L 122.767347 63.511706 
L 125.044898 63.511704 
L 127.322449 63.511704 
L 129.6 63.511704 
" style="fill:none;stroke:#fc8d62;stroke-linecap:square;stroke-width:2;"/>
   </g>
   <g id="line2d_7">
    <path clip-path="url(#p57f814b1fe)" d="M 18 63.511704 
L 20.277551 63.511704 
L 22.555102 63.511704 
L 24.832653 63.511704 
L 27.110204 63.511704 
L 29.387755 63.511704 
L 31.665306 63.473879 
L 33.942857 63.350472 
L 36.220408 63.053365 
L 38.497959 62.632476 
L 40.77551 61.969536 
L 43.053061 61.119364 
L 45.330612 59.919152 
L 47.608163 58.363805 
L 49.885714 57.028177 
L 52.163265 54.735667 
L 54.440816 52.692742 
L 56.718367 50.773584 
L 58.995918 48.852504 
L 61.273469 46.931357 
L 63.55102 44.869049 
L 65.828571 43.492847 
L 68.106122 41.980028 
L 70.383673 41.549638 
L 72.661224 41.284213 
L 74.938776 42.427765 
L 77.216327 41.195195 
L 79.493878 42.376243 
L 81.771429 44.111558 
L 84.04898 46.060483 
L 86.326531 48.213018 
L 88.604082 50.120072 
L 90.881633 52.418514 
L 93.159184 53.494282 
L 95.436735 56.546994 
L 97.714286 58.174146 
L 99.991837 59.088395 
L 102.269388 60.663095 
L 104.546939 61.633217 
L 106.82449 62.417017 
L 109.102041 62.921635 
L 111.379592 63.336336 
L 113.657143 63.53026 
L 115.934694 63.516731 
L 118.212245 63.524734 
L 120.489796 63.512449 
L 122.767347 63.511706 
L 125.044898 63.511704 
L 127.322449 63.511704 
L 129.6 63.511704 
" style="fill:none;stroke:#fc8d62;stroke-dasharray:1.5,1.5;stroke-dashoffset:0;stroke-opacity:0.7;stroke-width:1.5;"/>
   </g>
   <g id="patch_3">
    <path d="M 74.938776 67.68 
L 74.938776 17.28 
" style="fill:none;stroke:#a9a9a9;stroke-linecap:square;stroke-linejoin:miter;stroke-width:2;"/>
   </g>
   <g id="patch_4">
    <path d="M 129.6 67.68 
L 129.6 17.28 
" style="fill:none;"/>
   </g>
   <g id="patch_5">
    <path d="M 18 63.511704 
L 129.6 63.511704 
" style="fill:none;stroke:#a9a9a9;stroke-linecap:square;stroke-linejoin:miter;stroke-width:2;"/>
   </g>
   <g id="patch_6">
    <path d="M 18 17.28 
L 129.6 17.28 
" style="fill:none;"/>
   </g>
   <g id="legend_1">
    <g id="line2d_8">
     <path d="M 101.475312 26.448906 
L 115.475312 26.448906 
" style="fill:none;stroke:#fc8d62;stroke-linecap:square;stroke-width:2;"/>
    </g>
    <g id="line2d_9"/>
    <g id="text_1">
     <!--   -->
     <g transform="translate(121.075312 28.898906)scale(0.07 -0.07)">
      <defs>
       <path id="DejaVuSans-32"/>
      </defs>
      <use xlink:href="#DejaVuSans-32"/>
     </g>
    </g>
    <g id="line2d_10">
     <path d="M 101.475312 36.723594 
L 115.475312 36.723594 
" style="fill:none;stroke:#fc8d62;stroke-dasharray:1.5,1.5;stroke-dashoffset:0;stroke-opacity:0.7;stroke-width:1.5;"/>
    </g>
    <g id="line2d_11"/>
    <g id="text_2">
     <!--   -->
     <g transform="translate(121.075312 39.173594)scale(0.07 -0.07)">
      <use xlink:href="#DejaVuSans-32"/>
     </g>
    </g>
   </g>
  </g>
  <g id="axes_2">
   <g id="patch_7">
    <path d="M 18 128.16 
L 129.6 128.16 
L 129.6 77.76 
L 18 77.76 
z
" style="fill:none;"/>
   </g>
   <g id="PolyCollection_3">
    <path clip-path="url(#p6057f2a726)" d="M 18 120.635003 
L 18 120.553617 
L 20.277551 120.75943 
L 22.555102 120.831026 
L 24.832653 120.771372 
L 27.110204 120.622093 
L 29.387755 120.452249 
L 31.665306 120.302926 
L 33.942857 120.035306 
L 36.220408 119.49022 
L 38.497959 118.541572 
L 40.77551 117.098652 
L 43.053061 115.110382 
L 45.330612 112.568047 
L 47.608163 109.502486 
L 49.885714 105.980972 
L 52.163265 102.103608 
L 54.440816 97.999748 
L 56.718367 93.823765 
L 58.995918 89.750298 
L 61.273469 85.968794 
L 63.55102 82.677901 
L 65.828571 80.079933 
L 68.106122 78.375698 
L 70.383673 77.76 
L 72.661224 78.417977 
L 74.938776 80.515518 
L 77.216327 84.130737 
L 79.493878 88.890152 
L 81.771429 94.362266 
L 84.04898 100.14324 
L 86.326531 105.877487 
L 88.604082 111.267152 
L 90.881633 116.077475 
L 93.159184 120.138803 
L 95.436735 123.346281 
L 97.714286 125.658523 
L 99.991837 127.094352 
L 102.269388 127.723088 
L 104.546939 127.651471 
L 106.82449 127.012091 
L 109.102041 125.954569 
L 111.379592 124.637776 
L 113.657143 123.223049 
L 115.934694 121.868739 
L 118.212245 120.727717 
L 120.489796 119.949765 
L 122.767347 119.634054 
L 125.044898 119.67522 
L 127.322449 119.924381 
L 129.6 120.251448 
L 129.6 120.359563 
L 129.6 120.359563 
L 127.322449 120.057837 
L 125.044898 119.828118 
L 122.767347 119.798604 
L 120.489796 120.121237 
L 118.212245 120.912193 
L 115.934694 122.084747 
L 113.657143 123.486925 
L 111.379592 124.955072 
L 109.102041 126.320503 
L 106.82449 127.415054 
L 104.546939 128.07722 
L 102.269388 128.16 
L 99.991837 127.539961 
L 97.714286 126.126456 
L 95.436735 123.868065 
L 93.159184 120.756221 
L 90.881633 116.830048 
L 88.604082 112.184848 
L 86.326531 106.978614 
L 84.04898 101.434461 
L 81.771429 95.839141 
L 79.493878 90.537672 
L 77.216327 85.924037 
L 74.938776 82.420718 
L 72.661224 80.394085 
L 70.383673 79.762497 
L 68.106122 80.359421 
L 65.828571 82.001171 
L 63.55102 84.49636 
L 61.273469 87.649406 
L 58.995918 91.264807 
L 56.718367 95.151994 
L 54.440816 99.130548 
L 52.163265 103.035448 
L 49.885714 106.721877 
L 47.608163 110.069544 
L 45.330612 112.986287 
L 43.053061 115.411321 
L 40.77551 117.317292 
L 38.497959 118.711358 
L 36.220408 119.634829 
L 33.942857 120.166261 
L 31.665306 120.423593 
L 29.387755 120.561455 
L 27.110204 120.714942 
L 24.832653 120.844866 
L 22.555102 120.889956 
L 20.277551 120.820738 
L 18 120.635003 
z
" style="fill:#66c2a5;fill-opacity:0.2;"/>
   </g>
   <g id="matplotlib.axis_3">
    <g id="xtick_6">
     <g id="line2d_12">
      <g>
       <use style="fill:#a9a9a9;stroke:#a9a9a9;stroke-width:2;" x="29.387755" xlink:href="#mf63e3fc8d2" y="122.328953"/>
      </g>
     </g>
    </g>
    <g id="xtick_7">
     <g id="line2d_13">
      <g>
       <use style="fill:#a9a9a9;stroke:#a9a9a9;stroke-width:2;" x="52.163265" xlink:href="#mf63e3fc8d2" y="122.328953"/>
      </g>
     </g>
    </g>
    <g id="xtick_8">
     <g id="line2d_14">
      <g>
       <use style="fill:#a9a9a9;stroke:#a9a9a9;stroke-width:2;" x="74.938776" xlink:href="#mf63e3fc8d2" y="122.328953"/>
      </g>
     </g>
    </g>
    <g id="xtick_9">
     <g id="line2d_15">
      <g>
       <use style="fill:#a9a9a9;stroke:#a9a9a9;stroke-width:2;" x="97.714286" xlink:href="#mf63e3fc8d2" y="122.328953"/>
      </g>
     </g>
    </g>
    <g id="xtick_10">
     <g id="line2d_16">
      <g>
       <use style="fill:#a9a9a9;stroke:#a9a9a9;stroke-width:2;" x="120.489796" xlink:href="#mf63e3fc8d2" y="122.328953"/>
      </g>
     </g>
    </g>
   </g>
   <g id="matplotlib.axis_4"/>
   <g id="line2d_17">
    <path clip-path="url(#p6057f2a726)" d="M 18 120.59431 
L 20.277551 120.790084 
L 22.555102 120.860491 
L 24.832653 120.808119 
L 27.110204 120.668518 
L 29.387755 120.506852 
L 31.665306 120.36326 
L 33.942857 120.100783 
L 36.220408 119.562524 
L 38.497959 118.626465 
L 40.77551 117.207972 
L 43.053061 115.260852 
L 45.330612 112.777167 
L 47.608163 109.786015 
L 49.885714 106.351425 
L 52.163265 102.569528 
L 54.440816 98.565148 
L 56.718367 94.487879 
L 58.995918 90.507553 
L 61.273469 86.8091 
L 63.55102 83.58713 
L 65.828571 81.040552 
L 68.106122 79.36756 
L 70.383673 78.761249 
L 72.661224 79.406031 
L 74.938776 81.468118 
L 77.216327 85.027387 
L 79.493878 89.713912 
L 81.771429 95.100703 
L 84.04898 100.788851 
L 86.326531 106.42805 
L 88.604082 111.726 
L 90.881633 116.453762 
L 93.159184 120.447512 
L 95.436735 123.607173 
L 97.714286 125.892489 
L 99.991837 127.317156 
L 102.269388 127.941544 
L 104.546939 127.864346 
L 106.82449 127.213572 
L 109.102041 126.137536 
L 111.379592 124.796424 
L 113.657143 123.354987 
L 115.934694 121.976743 
L 118.212245 120.819955 
L 120.489796 120.035501 
L 122.767347 119.716329 
L 125.044898 119.751669 
L 127.322449 119.991109 
L 129.6 120.305506 
" style="fill:none;stroke:#66c2a5;stroke-linecap:square;stroke-width:2;"/>
   </g>
   <g id="patch_8">
    <path d="M 74.938776 128.16 
L 74.938776 77.76 
" style="fill:none;stroke:#a9a9a9;stroke-linecap:square;stroke-linejoin:miter;stroke-width:2;"/>
   </g>
   <g id="patch_9">
    <path d="M 129.6 128.16 
L 129.6 77.76 
" style="fill:none;"/>
   </g>
   <g id="patch_10">
    <path d="M 18 122.328953 
L 129.6 122.328953 
" style="fill:none;stroke:#a9a9a9;stroke-linecap:square;stroke-linejoin:miter;stroke-width:2;"/>
   </g>
   <g id="patch_11">
    <path d="M 18 77.76 
L 129.6 77.76 
" style="fill:none;"/>
   </g>
   <g id="legend_2">
    <g id="line2d_18">
     <path d="M 101.475312 86.928906 
L 115.475312 86.928906 
" style="fill:none;stroke:#66c2a5;stroke-linecap:square;stroke-width:2;"/>
    </g>
    <g id="line2d_19"/>
    <g id="text_3">
     <!--   -->
     <g transform="translate(121.075312 89.378906)scale(0.07 -0.07)">
      <use xlink:href="#DejaVuSans-32"/>
     </g>
    </g>
   </g>
  </g>
 </g>
 <defs>
  <clipPath id="p57f814b1fe">
   <rect height="50.4" width="111.6" x="18" y="17.28"/>
  </clipPath>
  <clipPath id="p6057f2a726">
   <rect height="50.4" width="111.6" x="18" y="77.76"/>
  </clipPath>
 </defs>
</svg>
