<?xml version="1.0" encoding="utf-8" standalone="no"?>
<!DOCTYPE svg PUBLIC "-//W3C//DTD SVG 1.1//EN"
  "http://www.w3.org/Graphics/SVG/1.1/DTD/svg11.dtd">
<!-- Created with matplotlib (https://matplotlib.org/) -->
<svg height="144pt" version="1.1" viewBox="0 0 144 144" width="144pt" xmlns="http://www.w3.org/2000/svg" xmlns:xlink="http://www.w3.org/1999/xlink">
 <metadata>
  <rdf:RDF xmlns:cc="http://creativecommons.org/ns#" xmlns:dc="http://purl.org/dc/elements/1.1/" xmlns:rdf="http://www.w3.org/1999/02/22-rdf-syntax-ns#">
   <cc:Work>
    <dc:type rdf:resource="http://purl.org/dc/dcmitype/StillImage"/>
    <dc:date>2021-10-14T20:19:46.258265</dc:date>
    <dc:format>image/svg+xml</dc:format>
    <dc:creator>
     <cc:Agent>
      <dc:title>Matplotlib v3.3.2, https://matplotlib.org/</dc:title>
     </cc:Agent>
    </dc:creator>
   </cc:Work>
  </rdf:RDF>
 </metadata>
 <defs>
  <style type="text/css">*{stroke-linecap:butt;stroke-linejoin:round;}</style>
 </defs>
 <g id="figure_1">
  <g id="patch_1">
   <path d="M 0 144 
L 144 144 
L 144 0 
L 0 0 
z
" style="fill:none;"/>
  </g>
  <g id="axes_1">
   <g id="patch_2">
    <path d="M 18 67.68 
L 129.6 67.68 
L 129.6 17.28 
L 18 17.28 
z
" style="fill:none;"/>
   </g>
   <g id="PolyCollection_1">
    <path clip-path="url(#pac7cd3a3a7)" d="M 18 67.662885 
L 18 67.662885 
L 20.277551 67.662885 
L 22.555102 67.662885 
L 24.832653 67.662885 
L 27.110204 67.662885 
L 29.387755 67.66271 
L 31.665306 67.614465 
L 33.942857 67.375688 
L 36.220408 66.878022 
L 38.497959 66.023123 
L 40.77551 64.692594 
L 43.053061 62.757954 
L 45.330612 59.891924 
L 47.608163 56.602177 
L 49.885714 52.987977 
L 52.163265 48.399836 
L 54.440816 43.444387 
L 56.718367 38.468514 
L 58.995918 33.894074 
L 61.273469 28.776745 
L 63.55102 25.100616 
L 65.828571 21.762242 
L 68.106122 18.476192 
L 70.383673 17.28 
L 72.661224 17.334512 
L 74.938776 18.843975 
L 77.216327 20.052056 
L 79.493878 23.221457 
L 81.771429 26.808738 
L 84.04898 31.146878 
L 86.326531 35.420663 
L 88.604082 39.651706 
L 90.881633 43.98627 
L 93.159184 48.412794 
L 95.436735 51.981253 
L 97.714286 55.070005 
L 99.991837 57.898856 
L 102.269388 60.69858 
L 104.546939 62.610157 
L 106.82449 64.100854 
L 109.102041 65.498829 
L 111.379592 66.374986 
L 113.657143 67.090374 
L 115.934694 67.477154 
L 118.212245 67.625502 
L 120.489796 67.662882 
L 122.767347 67.662885 
L 125.044898 67.662885 
L 127.322449 67.662885 
L 129.6 67.662885 
L 129.6 67.662885 
L 129.6 67.662885 
L 127.322449 67.662885 
L 125.044898 67.662885 
L 122.767347 67.662885 
L 120.489796 67.66289 
L 118.212245 67.68 
L 115.934694 67.650671 
L 113.657143 67.458707 
L 111.379592 67.095189 
L 109.102041 66.310075 
L 106.82449 65.396934 
L 104.546939 63.981177 
L 102.269388 62.313359 
L 99.991837 59.847664 
L 97.714286 57.421872 
L 95.436735 54.521658 
L 93.159184 51.258722 
L 90.881633 47.498582 
L 88.604082 43.800317 
L 86.326531 39.190198 
L 84.04898 35.75345 
L 81.771429 31.078286 
L 79.493878 27.699249 
L 77.216327 25.398795 
L 74.938776 23.310607 
L 72.661224 22.663435 
L 70.383673 22.880664 
L 68.106122 24.217291 
L 65.828571 25.872652 
L 63.55102 29.718196 
L 61.273469 33.85004 
L 58.995918 37.974334 
L 56.718367 42.471899 
L 54.440816 46.98278 
L 52.163265 51.341399 
L 49.885714 55.383155 
L 47.608163 58.83972 
L 45.330612 61.720041 
L 43.053061 63.961709 
L 40.77551 65.595335 
L 38.497959 66.70997 
L 36.220408 67.246379 
L 33.942857 67.621587 
L 31.665306 67.6711 
L 29.387755 67.66298 
L 27.110204 67.662885 
L 24.832653 67.662885 
L 22.555102 67.662885 
L 20.277551 67.662885 
L 18 67.662885 
z
" style="fill:#fc8d62;fill-opacity:0.2;"/>
   </g>
   <g id="PolyCollection_2">
    <path clip-path="url(#pac7cd3a3a7)" d="M 18 67.662885 
L 18 67.662885 
L 20.277551 67.662885 
L 22.555102 67.662885 
L 24.832653 67.662885 
L 27.110204 67.662885 
L 29.387755 67.662824 
L 31.665306 67.588195 
L 33.942857 67.346522 
L 36.220408 66.93567 
L 38.497959 66.126186 
L 40.77551 64.78367 
L 43.053061 63.128616 
L 45.330612 60.9401 
L 47.608163 58.202252 
L 49.885714 54.898094 
L 52.163265 51.800788 
L 54.440816 47.142666 
L 56.718367 42.9158 
L 58.995918 38.721163 
L 61.273469 34.676672 
L 63.55102 30.001549 
L 65.828571 26.514925 
L 68.106122 23.569489 
L 70.383673 20.539692 
L 72.661224 19.477121 
L 74.938776 19.027054 
L 77.216327 19.641906 
L 79.493878 21.914451 
L 81.771429 24.17545 
L 84.04898 27.016567 
L 86.326531 30.982018 
L 88.604082 35.404673 
L 90.881633 39.630247 
L 93.159184 43.95987 
L 95.436735 48.298662 
L 97.714286 52.227486 
L 99.991837 55.729295 
L 102.269388 58.879634 
L 104.546939 61.285346 
L 106.82449 63.516369 
L 109.102041 65.242966 
L 111.379592 66.173013 
L 113.657143 66.973564 
L 115.934694 67.427008 
L 118.212245 67.61481 
L 120.489796 67.662884 
L 122.767347 67.662885 
L 125.044898 67.662885 
L 127.322449 67.662885 
L 129.6 67.662885 
L 129.6 67.662885 
L 129.6 67.662885 
L 127.322449 67.662885 
L 125.044898 67.662885 
L 122.767347 67.662885 
L 120.489796 67.662886 
L 118.212245 67.6891 
L 115.934694 67.664344 
L 113.657143 67.419106 
L 111.379592 66.977672 
L 109.102041 66.19505 
L 106.82449 64.678233 
L 104.546939 63.052924 
L 102.269388 60.831532 
L 99.991837 58.002643 
L 97.714286 54.703109 
L 95.436735 51.214689 
L 93.159184 47.534795 
L 90.881633 43.596278 
L 88.604082 38.739429 
L 86.326531 34.767076 
L 84.04898 31.122061 
L 81.771429 29.002181 
L 79.493878 26.030617 
L 77.216327 24.979623 
L 74.938776 23.838183 
L 72.661224 24.067223 
L 70.383673 25.854939 
L 68.106122 27.332013 
L 65.828571 30.701618 
L 63.55102 34.729308 
L 61.273469 38.627609 
L 58.995918 42.652145 
L 56.718367 46.13949 
L 54.440816 50.440708 
L 52.163265 53.80766 
L 49.885714 57.166053 
L 47.608163 59.860459 
L 45.330612 62.540307 
L 43.053061 64.39632 
L 40.77551 65.834668 
L 38.497959 66.801742 
L 36.220408 67.325987 
L 33.942857 67.625297 
L 31.665306 67.683378 
L 29.387755 67.66292 
L 27.110204 67.662885 
L 24.832653 67.662885 
L 22.555102 67.662885 
L 20.277551 67.662885 
L 18 67.662885 
z
" style="fill:#fc8d62;fill-opacity:0.2;"/>
   </g>
   <g id="matplotlib.axis_1">
    <g id="xtick_1">
     <g id="line2d_1">
      <defs>
       <path d="M 0 0 
L 0 3.5 
" id="mda3f935175" style="stroke:#a9a9a9;stroke-width:2;"/>
      </defs>
      <g>
       <use style="fill:#a9a9a9;stroke:#a9a9a9;stroke-width:2;" x="29.387755" xlink:href="#mda3f935175" y="67.662885"/>
      </g>
     </g>
    </g>
    <g id="xtick_2">
     <g id="line2d_2">
      <g>
       <use style="fill:#a9a9a9;stroke:#a9a9a9;stroke-width:2;" x="52.163265" xlink:href="#mda3f935175" y="67.662885"/>
      </g>
     </g>
    </g>
    <g id="xtick_3">
     <g id="line2d_3">
      <g>
       <use style="fill:#a9a9a9;stroke:#a9a9a9;stroke-width:2;" x="74.938776" xlink:href="#mda3f935175" y="67.662885"/>
      </g>
     </g>
    </g>
    <g id="xtick_4">
     <g id="line2d_4">
      <g>
       <use style="fill:#a9a9a9;stroke:#a9a9a9;stroke-width:2;" x="97.714286" xlink:href="#mda3f935175" y="67.662885"/>
      </g>
     </g>
    </g>
    <g id="xtick_5">
     <g id="line2d_5">
      <g>
       <use style="fill:#a9a9a9;stroke:#a9a9a9;stroke-width:2;" x="120.489796" xlink:href="#mda3f935175" y="67.662885"/>
      </g>
     </g>
    </g>
   </g>
   <g id="matplotlib.axis_2"/>
   <g id="line2d_6">
    <path clip-path="url(#pac7cd3a3a7)" d="M 18 67.662885 
L 20.277551 67.662885 
L 22.555102 67.662885 
L 24.832653 67.662885 
L 27.110204 67.662885 
L 29.387755 67.662845 
L 31.665306 67.642783 
L 33.942857 67.498637 
L 36.220408 67.062201 
L 38.497959 66.366546 
L 40.77551 65.143965 
L 43.053061 63.359832 
L 45.330612 60.805982 
L 47.608163 57.720949 
L 49.885714 54.185566 
L 52.163265 49.870618 
L 54.440816 45.213584 
L 56.718367 40.470206 
L 58.995918 35.934204 
L 61.273469 31.313392 
L 63.55102 27.409406 
L 65.828571 23.817447 
L 68.106122 21.346742 
L 70.383673 20.080332 
L 72.661224 19.998974 
L 74.938776 21.077291 
L 77.216327 22.725426 
L 79.493878 25.460353 
L 81.771429 28.943512 
L 84.04898 33.450164 
L 86.326531 37.30543 
L 88.604082 41.726012 
L 90.881633 45.742426 
L 93.159184 49.835758 
L 95.436735 53.251456 
L 97.714286 56.245938 
L 99.991837 58.87326 
L 102.269388 61.50597 
L 104.546939 63.295667 
L 106.82449 64.748894 
L 109.102041 65.904452 
L 111.379592 66.735087 
L 113.657143 67.27454 
L 115.934694 67.563912 
L 118.212245 67.652751 
L 120.489796 67.662886 
L 122.767347 67.662885 
L 125.044898 67.662885 
L 127.322449 67.662885 
L 129.6 67.662885 
" style="fill:none;stroke:#fc8d62;stroke-linecap:square;stroke-width:2;"/>
   </g>
   <g id="line2d_7">
    <path clip-path="url(#pac7cd3a3a7)" d="M 18 67.662885 
L 20.277551 67.662885 
L 22.555102 67.662885 
L 24.832653 67.662885 
L 27.110204 67.662885 
L 29.387755 67.662872 
L 31.665306 67.635786 
L 33.942857 67.485909 
L 36.220408 67.130829 
L 38.497959 66.463964 
L 40.77551 65.309169 
L 43.053061 63.762468 
L 45.330612 61.740204 
L 47.608163 59.031356 
L 49.885714 56.032073 
L 52.163265 52.804224 
L 54.440816 48.791687 
L 56.718367 44.527645 
L 58.995918 40.686654 
L 61.273469 36.652141 
L 63.55102 32.365429 
L 65.828571 28.608272 
L 68.106122 25.450751 
L 70.383673 23.197316 
L 72.661224 21.772172 
L 74.938776 21.432619 
L 77.216327 22.310765 
L 79.493878 23.972534 
L 81.771429 26.588815 
L 84.04898 29.069314 
L 86.326531 32.874547 
L 88.604082 37.072051 
L 90.881633 41.613262 
L 93.159184 45.747333 
L 95.436735 49.756676 
L 97.714286 53.465297 
L 99.991837 56.865969 
L 102.269388 59.855583 
L 104.546939 62.169135 
L 106.82449 64.097301 
L 109.102041 65.719008 
L 111.379592 66.575342 
L 113.657143 67.196335 
L 115.934694 67.545676 
L 118.212245 67.651955 
L 120.489796 67.662885 
L 122.767347 67.662885 
L 125.044898 67.662885 
L 127.322449 67.662885 
L 129.6 67.662885 
" style="fill:none;stroke:#fc8d62;stroke-dasharray:1.5,1.5;stroke-dashoffset:0;stroke-opacity:0.7;stroke-width:1.5;"/>
   </g>
   <g id="patch_3">
    <path d="M 74.938776 67.68 
L 74.938776 17.28 
" style="fill:none;stroke:#a9a9a9;stroke-linecap:square;stroke-linejoin:miter;stroke-width:2;"/>
   </g>
   <g id="patch_4">
    <path d="M 129.6 67.68 
L 129.6 17.28 
" style="fill:none;"/>
   </g>
   <g id="patch_5">
    <path d="M 18 67.662885 
L 129.6 67.662885 
" style="fill:none;stroke:#a9a9a9;stroke-linecap:square;stroke-linejoin:miter;stroke-width:2;"/>
   </g>
   <g id="patch_6">
    <path d="M 18 17.28 
L 129.6 17.28 
" style="fill:none;"/>
   </g>
   <g id="legend_1">
    <g id="line2d_8">
     <path d="M 101.475312 26.448906 
L 115.475312 26.448906 
" style="fill:none;stroke:#fc8d62;stroke-linecap:square;stroke-width:2;"/>
    </g>
    <g id="line2d_9"/>
    <g id="text_1">
     <!--   -->
     <g transform="translate(121.075312 28.898906)scale(0.07 -0.07)">
      <defs>
       <path id="DejaVuSans-32"/>
      </defs>
      <use xlink:href="#DejaVuSans-32"/>
     </g>
    </g>
    <g id="line2d_10">
     <path d="M 101.475312 36.723594 
L 115.475312 36.723594 
" style="fill:none;stroke:#fc8d62;stroke-dasharray:1.5,1.5;stroke-dashoffset:0;stroke-opacity:0.7;stroke-width:1.5;"/>
    </g>
    <g id="line2d_11"/>
    <g id="text_2">
     <!--   -->
     <g transform="translate(121.075312 39.173594)scale(0.07 -0.07)">
      <use xlink:href="#DejaVuSans-32"/>
     </g>
    </g>
   </g>
  </g>
  <g id="axes_2">
   <g id="patch_7">
    <path d="M 18 128.16 
L 129.6 128.16 
L 129.6 77.76 
L 18 77.76 
z
" style="fill:none;"/>
   </g>
   <g id="PolyCollection_3">
    <path clip-path="url(#p3a064cc37e)" d="M 18 120.515955 
L 18 120.433116 
L 20.277551 120.647328 
L 22.555102 120.72394 
L 24.832653 120.665707 
L 27.110204 120.514998 
L 29.387755 120.342419 
L 31.665306 120.190419 
L 33.942857 119.920398 
L 36.220408 119.373298 
L 38.497959 118.422992 
L 40.77551 116.978093 
L 43.053061 114.987498 
L 45.330612 112.442978 
L 47.608163 109.376374 
L 49.885714 105.855682 
L 52.163265 101.981492 
L 54.440816 97.883398 
L 56.718367 93.715955 
L 58.995918 89.653844 
L 61.273469 85.886482 
L 63.55102 82.612416 
L 65.828571 80.033818 
L 68.106122 78.351401 
L 70.383673 77.76 
L 72.661224 78.444997 
L 74.938776 80.57296 
L 77.216327 84.221103 
L 79.493878 89.012944 
L 81.771429 94.51277 
L 84.04898 100.313617 
L 86.326531 106.057856 
L 88.604082 111.44662 
L 90.881633 116.245126 
L 93.159184 120.284574 
L 95.436735 123.461777 
L 97.714286 125.738004 
L 99.991837 127.134709 
L 102.269388 127.723472 
L 104.546939 127.612705 
L 106.82449 126.936656 
L 109.102041 125.846486 
L 111.379592 124.502406 
L 113.657143 123.066645 
L 115.934694 121.697965 
L 118.212245 120.549325 
L 120.489796 119.770993 
L 122.767347 119.462104 
L 125.044898 119.515315 
L 127.322449 119.778626 
L 129.6 120.119426 
L 129.6 120.229217 
L 129.6 120.229217 
L 127.322449 119.913746 
L 125.044898 119.669513 
L 122.767347 119.626878 
L 120.489796 119.940313 
L 118.212245 120.72873 
L 115.934694 121.906889 
L 113.657143 123.32308 
L 111.379592 124.81304 
L 109.102041 126.207156 
L 106.82449 127.336056 
L 104.546939 128.036694 
L 102.269388 128.16 
L 99.991837 127.580012 
L 97.714286 126.203207 
L 95.436735 123.975795 
L 93.159184 120.887458 
L 90.881633 116.9762 
L 88.604082 112.3362 
L 86.326531 107.124847 
L 84.04898 101.565446 
L 81.771429 95.94587 
L 79.493878 90.613296 
L 77.216327 85.964853 
L 74.938776 82.427255 
L 72.661224 80.369779 
L 70.383673 79.711777 
L 68.106122 80.285945 
L 65.828571 81.90822 
L 63.55102 84.387023 
L 61.273469 87.526686 
L 58.995918 91.131663 
L 56.718367 95.011347 
L 54.440816 98.985226 
L 52.163265 102.888058 
L 49.885714 106.574717 
L 47.608163 109.924425 
L 45.330612 112.844572 
L 43.053061 115.274016 
L 40.77551 117.185287 
L 38.497959 118.585016 
L 36.220408 119.51373 
L 33.942857 120.048975 
L 31.665306 120.308904 
L 29.387755 120.4492 
L 27.110204 120.605363 
L 24.832653 120.737215 
L 22.555102 120.782069 
L 20.277551 120.709331 
L 18 120.515955 
z
" style="fill:#66c2a5;fill-opacity:0.2;"/>
   </g>
   <g id="matplotlib.axis_3">
    <g id="xtick_6">
     <g id="line2d_12">
      <g>
       <use style="fill:#a9a9a9;stroke:#a9a9a9;stroke-width:2;" x="29.387755" xlink:href="#mda3f935175" y="122.229642"/>
      </g>
     </g>
    </g>
    <g id="xtick_7">
     <g id="line2d_13">
      <g>
       <use style="fill:#a9a9a9;stroke:#a9a9a9;stroke-width:2;" x="52.163265" xlink:href="#mda3f935175" y="122.229642"/>
      </g>
     </g>
    </g>
    <g id="xtick_8">
     <g id="line2d_14">
      <g>
       <use style="fill:#a9a9a9;stroke:#a9a9a9;stroke-width:2;" x="74.938776" xlink:href="#mda3f935175" y="122.229642"/>
      </g>
     </g>
    </g>
    <g id="xtick_9">
     <g id="line2d_15">
      <g>
       <use style="fill:#a9a9a9;stroke:#a9a9a9;stroke-width:2;" x="97.714286" xlink:href="#mda3f935175" y="122.229642"/>
      </g>
     </g>
    </g>
    <g id="xtick_10">
     <g id="line2d_16">
      <g>
       <use style="fill:#a9a9a9;stroke:#a9a9a9;stroke-width:2;" x="120.489796" xlink:href="#mda3f935175" y="122.229642"/>
      </g>
     </g>
    </g>
   </g>
   <g id="matplotlib.axis_4"/>
   <g id="line2d_17">
    <path clip-path="url(#p3a064cc37e)" d="M 18 120.474536 
L 20.277551 120.678329 
L 22.555102 120.753005 
L 24.832653 120.701461 
L 27.110204 120.560181 
L 29.387755 120.39581 
L 31.665306 120.249662 
L 33.942857 119.984686 
L 36.220408 119.443514 
L 38.497959 118.504004 
L 40.77551 117.08169 
L 43.053061 115.130757 
L 45.330612 112.643775 
L 47.608163 109.6504 
L 49.885714 106.2152 
L 52.163265 102.434775 
L 54.440816 98.434312 
L 56.718367 94.363651 
L 58.995918 90.392754 
L 61.273469 86.706584 
L 63.55102 83.49972 
L 65.828571 80.971019 
L 68.106122 79.318673 
L 70.383673 78.735889 
L 72.661224 79.407388 
L 74.938776 81.500107 
L 77.216327 85.092978 
L 79.493878 89.81312 
L 81.771429 95.22932 
L 84.04898 100.939531 
L 86.326531 106.591351 
L 88.604082 111.89141 
L 90.881633 116.610663 
L 93.159184 120.586016 
L 95.436735 123.718786 
L 97.714286 125.970606 
L 99.991837 127.357361 
L 102.269388 127.941736 
L 104.546939 127.824699 
L 106.82449 127.136356 
L 109.102041 126.026821 
L 111.379592 124.657723 
L 113.657143 123.194862 
L 115.934694 121.802427 
L 118.212245 120.639027 
L 120.489796 119.855653 
L 122.767347 119.544491 
L 125.044898 119.592414 
L 127.322449 119.846186 
L 129.6 120.174322 
" style="fill:none;stroke:#66c2a5;stroke-linecap:square;stroke-width:2;"/>
   </g>
   <g id="patch_8">
    <path d="M 74.938776 128.16 
L 74.938776 77.76 
" style="fill:none;stroke:#a9a9a9;stroke-linecap:square;stroke-linejoin:miter;stroke-width:2;"/>
   </g>
   <g id="patch_9">
    <path d="M 129.6 128.16 
L 129.6 77.76 
" style="fill:none;"/>
   </g>
   <g id="patch_10">
    <path d="M 18 122.229642 
L 129.6 122.229642 
" style="fill:none;stroke:#a9a9a9;stroke-linecap:square;stroke-linejoin:miter;stroke-width:2;"/>
   </g>
   <g id="patch_11">
    <path d="M 18 77.76 
L 129.6 77.76 
" style="fill:none;"/>
   </g>
   <g id="legend_2">
    <g id="line2d_18">
     <path d="M 101.475312 86.928906 
L 115.475312 86.928906 
" style="fill:none;stroke:#66c2a5;stroke-linecap:square;stroke-width:2;"/>
    </g>
    <g id="line2d_19"/>
    <g id="text_3">
     <!--   -->
     <g transform="translate(121.075312 89.378906)scale(0.07 -0.07)">
      <use xlink:href="#DejaVuSans-32"/>
     </g>
    </g>
   </g>
  </g>
 </g>
 <defs>
  <clipPath id="pac7cd3a3a7">
   <rect height="50.4" width="111.6" x="18" y="17.28"/>
  </clipPath>
  <clipPath id="p3a064cc37e">
   <rect height="50.4" width="111.6" x="18" y="77.76"/>
  </clipPath>
 </defs>
</svg>
