<?xml version="1.0" encoding="utf-8" standalone="no"?>
<!DOCTYPE svg PUBLIC "-//W3C//DTD SVG 1.1//EN"
  "http://www.w3.org/Graphics/SVG/1.1/DTD/svg11.dtd">
<!-- Created with matplotlib (https://matplotlib.org/) -->
<svg height="144pt" version="1.1" viewBox="0 0 144 144" width="144pt" xmlns="http://www.w3.org/2000/svg" xmlns:xlink="http://www.w3.org/1999/xlink">
 <metadata>
  <rdf:RDF xmlns:cc="http://creativecommons.org/ns#" xmlns:dc="http://purl.org/dc/elements/1.1/" xmlns:rdf="http://www.w3.org/1999/02/22-rdf-syntax-ns#">
   <cc:Work>
    <dc:type rdf:resource="http://purl.org/dc/dcmitype/StillImage"/>
    <dc:date>2021-10-14T18:44:37.635407</dc:date>
    <dc:format>image/svg+xml</dc:format>
    <dc:creator>
     <cc:Agent>
      <dc:title>Matplotlib v3.3.2, https://matplotlib.org/</dc:title>
     </cc:Agent>
    </dc:creator>
   </cc:Work>
  </rdf:RDF>
 </metadata>
 <defs>
  <style type="text/css">*{stroke-linecap:butt;stroke-linejoin:round;}</style>
 </defs>
 <g id="figure_1">
  <g id="patch_1">
   <path d="M 0 144 
L 144 144 
L 144 0 
L 0 0 
z
" style="fill:none;"/>
  </g>
  <g id="axes_1">
   <g id="patch_2">
    <path d="M 18 67.68 
L 129.6 67.68 
L 129.6 17.28 
L 18 17.28 
z
" style="fill:none;"/>
   </g>
   <g id="PolyCollection_1">
    <path clip-path="url(#p7887998ace)" d="M 18 17.789827 
L 18 17.789827 
L 20.277551 17.789827 
L 22.555102 17.789827 
L 24.832653 17.789827 
L 27.110204 17.789827 
L 29.387755 17.789827 
L 31.665306 17.508193 
L 33.942857 17.390375 
L 36.220408 17.28 
L 38.497959 17.381409 
L 40.77551 17.617691 
L 43.053061 17.972365 
L 45.330612 19.215298 
L 47.608163 20.677931 
L 49.885714 21.574242 
L 52.163265 25.445283 
L 54.440816 23.76417 
L 56.718367 29.302667 
L 58.995918 28.443466 
L 61.273469 31.438623 
L 63.55102 37.170024 
L 65.828571 36.402816 
L 68.106122 41.155391 
L 70.383673 45.418649 
L 72.661224 41.932113 
L 74.938776 49.010607 
L 77.216327 47.425992 
L 79.493878 47.034551 
L 81.771429 48.182871 
L 84.04898 44.972733 
L 86.326531 43.546744 
L 88.604082 39.994038 
L 90.881633 37.956118 
L 93.159184 33.179418 
L 95.436735 31.527271 
L 97.714286 27.418458 
L 99.991837 25.935136 
L 102.269388 23.012918 
L 104.546939 20.960348 
L 106.82449 19.218738 
L 109.102041 18.698038 
L 111.379592 17.639564 
L 113.657143 17.494156 
L 115.934694 17.631988 
L 118.212245 17.605276 
L 120.489796 17.789351 
L 122.767347 17.789826 
L 125.044898 17.789827 
L 127.322449 17.789827 
L 129.6 17.789827 
L 129.6 17.789827 
L 129.6 17.789827 
L 127.322449 17.789827 
L 125.044898 17.789827 
L 122.767347 17.789828 
L 120.489796 17.79058 
L 118.212245 18.06705 
L 115.934694 18.516741 
L 113.657143 19.199365 
L 111.379592 20.252453 
L 109.102041 21.886862 
L 106.82449 24.048392 
L 104.546939 27.061784 
L 102.269388 30.214122 
L 99.991837 34.65115 
L 97.714286 38.508408 
L 95.436735 43.743159 
L 93.159184 46.085762 
L 90.881633 51.072105 
L 88.604082 56.902158 
L 86.326531 59.207212 
L 84.04898 62.759204 
L 81.771429 64.949103 
L 79.493878 66.174021 
L 77.216327 67.68 
L 74.938776 60.305117 
L 72.661224 60.845099 
L 70.383673 59.038715 
L 68.106122 56.905008 
L 65.828571 54.043446 
L 63.55102 49.82524 
L 61.273469 48.990347 
L 58.995918 42.636103 
L 56.718367 41.429397 
L 54.440816 36.744416 
L 52.163265 33.519666 
L 49.885714 29.897833 
L 47.608163 26.594202 
L 45.330612 25.244261 
L 43.053061 23.570474 
L 40.77551 21.235406 
L 38.497959 19.930223 
L 36.220408 18.910765 
L 33.942857 18.170666 
L 31.665306 18.056389 
L 29.387755 17.789827 
L 27.110204 17.789827 
L 24.832653 17.789827 
L 22.555102 17.789827 
L 20.277551 17.789827 
L 18 17.789827 
z
" style="fill:#fc8d62;fill-opacity:0.2;"/>
   </g>
   <g id="PolyCollection_2">
    <path clip-path="url(#p7887998ace)" d="M 18 17.789827 
L 18 17.789827 
L 20.277551 17.789827 
L 22.555102 17.789827 
L 24.832653 17.789827 
L 27.110204 17.789827 
L 29.387755 17.789827 
L 31.665306 17.615947 
L 33.942857 17.509639 
L 36.220408 17.590886 
L 38.497959 17.438319 
L 40.77551 17.255648 
L 43.053061 18.566436 
L 45.330612 19.44764 
L 47.608163 20.886354 
L 49.885714 21.867746 
L 52.163265 26.522031 
L 54.440816 27.660466 
L 56.718367 32.138467 
L 58.995918 34.28175 
L 61.273469 38.750974 
L 63.55102 41.281477 
L 65.828571 41.980355 
L 68.106122 43.61772 
L 70.383673 47.92484 
L 72.661224 47.088389 
L 74.938776 51.077907 
L 77.216327 51.644572 
L 79.493878 48.290759 
L 81.771429 50.381086 
L 84.04898 44.776796 
L 86.326531 44.455854 
L 88.604082 37.693497 
L 90.881633 37.101519 
L 93.159184 33.318844 
L 95.436735 28.958467 
L 97.714286 25.778863 
L 99.991837 23.699153 
L 102.269388 20.894142 
L 104.546939 19.950241 
L 106.82449 18.7728 
L 109.102041 17.994223 
L 111.379592 17.835566 
L 113.657143 17.486394 
L 115.934694 17.409766 
L 118.212245 17.445897 
L 120.489796 17.789324 
L 122.767347 17.789826 
L 125.044898 17.789827 
L 127.322449 17.789827 
L 129.6 17.789827 
L 129.6 17.789827 
L 129.6 17.789827 
L 127.322449 17.789827 
L 125.044898 17.789827 
L 122.767347 17.789827 
L 120.489796 17.790638 
L 118.212245 18.122843 
L 115.934694 18.359883 
L 113.657143 18.854524 
L 111.379592 20.131883 
L 109.102041 21.906211 
L 106.82449 23.695118 
L 104.546939 26.165681 
L 102.269388 28.81743 
L 99.991837 33.491013 
L 97.714286 35.846371 
L 95.436735 38.923389 
L 93.159184 44.020076 
L 90.881633 48.558595 
L 88.604082 50.464362 
L 86.326531 58.401308 
L 84.04898 62.010018 
L 81.771429 66.44402 
L 79.493878 64.505326 
L 77.216327 67.280058 
L 74.938776 64.421475 
L 72.661224 67.405391 
L 70.383673 64.644393 
L 68.106122 62.036357 
L 65.828571 60.1597 
L 63.55102 55.174141 
L 61.273469 54.310525 
L 58.995918 47.624046 
L 56.718367 42.732137 
L 54.440816 40.091797 
L 52.163265 35.84587 
L 49.885714 30.663232 
L 47.608163 27.25597 
L 45.330612 26.045519 
L 43.053061 23.125535 
L 40.77551 21.357398 
L 38.497959 19.692843 
L 36.220408 18.783061 
L 33.942857 18.357128 
L 31.665306 18.029584 
L 29.387755 17.789827 
L 27.110204 17.789827 
L 24.832653 17.789827 
L 22.555102 17.789827 
L 20.277551 17.789827 
L 18 17.789827 
z
" style="fill:#fc8d62;fill-opacity:0.2;"/>
   </g>
   <g id="matplotlib.axis_1">
    <g id="xtick_1">
     <g id="line2d_1">
      <defs>
       <path d="M 0 0 
L 0 3.5 
" id="m647025e1cb" style="stroke:#a9a9a9;stroke-width:2;"/>
      </defs>
      <g>
       <use style="fill:#a9a9a9;stroke:#a9a9a9;stroke-width:2;" x="29.387755" xlink:href="#m647025e1cb" y="17.789827"/>
      </g>
     </g>
    </g>
    <g id="xtick_2">
     <g id="line2d_2">
      <g>
       <use style="fill:#a9a9a9;stroke:#a9a9a9;stroke-width:2;" x="52.163265" xlink:href="#m647025e1cb" y="17.789827"/>
      </g>
     </g>
    </g>
    <g id="xtick_3">
     <g id="line2d_3">
      <g>
       <use style="fill:#a9a9a9;stroke:#a9a9a9;stroke-width:2;" x="74.938776" xlink:href="#m647025e1cb" y="17.789827"/>
      </g>
     </g>
    </g>
    <g id="xtick_4">
     <g id="line2d_4">
      <g>
       <use style="fill:#a9a9a9;stroke:#a9a9a9;stroke-width:2;" x="97.714286" xlink:href="#m647025e1cb" y="17.789827"/>
      </g>
     </g>
    </g>
    <g id="xtick_5">
     <g id="line2d_5">
      <g>
       <use style="fill:#a9a9a9;stroke:#a9a9a9;stroke-width:2;" x="120.489796" xlink:href="#m647025e1cb" y="17.789827"/>
      </g>
     </g>
    </g>
   </g>
   <g id="matplotlib.axis_2"/>
   <g id="line2d_6">
    <path clip-path="url(#p7887998ace)" d="M 18 17.789827 
L 20.277551 17.789827 
L 22.555102 17.789827 
L 24.832653 17.789827 
L 27.110204 17.789827 
L 29.387755 17.789827 
L 31.665306 17.782291 
L 33.942857 17.780521 
L 36.220408 18.095383 
L 38.497959 18.655816 
L 40.77551 19.426549 
L 43.053061 20.771419 
L 45.330612 22.229779 
L 47.608163 23.636067 
L 49.885714 25.736038 
L 52.163265 29.482474 
L 54.440816 30.254293 
L 56.718367 35.366032 
L 58.995918 35.539784 
L 61.273469 40.214485 
L 63.55102 43.497632 
L 65.828571 45.223131 
L 68.106122 49.0302 
L 70.383673 52.228682 
L 72.661224 51.388606 
L 74.938776 54.657862 
L 77.216327 57.552996 
L 79.493878 56.604286 
L 81.771429 56.565987 
L 84.04898 53.865969 
L 86.326531 51.376978 
L 88.604082 48.448098 
L 90.881633 44.514112 
L 93.159184 39.63259 
L 95.436735 37.635215 
L 97.714286 32.963433 
L 99.991837 30.293143 
L 102.269388 26.61352 
L 104.546939 24.011066 
L 106.82449 21.633565 
L 109.102041 20.29245 
L 111.379592 18.946009 
L 113.657143 18.346761 
L 115.934694 18.074364 
L 118.212245 17.836163 
L 120.489796 17.789966 
L 122.767347 17.789827 
L 125.044898 17.789827 
L 127.322449 17.789827 
L 129.6 17.789827 
" style="fill:none;stroke:#fc8d62;stroke-linecap:square;stroke-width:2;"/>
   </g>
   <g id="line2d_7">
    <path clip-path="url(#p7887998ace)" d="M 18 17.789827 
L 20.277551 17.789827 
L 22.555102 17.789827 
L 24.832653 17.789827 
L 27.110204 17.789827 
L 29.387755 17.789827 
L 31.665306 17.822765 
L 33.942857 17.933383 
L 36.220408 18.186973 
L 38.497959 18.565581 
L 40.77551 19.306523 
L 43.053061 20.845986 
L 45.330612 22.74658 
L 47.608163 24.071162 
L 49.885714 26.265489 
L 52.163265 31.183951 
L 54.440816 33.876132 
L 56.718367 37.435302 
L 58.995918 40.952898 
L 61.273469 46.53075 
L 63.55102 48.227809 
L 65.828571 51.070027 
L 68.106122 52.827039 
L 70.383673 56.284616 
L 72.661224 57.24689 
L 74.938776 57.749691 
L 77.216327 59.462315 
L 79.493878 56.398043 
L 81.771429 58.412553 
L 84.04898 53.393407 
L 86.326531 51.428581 
L 88.604082 44.078929 
L 90.881633 42.830057 
L 93.159184 38.66946 
L 95.436735 33.940928 
L 97.714286 30.812617 
L 99.991837 28.595083 
L 102.269388 24.855786 
L 104.546939 23.057961 
L 106.82449 21.233959 
L 109.102041 19.950217 
L 111.379592 18.983725 
L 113.657143 18.170459 
L 115.934694 17.884825 
L 118.212245 17.78437 
L 120.489796 17.789981 
L 122.767347 17.789827 
L 125.044898 17.789827 
L 127.322449 17.789827 
L 129.6 17.789827 
" style="fill:none;stroke:#fc8d62;stroke-dasharray:1.5,1.5;stroke-dashoffset:0;stroke-opacity:0.7;stroke-width:1.5;"/>
   </g>
   <g id="patch_3">
    <path d="M 74.938776 67.68 
L 74.938776 17.28 
" style="fill:none;stroke:#a9a9a9;stroke-linecap:square;stroke-linejoin:miter;stroke-width:2;"/>
   </g>
   <g id="patch_4">
    <path d="M 129.6 67.68 
L 129.6 17.28 
" style="fill:none;"/>
   </g>
   <g id="patch_5">
    <path d="M 18 17.789827 
L 129.6 17.789827 
" style="fill:none;stroke:#a9a9a9;stroke-linecap:square;stroke-linejoin:miter;stroke-width:2;"/>
   </g>
   <g id="patch_6">
    <path d="M 18 17.28 
L 129.6 17.28 
" style="fill:none;"/>
   </g>
   <g id="legend_1">
    <g id="line2d_8">
     <path d="M 24.3 47.199531 
L 38.3 47.199531 
" style="fill:none;stroke:#fc8d62;stroke-linecap:square;stroke-width:2;"/>
    </g>
    <g id="line2d_9"/>
    <g id="text_1">
     <!--   -->
     <g transform="translate(43.9 49.649531)scale(0.07 -0.07)">
      <defs>
       <path id="DejaVuSans-32"/>
      </defs>
      <use xlink:href="#DejaVuSans-32"/>
     </g>
    </g>
    <g id="line2d_10">
     <path d="M 24.3 57.474219 
L 38.3 57.474219 
" style="fill:none;stroke:#fc8d62;stroke-dasharray:1.5,1.5;stroke-dashoffset:0;stroke-opacity:0.7;stroke-width:1.5;"/>
    </g>
    <g id="line2d_11"/>
    <g id="text_2">
     <!--   -->
     <g transform="translate(43.9 59.924219)scale(0.07 -0.07)">
      <use xlink:href="#DejaVuSans-32"/>
     </g>
    </g>
   </g>
  </g>
  <g id="axes_2">
   <g id="patch_7">
    <path d="M 18 128.16 
L 129.6 128.16 
L 129.6 77.76 
L 18 77.76 
z
" style="fill:none;"/>
   </g>
   <g id="PolyCollection_3">
    <path clip-path="url(#p075b71622d)" d="M 18 120.553941 
L 18 120.47684 
L 20.277551 120.690597 
L 22.555102 120.762247 
L 24.832653 120.69714 
L 27.110204 120.538571 
L 29.387755 120.358337 
L 31.665306 120.200727 
L 33.942857 119.926189 
L 36.220408 119.37474 
L 38.497959 118.419915 
L 40.77551 116.970904 
L 43.053061 114.977386 
L 45.330612 112.431344 
L 47.608163 109.364294 
L 49.885714 105.844061 
L 52.163265 101.970881 
L 54.440816 97.874146 
L 56.718367 93.708146 
L 58.995918 89.647323 
L 61.273469 85.880974 
L 63.55102 82.607681 
L 65.828571 80.029871 
L 68.106122 78.348766 
L 70.383673 77.76 
L 72.661224 78.450106 
L 74.938776 80.586927 
L 77.216327 84.250358 
L 79.493878 89.059149 
L 81.771429 94.574571 
L 84.04898 100.387293 
L 86.326531 106.13822 
L 88.604082 111.527874 
L 90.881633 116.321662 
L 93.159184 120.351719 
L 95.436735 123.516398 
L 97.714286 125.778398 
L 99.991837 127.159903 
L 102.269388 127.73307 
L 104.546939 127.607297 
L 106.82449 126.917839 
L 109.102041 125.816973 
L 111.379592 124.465787 
L 113.657143 123.027249 
L 115.934694 121.660783 
L 118.212245 120.519727 
L 120.489796 119.753746 
L 122.767347 119.460717 
L 125.044898 119.529964 
L 127.322449 119.807156 
L 129.6 120.158027 
L 129.6 120.259202 
L 129.6 120.259202 
L 127.322449 119.932082 
L 125.044898 119.673588 
L 122.767347 119.616036 
L 120.489796 119.916479 
L 118.212245 120.696147 
L 115.934694 121.868769 
L 113.657143 123.282195 
L 111.379592 124.772677 
L 109.102041 126.171143 
L 106.82449 127.308417 
L 104.546939 128.021241 
L 102.269388 128.16 
L 99.991837 127.59752 
L 97.714286 126.238601 
L 95.436735 124.02709 
L 93.159184 120.9504 
L 90.881633 117.0452 
L 88.604082 112.404987 
L 86.326531 107.186776 
L 84.04898 101.613998 
L 81.771429 95.975411 
L 79.493878 90.62 
L 77.216327 85.947674 
L 74.938776 82.388531 
L 72.661224 80.316688 
L 70.383673 79.649542 
L 68.106122 80.218866 
L 65.828571 81.839689 
L 63.55102 84.31975 
L 61.273469 87.462861 
L 58.995918 91.073053 
L 56.718367 94.959323 
L 54.440816 98.940781 
L 52.163265 102.851789 
L 49.885714 106.546839 
L 47.608163 109.904825 
L 45.330612 112.832625 
L 43.053061 115.268744 
L 40.77551 117.185216 
L 38.497959 118.588796 
L 36.220408 119.520899 
L 33.942857 120.060042 
L 31.665306 120.324825 
L 29.387755 120.471264 
L 27.110204 120.635399 
L 24.832653 120.774864 
L 22.555102 120.824452 
L 20.277551 120.751587 
L 18 120.553941 
z
" style="fill:#66c2a5;fill-opacity:0.2;"/>
   </g>
   <g id="matplotlib.axis_3">
    <g id="xtick_6">
     <g id="line2d_12">
      <g>
       <use style="fill:#a9a9a9;stroke:#a9a9a9;stroke-width:2;" x="29.387755" xlink:href="#m647025e1cb" y="122.24675"/>
      </g>
     </g>
    </g>
    <g id="xtick_7">
     <g id="line2d_13">
      <g>
       <use style="fill:#a9a9a9;stroke:#a9a9a9;stroke-width:2;" x="52.163265" xlink:href="#m647025e1cb" y="122.24675"/>
      </g>
     </g>
    </g>
    <g id="xtick_8">
     <g id="line2d_14">
      <g>
       <use style="fill:#a9a9a9;stroke:#a9a9a9;stroke-width:2;" x="74.938776" xlink:href="#m647025e1cb" y="122.24675"/>
      </g>
     </g>
    </g>
    <g id="xtick_9">
     <g id="line2d_15">
      <g>
       <use style="fill:#a9a9a9;stroke:#a9a9a9;stroke-width:2;" x="97.714286" xlink:href="#m647025e1cb" y="122.24675"/>
      </g>
     </g>
    </g>
    <g id="xtick_10">
     <g id="line2d_16">
      <g>
       <use style="fill:#a9a9a9;stroke:#a9a9a9;stroke-width:2;" x="120.489796" xlink:href="#m647025e1cb" y="122.24675"/>
      </g>
     </g>
    </g>
   </g>
   <g id="matplotlib.axis_4"/>
   <g id="line2d_17">
    <path clip-path="url(#p075b71622d)" d="M 18 120.515391 
L 20.277551 120.721092 
L 22.555102 120.79335 
L 24.832653 120.736002 
L 27.110204 120.586985 
L 29.387755 120.4148 
L 31.665306 120.262776 
L 33.942857 119.993115 
L 36.220408 119.44782 
L 38.497959 118.504356 
L 40.77551 117.07806 
L 43.053061 115.123065 
L 45.330612 112.631985 
L 47.608163 109.634559 
L 49.885714 106.19545 
L 52.163265 102.411335 
L 54.440816 98.407464 
L 56.718367 94.333735 
L 58.995918 90.360188 
L 61.273469 86.671918 
L 63.55102 83.463716 
L 65.828571 80.93478 
L 68.106122 79.283816 
L 70.383673 78.704771 
L 72.661224 79.383397 
L 74.938776 81.487729 
L 77.216327 85.099016 
L 79.493878 89.839575 
L 81.771429 95.274991 
L 84.04898 101.000646 
L 86.326531 106.662498 
L 88.604082 111.966431 
L 90.881633 116.683431 
L 93.159184 120.65106 
L 95.436735 123.771744 
L 97.714286 126.0085 
L 99.991837 127.378711 
L 102.269388 127.946535 
L 104.546939 127.814269 
L 106.82449 127.113128 
L 109.102041 125.994058 
L 111.379592 124.619232 
L 113.657143 123.154722 
L 115.934694 121.764776 
L 118.212245 120.607937 
L 120.489796 119.835112 
L 122.767347 119.538376 
L 125.044898 119.601776 
L 127.322449 119.869619 
L 129.6 120.208614 
" style="fill:none;stroke:#66c2a5;stroke-linecap:square;stroke-width:2;"/>
   </g>
   <g id="patch_8">
    <path d="M 74.938776 128.16 
L 74.938776 77.76 
" style="fill:none;stroke:#a9a9a9;stroke-linecap:square;stroke-linejoin:miter;stroke-width:2;"/>
   </g>
   <g id="patch_9">
    <path d="M 129.6 128.16 
L 129.6 77.76 
" style="fill:none;"/>
   </g>
   <g id="patch_10">
    <path d="M 18 122.24675 
L 129.6 122.24675 
" style="fill:none;stroke:#a9a9a9;stroke-linecap:square;stroke-linejoin:miter;stroke-width:2;"/>
   </g>
   <g id="patch_11">
    <path d="M 18 77.76 
L 129.6 77.76 
" style="fill:none;"/>
   </g>
   <g id="legend_2">
    <g id="line2d_18">
     <path d="M 101.475312 86.928906 
L 115.475312 86.928906 
" style="fill:none;stroke:#66c2a5;stroke-linecap:square;stroke-width:2;"/>
    </g>
    <g id="line2d_19"/>
    <g id="text_3">
     <!--   -->
     <g transform="translate(121.075312 89.378906)scale(0.07 -0.07)">
      <use xlink:href="#DejaVuSans-32"/>
     </g>
    </g>
   </g>
  </g>
 </g>
 <defs>
  <clipPath id="p7887998ace">
   <rect height="50.4" width="111.6" x="18" y="17.28"/>
  </clipPath>
  <clipPath id="p075b71622d">
   <rect height="50.4" width="111.6" x="18" y="77.76"/>
  </clipPath>
 </defs>
</svg>
