<?xml version="1.0" encoding="utf-8" standalone="no"?>
<!DOCTYPE svg PUBLIC "-//W3C//DTD SVG 1.1//EN"
  "http://www.w3.org/Graphics/SVG/1.1/DTD/svg11.dtd">
<!-- Created with matplotlib (https://matplotlib.org/) -->
<svg height="144pt" version="1.1" viewBox="0 0 144 144" width="144pt" xmlns="http://www.w3.org/2000/svg" xmlns:xlink="http://www.w3.org/1999/xlink">
 <metadata>
  <rdf:RDF xmlns:cc="http://creativecommons.org/ns#" xmlns:dc="http://purl.org/dc/elements/1.1/" xmlns:rdf="http://www.w3.org/1999/02/22-rdf-syntax-ns#">
   <cc:Work>
    <dc:type rdf:resource="http://purl.org/dc/dcmitype/StillImage"/>
    <dc:date>2021-10-13T14:40:25.270164</dc:date>
    <dc:format>image/svg+xml</dc:format>
    <dc:creator>
     <cc:Agent>
      <dc:title>Matplotlib v3.3.2, https://matplotlib.org/</dc:title>
     </cc:Agent>
    </dc:creator>
   </cc:Work>
  </rdf:RDF>
 </metadata>
 <defs>
  <style type="text/css">*{stroke-linecap:butt;stroke-linejoin:round;}</style>
 </defs>
 <g id="figure_1">
  <g id="patch_1">
   <path d="M 0 144 
L 144 144 
L 144 0 
L 0 0 
z
" style="fill:none;"/>
  </g>
  <g id="axes_1">
   <g id="patch_2">
    <path d="M 18 67.68 
L 129.6 67.68 
L 129.6 17.28 
L 18 17.28 
z
" style="fill:none;"/>
   </g>
   <g id="PolyCollection_1">
    <path clip-path="url(#pc0f6d1ce63)" d="M 18 54.849786 
L 18 54.849786 
L 20.277551 54.849786 
L 22.555102 54.849786 
L 24.832653 54.849786 
L 27.110204 54.849786 
L 29.387755 54.849767 
L 31.665306 54.797125 
L 33.942857 54.631051 
L 36.220408 54.246569 
L 38.497959 53.503893 
L 40.77551 52.280759 
L 43.053061 50.430913 
L 45.330612 47.815907 
L 47.608163 44.659374 
L 49.885714 40.620783 
L 52.163265 36.240964 
L 54.440816 31.685414 
L 56.718367 26.73353 
L 58.995918 22.832239 
L 61.273469 19.405433 
L 63.55102 17.28 
L 65.828571 17.74139 
L 68.106122 18.454262 
L 70.383673 20.833581 
L 72.661224 26.514666 
L 74.938776 47.123092 
L 77.216327 37.885144 
L 79.493878 43.997689 
L 81.771429 51.423838 
L 84.04898 55.316746 
L 86.326531 60.206223 
L 88.604082 62.698784 
L 90.881633 64.324858 
L 93.159184 64.680694 
L 95.436735 63.523857 
L 97.714286 62.461339 
L 99.991837 61.138438 
L 102.269388 59.341979 
L 104.546939 57.851547 
L 106.82449 56.565837 
L 109.102041 55.812232 
L 111.379592 55.148074 
L 113.657143 54.935448 
L 115.934694 54.815735 
L 118.212245 54.81809 
L 120.489796 54.84973 
L 122.767347 54.849786 
L 125.044898 54.849786 
L 127.322449 54.849786 
L 129.6 54.849786 
L 129.6 54.849786 
L 129.6 54.849786 
L 127.322449 54.849786 
L 125.044898 54.849786 
L 122.767347 54.849786 
L 120.489796 54.849896 
L 118.212245 54.905484 
L 115.934694 55.051642 
L 113.657143 55.337536 
L 111.379592 55.862876 
L 109.102041 56.681815 
L 106.82449 57.9759 
L 104.546939 59.544547 
L 102.269388 61.194199 
L 99.991837 63.206373 
L 97.714286 65.050682 
L 95.436735 66.552508 
L 93.159184 67.68 
L 90.881633 67.587478 
L 88.604082 66.685455 
L 86.326531 64.410292 
L 84.04898 59.567725 
L 81.771429 55.552595 
L 79.493878 49.766161 
L 77.216327 42.402064 
L 74.938776 47.953186 
L 72.661224 31.045431 
L 70.383673 26.582521 
L 68.106122 22.293287 
L 65.828571 22.366791 
L 63.55102 21.84781 
L 61.273469 23.743076 
L 58.995918 26.398988 
L 56.718367 30.167076 
L 54.440816 34.859929 
L 52.163265 38.831858 
L 49.885714 42.924269 
L 47.608163 46.596448 
L 45.330612 49.557106 
L 43.053061 51.911924 
L 40.77551 53.279084 
L 38.497959 54.230954 
L 36.220408 54.66375 
L 33.942857 54.868484 
L 31.665306 54.874921 
L 29.387755 54.849798 
L 27.110204 54.849786 
L 24.832653 54.849786 
L 22.555102 54.849786 
L 20.277551 54.849786 
L 18 54.849786 
z
" style="fill:#fc8d62;fill-opacity:0.2;"/>
   </g>
   <g id="PolyCollection_2">
    <path clip-path="url(#pc0f6d1ce63)" d="M 18 54.849786 
L 18 54.849786 
L 20.277551 54.849786 
L 22.555102 54.849786 
L 24.832653 54.849786 
L 27.110204 54.849786 
L 29.387755 54.849716 
L 31.665306 54.780189 
L 33.942857 54.62563 
L 36.220408 54.28799 
L 38.497959 53.840646 
L 40.77551 53.391015 
L 43.053061 52.524436 
L 45.330612 51.691918 
L 47.608163 50.469122 
L 49.885714 49.773276 
L 52.163265 48.860106 
L 54.440816 47.632192 
L 56.718367 46.16045 
L 58.995918 44.199006 
L 61.273469 43.752645 
L 63.55102 42.406192 
L 65.828571 41.182259 
L 68.106122 39.897615 
L 70.383673 39.288889 
L 72.661224 39.473877 
L 74.938776 51.513911 
L 77.216327 39.249216 
L 79.493878 40.31483 
L 81.771429 41.283001 
L 84.04898 41.109631 
L 86.326531 43.657157 
L 88.604082 44.420672 
L 90.881633 46.626339 
L 93.159184 47.337807 
L 95.436735 48.56143 
L 97.714286 49.499968 
L 99.991837 50.930731 
L 102.269388 51.994592 
L 104.546939 53.098791 
L 106.82449 53.413552 
L 109.102041 53.886284 
L 111.379592 54.385138 
L 113.657143 54.551773 
L 115.934694 54.687176 
L 118.212245 54.796974 
L 120.489796 54.849629 
L 122.767347 54.849786 
L 125.044898 54.849786 
L 127.322449 54.849786 
L 129.6 54.849786 
L 129.6 54.849786 
L 129.6 54.849786 
L 127.322449 54.849786 
L 125.044898 54.849786 
L 122.767347 54.849786 
L 120.489796 54.85007 
L 118.212245 54.900983 
L 115.934694 54.98445 
L 113.657143 55.045222 
L 111.379592 55.10384 
L 109.102041 54.888929 
L 106.82449 54.921297 
L 104.546939 54.326876 
L 102.269388 54.131244 
L 99.991837 53.015104 
L 97.714286 51.931534 
L 95.436735 50.958842 
L 93.159184 50.191793 
L 90.881633 49.501741 
L 88.604082 47.866346 
L 86.326531 46.571136 
L 84.04898 45.780017 
L 81.771429 45.410504 
L 79.493878 44.583888 
L 77.216327 43.227023 
L 74.938776 52.46732 
L 72.661224 43.575064 
L 70.383673 43.469187 
L 68.106122 43.959273 
L 65.828571 45.833101 
L 63.55102 45.507595 
L 61.273469 46.855848 
L 58.995918 47.112756 
L 56.718367 48.863713 
L 54.440816 50.072737 
L 52.163265 51.430525 
L 49.885714 51.81397 
L 47.608163 52.656444 
L 45.330612 53.242489 
L 43.053061 53.901016 
L 40.77551 54.41016 
L 38.497959 54.619648 
L 36.220408 54.815678 
L 33.942857 54.927023 
L 31.665306 54.885665 
L 29.387755 54.849829 
L 27.110204 54.849786 
L 24.832653 54.849786 
L 22.555102 54.849786 
L 20.277551 54.849786 
L 18 54.849786 
z
" style="fill:#fc8d62;fill-opacity:0.2;"/>
   </g>
   <g id="matplotlib.axis_1">
    <g id="xtick_1">
     <g id="line2d_1">
      <defs>
       <path d="M 0 0 
L 0 3.5 
" id="me00deba9b1" style="stroke:#a9a9a9;stroke-width:2;"/>
      </defs>
      <g>
       <use style="fill:#a9a9a9;stroke:#a9a9a9;stroke-width:2;" x="29.387755" xlink:href="#me00deba9b1" y="54.849786"/>
      </g>
     </g>
    </g>
    <g id="xtick_2">
     <g id="line2d_2">
      <g>
       <use style="fill:#a9a9a9;stroke:#a9a9a9;stroke-width:2;" x="52.163265" xlink:href="#me00deba9b1" y="54.849786"/>
      </g>
     </g>
    </g>
    <g id="xtick_3">
     <g id="line2d_3">
      <g>
       <use style="fill:#a9a9a9;stroke:#a9a9a9;stroke-width:2;" x="74.938776" xlink:href="#me00deba9b1" y="54.849786"/>
      </g>
     </g>
    </g>
    <g id="xtick_4">
     <g id="line2d_4">
      <g>
       <use style="fill:#a9a9a9;stroke:#a9a9a9;stroke-width:2;" x="97.714286" xlink:href="#me00deba9b1" y="54.849786"/>
      </g>
     </g>
    </g>
    <g id="xtick_5">
     <g id="line2d_5">
      <g>
       <use style="fill:#a9a9a9;stroke:#a9a9a9;stroke-width:2;" x="120.489796" xlink:href="#me00deba9b1" y="54.849786"/>
      </g>
     </g>
    </g>
   </g>
   <g id="matplotlib.axis_2"/>
   <g id="line2d_6">
    <path clip-path="url(#pc0f6d1ce63)" d="M 18 54.849786 
L 20.277551 54.849786 
L 22.555102 54.849786 
L 24.832653 54.849786 
L 27.110204 54.849786 
L 29.387755 54.849783 
L 31.665306 54.836023 
L 33.942857 54.749767 
L 36.220408 54.45516 
L 38.497959 53.867423 
L 40.77551 52.779921 
L 43.053061 51.171418 
L 45.330612 48.686506 
L 47.608163 45.627911 
L 49.885714 41.772526 
L 52.163265 37.536411 
L 54.440816 33.272671 
L 56.718367 28.450303 
L 58.995918 24.615613 
L 61.273469 21.574254 
L 63.55102 19.563905 
L 65.828571 20.05409 
L 68.106122 20.373774 
L 70.383673 23.708051 
L 72.661224 28.780048 
L 74.938776 47.538139 
L 77.216327 40.143604 
L 79.493878 46.881925 
L 81.771429 53.488216 
L 84.04898 57.442236 
L 86.326531 62.308257 
L 88.604082 64.69212 
L 90.881633 65.956168 
L 93.159184 66.180347 
L 95.436735 65.038183 
L 97.714286 63.75601 
L 99.991837 62.172405 
L 102.269388 60.268089 
L 104.546939 58.698047 
L 106.82449 57.270868 
L 109.102041 56.247024 
L 111.379592 55.505475 
L 113.657143 55.136492 
L 115.934694 54.933689 
L 118.212245 54.861787 
L 120.489796 54.849813 
L 122.767347 54.849786 
L 125.044898 54.849786 
L 127.322449 54.849786 
L 129.6 54.849786 
" style="fill:none;stroke:#fc8d62;stroke-linecap:square;stroke-width:2;"/>
   </g>
   <g id="line2d_7">
    <path clip-path="url(#pc0f6d1ce63)" d="M 18 54.849786 
L 20.277551 54.849786 
L 22.555102 54.849786 
L 24.832653 54.849786 
L 27.110204 54.849786 
L 29.387755 54.849773 
L 31.665306 54.832927 
L 33.942857 54.776327 
L 36.220408 54.551834 
L 38.497959 54.230147 
L 40.77551 53.900588 
L 43.053061 53.212726 
L 45.330612 52.467203 
L 47.608163 51.562783 
L 49.885714 50.793623 
L 52.163265 50.145316 
L 54.440816 48.852464 
L 56.718367 47.512081 
L 58.995918 45.655881 
L 61.273469 45.304247 
L 63.55102 43.956893 
L 65.828571 43.50768 
L 68.106122 41.928444 
L 70.383673 41.379038 
L 72.661224 41.52447 
L 74.938776 51.990616 
L 77.216327 41.23812 
L 79.493878 42.449359 
L 81.771429 43.346752 
L 84.04898 43.444824 
L 86.326531 45.114146 
L 88.604082 46.143509 
L 90.881633 48.06404 
L 93.159184 48.7648 
L 95.436735 49.760136 
L 97.714286 50.715751 
L 99.991837 51.972918 
L 102.269388 53.062918 
L 104.546939 53.712833 
L 106.82449 54.167425 
L 109.102041 54.387607 
L 111.379592 54.744489 
L 113.657143 54.798497 
L 115.934694 54.835813 
L 118.212245 54.848978 
L 120.489796 54.84985 
L 122.767347 54.849786 
L 125.044898 54.849786 
L 127.322449 54.849786 
L 129.6 54.849786 
" style="fill:none;stroke:#fc8d62;stroke-dasharray:1.5,1.5;stroke-dashoffset:0;stroke-opacity:0.7;stroke-width:1.5;"/>
   </g>
   <g id="patch_3">
    <path d="M 74.938776 67.68 
L 74.938776 17.28 
" style="fill:none;stroke:#a9a9a9;stroke-linecap:square;stroke-linejoin:miter;stroke-width:2;"/>
   </g>
   <g id="patch_4">
    <path d="M 129.6 67.68 
L 129.6 17.28 
" style="fill:none;"/>
   </g>
   <g id="patch_5">
    <path d="M 18 54.849786 
L 129.6 54.849786 
" style="fill:none;stroke:#a9a9a9;stroke-linecap:square;stroke-linejoin:miter;stroke-width:2;"/>
   </g>
   <g id="patch_6">
    <path d="M 18 17.28 
L 129.6 17.28 
" style="fill:none;"/>
   </g>
   <g id="legend_1">
    <g id="line2d_8">
     <path d="M 87.67 26.448906 
L 101.67 26.448906 
" style="fill:none;stroke:#fc8d62;stroke-linecap:square;stroke-width:2;"/>
    </g>
    <g id="line2d_9"/>
    <g id="text_1">
     <!-- $\theta$ -->
     <g transform="translate(107.27 28.898906)scale(0.07 -0.07)">
      <defs>
       <path d="M 45.515625 34.671875 
L 14.453125 34.671875 
Q 12.359375 20.0625 14.5 13.875 
Q 17.1875 6.25 24.46875 6.25 
Q 31.78125 6.25 37.359375 13.921875 
Q 42.234375 20.65625 45.515625 34.671875 
z
M 47.015625 42.96875 
Q 48.34375 56.84375 46.625 61.71875 
Q 43.953125 69.4375 36.765625 69.4375 
Q 29.296875 69.4375 23.828125 61.8125 
Q 19.53125 55.671875 16.15625 42.96875 
z
M 38.1875 76.765625 
Q 49.90625 76.765625 54.59375 66.40625 
Q 59.28125 56.109375 55.71875 37.84375 
Q 52.203125 19.625 43.453125 9.28125 
Q 34.765625 -1.125 23.046875 -1.125 
Q 11.28125 -1.125 6.640625 9.28125 
Q 2 19.625 5.515625 37.84375 
Q 9.078125 56.109375 17.71875 66.40625 
Q 26.421875 76.765625 38.1875 76.765625 
z
" id="DejaVuSans-Oblique-952"/>
      </defs>
      <use transform="translate(0 0.234375)" xlink:href="#DejaVuSans-Oblique-952"/>
     </g>
    </g>
    <g id="line2d_10">
     <path d="M 87.67 36.723594 
L 101.67 36.723594 
" style="fill:none;stroke:#fc8d62;stroke-dasharray:1.5,1.5;stroke-dashoffset:0;stroke-opacity:0.7;stroke-width:1.5;"/>
    </g>
    <g id="line2d_11"/>
    <g id="text_2">
     <!-- No $\theta$ -->
     <g transform="translate(107.27 39.173594)scale(0.07 -0.07)">
      <defs>
       <path d="M 9.8125 72.90625 
L 23.09375 72.90625 
L 55.421875 11.921875 
L 55.421875 72.90625 
L 64.984375 72.90625 
L 64.984375 0 
L 51.703125 0 
L 19.390625 60.984375 
L 19.390625 0 
L 9.8125 0 
z
" id="DejaVuSans-78"/>
       <path d="M 30.609375 48.390625 
Q 23.390625 48.390625 19.1875 42.75 
Q 14.984375 37.109375 14.984375 27.296875 
Q 14.984375 17.484375 19.15625 11.84375 
Q 23.34375 6.203125 30.609375 6.203125 
Q 37.796875 6.203125 41.984375 11.859375 
Q 46.1875 17.53125 46.1875 27.296875 
Q 46.1875 37.015625 41.984375 42.703125 
Q 37.796875 48.390625 30.609375 48.390625 
z
M 30.609375 56 
Q 42.328125 56 49.015625 48.375 
Q 55.71875 40.765625 55.71875 27.296875 
Q 55.71875 13.875 49.015625 6.21875 
Q 42.328125 -1.421875 30.609375 -1.421875 
Q 18.84375 -1.421875 12.171875 6.21875 
Q 5.515625 13.875 5.515625 27.296875 
Q 5.515625 40.765625 12.171875 48.375 
Q 18.84375 56 30.609375 56 
z
" id="DejaVuSans-111"/>
       <path id="DejaVuSans-32"/>
      </defs>
      <use transform="translate(0 0.234375)" xlink:href="#DejaVuSans-78"/>
      <use transform="translate(74.804688 0.234375)" xlink:href="#DejaVuSans-111"/>
      <use transform="translate(135.986328 0.234375)" xlink:href="#DejaVuSans-32"/>
      <use transform="translate(167.773438 0.234375)" xlink:href="#DejaVuSans-Oblique-952"/>
     </g>
    </g>
   </g>
  </g>
  <g id="axes_2">
   <g id="patch_7">
    <path d="M 18 128.16 
L 129.6 128.16 
L 129.6 77.76 
L 18 77.76 
z
" style="fill:none;"/>
   </g>
   <g id="PolyCollection_3">
    <path clip-path="url(#p50d65151d1)" d="M 18 120.532422 
L 18 120.453751 
L 20.277551 120.671765 
L 22.555102 120.732826 
L 24.832653 120.645802 
L 27.110204 120.459966 
L 29.387755 120.254494 
L 31.665306 120.079107 
L 33.942857 119.79327 
L 36.220408 119.234415 
L 38.497959 118.274732 
L 40.77551 116.822561 
L 43.053061 114.826776 
L 45.330612 112.279355 
L 47.608163 109.212427 
L 49.885714 105.694076 
L 52.163265 101.825028 
L 54.440816 97.734984 
L 56.718367 93.578356 
L 58.995918 89.529682 
L 61.273469 85.778394 
L 63.55102 82.523398 
L 65.828571 79.967797 
L 68.106122 78.314078 
L 70.383673 77.76 
L 72.661224 78.495375 
L 74.938776 80.689367 
L 77.216327 84.43277 
L 79.493878 89.322601 
L 81.771429 94.90967 
L 84.04898 100.774627 
L 86.326531 106.552338 
L 88.604082 111.940983 
L 90.881633 116.706763 
L 93.159184 120.685036 
L 95.436735 123.779301 
L 97.714286 125.958853 
L 99.991837 127.25313 
L 102.269388 127.740772 
L 104.546939 127.536507 
L 106.82449 126.779792 
L 109.102041 125.625699 
L 111.379592 124.23705 
L 113.657143 122.777523 
L 115.934694 121.406366 
L 118.212245 120.276519 
L 120.489796 119.538169 
L 122.767347 119.287826 
L 125.044898 119.406096 
L 127.322449 119.728843 
L 129.6 120.114694 
L 129.6 120.21865 
L 129.6 120.21865 
L 127.322449 119.857309 
L 125.044898 119.553287 
L 122.767347 119.445538 
L 120.489796 119.700269 
L 118.212245 120.447913 
L 115.934694 121.605572 
L 113.657143 123.022123 
L 111.379592 124.533874 
L 109.102041 125.971065 
L 106.82449 127.163031 
L 104.546939 127.943873 
L 102.269388 128.16 
L 99.991837 127.679356 
L 97.714286 126.401047 
L 95.436735 124.263089 
L 93.159184 121.247433 
L 90.881633 117.385332 
L 88.604082 112.765456 
L 86.326531 107.541596 
L 84.04898 101.936533 
L 81.771429 96.24156 
L 79.493878 90.81184 
L 77.216327 86.057329 
L 74.938776 82.418578 
L 72.661224 80.292208 
L 70.383673 79.583547 
L 68.106122 80.122786 
L 65.828571 81.721401 
L 63.55102 84.184699 
L 61.273469 87.314929 
L 58.995918 90.915198 
L 56.718367 94.794028 
L 54.440816 98.770322 
L 52.163265 102.678377 
L 49.885714 106.372624 
L 47.608163 109.731899 
L 45.330612 112.662941 
L 43.053061 115.103693 
L 40.77551 117.02603 
L 38.497959 118.436318 
L 36.220408 119.375601 
L 33.942857 119.923269 
L 31.665306 120.20001 
L 29.387755 120.364694 
L 27.110204 120.554725 
L 24.832653 120.721821 
L 22.555102 120.793822 
L 20.277551 120.732792 
L 18 120.532422 
z
" style="fill:#66c2a5;fill-opacity:0.2;"/>
   </g>
   <g id="matplotlib.axis_3">
    <g id="xtick_6">
     <g id="line2d_12">
      <g>
       <use style="fill:#a9a9a9;stroke:#a9a9a9;stroke-width:2;" x="29.387755" xlink:href="#me00deba9b1" y="122.178091"/>
      </g>
     </g>
    </g>
    <g id="xtick_7">
     <g id="line2d_13">
      <g>
       <use style="fill:#a9a9a9;stroke:#a9a9a9;stroke-width:2;" x="52.163265" xlink:href="#me00deba9b1" y="122.178091"/>
      </g>
     </g>
    </g>
    <g id="xtick_8">
     <g id="line2d_14">
      <g>
       <use style="fill:#a9a9a9;stroke:#a9a9a9;stroke-width:2;" x="74.938776" xlink:href="#me00deba9b1" y="122.178091"/>
      </g>
     </g>
    </g>
    <g id="xtick_9">
     <g id="line2d_15">
      <g>
       <use style="fill:#a9a9a9;stroke:#a9a9a9;stroke-width:2;" x="97.714286" xlink:href="#me00deba9b1" y="122.178091"/>
      </g>
     </g>
    </g>
    <g id="xtick_10">
     <g id="line2d_16">
      <g>
       <use style="fill:#a9a9a9;stroke:#a9a9a9;stroke-width:2;" x="120.489796" xlink:href="#me00deba9b1" y="122.178091"/>
      </g>
     </g>
    </g>
   </g>
   <g id="matplotlib.axis_4"/>
   <g id="line2d_17">
    <path clip-path="url(#p50d65151d1)" d="M 18 120.493087 
L 20.277551 120.702279 
L 22.555102 120.763324 
L 24.832653 120.683812 
L 27.110204 120.507345 
L 29.387755 120.309594 
L 31.665306 120.139559 
L 33.942857 119.858269 
L 36.220408 119.305008 
L 38.497959 118.355525 
L 40.77551 116.924296 
L 43.053061 114.965235 
L 45.330612 112.471148 
L 47.608163 109.472163 
L 49.885714 106.03335 
L 52.163265 102.251703 
L 54.440816 98.252653 
L 56.718367 94.186192 
L 58.995918 90.22244 
L 61.273469 86.546662 
L 63.55102 83.354048 
L 65.828571 80.844599 
L 68.106122 79.218432 
L 70.383673 78.671773 
L 72.661224 79.393791 
L 74.938776 81.553973 
L 77.216327 85.245049 
L 79.493878 90.067221 
L 81.771429 95.575615 
L 84.04898 101.35558 
L 86.326531 107.046967 
L 88.604082 112.35322 
L 90.881633 117.046047 
L 93.159184 120.966235 
L 95.436735 124.021195 
L 97.714286 126.17995 
L 99.991837 127.466243 
L 102.269388 127.950386 
L 104.546939 127.74019 
L 106.82449 126.971411 
L 109.102041 125.798382 
L 111.379592 124.385462 
L 113.657143 122.899823 
L 115.934694 121.505969 
L 118.212245 120.362216 
L 120.489796 119.619219 
L 122.767347 119.366682 
L 125.044898 119.479692 
L 127.322449 119.793076 
L 129.6 120.166672 
" style="fill:none;stroke:#66c2a5;stroke-linecap:square;stroke-width:2;"/>
   </g>
   <g id="patch_8">
    <path d="M 74.938776 128.16 
L 74.938776 77.76 
" style="fill:none;stroke:#a9a9a9;stroke-linecap:square;stroke-linejoin:miter;stroke-width:2;"/>
   </g>
   <g id="patch_9">
    <path d="M 129.6 128.16 
L 129.6 77.76 
" style="fill:none;"/>
   </g>
   <g id="patch_10">
    <path d="M 18 122.178091 
L 129.6 122.178091 
" style="fill:none;stroke:#a9a9a9;stroke-linecap:square;stroke-linejoin:miter;stroke-width:2;"/>
   </g>
   <g id="patch_11">
    <path d="M 18 77.76 
L 129.6 77.76 
" style="fill:none;"/>
   </g>
  </g>
 </g>
 <defs>
  <clipPath id="pc0f6d1ce63">
   <rect height="50.4" width="111.6" x="18" y="17.28"/>
  </clipPath>
  <clipPath id="p50d65151d1">
   <rect height="50.4" width="111.6" x="18" y="77.76"/>
  </clipPath>
 </defs>
</svg>
