<?xml version="1.0" encoding="utf-8" standalone="no"?>
<!DOCTYPE svg PUBLIC "-//W3C//DTD SVG 1.1//EN"
  "http://www.w3.org/Graphics/SVG/1.1/DTD/svg11.dtd">
<!-- Created with matplotlib (https://matplotlib.org/) -->
<svg height="144pt" version="1.1" viewBox="0 0 144 144" width="144pt" xmlns="http://www.w3.org/2000/svg" xmlns:xlink="http://www.w3.org/1999/xlink">
 <metadata>
  <rdf:RDF xmlns:cc="http://creativecommons.org/ns#" xmlns:dc="http://purl.org/dc/elements/1.1/" xmlns:rdf="http://www.w3.org/1999/02/22-rdf-syntax-ns#">
   <cc:Work>
    <dc:type rdf:resource="http://purl.org/dc/dcmitype/StillImage"/>
    <dc:date>2021-10-13T15:37:02.283781</dc:date>
    <dc:format>image/svg+xml</dc:format>
    <dc:creator>
     <cc:Agent>
      <dc:title>Matplotlib v3.3.2, https://matplotlib.org/</dc:title>
     </cc:Agent>
    </dc:creator>
   </cc:Work>
  </rdf:RDF>
 </metadata>
 <defs>
  <style type="text/css">*{stroke-linecap:butt;stroke-linejoin:round;}</style>
 </defs>
 <g id="figure_1">
  <g id="patch_1">
   <path d="M 0 144 
L 144 144 
L 144 0 
L 0 0 
z
" style="fill:none;"/>
  </g>
  <g id="axes_1">
   <g id="patch_2">
    <path d="M 18 67.68 
L 129.6 67.68 
L 129.6 17.28 
L 18 17.28 
z
" style="fill:none;"/>
   </g>
   <g id="PolyCollection_1">
    <path clip-path="url(#p9de57694f3)" d="M 18 67.538004 
L 18 67.538004 
L 20.277551 67.538004 
L 22.555102 67.538004 
L 24.832653 67.538004 
L 27.110204 67.538004 
L 29.387755 67.538003 
L 31.665306 67.476425 
L 33.942857 67.09076 
L 36.220408 66.480293 
L 38.497959 65.539409 
L 40.77551 64.474229 
L 43.053061 62.175301 
L 45.330612 59.361685 
L 47.608163 55.328877 
L 49.885714 51.758614 
L 52.163265 47.718983 
L 54.440816 42.533231 
L 56.718367 37.898649 
L 58.995918 31.513707 
L 61.273469 29.185009 
L 63.55102 23.424966 
L 65.828571 21.416043 
L 68.106122 20.322372 
L 70.383673 17.28 
L 72.661224 19.415305 
L 74.938776 28.698606 
L 77.216327 23.2291 
L 79.493878 27.990863 
L 81.771429 31.59231 
L 84.04898 35.1298 
L 86.326531 39.918819 
L 88.604082 42.313276 
L 90.881633 47.283014 
L 93.159184 51.512747 
L 95.436735 53.737726 
L 97.714286 56.756254 
L 99.991837 59.446623 
L 102.269388 61.435924 
L 104.546939 62.579363 
L 106.82449 63.995161 
L 109.102041 65.338958 
L 111.379592 66.211719 
L 113.657143 66.905901 
L 115.934694 67.28062 
L 118.212245 67.445187 
L 120.489796 67.538004 
L 122.767347 67.538004 
L 125.044898 67.538004 
L 127.322449 67.538004 
L 129.6 67.538004 
L 129.6 67.538004 
L 129.6 67.538004 
L 127.322449 67.538004 
L 125.044898 67.538004 
L 122.767347 67.538004 
L 120.489796 67.538004 
L 118.212245 67.607537 
L 115.934694 67.670759 
L 113.657143 67.68 
L 111.379592 67.51518 
L 109.102041 67.105127 
L 106.82449 66.411289 
L 104.546939 65.719283 
L 102.269388 64.765826 
L 99.991837 63.808544 
L 97.714286 61.67669 
L 95.436735 59.336232 
L 93.159184 57.61573 
L 90.881633 55.698741 
L 88.604082 50.032806 
L 86.326531 48.13484 
L 84.04898 42.910816 
L 81.771429 38.821674 
L 79.493878 37.432788 
L 77.216327 33.190342 
L 74.938776 34.082723 
L 72.661224 28.437422 
L 70.383673 27.892418 
L 68.106122 28.826569 
L 65.828571 29.907276 
L 63.55102 33.180221 
L 61.273469 37.105972 
L 58.995918 40.025696 
L 56.718367 44.794141 
L 54.440816 49.55114 
L 52.163265 53.283192 
L 49.885714 56.388155 
L 47.608163 59.826358 
L 45.330612 62.995443 
L 43.053061 65.155828 
L 40.77551 66.108857 
L 38.497959 67.105192 
L 36.220408 67.436933 
L 33.942857 67.609174 
L 31.665306 67.585167 
L 29.387755 67.538004 
L 27.110204 67.538004 
L 24.832653 67.538004 
L 22.555102 67.538004 
L 20.277551 67.538004 
L 18 67.538004 
z
" style="fill:#fc8d62;fill-opacity:0.2;"/>
   </g>
   <g id="PolyCollection_2">
    <path clip-path="url(#p9de57694f3)" d="M 18 67.538004 
L 18 67.538004 
L 20.277551 67.538004 
L 22.555102 67.538004 
L 24.832653 67.538004 
L 27.110204 67.538004 
L 29.387755 67.537995 
L 31.665306 67.420661 
L 33.942857 67.115673 
L 36.220408 66.501715 
L 38.497959 65.688629 
L 40.77551 64.873819 
L 43.053061 62.240483 
L 45.330612 61.048005 
L 47.608163 57.782215 
L 49.885714 54.94194 
L 52.163265 51.567209 
L 54.440816 47.283 
L 56.718367 43.975654 
L 58.995918 40.358369 
L 61.273469 35.848587 
L 63.55102 31.193351 
L 65.828571 28.149636 
L 68.106122 25.987392 
L 70.383673 24.240675 
L 72.661224 22.6418 
L 74.938776 28.801787 
L 77.216327 23.472349 
L 79.493878 23.355787 
L 81.771429 26.453795 
L 84.04898 30.128075 
L 86.326531 33.401904 
L 88.604082 37.509052 
L 90.881633 41.673386 
L 93.159184 44.443507 
L 95.436735 49.586302 
L 97.714286 52.7678 
L 99.991837 56.378517 
L 102.269388 58.512126 
L 104.546939 61.070945 
L 106.82449 62.776451 
L 109.102041 64.441602 
L 111.379592 65.963293 
L 113.657143 66.605322 
L 115.934694 67.127757 
L 118.212245 67.451218 
L 120.489796 67.538004 
L 122.767347 67.538004 
L 125.044898 67.538004 
L 127.322449 67.538004 
L 129.6 67.538004 
L 129.6 67.538004 
L 129.6 67.538004 
L 127.322449 67.538004 
L 125.044898 67.538004 
L 122.767347 67.538004 
L 120.489796 67.538004 
L 118.212245 67.61462 
L 115.934694 67.681303 
L 113.657143 67.67665 
L 111.379592 67.371966 
L 109.102041 66.665259 
L 106.82449 65.766644 
L 104.546939 64.2435 
L 102.269388 62.784232 
L 99.991837 60.248024 
L 97.714286 57.539423 
L 95.436735 54.641171 
L 93.159184 51.597302 
L 90.881633 48.824377 
L 88.604082 44.82462 
L 86.326531 41.272636 
L 84.04898 39.874071 
L 81.771429 35.759616 
L 79.493878 34.026053 
L 77.216327 31.573016 
L 74.938776 34.3401 
L 72.661224 32.246129 
L 70.383673 33.475989 
L 68.106122 35.75309 
L 65.828571 36.564596 
L 63.55102 40.479375 
L 61.273469 44.323576 
L 58.995918 47.19878 
L 56.718367 50.201356 
L 54.440816 54.498296 
L 52.163265 57.277669 
L 49.885714 59.464447 
L 47.608163 61.717456 
L 45.330612 64.009842 
L 43.053061 65.612529 
L 40.77551 66.619446 
L 38.497959 67.175544 
L 36.220408 67.62257 
L 33.942857 67.659099 
L 31.665306 67.610848 
L 29.387755 67.538009 
L 27.110204 67.538004 
L 24.832653 67.538004 
L 22.555102 67.538004 
L 20.277551 67.538004 
L 18 67.538004 
z
" style="fill:#fc8d62;fill-opacity:0.2;"/>
   </g>
   <g id="matplotlib.axis_1">
    <g id="xtick_1">
     <g id="line2d_1">
      <defs>
       <path d="M 0 0 
L 0 3.5 
" id="mfe3d51e7ad" style="stroke:#a9a9a9;stroke-width:2;"/>
      </defs>
      <g>
       <use style="fill:#a9a9a9;stroke:#a9a9a9;stroke-width:2;" x="29.387755" xlink:href="#mfe3d51e7ad" y="67.538004"/>
      </g>
     </g>
    </g>
    <g id="xtick_2">
     <g id="line2d_2">
      <g>
       <use style="fill:#a9a9a9;stroke:#a9a9a9;stroke-width:2;" x="52.163265" xlink:href="#mfe3d51e7ad" y="67.538004"/>
      </g>
     </g>
    </g>
    <g id="xtick_3">
     <g id="line2d_3">
      <g>
       <use style="fill:#a9a9a9;stroke:#a9a9a9;stroke-width:2;" x="74.938776" xlink:href="#mfe3d51e7ad" y="67.538004"/>
      </g>
     </g>
    </g>
    <g id="xtick_4">
     <g id="line2d_4">
      <g>
       <use style="fill:#a9a9a9;stroke:#a9a9a9;stroke-width:2;" x="97.714286" xlink:href="#mfe3d51e7ad" y="67.538004"/>
      </g>
     </g>
    </g>
    <g id="xtick_5">
     <g id="line2d_5">
      <g>
       <use style="fill:#a9a9a9;stroke:#a9a9a9;stroke-width:2;" x="120.489796" xlink:href="#mfe3d51e7ad" y="67.538004"/>
      </g>
     </g>
    </g>
   </g>
   <g id="matplotlib.axis_2"/>
   <g id="line2d_6">
    <path clip-path="url(#p9de57694f3)" d="M 18 67.538004 
L 20.277551 67.538004 
L 22.555102 67.538004 
L 24.832653 67.538004 
L 27.110204 67.538004 
L 29.387755 67.538003 
L 31.665306 67.530796 
L 33.942857 67.349967 
L 36.220408 66.958613 
L 38.497959 66.3223 
L 40.77551 65.291543 
L 43.053061 63.665564 
L 45.330612 61.178564 
L 47.608163 57.577617 
L 49.885714 54.073385 
L 52.163265 50.501087 
L 54.440816 46.042186 
L 56.718367 41.346395 
L 58.995918 35.769702 
L 61.273469 33.145491 
L 63.55102 28.302593 
L 65.828571 25.66166 
L 68.106122 24.57447 
L 70.383673 22.586209 
L 72.661224 23.926363 
L 74.938776 31.390664 
L 77.216327 28.209721 
L 79.493878 32.711826 
L 81.771429 35.206992 
L 84.04898 39.020308 
L 86.326531 44.026829 
L 88.604082 46.173041 
L 90.881633 51.490878 
L 93.159184 54.564238 
L 95.436735 56.536979 
L 97.714286 59.216472 
L 99.991837 61.627584 
L 102.269388 63.100875 
L 104.546939 64.149323 
L 106.82449 65.203225 
L 109.102041 66.222043 
L 111.379592 66.86345 
L 113.657143 67.292951 
L 115.934694 67.475689 
L 118.212245 67.526362 
L 120.489796 67.538004 
L 122.767347 67.538004 
L 125.044898 67.538004 
L 127.322449 67.538004 
L 129.6 67.538004 
" style="fill:none;stroke:#fc8d62;stroke-linecap:square;stroke-width:2;"/>
   </g>
   <g id="line2d_7">
    <path clip-path="url(#p9de57694f3)" d="M 18 67.538004 
L 20.277551 67.538004 
L 22.555102 67.538004 
L 24.832653 67.538004 
L 27.110204 67.538004 
L 29.387755 67.538002 
L 31.665306 67.515755 
L 33.942857 67.387386 
L 36.220408 67.062143 
L 38.497959 66.432087 
L 40.77551 65.746633 
L 43.053061 63.926506 
L 45.330612 62.528924 
L 47.608163 59.749835 
L 49.885714 57.203194 
L 52.163265 54.422439 
L 54.440816 50.890648 
L 56.718367 47.088505 
L 58.995918 43.778575 
L 61.273469 40.086082 
L 63.55102 35.836363 
L 65.828571 32.357116 
L 68.106122 30.870241 
L 70.383673 28.858332 
L 72.661224 27.443964 
L 74.938776 31.570944 
L 77.216327 27.522683 
L 79.493878 28.69092 
L 81.771429 31.106705 
L 84.04898 35.001073 
L 86.326531 37.33727 
L 88.604082 41.166836 
L 90.881633 45.248882 
L 93.159184 48.020404 
L 95.436735 52.113736 
L 97.714286 55.153611 
L 99.991837 58.313271 
L 102.269388 60.648179 
L 104.546939 62.657222 
L 106.82449 64.271547 
L 109.102041 65.553431 
L 111.379592 66.667629 
L 113.657143 67.140986 
L 115.934694 67.40453 
L 118.212245 67.532919 
L 120.489796 67.538004 
L 122.767347 67.538004 
L 125.044898 67.538004 
L 127.322449 67.538004 
L 129.6 67.538004 
" style="fill:none;stroke:#fc8d62;stroke-dasharray:1.5,1.5;stroke-dashoffset:0;stroke-opacity:0.7;stroke-width:1.5;"/>
   </g>
   <g id="patch_3">
    <path d="M 74.938776 67.68 
L 74.938776 17.28 
" style="fill:none;stroke:#a9a9a9;stroke-linecap:square;stroke-linejoin:miter;stroke-width:2;"/>
   </g>
   <g id="patch_4">
    <path d="M 129.6 67.68 
L 129.6 17.28 
" style="fill:none;"/>
   </g>
   <g id="patch_5">
    <path d="M 18 67.538004 
L 129.6 67.538004 
" style="fill:none;stroke:#a9a9a9;stroke-linecap:square;stroke-linejoin:miter;stroke-width:2;"/>
   </g>
   <g id="patch_6">
    <path d="M 18 17.28 
L 129.6 17.28 
" style="fill:none;"/>
   </g>
   <g id="legend_1">
    <g id="line2d_8">
     <path d="M 87.67 26.448906 
L 101.67 26.448906 
" style="fill:none;stroke:#fc8d62;stroke-linecap:square;stroke-width:2;"/>
    </g>
    <g id="line2d_9"/>
    <g id="text_1">
     <!-- $\theta$ -->
     <g transform="translate(107.27 28.898906)scale(0.07 -0.07)">
      <defs>
       <path d="M 45.515625 34.671875 
L 14.453125 34.671875 
Q 12.359375 20.0625 14.5 13.875 
Q 17.1875 6.25 24.46875 6.25 
Q 31.78125 6.25 37.359375 13.921875 
Q 42.234375 20.65625 45.515625 34.671875 
z
M 47.015625 42.96875 
Q 48.34375 56.84375 46.625 61.71875 
Q 43.953125 69.4375 36.765625 69.4375 
Q 29.296875 69.4375 23.828125 61.8125 
Q 19.53125 55.671875 16.15625 42.96875 
z
M 38.1875 76.765625 
Q 49.90625 76.765625 54.59375 66.40625 
Q 59.28125 56.109375 55.71875 37.84375 
Q 52.203125 19.625 43.453125 9.28125 
Q 34.765625 -1.125 23.046875 -1.125 
Q 11.28125 -1.125 6.640625 9.28125 
Q 2 19.625 5.515625 37.84375 
Q 9.078125 56.109375 17.71875 66.40625 
Q 26.421875 76.765625 38.1875 76.765625 
z
" id="DejaVuSans-Oblique-952"/>
      </defs>
      <use transform="translate(0 0.234375)" xlink:href="#DejaVuSans-Oblique-952"/>
     </g>
    </g>
    <g id="line2d_10">
     <path d="M 87.67 36.723594 
L 101.67 36.723594 
" style="fill:none;stroke:#fc8d62;stroke-dasharray:1.5,1.5;stroke-dashoffset:0;stroke-opacity:0.7;stroke-width:1.5;"/>
    </g>
    <g id="line2d_11"/>
    <g id="text_2">
     <!-- No $\theta$ -->
     <g transform="translate(107.27 39.173594)scale(0.07 -0.07)">
      <defs>
       <path d="M 9.8125 72.90625 
L 23.09375 72.90625 
L 55.421875 11.921875 
L 55.421875 72.90625 
L 64.984375 72.90625 
L 64.984375 0 
L 51.703125 0 
L 19.390625 60.984375 
L 19.390625 0 
L 9.8125 0 
z
" id="DejaVuSans-78"/>
       <path d="M 30.609375 48.390625 
Q 23.390625 48.390625 19.1875 42.75 
Q 14.984375 37.109375 14.984375 27.296875 
Q 14.984375 17.484375 19.15625 11.84375 
Q 23.34375 6.203125 30.609375 6.203125 
Q 37.796875 6.203125 41.984375 11.859375 
Q 46.1875 17.53125 46.1875 27.296875 
Q 46.1875 37.015625 41.984375 42.703125 
Q 37.796875 48.390625 30.609375 48.390625 
z
M 30.609375 56 
Q 42.328125 56 49.015625 48.375 
Q 55.71875 40.765625 55.71875 27.296875 
Q 55.71875 13.875 49.015625 6.21875 
Q 42.328125 -1.421875 30.609375 -1.421875 
Q 18.84375 -1.421875 12.171875 6.21875 
Q 5.515625 13.875 5.515625 27.296875 
Q 5.515625 40.765625 12.171875 48.375 
Q 18.84375 56 30.609375 56 
z
" id="DejaVuSans-111"/>
       <path id="DejaVuSans-32"/>
      </defs>
      <use transform="translate(0 0.234375)" xlink:href="#DejaVuSans-78"/>
      <use transform="translate(74.804688 0.234375)" xlink:href="#DejaVuSans-111"/>
      <use transform="translate(135.986328 0.234375)" xlink:href="#DejaVuSans-32"/>
      <use transform="translate(167.773438 0.234375)" xlink:href="#DejaVuSans-Oblique-952"/>
     </g>
    </g>
   </g>
  </g>
  <g id="axes_2">
   <g id="patch_7">
    <path d="M 18 128.16 
L 129.6 128.16 
L 129.6 77.76 
L 18 77.76 
z
" style="fill:none;"/>
   </g>
   <g id="PolyCollection_3">
    <path clip-path="url(#pcaf66be46e)" d="M 18 120.483937 
L 18 120.404852 
L 20.277551 120.623498 
L 22.555102 120.687514 
L 24.832653 120.604572 
L 27.110204 120.423259 
L 29.387755 120.221844 
L 31.665306 120.049451 
L 33.942857 119.765584 
L 36.220408 119.208405 
L 38.497959 118.25073 
L 40.77551 116.80079 
L 43.053061 114.807194 
L 45.330612 112.261773 
L 47.608163 109.196618 
L 49.885714 105.679887 
L 52.163265 101.812302 
L 54.440816 97.72368 
L 56.718367 93.568566 
L 58.995918 89.521593 
L 61.273469 85.7722 
L 63.55102 82.519228 
L 65.828571 79.965592 
L 68.106122 78.313429 
L 70.383673 77.76 
L 72.661224 78.494427 
L 74.938776 80.685736 
L 77.216327 84.422698 
L 79.493878 89.305385 
L 81.771429 94.885546 
L 84.04898 100.745034 
L 86.326531 106.519438 
L 88.604082 111.907294 
L 90.881633 116.674658 
L 93.159184 120.656507 
L 95.436735 123.755946 
L 97.714286 125.941704 
L 99.991837 127.242679 
L 102.269388 127.736805 
L 104.546939 127.538053 
L 106.82449 126.785221 
L 109.102041 125.632974 
L 111.379592 124.243928 
L 113.657143 122.781661 
L 115.934694 121.405403 
L 118.212245 120.268276 
L 120.489796 119.521167 
L 122.767347 119.261922 
L 125.044898 119.371629 
L 127.322449 119.687214 
L 129.6 120.068084 
L 129.6 120.173493 
L 129.6 120.173493 
L 127.322449 119.81782 
L 125.044898 119.521447 
L 122.767347 119.422416 
L 120.489796 119.685537 
L 118.212245 120.439759 
L 115.934694 121.602389 
L 113.657143 123.022822 
L 111.379592 124.537293 
L 109.102041 125.97583 
L 106.82449 127.167647 
L 104.546939 127.946863 
L 102.269388 128.16 
L 99.991837 127.67517 
L 97.714286 126.391829 
L 95.436735 124.248599 
L 93.159184 121.228313 
L 90.881633 117.363045 
L 88.604082 112.742266 
L 86.326531 107.520178 
L 84.04898 101.919598 
L 81.771429 96.231572 
L 79.493878 90.810442 
L 77.216327 86.064797 
L 74.938776 82.434082 
L 72.661224 80.3113 
L 70.383673 79.604038 
L 68.106122 80.142474 
L 65.828571 81.738659 
L 63.55102 84.19836 
L 61.273469 87.324184 
L 58.995918 90.91955 
L 56.718367 94.793268 
L 54.440816 98.764471 
L 52.163265 102.667694 
L 49.885714 106.357575 
L 47.608163 109.713103 
L 45.330612 112.641032 
L 43.053061 115.079382 
L 40.77551 116.999952 
L 38.497959 118.408845 
L 36.220408 119.346614 
L 33.942857 119.892139 
L 31.665306 120.16613 
L 29.387755 120.327347 
L 27.110204 120.513307 
L 24.832653 120.676256 
L 22.555102 120.745175 
L 20.277551 120.683158 
L 18 120.483937 
z
" style="fill:#66c2a5;fill-opacity:0.2;"/>
   </g>
   <g id="matplotlib.axis_3">
    <g id="xtick_6">
     <g id="line2d_12">
      <g>
       <use style="fill:#a9a9a9;stroke:#a9a9a9;stroke-width:2;" x="29.387755" xlink:href="#mfe3d51e7ad" y="122.150267"/>
      </g>
     </g>
    </g>
    <g id="xtick_7">
     <g id="line2d_13">
      <g>
       <use style="fill:#a9a9a9;stroke:#a9a9a9;stroke-width:2;" x="52.163265" xlink:href="#mfe3d51e7ad" y="122.150267"/>
      </g>
     </g>
    </g>
    <g id="xtick_8">
     <g id="line2d_14">
      <g>
       <use style="fill:#a9a9a9;stroke:#a9a9a9;stroke-width:2;" x="74.938776" xlink:href="#mfe3d51e7ad" y="122.150267"/>
      </g>
     </g>
    </g>
    <g id="xtick_9">
     <g id="line2d_15">
      <g>
       <use style="fill:#a9a9a9;stroke:#a9a9a9;stroke-width:2;" x="97.714286" xlink:href="#mfe3d51e7ad" y="122.150267"/>
      </g>
     </g>
    </g>
    <g id="xtick_10">
     <g id="line2d_16">
      <g>
       <use style="fill:#a9a9a9;stroke:#a9a9a9;stroke-width:2;" x="120.489796" xlink:href="#mfe3d51e7ad" y="122.150267"/>
      </g>
     </g>
    </g>
   </g>
   <g id="matplotlib.axis_4"/>
   <g id="line2d_17">
    <path clip-path="url(#pcaf66be46e)" d="M 18 120.444395 
L 20.277551 120.653328 
L 22.555102 120.716345 
L 24.832653 120.640414 
L 27.110204 120.468283 
L 29.387755 120.274596 
L 31.665306 120.10779 
L 33.942857 119.828861 
L 36.220408 119.277509 
L 38.497959 118.329788 
L 40.77551 116.900371 
L 43.053061 114.943288 
L 45.330612 112.451402 
L 47.608163 109.45486 
L 49.885714 106.018731 
L 52.163265 102.239998 
L 54.440816 98.244076 
L 56.718367 94.180917 
L 58.995918 90.220572 
L 61.273469 86.548192 
L 63.55102 83.358794 
L 65.828571 80.852125 
L 68.106122 79.227951 
L 70.383673 78.682019 
L 72.661224 79.402863 
L 74.938776 81.559909 
L 77.216327 85.243747 
L 79.493878 90.057914 
L 81.771429 95.558559 
L 84.04898 101.332316 
L 86.326531 107.019808 
L 88.604082 112.32478 
L 90.881633 117.018851 
L 93.159184 120.94241 
L 95.436735 124.002273 
L 97.714286 126.166767 
L 99.991837 127.458924 
L 102.269388 127.948402 
L 104.546939 127.742458 
L 106.82449 126.976434 
L 109.102041 125.804402 
L 111.379592 124.39061 
L 113.657143 122.902241 
L 115.934694 121.503896 
L 118.212245 120.354017 
L 120.489796 119.603352 
L 122.767347 119.342169 
L 125.044898 119.446538 
L 127.322449 119.752517 
L 129.6 120.120789 
" style="fill:none;stroke:#66c2a5;stroke-linecap:square;stroke-width:2;"/>
   </g>
   <g id="patch_8">
    <path d="M 74.938776 128.16 
L 74.938776 77.76 
" style="fill:none;stroke:#a9a9a9;stroke-linecap:square;stroke-linejoin:miter;stroke-width:2;"/>
   </g>
   <g id="patch_9">
    <path d="M 129.6 128.16 
L 129.6 77.76 
" style="fill:none;"/>
   </g>
   <g id="patch_10">
    <path d="M 18 122.150267 
L 129.6 122.150267 
" style="fill:none;stroke:#a9a9a9;stroke-linecap:square;stroke-linejoin:miter;stroke-width:2;"/>
   </g>
   <g id="patch_11">
    <path d="M 18 77.76 
L 129.6 77.76 
" style="fill:none;"/>
   </g>
  </g>
 </g>
 <defs>
  <clipPath id="p9de57694f3">
   <rect height="50.4" width="111.6" x="18" y="17.28"/>
  </clipPath>
  <clipPath id="pcaf66be46e">
   <rect height="50.4" width="111.6" x="18" y="77.76"/>
  </clipPath>
 </defs>
</svg>
