<?xml version="1.0" encoding="utf-8" standalone="no"?>
<!DOCTYPE svg PUBLIC "-//W3C//DTD SVG 1.1//EN"
  "http://www.w3.org/Graphics/SVG/1.1/DTD/svg11.dtd">
<!-- Created with matplotlib (https://matplotlib.org/) -->
<svg height="144pt" version="1.1" viewBox="0 0 144 144" width="144pt" xmlns="http://www.w3.org/2000/svg" xmlns:xlink="http://www.w3.org/1999/xlink">
 <metadata>
  <rdf:RDF xmlns:cc="http://creativecommons.org/ns#" xmlns:dc="http://purl.org/dc/elements/1.1/" xmlns:rdf="http://www.w3.org/1999/02/22-rdf-syntax-ns#">
   <cc:Work>
    <dc:type rdf:resource="http://purl.org/dc/dcmitype/StillImage"/>
    <dc:date>2021-10-13T14:32:21.397199</dc:date>
    <dc:format>image/svg+xml</dc:format>
    <dc:creator>
     <cc:Agent>
      <dc:title>Matplotlib v3.3.2, https://matplotlib.org/</dc:title>
     </cc:Agent>
    </dc:creator>
   </cc:Work>
  </rdf:RDF>
 </metadata>
 <defs>
  <style type="text/css">*{stroke-linecap:butt;stroke-linejoin:round;}</style>
 </defs>
 <g id="figure_1">
  <g id="patch_1">
   <path d="M 0 144 
L 144 144 
L 144 0 
L 0 0 
z
" style="fill:none;"/>
  </g>
  <g id="axes_1">
   <g id="patch_2">
    <path d="M 18 67.68 
L 129.6 67.68 
L 129.6 17.28 
L 18 17.28 
z
" style="fill:none;"/>
   </g>
   <g id="PolyCollection_1">
    <path clip-path="url(#p04a3d052a7)" d="M 18 67.593641 
L 18 67.593641 
L 20.277551 67.593641 
L 22.555102 67.593641 
L 24.832653 67.593641 
L 27.110204 67.593641 
L 29.387755 67.593641 
L 31.665306 67.508632 
L 33.942857 67.295692 
L 36.220408 66.715167 
L 38.497959 65.897984 
L 40.77551 64.82255 
L 43.053061 62.798533 
L 45.330612 60.435395 
L 47.608163 56.90793 
L 49.885714 53.030652 
L 52.163265 48.387386 
L 54.440816 43.358556 
L 56.718367 38.200854 
L 58.995918 32.817429 
L 61.273469 28.236946 
L 63.55102 23.596358 
L 65.828571 20.178835 
L 68.106122 18.099508 
L 70.383673 17.28 
L 72.661224 17.582271 
L 74.938776 37.603806 
L 77.216327 23.821163 
L 79.493878 27.744127 
L 81.771429 33.523915 
L 84.04898 38.541153 
L 86.326531 42.912955 
L 88.604082 47.581378 
L 90.881633 52.435765 
L 93.159184 55.736124 
L 95.436735 58.067576 
L 97.714286 60.6889 
L 99.991837 62.222903 
L 102.269388 63.62711 
L 104.546939 64.89812 
L 106.82449 65.981506 
L 109.102041 66.367819 
L 111.379592 66.80492 
L 113.657143 67.187082 
L 115.934694 67.408382 
L 118.212245 67.551595 
L 120.489796 67.593595 
L 122.767347 67.593641 
L 125.044898 67.593641 
L 127.322449 67.593641 
L 129.6 67.593641 
L 129.6 67.593641 
L 129.6 67.593641 
L 127.322449 67.593641 
L 125.044898 67.593641 
L 122.767347 67.593641 
L 120.489796 67.59373 
L 118.212245 67.643373 
L 115.934694 67.68 
L 113.657143 67.673691 
L 111.379592 67.610365 
L 109.102041 67.295427 
L 106.82449 67.203038 
L 104.546939 66.679331 
L 102.269388 66.155643 
L 99.991837 64.859782 
L 97.714286 63.584657 
L 95.436735 61.37032 
L 93.159184 59.082165 
L 90.881633 56.202288 
L 88.604082 52.935735 
L 86.326531 48.080293 
L 84.04898 43.217812 
L 81.771429 38.71789 
L 79.493878 34.154053 
L 77.216327 29.731169 
L 74.938776 42.002132 
L 72.661224 24.819656 
L 70.383673 22.967727 
L 68.106122 24.702959 
L 65.828571 25.82937 
L 63.55102 29.468264 
L 61.273469 33.810118 
L 58.995918 38.145701 
L 56.718367 42.597944 
L 54.440816 47.96691 
L 52.163265 52.035061 
L 49.885714 56.215384 
L 47.608163 59.608864 
L 45.330612 62.342487 
L 43.053061 64.348355 
L 40.77551 65.980384 
L 38.497959 66.918822 
L 36.220408 67.387827 
L 33.942857 67.620553 
L 31.665306 67.628237 
L 29.387755 67.593641 
L 27.110204 67.593641 
L 24.832653 67.593641 
L 22.555102 67.593641 
L 20.277551 67.593641 
L 18 67.593641 
z
" style="fill:#fc8d62;fill-opacity:0.2;"/>
   </g>
   <g id="PolyCollection_2">
    <path clip-path="url(#p04a3d052a7)" d="M 18 67.593641 
L 18 67.593641 
L 20.277551 67.593641 
L 22.555102 67.593641 
L 24.832653 67.593641 
L 27.110204 67.593641 
L 29.387755 67.593607 
L 31.665306 67.472816 
L 33.942857 67.272117 
L 36.220408 66.84386 
L 38.497959 66.170804 
L 40.77551 64.975168 
L 43.053061 63.432226 
L 45.330612 61.795188 
L 47.608163 59.385162 
L 49.885714 56.753985 
L 52.163265 54.589279 
L 54.440816 51.506639 
L 56.718367 47.432794 
L 58.995918 44.03429 
L 61.273469 40.535416 
L 63.55102 37.755965 
L 65.828571 33.622009 
L 68.106122 31.749257 
L 70.383673 30.026206 
L 72.661224 29.686825 
L 74.938776 41.730998 
L 77.216327 28.104799 
L 79.493878 30.524636 
L 81.771429 33.346192 
L 84.04898 35.788262 
L 86.326531 38.108338 
L 88.604082 42.284513 
L 90.881633 44.708415 
L 93.159184 48.081266 
L 95.436735 51.272135 
L 97.714286 54.722142 
L 99.991837 57.571557 
L 102.269388 60.173746 
L 104.546939 61.92435 
L 106.82449 64.02124 
L 109.102041 65.243057 
L 111.379592 66.295215 
L 113.657143 66.985949 
L 115.934694 67.23654 
L 118.212245 67.492309 
L 120.489796 67.593316 
L 122.767347 67.593641 
L 125.044898 67.593641 
L 127.322449 67.593641 
L 129.6 67.593641 
L 129.6 67.593641 
L 129.6 67.593641 
L 127.322449 67.593641 
L 125.044898 67.593641 
L 122.767347 67.593641 
L 120.489796 67.594233 
L 118.212245 67.660649 
L 115.934694 67.683605 
L 113.657143 67.537814 
L 111.379592 67.185982 
L 109.102041 66.596396 
L 106.82449 65.808243 
L 104.546939 64.328006 
L 102.269388 63.034738 
L 99.991837 60.479502 
L 97.714286 58.061301 
L 95.436735 54.885128 
L 93.159184 51.801142 
L 90.881633 49.152523 
L 88.604082 45.944156 
L 86.326531 43.084701 
L 84.04898 40.889731 
L 81.771429 38.205704 
L 79.493878 36.500482 
L 77.216327 35.071118 
L 74.938776 45.506631 
L 72.661224 34.5594 
L 70.383673 35.788716 
L 68.106122 37.382662 
L 65.828571 39.421388 
L 63.55102 42.420302 
L 61.273469 44.809302 
L 58.995918 48.304749 
L 56.718367 51.664041 
L 54.440816 54.943331 
L 52.163265 57.407545 
L 49.885714 59.902299 
L 47.608163 61.895783 
L 45.330612 63.940475 
L 43.053061 65.206202 
L 40.77551 66.420718 
L 38.497959 66.936538 
L 36.220408 67.417819 
L 33.942857 67.630358 
L 31.665306 67.633799 
L 29.387755 67.593663 
L 27.110204 67.593641 
L 24.832653 67.593641 
L 22.555102 67.593641 
L 20.277551 67.593641 
L 18 67.593641 
z
" style="fill:#fc8d62;fill-opacity:0.2;"/>
   </g>
   <g id="matplotlib.axis_1">
    <g id="xtick_1">
     <g id="line2d_1">
      <defs>
       <path d="M 0 0 
L 0 3.5 
" id="mcb8701e43a" style="stroke:#a9a9a9;stroke-width:2;"/>
      </defs>
      <g>
       <use style="fill:#a9a9a9;stroke:#a9a9a9;stroke-width:2;" x="29.387755" xlink:href="#mcb8701e43a" y="67.593641"/>
      </g>
     </g>
    </g>
    <g id="xtick_2">
     <g id="line2d_2">
      <g>
       <use style="fill:#a9a9a9;stroke:#a9a9a9;stroke-width:2;" x="52.163265" xlink:href="#mcb8701e43a" y="67.593641"/>
      </g>
     </g>
    </g>
    <g id="xtick_3">
     <g id="line2d_3">
      <g>
       <use style="fill:#a9a9a9;stroke:#a9a9a9;stroke-width:2;" x="74.938776" xlink:href="#mcb8701e43a" y="67.593641"/>
      </g>
     </g>
    </g>
    <g id="xtick_4">
     <g id="line2d_4">
      <g>
       <use style="fill:#a9a9a9;stroke:#a9a9a9;stroke-width:2;" x="97.714286" xlink:href="#mcb8701e43a" y="67.593641"/>
      </g>
     </g>
    </g>
    <g id="xtick_5">
     <g id="line2d_5">
      <g>
       <use style="fill:#a9a9a9;stroke:#a9a9a9;stroke-width:2;" x="120.489796" xlink:href="#mcb8701e43a" y="67.593641"/>
      </g>
     </g>
    </g>
   </g>
   <g id="matplotlib.axis_2"/>
   <g id="line2d_6">
    <path clip-path="url(#p04a3d052a7)" d="M 18 67.593641 
L 20.277551 67.593641 
L 22.555102 67.593641 
L 24.832653 67.593641 
L 27.110204 67.593641 
L 29.387755 67.593641 
L 31.665306 67.568435 
L 33.942857 67.458122 
L 36.220408 67.051497 
L 38.497959 66.408403 
L 40.77551 65.401467 
L 43.053061 63.573444 
L 45.330612 61.388941 
L 47.608163 58.258397 
L 49.885714 54.623018 
L 52.163265 50.211223 
L 54.440816 45.662733 
L 56.718367 40.399399 
L 58.995918 35.481565 
L 61.273469 31.023532 
L 63.55102 26.532311 
L 65.828571 23.004103 
L 68.106122 21.401233 
L 70.383673 20.123863 
L 72.661224 21.200963 
L 74.938776 39.802969 
L 77.216327 26.776166 
L 79.493878 30.94909 
L 81.771429 36.120903 
L 84.04898 40.879482 
L 86.326531 45.496624 
L 88.604082 50.258556 
L 90.881633 54.319027 
L 93.159184 57.409145 
L 95.436735 59.718948 
L 97.714286 62.136779 
L 99.991837 63.541342 
L 102.269388 64.891376 
L 104.546939 65.788726 
L 106.82449 66.592272 
L 109.102041 66.831623 
L 111.379592 67.207643 
L 113.657143 67.430387 
L 115.934694 67.544191 
L 118.212245 67.597484 
L 120.489796 67.593662 
L 122.767347 67.593641 
L 125.044898 67.593641 
L 127.322449 67.593641 
L 129.6 67.593641 
" style="fill:none;stroke:#fc8d62;stroke-linecap:square;stroke-width:2;"/>
   </g>
   <g id="line2d_7">
    <path clip-path="url(#p04a3d052a7)" d="M 18 67.593641 
L 20.277551 67.593641 
L 22.555102 67.593641 
L 24.832653 67.593641 
L 27.110204 67.593641 
L 29.387755 67.593635 
L 31.665306 67.553308 
L 33.942857 67.451237 
L 36.220408 67.130839 
L 38.497959 66.553671 
L 40.77551 65.697943 
L 43.053061 64.319214 
L 45.330612 62.867832 
L 47.608163 60.640472 
L 49.885714 58.328142 
L 52.163265 55.998412 
L 54.440816 53.224985 
L 56.718367 49.548417 
L 58.995918 46.169519 
L 61.273469 42.672359 
L 63.55102 40.088133 
L 65.828571 36.521699 
L 68.106122 34.56596 
L 70.383673 32.907461 
L 72.661224 32.123113 
L 74.938776 43.618814 
L 77.216327 31.587959 
L 79.493878 33.512559 
L 81.771429 35.775948 
L 84.04898 38.338997 
L 86.326531 40.59652 
L 88.604082 44.114334 
L 90.881633 46.930469 
L 93.159184 49.941204 
L 95.436735 53.078632 
L 97.714286 56.391722 
L 99.991837 59.02553 
L 102.269388 61.604242 
L 104.546939 63.126178 
L 106.82449 64.914741 
L 109.102041 65.919727 
L 111.379592 66.740599 
L 113.657143 67.261881 
L 115.934694 67.460072 
L 118.212245 67.576479 
L 120.489796 67.593774 
L 122.767347 67.593641 
L 125.044898 67.593641 
L 127.322449 67.593641 
L 129.6 67.593641 
" style="fill:none;stroke:#fc8d62;stroke-dasharray:1.5,1.5;stroke-dashoffset:0;stroke-opacity:0.7;stroke-width:1.5;"/>
   </g>
   <g id="patch_3">
    <path d="M 74.938776 67.68 
L 74.938776 17.28 
" style="fill:none;stroke:#a9a9a9;stroke-linecap:square;stroke-linejoin:miter;stroke-width:2;"/>
   </g>
   <g id="patch_4">
    <path d="M 129.6 67.68 
L 129.6 17.28 
" style="fill:none;"/>
   </g>
   <g id="patch_5">
    <path d="M 18 67.593641 
L 129.6 67.593641 
" style="fill:none;stroke:#a9a9a9;stroke-linecap:square;stroke-linejoin:miter;stroke-width:2;"/>
   </g>
   <g id="patch_6">
    <path d="M 18 17.28 
L 129.6 17.28 
" style="fill:none;"/>
   </g>
   <g id="legend_1">
    <g id="line2d_8">
     <path d="M 87.67 26.448906 
L 101.67 26.448906 
" style="fill:none;stroke:#fc8d62;stroke-linecap:square;stroke-width:2;"/>
    </g>
    <g id="line2d_9"/>
    <g id="text_1">
     <!-- $\theta$ -->
     <g transform="translate(107.27 28.898906)scale(0.07 -0.07)">
      <defs>
       <path d="M 45.515625 34.671875 
L 14.453125 34.671875 
Q 12.359375 20.0625 14.5 13.875 
Q 17.1875 6.25 24.46875 6.25 
Q 31.78125 6.25 37.359375 13.921875 
Q 42.234375 20.65625 45.515625 34.671875 
z
M 47.015625 42.96875 
Q 48.34375 56.84375 46.625 61.71875 
Q 43.953125 69.4375 36.765625 69.4375 
Q 29.296875 69.4375 23.828125 61.8125 
Q 19.53125 55.671875 16.15625 42.96875 
z
M 38.1875 76.765625 
Q 49.90625 76.765625 54.59375 66.40625 
Q 59.28125 56.109375 55.71875 37.84375 
Q 52.203125 19.625 43.453125 9.28125 
Q 34.765625 -1.125 23.046875 -1.125 
Q 11.28125 -1.125 6.640625 9.28125 
Q 2 19.625 5.515625 37.84375 
Q 9.078125 56.109375 17.71875 66.40625 
Q 26.421875 76.765625 38.1875 76.765625 
z
" id="DejaVuSans-Oblique-952"/>
      </defs>
      <use transform="translate(0 0.234375)" xlink:href="#DejaVuSans-Oblique-952"/>
     </g>
    </g>
    <g id="line2d_10">
     <path d="M 87.67 36.723594 
L 101.67 36.723594 
" style="fill:none;stroke:#fc8d62;stroke-dasharray:1.5,1.5;stroke-dashoffset:0;stroke-opacity:0.7;stroke-width:1.5;"/>
    </g>
    <g id="line2d_11"/>
    <g id="text_2">
     <!-- No $\theta$ -->
     <g transform="translate(107.27 39.173594)scale(0.07 -0.07)">
      <defs>
       <path d="M 9.8125 72.90625 
L 23.09375 72.90625 
L 55.421875 11.921875 
L 55.421875 72.90625 
L 64.984375 72.90625 
L 64.984375 0 
L 51.703125 0 
L 19.390625 60.984375 
L 19.390625 0 
L 9.8125 0 
z
" id="DejaVuSans-78"/>
       <path d="M 30.609375 48.390625 
Q 23.390625 48.390625 19.1875 42.75 
Q 14.984375 37.109375 14.984375 27.296875 
Q 14.984375 17.484375 19.15625 11.84375 
Q 23.34375 6.203125 30.609375 6.203125 
Q 37.796875 6.203125 41.984375 11.859375 
Q 46.1875 17.53125 46.1875 27.296875 
Q 46.1875 37.015625 41.984375 42.703125 
Q 37.796875 48.390625 30.609375 48.390625 
z
M 30.609375 56 
Q 42.328125 56 49.015625 48.375 
Q 55.71875 40.765625 55.71875 27.296875 
Q 55.71875 13.875 49.015625 6.21875 
Q 42.328125 -1.421875 30.609375 -1.421875 
Q 18.84375 -1.421875 12.171875 6.21875 
Q 5.515625 13.875 5.515625 27.296875 
Q 5.515625 40.765625 12.171875 48.375 
Q 18.84375 56 30.609375 56 
z
" id="DejaVuSans-111"/>
       <path id="DejaVuSans-32"/>
      </defs>
      <use transform="translate(0 0.234375)" xlink:href="#DejaVuSans-78"/>
      <use transform="translate(74.804688 0.234375)" xlink:href="#DejaVuSans-111"/>
      <use transform="translate(135.986328 0.234375)" xlink:href="#DejaVuSans-32"/>
      <use transform="translate(167.773438 0.234375)" xlink:href="#DejaVuSans-Oblique-952"/>
     </g>
    </g>
   </g>
  </g>
  <g id="axes_2">
   <g id="patch_7">
    <path d="M 18 128.16 
L 129.6 128.16 
L 129.6 77.76 
L 18 77.76 
z
" style="fill:none;"/>
   </g>
   <g id="PolyCollection_3">
    <path clip-path="url(#p48425a6ee3)" d="M 18 120.586865 
L 18 120.505625 
L 20.277551 120.720758 
L 22.555102 120.783007 
L 24.832653 120.699188 
L 27.110204 120.517681 
L 29.387755 120.316547 
L 31.665306 120.14468 
L 33.942857 119.861252 
L 36.220408 119.30414 
L 38.497959 118.345875 
L 40.77551 116.895123 
L 43.053061 114.900875 
L 45.330612 112.354502 
L 47.608163 109.287434 
L 49.885714 105.767619 
L 52.163265 101.895892 
L 54.440816 97.80183 
L 56.718367 93.63987 
L 58.995918 89.58455 
L 61.273469 85.825302 
L 63.55102 82.561028 
L 65.828571 79.994731 
L 68.106122 78.32863 
L 70.383673 77.76 
L 72.661224 78.477869 
L 74.938776 80.651045 
L 77.216327 84.368731 
L 79.493878 89.232631 
L 81.771429 94.796553 
L 84.04898 100.643915 
L 86.326531 106.411289 
L 88.604082 111.797607 
L 90.881633 116.568957 
L 93.159184 120.559923 
L 95.436735 123.672998 
L 97.714286 125.876318 
L 99.991837 127.197936 
L 102.269388 127.714815 
L 104.546939 127.53975 
L 106.82449 126.810681 
L 109.102041 125.681399 
L 111.379592 124.31356 
L 113.657143 122.869802 
L 115.934694 121.508563 
L 118.212245 120.382176 
L 120.489796 119.640673 
L 122.767347 119.381688 
L 125.044898 119.488136 
L 127.322449 119.798606 
L 129.6 120.173864 
L 129.6 120.28199 
L 129.6 120.28199 
L 127.322449 119.932003 
L 125.044898 119.640618 
L 122.767347 119.544808 
L 120.489796 119.808255 
L 118.212245 120.559249 
L 115.934694 121.714818 
L 113.657143 123.124123 
L 111.379592 124.623524 
L 109.102041 126.043524 
L 106.82449 127.214033 
L 104.546939 127.970213 
L 102.269388 128.16 
L 99.991837 127.653134 
L 97.714286 126.350435 
L 95.436735 124.19199 
L 93.159184 121.161952 
L 90.881633 117.293511 
L 88.604082 112.676599 
L 86.326531 107.465308 
L 84.04898 101.881847 
L 81.771429 96.215997 
L 79.493878 90.820366 
L 77.216327 86.101369 
L 74.938776 82.495903 
L 72.661224 80.394049 
L 70.383673 79.703863 
L 68.106122 80.255816 
L 65.828571 81.862205 
L 63.55102 84.329012 
L 61.273469 87.459067 
L 58.995918 91.056036 
L 56.718367 94.929008 
L 54.440816 98.897431 
L 52.163265 102.796179 
L 49.885714 106.480339 
L 47.608163 109.829322 
L 45.330612 112.750723 
L 43.053061 115.183107 
L 40.77551 117.098319 
L 38.497959 118.502594 
L 36.220408 119.437244 
L 33.942857 119.981673 
L 31.665306 120.256027 
L 29.387755 120.418067 
L 27.110204 120.604301 
L 24.832653 120.767972 
L 22.555102 120.839062 
L 20.277551 120.781075 
L 18 120.586865 
z
" style="fill:#66c2a5;fill-opacity:0.2;"/>
   </g>
   <g id="matplotlib.axis_3">
    <g id="xtick_6">
     <g id="line2d_12">
      <g>
       <use style="fill:#a9a9a9;stroke:#a9a9a9;stroke-width:2;" x="29.387755" xlink:href="#mcb8701e43a" y="122.222598"/>
      </g>
     </g>
    </g>
    <g id="xtick_7">
     <g id="line2d_13">
      <g>
       <use style="fill:#a9a9a9;stroke:#a9a9a9;stroke-width:2;" x="52.163265" xlink:href="#mcb8701e43a" y="122.222598"/>
      </g>
     </g>
    </g>
    <g id="xtick_8">
     <g id="line2d_14">
      <g>
       <use style="fill:#a9a9a9;stroke:#a9a9a9;stroke-width:2;" x="74.938776" xlink:href="#mcb8701e43a" y="122.222598"/>
      </g>
     </g>
    </g>
    <g id="xtick_9">
     <g id="line2d_15">
      <g>
       <use style="fill:#a9a9a9;stroke:#a9a9a9;stroke-width:2;" x="97.714286" xlink:href="#mcb8701e43a" y="122.222598"/>
      </g>
     </g>
    </g>
    <g id="xtick_10">
     <g id="line2d_16">
      <g>
       <use style="fill:#a9a9a9;stroke:#a9a9a9;stroke-width:2;" x="120.489796" xlink:href="#mcb8701e43a" y="122.222598"/>
      </g>
     </g>
    </g>
   </g>
   <g id="matplotlib.axis_4"/>
   <g id="line2d_17">
    <path clip-path="url(#p48425a6ee3)" d="M 18 120.546245 
L 20.277551 120.750916 
L 22.555102 120.811035 
L 24.832653 120.73358 
L 27.110204 120.560991 
L 29.387755 120.367307 
L 31.665306 120.200353 
L 33.942857 119.921463 
L 36.220408 119.370692 
L 38.497959 118.424235 
L 40.77551 116.996721 
L 43.053061 115.041991 
L 45.330612 112.552613 
L 47.608163 109.558378 
L 49.885714 106.123979 
L 52.163265 102.346035 
L 54.440816 98.34963 
L 56.718367 94.284439 
L 58.995918 90.320293 
L 61.273469 86.642185 
L 63.55102 83.44502 
L 65.828571 80.928468 
L 68.106122 79.292223 
L 70.383673 78.731932 
L 72.661224 79.435959 
L 74.938776 81.573474 
L 77.216327 85.23505 
L 79.493878 90.026498 
L 81.771429 95.506275 
L 84.04898 101.262881 
L 86.326531 106.938299 
L 88.604082 112.237103 
L 90.881633 116.931234 
L 93.159184 120.860938 
L 95.436735 123.932494 
L 97.714286 126.113376 
L 99.991837 127.425535 
L 102.269388 127.937408 
L 104.546939 127.754981 
L 106.82449 127.012357 
L 109.102041 125.862461 
L 111.379592 124.468542 
L 113.657143 122.996963 
L 115.934694 121.611691 
L 118.212245 120.470713 
L 120.489796 119.724464 
L 122.767347 119.463248 
L 125.044898 119.564377 
L 127.322449 119.865304 
L 129.6 120.227927 
" style="fill:none;stroke:#66c2a5;stroke-linecap:square;stroke-width:2;"/>
   </g>
   <g id="patch_8">
    <path d="M 74.938776 128.16 
L 74.938776 77.76 
" style="fill:none;stroke:#a9a9a9;stroke-linecap:square;stroke-linejoin:miter;stroke-width:2;"/>
   </g>
   <g id="patch_9">
    <path d="M 129.6 128.16 
L 129.6 77.76 
" style="fill:none;"/>
   </g>
   <g id="patch_10">
    <path d="M 18 122.222598 
L 129.6 122.222598 
" style="fill:none;stroke:#a9a9a9;stroke-linecap:square;stroke-linejoin:miter;stroke-width:2;"/>
   </g>
   <g id="patch_11">
    <path d="M 18 77.76 
L 129.6 77.76 
" style="fill:none;"/>
   </g>
  </g>
 </g>
 <defs>
  <clipPath id="p04a3d052a7">
   <rect height="50.4" width="111.6" x="18" y="17.28"/>
  </clipPath>
  <clipPath id="p48425a6ee3">
   <rect height="50.4" width="111.6" x="18" y="77.76"/>
  </clipPath>
 </defs>
</svg>
