<?xml version="1.0" encoding="utf-8" standalone="no"?>
<!DOCTYPE svg PUBLIC "-//W3C//DTD SVG 1.1//EN"
  "http://www.w3.org/Graphics/SVG/1.1/DTD/svg11.dtd">
<!-- Created with matplotlib (https://matplotlib.org/) -->
<svg height="144pt" version="1.1" viewBox="0 0 144 144" width="144pt" xmlns="http://www.w3.org/2000/svg" xmlns:xlink="http://www.w3.org/1999/xlink">
 <metadata>
  <rdf:RDF xmlns:cc="http://creativecommons.org/ns#" xmlns:dc="http://purl.org/dc/elements/1.1/" xmlns:rdf="http://www.w3.org/1999/02/22-rdf-syntax-ns#">
   <cc:Work>
    <dc:type rdf:resource="http://purl.org/dc/dcmitype/StillImage"/>
    <dc:date>2021-10-13T15:47:37.124243</dc:date>
    <dc:format>image/svg+xml</dc:format>
    <dc:creator>
     <cc:Agent>
      <dc:title>Matplotlib v3.3.2, https://matplotlib.org/</dc:title>
     </cc:Agent>
    </dc:creator>
   </cc:Work>
  </rdf:RDF>
 </metadata>
 <defs>
  <style type="text/css">*{stroke-linecap:butt;stroke-linejoin:round;}</style>
 </defs>
 <g id="figure_1">
  <g id="patch_1">
   <path d="M 0 144 
L 144 144 
L 144 0 
L 0 0 
z
" style="fill:none;"/>
  </g>
  <g id="axes_1">
   <g id="patch_2">
    <path d="M 18 67.68 
L 129.6 67.68 
L 129.6 17.28 
L 18 17.28 
z
" style="fill:none;"/>
   </g>
   <g id="PolyCollection_1">
    <path clip-path="url(#p8d6a8dd12a)" d="M 18 67.652717 
L 18 67.652717 
L 20.277551 67.652717 
L 22.555102 67.652717 
L 24.832653 67.652717 
L 27.110204 67.652717 
L 29.387755 67.652691 
L 31.665306 67.57904 
L 33.942857 67.360519 
L 36.220408 66.822276 
L 38.497959 65.922213 
L 40.77551 64.461318 
L 43.053061 62.598902 
L 45.330612 59.955533 
L 47.608163 56.064766 
L 49.885714 52.455151 
L 52.163265 47.68949 
L 54.440816 42.810045 
L 56.718367 38.327974 
L 58.995918 33.065186 
L 61.273469 27.465059 
L 63.55102 24.308625 
L 65.828571 20.669262 
L 68.106122 18.292877 
L 70.383673 17.919374 
L 72.661224 17.28 
L 74.938776 27.823319 
L 77.216327 23.686425 
L 79.493878 26.306619 
L 81.771429 31.02555 
L 84.04898 35.919418 
L 86.326531 39.548254 
L 88.604082 44.353166 
L 90.881633 48.081439 
L 93.159184 51.652129 
L 95.436735 54.618476 
L 97.714286 57.390363 
L 99.991837 59.540451 
L 102.269388 61.874891 
L 104.546939 63.332051 
L 106.82449 64.664072 
L 109.102041 65.780407 
L 111.379592 66.687316 
L 113.657143 67.128338 
L 115.934694 67.382695 
L 118.212245 67.603368 
L 120.489796 67.652717 
L 122.767347 67.652717 
L 125.044898 67.652717 
L 127.322449 67.652717 
L 129.6 67.652717 
L 129.6 67.652717 
L 129.6 67.652717 
L 127.322449 67.652717 
L 125.044898 67.652717 
L 122.767347 67.652717 
L 120.489796 67.652717 
L 118.212245 67.68 
L 115.934694 67.664818 
L 113.657143 67.547065 
L 111.379592 67.259265 
L 109.102041 66.516932 
L 106.82449 65.845831 
L 104.546939 64.903938 
L 102.269388 63.724526 
L 99.991837 61.943042 
L 97.714286 59.905145 
L 95.436735 57.268091 
L 93.159184 54.052803 
L 90.881633 51.042981 
L 88.604082 48.20764 
L 86.326531 43.285964 
L 84.04898 39.678462 
L 81.771429 35.499166 
L 79.493878 31.280646 
L 77.216327 28.243407 
L 74.938776 30.989174 
L 72.661224 23.041693 
L 70.383673 22.959607 
L 68.106122 23.501544 
L 65.828571 25.240885 
L 63.55102 28.855394 
L 61.273469 31.605494 
L 58.995918 36.372409 
L 56.718367 41.238953 
L 54.440816 45.932992 
L 52.163265 50.589339 
L 49.885714 54.861095 
L 47.608163 58.124966 
L 45.330612 61.484 
L 43.053061 63.889121 
L 40.77551 65.537353 
L 38.497959 66.524769 
L 36.220408 67.362742 
L 33.942857 67.630895 
L 31.665306 67.671983 
L 29.387755 67.652736 
L 27.110204 67.652717 
L 24.832653 67.652717 
L 22.555102 67.652717 
L 20.277551 67.652717 
L 18 67.652717 
z
" style="fill:#fc8d62;fill-opacity:0.2;"/>
   </g>
   <g id="PolyCollection_2">
    <path clip-path="url(#p8d6a8dd12a)" d="M 18 67.652717 
L 18 67.652717 
L 20.277551 67.652717 
L 22.555102 67.652717 
L 24.832653 67.652717 
L 27.110204 67.652717 
L 29.387755 67.652505 
L 31.665306 67.575994 
L 33.942857 67.322907 
L 36.220408 66.761156 
L 38.497959 65.988216 
L 40.77551 64.730516 
L 43.053061 63.192764 
L 45.330612 60.582555 
L 47.608163 58.306196 
L 49.885714 55.449901 
L 52.163265 51.768179 
L 54.440816 47.944459 
L 56.718367 44.05362 
L 58.995918 39.963524 
L 61.273469 35.193295 
L 63.55102 31.234483 
L 65.828571 28.215546 
L 68.106122 24.959309 
L 70.383673 23.079413 
L 72.661224 22.101617 
L 74.938776 26.961934 
L 77.216327 21.103688 
L 79.493878 22.958107 
L 81.771429 25.665857 
L 84.04898 29.059546 
L 86.326531 32.926945 
L 88.604082 36.744154 
L 90.881633 39.921948 
L 93.159184 44.593766 
L 95.436735 48.61316 
L 97.714286 52.395934 
L 99.991837 55.758964 
L 102.269388 58.920902 
L 104.546939 61.578814 
L 106.82449 63.316255 
L 109.102041 65.094547 
L 111.379592 66.277571 
L 113.657143 66.964796 
L 115.934694 67.393636 
L 118.212245 67.595911 
L 120.489796 67.652709 
L 122.767347 67.652717 
L 125.044898 67.652717 
L 127.322449 67.652717 
L 129.6 67.652717 
L 129.6 67.652717 
L 129.6 67.652717 
L 127.322449 67.652717 
L 125.044898 67.652717 
L 122.767347 67.652717 
L 120.489796 67.652727 
L 118.212245 67.684078 
L 115.934694 67.637198 
L 113.657143 67.483476 
L 111.379592 66.956935 
L 109.102041 66.088208 
L 106.82449 64.789644 
L 104.546939 63.040772 
L 102.269388 60.951939 
L 99.991837 58.281779 
L 97.714286 55.003032 
L 95.436735 51.555041 
L 93.159184 48.200662 
L 90.881633 44.634784 
L 88.604082 40.502386 
L 86.326531 36.897481 
L 84.04898 33.290958 
L 81.771429 29.900203 
L 79.493878 28.219882 
L 77.216327 26.341757 
L 74.938776 30.307249 
L 72.661224 26.251992 
L 70.383673 27.774139 
L 68.106122 29.79535 
L 65.828571 32.661072 
L 63.55102 35.7322 
L 61.273469 39.359603 
L 58.995918 43.330711 
L 56.718367 47.609277 
L 54.440816 50.988061 
L 52.163265 54.438635 
L 49.885714 57.914109 
L 47.608163 60.386686 
L 45.330612 62.805027 
L 43.053061 64.453821 
L 40.77551 65.873021 
L 38.497959 66.768732 
L 36.220408 67.353588 
L 33.942857 67.62118 
L 31.665306 67.679296 
L 29.387755 67.652874 
L 27.110204 67.652717 
L 24.832653 67.652717 
L 22.555102 67.652717 
L 20.277551 67.652717 
L 18 67.652717 
z
" style="fill:#fc8d62;fill-opacity:0.2;"/>
   </g>
   <g id="matplotlib.axis_1">
    <g id="xtick_1">
     <g id="line2d_1">
      <defs>
       <path d="M 0 0 
L 0 3.5 
" id="m4340c750e1" style="stroke:#a9a9a9;stroke-width:2;"/>
      </defs>
      <g>
       <use style="fill:#a9a9a9;stroke:#a9a9a9;stroke-width:2;" x="29.387755" xlink:href="#m4340c750e1" y="67.652717"/>
      </g>
     </g>
    </g>
    <g id="xtick_2">
     <g id="line2d_2">
      <g>
       <use style="fill:#a9a9a9;stroke:#a9a9a9;stroke-width:2;" x="52.163265" xlink:href="#m4340c750e1" y="67.652717"/>
      </g>
     </g>
    </g>
    <g id="xtick_3">
     <g id="line2d_3">
      <g>
       <use style="fill:#a9a9a9;stroke:#a9a9a9;stroke-width:2;" x="74.938776" xlink:href="#m4340c750e1" y="67.652717"/>
      </g>
     </g>
    </g>
    <g id="xtick_4">
     <g id="line2d_4">
      <g>
       <use style="fill:#a9a9a9;stroke:#a9a9a9;stroke-width:2;" x="97.714286" xlink:href="#m4340c750e1" y="67.652717"/>
      </g>
     </g>
    </g>
    <g id="xtick_5">
     <g id="line2d_5">
      <g>
       <use style="fill:#a9a9a9;stroke:#a9a9a9;stroke-width:2;" x="120.489796" xlink:href="#m4340c750e1" y="67.652717"/>
      </g>
     </g>
    </g>
   </g>
   <g id="matplotlib.axis_2"/>
   <g id="line2d_6">
    <path clip-path="url(#p8d6a8dd12a)" d="M 18 67.652717 
L 20.277551 67.652717 
L 22.555102 67.652717 
L 24.832653 67.652717 
L 27.110204 67.652717 
L 29.387755 67.652714 
L 31.665306 67.625511 
L 33.942857 67.495707 
L 36.220408 67.092509 
L 38.497959 66.223491 
L 40.77551 64.999336 
L 43.053061 63.244012 
L 45.330612 60.719767 
L 47.608163 57.094866 
L 49.885714 53.658123 
L 52.163265 49.139415 
L 54.440816 44.371519 
L 56.718367 39.783463 
L 58.995918 34.718797 
L 61.273469 29.535277 
L 63.55102 26.58201 
L 65.828571 22.955073 
L 68.106122 20.897211 
L 70.383673 20.43949 
L 72.661224 20.160846 
L 74.938776 29.406247 
L 77.216327 25.964916 
L 79.493878 28.793633 
L 81.771429 33.262358 
L 84.04898 37.79894 
L 86.326531 41.417109 
L 88.604082 46.280403 
L 90.881633 49.56221 
L 93.159184 52.852466 
L 95.436735 55.943284 
L 97.714286 58.647754 
L 99.991837 60.741746 
L 102.269388 62.799709 
L 104.546939 64.117995 
L 106.82449 65.254952 
L 109.102041 66.148669 
L 111.379592 66.97329 
L 113.657143 67.337702 
L 115.934694 67.523757 
L 118.212245 67.641684 
L 120.489796 67.652717 
L 122.767347 67.652717 
L 125.044898 67.652717 
L 127.322449 67.652717 
L 129.6 67.652717 
" style="fill:none;stroke:#fc8d62;stroke-linecap:square;stroke-width:2;"/>
   </g>
   <g id="line2d_7">
    <path clip-path="url(#p8d6a8dd12a)" d="M 18 67.652717 
L 20.277551 67.652717 
L 22.555102 67.652717 
L 24.832653 67.652717 
L 27.110204 67.652717 
L 29.387755 67.652689 
L 31.665306 67.627645 
L 33.942857 67.472044 
L 36.220408 67.057372 
L 38.497959 66.378474 
L 40.77551 65.301768 
L 43.053061 63.823293 
L 45.330612 61.693791 
L 47.608163 59.346441 
L 49.885714 56.682005 
L 52.163265 53.103407 
L 54.440816 49.46626 
L 56.718367 45.831449 
L 58.995918 41.647117 
L 61.273469 37.276449 
L 63.55102 33.483342 
L 65.828571 30.438309 
L 68.106122 27.37733 
L 70.383673 25.426776 
L 72.661224 24.176805 
L 74.938776 28.634591 
L 77.216327 23.722722 
L 79.493878 25.588995 
L 81.771429 27.78303 
L 84.04898 31.175252 
L 86.326531 34.912213 
L 88.604082 38.62327 
L 90.881633 42.278366 
L 93.159184 46.397214 
L 95.436735 50.084101 
L 97.714286 53.699483 
L 99.991837 57.020371 
L 102.269388 59.936421 
L 104.546939 62.309793 
L 106.82449 64.052949 
L 109.102041 65.591378 
L 111.379592 66.617253 
L 113.657143 67.224136 
L 115.934694 67.515417 
L 118.212245 67.639994 
L 120.489796 67.652718 
L 122.767347 67.652717 
L 125.044898 67.652717 
L 127.322449 67.652717 
L 129.6 67.652717 
" style="fill:none;stroke:#fc8d62;stroke-dasharray:1.5,1.5;stroke-dashoffset:0;stroke-opacity:0.7;stroke-width:1.5;"/>
   </g>
   <g id="patch_3">
    <path d="M 74.938776 67.68 
L 74.938776 17.28 
" style="fill:none;stroke:#a9a9a9;stroke-linecap:square;stroke-linejoin:miter;stroke-width:2;"/>
   </g>
   <g id="patch_4">
    <path d="M 129.6 67.68 
L 129.6 17.28 
" style="fill:none;"/>
   </g>
   <g id="patch_5">
    <path d="M 18 67.652717 
L 129.6 67.652717 
" style="fill:none;stroke:#a9a9a9;stroke-linecap:square;stroke-linejoin:miter;stroke-width:2;"/>
   </g>
   <g id="patch_6">
    <path d="M 18 17.28 
L 129.6 17.28 
" style="fill:none;"/>
   </g>
   <g id="legend_1">
    <g id="line2d_8">
     <path d="M 87.67 26.448906 
L 101.67 26.448906 
" style="fill:none;stroke:#fc8d62;stroke-linecap:square;stroke-width:2;"/>
    </g>
    <g id="line2d_9"/>
    <g id="text_1">
     <!-- $\theta$ -->
     <g transform="translate(107.27 28.898906)scale(0.07 -0.07)">
      <defs>
       <path d="M 45.515625 34.671875 
L 14.453125 34.671875 
Q 12.359375 20.0625 14.5 13.875 
Q 17.1875 6.25 24.46875 6.25 
Q 31.78125 6.25 37.359375 13.921875 
Q 42.234375 20.65625 45.515625 34.671875 
z
M 47.015625 42.96875 
Q 48.34375 56.84375 46.625 61.71875 
Q 43.953125 69.4375 36.765625 69.4375 
Q 29.296875 69.4375 23.828125 61.8125 
Q 19.53125 55.671875 16.15625 42.96875 
z
M 38.1875 76.765625 
Q 49.90625 76.765625 54.59375 66.40625 
Q 59.28125 56.109375 55.71875 37.84375 
Q 52.203125 19.625 43.453125 9.28125 
Q 34.765625 -1.125 23.046875 -1.125 
Q 11.28125 -1.125 6.640625 9.28125 
Q 2 19.625 5.515625 37.84375 
Q 9.078125 56.109375 17.71875 66.40625 
Q 26.421875 76.765625 38.1875 76.765625 
z
" id="DejaVuSans-Oblique-952"/>
      </defs>
      <use transform="translate(0 0.234375)" xlink:href="#DejaVuSans-Oblique-952"/>
     </g>
    </g>
    <g id="line2d_10">
     <path d="M 87.67 36.723594 
L 101.67 36.723594 
" style="fill:none;stroke:#fc8d62;stroke-dasharray:1.5,1.5;stroke-dashoffset:0;stroke-opacity:0.7;stroke-width:1.5;"/>
    </g>
    <g id="line2d_11"/>
    <g id="text_2">
     <!-- No $\theta$ -->
     <g transform="translate(107.27 39.173594)scale(0.07 -0.07)">
      <defs>
       <path d="M 9.8125 72.90625 
L 23.09375 72.90625 
L 55.421875 11.921875 
L 55.421875 72.90625 
L 64.984375 72.90625 
L 64.984375 0 
L 51.703125 0 
L 19.390625 60.984375 
L 19.390625 0 
L 9.8125 0 
z
" id="DejaVuSans-78"/>
       <path d="M 30.609375 48.390625 
Q 23.390625 48.390625 19.1875 42.75 
Q 14.984375 37.109375 14.984375 27.296875 
Q 14.984375 17.484375 19.15625 11.84375 
Q 23.34375 6.203125 30.609375 6.203125 
Q 37.796875 6.203125 41.984375 11.859375 
Q 46.1875 17.53125 46.1875 27.296875 
Q 46.1875 37.015625 41.984375 42.703125 
Q 37.796875 48.390625 30.609375 48.390625 
z
M 30.609375 56 
Q 42.328125 56 49.015625 48.375 
Q 55.71875 40.765625 55.71875 27.296875 
Q 55.71875 13.875 49.015625 6.21875 
Q 42.328125 -1.421875 30.609375 -1.421875 
Q 18.84375 -1.421875 12.171875 6.21875 
Q 5.515625 13.875 5.515625 27.296875 
Q 5.515625 40.765625 12.171875 48.375 
Q 18.84375 56 30.609375 56 
z
" id="DejaVuSans-111"/>
       <path id="DejaVuSans-32"/>
      </defs>
      <use transform="translate(0 0.234375)" xlink:href="#DejaVuSans-78"/>
      <use transform="translate(74.804688 0.234375)" xlink:href="#DejaVuSans-111"/>
      <use transform="translate(135.986328 0.234375)" xlink:href="#DejaVuSans-32"/>
      <use transform="translate(167.773438 0.234375)" xlink:href="#DejaVuSans-Oblique-952"/>
     </g>
    </g>
   </g>
  </g>
  <g id="axes_2">
   <g id="patch_7">
    <path d="M 18 128.16 
L 129.6 128.16 
L 129.6 77.76 
L 18 77.76 
z
" style="fill:none;"/>
   </g>
   <g id="PolyCollection_3">
    <path clip-path="url(#pa25f1d6673)" d="M 18 120.526802 
L 18 120.451738 
L 20.277551 120.668776 
L 22.555102 120.729543 
L 24.832653 120.643079 
L 27.110204 120.45881 
L 29.387755 120.255167 
L 31.665306 120.080996 
L 33.942857 119.795946 
L 36.220408 119.237695 
L 38.497959 118.278802 
L 40.77551 116.828046 
L 43.053061 114.834135 
L 45.330612 112.288431 
L 47.608163 109.222594 
L 49.885714 105.704859 
L 52.163265 101.836154 
L 54.440816 97.746149 
L 56.718367 93.589217 
L 58.995918 89.539844 
L 61.273469 85.787465 
L 63.55102 82.530994 
L 65.828571 79.97349 
L 68.106122 78.317316 
L 70.383673 77.76 
L 72.661224 78.490999 
L 74.938776 80.679175 
L 77.216327 84.414271 
L 79.493878 89.295249 
L 81.771429 94.873958 
L 84.04898 100.731984 
L 86.326531 106.504849 
L 88.604082 111.891095 
L 90.881633 116.657167 
L 93.159184 120.6387 
L 95.436735 123.7396 
L 97.714286 125.929115 
L 99.991837 127.235522 
L 102.269388 127.735518 
L 104.546939 127.54218 
L 106.82449 126.794162 
L 109.102041 125.646294 
L 111.379592 124.261277 
L 113.657143 122.802787 
L 115.934694 121.430358 
L 118.212245 120.297679 
L 120.489796 119.55579 
L 122.767347 119.301004 
L 125.044898 119.414516 
L 127.322449 119.732772 
L 129.6 120.114994 
L 129.6 120.216915 
L 129.6 120.216915 
L 127.322449 119.860907 
L 125.044898 119.563245 
L 122.767347 119.462096 
L 120.489796 119.722425 
L 118.212245 120.473101 
L 115.934694 121.630954 
L 113.657143 123.045618 
L 111.379592 124.554096 
L 109.102041 125.986988 
L 106.82449 127.173885 
L 104.546939 127.94926 
L 102.269388 128.16 
L 99.991837 127.674195 
L 97.714286 126.390422 
L 95.436735 124.245984 
L 93.159184 121.222921 
L 90.881633 117.353602 
L 88.604082 112.72806 
L 86.326531 107.500971 
L 84.04898 101.895496 
L 81.771429 96.202846 
L 79.493878 90.777735 
L 77.216327 86.029232 
L 74.938776 82.396822 
L 72.661224 80.274884 
L 70.383673 79.569886 
L 68.106122 80.112143 
L 65.828571 81.713316 
L 63.55102 84.17882 
L 61.273469 87.310965 
L 58.995918 90.912897 
L 56.718367 94.793167 
L 54.440816 98.77067 
L 52.163265 102.679646 
L 49.885714 106.374492 
L 47.608163 109.73406 
L 45.330612 112.665377 
L 43.053061 115.106663 
L 40.77551 117.029459 
L 38.497959 118.439631 
L 36.220408 119.378114 
L 33.942857 119.924685 
L 31.665306 120.200201 
L 29.387755 120.363383 
L 27.110204 120.551242 
L 24.832653 120.7161 
L 22.555102 120.786318 
L 20.277551 120.725074 
L 18 120.526802 
z
" style="fill:#66c2a5;fill-opacity:0.2;"/>
   </g>
   <g id="matplotlib.axis_3">
    <g id="xtick_6">
     <g id="line2d_12">
      <g>
       <use style="fill:#a9a9a9;stroke:#a9a9a9;stroke-width:2;" x="29.387755" xlink:href="#m4340c750e1" y="122.179"/>
      </g>
     </g>
    </g>
    <g id="xtick_7">
     <g id="line2d_13">
      <g>
       <use style="fill:#a9a9a9;stroke:#a9a9a9;stroke-width:2;" x="52.163265" xlink:href="#m4340c750e1" y="122.179"/>
      </g>
     </g>
    </g>
    <g id="xtick_8">
     <g id="line2d_14">
      <g>
       <use style="fill:#a9a9a9;stroke:#a9a9a9;stroke-width:2;" x="74.938776" xlink:href="#m4340c750e1" y="122.179"/>
      </g>
     </g>
    </g>
    <g id="xtick_9">
     <g id="line2d_15">
      <g>
       <use style="fill:#a9a9a9;stroke:#a9a9a9;stroke-width:2;" x="97.714286" xlink:href="#m4340c750e1" y="122.179"/>
      </g>
     </g>
    </g>
    <g id="xtick_10">
     <g id="line2d_16">
      <g>
       <use style="fill:#a9a9a9;stroke:#a9a9a9;stroke-width:2;" x="120.489796" xlink:href="#m4340c750e1" y="122.179"/>
      </g>
     </g>
    </g>
   </g>
   <g id="matplotlib.axis_4"/>
   <g id="line2d_17">
    <path clip-path="url(#pa25f1d6673)" d="M 18 120.48927 
L 20.277551 120.696925 
L 22.555102 120.75793 
L 24.832653 120.679589 
L 27.110204 120.505026 
L 29.387755 120.309275 
L 31.665306 120.140598 
L 33.942857 119.860316 
L 36.220408 119.307904 
L 38.497959 118.359216 
L 40.77551 116.928752 
L 43.053061 114.970399 
L 45.330612 112.476904 
L 47.608163 109.478327 
L 49.885714 106.039676 
L 52.163265 102.2579 
L 54.440816 98.25841 
L 56.718367 94.191192 
L 58.995918 90.22637 
L 61.273469 86.549215 
L 63.55102 83.354907 
L 65.828571 80.843403 
L 68.106122 79.214729 
L 70.383673 78.664943 
L 72.661224 79.382941 
L 74.938776 81.537999 
L 77.216327 85.221752 
L 79.493878 90.036492 
L 81.771429 95.538402 
L 84.04898 101.31374 
L 86.326531 107.00291 
L 88.604082 112.309578 
L 90.881633 117.005385 
L 93.159184 120.93081 
L 95.436735 123.992792 
L 97.714286 126.159769 
L 99.991837 127.454858 
L 102.269388 127.947759 
L 104.546939 127.74572 
L 106.82449 126.984023 
L 109.102041 125.816641 
L 111.379592 124.407686 
L 113.657143 122.924203 
L 115.934694 121.530656 
L 118.212245 120.38539 
L 120.489796 119.639108 
L 122.767347 119.38155 
L 125.044898 119.488881 
L 127.322449 119.79684 
L 129.6 120.165954 
" style="fill:none;stroke:#66c2a5;stroke-linecap:square;stroke-width:2;"/>
   </g>
   <g id="patch_8">
    <path d="M 74.938776 128.16 
L 74.938776 77.76 
" style="fill:none;stroke:#a9a9a9;stroke-linecap:square;stroke-linejoin:miter;stroke-width:2;"/>
   </g>
   <g id="patch_9">
    <path d="M 129.6 128.16 
L 129.6 77.76 
" style="fill:none;"/>
   </g>
   <g id="patch_10">
    <path d="M 18 122.179 
L 129.6 122.179 
" style="fill:none;stroke:#a9a9a9;stroke-linecap:square;stroke-linejoin:miter;stroke-width:2;"/>
   </g>
   <g id="patch_11">
    <path d="M 18 77.76 
L 129.6 77.76 
" style="fill:none;"/>
   </g>
  </g>
 </g>
 <defs>
  <clipPath id="p8d6a8dd12a">
   <rect height="50.4" width="111.6" x="18" y="17.28"/>
  </clipPath>
  <clipPath id="pa25f1d6673">
   <rect height="50.4" width="111.6" x="18" y="77.76"/>
  </clipPath>
 </defs>
</svg>
