<?xml version="1.0" encoding="utf-8" standalone="no"?>
<!DOCTYPE svg PUBLIC "-//W3C//DTD SVG 1.1//EN"
  "http://www.w3.org/Graphics/SVG/1.1/DTD/svg11.dtd">
<!-- Created with matplotlib (https://matplotlib.org/) -->
<svg height="144pt" version="1.1" viewBox="0 0 144 144" width="144pt" xmlns="http://www.w3.org/2000/svg" xmlns:xlink="http://www.w3.org/1999/xlink">
 <metadata>
  <rdf:RDF xmlns:cc="http://creativecommons.org/ns#" xmlns:dc="http://purl.org/dc/elements/1.1/" xmlns:rdf="http://www.w3.org/1999/02/22-rdf-syntax-ns#">
   <cc:Work>
    <dc:type rdf:resource="http://purl.org/dc/dcmitype/StillImage"/>
    <dc:date>2021-10-12T19:05:46.619608</dc:date>
    <dc:format>image/svg+xml</dc:format>
    <dc:creator>
     <cc:Agent>
      <dc:title>Matplotlib v3.3.2, https://matplotlib.org/</dc:title>
     </cc:Agent>
    </dc:creator>
   </cc:Work>
  </rdf:RDF>
 </metadata>
 <defs>
  <style type="text/css">*{stroke-linecap:butt;stroke-linejoin:round;}</style>
 </defs>
 <g id="figure_1">
  <g id="patch_1">
   <path d="M 0 144 
L 144 144 
L 144 0 
L 0 0 
z
" style="fill:none;"/>
  </g>
  <g id="axes_1">
   <g id="patch_2">
    <path d="M 18 67.68 
L 129.6 67.68 
L 129.6 17.28 
L 18 17.28 
z
" style="fill:none;"/>
   </g>
   <g id="PolyCollection_1">
    <path clip-path="url(#pc938609a50)" d="M 18 67.679956 
L 18 67.679956 
L 20.277551 67.679956 
L 22.555102 67.679956 
L 24.832653 67.679956 
L 27.110204 67.679956 
L 29.387755 67.679944 
L 31.665306 67.641114 
L 33.942857 67.432989 
L 36.220408 66.913728 
L 38.497959 66.012883 
L 40.77551 64.569285 
L 43.053061 62.540894 
L 45.330612 59.910212 
L 47.608163 56.658781 
L 49.885714 52.907228 
L 52.163265 48.517745 
L 54.440816 44.001002 
L 56.718367 39.181457 
L 58.995918 34.392377 
L 61.273469 29.805458 
L 63.55102 25.58157 
L 65.828571 22.085124 
L 68.106122 19.378133 
L 70.383673 17.700561 
L 72.661224 17.28 
L 74.938776 32.258444 
L 77.216327 19.956286 
L 79.493878 23.289485 
L 81.771429 27.241153 
L 84.04898 31.473994 
L 86.326531 35.9285 
L 88.604082 40.445405 
L 90.881633 44.880905 
L 93.159184 48.895647 
L 95.436735 52.413212 
L 97.714286 55.734241 
L 99.991837 58.580955 
L 102.269388 60.950418 
L 104.546939 62.940391 
L 106.82449 64.518084 
L 109.102041 65.688765 
L 111.379592 66.587909 
L 113.657143 67.180924 
L 115.934694 67.510893 
L 118.212245 67.654216 
L 120.489796 67.679961 
L 122.767347 67.679956 
L 125.044898 67.679956 
L 127.322449 67.679956 
L 129.6 67.679956 
L 129.6 67.679956 
L 129.6 67.679956 
L 127.322449 67.679956 
L 125.044898 67.679956 
L 122.767347 67.679956 
L 120.489796 67.68 
L 118.212245 67.670955 
L 115.934694 67.565608 
L 113.657143 67.270714 
L 111.379592 66.734369 
L 109.102041 65.901635 
L 106.82449 64.734421 
L 104.546939 63.252534 
L 102.269388 61.291517 
L 99.991837 59.017585 
L 97.714286 56.328703 
L 95.436735 53.124052 
L 93.159184 49.473983 
L 90.881633 45.527662 
L 88.604082 41.267493 
L 86.326531 36.933501 
L 84.04898 32.470368 
L 81.771429 28.229793 
L 79.493878 24.340465 
L 77.216327 21.223704 
L 74.938776 33.068394 
L 72.661224 18.119959 
L 70.383673 18.739656 
L 68.106122 20.301047 
L 65.828571 23.107698 
L 63.55102 26.585021 
L 61.273469 30.726923 
L 58.995918 35.235111 
L 56.718367 39.924516 
L 54.440816 44.716649 
L 52.163265 49.21866 
L 49.885714 53.396732 
L 47.608163 57.140749 
L 45.330612 60.279577 
L 43.053061 62.816989 
L 40.77551 64.819163 
L 38.497959 66.19766 
L 36.220408 67.041035 
L 33.942857 67.48844 
L 31.665306 67.658423 
L 29.387755 67.679963 
L 27.110204 67.679956 
L 24.832653 67.679956 
L 22.555102 67.679956 
L 20.277551 67.679956 
L 18 67.679956 
z
" style="fill:#fc8d62;fill-opacity:0.2;"/>
   </g>
   <g id="PolyCollection_2">
    <path clip-path="url(#pc938609a50)" d="M 18 67.679956 
L 18 67.679956 
L 20.277551 67.679956 
L 22.555102 67.679956 
L 24.832653 67.679956 
L 27.110204 67.679956 
L 29.387755 67.679929 
L 31.665306 67.634664 
L 33.942857 67.403717 
L 36.220408 66.878325 
L 38.497959 65.938871 
L 40.77551 64.525471 
L 43.053061 62.607122 
L 45.330612 60.207226 
L 47.608163 57.261385 
L 49.885714 53.881044 
L 52.163265 50.0776 
L 54.440816 46.022349 
L 56.718367 41.753433 
L 58.995918 37.295588 
L 61.273469 33.061677 
L 63.55102 28.909655 
L 65.828571 25.086337 
L 68.106122 22.050545 
L 70.383673 19.517332 
L 72.661224 18.024602 
L 74.938776 29.999114 
L 77.216327 18.027453 
L 79.493878 19.785198 
L 81.771429 22.394236 
L 84.04898 25.673088 
L 86.326531 29.520713 
L 88.604082 33.616286 
L 90.881633 37.949805 
L 93.159184 42.299332 
L 95.436735 46.57046 
L 97.714286 50.580429 
L 99.991837 54.347521 
L 102.269388 57.688667 
L 104.546939 60.559886 
L 106.82449 62.871663 
L 109.102041 64.70311 
L 111.379592 66.104738 
L 113.657143 66.960195 
L 115.934694 67.459331 
L 118.212245 67.647643 
L 120.489796 67.679955 
L 122.767347 67.679956 
L 125.044898 67.679956 
L 127.322449 67.679956 
L 129.6 67.679956 
L 129.6 67.679956 
L 129.6 67.679956 
L 127.322449 67.679956 
L 125.044898 67.679956 
L 122.767347 67.679956 
L 120.489796 67.68001 
L 118.212245 67.666163 
L 115.934694 67.521873 
L 113.657143 67.099039 
L 111.379592 66.281142 
L 109.102041 64.995469 
L 106.82449 63.175392 
L 104.546939 60.937667 
L 102.269388 58.136008 
L 99.991837 54.897817 
L 97.714286 51.280336 
L 95.436735 47.322375 
L 93.159184 43.153124 
L 90.881633 38.89029 
L 88.604082 34.618382 
L 86.326531 30.521867 
L 84.04898 26.721693 
L 81.771429 23.61999 
L 79.493878 21.109116 
L 77.216327 19.219836 
L 74.938776 31.104179 
L 72.661224 19.192483 
L 70.383673 20.628127 
L 68.106122 23.168311 
L 65.828571 26.355103 
L 63.55102 29.979965 
L 61.273469 34.010607 
L 58.995918 38.217627 
L 56.718367 42.539744 
L 54.440816 46.700277 
L 52.163265 50.757475 
L 49.885714 54.437291 
L 47.608163 57.763932 
L 45.330612 60.548897 
L 43.053061 62.945295 
L 40.77551 64.795523 
L 38.497959 66.112331 
L 36.220408 66.998577 
L 33.942857 67.483542 
L 31.665306 67.656848 
L 29.387755 67.679971 
L 27.110204 67.679956 
L 24.832653 67.679956 
L 22.555102 67.679956 
L 20.277551 67.679956 
L 18 67.679956 
z
" style="fill:#fc8d62;fill-opacity:0.2;"/>
   </g>
   <g id="matplotlib.axis_1">
    <g id="xtick_1">
     <g id="line2d_1">
      <defs>
       <path d="M 0 0 
L 0 3.5 
" id="ma08539acbc" style="stroke:#a9a9a9;stroke-width:2;"/>
      </defs>
      <g>
       <use style="fill:#a9a9a9;stroke:#a9a9a9;stroke-width:2;" x="29.387755" xlink:href="#ma08539acbc" y="67.679956"/>
      </g>
     </g>
    </g>
    <g id="xtick_2">
     <g id="line2d_2">
      <g>
       <use style="fill:#a9a9a9;stroke:#a9a9a9;stroke-width:2;" x="52.163265" xlink:href="#ma08539acbc" y="67.679956"/>
      </g>
     </g>
    </g>
    <g id="xtick_3">
     <g id="line2d_3">
      <g>
       <use style="fill:#a9a9a9;stroke:#a9a9a9;stroke-width:2;" x="74.938776" xlink:href="#ma08539acbc" y="67.679956"/>
      </g>
     </g>
    </g>
    <g id="xtick_4">
     <g id="line2d_4">
      <g>
       <use style="fill:#a9a9a9;stroke:#a9a9a9;stroke-width:2;" x="97.714286" xlink:href="#ma08539acbc" y="67.679956"/>
      </g>
     </g>
    </g>
    <g id="xtick_5">
     <g id="line2d_5">
      <g>
       <use style="fill:#a9a9a9;stroke:#a9a9a9;stroke-width:2;" x="120.489796" xlink:href="#ma08539acbc" y="67.679956"/>
      </g>
     </g>
    </g>
   </g>
   <g id="matplotlib.axis_2"/>
   <g id="line2d_6">
    <path clip-path="url(#pc938609a50)" d="M 18 67.679956 
L 20.277551 67.679956 
L 22.555102 67.679956 
L 24.832653 67.679956 
L 27.110204 67.679956 
L 29.387755 67.679954 
L 31.665306 67.649769 
L 33.942857 67.460714 
L 36.220408 66.977382 
L 38.497959 66.105272 
L 40.77551 64.694224 
L 43.053061 62.678941 
L 45.330612 60.094895 
L 47.608163 56.899765 
L 49.885714 53.15198 
L 52.163265 48.868203 
L 54.440816 44.358826 
L 56.718367 39.552987 
L 58.995918 34.813744 
L 61.273469 30.26619 
L 63.55102 26.083296 
L 65.828571 22.596411 
L 68.106122 19.83959 
L 70.383673 18.220109 
L 72.661224 17.69998 
L 74.938776 32.663419 
L 77.216327 20.589995 
L 79.493878 23.814975 
L 81.771429 27.735473 
L 84.04898 31.972181 
L 86.326531 36.431001 
L 88.604082 40.856449 
L 90.881633 45.204284 
L 93.159184 49.184815 
L 95.436735 52.768632 
L 97.714286 56.031472 
L 99.991837 58.79927 
L 102.269388 61.120968 
L 104.546939 63.096463 
L 106.82449 64.626252 
L 109.102041 65.7952 
L 111.379592 66.661139 
L 113.657143 67.225819 
L 115.934694 67.538251 
L 118.212245 67.662585 
L 120.489796 67.679981 
L 122.767347 67.679956 
L 125.044898 67.679956 
L 127.322449 67.679956 
L 129.6 67.679956 
" style="fill:none;stroke:#fc8d62;stroke-linecap:square;stroke-width:2;"/>
   </g>
   <g id="line2d_7">
    <path clip-path="url(#pc938609a50)" d="M 18 67.679956 
L 20.277551 67.679956 
L 22.555102 67.679956 
L 24.832653 67.679956 
L 27.110204 67.679956 
L 29.387755 67.67995 
L 31.665306 67.645756 
L 33.942857 67.443629 
L 36.220408 66.938451 
L 38.497959 66.025601 
L 40.77551 64.660497 
L 43.053061 62.776209 
L 45.330612 60.378061 
L 47.608163 57.512658 
L 49.885714 54.159168 
L 52.163265 50.417538 
L 54.440816 46.361313 
L 56.718367 42.146588 
L 58.995918 37.756608 
L 61.273469 33.536142 
L 63.55102 29.44481 
L 65.828571 25.72072 
L 68.106122 22.609428 
L 70.383673 20.07273 
L 72.661224 18.608542 
L 74.938776 30.551647 
L 77.216327 18.623644 
L 79.493878 20.447157 
L 81.771429 23.007113 
L 84.04898 26.19739 
L 86.326531 30.02129 
L 88.604082 34.117334 
L 90.881633 38.420047 
L 93.159184 42.726228 
L 95.436735 46.946418 
L 97.714286 50.930382 
L 99.991837 54.622669 
L 102.269388 57.912337 
L 104.546939 60.748776 
L 106.82449 63.023528 
L 109.102041 64.84929 
L 111.379592 66.19294 
L 113.657143 67.029617 
L 115.934694 67.490602 
L 118.212245 67.656903 
L 120.489796 67.679983 
L 122.767347 67.679956 
L 125.044898 67.679956 
L 127.322449 67.679956 
L 129.6 67.679956 
" style="fill:none;stroke:#fc8d62;stroke-dasharray:1.5,1.5;stroke-dashoffset:0;stroke-opacity:0.7;stroke-width:1.5;"/>
   </g>
   <g id="patch_3">
    <path d="M 74.938776 67.68 
L 74.938776 17.28 
" style="fill:none;stroke:#a9a9a9;stroke-linecap:square;stroke-linejoin:miter;stroke-width:2;"/>
   </g>
   <g id="patch_4">
    <path d="M 129.6 67.68 
L 129.6 17.28 
" style="fill:none;"/>
   </g>
   <g id="patch_5">
    <path d="M 18 67.679956 
L 129.6 67.679956 
" style="fill:none;stroke:#a9a9a9;stroke-linecap:square;stroke-linejoin:miter;stroke-width:2;"/>
   </g>
   <g id="patch_6">
    <path d="M 18 17.28 
L 129.6 17.28 
" style="fill:none;"/>
   </g>
   <g id="legend_1">
    <g id="line2d_8">
     <path d="M 87.67 26.448906 
L 101.67 26.448906 
" style="fill:none;stroke:#fc8d62;stroke-linecap:square;stroke-width:2;"/>
    </g>
    <g id="line2d_9"/>
    <g id="text_1">
     <!-- $\theta$ -->
     <g transform="translate(107.27 28.898906)scale(0.07 -0.07)">
      <defs>
       <path d="M 45.515625 34.671875 
L 14.453125 34.671875 
Q 12.359375 20.0625 14.5 13.875 
Q 17.1875 6.25 24.46875 6.25 
Q 31.78125 6.25 37.359375 13.921875 
Q 42.234375 20.65625 45.515625 34.671875 
z
M 47.015625 42.96875 
Q 48.34375 56.84375 46.625 61.71875 
Q 43.953125 69.4375 36.765625 69.4375 
Q 29.296875 69.4375 23.828125 61.8125 
Q 19.53125 55.671875 16.15625 42.96875 
z
M 38.1875 76.765625 
Q 49.90625 76.765625 54.59375 66.40625 
Q 59.28125 56.109375 55.71875 37.84375 
Q 52.203125 19.625 43.453125 9.28125 
Q 34.765625 -1.125 23.046875 -1.125 
Q 11.28125 -1.125 6.640625 9.28125 
Q 2 19.625 5.515625 37.84375 
Q 9.078125 56.109375 17.71875 66.40625 
Q 26.421875 76.765625 38.1875 76.765625 
z
" id="DejaVuSans-Oblique-952"/>
      </defs>
      <use transform="translate(0 0.234375)" xlink:href="#DejaVuSans-Oblique-952"/>
     </g>
    </g>
    <g id="line2d_10">
     <path d="M 87.67 36.723594 
L 101.67 36.723594 
" style="fill:none;stroke:#fc8d62;stroke-dasharray:1.5,1.5;stroke-dashoffset:0;stroke-opacity:0.7;stroke-width:1.5;"/>
    </g>
    <g id="line2d_11"/>
    <g id="text_2">
     <!-- No $\theta$ -->
     <g transform="translate(107.27 39.173594)scale(0.07 -0.07)">
      <defs>
       <path d="M 9.8125 72.90625 
L 23.09375 72.90625 
L 55.421875 11.921875 
L 55.421875 72.90625 
L 64.984375 72.90625 
L 64.984375 0 
L 51.703125 0 
L 19.390625 60.984375 
L 19.390625 0 
L 9.8125 0 
z
" id="DejaVuSans-78"/>
       <path d="M 30.609375 48.390625 
Q 23.390625 48.390625 19.1875 42.75 
Q 14.984375 37.109375 14.984375 27.296875 
Q 14.984375 17.484375 19.15625 11.84375 
Q 23.34375 6.203125 30.609375 6.203125 
Q 37.796875 6.203125 41.984375 11.859375 
Q 46.1875 17.53125 46.1875 27.296875 
Q 46.1875 37.015625 41.984375 42.703125 
Q 37.796875 48.390625 30.609375 48.390625 
z
M 30.609375 56 
Q 42.328125 56 49.015625 48.375 
Q 55.71875 40.765625 55.71875 27.296875 
Q 55.71875 13.875 49.015625 6.21875 
Q 42.328125 -1.421875 30.609375 -1.421875 
Q 18.84375 -1.421875 12.171875 6.21875 
Q 5.515625 13.875 5.515625 27.296875 
Q 5.515625 40.765625 12.171875 48.375 
Q 18.84375 56 30.609375 56 
z
" id="DejaVuSans-111"/>
       <path id="DejaVuSans-32"/>
      </defs>
      <use transform="translate(0 0.234375)" xlink:href="#DejaVuSans-78"/>
      <use transform="translate(74.804688 0.234375)" xlink:href="#DejaVuSans-111"/>
      <use transform="translate(135.986328 0.234375)" xlink:href="#DejaVuSans-32"/>
      <use transform="translate(167.773438 0.234375)" xlink:href="#DejaVuSans-Oblique-952"/>
     </g>
    </g>
   </g>
  </g>
  <g id="axes_2">
   <g id="patch_7">
    <path d="M 18 128.16 
L 129.6 128.16 
L 129.6 77.76 
L 18 77.76 
z
" style="fill:none;"/>
   </g>
   <g id="PolyCollection_3">
    <path clip-path="url(#pfe45200be0)" d="M 18 120.507205 
L 18 120.429067 
L 20.277551 120.647713 
L 22.555102 120.712721 
L 24.832653 120.632177 
L 27.110204 120.453876 
L 29.387755 120.255239 
L 31.665306 120.084887 
L 33.942857 119.801959 
L 36.220408 119.24439 
L 38.497959 118.28517 
L 40.77551 116.83353 
L 43.053061 114.838767 
L 45.330612 112.292182 
L 47.608163 109.225441 
L 49.885714 105.706562 
L 52.163265 101.836503 
L 54.440816 97.745196 
L 56.718367 93.587264 
L 58.995918 89.537332 
L 61.273469 85.784897 
L 63.55102 82.528845 
L 65.828571 79.972104 
L 68.106122 78.316779 
L 70.383673 77.76 
L 72.661224 78.49065 
L 74.938776 80.677073 
L 77.216327 84.408395 
L 79.493878 89.285097 
L 81.771429 94.860311 
L 84.04898 100.716682 
L 86.326531 106.490258 
L 88.604082 111.879628 
L 90.881633 116.650822 
L 93.159184 120.638631 
L 95.436735 123.745645 
L 97.714286 125.940013 
L 99.991837 127.249526 
L 102.269388 127.751399 
L 104.546939 127.559194 
L 106.82449 126.811585 
L 109.102041 125.663156 
L 111.379592 124.276513 
L 113.657143 122.815358 
L 115.934694 121.43927 
L 118.212245 120.301857 
L 120.489796 119.554028 
L 122.767347 119.29295 
L 125.044898 119.400317 
L 127.322449 119.713704 
L 129.6 120.093011 
L 129.6 120.19633 
L 129.6 120.19633 
L 127.322449 119.84176 
L 125.044898 119.547727 
L 122.767347 119.451781 
L 120.489796 119.71796 
L 118.212245 120.474141 
L 115.934694 121.636825 
L 113.657143 123.055266 
L 111.379592 124.565997 
L 109.102041 125.999265 
L 106.82449 127.184401 
L 104.546939 127.9557 
L 102.269388 128.16 
L 99.991837 127.665912 
L 97.714286 126.373304 
L 95.436735 124.221065 
L 93.159184 121.191999 
L 90.881633 117.31869 
L 88.604082 112.691078 
L 86.326531 107.46395 
L 84.04898 101.860526 
L 81.771429 96.171868 
L 79.493878 90.752178 
L 77.216327 86.009602 
L 74.938776 82.382512 
L 72.661224 80.263854 
L 70.383673 79.560682 
L 68.106122 80.103782 
L 65.828571 81.705357 
L 63.55102 84.171189 
L 61.273469 87.303803 
L 58.995918 90.906454 
L 56.718367 94.787732 
L 54.440816 98.766523 
L 52.163265 102.677043 
L 49.885714 106.373718 
L 47.608163 109.735414 
L 45.330612 112.668944 
L 43.053061 115.112075 
L 40.77551 117.03612 
L 38.497959 118.446632 
L 36.220408 119.384815 
L 33.942857 119.930481 
L 31.665306 120.204345 
L 29.387755 120.364658 
L 27.110204 120.548255 
L 24.832653 120.708202 
L 22.555102 120.773878 
L 20.277551 120.708592 
L 18 120.507205 
z
" style="fill:#66c2a5;fill-opacity:0.2;"/>
   </g>
   <g id="matplotlib.axis_3">
    <g id="xtick_6">
     <g id="line2d_12">
      <g>
       <use style="fill:#a9a9a9;stroke:#a9a9a9;stroke-width:2;" x="29.387755" xlink:href="#ma08539acbc" y="122.173656"/>
      </g>
     </g>
    </g>
    <g id="xtick_7">
     <g id="line2d_13">
      <g>
       <use style="fill:#a9a9a9;stroke:#a9a9a9;stroke-width:2;" x="52.163265" xlink:href="#ma08539acbc" y="122.173656"/>
      </g>
     </g>
    </g>
    <g id="xtick_8">
     <g id="line2d_14">
      <g>
       <use style="fill:#a9a9a9;stroke:#a9a9a9;stroke-width:2;" x="74.938776" xlink:href="#ma08539acbc" y="122.173656"/>
      </g>
     </g>
    </g>
    <g id="xtick_9">
     <g id="line2d_15">
      <g>
       <use style="fill:#a9a9a9;stroke:#a9a9a9;stroke-width:2;" x="97.714286" xlink:href="#ma08539acbc" y="122.173656"/>
      </g>
     </g>
    </g>
    <g id="xtick_10">
     <g id="line2d_16">
      <g>
       <use style="fill:#a9a9a9;stroke:#a9a9a9;stroke-width:2;" x="120.489796" xlink:href="#ma08539acbc" y="122.173656"/>
      </g>
     </g>
    </g>
   </g>
   <g id="matplotlib.axis_4"/>
   <g id="line2d_17">
    <path clip-path="url(#pfe45200be0)" d="M 18 120.468136 
L 20.277551 120.678153 
L 22.555102 120.7433 
L 24.832653 120.67019 
L 27.110204 120.501065 
L 29.387755 120.309949 
L 31.665306 120.144616 
L 33.942857 119.86622 
L 36.220408 119.314603 
L 38.497959 118.365901 
L 40.77551 116.934825 
L 43.053061 114.975421 
L 45.330612 112.480563 
L 47.608163 109.480427 
L 49.885714 106.04014 
L 52.163265 102.256773 
L 54.440816 98.25586 
L 56.718367 94.187498 
L 58.995918 90.221893 
L 61.273469 86.54435 
L 63.55102 83.350017 
L 65.828571 80.838731 
L 68.106122 79.21028 
L 70.383673 78.660341 
L 72.661224 79.377252 
L 74.938776 81.529792 
L 77.216327 85.208998 
L 79.493878 90.018638 
L 81.771429 95.516089 
L 84.04898 101.288604 
L 86.326531 106.977104 
L 88.604082 112.285353 
L 90.881633 116.984756 
L 93.159184 120.915315 
L 95.436735 123.983355 
L 97.714286 126.156659 
L 99.991837 127.457719 
L 102.269388 127.9557 
L 104.546939 127.757447 
L 106.82449 126.997993 
L 109.102041 125.831211 
L 111.379592 124.421255 
L 113.657143 122.935312 
L 115.934694 121.538047 
L 118.212245 120.387999 
L 120.489796 119.635994 
L 122.767347 119.372366 
L 125.044898 119.474022 
L 127.322449 119.777732 
L 129.6 120.14467 
" style="fill:none;stroke:#66c2a5;stroke-linecap:square;stroke-width:2;"/>
   </g>
   <g id="patch_8">
    <path d="M 74.938776 128.16 
L 74.938776 77.76 
" style="fill:none;stroke:#a9a9a9;stroke-linecap:square;stroke-linejoin:miter;stroke-width:2;"/>
   </g>
   <g id="patch_9">
    <path d="M 129.6 128.16 
L 129.6 77.76 
" style="fill:none;"/>
   </g>
   <g id="patch_10">
    <path d="M 18 122.173656 
L 129.6 122.173656 
" style="fill:none;stroke:#a9a9a9;stroke-linecap:square;stroke-linejoin:miter;stroke-width:2;"/>
   </g>
   <g id="patch_11">
    <path d="M 18 77.76 
L 129.6 77.76 
" style="fill:none;"/>
   </g>
  </g>
 </g>
 <defs>
  <clipPath id="pc938609a50">
   <rect height="50.4" width="111.6" x="18" y="17.28"/>
  </clipPath>
  <clipPath id="pfe45200be0">
   <rect height="50.4" width="111.6" x="18" y="77.76"/>
  </clipPath>
 </defs>
</svg>
