<?xml version="1.0" encoding="utf-8" standalone="no"?>
<!DOCTYPE svg PUBLIC "-//W3C//DTD SVG 1.1//EN"
  "http://www.w3.org/Graphics/SVG/1.1/DTD/svg11.dtd">
<!-- Created with matplotlib (https://matplotlib.org/) -->
<svg height="216pt" version="1.1" viewBox="0 0 72 216" width="72pt" xmlns="http://www.w3.org/2000/svg" xmlns:xlink="http://www.w3.org/1999/xlink">
 <metadata>
  <rdf:RDF xmlns:cc="http://creativecommons.org/ns#" xmlns:dc="http://purl.org/dc/elements/1.1/" xmlns:rdf="http://www.w3.org/1999/02/22-rdf-syntax-ns#">
   <cc:Work>
    <dc:type rdf:resource="http://purl.org/dc/dcmitype/StillImage"/>
    <dc:date>2021-10-13T00:34:02.897353</dc:date>
    <dc:format>image/svg+xml</dc:format>
    <dc:creator>
     <cc:Agent>
      <dc:title>Matplotlib v3.3.2, https://matplotlib.org/</dc:title>
     </cc:Agent>
    </dc:creator>
   </cc:Work>
  </rdf:RDF>
 </metadata>
 <defs>
  <style type="text/css">*{stroke-linecap:butt;stroke-linejoin:round;}</style>
 </defs>
 <g id="figure_1">
  <g id="patch_1">
   <path d="M 0 216 
L 72 216 
L 72 0 
L 0 0 
z
" style="fill:none;"/>
  </g>
  <g id="axes_1">
   <g id="patch_2">
    <path d="M 9 74.837647 
L 64.8 74.837647 
L 64.8 25.92 
L 9 25.92 
z
" style="fill:none;"/>
   </g>
   <g id="matplotlib.axis_1">
    <g id="xtick_1">
     <g id="line2d_1">
      <defs>
       <path d="M 0 0 
L 0 3.5 
" id="med359c782f" style="stroke:#a9a9a9;stroke-width:2;"/>
      </defs>
      <g>
       <use style="fill:#a9a9a9;stroke:#a9a9a9;stroke-width:2;" x="9" xlink:href="#med359c782f" y="74.837647"/>
      </g>
     </g>
    </g>
    <g id="xtick_2">
     <g id="line2d_2">
      <g>
       <use style="fill:#a9a9a9;stroke:#a9a9a9;stroke-width:2;" x="36.9" xlink:href="#med359c782f" y="74.837647"/>
      </g>
     </g>
    </g>
    <g id="xtick_3">
     <g id="line2d_3">
      <g>
       <use style="fill:#a9a9a9;stroke:#a9a9a9;stroke-width:2;" x="64.8" xlink:href="#med359c782f" y="74.837647"/>
      </g>
     </g>
    </g>
   </g>
   <g id="matplotlib.axis_2">
    <g id="ytick_1">
     <g id="line2d_4">
      <defs>
       <path d="M 0 0 
L -3.5 0 
" id="m7cdd3d50b9" style="stroke:#a9a9a9;stroke-width:2;"/>
      </defs>
      <g>
       <use style="fill:#a9a9a9;stroke:#a9a9a9;stroke-width:2;" x="9" xlink:href="#m7cdd3d50b9" y="74.837647"/>
      </g>
     </g>
    </g>
    <g id="ytick_2">
     <g id="line2d_5">
      <g>
       <use style="fill:#a9a9a9;stroke:#a9a9a9;stroke-width:2;" x="9" xlink:href="#m7cdd3d50b9" y="73.500836"/>
      </g>
     </g>
    </g>
    <g id="ytick_3">
     <g id="line2d_6">
      <g>
       <use style="fill:#a9a9a9;stroke:#a9a9a9;stroke-width:2;" x="9" xlink:href="#m7cdd3d50b9" y="72.164026"/>
      </g>
     </g>
    </g>
   </g>
   <g id="line2d_7">
    <path clip-path="url(#p2958fd3e83)" d="M 10.86031 69.059348 
L 11.79031 68.959453 
L 12.72031 68.570028 
L 13.65031 67.561605 
L 14.58031 66.460303 
L 15.51031 65.781406 
L 16.44031 64.849174 
L 17.37031 64.22559 
L 18.30031 63.908479 
L 19.23031 63.531444 
L 20.16031 62.600443 
L 21.09031 61.934098 
L 22.02031 61.085122 
L 22.95031 60.14745 
L 23.88031 59.657448 
L 24.81031 58.540625 
L 25.74031 56.981651 
L 26.67031 54.940441 
L 27.60031 52.307028 
L 28.53031 49.939471 
L 29.46031 47.528063 
L 30.39031 45.736171 
L 31.32031 44.393979 
L 32.25031 43.179178 
L 33.18031 41.777956 
L 34.11031 42.846984 
L 35.04031 43.587542 
L 35.97031 44.724432 
L 36.90031 45.115988 
L 37.83031 45.342139 
L 38.76031 44.821698 
L 39.69031 43.763996 
L 40.62031 42.400436 
L 41.55031 41.760377 
L 42.48031 41.213174 
L 43.41031 40.635914 
L 44.34031 40.964273 
L 45.27031 41.703717 
L 46.20031 42.133844 
L 47.13031 41.844067 
L 48.06031 41.497615 
L 48.99031 40.845624 
L 49.92031 39.570096 
L 50.85031 37.031178 
L 51.78031 35.539636 
L 52.71031 32.58238 
L 53.64031 29.572345 
L 54.57031 27.814985 
L 55.50031 26.540882 
L 56.43031 26.691349 
L 57.36031 27.064135 
L 58.29031 27.818902 
L 59.22031 28.489052 
L 60.15031 28.877095 
L 61.08031 28.508116 
L 62.01031 28.26715 
L 62.94031 26.294542 
L 63.87031 25.986841 
" style="fill:none;stroke:#fc8d62;stroke-linecap:square;stroke-width:2;"/>
   </g>
   <g id="line2d_8">
    <path clip-path="url(#p2958fd3e83)" d="M 10.86031 69.459571 
L 11.79031 68.547592 
L 12.72031 68.236751 
L 13.65031 68.312153 
L 14.58031 67.780455 
L 15.51031 67.022195 
L 16.44031 66.912682 
L 17.37031 66.138774 
L 18.30031 65.724105 
L 19.23031 65.136929 
L 20.16031 64.154341 
L 21.09031 63.473867 
L 22.02031 62.268022 
L 22.95031 61.543443 
L 23.88031 60.750127 
L 24.81031 59.692412 
L 25.74031 57.722902 
L 26.67031 55.907551 
L 27.60031 54.089654 
L 28.53031 51.397923 
L 29.46031 47.546472 
L 30.39031 43.337971 
L 31.32031 42.252768 
L 32.25031 41.976382 
L 33.18031 42.623844 
L 34.11031 44.754182 
L 35.04031 45.655529 
L 35.97031 47.644506 
L 36.90031 48.994541 
L 37.83031 49.307141 
L 38.76031 49.945759 
L 39.69031 50.110055 
L 40.62031 50.139696 
L 41.55031 50.668102 
L 42.48031 50.507631 
L 43.41031 50.302513 
L 44.34031 49.663808 
L 45.27031 48.965962 
L 46.20031 47.986177 
L 47.13031 47.834458 
L 48.06031 47.230105 
L 48.99031 46.10387 
L 49.92031 44.349618 
L 50.85031 42.369064 
L 51.78031 41.447711 
L 52.71031 40.273162 
L 53.64031 37.928875 
L 54.57031 36.62944 
L 55.50031 35.250248 
L 56.43031 35.861959 
L 57.36031 36.145983 
L 58.29031 37.708821 
L 59.22031 38.595272 
L 60.15031 39.617772 
L 61.08031 41.035916 
L 62.01031 42.518651 
L 62.94031 42.804102 
L 63.87031 43.069339 
" style="fill:none;stroke:#fc8d62;stroke-dasharray:1.5,1.5;stroke-dashoffset:0;stroke-opacity:0.7;stroke-width:1.5;"/>
   </g>
   <g id="patch_3">
    <path d="M 9 74.837647 
L 9 25.92 
" style="fill:none;stroke:#a9a9a9;stroke-linecap:square;stroke-linejoin:miter;stroke-width:2;"/>
   </g>
   <g id="patch_4">
    <path d="M 64.8 74.837647 
L 64.8 25.92 
" style="fill:none;"/>
   </g>
   <g id="patch_5">
    <path d="M 9 74.837647 
L 64.8 74.837647 
" style="fill:none;stroke:#a9a9a9;stroke-linecap:square;stroke-linejoin:miter;stroke-width:2;"/>
   </g>
   <g id="patch_6">
    <path d="M 9 25.92 
L 64.8 25.92 
" style="fill:none;"/>
   </g>
  </g>
  <g id="axes_2">
   <g id="patch_7">
    <path d="M 9 133.538824 
L 64.8 133.538824 
L 64.8 84.621176 
L 9 84.621176 
z
" style="fill:none;"/>
   </g>
   <g id="matplotlib.axis_3">
    <g id="xtick_4">
     <g id="line2d_9">
      <g>
       <use style="fill:#a9a9a9;stroke:#a9a9a9;stroke-width:2;" x="9" xlink:href="#med359c782f" y="133.538824"/>
      </g>
     </g>
    </g>
    <g id="xtick_5">
     <g id="line2d_10">
      <g>
       <use style="fill:#a9a9a9;stroke:#a9a9a9;stroke-width:2;" x="36.9" xlink:href="#med359c782f" y="133.538824"/>
      </g>
     </g>
    </g>
    <g id="xtick_6">
     <g id="line2d_11">
      <g>
       <use style="fill:#a9a9a9;stroke:#a9a9a9;stroke-width:2;" x="64.8" xlink:href="#med359c782f" y="133.538824"/>
      </g>
     </g>
    </g>
   </g>
   <g id="matplotlib.axis_4">
    <g id="ytick_4">
     <g id="line2d_12">
      <g>
       <use style="fill:#a9a9a9;stroke:#a9a9a9;stroke-width:2;" x="9" xlink:href="#m7cdd3d50b9" y="133.538824"/>
      </g>
     </g>
    </g>
    <g id="ytick_5">
     <g id="line2d_13">
      <g>
       <use style="fill:#a9a9a9;stroke:#a9a9a9;stroke-width:2;" x="9" xlink:href="#m7cdd3d50b9" y="109.08"/>
      </g>
     </g>
    </g>
    <g id="ytick_6">
     <g id="line2d_14">
      <g>
       <use style="fill:#a9a9a9;stroke:#a9a9a9;stroke-width:2;" x="9" xlink:href="#m7cdd3d50b9" y="84.621176"/>
      </g>
     </g>
    </g>
   </g>
   <g id="line2d_15">
    <path clip-path="url(#p2c84011c39)" d="M 10.86031 94.214169 
L 11.79031 94.144154 
L 12.72031 94.081373 
L 13.65031 93.974996 
L 14.58031 93.871715 
L 15.51031 93.795174 
L 16.44031 93.741095 
L 17.37031 93.718649 
L 18.30031 93.705588 
L 19.23031 93.725313 
L 20.16031 93.719451 
L 21.09031 93.724094 
L 22.02031 93.738597 
L 22.95031 93.752519 
L 23.88031 93.773326 
L 24.81031 93.763427 
L 25.74031 93.751915 
L 26.67031 93.741156 
L 27.60031 93.742376 
L 28.53031 93.742875 
L 29.46031 93.717864 
L 30.39031 93.714424 
L 31.32031 93.704685 
L 32.25031 93.69558 
L 33.18031 93.686227 
L 34.11031 93.682106 
L 35.04031 93.686002 
L 35.97031 93.676818 
L 36.90031 93.671851 
L 37.83031 93.662747 
L 38.76031 93.651989 
L 39.69031 93.652593 
L 40.62031 93.652277 
L 41.55031 93.656417 
L 42.48031 93.653069 
L 43.41031 93.655339 
L 44.34031 93.663682 
L 45.27031 93.667886 
L 46.20031 93.673431 
L 47.13031 93.675243 
L 48.06031 93.681243 
L 48.99031 93.679972 
L 49.92031 93.681682 
L 50.85031 93.679801 
L 51.78031 93.682425 
L 52.71031 93.675116 
L 53.64031 93.671826 
L 54.57031 93.668651 
L 55.50031 93.664011 
L 56.43031 93.658106 
L 57.36031 93.657731 
L 58.29031 93.654611 
L 59.22031 93.651596 
L 60.15031 93.650213 
L 61.08031 93.645806 
L 62.01031 93.64562 
L 62.94031 93.642393 
L 63.87031 93.640541 
" style="fill:none;stroke:#fc8d62;stroke-linecap:square;stroke-width:2;"/>
   </g>
   <g id="line2d_16">
    <path clip-path="url(#p2c84011c39)" d="M 10.86031 98.541738 
L 11.79031 98.375974 
L 12.72031 98.302127 
L 13.65031 98.296237 
L 14.58031 98.241468 
L 15.51031 98.190244 
L 16.44031 98.172394 
L 17.37031 98.148169 
L 18.30031 98.143041 
L 19.23031 98.135781 
L 20.16031 98.122332 
L 21.09031 98.133405 
L 22.02031 98.122735 
L 22.95031 98.131367 
L 23.88031 98.131133 
L 24.81031 98.121215 
L 25.74031 98.108849 
L 26.67031 98.102337 
L 27.60031 98.087314 
L 28.53031 98.083258 
L 29.46031 98.067582 
L 30.39031 98.056608 
L 31.32031 98.053985 
L 32.25031 98.058285 
L 33.18031 98.05393 
L 34.11031 98.051272 
L 35.04031 98.04692 
L 35.97031 98.049544 
L 36.90031 98.051162 
L 37.83031 98.049657 
L 38.76031 98.042504 
L 39.69031 98.039798 
L 40.62031 98.040865 
L 41.55031 98.042289 
L 42.48031 98.04312 
L 43.41031 98.050288 
L 44.34031 98.055627 
L 45.27031 98.057711 
L 46.20031 98.061356 
L 47.13031 98.06262 
L 48.06031 98.066152 
L 48.99031 98.06677 
L 49.92031 98.068783 
L 50.85031 98.064534 
L 51.78031 98.062143 
L 52.71031 98.061877 
L 53.64031 98.064134 
L 54.57031 98.060055 
L 55.50031 98.060558 
L 56.43031 98.06008 
L 57.36031 98.062251 
L 58.29031 98.060912 
L 59.22031 98.058832 
L 60.15031 98.054626 
L 61.08031 98.052334 
L 62.01031 98.05374 
L 62.94031 98.053136 
L 63.87031 98.05337 
" style="fill:none;stroke:#fc8d62;stroke-dasharray:1.5,1.5;stroke-dashoffset:0;stroke-opacity:0.7;stroke-width:1.5;"/>
   </g>
   <g id="patch_8">
    <path d="M 9 133.538824 
L 9 84.621176 
" style="fill:none;stroke:#a9a9a9;stroke-linecap:square;stroke-linejoin:miter;stroke-width:2;"/>
   </g>
   <g id="patch_9">
    <path d="M 64.8 133.538824 
L 64.8 84.621176 
" style="fill:none;"/>
   </g>
   <g id="patch_10">
    <path d="M 9 133.538824 
L 64.8 133.538824 
" style="fill:none;stroke:#a9a9a9;stroke-linecap:square;stroke-linejoin:miter;stroke-width:2;"/>
   </g>
   <g id="patch_11">
    <path d="M 9 84.621176 
L 64.8 84.621176 
" style="fill:none;"/>
   </g>
  </g>
  <g id="axes_3">
   <g id="patch_12">
    <path d="M 9 192.24 
L 64.8 192.24 
L 64.8 143.322353 
L 9 143.322353 
z
" style="fill:none;"/>
   </g>
   <g id="matplotlib.axis_5">
    <g id="xtick_7">
     <g id="line2d_17">
      <g>
       <use style="fill:#a9a9a9;stroke:#a9a9a9;stroke-width:2;" x="9" xlink:href="#med359c782f" y="147.009571"/>
      </g>
     </g>
    </g>
    <g id="xtick_8">
     <g id="line2d_18">
      <g>
       <use style="fill:#a9a9a9;stroke:#a9a9a9;stroke-width:2;" x="36.9" xlink:href="#med359c782f" y="147.009571"/>
      </g>
     </g>
    </g>
    <g id="xtick_9">
     <g id="line2d_19">
      <g>
       <use style="fill:#a9a9a9;stroke:#a9a9a9;stroke-width:2;" x="64.8" xlink:href="#med359c782f" y="147.009571"/>
      </g>
     </g>
    </g>
   </g>
   <g id="matplotlib.axis_6">
    <g id="ytick_7">
     <g id="line2d_20">
      <g>
       <use style="fill:#a9a9a9;stroke:#a9a9a9;stroke-width:2;" x="9" xlink:href="#m7cdd3d50b9" y="147.009571"/>
      </g>
     </g>
    </g>
    <g id="ytick_8">
     <g id="line2d_21">
      <g>
       <use style="fill:#a9a9a9;stroke:#a9a9a9;stroke-width:2;" x="9" xlink:href="#m7cdd3d50b9" y="177.16319"/>
      </g>
     </g>
    </g>
   </g>
   <g id="line2d_22">
    <path clip-path="url(#p467a33d113)" d="M 10.86031 143.376438 
L 11.79031 143.322353 
L 12.72031 143.701493 
L 13.65031 143.856435 
L 14.58031 143.890282 
L 15.51031 143.762076 
L 16.44031 143.710583 
L 17.37031 143.660803 
L 18.30031 143.588532 
L 19.23031 143.612015 
L 20.16031 143.525395 
L 21.09031 143.552295 
L 22.02031 143.596685 
L 22.95031 143.64009 
L 23.88031 143.603004 
L 24.81031 143.596241 
L 25.74031 143.626053 
L 26.67031 143.623312 
L 27.60031 143.647507 
L 28.53031 143.675227 
L 29.46031 143.640355 
L 30.39031 143.636359 
L 31.32031 143.652847 
L 32.25031 143.649881 
L 33.18031 143.650428 
L 34.11031 143.68477 
L 35.04031 143.693207 
L 35.97031 143.671509 
L 36.90031 143.650009 
L 37.83031 143.6814 
L 38.76031 143.704542 
L 39.69031 143.695368 
L 40.62031 143.716905 
L 41.55031 143.708038 
L 42.48031 143.674649 
L 43.41031 143.673625 
L 44.34031 143.703072 
L 45.27031 143.707571 
L 46.20031 143.715111 
L 47.13031 143.714341 
L 48.06031 143.717916 
L 48.99031 143.710199 
L 49.92031 143.706663 
L 50.85031 143.696442 
L 51.78031 143.699888 
L 52.71031 143.703541 
L 53.64031 143.704747 
L 54.57031 143.710759 
L 55.50031 143.699423 
L 56.43031 143.685741 
L 57.36031 143.704487 
L 58.29031 143.71714 
L 59.22031 143.690729 
L 60.15031 143.664863 
L 61.08031 143.687675 
L 62.01031 143.692273 
L 62.94031 143.668547 
L 63.87031 143.65439 
" style="fill:none;stroke:#fc8d62;stroke-linecap:square;stroke-width:2;"/>
   </g>
   <g id="line2d_23">
    <path clip-path="url(#p467a33d113)" d="M 10.86031 147.007379 
L 11.79031 147.008313 
L 12.72031 147.009509 
L 13.65031 147.009561 
L 14.58031 147.009183 
L 15.51031 147.009504 
L 16.44031 147.009635 
L 17.37031 147.009476 
L 18.30031 147.009573 
L 19.23031 147.009527 
L 20.16031 147.009571 
L 21.09031 147.009166 
L 22.02031 147.009571 
L 22.95031 147.009466 
L 23.88031 147.009397 
L 24.81031 147.009562 
L 25.74031 147.009323 
L 26.67031 147.009209 
L 27.60031 147.009364 
L 28.53031 147.009364 
L 29.46031 147.009318 
L 30.39031 147.009615 
L 31.32031 147.009291 
L 32.25031 147.00931 
L 33.18031 147.00933 
L 34.11031 147.009129 
L 35.04031 147.009327 
L 35.97031 147.009323 
L 36.90031 147.00947 
L 37.83031 147.009375 
L 38.76031 147.009172 
L 39.69031 147.009572 
L 40.62031 147.009547 
L 41.55031 147.008951 
L 42.48031 147.008655 
L 43.41031 147.009039 
L 44.34031 147.009589 
L 45.27031 147.00925 
L 46.20031 147.009114 
L 47.13031 147.009124 
L 48.06031 147.009488 
L 48.99031 147.009359 
L 49.92031 147.009358 
L 50.85031 147.009373 
L 51.78031 147.009573 
L 52.71031 147.009571 
L 53.64031 147.009464 
L 54.57031 147.009337 
L 55.50031 147.009527 
L 56.43031 147.009561 
L 57.36031 147.00939 
L 58.29031 147.009171 
L 59.22031 147.009462 
L 60.15031 147.009571 
L 61.08031 147.009262 
L 62.01031 147.009569 
L 62.94031 147.009642 
L 63.87031 147.009582 
" style="fill:none;stroke:#fc8d62;stroke-dasharray:1.5,1.5;stroke-dashoffset:0;stroke-opacity:0.7;stroke-width:1.5;"/>
   </g>
   <g id="line2d_24">
    <path clip-path="url(#p467a33d113)" d="M 9 177.16319 
L 64.8 177.16319 
" style="fill:none;stroke:#66c2a5;stroke-dasharray:1.5,1.5;stroke-dashoffset:0;stroke-opacity:0.7;stroke-width:1.5;"/>
   </g>
   <g id="patch_13">
    <path d="M 9 192.24 
L 9 143.322353 
" style="fill:none;stroke:#a9a9a9;stroke-linecap:square;stroke-linejoin:miter;stroke-width:2;"/>
   </g>
   <g id="patch_14">
    <path d="M 64.8 192.24 
L 64.8 143.322353 
" style="fill:none;"/>
   </g>
   <g id="patch_15">
    <path d="M 9 147.009571 
L 64.8 147.009571 
" style="fill:none;stroke:#a9a9a9;stroke-linecap:square;stroke-linejoin:miter;stroke-width:2;"/>
   </g>
   <g id="patch_16">
    <path d="M 9 143.322353 
L 64.8 143.322353 
" style="fill:none;"/>
   </g>
  </g>
 </g>
 <defs>
  <clipPath id="p2958fd3e83">
   <rect height="48.917647" width="55.8" x="9" y="25.92"/>
  </clipPath>
  <clipPath id="p2c84011c39">
   <rect height="48.917647" width="55.8" x="9" y="84.621176"/>
  </clipPath>
  <clipPath id="p467a33d113">
   <rect height="48.917647" width="55.8" x="9" y="143.322353"/>
  </clipPath>
 </defs>
</svg>
