<?xml version="1.0" encoding="utf-8" standalone="no"?>
<!DOCTYPE svg PUBLIC "-//W3C//DTD SVG 1.1//EN"
  "http://www.w3.org/Graphics/SVG/1.1/DTD/svg11.dtd">
<!-- Created with matplotlib (https://matplotlib.org/) -->
<svg height="216pt" version="1.1" viewBox="0 0 72 216" width="72pt" xmlns="http://www.w3.org/2000/svg" xmlns:xlink="http://www.w3.org/1999/xlink">
 <metadata>
  <rdf:RDF xmlns:cc="http://creativecommons.org/ns#" xmlns:dc="http://purl.org/dc/elements/1.1/" xmlns:rdf="http://www.w3.org/1999/02/22-rdf-syntax-ns#">
   <cc:Work>
    <dc:type rdf:resource="http://purl.org/dc/dcmitype/StillImage"/>
    <dc:date>2021-10-13T00:30:08.319716</dc:date>
    <dc:format>image/svg+xml</dc:format>
    <dc:creator>
     <cc:Agent>
      <dc:title>Matplotlib v3.3.2, https://matplotlib.org/</dc:title>
     </cc:Agent>
    </dc:creator>
   </cc:Work>
  </rdf:RDF>
 </metadata>
 <defs>
  <style type="text/css">*{stroke-linecap:butt;stroke-linejoin:round;}</style>
 </defs>
 <g id="figure_1">
  <g id="patch_1">
   <path d="M 0 216 
L 72 216 
L 72 0 
L 0 0 
z
" style="fill:none;"/>
  </g>
  <g id="axes_1">
   <g id="patch_2">
    <path d="M 9 74.837647 
L 64.8 74.837647 
L 64.8 25.92 
L 9 25.92 
z
" style="fill:none;"/>
   </g>
   <g id="matplotlib.axis_1">
    <g id="xtick_1">
     <g id="line2d_1">
      <defs>
       <path d="M 0 0 
L 0 3.5 
" id="mcde8c35195" style="stroke:#a9a9a9;stroke-width:2;"/>
      </defs>
      <g>
       <use style="fill:#a9a9a9;stroke:#a9a9a9;stroke-width:2;" x="9" xlink:href="#mcde8c35195" y="74.837647"/>
      </g>
     </g>
    </g>
    <g id="xtick_2">
     <g id="line2d_2">
      <g>
       <use style="fill:#a9a9a9;stroke:#a9a9a9;stroke-width:2;" x="36.9" xlink:href="#mcde8c35195" y="74.837647"/>
      </g>
     </g>
    </g>
    <g id="xtick_3">
     <g id="line2d_3">
      <g>
       <use style="fill:#a9a9a9;stroke:#a9a9a9;stroke-width:2;" x="64.8" xlink:href="#mcde8c35195" y="74.837647"/>
      </g>
     </g>
    </g>
   </g>
   <g id="matplotlib.axis_2">
    <g id="ytick_1">
     <g id="line2d_4">
      <defs>
       <path d="M 0 0 
L -3.5 0 
" id="m16766037dc" style="stroke:#a9a9a9;stroke-width:2;"/>
      </defs>
      <g>
       <use style="fill:#a9a9a9;stroke:#a9a9a9;stroke-width:2;" x="9" xlink:href="#m16766037dc" y="74.837647"/>
      </g>
     </g>
    </g>
    <g id="ytick_2">
     <g id="line2d_5">
      <g>
       <use style="fill:#a9a9a9;stroke:#a9a9a9;stroke-width:2;" x="9" xlink:href="#m16766037dc" y="72.335291"/>
      </g>
     </g>
    </g>
    <g id="ytick_3">
     <g id="line2d_6">
      <g>
       <use style="fill:#a9a9a9;stroke:#a9a9a9;stroke-width:2;" x="9" xlink:href="#m16766037dc" y="69.832935"/>
      </g>
     </g>
    </g>
   </g>
   <g id="line2d_7">
    <path clip-path="url(#p40621a0d91)" d="M 10.86031 66.495241 
L 11.79031 65.825633 
L 12.72031 64.822609 
L 13.65031 63.526477 
L 14.58031 62.435375 
L 15.51031 61.243812 
L 16.44031 60.068627 
L 17.37031 58.540791 
L 18.30031 58.26727 
L 19.23031 57.748584 
L 20.16031 56.7708 
L 21.09031 55.874466 
L 22.02031 55.195581 
L 22.95031 53.819452 
L 23.88031 52.539118 
L 24.81031 50.270579 
L 25.74031 49.115961 
L 26.67031 47.955035 
L 27.60031 46.641927 
L 28.53031 44.454721 
L 29.46031 42.68446 
L 30.39031 42.466873 
L 31.32031 42.175724 
L 32.25031 42.686676 
L 33.18031 42.969808 
L 34.11031 41.910267 
L 35.04031 40.027907 
L 35.97031 39.274133 
L 36.90031 39.214967 
L 37.83031 38.573364 
L 38.76031 39.171928 
L 39.69031 39.386846 
L 40.62031 39.004818 
L 41.55031 38.525086 
L 42.48031 37.498446 
L 43.41031 38.05783 
L 44.34031 36.760048 
L 45.27031 35.892199 
L 46.20031 36.569054 
L 47.13031 35.413569 
L 48.06031 34.52335 
L 48.99031 33.916882 
L 49.92031 32.829279 
L 50.85031 31.321806 
L 51.78031 30.88294 
L 52.71031 29.947773 
L 53.64031 29.499806 
L 54.57031 29.118792 
L 55.50031 27.837602 
L 56.43031 27.307508 
L 57.36031 27.541382 
L 58.29031 27.783781 
L 59.22031 26.903835 
L 60.15031 26.223532 
L 61.08031 26.16205 
L 62.01031 26.045118 
L 62.94031 27.099184 
L 63.87031 26.916243 
" style="fill:none;stroke:#fc8d62;stroke-linecap:square;stroke-width:2;"/>
   </g>
   <g id="line2d_8">
    <path clip-path="url(#p40621a0d91)" d="M 10.86031 66.948826 
L 11.79031 65.899852 
L 12.72031 65.244612 
L 13.65031 63.626664 
L 14.58031 62.525772 
L 15.51031 60.832687 
L 16.44031 59.142183 
L 17.37031 58.525581 
L 18.30031 57.06049 
L 19.23031 55.692056 
L 20.16031 55.266291 
L 21.09031 54.293951 
L 22.02031 52.858327 
L 22.95031 52.934991 
L 23.88031 52.424285 
L 24.81031 49.530936 
L 25.74031 47.650705 
L 26.67031 46.027858 
L 27.60031 43.848485 
L 28.53031 44.257272 
L 29.46031 44.305474 
L 30.39031 42.841669 
L 31.32031 42.501361 
L 32.25031 40.87904 
L 33.18031 39.925707 
L 34.11031 39.737572 
L 35.04031 38.017137 
L 35.97031 37.870187 
L 36.90031 37.965981 
L 37.83031 37.347737 
L 38.76031 37.933842 
L 39.69031 35.958883 
L 40.62031 34.358969 
L 41.55031 33.9587 
L 42.48031 32.815306 
L 43.41031 32.611669 
L 44.34031 30.698903 
L 45.27031 29.686702 
L 46.20031 28.924204 
L 47.13031 29.539544 
L 48.06031 29.472201 
L 48.99031 29.471364 
L 49.92031 29.147376 
L 50.85031 28.524283 
L 51.78031 27.732787 
L 52.71031 27.084384 
L 53.64031 25.656662 
L 54.57031 24.791109 
L 55.50031 25.254206 
L 56.43031 23.278485 
L 57.36031 22.81822 
L 58.29031 22.511948 
L 59.22031 22.870058 
L 60.15031 22.082364 
L 61.08031 21.464759 
L 62.01031 20.420008 
L 62.94031 22.126923 
L 63.87031 22.356394 
" style="fill:none;stroke:#fc8d62;stroke-dasharray:1.5,1.5;stroke-dashoffset:0;stroke-opacity:0.7;stroke-width:1.5;"/>
   </g>
   <g id="patch_3">
    <path d="M 9 74.837647 
L 9 25.92 
" style="fill:none;stroke:#a9a9a9;stroke-linecap:square;stroke-linejoin:miter;stroke-width:2;"/>
   </g>
   <g id="patch_4">
    <path d="M 64.8 74.837647 
L 64.8 25.92 
" style="fill:none;"/>
   </g>
   <g id="patch_5">
    <path d="M 9 74.837647 
L 64.8 74.837647 
" style="fill:none;stroke:#a9a9a9;stroke-linecap:square;stroke-linejoin:miter;stroke-width:2;"/>
   </g>
   <g id="patch_6">
    <path d="M 9 25.92 
L 64.8 25.92 
" style="fill:none;"/>
   </g>
  </g>
  <g id="axes_2">
   <g id="patch_7">
    <path d="M 9 133.538824 
L 64.8 133.538824 
L 64.8 84.621176 
L 9 84.621176 
z
" style="fill:none;"/>
   </g>
   <g id="matplotlib.axis_3">
    <g id="xtick_4">
     <g id="line2d_9">
      <g>
       <use style="fill:#a9a9a9;stroke:#a9a9a9;stroke-width:2;" x="9" xlink:href="#mcde8c35195" y="133.538824"/>
      </g>
     </g>
    </g>
    <g id="xtick_5">
     <g id="line2d_10">
      <g>
       <use style="fill:#a9a9a9;stroke:#a9a9a9;stroke-width:2;" x="36.9" xlink:href="#mcde8c35195" y="133.538824"/>
      </g>
     </g>
    </g>
    <g id="xtick_6">
     <g id="line2d_11">
      <g>
       <use style="fill:#a9a9a9;stroke:#a9a9a9;stroke-width:2;" x="64.8" xlink:href="#mcde8c35195" y="133.538824"/>
      </g>
     </g>
    </g>
   </g>
   <g id="matplotlib.axis_4">
    <g id="ytick_4">
     <g id="line2d_12">
      <g>
       <use style="fill:#a9a9a9;stroke:#a9a9a9;stroke-width:2;" x="9" xlink:href="#m16766037dc" y="133.538824"/>
      </g>
     </g>
    </g>
    <g id="ytick_5">
     <g id="line2d_13">
      <g>
       <use style="fill:#a9a9a9;stroke:#a9a9a9;stroke-width:2;" x="9" xlink:href="#m16766037dc" y="109.08"/>
      </g>
     </g>
    </g>
    <g id="ytick_6">
     <g id="line2d_14">
      <g>
       <use style="fill:#a9a9a9;stroke:#a9a9a9;stroke-width:2;" x="9" xlink:href="#m16766037dc" y="84.621176"/>
      </g>
     </g>
    </g>
   </g>
   <g id="line2d_15">
    <path clip-path="url(#pce2e71651b)" d="M 10.86031 103.526019 
L 11.79031 103.297453 
L 12.72031 103.197606 
L 13.65031 103.075486 
L 14.58031 102.961521 
L 15.51031 102.92631 
L 16.44031 102.84422 
L 17.37031 102.850973 
L 18.30031 102.834414 
L 19.23031 102.817444 
L 20.16031 102.784291 
L 21.09031 102.808136 
L 22.02031 102.798597 
L 22.95031 102.782517 
L 23.88031 102.792547 
L 24.81031 102.777853 
L 25.74031 102.777321 
L 26.67031 102.773062 
L 27.60031 102.762347 
L 28.53031 102.733538 
L 29.46031 102.741362 
L 30.39031 102.742535 
L 31.32031 102.73493 
L 32.25031 102.731588 
L 33.18031 102.725062 
L 34.11031 102.722819 
L 35.04031 102.715443 
L 35.97031 102.699105 
L 36.90031 102.681823 
L 37.83031 102.688907 
L 38.76031 102.697037 
L 39.69031 102.675158 
L 40.62031 102.678671 
L 41.55031 102.686321 
L 42.48031 102.684524 
L 43.41031 102.68032 
L 44.34031 102.692865 
L 45.27031 102.68771 
L 46.20031 102.693262 
L 47.13031 102.702318 
L 48.06031 102.687068 
L 48.99031 102.691179 
L 49.92031 102.687089 
L 50.85031 102.687842 
L 51.78031 102.686477 
L 52.71031 102.694506 
L 53.64031 102.687146 
L 54.57031 102.684819 
L 55.50031 102.681234 
L 56.43031 102.674379 
L 57.36031 102.666998 
L 58.29031 102.668973 
L 59.22031 102.66706 
L 60.15031 102.670609 
L 61.08031 102.666087 
L 62.01031 102.671484 
L 62.94031 102.668415 
L 63.87031 102.671945 
" style="fill:none;stroke:#fc8d62;stroke-linecap:square;stroke-width:2;"/>
   </g>
   <g id="line2d_16">
    <path clip-path="url(#pce2e71651b)" d="M 10.86031 99.86329 
L 11.79031 99.69838 
L 12.72031 99.632298 
L 13.65031 99.462059 
L 14.58031 99.372147 
L 15.51031 99.25315 
L 16.44031 99.215765 
L 17.37031 99.1936 
L 18.30031 99.185828 
L 19.23031 99.176621 
L 20.16031 99.160519 
L 21.09031 99.182466 
L 22.02031 99.173636 
L 22.95031 99.181138 
L 23.88031 99.174721 
L 24.81031 99.153222 
L 25.74031 99.149682 
L 26.67031 99.144481 
L 27.60031 99.135185 
L 28.53031 99.134532 
L 29.46031 99.13527 
L 30.39031 99.126171 
L 31.32031 99.131744 
L 32.25031 99.124513 
L 33.18031 99.122876 
L 34.11031 99.112313 
L 35.04031 99.112082 
L 35.97031 99.116626 
L 36.90031 99.11205 
L 37.83031 99.111472 
L 38.76031 99.112201 
L 39.69031 99.11103 
L 40.62031 99.106497 
L 41.55031 99.107052 
L 42.48031 99.107374 
L 43.41031 99.108233 
L 44.34031 99.106421 
L 45.27031 99.104347 
L 46.20031 99.111858 
L 47.13031 99.112996 
L 48.06031 99.11666 
L 48.99031 99.117653 
L 49.92031 99.120234 
L 50.85031 99.118103 
L 51.78031 99.119681 
L 52.71031 99.115424 
L 53.64031 99.11091 
L 54.57031 99.110757 
L 55.50031 99.109023 
L 56.43031 99.106672 
L 57.36031 99.106114 
L 58.29031 99.104674 
L 59.22031 99.106274 
L 60.15031 99.098415 
L 61.08031 99.094076 
L 62.01031 99.093081 
L 62.94031 99.092464 
L 63.87031 99.092941 
" style="fill:none;stroke:#fc8d62;stroke-dasharray:1.5,1.5;stroke-dashoffset:0;stroke-opacity:0.7;stroke-width:1.5;"/>
   </g>
   <g id="patch_8">
    <path d="M 9 133.538824 
L 9 84.621176 
" style="fill:none;stroke:#a9a9a9;stroke-linecap:square;stroke-linejoin:miter;stroke-width:2;"/>
   </g>
   <g id="patch_9">
    <path d="M 64.8 133.538824 
L 64.8 84.621176 
" style="fill:none;"/>
   </g>
   <g id="patch_10">
    <path d="M 9 133.538824 
L 64.8 133.538824 
" style="fill:none;stroke:#a9a9a9;stroke-linecap:square;stroke-linejoin:miter;stroke-width:2;"/>
   </g>
   <g id="patch_11">
    <path d="M 9 84.621176 
L 64.8 84.621176 
" style="fill:none;"/>
   </g>
  </g>
  <g id="axes_3">
   <g id="patch_12">
    <path d="M 9 192.24 
L 64.8 192.24 
L 64.8 143.322353 
L 9 143.322353 
z
" style="fill:none;"/>
   </g>
   <g id="matplotlib.axis_5">
    <g id="xtick_7">
     <g id="line2d_17">
      <g>
       <use style="fill:#a9a9a9;stroke:#a9a9a9;stroke-width:2;" x="9" xlink:href="#mcde8c35195" y="143.322839"/>
      </g>
     </g>
    </g>
    <g id="xtick_8">
     <g id="line2d_18">
      <g>
       <use style="fill:#a9a9a9;stroke:#a9a9a9;stroke-width:2;" x="36.9" xlink:href="#mcde8c35195" y="143.322839"/>
      </g>
     </g>
    </g>
    <g id="xtick_9">
     <g id="line2d_19">
      <g>
       <use style="fill:#a9a9a9;stroke:#a9a9a9;stroke-width:2;" x="64.8" xlink:href="#mcde8c35195" y="143.322839"/>
      </g>
     </g>
    </g>
   </g>
   <g id="matplotlib.axis_6">
    <g id="ytick_7">
     <g id="line2d_20">
      <g>
       <use style="fill:#a9a9a9;stroke:#a9a9a9;stroke-width:2;" x="9" xlink:href="#m16766037dc" y="143.322839"/>
      </g>
     </g>
    </g>
    <g id="ytick_8">
     <g id="line2d_21">
      <g>
       <use style="fill:#a9a9a9;stroke:#a9a9a9;stroke-width:2;" x="9" xlink:href="#m16766037dc" y="175.93428"/>
      </g>
     </g>
    </g>
   </g>
   <g id="line2d_22">
    <path clip-path="url(#p5e67758202)" d="M 10.86031 144.67921 
L 11.79031 145.067136 
L 12.72031 145.222463 
L 13.65031 145.224481 
L 14.58031 145.306066 
L 15.51031 145.237692 
L 16.44031 145.006866 
L 17.37031 145.13898 
L 18.30031 145.085487 
L 19.23031 144.922093 
L 20.16031 144.865491 
L 21.09031 144.835341 
L 22.02031 144.900022 
L 22.95031 144.926613 
L 23.88031 144.924646 
L 24.81031 144.912445 
L 25.74031 144.958437 
L 26.67031 144.959122 
L 27.60031 144.901199 
L 28.53031 144.869995 
L 29.46031 144.899678 
L 30.39031 144.869932 
L 31.32031 144.850209 
L 32.25031 144.862269 
L 33.18031 144.878617 
L 34.11031 144.83767 
L 35.04031 144.773191 
L 35.97031 144.792485 
L 36.90031 144.743922 
L 37.83031 144.742328 
L 38.76031 144.7613 
L 39.69031 144.775283 
L 40.62031 144.779924 
L 41.55031 144.796133 
L 42.48031 144.784973 
L 43.41031 144.763711 
L 44.34031 144.758557 
L 45.27031 144.738316 
L 46.20031 144.777874 
L 47.13031 144.839784 
L 48.06031 144.813009 
L 48.99031 144.826479 
L 49.92031 144.808059 
L 50.85031 144.810343 
L 51.78031 144.820509 
L 52.71031 144.843015 
L 53.64031 144.817813 
L 54.57031 144.833671 
L 55.50031 144.830211 
L 56.43031 144.836496 
L 57.36031 144.818596 
L 58.29031 144.81789 
L 59.22031 144.821567 
L 60.15031 144.836973 
L 61.08031 144.846004 
L 62.01031 144.854208 
L 62.94031 144.868385 
L 63.87031 144.885848 
" style="fill:none;stroke:#fc8d62;stroke-linecap:square;stroke-width:2;"/>
   </g>
   <g id="line2d_23">
    <path clip-path="url(#p5e67758202)" d="M 10.86031 143.322844 
L 11.79031 143.322613 
L 12.72031 143.322353 
L 13.65031 143.322567 
L 14.58031 143.32284 
L 15.51031 143.322907 
L 16.44031 143.322368 
L 17.37031 143.322837 
L 18.30031 143.322445 
L 19.23031 143.322899 
L 20.16031 143.322669 
L 21.09031 143.322799 
L 22.02031 143.322817 
L 22.95031 143.322622 
L 23.88031 143.322866 
L 24.81031 143.322566 
L 25.74031 143.322836 
L 26.67031 143.323081 
L 27.60031 143.322839 
L 28.53031 143.32284 
L 29.46031 143.323044 
L 30.39031 143.323289 
L 31.32031 143.322965 
L 32.25031 143.323197 
L 33.18031 143.322841 
L 34.11031 143.322841 
L 35.04031 143.322866 
L 35.97031 143.322838 
L 36.90031 143.322838 
L 37.83031 143.322839 
L 38.76031 143.322839 
L 39.69031 143.32283 
L 40.62031 143.322839 
L 41.55031 143.322839 
L 42.48031 143.322802 
L 43.41031 143.322839 
L 44.34031 143.322822 
L 45.27031 143.322821 
L 46.20031 143.322827 
L 47.13031 143.322784 
L 48.06031 143.322787 
L 48.99031 143.322779 
L 49.92031 143.322838 
L 50.85031 143.322809 
L 51.78031 143.322769 
L 52.71031 143.322834 
L 53.64031 143.322782 
L 54.57031 143.322806 
L 55.50031 143.322807 
L 56.43031 143.322828 
L 57.36031 143.322837 
L 58.29031 143.322837 
L 59.22031 143.322831 
L 60.15031 143.322806 
L 61.08031 143.322806 
L 62.01031 143.322726 
L 62.94031 143.322754 
L 63.87031 143.32272 
" style="fill:none;stroke:#fc8d62;stroke-dasharray:1.5,1.5;stroke-dashoffset:0;stroke-opacity:0.7;stroke-width:1.5;"/>
   </g>
   <g id="line2d_24">
    <path clip-path="url(#p5e67758202)" d="M 9 175.93428 
L 64.8 175.93428 
" style="fill:none;stroke:#66c2a5;stroke-dasharray:1.5,1.5;stroke-dashoffset:0;stroke-opacity:0.7;stroke-width:1.5;"/>
   </g>
   <g id="patch_13">
    <path d="M 9 192.24 
L 9 143.322353 
" style="fill:none;stroke:#a9a9a9;stroke-linecap:square;stroke-linejoin:miter;stroke-width:2;"/>
   </g>
   <g id="patch_14">
    <path d="M 64.8 192.24 
L 64.8 143.322353 
" style="fill:none;"/>
   </g>
   <g id="patch_15">
    <path d="M 9 143.322839 
L 64.8 143.322839 
" style="fill:none;stroke:#a9a9a9;stroke-linecap:square;stroke-linejoin:miter;stroke-width:2;"/>
   </g>
   <g id="patch_16">
    <path d="M 9 143.322353 
L 64.8 143.322353 
" style="fill:none;"/>
   </g>
  </g>
 </g>
 <defs>
  <clipPath id="p40621a0d91">
   <rect height="48.917647" width="55.8" x="9" y="25.92"/>
  </clipPath>
  <clipPath id="pce2e71651b">
   <rect height="48.917647" width="55.8" x="9" y="84.621176"/>
  </clipPath>
  <clipPath id="p5e67758202">
   <rect height="48.917647" width="55.8" x="9" y="143.322353"/>
  </clipPath>
 </defs>
</svg>
