<?xml version="1.0" encoding="utf-8" standalone="no"?>
<!DOCTYPE svg PUBLIC "-//W3C//DTD SVG 1.1//EN"
  "http://www.w3.org/Graphics/SVG/1.1/DTD/svg11.dtd">
<!-- Created with matplotlib (https://matplotlib.org/) -->
<svg height="144pt" version="1.1" viewBox="0 0 72 144" width="72pt" xmlns="http://www.w3.org/2000/svg" xmlns:xlink="http://www.w3.org/1999/xlink">
 <metadata>
  <rdf:RDF xmlns:cc="http://creativecommons.org/ns#" xmlns:dc="http://purl.org/dc/elements/1.1/" xmlns:rdf="http://www.w3.org/1999/02/22-rdf-syntax-ns#">
   <cc:Work>
    <dc:type rdf:resource="http://purl.org/dc/dcmitype/StillImage"/>
    <dc:date>2021-10-11T18:25:39.826007</dc:date>
    <dc:format>image/svg+xml</dc:format>
    <dc:creator>
     <cc:Agent>
      <dc:title>Matplotlib v3.3.2, https://matplotlib.org/</dc:title>
     </cc:Agent>
    </dc:creator>
   </cc:Work>
  </rdf:RDF>
 </metadata>
 <defs>
  <style type="text/css">*{stroke-linecap:butt;stroke-linejoin:round;}</style>
 </defs>
 <g id="figure_1">
  <g id="patch_1">
   <path d="M 0 144 
L 72 144 
L 72 0 
L 0 0 
z
" style="fill:none;"/>
  </g>
  <g id="axes_1">
   <g id="patch_2">
    <path d="M 9 67.68 
L 64.8 67.68 
L 64.8 17.28 
L 9 17.28 
z
" style="fill:none;"/>
   </g>
   <g id="matplotlib.axis_1">
    <g id="xtick_1">
     <g id="line2d_1">
      <defs>
       <path d="M 0 0 
L 0 3.5 
" id="maa15b637c9" style="stroke:#a9a9a9;stroke-width:2;"/>
      </defs>
      <g>
       <use style="fill:#a9a9a9;stroke:#a9a9a9;stroke-width:2;" x="9" xlink:href="#maa15b637c9" y="67.68"/>
      </g>
     </g>
    </g>
    <g id="xtick_2">
     <g id="line2d_2">
      <g>
       <use style="fill:#a9a9a9;stroke:#a9a9a9;stroke-width:2;" x="36.9" xlink:href="#maa15b637c9" y="67.68"/>
      </g>
     </g>
    </g>
    <g id="xtick_3">
     <g id="line2d_3">
      <g>
       <use style="fill:#a9a9a9;stroke:#a9a9a9;stroke-width:2;" x="64.8" xlink:href="#maa15b637c9" y="67.68"/>
      </g>
     </g>
    </g>
   </g>
   <g id="matplotlib.axis_2">
    <g id="ytick_1">
     <g id="line2d_4">
      <defs>
       <path d="M 0 0 
L -3.5 0 
" id="mbc27f39b3c" style="stroke:#a9a9a9;stroke-width:2;"/>
      </defs>
      <g>
       <use style="fill:#a9a9a9;stroke:#a9a9a9;stroke-width:2;" x="9" xlink:href="#mbc27f39b3c" y="67.68"/>
      </g>
     </g>
    </g>
    <g id="ytick_2">
     <g id="line2d_5">
      <g>
       <use style="fill:#a9a9a9;stroke:#a9a9a9;stroke-width:2;" x="9" xlink:href="#mbc27f39b3c" y="53.402073"/>
      </g>
     </g>
    </g>
    <g id="ytick_3">
     <g id="line2d_6">
      <g>
       <use style="fill:#a9a9a9;stroke:#a9a9a9;stroke-width:2;" x="9" xlink:href="#mbc27f39b3c" y="39.124146"/>
      </g>
     </g>
    </g>
   </g>
   <g id="line2d_7">
    <path clip-path="url(#p79b44601dc)" d="M 10.86031 58.588341 
L 11.79031 56.336552 
L 12.72031 54.455263 
L 13.65031 52.422099 
L 14.58031 51.108176 
L 15.51031 50.02667 
L 16.44031 49.838353 
L 17.37031 48.277741 
L 18.30031 47.296729 
L 19.23031 46.603936 
L 20.16031 45.214 
L 21.09031 44.200826 
L 22.02031 42.567195 
L 22.95031 41.311979 
L 23.88031 40.686376 
L 24.81031 40.163857 
L 25.74031 39.858251 
L 26.67031 39.075026 
L 27.60031 38.680536 
L 28.53031 38.106177 
L 29.46031 37.773409 
L 30.39031 36.707346 
L 31.32031 36.160181 
L 32.25031 34.93525 
L 33.18031 33.6179 
L 34.11031 32.424643 
L 35.04031 32.120339 
L 35.97031 31.74247 
L 36.90031 31.434672 
L 37.83031 30.296751 
L 38.76031 29.341592 
L 39.69031 28.54439 
L 40.62031 28.087206 
L 41.55031 27.232645 
L 42.48031 26.935656 
L 43.41031 26.253846 
L 44.34031 25.661988 
L 45.27031 24.684314 
L 46.20031 24.289997 
L 47.13031 23.738122 
L 48.06031 24.087729 
L 48.99031 25.061844 
L 49.92031 25.293756 
L 50.85031 24.542743 
L 51.78031 24.110929 
L 52.71031 23.708867 
L 53.64031 23.43109 
L 54.57031 23.072445 
L 55.50031 23.310146 
L 56.43031 22.564665 
L 57.36031 21.80309 
L 58.29031 21.026525 
L 59.22031 20.011867 
L 60.15031 19.88891 
L 61.08031 18.997615 
L 62.01031 19.108481 
L 62.94031 18.920145 
L 63.87031 17.993896 
" style="fill:none;stroke:#fc8d62;stroke-linecap:square;stroke-width:2;"/>
   </g>
   <g id="line2d_8">
    <path clip-path="url(#p79b44601dc)" d="M 10.86031 60.708062 
L 11.79031 58.876564 
L 12.72031 58.358937 
L 13.65031 57.03944 
L 14.58031 55.665187 
L 15.51031 53.346764 
L 16.44031 52.882424 
L 17.37031 51.749826 
L 18.30031 50.333673 
L 19.23031 49.233653 
L 20.16031 48.7664 
L 21.09031 48.009406 
L 22.02031 47.212766 
L 22.95031 46.265086 
L 23.88031 45.745211 
L 24.81031 45.101765 
L 25.74031 44.168237 
L 26.67031 43.059141 
L 27.60031 42.782562 
L 28.53031 42.622966 
L 29.46031 42.175268 
L 30.39031 41.239718 
L 31.32031 41.273011 
L 32.25031 41.247191 
L 33.18031 40.239887 
L 34.11031 40.029711 
L 35.04031 39.418646 
L 35.97031 38.808383 
L 36.90031 38.735168 
L 37.83031 38.22875 
L 38.76031 37.69468 
L 39.69031 37.652364 
L 40.62031 37.459176 
L 41.55031 36.791999 
L 42.48031 36.366736 
L 43.41031 36.46713 
L 44.34031 35.704379 
L 45.27031 35.200371 
L 46.20031 34.951246 
L 47.13031 34.562573 
L 48.06031 34.444124 
L 48.99031 34.138048 
L 49.92031 34.155824 
L 50.85031 33.859579 
L 51.78031 33.600841 
L 52.71031 33.017155 
L 53.64031 32.150697 
L 54.57031 31.521044 
L 55.50031 31.263476 
L 56.43031 30.839742 
L 57.36031 30.43094 
L 58.29031 29.906911 
L 59.22031 29.870157 
L 60.15031 29.321844 
L 61.08031 28.613864 
L 62.01031 28.646105 
L 62.94031 28.483659 
L 63.87031 28.077082 
" style="fill:none;stroke:#fc8d62;stroke-dasharray:1.5,1.5;stroke-dashoffset:0;stroke-opacity:0.7;stroke-width:1.5;"/>
   </g>
   <g id="patch_3">
    <path d="M 9 67.68 
L 9 17.28 
" style="fill:none;stroke:#a9a9a9;stroke-linecap:square;stroke-linejoin:miter;stroke-width:2;"/>
   </g>
   <g id="patch_4">
    <path d="M 64.8 67.68 
L 64.8 17.28 
" style="fill:none;"/>
   </g>
   <g id="patch_5">
    <path d="M 9 67.68 
L 64.8 67.68 
" style="fill:none;stroke:#a9a9a9;stroke-linecap:square;stroke-linejoin:miter;stroke-width:2;"/>
   </g>
   <g id="patch_6">
    <path d="M 9 17.28 
L 64.8 17.28 
" style="fill:none;"/>
   </g>
  </g>
  <g id="axes_2">
   <g id="patch_7">
    <path d="M 9 128.16 
L 64.8 128.16 
L 64.8 77.76 
L 9 77.76 
z
" style="fill:none;"/>
   </g>
   <g id="matplotlib.axis_3">
    <g id="xtick_4">
     <g id="line2d_9">
      <g>
       <use style="fill:#a9a9a9;stroke:#a9a9a9;stroke-width:2;" x="9" xlink:href="#maa15b637c9" y="128.16"/>
      </g>
     </g>
    </g>
    <g id="xtick_5">
     <g id="line2d_10">
      <g>
       <use style="fill:#a9a9a9;stroke:#a9a9a9;stroke-width:2;" x="36.9" xlink:href="#maa15b637c9" y="128.16"/>
      </g>
     </g>
    </g>
    <g id="xtick_6">
     <g id="line2d_11">
      <g>
       <use style="fill:#a9a9a9;stroke:#a9a9a9;stroke-width:2;" x="64.8" xlink:href="#maa15b637c9" y="128.16"/>
      </g>
     </g>
    </g>
   </g>
   <g id="matplotlib.axis_4">
    <g id="ytick_4">
     <g id="line2d_12">
      <g>
       <use style="fill:#a9a9a9;stroke:#a9a9a9;stroke-width:2;" x="9" xlink:href="#mbc27f39b3c" y="128.16"/>
      </g>
     </g>
    </g>
    <g id="ytick_5">
     <g id="line2d_13">
      <g>
       <use style="fill:#a9a9a9;stroke:#a9a9a9;stroke-width:2;" x="9" xlink:href="#mbc27f39b3c" y="102.96"/>
      </g>
     </g>
    </g>
    <g id="ytick_6">
     <g id="line2d_14">
      <g>
       <use style="fill:#a9a9a9;stroke:#a9a9a9;stroke-width:2;" x="9" xlink:href="#mbc27f39b3c" y="77.76"/>
      </g>
     </g>
    </g>
   </g>
   <g id="line2d_15">
    <path clip-path="url(#p4334672eeb)" d="M 10.86031 125.479828 
L 11.79031 124.788568 
L 12.72031 124.07457 
L 13.65031 123.645789 
L 14.58031 123.38686 
L 15.51031 123.124584 
L 16.44031 122.941808 
L 17.37031 122.692079 
L 18.30031 122.399206 
L 19.23031 122.232844 
L 20.16031 122.139383 
L 21.09031 121.960552 
L 22.02031 121.880045 
L 22.95031 121.68103 
L 23.88031 121.652136 
L 24.81031 121.519107 
L 25.74031 121.401483 
L 26.67031 121.326327 
L 27.60031 121.299459 
L 28.53031 121.264047 
L 29.46031 121.260131 
L 30.39031 121.211885 
L 31.32031 121.139006 
L 32.25031 121.064266 
L 33.18031 120.975986 
L 34.11031 120.966843 
L 35.04031 120.958593 
L 35.97031 120.925752 
L 36.90031 120.913019 
L 37.83031 120.875311 
L 38.76031 120.845978 
L 39.69031 120.818167 
L 40.62031 120.797744 
L 41.55031 120.760841 
L 42.48031 120.756618 
L 43.41031 120.712752 
L 44.34031 120.65388 
L 45.27031 120.598252 
L 46.20031 120.565418 
L 47.13031 120.576819 
L 48.06031 120.546685 
L 48.99031 120.529818 
L 49.92031 120.54804 
L 50.85031 120.531164 
L 51.78031 120.520216 
L 52.71031 120.52066 
L 53.64031 120.501643 
L 54.57031 120.482937 
L 55.50031 120.432956 
L 56.43031 120.40193 
L 57.36031 120.434047 
L 58.29031 120.390707 
L 59.22031 120.341391 
L 60.15031 120.335023 
L 61.08031 120.263168 
L 62.01031 120.260173 
L 62.94031 120.243997 
L 63.87031 120.216766 
" style="fill:none;stroke:#fc8d62;stroke-linecap:square;stroke-width:2;"/>
   </g>
   <g id="line2d_16">
    <path clip-path="url(#p4334672eeb)" d="M 10.86031 128.036718 
L 11.79031 128.003755 
L 12.72031 127.940442 
L 13.65031 127.872849 
L 14.58031 127.784928 
L 15.51031 127.805427 
L 16.44031 127.780101 
L 17.37031 127.759428 
L 18.30031 127.737297 
L 19.23031 127.725241 
L 20.16031 127.73984 
L 21.09031 127.780332 
L 22.02031 127.753063 
L 22.95031 127.715386 
L 23.88031 127.67109 
L 24.81031 127.674825 
L 25.74031 127.662735 
L 26.67031 127.633106 
L 27.60031 127.55846 
L 28.53031 127.534765 
L 29.46031 127.554761 
L 30.39031 127.571954 
L 31.32031 127.557117 
L 32.25031 127.557426 
L 33.18031 127.540247 
L 34.11031 127.545806 
L 35.04031 127.565709 
L 35.97031 127.548729 
L 36.90031 127.567933 
L 37.83031 127.566012 
L 38.76031 127.578153 
L 39.69031 127.587742 
L 40.62031 127.566074 
L 41.55031 127.569663 
L 42.48031 127.552611 
L 43.41031 127.52246 
L 44.34031 127.532332 
L 45.27031 127.531771 
L 46.20031 127.538504 
L 47.13031 127.516574 
L 48.06031 127.508111 
L 48.99031 127.494221 
L 49.92031 127.474282 
L 50.85031 127.487671 
L 51.78031 127.459642 
L 52.71031 127.43735 
L 53.64031 127.427618 
L 54.57031 127.453703 
L 55.50031 127.444419 
L 56.43031 127.470485 
L 57.36031 127.474719 
L 58.29031 127.462377 
L 59.22031 127.442666 
L 60.15031 127.456581 
L 61.08031 127.441706 
L 62.01031 127.444163 
L 62.94031 127.435138 
L 63.87031 127.416264 
" style="fill:none;stroke:#fc8d62;stroke-dasharray:1.5,1.5;stroke-dashoffset:0;stroke-opacity:0.7;stroke-width:1.5;"/>
   </g>
   <g id="patch_8">
    <path d="M 9 128.16 
L 9 77.76 
" style="fill:none;stroke:#a9a9a9;stroke-linecap:square;stroke-linejoin:miter;stroke-width:2;"/>
   </g>
   <g id="patch_9">
    <path d="M 64.8 128.16 
L 64.8 77.76 
" style="fill:none;"/>
   </g>
   <g id="patch_10">
    <path d="M 9 128.16 
L 64.8 128.16 
" style="fill:none;stroke:#a9a9a9;stroke-linecap:square;stroke-linejoin:miter;stroke-width:2;"/>
   </g>
   <g id="patch_11">
    <path d="M 9 77.76 
L 64.8 77.76 
" style="fill:none;"/>
   </g>
  </g>
 </g>
 <defs>
  <clipPath id="p79b44601dc">
   <rect height="50.4" width="55.8" x="9" y="17.28"/>
  </clipPath>
  <clipPath id="p4334672eeb">
   <rect height="50.4" width="55.8" x="9" y="77.76"/>
  </clipPath>
 </defs>
</svg>
