<?xml version="1.0" encoding="utf-8" standalone="no"?>
<!DOCTYPE svg PUBLIC "-//W3C//DTD SVG 1.1//EN"
  "http://www.w3.org/Graphics/SVG/1.1/DTD/svg11.dtd">
<!-- Created with matplotlib (https://matplotlib.org/) -->
<svg height="144pt" version="1.1" viewBox="0 0 72 144" width="72pt" xmlns="http://www.w3.org/2000/svg" xmlns:xlink="http://www.w3.org/1999/xlink">
 <metadata>
  <rdf:RDF xmlns:cc="http://creativecommons.org/ns#" xmlns:dc="http://purl.org/dc/elements/1.1/" xmlns:rdf="http://www.w3.org/1999/02/22-rdf-syntax-ns#">
   <cc:Work>
    <dc:type rdf:resource="http://purl.org/dc/dcmitype/StillImage"/>
    <dc:date>2021-10-14T19:25:28.359224</dc:date>
    <dc:format>image/svg+xml</dc:format>
    <dc:creator>
     <cc:Agent>
      <dc:title>Matplotlib v3.3.2, https://matplotlib.org/</dc:title>
     </cc:Agent>
    </dc:creator>
   </cc:Work>
  </rdf:RDF>
 </metadata>
 <defs>
  <style type="text/css">*{stroke-linecap:butt;stroke-linejoin:round;}</style>
 </defs>
 <g id="figure_1">
  <g id="patch_1">
   <path d="M 0 144 
L 72 144 
L 72 0 
L 0 0 
z
" style="fill:none;"/>
  </g>
  <g id="axes_1">
   <g id="patch_2">
    <path d="M 9 67.68 
L 64.8 67.68 
L 64.8 17.28 
L 9 17.28 
z
" style="fill:none;"/>
   </g>
   <g id="matplotlib.axis_1">
    <g id="xtick_1">
     <g id="line2d_1">
      <defs>
       <path d="M 0 0 
L 0 3.5 
" id="m0d50099803" style="stroke:#a9a9a9;stroke-width:2;"/>
      </defs>
      <g>
       <use style="fill:#a9a9a9;stroke:#a9a9a9;stroke-width:2;" x="9" xlink:href="#m0d50099803" y="67.68"/>
      </g>
     </g>
    </g>
    <g id="xtick_2">
     <g id="line2d_2">
      <g>
       <use style="fill:#a9a9a9;stroke:#a9a9a9;stroke-width:2;" x="36.9" xlink:href="#m0d50099803" y="67.68"/>
      </g>
     </g>
    </g>
    <g id="xtick_3">
     <g id="line2d_3">
      <g>
       <use style="fill:#a9a9a9;stroke:#a9a9a9;stroke-width:2;" x="64.8" xlink:href="#m0d50099803" y="67.68"/>
      </g>
     </g>
    </g>
   </g>
   <g id="matplotlib.axis_2">
    <g id="ytick_1">
     <g id="line2d_4">
      <defs>
       <path d="M 0 0 
L -3.5 0 
" id="m0358c05fa4" style="stroke:#a9a9a9;stroke-width:2;"/>
      </defs>
      <g>
       <use style="fill:#a9a9a9;stroke:#a9a9a9;stroke-width:2;" x="9" xlink:href="#m0358c05fa4" y="67.68"/>
      </g>
     </g>
    </g>
    <g id="ytick_2">
     <g id="line2d_5">
      <g>
       <use style="fill:#a9a9a9;stroke:#a9a9a9;stroke-width:2;" x="9" xlink:href="#m0358c05fa4" y="52.967714"/>
      </g>
     </g>
    </g>
    <g id="ytick_3">
     <g id="line2d_6">
      <g>
       <use style="fill:#a9a9a9;stroke:#a9a9a9;stroke-width:2;" x="9" xlink:href="#m0358c05fa4" y="38.255429"/>
      </g>
     </g>
    </g>
   </g>
   <g id="line2d_7">
    <path clip-path="url(#pc7d31d93bc)" d="M 10.860031 57.793896 
L 11.790031 55.756201 
L 12.720031 54.248463 
L 13.650031 52.489211 
L 14.580031 51.041967 
L 15.510031 49.582652 
L 16.440031 47.6081 
L 17.370031 46.309803 
L 18.300031 45.679143 
L 19.230031 45.572162 
L 20.160031 44.361228 
L 21.090031 43.143184 
L 22.020031 42.740743 
L 22.950031 41.71491 
L 23.880031 40.774136 
L 24.810031 39.609474 
L 25.740031 38.980133 
L 26.670031 37.974585 
L 27.600031 36.637935 
L 28.530031 36.031345 
L 29.460031 35.773417 
L 30.390031 34.742482 
L 31.320031 33.628529 
L 32.250031 32.915425 
L 33.180031 32.878168 
L 34.110031 31.592968 
L 35.040031 31.107792 
L 35.970031 30.589906 
L 36.900031 30.006409 
L 37.830031 29.698492 
L 38.760031 28.889573 
L 39.690031 29.337266 
L 40.620031 28.651293 
L 41.550031 28.090324 
L 42.480031 27.922164 
L 43.410031 27.963622 
L 44.340031 28.03458 
L 45.270031 27.092984 
L 46.200031 26.514143 
L 47.130031 26.164392 
L 48.060031 25.865323 
L 48.990031 24.982454 
L 49.920031 24.565234 
L 50.850031 24.689807 
L 51.780031 23.881888 
L 52.710031 23.15899 
L 53.640031 22.710691 
L 54.570031 22.616703 
L 55.500031 22.947953 
L 56.430031 22.265154 
L 57.360031 21.17654 
L 58.290031 21.083913 
L 59.220031 20.811145 
L 60.150031 20.424774 
L 61.080031 20.350722 
L 62.010031 20.074973 
L 62.940031 18.971785 
L 63.870031 18.015614 
" style="fill:none;stroke:#fc8d62;stroke-linecap:square;stroke-width:2;"/>
   </g>
   <g id="line2d_8">
    <path clip-path="url(#pc7d31d93bc)" d="M 10.860031 57.088399 
L 11.790031 55.60485 
L 12.720031 54.108418 
L 13.650031 53.236606 
L 14.580031 51.642541 
L 15.510031 50.995606 
L 16.440031 50.340774 
L 17.370031 49.776956 
L 18.300031 49.048679 
L 19.230031 48.014211 
L 20.160031 47.370804 
L 21.090031 46.486343 
L 22.020031 45.726674 
L 22.950031 45.530541 
L 23.880031 44.47783 
L 24.810031 43.571617 
L 25.740031 43.124334 
L 26.670031 41.860375 
L 27.600031 41.120759 
L 28.530031 41.416166 
L 29.460031 40.447201 
L 30.390031 39.816584 
L 31.320031 39.346019 
L 32.250031 38.448574 
L 33.180031 37.642061 
L 34.110031 36.544851 
L 35.040031 35.488067 
L 35.970031 35.210451 
L 36.900031 35.10899 
L 37.830031 34.741121 
L 38.760031 33.976887 
L 39.690031 33.14879 
L 40.620031 32.767022 
L 41.550031 32.24763 
L 42.480031 31.086162 
L 43.410031 31.541583 
L 44.340031 31.474352 
L 45.270031 30.666189 
L 46.200031 30.232275 
L 47.130031 29.949946 
L 48.060031 30.01697 
L 48.990031 29.897281 
L 49.920031 29.871006 
L 50.850031 29.854599 
L 51.780031 28.961814 
L 52.710031 28.060771 
L 53.640031 28.210336 
L 54.570031 28.443253 
L 55.500031 28.349901 
L 56.430031 28.437444 
L 57.360031 27.940057 
L 58.290031 27.331341 
L 59.220031 26.863124 
L 60.150031 26.697679 
L 61.080031 26.328344 
L 62.010031 25.510234 
L 62.940031 24.513177 
L 63.870031 24.469356 
" style="fill:none;stroke:#fc8d62;stroke-dasharray:1.5,1.5;stroke-dashoffset:0;stroke-opacity:0.7;stroke-width:1.5;"/>
   </g>
   <g id="patch_3">
    <path d="M 9 67.68 
L 9 17.28 
" style="fill:none;stroke:#a9a9a9;stroke-linecap:square;stroke-linejoin:miter;stroke-width:2;"/>
   </g>
   <g id="patch_4">
    <path d="M 64.8 67.68 
L 64.8 17.28 
" style="fill:none;"/>
   </g>
   <g id="patch_5">
    <path d="M 9 67.68 
L 64.8 67.68 
" style="fill:none;stroke:#a9a9a9;stroke-linecap:square;stroke-linejoin:miter;stroke-width:2;"/>
   </g>
   <g id="patch_6">
    <path d="M 9 17.28 
L 64.8 17.28 
" style="fill:none;"/>
   </g>
  </g>
  <g id="axes_2">
   <g id="patch_7">
    <path d="M 9 128.16 
L 64.8 128.16 
L 64.8 77.76 
L 9 77.76 
z
" style="fill:none;"/>
   </g>
   <g id="matplotlib.axis_3">
    <g id="xtick_4">
     <g id="line2d_9">
      <g>
       <use style="fill:#a9a9a9;stroke:#a9a9a9;stroke-width:2;" x="9" xlink:href="#m0d50099803" y="128.16"/>
      </g>
     </g>
    </g>
    <g id="xtick_5">
     <g id="line2d_10">
      <g>
       <use style="fill:#a9a9a9;stroke:#a9a9a9;stroke-width:2;" x="36.9" xlink:href="#m0d50099803" y="128.16"/>
      </g>
     </g>
    </g>
    <g id="xtick_6">
     <g id="line2d_11">
      <g>
       <use style="fill:#a9a9a9;stroke:#a9a9a9;stroke-width:2;" x="64.8" xlink:href="#m0d50099803" y="128.16"/>
      </g>
     </g>
    </g>
   </g>
   <g id="matplotlib.axis_4">
    <g id="ytick_4">
     <g id="line2d_12">
      <g>
       <use style="fill:#a9a9a9;stroke:#a9a9a9;stroke-width:2;" x="9" xlink:href="#m0358c05fa4" y="128.16"/>
      </g>
     </g>
    </g>
    <g id="ytick_5">
     <g id="line2d_13">
      <g>
       <use style="fill:#a9a9a9;stroke:#a9a9a9;stroke-width:2;" x="9" xlink:href="#m0358c05fa4" y="102.96"/>
      </g>
     </g>
    </g>
    <g id="ytick_6">
     <g id="line2d_14">
      <g>
       <use style="fill:#a9a9a9;stroke:#a9a9a9;stroke-width:2;" x="9" xlink:href="#m0358c05fa4" y="77.76"/>
      </g>
     </g>
    </g>
   </g>
   <g id="line2d_15">
    <path clip-path="url(#p9de4352735)" d="M 10.860031 103.890223 
L 11.790031 99.521592 
L 12.720031 95.825642 
L 13.650031 93.432381 
L 14.580031 91.630594 
L 15.510031 90.852065 
L 16.440031 89.613608 
L 17.370031 88.97986 
L 18.300031 88.353715 
L 19.230031 87.98376 
L 20.160031 87.594466 
L 21.090031 87.237738 
L 22.020031 86.848598 
L 22.950031 86.486457 
L 23.880031 86.196692 
L 24.810031 85.926904 
L 25.740031 85.826151 
L 26.670031 85.632738 
L 27.600031 85.334845 
L 28.530031 85.088543 
L 29.460031 85.063969 
L 30.390031 84.857054 
L 31.320031 84.761745 
L 32.250031 84.669244 
L 33.180031 84.655847 
L 34.110031 84.489428 
L 35.040031 84.357132 
L 35.970031 84.301334 
L 36.900031 84.199226 
L 37.830031 84.075206 
L 38.760031 84.043042 
L 39.690031 84.065602 
L 40.620031 83.991342 
L 41.550031 83.962963 
L 42.480031 83.947361 
L 43.410031 83.910796 
L 44.340031 83.902981 
L 45.270031 83.808869 
L 46.200031 83.719754 
L 47.130031 83.687975 
L 48.060031 83.670217 
L 48.990031 83.598727 
L 49.920031 83.538822 
L 50.850031 83.525781 
L 51.780031 83.460737 
L 52.710031 83.411639 
L 53.640031 83.401938 
L 54.570031 83.402223 
L 55.500031 83.351043 
L 56.430031 83.297744 
L 57.360031 83.265894 
L 58.290031 83.261647 
L 59.220031 83.26428 
L 60.150031 83.188038 
L 61.080031 83.166837 
L 62.010031 83.197327 
L 62.940031 83.120874 
L 63.870031 83.061899 
" style="fill:none;stroke:#fc8d62;stroke-linecap:square;stroke-width:2;"/>
   </g>
   <g id="line2d_16">
    <path clip-path="url(#p9de4352735)" d="M 10.860031 108.856827 
L 11.790031 105.654531 
L 12.720031 103.254803 
L 13.650031 101.181256 
L 14.580031 99.975058 
L 15.510031 99.150319 
L 16.440031 98.299747 
L 17.370031 97.543313 
L 18.300031 96.969666 
L 19.230031 95.883493 
L 20.160031 95.554064 
L 21.090031 95.205263 
L 22.020031 94.615593 
L 22.950031 94.600501 
L 23.880031 94.280732 
L 24.810031 93.957093 
L 25.740031 93.716508 
L 26.670031 93.284057 
L 27.600031 93.056299 
L 28.530031 93.003151 
L 29.460031 92.788917 
L 30.390031 92.730447 
L 31.320031 92.679369 
L 32.250031 92.574997 
L 33.180031 92.49649 
L 34.110031 92.240967 
L 35.040031 92.159576 
L 35.970031 92.087532 
L 36.900031 92.015638 
L 37.830031 91.982229 
L 38.760031 91.872102 
L 39.690031 91.922775 
L 40.620031 91.890182 
L 41.550031 91.872318 
L 42.480031 91.801264 
L 43.410031 91.785894 
L 44.340031 91.779138 
L 45.270031 91.732659 
L 46.200031 91.673557 
L 47.130031 91.690259 
L 48.060031 91.584081 
L 48.990031 91.535304 
L 49.920031 91.601998 
L 50.850031 91.514246 
L 51.780031 91.474143 
L 52.710031 91.455977 
L 53.640031 91.424807 
L 54.570031 91.407792 
L 55.500031 91.403891 
L 56.430031 91.431523 
L 57.360031 91.406072 
L 58.290031 91.360448 
L 59.220031 91.345339 
L 60.150031 91.311779 
L 61.080031 91.254184 
L 62.010031 91.162241 
L 62.940031 91.057233 
L 63.870031 91.089415 
" style="fill:none;stroke:#fc8d62;stroke-dasharray:1.5,1.5;stroke-dashoffset:0;stroke-opacity:0.7;stroke-width:1.5;"/>
   </g>
   <g id="patch_8">
    <path d="M 9 128.16 
L 9 77.76 
" style="fill:none;stroke:#a9a9a9;stroke-linecap:square;stroke-linejoin:miter;stroke-width:2;"/>
   </g>
   <g id="patch_9">
    <path d="M 64.8 128.16 
L 64.8 77.76 
" style="fill:none;"/>
   </g>
   <g id="patch_10">
    <path d="M 9 128.16 
L 64.8 128.16 
" style="fill:none;stroke:#a9a9a9;stroke-linecap:square;stroke-linejoin:miter;stroke-width:2;"/>
   </g>
   <g id="patch_11">
    <path d="M 9 77.76 
L 64.8 77.76 
" style="fill:none;"/>
   </g>
  </g>
 </g>
 <defs>
  <clipPath id="pc7d31d93bc">
   <rect height="50.4" width="55.8" x="9" y="17.28"/>
  </clipPath>
  <clipPath id="p9de4352735">
   <rect height="50.4" width="55.8" x="9" y="77.76"/>
  </clipPath>
 </defs>
</svg>
