<?xml version="1.0" encoding="utf-8" standalone="no"?>
<!DOCTYPE svg PUBLIC "-//W3C//DTD SVG 1.1//EN"
  "http://www.w3.org/Graphics/SVG/1.1/DTD/svg11.dtd">
<!-- Created with matplotlib (https://matplotlib.org/) -->
<svg height="144pt" version="1.1" viewBox="0 0 72 144" width="72pt" xmlns="http://www.w3.org/2000/svg" xmlns:xlink="http://www.w3.org/1999/xlink">
 <metadata>
  <rdf:RDF xmlns:cc="http://creativecommons.org/ns#" xmlns:dc="http://purl.org/dc/elements/1.1/" xmlns:rdf="http://www.w3.org/1999/02/22-rdf-syntax-ns#">
   <cc:Work>
    <dc:type rdf:resource="http://purl.org/dc/dcmitype/StillImage"/>
    <dc:date>2021-10-13T15:46:36.661605</dc:date>
    <dc:format>image/svg+xml</dc:format>
    <dc:creator>
     <cc:Agent>
      <dc:title>Matplotlib v3.3.2, https://matplotlib.org/</dc:title>
     </cc:Agent>
    </dc:creator>
   </cc:Work>
  </rdf:RDF>
 </metadata>
 <defs>
  <style type="text/css">*{stroke-linecap:butt;stroke-linejoin:round;}</style>
 </defs>
 <g id="figure_1">
  <g id="patch_1">
   <path d="M 0 144 
L 72 144 
L 72 0 
L 0 0 
z
" style="fill:none;"/>
  </g>
  <g id="axes_1">
   <g id="patch_2">
    <path d="M 9 67.68 
L 64.8 67.68 
L 64.8 17.28 
L 9 17.28 
z
" style="fill:none;"/>
   </g>
   <g id="matplotlib.axis_1">
    <g id="xtick_1">
     <g id="line2d_1">
      <defs>
       <path d="M 0 0 
L 0 3.5 
" id="m35f54d4cf1" style="stroke:#a9a9a9;stroke-width:2;"/>
      </defs>
      <g>
       <use style="fill:#a9a9a9;stroke:#a9a9a9;stroke-width:2;" x="9" xlink:href="#m35f54d4cf1" y="67.68"/>
      </g>
     </g>
    </g>
    <g id="xtick_2">
     <g id="line2d_2">
      <g>
       <use style="fill:#a9a9a9;stroke:#a9a9a9;stroke-width:2;" x="36.9" xlink:href="#m35f54d4cf1" y="67.68"/>
      </g>
     </g>
    </g>
    <g id="xtick_3">
     <g id="line2d_3">
      <g>
       <use style="fill:#a9a9a9;stroke:#a9a9a9;stroke-width:2;" x="64.8" xlink:href="#m35f54d4cf1" y="67.68"/>
      </g>
     </g>
    </g>
   </g>
   <g id="matplotlib.axis_2">
    <g id="ytick_1">
     <g id="line2d_4">
      <defs>
       <path d="M 0 0 
L -3.5 0 
" id="m26c3717bd7" style="stroke:#a9a9a9;stroke-width:2;"/>
      </defs>
      <g>
       <use style="fill:#a9a9a9;stroke:#a9a9a9;stroke-width:2;" x="9" xlink:href="#m26c3717bd7" y="67.68"/>
      </g>
     </g>
    </g>
    <g id="ytick_2">
     <g id="line2d_5">
      <g>
       <use style="fill:#a9a9a9;stroke:#a9a9a9;stroke-width:2;" x="9" xlink:href="#m26c3717bd7" y="66.164367"/>
      </g>
     </g>
    </g>
    <g id="ytick_3">
     <g id="line2d_6">
      <g>
       <use style="fill:#a9a9a9;stroke:#a9a9a9;stroke-width:2;" x="9" xlink:href="#m26c3717bd7" y="64.648733"/>
      </g>
     </g>
    </g>
   </g>
   <g id="line2d_7">
    <path clip-path="url(#pbfedd2cc77)" d="M 10.86031 60.561675 
L 11.79031 60.042328 
L 12.72031 59.606673 
L 13.65031 58.637941 
L 14.58031 58.404232 
L 15.51031 58.230842 
L 16.44031 58.070732 
L 17.37031 57.610901 
L 18.30031 57.070852 
L 19.23031 56.220537 
L 20.16031 55.620439 
L 21.09031 54.676889 
L 22.02031 53.862571 
L 22.95031 52.189877 
L 23.88031 50.441571 
L 24.81031 49.142147 
L 25.74031 47.418596 
L 26.67031 45.452899 
L 27.60031 43.511116 
L 28.53031 41.446588 
L 29.46031 38.650511 
L 30.39031 36.009807 
L 31.32031 33.080063 
L 32.25031 31.33968 
L 33.18031 31.038442 
L 34.11031 32.432246 
L 35.04031 33.62229 
L 35.97031 34.318147 
L 36.90031 35.906852 
L 37.83031 36.718436 
L 38.76031 36.079676 
L 39.69031 36.518841 
L 40.62031 36.739341 
L 41.55031 36.212695 
L 42.48031 35.545224 
L 43.41031 34.319048 
L 44.34031 33.665828 
L 45.27031 32.771161 
L 46.20031 31.685636 
L 47.13031 31.462404 
L 48.06031 31.139293 
L 48.99031 29.871343 
L 49.92031 27.932217 
L 50.85031 25.527595 
L 51.78031 24.277258 
L 52.71031 21.947828 
L 53.64031 20.765584 
L 54.57031 19.789031 
L 55.50031 20.056002 
L 56.43031 18.943065 
L 57.36031 17.355782 
L 58.29031 17.451007 
L 59.22031 18.066508 
L 60.15031 18.251205 
L 61.08031 17.495745 
L 62.01031 18.302528 
L 62.94031 18.572401 
L 63.87031 18.238235 
" style="fill:none;stroke:#fc8d62;stroke-linecap:square;stroke-width:2;"/>
   </g>
   <g id="line2d_8">
    <path clip-path="url(#pbfedd2cc77)" d="M 10.86031 60.699936 
L 11.79031 59.535491 
L 12.72031 59.367088 
L 13.65031 59.066806 
L 14.58031 58.917227 
L 15.51031 57.931711 
L 16.44031 57.14597 
L 17.37031 56.581756 
L 18.30031 56.364742 
L 19.23031 56.235347 
L 20.16031 55.762696 
L 21.09031 54.766096 
L 22.02031 53.682725 
L 22.95031 52.911939 
L 23.88031 51.733174 
L 24.81031 51.143175 
L 25.74031 49.838283 
L 26.67031 48.594338 
L 27.60031 46.491553 
L 28.53031 44.526634 
L 29.46031 41.443494 
L 30.39031 39.338734 
L 31.32031 35.054276 
L 32.25031 33.025279 
L 33.18031 32.275318 
L 34.11031 32.791333 
L 35.04031 35.01953 
L 35.97031 35.102155 
L 36.90031 36.88306 
L 37.83031 37.781788 
L 38.76031 38.716217 
L 39.69031 39.028816 
L 40.62031 38.38252 
L 41.55031 37.298779 
L 42.48031 37.407932 
L 43.41031 37.404131 
L 44.34031 37.325919 
L 45.27031 36.279379 
L 46.20031 36.367252 
L 47.13031 35.27418 
L 48.06031 34.743281 
L 48.99031 33.76508 
L 49.92031 31.860585 
L 50.85031 29.676743 
L 51.78031 26.855293 
L 52.71031 23.262182 
L 53.64031 21.385727 
L 54.57031 19.049065 
L 55.50031 17.044396 
L 56.43031 15.65005 
L 57.36031 16.296512 
L 58.29031 18.552171 
L 59.22031 20.489913 
L 60.15031 21.36972 
L 61.08031 23.345619 
L 62.01031 23.053375 
L 62.94031 24.235211 
L 63.87031 23.555389 
" style="fill:none;stroke:#fc8d62;stroke-dasharray:1.5,1.5;stroke-dashoffset:0;stroke-opacity:0.7;stroke-width:1.5;"/>
   </g>
   <g id="patch_3">
    <path d="M 9 67.68 
L 9 17.28 
" style="fill:none;stroke:#a9a9a9;stroke-linecap:square;stroke-linejoin:miter;stroke-width:2;"/>
   </g>
   <g id="patch_4">
    <path d="M 64.8 67.68 
L 64.8 17.28 
" style="fill:none;"/>
   </g>
   <g id="patch_5">
    <path d="M 9 67.68 
L 64.8 67.68 
" style="fill:none;stroke:#a9a9a9;stroke-linecap:square;stroke-linejoin:miter;stroke-width:2;"/>
   </g>
   <g id="patch_6">
    <path d="M 9 17.28 
L 64.8 17.28 
" style="fill:none;"/>
   </g>
  </g>
  <g id="axes_2">
   <g id="patch_7">
    <path d="M 9 128.16 
L 64.8 128.16 
L 64.8 77.76 
L 9 77.76 
z
" style="fill:none;"/>
   </g>
   <g id="matplotlib.axis_3">
    <g id="xtick_4">
     <g id="line2d_9">
      <g>
       <use style="fill:#a9a9a9;stroke:#a9a9a9;stroke-width:2;" x="9" xlink:href="#m35f54d4cf1" y="128.16"/>
      </g>
     </g>
    </g>
    <g id="xtick_5">
     <g id="line2d_10">
      <g>
       <use style="fill:#a9a9a9;stroke:#a9a9a9;stroke-width:2;" x="36.9" xlink:href="#m35f54d4cf1" y="128.16"/>
      </g>
     </g>
    </g>
    <g id="xtick_6">
     <g id="line2d_11">
      <g>
       <use style="fill:#a9a9a9;stroke:#a9a9a9;stroke-width:2;" x="64.8" xlink:href="#m35f54d4cf1" y="128.16"/>
      </g>
     </g>
    </g>
   </g>
   <g id="matplotlib.axis_4">
    <g id="ytick_4">
     <g id="line2d_12">
      <g>
       <use style="fill:#a9a9a9;stroke:#a9a9a9;stroke-width:2;" x="9" xlink:href="#m26c3717bd7" y="128.16"/>
      </g>
     </g>
    </g>
    <g id="ytick_5">
     <g id="line2d_13">
      <g>
       <use style="fill:#a9a9a9;stroke:#a9a9a9;stroke-width:2;" x="9" xlink:href="#m26c3717bd7" y="102.96"/>
      </g>
     </g>
    </g>
    <g id="ytick_6">
     <g id="line2d_14">
      <g>
       <use style="fill:#a9a9a9;stroke:#a9a9a9;stroke-width:2;" x="9" xlink:href="#m26c3717bd7" y="77.76"/>
      </g>
     </g>
    </g>
   </g>
   <g id="line2d_15">
    <path clip-path="url(#pe65ab34eca)" d="M 10.86031 87.565553 
L 11.79031 87.520567 
L 12.72031 87.42536 
L 13.65031 87.3496 
L 14.58031 87.256428 
L 15.51031 87.197008 
L 16.44031 87.16746 
L 17.37031 87.151289 
L 18.30031 87.12814 
L 19.23031 87.118796 
L 20.16031 87.107334 
L 21.09031 87.107824 
L 22.02031 87.127003 
L 22.95031 87.134147 
L 23.88031 87.126699 
L 24.81031 87.122561 
L 25.74031 87.115988 
L 26.67031 87.113013 
L 27.60031 87.1112 
L 28.53031 87.103781 
L 29.46031 87.095915 
L 30.39031 87.088828 
L 31.32031 87.088508 
L 32.25031 87.08744 
L 33.18031 87.080296 
L 34.11031 87.082275 
L 35.04031 87.084467 
L 35.97031 87.082619 
L 36.90031 87.082828 
L 37.83031 87.075315 
L 38.76031 87.069235 
L 39.69031 87.067703 
L 40.62031 87.063861 
L 41.55031 87.060809 
L 42.48031 87.070153 
L 43.41031 87.069993 
L 44.34031 87.076342 
L 45.27031 87.083182 
L 46.20031 87.085796 
L 47.13031 87.086243 
L 48.06031 87.090792 
L 48.99031 87.09006 
L 49.92031 87.085293 
L 50.85031 87.085181 
L 51.78031 87.082509 
L 52.71031 87.08643 
L 53.64031 87.08364 
L 54.57031 87.087415 
L 55.50031 87.086634 
L 56.43031 87.085548 
L 57.36031 87.081659 
L 58.29031 87.083252 
L 59.22031 87.083151 
L 60.15031 87.079646 
L 61.08031 87.075176 
L 62.01031 87.071602 
L 62.94031 87.06918 
L 63.87031 87.068488 
" style="fill:none;stroke:#fc8d62;stroke-linecap:square;stroke-width:2;"/>
   </g>
   <g id="line2d_16">
    <path clip-path="url(#pe65ab34eca)" d="M 10.86031 91.668997 
L 11.79031 91.527696 
L 12.72031 91.516679 
L 13.65031 91.46867 
L 14.58031 91.452788 
L 15.51031 91.367123 
L 16.44031 91.341106 
L 17.37031 91.311899 
L 18.30031 91.317411 
L 19.23031 91.314721 
L 20.16031 91.323115 
L 21.09031 91.308951 
L 22.02031 91.28679 
L 22.95031 91.278846 
L 23.88031 91.269522 
L 24.81031 91.266312 
L 25.74031 91.26616 
L 26.67031 91.264821 
L 27.60031 91.250389 
L 28.53031 91.244756 
L 29.46031 91.233641 
L 30.39031 91.235221 
L 31.32031 91.227893 
L 32.25031 91.226594 
L 33.18031 91.22496 
L 34.11031 91.219901 
L 35.04031 91.221505 
L 35.97031 91.2149 
L 36.90031 91.209273 
L 37.83031 91.209128 
L 38.76031 91.20444 
L 39.69031 91.199192 
L 40.62031 91.200271 
L 41.55031 91.201415 
L 42.48031 91.201347 
L 43.41031 91.206184 
L 44.34031 91.20989 
L 45.27031 91.215409 
L 46.20031 91.214114 
L 47.13031 91.215107 
L 48.06031 91.219433 
L 48.99031 91.217353 
L 49.92031 91.217836 
L 50.85031 91.218553 
L 51.78031 91.216454 
L 52.71031 91.21433 
L 53.64031 91.212073 
L 54.57031 91.211905 
L 55.50031 91.208142 
L 56.43031 91.203048 
L 57.36031 91.203299 
L 58.29031 91.201545 
L 59.22031 91.201842 
L 60.15031 91.198866 
L 61.08031 91.195594 
L 62.01031 91.195729 
L 62.94031 91.192 
L 63.87031 91.191881 
" style="fill:none;stroke:#fc8d62;stroke-dasharray:1.5,1.5;stroke-dashoffset:0;stroke-opacity:0.7;stroke-width:1.5;"/>
   </g>
   <g id="patch_8">
    <path d="M 9 128.16 
L 9 77.76 
" style="fill:none;stroke:#a9a9a9;stroke-linecap:square;stroke-linejoin:miter;stroke-width:2;"/>
   </g>
   <g id="patch_9">
    <path d="M 64.8 128.16 
L 64.8 77.76 
" style="fill:none;"/>
   </g>
   <g id="patch_10">
    <path d="M 9 128.16 
L 64.8 128.16 
" style="fill:none;stroke:#a9a9a9;stroke-linecap:square;stroke-linejoin:miter;stroke-width:2;"/>
   </g>
   <g id="patch_11">
    <path d="M 9 77.76 
L 64.8 77.76 
" style="fill:none;"/>
   </g>
  </g>
 </g>
 <defs>
  <clipPath id="pbfedd2cc77">
   <rect height="50.4" width="55.8" x="9" y="17.28"/>
  </clipPath>
  <clipPath id="pe65ab34eca">
   <rect height="50.4" width="55.8" x="9" y="77.76"/>
  </clipPath>
 </defs>
</svg>
