<?xml version="1.0" encoding="utf-8" standalone="no"?>
<!DOCTYPE svg PUBLIC "-//W3C//DTD SVG 1.1//EN"
  "http://www.w3.org/Graphics/SVG/1.1/DTD/svg11.dtd">
<!-- Created with matplotlib (https://matplotlib.org/) -->
<svg height="144pt" version="1.1" viewBox="0 0 72 144" width="72pt" xmlns="http://www.w3.org/2000/svg" xmlns:xlink="http://www.w3.org/1999/xlink">
 <metadata>
  <rdf:RDF xmlns:cc="http://creativecommons.org/ns#" xmlns:dc="http://purl.org/dc/elements/1.1/" xmlns:rdf="http://www.w3.org/1999/02/22-rdf-syntax-ns#">
   <cc:Work>
    <dc:type rdf:resource="http://purl.org/dc/dcmitype/StillImage"/>
    <dc:date>2021-10-14T18:12:01.995215</dc:date>
    <dc:format>image/svg+xml</dc:format>
    <dc:creator>
     <cc:Agent>
      <dc:title>Matplotlib v3.3.2, https://matplotlib.org/</dc:title>
     </cc:Agent>
    </dc:creator>
   </cc:Work>
  </rdf:RDF>
 </metadata>
 <defs>
  <style type="text/css">*{stroke-linecap:butt;stroke-linejoin:round;}</style>
 </defs>
 <g id="figure_1">
  <g id="patch_1">
   <path d="M 0 144 
L 72 144 
L 72 0 
L 0 0 
z
" style="fill:none;"/>
  </g>
  <g id="axes_1">
   <g id="patch_2">
    <path d="M 9 67.68 
L 64.8 67.68 
L 64.8 17.28 
L 9 17.28 
z
" style="fill:none;"/>
   </g>
   <g id="matplotlib.axis_1">
    <g id="xtick_1">
     <g id="line2d_1">
      <defs>
       <path d="M 0 0 
L 0 3.5 
" id="m6724c35a9f" style="stroke:#a9a9a9;stroke-width:2;"/>
      </defs>
      <g>
       <use style="fill:#a9a9a9;stroke:#a9a9a9;stroke-width:2;" x="9" xlink:href="#m6724c35a9f" y="67.68"/>
      </g>
     </g>
    </g>
    <g id="xtick_2">
     <g id="line2d_2">
      <g>
       <use style="fill:#a9a9a9;stroke:#a9a9a9;stroke-width:2;" x="36.9" xlink:href="#m6724c35a9f" y="67.68"/>
      </g>
     </g>
    </g>
    <g id="xtick_3">
     <g id="line2d_3">
      <g>
       <use style="fill:#a9a9a9;stroke:#a9a9a9;stroke-width:2;" x="64.8" xlink:href="#m6724c35a9f" y="67.68"/>
      </g>
     </g>
    </g>
   </g>
   <g id="matplotlib.axis_2">
    <g id="ytick_1">
     <g id="line2d_4">
      <defs>
       <path d="M 0 0 
L -3.5 0 
" id="mc604ca0254" style="stroke:#a9a9a9;stroke-width:2;"/>
      </defs>
      <g>
       <use style="fill:#a9a9a9;stroke:#a9a9a9;stroke-width:2;" x="9" xlink:href="#mc604ca0254" y="67.68"/>
      </g>
     </g>
    </g>
    <g id="ytick_2">
     <g id="line2d_5">
      <g>
       <use style="fill:#a9a9a9;stroke:#a9a9a9;stroke-width:2;" x="9" xlink:href="#mc604ca0254" y="42.48"/>
      </g>
     </g>
    </g>
    <g id="ytick_3">
     <g id="line2d_6">
      <g>
       <use style="fill:#a9a9a9;stroke:#a9a9a9;stroke-width:2;" x="9" xlink:href="#mc604ca0254" y="17.28"/>
      </g>
     </g>
    </g>
   </g>
   <g id="line2d_7">
    <path clip-path="url(#p50ff46e2ab)" d="M 10.860031 58.785938 
L 11.790031 60.787589 
L 12.720031 61.366086 
L 13.650031 61.435209 
L 14.580031 62.415742 
L 15.510031 60.831843 
L 16.440031 62.109875 
L 17.370031 61.182529 
L 18.300031 61.688708 
L 19.230031 61.693921 
L 20.160031 61.373552 
L 21.090031 61.389392 
L 22.020031 61.300036 
L 22.950031 60.870078 
L 23.880031 59.879335 
L 24.810031 60.347124 
L 25.740031 60.376021 
L 26.670031 60.447032 
L 27.600031 60.392334 
L 28.530031 59.767083 
L 29.460031 59.545087 
L 30.390031 58.975719 
L 31.320031 59.242628 
L 32.250031 59.234707 
L 33.180031 59.219612 
L 34.110031 58.852395 
L 35.040031 58.990542 
L 35.970031 58.949771 
L 36.900031 58.782341 
L 37.830031 58.511065 
L 38.760031 58.370793 
L 39.690031 58.002868 
L 40.620031 58.124747 
L 41.550031 58.25396 
L 42.480031 57.856874 
L 43.410031 58.038632 
L 44.340031 57.855068 
L 45.270031 57.046442 
L 46.200031 56.905481 
L 47.130031 57.425447 
L 48.060031 56.835854 
L 48.990031 56.647642 
L 49.920031 56.418908 
L 50.850031 56.261232 
L 51.780031 56.092317 
L 52.710031 56.466441 
L 53.640031 55.568637 
L 54.570031 56.178838 
L 55.500031 55.977755 
L 56.430031 55.93388 
L 57.360031 55.871015 
L 58.290031 55.812385 
L 59.220031 55.572847 
L 60.150031 55.703118 
L 61.080031 55.719994 
L 62.010031 55.625774 
L 62.940031 55.376739 
L 63.870031 55.397524 
" style="fill:none;stroke:#fc8d62;stroke-linecap:square;stroke-width:2;"/>
   </g>
   <g id="line2d_8">
    <path clip-path="url(#p50ff46e2ab)" d="M 10.860031 58.325302 
L 11.790031 59.222568 
L 12.720031 61.136002 
L 13.650031 61.133904 
L 14.580031 61.51274 
L 15.510031 59.861595 
L 16.440031 61.070485 
L 17.370031 61.711011 
L 18.300031 61.074389 
L 19.230031 60.633478 
L 20.160031 61.449863 
L 21.090031 61.348352 
L 22.020031 62.156301 
L 22.950031 62.530775 
L 23.880031 62.352732 
L 24.810031 62.256105 
L 25.740031 61.852409 
L 26.670031 62.208866 
L 27.600031 62.434361 
L 28.530031 62.142223 
L 29.460031 61.620771 
L 30.390031 61.235613 
L 31.320031 60.911111 
L 32.250031 60.601308 
L 33.180031 59.911394 
L 34.110031 59.40024 
L 35.040031 59.075342 
L 35.970031 59.40844 
L 36.900031 59.387201 
L 37.830031 59.527218 
L 38.760031 59.418718 
L 39.690031 59.441228 
L 40.620031 59.409972 
L 41.550031 59.185031 
L 42.480031 59.290378 
L 43.410031 59.172471 
L 44.340031 59.356026 
L 45.270031 59.476652 
L 46.200031 58.931808 
L 47.130031 59.334554 
L 48.060031 59.379508 
L 48.990031 59.363014 
L 49.920031 59.676711 
L 50.850031 59.50063 
L 51.780031 59.47073 
L 52.710031 59.24308 
L 53.640031 59.510174 
L 54.570031 59.62604 
L 55.500031 59.771078 
L 56.430031 59.320305 
L 57.360031 59.16771 
L 58.290031 58.989621 
L 59.220031 59.613429 
L 60.150031 59.594533 
L 61.080031 59.604033 
L 62.010031 60.022225 
L 62.940031 59.490605 
L 63.870031 59.446413 
" style="fill:none;stroke:#fc8d62;stroke-dasharray:1.5,1.5;stroke-dashoffset:0;stroke-opacity:0.7;stroke-width:1.5;"/>
   </g>
   <g id="patch_3">
    <path d="M 9 67.68 
L 9 17.28 
" style="fill:none;stroke:#a9a9a9;stroke-linecap:square;stroke-linejoin:miter;stroke-width:2;"/>
   </g>
   <g id="patch_4">
    <path d="M 64.8 67.68 
L 64.8 17.28 
" style="fill:none;"/>
   </g>
   <g id="patch_5">
    <path d="M 9 67.68 
L 64.8 67.68 
" style="fill:none;stroke:#a9a9a9;stroke-linecap:square;stroke-linejoin:miter;stroke-width:2;"/>
   </g>
   <g id="patch_6">
    <path d="M 9 17.28 
L 64.8 17.28 
" style="fill:none;"/>
   </g>
  </g>
  <g id="axes_2">
   <g id="patch_7">
    <path d="M 9 128.16 
L 64.8 128.16 
L 64.8 77.76 
L 9 77.76 
z
" style="fill:none;"/>
   </g>
   <g id="matplotlib.axis_3">
    <g id="xtick_4">
     <g id="line2d_9">
      <g>
       <use style="fill:#a9a9a9;stroke:#a9a9a9;stroke-width:2;" x="9" xlink:href="#m6724c35a9f" y="128.16"/>
      </g>
     </g>
    </g>
    <g id="xtick_5">
     <g id="line2d_10">
      <g>
       <use style="fill:#a9a9a9;stroke:#a9a9a9;stroke-width:2;" x="36.9" xlink:href="#m6724c35a9f" y="128.16"/>
      </g>
     </g>
    </g>
    <g id="xtick_6">
     <g id="line2d_11">
      <g>
       <use style="fill:#a9a9a9;stroke:#a9a9a9;stroke-width:2;" x="64.8" xlink:href="#m6724c35a9f" y="128.16"/>
      </g>
     </g>
    </g>
   </g>
   <g id="matplotlib.axis_4">
    <g id="ytick_4">
     <g id="line2d_12">
      <g>
       <use style="fill:#a9a9a9;stroke:#a9a9a9;stroke-width:2;" x="9" xlink:href="#mc604ca0254" y="128.16"/>
      </g>
     </g>
    </g>
    <g id="ytick_5">
     <g id="line2d_13">
      <g>
       <use style="fill:#a9a9a9;stroke:#a9a9a9;stroke-width:2;" x="9" xlink:href="#mc604ca0254" y="102.96"/>
      </g>
     </g>
    </g>
    <g id="ytick_6">
     <g id="line2d_14">
      <g>
       <use style="fill:#a9a9a9;stroke:#a9a9a9;stroke-width:2;" x="9" xlink:href="#mc604ca0254" y="77.76"/>
      </g>
     </g>
    </g>
   </g>
   <g id="line2d_15">
    <path clip-path="url(#p6e446d3fbe)" d="M 10.860031 128.130556 
L 11.790031 128.152796 
L 12.720031 128.159927 
L 13.650031 128.159981 
L 14.580031 128.154635 
L 15.510031 128.154238 
L 16.440031 128.143434 
L 17.370031 128.14531 
L 18.300031 128.145061 
L 19.230031 128.121269 
L 20.160031 128.130763 
L 21.090031 128.127167 
L 22.020031 128.128326 
L 22.950031 128.116396 
L 23.880031 128.120023 
L 24.810031 128.10457 
L 25.740031 128.114942 
L 26.670031 128.104994 
L 27.600031 128.101464 
L 28.530031 128.130507 
L 29.460031 128.136556 
L 30.390031 128.140753 
L 31.320031 128.137373 
L 32.250031 128.136592 
L 33.180031 128.140736 
L 34.110031 128.139754 
L 35.040031 128.137103 
L 35.970031 128.13568 
L 36.900031 128.142427 
L 37.830031 128.1478 
L 38.760031 128.152869 
L 39.690031 128.151467 
L 40.620031 128.145792 
L 41.550031 128.150274 
L 42.480031 128.153639 
L 43.410031 128.147318 
L 44.340031 128.150308 
L 45.270031 128.153661 
L 46.200031 128.155226 
L 47.130031 128.150743 
L 48.060031 128.153268 
L 48.990031 128.150909 
L 49.920031 128.149515 
L 50.850031 128.147487 
L 51.780031 128.148172 
L 52.710031 128.145585 
L 53.640031 128.155781 
L 54.570031 128.148019 
L 55.500031 128.139886 
L 56.430031 128.140531 
L 57.360031 128.135658 
L 58.290031 128.134775 
L 59.220031 128.140914 
L 60.150031 128.138819 
L 61.080031 128.141638 
L 62.010031 128.139986 
L 62.940031 128.143411 
L 63.870031 128.143353 
" style="fill:none;stroke:#fc8d62;stroke-linecap:square;stroke-width:2;"/>
   </g>
   <g id="line2d_16">
    <path clip-path="url(#p6e446d3fbe)" d="M 10.860031 128.121872 
L 11.790031 128.004772 
L 12.720031 127.928015 
L 13.650031 127.740996 
L 14.580031 127.634883 
L 15.510031 127.465709 
L 16.440031 127.470904 
L 17.370031 127.364547 
L 18.300031 127.29111 
L 19.230031 127.258963 
L 20.160031 127.141814 
L 21.090031 127.00656 
L 22.020031 127.023439 
L 22.950031 126.982007 
L 23.880031 126.918794 
L 24.810031 126.831754 
L 25.740031 126.760175 
L 26.670031 126.722346 
L 27.600031 126.652498 
L 28.530031 126.721871 
L 29.460031 126.719074 
L 30.390031 126.822837 
L 31.320031 126.771283 
L 32.250031 126.683391 
L 33.180031 126.563988 
L 34.110031 126.604714 
L 35.040031 126.660337 
L 35.970031 126.690509 
L 36.900031 126.609269 
L 37.830031 126.588898 
L 38.760031 126.470114 
L 39.690031 126.29176 
L 40.620031 126.250754 
L 41.550031 126.215602 
L 42.480031 126.185601 
L 43.410031 126.214608 
L 44.340031 126.151927 
L 45.270031 126.083636 
L 46.200031 126.046936 
L 47.130031 125.941996 
L 48.060031 125.862305 
L 48.990031 125.841219 
L 49.920031 125.713954 
L 50.850031 125.729769 
L 51.780031 125.679639 
L 52.710031 125.614044 
L 53.640031 125.596325 
L 54.570031 125.514813 
L 55.500031 125.418092 
L 56.430031 125.359073 
L 57.360031 125.320256 
L 58.290031 125.268915 
L 59.220031 125.194442 
L 60.150031 125.178736 
L 61.080031 125.031695 
L 62.010031 125.025897 
L 62.940031 124.965914 
L 63.870031 124.965005 
" style="fill:none;stroke:#fc8d62;stroke-dasharray:1.5,1.5;stroke-dashoffset:0;stroke-opacity:0.7;stroke-width:1.5;"/>
   </g>
   <g id="patch_8">
    <path d="M 9 128.16 
L 9 77.76 
" style="fill:none;stroke:#a9a9a9;stroke-linecap:square;stroke-linejoin:miter;stroke-width:2;"/>
   </g>
   <g id="patch_9">
    <path d="M 64.8 128.16 
L 64.8 77.76 
" style="fill:none;"/>
   </g>
   <g id="patch_10">
    <path d="M 9 128.16 
L 64.8 128.16 
" style="fill:none;stroke:#a9a9a9;stroke-linecap:square;stroke-linejoin:miter;stroke-width:2;"/>
   </g>
   <g id="patch_11">
    <path d="M 9 77.76 
L 64.8 77.76 
" style="fill:none;"/>
   </g>
  </g>
 </g>
 <defs>
  <clipPath id="p50ff46e2ab">
   <rect height="50.4" width="55.8" x="9" y="17.28"/>
  </clipPath>
  <clipPath id="p6e446d3fbe">
   <rect height="50.4" width="55.8" x="9" y="77.76"/>
  </clipPath>
 </defs>
</svg>
