<?xml version="1.0" encoding="utf-8" standalone="no"?>
<!DOCTYPE svg PUBLIC "-//W3C//DTD SVG 1.1//EN"
  "http://www.w3.org/Graphics/SVG/1.1/DTD/svg11.dtd">
<!-- Created with matplotlib (https://matplotlib.org/) -->
<svg height="144pt" version="1.1" viewBox="0 0 72 144" width="72pt" xmlns="http://www.w3.org/2000/svg" xmlns:xlink="http://www.w3.org/1999/xlink">
 <metadata>
  <rdf:RDF xmlns:cc="http://creativecommons.org/ns#" xmlns:dc="http://purl.org/dc/elements/1.1/" xmlns:rdf="http://www.w3.org/1999/02/22-rdf-syntax-ns#">
   <cc:Work>
    <dc:type rdf:resource="http://purl.org/dc/dcmitype/StillImage"/>
    <dc:date>2021-10-13T15:44:28.449156</dc:date>
    <dc:format>image/svg+xml</dc:format>
    <dc:creator>
     <cc:Agent>
      <dc:title>Matplotlib v3.3.2, https://matplotlib.org/</dc:title>
     </cc:Agent>
    </dc:creator>
   </cc:Work>
  </rdf:RDF>
 </metadata>
 <defs>
  <style type="text/css">*{stroke-linecap:butt;stroke-linejoin:round;}</style>
 </defs>
 <g id="figure_1">
  <g id="patch_1">
   <path d="M 0 144 
L 72 144 
L 72 0 
L 0 0 
z
" style="fill:none;"/>
  </g>
  <g id="axes_1">
   <g id="patch_2">
    <path d="M 9 67.68 
L 64.8 67.68 
L 64.8 17.28 
L 9 17.28 
z
" style="fill:none;"/>
   </g>
   <g id="matplotlib.axis_1">
    <g id="xtick_1">
     <g id="line2d_1">
      <defs>
       <path d="M 0 0 
L 0 3.5 
" id="m97cde7a034" style="stroke:#a9a9a9;stroke-width:2;"/>
      </defs>
      <g>
       <use style="fill:#a9a9a9;stroke:#a9a9a9;stroke-width:2;" x="9" xlink:href="#m97cde7a034" y="67.68"/>
      </g>
     </g>
    </g>
    <g id="xtick_2">
     <g id="line2d_2">
      <g>
       <use style="fill:#a9a9a9;stroke:#a9a9a9;stroke-width:2;" x="36.9" xlink:href="#m97cde7a034" y="67.68"/>
      </g>
     </g>
    </g>
    <g id="xtick_3">
     <g id="line2d_3">
      <g>
       <use style="fill:#a9a9a9;stroke:#a9a9a9;stroke-width:2;" x="64.8" xlink:href="#m97cde7a034" y="67.68"/>
      </g>
     </g>
    </g>
   </g>
   <g id="matplotlib.axis_2">
    <g id="ytick_1">
     <g id="line2d_4">
      <defs>
       <path d="M 0 0 
L -3.5 0 
" id="me0ba7f7129" style="stroke:#a9a9a9;stroke-width:2;"/>
      </defs>
      <g>
       <use style="fill:#a9a9a9;stroke:#a9a9a9;stroke-width:2;" x="9" xlink:href="#me0ba7f7129" y="67.68"/>
      </g>
     </g>
    </g>
    <g id="ytick_2">
     <g id="line2d_5">
      <g>
       <use style="fill:#a9a9a9;stroke:#a9a9a9;stroke-width:2;" x="9" xlink:href="#me0ba7f7129" y="65.394948"/>
      </g>
     </g>
    </g>
    <g id="ytick_3">
     <g id="line2d_6">
      <g>
       <use style="fill:#a9a9a9;stroke:#a9a9a9;stroke-width:2;" x="9" xlink:href="#me0ba7f7129" y="63.109896"/>
      </g>
     </g>
    </g>
   </g>
   <g id="line2d_7">
    <path clip-path="url(#p960f36eb10)" d="M 10.86031 61.254588 
L 11.79031 60.826826 
L 12.72031 59.942023 
L 13.65031 59.211604 
L 14.58031 58.633116 
L 15.51031 57.635108 
L 16.44031 56.802616 
L 17.37031 56.10941 
L 18.30031 54.994579 
L 19.23031 54.483598 
L 20.16031 53.036361 
L 21.09031 52.462894 
L 22.02031 51.749819 
L 22.95031 49.917707 
L 23.88031 48.547048 
L 24.81031 47.252906 
L 25.74031 46.179094 
L 26.67031 45.749792 
L 27.60031 43.408297 
L 28.53031 40.427251 
L 29.46031 38.615299 
L 30.39031 36.05582 
L 31.32031 34.626898 
L 32.25031 33.869854 
L 33.18031 33.237459 
L 34.11031 34.511718 
L 35.04031 34.718242 
L 35.97031 35.335756 
L 36.90031 36.517144 
L 37.83031 37.260275 
L 38.76031 37.765686 
L 39.69031 37.116059 
L 40.62031 37.024443 
L 41.55031 35.747964 
L 42.48031 33.915398 
L 43.41031 33.374635 
L 44.34031 31.457559 
L 45.27031 31.943176 
L 46.20031 30.926886 
L 47.13031 29.565103 
L 48.06031 28.423694 
L 48.99031 27.83425 
L 49.92031 26.906017 
L 50.85031 24.817964 
L 51.78031 24.098787 
L 52.71031 23.910063 
L 53.64031 22.622702 
L 54.57031 21.254291 
L 55.50031 20.120363 
L 56.43031 19.912025 
L 57.36031 19.742217 
L 58.29031 18.164203 
L 59.22031 17.957871 
L 60.15031 19.423718 
L 61.08031 19.653045 
L 62.01031 19.485403 
L 62.94031 18.097229 
L 63.87031 17.394253 
" style="fill:none;stroke:#fc8d62;stroke-linecap:square;stroke-width:2;"/>
   </g>
   <g id="line2d_8">
    <path clip-path="url(#p960f36eb10)" d="M 10.86031 60.268866 
L 11.79031 58.965762 
L 12.72031 58.526868 
L 13.65031 57.308448 
L 14.58031 57.082623 
L 15.51031 56.373331 
L 16.44031 55.620605 
L 17.37031 54.564884 
L 18.30031 54.270409 
L 19.23031 53.571287 
L 20.16031 52.071694 
L 21.09031 50.727636 
L 22.02031 49.914695 
L 22.95031 48.260837 
L 23.88031 47.093646 
L 24.81031 45.565991 
L 25.74031 44.404482 
L 26.67031 41.87797 
L 27.60031 40.72994 
L 28.53031 38.677789 
L 29.46031 36.95487 
L 30.39031 35.956616 
L 31.32031 34.65747 
L 32.25031 34.614269 
L 33.18031 34.615236 
L 34.11031 34.639522 
L 35.04031 34.227246 
L 35.97031 34.67285 
L 36.90031 33.085755 
L 37.83031 32.980088 
L 38.76031 32.862559 
L 39.69031 33.794788 
L 40.62031 34.498336 
L 41.55031 33.411042 
L 42.48031 33.061054 
L 43.41031 33.029848 
L 44.34031 33.19988 
L 45.27031 33.476074 
L 46.20031 33.209068 
L 47.13031 32.529024 
L 48.06031 32.630642 
L 48.99031 31.337072 
L 49.92031 31.268082 
L 50.85031 30.250003 
L 51.78031 28.679925 
L 52.71031 27.892697 
L 53.64031 26.777024 
L 54.57031 25.644613 
L 55.50031 24.612453 
L 56.43031 25.008781 
L 57.36031 25.01202 
L 58.29031 24.871623 
L 59.22031 24.748396 
L 60.15031 24.713123 
L 61.08031 24.404223 
L 62.01031 22.492799 
L 62.94031 21.765761 
L 63.87031 21.024273 
" style="fill:none;stroke:#fc8d62;stroke-dasharray:1.5,1.5;stroke-dashoffset:0;stroke-opacity:0.7;stroke-width:1.5;"/>
   </g>
   <g id="patch_3">
    <path d="M 9 67.68 
L 9 17.28 
" style="fill:none;stroke:#a9a9a9;stroke-linecap:square;stroke-linejoin:miter;stroke-width:2;"/>
   </g>
   <g id="patch_4">
    <path d="M 64.8 67.68 
L 64.8 17.28 
" style="fill:none;"/>
   </g>
   <g id="patch_5">
    <path d="M 9 67.68 
L 64.8 67.68 
" style="fill:none;stroke:#a9a9a9;stroke-linecap:square;stroke-linejoin:miter;stroke-width:2;"/>
   </g>
   <g id="patch_6">
    <path d="M 9 17.28 
L 64.8 17.28 
" style="fill:none;"/>
   </g>
  </g>
  <g id="axes_2">
   <g id="patch_7">
    <path d="M 9 128.16 
L 64.8 128.16 
L 64.8 77.76 
L 9 77.76 
z
" style="fill:none;"/>
   </g>
   <g id="matplotlib.axis_3">
    <g id="xtick_4">
     <g id="line2d_9">
      <g>
       <use style="fill:#a9a9a9;stroke:#a9a9a9;stroke-width:2;" x="9" xlink:href="#m97cde7a034" y="128.16"/>
      </g>
     </g>
    </g>
    <g id="xtick_5">
     <g id="line2d_10">
      <g>
       <use style="fill:#a9a9a9;stroke:#a9a9a9;stroke-width:2;" x="36.9" xlink:href="#m97cde7a034" y="128.16"/>
      </g>
     </g>
    </g>
    <g id="xtick_6">
     <g id="line2d_11">
      <g>
       <use style="fill:#a9a9a9;stroke:#a9a9a9;stroke-width:2;" x="64.8" xlink:href="#m97cde7a034" y="128.16"/>
      </g>
     </g>
    </g>
   </g>
   <g id="matplotlib.axis_4">
    <g id="ytick_4">
     <g id="line2d_12">
      <g>
       <use style="fill:#a9a9a9;stroke:#a9a9a9;stroke-width:2;" x="9" xlink:href="#me0ba7f7129" y="128.16"/>
      </g>
     </g>
    </g>
    <g id="ytick_5">
     <g id="line2d_13">
      <g>
       <use style="fill:#a9a9a9;stroke:#a9a9a9;stroke-width:2;" x="9" xlink:href="#me0ba7f7129" y="102.96"/>
      </g>
     </g>
    </g>
    <g id="ytick_6">
     <g id="line2d_14">
      <g>
       <use style="fill:#a9a9a9;stroke:#a9a9a9;stroke-width:2;" x="9" xlink:href="#me0ba7f7129" y="77.76"/>
      </g>
     </g>
    </g>
   </g>
   <g id="line2d_15">
    <path clip-path="url(#p9ab7eaf33d)" d="M 10.86031 89.331621 
L 11.79031 89.194133 
L 12.72031 88.998887 
L 13.65031 88.830854 
L 14.58031 88.724674 
L 15.51031 88.60324 
L 16.44031 88.550903 
L 17.37031 88.501606 
L 18.30031 88.442843 
L 19.23031 88.426058 
L 20.16031 88.397879 
L 21.09031 88.402624 
L 22.02031 88.398737 
L 22.95031 88.377808 
L 23.88031 88.358268 
L 24.81031 88.359801 
L 25.74031 88.347172 
L 26.67031 88.352965 
L 27.60031 88.335271 
L 28.53031 88.314822 
L 29.46031 88.306449 
L 30.39031 88.297957 
L 31.32031 88.286144 
L 32.25031 88.280037 
L 33.18031 88.277788 
L 34.11031 88.275922 
L 35.04031 88.274942 
L 35.97031 88.272767 
L 36.90031 88.270274 
L 37.83031 88.254879 
L 38.76031 88.249482 
L 39.69031 88.24252 
L 40.62031 88.245233 
L 41.55031 88.24618 
L 42.48031 88.241751 
L 43.41031 88.247462 
L 44.34031 88.249917 
L 45.27031 88.249626 
L 46.20031 88.254515 
L 47.13031 88.254389 
L 48.06031 88.255831 
L 48.99031 88.259364 
L 49.92031 88.26186 
L 50.85031 88.262476 
L 51.78031 88.268824 
L 52.71031 88.264055 
L 53.64031 88.264562 
L 54.57031 88.267704 
L 55.50031 88.266789 
L 56.43031 88.267288 
L 57.36031 88.266987 
L 58.29031 88.263193 
L 59.22031 88.26189 
L 60.15031 88.261732 
L 61.08031 88.25802 
L 62.01031 88.261551 
L 62.94031 88.261357 
L 63.87031 88.26097 
" style="fill:none;stroke:#fc8d62;stroke-linecap:square;stroke-width:2;"/>
   </g>
   <g id="line2d_16">
    <path clip-path="url(#p9ab7eaf33d)" d="M 10.86031 91.40219 
L 11.79031 91.071202 
L 12.72031 90.914051 
L 13.65031 90.796779 
L 14.58031 90.789977 
L 15.51031 90.734997 
L 16.44031 90.697791 
L 17.37031 90.661795 
L 18.30031 90.657559 
L 19.23031 90.634462 
L 20.16031 90.653666 
L 21.09031 90.632818 
L 22.02031 90.617498 
L 22.95031 90.599805 
L 23.88031 90.610044 
L 24.81031 90.606997 
L 25.74031 90.609828 
L 26.67031 90.59741 
L 27.60031 90.596372 
L 28.53031 90.588253 
L 29.46031 90.575556 
L 30.39031 90.581466 
L 31.32031 90.576266 
L 32.25031 90.571059 
L 33.18031 90.555388 
L 34.11031 90.555949 
L 35.04031 90.539935 
L 35.97031 90.540866 
L 36.90031 90.53361 
L 37.83031 90.518526 
L 38.76031 90.512332 
L 39.69031 90.510272 
L 40.62031 90.519397 
L 41.55031 90.518171 
L 42.48031 90.520289 
L 43.41031 90.519671 
L 44.34031 90.524333 
L 45.27031 90.529177 
L 46.20031 90.533227 
L 47.13031 90.534227 
L 48.06031 90.544824 
L 48.99031 90.543583 
L 49.92031 90.542368 
L 50.85031 90.539861 
L 51.78031 90.53697 
L 52.71031 90.533965 
L 53.64031 90.527378 
L 54.57031 90.521 
L 55.50031 90.517902 
L 56.43031 90.516451 
L 57.36031 90.511245 
L 58.29031 90.510887 
L 59.22031 90.510025 
L 60.15031 90.506515 
L 61.08031 90.4997 
L 62.01031 90.495955 
L 62.94031 90.492762 
L 63.87031 90.48952 
" style="fill:none;stroke:#fc8d62;stroke-dasharray:1.5,1.5;stroke-dashoffset:0;stroke-opacity:0.7;stroke-width:1.5;"/>
   </g>
   <g id="patch_8">
    <path d="M 9 128.16 
L 9 77.76 
" style="fill:none;stroke:#a9a9a9;stroke-linecap:square;stroke-linejoin:miter;stroke-width:2;"/>
   </g>
   <g id="patch_9">
    <path d="M 64.8 128.16 
L 64.8 77.76 
" style="fill:none;"/>
   </g>
   <g id="patch_10">
    <path d="M 9 128.16 
L 64.8 128.16 
" style="fill:none;stroke:#a9a9a9;stroke-linecap:square;stroke-linejoin:miter;stroke-width:2;"/>
   </g>
   <g id="patch_11">
    <path d="M 9 77.76 
L 64.8 77.76 
" style="fill:none;"/>
   </g>
  </g>
 </g>
 <defs>
  <clipPath id="p960f36eb10">
   <rect height="50.4" width="55.8" x="9" y="17.28"/>
  </clipPath>
  <clipPath id="p9ab7eaf33d">
   <rect height="50.4" width="55.8" x="9" y="77.76"/>
  </clipPath>
 </defs>
</svg>
