<?xml version="1.0" encoding="utf-8" standalone="no"?>
<!DOCTYPE svg PUBLIC "-//W3C//DTD SVG 1.1//EN"
  "http://www.w3.org/Graphics/SVG/1.1/DTD/svg11.dtd">
<!-- Created with matplotlib (https://matplotlib.org/) -->
<svg height="144pt" version="1.1" viewBox="0 0 72 144" width="72pt" xmlns="http://www.w3.org/2000/svg" xmlns:xlink="http://www.w3.org/1999/xlink">
 <metadata>
  <rdf:RDF xmlns:cc="http://creativecommons.org/ns#" xmlns:dc="http://purl.org/dc/elements/1.1/" xmlns:rdf="http://www.w3.org/1999/02/22-rdf-syntax-ns#">
   <cc:Work>
    <dc:type rdf:resource="http://purl.org/dc/dcmitype/StillImage"/>
    <dc:date>2021-10-13T14:21:18.963267</dc:date>
    <dc:format>image/svg+xml</dc:format>
    <dc:creator>
     <cc:Agent>
      <dc:title>Matplotlib v3.3.2, https://matplotlib.org/</dc:title>
     </cc:Agent>
    </dc:creator>
   </cc:Work>
  </rdf:RDF>
 </metadata>
 <defs>
  <style type="text/css">*{stroke-linecap:butt;stroke-linejoin:round;}</style>
 </defs>
 <g id="figure_1">
  <g id="patch_1">
   <path d="M 0 144 
L 72 144 
L 72 0 
L 0 0 
z
" style="fill:none;"/>
  </g>
  <g id="axes_1">
   <g id="patch_2">
    <path d="M 9 67.68 
L 64.8 67.68 
L 64.8 17.28 
L 9 17.28 
z
" style="fill:none;"/>
   </g>
   <g id="matplotlib.axis_1">
    <g id="xtick_1">
     <g id="line2d_1">
      <defs>
       <path d="M 0 0 
L 0 3.5 
" id="m09f73adf43" style="stroke:#a9a9a9;stroke-width:2;"/>
      </defs>
      <g>
       <use style="fill:#a9a9a9;stroke:#a9a9a9;stroke-width:2;" x="9" xlink:href="#m09f73adf43" y="67.68"/>
      </g>
     </g>
    </g>
    <g id="xtick_2">
     <g id="line2d_2">
      <g>
       <use style="fill:#a9a9a9;stroke:#a9a9a9;stroke-width:2;" x="36.9" xlink:href="#m09f73adf43" y="67.68"/>
      </g>
     </g>
    </g>
    <g id="xtick_3">
     <g id="line2d_3">
      <g>
       <use style="fill:#a9a9a9;stroke:#a9a9a9;stroke-width:2;" x="64.8" xlink:href="#m09f73adf43" y="67.68"/>
      </g>
     </g>
    </g>
   </g>
   <g id="matplotlib.axis_2">
    <g id="ytick_1">
     <g id="line2d_4">
      <defs>
       <path d="M 0 0 
L -3.5 0 
" id="m9921acf62d" style="stroke:#a9a9a9;stroke-width:2;"/>
      </defs>
      <g>
       <use style="fill:#a9a9a9;stroke:#a9a9a9;stroke-width:2;" x="9" xlink:href="#m9921acf62d" y="67.68"/>
      </g>
     </g>
    </g>
    <g id="ytick_2">
     <g id="line2d_5">
      <g>
       <use style="fill:#a9a9a9;stroke:#a9a9a9;stroke-width:2;" x="9" xlink:href="#m9921acf62d" y="53.414611"/>
      </g>
     </g>
    </g>
    <g id="ytick_3">
     <g id="line2d_6">
      <g>
       <use style="fill:#a9a9a9;stroke:#a9a9a9;stroke-width:2;" x="9" xlink:href="#m9921acf62d" y="39.149223"/>
      </g>
     </g>
    </g>
   </g>
   <g id="line2d_7">
    <path clip-path="url(#p651533fb8a)" d="M 10.86031 58.121805 
L 11.79031 56.697994 
L 12.72031 54.913228 
L 13.65031 52.766756 
L 14.58031 51.289416 
L 15.51031 49.838133 
L 16.44031 48.413758 
L 17.37031 47.342808 
L 18.30031 45.832441 
L 19.23031 44.786568 
L 20.16031 44.308598 
L 21.09031 42.765005 
L 22.02031 42.14756 
L 22.95031 41.108997 
L 23.88031 39.732114 
L 24.81031 39.629943 
L 25.74031 39.424857 
L 26.67031 37.929589 
L 27.60031 37.098231 
L 28.53031 36.427308 
L 29.46031 35.8888 
L 30.39031 35.290954 
L 31.32031 34.343087 
L 32.25031 33.510015 
L 33.18031 33.003026 
L 34.11031 31.924249 
L 35.04031 31.272138 
L 35.97031 30.991026 
L 36.90031 31.023941 
L 37.83031 30.557631 
L 38.76031 29.678045 
L 39.69031 29.364114 
L 40.62031 29.306405 
L 41.55031 28.944636 
L 42.48031 28.459397 
L 43.41031 27.952659 
L 44.34031 27.491456 
L 45.27031 26.97649 
L 46.20031 26.511256 
L 47.13031 26.20383 
L 48.06031 25.944893 
L 48.99031 24.802961 
L 49.92031 24.386137 
L 50.85031 24.008973 
L 51.78031 23.722177 
L 52.71031 23.261167 
L 53.64031 23.134467 
L 54.57031 22.788351 
L 55.50031 22.732056 
L 56.43031 22.504528 
L 57.36031 21.894206 
L 58.29031 20.942994 
L 59.22031 20.552917 
L 60.15031 20.316924 
L 61.08031 19.757869 
L 62.01031 19.072796 
L 62.94031 18.441915 
L 63.87031 17.993269 
" style="fill:none;stroke:#fc8d62;stroke-linecap:square;stroke-width:2;"/>
   </g>
   <g id="line2d_8">
    <path clip-path="url(#p651533fb8a)" d="M 10.86031 57.792261 
L 11.79031 54.678721 
L 12.72031 52.362535 
L 13.65031 50.879123 
L 14.58031 49.463653 
L 15.51031 47.570309 
L 16.44031 45.723854 
L 17.37031 44.876558 
L 18.30031 43.184017 
L 19.23031 42.289319 
L 20.16031 40.523269 
L 21.09031 39.128971 
L 22.02031 38.557916 
L 22.95031 37.205398 
L 23.88031 36.353982 
L 24.81031 35.1505 
L 25.74031 34.304207 
L 26.67031 33.728744 
L 27.60031 33.459491 
L 28.53031 32.256354 
L 29.46031 31.765724 
L 30.39031 31.255513 
L 31.32031 30.738708 
L 32.25031 30.016262 
L 33.18031 29.257578 
L 34.11031 28.66692 
L 35.04031 28.196215 
L 35.97031 27.225889 
L 36.90031 26.503182 
L 37.83031 26.031595 
L 38.76031 25.997099 
L 39.69031 25.188867 
L 40.62031 24.225059 
L 41.55031 23.257605 
L 42.48031 22.997013 
L 43.41031 22.762012 
L 44.34031 22.188539 
L 45.27031 21.671703 
L 46.20031 20.738945 
L 47.13031 19.928122 
L 48.06031 18.69466 
L 48.99031 17.553096 
L 49.92031 16.999224 
L 50.85031 15.741424 
L 51.78031 15.314817 
L 52.71031 15.174973 
L 53.64031 14.468608 
L 54.57031 14.31836 
L 55.50031 13.810656 
L 56.43031 13.102017 
L 57.36031 12.187472 
L 58.29031 11.81913 
L 59.22031 10.991781 
L 60.15031 10.637604 
L 61.08031 10.081048 
L 62.01031 9.105925 
L 62.94031 8.843344 
L 63.87031 8.996197 
" style="fill:none;stroke:#fc8d62;stroke-dasharray:1.5,1.5;stroke-dashoffset:0;stroke-opacity:0.7;stroke-width:1.5;"/>
   </g>
   <g id="patch_3">
    <path d="M 9 67.68 
L 9 17.28 
" style="fill:none;stroke:#a9a9a9;stroke-linecap:square;stroke-linejoin:miter;stroke-width:2;"/>
   </g>
   <g id="patch_4">
    <path d="M 64.8 67.68 
L 64.8 17.28 
" style="fill:none;"/>
   </g>
   <g id="patch_5">
    <path d="M 9 67.68 
L 64.8 67.68 
" style="fill:none;stroke:#a9a9a9;stroke-linecap:square;stroke-linejoin:miter;stroke-width:2;"/>
   </g>
   <g id="patch_6">
    <path d="M 9 17.28 
L 64.8 17.28 
" style="fill:none;"/>
   </g>
  </g>
  <g id="axes_2">
   <g id="patch_7">
    <path d="M 9 128.16 
L 64.8 128.16 
L 64.8 77.76 
L 9 77.76 
z
" style="fill:none;"/>
   </g>
   <g id="matplotlib.axis_3">
    <g id="xtick_4">
     <g id="line2d_9">
      <g>
       <use style="fill:#a9a9a9;stroke:#a9a9a9;stroke-width:2;" x="9" xlink:href="#m09f73adf43" y="128.16"/>
      </g>
     </g>
    </g>
    <g id="xtick_5">
     <g id="line2d_10">
      <g>
       <use style="fill:#a9a9a9;stroke:#a9a9a9;stroke-width:2;" x="36.9" xlink:href="#m09f73adf43" y="128.16"/>
      </g>
     </g>
    </g>
    <g id="xtick_6">
     <g id="line2d_11">
      <g>
       <use style="fill:#a9a9a9;stroke:#a9a9a9;stroke-width:2;" x="64.8" xlink:href="#m09f73adf43" y="128.16"/>
      </g>
     </g>
    </g>
   </g>
   <g id="matplotlib.axis_4">
    <g id="ytick_4">
     <g id="line2d_12">
      <g>
       <use style="fill:#a9a9a9;stroke:#a9a9a9;stroke-width:2;" x="9" xlink:href="#m9921acf62d" y="128.16"/>
      </g>
     </g>
    </g>
    <g id="ytick_5">
     <g id="line2d_13">
      <g>
       <use style="fill:#a9a9a9;stroke:#a9a9a9;stroke-width:2;" x="9" xlink:href="#m9921acf62d" y="102.96"/>
      </g>
     </g>
    </g>
    <g id="ytick_6">
     <g id="line2d_14">
      <g>
       <use style="fill:#a9a9a9;stroke:#a9a9a9;stroke-width:2;" x="9" xlink:href="#m9921acf62d" y="77.76"/>
      </g>
     </g>
    </g>
   </g>
   <g id="line2d_15">
    <path clip-path="url(#p1a913bd936)" d="M 10.86031 119.191747 
L 11.79031 118.633718 
L 12.72031 117.213712 
L 13.65031 116.335051 
L 14.58031 115.741431 
L 15.51031 115.426257 
L 16.44031 115.090725 
L 17.37031 115.16411 
L 18.30031 114.788031 
L 19.23031 114.589427 
L 20.16031 114.641008 
L 21.09031 114.501013 
L 22.02031 114.356497 
L 22.95031 114.420122 
L 23.88031 114.203466 
L 24.81031 114.227886 
L 25.74031 114.144316 
L 26.67031 113.907897 
L 27.60031 113.904814 
L 28.53031 113.729619 
L 29.46031 113.60279 
L 30.39031 113.591621 
L 31.32031 113.500968 
L 32.25031 113.5177 
L 33.18031 113.479036 
L 34.11031 113.467896 
L 35.04031 113.402863 
L 35.97031 113.442697 
L 36.90031 113.433868 
L 37.83031 113.346438 
L 38.76031 113.269578 
L 39.69031 113.128667 
L 40.62031 113.242687 
L 41.55031 113.169274 
L 42.48031 113.14027 
L 43.41031 113.052623 
L 44.34031 113.121604 
L 45.27031 113.021567 
L 46.20031 113.02665 
L 47.13031 113.003304 
L 48.06031 112.984815 
L 48.99031 112.952072 
L 49.92031 112.88266 
L 50.85031 112.860722 
L 51.78031 112.90633 
L 52.71031 112.879851 
L 53.64031 112.840486 
L 54.57031 112.88928 
L 55.50031 112.888027 
L 56.43031 112.904031 
L 57.36031 112.850408 
L 58.29031 112.873165 
L 59.22031 112.850325 
L 60.15031 112.845557 
L 61.08031 112.892733 
L 62.01031 112.834079 
L 62.94031 112.787533 
L 63.87031 112.771831 
" style="fill:none;stroke:#fc8d62;stroke-linecap:square;stroke-width:2;"/>
   </g>
   <g id="line2d_16">
    <path clip-path="url(#p1a913bd936)" d="M 10.86031 110.28549 
L 11.79031 106.525523 
L 12.72031 104.562851 
L 13.65031 102.997803 
L 14.58031 101.843983 
L 15.51031 101.137216 
L 16.44031 101.067577 
L 17.37031 100.154531 
L 18.30031 99.681358 
L 19.23031 99.536905 
L 20.16031 99.069482 
L 21.09031 98.807519 
L 22.02031 98.500012 
L 22.95031 98.131658 
L 23.88031 98.02667 
L 24.81031 97.953403 
L 25.74031 97.825114 
L 26.67031 97.675017 
L 27.60031 97.427172 
L 28.53031 97.274893 
L 29.46031 97.236907 
L 30.39031 97.258766 
L 31.32031 96.997357 
L 32.25031 96.881292 
L 33.18031 96.774682 
L 34.11031 96.811678 
L 35.04031 96.803448 
L 35.97031 96.686528 
L 36.90031 96.669502 
L 37.83031 96.625915 
L 38.76031 96.612955 
L 39.69031 96.540709 
L 40.62031 96.431237 
L 41.55031 96.338766 
L 42.48031 96.171283 
L 43.41031 96.13992 
L 44.34031 96.142675 
L 45.27031 96.123432 
L 46.20031 96.118387 
L 47.13031 96.165218 
L 48.06031 96.11422 
L 48.99031 96.0978 
L 49.92031 96.06639 
L 50.85031 96.012595 
L 51.78031 95.975762 
L 52.71031 95.924337 
L 53.64031 95.915527 
L 54.57031 95.959689 
L 55.50031 95.918183 
L 56.43031 95.992836 
L 57.36031 96.00291 
L 58.29031 95.955206 
L 59.22031 95.899805 
L 60.15031 95.869368 
L 61.08031 95.745961 
L 62.01031 95.760917 
L 62.94031 95.727624 
L 63.87031 95.701265 
" style="fill:none;stroke:#fc8d62;stroke-dasharray:1.5,1.5;stroke-dashoffset:0;stroke-opacity:0.7;stroke-width:1.5;"/>
   </g>
   <g id="patch_8">
    <path d="M 9 128.16 
L 9 77.76 
" style="fill:none;stroke:#a9a9a9;stroke-linecap:square;stroke-linejoin:miter;stroke-width:2;"/>
   </g>
   <g id="patch_9">
    <path d="M 64.8 128.16 
L 64.8 77.76 
" style="fill:none;"/>
   </g>
   <g id="patch_10">
    <path d="M 9 128.16 
L 64.8 128.16 
" style="fill:none;stroke:#a9a9a9;stroke-linecap:square;stroke-linejoin:miter;stroke-width:2;"/>
   </g>
   <g id="patch_11">
    <path d="M 9 77.76 
L 64.8 77.76 
" style="fill:none;"/>
   </g>
  </g>
 </g>
 <defs>
  <clipPath id="p651533fb8a">
   <rect height="50.4" width="55.8" x="9" y="17.28"/>
  </clipPath>
  <clipPath id="p1a913bd936">
   <rect height="50.4" width="55.8" x="9" y="77.76"/>
  </clipPath>
 </defs>
</svg>
