<?xml version="1.0" encoding="utf-8" standalone="no"?>
<!DOCTYPE svg PUBLIC "-//W3C//DTD SVG 1.1//EN"
  "http://www.w3.org/Graphics/SVG/1.1/DTD/svg11.dtd">
<!-- Created with matplotlib (https://matplotlib.org/) -->
<svg height="144pt" version="1.1" viewBox="0 0 72 144" width="72pt" xmlns="http://www.w3.org/2000/svg" xmlns:xlink="http://www.w3.org/1999/xlink">
 <metadata>
  <rdf:RDF xmlns:cc="http://creativecommons.org/ns#" xmlns:dc="http://purl.org/dc/elements/1.1/" xmlns:rdf="http://www.w3.org/1999/02/22-rdf-syntax-ns#">
   <cc:Work>
    <dc:type rdf:resource="http://purl.org/dc/dcmitype/StillImage"/>
    <dc:date>2021-10-13T15:51:52.535164</dc:date>
    <dc:format>image/svg+xml</dc:format>
    <dc:creator>
     <cc:Agent>
      <dc:title>Matplotlib v3.3.2, https://matplotlib.org/</dc:title>
     </cc:Agent>
    </dc:creator>
   </cc:Work>
  </rdf:RDF>
 </metadata>
 <defs>
  <style type="text/css">*{stroke-linecap:butt;stroke-linejoin:round;}</style>
 </defs>
 <g id="figure_1">
  <g id="patch_1">
   <path d="M 0 144 
L 72 144 
L 72 0 
L 0 0 
z
" style="fill:none;"/>
  </g>
  <g id="axes_1">
   <g id="patch_2">
    <path d="M 9 67.68 
L 64.8 67.68 
L 64.8 17.28 
L 9 17.28 
z
" style="fill:none;"/>
   </g>
   <g id="matplotlib.axis_1">
    <g id="xtick_1">
     <g id="line2d_1">
      <defs>
       <path d="M 0 0 
L 0 3.5 
" id="m669a015a7b" style="stroke:#a9a9a9;stroke-width:2;"/>
      </defs>
      <g>
       <use style="fill:#a9a9a9;stroke:#a9a9a9;stroke-width:2;" x="9" xlink:href="#m669a015a7b" y="67.68"/>
      </g>
     </g>
    </g>
    <g id="xtick_2">
     <g id="line2d_2">
      <g>
       <use style="fill:#a9a9a9;stroke:#a9a9a9;stroke-width:2;" x="36.9" xlink:href="#m669a015a7b" y="67.68"/>
      </g>
     </g>
    </g>
    <g id="xtick_3">
     <g id="line2d_3">
      <g>
       <use style="fill:#a9a9a9;stroke:#a9a9a9;stroke-width:2;" x="64.8" xlink:href="#m669a015a7b" y="67.68"/>
      </g>
     </g>
    </g>
   </g>
   <g id="matplotlib.axis_2">
    <g id="ytick_1">
     <g id="line2d_4">
      <defs>
       <path d="M 0 0 
L -3.5 0 
" id="m19bcb502df" style="stroke:#a9a9a9;stroke-width:2;"/>
      </defs>
      <g>
       <use style="fill:#a9a9a9;stroke:#a9a9a9;stroke-width:2;" x="9" xlink:href="#m19bcb502df" y="67.68"/>
      </g>
     </g>
    </g>
    <g id="ytick_2">
     <g id="line2d_5">
      <g>
       <use style="fill:#a9a9a9;stroke:#a9a9a9;stroke-width:2;" x="9" xlink:href="#m19bcb502df" y="60.592261"/>
      </g>
     </g>
    </g>
    <g id="ytick_3">
     <g id="line2d_6">
      <g>
       <use style="fill:#a9a9a9;stroke:#a9a9a9;stroke-width:2;" x="9" xlink:href="#m19bcb502df" y="53.504523"/>
      </g>
     </g>
    </g>
   </g>
   <g id="line2d_7">
    <path clip-path="url(#pee2d103846)" d="M 10.86031 58.552125 
L 11.79031 56.980297 
L 12.72031 55.287701 
L 13.65031 53.53019 
L 14.58031 51.799881 
L 15.51031 50.705576 
L 16.44031 48.847915 
L 17.37031 47.713553 
L 18.30031 46.91693 
L 19.23031 45.922167 
L 20.16031 45.824061 
L 21.09031 44.985455 
L 22.02031 44.001515 
L 22.95031 42.430944 
L 23.88031 42.04106 
L 24.81031 41.09058 
L 25.74031 40.114234 
L 26.67031 39.477132 
L 27.60031 38.229984 
L 28.53031 37.095022 
L 29.46031 36.454071 
L 30.39031 35.776015 
L 31.32031 34.511066 
L 32.25031 34.177813 
L 33.18031 34.099374 
L 34.11031 33.241656 
L 35.04031 32.167979 
L 35.97031 30.772172 
L 36.90031 29.775827 
L 37.83031 29.311617 
L 38.76031 28.275384 
L 39.69031 27.414763 
L 40.62031 26.537558 
L 41.55031 25.934405 
L 42.48031 25.045144 
L 43.41031 24.700765 
L 44.34031 24.432856 
L 45.27031 24.662541 
L 46.20031 24.353801 
L 47.13031 23.917833 
L 48.06031 23.646822 
L 48.99031 23.65771 
L 49.92031 23.139095 
L 50.85031 22.864871 
L 51.78031 22.3335 
L 52.71031 21.907029 
L 53.64031 21.571091 
L 54.57031 21.845348 
L 55.50031 21.471145 
L 56.43031 21.157415 
L 57.36031 20.254015 
L 58.29031 20.145125 
L 59.22031 18.941966 
L 60.15031 18.834286 
L 61.08031 18.32184 
L 62.01031 17.634387 
L 62.94031 17.716108 
L 63.87031 17.743776 
" style="fill:none;stroke:#fc8d62;stroke-linecap:square;stroke-width:2;"/>
   </g>
   <g id="line2d_8">
    <path clip-path="url(#pee2d103846)" d="M 10.86031 59.364388 
L 11.79031 57.366582 
L 12.72031 56.657774 
L 13.65031 55.859079 
L 14.58031 54.494022 
L 15.51031 53.302443 
L 16.44031 52.427694 
L 17.37031 51.676777 
L 18.30031 50.988421 
L 19.23031 49.816416 
L 20.16031 48.855208 
L 21.09031 48.561496 
L 22.02031 47.840369 
L 22.95031 47.136886 
L 23.88031 46.338107 
L 24.81031 45.355199 
L 25.74031 44.079282 
L 26.67031 42.975449 
L 27.60031 42.768447 
L 28.53031 41.702389 
L 29.46031 41.41047 
L 30.39031 40.922249 
L 31.32031 40.340941 
L 32.25031 38.80812 
L 33.18031 38.050392 
L 34.11031 37.015054 
L 35.04031 36.342509 
L 35.97031 35.992909 
L 36.90031 35.953198 
L 37.83031 35.025007 
L 38.76031 34.733686 
L 39.69031 33.784136 
L 40.62031 33.833251 
L 41.55031 33.500177 
L 42.48031 33.235103 
L 43.41031 32.916349 
L 44.34031 32.675897 
L 45.27031 31.949532 
L 46.20031 31.271699 
L 47.13031 30.326382 
L 48.06031 30.153317 
L 48.99031 29.603655 
L 49.92031 29.398581 
L 50.85031 28.982928 
L 51.78031 28.001372 
L 52.71031 27.297155 
L 53.64031 27.203928 
L 54.57031 26.806271 
L 55.50031 26.254439 
L 56.43031 25.466702 
L 57.36031 25.065787 
L 58.29031 24.593254 
L 59.22031 24.053512 
L 60.15031 23.945725 
L 61.08031 22.92494 
L 62.01031 22.345992 
L 62.94031 22.197169 
L 63.87031 21.926281 
" style="fill:none;stroke:#fc8d62;stroke-dasharray:1.5,1.5;stroke-dashoffset:0;stroke-opacity:0.7;stroke-width:1.5;"/>
   </g>
   <g id="patch_3">
    <path d="M 9 67.68 
L 9 17.28 
" style="fill:none;stroke:#a9a9a9;stroke-linecap:square;stroke-linejoin:miter;stroke-width:2;"/>
   </g>
   <g id="patch_4">
    <path d="M 64.8 67.68 
L 64.8 17.28 
" style="fill:none;"/>
   </g>
   <g id="patch_5">
    <path d="M 9 67.68 
L 64.8 67.68 
" style="fill:none;stroke:#a9a9a9;stroke-linecap:square;stroke-linejoin:miter;stroke-width:2;"/>
   </g>
   <g id="patch_6">
    <path d="M 9 17.28 
L 64.8 17.28 
" style="fill:none;"/>
   </g>
  </g>
  <g id="axes_2">
   <g id="patch_7">
    <path d="M 9 128.16 
L 64.8 128.16 
L 64.8 77.76 
L 9 77.76 
z
" style="fill:none;"/>
   </g>
   <g id="matplotlib.axis_3">
    <g id="xtick_4">
     <g id="line2d_9">
      <g>
       <use style="fill:#a9a9a9;stroke:#a9a9a9;stroke-width:2;" x="9" xlink:href="#m669a015a7b" y="128.16"/>
      </g>
     </g>
    </g>
    <g id="xtick_5">
     <g id="line2d_10">
      <g>
       <use style="fill:#a9a9a9;stroke:#a9a9a9;stroke-width:2;" x="36.9" xlink:href="#m669a015a7b" y="128.16"/>
      </g>
     </g>
    </g>
    <g id="xtick_6">
     <g id="line2d_11">
      <g>
       <use style="fill:#a9a9a9;stroke:#a9a9a9;stroke-width:2;" x="64.8" xlink:href="#m669a015a7b" y="128.16"/>
      </g>
     </g>
    </g>
   </g>
   <g id="matplotlib.axis_4">
    <g id="ytick_4">
     <g id="line2d_12">
      <g>
       <use style="fill:#a9a9a9;stroke:#a9a9a9;stroke-width:2;" x="9" xlink:href="#m19bcb502df" y="128.16"/>
      </g>
     </g>
    </g>
    <g id="ytick_5">
     <g id="line2d_13">
      <g>
       <use style="fill:#a9a9a9;stroke:#a9a9a9;stroke-width:2;" x="9" xlink:href="#m19bcb502df" y="102.96"/>
      </g>
     </g>
    </g>
    <g id="ytick_6">
     <g id="line2d_14">
      <g>
       <use style="fill:#a9a9a9;stroke:#a9a9a9;stroke-width:2;" x="9" xlink:href="#m19bcb502df" y="77.76"/>
      </g>
     </g>
    </g>
   </g>
   <g id="line2d_15">
    <path clip-path="url(#pfa8a0ce1bd)" d="M 10.86031 89.529131 
L 11.79031 87.202545 
L 12.72031 85.811751 
L 13.65031 84.771859 
L 14.58031 84.01302 
L 15.51031 83.584069 
L 16.44031 83.173267 
L 17.37031 82.962381 
L 18.30031 82.780673 
L 19.23031 82.606916 
L 20.16031 82.541987 
L 21.09031 82.410652 
L 22.02031 82.301221 
L 22.95031 82.128897 
L 23.88031 82.075814 
L 24.81031 81.962623 
L 25.74031 81.888737 
L 26.67031 81.810861 
L 27.60031 81.740465 
L 28.53031 81.675568 
L 29.46031 81.655959 
L 30.39031 81.611282 
L 31.32031 81.538784 
L 32.25031 81.519055 
L 33.18031 81.49406 
L 34.11031 81.434716 
L 35.04031 81.418555 
L 35.97031 81.368938 
L 36.90031 81.314395 
L 37.83031 81.281544 
L 38.76031 81.267953 
L 39.69031 81.257755 
L 40.62031 81.236449 
L 41.55031 81.212381 
L 42.48031 81.194744 
L 43.41031 81.190263 
L 44.34031 81.193927 
L 45.27031 81.199101 
L 46.20031 81.201126 
L 47.13031 81.198738 
L 48.06031 81.197033 
L 48.99031 81.191057 
L 49.92031 81.187448 
L 50.85031 81.183504 
L 51.78031 81.166567 
L 52.71031 81.161621 
L 53.64031 81.158149 
L 54.57031 81.158325 
L 55.50031 81.142087 
L 56.43031 81.122426 
L 57.36031 81.109721 
L 58.29031 81.107152 
L 59.22031 81.085264 
L 60.15031 81.08118 
L 61.08031 81.077979 
L 62.01031 81.058828 
L 62.94031 81.054517 
L 63.87031 81.056786 
" style="fill:none;stroke:#fc8d62;stroke-linecap:square;stroke-width:2;"/>
   </g>
   <g id="line2d_16">
    <path clip-path="url(#pfa8a0ce1bd)" d="M 10.86031 98.799609 
L 11.79031 95.955225 
L 12.72031 94.785038 
L 13.65031 94.289116 
L 14.58031 93.764386 
L 15.51031 93.347775 
L 16.44031 92.63656 
L 17.37031 92.152233 
L 18.30031 91.986822 
L 19.23031 91.708106 
L 20.16031 91.444229 
L 21.09031 91.376653 
L 22.02031 91.395745 
L 22.95031 91.348361 
L 23.88031 91.30986 
L 24.81031 91.255486 
L 25.74031 91.185782 
L 26.67031 91.1222 
L 27.60031 91.119893 
L 28.53031 91.090765 
L 29.46031 91.091035 
L 30.39031 90.951341 
L 31.32031 90.950061 
L 32.25031 90.814073 
L 33.18031 90.778373 
L 34.11031 90.748054 
L 35.04031 90.752429 
L 35.97031 90.721579 
L 36.90031 90.707537 
L 37.83031 90.634819 
L 38.76031 90.625721 
L 39.69031 90.566587 
L 40.62031 90.556957 
L 41.55031 90.55027 
L 42.48031 90.564403 
L 43.41031 90.539714 
L 44.34031 90.534856 
L 45.27031 90.518966 
L 46.20031 90.537759 
L 47.13031 90.519813 
L 48.06031 90.496936 
L 48.99031 90.491436 
L 49.92031 90.486168 
L 50.85031 90.4711 
L 51.78031 90.45641 
L 52.71031 90.437719 
L 53.64031 90.418515 
L 54.57031 90.364107 
L 55.50031 90.35554 
L 56.43031 90.340621 
L 57.36031 90.330859 
L 58.29031 90.314082 
L 59.22031 90.294819 
L 60.15031 90.308918 
L 61.08031 90.285323 
L 62.01031 90.240469 
L 62.94031 90.224715 
L 63.87031 90.218401 
" style="fill:none;stroke:#fc8d62;stroke-dasharray:1.5,1.5;stroke-dashoffset:0;stroke-opacity:0.7;stroke-width:1.5;"/>
   </g>
   <g id="patch_8">
    <path d="M 9 128.16 
L 9 77.76 
" style="fill:none;stroke:#a9a9a9;stroke-linecap:square;stroke-linejoin:miter;stroke-width:2;"/>
   </g>
   <g id="patch_9">
    <path d="M 64.8 128.16 
L 64.8 77.76 
" style="fill:none;"/>
   </g>
   <g id="patch_10">
    <path d="M 9 128.16 
L 64.8 128.16 
" style="fill:none;stroke:#a9a9a9;stroke-linecap:square;stroke-linejoin:miter;stroke-width:2;"/>
   </g>
   <g id="patch_11">
    <path d="M 9 77.76 
L 64.8 77.76 
" style="fill:none;"/>
   </g>
  </g>
 </g>
 <defs>
  <clipPath id="pee2d103846">
   <rect height="50.4" width="55.8" x="9" y="17.28"/>
  </clipPath>
  <clipPath id="pfa8a0ce1bd">
   <rect height="50.4" width="55.8" x="9" y="77.76"/>
  </clipPath>
 </defs>
</svg>
