<?xml version="1.0" encoding="utf-8" standalone="no"?>
<!DOCTYPE svg PUBLIC "-//W3C//DTD SVG 1.1//EN"
  "http://www.w3.org/Graphics/SVG/1.1/DTD/svg11.dtd">
<!-- Created with matplotlib (https://matplotlib.org/) -->
<svg height="144pt" version="1.1" viewBox="0 0 72 144" width="72pt" xmlns="http://www.w3.org/2000/svg" xmlns:xlink="http://www.w3.org/1999/xlink">
 <metadata>
  <rdf:RDF xmlns:cc="http://creativecommons.org/ns#" xmlns:dc="http://purl.org/dc/elements/1.1/" xmlns:rdf="http://www.w3.org/1999/02/22-rdf-syntax-ns#">
   <cc:Work>
    <dc:type rdf:resource="http://purl.org/dc/dcmitype/StillImage"/>
    <dc:date>2021-10-13T14:26:14.318027</dc:date>
    <dc:format>image/svg+xml</dc:format>
    <dc:creator>
     <cc:Agent>
      <dc:title>Matplotlib v3.3.2, https://matplotlib.org/</dc:title>
     </cc:Agent>
    </dc:creator>
   </cc:Work>
  </rdf:RDF>
 </metadata>
 <defs>
  <style type="text/css">*{stroke-linecap:butt;stroke-linejoin:round;}</style>
 </defs>
 <g id="figure_1">
  <g id="patch_1">
   <path d="M 0 144 
L 72 144 
L 72 0 
L 0 0 
z
" style="fill:none;"/>
  </g>
  <g id="axes_1">
   <g id="patch_2">
    <path d="M 9 67.68 
L 64.8 67.68 
L 64.8 17.28 
L 9 17.28 
z
" style="fill:none;"/>
   </g>
   <g id="matplotlib.axis_1">
    <g id="xtick_1">
     <g id="line2d_1">
      <defs>
       <path d="M 0 0 
L 0 3.5 
" id="m6c6ef502db" style="stroke:#a9a9a9;stroke-width:2;"/>
      </defs>
      <g>
       <use style="fill:#a9a9a9;stroke:#a9a9a9;stroke-width:2;" x="9" xlink:href="#m6c6ef502db" y="67.68"/>
      </g>
     </g>
    </g>
    <g id="xtick_2">
     <g id="line2d_2">
      <g>
       <use style="fill:#a9a9a9;stroke:#a9a9a9;stroke-width:2;" x="36.9" xlink:href="#m6c6ef502db" y="67.68"/>
      </g>
     </g>
    </g>
    <g id="xtick_3">
     <g id="line2d_3">
      <g>
       <use style="fill:#a9a9a9;stroke:#a9a9a9;stroke-width:2;" x="64.8" xlink:href="#m6c6ef502db" y="67.68"/>
      </g>
     </g>
    </g>
   </g>
   <g id="matplotlib.axis_2">
    <g id="ytick_1">
     <g id="line2d_4">
      <defs>
       <path d="M 0 0 
L -3.5 0 
" id="m3ba63ba56e" style="stroke:#a9a9a9;stroke-width:2;"/>
      </defs>
      <g>
       <use style="fill:#a9a9a9;stroke:#a9a9a9;stroke-width:2;" x="9" xlink:href="#m3ba63ba56e" y="67.68"/>
      </g>
     </g>
    </g>
    <g id="ytick_2">
     <g id="line2d_5">
      <g>
       <use style="fill:#a9a9a9;stroke:#a9a9a9;stroke-width:2;" x="9" xlink:href="#m3ba63ba56e" y="60.181756"/>
      </g>
     </g>
    </g>
    <g id="ytick_3">
     <g id="line2d_6">
      <g>
       <use style="fill:#a9a9a9;stroke:#a9a9a9;stroke-width:2;" x="9" xlink:href="#m3ba63ba56e" y="52.683513"/>
      </g>
     </g>
    </g>
   </g>
   <g id="line2d_7">
    <path clip-path="url(#pb3262a9fb1)" d="M 10.86031 58.962707 
L 11.79031 57.243226 
L 12.72031 55.218088 
L 13.65031 54.413143 
L 14.58031 52.717948 
L 15.51031 50.440156 
L 16.44031 48.676587 
L 17.37031 48.118289 
L 18.30031 46.46223 
L 19.23031 45.364531 
L 20.16031 44.288373 
L 21.09031 43.403285 
L 22.02031 43.222755 
L 22.95031 42.432963 
L 23.88031 41.547882 
L 24.81031 41.418712 
L 25.74031 41.661143 
L 26.67031 41.024228 
L 27.60031 40.140217 
L 28.53031 39.216561 
L 29.46031 38.550928 
L 30.39031 37.492867 
L 31.32031 36.880899 
L 32.25031 36.301937 
L 33.18031 35.604161 
L 34.11031 35.050791 
L 35.04031 34.120736 
L 35.97031 33.334158 
L 36.90031 32.747157 
L 37.83031 32.314355 
L 38.76031 31.630356 
L 39.69031 31.355613 
L 40.62031 30.463727 
L 41.55031 29.787535 
L 42.48031 29.196748 
L 43.41031 28.827304 
L 44.34031 28.717916 
L 45.27031 28.22506 
L 46.20031 27.91286 
L 47.13031 26.976158 
L 48.06031 26.072217 
L 48.99031 25.939796 
L 49.92031 25.737231 
L 50.85031 25.525687 
L 51.78031 24.347788 
L 52.71031 23.485522 
L 53.64031 22.907813 
L 54.57031 22.210568 
L 55.50031 21.823819 
L 56.43031 21.207073 
L 57.36031 20.883444 
L 58.29031 20.366235 
L 59.22031 20.450017 
L 60.15031 19.844082 
L 61.08031 19.495795 
L 62.01031 18.427722 
L 62.94031 18.362242 
L 63.87031 17.654912 
" style="fill:none;stroke:#fc8d62;stroke-linecap:square;stroke-width:2;"/>
   </g>
   <g id="line2d_8">
    <path clip-path="url(#pb3262a9fb1)" d="M 10.86031 60.011179 
L 11.79031 58.196275 
L 12.72031 56.561792 
L 13.65031 55.082645 
L 14.58031 54.052544 
L 15.51031 52.987884 
L 16.44031 52.238838 
L 17.37031 51.207208 
L 18.30031 50.062417 
L 19.23031 49.031938 
L 20.16031 48.246124 
L 21.09031 47.44286 
L 22.02031 46.576039 
L 22.95031 46.063792 
L 23.88031 45.363208 
L 24.81031 44.345676 
L 25.74031 44.00552 
L 26.67031 43.316789 
L 27.60031 42.873002 
L 28.53031 41.928271 
L 29.46031 41.022209 
L 30.39031 40.52999 
L 31.32031 39.137978 
L 32.25031 39.092306 
L 33.18031 38.58837 
L 34.11031 37.799643 
L 35.04031 37.941781 
L 35.97031 37.084578 
L 36.90031 36.051229 
L 37.83031 35.81211 
L 38.76031 35.343187 
L 39.69031 34.779839 
L 40.62031 33.681756 
L 41.55031 33.089379 
L 42.48031 32.598691 
L 43.41031 31.772713 
L 44.34031 31.358688 
L 45.27031 30.703387 
L 46.20031 30.263771 
L 47.13031 29.630402 
L 48.06031 29.415961 
L 48.99031 29.254147 
L 49.92031 28.588142 
L 50.85031 29.159133 
L 51.78031 27.803094 
L 52.71031 27.23619 
L 53.64031 27.047096 
L 54.57031 26.170711 
L 55.50031 26.118635 
L 56.43031 26.234411 
L 57.36031 25.464808 
L 58.29031 24.623152 
L 59.22031 24.400877 
L 60.15031 24.04786 
L 61.08031 24.239148 
L 62.01031 23.879362 
L 62.94031 23.801546 
L 63.87031 23.927621 
" style="fill:none;stroke:#fc8d62;stroke-dasharray:1.5,1.5;stroke-dashoffset:0;stroke-opacity:0.7;stroke-width:1.5;"/>
   </g>
   <g id="patch_3">
    <path d="M 9 67.68 
L 9 17.28 
" style="fill:none;stroke:#a9a9a9;stroke-linecap:square;stroke-linejoin:miter;stroke-width:2;"/>
   </g>
   <g id="patch_4">
    <path d="M 64.8 67.68 
L 64.8 17.28 
" style="fill:none;"/>
   </g>
   <g id="patch_5">
    <path d="M 9 67.68 
L 64.8 67.68 
" style="fill:none;stroke:#a9a9a9;stroke-linecap:square;stroke-linejoin:miter;stroke-width:2;"/>
   </g>
   <g id="patch_6">
    <path d="M 9 17.28 
L 64.8 17.28 
" style="fill:none;"/>
   </g>
  </g>
  <g id="axes_2">
   <g id="patch_7">
    <path d="M 9 128.16 
L 64.8 128.16 
L 64.8 77.76 
L 9 77.76 
z
" style="fill:none;"/>
   </g>
   <g id="matplotlib.axis_3">
    <g id="xtick_4">
     <g id="line2d_9">
      <g>
       <use style="fill:#a9a9a9;stroke:#a9a9a9;stroke-width:2;" x="9" xlink:href="#m6c6ef502db" y="128.16"/>
      </g>
     </g>
    </g>
    <g id="xtick_5">
     <g id="line2d_10">
      <g>
       <use style="fill:#a9a9a9;stroke:#a9a9a9;stroke-width:2;" x="36.9" xlink:href="#m6c6ef502db" y="128.16"/>
      </g>
     </g>
    </g>
    <g id="xtick_6">
     <g id="line2d_11">
      <g>
       <use style="fill:#a9a9a9;stroke:#a9a9a9;stroke-width:2;" x="64.8" xlink:href="#m6c6ef502db" y="128.16"/>
      </g>
     </g>
    </g>
   </g>
   <g id="matplotlib.axis_4">
    <g id="ytick_4">
     <g id="line2d_12">
      <g>
       <use style="fill:#a9a9a9;stroke:#a9a9a9;stroke-width:2;" x="9" xlink:href="#m3ba63ba56e" y="128.16"/>
      </g>
     </g>
    </g>
    <g id="ytick_5">
     <g id="line2d_13">
      <g>
       <use style="fill:#a9a9a9;stroke:#a9a9a9;stroke-width:2;" x="9" xlink:href="#m3ba63ba56e" y="102.96"/>
      </g>
     </g>
    </g>
    <g id="ytick_6">
     <g id="line2d_14">
      <g>
       <use style="fill:#a9a9a9;stroke:#a9a9a9;stroke-width:2;" x="9" xlink:href="#m3ba63ba56e" y="77.76"/>
      </g>
     </g>
    </g>
   </g>
   <g id="line2d_15">
    <path clip-path="url(#pd4d1ad88d6)" d="M 10.86031 91.559022 
L 11.79031 89.279514 
L 12.72031 87.778112 
L 13.65031 87.101259 
L 14.58031 86.288317 
L 15.51031 85.571199 
L 16.44031 85.269424 
L 17.37031 85.111925 
L 18.30031 85.00104 
L 19.23031 84.80086 
L 20.16031 84.790763 
L 21.09031 84.721367 
L 22.02031 84.624344 
L 22.95031 84.590272 
L 23.88031 84.523155 
L 24.81031 84.497502 
L 25.74031 84.412293 
L 26.67031 84.347746 
L 27.60031 84.331725 
L 28.53031 84.268859 
L 29.46031 84.22402 
L 30.39031 84.174071 
L 31.32031 84.141427 
L 32.25031 84.121197 
L 33.18031 84.112752 
L 34.11031 84.035437 
L 35.04031 83.99366 
L 35.97031 83.962911 
L 36.90031 83.938793 
L 37.83031 83.885186 
L 38.76031 83.864268 
L 39.69031 83.854797 
L 40.62031 83.807562 
L 41.55031 83.796406 
L 42.48031 83.792989 
L 43.41031 83.775284 
L 44.34031 83.768169 
L 45.27031 83.734003 
L 46.20031 83.702019 
L 47.13031 83.699327 
L 48.06031 83.69354 
L 48.99031 83.697608 
L 49.92031 83.698476 
L 50.85031 83.71025 
L 51.78031 83.68489 
L 52.71031 83.669815 
L 53.64031 83.638636 
L 54.57031 83.601968 
L 55.50031 83.599451 
L 56.43031 83.573201 
L 57.36031 83.553737 
L 58.29031 83.530476 
L 59.22031 83.525076 
L 60.15031 83.507927 
L 61.08031 83.507568 
L 62.01031 83.474206 
L 62.94031 83.483959 
L 63.87031 83.473568 
" style="fill:none;stroke:#fc8d62;stroke-linecap:square;stroke-width:2;"/>
   </g>
   <g id="line2d_16">
    <path clip-path="url(#pd4d1ad88d6)" d="M 10.86031 99.172639 
L 11.79031 97.479437 
L 12.72031 95.533925 
L 13.65031 94.639934 
L 14.58031 94.258018 
L 15.51031 93.750727 
L 16.44031 93.575127 
L 17.37031 93.301515 
L 18.30031 92.986743 
L 19.23031 92.864358 
L 20.16031 92.800951 
L 21.09031 92.596906 
L 22.02031 92.327427 
L 22.95031 92.292437 
L 23.88031 92.193821 
L 24.81031 92.053177 
L 25.74031 92.08011 
L 26.67031 91.963209 
L 27.60031 91.9386 
L 28.53031 91.835925 
L 29.46031 91.842953 
L 30.39031 91.809843 
L 31.32031 91.735317 
L 32.25031 91.737013 
L 33.18031 91.750821 
L 34.11031 91.771732 
L 35.04031 91.756175 
L 35.97031 91.699585 
L 36.90031 91.685909 
L 37.83031 91.69411 
L 38.76031 91.630413 
L 39.69031 91.588411 
L 40.62031 91.588677 
L 41.55031 91.574808 
L 42.48031 91.600764 
L 43.41031 91.602831 
L 44.34031 91.646055 
L 45.27031 91.587107 
L 46.20031 91.58003 
L 47.13031 91.53197 
L 48.06031 91.524543 
L 48.99031 91.51357 
L 49.92031 91.496008 
L 50.85031 91.497119 
L 51.78031 91.469278 
L 52.71031 91.454398 
L 53.64031 91.468671 
L 54.57031 91.425181 
L 55.50031 91.389736 
L 56.43031 91.423587 
L 57.36031 91.396641 
L 58.29031 91.355776 
L 59.22031 91.361641 
L 60.15031 91.338144 
L 61.08031 91.334791 
L 62.01031 91.340879 
L 62.94031 91.323087 
L 63.87031 91.319117 
" style="fill:none;stroke:#fc8d62;stroke-dasharray:1.5,1.5;stroke-dashoffset:0;stroke-opacity:0.7;stroke-width:1.5;"/>
   </g>
   <g id="patch_8">
    <path d="M 9 128.16 
L 9 77.76 
" style="fill:none;stroke:#a9a9a9;stroke-linecap:square;stroke-linejoin:miter;stroke-width:2;"/>
   </g>
   <g id="patch_9">
    <path d="M 64.8 128.16 
L 64.8 77.76 
" style="fill:none;"/>
   </g>
   <g id="patch_10">
    <path d="M 9 128.16 
L 64.8 128.16 
" style="fill:none;stroke:#a9a9a9;stroke-linecap:square;stroke-linejoin:miter;stroke-width:2;"/>
   </g>
   <g id="patch_11">
    <path d="M 9 77.76 
L 64.8 77.76 
" style="fill:none;"/>
   </g>
  </g>
 </g>
 <defs>
  <clipPath id="pb3262a9fb1">
   <rect height="50.4" width="55.8" x="9" y="17.28"/>
  </clipPath>
  <clipPath id="pd4d1ad88d6">
   <rect height="50.4" width="55.8" x="9" y="77.76"/>
  </clipPath>
 </defs>
</svg>
