<?xml version="1.0" encoding="utf-8" standalone="no"?>
<!DOCTYPE svg PUBLIC "-//W3C//DTD SVG 1.1//EN"
  "http://www.w3.org/Graphics/SVG/1.1/DTD/svg11.dtd">
<!-- Created with matplotlib (https://matplotlib.org/) -->
<svg height="144pt" version="1.1" viewBox="0 0 72 144" width="72pt" xmlns="http://www.w3.org/2000/svg" xmlns:xlink="http://www.w3.org/1999/xlink">
 <metadata>
  <rdf:RDF xmlns:cc="http://creativecommons.org/ns#" xmlns:dc="http://purl.org/dc/elements/1.1/" xmlns:rdf="http://www.w3.org/1999/02/22-rdf-syntax-ns#">
   <cc:Work>
    <dc:type rdf:resource="http://purl.org/dc/dcmitype/StillImage"/>
    <dc:date>2021-10-13T15:56:48.219518</dc:date>
    <dc:format>image/svg+xml</dc:format>
    <dc:creator>
     <cc:Agent>
      <dc:title>Matplotlib v3.3.2, https://matplotlib.org/</dc:title>
     </cc:Agent>
    </dc:creator>
   </cc:Work>
  </rdf:RDF>
 </metadata>
 <defs>
  <style type="text/css">*{stroke-linecap:butt;stroke-linejoin:round;}</style>
 </defs>
 <g id="figure_1">
  <g id="patch_1">
   <path d="M 0 144 
L 72 144 
L 72 0 
L 0 0 
z
" style="fill:none;"/>
  </g>
  <g id="axes_1">
   <g id="patch_2">
    <path d="M 9 67.68 
L 64.8 67.68 
L 64.8 17.28 
L 9 17.28 
z
" style="fill:none;"/>
   </g>
   <g id="matplotlib.axis_1">
    <g id="xtick_1">
     <g id="line2d_1">
      <defs>
       <path d="M 0 0 
L 0 3.5 
" id="md6a3978ea4" style="stroke:#a9a9a9;stroke-width:2;"/>
      </defs>
      <g>
       <use style="fill:#a9a9a9;stroke:#a9a9a9;stroke-width:2;" x="9" xlink:href="#md6a3978ea4" y="67.68"/>
      </g>
     </g>
    </g>
    <g id="xtick_2">
     <g id="line2d_2">
      <g>
       <use style="fill:#a9a9a9;stroke:#a9a9a9;stroke-width:2;" x="36.9" xlink:href="#md6a3978ea4" y="67.68"/>
      </g>
     </g>
    </g>
    <g id="xtick_3">
     <g id="line2d_3">
      <g>
       <use style="fill:#a9a9a9;stroke:#a9a9a9;stroke-width:2;" x="64.8" xlink:href="#md6a3978ea4" y="67.68"/>
      </g>
     </g>
    </g>
   </g>
   <g id="matplotlib.axis_2">
    <g id="ytick_1">
     <g id="line2d_4">
      <defs>
       <path d="M 0 0 
L -3.5 0 
" id="mb7f65838cb" style="stroke:#a9a9a9;stroke-width:2;"/>
      </defs>
      <g>
       <use style="fill:#a9a9a9;stroke:#a9a9a9;stroke-width:2;" x="9" xlink:href="#mb7f65838cb" y="67.68"/>
      </g>
     </g>
    </g>
    <g id="ytick_2">
     <g id="line2d_5">
      <g>
       <use style="fill:#a9a9a9;stroke:#a9a9a9;stroke-width:2;" x="9" xlink:href="#mb7f65838cb" y="63.668324"/>
      </g>
     </g>
    </g>
    <g id="ytick_3">
     <g id="line2d_6">
      <g>
       <use style="fill:#a9a9a9;stroke:#a9a9a9;stroke-width:2;" x="9" xlink:href="#mb7f65838cb" y="59.656648"/>
      </g>
     </g>
    </g>
   </g>
   <g id="line2d_7">
    <path clip-path="url(#p67ca6259c7)" d="M 10.86031 59.293647 
L 11.79031 58.015804 
L 12.72031 56.941654 
L 13.65031 55.235014 
L 14.58031 53.723165 
L 15.51031 52.708171 
L 16.44031 51.283773 
L 17.37031 50.343757 
L 18.30031 49.203133 
L 19.23031 47.850355 
L 20.16031 46.580756 
L 21.09031 45.738216 
L 22.02031 45.094232 
L 22.95031 44.885358 
L 23.88031 44.438581 
L 24.81031 43.761316 
L 25.74031 42.428969 
L 26.67031 41.136078 
L 27.60031 39.494488 
L 28.53031 38.554663 
L 29.46031 37.917235 
L 30.39031 37.140436 
L 31.32031 36.106302 
L 32.25031 35.868273 
L 33.18031 34.84188 
L 34.11031 34.093964 
L 35.04031 33.7394 
L 35.97031 33.013749 
L 36.90031 32.795849 
L 37.83031 32.02709 
L 38.76031 31.228686 
L 39.69031 30.785271 
L 40.62031 30.000026 
L 41.55031 28.927351 
L 42.48031 28.938353 
L 43.41031 28.759307 
L 44.34031 28.667579 
L 45.27031 28.437886 
L 46.20031 28.335876 
L 47.13031 28.175858 
L 48.06031 27.705368 
L 48.99031 26.690471 
L 49.92031 25.507829 
L 50.85031 24.580785 
L 51.78031 24.472133 
L 52.71031 23.614918 
L 53.64031 23.016279 
L 54.57031 22.655396 
L 55.50031 21.585151 
L 56.43031 20.913427 
L 57.36031 19.750391 
L 58.29031 19.698036 
L 59.22031 19.294721 
L 60.15031 19.311671 
L 61.08031 18.771368 
L 62.01031 18.509596 
L 62.94031 17.745457 
L 63.87031 17.480584 
" style="fill:none;stroke:#fc8d62;stroke-linecap:square;stroke-width:2;"/>
   </g>
   <g id="line2d_8">
    <path clip-path="url(#p67ca6259c7)" d="M 10.86031 57.783743 
L 11.79031 55.697508 
L 12.72031 54.324981 
L 13.65031 53.163597 
L 14.58031 51.705549 
L 15.51031 50.34707 
L 16.44031 49.285092 
L 17.37031 48.654511 
L 18.30031 47.470081 
L 19.23031 46.174978 
L 20.16031 45.2419 
L 21.09031 44.179251 
L 22.02031 43.048693 
L 22.95031 42.026753 
L 23.88031 41.753671 
L 24.81031 40.54371 
L 25.74031 38.851952 
L 26.67031 36.439495 
L 27.60031 34.818861 
L 28.53031 33.108458 
L 29.46031 31.709821 
L 30.39031 30.839429 
L 31.32031 30.045777 
L 32.25031 29.625679 
L 33.18031 29.638291 
L 34.11031 28.902964 
L 35.04031 27.875282 
L 35.97031 27.322979 
L 36.90031 26.253358 
L 37.83031 25.447485 
L 38.76031 24.777144 
L 39.69031 24.16702 
L 40.62031 23.552869 
L 41.55031 23.214882 
L 42.48031 23.054233 
L 43.41031 22.142778 
L 44.34031 21.432506 
L 45.27031 22.262091 
L 46.20031 21.697057 
L 47.13031 20.762629 
L 48.06031 20.519668 
L 48.99031 18.873982 
L 49.92031 17.393234 
L 50.85031 16.694554 
L 51.78031 15.673305 
L 52.71031 15.154804 
L 53.64031 15.006735 
L 54.57031 14.601076 
L 55.50031 13.869777 
L 56.43031 13.679156 
L 57.36031 13.756704 
L 58.29031 13.644262 
L 59.22031 13.485476 
L 60.15031 12.507878 
L 61.08031 12.019651 
L 62.01031 11.247742 
L 62.94031 10.714437 
L 63.87031 10.483061 
" style="fill:none;stroke:#fc8d62;stroke-dasharray:1.5,1.5;stroke-dashoffset:0;stroke-opacity:0.7;stroke-width:1.5;"/>
   </g>
   <g id="patch_3">
    <path d="M 9 67.68 
L 9 17.28 
" style="fill:none;stroke:#a9a9a9;stroke-linecap:square;stroke-linejoin:miter;stroke-width:2;"/>
   </g>
   <g id="patch_4">
    <path d="M 64.8 67.68 
L 64.8 17.28 
" style="fill:none;"/>
   </g>
   <g id="patch_5">
    <path d="M 9 67.68 
L 64.8 67.68 
" style="fill:none;stroke:#a9a9a9;stroke-linecap:square;stroke-linejoin:miter;stroke-width:2;"/>
   </g>
   <g id="patch_6">
    <path d="M 9 17.28 
L 64.8 17.28 
" style="fill:none;"/>
   </g>
  </g>
  <g id="axes_2">
   <g id="patch_7">
    <path d="M 9 128.16 
L 64.8 128.16 
L 64.8 77.76 
L 9 77.76 
z
" style="fill:none;"/>
   </g>
   <g id="matplotlib.axis_3">
    <g id="xtick_4">
     <g id="line2d_9">
      <g>
       <use style="fill:#a9a9a9;stroke:#a9a9a9;stroke-width:2;" x="9" xlink:href="#md6a3978ea4" y="128.16"/>
      </g>
     </g>
    </g>
    <g id="xtick_5">
     <g id="line2d_10">
      <g>
       <use style="fill:#a9a9a9;stroke:#a9a9a9;stroke-width:2;" x="36.9" xlink:href="#md6a3978ea4" y="128.16"/>
      </g>
     </g>
    </g>
    <g id="xtick_6">
     <g id="line2d_11">
      <g>
       <use style="fill:#a9a9a9;stroke:#a9a9a9;stroke-width:2;" x="64.8" xlink:href="#md6a3978ea4" y="128.16"/>
      </g>
     </g>
    </g>
   </g>
   <g id="matplotlib.axis_4">
    <g id="ytick_4">
     <g id="line2d_12">
      <g>
       <use style="fill:#a9a9a9;stroke:#a9a9a9;stroke-width:2;" x="9" xlink:href="#mb7f65838cb" y="128.16"/>
      </g>
     </g>
    </g>
    <g id="ytick_5">
     <g id="line2d_13">
      <g>
       <use style="fill:#a9a9a9;stroke:#a9a9a9;stroke-width:2;" x="9" xlink:href="#mb7f65838cb" y="102.96"/>
      </g>
     </g>
    </g>
    <g id="ytick_6">
     <g id="line2d_14">
      <g>
       <use style="fill:#a9a9a9;stroke:#a9a9a9;stroke-width:2;" x="9" xlink:href="#mb7f65838cb" y="77.76"/>
      </g>
     </g>
    </g>
   </g>
   <g id="line2d_15">
    <path clip-path="url(#p58ac5e6022)" d="M 10.86031 109.354871 
L 11.79031 109.145682 
L 12.72031 108.741041 
L 13.65031 108.304317 
L 14.58031 108.195792 
L 15.51031 108.058528 
L 16.44031 107.900306 
L 17.37031 107.810834 
L 18.30031 107.799942 
L 19.23031 107.674656 
L 20.16031 107.615873 
L 21.09031 107.615708 
L 22.02031 107.780709 
L 22.95031 107.891696 
L 23.88031 107.898049 
L 24.81031 107.882312 
L 25.74031 107.847667 
L 26.67031 107.822335 
L 27.60031 107.782482 
L 28.53031 107.803634 
L 29.46031 107.803454 
L 30.39031 107.804908 
L 31.32031 107.803348 
L 32.25031 107.768507 
L 33.18031 107.816691 
L 34.11031 107.866556 
L 35.04031 107.878511 
L 35.97031 107.84864 
L 36.90031 107.819295 
L 37.83031 107.774495 
L 38.76031 107.747793 
L 39.69031 107.758312 
L 40.62031 107.792445 
L 41.55031 107.75405 
L 42.48031 107.73949 
L 43.41031 107.719885 
L 44.34031 107.727707 
L 45.27031 107.703689 
L 46.20031 107.688789 
L 47.13031 107.705732 
L 48.06031 107.713049 
L 48.99031 107.711571 
L 49.92031 107.718081 
L 50.85031 107.727128 
L 51.78031 107.691601 
L 52.71031 107.698675 
L 53.64031 107.715435 
L 54.57031 107.727656 
L 55.50031 107.739848 
L 56.43031 107.728048 
L 57.36031 107.735385 
L 58.29031 107.760055 
L 59.22031 107.712624 
L 60.15031 107.711409 
L 61.08031 107.731454 
L 62.01031 107.745924 
L 62.94031 107.720972 
L 63.87031 107.728137 
" style="fill:none;stroke:#fc8d62;stroke-linecap:square;stroke-width:2;"/>
   </g>
   <g id="line2d_16">
    <path clip-path="url(#p58ac5e6022)" d="M 10.86031 95.147022 
L 11.79031 94.215913 
L 12.72031 93.914276 
L 13.65031 93.532791 
L 14.58031 93.416242 
L 15.51031 93.296549 
L 16.44031 93.242475 
L 17.37031 93.169435 
L 18.30031 93.026086 
L 19.23031 92.953479 
L 20.16031 92.938789 
L 21.09031 92.937415 
L 22.02031 92.926579 
L 22.95031 92.866592 
L 23.88031 92.861903 
L 24.81031 92.843495 
L 25.74031 92.855915 
L 26.67031 92.820799 
L 27.60031 92.762485 
L 28.53031 92.738886 
L 29.46031 92.721371 
L 30.39031 92.687033 
L 31.32031 92.688535 
L 32.25031 92.686479 
L 33.18031 92.660322 
L 34.11031 92.647643 
L 35.04031 92.664847 
L 35.97031 92.643026 
L 36.90031 92.628993 
L 37.83031 92.620923 
L 38.76031 92.615783 
L 39.69031 92.616829 
L 40.62031 92.605876 
L 41.55031 92.590453 
L 42.48031 92.593033 
L 43.41031 92.614076 
L 44.34031 92.619743 
L 45.27031 92.601588 
L 46.20031 92.606389 
L 47.13031 92.609579 
L 48.06031 92.593699 
L 48.99031 92.581872 
L 49.92031 92.566863 
L 50.85031 92.586471 
L 51.78031 92.585812 
L 52.71031 92.588297 
L 53.64031 92.585934 
L 54.57031 92.580054 
L 55.50031 92.568389 
L 56.43031 92.551697 
L 57.36031 92.561319 
L 58.29031 92.572696 
L 59.22031 92.570195 
L 60.15031 92.557143 
L 61.08031 92.532081 
L 62.01031 92.523973 
L 62.94031 92.527026 
L 63.87031 92.529035 
" style="fill:none;stroke:#fc8d62;stroke-dasharray:1.5,1.5;stroke-dashoffset:0;stroke-opacity:0.7;stroke-width:1.5;"/>
   </g>
   <g id="patch_8">
    <path d="M 9 128.16 
L 9 77.76 
" style="fill:none;stroke:#a9a9a9;stroke-linecap:square;stroke-linejoin:miter;stroke-width:2;"/>
   </g>
   <g id="patch_9">
    <path d="M 64.8 128.16 
L 64.8 77.76 
" style="fill:none;"/>
   </g>
   <g id="patch_10">
    <path d="M 9 128.16 
L 64.8 128.16 
" style="fill:none;stroke:#a9a9a9;stroke-linecap:square;stroke-linejoin:miter;stroke-width:2;"/>
   </g>
   <g id="patch_11">
    <path d="M 9 77.76 
L 64.8 77.76 
" style="fill:none;"/>
   </g>
  </g>
 </g>
 <defs>
  <clipPath id="p67ca6259c7">
   <rect height="50.4" width="55.8" x="9" y="17.28"/>
  </clipPath>
  <clipPath id="p58ac5e6022">
   <rect height="50.4" width="55.8" x="9" y="77.76"/>
  </clipPath>
 </defs>
</svg>
