<?xml version="1.0" encoding="utf-8" standalone="no"?>
<!DOCTYPE svg PUBLIC "-//W3C//DTD SVG 1.1//EN"
  "http://www.w3.org/Graphics/SVG/1.1/DTD/svg11.dtd">
<!-- Created with matplotlib (https://matplotlib.org/) -->
<svg height="144pt" version="1.1" viewBox="0 0 72 144" width="72pt" xmlns="http://www.w3.org/2000/svg" xmlns:xlink="http://www.w3.org/1999/xlink">
 <metadata>
  <rdf:RDF xmlns:cc="http://creativecommons.org/ns#" xmlns:dc="http://purl.org/dc/elements/1.1/" xmlns:rdf="http://www.w3.org/1999/02/22-rdf-syntax-ns#">
   <cc:Work>
    <dc:type rdf:resource="http://purl.org/dc/dcmitype/StillImage"/>
    <dc:date>2021-10-13T15:36:48.887734</dc:date>
    <dc:format>image/svg+xml</dc:format>
    <dc:creator>
     <cc:Agent>
      <dc:title>Matplotlib v3.3.2, https://matplotlib.org/</dc:title>
     </cc:Agent>
    </dc:creator>
   </cc:Work>
  </rdf:RDF>
 </metadata>
 <defs>
  <style type="text/css">*{stroke-linecap:butt;stroke-linejoin:round;}</style>
 </defs>
 <g id="figure_1">
  <g id="patch_1">
   <path d="M 0 144 
L 72 144 
L 72 0 
L 0 0 
z
" style="fill:none;"/>
  </g>
  <g id="axes_1">
   <g id="patch_2">
    <path d="M 9 67.68 
L 64.8 67.68 
L 64.8 17.28 
L 9 17.28 
z
" style="fill:none;"/>
   </g>
   <g id="matplotlib.axis_1">
    <g id="xtick_1">
     <g id="line2d_1">
      <defs>
       <path d="M 0 0 
L 0 3.5 
" id="mca7fb5f9fb" style="stroke:#a9a9a9;stroke-width:2;"/>
      </defs>
      <g>
       <use style="fill:#a9a9a9;stroke:#a9a9a9;stroke-width:2;" x="9" xlink:href="#mca7fb5f9fb" y="67.68"/>
      </g>
     </g>
    </g>
    <g id="xtick_2">
     <g id="line2d_2">
      <g>
       <use style="fill:#a9a9a9;stroke:#a9a9a9;stroke-width:2;" x="36.9" xlink:href="#mca7fb5f9fb" y="67.68"/>
      </g>
     </g>
    </g>
    <g id="xtick_3">
     <g id="line2d_3">
      <g>
       <use style="fill:#a9a9a9;stroke:#a9a9a9;stroke-width:2;" x="64.8" xlink:href="#mca7fb5f9fb" y="67.68"/>
      </g>
     </g>
    </g>
   </g>
   <g id="matplotlib.axis_2">
    <g id="ytick_1">
     <g id="line2d_4">
      <defs>
       <path d="M 0 0 
L -3.5 0 
" id="m0fd3638cc4" style="stroke:#a9a9a9;stroke-width:2;"/>
      </defs>
      <g>
       <use style="fill:#a9a9a9;stroke:#a9a9a9;stroke-width:2;" x="9" xlink:href="#m0fd3638cc4" y="67.68"/>
      </g>
     </g>
    </g>
    <g id="ytick_2">
     <g id="line2d_5">
      <g>
       <use style="fill:#a9a9a9;stroke:#a9a9a9;stroke-width:2;" x="9" xlink:href="#m0fd3638cc4" y="42.48"/>
      </g>
     </g>
    </g>
    <g id="ytick_3">
     <g id="line2d_6">
      <g>
       <use style="fill:#a9a9a9;stroke:#a9a9a9;stroke-width:2;" x="9" xlink:href="#m0fd3638cc4" y="17.28"/>
      </g>
     </g>
    </g>
   </g>
   <g id="line2d_7">
    <path clip-path="url(#p64fa8fa548)" d="M 10.86031 59.029086 
L 11.79031 57.532311 
L 12.72031 57.186942 
L 13.65031 56.493537 
L 14.58031 55.749354 
L 15.51031 54.292914 
L 16.44031 53.417585 
L 17.37031 52.601434 
L 18.30031 51.950358 
L 19.23031 50.999825 
L 20.16031 50.702696 
L 21.09031 49.547852 
L 22.02031 48.698208 
L 22.95031 48.368012 
L 23.88031 47.843038 
L 24.81031 46.340623 
L 25.74031 46.027652 
L 26.67031 46.292603 
L 27.60031 45.760577 
L 28.53031 45.344714 
L 29.46031 44.059957 
L 30.39031 43.51433 
L 31.32031 42.42091 
L 32.25031 42.016535 
L 33.18031 41.471901 
L 34.11031 41.228496 
L 35.04031 40.907642 
L 35.97031 41.18117 
L 36.90031 40.863588 
L 37.83031 39.338677 
L 38.76031 38.459881 
L 39.69031 38.246364 
L 40.62031 38.16197 
L 41.55031 37.182006 
L 42.48031 36.814851 
L 43.41031 35.96173 
L 44.34031 35.504508 
L 45.27031 34.866948 
L 46.20031 33.969101 
L 47.13031 34.007458 
L 48.06031 33.66073 
L 48.99031 33.849674 
L 49.92031 33.188835 
L 50.85031 33.645412 
L 51.78031 32.967357 
L 52.71031 32.424032 
L 53.64031 32.367657 
L 54.57031 32.436153 
L 55.50031 32.345049 
L 56.43031 31.969004 
L 57.36031 31.495256 
L 58.29031 30.897053 
L 59.22031 30.566737 
L 60.15031 30.602737 
L 61.08031 30.007023 
L 62.01031 29.950925 
L 62.94031 29.665854 
L 63.87031 29.113487 
" style="fill:none;stroke:#fc8d62;stroke-linecap:square;stroke-width:2;"/>
   </g>
   <g id="line2d_8">
    <path clip-path="url(#p64fa8fa548)" d="M 10.86031 62.917396 
L 11.79031 61.286124 
L 12.72031 59.862609 
L 13.65031 59.386163 
L 14.58031 58.411203 
L 15.51031 58.200941 
L 16.44031 57.139203 
L 17.37031 56.366048 
L 18.30031 56.402786 
L 19.23031 56.259456 
L 20.16031 56.53042 
L 21.09031 56.132535 
L 22.02031 56.113693 
L 22.95031 55.502515 
L 23.88031 54.461851 
L 24.81031 54.310331 
L 25.74031 54.024825 
L 26.67031 53.464108 
L 27.60031 53.517252 
L 28.53031 52.92812 
L 29.46031 53.008345 
L 30.39031 53.167186 
L 31.32031 52.613144 
L 32.25031 52.729753 
L 33.18031 52.836112 
L 34.11031 52.32357 
L 35.04031 52.102048 
L 35.97031 51.128029 
L 36.90031 51.301023 
L 37.83031 50.965131 
L 38.76031 50.971431 
L 39.69031 50.587 
L 40.62031 50.05869 
L 41.55031 49.741462 
L 42.48031 49.841928 
L 43.41031 49.356597 
L 44.34031 49.337285 
L 45.27031 49.177168 
L 46.20031 48.817793 
L 47.13031 48.739242 
L 48.06031 48.439342 
L 48.99031 47.904712 
L 49.92031 48.068503 
L 50.85031 47.795823 
L 51.78031 47.593094 
L 52.71031 47.632094 
L 53.64031 47.235532 
L 54.57031 47.177026 
L 55.50031 47.253646 
L 56.43031 47.054306 
L 57.36031 46.432143 
L 58.29031 45.5921 
L 59.22031 45.379323 
L 60.15031 45.328583 
L 61.08031 45.043024 
L 62.01031 44.900439 
L 62.94031 44.679711 
L 63.87031 44.267931 
" style="fill:none;stroke:#fc8d62;stroke-dasharray:1.5,1.5;stroke-dashoffset:0;stroke-opacity:0.7;stroke-width:1.5;"/>
   </g>
   <g id="patch_3">
    <path d="M 9 67.68 
L 9 17.28 
" style="fill:none;stroke:#a9a9a9;stroke-linecap:square;stroke-linejoin:miter;stroke-width:2;"/>
   </g>
   <g id="patch_4">
    <path d="M 64.8 67.68 
L 64.8 17.28 
" style="fill:none;"/>
   </g>
   <g id="patch_5">
    <path d="M 9 67.68 
L 64.8 67.68 
" style="fill:none;stroke:#a9a9a9;stroke-linecap:square;stroke-linejoin:miter;stroke-width:2;"/>
   </g>
   <g id="patch_6">
    <path d="M 9 17.28 
L 64.8 17.28 
" style="fill:none;"/>
   </g>
  </g>
  <g id="axes_2">
   <g id="patch_7">
    <path d="M 9 128.16 
L 64.8 128.16 
L 64.8 77.76 
L 9 77.76 
z
" style="fill:none;"/>
   </g>
   <g id="matplotlib.axis_3">
    <g id="xtick_4">
     <g id="line2d_9">
      <g>
       <use style="fill:#a9a9a9;stroke:#a9a9a9;stroke-width:2;" x="9" xlink:href="#mca7fb5f9fb" y="128.16"/>
      </g>
     </g>
    </g>
    <g id="xtick_5">
     <g id="line2d_10">
      <g>
       <use style="fill:#a9a9a9;stroke:#a9a9a9;stroke-width:2;" x="36.9" xlink:href="#mca7fb5f9fb" y="128.16"/>
      </g>
     </g>
    </g>
    <g id="xtick_6">
     <g id="line2d_11">
      <g>
       <use style="fill:#a9a9a9;stroke:#a9a9a9;stroke-width:2;" x="64.8" xlink:href="#mca7fb5f9fb" y="128.16"/>
      </g>
     </g>
    </g>
   </g>
   <g id="matplotlib.axis_4">
    <g id="ytick_4">
     <g id="line2d_12">
      <g>
       <use style="fill:#a9a9a9;stroke:#a9a9a9;stroke-width:2;" x="9" xlink:href="#m0fd3638cc4" y="128.16"/>
      </g>
     </g>
    </g>
    <g id="ytick_5">
     <g id="line2d_13">
      <g>
       <use style="fill:#a9a9a9;stroke:#a9a9a9;stroke-width:2;" x="9" xlink:href="#m0fd3638cc4" y="102.96"/>
      </g>
     </g>
    </g>
    <g id="ytick_6">
     <g id="line2d_14">
      <g>
       <use style="fill:#a9a9a9;stroke:#a9a9a9;stroke-width:2;" x="9" xlink:href="#m0fd3638cc4" y="77.76"/>
      </g>
     </g>
    </g>
   </g>
   <g id="line2d_15">
    <path clip-path="url(#pa8d0057f04)" d="M 10.86031 119.118836 
L 11.79031 116.311764 
L 12.72031 114.625159 
L 13.65031 112.902724 
L 14.58031 110.640276 
L 15.51031 108.596057 
L 16.44031 107.376503 
L 17.37031 106.266094 
L 18.30031 105.422394 
L 19.23031 104.020434 
L 20.16031 103.339314 
L 21.09031 102.33757 
L 22.02031 101.791754 
L 22.95031 101.126415 
L 23.88031 100.278025 
L 24.81031 99.13175 
L 25.74031 98.604029 
L 26.67031 98.315366 
L 27.60031 97.857027 
L 28.53031 97.596934 
L 29.46031 97.003319 
L 30.39031 96.475206 
L 31.32031 95.837704 
L 32.25031 95.267472 
L 33.18031 94.827329 
L 34.11031 94.64389 
L 35.04031 94.399668 
L 35.97031 94.227837 
L 36.90031 94.008656 
L 37.83031 93.674037 
L 38.76031 93.251731 
L 39.69031 93.030962 
L 40.62031 92.700364 
L 41.55031 92.381506 
L 42.48031 92.194721 
L 43.41031 92.01313 
L 44.34031 91.649745 
L 45.27031 91.22719 
L 46.20031 90.870047 
L 47.13031 90.741915 
L 48.06031 90.6343 
L 48.99031 90.479025 
L 49.92031 90.272253 
L 50.85031 90.265336 
L 51.78031 90.050899 
L 52.71031 89.919224 
L 53.64031 89.904327 
L 54.57031 89.782843 
L 55.50031 89.739217 
L 56.43031 89.59225 
L 57.36031 89.399546 
L 58.29031 89.212512 
L 59.22031 89.145549 
L 60.15031 89.116476 
L 61.08031 89.023181 
L 62.01031 88.8857 
L 62.94031 88.74138 
L 63.87031 88.674185 
" style="fill:none;stroke:#fc8d62;stroke-linecap:square;stroke-width:2;"/>
   </g>
   <g id="line2d_16">
    <path clip-path="url(#pa8d0057f04)" d="M 10.86031 125.057159 
L 11.79031 123.681028 
L 12.72031 122.8528 
L 13.65031 122.234027 
L 14.58031 121.328299 
L 15.51031 120.567789 
L 16.44031 119.653734 
L 17.37031 118.419263 
L 18.30031 117.571434 
L 19.23031 116.596944 
L 20.16031 115.829196 
L 21.09031 114.762432 
L 22.02031 114.392089 
L 22.95031 113.356957 
L 23.88031 112.665798 
L 24.81031 112.24518 
L 25.74031 111.82211 
L 26.67031 111.543491 
L 27.60031 111.174128 
L 28.53031 110.751392 
L 29.46031 110.13063 
L 30.39031 109.997997 
L 31.32031 109.350715 
L 32.25031 109.183856 
L 33.18031 109.014855 
L 34.11031 108.541945 
L 35.04031 108.204466 
L 35.97031 107.884168 
L 36.90031 107.665657 
L 37.83031 107.414751 
L 38.76031 107.053757 
L 39.69031 106.823486 
L 40.62031 106.731546 
L 41.55031 106.21878 
L 42.48031 106.075932 
L 43.41031 106.036449 
L 44.34031 105.929517 
L 45.27031 105.77065 
L 46.20031 105.810146 
L 47.13031 105.400934 
L 48.06031 105.152681 
L 48.99031 104.827463 
L 49.92031 104.763381 
L 50.85031 104.493171 
L 51.78031 104.300327 
L 52.71031 104.25813 
L 53.64031 104.237989 
L 54.57031 104.268156 
L 55.50031 103.986433 
L 56.43031 103.947202 
L 57.36031 103.70172 
L 58.29031 103.296107 
L 59.22031 103.124715 
L 60.15031 103.044767 
L 61.08031 102.905073 
L 62.01031 102.726638 
L 62.94031 102.324757 
L 63.87031 102.10677 
" style="fill:none;stroke:#fc8d62;stroke-dasharray:1.5,1.5;stroke-dashoffset:0;stroke-opacity:0.7;stroke-width:1.5;"/>
   </g>
   <g id="patch_8">
    <path d="M 9 128.16 
L 9 77.76 
" style="fill:none;stroke:#a9a9a9;stroke-linecap:square;stroke-linejoin:miter;stroke-width:2;"/>
   </g>
   <g id="patch_9">
    <path d="M 64.8 128.16 
L 64.8 77.76 
" style="fill:none;"/>
   </g>
   <g id="patch_10">
    <path d="M 9 128.16 
L 64.8 128.16 
" style="fill:none;stroke:#a9a9a9;stroke-linecap:square;stroke-linejoin:miter;stroke-width:2;"/>
   </g>
   <g id="patch_11">
    <path d="M 9 77.76 
L 64.8 77.76 
" style="fill:none;"/>
   </g>
  </g>
 </g>
 <defs>
  <clipPath id="p64fa8fa548">
   <rect height="50.4" width="55.8" x="9" y="17.28"/>
  </clipPath>
  <clipPath id="pa8d0057f04">
   <rect height="50.4" width="55.8" x="9" y="77.76"/>
  </clipPath>
 </defs>
</svg>
