<?xml version="1.0" encoding="utf-8" standalone="no"?>
<!DOCTYPE svg PUBLIC "-//W3C//DTD SVG 1.1//EN"
  "http://www.w3.org/Graphics/SVG/1.1/DTD/svg11.dtd">
<!-- Created with matplotlib (https://matplotlib.org/) -->
<svg height="144pt" version="1.1" viewBox="0 0 72 144" width="72pt" xmlns="http://www.w3.org/2000/svg" xmlns:xlink="http://www.w3.org/1999/xlink">
 <metadata>
  <rdf:RDF xmlns:cc="http://creativecommons.org/ns#" xmlns:dc="http://purl.org/dc/elements/1.1/" xmlns:rdf="http://www.w3.org/1999/02/22-rdf-syntax-ns#">
   <cc:Work>
    <dc:type rdf:resource="http://purl.org/dc/dcmitype/StillImage"/>
    <dc:date>2021-10-13T16:08:17.563824</dc:date>
    <dc:format>image/svg+xml</dc:format>
    <dc:creator>
     <cc:Agent>
      <dc:title>Matplotlib v3.3.2, https://matplotlib.org/</dc:title>
     </cc:Agent>
    </dc:creator>
   </cc:Work>
  </rdf:RDF>
 </metadata>
 <defs>
  <style type="text/css">*{stroke-linecap:butt;stroke-linejoin:round;}</style>
 </defs>
 <g id="figure_1">
  <g id="patch_1">
   <path d="M 0 144 
L 72 144 
L 72 0 
L 0 0 
z
" style="fill:none;"/>
  </g>
  <g id="axes_1">
   <g id="patch_2">
    <path d="M 9 67.68 
L 64.8 67.68 
L 64.8 17.28 
L 9 17.28 
z
" style="fill:none;"/>
   </g>
   <g id="matplotlib.axis_1">
    <g id="xtick_1">
     <g id="line2d_1">
      <defs>
       <path d="M 0 0 
L 0 3.5 
" id="ma4e26bb763" style="stroke:#a9a9a9;stroke-width:2;"/>
      </defs>
      <g>
       <use style="fill:#a9a9a9;stroke:#a9a9a9;stroke-width:2;" x="9" xlink:href="#ma4e26bb763" y="67.68"/>
      </g>
     </g>
    </g>
    <g id="xtick_2">
     <g id="line2d_2">
      <g>
       <use style="fill:#a9a9a9;stroke:#a9a9a9;stroke-width:2;" x="36.9" xlink:href="#ma4e26bb763" y="67.68"/>
      </g>
     </g>
    </g>
    <g id="xtick_3">
     <g id="line2d_3">
      <g>
       <use style="fill:#a9a9a9;stroke:#a9a9a9;stroke-width:2;" x="64.8" xlink:href="#ma4e26bb763" y="67.68"/>
      </g>
     </g>
    </g>
   </g>
   <g id="matplotlib.axis_2">
    <g id="ytick_1">
     <g id="line2d_4">
      <defs>
       <path d="M 0 0 
L -3.5 0 
" id="m813fdc6e96" style="stroke:#a9a9a9;stroke-width:2;"/>
      </defs>
      <g>
       <use style="fill:#a9a9a9;stroke:#a9a9a9;stroke-width:2;" x="9" xlink:href="#m813fdc6e96" y="67.68"/>
      </g>
     </g>
    </g>
    <g id="ytick_2">
     <g id="line2d_5">
      <g>
       <use style="fill:#a9a9a9;stroke:#a9a9a9;stroke-width:2;" x="9" xlink:href="#m813fdc6e96" y="64.44157"/>
      </g>
     </g>
    </g>
    <g id="ytick_3">
     <g id="line2d_6">
      <g>
       <use style="fill:#a9a9a9;stroke:#a9a9a9;stroke-width:2;" x="9" xlink:href="#m813fdc6e96" y="61.20314"/>
      </g>
     </g>
    </g>
   </g>
   <g id="line2d_7">
    <path clip-path="url(#pa555bdb415)" d="M 10.86031 58.920729 
L 11.79031 57.012492 
L 12.72031 55.285571 
L 13.65031 54.730917 
L 14.58031 54.222276 
L 15.51031 52.484755 
L 16.44031 51.144364 
L 17.37031 50.066009 
L 18.30031 49.277902 
L 19.23031 48.830299 
L 20.16031 48.178167 
L 21.09031 46.098566 
L 22.02031 46.183811 
L 22.95031 45.501301 
L 23.88031 44.853476 
L 24.81031 43.891388 
L 25.74031 43.490674 
L 26.67031 43.272681 
L 27.60031 41.048808 
L 28.53031 40.146409 
L 29.46031 38.558255 
L 30.39031 37.132539 
L 31.32031 36.426187 
L 32.25031 35.993229 
L 33.18031 34.926347 
L 34.11031 33.799659 
L 35.04031 33.107251 
L 35.97031 32.664022 
L 36.90031 32.965845 
L 37.83031 31.516762 
L 38.76031 30.410749 
L 39.69031 29.012189 
L 40.62031 28.761638 
L 41.55031 27.999854 
L 42.48031 28.245346 
L 43.41031 28.447794 
L 44.34031 27.665046 
L 45.27031 27.317808 
L 46.20031 25.807332 
L 47.13031 26.328564 
L 48.06031 26.281401 
L 48.99031 25.87316 
L 49.92031 25.048676 
L 50.85031 25.105194 
L 51.78031 24.874605 
L 52.71031 25.095585 
L 53.64031 24.82016 
L 54.57031 23.094589 
L 55.50031 22.924952 
L 56.43031 23.035402 
L 57.36031 23.012233 
L 58.29031 22.882021 
L 59.22031 22.584483 
L 60.15031 22.593262 
L 61.08031 21.936197 
L 62.01031 20.604162 
L 62.94031 18.645933 
L 63.87031 17.441922 
" style="fill:none;stroke:#fc8d62;stroke-linecap:square;stroke-width:2;"/>
   </g>
   <g id="line2d_8">
    <path clip-path="url(#pa555bdb415)" d="M 10.86031 60.497166 
L 11.79031 59.030657 
L 12.72031 57.86601 
L 13.65031 56.777878 
L 14.58031 55.500072 
L 15.51031 54.939915 
L 16.44031 53.524742 
L 17.37031 53.188811 
L 18.30031 51.852375 
L 19.23031 51.042175 
L 20.16031 50.247275 
L 21.09031 49.355703 
L 22.02031 49.227644 
L 22.95031 48.020894 
L 23.88031 46.998272 
L 24.81031 45.922315 
L 25.74031 44.13629 
L 26.67031 43.757969 
L 27.60031 42.084404 
L 28.53031 40.718965 
L 29.46031 39.7652 
L 30.39031 38.703547 
L 31.32031 37.852654 
L 32.25031 36.762137 
L 33.18031 36.007297 
L 34.11031 35.144943 
L 35.04031 34.69048 
L 35.97031 34.019924 
L 36.90031 33.506259 
L 37.83031 33.07778 
L 38.76031 32.669186 
L 39.69031 31.966656 
L 40.62031 32.144403 
L 41.55031 31.9091 
L 42.48031 31.209346 
L 43.41031 30.241027 
L 44.34031 29.604536 
L 45.27031 29.714043 
L 46.20031 28.818935 
L 47.13031 29.258671 
L 48.06031 28.314676 
L 48.99031 27.203218 
L 49.92031 26.214517 
L 50.85031 24.675908 
L 51.78031 24.399063 
L 52.71031 23.985346 
L 53.64031 22.730251 
L 54.57031 22.268778 
L 55.50031 21.892781 
L 56.43031 20.610135 
L 57.36031 20.523624 
L 58.29031 20.836336 
L 59.22031 20.007179 
L 60.15031 20.016902 
L 61.08031 19.748168 
L 62.01031 19.743476 
L 62.94031 18.633206 
L 63.87031 18.197316 
" style="fill:none;stroke:#fc8d62;stroke-dasharray:1.5,1.5;stroke-dashoffset:0;stroke-opacity:0.7;stroke-width:1.5;"/>
   </g>
   <g id="patch_3">
    <path d="M 9 67.68 
L 9 17.28 
" style="fill:none;stroke:#a9a9a9;stroke-linecap:square;stroke-linejoin:miter;stroke-width:2;"/>
   </g>
   <g id="patch_4">
    <path d="M 64.8 67.68 
L 64.8 17.28 
" style="fill:none;"/>
   </g>
   <g id="patch_5">
    <path d="M 9 67.68 
L 64.8 67.68 
" style="fill:none;stroke:#a9a9a9;stroke-linecap:square;stroke-linejoin:miter;stroke-width:2;"/>
   </g>
   <g id="patch_6">
    <path d="M 9 17.28 
L 64.8 17.28 
" style="fill:none;"/>
   </g>
  </g>
  <g id="axes_2">
   <g id="patch_7">
    <path d="M 9 128.16 
L 64.8 128.16 
L 64.8 77.76 
L 9 77.76 
z
" style="fill:none;"/>
   </g>
   <g id="matplotlib.axis_3">
    <g id="xtick_4">
     <g id="line2d_9">
      <g>
       <use style="fill:#a9a9a9;stroke:#a9a9a9;stroke-width:2;" x="9" xlink:href="#ma4e26bb763" y="128.16"/>
      </g>
     </g>
    </g>
    <g id="xtick_5">
     <g id="line2d_10">
      <g>
       <use style="fill:#a9a9a9;stroke:#a9a9a9;stroke-width:2;" x="36.9" xlink:href="#ma4e26bb763" y="128.16"/>
      </g>
     </g>
    </g>
    <g id="xtick_6">
     <g id="line2d_11">
      <g>
       <use style="fill:#a9a9a9;stroke:#a9a9a9;stroke-width:2;" x="64.8" xlink:href="#ma4e26bb763" y="128.16"/>
      </g>
     </g>
    </g>
   </g>
   <g id="matplotlib.axis_4">
    <g id="ytick_4">
     <g id="line2d_12">
      <g>
       <use style="fill:#a9a9a9;stroke:#a9a9a9;stroke-width:2;" x="9" xlink:href="#m813fdc6e96" y="128.16"/>
      </g>
     </g>
    </g>
    <g id="ytick_5">
     <g id="line2d_13">
      <g>
       <use style="fill:#a9a9a9;stroke:#a9a9a9;stroke-width:2;" x="9" xlink:href="#m813fdc6e96" y="102.96"/>
      </g>
     </g>
    </g>
    <g id="ytick_6">
     <g id="line2d_14">
      <g>
       <use style="fill:#a9a9a9;stroke:#a9a9a9;stroke-width:2;" x="9" xlink:href="#m813fdc6e96" y="77.76"/>
      </g>
     </g>
    </g>
   </g>
   <g id="line2d_15">
    <path clip-path="url(#pe9d2c59d60)" d="M 10.86031 86.135757 
L 11.79031 85.535593 
L 12.72031 85.2053 
L 13.65031 85.169968 
L 14.58031 85.003775 
L 15.51031 84.786584 
L 16.44031 84.721546 
L 17.37031 84.656129 
L 18.30031 84.641772 
L 19.23031 84.60684 
L 20.16031 84.592945 
L 21.09031 84.535918 
L 22.02031 84.550079 
L 22.95031 84.526901 
L 23.88031 84.512275 
L 24.81031 84.514638 
L 25.74031 84.501678 
L 26.67031 84.511921 
L 27.60031 84.452732 
L 28.53031 84.435483 
L 29.46031 84.415287 
L 30.39031 84.384949 
L 31.32031 84.391319 
L 32.25031 84.402674 
L 33.18031 84.382671 
L 34.11031 84.380453 
L 35.04031 84.389077 
L 35.97031 84.373214 
L 36.90031 84.366135 
L 37.83031 84.364109 
L 38.76031 84.366291 
L 39.69031 84.364723 
L 40.62031 84.359733 
L 41.55031 84.360352 
L 42.48031 84.369067 
L 43.41031 84.372781 
L 44.34031 84.375778 
L 45.27031 84.387789 
L 46.20031 84.384483 
L 47.13031 84.396813 
L 48.06031 84.397201 
L 48.99031 84.385995 
L 49.92031 84.380173 
L 50.85031 84.379959 
L 51.78031 84.376468 
L 52.71031 84.389696 
L 53.64031 84.392399 
L 54.57031 84.396217 
L 55.50031 84.400109 
L 56.43031 84.404269 
L 57.36031 84.400564 
L 58.29031 84.397435 
L 59.22031 84.393638 
L 60.15031 84.394255 
L 61.08031 84.385873 
L 62.01031 84.379566 
L 62.94031 84.375192 
L 63.87031 84.376149 
" style="fill:none;stroke:#fc8d62;stroke-linecap:square;stroke-width:2;"/>
   </g>
   <g id="line2d_16">
    <path clip-path="url(#pe9d2c59d60)" d="M 10.86031 93.645313 
L 11.79031 92.969579 
L 12.72031 92.819015 
L 13.65031 92.541789 
L 14.58031 92.446131 
L 15.51031 92.365297 
L 16.44031 92.300427 
L 17.37031 92.239474 
L 18.30031 92.157188 
L 19.23031 92.143391 
L 20.16031 92.085854 
L 21.09031 92.062783 
L 22.02031 92.082353 
L 22.95031 92.079348 
L 23.88031 92.078157 
L 24.81031 92.059561 
L 25.74031 92.048219 
L 26.67031 92.035852 
L 27.60031 92.023223 
L 28.53031 91.98761 
L 29.46031 91.989639 
L 30.39031 91.972456 
L 31.32031 91.98355 
L 32.25031 91.960943 
L 33.18031 91.940576 
L 34.11031 91.922081 
L 35.04031 91.910772 
L 35.97031 91.89953 
L 36.90031 91.900057 
L 37.83031 91.909646 
L 38.76031 91.907761 
L 39.69031 91.89502 
L 40.62031 91.906475 
L 41.55031 91.897772 
L 42.48031 91.918812 
L 43.41031 91.908158 
L 44.34031 91.900732 
L 45.27031 91.901258 
L 46.20031 91.89507 
L 47.13031 91.921365 
L 48.06031 91.930754 
L 48.99031 91.931499 
L 49.92031 91.921931 
L 50.85031 91.92896 
L 51.78031 91.922507 
L 52.71031 91.927327 
L 53.64031 91.923242 
L 54.57031 91.91057 
L 55.50031 91.91332 
L 56.43031 91.907441 
L 57.36031 91.918557 
L 58.29031 91.910294 
L 59.22031 91.9007 
L 60.15031 91.897836 
L 61.08031 91.893029 
L 62.01031 91.887575 
L 62.94031 91.886945 
L 63.87031 91.888939 
" style="fill:none;stroke:#fc8d62;stroke-dasharray:1.5,1.5;stroke-dashoffset:0;stroke-opacity:0.7;stroke-width:1.5;"/>
   </g>
   <g id="patch_8">
    <path d="M 9 128.16 
L 9 77.76 
" style="fill:none;stroke:#a9a9a9;stroke-linecap:square;stroke-linejoin:miter;stroke-width:2;"/>
   </g>
   <g id="patch_9">
    <path d="M 64.8 128.16 
L 64.8 77.76 
" style="fill:none;"/>
   </g>
   <g id="patch_10">
    <path d="M 9 128.16 
L 64.8 128.16 
" style="fill:none;stroke:#a9a9a9;stroke-linecap:square;stroke-linejoin:miter;stroke-width:2;"/>
   </g>
   <g id="patch_11">
    <path d="M 9 77.76 
L 64.8 77.76 
" style="fill:none;"/>
   </g>
  </g>
 </g>
 <defs>
  <clipPath id="pa555bdb415">
   <rect height="50.4" width="55.8" x="9" y="17.28"/>
  </clipPath>
  <clipPath id="pe9d2c59d60">
   <rect height="50.4" width="55.8" x="9" y="77.76"/>
  </clipPath>
 </defs>
</svg>
