<?xml version="1.0" encoding="utf-8" standalone="no"?>
<!DOCTYPE svg PUBLIC "-//W3C//DTD SVG 1.1//EN"
  "http://www.w3.org/Graphics/SVG/1.1/DTD/svg11.dtd">
<!-- Created with matplotlib (https://matplotlib.org/) -->
<svg height="216pt" version="1.1" viewBox="0 0 72 216" width="72pt" xmlns="http://www.w3.org/2000/svg" xmlns:xlink="http://www.w3.org/1999/xlink">
 <metadata>
  <rdf:RDF xmlns:cc="http://creativecommons.org/ns#" xmlns:dc="http://purl.org/dc/elements/1.1/" xmlns:rdf="http://www.w3.org/1999/02/22-rdf-syntax-ns#">
   <cc:Work>
    <dc:type rdf:resource="http://purl.org/dc/dcmitype/StillImage"/>
    <dc:date>2021-10-13T00:32:24.667030</dc:date>
    <dc:format>image/svg+xml</dc:format>
    <dc:creator>
     <cc:Agent>
      <dc:title>Matplotlib v3.3.2, https://matplotlib.org/</dc:title>
     </cc:Agent>
    </dc:creator>
   </cc:Work>
  </rdf:RDF>
 </metadata>
 <defs>
  <style type="text/css">*{stroke-linecap:butt;stroke-linejoin:round;}</style>
 </defs>
 <g id="figure_1">
  <g id="patch_1">
   <path d="M 0 216 
L 72 216 
L 72 0 
L 0 0 
z
" style="fill:none;"/>
  </g>
  <g id="axes_1">
   <g id="patch_2">
    <path d="M 9 74.837647 
L 64.8 74.837647 
L 64.8 25.92 
L 9 25.92 
z
" style="fill:none;"/>
   </g>
   <g id="matplotlib.axis_1">
    <g id="xtick_1">
     <g id="line2d_1">
      <defs>
       <path d="M 0 0 
L 0 3.5 
" id="meddf087e21" style="stroke:#a9a9a9;stroke-width:2;"/>
      </defs>
      <g>
       <use style="fill:#a9a9a9;stroke:#a9a9a9;stroke-width:2;" x="9" xlink:href="#meddf087e21" y="74.837647"/>
      </g>
     </g>
    </g>
    <g id="xtick_2">
     <g id="line2d_2">
      <g>
       <use style="fill:#a9a9a9;stroke:#a9a9a9;stroke-width:2;" x="36.9" xlink:href="#meddf087e21" y="74.837647"/>
      </g>
     </g>
    </g>
    <g id="xtick_3">
     <g id="line2d_3">
      <g>
       <use style="fill:#a9a9a9;stroke:#a9a9a9;stroke-width:2;" x="64.8" xlink:href="#meddf087e21" y="74.837647"/>
      </g>
     </g>
    </g>
   </g>
   <g id="matplotlib.axis_2">
    <g id="ytick_1">
     <g id="line2d_4">
      <defs>
       <path d="M 0 0 
L -3.5 0 
" id="m2150962c6e" style="stroke:#a9a9a9;stroke-width:2;"/>
      </defs>
      <g>
       <use style="fill:#a9a9a9;stroke:#a9a9a9;stroke-width:2;" x="9" xlink:href="#m2150962c6e" y="74.837647"/>
      </g>
     </g>
    </g>
    <g id="ytick_2">
     <g id="line2d_5">
      <g>
       <use style="fill:#a9a9a9;stroke:#a9a9a9;stroke-width:2;" x="9" xlink:href="#m2150962c6e" y="73.229554"/>
      </g>
     </g>
    </g>
    <g id="ytick_3">
     <g id="line2d_6">
      <g>
       <use style="fill:#a9a9a9;stroke:#a9a9a9;stroke-width:2;" x="9" xlink:href="#m2150962c6e" y="71.621462"/>
      </g>
     </g>
    </g>
   </g>
   <g id="line2d_7">
    <path clip-path="url(#pb967b2f39b)" d="M 10.86031 68.633864 
L 11.79031 67.765679 
L 12.72031 67.099337 
L 13.65031 66.197723 
L 14.58031 65.543872 
L 15.51031 64.66089 
L 16.44031 64.039317 
L 17.37031 63.133258 
L 18.30031 62.339365 
L 19.23031 60.762835 
L 20.16031 59.832809 
L 21.09031 58.280252 
L 22.02031 57.635987 
L 22.95031 56.642382 
L 23.88031 56.116168 
L 24.81031 54.724605 
L 25.74031 53.500749 
L 26.67031 51.98688 
L 27.60031 49.642159 
L 28.53031 47.939418 
L 29.46031 46.695434 
L 30.39031 45.047894 
L 31.32031 43.61155 
L 32.25031 42.955136 
L 33.18031 42.81794 
L 34.11031 42.667996 
L 35.04031 42.794139 
L 35.97031 42.256602 
L 36.90031 43.226525 
L 37.83031 43.882536 
L 38.76031 44.056557 
L 39.69031 44.40327 
L 40.62031 43.92624 
L 41.55031 43.921954 
L 42.48031 43.486404 
L 43.41031 43.254314 
L 44.34031 41.326877 
L 45.27031 39.756413 
L 46.20031 38.035906 
L 47.13031 37.658773 
L 48.06031 35.523988 
L 48.99031 33.826641 
L 49.92031 32.952339 
L 50.85031 31.54996 
L 51.78031 31.664936 
L 52.71031 30.336248 
L 53.64031 28.56357 
L 54.57031 27.378328 
L 55.50031 26.385388 
L 56.43031 26.000405 
L 57.36031 27.361393 
L 58.29031 29.022771 
L 59.22031 29.729185 
L 60.15031 31.067427 
L 61.08031 31.028783 
L 62.01031 30.075462 
L 62.94031 30.551655 
L 63.87031 31.044514 
" style="fill:none;stroke:#fc8d62;stroke-linecap:square;stroke-width:2;"/>
   </g>
   <g id="line2d_8">
    <path clip-path="url(#pb967b2f39b)" d="M 10.86031 68.6939 
L 11.79031 67.639682 
L 12.72031 67.047196 
L 13.65031 66.21905 
L 14.58031 65.482452 
L 15.51031 65.067872 
L 16.44031 64.200172 
L 17.37031 63.801644 
L 18.30031 62.876016 
L 19.23031 61.31184 
L 20.16031 60.336503 
L 21.09031 59.374251 
L 22.02031 57.789615 
L 22.95031 56.452387 
L 23.88031 54.135759 
L 24.81031 53.059665 
L 25.74031 51.303516 
L 26.67031 48.794907 
L 27.60031 47.349698 
L 28.53031 45.394681 
L 29.46031 44.120337 
L 30.39031 43.481747 
L 31.32031 42.122234 
L 32.25031 42.400011 
L 33.18031 41.883191 
L 34.11031 40.522721 
L 35.04031 40.601301 
L 35.97031 38.782877 
L 36.90031 38.481822 
L 37.83031 39.61626 
L 38.76031 39.929468 
L 39.69031 39.558257 
L 40.62031 39.839188 
L 41.55031 40.732991 
L 42.48031 40.373708 
L 43.41031 39.919579 
L 44.34031 39.22461 
L 45.27031 37.815141 
L 46.20031 36.399395 
L 47.13031 35.077963 
L 48.06031 34.941386 
L 48.99031 33.467392 
L 49.92031 32.689738 
L 50.85031 32.276727 
L 51.78031 31.259779 
L 52.71031 31.617551 
L 53.64031 29.996061 
L 54.57031 28.835018 
L 55.50031 27.956363 
L 56.43031 27.383358 
L 57.36031 25.619692 
L 58.29031 24.2225 
L 59.22031 23.132228 
L 60.15031 21.972449 
L 61.08031 23.973437 
L 62.01031 24.213452 
L 62.94031 23.210126 
L 63.87031 23.588767 
" style="fill:none;stroke:#fc8d62;stroke-dasharray:1.5,1.5;stroke-dashoffset:0;stroke-opacity:0.7;stroke-width:1.5;"/>
   </g>
   <g id="patch_3">
    <path d="M 9 74.837647 
L 9 25.92 
" style="fill:none;stroke:#a9a9a9;stroke-linecap:square;stroke-linejoin:miter;stroke-width:2;"/>
   </g>
   <g id="patch_4">
    <path d="M 64.8 74.837647 
L 64.8 25.92 
" style="fill:none;"/>
   </g>
   <g id="patch_5">
    <path d="M 9 74.837647 
L 64.8 74.837647 
" style="fill:none;stroke:#a9a9a9;stroke-linecap:square;stroke-linejoin:miter;stroke-width:2;"/>
   </g>
   <g id="patch_6">
    <path d="M 9 25.92 
L 64.8 25.92 
" style="fill:none;"/>
   </g>
  </g>
  <g id="axes_2">
   <g id="patch_7">
    <path d="M 9 133.538824 
L 64.8 133.538824 
L 64.8 84.621176 
L 9 84.621176 
z
" style="fill:none;"/>
   </g>
   <g id="matplotlib.axis_3">
    <g id="xtick_4">
     <g id="line2d_9">
      <g>
       <use style="fill:#a9a9a9;stroke:#a9a9a9;stroke-width:2;" x="9" xlink:href="#meddf087e21" y="133.538824"/>
      </g>
     </g>
    </g>
    <g id="xtick_5">
     <g id="line2d_10">
      <g>
       <use style="fill:#a9a9a9;stroke:#a9a9a9;stroke-width:2;" x="36.9" xlink:href="#meddf087e21" y="133.538824"/>
      </g>
     </g>
    </g>
    <g id="xtick_6">
     <g id="line2d_11">
      <g>
       <use style="fill:#a9a9a9;stroke:#a9a9a9;stroke-width:2;" x="64.8" xlink:href="#meddf087e21" y="133.538824"/>
      </g>
     </g>
    </g>
   </g>
   <g id="matplotlib.axis_4">
    <g id="ytick_4">
     <g id="line2d_12">
      <g>
       <use style="fill:#a9a9a9;stroke:#a9a9a9;stroke-width:2;" x="9" xlink:href="#m2150962c6e" y="133.538824"/>
      </g>
     </g>
    </g>
    <g id="ytick_5">
     <g id="line2d_13">
      <g>
       <use style="fill:#a9a9a9;stroke:#a9a9a9;stroke-width:2;" x="9" xlink:href="#m2150962c6e" y="109.08"/>
      </g>
     </g>
    </g>
    <g id="ytick_6">
     <g id="line2d_14">
      <g>
       <use style="fill:#a9a9a9;stroke:#a9a9a9;stroke-width:2;" x="9" xlink:href="#m2150962c6e" y="84.621176"/>
      </g>
     </g>
    </g>
   </g>
   <g id="line2d_15">
    <path clip-path="url(#p32b5014395)" d="M 10.86031 110.996143 
L 11.79031 110.946043 
L 12.72031 110.920479 
L 13.65031 110.758096 
L 14.58031 110.679026 
L 15.51031 110.692469 
L 16.44031 110.715865 
L 17.37031 110.730177 
L 18.30031 110.744443 
L 19.23031 110.73752 
L 20.16031 110.764003 
L 21.09031 110.744145 
L 22.02031 110.743475 
L 22.95031 110.742285 
L 23.88031 110.737272 
L 24.81031 110.737959 
L 25.74031 110.703386 
L 26.67031 110.683018 
L 27.60031 110.691549 
L 28.53031 110.716625 
L 29.46031 110.721731 
L 30.39031 110.723265 
L 31.32031 110.714183 
L 32.25031 110.739181 
L 33.18031 110.737353 
L 34.11031 110.72498 
L 35.04031 110.731662 
L 35.97031 110.72941 
L 36.90031 110.716948 
L 37.83031 110.704778 
L 38.76031 110.718008 
L 39.69031 110.721089 
L 40.62031 110.723184 
L 41.55031 110.723523 
L 42.48031 110.718412 
L 43.41031 110.724479 
L 44.34031 110.74766 
L 45.27031 110.750846 
L 46.20031 110.752534 
L 47.13031 110.7432 
L 48.06031 110.750805 
L 48.99031 110.765534 
L 49.92031 110.758938 
L 50.85031 110.763967 
L 51.78031 110.76802 
L 52.71031 110.769922 
L 53.64031 110.772496 
L 54.57031 110.78416 
L 55.50031 110.782352 
L 56.43031 110.791055 
L 57.36031 110.795716 
L 58.29031 110.796518 
L 59.22031 110.7908 
L 60.15031 110.78421 
L 61.08031 110.786287 
L 62.01031 110.789155 
L 62.94031 110.787508 
L 63.87031 110.790594 
" style="fill:none;stroke:#fc8d62;stroke-linecap:square;stroke-width:2;"/>
   </g>
   <g id="line2d_16">
    <path clip-path="url(#p32b5014395)" d="M 10.86031 102.169909 
L 11.79031 101.941189 
L 12.72031 101.84238 
L 13.65031 101.729058 
L 14.58031 101.659116 
L 15.51031 101.601273 
L 16.44031 101.554807 
L 17.37031 101.547317 
L 18.30031 101.554935 
L 19.23031 101.555933 
L 20.16031 101.556629 
L 21.09031 101.572564 
L 22.02031 101.560676 
L 22.95031 101.563142 
L 23.88031 101.551843 
L 24.81031 101.553269 
L 25.74031 101.554195 
L 26.67031 101.54697 
L 27.60031 101.53225 
L 28.53031 101.532671 
L 29.46031 101.531307 
L 30.39031 101.522966 
L 31.32031 101.521792 
L 32.25031 101.525786 
L 33.18031 101.513227 
L 34.11031 101.514762 
L 35.04031 101.514014 
L 35.97031 101.506722 
L 36.90031 101.506895 
L 37.83031 101.500722 
L 38.76031 101.503915 
L 39.69031 101.495936 
L 40.62031 101.491056 
L 41.55031 101.487713 
L 42.48031 101.493633 
L 43.41031 101.50473 
L 44.34031 101.506987 
L 45.27031 101.506297 
L 46.20031 101.508589 
L 47.13031 101.51759 
L 48.06031 101.523217 
L 48.99031 101.523468 
L 49.92031 101.522051 
L 50.85031 101.524911 
L 51.78031 101.522404 
L 52.71031 101.525524 
L 53.64031 101.520824 
L 54.57031 101.523428 
L 55.50031 101.522298 
L 56.43031 101.519906 
L 57.36031 101.517791 
L 58.29031 101.513204 
L 59.22031 101.513122 
L 60.15031 101.5144 
L 61.08031 101.508348 
L 62.01031 101.510612 
L 62.94031 101.510485 
L 63.87031 101.509082 
" style="fill:none;stroke:#fc8d62;stroke-dasharray:1.5,1.5;stroke-dashoffset:0;stroke-opacity:0.7;stroke-width:1.5;"/>
   </g>
   <g id="patch_8">
    <path d="M 9 133.538824 
L 9 84.621176 
" style="fill:none;stroke:#a9a9a9;stroke-linecap:square;stroke-linejoin:miter;stroke-width:2;"/>
   </g>
   <g id="patch_9">
    <path d="M 64.8 133.538824 
L 64.8 84.621176 
" style="fill:none;"/>
   </g>
   <g id="patch_10">
    <path d="M 9 133.538824 
L 64.8 133.538824 
" style="fill:none;stroke:#a9a9a9;stroke-linecap:square;stroke-linejoin:miter;stroke-width:2;"/>
   </g>
   <g id="patch_11">
    <path d="M 9 84.621176 
L 64.8 84.621176 
" style="fill:none;"/>
   </g>
  </g>
  <g id="axes_3">
   <g id="patch_12">
    <path d="M 9 192.24 
L 64.8 192.24 
L 64.8 143.322353 
L 9 143.322353 
z
" style="fill:none;"/>
   </g>
   <g id="matplotlib.axis_5">
    <g id="xtick_7">
     <g id="line2d_17">
      <g>
       <use style="fill:#a9a9a9;stroke:#a9a9a9;stroke-width:2;" x="9" xlink:href="#meddf087e21" y="143.325597"/>
      </g>
     </g>
    </g>
    <g id="xtick_8">
     <g id="line2d_18">
      <g>
       <use style="fill:#a9a9a9;stroke:#a9a9a9;stroke-width:2;" x="36.9" xlink:href="#meddf087e21" y="143.325597"/>
      </g>
     </g>
    </g>
    <g id="xtick_9">
     <g id="line2d_19">
      <g>
       <use style="fill:#a9a9a9;stroke:#a9a9a9;stroke-width:2;" x="64.8" xlink:href="#meddf087e21" y="143.325597"/>
      </g>
     </g>
    </g>
   </g>
   <g id="matplotlib.axis_6">
    <g id="ytick_7">
     <g id="line2d_20">
      <g>
       <use style="fill:#a9a9a9;stroke:#a9a9a9;stroke-width:2;" x="9" xlink:href="#m2150962c6e" y="143.325597"/>
      </g>
     </g>
    </g>
    <g id="ytick_8">
     <g id="line2d_21">
      <g>
       <use style="fill:#a9a9a9;stroke:#a9a9a9;stroke-width:2;" x="9" xlink:href="#m2150962c6e" y="175.935199"/>
      </g>
     </g>
    </g>
   </g>
   <g id="line2d_22">
    <path clip-path="url(#p887cc389b2)" d="M 10.86031 146.933292 
L 11.79031 147.450818 
L 12.72031 147.799703 
L 13.65031 147.763489 
L 14.58031 147.606289 
L 15.51031 147.492128 
L 16.44031 147.377241 
L 17.37031 147.607744 
L 18.30031 147.737479 
L 19.23031 147.658104 
L 20.16031 147.584698 
L 21.09031 147.538314 
L 22.02031 147.518684 
L 22.95031 147.500761 
L 23.88031 147.459389 
L 24.81031 147.38403 
L 25.74031 147.332943 
L 26.67031 147.363579 
L 27.60031 147.41641 
L 28.53031 147.447493 
L 29.46031 147.494648 
L 30.39031 147.469953 
L 31.32031 147.508934 
L 32.25031 147.478593 
L 33.18031 143.325599 
L 34.11031 147.423001 
L 35.04031 147.424791 
L 35.97031 147.41553 
L 36.90031 147.375914 
L 37.83031 147.294906 
L 38.76031 147.326229 
L 39.69031 147.294037 
L 40.62031 147.309455 
L 41.55031 143.325597 
L 42.48031 147.287591 
L 43.41031 147.277963 
L 44.34031 147.243463 
L 45.27031 147.266077 
L 46.20031 147.239281 
L 47.13031 147.245345 
L 48.06031 147.290996 
L 48.99031 147.307059 
L 49.92031 147.306541 
L 50.85031 147.312545 
L 51.78031 147.282063 
L 52.71031 147.297748 
L 53.64031 147.318944 
L 54.57031 147.311915 
L 55.50031 147.288639 
L 56.43031 147.274573 
L 57.36031 147.263583 
L 58.29031 147.259814 
L 59.22031 147.24897 
L 60.15031 147.22408 
L 61.08031 147.214334 
L 62.01031 147.234519 
L 62.94031 147.221526 
L 63.87031 147.243279 
" style="fill:none;stroke:#fc8d62;stroke-linecap:square;stroke-width:2;"/>
   </g>
   <g id="line2d_23">
    <path clip-path="url(#p887cc389b2)" d="M 10.86031 143.325238 
L 11.79031 143.325556 
L 12.72031 143.324913 
L 13.65031 143.323901 
L 14.58031 143.324172 
L 15.51031 143.324692 
L 16.44031 143.323294 
L 17.37031 143.32417 
L 18.30031 143.322353 
L 19.23031 143.323625 
L 20.16031 143.325496 
L 21.09031 143.323984 
L 22.02031 143.324426 
L 22.95031 143.325406 
L 23.88031 143.324659 
L 24.81031 143.324792 
L 25.74031 143.325212 
L 26.67031 143.324656 
L 27.60031 143.325596 
L 28.53031 143.325553 
L 29.46031 143.325542 
L 30.39031 143.325565 
L 31.32031 143.325564 
L 32.25031 143.325565 
L 33.18031 143.324458 
L 34.11031 143.325567 
L 35.04031 143.324621 
L 35.97031 143.325565 
L 36.90031 143.324672 
L 37.83031 143.325577 
L 38.76031 143.32565 
L 39.69031 143.324694 
L 40.62031 143.324693 
L 41.55031 143.325541 
L 42.48031 143.325574 
L 43.41031 143.325974 
L 44.34031 143.325566 
L 45.27031 143.325522 
L 46.20031 143.325559 
L 47.13031 143.325555 
L 48.06031 143.324484 
L 48.99031 143.325003 
L 49.92031 143.325097 
L 50.85031 143.324355 
L 51.78031 143.325561 
L 52.71031 143.325159 
L 53.64031 143.325556 
L 54.57031 143.325751 
L 55.50031 143.325422 
L 56.43031 143.324044 
L 57.36031 143.325097 
L 58.29031 143.325556 
L 59.22031 143.325194 
L 60.15031 143.325603 
L 61.08031 143.32559 
L 62.01031 143.325616 
L 62.94031 143.325546 
L 63.87031 143.325777 
" style="fill:none;stroke:#fc8d62;stroke-dasharray:1.5,1.5;stroke-dashoffset:0;stroke-opacity:0.7;stroke-width:1.5;"/>
   </g>
   <g id="line2d_24">
    <path clip-path="url(#p887cc389b2)" d="M 9 175.935199 
L 64.8 175.935199 
" style="fill:none;stroke:#66c2a5;stroke-dasharray:1.5,1.5;stroke-dashoffset:0;stroke-opacity:0.7;stroke-width:1.5;"/>
   </g>
   <g id="patch_13">
    <path d="M 9 192.24 
L 9 143.322353 
" style="fill:none;stroke:#a9a9a9;stroke-linecap:square;stroke-linejoin:miter;stroke-width:2;"/>
   </g>
   <g id="patch_14">
    <path d="M 64.8 192.24 
L 64.8 143.322353 
" style="fill:none;"/>
   </g>
   <g id="patch_15">
    <path d="M 9 143.325597 
L 64.8 143.325597 
" style="fill:none;stroke:#a9a9a9;stroke-linecap:square;stroke-linejoin:miter;stroke-width:2;"/>
   </g>
   <g id="patch_16">
    <path d="M 9 143.322353 
L 64.8 143.322353 
" style="fill:none;"/>
   </g>
  </g>
 </g>
 <defs>
  <clipPath id="pb967b2f39b">
   <rect height="48.917647" width="55.8" x="9" y="25.92"/>
  </clipPath>
  <clipPath id="p32b5014395">
   <rect height="48.917647" width="55.8" x="9" y="84.621176"/>
  </clipPath>
  <clipPath id="p887cc389b2">
   <rect height="48.917647" width="55.8" x="9" y="143.322353"/>
  </clipPath>
 </defs>
</svg>
