<?xml version="1.0" encoding="utf-8" standalone="no"?>
<!DOCTYPE svg PUBLIC "-//W3C//DTD SVG 1.1//EN"
  "http://www.w3.org/Graphics/SVG/1.1/DTD/svg11.dtd">
<!-- Created with matplotlib (https://matplotlib.org/) -->
<svg height="144pt" version="1.1" viewBox="0 0 72 144" width="72pt" xmlns="http://www.w3.org/2000/svg" xmlns:xlink="http://www.w3.org/1999/xlink">
 <metadata>
  <rdf:RDF xmlns:cc="http://creativecommons.org/ns#" xmlns:dc="http://purl.org/dc/elements/1.1/" xmlns:rdf="http://www.w3.org/1999/02/22-rdf-syntax-ns#">
   <cc:Work>
    <dc:type rdf:resource="http://purl.org/dc/dcmitype/StillImage"/>
    <dc:date>2021-10-13T14:32:01.269096</dc:date>
    <dc:format>image/svg+xml</dc:format>
    <dc:creator>
     <cc:Agent>
      <dc:title>Matplotlib v3.3.2, https://matplotlib.org/</dc:title>
     </cc:Agent>
    </dc:creator>
   </cc:Work>
  </rdf:RDF>
 </metadata>
 <defs>
  <style type="text/css">*{stroke-linecap:butt;stroke-linejoin:round;}</style>
 </defs>
 <g id="figure_1">
  <g id="patch_1">
   <path d="M 0 144 
L 72 144 
L 72 0 
L 0 0 
z
" style="fill:none;"/>
  </g>
  <g id="axes_1">
   <g id="patch_2">
    <path d="M 9 67.68 
L 64.8 67.68 
L 64.8 17.28 
L 9 17.28 
z
" style="fill:none;"/>
   </g>
   <g id="matplotlib.axis_1">
    <g id="xtick_1">
     <g id="line2d_1">
      <defs>
       <path d="M 0 0 
L 0 3.5 
" id="m482268a976" style="stroke:#a9a9a9;stroke-width:2;"/>
      </defs>
      <g>
       <use style="fill:#a9a9a9;stroke:#a9a9a9;stroke-width:2;" x="9" xlink:href="#m482268a976" y="67.68"/>
      </g>
     </g>
    </g>
    <g id="xtick_2">
     <g id="line2d_2">
      <g>
       <use style="fill:#a9a9a9;stroke:#a9a9a9;stroke-width:2;" x="36.9" xlink:href="#m482268a976" y="67.68"/>
      </g>
     </g>
    </g>
    <g id="xtick_3">
     <g id="line2d_3">
      <g>
       <use style="fill:#a9a9a9;stroke:#a9a9a9;stroke-width:2;" x="64.8" xlink:href="#m482268a976" y="67.68"/>
      </g>
     </g>
    </g>
   </g>
   <g id="matplotlib.axis_2">
    <g id="ytick_1">
     <g id="line2d_4">
      <defs>
       <path d="M 0 0 
L -3.5 0 
" id="mc8b79a88c5" style="stroke:#a9a9a9;stroke-width:2;"/>
      </defs>
      <g>
       <use style="fill:#a9a9a9;stroke:#a9a9a9;stroke-width:2;" x="9" xlink:href="#mc8b79a88c5" y="67.68"/>
      </g>
     </g>
    </g>
    <g id="ytick_2">
     <g id="line2d_5">
      <g>
       <use style="fill:#a9a9a9;stroke:#a9a9a9;stroke-width:2;" x="9" xlink:href="#mc8b79a88c5" y="62.133534"/>
      </g>
     </g>
    </g>
    <g id="ytick_3">
     <g id="line2d_6">
      <g>
       <use style="fill:#a9a9a9;stroke:#a9a9a9;stroke-width:2;" x="9" xlink:href="#mc8b79a88c5" y="56.587068"/>
      </g>
     </g>
    </g>
   </g>
   <g id="line2d_7">
    <path clip-path="url(#p22c6a427b5)" d="M 10.86031 58.296736 
L 11.79031 56.514185 
L 12.72031 55.520781 
L 13.65031 54.064506 
L 14.58031 52.35292 
L 15.51031 50.315843 
L 16.44031 49.18595 
L 17.37031 48.324382 
L 18.30031 46.767708 
L 19.23031 45.469821 
L 20.16031 45.423564 
L 21.09031 44.7119 
L 22.02031 42.770169 
L 22.95031 41.753524 
L 23.88031 40.684794 
L 24.81031 40.20143 
L 25.74031 38.988456 
L 26.67031 37.932846 
L 27.60031 37.510561 
L 28.53031 36.11808 
L 29.46031 34.628443 
L 30.39031 33.559031 
L 31.32031 32.622575 
L 32.25031 31.54683 
L 33.18031 31.7146 
L 34.11031 31.063456 
L 35.04031 30.498501 
L 35.97031 30.255989 
L 36.90031 29.784939 
L 37.83031 29.588297 
L 38.76031 29.45676 
L 39.69031 28.412795 
L 40.62031 27.67898 
L 41.55031 27.137251 
L 42.48031 27.001337 
L 43.41031 27.040164 
L 44.34031 26.354197 
L 45.27031 25.611172 
L 46.20031 24.139006 
L 47.13031 23.073282 
L 48.06031 22.575617 
L 48.99031 22.814694 
L 49.92031 21.562541 
L 50.85031 21.054018 
L 51.78031 20.7301 
L 52.71031 20.043233 
L 53.64031 19.634804 
L 54.57031 19.662002 
L 55.50031 19.202979 
L 56.43031 19.692039 
L 57.36031 19.698127 
L 58.29031 19.104936 
L 59.22031 18.993327 
L 60.15031 19.280823 
L 61.08031 17.725389 
L 62.01031 18.073155 
L 62.94031 17.593308 
L 63.87031 17.557323 
" style="fill:none;stroke:#fc8d62;stroke-linecap:square;stroke-width:2;"/>
   </g>
   <g id="line2d_8">
    <path clip-path="url(#p22c6a427b5)" d="M 10.86031 58.464266 
L 11.79031 56.786165 
L 12.72031 54.886974 
L 13.65031 53.194537 
L 14.58031 52.012857 
L 15.51031 50.547013 
L 16.44031 49.130362 
L 17.37031 47.918609 
L 18.30031 46.815213 
L 19.23031 45.352342 
L 20.16031 44.786957 
L 21.09031 43.073865 
L 22.02031 42.668712 
L 22.95031 40.861421 
L 23.88031 39.451967 
L 24.81031 38.071421 
L 25.74031 38.104876 
L 26.67031 36.100263 
L 27.60031 34.714575 
L 28.53031 34.006182 
L 29.46031 32.776442 
L 30.39031 32.892387 
L 31.32031 31.815237 
L 32.25031 30.72238 
L 33.18031 29.594763 
L 34.11031 28.611485 
L 35.04031 28.144448 
L 35.97031 26.959277 
L 36.90031 26.76599 
L 37.83031 26.439189 
L 38.76031 25.699133 
L 39.69031 25.596495 
L 40.62031 25.370108 
L 41.55031 24.989645 
L 42.48031 23.983026 
L 43.41031 23.781597 
L 44.34031 23.159274 
L 45.27031 21.851289 
L 46.20031 20.236201 
L 47.13031 19.062141 
L 48.06031 18.705522 
L 48.99031 18.210065 
L 49.92031 18.455639 
L 50.85031 17.613772 
L 51.78031 17.23668 
L 52.71031 16.627721 
L 53.64031 16.008795 
L 54.57031 15.708636 
L 55.50031 15.165899 
L 56.43031 14.828878 
L 57.36031 14.459516 
L 58.29031 13.305869 
L 59.22031 13.314527 
L 60.15031 12.14209 
L 61.08031 11.889513 
L 62.01031 10.187875 
L 62.94031 9.800847 
L 63.87031 9.44669 
" style="fill:none;stroke:#fc8d62;stroke-dasharray:1.5,1.5;stroke-dashoffset:0;stroke-opacity:0.7;stroke-width:1.5;"/>
   </g>
   <g id="patch_3">
    <path d="M 9 67.68 
L 9 17.28 
" style="fill:none;stroke:#a9a9a9;stroke-linecap:square;stroke-linejoin:miter;stroke-width:2;"/>
   </g>
   <g id="patch_4">
    <path d="M 64.8 67.68 
L 64.8 17.28 
" style="fill:none;"/>
   </g>
   <g id="patch_5">
    <path d="M 9 67.68 
L 64.8 67.68 
" style="fill:none;stroke:#a9a9a9;stroke-linecap:square;stroke-linejoin:miter;stroke-width:2;"/>
   </g>
   <g id="patch_6">
    <path d="M 9 17.28 
L 64.8 17.28 
" style="fill:none;"/>
   </g>
  </g>
  <g id="axes_2">
   <g id="patch_7">
    <path d="M 9 128.16 
L 64.8 128.16 
L 64.8 77.76 
L 9 77.76 
z
" style="fill:none;"/>
   </g>
   <g id="matplotlib.axis_3">
    <g id="xtick_4">
     <g id="line2d_9">
      <g>
       <use style="fill:#a9a9a9;stroke:#a9a9a9;stroke-width:2;" x="9" xlink:href="#m482268a976" y="128.16"/>
      </g>
     </g>
    </g>
    <g id="xtick_5">
     <g id="line2d_10">
      <g>
       <use style="fill:#a9a9a9;stroke:#a9a9a9;stroke-width:2;" x="36.9" xlink:href="#m482268a976" y="128.16"/>
      </g>
     </g>
    </g>
    <g id="xtick_6">
     <g id="line2d_11">
      <g>
       <use style="fill:#a9a9a9;stroke:#a9a9a9;stroke-width:2;" x="64.8" xlink:href="#m482268a976" y="128.16"/>
      </g>
     </g>
    </g>
   </g>
   <g id="matplotlib.axis_4">
    <g id="ytick_4">
     <g id="line2d_12">
      <g>
       <use style="fill:#a9a9a9;stroke:#a9a9a9;stroke-width:2;" x="9" xlink:href="#mc8b79a88c5" y="128.16"/>
      </g>
     </g>
    </g>
    <g id="ytick_5">
     <g id="line2d_13">
      <g>
       <use style="fill:#a9a9a9;stroke:#a9a9a9;stroke-width:2;" x="9" xlink:href="#mc8b79a88c5" y="102.96"/>
      </g>
     </g>
    </g>
    <g id="ytick_6">
     <g id="line2d_14">
      <g>
       <use style="fill:#a9a9a9;stroke:#a9a9a9;stroke-width:2;" x="9" xlink:href="#mc8b79a88c5" y="77.76"/>
      </g>
     </g>
    </g>
   </g>
   <g id="line2d_15">
    <path clip-path="url(#p451f51187b)" d="M 10.86031 88.459759 
L 11.79031 87.594683 
L 12.72031 86.652188 
L 13.65031 86.217552 
L 14.58031 85.896556 
L 15.51031 85.551808 
L 16.44031 85.34544 
L 17.37031 85.200738 
L 18.30031 85.092053 
L 19.23031 85.018813 
L 20.16031 84.945882 
L 21.09031 84.903285 
L 22.02031 84.806936 
L 22.95031 84.752236 
L 23.88031 84.71013 
L 24.81031 84.705927 
L 25.74031 84.648972 
L 26.67031 84.608773 
L 27.60031 84.636998 
L 28.53031 84.621458 
L 29.46031 84.589483 
L 30.39031 84.589358 
L 31.32031 84.569087 
L 32.25031 84.528811 
L 33.18031 84.565731 
L 34.11031 84.532012 
L 35.04031 84.528153 
L 35.97031 84.513337 
L 36.90031 84.498861 
L 37.83031 84.445106 
L 38.76031 84.448571 
L 39.69031 84.400471 
L 40.62031 84.372159 
L 41.55031 84.361586 
L 42.48031 84.354001 
L 43.41031 84.349899 
L 44.34031 84.343186 
L 45.27031 84.338878 
L 46.20031 84.322558 
L 47.13031 84.311455 
L 48.06031 84.29936 
L 48.99031 84.318763 
L 49.92031 84.31563 
L 50.85031 84.317224 
L 51.78031 84.315229 
L 52.71031 84.315897 
L 53.64031 84.330821 
L 54.57031 84.33188 
L 55.50031 84.326108 
L 56.43031 84.328831 
L 57.36031 84.318739 
L 58.29031 84.299614 
L 59.22031 84.300792 
L 60.15031 84.304814 
L 61.08031 84.290628 
L 62.01031 84.287937 
L 62.94031 84.28288 
L 63.87031 84.288008 
" style="fill:none;stroke:#fc8d62;stroke-linecap:square;stroke-width:2;"/>
   </g>
   <g id="line2d_16">
    <path clip-path="url(#p451f51187b)" d="M 10.86031 94.63609 
L 11.79031 93.593818 
L 12.72031 92.725024 
L 13.65031 92.317263 
L 14.58031 92.066648 
L 15.51031 91.905722 
L 16.44031 91.717416 
L 17.37031 91.68783 
L 18.30031 91.457597 
L 19.23031 91.367435 
L 20.16031 91.300764 
L 21.09031 91.215118 
L 22.02031 91.180078 
L 22.95031 91.132238 
L 23.88031 91.05561 
L 24.81031 91.079982 
L 25.74031 91.093714 
L 26.67031 91.060116 
L 27.60031 91.037522 
L 28.53031 91.010306 
L 29.46031 91.027895 
L 30.39031 91.026235 
L 31.32031 91.012735 
L 32.25031 90.986832 
L 33.18031 90.961474 
L 34.11031 90.95431 
L 35.04031 90.957693 
L 35.97031 90.939132 
L 36.90031 90.922655 
L 37.83031 90.918162 
L 38.76031 90.922278 
L 39.69031 90.90959 
L 40.62031 90.918497 
L 41.55031 90.929237 
L 42.48031 90.948339 
L 43.41031 90.949012 
L 44.34031 90.925541 
L 45.27031 90.948542 
L 46.20031 90.945248 
L 47.13031 90.933157 
L 48.06031 90.955825 
L 48.99031 90.956735 
L 49.92031 90.946598 
L 50.85031 90.924943 
L 51.78031 90.940192 
L 52.71031 90.958058 
L 53.64031 90.964756 
L 54.57031 90.95248 
L 55.50031 90.957977 
L 56.43031 90.959373 
L 57.36031 90.939946 
L 58.29031 90.938146 
L 59.22031 90.949292 
L 60.15031 90.937391 
L 61.08031 90.945336 
L 62.01031 90.924834 
L 62.94031 90.915585 
L 63.87031 90.8994 
" style="fill:none;stroke:#fc8d62;stroke-dasharray:1.5,1.5;stroke-dashoffset:0;stroke-opacity:0.7;stroke-width:1.5;"/>
   </g>
   <g id="patch_8">
    <path d="M 9 128.16 
L 9 77.76 
" style="fill:none;stroke:#a9a9a9;stroke-linecap:square;stroke-linejoin:miter;stroke-width:2;"/>
   </g>
   <g id="patch_9">
    <path d="M 64.8 128.16 
L 64.8 77.76 
" style="fill:none;"/>
   </g>
   <g id="patch_10">
    <path d="M 9 128.16 
L 64.8 128.16 
" style="fill:none;stroke:#a9a9a9;stroke-linecap:square;stroke-linejoin:miter;stroke-width:2;"/>
   </g>
   <g id="patch_11">
    <path d="M 9 77.76 
L 64.8 77.76 
" style="fill:none;"/>
   </g>
  </g>
 </g>
 <defs>
  <clipPath id="p22c6a427b5">
   <rect height="50.4" width="55.8" x="9" y="17.28"/>
  </clipPath>
  <clipPath id="p451f51187b">
   <rect height="50.4" width="55.8" x="9" y="77.76"/>
  </clipPath>
 </defs>
</svg>
