<?xml version="1.0" encoding="utf-8" standalone="no"?>
<!DOCTYPE svg PUBLIC "-//W3C//DTD SVG 1.1//EN"
  "http://www.w3.org/Graphics/SVG/1.1/DTD/svg11.dtd">
<!-- Created with matplotlib (https://matplotlib.org/) -->
<svg height="144pt" version="1.1" viewBox="0 0 72 144" width="72pt" xmlns="http://www.w3.org/2000/svg" xmlns:xlink="http://www.w3.org/1999/xlink">
 <metadata>
  <rdf:RDF xmlns:cc="http://creativecommons.org/ns#" xmlns:dc="http://purl.org/dc/elements/1.1/" xmlns:rdf="http://www.w3.org/1999/02/22-rdf-syntax-ns#">
   <cc:Work>
    <dc:type rdf:resource="http://purl.org/dc/dcmitype/StillImage"/>
    <dc:date>2021-10-14T19:27:30.303440</dc:date>
    <dc:format>image/svg+xml</dc:format>
    <dc:creator>
     <cc:Agent>
      <dc:title>Matplotlib v3.3.2, https://matplotlib.org/</dc:title>
     </cc:Agent>
    </dc:creator>
   </cc:Work>
  </rdf:RDF>
 </metadata>
 <defs>
  <style type="text/css">*{stroke-linecap:butt;stroke-linejoin:round;}</style>
 </defs>
 <g id="figure_1">
  <g id="patch_1">
   <path d="M 0 144 
L 72 144 
L 72 0 
L 0 0 
z
" style="fill:none;"/>
  </g>
  <g id="axes_1">
   <g id="patch_2">
    <path d="M 9 67.68 
L 64.8 67.68 
L 64.8 17.28 
L 9 17.28 
z
" style="fill:none;"/>
   </g>
   <g id="matplotlib.axis_1">
    <g id="xtick_1">
     <g id="line2d_1">
      <defs>
       <path d="M 0 0 
L 0 3.5 
" id="mf176a1eb3c" style="stroke:#a9a9a9;stroke-width:2;"/>
      </defs>
      <g>
       <use style="fill:#a9a9a9;stroke:#a9a9a9;stroke-width:2;" x="9" xlink:href="#mf176a1eb3c" y="67.68"/>
      </g>
     </g>
    </g>
    <g id="xtick_2">
     <g id="line2d_2">
      <g>
       <use style="fill:#a9a9a9;stroke:#a9a9a9;stroke-width:2;" x="36.9" xlink:href="#mf176a1eb3c" y="67.68"/>
      </g>
     </g>
    </g>
    <g id="xtick_3">
     <g id="line2d_3">
      <g>
       <use style="fill:#a9a9a9;stroke:#a9a9a9;stroke-width:2;" x="64.8" xlink:href="#mf176a1eb3c" y="67.68"/>
      </g>
     </g>
    </g>
   </g>
   <g id="matplotlib.axis_2">
    <g id="ytick_1">
     <g id="line2d_4">
      <defs>
       <path d="M 0 0 
L -3.5 0 
" id="med011fc299" style="stroke:#a9a9a9;stroke-width:2;"/>
      </defs>
      <g>
       <use style="fill:#a9a9a9;stroke:#a9a9a9;stroke-width:2;" x="9" xlink:href="#med011fc299" y="67.68"/>
      </g>
     </g>
    </g>
    <g id="ytick_2">
     <g id="line2d_5">
      <g>
       <use style="fill:#a9a9a9;stroke:#a9a9a9;stroke-width:2;" x="9" xlink:href="#med011fc299" y="61.765708"/>
      </g>
     </g>
    </g>
    <g id="ytick_3">
     <g id="line2d_6">
      <g>
       <use style="fill:#a9a9a9;stroke:#a9a9a9;stroke-width:2;" x="9" xlink:href="#med011fc299" y="55.851416"/>
      </g>
     </g>
    </g>
   </g>
   <g id="line2d_7">
    <path clip-path="url(#pb6a68b1193)" d="M 10.860031 59.445984 
L 11.790031 57.934336 
L 12.720031 56.182271 
L 13.650031 55.162132 
L 14.580031 54.592221 
L 15.510031 54.101541 
L 16.440031 53.289661 
L 17.370031 52.375171 
L 18.300031 51.722728 
L 19.230031 50.643481 
L 20.160031 49.505527 
L 21.090031 47.997446 
L 22.020031 46.437193 
L 22.950031 45.176732 
L 23.880031 43.438705 
L 24.810031 42.28704 
L 25.740031 40.076939 
L 26.670031 39.408037 
L 27.600031 38.450049 
L 28.530031 38.153542 
L 29.460031 37.497828 
L 30.390031 36.931792 
L 31.320031 35.633087 
L 32.250031 35.614362 
L 33.180031 34.553644 
L 34.110031 34.416091 
L 35.040031 33.80924 
L 35.970031 33.441145 
L 36.900031 33.389633 
L 37.830031 32.883723 
L 38.760031 32.736713 
L 39.690031 32.680241 
L 40.620031 32.672663 
L 41.550031 32.249108 
L 42.480031 31.348578 
L 43.410031 29.813612 
L 44.340031 28.56905 
L 45.270031 27.935204 
L 46.200031 26.888668 
L 47.130031 26.660715 
L 48.060031 25.175321 
L 48.990031 24.129286 
L 49.920031 23.733721 
L 50.850031 23.73487 
L 51.780031 23.377088 
L 52.710031 22.811535 
L 53.640031 22.192765 
L 54.570031 21.096852 
L 55.500031 20.989733 
L 56.430031 20.326337 
L 57.360031 20.062079 
L 58.290031 19.767271 
L 59.220031 19.138044 
L 60.150031 18.832987 
L 61.080031 18.431185 
L 62.010031 17.835585 
L 62.940031 18.252091 
L 63.870031 17.575715 
" style="fill:none;stroke:#fc8d62;stroke-linecap:square;stroke-width:2;"/>
   </g>
   <g id="line2d_8">
    <path clip-path="url(#pb6a68b1193)" d="M 10.860031 58.38987 
L 11.790031 56.756231 
L 12.720031 53.897239 
L 13.650031 53.320226 
L 14.580031 51.546515 
L 15.510031 50.072075 
L 16.440031 48.756115 
L 17.370031 48.081341 
L 18.300031 46.188557 
L 19.230031 44.233649 
L 20.160031 42.874833 
L 21.090031 42.21259 
L 22.020031 40.718946 
L 22.950031 38.897161 
L 23.880031 37.770013 
L 24.810031 36.725037 
L 25.740031 34.983214 
L 26.670031 34.501841 
L 27.600031 33.559979 
L 28.530031 33.448544 
L 29.460031 33.212241 
L 30.390031 32.907094 
L 31.320031 31.451575 
L 32.250031 30.466629 
L 33.180031 29.080191 
L 34.110031 29.028932 
L 35.040031 28.374952 
L 35.970031 28.657194 
L 36.900031 27.497971 
L 37.830031 25.998779 
L 38.760031 25.076292 
L 39.690031 24.572081 
L 40.620031 23.636054 
L 41.550031 22.997563 
L 42.480031 22.204426 
L 43.410031 21.654377 
L 44.340031 22.217044 
L 45.270031 21.578513 
L 46.200031 21.363503 
L 47.130031 20.309183 
L 48.060031 19.615726 
L 48.990031 19.293686 
L 49.920031 19.151505 
L 50.850031 19.137873 
L 51.780031 19.228994 
L 52.710031 18.26921 
L 53.640031 17.302302 
L 54.570031 16.158944 
L 55.500031 14.540578 
L 56.430031 13.607522 
L 57.360031 13.597581 
L 58.290031 13.707365 
L 59.220031 13.788325 
L 60.150031 12.595285 
L 61.080031 13.404555 
L 62.010031 12.99859 
L 62.940031 12.568343 
L 63.870031 11.988821 
" style="fill:none;stroke:#fc8d62;stroke-dasharray:1.5,1.5;stroke-dashoffset:0;stroke-opacity:0.7;stroke-width:1.5;"/>
   </g>
   <g id="patch_3">
    <path d="M 9 67.68 
L 9 17.28 
" style="fill:none;stroke:#a9a9a9;stroke-linecap:square;stroke-linejoin:miter;stroke-width:2;"/>
   </g>
   <g id="patch_4">
    <path d="M 64.8 67.68 
L 64.8 17.28 
" style="fill:none;"/>
   </g>
   <g id="patch_5">
    <path d="M 9 67.68 
L 64.8 67.68 
" style="fill:none;stroke:#a9a9a9;stroke-linecap:square;stroke-linejoin:miter;stroke-width:2;"/>
   </g>
   <g id="patch_6">
    <path d="M 9 17.28 
L 64.8 17.28 
" style="fill:none;"/>
   </g>
  </g>
  <g id="axes_2">
   <g id="patch_7">
    <path d="M 9 128.16 
L 64.8 128.16 
L 64.8 77.76 
L 9 77.76 
z
" style="fill:none;"/>
   </g>
   <g id="matplotlib.axis_3">
    <g id="xtick_4">
     <g id="line2d_9">
      <g>
       <use style="fill:#a9a9a9;stroke:#a9a9a9;stroke-width:2;" x="9" xlink:href="#mf176a1eb3c" y="128.16"/>
      </g>
     </g>
    </g>
    <g id="xtick_5">
     <g id="line2d_10">
      <g>
       <use style="fill:#a9a9a9;stroke:#a9a9a9;stroke-width:2;" x="36.9" xlink:href="#mf176a1eb3c" y="128.16"/>
      </g>
     </g>
    </g>
    <g id="xtick_6">
     <g id="line2d_11">
      <g>
       <use style="fill:#a9a9a9;stroke:#a9a9a9;stroke-width:2;" x="64.8" xlink:href="#mf176a1eb3c" y="128.16"/>
      </g>
     </g>
    </g>
   </g>
   <g id="matplotlib.axis_4">
    <g id="ytick_4">
     <g id="line2d_12">
      <g>
       <use style="fill:#a9a9a9;stroke:#a9a9a9;stroke-width:2;" x="9" xlink:href="#med011fc299" y="128.16"/>
      </g>
     </g>
    </g>
    <g id="ytick_5">
     <g id="line2d_13">
      <g>
       <use style="fill:#a9a9a9;stroke:#a9a9a9;stroke-width:2;" x="9" xlink:href="#med011fc299" y="102.96"/>
      </g>
     </g>
    </g>
    <g id="ytick_6">
     <g id="line2d_14">
      <g>
       <use style="fill:#a9a9a9;stroke:#a9a9a9;stroke-width:2;" x="9" xlink:href="#med011fc299" y="77.76"/>
      </g>
     </g>
    </g>
   </g>
   <g id="line2d_15">
    <path clip-path="url(#pa77d598e8d)" d="M 10.860031 90.747665 
L 11.790031 89.143057 
L 12.720031 88.147765 
L 13.650031 87.676985 
L 14.580031 87.475842 
L 15.510031 87.116003 
L 16.440031 86.839244 
L 17.370031 86.74971 
L 18.300031 86.602529 
L 19.230031 86.492372 
L 20.160031 86.376206 
L 21.090031 86.259474 
L 22.020031 86.140036 
L 22.950031 86.088512 
L 23.880031 86.032464 
L 24.810031 85.993286 
L 25.740031 85.931108 
L 26.670031 85.862991 
L 27.600031 85.840862 
L 28.530031 85.827026 
L 29.460031 85.819406 
L 30.390031 85.778406 
L 31.320031 85.774523 
L 32.250031 85.749562 
L 33.180031 85.758698 
L 34.110031 85.752659 
L 35.040031 85.726167 
L 35.970031 85.715236 
L 36.900031 85.694938 
L 37.830031 85.678841 
L 38.760031 85.646667 
L 39.690031 85.641867 
L 40.620031 85.631935 
L 41.550031 85.630455 
L 42.480031 85.606689 
L 43.410031 85.604462 
L 44.340031 85.59055 
L 45.270031 85.588892 
L 46.200031 85.584708 
L 47.130031 85.586283 
L 48.060031 85.589437 
L 48.990031 85.597551 
L 49.920031 85.575393 
L 50.850031 85.586605 
L 51.780031 85.585828 
L 52.710031 85.584943 
L 53.640031 85.583652 
L 54.570031 85.575856 
L 55.500031 85.577574 
L 56.430031 85.578556 
L 57.360031 85.557148 
L 58.290031 85.562105 
L 59.220031 85.54913 
L 60.150031 85.546387 
L 61.080031 85.545434 
L 62.010031 85.533435 
L 62.940031 85.539733 
L 63.870031 85.540646 
" style="fill:none;stroke:#fc8d62;stroke-linecap:square;stroke-width:2;"/>
   </g>
   <g id="line2d_16">
    <path clip-path="url(#pa77d598e8d)" d="M 10.860031 94.638433 
L 11.790031 93.369552 
L 12.720031 92.478822 
L 13.650031 92.143083 
L 14.580031 91.585114 
L 15.510031 91.412716 
L 16.440031 91.229502 
L 17.370031 91.090258 
L 18.300031 90.971087 
L 19.230031 90.985042 
L 20.160031 90.940834 
L 21.090031 90.924822 
L 22.020031 90.884601 
L 22.950031 90.903934 
L 23.880031 90.86154 
L 24.810031 90.846415 
L 25.740031 90.78906 
L 26.670031 90.74415 
L 27.600031 90.721412 
L 28.530031 90.71777 
L 29.460031 90.645258 
L 30.390031 90.665745 
L 31.320031 90.656253 
L 32.250031 90.640755 
L 33.180031 90.585805 
L 34.110031 90.555554 
L 35.040031 90.520445 
L 35.970031 90.518093 
L 36.900031 90.508263 
L 37.830031 90.501159 
L 38.760031 90.471928 
L 39.690031 90.472709 
L 40.620031 90.457739 
L 41.550031 90.45025 
L 42.480031 90.460889 
L 43.410031 90.470108 
L 44.340031 90.479311 
L 45.270031 90.486694 
L 46.200031 90.470123 
L 47.130031 90.473644 
L 48.060031 90.477954 
L 48.990031 90.48608 
L 49.920031 90.488687 
L 50.850031 90.490079 
L 51.780031 90.493623 
L 52.710031 90.477534 
L 53.640031 90.466923 
L 54.570031 90.433989 
L 55.500031 90.440831 
L 56.430031 90.434327 
L 57.360031 90.424066 
L 58.290031 90.429042 
L 59.220031 90.406977 
L 60.150031 90.404219 
L 61.080031 90.398509 
L 62.010031 90.395045 
L 62.940031 90.364745 
L 63.870031 90.364416 
" style="fill:none;stroke:#fc8d62;stroke-dasharray:1.5,1.5;stroke-dashoffset:0;stroke-opacity:0.7;stroke-width:1.5;"/>
   </g>
   <g id="patch_8">
    <path d="M 9 128.16 
L 9 77.76 
" style="fill:none;stroke:#a9a9a9;stroke-linecap:square;stroke-linejoin:miter;stroke-width:2;"/>
   </g>
   <g id="patch_9">
    <path d="M 64.8 128.16 
L 64.8 77.76 
" style="fill:none;"/>
   </g>
   <g id="patch_10">
    <path d="M 9 128.16 
L 64.8 128.16 
" style="fill:none;stroke:#a9a9a9;stroke-linecap:square;stroke-linejoin:miter;stroke-width:2;"/>
   </g>
   <g id="patch_11">
    <path d="M 9 77.76 
L 64.8 77.76 
" style="fill:none;"/>
   </g>
  </g>
 </g>
 <defs>
  <clipPath id="pb6a68b1193">
   <rect height="50.4" width="55.8" x="9" y="17.28"/>
  </clipPath>
  <clipPath id="pa77d598e8d">
   <rect height="50.4" width="55.8" x="9" y="77.76"/>
  </clipPath>
 </defs>
</svg>
