<?xml version="1.0" encoding="utf-8" standalone="no"?>
<!DOCTYPE svg PUBLIC "-//W3C//DTD SVG 1.1//EN"
  "http://www.w3.org/Graphics/SVG/1.1/DTD/svg11.dtd">
<!-- Created with matplotlib (https://matplotlib.org/) -->
<svg height="144pt" version="1.1" viewBox="0 0 72 144" width="72pt" xmlns="http://www.w3.org/2000/svg" xmlns:xlink="http://www.w3.org/1999/xlink">
 <metadata>
  <rdf:RDF xmlns:cc="http://creativecommons.org/ns#" xmlns:dc="http://purl.org/dc/elements/1.1/" xmlns:rdf="http://www.w3.org/1999/02/22-rdf-syntax-ns#">
   <cc:Work>
    <dc:type rdf:resource="http://purl.org/dc/dcmitype/StillImage"/>
    <dc:date>2021-10-14T20:06:25.164986</dc:date>
    <dc:format>image/svg+xml</dc:format>
    <dc:creator>
     <cc:Agent>
      <dc:title>Matplotlib v3.3.2, https://matplotlib.org/</dc:title>
     </cc:Agent>
    </dc:creator>
   </cc:Work>
  </rdf:RDF>
 </metadata>
 <defs>
  <style type="text/css">*{stroke-linecap:butt;stroke-linejoin:round;}</style>
 </defs>
 <g id="figure_1">
  <g id="patch_1">
   <path d="M 0 144 
L 72 144 
L 72 0 
L 0 0 
z
" style="fill:none;"/>
  </g>
  <g id="axes_1">
   <g id="patch_2">
    <path d="M 9 67.68 
L 64.8 67.68 
L 64.8 17.28 
L 9 17.28 
z
" style="fill:none;"/>
   </g>
   <g id="matplotlib.axis_1">
    <g id="xtick_1">
     <g id="line2d_1">
      <defs>
       <path d="M 0 0 
L 0 3.5 
" id="m0a29482790" style="stroke:#a9a9a9;stroke-width:2;"/>
      </defs>
      <g>
       <use style="fill:#a9a9a9;stroke:#a9a9a9;stroke-width:2;" x="9" xlink:href="#m0a29482790" y="67.68"/>
      </g>
     </g>
    </g>
    <g id="xtick_2">
     <g id="line2d_2">
      <g>
       <use style="fill:#a9a9a9;stroke:#a9a9a9;stroke-width:2;" x="36.9" xlink:href="#m0a29482790" y="67.68"/>
      </g>
     </g>
    </g>
    <g id="xtick_3">
     <g id="line2d_3">
      <g>
       <use style="fill:#a9a9a9;stroke:#a9a9a9;stroke-width:2;" x="64.8" xlink:href="#m0a29482790" y="67.68"/>
      </g>
     </g>
    </g>
   </g>
   <g id="matplotlib.axis_2">
    <g id="ytick_1">
     <g id="line2d_4">
      <defs>
       <path d="M 0 0 
L -3.5 0 
" id="m1e079a89fb" style="stroke:#a9a9a9;stroke-width:2;"/>
      </defs>
      <g>
       <use style="fill:#a9a9a9;stroke:#a9a9a9;stroke-width:2;" x="9" xlink:href="#m1e079a89fb" y="67.68"/>
      </g>
     </g>
    </g>
    <g id="ytick_2">
     <g id="line2d_5">
      <g>
       <use style="fill:#a9a9a9;stroke:#a9a9a9;stroke-width:2;" x="9" xlink:href="#m1e079a89fb" y="62.354088"/>
      </g>
     </g>
    </g>
    <g id="ytick_3">
     <g id="line2d_6">
      <g>
       <use style="fill:#a9a9a9;stroke:#a9a9a9;stroke-width:2;" x="9" xlink:href="#m1e079a89fb" y="57.028177"/>
      </g>
     </g>
    </g>
   </g>
   <g id="line2d_7">
    <path clip-path="url(#p961b3a6762)" d="M 10.860031 58.881262 
L 11.790031 57.337919 
L 12.720031 55.145735 
L 13.650031 54.312695 
L 14.580031 52.551642 
L 15.510031 51.59919 
L 16.440031 50.618068 
L 17.370031 48.976074 
L 18.300031 47.615721 
L 19.230031 46.713335 
L 20.160031 45.023095 
L 21.090031 44.17686 
L 22.020031 42.496761 
L 22.950031 41.665362 
L 23.880031 40.721965 
L 24.810031 39.951997 
L 25.740031 38.912077 
L 26.670031 37.213342 
L 27.600031 37.138997 
L 28.530031 36.282217 
L 29.460031 34.928563 
L 30.390031 34.396386 
L 31.320031 33.590205 
L 32.250031 32.694036 
L 33.180031 32.059597 
L 34.110031 31.944167 
L 35.040031 31.756185 
L 35.970031 31.369911 
L 36.900031 30.263033 
L 37.830031 29.151501 
L 38.760031 28.273678 
L 39.690031 27.330533 
L 40.620031 26.71285 
L 41.550031 25.928434 
L 42.480031 24.798714 
L 43.410031 24.594881 
L 44.340031 23.836655 
L 45.270031 23.694096 
L 46.200031 23.670635 
L 47.130031 23.328701 
L 48.060031 22.331443 
L 48.990031 22.050881 
L 49.920031 21.843423 
L 50.850031 21.485287 
L 51.780031 20.891827 
L 52.710031 20.633064 
L 53.640031 20.96739 
L 54.570031 20.830103 
L 55.500031 20.504043 
L 56.430031 20.030459 
L 57.360031 19.751072 
L 58.290031 19.73936 
L 59.220031 19.576011 
L 60.150031 19.836991 
L 61.080031 19.485853 
L 62.010031 18.701991 
L 62.940031 18.066914 
L 63.870031 17.546296 
" style="fill:none;stroke:#fc8d62;stroke-linecap:square;stroke-width:2;"/>
   </g>
   <g id="line2d_8">
    <path clip-path="url(#p961b3a6762)" d="M 10.860031 58.073557 
L 11.790031 55.426733 
L 12.720031 52.818777 
L 13.650031 51.75814 
L 14.580031 50.34262 
L 15.510031 48.937317 
L 16.440031 47.602601 
L 17.370031 47.75768 
L 18.300031 46.677919 
L 19.230031 45.154796 
L 20.160031 44.900303 
L 21.090031 44.335093 
L 22.020031 43.035709 
L 22.950031 41.829582 
L 23.880031 41.160639 
L 24.810031 40.048577 
L 25.740031 38.6679 
L 26.670031 37.943309 
L 27.600031 37.508065 
L 28.530031 36.724342 
L 29.460031 36.081531 
L 30.390031 34.752131 
L 31.320031 34.150952 
L 32.250031 32.765226 
L 33.180031 32.344321 
L 34.110031 32.323138 
L 35.040031 31.717716 
L 35.970031 31.296291 
L 36.900031 31.070639 
L 37.830031 30.431769 
L 38.760031 29.837072 
L 39.690031 29.805341 
L 40.620031 29.799865 
L 41.550031 28.792866 
L 42.480031 28.370169 
L 43.410031 28.057783 
L 44.340031 27.126922 
L 45.270031 26.439922 
L 46.200031 24.872737 
L 47.130031 24.36153 
L 48.060031 23.878975 
L 48.990031 22.93665 
L 49.920031 22.584311 
L 50.850031 22.722533 
L 51.780031 21.613319 
L 52.710031 20.585038 
L 53.640031 18.997974 
L 54.570031 17.90838 
L 55.500031 17.177502 
L 56.430031 16.584281 
L 57.360031 16.185475 
L 58.290031 15.266669 
L 59.220031 15.758489 
L 60.150031 15.931328 
L 61.080031 16.227582 
L 62.010031 16.029278 
L 62.940031 15.646907 
L 63.870031 15.806685 
" style="fill:none;stroke:#fc8d62;stroke-dasharray:1.5,1.5;stroke-dashoffset:0;stroke-opacity:0.7;stroke-width:1.5;"/>
   </g>
   <g id="patch_3">
    <path d="M 9 67.68 
L 9 17.28 
" style="fill:none;stroke:#a9a9a9;stroke-linecap:square;stroke-linejoin:miter;stroke-width:2;"/>
   </g>
   <g id="patch_4">
    <path d="M 64.8 67.68 
L 64.8 17.28 
" style="fill:none;"/>
   </g>
   <g id="patch_5">
    <path d="M 9 67.68 
L 64.8 67.68 
" style="fill:none;stroke:#a9a9a9;stroke-linecap:square;stroke-linejoin:miter;stroke-width:2;"/>
   </g>
   <g id="patch_6">
    <path d="M 9 17.28 
L 64.8 17.28 
" style="fill:none;"/>
   </g>
  </g>
  <g id="axes_2">
   <g id="patch_7">
    <path d="M 9 128.16 
L 64.8 128.16 
L 64.8 77.76 
L 9 77.76 
z
" style="fill:none;"/>
   </g>
   <g id="matplotlib.axis_3">
    <g id="xtick_4">
     <g id="line2d_9">
      <g>
       <use style="fill:#a9a9a9;stroke:#a9a9a9;stroke-width:2;" x="9" xlink:href="#m0a29482790" y="128.16"/>
      </g>
     </g>
    </g>
    <g id="xtick_5">
     <g id="line2d_10">
      <g>
       <use style="fill:#a9a9a9;stroke:#a9a9a9;stroke-width:2;" x="36.9" xlink:href="#m0a29482790" y="128.16"/>
      </g>
     </g>
    </g>
    <g id="xtick_6">
     <g id="line2d_11">
      <g>
       <use style="fill:#a9a9a9;stroke:#a9a9a9;stroke-width:2;" x="64.8" xlink:href="#m0a29482790" y="128.16"/>
      </g>
     </g>
    </g>
   </g>
   <g id="matplotlib.axis_4">
    <g id="ytick_4">
     <g id="line2d_12">
      <g>
       <use style="fill:#a9a9a9;stroke:#a9a9a9;stroke-width:2;" x="9" xlink:href="#m1e079a89fb" y="128.16"/>
      </g>
     </g>
    </g>
    <g id="ytick_5">
     <g id="line2d_13">
      <g>
       <use style="fill:#a9a9a9;stroke:#a9a9a9;stroke-width:2;" x="9" xlink:href="#m1e079a89fb" y="102.96"/>
      </g>
     </g>
    </g>
    <g id="ytick_6">
     <g id="line2d_14">
      <g>
       <use style="fill:#a9a9a9;stroke:#a9a9a9;stroke-width:2;" x="9" xlink:href="#m1e079a89fb" y="77.76"/>
      </g>
     </g>
    </g>
   </g>
   <g id="line2d_15">
    <path clip-path="url(#pc21bd09186)" d="M 10.860031 105.69087 
L 11.790031 104.485361 
L 12.720031 103.655017 
L 13.650031 103.289862 
L 14.580031 102.999818 
L 15.510031 102.88586 
L 16.440031 102.824446 
L 17.370031 102.595587 
L 18.300031 102.441832 
L 19.230031 102.41471 
L 20.160031 102.320862 
L 21.090031 102.301576 
L 22.020031 102.227764 
L 22.950031 102.189113 
L 23.880031 102.084782 
L 24.810031 102.03595 
L 25.740031 102.03129 
L 26.670031 101.996297 
L 27.600031 101.952858 
L 28.530031 101.902119 
L 29.460031 101.872412 
L 30.390031 101.852598 
L 31.320031 101.862472 
L 32.250031 101.849423 
L 33.180031 101.870265 
L 34.110031 101.836646 
L 35.040031 101.842715 
L 35.970031 101.822361 
L 36.900031 101.807656 
L 37.830031 101.773113 
L 38.760031 101.742433 
L 39.690031 101.728073 
L 40.620031 101.766908 
L 41.550031 101.752034 
L 42.480031 101.747694 
L 43.410031 101.70895 
L 44.340031 101.725818 
L 45.270031 101.723985 
L 46.200031 101.70973 
L 47.130031 101.683988 
L 48.060031 101.676511 
L 48.990031 101.677074 
L 49.920031 101.678742 
L 50.850031 101.698957 
L 51.780031 101.734069 
L 52.710031 101.707063 
L 53.640031 101.684624 
L 54.570031 101.703067 
L 55.500031 101.696164 
L 56.430031 101.698396 
L 57.360031 101.720667 
L 58.290031 101.732793 
L 59.220031 101.736733 
L 60.150031 101.745113 
L 61.080031 101.757698 
L 62.010031 101.745211 
L 62.940031 101.759572 
L 63.870031 101.758834 
" style="fill:none;stroke:#fc8d62;stroke-linecap:square;stroke-width:2;"/>
   </g>
   <g id="line2d_16">
    <path clip-path="url(#pc21bd09186)" d="M 10.860031 95.722253 
L 11.790031 94.548778 
L 12.720031 93.952158 
L 13.650031 93.860651 
L 14.580031 93.514068 
L 15.510031 93.384371 
L 16.440031 93.356686 
L 17.370031 93.354604 
L 18.300031 93.374122 
L 19.230031 93.316842 
L 20.160031 93.244963 
L 21.090031 93.15371 
L 22.020031 93.109136 
L 22.950031 93.092127 
L 23.880031 93.124899 
L 24.810031 93.062172 
L 25.740031 93.007566 
L 26.670031 93.005886 
L 27.600031 92.987217 
L 28.530031 93.032196 
L 29.460031 93.009917 
L 30.390031 92.987635 
L 31.320031 92.961604 
L 32.250031 92.954307 
L 33.180031 92.965352 
L 34.110031 92.963423 
L 35.040031 92.954896 
L 35.970031 92.919149 
L 36.900031 92.916859 
L 37.830031 92.892647 
L 38.760031 92.890065 
L 39.690031 92.874546 
L 40.620031 92.853682 
L 41.550031 92.882165 
L 42.480031 92.859945 
L 43.410031 92.863987 
L 44.340031 92.853726 
L 45.270031 92.83661 
L 46.200031 92.835583 
L 47.130031 92.83058 
L 48.060031 92.804948 
L 48.990031 92.810541 
L 49.920031 92.81363 
L 50.850031 92.80095 
L 51.780031 92.796625 
L 52.710031 92.779238 
L 53.640031 92.773961 
L 54.570031 92.780445 
L 55.500031 92.778216 
L 56.430031 92.775231 
L 57.360031 92.756907 
L 58.290031 92.775483 
L 59.220031 92.783935 
L 60.150031 92.780086 
L 61.080031 92.771595 
L 62.010031 92.780282 
L 62.940031 92.785209 
L 63.870031 92.772755 
" style="fill:none;stroke:#fc8d62;stroke-dasharray:1.5,1.5;stroke-dashoffset:0;stroke-opacity:0.7;stroke-width:1.5;"/>
   </g>
   <g id="patch_8">
    <path d="M 9 128.16 
L 9 77.76 
" style="fill:none;stroke:#a9a9a9;stroke-linecap:square;stroke-linejoin:miter;stroke-width:2;"/>
   </g>
   <g id="patch_9">
    <path d="M 64.8 128.16 
L 64.8 77.76 
" style="fill:none;"/>
   </g>
   <g id="patch_10">
    <path d="M 9 128.16 
L 64.8 128.16 
" style="fill:none;stroke:#a9a9a9;stroke-linecap:square;stroke-linejoin:miter;stroke-width:2;"/>
   </g>
   <g id="patch_11">
    <path d="M 9 77.76 
L 64.8 77.76 
" style="fill:none;"/>
   </g>
  </g>
 </g>
 <defs>
  <clipPath id="p961b3a6762">
   <rect height="50.4" width="55.8" x="9" y="17.28"/>
  </clipPath>
  <clipPath id="pc21bd09186">
   <rect height="50.4" width="55.8" x="9" y="77.76"/>
  </clipPath>
 </defs>
</svg>
