<?xml version="1.0" encoding="utf-8" standalone="no"?>
<!DOCTYPE svg PUBLIC "-//W3C//DTD SVG 1.1//EN"
  "http://www.w3.org/Graphics/SVG/1.1/DTD/svg11.dtd">
<!-- Created with matplotlib (https://matplotlib.org/) -->
<svg height="144pt" version="1.1" viewBox="0 0 72 144" width="72pt" xmlns="http://www.w3.org/2000/svg" xmlns:xlink="http://www.w3.org/1999/xlink">
 <metadata>
  <rdf:RDF xmlns:cc="http://creativecommons.org/ns#" xmlns:dc="http://purl.org/dc/elements/1.1/" xmlns:rdf="http://www.w3.org/1999/02/22-rdf-syntax-ns#">
   <cc:Work>
    <dc:type rdf:resource="http://purl.org/dc/dcmitype/StillImage"/>
    <dc:date>2021-10-13T15:31:41.755869</dc:date>
    <dc:format>image/svg+xml</dc:format>
    <dc:creator>
     <cc:Agent>
      <dc:title>Matplotlib v3.3.2, https://matplotlib.org/</dc:title>
     </cc:Agent>
    </dc:creator>
   </cc:Work>
  </rdf:RDF>
 </metadata>
 <defs>
  <style type="text/css">*{stroke-linecap:butt;stroke-linejoin:round;}</style>
 </defs>
 <g id="figure_1">
  <g id="patch_1">
   <path d="M 0 144 
L 72 144 
L 72 0 
L 0 0 
z
" style="fill:none;"/>
  </g>
  <g id="axes_1">
   <g id="patch_2">
    <path d="M 9 67.68 
L 64.8 67.68 
L 64.8 17.28 
L 9 17.28 
z
" style="fill:none;"/>
   </g>
   <g id="matplotlib.axis_1">
    <g id="xtick_1">
     <g id="line2d_1">
      <defs>
       <path d="M 0 0 
L 0 3.5 
" id="mf28d36095d" style="stroke:#a9a9a9;stroke-width:2;"/>
      </defs>
      <g>
       <use style="fill:#a9a9a9;stroke:#a9a9a9;stroke-width:2;" x="9" xlink:href="#mf28d36095d" y="67.68"/>
      </g>
     </g>
    </g>
    <g id="xtick_2">
     <g id="line2d_2">
      <g>
       <use style="fill:#a9a9a9;stroke:#a9a9a9;stroke-width:2;" x="36.9" xlink:href="#mf28d36095d" y="67.68"/>
      </g>
     </g>
    </g>
    <g id="xtick_3">
     <g id="line2d_3">
      <g>
       <use style="fill:#a9a9a9;stroke:#a9a9a9;stroke-width:2;" x="64.8" xlink:href="#mf28d36095d" y="67.68"/>
      </g>
     </g>
    </g>
   </g>
   <g id="matplotlib.axis_2">
    <g id="ytick_1">
     <g id="line2d_4">
      <defs>
       <path d="M 0 0 
L -3.5 0 
" id="m33743e1b0a" style="stroke:#a9a9a9;stroke-width:2;"/>
      </defs>
      <g>
       <use style="fill:#a9a9a9;stroke:#a9a9a9;stroke-width:2;" x="9" xlink:href="#m33743e1b0a" y="67.68"/>
      </g>
     </g>
    </g>
    <g id="ytick_2">
     <g id="line2d_5">
      <g>
       <use style="fill:#a9a9a9;stroke:#a9a9a9;stroke-width:2;" x="9" xlink:href="#m33743e1b0a" y="42.48"/>
      </g>
     </g>
    </g>
    <g id="ytick_3">
     <g id="line2d_6">
      <g>
       <use style="fill:#a9a9a9;stroke:#a9a9a9;stroke-width:2;" x="9" xlink:href="#m33743e1b0a" y="17.28"/>
      </g>
     </g>
    </g>
   </g>
   <g id="line2d_7">
    <path clip-path="url(#pbb7e775dc0)" d="M 10.86031 54.104979 
L 11.79031 54.01048 
L 12.72031 53.493958 
L 13.65031 52.596808 
L 14.58031 52.496327 
L 15.51031 51.723933 
L 16.44031 51.377769 
L 17.37031 50.700474 
L 18.30031 50.068905 
L 19.23031 49.790269 
L 20.16031 49.328377 
L 21.09031 48.485507 
L 22.02031 47.115734 
L 22.95031 46.194251 
L 23.88031 45.966821 
L 24.81031 44.763648 
L 25.74031 44.241119 
L 26.67031 44.029919 
L 27.60031 44.010215 
L 28.53031 42.954021 
L 29.46031 43.06669 
L 30.39031 42.23612 
L 31.32031 41.952637 
L 32.25031 41.412123 
L 33.18031 40.471316 
L 34.11031 39.658995 
L 35.04031 39.291577 
L 35.97031 38.645473 
L 36.90031 38.524983 
L 37.83031 37.672796 
L 38.76031 37.458055 
L 39.69031 36.504679 
L 40.62031 35.531877 
L 41.55031 34.867208 
L 42.48031 34.522438 
L 43.41031 34.658012 
L 44.34031 34.550639 
L 45.27031 34.160126 
L 46.20031 33.692388 
L 47.13031 32.917941 
L 48.06031 32.272517 
L 48.99031 31.834313 
L 49.92031 31.740442 
L 50.85031 31.349465 
L 51.78031 30.853299 
L 52.71031 30.613306 
L 53.64031 29.128593 
L 54.57031 28.8842 
L 55.50031 28.825843 
L 56.43031 28.957037 
L 57.36031 28.608948 
L 58.29031 27.65363 
L 59.22031 27.641558 
L 60.15031 27.337129 
L 61.08031 26.926044 
L 62.01031 26.410925 
L 62.94031 25.568672 
L 63.87031 25.431161 
" style="fill:none;stroke:#fc8d62;stroke-linecap:square;stroke-width:2;"/>
   </g>
   <g id="line2d_8">
    <path clip-path="url(#pbb7e775dc0)" d="M 10.86031 54.809759 
L 11.79031 53.661144 
L 12.72031 52.381761 
L 13.65031 52.013363 
L 14.58031 51.065426 
L 15.51031 49.973015 
L 16.44031 49.967382 
L 17.37031 49.746718 
L 18.30031 48.572041 
L 19.23031 48.266961 
L 20.16031 47.518149 
L 21.09031 46.1733 
L 22.02031 45.366766 
L 22.95031 44.561913 
L 23.88031 44.410925 
L 24.81031 43.389113 
L 25.74031 42.631222 
L 26.67031 42.116312 
L 27.60031 41.623375 
L 28.53031 41.250006 
L 29.46031 40.81407 
L 30.39031 39.661015 
L 31.32031 39.319863 
L 32.25031 38.916869 
L 33.18031 38.184382 
L 34.11031 37.733088 
L 35.04031 37.532627 
L 35.97031 37.542129 
L 36.90031 36.849594 
L 37.83031 36.396196 
L 38.76031 36.013379 
L 39.69031 35.369478 
L 40.62031 34.744787 
L 41.55031 34.212426 
L 42.48031 33.854753 
L 43.41031 32.783253 
L 44.34031 32.58057 
L 45.27031 31.234684 
L 46.20031 30.866899 
L 47.13031 30.723181 
L 48.06031 30.160428 
L 48.99031 29.891774 
L 49.92031 29.687453 
L 50.85031 29.106288 
L 51.78031 28.970709 
L 52.71031 28.75691 
L 53.64031 28.21535 
L 54.57031 27.40624 
L 55.50031 26.841156 
L 56.43031 27.166561 
L 57.36031 26.732156 
L 58.29031 26.423793 
L 59.22031 26.62458 
L 60.15031 26.356159 
L 61.08031 25.993342 
L 62.01031 25.534647 
L 62.94031 25.438856 
L 63.87031 25.578095 
" style="fill:none;stroke:#fc8d62;stroke-dasharray:1.5,1.5;stroke-dashoffset:0;stroke-opacity:0.7;stroke-width:1.5;"/>
   </g>
   <g id="patch_3">
    <path d="M 9 67.68 
L 9 17.28 
" style="fill:none;stroke:#a9a9a9;stroke-linecap:square;stroke-linejoin:miter;stroke-width:2;"/>
   </g>
   <g id="patch_4">
    <path d="M 64.8 67.68 
L 64.8 17.28 
" style="fill:none;"/>
   </g>
   <g id="patch_5">
    <path d="M 9 67.68 
L 64.8 67.68 
" style="fill:none;stroke:#a9a9a9;stroke-linecap:square;stroke-linejoin:miter;stroke-width:2;"/>
   </g>
   <g id="patch_6">
    <path d="M 9 17.28 
L 64.8 17.28 
" style="fill:none;"/>
   </g>
  </g>
  <g id="axes_2">
   <g id="patch_7">
    <path d="M 9 128.16 
L 64.8 128.16 
L 64.8 77.76 
L 9 77.76 
z
" style="fill:none;"/>
   </g>
   <g id="matplotlib.axis_3">
    <g id="xtick_4">
     <g id="line2d_9">
      <g>
       <use style="fill:#a9a9a9;stroke:#a9a9a9;stroke-width:2;" x="9" xlink:href="#mf28d36095d" y="128.16"/>
      </g>
     </g>
    </g>
    <g id="xtick_5">
     <g id="line2d_10">
      <g>
       <use style="fill:#a9a9a9;stroke:#a9a9a9;stroke-width:2;" x="36.9" xlink:href="#mf28d36095d" y="128.16"/>
      </g>
     </g>
    </g>
    <g id="xtick_6">
     <g id="line2d_11">
      <g>
       <use style="fill:#a9a9a9;stroke:#a9a9a9;stroke-width:2;" x="64.8" xlink:href="#mf28d36095d" y="128.16"/>
      </g>
     </g>
    </g>
   </g>
   <g id="matplotlib.axis_4">
    <g id="ytick_4">
     <g id="line2d_12">
      <g>
       <use style="fill:#a9a9a9;stroke:#a9a9a9;stroke-width:2;" x="9" xlink:href="#m33743e1b0a" y="128.16"/>
      </g>
     </g>
    </g>
    <g id="ytick_5">
     <g id="line2d_13">
      <g>
       <use style="fill:#a9a9a9;stroke:#a9a9a9;stroke-width:2;" x="9" xlink:href="#m33743e1b0a" y="102.96"/>
      </g>
     </g>
    </g>
    <g id="ytick_6">
     <g id="line2d_14">
      <g>
       <use style="fill:#a9a9a9;stroke:#a9a9a9;stroke-width:2;" x="9" xlink:href="#m33743e1b0a" y="77.76"/>
      </g>
     </g>
    </g>
   </g>
   <g id="line2d_15">
    <path clip-path="url(#p986b6eaf15)" d="M 10.86031 118.696224 
L 11.79031 115.970456 
L 12.72031 112.560714 
L 13.65031 110.573497 
L 14.58031 109.034692 
L 15.51031 107.45216 
L 16.44031 106.401263 
L 17.37031 104.823314 
L 18.30031 103.848419 
L 19.23031 103.06209 
L 20.16031 102.295725 
L 21.09031 101.448082 
L 22.02031 100.49188 
L 22.95031 99.554566 
L 23.88031 99.145939 
L 24.81031 98.50375 
L 25.74031 97.950761 
L 26.67031 97.631753 
L 27.60031 97.343481 
L 28.53031 96.977686 
L 29.46031 96.758171 
L 30.39031 96.396034 
L 31.32031 96.285113 
L 32.25031 96.004307 
L 33.18031 95.672815 
L 34.11031 95.431896 
L 35.04031 95.299898 
L 35.97031 94.988224 
L 36.90031 94.695225 
L 37.83031 94.562296 
L 38.76031 94.378587 
L 39.69031 94.045651 
L 40.62031 93.682105 
L 41.55031 93.503073 
L 42.48031 93.308121 
L 43.41031 93.25405 
L 44.34031 93.06365 
L 45.27031 92.955401 
L 46.20031 92.824829 
L 47.13031 92.611677 
L 48.06031 92.541903 
L 48.99031 92.397945 
L 49.92031 92.311669 
L 50.85031 92.237855 
L 51.78031 92.206388 
L 52.71031 92.182145 
L 53.64031 91.971146 
L 54.57031 91.997187 
L 55.50031 91.883156 
L 56.43031 91.828347 
L 57.36031 91.807849 
L 58.29031 91.763913 
L 59.22031 91.645898 
L 60.15031 91.676498 
L 61.08031 91.618112 
L 62.01031 91.489378 
L 62.94031 91.416923 
L 63.87031 91.417554 
" style="fill:none;stroke:#fc8d62;stroke-linecap:square;stroke-width:2;"/>
   </g>
   <g id="line2d_16">
    <path clip-path="url(#p986b6eaf15)" d="M 10.86031 119.133453 
L 11.79031 115.412967 
L 12.72031 112.964733 
L 13.65031 111.167985 
L 14.58031 109.308792 
L 15.51031 107.5534 
L 16.44031 107.179348 
L 17.37031 106.329639 
L 18.30031 105.156894 
L 19.23031 104.377601 
L 20.16031 103.742807 
L 21.09031 102.732151 
L 22.02031 102.243258 
L 22.95031 101.842187 
L 23.88031 101.664187 
L 24.81031 100.979615 
L 25.74031 100.693981 
L 26.67031 100.362575 
L 27.60031 100.177564 
L 28.53031 99.901216 
L 29.46031 99.586036 
L 30.39031 99.198261 
L 31.32031 99.01339 
L 32.25031 98.987572 
L 33.18031 98.679747 
L 34.11031 98.513908 
L 35.04031 98.298919 
L 35.97031 98.083991 
L 36.90031 97.856435 
L 37.83031 97.751605 
L 38.76031 97.65943 
L 39.69031 97.516371 
L 40.62031 97.231422 
L 41.55031 97.173965 
L 42.48031 97.061332 
L 43.41031 96.96783 
L 44.34031 96.746222 
L 45.27031 96.557096 
L 46.20031 96.390905 
L 47.13031 96.39705 
L 48.06031 96.206649 
L 48.99031 96.114834 
L 49.92031 96.115326 
L 50.85031 95.977269 
L 51.78031 95.957172 
L 52.71031 95.880114 
L 53.64031 95.804795 
L 54.57031 95.715714 
L 55.50031 95.619174 
L 56.43031 95.595267 
L 57.36031 95.505937 
L 58.29031 95.454354 
L 59.22031 95.327682 
L 60.15031 95.288013 
L 61.08031 95.276844 
L 62.01031 95.184068 
L 62.94031 95.147961 
L 63.87031 95.170539 
" style="fill:none;stroke:#fc8d62;stroke-dasharray:1.5,1.5;stroke-dashoffset:0;stroke-opacity:0.7;stroke-width:1.5;"/>
   </g>
   <g id="patch_8">
    <path d="M 9 128.16 
L 9 77.76 
" style="fill:none;stroke:#a9a9a9;stroke-linecap:square;stroke-linejoin:miter;stroke-width:2;"/>
   </g>
   <g id="patch_9">
    <path d="M 64.8 128.16 
L 64.8 77.76 
" style="fill:none;"/>
   </g>
   <g id="patch_10">
    <path d="M 9 128.16 
L 64.8 128.16 
" style="fill:none;stroke:#a9a9a9;stroke-linecap:square;stroke-linejoin:miter;stroke-width:2;"/>
   </g>
   <g id="patch_11">
    <path d="M 9 77.76 
L 64.8 77.76 
" style="fill:none;"/>
   </g>
  </g>
 </g>
 <defs>
  <clipPath id="pbb7e775dc0">
   <rect height="50.4" width="55.8" x="9" y="17.28"/>
  </clipPath>
  <clipPath id="p986b6eaf15">
   <rect height="50.4" width="55.8" x="9" y="77.76"/>
  </clipPath>
 </defs>
</svg>
