<?xml version="1.0" encoding="utf-8" standalone="no"?>
<!DOCTYPE svg PUBLIC "-//W3C//DTD SVG 1.1//EN"
  "http://www.w3.org/Graphics/SVG/1.1/DTD/svg11.dtd">
<!-- Created with matplotlib (https://matplotlib.org/) -->
<svg height="144pt" version="1.1" viewBox="0 0 72 144" width="72pt" xmlns="http://www.w3.org/2000/svg" xmlns:xlink="http://www.w3.org/1999/xlink">
 <metadata>
  <rdf:RDF xmlns:cc="http://creativecommons.org/ns#" xmlns:dc="http://purl.org/dc/elements/1.1/" xmlns:rdf="http://www.w3.org/1999/02/22-rdf-syntax-ns#">
   <cc:Work>
    <dc:type rdf:resource="http://purl.org/dc/dcmitype/StillImage"/>
    <dc:date>2021-10-13T14:20:45.704830</dc:date>
    <dc:format>image/svg+xml</dc:format>
    <dc:creator>
     <cc:Agent>
      <dc:title>Matplotlib v3.3.2, https://matplotlib.org/</dc:title>
     </cc:Agent>
    </dc:creator>
   </cc:Work>
  </rdf:RDF>
 </metadata>
 <defs>
  <style type="text/css">*{stroke-linecap:butt;stroke-linejoin:round;}</style>
 </defs>
 <g id="figure_1">
  <g id="patch_1">
   <path d="M 0 144 
L 72 144 
L 72 0 
L 0 0 
z
" style="fill:none;"/>
  </g>
  <g id="axes_1">
   <g id="patch_2">
    <path d="M 9 67.68 
L 64.8 67.68 
L 64.8 17.28 
L 9 17.28 
z
" style="fill:none;"/>
   </g>
   <g id="matplotlib.axis_1">
    <g id="xtick_1">
     <g id="line2d_1">
      <defs>
       <path d="M 0 0 
L 0 3.5 
" id="m669c250baa" style="stroke:#a9a9a9;stroke-width:2;"/>
      </defs>
      <g>
       <use style="fill:#a9a9a9;stroke:#a9a9a9;stroke-width:2;" x="9" xlink:href="#m669c250baa" y="67.68"/>
      </g>
     </g>
    </g>
    <g id="xtick_2">
     <g id="line2d_2">
      <g>
       <use style="fill:#a9a9a9;stroke:#a9a9a9;stroke-width:2;" x="36.9" xlink:href="#m669c250baa" y="67.68"/>
      </g>
     </g>
    </g>
    <g id="xtick_3">
     <g id="line2d_3">
      <g>
       <use style="fill:#a9a9a9;stroke:#a9a9a9;stroke-width:2;" x="64.8" xlink:href="#m669c250baa" y="67.68"/>
      </g>
     </g>
    </g>
   </g>
   <g id="matplotlib.axis_2">
    <g id="ytick_1">
     <g id="line2d_4">
      <defs>
       <path d="M 0 0 
L -3.5 0 
" id="m8e6dc8dfc6" style="stroke:#a9a9a9;stroke-width:2;"/>
      </defs>
      <g>
       <use style="fill:#a9a9a9;stroke:#a9a9a9;stroke-width:2;" x="9" xlink:href="#m8e6dc8dfc6" y="67.68"/>
      </g>
     </g>
    </g>
    <g id="ytick_2">
     <g id="line2d_5">
      <g>
       <use style="fill:#a9a9a9;stroke:#a9a9a9;stroke-width:2;" x="9" xlink:href="#m8e6dc8dfc6" y="59.875627"/>
      </g>
     </g>
    </g>
    <g id="ytick_3">
     <g id="line2d_6">
      <g>
       <use style="fill:#a9a9a9;stroke:#a9a9a9;stroke-width:2;" x="9" xlink:href="#m8e6dc8dfc6" y="52.071254"/>
      </g>
     </g>
    </g>
   </g>
   <g id="line2d_7">
    <path clip-path="url(#pe5137fb7a0)" d="M 10.86031 57.966502 
L 11.79031 56.821812 
L 12.72031 55.244338 
L 13.65031 53.450334 
L 14.58031 53.147731 
L 15.51031 51.58662 
L 16.44031 50.716408 
L 17.37031 49.345188 
L 18.30031 48.235932 
L 19.23031 46.953459 
L 20.16031 46.268776 
L 21.09031 45.381714 
L 22.02031 44.326561 
L 22.95031 43.788042 
L 23.88031 43.378998 
L 24.81031 42.033516 
L 25.74031 41.220008 
L 26.67031 39.305168 
L 27.60031 38.467198 
L 28.53031 37.643208 
L 29.46031 36.806091 
L 30.39031 36.183861 
L 31.32031 35.345761 
L 32.25031 34.542065 
L 33.18031 34.188026 
L 34.11031 34.225072 
L 35.04031 34.20352 
L 35.97031 34.059849 
L 36.90031 33.215118 
L 37.83031 32.327252 
L 38.76031 31.348341 
L 39.69031 30.66341 
L 40.62031 29.63316 
L 41.55031 29.117711 
L 42.48031 28.476258 
L 43.41031 27.643091 
L 44.34031 28.076064 
L 45.27031 27.553682 
L 46.20031 27.034841 
L 47.13031 26.38439 
L 48.06031 25.446764 
L 48.99031 24.784862 
L 49.92031 24.213134 
L 50.85031 22.774205 
L 51.78031 22.467784 
L 52.71031 22.135175 
L 53.64031 21.62866 
L 54.57031 21.807355 
L 55.50031 21.062799 
L 56.43031 20.149521 
L 57.36031 19.997634 
L 58.29031 19.773519 
L 59.22031 19.159977 
L 60.15031 18.796896 
L 61.08031 18.453831 
L 62.01031 17.670219 
L 62.94031 17.720135 
L 63.87031 18.088906 
" style="fill:none;stroke:#fc8d62;stroke-linecap:square;stroke-width:2;"/>
   </g>
   <g id="line2d_8">
    <path clip-path="url(#pe5137fb7a0)" d="M 10.86031 57.641175 
L 11.79031 55.645823 
L 12.72031 54.457765 
L 13.65031 53.422061 
L 14.58031 52.183114 
L 15.51031 50.7901 
L 16.44031 49.399344 
L 17.37031 47.986687 
L 18.30031 46.934419 
L 19.23031 45.92835 
L 20.16031 45.021563 
L 21.09031 44.26398 
L 22.02031 43.299877 
L 22.95031 42.396426 
L 23.88031 41.273358 
L 24.81031 40.940394 
L 25.74031 39.744498 
L 26.67031 38.364917 
L 27.60031 37.358634 
L 28.53031 36.352058 
L 29.46031 35.682738 
L 30.39031 34.565709 
L 31.32031 33.881739 
L 32.25031 33.578727 
L 33.18031 33.313895 
L 34.11031 32.23024 
L 35.04031 31.882754 
L 35.97031 31.358719 
L 36.90031 31.405202 
L 37.83031 31.387151 
L 38.76031 31.182882 
L 39.69031 30.524416 
L 40.62031 29.306 
L 41.55031 28.600015 
L 42.48031 28.447034 
L 43.41031 27.872929 
L 44.34031 26.936364 
L 45.27031 26.925469 
L 46.20031 26.159908 
L 47.13031 25.000445 
L 48.06031 24.329447 
L 48.99031 23.587438 
L 49.92031 23.282222 
L 50.85031 22.873265 
L 51.78031 22.730734 
L 52.71031 21.590792 
L 53.64031 20.759467 
L 54.57031 19.290235 
L 55.50031 19.073576 
L 56.43031 19.210237 
L 57.36031 19.158152 
L 58.29031 19.146781 
L 59.22031 19.216611 
L 60.15031 18.960616 
L 61.08031 19.024257 
L 62.01031 19.293002 
L 62.94031 18.963682 
L 63.87031 18.497761 
" style="fill:none;stroke:#fc8d62;stroke-dasharray:1.5,1.5;stroke-dashoffset:0;stroke-opacity:0.7;stroke-width:1.5;"/>
   </g>
   <g id="patch_3">
    <path d="M 9 67.68 
L 9 17.28 
" style="fill:none;stroke:#a9a9a9;stroke-linecap:square;stroke-linejoin:miter;stroke-width:2;"/>
   </g>
   <g id="patch_4">
    <path d="M 64.8 67.68 
L 64.8 17.28 
" style="fill:none;"/>
   </g>
   <g id="patch_5">
    <path d="M 9 67.68 
L 64.8 67.68 
" style="fill:none;stroke:#a9a9a9;stroke-linecap:square;stroke-linejoin:miter;stroke-width:2;"/>
   </g>
   <g id="patch_6">
    <path d="M 9 17.28 
L 64.8 17.28 
" style="fill:none;"/>
   </g>
  </g>
  <g id="axes_2">
   <g id="patch_7">
    <path d="M 9 128.16 
L 64.8 128.16 
L 64.8 77.76 
L 9 77.76 
z
" style="fill:none;"/>
   </g>
   <g id="matplotlib.axis_3">
    <g id="xtick_4">
     <g id="line2d_9">
      <g>
       <use style="fill:#a9a9a9;stroke:#a9a9a9;stroke-width:2;" x="9" xlink:href="#m669c250baa" y="128.16"/>
      </g>
     </g>
    </g>
    <g id="xtick_5">
     <g id="line2d_10">
      <g>
       <use style="fill:#a9a9a9;stroke:#a9a9a9;stroke-width:2;" x="36.9" xlink:href="#m669c250baa" y="128.16"/>
      </g>
     </g>
    </g>
    <g id="xtick_6">
     <g id="line2d_11">
      <g>
       <use style="fill:#a9a9a9;stroke:#a9a9a9;stroke-width:2;" x="64.8" xlink:href="#m669c250baa" y="128.16"/>
      </g>
     </g>
    </g>
   </g>
   <g id="matplotlib.axis_4">
    <g id="ytick_4">
     <g id="line2d_12">
      <g>
       <use style="fill:#a9a9a9;stroke:#a9a9a9;stroke-width:2;" x="9" xlink:href="#m8e6dc8dfc6" y="128.16"/>
      </g>
     </g>
    </g>
    <g id="ytick_5">
     <g id="line2d_13">
      <g>
       <use style="fill:#a9a9a9;stroke:#a9a9a9;stroke-width:2;" x="9" xlink:href="#m8e6dc8dfc6" y="102.96"/>
      </g>
     </g>
    </g>
    <g id="ytick_6">
     <g id="line2d_14">
      <g>
       <use style="fill:#a9a9a9;stroke:#a9a9a9;stroke-width:2;" x="9" xlink:href="#m8e6dc8dfc6" y="77.76"/>
      </g>
     </g>
    </g>
   </g>
   <g id="line2d_15">
    <path clip-path="url(#pc4e8a5bf02)" d="M 10.86031 94.574501 
L 11.79031 92.229349 
L 12.72031 90.951582 
L 13.65031 89.891626 
L 14.58031 89.623477 
L 15.51031 89.042252 
L 16.44031 88.795759 
L 17.37031 88.5125 
L 18.30031 88.324399 
L 19.23031 88.182285 
L 20.16031 88.10349 
L 21.09031 88.01578 
L 22.02031 87.818503 
L 22.95031 87.718838 
L 23.88031 87.686659 
L 24.81031 87.559536 
L 25.74031 87.466453 
L 26.67031 87.317466 
L 27.60031 87.286343 
L 28.53031 87.268175 
L 29.46031 87.21792 
L 30.39031 87.194983 
L 31.32031 87.119966 
L 32.25031 87.072692 
L 33.18031 87.027716 
L 34.11031 86.994723 
L 35.04031 86.967211 
L 35.97031 86.949392 
L 36.90031 86.925896 
L 37.83031 86.917826 
L 38.76031 86.873468 
L 39.69031 86.820321 
L 40.62031 86.784543 
L 41.55031 86.803549 
L 42.48031 86.773409 
L 43.41031 86.7721 
L 44.34031 86.816807 
L 45.27031 86.816051 
L 46.20031 86.791651 
L 47.13031 86.74809 
L 48.06031 86.743642 
L 48.99031 86.745459 
L 49.92031 86.733831 
L 50.85031 86.712656 
L 51.78031 86.695017 
L 52.71031 86.69602 
L 53.64031 86.701583 
L 54.57031 86.673919 
L 55.50031 86.646889 
L 56.43031 86.623212 
L 57.36031 86.612043 
L 58.29031 86.608913 
L 59.22031 86.583557 
L 60.15031 86.587685 
L 61.08031 86.572179 
L 62.01031 86.558753 
L 62.94031 86.537394 
L 63.87031 86.538905 
" style="fill:none;stroke:#fc8d62;stroke-linecap:square;stroke-width:2;"/>
   </g>
   <g id="line2d_16">
    <path clip-path="url(#pc4e8a5bf02)" d="M 10.86031 97.509722 
L 11.79031 95.561959 
L 12.72031 94.864042 
L 13.65031 94.120347 
L 14.58031 93.608987 
L 15.51031 93.190412 
L 16.44031 92.794281 
L 17.37031 92.614109 
L 18.30031 92.427691 
L 19.23031 92.291613 
L 20.16031 92.311069 
L 21.09031 92.200206 
L 22.02031 92.111964 
L 22.95031 92.088772 
L 23.88031 91.964535 
L 24.81031 91.931306 
L 25.74031 91.910863 
L 26.67031 91.859523 
L 27.60031 91.764879 
L 28.53031 91.766837 
L 29.46031 91.697845 
L 30.39031 91.695233 
L 31.32031 91.677942 
L 32.25031 91.678432 
L 33.18031 91.650176 
L 34.11031 91.689339 
L 35.04031 91.670775 
L 35.97031 91.648766 
L 36.90031 91.633133 
L 37.83031 91.604436 
L 38.76031 91.598043 
L 39.69031 91.612818 
L 40.62031 91.576456 
L 41.55031 91.580001 
L 42.48031 91.607053 
L 43.41031 91.603037 
L 44.34031 91.607314 
L 45.27031 91.570078 
L 46.20031 91.562962 
L 47.13031 91.54613 
L 48.06031 91.545 
L 48.99031 91.550427 
L 49.92031 91.53427 
L 50.85031 91.534917 
L 51.78031 91.558443 
L 52.71031 91.556297 
L 53.64031 91.544282 
L 54.57031 91.531008 
L 55.50031 91.553194 
L 56.43031 91.54619 
L 57.36031 91.557872 
L 58.29031 91.561364 
L 59.22031 91.540372 
L 60.15031 91.542772 
L 61.08031 91.562354 
L 62.01031 91.548659 
L 62.94031 91.52759 
L 63.87031 91.510975 
" style="fill:none;stroke:#fc8d62;stroke-dasharray:1.5,1.5;stroke-dashoffset:0;stroke-opacity:0.7;stroke-width:1.5;"/>
   </g>
   <g id="patch_8">
    <path d="M 9 128.16 
L 9 77.76 
" style="fill:none;stroke:#a9a9a9;stroke-linecap:square;stroke-linejoin:miter;stroke-width:2;"/>
   </g>
   <g id="patch_9">
    <path d="M 64.8 128.16 
L 64.8 77.76 
" style="fill:none;"/>
   </g>
   <g id="patch_10">
    <path d="M 9 128.16 
L 64.8 128.16 
" style="fill:none;stroke:#a9a9a9;stroke-linecap:square;stroke-linejoin:miter;stroke-width:2;"/>
   </g>
   <g id="patch_11">
    <path d="M 9 77.76 
L 64.8 77.76 
" style="fill:none;"/>
   </g>
  </g>
 </g>
 <defs>
  <clipPath id="pe5137fb7a0">
   <rect height="50.4" width="55.8" x="9" y="17.28"/>
  </clipPath>
  <clipPath id="pc4e8a5bf02">
   <rect height="50.4" width="55.8" x="9" y="77.76"/>
  </clipPath>
 </defs>
</svg>
