<?xml version="1.0" encoding="utf-8" standalone="no"?>
<!DOCTYPE svg PUBLIC "-//W3C//DTD SVG 1.1//EN"
  "http://www.w3.org/Graphics/SVG/1.1/DTD/svg11.dtd">
<!-- Created with matplotlib (https://matplotlib.org/) -->
<svg height="144pt" version="1.1" viewBox="0 0 72 144" width="72pt" xmlns="http://www.w3.org/2000/svg" xmlns:xlink="http://www.w3.org/1999/xlink">
 <metadata>
  <rdf:RDF xmlns:cc="http://creativecommons.org/ns#" xmlns:dc="http://purl.org/dc/elements/1.1/" xmlns:rdf="http://www.w3.org/1999/02/22-rdf-syntax-ns#">
   <cc:Work>
    <dc:type rdf:resource="http://purl.org/dc/dcmitype/StillImage"/>
    <dc:date>2021-10-13T14:11:13.159704</dc:date>
    <dc:format>image/svg+xml</dc:format>
    <dc:creator>
     <cc:Agent>
      <dc:title>Matplotlib v3.3.2, https://matplotlib.org/</dc:title>
     </cc:Agent>
    </dc:creator>
   </cc:Work>
  </rdf:RDF>
 </metadata>
 <defs>
  <style type="text/css">*{stroke-linecap:butt;stroke-linejoin:round;}</style>
 </defs>
 <g id="figure_1">
  <g id="patch_1">
   <path d="M 0 144 
L 72 144 
L 72 0 
L 0 0 
z
" style="fill:none;"/>
  </g>
  <g id="axes_1">
   <g id="patch_2">
    <path d="M 9 67.68 
L 64.8 67.68 
L 64.8 17.28 
L 9 17.28 
z
" style="fill:none;"/>
   </g>
   <g id="matplotlib.axis_1">
    <g id="xtick_1">
     <g id="line2d_1">
      <defs>
       <path d="M 0 0 
L 0 3.5 
" id="md611ae4be7" style="stroke:#a9a9a9;stroke-width:2;"/>
      </defs>
      <g>
       <use style="fill:#a9a9a9;stroke:#a9a9a9;stroke-width:2;" x="9" xlink:href="#md611ae4be7" y="67.68"/>
      </g>
     </g>
    </g>
    <g id="xtick_2">
     <g id="line2d_2">
      <g>
       <use style="fill:#a9a9a9;stroke:#a9a9a9;stroke-width:2;" x="36.9" xlink:href="#md611ae4be7" y="67.68"/>
      </g>
     </g>
    </g>
    <g id="xtick_3">
     <g id="line2d_3">
      <g>
       <use style="fill:#a9a9a9;stroke:#a9a9a9;stroke-width:2;" x="64.8" xlink:href="#md611ae4be7" y="67.68"/>
      </g>
     </g>
    </g>
   </g>
   <g id="matplotlib.axis_2">
    <g id="ytick_1">
     <g id="line2d_4">
      <defs>
       <path d="M 0 0 
L -3.5 0 
" id="md8d347972b" style="stroke:#a9a9a9;stroke-width:2;"/>
      </defs>
      <g>
       <use style="fill:#a9a9a9;stroke:#a9a9a9;stroke-width:2;" x="9" xlink:href="#md8d347972b" y="67.68"/>
      </g>
     </g>
    </g>
    <g id="ytick_2">
     <g id="line2d_5">
      <g>
       <use style="fill:#a9a9a9;stroke:#a9a9a9;stroke-width:2;" x="9" xlink:href="#md8d347972b" y="55.892273"/>
      </g>
     </g>
    </g>
    <g id="ytick_3">
     <g id="line2d_6">
      <g>
       <use style="fill:#a9a9a9;stroke:#a9a9a9;stroke-width:2;" x="9" xlink:href="#md8d347972b" y="44.104546"/>
      </g>
     </g>
    </g>
   </g>
   <g id="line2d_7">
    <path clip-path="url(#p78bc910e45)" d="M 10.86031 57.857382 
L 11.79031 55.738719 
L 12.72031 53.547218 
L 13.65031 52.774911 
L 14.58031 50.677545 
L 15.51031 49.718378 
L 16.44031 48.689483 
L 17.37031 47.077379 
L 18.30031 46.558432 
L 19.23031 44.686239 
L 20.16031 43.695837 
L 21.09031 42.938496 
L 22.02031 41.868236 
L 22.95031 41.689924 
L 23.88031 40.738097 
L 24.81031 39.329834 
L 25.74031 38.221464 
L 26.67031 37.829591 
L 27.60031 36.635881 
L 28.53031 35.904403 
L 29.46031 35.614222 
L 30.39031 35.318951 
L 31.32031 35.224443 
L 32.25031 34.382704 
L 33.18031 33.938665 
L 34.11031 33.444481 
L 35.04031 32.450152 
L 35.97031 31.773685 
L 36.90031 31.321632 
L 37.83031 30.623543 
L 38.76031 29.881471 
L 39.69031 29.025751 
L 40.62031 29.244715 
L 41.55031 29.568854 
L 42.48031 29.414862 
L 43.41031 28.771084 
L 44.34031 27.408846 
L 45.27031 26.395458 
L 46.20031 25.43433 
L 47.13031 25.148743 
L 48.06031 24.628125 
L 48.99031 24.251117 
L 49.92031 23.541396 
L 50.85031 23.592835 
L 51.78031 23.266479 
L 52.71031 23.020938 
L 53.64031 22.046106 
L 54.57031 21.628149 
L 55.50031 20.392995 
L 56.43031 20.240272 
L 57.36031 20.259129 
L 58.29031 19.57995 
L 59.22031 19.516453 
L 60.15031 19.577692 
L 61.08031 18.953497 
L 62.01031 19.144619 
L 62.94031 18.244532 
L 63.87031 17.869386 
" style="fill:none;stroke:#fc8d62;stroke-linecap:square;stroke-width:2;"/>
   </g>
   <g id="line2d_8">
    <path clip-path="url(#p78bc910e45)" d="M 10.86031 57.964186 
L 11.79031 55.43828 
L 12.72031 54.221935 
L 13.65031 52.568025 
L 14.58031 51.901835 
L 15.51031 50.160282 
L 16.44031 49.646027 
L 17.37031 48.855537 
L 18.30031 47.78643 
L 19.23031 46.489054 
L 20.16031 44.669359 
L 21.09031 43.154796 
L 22.02031 41.767701 
L 22.95031 41.107835 
L 23.88031 40.300804 
L 24.81031 39.44689 
L 25.74031 39.191678 
L 26.67031 39.398865 
L 27.60031 38.488201 
L 28.53031 37.900126 
L 29.46031 37.071665 
L 30.39031 36.488453 
L 31.32031 35.761366 
L 32.25031 35.482386 
L 33.18031 35.037703 
L 34.11031 33.995244 
L 35.04031 33.499278 
L 35.97031 32.672198 
L 36.90031 31.707915 
L 37.83031 31.133695 
L 38.76031 29.285214 
L 39.69031 28.57673 
L 40.62031 27.691006 
L 41.55031 26.992068 
L 42.48031 26.536494 
L 43.41031 25.192757 
L 44.34031 24.837138 
L 45.27031 24.378045 
L 46.20031 23.857517 
L 47.13031 23.337673 
L 48.06031 22.761704 
L 48.99031 22.370592 
L 49.92031 21.862647 
L 50.85031 21.890696 
L 51.78031 21.550144 
L 52.71031 20.492768 
L 53.64031 19.724261 
L 54.57031 20.250687 
L 55.50031 19.229619 
L 56.43031 18.813891 
L 57.36031 18.483752 
L 58.29031 18.301122 
L 59.22031 17.825479 
L 60.15031 17.606802 
L 61.08031 17.096811 
L 62.01031 16.401701 
L 62.94031 15.952709 
L 63.87031 14.998291 
" style="fill:none;stroke:#fc8d62;stroke-dasharray:1.5,1.5;stroke-dashoffset:0;stroke-opacity:0.7;stroke-width:1.5;"/>
   </g>
   <g id="patch_3">
    <path d="M 9 67.68 
L 9 17.28 
" style="fill:none;stroke:#a9a9a9;stroke-linecap:square;stroke-linejoin:miter;stroke-width:2;"/>
   </g>
   <g id="patch_4">
    <path d="M 64.8 67.68 
L 64.8 17.28 
" style="fill:none;"/>
   </g>
   <g id="patch_5">
    <path d="M 9 67.68 
L 64.8 67.68 
" style="fill:none;stroke:#a9a9a9;stroke-linecap:square;stroke-linejoin:miter;stroke-width:2;"/>
   </g>
   <g id="patch_6">
    <path d="M 9 17.28 
L 64.8 17.28 
" style="fill:none;"/>
   </g>
  </g>
  <g id="axes_2">
   <g id="patch_7">
    <path d="M 9 128.16 
L 64.8 128.16 
L 64.8 77.76 
L 9 77.76 
z
" style="fill:none;"/>
   </g>
   <g id="matplotlib.axis_3">
    <g id="xtick_4">
     <g id="line2d_9">
      <g>
       <use style="fill:#a9a9a9;stroke:#a9a9a9;stroke-width:2;" x="9" xlink:href="#md611ae4be7" y="128.16"/>
      </g>
     </g>
    </g>
    <g id="xtick_5">
     <g id="line2d_10">
      <g>
       <use style="fill:#a9a9a9;stroke:#a9a9a9;stroke-width:2;" x="36.9" xlink:href="#md611ae4be7" y="128.16"/>
      </g>
     </g>
    </g>
    <g id="xtick_6">
     <g id="line2d_11">
      <g>
       <use style="fill:#a9a9a9;stroke:#a9a9a9;stroke-width:2;" x="64.8" xlink:href="#md611ae4be7" y="128.16"/>
      </g>
     </g>
    </g>
   </g>
   <g id="matplotlib.axis_4">
    <g id="ytick_4">
     <g id="line2d_12">
      <g>
       <use style="fill:#a9a9a9;stroke:#a9a9a9;stroke-width:2;" x="9" xlink:href="#md8d347972b" y="128.16"/>
      </g>
     </g>
    </g>
    <g id="ytick_5">
     <g id="line2d_13">
      <g>
       <use style="fill:#a9a9a9;stroke:#a9a9a9;stroke-width:2;" x="9" xlink:href="#md8d347972b" y="102.96"/>
      </g>
     </g>
    </g>
    <g id="ytick_6">
     <g id="line2d_14">
      <g>
       <use style="fill:#a9a9a9;stroke:#a9a9a9;stroke-width:2;" x="9" xlink:href="#md8d347972b" y="77.76"/>
      </g>
     </g>
    </g>
   </g>
   <g id="line2d_15">
    <path clip-path="url(#p9b8756e269)" d="M 10.86031 99.506338 
L 11.79031 96.35788 
L 12.72031 94.279095 
L 13.65031 93.111156 
L 14.58031 91.588942 
L 15.51031 90.931982 
L 16.44031 90.561584 
L 17.37031 90.16374 
L 18.30031 90.051332 
L 19.23031 89.56355 
L 20.16031 89.212718 
L 21.09031 89.079249 
L 22.02031 88.912133 
L 22.95031 88.92916 
L 23.88031 88.759936 
L 24.81031 88.568284 
L 25.74031 88.473641 
L 26.67031 88.413516 
L 27.60031 88.230158 
L 28.53031 88.170221 
L 29.46031 88.09525 
L 30.39031 88.070376 
L 31.32031 87.912417 
L 32.25031 87.806142 
L 33.18031 87.722496 
L 34.11031 87.637373 
L 35.04031 87.553178 
L 35.97031 87.454893 
L 36.90031 87.416327 
L 37.83031 87.373847 
L 38.76031 87.363707 
L 39.69031 87.339619 
L 40.62031 87.345226 
L 41.55031 87.364102 
L 42.48031 87.356515 
L 43.41031 87.31276 
L 44.34031 87.237524 
L 45.27031 87.211963 
L 46.20031 87.21152 
L 47.13031 87.222702 
L 48.06031 87.255213 
L 48.99031 87.251302 
L 49.92031 87.222178 
L 50.85031 87.210595 
L 51.78031 87.189237 
L 52.71031 87.159315 
L 53.64031 87.16621 
L 54.57031 87.125883 
L 55.50031 87.082692 
L 56.43031 87.06371 
L 57.36031 87.067452 
L 58.29031 87.036883 
L 59.22031 86.999274 
L 60.15031 87.00981 
L 61.08031 87.006321 
L 62.01031 87.0065 
L 62.94031 86.967938 
L 63.87031 86.984666 
" style="fill:none;stroke:#fc8d62;stroke-linecap:square;stroke-width:2;"/>
   </g>
   <g id="line2d_16">
    <path clip-path="url(#p9b8756e269)" d="M 10.86031 102.035974 
L 11.79031 99.101195 
L 12.72031 97.740886 
L 13.65031 96.862325 
L 14.58031 96.277909 
L 15.51031 95.27958 
L 16.44031 94.816862 
L 17.37031 94.386007 
L 18.30031 94.03968 
L 19.23031 93.553451 
L 20.16031 93.25835 
L 21.09031 93.101794 
L 22.02031 92.895792 
L 22.95031 92.794675 
L 23.88031 92.756917 
L 24.81031 92.716542 
L 25.74031 92.679182 
L 26.67031 92.697595 
L 27.60031 92.658767 
L 28.53031 92.549501 
L 29.46031 92.48706 
L 30.39031 92.393258 
L 31.32031 92.320925 
L 32.25031 92.359984 
L 33.18031 92.365574 
L 34.11031 92.257045 
L 35.04031 92.242414 
L 35.97031 92.182294 
L 36.90031 92.100552 
L 37.83031 92.051966 
L 38.76031 91.96943 
L 39.69031 91.892895 
L 40.62031 91.842349 
L 41.55031 91.807455 
L 42.48031 91.847588 
L 43.41031 91.856347 
L 44.34031 91.81803 
L 45.27031 91.799051 
L 46.20031 91.801974 
L 47.13031 91.799935 
L 48.06031 91.791332 
L 48.99031 91.756936 
L 49.92031 91.709364 
L 50.85031 91.741434 
L 51.78031 91.726436 
L 52.71031 91.715831 
L 53.64031 91.715188 
L 54.57031 91.699672 
L 55.50031 91.695268 
L 56.43031 91.666915 
L 57.36031 91.64231 
L 58.29031 91.622525 
L 59.22031 91.569344 
L 60.15031 91.561461 
L 61.08031 91.563361 
L 62.01031 91.541003 
L 62.94031 91.540691 
L 63.87031 91.506895 
" style="fill:none;stroke:#fc8d62;stroke-dasharray:1.5,1.5;stroke-dashoffset:0;stroke-opacity:0.7;stroke-width:1.5;"/>
   </g>
   <g id="patch_8">
    <path d="M 9 128.16 
L 9 77.76 
" style="fill:none;stroke:#a9a9a9;stroke-linecap:square;stroke-linejoin:miter;stroke-width:2;"/>
   </g>
   <g id="patch_9">
    <path d="M 64.8 128.16 
L 64.8 77.76 
" style="fill:none;"/>
   </g>
   <g id="patch_10">
    <path d="M 9 128.16 
L 64.8 128.16 
" style="fill:none;stroke:#a9a9a9;stroke-linecap:square;stroke-linejoin:miter;stroke-width:2;"/>
   </g>
   <g id="patch_11">
    <path d="M 9 77.76 
L 64.8 77.76 
" style="fill:none;"/>
   </g>
  </g>
 </g>
 <defs>
  <clipPath id="p78bc910e45">
   <rect height="50.4" width="55.8" x="9" y="17.28"/>
  </clipPath>
  <clipPath id="p9b8756e269">
   <rect height="50.4" width="55.8" x="9" y="77.76"/>
  </clipPath>
 </defs>
</svg>
