<?xml version="1.0" encoding="utf-8" standalone="no"?>
<!DOCTYPE svg PUBLIC "-//W3C//DTD SVG 1.1//EN"
  "http://www.w3.org/Graphics/SVG/1.1/DTD/svg11.dtd">
<!-- Created with matplotlib (https://matplotlib.org/) -->
<svg height="144pt" version="1.1" viewBox="0 0 72 144" width="72pt" xmlns="http://www.w3.org/2000/svg" xmlns:xlink="http://www.w3.org/1999/xlink">
 <metadata>
  <rdf:RDF xmlns:cc="http://creativecommons.org/ns#" xmlns:dc="http://purl.org/dc/elements/1.1/" xmlns:rdf="http://www.w3.org/1999/02/22-rdf-syntax-ns#">
   <cc:Work>
    <dc:type rdf:resource="http://purl.org/dc/dcmitype/StillImage"/>
    <dc:date>2021-10-13T14:55:27.756134</dc:date>
    <dc:format>image/svg+xml</dc:format>
    <dc:creator>
     <cc:Agent>
      <dc:title>Matplotlib v3.3.2, https://matplotlib.org/</dc:title>
     </cc:Agent>
    </dc:creator>
   </cc:Work>
  </rdf:RDF>
 </metadata>
 <defs>
  <style type="text/css">*{stroke-linecap:butt;stroke-linejoin:round;}</style>
 </defs>
 <g id="figure_1">
  <g id="patch_1">
   <path d="M 0 144 
L 72 144 
L 72 0 
L 0 0 
z
" style="fill:none;"/>
  </g>
  <g id="axes_1">
   <g id="patch_2">
    <path d="M 9 67.68 
L 64.8 67.68 
L 64.8 17.28 
L 9 17.28 
z
" style="fill:none;"/>
   </g>
   <g id="matplotlib.axis_1">
    <g id="xtick_1">
     <g id="line2d_1">
      <defs>
       <path d="M 0 0 
L 0 3.5 
" id="mb6b2cdbedd" style="stroke:#a9a9a9;stroke-width:2;"/>
      </defs>
      <g>
       <use style="fill:#a9a9a9;stroke:#a9a9a9;stroke-width:2;" x="9" xlink:href="#mb6b2cdbedd" y="67.68"/>
      </g>
     </g>
    </g>
    <g id="xtick_2">
     <g id="line2d_2">
      <g>
       <use style="fill:#a9a9a9;stroke:#a9a9a9;stroke-width:2;" x="36.9" xlink:href="#mb6b2cdbedd" y="67.68"/>
      </g>
     </g>
    </g>
    <g id="xtick_3">
     <g id="line2d_3">
      <g>
       <use style="fill:#a9a9a9;stroke:#a9a9a9;stroke-width:2;" x="64.8" xlink:href="#mb6b2cdbedd" y="67.68"/>
      </g>
     </g>
    </g>
   </g>
   <g id="matplotlib.axis_2">
    <g id="ytick_1">
     <g id="line2d_4">
      <defs>
       <path d="M 0 0 
L -3.5 0 
" id="m8edb65e947" style="stroke:#a9a9a9;stroke-width:2;"/>
      </defs>
      <g>
       <use style="fill:#a9a9a9;stroke:#a9a9a9;stroke-width:2;" x="9" xlink:href="#m8edb65e947" y="67.68"/>
      </g>
     </g>
    </g>
    <g id="ytick_2">
     <g id="line2d_5">
      <g>
       <use style="fill:#a9a9a9;stroke:#a9a9a9;stroke-width:2;" x="9" xlink:href="#m8edb65e947" y="64.706305"/>
      </g>
     </g>
    </g>
    <g id="ytick_3">
     <g id="line2d_6">
      <g>
       <use style="fill:#a9a9a9;stroke:#a9a9a9;stroke-width:2;" x="9" xlink:href="#m8edb65e947" y="61.73261"/>
      </g>
     </g>
    </g>
   </g>
   <g id="line2d_7">
    <path clip-path="url(#pab23244bbb)" d="M 10.86031 59.238843 
L 11.79031 57.491974 
L 12.72031 56.259821 
L 13.65031 54.60624 
L 14.58031 53.517301 
L 15.51031 52.35309 
L 16.44031 51.46631 
L 17.37031 50.063034 
L 18.30031 49.193076 
L 19.23031 48.294617 
L 20.16031 47.470847 
L 21.09031 46.234273 
L 22.02031 45.301478 
L 22.95031 45.091302 
L 23.88031 44.24845 
L 24.81031 42.950518 
L 25.74031 41.806387 
L 26.67031 40.281213 
L 27.60031 40.134446 
L 28.53031 39.273603 
L 29.46031 37.510128 
L 30.39031 36.856333 
L 31.32031 35.409218 
L 32.25031 34.142091 
L 33.18031 33.442464 
L 34.11031 32.189189 
L 35.04031 31.53431 
L 35.97031 30.563245 
L 36.90031 30.16941 
L 37.83031 28.775028 
L 38.76031 28.155389 
L 39.69031 28.14196 
L 40.62031 28.341185 
L 41.55031 28.155433 
L 42.48031 28.092683 
L 43.41031 27.865674 
L 44.34031 26.970953 
L 45.27031 26.416373 
L 46.20031 26.209102 
L 47.13031 25.28275 
L 48.06031 24.542759 
L 48.99031 23.366601 
L 49.92031 22.483261 
L 50.85031 22.204621 
L 51.78031 21.99353 
L 52.71031 21.193503 
L 53.64031 20.302593 
L 54.57031 20.01096 
L 55.50031 20.219709 
L 56.43031 20.118778 
L 57.36031 19.759679 
L 58.29031 19.586773 
L 59.22031 19.246578 
L 60.15031 18.964448 
L 61.08031 18.447091 
L 62.01031 18.433185 
L 62.94031 17.776139 
L 63.87031 17.428685 
" style="fill:none;stroke:#fc8d62;stroke-linecap:square;stroke-width:2;"/>
   </g>
   <g id="line2d_8">
    <path clip-path="url(#pab23244bbb)" d="M 10.86031 57.111158 
L 11.79031 55.141259 
L 12.72031 53.758879 
L 13.65031 52.569027 
L 14.58031 51.488119 
L 15.51031 49.97078 
L 16.44031 48.781371 
L 17.37031 47.683284 
L 18.30031 45.68153 
L 19.23031 44.678824 
L 20.16031 43.667405 
L 21.09031 42.346978 
L 22.02031 41.325886 
L 22.95031 40.943787 
L 23.88031 39.307804 
L 24.81031 37.467403 
L 25.74031 36.202101 
L 26.67031 34.550937 
L 27.60031 32.835997 
L 28.53031 31.505023 
L 29.46031 29.97873 
L 30.39031 28.60822 
L 31.32031 27.895722 
L 32.25031 25.442248 
L 33.18031 24.457624 
L 34.11031 23.179158 
L 35.04031 22.624417 
L 35.97031 22.00415 
L 36.90031 20.979002 
L 37.83031 21.151758 
L 38.76031 20.07018 
L 39.69031 20.00771 
L 40.62031 19.43175 
L 41.55031 18.609504 
L 42.48031 18.51273 
L 43.41031 18.932186 
L 44.34031 18.893453 
L 45.27031 18.276305 
L 46.20031 17.466518 
L 47.13031 16.438994 
L 48.06031 15.905515 
L 48.99031 14.896909 
L 49.92031 13.344931 
L 50.85031 11.574831 
L 51.78031 11.308558 
L 52.71031 11.115617 
L 53.64031 10.496615 
L 54.57031 9.614046 
L 55.50031 8.810704 
L 56.43031 8.752353 
L 57.36031 7.599586 
L 58.29031 7.655347 
L 59.22031 6.328031 
L 60.15031 5.721782 
L 61.08031 4.692123 
L 62.01031 4.499566 
L 62.94031 4.138374 
L 63.87031 4.683388 
" style="fill:none;stroke:#fc8d62;stroke-dasharray:1.5,1.5;stroke-dashoffset:0;stroke-opacity:0.7;stroke-width:1.5;"/>
   </g>
   <g id="patch_3">
    <path d="M 9 67.68 
L 9 17.28 
" style="fill:none;stroke:#a9a9a9;stroke-linecap:square;stroke-linejoin:miter;stroke-width:2;"/>
   </g>
   <g id="patch_4">
    <path d="M 64.8 67.68 
L 64.8 17.28 
" style="fill:none;"/>
   </g>
   <g id="patch_5">
    <path d="M 9 67.68 
L 64.8 67.68 
" style="fill:none;stroke:#a9a9a9;stroke-linecap:square;stroke-linejoin:miter;stroke-width:2;"/>
   </g>
   <g id="patch_6">
    <path d="M 9 17.28 
L 64.8 17.28 
" style="fill:none;"/>
   </g>
  </g>
  <g id="axes_2">
   <g id="patch_7">
    <path d="M 9 128.16 
L 64.8 128.16 
L 64.8 77.76 
L 9 77.76 
z
" style="fill:none;"/>
   </g>
   <g id="matplotlib.axis_3">
    <g id="xtick_4">
     <g id="line2d_9">
      <g>
       <use style="fill:#a9a9a9;stroke:#a9a9a9;stroke-width:2;" x="9" xlink:href="#mb6b2cdbedd" y="128.16"/>
      </g>
     </g>
    </g>
    <g id="xtick_5">
     <g id="line2d_10">
      <g>
       <use style="fill:#a9a9a9;stroke:#a9a9a9;stroke-width:2;" x="36.9" xlink:href="#mb6b2cdbedd" y="128.16"/>
      </g>
     </g>
    </g>
    <g id="xtick_6">
     <g id="line2d_11">
      <g>
       <use style="fill:#a9a9a9;stroke:#a9a9a9;stroke-width:2;" x="64.8" xlink:href="#mb6b2cdbedd" y="128.16"/>
      </g>
     </g>
    </g>
   </g>
   <g id="matplotlib.axis_4">
    <g id="ytick_4">
     <g id="line2d_12">
      <g>
       <use style="fill:#a9a9a9;stroke:#a9a9a9;stroke-width:2;" x="9" xlink:href="#m8edb65e947" y="128.16"/>
      </g>
     </g>
    </g>
    <g id="ytick_5">
     <g id="line2d_13">
      <g>
       <use style="fill:#a9a9a9;stroke:#a9a9a9;stroke-width:2;" x="9" xlink:href="#m8edb65e947" y="102.96"/>
      </g>
     </g>
    </g>
    <g id="ytick_6">
     <g id="line2d_14">
      <g>
       <use style="fill:#a9a9a9;stroke:#a9a9a9;stroke-width:2;" x="9" xlink:href="#m8edb65e947" y="77.76"/>
      </g>
     </g>
    </g>
   </g>
   <g id="line2d_15">
    <path clip-path="url(#p58846b96b6)" d="M 10.86031 122.498738 
L 11.79031 122.29011 
L 12.72031 122.258539 
L 13.65031 122.129469 
L 14.58031 122.073046 
L 15.51031 122.227147 
L 16.44031 122.252347 
L 17.37031 122.210751 
L 18.30031 122.138893 
L 19.23031 122.088619 
L 20.16031 122.041559 
L 21.09031 122.063229 
L 22.02031 121.997857 
L 22.95031 122.019115 
L 23.88031 122.071807 
L 24.81031 122.093013 
L 25.74031 122.097987 
L 26.67031 122.086861 
L 27.60031 122.105253 
L 28.53031 122.113757 
L 29.46031 122.117828 
L 30.39031 122.112182 
L 31.32031 122.092983 
L 32.25031 122.103017 
L 33.18031 122.092019 
L 34.11031 122.098368 
L 35.04031 122.080423 
L 35.97031 122.042628 
L 36.90031 122.031293 
L 37.83031 122.030418 
L 38.76031 122.037071 
L 39.69031 122.037215 
L 40.62031 122.040442 
L 41.55031 122.000354 
L 42.48031 121.989498 
L 43.41031 121.987963 
L 44.34031 121.988238 
L 45.27031 121.983619 
L 46.20031 121.976648 
L 47.13031 121.982092 
L 48.06031 121.986802 
L 48.99031 121.98517 
L 49.92031 121.957609 
L 50.85031 121.941593 
L 51.78031 121.943495 
L 52.71031 121.935085 
L 53.64031 121.934779 
L 54.57031 121.927693 
L 55.50031 121.942746 
L 56.43031 121.939901 
L 57.36031 121.921727 
L 58.29031 121.923318 
L 59.22031 121.935246 
L 60.15031 121.929958 
L 61.08031 121.921113 
L 62.01031 121.918889 
L 62.94031 121.904564 
L 63.87031 121.913548 
" style="fill:none;stroke:#fc8d62;stroke-linecap:square;stroke-width:2;"/>
   </g>
   <g id="line2d_16">
    <path clip-path="url(#p58846b96b6)" d="M 10.86031 95.033955 
L 11.79031 94.619603 
L 12.72031 94.386057 
L 13.65031 94.256559 
L 14.58031 94.158447 
L 15.51031 93.954201 
L 16.44031 93.917423 
L 17.37031 93.912748 
L 18.30031 93.841109 
L 19.23031 93.819705 
L 20.16031 93.856241 
L 21.09031 93.868418 
L 22.02031 93.813595 
L 22.95031 93.753498 
L 23.88031 93.725591 
L 24.81031 93.741929 
L 25.74031 93.72533 
L 26.67031 93.740926 
L 27.60031 93.719468 
L 28.53031 93.709627 
L 29.46031 93.73168 
L 30.39031 93.724783 
L 31.32031 93.699569 
L 32.25031 93.695808 
L 33.18031 93.695118 
L 34.11031 93.68563 
L 35.04031 93.678441 
L 35.97031 93.667205 
L 36.90031 93.658998 
L 37.83031 93.638647 
L 38.76031 93.618187 
L 39.69031 93.606191 
L 40.62031 93.598769 
L 41.55031 93.589872 
L 42.48031 93.615444 
L 43.41031 93.626839 
L 44.34031 93.647754 
L 45.27031 93.666664 
L 46.20031 93.655614 
L 47.13031 93.659974 
L 48.06031 93.65728 
L 48.99031 93.65552 
L 49.92031 93.644373 
L 50.85031 93.627717 
L 51.78031 93.624196 
L 52.71031 93.627006 
L 53.64031 93.627637 
L 54.57031 93.614189 
L 55.50031 93.624805 
L 56.43031 93.618448 
L 57.36031 93.619205 
L 58.29031 93.608903 
L 59.22031 93.606606 
L 60.15031 93.603601 
L 61.08031 93.581204 
L 62.01031 93.565097 
L 62.94031 93.551892 
L 63.87031 93.553354 
" style="fill:none;stroke:#fc8d62;stroke-dasharray:1.5,1.5;stroke-dashoffset:0;stroke-opacity:0.7;stroke-width:1.5;"/>
   </g>
   <g id="patch_8">
    <path d="M 9 128.16 
L 9 77.76 
" style="fill:none;stroke:#a9a9a9;stroke-linecap:square;stroke-linejoin:miter;stroke-width:2;"/>
   </g>
   <g id="patch_9">
    <path d="M 64.8 128.16 
L 64.8 77.76 
" style="fill:none;"/>
   </g>
   <g id="patch_10">
    <path d="M 9 128.16 
L 64.8 128.16 
" style="fill:none;stroke:#a9a9a9;stroke-linecap:square;stroke-linejoin:miter;stroke-width:2;"/>
   </g>
   <g id="patch_11">
    <path d="M 9 77.76 
L 64.8 77.76 
" style="fill:none;"/>
   </g>
  </g>
 </g>
 <defs>
  <clipPath id="pab23244bbb">
   <rect height="50.4" width="55.8" x="9" y="17.28"/>
  </clipPath>
  <clipPath id="p58846b96b6">
   <rect height="50.4" width="55.8" x="9" y="77.76"/>
  </clipPath>
 </defs>
</svg>
