<?xml version="1.0" encoding="utf-8" standalone="no"?>
<!DOCTYPE svg PUBLIC "-//W3C//DTD SVG 1.1//EN"
  "http://www.w3.org/Graphics/SVG/1.1/DTD/svg11.dtd">
<!-- Created with matplotlib (https://matplotlib.org/) -->
<svg height="144pt" version="1.1" viewBox="0 0 72 144" width="72pt" xmlns="http://www.w3.org/2000/svg" xmlns:xlink="http://www.w3.org/1999/xlink">
 <metadata>
  <rdf:RDF xmlns:cc="http://creativecommons.org/ns#" xmlns:dc="http://purl.org/dc/elements/1.1/" xmlns:rdf="http://www.w3.org/1999/02/22-rdf-syntax-ns#">
   <cc:Work>
    <dc:type rdf:resource="http://purl.org/dc/dcmitype/StillImage"/>
    <dc:date>2021-10-13T14:36:48.020726</dc:date>
    <dc:format>image/svg+xml</dc:format>
    <dc:creator>
     <cc:Agent>
      <dc:title>Matplotlib v3.3.2, https://matplotlib.org/</dc:title>
     </cc:Agent>
    </dc:creator>
   </cc:Work>
  </rdf:RDF>
 </metadata>
 <defs>
  <style type="text/css">*{stroke-linecap:butt;stroke-linejoin:round;}</style>
 </defs>
 <g id="figure_1">
  <g id="patch_1">
   <path d="M 0 144 
L 72 144 
L 72 0 
L 0 0 
z
" style="fill:none;"/>
  </g>
  <g id="axes_1">
   <g id="patch_2">
    <path d="M 9 67.68 
L 64.8 67.68 
L 64.8 17.28 
L 9 17.28 
z
" style="fill:none;"/>
   </g>
   <g id="matplotlib.axis_1">
    <g id="xtick_1">
     <g id="line2d_1">
      <defs>
       <path d="M 0 0 
L 0 3.5 
" id="m2b73d0247c" style="stroke:#a9a9a9;stroke-width:2;"/>
      </defs>
      <g>
       <use style="fill:#a9a9a9;stroke:#a9a9a9;stroke-width:2;" x="9" xlink:href="#m2b73d0247c" y="67.68"/>
      </g>
     </g>
    </g>
    <g id="xtick_2">
     <g id="line2d_2">
      <g>
       <use style="fill:#a9a9a9;stroke:#a9a9a9;stroke-width:2;" x="36.9" xlink:href="#m2b73d0247c" y="67.68"/>
      </g>
     </g>
    </g>
    <g id="xtick_3">
     <g id="line2d_3">
      <g>
       <use style="fill:#a9a9a9;stroke:#a9a9a9;stroke-width:2;" x="64.8" xlink:href="#m2b73d0247c" y="67.68"/>
      </g>
     </g>
    </g>
   </g>
   <g id="matplotlib.axis_2">
    <g id="ytick_1">
     <g id="line2d_4">
      <defs>
       <path d="M 0 0 
L -3.5 0 
" id="mb48a149b01" style="stroke:#a9a9a9;stroke-width:2;"/>
      </defs>
      <g>
       <use style="fill:#a9a9a9;stroke:#a9a9a9;stroke-width:2;" x="9" xlink:href="#mb48a149b01" y="67.68"/>
      </g>
     </g>
    </g>
    <g id="ytick_2">
     <g id="line2d_5">
      <g>
       <use style="fill:#a9a9a9;stroke:#a9a9a9;stroke-width:2;" x="9" xlink:href="#mb48a149b01" y="64.481929"/>
      </g>
     </g>
    </g>
    <g id="ytick_3">
     <g id="line2d_6">
      <g>
       <use style="fill:#a9a9a9;stroke:#a9a9a9;stroke-width:2;" x="9" xlink:href="#mb48a149b01" y="61.283858"/>
      </g>
     </g>
    </g>
   </g>
   <g id="line2d_7">
    <path clip-path="url(#p034183be12)" d="M 10.86031 58.940411 
L 11.79031 57.322031 
L 12.72031 56.326186 
L 13.65031 55.304444 
L 14.58031 53.768035 
L 15.51031 52.740768 
L 16.44031 51.985859 
L 17.37031 49.589084 
L 18.30031 48.656962 
L 19.23031 47.907183 
L 20.16031 45.82289 
L 21.09031 45.211074 
L 22.02031 44.267134 
L 22.95031 42.579922 
L 23.88031 42.477142 
L 24.81031 41.857283 
L 25.74031 40.851036 
L 26.67031 40.038546 
L 27.60031 38.251279 
L 28.53031 38.550483 
L 29.46031 37.348208 
L 30.39031 35.517632 
L 31.32031 35.248151 
L 32.25031 33.78509 
L 33.18031 32.266556 
L 34.11031 31.740758 
L 35.04031 32.452634 
L 35.97031 32.867861 
L 36.90031 33.652425 
L 37.83031 34.223893 
L 38.76031 34.197533 
L 39.69031 34.824136 
L 40.62031 35.221016 
L 41.55031 34.22432 
L 42.48031 32.847219 
L 43.41031 31.025242 
L 44.34031 30.055519 
L 45.27031 28.233124 
L 46.20031 26.719666 
L 47.13031 25.200003 
L 48.06031 23.326645 
L 48.99031 22.587334 
L 49.92031 22.138213 
L 50.85031 21.818734 
L 51.78031 21.934519 
L 52.71031 21.608605 
L 53.64031 20.481704 
L 54.57031 20.129099 
L 55.50031 19.638426 
L 56.43031 18.21272 
L 57.36031 18.459957 
L 58.29031 18.459281 
L 59.22031 19.27998 
L 60.15031 18.978401 
L 61.08031 18.07051 
L 62.01031 17.826854 
L 62.94031 17.687165 
L 63.87031 17.439904 
" style="fill:none;stroke:#fc8d62;stroke-linecap:square;stroke-width:2;"/>
   </g>
   <g id="line2d_8">
    <path clip-path="url(#p034183be12)" d="M 10.86031 59.526839 
L 11.79031 58.168716 
L 12.72031 56.731785 
L 13.65031 56.326137 
L 14.58031 55.414232 
L 15.51031 53.498554 
L 16.44031 52.571036 
L 17.37031 51.258993 
L 18.30031 50.002203 
L 19.23031 47.943871 
L 20.16031 47.087021 
L 21.09031 46.738034 
L 22.02031 46.526323 
L 22.95031 45.46145 
L 23.88031 43.701736 
L 24.81031 42.783487 
L 25.74031 41.813631 
L 26.67031 40.139676 
L 27.60031 38.730429 
L 28.53031 35.919503 
L 29.46031 33.894617 
L 30.39031 33.338528 
L 31.32031 31.765819 
L 32.25031 31.062094 
L 33.18031 30.712338 
L 34.11031 30.193457 
L 35.04031 29.835176 
L 35.97031 29.355145 
L 36.90031 29.120474 
L 37.83031 28.463977 
L 38.76031 27.727038 
L 39.69031 28.841041 
L 40.62031 28.594278 
L 41.55031 29.154811 
L 42.48031 28.138098 
L 43.41031 27.467183 
L 44.34031 27.738995 
L 45.27031 26.996956 
L 46.20031 26.535244 
L 47.13031 25.542159 
L 48.06031 23.618697 
L 48.99031 22.77812 
L 49.92031 20.73915 
L 50.85031 19.851417 
L 51.78031 18.708759 
L 52.71031 18.018153 
L 53.64031 16.921232 
L 54.57031 16.51735 
L 55.50031 15.903501 
L 56.43031 14.816731 
L 57.36031 13.16911 
L 58.29031 12.516245 
L 59.22031 11.87687 
L 60.15031 11.313216 
L 61.08031 11.08405 
L 62.01031 11.487038 
L 62.94031 11.552143 
L 63.87031 10.813537 
" style="fill:none;stroke:#fc8d62;stroke-dasharray:1.5,1.5;stroke-dashoffset:0;stroke-opacity:0.7;stroke-width:1.5;"/>
   </g>
   <g id="patch_3">
    <path d="M 9 67.68 
L 9 17.28 
" style="fill:none;stroke:#a9a9a9;stroke-linecap:square;stroke-linejoin:miter;stroke-width:2;"/>
   </g>
   <g id="patch_4">
    <path d="M 64.8 67.68 
L 64.8 17.28 
" style="fill:none;"/>
   </g>
   <g id="patch_5">
    <path d="M 9 67.68 
L 64.8 67.68 
" style="fill:none;stroke:#a9a9a9;stroke-linecap:square;stroke-linejoin:miter;stroke-width:2;"/>
   </g>
   <g id="patch_6">
    <path d="M 9 17.28 
L 64.8 17.28 
" style="fill:none;"/>
   </g>
  </g>
  <g id="axes_2">
   <g id="patch_7">
    <path d="M 9 128.16 
L 64.8 128.16 
L 64.8 77.76 
L 9 77.76 
z
" style="fill:none;"/>
   </g>
   <g id="matplotlib.axis_3">
    <g id="xtick_4">
     <g id="line2d_9">
      <g>
       <use style="fill:#a9a9a9;stroke:#a9a9a9;stroke-width:2;" x="9" xlink:href="#m2b73d0247c" y="128.16"/>
      </g>
     </g>
    </g>
    <g id="xtick_5">
     <g id="line2d_10">
      <g>
       <use style="fill:#a9a9a9;stroke:#a9a9a9;stroke-width:2;" x="36.9" xlink:href="#m2b73d0247c" y="128.16"/>
      </g>
     </g>
    </g>
    <g id="xtick_6">
     <g id="line2d_11">
      <g>
       <use style="fill:#a9a9a9;stroke:#a9a9a9;stroke-width:2;" x="64.8" xlink:href="#m2b73d0247c" y="128.16"/>
      </g>
     </g>
    </g>
   </g>
   <g id="matplotlib.axis_4">
    <g id="ytick_4">
     <g id="line2d_12">
      <g>
       <use style="fill:#a9a9a9;stroke:#a9a9a9;stroke-width:2;" x="9" xlink:href="#mb48a149b01" y="128.16"/>
      </g>
     </g>
    </g>
    <g id="ytick_5">
     <g id="line2d_13">
      <g>
       <use style="fill:#a9a9a9;stroke:#a9a9a9;stroke-width:2;" x="9" xlink:href="#mb48a149b01" y="102.96"/>
      </g>
     </g>
    </g>
    <g id="ytick_6">
     <g id="line2d_14">
      <g>
       <use style="fill:#a9a9a9;stroke:#a9a9a9;stroke-width:2;" x="9" xlink:href="#mb48a149b01" y="77.76"/>
      </g>
     </g>
    </g>
   </g>
   <g id="line2d_15">
    <path clip-path="url(#pc07f4aa1e1)" d="M 10.86031 85.737656 
L 11.79031 85.471319 
L 12.72031 85.257959 
L 13.65031 85.067793 
L 14.58031 84.860564 
L 15.51031 84.690021 
L 16.44031 84.601561 
L 17.37031 84.488786 
L 18.30031 84.447546 
L 19.23031 84.45099 
L 20.16031 84.396657 
L 21.09031 84.384434 
L 22.02031 84.37027 
L 22.95031 84.330739 
L 23.88031 84.331629 
L 24.81031 84.335623 
L 25.74031 84.340709 
L 26.67031 84.330775 
L 27.60031 84.30852 
L 28.53031 84.310503 
L 29.46031 84.285782 
L 30.39031 84.270478 
L 31.32031 84.258454 
L 32.25031 84.246343 
L 33.18031 84.223053 
L 34.11031 84.202345 
L 35.04031 84.184464 
L 35.97031 84.175899 
L 36.90031 84.188726 
L 37.83031 84.191882 
L 38.76031 84.173554 
L 39.69031 84.164392 
L 40.62031 84.162463 
L 41.55031 84.16042 
L 42.48031 84.149424 
L 43.41031 84.147059 
L 44.34031 84.148516 
L 45.27031 84.138634 
L 46.20031 84.13733 
L 47.13031 84.132624 
L 48.06031 84.120537 
L 48.99031 84.121229 
L 49.92031 84.116853 
L 50.85031 84.128438 
L 51.78031 84.117834 
L 52.71031 84.117809 
L 53.64031 84.112804 
L 54.57031 84.114531 
L 55.50031 84.112165 
L 56.43031 84.108308 
L 57.36031 84.103723 
L 58.29031 84.10574 
L 59.22031 84.098655 
L 60.15031 84.099863 
L 61.08031 84.094441 
L 62.01031 84.09602 
L 62.94031 84.087933 
L 63.87031 84.087683 
" style="fill:none;stroke:#fc8d62;stroke-linecap:square;stroke-width:2;"/>
   </g>
   <g id="line2d_16">
    <path clip-path="url(#pc07f4aa1e1)" d="M 10.86031 90.827235 
L 11.79031 90.319197 
L 12.72031 89.914312 
L 13.65031 89.795421 
L 14.58031 89.714207 
L 15.51031 89.558005 
L 16.44031 89.446586 
L 17.37031 89.411848 
L 18.30031 89.369422 
L 19.23031 89.305936 
L 20.16031 89.281649 
L 21.09031 89.252237 
L 22.02031 89.26548 
L 22.95031 89.265114 
L 23.88031 89.251856 
L 24.81031 89.256828 
L 25.74031 89.237956 
L 26.67031 89.223002 
L 27.60031 89.208107 
L 28.53031 89.181063 
L 29.46031 89.171168 
L 30.39031 89.164965 
L 31.32031 89.176546 
L 32.25031 89.173751 
L 33.18031 89.175414 
L 34.11031 89.153501 
L 35.04031 89.155106 
L 35.97031 89.147568 
L 36.90031 89.14684 
L 37.83031 89.143649 
L 38.76031 89.141974 
L 39.69031 89.127279 
L 40.62031 89.107386 
L 41.55031 89.11594 
L 42.48031 89.114686 
L 43.41031 89.120059 
L 44.34031 89.117704 
L 45.27031 89.114878 
L 46.20031 89.123415 
L 47.13031 89.119686 
L 48.06031 89.11165 
L 48.99031 89.116509 
L 49.92031 89.118818 
L 50.85031 89.117248 
L 51.78031 89.122589 
L 52.71031 89.12934 
L 53.64031 89.130318 
L 54.57031 89.135412 
L 55.50031 89.134909 
L 56.43031 89.134864 
L 57.36031 89.143316 
L 58.29031 89.127186 
L 59.22031 89.119399 
L 60.15031 89.115664 
L 61.08031 89.112762 
L 62.01031 89.111611 
L 62.94031 89.109969 
L 63.87031 89.10442 
" style="fill:none;stroke:#fc8d62;stroke-dasharray:1.5,1.5;stroke-dashoffset:0;stroke-opacity:0.7;stroke-width:1.5;"/>
   </g>
   <g id="patch_8">
    <path d="M 9 128.16 
L 9 77.76 
" style="fill:none;stroke:#a9a9a9;stroke-linecap:square;stroke-linejoin:miter;stroke-width:2;"/>
   </g>
   <g id="patch_9">
    <path d="M 64.8 128.16 
L 64.8 77.76 
" style="fill:none;"/>
   </g>
   <g id="patch_10">
    <path d="M 9 128.16 
L 64.8 128.16 
" style="fill:none;stroke:#a9a9a9;stroke-linecap:square;stroke-linejoin:miter;stroke-width:2;"/>
   </g>
   <g id="patch_11">
    <path d="M 9 77.76 
L 64.8 77.76 
" style="fill:none;"/>
   </g>
  </g>
 </g>
 <defs>
  <clipPath id="p034183be12">
   <rect height="50.4" width="55.8" x="9" y="17.28"/>
  </clipPath>
  <clipPath id="pc07f4aa1e1">
   <rect height="50.4" width="55.8" x="9" y="77.76"/>
  </clipPath>
 </defs>
</svg>
