<?xml version="1.0" encoding="utf-8" standalone="no"?>
<!DOCTYPE svg PUBLIC "-//W3C//DTD SVG 1.1//EN"
  "http://www.w3.org/Graphics/SVG/1.1/DTD/svg11.dtd">
<!-- Created with matplotlib (https://matplotlib.org/) -->
<svg height="216pt" version="1.1" viewBox="0 0 72 216" width="72pt" xmlns="http://www.w3.org/2000/svg" xmlns:xlink="http://www.w3.org/1999/xlink">
 <metadata>
  <rdf:RDF xmlns:cc="http://creativecommons.org/ns#" xmlns:dc="http://purl.org/dc/elements/1.1/" xmlns:rdf="http://www.w3.org/1999/02/22-rdf-syntax-ns#">
   <cc:Work>
    <dc:type rdf:resource="http://purl.org/dc/dcmitype/StillImage"/>
    <dc:date>2021-10-13T00:12:25.880046</dc:date>
    <dc:format>image/svg+xml</dc:format>
    <dc:creator>
     <cc:Agent>
      <dc:title>Matplotlib v3.3.2, https://matplotlib.org/</dc:title>
     </cc:Agent>
    </dc:creator>
   </cc:Work>
  </rdf:RDF>
 </metadata>
 <defs>
  <style type="text/css">*{stroke-linecap:butt;stroke-linejoin:round;}</style>
 </defs>
 <g id="figure_1">
  <g id="patch_1">
   <path d="M 0 216 
L 72 216 
L 72 0 
L 0 0 
z
" style="fill:none;"/>
  </g>
  <g id="axes_1">
   <g id="patch_2">
    <path d="M 9 74.837647 
L 64.8 74.837647 
L 64.8 25.92 
L 9 25.92 
z
" style="fill:none;"/>
   </g>
   <g id="matplotlib.axis_1">
    <g id="xtick_1">
     <g id="line2d_1">
      <defs>
       <path d="M 0 0 
L 0 3.5 
" id="m270d7da58a" style="stroke:#a9a9a9;stroke-width:2;"/>
      </defs>
      <g>
       <use style="fill:#a9a9a9;stroke:#a9a9a9;stroke-width:2;" x="9" xlink:href="#m270d7da58a" y="74.837647"/>
      </g>
     </g>
    </g>
    <g id="xtick_2">
     <g id="line2d_2">
      <g>
       <use style="fill:#a9a9a9;stroke:#a9a9a9;stroke-width:2;" x="36.9" xlink:href="#m270d7da58a" y="74.837647"/>
      </g>
     </g>
    </g>
    <g id="xtick_3">
     <g id="line2d_3">
      <g>
       <use style="fill:#a9a9a9;stroke:#a9a9a9;stroke-width:2;" x="64.8" xlink:href="#m270d7da58a" y="74.837647"/>
      </g>
     </g>
    </g>
   </g>
   <g id="matplotlib.axis_2">
    <g id="ytick_1">
     <g id="line2d_4">
      <defs>
       <path d="M 0 0 
L -3.5 0 
" id="mceb7c88fe6" style="stroke:#a9a9a9;stroke-width:2;"/>
      </defs>
      <g>
       <use style="fill:#a9a9a9;stroke:#a9a9a9;stroke-width:2;" x="9" xlink:href="#mceb7c88fe6" y="74.837647"/>
      </g>
     </g>
    </g>
    <g id="ytick_2">
     <g id="line2d_5">
      <g>
       <use style="fill:#a9a9a9;stroke:#a9a9a9;stroke-width:2;" x="9" xlink:href="#mceb7c88fe6" y="68.175816"/>
      </g>
     </g>
    </g>
    <g id="ytick_3">
     <g id="line2d_6">
      <g>
       <use style="fill:#a9a9a9;stroke:#a9a9a9;stroke-width:2;" x="9" xlink:href="#mceb7c88fe6" y="61.513985"/>
      </g>
     </g>
    </g>
   </g>
   <g id="line2d_7">
    <path clip-path="url(#pbe1bf3fdc3)" d="M 10.86031 66.62583 
L 11.79031 64.00206 
L 12.72031 62.684084 
L 13.65031 60.506047 
L 14.58031 59.694091 
L 15.51031 58.341149 
L 16.44031 57.44362 
L 17.37031 56.796171 
L 18.30031 55.554871 
L 19.23031 54.657568 
L 20.16031 52.978527 
L 21.09031 52.383696 
L 22.02031 52.321213 
L 22.95031 50.69427 
L 23.88031 50.263777 
L 24.81031 49.3802 
L 25.74031 48.481764 
L 26.67031 47.587522 
L 27.60031 47.454751 
L 28.53031 46.843108 
L 29.46031 45.525653 
L 30.39031 45.182514 
L 31.32031 44.475109 
L 32.25031 44.467735 
L 33.18031 42.709802 
L 34.11031 42.225935 
L 35.04031 41.004747 
L 35.97031 41.189512 
L 36.90031 41.634648 
L 37.83031 41.457206 
L 38.76031 41.056371 
L 39.69031 40.189844 
L 40.62031 39.655742 
L 41.55031 38.444539 
L 42.48031 37.966918 
L 43.41031 38.646884 
L 44.34031 38.087546 
L 45.27031 37.330249 
L 46.20031 36.448754 
L 47.13031 36.038743 
L 48.06031 35.43219 
L 48.99031 34.902602 
L 49.92031 33.314136 
L 50.85031 33.532962 
L 51.78031 32.916713 
L 52.71031 32.349643 
L 53.64031 31.228402 
L 54.57031 30.418992 
L 55.50031 29.630294 
L 56.43031 29.548662 
L 57.36031 29.231846 
L 58.29031 28.471083 
L 59.22031 28.302128 
L 60.15031 26.747061 
L 61.08031 26.680283 
L 62.01031 26.253092 
L 62.94031 26.859363 
L 63.87031 26.500579 
" style="fill:none;stroke:#fc8d62;stroke-linecap:square;stroke-width:2;"/>
   </g>
   <g id="line2d_8">
    <path clip-path="url(#pbe1bf3fdc3)" d="M 10.86031 66.174097 
L 11.79031 64.504015 
L 12.72031 63.183802 
L 13.65031 61.759022 
L 14.58031 60.385587 
L 15.51031 59.920453 
L 16.44031 58.852329 
L 17.37031 57.948223 
L 18.30031 56.572337 
L 19.23031 55.91102 
L 20.16031 55.089593 
L 21.09031 53.24458 
L 22.02031 52.442892 
L 22.95031 51.423704 
L 23.88031 50.823305 
L 24.81031 49.818627 
L 25.74031 49.420178 
L 26.67031 48.646472 
L 27.60031 47.917442 
L 28.53031 47.335292 
L 29.46031 46.14392 
L 30.39031 44.714995 
L 31.32031 43.777602 
L 32.25031 43.136759 
L 33.18031 42.291316 
L 34.11031 42.093719 
L 35.04031 42.031243 
L 35.97031 42.086708 
L 36.90031 41.783696 
L 37.83031 41.01528 
L 38.76031 41.356727 
L 39.69031 40.27511 
L 40.62031 40.323158 
L 41.55031 39.814626 
L 42.48031 39.555425 
L 43.41031 39.04949 
L 44.34031 38.898536 
L 45.27031 38.784714 
L 46.20031 38.491432 
L 47.13031 39.028014 
L 48.06031 38.792747 
L 48.99031 38.122307 
L 49.92031 37.488699 
L 50.85031 37.773196 
L 51.78031 37.435402 
L 52.71031 36.98297 
L 53.64031 36.450077 
L 54.57031 35.97483 
L 55.50031 35.716071 
L 56.43031 34.782077 
L 57.36031 34.849911 
L 58.29031 34.330538 
L 59.22031 34.258787 
L 60.15031 33.798054 
L 61.08031 33.994957 
L 62.01031 33.584297 
L 62.94031 33.472822 
L 63.87031 32.906593 
" style="fill:none;stroke:#fc8d62;stroke-dasharray:1.5,1.5;stroke-dashoffset:0;stroke-opacity:0.7;stroke-width:1.5;"/>
   </g>
   <g id="patch_3">
    <path d="M 9 74.837647 
L 9 25.92 
" style="fill:none;stroke:#a9a9a9;stroke-linecap:square;stroke-linejoin:miter;stroke-width:2;"/>
   </g>
   <g id="patch_4">
    <path d="M 64.8 74.837647 
L 64.8 25.92 
" style="fill:none;"/>
   </g>
   <g id="patch_5">
    <path d="M 9 74.837647 
L 64.8 74.837647 
" style="fill:none;stroke:#a9a9a9;stroke-linecap:square;stroke-linejoin:miter;stroke-width:2;"/>
   </g>
   <g id="patch_6">
    <path d="M 9 25.92 
L 64.8 25.92 
" style="fill:none;"/>
   </g>
  </g>
  <g id="axes_2">
   <g id="patch_7">
    <path d="M 9 133.538824 
L 64.8 133.538824 
L 64.8 84.621176 
L 9 84.621176 
z
" style="fill:none;"/>
   </g>
   <g id="matplotlib.axis_3">
    <g id="xtick_4">
     <g id="line2d_9">
      <g>
       <use style="fill:#a9a9a9;stroke:#a9a9a9;stroke-width:2;" x="9" xlink:href="#m270d7da58a" y="133.538824"/>
      </g>
     </g>
    </g>
    <g id="xtick_5">
     <g id="line2d_10">
      <g>
       <use style="fill:#a9a9a9;stroke:#a9a9a9;stroke-width:2;" x="36.9" xlink:href="#m270d7da58a" y="133.538824"/>
      </g>
     </g>
    </g>
    <g id="xtick_6">
     <g id="line2d_11">
      <g>
       <use style="fill:#a9a9a9;stroke:#a9a9a9;stroke-width:2;" x="64.8" xlink:href="#m270d7da58a" y="133.538824"/>
      </g>
     </g>
    </g>
   </g>
   <g id="matplotlib.axis_4">
    <g id="ytick_4">
     <g id="line2d_12">
      <g>
       <use style="fill:#a9a9a9;stroke:#a9a9a9;stroke-width:2;" x="9" xlink:href="#mceb7c88fe6" y="133.538824"/>
      </g>
     </g>
    </g>
    <g id="ytick_5">
     <g id="line2d_13">
      <g>
       <use style="fill:#a9a9a9;stroke:#a9a9a9;stroke-width:2;" x="9" xlink:href="#mceb7c88fe6" y="109.08"/>
      </g>
     </g>
    </g>
    <g id="ytick_6">
     <g id="line2d_14">
      <g>
       <use style="fill:#a9a9a9;stroke:#a9a9a9;stroke-width:2;" x="9" xlink:href="#mceb7c88fe6" y="84.621176"/>
      </g>
     </g>
    </g>
   </g>
   <g id="line2d_15">
    <path clip-path="url(#p8a612a0777)" d="M 10.86031 100.469867 
L 11.79031 97.892808 
L 12.72031 96.904383 
L 13.65031 95.885089 
L 14.58031 95.552973 
L 15.51031 95.163142 
L 16.44031 94.943327 
L 17.37031 94.777733 
L 18.30031 94.573948 
L 19.23031 94.438133 
L 20.16031 94.376635 
L 21.09031 94.351281 
L 22.02031 94.343957 
L 22.95031 94.216257 
L 23.88031 94.193035 
L 24.81031 94.114723 
L 25.74031 94.049448 
L 26.67031 93.953875 
L 27.60031 93.922272 
L 28.53031 93.916334 
L 29.46031 93.880404 
L 30.39031 93.916504 
L 31.32031 93.900373 
L 32.25031 93.857183 
L 33.18031 93.812964 
L 34.11031 93.765849 
L 35.04031 93.733284 
L 35.97031 93.725283 
L 36.90031 93.707779 
L 37.83031 93.68957 
L 38.76031 93.645683 
L 39.69031 93.610543 
L 40.62031 93.598209 
L 41.55031 93.595384 
L 42.48031 93.621478 
L 43.41031 93.622273 
L 44.34031 93.644128 
L 45.27031 93.666752 
L 46.20031 93.645332 
L 47.13031 93.628035 
L 48.06031 93.630899 
L 48.99031 93.633373 
L 49.92031 93.613328 
L 50.85031 93.615827 
L 51.78031 93.611906 
L 52.71031 93.593109 
L 53.64031 93.568359 
L 54.57031 93.553198 
L 55.50031 93.534572 
L 56.43031 93.525223 
L 57.36031 93.514961 
L 58.29031 93.513701 
L 59.22031 93.526078 
L 60.15031 93.510226 
L 61.08031 93.498589 
L 62.01031 93.488963 
L 62.94031 93.491963 
L 63.87031 93.489766 
" style="fill:none;stroke:#fc8d62;stroke-linecap:square;stroke-width:2;"/>
   </g>
   <g id="line2d_16">
    <path clip-path="url(#p8a612a0777)" d="M 10.86031 102.604161 
L 11.79031 101.040583 
L 12.72031 100.600583 
L 13.65031 99.787904 
L 14.58031 99.33962 
L 15.51031 99.067985 
L 16.44031 98.850513 
L 17.37031 98.763265 
L 18.30031 98.603599 
L 19.23031 98.628554 
L 20.16031 98.497145 
L 21.09031 98.383576 
L 22.02031 98.341164 
L 22.95031 98.330516 
L 23.88031 98.263203 
L 24.81031 98.241742 
L 25.74031 98.234303 
L 26.67031 98.226229 
L 27.60031 98.201206 
L 28.53031 98.165212 
L 29.46031 98.095814 
L 30.39031 98.075507 
L 31.32031 98.060933 
L 32.25031 98.014631 
L 33.18031 97.984027 
L 34.11031 97.912931 
L 35.04031 97.929294 
L 35.97031 97.900995 
L 36.90031 97.901739 
L 37.83031 97.891128 
L 38.76031 97.831734 
L 39.69031 97.785771 
L 40.62031 97.803223 
L 41.55031 97.792968 
L 42.48031 97.765064 
L 43.41031 97.746172 
L 44.34031 97.750013 
L 45.27031 97.761604 
L 46.20031 97.761888 
L 47.13031 97.762096 
L 48.06031 97.775765 
L 48.99031 97.785743 
L 49.92031 97.786421 
L 50.85031 97.784218 
L 51.78031 97.771722 
L 52.71031 97.746937 
L 53.64031 97.749309 
L 54.57031 97.747679 
L 55.50031 97.748536 
L 56.43031 97.711805 
L 57.36031 97.712631 
L 58.29031 97.713501 
L 59.22031 97.700841 
L 60.15031 97.688467 
L 61.08031 97.683479 
L 62.01031 97.703318 
L 62.94031 97.697946 
L 63.87031 97.677347 
" style="fill:none;stroke:#fc8d62;stroke-dasharray:1.5,1.5;stroke-dashoffset:0;stroke-opacity:0.7;stroke-width:1.5;"/>
   </g>
   <g id="patch_8">
    <path d="M 9 133.538824 
L 9 84.621176 
" style="fill:none;stroke:#a9a9a9;stroke-linecap:square;stroke-linejoin:miter;stroke-width:2;"/>
   </g>
   <g id="patch_9">
    <path d="M 64.8 133.538824 
L 64.8 84.621176 
" style="fill:none;"/>
   </g>
   <g id="patch_10">
    <path d="M 9 133.538824 
L 64.8 133.538824 
" style="fill:none;stroke:#a9a9a9;stroke-linecap:square;stroke-linejoin:miter;stroke-width:2;"/>
   </g>
   <g id="patch_11">
    <path d="M 9 84.621176 
L 64.8 84.621176 
" style="fill:none;"/>
   </g>
  </g>
  <g id="axes_3">
   <g id="patch_12">
    <path d="M 9 192.24 
L 64.8 192.24 
L 64.8 143.322353 
L 9 143.322353 
z
" style="fill:none;"/>
   </g>
   <g id="matplotlib.axis_5">
    <g id="xtick_7">
     <g id="line2d_17">
      <g>
       <use style="fill:#a9a9a9;stroke:#a9a9a9;stroke-width:2;" x="9" xlink:href="#m270d7da58a" y="148.978922"/>
      </g>
     </g>
    </g>
    <g id="xtick_8">
     <g id="line2d_18">
      <g>
       <use style="fill:#a9a9a9;stroke:#a9a9a9;stroke-width:2;" x="36.9" xlink:href="#m270d7da58a" y="148.978922"/>
      </g>
     </g>
    </g>
    <g id="xtick_9">
     <g id="line2d_19">
      <g>
       <use style="fill:#a9a9a9;stroke:#a9a9a9;stroke-width:2;" x="64.8" xlink:href="#m270d7da58a" y="148.978922"/>
      </g>
     </g>
    </g>
   </g>
   <g id="matplotlib.axis_6">
    <g id="ytick_7">
     <g id="line2d_20">
      <g>
       <use style="fill:#a9a9a9;stroke:#a9a9a9;stroke-width:2;" x="9" xlink:href="#mceb7c88fe6" y="148.978922"/>
      </g>
     </g>
    </g>
    <g id="ytick_8">
     <g id="line2d_21">
      <g>
       <use style="fill:#a9a9a9;stroke:#a9a9a9;stroke-width:2;" x="9" xlink:href="#mceb7c88fe6" y="177.819641"/>
      </g>
     </g>
    </g>
   </g>
   <g id="line2d_22">
    <path clip-path="url(#pcab1235f8d)" d="M 10.86031 147.522453 
L 11.79031 146.721752 
L 12.72031 145.760735 
L 13.65031 145.265441 
L 14.58031 145.006343 
L 15.51031 144.387736 
L 16.44031 143.552241 
L 17.37031 143.322353 
L 18.30031 143.545302 
L 19.23031 143.656541 
L 20.16031 143.778579 
L 21.09031 143.542628 
L 22.02031 143.684347 
L 22.95031 143.359146 
L 23.88031 143.522711 
L 24.81031 143.68463 
L 25.74031 143.618444 
L 26.67031 143.936951 
L 27.60031 144.00649 
L 28.53031 143.99392 
L 29.46031 144.286815 
L 30.39031 144.378026 
L 31.32031 144.337979 
L 32.25031 144.497774 
L 33.18031 144.5331 
L 34.11031 144.445936 
L 35.04031 144.462602 
L 35.97031 144.425659 
L 36.90031 144.490516 
L 37.83031 144.505899 
L 38.76031 144.331422 
L 39.69031 144.53338 
L 40.62031 144.679605 
L 41.55031 144.671932 
L 42.48031 144.681298 
L 43.41031 144.770072 
L 44.34031 145.0943 
L 45.27031 144.98767 
L 46.20031 145.098736 
L 47.13031 145.203883 
L 48.06031 145.138349 
L 48.99031 145.085359 
L 49.92031 144.936852 
L 50.85031 144.824336 
L 51.78031 144.991768 
L 52.71031 145.008079 
L 53.64031 144.895646 
L 54.57031 144.848241 
L 55.50031 144.915966 
L 56.43031 144.932402 
L 57.36031 144.899442 
L 58.29031 145.161137 
L 59.22031 145.157164 
L 60.15031 145.08796 
L 61.08031 144.954619 
L 62.01031 144.966174 
L 62.94031 145.001231 
L 63.87031 145.130288 
" style="fill:none;stroke:#fc8d62;stroke-linecap:square;stroke-width:2;"/>
   </g>
   <g id="line2d_23">
    <path clip-path="url(#pcab1235f8d)" d="M 10.86031 147.586885 
L 11.79031 148.661639 
L 12.72031 148.895964 
L 13.65031 148.796202 
L 14.58031 148.813026 
L 15.51031 148.79308 
L 16.44031 148.849293 
L 17.37031 148.819119 
L 18.30031 148.828137 
L 19.23031 148.865601 
L 20.16031 148.923128 
L 21.09031 148.910137 
L 22.02031 148.956981 
L 22.95031 148.970841 
L 23.88031 148.954081 
L 24.81031 148.920316 
L 25.74031 148.933972 
L 26.67031 148.95473 
L 27.60031 148.969713 
L 28.53031 148.97088 
L 29.46031 148.970424 
L 30.39031 148.975508 
L 31.32031 148.978341 
L 32.25031 148.973079 
L 33.18031 148.973383 
L 34.11031 148.973517 
L 35.04031 148.975602 
L 35.97031 148.978923 
L 36.90031 148.978165 
L 37.83031 148.978945 
L 38.76031 148.976344 
L 39.69031 148.97682 
L 40.62031 148.977827 
L 41.55031 148.977584 
L 42.48031 148.978926 
L 43.41031 148.974868 
L 44.34031 148.973727 
L 45.27031 148.976292 
L 46.20031 148.977188 
L 47.13031 148.976585 
L 48.06031 148.977276 
L 48.99031 148.97782 
L 49.92031 148.978921 
L 50.85031 148.977626 
L 51.78031 148.976726 
L 52.71031 148.977838 
L 53.64031 148.979035 
L 54.57031 148.978921 
L 55.50031 148.978586 
L 56.43031 148.977977 
L 57.36031 148.978041 
L 58.29031 148.97891 
L 59.22031 148.978468 
L 60.15031 148.978943 
L 61.08031 148.978439 
L 62.01031 148.979013 
L 62.94031 148.978967 
L 63.87031 148.978257 
" style="fill:none;stroke:#fc8d62;stroke-dasharray:1.5,1.5;stroke-dashoffset:0;stroke-opacity:0.7;stroke-width:1.5;"/>
   </g>
   <g id="line2d_24">
    <path clip-path="url(#pcab1235f8d)" d="M 9 177.819641 
L 64.8 177.819641 
" style="fill:none;stroke:#66c2a5;stroke-dasharray:1.5,1.5;stroke-dashoffset:0;stroke-opacity:0.7;stroke-width:1.5;"/>
   </g>
   <g id="patch_13">
    <path d="M 9 192.24 
L 9 143.322353 
" style="fill:none;stroke:#a9a9a9;stroke-linecap:square;stroke-linejoin:miter;stroke-width:2;"/>
   </g>
   <g id="patch_14">
    <path d="M 64.8 192.24 
L 64.8 143.322353 
" style="fill:none;"/>
   </g>
   <g id="patch_15">
    <path d="M 9 148.978922 
L 64.8 148.978922 
" style="fill:none;stroke:#a9a9a9;stroke-linecap:square;stroke-linejoin:miter;stroke-width:2;"/>
   </g>
   <g id="patch_16">
    <path d="M 9 143.322353 
L 64.8 143.322353 
" style="fill:none;"/>
   </g>
  </g>
 </g>
 <defs>
  <clipPath id="pbe1bf3fdc3">
   <rect height="48.917647" width="55.8" x="9" y="25.92"/>
  </clipPath>
  <clipPath id="p8a612a0777">
   <rect height="48.917647" width="55.8" x="9" y="84.621176"/>
  </clipPath>
  <clipPath id="pcab1235f8d">
   <rect height="48.917647" width="55.8" x="9" y="143.322353"/>
  </clipPath>
 </defs>
</svg>
