<?xml version="1.0" encoding="utf-8" standalone="no"?>
<!DOCTYPE svg PUBLIC "-//W3C//DTD SVG 1.1//EN"
  "http://www.w3.org/Graphics/SVG/1.1/DTD/svg11.dtd">
<!-- Created with matplotlib (https://matplotlib.org/) -->
<svg height="144pt" version="1.1" viewBox="0 0 72 144" width="72pt" xmlns="http://www.w3.org/2000/svg" xmlns:xlink="http://www.w3.org/1999/xlink">
 <metadata>
  <rdf:RDF xmlns:cc="http://creativecommons.org/ns#" xmlns:dc="http://purl.org/dc/elements/1.1/" xmlns:rdf="http://www.w3.org/1999/02/22-rdf-syntax-ns#">
   <cc:Work>
    <dc:type rdf:resource="http://purl.org/dc/dcmitype/StillImage"/>
    <dc:date>2021-10-11T18:52:34.948086</dc:date>
    <dc:format>image/svg+xml</dc:format>
    <dc:creator>
     <cc:Agent>
      <dc:title>Matplotlib v3.3.2, https://matplotlib.org/</dc:title>
     </cc:Agent>
    </dc:creator>
   </cc:Work>
  </rdf:RDF>
 </metadata>
 <defs>
  <style type="text/css">*{stroke-linecap:butt;stroke-linejoin:round;}</style>
 </defs>
 <g id="figure_1">
  <g id="patch_1">
   <path d="M 0 144 
L 72 144 
L 72 0 
L 0 0 
z
" style="fill:none;"/>
  </g>
  <g id="axes_1">
   <g id="patch_2">
    <path d="M 9 67.68 
L 64.8 67.68 
L 64.8 17.28 
L 9 17.28 
z
" style="fill:none;"/>
   </g>
   <g id="matplotlib.axis_1">
    <g id="xtick_1">
     <g id="line2d_1">
      <defs>
       <path d="M 0 0 
L 0 3.5 
" id="m730b16e623" style="stroke:#a9a9a9;stroke-width:2;"/>
      </defs>
      <g>
       <use style="fill:#a9a9a9;stroke:#a9a9a9;stroke-width:2;" x="9" xlink:href="#m730b16e623" y="67.68"/>
      </g>
     </g>
    </g>
    <g id="xtick_2">
     <g id="line2d_2">
      <g>
       <use style="fill:#a9a9a9;stroke:#a9a9a9;stroke-width:2;" x="36.9" xlink:href="#m730b16e623" y="67.68"/>
      </g>
     </g>
    </g>
    <g id="xtick_3">
     <g id="line2d_3">
      <g>
       <use style="fill:#a9a9a9;stroke:#a9a9a9;stroke-width:2;" x="64.8" xlink:href="#m730b16e623" y="67.68"/>
      </g>
     </g>
    </g>
   </g>
   <g id="matplotlib.axis_2">
    <g id="ytick_1">
     <g id="line2d_4">
      <defs>
       <path d="M 0 0 
L -3.5 0 
" id="m389e9854a4" style="stroke:#a9a9a9;stroke-width:2;"/>
      </defs>
      <g>
       <use style="fill:#a9a9a9;stroke:#a9a9a9;stroke-width:2;" x="9" xlink:href="#m389e9854a4" y="67.68"/>
      </g>
     </g>
    </g>
    <g id="ytick_2">
     <g id="line2d_5">
      <g>
       <use style="fill:#a9a9a9;stroke:#a9a9a9;stroke-width:2;" x="9" xlink:href="#m389e9854a4" y="62.483884"/>
      </g>
     </g>
    </g>
    <g id="ytick_3">
     <g id="line2d_6">
      <g>
       <use style="fill:#a9a9a9;stroke:#a9a9a9;stroke-width:2;" x="9" xlink:href="#m389e9854a4" y="57.287768"/>
      </g>
     </g>
    </g>
   </g>
   <g id="line2d_7">
    <path clip-path="url(#pce5770c7ba)" d="M 10.86031 58.55523 
L 11.79031 56.917237 
L 12.72031 55.553228 
L 13.65031 54.38097 
L 14.58031 53.023472 
L 15.51031 51.149927 
L 16.44031 49.956396 
L 17.37031 49.281796 
L 18.30031 48.953089 
L 19.23031 47.596578 
L 20.16031 45.91503 
L 21.09031 45.231176 
L 22.02031 44.645691 
L 22.95031 43.875733 
L 23.88031 42.581156 
L 24.81031 41.367098 
L 25.74031 40.575988 
L 26.67031 40.279829 
L 27.60031 39.67749 
L 28.53031 38.966309 
L 29.46031 37.932845 
L 30.39031 36.464207 
L 31.32031 35.030595 
L 32.25031 33.610151 
L 33.18031 32.455333 
L 34.11031 31.672514 
L 35.04031 31.151155 
L 35.97031 31.053635 
L 36.90031 30.612497 
L 37.83031 30.838435 
L 38.76031 31.059161 
L 39.69031 30.622673 
L 40.62031 29.922932 
L 41.55031 29.413276 
L 42.48031 29.047566 
L 43.41031 28.752845 
L 44.34031 28.259195 
L 45.27031 28.010172 
L 46.20031 27.083146 
L 47.13031 26.532188 
L 48.06031 26.026657 
L 48.99031 25.27015 
L 49.92031 24.648723 
L 50.85031 23.659651 
L 51.78031 22.313213 
L 52.71031 21.821423 
L 53.64031 20.453318 
L 54.57031 19.713736 
L 55.50031 19.680989 
L 56.43031 19.26706 
L 57.36031 18.606294 
L 58.29031 18.132622 
L 59.22031 18.091096 
L 60.15031 17.93805 
L 61.08031 18.483243 
L 62.01031 18.537496 
L 62.94031 17.694652 
L 63.87031 17.539806 
" style="fill:none;stroke:#fc8d62;stroke-linecap:square;stroke-width:2;"/>
   </g>
   <g id="line2d_8">
    <path clip-path="url(#pce5770c7ba)" d="M 10.86031 59.178606 
L 11.79031 57.557204 
L 12.72031 56.154825 
L 13.65031 54.274161 
L 14.58031 52.875325 
L 15.51031 52.005419 
L 16.44031 51.116524 
L 17.37031 50.469933 
L 18.30031 49.211111 
L 19.23031 47.827986 
L 20.16031 46.631924 
L 21.09031 46.142369 
L 22.02031 45.328795 
L 22.95031 44.834936 
L 23.88031 44.131145 
L 24.81031 43.758078 
L 25.74031 42.498718 
L 26.67031 41.19149 
L 27.60031 40.674741 
L 28.53031 39.464797 
L 29.46031 38.742313 
L 30.39031 38.055962 
L 31.32031 37.153632 
L 32.25031 36.491579 
L 33.18031 36.400751 
L 34.11031 35.839076 
L 35.04031 35.24047 
L 35.97031 35.186251 
L 36.90031 34.365853 
L 37.83031 33.983716 
L 38.76031 33.398851 
L 39.69031 32.522813 
L 40.62031 31.888761 
L 41.55031 31.424024 
L 42.48031 31.124138 
L 43.41031 29.884925 
L 44.34031 29.711162 
L 45.27031 29.324589 
L 46.20031 28.363947 
L 47.13031 27.257759 
L 48.06031 26.839764 
L 48.99031 25.522246 
L 49.92031 24.830102 
L 50.85031 24.03441 
L 51.78031 23.946516 
L 52.71031 23.474342 
L 53.64031 23.08236 
L 54.57031 22.161553 
L 55.50031 22.404578 
L 56.43031 21.870599 
L 57.36031 21.439602 
L 58.29031 20.789301 
L 59.22031 21.11002 
L 60.15031 20.726578 
L 61.08031 20.978014 
L 62.01031 20.612252 
L 62.94031 20.631059 
L 63.87031 20.495491 
" style="fill:none;stroke:#fc8d62;stroke-dasharray:1.5,1.5;stroke-dashoffset:0;stroke-opacity:0.7;stroke-width:1.5;"/>
   </g>
   <g id="patch_3">
    <path d="M 9 67.68 
L 9 17.28 
" style="fill:none;stroke:#a9a9a9;stroke-linecap:square;stroke-linejoin:miter;stroke-width:2;"/>
   </g>
   <g id="patch_4">
    <path d="M 64.8 67.68 
L 64.8 17.28 
" style="fill:none;"/>
   </g>
   <g id="patch_5">
    <path d="M 9 67.68 
L 64.8 67.68 
" style="fill:none;stroke:#a9a9a9;stroke-linecap:square;stroke-linejoin:miter;stroke-width:2;"/>
   </g>
   <g id="patch_6">
    <path d="M 9 17.28 
L 64.8 17.28 
" style="fill:none;"/>
   </g>
  </g>
  <g id="axes_2">
   <g id="patch_7">
    <path d="M 9 128.16 
L 64.8 128.16 
L 64.8 77.76 
L 9 77.76 
z
" style="fill:none;"/>
   </g>
   <g id="matplotlib.axis_3">
    <g id="xtick_4">
     <g id="line2d_9">
      <g>
       <use style="fill:#a9a9a9;stroke:#a9a9a9;stroke-width:2;" x="9" xlink:href="#m730b16e623" y="128.16"/>
      </g>
     </g>
    </g>
    <g id="xtick_5">
     <g id="line2d_10">
      <g>
       <use style="fill:#a9a9a9;stroke:#a9a9a9;stroke-width:2;" x="36.9" xlink:href="#m730b16e623" y="128.16"/>
      </g>
     </g>
    </g>
    <g id="xtick_6">
     <g id="line2d_11">
      <g>
       <use style="fill:#a9a9a9;stroke:#a9a9a9;stroke-width:2;" x="64.8" xlink:href="#m730b16e623" y="128.16"/>
      </g>
     </g>
    </g>
   </g>
   <g id="matplotlib.axis_4">
    <g id="ytick_4">
     <g id="line2d_12">
      <g>
       <use style="fill:#a9a9a9;stroke:#a9a9a9;stroke-width:2;" x="9" xlink:href="#m389e9854a4" y="128.16"/>
      </g>
     </g>
    </g>
    <g id="ytick_5">
     <g id="line2d_13">
      <g>
       <use style="fill:#a9a9a9;stroke:#a9a9a9;stroke-width:2;" x="9" xlink:href="#m389e9854a4" y="102.96"/>
      </g>
     </g>
    </g>
    <g id="ytick_6">
     <g id="line2d_14">
      <g>
       <use style="fill:#a9a9a9;stroke:#a9a9a9;stroke-width:2;" x="9" xlink:href="#m389e9854a4" y="77.76"/>
      </g>
     </g>
    </g>
   </g>
   <g id="line2d_15">
    <path clip-path="url(#p0d3016710c)" d="M 10.86031 95.57572 
L 11.79031 94.27567 
L 12.72031 93.555257 
L 13.65031 93.153167 
L 14.58031 92.867124 
L 15.51031 92.538437 
L 16.44031 92.338314 
L 17.37031 92.252617 
L 18.30031 92.264843 
L 19.23031 92.226181 
L 20.16031 92.16602 
L 21.09031 92.074965 
L 22.02031 92.069789 
L 22.95031 92.034076 
L 23.88031 91.971868 
L 24.81031 91.975107 
L 25.74031 91.945091 
L 26.67031 91.950395 
L 27.60031 91.968153 
L 28.53031 91.929857 
L 29.46031 91.892136 
L 30.39031 91.854166 
L 31.32031 91.823646 
L 32.25031 91.785173 
L 33.18031 91.75595 
L 34.11031 91.743045 
L 35.04031 91.726617 
L 35.97031 91.690631 
L 36.90031 91.674826 
L 37.83031 91.683604 
L 38.76031 91.709657 
L 39.69031 91.685857 
L 40.62031 91.688438 
L 41.55031 91.688829 
L 42.48031 91.733676 
L 43.41031 91.77261 
L 44.34031 91.75885 
L 45.27031 91.749316 
L 46.20031 91.750225 
L 47.13031 91.750294 
L 48.06031 91.75434 
L 48.99031 91.752957 
L 49.92031 91.759684 
L 50.85031 91.75532 
L 51.78031 91.75082 
L 52.71031 91.745648 
L 53.64031 91.765166 
L 54.57031 91.745338 
L 55.50031 91.728129 
L 56.43031 91.73158 
L 57.36031 91.732018 
L 58.29031 91.719477 
L 59.22031 91.720876 
L 60.15031 91.743183 
L 61.08031 91.733323 
L 62.01031 91.735019 
L 62.94031 91.72056 
L 63.87031 91.707334 
" style="fill:none;stroke:#fc8d62;stroke-linecap:square;stroke-width:2;"/>
   </g>
   <g id="line2d_16">
    <path clip-path="url(#p0d3016710c)" d="M 10.86031 101.248272 
L 11.79031 100.084172 
L 12.72031 99.596539 
L 13.65031 99.037206 
L 14.58031 98.760798 
L 15.51031 98.657078 
L 16.44031 98.512484 
L 17.37031 98.496829 
L 18.30031 98.364341 
L 19.23031 98.31978 
L 20.16031 98.27544 
L 21.09031 98.255366 
L 22.02031 98.21301 
L 22.95031 98.186763 
L 23.88031 98.150345 
L 24.81031 98.084004 
L 25.74031 98.059277 
L 26.67031 98.000382 
L 27.60031 97.963195 
L 28.53031 97.941722 
L 29.46031 97.889407 
L 30.39031 97.853008 
L 31.32031 97.803621 
L 32.25031 97.847054 
L 33.18031 97.840995 
L 34.11031 97.814229 
L 35.04031 97.793068 
L 35.97031 97.772508 
L 36.90031 97.739287 
L 37.83031 97.727023 
L 38.76031 97.704624 
L 39.69031 97.724559 
L 40.62031 97.707528 
L 41.55031 97.696036 
L 42.48031 97.696229 
L 43.41031 97.71088 
L 44.34031 97.70319 
L 45.27031 97.69412 
L 46.20031 97.679142 
L 47.13031 97.699005 
L 48.06031 97.701772 
L 48.99031 97.680773 
L 49.92031 97.711077 
L 50.85031 97.701019 
L 51.78031 97.685367 
L 52.71031 97.674622 
L 53.64031 97.714008 
L 54.57031 97.728402 
L 55.50031 97.729649 
L 56.43031 97.753805 
L 57.36031 97.739135 
L 58.29031 97.72967 
L 59.22031 97.734278 
L 60.15031 97.719529 
L 61.08031 97.717203 
L 62.01031 97.723884 
L 62.94031 97.719349 
L 63.87031 97.713953 
" style="fill:none;stroke:#fc8d62;stroke-dasharray:1.5,1.5;stroke-dashoffset:0;stroke-opacity:0.7;stroke-width:1.5;"/>
   </g>
   <g id="patch_8">
    <path d="M 9 128.16 
L 9 77.76 
" style="fill:none;stroke:#a9a9a9;stroke-linecap:square;stroke-linejoin:miter;stroke-width:2;"/>
   </g>
   <g id="patch_9">
    <path d="M 64.8 128.16 
L 64.8 77.76 
" style="fill:none;"/>
   </g>
   <g id="patch_10">
    <path d="M 9 128.16 
L 64.8 128.16 
" style="fill:none;stroke:#a9a9a9;stroke-linecap:square;stroke-linejoin:miter;stroke-width:2;"/>
   </g>
   <g id="patch_11">
    <path d="M 9 77.76 
L 64.8 77.76 
" style="fill:none;"/>
   </g>
  </g>
 </g>
 <defs>
  <clipPath id="pce5770c7ba">
   <rect height="50.4" width="55.8" x="9" y="17.28"/>
  </clipPath>
  <clipPath id="p0d3016710c">
   <rect height="50.4" width="55.8" x="9" y="77.76"/>
  </clipPath>
 </defs>
</svg>
