<?xml version="1.0" encoding="utf-8" standalone="no"?>
<!DOCTYPE svg PUBLIC "-//W3C//DTD SVG 1.1//EN"
  "http://www.w3.org/Graphics/SVG/1.1/DTD/svg11.dtd">
<!-- Created with matplotlib (https://matplotlib.org/) -->
<svg height="144pt" version="1.1" viewBox="0 0 72 144" width="72pt" xmlns="http://www.w3.org/2000/svg" xmlns:xlink="http://www.w3.org/1999/xlink">
 <metadata>
  <rdf:RDF xmlns:cc="http://creativecommons.org/ns#" xmlns:dc="http://purl.org/dc/elements/1.1/" xmlns:rdf="http://www.w3.org/1999/02/22-rdf-syntax-ns#">
   <cc:Work>
    <dc:type rdf:resource="http://purl.org/dc/dcmitype/StillImage"/>
    <dc:date>2021-10-13T14:29:42.009342</dc:date>
    <dc:format>image/svg+xml</dc:format>
    <dc:creator>
     <cc:Agent>
      <dc:title>Matplotlib v3.3.2, https://matplotlib.org/</dc:title>
     </cc:Agent>
    </dc:creator>
   </cc:Work>
  </rdf:RDF>
 </metadata>
 <defs>
  <style type="text/css">*{stroke-linecap:butt;stroke-linejoin:round;}</style>
 </defs>
 <g id="figure_1">
  <g id="patch_1">
   <path d="M 0 144 
L 72 144 
L 72 0 
L 0 0 
z
" style="fill:none;"/>
  </g>
  <g id="axes_1">
   <g id="patch_2">
    <path d="M 9 67.68 
L 64.8 67.68 
L 64.8 17.28 
L 9 17.28 
z
" style="fill:none;"/>
   </g>
   <g id="matplotlib.axis_1">
    <g id="xtick_1">
     <g id="line2d_1">
      <defs>
       <path d="M 0 0 
L 0 3.5 
" id="m443eafd06e" style="stroke:#a9a9a9;stroke-width:2;"/>
      </defs>
      <g>
       <use style="fill:#a9a9a9;stroke:#a9a9a9;stroke-width:2;" x="9" xlink:href="#m443eafd06e" y="67.68"/>
      </g>
     </g>
    </g>
    <g id="xtick_2">
     <g id="line2d_2">
      <g>
       <use style="fill:#a9a9a9;stroke:#a9a9a9;stroke-width:2;" x="36.9" xlink:href="#m443eafd06e" y="67.68"/>
      </g>
     </g>
    </g>
    <g id="xtick_3">
     <g id="line2d_3">
      <g>
       <use style="fill:#a9a9a9;stroke:#a9a9a9;stroke-width:2;" x="64.8" xlink:href="#m443eafd06e" y="67.68"/>
      </g>
     </g>
    </g>
   </g>
   <g id="matplotlib.axis_2">
    <g id="ytick_1">
     <g id="line2d_4">
      <defs>
       <path d="M 0 0 
L -3.5 0 
" id="m132ce46dea" style="stroke:#a9a9a9;stroke-width:2;"/>
      </defs>
      <g>
       <use style="fill:#a9a9a9;stroke:#a9a9a9;stroke-width:2;" x="9" xlink:href="#m132ce46dea" y="67.68"/>
      </g>
     </g>
    </g>
    <g id="ytick_2">
     <g id="line2d_5">
      <g>
       <use style="fill:#a9a9a9;stroke:#a9a9a9;stroke-width:2;" x="9" xlink:href="#m132ce46dea" y="63.29378"/>
      </g>
     </g>
    </g>
    <g id="ytick_3">
     <g id="line2d_6">
      <g>
       <use style="fill:#a9a9a9;stroke:#a9a9a9;stroke-width:2;" x="9" xlink:href="#m132ce46dea" y="58.907561"/>
      </g>
     </g>
    </g>
   </g>
   <g id="line2d_7">
    <path clip-path="url(#p567cb4511b)" d="M 10.86031 59.637411 
L 11.79031 59.467003 
L 12.72031 57.087599 
L 13.65031 56.569367 
L 14.58031 55.049169 
L 15.51031 55.182613 
L 16.44031 53.829175 
L 17.37031 53.1075 
L 18.30031 52.264836 
L 19.23031 51.839133 
L 20.16031 51.052363 
L 21.09031 49.891302 
L 22.02031 48.837431 
L 22.95031 46.370597 
L 23.88031 44.913228 
L 24.81031 44.028311 
L 25.74031 43.323363 
L 26.67031 41.827121 
L 27.60031 41.364125 
L 28.53031 39.777228 
L 29.46031 39.52734 
L 30.39031 37.808706 
L 31.32031 36.772709 
L 32.25031 36.070854 
L 33.18031 34.738078 
L 34.11031 34.202338 
L 35.04031 34.100119 
L 35.97031 32.976853 
L 36.90031 33.032208 
L 37.83031 32.115529 
L 38.76031 31.370802 
L 39.69031 30.727374 
L 40.62031 29.262589 
L 41.55031 28.930509 
L 42.48031 27.833287 
L 43.41031 26.497623 
L 44.34031 25.970079 
L 45.27031 25.371355 
L 46.20031 25.038273 
L 47.13031 24.151188 
L 48.06031 22.97905 
L 48.99031 22.721117 
L 49.92031 21.281656 
L 50.85031 21.267941 
L 51.78031 20.930448 
L 52.71031 20.843552 
L 53.64031 20.122128 
L 54.57031 19.721534 
L 55.50031 19.541027 
L 56.43031 18.126906 
L 57.36031 17.499311 
L 58.29031 17.674257 
L 59.22031 18.777817 
L 60.15031 18.250421 
L 61.08031 19.101629 
L 62.01031 19.019305 
L 62.94031 20.754814 
L 63.87031 20.644273 
" style="fill:none;stroke:#fc8d62;stroke-linecap:square;stroke-width:2;"/>
   </g>
   <g id="line2d_8">
    <path clip-path="url(#p567cb4511b)" d="M 10.86031 59.176467 
L 11.79031 57.217393 
L 12.72031 56.209843 
L 13.65031 54.699397 
L 14.58031 54.049466 
L 15.51031 52.742804 
L 16.44031 52.023835 
L 17.37031 51.056594 
L 18.30031 50.582913 
L 19.23031 49.236853 
L 20.16031 47.996967 
L 21.09031 46.654337 
L 22.02031 46.914662 
L 22.95031 46.983965 
L 23.88031 46.189278 
L 24.81031 44.987362 
L 25.74031 43.233698 
L 26.67031 42.402392 
L 27.60031 41.815242 
L 28.53031 40.938064 
L 29.46031 39.861715 
L 30.39031 39.881712 
L 31.32031 39.283112 
L 32.25031 38.665894 
L 33.18031 37.734723 
L 34.11031 36.913947 
L 35.04031 36.480419 
L 35.97031 36.806086 
L 36.90031 36.565431 
L 37.83031 37.384365 
L 38.76031 37.25894 
L 39.69031 38.046529 
L 40.62031 38.612823 
L 41.55031 37.918252 
L 42.48031 36.44854 
L 43.41031 36.229248 
L 44.34031 35.574837 
L 45.27031 35.378703 
L 46.20031 35.58077 
L 47.13031 34.787882 
L 48.06031 34.005199 
L 48.99031 33.148675 
L 49.92031 31.642488 
L 50.85031 30.610229 
L 51.78031 30.261433 
L 52.71031 29.747867 
L 53.64031 29.061868 
L 54.57031 27.682464 
L 55.50031 26.749503 
L 56.43031 27.055146 
L 57.36031 26.338406 
L 58.29031 26.413798 
L 59.22031 26.521683 
L 60.15031 26.244624 
L 61.08031 26.695426 
L 62.01031 26.107602 
L 62.94031 25.87497 
L 63.87031 25.097029 
" style="fill:none;stroke:#fc8d62;stroke-dasharray:1.5,1.5;stroke-dashoffset:0;stroke-opacity:0.7;stroke-width:1.5;"/>
   </g>
   <g id="patch_3">
    <path d="M 9 67.68 
L 9 17.28 
" style="fill:none;stroke:#a9a9a9;stroke-linecap:square;stroke-linejoin:miter;stroke-width:2;"/>
   </g>
   <g id="patch_4">
    <path d="M 64.8 67.68 
L 64.8 17.28 
" style="fill:none;"/>
   </g>
   <g id="patch_5">
    <path d="M 9 67.68 
L 64.8 67.68 
" style="fill:none;stroke:#a9a9a9;stroke-linecap:square;stroke-linejoin:miter;stroke-width:2;"/>
   </g>
   <g id="patch_6">
    <path d="M 9 17.28 
L 64.8 17.28 
" style="fill:none;"/>
   </g>
  </g>
  <g id="axes_2">
   <g id="patch_7">
    <path d="M 9 128.16 
L 64.8 128.16 
L 64.8 77.76 
L 9 77.76 
z
" style="fill:none;"/>
   </g>
   <g id="matplotlib.axis_3">
    <g id="xtick_4">
     <g id="line2d_9">
      <g>
       <use style="fill:#a9a9a9;stroke:#a9a9a9;stroke-width:2;" x="9" xlink:href="#m443eafd06e" y="128.16"/>
      </g>
     </g>
    </g>
    <g id="xtick_5">
     <g id="line2d_10">
      <g>
       <use style="fill:#a9a9a9;stroke:#a9a9a9;stroke-width:2;" x="36.9" xlink:href="#m443eafd06e" y="128.16"/>
      </g>
     </g>
    </g>
    <g id="xtick_6">
     <g id="line2d_11">
      <g>
       <use style="fill:#a9a9a9;stroke:#a9a9a9;stroke-width:2;" x="64.8" xlink:href="#m443eafd06e" y="128.16"/>
      </g>
     </g>
    </g>
   </g>
   <g id="matplotlib.axis_4">
    <g id="ytick_4">
     <g id="line2d_12">
      <g>
       <use style="fill:#a9a9a9;stroke:#a9a9a9;stroke-width:2;" x="9" xlink:href="#m132ce46dea" y="128.16"/>
      </g>
     </g>
    </g>
    <g id="ytick_5">
     <g id="line2d_13">
      <g>
       <use style="fill:#a9a9a9;stroke:#a9a9a9;stroke-width:2;" x="9" xlink:href="#m132ce46dea" y="102.96"/>
      </g>
     </g>
    </g>
    <g id="ytick_6">
     <g id="line2d_14">
      <g>
       <use style="fill:#a9a9a9;stroke:#a9a9a9;stroke-width:2;" x="9" xlink:href="#m132ce46dea" y="77.76"/>
      </g>
     </g>
    </g>
   </g>
   <g id="line2d_15">
    <path clip-path="url(#p4b84d5ac78)" d="M 10.86031 98.073013 
L 11.79031 97.90053 
L 12.72031 97.003891 
L 13.65031 96.733974 
L 14.58031 96.481893 
L 15.51031 96.408269 
L 16.44031 96.167722 
L 17.37031 96.063306 
L 18.30031 95.921187 
L 19.23031 95.90567 
L 20.16031 95.876119 
L 21.09031 95.785393 
L 22.02031 95.741642 
L 22.95031 95.701658 
L 23.88031 95.687803 
L 24.81031 95.636429 
L 25.74031 95.630733 
L 26.67031 95.636626 
L 27.60031 95.655343 
L 28.53031 95.640616 
L 29.46031 95.632969 
L 30.39031 95.624205 
L 31.32031 95.632789 
L 32.25031 95.645452 
L 33.18031 95.639307 
L 34.11031 95.630735 
L 35.04031 95.633998 
L 35.97031 95.632701 
L 36.90031 95.616413 
L 37.83031 95.610258 
L 38.76031 95.615429 
L 39.69031 95.601053 
L 40.62031 95.573042 
L 41.55031 95.584226 
L 42.48031 95.590649 
L 43.41031 95.586458 
L 44.34031 95.584725 
L 45.27031 95.607232 
L 46.20031 95.602952 
L 47.13031 95.592067 
L 48.06031 95.580626 
L 48.99031 95.598781 
L 49.92031 95.59439 
L 50.85031 95.60101 
L 51.78031 95.597221 
L 52.71031 95.620513 
L 53.64031 95.627915 
L 54.57031 95.626278 
L 55.50031 95.631522 
L 56.43031 95.61656 
L 57.36031 95.608819 
L 58.29031 95.623064 
L 59.22031 95.622828 
L 60.15031 95.613891 
L 61.08031 95.625008 
L 62.01031 95.626627 
L 62.94031 95.613535 
L 63.87031 95.616056 
" style="fill:none;stroke:#fc8d62;stroke-linecap:square;stroke-width:2;"/>
   </g>
   <g id="line2d_16">
    <path clip-path="url(#p4b84d5ac78)" d="M 10.86031 94.912544 
L 11.79031 94.172554 
L 12.72031 93.972633 
L 13.65031 93.704225 
L 14.58031 93.526934 
L 15.51031 93.356482 
L 16.44031 93.30242 
L 17.37031 93.176104 
L 18.30031 93.107199 
L 19.23031 93.025204 
L 20.16031 92.970303 
L 21.09031 92.893527 
L 22.02031 92.93543 
L 22.95031 92.954397 
L 23.88031 92.938569 
L 24.81031 92.916548 
L 25.74031 92.903846 
L 26.67031 92.939555 
L 27.60031 92.940339 
L 28.53031 92.902343 
L 29.46031 92.866841 
L 30.39031 92.852739 
L 31.32031 92.838513 
L 32.25031 92.840819 
L 33.18031 92.827125 
L 34.11031 92.780341 
L 35.04031 92.759358 
L 35.97031 92.742709 
L 36.90031 92.738307 
L 37.83031 92.720688 
L 38.76031 92.701468 
L 39.69031 92.703866 
L 40.62031 92.71975 
L 41.55031 92.711461 
L 42.48031 92.701588 
L 43.41031 92.716195 
L 44.34031 92.702935 
L 45.27031 92.707547 
L 46.20031 92.708422 
L 47.13031 92.699635 
L 48.06031 92.681586 
L 48.99031 92.679628 
L 49.92031 92.67323 
L 50.85031 92.677766 
L 51.78031 92.667233 
L 52.71031 92.671152 
L 53.64031 92.661921 
L 54.57031 92.655438 
L 55.50031 92.659626 
L 56.43031 92.649032 
L 57.36031 92.638715 
L 58.29031 92.628175 
L 59.22031 92.620601 
L 60.15031 92.618483 
L 61.08031 92.606787 
L 62.01031 92.615732 
L 62.94031 92.607892 
L 63.87031 92.601559 
" style="fill:none;stroke:#fc8d62;stroke-dasharray:1.5,1.5;stroke-dashoffset:0;stroke-opacity:0.7;stroke-width:1.5;"/>
   </g>
   <g id="patch_8">
    <path d="M 9 128.16 
L 9 77.76 
" style="fill:none;stroke:#a9a9a9;stroke-linecap:square;stroke-linejoin:miter;stroke-width:2;"/>
   </g>
   <g id="patch_9">
    <path d="M 64.8 128.16 
L 64.8 77.76 
" style="fill:none;"/>
   </g>
   <g id="patch_10">
    <path d="M 9 128.16 
L 64.8 128.16 
" style="fill:none;stroke:#a9a9a9;stroke-linecap:square;stroke-linejoin:miter;stroke-width:2;"/>
   </g>
   <g id="patch_11">
    <path d="M 9 77.76 
L 64.8 77.76 
" style="fill:none;"/>
   </g>
  </g>
 </g>
 <defs>
  <clipPath id="p567cb4511b">
   <rect height="50.4" width="55.8" x="9" y="17.28"/>
  </clipPath>
  <clipPath id="p4b84d5ac78">
   <rect height="50.4" width="55.8" x="9" y="77.76"/>
  </clipPath>
 </defs>
</svg>
