<?xml version="1.0" encoding="utf-8" standalone="no"?>
<!DOCTYPE svg PUBLIC "-//W3C//DTD SVG 1.1//EN"
  "http://www.w3.org/Graphics/SVG/1.1/DTD/svg11.dtd">
<!-- Created with matplotlib (https://matplotlib.org/) -->
<svg height="144pt" version="1.1" viewBox="0 0 72 144" width="72pt" xmlns="http://www.w3.org/2000/svg" xmlns:xlink="http://www.w3.org/1999/xlink">
 <metadata>
  <rdf:RDF xmlns:cc="http://creativecommons.org/ns#" xmlns:dc="http://purl.org/dc/elements/1.1/" xmlns:rdf="http://www.w3.org/1999/02/22-rdf-syntax-ns#">
   <cc:Work>
    <dc:type rdf:resource="http://purl.org/dc/dcmitype/StillImage"/>
    <dc:date>2021-10-13T16:03:51.524028</dc:date>
    <dc:format>image/svg+xml</dc:format>
    <dc:creator>
     <cc:Agent>
      <dc:title>Matplotlib v3.3.2, https://matplotlib.org/</dc:title>
     </cc:Agent>
    </dc:creator>
   </cc:Work>
  </rdf:RDF>
 </metadata>
 <defs>
  <style type="text/css">*{stroke-linecap:butt;stroke-linejoin:round;}</style>
 </defs>
 <g id="figure_1">
  <g id="patch_1">
   <path d="M 0 144 
L 72 144 
L 72 0 
L 0 0 
z
" style="fill:none;"/>
  </g>
  <g id="axes_1">
   <g id="patch_2">
    <path d="M 9 67.68 
L 64.8 67.68 
L 64.8 17.28 
L 9 17.28 
z
" style="fill:none;"/>
   </g>
   <g id="matplotlib.axis_1">
    <g id="xtick_1">
     <g id="line2d_1">
      <defs>
       <path d="M 0 0 
L 0 3.5 
" id="md5532dc757" style="stroke:#a9a9a9;stroke-width:2;"/>
      </defs>
      <g>
       <use style="fill:#a9a9a9;stroke:#a9a9a9;stroke-width:2;" x="9" xlink:href="#md5532dc757" y="67.68"/>
      </g>
     </g>
    </g>
    <g id="xtick_2">
     <g id="line2d_2">
      <g>
       <use style="fill:#a9a9a9;stroke:#a9a9a9;stroke-width:2;" x="36.9" xlink:href="#md5532dc757" y="67.68"/>
      </g>
     </g>
    </g>
    <g id="xtick_3">
     <g id="line2d_3">
      <g>
       <use style="fill:#a9a9a9;stroke:#a9a9a9;stroke-width:2;" x="64.8" xlink:href="#md5532dc757" y="67.68"/>
      </g>
     </g>
    </g>
   </g>
   <g id="matplotlib.axis_2">
    <g id="ytick_1">
     <g id="line2d_4">
      <defs>
       <path d="M 0 0 
L -3.5 0 
" id="mf2c15976c4" style="stroke:#a9a9a9;stroke-width:2;"/>
      </defs>
      <g>
       <use style="fill:#a9a9a9;stroke:#a9a9a9;stroke-width:2;" x="9" xlink:href="#mf2c15976c4" y="67.68"/>
      </g>
     </g>
    </g>
    <g id="ytick_2">
     <g id="line2d_5">
      <g>
       <use style="fill:#a9a9a9;stroke:#a9a9a9;stroke-width:2;" x="9" xlink:href="#mf2c15976c4" y="64.601855"/>
      </g>
     </g>
    </g>
    <g id="ytick_3">
     <g id="line2d_6">
      <g>
       <use style="fill:#a9a9a9;stroke:#a9a9a9;stroke-width:2;" x="9" xlink:href="#mf2c15976c4" y="61.523711"/>
      </g>
     </g>
    </g>
   </g>
   <g id="line2d_7">
    <path clip-path="url(#pa7f4969c58)" d="M 10.86031 59.556825 
L 11.79031 58.37984 
L 12.72031 56.547035 
L 13.65031 55.27394 
L 14.58031 53.546277 
L 15.51031 52.38775 
L 16.44031 51.54004 
L 17.37031 51.174084 
L 18.30031 49.901084 
L 19.23031 48.287745 
L 20.16031 46.945842 
L 21.09031 45.868513 
L 22.02031 44.510121 
L 22.95031 43.24218 
L 23.88031 42.648224 
L 24.81031 42.005352 
L 25.74031 41.932511 
L 26.67031 40.82064 
L 27.60031 40.046397 
L 28.53031 39.788809 
L 29.46031 38.489332 
L 30.39031 37.939427 
L 31.32031 38.145561 
L 32.25031 37.58618 
L 33.18031 36.712574 
L 34.11031 35.832626 
L 35.04031 35.313364 
L 35.97031 34.480176 
L 36.90031 33.643688 
L 37.83031 33.128535 
L 38.76031 31.982435 
L 39.69031 31.666157 
L 40.62031 31.419106 
L 41.55031 30.691142 
L 42.48031 29.627594 
L 43.41031 28.156557 
L 44.34031 28.25701 
L 45.27031 28.196182 
L 46.20031 27.962684 
L 47.13031 27.115155 
L 48.06031 26.492633 
L 48.99031 25.992683 
L 49.92031 24.510364 
L 50.85031 24.493671 
L 51.78031 24.217613 
L 52.71031 23.128564 
L 53.64031 22.524672 
L 54.57031 22.378005 
L 55.50031 21.570275 
L 56.43031 20.304039 
L 57.36031 20.875301 
L 58.29031 20.923877 
L 59.22031 20.468937 
L 60.15031 20.088502 
L 61.08031 19.288469 
L 62.01031 19.018214 
L 62.94031 18.112749 
L 63.87031 17.433907 
" style="fill:none;stroke:#fc8d62;stroke-linecap:square;stroke-width:2;"/>
   </g>
   <g id="line2d_8">
    <path clip-path="url(#pa7f4969c58)" d="M 10.86031 64.792022 
L 11.79031 64.193772 
L 12.72031 63.595892 
L 13.65031 62.913759 
L 14.58031 62.298983 
L 15.51031 61.885811 
L 16.44031 61.715712 
L 17.37031 61.433713 
L 18.30031 61.06219 
L 19.23031 60.623615 
L 20.16031 60.432417 
L 21.09031 60.076961 
L 22.02031 59.970808 
L 22.95031 59.433812 
L 23.88031 59.125585 
L 24.81031 58.955042 
L 25.74031 58.492605 
L 26.67031 58.196633 
L 27.60031 57.849158 
L 28.53031 57.827128 
L 29.46031 57.513366 
L 30.39031 57.315905 
L 31.32031 57.212809 
L 32.25031 56.881127 
L 33.18031 56.945831 
L 34.11031 56.694685 
L 35.04031 56.719203 
L 35.97031 56.672617 
L 36.90031 56.608657 
L 37.83031 56.380093 
L 38.76031 56.205789 
L 39.69031 56.177947 
L 40.62031 55.898045 
L 41.55031 55.732843 
L 42.48031 55.513023 
L 43.41031 55.393694 
L 44.34031 55.254198 
L 45.27031 55.163279 
L 46.20031 54.861797 
L 47.13031 54.911802 
L 48.06031 54.855039 
L 48.99031 54.558534 
L 49.92031 54.403572 
L 50.85031 54.142158 
L 51.78031 54.155662 
L 52.71031 54.082042 
L 53.64031 53.927017 
L 54.57031 53.860195 
L 55.50031 53.802031 
L 56.43031 53.678357 
L 57.36031 53.559776 
L 58.29031 53.40128 
L 59.22031 53.28765 
L 60.15031 53.095923 
L 61.08031 52.952347 
L 62.01031 52.998882 
L 62.94031 52.883573 
L 63.87031 52.757729 
" style="fill:none;stroke:#fc8d62;stroke-dasharray:1.5,1.5;stroke-dashoffset:0;stroke-opacity:0.7;stroke-width:1.5;"/>
   </g>
   <g id="patch_3">
    <path d="M 9 67.68 
L 9 17.28 
" style="fill:none;stroke:#a9a9a9;stroke-linecap:square;stroke-linejoin:miter;stroke-width:2;"/>
   </g>
   <g id="patch_4">
    <path d="M 64.8 67.68 
L 64.8 17.28 
" style="fill:none;"/>
   </g>
   <g id="patch_5">
    <path d="M 9 67.68 
L 64.8 67.68 
" style="fill:none;stroke:#a9a9a9;stroke-linecap:square;stroke-linejoin:miter;stroke-width:2;"/>
   </g>
   <g id="patch_6">
    <path d="M 9 17.28 
L 64.8 17.28 
" style="fill:none;"/>
   </g>
  </g>
  <g id="axes_2">
   <g id="patch_7">
    <path d="M 9 128.16 
L 64.8 128.16 
L 64.8 77.76 
L 9 77.76 
z
" style="fill:none;"/>
   </g>
   <g id="matplotlib.axis_3">
    <g id="xtick_4">
     <g id="line2d_9">
      <g>
       <use style="fill:#a9a9a9;stroke:#a9a9a9;stroke-width:2;" x="9" xlink:href="#md5532dc757" y="128.16"/>
      </g>
     </g>
    </g>
    <g id="xtick_5">
     <g id="line2d_10">
      <g>
       <use style="fill:#a9a9a9;stroke:#a9a9a9;stroke-width:2;" x="36.9" xlink:href="#md5532dc757" y="128.16"/>
      </g>
     </g>
    </g>
    <g id="xtick_6">
     <g id="line2d_11">
      <g>
       <use style="fill:#a9a9a9;stroke:#a9a9a9;stroke-width:2;" x="64.8" xlink:href="#md5532dc757" y="128.16"/>
      </g>
     </g>
    </g>
   </g>
   <g id="matplotlib.axis_4">
    <g id="ytick_4">
     <g id="line2d_12">
      <g>
       <use style="fill:#a9a9a9;stroke:#a9a9a9;stroke-width:2;" x="9" xlink:href="#mf2c15976c4" y="128.16"/>
      </g>
     </g>
    </g>
    <g id="ytick_5">
     <g id="line2d_13">
      <g>
       <use style="fill:#a9a9a9;stroke:#a9a9a9;stroke-width:2;" x="9" xlink:href="#mf2c15976c4" y="102.96"/>
      </g>
     </g>
    </g>
    <g id="ytick_6">
     <g id="line2d_14">
      <g>
       <use style="fill:#a9a9a9;stroke:#a9a9a9;stroke-width:2;" x="9" xlink:href="#mf2c15976c4" y="77.76"/>
      </g>
     </g>
    </g>
   </g>
   <g id="line2d_15">
    <path clip-path="url(#p6b746015ec)" d="M 10.86031 102.579397 
L 11.79031 102.041184 
L 12.72031 101.597434 
L 13.65031 101.318618 
L 14.58031 101.182652 
L 15.51031 101.172573 
L 16.44031 101.015575 
L 17.37031 100.937847 
L 18.30031 100.881909 
L 19.23031 100.843384 
L 20.16031 100.807856 
L 21.09031 100.802379 
L 22.02031 100.75743 
L 22.95031 100.778501 
L 23.88031 100.765962 
L 24.81031 100.772863 
L 25.74031 100.741989 
L 26.67031 100.707468 
L 27.60031 100.685422 
L 28.53031 100.696561 
L 29.46031 100.668268 
L 30.39031 100.664504 
L 31.32031 100.618613 
L 32.25031 100.619729 
L 33.18031 100.586768 
L 34.11031 100.590961 
L 35.04031 100.587381 
L 35.97031 100.572062 
L 36.90031 100.557506 
L 37.83031 100.565418 
L 38.76031 100.558063 
L 39.69031 100.542759 
L 40.62031 100.544894 
L 41.55031 100.526021 
L 42.48031 100.513884 
L 43.41031 100.50862 
L 44.34031 100.509353 
L 45.27031 100.500708 
L 46.20031 100.504089 
L 47.13031 100.507876 
L 48.06031 100.515047 
L 48.99031 100.520036 
L 49.92031 100.517117 
L 50.85031 100.519773 
L 51.78031 100.53153 
L 52.71031 100.529267 
L 53.64031 100.532736 
L 54.57031 100.535164 
L 55.50031 100.53166 
L 56.43031 100.524144 
L 57.36031 100.534191 
L 58.29031 100.53297 
L 59.22031 100.526775 
L 60.15031 100.535223 
L 61.08031 100.529303 
L 62.01031 100.517842 
L 62.94031 100.512284 
L 63.87031 100.512834 
" style="fill:none;stroke:#fc8d62;stroke-linecap:square;stroke-width:2;"/>
   </g>
   <g id="line2d_16">
    <path clip-path="url(#p6b746015ec)" d="M 10.86031 112.455317 
L 11.79031 109.689508 
L 12.72031 107.614767 
L 13.65031 105.747345 
L 14.58031 104.656207 
L 15.51031 103.478776 
L 16.44031 102.717371 
L 17.37031 102.423124 
L 18.30031 101.965598 
L 19.23031 101.549414 
L 20.16031 101.328954 
L 21.09031 100.821079 
L 22.02031 100.715631 
L 22.95031 100.41032 
L 23.88031 100.293692 
L 24.81031 99.95778 
L 25.74031 99.658354 
L 26.67031 99.541308 
L 27.60031 99.517058 
L 28.53031 99.394555 
L 29.46031 99.273202 
L 30.39031 99.243934 
L 31.32031 99.149153 
L 32.25031 99.087624 
L 33.18031 99.084258 
L 34.11031 98.96286 
L 35.04031 98.954492 
L 35.97031 98.908192 
L 36.90031 98.85115 
L 37.83031 98.79534 
L 38.76031 98.662225 
L 39.69031 98.609306 
L 40.62031 98.500733 
L 41.55031 98.433012 
L 42.48031 98.382034 
L 43.41031 98.335167 
L 44.34031 98.275753 
L 45.27031 98.285432 
L 46.20031 98.294298 
L 47.13031 98.287072 
L 48.06031 98.288976 
L 48.99031 98.248772 
L 49.92031 98.15418 
L 50.85031 98.089874 
L 51.78031 98.108443 
L 52.71031 98.096628 
L 53.64031 98.049974 
L 54.57031 97.972574 
L 55.50031 97.904279 
L 56.43031 97.899412 
L 57.36031 97.898044 
L 58.29031 97.901853 
L 59.22031 97.886995 
L 60.15031 97.874205 
L 61.08031 97.849433 
L 62.01031 97.853904 
L 62.94031 97.84321 
L 63.87031 97.82853 
" style="fill:none;stroke:#fc8d62;stroke-dasharray:1.5,1.5;stroke-dashoffset:0;stroke-opacity:0.7;stroke-width:1.5;"/>
   </g>
   <g id="patch_8">
    <path d="M 9 128.16 
L 9 77.76 
" style="fill:none;stroke:#a9a9a9;stroke-linecap:square;stroke-linejoin:miter;stroke-width:2;"/>
   </g>
   <g id="patch_9">
    <path d="M 64.8 128.16 
L 64.8 77.76 
" style="fill:none;"/>
   </g>
   <g id="patch_10">
    <path d="M 9 128.16 
L 64.8 128.16 
" style="fill:none;stroke:#a9a9a9;stroke-linecap:square;stroke-linejoin:miter;stroke-width:2;"/>
   </g>
   <g id="patch_11">
    <path d="M 9 77.76 
L 64.8 77.76 
" style="fill:none;"/>
   </g>
  </g>
 </g>
 <defs>
  <clipPath id="pa7f4969c58">
   <rect height="50.4" width="55.8" x="9" y="17.28"/>
  </clipPath>
  <clipPath id="p6b746015ec">
   <rect height="50.4" width="55.8" x="9" y="77.76"/>
  </clipPath>
 </defs>
</svg>
