<?xml version="1.0" encoding="utf-8" standalone="no"?>
<!DOCTYPE svg PUBLIC "-//W3C//DTD SVG 1.1//EN"
  "http://www.w3.org/Graphics/SVG/1.1/DTD/svg11.dtd">
<!-- Created with matplotlib (https://matplotlib.org/) -->
<svg height="144pt" version="1.1" viewBox="0 0 72 144" width="72pt" xmlns="http://www.w3.org/2000/svg" xmlns:xlink="http://www.w3.org/1999/xlink">
 <metadata>
  <rdf:RDF xmlns:cc="http://creativecommons.org/ns#" xmlns:dc="http://purl.org/dc/elements/1.1/" xmlns:rdf="http://www.w3.org/1999/02/22-rdf-syntax-ns#">
   <cc:Work>
    <dc:type rdf:resource="http://purl.org/dc/dcmitype/StillImage"/>
    <dc:date>2021-10-13T14:43:28.562204</dc:date>
    <dc:format>image/svg+xml</dc:format>
    <dc:creator>
     <cc:Agent>
      <dc:title>Matplotlib v3.3.2, https://matplotlib.org/</dc:title>
     </cc:Agent>
    </dc:creator>
   </cc:Work>
  </rdf:RDF>
 </metadata>
 <defs>
  <style type="text/css">*{stroke-linecap:butt;stroke-linejoin:round;}</style>
 </defs>
 <g id="figure_1">
  <g id="patch_1">
   <path d="M 0 144 
L 72 144 
L 72 0 
L 0 0 
z
" style="fill:none;"/>
  </g>
  <g id="axes_1">
   <g id="patch_2">
    <path d="M 9 67.68 
L 64.8 67.68 
L 64.8 17.28 
L 9 17.28 
z
" style="fill:none;"/>
   </g>
   <g id="matplotlib.axis_1">
    <g id="xtick_1">
     <g id="line2d_1">
      <defs>
       <path d="M 0 0 
L 0 3.5 
" id="m5d77048285" style="stroke:#a9a9a9;stroke-width:2;"/>
      </defs>
      <g>
       <use style="fill:#a9a9a9;stroke:#a9a9a9;stroke-width:2;" x="9" xlink:href="#m5d77048285" y="67.68"/>
      </g>
     </g>
    </g>
    <g id="xtick_2">
     <g id="line2d_2">
      <g>
       <use style="fill:#a9a9a9;stroke:#a9a9a9;stroke-width:2;" x="36.9" xlink:href="#m5d77048285" y="67.68"/>
      </g>
     </g>
    </g>
    <g id="xtick_3">
     <g id="line2d_3">
      <g>
       <use style="fill:#a9a9a9;stroke:#a9a9a9;stroke-width:2;" x="64.8" xlink:href="#m5d77048285" y="67.68"/>
      </g>
     </g>
    </g>
   </g>
   <g id="matplotlib.axis_2">
    <g id="ytick_1">
     <g id="line2d_4">
      <defs>
       <path d="M 0 0 
L -3.5 0 
" id="mea4d8b7fed" style="stroke:#a9a9a9;stroke-width:2;"/>
      </defs>
      <g>
       <use style="fill:#a9a9a9;stroke:#a9a9a9;stroke-width:2;" x="9" xlink:href="#mea4d8b7fed" y="67.68"/>
      </g>
     </g>
    </g>
    <g id="ytick_2">
     <g id="line2d_5">
      <g>
       <use style="fill:#a9a9a9;stroke:#a9a9a9;stroke-width:2;" x="9" xlink:href="#mea4d8b7fed" y="66.0248"/>
      </g>
     </g>
    </g>
    <g id="ytick_3">
     <g id="line2d_6">
      <g>
       <use style="fill:#a9a9a9;stroke:#a9a9a9;stroke-width:2;" x="9" xlink:href="#mea4d8b7fed" y="64.3696"/>
      </g>
     </g>
    </g>
   </g>
   <g id="line2d_7">
    <path clip-path="url(#pc42304893f)" d="M 10.86031 61.02342 
L 11.79031 60.370718 
L 12.72031 59.805016 
L 13.65031 59.119307 
L 14.58031 58.590269 
L 15.51031 58.189975 
L 16.44031 57.400761 
L 17.37031 56.515901 
L 18.30031 55.814828 
L 19.23031 54.884125 
L 20.16031 54.139717 
L 21.09031 52.884724 
L 22.02031 51.928367 
L 22.95031 50.41796 
L 23.88031 49.258401 
L 24.81031 47.314211 
L 25.74031 45.295446 
L 26.67031 43.848394 
L 27.60031 41.938435 
L 28.53031 40.037974 
L 29.46031 37.296771 
L 30.39031 35.433172 
L 31.32031 32.340725 
L 32.25031 30.231398 
L 33.18031 30.700601 
L 34.11031 31.601959 
L 35.04031 33.267457 
L 35.97031 35.281188 
L 36.90031 36.779637 
L 37.83031 37.037989 
L 38.76031 37.85145 
L 39.69031 38.234418 
L 40.62031 37.784947 
L 41.55031 37.8543 
L 42.48031 38.017607 
L 43.41031 36.974013 
L 44.34031 35.958554 
L 45.27031 34.778766 
L 46.20031 33.686367 
L 47.13031 31.991618 
L 48.06031 30.722219 
L 48.99031 28.790916 
L 49.92031 25.499398 
L 50.85031 23.645193 
L 51.78031 21.555215 
L 52.71031 20.288075 
L 53.64031 18.03596 
L 54.57031 17.36276 
L 55.50031 17.802791 
L 56.43031 20.286576 
L 57.36031 21.901374 
L 58.29031 22.885663 
L 59.22031 23.253341 
L 60.15031 23.741425 
L 61.08031 25.514972 
L 62.01031 25.729142 
L 62.94031 25.784683 
L 63.87031 25.456232 
" style="fill:none;stroke:#fc8d62;stroke-linecap:square;stroke-width:2;"/>
   </g>
   <g id="line2d_8">
    <path clip-path="url(#pc42304893f)" d="M 10.86031 61.313681 
L 11.79031 60.906157 
L 12.72031 59.227043 
L 13.65031 58.062215 
L 14.58031 57.328923 
L 15.51031 56.21548 
L 16.44031 55.832145 
L 17.37031 55.442938 
L 18.30031 54.377203 
L 19.23031 53.540033 
L 20.16031 52.594518 
L 21.09031 51.86052 
L 22.02031 51.019704 
L 22.95031 50.10888 
L 23.88031 49.395358 
L 24.81031 47.421545 
L 25.74031 45.490368 
L 26.67031 43.228808 
L 27.60031 41.689315 
L 28.53031 40.291226 
L 29.46031 37.526866 
L 30.39031 36.160371 
L 31.32031 35.580276 
L 32.25031 33.906444 
L 33.18031 33.240592 
L 34.11031 33.001767 
L 35.04031 33.34226 
L 35.97031 33.395138 
L 36.90031 34.268056 
L 37.83031 34.775265 
L 38.76031 35.094952 
L 39.69031 35.706478 
L 40.62031 36.238798 
L 41.55031 35.748739 
L 42.48031 35.491483 
L 43.41031 35.410546 
L 44.34031 34.913 
L 45.27031 34.797359 
L 46.20031 33.791301 
L 47.13031 32.778555 
L 48.06031 30.294346 
L 48.99031 28.3479 
L 49.92031 25.563362 
L 50.85031 23.152717 
L 51.78031 20.963218 
L 52.71031 17.65776 
L 53.64031 15.026378 
L 54.57031 13.449856 
L 55.50031 13.920861 
L 56.43031 14.158817 
L 57.36031 15.21295 
L 58.29031 14.806691 
L 59.22031 15.600817 
L 60.15031 16.373885 
L 61.08031 16.978005 
L 62.01031 18.049888 
L 62.94031 19.326369 
L 63.87031 20.557781 
" style="fill:none;stroke:#fc8d62;stroke-dasharray:1.5,1.5;stroke-dashoffset:0;stroke-opacity:0.7;stroke-width:1.5;"/>
   </g>
   <g id="patch_3">
    <path d="M 9 67.68 
L 9 17.28 
" style="fill:none;stroke:#a9a9a9;stroke-linecap:square;stroke-linejoin:miter;stroke-width:2;"/>
   </g>
   <g id="patch_4">
    <path d="M 64.8 67.68 
L 64.8 17.28 
" style="fill:none;"/>
   </g>
   <g id="patch_5">
    <path d="M 9 67.68 
L 64.8 67.68 
" style="fill:none;stroke:#a9a9a9;stroke-linecap:square;stroke-linejoin:miter;stroke-width:2;"/>
   </g>
   <g id="patch_6">
    <path d="M 9 17.28 
L 64.8 17.28 
" style="fill:none;"/>
   </g>
  </g>
  <g id="axes_2">
   <g id="patch_7">
    <path d="M 9 128.16 
L 64.8 128.16 
L 64.8 77.76 
L 9 77.76 
z
" style="fill:none;"/>
   </g>
   <g id="matplotlib.axis_3">
    <g id="xtick_4">
     <g id="line2d_9">
      <g>
       <use style="fill:#a9a9a9;stroke:#a9a9a9;stroke-width:2;" x="9" xlink:href="#m5d77048285" y="128.16"/>
      </g>
     </g>
    </g>
    <g id="xtick_5">
     <g id="line2d_10">
      <g>
       <use style="fill:#a9a9a9;stroke:#a9a9a9;stroke-width:2;" x="36.9" xlink:href="#m5d77048285" y="128.16"/>
      </g>
     </g>
    </g>
    <g id="xtick_6">
     <g id="line2d_11">
      <g>
       <use style="fill:#a9a9a9;stroke:#a9a9a9;stroke-width:2;" x="64.8" xlink:href="#m5d77048285" y="128.16"/>
      </g>
     </g>
    </g>
   </g>
   <g id="matplotlib.axis_4">
    <g id="ytick_4">
     <g id="line2d_12">
      <g>
       <use style="fill:#a9a9a9;stroke:#a9a9a9;stroke-width:2;" x="9" xlink:href="#mea4d8b7fed" y="128.16"/>
      </g>
     </g>
    </g>
    <g id="ytick_5">
     <g id="line2d_13">
      <g>
       <use style="fill:#a9a9a9;stroke:#a9a9a9;stroke-width:2;" x="9" xlink:href="#mea4d8b7fed" y="102.96"/>
      </g>
     </g>
    </g>
    <g id="ytick_6">
     <g id="line2d_14">
      <g>
       <use style="fill:#a9a9a9;stroke:#a9a9a9;stroke-width:2;" x="9" xlink:href="#mea4d8b7fed" y="77.76"/>
      </g>
     </g>
    </g>
   </g>
   <g id="line2d_15">
    <path clip-path="url(#p819c93c0c8)" d="M 10.86031 85.031833 
L 11.79031 84.865129 
L 12.72031 84.735944 
L 13.65031 84.657544 
L 14.58031 84.594533 
L 15.51031 84.550868 
L 16.44031 84.491428 
L 17.37031 84.46076 
L 18.30031 84.423984 
L 19.23031 84.408229 
L 20.16031 84.40568 
L 21.09031 84.394373 
L 22.02031 84.409585 
L 22.95031 84.399002 
L 23.88031 84.408498 
L 24.81031 84.401597 
L 25.74031 84.399371 
L 26.67031 84.399014 
L 27.60031 84.401341 
L 28.53031 84.394098 
L 29.46031 84.373473 
L 30.39031 84.36133 
L 31.32031 84.352326 
L 32.25031 84.344868 
L 33.18031 84.33123 
L 34.11031 84.32307 
L 35.04031 84.313279 
L 35.97031 84.30867 
L 36.90031 84.304005 
L 37.83031 84.303703 
L 38.76031 84.292011 
L 39.69031 84.283136 
L 40.62031 84.284732 
L 41.55031 84.292957 
L 42.48031 84.299279 
L 43.41031 84.307379 
L 44.34031 84.31642 
L 45.27031 84.320023 
L 46.20031 84.326198 
L 47.13031 84.332944 
L 48.06031 84.336819 
L 48.99031 84.34248 
L 49.92031 84.345271 
L 50.85031 84.343052 
L 51.78031 84.342786 
L 52.71031 84.341584 
L 53.64031 84.338645 
L 54.57031 84.33637 
L 55.50031 84.337544 
L 56.43031 84.334351 
L 57.36031 84.332694 
L 58.29031 84.332478 
L 59.22031 84.330783 
L 60.15031 84.324833 
L 61.08031 84.321716 
L 62.01031 84.321666 
L 62.94031 84.32539 
L 63.87031 84.325942 
" style="fill:none;stroke:#fc8d62;stroke-linecap:square;stroke-width:2;"/>
   </g>
   <g id="line2d_16">
    <path clip-path="url(#p819c93c0c8)" d="M 10.86031 91.267171 
L 11.79031 91.120258 
L 12.72031 90.993555 
L 13.65031 90.886998 
L 14.58031 90.809853 
L 15.51031 90.746621 
L 16.44031 90.714375 
L 17.37031 90.707033 
L 18.30031 90.735994 
L 19.23031 90.74334 
L 20.16031 90.746172 
L 21.09031 90.747534 
L 22.02031 90.766187 
L 22.95031 90.772481 
L 23.88031 90.784325 
L 24.81031 90.78973 
L 25.74031 90.785873 
L 26.67031 90.776364 
L 27.60031 90.769416 
L 28.53031 90.77512 
L 29.46031 90.765877 
L 30.39031 90.76347 
L 31.32031 90.749624 
L 32.25031 90.7423 
L 33.18031 90.73429 
L 34.11031 90.734242 
L 35.04031 90.733894 
L 35.97031 90.735845 
L 36.90031 90.735231 
L 37.83031 90.733119 
L 38.76031 90.729878 
L 39.69031 90.728459 
L 40.62031 90.725259 
L 41.55031 90.728054 
L 42.48031 90.727966 
L 43.41031 90.734385 
L 44.34031 90.742045 
L 45.27031 90.745436 
L 46.20031 90.745898 
L 47.13031 90.757697 
L 48.06031 90.755145 
L 48.99031 90.755555 
L 49.92031 90.757192 
L 50.85031 90.754278 
L 51.78031 90.750977 
L 52.71031 90.754747 
L 53.64031 90.749816 
L 54.57031 90.747982 
L 55.50031 90.746945 
L 56.43031 90.743705 
L 57.36031 90.741678 
L 58.29031 90.737017 
L 59.22031 90.736977 
L 60.15031 90.734699 
L 61.08031 90.729253 
L 62.01031 90.72916 
L 62.94031 90.728333 
L 63.87031 90.727478 
" style="fill:none;stroke:#fc8d62;stroke-dasharray:1.5,1.5;stroke-dashoffset:0;stroke-opacity:0.7;stroke-width:1.5;"/>
   </g>
   <g id="patch_8">
    <path d="M 9 128.16 
L 9 77.76 
" style="fill:none;stroke:#a9a9a9;stroke-linecap:square;stroke-linejoin:miter;stroke-width:2;"/>
   </g>
   <g id="patch_9">
    <path d="M 64.8 128.16 
L 64.8 77.76 
" style="fill:none;"/>
   </g>
   <g id="patch_10">
    <path d="M 9 128.16 
L 64.8 128.16 
" style="fill:none;stroke:#a9a9a9;stroke-linecap:square;stroke-linejoin:miter;stroke-width:2;"/>
   </g>
   <g id="patch_11">
    <path d="M 9 77.76 
L 64.8 77.76 
" style="fill:none;"/>
   </g>
  </g>
 </g>
 <defs>
  <clipPath id="pc42304893f">
   <rect height="50.4" width="55.8" x="9" y="17.28"/>
  </clipPath>
  <clipPath id="p819c93c0c8">
   <rect height="50.4" width="55.8" x="9" y="77.76"/>
  </clipPath>
 </defs>
</svg>
