<?xml version="1.0" encoding="utf-8" standalone="no"?>
<!DOCTYPE svg PUBLIC "-//W3C//DTD SVG 1.1//EN"
  "http://www.w3.org/Graphics/SVG/1.1/DTD/svg11.dtd">
<!-- Created with matplotlib (https://matplotlib.org/) -->
<svg height="144pt" version="1.1" viewBox="0 0 72 144" width="72pt" xmlns="http://www.w3.org/2000/svg" xmlns:xlink="http://www.w3.org/1999/xlink">
 <metadata>
  <rdf:RDF xmlns:cc="http://creativecommons.org/ns#" xmlns:dc="http://purl.org/dc/elements/1.1/" xmlns:rdf="http://www.w3.org/1999/02/22-rdf-syntax-ns#">
   <cc:Work>
    <dc:type rdf:resource="http://purl.org/dc/dcmitype/StillImage"/>
    <dc:date>2021-10-13T15:47:07.951357</dc:date>
    <dc:format>image/svg+xml</dc:format>
    <dc:creator>
     <cc:Agent>
      <dc:title>Matplotlib v3.3.2, https://matplotlib.org/</dc:title>
     </cc:Agent>
    </dc:creator>
   </cc:Work>
  </rdf:RDF>
 </metadata>
 <defs>
  <style type="text/css">*{stroke-linecap:butt;stroke-linejoin:round;}</style>
 </defs>
 <g id="figure_1">
  <g id="patch_1">
   <path d="M 0 144 
L 72 144 
L 72 0 
L 0 0 
z
" style="fill:none;"/>
  </g>
  <g id="axes_1">
   <g id="patch_2">
    <path d="M 9 67.68 
L 64.8 67.68 
L 64.8 17.28 
L 9 17.28 
z
" style="fill:none;"/>
   </g>
   <g id="matplotlib.axis_1">
    <g id="xtick_1">
     <g id="line2d_1">
      <defs>
       <path d="M 0 0 
L 0 3.5 
" id="m7968b5746a" style="stroke:#a9a9a9;stroke-width:2;"/>
      </defs>
      <g>
       <use style="fill:#a9a9a9;stroke:#a9a9a9;stroke-width:2;" x="9" xlink:href="#m7968b5746a" y="67.68"/>
      </g>
     </g>
    </g>
    <g id="xtick_2">
     <g id="line2d_2">
      <g>
       <use style="fill:#a9a9a9;stroke:#a9a9a9;stroke-width:2;" x="36.9" xlink:href="#m7968b5746a" y="67.68"/>
      </g>
     </g>
    </g>
    <g id="xtick_3">
     <g id="line2d_3">
      <g>
       <use style="fill:#a9a9a9;stroke:#a9a9a9;stroke-width:2;" x="64.8" xlink:href="#m7968b5746a" y="67.68"/>
      </g>
     </g>
    </g>
   </g>
   <g id="matplotlib.axis_2">
    <g id="ytick_1">
     <g id="line2d_4">
      <defs>
       <path d="M 0 0 
L -3.5 0 
" id="mcc2bcb019b" style="stroke:#a9a9a9;stroke-width:2;"/>
      </defs>
      <g>
       <use style="fill:#a9a9a9;stroke:#a9a9a9;stroke-width:2;" x="9" xlink:href="#mcc2bcb019b" y="67.68"/>
      </g>
     </g>
    </g>
    <g id="ytick_2">
     <g id="line2d_5">
      <g>
       <use style="fill:#a9a9a9;stroke:#a9a9a9;stroke-width:2;" x="9" xlink:href="#mcc2bcb019b" y="65.960003"/>
      </g>
     </g>
    </g>
    <g id="ytick_3">
     <g id="line2d_6">
      <g>
       <use style="fill:#a9a9a9;stroke:#a9a9a9;stroke-width:2;" x="9" xlink:href="#mcc2bcb019b" y="64.240007"/>
      </g>
     </g>
    </g>
   </g>
   <g id="line2d_7">
    <path clip-path="url(#pb995e3a06e)" d="M 10.86031 61.124991 
L 11.79031 60.353694 
L 12.72031 60.150809 
L 13.65031 59.468155 
L 14.58031 58.693588 
L 15.51031 57.581704 
L 16.44031 56.47514 
L 17.37031 55.344107 
L 18.30031 54.390247 
L 19.23031 52.728574 
L 20.16031 52.214399 
L 21.09031 51.555747 
L 22.02031 50.878595 
L 22.95031 50.274197 
L 23.88031 49.065288 
L 24.81031 48.109774 
L 25.74031 46.810275 
L 26.67031 45.527559 
L 27.60031 43.817253 
L 28.53031 42.399094 
L 29.46031 40.441603 
L 30.39031 38.00924 
L 31.32031 36.055406 
L 32.25031 34.752544 
L 33.18031 34.544783 
L 34.11031 34.418178 
L 35.04031 33.75463 
L 35.97031 34.393932 
L 36.90031 34.240591 
L 37.83031 34.422678 
L 38.76031 34.805858 
L 39.69031 34.750506 
L 40.62031 34.129182 
L 41.55031 33.61254 
L 42.48031 33.196083 
L 43.41031 33.176768 
L 44.34031 32.888983 
L 45.27031 32.737174 
L 46.20031 31.947521 
L 47.13031 31.692678 
L 48.06031 30.74415 
L 48.99031 29.846268 
L 49.92031 28.706119 
L 50.85031 27.22643 
L 51.78031 25.680629 
L 52.71031 24.055502 
L 53.64031 21.860585 
L 54.57031 19.045968 
L 55.50031 17.844938 
L 56.43031 17.589241 
L 57.36031 17.366 
L 58.29031 18.161293 
L 59.22031 19.669928 
L 60.15031 20.503751 
L 61.08031 21.778917 
L 62.01031 21.709927 
L 62.94031 21.368192 
L 63.87031 21.654563 
" style="fill:none;stroke:#fc8d62;stroke-linecap:square;stroke-width:2;"/>
   </g>
   <g id="line2d_8">
    <path clip-path="url(#pb995e3a06e)" d="M 10.86031 61.244842 
L 11.79031 60.242942 
L 12.72031 60.24257 
L 13.65031 59.29188 
L 14.58031 58.430483 
L 15.51031 58.018292 
L 16.44031 57.195647 
L 17.37031 56.466718 
L 18.30031 55.808291 
L 19.23031 55.066083 
L 20.16031 54.23655 
L 21.09031 53.67079 
L 22.02031 53.026716 
L 22.95031 52.034382 
L 23.88031 51.097918 
L 24.81031 50.338946 
L 25.74031 48.713567 
L 26.67031 47.243676 
L 27.60031 45.762339 
L 28.53031 43.78639 
L 29.46031 41.883488 
L 30.39031 40.695028 
L 31.32031 38.837816 
L 32.25031 37.897612 
L 33.18031 38.044422 
L 34.11031 38.409594 
L 35.04031 39.659582 
L 35.97031 40.096277 
L 36.90031 40.676076 
L 37.83031 41.100532 
L 38.76031 41.378681 
L 39.69031 41.602752 
L 40.62031 41.490464 
L 41.55031 41.335093 
L 42.48031 41.236267 
L 43.41031 41.079121 
L 44.34031 40.808439 
L 45.27031 40.150309 
L 46.20031 39.309803 
L 47.13031 38.449294 
L 48.06031 37.280468 
L 48.99031 36.219468 
L 49.92031 35.073986 
L 50.85031 32.998792 
L 51.78031 31.615594 
L 52.71031 29.905373 
L 53.64031 28.614698 
L 54.57031 28.003922 
L 55.50031 28.018984 
L 56.43031 29.282519 
L 57.36031 30.070925 
L 58.29031 30.683184 
L 59.22031 31.287685 
L 60.15031 32.245158 
L 61.08031 33.199216 
L 62.01031 33.576513 
L 62.94031 33.796098 
L 63.87031 33.160696 
" style="fill:none;stroke:#fc8d62;stroke-dasharray:1.5,1.5;stroke-dashoffset:0;stroke-opacity:0.7;stroke-width:1.5;"/>
   </g>
   <g id="patch_3">
    <path d="M 9 67.68 
L 9 17.28 
" style="fill:none;stroke:#a9a9a9;stroke-linecap:square;stroke-linejoin:miter;stroke-width:2;"/>
   </g>
   <g id="patch_4">
    <path d="M 64.8 67.68 
L 64.8 17.28 
" style="fill:none;"/>
   </g>
   <g id="patch_5">
    <path d="M 9 67.68 
L 64.8 67.68 
" style="fill:none;stroke:#a9a9a9;stroke-linecap:square;stroke-linejoin:miter;stroke-width:2;"/>
   </g>
   <g id="patch_6">
    <path d="M 9 17.28 
L 64.8 17.28 
" style="fill:none;"/>
   </g>
  </g>
  <g id="axes_2">
   <g id="patch_7">
    <path d="M 9 128.16 
L 64.8 128.16 
L 64.8 77.76 
L 9 77.76 
z
" style="fill:none;"/>
   </g>
   <g id="matplotlib.axis_3">
    <g id="xtick_4">
     <g id="line2d_9">
      <g>
       <use style="fill:#a9a9a9;stroke:#a9a9a9;stroke-width:2;" x="9" xlink:href="#m7968b5746a" y="128.16"/>
      </g>
     </g>
    </g>
    <g id="xtick_5">
     <g id="line2d_10">
      <g>
       <use style="fill:#a9a9a9;stroke:#a9a9a9;stroke-width:2;" x="36.9" xlink:href="#m7968b5746a" y="128.16"/>
      </g>
     </g>
    </g>
    <g id="xtick_6">
     <g id="line2d_11">
      <g>
       <use style="fill:#a9a9a9;stroke:#a9a9a9;stroke-width:2;" x="64.8" xlink:href="#m7968b5746a" y="128.16"/>
      </g>
     </g>
    </g>
   </g>
   <g id="matplotlib.axis_4">
    <g id="ytick_4">
     <g id="line2d_12">
      <g>
       <use style="fill:#a9a9a9;stroke:#a9a9a9;stroke-width:2;" x="9" xlink:href="#mcc2bcb019b" y="128.16"/>
      </g>
     </g>
    </g>
    <g id="ytick_5">
     <g id="line2d_13">
      <g>
       <use style="fill:#a9a9a9;stroke:#a9a9a9;stroke-width:2;" x="9" xlink:href="#mcc2bcb019b" y="102.96"/>
      </g>
     </g>
    </g>
    <g id="ytick_6">
     <g id="line2d_14">
      <g>
       <use style="fill:#a9a9a9;stroke:#a9a9a9;stroke-width:2;" x="9" xlink:href="#mcc2bcb019b" y="77.76"/>
      </g>
     </g>
    </g>
   </g>
   <g id="line2d_15">
    <path clip-path="url(#pe793825593)" d="M 10.86031 83.422144 
L 11.79031 83.33613 
L 12.72031 83.257898 
L 13.65031 83.134004 
L 14.58031 83.051473 
L 15.51031 82.905667 
L 16.44031 82.874681 
L 17.37031 82.835723 
L 18.30031 82.811762 
L 19.23031 82.834128 
L 20.16031 82.847991 
L 21.09031 82.86746 
L 22.02031 82.864561 
L 22.95031 82.869328 
L 23.88031 82.855788 
L 24.81031 82.85118 
L 25.74031 82.829662 
L 26.67031 82.821377 
L 27.60031 82.807751 
L 28.53031 82.799721 
L 29.46031 82.788156 
L 30.39031 82.781612 
L 31.32031 82.774033 
L 32.25031 82.763314 
L 33.18031 82.769502 
L 34.11031 82.757359 
L 35.04031 82.746454 
L 35.97031 82.74224 
L 36.90031 82.742586 
L 37.83031 82.746234 
L 38.76031 82.746573 
L 39.69031 82.744714 
L 40.62031 82.739431 
L 41.55031 82.735053 
L 42.48031 82.731356 
L 43.41031 82.733143 
L 44.34031 82.743809 
L 45.27031 82.74619 
L 46.20031 82.750971 
L 47.13031 82.747164 
L 48.06031 82.754825 
L 48.99031 82.749277 
L 49.92031 82.752116 
L 50.85031 82.750535 
L 51.78031 82.744336 
L 52.71031 82.744456 
L 53.64031 82.743636 
L 54.57031 82.735225 
L 55.50031 82.729435 
L 56.43031 82.72318 
L 57.36031 82.719202 
L 58.29031 82.716415 
L 59.22031 82.710365 
L 60.15031 82.711718 
L 61.08031 82.709314 
L 62.01031 82.705619 
L 62.94031 82.702045 
L 63.87031 82.704493 
" style="fill:none;stroke:#fc8d62;stroke-linecap:square;stroke-width:2;"/>
   </g>
   <g id="line2d_16">
    <path clip-path="url(#pe793825593)" d="M 10.86031 91.781105 
L 11.79031 91.788014 
L 12.72031 91.839728 
L 13.65031 91.61435 
L 14.58031 91.557759 
L 15.51031 91.527635 
L 16.44031 91.518341 
L 17.37031 91.508652 
L 18.30031 91.473688 
L 19.23031 91.425691 
L 20.16031 91.428331 
L 21.09031 91.421843 
L 22.02031 91.441513 
L 22.95031 91.446452 
L 23.88031 91.437537 
L 24.81031 91.400774 
L 25.74031 91.397221 
L 26.67031 91.395992 
L 27.60031 91.395455 
L 28.53031 91.384318 
L 29.46031 91.377435 
L 30.39031 91.367711 
L 31.32031 91.371328 
L 32.25031 91.373073 
L 33.18031 91.372695 
L 34.11031 91.364205 
L 35.04031 91.365549 
L 35.97031 91.361518 
L 36.90031 91.356641 
L 37.83031 91.355233 
L 38.76031 91.354122 
L 39.69031 91.353263 
L 40.62031 91.363907 
L 41.55031 91.365549 
L 42.48031 91.371656 
L 43.41031 91.37827 
L 44.34031 91.384355 
L 45.27031 91.391421 
L 46.20031 91.39776 
L 47.13031 91.407326 
L 48.06031 91.40813 
L 48.99031 91.41134 
L 49.92031 91.408614 
L 50.85031 91.407173 
L 51.78031 91.406563 
L 52.71031 91.409617 
L 53.64031 91.406544 
L 54.57031 91.408529 
L 55.50031 91.404022 
L 56.43031 91.399445 
L 57.36031 91.399058 
L 58.29031 91.39441 
L 59.22031 91.391151 
L 60.15031 91.385425 
L 61.08031 91.379651 
L 62.01031 91.379422 
L 62.94031 91.379482 
L 63.87031 91.377397 
" style="fill:none;stroke:#fc8d62;stroke-dasharray:1.5,1.5;stroke-dashoffset:0;stroke-opacity:0.7;stroke-width:1.5;"/>
   </g>
   <g id="patch_8">
    <path d="M 9 128.16 
L 9 77.76 
" style="fill:none;stroke:#a9a9a9;stroke-linecap:square;stroke-linejoin:miter;stroke-width:2;"/>
   </g>
   <g id="patch_9">
    <path d="M 64.8 128.16 
L 64.8 77.76 
" style="fill:none;"/>
   </g>
   <g id="patch_10">
    <path d="M 9 128.16 
L 64.8 128.16 
" style="fill:none;stroke:#a9a9a9;stroke-linecap:square;stroke-linejoin:miter;stroke-width:2;"/>
   </g>
   <g id="patch_11">
    <path d="M 9 77.76 
L 64.8 77.76 
" style="fill:none;"/>
   </g>
  </g>
 </g>
 <defs>
  <clipPath id="pb995e3a06e">
   <rect height="50.4" width="55.8" x="9" y="17.28"/>
  </clipPath>
  <clipPath id="pe793825593">
   <rect height="50.4" width="55.8" x="9" y="77.76"/>
  </clipPath>
 </defs>
</svg>
