<?xml version="1.0" encoding="utf-8" standalone="no"?>
<!DOCTYPE svg PUBLIC "-//W3C//DTD SVG 1.1//EN"
  "http://www.w3.org/Graphics/SVG/1.1/DTD/svg11.dtd">
<!-- Created with matplotlib (https://matplotlib.org/) -->
<svg height="144pt" version="1.1" viewBox="0 0 72 144" width="72pt" xmlns="http://www.w3.org/2000/svg" xmlns:xlink="http://www.w3.org/1999/xlink">
 <metadata>
  <rdf:RDF xmlns:cc="http://creativecommons.org/ns#" xmlns:dc="http://purl.org/dc/elements/1.1/" xmlns:rdf="http://www.w3.org/1999/02/22-rdf-syntax-ns#">
   <cc:Work>
    <dc:type rdf:resource="http://purl.org/dc/dcmitype/StillImage"/>
    <dc:date>2021-10-14T19:21:28.179946</dc:date>
    <dc:format>image/svg+xml</dc:format>
    <dc:creator>
     <cc:Agent>
      <dc:title>Matplotlib v3.3.2, https://matplotlib.org/</dc:title>
     </cc:Agent>
    </dc:creator>
   </cc:Work>
  </rdf:RDF>
 </metadata>
 <defs>
  <style type="text/css">*{stroke-linecap:butt;stroke-linejoin:round;}</style>
 </defs>
 <g id="figure_1">
  <g id="patch_1">
   <path d="M 0 144 
L 72 144 
L 72 0 
L 0 0 
z
" style="fill:none;"/>
  </g>
  <g id="axes_1">
   <g id="patch_2">
    <path d="M 9 67.68 
L 64.8 67.68 
L 64.8 17.28 
L 9 17.28 
z
" style="fill:none;"/>
   </g>
   <g id="matplotlib.axis_1">
    <g id="xtick_1">
     <g id="line2d_1">
      <defs>
       <path d="M 0 0 
L 0 3.5 
" id="m4a67472e1c" style="stroke:#a9a9a9;stroke-width:2;"/>
      </defs>
      <g>
       <use style="fill:#a9a9a9;stroke:#a9a9a9;stroke-width:2;" x="9" xlink:href="#m4a67472e1c" y="67.68"/>
      </g>
     </g>
    </g>
    <g id="xtick_2">
     <g id="line2d_2">
      <g>
       <use style="fill:#a9a9a9;stroke:#a9a9a9;stroke-width:2;" x="36.9" xlink:href="#m4a67472e1c" y="67.68"/>
      </g>
     </g>
    </g>
    <g id="xtick_3">
     <g id="line2d_3">
      <g>
       <use style="fill:#a9a9a9;stroke:#a9a9a9;stroke-width:2;" x="64.8" xlink:href="#m4a67472e1c" y="67.68"/>
      </g>
     </g>
    </g>
   </g>
   <g id="matplotlib.axis_2">
    <g id="ytick_1">
     <g id="line2d_4">
      <defs>
       <path d="M 0 0 
L -3.5 0 
" id="mcd618041d3" style="stroke:#a9a9a9;stroke-width:2;"/>
      </defs>
      <g>
       <use style="fill:#a9a9a9;stroke:#a9a9a9;stroke-width:2;" x="9" xlink:href="#mcd618041d3" y="67.68"/>
      </g>
     </g>
    </g>
    <g id="ytick_2">
     <g id="line2d_5">
      <g>
       <use style="fill:#a9a9a9;stroke:#a9a9a9;stroke-width:2;" x="9" xlink:href="#mcd618041d3" y="49.718595"/>
      </g>
     </g>
    </g>
    <g id="ytick_3">
     <g id="line2d_6">
      <g>
       <use style="fill:#a9a9a9;stroke:#a9a9a9;stroke-width:2;" x="9" xlink:href="#mcd618041d3" y="31.757191"/>
      </g>
     </g>
    </g>
   </g>
   <g id="line2d_7">
    <path clip-path="url(#pdcf0c194d1)" d="M 10.860031 56.545385 
L 11.790031 54.812854 
L 12.720031 53.961412 
L 13.650031 52.543173 
L 14.580031 51.302853 
L 15.510031 50.434144 
L 16.440031 49.211412 
L 17.370031 47.901002 
L 18.300031 46.576169 
L 19.230031 45.550158 
L 20.160031 44.791337 
L 21.090031 43.728962 
L 22.020031 42.786213 
L 22.950031 41.994742 
L 23.880031 41.742787 
L 24.810031 40.677733 
L 25.740031 39.905373 
L 26.670031 39.019617 
L 27.600031 37.927452 
L 28.530031 37.485288 
L 29.460031 37.124192 
L 30.390031 36.688227 
L 31.320031 35.672643 
L 32.250031 35.501911 
L 33.180031 35.198105 
L 34.110031 34.606812 
L 35.040031 33.743145 
L 35.970031 33.519397 
L 36.900031 32.897452 
L 37.830031 32.523402 
L 38.760031 32.354146 
L 39.690031 32.265311 
L 40.620031 31.592086 
L 41.550031 30.961121 
L 42.480031 30.371546 
L 43.410031 29.460668 
L 44.340031 29.100492 
L 45.270031 28.250738 
L 46.200031 27.422079 
L 47.130031 26.776954 
L 48.060031 25.484094 
L 48.990031 25.125568 
L 49.920031 24.799102 
L 50.850031 23.993976 
L 51.780031 23.712527 
L 52.710031 23.005359 
L 53.640031 22.602383 
L 54.570031 21.982107 
L 55.500031 21.058398 
L 56.430031 20.767619 
L 57.360031 20.226032 
L 58.290031 20.122074 
L 59.220031 19.628146 
L 60.150031 19.83046 
L 61.080031 19.548872 
L 62.010031 19.181814 
L 62.940031 18.735882 
L 63.870031 18.17807 
" style="fill:none;stroke:#fc8d62;stroke-linecap:square;stroke-width:2;"/>
   </g>
   <g id="line2d_8">
    <path clip-path="url(#pdcf0c194d1)" d="M 10.860031 58.110856 
L 11.790031 55.832714 
L 12.720031 54.083292 
L 13.650031 52.028813 
L 14.580031 51.576226 
L 15.510031 50.424226 
L 16.440031 49.384491 
L 17.370031 48.095878 
L 18.300031 47.64334 
L 19.230031 47.024437 
L 20.160031 45.711979 
L 21.090031 45.111457 
L 22.020031 43.853963 
L 22.950031 42.26113 
L 23.880031 41.194597 
L 24.810031 40.537348 
L 25.740031 40.139201 
L 26.670031 39.149416 
L 27.600031 38.212717 
L 28.530031 37.772684 
L 29.460031 37.369173 
L 30.390031 36.374005 
L 31.320031 36.396268 
L 32.250031 35.288863 
L 33.180031 34.395285 
L 34.110031 34.439349 
L 35.040031 33.411429 
L 35.970031 32.476167 
L 36.900031 31.984445 
L 37.830031 30.710653 
L 38.760031 30.516424 
L 39.690031 29.658155 
L 40.620031 29.162587 
L 41.550031 28.827596 
L 42.480031 28.231108 
L 43.410031 28.001485 
L 44.340031 27.894504 
L 45.270031 27.620432 
L 46.200031 26.911037 
L 47.130031 26.32704 
L 48.060031 25.61777 
L 48.990031 24.799983 
L 49.920031 24.611453 
L 50.850031 24.224029 
L 51.780031 23.494631 
L 52.710031 22.490705 
L 53.640031 21.962382 
L 54.570031 21.270284 
L 55.500031 21.035631 
L 56.430031 21.000909 
L 57.360031 20.061818 
L 58.290031 19.397865 
L 59.220031 18.874609 
L 60.150031 18.766086 
L 61.080031 18.942664 
L 62.010031 18.797288 
L 62.940031 18.983323 
L 63.870031 18.646038 
" style="fill:none;stroke:#fc8d62;stroke-dasharray:1.5,1.5;stroke-dashoffset:0;stroke-opacity:0.7;stroke-width:1.5;"/>
   </g>
   <g id="patch_3">
    <path d="M 9 67.68 
L 9 17.28 
" style="fill:none;stroke:#a9a9a9;stroke-linecap:square;stroke-linejoin:miter;stroke-width:2;"/>
   </g>
   <g id="patch_4">
    <path d="M 64.8 67.68 
L 64.8 17.28 
" style="fill:none;"/>
   </g>
   <g id="patch_5">
    <path d="M 9 67.68 
L 64.8 67.68 
" style="fill:none;stroke:#a9a9a9;stroke-linecap:square;stroke-linejoin:miter;stroke-width:2;"/>
   </g>
   <g id="patch_6">
    <path d="M 9 17.28 
L 64.8 17.28 
" style="fill:none;"/>
   </g>
  </g>
  <g id="axes_2">
   <g id="patch_7">
    <path d="M 9 128.16 
L 64.8 128.16 
L 64.8 77.76 
L 9 77.76 
z
" style="fill:none;"/>
   </g>
   <g id="matplotlib.axis_3">
    <g id="xtick_4">
     <g id="line2d_9">
      <g>
       <use style="fill:#a9a9a9;stroke:#a9a9a9;stroke-width:2;" x="9" xlink:href="#m4a67472e1c" y="128.16"/>
      </g>
     </g>
    </g>
    <g id="xtick_5">
     <g id="line2d_10">
      <g>
       <use style="fill:#a9a9a9;stroke:#a9a9a9;stroke-width:2;" x="36.9" xlink:href="#m4a67472e1c" y="128.16"/>
      </g>
     </g>
    </g>
    <g id="xtick_6">
     <g id="line2d_11">
      <g>
       <use style="fill:#a9a9a9;stroke:#a9a9a9;stroke-width:2;" x="64.8" xlink:href="#m4a67472e1c" y="128.16"/>
      </g>
     </g>
    </g>
   </g>
   <g id="matplotlib.axis_4">
    <g id="ytick_4">
     <g id="line2d_12">
      <g>
       <use style="fill:#a9a9a9;stroke:#a9a9a9;stroke-width:2;" x="9" xlink:href="#mcd618041d3" y="128.16"/>
      </g>
     </g>
    </g>
    <g id="ytick_5">
     <g id="line2d_13">
      <g>
       <use style="fill:#a9a9a9;stroke:#a9a9a9;stroke-width:2;" x="9" xlink:href="#mcd618041d3" y="102.96"/>
      </g>
     </g>
    </g>
    <g id="ytick_6">
     <g id="line2d_14">
      <g>
       <use style="fill:#a9a9a9;stroke:#a9a9a9;stroke-width:2;" x="9" xlink:href="#mcd618041d3" y="77.76"/>
      </g>
     </g>
    </g>
   </g>
   <g id="line2d_15">
    <path clip-path="url(#pe5d7ee02fb)" d="M 10.860031 106.634591 
L 11.790031 102.93742 
L 12.720031 100.217136 
L 13.650031 97.758479 
L 14.580031 95.611701 
L 15.510031 94.140646 
L 16.440031 92.691393 
L 17.370031 91.718727 
L 18.300031 90.993945 
L 19.230031 90.188053 
L 20.160031 89.54525 
L 21.090031 89.075829 
L 22.020031 88.466043 
L 22.950031 88.18979 
L 23.880031 87.945489 
L 24.810031 87.736762 
L 25.740031 87.488743 
L 26.670031 87.325627 
L 27.600031 87.050367 
L 28.530031 86.868711 
L 29.460031 86.64088 
L 30.390031 86.529871 
L 31.320031 86.222203 
L 32.250031 86.096879 
L 33.180031 85.971742 
L 34.110031 85.785195 
L 35.040031 85.604811 
L 35.970031 85.490462 
L 36.900031 85.475396 
L 37.830031 85.349737 
L 38.760031 85.245163 
L 39.690031 85.113112 
L 40.620031 84.981155 
L 41.550031 84.903087 
L 42.480031 84.793888 
L 43.410031 84.674511 
L 44.340031 84.626902 
L 45.270031 84.535311 
L 46.200031 84.496451 
L 47.130031 84.40889 
L 48.060031 84.301266 
L 48.990031 84.287792 
L 49.920031 84.241519 
L 50.850031 84.176651 
L 51.780031 84.156482 
L 52.710031 84.085307 
L 53.640031 84.031694 
L 54.570031 83.971869 
L 55.500031 83.908277 
L 56.430031 83.869838 
L 57.360031 83.839642 
L 58.290031 83.838157 
L 59.220031 83.796638 
L 60.150031 83.760197 
L 61.080031 83.667706 
L 62.010031 83.637305 
L 62.940031 83.608001 
L 63.870031 83.574168 
" style="fill:none;stroke:#fc8d62;stroke-linecap:square;stroke-width:2;"/>
   </g>
   <g id="line2d_16">
    <path clip-path="url(#pe5d7ee02fb)" d="M 10.860031 112.431591 
L 11.790031 107.768159 
L 12.720031 105.36637 
L 13.650031 103.475669 
L 14.580031 102.505057 
L 15.510031 101.520357 
L 16.440031 100.775099 
L 17.370031 99.998138 
L 18.300031 99.236057 
L 19.230031 98.278511 
L 20.160031 97.715988 
L 21.090031 97.320392 
L 22.020031 97.226277 
L 22.950031 96.562236 
L 23.880031 96.2686 
L 24.810031 96.15364 
L 25.740031 96.071343 
L 26.670031 95.704264 
L 27.600031 95.438066 
L 28.530031 95.130978 
L 29.460031 95.026593 
L 30.390031 94.636349 
L 31.320031 94.460182 
L 32.250031 94.273334 
L 33.180031 94.151417 
L 34.110031 94.174383 
L 35.040031 94.061269 
L 35.970031 93.883103 
L 36.900031 93.843939 
L 37.830031 93.697458 
L 38.760031 93.572531 
L 39.690031 93.459668 
L 40.620031 93.446766 
L 41.550031 93.449746 
L 42.480031 93.381261 
L 43.410031 93.432905 
L 44.340031 93.276829 
L 45.270031 93.142544 
L 46.200031 93.134662 
L 47.130031 93.153864 
L 48.060031 93.12705 
L 48.990031 92.975967 
L 49.920031 92.884057 
L 50.850031 92.837307 
L 51.780031 92.800881 
L 52.710031 92.765793 
L 53.640031 92.668959 
L 54.570031 92.638638 
L 55.500031 92.589886 
L 56.430031 92.575972 
L 57.360031 92.46747 
L 58.290031 92.468541 
L 59.220031 92.407364 
L 60.150031 92.405356 
L 61.080031 92.455284 
L 62.010031 92.462389 
L 62.940031 92.371205 
L 63.870031 92.358377 
" style="fill:none;stroke:#fc8d62;stroke-dasharray:1.5,1.5;stroke-dashoffset:0;stroke-opacity:0.7;stroke-width:1.5;"/>
   </g>
   <g id="patch_8">
    <path d="M 9 128.16 
L 9 77.76 
" style="fill:none;stroke:#a9a9a9;stroke-linecap:square;stroke-linejoin:miter;stroke-width:2;"/>
   </g>
   <g id="patch_9">
    <path d="M 64.8 128.16 
L 64.8 77.76 
" style="fill:none;"/>
   </g>
   <g id="patch_10">
    <path d="M 9 128.16 
L 64.8 128.16 
" style="fill:none;stroke:#a9a9a9;stroke-linecap:square;stroke-linejoin:miter;stroke-width:2;"/>
   </g>
   <g id="patch_11">
    <path d="M 9 77.76 
L 64.8 77.76 
" style="fill:none;"/>
   </g>
  </g>
 </g>
 <defs>
  <clipPath id="pdcf0c194d1">
   <rect height="50.4" width="55.8" x="9" y="17.28"/>
  </clipPath>
  <clipPath id="pe5d7ee02fb">
   <rect height="50.4" width="55.8" x="9" y="77.76"/>
  </clipPath>
 </defs>
</svg>
