<?xml version="1.0" encoding="utf-8" standalone="no"?>
<!DOCTYPE svg PUBLIC "-//W3C//DTD SVG 1.1//EN"
  "http://www.w3.org/Graphics/SVG/1.1/DTD/svg11.dtd">
<!-- Created with matplotlib (https://matplotlib.org/) -->
<svg height="144pt" version="1.1" viewBox="0 0 72 144" width="72pt" xmlns="http://www.w3.org/2000/svg" xmlns:xlink="http://www.w3.org/1999/xlink">
 <metadata>
  <rdf:RDF xmlns:cc="http://creativecommons.org/ns#" xmlns:dc="http://purl.org/dc/elements/1.1/" xmlns:rdf="http://www.w3.org/1999/02/22-rdf-syntax-ns#">
   <cc:Work>
    <dc:type rdf:resource="http://purl.org/dc/dcmitype/StillImage"/>
    <dc:date>2021-10-13T14:21:28.648710</dc:date>
    <dc:format>image/svg+xml</dc:format>
    <dc:creator>
     <cc:Agent>
      <dc:title>Matplotlib v3.3.2, https://matplotlib.org/</dc:title>
     </cc:Agent>
    </dc:creator>
   </cc:Work>
  </rdf:RDF>
 </metadata>
 <defs>
  <style type="text/css">*{stroke-linecap:butt;stroke-linejoin:round;}</style>
 </defs>
 <g id="figure_1">
  <g id="patch_1">
   <path d="M 0 144 
L 72 144 
L 72 0 
L 0 0 
z
" style="fill:none;"/>
  </g>
  <g id="axes_1">
   <g id="patch_2">
    <path d="M 9 67.68 
L 64.8 67.68 
L 64.8 17.28 
L 9 17.28 
z
" style="fill:none;"/>
   </g>
   <g id="matplotlib.axis_1">
    <g id="xtick_1">
     <g id="line2d_1">
      <defs>
       <path d="M 0 0 
L 0 3.5 
" id="mce686a02f5" style="stroke:#a9a9a9;stroke-width:2;"/>
      </defs>
      <g>
       <use style="fill:#a9a9a9;stroke:#a9a9a9;stroke-width:2;" x="9" xlink:href="#mce686a02f5" y="67.68"/>
      </g>
     </g>
    </g>
    <g id="xtick_2">
     <g id="line2d_2">
      <g>
       <use style="fill:#a9a9a9;stroke:#a9a9a9;stroke-width:2;" x="36.9" xlink:href="#mce686a02f5" y="67.68"/>
      </g>
     </g>
    </g>
    <g id="xtick_3">
     <g id="line2d_3">
      <g>
       <use style="fill:#a9a9a9;stroke:#a9a9a9;stroke-width:2;" x="64.8" xlink:href="#mce686a02f5" y="67.68"/>
      </g>
     </g>
    </g>
   </g>
   <g id="matplotlib.axis_2">
    <g id="ytick_1">
     <g id="line2d_4">
      <defs>
       <path d="M 0 0 
L -3.5 0 
" id="mcae060f7c0" style="stroke:#a9a9a9;stroke-width:2;"/>
      </defs>
      <g>
       <use style="fill:#a9a9a9;stroke:#a9a9a9;stroke-width:2;" x="9" xlink:href="#mcae060f7c0" y="67.68"/>
      </g>
     </g>
    </g>
    <g id="ytick_2">
     <g id="line2d_5">
      <g>
       <use style="fill:#a9a9a9;stroke:#a9a9a9;stroke-width:2;" x="9" xlink:href="#mcae060f7c0" y="60.087905"/>
      </g>
     </g>
    </g>
    <g id="ytick_3">
     <g id="line2d_6">
      <g>
       <use style="fill:#a9a9a9;stroke:#a9a9a9;stroke-width:2;" x="9" xlink:href="#mcae060f7c0" y="52.495811"/>
      </g>
     </g>
    </g>
   </g>
   <g id="line2d_7">
    <path clip-path="url(#p4ec86f9604)" d="M 10.86031 59.273111 
L 11.79031 56.432746 
L 12.72031 55.024793 
L 13.65031 53.994505 
L 14.58031 52.150229 
L 15.51031 50.035411 
L 16.44031 48.820105 
L 17.37031 47.174782 
L 18.30031 45.953283 
L 19.23031 43.78823 
L 20.16031 43.913359 
L 21.09031 43.599033 
L 22.02031 43.496717 
L 22.95031 42.840606 
L 23.88031 42.498361 
L 24.81031 41.398756 
L 25.74031 40.957873 
L 26.67031 39.847141 
L 27.60031 38.660298 
L 28.53031 37.251584 
L 29.46031 36.675627 
L 30.39031 36.31875 
L 31.32031 35.85263 
L 32.25031 34.716085 
L 33.18031 34.775645 
L 34.11031 34.225695 
L 35.04031 32.931782 
L 35.97031 32.305521 
L 36.90031 31.58368 
L 37.83031 31.122995 
L 38.76031 31.059632 
L 39.69031 30.105894 
L 40.62031 29.742642 
L 41.55031 29.480195 
L 42.48031 29.08872 
L 43.41031 28.700141 
L 44.34031 27.928477 
L 45.27031 27.249304 
L 46.20031 26.157688 
L 47.13031 25.455274 
L 48.06031 24.882699 
L 48.99031 24.446248 
L 49.92031 23.899257 
L 50.85031 23.279755 
L 51.78031 22.544749 
L 52.71031 21.359727 
L 53.64031 20.639374 
L 54.57031 20.067082 
L 55.50031 19.977382 
L 56.43031 19.717431 
L 57.36031 19.363155 
L 58.29031 19.02745 
L 59.22031 18.85901 
L 60.15031 18.814319 
L 61.08031 18.716863 
L 62.01031 18.350102 
L 62.94031 18.359187 
L 63.87031 17.659605 
" style="fill:none;stroke:#fc8d62;stroke-linecap:square;stroke-width:2;"/>
   </g>
   <g id="line2d_8">
    <path clip-path="url(#p4ec86f9604)" d="M 10.86031 58.932297 
L 11.79031 56.941011 
L 12.72031 55.545222 
L 13.65031 54.549762 
L 14.58031 52.534059 
L 15.51031 51.848539 
L 16.44031 50.998098 
L 17.37031 50.245129 
L 18.30031 49.503638 
L 19.23031 49.163748 
L 20.16031 48.129666 
L 21.09031 48.151661 
L 22.02031 46.2672 
L 22.95031 45.160982 
L 23.88031 44.392979 
L 24.81031 43.437552 
L 25.74031 42.792152 
L 26.67031 41.839887 
L 27.60031 40.550732 
L 28.53031 38.925695 
L 29.46031 38.105325 
L 30.39031 37.015048 
L 31.32031 36.325668 
L 32.25031 35.954813 
L 33.18031 34.769279 
L 34.11031 34.683254 
L 35.04031 34.353522 
L 35.97031 34.583214 
L 36.90031 34.58679 
L 37.83031 34.823874 
L 38.76031 34.276046 
L 39.69031 33.544875 
L 40.62031 32.609013 
L 41.55031 32.199512 
L 42.48031 31.36664 
L 43.41031 30.299185 
L 44.34031 29.723934 
L 45.27031 28.508833 
L 46.20031 28.612159 
L 47.13031 27.62399 
L 48.06031 27.537533 
L 48.99031 27.071001 
L 49.92031 26.62196 
L 50.85031 26.216656 
L 51.78031 25.289809 
L 52.71031 25.113852 
L 53.64031 24.186584 
L 54.57031 22.564419 
L 55.50031 22.1185 
L 56.43031 20.94071 
L 57.36031 20.879926 
L 58.29031 20.37151 
L 59.22031 19.721682 
L 60.15031 19.576838 
L 61.08031 19.300189 
L 62.01031 19.288071 
L 62.94031 19.260604 
L 63.87031 19.652642 
" style="fill:none;stroke:#fc8d62;stroke-dasharray:1.5,1.5;stroke-dashoffset:0;stroke-opacity:0.7;stroke-width:1.5;"/>
   </g>
   <g id="patch_3">
    <path d="M 9 67.68 
L 9 17.28 
" style="fill:none;stroke:#a9a9a9;stroke-linecap:square;stroke-linejoin:miter;stroke-width:2;"/>
   </g>
   <g id="patch_4">
    <path d="M 64.8 67.68 
L 64.8 17.28 
" style="fill:none;"/>
   </g>
   <g id="patch_5">
    <path d="M 9 67.68 
L 64.8 67.68 
" style="fill:none;stroke:#a9a9a9;stroke-linecap:square;stroke-linejoin:miter;stroke-width:2;"/>
   </g>
   <g id="patch_6">
    <path d="M 9 17.28 
L 64.8 17.28 
" style="fill:none;"/>
   </g>
  </g>
  <g id="axes_2">
   <g id="patch_7">
    <path d="M 9 128.16 
L 64.8 128.16 
L 64.8 77.76 
L 9 77.76 
z
" style="fill:none;"/>
   </g>
   <g id="matplotlib.axis_3">
    <g id="xtick_4">
     <g id="line2d_9">
      <g>
       <use style="fill:#a9a9a9;stroke:#a9a9a9;stroke-width:2;" x="9" xlink:href="#mce686a02f5" y="128.16"/>
      </g>
     </g>
    </g>
    <g id="xtick_5">
     <g id="line2d_10">
      <g>
       <use style="fill:#a9a9a9;stroke:#a9a9a9;stroke-width:2;" x="36.9" xlink:href="#mce686a02f5" y="128.16"/>
      </g>
     </g>
    </g>
    <g id="xtick_6">
     <g id="line2d_11">
      <g>
       <use style="fill:#a9a9a9;stroke:#a9a9a9;stroke-width:2;" x="64.8" xlink:href="#mce686a02f5" y="128.16"/>
      </g>
     </g>
    </g>
   </g>
   <g id="matplotlib.axis_4">
    <g id="ytick_4">
     <g id="line2d_12">
      <g>
       <use style="fill:#a9a9a9;stroke:#a9a9a9;stroke-width:2;" x="9" xlink:href="#mcae060f7c0" y="128.16"/>
      </g>
     </g>
    </g>
    <g id="ytick_5">
     <g id="line2d_13">
      <g>
       <use style="fill:#a9a9a9;stroke:#a9a9a9;stroke-width:2;" x="9" xlink:href="#mcae060f7c0" y="102.96"/>
      </g>
     </g>
    </g>
    <g id="ytick_6">
     <g id="line2d_14">
      <g>
       <use style="fill:#a9a9a9;stroke:#a9a9a9;stroke-width:2;" x="9" xlink:href="#mcae060f7c0" y="77.76"/>
      </g>
     </g>
    </g>
   </g>
   <g id="line2d_15">
    <path clip-path="url(#pec43e97c11)" d="M 10.86031 94.777755 
L 11.79031 91.504562 
L 12.72031 90.184032 
L 13.65031 89.346025 
L 14.58031 88.924561 
L 15.51031 88.178911 
L 16.44031 87.957211 
L 17.37031 87.747206 
L 18.30031 87.661455 
L 19.23031 87.489992 
L 20.16031 87.480968 
L 21.09031 87.448612 
L 22.02031 87.392963 
L 22.95031 87.296212 
L 23.88031 87.277893 
L 24.81031 87.231033 
L 25.74031 87.200092 
L 26.67031 87.130284 
L 27.60031 87.091362 
L 28.53031 86.963181 
L 29.46031 86.942359 
L 30.39031 86.91168 
L 31.32031 86.921584 
L 32.25031 86.879067 
L 33.18031 86.858889 
L 34.11031 86.783311 
L 35.04031 86.734765 
L 35.97031 86.726275 
L 36.90031 86.685163 
L 37.83031 86.644812 
L 38.76031 86.632225 
L 39.69031 86.614827 
L 40.62031 86.603797 
L 41.55031 86.584544 
L 42.48031 86.56304 
L 43.41031 86.541745 
L 44.34031 86.552015 
L 45.27031 86.538233 
L 46.20031 86.507231 
L 47.13031 86.487985 
L 48.06031 86.486916 
L 48.99031 86.507052 
L 49.92031 86.48625 
L 50.85031 86.469818 
L 51.78031 86.480625 
L 52.71031 86.451212 
L 53.64031 86.453829 
L 54.57031 86.454832 
L 55.50031 86.454044 
L 56.43031 86.444548 
L 57.36031 86.43888 
L 58.29031 86.437913 
L 59.22031 86.441458 
L 60.15031 86.419632 
L 61.08031 86.416131 
L 62.01031 86.408866 
L 62.94031 86.408813 
L 63.87031 86.400824 
" style="fill:none;stroke:#fc8d62;stroke-linecap:square;stroke-width:2;"/>
   </g>
   <g id="line2d_16">
    <path clip-path="url(#pec43e97c11)" d="M 10.86031 98.330234 
L 11.79031 96.285308 
L 12.72031 95.577429 
L 13.65031 94.887288 
L 14.58031 94.346582 
L 15.51031 94.030254 
L 16.44031 93.767091 
L 17.37031 93.510843 
L 18.30031 93.280706 
L 19.23031 92.995208 
L 20.16031 92.862008 
L 21.09031 92.753911 
L 22.02031 92.484424 
L 22.95031 92.379213 
L 23.88031 92.364977 
L 24.81031 92.220193 
L 25.74031 92.187188 
L 26.67031 92.163942 
L 27.60031 92.112492 
L 28.53031 92.00857 
L 29.46031 91.953829 
L 30.39031 91.945072 
L 31.32031 91.880468 
L 32.25031 91.847738 
L 33.18031 91.779891 
L 34.11031 91.760054 
L 35.04031 91.734417 
L 35.97031 91.734877 
L 36.90031 91.739568 
L 37.83031 91.750668 
L 38.76031 91.741117 
L 39.69031 91.725762 
L 40.62031 91.644452 
L 41.55031 91.622251 
L 42.48031 91.56625 
L 43.41031 91.545426 
L 44.34031 91.504639 
L 45.27031 91.499027 
L 46.20031 91.49621 
L 47.13031 91.495796 
L 48.06031 91.516257 
L 48.99031 91.536142 
L 49.92031 91.522983 
L 50.85031 91.538579 
L 51.78031 91.504638 
L 52.71031 91.492942 
L 53.64031 91.493716 
L 54.57031 91.428854 
L 55.50031 91.398138 
L 56.43031 91.405314 
L 57.36031 91.392008 
L 58.29031 91.383348 
L 59.22031 91.386892 
L 60.15031 91.379225 
L 61.08031 91.37637 
L 62.01031 91.364149 
L 62.94031 91.345898 
L 63.87031 91.343644 
" style="fill:none;stroke:#fc8d62;stroke-dasharray:1.5,1.5;stroke-dashoffset:0;stroke-opacity:0.7;stroke-width:1.5;"/>
   </g>
   <g id="patch_8">
    <path d="M 9 128.16 
L 9 77.76 
" style="fill:none;stroke:#a9a9a9;stroke-linecap:square;stroke-linejoin:miter;stroke-width:2;"/>
   </g>
   <g id="patch_9">
    <path d="M 64.8 128.16 
L 64.8 77.76 
" style="fill:none;"/>
   </g>
   <g id="patch_10">
    <path d="M 9 128.16 
L 64.8 128.16 
" style="fill:none;stroke:#a9a9a9;stroke-linecap:square;stroke-linejoin:miter;stroke-width:2;"/>
   </g>
   <g id="patch_11">
    <path d="M 9 77.76 
L 64.8 77.76 
" style="fill:none;"/>
   </g>
  </g>
 </g>
 <defs>
  <clipPath id="p4ec86f9604">
   <rect height="50.4" width="55.8" x="9" y="17.28"/>
  </clipPath>
  <clipPath id="pec43e97c11">
   <rect height="50.4" width="55.8" x="9" y="77.76"/>
  </clipPath>
 </defs>
</svg>
