<?xml version="1.0" encoding="utf-8" standalone="no"?>
<!DOCTYPE svg PUBLIC "-//W3C//DTD SVG 1.1//EN"
  "http://www.w3.org/Graphics/SVG/1.1/DTD/svg11.dtd">
<!-- Created with matplotlib (https://matplotlib.org/) -->
<svg height="144pt" version="1.1" viewBox="0 0 72 144" width="72pt" xmlns="http://www.w3.org/2000/svg" xmlns:xlink="http://www.w3.org/1999/xlink">
 <metadata>
  <rdf:RDF xmlns:cc="http://creativecommons.org/ns#" xmlns:dc="http://purl.org/dc/elements/1.1/" xmlns:rdf="http://www.w3.org/1999/02/22-rdf-syntax-ns#">
   <cc:Work>
    <dc:type rdf:resource="http://purl.org/dc/dcmitype/StillImage"/>
    <dc:date>2021-10-13T15:40:35.919362</dc:date>
    <dc:format>image/svg+xml</dc:format>
    <dc:creator>
     <cc:Agent>
      <dc:title>Matplotlib v3.3.2, https://matplotlib.org/</dc:title>
     </cc:Agent>
    </dc:creator>
   </cc:Work>
  </rdf:RDF>
 </metadata>
 <defs>
  <style type="text/css">*{stroke-linecap:butt;stroke-linejoin:round;}</style>
 </defs>
 <g id="figure_1">
  <g id="patch_1">
   <path d="M 0 144 
L 72 144 
L 72 0 
L 0 0 
z
" style="fill:none;"/>
  </g>
  <g id="axes_1">
   <g id="patch_2">
    <path d="M 9 67.68 
L 64.8 67.68 
L 64.8 17.28 
L 9 17.28 
z
" style="fill:none;"/>
   </g>
   <g id="matplotlib.axis_1">
    <g id="xtick_1">
     <g id="line2d_1">
      <defs>
       <path d="M 0 0 
L 0 3.5 
" id="m12b009feea" style="stroke:#a9a9a9;stroke-width:2;"/>
      </defs>
      <g>
       <use style="fill:#a9a9a9;stroke:#a9a9a9;stroke-width:2;" x="9" xlink:href="#m12b009feea" y="67.68"/>
      </g>
     </g>
    </g>
    <g id="xtick_2">
     <g id="line2d_2">
      <g>
       <use style="fill:#a9a9a9;stroke:#a9a9a9;stroke-width:2;" x="36.9" xlink:href="#m12b009feea" y="67.68"/>
      </g>
     </g>
    </g>
    <g id="xtick_3">
     <g id="line2d_3">
      <g>
       <use style="fill:#a9a9a9;stroke:#a9a9a9;stroke-width:2;" x="64.8" xlink:href="#m12b009feea" y="67.68"/>
      </g>
     </g>
    </g>
   </g>
   <g id="matplotlib.axis_2">
    <g id="ytick_1">
     <g id="line2d_4">
      <defs>
       <path d="M 0 0 
L -3.5 0 
" id="m924b2b3b6c" style="stroke:#a9a9a9;stroke-width:2;"/>
      </defs>
      <g>
       <use style="fill:#a9a9a9;stroke:#a9a9a9;stroke-width:2;" x="9" xlink:href="#m924b2b3b6c" y="67.68"/>
      </g>
     </g>
    </g>
    <g id="ytick_2">
     <g id="line2d_5">
      <g>
       <use style="fill:#a9a9a9;stroke:#a9a9a9;stroke-width:2;" x="9" xlink:href="#m924b2b3b6c" y="63.030405"/>
      </g>
     </g>
    </g>
    <g id="ytick_3">
     <g id="line2d_6">
      <g>
       <use style="fill:#a9a9a9;stroke:#a9a9a9;stroke-width:2;" x="9" xlink:href="#m924b2b3b6c" y="58.38081"/>
      </g>
     </g>
    </g>
   </g>
   <g id="line2d_7">
    <path clip-path="url(#p7325335950)" d="M 10.86031 59.744299 
L 11.79031 57.454114 
L 12.72031 56.067021 
L 13.65031 55.267112 
L 14.58031 54.343778 
L 15.51031 53.525515 
L 16.44031 53.268929 
L 17.37031 51.755929 
L 18.30031 50.905682 
L 19.23031 49.04936 
L 20.16031 48.509709 
L 21.09031 47.43943 
L 22.02031 46.786454 
L 22.95031 45.55916 
L 23.88031 44.484005 
L 24.81031 43.216956 
L 25.74031 42.218961 
L 26.67031 41.517743 
L 27.60031 40.644787 
L 28.53031 40.46087 
L 29.46031 39.101123 
L 30.39031 37.8189 
L 31.32031 37.728982 
L 32.25031 36.83395 
L 33.18031 36.208877 
L 34.11031 35.611933 
L 35.04031 34.675546 
L 35.97031 34.306016 
L 36.90031 33.944069 
L 37.83031 33.192704 
L 38.76031 33.024921 
L 39.69031 33.18043 
L 40.62031 32.237084 
L 41.55031 31.681243 
L 42.48031 31.228093 
L 43.41031 30.142655 
L 44.34031 28.66696 
L 45.27031 26.851631 
L 46.20031 25.95639 
L 47.13031 25.331048 
L 48.06031 24.593273 
L 48.99031 23.29339 
L 49.92031 22.63583 
L 50.85031 21.134351 
L 51.78031 20.1388 
L 52.71031 20.14541 
L 53.64031 19.924553 
L 54.57031 18.476074 
L 55.50031 18.405294 
L 56.43031 18.459554 
L 57.36031 18.234788 
L 58.29031 17.836768 
L 59.22031 17.725288 
L 60.15031 18.10492 
L 61.08031 18.084101 
L 62.01031 18.05664 
L 62.94031 17.660881 
L 63.87031 17.51248 
" style="fill:none;stroke:#fc8d62;stroke-linecap:square;stroke-width:2;"/>
   </g>
   <g id="line2d_8">
    <path clip-path="url(#p7325335950)" d="M 10.86031 59.186082 
L 11.79031 57.680178 
L 12.72031 56.521876 
L 13.65031 56.383455 
L 14.58031 55.348391 
L 15.51031 54.226426 
L 16.44031 53.312984 
L 17.37031 51.792156 
L 18.30031 50.834121 
L 19.23031 50.119847 
L 20.16031 48.650129 
L 21.09031 47.224964 
L 22.02031 45.623685 
L 22.95031 44.334983 
L 23.88031 43.595439 
L 24.81031 42.051944 
L 25.74031 41.313017 
L 26.67031 40.332537 
L 27.60031 39.029496 
L 28.53031 38.759898 
L 29.46031 38.183286 
L 30.39031 37.751433 
L 31.32031 37.210385 
L 32.25031 36.668101 
L 33.18031 36.345717 
L 34.11031 36.391972 
L 35.04031 36.059281 
L 35.97031 36.126372 
L 36.90031 35.268782 
L 37.83031 35.119413 
L 38.76031 35.104097 
L 39.69031 34.88203 
L 40.62031 34.092449 
L 41.55031 33.849655 
L 42.48031 33.190038 
L 43.41031 32.673905 
L 44.34031 31.530867 
L 45.27031 30.577081 
L 46.20031 30.884082 
L 47.13031 30.29987 
L 48.06031 29.225052 
L 48.99031 29.217321 
L 49.92031 28.505077 
L 50.85031 27.968166 
L 51.78031 27.340519 
L 52.71031 26.584644 
L 53.64031 26.771445 
L 54.57031 26.78523 
L 55.50031 26.356975 
L 56.43031 26.091633 
L 57.36031 25.154099 
L 58.29031 24.839792 
L 59.22031 24.595085 
L 60.15031 23.379944 
L 61.08031 22.727691 
L 62.01031 22.102389 
L 62.94031 21.592286 
L 63.87031 21.747329 
" style="fill:none;stroke:#fc8d62;stroke-dasharray:1.5,1.5;stroke-dashoffset:0;stroke-opacity:0.7;stroke-width:1.5;"/>
   </g>
   <g id="patch_3">
    <path d="M 9 67.68 
L 9 17.28 
" style="fill:none;stroke:#a9a9a9;stroke-linecap:square;stroke-linejoin:miter;stroke-width:2;"/>
   </g>
   <g id="patch_4">
    <path d="M 64.8 67.68 
L 64.8 17.28 
" style="fill:none;"/>
   </g>
   <g id="patch_5">
    <path d="M 9 67.68 
L 64.8 67.68 
" style="fill:none;stroke:#a9a9a9;stroke-linecap:square;stroke-linejoin:miter;stroke-width:2;"/>
   </g>
   <g id="patch_6">
    <path d="M 9 17.28 
L 64.8 17.28 
" style="fill:none;"/>
   </g>
  </g>
  <g id="axes_2">
   <g id="patch_7">
    <path d="M 9 128.16 
L 64.8 128.16 
L 64.8 77.76 
L 9 77.76 
z
" style="fill:none;"/>
   </g>
   <g id="matplotlib.axis_3">
    <g id="xtick_4">
     <g id="line2d_9">
      <g>
       <use style="fill:#a9a9a9;stroke:#a9a9a9;stroke-width:2;" x="9" xlink:href="#m12b009feea" y="128.16"/>
      </g>
     </g>
    </g>
    <g id="xtick_5">
     <g id="line2d_10">
      <g>
       <use style="fill:#a9a9a9;stroke:#a9a9a9;stroke-width:2;" x="36.9" xlink:href="#m12b009feea" y="128.16"/>
      </g>
     </g>
    </g>
    <g id="xtick_6">
     <g id="line2d_11">
      <g>
       <use style="fill:#a9a9a9;stroke:#a9a9a9;stroke-width:2;" x="64.8" xlink:href="#m12b009feea" y="128.16"/>
      </g>
     </g>
    </g>
   </g>
   <g id="matplotlib.axis_4">
    <g id="ytick_4">
     <g id="line2d_12">
      <g>
       <use style="fill:#a9a9a9;stroke:#a9a9a9;stroke-width:2;" x="9" xlink:href="#m924b2b3b6c" y="128.16"/>
      </g>
     </g>
    </g>
    <g id="ytick_5">
     <g id="line2d_13">
      <g>
       <use style="fill:#a9a9a9;stroke:#a9a9a9;stroke-width:2;" x="9" xlink:href="#m924b2b3b6c" y="102.96"/>
      </g>
     </g>
    </g>
    <g id="ytick_6">
     <g id="line2d_14">
      <g>
       <use style="fill:#a9a9a9;stroke:#a9a9a9;stroke-width:2;" x="9" xlink:href="#m924b2b3b6c" y="77.76"/>
      </g>
     </g>
    </g>
   </g>
   <g id="line2d_15">
    <path clip-path="url(#pae27026755)" d="M 10.86031 89.083551 
L 11.79031 87.633534 
L 12.72031 87.008692 
L 13.65031 86.780815 
L 14.58031 86.609988 
L 15.51031 86.300065 
L 16.44031 86.280272 
L 17.37031 86.079797 
L 18.30031 86.003638 
L 19.23031 85.845939 
L 20.16031 85.793744 
L 21.09031 85.753238 
L 22.02031 85.716025 
L 22.95031 85.642441 
L 23.88031 85.611356 
L 24.81031 85.568603 
L 25.74031 85.556049 
L 26.67031 85.512684 
L 27.60031 85.51933 
L 28.53031 85.517665 
L 29.46031 85.495275 
L 30.39031 85.459257 
L 31.32031 85.455577 
L 32.25031 85.416317 
L 33.18031 85.409834 
L 34.11031 85.38889 
L 35.04031 85.400778 
L 35.97031 85.399285 
L 36.90031 85.385354 
L 37.83031 85.3753 
L 38.76031 85.362936 
L 39.69031 85.360154 
L 40.62031 85.321716 
L 41.55031 85.31057 
L 42.48031 85.313082 
L 43.41031 85.332253 
L 44.34031 85.340194 
L 45.27031 85.339479 
L 46.20031 85.327498 
L 47.13031 85.325745 
L 48.06031 85.321724 
L 48.99031 85.318381 
L 49.92031 85.296373 
L 50.85031 85.291433 
L 51.78031 85.285422 
L 52.71031 85.275271 
L 53.64031 85.269632 
L 54.57031 85.265106 
L 55.50031 85.275776 
L 56.43031 85.281804 
L 57.36031 85.278489 
L 58.29031 85.285809 
L 59.22031 85.278407 
L 60.15031 85.268826 
L 61.08031 85.262446 
L 62.01031 85.260818 
L 62.94031 85.260441 
L 63.87031 85.267992 
" style="fill:none;stroke:#fc8d62;stroke-linecap:square;stroke-width:2;"/>
   </g>
   <g id="line2d_16">
    <path clip-path="url(#pae27026755)" d="M 10.86031 93.429919 
L 11.79031 92.483541 
L 12.72031 92.285333 
L 13.65031 92.306809 
L 14.58031 92.064343 
L 15.51031 91.826587 
L 16.44031 91.6942 
L 17.37031 91.648725 
L 18.30031 91.598448 
L 19.23031 91.593009 
L 20.16031 91.524168 
L 21.09031 91.434753 
L 22.02031 91.406383 
L 22.95031 91.39414 
L 23.88031 91.398459 
L 24.81031 91.421374 
L 25.74031 91.465086 
L 26.67031 91.483777 
L 27.60031 91.473229 
L 28.53031 91.439694 
L 29.46031 91.436132 
L 30.39031 91.429939 
L 31.32031 91.425668 
L 32.25031 91.39133 
L 33.18031 91.379414 
L 34.11031 91.397911 
L 35.04031 91.39027 
L 35.97031 91.366641 
L 36.90031 91.390062 
L 37.83031 91.37572 
L 38.76031 91.357866 
L 39.69031 91.340829 
L 40.62031 91.311082 
L 41.55031 91.307478 
L 42.48031 91.305627 
L 43.41031 91.318624 
L 44.34031 91.287523 
L 45.27031 91.294893 
L 46.20031 91.310498 
L 47.13031 91.311508 
L 48.06031 91.317328 
L 48.99031 91.328098 
L 49.92031 91.325655 
L 50.85031 91.318458 
L 51.78031 91.329931 
L 52.71031 91.331722 
L 53.64031 91.316419 
L 54.57031 91.306012 
L 55.50031 91.299788 
L 56.43031 91.302865 
L 57.36031 91.275592 
L 58.29031 91.262835 
L 59.22031 91.271141 
L 60.15031 91.259308 
L 61.08031 91.26299 
L 62.01031 91.263842 
L 62.94031 91.264089 
L 63.87031 91.260003 
" style="fill:none;stroke:#fc8d62;stroke-dasharray:1.5,1.5;stroke-dashoffset:0;stroke-opacity:0.7;stroke-width:1.5;"/>
   </g>
   <g id="patch_8">
    <path d="M 9 128.16 
L 9 77.76 
" style="fill:none;stroke:#a9a9a9;stroke-linecap:square;stroke-linejoin:miter;stroke-width:2;"/>
   </g>
   <g id="patch_9">
    <path d="M 64.8 128.16 
L 64.8 77.76 
" style="fill:none;"/>
   </g>
   <g id="patch_10">
    <path d="M 9 128.16 
L 64.8 128.16 
" style="fill:none;stroke:#a9a9a9;stroke-linecap:square;stroke-linejoin:miter;stroke-width:2;"/>
   </g>
   <g id="patch_11">
    <path d="M 9 77.76 
L 64.8 77.76 
" style="fill:none;"/>
   </g>
  </g>
 </g>
 <defs>
  <clipPath id="p7325335950">
   <rect height="50.4" width="55.8" x="9" y="17.28"/>
  </clipPath>
  <clipPath id="pae27026755">
   <rect height="50.4" width="55.8" x="9" y="77.76"/>
  </clipPath>
 </defs>
</svg>
