<?xml version="1.0" encoding="utf-8" standalone="no"?>
<!DOCTYPE svg PUBLIC "-//W3C//DTD SVG 1.1//EN"
  "http://www.w3.org/Graphics/SVG/1.1/DTD/svg11.dtd">
<!-- Created with matplotlib (https://matplotlib.org/) -->
<svg height="144pt" version="1.1" viewBox="0 0 72 144" width="72pt" xmlns="http://www.w3.org/2000/svg" xmlns:xlink="http://www.w3.org/1999/xlink">
 <metadata>
  <rdf:RDF xmlns:cc="http://creativecommons.org/ns#" xmlns:dc="http://purl.org/dc/elements/1.1/" xmlns:rdf="http://www.w3.org/1999/02/22-rdf-syntax-ns#">
   <cc:Work>
    <dc:type rdf:resource="http://purl.org/dc/dcmitype/StillImage"/>
    <dc:date>2021-10-13T14:39:26.793674</dc:date>
    <dc:format>image/svg+xml</dc:format>
    <dc:creator>
     <cc:Agent>
      <dc:title>Matplotlib v3.3.2, https://matplotlib.org/</dc:title>
     </cc:Agent>
    </dc:creator>
   </cc:Work>
  </rdf:RDF>
 </metadata>
 <defs>
  <style type="text/css">*{stroke-linecap:butt;stroke-linejoin:round;}</style>
 </defs>
 <g id="figure_1">
  <g id="patch_1">
   <path d="M 0 144 
L 72 144 
L 72 0 
L 0 0 
z
" style="fill:none;"/>
  </g>
  <g id="axes_1">
   <g id="patch_2">
    <path d="M 9 67.68 
L 64.8 67.68 
L 64.8 17.28 
L 9 17.28 
z
" style="fill:none;"/>
   </g>
   <g id="matplotlib.axis_1">
    <g id="xtick_1">
     <g id="line2d_1">
      <defs>
       <path d="M 0 0 
L 0 3.5 
" id="mf54e03e608" style="stroke:#a9a9a9;stroke-width:2;"/>
      </defs>
      <g>
       <use style="fill:#a9a9a9;stroke:#a9a9a9;stroke-width:2;" x="9" xlink:href="#mf54e03e608" y="67.68"/>
      </g>
     </g>
    </g>
    <g id="xtick_2">
     <g id="line2d_2">
      <g>
       <use style="fill:#a9a9a9;stroke:#a9a9a9;stroke-width:2;" x="36.9" xlink:href="#mf54e03e608" y="67.68"/>
      </g>
     </g>
    </g>
    <g id="xtick_3">
     <g id="line2d_3">
      <g>
       <use style="fill:#a9a9a9;stroke:#a9a9a9;stroke-width:2;" x="64.8" xlink:href="#mf54e03e608" y="67.68"/>
      </g>
     </g>
    </g>
   </g>
   <g id="matplotlib.axis_2">
    <g id="ytick_1">
     <g id="line2d_4">
      <defs>
       <path d="M 0 0 
L -3.5 0 
" id="m4ab7f84fab" style="stroke:#a9a9a9;stroke-width:2;"/>
      </defs>
      <g>
       <use style="fill:#a9a9a9;stroke:#a9a9a9;stroke-width:2;" x="9" xlink:href="#m4ab7f84fab" y="67.68"/>
      </g>
     </g>
    </g>
    <g id="ytick_2">
     <g id="line2d_5">
      <g>
       <use style="fill:#a9a9a9;stroke:#a9a9a9;stroke-width:2;" x="9" xlink:href="#m4ab7f84fab" y="55.469947"/>
      </g>
     </g>
    </g>
    <g id="ytick_3">
     <g id="line2d_6">
      <g>
       <use style="fill:#a9a9a9;stroke:#a9a9a9;stroke-width:2;" x="9" xlink:href="#m4ab7f84fab" y="43.259894"/>
      </g>
     </g>
    </g>
   </g>
   <g id="line2d_7">
    <path clip-path="url(#p42e5737978)" d="M 10.86031 57.933071 
L 11.79031 55.960185 
L 12.72031 53.872415 
L 13.65031 52.026829 
L 14.58031 51.044133 
L 15.51031 49.464055 
L 16.44031 48.216869 
L 17.37031 47.180801 
L 18.30031 46.623347 
L 19.23031 45.568064 
L 20.16031 44.996079 
L 21.09031 44.763046 
L 22.02031 43.544973 
L 22.95031 42.552181 
L 23.88031 41.569506 
L 24.81031 41.29712 
L 25.74031 40.933949 
L 26.67031 39.665507 
L 27.60031 38.688652 
L 28.53031 38.240007 
L 29.46031 37.165964 
L 30.39031 35.667047 
L 31.32031 35.277375 
L 32.25031 34.879 
L 33.18031 34.548943 
L 34.11031 33.78824 
L 35.04031 32.88142 
L 35.97031 31.914586 
L 36.90031 30.82029 
L 37.83031 31.071763 
L 38.76031 30.208595 
L 39.69031 29.755975 
L 40.62031 29.619978 
L 41.55031 29.238057 
L 42.48031 28.757783 
L 43.41031 27.613349 
L 44.34031 27.533136 
L 45.27031 27.243042 
L 46.20031 26.119771 
L 47.13031 26.360847 
L 48.06031 25.984907 
L 48.99031 25.463828 
L 49.92031 24.477179 
L 50.85031 24.057581 
L 51.78031 23.585651 
L 52.71031 23.870461 
L 53.64031 24.096427 
L 54.57031 23.603813 
L 55.50031 22.776442 
L 56.43031 21.756337 
L 57.36031 20.958165 
L 58.29031 20.248745 
L 59.22031 19.90106 
L 60.15031 19.674587 
L 61.08031 18.805361 
L 62.01031 17.946638 
L 62.94031 18.134064 
L 63.87031 17.890503 
" style="fill:none;stroke:#fc8d62;stroke-linecap:square;stroke-width:2;"/>
   </g>
   <g id="line2d_8">
    <path clip-path="url(#p42e5737978)" d="M 10.86031 58.110752 
L 11.79031 55.672886 
L 12.72031 54.944759 
L 13.65031 54.199582 
L 14.58031 52.197305 
L 15.51031 50.384018 
L 16.44031 48.879583 
L 17.37031 48.336962 
L 18.30031 47.756842 
L 19.23031 47.202952 
L 20.16031 45.838059 
L 21.09031 45.385396 
L 22.02031 44.012744 
L 22.95031 42.793583 
L 23.88031 42.258046 
L 24.81031 41.365903 
L 25.74031 39.683534 
L 26.67031 39.202986 
L 27.60031 38.075851 
L 28.53031 36.696888 
L 29.46031 35.885613 
L 30.39031 34.908121 
L 31.32031 34.699676 
L 32.25031 33.801342 
L 33.18031 32.895605 
L 34.11031 32.573385 
L 35.04031 32.123411 
L 35.97031 32.317982 
L 36.90031 31.686552 
L 37.83031 31.331481 
L 38.76031 30.445896 
L 39.69031 29.924892 
L 40.62031 29.860296 
L 41.55031 28.533921 
L 42.48031 29.069606 
L 43.41031 28.59065 
L 44.34031 28.11925 
L 45.27031 26.962254 
L 46.20031 26.11714 
L 47.13031 25.902461 
L 48.06031 25.060368 
L 48.99031 24.458898 
L 49.92031 24.784076 
L 50.85031 25.354188 
L 51.78031 24.319798 
L 52.71031 23.689935 
L 53.64031 22.53 
L 54.57031 21.952048 
L 55.50031 22.059956 
L 56.43031 21.984371 
L 57.36031 21.392326 
L 58.29031 20.839804 
L 59.22031 20.266231 
L 60.15031 20.168048 
L 61.08031 19.524199 
L 62.01031 18.921436 
L 62.94031 18.784226 
L 63.87031 18.116266 
" style="fill:none;stroke:#fc8d62;stroke-dasharray:1.5,1.5;stroke-dashoffset:0;stroke-opacity:0.7;stroke-width:1.5;"/>
   </g>
   <g id="patch_3">
    <path d="M 9 67.68 
L 9 17.28 
" style="fill:none;stroke:#a9a9a9;stroke-linecap:square;stroke-linejoin:miter;stroke-width:2;"/>
   </g>
   <g id="patch_4">
    <path d="M 64.8 67.68 
L 64.8 17.28 
" style="fill:none;"/>
   </g>
   <g id="patch_5">
    <path d="M 9 67.68 
L 64.8 67.68 
" style="fill:none;stroke:#a9a9a9;stroke-linecap:square;stroke-linejoin:miter;stroke-width:2;"/>
   </g>
   <g id="patch_6">
    <path d="M 9 17.28 
L 64.8 17.28 
" style="fill:none;"/>
   </g>
  </g>
  <g id="axes_2">
   <g id="patch_7">
    <path d="M 9 128.16 
L 64.8 128.16 
L 64.8 77.76 
L 9 77.76 
z
" style="fill:none;"/>
   </g>
   <g id="matplotlib.axis_3">
    <g id="xtick_4">
     <g id="line2d_9">
      <g>
       <use style="fill:#a9a9a9;stroke:#a9a9a9;stroke-width:2;" x="9" xlink:href="#mf54e03e608" y="128.16"/>
      </g>
     </g>
    </g>
    <g id="xtick_5">
     <g id="line2d_10">
      <g>
       <use style="fill:#a9a9a9;stroke:#a9a9a9;stroke-width:2;" x="36.9" xlink:href="#mf54e03e608" y="128.16"/>
      </g>
     </g>
    </g>
    <g id="xtick_6">
     <g id="line2d_11">
      <g>
       <use style="fill:#a9a9a9;stroke:#a9a9a9;stroke-width:2;" x="64.8" xlink:href="#mf54e03e608" y="128.16"/>
      </g>
     </g>
    </g>
   </g>
   <g id="matplotlib.axis_4">
    <g id="ytick_4">
     <g id="line2d_12">
      <g>
       <use style="fill:#a9a9a9;stroke:#a9a9a9;stroke-width:2;" x="9" xlink:href="#m4ab7f84fab" y="128.16"/>
      </g>
     </g>
    </g>
    <g id="ytick_5">
     <g id="line2d_13">
      <g>
       <use style="fill:#a9a9a9;stroke:#a9a9a9;stroke-width:2;" x="9" xlink:href="#m4ab7f84fab" y="102.96"/>
      </g>
     </g>
    </g>
    <g id="ytick_6">
     <g id="line2d_14">
      <g>
       <use style="fill:#a9a9a9;stroke:#a9a9a9;stroke-width:2;" x="9" xlink:href="#m4ab7f84fab" y="77.76"/>
      </g>
     </g>
    </g>
   </g>
   <g id="line2d_15">
    <path clip-path="url(#pb6d55f9514)" d="M 10.86031 123.00154 
L 11.79031 122.488115 
L 12.72031 121.41367 
L 13.65031 120.945671 
L 14.58031 120.285023 
L 15.51031 119.788571 
L 16.44031 119.386324 
L 17.37031 119.500156 
L 18.30031 119.408102 
L 19.23031 119.418348 
L 20.16031 119.25823 
L 21.09031 119.11369 
L 22.02031 119.123032 
L 22.95031 118.94878 
L 23.88031 118.835676 
L 24.81031 118.885131 
L 25.74031 118.814796 
L 26.67031 118.846896 
L 27.60031 118.701231 
L 28.53031 118.62837 
L 29.46031 118.704653 
L 30.39031 118.611716 
L 31.32031 118.559397 
L 32.25031 118.528836 
L 33.18031 118.502224 
L 34.11031 118.476604 
L 35.04031 118.436062 
L 35.97031 118.351759 
L 36.90031 118.379777 
L 37.83031 118.368542 
L 38.76031 118.363424 
L 39.69031 118.278084 
L 40.62031 118.223984 
L 41.55031 118.193058 
L 42.48031 118.146769 
L 43.41031 118.128575 
L 44.34031 118.083783 
L 45.27031 118.122219 
L 46.20031 118.062158 
L 47.13031 118.02681 
L 48.06031 118.030026 
L 48.99031 118.027572 
L 49.92031 117.961087 
L 50.85031 117.928381 
L 51.78031 117.90092 
L 52.71031 117.916263 
L 53.64031 117.898545 
L 54.57031 117.890366 
L 55.50031 117.815715 
L 56.43031 117.82052 
L 57.36031 117.791752 
L 58.29031 117.796729 
L 59.22031 117.76982 
L 60.15031 117.760804 
L 61.08031 117.780735 
L 62.01031 117.803015 
L 62.94031 117.841972 
L 63.87031 117.865975 
" style="fill:none;stroke:#fc8d62;stroke-linecap:square;stroke-width:2;"/>
   </g>
   <g id="line2d_16">
    <path clip-path="url(#pb6d55f9514)" d="M 10.86031 107.735029 
L 11.79031 103.622449 
L 12.72031 101.188971 
L 13.65031 99.451117 
L 14.58031 98.61925 
L 15.51031 97.67814 
L 16.44031 97.133687 
L 17.37031 96.803556 
L 18.30031 96.599984 
L 19.23031 96.475029 
L 20.16031 95.854868 
L 21.09031 95.710308 
L 22.02031 95.373817 
L 22.95031 95.023588 
L 23.88031 94.782221 
L 24.81031 94.757281 
L 25.74031 94.431435 
L 26.67031 94.392683 
L 27.60031 94.367256 
L 28.53031 94.077155 
L 29.46031 94.054579 
L 30.39031 93.88614 
L 31.32031 93.912021 
L 32.25031 93.815017 
L 33.18031 93.729521 
L 34.11031 93.710867 
L 35.04031 93.704602 
L 35.97031 93.720544 
L 36.90031 93.625481 
L 37.83031 93.575255 
L 38.76031 93.44654 
L 39.69031 93.462867 
L 40.62031 93.336837 
L 41.55031 93.316091 
L 42.48031 93.302158 
L 43.41031 93.248742 
L 44.34031 93.263281 
L 45.27031 93.286894 
L 46.20031 93.207632 
L 47.13031 93.237987 
L 48.06031 93.179174 
L 48.99031 93.248266 
L 49.92031 93.176213 
L 50.85031 93.128328 
L 51.78031 93.079571 
L 52.71031 93.066236 
L 53.64031 92.973165 
L 54.57031 92.945008 
L 55.50031 92.943173 
L 56.43031 92.970445 
L 57.36031 92.989545 
L 58.29031 92.92629 
L 59.22031 92.883749 
L 60.15031 92.891312 
L 61.08031 92.865658 
L 62.01031 92.876236 
L 62.94031 92.922312 
L 63.87031 92.928512 
" style="fill:none;stroke:#fc8d62;stroke-dasharray:1.5,1.5;stroke-dashoffset:0;stroke-opacity:0.7;stroke-width:1.5;"/>
   </g>
   <g id="patch_8">
    <path d="M 9 128.16 
L 9 77.76 
" style="fill:none;stroke:#a9a9a9;stroke-linecap:square;stroke-linejoin:miter;stroke-width:2;"/>
   </g>
   <g id="patch_9">
    <path d="M 64.8 128.16 
L 64.8 77.76 
" style="fill:none;"/>
   </g>
   <g id="patch_10">
    <path d="M 9 128.16 
L 64.8 128.16 
" style="fill:none;stroke:#a9a9a9;stroke-linecap:square;stroke-linejoin:miter;stroke-width:2;"/>
   </g>
   <g id="patch_11">
    <path d="M 9 77.76 
L 64.8 77.76 
" style="fill:none;"/>
   </g>
  </g>
 </g>
 <defs>
  <clipPath id="p42e5737978">
   <rect height="50.4" width="55.8" x="9" y="17.28"/>
  </clipPath>
  <clipPath id="pb6d55f9514">
   <rect height="50.4" width="55.8" x="9" y="77.76"/>
  </clipPath>
 </defs>
</svg>
