<?xml version="1.0" encoding="utf-8" standalone="no"?>
<!DOCTYPE svg PUBLIC "-//W3C//DTD SVG 1.1//EN"
  "http://www.w3.org/Graphics/SVG/1.1/DTD/svg11.dtd">
<!-- Created with matplotlib (https://matplotlib.org/) -->
<svg height="144pt" version="1.1" viewBox="0 0 72 144" width="72pt" xmlns="http://www.w3.org/2000/svg" xmlns:xlink="http://www.w3.org/1999/xlink">
 <metadata>
  <rdf:RDF xmlns:cc="http://creativecommons.org/ns#" xmlns:dc="http://purl.org/dc/elements/1.1/" xmlns:rdf="http://www.w3.org/1999/02/22-rdf-syntax-ns#">
   <cc:Work>
    <dc:type rdf:resource="http://purl.org/dc/dcmitype/StillImage"/>
    <dc:date>2021-10-13T14:26:04.728671</dc:date>
    <dc:format>image/svg+xml</dc:format>
    <dc:creator>
     <cc:Agent>
      <dc:title>Matplotlib v3.3.2, https://matplotlib.org/</dc:title>
     </cc:Agent>
    </dc:creator>
   </cc:Work>
  </rdf:RDF>
 </metadata>
 <defs>
  <style type="text/css">*{stroke-linecap:butt;stroke-linejoin:round;}</style>
 </defs>
 <g id="figure_1">
  <g id="patch_1">
   <path d="M 0 144 
L 72 144 
L 72 0 
L 0 0 
z
" style="fill:none;"/>
  </g>
  <g id="axes_1">
   <g id="patch_2">
    <path d="M 9 67.68 
L 64.8 67.68 
L 64.8 17.28 
L 9 17.28 
z
" style="fill:none;"/>
   </g>
   <g id="matplotlib.axis_1">
    <g id="xtick_1">
     <g id="line2d_1">
      <defs>
       <path d="M 0 0 
L 0 3.5 
" id="m7096043fc9" style="stroke:#a9a9a9;stroke-width:2;"/>
      </defs>
      <g>
       <use style="fill:#a9a9a9;stroke:#a9a9a9;stroke-width:2;" x="9" xlink:href="#m7096043fc9" y="67.68"/>
      </g>
     </g>
    </g>
    <g id="xtick_2">
     <g id="line2d_2">
      <g>
       <use style="fill:#a9a9a9;stroke:#a9a9a9;stroke-width:2;" x="36.9" xlink:href="#m7096043fc9" y="67.68"/>
      </g>
     </g>
    </g>
    <g id="xtick_3">
     <g id="line2d_3">
      <g>
       <use style="fill:#a9a9a9;stroke:#a9a9a9;stroke-width:2;" x="64.8" xlink:href="#m7096043fc9" y="67.68"/>
      </g>
     </g>
    </g>
   </g>
   <g id="matplotlib.axis_2">
    <g id="ytick_1">
     <g id="line2d_4">
      <defs>
       <path d="M 0 0 
L -3.5 0 
" id="mec8b138c46" style="stroke:#a9a9a9;stroke-width:2;"/>
      </defs>
      <g>
       <use style="fill:#a9a9a9;stroke:#a9a9a9;stroke-width:2;" x="9" xlink:href="#mec8b138c46" y="67.68"/>
      </g>
     </g>
    </g>
    <g id="ytick_2">
     <g id="line2d_5">
      <g>
       <use style="fill:#a9a9a9;stroke:#a9a9a9;stroke-width:2;" x="9" xlink:href="#mec8b138c46" y="62.598346"/>
      </g>
     </g>
    </g>
    <g id="ytick_3">
     <g id="line2d_6">
      <g>
       <use style="fill:#a9a9a9;stroke:#a9a9a9;stroke-width:2;" x="9" xlink:href="#mec8b138c46" y="57.516691"/>
      </g>
     </g>
    </g>
   </g>
   <g id="line2d_7">
    <path clip-path="url(#p08baff9737)" d="M 10.86031 58.026773 
L 11.79031 55.872325 
L 12.72031 54.37955 
L 13.65031 54.281619 
L 14.58031 53.080649 
L 15.51031 51.941729 
L 16.44031 50.746355 
L 17.37031 49.627041 
L 18.30031 48.479285 
L 19.23031 47.121373 
L 20.16031 46.24197 
L 21.09031 44.293403 
L 22.02031 42.994878 
L 22.95031 42.362036 
L 23.88031 41.324913 
L 24.81031 41.174545 
L 25.74031 40.700993 
L 26.67031 39.271577 
L 27.60031 38.479576 
L 28.53031 37.201523 
L 29.46031 35.328186 
L 30.39031 34.227273 
L 31.32031 33.783685 
L 32.25031 33.213353 
L 33.18031 32.192535 
L 34.11031 31.711876 
L 35.04031 31.843584 
L 35.97031 31.09689 
L 36.90031 31.25961 
L 37.83031 31.071098 
L 38.76031 30.522093 
L 39.69031 31.170963 
L 40.62031 29.875559 
L 41.55031 30.309002 
L 42.48031 30.472145 
L 43.41031 30.244627 
L 44.34031 30.216141 
L 45.27031 29.847599 
L 46.20031 29.420343 
L 47.13031 28.30169 
L 48.06031 27.245287 
L 48.99031 27.079405 
L 49.92031 26.766597 
L 50.85031 25.375389 
L 51.78031 25.188638 
L 52.71031 23.519941 
L 53.64031 23.558201 
L 54.57031 23.367015 
L 55.50031 21.311351 
L 56.43031 21.076666 
L 57.36031 20.297682 
L 58.29031 19.078641 
L 59.22031 18.51842 
L 60.15031 18.185698 
L 61.08031 18.299705 
L 62.01031 18.403527 
L 62.94031 17.809585 
L 63.87031 17.534083 
" style="fill:none;stroke:#fc8d62;stroke-linecap:square;stroke-width:2;"/>
   </g>
   <g id="line2d_8">
    <path clip-path="url(#p08baff9737)" d="M 10.86031 58.412119 
L 11.79031 56.13615 
L 12.72031 54.792846 
L 13.65031 53.356871 
L 14.58031 52.12105 
L 15.51031 51.489383 
L 16.44031 51.04724 
L 17.37031 49.673425 
L 18.30031 48.15153 
L 19.23031 47.884628 
L 20.16031 46.888325 
L 21.09031 45.451068 
L 22.02031 44.618574 
L 22.95031 43.322444 
L 23.88031 42.656151 
L 24.81031 42.387276 
L 25.74031 41.229042 
L 26.67031 40.504369 
L 27.60031 39.01569 
L 28.53031 38.191141 
L 29.46031 37.092534 
L 30.39031 35.557542 
L 31.32031 34.881083 
L 32.25031 34.314954 
L 33.18031 33.461097 
L 34.11031 32.312111 
L 35.04031 32.744977 
L 35.97031 32.363143 
L 36.90031 32.198349 
L 37.83031 30.650003 
L 38.76031 31.095376 
L 39.69031 30.676678 
L 40.62031 30.143892 
L 41.55031 30.473199 
L 42.48031 29.518939 
L 43.41031 28.663765 
L 44.34031 27.932614 
L 45.27031 26.69302 
L 46.20031 26.108984 
L 47.13031 25.468259 
L 48.06031 25.044716 
L 48.99031 24.236766 
L 49.92031 23.152018 
L 50.85031 22.756249 
L 51.78031 22.62759 
L 52.71031 22.025578 
L 53.64031 21.075469 
L 54.57031 20.473093 
L 55.50031 19.498069 
L 56.43031 19.178747 
L 57.36031 18.121143 
L 58.29031 17.795993 
L 59.22031 15.610627 
L 60.15031 16.031027 
L 61.08031 15.206897 
L 62.01031 14.313772 
L 62.94031 15.018743 
L 63.87031 15.386369 
" style="fill:none;stroke:#fc8d62;stroke-dasharray:1.5,1.5;stroke-dashoffset:0;stroke-opacity:0.7;stroke-width:1.5;"/>
   </g>
   <g id="patch_3">
    <path d="M 9 67.68 
L 9 17.28 
" style="fill:none;stroke:#a9a9a9;stroke-linecap:square;stroke-linejoin:miter;stroke-width:2;"/>
   </g>
   <g id="patch_4">
    <path d="M 64.8 67.68 
L 64.8 17.28 
" style="fill:none;"/>
   </g>
   <g id="patch_5">
    <path d="M 9 67.68 
L 64.8 67.68 
" style="fill:none;stroke:#a9a9a9;stroke-linecap:square;stroke-linejoin:miter;stroke-width:2;"/>
   </g>
   <g id="patch_6">
    <path d="M 9 17.28 
L 64.8 17.28 
" style="fill:none;"/>
   </g>
  </g>
  <g id="axes_2">
   <g id="patch_7">
    <path d="M 9 128.16 
L 64.8 128.16 
L 64.8 77.76 
L 9 77.76 
z
" style="fill:none;"/>
   </g>
   <g id="matplotlib.axis_3">
    <g id="xtick_4">
     <g id="line2d_9">
      <g>
       <use style="fill:#a9a9a9;stroke:#a9a9a9;stroke-width:2;" x="9" xlink:href="#m7096043fc9" y="128.16"/>
      </g>
     </g>
    </g>
    <g id="xtick_5">
     <g id="line2d_10">
      <g>
       <use style="fill:#a9a9a9;stroke:#a9a9a9;stroke-width:2;" x="36.9" xlink:href="#m7096043fc9" y="128.16"/>
      </g>
     </g>
    </g>
    <g id="xtick_6">
     <g id="line2d_11">
      <g>
       <use style="fill:#a9a9a9;stroke:#a9a9a9;stroke-width:2;" x="64.8" xlink:href="#m7096043fc9" y="128.16"/>
      </g>
     </g>
    </g>
   </g>
   <g id="matplotlib.axis_4">
    <g id="ytick_4">
     <g id="line2d_12">
      <g>
       <use style="fill:#a9a9a9;stroke:#a9a9a9;stroke-width:2;" x="9" xlink:href="#mec8b138c46" y="128.16"/>
      </g>
     </g>
    </g>
    <g id="ytick_5">
     <g id="line2d_13">
      <g>
       <use style="fill:#a9a9a9;stroke:#a9a9a9;stroke-width:2;" x="9" xlink:href="#mec8b138c46" y="102.96"/>
      </g>
     </g>
    </g>
    <g id="ytick_6">
     <g id="line2d_14">
      <g>
       <use style="fill:#a9a9a9;stroke:#a9a9a9;stroke-width:2;" x="9" xlink:href="#mec8b138c46" y="77.76"/>
      </g>
     </g>
    </g>
   </g>
   <g id="line2d_15">
    <path clip-path="url(#p7cf2f93b7a)" d="M 10.86031 90.511591 
L 11.79031 89.506205 
L 12.72031 88.922582 
L 13.65031 88.857628 
L 14.58031 88.441811 
L 15.51031 88.34738 
L 16.44031 88.139656 
L 17.37031 88.059931 
L 18.30031 87.893562 
L 19.23031 87.820268 
L 20.16031 87.785849 
L 21.09031 87.682002 
L 22.02031 87.648056 
L 22.95031 87.607561 
L 23.88031 87.545711 
L 24.81031 87.528372 
L 25.74031 87.517928 
L 26.67031 87.421922 
L 27.60031 87.398163 
L 28.53031 87.369513 
L 29.46031 87.374991 
L 30.39031 87.349637 
L 31.32031 87.348645 
L 32.25031 87.323719 
L 33.18031 87.303573 
L 34.11031 87.27626 
L 35.04031 87.260385 
L 35.97031 87.251759 
L 36.90031 87.245042 
L 37.83031 87.230736 
L 38.76031 87.207389 
L 39.69031 87.202133 
L 40.62031 87.202908 
L 41.55031 87.200403 
L 42.48031 87.217623 
L 43.41031 87.207828 
L 44.34031 87.195208 
L 45.27031 87.197328 
L 46.20031 87.198915 
L 47.13031 87.208716 
L 48.06031 87.206481 
L 48.99031 87.1961 
L 49.92031 87.176477 
L 50.85031 87.163681 
L 51.78031 87.157752 
L 52.71031 87.137034 
L 53.64031 87.135916 
L 54.57031 87.133643 
L 55.50031 87.119008 
L 56.43031 87.121967 
L 57.36031 87.103749 
L 58.29031 87.106126 
L 59.22031 87.114977 
L 60.15031 87.106547 
L 61.08031 87.096458 
L 62.01031 87.096047 
L 62.94031 87.093983 
L 63.87031 87.093143 
" style="fill:none;stroke:#fc8d62;stroke-linecap:square;stroke-width:2;"/>
   </g>
   <g id="line2d_16">
    <path clip-path="url(#p7cf2f93b7a)" d="M 10.86031 93.448787 
L 11.79031 92.319087 
L 12.72031 91.826953 
L 13.65031 91.507054 
L 14.58031 91.386084 
L 15.51031 91.318012 
L 16.44031 91.196607 
L 17.37031 91.02354 
L 18.30031 90.925308 
L 19.23031 90.913276 
L 20.16031 90.847714 
L 21.09031 90.851338 
L 22.02031 90.837692 
L 22.95031 90.827001 
L 23.88031 90.832596 
L 24.81031 90.791348 
L 25.74031 90.736149 
L 26.67031 90.723044 
L 27.60031 90.713767 
L 28.53031 90.6827 
L 29.46031 90.674276 
L 30.39031 90.652935 
L 31.32031 90.639076 
L 32.25031 90.601756 
L 33.18031 90.548683 
L 34.11031 90.528475 
L 35.04031 90.56881 
L 35.97031 90.546363 
L 36.90031 90.507985 
L 37.83031 90.498743 
L 38.76031 90.482493 
L 39.69031 90.45932 
L 40.62031 90.443428 
L 41.55031 90.447679 
L 42.48031 90.440253 
L 43.41031 90.435944 
L 44.34031 90.41833 
L 45.27031 90.401422 
L 46.20031 90.407231 
L 47.13031 90.410941 
L 48.06031 90.425807 
L 48.99031 90.447684 
L 49.92031 90.453637 
L 50.85031 90.454639 
L 51.78031 90.448371 
L 52.71031 90.431701 
L 53.64031 90.425209 
L 54.57031 90.440108 
L 55.50031 90.433718 
L 56.43031 90.431757 
L 57.36031 90.417553 
L 58.29031 90.404173 
L 59.22031 90.389068 
L 60.15031 90.380935 
L 61.08031 90.370408 
L 62.01031 90.35447 
L 62.94031 90.358661 
L 63.87031 90.349472 
" style="fill:none;stroke:#fc8d62;stroke-dasharray:1.5,1.5;stroke-dashoffset:0;stroke-opacity:0.7;stroke-width:1.5;"/>
   </g>
   <g id="patch_8">
    <path d="M 9 128.16 
L 9 77.76 
" style="fill:none;stroke:#a9a9a9;stroke-linecap:square;stroke-linejoin:miter;stroke-width:2;"/>
   </g>
   <g id="patch_9">
    <path d="M 64.8 128.16 
L 64.8 77.76 
" style="fill:none;"/>
   </g>
   <g id="patch_10">
    <path d="M 9 128.16 
L 64.8 128.16 
" style="fill:none;stroke:#a9a9a9;stroke-linecap:square;stroke-linejoin:miter;stroke-width:2;"/>
   </g>
   <g id="patch_11">
    <path d="M 9 77.76 
L 64.8 77.76 
" style="fill:none;"/>
   </g>
  </g>
 </g>
 <defs>
  <clipPath id="p08baff9737">
   <rect height="50.4" width="55.8" x="9" y="17.28"/>
  </clipPath>
  <clipPath id="p7cf2f93b7a">
   <rect height="50.4" width="55.8" x="9" y="77.76"/>
  </clipPath>
 </defs>
</svg>
