<?xml version="1.0" encoding="utf-8" standalone="no"?>
<!DOCTYPE svg PUBLIC "-//W3C//DTD SVG 1.1//EN"
  "http://www.w3.org/Graphics/SVG/1.1/DTD/svg11.dtd">
<!-- Created with matplotlib (https://matplotlib.org/) -->
<svg height="144pt" version="1.1" viewBox="0 0 72 144" width="72pt" xmlns="http://www.w3.org/2000/svg" xmlns:xlink="http://www.w3.org/1999/xlink">
 <metadata>
  <rdf:RDF xmlns:cc="http://creativecommons.org/ns#" xmlns:dc="http://purl.org/dc/elements/1.1/" xmlns:rdf="http://www.w3.org/1999/02/22-rdf-syntax-ns#">
   <cc:Work>
    <dc:type rdf:resource="http://purl.org/dc/dcmitype/StillImage"/>
    <dc:date>2021-10-13T15:33:06.038409</dc:date>
    <dc:format>image/svg+xml</dc:format>
    <dc:creator>
     <cc:Agent>
      <dc:title>Matplotlib v3.3.2, https://matplotlib.org/</dc:title>
     </cc:Agent>
    </dc:creator>
   </cc:Work>
  </rdf:RDF>
 </metadata>
 <defs>
  <style type="text/css">*{stroke-linecap:butt;stroke-linejoin:round;}</style>
 </defs>
 <g id="figure_1">
  <g id="patch_1">
   <path d="M 0 144 
L 72 144 
L 72 0 
L 0 0 
z
" style="fill:none;"/>
  </g>
  <g id="axes_1">
   <g id="patch_2">
    <path d="M 9 67.68 
L 64.8 67.68 
L 64.8 17.28 
L 9 17.28 
z
" style="fill:none;"/>
   </g>
   <g id="matplotlib.axis_1">
    <g id="xtick_1">
     <g id="line2d_1">
      <defs>
       <path d="M 0 0 
L 0 3.5 
" id="m57b53e507d" style="stroke:#a9a9a9;stroke-width:2;"/>
      </defs>
      <g>
       <use style="fill:#a9a9a9;stroke:#a9a9a9;stroke-width:2;" x="9" xlink:href="#m57b53e507d" y="67.68"/>
      </g>
     </g>
    </g>
    <g id="xtick_2">
     <g id="line2d_2">
      <g>
       <use style="fill:#a9a9a9;stroke:#a9a9a9;stroke-width:2;" x="36.9" xlink:href="#m57b53e507d" y="67.68"/>
      </g>
     </g>
    </g>
    <g id="xtick_3">
     <g id="line2d_3">
      <g>
       <use style="fill:#a9a9a9;stroke:#a9a9a9;stroke-width:2;" x="64.8" xlink:href="#m57b53e507d" y="67.68"/>
      </g>
     </g>
    </g>
   </g>
   <g id="matplotlib.axis_2">
    <g id="ytick_1">
     <g id="line2d_4">
      <defs>
       <path d="M 0 0 
L -3.5 0 
" id="mcc6c20d38e" style="stroke:#a9a9a9;stroke-width:2;"/>
      </defs>
      <g>
       <use style="fill:#a9a9a9;stroke:#a9a9a9;stroke-width:2;" x="9" xlink:href="#mcc6c20d38e" y="67.68"/>
      </g>
     </g>
    </g>
    <g id="ytick_2">
     <g id="line2d_5">
      <g>
       <use style="fill:#a9a9a9;stroke:#a9a9a9;stroke-width:2;" x="9" xlink:href="#mcc6c20d38e" y="42.48"/>
      </g>
     </g>
    </g>
    <g id="ytick_3">
     <g id="line2d_6">
      <g>
       <use style="fill:#a9a9a9;stroke:#a9a9a9;stroke-width:2;" x="9" xlink:href="#mcc6c20d38e" y="17.28"/>
      </g>
     </g>
    </g>
   </g>
   <g id="line2d_7">
    <path clip-path="url(#p3f829afbbb)" d="M 10.86031 54.725643 
L 11.79031 56.813212 
L 12.72031 57.755081 
L 13.65031 58.590141 
L 14.58031 59.277023 
L 15.51031 59.766595 
L 16.44031 60.211214 
L 17.37031 60.74937 
L 18.30031 61.062211 
L 19.23031 61.028486 
L 20.16031 61.173315 
L 21.09031 61.255232 
L 22.02031 61.260567 
L 22.95031 61.175666 
L 23.88031 60.671434 
L 24.81031 60.558458 
L 25.74031 60.340258 
L 26.67031 59.700961 
L 27.60031 60.01855 
L 28.53031 59.842167 
L 29.46031 59.049051 
L 30.39031 59.009505 
L 31.32031 59.541989 
L 32.25031 59.830226 
L 33.18031 59.828523 
L 34.11031 59.545512 
L 35.04031 59.51321 
L 35.97031 59.359745 
L 36.90031 59.268871 
L 37.83031 59.430394 
L 38.76031 58.985502 
L 39.69031 58.996901 
L 40.62031 58.762774 
L 41.55031 58.460537 
L 42.48031 58.576866 
L 43.41031 58.372514 
L 44.34031 58.443312 
L 45.27031 58.342862 
L 46.20031 58.097315 
L 47.13031 57.962424 
L 48.06031 58.294668 
L 48.99031 58.153242 
L 49.92031 57.853901 
L 50.85031 58.022824 
L 51.78031 58.013324 
L 52.71031 58.067825 
L 53.64031 57.99897 
L 54.57031 58.231304 
L 55.50031 58.114872 
L 56.43031 58.168481 
L 57.36031 58.012108 
L 58.29031 57.883155 
L 59.22031 57.719001 
L 60.15031 57.837967 
L 61.08031 57.286713 
L 62.01031 57.221559 
L 62.94031 57.159742 
L 63.87031 56.848289 
" style="fill:none;stroke:#fc8d62;stroke-linecap:square;stroke-width:2;"/>
   </g>
   <g id="line2d_8">
    <path clip-path="url(#p3f829afbbb)" d="M 10.86031 49.336708 
L 11.79031 52.059653 
L 12.72031 54.240254 
L 13.65031 55.93814 
L 14.58031 57.848525 
L 15.51031 58.553032 
L 16.44031 59.502577 
L 17.37031 60.533347 
L 18.30031 60.846686 
L 19.23031 61.447885 
L 20.16031 61.951269 
L 21.09031 62.115342 
L 22.02031 62.860624 
L 22.95031 63.044376 
L 23.88031 63.025934 
L 24.81031 62.905955 
L 25.74031 63.437104 
L 26.67031 63.253496 
L 27.60031 63.244745 
L 28.53031 63.081051 
L 29.46031 63.108528 
L 30.39031 62.923891 
L 31.32031 62.866405 
L 32.25031 63.281737 
L 33.18031 62.966352 
L 34.11031 63.110117 
L 35.04031 63.152237 
L 35.97031 63.359881 
L 36.90031 63.262854 
L 37.83031 62.909088 
L 38.76031 62.75617 
L 39.69031 62.753256 
L 40.62031 62.664335 
L 41.55031 62.687272 
L 42.48031 62.538007 
L 43.41031 62.435863 
L 44.34031 62.703899 
L 45.27031 62.514686 
L 46.20031 62.342655 
L 47.13031 62.404971 
L 48.06031 62.240058 
L 48.99031 61.967965 
L 49.92031 61.744377 
L 50.85031 61.799163 
L 51.78031 62.131038 
L 52.71031 62.110489 
L 53.64031 62.216313 
L 54.57031 62.022024 
L 55.50031 62.079824 
L 56.43031 61.978769 
L 57.36031 62.056133 
L 58.29031 61.875941 
L 59.22031 61.753204 
L 60.15031 61.530214 
L 61.08031 61.469524 
L 62.01031 61.570324 
L 62.94031 61.60885 
L 63.87031 61.433859 
" style="fill:none;stroke:#fc8d62;stroke-dasharray:1.5,1.5;stroke-dashoffset:0;stroke-opacity:0.7;stroke-width:1.5;"/>
   </g>
   <g id="patch_3">
    <path d="M 9 67.68 
L 9 17.28 
" style="fill:none;stroke:#a9a9a9;stroke-linecap:square;stroke-linejoin:miter;stroke-width:2;"/>
   </g>
   <g id="patch_4">
    <path d="M 64.8 67.68 
L 64.8 17.28 
" style="fill:none;"/>
   </g>
   <g id="patch_5">
    <path d="M 9 67.68 
L 64.8 67.68 
" style="fill:none;stroke:#a9a9a9;stroke-linecap:square;stroke-linejoin:miter;stroke-width:2;"/>
   </g>
   <g id="patch_6">
    <path d="M 9 17.28 
L 64.8 17.28 
" style="fill:none;"/>
   </g>
  </g>
  <g id="axes_2">
   <g id="patch_7">
    <path d="M 9 128.16 
L 64.8 128.16 
L 64.8 77.76 
L 9 77.76 
z
" style="fill:none;"/>
   </g>
   <g id="matplotlib.axis_3">
    <g id="xtick_4">
     <g id="line2d_9">
      <g>
       <use style="fill:#a9a9a9;stroke:#a9a9a9;stroke-width:2;" x="9" xlink:href="#m57b53e507d" y="128.16"/>
      </g>
     </g>
    </g>
    <g id="xtick_5">
     <g id="line2d_10">
      <g>
       <use style="fill:#a9a9a9;stroke:#a9a9a9;stroke-width:2;" x="36.9" xlink:href="#m57b53e507d" y="128.16"/>
      </g>
     </g>
    </g>
    <g id="xtick_6">
     <g id="line2d_11">
      <g>
       <use style="fill:#a9a9a9;stroke:#a9a9a9;stroke-width:2;" x="64.8" xlink:href="#m57b53e507d" y="128.16"/>
      </g>
     </g>
    </g>
   </g>
   <g id="matplotlib.axis_4">
    <g id="ytick_4">
     <g id="line2d_12">
      <g>
       <use style="fill:#a9a9a9;stroke:#a9a9a9;stroke-width:2;" x="9" xlink:href="#mcc6c20d38e" y="128.16"/>
      </g>
     </g>
    </g>
    <g id="ytick_5">
     <g id="line2d_13">
      <g>
       <use style="fill:#a9a9a9;stroke:#a9a9a9;stroke-width:2;" x="9" xlink:href="#mcc6c20d38e" y="102.96"/>
      </g>
     </g>
    </g>
    <g id="ytick_6">
     <g id="line2d_14">
      <g>
       <use style="fill:#a9a9a9;stroke:#a9a9a9;stroke-width:2;" x="9" xlink:href="#mcc6c20d38e" y="77.76"/>
      </g>
     </g>
    </g>
   </g>
   <g id="line2d_15">
    <path clip-path="url(#p2e431824a7)" d="M 10.86031 126.534204 
L 11.79031 126.365311 
L 12.72031 126.09263 
L 13.65031 125.640453 
L 14.58031 125.2715 
L 15.51031 124.873844 
L 16.44031 124.922927 
L 17.37031 124.56511 
L 18.30031 124.369525 
L 19.23031 123.725863 
L 20.16031 123.796992 
L 21.09031 123.834459 
L 22.02031 123.552333 
L 22.95031 123.194684 
L 23.88031 122.912131 
L 24.81031 122.637555 
L 25.74031 122.56221 
L 26.67031 122.100545 
L 27.60031 121.941061 
L 28.53031 121.818873 
L 29.46031 121.579164 
L 30.39031 121.150756 
L 31.32031 121.091529 
L 32.25031 120.991439 
L 33.18031 120.801853 
L 34.11031 120.760323 
L 35.04031 120.740651 
L 35.97031 120.56392 
L 36.90031 120.528452 
L 37.83031 120.334052 
L 38.76031 120.254498 
L 39.69031 119.964569 
L 40.62031 119.656623 
L 41.55031 119.405175 
L 42.48031 119.253366 
L 43.41031 119.138191 
L 44.34031 118.67518 
L 45.27031 118.598151 
L 46.20031 118.273952 
L 47.13031 118.208824 
L 48.06031 118.263812 
L 48.99031 118.124173 
L 49.92031 117.879969 
L 50.85031 117.811628 
L 51.78031 117.925887 
L 52.71031 117.918922 
L 53.64031 117.887206 
L 54.57031 117.790693 
L 55.50031 117.666615 
L 56.43031 117.550132 
L 57.36031 117.428047 
L 58.29031 117.396532 
L 59.22031 117.211542 
L 60.15031 116.915253 
L 61.08031 116.381199 
L 62.01031 116.08217 
L 62.94031 116.05616 
L 63.87031 115.740737 
" style="fill:none;stroke:#fc8d62;stroke-linecap:square;stroke-width:2;"/>
   </g>
   <g id="line2d_16">
    <path clip-path="url(#p2e431824a7)" d="M 10.86031 127.412387 
L 11.79031 127.593248 
L 12.72031 127.587338 
L 13.65031 127.654801 
L 14.58031 127.652286 
L 15.51031 127.622534 
L 16.44031 127.602809 
L 17.37031 127.489848 
L 18.30031 127.420868 
L 19.23031 127.257601 
L 20.16031 127.201085 
L 21.09031 127.263766 
L 22.02031 127.178085 
L 22.95031 127.063082 
L 23.88031 126.877629 
L 24.81031 126.769539 
L 25.74031 126.679516 
L 26.67031 126.587238 
L 27.60031 126.541522 
L 28.53031 126.35095 
L 29.46031 126.20817 
L 30.39031 126.147907 
L 31.32031 126.162886 
L 32.25031 126.120317 
L 33.18031 126.099139 
L 34.11031 126.145972 
L 35.04031 126.168845 
L 35.97031 125.990677 
L 36.90031 125.919904 
L 37.83031 125.951125 
L 38.76031 125.939322 
L 39.69031 125.995595 
L 40.62031 125.851743 
L 41.55031 125.735988 
L 42.48031 125.623832 
L 43.41031 125.574323 
L 44.34031 125.551578 
L 45.27031 125.516869 
L 46.20031 125.500875 
L 47.13031 125.312609 
L 48.06031 125.303905 
L 48.99031 125.28081 
L 49.92031 125.310886 
L 50.85031 125.270832 
L 51.78031 125.21112 
L 52.71031 125.218501 
L 53.64031 125.098922 
L 54.57031 125.0283 
L 55.50031 124.939284 
L 56.43031 124.998675 
L 57.36031 124.91819 
L 58.29031 124.842062 
L 59.22031 124.744515 
L 60.15031 124.675205 
L 61.08031 124.732421 
L 62.01031 124.615644 
L 62.94031 124.689448 
L 63.87031 124.53672 
" style="fill:none;stroke:#fc8d62;stroke-dasharray:1.5,1.5;stroke-dashoffset:0;stroke-opacity:0.7;stroke-width:1.5;"/>
   </g>
   <g id="patch_8">
    <path d="M 9 128.16 
L 9 77.76 
" style="fill:none;stroke:#a9a9a9;stroke-linecap:square;stroke-linejoin:miter;stroke-width:2;"/>
   </g>
   <g id="patch_9">
    <path d="M 64.8 128.16 
L 64.8 77.76 
" style="fill:none;"/>
   </g>
   <g id="patch_10">
    <path d="M 9 128.16 
L 64.8 128.16 
" style="fill:none;stroke:#a9a9a9;stroke-linecap:square;stroke-linejoin:miter;stroke-width:2;"/>
   </g>
   <g id="patch_11">
    <path d="M 9 77.76 
L 64.8 77.76 
" style="fill:none;"/>
   </g>
  </g>
 </g>
 <defs>
  <clipPath id="p3f829afbbb">
   <rect height="50.4" width="55.8" x="9" y="17.28"/>
  </clipPath>
  <clipPath id="p2e431824a7">
   <rect height="50.4" width="55.8" x="9" y="77.76"/>
  </clipPath>
 </defs>
</svg>
