<?xml version="1.0" encoding="utf-8" standalone="no"?>
<!DOCTYPE svg PUBLIC "-//W3C//DTD SVG 1.1//EN"
  "http://www.w3.org/Graphics/SVG/1.1/DTD/svg11.dtd">
<!-- Created with matplotlib (https://matplotlib.org/) -->
<svg height="216pt" version="1.1" viewBox="0 0 72 216" width="72pt" xmlns="http://www.w3.org/2000/svg" xmlns:xlink="http://www.w3.org/1999/xlink">
 <metadata>
  <rdf:RDF xmlns:cc="http://creativecommons.org/ns#" xmlns:dc="http://purl.org/dc/elements/1.1/" xmlns:rdf="http://www.w3.org/1999/02/22-rdf-syntax-ns#">
   <cc:Work>
    <dc:type rdf:resource="http://purl.org/dc/dcmitype/StillImage"/>
    <dc:date>2021-10-13T00:15:55.245945</dc:date>
    <dc:format>image/svg+xml</dc:format>
    <dc:creator>
     <cc:Agent>
      <dc:title>Matplotlib v3.3.2, https://matplotlib.org/</dc:title>
     </cc:Agent>
    </dc:creator>
   </cc:Work>
  </rdf:RDF>
 </metadata>
 <defs>
  <style type="text/css">*{stroke-linecap:butt;stroke-linejoin:round;}</style>
 </defs>
 <g id="figure_1">
  <g id="patch_1">
   <path d="M 0 216 
L 72 216 
L 72 0 
L 0 0 
z
" style="fill:none;"/>
  </g>
  <g id="axes_1">
   <g id="patch_2">
    <path d="M 9 74.837647 
L 64.8 74.837647 
L 64.8 25.92 
L 9 25.92 
z
" style="fill:none;"/>
   </g>
   <g id="matplotlib.axis_1">
    <g id="xtick_1">
     <g id="line2d_1">
      <defs>
       <path d="M 0 0 
L 0 3.5 
" id="m83af29d971" style="stroke:#a9a9a9;stroke-width:2;"/>
      </defs>
      <g>
       <use style="fill:#a9a9a9;stroke:#a9a9a9;stroke-width:2;" x="9" xlink:href="#m83af29d971" y="74.837647"/>
      </g>
     </g>
    </g>
    <g id="xtick_2">
     <g id="line2d_2">
      <g>
       <use style="fill:#a9a9a9;stroke:#a9a9a9;stroke-width:2;" x="36.9" xlink:href="#m83af29d971" y="74.837647"/>
      </g>
     </g>
    </g>
    <g id="xtick_3">
     <g id="line2d_3">
      <g>
       <use style="fill:#a9a9a9;stroke:#a9a9a9;stroke-width:2;" x="64.8" xlink:href="#m83af29d971" y="74.837647"/>
      </g>
     </g>
    </g>
   </g>
   <g id="matplotlib.axis_2">
    <g id="ytick_1">
     <g id="line2d_4">
      <defs>
       <path d="M 0 0 
L -3.5 0 
" id="m7197cafc09" style="stroke:#a9a9a9;stroke-width:2;"/>
      </defs>
      <g>
       <use style="fill:#a9a9a9;stroke:#a9a9a9;stroke-width:2;" x="9" xlink:href="#m7197cafc09" y="74.837647"/>
      </g>
     </g>
    </g>
    <g id="ytick_2">
     <g id="line2d_5">
      <g>
       <use style="fill:#a9a9a9;stroke:#a9a9a9;stroke-width:2;" x="9" xlink:href="#m7197cafc09" y="68.396465"/>
      </g>
     </g>
    </g>
    <g id="ytick_3">
     <g id="line2d_6">
      <g>
       <use style="fill:#a9a9a9;stroke:#a9a9a9;stroke-width:2;" x="9" xlink:href="#m7197cafc09" y="61.955282"/>
      </g>
     </g>
    </g>
   </g>
   <g id="line2d_7">
    <path clip-path="url(#p2fdb3e6f15)" d="M 10.86031 67.546373 
L 11.79031 65.423005 
L 12.72031 64.183193 
L 13.65031 63.603747 
L 14.58031 62.834443 
L 15.51031 61.406241 
L 16.44031 60.709604 
L 17.37031 59.478873 
L 18.30031 58.668006 
L 19.23031 56.840036 
L 20.16031 55.696564 
L 21.09031 54.648098 
L 22.02031 53.595497 
L 22.95031 52.429218 
L 23.88031 51.872646 
L 24.81031 50.731332 
L 25.74031 50.519329 
L 26.67031 50.015519 
L 27.60031 49.393652 
L 28.53031 48.749544 
L 29.46031 48.07533 
L 30.39031 47.060685 
L 31.32031 46.389515 
L 32.25031 45.898637 
L 33.18031 45.230289 
L 34.11031 44.20357 
L 35.04031 43.371777 
L 35.97031 42.529157 
L 36.90031 42.453423 
L 37.83031 42.711502 
L 38.76031 41.670283 
L 39.69031 40.637285 
L 40.62031 39.186175 
L 41.55031 39.163259 
L 42.48031 38.33392 
L 43.41031 37.248427 
L 44.34031 36.390707 
L 45.27031 36.012318 
L 46.20031 35.085547 
L 47.13031 33.526295 
L 48.06031 33.134699 
L 48.99031 32.71299 
L 49.92031 32.031642 
L 50.85031 31.429018 
L 51.78031 30.278679 
L 52.71031 29.932371 
L 53.64031 29.51813 
L 54.57031 29.013243 
L 55.50031 28.999414 
L 56.43031 28.69161 
L 57.36031 28.517353 
L 58.29031 27.853199 
L 59.22031 27.412925 
L 60.15031 27.392278 
L 61.08031 26.804926 
L 62.01031 26.503239 
L 62.94031 26.497581 
L 63.87031 26.242059 
" style="fill:none;stroke:#fc8d62;stroke-linecap:square;stroke-width:2;"/>
   </g>
   <g id="line2d_8">
    <path clip-path="url(#p2fdb3e6f15)" d="M 10.86031 65.894578 
L 11.79031 64.167586 
L 12.72031 63.270353 
L 13.65031 61.667275 
L 14.58031 59.802566 
L 15.51031 58.676367 
L 16.44031 57.654613 
L 17.37031 55.892043 
L 18.30031 54.698712 
L 19.23031 54.18875 
L 20.16031 52.794554 
L 21.09031 51.816722 
L 22.02031 51.090875 
L 22.95031 51.373225 
L 23.88031 50.696011 
L 24.81031 49.287728 
L 25.74031 48.863133 
L 26.67031 48.351468 
L 27.60031 47.901395 
L 28.53031 46.684586 
L 29.46031 45.898716 
L 30.39031 44.806886 
L 31.32031 44.652289 
L 32.25031 43.68297 
L 33.18031 42.87332 
L 34.11031 41.766769 
L 35.04031 41.196515 
L 35.97031 41.100967 
L 36.90031 40.604982 
L 37.83031 39.776829 
L 38.76031 39.361176 
L 39.69031 39.004916 
L 40.62031 38.691527 
L 41.55031 37.910098 
L 42.48031 37.895414 
L 43.41031 38.247267 
L 44.34031 38.089925 
L 45.27031 37.242311 
L 46.20031 37.360241 
L 47.13031 37.192167 
L 48.06031 36.85062 
L 48.99031 36.296516 
L 49.92031 36.303122 
L 50.85031 35.703495 
L 51.78031 34.370378 
L 52.71031 33.490619 
L 53.64031 33.087678 
L 54.57031 32.48711 
L 55.50031 31.569365 
L 56.43031 30.969144 
L 57.36031 30.013323 
L 58.29031 29.46513 
L 59.22031 28.723507 
L 60.15031 28.829376 
L 61.08031 28.392908 
L 62.01031 27.626125 
L 62.94031 27.131784 
L 63.87031 26.758808 
" style="fill:none;stroke:#fc8d62;stroke-dasharray:1.5,1.5;stroke-dashoffset:0;stroke-opacity:0.7;stroke-width:1.5;"/>
   </g>
   <g id="patch_3">
    <path d="M 9 74.837647 
L 9 25.92 
" style="fill:none;stroke:#a9a9a9;stroke-linecap:square;stroke-linejoin:miter;stroke-width:2;"/>
   </g>
   <g id="patch_4">
    <path d="M 64.8 74.837647 
L 64.8 25.92 
" style="fill:none;"/>
   </g>
   <g id="patch_5">
    <path d="M 9 74.837647 
L 64.8 74.837647 
" style="fill:none;stroke:#a9a9a9;stroke-linecap:square;stroke-linejoin:miter;stroke-width:2;"/>
   </g>
   <g id="patch_6">
    <path d="M 9 25.92 
L 64.8 25.92 
" style="fill:none;"/>
   </g>
  </g>
  <g id="axes_2">
   <g id="patch_7">
    <path d="M 9 133.538824 
L 64.8 133.538824 
L 64.8 84.621176 
L 9 84.621176 
z
" style="fill:none;"/>
   </g>
   <g id="matplotlib.axis_3">
    <g id="xtick_4">
     <g id="line2d_9">
      <g>
       <use style="fill:#a9a9a9;stroke:#a9a9a9;stroke-width:2;" x="9" xlink:href="#m83af29d971" y="133.538824"/>
      </g>
     </g>
    </g>
    <g id="xtick_5">
     <g id="line2d_10">
      <g>
       <use style="fill:#a9a9a9;stroke:#a9a9a9;stroke-width:2;" x="36.9" xlink:href="#m83af29d971" y="133.538824"/>
      </g>
     </g>
    </g>
    <g id="xtick_6">
     <g id="line2d_11">
      <g>
       <use style="fill:#a9a9a9;stroke:#a9a9a9;stroke-width:2;" x="64.8" xlink:href="#m83af29d971" y="133.538824"/>
      </g>
     </g>
    </g>
   </g>
   <g id="matplotlib.axis_4">
    <g id="ytick_4">
     <g id="line2d_12">
      <g>
       <use style="fill:#a9a9a9;stroke:#a9a9a9;stroke-width:2;" x="9" xlink:href="#m7197cafc09" y="133.538824"/>
      </g>
     </g>
    </g>
    <g id="ytick_5">
     <g id="line2d_13">
      <g>
       <use style="fill:#a9a9a9;stroke:#a9a9a9;stroke-width:2;" x="9" xlink:href="#m7197cafc09" y="109.08"/>
      </g>
     </g>
    </g>
    <g id="ytick_6">
     <g id="line2d_14">
      <g>
       <use style="fill:#a9a9a9;stroke:#a9a9a9;stroke-width:2;" x="9" xlink:href="#m7197cafc09" y="84.621176"/>
      </g>
     </g>
    </g>
   </g>
   <g id="line2d_15">
    <path clip-path="url(#p8e68e3b36a)" d="M 10.86031 99.64894 
L 11.79031 97.772451 
L 12.72031 96.955439 
L 13.65031 96.400166 
L 14.58031 95.856676 
L 15.51031 95.207474 
L 16.44031 95.006575 
L 17.37031 94.745316 
L 18.30031 94.613311 
L 19.23031 94.339371 
L 20.16031 94.213667 
L 21.09031 94.113145 
L 22.02031 93.981309 
L 22.95031 93.904435 
L 23.88031 93.878339 
L 24.81031 93.821938 
L 25.74031 93.816501 
L 26.67031 93.765576 
L 27.60031 93.689555 
L 28.53031 93.654966 
L 29.46031 93.642528 
L 30.39031 93.625687 
L 31.32031 93.579719 
L 32.25031 93.582246 
L 33.18031 93.556714 
L 34.11031 93.510568 
L 35.04031 93.52192 
L 35.97031 93.49737 
L 36.90031 93.490008 
L 37.83031 93.510102 
L 38.76031 93.474236 
L 39.69031 93.416081 
L 40.62031 93.382954 
L 41.55031 93.361168 
L 42.48031 93.38428 
L 43.41031 93.377385 
L 44.34031 93.364309 
L 45.27031 93.333483 
L 46.20031 93.339272 
L 47.13031 93.328689 
L 48.06031 93.318365 
L 48.99031 93.312537 
L 49.92031 93.298211 
L 50.85031 93.297542 
L 51.78031 93.298663 
L 52.71031 93.289033 
L 53.64031 93.267762 
L 54.57031 93.252261 
L 55.50031 93.285262 
L 56.43031 93.297527 
L 57.36031 93.282331 
L 58.29031 93.2816 
L 59.22031 93.280069 
L 60.15031 93.273747 
L 61.08031 93.265757 
L 62.01031 93.245683 
L 62.94031 93.239928 
L 63.87031 93.218102 
" style="fill:none;stroke:#fc8d62;stroke-linecap:square;stroke-width:2;"/>
   </g>
   <g id="line2d_16">
    <path clip-path="url(#p8e68e3b36a)" d="M 10.86031 101.259727 
L 11.79031 99.716259 
L 12.72031 98.968807 
L 13.65031 98.481882 
L 14.58031 97.980917 
L 15.51031 97.796425 
L 16.44031 97.647343 
L 17.37031 97.458862 
L 18.30031 97.344554 
L 19.23031 97.413989 
L 20.16031 97.224903 
L 21.09031 97.061627 
L 22.02031 97.059999 
L 22.95031 97.016385 
L 23.88031 97.043261 
L 24.81031 97.010658 
L 25.74031 96.961358 
L 26.67031 96.98968 
L 27.60031 96.976863 
L 28.53031 96.988429 
L 29.46031 96.970224 
L 30.39031 96.947682 
L 31.32031 96.937677 
L 32.25031 96.932394 
L 33.18031 96.874122 
L 34.11031 96.818054 
L 35.04031 96.802087 
L 35.97031 96.778511 
L 36.90031 96.760492 
L 37.83031 96.753765 
L 38.76031 96.695831 
L 39.69031 96.697049 
L 40.62031 96.704396 
L 41.55031 96.693788 
L 42.48031 96.691316 
L 43.41031 96.684751 
L 44.34031 96.698319 
L 45.27031 96.674539 
L 46.20031 96.683965 
L 47.13031 96.663854 
L 48.06031 96.67637 
L 48.99031 96.671519 
L 49.92031 96.650808 
L 50.85031 96.61604 
L 51.78031 96.60765 
L 52.71031 96.587193 
L 53.64031 96.580779 
L 54.57031 96.578706 
L 55.50031 96.567834 
L 56.43031 96.564561 
L 57.36031 96.568621 
L 58.29031 96.566969 
L 59.22031 96.550571 
L 60.15031 96.556673 
L 61.08031 96.561226 
L 62.01031 96.550481 
L 62.94031 96.552567 
L 63.87031 96.554903 
" style="fill:none;stroke:#fc8d62;stroke-dasharray:1.5,1.5;stroke-dashoffset:0;stroke-opacity:0.7;stroke-width:1.5;"/>
   </g>
   <g id="patch_8">
    <path d="M 9 133.538824 
L 9 84.621176 
" style="fill:none;stroke:#a9a9a9;stroke-linecap:square;stroke-linejoin:miter;stroke-width:2;"/>
   </g>
   <g id="patch_9">
    <path d="M 64.8 133.538824 
L 64.8 84.621176 
" style="fill:none;"/>
   </g>
   <g id="patch_10">
    <path d="M 9 133.538824 
L 64.8 133.538824 
" style="fill:none;stroke:#a9a9a9;stroke-linecap:square;stroke-linejoin:miter;stroke-width:2;"/>
   </g>
   <g id="patch_11">
    <path d="M 9 84.621176 
L 64.8 84.621176 
" style="fill:none;"/>
   </g>
  </g>
  <g id="axes_3">
   <g id="patch_12">
    <path d="M 9 192.24 
L 64.8 192.24 
L 64.8 143.322353 
L 9 143.322353 
z
" style="fill:none;"/>
   </g>
   <g id="matplotlib.axis_5">
    <g id="xtick_7">
     <g id="line2d_17">
      <g>
       <use style="fill:#a9a9a9;stroke:#a9a9a9;stroke-width:2;" x="9" xlink:href="#m83af29d971" y="148.729242"/>
      </g>
     </g>
    </g>
    <g id="xtick_8">
     <g id="line2d_18">
      <g>
       <use style="fill:#a9a9a9;stroke:#a9a9a9;stroke-width:2;" x="36.9" xlink:href="#m83af29d971" y="148.729242"/>
      </g>
     </g>
    </g>
    <g id="xtick_9">
     <g id="line2d_19">
      <g>
       <use style="fill:#a9a9a9;stroke:#a9a9a9;stroke-width:2;" x="64.8" xlink:href="#m83af29d971" y="148.729242"/>
      </g>
     </g>
    </g>
   </g>
   <g id="matplotlib.axis_6">
    <g id="ytick_7">
     <g id="line2d_20">
      <g>
       <use style="fill:#a9a9a9;stroke:#a9a9a9;stroke-width:2;" x="9" xlink:href="#m7197cafc09" y="148.729242"/>
      </g>
     </g>
    </g>
    <g id="ytick_8">
     <g id="line2d_21">
      <g>
       <use style="fill:#a9a9a9;stroke:#a9a9a9;stroke-width:2;" x="9" xlink:href="#m7197cafc09" y="177.736414"/>
      </g>
     </g>
    </g>
   </g>
   <g id="line2d_22">
    <path clip-path="url(#p6645e8c3e3)" d="M 10.86031 144.336112 
L 11.79031 143.322353 
L 12.72031 143.614402 
L 13.65031 144.089307 
L 14.58031 143.763528 
L 15.51031 144.087691 
L 16.44031 144.873671 
L 17.37031 144.886266 
L 18.30031 145.307598 
L 19.23031 144.86532 
L 20.16031 144.673867 
L 21.09031 144.3754 
L 22.02031 144.827937 
L 22.95031 144.93459 
L 23.88031 145.298392 
L 24.81031 144.769977 
L 25.74031 144.874254 
L 26.67031 144.833114 
L 27.60031 144.759004 
L 28.53031 144.811578 
L 29.46031 145.140905 
L 30.39031 145.19744 
L 31.32031 145.283663 
L 32.25031 145.467244 
L 33.18031 145.298296 
L 34.11031 145.196828 
L 35.04031 145.252087 
L 35.97031 145.239512 
L 36.90031 145.106601 
L 37.83031 145.278656 
L 38.76031 145.508579 
L 39.69031 145.50881 
L 40.62031 145.564999 
L 41.55031 145.522576 
L 42.48031 145.857278 
L 43.41031 145.952866 
L 44.34031 146.051691 
L 45.27031 146.118173 
L 46.20031 145.976762 
L 47.13031 146.116898 
L 48.06031 146.004634 
L 48.99031 146.012151 
L 49.92031 146.005946 
L 50.85031 145.969247 
L 51.78031 145.985686 
L 52.71031 145.955697 
L 53.64031 145.98446 
L 54.57031 146.024637 
L 55.50031 145.964221 
L 56.43031 146.089222 
L 57.36031 145.995892 
L 58.29031 146.050054 
L 59.22031 146.064573 
L 60.15031 146.179519 
L 61.08031 146.290252 
L 62.01031 146.235348 
L 62.94031 146.213764 
L 63.87031 146.149194 
" style="fill:none;stroke:#fc8d62;stroke-linecap:square;stroke-width:2;"/>
   </g>
   <g id="line2d_23">
    <path clip-path="url(#p6645e8c3e3)" d="M 10.86031 148.72924 
L 11.79031 148.920911 
L 12.72031 148.729913 
L 13.65031 148.729127 
L 14.58031 148.7291 
L 15.51031 148.729455 
L 16.44031 148.75941 
L 17.37031 148.73661 
L 18.30031 148.753279 
L 19.23031 148.756133 
L 20.16031 148.743226 
L 21.09031 148.730876 
L 22.02031 148.728715 
L 22.95031 148.729243 
L 23.88031 148.729655 
L 24.81031 148.729542 
L 25.74031 148.729128 
L 26.67031 148.729596 
L 27.60031 148.729229 
L 28.53031 148.730434 
L 29.46031 148.731741 
L 30.39031 148.729159 
L 31.32031 148.729242 
L 32.25031 148.738337 
L 33.18031 148.729485 
L 34.11031 148.730305 
L 35.04031 148.729618 
L 35.97031 148.732694 
L 36.90031 148.730237 
L 37.83031 148.735181 
L 38.76031 148.729063 
L 39.69031 148.731416 
L 40.62031 148.729569 
L 41.55031 148.731423 
L 42.48031 148.729185 
L 43.41031 148.729224 
L 44.34031 148.729304 
L 45.27031 148.729097 
L 46.20031 148.729237 
L 47.13031 148.729339 
L 48.06031 148.729241 
L 48.99031 148.728996 
L 49.92031 148.729239 
L 50.85031 148.72936 
L 51.78031 148.729332 
L 52.71031 148.729256 
L 53.64031 148.729408 
L 54.57031 148.729247 
L 55.50031 148.729245 
L 56.43031 148.729242 
L 57.36031 148.729231 
L 58.29031 148.729124 
L 59.22031 148.729166 
L 60.15031 148.728528 
L 61.08031 148.728861 
L 62.01031 148.728248 
L 62.94031 148.728255 
L 63.87031 148.729242 
" style="fill:none;stroke:#fc8d62;stroke-dasharray:1.5,1.5;stroke-dashoffset:0;stroke-opacity:0.7;stroke-width:1.5;"/>
   </g>
   <g id="line2d_24">
    <path clip-path="url(#p6645e8c3e3)" d="M 9 177.736414 
L 64.8 177.736414 
" style="fill:none;stroke:#66c2a5;stroke-dasharray:1.5,1.5;stroke-dashoffset:0;stroke-opacity:0.7;stroke-width:1.5;"/>
   </g>
   <g id="patch_13">
    <path d="M 9 192.24 
L 9 143.322353 
" style="fill:none;stroke:#a9a9a9;stroke-linecap:square;stroke-linejoin:miter;stroke-width:2;"/>
   </g>
   <g id="patch_14">
    <path d="M 64.8 192.24 
L 64.8 143.322353 
" style="fill:none;"/>
   </g>
   <g id="patch_15">
    <path d="M 9 148.729242 
L 64.8 148.729242 
" style="fill:none;stroke:#a9a9a9;stroke-linecap:square;stroke-linejoin:miter;stroke-width:2;"/>
   </g>
   <g id="patch_16">
    <path d="M 9 143.322353 
L 64.8 143.322353 
" style="fill:none;"/>
   </g>
  </g>
 </g>
 <defs>
  <clipPath id="p2fdb3e6f15">
   <rect height="48.917647" width="55.8" x="9" y="25.92"/>
  </clipPath>
  <clipPath id="p8e68e3b36a">
   <rect height="48.917647" width="55.8" x="9" y="84.621176"/>
  </clipPath>
  <clipPath id="p6645e8c3e3">
   <rect height="48.917647" width="55.8" x="9" y="143.322353"/>
  </clipPath>
 </defs>
</svg>
