<?xml version="1.0" encoding="utf-8" standalone="no"?>
<!DOCTYPE svg PUBLIC "-//W3C//DTD SVG 1.1//EN"
  "http://www.w3.org/Graphics/SVG/1.1/DTD/svg11.dtd">
<!-- Created with matplotlib (https://matplotlib.org/) -->
<svg height="144pt" version="1.1" viewBox="0 0 72 144" width="72pt" xmlns="http://www.w3.org/2000/svg" xmlns:xlink="http://www.w3.org/1999/xlink">
 <metadata>
  <rdf:RDF xmlns:cc="http://creativecommons.org/ns#" xmlns:dc="http://purl.org/dc/elements/1.1/" xmlns:rdf="http://www.w3.org/1999/02/22-rdf-syntax-ns#">
   <cc:Work>
    <dc:type rdf:resource="http://purl.org/dc/dcmitype/StillImage"/>
    <dc:date>2021-10-12T18:50:40.034926</dc:date>
    <dc:format>image/svg+xml</dc:format>
    <dc:creator>
     <cc:Agent>
      <dc:title>Matplotlib v3.3.2, https://matplotlib.org/</dc:title>
     </cc:Agent>
    </dc:creator>
   </cc:Work>
  </rdf:RDF>
 </metadata>
 <defs>
  <style type="text/css">*{stroke-linecap:butt;stroke-linejoin:round;}</style>
 </defs>
 <g id="figure_1">
  <g id="patch_1">
   <path d="M 0 144 
L 72 144 
L 72 0 
L 0 0 
z
" style="fill:none;"/>
  </g>
  <g id="axes_1">
   <g id="patch_2">
    <path d="M 9 67.68 
L 64.8 67.68 
L 64.8 17.28 
L 9 17.28 
z
" style="fill:none;"/>
   </g>
   <g id="matplotlib.axis_1">
    <g id="xtick_1">
     <g id="line2d_1">
      <defs>
       <path d="M 0 0 
L 0 3.5 
" id="m9a1776bf4d" style="stroke:#a9a9a9;stroke-width:2;"/>
      </defs>
      <g>
       <use style="fill:#a9a9a9;stroke:#a9a9a9;stroke-width:2;" x="9" xlink:href="#m9a1776bf4d" y="67.68"/>
      </g>
     </g>
    </g>
    <g id="xtick_2">
     <g id="line2d_2">
      <g>
       <use style="fill:#a9a9a9;stroke:#a9a9a9;stroke-width:2;" x="36.9" xlink:href="#m9a1776bf4d" y="67.68"/>
      </g>
     </g>
    </g>
    <g id="xtick_3">
     <g id="line2d_3">
      <g>
       <use style="fill:#a9a9a9;stroke:#a9a9a9;stroke-width:2;" x="64.8" xlink:href="#m9a1776bf4d" y="67.68"/>
      </g>
     </g>
    </g>
   </g>
   <g id="matplotlib.axis_2">
    <g id="ytick_1">
     <g id="line2d_4">
      <defs>
       <path d="M 0 0 
L -3.5 0 
" id="ma237078868" style="stroke:#a9a9a9;stroke-width:2;"/>
      </defs>
      <g>
       <use style="fill:#a9a9a9;stroke:#a9a9a9;stroke-width:2;" x="9" xlink:href="#ma237078868" y="67.68"/>
      </g>
     </g>
    </g>
    <g id="ytick_2">
     <g id="line2d_5">
      <g>
       <use style="fill:#a9a9a9;stroke:#a9a9a9;stroke-width:2;" x="9" xlink:href="#ma237078868" y="65.226036"/>
      </g>
     </g>
    </g>
    <g id="ytick_3">
     <g id="line2d_6">
      <g>
       <use style="fill:#a9a9a9;stroke:#a9a9a9;stroke-width:2;" x="9" xlink:href="#ma237078868" y="62.772071"/>
      </g>
     </g>
    </g>
   </g>
   <g id="line2d_7">
    <path clip-path="url(#pbbb3355119)" d="M 10.86031 60.082993 
L 11.79031 58.931185 
L 12.72031 57.894058 
L 13.65031 57.386933 
L 14.58031 56.53072 
L 15.51031 56.161716 
L 16.44031 55.125475 
L 17.37031 54.110354 
L 18.30031 52.835384 
L 19.23031 51.604617 
L 20.16031 50.143729 
L 21.09031 48.735322 
L 22.02031 47.325257 
L 22.95031 45.328807 
L 23.88031 45.025331 
L 24.81031 42.436357 
L 25.74031 41.114533 
L 26.67031 39.786226 
L 27.60031 38.19697 
L 28.53031 36.485086 
L 29.46031 35.232923 
L 30.39031 34.949304 
L 31.32031 33.903704 
L 32.25031 32.944679 
L 33.18031 32.881358 
L 34.11031 33.858945 
L 35.04031 34.288097 
L 35.97031 33.3165 
L 36.90031 33.249742 
L 37.83031 34.303007 
L 38.76031 34.311572 
L 39.69031 34.010976 
L 40.62031 33.872562 
L 41.55031 33.86887 
L 42.48031 33.622524 
L 43.41031 32.944366 
L 44.34031 33.097624 
L 45.27031 32.771999 
L 46.20031 31.349484 
L 47.13031 30.061666 
L 48.06031 28.979065 
L 48.99031 28.918458 
L 49.92031 26.36542 
L 50.85031 25.293717 
L 51.78031 22.795167 
L 52.71031 21.543201 
L 53.64031 19.503483 
L 54.57031 19.034645 
L 55.50031 17.402698 
L 56.43031 17.432073 
L 57.36031 18.659574 
L 58.29031 19.872543 
L 59.22031 20.323933 
L 60.15031 19.86857 
L 61.08031 20.654166 
L 62.01031 21.256479 
L 62.94031 22.310909 
L 63.87031 22.119363 
" style="fill:none;stroke:#fc8d62;stroke-linecap:square;stroke-width:2;"/>
   </g>
   <g id="line2d_8">
    <path clip-path="url(#pbbb3355119)" d="M 10.86031 60.311251 
L 11.79031 59.303024 
L 12.72031 57.767905 
L 13.65031 56.4201 
L 14.58031 55.330654 
L 15.51031 53.940562 
L 16.44031 53.24527 
L 17.37031 52.329605 
L 18.30031 50.920603 
L 19.23031 49.855287 
L 20.16031 49.641819 
L 21.09031 48.958735 
L 22.02031 47.345728 
L 22.95031 45.755026 
L 23.88031 43.528223 
L 24.81031 41.61893 
L 25.74031 39.07931 
L 26.67031 37.246437 
L 27.60031 36.551277 
L 28.53031 35.067679 
L 29.46031 34.303416 
L 30.39031 32.729012 
L 31.32031 30.903095 
L 32.25031 31.99685 
L 33.18031 30.647691 
L 34.11031 32.081555 
L 35.04031 32.699934 
L 35.97031 32.829858 
L 36.90031 31.727704 
L 37.83031 30.830443 
L 38.76031 29.140755 
L 39.69031 29.199745 
L 40.62031 28.224081 
L 41.55031 28.621878 
L 42.48031 27.495953 
L 43.41031 28.829086 
L 44.34031 28.966387 
L 45.27031 28.481223 
L 46.20031 27.881637 
L 47.13031 27.424302 
L 48.06031 24.830252 
L 48.99031 21.919124 
L 49.92031 19.314936 
L 50.85031 18.524277 
L 51.78031 16.335745 
L 52.71031 15.84415 
L 53.64031 15.607551 
L 54.57031 15.399403 
L 55.50031 14.199724 
L 56.43031 15.576096 
L 57.36031 18.382973 
L 58.29031 16.919376 
L 59.22031 17.078464 
L 60.15031 14.978161 
L 61.08031 13.777644 
L 62.01031 12.592455 
L 62.94031 12.729977 
L 63.87031 14.423108 
" style="fill:none;stroke:#fc8d62;stroke-dasharray:1.5,1.5;stroke-dashoffset:0;stroke-opacity:0.7;stroke-width:1.5;"/>
   </g>
   <g id="patch_3">
    <path d="M 9 67.68 
L 9 17.28 
" style="fill:none;stroke:#a9a9a9;stroke-linecap:square;stroke-linejoin:miter;stroke-width:2;"/>
   </g>
   <g id="patch_4">
    <path d="M 64.8 67.68 
L 64.8 17.28 
" style="fill:none;"/>
   </g>
   <g id="patch_5">
    <path d="M 9 67.68 
L 64.8 67.68 
" style="fill:none;stroke:#a9a9a9;stroke-linecap:square;stroke-linejoin:miter;stroke-width:2;"/>
   </g>
   <g id="patch_6">
    <path d="M 9 17.28 
L 64.8 17.28 
" style="fill:none;"/>
   </g>
  </g>
  <g id="axes_2">
   <g id="patch_7">
    <path d="M 9 128.16 
L 64.8 128.16 
L 64.8 77.76 
L 9 77.76 
z
" style="fill:none;"/>
   </g>
   <g id="matplotlib.axis_3">
    <g id="xtick_4">
     <g id="line2d_9">
      <g>
       <use style="fill:#a9a9a9;stroke:#a9a9a9;stroke-width:2;" x="9" xlink:href="#m9a1776bf4d" y="128.16"/>
      </g>
     </g>
    </g>
    <g id="xtick_5">
     <g id="line2d_10">
      <g>
       <use style="fill:#a9a9a9;stroke:#a9a9a9;stroke-width:2;" x="36.9" xlink:href="#m9a1776bf4d" y="128.16"/>
      </g>
     </g>
    </g>
    <g id="xtick_6">
     <g id="line2d_11">
      <g>
       <use style="fill:#a9a9a9;stroke:#a9a9a9;stroke-width:2;" x="64.8" xlink:href="#m9a1776bf4d" y="128.16"/>
      </g>
     </g>
    </g>
   </g>
   <g id="matplotlib.axis_4">
    <g id="ytick_4">
     <g id="line2d_12">
      <g>
       <use style="fill:#a9a9a9;stroke:#a9a9a9;stroke-width:2;" x="9" xlink:href="#ma237078868" y="128.16"/>
      </g>
     </g>
    </g>
    <g id="ytick_5">
     <g id="line2d_13">
      <g>
       <use style="fill:#a9a9a9;stroke:#a9a9a9;stroke-width:2;" x="9" xlink:href="#ma237078868" y="102.96"/>
      </g>
     </g>
    </g>
    <g id="ytick_6">
     <g id="line2d_14">
      <g>
       <use style="fill:#a9a9a9;stroke:#a9a9a9;stroke-width:2;" x="9" xlink:href="#ma237078868" y="77.76"/>
      </g>
     </g>
    </g>
   </g>
   <g id="line2d_15">
    <path clip-path="url(#pefb0113eb7)" d="M 10.86031 89.926684 
L 11.79031 89.679137 
L 12.72031 89.438308 
L 13.65031 89.302327 
L 14.58031 89.243828 
L 15.51031 89.203216 
L 16.44031 89.139017 
L 17.37031 89.08384 
L 18.30031 89.036043 
L 19.23031 89.042324 
L 20.16031 89.038749 
L 21.09031 89.033958 
L 22.02031 89.035131 
L 22.95031 89.016898 
L 23.88031 89.01749 
L 24.81031 88.992154 
L 25.74031 88.98896 
L 26.67031 88.983356 
L 27.60031 88.977226 
L 28.53031 88.971677 
L 29.46031 88.962416 
L 30.39031 88.963099 
L 31.32031 88.966037 
L 32.25031 88.965147 
L 33.18031 88.959547 
L 34.11031 88.954836 
L 35.04031 88.960106 
L 35.97031 88.952756 
L 36.90031 88.947415 
L 37.83031 88.940744 
L 38.76031 88.93538 
L 39.69031 88.943817 
L 40.62031 88.94171 
L 41.55031 88.938649 
L 42.48031 88.94615 
L 43.41031 88.940627 
L 44.34031 88.94448 
L 45.27031 88.950134 
L 46.20031 88.948347 
L 47.13031 88.946072 
L 48.06031 88.948335 
L 48.99031 88.952054 
L 49.92031 88.949978 
L 50.85031 88.948303 
L 51.78031 88.943124 
L 52.71031 88.939032 
L 53.64031 88.937663 
L 54.57031 88.937416 
L 55.50031 88.935198 
L 56.43031 88.93336 
L 57.36031 88.93422 
L 58.29031 88.931434 
L 59.22031 88.930007 
L 60.15031 88.928197 
L 61.08031 88.929396 
L 62.01031 88.932092 
L 62.94031 88.930792 
L 63.87031 88.929148 
" style="fill:none;stroke:#fc8d62;stroke-linecap:square;stroke-width:2;"/>
   </g>
   <g id="line2d_16">
    <path clip-path="url(#pefb0113eb7)" d="M 10.86031 91.785203 
L 11.79031 91.516504 
L 12.72031 91.219732 
L 13.65031 91.125572 
L 14.58031 91.029437 
L 15.51031 90.966661 
L 16.44031 90.926951 
L 17.37031 90.886373 
L 18.30031 90.859511 
L 19.23031 90.862828 
L 20.16031 90.874718 
L 21.09031 90.854801 
L 22.02031 90.845987 
L 22.95031 90.839955 
L 23.88031 90.847461 
L 24.81031 90.842148 
L 25.74031 90.833925 
L 26.67031 90.827776 
L 27.60031 90.832415 
L 28.53031 90.828242 
L 29.46031 90.818469 
L 30.39031 90.820235 
L 31.32031 90.812947 
L 32.25031 90.821145 
L 33.18031 90.814652 
L 34.11031 90.815393 
L 35.04031 90.806603 
L 35.97031 90.804684 
L 36.90031 90.802414 
L 37.83031 90.795496 
L 38.76031 90.784169 
L 39.69031 90.778797 
L 40.62031 90.780138 
L 41.55031 90.781815 
L 42.48031 90.786703 
L 43.41031 90.79745 
L 44.34031 90.801112 
L 45.27031 90.803621 
L 46.20031 90.800899 
L 47.13031 90.802865 
L 48.06031 90.803325 
L 48.99031 90.803474 
L 49.92031 90.80187 
L 50.85031 90.799966 
L 51.78031 90.796074 
L 52.71031 90.795491 
L 53.64031 90.797178 
L 54.57031 90.788871 
L 55.50031 90.785322 
L 56.43031 90.786115 
L 57.36031 90.784816 
L 58.29031 90.781169 
L 59.22031 90.78214 
L 60.15031 90.777004 
L 61.08031 90.772412 
L 62.01031 90.771966 
L 62.94031 90.772454 
L 63.87031 90.77363 
" style="fill:none;stroke:#fc8d62;stroke-dasharray:1.5,1.5;stroke-dashoffset:0;stroke-opacity:0.7;stroke-width:1.5;"/>
   </g>
   <g id="patch_8">
    <path d="M 9 128.16 
L 9 77.76 
" style="fill:none;stroke:#a9a9a9;stroke-linecap:square;stroke-linejoin:miter;stroke-width:2;"/>
   </g>
   <g id="patch_9">
    <path d="M 64.8 128.16 
L 64.8 77.76 
" style="fill:none;"/>
   </g>
   <g id="patch_10">
    <path d="M 9 128.16 
L 64.8 128.16 
" style="fill:none;stroke:#a9a9a9;stroke-linecap:square;stroke-linejoin:miter;stroke-width:2;"/>
   </g>
   <g id="patch_11">
    <path d="M 9 77.76 
L 64.8 77.76 
" style="fill:none;"/>
   </g>
  </g>
 </g>
 <defs>
  <clipPath id="pbbb3355119">
   <rect height="50.4" width="55.8" x="9" y="17.28"/>
  </clipPath>
  <clipPath id="pefb0113eb7">
   <rect height="50.4" width="55.8" x="9" y="77.76"/>
  </clipPath>
 </defs>
</svg>
