<?xml version="1.0" encoding="utf-8" standalone="no"?>
<!DOCTYPE svg PUBLIC "-//W3C//DTD SVG 1.1//EN"
  "http://www.w3.org/Graphics/SVG/1.1/DTD/svg11.dtd">
<!-- Created with matplotlib (https://matplotlib.org/) -->
<svg height="144pt" version="1.1" viewBox="0 0 72 144" width="72pt" xmlns="http://www.w3.org/2000/svg" xmlns:xlink="http://www.w3.org/1999/xlink">
 <metadata>
  <rdf:RDF xmlns:cc="http://creativecommons.org/ns#" xmlns:dc="http://purl.org/dc/elements/1.1/" xmlns:rdf="http://www.w3.org/1999/02/22-rdf-syntax-ns#">
   <cc:Work>
    <dc:type rdf:resource="http://purl.org/dc/dcmitype/StillImage"/>
    <dc:date>2021-10-13T14:30:51.929173</dc:date>
    <dc:format>image/svg+xml</dc:format>
    <dc:creator>
     <cc:Agent>
      <dc:title>Matplotlib v3.3.2, https://matplotlib.org/</dc:title>
     </cc:Agent>
    </dc:creator>
   </cc:Work>
  </rdf:RDF>
 </metadata>
 <defs>
  <style type="text/css">*{stroke-linecap:butt;stroke-linejoin:round;}</style>
 </defs>
 <g id="figure_1">
  <g id="patch_1">
   <path d="M 0 144 
L 72 144 
L 72 0 
L 0 0 
z
" style="fill:none;"/>
  </g>
  <g id="axes_1">
   <g id="patch_2">
    <path d="M 9 67.68 
L 64.8 67.68 
L 64.8 17.28 
L 9 17.28 
z
" style="fill:none;"/>
   </g>
   <g id="matplotlib.axis_1">
    <g id="xtick_1">
     <g id="line2d_1">
      <defs>
       <path d="M 0 0 
L 0 3.5 
" id="m7b9ff6af3f" style="stroke:#a9a9a9;stroke-width:2;"/>
      </defs>
      <g>
       <use style="fill:#a9a9a9;stroke:#a9a9a9;stroke-width:2;" x="9" xlink:href="#m7b9ff6af3f" y="67.68"/>
      </g>
     </g>
    </g>
    <g id="xtick_2">
     <g id="line2d_2">
      <g>
       <use style="fill:#a9a9a9;stroke:#a9a9a9;stroke-width:2;" x="36.9" xlink:href="#m7b9ff6af3f" y="67.68"/>
      </g>
     </g>
    </g>
    <g id="xtick_3">
     <g id="line2d_3">
      <g>
       <use style="fill:#a9a9a9;stroke:#a9a9a9;stroke-width:2;" x="64.8" xlink:href="#m7b9ff6af3f" y="67.68"/>
      </g>
     </g>
    </g>
   </g>
   <g id="matplotlib.axis_2">
    <g id="ytick_1">
     <g id="line2d_4">
      <defs>
       <path d="M 0 0 
L -3.5 0 
" id="mf4b67c18b3" style="stroke:#a9a9a9;stroke-width:2;"/>
      </defs>
      <g>
       <use style="fill:#a9a9a9;stroke:#a9a9a9;stroke-width:2;" x="9" xlink:href="#mf4b67c18b3" y="67.68"/>
      </g>
     </g>
    </g>
    <g id="ytick_2">
     <g id="line2d_5">
      <g>
       <use style="fill:#a9a9a9;stroke:#a9a9a9;stroke-width:2;" x="9" xlink:href="#mf4b67c18b3" y="62.896324"/>
      </g>
     </g>
    </g>
    <g id="ytick_3">
     <g id="line2d_6">
      <g>
       <use style="fill:#a9a9a9;stroke:#a9a9a9;stroke-width:2;" x="9" xlink:href="#mf4b67c18b3" y="58.112649"/>
      </g>
     </g>
    </g>
   </g>
   <g id="line2d_7">
    <path clip-path="url(#pd5865792d5)" d="M 10.86031 58.41989 
L 11.79031 57.027163 
L 12.72031 56.783041 
L 13.65031 55.024304 
L 14.58031 54.195674 
L 15.51031 53.427158 
L 16.44031 52.726164 
L 17.37031 51.511778 
L 18.30031 50.376591 
L 19.23031 49.316157 
L 20.16031 48.664508 
L 21.09031 47.229765 
L 22.02031 46.152458 
L 22.95031 45.136945 
L 23.88031 42.93573 
L 24.81031 42.000891 
L 25.74031 41.506111 
L 26.67031 40.105496 
L 27.60031 39.24108 
L 28.53031 38.375451 
L 29.46031 37.896548 
L 30.39031 37.43382 
L 31.32031 36.780585 
L 32.25031 35.619114 
L 33.18031 35.294936 
L 34.11031 33.997686 
L 35.04031 33.543972 
L 35.97031 32.839277 
L 36.90031 32.649139 
L 37.83031 31.597626 
L 38.76031 31.155568 
L 39.69031 30.772519 
L 40.62031 30.479941 
L 41.55031 30.148177 
L 42.48031 28.936609 
L 43.41031 28.299014 
L 44.34031 27.47136 
L 45.27031 26.547678 
L 46.20031 26.000582 
L 47.13031 25.945937 
L 48.06031 25.277363 
L 48.99031 24.455887 
L 49.92031 24.089445 
L 50.85031 23.851092 
L 51.78031 23.380274 
L 52.71031 22.52369 
L 53.64031 22.189501 
L 54.57031 21.44477 
L 55.50031 20.690055 
L 56.43031 19.737092 
L 57.36031 19.70701 
L 58.29031 18.450747 
L 59.22031 17.992866 
L 60.15031 17.953905 
L 61.08031 17.70169 
L 62.01031 17.625377 
L 62.94031 17.961863 
L 63.87031 17.519184 
" style="fill:none;stroke:#fc8d62;stroke-linecap:square;stroke-width:2;"/>
   </g>
   <g id="line2d_8">
    <path clip-path="url(#pd5865792d5)" d="M 10.86031 59.30593 
L 11.79031 57.654553 
L 12.72031 56.13079 
L 13.65031 54.357799 
L 14.58031 53.449235 
L 15.51031 52.198273 
L 16.44031 51.533022 
L 17.37031 50.630601 
L 18.30031 49.848861 
L 19.23031 48.841945 
L 20.16031 48.420705 
L 21.09031 47.460525 
L 22.02031 46.814428 
L 22.95031 46.088603 
L 23.88031 45.853338 
L 24.81031 45.256537 
L 25.74031 44.673394 
L 26.67031 43.005741 
L 27.60031 41.802355 
L 28.53031 40.905289 
L 29.46031 40.355106 
L 30.39031 39.945363 
L 31.32031 39.2057 
L 32.25031 38.74123 
L 33.18031 38.060064 
L 34.11031 37.26774 
L 35.04031 37.108016 
L 35.97031 36.808992 
L 36.90031 35.810371 
L 37.83031 35.370231 
L 38.76031 34.779891 
L 39.69031 34.609041 
L 40.62031 34.050416 
L 41.55031 33.468288 
L 42.48031 33.401364 
L 43.41031 32.864451 
L 44.34031 32.006404 
L 45.27031 31.35656 
L 46.20031 30.272954 
L 47.13031 29.925875 
L 48.06031 29.689007 
L 48.99031 29.030036 
L 49.92031 28.788131 
L 50.85031 27.853113 
L 51.78031 27.616894 
L 52.71031 27.574225 
L 53.64031 27.410645 
L 54.57031 27.408675 
L 55.50031 27.342769 
L 56.43031 26.300258 
L 57.36031 25.897228 
L 58.29031 24.818003 
L 59.22031 23.837771 
L 60.15031 23.13134 
L 61.08031 22.389486 
L 62.01031 22.123482 
L 62.94031 21.479215 
L 63.87031 21.178559 
" style="fill:none;stroke:#fc8d62;stroke-dasharray:1.5,1.5;stroke-dashoffset:0;stroke-opacity:0.7;stroke-width:1.5;"/>
   </g>
   <g id="patch_3">
    <path d="M 9 67.68 
L 9 17.28 
" style="fill:none;stroke:#a9a9a9;stroke-linecap:square;stroke-linejoin:miter;stroke-width:2;"/>
   </g>
   <g id="patch_4">
    <path d="M 64.8 67.68 
L 64.8 17.28 
" style="fill:none;"/>
   </g>
   <g id="patch_5">
    <path d="M 9 67.68 
L 64.8 67.68 
" style="fill:none;stroke:#a9a9a9;stroke-linecap:square;stroke-linejoin:miter;stroke-width:2;"/>
   </g>
   <g id="patch_6">
    <path d="M 9 17.28 
L 64.8 17.28 
" style="fill:none;"/>
   </g>
  </g>
  <g id="axes_2">
   <g id="patch_7">
    <path d="M 9 128.16 
L 64.8 128.16 
L 64.8 77.76 
L 9 77.76 
z
" style="fill:none;"/>
   </g>
   <g id="matplotlib.axis_3">
    <g id="xtick_4">
     <g id="line2d_9">
      <g>
       <use style="fill:#a9a9a9;stroke:#a9a9a9;stroke-width:2;" x="9" xlink:href="#m7b9ff6af3f" y="128.16"/>
      </g>
     </g>
    </g>
    <g id="xtick_5">
     <g id="line2d_10">
      <g>
       <use style="fill:#a9a9a9;stroke:#a9a9a9;stroke-width:2;" x="36.9" xlink:href="#m7b9ff6af3f" y="128.16"/>
      </g>
     </g>
    </g>
    <g id="xtick_6">
     <g id="line2d_11">
      <g>
       <use style="fill:#a9a9a9;stroke:#a9a9a9;stroke-width:2;" x="64.8" xlink:href="#m7b9ff6af3f" y="128.16"/>
      </g>
     </g>
    </g>
   </g>
   <g id="matplotlib.axis_4">
    <g id="ytick_4">
     <g id="line2d_12">
      <g>
       <use style="fill:#a9a9a9;stroke:#a9a9a9;stroke-width:2;" x="9" xlink:href="#mf4b67c18b3" y="128.16"/>
      </g>
     </g>
    </g>
    <g id="ytick_5">
     <g id="line2d_13">
      <g>
       <use style="fill:#a9a9a9;stroke:#a9a9a9;stroke-width:2;" x="9" xlink:href="#mf4b67c18b3" y="102.96"/>
      </g>
     </g>
    </g>
    <g id="ytick_6">
     <g id="line2d_14">
      <g>
       <use style="fill:#a9a9a9;stroke:#a9a9a9;stroke-width:2;" x="9" xlink:href="#mf4b67c18b3" y="77.76"/>
      </g>
     </g>
    </g>
   </g>
   <g id="line2d_15">
    <path clip-path="url(#p6bbb0321bf)" d="M 10.86031 88.129839 
L 11.79031 87.248886 
L 12.72031 86.89086 
L 13.65031 86.39005 
L 14.58031 86.201586 
L 15.51031 85.96932 
L 16.44031 85.827962 
L 17.37031 85.73308 
L 18.30031 85.624817 
L 19.23031 85.53868 
L 20.16031 85.45386 
L 21.09031 85.393903 
L 22.02031 85.302731 
L 22.95031 85.282423 
L 23.88031 85.170459 
L 24.81031 85.169151 
L 25.74031 85.120035 
L 26.67031 85.119516 
L 27.60031 85.125876 
L 28.53031 85.099842 
L 29.46031 85.096468 
L 30.39031 85.072437 
L 31.32031 85.03699 
L 32.25031 85.015696 
L 33.18031 85.033704 
L 34.11031 85.037393 
L 35.04031 85.049876 
L 35.97031 85.019607 
L 36.90031 85.010597 
L 37.83031 85.002198 
L 38.76031 84.990055 
L 39.69031 84.978911 
L 40.62031 84.981473 
L 41.55031 84.989878 
L 42.48031 84.956643 
L 43.41031 84.951301 
L 44.34031 84.955729 
L 45.27031 84.949055 
L 46.20031 84.945893 
L 47.13031 84.929425 
L 48.06031 84.921372 
L 48.99031 84.901048 
L 49.92031 84.905209 
L 50.85031 84.910413 
L 51.78031 84.912004 
L 52.71031 84.903161 
L 53.64031 84.906844 
L 54.57031 84.889697 
L 55.50031 84.89028 
L 56.43031 84.872041 
L 57.36031 84.88368 
L 58.29031 84.892131 
L 59.22031 84.898284 
L 60.15031 84.884421 
L 61.08031 84.880749 
L 62.01031 84.870468 
L 62.94031 84.864717 
L 63.87031 84.857888 
" style="fill:none;stroke:#fc8d62;stroke-linecap:square;stroke-width:2;"/>
   </g>
   <g id="line2d_16">
    <path clip-path="url(#p6bbb0321bf)" d="M 10.86031 94.844239 
L 11.79031 94.117704 
L 12.72031 93.279567 
L 13.65031 92.863344 
L 14.58031 92.634268 
L 15.51031 92.274714 
L 16.44031 92.093327 
L 17.37031 91.950435 
L 18.30031 91.8276 
L 19.23031 91.709038 
L 20.16031 91.699965 
L 21.09031 91.647359 
L 22.02031 91.606667 
L 22.95031 91.607341 
L 23.88031 91.608551 
L 24.81031 91.552871 
L 25.74031 91.52098 
L 26.67031 91.521441 
L 27.60031 91.497118 
L 28.53031 91.493687 
L 29.46031 91.488583 
L 30.39031 91.508179 
L 31.32031 91.45832 
L 32.25031 91.482909 
L 33.18031 91.489545 
L 34.11031 91.501599 
L 35.04031 91.493161 
L 35.97031 91.486232 
L 36.90031 91.452431 
L 37.83031 91.431816 
L 38.76031 91.411741 
L 39.69031 91.392185 
L 40.62031 91.382943 
L 41.55031 91.384416 
L 42.48031 91.422487 
L 43.41031 91.428274 
L 44.34031 91.426965 
L 45.27031 91.440945 
L 46.20031 91.446262 
L 47.13031 91.438681 
L 48.06031 91.439736 
L 48.99031 91.432604 
L 49.92031 91.42581 
L 50.85031 91.422448 
L 51.78031 91.408608 
L 52.71031 91.4084 
L 53.64031 91.425278 
L 54.57031 91.423358 
L 55.50031 91.407206 
L 56.43031 91.395918 
L 57.36031 91.398096 
L 58.29031 91.399589 
L 59.22031 91.39888 
L 60.15031 91.386764 
L 61.08031 91.391983 
L 62.01031 91.37955 
L 62.94031 91.377134 
L 63.87031 91.379327 
" style="fill:none;stroke:#fc8d62;stroke-dasharray:1.5,1.5;stroke-dashoffset:0;stroke-opacity:0.7;stroke-width:1.5;"/>
   </g>
   <g id="patch_8">
    <path d="M 9 128.16 
L 9 77.76 
" style="fill:none;stroke:#a9a9a9;stroke-linecap:square;stroke-linejoin:miter;stroke-width:2;"/>
   </g>
   <g id="patch_9">
    <path d="M 64.8 128.16 
L 64.8 77.76 
" style="fill:none;"/>
   </g>
   <g id="patch_10">
    <path d="M 9 128.16 
L 64.8 128.16 
" style="fill:none;stroke:#a9a9a9;stroke-linecap:square;stroke-linejoin:miter;stroke-width:2;"/>
   </g>
   <g id="patch_11">
    <path d="M 9 77.76 
L 64.8 77.76 
" style="fill:none;"/>
   </g>
  </g>
 </g>
 <defs>
  <clipPath id="pd5865792d5">
   <rect height="50.4" width="55.8" x="9" y="17.28"/>
  </clipPath>
  <clipPath id="p6bbb0321bf">
   <rect height="50.4" width="55.8" x="9" y="77.76"/>
  </clipPath>
 </defs>
</svg>
