<?xml version="1.0" encoding="utf-8" standalone="no"?>
<!DOCTYPE svg PUBLIC "-//W3C//DTD SVG 1.1//EN"
  "http://www.w3.org/Graphics/SVG/1.1/DTD/svg11.dtd">
<!-- Created with matplotlib (https://matplotlib.org/) -->
<svg height="144pt" version="1.1" viewBox="0 0 72 144" width="72pt" xmlns="http://www.w3.org/2000/svg" xmlns:xlink="http://www.w3.org/1999/xlink">
 <metadata>
  <rdf:RDF xmlns:cc="http://creativecommons.org/ns#" xmlns:dc="http://purl.org/dc/elements/1.1/" xmlns:rdf="http://www.w3.org/1999/02/22-rdf-syntax-ns#">
   <cc:Work>
    <dc:type rdf:resource="http://purl.org/dc/dcmitype/StillImage"/>
    <dc:date>2021-10-12T18:37:51.142246</dc:date>
    <dc:format>image/svg+xml</dc:format>
    <dc:creator>
     <cc:Agent>
      <dc:title>Matplotlib v3.3.2, https://matplotlib.org/</dc:title>
     </cc:Agent>
    </dc:creator>
   </cc:Work>
  </rdf:RDF>
 </metadata>
 <defs>
  <style type="text/css">*{stroke-linecap:butt;stroke-linejoin:round;}</style>
 </defs>
 <g id="figure_1">
  <g id="patch_1">
   <path d="M 0 144 
L 72 144 
L 72 0 
L 0 0 
z
" style="fill:none;"/>
  </g>
  <g id="axes_1">
   <g id="patch_2">
    <path d="M 9 67.68 
L 64.8 67.68 
L 64.8 17.28 
L 9 17.28 
z
" style="fill:none;"/>
   </g>
   <g id="matplotlib.axis_1">
    <g id="xtick_1">
     <g id="line2d_1">
      <defs>
       <path d="M 0 0 
L 0 3.5 
" id="m3ce9d4c276" style="stroke:#a9a9a9;stroke-width:2;"/>
      </defs>
      <g>
       <use style="fill:#a9a9a9;stroke:#a9a9a9;stroke-width:2;" x="9" xlink:href="#m3ce9d4c276" y="67.68"/>
      </g>
     </g>
    </g>
    <g id="xtick_2">
     <g id="line2d_2">
      <g>
       <use style="fill:#a9a9a9;stroke:#a9a9a9;stroke-width:2;" x="36.9" xlink:href="#m3ce9d4c276" y="67.68"/>
      </g>
     </g>
    </g>
    <g id="xtick_3">
     <g id="line2d_3">
      <g>
       <use style="fill:#a9a9a9;stroke:#a9a9a9;stroke-width:2;" x="64.8" xlink:href="#m3ce9d4c276" y="67.68"/>
      </g>
     </g>
    </g>
   </g>
   <g id="matplotlib.axis_2">
    <g id="ytick_1">
     <g id="line2d_4">
      <defs>
       <path d="M 0 0 
L -3.5 0 
" id="me053aef747" style="stroke:#a9a9a9;stroke-width:2;"/>
      </defs>
      <g>
       <use style="fill:#a9a9a9;stroke:#a9a9a9;stroke-width:2;" x="9" xlink:href="#me053aef747" y="67.68"/>
      </g>
     </g>
    </g>
    <g id="ytick_2">
     <g id="line2d_5">
      <g>
       <use style="fill:#a9a9a9;stroke:#a9a9a9;stroke-width:2;" x="9" xlink:href="#me053aef747" y="55.855489"/>
      </g>
     </g>
    </g>
    <g id="ytick_3">
     <g id="line2d_6">
      <g>
       <use style="fill:#a9a9a9;stroke:#a9a9a9;stroke-width:2;" x="9" xlink:href="#me053aef747" y="44.030977"/>
      </g>
     </g>
    </g>
   </g>
   <g id="line2d_7">
    <path clip-path="url(#pb12d70f4f2)" d="M 10.86031 57.185343 
L 11.79031 55.620987 
L 12.72031 54.838751 
L 13.65031 53.64551 
L 14.58031 52.403346 
L 15.51031 51.236484 
L 16.44031 49.843511 
L 17.37031 48.688022 
L 18.30031 47.277013 
L 19.23031 46.541824 
L 20.16031 45.540181 
L 21.09031 44.83792 
L 22.02031 44.47808 
L 22.95031 43.986811 
L 23.88031 43.540035 
L 24.81031 43.068549 
L 25.74031 42.138562 
L 26.67031 40.701367 
L 27.60031 39.5398 
L 28.53031 38.873713 
L 29.46031 37.436394 
L 30.39031 36.261443 
L 31.32031 35.515741 
L 32.25031 34.511756 
L 33.18031 33.552706 
L 34.11031 31.958749 
L 35.04031 31.351877 
L 35.97031 31.235288 
L 36.90031 30.837023 
L 37.83031 29.796957 
L 38.76031 28.864449 
L 39.69031 28.55083 
L 40.62031 28.547955 
L 41.55031 28.382727 
L 42.48031 28.041789 
L 43.41031 27.762521 
L 44.34031 27.333617 
L 45.27031 26.452622 
L 46.20031 26.300782 
L 47.13031 25.391817 
L 48.06031 24.704463 
L 48.99031 24.341375 
L 49.92031 23.918411 
L 50.85031 22.744418 
L 51.78031 22.104467 
L 52.71031 22.161934 
L 53.64031 21.673378 
L 54.57031 21.678077 
L 55.50031 21.408332 
L 56.43031 20.924102 
L 57.36031 20.772274 
L 58.29031 20.097229 
L 59.22031 20.118289 
L 60.15031 19.63098 
L 61.08031 18.85408 
L 62.01031 18.116 
L 62.94031 18.075928 
L 63.87031 17.871226 
" style="fill:none;stroke:#fc8d62;stroke-linecap:square;stroke-width:2;"/>
   </g>
   <g id="line2d_8">
    <path clip-path="url(#pb12d70f4f2)" d="M 10.86031 57.032902 
L 11.79031 55.274369 
L 12.72031 52.9644 
L 13.65031 51.615185 
L 14.58031 50.648707 
L 15.51031 48.795758 
L 16.44031 48.228785 
L 17.37031 46.470591 
L 18.30031 45.236713 
L 19.23031 44.745349 
L 20.16031 44.122608 
L 21.09031 43.556184 
L 22.02031 42.407238 
L 22.95031 41.080091 
L 23.88031 39.488438 
L 24.81031 39.140816 
L 25.74031 37.566102 
L 26.67031 36.538529 
L 27.60031 35.5895 
L 28.53031 34.307765 
L 29.46031 33.978155 
L 30.39031 32.744663 
L 31.32031 32.292469 
L 32.25031 31.471113 
L 33.18031 30.939213 
L 34.11031 30.625859 
L 35.04031 30.227447 
L 35.97031 29.877457 
L 36.90031 28.866683 
L 37.83031 29.078334 
L 38.76031 28.764586 
L 39.69031 28.625134 
L 40.62031 27.919247 
L 41.55031 27.498865 
L 42.48031 27.092879 
L 43.41031 26.32781 
L 44.34031 25.619534 
L 45.27031 25.679389 
L 46.20031 24.690356 
L 47.13031 24.422536 
L 48.06031 23.799118 
L 48.99031 22.971449 
L 49.92031 22.18953 
L 50.85031 21.84189 
L 51.78031 21.564361 
L 52.71031 21.054882 
L 53.64031 20.310667 
L 54.57031 19.667832 
L 55.50031 18.822821 
L 56.43031 18.284565 
L 57.36031 18.327226 
L 58.29031 18.666749 
L 59.22031 18.057252 
L 60.15031 17.535696 
L 61.08031 17.498879 
L 62.01031 17.154237 
L 62.94031 16.786287 
L 63.87031 16.105091 
" style="fill:none;stroke:#fc8d62;stroke-dasharray:1.5,1.5;stroke-dashoffset:0;stroke-opacity:0.7;stroke-width:1.5;"/>
   </g>
   <g id="patch_3">
    <path d="M 9 67.68 
L 9 17.28 
" style="fill:none;stroke:#a9a9a9;stroke-linecap:square;stroke-linejoin:miter;stroke-width:2;"/>
   </g>
   <g id="patch_4">
    <path d="M 64.8 67.68 
L 64.8 17.28 
" style="fill:none;"/>
   </g>
   <g id="patch_5">
    <path d="M 9 67.68 
L 64.8 67.68 
" style="fill:none;stroke:#a9a9a9;stroke-linecap:square;stroke-linejoin:miter;stroke-width:2;"/>
   </g>
   <g id="patch_6">
    <path d="M 9 17.28 
L 64.8 17.28 
" style="fill:none;"/>
   </g>
  </g>
  <g id="axes_2">
   <g id="patch_7">
    <path d="M 9 128.16 
L 64.8 128.16 
L 64.8 77.76 
L 9 77.76 
z
" style="fill:none;"/>
   </g>
   <g id="matplotlib.axis_3">
    <g id="xtick_4">
     <g id="line2d_9">
      <g>
       <use style="fill:#a9a9a9;stroke:#a9a9a9;stroke-width:2;" x="9" xlink:href="#m3ce9d4c276" y="128.16"/>
      </g>
     </g>
    </g>
    <g id="xtick_5">
     <g id="line2d_10">
      <g>
       <use style="fill:#a9a9a9;stroke:#a9a9a9;stroke-width:2;" x="36.9" xlink:href="#m3ce9d4c276" y="128.16"/>
      </g>
     </g>
    </g>
    <g id="xtick_6">
     <g id="line2d_11">
      <g>
       <use style="fill:#a9a9a9;stroke:#a9a9a9;stroke-width:2;" x="64.8" xlink:href="#m3ce9d4c276" y="128.16"/>
      </g>
     </g>
    </g>
   </g>
   <g id="matplotlib.axis_4">
    <g id="ytick_4">
     <g id="line2d_12">
      <g>
       <use style="fill:#a9a9a9;stroke:#a9a9a9;stroke-width:2;" x="9" xlink:href="#me053aef747" y="128.16"/>
      </g>
     </g>
    </g>
    <g id="ytick_5">
     <g id="line2d_13">
      <g>
       <use style="fill:#a9a9a9;stroke:#a9a9a9;stroke-width:2;" x="9" xlink:href="#me053aef747" y="102.96"/>
      </g>
     </g>
    </g>
    <g id="ytick_6">
     <g id="line2d_14">
      <g>
       <use style="fill:#a9a9a9;stroke:#a9a9a9;stroke-width:2;" x="9" xlink:href="#me053aef747" y="77.76"/>
      </g>
     </g>
    </g>
   </g>
   <g id="line2d_15">
    <path clip-path="url(#pca8c203427)" d="M 10.86031 99.651579 
L 11.79031 96.443223 
L 12.72031 94.802289 
L 13.65031 93.465298 
L 14.58031 92.754715 
L 15.51031 91.650888 
L 16.44031 91.060674 
L 17.37031 90.593834 
L 18.30031 90.197993 
L 19.23031 89.914018 
L 20.16031 89.597237 
L 21.09031 89.611024 
L 22.02031 89.593476 
L 22.95031 89.343181 
L 23.88031 89.28041 
L 24.81031 89.192371 
L 25.74031 89.064797 
L 26.67031 88.792858 
L 27.60031 88.606371 
L 28.53031 88.525939 
L 29.46031 88.374794 
L 30.39031 88.188757 
L 31.32031 88.025308 
L 32.25031 87.938791 
L 33.18031 87.86821 
L 34.11031 87.752945 
L 35.04031 87.625945 
L 35.97031 87.583391 
L 36.90031 87.536643 
L 37.83031 87.468076 
L 38.76031 87.39361 
L 39.69031 87.354196 
L 40.62031 87.372816 
L 41.55031 87.353514 
L 42.48031 87.313323 
L 43.41031 87.311416 
L 44.34031 87.326485 
L 45.27031 87.312684 
L 46.20031 87.316629 
L 47.13031 87.285139 
L 48.06031 87.270883 
L 48.99031 87.273397 
L 49.92031 87.210018 
L 50.85031 87.185861 
L 51.78031 87.141464 
L 52.71031 87.125103 
L 53.64031 87.052947 
L 54.57031 87.009052 
L 55.50031 86.966856 
L 56.43031 86.970652 
L 57.36031 86.987404 
L 58.29031 86.946201 
L 59.22031 86.920125 
L 60.15031 86.87723 
L 61.08031 86.833199 
L 62.01031 86.791385 
L 62.94031 86.770546 
L 63.87031 86.754723 
" style="fill:none;stroke:#fc8d62;stroke-linecap:square;stroke-width:2;"/>
   </g>
   <g id="line2d_16">
    <path clip-path="url(#pca8c203427)" d="M 10.86031 101.045061 
L 11.79031 98.038889 
L 12.72031 96.580577 
L 13.65031 95.866693 
L 14.58031 95.098248 
L 15.51031 94.911985 
L 16.44031 94.367139 
L 17.37031 93.684702 
L 18.30031 93.317714 
L 19.23031 93.079127 
L 20.16031 92.866768 
L 21.09031 92.810702 
L 22.02031 92.65685 
L 22.95031 92.513522 
L 23.88031 92.203272 
L 24.81031 92.197503 
L 25.74031 92.170382 
L 26.67031 91.964247 
L 27.60031 91.955085 
L 28.53031 91.910355 
L 29.46031 91.885829 
L 30.39031 91.800726 
L 31.32031 91.750313 
L 32.25031 91.748329 
L 33.18031 91.710182 
L 34.11031 91.691185 
L 35.04031 91.652531 
L 35.97031 91.611322 
L 36.90031 91.60169 
L 37.83031 91.621613 
L 38.76031 91.526134 
L 39.69031 91.537487 
L 40.62031 91.501169 
L 41.55031 91.550627 
L 42.48031 91.472878 
L 43.41031 91.443881 
L 44.34031 91.463914 
L 45.27031 91.480473 
L 46.20031 91.392837 
L 47.13031 91.370772 
L 48.06031 91.321871 
L 48.99031 91.273088 
L 49.92031 91.270468 
L 50.85031 91.281062 
L 51.78031 91.274071 
L 52.71031 91.254204 
L 53.64031 91.232033 
L 54.57031 91.229088 
L 55.50031 91.219582 
L 56.43031 91.177159 
L 57.36031 91.180975 
L 58.29031 91.139487 
L 59.22031 91.129625 
L 60.15031 91.154924 
L 61.08031 91.148959 
L 62.01031 91.141758 
L 62.94031 91.159993 
L 63.87031 91.165528 
" style="fill:none;stroke:#fc8d62;stroke-dasharray:1.5,1.5;stroke-dashoffset:0;stroke-opacity:0.7;stroke-width:1.5;"/>
   </g>
   <g id="patch_8">
    <path d="M 9 128.16 
L 9 77.76 
" style="fill:none;stroke:#a9a9a9;stroke-linecap:square;stroke-linejoin:miter;stroke-width:2;"/>
   </g>
   <g id="patch_9">
    <path d="M 64.8 128.16 
L 64.8 77.76 
" style="fill:none;"/>
   </g>
   <g id="patch_10">
    <path d="M 9 128.16 
L 64.8 128.16 
" style="fill:none;stroke:#a9a9a9;stroke-linecap:square;stroke-linejoin:miter;stroke-width:2;"/>
   </g>
   <g id="patch_11">
    <path d="M 9 77.76 
L 64.8 77.76 
" style="fill:none;"/>
   </g>
  </g>
 </g>
 <defs>
  <clipPath id="pb12d70f4f2">
   <rect height="50.4" width="55.8" x="9" y="17.28"/>
  </clipPath>
  <clipPath id="pca8c203427">
   <rect height="50.4" width="55.8" x="9" y="77.76"/>
  </clipPath>
 </defs>
</svg>
