<?xml version="1.0" encoding="utf-8" standalone="no"?>
<!DOCTYPE svg PUBLIC "-//W3C//DTD SVG 1.1//EN"
  "http://www.w3.org/Graphics/SVG/1.1/DTD/svg11.dtd">
<!-- Created with matplotlib (https://matplotlib.org/) -->
<svg height="128.78pt" version="1.1" viewBox="0 0 73.7 128.78" width="73.7pt" xmlns="http://www.w3.org/2000/svg" xmlns:xlink="http://www.w3.org/1999/xlink">
 <metadata>
  <rdf:RDF xmlns:cc="http://creativecommons.org/ns#" xmlns:dc="http://purl.org/dc/elements/1.1/" xmlns:rdf="http://www.w3.org/1999/02/22-rdf-syntax-ns#">
   <cc:Work>
    <dc:type rdf:resource="http://purl.org/dc/dcmitype/StillImage"/>
    <dc:date>2022-10-18T17:00:12.569305</dc:date>
    <dc:format>image/svg+xml</dc:format>
    <dc:creator>
     <cc:Agent>
      <dc:title>Matplotlib v3.3.2, https://matplotlib.org/</dc:title>
     </cc:Agent>
    </dc:creator>
   </cc:Work>
  </rdf:RDF>
 </metadata>
 <defs>
  <style type="text/css">*{stroke-linecap:butt;stroke-linejoin:round;}</style>
 </defs>
 <g id="figure_1">
  <g id="patch_1">
   <path d="M 0 128.78 
L 73.7 128.78 
L 73.7 0 
L 0 0 
z
" style="fill:none;"/>
  </g>
  <g id="axes_1">
   <g id="patch_2">
    <path d="M 10.7 57.6 
L 66.5 57.6 
L 66.5 7.2 
L 10.7 7.2 
z
" style="fill:none;"/>
   </g>
   <g id="matplotlib.axis_1">
    <g id="xtick_1">
     <g id="line2d_1">
      <defs>
       <path d="M 0 0 
L 0 3.5 
" id="m0bb29fa627" style="stroke:#4c4c4c;"/>
      </defs>
      <g>
       <use style="fill:#4c4c4c;stroke:#4c4c4c;" x="10.7" xlink:href="#m0bb29fa627" y="57.6"/>
      </g>
     </g>
    </g>
    <g id="xtick_2">
     <g id="line2d_2">
      <g>
       <use style="fill:#4c4c4c;stroke:#4c4c4c;" x="38.6" xlink:href="#m0bb29fa627" y="57.6"/>
      </g>
     </g>
    </g>
    <g id="xtick_3">
     <g id="line2d_3">
      <g>
       <use style="fill:#4c4c4c;stroke:#4c4c4c;" x="66.5" xlink:href="#m0bb29fa627" y="57.6"/>
      </g>
     </g>
    </g>
   </g>
   <g id="matplotlib.axis_2">
    <g id="ytick_1">
     <g id="line2d_4">
      <defs>
       <path d="M 0 0 
L -3.5 0 
" id="m7077669299" style="stroke:#4c4c4c;"/>
      </defs>
      <g>
       <use style="fill:#4c4c4c;stroke:#4c4c4c;" x="10.7" xlink:href="#m7077669299" y="57.6"/>
      </g>
     </g>
    </g>
    <g id="ytick_2">
     <g id="line2d_5">
      <g>
       <use style="fill:#4c4c4c;stroke:#4c4c4c;" x="10.7" xlink:href="#m7077669299" y="32.4"/>
      </g>
     </g>
    </g>
    <g id="ytick_3">
     <g id="line2d_6">
      <g>
       <use style="fill:#4c4c4c;stroke:#4c4c4c;" x="10.7" xlink:href="#m7077669299" y="7.2"/>
      </g>
     </g>
    </g>
   </g>
   <g id="line2d_7">
    <path clip-path="url(#p70a2c5f2a4)" d="M 12.560062 51.673891 
L 13.490062 49.664555 
L 14.420062 47.422889 
L 15.350062 46.588182 
L 16.280062 45.195952 
L 17.210062 43.580629 
L 18.140062 41.839926 
L 19.070062 40.588955 
L 20.000062 40.409234 
L 20.930062 39.39343 
L 21.860062 38.673172 
L 22.790062 38.172131 
L 23.720062 37.730831 
L 24.650062 37.074561 
L 25.580062 36.711584 
L 26.510062 36.006353 
L 27.440062 35.76147 
L 28.370062 35.597858 
L 29.300062 35.112379 
L 30.230062 34.607645 
L 31.160062 34.084432 
L 32.090062 33.771746 
L 33.020062 33.1869 
L 33.950062 32.789424 
L 34.880062 32.37412 
L 35.810062 32.036993 
L 36.740062 31.354317 
L 37.670062 31.031362 
L 38.600062 30.907538 
L 39.530062 30.425015 
L 40.460062 30.271516 
L 41.390062 29.813052 
L 42.320062 29.667388 
L 43.250062 29.325004 
L 44.180062 29.387543 
L 45.110062 29.431756 
L 46.040062 29.123882 
L 46.970062 29.131657 
L 47.900062 28.964819 
L 48.830062 28.759913 
L 49.760062 28.450968 
L 50.690062 28.281933 
L 51.620062 28.463571 
L 52.550062 28.05488 
L 53.480062 27.836296 
L 54.410062 27.769596 
L 55.340062 27.61499 
L 56.270062 27.250726 
L 57.200062 27.007012 
L 58.130062 26.905087 
L 59.060062 26.829984 
L 59.990062 26.77923 
L 60.920062 26.541254 
L 61.850062 26.399423 
L 62.780062 26.179435 
L 63.710062 26.166623 
L 64.640062 26.073674 
" style="fill:none;stroke:#37738f;stroke-linecap:square;stroke-width:2;"/>
   </g>
   <g id="line2d_8">
    <path clip-path="url(#p70a2c5f2a4)" d="M 12.560062 51.320818 
L 13.490062 49.855678 
L 14.420062 48.262985 
L 15.350062 46.153696 
L 16.280062 44.438117 
L 17.210062 43.567172 
L 18.140062 42.11735 
L 19.070062 40.464207 
L 20.000062 39.386912 
L 20.930062 38.229663 
L 21.860062 36.900541 
L 22.790062 35.982692 
L 23.720062 35.3375 
L 24.650062 34.212985 
L 25.580062 33.955779 
L 26.510062 32.751179 
L 27.440062 32.444637 
L 28.370062 31.842043 
L 29.300062 31.073772 
L 30.230062 30.722922 
L 31.160062 30.219849 
L 32.090062 30.408442 
L 33.020062 30.162964 
L 33.950062 29.771383 
L 34.880062 29.588369 
L 35.810062 29.242515 
L 36.740062 28.981257 
L 37.670062 28.659913 
L 38.600062 28.579413 
L 39.530062 28.155111 
L 40.460062 27.982961 
L 41.390062 27.364077 
L 42.320062 27.322356 
L 43.250062 27.202519 
L 44.180062 26.956776 
L 45.110062 26.922063 
L 46.040062 26.444435 
L 46.970062 26.261299 
L 47.900062 26.339115 
L 48.830062 26.221746 
L 49.760062 25.950087 
L 50.690062 25.995945 
L 51.620062 25.595774 
L 52.550062 25.583581 
L 53.480062 25.366538 
L 54.410062 25.302033 
L 55.340062 25.213206 
L 56.270062 25.093143 
L 57.200062 25.109201 
L 58.130062 24.969937 
L 59.060062 24.865923 
L 59.990062 24.769871 
L 60.920062 24.543002 
L 61.850062 24.524844 
L 62.780062 24.511922 
L 63.710062 24.41561 
L 64.640062 24.448019 
" style="fill:none;stroke:#37738f;stroke-dasharray:1.5,1.5;stroke-dashoffset:0;stroke-opacity:0.7;stroke-width:1.5;"/>
   </g>
   <g id="patch_3">
    <path d="M 10.7 57.6 
L 10.7 7.2 
" style="fill:none;stroke:#4c4c4c;stroke-linecap:square;stroke-linejoin:miter;stroke-width:2;"/>
   </g>
   <g id="patch_4">
    <path d="M 66.5 57.6 
L 66.5 7.2 
" style="fill:none;"/>
   </g>
   <g id="patch_5">
    <path d="M 10.7 57.6 
L 66.5 57.6 
" style="fill:none;stroke:#4c4c4c;stroke-linecap:square;stroke-linejoin:miter;stroke-width:2;"/>
   </g>
   <g id="patch_6">
    <path d="M 10.7 7.2 
L 66.5 7.2 
" style="fill:none;"/>
   </g>
  </g>
  <g id="axes_2">
   <g id="patch_7">
    <path d="M 10.7 118.08 
L 66.5 118.08 
L 66.5 67.68 
L 10.7 67.68 
z
" style="fill:none;"/>
   </g>
   <g id="matplotlib.axis_3">
    <g id="xtick_4">
     <g id="line2d_9">
      <g>
       <use style="fill:#4c4c4c;stroke:#4c4c4c;" x="10.7" xlink:href="#m0bb29fa627" y="118.08"/>
      </g>
     </g>
    </g>
    <g id="xtick_5">
     <g id="line2d_10">
      <g>
       <use style="fill:#4c4c4c;stroke:#4c4c4c;" x="38.6" xlink:href="#m0bb29fa627" y="118.08"/>
      </g>
     </g>
    </g>
    <g id="xtick_6">
     <g id="line2d_11">
      <g>
       <use style="fill:#4c4c4c;stroke:#4c4c4c;" x="66.5" xlink:href="#m0bb29fa627" y="118.08"/>
      </g>
     </g>
    </g>
   </g>
   <g id="matplotlib.axis_4">
    <g id="ytick_4">
     <g id="line2d_12">
      <g>
       <use style="fill:#4c4c4c;stroke:#4c4c4c;" x="10.7" xlink:href="#m7077669299" y="118.08"/>
      </g>
     </g>
    </g>
    <g id="ytick_5">
     <g id="line2d_13">
      <g>
       <use style="fill:#4c4c4c;stroke:#4c4c4c;" x="10.7" xlink:href="#m7077669299" y="92.88"/>
      </g>
     </g>
    </g>
    <g id="ytick_6">
     <g id="line2d_14">
      <g>
       <use style="fill:#4c4c4c;stroke:#4c4c4c;" x="10.7" xlink:href="#m7077669299" y="67.68"/>
      </g>
     </g>
    </g>
   </g>
   <g id="line2d_15">
    <path clip-path="url(#p42dec14762)" d="M 12.560062 110.513265 
L 13.490062 109.354919 
L 14.420062 107.500904 
L 15.350062 107.25331 
L 16.280062 106.835302 
L 17.210062 105.917333 
L 18.140062 105.058531 
L 19.070062 104.644661 
L 20.000062 104.031244 
L 20.930062 102.857676 
L 21.860062 102.736007 
L 22.790062 102.31809 
L 23.720062 102.465624 
L 24.650062 102.040136 
L 25.580062 101.827452 
L 26.510062 100.97686 
L 27.440062 100.487391 
L 28.370062 100.341018 
L 29.300062 99.679098 
L 30.230062 99.556156 
L 31.160062 99.090798 
L 32.090062 99.068625 
L 33.020062 98.774986 
L 33.950062 98.490452 
L 34.880062 97.575245 
L 35.810062 96.933162 
L 36.740062 95.855558 
L 37.670062 95.512277 
L 38.600062 94.967935 
L 39.530062 94.246656 
L 40.460062 94.152812 
L 41.390062 94.029824 
L 42.320062 93.372982 
L 43.250062 92.721214 
L 44.180062 92.785241 
L 45.110062 92.464235 
L 46.040062 92.054731 
L 46.970062 92.390861 
L 47.900062 91.763997 
L 48.830062 91.305133 
L 49.760062 91.060617 
L 50.690062 90.59143 
L 51.620062 90.951519 
L 52.550062 90.257537 
L 53.480062 89.599155 
L 54.410062 89.673396 
L 55.340062 89.655317 
L 56.270062 88.980781 
L 57.200062 89.128094 
L 58.130062 88.853009 
L 59.060062 88.619457 
L 59.990062 88.095044 
L 60.920062 87.779481 
L 61.850062 87.832997 
L 62.780062 87.139016 
L 63.710062 87.351413 
L 64.640062 87.322716 
" style="fill:none;stroke:#37738f;stroke-linecap:square;stroke-width:2;"/>
   </g>
   <g id="line2d_16">
    <path clip-path="url(#p42dec14762)" d="M 12.560062 110.024315 
L 13.490062 109.360246 
L 14.420062 108.730144 
L 15.350062 107.476302 
L 16.280062 105.804791 
L 17.210062 105.668052 
L 18.140062 104.892257 
L 19.070062 103.90291 
L 20.000062 102.671508 
L 20.930062 102.073626 
L 21.860062 101.253902 
L 22.790062 100.207941 
L 23.720062 99.890508 
L 24.650062 99.3792 
L 25.580062 99.413381 
L 26.510062 98.976407 
L 27.440062 98.487877 
L 28.370062 98.21788 
L 29.300062 97.353079 
L 30.230062 96.73941 
L 31.160062 96.561934 
L 32.090062 96.315401 
L 33.020062 95.658193 
L 33.950062 95.519469 
L 34.880062 95.544228 
L 35.810062 95.277917 
L 36.740062 94.859431 
L 37.670062 94.768424 
L 38.600062 94.743354 
L 39.530062 94.264903 
L 40.460062 94.282556 
L 41.390062 94.034211 
L 42.320062 94.314767 
L 43.250062 94.293307 
L 44.180062 93.502751 
L 45.110062 93.232162 
L 46.040062 92.80829 
L 46.970062 92.177057 
L 47.900062 92.181041 
L 48.830062 91.516444 
L 49.760062 91.358313 
L 50.690062 91.193966 
L 51.620062 90.368442 
L 52.550062 90.200014 
L 53.480062 89.499122 
L 54.410062 89.121773 
L 55.340062 88.692948 
L 56.270062 88.256624 
L 57.200062 87.900829 
L 58.130062 87.150529 
L 59.060062 86.730636 
L 59.990062 86.191862 
L 60.920062 85.529857 
L 61.850062 85.185299 
L 62.780062 85.1134 
L 63.710062 85.253783 
L 64.640062 85.19717 
" style="fill:none;stroke:#37738f;stroke-dasharray:1.5,1.5;stroke-dashoffset:0;stroke-opacity:0.7;stroke-width:1.5;"/>
   </g>
   <g id="patch_8">
    <path d="M 10.7 118.08 
L 10.7 67.68 
" style="fill:none;stroke:#4c4c4c;stroke-linecap:square;stroke-linejoin:miter;stroke-width:2;"/>
   </g>
   <g id="patch_9">
    <path d="M 66.5 118.08 
L 66.5 67.68 
" style="fill:none;"/>
   </g>
   <g id="patch_10">
    <path d="M 10.7 118.08 
L 66.5 118.08 
" style="fill:none;stroke:#4c4c4c;stroke-linecap:square;stroke-linejoin:miter;stroke-width:2;"/>
   </g>
   <g id="patch_11">
    <path d="M 10.7 67.68 
L 66.5 67.68 
" style="fill:none;"/>
   </g>
  </g>
 </g>
 <defs>
  <clipPath id="p70a2c5f2a4">
   <rect height="50.4" width="55.8" x="10.7" y="7.2"/>
  </clipPath>
  <clipPath id="p42dec14762">
   <rect height="50.4" width="55.8" x="10.7" y="67.68"/>
  </clipPath>
 </defs>
</svg>
