<?xml version="1.0" encoding="utf-8" standalone="no"?>
<!DOCTYPE svg PUBLIC "-//W3C//DTD SVG 1.1//EN"
  "http://www.w3.org/Graphics/SVG/1.1/DTD/svg11.dtd">
<!-- Created with matplotlib (https://matplotlib.org/) -->
<svg height="144pt" version="1.1" viewBox="0 0 72 144" width="72pt" xmlns="http://www.w3.org/2000/svg" xmlns:xlink="http://www.w3.org/1999/xlink">
 <metadata>
  <rdf:RDF xmlns:cc="http://creativecommons.org/ns#" xmlns:dc="http://purl.org/dc/elements/1.1/" xmlns:rdf="http://www.w3.org/1999/02/22-rdf-syntax-ns#">
   <cc:Work>
    <dc:type rdf:resource="http://purl.org/dc/dcmitype/StillImage"/>
    <dc:date>2021-10-13T15:36:37.916163</dc:date>
    <dc:format>image/svg+xml</dc:format>
    <dc:creator>
     <cc:Agent>
      <dc:title>Matplotlib v3.3.2, https://matplotlib.org/</dc:title>
     </cc:Agent>
    </dc:creator>
   </cc:Work>
  </rdf:RDF>
 </metadata>
 <defs>
  <style type="text/css">*{stroke-linecap:butt;stroke-linejoin:round;}</style>
 </defs>
 <g id="figure_1">
  <g id="patch_1">
   <path d="M 0 144 
L 72 144 
L 72 0 
L 0 0 
z
" style="fill:none;"/>
  </g>
  <g id="axes_1">
   <g id="patch_2">
    <path d="M 9 67.68 
L 64.8 67.68 
L 64.8 17.28 
L 9 17.28 
z
" style="fill:none;"/>
   </g>
   <g id="matplotlib.axis_1">
    <g id="xtick_1">
     <g id="line2d_1">
      <defs>
       <path d="M 0 0 
L 0 3.5 
" id="m4191823ea7" style="stroke:#a9a9a9;stroke-width:2;"/>
      </defs>
      <g>
       <use style="fill:#a9a9a9;stroke:#a9a9a9;stroke-width:2;" x="9" xlink:href="#m4191823ea7" y="67.68"/>
      </g>
     </g>
    </g>
    <g id="xtick_2">
     <g id="line2d_2">
      <g>
       <use style="fill:#a9a9a9;stroke:#a9a9a9;stroke-width:2;" x="36.9" xlink:href="#m4191823ea7" y="67.68"/>
      </g>
     </g>
    </g>
    <g id="xtick_3">
     <g id="line2d_3">
      <g>
       <use style="fill:#a9a9a9;stroke:#a9a9a9;stroke-width:2;" x="64.8" xlink:href="#m4191823ea7" y="67.68"/>
      </g>
     </g>
    </g>
   </g>
   <g id="matplotlib.axis_2">
    <g id="ytick_1">
     <g id="line2d_4">
      <defs>
       <path d="M 0 0 
L -3.5 0 
" id="m6b22ca7ca7" style="stroke:#a9a9a9;stroke-width:2;"/>
      </defs>
      <g>
       <use style="fill:#a9a9a9;stroke:#a9a9a9;stroke-width:2;" x="9" xlink:href="#m6b22ca7ca7" y="67.68"/>
      </g>
     </g>
    </g>
    <g id="ytick_2">
     <g id="line2d_5">
      <g>
       <use style="fill:#a9a9a9;stroke:#a9a9a9;stroke-width:2;" x="9" xlink:href="#m6b22ca7ca7" y="42.48"/>
      </g>
     </g>
    </g>
    <g id="ytick_3">
     <g id="line2d_6">
      <g>
       <use style="fill:#a9a9a9;stroke:#a9a9a9;stroke-width:2;" x="9" xlink:href="#m6b22ca7ca7" y="17.28"/>
      </g>
     </g>
    </g>
   </g>
   <g id="line2d_7">
    <path clip-path="url(#pb6d4b6a760)" d="M 10.86031 60.738619 
L 11.79031 57.532625 
L 12.72031 57.217812 
L 13.65031 56.173632 
L 14.58031 54.293656 
L 15.51031 52.371611 
L 16.44031 51.169092 
L 17.37031 50.41922 
L 18.30031 51.169063 
L 19.23031 49.291318 
L 20.16031 47.784426 
L 21.09031 47.06171 
L 22.02031 46.314687 
L 22.95031 46.142682 
L 23.88031 45.561975 
L 24.81031 45.386421 
L 25.74031 45.106651 
L 26.67031 44.424458 
L 27.60031 43.862478 
L 28.53031 42.932656 
L 29.46031 42.615188 
L 30.39031 41.767843 
L 31.32031 41.42045 
L 32.25031 41.473592 
L 33.18031 40.818265 
L 34.11031 40.553804 
L 35.04031 40.013733 
L 35.97031 38.924127 
L 36.90031 38.242679 
L 37.83031 38.201725 
L 38.76031 38.447113 
L 39.69031 38.622249 
L 40.62031 38.628681 
L 41.55031 38.688473 
L 42.48031 38.370797 
L 43.41031 37.458493 
L 44.34031 36.725452 
L 45.27031 37.011017 
L 46.20031 36.650767 
L 47.13031 36.978892 
L 48.06031 35.939293 
L 48.99031 35.502862 
L 49.92031 34.683373 
L 50.85031 34.734296 
L 51.78031 34.396311 
L 52.71031 34.285869 
L 53.64031 33.752983 
L 54.57031 33.007202 
L 55.50031 32.329014 
L 56.43031 31.280042 
L 57.36031 30.874215 
L 58.29031 30.627074 
L 59.22031 30.918574 
L 60.15031 30.702275 
L 61.08031 30.721242 
L 62.01031 31.135526 
L 62.94031 30.573062 
L 63.87031 30.299933 
" style="fill:none;stroke:#fc8d62;stroke-linecap:square;stroke-width:2;"/>
   </g>
   <g id="line2d_8">
    <path clip-path="url(#pb6d4b6a760)" d="M 10.86031 63.428037 
L 11.79031 62.615914 
L 12.72031 62.97084 
L 13.65031 62.630477 
L 14.58031 61.696676 
L 15.51031 60.569179 
L 16.44031 59.736078 
L 17.37031 59.248471 
L 18.30031 58.256806 
L 19.23031 57.144745 
L 20.16031 57.936052 
L 21.09031 58.362804 
L 22.02031 58.390782 
L 22.95031 58.323095 
L 23.88031 58.080826 
L 24.81031 57.616116 
L 25.74031 57.044566 
L 26.67031 56.870765 
L 27.60031 56.91709 
L 28.53031 57.628851 
L 29.46031 57.617928 
L 30.39031 57.63824 
L 31.32031 58.168462 
L 32.25031 58.551751 
L 33.18031 58.84163 
L 34.11031 59.108039 
L 35.04031 59.732268 
L 35.97031 59.430288 
L 36.90031 59.670187 
L 37.83031 60.094147 
L 38.76031 60.17575 
L 39.69031 59.983984 
L 40.62031 59.897087 
L 41.55031 60.134709 
L 42.48031 60.387433 
L 43.41031 60.367199 
L 44.34031 60.414416 
L 45.27031 60.485194 
L 46.20031 60.01329 
L 47.13031 59.960381 
L 48.06031 59.768933 
L 48.99031 59.626931 
L 49.92031 59.47732 
L 50.85031 59.544614 
L 51.78031 59.713275 
L 52.71031 59.244171 
L 53.64031 59.129565 
L 54.57031 59.239482 
L 55.50031 59.292986 
L 56.43031 59.620681 
L 57.36031 59.229287 
L 58.29031 59.112245 
L 59.22031 58.847436 
L 60.15031 58.697468 
L 61.08031 58.704935 
L 62.01031 58.936237 
L 62.94031 59.177327 
L 63.87031 59.221314 
" style="fill:none;stroke:#fc8d62;stroke-dasharray:1.5,1.5;stroke-dashoffset:0;stroke-opacity:0.7;stroke-width:1.5;"/>
   </g>
   <g id="patch_3">
    <path d="M 9 67.68 
L 9 17.28 
" style="fill:none;stroke:#a9a9a9;stroke-linecap:square;stroke-linejoin:miter;stroke-width:2;"/>
   </g>
   <g id="patch_4">
    <path d="M 64.8 67.68 
L 64.8 17.28 
" style="fill:none;"/>
   </g>
   <g id="patch_5">
    <path d="M 9 67.68 
L 64.8 67.68 
" style="fill:none;stroke:#a9a9a9;stroke-linecap:square;stroke-linejoin:miter;stroke-width:2;"/>
   </g>
   <g id="patch_6">
    <path d="M 9 17.28 
L 64.8 17.28 
" style="fill:none;"/>
   </g>
  </g>
  <g id="axes_2">
   <g id="patch_7">
    <path d="M 9 128.16 
L 64.8 128.16 
L 64.8 77.76 
L 9 77.76 
z
" style="fill:none;"/>
   </g>
   <g id="matplotlib.axis_3">
    <g id="xtick_4">
     <g id="line2d_9">
      <g>
       <use style="fill:#a9a9a9;stroke:#a9a9a9;stroke-width:2;" x="9" xlink:href="#m4191823ea7" y="128.16"/>
      </g>
     </g>
    </g>
    <g id="xtick_5">
     <g id="line2d_10">
      <g>
       <use style="fill:#a9a9a9;stroke:#a9a9a9;stroke-width:2;" x="36.9" xlink:href="#m4191823ea7" y="128.16"/>
      </g>
     </g>
    </g>
    <g id="xtick_6">
     <g id="line2d_11">
      <g>
       <use style="fill:#a9a9a9;stroke:#a9a9a9;stroke-width:2;" x="64.8" xlink:href="#m4191823ea7" y="128.16"/>
      </g>
     </g>
    </g>
   </g>
   <g id="matplotlib.axis_4">
    <g id="ytick_4">
     <g id="line2d_12">
      <g>
       <use style="fill:#a9a9a9;stroke:#a9a9a9;stroke-width:2;" x="9" xlink:href="#m6b22ca7ca7" y="128.16"/>
      </g>
     </g>
    </g>
    <g id="ytick_5">
     <g id="line2d_13">
      <g>
       <use style="fill:#a9a9a9;stroke:#a9a9a9;stroke-width:2;" x="9" xlink:href="#m6b22ca7ca7" y="102.96"/>
      </g>
     </g>
    </g>
    <g id="ytick_6">
     <g id="line2d_14">
      <g>
       <use style="fill:#a9a9a9;stroke:#a9a9a9;stroke-width:2;" x="9" xlink:href="#m6b22ca7ca7" y="77.76"/>
      </g>
     </g>
    </g>
   </g>
   <g id="line2d_15">
    <path clip-path="url(#pc62fc5b7ad)" d="M 10.86031 125.537305 
L 11.79031 124.40722 
L 12.72031 123.38152 
L 13.65031 122.345838 
L 14.58031 121.195048 
L 15.51031 120.64186 
L 16.44031 120.281819 
L 17.37031 119.688466 
L 18.30031 119.395277 
L 19.23031 118.509857 
L 20.16031 117.979973 
L 21.09031 117.433324 
L 22.02031 116.903114 
L 22.95031 116.41335 
L 23.88031 115.889672 
L 24.81031 115.53415 
L 25.74031 115.106271 
L 26.67031 114.735618 
L 27.60031 114.546401 
L 28.53031 114.234491 
L 29.46031 113.942498 
L 30.39031 113.765491 
L 31.32031 113.628598 
L 32.25031 113.513798 
L 33.18031 113.054307 
L 34.11031 112.942895 
L 35.04031 112.841163 
L 35.97031 112.512265 
L 36.90031 112.267087 
L 37.83031 112.114401 
L 38.76031 111.880284 
L 39.69031 111.853152 
L 40.62031 111.846022 
L 41.55031 111.8943 
L 42.48031 111.702822 
L 43.41031 111.539469 
L 44.34031 111.384397 
L 45.27031 111.220364 
L 46.20031 111.063849 
L 47.13031 111.070814 
L 48.06031 110.784224 
L 48.99031 110.640136 
L 49.92031 110.489309 
L 50.85031 110.370386 
L 51.78031 110.303731 
L 52.71031 110.061837 
L 53.64031 109.903515 
L 54.57031 109.788758 
L 55.50031 109.666522 
L 56.43031 109.449019 
L 57.36031 109.354069 
L 58.29031 109.284745 
L 59.22031 109.264368 
L 60.15031 109.145175 
L 61.08031 109.000251 
L 62.01031 108.974867 
L 62.94031 108.877969 
L 63.87031 108.719997 
" style="fill:none;stroke:#fc8d62;stroke-linecap:square;stroke-width:2;"/>
   </g>
   <g id="line2d_16">
    <path clip-path="url(#pc62fc5b7ad)" d="M 10.86031 127.650777 
L 11.79031 127.653309 
L 12.72031 127.480551 
L 13.65031 127.280824 
L 14.58031 127.020107 
L 15.51031 126.893069 
L 16.44031 126.434473 
L 17.37031 126.396727 
L 18.30031 126.304545 
L 19.23031 125.927934 
L 20.16031 125.804547 
L 21.09031 125.68619 
L 22.02031 125.373396 
L 22.95031 125.193079 
L 23.88031 125.11172 
L 24.81031 124.840404 
L 25.74031 124.648603 
L 26.67031 124.547983 
L 27.60031 124.411105 
L 28.53031 124.180454 
L 29.46031 123.931412 
L 30.39031 123.784495 
L 31.32031 123.37956 
L 32.25031 123.21094 
L 33.18031 123.124538 
L 34.11031 123.124754 
L 35.04031 123.129221 
L 35.97031 123.023147 
L 36.90031 123.003163 
L 37.83031 123.049096 
L 38.76031 122.916439 
L 39.69031 122.599045 
L 40.62031 122.348664 
L 41.55031 122.194274 
L 42.48031 122.229765 
L 43.41031 122.26736 
L 44.34031 122.152675 
L 45.27031 122.171016 
L 46.20031 122.001411 
L 47.13031 121.863793 
L 48.06031 121.741476 
L 48.99031 121.670082 
L 49.92031 121.539343 
L 50.85031 121.387896 
L 51.78031 121.400388 
L 52.71031 121.218805 
L 53.64031 121.093118 
L 54.57031 120.810915 
L 55.50031 120.802718 
L 56.43031 120.693556 
L 57.36031 120.476819 
L 58.29031 120.349572 
L 59.22031 120.337911 
L 60.15031 120.235134 
L 61.08031 120.031341 
L 62.01031 119.764527 
L 62.94031 119.934936 
L 63.87031 119.764442 
" style="fill:none;stroke:#fc8d62;stroke-dasharray:1.5,1.5;stroke-dashoffset:0;stroke-opacity:0.7;stroke-width:1.5;"/>
   </g>
   <g id="patch_8">
    <path d="M 9 128.16 
L 9 77.76 
" style="fill:none;stroke:#a9a9a9;stroke-linecap:square;stroke-linejoin:miter;stroke-width:2;"/>
   </g>
   <g id="patch_9">
    <path d="M 64.8 128.16 
L 64.8 77.76 
" style="fill:none;"/>
   </g>
   <g id="patch_10">
    <path d="M 9 128.16 
L 64.8 128.16 
" style="fill:none;stroke:#a9a9a9;stroke-linecap:square;stroke-linejoin:miter;stroke-width:2;"/>
   </g>
   <g id="patch_11">
    <path d="M 9 77.76 
L 64.8 77.76 
" style="fill:none;"/>
   </g>
  </g>
 </g>
 <defs>
  <clipPath id="pb6d4b6a760">
   <rect height="50.4" width="55.8" x="9" y="17.28"/>
  </clipPath>
  <clipPath id="pc62fc5b7ad">
   <rect height="50.4" width="55.8" x="9" y="77.76"/>
  </clipPath>
 </defs>
</svg>
