<?xml version="1.0" encoding="utf-8" standalone="no"?>
<!DOCTYPE svg PUBLIC "-//W3C//DTD SVG 1.1//EN"
  "http://www.w3.org/Graphics/SVG/1.1/DTD/svg11.dtd">
<!-- Created with matplotlib (https://matplotlib.org/) -->
<svg height="144pt" version="1.1" viewBox="0 0 72 144" width="72pt" xmlns="http://www.w3.org/2000/svg" xmlns:xlink="http://www.w3.org/1999/xlink">
 <metadata>
  <rdf:RDF xmlns:cc="http://creativecommons.org/ns#" xmlns:dc="http://purl.org/dc/elements/1.1/" xmlns:rdf="http://www.w3.org/1999/02/22-rdf-syntax-ns#">
   <cc:Work>
    <dc:type rdf:resource="http://purl.org/dc/dcmitype/StillImage"/>
    <dc:date>2021-10-12T18:33:18.811206</dc:date>
    <dc:format>image/svg+xml</dc:format>
    <dc:creator>
     <cc:Agent>
      <dc:title>Matplotlib v3.3.2, https://matplotlib.org/</dc:title>
     </cc:Agent>
    </dc:creator>
   </cc:Work>
  </rdf:RDF>
 </metadata>
 <defs>
  <style type="text/css">*{stroke-linecap:butt;stroke-linejoin:round;}</style>
 </defs>
 <g id="figure_1">
  <g id="patch_1">
   <path d="M 0 144 
L 72 144 
L 72 0 
L 0 0 
z
" style="fill:none;"/>
  </g>
  <g id="axes_1">
   <g id="patch_2">
    <path d="M 9 67.68 
L 64.8 67.68 
L 64.8 17.28 
L 9 17.28 
z
" style="fill:none;"/>
   </g>
   <g id="matplotlib.axis_1">
    <g id="xtick_1">
     <g id="line2d_1">
      <defs>
       <path d="M 0 0 
L 0 3.5 
" id="maf6754b2e5" style="stroke:#a9a9a9;stroke-width:2;"/>
      </defs>
      <g>
       <use style="fill:#a9a9a9;stroke:#a9a9a9;stroke-width:2;" x="9" xlink:href="#maf6754b2e5" y="67.68"/>
      </g>
     </g>
    </g>
    <g id="xtick_2">
     <g id="line2d_2">
      <g>
       <use style="fill:#a9a9a9;stroke:#a9a9a9;stroke-width:2;" x="36.9" xlink:href="#maf6754b2e5" y="67.68"/>
      </g>
     </g>
    </g>
    <g id="xtick_3">
     <g id="line2d_3">
      <g>
       <use style="fill:#a9a9a9;stroke:#a9a9a9;stroke-width:2;" x="64.8" xlink:href="#maf6754b2e5" y="67.68"/>
      </g>
     </g>
    </g>
   </g>
   <g id="matplotlib.axis_2">
    <g id="ytick_1">
     <g id="line2d_4">
      <defs>
       <path d="M 0 0 
L -3.5 0 
" id="mae3e017d8b" style="stroke:#a9a9a9;stroke-width:2;"/>
      </defs>
      <g>
       <use style="fill:#a9a9a9;stroke:#a9a9a9;stroke-width:2;" x="9" xlink:href="#mae3e017d8b" y="67.68"/>
      </g>
     </g>
    </g>
    <g id="ytick_2">
     <g id="line2d_5">
      <g>
       <use style="fill:#a9a9a9;stroke:#a9a9a9;stroke-width:2;" x="9" xlink:href="#mae3e017d8b" y="42.48"/>
      </g>
     </g>
    </g>
    <g id="ytick_3">
     <g id="line2d_6">
      <g>
       <use style="fill:#a9a9a9;stroke:#a9a9a9;stroke-width:2;" x="9" xlink:href="#mae3e017d8b" y="17.28"/>
      </g>
     </g>
    </g>
   </g>
   <g id="line2d_7">
    <path clip-path="url(#pfcd49546fe)" d="M 10.86031 58.888074 
L 11.79031 59.40434 
L 12.72031 59.110442 
L 13.65031 59.149069 
L 14.58031 59.072267 
L 15.51031 58.967424 
L 16.44031 58.536133 
L 17.37031 58.140947 
L 18.30031 58.068925 
L 19.23031 57.935239 
L 20.16031 57.579967 
L 21.09031 57.514053 
L 22.02031 56.657979 
L 22.95031 56.571278 
L 23.88031 55.995721 
L 24.81031 55.672431 
L 25.74031 55.13542 
L 26.67031 54.97908 
L 27.60031 54.588162 
L 28.53031 53.723632 
L 29.46031 53.674919 
L 30.39031 53.201052 
L 31.32031 52.849777 
L 32.25031 52.43897 
L 33.18031 52.21202 
L 34.11031 52.480994 
L 35.04031 51.563078 
L 35.97031 50.93175 
L 36.90031 50.579904 
L 37.83031 50.679285 
L 38.76031 50.335431 
L 39.69031 50.204189 
L 40.62031 49.673991 
L 41.55031 49.536882 
L 42.48031 48.75085 
L 43.41031 48.234087 
L 44.34031 48.24843 
L 45.27031 48.492409 
L 46.20031 48.093839 
L 47.13031 47.850842 
L 48.06031 47.731587 
L 48.99031 47.672847 
L 49.92031 47.144182 
L 50.85031 47.185064 
L 51.78031 46.703399 
L 52.71031 46.746603 
L 53.64031 46.726171 
L 54.57031 46.48363 
L 55.50031 46.437886 
L 56.43031 46.468275 
L 57.36031 46.272862 
L 58.29031 46.062321 
L 59.22031 45.68398 
L 60.15031 45.357441 
L 61.08031 45.251001 
L 62.01031 45.545877 
L 62.94031 45.788967 
L 63.87031 45.667331 
" style="fill:none;stroke:#fc8d62;stroke-linecap:square;stroke-width:2;"/>
   </g>
   <g id="line2d_8">
    <path clip-path="url(#pfcd49546fe)" d="M 10.86031 57.746468 
L 11.79031 58.021435 
L 12.72031 58.225167 
L 13.65031 58.31242 
L 14.58031 58.340697 
L 15.51031 58.248015 
L 16.44031 57.823294 
L 17.37031 57.80076 
L 18.30031 57.405849 
L 19.23031 56.869874 
L 20.16031 57.015869 
L 21.09031 56.850546 
L 22.02031 57.104413 
L 22.95031 56.767353 
L 23.88031 56.548878 
L 24.81031 55.681931 
L 25.74031 55.106343 
L 26.67031 55.598138 
L 27.60031 55.67639 
L 28.53031 55.710715 
L 29.46031 55.57531 
L 30.39031 55.375943 
L 31.32031 55.318347 
L 32.25031 55.118105 
L 33.18031 55.189681 
L 34.11031 54.963214 
L 35.04031 54.596409 
L 35.97031 54.475805 
L 36.90031 54.159906 
L 37.83031 53.762858 
L 38.76031 53.365342 
L 39.69031 53.173395 
L 40.62031 53.324358 
L 41.55031 53.346493 
L 42.48031 52.589636 
L 43.41031 52.917622 
L 44.34031 52.849286 
L 45.27031 53.095326 
L 46.20031 53.010122 
L 47.13031 52.78462 
L 48.06031 52.753888 
L 48.99031 52.297713 
L 49.92031 51.944995 
L 50.85031 51.698081 
L 51.78031 51.446029 
L 52.71031 51.119028 
L 53.64031 50.777203 
L 54.57031 50.76904 
L 55.50031 50.437166 
L 56.43031 50.172272 
L 57.36031 50.271162 
L 58.29031 50.119768 
L 59.22031 50.177637 
L 60.15031 49.851974 
L 61.08031 49.562061 
L 62.01031 49.452425 
L 62.94031 49.308494 
L 63.87031 49.221618 
" style="fill:none;stroke:#fc8d62;stroke-dasharray:1.5,1.5;stroke-dashoffset:0;stroke-opacity:0.7;stroke-width:1.5;"/>
   </g>
   <g id="patch_3">
    <path d="M 9 67.68 
L 9 17.28 
" style="fill:none;stroke:#a9a9a9;stroke-linecap:square;stroke-linejoin:miter;stroke-width:2;"/>
   </g>
   <g id="patch_4">
    <path d="M 64.8 67.68 
L 64.8 17.28 
" style="fill:none;"/>
   </g>
   <g id="patch_5">
    <path d="M 9 67.68 
L 64.8 67.68 
" style="fill:none;stroke:#a9a9a9;stroke-linecap:square;stroke-linejoin:miter;stroke-width:2;"/>
   </g>
   <g id="patch_6">
    <path d="M 9 17.28 
L 64.8 17.28 
" style="fill:none;"/>
   </g>
  </g>
  <g id="axes_2">
   <g id="patch_7">
    <path d="M 9 128.16 
L 64.8 128.16 
L 64.8 77.76 
L 9 77.76 
z
" style="fill:none;"/>
   </g>
   <g id="matplotlib.axis_3">
    <g id="xtick_4">
     <g id="line2d_9">
      <g>
       <use style="fill:#a9a9a9;stroke:#a9a9a9;stroke-width:2;" x="9" xlink:href="#maf6754b2e5" y="128.16"/>
      </g>
     </g>
    </g>
    <g id="xtick_5">
     <g id="line2d_10">
      <g>
       <use style="fill:#a9a9a9;stroke:#a9a9a9;stroke-width:2;" x="36.9" xlink:href="#maf6754b2e5" y="128.16"/>
      </g>
     </g>
    </g>
    <g id="xtick_6">
     <g id="line2d_11">
      <g>
       <use style="fill:#a9a9a9;stroke:#a9a9a9;stroke-width:2;" x="64.8" xlink:href="#maf6754b2e5" y="128.16"/>
      </g>
     </g>
    </g>
   </g>
   <g id="matplotlib.axis_4">
    <g id="ytick_4">
     <g id="line2d_12">
      <g>
       <use style="fill:#a9a9a9;stroke:#a9a9a9;stroke-width:2;" x="9" xlink:href="#mae3e017d8b" y="128.16"/>
      </g>
     </g>
    </g>
    <g id="ytick_5">
     <g id="line2d_13">
      <g>
       <use style="fill:#a9a9a9;stroke:#a9a9a9;stroke-width:2;" x="9" xlink:href="#mae3e017d8b" y="102.96"/>
      </g>
     </g>
    </g>
    <g id="ytick_6">
     <g id="line2d_14">
      <g>
       <use style="fill:#a9a9a9;stroke:#a9a9a9;stroke-width:2;" x="9" xlink:href="#mae3e017d8b" y="77.76"/>
      </g>
     </g>
    </g>
   </g>
   <g id="line2d_15">
    <path clip-path="url(#p0f0c2bfb97)" d="M 10.86031 123.686811 
L 11.79031 122.332287 
L 12.72031 121.473031 
L 13.65031 119.8232 
L 14.58031 118.704548 
L 15.51031 117.970022 
L 16.44031 117.029321 
L 17.37031 116.01421 
L 18.30031 115.141276 
L 19.23031 115.163966 
L 20.16031 114.008066 
L 21.09031 113.516581 
L 22.02031 112.84268 
L 22.95031 112.245672 
L 23.88031 111.373721 
L 24.81031 110.69097 
L 25.74031 109.841931 
L 26.67031 109.453849 
L 27.60031 109.426999 
L 28.53031 108.490191 
L 29.46031 107.821964 
L 30.39031 107.622987 
L 31.32031 107.241719 
L 32.25031 106.72247 
L 33.18031 106.365154 
L 34.11031 106.312902 
L 35.04031 105.83147 
L 35.97031 105.130496 
L 36.90031 104.794322 
L 37.83031 104.612499 
L 38.76031 104.161206 
L 39.69031 103.570784 
L 40.62031 103.195248 
L 41.55031 102.716386 
L 42.48031 102.446927 
L 43.41031 101.796114 
L 44.34031 101.392966 
L 45.27031 101.094227 
L 46.20031 100.613926 
L 47.13031 100.448281 
L 48.06031 100.05289 
L 48.99031 99.883465 
L 49.92031 99.305413 
L 50.85031 99.054373 
L 51.78031 98.878257 
L 52.71031 98.886772 
L 53.64031 98.576021 
L 54.57031 98.31405 
L 55.50031 98.090365 
L 56.43031 97.901165 
L 57.36031 97.903604 
L 58.29031 97.748611 
L 59.22031 97.421842 
L 60.15031 97.09244 
L 61.08031 96.951753 
L 62.01031 96.763874 
L 62.94031 96.700058 
L 63.87031 96.703814 
" style="fill:none;stroke:#fc8d62;stroke-linecap:square;stroke-width:2;"/>
   </g>
   <g id="line2d_16">
    <path clip-path="url(#p0f0c2bfb97)" d="M 10.86031 124.47328 
L 11.79031 124.165151 
L 12.72031 123.771304 
L 13.65031 123.260527 
L 14.58031 121.937765 
L 15.51031 120.804741 
L 16.44031 120.199259 
L 17.37031 119.927751 
L 18.30031 118.84667 
L 19.23031 117.673667 
L 20.16031 117.192147 
L 21.09031 116.525849 
L 22.02031 116.299989 
L 22.95031 116.322548 
L 23.88031 115.96917 
L 24.81031 114.881672 
L 25.74031 114.077756 
L 26.67031 113.462743 
L 27.60031 113.312156 
L 28.53031 112.910046 
L 29.46031 112.476292 
L 30.39031 112.038312 
L 31.32031 111.59755 
L 32.25031 111.08087 
L 33.18031 110.965813 
L 34.11031 110.797184 
L 35.04031 110.354963 
L 35.97031 109.886951 
L 36.90031 109.521002 
L 37.83031 108.967833 
L 38.76031 108.404373 
L 39.69031 108.212135 
L 40.62031 108.18062 
L 41.55031 108.006954 
L 42.48031 107.487103 
L 43.41031 107.82241 
L 44.34031 107.849456 
L 45.27031 107.614428 
L 46.20031 107.261598 
L 47.13031 107.352833 
L 48.06031 107.093481 
L 48.99031 106.888914 
L 49.92031 106.979223 
L 50.85031 106.667217 
L 51.78031 106.52211 
L 52.71031 106.219247 
L 53.64031 106.23872 
L 54.57031 105.988203 
L 55.50031 105.774046 
L 56.43031 105.726549 
L 57.36031 105.51439 
L 58.29031 105.295925 
L 59.22031 105.193943 
L 60.15031 104.885955 
L 61.08031 104.400855 
L 62.01031 104.325369 
L 62.94031 104.311799 
L 63.87031 104.268455 
" style="fill:none;stroke:#fc8d62;stroke-dasharray:1.5,1.5;stroke-dashoffset:0;stroke-opacity:0.7;stroke-width:1.5;"/>
   </g>
   <g id="patch_8">
    <path d="M 9 128.16 
L 9 77.76 
" style="fill:none;stroke:#a9a9a9;stroke-linecap:square;stroke-linejoin:miter;stroke-width:2;"/>
   </g>
   <g id="patch_9">
    <path d="M 64.8 128.16 
L 64.8 77.76 
" style="fill:none;"/>
   </g>
   <g id="patch_10">
    <path d="M 9 128.16 
L 64.8 128.16 
" style="fill:none;stroke:#a9a9a9;stroke-linecap:square;stroke-linejoin:miter;stroke-width:2;"/>
   </g>
   <g id="patch_11">
    <path d="M 9 77.76 
L 64.8 77.76 
" style="fill:none;"/>
   </g>
  </g>
 </g>
 <defs>
  <clipPath id="pfcd49546fe">
   <rect height="50.4" width="55.8" x="9" y="17.28"/>
  </clipPath>
  <clipPath id="p0f0c2bfb97">
   <rect height="50.4" width="55.8" x="9" y="77.76"/>
  </clipPath>
 </defs>
</svg>
