<?xml version="1.0" encoding="utf-8" standalone="no"?>
<!DOCTYPE svg PUBLIC "-//W3C//DTD SVG 1.1//EN"
  "http://www.w3.org/Graphics/SVG/1.1/DTD/svg11.dtd">
<!-- Created with matplotlib (https://matplotlib.org/) -->
<svg height="144pt" version="1.1" viewBox="0 0 72 144" width="72pt" xmlns="http://www.w3.org/2000/svg" xmlns:xlink="http://www.w3.org/1999/xlink">
 <metadata>
  <rdf:RDF xmlns:cc="http://creativecommons.org/ns#" xmlns:dc="http://purl.org/dc/elements/1.1/" xmlns:rdf="http://www.w3.org/1999/02/22-rdf-syntax-ns#">
   <cc:Work>
    <dc:type rdf:resource="http://purl.org/dc/dcmitype/StillImage"/>
    <dc:date>2021-10-13T15:41:56.783263</dc:date>
    <dc:format>image/svg+xml</dc:format>
    <dc:creator>
     <cc:Agent>
      <dc:title>Matplotlib v3.3.2, https://matplotlib.org/</dc:title>
     </cc:Agent>
    </dc:creator>
   </cc:Work>
  </rdf:RDF>
 </metadata>
 <defs>
  <style type="text/css">*{stroke-linecap:butt;stroke-linejoin:round;}</style>
 </defs>
 <g id="figure_1">
  <g id="patch_1">
   <path d="M 0 144 
L 72 144 
L 72 0 
L 0 0 
z
" style="fill:none;"/>
  </g>
  <g id="axes_1">
   <g id="patch_2">
    <path d="M 9 67.68 
L 64.8 67.68 
L 64.8 17.28 
L 9 17.28 
z
" style="fill:none;"/>
   </g>
   <g id="matplotlib.axis_1">
    <g id="xtick_1">
     <g id="line2d_1">
      <defs>
       <path d="M 0 0 
L 0 3.5 
" id="m2c1db581e8" style="stroke:#a9a9a9;stroke-width:2;"/>
      </defs>
      <g>
       <use style="fill:#a9a9a9;stroke:#a9a9a9;stroke-width:2;" x="9" xlink:href="#m2c1db581e8" y="67.68"/>
      </g>
     </g>
    </g>
    <g id="xtick_2">
     <g id="line2d_2">
      <g>
       <use style="fill:#a9a9a9;stroke:#a9a9a9;stroke-width:2;" x="36.9" xlink:href="#m2c1db581e8" y="67.68"/>
      </g>
     </g>
    </g>
    <g id="xtick_3">
     <g id="line2d_3">
      <g>
       <use style="fill:#a9a9a9;stroke:#a9a9a9;stroke-width:2;" x="64.8" xlink:href="#m2c1db581e8" y="67.68"/>
      </g>
     </g>
    </g>
   </g>
   <g id="matplotlib.axis_2">
    <g id="ytick_1">
     <g id="line2d_4">
      <defs>
       <path d="M 0 0 
L -3.5 0 
" id="mdcd46072ec" style="stroke:#a9a9a9;stroke-width:2;"/>
      </defs>
      <g>
       <use style="fill:#a9a9a9;stroke:#a9a9a9;stroke-width:2;" x="9" xlink:href="#mdcd46072ec" y="67.68"/>
      </g>
     </g>
    </g>
    <g id="ytick_2">
     <g id="line2d_5">
      <g>
       <use style="fill:#a9a9a9;stroke:#a9a9a9;stroke-width:2;" x="9" xlink:href="#mdcd46072ec" y="48.162048"/>
      </g>
     </g>
    </g>
    <g id="ytick_3">
     <g id="line2d_6">
      <g>
       <use style="fill:#a9a9a9;stroke:#a9a9a9;stroke-width:2;" x="9" xlink:href="#mdcd46072ec" y="28.644096"/>
      </g>
     </g>
    </g>
   </g>
   <g id="line2d_7">
    <path clip-path="url(#p4c4b5be278)" d="M 10.86031 58.803924 
L 11.79031 56.248432 
L 12.72031 54.691597 
L 13.65031 52.827407 
L 14.58031 51.168863 
L 15.51031 50.605376 
L 16.44031 49.739793 
L 17.37031 49.556037 
L 18.30031 47.876881 
L 19.23031 47.240496 
L 20.16031 46.900155 
L 21.09031 45.708715 
L 22.02031 45.065846 
L 22.95031 44.202512 
L 23.88031 43.815291 
L 24.81031 42.842935 
L 25.74031 41.805238 
L 26.67031 41.076593 
L 27.60031 40.455122 
L 28.53031 39.41529 
L 29.46031 38.283019 
L 30.39031 37.74187 
L 31.32031 36.63746 
L 32.25031 36.136372 
L 33.18031 34.530561 
L 34.11031 33.402177 
L 35.04031 32.807576 
L 35.97031 32.392918 
L 36.90031 31.362739 
L 37.83031 31.082091 
L 38.76031 30.851461 
L 39.69031 30.324392 
L 40.62031 29.406211 
L 41.55031 28.815918 
L 42.48031 28.588016 
L 43.41031 27.247185 
L 44.34031 27.287054 
L 45.27031 26.316315 
L 46.20031 24.948032 
L 47.13031 24.194079 
L 48.06031 24.145711 
L 48.99031 23.361365 
L 49.92031 22.900132 
L 50.85031 21.980092 
L 51.78031 21.842924 
L 52.71031 21.098604 
L 53.64031 21.14033 
L 54.57031 20.784786 
L 55.50031 20.403398 
L 56.43031 20.684107 
L 57.36031 20.868019 
L 58.29031 20.112245 
L 59.22031 20.338936 
L 60.15031 19.869379 
L 61.08031 19.022401 
L 62.01031 18.819571 
L 62.94031 19.309532 
L 63.87031 18.255898 
" style="fill:none;stroke:#fc8d62;stroke-linecap:square;stroke-width:2;"/>
   </g>
   <g id="line2d_8">
    <path clip-path="url(#p4c4b5be278)" d="M 10.86031 61.734722 
L 11.79031 61.586935 
L 12.72031 59.804607 
L 13.65031 59.635287 
L 14.58031 59.176804 
L 15.51031 58.555849 
L 16.44031 58.313011 
L 17.37031 57.416641 
L 18.30031 56.390939 
L 19.23031 55.277868 
L 20.16031 54.933542 
L 21.09031 54.638434 
L 22.02031 54.189832 
L 22.95031 53.715879 
L 23.88031 53.495454 
L 24.81031 53.155534 
L 25.74031 52.708731 
L 26.67031 52.616974 
L 27.60031 52.52393 
L 28.53031 52.057081 
L 29.46031 51.782677 
L 30.39031 51.614209 
L 31.32031 51.638556 
L 32.25031 51.61508 
L 33.18031 51.354564 
L 34.11031 51.415364 
L 35.04031 50.46984 
L 35.97031 50.266693 
L 36.90031 50.294442 
L 37.83031 49.768034 
L 38.76031 49.567138 
L 39.69031 49.4578 
L 40.62031 48.837944 
L 41.55031 48.469471 
L 42.48031 48.169338 
L 43.41031 47.8091 
L 44.34031 47.839654 
L 45.27031 47.497048 
L 46.20031 47.320502 
L 47.13031 46.99611 
L 48.06031 46.947242 
L 48.99031 46.318289 
L 49.92031 46.069441 
L 50.85031 45.678038 
L 51.78031 45.654748 
L 52.71031 45.65929 
L 53.64031 45.615571 
L 54.57031 45.625224 
L 55.50031 45.132978 
L 56.43031 44.97728 
L 57.36031 45.136608 
L 58.29031 45.205561 
L 59.22031 44.6984 
L 60.15031 44.641625 
L 61.08031 44.256444 
L 62.01031 43.756917 
L 62.94031 43.22309 
L 63.87031 43.40506 
" style="fill:none;stroke:#fc8d62;stroke-dasharray:1.5,1.5;stroke-dashoffset:0;stroke-opacity:0.7;stroke-width:1.5;"/>
   </g>
   <g id="patch_3">
    <path d="M 9 67.68 
L 9 17.28 
" style="fill:none;stroke:#a9a9a9;stroke-linecap:square;stroke-linejoin:miter;stroke-width:2;"/>
   </g>
   <g id="patch_4">
    <path d="M 64.8 67.68 
L 64.8 17.28 
" style="fill:none;"/>
   </g>
   <g id="patch_5">
    <path d="M 9 67.68 
L 64.8 67.68 
" style="fill:none;stroke:#a9a9a9;stroke-linecap:square;stroke-linejoin:miter;stroke-width:2;"/>
   </g>
   <g id="patch_6">
    <path d="M 9 17.28 
L 64.8 17.28 
" style="fill:none;"/>
   </g>
  </g>
  <g id="axes_2">
   <g id="patch_7">
    <path d="M 9 128.16 
L 64.8 128.16 
L 64.8 77.76 
L 9 77.76 
z
" style="fill:none;"/>
   </g>
   <g id="matplotlib.axis_3">
    <g id="xtick_4">
     <g id="line2d_9">
      <g>
       <use style="fill:#a9a9a9;stroke:#a9a9a9;stroke-width:2;" x="9" xlink:href="#m2c1db581e8" y="128.16"/>
      </g>
     </g>
    </g>
    <g id="xtick_5">
     <g id="line2d_10">
      <g>
       <use style="fill:#a9a9a9;stroke:#a9a9a9;stroke-width:2;" x="36.9" xlink:href="#m2c1db581e8" y="128.16"/>
      </g>
     </g>
    </g>
    <g id="xtick_6">
     <g id="line2d_11">
      <g>
       <use style="fill:#a9a9a9;stroke:#a9a9a9;stroke-width:2;" x="64.8" xlink:href="#m2c1db581e8" y="128.16"/>
      </g>
     </g>
    </g>
   </g>
   <g id="matplotlib.axis_4">
    <g id="ytick_4">
     <g id="line2d_12">
      <g>
       <use style="fill:#a9a9a9;stroke:#a9a9a9;stroke-width:2;" x="9" xlink:href="#mdcd46072ec" y="128.16"/>
      </g>
     </g>
    </g>
    <g id="ytick_5">
     <g id="line2d_13">
      <g>
       <use style="fill:#a9a9a9;stroke:#a9a9a9;stroke-width:2;" x="9" xlink:href="#mdcd46072ec" y="102.96"/>
      </g>
     </g>
    </g>
    <g id="ytick_6">
     <g id="line2d_14">
      <g>
       <use style="fill:#a9a9a9;stroke:#a9a9a9;stroke-width:2;" x="9" xlink:href="#mdcd46072ec" y="77.76"/>
      </g>
     </g>
    </g>
   </g>
   <g id="line2d_15">
    <path clip-path="url(#p757ea117ce)" d="M 10.86031 115.99858 
L 11.79031 112.014837 
L 12.72031 108.189562 
L 13.65031 105.304808 
L 14.58031 103.833545 
L 15.51031 101.65276 
L 16.44031 99.961912 
L 17.37031 99.129253 
L 18.30031 97.954097 
L 19.23031 97.338108 
L 20.16031 96.664119 
L 21.09031 96.136752 
L 22.02031 95.599725 
L 22.95031 95.181198 
L 23.88031 94.823009 
L 24.81031 94.525451 
L 25.74031 93.964615 
L 26.67031 93.480016 
L 27.60031 93.091211 
L 28.53031 92.836107 
L 29.46031 92.426532 
L 30.39031 92.299411 
L 31.32031 91.823686 
L 32.25031 91.582395 
L 33.18031 91.320472 
L 34.11031 91.115647 
L 35.04031 91.025216 
L 35.97031 90.793835 
L 36.90031 90.593539 
L 37.83031 90.50881 
L 38.76031 90.462542 
L 39.69031 90.269118 
L 40.62031 90.074688 
L 41.55031 89.840237 
L 42.48031 89.710332 
L 43.41031 89.421726 
L 44.34031 89.376758 
L 45.27031 89.28044 
L 46.20031 89.135188 
L 47.13031 89.06679 
L 48.06031 88.988643 
L 48.99031 88.848131 
L 49.92031 88.705593 
L 50.85031 88.467175 
L 51.78031 88.393037 
L 52.71031 88.301313 
L 53.64031 88.25509 
L 54.57031 88.279406 
L 55.50031 88.167316 
L 56.43031 88.149605 
L 57.36031 88.15393 
L 58.29031 88.058636 
L 59.22031 87.980654 
L 60.15031 87.920214 
L 61.08031 87.850006 
L 62.01031 87.837686 
L 62.94031 87.842823 
L 63.87031 87.706382 
" style="fill:none;stroke:#fc8d62;stroke-linecap:square;stroke-width:2;"/>
   </g>
   <g id="line2d_16">
    <path clip-path="url(#p757ea117ce)" d="M 10.86031 123.095817 
L 11.79031 121.257918 
L 12.72031 119.205034 
L 13.65031 117.220306 
L 14.58031 115.451789 
L 15.51031 114.043667 
L 16.44031 113.084876 
L 17.37031 112.173482 
L 18.30031 111.287577 
L 19.23031 110.221916 
L 20.16031 109.063193 
L 21.09031 108.836572 
L 22.02031 107.865936 
L 22.95031 107.369202 
L 23.88031 106.268197 
L 24.81031 105.783292 
L 25.74031 105.346038 
L 26.67031 104.986694 
L 27.60031 104.874677 
L 28.53031 104.624843 
L 29.46031 104.210031 
L 30.39031 103.904395 
L 31.32031 103.28189 
L 32.25031 103.169877 
L 33.18031 102.828008 
L 34.11031 102.70661 
L 35.04031 102.118564 
L 35.97031 101.880676 
L 36.90031 101.725541 
L 37.83031 101.12177 
L 38.76031 100.666145 
L 39.69031 100.515529 
L 40.62031 100.321159 
L 41.55031 99.888032 
L 42.48031 99.827467 
L 43.41031 99.523059 
L 44.34031 99.535246 
L 45.27031 99.160628 
L 46.20031 99.2649 
L 47.13031 99.052757 
L 48.06031 98.938952 
L 48.99031 98.642671 
L 49.92031 98.240914 
L 50.85031 97.954054 
L 51.78031 97.767582 
L 52.71031 97.654091 
L 53.64031 97.624473 
L 54.57031 97.491196 
L 55.50031 97.322165 
L 56.43031 97.18109 
L 57.36031 97.111358 
L 58.29031 97.072714 
L 59.22031 96.887152 
L 60.15031 96.833802 
L 61.08031 96.538849 
L 62.01031 96.454132 
L 62.94031 96.349685 
L 63.87031 96.325385 
" style="fill:none;stroke:#fc8d62;stroke-dasharray:1.5,1.5;stroke-dashoffset:0;stroke-opacity:0.7;stroke-width:1.5;"/>
   </g>
   <g id="patch_8">
    <path d="M 9 128.16 
L 9 77.76 
" style="fill:none;stroke:#a9a9a9;stroke-linecap:square;stroke-linejoin:miter;stroke-width:2;"/>
   </g>
   <g id="patch_9">
    <path d="M 64.8 128.16 
L 64.8 77.76 
" style="fill:none;"/>
   </g>
   <g id="patch_10">
    <path d="M 9 128.16 
L 64.8 128.16 
" style="fill:none;stroke:#a9a9a9;stroke-linecap:square;stroke-linejoin:miter;stroke-width:2;"/>
   </g>
   <g id="patch_11">
    <path d="M 9 77.76 
L 64.8 77.76 
" style="fill:none;"/>
   </g>
  </g>
 </g>
 <defs>
  <clipPath id="p4c4b5be278">
   <rect height="50.4" width="55.8" x="9" y="17.28"/>
  </clipPath>
  <clipPath id="p757ea117ce">
   <rect height="50.4" width="55.8" x="9" y="77.76"/>
  </clipPath>
 </defs>
</svg>
