<?xml version="1.0" encoding="utf-8" standalone="no"?>
<!DOCTYPE svg PUBLIC "-//W3C//DTD SVG 1.1//EN"
  "http://www.w3.org/Graphics/SVG/1.1/DTD/svg11.dtd">
<!-- Created with matplotlib (https://matplotlib.org/) -->
<svg height="144pt" version="1.1" viewBox="0 0 72 144" width="72pt" xmlns="http://www.w3.org/2000/svg" xmlns:xlink="http://www.w3.org/1999/xlink">
 <metadata>
  <rdf:RDF xmlns:cc="http://creativecommons.org/ns#" xmlns:dc="http://purl.org/dc/elements/1.1/" xmlns:rdf="http://www.w3.org/1999/02/22-rdf-syntax-ns#">
   <cc:Work>
    <dc:type rdf:resource="http://purl.org/dc/dcmitype/StillImage"/>
    <dc:date>2021-10-13T15:29:46.966410</dc:date>
    <dc:format>image/svg+xml</dc:format>
    <dc:creator>
     <cc:Agent>
      <dc:title>Matplotlib v3.3.2, https://matplotlib.org/</dc:title>
     </cc:Agent>
    </dc:creator>
   </cc:Work>
  </rdf:RDF>
 </metadata>
 <defs>
  <style type="text/css">*{stroke-linecap:butt;stroke-linejoin:round;}</style>
 </defs>
 <g id="figure_1">
  <g id="patch_1">
   <path d="M 0 144 
L 72 144 
L 72 0 
L 0 0 
z
" style="fill:none;"/>
  </g>
  <g id="axes_1">
   <g id="patch_2">
    <path d="M 9 67.68 
L 64.8 67.68 
L 64.8 17.28 
L 9 17.28 
z
" style="fill:none;"/>
   </g>
   <g id="matplotlib.axis_1">
    <g id="xtick_1">
     <g id="line2d_1">
      <defs>
       <path d="M 0 0 
L 0 3.5 
" id="m8b31917838" style="stroke:#a9a9a9;stroke-width:2;"/>
      </defs>
      <g>
       <use style="fill:#a9a9a9;stroke:#a9a9a9;stroke-width:2;" x="9" xlink:href="#m8b31917838" y="67.68"/>
      </g>
     </g>
    </g>
    <g id="xtick_2">
     <g id="line2d_2">
      <g>
       <use style="fill:#a9a9a9;stroke:#a9a9a9;stroke-width:2;" x="36.9" xlink:href="#m8b31917838" y="67.68"/>
      </g>
     </g>
    </g>
    <g id="xtick_3">
     <g id="line2d_3">
      <g>
       <use style="fill:#a9a9a9;stroke:#a9a9a9;stroke-width:2;" x="64.8" xlink:href="#m8b31917838" y="67.68"/>
      </g>
     </g>
    </g>
   </g>
   <g id="matplotlib.axis_2">
    <g id="ytick_1">
     <g id="line2d_4">
      <defs>
       <path d="M 0 0 
L -3.5 0 
" id="m1072ed760b" style="stroke:#a9a9a9;stroke-width:2;"/>
      </defs>
      <g>
       <use style="fill:#a9a9a9;stroke:#a9a9a9;stroke-width:2;" x="9" xlink:href="#m1072ed760b" y="67.68"/>
      </g>
     </g>
    </g>
    <g id="ytick_2">
     <g id="line2d_5">
      <g>
       <use style="fill:#a9a9a9;stroke:#a9a9a9;stroke-width:2;" x="9" xlink:href="#m1072ed760b" y="42.48"/>
      </g>
     </g>
    </g>
    <g id="ytick_3">
     <g id="line2d_6">
      <g>
       <use style="fill:#a9a9a9;stroke:#a9a9a9;stroke-width:2;" x="9" xlink:href="#m1072ed760b" y="17.28"/>
      </g>
     </g>
    </g>
   </g>
   <g id="line2d_7">
    <path clip-path="url(#pbc2ede5f54)" d="M 10.86031 61.436829 
L 11.79031 60.906804 
L 12.72031 60.316611 
L 13.65031 58.760285 
L 14.58031 57.918168 
L 15.51031 56.663523 
L 16.44031 56.068724 
L 17.37031 55.886133 
L 18.30031 54.974106 
L 19.23031 54.063815 
L 20.16031 52.650581 
L 21.09031 52.74613 
L 22.02031 52.177947 
L 22.95031 51.314453 
L 23.88031 51.478112 
L 24.81031 50.830603 
L 25.74031 50.923214 
L 26.67031 50.026169 
L 27.60031 48.840861 
L 28.53031 48.518776 
L 29.46031 48.022217 
L 30.39031 47.865304 
L 31.32031 47.621659 
L 32.25031 47.141386 
L 33.18031 46.87598 
L 34.11031 46.799977 
L 35.04031 46.306382 
L 35.97031 45.891776 
L 36.90031 45.842351 
L 37.83031 45.721306 
L 38.76031 45.681554 
L 39.69031 45.366561 
L 40.62031 45.188903 
L 41.55031 45.460915 
L 42.48031 45.232766 
L 43.41031 45.161204 
L 44.34031 45.006055 
L 45.27031 44.581934 
L 46.20031 44.286034 
L 47.13031 43.658463 
L 48.06031 43.543184 
L 48.99031 42.975436 
L 49.92031 42.555568 
L 50.85031 42.503799 
L 51.78031 42.419441 
L 52.71031 42.221263 
L 53.64031 42.204425 
L 54.57031 42.005862 
L 55.50031 41.918513 
L 56.43031 41.66849 
L 57.36031 41.901537 
L 58.29031 41.896732 
L 59.22031 41.377319 
L 60.15031 41.315444 
L 61.08031 41.23973 
L 62.01031 40.731142 
L 62.94031 40.350612 
L 63.87031 40.250029 
" style="fill:none;stroke:#fc8d62;stroke-linecap:square;stroke-width:2;"/>
   </g>
   <g id="line2d_8">
    <path clip-path="url(#pbc2ede5f54)" d="M 10.86031 60.269595 
L 11.79031 59.412338 
L 12.72031 58.577873 
L 13.65031 57.266335 
L 14.58031 56.204997 
L 15.51031 55.652042 
L 16.44031 54.87191 
L 17.37031 54.391033 
L 18.30031 53.517501 
L 19.23031 53.177904 
L 20.16031 51.770667 
L 21.09031 51.531751 
L 22.02031 51.258264 
L 22.95031 50.56112 
L 23.88031 50.159972 
L 24.81031 50.551096 
L 25.74031 50.437416 
L 26.67031 50.300947 
L 27.60031 49.680677 
L 28.53031 49.283233 
L 29.46031 49.417015 
L 30.39031 48.987896 
L 31.32031 48.915968 
L 32.25031 47.809873 
L 33.18031 47.714046 
L 34.11031 47.645663 
L 35.04031 47.251774 
L 35.97031 46.958941 
L 36.90031 46.551274 
L 37.83031 45.733967 
L 38.76031 45.531797 
L 39.69031 45.117693 
L 40.62031 44.629127 
L 41.55031 44.418168 
L 42.48031 43.569844 
L 43.41031 42.486375 
L 44.34031 42.073192 
L 45.27031 41.980635 
L 46.20031 42.355816 
L 47.13031 42.072893 
L 48.06031 41.787517 
L 48.99031 41.411508 
L 49.92031 41.266638 
L 50.85031 41.135333 
L 51.78031 40.410989 
L 52.71031 39.839475 
L 53.64031 39.368732 
L 54.57031 39.440244 
L 55.50031 39.769879 
L 56.43031 39.362719 
L 57.36031 39.086614 
L 58.29031 38.557297 
L 59.22031 37.931284 
L 60.15031 37.094242 
L 61.08031 36.910039 
L 62.01031 36.433654 
L 62.94031 36.466626 
L 63.87031 35.86002 
" style="fill:none;stroke:#fc8d62;stroke-dasharray:1.5,1.5;stroke-dashoffset:0;stroke-opacity:0.7;stroke-width:1.5;"/>
   </g>
   <g id="patch_3">
    <path d="M 9 67.68 
L 9 17.28 
" style="fill:none;stroke:#a9a9a9;stroke-linecap:square;stroke-linejoin:miter;stroke-width:2;"/>
   </g>
   <g id="patch_4">
    <path d="M 64.8 67.68 
L 64.8 17.28 
" style="fill:none;"/>
   </g>
   <g id="patch_5">
    <path d="M 9 67.68 
L 64.8 67.68 
" style="fill:none;stroke:#a9a9a9;stroke-linecap:square;stroke-linejoin:miter;stroke-width:2;"/>
   </g>
   <g id="patch_6">
    <path d="M 9 17.28 
L 64.8 17.28 
" style="fill:none;"/>
   </g>
  </g>
  <g id="axes_2">
   <g id="patch_7">
    <path d="M 9 128.16 
L 64.8 128.16 
L 64.8 77.76 
L 9 77.76 
z
" style="fill:none;"/>
   </g>
   <g id="matplotlib.axis_3">
    <g id="xtick_4">
     <g id="line2d_9">
      <g>
       <use style="fill:#a9a9a9;stroke:#a9a9a9;stroke-width:2;" x="9" xlink:href="#m8b31917838" y="128.16"/>
      </g>
     </g>
    </g>
    <g id="xtick_5">
     <g id="line2d_10">
      <g>
       <use style="fill:#a9a9a9;stroke:#a9a9a9;stroke-width:2;" x="36.9" xlink:href="#m8b31917838" y="128.16"/>
      </g>
     </g>
    </g>
    <g id="xtick_6">
     <g id="line2d_11">
      <g>
       <use style="fill:#a9a9a9;stroke:#a9a9a9;stroke-width:2;" x="64.8" xlink:href="#m8b31917838" y="128.16"/>
      </g>
     </g>
    </g>
   </g>
   <g id="matplotlib.axis_4">
    <g id="ytick_4">
     <g id="line2d_12">
      <g>
       <use style="fill:#a9a9a9;stroke:#a9a9a9;stroke-width:2;" x="9" xlink:href="#m1072ed760b" y="128.16"/>
      </g>
     </g>
    </g>
    <g id="ytick_5">
     <g id="line2d_13">
      <g>
       <use style="fill:#a9a9a9;stroke:#a9a9a9;stroke-width:2;" x="9" xlink:href="#m1072ed760b" y="102.96"/>
      </g>
     </g>
    </g>
    <g id="ytick_6">
     <g id="line2d_14">
      <g>
       <use style="fill:#a9a9a9;stroke:#a9a9a9;stroke-width:2;" x="9" xlink:href="#m1072ed760b" y="77.76"/>
      </g>
     </g>
    </g>
   </g>
   <g id="line2d_15">
    <path clip-path="url(#p78f9d5932a)" d="M 10.86031 126.279817 
L 11.79031 124.897882 
L 12.72031 124.06843 
L 13.65031 122.870972 
L 14.58031 121.647698 
L 15.51031 121.19824 
L 16.44031 120.853723 
L 17.37031 119.784114 
L 18.30031 118.854581 
L 19.23031 118.741643 
L 20.16031 118.228874 
L 21.09031 117.754612 
L 22.02031 117.573445 
L 22.95031 117.014457 
L 23.88031 116.714715 
L 24.81031 116.172655 
L 25.74031 115.716772 
L 26.67031 115.68983 
L 27.60031 115.560583 
L 28.53031 115.494023 
L 29.46031 114.950136 
L 30.39031 114.78398 
L 31.32031 114.582922 
L 32.25031 114.15828 
L 33.18031 114.011533 
L 34.11031 113.620848 
L 35.04031 113.574139 
L 35.97031 113.327003 
L 36.90031 112.893424 
L 37.83031 112.965127 
L 38.76031 112.706907 
L 39.69031 112.6884 
L 40.62031 112.321911 
L 41.55031 112.123055 
L 42.48031 111.964368 
L 43.41031 111.861993 
L 44.34031 111.660336 
L 45.27031 111.499549 
L 46.20031 111.132775 
L 47.13031 110.910886 
L 48.06031 110.726012 
L 48.99031 110.487207 
L 49.92031 110.262209 
L 50.85031 110.140378 
L 51.78031 110.101254 
L 52.71031 110.0511 
L 53.64031 109.96291 
L 54.57031 109.861566 
L 55.50031 109.837476 
L 56.43031 109.795404 
L 57.36031 109.68899 
L 58.29031 109.68941 
L 59.22031 109.680928 
L 60.15031 109.889926 
L 61.08031 109.735118 
L 62.01031 109.742472 
L 62.94031 109.699816 
L 63.87031 109.683905 
" style="fill:none;stroke:#fc8d62;stroke-linecap:square;stroke-width:2;"/>
   </g>
   <g id="line2d_16">
    <path clip-path="url(#p78f9d5932a)" d="M 10.86031 125.986776 
L 11.79031 123.941027 
L 12.72031 122.407911 
L 13.65031 121.254304 
L 14.58031 120.183142 
L 15.51031 118.539947 
L 16.44031 117.328405 
L 17.37031 116.252932 
L 18.30031 115.123781 
L 19.23031 114.39243 
L 20.16031 113.373069 
L 21.09031 112.855316 
L 22.02031 112.395891 
L 22.95031 111.716684 
L 23.88031 111.171166 
L 24.81031 110.656096 
L 25.74031 110.791545 
L 26.67031 110.299834 
L 27.60031 109.89111 
L 28.53031 109.116594 
L 29.46031 109.07591 
L 30.39031 108.56005 
L 31.32031 108.259539 
L 32.25031 107.759789 
L 33.18031 107.52119 
L 34.11031 107.221961 
L 35.04031 106.750758 
L 35.97031 106.595065 
L 36.90031 106.123774 
L 37.83031 105.650429 
L 38.76031 105.387084 
L 39.69031 105.400706 
L 40.62031 104.945467 
L 41.55031 104.604431 
L 42.48031 104.160027 
L 43.41031 103.896104 
L 44.34031 103.857412 
L 45.27031 103.877654 
L 46.20031 103.866286 
L 47.13031 103.747736 
L 48.06031 103.513986 
L 48.99031 103.222413 
L 49.92031 103.097231 
L 50.85031 102.903962 
L 51.78031 102.704377 
L 52.71031 102.570306 
L 53.64031 102.393425 
L 54.57031 102.255005 
L 55.50031 102.312906 
L 56.43031 102.260162 
L 57.36031 102.082313 
L 58.29031 101.923106 
L 59.22031 101.856529 
L 60.15031 101.496819 
L 61.08031 101.382399 
L 62.01031 101.191863 
L 62.94031 101.022319 
L 63.87031 100.884665 
" style="fill:none;stroke:#fc8d62;stroke-dasharray:1.5,1.5;stroke-dashoffset:0;stroke-opacity:0.7;stroke-width:1.5;"/>
   </g>
   <g id="patch_8">
    <path d="M 9 128.16 
L 9 77.76 
" style="fill:none;stroke:#a9a9a9;stroke-linecap:square;stroke-linejoin:miter;stroke-width:2;"/>
   </g>
   <g id="patch_9">
    <path d="M 64.8 128.16 
L 64.8 77.76 
" style="fill:none;"/>
   </g>
   <g id="patch_10">
    <path d="M 9 128.16 
L 64.8 128.16 
" style="fill:none;stroke:#a9a9a9;stroke-linecap:square;stroke-linejoin:miter;stroke-width:2;"/>
   </g>
   <g id="patch_11">
    <path d="M 9 77.76 
L 64.8 77.76 
" style="fill:none;"/>
   </g>
  </g>
 </g>
 <defs>
  <clipPath id="pbc2ede5f54">
   <rect height="50.4" width="55.8" x="9" y="17.28"/>
  </clipPath>
  <clipPath id="p78f9d5932a">
   <rect height="50.4" width="55.8" x="9" y="77.76"/>
  </clipPath>
 </defs>
</svg>
