<?xml version="1.0" encoding="utf-8" standalone="no"?>
<!DOCTYPE svg PUBLIC "-//W3C//DTD SVG 1.1//EN"
  "http://www.w3.org/Graphics/SVG/1.1/DTD/svg11.dtd">
<!-- Created with matplotlib (https://matplotlib.org/) -->
<svg height="144pt" version="1.1" viewBox="0 0 72 144" width="72pt" xmlns="http://www.w3.org/2000/svg" xmlns:xlink="http://www.w3.org/1999/xlink">
 <metadata>
  <rdf:RDF xmlns:cc="http://creativecommons.org/ns#" xmlns:dc="http://purl.org/dc/elements/1.1/" xmlns:rdf="http://www.w3.org/1999/02/22-rdf-syntax-ns#">
   <cc:Work>
    <dc:type rdf:resource="http://purl.org/dc/dcmitype/StillImage"/>
    <dc:date>2021-10-12T18:34:09.554942</dc:date>
    <dc:format>image/svg+xml</dc:format>
    <dc:creator>
     <cc:Agent>
      <dc:title>Matplotlib v3.3.2, https://matplotlib.org/</dc:title>
     </cc:Agent>
    </dc:creator>
   </cc:Work>
  </rdf:RDF>
 </metadata>
 <defs>
  <style type="text/css">*{stroke-linecap:butt;stroke-linejoin:round;}</style>
 </defs>
 <g id="figure_1">
  <g id="patch_1">
   <path d="M 0 144 
L 72 144 
L 72 0 
L 0 0 
z
" style="fill:none;"/>
  </g>
  <g id="axes_1">
   <g id="patch_2">
    <path d="M 9 67.68 
L 64.8 67.68 
L 64.8 17.28 
L 9 17.28 
z
" style="fill:none;"/>
   </g>
   <g id="matplotlib.axis_1">
    <g id="xtick_1">
     <g id="line2d_1">
      <defs>
       <path d="M 0 0 
L 0 3.5 
" id="mf614d79ce3" style="stroke:#a9a9a9;stroke-width:2;"/>
      </defs>
      <g>
       <use style="fill:#a9a9a9;stroke:#a9a9a9;stroke-width:2;" x="9" xlink:href="#mf614d79ce3" y="67.68"/>
      </g>
     </g>
    </g>
    <g id="xtick_2">
     <g id="line2d_2">
      <g>
       <use style="fill:#a9a9a9;stroke:#a9a9a9;stroke-width:2;" x="36.9" xlink:href="#mf614d79ce3" y="67.68"/>
      </g>
     </g>
    </g>
    <g id="xtick_3">
     <g id="line2d_3">
      <g>
       <use style="fill:#a9a9a9;stroke:#a9a9a9;stroke-width:2;" x="64.8" xlink:href="#mf614d79ce3" y="67.68"/>
      </g>
     </g>
    </g>
   </g>
   <g id="matplotlib.axis_2">
    <g id="ytick_1">
     <g id="line2d_4">
      <defs>
       <path d="M 0 0 
L -3.5 0 
" id="me3a0b5f051" style="stroke:#a9a9a9;stroke-width:2;"/>
      </defs>
      <g>
       <use style="fill:#a9a9a9;stroke:#a9a9a9;stroke-width:2;" x="9" xlink:href="#me3a0b5f051" y="67.68"/>
      </g>
     </g>
    </g>
    <g id="ytick_2">
     <g id="line2d_5">
      <g>
       <use style="fill:#a9a9a9;stroke:#a9a9a9;stroke-width:2;" x="9" xlink:href="#me3a0b5f051" y="42.48"/>
      </g>
     </g>
    </g>
    <g id="ytick_3">
     <g id="line2d_6">
      <g>
       <use style="fill:#a9a9a9;stroke:#a9a9a9;stroke-width:2;" x="9" xlink:href="#me3a0b5f051" y="17.28"/>
      </g>
     </g>
    </g>
   </g>
   <g id="line2d_7">
    <path clip-path="url(#p87490bf096)" d="M 10.86031 59.384896 
L 11.79031 60.538889 
L 12.72031 59.844965 
L 13.65031 59.951643 
L 14.58031 60.991467 
L 15.51031 61.921459 
L 16.44031 61.752429 
L 17.37031 61.033748 
L 18.30031 61.225435 
L 19.23031 60.272537 
L 20.16031 60.194543 
L 21.09031 60.441924 
L 22.02031 60.117453 
L 22.95031 59.644888 
L 23.88031 59.965928 
L 24.81031 60.043295 
L 25.74031 60.403939 
L 26.67031 60.795182 
L 27.60031 60.630169 
L 28.53031 60.43051 
L 29.46031 59.544055 
L 30.39031 58.516157 
L 31.32031 57.987159 
L 32.25031 57.626969 
L 33.18031 58.178292 
L 34.11031 59.100041 
L 35.04031 59.238354 
L 35.97031 59.07547 
L 36.90031 58.68616 
L 37.83031 58.571666 
L 38.76031 58.396326 
L 39.69031 58.052376 
L 40.62031 57.704578 
L 41.55031 57.231987 
L 42.48031 57.076725 
L 43.41031 57.112 
L 44.34031 57.473958 
L 45.27031 57.549038 
L 46.20031 57.769075 
L 47.13031 58.279673 
L 48.06031 57.940846 
L 48.99031 58.073812 
L 49.92031 57.312058 
L 50.85031 56.922265 
L 51.78031 57.045376 
L 52.71031 57.109841 
L 53.64031 56.935547 
L 54.57031 56.371854 
L 55.50031 56.390991 
L 56.43031 56.322835 
L 57.36031 56.350105 
L 58.29031 56.203114 
L 59.22031 55.803088 
L 60.15031 55.739736 
L 61.08031 55.240769 
L 62.01031 54.92906 
L 62.94031 54.483108 
L 63.87031 54.710436 
" style="fill:none;stroke:#fc8d62;stroke-linecap:square;stroke-width:2;"/>
   </g>
   <g id="line2d_8">
    <path clip-path="url(#p87490bf096)" d="M 10.86031 59.406945 
L 11.79031 59.89014 
L 12.72031 60.455967 
L 13.65031 61.213596 
L 14.58031 61.54692 
L 15.51031 60.33922 
L 16.44031 60.766603 
L 17.37031 61.496437 
L 18.30031 62.454396 
L 19.23031 61.807988 
L 20.16031 61.634978 
L 21.09031 62.446308 
L 22.02031 62.904282 
L 22.95031 62.451628 
L 23.88031 62.039004 
L 24.81031 61.709123 
L 25.74031 61.80461 
L 26.67031 61.629108 
L 27.60031 61.529486 
L 28.53031 62.102093 
L 29.46031 62.320874 
L 30.39031 62.292995 
L 31.32031 62.068906 
L 32.25031 62.065005 
L 33.18031 61.550034 
L 34.11031 61.80478 
L 35.04031 61.700891 
L 35.97031 62.179431 
L 36.90031 62.003478 
L 37.83031 62.296649 
L 38.76031 62.068953 
L 39.69031 62.119548 
L 40.62031 61.971652 
L 41.55031 61.422451 
L 42.48031 61.439059 
L 43.41031 60.730495 
L 44.34031 60.87204 
L 45.27031 60.875522 
L 46.20031 60.640396 
L 47.13031 60.406595 
L 48.06031 60.51913 
L 48.99031 60.106325 
L 49.92031 59.905608 
L 50.85031 59.820912 
L 51.78031 59.563783 
L 52.71031 59.544289 
L 53.64031 59.774841 
L 54.57031 59.699587 
L 55.50031 59.527309 
L 56.43031 59.64417 
L 57.36031 59.279864 
L 58.29031 59.108334 
L 59.22031 59.434828 
L 60.15031 59.503074 
L 61.08031 59.353027 
L 62.01031 59.192752 
L 62.94031 59.521174 
L 63.87031 59.354792 
" style="fill:none;stroke:#fc8d62;stroke-dasharray:1.5,1.5;stroke-dashoffset:0;stroke-opacity:0.7;stroke-width:1.5;"/>
   </g>
   <g id="patch_3">
    <path d="M 9 67.68 
L 9 17.28 
" style="fill:none;stroke:#a9a9a9;stroke-linecap:square;stroke-linejoin:miter;stroke-width:2;"/>
   </g>
   <g id="patch_4">
    <path d="M 64.8 67.68 
L 64.8 17.28 
" style="fill:none;"/>
   </g>
   <g id="patch_5">
    <path d="M 9 67.68 
L 64.8 67.68 
" style="fill:none;stroke:#a9a9a9;stroke-linecap:square;stroke-linejoin:miter;stroke-width:2;"/>
   </g>
   <g id="patch_6">
    <path d="M 9 17.28 
L 64.8 17.28 
" style="fill:none;"/>
   </g>
  </g>
  <g id="axes_2">
   <g id="patch_7">
    <path d="M 9 128.16 
L 64.8 128.16 
L 64.8 77.76 
L 9 77.76 
z
" style="fill:none;"/>
   </g>
   <g id="matplotlib.axis_3">
    <g id="xtick_4">
     <g id="line2d_9">
      <g>
       <use style="fill:#a9a9a9;stroke:#a9a9a9;stroke-width:2;" x="9" xlink:href="#mf614d79ce3" y="128.16"/>
      </g>
     </g>
    </g>
    <g id="xtick_5">
     <g id="line2d_10">
      <g>
       <use style="fill:#a9a9a9;stroke:#a9a9a9;stroke-width:2;" x="36.9" xlink:href="#mf614d79ce3" y="128.16"/>
      </g>
     </g>
    </g>
    <g id="xtick_6">
     <g id="line2d_11">
      <g>
       <use style="fill:#a9a9a9;stroke:#a9a9a9;stroke-width:2;" x="64.8" xlink:href="#mf614d79ce3" y="128.16"/>
      </g>
     </g>
    </g>
   </g>
   <g id="matplotlib.axis_4">
    <g id="ytick_4">
     <g id="line2d_12">
      <g>
       <use style="fill:#a9a9a9;stroke:#a9a9a9;stroke-width:2;" x="9" xlink:href="#me3a0b5f051" y="128.16"/>
      </g>
     </g>
    </g>
    <g id="ytick_5">
     <g id="line2d_13">
      <g>
       <use style="fill:#a9a9a9;stroke:#a9a9a9;stroke-width:2;" x="9" xlink:href="#me3a0b5f051" y="102.96"/>
      </g>
     </g>
    </g>
    <g id="ytick_6">
     <g id="line2d_14">
      <g>
       <use style="fill:#a9a9a9;stroke:#a9a9a9;stroke-width:2;" x="9" xlink:href="#me3a0b5f051" y="77.76"/>
      </g>
     </g>
    </g>
   </g>
   <g id="line2d_15">
    <path clip-path="url(#pd12ff3981d)" d="M 10.86031 128.148141 
L 11.79031 128.109635 
L 12.72031 128.119517 
L 13.65031 128.097574 
L 14.58031 128.136939 
L 15.51031 128.116532 
L 16.44031 128.128329 
L 17.37031 128.114878 
L 18.30031 128.11853 
L 19.23031 128.123123 
L 20.16031 128.121367 
L 21.09031 128.101255 
L 22.02031 128.118457 
L 22.95031 128.113084 
L 23.88031 128.116919 
L 24.81031 128.123653 
L 25.74031 128.134137 
L 26.67031 128.144074 
L 27.60031 128.134193 
L 28.53031 128.131084 
L 29.46031 128.121223 
L 30.39031 128.133223 
L 31.32031 128.146136 
L 32.25031 128.145685 
L 33.18031 128.142202 
L 34.11031 128.134199 
L 35.04031 128.129584 
L 35.97031 128.124604 
L 36.90031 128.120314 
L 37.83031 128.117895 
L 38.76031 128.110501 
L 39.69031 128.099045 
L 40.62031 128.10631 
L 41.55031 128.105907 
L 42.48031 128.098283 
L 43.41031 128.100454 
L 44.34031 128.10507 
L 45.27031 128.093944 
L 46.20031 128.115166 
L 47.13031 128.118496 
L 48.06031 128.11941 
L 48.99031 128.127338 
L 49.92031 128.113625 
L 50.85031 128.107216 
L 51.78031 128.112677 
L 52.71031 128.114624 
L 53.64031 128.115183 
L 54.57031 128.109825 
L 55.50031 128.122442 
L 56.43031 128.119245 
L 57.36031 128.114147 
L 58.29031 128.120544 
L 59.22031 128.113926 
L 60.15031 128.106044 
L 61.08031 128.110632 
L 62.01031 128.113084 
L 62.94031 128.109299 
L 63.87031 128.117608 
" style="fill:none;stroke:#fc8d62;stroke-linecap:square;stroke-width:2;"/>
   </g>
   <g id="line2d_16">
    <path clip-path="url(#pd12ff3981d)" d="M 10.86031 128.142059 
L 11.79031 128.156241 
L 12.72031 128.121998 
L 13.65031 128.057743 
L 14.58031 128.017625 
L 15.51031 127.969307 
L 16.44031 127.899186 
L 17.37031 127.852174 
L 18.30031 127.852812 
L 19.23031 127.828288 
L 20.16031 127.755671 
L 21.09031 127.707028 
L 22.02031 127.627427 
L 22.95031 127.650561 
L 23.88031 127.59329 
L 24.81031 127.581871 
L 25.74031 127.534803 
L 26.67031 127.451071 
L 27.60031 127.36664 
L 28.53031 127.204679 
L 29.46031 127.103589 
L 30.39031 127.024052 
L 31.32031 126.991771 
L 32.25031 126.883448 
L 33.18031 126.792033 
L 34.11031 126.709355 
L 35.04031 126.613814 
L 35.97031 126.530627 
L 36.90031 126.579631 
L 37.83031 126.514078 
L 38.76031 126.547081 
L 39.69031 126.486406 
L 40.62031 126.461198 
L 41.55031 126.458425 
L 42.48031 126.333093 
L 43.41031 126.318698 
L 44.34031 126.328224 
L 45.27031 126.286832 
L 46.20031 126.297803 
L 47.13031 126.205744 
L 48.06031 126.145354 
L 48.99031 126.1106 
L 49.92031 126.103599 
L 50.85031 125.92714 
L 51.78031 125.83665 
L 52.71031 125.859432 
L 53.64031 125.709946 
L 54.57031 125.652337 
L 55.50031 125.593168 
L 56.43031 125.511906 
L 57.36031 125.384862 
L 58.29031 125.281842 
L 59.22031 125.307472 
L 60.15031 125.325199 
L 61.08031 125.229454 
L 62.01031 125.151483 
L 62.94031 125.154292 
L 63.87031 125.206266 
" style="fill:none;stroke:#fc8d62;stroke-dasharray:1.5,1.5;stroke-dashoffset:0;stroke-opacity:0.7;stroke-width:1.5;"/>
   </g>
   <g id="patch_8">
    <path d="M 9 128.16 
L 9 77.76 
" style="fill:none;stroke:#a9a9a9;stroke-linecap:square;stroke-linejoin:miter;stroke-width:2;"/>
   </g>
   <g id="patch_9">
    <path d="M 64.8 128.16 
L 64.8 77.76 
" style="fill:none;"/>
   </g>
   <g id="patch_10">
    <path d="M 9 128.16 
L 64.8 128.16 
" style="fill:none;stroke:#a9a9a9;stroke-linecap:square;stroke-linejoin:miter;stroke-width:2;"/>
   </g>
   <g id="patch_11">
    <path d="M 9 77.76 
L 64.8 77.76 
" style="fill:none;"/>
   </g>
  </g>
 </g>
 <defs>
  <clipPath id="p87490bf096">
   <rect height="50.4" width="55.8" x="9" y="17.28"/>
  </clipPath>
  <clipPath id="pd12ff3981d">
   <rect height="50.4" width="55.8" x="9" y="77.76"/>
  </clipPath>
 </defs>
</svg>
