<?xml version="1.0" encoding="utf-8" standalone="no"?>
<!DOCTYPE svg PUBLIC "-//W3C//DTD SVG 1.1//EN"
  "http://www.w3.org/Graphics/SVG/1.1/DTD/svg11.dtd">
<!-- Created with matplotlib (https://matplotlib.org/) -->
<svg height="144pt" version="1.1" viewBox="0 0 72 144" width="72pt" xmlns="http://www.w3.org/2000/svg" xmlns:xlink="http://www.w3.org/1999/xlink">
 <metadata>
  <rdf:RDF xmlns:cc="http://creativecommons.org/ns#" xmlns:dc="http://purl.org/dc/elements/1.1/" xmlns:rdf="http://www.w3.org/1999/02/22-rdf-syntax-ns#">
   <cc:Work>
    <dc:type rdf:resource="http://purl.org/dc/dcmitype/StillImage"/>
    <dc:date>2021-10-13T14:12:40.725155</dc:date>
    <dc:format>image/svg+xml</dc:format>
    <dc:creator>
     <cc:Agent>
      <dc:title>Matplotlib v3.3.2, https://matplotlib.org/</dc:title>
     </cc:Agent>
    </dc:creator>
   </cc:Work>
  </rdf:RDF>
 </metadata>
 <defs>
  <style type="text/css">*{stroke-linecap:butt;stroke-linejoin:round;}</style>
 </defs>
 <g id="figure_1">
  <g id="patch_1">
   <path d="M 0 144 
L 72 144 
L 72 0 
L 0 0 
z
" style="fill:none;"/>
  </g>
  <g id="axes_1">
   <g id="patch_2">
    <path d="M 9 67.68 
L 64.8 67.68 
L 64.8 17.28 
L 9 17.28 
z
" style="fill:none;"/>
   </g>
   <g id="matplotlib.axis_1">
    <g id="xtick_1">
     <g id="line2d_1">
      <defs>
       <path d="M 0 0 
L 0 3.5 
" id="mdc68160332" style="stroke:#a9a9a9;stroke-width:2;"/>
      </defs>
      <g>
       <use style="fill:#a9a9a9;stroke:#a9a9a9;stroke-width:2;" x="9" xlink:href="#mdc68160332" y="67.68"/>
      </g>
     </g>
    </g>
    <g id="xtick_2">
     <g id="line2d_2">
      <g>
       <use style="fill:#a9a9a9;stroke:#a9a9a9;stroke-width:2;" x="36.9" xlink:href="#mdc68160332" y="67.68"/>
      </g>
     </g>
    </g>
    <g id="xtick_3">
     <g id="line2d_3">
      <g>
       <use style="fill:#a9a9a9;stroke:#a9a9a9;stroke-width:2;" x="64.8" xlink:href="#mdc68160332" y="67.68"/>
      </g>
     </g>
    </g>
   </g>
   <g id="matplotlib.axis_2">
    <g id="ytick_1">
     <g id="line2d_4">
      <defs>
       <path d="M 0 0 
L -3.5 0 
" id="m9eb9534d97" style="stroke:#a9a9a9;stroke-width:2;"/>
      </defs>
      <g>
       <use style="fill:#a9a9a9;stroke:#a9a9a9;stroke-width:2;" x="9" xlink:href="#m9eb9534d97" y="67.68"/>
      </g>
     </g>
    </g>
    <g id="ytick_2">
     <g id="line2d_5">
      <g>
       <use style="fill:#a9a9a9;stroke:#a9a9a9;stroke-width:2;" x="9" xlink:href="#m9eb9534d97" y="42.48"/>
      </g>
     </g>
    </g>
    <g id="ytick_3">
     <g id="line2d_6">
      <g>
       <use style="fill:#a9a9a9;stroke:#a9a9a9;stroke-width:2;" x="9" xlink:href="#m9eb9534d97" y="17.28"/>
      </g>
     </g>
    </g>
   </g>
   <g id="line2d_7">
    <path clip-path="url(#pb2baa8fb2b)" d="M 10.86031 55.671851 
L 11.79031 57.41373 
L 12.72031 59.258684 
L 13.65031 60.176267 
L 14.58031 59.908649 
L 15.51031 60.279354 
L 16.44031 59.960933 
L 17.37031 60.410183 
L 18.30031 61.113691 
L 19.23031 61.008241 
L 20.16031 59.529818 
L 21.09031 60.221126 
L 22.02031 60.142585 
L 22.95031 60.344422 
L 23.88031 60.317812 
L 24.81031 59.316444 
L 25.74031 58.463785 
L 26.67031 58.745721 
L 27.60031 58.718411 
L 28.53031 58.048641 
L 29.46031 57.953859 
L 30.39031 57.962492 
L 31.32031 58.135826 
L 32.25031 58.118227 
L 33.18031 58.186923 
L 34.11031 57.754853 
L 35.04031 58.037427 
L 35.97031 57.779535 
L 36.90031 57.779898 
L 37.83031 58.065447 
L 38.76031 58.228974 
L 39.69031 58.662596 
L 40.62031 57.974296 
L 41.55031 57.681322 
L 42.48031 57.762818 
L 43.41031 58.117936 
L 44.34031 57.400731 
L 45.27031 57.138003 
L 46.20031 57.422887 
L 47.13031 57.147563 
L 48.06031 56.9288 
L 48.99031 57.151546 
L 49.92031 57.214974 
L 50.85031 56.984226 
L 51.78031 57.386849 
L 52.71031 57.391575 
L 53.64031 57.21353 
L 54.57031 57.704802 
L 55.50031 57.816766 
L 56.43031 57.842584 
L 57.36031 57.683142 
L 58.29031 57.485414 
L 59.22031 57.540682 
L 60.15031 57.729745 
L 61.08031 57.81838 
L 62.01031 57.562069 
L 62.94031 57.407948 
L 63.87031 57.481928 
" style="fill:none;stroke:#fc8d62;stroke-linecap:square;stroke-width:2;"/>
   </g>
   <g id="line2d_8">
    <path clip-path="url(#pb2baa8fb2b)" d="M 10.86031 53.201682 
L 11.79031 56.528859 
L 12.72031 58.57435 
L 13.65031 59.877553 
L 14.58031 59.948915 
L 15.51031 60.127986 
L 16.44031 60.368903 
L 17.37031 60.67257 
L 18.30031 60.677201 
L 19.23031 60.937641 
L 20.16031 60.064439 
L 21.09031 59.790392 
L 22.02031 59.962236 
L 22.95031 60.129767 
L 23.88031 60.744534 
L 24.81031 60.080764 
L 25.74031 59.501553 
L 26.67031 59.516255 
L 27.60031 59.763974 
L 28.53031 59.800073 
L 29.46031 60.042495 
L 30.39031 60.342283 
L 31.32031 60.487205 
L 32.25031 60.495204 
L 33.18031 59.886811 
L 34.11031 60.535352 
L 35.04031 60.518211 
L 35.97031 60.497735 
L 36.90031 60.512971 
L 37.83031 61.086682 
L 38.76031 61.578585 
L 39.69031 61.921074 
L 40.62031 62.000844 
L 41.55031 61.92766 
L 42.48031 61.571246 
L 43.41031 61.974623 
L 44.34031 61.617709 
L 45.27031 62.014629 
L 46.20031 62.068304 
L 47.13031 61.939705 
L 48.06031 61.826828 
L 48.99031 61.662488 
L 49.92031 61.594599 
L 50.85031 61.436778 
L 51.78031 61.334931 
L 52.71031 61.268392 
L 53.64031 61.322375 
L 54.57031 61.226589 
L 55.50031 61.161944 
L 56.43031 60.922834 
L 57.36031 60.933088 
L 58.29031 60.914443 
L 59.22031 60.77387 
L 60.15031 60.687616 
L 61.08031 60.66033 
L 62.01031 60.548985 
L 62.94031 60.291029 
L 63.87031 60.222629 
" style="fill:none;stroke:#fc8d62;stroke-dasharray:1.5,1.5;stroke-dashoffset:0;stroke-opacity:0.7;stroke-width:1.5;"/>
   </g>
   <g id="patch_3">
    <path d="M 9 67.68 
L 9 17.28 
" style="fill:none;stroke:#a9a9a9;stroke-linecap:square;stroke-linejoin:miter;stroke-width:2;"/>
   </g>
   <g id="patch_4">
    <path d="M 64.8 67.68 
L 64.8 17.28 
" style="fill:none;"/>
   </g>
   <g id="patch_5">
    <path d="M 9 67.68 
L 64.8 67.68 
" style="fill:none;stroke:#a9a9a9;stroke-linecap:square;stroke-linejoin:miter;stroke-width:2;"/>
   </g>
   <g id="patch_6">
    <path d="M 9 17.28 
L 64.8 17.28 
" style="fill:none;"/>
   </g>
  </g>
  <g id="axes_2">
   <g id="patch_7">
    <path d="M 9 128.16 
L 64.8 128.16 
L 64.8 77.76 
L 9 77.76 
z
" style="fill:none;"/>
   </g>
   <g id="matplotlib.axis_3">
    <g id="xtick_4">
     <g id="line2d_9">
      <g>
       <use style="fill:#a9a9a9;stroke:#a9a9a9;stroke-width:2;" x="9" xlink:href="#mdc68160332" y="128.16"/>
      </g>
     </g>
    </g>
    <g id="xtick_5">
     <g id="line2d_10">
      <g>
       <use style="fill:#a9a9a9;stroke:#a9a9a9;stroke-width:2;" x="36.9" xlink:href="#mdc68160332" y="128.16"/>
      </g>
     </g>
    </g>
    <g id="xtick_6">
     <g id="line2d_11">
      <g>
       <use style="fill:#a9a9a9;stroke:#a9a9a9;stroke-width:2;" x="64.8" xlink:href="#mdc68160332" y="128.16"/>
      </g>
     </g>
    </g>
   </g>
   <g id="matplotlib.axis_4">
    <g id="ytick_4">
     <g id="line2d_12">
      <g>
       <use style="fill:#a9a9a9;stroke:#a9a9a9;stroke-width:2;" x="9" xlink:href="#m9eb9534d97" y="128.16"/>
      </g>
     </g>
    </g>
    <g id="ytick_5">
     <g id="line2d_13">
      <g>
       <use style="fill:#a9a9a9;stroke:#a9a9a9;stroke-width:2;" x="9" xlink:href="#m9eb9534d97" y="102.96"/>
      </g>
     </g>
    </g>
    <g id="ytick_6">
     <g id="line2d_14">
      <g>
       <use style="fill:#a9a9a9;stroke:#a9a9a9;stroke-width:2;" x="9" xlink:href="#m9eb9534d97" y="77.76"/>
      </g>
     </g>
    </g>
   </g>
   <g id="line2d_15">
    <path clip-path="url(#p085976cff3)" d="M 10.86031 127.43158 
L 11.79031 127.436487 
L 12.72031 127.571569 
L 13.65031 127.454574 
L 14.58031 127.387383 
L 15.51031 127.505126 
L 16.44031 127.284548 
L 17.37031 127.258901 
L 18.30031 127.2417 
L 19.23031 127.166157 
L 20.16031 127.00539 
L 21.09031 126.929356 
L 22.02031 126.908092 
L 22.95031 126.955978 
L 23.88031 126.891065 
L 24.81031 126.790923 
L 25.74031 126.806235 
L 26.67031 126.917576 
L 27.60031 127.025931 
L 28.53031 126.858101 
L 29.46031 126.829795 
L 30.39031 126.826757 
L 31.32031 126.851315 
L 32.25031 126.832479 
L 33.18031 126.866125 
L 34.11031 126.75733 
L 35.04031 126.848561 
L 35.97031 126.854139 
L 36.90031 126.860651 
L 37.83031 126.837815 
L 38.76031 126.872715 
L 39.69031 126.871791 
L 40.62031 126.8202 
L 41.55031 126.849019 
L 42.48031 126.761065 
L 43.41031 126.790149 
L 44.34031 126.789261 
L 45.27031 126.804031 
L 46.20031 126.852593 
L 47.13031 126.849153 
L 48.06031 126.772153 
L 48.99031 126.808216 
L 49.92031 126.813603 
L 50.85031 126.681109 
L 51.78031 126.755762 
L 52.71031 126.7776 
L 53.64031 126.750638 
L 54.57031 126.756992 
L 55.50031 126.755702 
L 56.43031 126.736446 
L 57.36031 126.762883 
L 58.29031 126.79067 
L 59.22031 126.872567 
L 60.15031 126.91719 
L 61.08031 126.954003 
L 62.01031 126.920641 
L 62.94031 126.933781 
L 63.87031 126.865156 
" style="fill:none;stroke:#fc8d62;stroke-linecap:square;stroke-width:2;"/>
   </g>
   <g id="line2d_16">
    <path clip-path="url(#p085976cff3)" d="M 10.86031 128.12908 
L 11.79031 128.159972 
L 12.72031 128.135702 
L 13.65031 128.05379 
L 14.58031 127.995455 
L 15.51031 127.913233 
L 16.44031 127.815297 
L 17.37031 127.67004 
L 18.30031 127.61984 
L 19.23031 127.581577 
L 20.16031 127.65452 
L 21.09031 127.660592 
L 22.02031 127.651652 
L 22.95031 127.65099 
L 23.88031 127.747795 
L 24.81031 127.601185 
L 25.74031 127.521112 
L 26.67031 127.50314 
L 27.60031 127.356024 
L 28.53031 127.257766 
L 29.46031 127.157042 
L 30.39031 127.181078 
L 31.32031 127.108245 
L 32.25031 127.069646 
L 33.18031 126.872133 
L 34.11031 126.790162 
L 35.04031 126.77886 
L 35.97031 126.731001 
L 36.90031 126.640949 
L 37.83031 126.542789 
L 38.76031 126.446202 
L 39.69031 126.375628 
L 40.62031 126.380321 
L 41.55031 126.283486 
L 42.48031 126.154176 
L 43.41031 126.100561 
L 44.34031 126.001778 
L 45.27031 125.948942 
L 46.20031 125.867748 
L 47.13031 125.735851 
L 48.06031 125.675381 
L 48.99031 125.54435 
L 49.92031 125.490894 
L 50.85031 125.300684 
L 51.78031 125.275364 
L 52.71031 125.269196 
L 53.64031 125.204353 
L 54.57031 125.176621 
L 55.50031 125.060321 
L 56.43031 124.863804 
L 57.36031 124.708134 
L 58.29031 124.705634 
L 59.22031 124.496037 
L 60.15031 124.599287 
L 61.08031 124.690604 
L 62.01031 124.498177 
L 62.94031 124.334138 
L 63.87031 124.209864 
" style="fill:none;stroke:#fc8d62;stroke-dasharray:1.5,1.5;stroke-dashoffset:0;stroke-opacity:0.7;stroke-width:1.5;"/>
   </g>
   <g id="patch_8">
    <path d="M 9 128.16 
L 9 77.76 
" style="fill:none;stroke:#a9a9a9;stroke-linecap:square;stroke-linejoin:miter;stroke-width:2;"/>
   </g>
   <g id="patch_9">
    <path d="M 64.8 128.16 
L 64.8 77.76 
" style="fill:none;"/>
   </g>
   <g id="patch_10">
    <path d="M 9 128.16 
L 64.8 128.16 
" style="fill:none;stroke:#a9a9a9;stroke-linecap:square;stroke-linejoin:miter;stroke-width:2;"/>
   </g>
   <g id="patch_11">
    <path d="M 9 77.76 
L 64.8 77.76 
" style="fill:none;"/>
   </g>
  </g>
 </g>
 <defs>
  <clipPath id="pb2baa8fb2b">
   <rect height="50.4" width="55.8" x="9" y="17.28"/>
  </clipPath>
  <clipPath id="p085976cff3">
   <rect height="50.4" width="55.8" x="9" y="77.76"/>
  </clipPath>
 </defs>
</svg>
