<?xml version="1.0" encoding="utf-8" standalone="no"?>
<!DOCTYPE svg PUBLIC "-//W3C//DTD SVG 1.1//EN"
  "http://www.w3.org/Graphics/SVG/1.1/DTD/svg11.dtd">
<!-- Created with matplotlib (https://matplotlib.org/) -->
<svg height="144pt" version="1.1" viewBox="0 0 72 144" width="72pt" xmlns="http://www.w3.org/2000/svg" xmlns:xlink="http://www.w3.org/1999/xlink">
 <metadata>
  <rdf:RDF xmlns:cc="http://creativecommons.org/ns#" xmlns:dc="http://purl.org/dc/elements/1.1/" xmlns:rdf="http://www.w3.org/1999/02/22-rdf-syntax-ns#">
   <cc:Work>
    <dc:type rdf:resource="http://purl.org/dc/dcmitype/StillImage"/>
    <dc:date>2021-10-13T15:34:22.344787</dc:date>
    <dc:format>image/svg+xml</dc:format>
    <dc:creator>
     <cc:Agent>
      <dc:title>Matplotlib v3.3.2, https://matplotlib.org/</dc:title>
     </cc:Agent>
    </dc:creator>
   </cc:Work>
  </rdf:RDF>
 </metadata>
 <defs>
  <style type="text/css">*{stroke-linecap:butt;stroke-linejoin:round;}</style>
 </defs>
 <g id="figure_1">
  <g id="patch_1">
   <path d="M 0 144 
L 72 144 
L 72 0 
L 0 0 
z
" style="fill:none;"/>
  </g>
  <g id="axes_1">
   <g id="patch_2">
    <path d="M 9 67.68 
L 64.8 67.68 
L 64.8 17.28 
L 9 17.28 
z
" style="fill:none;"/>
   </g>
   <g id="matplotlib.axis_1">
    <g id="xtick_1">
     <g id="line2d_1">
      <defs>
       <path d="M 0 0 
L 0 3.5 
" id="m9073003a3c" style="stroke:#a9a9a9;stroke-width:2;"/>
      </defs>
      <g>
       <use style="fill:#a9a9a9;stroke:#a9a9a9;stroke-width:2;" x="9" xlink:href="#m9073003a3c" y="67.68"/>
      </g>
     </g>
    </g>
    <g id="xtick_2">
     <g id="line2d_2">
      <g>
       <use style="fill:#a9a9a9;stroke:#a9a9a9;stroke-width:2;" x="36.9" xlink:href="#m9073003a3c" y="67.68"/>
      </g>
     </g>
    </g>
    <g id="xtick_3">
     <g id="line2d_3">
      <g>
       <use style="fill:#a9a9a9;stroke:#a9a9a9;stroke-width:2;" x="64.8" xlink:href="#m9073003a3c" y="67.68"/>
      </g>
     </g>
    </g>
   </g>
   <g id="matplotlib.axis_2">
    <g id="ytick_1">
     <g id="line2d_4">
      <defs>
       <path d="M 0 0 
L -3.5 0 
" id="mebbb17d32c" style="stroke:#a9a9a9;stroke-width:2;"/>
      </defs>
      <g>
       <use style="fill:#a9a9a9;stroke:#a9a9a9;stroke-width:2;" x="9" xlink:href="#mebbb17d32c" y="67.68"/>
      </g>
     </g>
    </g>
    <g id="ytick_2">
     <g id="line2d_5">
      <g>
       <use style="fill:#a9a9a9;stroke:#a9a9a9;stroke-width:2;" x="9" xlink:href="#mebbb17d32c" y="42.48"/>
      </g>
     </g>
    </g>
    <g id="ytick_3">
     <g id="line2d_6">
      <g>
       <use style="fill:#a9a9a9;stroke:#a9a9a9;stroke-width:2;" x="9" xlink:href="#mebbb17d32c" y="17.28"/>
      </g>
     </g>
    </g>
   </g>
   <g id="line2d_7">
    <path clip-path="url(#p057d0d7836)" d="M 10.86031 58.414404 
L 11.79031 57.231121 
L 12.72031 56.411616 
L 13.65031 55.468916 
L 14.58031 54.585243 
L 15.51031 52.931932 
L 16.44031 52.391874 
L 17.37031 52.567698 
L 18.30031 51.339839 
L 19.23031 50.986119 
L 20.16031 51.113412 
L 21.09031 50.542248 
L 22.02031 50.1709 
L 22.95031 49.28571 
L 23.88031 48.994513 
L 24.81031 48.1681 
L 25.74031 48.11597 
L 26.67031 47.196231 
L 27.60031 46.258185 
L 28.53031 45.70845 
L 29.46031 44.780632 
L 30.39031 44.353915 
L 31.32031 44.573629 
L 32.25031 43.892444 
L 33.18031 43.232846 
L 34.11031 42.871603 
L 35.04031 42.306941 
L 35.97031 41.865172 
L 36.90031 41.480017 
L 37.83031 40.522112 
L 38.76031 40.019609 
L 39.69031 39.972535 
L 40.62031 39.089805 
L 41.55031 38.331982 
L 42.48031 37.649405 
L 43.41031 37.334282 
L 44.34031 37.350196 
L 45.27031 36.775356 
L 46.20031 36.278138 
L 47.13031 36.093301 
L 48.06031 35.50577 
L 48.99031 35.050169 
L 49.92031 34.102393 
L 50.85031 33.134718 
L 51.78031 32.155799 
L 52.71031 31.996361 
L 53.64031 32.076633 
L 54.57031 31.803281 
L 55.50031 31.815403 
L 56.43031 31.914039 
L 57.36031 31.428108 
L 58.29031 31.498312 
L 59.22031 31.2467 
L 60.15031 30.453042 
L 61.08031 30.415986 
L 62.01031 29.963016 
L 62.94031 29.254513 
L 63.87031 28.829905 
" style="fill:none;stroke:#fc8d62;stroke-linecap:square;stroke-width:2;"/>
   </g>
   <g id="line2d_8">
    <path clip-path="url(#p057d0d7836)" d="M 10.86031 61.56739 
L 11.79031 59.666282 
L 12.72031 59.541875 
L 13.65031 59.676834 
L 14.58031 60.281402 
L 15.51031 59.759641 
L 16.44031 58.973281 
L 17.37031 58.107151 
L 18.30031 57.460318 
L 19.23031 57.586942 
L 20.16031 57.814875 
L 21.09031 58.188698 
L 22.02031 57.455594 
L 22.95031 57.166934 
L 23.88031 56.975812 
L 24.81031 56.793847 
L 25.74031 56.413484 
L 26.67031 55.61427 
L 27.60031 55.47943 
L 28.53031 55.418065 
L 29.46031 54.656711 
L 30.39031 55.309687 
L 31.32031 54.88002 
L 32.25031 54.704012 
L 33.18031 54.447026 
L 34.11031 54.226224 
L 35.04031 53.65056 
L 35.97031 53.571091 
L 36.90031 53.522857 
L 37.83031 53.212828 
L 38.76031 53.079891 
L 39.69031 52.898199 
L 40.62031 52.686633 
L 41.55031 52.41051 
L 42.48031 51.798936 
L 43.41031 51.658794 
L 44.34031 51.983555 
L 45.27031 51.931644 
L 46.20031 51.691265 
L 47.13031 51.863645 
L 48.06031 51.59362 
L 48.99031 51.199995 
L 49.92031 51.236043 
L 50.85031 51.240372 
L 51.78031 51.45695 
L 52.71031 51.030888 
L 53.64031 50.855547 
L 54.57031 50.641376 
L 55.50031 50.782126 
L 56.43031 50.464122 
L 57.36031 50.05936 
L 58.29031 49.776469 
L 59.22031 49.729205 
L 60.15031 49.520279 
L 61.08031 49.513154 
L 62.01031 49.281829 
L 62.94031 49.013302 
L 63.87031 49.002526 
" style="fill:none;stroke:#fc8d62;stroke-dasharray:1.5,1.5;stroke-dashoffset:0;stroke-opacity:0.7;stroke-width:1.5;"/>
   </g>
   <g id="patch_3">
    <path d="M 9 67.68 
L 9 17.28 
" style="fill:none;stroke:#a9a9a9;stroke-linecap:square;stroke-linejoin:miter;stroke-width:2;"/>
   </g>
   <g id="patch_4">
    <path d="M 64.8 67.68 
L 64.8 17.28 
" style="fill:none;"/>
   </g>
   <g id="patch_5">
    <path d="M 9 67.68 
L 64.8 67.68 
" style="fill:none;stroke:#a9a9a9;stroke-linecap:square;stroke-linejoin:miter;stroke-width:2;"/>
   </g>
   <g id="patch_6">
    <path d="M 9 17.28 
L 64.8 17.28 
" style="fill:none;"/>
   </g>
  </g>
  <g id="axes_2">
   <g id="patch_7">
    <path d="M 9 128.16 
L 64.8 128.16 
L 64.8 77.76 
L 9 77.76 
z
" style="fill:none;"/>
   </g>
   <g id="matplotlib.axis_3">
    <g id="xtick_4">
     <g id="line2d_9">
      <g>
       <use style="fill:#a9a9a9;stroke:#a9a9a9;stroke-width:2;" x="9" xlink:href="#m9073003a3c" y="128.16"/>
      </g>
     </g>
    </g>
    <g id="xtick_5">
     <g id="line2d_10">
      <g>
       <use style="fill:#a9a9a9;stroke:#a9a9a9;stroke-width:2;" x="36.9" xlink:href="#m9073003a3c" y="128.16"/>
      </g>
     </g>
    </g>
    <g id="xtick_6">
     <g id="line2d_11">
      <g>
       <use style="fill:#a9a9a9;stroke:#a9a9a9;stroke-width:2;" x="64.8" xlink:href="#m9073003a3c" y="128.16"/>
      </g>
     </g>
    </g>
   </g>
   <g id="matplotlib.axis_4">
    <g id="ytick_4">
     <g id="line2d_12">
      <g>
       <use style="fill:#a9a9a9;stroke:#a9a9a9;stroke-width:2;" x="9" xlink:href="#mebbb17d32c" y="128.16"/>
      </g>
     </g>
    </g>
    <g id="ytick_5">
     <g id="line2d_13">
      <g>
       <use style="fill:#a9a9a9;stroke:#a9a9a9;stroke-width:2;" x="9" xlink:href="#mebbb17d32c" y="102.96"/>
      </g>
     </g>
    </g>
    <g id="ytick_6">
     <g id="line2d_14">
      <g>
       <use style="fill:#a9a9a9;stroke:#a9a9a9;stroke-width:2;" x="9" xlink:href="#mebbb17d32c" y="77.76"/>
      </g>
     </g>
    </g>
   </g>
   <g id="line2d_15">
    <path clip-path="url(#p50bba0fca8)" d="M 10.86031 120.989194 
L 11.79031 118.479945 
L 12.72031 116.492901 
L 13.65031 114.479526 
L 14.58031 112.399419 
L 15.51031 110.582597 
L 16.44031 109.383312 
L 17.37031 108.173483 
L 18.30031 106.588234 
L 19.23031 105.253509 
L 20.16031 104.632049 
L 21.09031 103.992061 
L 22.02031 103.432453 
L 22.95031 102.465772 
L 23.88031 101.863131 
L 24.81031 100.992312 
L 25.74031 100.671716 
L 26.67031 99.816129 
L 27.60031 99.262371 
L 28.53031 98.868111 
L 29.46031 98.315451 
L 30.39031 97.497062 
L 31.32031 97.108788 
L 32.25031 96.446393 
L 33.18031 96.015306 
L 34.11031 95.784557 
L 35.04031 95.417963 
L 35.97031 95.133355 
L 36.90031 94.775121 
L 37.83031 94.334201 
L 38.76031 94.085258 
L 39.69031 93.948712 
L 40.62031 93.454425 
L 41.55031 93.211681 
L 42.48031 92.974479 
L 43.41031 92.705404 
L 44.34031 92.638606 
L 45.27031 92.489771 
L 46.20031 92.300172 
L 47.13031 92.083294 
L 48.06031 91.770072 
L 48.99031 91.496881 
L 49.92031 91.090671 
L 50.85031 90.801818 
L 51.78031 90.594398 
L 52.71031 90.497947 
L 53.64031 90.562377 
L 54.57031 90.408692 
L 55.50031 90.419832 
L 56.43031 90.394923 
L 57.36031 90.298551 
L 58.29031 90.254294 
L 59.22031 90.075268 
L 60.15031 89.937899 
L 61.08031 90.013605 
L 62.01031 89.973881 
L 62.94031 89.903438 
L 63.87031 89.7689 
" style="fill:none;stroke:#fc8d62;stroke-linecap:square;stroke-width:2;"/>
   </g>
   <g id="line2d_16">
    <path clip-path="url(#p50bba0fca8)" d="M 10.86031 125.795797 
L 11.79031 124.952168 
L 12.72031 123.97462 
L 13.65031 123.456715 
L 14.58031 122.632526 
L 15.51031 122.009462 
L 16.44031 120.97848 
L 17.37031 120.749782 
L 18.30031 120.150281 
L 19.23031 119.562716 
L 20.16031 119.151877 
L 21.09031 118.398025 
L 22.02031 117.520313 
L 22.95031 117.05048 
L 23.88031 117.105845 
L 24.81031 116.973817 
L 25.74031 116.57145 
L 26.67031 116.005675 
L 27.60031 115.438689 
L 28.53031 114.901119 
L 29.46031 114.633826 
L 30.39031 114.240186 
L 31.32031 114.094972 
L 32.25031 113.618784 
L 33.18031 113.148661 
L 34.11031 112.609634 
L 35.04031 112.273692 
L 35.97031 111.966885 
L 36.90031 111.613958 
L 37.83031 111.58356 
L 38.76031 111.148861 
L 39.69031 110.900415 
L 40.62031 110.679161 
L 41.55031 110.475206 
L 42.48031 109.940538 
L 43.41031 109.585706 
L 44.34031 109.557421 
L 45.27031 109.259739 
L 46.20031 108.996395 
L 47.13031 108.71969 
L 48.06031 108.507911 
L 48.99031 108.140817 
L 49.92031 108.22746 
L 50.85031 108.075752 
L 51.78031 108.007334 
L 52.71031 107.663533 
L 53.64031 107.411627 
L 54.57031 107.265883 
L 55.50031 107.241073 
L 56.43031 107.152729 
L 57.36031 107.050886 
L 58.29031 106.793911 
L 59.22031 106.607052 
L 60.15031 106.413357 
L 61.08031 106.391852 
L 62.01031 106.222688 
L 62.94031 106.103393 
L 63.87031 105.834854 
" style="fill:none;stroke:#fc8d62;stroke-dasharray:1.5,1.5;stroke-dashoffset:0;stroke-opacity:0.7;stroke-width:1.5;"/>
   </g>
   <g id="patch_8">
    <path d="M 9 128.16 
L 9 77.76 
" style="fill:none;stroke:#a9a9a9;stroke-linecap:square;stroke-linejoin:miter;stroke-width:2;"/>
   </g>
   <g id="patch_9">
    <path d="M 64.8 128.16 
L 64.8 77.76 
" style="fill:none;"/>
   </g>
   <g id="patch_10">
    <path d="M 9 128.16 
L 64.8 128.16 
" style="fill:none;stroke:#a9a9a9;stroke-linecap:square;stroke-linejoin:miter;stroke-width:2;"/>
   </g>
   <g id="patch_11">
    <path d="M 9 77.76 
L 64.8 77.76 
" style="fill:none;"/>
   </g>
  </g>
 </g>
 <defs>
  <clipPath id="p057d0d7836">
   <rect height="50.4" width="55.8" x="9" y="17.28"/>
  </clipPath>
  <clipPath id="p50bba0fca8">
   <rect height="50.4" width="55.8" x="9" y="77.76"/>
  </clipPath>
 </defs>
</svg>
