<?xml version="1.0" encoding="utf-8" standalone="no"?>
<!DOCTYPE svg PUBLIC "-//W3C//DTD SVG 1.1//EN"
  "http://www.w3.org/Graphics/SVG/1.1/DTD/svg11.dtd">
<!-- Created with matplotlib (https://matplotlib.org/) -->
<svg height="144pt" version="1.1" viewBox="0 0 72 144" width="72pt" xmlns="http://www.w3.org/2000/svg" xmlns:xlink="http://www.w3.org/1999/xlink">
 <metadata>
  <rdf:RDF xmlns:cc="http://creativecommons.org/ns#" xmlns:dc="http://purl.org/dc/elements/1.1/" xmlns:rdf="http://www.w3.org/1999/02/22-rdf-syntax-ns#">
   <cc:Work>
    <dc:type rdf:resource="http://purl.org/dc/dcmitype/StillImage"/>
    <dc:date>2021-10-13T14:44:01.420255</dc:date>
    <dc:format>image/svg+xml</dc:format>
    <dc:creator>
     <cc:Agent>
      <dc:title>Matplotlib v3.3.2, https://matplotlib.org/</dc:title>
     </cc:Agent>
    </dc:creator>
   </cc:Work>
  </rdf:RDF>
 </metadata>
 <defs>
  <style type="text/css">*{stroke-linecap:butt;stroke-linejoin:round;}</style>
 </defs>
 <g id="figure_1">
  <g id="patch_1">
   <path d="M 0 144 
L 72 144 
L 72 0 
L 0 0 
z
" style="fill:none;"/>
  </g>
  <g id="axes_1">
   <g id="patch_2">
    <path d="M 9 67.68 
L 64.8 67.68 
L 64.8 17.28 
L 9 17.28 
z
" style="fill:none;"/>
   </g>
   <g id="matplotlib.axis_1">
    <g id="xtick_1">
     <g id="line2d_1">
      <defs>
       <path d="M 0 0 
L 0 3.5 
" id="medc7f765b5" style="stroke:#a9a9a9;stroke-width:2;"/>
      </defs>
      <g>
       <use style="fill:#a9a9a9;stroke:#a9a9a9;stroke-width:2;" x="9" xlink:href="#medc7f765b5" y="67.68"/>
      </g>
     </g>
    </g>
    <g id="xtick_2">
     <g id="line2d_2">
      <g>
       <use style="fill:#a9a9a9;stroke:#a9a9a9;stroke-width:2;" x="36.9" xlink:href="#medc7f765b5" y="67.68"/>
      </g>
     </g>
    </g>
    <g id="xtick_3">
     <g id="line2d_3">
      <g>
       <use style="fill:#a9a9a9;stroke:#a9a9a9;stroke-width:2;" x="64.8" xlink:href="#medc7f765b5" y="67.68"/>
      </g>
     </g>
    </g>
   </g>
   <g id="matplotlib.axis_2">
    <g id="ytick_1">
     <g id="line2d_4">
      <defs>
       <path d="M 0 0 
L -3.5 0 
" id="m813ec4c284" style="stroke:#a9a9a9;stroke-width:2;"/>
      </defs>
      <g>
       <use style="fill:#a9a9a9;stroke:#a9a9a9;stroke-width:2;" x="9" xlink:href="#m813ec4c284" y="67.68"/>
      </g>
     </g>
    </g>
    <g id="ytick_2">
     <g id="line2d_5">
      <g>
       <use style="fill:#a9a9a9;stroke:#a9a9a9;stroke-width:2;" x="9" xlink:href="#m813ec4c284" y="65.819135"/>
      </g>
     </g>
    </g>
    <g id="ytick_3">
     <g id="line2d_6">
      <g>
       <use style="fill:#a9a9a9;stroke:#a9a9a9;stroke-width:2;" x="9" xlink:href="#m813ec4c284" y="63.95827"/>
      </g>
     </g>
    </g>
   </g>
   <g id="line2d_7">
    <path clip-path="url(#pf537c77033)" d="M 10.86031 60.157757 
L 11.79031 59.338623 
L 12.72031 58.096639 
L 13.65031 57.914077 
L 14.58031 57.134994 
L 15.51031 56.258443 
L 16.44031 54.641982 
L 17.37031 53.784425 
L 18.30031 52.828488 
L 19.23031 52.317774 
L 20.16031 51.740707 
L 21.09031 50.677078 
L 22.02031 49.191303 
L 22.95031 47.766868 
L 23.88031 45.633938 
L 24.81031 43.339587 
L 25.74031 40.126169 
L 26.67031 38.212368 
L 27.60031 35.674575 
L 28.53031 33.392523 
L 29.46031 32.151124 
L 30.39031 30.671879 
L 31.32031 29.149559 
L 32.25031 28.849249 
L 33.18031 27.804656 
L 34.11031 28.143616 
L 35.04031 29.011603 
L 35.97031 31.211657 
L 36.90031 32.082038 
L 37.83031 33.464575 
L 38.76031 34.062957 
L 39.69031 34.219973 
L 40.62031 34.506223 
L 41.55031 34.547477 
L 42.48031 33.777608 
L 43.41031 33.114607 
L 44.34031 31.642659 
L 45.27031 30.904166 
L 46.20031 29.109711 
L 47.13031 26.170349 
L 48.06031 24.353442 
L 48.99031 22.688423 
L 49.92031 21.078803 
L 50.85031 19.526588 
L 51.78031 18.934453 
L 52.71031 18.150132 
L 53.64031 18.214895 
L 54.57031 17.665545 
L 55.50031 17.373043 
L 56.43031 17.712671 
L 57.36031 18.037357 
L 58.29031 17.892004 
L 59.22031 18.592231 
L 60.15031 19.968769 
L 61.08031 19.821237 
L 62.01031 20.658789 
L 62.94031 21.328668 
L 63.87031 20.873791 
" style="fill:none;stroke:#fc8d62;stroke-linecap:square;stroke-width:2;"/>
   </g>
   <g id="line2d_8">
    <path clip-path="url(#pf537c77033)" d="M 10.86031 61.229256 
L 11.79031 59.809691 
L 12.72031 58.832636 
L 13.65031 57.980246 
L 14.58031 56.874264 
L 15.51031 55.737469 
L 16.44031 54.688842 
L 17.37031 53.933864 
L 18.30031 52.274601 
L 19.23031 50.96542 
L 20.16031 49.642136 
L 21.09031 48.743735 
L 22.02031 47.764765 
L 22.95031 47.011142 
L 23.88031 44.941481 
L 24.81031 42.246944 
L 25.74031 39.538685 
L 26.67031 37.026935 
L 27.60031 36.43031 
L 28.53031 34.0425 
L 29.46031 31.024484 
L 30.39031 28.916709 
L 31.32031 27.35097 
L 32.25031 28.189465 
L 33.18031 28.265436 
L 34.11031 29.209795 
L 35.04031 31.043401 
L 35.97031 32.314885 
L 36.90031 33.129276 
L 37.83031 33.634471 
L 38.76031 33.392195 
L 39.69031 32.389675 
L 40.62031 32.236566 
L 41.55031 31.2943 
L 42.48031 30.812203 
L 43.41031 29.857367 
L 44.34031 27.573369 
L 45.27031 26.311787 
L 46.20031 24.921765 
L 47.13031 22.71789 
L 48.06031 21.885087 
L 48.99031 20.674433 
L 49.92031 18.981426 
L 50.85031 17.719144 
L 51.78031 16.839555 
L 52.71031 14.461441 
L 53.64031 13.549195 
L 54.57031 13.450919 
L 55.50031 13.859599 
L 56.43031 14.179977 
L 57.36031 14.293457 
L 58.29031 14.897244 
L 59.22031 15.02775 
L 60.15031 15.043571 
L 61.08031 15.756435 
L 62.01031 15.973575 
L 62.94031 16.112759 
L 63.87031 15.13118 
" style="fill:none;stroke:#fc8d62;stroke-dasharray:1.5,1.5;stroke-dashoffset:0;stroke-opacity:0.7;stroke-width:1.5;"/>
   </g>
   <g id="patch_3">
    <path d="M 9 67.68 
L 9 17.28 
" style="fill:none;stroke:#a9a9a9;stroke-linecap:square;stroke-linejoin:miter;stroke-width:2;"/>
   </g>
   <g id="patch_4">
    <path d="M 64.8 67.68 
L 64.8 17.28 
" style="fill:none;"/>
   </g>
   <g id="patch_5">
    <path d="M 9 67.68 
L 64.8 67.68 
" style="fill:none;stroke:#a9a9a9;stroke-linecap:square;stroke-linejoin:miter;stroke-width:2;"/>
   </g>
   <g id="patch_6">
    <path d="M 9 17.28 
L 64.8 17.28 
" style="fill:none;"/>
   </g>
  </g>
  <g id="axes_2">
   <g id="patch_7">
    <path d="M 9 128.16 
L 64.8 128.16 
L 64.8 77.76 
L 9 77.76 
z
" style="fill:none;"/>
   </g>
   <g id="matplotlib.axis_3">
    <g id="xtick_4">
     <g id="line2d_9">
      <g>
       <use style="fill:#a9a9a9;stroke:#a9a9a9;stroke-width:2;" x="9" xlink:href="#medc7f765b5" y="128.16"/>
      </g>
     </g>
    </g>
    <g id="xtick_5">
     <g id="line2d_10">
      <g>
       <use style="fill:#a9a9a9;stroke:#a9a9a9;stroke-width:2;" x="36.9" xlink:href="#medc7f765b5" y="128.16"/>
      </g>
     </g>
    </g>
    <g id="xtick_6">
     <g id="line2d_11">
      <g>
       <use style="fill:#a9a9a9;stroke:#a9a9a9;stroke-width:2;" x="64.8" xlink:href="#medc7f765b5" y="128.16"/>
      </g>
     </g>
    </g>
   </g>
   <g id="matplotlib.axis_4">
    <g id="ytick_4">
     <g id="line2d_12">
      <g>
       <use style="fill:#a9a9a9;stroke:#a9a9a9;stroke-width:2;" x="9" xlink:href="#m813ec4c284" y="128.16"/>
      </g>
     </g>
    </g>
    <g id="ytick_5">
     <g id="line2d_13">
      <g>
       <use style="fill:#a9a9a9;stroke:#a9a9a9;stroke-width:2;" x="9" xlink:href="#m813ec4c284" y="102.96"/>
      </g>
     </g>
    </g>
    <g id="ytick_6">
     <g id="line2d_14">
      <g>
       <use style="fill:#a9a9a9;stroke:#a9a9a9;stroke-width:2;" x="9" xlink:href="#m813ec4c284" y="77.76"/>
      </g>
     </g>
    </g>
   </g>
   <g id="line2d_15">
    <path clip-path="url(#p5da201e690)" d="M 10.86031 85.760033 
L 11.79031 85.533779 
L 12.72031 85.380162 
L 13.65031 85.316232 
L 14.58031 85.227438 
L 15.51031 85.190082 
L 16.44031 85.135859 
L 17.37031 85.118404 
L 18.30031 85.127132 
L 19.23031 85.134444 
L 20.16031 85.153731 
L 21.09031 85.14904 
L 22.02031 85.130827 
L 22.95031 85.129145 
L 23.88031 85.095653 
L 24.81031 85.087317 
L 25.74031 85.08523 
L 26.67031 85.078945 
L 27.60031 85.085389 
L 28.53031 85.087163 
L 29.46031 85.091186 
L 30.39031 85.099466 
L 31.32031 85.080184 
L 32.25031 85.085546 
L 33.18031 85.076121 
L 34.11031 85.072375 
L 35.04031 85.065295 
L 35.97031 85.059264 
L 36.90031 85.048164 
L 37.83031 85.043773 
L 38.76031 85.038458 
L 39.69031 85.031697 
L 40.62031 85.021171 
L 41.55031 85.020607 
L 42.48031 85.016533 
L 43.41031 85.025157 
L 44.34031 85.033873 
L 45.27031 85.038679 
L 46.20031 85.04131 
L 47.13031 85.042641 
L 48.06031 85.038182 
L 48.99031 85.027332 
L 49.92031 85.025799 
L 50.85031 85.027921 
L 51.78031 85.026072 
L 52.71031 85.026358 
L 53.64031 85.023976 
L 54.57031 85.023533 
L 55.50031 85.025957 
L 56.43031 85.01873 
L 57.36031 85.020119 
L 58.29031 85.01354 
L 59.22031 85.013767 
L 60.15031 85.009966 
L 61.08031 84.9995 
L 62.01031 84.999255 
L 62.94031 84.993907 
L 63.87031 84.995454 
" style="fill:none;stroke:#fc8d62;stroke-linecap:square;stroke-width:2;"/>
   </g>
   <g id="line2d_16">
    <path clip-path="url(#p5da201e690)" d="M 10.86031 92.383466 
L 11.79031 92.145418 
L 12.72031 92.016393 
L 13.65031 91.963788 
L 14.58031 91.898542 
L 15.51031 91.839228 
L 16.44031 91.792054 
L 17.37031 91.751235 
L 18.30031 91.735648 
L 19.23031 91.74075 
L 20.16031 91.736709 
L 21.09031 91.74763 
L 22.02031 91.738886 
L 22.95031 91.734952 
L 23.88031 91.717905 
L 24.81031 91.708302 
L 25.74031 91.713822 
L 26.67031 91.715428 
L 27.60031 91.71078 
L 28.53031 91.698546 
L 29.46031 91.687911 
L 30.39031 91.684786 
L 31.32031 91.678003 
L 32.25031 91.676795 
L 33.18031 91.670937 
L 34.11031 91.674839 
L 35.04031 91.67671 
L 35.97031 91.670694 
L 36.90031 91.666135 
L 37.83031 91.661606 
L 38.76031 91.659147 
L 39.69031 91.654315 
L 40.62031 91.652244 
L 41.55031 91.650517 
L 42.48031 91.642259 
L 43.41031 91.646564 
L 44.34031 91.648427 
L 45.27031 91.651835 
L 46.20031 91.650544 
L 47.13031 91.653615 
L 48.06031 91.657648 
L 48.99031 91.659571 
L 49.92031 91.659152 
L 50.85031 91.660121 
L 51.78031 91.660388 
L 52.71031 91.657719 
L 53.64031 91.65732 
L 54.57031 91.657556 
L 55.50031 91.659747 
L 56.43031 91.657459 
L 57.36031 91.655937 
L 58.29031 91.651168 
L 59.22031 91.651352 
L 60.15031 91.648845 
L 61.08031 91.646788 
L 62.01031 91.645231 
L 62.94031 91.64515 
L 63.87031 91.641734 
" style="fill:none;stroke:#fc8d62;stroke-dasharray:1.5,1.5;stroke-dashoffset:0;stroke-opacity:0.7;stroke-width:1.5;"/>
   </g>
   <g id="patch_8">
    <path d="M 9 128.16 
L 9 77.76 
" style="fill:none;stroke:#a9a9a9;stroke-linecap:square;stroke-linejoin:miter;stroke-width:2;"/>
   </g>
   <g id="patch_9">
    <path d="M 64.8 128.16 
L 64.8 77.76 
" style="fill:none;"/>
   </g>
   <g id="patch_10">
    <path d="M 9 128.16 
L 64.8 128.16 
" style="fill:none;stroke:#a9a9a9;stroke-linecap:square;stroke-linejoin:miter;stroke-width:2;"/>
   </g>
   <g id="patch_11">
    <path d="M 9 77.76 
L 64.8 77.76 
" style="fill:none;"/>
   </g>
  </g>
 </g>
 <defs>
  <clipPath id="pf537c77033">
   <rect height="50.4" width="55.8" x="9" y="17.28"/>
  </clipPath>
  <clipPath id="p5da201e690">
   <rect height="50.4" width="55.8" x="9" y="77.76"/>
  </clipPath>
 </defs>
</svg>
