<?xml version="1.0" encoding="utf-8" standalone="no"?>
<!DOCTYPE svg PUBLIC "-//W3C//DTD SVG 1.1//EN"
  "http://www.w3.org/Graphics/SVG/1.1/DTD/svg11.dtd">
<!-- Created with matplotlib (https://matplotlib.org/) -->
<svg height="144pt" version="1.1" viewBox="0 0 72 144" width="72pt" xmlns="http://www.w3.org/2000/svg" xmlns:xlink="http://www.w3.org/1999/xlink">
 <metadata>
  <rdf:RDF xmlns:cc="http://creativecommons.org/ns#" xmlns:dc="http://purl.org/dc/elements/1.1/" xmlns:rdf="http://www.w3.org/1999/02/22-rdf-syntax-ns#">
   <cc:Work>
    <dc:type rdf:resource="http://purl.org/dc/dcmitype/StillImage"/>
    <dc:date>2021-10-13T14:32:29.252138</dc:date>
    <dc:format>image/svg+xml</dc:format>
    <dc:creator>
     <cc:Agent>
      <dc:title>Matplotlib v3.3.2, https://matplotlib.org/</dc:title>
     </cc:Agent>
    </dc:creator>
   </cc:Work>
  </rdf:RDF>
 </metadata>
 <defs>
  <style type="text/css">*{stroke-linecap:butt;stroke-linejoin:round;}</style>
 </defs>
 <g id="figure_1">
  <g id="patch_1">
   <path d="M 0 144 
L 72 144 
L 72 0 
L 0 0 
z
" style="fill:none;"/>
  </g>
  <g id="axes_1">
   <g id="patch_2">
    <path d="M 9 67.68 
L 64.8 67.68 
L 64.8 17.28 
L 9 17.28 
z
" style="fill:none;"/>
   </g>
   <g id="matplotlib.axis_1">
    <g id="xtick_1">
     <g id="line2d_1">
      <defs>
       <path d="M 0 0 
L 0 3.5 
" id="m82276727c5" style="stroke:#a9a9a9;stroke-width:2;"/>
      </defs>
      <g>
       <use style="fill:#a9a9a9;stroke:#a9a9a9;stroke-width:2;" x="9" xlink:href="#m82276727c5" y="67.68"/>
      </g>
     </g>
    </g>
    <g id="xtick_2">
     <g id="line2d_2">
      <g>
       <use style="fill:#a9a9a9;stroke:#a9a9a9;stroke-width:2;" x="36.9" xlink:href="#m82276727c5" y="67.68"/>
      </g>
     </g>
    </g>
    <g id="xtick_3">
     <g id="line2d_3">
      <g>
       <use style="fill:#a9a9a9;stroke:#a9a9a9;stroke-width:2;" x="64.8" xlink:href="#m82276727c5" y="67.68"/>
      </g>
     </g>
    </g>
   </g>
   <g id="matplotlib.axis_2">
    <g id="ytick_1">
     <g id="line2d_4">
      <defs>
       <path d="M 0 0 
L -3.5 0 
" id="m2da9dc7f29" style="stroke:#a9a9a9;stroke-width:2;"/>
      </defs>
      <g>
       <use style="fill:#a9a9a9;stroke:#a9a9a9;stroke-width:2;" x="9" xlink:href="#m2da9dc7f29" y="67.68"/>
      </g>
     </g>
    </g>
    <g id="ytick_2">
     <g id="line2d_5">
      <g>
       <use style="fill:#a9a9a9;stroke:#a9a9a9;stroke-width:2;" x="9" xlink:href="#m2da9dc7f29" y="54.856098"/>
      </g>
     </g>
    </g>
    <g id="ytick_3">
     <g id="line2d_6">
      <g>
       <use style="fill:#a9a9a9;stroke:#a9a9a9;stroke-width:2;" x="9" xlink:href="#m2da9dc7f29" y="42.032197"/>
      </g>
     </g>
    </g>
   </g>
   <g id="line2d_7">
    <path clip-path="url(#p8ac6aacae5)" d="M 10.86031 58.394769 
L 11.79031 55.720636 
L 12.72031 54.368921 
L 13.65031 52.318693 
L 14.58031 50.976597 
L 15.51031 50.162929 
L 16.44031 49.406979 
L 17.37031 48.774921 
L 18.30031 47.637992 
L 19.23031 47.05418 
L 20.16031 46.164321 
L 21.09031 45.182081 
L 22.02031 44.627256 
L 22.95031 43.544184 
L 23.88031 42.349432 
L 24.81031 40.797255 
L 25.74031 39.96571 
L 26.67031 39.354044 
L 27.60031 38.220653 
L 28.53031 37.417909 
L 29.46031 36.680074 
L 30.39031 36.056809 
L 31.32031 35.183814 
L 32.25031 34.306186 
L 33.18031 33.509214 
L 34.11031 33.325645 
L 35.04031 32.88906 
L 35.97031 31.618785 
L 36.90031 31.558643 
L 37.83031 30.691338 
L 38.76031 29.981328 
L 39.69031 29.402165 
L 40.62031 28.172079 
L 41.55031 27.537811 
L 42.48031 26.648814 
L 43.41031 26.700975 
L 44.34031 26.321399 
L 45.27031 26.118561 
L 46.20031 25.154944 
L 47.13031 24.657549 
L 48.06031 24.57246 
L 48.99031 24.493615 
L 49.92031 24.348949 
L 50.85031 23.988548 
L 51.78031 23.932179 
L 52.71031 23.927821 
L 53.64031 23.431542 
L 54.57031 22.570882 
L 55.50031 22.325472 
L 56.43031 21.758918 
L 57.36031 21.128156 
L 58.29031 20.288228 
L 59.22031 19.93116 
L 60.15031 19.347804 
L 61.08031 18.925212 
L 62.01031 18.711865 
L 62.94031 18.2461 
L 63.87031 17.921195 
" style="fill:none;stroke:#fc8d62;stroke-linecap:square;stroke-width:2;"/>
   </g>
   <g id="line2d_8">
    <path clip-path="url(#p8ac6aacae5)" d="M 10.86031 56.241621 
L 11.79031 54.21534 
L 12.72031 52.263553 
L 13.65031 50.438695 
L 14.58031 49.485095 
L 15.51031 47.759689 
L 16.44031 45.663376 
L 17.37031 44.270935 
L 18.30031 43.389656 
L 19.23031 42.671146 
L 20.16031 41.522181 
L 21.09031 40.552138 
L 22.02031 39.622512 
L 22.95031 38.360522 
L 23.88031 37.598778 
L 24.81031 36.794826 
L 25.74031 35.467899 
L 26.67031 34.515975 
L 27.60031 34.096292 
L 28.53031 33.218825 
L 29.46031 32.143827 
L 30.39031 31.485222 
L 31.32031 31.263331 
L 32.25031 30.882446 
L 33.18031 30.056863 
L 34.11031 29.47263 
L 35.04031 28.485469 
L 35.97031 27.238638 
L 36.90031 26.331045 
L 37.83031 25.169653 
L 38.76031 24.648398 
L 39.69031 23.687629 
L 40.62031 22.838386 
L 41.55031 21.856909 
L 42.48031 20.75512 
L 43.41031 20.038281 
L 44.34031 19.345999 
L 45.27031 18.047217 
L 46.20031 17.614406 
L 47.13031 16.054664 
L 48.06031 16.016947 
L 48.99031 15.701355 
L 49.92031 15.458863 
L 50.85031 14.564179 
L 51.78031 14.528801 
L 52.71031 13.88591 
L 53.64031 13.727065 
L 54.57031 13.39893 
L 55.50031 12.499451 
L 56.43031 11.399376 
L 57.36031 10.275235 
L 58.29031 9.530748 
L 59.22031 9.082869 
L 60.15031 9.066767 
L 61.08031 8.95947 
L 62.01031 8.991476 
L 62.94031 9.34694 
L 63.87031 9.191497 
" style="fill:none;stroke:#fc8d62;stroke-dasharray:1.5,1.5;stroke-dashoffset:0;stroke-opacity:0.7;stroke-width:1.5;"/>
   </g>
   <g id="patch_3">
    <path d="M 9 67.68 
L 9 17.28 
" style="fill:none;stroke:#a9a9a9;stroke-linecap:square;stroke-linejoin:miter;stroke-width:2;"/>
   </g>
   <g id="patch_4">
    <path d="M 64.8 67.68 
L 64.8 17.28 
" style="fill:none;"/>
   </g>
   <g id="patch_5">
    <path d="M 9 67.68 
L 64.8 67.68 
" style="fill:none;stroke:#a9a9a9;stroke-linecap:square;stroke-linejoin:miter;stroke-width:2;"/>
   </g>
   <g id="patch_6">
    <path d="M 9 17.28 
L 64.8 17.28 
" style="fill:none;"/>
   </g>
  </g>
  <g id="axes_2">
   <g id="patch_7">
    <path d="M 9 128.16 
L 64.8 128.16 
L 64.8 77.76 
L 9 77.76 
z
" style="fill:none;"/>
   </g>
   <g id="matplotlib.axis_3">
    <g id="xtick_4">
     <g id="line2d_9">
      <g>
       <use style="fill:#a9a9a9;stroke:#a9a9a9;stroke-width:2;" x="9" xlink:href="#m82276727c5" y="128.16"/>
      </g>
     </g>
    </g>
    <g id="xtick_5">
     <g id="line2d_10">
      <g>
       <use style="fill:#a9a9a9;stroke:#a9a9a9;stroke-width:2;" x="36.9" xlink:href="#m82276727c5" y="128.16"/>
      </g>
     </g>
    </g>
    <g id="xtick_6">
     <g id="line2d_11">
      <g>
       <use style="fill:#a9a9a9;stroke:#a9a9a9;stroke-width:2;" x="64.8" xlink:href="#m82276727c5" y="128.16"/>
      </g>
     </g>
    </g>
   </g>
   <g id="matplotlib.axis_4">
    <g id="ytick_4">
     <g id="line2d_12">
      <g>
       <use style="fill:#a9a9a9;stroke:#a9a9a9;stroke-width:2;" x="9" xlink:href="#m2da9dc7f29" y="128.16"/>
      </g>
     </g>
    </g>
    <g id="ytick_5">
     <g id="line2d_13">
      <g>
       <use style="fill:#a9a9a9;stroke:#a9a9a9;stroke-width:2;" x="9" xlink:href="#m2da9dc7f29" y="102.96"/>
      </g>
     </g>
    </g>
    <g id="ytick_6">
     <g id="line2d_14">
      <g>
       <use style="fill:#a9a9a9;stroke:#a9a9a9;stroke-width:2;" x="9" xlink:href="#m2da9dc7f29" y="77.76"/>
      </g>
     </g>
    </g>
   </g>
   <g id="line2d_15">
    <path clip-path="url(#p6709a4c735)" d="M 10.86031 119.611663 
L 11.79031 118.474714 
L 12.72031 117.488539 
L 13.65031 117.107743 
L 14.58031 116.492246 
L 15.51031 115.876696 
L 16.44031 115.530108 
L 17.37031 115.53926 
L 18.30031 115.197903 
L 19.23031 115.187411 
L 20.16031 114.964371 
L 21.09031 114.663732 
L 22.02031 114.361679 
L 22.95031 114.032293 
L 23.88031 113.881069 
L 24.81031 113.751411 
L 25.74031 113.875329 
L 26.67031 113.821453 
L 27.60031 113.815543 
L 28.53031 113.923599 
L 29.46031 113.842402 
L 30.39031 113.926215 
L 31.32031 113.977406 
L 32.25031 114.039025 
L 33.18031 114.061621 
L 34.11031 114.094917 
L 35.04031 114.109089 
L 35.97031 114.114031 
L 36.90031 114.227917 
L 37.83031 114.205296 
L 38.76031 114.132869 
L 39.69031 114.126923 
L 40.62031 114.036792 
L 41.55031 114.083816 
L 42.48031 114.07576 
L 43.41031 114.049303 
L 44.34031 114.055679 
L 45.27031 114.065234 
L 46.20031 113.958019 
L 47.13031 113.952612 
L 48.06031 113.926938 
L 48.99031 113.847284 
L 49.92031 113.833098 
L 50.85031 113.824474 
L 51.78031 113.803862 
L 52.71031 113.7593 
L 53.64031 113.749209 
L 54.57031 113.785519 
L 55.50031 113.848867 
L 56.43031 113.83348 
L 57.36031 113.916979 
L 58.29031 113.898681 
L 59.22031 113.884596 
L 60.15031 113.899484 
L 61.08031 113.935932 
L 62.01031 113.897275 
L 62.94031 113.896115 
L 63.87031 113.899178 
" style="fill:none;stroke:#fc8d62;stroke-linecap:square;stroke-width:2;"/>
   </g>
   <g id="line2d_16">
    <path clip-path="url(#p6709a4c735)" d="M 10.86031 105.946745 
L 11.79031 103.468722 
L 12.72031 101.523847 
L 13.65031 100.620529 
L 14.58031 99.520196 
L 15.51031 98.794194 
L 16.44031 98.155145 
L 17.37031 97.725917 
L 18.30031 97.195697 
L 19.23031 96.717848 
L 20.16031 96.455543 
L 21.09031 96.126018 
L 22.02031 95.945937 
L 22.95031 95.648334 
L 23.88031 95.544985 
L 24.81031 95.462972 
L 25.74031 95.218515 
L 26.67031 95.166677 
L 27.60031 94.983058 
L 28.53031 94.833603 
L 29.46031 94.732121 
L 30.39031 94.651052 
L 31.32031 94.577216 
L 32.25031 94.605757 
L 33.18031 94.548718 
L 34.11031 94.378649 
L 35.04031 94.262207 
L 35.97031 94.008298 
L 36.90031 93.981548 
L 37.83031 93.905317 
L 38.76031 93.901687 
L 39.69031 93.823466 
L 40.62031 93.770344 
L 41.55031 93.697489 
L 42.48031 93.623191 
L 43.41031 93.615308 
L 44.34031 93.626593 
L 45.27031 93.524929 
L 46.20031 93.500407 
L 47.13031 93.354299 
L 48.06031 93.328878 
L 48.99031 93.308257 
L 49.92031 93.283861 
L 50.85031 93.210941 
L 51.78031 93.214636 
L 52.71031 93.188839 
L 53.64031 93.177198 
L 54.57031 93.138579 
L 55.50031 93.150987 
L 56.43031 93.10237 
L 57.36031 93.0814 
L 58.29031 93.075207 
L 59.22031 93.062631 
L 60.15031 93.06685 
L 61.08031 93.024296 
L 62.01031 93.038376 
L 62.94031 93.060808 
L 63.87031 93.015243 
" style="fill:none;stroke:#fc8d62;stroke-dasharray:1.5,1.5;stroke-dashoffset:0;stroke-opacity:0.7;stroke-width:1.5;"/>
   </g>
   <g id="patch_8">
    <path d="M 9 128.16 
L 9 77.76 
" style="fill:none;stroke:#a9a9a9;stroke-linecap:square;stroke-linejoin:miter;stroke-width:2;"/>
   </g>
   <g id="patch_9">
    <path d="M 64.8 128.16 
L 64.8 77.76 
" style="fill:none;"/>
   </g>
   <g id="patch_10">
    <path d="M 9 128.16 
L 64.8 128.16 
" style="fill:none;stroke:#a9a9a9;stroke-linecap:square;stroke-linejoin:miter;stroke-width:2;"/>
   </g>
   <g id="patch_11">
    <path d="M 9 77.76 
L 64.8 77.76 
" style="fill:none;"/>
   </g>
  </g>
 </g>
 <defs>
  <clipPath id="p8ac6aacae5">
   <rect height="50.4" width="55.8" x="9" y="17.28"/>
  </clipPath>
  <clipPath id="p6709a4c735">
   <rect height="50.4" width="55.8" x="9" y="77.76"/>
  </clipPath>
 </defs>
</svg>
