<?xml version="1.0" encoding="utf-8" standalone="no"?>
<!DOCTYPE svg PUBLIC "-//W3C//DTD SVG 1.1//EN"
  "http://www.w3.org/Graphics/SVG/1.1/DTD/svg11.dtd">
<!-- Created with matplotlib (https://matplotlib.org/) -->
<svg height="144pt" version="1.1" viewBox="0 0 72 144" width="72pt" xmlns="http://www.w3.org/2000/svg" xmlns:xlink="http://www.w3.org/1999/xlink">
 <metadata>
  <rdf:RDF xmlns:cc="http://creativecommons.org/ns#" xmlns:dc="http://purl.org/dc/elements/1.1/" xmlns:rdf="http://www.w3.org/1999/02/22-rdf-syntax-ns#">
   <cc:Work>
    <dc:type rdf:resource="http://purl.org/dc/dcmitype/StillImage"/>
    <dc:date>2021-10-14T20:01:11.803636</dc:date>
    <dc:format>image/svg+xml</dc:format>
    <dc:creator>
     <cc:Agent>
      <dc:title>Matplotlib v3.3.2, https://matplotlib.org/</dc:title>
     </cc:Agent>
    </dc:creator>
   </cc:Work>
  </rdf:RDF>
 </metadata>
 <defs>
  <style type="text/css">*{stroke-linecap:butt;stroke-linejoin:round;}</style>
 </defs>
 <g id="figure_1">
  <g id="patch_1">
   <path d="M 0 144 
L 72 144 
L 72 0 
L 0 0 
z
" style="fill:none;"/>
  </g>
  <g id="axes_1">
   <g id="patch_2">
    <path d="M 9 67.68 
L 64.8 67.68 
L 64.8 17.28 
L 9 17.28 
z
" style="fill:none;"/>
   </g>
   <g id="matplotlib.axis_1">
    <g id="xtick_1">
     <g id="line2d_1">
      <defs>
       <path d="M 0 0 
L 0 3.5 
" id="m8cad4d5337" style="stroke:#a9a9a9;stroke-width:2;"/>
      </defs>
      <g>
       <use style="fill:#a9a9a9;stroke:#a9a9a9;stroke-width:2;" x="9" xlink:href="#m8cad4d5337" y="67.68"/>
      </g>
     </g>
    </g>
    <g id="xtick_2">
     <g id="line2d_2">
      <g>
       <use style="fill:#a9a9a9;stroke:#a9a9a9;stroke-width:2;" x="36.9" xlink:href="#m8cad4d5337" y="67.68"/>
      </g>
     </g>
    </g>
    <g id="xtick_3">
     <g id="line2d_3">
      <g>
       <use style="fill:#a9a9a9;stroke:#a9a9a9;stroke-width:2;" x="64.8" xlink:href="#m8cad4d5337" y="67.68"/>
      </g>
     </g>
    </g>
   </g>
   <g id="matplotlib.axis_2">
    <g id="ytick_1">
     <g id="line2d_4">
      <defs>
       <path d="M 0 0 
L -3.5 0 
" id="ma28d12256f" style="stroke:#a9a9a9;stroke-width:2;"/>
      </defs>
      <g>
       <use style="fill:#a9a9a9;stroke:#a9a9a9;stroke-width:2;" x="9" xlink:href="#ma28d12256f" y="67.68"/>
      </g>
     </g>
    </g>
    <g id="ytick_2">
     <g id="line2d_5">
      <g>
       <use style="fill:#a9a9a9;stroke:#a9a9a9;stroke-width:2;" x="9" xlink:href="#ma28d12256f" y="45.724069"/>
      </g>
     </g>
    </g>
    <g id="ytick_3">
     <g id="line2d_6">
      <g>
       <use style="fill:#a9a9a9;stroke:#a9a9a9;stroke-width:2;" x="9" xlink:href="#ma28d12256f" y="23.768139"/>
      </g>
     </g>
    </g>
   </g>
   <g id="line2d_7">
    <path clip-path="url(#p81fec697a3)" d="M 10.860031 56.478229 
L 11.790031 54.610931 
L 12.720031 53.018144 
L 13.650031 51.556745 
L 14.580031 50.187634 
L 15.510031 48.192977 
L 16.440031 47.055419 
L 17.370031 44.54827 
L 18.300031 44.372415 
L 19.230031 43.388587 
L 20.160031 42.408498 
L 21.090031 41.097286 
L 22.020031 40.282963 
L 22.950031 39.637546 
L 23.880031 39.433552 
L 24.810031 38.990493 
L 25.740031 37.989752 
L 26.670031 38.06567 
L 27.600031 37.347783 
L 28.530031 36.510581 
L 29.460031 36.086661 
L 30.390031 35.136949 
L 31.320031 34.569041 
L 32.250031 33.779476 
L 33.180031 33.387569 
L 34.110031 32.616246 
L 35.040031 31.969075 
L 35.970031 32.362894 
L 36.900031 31.95857 
L 37.830031 31.45845 
L 38.760031 30.723432 
L 39.690031 29.713608 
L 40.620031 29.061625 
L 41.550031 28.629134 
L 42.480031 29.152324 
L 43.410031 28.75225 
L 44.340031 28.068119 
L 45.270031 28.111627 
L 46.200031 27.566001 
L 47.130031 26.86862 
L 48.060031 26.260307 
L 48.990031 26.600562 
L 49.920031 26.522602 
L 50.850031 26.03818 
L 51.780031 25.233091 
L 52.710031 24.342503 
L 53.640031 23.827312 
L 54.570031 23.248432 
L 55.500031 22.967143 
L 56.430031 22.518924 
L 57.360031 22.23845 
L 58.290031 21.993198 
L 59.220031 21.398819 
L 60.150031 20.778602 
L 61.080031 20.094999 
L 62.010031 19.47342 
L 62.940031 18.763589 
L 63.870031 18.377797 
" style="fill:none;stroke:#fc8d62;stroke-linecap:square;stroke-width:2;"/>
   </g>
   <g id="line2d_8">
    <path clip-path="url(#p81fec697a3)" d="M 10.860031 56.515901 
L 11.790031 52.587358 
L 12.720031 51.224458 
L 13.650031 49.961997 
L 14.580031 46.926428 
L 15.510031 43.997425 
L 16.440031 41.385133 
L 17.370031 39.801344 
L 18.300031 39.486131 
L 19.230031 38.173233 
L 20.160031 37.232821 
L 21.090031 35.648359 
L 22.020031 34.824668 
L 22.950031 33.913277 
L 23.880031 32.526492 
L 24.810031 32.144149 
L 25.740031 30.966958 
L 26.670031 30.222867 
L 27.600031 29.090908 
L 28.530031 28.189267 
L 29.460031 27.846446 
L 30.390031 27.033975 
L 31.320031 25.402585 
L 32.250031 24.931228 
L 33.180031 23.813061 
L 34.110031 23.12973 
L 35.040031 23.336449 
L 35.970031 22.953181 
L 36.900031 21.852429 
L 37.830031 20.971544 
L 38.760031 19.979676 
L 39.690031 19.509761 
L 40.620031 18.919891 
L 41.550031 18.320619 
L 42.480031 17.963842 
L 43.410031 17.156584 
L 44.340031 16.21777 
L 45.270031 15.260216 
L 46.200031 15.045656 
L 47.130031 14.46448 
L 48.060031 13.686331 
L 48.990031 13.812488 
L 49.920031 13.431301 
L 50.850031 13.075867 
L 51.780031 11.924152 
L 52.710031 10.796347 
L 53.640031 9.277954 
L 54.570031 9.095419 
L 55.500031 8.956947 
L 56.430031 7.976941 
L 57.360031 8.10768 
L 58.290031 8.670944 
L 59.220031 8.354813 
L 60.150031 7.48926 
L 61.080031 6.132765 
L 62.010031 5.69585 
L 62.940031 5.409228 
L 63.870031 5.303429 
" style="fill:none;stroke:#fc8d62;stroke-dasharray:1.5,1.5;stroke-dashoffset:0;stroke-opacity:0.7;stroke-width:1.5;"/>
   </g>
   <g id="patch_3">
    <path d="M 9 67.68 
L 9 17.28 
" style="fill:none;stroke:#a9a9a9;stroke-linecap:square;stroke-linejoin:miter;stroke-width:2;"/>
   </g>
   <g id="patch_4">
    <path d="M 64.8 67.68 
L 64.8 17.28 
" style="fill:none;"/>
   </g>
   <g id="patch_5">
    <path d="M 9 67.68 
L 64.8 67.68 
" style="fill:none;stroke:#a9a9a9;stroke-linecap:square;stroke-linejoin:miter;stroke-width:2;"/>
   </g>
   <g id="patch_6">
    <path d="M 9 17.28 
L 64.8 17.28 
" style="fill:none;"/>
   </g>
  </g>
  <g id="axes_2">
   <g id="patch_7">
    <path d="M 9 128.16 
L 64.8 128.16 
L 64.8 77.76 
L 9 77.76 
z
" style="fill:none;"/>
   </g>
   <g id="matplotlib.axis_3">
    <g id="xtick_4">
     <g id="line2d_9">
      <g>
       <use style="fill:#a9a9a9;stroke:#a9a9a9;stroke-width:2;" x="9" xlink:href="#m8cad4d5337" y="128.16"/>
      </g>
     </g>
    </g>
    <g id="xtick_5">
     <g id="line2d_10">
      <g>
       <use style="fill:#a9a9a9;stroke:#a9a9a9;stroke-width:2;" x="36.9" xlink:href="#m8cad4d5337" y="128.16"/>
      </g>
     </g>
    </g>
    <g id="xtick_6">
     <g id="line2d_11">
      <g>
       <use style="fill:#a9a9a9;stroke:#a9a9a9;stroke-width:2;" x="64.8" xlink:href="#m8cad4d5337" y="128.16"/>
      </g>
     </g>
    </g>
   </g>
   <g id="matplotlib.axis_4">
    <g id="ytick_4">
     <g id="line2d_12">
      <g>
       <use style="fill:#a9a9a9;stroke:#a9a9a9;stroke-width:2;" x="9" xlink:href="#ma28d12256f" y="128.16"/>
      </g>
     </g>
    </g>
    <g id="ytick_5">
     <g id="line2d_13">
      <g>
       <use style="fill:#a9a9a9;stroke:#a9a9a9;stroke-width:2;" x="9" xlink:href="#ma28d12256f" y="102.96"/>
      </g>
     </g>
    </g>
    <g id="ytick_6">
     <g id="line2d_14">
      <g>
       <use style="fill:#a9a9a9;stroke:#a9a9a9;stroke-width:2;" x="9" xlink:href="#ma28d12256f" y="77.76"/>
      </g>
     </g>
    </g>
   </g>
   <g id="line2d_15">
    <path clip-path="url(#p404511f15b)" d="M 10.860031 120.210402 
L 11.790031 117.834532 
L 12.720031 116.411334 
L 13.650031 114.832692 
L 14.580031 113.629076 
L 15.510031 112.868344 
L 16.440031 112.157083 
L 17.370031 110.998248 
L 18.300031 110.57811 
L 19.230031 109.984544 
L 20.160031 109.723918 
L 21.090031 109.356918 
L 22.020031 108.73555 
L 22.950031 108.796526 
L 23.880031 108.731611 
L 24.810031 108.59065 
L 25.740031 108.719431 
L 26.670031 108.344534 
L 27.600031 108.114429 
L 28.530031 107.998202 
L 29.460031 107.889418 
L 30.390031 107.923783 
L 31.320031 107.726012 
L 32.250031 107.6896 
L 33.180031 107.726226 
L 34.110031 107.691973 
L 35.040031 107.534562 
L 35.970031 107.73506 
L 36.900031 107.756197 
L 37.830031 107.660717 
L 38.760031 107.629425 
L 39.690031 107.665906 
L 40.620031 107.545469 
L 41.550031 107.382918 
L 42.480031 107.531873 
L 43.410031 107.492259 
L 44.340031 107.422416 
L 45.270031 107.404641 
L 46.200031 107.230355 
L 47.130031 107.160619 
L 48.060031 107.018306 
L 48.990031 106.917418 
L 49.920031 106.847379 
L 50.850031 106.848778 
L 51.780031 106.816901 
L 52.710031 106.665143 
L 53.640031 106.562868 
L 54.570031 106.459707 
L 55.500031 106.419052 
L 56.430031 106.477072 
L 57.360031 106.418221 
L 58.290031 106.479737 
L 59.220031 106.466884 
L 60.150031 106.472798 
L 61.080031 106.454945 
L 62.010031 106.375885 
L 62.940031 106.302147 
L 63.870031 106.332354 
" style="fill:none;stroke:#fc8d62;stroke-linecap:square;stroke-width:2;"/>
   </g>
   <g id="line2d_16">
    <path clip-path="url(#p404511f15b)" d="M 10.860031 111.972424 
L 11.790031 108.015816 
L 12.720031 105.081147 
L 13.650031 103.092234 
L 14.580031 101.00063 
L 15.510031 99.550799 
L 16.440031 98.524104 
L 17.370031 98.042203 
L 18.300031 97.835342 
L 19.230031 97.296959 
L 20.160031 97.194148 
L 21.090031 96.719184 
L 22.020031 96.392832 
L 22.950031 96.060022 
L 23.880031 95.667309 
L 24.810031 95.592648 
L 25.740031 95.49021 
L 26.670031 95.48193 
L 27.600031 95.168495 
L 28.530031 95.064465 
L 29.460031 95.000566 
L 30.390031 94.769955 
L 31.320031 94.712719 
L 32.250031 94.76215 
L 33.180031 94.657383 
L 34.110031 94.573659 
L 35.040031 94.517208 
L 35.970031 94.450956 
L 36.900031 94.340817 
L 37.830031 94.354514 
L 38.760031 94.306385 
L 39.690031 94.352486 
L 40.620031 94.33866 
L 41.550031 94.34222 
L 42.480031 94.313103 
L 43.410031 94.255732 
L 44.340031 94.17877 
L 45.270031 94.072949 
L 46.200031 93.977316 
L 47.130031 93.913426 
L 48.060031 93.855709 
L 48.990031 93.888024 
L 49.920031 93.854252 
L 50.850031 93.845634 
L 51.780031 93.803953 
L 52.710031 93.827768 
L 53.640031 93.764676 
L 54.570031 93.671659 
L 55.500031 93.63941 
L 56.430031 93.605791 
L 57.360031 93.60579 
L 58.290031 93.642905 
L 59.220031 93.622951 
L 60.150031 93.584968 
L 61.080031 93.487814 
L 62.010031 93.496794 
L 62.940031 93.457671 
L 63.870031 93.422417 
" style="fill:none;stroke:#fc8d62;stroke-dasharray:1.5,1.5;stroke-dashoffset:0;stroke-opacity:0.7;stroke-width:1.5;"/>
   </g>
   <g id="patch_8">
    <path d="M 9 128.16 
L 9 77.76 
" style="fill:none;stroke:#a9a9a9;stroke-linecap:square;stroke-linejoin:miter;stroke-width:2;"/>
   </g>
   <g id="patch_9">
    <path d="M 64.8 128.16 
L 64.8 77.76 
" style="fill:none;"/>
   </g>
   <g id="patch_10">
    <path d="M 9 128.16 
L 64.8 128.16 
" style="fill:none;stroke:#a9a9a9;stroke-linecap:square;stroke-linejoin:miter;stroke-width:2;"/>
   </g>
   <g id="patch_11">
    <path d="M 9 77.76 
L 64.8 77.76 
" style="fill:none;"/>
   </g>
  </g>
 </g>
 <defs>
  <clipPath id="p81fec697a3">
   <rect height="50.4" width="55.8" x="9" y="17.28"/>
  </clipPath>
  <clipPath id="p404511f15b">
   <rect height="50.4" width="55.8" x="9" y="77.76"/>
  </clipPath>
 </defs>
</svg>
