<?xml version="1.0" encoding="utf-8" standalone="no"?>
<!DOCTYPE svg PUBLIC "-//W3C//DTD SVG 1.1//EN"
  "http://www.w3.org/Graphics/SVG/1.1/DTD/svg11.dtd">
<!-- Created with matplotlib (https://matplotlib.org/) -->
<svg height="144pt" version="1.1" viewBox="0 0 72 144" width="72pt" xmlns="http://www.w3.org/2000/svg" xmlns:xlink="http://www.w3.org/1999/xlink">
 <metadata>
  <rdf:RDF xmlns:cc="http://creativecommons.org/ns#" xmlns:dc="http://purl.org/dc/elements/1.1/" xmlns:rdf="http://www.w3.org/1999/02/22-rdf-syntax-ns#">
   <cc:Work>
    <dc:type rdf:resource="http://purl.org/dc/dcmitype/StillImage"/>
    <dc:date>2021-10-14T21:07:21.671278</dc:date>
    <dc:format>image/svg+xml</dc:format>
    <dc:creator>
     <cc:Agent>
      <dc:title>Matplotlib v3.3.2, https://matplotlib.org/</dc:title>
     </cc:Agent>
    </dc:creator>
   </cc:Work>
  </rdf:RDF>
 </metadata>
 <defs>
  <style type="text/css">*{stroke-linecap:butt;stroke-linejoin:round;}</style>
 </defs>
 <g id="figure_1">
  <g id="patch_1">
   <path d="M 0 144 
L 72 144 
L 72 0 
L 0 0 
z
" style="fill:none;"/>
  </g>
  <g id="axes_1">
   <g id="patch_2">
    <path d="M 9 67.68 
L 64.8 67.68 
L 64.8 17.28 
L 9 17.28 
z
" style="fill:none;"/>
   </g>
   <g id="matplotlib.axis_1">
    <g id="xtick_1">
     <g id="line2d_1">
      <defs>
       <path d="M 0 0 
L 0 3.5 
" id="m681803b237" style="stroke:#a9a9a9;stroke-width:2;"/>
      </defs>
      <g>
       <use style="fill:#a9a9a9;stroke:#a9a9a9;stroke-width:2;" x="9" xlink:href="#m681803b237" y="67.68"/>
      </g>
     </g>
    </g>
    <g id="xtick_2">
     <g id="line2d_2">
      <g>
       <use style="fill:#a9a9a9;stroke:#a9a9a9;stroke-width:2;" x="36.9" xlink:href="#m681803b237" y="67.68"/>
      </g>
     </g>
    </g>
    <g id="xtick_3">
     <g id="line2d_3">
      <g>
       <use style="fill:#a9a9a9;stroke:#a9a9a9;stroke-width:2;" x="64.8" xlink:href="#m681803b237" y="67.68"/>
      </g>
     </g>
    </g>
   </g>
   <g id="matplotlib.axis_2">
    <g id="ytick_1">
     <g id="line2d_4">
      <defs>
       <path d="M 0 0 
L -3.5 0 
" id="m095ccc6c36" style="stroke:#a9a9a9;stroke-width:2;"/>
      </defs>
      <g>
       <use style="fill:#a9a9a9;stroke:#a9a9a9;stroke-width:2;" x="9" xlink:href="#m095ccc6c36" y="67.68"/>
      </g>
     </g>
    </g>
    <g id="ytick_2">
     <g id="line2d_5">
      <g>
       <use style="fill:#a9a9a9;stroke:#a9a9a9;stroke-width:2;" x="9" xlink:href="#m095ccc6c36" y="65.833695"/>
      </g>
     </g>
    </g>
    <g id="ytick_3">
     <g id="line2d_6">
      <g>
       <use style="fill:#a9a9a9;stroke:#a9a9a9;stroke-width:2;" x="9" xlink:href="#m095ccc6c36" y="63.987389"/>
      </g>
     </g>
    </g>
   </g>
   <g id="line2d_7">
    <path clip-path="url(#p9cf3ae5635)" d="M 10.860031 59.940567 
L 11.790031 59.578859 
L 12.720031 58.611022 
L 13.650031 58.021938 
L 14.580031 57.762524 
L 15.510031 56.754408 
L 16.440031 56.067841 
L 17.370031 55.259129 
L 18.300031 55.02217 
L 19.230031 53.836499 
L 20.160031 53.432766 
L 21.090031 52.394239 
L 22.020031 50.224728 
L 22.950031 48.877545 
L 23.880031 47.387217 
L 24.810031 46.904791 
L 25.740031 45.731296 
L 26.670031 42.708234 
L 27.600031 40.213575 
L 28.530031 37.20531 
L 29.460031 33.88642 
L 30.390031 31.121064 
L 31.320031 28.640731 
L 32.250031 28.257106 
L 33.180031 30.760452 
L 34.110031 30.628094 
L 35.040031 30.586347 
L 35.970031 30.076319 
L 36.900031 29.339258 
L 37.830031 29.029826 
L 38.760031 28.739378 
L 39.690031 30.263344 
L 40.620031 30.019633 
L 41.550031 30.808444 
L 42.480031 31.332523 
L 43.410031 31.399043 
L 44.340031 30.29145 
L 45.270031 32.268662 
L 46.200031 31.96986 
L 47.130031 31.432221 
L 48.060031 30.623265 
L 48.990031 28.89538 
L 49.920031 26.878635 
L 50.850031 24.997164 
L 51.780031 22.448798 
L 52.710031 20.035602 
L 53.640031 19.228551 
L 54.570031 19.070477 
L 55.500031 19.133237 
L 56.430031 18.057094 
L 57.360031 17.458769 
L 58.290031 17.372315 
L 59.220031 17.732365 
L 60.150031 18.744395 
L 61.080031 18.892343 
L 62.010031 19.686582 
L 62.940031 20.053686 
L 63.870031 21.038749 
" style="fill:none;stroke:#fc8d62;stroke-linecap:square;stroke-width:2;"/>
   </g>
   <g id="line2d_8">
    <path clip-path="url(#p9cf3ae5635)" d="M 10.860031 61.185549 
L 11.790031 60.61557 
L 12.720031 60.154289 
L 13.650031 59.060023 
L 14.580031 58.736017 
L 15.510031 58.009206 
L 16.440031 57.53913 
L 17.370031 56.827619 
L 18.300031 55.948572 
L 19.230031 54.964818 
L 20.160031 54.223859 
L 21.090031 53.386659 
L 22.020031 52.42159 
L 22.950031 51.48306 
L 23.880031 49.705531 
L 24.810031 48.146273 
L 25.740031 46.066396 
L 26.670031 43.751163 
L 27.600031 42.080583 
L 28.530031 39.695314 
L 29.460031 37.218764 
L 30.390031 35.263773 
L 31.320031 31.873618 
L 32.250031 31.104554 
L 33.180031 33.826067 
L 34.110031 35.118645 
L 35.040031 35.780212 
L 35.970031 37.024417 
L 36.900031 37.251998 
L 37.830031 38.137536 
L 38.760031 39.375042 
L 39.690031 39.327019 
L 40.620031 40.220153 
L 41.550031 40.366839 
L 42.480031 39.544744 
L 43.410031 39.341911 
L 44.340031 38.333458 
L 45.270031 38.122845 
L 46.200031 37.481012 
L 47.130031 36.399068 
L 48.060031 34.749369 
L 48.990031 33.21784 
L 49.920031 31.745937 
L 50.850031 29.147676 
L 51.780031 26.940696 
L 52.710031 25.855019 
L 53.640031 23.133011 
L 54.570031 21.3092 
L 55.500031 20.881687 
L 56.430031 21.573854 
L 57.360031 21.691291 
L 58.290031 21.939454 
L 59.220031 22.701245 
L 60.150031 23.06656 
L 61.080031 24.328686 
L 62.010031 25.369537 
L 62.940031 26.779231 
L 63.870031 26.70022 
" style="fill:none;stroke:#fc8d62;stroke-dasharray:1.5,1.5;stroke-dashoffset:0;stroke-opacity:0.7;stroke-width:1.5;"/>
   </g>
   <g id="patch_3">
    <path d="M 9 67.68 
L 9 17.28 
" style="fill:none;stroke:#a9a9a9;stroke-linecap:square;stroke-linejoin:miter;stroke-width:2;"/>
   </g>
   <g id="patch_4">
    <path d="M 64.8 67.68 
L 64.8 17.28 
" style="fill:none;"/>
   </g>
   <g id="patch_5">
    <path d="M 9 67.68 
L 64.8 67.68 
" style="fill:none;stroke:#a9a9a9;stroke-linecap:square;stroke-linejoin:miter;stroke-width:2;"/>
   </g>
   <g id="patch_6">
    <path d="M 9 17.28 
L 64.8 17.28 
" style="fill:none;"/>
   </g>
  </g>
  <g id="axes_2">
   <g id="patch_7">
    <path d="M 9 128.16 
L 64.8 128.16 
L 64.8 77.76 
L 9 77.76 
z
" style="fill:none;"/>
   </g>
   <g id="matplotlib.axis_3">
    <g id="xtick_4">
     <g id="line2d_9">
      <g>
       <use style="fill:#a9a9a9;stroke:#a9a9a9;stroke-width:2;" x="9" xlink:href="#m681803b237" y="128.16"/>
      </g>
     </g>
    </g>
    <g id="xtick_5">
     <g id="line2d_10">
      <g>
       <use style="fill:#a9a9a9;stroke:#a9a9a9;stroke-width:2;" x="36.9" xlink:href="#m681803b237" y="128.16"/>
      </g>
     </g>
    </g>
    <g id="xtick_6">
     <g id="line2d_11">
      <g>
       <use style="fill:#a9a9a9;stroke:#a9a9a9;stroke-width:2;" x="64.8" xlink:href="#m681803b237" y="128.16"/>
      </g>
     </g>
    </g>
   </g>
   <g id="matplotlib.axis_4">
    <g id="ytick_4">
     <g id="line2d_12">
      <g>
       <use style="fill:#a9a9a9;stroke:#a9a9a9;stroke-width:2;" x="9" xlink:href="#m095ccc6c36" y="128.16"/>
      </g>
     </g>
    </g>
    <g id="ytick_5">
     <g id="line2d_13">
      <g>
       <use style="fill:#a9a9a9;stroke:#a9a9a9;stroke-width:2;" x="9" xlink:href="#m095ccc6c36" y="102.96"/>
      </g>
     </g>
    </g>
    <g id="ytick_6">
     <g id="line2d_14">
      <g>
       <use style="fill:#a9a9a9;stroke:#a9a9a9;stroke-width:2;" x="9" xlink:href="#m095ccc6c36" y="77.76"/>
      </g>
     </g>
    </g>
   </g>
   <g id="line2d_15">
    <path clip-path="url(#pca07d051b8)" d="M 10.860031 84.295916 
L 11.790031 84.255291 
L 12.720031 84.112557 
L 13.650031 84.024499 
L 14.580031 84.004272 
L 15.510031 83.936361 
L 16.440031 83.893331 
L 17.370031 83.82913 
L 18.300031 83.812497 
L 19.230031 83.81406 
L 20.160031 83.824097 
L 21.090031 83.807619 
L 22.020031 83.793901 
L 22.950031 83.798387 
L 23.880031 83.788918 
L 24.810031 83.783666 
L 25.740031 83.78759 
L 26.670031 83.787509 
L 27.600031 83.782506 
L 28.530031 83.779414 
L 29.460031 83.765464 
L 30.390031 83.760893 
L 31.320031 83.759433 
L 32.250031 83.753092 
L 33.180031 83.754392 
L 34.110031 83.754749 
L 35.040031 83.753679 
L 35.970031 83.75435 
L 36.900031 83.744905 
L 37.830031 83.738696 
L 38.760031 83.738687 
L 39.690031 83.735353 
L 40.620031 83.734831 
L 41.550031 83.738997 
L 42.480031 83.737456 
L 43.410031 83.746555 
L 44.340031 83.755551 
L 45.270031 83.763324 
L 46.200031 83.764577 
L 47.130031 83.765841 
L 48.060031 83.766307 
L 48.990031 83.764339 
L 49.920031 83.763159 
L 50.850031 83.763058 
L 51.780031 83.759047 
L 52.710031 83.754366 
L 53.640031 83.754227 
L 54.570031 83.748364 
L 55.500031 83.750145 
L 56.430031 83.746407 
L 57.360031 83.739804 
L 58.290031 83.736938 
L 59.220031 83.731618 
L 60.150031 83.728746 
L 61.080031 83.730041 
L 62.010031 83.727014 
L 62.940031 83.725288 
L 63.870031 83.723344 
" style="fill:none;stroke:#fc8d62;stroke-linecap:square;stroke-width:2;"/>
   </g>
   <g id="line2d_16">
    <path clip-path="url(#pca07d051b8)" d="M 10.860031 90.734579 
L 11.790031 90.582889 
L 12.720031 90.418143 
L 13.650031 90.300649 
L 14.580031 90.256664 
L 15.510031 90.185687 
L 16.440031 90.154272 
L 17.370031 90.127454 
L 18.300031 90.108679 
L 19.230031 90.114441 
L 20.160031 90.118372 
L 21.090031 90.13189 
L 22.020031 90.129391 
L 22.950031 90.123258 
L 23.880031 90.120901 
L 24.810031 90.124303 
L 25.740031 90.119919 
L 26.670031 90.118868 
L 27.600031 90.100169 
L 28.530031 90.089967 
L 29.460031 90.078834 
L 30.390031 90.067657 
L 31.320031 90.054978 
L 32.250031 90.049451 
L 33.180031 90.045204 
L 34.110031 90.037402 
L 35.040031 90.02586 
L 35.970031 90.025155 
L 36.900031 90.030319 
L 37.830031 90.024828 
L 38.760031 90.019117 
L 39.690031 90.019442 
L 40.620031 90.023172 
L 41.550031 90.020784 
L 42.480031 90.024138 
L 43.410031 90.029716 
L 44.340031 90.037103 
L 45.270031 90.041182 
L 46.200031 90.037519 
L 47.130031 90.04035 
L 48.060031 90.038744 
L 48.990031 90.036435 
L 49.920031 90.038971 
L 50.850031 90.03392 
L 51.780031 90.032367 
L 52.710031 90.02739 
L 53.640031 90.027672 
L 54.570031 90.026981 
L 55.500031 90.026624 
L 56.430031 90.021152 
L 57.360031 90.020862 
L 58.290031 90.017711 
L 59.220031 90.019488 
L 60.150031 90.014484 
L 61.080031 90.008962 
L 62.010031 90.008405 
L 62.940031 90.007941 
L 63.870031 90.004016 
" style="fill:none;stroke:#fc8d62;stroke-dasharray:1.5,1.5;stroke-dashoffset:0;stroke-opacity:0.7;stroke-width:1.5;"/>
   </g>
   <g id="patch_8">
    <path d="M 9 128.16 
L 9 77.76 
" style="fill:none;stroke:#a9a9a9;stroke-linecap:square;stroke-linejoin:miter;stroke-width:2;"/>
   </g>
   <g id="patch_9">
    <path d="M 64.8 128.16 
L 64.8 77.76 
" style="fill:none;"/>
   </g>
   <g id="patch_10">
    <path d="M 9 128.16 
L 64.8 128.16 
" style="fill:none;stroke:#a9a9a9;stroke-linecap:square;stroke-linejoin:miter;stroke-width:2;"/>
   </g>
   <g id="patch_11">
    <path d="M 9 77.76 
L 64.8 77.76 
" style="fill:none;"/>
   </g>
  </g>
 </g>
 <defs>
  <clipPath id="p9cf3ae5635">
   <rect height="50.4" width="55.8" x="9" y="17.28"/>
  </clipPath>
  <clipPath id="pca07d051b8">
   <rect height="50.4" width="55.8" x="9" y="77.76"/>
  </clipPath>
 </defs>
</svg>
