<?xml version="1.0" encoding="utf-8" standalone="no"?>
<!DOCTYPE svg PUBLIC "-//W3C//DTD SVG 1.1//EN"
  "http://www.w3.org/Graphics/SVG/1.1/DTD/svg11.dtd">
<!-- Created with matplotlib (https://matplotlib.org/) -->
<svg height="144pt" version="1.1" viewBox="0 0 72 144" width="72pt" xmlns="http://www.w3.org/2000/svg" xmlns:xlink="http://www.w3.org/1999/xlink">
 <metadata>
  <rdf:RDF xmlns:cc="http://creativecommons.org/ns#" xmlns:dc="http://purl.org/dc/elements/1.1/" xmlns:rdf="http://www.w3.org/1999/02/22-rdf-syntax-ns#">
   <cc:Work>
    <dc:type rdf:resource="http://purl.org/dc/dcmitype/StillImage"/>
    <dc:date>2021-10-13T15:58:56.485201</dc:date>
    <dc:format>image/svg+xml</dc:format>
    <dc:creator>
     <cc:Agent>
      <dc:title>Matplotlib v3.3.2, https://matplotlib.org/</dc:title>
     </cc:Agent>
    </dc:creator>
   </cc:Work>
  </rdf:RDF>
 </metadata>
 <defs>
  <style type="text/css">*{stroke-linecap:butt;stroke-linejoin:round;}</style>
 </defs>
 <g id="figure_1">
  <g id="patch_1">
   <path d="M 0 144 
L 72 144 
L 72 0 
L 0 0 
z
" style="fill:none;"/>
  </g>
  <g id="axes_1">
   <g id="patch_2">
    <path d="M 9 67.68 
L 64.8 67.68 
L 64.8 17.28 
L 9 17.28 
z
" style="fill:none;"/>
   </g>
   <g id="matplotlib.axis_1">
    <g id="xtick_1">
     <g id="line2d_1">
      <defs>
       <path d="M 0 0 
L 0 3.5 
" id="m408ba20efc" style="stroke:#a9a9a9;stroke-width:2;"/>
      </defs>
      <g>
       <use style="fill:#a9a9a9;stroke:#a9a9a9;stroke-width:2;" x="9" xlink:href="#m408ba20efc" y="67.68"/>
      </g>
     </g>
    </g>
    <g id="xtick_2">
     <g id="line2d_2">
      <g>
       <use style="fill:#a9a9a9;stroke:#a9a9a9;stroke-width:2;" x="36.9" xlink:href="#m408ba20efc" y="67.68"/>
      </g>
     </g>
    </g>
    <g id="xtick_3">
     <g id="line2d_3">
      <g>
       <use style="fill:#a9a9a9;stroke:#a9a9a9;stroke-width:2;" x="64.8" xlink:href="#m408ba20efc" y="67.68"/>
      </g>
     </g>
    </g>
   </g>
   <g id="matplotlib.axis_2">
    <g id="ytick_1">
     <g id="line2d_4">
      <defs>
       <path d="M 0 0 
L -3.5 0 
" id="m1bb6970b76" style="stroke:#a9a9a9;stroke-width:2;"/>
      </defs>
      <g>
       <use style="fill:#a9a9a9;stroke:#a9a9a9;stroke-width:2;" x="9" xlink:href="#m1bb6970b76" y="67.68"/>
      </g>
     </g>
    </g>
    <g id="ytick_2">
     <g id="line2d_5">
      <g>
       <use style="fill:#a9a9a9;stroke:#a9a9a9;stroke-width:2;" x="9" xlink:href="#m1bb6970b76" y="61.602802"/>
      </g>
     </g>
    </g>
    <g id="ytick_3">
     <g id="line2d_6">
      <g>
       <use style="fill:#a9a9a9;stroke:#a9a9a9;stroke-width:2;" x="9" xlink:href="#m1bb6970b76" y="55.525603"/>
      </g>
     </g>
    </g>
   </g>
   <g id="line2d_7">
    <path clip-path="url(#pe09579b5da)" d="M 10.86031 58.437456 
L 11.79031 56.914935 
L 12.72031 55.028069 
L 13.65031 53.42438 
L 14.58031 52.578884 
L 15.51031 51.624868 
L 16.44031 50.270284 
L 17.37031 49.429045 
L 18.30031 48.714244 
L 19.23031 47.105928 
L 20.16031 46.388459 
L 21.09031 45.729529 
L 22.02031 44.976408 
L 22.95031 43.366167 
L 23.88031 42.344407 
L 24.81031 41.16562 
L 25.74031 40.08726 
L 26.67031 38.988881 
L 27.60031 38.472177 
L 28.53031 37.344273 
L 29.46031 36.472533 
L 30.39031 35.949812 
L 31.32031 34.82897 
L 32.25031 34.358837 
L 33.18031 33.348702 
L 34.11031 32.844296 
L 35.04031 32.024238 
L 35.97031 30.914432 
L 36.90031 29.970989 
L 37.83031 29.660285 
L 38.76031 29.193535 
L 39.69031 28.832183 
L 40.62031 28.907731 
L 41.55031 28.40841 
L 42.48031 28.069509 
L 43.41031 27.281754 
L 44.34031 26.425973 
L 45.27031 25.846144 
L 46.20031 25.044043 
L 47.13031 24.455736 
L 48.06031 24.188281 
L 48.99031 23.707191 
L 49.92031 24.00012 
L 50.85031 22.70874 
L 51.78031 22.275811 
L 52.71031 22.040083 
L 53.64031 21.735603 
L 54.57031 21.059794 
L 55.50031 20.404152 
L 56.43031 20.043304 
L 57.36031 18.968406 
L 58.29031 18.439313 
L 59.22031 18.28689 
L 60.15031 18.728388 
L 61.08031 18.11396 
L 62.01031 17.674549 
L 62.94031 18.010076 
L 63.87031 17.58386 
" style="fill:none;stroke:#fc8d62;stroke-linecap:square;stroke-width:2;"/>
   </g>
   <g id="line2d_8">
    <path clip-path="url(#pe09579b5da)" d="M 10.86031 59.107899 
L 11.79031 56.766292 
L 12.72031 54.947516 
L 13.65031 53.587231 
L 14.58031 52.415744 
L 15.51031 51.409961 
L 16.44031 50.372591 
L 17.37031 49.930161 
L 18.30031 48.394195 
L 19.23031 47.131165 
L 20.16031 45.64128 
L 21.09031 44.740469 
L 22.02031 43.27513 
L 22.95031 42.503277 
L 23.88031 41.168529 
L 24.81031 40.840305 
L 25.74031 39.847616 
L 26.67031 38.804073 
L 27.60031 38.356012 
L 28.53031 37.956043 
L 29.46031 36.811774 
L 30.39031 36.112989 
L 31.32031 35.882411 
L 32.25031 35.549922 
L 33.18031 35.375306 
L 34.11031 34.508366 
L 35.04031 33.93881 
L 35.97031 33.889007 
L 36.90031 34.03111 
L 37.83031 33.219791 
L 38.76031 31.94114 
L 39.69031 31.471199 
L 40.62031 31.241906 
L 41.55031 30.609871 
L 42.48031 29.272897 
L 43.41031 28.817887 
L 44.34031 28.007034 
L 45.27031 27.523833 
L 46.20031 27.339093 
L 47.13031 26.896384 
L 48.06031 26.203208 
L 48.99031 25.437575 
L 49.92031 25.073861 
L 50.85031 25.485976 
L 51.78031 24.713853 
L 52.71031 24.18044 
L 53.64031 24.592215 
L 54.57031 23.507223 
L 55.50031 23.991686 
L 56.43031 23.577929 
L 57.36031 23.568736 
L 58.29031 23.83895 
L 59.22031 23.290962 
L 60.15031 22.780988 
L 61.08031 21.761057 
L 62.01031 21.210762 
L 62.94031 21.191545 
L 63.87031 21.142173 
" style="fill:none;stroke:#fc8d62;stroke-dasharray:1.5,1.5;stroke-dashoffset:0;stroke-opacity:0.7;stroke-width:1.5;"/>
   </g>
   <g id="patch_3">
    <path d="M 9 67.68 
L 9 17.28 
" style="fill:none;stroke:#a9a9a9;stroke-linecap:square;stroke-linejoin:miter;stroke-width:2;"/>
   </g>
   <g id="patch_4">
    <path d="M 64.8 67.68 
L 64.8 17.28 
" style="fill:none;"/>
   </g>
   <g id="patch_5">
    <path d="M 9 67.68 
L 64.8 67.68 
" style="fill:none;stroke:#a9a9a9;stroke-linecap:square;stroke-linejoin:miter;stroke-width:2;"/>
   </g>
   <g id="patch_6">
    <path d="M 9 17.28 
L 64.8 17.28 
" style="fill:none;"/>
   </g>
  </g>
  <g id="axes_2">
   <g id="patch_7">
    <path d="M 9 128.16 
L 64.8 128.16 
L 64.8 77.76 
L 9 77.76 
z
" style="fill:none;"/>
   </g>
   <g id="matplotlib.axis_3">
    <g id="xtick_4">
     <g id="line2d_9">
      <g>
       <use style="fill:#a9a9a9;stroke:#a9a9a9;stroke-width:2;" x="9" xlink:href="#m408ba20efc" y="128.16"/>
      </g>
     </g>
    </g>
    <g id="xtick_5">
     <g id="line2d_10">
      <g>
       <use style="fill:#a9a9a9;stroke:#a9a9a9;stroke-width:2;" x="36.9" xlink:href="#m408ba20efc" y="128.16"/>
      </g>
     </g>
    </g>
    <g id="xtick_6">
     <g id="line2d_11">
      <g>
       <use style="fill:#a9a9a9;stroke:#a9a9a9;stroke-width:2;" x="64.8" xlink:href="#m408ba20efc" y="128.16"/>
      </g>
     </g>
    </g>
   </g>
   <g id="matplotlib.axis_4">
    <g id="ytick_4">
     <g id="line2d_12">
      <g>
       <use style="fill:#a9a9a9;stroke:#a9a9a9;stroke-width:2;" x="9" xlink:href="#m1bb6970b76" y="128.16"/>
      </g>
     </g>
    </g>
    <g id="ytick_5">
     <g id="line2d_13">
      <g>
       <use style="fill:#a9a9a9;stroke:#a9a9a9;stroke-width:2;" x="9" xlink:href="#m1bb6970b76" y="102.96"/>
      </g>
     </g>
    </g>
    <g id="ytick_6">
     <g id="line2d_14">
      <g>
       <use style="fill:#a9a9a9;stroke:#a9a9a9;stroke-width:2;" x="9" xlink:href="#m1bb6970b76" y="77.76"/>
      </g>
     </g>
    </g>
   </g>
   <g id="line2d_15">
    <path clip-path="url(#p1acbdf5dea)" d="M 10.86031 124.156587 
L 11.79031 124.145499 
L 12.72031 124.009352 
L 13.65031 123.695921 
L 14.58031 123.498348 
L 15.51031 123.539356 
L 16.44031 123.488489 
L 17.37031 123.495898 
L 18.30031 123.57799 
L 19.23031 123.599421 
L 20.16031 123.520527 
L 21.09031 123.47966 
L 22.02031 123.511373 
L 22.95031 123.496874 
L 23.88031 123.428942 
L 24.81031 123.416937 
L 25.74031 123.407662 
L 26.67031 123.346443 
L 27.60031 123.317753 
L 28.53031 123.35996 
L 29.46031 123.344359 
L 30.39031 123.339466 
L 31.32031 123.362274 
L 32.25031 123.383865 
L 33.18031 123.417768 
L 34.11031 123.438643 
L 35.04031 123.399751 
L 35.97031 123.436419 
L 36.90031 123.438743 
L 37.83031 123.409675 
L 38.76031 123.416468 
L 39.69031 123.423937 
L 40.62031 123.423901 
L 41.55031 123.418786 
L 42.48031 123.417035 
L 43.41031 123.420107 
L 44.34031 123.439961 
L 45.27031 123.429169 
L 46.20031 123.458092 
L 47.13031 123.441624 
L 48.06031 123.417197 
L 48.99031 123.410523 
L 49.92031 123.394223 
L 50.85031 123.390418 
L 51.78031 123.383044 
L 52.71031 123.384911 
L 53.64031 123.387223 
L 54.57031 123.399619 
L 55.50031 123.408086 
L 56.43031 123.393627 
L 57.36031 123.389545 
L 58.29031 123.379154 
L 59.22031 123.373479 
L 60.15031 123.38827 
L 61.08031 123.389568 
L 62.01031 123.373258 
L 62.94031 123.358812 
L 63.87031 123.350329 
" style="fill:none;stroke:#fc8d62;stroke-linecap:square;stroke-width:2;"/>
   </g>
   <g id="line2d_16">
    <path clip-path="url(#p1acbdf5dea)" d="M 10.86031 106.271109 
L 11.79031 104.35097 
L 12.72031 103.53923 
L 13.65031 103.046843 
L 14.58031 102.727919 
L 15.51031 102.447854 
L 16.44031 102.056055 
L 17.37031 101.908293 
L 18.30031 101.647049 
L 19.23031 101.373941 
L 20.16031 101.130339 
L 21.09031 101.204773 
L 22.02031 101.059216 
L 22.95031 101.069558 
L 23.88031 101.043699 
L 24.81031 101.000977 
L 25.74031 100.92692 
L 26.67031 100.878914 
L 27.60031 101.019744 
L 28.53031 100.996859 
L 29.46031 100.96677 
L 30.39031 100.94137 
L 31.32031 100.882064 
L 32.25031 100.851243 
L 33.18031 100.850549 
L 34.11031 100.811051 
L 35.04031 100.807333 
L 35.97031 100.811272 
L 36.90031 100.866206 
L 37.83031 100.842762 
L 38.76031 100.817297 
L 39.69031 100.766049 
L 40.62031 100.833135 
L 41.55031 100.841306 
L 42.48031 100.79012 
L 43.41031 100.785501 
L 44.34031 100.761512 
L 45.27031 100.76839 
L 46.20031 100.748318 
L 47.13031 100.727251 
L 48.06031 100.757976 
L 48.99031 100.724241 
L 49.92031 100.700313 
L 50.85031 100.75141 
L 51.78031 100.764873 
L 52.71031 100.744362 
L 53.64031 100.769437 
L 54.57031 100.747043 
L 55.50031 100.745524 
L 56.43031 100.734347 
L 57.36031 100.720292 
L 58.29031 100.709646 
L 59.22031 100.708271 
L 60.15031 100.682718 
L 61.08031 100.636367 
L 62.01031 100.644675 
L 62.94031 100.650213 
L 63.87031 100.624235 
" style="fill:none;stroke:#fc8d62;stroke-dasharray:1.5,1.5;stroke-dashoffset:0;stroke-opacity:0.7;stroke-width:1.5;"/>
   </g>
   <g id="patch_8">
    <path d="M 9 128.16 
L 9 77.76 
" style="fill:none;stroke:#a9a9a9;stroke-linecap:square;stroke-linejoin:miter;stroke-width:2;"/>
   </g>
   <g id="patch_9">
    <path d="M 64.8 128.16 
L 64.8 77.76 
" style="fill:none;"/>
   </g>
   <g id="patch_10">
    <path d="M 9 128.16 
L 64.8 128.16 
" style="fill:none;stroke:#a9a9a9;stroke-linecap:square;stroke-linejoin:miter;stroke-width:2;"/>
   </g>
   <g id="patch_11">
    <path d="M 9 77.76 
L 64.8 77.76 
" style="fill:none;"/>
   </g>
  </g>
 </g>
 <defs>
  <clipPath id="pe09579b5da">
   <rect height="50.4" width="55.8" x="9" y="17.28"/>
  </clipPath>
  <clipPath id="p1acbdf5dea">
   <rect height="50.4" width="55.8" x="9" y="77.76"/>
  </clipPath>
 </defs>
</svg>
