<?xml version="1.0" encoding="utf-8" standalone="no"?>
<!DOCTYPE svg PUBLIC "-//W3C//DTD SVG 1.1//EN"
  "http://www.w3.org/Graphics/SVG/1.1/DTD/svg11.dtd">
<!-- Created with matplotlib (https://matplotlib.org/) -->
<svg height="144pt" version="1.1" viewBox="0 0 72 144" width="72pt" xmlns="http://www.w3.org/2000/svg" xmlns:xlink="http://www.w3.org/1999/xlink">
 <metadata>
  <rdf:RDF xmlns:cc="http://creativecommons.org/ns#" xmlns:dc="http://purl.org/dc/elements/1.1/" xmlns:rdf="http://www.w3.org/1999/02/22-rdf-syntax-ns#">
   <cc:Work>
    <dc:type rdf:resource="http://purl.org/dc/dcmitype/StillImage"/>
    <dc:date>2021-10-14T21:19:09.614390</dc:date>
    <dc:format>image/svg+xml</dc:format>
    <dc:creator>
     <cc:Agent>
      <dc:title>Matplotlib v3.3.2, https://matplotlib.org/</dc:title>
     </cc:Agent>
    </dc:creator>
   </cc:Work>
  </rdf:RDF>
 </metadata>
 <defs>
  <style type="text/css">*{stroke-linecap:butt;stroke-linejoin:round;}</style>
 </defs>
 <g id="figure_1">
  <g id="patch_1">
   <path d="M 0 144 
L 72 144 
L 72 0 
L 0 0 
z
" style="fill:none;"/>
  </g>
  <g id="axes_1">
   <g id="patch_2">
    <path d="M 9 67.68 
L 64.8 67.68 
L 64.8 17.28 
L 9 17.28 
z
" style="fill:none;"/>
   </g>
   <g id="matplotlib.axis_1">
    <g id="xtick_1">
     <g id="line2d_1">
      <defs>
       <path d="M 0 0 
L 0 3.5 
" id="m165a0d492a" style="stroke:#a9a9a9;stroke-width:2;"/>
      </defs>
      <g>
       <use style="fill:#a9a9a9;stroke:#a9a9a9;stroke-width:2;" x="9" xlink:href="#m165a0d492a" y="67.68"/>
      </g>
     </g>
    </g>
    <g id="xtick_2">
     <g id="line2d_2">
      <g>
       <use style="fill:#a9a9a9;stroke:#a9a9a9;stroke-width:2;" x="36.9" xlink:href="#m165a0d492a" y="67.68"/>
      </g>
     </g>
    </g>
    <g id="xtick_3">
     <g id="line2d_3">
      <g>
       <use style="fill:#a9a9a9;stroke:#a9a9a9;stroke-width:2;" x="64.8" xlink:href="#m165a0d492a" y="67.68"/>
      </g>
     </g>
    </g>
   </g>
   <g id="matplotlib.axis_2">
    <g id="ytick_1">
     <g id="line2d_4">
      <defs>
       <path d="M 0 0 
L -3.5 0 
" id="mb1689c8fda" style="stroke:#a9a9a9;stroke-width:2;"/>
      </defs>
      <g>
       <use style="fill:#a9a9a9;stroke:#a9a9a9;stroke-width:2;" x="9" xlink:href="#mb1689c8fda" y="67.68"/>
      </g>
     </g>
    </g>
    <g id="ytick_2">
     <g id="line2d_5">
      <g>
       <use style="fill:#a9a9a9;stroke:#a9a9a9;stroke-width:2;" x="9" xlink:href="#mb1689c8fda" y="60.036961"/>
      </g>
     </g>
    </g>
    <g id="ytick_3">
     <g id="line2d_6">
      <g>
       <use style="fill:#a9a9a9;stroke:#a9a9a9;stroke-width:2;" x="9" xlink:href="#mb1689c8fda" y="52.393923"/>
      </g>
     </g>
    </g>
   </g>
   <g id="line2d_7">
    <path clip-path="url(#p9e0b6b3ba4)" d="M 10.860031 57.369496 
L 11.790031 56.120061 
L 12.720031 54.307074 
L 13.650031 53.252649 
L 14.580031 52.450026 
L 15.510031 51.344155 
L 16.440031 50.875705 
L 17.370031 50.285418 
L 18.300031 49.288197 
L 19.230031 47.458215 
L 20.160031 46.114713 
L 21.090031 45.527682 
L 22.020031 44.176373 
L 22.950031 42.713692 
L 23.880031 41.91566 
L 24.810031 41.325198 
L 25.740031 41.199008 
L 26.670031 40.361747 
L 27.600031 39.458092 
L 28.530031 38.576782 
L 29.460031 37.64664 
L 30.390031 36.752543 
L 31.320031 36.121005 
L 32.250031 35.214568 
L 33.180031 34.706465 
L 34.110031 33.730604 
L 35.040031 32.815533 
L 35.970031 32.476607 
L 36.900031 32.666839 
L 37.830031 32.665336 
L 38.760031 32.608802 
L 39.690031 32.097364 
L 40.620031 31.550292 
L 41.550031 30.785444 
L 42.480031 29.612341 
L 43.410031 29.265551 
L 44.340031 27.998511 
L 45.270031 27.542737 
L 46.200031 27.768778 
L 47.130031 27.508023 
L 48.060031 27.390517 
L 48.990031 26.893824 
L 49.920031 25.965133 
L 50.850031 25.029406 
L 51.780031 24.821878 
L 52.710031 24.015762 
L 53.640031 23.260143 
L 54.570031 22.824736 
L 55.500031 21.928424 
L 56.430031 21.308486 
L 57.360031 20.720979 
L 58.290031 19.981167 
L 59.220031 19.615986 
L 60.150031 18.632774 
L 61.080031 18.743677 
L 62.010031 18.694622 
L 62.940031 18.637569 
L 63.870031 17.662152 
" style="fill:none;stroke:#fc8d62;stroke-linecap:square;stroke-width:2;"/>
   </g>
   <g id="line2d_8">
    <path clip-path="url(#p9e0b6b3ba4)" d="M 10.860031 57.695184 
L 11.790031 56.074662 
L 12.720031 54.514872 
L 13.650031 53.023256 
L 14.580031 51.774531 
L 15.510031 49.911566 
L 16.440031 48.770043 
L 17.370031 47.960955 
L 18.300031 46.376636 
L 19.230031 44.973368 
L 20.160031 43.792686 
L 21.090031 42.957096 
L 22.020031 41.889317 
L 22.950031 41.36347 
L 23.880031 40.19925 
L 24.810031 39.180366 
L 25.740031 38.561527 
L 26.670031 38.549675 
L 27.600031 37.688459 
L 28.530031 36.880833 
L 29.460031 36.038539 
L 30.390031 35.497814 
L 31.320031 34.848854 
L 32.250031 34.071227 
L 33.180031 33.022248 
L 34.110031 32.46427 
L 35.040031 31.495522 
L 35.970031 30.87337 
L 36.900031 30.793439 
L 37.830031 30.498938 
L 38.760031 29.91934 
L 39.690031 29.740546 
L 40.620031 28.953683 
L 41.550031 28.435959 
L 42.480031 27.165916 
L 43.410031 26.694859 
L 44.340031 26.119598 
L 45.270031 26.235757 
L 46.200031 25.940878 
L 47.130031 26.210955 
L 48.060031 25.819607 
L 48.990031 25.243988 
L 49.920031 24.984227 
L 50.850031 24.5459 
L 51.780031 23.984907 
L 52.710031 24.21753 
L 53.640031 23.662381 
L 54.570031 23.806086 
L 55.500031 23.249939 
L 56.430031 22.902891 
L 57.360031 22.486691 
L 58.290031 22.545947 
L 59.220031 21.833753 
L 60.150031 21.952035 
L 61.080031 21.387901 
L 62.010031 20.938466 
L 62.940031 19.838111 
L 63.870031 19.146438 
" style="fill:none;stroke:#fc8d62;stroke-dasharray:1.5,1.5;stroke-dashoffset:0;stroke-opacity:0.7;stroke-width:1.5;"/>
   </g>
   <g id="patch_3">
    <path d="M 9 67.68 
L 9 17.28 
" style="fill:none;stroke:#a9a9a9;stroke-linecap:square;stroke-linejoin:miter;stroke-width:2;"/>
   </g>
   <g id="patch_4">
    <path d="M 64.8 67.68 
L 64.8 17.28 
" style="fill:none;"/>
   </g>
   <g id="patch_5">
    <path d="M 9 67.68 
L 64.8 67.68 
" style="fill:none;stroke:#a9a9a9;stroke-linecap:square;stroke-linejoin:miter;stroke-width:2;"/>
   </g>
   <g id="patch_6">
    <path d="M 9 17.28 
L 64.8 17.28 
" style="fill:none;"/>
   </g>
  </g>
  <g id="axes_2">
   <g id="patch_7">
    <path d="M 9 128.16 
L 64.8 128.16 
L 64.8 77.76 
L 9 77.76 
z
" style="fill:none;"/>
   </g>
   <g id="matplotlib.axis_3">
    <g id="xtick_4">
     <g id="line2d_9">
      <g>
       <use style="fill:#a9a9a9;stroke:#a9a9a9;stroke-width:2;" x="9" xlink:href="#m165a0d492a" y="128.16"/>
      </g>
     </g>
    </g>
    <g id="xtick_5">
     <g id="line2d_10">
      <g>
       <use style="fill:#a9a9a9;stroke:#a9a9a9;stroke-width:2;" x="36.9" xlink:href="#m165a0d492a" y="128.16"/>
      </g>
     </g>
    </g>
    <g id="xtick_6">
     <g id="line2d_11">
      <g>
       <use style="fill:#a9a9a9;stroke:#a9a9a9;stroke-width:2;" x="64.8" xlink:href="#m165a0d492a" y="128.16"/>
      </g>
     </g>
    </g>
   </g>
   <g id="matplotlib.axis_4">
    <g id="ytick_4">
     <g id="line2d_12">
      <g>
       <use style="fill:#a9a9a9;stroke:#a9a9a9;stroke-width:2;" x="9" xlink:href="#mb1689c8fda" y="128.16"/>
      </g>
     </g>
    </g>
    <g id="ytick_5">
     <g id="line2d_13">
      <g>
       <use style="fill:#a9a9a9;stroke:#a9a9a9;stroke-width:2;" x="9" xlink:href="#mb1689c8fda" y="102.96"/>
      </g>
     </g>
    </g>
    <g id="ytick_6">
     <g id="line2d_14">
      <g>
       <use style="fill:#a9a9a9;stroke:#a9a9a9;stroke-width:2;" x="9" xlink:href="#mb1689c8fda" y="77.76"/>
      </g>
     </g>
    </g>
   </g>
   <g id="line2d_15">
    <path clip-path="url(#p901910b36a)" d="M 10.860031 89.576061 
L 11.790031 87.887319 
L 12.720031 86.86724 
L 13.650031 86.402393 
L 14.580031 85.992476 
L 15.510031 85.580337 
L 16.440031 85.421409 
L 17.370031 85.250465 
L 18.300031 84.992991 
L 19.230031 84.734821 
L 20.160031 84.513008 
L 21.090031 84.448115 
L 22.020031 84.387232 
L 22.950031 84.227171 
L 23.880031 84.214299 
L 24.810031 84.151241 
L 25.740031 84.086859 
L 26.670031 83.98121 
L 27.600031 83.962314 
L 28.530031 83.89374 
L 29.460031 83.851245 
L 30.390031 83.800954 
L 31.320031 83.779188 
L 32.250031 83.743974 
L 33.180031 83.720893 
L 34.110031 83.654328 
L 35.040031 83.648512 
L 35.970031 83.635602 
L 36.900031 83.638012 
L 37.830031 83.636546 
L 38.760031 83.630675 
L 39.690031 83.625281 
L 40.620031 83.601969 
L 41.550031 83.585129 
L 42.480031 83.560471 
L 43.410031 83.556321 
L 44.340031 83.525813 
L 45.270031 83.484068 
L 46.200031 83.494051 
L 47.130031 83.507687 
L 48.060031 83.492007 
L 48.990031 83.497995 
L 49.920031 83.491486 
L 50.850031 83.475839 
L 51.780031 83.470991 
L 52.710031 83.461796 
L 53.640031 83.444104 
L 54.570031 83.431607 
L 55.500031 83.411949 
L 56.430031 83.417304 
L 57.360031 83.398679 
L 58.290031 83.378419 
L 59.220031 83.375689 
L 60.150031 83.360601 
L 61.080031 83.344323 
L 62.010031 83.338036 
L 62.940031 83.343051 
L 63.870031 83.339191 
" style="fill:none;stroke:#fc8d62;stroke-linecap:square;stroke-width:2;"/>
   </g>
   <g id="line2d_16">
    <path clip-path="url(#p901910b36a)" d="M 10.860031 97.00415 
L 11.790031 94.815194 
L 12.720031 93.567104 
L 13.650031 92.753682 
L 14.580031 92.350775 
L 15.510031 92.061498 
L 16.440031 91.782561 
L 17.370031 91.59469 
L 18.300031 91.359366 
L 19.230031 91.210072 
L 20.160031 91.137283 
L 21.090031 91.02283 
L 22.020031 90.918008 
L 22.950031 90.847576 
L 23.880031 90.762054 
L 24.810031 90.724143 
L 25.740031 90.673575 
L 26.670031 90.655872 
L 27.600031 90.6637 
L 28.530031 90.626632 
L 29.460031 90.585519 
L 30.390031 90.530465 
L 31.320031 90.547158 
L 32.250031 90.540933 
L 33.180031 90.543852 
L 34.110031 90.571084 
L 35.040031 90.502186 
L 35.970031 90.460893 
L 36.900031 90.441223 
L 37.830031 90.377619 
L 38.760031 90.333492 
L 39.690031 90.319725 
L 40.620031 90.282721 
L 41.550031 90.296874 
L 42.480031 90.29431 
L 43.410031 90.292201 
L 44.340031 90.265292 
L 45.270031 90.266978 
L 46.200031 90.281112 
L 47.130031 90.257163 
L 48.060031 90.283516 
L 48.990031 90.281892 
L 49.920031 90.29406 
L 50.850031 90.266158 
L 51.780031 90.238596 
L 52.710031 90.261283 
L 53.640031 90.238773 
L 54.570031 90.2218 
L 55.500031 90.19892 
L 56.430031 90.196225 
L 57.360031 90.182149 
L 58.290031 90.17369 
L 59.220031 90.159854 
L 60.150031 90.162783 
L 61.080031 90.132382 
L 62.010031 90.119805 
L 62.940031 90.115106 
L 63.870031 90.117067 
" style="fill:none;stroke:#fc8d62;stroke-dasharray:1.5,1.5;stroke-dashoffset:0;stroke-opacity:0.7;stroke-width:1.5;"/>
   </g>
   <g id="patch_8">
    <path d="M 9 128.16 
L 9 77.76 
" style="fill:none;stroke:#a9a9a9;stroke-linecap:square;stroke-linejoin:miter;stroke-width:2;"/>
   </g>
   <g id="patch_9">
    <path d="M 64.8 128.16 
L 64.8 77.76 
" style="fill:none;"/>
   </g>
   <g id="patch_10">
    <path d="M 9 128.16 
L 64.8 128.16 
" style="fill:none;stroke:#a9a9a9;stroke-linecap:square;stroke-linejoin:miter;stroke-width:2;"/>
   </g>
   <g id="patch_11">
    <path d="M 9 77.76 
L 64.8 77.76 
" style="fill:none;"/>
   </g>
  </g>
 </g>
 <defs>
  <clipPath id="p9e0b6b3ba4">
   <rect height="50.4" width="55.8" x="9" y="17.28"/>
  </clipPath>
  <clipPath id="p901910b36a">
   <rect height="50.4" width="55.8" x="9" y="77.76"/>
  </clipPath>
 </defs>
</svg>
