<?xml version="1.0" encoding="utf-8" standalone="no"?>
<!DOCTYPE svg PUBLIC "-//W3C//DTD SVG 1.1//EN"
  "http://www.w3.org/Graphics/SVG/1.1/DTD/svg11.dtd">
<!-- Created with matplotlib (https://matplotlib.org/) -->
<svg height="144pt" version="1.1" viewBox="0 0 72 144" width="72pt" xmlns="http://www.w3.org/2000/svg" xmlns:xlink="http://www.w3.org/1999/xlink">
 <metadata>
  <rdf:RDF xmlns:cc="http://creativecommons.org/ns#" xmlns:dc="http://purl.org/dc/elements/1.1/" xmlns:rdf="http://www.w3.org/1999/02/22-rdf-syntax-ns#">
   <cc:Work>
    <dc:type rdf:resource="http://purl.org/dc/dcmitype/StillImage"/>
    <dc:date>2021-10-13T15:50:13.746670</dc:date>
    <dc:format>image/svg+xml</dc:format>
    <dc:creator>
     <cc:Agent>
      <dc:title>Matplotlib v3.3.2, https://matplotlib.org/</dc:title>
     </cc:Agent>
    </dc:creator>
   </cc:Work>
  </rdf:RDF>
 </metadata>
 <defs>
  <style type="text/css">*{stroke-linecap:butt;stroke-linejoin:round;}</style>
 </defs>
 <g id="figure_1">
  <g id="patch_1">
   <path d="M 0 144 
L 72 144 
L 72 0 
L 0 0 
z
" style="fill:none;"/>
  </g>
  <g id="axes_1">
   <g id="patch_2">
    <path d="M 9 67.68 
L 64.8 67.68 
L 64.8 17.28 
L 9 17.28 
z
" style="fill:none;"/>
   </g>
   <g id="matplotlib.axis_1">
    <g id="xtick_1">
     <g id="line2d_1">
      <defs>
       <path d="M 0 0 
L 0 3.5 
" id="m681380ffb0" style="stroke:#a9a9a9;stroke-width:2;"/>
      </defs>
      <g>
       <use style="fill:#a9a9a9;stroke:#a9a9a9;stroke-width:2;" x="9" xlink:href="#m681380ffb0" y="67.68"/>
      </g>
     </g>
    </g>
    <g id="xtick_2">
     <g id="line2d_2">
      <g>
       <use style="fill:#a9a9a9;stroke:#a9a9a9;stroke-width:2;" x="36.9" xlink:href="#m681380ffb0" y="67.68"/>
      </g>
     </g>
    </g>
    <g id="xtick_3">
     <g id="line2d_3">
      <g>
       <use style="fill:#a9a9a9;stroke:#a9a9a9;stroke-width:2;" x="64.8" xlink:href="#m681380ffb0" y="67.68"/>
      </g>
     </g>
    </g>
   </g>
   <g id="matplotlib.axis_2">
    <g id="ytick_1">
     <g id="line2d_4">
      <defs>
       <path d="M 0 0 
L -3.5 0 
" id="md854929a11" style="stroke:#a9a9a9;stroke-width:2;"/>
      </defs>
      <g>
       <use style="fill:#a9a9a9;stroke:#a9a9a9;stroke-width:2;" x="9" xlink:href="#md854929a11" y="67.68"/>
      </g>
     </g>
    </g>
    <g id="ytick_2">
     <g id="line2d_5">
      <g>
       <use style="fill:#a9a9a9;stroke:#a9a9a9;stroke-width:2;" x="9" xlink:href="#md854929a11" y="66.304987"/>
      </g>
     </g>
    </g>
    <g id="ytick_3">
     <g id="line2d_6">
      <g>
       <use style="fill:#a9a9a9;stroke:#a9a9a9;stroke-width:2;" x="9" xlink:href="#md854929a11" y="64.929973"/>
      </g>
     </g>
    </g>
   </g>
   <g id="line2d_7">
    <path clip-path="url(#pd445661422)" d="M 10.86031 62.484008 
L 11.79031 61.742572 
L 12.72031 61.023413 
L 13.65031 61.041838 
L 14.58031 60.594434 
L 15.51031 60.224907 
L 16.44031 59.675915 
L 17.37031 58.799563 
L 18.30031 57.772391 
L 19.23031 56.752572 
L 20.16031 56.316511 
L 21.09031 55.775491 
L 22.02031 54.430691 
L 22.95031 53.193517 
L 23.88031 52.089971 
L 24.81031 50.706128 
L 25.74031 49.43046 
L 26.67031 47.616562 
L 27.60031 44.597883 
L 28.53031 42.219205 
L 29.46031 39.043002 
L 30.39031 35.83035 
L 31.32031 34.131869 
L 32.25031 33.481819 
L 33.18031 32.677961 
L 34.11031 33.798526 
L 35.04031 35.737027 
L 35.97031 37.020582 
L 36.90031 37.883612 
L 37.83031 36.496088 
L 38.76031 37.604948 
L 39.69031 38.403841 
L 40.62031 39.021033 
L 41.55031 38.883205 
L 42.48031 37.820872 
L 43.41031 37.829208 
L 44.34031 37.370887 
L 45.27031 38.290135 
L 46.20031 37.655513 
L 47.13031 37.224883 
L 48.06031 36.078104 
L 48.99031 34.050674 
L 49.92031 31.403834 
L 50.85031 29.068046 
L 51.78031 25.873176 
L 52.71031 22.785124 
L 53.64031 20.047389 
L 54.57031 18.22781 
L 55.50031 17.535325 
L 56.43031 17.348751 
L 57.36031 19.251354 
L 58.29031 20.486992 
L 59.22031 21.744751 
L 60.15031 23.661675 
L 61.08031 25.699406 
L 62.01031 26.102914 
L 62.94031 26.835088 
L 63.87031 26.123436 
" style="fill:none;stroke:#fc8d62;stroke-linecap:square;stroke-width:2;"/>
   </g>
   <g id="line2d_8">
    <path clip-path="url(#pd445661422)" d="M 10.86031 62.98757 
L 11.79031 62.098619 
L 12.72031 61.316587 
L 13.65031 60.60697 
L 14.58031 60.0766 
L 15.51031 59.190301 
L 16.44031 58.975269 
L 17.37031 58.170738 
L 18.30031 57.596122 
L 19.23031 57.138538 
L 20.16031 56.088788 
L 21.09031 55.489241 
L 22.02031 54.647414 
L 22.95031 52.705658 
L 23.88031 51.556616 
L 24.81031 50.570626 
L 25.74031 48.772694 
L 26.67031 46.87526 
L 27.60031 44.470226 
L 28.53031 40.868382 
L 29.46031 37.316096 
L 30.39031 33.839943 
L 31.32031 32.454107 
L 32.25031 32.06035 
L 33.18031 32.034747 
L 34.11031 34.249644 
L 35.04031 35.407197 
L 35.97031 35.238684 
L 36.90031 35.557709 
L 37.83031 36.15655 
L 38.76031 35.831391 
L 39.69031 35.838506 
L 40.62031 35.845753 
L 41.55031 36.142127 
L 42.48031 34.973793 
L 43.41031 35.752875 
L 44.34031 35.581903 
L 45.27031 36.051322 
L 46.20031 34.880741 
L 47.13031 33.919389 
L 48.06031 33.502668 
L 48.99031 31.338777 
L 49.92031 29.085049 
L 50.85031 26.985624 
L 51.78031 24.214159 
L 52.71031 20.19652 
L 53.64031 17.688363 
L 54.57031 17.41182 
L 55.50031 17.286752 
L 56.43031 18.670026 
L 57.36031 20.706179 
L 58.29031 21.769609 
L 59.22031 21.566499 
L 60.15031 21.979315 
L 61.08031 23.283664 
L 62.01031 24.303995 
L 62.94031 24.219232 
L 63.87031 24.211749 
" style="fill:none;stroke:#fc8d62;stroke-dasharray:1.5,1.5;stroke-dashoffset:0;stroke-opacity:0.7;stroke-width:1.5;"/>
   </g>
   <g id="patch_3">
    <path d="M 9 67.68 
L 9 17.28 
" style="fill:none;stroke:#a9a9a9;stroke-linecap:square;stroke-linejoin:miter;stroke-width:2;"/>
   </g>
   <g id="patch_4">
    <path d="M 64.8 67.68 
L 64.8 17.28 
" style="fill:none;"/>
   </g>
   <g id="patch_5">
    <path d="M 9 67.68 
L 64.8 67.68 
" style="fill:none;stroke:#a9a9a9;stroke-linecap:square;stroke-linejoin:miter;stroke-width:2;"/>
   </g>
   <g id="patch_6">
    <path d="M 9 17.28 
L 64.8 17.28 
" style="fill:none;"/>
   </g>
  </g>
  <g id="axes_2">
   <g id="patch_7">
    <path d="M 9 128.16 
L 64.8 128.16 
L 64.8 77.76 
L 9 77.76 
z
" style="fill:none;"/>
   </g>
   <g id="matplotlib.axis_3">
    <g id="xtick_4">
     <g id="line2d_9">
      <g>
       <use style="fill:#a9a9a9;stroke:#a9a9a9;stroke-width:2;" x="9" xlink:href="#m681380ffb0" y="128.16"/>
      </g>
     </g>
    </g>
    <g id="xtick_5">
     <g id="line2d_10">
      <g>
       <use style="fill:#a9a9a9;stroke:#a9a9a9;stroke-width:2;" x="36.9" xlink:href="#m681380ffb0" y="128.16"/>
      </g>
     </g>
    </g>
    <g id="xtick_6">
     <g id="line2d_11">
      <g>
       <use style="fill:#a9a9a9;stroke:#a9a9a9;stroke-width:2;" x="64.8" xlink:href="#m681380ffb0" y="128.16"/>
      </g>
     </g>
    </g>
   </g>
   <g id="matplotlib.axis_4">
    <g id="ytick_4">
     <g id="line2d_12">
      <g>
       <use style="fill:#a9a9a9;stroke:#a9a9a9;stroke-width:2;" x="9" xlink:href="#md854929a11" y="128.16"/>
      </g>
     </g>
    </g>
    <g id="ytick_5">
     <g id="line2d_13">
      <g>
       <use style="fill:#a9a9a9;stroke:#a9a9a9;stroke-width:2;" x="9" xlink:href="#md854929a11" y="102.96"/>
      </g>
     </g>
    </g>
    <g id="ytick_6">
     <g id="line2d_14">
      <g>
       <use style="fill:#a9a9a9;stroke:#a9a9a9;stroke-width:2;" x="9" xlink:href="#md854929a11" y="77.76"/>
      </g>
     </g>
    </g>
   </g>
   <g id="line2d_15">
    <path clip-path="url(#p2d10880251)" d="M 10.86031 87.435252 
L 11.79031 87.247203 
L 12.72031 87.157156 
L 13.65031 87.103665 
L 14.58031 87.022679 
L 15.51031 86.970849 
L 16.44031 86.901938 
L 17.37031 86.865672 
L 18.30031 86.832252 
L 19.23031 86.817094 
L 20.16031 86.812381 
L 21.09031 86.817194 
L 22.02031 86.814097 
L 22.95031 86.825792 
L 23.88031 86.82294 
L 24.81031 86.815126 
L 25.74031 86.817309 
L 26.67031 86.812137 
L 27.60031 86.803015 
L 28.53031 86.800067 
L 29.46031 86.790543 
L 30.39031 86.777547 
L 31.32031 86.772357 
L 32.25031 86.771919 
L 33.18031 86.763758 
L 34.11031 86.763439 
L 35.04031 86.761791 
L 35.97031 86.756204 
L 36.90031 86.762 
L 37.83031 86.752091 
L 38.76031 86.748929 
L 39.69031 86.746433 
L 40.62031 86.746526 
L 41.55031 86.750086 
L 42.48031 86.743742 
L 43.41031 86.747822 
L 44.34031 86.751741 
L 45.27031 86.75683 
L 46.20031 86.755101 
L 47.13031 86.753805 
L 48.06031 86.755193 
L 48.99031 86.755195 
L 49.92031 86.755602 
L 50.85031 86.758367 
L 51.78031 86.755096 
L 52.71031 86.75622 
L 53.64031 86.755384 
L 54.57031 86.752488 
L 55.50031 86.750582 
L 56.43031 86.748592 
L 57.36031 86.748338 
L 58.29031 86.747962 
L 59.22031 86.746145 
L 60.15031 86.746311 
L 61.08031 86.740885 
L 62.01031 86.738673 
L 62.94031 86.736757 
L 63.87031 86.737132 
" style="fill:none;stroke:#fc8d62;stroke-linecap:square;stroke-width:2;"/>
   </g>
   <g id="line2d_16">
    <path clip-path="url(#p2d10880251)" d="M 10.86031 90.898406 
L 11.79031 90.664349 
L 12.72031 90.505876 
L 13.65031 90.40388 
L 14.58031 90.355737 
L 15.51031 90.289337 
L 16.44031 90.264528 
L 17.37031 90.249867 
L 18.30031 90.248948 
L 19.23031 90.250619 
L 20.16031 90.238729 
L 21.09031 90.243833 
L 22.02031 90.24466 
L 22.95031 90.232195 
L 23.88031 90.219108 
L 24.81031 90.226892 
L 25.74031 90.222431 
L 26.67031 90.211189 
L 27.60031 90.211734 
L 28.53031 90.211797 
L 29.46031 90.209449 
L 30.39031 90.20424 
L 31.32031 90.198225 
L 32.25031 90.190093 
L 33.18031 90.186403 
L 34.11031 90.184613 
L 35.04031 90.189161 
L 35.97031 90.183883 
L 36.90031 90.180969 
L 37.83031 90.176028 
L 38.76031 90.170558 
L 39.69031 90.173762 
L 40.62031 90.164115 
L 41.55031 90.165316 
L 42.48031 90.171355 
L 43.41031 90.174905 
L 44.34031 90.176286 
L 45.27031 90.182034 
L 46.20031 90.183112 
L 47.13031 90.183037 
L 48.06031 90.184852 
L 48.99031 90.18703 
L 49.92031 90.187149 
L 50.85031 90.182879 
L 51.78031 90.181046 
L 52.71031 90.180316 
L 53.64031 90.180669 
L 54.57031 90.17632 
L 55.50031 90.172181 
L 56.43031 90.173569 
L 57.36031 90.170776 
L 58.29031 90.169723 
L 59.22031 90.165751 
L 60.15031 90.16585 
L 61.08031 90.162605 
L 62.01031 90.159002 
L 62.94031 90.157161 
L 63.87031 90.156485 
" style="fill:none;stroke:#fc8d62;stroke-dasharray:1.5,1.5;stroke-dashoffset:0;stroke-opacity:0.7;stroke-width:1.5;"/>
   </g>
   <g id="patch_8">
    <path d="M 9 128.16 
L 9 77.76 
" style="fill:none;stroke:#a9a9a9;stroke-linecap:square;stroke-linejoin:miter;stroke-width:2;"/>
   </g>
   <g id="patch_9">
    <path d="M 64.8 128.16 
L 64.8 77.76 
" style="fill:none;"/>
   </g>
   <g id="patch_10">
    <path d="M 9 128.16 
L 64.8 128.16 
" style="fill:none;stroke:#a9a9a9;stroke-linecap:square;stroke-linejoin:miter;stroke-width:2;"/>
   </g>
   <g id="patch_11">
    <path d="M 9 77.76 
L 64.8 77.76 
" style="fill:none;"/>
   </g>
  </g>
 </g>
 <defs>
  <clipPath id="pd445661422">
   <rect height="50.4" width="55.8" x="9" y="17.28"/>
  </clipPath>
  <clipPath id="p2d10880251">
   <rect height="50.4" width="55.8" x="9" y="77.76"/>
  </clipPath>
 </defs>
</svg>
