<?xml version="1.0" encoding="utf-8" standalone="no"?>
<!DOCTYPE svg PUBLIC "-//W3C//DTD SVG 1.1//EN"
  "http://www.w3.org/Graphics/SVG/1.1/DTD/svg11.dtd">
<!-- Created with matplotlib (https://matplotlib.org/) -->
<svg height="144pt" version="1.1" viewBox="0 0 72 144" width="72pt" xmlns="http://www.w3.org/2000/svg" xmlns:xlink="http://www.w3.org/1999/xlink">
 <metadata>
  <rdf:RDF xmlns:cc="http://creativecommons.org/ns#" xmlns:dc="http://purl.org/dc/elements/1.1/" xmlns:rdf="http://www.w3.org/1999/02/22-rdf-syntax-ns#">
   <cc:Work>
    <dc:type rdf:resource="http://purl.org/dc/dcmitype/StillImage"/>
    <dc:date>2021-10-13T15:47:13.259149</dc:date>
    <dc:format>image/svg+xml</dc:format>
    <dc:creator>
     <cc:Agent>
      <dc:title>Matplotlib v3.3.2, https://matplotlib.org/</dc:title>
     </cc:Agent>
    </dc:creator>
   </cc:Work>
  </rdf:RDF>
 </metadata>
 <defs>
  <style type="text/css">*{stroke-linecap:butt;stroke-linejoin:round;}</style>
 </defs>
 <g id="figure_1">
  <g id="patch_1">
   <path d="M 0 144 
L 72 144 
L 72 0 
L 0 0 
z
" style="fill:none;"/>
  </g>
  <g id="axes_1">
   <g id="patch_2">
    <path d="M 9 67.68 
L 64.8 67.68 
L 64.8 17.28 
L 9 17.28 
z
" style="fill:none;"/>
   </g>
   <g id="matplotlib.axis_1">
    <g id="xtick_1">
     <g id="line2d_1">
      <defs>
       <path d="M 0 0 
L 0 3.5 
" id="mb99066d665" style="stroke:#a9a9a9;stroke-width:2;"/>
      </defs>
      <g>
       <use style="fill:#a9a9a9;stroke:#a9a9a9;stroke-width:2;" x="9" xlink:href="#mb99066d665" y="67.68"/>
      </g>
     </g>
    </g>
    <g id="xtick_2">
     <g id="line2d_2">
      <g>
       <use style="fill:#a9a9a9;stroke:#a9a9a9;stroke-width:2;" x="36.9" xlink:href="#mb99066d665" y="67.68"/>
      </g>
     </g>
    </g>
    <g id="xtick_3">
     <g id="line2d_3">
      <g>
       <use style="fill:#a9a9a9;stroke:#a9a9a9;stroke-width:2;" x="64.8" xlink:href="#mb99066d665" y="67.68"/>
      </g>
     </g>
    </g>
   </g>
   <g id="matplotlib.axis_2">
    <g id="ytick_1">
     <g id="line2d_4">
      <defs>
       <path d="M 0 0 
L -3.5 0 
" id="m7899806a99" style="stroke:#a9a9a9;stroke-width:2;"/>
      </defs>
      <g>
       <use style="fill:#a9a9a9;stroke:#a9a9a9;stroke-width:2;" x="9" xlink:href="#m7899806a99" y="67.68"/>
      </g>
     </g>
    </g>
    <g id="ytick_2">
     <g id="line2d_5">
      <g>
       <use style="fill:#a9a9a9;stroke:#a9a9a9;stroke-width:2;" x="9" xlink:href="#m7899806a99" y="61.609076"/>
      </g>
     </g>
    </g>
    <g id="ytick_3">
     <g id="line2d_6">
      <g>
       <use style="fill:#a9a9a9;stroke:#a9a9a9;stroke-width:2;" x="9" xlink:href="#m7899806a99" y="55.538151"/>
      </g>
     </g>
    </g>
   </g>
   <g id="line2d_7">
    <path clip-path="url(#pbe75f3c245)" d="M 10.86031 59.200049 
L 11.79031 58.169692 
L 12.72031 56.941197 
L 13.65031 55.244023 
L 14.58031 52.743736 
L 15.51031 52.129746 
L 16.44031 51.431771 
L 17.37031 50.847286 
L 18.30031 50.04762 
L 19.23031 48.933194 
L 20.16031 48.312534 
L 21.09031 46.740271 
L 22.02031 45.606565 
L 22.95031 45.467699 
L 23.88031 43.680846 
L 24.81031 42.983761 
L 25.74031 41.908833 
L 26.67031 40.008179 
L 27.60031 39.428224 
L 28.53031 39.065151 
L 29.46031 38.17535 
L 30.39031 37.668954 
L 31.32031 37.068431 
L 32.25031 36.32102 
L 33.18031 35.660079 
L 34.11031 35.750052 
L 35.04031 35.483736 
L 35.97031 35.069744 
L 36.90031 34.8123 
L 37.83031 34.515509 
L 38.76031 33.542642 
L 39.69031 33.188581 
L 40.62031 32.333745 
L 41.55031 32.143293 
L 42.48031 31.329015 
L 43.41031 30.096277 
L 44.34031 29.249212 
L 45.27031 27.855482 
L 46.20031 27.156883 
L 47.13031 26.076145 
L 48.06031 24.362609 
L 48.99031 23.752975 
L 49.92031 22.254619 
L 50.85031 21.549351 
L 51.78031 20.82932 
L 52.71031 20.719167 
L 53.64031 19.750162 
L 54.57031 20.181484 
L 55.50031 20.277947 
L 56.43031 20.133528 
L 57.36031 19.78408 
L 58.29031 20.080875 
L 59.22031 20.49089 
L 60.15031 19.756567 
L 61.08031 19.772705 
L 62.01031 19.24815 
L 62.94031 18.609078 
L 63.87031 17.583546 
" style="fill:none;stroke:#fc8d62;stroke-linecap:square;stroke-width:2;"/>
   </g>
   <g id="line2d_8">
    <path clip-path="url(#pbe75f3c245)" d="M 10.86031 58.873895 
L 11.79031 57.071954 
L 12.72031 55.134244 
L 13.65031 53.792004 
L 14.58031 52.026673 
L 15.51031 50.586172 
L 16.44031 49.898207 
L 17.37031 48.555723 
L 18.30031 47.473278 
L 19.23031 45.990489 
L 20.16031 45.382547 
L 21.09031 44.355658 
L 22.02031 42.57172 
L 22.95031 42.016316 
L 23.88031 41.203959 
L 24.81031 41.355295 
L 25.74031 40.766129 
L 26.67031 40.712776 
L 27.60031 39.551695 
L 28.53031 39.731644 
L 29.46031 38.899847 
L 30.39031 38.106836 
L 31.32031 37.535298 
L 32.25031 36.818365 
L 33.18031 36.867318 
L 34.11031 36.462095 
L 35.04031 36.106729 
L 35.97031 35.726264 
L 36.90031 35.015536 
L 37.83031 34.426877 
L 38.76031 34.004442 
L 39.69031 33.091857 
L 40.62031 32.38933 
L 41.55031 32.295255 
L 42.48031 32.017109 
L 43.41031 31.121529 
L 44.34031 31.186026 
L 45.27031 30.885443 
L 46.20031 30.478923 
L 47.13031 30.009372 
L 48.06031 29.439502 
L 48.99031 28.419627 
L 49.92031 28.101865 
L 50.85031 27.723169 
L 51.78031 26.478264 
L 52.71031 26.471665 
L 53.64031 26.832259 
L 54.57031 25.929733 
L 55.50031 25.217305 
L 56.43031 24.566006 
L 57.36031 24.166553 
L 58.29031 23.226366 
L 59.22031 22.535886 
L 60.15031 21.84957 
L 61.08031 21.153551 
L 62.01031 20.297777 
L 62.94031 19.618486 
L 63.87031 18.791478 
" style="fill:none;stroke:#fc8d62;stroke-dasharray:1.5,1.5;stroke-dashoffset:0;stroke-opacity:0.7;stroke-width:1.5;"/>
   </g>
   <g id="patch_3">
    <path d="M 9 67.68 
L 9 17.28 
" style="fill:none;stroke:#a9a9a9;stroke-linecap:square;stroke-linejoin:miter;stroke-width:2;"/>
   </g>
   <g id="patch_4">
    <path d="M 64.8 67.68 
L 64.8 17.28 
" style="fill:none;"/>
   </g>
   <g id="patch_5">
    <path d="M 9 67.68 
L 64.8 67.68 
" style="fill:none;stroke:#a9a9a9;stroke-linecap:square;stroke-linejoin:miter;stroke-width:2;"/>
   </g>
   <g id="patch_6">
    <path d="M 9 17.28 
L 64.8 17.28 
" style="fill:none;"/>
   </g>
  </g>
  <g id="axes_2">
   <g id="patch_7">
    <path d="M 9 128.16 
L 64.8 128.16 
L 64.8 77.76 
L 9 77.76 
z
" style="fill:none;"/>
   </g>
   <g id="matplotlib.axis_3">
    <g id="xtick_4">
     <g id="line2d_9">
      <g>
       <use style="fill:#a9a9a9;stroke:#a9a9a9;stroke-width:2;" x="9" xlink:href="#mb99066d665" y="128.16"/>
      </g>
     </g>
    </g>
    <g id="xtick_5">
     <g id="line2d_10">
      <g>
       <use style="fill:#a9a9a9;stroke:#a9a9a9;stroke-width:2;" x="36.9" xlink:href="#mb99066d665" y="128.16"/>
      </g>
     </g>
    </g>
    <g id="xtick_6">
     <g id="line2d_11">
      <g>
       <use style="fill:#a9a9a9;stroke:#a9a9a9;stroke-width:2;" x="64.8" xlink:href="#mb99066d665" y="128.16"/>
      </g>
     </g>
    </g>
   </g>
   <g id="matplotlib.axis_4">
    <g id="ytick_4">
     <g id="line2d_12">
      <g>
       <use style="fill:#a9a9a9;stroke:#a9a9a9;stroke-width:2;" x="9" xlink:href="#m7899806a99" y="128.16"/>
      </g>
     </g>
    </g>
    <g id="ytick_5">
     <g id="line2d_13">
      <g>
       <use style="fill:#a9a9a9;stroke:#a9a9a9;stroke-width:2;" x="9" xlink:href="#m7899806a99" y="102.96"/>
      </g>
     </g>
    </g>
    <g id="ytick_6">
     <g id="line2d_14">
      <g>
       <use style="fill:#a9a9a9;stroke:#a9a9a9;stroke-width:2;" x="9" xlink:href="#m7899806a99" y="77.76"/>
      </g>
     </g>
    </g>
   </g>
   <g id="line2d_15">
    <path clip-path="url(#pbfce72c6ac)" d="M 10.86031 90.316242 
L 11.79031 89.409272 
L 12.72031 88.238366 
L 13.65031 87.449675 
L 14.58031 86.656063 
L 15.51031 86.490919 
L 16.44031 86.286104 
L 17.37031 86.155893 
L 18.30031 86.056243 
L 19.23031 85.937607 
L 20.16031 85.876857 
L 21.09031 85.741396 
L 22.02031 85.663973 
L 22.95031 85.622058 
L 23.88031 85.485458 
L 24.81031 85.460293 
L 25.74031 85.398691 
L 26.67031 85.340874 
L 27.60031 85.323181 
L 28.53031 85.302919 
L 29.46031 85.313105 
L 30.39031 85.287844 
L 31.32031 85.293248 
L 32.25031 85.305498 
L 33.18031 85.301653 
L 34.11031 85.273084 
L 35.04031 85.262298 
L 35.97031 85.269446 
L 36.90031 85.287016 
L 37.83031 85.279123 
L 38.76031 85.233933 
L 39.69031 85.182765 
L 40.62031 85.160909 
L 41.55031 85.158127 
L 42.48031 85.129098 
L 43.41031 85.133924 
L 44.34031 85.118312 
L 45.27031 85.108556 
L 46.20031 85.119751 
L 47.13031 85.101864 
L 48.06031 85.099573 
L 48.99031 85.0896 
L 49.92031 85.074498 
L 50.85031 85.072614 
L 51.78031 85.070836 
L 52.71031 85.074926 
L 53.64031 85.063253 
L 54.57031 85.070861 
L 55.50031 85.061968 
L 56.43031 85.066214 
L 57.36031 85.049085 
L 58.29031 85.055526 
L 59.22031 85.052312 
L 60.15031 85.049795 
L 61.08031 85.046803 
L 62.01031 85.039971 
L 62.94031 85.034628 
L 63.87031 85.014274 
" style="fill:none;stroke:#fc8d62;stroke-linecap:square;stroke-width:2;"/>
   </g>
   <g id="line2d_16">
    <path clip-path="url(#pbfce72c6ac)" d="M 10.86031 95.479822 
L 11.79031 93.4829 
L 12.72031 92.484483 
L 13.65031 91.803506 
L 14.58031 91.421961 
L 15.51031 91.138092 
L 16.44031 90.97119 
L 17.37031 90.820226 
L 18.30031 90.582252 
L 19.23031 90.42942 
L 20.16031 90.439271 
L 21.09031 90.358943 
L 22.02031 90.181681 
L 22.95031 90.201764 
L 23.88031 90.166191 
L 24.81031 90.114143 
L 25.74031 90.10833 
L 26.67031 90.043422 
L 27.60031 90.006518 
L 28.53031 90.003034 
L 29.46031 90.038783 
L 30.39031 90.041595 
L 31.32031 90.011888 
L 32.25031 89.982134 
L 33.18031 89.996616 
L 34.11031 89.957745 
L 35.04031 89.958989 
L 35.97031 89.940888 
L 36.90031 89.928992 
L 37.83031 89.909951 
L 38.76031 89.920069 
L 39.69031 89.853038 
L 40.62031 89.838699 
L 41.55031 89.816046 
L 42.48031 89.841509 
L 43.41031 89.812604 
L 44.34031 89.789049 
L 45.27031 89.799141 
L 46.20031 89.794691 
L 47.13031 89.786006 
L 48.06031 89.763607 
L 48.99031 89.758423 
L 49.92031 89.761554 
L 50.85031 89.764099 
L 51.78031 89.747878 
L 52.71031 89.770061 
L 53.64031 89.768267 
L 54.57031 89.757947 
L 55.50031 89.739653 
L 56.43031 89.735254 
L 57.36031 89.720529 
L 58.29031 89.713555 
L 59.22031 89.710407 
L 60.15031 89.704845 
L 61.08031 89.70524 
L 62.01031 89.692406 
L 62.94031 89.657075 
L 63.87031 89.62819 
" style="fill:none;stroke:#fc8d62;stroke-dasharray:1.5,1.5;stroke-dashoffset:0;stroke-opacity:0.7;stroke-width:1.5;"/>
   </g>
   <g id="patch_8">
    <path d="M 9 128.16 
L 9 77.76 
" style="fill:none;stroke:#a9a9a9;stroke-linecap:square;stroke-linejoin:miter;stroke-width:2;"/>
   </g>
   <g id="patch_9">
    <path d="M 64.8 128.16 
L 64.8 77.76 
" style="fill:none;"/>
   </g>
   <g id="patch_10">
    <path d="M 9 128.16 
L 64.8 128.16 
" style="fill:none;stroke:#a9a9a9;stroke-linecap:square;stroke-linejoin:miter;stroke-width:2;"/>
   </g>
   <g id="patch_11">
    <path d="M 9 77.76 
L 64.8 77.76 
" style="fill:none;"/>
   </g>
  </g>
 </g>
 <defs>
  <clipPath id="pbe75f3c245">
   <rect height="50.4" width="55.8" x="9" y="17.28"/>
  </clipPath>
  <clipPath id="pbfce72c6ac">
   <rect height="50.4" width="55.8" x="9" y="77.76"/>
  </clipPath>
 </defs>
</svg>
