<?xml version="1.0" encoding="utf-8" standalone="no"?>
<!DOCTYPE svg PUBLIC "-//W3C//DTD SVG 1.1//EN"
  "http://www.w3.org/Graphics/SVG/1.1/DTD/svg11.dtd">
<!-- Created with matplotlib (https://matplotlib.org/) -->
<svg height="144pt" version="1.1" viewBox="0 0 72 144" width="72pt" xmlns="http://www.w3.org/2000/svg" xmlns:xlink="http://www.w3.org/1999/xlink">
 <metadata>
  <rdf:RDF xmlns:cc="http://creativecommons.org/ns#" xmlns:dc="http://purl.org/dc/elements/1.1/" xmlns:rdf="http://www.w3.org/1999/02/22-rdf-syntax-ns#">
   <cc:Work>
    <dc:type rdf:resource="http://purl.org/dc/dcmitype/StillImage"/>
    <dc:date>2021-10-11T19:15:07.103879</dc:date>
    <dc:format>image/svg+xml</dc:format>
    <dc:creator>
     <cc:Agent>
      <dc:title>Matplotlib v3.3.2, https://matplotlib.org/</dc:title>
     </cc:Agent>
    </dc:creator>
   </cc:Work>
  </rdf:RDF>
 </metadata>
 <defs>
  <style type="text/css">*{stroke-linecap:butt;stroke-linejoin:round;}</style>
 </defs>
 <g id="figure_1">
  <g id="patch_1">
   <path d="M 0 144 
L 72 144 
L 72 0 
L 0 0 
z
" style="fill:none;"/>
  </g>
  <g id="axes_1">
   <g id="patch_2">
    <path d="M 9 67.68 
L 64.8 67.68 
L 64.8 17.28 
L 9 17.28 
z
" style="fill:none;"/>
   </g>
   <g id="matplotlib.axis_1">
    <g id="xtick_1">
     <g id="line2d_1">
      <defs>
       <path d="M 0 0 
L 0 3.5 
" id="m9007edd698" style="stroke:#a9a9a9;stroke-width:2;"/>
      </defs>
      <g>
       <use style="fill:#a9a9a9;stroke:#a9a9a9;stroke-width:2;" x="9" xlink:href="#m9007edd698" y="67.68"/>
      </g>
     </g>
    </g>
    <g id="xtick_2">
     <g id="line2d_2">
      <g>
       <use style="fill:#a9a9a9;stroke:#a9a9a9;stroke-width:2;" x="36.9" xlink:href="#m9007edd698" y="67.68"/>
      </g>
     </g>
    </g>
    <g id="xtick_3">
     <g id="line2d_3">
      <g>
       <use style="fill:#a9a9a9;stroke:#a9a9a9;stroke-width:2;" x="64.8" xlink:href="#m9007edd698" y="67.68"/>
      </g>
     </g>
    </g>
   </g>
   <g id="matplotlib.axis_2">
    <g id="ytick_1">
     <g id="line2d_4">
      <defs>
       <path d="M 0 0 
L -3.5 0 
" id="mb7f2ce9ad2" style="stroke:#a9a9a9;stroke-width:2;"/>
      </defs>
      <g>
       <use style="fill:#a9a9a9;stroke:#a9a9a9;stroke-width:2;" x="9" xlink:href="#mb7f2ce9ad2" y="67.68"/>
      </g>
     </g>
    </g>
    <g id="ytick_2">
     <g id="line2d_5">
      <g>
       <use style="fill:#a9a9a9;stroke:#a9a9a9;stroke-width:2;" x="9" xlink:href="#mb7f2ce9ad2" y="55.639638"/>
      </g>
     </g>
    </g>
    <g id="ytick_3">
     <g id="line2d_6">
      <g>
       <use style="fill:#a9a9a9;stroke:#a9a9a9;stroke-width:2;" x="9" xlink:href="#mb7f2ce9ad2" y="43.599277"/>
      </g>
     </g>
    </g>
   </g>
   <g id="line2d_7">
    <path clip-path="url(#pe824702a4e)" d="M 10.86031 59.389229 
L 11.79031 57.951959 
L 12.72031 56.685176 
L 13.65031 55.449396 
L 14.58031 53.892256 
L 15.51031 52.031216 
L 16.44031 51.212531 
L 17.37031 49.677356 
L 18.30031 48.448589 
L 19.23031 47.003119 
L 20.16031 45.865574 
L 21.09031 44.557082 
L 22.02031 44.562023 
L 22.95031 43.618628 
L 23.88031 42.812348 
L 24.81031 41.777726 
L 25.74031 40.586815 
L 26.67031 40.067723 
L 27.60031 38.623872 
L 28.53031 37.83419 
L 29.46031 37.997464 
L 30.39031 37.143258 
L 31.32031 36.645757 
L 32.25031 35.927976 
L 33.18031 35.839392 
L 34.11031 36.198676 
L 35.04031 35.861935 
L 35.97031 34.859571 
L 36.90031 34.191488 
L 37.83031 33.745832 
L 38.76031 33.04011 
L 39.69031 32.154505 
L 40.62031 31.892699 
L 41.55031 31.542388 
L 42.48031 30.858113 
L 43.41031 29.744969 
L 44.34031 29.593941 
L 45.27031 29.14864 
L 46.20031 28.20835 
L 47.13031 27.262425 
L 48.06031 26.546285 
L 48.99031 26.285067 
L 49.92031 26.149582 
L 50.85031 25.301536 
L 51.78031 24.278818 
L 52.71031 23.478377 
L 53.64031 23.059755 
L 54.57031 22.003483 
L 55.50031 20.787256 
L 56.43031 20.555323 
L 57.36031 19.948922 
L 58.29031 19.393141 
L 59.22031 19.498456 
L 60.15031 18.773442 
L 61.08031 19.318567 
L 62.01031 18.987563 
L 62.94031 18.50107 
L 63.87031 17.882018 
" style="fill:none;stroke:#fc8d62;stroke-linecap:square;stroke-width:2;"/>
   </g>
   <g id="line2d_8">
    <path clip-path="url(#pe824702a4e)" d="M 10.86031 60.788228 
L 11.79031 59.01786 
L 12.72031 58.244796 
L 13.65031 56.968706 
L 14.58031 56.104136 
L 15.51031 55.657238 
L 16.44031 54.836919 
L 17.37031 53.645407 
L 18.30031 52.55159 
L 19.23031 51.288487 
L 20.16031 50.491225 
L 21.09031 50.115292 
L 22.02031 49.5885 
L 22.95031 49.32499 
L 23.88031 49.170591 
L 24.81031 48.125722 
L 25.74031 47.616651 
L 26.67031 47.078482 
L 27.60031 46.687111 
L 28.53031 45.878851 
L 29.46031 45.3768 
L 30.39031 45.192953 
L 31.32031 44.968256 
L 32.25031 44.326949 
L 33.18031 43.789149 
L 34.11031 43.040127 
L 35.04031 42.462229 
L 35.97031 42.064513 
L 36.90031 41.734664 
L 37.83031 40.824098 
L 38.76031 40.197435 
L 39.69031 40.142875 
L 40.62031 39.556667 
L 41.55031 38.993789 
L 42.48031 38.602537 
L 43.41031 38.29377 
L 44.34031 38.235626 
L 45.27031 37.378332 
L 46.20031 36.482145 
L 47.13031 36.610146 
L 48.06031 36.104341 
L 48.99031 35.694974 
L 49.92031 35.410859 
L 50.85031 35.18852 
L 51.78031 34.771276 
L 52.71031 34.399802 
L 53.64031 33.512039 
L 54.57031 32.636192 
L 55.50031 31.828551 
L 56.43031 31.832742 
L 57.36031 31.374926 
L 58.29031 31.513353 
L 59.22031 31.061824 
L 60.15031 31.03847 
L 61.08031 30.678519 
L 62.01031 30.182309 
L 62.94031 29.37763 
L 63.87031 29.1163 
" style="fill:none;stroke:#fc8d62;stroke-dasharray:1.5,1.5;stroke-dashoffset:0;stroke-opacity:0.7;stroke-width:1.5;"/>
   </g>
   <g id="patch_3">
    <path d="M 9 67.68 
L 9 17.28 
" style="fill:none;stroke:#a9a9a9;stroke-linecap:square;stroke-linejoin:miter;stroke-width:2;"/>
   </g>
   <g id="patch_4">
    <path d="M 64.8 67.68 
L 64.8 17.28 
" style="fill:none;"/>
   </g>
   <g id="patch_5">
    <path d="M 9 67.68 
L 64.8 67.68 
" style="fill:none;stroke:#a9a9a9;stroke-linecap:square;stroke-linejoin:miter;stroke-width:2;"/>
   </g>
   <g id="patch_6">
    <path d="M 9 17.28 
L 64.8 17.28 
" style="fill:none;"/>
   </g>
  </g>
  <g id="axes_2">
   <g id="patch_7">
    <path d="M 9 128.16 
L 64.8 128.16 
L 64.8 77.76 
L 9 77.76 
z
" style="fill:none;"/>
   </g>
   <g id="matplotlib.axis_3">
    <g id="xtick_4">
     <g id="line2d_9">
      <g>
       <use style="fill:#a9a9a9;stroke:#a9a9a9;stroke-width:2;" x="9" xlink:href="#m9007edd698" y="128.16"/>
      </g>
     </g>
    </g>
    <g id="xtick_5">
     <g id="line2d_10">
      <g>
       <use style="fill:#a9a9a9;stroke:#a9a9a9;stroke-width:2;" x="36.9" xlink:href="#m9007edd698" y="128.16"/>
      </g>
     </g>
    </g>
    <g id="xtick_6">
     <g id="line2d_11">
      <g>
       <use style="fill:#a9a9a9;stroke:#a9a9a9;stroke-width:2;" x="64.8" xlink:href="#m9007edd698" y="128.16"/>
      </g>
     </g>
    </g>
   </g>
   <g id="matplotlib.axis_4">
    <g id="ytick_4">
     <g id="line2d_12">
      <g>
       <use style="fill:#a9a9a9;stroke:#a9a9a9;stroke-width:2;" x="9" xlink:href="#mb7f2ce9ad2" y="128.16"/>
      </g>
     </g>
    </g>
    <g id="ytick_5">
     <g id="line2d_13">
      <g>
       <use style="fill:#a9a9a9;stroke:#a9a9a9;stroke-width:2;" x="9" xlink:href="#mb7f2ce9ad2" y="102.96"/>
      </g>
     </g>
    </g>
    <g id="ytick_6">
     <g id="line2d_14">
      <g>
       <use style="fill:#a9a9a9;stroke:#a9a9a9;stroke-width:2;" x="9" xlink:href="#mb7f2ce9ad2" y="77.76"/>
      </g>
     </g>
    </g>
   </g>
   <g id="line2d_15">
    <path clip-path="url(#p0ceafaa15e)" d="M 10.86031 102.028223 
L 11.79031 97.285854 
L 12.72031 95.229065 
L 13.65031 92.579174 
L 14.58031 90.947296 
L 15.51031 89.387471 
L 16.44031 88.65147 
L 17.37031 87.901466 
L 18.30031 87.239307 
L 19.23031 86.55235 
L 20.16031 86.016049 
L 21.09031 85.605117 
L 22.02031 85.498925 
L 22.95031 85.265829 
L 23.88031 85.069155 
L 24.81031 84.783905 
L 25.74031 84.597483 
L 26.67031 84.469895 
L 27.60031 84.182658 
L 28.53031 84.089673 
L 29.46031 84.099083 
L 30.39031 84.022187 
L 31.32031 83.828413 
L 32.25031 83.69286 
L 33.18031 83.633896 
L 34.11031 83.63396 
L 35.04031 83.560219 
L 35.97031 83.423585 
L 36.90031 83.308659 
L 37.83031 83.196448 
L 38.76031 83.085133 
L 39.69031 83.023765 
L 40.62031 82.95744 
L 41.55031 82.890805 
L 42.48031 82.839112 
L 43.41031 82.774064 
L 44.34031 82.740343 
L 45.27031 82.730141 
L 46.20031 82.670506 
L 47.13031 82.65067 
L 48.06031 82.652803 
L 48.99031 82.614023 
L 49.92031 82.574931 
L 50.85031 82.514452 
L 51.78031 82.47053 
L 52.71031 82.387628 
L 53.64031 82.380612 
L 54.57031 82.339516 
L 55.50031 82.254389 
L 56.43031 82.218957 
L 57.36031 82.18034 
L 58.29031 82.168706 
L 59.22031 82.169643 
L 60.15031 82.115004 
L 61.08031 82.110518 
L 62.01031 82.082577 
L 62.94031 82.060208 
L 63.87031 82.025105 
" style="fill:none;stroke:#fc8d62;stroke-linecap:square;stroke-width:2;"/>
   </g>
   <g id="line2d_16">
    <path clip-path="url(#p0ceafaa15e)" d="M 10.86031 109.266341 
L 11.79031 104.604022 
L 12.72031 102.105643 
L 13.65031 100.271031 
L 14.58031 99.132499 
L 15.51031 98.145218 
L 16.44031 97.16799 
L 17.37031 96.188052 
L 18.30031 95.325857 
L 19.23031 94.402977 
L 20.16031 94.085335 
L 21.09031 93.967525 
L 22.02031 93.560662 
L 22.95031 93.350259 
L 23.88031 93.073022 
L 24.81031 92.624754 
L 25.74031 92.331193 
L 26.67031 92.127958 
L 27.60031 91.995627 
L 28.53031 91.905658 
L 29.46031 91.789556 
L 30.39031 91.708603 
L 31.32031 91.476435 
L 32.25031 91.355464 
L 33.18031 91.31347 
L 34.11031 91.17351 
L 35.04031 91.041235 
L 35.97031 90.889906 
L 36.90031 90.853906 
L 37.83031 90.821786 
L 38.76031 90.733665 
L 39.69031 90.681422 
L 40.62031 90.594531 
L 41.55031 90.511841 
L 42.48031 90.46472 
L 43.41031 90.423632 
L 44.34031 90.333178 
L 45.27031 90.210615 
L 46.20031 90.11711 
L 47.13031 90.124394 
L 48.06031 90.065819 
L 48.99031 90.066779 
L 49.92031 90.01244 
L 50.85031 89.97487 
L 51.78031 89.922123 
L 52.71031 89.905441 
L 53.64031 89.818755 
L 54.57031 89.78156 
L 55.50031 89.727598 
L 56.43031 89.6747 
L 57.36031 89.658836 
L 58.29031 89.696169 
L 59.22031 89.677116 
L 60.15031 89.686811 
L 61.08031 89.625075 
L 62.01031 89.560261 
L 62.94031 89.505048 
L 63.87031 89.441652 
" style="fill:none;stroke:#fc8d62;stroke-dasharray:1.5,1.5;stroke-dashoffset:0;stroke-opacity:0.7;stroke-width:1.5;"/>
   </g>
   <g id="patch_8">
    <path d="M 9 128.16 
L 9 77.76 
" style="fill:none;stroke:#a9a9a9;stroke-linecap:square;stroke-linejoin:miter;stroke-width:2;"/>
   </g>
   <g id="patch_9">
    <path d="M 64.8 128.16 
L 64.8 77.76 
" style="fill:none;"/>
   </g>
   <g id="patch_10">
    <path d="M 9 128.16 
L 64.8 128.16 
" style="fill:none;stroke:#a9a9a9;stroke-linecap:square;stroke-linejoin:miter;stroke-width:2;"/>
   </g>
   <g id="patch_11">
    <path d="M 9 77.76 
L 64.8 77.76 
" style="fill:none;"/>
   </g>
  </g>
 </g>
 <defs>
  <clipPath id="pe824702a4e">
   <rect height="50.4" width="55.8" x="9" y="17.28"/>
  </clipPath>
  <clipPath id="p0ceafaa15e">
   <rect height="50.4" width="55.8" x="9" y="77.76"/>
  </clipPath>
 </defs>
</svg>
