<?xml version="1.0" encoding="utf-8" standalone="no"?>
<!DOCTYPE svg PUBLIC "-//W3C//DTD SVG 1.1//EN"
  "http://www.w3.org/Graphics/SVG/1.1/DTD/svg11.dtd">
<!-- Created with matplotlib (https://matplotlib.org/) -->
<svg height="144pt" version="1.1" viewBox="0 0 72 144" width="72pt" xmlns="http://www.w3.org/2000/svg" xmlns:xlink="http://www.w3.org/1999/xlink">
 <metadata>
  <rdf:RDF xmlns:cc="http://creativecommons.org/ns#" xmlns:dc="http://purl.org/dc/elements/1.1/" xmlns:rdf="http://www.w3.org/1999/02/22-rdf-syntax-ns#">
   <cc:Work>
    <dc:type rdf:resource="http://purl.org/dc/dcmitype/StillImage"/>
    <dc:date>2021-10-13T14:10:44.412588</dc:date>
    <dc:format>image/svg+xml</dc:format>
    <dc:creator>
     <cc:Agent>
      <dc:title>Matplotlib v3.3.2, https://matplotlib.org/</dc:title>
     </cc:Agent>
    </dc:creator>
   </cc:Work>
  </rdf:RDF>
 </metadata>
 <defs>
  <style type="text/css">*{stroke-linecap:butt;stroke-linejoin:round;}</style>
 </defs>
 <g id="figure_1">
  <g id="patch_1">
   <path d="M 0 144 
L 72 144 
L 72 0 
L 0 0 
z
" style="fill:none;"/>
  </g>
  <g id="axes_1">
   <g id="patch_2">
    <path d="M 9 67.68 
L 64.8 67.68 
L 64.8 17.28 
L 9 17.28 
z
" style="fill:none;"/>
   </g>
   <g id="matplotlib.axis_1">
    <g id="xtick_1">
     <g id="line2d_1">
      <defs>
       <path d="M 0 0 
L 0 3.5 
" id="m31b8a84ab4" style="stroke:#a9a9a9;stroke-width:2;"/>
      </defs>
      <g>
       <use style="fill:#a9a9a9;stroke:#a9a9a9;stroke-width:2;" x="9" xlink:href="#m31b8a84ab4" y="67.68"/>
      </g>
     </g>
    </g>
    <g id="xtick_2">
     <g id="line2d_2">
      <g>
       <use style="fill:#a9a9a9;stroke:#a9a9a9;stroke-width:2;" x="36.9" xlink:href="#m31b8a84ab4" y="67.68"/>
      </g>
     </g>
    </g>
    <g id="xtick_3">
     <g id="line2d_3">
      <g>
       <use style="fill:#a9a9a9;stroke:#a9a9a9;stroke-width:2;" x="64.8" xlink:href="#m31b8a84ab4" y="67.68"/>
      </g>
     </g>
    </g>
   </g>
   <g id="matplotlib.axis_2">
    <g id="ytick_1">
     <g id="line2d_4">
      <defs>
       <path d="M 0 0 
L -3.5 0 
" id="m225db2dc37" style="stroke:#a9a9a9;stroke-width:2;"/>
      </defs>
      <g>
       <use style="fill:#a9a9a9;stroke:#a9a9a9;stroke-width:2;" x="9" xlink:href="#m225db2dc37" y="67.68"/>
      </g>
     </g>
    </g>
    <g id="ytick_2">
     <g id="line2d_5">
      <g>
       <use style="fill:#a9a9a9;stroke:#a9a9a9;stroke-width:2;" x="9" xlink:href="#m225db2dc37" y="42.48"/>
      </g>
     </g>
    </g>
    <g id="ytick_3">
     <g id="line2d_6">
      <g>
       <use style="fill:#a9a9a9;stroke:#a9a9a9;stroke-width:2;" x="9" xlink:href="#m225db2dc37" y="17.28"/>
      </g>
     </g>
    </g>
   </g>
   <g id="line2d_7">
    <path clip-path="url(#p1205abc629)" d="M 10.86031 55.428663 
L 11.79031 57.54975 
L 12.72031 59.444014 
L 13.65031 60.299208 
L 14.58031 59.798445 
L 15.51031 60.533598 
L 16.44031 60.417834 
L 17.37031 60.20614 
L 18.30031 60.780641 
L 19.23031 61.102356 
L 20.16031 61.025975 
L 21.09031 61.225902 
L 22.02031 61.226948 
L 22.95031 61.202671 
L 23.88031 61.268996 
L 24.81031 61.021847 
L 25.74031 60.762163 
L 26.67031 60.53659 
L 27.60031 60.34472 
L 28.53031 60.506159 
L 29.46031 60.445627 
L 30.39031 60.038022 
L 31.32031 59.47997 
L 32.25031 59.429925 
L 33.18031 59.485235 
L 34.11031 59.316217 
L 35.04031 58.904241 
L 35.97031 58.359533 
L 36.90031 58.211189 
L 37.83031 58.248373 
L 38.76031 57.931233 
L 39.69031 58.045964 
L 40.62031 57.715871 
L 41.55031 57.661985 
L 42.48031 57.170273 
L 43.41031 56.890607 
L 44.34031 56.633765 
L 45.27031 56.467433 
L 46.20031 56.56826 
L 47.13031 56.592556 
L 48.06031 56.732009 
L 48.99031 56.856609 
L 49.92031 56.653424 
L 50.85031 56.209576 
L 51.78031 55.903349 
L 52.71031 55.966521 
L 53.64031 55.67792 
L 54.57031 55.661484 
L 55.50031 55.647991 
L 56.43031 55.297751 
L 57.36031 55.449481 
L 58.29031 54.86033 
L 59.22031 54.939067 
L 60.15031 54.797126 
L 61.08031 54.78054 
L 62.01031 54.367374 
L 62.94031 54.358956 
L 63.87031 54.219223 
" style="fill:none;stroke:#fc8d62;stroke-linecap:square;stroke-width:2;"/>
   </g>
   <g id="line2d_8">
    <path clip-path="url(#p1205abc629)" d="M 10.86031 56.64755 
L 11.79031 57.396825 
L 12.72031 58.649534 
L 13.65031 59.17329 
L 14.58031 59.07304 
L 15.51031 59.464041 
L 16.44031 59.600843 
L 17.37031 59.814788 
L 18.30031 59.830847 
L 19.23031 60.03519 
L 20.16031 59.932906 
L 21.09031 60.070842 
L 22.02031 60.599336 
L 22.95031 60.685356 
L 23.88031 61.073739 
L 24.81031 61.185604 
L 25.74031 61.141878 
L 26.67031 61.187717 
L 27.60031 61.162092 
L 28.53031 61.19532 
L 29.46031 61.468657 
L 30.39031 61.535154 
L 31.32031 61.340857 
L 32.25031 61.336538 
L 33.18031 61.411056 
L 34.11031 61.020302 
L 35.04031 60.256251 
L 35.97031 60.359068 
L 36.90031 60.555321 
L 37.83031 60.765649 
L 38.76031 61.454336 
L 39.69031 61.091617 
L 40.62031 61.013981 
L 41.55031 61.345379 
L 42.48031 61.483387 
L 43.41031 61.036696 
L 44.34031 60.747067 
L 45.27031 60.473737 
L 46.20031 60.576033 
L 47.13031 60.890666 
L 48.06031 61.015501 
L 48.99031 60.804668 
L 49.92031 60.918789 
L 50.85031 60.883987 
L 51.78031 60.822794 
L 52.71031 60.971269 
L 53.64031 60.733573 
L 54.57031 60.827365 
L 55.50031 60.85917 
L 56.43031 60.821197 
L 57.36031 60.843711 
L 58.29031 60.779708 
L 59.22031 60.744339 
L 60.15031 60.616654 
L 61.08031 60.562941 
L 62.01031 60.366786 
L 62.94031 60.047132 
L 63.87031 60.012745 
" style="fill:none;stroke:#fc8d62;stroke-dasharray:1.5,1.5;stroke-dashoffset:0;stroke-opacity:0.7;stroke-width:1.5;"/>
   </g>
   <g id="patch_3">
    <path d="M 9 67.68 
L 9 17.28 
" style="fill:none;stroke:#a9a9a9;stroke-linecap:square;stroke-linejoin:miter;stroke-width:2;"/>
   </g>
   <g id="patch_4">
    <path d="M 64.8 67.68 
L 64.8 17.28 
" style="fill:none;"/>
   </g>
   <g id="patch_5">
    <path d="M 9 67.68 
L 64.8 67.68 
" style="fill:none;stroke:#a9a9a9;stroke-linecap:square;stroke-linejoin:miter;stroke-width:2;"/>
   </g>
   <g id="patch_6">
    <path d="M 9 17.28 
L 64.8 17.28 
" style="fill:none;"/>
   </g>
  </g>
  <g id="axes_2">
   <g id="patch_7">
    <path d="M 9 128.16 
L 64.8 128.16 
L 64.8 77.76 
L 9 77.76 
z
" style="fill:none;"/>
   </g>
   <g id="matplotlib.axis_3">
    <g id="xtick_4">
     <g id="line2d_9">
      <g>
       <use style="fill:#a9a9a9;stroke:#a9a9a9;stroke-width:2;" x="9" xlink:href="#m31b8a84ab4" y="128.16"/>
      </g>
     </g>
    </g>
    <g id="xtick_5">
     <g id="line2d_10">
      <g>
       <use style="fill:#a9a9a9;stroke:#a9a9a9;stroke-width:2;" x="36.9" xlink:href="#m31b8a84ab4" y="128.16"/>
      </g>
     </g>
    </g>
    <g id="xtick_6">
     <g id="line2d_11">
      <g>
       <use style="fill:#a9a9a9;stroke:#a9a9a9;stroke-width:2;" x="64.8" xlink:href="#m31b8a84ab4" y="128.16"/>
      </g>
     </g>
    </g>
   </g>
   <g id="matplotlib.axis_4">
    <g id="ytick_4">
     <g id="line2d_12">
      <g>
       <use style="fill:#a9a9a9;stroke:#a9a9a9;stroke-width:2;" x="9" xlink:href="#m225db2dc37" y="128.16"/>
      </g>
     </g>
    </g>
    <g id="ytick_5">
     <g id="line2d_13">
      <g>
       <use style="fill:#a9a9a9;stroke:#a9a9a9;stroke-width:2;" x="9" xlink:href="#m225db2dc37" y="102.96"/>
      </g>
     </g>
    </g>
    <g id="ytick_6">
     <g id="line2d_14">
      <g>
       <use style="fill:#a9a9a9;stroke:#a9a9a9;stroke-width:2;" x="9" xlink:href="#m225db2dc37" y="77.76"/>
      </g>
     </g>
    </g>
   </g>
   <g id="line2d_15">
    <path clip-path="url(#p0f46e2abdc)" d="M 10.86031 127.275683 
L 11.79031 127.094424 
L 12.72031 126.932674 
L 13.65031 126.673567 
L 14.58031 126.383044 
L 15.51031 126.090964 
L 16.44031 125.809012 
L 17.37031 125.61039 
L 18.30031 125.536133 
L 19.23031 125.511846 
L 20.16031 125.217969 
L 21.09031 125.125044 
L 22.02031 124.897423 
L 22.95031 124.679718 
L 23.88031 124.373768 
L 24.81031 124.025225 
L 25.74031 123.770001 
L 26.67031 123.460291 
L 27.60031 123.350093 
L 28.53031 123.183034 
L 29.46031 123.011341 
L 30.39031 122.522912 
L 31.32031 122.364973 
L 32.25031 122.243185 
L 33.18031 122.061387 
L 34.11031 121.961873 
L 35.04031 121.599771 
L 35.97031 121.453761 
L 36.90031 121.284443 
L 37.83031 121.176351 
L 38.76031 120.8438 
L 39.69031 120.789226 
L 40.62031 120.638697 
L 41.55031 120.432976 
L 42.48031 120.251861 
L 43.41031 120.091329 
L 44.34031 119.965929 
L 45.27031 119.762873 
L 46.20031 119.642394 
L 47.13031 119.270774 
L 48.06031 119.024872 
L 48.99031 118.869589 
L 49.92031 118.813631 
L 50.85031 118.470426 
L 51.78031 118.296286 
L 52.71031 118.104428 
L 53.64031 118.021956 
L 54.57031 117.957129 
L 55.50031 117.673908 
L 56.43031 117.567289 
L 57.36031 117.498313 
L 58.29031 117.334773 
L 59.22031 117.06011 
L 60.15031 116.87048 
L 61.08031 116.727959 
L 62.01031 116.588504 
L 62.94031 116.387635 
L 63.87031 116.250747 
" style="fill:none;stroke:#fc8d62;stroke-linecap:square;stroke-width:2;"/>
   </g>
   <g id="line2d_16">
    <path clip-path="url(#p0f46e2abdc)" d="M 10.86031 127.343926 
L 11.79031 127.210688 
L 12.72031 127.24641 
L 13.65031 127.38289 
L 14.58031 127.301957 
L 15.51031 127.117473 
L 16.44031 127.129171 
L 17.37031 126.92028 
L 18.30031 126.952533 
L 19.23031 127.018704 
L 20.16031 126.945136 
L 21.09031 126.877224 
L 22.02031 126.856138 
L 22.95031 126.78892 
L 23.88031 126.669196 
L 24.81031 126.578023 
L 25.74031 126.336677 
L 26.67031 126.258728 
L 27.60031 126.107578 
L 28.53031 125.783141 
L 29.46031 125.665862 
L 30.39031 125.736378 
L 31.32031 125.487743 
L 32.25031 125.417148 
L 33.18031 125.386595 
L 34.11031 125.236386 
L 35.04031 125.136513 
L 35.97031 125.062861 
L 36.90031 124.907003 
L 37.83031 124.825903 
L 38.76031 124.767083 
L 39.69031 124.551313 
L 40.62031 124.531006 
L 41.55031 124.568279 
L 42.48031 124.579395 
L 43.41031 124.511007 
L 44.34031 124.258545 
L 45.27031 123.978046 
L 46.20031 123.849098 
L 47.13031 123.839057 
L 48.06031 123.818767 
L 48.99031 123.709781 
L 49.92031 123.6579 
L 50.85031 123.664426 
L 51.78031 123.588887 
L 52.71031 123.595296 
L 53.64031 123.564388 
L 54.57031 123.535726 
L 55.50031 123.465374 
L 56.43031 123.191481 
L 57.36031 123.193757 
L 58.29031 123.124727 
L 59.22031 123.094808 
L 60.15031 122.912459 
L 61.08031 122.809231 
L 62.01031 122.848435 
L 62.94031 122.635251 
L 63.87031 122.538968 
" style="fill:none;stroke:#fc8d62;stroke-dasharray:1.5,1.5;stroke-dashoffset:0;stroke-opacity:0.7;stroke-width:1.5;"/>
   </g>
   <g id="patch_8">
    <path d="M 9 128.16 
L 9 77.76 
" style="fill:none;stroke:#a9a9a9;stroke-linecap:square;stroke-linejoin:miter;stroke-width:2;"/>
   </g>
   <g id="patch_9">
    <path d="M 64.8 128.16 
L 64.8 77.76 
" style="fill:none;"/>
   </g>
   <g id="patch_10">
    <path d="M 9 128.16 
L 64.8 128.16 
" style="fill:none;stroke:#a9a9a9;stroke-linecap:square;stroke-linejoin:miter;stroke-width:2;"/>
   </g>
   <g id="patch_11">
    <path d="M 9 77.76 
L 64.8 77.76 
" style="fill:none;"/>
   </g>
  </g>
 </g>
 <defs>
  <clipPath id="p1205abc629">
   <rect height="50.4" width="55.8" x="9" y="17.28"/>
  </clipPath>
  <clipPath id="p0f46e2abdc">
   <rect height="50.4" width="55.8" x="9" y="77.76"/>
  </clipPath>
 </defs>
</svg>
