<?xml version="1.0" encoding="utf-8" standalone="no"?>
<!DOCTYPE svg PUBLIC "-//W3C//DTD SVG 1.1//EN"
  "http://www.w3.org/Graphics/SVG/1.1/DTD/svg11.dtd">
<!-- Created with matplotlib (https://matplotlib.org/) -->
<svg height="216pt" version="1.1" viewBox="0 0 72 216" width="72pt" xmlns="http://www.w3.org/2000/svg" xmlns:xlink="http://www.w3.org/1999/xlink">
 <metadata>
  <rdf:RDF xmlns:cc="http://creativecommons.org/ns#" xmlns:dc="http://purl.org/dc/elements/1.1/" xmlns:rdf="http://www.w3.org/1999/02/22-rdf-syntax-ns#">
   <cc:Work>
    <dc:type rdf:resource="http://purl.org/dc/dcmitype/StillImage"/>
    <dc:date>2021-10-13T00:10:34.726124</dc:date>
    <dc:format>image/svg+xml</dc:format>
    <dc:creator>
     <cc:Agent>
      <dc:title>Matplotlib v3.3.2, https://matplotlib.org/</dc:title>
     </cc:Agent>
    </dc:creator>
   </cc:Work>
  </rdf:RDF>
 </metadata>
 <defs>
  <style type="text/css">*{stroke-linecap:butt;stroke-linejoin:round;}</style>
 </defs>
 <g id="figure_1">
  <g id="patch_1">
   <path d="M 0 216 
L 72 216 
L 72 0 
L 0 0 
z
" style="fill:none;"/>
  </g>
  <g id="axes_1">
   <g id="patch_2">
    <path d="M 9 74.837647 
L 64.8 74.837647 
L 64.8 25.92 
L 9 25.92 
z
" style="fill:none;"/>
   </g>
   <g id="matplotlib.axis_1">
    <g id="xtick_1">
     <g id="line2d_1">
      <defs>
       <path d="M 0 0 
L 0 3.5 
" id="m001bd1b452" style="stroke:#a9a9a9;stroke-width:2;"/>
      </defs>
      <g>
       <use style="fill:#a9a9a9;stroke:#a9a9a9;stroke-width:2;" x="9" xlink:href="#m001bd1b452" y="74.837647"/>
      </g>
     </g>
    </g>
    <g id="xtick_2">
     <g id="line2d_2">
      <g>
       <use style="fill:#a9a9a9;stroke:#a9a9a9;stroke-width:2;" x="36.9" xlink:href="#m001bd1b452" y="74.837647"/>
      </g>
     </g>
    </g>
    <g id="xtick_3">
     <g id="line2d_3">
      <g>
       <use style="fill:#a9a9a9;stroke:#a9a9a9;stroke-width:2;" x="64.8" xlink:href="#m001bd1b452" y="74.837647"/>
      </g>
     </g>
    </g>
   </g>
   <g id="matplotlib.axis_2">
    <g id="ytick_1">
     <g id="line2d_4">
      <defs>
       <path d="M 0 0 
L -3.5 0 
" id="m069b7bcc9d" style="stroke:#a9a9a9;stroke-width:2;"/>
      </defs>
      <g>
       <use style="fill:#a9a9a9;stroke:#a9a9a9;stroke-width:2;" x="9" xlink:href="#m069b7bcc9d" y="74.837647"/>
      </g>
     </g>
    </g>
    <g id="ytick_2">
     <g id="line2d_5">
      <g>
       <use style="fill:#a9a9a9;stroke:#a9a9a9;stroke-width:2;" x="9" xlink:href="#m069b7bcc9d" y="50.378824"/>
      </g>
     </g>
    </g>
    <g id="ytick_3">
     <g id="line2d_6">
      <g>
       <use style="fill:#a9a9a9;stroke:#a9a9a9;stroke-width:2;" x="9" xlink:href="#m069b7bcc9d" y="25.92"/>
      </g>
     </g>
    </g>
   </g>
   <g id="line2d_7">
    <path clip-path="url(#pf551771630)" d="M 10.86031 63.644308 
L 11.79031 64.556227 
L 12.72031 64.785663 
L 13.65031 65.148736 
L 14.58031 64.887844 
L 15.51031 64.821192 
L 16.44031 64.94214 
L 17.37031 64.869024 
L 18.30031 65.165179 
L 19.23031 65.148688 
L 20.16031 65.172101 
L 21.09031 64.779731 
L 22.02031 64.549569 
L 22.95031 64.179989 
L 23.88031 64.133077 
L 24.81031 63.269095 
L 25.74031 62.537731 
L 26.67031 62.47439 
L 27.60031 62.58461 
L 28.53031 62.375337 
L 29.46031 62.15542 
L 30.39031 62.153961 
L 31.32031 61.726345 
L 32.25031 61.563262 
L 33.18031 61.097452 
L 34.11031 61.012921 
L 35.04031 60.944103 
L 35.97031 60.567376 
L 36.90031 60.586053 
L 37.83031 60.501826 
L 38.76031 60.737571 
L 39.69031 60.127281 
L 40.62031 59.733701 
L 41.55031 59.545017 
L 42.48031 59.108985 
L 43.41031 58.914746 
L 44.34031 58.833047 
L 45.27031 59.039603 
L 46.20031 59.250536 
L 47.13031 59.222113 
L 48.06031 58.82793 
L 48.99031 58.757364 
L 49.92031 58.642022 
L 50.85031 58.329479 
L 51.78031 58.304175 
L 52.71031 58.064838 
L 53.64031 58.173841 
L 54.57031 57.883158 
L 55.50031 57.019825 
L 56.43031 56.983516 
L 57.36031 56.940353 
L 58.29031 57.020359 
L 59.22031 56.868459 
L 60.15031 56.401673 
L 61.08031 56.392496 
L 62.01031 56.713262 
L 62.94031 57.041167 
L 63.87031 56.933867 
" style="fill:none;stroke:#fc8d62;stroke-linecap:square;stroke-width:2;"/>
   </g>
   <g id="line2d_8">
    <path clip-path="url(#pf551771630)" d="M 10.86031 60.267137 
L 11.79031 62.203594 
L 12.72031 61.290769 
L 13.65031 61.627147 
L 14.58031 61.751358 
L 15.51031 61.210566 
L 16.44031 61.946651 
L 17.37031 62.072352 
L 18.30031 61.991832 
L 19.23031 62.568033 
L 20.16031 61.905057 
L 21.09031 61.535781 
L 22.02031 61.661235 
L 22.95031 61.656137 
L 23.88031 61.553951 
L 24.81031 61.494329 
L 25.74031 60.962296 
L 26.67031 61.162459 
L 27.60031 60.842026 
L 28.53031 60.820855 
L 29.46031 61.065407 
L 30.39031 61.061453 
L 31.32031 60.757743 
L 32.25031 60.915134 
L 33.18031 60.842186 
L 34.11031 60.405293 
L 35.04031 60.253463 
L 35.97031 60.0812 
L 36.90031 59.851525 
L 37.83031 59.695681 
L 38.76031 59.796053 
L 39.69031 59.639137 
L 40.62031 59.561513 
L 41.55031 59.17041 
L 42.48031 59.246885 
L 43.41031 59.035984 
L 44.34031 59.127283 
L 45.27031 59.133451 
L 46.20031 58.767495 
L 47.13031 58.771959 
L 48.06031 58.176157 
L 48.99031 58.192701 
L 49.92031 57.858741 
L 50.85031 57.519563 
L 51.78031 57.146501 
L 52.71031 56.597975 
L 53.64031 56.352457 
L 54.57031 56.297414 
L 55.50031 56.114008 
L 56.43031 55.633857 
L 57.36031 55.6662 
L 58.29031 55.904758 
L 59.22031 55.864281 
L 60.15031 55.944184 
L 61.08031 56.100684 
L 62.01031 56.141496 
L 62.94031 56.171092 
L 63.87031 56.206426 
" style="fill:none;stroke:#fc8d62;stroke-dasharray:1.5,1.5;stroke-dashoffset:0;stroke-opacity:0.7;stroke-width:1.5;"/>
   </g>
   <g id="patch_3">
    <path d="M 9 74.837647 
L 9 25.92 
" style="fill:none;stroke:#a9a9a9;stroke-linecap:square;stroke-linejoin:miter;stroke-width:2;"/>
   </g>
   <g id="patch_4">
    <path d="M 64.8 74.837647 
L 64.8 25.92 
" style="fill:none;"/>
   </g>
   <g id="patch_5">
    <path d="M 9 74.837647 
L 64.8 74.837647 
" style="fill:none;stroke:#a9a9a9;stroke-linecap:square;stroke-linejoin:miter;stroke-width:2;"/>
   </g>
   <g id="patch_6">
    <path d="M 9 25.92 
L 64.8 25.92 
" style="fill:none;"/>
   </g>
  </g>
  <g id="axes_2">
   <g id="patch_7">
    <path d="M 9 133.538824 
L 64.8 133.538824 
L 64.8 84.621176 
L 9 84.621176 
z
" style="fill:none;"/>
   </g>
   <g id="matplotlib.axis_3">
    <g id="xtick_4">
     <g id="line2d_9">
      <g>
       <use style="fill:#a9a9a9;stroke:#a9a9a9;stroke-width:2;" x="9" xlink:href="#m001bd1b452" y="133.538824"/>
      </g>
     </g>
    </g>
    <g id="xtick_5">
     <g id="line2d_10">
      <g>
       <use style="fill:#a9a9a9;stroke:#a9a9a9;stroke-width:2;" x="36.9" xlink:href="#m001bd1b452" y="133.538824"/>
      </g>
     </g>
    </g>
    <g id="xtick_6">
     <g id="line2d_11">
      <g>
       <use style="fill:#a9a9a9;stroke:#a9a9a9;stroke-width:2;" x="64.8" xlink:href="#m001bd1b452" y="133.538824"/>
      </g>
     </g>
    </g>
   </g>
   <g id="matplotlib.axis_4">
    <g id="ytick_4">
     <g id="line2d_12">
      <g>
       <use style="fill:#a9a9a9;stroke:#a9a9a9;stroke-width:2;" x="9" xlink:href="#m069b7bcc9d" y="133.538824"/>
      </g>
     </g>
    </g>
    <g id="ytick_5">
     <g id="line2d_13">
      <g>
       <use style="fill:#a9a9a9;stroke:#a9a9a9;stroke-width:2;" x="9" xlink:href="#m069b7bcc9d" y="109.08"/>
      </g>
     </g>
    </g>
    <g id="ytick_6">
     <g id="line2d_14">
      <g>
       <use style="fill:#a9a9a9;stroke:#a9a9a9;stroke-width:2;" x="9" xlink:href="#m069b7bcc9d" y="84.621176"/>
      </g>
     </g>
    </g>
   </g>
   <g id="line2d_15">
    <path clip-path="url(#p14878e7fa6)" d="M 10.86031 130.000198 
L 11.79031 128.969705 
L 12.72031 127.764478 
L 13.65031 127.027588 
L 14.58031 126.045905 
L 15.51031 124.959474 
L 16.44031 124.288899 
L 17.37031 123.233535 
L 18.30031 122.598796 
L 19.23031 122.010907 
L 20.16031 121.644631 
L 21.09031 120.61375 
L 22.02031 120.268915 
L 22.95031 119.728329 
L 23.88031 119.498702 
L 24.81031 119.008092 
L 25.74031 118.534042 
L 26.67031 118.416188 
L 27.60031 117.977449 
L 28.53031 117.272798 
L 29.46031 116.854676 
L 30.39031 116.595071 
L 31.32031 116.261035 
L 32.25031 115.787845 
L 33.18031 115.216671 
L 34.11031 114.893025 
L 35.04031 114.529819 
L 35.97031 114.080389 
L 36.90031 113.922526 
L 37.83031 113.168699 
L 38.76031 112.902831 
L 39.69031 112.417539 
L 40.62031 111.710787 
L 41.55031 111.362529 
L 42.48031 110.938077 
L 43.41031 110.579242 
L 44.34031 110.485351 
L 45.27031 110.251253 
L 46.20031 110.06928 
L 47.13031 109.758245 
L 48.06031 109.461985 
L 48.99031 109.184517 
L 49.92031 109.048837 
L 50.85031 108.832956 
L 51.78031 108.959856 
L 52.71031 108.645419 
L 53.64031 108.625821 
L 54.57031 108.435921 
L 55.50031 107.876002 
L 56.43031 107.676704 
L 57.36031 107.527349 
L 58.29031 107.521016 
L 59.22031 107.296167 
L 60.15031 106.791764 
L 61.08031 106.648676 
L 62.01031 106.678974 
L 62.94031 106.624985 
L 63.87031 106.361473 
" style="fill:none;stroke:#fc8d62;stroke-linecap:square;stroke-width:2;"/>
   </g>
   <g id="line2d_16">
    <path clip-path="url(#p14878e7fa6)" d="M 10.86031 131.299851 
L 11.79031 130.238857 
L 12.72031 129.188943 
L 13.65031 128.804466 
L 14.58031 127.881088 
L 15.51031 127.491758 
L 16.44031 127.192313 
L 17.37031 126.846583 
L 18.30031 126.107422 
L 19.23031 125.831707 
L 20.16031 125.058938 
L 21.09031 124.671143 
L 22.02031 124.263033 
L 22.95031 123.784671 
L 23.88031 123.111689 
L 24.81031 122.588513 
L 25.74031 122.161405 
L 26.67031 121.669309 
L 27.60031 121.121536 
L 28.53031 120.967359 
L 29.46031 120.416709 
L 30.39031 120.200956 
L 31.32031 119.738125 
L 32.25031 119.487497 
L 33.18031 119.238056 
L 34.11031 118.650033 
L 35.04031 118.332319 
L 35.97031 118.096054 
L 36.90031 117.868527 
L 37.83031 117.380051 
L 38.76031 116.993132 
L 39.69031 116.957893 
L 40.62031 116.736962 
L 41.55031 116.288481 
L 42.48031 116.23577 
L 43.41031 115.899369 
L 44.34031 115.579251 
L 45.27031 115.393245 
L 46.20031 114.810733 
L 47.13031 114.519182 
L 48.06031 114.100232 
L 48.99031 114.013554 
L 49.92031 113.701887 
L 50.85031 113.263374 
L 51.78031 112.956463 
L 52.71031 112.650103 
L 53.64031 112.426648 
L 54.57031 112.136432 
L 55.50031 111.991723 
L 56.43031 111.914713 
L 57.36031 111.708697 
L 58.29031 111.49586 
L 59.22031 111.444933 
L 60.15031 111.113603 
L 61.08031 111.232921 
L 62.01031 111.069407 
L 62.94031 110.898814 
L 63.87031 110.853589 
" style="fill:none;stroke:#fc8d62;stroke-dasharray:1.5,1.5;stroke-dashoffset:0;stroke-opacity:0.7;stroke-width:1.5;"/>
   </g>
   <g id="patch_8">
    <path d="M 9 133.538824 
L 9 84.621176 
" style="fill:none;stroke:#a9a9a9;stroke-linecap:square;stroke-linejoin:miter;stroke-width:2;"/>
   </g>
   <g id="patch_9">
    <path d="M 64.8 133.538824 
L 64.8 84.621176 
" style="fill:none;"/>
   </g>
   <g id="patch_10">
    <path d="M 9 133.538824 
L 64.8 133.538824 
" style="fill:none;stroke:#a9a9a9;stroke-linecap:square;stroke-linejoin:miter;stroke-width:2;"/>
   </g>
   <g id="patch_11">
    <path d="M 9 84.621176 
L 64.8 84.621176 
" style="fill:none;"/>
   </g>
  </g>
  <g id="axes_3">
   <g id="patch_12">
    <path d="M 9 192.24 
L 64.8 192.24 
L 64.8 143.322353 
L 9 143.322353 
z
" style="fill:none;"/>
   </g>
   <g id="matplotlib.axis_5">
    <g id="xtick_7">
     <g id="line2d_17">
      <g>
       <use style="fill:#a9a9a9;stroke:#a9a9a9;stroke-width:2;" x="9" xlink:href="#m001bd1b452" y="174.999949"/>
      </g>
     </g>
    </g>
    <g id="xtick_8">
     <g id="line2d_18">
      <g>
       <use style="fill:#a9a9a9;stroke:#a9a9a9;stroke-width:2;" x="36.9" xlink:href="#m001bd1b452" y="174.999949"/>
      </g>
     </g>
    </g>
    <g id="xtick_9">
     <g id="line2d_19">
      <g>
       <use style="fill:#a9a9a9;stroke:#a9a9a9;stroke-width:2;" x="64.8" xlink:href="#m001bd1b452" y="174.999949"/>
      </g>
     </g>
    </g>
   </g>
   <g id="matplotlib.axis_6">
    <g id="ytick_7">
     <g id="line2d_20">
      <g>
       <use style="fill:#a9a9a9;stroke:#a9a9a9;stroke-width:2;" x="9" xlink:href="#m069b7bcc9d" y="174.999949"/>
      </g>
     </g>
    </g>
    <g id="ytick_8">
     <g id="line2d_21">
      <g>
       <use style="fill:#a9a9a9;stroke:#a9a9a9;stroke-width:2;" x="9" xlink:href="#m069b7bcc9d" y="186.493316"/>
      </g>
     </g>
    </g>
   </g>
   <g id="line2d_22">
    <path clip-path="url(#pe1866e4a08)" d="M 10.86031 205.26864 
L 11.79031 160.984853 
L 12.72031 182.558059 
L 13.65031 186.534046 
L 14.58031 180.807434 
L 15.51031 170.354339 
L 16.44031 170.865421 
L 17.37031 171.26097 
L 18.30031 173.181327 
L 19.23031 173.304624 
L 20.16031 172.731116 
L 21.09031 174.087513 
L 22.02031 172.632831 
L 22.95031 172.832919 
L 23.88031 172.942291 
L 24.81031 171.898677 
L 25.74031 170.814657 
L 26.67031 169.736462 
L 27.60031 169.584625 
L 28.53031 171.235316 
L 29.46031 171.143523 
L 30.39031 171.440457 
L 31.32031 171.475667 
L 32.25031 170.855639 
L 33.18031 170.558378 
L 34.11031 171.379651 
L 35.04031 171.442993 
L 35.97031 170.75809 
L 36.90031 170.626738 
L 37.83031 171.252935 
L 38.76031 172.511532 
L 39.69031 171.111935 
L 40.62031 171.451972 
L 41.55031 171.583428 
L 42.48031 171.201502 
L 43.41031 171.022853 
L 44.34031 171.790739 
L 45.27031 172.255609 
L 46.20031 173.042163 
L 47.13031 173.2474 
L 48.06031 173.196095 
L 48.99031 173.526758 
L 49.92031 173.563594 
L 50.85031 173.357725 
L 51.78031 173.240678 
L 52.71031 173.352356 
L 53.64031 172.978171 
L 54.57031 172.591497 
L 55.50031 172.435711 
L 56.43031 171.908118 
L 57.36031 171.707466 
L 58.29031 172.082333 
L 59.22031 172.372939 
L 60.15031 172.708298 
L 61.08031 172.890357 
L 62.01031 172.849808 
L 62.94031 173.624246 
L 63.87031 173.552292 
" style="fill:none;stroke:#fc8d62;stroke-linecap:square;stroke-width:2;"/>
   </g>
   <g id="line2d_23">
    <path clip-path="url(#pe1866e4a08)" d="M 10.86031 143.322353 
L 11.79031 155.095667 
L 12.72031 162.886175 
L 13.65031 165.758525 
L 14.58031 167.64294 
L 15.51031 170.889134 
L 16.44031 169.639555 
L 17.37031 173.055278 
L 18.30031 173.187583 
L 19.23031 175.559543 
L 20.16031 179.597154 
L 21.09031 182.467729 
L 22.02031 174.999949 
L 22.95031 182.969037 
L 23.88031 179.382712 
L 24.81031 179.762757 
L 25.74031 178.587147 
L 26.67031 178.507002 
L 27.60031 178.263284 
L 28.53031 179.947957 
L 29.46031 176.897551 
L 30.39031 180.43703 
L 31.32031 178.69869 
L 32.25031 179.989879 
L 33.18031 181.704815 
L 34.11031 183.918381 
L 35.04031 181.625564 
L 35.97031 180.367089 
L 36.90031 180.800183 
L 37.83031 177.823416 
L 38.76031 177.869042 
L 39.69031 179.199233 
L 40.62031 178.90837 
L 41.55031 179.696973 
L 42.48031 180.954592 
L 43.41031 181.253769 
L 44.34031 181.283398 
L 45.27031 181.554098 
L 46.20031 179.063605 
L 47.13031 178.796178 
L 48.06031 180.121186 
L 48.99031 181.264112 
L 49.92031 181.562778 
L 50.85031 179.829583 
L 51.78031 179.44916 
L 52.71031 179.30853 
L 53.64031 178.162771 
L 54.57031 177.436767 
L 55.50031 177.628542 
L 56.43031 178.267921 
L 57.36031 177.518791 
L 58.29031 178.045257 
L 59.22031 177.580441 
L 60.15031 176.178336 
L 61.08031 176.202567 
L 62.01031 175.841588 
L 62.94031 175.289856 
L 63.87031 175.561936 
" style="fill:none;stroke:#fc8d62;stroke-dasharray:1.5,1.5;stroke-dashoffset:0;stroke-opacity:0.7;stroke-width:1.5;"/>
   </g>
   <g id="line2d_24">
    <path clip-path="url(#pe1866e4a08)" d="M 9 186.493316 
L 64.8 186.493316 
" style="fill:none;stroke:#66c2a5;stroke-dasharray:1.5,1.5;stroke-dashoffset:0;stroke-opacity:0.7;stroke-width:1.5;"/>
   </g>
   <g id="patch_13">
    <path d="M 9 192.24 
L 9 143.322353 
" style="fill:none;stroke:#a9a9a9;stroke-linecap:square;stroke-linejoin:miter;stroke-width:2;"/>
   </g>
   <g id="patch_14">
    <path d="M 64.8 192.24 
L 64.8 143.322353 
" style="fill:none;"/>
   </g>
   <g id="patch_15">
    <path d="M 9 174.999949 
L 64.8 174.999949 
" style="fill:none;stroke:#a9a9a9;stroke-linecap:square;stroke-linejoin:miter;stroke-width:2;"/>
   </g>
   <g id="patch_16">
    <path d="M 9 143.322353 
L 64.8 143.322353 
" style="fill:none;"/>
   </g>
  </g>
 </g>
 <defs>
  <clipPath id="pf551771630">
   <rect height="48.917647" width="55.8" x="9" y="25.92"/>
  </clipPath>
  <clipPath id="p14878e7fa6">
   <rect height="48.917647" width="55.8" x="9" y="84.621176"/>
  </clipPath>
  <clipPath id="pe1866e4a08">
   <rect height="48.917647" width="55.8" x="9" y="143.322353"/>
  </clipPath>
 </defs>
</svg>
