<?xml version="1.0" encoding="utf-8" standalone="no"?>
<!DOCTYPE svg PUBLIC "-//W3C//DTD SVG 1.1//EN"
  "http://www.w3.org/Graphics/SVG/1.1/DTD/svg11.dtd">
<!-- Created with matplotlib (https://matplotlib.org/) -->
<svg height="144pt" version="1.1" viewBox="0 0 72 144" width="72pt" xmlns="http://www.w3.org/2000/svg" xmlns:xlink="http://www.w3.org/1999/xlink">
 <metadata>
  <rdf:RDF xmlns:cc="http://creativecommons.org/ns#" xmlns:dc="http://purl.org/dc/elements/1.1/" xmlns:rdf="http://www.w3.org/1999/02/22-rdf-syntax-ns#">
   <cc:Work>
    <dc:type rdf:resource="http://purl.org/dc/dcmitype/StillImage"/>
    <dc:date>2021-10-13T14:23:02.079207</dc:date>
    <dc:format>image/svg+xml</dc:format>
    <dc:creator>
     <cc:Agent>
      <dc:title>Matplotlib v3.3.2, https://matplotlib.org/</dc:title>
     </cc:Agent>
    </dc:creator>
   </cc:Work>
  </rdf:RDF>
 </metadata>
 <defs>
  <style type="text/css">*{stroke-linecap:butt;stroke-linejoin:round;}</style>
 </defs>
 <g id="figure_1">
  <g id="patch_1">
   <path d="M 0 144 
L 72 144 
L 72 0 
L 0 0 
z
" style="fill:none;"/>
  </g>
  <g id="axes_1">
   <g id="patch_2">
    <path d="M 9 67.68 
L 64.8 67.68 
L 64.8 17.28 
L 9 17.28 
z
" style="fill:none;"/>
   </g>
   <g id="matplotlib.axis_1">
    <g id="xtick_1">
     <g id="line2d_1">
      <defs>
       <path d="M 0 0 
L 0 3.5 
" id="me16de928e2" style="stroke:#a9a9a9;stroke-width:2;"/>
      </defs>
      <g>
       <use style="fill:#a9a9a9;stroke:#a9a9a9;stroke-width:2;" x="9" xlink:href="#me16de928e2" y="67.68"/>
      </g>
     </g>
    </g>
    <g id="xtick_2">
     <g id="line2d_2">
      <g>
       <use style="fill:#a9a9a9;stroke:#a9a9a9;stroke-width:2;" x="36.9" xlink:href="#me16de928e2" y="67.68"/>
      </g>
     </g>
    </g>
    <g id="xtick_3">
     <g id="line2d_3">
      <g>
       <use style="fill:#a9a9a9;stroke:#a9a9a9;stroke-width:2;" x="64.8" xlink:href="#me16de928e2" y="67.68"/>
      </g>
     </g>
    </g>
   </g>
   <g id="matplotlib.axis_2">
    <g id="ytick_1">
     <g id="line2d_4">
      <defs>
       <path d="M 0 0 
L -3.5 0 
" id="m4c05f9b9b3" style="stroke:#a9a9a9;stroke-width:2;"/>
      </defs>
      <g>
       <use style="fill:#a9a9a9;stroke:#a9a9a9;stroke-width:2;" x="9" xlink:href="#m4c05f9b9b3" y="67.68"/>
      </g>
     </g>
    </g>
    <g id="ytick_2">
     <g id="line2d_5">
      <g>
       <use style="fill:#a9a9a9;stroke:#a9a9a9;stroke-width:2;" x="9" xlink:href="#m4c05f9b9b3" y="65.426047"/>
      </g>
     </g>
    </g>
    <g id="ytick_3">
     <g id="line2d_6">
      <g>
       <use style="fill:#a9a9a9;stroke:#a9a9a9;stroke-width:2;" x="9" xlink:href="#m4c05f9b9b3" y="63.172094"/>
      </g>
     </g>
    </g>
   </g>
   <g id="line2d_7">
    <path clip-path="url(#p8d08089e48)" d="M 10.86031 61.900648 
L 11.79031 60.936004 
L 12.72031 60.112185 
L 13.65031 58.917614 
L 14.58031 57.839548 
L 15.51031 56.62545 
L 16.44031 56.040235 
L 17.37031 54.780845 
L 18.30031 53.962586 
L 19.23031 52.63342 
L 20.16031 52.268238 
L 21.09031 51.203301 
L 22.02031 49.503882 
L 22.95031 48.586066 
L 23.88031 47.793047 
L 24.81031 46.803969 
L 25.74031 45.544082 
L 26.67031 44.618285 
L 27.60031 43.321778 
L 28.53031 40.58224 
L 29.46031 39.014007 
L 30.39031 36.832702 
L 31.32031 37.38113 
L 32.25031 36.613229 
L 33.18031 36.729911 
L 34.11031 36.739055 
L 35.04031 37.711556 
L 35.97031 36.953548 
L 36.90031 35.901729 
L 37.83031 33.660751 
L 38.76031 32.972491 
L 39.69031 33.155907 
L 40.62031 32.500811 
L 41.55031 31.424695 
L 42.48031 29.435005 
L 43.41031 28.874527 
L 44.34031 28.731526 
L 45.27031 28.386775 
L 46.20031 26.92637 
L 47.13031 27.529768 
L 48.06031 27.303819 
L 48.99031 26.677794 
L 49.92031 26.229849 
L 50.85031 24.684858 
L 51.78031 22.703728 
L 52.71031 21.235184 
L 53.64031 19.32397 
L 54.57031 17.508763 
L 55.50031 17.765291 
L 56.43031 17.392698 
L 57.36031 18.109759 
L 58.29031 19.714154 
L 59.22031 20.155072 
L 60.15031 19.488456 
L 61.08031 17.724904 
L 62.01031 17.790549 
L 62.94031 18.451747 
L 63.87031 18.13447 
" style="fill:none;stroke:#fc8d62;stroke-linecap:square;stroke-width:2;"/>
   </g>
   <g id="line2d_8">
    <path clip-path="url(#p8d08089e48)" d="M 10.86031 60.311011 
L 11.79031 59.629527 
L 12.72031 58.559259 
L 13.65031 57.569875 
L 14.58031 57.77885 
L 15.51031 57.774539 
L 16.44031 56.663819 
L 17.37031 56.198251 
L 18.30031 55.040667 
L 19.23031 55.017315 
L 20.16031 54.53298 
L 21.09031 54.038111 
L 22.02031 52.247182 
L 22.95031 50.882627 
L 23.88031 50.328375 
L 24.81031 49.428212 
L 25.74031 48.192681 
L 26.67031 46.544281 
L 27.60031 44.68092 
L 28.53031 42.765002 
L 29.46031 40.212911 
L 30.39031 37.650817 
L 31.32031 34.683642 
L 32.25031 31.689647 
L 33.18031 32.787743 
L 34.11031 32.285313 
L 35.04031 32.569543 
L 35.97031 32.850626 
L 36.90031 32.678324 
L 37.83031 32.531008 
L 38.76031 32.448182 
L 39.69031 32.863627 
L 40.62031 33.127187 
L 41.55031 32.850395 
L 42.48031 31.656587 
L 43.41031 31.934416 
L 44.34031 32.203034 
L 45.27031 30.950213 
L 46.20031 30.441166 
L 47.13031 29.555398 
L 48.06031 27.614858 
L 48.99031 28.718543 
L 49.92031 28.338561 
L 50.85031 27.048872 
L 51.78031 25.859729 
L 52.71031 24.975024 
L 53.64031 23.132485 
L 54.57031 21.370586 
L 55.50031 19.848737 
L 56.43031 18.483385 
L 57.36031 18.176189 
L 58.29031 18.968166 
L 59.22031 18.232799 
L 60.15031 17.719306 
L 61.08031 16.897354 
L 62.01031 18.071561 
L 62.94031 18.951554 
L 63.87031 18.936145 
" style="fill:none;stroke:#fc8d62;stroke-dasharray:1.5,1.5;stroke-dashoffset:0;stroke-opacity:0.7;stroke-width:1.5;"/>
   </g>
   <g id="patch_3">
    <path d="M 9 67.68 
L 9 17.28 
" style="fill:none;stroke:#a9a9a9;stroke-linecap:square;stroke-linejoin:miter;stroke-width:2;"/>
   </g>
   <g id="patch_4">
    <path d="M 64.8 67.68 
L 64.8 17.28 
" style="fill:none;"/>
   </g>
   <g id="patch_5">
    <path d="M 9 67.68 
L 64.8 67.68 
" style="fill:none;stroke:#a9a9a9;stroke-linecap:square;stroke-linejoin:miter;stroke-width:2;"/>
   </g>
   <g id="patch_6">
    <path d="M 9 17.28 
L 64.8 17.28 
" style="fill:none;"/>
   </g>
  </g>
  <g id="axes_2">
   <g id="patch_7">
    <path d="M 9 128.16 
L 64.8 128.16 
L 64.8 77.76 
L 9 77.76 
z
" style="fill:none;"/>
   </g>
   <g id="matplotlib.axis_3">
    <g id="xtick_4">
     <g id="line2d_9">
      <g>
       <use style="fill:#a9a9a9;stroke:#a9a9a9;stroke-width:2;" x="9" xlink:href="#me16de928e2" y="128.16"/>
      </g>
     </g>
    </g>
    <g id="xtick_5">
     <g id="line2d_10">
      <g>
       <use style="fill:#a9a9a9;stroke:#a9a9a9;stroke-width:2;" x="36.9" xlink:href="#me16de928e2" y="128.16"/>
      </g>
     </g>
    </g>
    <g id="xtick_6">
     <g id="line2d_11">
      <g>
       <use style="fill:#a9a9a9;stroke:#a9a9a9;stroke-width:2;" x="64.8" xlink:href="#me16de928e2" y="128.16"/>
      </g>
     </g>
    </g>
   </g>
   <g id="matplotlib.axis_4">
    <g id="ytick_4">
     <g id="line2d_12">
      <g>
       <use style="fill:#a9a9a9;stroke:#a9a9a9;stroke-width:2;" x="9" xlink:href="#m4c05f9b9b3" y="128.16"/>
      </g>
     </g>
    </g>
    <g id="ytick_5">
     <g id="line2d_13">
      <g>
       <use style="fill:#a9a9a9;stroke:#a9a9a9;stroke-width:2;" x="9" xlink:href="#m4c05f9b9b3" y="102.96"/>
      </g>
     </g>
    </g>
    <g id="ytick_6">
     <g id="line2d_14">
      <g>
       <use style="fill:#a9a9a9;stroke:#a9a9a9;stroke-width:2;" x="9" xlink:href="#m4c05f9b9b3" y="77.76"/>
      </g>
     </g>
    </g>
   </g>
   <g id="line2d_15">
    <path clip-path="url(#p180c15fad1)" d="M 10.86031 89.374396 
L 11.79031 89.011534 
L 12.72031 88.799992 
L 13.65031 88.60394 
L 14.58031 88.460499 
L 15.51031 88.374512 
L 16.44031 88.303906 
L 17.37031 88.238133 
L 18.30031 88.208058 
L 19.23031 88.197566 
L 20.16031 88.217736 
L 21.09031 88.212545 
L 22.02031 88.19222 
L 22.95031 88.200428 
L 23.88031 88.195915 
L 24.81031 88.17043 
L 25.74031 88.185276 
L 26.67031 88.179612 
L 27.60031 88.180173 
L 28.53031 88.166784 
L 29.46031 88.159342 
L 30.39031 88.148615 
L 31.32031 88.160487 
L 32.25031 88.154251 
L 33.18031 88.157746 
L 34.11031 88.161393 
L 35.04031 88.166167 
L 35.97031 88.152991 
L 36.90031 88.151673 
L 37.83031 88.132954 
L 38.76031 88.133924 
L 39.69031 88.124104 
L 40.62031 88.124784 
L 41.55031 88.122769 
L 42.48031 88.12613 
L 43.41031 88.133983 
L 44.34031 88.138428 
L 45.27031 88.144483 
L 46.20031 88.149208 
L 47.13031 88.151797 
L 48.06031 88.150295 
L 48.99031 88.158035 
L 49.92031 88.160543 
L 50.85031 88.150433 
L 51.78031 88.151906 
L 52.71031 88.148844 
L 53.64031 88.150843 
L 54.57031 88.149914 
L 55.50031 88.151245 
L 56.43031 88.146342 
L 57.36031 88.146 
L 58.29031 88.146851 
L 59.22031 88.144244 
L 60.15031 88.140286 
L 61.08031 88.13415 
L 62.01031 88.132642 
L 62.94031 88.135159 
L 63.87031 88.130713 
" style="fill:none;stroke:#fc8d62;stroke-linecap:square;stroke-width:2;"/>
   </g>
   <g id="line2d_16">
    <path clip-path="url(#p180c15fad1)" d="M 10.86031 91.380681 
L 11.79031 91.120561 
L 12.72031 90.972513 
L 13.65031 90.892143 
L 14.58031 90.859601 
L 15.51031 90.840671 
L 16.44031 90.733418 
L 17.37031 90.707698 
L 18.30031 90.671656 
L 19.23031 90.651126 
L 20.16031 90.637389 
L 21.09031 90.631384 
L 22.02031 90.601382 
L 22.95031 90.584547 
L 23.88031 90.582726 
L 24.81031 90.571692 
L 25.74031 90.562774 
L 26.67031 90.559228 
L 27.60031 90.542839 
L 28.53031 90.537224 
L 29.46031 90.533626 
L 30.39031 90.522354 
L 31.32031 90.511107 
L 32.25031 90.500516 
L 33.18031 90.494045 
L 34.11031 90.484749 
L 35.04031 90.47569 
L 35.97031 90.475197 
L 36.90031 90.465614 
L 37.83031 90.451492 
L 38.76031 90.441521 
L 39.69031 90.428025 
L 40.62031 90.427959 
L 41.55031 90.42104 
L 42.48031 90.419583 
L 43.41031 90.418564 
L 44.34031 90.42317 
L 45.27031 90.431664 
L 46.20031 90.434143 
L 47.13031 90.433466 
L 48.06031 90.431962 
L 48.99031 90.433599 
L 49.92031 90.427474 
L 50.85031 90.428329 
L 51.78031 90.42582 
L 52.71031 90.423426 
L 53.64031 90.420711 
L 54.57031 90.415326 
L 55.50031 90.416365 
L 56.43031 90.413196 
L 57.36031 90.409994 
L 58.29031 90.409819 
L 59.22031 90.406978 
L 60.15031 90.4047 
L 61.08031 90.403295 
L 62.01031 90.402371 
L 62.94031 90.401805 
L 63.87031 90.401336 
" style="fill:none;stroke:#fc8d62;stroke-dasharray:1.5,1.5;stroke-dashoffset:0;stroke-opacity:0.7;stroke-width:1.5;"/>
   </g>
   <g id="patch_8">
    <path d="M 9 128.16 
L 9 77.76 
" style="fill:none;stroke:#a9a9a9;stroke-linecap:square;stroke-linejoin:miter;stroke-width:2;"/>
   </g>
   <g id="patch_9">
    <path d="M 64.8 128.16 
L 64.8 77.76 
" style="fill:none;"/>
   </g>
   <g id="patch_10">
    <path d="M 9 128.16 
L 64.8 128.16 
" style="fill:none;stroke:#a9a9a9;stroke-linecap:square;stroke-linejoin:miter;stroke-width:2;"/>
   </g>
   <g id="patch_11">
    <path d="M 9 77.76 
L 64.8 77.76 
" style="fill:none;"/>
   </g>
  </g>
 </g>
 <defs>
  <clipPath id="p8d08089e48">
   <rect height="50.4" width="55.8" x="9" y="17.28"/>
  </clipPath>
  <clipPath id="p180c15fad1">
   <rect height="50.4" width="55.8" x="9" y="77.76"/>
  </clipPath>
 </defs>
</svg>
