<?xml version="1.0" encoding="utf-8" standalone="no"?>
<!DOCTYPE svg PUBLIC "-//W3C//DTD SVG 1.1//EN"
  "http://www.w3.org/Graphics/SVG/1.1/DTD/svg11.dtd">
<!-- Created with matplotlib (https://matplotlib.org/) -->
<svg height="144pt" version="1.1" viewBox="0 0 72 144" width="72pt" xmlns="http://www.w3.org/2000/svg" xmlns:xlink="http://www.w3.org/1999/xlink">
 <metadata>
  <rdf:RDF xmlns:cc="http://creativecommons.org/ns#" xmlns:dc="http://purl.org/dc/elements/1.1/" xmlns:rdf="http://www.w3.org/1999/02/22-rdf-syntax-ns#">
   <cc:Work>
    <dc:type rdf:resource="http://purl.org/dc/dcmitype/StillImage"/>
    <dc:date>2021-10-14T20:38:18.942803</dc:date>
    <dc:format>image/svg+xml</dc:format>
    <dc:creator>
     <cc:Agent>
      <dc:title>Matplotlib v3.3.2, https://matplotlib.org/</dc:title>
     </cc:Agent>
    </dc:creator>
   </cc:Work>
  </rdf:RDF>
 </metadata>
 <defs>
  <style type="text/css">*{stroke-linecap:butt;stroke-linejoin:round;}</style>
 </defs>
 <g id="figure_1">
  <g id="patch_1">
   <path d="M 0 144 
L 72 144 
L 72 0 
L 0 0 
z
" style="fill:none;"/>
  </g>
  <g id="axes_1">
   <g id="patch_2">
    <path d="M 9 67.68 
L 64.8 67.68 
L 64.8 17.28 
L 9 17.28 
z
" style="fill:none;"/>
   </g>
   <g id="matplotlib.axis_1">
    <g id="xtick_1">
     <g id="line2d_1">
      <defs>
       <path d="M 0 0 
L 0 3.5 
" id="mfca2b29332" style="stroke:#a9a9a9;stroke-width:2;"/>
      </defs>
      <g>
       <use style="fill:#a9a9a9;stroke:#a9a9a9;stroke-width:2;" x="9" xlink:href="#mfca2b29332" y="67.68"/>
      </g>
     </g>
    </g>
    <g id="xtick_2">
     <g id="line2d_2">
      <g>
       <use style="fill:#a9a9a9;stroke:#a9a9a9;stroke-width:2;" x="36.9" xlink:href="#mfca2b29332" y="67.68"/>
      </g>
     </g>
    </g>
    <g id="xtick_3">
     <g id="line2d_3">
      <g>
       <use style="fill:#a9a9a9;stroke:#a9a9a9;stroke-width:2;" x="64.8" xlink:href="#mfca2b29332" y="67.68"/>
      </g>
     </g>
    </g>
   </g>
   <g id="matplotlib.axis_2">
    <g id="ytick_1">
     <g id="line2d_4">
      <defs>
       <path d="M 0 0 
L -3.5 0 
" id="me6666cede3" style="stroke:#a9a9a9;stroke-width:2;"/>
      </defs>
      <g>
       <use style="fill:#a9a9a9;stroke:#a9a9a9;stroke-width:2;" x="9" xlink:href="#me6666cede3" y="67.68"/>
      </g>
     </g>
    </g>
    <g id="ytick_2">
     <g id="line2d_5">
      <g>
       <use style="fill:#a9a9a9;stroke:#a9a9a9;stroke-width:2;" x="9" xlink:href="#me6666cede3" y="64.652645"/>
      </g>
     </g>
    </g>
    <g id="ytick_3">
     <g id="line2d_6">
      <g>
       <use style="fill:#a9a9a9;stroke:#a9a9a9;stroke-width:2;" x="9" xlink:href="#me6666cede3" y="61.62529"/>
      </g>
     </g>
    </g>
   </g>
   <g id="line2d_7">
    <path clip-path="url(#p073a576d85)" d="M 10.860031 59.953988 
L 11.790031 58.261278 
L 12.720031 56.876204 
L 13.650031 54.85614 
L 14.580031 54.450602 
L 15.510031 53.132319 
L 16.440031 51.482938 
L 17.370031 51.26847 
L 18.300031 49.895694 
L 19.230031 48.933775 
L 20.160031 48.158427 
L 21.090031 47.390476 
L 22.020031 46.413195 
L 22.950031 45.275584 
L 23.880031 44.138745 
L 24.810031 43.511315 
L 25.740031 42.6549 
L 26.670031 41.759027 
L 27.600031 40.063535 
L 28.530031 38.409772 
L 29.460031 36.896489 
L 30.390031 35.777925 
L 31.320031 33.715472 
L 32.250031 32.170042 
L 33.180031 31.546711 
L 34.110031 31.045929 
L 35.040031 31.255724 
L 35.970031 31.92256 
L 36.900031 31.470237 
L 37.830031 31.773658 
L 38.760031 32.186241 
L 39.690031 31.802862 
L 40.620031 31.668332 
L 41.550031 30.679621 
L 42.480031 30.117215 
L 43.410031 30.293605 
L 44.340031 30.1834 
L 45.270031 29.176125 
L 46.200031 28.467254 
L 47.130031 28.098958 
L 48.060031 28.68186 
L 48.990031 28.275081 
L 49.920031 27.371361 
L 50.850031 26.346012 
L 51.780031 25.954285 
L 52.710031 25.57016 
L 53.640031 22.412203 
L 54.570031 21.124202 
L 55.500031 20.583015 
L 56.430031 19.199284 
L 57.360031 18.263311 
L 58.290031 18.407563 
L 59.220031 17.765918 
L 60.150031 17.46207 
L 61.080031 17.575279 
L 62.010031 18.247141 
L 62.940031 18.378476 
L 63.870031 17.431368 
" style="fill:none;stroke:#fc8d62;stroke-linecap:square;stroke-width:2;"/>
   </g>
   <g id="line2d_8">
    <path clip-path="url(#p073a576d85)" d="M 10.860031 59.367233 
L 11.790031 57.967383 
L 12.720031 57.07481 
L 13.650031 55.451774 
L 14.580031 54.778266 
L 15.510031 52.968428 
L 16.440031 52.213178 
L 17.370031 51.682406 
L 18.300031 50.895641 
L 19.230031 49.568552 
L 20.160031 48.085794 
L 21.090031 46.961247 
L 22.020031 45.768325 
L 22.950031 46.129653 
L 23.880031 45.247064 
L 24.810031 44.867268 
L 25.740031 43.493708 
L 26.670031 41.345239 
L 27.600031 40.505626 
L 28.530031 39.225948 
L 29.460031 37.378091 
L 30.390031 35.708709 
L 31.320031 34.696411 
L 32.250031 33.48182 
L 33.180031 33.0547 
L 34.110031 33.359017 
L 35.040031 33.258166 
L 35.970031 34.105265 
L 36.900031 33.445098 
L 37.830031 35.125858 
L 38.760031 35.834821 
L 39.690031 36.007097 
L 40.620031 35.087109 
L 41.550031 34.054014 
L 42.480031 33.596036 
L 43.410031 32.910443 
L 44.340031 32.169021 
L 45.270031 31.187744 
L 46.200031 30.471967 
L 47.130031 29.578173 
L 48.060031 29.233267 
L 48.990031 28.381218 
L 49.920031 27.275302 
L 50.850031 26.188691 
L 51.780031 24.379927 
L 52.710031 23.378365 
L 53.640031 21.520663 
L 54.570031 20.771845 
L 55.500031 20.399863 
L 56.430031 20.860208 
L 57.360031 22.141389 
L 58.290031 22.406625 
L 59.220031 22.686861 
L 60.150031 23.892466 
L 61.080031 24.266658 
L 62.010031 23.930368 
L 62.940031 24.338524 
L 63.870031 23.642245 
" style="fill:none;stroke:#fc8d62;stroke-dasharray:1.5,1.5;stroke-dashoffset:0;stroke-opacity:0.7;stroke-width:1.5;"/>
   </g>
   <g id="patch_3">
    <path d="M 9 67.68 
L 9 17.28 
" style="fill:none;stroke:#a9a9a9;stroke-linecap:square;stroke-linejoin:miter;stroke-width:2;"/>
   </g>
   <g id="patch_4">
    <path d="M 64.8 67.68 
L 64.8 17.28 
" style="fill:none;"/>
   </g>
   <g id="patch_5">
    <path d="M 9 67.68 
L 64.8 67.68 
" style="fill:none;stroke:#a9a9a9;stroke-linecap:square;stroke-linejoin:miter;stroke-width:2;"/>
   </g>
   <g id="patch_6">
    <path d="M 9 17.28 
L 64.8 17.28 
" style="fill:none;"/>
   </g>
  </g>
  <g id="axes_2">
   <g id="patch_7">
    <path d="M 9 128.16 
L 64.8 128.16 
L 64.8 77.76 
L 9 77.76 
z
" style="fill:none;"/>
   </g>
   <g id="matplotlib.axis_3">
    <g id="xtick_4">
     <g id="line2d_9">
      <g>
       <use style="fill:#a9a9a9;stroke:#a9a9a9;stroke-width:2;" x="9" xlink:href="#mfca2b29332" y="128.16"/>
      </g>
     </g>
    </g>
    <g id="xtick_5">
     <g id="line2d_10">
      <g>
       <use style="fill:#a9a9a9;stroke:#a9a9a9;stroke-width:2;" x="36.9" xlink:href="#mfca2b29332" y="128.16"/>
      </g>
     </g>
    </g>
    <g id="xtick_6">
     <g id="line2d_11">
      <g>
       <use style="fill:#a9a9a9;stroke:#a9a9a9;stroke-width:2;" x="64.8" xlink:href="#mfca2b29332" y="128.16"/>
      </g>
     </g>
    </g>
   </g>
   <g id="matplotlib.axis_4">
    <g id="ytick_4">
     <g id="line2d_12">
      <g>
       <use style="fill:#a9a9a9;stroke:#a9a9a9;stroke-width:2;" x="9" xlink:href="#me6666cede3" y="128.16"/>
      </g>
     </g>
    </g>
    <g id="ytick_5">
     <g id="line2d_13">
      <g>
       <use style="fill:#a9a9a9;stroke:#a9a9a9;stroke-width:2;" x="9" xlink:href="#me6666cede3" y="102.96"/>
      </g>
     </g>
    </g>
    <g id="ytick_6">
     <g id="line2d_14">
      <g>
       <use style="fill:#a9a9a9;stroke:#a9a9a9;stroke-width:2;" x="9" xlink:href="#me6666cede3" y="77.76"/>
      </g>
     </g>
    </g>
   </g>
   <g id="line2d_15">
    <path clip-path="url(#pf9854a2204)" d="M 10.860031 86.992696 
L 11.790031 86.3536 
L 12.720031 85.981278 
L 13.650031 85.705636 
L 14.580031 85.641595 
L 15.510031 85.476002 
L 16.440031 85.381574 
L 17.370031 85.358054 
L 18.300031 85.301925 
L 19.230031 85.262648 
L 20.160031 85.252726 
L 21.090031 85.262641 
L 22.020031 85.253011 
L 22.950031 85.260157 
L 23.880031 85.252918 
L 24.810031 85.255031 
L 25.740031 85.254294 
L 26.670031 85.245541 
L 27.600031 85.232088 
L 28.530031 85.229352 
L 29.460031 85.216982 
L 30.390031 85.226641 
L 31.320031 85.200642 
L 32.250031 85.202074 
L 33.180031 85.185926 
L 34.110031 85.179542 
L 35.040031 85.183751 
L 35.970031 85.174938 
L 36.900031 85.166695 
L 37.830031 85.141498 
L 38.760031 85.127578 
L 39.690031 85.131429 
L 40.620031 85.125408 
L 41.550031 85.12332 
L 42.480031 85.122873 
L 43.410031 85.129578 
L 44.340031 85.132869 
L 45.270031 85.131135 
L 46.200031 85.132452 
L 47.130031 85.1277 
L 48.060031 85.133556 
L 48.990031 85.128944 
L 49.920031 85.124961 
L 50.850031 85.129716 
L 51.780031 85.129559 
L 52.710031 85.114448 
L 53.640031 85.106589 
L 54.570031 85.098287 
L 55.500031 85.095163 
L 56.430031 85.094352 
L 57.360031 85.087793 
L 58.290031 85.085159 
L 59.220031 85.09034 
L 60.150031 85.08937 
L 61.080031 85.080295 
L 62.010031 85.079819 
L 62.940031 85.078005 
L 63.870031 85.073101 
" style="fill:none;stroke:#fc8d62;stroke-linecap:square;stroke-width:2;"/>
   </g>
   <g id="line2d_16">
    <path clip-path="url(#pf9854a2204)" d="M 10.860031 91.233823 
L 11.790031 90.890043 
L 12.720031 90.754458 
L 13.650031 90.574679 
L 14.580031 90.476245 
L 15.510031 90.313862 
L 16.440031 90.231883 
L 17.370031 90.20658 
L 18.300031 90.169269 
L 19.230031 90.148433 
L 20.160031 90.146778 
L 21.090031 90.134049 
L 22.020031 90.133966 
L 22.950031 90.13815 
L 23.880031 90.132605 
L 24.810031 90.140631 
L 25.740031 90.145997 
L 26.670031 90.11552 
L 27.600031 90.117345 
L 28.530031 90.100171 
L 29.460031 90.082422 
L 30.390031 90.087093 
L 31.320031 90.072965 
L 32.250031 90.056294 
L 33.180031 90.044298 
L 34.110031 90.028645 
L 35.040031 90.025977 
L 35.970031 90.019852 
L 36.900031 90.021568 
L 37.830031 90.019575 
L 38.760031 90.014021 
L 39.690031 90.008649 
L 40.620031 90.00286 
L 41.550031 89.998034 
L 42.480031 90.011015 
L 43.410031 90.009109 
L 44.340031 90.008823 
L 45.270031 90.019056 
L 46.200031 90.029254 
L 47.130031 90.031361 
L 48.060031 90.027624 
L 48.990031 90.020203 
L 49.920031 90.026991 
L 50.850031 90.029212 
L 51.780031 90.024526 
L 52.710031 90.023225 
L 53.640031 90.022899 
L 54.570031 90.023308 
L 55.500031 90.020561 
L 56.430031 90.012946 
L 57.360031 90.01149 
L 58.290031 90.008864 
L 59.220031 90.008352 
L 60.150031 90.003175 
L 61.080031 90.002273 
L 62.010031 89.998906 
L 62.940031 89.996314 
L 63.870031 89.998865 
" style="fill:none;stroke:#fc8d62;stroke-dasharray:1.5,1.5;stroke-dashoffset:0;stroke-opacity:0.7;stroke-width:1.5;"/>
   </g>
   <g id="patch_8">
    <path d="M 9 128.16 
L 9 77.76 
" style="fill:none;stroke:#a9a9a9;stroke-linecap:square;stroke-linejoin:miter;stroke-width:2;"/>
   </g>
   <g id="patch_9">
    <path d="M 64.8 128.16 
L 64.8 77.76 
" style="fill:none;"/>
   </g>
   <g id="patch_10">
    <path d="M 9 128.16 
L 64.8 128.16 
" style="fill:none;stroke:#a9a9a9;stroke-linecap:square;stroke-linejoin:miter;stroke-width:2;"/>
   </g>
   <g id="patch_11">
    <path d="M 9 77.76 
L 64.8 77.76 
" style="fill:none;"/>
   </g>
  </g>
 </g>
 <defs>
  <clipPath id="p073a576d85">
   <rect height="50.4" width="55.8" x="9" y="17.28"/>
  </clipPath>
  <clipPath id="pf9854a2204">
   <rect height="50.4" width="55.8" x="9" y="77.76"/>
  </clipPath>
 </defs>
</svg>
