<?xml version="1.0" encoding="utf-8" standalone="no"?>
<!DOCTYPE svg PUBLIC "-//W3C//DTD SVG 1.1//EN"
  "http://www.w3.org/Graphics/SVG/1.1/DTD/svg11.dtd">
<!-- Created with matplotlib (https://matplotlib.org/) -->
<svg height="144pt" version="1.1" viewBox="0 0 72 144" width="72pt" xmlns="http://www.w3.org/2000/svg" xmlns:xlink="http://www.w3.org/1999/xlink">
 <metadata>
  <rdf:RDF xmlns:cc="http://creativecommons.org/ns#" xmlns:dc="http://purl.org/dc/elements/1.1/" xmlns:rdf="http://www.w3.org/1999/02/22-rdf-syntax-ns#">
   <cc:Work>
    <dc:type rdf:resource="http://purl.org/dc/dcmitype/StillImage"/>
    <dc:date>2021-10-13T15:31:48.879667</dc:date>
    <dc:format>image/svg+xml</dc:format>
    <dc:creator>
     <cc:Agent>
      <dc:title>Matplotlib v3.3.2, https://matplotlib.org/</dc:title>
     </cc:Agent>
    </dc:creator>
   </cc:Work>
  </rdf:RDF>
 </metadata>
 <defs>
  <style type="text/css">*{stroke-linecap:butt;stroke-linejoin:round;}</style>
 </defs>
 <g id="figure_1">
  <g id="patch_1">
   <path d="M 0 144 
L 72 144 
L 72 0 
L 0 0 
z
" style="fill:none;"/>
  </g>
  <g id="axes_1">
   <g id="patch_2">
    <path d="M 9 67.68 
L 64.8 67.68 
L 64.8 17.28 
L 9 17.28 
z
" style="fill:none;"/>
   </g>
   <g id="matplotlib.axis_1">
    <g id="xtick_1">
     <g id="line2d_1">
      <defs>
       <path d="M 0 0 
L 0 3.5 
" id="mef68ea85c2" style="stroke:#a9a9a9;stroke-width:2;"/>
      </defs>
      <g>
       <use style="fill:#a9a9a9;stroke:#a9a9a9;stroke-width:2;" x="9" xlink:href="#mef68ea85c2" y="67.68"/>
      </g>
     </g>
    </g>
    <g id="xtick_2">
     <g id="line2d_2">
      <g>
       <use style="fill:#a9a9a9;stroke:#a9a9a9;stroke-width:2;" x="36.9" xlink:href="#mef68ea85c2" y="67.68"/>
      </g>
     </g>
    </g>
    <g id="xtick_3">
     <g id="line2d_3">
      <g>
       <use style="fill:#a9a9a9;stroke:#a9a9a9;stroke-width:2;" x="64.8" xlink:href="#mef68ea85c2" y="67.68"/>
      </g>
     </g>
    </g>
   </g>
   <g id="matplotlib.axis_2">
    <g id="ytick_1">
     <g id="line2d_4">
      <defs>
       <path d="M 0 0 
L -3.5 0 
" id="m10de94ac8f" style="stroke:#a9a9a9;stroke-width:2;"/>
      </defs>
      <g>
       <use style="fill:#a9a9a9;stroke:#a9a9a9;stroke-width:2;" x="9" xlink:href="#m10de94ac8f" y="67.68"/>
      </g>
     </g>
    </g>
    <g id="ytick_2">
     <g id="line2d_5">
      <g>
       <use style="fill:#a9a9a9;stroke:#a9a9a9;stroke-width:2;" x="9" xlink:href="#m10de94ac8f" y="42.48"/>
      </g>
     </g>
    </g>
    <g id="ytick_3">
     <g id="line2d_6">
      <g>
       <use style="fill:#a9a9a9;stroke:#a9a9a9;stroke-width:2;" x="9" xlink:href="#m10de94ac8f" y="17.28"/>
      </g>
     </g>
    </g>
   </g>
   <g id="line2d_7">
    <path clip-path="url(#p5ba22c90d3)" d="M 10.86031 57.073912 
L 11.79031 57.990029 
L 12.72031 58.062671 
L 13.65031 57.514778 
L 14.58031 57.293539 
L 15.51031 56.903702 
L 16.44031 56.642077 
L 17.37031 56.721662 
L 18.30031 56.88322 
L 19.23031 56.399357 
L 20.16031 55.492096 
L 21.09031 54.782978 
L 22.02031 54.459728 
L 22.95031 53.629799 
L 23.88031 53.259483 
L 24.81031 52.652521 
L 25.74031 52.31951 
L 26.67031 52.448532 
L 27.60031 51.7994 
L 28.53031 51.57398 
L 29.46031 51.829256 
L 30.39031 51.397289 
L 31.32031 51.66649 
L 32.25031 51.320424 
L 33.18031 50.635226 
L 34.11031 49.944964 
L 35.04031 49.294428 
L 35.97031 49.628631 
L 36.90031 49.124281 
L 37.83031 48.795201 
L 38.76031 48.125349 
L 39.69031 48.073011 
L 40.62031 47.952579 
L 41.55031 47.38808 
L 42.48031 47.164913 
L 43.41031 46.784572 
L 44.34031 46.611682 
L 45.27031 46.079137 
L 46.20031 45.91898 
L 47.13031 44.943065 
L 48.06031 44.492293 
L 48.99031 44.368827 
L 49.92031 43.89743 
L 50.85031 43.390372 
L 51.78031 43.480584 
L 52.71031 43.441002 
L 53.64031 42.855344 
L 54.57031 42.157608 
L 55.50031 41.831109 
L 56.43031 41.495615 
L 57.36031 41.432255 
L 58.29031 41.844033 
L 59.22031 41.553183 
L 60.15031 41.154543 
L 61.08031 40.874516 
L 62.01031 40.617062 
L 62.94031 40.951409 
L 63.87031 40.772842 
" style="fill:none;stroke:#fc8d62;stroke-linecap:square;stroke-width:2;"/>
   </g>
   <g id="line2d_8">
    <path clip-path="url(#p5ba22c90d3)" d="M 10.86031 55.642912 
L 11.79031 55.999304 
L 12.72031 55.415308 
L 13.65031 55.374766 
L 14.58031 56.454791 
L 15.51031 56.01598 
L 16.44031 56.021969 
L 17.37031 55.909456 
L 18.30031 55.958761 
L 19.23031 55.540088 
L 20.16031 55.12164 
L 21.09031 54.844433 
L 22.02031 53.816232 
L 22.95031 53.47805 
L 23.88031 53.197398 
L 24.81031 52.562194 
L 25.74031 52.090026 
L 26.67031 51.991979 
L 27.60031 51.830678 
L 28.53031 51.638449 
L 29.46031 51.686115 
L 30.39031 51.30614 
L 31.32031 51.193028 
L 32.25031 50.634565 
L 33.18031 50.220818 
L 34.11031 50.43862 
L 35.04031 50.071492 
L 35.97031 49.881014 
L 36.90031 50.154493 
L 37.83031 49.55786 
L 38.76031 48.966202 
L 39.69031 49.133346 
L 40.62031 48.944996 
L 41.55031 48.204828 
L 42.48031 48.135974 
L 43.41031 48.330403 
L 44.34031 47.749758 
L 45.27031 47.90814 
L 46.20031 47.809835 
L 47.13031 47.242177 
L 48.06031 46.576114 
L 48.99031 46.200059 
L 49.92031 45.704765 
L 50.85031 45.213571 
L 51.78031 44.815025 
L 52.71031 44.72525 
L 53.64031 44.445224 
L 54.57031 44.21049 
L 55.50031 44.268691 
L 56.43031 43.687356 
L 57.36031 43.379118 
L 58.29031 43.236153 
L 59.22031 42.617193 
L 60.15031 42.292917 
L 61.08031 42.078004 
L 62.01031 41.701515 
L 62.94031 41.659126 
L 63.87031 41.475008 
" style="fill:none;stroke:#fc8d62;stroke-dasharray:1.5,1.5;stroke-dashoffset:0;stroke-opacity:0.7;stroke-width:1.5;"/>
   </g>
   <g id="patch_3">
    <path d="M 9 67.68 
L 9 17.28 
" style="fill:none;stroke:#a9a9a9;stroke-linecap:square;stroke-linejoin:miter;stroke-width:2;"/>
   </g>
   <g id="patch_4">
    <path d="M 64.8 67.68 
L 64.8 17.28 
" style="fill:none;"/>
   </g>
   <g id="patch_5">
    <path d="M 9 67.68 
L 64.8 67.68 
" style="fill:none;stroke:#a9a9a9;stroke-linecap:square;stroke-linejoin:miter;stroke-width:2;"/>
   </g>
   <g id="patch_6">
    <path d="M 9 17.28 
L 64.8 17.28 
" style="fill:none;"/>
   </g>
  </g>
  <g id="axes_2">
   <g id="patch_7">
    <path d="M 9 128.16 
L 64.8 128.16 
L 64.8 77.76 
L 9 77.76 
z
" style="fill:none;"/>
   </g>
   <g id="matplotlib.axis_3">
    <g id="xtick_4">
     <g id="line2d_9">
      <g>
       <use style="fill:#a9a9a9;stroke:#a9a9a9;stroke-width:2;" x="9" xlink:href="#mef68ea85c2" y="128.16"/>
      </g>
     </g>
    </g>
    <g id="xtick_5">
     <g id="line2d_10">
      <g>
       <use style="fill:#a9a9a9;stroke:#a9a9a9;stroke-width:2;" x="36.9" xlink:href="#mef68ea85c2" y="128.16"/>
      </g>
     </g>
    </g>
    <g id="xtick_6">
     <g id="line2d_11">
      <g>
       <use style="fill:#a9a9a9;stroke:#a9a9a9;stroke-width:2;" x="64.8" xlink:href="#mef68ea85c2" y="128.16"/>
      </g>
     </g>
    </g>
   </g>
   <g id="matplotlib.axis_4">
    <g id="ytick_4">
     <g id="line2d_12">
      <g>
       <use style="fill:#a9a9a9;stroke:#a9a9a9;stroke-width:2;" x="9" xlink:href="#m10de94ac8f" y="128.16"/>
      </g>
     </g>
    </g>
    <g id="ytick_5">
     <g id="line2d_13">
      <g>
       <use style="fill:#a9a9a9;stroke:#a9a9a9;stroke-width:2;" x="9" xlink:href="#m10de94ac8f" y="102.96"/>
      </g>
     </g>
    </g>
    <g id="ytick_6">
     <g id="line2d_14">
      <g>
       <use style="fill:#a9a9a9;stroke:#a9a9a9;stroke-width:2;" x="9" xlink:href="#m10de94ac8f" y="77.76"/>
      </g>
     </g>
    </g>
   </g>
   <g id="line2d_15">
    <path clip-path="url(#pa4566cf426)" d="M 10.86031 122.325042 
L 11.79031 120.294361 
L 12.72031 118.82813 
L 13.65031 117.586106 
L 14.58031 116.75747 
L 15.51031 115.809854 
L 16.44031 114.667654 
L 17.37031 113.477941 
L 18.30031 112.69691 
L 19.23031 111.45363 
L 20.16031 110.998161 
L 21.09031 110.525068 
L 22.02031 110.027878 
L 22.95031 109.211798 
L 23.88031 108.563892 
L 24.81031 107.685753 
L 25.74031 106.944081 
L 26.67031 106.099738 
L 27.60031 105.627411 
L 28.53031 105.322606 
L 29.46031 105.231969 
L 30.39031 103.999602 
L 31.32031 103.626317 
L 32.25031 103.212299 
L 33.18031 102.254911 
L 34.11031 101.583045 
L 35.04031 101.365995 
L 35.97031 101.047738 
L 36.90031 100.88443 
L 37.83031 100.556573 
L 38.76031 100.372311 
L 39.69031 100.200495 
L 40.62031 100.011551 
L 41.55031 99.838171 
L 42.48031 99.413004 
L 43.41031 99.18136 
L 44.34031 99.042637 
L 45.27031 98.660983 
L 46.20031 98.499677 
L 47.13031 97.806869 
L 48.06031 97.575649 
L 48.99031 97.308113 
L 49.92031 97.018584 
L 50.85031 96.744271 
L 51.78031 96.679385 
L 52.71031 96.670795 
L 53.64031 96.452624 
L 54.57031 95.950003 
L 55.50031 95.844051 
L 56.43031 95.660565 
L 57.36031 95.652553 
L 58.29031 95.739803 
L 59.22031 95.536995 
L 60.15031 95.481458 
L 61.08031 95.323187 
L 62.01031 95.094078 
L 62.94031 95.163663 
L 63.87031 94.975806 
" style="fill:none;stroke:#fc8d62;stroke-linecap:square;stroke-width:2;"/>
   </g>
   <g id="line2d_16">
    <path clip-path="url(#pa4566cf426)" d="M 10.86031 122.587146 
L 11.79031 120.808031 
L 12.72031 119.803561 
L 13.65031 117.978549 
L 14.58031 117.490979 
L 15.51031 116.85605 
L 16.44031 115.512537 
L 17.37031 113.967003 
L 18.30031 113.411937 
L 19.23031 112.902666 
L 20.16031 112.391983 
L 21.09031 112.01056 
L 22.02031 111.333483 
L 22.95031 110.508161 
L 23.88031 110.221594 
L 24.81031 109.692847 
L 25.74031 109.453513 
L 26.67031 108.659431 
L 27.60031 107.99986 
L 28.53031 107.385593 
L 29.46031 107.211406 
L 30.39031 107.039849 
L 31.32031 107.034208 
L 32.25031 106.755471 
L 33.18031 106.42861 
L 34.11031 106.069569 
L 35.04031 105.521218 
L 35.97031 105.471472 
L 36.90031 105.439001 
L 37.83031 105.132941 
L 38.76031 105.100133 
L 39.69031 105.171098 
L 40.62031 104.707582 
L 41.55031 104.34903 
L 42.48031 104.054059 
L 43.41031 104.08316 
L 44.34031 103.951534 
L 45.27031 103.860542 
L 46.20031 103.813565 
L 47.13031 103.537279 
L 48.06031 103.410237 
L 48.99031 103.293762 
L 49.92031 102.885321 
L 50.85031 102.52901 
L 51.78031 102.467573 
L 52.71031 102.38043 
L 53.64031 102.156656 
L 54.57031 101.959056 
L 55.50031 101.917114 
L 56.43031 101.789801 
L 57.36031 101.753336 
L 58.29031 101.583888 
L 59.22031 101.318986 
L 60.15031 101.127464 
L 61.08031 100.951612 
L 62.01031 100.782156 
L 62.94031 100.64309 
L 63.87031 100.390987 
" style="fill:none;stroke:#fc8d62;stroke-dasharray:1.5,1.5;stroke-dashoffset:0;stroke-opacity:0.7;stroke-width:1.5;"/>
   </g>
   <g id="patch_8">
    <path d="M 9 128.16 
L 9 77.76 
" style="fill:none;stroke:#a9a9a9;stroke-linecap:square;stroke-linejoin:miter;stroke-width:2;"/>
   </g>
   <g id="patch_9">
    <path d="M 64.8 128.16 
L 64.8 77.76 
" style="fill:none;"/>
   </g>
   <g id="patch_10">
    <path d="M 9 128.16 
L 64.8 128.16 
" style="fill:none;stroke:#a9a9a9;stroke-linecap:square;stroke-linejoin:miter;stroke-width:2;"/>
   </g>
   <g id="patch_11">
    <path d="M 9 77.76 
L 64.8 77.76 
" style="fill:none;"/>
   </g>
  </g>
 </g>
 <defs>
  <clipPath id="p5ba22c90d3">
   <rect height="50.4" width="55.8" x="9" y="17.28"/>
  </clipPath>
  <clipPath id="pa4566cf426">
   <rect height="50.4" width="55.8" x="9" y="77.76"/>
  </clipPath>
 </defs>
</svg>
