<?xml version="1.0" encoding="utf-8" standalone="no"?>
<!DOCTYPE svg PUBLIC "-//W3C//DTD SVG 1.1//EN"
  "http://www.w3.org/Graphics/SVG/1.1/DTD/svg11.dtd">
<!-- Created with matplotlib (https://matplotlib.org/) -->
<svg height="144pt" version="1.1" viewBox="0 0 72 144" width="72pt" xmlns="http://www.w3.org/2000/svg" xmlns:xlink="http://www.w3.org/1999/xlink">
 <metadata>
  <rdf:RDF xmlns:cc="http://creativecommons.org/ns#" xmlns:dc="http://purl.org/dc/elements/1.1/" xmlns:rdf="http://www.w3.org/1999/02/22-rdf-syntax-ns#">
   <cc:Work>
    <dc:type rdf:resource="http://purl.org/dc/dcmitype/StillImage"/>
    <dc:date>2021-10-13T14:10:37.663653</dc:date>
    <dc:format>image/svg+xml</dc:format>
    <dc:creator>
     <cc:Agent>
      <dc:title>Matplotlib v3.3.2, https://matplotlib.org/</dc:title>
     </cc:Agent>
    </dc:creator>
   </cc:Work>
  </rdf:RDF>
 </metadata>
 <defs>
  <style type="text/css">*{stroke-linecap:butt;stroke-linejoin:round;}</style>
 </defs>
 <g id="figure_1">
  <g id="patch_1">
   <path d="M 0 144 
L 72 144 
L 72 0 
L 0 0 
z
" style="fill:none;"/>
  </g>
  <g id="axes_1">
   <g id="patch_2">
    <path d="M 9 67.68 
L 64.8 67.68 
L 64.8 17.28 
L 9 17.28 
z
" style="fill:none;"/>
   </g>
   <g id="matplotlib.axis_1">
    <g id="xtick_1">
     <g id="line2d_1">
      <defs>
       <path d="M 0 0 
L 0 3.5 
" id="ma8d573f1c2" style="stroke:#a9a9a9;stroke-width:2;"/>
      </defs>
      <g>
       <use style="fill:#a9a9a9;stroke:#a9a9a9;stroke-width:2;" x="9" xlink:href="#ma8d573f1c2" y="67.68"/>
      </g>
     </g>
    </g>
    <g id="xtick_2">
     <g id="line2d_2">
      <g>
       <use style="fill:#a9a9a9;stroke:#a9a9a9;stroke-width:2;" x="36.9" xlink:href="#ma8d573f1c2" y="67.68"/>
      </g>
     </g>
    </g>
    <g id="xtick_3">
     <g id="line2d_3">
      <g>
       <use style="fill:#a9a9a9;stroke:#a9a9a9;stroke-width:2;" x="64.8" xlink:href="#ma8d573f1c2" y="67.68"/>
      </g>
     </g>
    </g>
   </g>
   <g id="matplotlib.axis_2">
    <g id="ytick_1">
     <g id="line2d_4">
      <defs>
       <path d="M 0 0 
L -3.5 0 
" id="m276a1ed8a8" style="stroke:#a9a9a9;stroke-width:2;"/>
      </defs>
      <g>
       <use style="fill:#a9a9a9;stroke:#a9a9a9;stroke-width:2;" x="9" xlink:href="#m276a1ed8a8" y="67.68"/>
      </g>
     </g>
    </g>
    <g id="ytick_2">
     <g id="line2d_5">
      <g>
       <use style="fill:#a9a9a9;stroke:#a9a9a9;stroke-width:2;" x="9" xlink:href="#m276a1ed8a8" y="42.48"/>
      </g>
     </g>
    </g>
    <g id="ytick_3">
     <g id="line2d_6">
      <g>
       <use style="fill:#a9a9a9;stroke:#a9a9a9;stroke-width:2;" x="9" xlink:href="#m276a1ed8a8" y="17.28"/>
      </g>
     </g>
    </g>
   </g>
   <g id="line2d_7">
    <path clip-path="url(#p5fe8585735)" d="M 10.86031 57.153939 
L 11.79031 58.250607 
L 12.72031 59.144372 
L 13.65031 59.017761 
L 14.58031 59.180432 
L 15.51031 58.819361 
L 16.44031 59.142741 
L 17.37031 58.360179 
L 18.30031 58.303938 
L 19.23031 58.852708 
L 20.16031 59.061126 
L 21.09031 58.601813 
L 22.02031 58.522306 
L 22.95031 57.808586 
L 23.88031 57.598013 
L 24.81031 57.461026 
L 25.74031 57.095641 
L 26.67031 56.601221 
L 27.60031 56.556035 
L 28.53031 56.313406 
L 29.46031 55.699584 
L 30.39031 55.456746 
L 31.32031 54.937443 
L 32.25031 54.851567 
L 33.18031 54.877019 
L 34.11031 54.18614 
L 35.04031 53.718008 
L 35.97031 53.713876 
L 36.90031 53.453884 
L 37.83031 53.071833 
L 38.76031 52.895316 
L 39.69031 53.265427 
L 40.62031 53.330219 
L 41.55031 52.532846 
L 42.48031 52.390786 
L 43.41031 51.948685 
L 44.34031 51.684624 
L 45.27031 51.641269 
L 46.20031 51.382191 
L 47.13031 51.196557 
L 48.06031 51.021442 
L 48.99031 50.976593 
L 49.92031 50.873732 
L 50.85031 50.660952 
L 51.78031 50.341906 
L 52.71031 49.894792 
L 53.64031 49.545623 
L 54.57031 49.485951 
L 55.50031 49.698101 
L 56.43031 49.825042 
L 57.36031 49.689983 
L 58.29031 49.812425 
L 59.22031 49.872972 
L 60.15031 49.619613 
L 61.08031 49.501679 
L 62.01031 49.252034 
L 62.94031 48.916187 
L 63.87031 48.74523 
" style="fill:none;stroke:#fc8d62;stroke-linecap:square;stroke-width:2;"/>
   </g>
   <g id="line2d_8">
    <path clip-path="url(#p5fe8585735)" d="M 10.86031 56.805572 
L 11.79031 58.653866 
L 12.72031 60.775176 
L 13.65031 60.249991 
L 14.58031 59.064037 
L 15.51031 58.972181 
L 16.44031 58.966155 
L 17.37031 57.968181 
L 18.30031 57.210073 
L 19.23031 57.121207 
L 20.16031 56.984228 
L 21.09031 56.313016 
L 22.02031 55.672339 
L 22.95031 55.684255 
L 23.88031 55.296782 
L 24.81031 55.081088 
L 25.74031 54.103809 
L 26.67031 53.891776 
L 27.60031 53.225189 
L 28.53031 53.627189 
L 29.46031 53.545046 
L 30.39031 53.693594 
L 31.32031 53.044605 
L 32.25031 53.169373 
L 33.18031 52.688116 
L 34.11031 52.266912 
L 35.04031 51.834111 
L 35.97031 51.388939 
L 36.90031 51.193504 
L 37.83031 51.225403 
L 38.76031 50.818743 
L 39.69031 50.654517 
L 40.62031 50.796699 
L 41.55031 50.196939 
L 42.48031 50.106306 
L 43.41031 49.858136 
L 44.34031 49.190121 
L 45.27031 49.188674 
L 46.20031 49.178624 
L 47.13031 49.134044 
L 48.06031 48.718059 
L 48.99031 48.384131 
L 49.92031 48.186674 
L 50.85031 48.13554 
L 51.78031 47.751748 
L 52.71031 47.335761 
L 53.64031 47.035211 
L 54.57031 46.914828 
L 55.50031 46.875577 
L 56.43031 46.208475 
L 57.36031 46.174338 
L 58.29031 46.015953 
L 59.22031 45.854343 
L 60.15031 45.650501 
L 61.08031 45.987205 
L 62.01031 45.946532 
L 62.94031 46.085629 
L 63.87031 46.35092 
" style="fill:none;stroke:#fc8d62;stroke-dasharray:1.5,1.5;stroke-dashoffset:0;stroke-opacity:0.7;stroke-width:1.5;"/>
   </g>
   <g id="patch_3">
    <path d="M 9 67.68 
L 9 17.28 
" style="fill:none;stroke:#a9a9a9;stroke-linecap:square;stroke-linejoin:miter;stroke-width:2;"/>
   </g>
   <g id="patch_4">
    <path d="M 64.8 67.68 
L 64.8 17.28 
" style="fill:none;"/>
   </g>
   <g id="patch_5">
    <path d="M 9 67.68 
L 64.8 67.68 
" style="fill:none;stroke:#a9a9a9;stroke-linecap:square;stroke-linejoin:miter;stroke-width:2;"/>
   </g>
   <g id="patch_6">
    <path d="M 9 17.28 
L 64.8 17.28 
" style="fill:none;"/>
   </g>
  </g>
  <g id="axes_2">
   <g id="patch_7">
    <path d="M 9 128.16 
L 64.8 128.16 
L 64.8 77.76 
L 9 77.76 
z
" style="fill:none;"/>
   </g>
   <g id="matplotlib.axis_3">
    <g id="xtick_4">
     <g id="line2d_9">
      <g>
       <use style="fill:#a9a9a9;stroke:#a9a9a9;stroke-width:2;" x="9" xlink:href="#ma8d573f1c2" y="128.16"/>
      </g>
     </g>
    </g>
    <g id="xtick_5">
     <g id="line2d_10">
      <g>
       <use style="fill:#a9a9a9;stroke:#a9a9a9;stroke-width:2;" x="36.9" xlink:href="#ma8d573f1c2" y="128.16"/>
      </g>
     </g>
    </g>
    <g id="xtick_6">
     <g id="line2d_11">
      <g>
       <use style="fill:#a9a9a9;stroke:#a9a9a9;stroke-width:2;" x="64.8" xlink:href="#ma8d573f1c2" y="128.16"/>
      </g>
     </g>
    </g>
   </g>
   <g id="matplotlib.axis_4">
    <g id="ytick_4">
     <g id="line2d_12">
      <g>
       <use style="fill:#a9a9a9;stroke:#a9a9a9;stroke-width:2;" x="9" xlink:href="#m276a1ed8a8" y="128.16"/>
      </g>
     </g>
    </g>
    <g id="ytick_5">
     <g id="line2d_13">
      <g>
       <use style="fill:#a9a9a9;stroke:#a9a9a9;stroke-width:2;" x="9" xlink:href="#m276a1ed8a8" y="102.96"/>
      </g>
     </g>
    </g>
    <g id="ytick_6">
     <g id="line2d_14">
      <g>
       <use style="fill:#a9a9a9;stroke:#a9a9a9;stroke-width:2;" x="9" xlink:href="#m276a1ed8a8" y="77.76"/>
      </g>
     </g>
    </g>
   </g>
   <g id="line2d_15">
    <path clip-path="url(#p6cc785f120)" d="M 10.86031 127.919256 
L 11.79031 127.440449 
L 12.72031 126.935229 
L 13.65031 126.63443 
L 14.58031 126.307251 
L 15.51031 125.87492 
L 16.44031 125.613348 
L 17.37031 125.308001 
L 18.30031 124.907695 
L 19.23031 124.451546 
L 20.16031 123.934494 
L 21.09031 123.676567 
L 22.02031 123.252894 
L 22.95031 122.889344 
L 23.88031 122.572964 
L 24.81031 122.388732 
L 25.74031 122.279215 
L 26.67031 121.909055 
L 27.60031 121.666822 
L 28.53031 121.189111 
L 29.46031 120.836965 
L 30.39031 120.604762 
L 31.32031 120.55322 
L 32.25031 120.189485 
L 33.18031 119.900167 
L 34.11031 119.689355 
L 35.04031 119.367506 
L 35.97031 119.112108 
L 36.90031 119.038722 
L 37.83031 118.805939 
L 38.76031 118.569606 
L 39.69031 118.448554 
L 40.62031 118.317905 
L 41.55031 117.913582 
L 42.48031 117.786985 
L 43.41031 117.432595 
L 44.34031 117.356325 
L 45.27031 117.477394 
L 46.20031 117.285091 
L 47.13031 117.22746 
L 48.06031 117.183978 
L 48.99031 117.18457 
L 49.92031 117.021064 
L 50.85031 116.948143 
L 51.78031 117.055716 
L 52.71031 116.904997 
L 53.64031 116.612018 
L 54.57031 116.858673 
L 55.50031 116.548123 
L 56.43031 116.51109 
L 57.36031 116.262848 
L 58.29031 116.35572 
L 59.22031 116.063917 
L 60.15031 115.915904 
L 61.08031 115.768752 
L 62.01031 115.681372 
L 62.94031 115.666903 
L 63.87031 115.682718 
" style="fill:none;stroke:#fc8d62;stroke-linecap:square;stroke-width:2;"/>
   </g>
   <g id="line2d_16">
    <path clip-path="url(#p6cc785f120)" d="M 10.86031 127.265086 
L 11.79031 126.456086 
L 12.72031 125.850797 
L 13.65031 124.598037 
L 14.58031 123.552612 
L 15.51031 123.275437 
L 16.44031 122.620416 
L 17.37031 121.244069 
L 18.30031 120.22435 
L 19.23031 119.775227 
L 20.16031 119.138131 
L 21.09031 117.917321 
L 22.02031 117.171348 
L 22.95031 116.289731 
L 23.88031 115.804708 
L 24.81031 115.187434 
L 25.74031 114.470388 
L 26.67031 114.203854 
L 27.60031 113.561906 
L 28.53031 113.146607 
L 29.46031 112.933038 
L 30.39031 112.375272 
L 31.32031 112.031101 
L 32.25031 111.688756 
L 33.18031 111.304359 
L 34.11031 111.15144 
L 35.04031 111.128374 
L 35.97031 110.844808 
L 36.90031 110.286973 
L 37.83031 109.982036 
L 38.76031 109.848151 
L 39.69031 109.687909 
L 40.62031 109.27411 
L 41.55031 108.940517 
L 42.48031 108.708466 
L 43.41031 108.417464 
L 44.34031 108.441365 
L 45.27031 108.28176 
L 46.20031 108.326278 
L 47.13031 108.098355 
L 48.06031 107.811425 
L 48.99031 107.576408 
L 49.92031 107.451155 
L 50.85031 107.234355 
L 51.78031 106.783289 
L 52.71031 106.604179 
L 53.64031 106.511531 
L 54.57031 106.41365 
L 55.50031 106.323139 
L 56.43031 106.225372 
L 57.36031 106.059921 
L 58.29031 106.093503 
L 59.22031 106.020141 
L 60.15031 105.793902 
L 61.08031 105.533341 
L 62.01031 105.424006 
L 62.94031 105.469104 
L 63.87031 105.220765 
" style="fill:none;stroke:#fc8d62;stroke-dasharray:1.5,1.5;stroke-dashoffset:0;stroke-opacity:0.7;stroke-width:1.5;"/>
   </g>
   <g id="patch_8">
    <path d="M 9 128.16 
L 9 77.76 
" style="fill:none;stroke:#a9a9a9;stroke-linecap:square;stroke-linejoin:miter;stroke-width:2;"/>
   </g>
   <g id="patch_9">
    <path d="M 64.8 128.16 
L 64.8 77.76 
" style="fill:none;"/>
   </g>
   <g id="patch_10">
    <path d="M 9 128.16 
L 64.8 128.16 
" style="fill:none;stroke:#a9a9a9;stroke-linecap:square;stroke-linejoin:miter;stroke-width:2;"/>
   </g>
   <g id="patch_11">
    <path d="M 9 77.76 
L 64.8 77.76 
" style="fill:none;"/>
   </g>
  </g>
 </g>
 <defs>
  <clipPath id="p5fe8585735">
   <rect height="50.4" width="55.8" x="9" y="17.28"/>
  </clipPath>
  <clipPath id="p6cc785f120">
   <rect height="50.4" width="55.8" x="9" y="77.76"/>
  </clipPath>
 </defs>
</svg>
