<?xml version="1.0" encoding="utf-8" standalone="no"?>
<!DOCTYPE svg PUBLIC "-//W3C//DTD SVG 1.1//EN"
  "http://www.w3.org/Graphics/SVG/1.1/DTD/svg11.dtd">
<!-- Created with matplotlib (https://matplotlib.org/) -->
<svg height="144pt" version="1.1" viewBox="0 0 72 144" width="72pt" xmlns="http://www.w3.org/2000/svg" xmlns:xlink="http://www.w3.org/1999/xlink">
 <metadata>
  <rdf:RDF xmlns:cc="http://creativecommons.org/ns#" xmlns:dc="http://purl.org/dc/elements/1.1/" xmlns:rdf="http://www.w3.org/1999/02/22-rdf-syntax-ns#">
   <cc:Work>
    <dc:type rdf:resource="http://purl.org/dc/dcmitype/StillImage"/>
    <dc:date>2021-10-14T19:21:52.473938</dc:date>
    <dc:format>image/svg+xml</dc:format>
    <dc:creator>
     <cc:Agent>
      <dc:title>Matplotlib v3.3.2, https://matplotlib.org/</dc:title>
     </cc:Agent>
    </dc:creator>
   </cc:Work>
  </rdf:RDF>
 </metadata>
 <defs>
  <style type="text/css">*{stroke-linecap:butt;stroke-linejoin:round;}</style>
 </defs>
 <g id="figure_1">
  <g id="patch_1">
   <path d="M 0 144 
L 72 144 
L 72 0 
L 0 0 
z
" style="fill:none;"/>
  </g>
  <g id="axes_1">
   <g id="patch_2">
    <path d="M 9 67.68 
L 64.8 67.68 
L 64.8 17.28 
L 9 17.28 
z
" style="fill:none;"/>
   </g>
   <g id="matplotlib.axis_1">
    <g id="xtick_1">
     <g id="line2d_1">
      <defs>
       <path d="M 0 0 
L 0 3.5 
" id="m05bc425194" style="stroke:#a9a9a9;stroke-width:2;"/>
      </defs>
      <g>
       <use style="fill:#a9a9a9;stroke:#a9a9a9;stroke-width:2;" x="9" xlink:href="#m05bc425194" y="67.68"/>
      </g>
     </g>
    </g>
    <g id="xtick_2">
     <g id="line2d_2">
      <g>
       <use style="fill:#a9a9a9;stroke:#a9a9a9;stroke-width:2;" x="36.9" xlink:href="#m05bc425194" y="67.68"/>
      </g>
     </g>
    </g>
    <g id="xtick_3">
     <g id="line2d_3">
      <g>
       <use style="fill:#a9a9a9;stroke:#a9a9a9;stroke-width:2;" x="64.8" xlink:href="#m05bc425194" y="67.68"/>
      </g>
     </g>
    </g>
   </g>
   <g id="matplotlib.axis_2">
    <g id="ytick_1">
     <g id="line2d_4">
      <defs>
       <path d="M 0 0 
L -3.5 0 
" id="mc71f621545" style="stroke:#a9a9a9;stroke-width:2;"/>
      </defs>
      <g>
       <use style="fill:#a9a9a9;stroke:#a9a9a9;stroke-width:2;" x="9" xlink:href="#mc71f621545" y="67.68"/>
      </g>
     </g>
    </g>
    <g id="ytick_2">
     <g id="line2d_5">
      <g>
       <use style="fill:#a9a9a9;stroke:#a9a9a9;stroke-width:2;" x="9" xlink:href="#mc71f621545" y="53.7876"/>
      </g>
     </g>
    </g>
    <g id="ytick_3">
     <g id="line2d_6">
      <g>
       <use style="fill:#a9a9a9;stroke:#a9a9a9;stroke-width:2;" x="9" xlink:href="#mc71f621545" y="39.8952"/>
      </g>
     </g>
    </g>
   </g>
   <g id="line2d_7">
    <path clip-path="url(#p32eaaf32eb)" d="M 10.860031 57.157467 
L 11.790031 55.728964 
L 12.720031 54.46454 
L 13.650031 52.511613 
L 14.580031 50.445897 
L 15.510031 49.846819 
L 16.440031 49.584082 
L 17.370031 48.678737 
L 18.300031 48.122119 
L 19.230031 47.646169 
L 20.160031 46.726757 
L 21.090031 45.693805 
L 22.020031 45.064099 
L 22.950031 44.282785 
L 23.880031 43.505954 
L 24.810031 42.24296 
L 25.740031 41.507808 
L 26.670031 40.855251 
L 27.600031 40.230431 
L 28.530031 38.829211 
L 29.460031 38.456271 
L 30.390031 37.860201 
L 31.320031 37.402284 
L 32.250031 37.158834 
L 33.180031 36.385902 
L 34.110031 35.980757 
L 35.040031 35.741644 
L 35.970031 35.04804 
L 36.900031 34.661428 
L 37.830031 34.064321 
L 38.760031 33.805257 
L 39.690031 33.483635 
L 40.620031 33.282395 
L 41.550031 32.451042 
L 42.480031 31.638105 
L 43.410031 30.945586 
L 44.340031 30.392201 
L 45.270031 30.159541 
L 46.200031 29.739452 
L 47.130031 28.787372 
L 48.060031 28.298503 
L 48.990031 27.960481 
L 49.920031 27.132181 
L 50.850031 26.200423 
L 51.780031 25.860126 
L 52.710031 25.091495 
L 53.640031 24.500991 
L 54.570031 23.806386 
L 55.500031 23.138377 
L 56.430031 22.500996 
L 57.360031 22.028424 
L 58.290031 21.178602 
L 59.220031 20.677068 
L 60.150031 20.214279 
L 61.080031 20.14589 
L 62.010031 19.305104 
L 62.940031 18.710277 
L 63.870031 17.97462 
" style="fill:none;stroke:#fc8d62;stroke-linecap:square;stroke-width:2;"/>
   </g>
   <g id="line2d_8">
    <path clip-path="url(#p32eaaf32eb)" d="M 10.860031 56.419284 
L 11.790031 54.615392 
L 12.720031 52.791096 
L 13.650031 52.748481 
L 14.580031 50.945013 
L 15.510031 49.553037 
L 16.440031 48.398724 
L 17.370031 47.214362 
L 18.300031 45.841654 
L 19.230031 45.061832 
L 20.160031 43.96382 
L 21.090031 42.99769 
L 22.020031 42.689334 
L 22.950031 41.842183 
L 23.880031 40.876503 
L 24.810031 39.968893 
L 25.740031 38.686427 
L 26.670031 37.888969 
L 27.600031 36.658295 
L 28.530031 35.930493 
L 29.460031 36.194555 
L 30.390031 35.914654 
L 31.320031 35.397283 
L 32.250031 34.61961 
L 33.180031 33.994089 
L 34.110031 33.513395 
L 35.040031 33.524428 
L 35.970031 32.013592 
L 36.900031 31.315394 
L 37.830031 30.660453 
L 38.760031 30.5084 
L 39.690031 30.055229 
L 40.620031 29.419514 
L 41.550031 28.817101 
L 42.480031 28.432105 
L 43.410031 28.123407 
L 44.340031 27.80835 
L 45.270031 27.450682 
L 46.200031 26.85396 
L 47.130031 26.456206 
L 48.060031 26.146482 
L 48.990031 25.170999 
L 49.920031 24.535478 
L 50.850031 24.18379 
L 51.780031 23.660061 
L 52.710031 23.472295 
L 53.640031 23.143891 
L 54.570031 22.541282 
L 55.500031 22.526917 
L 56.430031 21.936201 
L 57.360031 22.21098 
L 58.290031 21.638281 
L 59.220031 21.276804 
L 60.150031 20.941039 
L 61.080031 20.763972 
L 62.010031 21.265932 
L 62.940031 20.816076 
L 63.870031 20.628086 
" style="fill:none;stroke:#fc8d62;stroke-dasharray:1.5,1.5;stroke-dashoffset:0;stroke-opacity:0.7;stroke-width:1.5;"/>
   </g>
   <g id="patch_3">
    <path d="M 9 67.68 
L 9 17.28 
" style="fill:none;stroke:#a9a9a9;stroke-linecap:square;stroke-linejoin:miter;stroke-width:2;"/>
   </g>
   <g id="patch_4">
    <path d="M 64.8 67.68 
L 64.8 17.28 
" style="fill:none;"/>
   </g>
   <g id="patch_5">
    <path d="M 9 67.68 
L 64.8 67.68 
" style="fill:none;stroke:#a9a9a9;stroke-linecap:square;stroke-linejoin:miter;stroke-width:2;"/>
   </g>
   <g id="patch_6">
    <path d="M 9 17.28 
L 64.8 17.28 
" style="fill:none;"/>
   </g>
  </g>
  <g id="axes_2">
   <g id="patch_7">
    <path d="M 9 128.16 
L 64.8 128.16 
L 64.8 77.76 
L 9 77.76 
z
" style="fill:none;"/>
   </g>
   <g id="matplotlib.axis_3">
    <g id="xtick_4">
     <g id="line2d_9">
      <g>
       <use style="fill:#a9a9a9;stroke:#a9a9a9;stroke-width:2;" x="9" xlink:href="#m05bc425194" y="128.16"/>
      </g>
     </g>
    </g>
    <g id="xtick_5">
     <g id="line2d_10">
      <g>
       <use style="fill:#a9a9a9;stroke:#a9a9a9;stroke-width:2;" x="36.9" xlink:href="#m05bc425194" y="128.16"/>
      </g>
     </g>
    </g>
    <g id="xtick_6">
     <g id="line2d_11">
      <g>
       <use style="fill:#a9a9a9;stroke:#a9a9a9;stroke-width:2;" x="64.8" xlink:href="#m05bc425194" y="128.16"/>
      </g>
     </g>
    </g>
   </g>
   <g id="matplotlib.axis_4">
    <g id="ytick_4">
     <g id="line2d_12">
      <g>
       <use style="fill:#a9a9a9;stroke:#a9a9a9;stroke-width:2;" x="9" xlink:href="#mc71f621545" y="128.16"/>
      </g>
     </g>
    </g>
    <g id="ytick_5">
     <g id="line2d_13">
      <g>
       <use style="fill:#a9a9a9;stroke:#a9a9a9;stroke-width:2;" x="9" xlink:href="#mc71f621545" y="102.96"/>
      </g>
     </g>
    </g>
    <g id="ytick_6">
     <g id="line2d_14">
      <g>
       <use style="fill:#a9a9a9;stroke:#a9a9a9;stroke-width:2;" x="9" xlink:href="#mc71f621545" y="77.76"/>
      </g>
     </g>
    </g>
   </g>
   <g id="line2d_15">
    <path clip-path="url(#pb9079d9e80)" d="M 10.860031 103.078914 
L 11.790031 98.55731 
L 12.720031 96.087413 
L 13.650031 93.986225 
L 14.580031 92.298005 
L 15.510031 91.503563 
L 16.440031 90.985263 
L 17.370031 90.313444 
L 18.300031 90.026186 
L 19.230031 89.834917 
L 20.160031 89.308538 
L 21.090031 88.853767 
L 22.020031 88.673276 
L 22.950031 88.429574 
L 23.880031 88.13419 
L 24.810031 87.762955 
L 25.740031 87.581026 
L 26.670031 87.350471 
L 27.600031 87.226093 
L 28.530031 87.011339 
L 29.460031 86.902709 
L 30.390031 86.784965 
L 31.320031 86.669451 
L 32.250031 86.644662 
L 33.180031 86.531236 
L 34.110031 86.391954 
L 35.040031 86.345641 
L 35.970031 86.275526 
L 36.900031 86.22473 
L 37.830031 86.135012 
L 38.760031 86.064782 
L 39.690031 86.008395 
L 40.620031 85.976896 
L 41.550031 85.920494 
L 42.480031 85.890709 
L 43.410031 85.833537 
L 44.340031 85.804797 
L 45.270031 85.799282 
L 46.200031 85.74487 
L 47.130031 85.688991 
L 48.060031 85.635066 
L 48.990031 85.60848 
L 49.920031 85.545235 
L 50.850031 85.554207 
L 51.780031 85.503321 
L 52.710031 85.474855 
L 53.640031 85.406789 
L 54.570031 85.384822 
L 55.500031 85.360782 
L 56.430031 85.339595 
L 57.360031 85.306423 
L 58.290031 85.249513 
L 59.220031 85.25264 
L 60.150031 85.260161 
L 61.080031 85.217161 
L 62.010031 85.160143 
L 62.940031 85.101226 
L 63.870031 85.064705 
" style="fill:none;stroke:#fc8d62;stroke-linecap:square;stroke-width:2;"/>
   </g>
   <g id="line2d_16">
    <path clip-path="url(#pb9079d9e80)" d="M 10.860031 105.386672 
L 11.790031 102.410775 
L 12.720031 100.195071 
L 13.650031 98.779576 
L 14.580031 97.462923 
L 15.510031 96.735103 
L 16.440031 95.711358 
L 17.370031 95.053443 
L 18.300031 94.545101 
L 19.230031 94.355881 
L 20.160031 94.169746 
L 21.090031 93.860906 
L 22.020031 93.744991 
L 22.950031 93.634853 
L 23.880031 93.443595 
L 24.810031 93.09088 
L 25.740031 92.909132 
L 26.670031 92.796442 
L 27.600031 92.727084 
L 28.530031 92.7142 
L 29.460031 92.744115 
L 30.390031 92.671617 
L 31.320031 92.679648 
L 32.250031 92.566637 
L 33.180031 92.440074 
L 34.110031 92.447588 
L 35.040031 92.459288 
L 35.970031 92.370936 
L 36.900031 92.31826 
L 37.830031 92.263392 
L 38.760031 92.191964 
L 39.690031 92.125394 
L 40.620031 92.094005 
L 41.550031 92.089939 
L 42.480031 92.053523 
L 43.410031 91.99194 
L 44.340031 91.920567 
L 45.270031 91.913457 
L 46.200031 91.825363 
L 47.130031 91.800335 
L 48.060031 91.795243 
L 48.990031 91.81986 
L 49.920031 91.761866 
L 50.850031 91.743445 
L 51.780031 91.746717 
L 52.710031 91.694904 
L 53.640031 91.680069 
L 54.570031 91.613047 
L 55.500031 91.643513 
L 56.430031 91.645137 
L 57.360031 91.64414 
L 58.290031 91.652366 
L 59.220031 91.64102 
L 60.150031 91.613356 
L 61.080031 91.608519 
L 62.010031 91.622379 
L 62.940031 91.628104 
L 63.870031 91.600331 
" style="fill:none;stroke:#fc8d62;stroke-dasharray:1.5,1.5;stroke-dashoffset:0;stroke-opacity:0.7;stroke-width:1.5;"/>
   </g>
   <g id="patch_8">
    <path d="M 9 128.16 
L 9 77.76 
" style="fill:none;stroke:#a9a9a9;stroke-linecap:square;stroke-linejoin:miter;stroke-width:2;"/>
   </g>
   <g id="patch_9">
    <path d="M 64.8 128.16 
L 64.8 77.76 
" style="fill:none;"/>
   </g>
   <g id="patch_10">
    <path d="M 9 128.16 
L 64.8 128.16 
" style="fill:none;stroke:#a9a9a9;stroke-linecap:square;stroke-linejoin:miter;stroke-width:2;"/>
   </g>
   <g id="patch_11">
    <path d="M 9 77.76 
L 64.8 77.76 
" style="fill:none;"/>
   </g>
  </g>
 </g>
 <defs>
  <clipPath id="p32eaaf32eb">
   <rect height="50.4" width="55.8" x="9" y="17.28"/>
  </clipPath>
  <clipPath id="pb9079d9e80">
   <rect height="50.4" width="55.8" x="9" y="77.76"/>
  </clipPath>
 </defs>
</svg>
