<?xml version="1.0" encoding="utf-8" standalone="no"?>
<!DOCTYPE svg PUBLIC "-//W3C//DTD SVG 1.1//EN"
  "http://www.w3.org/Graphics/SVG/1.1/DTD/svg11.dtd">
<!-- Created with matplotlib (https://matplotlib.org/) -->
<svg height="144pt" version="1.1" viewBox="0 0 72 144" width="72pt" xmlns="http://www.w3.org/2000/svg" xmlns:xlink="http://www.w3.org/1999/xlink">
 <metadata>
  <rdf:RDF xmlns:cc="http://creativecommons.org/ns#" xmlns:dc="http://purl.org/dc/elements/1.1/" xmlns:rdf="http://www.w3.org/1999/02/22-rdf-syntax-ns#">
   <cc:Work>
    <dc:type rdf:resource="http://purl.org/dc/dcmitype/StillImage"/>
    <dc:date>2021-10-13T14:43:32.188344</dc:date>
    <dc:format>image/svg+xml</dc:format>
    <dc:creator>
     <cc:Agent>
      <dc:title>Matplotlib v3.3.2, https://matplotlib.org/</dc:title>
     </cc:Agent>
    </dc:creator>
   </cc:Work>
  </rdf:RDF>
 </metadata>
 <defs>
  <style type="text/css">*{stroke-linecap:butt;stroke-linejoin:round;}</style>
 </defs>
 <g id="figure_1">
  <g id="patch_1">
   <path d="M 0 144 
L 72 144 
L 72 0 
L 0 0 
z
" style="fill:none;"/>
  </g>
  <g id="axes_1">
   <g id="patch_2">
    <path d="M 9 67.68 
L 64.8 67.68 
L 64.8 17.28 
L 9 17.28 
z
" style="fill:none;"/>
   </g>
   <g id="matplotlib.axis_1">
    <g id="xtick_1">
     <g id="line2d_1">
      <defs>
       <path d="M 0 0 
L 0 3.5 
" id="meb216bf142" style="stroke:#a9a9a9;stroke-width:2;"/>
      </defs>
      <g>
       <use style="fill:#a9a9a9;stroke:#a9a9a9;stroke-width:2;" x="9" xlink:href="#meb216bf142" y="67.68"/>
      </g>
     </g>
    </g>
    <g id="xtick_2">
     <g id="line2d_2">
      <g>
       <use style="fill:#a9a9a9;stroke:#a9a9a9;stroke-width:2;" x="36.9" xlink:href="#meb216bf142" y="67.68"/>
      </g>
     </g>
    </g>
    <g id="xtick_3">
     <g id="line2d_3">
      <g>
       <use style="fill:#a9a9a9;stroke:#a9a9a9;stroke-width:2;" x="64.8" xlink:href="#meb216bf142" y="67.68"/>
      </g>
     </g>
    </g>
   </g>
   <g id="matplotlib.axis_2">
    <g id="ytick_1">
     <g id="line2d_4">
      <defs>
       <path d="M 0 0 
L -3.5 0 
" id="m8998fd8e8a" style="stroke:#a9a9a9;stroke-width:2;"/>
      </defs>
      <g>
       <use style="fill:#a9a9a9;stroke:#a9a9a9;stroke-width:2;" x="9" xlink:href="#m8998fd8e8a" y="67.68"/>
      </g>
     </g>
    </g>
    <g id="ytick_2">
     <g id="line2d_5">
      <g>
       <use style="fill:#a9a9a9;stroke:#a9a9a9;stroke-width:2;" x="9" xlink:href="#m8998fd8e8a" y="65.302937"/>
      </g>
     </g>
    </g>
    <g id="ytick_3">
     <g id="line2d_6">
      <g>
       <use style="fill:#a9a9a9;stroke:#a9a9a9;stroke-width:2;" x="9" xlink:href="#m8998fd8e8a" y="62.925874"/>
      </g>
     </g>
    </g>
   </g>
   <g id="line2d_7">
    <path clip-path="url(#p6c98cd31cd)" d="M 10.86031 60.044823 
L 11.79031 58.461073 
L 12.72031 57.375115 
L 13.65031 56.197527 
L 14.58031 55.431373 
L 15.51031 54.518862 
L 16.44031 53.954634 
L 17.37031 52.546146 
L 18.30031 51.607065 
L 19.23031 50.390761 
L 20.16031 49.520929 
L 21.09031 48.979411 
L 22.02031 47.866627 
L 22.95031 46.175801 
L 23.88031 44.79678 
L 24.81031 43.390238 
L 25.74031 42.101328 
L 26.67031 40.824964 
L 27.60031 39.433647 
L 28.53031 37.788246 
L 29.46031 35.502967 
L 30.39031 33.961897 
L 31.32031 32.017597 
L 32.25031 31.449217 
L 33.18031 32.545598 
L 34.11031 32.284608 
L 35.04031 32.42534 
L 35.97031 32.808026 
L 36.90031 33.043188 
L 37.83031 32.976335 
L 38.76031 32.319649 
L 39.69031 32.785132 
L 40.62031 32.231825 
L 41.55031 31.675599 
L 42.48031 30.949074 
L 43.41031 30.327945 
L 44.34031 29.091515 
L 45.27031 28.230084 
L 46.20031 26.920175 
L 47.13031 26.188618 
L 48.06031 24.751536 
L 48.99031 22.901403 
L 49.92031 21.926957 
L 50.85031 20.831668 
L 51.78031 19.806775 
L 52.71031 19.036636 
L 53.64031 19.154232 
L 54.57031 18.424342 
L 55.50031 17.637503 
L 56.43031 17.412312 
L 57.36031 17.925751 
L 58.29031 17.398853 
L 59.22031 17.972869 
L 60.15031 18.492061 
L 61.08031 18.498676 
L 62.01031 19.046627 
L 62.94031 19.309408 
L 63.87031 19.054271 
" style="fill:none;stroke:#fc8d62;stroke-linecap:square;stroke-width:2;"/>
   </g>
   <g id="line2d_8">
    <path clip-path="url(#p6c98cd31cd)" d="M 10.86031 58.493956 
L 11.79031 57.477702 
L 12.72031 56.446475 
L 13.65031 55.262023 
L 14.58031 54.594158 
L 15.51031 53.374827 
L 16.44031 52.040145 
L 17.37031 51.094066 
L 18.30031 49.925792 
L 19.23031 49.327492 
L 20.16031 48.932466 
L 21.09031 47.774664 
L 22.02031 47.39326 
L 22.95031 46.223245 
L 23.88031 44.355838 
L 24.81031 42.816145 
L 25.74031 41.250285 
L 26.67031 39.536532 
L 27.60031 37.790647 
L 28.53031 36.31301 
L 29.46031 34.674977 
L 30.39031 32.851361 
L 31.32031 32.188932 
L 32.25031 31.67896 
L 33.18031 31.721348 
L 34.11031 31.882981 
L 35.04031 30.198053 
L 35.97031 29.71422 
L 36.90031 29.941959 
L 37.83031 28.791269 
L 38.76031 29.135646 
L 39.69031 29.055456 
L 40.62031 29.091035 
L 41.55031 28.61742 
L 42.48031 28.385882 
L 43.41031 26.848988 
L 44.34031 25.954491 
L 45.27031 25.228948 
L 46.20031 24.073997 
L 47.13031 22.640878 
L 48.06031 21.836984 
L 48.99031 20.663876 
L 49.92031 18.974639 
L 50.85031 19.195461 
L 51.78031 17.957544 
L 52.71031 16.194206 
L 53.64031 14.941211 
L 54.57031 14.005924 
L 55.50031 13.639221 
L 56.43031 13.471038 
L 57.36031 13.594524 
L 58.29031 12.960457 
L 59.22031 13.497318 
L 60.15031 12.810375 
L 61.08031 12.732831 
L 62.01031 12.057735 
L 62.94031 11.942902 
L 63.87031 11.213568 
" style="fill:none;stroke:#fc8d62;stroke-dasharray:1.5,1.5;stroke-dashoffset:0;stroke-opacity:0.7;stroke-width:1.5;"/>
   </g>
   <g id="patch_3">
    <path d="M 9 67.68 
L 9 17.28 
" style="fill:none;stroke:#a9a9a9;stroke-linecap:square;stroke-linejoin:miter;stroke-width:2;"/>
   </g>
   <g id="patch_4">
    <path d="M 64.8 67.68 
L 64.8 17.28 
" style="fill:none;"/>
   </g>
   <g id="patch_5">
    <path d="M 9 67.68 
L 64.8 67.68 
" style="fill:none;stroke:#a9a9a9;stroke-linecap:square;stroke-linejoin:miter;stroke-width:2;"/>
   </g>
   <g id="patch_6">
    <path d="M 9 17.28 
L 64.8 17.28 
" style="fill:none;"/>
   </g>
  </g>
  <g id="axes_2">
   <g id="patch_7">
    <path d="M 9 128.16 
L 64.8 128.16 
L 64.8 77.76 
L 9 77.76 
z
" style="fill:none;"/>
   </g>
   <g id="matplotlib.axis_3">
    <g id="xtick_4">
     <g id="line2d_9">
      <g>
       <use style="fill:#a9a9a9;stroke:#a9a9a9;stroke-width:2;" x="9" xlink:href="#meb216bf142" y="128.16"/>
      </g>
     </g>
    </g>
    <g id="xtick_5">
     <g id="line2d_10">
      <g>
       <use style="fill:#a9a9a9;stroke:#a9a9a9;stroke-width:2;" x="36.9" xlink:href="#meb216bf142" y="128.16"/>
      </g>
     </g>
    </g>
    <g id="xtick_6">
     <g id="line2d_11">
      <g>
       <use style="fill:#a9a9a9;stroke:#a9a9a9;stroke-width:2;" x="64.8" xlink:href="#meb216bf142" y="128.16"/>
      </g>
     </g>
    </g>
   </g>
   <g id="matplotlib.axis_4">
    <g id="ytick_4">
     <g id="line2d_12">
      <g>
       <use style="fill:#a9a9a9;stroke:#a9a9a9;stroke-width:2;" x="9" xlink:href="#m8998fd8e8a" y="128.16"/>
      </g>
     </g>
    </g>
    <g id="ytick_5">
     <g id="line2d_13">
      <g>
       <use style="fill:#a9a9a9;stroke:#a9a9a9;stroke-width:2;" x="9" xlink:href="#m8998fd8e8a" y="102.96"/>
      </g>
     </g>
    </g>
    <g id="ytick_6">
     <g id="line2d_14">
      <g>
       <use style="fill:#a9a9a9;stroke:#a9a9a9;stroke-width:2;" x="9" xlink:href="#m8998fd8e8a" y="77.76"/>
      </g>
     </g>
    </g>
   </g>
   <g id="line2d_15">
    <path clip-path="url(#p69236e6bb3)" d="M 10.86031 110.95919 
L 11.79031 110.854787 
L 12.72031 111.026318 
L 13.65031 110.904199 
L 14.58031 110.938661 
L 15.51031 110.808855 
L 16.44031 110.853666 
L 17.37031 110.821297 
L 18.30031 110.808257 
L 19.23031 110.860425 
L 20.16031 110.797597 
L 21.09031 110.767086 
L 22.02031 110.783906 
L 22.95031 110.750313 
L 23.88031 110.728454 
L 24.81031 110.683596 
L 25.74031 110.725891 
L 26.67031 110.694801 
L 27.60031 110.687512 
L 28.53031 110.67161 
L 29.46031 110.669678 
L 30.39031 110.665047 
L 31.32031 110.640305 
L 32.25031 110.664301 
L 33.18031 110.672692 
L 34.11031 110.66748 
L 35.04031 110.652883 
L 35.97031 110.657623 
L 36.90031 110.651804 
L 37.83031 110.662332 
L 38.76031 110.650263 
L 39.69031 110.632141 
L 40.62031 110.639836 
L 41.55031 110.648709 
L 42.48031 110.649032 
L 43.41031 110.650978 
L 44.34031 110.661259 
L 45.27031 110.68123 
L 46.20031 110.684049 
L 47.13031 110.692459 
L 48.06031 110.682862 
L 48.99031 110.674196 
L 49.92031 110.673746 
L 50.85031 110.677163 
L 51.78031 110.680399 
L 52.71031 110.673263 
L 53.64031 110.683348 
L 54.57031 110.695487 
L 55.50031 110.688343 
L 56.43031 110.669802 
L 57.36031 110.669173 
L 58.29031 110.665948 
L 59.22031 110.660772 
L 60.15031 110.646243 
L 61.08031 110.6452 
L 62.01031 110.654558 
L 62.94031 110.650262 
L 63.87031 110.643637 
" style="fill:none;stroke:#fc8d62;stroke-linecap:square;stroke-width:2;"/>
   </g>
   <g id="line2d_16">
    <path clip-path="url(#p69236e6bb3)" d="M 10.86031 93.880441 
L 11.79031 93.781928 
L 12.72031 93.622381 
L 13.65031 93.480867 
L 14.58031 93.429605 
L 15.51031 93.372683 
L 16.44031 93.283217 
L 17.37031 93.258982 
L 18.30031 93.278752 
L 19.23031 93.294738 
L 20.16031 93.243741 
L 21.09031 93.262799 
L 22.02031 93.263019 
L 22.95031 93.284007 
L 23.88031 93.284189 
L 24.81031 93.306267 
L 25.74031 93.3148 
L 26.67031 93.31143 
L 27.60031 93.292623 
L 28.53031 93.302687 
L 29.46031 93.279083 
L 30.39031 93.26881 
L 31.32031 93.245456 
L 32.25031 93.23367 
L 33.18031 93.233742 
L 34.11031 93.235248 
L 35.04031 93.220131 
L 35.97031 93.210313 
L 36.90031 93.207564 
L 37.83031 93.210071 
L 38.76031 93.1985 
L 39.69031 93.198275 
L 40.62031 93.199773 
L 41.55031 93.199599 
L 42.48031 93.206764 
L 43.41031 93.210671 
L 44.34031 93.20571 
L 45.27031 93.207682 
L 46.20031 93.210161 
L 47.13031 93.212919 
L 48.06031 93.212908 
L 48.99031 93.215476 
L 49.92031 93.205422 
L 50.85031 93.21067 
L 51.78031 93.216722 
L 52.71031 93.217641 
L 53.64031 93.213478 
L 54.57031 93.213906 
L 55.50031 93.215689 
L 56.43031 93.207963 
L 57.36031 93.213182 
L 58.29031 93.211957 
L 59.22031 93.204601 
L 60.15031 93.197516 
L 61.08031 93.198844 
L 62.01031 93.193902 
L 62.94031 93.19254 
L 63.87031 93.187172 
" style="fill:none;stroke:#fc8d62;stroke-dasharray:1.5,1.5;stroke-dashoffset:0;stroke-opacity:0.7;stroke-width:1.5;"/>
   </g>
   <g id="patch_8">
    <path d="M 9 128.16 
L 9 77.76 
" style="fill:none;stroke:#a9a9a9;stroke-linecap:square;stroke-linejoin:miter;stroke-width:2;"/>
   </g>
   <g id="patch_9">
    <path d="M 64.8 128.16 
L 64.8 77.76 
" style="fill:none;"/>
   </g>
   <g id="patch_10">
    <path d="M 9 128.16 
L 64.8 128.16 
" style="fill:none;stroke:#a9a9a9;stroke-linecap:square;stroke-linejoin:miter;stroke-width:2;"/>
   </g>
   <g id="patch_11">
    <path d="M 9 77.76 
L 64.8 77.76 
" style="fill:none;"/>
   </g>
  </g>
 </g>
 <defs>
  <clipPath id="p6c98cd31cd">
   <rect height="50.4" width="55.8" x="9" y="17.28"/>
  </clipPath>
  <clipPath id="p69236e6bb3">
   <rect height="50.4" width="55.8" x="9" y="77.76"/>
  </clipPath>
 </defs>
</svg>
