<?xml version="1.0" encoding="utf-8" standalone="no"?>
<!DOCTYPE svg PUBLIC "-//W3C//DTD SVG 1.1//EN"
  "http://www.w3.org/Graphics/SVG/1.1/DTD/svg11.dtd">
<!-- Created with matplotlib (https://matplotlib.org/) -->
<svg height="144pt" version="1.1" viewBox="0 0 72 144" width="72pt" xmlns="http://www.w3.org/2000/svg" xmlns:xlink="http://www.w3.org/1999/xlink">
 <metadata>
  <rdf:RDF xmlns:cc="http://creativecommons.org/ns#" xmlns:dc="http://purl.org/dc/elements/1.1/" xmlns:rdf="http://www.w3.org/1999/02/22-rdf-syntax-ns#">
   <cc:Work>
    <dc:type rdf:resource="http://purl.org/dc/dcmitype/StillImage"/>
    <dc:date>2021-10-13T15:43:56.278948</dc:date>
    <dc:format>image/svg+xml</dc:format>
    <dc:creator>
     <cc:Agent>
      <dc:title>Matplotlib v3.3.2, https://matplotlib.org/</dc:title>
     </cc:Agent>
    </dc:creator>
   </cc:Work>
  </rdf:RDF>
 </metadata>
 <defs>
  <style type="text/css">*{stroke-linecap:butt;stroke-linejoin:round;}</style>
 </defs>
 <g id="figure_1">
  <g id="patch_1">
   <path d="M 0 144 
L 72 144 
L 72 0 
L 0 0 
z
" style="fill:none;"/>
  </g>
  <g id="axes_1">
   <g id="patch_2">
    <path d="M 9 67.68 
L 64.8 67.68 
L 64.8 17.28 
L 9 17.28 
z
" style="fill:none;"/>
   </g>
   <g id="matplotlib.axis_1">
    <g id="xtick_1">
     <g id="line2d_1">
      <defs>
       <path d="M 0 0 
L 0 3.5 
" id="m8933b5409b" style="stroke:#a9a9a9;stroke-width:2;"/>
      </defs>
      <g>
       <use style="fill:#a9a9a9;stroke:#a9a9a9;stroke-width:2;" x="9" xlink:href="#m8933b5409b" y="67.68"/>
      </g>
     </g>
    </g>
    <g id="xtick_2">
     <g id="line2d_2">
      <g>
       <use style="fill:#a9a9a9;stroke:#a9a9a9;stroke-width:2;" x="36.9" xlink:href="#m8933b5409b" y="67.68"/>
      </g>
     </g>
    </g>
    <g id="xtick_3">
     <g id="line2d_3">
      <g>
       <use style="fill:#a9a9a9;stroke:#a9a9a9;stroke-width:2;" x="64.8" xlink:href="#m8933b5409b" y="67.68"/>
      </g>
     </g>
    </g>
   </g>
   <g id="matplotlib.axis_2">
    <g id="ytick_1">
     <g id="line2d_4">
      <defs>
       <path d="M 0 0 
L -3.5 0 
" id="me78ddd6305" style="stroke:#a9a9a9;stroke-width:2;"/>
      </defs>
      <g>
       <use style="fill:#a9a9a9;stroke:#a9a9a9;stroke-width:2;" x="9" xlink:href="#me78ddd6305" y="67.68"/>
      </g>
     </g>
    </g>
    <g id="ytick_2">
     <g id="line2d_5">
      <g>
       <use style="fill:#a9a9a9;stroke:#a9a9a9;stroke-width:2;" x="9" xlink:href="#me78ddd6305" y="50.021224"/>
      </g>
     </g>
    </g>
    <g id="ytick_3">
     <g id="line2d_6">
      <g>
       <use style="fill:#a9a9a9;stroke:#a9a9a9;stroke-width:2;" x="9" xlink:href="#me78ddd6305" y="32.362448"/>
      </g>
     </g>
    </g>
   </g>
   <g id="line2d_7">
    <path clip-path="url(#p360f31730d)" d="M 10.86031 57.147004 
L 11.79031 55.532565 
L 12.72031 54.660468 
L 13.65031 53.417624 
L 14.58031 52.440972 
L 15.51031 51.50812 
L 16.44031 50.488685 
L 17.37031 49.007251 
L 18.30031 47.817361 
L 19.23031 46.89852 
L 20.16031 46.7478 
L 21.09031 44.945567 
L 22.02031 43.805965 
L 22.95031 42.91457 
L 23.88031 42.076123 
L 24.81031 41.653048 
L 25.74031 41.077923 
L 26.67031 40.311749 
L 27.60031 39.484039 
L 28.53031 38.910402 
L 29.46031 38.202595 
L 30.39031 37.065475 
L 31.32031 35.818413 
L 32.25031 35.840858 
L 33.18031 34.913917 
L 34.11031 34.199765 
L 35.04031 33.180421 
L 35.97031 32.153959 
L 36.90031 31.633304 
L 37.83031 30.896647 
L 38.76031 30.707358 
L 39.69031 30.61835 
L 40.62031 29.871663 
L 41.55031 29.711934 
L 42.48031 29.366314 
L 43.41031 29.098463 
L 44.34031 29.056603 
L 45.27031 29.119016 
L 46.20031 28.885791 
L 47.13031 27.757688 
L 48.06031 26.969374 
L 48.99031 26.107707 
L 49.92031 25.557456 
L 50.85031 24.74024 
L 51.78031 24.589514 
L 52.71031 23.999877 
L 53.64031 23.782869 
L 54.57031 23.458236 
L 55.50031 23.076301 
L 56.43031 22.337597 
L 57.36031 21.373963 
L 58.29031 21.415361 
L 59.22031 21.161862 
L 60.15031 20.652308 
L 61.08031 20.357015 
L 62.01031 19.695027 
L 62.94031 18.444178 
L 63.87031 18.162939 
" style="fill:none;stroke:#fc8d62;stroke-linecap:square;stroke-width:2;"/>
   </g>
   <g id="line2d_8">
    <path clip-path="url(#p360f31730d)" d="M 10.86031 61.507303 
L 11.79031 59.492141 
L 12.72031 58.221828 
L 13.65031 56.424867 
L 14.58031 55.667343 
L 15.51031 55.354735 
L 16.44031 55.238625 
L 17.37031 54.231689 
L 18.30031 53.364937 
L 19.23031 52.746437 
L 20.16031 52.427724 
L 21.09031 51.76647 
L 22.02031 51.445264 
L 22.95031 50.877864 
L 23.88031 50.168786 
L 24.81031 49.674999 
L 25.74031 48.956757 
L 26.67031 48.195003 
L 27.60031 47.767851 
L 28.53031 47.525191 
L 29.46031 46.516318 
L 30.39031 46.381673 
L 31.32031 45.925652 
L 32.25031 45.169678 
L 33.18031 45.090642 
L 34.11031 44.547933 
L 35.04031 44.760156 
L 35.97031 44.412761 
L 36.90031 44.070454 
L 37.83031 43.847245 
L 38.76031 43.883051 
L 39.69031 43.882048 
L 40.62031 43.524945 
L 41.55031 43.054072 
L 42.48031 42.735241 
L 43.41031 42.350018 
L 44.34031 41.875194 
L 45.27031 41.288684 
L 46.20031 40.731106 
L 47.13031 39.88967 
L 48.06031 39.390841 
L 48.99031 39.415919 
L 49.92031 39.091604 
L 50.85031 38.703367 
L 51.78031 38.281784 
L 52.71031 37.717213 
L 53.64031 37.283247 
L 54.57031 36.781238 
L 55.50031 36.5453 
L 56.43031 36.135256 
L 57.36031 36.361612 
L 58.29031 36.062306 
L 59.22031 36.262993 
L 60.15031 35.891765 
L 61.08031 35.855808 
L 62.01031 34.998218 
L 62.94031 34.611269 
L 63.87031 34.312266 
" style="fill:none;stroke:#fc8d62;stroke-dasharray:1.5,1.5;stroke-dashoffset:0;stroke-opacity:0.7;stroke-width:1.5;"/>
   </g>
   <g id="patch_3">
    <path d="M 9 67.68 
L 9 17.28 
" style="fill:none;stroke:#a9a9a9;stroke-linecap:square;stroke-linejoin:miter;stroke-width:2;"/>
   </g>
   <g id="patch_4">
    <path d="M 64.8 67.68 
L 64.8 17.28 
" style="fill:none;"/>
   </g>
   <g id="patch_5">
    <path d="M 9 67.68 
L 64.8 67.68 
" style="fill:none;stroke:#a9a9a9;stroke-linecap:square;stroke-linejoin:miter;stroke-width:2;"/>
   </g>
   <g id="patch_6">
    <path d="M 9 17.28 
L 64.8 17.28 
" style="fill:none;"/>
   </g>
  </g>
  <g id="axes_2">
   <g id="patch_7">
    <path d="M 9 128.16 
L 64.8 128.16 
L 64.8 77.76 
L 9 77.76 
z
" style="fill:none;"/>
   </g>
   <g id="matplotlib.axis_3">
    <g id="xtick_4">
     <g id="line2d_9">
      <g>
       <use style="fill:#a9a9a9;stroke:#a9a9a9;stroke-width:2;" x="9" xlink:href="#m8933b5409b" y="128.16"/>
      </g>
     </g>
    </g>
    <g id="xtick_5">
     <g id="line2d_10">
      <g>
       <use style="fill:#a9a9a9;stroke:#a9a9a9;stroke-width:2;" x="36.9" xlink:href="#m8933b5409b" y="128.16"/>
      </g>
     </g>
    </g>
    <g id="xtick_6">
     <g id="line2d_11">
      <g>
       <use style="fill:#a9a9a9;stroke:#a9a9a9;stroke-width:2;" x="64.8" xlink:href="#m8933b5409b" y="128.16"/>
      </g>
     </g>
    </g>
   </g>
   <g id="matplotlib.axis_4">
    <g id="ytick_4">
     <g id="line2d_12">
      <g>
       <use style="fill:#a9a9a9;stroke:#a9a9a9;stroke-width:2;" x="9" xlink:href="#me78ddd6305" y="128.16"/>
      </g>
     </g>
    </g>
    <g id="ytick_5">
     <g id="line2d_13">
      <g>
       <use style="fill:#a9a9a9;stroke:#a9a9a9;stroke-width:2;" x="9" xlink:href="#me78ddd6305" y="102.96"/>
      </g>
     </g>
    </g>
    <g id="ytick_6">
     <g id="line2d_14">
      <g>
       <use style="fill:#a9a9a9;stroke:#a9a9a9;stroke-width:2;" x="9" xlink:href="#me78ddd6305" y="77.76"/>
      </g>
     </g>
    </g>
   </g>
   <g id="line2d_15">
    <path clip-path="url(#p8b0c7d49ca)" d="M 10.86031 109.129093 
L 11.79031 104.193713 
L 12.72031 101.957296 
L 13.65031 99.793997 
L 14.58031 98.318773 
L 15.51031 96.39245 
L 16.44031 95.12371 
L 17.37031 93.88497 
L 18.30031 93.019112 
L 19.23031 92.353226 
L 20.16031 92.256391 
L 21.09031 91.387763 
L 22.02031 90.842302 
L 22.95031 90.4421 
L 23.88031 90.043673 
L 24.81031 89.815435 
L 25.74031 89.514263 
L 26.67031 89.244535 
L 27.60031 88.990837 
L 28.53031 88.73292 
L 29.46031 88.509103 
L 30.39031 88.224121 
L 31.32031 87.935376 
L 32.25031 87.71799 
L 33.18031 87.520617 
L 34.11031 87.284662 
L 35.04031 87.079441 
L 35.97031 86.91132 
L 36.90031 86.704998 
L 37.83031 86.664554 
L 38.76031 86.577147 
L 39.69031 86.499099 
L 40.62031 86.335464 
L 41.55031 86.268822 
L 42.48031 86.229301 
L 43.41031 86.115112 
L 44.34031 86.10139 
L 45.27031 86.074905 
L 46.20031 86.016284 
L 47.13031 85.967376 
L 48.06031 85.905655 
L 48.99031 85.838901 
L 49.92031 85.773905 
L 50.85031 85.68761 
L 51.78031 85.651911 
L 52.71031 85.566131 
L 53.64031 85.527593 
L 54.57031 85.440579 
L 55.50031 85.369937 
L 56.43031 85.334451 
L 57.36031 85.302591 
L 58.29031 85.268574 
L 59.22031 85.234426 
L 60.15031 85.20523 
L 61.08031 85.178064 
L 62.01031 85.147467 
L 62.94031 85.088021 
L 63.87031 85.072348 
" style="fill:none;stroke:#fc8d62;stroke-linecap:square;stroke-width:2;"/>
   </g>
   <g id="line2d_16">
    <path clip-path="url(#p8b0c7d49ca)" d="M 10.86031 119.746772 
L 11.79031 117.285203 
L 12.72031 114.796415 
L 13.65031 111.855676 
L 14.58031 109.925309 
L 15.51031 108.294189 
L 16.44031 107.203895 
L 17.37031 106.01969 
L 18.30031 105.446022 
L 19.23031 104.751786 
L 20.16031 104.460746 
L 21.09031 103.938828 
L 22.02031 103.3468 
L 22.95031 102.975228 
L 23.88031 102.723771 
L 24.81031 102.283151 
L 25.74031 102.212127 
L 26.67031 101.790505 
L 27.60031 101.406552 
L 28.53031 101.299981 
L 29.46031 100.826767 
L 30.39031 100.696933 
L 31.32031 100.645622 
L 32.25031 100.572274 
L 33.18031 100.409415 
L 34.11031 100.477279 
L 35.04031 100.423968 
L 35.97031 100.256453 
L 36.90031 100.057538 
L 37.83031 100.036468 
L 38.76031 99.813907 
L 39.69031 99.757381 
L 40.62031 99.550429 
L 41.55031 99.352796 
L 42.48031 99.172919 
L 43.41031 98.970131 
L 44.34031 99.007483 
L 45.27031 98.873276 
L 46.20031 98.700333 
L 47.13031 98.454895 
L 48.06031 98.388863 
L 48.99031 98.357642 
L 49.92031 98.310586 
L 50.85031 98.196728 
L 51.78031 98.219545 
L 52.71031 98.152582 
L 53.64031 97.98649 
L 54.57031 97.880199 
L 55.50031 97.843873 
L 56.43031 97.728218 
L 57.36031 97.587862 
L 58.29031 97.642442 
L 59.22031 97.486955 
L 60.15031 97.412807 
L 61.08031 97.391451 
L 62.01031 97.361322 
L 62.94031 97.317168 
L 63.87031 97.330721 
" style="fill:none;stroke:#fc8d62;stroke-dasharray:1.5,1.5;stroke-dashoffset:0;stroke-opacity:0.7;stroke-width:1.5;"/>
   </g>
   <g id="patch_8">
    <path d="M 9 128.16 
L 9 77.76 
" style="fill:none;stroke:#a9a9a9;stroke-linecap:square;stroke-linejoin:miter;stroke-width:2;"/>
   </g>
   <g id="patch_9">
    <path d="M 64.8 128.16 
L 64.8 77.76 
" style="fill:none;"/>
   </g>
   <g id="patch_10">
    <path d="M 9 128.16 
L 64.8 128.16 
" style="fill:none;stroke:#a9a9a9;stroke-linecap:square;stroke-linejoin:miter;stroke-width:2;"/>
   </g>
   <g id="patch_11">
    <path d="M 9 77.76 
L 64.8 77.76 
" style="fill:none;"/>
   </g>
  </g>
 </g>
 <defs>
  <clipPath id="p360f31730d">
   <rect height="50.4" width="55.8" x="9" y="17.28"/>
  </clipPath>
  <clipPath id="p8b0c7d49ca">
   <rect height="50.4" width="55.8" x="9" y="77.76"/>
  </clipPath>
 </defs>
</svg>
