<?xml version="1.0" encoding="utf-8" standalone="no"?>
<!DOCTYPE svg PUBLIC "-//W3C//DTD SVG 1.1//EN"
  "http://www.w3.org/Graphics/SVG/1.1/DTD/svg11.dtd">
<!-- Created with matplotlib (https://matplotlib.org/) -->
<svg height="396pt" version="1.1" viewBox="0 0 216 396" width="216pt" xmlns="http://www.w3.org/2000/svg" xmlns:xlink="http://www.w3.org/1999/xlink">
 <metadata>
  <rdf:RDF xmlns:cc="http://creativecommons.org/ns#" xmlns:dc="http://purl.org/dc/elements/1.1/" xmlns:rdf="http://www.w3.org/1999/02/22-rdf-syntax-ns#">
   <cc:Work>
    <dc:type rdf:resource="http://purl.org/dc/dcmitype/StillImage"/>
    <dc:date>2021-10-05T12:42:45.542018</dc:date>
    <dc:format>image/svg+xml</dc:format>
    <dc:creator>
     <cc:Agent>
      <dc:title>Matplotlib v3.3.2, https://matplotlib.org/</dc:title>
     </cc:Agent>
    </dc:creator>
   </cc:Work>
  </rdf:RDF>
 </metadata>
 <defs>
  <style type="text/css">*{stroke-linecap:butt;stroke-linejoin:round;}</style>
 </defs>
 <g id="figure_1">
  <g id="patch_1">
   <path d="M 0 396 
L 216 396 
L 216 0 
L 0 0 
z
" style="fill:none;"/>
  </g>
  <g id="axes_1">
   <g id="patch_2">
    <path d="M 27 113.806957 
L 194.4 113.806957 
L 194.4 47.52 
L 27 47.52 
z
" style="fill:none;"/>
   </g>
   <g id="matplotlib.axis_1">
    <g id="xtick_1">
     <g id="line2d_1">
      <defs>
       <path d="M 0 0 
L 0 3.5 
" id="m3f092983ab" style="stroke:#000000;stroke-width:0.8;"/>
      </defs>
      <g>
       <use style="stroke:#000000;stroke-width:0.8;" x="52.753744" xlink:href="#m3f092983ab" y="113.806957"/>
      </g>
     </g>
    </g>
    <g id="xtick_2">
     <g id="line2d_2">
      <g>
       <use style="stroke:#000000;stroke-width:0.8;" x="81.369191" xlink:href="#m3f092983ab" y="113.806957"/>
      </g>
     </g>
    </g>
    <g id="xtick_3">
     <g id="line2d_3">
      <g>
       <use style="stroke:#000000;stroke-width:0.8;" x="109.984638" xlink:href="#m3f092983ab" y="113.806957"/>
      </g>
     </g>
    </g>
    <g id="xtick_4">
     <g id="line2d_4">
      <g>
       <use style="stroke:#000000;stroke-width:0.8;" x="138.600084" xlink:href="#m3f092983ab" y="113.806957"/>
      </g>
     </g>
    </g>
    <g id="xtick_5">
     <g id="line2d_5">
      <g>
       <use style="stroke:#000000;stroke-width:0.8;" x="167.215531" xlink:href="#m3f092983ab" y="113.806957"/>
      </g>
     </g>
    </g>
   </g>
   <g id="matplotlib.axis_2">
    <g id="ytick_1">
     <g id="line2d_6">
      <defs>
       <path d="M 0 0 
L -3.5 0 
" id="mee73f67937" style="stroke:#000000;stroke-width:0.8;"/>
      </defs>
      <g>
       <use style="stroke:#000000;stroke-width:0.8;" x="27" xlink:href="#mee73f67937" y="113.806957"/>
      </g>
     </g>
     <g id="text_1">
      <!-- 0 -->
      <g transform="translate(17.04625 116.46641)scale(0.07 -0.07)">
       <defs>
        <path d="M 31.78125 66.40625 
Q 24.171875 66.40625 20.328125 58.90625 
Q 16.5 51.421875 16.5 36.375 
Q 16.5 21.390625 20.328125 13.890625 
Q 24.171875 6.390625 31.78125 6.390625 
Q 39.453125 6.390625 43.28125 13.890625 
Q 47.125 21.390625 47.125 36.375 
Q 47.125 51.421875 43.28125 58.90625 
Q 39.453125 66.40625 31.78125 66.40625 
z
M 31.78125 74.21875 
Q 44.046875 74.21875 50.515625 64.515625 
Q 56.984375 54.828125 56.984375 36.375 
Q 56.984375 17.96875 50.515625 8.265625 
Q 44.046875 -1.421875 31.78125 -1.421875 
Q 19.53125 -1.421875 13.0625 8.265625 
Q 6.59375 17.96875 6.59375 36.375 
Q 6.59375 54.828125 13.0625 64.515625 
Q 19.53125 74.21875 31.78125 74.21875 
z
" id="DejaVuSans-48"/>
       </defs>
       <use xlink:href="#DejaVuSans-48"/>
      </g>
     </g>
    </g>
    <g id="ytick_2">
     <g id="line2d_7">
      <g>
       <use style="stroke:#000000;stroke-width:0.8;" x="27" xlink:href="#mee73f67937" y="90.50605"/>
      </g>
     </g>
     <g id="text_2">
      <!-- 5 -->
      <g transform="translate(17.04625 93.165503)scale(0.07 -0.07)">
       <defs>
        <path d="M 10.796875 72.90625 
L 49.515625 72.90625 
L 49.515625 64.59375 
L 19.828125 64.59375 
L 19.828125 46.734375 
Q 21.96875 47.46875 24.109375 47.828125 
Q 26.265625 48.1875 28.421875 48.1875 
Q 40.625 48.1875 47.75 41.5 
Q 54.890625 34.8125 54.890625 23.390625 
Q 54.890625 11.625 47.5625 5.09375 
Q 40.234375 -1.421875 26.90625 -1.421875 
Q 22.3125 -1.421875 17.546875 -0.640625 
Q 12.796875 0.140625 7.71875 1.703125 
L 7.71875 11.625 
Q 12.109375 9.234375 16.796875 8.0625 
Q 21.484375 6.890625 26.703125 6.890625 
Q 35.15625 6.890625 40.078125 11.328125 
Q 45.015625 15.765625 45.015625 23.390625 
Q 45.015625 31 40.078125 35.4375 
Q 35.15625 39.890625 26.703125 39.890625 
Q 22.75 39.890625 18.8125 39.015625 
Q 14.890625 38.140625 10.796875 36.28125 
z
" id="DejaVuSans-53"/>
       </defs>
       <use xlink:href="#DejaVuSans-53"/>
      </g>
     </g>
    </g>
    <g id="ytick_3">
     <g id="line2d_8">
      <g>
       <use style="stroke:#000000;stroke-width:0.8;" x="27" xlink:href="#mee73f67937" y="67.205144"/>
      </g>
     </g>
     <g id="text_3">
      <!-- 10 -->
      <g transform="translate(12.5925 69.864597)scale(0.07 -0.07)">
       <defs>
        <path d="M 12.40625 8.296875 
L 28.515625 8.296875 
L 28.515625 63.921875 
L 10.984375 60.40625 
L 10.984375 69.390625 
L 28.421875 72.90625 
L 38.28125 72.90625 
L 38.28125 8.296875 
L 54.390625 8.296875 
L 54.390625 0 
L 12.40625 0 
z
" id="DejaVuSans-49"/>
       </defs>
       <use xlink:href="#DejaVuSans-49"/>
       <use x="63.623047" xlink:href="#DejaVuSans-48"/>
      </g>
     </g>
    </g>
   </g>
   <g id="line2d_9">
    <path clip-path="url(#pd9d367dd18)" d="M 27 103.492433 
L 28.430779 102.089951 
L 29.861618 100.554924 
L 31.29236 99.067412 
L 32.723078 98.252121 
L 34.153854 96.366559 
L 35.584509 94.444546 
L 37.01529 93.30892 
L 38.446041 92.583849 
L 39.876803 91.059723 
L 41.307616 90.937469 
L 42.738362 90.213289 
L 44.169147 88.807536 
L 45.59986 88.378066 
L 47.030621 87.522886 
L 48.461441 87.253088 
L 49.892219 86.629912 
L 51.322937 85.747778 
L 52.753736 85.468773 
L 54.184477 84.977619 
L 55.615242 84.104346 
L 57.046023 83.685162 
L 58.476744 83.325251 
L 59.907434 82.508915 
L 61.338157 81.827371 
L 62.76871 81.224188 
L 64.19938 80.474884 
L 65.63008 79.916104 
L 67.060807 79.493842 
L 68.491668 79.510764 
L 69.922495 79.170984 
L 71.353373 78.352829 
L 72.784061 77.748738 
L 74.214956 77.20072 
L 75.645744 76.766426 
L 77.076547 76.409746 
L 78.507383 75.448836 
L 79.938194 75.737005 
L 81.369035 75.190599 
L 82.799758 74.680267 
L 84.230464 74.485552 
L 85.661157 74.086555 
L 87.091992 73.888739 
L 88.522692 73.676414 
L 89.953426 73.213162 
L 91.38416 72.960862 
L 92.814868 72.763278 
L 94.245722 72.205479 
L 95.676491 71.508646 
L 97.107277 71.514392 
L 98.538063 70.904277 
L 99.968902 70.793056 
L 101.39957 70.661516 
L 102.830267 70.250197 
L 104.261108 70.083342 
L 105.691976 69.654959 
L 107.122844 69.004716 
L 108.553525 68.340442 
L 109.984233 67.357809 
L 111.414985 67.131147 
L 112.845793 66.74464 
L 114.276554 66.532588 
L 115.707323 66.001073 
L 117.138049 65.2887 
L 118.568748 64.935851 
L 119.999581 64.593542 
L 121.430307 64.211088 
L 122.861179 63.571946 
L 124.29182 63.407242 
L 125.722702 63.135872 
L 127.153394 63.054475 
L 128.584186 62.792617 
L 130.01497 62.272198 
L 131.445709 62.031429 
L 132.876576 61.867696 
L 134.307356 61.228551 
L 135.738144 61.003117 
L 137.168976 60.859605 
L 138.599732 60.452292 
L 140.030516 60.220009 
L 141.461289 60.285464 
L 142.892048 59.552813 
L 144.322968 59.370573 
L 145.753822 59.274275 
L 147.184681 59.029903 
L 148.615504 58.579857 
L 150.046331 58.225516 
L 151.477263 58.21888 
L 152.907978 57.678687 
L 154.338632 57.745884 
L 155.76932 57.393483 
L 157.200088 57.007816 
L 158.630881 56.501949 
L 160.061694 56.396845 
L 161.492434 55.764756 
L 162.923165 55.297586 
L 164.353931 54.838148 
L 165.784657 54.282567 
L 167.215286 53.646821 
L 168.646015 53.16212 
L 170.0767 53.130885 
L 171.507502 52.49887 
L 172.938295 52.23719 
L 174.36907 51.836608 
L 175.799911 51.90935 
L 177.230629 52.377519 
L 178.661519 51.930272 
L 180.092186 51.312463 
L 181.522783 50.89642 
L 182.95367 50.20228 
L 184.3844 49.945283 
L 185.815195 49.406952 
L 187.246018 49.098573 
L 188.676805 48.64101 
L 190.107637 48.643691 
L 191.538397 48.072419 
L 192.96924 47.52 
L 194.4 47.602664 
" style="fill:none;stroke:#fc8d62;stroke-linecap:square;stroke-width:2;"/>
   </g>
   <g id="line2d_10">
    <path clip-path="url(#pd9d367dd18)" d="M 27 104.678615 
L 28.430779 103.032706 
L 29.861618 102.12614 
L 31.29236 101.09768 
L 32.723078 100.201968 
L 34.153854 100.259269 
L 35.584509 99.361709 
L 37.01529 98.408966 
L 38.446041 97.691133 
L 39.876803 96.609986 
L 41.307616 96.09945 
L 42.738362 95.474934 
L 44.169147 95.146213 
L 45.59986 94.650575 
L 47.030621 94.028157 
L 48.461441 93.387864 
L 49.892219 93.192568 
L 51.322937 93.000561 
L 52.753736 92.319599 
L 54.184477 91.591321 
L 55.615242 91.239677 
L 57.046023 90.268864 
L 58.476744 90.067084 
L 59.907434 90.007455 
L 61.338157 89.241409 
L 62.76871 88.653413 
L 64.19938 88.484505 
L 65.63008 87.946341 
L 67.060807 86.872754 
L 68.491668 86.205735 
L 69.922495 85.476994 
L 71.353373 85.269838 
L 72.784061 85.019883 
L 74.214956 84.986766 
L 75.645744 84.37939 
L 77.076547 83.922924 
L 78.507383 83.564499 
L 79.938194 83.184869 
L 81.369035 83.057992 
L 82.799758 82.90047 
L 84.230464 82.206322 
L 85.661157 81.894364 
L 87.091992 81.776877 
L 88.522692 81.59416 
L 89.953426 81.504034 
L 91.38416 80.503584 
L 92.814868 79.637939 
L 94.245722 79.165565 
L 95.676491 78.518984 
L 97.107277 77.97791 
L 98.538063 77.482104 
L 99.968902 77.308235 
L 101.39957 77.250499 
L 102.830267 77.108509 
L 104.261108 77.067418 
L 105.691976 77.319884 
L 107.122844 77.268435 
L 108.553525 76.940289 
L 109.984233 76.261554 
L 111.414985 75.875085 
L 112.845793 76.012897 
L 114.276554 75.416329 
L 115.707323 75.325841 
L 117.138049 74.976452 
L 118.568748 74.645374 
L 119.999581 74.478076 
L 121.430307 73.860545 
L 122.861179 73.845555 
L 124.29182 73.52093 
L 125.722702 73.378233 
L 127.153394 73.550742 
L 128.584186 73.487589 
L 130.01497 73.058489 
L 131.445709 73.02083 
L 132.876576 72.794282 
L 134.307356 72.743248 
L 135.738144 72.94934 
L 137.168976 72.814435 
L 138.599732 72.135228 
L 140.030516 71.902535 
L 141.461289 71.332181 
L 142.892048 70.630619 
L 144.322968 70.396735 
L 145.753822 70.078175 
L 147.184681 69.407228 
L 148.615504 68.972537 
L 150.046331 68.728054 
L 151.477263 68.579237 
L 152.907978 68.241174 
L 154.338632 67.997353 
L 155.76932 67.941481 
L 157.200088 67.663266 
L 158.630881 67.190433 
L 160.061694 66.983001 
L 161.492434 66.840245 
L 162.923165 66.533949 
L 164.353931 66.142045 
L 165.784657 66.165486 
L 167.215286 66.147901 
L 168.646015 66.056688 
L 170.0767 65.879731 
L 171.507502 65.714993 
L 172.938295 65.333304 
L 174.36907 65.057835 
L 175.799911 64.663419 
L 177.230629 64.176946 
L 178.661519 64.049378 
L 180.092186 63.560647 
L 181.522783 63.287577 
L 182.95367 63.165416 
L 184.3844 62.77186 
L 185.815195 62.467851 
L 187.246018 61.885007 
L 188.676805 61.966436 
L 190.107637 61.77584 
L 191.538397 61.663991 
L 192.96924 61.532901 
L 194.4 61.080917 
" style="fill:none;stroke:#fc8d62;stroke-dasharray:1.5,2.475;stroke-dashoffset:0;stroke-opacity:0.7;stroke-width:1.5;"/>
   </g>
   <g id="patch_3">
    <path d="M 27 113.806957 
L 27 47.52 
" style="fill:none;stroke:#a9a9a9;stroke-linecap:square;stroke-linejoin:miter;stroke-width:2;"/>
   </g>
   <g id="patch_4">
    <path d="M 194.4 113.806957 
L 194.4 47.52 
" style="fill:none;"/>
   </g>
   <g id="patch_5">
    <path d="M 27 113.806957 
L 194.4 113.806957 
" style="fill:none;stroke:#a9a9a9;stroke-linecap:square;stroke-linejoin:miter;stroke-width:2;"/>
   </g>
   <g id="patch_6">
    <path d="M 27 47.52 
L 194.4 47.52 
" style="fill:none;"/>
   </g>
   <g id="text_4">
    <!-- SNR -->
    <g transform="translate(101.349844 44.52)scale(0.09 -0.09)">
     <defs>
      <path d="M 53.515625 70.515625 
L 53.515625 60.890625 
Q 47.90625 63.578125 42.921875 64.890625 
Q 37.9375 66.21875 33.296875 66.21875 
Q 25.25 66.21875 20.875 63.09375 
Q 16.5 59.96875 16.5 54.203125 
Q 16.5 49.359375 19.40625 46.890625 
Q 22.3125 44.4375 30.421875 42.921875 
L 36.375 41.703125 
Q 47.40625 39.59375 52.65625 34.296875 
Q 57.90625 29 57.90625 20.125 
Q 57.90625 9.515625 50.796875 4.046875 
Q 43.703125 -1.421875 29.984375 -1.421875 
Q 24.8125 -1.421875 18.96875 -0.25 
Q 13.140625 0.921875 6.890625 3.21875 
L 6.890625 13.375 
Q 12.890625 10.015625 18.65625 8.296875 
Q 24.421875 6.59375 29.984375 6.59375 
Q 38.421875 6.59375 43.015625 9.90625 
Q 47.609375 13.234375 47.609375 19.390625 
Q 47.609375 24.75 44.3125 27.78125 
Q 41.015625 30.8125 33.5 32.328125 
L 27.484375 33.5 
Q 16.453125 35.6875 11.515625 40.375 
Q 6.59375 45.0625 6.59375 53.421875 
Q 6.59375 63.09375 13.40625 68.65625 
Q 20.21875 74.21875 32.171875 74.21875 
Q 37.3125 74.21875 42.625 73.28125 
Q 47.953125 72.359375 53.515625 70.515625 
z
" id="DejaVuSans-83"/>
      <path d="M 9.8125 72.90625 
L 23.09375 72.90625 
L 55.421875 11.921875 
L 55.421875 72.90625 
L 64.984375 72.90625 
L 64.984375 0 
L 51.703125 0 
L 19.390625 60.984375 
L 19.390625 0 
L 9.8125 0 
z
" id="DejaVuSans-78"/>
      <path d="M 44.390625 34.1875 
Q 47.5625 33.109375 50.5625 29.59375 
Q 53.5625 26.078125 56.59375 19.921875 
L 66.609375 0 
L 56 0 
L 46.6875 18.703125 
Q 43.0625 26.03125 39.671875 28.421875 
Q 36.28125 30.8125 30.421875 30.8125 
L 19.671875 30.8125 
L 19.671875 0 
L 9.8125 0 
L 9.8125 72.90625 
L 32.078125 72.90625 
Q 44.578125 72.90625 50.734375 67.671875 
Q 56.890625 62.453125 56.890625 51.90625 
Q 56.890625 45.015625 53.6875 40.46875 
Q 50.484375 35.9375 44.390625 34.1875 
z
M 19.671875 64.796875 
L 19.671875 38.921875 
L 32.078125 38.921875 
Q 39.203125 38.921875 42.84375 42.21875 
Q 46.484375 45.515625 46.484375 51.90625 
Q 46.484375 58.296875 42.84375 61.546875 
Q 39.203125 64.796875 32.078125 64.796875 
z
" id="DejaVuSans-82"/>
     </defs>
     <use xlink:href="#DejaVuSans-83"/>
     <use x="63.476562" xlink:href="#DejaVuSans-78"/>
     <use x="138.28125" xlink:href="#DejaVuSans-82"/>
    </g>
   </g>
   <g id="legend_1">
    <g id="patch_7">
     <path d="M 31.9 73.669375 
L 70.33 73.669375 
Q 71.73 73.669375 71.73 72.269375 
L 71.73 52.42 
Q 71.73 51.02 70.33 51.02 
L 31.9 51.02 
Q 30.5 51.02 30.5 52.42 
L 30.5 72.269375 
Q 30.5 73.669375 31.9 73.669375 
z
" style="fill:#ffffff;opacity:0.8;stroke:#cccccc;stroke-linejoin:miter;"/>
    </g>
    <g id="line2d_11">
     <path d="M 33.3 56.688906 
L 47.3 56.688906 
" style="fill:none;stroke:#fc8d62;stroke-linecap:square;stroke-width:2;"/>
    </g>
    <g id="line2d_12"/>
    <g id="text_5">
     <!-- $\theta$ -->
     <g transform="translate(52.9 59.138906)scale(0.07 -0.07)">
      <defs>
       <path d="M 45.515625 34.671875 
L 14.453125 34.671875 
Q 12.359375 20.0625 14.5 13.875 
Q 17.1875 6.25 24.46875 6.25 
Q 31.78125 6.25 37.359375 13.921875 
Q 42.234375 20.65625 45.515625 34.671875 
z
M 47.015625 42.96875 
Q 48.34375 56.84375 46.625 61.71875 
Q 43.953125 69.4375 36.765625 69.4375 
Q 29.296875 69.4375 23.828125 61.8125 
Q 19.53125 55.671875 16.15625 42.96875 
z
M 38.1875 76.765625 
Q 49.90625 76.765625 54.59375 66.40625 
Q 59.28125 56.109375 55.71875 37.84375 
Q 52.203125 19.625 43.453125 9.28125 
Q 34.765625 -1.125 23.046875 -1.125 
Q 11.28125 -1.125 6.640625 9.28125 
Q 2 19.625 5.515625 37.84375 
Q 9.078125 56.109375 17.71875 66.40625 
Q 26.421875 76.765625 38.1875 76.765625 
z
" id="DejaVuSans-Oblique-952"/>
      </defs>
      <use transform="translate(0 0.234375)" xlink:href="#DejaVuSans-Oblique-952"/>
     </g>
    </g>
    <g id="line2d_13">
     <path d="M 33.3 66.963594 
L 47.3 66.963594 
" style="fill:none;stroke:#fc8d62;stroke-dasharray:1.5,2.475;stroke-dashoffset:0;stroke-opacity:0.7;stroke-width:1.5;"/>
    </g>
    <g id="line2d_14"/>
    <g id="text_6">
     <!-- No $\theta$ -->
     <g transform="translate(52.9 69.413594)scale(0.07 -0.07)">
      <defs>
       <path d="M 30.609375 48.390625 
Q 23.390625 48.390625 19.1875 42.75 
Q 14.984375 37.109375 14.984375 27.296875 
Q 14.984375 17.484375 19.15625 11.84375 
Q 23.34375 6.203125 30.609375 6.203125 
Q 37.796875 6.203125 41.984375 11.859375 
Q 46.1875 17.53125 46.1875 27.296875 
Q 46.1875 37.015625 41.984375 42.703125 
Q 37.796875 48.390625 30.609375 48.390625 
z
M 30.609375 56 
Q 42.328125 56 49.015625 48.375 
Q 55.71875 40.765625 55.71875 27.296875 
Q 55.71875 13.875 49.015625 6.21875 
Q 42.328125 -1.421875 30.609375 -1.421875 
Q 18.84375 -1.421875 12.171875 6.21875 
Q 5.515625 13.875 5.515625 27.296875 
Q 5.515625 40.765625 12.171875 48.375 
Q 18.84375 56 30.609375 56 
z
" id="DejaVuSans-111"/>
       <path id="DejaVuSans-32"/>
      </defs>
      <use transform="translate(0 0.234375)" xlink:href="#DejaVuSans-78"/>
      <use transform="translate(74.804688 0.234375)" xlink:href="#DejaVuSans-111"/>
      <use transform="translate(135.986328 0.234375)" xlink:href="#DejaVuSans-32"/>
      <use transform="translate(167.773438 0.234375)" xlink:href="#DejaVuSans-Oblique-952"/>
     </g>
    </g>
   </g>
  </g>
  <g id="axes_2">
   <g id="patch_8">
    <path d="M 27 193.351304 
L 194.4 193.351304 
L 194.4 127.064348 
L 27 127.064348 
z
" style="fill:none;"/>
   </g>
   <g id="matplotlib.axis_3">
    <g id="xtick_6">
     <g id="line2d_15">
      <g>
       <use style="stroke:#000000;stroke-width:0.8;" x="52.753744" xlink:href="#m3f092983ab" y="193.351304"/>
      </g>
     </g>
    </g>
    <g id="xtick_7">
     <g id="line2d_16">
      <g>
       <use style="stroke:#000000;stroke-width:0.8;" x="81.369191" xlink:href="#m3f092983ab" y="193.351304"/>
      </g>
     </g>
    </g>
    <g id="xtick_8">
     <g id="line2d_17">
      <g>
       <use style="stroke:#000000;stroke-width:0.8;" x="109.984638" xlink:href="#m3f092983ab" y="193.351304"/>
      </g>
     </g>
    </g>
    <g id="xtick_9">
     <g id="line2d_18">
      <g>
       <use style="stroke:#000000;stroke-width:0.8;" x="138.600084" xlink:href="#m3f092983ab" y="193.351304"/>
      </g>
     </g>
    </g>
    <g id="xtick_10">
     <g id="line2d_19">
      <g>
       <use style="stroke:#000000;stroke-width:0.8;" x="167.215531" xlink:href="#m3f092983ab" y="193.351304"/>
      </g>
     </g>
    </g>
   </g>
   <g id="matplotlib.axis_4">
    <g id="ytick_4">
     <g id="line2d_20">
      <g>
       <use style="stroke:#000000;stroke-width:0.8;" x="27" xlink:href="#mee73f67937" y="193.351304"/>
      </g>
     </g>
     <g id="text_7">
      <!-- 0.00 -->
      <g transform="translate(5.914062 196.010757)scale(0.07 -0.07)">
       <defs>
        <path d="M 10.6875 12.40625 
L 21 12.40625 
L 21 0 
L 10.6875 0 
z
" id="DejaVuSans-46"/>
       </defs>
       <use xlink:href="#DejaVuSans-48"/>
       <use x="63.623047" xlink:href="#DejaVuSans-46"/>
       <use x="95.410156" xlink:href="#DejaVuSans-48"/>
       <use x="159.033203" xlink:href="#DejaVuSans-48"/>
      </g>
     </g>
    </g>
    <g id="ytick_5">
     <g id="line2d_21">
      <g>
       <use style="stroke:#000000;stroke-width:0.8;" x="27" xlink:href="#mee73f67937" y="175.914811"/>
      </g>
     </g>
     <g id="text_8">
      <!-- 0.05 -->
      <g transform="translate(5.914062 178.574264)scale(0.07 -0.07)">
       <use xlink:href="#DejaVuSans-48"/>
       <use x="63.623047" xlink:href="#DejaVuSans-46"/>
       <use x="95.410156" xlink:href="#DejaVuSans-48"/>
       <use x="159.033203" xlink:href="#DejaVuSans-53"/>
      </g>
     </g>
    </g>
    <g id="ytick_6">
     <g id="line2d_22">
      <g>
       <use style="stroke:#000000;stroke-width:0.8;" x="27" xlink:href="#mee73f67937" y="158.478317"/>
      </g>
     </g>
     <g id="text_9">
      <!-- 0.10 -->
      <g transform="translate(5.914062 161.13777)scale(0.07 -0.07)">
       <use xlink:href="#DejaVuSans-48"/>
       <use x="63.623047" xlink:href="#DejaVuSans-46"/>
       <use x="95.410156" xlink:href="#DejaVuSans-49"/>
       <use x="159.033203" xlink:href="#DejaVuSans-48"/>
      </g>
     </g>
    </g>
    <g id="ytick_7">
     <g id="line2d_23">
      <g>
       <use style="stroke:#000000;stroke-width:0.8;" x="27" xlink:href="#mee73f67937" y="141.041823"/>
      </g>
     </g>
     <g id="text_10">
      <!-- 0.15 -->
      <g transform="translate(5.914062 143.701276)scale(0.07 -0.07)">
       <use xlink:href="#DejaVuSans-48"/>
       <use x="63.623047" xlink:href="#DejaVuSans-46"/>
       <use x="95.410156" xlink:href="#DejaVuSans-49"/>
       <use x="159.033203" xlink:href="#DejaVuSans-53"/>
      </g>
     </g>
    </g>
   </g>
   <g id="line2d_24">
    <path clip-path="url(#pe8f24492ce)" d="M 27 192.253824 
L 28.430779 191.655547 
L 29.861618 191.023915 
L 31.29236 190.587135 
L 32.723078 190.192588 
L 34.153854 189.62748 
L 35.584509 189.208706 
L 37.01529 188.618694 
L 38.446041 188.096263 
L 39.876803 187.470485 
L 41.307616 186.724289 
L 42.738362 186.239563 
L 44.169147 185.929371 
L 45.59986 185.285665 
L 47.030621 184.849643 
L 48.461441 184.040803 
L 49.892219 183.632508 
L 51.322937 183.391474 
L 52.753736 182.646109 
L 54.184477 182.258283 
L 55.615242 181.785368 
L 57.046023 181.325476 
L 58.476744 180.83372 
L 59.907434 180.190789 
L 61.338157 179.660392 
L 62.76871 179.06867 
L 64.19938 178.462401 
L 65.63008 177.909261 
L 67.060807 177.451744 
L 68.491668 176.846988 
L 69.922495 176.21881 
L 71.353373 175.669096 
L 72.784061 175.169903 
L 74.214956 174.474269 
L 75.645744 173.509786 
L 77.076547 172.669621 
L 78.507383 171.830863 
L 79.938194 170.101336 
L 81.369035 169.790434 
L 82.799758 169.130626 
L 84.230464 168.439602 
L 85.661157 167.837896 
L 87.091992 167.175023 
L 88.522692 166.457155 
L 89.953426 166.017979 
L 91.38416 165.659887 
L 92.814868 164.274652 
L 94.245722 163.496496 
L 95.676491 162.858233 
L 97.107277 162.078706 
L 98.538063 161.582233 
L 99.968902 160.994799 
L 101.39957 160.605202 
L 102.830267 160.002778 
L 104.261108 159.589988 
L 105.691976 159.143542 
L 107.122844 158.790633 
L 108.553525 158.375171 
L 109.984233 158.133589 
L 111.414985 157.347388 
L 112.845793 156.545916 
L 114.276554 156.046368 
L 115.707323 155.668931 
L 117.138049 155.535767 
L 118.568748 155.256849 
L 119.999581 155.038697 
L 121.430307 154.081825 
L 122.861179 153.754425 
L 124.29182 153.322975 
L 125.722702 152.722781 
L 127.153394 151.833702 
L 128.584186 151.089395 
L 130.01497 150.566623 
L 131.445709 149.697521 
L 132.876576 149.466086 
L 134.307356 149.752274 
L 135.738144 149.063055 
L 137.168976 148.266473 
L 138.599732 147.937574 
L 140.030516 147.29867 
L 141.461289 146.529151 
L 142.892048 146.255716 
L 144.322968 145.491804 
L 145.753822 144.716007 
L 147.184681 144.225492 
L 148.615504 143.7065 
L 150.046331 142.900782 
L 151.477263 141.649474 
L 152.907978 141.426408 
L 154.338632 140.206794 
L 155.76932 140.034496 
L 157.200088 139.576598 
L 158.630881 139.100045 
L 160.061694 137.659184 
L 161.492434 137.789205 
L 162.923165 137.668427 
L 164.353931 137.654199 
L 165.784657 137.799871 
L 167.215286 137.601454 
L 168.646015 137.40774 
L 170.0767 135.866169 
L 171.507502 135.938679 
L 172.938295 135.333153 
L 174.36907 134.49463 
L 175.799911 133.57747 
L 177.230629 132.160258 
L 178.661519 132.040778 
L 180.092186 132.114423 
L 181.522783 131.850947 
L 182.95367 131.870443 
L 184.3844 130.899953 
L 185.815195 130.186628 
L 187.246018 130.051649 
L 188.676805 129.749907 
L 190.107637 128.577906 
L 191.538397 128.734847 
L 192.96924 128.14914 
L 194.4 127.064348 
" style="fill:none;stroke:#fc8d62;stroke-linecap:square;stroke-width:2;"/>
   </g>
   <g id="line2d_25">
    <path clip-path="url(#pe8f24492ce)" d="M 27 192.369014 
L 28.430779 191.913114 
L 29.861618 191.54628 
L 31.29236 191.057861 
L 32.723078 190.513266 
L 34.153854 189.889663 
L 35.584509 189.505303 
L 37.01529 188.984177 
L 38.446041 188.564429 
L 39.876803 188.089528 
L 41.307616 187.59346 
L 42.738362 187.050314 
L 44.169147 186.561572 
L 45.59986 185.951051 
L 47.030621 185.443801 
L 48.461441 185.052197 
L 49.892219 184.440172 
L 51.322937 184.018122 
L 52.753736 183.568675 
L 54.184477 182.921737 
L 55.615242 182.654184 
L 57.046023 182.355516 
L 58.476744 181.560034 
L 59.907434 180.894981 
L 61.338157 180.548674 
L 62.76871 180.08016 
L 64.19938 179.369139 
L 65.63008 179.014927 
L 67.060807 178.545235 
L 68.491668 178.342789 
L 69.922495 177.736327 
L 71.353373 177.307642 
L 72.784061 176.557402 
L 74.214956 176.098869 
L 75.645744 175.890364 
L 77.076547 175.269495 
L 78.507383 174.760266 
L 79.938194 174.488304 
L 81.369035 173.859619 
L 82.799758 173.389353 
L 84.230464 172.750064 
L 85.661157 171.830363 
L 87.091992 170.865078 
L 88.522692 170.469491 
L 89.953426 169.38146 
L 91.38416 169.263678 
L 92.814868 169.258722 
L 94.245722 168.307473 
L 95.676491 168.065883 
L 97.107277 167.571027 
L 98.538063 167.156461 
L 99.968902 166.645698 
L 101.39957 166.152922 
L 102.830267 165.55729 
L 104.261108 164.991246 
L 105.691976 164.182296 
L 107.122844 163.018832 
L 108.553525 162.538363 
L 109.984233 162.052309 
L 111.414985 161.476295 
L 112.845793 160.577325 
L 114.276554 160.383379 
L 115.707323 159.922302 
L 117.138049 159.223124 
L 118.568748 158.74431 
L 119.999581 158.235503 
L 121.430307 158.60074 
L 122.861179 157.358034 
L 124.29182 157.378408 
L 125.722702 156.803778 
L 127.153394 155.783555 
L 128.584186 154.944357 
L 130.01497 154.190677 
L 131.445709 153.357879 
L 132.876576 153.102233 
L 134.307356 152.358086 
L 135.738144 151.379771 
L 137.168976 150.79917 
L 138.599732 151.012024 
L 140.030516 150.22128 
L 141.461289 149.894036 
L 142.892048 149.846743 
L 144.322968 149.113548 
L 145.753822 148.708529 
L 147.184681 148.988883 
L 148.615504 148.70732 
L 150.046331 148.451543 
L 151.477263 147.64063 
L 152.907978 147.276134 
L 154.338632 146.813909 
L 155.76932 145.906092 
L 157.200088 145.345706 
L 158.630881 145.266907 
L 160.061694 145.065638 
L 161.492434 144.083952 
L 162.923165 143.489662 
L 164.353931 143.055758 
L 165.784657 142.315061 
L 167.215286 141.577073 
L 168.646015 140.652395 
L 170.0767 139.561834 
L 171.507502 139.109421 
L 172.938295 138.821226 
L 174.36907 138.315619 
L 175.799911 137.591312 
L 177.230629 137.585543 
L 178.661519 137.1896 
L 180.092186 136.798743 
L 181.522783 136.390447 
L 182.95367 135.622194 
L 184.3844 134.812774 
L 185.815195 134.308773 
L 187.246018 134.670139 
L 188.676805 133.991512 
L 190.107637 133.22548 
L 191.538397 132.424617 
L 192.96924 131.814679 
L 194.4 131.591461 
" style="fill:none;stroke:#fc8d62;stroke-dasharray:1.5,2.475;stroke-dashoffset:0;stroke-opacity:0.7;stroke-width:1.5;"/>
   </g>
   <g id="patch_9">
    <path d="M 27 193.351304 
L 27 127.064348 
" style="fill:none;stroke:#a9a9a9;stroke-linecap:square;stroke-linejoin:miter;stroke-width:2;"/>
   </g>
   <g id="patch_10">
    <path d="M 194.4 193.351304 
L 194.4 127.064348 
" style="fill:none;"/>
   </g>
   <g id="patch_11">
    <path d="M 27 193.351304 
L 194.4 193.351304 
" style="fill:none;stroke:#a9a9a9;stroke-linecap:square;stroke-linejoin:miter;stroke-width:2;"/>
   </g>
   <g id="patch_12">
    <path d="M 27 127.064348 
L 194.4 127.064348 
" style="fill:none;"/>
   </g>
   <g id="text_11">
    <!-- Variance -->
    <g transform="translate(91.26 124.064348)scale(0.09 -0.09)">
     <defs>
      <path d="M 28.609375 0 
L 0.78125 72.90625 
L 11.078125 72.90625 
L 34.1875 11.53125 
L 57.328125 72.90625 
L 67.578125 72.90625 
L 39.796875 0 
z
" id="DejaVuSans-86"/>
      <path d="M 34.28125 27.484375 
Q 23.390625 27.484375 19.1875 25 
Q 14.984375 22.515625 14.984375 16.5 
Q 14.984375 11.71875 18.140625 8.90625 
Q 21.296875 6.109375 26.703125 6.109375 
Q 34.1875 6.109375 38.703125 11.40625 
Q 43.21875 16.703125 43.21875 25.484375 
L 43.21875 27.484375 
z
M 52.203125 31.203125 
L 52.203125 0 
L 43.21875 0 
L 43.21875 8.296875 
Q 40.140625 3.328125 35.546875 0.953125 
Q 30.953125 -1.421875 24.3125 -1.421875 
Q 15.921875 -1.421875 10.953125 3.296875 
Q 6 8.015625 6 15.921875 
Q 6 25.140625 12.171875 29.828125 
Q 18.359375 34.515625 30.609375 34.515625 
L 43.21875 34.515625 
L 43.21875 35.40625 
Q 43.21875 41.609375 39.140625 45 
Q 35.0625 48.390625 27.6875 48.390625 
Q 23 48.390625 18.546875 47.265625 
Q 14.109375 46.140625 10.015625 43.890625 
L 10.015625 52.203125 
Q 14.9375 54.109375 19.578125 55.046875 
Q 24.21875 56 28.609375 56 
Q 40.484375 56 46.34375 49.84375 
Q 52.203125 43.703125 52.203125 31.203125 
z
" id="DejaVuSans-97"/>
      <path d="M 41.109375 46.296875 
Q 39.59375 47.171875 37.8125 47.578125 
Q 36.03125 48 33.890625 48 
Q 26.265625 48 22.1875 43.046875 
Q 18.109375 38.09375 18.109375 28.8125 
L 18.109375 0 
L 9.078125 0 
L 9.078125 54.6875 
L 18.109375 54.6875 
L 18.109375 46.1875 
Q 20.953125 51.171875 25.484375 53.578125 
Q 30.03125 56 36.53125 56 
Q 37.453125 56 38.578125 55.875 
Q 39.703125 55.765625 41.0625 55.515625 
z
" id="DejaVuSans-114"/>
      <path d="M 9.421875 54.6875 
L 18.40625 54.6875 
L 18.40625 0 
L 9.421875 0 
z
M 9.421875 75.984375 
L 18.40625 75.984375 
L 18.40625 64.59375 
L 9.421875 64.59375 
z
" id="DejaVuSans-105"/>
      <path d="M 54.890625 33.015625 
L 54.890625 0 
L 45.90625 0 
L 45.90625 32.71875 
Q 45.90625 40.484375 42.875 44.328125 
Q 39.84375 48.1875 33.796875 48.1875 
Q 26.515625 48.1875 22.3125 43.546875 
Q 18.109375 38.921875 18.109375 30.90625 
L 18.109375 0 
L 9.078125 0 
L 9.078125 54.6875 
L 18.109375 54.6875 
L 18.109375 46.1875 
Q 21.34375 51.125 25.703125 53.5625 
Q 30.078125 56 35.796875 56 
Q 45.21875 56 50.046875 50.171875 
Q 54.890625 44.34375 54.890625 33.015625 
z
" id="DejaVuSans-110"/>
      <path d="M 48.78125 52.59375 
L 48.78125 44.1875 
Q 44.96875 46.296875 41.140625 47.34375 
Q 37.3125 48.390625 33.40625 48.390625 
Q 24.65625 48.390625 19.8125 42.84375 
Q 14.984375 37.3125 14.984375 27.296875 
Q 14.984375 17.28125 19.8125 11.734375 
Q 24.65625 6.203125 33.40625 6.203125 
Q 37.3125 6.203125 41.140625 7.25 
Q 44.96875 8.296875 48.78125 10.40625 
L 48.78125 2.09375 
Q 45.015625 0.34375 40.984375 -0.53125 
Q 36.96875 -1.421875 32.421875 -1.421875 
Q 20.0625 -1.421875 12.78125 6.34375 
Q 5.515625 14.109375 5.515625 27.296875 
Q 5.515625 40.671875 12.859375 48.328125 
Q 20.21875 56 33.015625 56 
Q 37.15625 56 41.109375 55.140625 
Q 45.0625 54.296875 48.78125 52.59375 
z
" id="DejaVuSans-99"/>
      <path d="M 56.203125 29.59375 
L 56.203125 25.203125 
L 14.890625 25.203125 
Q 15.484375 15.921875 20.484375 11.0625 
Q 25.484375 6.203125 34.421875 6.203125 
Q 39.59375 6.203125 44.453125 7.46875 
Q 49.3125 8.734375 54.109375 11.28125 
L 54.109375 2.78125 
Q 49.265625 0.734375 44.1875 -0.34375 
Q 39.109375 -1.421875 33.890625 -1.421875 
Q 20.796875 -1.421875 13.15625 6.1875 
Q 5.515625 13.8125 5.515625 26.8125 
Q 5.515625 40.234375 12.765625 48.109375 
Q 20.015625 56 32.328125 56 
Q 43.359375 56 49.78125 48.890625 
Q 56.203125 41.796875 56.203125 29.59375 
z
M 47.21875 32.234375 
Q 47.125 39.59375 43.09375 43.984375 
Q 39.0625 48.390625 32.421875 48.390625 
Q 24.90625 48.390625 20.390625 44.140625 
Q 15.875 39.890625 15.1875 32.171875 
z
" id="DejaVuSans-101"/>
     </defs>
     <use xlink:href="#DejaVuSans-86"/>
     <use x="60.658203" xlink:href="#DejaVuSans-97"/>
     <use x="121.9375" xlink:href="#DejaVuSans-114"/>
     <use x="163.050781" xlink:href="#DejaVuSans-105"/>
     <use x="190.833984" xlink:href="#DejaVuSans-97"/>
     <use x="252.113281" xlink:href="#DejaVuSans-110"/>
     <use x="315.492188" xlink:href="#DejaVuSans-99"/>
     <use x="370.472656" xlink:href="#DejaVuSans-101"/>
    </g>
   </g>
  </g>
  <g id="axes_3">
   <g id="patch_13">
    <path d="M 27 272.895652 
L 194.4 272.895652 
L 194.4 206.608696 
L 27 206.608696 
z
" style="fill:none;"/>
   </g>
   <g id="matplotlib.axis_5">
    <g id="xtick_11">
     <g id="line2d_26">
      <g>
       <use style="stroke:#000000;stroke-width:0.8;" x="52.753744" xlink:href="#m3f092983ab" y="272.895652"/>
      </g>
     </g>
    </g>
    <g id="xtick_12">
     <g id="line2d_27">
      <g>
       <use style="stroke:#000000;stroke-width:0.8;" x="81.369191" xlink:href="#m3f092983ab" y="272.895652"/>
      </g>
     </g>
    </g>
    <g id="xtick_13">
     <g id="line2d_28">
      <g>
       <use style="stroke:#000000;stroke-width:0.8;" x="109.984638" xlink:href="#m3f092983ab" y="272.895652"/>
      </g>
     </g>
    </g>
    <g id="xtick_14">
     <g id="line2d_29">
      <g>
       <use style="stroke:#000000;stroke-width:0.8;" x="138.600084" xlink:href="#m3f092983ab" y="272.895652"/>
      </g>
     </g>
    </g>
    <g id="xtick_15">
     <g id="line2d_30">
      <g>
       <use style="stroke:#000000;stroke-width:0.8;" x="167.215531" xlink:href="#m3f092983ab" y="272.895652"/>
      </g>
     </g>
    </g>
   </g>
   <g id="matplotlib.axis_6">
    <g id="ytick_8">
     <g id="line2d_31">
      <g>
       <use style="stroke:#000000;stroke-width:0.8;" x="27" xlink:href="#mee73f67937" y="254.240886"/>
      </g>
     </g>
     <g id="text_12">
      <!-- 0.04 -->
      <g transform="translate(5.914062 256.900339)scale(0.07 -0.07)">
       <defs>
        <path d="M 37.796875 64.3125 
L 12.890625 25.390625 
L 37.796875 25.390625 
z
M 35.203125 72.90625 
L 47.609375 72.90625 
L 47.609375 25.390625 
L 58.015625 25.390625 
L 58.015625 17.1875 
L 47.609375 17.1875 
L 47.609375 0 
L 37.796875 0 
L 37.796875 17.1875 
L 4.890625 17.1875 
L 4.890625 26.703125 
z
" id="DejaVuSans-52"/>
       </defs>
       <use xlink:href="#DejaVuSans-48"/>
       <use x="63.623047" xlink:href="#DejaVuSans-46"/>
       <use x="95.410156" xlink:href="#DejaVuSans-48"/>
       <use x="159.033203" xlink:href="#DejaVuSans-52"/>
      </g>
     </g>
    </g>
    <g id="ytick_9">
     <g id="line2d_32">
      <g>
       <use style="stroke:#000000;stroke-width:0.8;" x="27" xlink:href="#mee73f67937" y="234.357107"/>
      </g>
     </g>
     <g id="text_13">
      <!-- 0.06 -->
      <g transform="translate(5.914062 237.01656)scale(0.07 -0.07)">
       <defs>
        <path d="M 33.015625 40.375 
Q 26.375 40.375 22.484375 35.828125 
Q 18.609375 31.296875 18.609375 23.390625 
Q 18.609375 15.53125 22.484375 10.953125 
Q 26.375 6.390625 33.015625 6.390625 
Q 39.65625 6.390625 43.53125 10.953125 
Q 47.40625 15.53125 47.40625 23.390625 
Q 47.40625 31.296875 43.53125 35.828125 
Q 39.65625 40.375 33.015625 40.375 
z
M 52.59375 71.296875 
L 52.59375 62.3125 
Q 48.875 64.0625 45.09375 64.984375 
Q 41.3125 65.921875 37.59375 65.921875 
Q 27.828125 65.921875 22.671875 59.328125 
Q 17.53125 52.734375 16.796875 39.40625 
Q 19.671875 43.65625 24.015625 45.921875 
Q 28.375 48.1875 33.59375 48.1875 
Q 44.578125 48.1875 50.953125 41.515625 
Q 57.328125 34.859375 57.328125 23.390625 
Q 57.328125 12.15625 50.6875 5.359375 
Q 44.046875 -1.421875 33.015625 -1.421875 
Q 20.359375 -1.421875 13.671875 8.265625 
Q 6.984375 17.96875 6.984375 36.375 
Q 6.984375 53.65625 15.1875 63.9375 
Q 23.390625 74.21875 37.203125 74.21875 
Q 40.921875 74.21875 44.703125 73.484375 
Q 48.484375 72.75 52.59375 71.296875 
z
" id="DejaVuSans-54"/>
       </defs>
       <use xlink:href="#DejaVuSans-48"/>
       <use x="63.623047" xlink:href="#DejaVuSans-46"/>
       <use x="95.410156" xlink:href="#DejaVuSans-48"/>
       <use x="159.033203" xlink:href="#DejaVuSans-54"/>
      </g>
     </g>
    </g>
    <g id="ytick_10">
     <g id="line2d_33">
      <g>
       <use style="stroke:#000000;stroke-width:0.8;" x="27" xlink:href="#mee73f67937" y="214.473328"/>
      </g>
     </g>
     <g id="text_14">
      <!-- 0.08 -->
      <g transform="translate(5.914062 217.132781)scale(0.07 -0.07)">
       <defs>
        <path d="M 31.78125 34.625 
Q 24.75 34.625 20.71875 30.859375 
Q 16.703125 27.09375 16.703125 20.515625 
Q 16.703125 13.921875 20.71875 10.15625 
Q 24.75 6.390625 31.78125 6.390625 
Q 38.8125 6.390625 42.859375 10.171875 
Q 46.921875 13.96875 46.921875 20.515625 
Q 46.921875 27.09375 42.890625 30.859375 
Q 38.875 34.625 31.78125 34.625 
z
M 21.921875 38.8125 
Q 15.578125 40.375 12.03125 44.71875 
Q 8.5 49.078125 8.5 55.328125 
Q 8.5 64.0625 14.71875 69.140625 
Q 20.953125 74.21875 31.78125 74.21875 
Q 42.671875 74.21875 48.875 69.140625 
Q 55.078125 64.0625 55.078125 55.328125 
Q 55.078125 49.078125 51.53125 44.71875 
Q 48 40.375 41.703125 38.8125 
Q 48.828125 37.15625 52.796875 32.3125 
Q 56.78125 27.484375 56.78125 20.515625 
Q 56.78125 9.90625 50.3125 4.234375 
Q 43.84375 -1.421875 31.78125 -1.421875 
Q 19.734375 -1.421875 13.25 4.234375 
Q 6.78125 9.90625 6.78125 20.515625 
Q 6.78125 27.484375 10.78125 32.3125 
Q 14.796875 37.15625 21.921875 38.8125 
z
M 18.3125 54.390625 
Q 18.3125 48.734375 21.84375 45.5625 
Q 25.390625 42.390625 31.78125 42.390625 
Q 38.140625 42.390625 41.71875 45.5625 
Q 45.3125 48.734375 45.3125 54.390625 
Q 45.3125 60.0625 41.71875 63.234375 
Q 38.140625 66.40625 31.78125 66.40625 
Q 25.390625 66.40625 21.84375 63.234375 
Q 18.3125 60.0625 18.3125 54.390625 
z
" id="DejaVuSans-56"/>
       </defs>
       <use xlink:href="#DejaVuSans-48"/>
       <use x="63.623047" xlink:href="#DejaVuSans-46"/>
       <use x="95.410156" xlink:href="#DejaVuSans-48"/>
       <use x="159.033203" xlink:href="#DejaVuSans-56"/>
      </g>
     </g>
    </g>
   </g>
   <g id="line2d_34">
    <path clip-path="url(#p68735f00fc)" d="M 27 232.843217 
L 28.430779 234.439969 
L 29.861618 235.734353 
L 31.29236 235.866231 
L 32.723078 236.704147 
L 34.153854 237.412925 
L 35.584509 238.493735 
L 37.01529 240.162589 
L 38.446041 241.270662 
L 39.876803 241.30674 
L 41.307616 241.777734 
L 42.738362 242.597737 
L 44.169147 242.997547 
L 45.59986 243.406301 
L 47.030621 244.074019 
L 48.461441 245.23986 
L 49.892219 246.472592 
L 51.322937 246.995092 
L 52.753736 247.611435 
L 54.184477 247.528566 
L 55.615242 248.604673 
L 57.046023 250.820837 
L 58.476744 250.194872 
L 59.907434 250.478109 
L 61.338157 250.624937 
L 62.76871 251.616216 
L 64.19938 251.253222 
L 65.63008 252.043771 
L 67.060807 252.729044 
L 68.491668 251.36887 
L 69.922495 251.487667 
L 71.353373 253.055492 
L 72.784061 253.659616 
L 74.214956 254.307053 
L 75.645744 256.26888 
L 77.076547 256.458758 
L 78.507383 256.077182 
L 79.938194 257.447045 
L 81.369035 259.570928 
L 82.799758 258.582248 
L 84.230464 257.716666 
L 85.661157 257.871152 
L 87.091992 259.039527 
L 88.522692 261.295483 
L 89.953426 260.876008 
L 91.38416 259.862073 
L 92.814868 259.915828 
L 94.245722 260.26891 
L 95.676491 262.112018 
L 97.107277 261.264759 
L 98.538063 262.366252 
L 99.968902 262.7425 
L 101.39957 263.239564 
L 102.830267 263.667976 
L 104.261108 263.33977 
L 105.691976 263.317519 
L 107.122844 263.475219 
L 108.553525 265.371072 
L 109.984233 265.294714 
L 111.414985 265.068738 
L 112.845793 266.77866 
L 114.276554 266.631405 
L 115.707323 267.723135 
L 117.138049 266.973586 
L 118.568748 268.184361 
L 119.999581 269.003119 
L 121.430307 268.452557 
L 122.861179 268.953778 
L 124.29182 268.938602 
L 125.722702 269.737404 
L 127.153394 269.389267 
L 128.584186 270.374995 
L 130.01497 271.092972 
L 131.445709 270.924097 
L 132.876576 271.386496 
L 134.307356 271.665151 
L 135.738144 271.78183 
L 137.168976 271.886889 
L 138.599732 272.035334 
L 140.030516 272.12563 
L 141.461289 272.084175 
L 142.892048 272.180997 
L 144.322968 272.34814 
L 145.753822 272.387334 
L 147.184681 272.485095 
L 148.615504 272.644477 
L 150.046331 272.612839 
L 151.477263 272.616577 
L 152.907978 272.746737 
L 154.338632 272.683683 
L 155.76932 272.824533 
L 157.200088 272.895652 
L 158.630881 272.79635 
L 160.061694 272.56817 
L 161.492434 271.60841 
L 162.923165 271.800649 
L 164.353931 272.270471 
L 165.784657 271.659927 
L 167.215286 269.559547 
L 168.646015 270.982823 
L 170.0767 269.821303 
L 171.507502 269.054267 
L 172.938295 266.933467 
L 174.36907 267.291005 
L 175.799911 266.894435 
L 177.230629 265.11461 
L 178.661519 266.323985 
L 180.092186 265.395016 
L 181.522783 261.685861 
L 182.95367 258.465647 
L 184.3844 258.486317 
L 185.815195 258.430796 
L 187.246018 259.852382 
L 188.676805 257.213856 
L 190.107637 258.414362 
L 191.538397 256.301082 
L 192.96924 254.909373 
L 194.4 251.667789 
" style="fill:none;stroke:#fc8d62;stroke-linecap:square;stroke-width:2;"/>
   </g>
   <g id="line2d_35">
    <path clip-path="url(#p68735f00fc)" d="M 27 233.051668 
L 28.430779 234.201651 
L 29.861618 235.063576 
L 31.29236 235.832495 
L 32.723078 236.43812 
L 34.153854 236.77894 
L 35.584509 237.52111 
L 37.01529 238.648926 
L 38.446041 239.677458 
L 39.876803 240.592393 
L 41.307616 241.372465 
L 42.738362 241.825167 
L 44.169147 243.038201 
L 45.59986 244.124074 
L 47.030621 243.940005 
L 48.461441 244.515509 
L 49.892219 245.158013 
L 51.322937 246.18231 
L 52.753736 246.84729 
L 54.184477 247.186043 
L 55.615242 248.994798 
L 57.046023 249.643173 
L 58.476744 250.199 
L 59.907434 250.465353 
L 61.338157 251.204663 
L 62.76871 251.560025 
L 64.19938 252.314794 
L 65.63008 252.4669 
L 67.060807 254.924261 
L 68.491668 255.188349 
L 69.922495 256.464127 
L 71.353373 257.34008 
L 72.784061 258.263483 
L 74.214956 258.704205 
L 75.645744 259.679678 
L 77.076547 259.961282 
L 78.507383 260.251581 
L 79.938194 260.481327 
L 81.369035 260.767749 
L 82.799758 260.619811 
L 84.230464 260.887547 
L 85.661157 261.103729 
L 87.091992 260.586563 
L 88.522692 259.199006 
L 89.953426 257.870246 
L 91.38416 259.37774 
L 92.814868 260.257928 
L 94.245722 259.614929 
L 95.676491 257.359122 
L 97.107277 258.254754 
L 98.538063 258.27688 
L 99.968902 257.289642 
L 101.39957 254.964032 
L 102.830267 255.128117 
L 104.261108 253.508831 
L 105.691976 255.724733 
L 107.122844 254.817782 
L 108.553525 253.830561 
L 109.984233 253.838056 
L 111.414985 249.928912 
L 112.845793 249.362232 
L 114.276554 249.794311 
L 115.707323 249.533092 
L 117.138049 250.777892 
L 118.568748 252.737683 
L 119.999581 252.692145 
L 121.430307 249.133999 
L 122.861179 247.15352 
L 124.29182 247.490515 
L 125.722702 244.811743 
L 127.153394 244.39129 
L 128.584186 247.276523 
L 130.01497 245.739368 
L 131.445709 245.441546 
L 132.876576 243.445999 
L 134.307356 241.764044 
L 135.738144 241.034506 
L 137.168976 231.894363 
L 138.599732 228.684197 
L 140.030516 225.666183 
L 141.461289 225.740063 
L 142.892048 221.714481 
L 144.322968 224.713298 
L 145.753822 228.043827 
L 147.184681 225.602486 
L 148.615504 226.943538 
L 150.046331 227.569636 
L 151.477263 227.200697 
L 152.907978 229.201845 
L 154.338632 227.806147 
L 155.76932 220.819939 
L 157.200088 227.271489 
L 158.630881 225.862276 
L 160.061694 224.062371 
L 161.492434 221.043809 
L 162.923165 222.337723 
L 164.353931 216.788207 
L 165.784657 213.544604 
L 167.215286 206.608696 
L 168.646015 208.336887 
L 170.0767 206.775336 
L 171.507502 209.755222 
L 172.938295 208.928184 
L 174.36907 214.973535 
L 175.799911 212.133474 
L 177.230629 213.764487 
L 178.661519 217.216956 
L 180.092186 218.337185 
L 181.522783 213.58235 
L 182.95367 213.910981 
L 184.3844 211.964448 
L 185.815195 215.399028 
L 187.246018 210.417965 
L 188.676805 214.152534 
L 190.107637 214.947106 
L 191.538397 212.581601 
L 192.96924 215.93952 
L 194.4 208.117586 
" style="fill:none;stroke:#fc8d62;stroke-dasharray:1.5,2.475;stroke-dashoffset:0;stroke-opacity:0.7;stroke-width:1.5;"/>
   </g>
   <g id="patch_14">
    <path d="M 27 272.895652 
L 27 206.608696 
" style="fill:none;stroke:#a9a9a9;stroke-linecap:square;stroke-linejoin:miter;stroke-width:2;"/>
   </g>
   <g id="patch_15">
    <path d="M 194.4 272.895652 
L 194.4 206.608696 
" style="fill:none;"/>
   </g>
   <g id="patch_16">
    <path d="M 27 272.895652 
L 194.4 272.895652 
" style="fill:none;stroke:#a9a9a9;stroke-linecap:square;stroke-linejoin:miter;stroke-width:2;"/>
   </g>
   <g id="patch_17">
    <path d="M 27 206.608696 
L 194.4 206.608696 
" style="fill:none;"/>
   </g>
   <g id="text_15">
    <!-- L2 Error -->
    <g transform="translate(92.932734 203.608696)scale(0.09 -0.09)">
     <defs>
      <path d="M 9.8125 72.90625 
L 19.671875 72.90625 
L 19.671875 8.296875 
L 55.171875 8.296875 
L 55.171875 0 
L 9.8125 0 
z
" id="DejaVuSans-76"/>
      <path d="M 19.1875 8.296875 
L 53.609375 8.296875 
L 53.609375 0 
L 7.328125 0 
L 7.328125 8.296875 
Q 12.9375 14.109375 22.625 23.890625 
Q 32.328125 33.6875 34.8125 36.53125 
Q 39.546875 41.84375 41.421875 45.53125 
Q 43.3125 49.21875 43.3125 52.78125 
Q 43.3125 58.59375 39.234375 62.25 
Q 35.15625 65.921875 28.609375 65.921875 
Q 23.96875 65.921875 18.8125 64.3125 
Q 13.671875 62.703125 7.8125 59.421875 
L 7.8125 69.390625 
Q 13.765625 71.78125 18.9375 73 
Q 24.125 74.21875 28.421875 74.21875 
Q 39.75 74.21875 46.484375 68.546875 
Q 53.21875 62.890625 53.21875 53.421875 
Q 53.21875 48.921875 51.53125 44.890625 
Q 49.859375 40.875 45.40625 35.40625 
Q 44.1875 33.984375 37.640625 27.21875 
Q 31.109375 20.453125 19.1875 8.296875 
z
" id="DejaVuSans-50"/>
      <path d="M 9.8125 72.90625 
L 55.90625 72.90625 
L 55.90625 64.59375 
L 19.671875 64.59375 
L 19.671875 43.015625 
L 54.390625 43.015625 
L 54.390625 34.71875 
L 19.671875 34.71875 
L 19.671875 8.296875 
L 56.78125 8.296875 
L 56.78125 0 
L 9.8125 0 
z
" id="DejaVuSans-69"/>
     </defs>
     <use xlink:href="#DejaVuSans-76"/>
     <use x="55.712891" xlink:href="#DejaVuSans-50"/>
     <use x="119.335938" xlink:href="#DejaVuSans-32"/>
     <use x="151.123047" xlink:href="#DejaVuSans-69"/>
     <use x="214.306641" xlink:href="#DejaVuSans-114"/>
     <use x="253.669922" xlink:href="#DejaVuSans-114"/>
     <use x="292.533203" xlink:href="#DejaVuSans-111"/>
     <use x="353.714844" xlink:href="#DejaVuSans-114"/>
    </g>
   </g>
  </g>
  <g id="axes_4">
   <g id="patch_18">
    <path d="M 27 352.44 
L 194.4 352.44 
L 194.4 286.153043 
L 27 286.153043 
z
" style="fill:none;"/>
   </g>
   <g id="matplotlib.axis_7">
    <g id="xtick_16">
     <g id="line2d_36">
      <g>
       <use style="stroke:#000000;stroke-width:0.8;" x="52.753744" xlink:href="#m3f092983ab" y="352.44"/>
      </g>
     </g>
     <g id="text_16">
      <!-- 10 -->
      <g transform="translate(48.299994 363.258906)scale(0.07 -0.07)">
       <use xlink:href="#DejaVuSans-49"/>
       <use x="63.623047" xlink:href="#DejaVuSans-48"/>
      </g>
     </g>
    </g>
    <g id="xtick_17">
     <g id="line2d_37">
      <g>
       <use style="stroke:#000000;stroke-width:0.8;" x="81.369191" xlink:href="#m3f092983ab" y="352.44"/>
      </g>
     </g>
     <g id="text_17">
      <!-- 20 -->
      <g transform="translate(76.915441 363.258906)scale(0.07 -0.07)">
       <use xlink:href="#DejaVuSans-50"/>
       <use x="63.623047" xlink:href="#DejaVuSans-48"/>
      </g>
     </g>
    </g>
    <g id="xtick_18">
     <g id="line2d_38">
      <g>
       <use style="stroke:#000000;stroke-width:0.8;" x="109.984638" xlink:href="#m3f092983ab" y="352.44"/>
      </g>
     </g>
     <g id="text_18">
      <!-- 30 -->
      <g transform="translate(105.530888 363.258906)scale(0.07 -0.07)">
       <defs>
        <path d="M 40.578125 39.3125 
Q 47.65625 37.796875 51.625 33 
Q 55.609375 28.21875 55.609375 21.1875 
Q 55.609375 10.40625 48.1875 4.484375 
Q 40.765625 -1.421875 27.09375 -1.421875 
Q 22.515625 -1.421875 17.65625 -0.515625 
Q 12.796875 0.390625 7.625 2.203125 
L 7.625 11.71875 
Q 11.71875 9.328125 16.59375 8.109375 
Q 21.484375 6.890625 26.8125 6.890625 
Q 36.078125 6.890625 40.9375 10.546875 
Q 45.796875 14.203125 45.796875 21.1875 
Q 45.796875 27.640625 41.28125 31.265625 
Q 36.765625 34.90625 28.71875 34.90625 
L 20.21875 34.90625 
L 20.21875 43.015625 
L 29.109375 43.015625 
Q 36.375 43.015625 40.234375 45.921875 
Q 44.09375 48.828125 44.09375 54.296875 
Q 44.09375 59.90625 40.109375 62.90625 
Q 36.140625 65.921875 28.71875 65.921875 
Q 24.65625 65.921875 20.015625 65.03125 
Q 15.375 64.15625 9.8125 62.3125 
L 9.8125 71.09375 
Q 15.4375 72.65625 20.34375 73.4375 
Q 25.25 74.21875 29.59375 74.21875 
Q 40.828125 74.21875 47.359375 69.109375 
Q 53.90625 64.015625 53.90625 55.328125 
Q 53.90625 49.265625 50.4375 45.09375 
Q 46.96875 40.921875 40.578125 39.3125 
z
" id="DejaVuSans-51"/>
       </defs>
       <use xlink:href="#DejaVuSans-51"/>
       <use x="63.623047" xlink:href="#DejaVuSans-48"/>
      </g>
     </g>
    </g>
    <g id="xtick_19">
     <g id="line2d_39">
      <g>
       <use style="stroke:#000000;stroke-width:0.8;" x="138.600084" xlink:href="#m3f092983ab" y="352.44"/>
      </g>
     </g>
     <g id="text_19">
      <!-- 40 -->
      <g transform="translate(134.146334 363.258906)scale(0.07 -0.07)">
       <use xlink:href="#DejaVuSans-52"/>
       <use x="63.623047" xlink:href="#DejaVuSans-48"/>
      </g>
     </g>
    </g>
    <g id="xtick_20">
     <g id="line2d_40">
      <g>
       <use style="stroke:#000000;stroke-width:0.8;" x="167.215531" xlink:href="#m3f092983ab" y="352.44"/>
      </g>
     </g>
     <g id="text_20">
      <!-- 50 -->
      <g transform="translate(162.761781 363.258906)scale(0.07 -0.07)">
       <use xlink:href="#DejaVuSans-53"/>
       <use x="63.623047" xlink:href="#DejaVuSans-48"/>
      </g>
     </g>
    </g>
    <g id="text_21">
     <!-- Exploration time -->
     <g transform="translate(81.773594 372.033594)scale(0.07 -0.07)">
      <defs>
       <path d="M 54.890625 54.6875 
L 35.109375 28.078125 
L 55.90625 0 
L 45.3125 0 
L 29.390625 21.484375 
L 13.484375 0 
L 2.875 0 
L 24.125 28.609375 
L 4.6875 54.6875 
L 15.28125 54.6875 
L 29.78125 35.203125 
L 44.28125 54.6875 
z
" id="DejaVuSans-120"/>
       <path d="M 18.109375 8.203125 
L 18.109375 -20.796875 
L 9.078125 -20.796875 
L 9.078125 54.6875 
L 18.109375 54.6875 
L 18.109375 46.390625 
Q 20.953125 51.265625 25.265625 53.625 
Q 29.59375 56 35.59375 56 
Q 45.5625 56 51.78125 48.09375 
Q 58.015625 40.1875 58.015625 27.296875 
Q 58.015625 14.40625 51.78125 6.484375 
Q 45.5625 -1.421875 35.59375 -1.421875 
Q 29.59375 -1.421875 25.265625 0.953125 
Q 20.953125 3.328125 18.109375 8.203125 
z
M 48.6875 27.296875 
Q 48.6875 37.203125 44.609375 42.84375 
Q 40.53125 48.484375 33.40625 48.484375 
Q 26.265625 48.484375 22.1875 42.84375 
Q 18.109375 37.203125 18.109375 27.296875 
Q 18.109375 17.390625 22.1875 11.75 
Q 26.265625 6.109375 33.40625 6.109375 
Q 40.53125 6.109375 44.609375 11.75 
Q 48.6875 17.390625 48.6875 27.296875 
z
" id="DejaVuSans-112"/>
       <path d="M 9.421875 75.984375 
L 18.40625 75.984375 
L 18.40625 0 
L 9.421875 0 
z
" id="DejaVuSans-108"/>
       <path d="M 18.3125 70.21875 
L 18.3125 54.6875 
L 36.8125 54.6875 
L 36.8125 47.703125 
L 18.3125 47.703125 
L 18.3125 18.015625 
Q 18.3125 11.328125 20.140625 9.421875 
Q 21.96875 7.515625 27.59375 7.515625 
L 36.8125 7.515625 
L 36.8125 0 
L 27.59375 0 
Q 17.1875 0 13.234375 3.875 
Q 9.28125 7.765625 9.28125 18.015625 
L 9.28125 47.703125 
L 2.6875 47.703125 
L 2.6875 54.6875 
L 9.28125 54.6875 
L 9.28125 70.21875 
z
" id="DejaVuSans-116"/>
       <path d="M 52 44.1875 
Q 55.375 50.25 60.0625 53.125 
Q 64.75 56 71.09375 56 
Q 79.640625 56 84.28125 50.015625 
Q 88.921875 44.046875 88.921875 33.015625 
L 88.921875 0 
L 79.890625 0 
L 79.890625 32.71875 
Q 79.890625 40.578125 77.09375 44.375 
Q 74.3125 48.1875 68.609375 48.1875 
Q 61.625 48.1875 57.5625 43.546875 
Q 53.515625 38.921875 53.515625 30.90625 
L 53.515625 0 
L 44.484375 0 
L 44.484375 32.71875 
Q 44.484375 40.625 41.703125 44.40625 
Q 38.921875 48.1875 33.109375 48.1875 
Q 26.21875 48.1875 22.15625 43.53125 
Q 18.109375 38.875 18.109375 30.90625 
L 18.109375 0 
L 9.078125 0 
L 9.078125 54.6875 
L 18.109375 54.6875 
L 18.109375 46.1875 
Q 21.1875 51.21875 25.484375 53.609375 
Q 29.78125 56 35.6875 56 
Q 41.65625 56 45.828125 52.96875 
Q 50 49.953125 52 44.1875 
z
" id="DejaVuSans-109"/>
      </defs>
      <use xlink:href="#DejaVuSans-69"/>
      <use x="63.183594" xlink:href="#DejaVuSans-120"/>
      <use x="122.363281" xlink:href="#DejaVuSans-112"/>
      <use x="185.839844" xlink:href="#DejaVuSans-108"/>
      <use x="213.623047" xlink:href="#DejaVuSans-111"/>
      <use x="274.804688" xlink:href="#DejaVuSans-114"/>
      <use x="315.917969" xlink:href="#DejaVuSans-97"/>
      <use x="377.197266" xlink:href="#DejaVuSans-116"/>
      <use x="416.40625" xlink:href="#DejaVuSans-105"/>
      <use x="444.189453" xlink:href="#DejaVuSans-111"/>
      <use x="505.371094" xlink:href="#DejaVuSans-110"/>
      <use x="568.75" xlink:href="#DejaVuSans-32"/>
      <use x="600.537109" xlink:href="#DejaVuSans-116"/>
      <use x="639.746094" xlink:href="#DejaVuSans-105"/>
      <use x="667.529297" xlink:href="#DejaVuSans-109"/>
      <use x="764.941406" xlink:href="#DejaVuSans-101"/>
     </g>
    </g>
   </g>
   <g id="matplotlib.axis_8">
    <g id="ytick_11">
     <g id="line2d_41">
      <g>
       <use style="stroke:#000000;stroke-width:0.8;" x="27" xlink:href="#mee73f67937" y="352.44"/>
      </g>
     </g>
     <g id="text_22">
      <!-- 0.00 -->
      <g transform="translate(5.914062 355.099453)scale(0.07 -0.07)">
       <use xlink:href="#DejaVuSans-48"/>
       <use x="63.623047" xlink:href="#DejaVuSans-46"/>
       <use x="95.410156" xlink:href="#DejaVuSans-48"/>
       <use x="159.033203" xlink:href="#DejaVuSans-48"/>
      </g>
     </g>
    </g>
    <g id="ytick_12">
     <g id="line2d_42">
      <g>
       <use style="stroke:#000000;stroke-width:0.8;" x="27" xlink:href="#mee73f67937" y="333.027967"/>
      </g>
     </g>
     <g id="text_23">
      <!-- 0.25 -->
      <g transform="translate(5.914062 335.687421)scale(0.07 -0.07)">
       <use xlink:href="#DejaVuSans-48"/>
       <use x="63.623047" xlink:href="#DejaVuSans-46"/>
       <use x="95.410156" xlink:href="#DejaVuSans-50"/>
       <use x="159.033203" xlink:href="#DejaVuSans-53"/>
      </g>
     </g>
    </g>
    <g id="ytick_13">
     <g id="line2d_43">
      <g>
       <use style="stroke:#000000;stroke-width:0.8;" x="27" xlink:href="#mee73f67937" y="313.615935"/>
      </g>
     </g>
     <g id="text_24">
      <!-- 0.50 -->
      <g transform="translate(5.914062 316.275388)scale(0.07 -0.07)">
       <use xlink:href="#DejaVuSans-48"/>
       <use x="63.623047" xlink:href="#DejaVuSans-46"/>
       <use x="95.410156" xlink:href="#DejaVuSans-53"/>
       <use x="159.033203" xlink:href="#DejaVuSans-48"/>
      </g>
     </g>
    </g>
    <g id="ytick_14">
     <g id="line2d_44">
      <g>
       <use style="stroke:#000000;stroke-width:0.8;" x="27" xlink:href="#mee73f67937" y="294.203902"/>
      </g>
     </g>
     <g id="text_25">
      <!-- 0.75 -->
      <g transform="translate(5.914062 296.863355)scale(0.07 -0.07)">
       <defs>
        <path d="M 8.203125 72.90625 
L 55.078125 72.90625 
L 55.078125 68.703125 
L 28.609375 0 
L 18.3125 0 
L 43.21875 64.59375 
L 8.203125 64.59375 
z
" id="DejaVuSans-55"/>
       </defs>
       <use xlink:href="#DejaVuSans-48"/>
       <use x="63.623047" xlink:href="#DejaVuSans-46"/>
       <use x="95.410156" xlink:href="#DejaVuSans-55"/>
       <use x="159.033203" xlink:href="#DejaVuSans-53"/>
      </g>
     </g>
    </g>
   </g>
   <g id="line2d_45">
    <path clip-path="url(#p1bf2057e30)" d="M 27 340.419837 
L 28.430779 335.34082 
L 29.861618 331.018517 
L 31.29236 327.557758 
L 32.723078 324.044829 
L 34.153854 321.903881 
L 35.584509 318.630617 
L 37.01529 316.669319 
L 38.446041 314.755402 
L 39.876803 313.22806 
L 41.307616 312.062502 
L 42.738362 310.790448 
L 44.169147 308.68591 
L 45.59986 307.931213 
L 47.030621 306.829054 
L 48.461441 306.652558 
L 49.892219 305.399443 
L 51.322937 304.247119 
L 52.753736 303.720853 
L 54.184477 303.040816 
L 55.615242 302.250715 
L 57.046023 301.370589 
L 58.476744 300.923996 
L 59.907434 300.34499 
L 61.338157 299.596072 
L 62.76871 299.174692 
L 64.19938 298.699251 
L 65.63008 298.154291 
L 67.060807 297.645257 
L 68.491668 297.205269 
L 69.922495 296.882155 
L 71.353373 296.744336 
L 72.784061 296.464552 
L 74.214956 296.151106 
L 75.645744 295.94468 
L 77.076547 295.762009 
L 78.507383 295.510058 
L 79.938194 295.829655 
L 81.369035 295.356584 
L 82.799758 295.175599 
L 84.230464 294.958825 
L 85.661157 294.749716 
L 87.091992 294.537151 
L 88.522692 294.453099 
L 89.953426 294.104105 
L 91.38416 293.708596 
L 92.814868 293.725106 
L 94.245722 293.664007 
L 95.676491 293.457658 
L 97.107277 293.362821 
L 98.538063 293.012012 
L 99.968902 292.767179 
L 101.39957 292.573757 
L 102.830267 292.400761 
L 104.261108 292.162406 
L 105.691976 291.92852 
L 107.122844 291.739107 
L 108.553525 291.427302 
L 109.984233 291.148766 
L 111.414985 291.09981 
L 112.845793 290.97528 
L 114.276554 290.866508 
L 115.707323 290.710268 
L 117.138049 290.442415 
L 118.568748 290.217703 
L 119.999581 290.021856 
L 121.430307 289.99247 
L 122.861179 289.746124 
L 124.29182 289.606562 
L 125.722702 289.509842 
L 127.153394 289.431353 
L 128.584186 289.336735 
L 130.01497 289.285426 
L 131.445709 289.305005 
L 132.876576 289.177965 
L 134.307356 288.889654 
L 135.738144 288.868394 
L 137.168976 288.739076 
L 138.599732 288.550876 
L 140.030516 288.437552 
L 141.461289 288.349799 
L 142.892048 288.220312 
L 144.322968 288.143859 
L 145.753822 288.135439 
L 147.184681 288.002548 
L 148.615504 287.842196 
L 150.046331 287.813469 
L 151.477263 287.811062 
L 152.907978 287.723898 
L 154.338632 287.750435 
L 155.76932 287.630676 
L 157.200088 287.535697 
L 158.630881 287.43779 
L 160.061694 287.531119 
L 161.492434 287.416155 
L 162.923165 287.366291 
L 164.353931 287.194736 
L 165.784657 287.07287 
L 167.215286 286.988994 
L 168.646015 286.939261 
L 170.0767 286.970631 
L 171.507502 286.836049 
L 172.938295 286.794373 
L 174.36907 286.759784 
L 175.799911 286.726049 
L 177.230629 286.794828 
L 178.661519 286.703911 
L 180.092186 286.623868 
L 181.522783 286.541507 
L 182.95367 286.440841 
L 184.3844 286.432259 
L 185.815195 286.442383 
L 187.246018 286.335139 
L 188.676805 286.26754 
L 190.107637 286.245185 
L 191.538397 286.168866 
L 192.96924 286.16737 
L 194.4 286.153043 
" style="fill:none;stroke:#fc8d62;stroke-linecap:square;stroke-width:2;"/>
   </g>
   <g id="line2d_46">
    <path clip-path="url(#p1bf2057e30)" d="M 27 341.591124 
L 28.430779 338.815127 
L 29.861618 336.428699 
L 31.29236 333.781405 
L 32.723078 331.871994 
L 34.153854 330.540424 
L 35.584509 328.342849 
L 37.01529 326.912383 
L 38.446041 324.863205 
L 39.876803 323.006493 
L 41.307616 321.650231 
L 42.738362 320.61104 
L 44.169147 319.422378 
L 45.59986 319.011907 
L 47.030621 317.745713 
L 48.461441 316.430834 
L 49.892219 316.523182 
L 51.322937 315.838791 
L 52.753736 315.220359 
L 54.184477 315.048783 
L 55.615242 314.017807 
L 57.046023 313.145272 
L 58.476744 313.076998 
L 59.907434 312.786166 
L 61.338157 312.097519 
L 62.76871 311.849543 
L 64.19938 311.508248 
L 65.63008 310.492535 
L 67.060807 310.067141 
L 68.491668 309.326903 
L 69.922495 308.861933 
L 71.353373 308.361026 
L 72.784061 308.075036 
L 74.214956 307.682283 
L 75.645744 307.233517 
L 77.076547 307.417421 
L 78.507383 306.884741 
L 79.938194 306.5059 
L 81.369035 306.149136 
L 82.799758 305.917725 
L 84.230464 305.628886 
L 85.661157 305.26004 
L 87.091992 305.558933 
L 88.522692 304.992007 
L 89.953426 305.0726 
L 91.38416 304.630147 
L 92.814868 304.348939 
L 94.245722 304.125781 
L 95.676491 303.738557 
L 97.107277 303.633156 
L 98.538063 303.196531 
L 99.968902 303.103452 
L 101.39957 303.04407 
L 102.830267 303.026232 
L 104.261108 302.766247 
L 105.691976 302.564231 
L 107.122844 302.620365 
L 108.553525 302.392922 
L 109.984233 302.346461 
L 111.414985 302.395071 
L 112.845793 302.375623 
L 114.276554 302.039627 
L 115.707323 301.902181 
L 117.138049 301.915719 
L 118.568748 301.730803 
L 119.999581 301.497608 
L 121.430307 301.091738 
L 122.861179 301.165637 
L 124.29182 300.974094 
L 125.722702 300.897621 
L 127.153394 300.950411 
L 128.584186 300.936061 
L 130.01497 300.965193 
L 131.445709 301.061855 
L 132.876576 300.925565 
L 134.307356 300.828109 
L 135.738144 300.867742 
L 137.168976 300.741527 
L 138.599732 300.494699 
L 140.030516 300.333479 
L 141.461289 300.149963 
L 142.892048 299.940268 
L 144.322968 299.840383 
L 145.753822 299.859683 
L 147.184681 299.570678 
L 148.615504 299.57365 
L 150.046331 299.519171 
L 151.477263 299.541456 
L 152.907978 299.508503 
L 154.338632 299.389992 
L 155.76932 299.514979 
L 157.200088 299.36996 
L 158.630881 299.294478 
L 160.061694 299.192112 
L 161.492434 299.202306 
L 162.923165 299.050295 
L 164.353931 299.062358 
L 165.784657 299.045024 
L 167.215286 299.071959 
L 168.646015 299.140753 
L 170.0767 299.07622 
L 171.507502 299.11251 
L 172.938295 299.034442 
L 174.36907 299.032082 
L 175.799911 298.91833 
L 177.230629 298.746326 
L 178.661519 298.62968 
L 180.092186 298.445125 
L 181.522783 298.340284 
L 182.95367 298.300485 
L 184.3844 298.297626 
L 185.815195 298.249598 
L 187.246018 298.159831 
L 188.676805 298.131699 
L 190.107637 298.070097 
L 191.538397 298.11407 
L 192.96924 298.049282 
L 194.4 297.906461 
" style="fill:none;stroke:#fc8d62;stroke-dasharray:1.5,2.475;stroke-dashoffset:0;stroke-opacity:0.7;stroke-width:1.5;"/>
   </g>
   <g id="patch_19">
    <path d="M 27 352.44 
L 27 286.153043 
" style="fill:none;stroke:#a9a9a9;stroke-linecap:square;stroke-linejoin:miter;stroke-width:2;"/>
   </g>
   <g id="patch_20">
    <path d="M 194.4 352.44 
L 194.4 286.153043 
" style="fill:none;"/>
   </g>
   <g id="patch_21">
    <path d="M 27 352.44 
L 194.4 352.44 
" style="fill:none;stroke:#a9a9a9;stroke-linecap:square;stroke-linejoin:miter;stroke-width:2;"/>
   </g>
   <g id="patch_22">
    <path d="M 27 286.153043 
L 194.4 286.153043 
" style="fill:none;"/>
   </g>
   <g id="text_26">
    <!-- R2 -->
    <g transform="translate(104.710078 283.153043)scale(0.09 -0.09)">
     <use xlink:href="#DejaVuSans-82"/>
     <use x="69.482422" xlink:href="#DejaVuSans-50"/>
    </g>
   </g>
  </g>
 </g>
 <defs>
  <clipPath id="pd9d367dd18">
   <rect height="66.286957" width="167.4" x="27" y="47.52"/>
  </clipPath>
  <clipPath id="pe8f24492ce">
   <rect height="66.286957" width="167.4" x="27" y="127.064348"/>
  </clipPath>
  <clipPath id="p68735f00fc">
   <rect height="66.286957" width="167.4" x="27" y="206.608696"/>
  </clipPath>
  <clipPath id="p1bf2057e30">
   <rect height="66.286957" width="167.4" x="27" y="286.153043"/>
  </clipPath>
 </defs>
</svg>
