<?xml version="1.0" encoding="utf-8" standalone="no"?>
<!DOCTYPE svg PUBLIC "-//W3C//DTD SVG 1.1//EN"
  "http://www.w3.org/Graphics/SVG/1.1/DTD/svg11.dtd">
<!-- Created with matplotlib (https://matplotlib.org/) -->
<svg height="144pt" version="1.1" viewBox="0 0 72 144" width="72pt" xmlns="http://www.w3.org/2000/svg" xmlns:xlink="http://www.w3.org/1999/xlink">
 <metadata>
  <rdf:RDF xmlns:cc="http://creativecommons.org/ns#" xmlns:dc="http://purl.org/dc/elements/1.1/" xmlns:rdf="http://www.w3.org/1999/02/22-rdf-syntax-ns#">
   <cc:Work>
    <dc:type rdf:resource="http://purl.org/dc/dcmitype/StillImage"/>
    <dc:date>2021-10-13T14:14:06.861799</dc:date>
    <dc:format>image/svg+xml</dc:format>
    <dc:creator>
     <cc:Agent>
      <dc:title>Matplotlib v3.3.2, https://matplotlib.org/</dc:title>
     </cc:Agent>
    </dc:creator>
   </cc:Work>
  </rdf:RDF>
 </metadata>
 <defs>
  <style type="text/css">*{stroke-linecap:butt;stroke-linejoin:round;}</style>
 </defs>
 <g id="figure_1">
  <g id="patch_1">
   <path d="M 0 144 
L 72 144 
L 72 0 
L 0 0 
z
" style="fill:none;"/>
  </g>
  <g id="axes_1">
   <g id="patch_2">
    <path d="M 9 67.68 
L 64.8 67.68 
L 64.8 17.28 
L 9 17.28 
z
" style="fill:none;"/>
   </g>
   <g id="matplotlib.axis_1">
    <g id="xtick_1">
     <g id="line2d_1">
      <defs>
       <path d="M 0 0 
L 0 3.5 
" id="m25acee5a22" style="stroke:#a9a9a9;stroke-width:2;"/>
      </defs>
      <g>
       <use style="fill:#a9a9a9;stroke:#a9a9a9;stroke-width:2;" x="9" xlink:href="#m25acee5a22" y="67.68"/>
      </g>
     </g>
    </g>
    <g id="xtick_2">
     <g id="line2d_2">
      <g>
       <use style="fill:#a9a9a9;stroke:#a9a9a9;stroke-width:2;" x="36.9" xlink:href="#m25acee5a22" y="67.68"/>
      </g>
     </g>
    </g>
    <g id="xtick_3">
     <g id="line2d_3">
      <g>
       <use style="fill:#a9a9a9;stroke:#a9a9a9;stroke-width:2;" x="64.8" xlink:href="#m25acee5a22" y="67.68"/>
      </g>
     </g>
    </g>
   </g>
   <g id="matplotlib.axis_2">
    <g id="ytick_1">
     <g id="line2d_4">
      <defs>
       <path d="M 0 0 
L -3.5 0 
" id="m91b44152cd" style="stroke:#a9a9a9;stroke-width:2;"/>
      </defs>
      <g>
       <use style="fill:#a9a9a9;stroke:#a9a9a9;stroke-width:2;" x="9" xlink:href="#m91b44152cd" y="67.68"/>
      </g>
     </g>
    </g>
    <g id="ytick_2">
     <g id="line2d_5">
      <g>
       <use style="fill:#a9a9a9;stroke:#a9a9a9;stroke-width:2;" x="9" xlink:href="#m91b44152cd" y="61.657598"/>
      </g>
     </g>
    </g>
    <g id="ytick_3">
     <g id="line2d_6">
      <g>
       <use style="fill:#a9a9a9;stroke:#a9a9a9;stroke-width:2;" x="9" xlink:href="#m91b44152cd" y="55.635196"/>
      </g>
     </g>
    </g>
   </g>
   <g id="line2d_7">
    <path clip-path="url(#pca86667da0)" d="M 10.86031 58.138674 
L 11.79031 56.388884 
L 12.72031 54.456153 
L 13.65031 53.41359 
L 14.58031 51.422831 
L 15.51031 49.301168 
L 16.44031 48.909949 
L 17.37031 47.937857 
L 18.30031 46.895978 
L 19.23031 45.568694 
L 20.16031 44.963979 
L 21.09031 44.816222 
L 22.02031 43.893591 
L 22.95031 42.206197 
L 23.88031 41.013703 
L 24.81031 39.896754 
L 25.74031 38.528607 
L 26.67031 37.749584 
L 27.60031 36.787141 
L 28.53031 35.640375 
L 29.46031 35.458274 
L 30.39031 34.344432 
L 31.32031 33.54047 
L 32.25031 33.108232 
L 33.18031 33.03392 
L 34.11031 32.653726 
L 35.04031 31.826658 
L 35.97031 31.056124 
L 36.90031 31.208254 
L 37.83031 30.665427 
L 38.76031 29.381834 
L 39.69031 28.73682 
L 40.62031 29.436183 
L 41.55031 29.89773 
L 42.48031 30.063039 
L 43.41031 30.272897 
L 44.34031 29.967049 
L 45.27031 29.346517 
L 46.20031 28.484624 
L 47.13031 27.772164 
L 48.06031 27.431416 
L 48.99031 26.237022 
L 49.92031 25.65488 
L 50.85031 23.662121 
L 51.78031 22.575226 
L 52.71031 22.174008 
L 53.64031 21.702666 
L 54.57031 21.122567 
L 55.50031 20.455463 
L 56.43031 20.350363 
L 57.36031 20.208811 
L 58.29031 19.789553 
L 59.22031 20.281986 
L 60.15031 20.036305 
L 61.08031 19.224873 
L 62.01031 18.21312 
L 62.94031 17.58112 
L 63.87031 17.851176 
" style="fill:none;stroke:#fc8d62;stroke-linecap:square;stroke-width:2;"/>
   </g>
   <g id="line2d_8">
    <path clip-path="url(#pca86667da0)" d="M 10.86031 59.448014 
L 11.79031 58.029886 
L 12.72031 56.744653 
L 13.65031 54.555381 
L 14.58031 53.743404 
L 15.51031 53.282036 
L 16.44031 52.786758 
L 17.37031 51.830935 
L 18.30031 50.143438 
L 19.23031 49.16975 
L 20.16031 48.497306 
L 21.09031 46.305574 
L 22.02031 45.086467 
L 22.95031 43.299161 
L 23.88031 42.312411 
L 24.81031 42.256791 
L 25.74031 40.531184 
L 26.67031 38.742572 
L 27.60031 37.174967 
L 28.53031 35.883107 
L 29.46031 34.622261 
L 30.39031 33.83204 
L 31.32031 33.092215 
L 32.25031 31.761129 
L 33.18031 32.125228 
L 34.11031 31.476136 
L 35.04031 31.164471 
L 35.97031 31.706656 
L 36.90031 30.847008 
L 37.83031 31.05551 
L 38.76031 30.840618 
L 39.69031 30.5631 
L 40.62031 30.34136 
L 41.55031 29.465254 
L 42.48031 29.320238 
L 43.41031 29.007675 
L 44.34031 28.006224 
L 45.27031 27.357143 
L 46.20031 25.592908 
L 47.13031 25.252369 
L 48.06031 25.265762 
L 48.99031 24.374956 
L 49.92031 23.824131 
L 50.85031 23.147783 
L 51.78031 22.422204 
L 52.71031 22.561799 
L 53.64031 22.750232 
L 54.57031 22.887957 
L 55.50031 22.544029 
L 56.43031 22.37279 
L 57.36031 22.555221 
L 58.29031 22.616047 
L 59.22031 22.521755 
L 60.15031 21.829804 
L 61.08031 22.071718 
L 62.01031 22.057166 
L 62.94031 21.308416 
L 63.87031 21.300305 
" style="fill:none;stroke:#fc8d62;stroke-dasharray:1.5,1.5;stroke-dashoffset:0;stroke-opacity:0.7;stroke-width:1.5;"/>
   </g>
   <g id="patch_3">
    <path d="M 9 67.68 
L 9 17.28 
" style="fill:none;stroke:#a9a9a9;stroke-linecap:square;stroke-linejoin:miter;stroke-width:2;"/>
   </g>
   <g id="patch_4">
    <path d="M 64.8 67.68 
L 64.8 17.28 
" style="fill:none;"/>
   </g>
   <g id="patch_5">
    <path d="M 9 67.68 
L 64.8 67.68 
" style="fill:none;stroke:#a9a9a9;stroke-linecap:square;stroke-linejoin:miter;stroke-width:2;"/>
   </g>
   <g id="patch_6">
    <path d="M 9 17.28 
L 64.8 17.28 
" style="fill:none;"/>
   </g>
  </g>
  <g id="axes_2">
   <g id="patch_7">
    <path d="M 9 128.16 
L 64.8 128.16 
L 64.8 77.76 
L 9 77.76 
z
" style="fill:none;"/>
   </g>
   <g id="matplotlib.axis_3">
    <g id="xtick_4">
     <g id="line2d_9">
      <g>
       <use style="fill:#a9a9a9;stroke:#a9a9a9;stroke-width:2;" x="9" xlink:href="#m25acee5a22" y="128.16"/>
      </g>
     </g>
    </g>
    <g id="xtick_5">
     <g id="line2d_10">
      <g>
       <use style="fill:#a9a9a9;stroke:#a9a9a9;stroke-width:2;" x="36.9" xlink:href="#m25acee5a22" y="128.16"/>
      </g>
     </g>
    </g>
    <g id="xtick_6">
     <g id="line2d_11">
      <g>
       <use style="fill:#a9a9a9;stroke:#a9a9a9;stroke-width:2;" x="64.8" xlink:href="#m25acee5a22" y="128.16"/>
      </g>
     </g>
    </g>
   </g>
   <g id="matplotlib.axis_4">
    <g id="ytick_4">
     <g id="line2d_12">
      <g>
       <use style="fill:#a9a9a9;stroke:#a9a9a9;stroke-width:2;" x="9" xlink:href="#m91b44152cd" y="128.16"/>
      </g>
     </g>
    </g>
    <g id="ytick_5">
     <g id="line2d_13">
      <g>
       <use style="fill:#a9a9a9;stroke:#a9a9a9;stroke-width:2;" x="9" xlink:href="#m91b44152cd" y="102.96"/>
      </g>
     </g>
    </g>
    <g id="ytick_6">
     <g id="line2d_14">
      <g>
       <use style="fill:#a9a9a9;stroke:#a9a9a9;stroke-width:2;" x="9" xlink:href="#m91b44152cd" y="77.76"/>
      </g>
     </g>
    </g>
   </g>
   <g id="line2d_15">
    <path clip-path="url(#p63efd033b3)" d="M 10.86031 92.30812 
L 11.79031 91.374571 
L 12.72031 90.533619 
L 13.65031 89.996318 
L 14.58031 89.541647 
L 15.51031 89.342098 
L 16.44031 89.18482 
L 17.37031 89.054296 
L 18.30031 88.933984 
L 19.23031 88.77626 
L 20.16031 88.734649 
L 21.09031 88.756553 
L 22.02031 88.649726 
L 22.95031 88.512072 
L 23.88031 88.459679 
L 24.81031 88.392703 
L 25.74031 88.37046 
L 26.67031 88.354357 
L 27.60031 88.306326 
L 28.53031 88.277881 
L 29.46031 88.280204 
L 30.39031 88.257672 
L 31.32031 88.236123 
L 32.25031 88.237822 
L 33.18031 88.210353 
L 34.11031 88.205662 
L 35.04031 88.191481 
L 35.97031 88.182902 
L 36.90031 88.173784 
L 37.83031 88.160686 
L 38.76031 88.140682 
L 39.69031 88.131165 
L 40.62031 88.137851 
L 41.55031 88.137763 
L 42.48031 88.156249 
L 43.41031 88.156155 
L 44.34031 88.149341 
L 45.27031 88.142291 
L 46.20031 88.140907 
L 47.13031 88.125364 
L 48.06031 88.112124 
L 48.99031 88.099747 
L 49.92031 88.095776 
L 50.85031 88.072949 
L 51.78031 88.072505 
L 52.71031 88.074181 
L 53.64031 88.065325 
L 54.57031 88.073967 
L 55.50031 88.07683 
L 56.43031 88.088077 
L 57.36031 88.089427 
L 58.29031 88.092377 
L 59.22031 88.074425 
L 60.15031 88.059956 
L 61.08031 88.046421 
L 62.01031 88.034928 
L 62.94031 88.021709 
L 63.87031 88.01245 
" style="fill:none;stroke:#fc8d62;stroke-linecap:square;stroke-width:2;"/>
   </g>
   <g id="line2d_16">
    <path clip-path="url(#p63efd033b3)" d="M 10.86031 95.620205 
L 11.79031 93.874024 
L 12.72031 93.038065 
L 13.65031 92.284368 
L 14.58031 92.087487 
L 15.51031 91.947868 
L 16.44031 91.84527 
L 17.37031 91.649983 
L 18.30031 91.462115 
L 19.23031 91.403011 
L 20.16031 91.2517 
L 21.09031 91.040292 
L 22.02031 90.958635 
L 22.95031 90.907826 
L 23.88031 90.887834 
L 24.81031 90.909275 
L 25.74031 90.872649 
L 26.67031 90.810779 
L 27.60031 90.7836 
L 28.53031 90.749851 
L 29.46031 90.717464 
L 30.39031 90.658684 
L 31.32031 90.611387 
L 32.25031 90.570713 
L 33.18031 90.572058 
L 34.11031 90.602725 
L 35.04031 90.609091 
L 35.97031 90.612166 
L 36.90031 90.608767 
L 37.83031 90.573816 
L 38.76031 90.57865 
L 39.69031 90.560548 
L 40.62031 90.539728 
L 41.55031 90.559538 
L 42.48031 90.550508 
L 43.41031 90.53976 
L 44.34031 90.541265 
L 45.27031 90.553258 
L 46.20031 90.540354 
L 47.13031 90.540989 
L 48.06031 90.531967 
L 48.99031 90.51706 
L 49.92031 90.503649 
L 50.85031 90.515024 
L 51.78031 90.493621 
L 52.71031 90.484686 
L 53.64031 90.492484 
L 54.57031 90.494187 
L 55.50031 90.482185 
L 56.43031 90.479193 
L 57.36031 90.467745 
L 58.29031 90.470525 
L 59.22031 90.462726 
L 60.15031 90.447022 
L 61.08031 90.442337 
L 62.01031 90.436773 
L 62.94031 90.440196 
L 63.87031 90.432902 
" style="fill:none;stroke:#fc8d62;stroke-dasharray:1.5,1.5;stroke-dashoffset:0;stroke-opacity:0.7;stroke-width:1.5;"/>
   </g>
   <g id="patch_8">
    <path d="M 9 128.16 
L 9 77.76 
" style="fill:none;stroke:#a9a9a9;stroke-linecap:square;stroke-linejoin:miter;stroke-width:2;"/>
   </g>
   <g id="patch_9">
    <path d="M 64.8 128.16 
L 64.8 77.76 
" style="fill:none;"/>
   </g>
   <g id="patch_10">
    <path d="M 9 128.16 
L 64.8 128.16 
" style="fill:none;stroke:#a9a9a9;stroke-linecap:square;stroke-linejoin:miter;stroke-width:2;"/>
   </g>
   <g id="patch_11">
    <path d="M 9 77.76 
L 64.8 77.76 
" style="fill:none;"/>
   </g>
  </g>
 </g>
 <defs>
  <clipPath id="pca86667da0">
   <rect height="50.4" width="55.8" x="9" y="17.28"/>
  </clipPath>
  <clipPath id="p63efd033b3">
   <rect height="50.4" width="55.8" x="9" y="77.76"/>
  </clipPath>
 </defs>
</svg>
