<?xml version="1.0" encoding="utf-8" standalone="no"?>
<!DOCTYPE svg PUBLIC "-//W3C//DTD SVG 1.1//EN"
  "http://www.w3.org/Graphics/SVG/1.1/DTD/svg11.dtd">
<!-- Created with matplotlib (https://matplotlib.org/) -->
<svg height="144pt" version="1.1" viewBox="0 0 72 144" width="72pt" xmlns="http://www.w3.org/2000/svg" xmlns:xlink="http://www.w3.org/1999/xlink">
 <metadata>
  <rdf:RDF xmlns:cc="http://creativecommons.org/ns#" xmlns:dc="http://purl.org/dc/elements/1.1/" xmlns:rdf="http://www.w3.org/1999/02/22-rdf-syntax-ns#">
   <cc:Work>
    <dc:type rdf:resource="http://purl.org/dc/dcmitype/StillImage"/>
    <dc:date>2021-10-13T14:25:45.267824</dc:date>
    <dc:format>image/svg+xml</dc:format>
    <dc:creator>
     <cc:Agent>
      <dc:title>Matplotlib v3.3.2, https://matplotlib.org/</dc:title>
     </cc:Agent>
    </dc:creator>
   </cc:Work>
  </rdf:RDF>
 </metadata>
 <defs>
  <style type="text/css">*{stroke-linecap:butt;stroke-linejoin:round;}</style>
 </defs>
 <g id="figure_1">
  <g id="patch_1">
   <path d="M 0 144 
L 72 144 
L 72 0 
L 0 0 
z
" style="fill:none;"/>
  </g>
  <g id="axes_1">
   <g id="patch_2">
    <path d="M 9 67.68 
L 64.8 67.68 
L 64.8 17.28 
L 9 17.28 
z
" style="fill:none;"/>
   </g>
   <g id="matplotlib.axis_1">
    <g id="xtick_1">
     <g id="line2d_1">
      <defs>
       <path d="M 0 0 
L 0 3.5 
" id="m056d1e6df9" style="stroke:#a9a9a9;stroke-width:2;"/>
      </defs>
      <g>
       <use style="fill:#a9a9a9;stroke:#a9a9a9;stroke-width:2;" x="9" xlink:href="#m056d1e6df9" y="67.68"/>
      </g>
     </g>
    </g>
    <g id="xtick_2">
     <g id="line2d_2">
      <g>
       <use style="fill:#a9a9a9;stroke:#a9a9a9;stroke-width:2;" x="36.9" xlink:href="#m056d1e6df9" y="67.68"/>
      </g>
     </g>
    </g>
    <g id="xtick_3">
     <g id="line2d_3">
      <g>
       <use style="fill:#a9a9a9;stroke:#a9a9a9;stroke-width:2;" x="64.8" xlink:href="#m056d1e6df9" y="67.68"/>
      </g>
     </g>
    </g>
   </g>
   <g id="matplotlib.axis_2">
    <g id="ytick_1">
     <g id="line2d_4">
      <defs>
       <path d="M 0 0 
L -3.5 0 
" id="mabca8577fa" style="stroke:#a9a9a9;stroke-width:2;"/>
      </defs>
      <g>
       <use style="fill:#a9a9a9;stroke:#a9a9a9;stroke-width:2;" x="9" xlink:href="#mabca8577fa" y="67.68"/>
      </g>
     </g>
    </g>
    <g id="ytick_2">
     <g id="line2d_5">
      <g>
       <use style="fill:#a9a9a9;stroke:#a9a9a9;stroke-width:2;" x="9" xlink:href="#mabca8577fa" y="65.926423"/>
      </g>
     </g>
    </g>
    <g id="ytick_3">
     <g id="line2d_6">
      <g>
       <use style="fill:#a9a9a9;stroke:#a9a9a9;stroke-width:2;" x="9" xlink:href="#mabca8577fa" y="64.172845"/>
      </g>
     </g>
    </g>
   </g>
   <g id="line2d_7">
    <path clip-path="url(#pa49ba68120)" d="M 10.86031 60.013663 
L 11.79031 59.490124 
L 12.72031 59.245085 
L 13.65031 58.980078 
L 14.58031 58.070768 
L 15.51031 57.215411 
L 16.44031 56.512771 
L 17.37031 55.372992 
L 18.30031 54.874842 
L 19.23031 54.138893 
L 20.16031 53.086491 
L 21.09031 51.613194 
L 22.02031 50.280002 
L 22.95031 48.753642 
L 23.88031 47.156728 
L 24.81031 45.308669 
L 25.74031 43.918315 
L 26.67031 41.155814 
L 27.60031 39.177961 
L 28.53031 37.315079 
L 29.46031 36.082072 
L 30.39031 34.093073 
L 31.32031 31.557719 
L 32.25031 29.606198 
L 33.18031 27.693997 
L 34.11031 28.132984 
L 35.04031 27.259687 
L 35.97031 27.818231 
L 36.90031 29.001513 
L 37.83031 30.615942 
L 38.76031 31.530192 
L 39.69031 31.714548 
L 40.62031 31.928898 
L 41.55031 32.468194 
L 42.48031 32.886768 
L 43.41031 33.458325 
L 44.34031 33.640419 
L 45.27031 32.788209 
L 46.20031 32.477123 
L 47.13031 31.728902 
L 48.06031 30.180955 
L 48.99031 28.412216 
L 49.92031 26.96694 
L 50.85031 26.04082 
L 51.78031 25.364992 
L 52.71031 24.726944 
L 53.64031 22.985296 
L 54.57031 21.525728 
L 55.50031 20.726525 
L 56.43031 19.222868 
L 57.36031 17.698016 
L 58.29031 17.367679 
L 59.22031 18.454921 
L 60.15031 19.080815 
L 61.08031 19.901819 
L 62.01031 21.511464 
L 62.94031 22.537862 
L 63.87031 22.424144 
" style="fill:none;stroke:#fc8d62;stroke-linecap:square;stroke-width:2;"/>
   </g>
   <g id="line2d_8">
    <path clip-path="url(#pa49ba68120)" d="M 10.86031 61.217703 
L 11.79031 60.548026 
L 12.72031 60.122996 
L 13.65031 59.76797 
L 14.58031 59.281391 
L 15.51031 58.962245 
L 16.44031 57.898692 
L 17.37031 57.374628 
L 18.30031 56.236423 
L 19.23031 54.886943 
L 20.16031 54.094501 
L 21.09031 52.402275 
L 22.02031 51.507375 
L 22.95031 50.03026 
L 23.88031 49.103051 
L 24.81031 47.370713 
L 25.74031 45.576331 
L 26.67031 42.767101 
L 27.60031 41.164433 
L 28.53031 39.065663 
L 29.46031 35.451654 
L 30.39031 35.077404 
L 31.32031 33.559787 
L 32.25031 31.680606 
L 33.18031 30.892233 
L 34.11031 30.819641 
L 35.04031 31.570259 
L 35.97031 32.422395 
L 36.90031 33.007204 
L 37.83031 32.381226 
L 38.76031 32.258887 
L 39.69031 32.677686 
L 40.62031 32.16997 
L 41.55031 31.045557 
L 42.48031 30.203884 
L 43.41031 29.25017 
L 44.34031 28.1781 
L 45.27031 27.046631 
L 46.20031 27.065936 
L 47.13031 26.270018 
L 48.06031 24.778337 
L 48.99031 24.386884 
L 49.92031 23.7773 
L 50.85031 21.111531 
L 51.78031 19.66009 
L 52.71031 18.755518 
L 53.64031 18.795103 
L 54.57031 19.266869 
L 55.50031 18.523372 
L 56.43031 17.834585 
L 57.36031 17.304176 
L 58.29031 17.231321 
L 59.22031 15.976362 
L 60.15031 15.293376 
L 61.08031 14.818139 
L 62.01031 15.48493 
L 62.94031 15.947662 
L 63.87031 14.225539 
" style="fill:none;stroke:#fc8d62;stroke-dasharray:1.5,1.5;stroke-dashoffset:0;stroke-opacity:0.7;stroke-width:1.5;"/>
   </g>
   <g id="patch_3">
    <path d="M 9 67.68 
L 9 17.28 
" style="fill:none;stroke:#a9a9a9;stroke-linecap:square;stroke-linejoin:miter;stroke-width:2;"/>
   </g>
   <g id="patch_4">
    <path d="M 64.8 67.68 
L 64.8 17.28 
" style="fill:none;"/>
   </g>
   <g id="patch_5">
    <path d="M 9 67.68 
L 64.8 67.68 
" style="fill:none;stroke:#a9a9a9;stroke-linecap:square;stroke-linejoin:miter;stroke-width:2;"/>
   </g>
   <g id="patch_6">
    <path d="M 9 17.28 
L 64.8 17.28 
" style="fill:none;"/>
   </g>
  </g>
  <g id="axes_2">
   <g id="patch_7">
    <path d="M 9 128.16 
L 64.8 128.16 
L 64.8 77.76 
L 9 77.76 
z
" style="fill:none;"/>
   </g>
   <g id="matplotlib.axis_3">
    <g id="xtick_4">
     <g id="line2d_9">
      <g>
       <use style="fill:#a9a9a9;stroke:#a9a9a9;stroke-width:2;" x="9" xlink:href="#m056d1e6df9" y="128.16"/>
      </g>
     </g>
    </g>
    <g id="xtick_5">
     <g id="line2d_10">
      <g>
       <use style="fill:#a9a9a9;stroke:#a9a9a9;stroke-width:2;" x="36.9" xlink:href="#m056d1e6df9" y="128.16"/>
      </g>
     </g>
    </g>
    <g id="xtick_6">
     <g id="line2d_11">
      <g>
       <use style="fill:#a9a9a9;stroke:#a9a9a9;stroke-width:2;" x="64.8" xlink:href="#m056d1e6df9" y="128.16"/>
      </g>
     </g>
    </g>
   </g>
   <g id="matplotlib.axis_4">
    <g id="ytick_4">
     <g id="line2d_12">
      <g>
       <use style="fill:#a9a9a9;stroke:#a9a9a9;stroke-width:2;" x="9" xlink:href="#mabca8577fa" y="128.16"/>
      </g>
     </g>
    </g>
    <g id="ytick_5">
     <g id="line2d_13">
      <g>
       <use style="fill:#a9a9a9;stroke:#a9a9a9;stroke-width:2;" x="9" xlink:href="#mabca8577fa" y="102.96"/>
      </g>
     </g>
    </g>
    <g id="ytick_6">
     <g id="line2d_14">
      <g>
       <use style="fill:#a9a9a9;stroke:#a9a9a9;stroke-width:2;" x="9" xlink:href="#mabca8577fa" y="77.76"/>
      </g>
     </g>
    </g>
   </g>
   <g id="line2d_15">
    <path clip-path="url(#p94d540c9ed)" d="M 10.86031 86.217145 
L 11.79031 86.082562 
L 12.72031 86.057008 
L 13.65031 86.030344 
L 14.58031 85.99357 
L 15.51031 85.945215 
L 16.44031 85.901662 
L 17.37031 85.877048 
L 18.30031 85.848639 
L 19.23031 85.878354 
L 20.16031 85.851643 
L 21.09031 85.838915 
L 22.02031 85.829399 
L 22.95031 85.818992 
L 23.88031 85.816587 
L 24.81031 85.811178 
L 25.74031 85.805818 
L 26.67031 85.808173 
L 27.60031 85.790731 
L 28.53031 85.783521 
L 29.46031 85.790079 
L 30.39031 85.784111 
L 31.32031 85.772289 
L 32.25031 85.777303 
L 33.18031 85.772858 
L 34.11031 85.763793 
L 35.04031 85.760349 
L 35.97031 85.760733 
L 36.90031 85.753776 
L 37.83031 85.750518 
L 38.76031 85.746654 
L 39.69031 85.751335 
L 40.62031 85.749528 
L 41.55031 85.758803 
L 42.48031 85.759469 
L 43.41031 85.770919 
L 44.34031 85.778821 
L 45.27031 85.783974 
L 46.20031 85.786246 
L 47.13031 85.788569 
L 48.06031 85.78684 
L 48.99031 85.786756 
L 49.92031 85.782391 
L 50.85031 85.776281 
L 51.78031 85.772622 
L 52.71031 85.771253 
L 53.64031 85.761912 
L 54.57031 85.758894 
L 55.50031 85.759786 
L 56.43031 85.759365 
L 57.36031 85.760345 
L 58.29031 85.753711 
L 59.22031 85.750158 
L 60.15031 85.74931 
L 61.08031 85.7445 
L 62.01031 85.745025 
L 62.94031 85.745964 
L 63.87031 85.747362 
" style="fill:none;stroke:#fc8d62;stroke-linecap:square;stroke-width:2;"/>
   </g>
   <g id="line2d_16">
    <path clip-path="url(#p94d540c9ed)" d="M 10.86031 92.264672 
L 11.79031 92.15202 
L 12.72031 92.061373 
L 13.65031 91.983456 
L 14.58031 91.911182 
L 15.51031 91.864748 
L 16.44031 91.747766 
L 17.37031 91.746971 
L 18.30031 91.724265 
L 19.23031 91.696211 
L 20.16031 91.691504 
L 21.09031 91.691384 
L 22.02031 91.700072 
L 22.95031 91.693686 
L 23.88031 91.687996 
L 24.81031 91.687516 
L 25.74031 91.672954 
L 26.67031 91.663607 
L 27.60031 91.651568 
L 28.53031 91.648307 
L 29.46031 91.642885 
L 30.39031 91.634908 
L 31.32031 91.624556 
L 32.25031 91.6185 
L 33.18031 91.619629 
L 34.11031 91.620774 
L 35.04031 91.616495 
L 35.97031 91.611198 
L 36.90031 91.597521 
L 37.83031 91.590204 
L 38.76031 91.582018 
L 39.69031 91.575776 
L 40.62031 91.581779 
L 41.55031 91.588161 
L 42.48031 91.591059 
L 43.41031 91.590041 
L 44.34031 91.59193 
L 45.27031 91.599056 
L 46.20031 91.602201 
L 47.13031 91.603307 
L 48.06031 91.605231 
L 48.99031 91.606815 
L 49.92031 91.610094 
L 50.85031 91.60536 
L 51.78031 91.607321 
L 52.71031 91.602778 
L 53.64031 91.5986 
L 54.57031 91.592522 
L 55.50031 91.594081 
L 56.43031 91.595607 
L 57.36031 91.594843 
L 58.29031 91.590913 
L 59.22031 91.587034 
L 60.15031 91.580943 
L 61.08031 91.576232 
L 62.01031 91.572967 
L 62.94031 91.570361 
L 63.87031 91.568529 
" style="fill:none;stroke:#fc8d62;stroke-dasharray:1.5,1.5;stroke-dashoffset:0;stroke-opacity:0.7;stroke-width:1.5;"/>
   </g>
   <g id="patch_8">
    <path d="M 9 128.16 
L 9 77.76 
" style="fill:none;stroke:#a9a9a9;stroke-linecap:square;stroke-linejoin:miter;stroke-width:2;"/>
   </g>
   <g id="patch_9">
    <path d="M 64.8 128.16 
L 64.8 77.76 
" style="fill:none;"/>
   </g>
   <g id="patch_10">
    <path d="M 9 128.16 
L 64.8 128.16 
" style="fill:none;stroke:#a9a9a9;stroke-linecap:square;stroke-linejoin:miter;stroke-width:2;"/>
   </g>
   <g id="patch_11">
    <path d="M 9 77.76 
L 64.8 77.76 
" style="fill:none;"/>
   </g>
  </g>
 </g>
 <defs>
  <clipPath id="pa49ba68120">
   <rect height="50.4" width="55.8" x="9" y="17.28"/>
  </clipPath>
  <clipPath id="p94d540c9ed">
   <rect height="50.4" width="55.8" x="9" y="77.76"/>
  </clipPath>
 </defs>
</svg>
