<?xml version="1.0" encoding="utf-8" standalone="no"?>
<!DOCTYPE svg PUBLIC "-//W3C//DTD SVG 1.1//EN"
  "http://www.w3.org/Graphics/SVG/1.1/DTD/svg11.dtd">
<!-- Created with matplotlib (https://matplotlib.org/) -->
<svg height="144pt" version="1.1" viewBox="0 0 72 144" width="72pt" xmlns="http://www.w3.org/2000/svg" xmlns:xlink="http://www.w3.org/1999/xlink">
 <metadata>
  <rdf:RDF xmlns:cc="http://creativecommons.org/ns#" xmlns:dc="http://purl.org/dc/elements/1.1/" xmlns:rdf="http://www.w3.org/1999/02/22-rdf-syntax-ns#">
   <cc:Work>
    <dc:type rdf:resource="http://purl.org/dc/dcmitype/StillImage"/>
    <dc:date>2021-10-13T15:34:57.463059</dc:date>
    <dc:format>image/svg+xml</dc:format>
    <dc:creator>
     <cc:Agent>
      <dc:title>Matplotlib v3.3.2, https://matplotlib.org/</dc:title>
     </cc:Agent>
    </dc:creator>
   </cc:Work>
  </rdf:RDF>
 </metadata>
 <defs>
  <style type="text/css">*{stroke-linecap:butt;stroke-linejoin:round;}</style>
 </defs>
 <g id="figure_1">
  <g id="patch_1">
   <path d="M 0 144 
L 72 144 
L 72 0 
L 0 0 
z
" style="fill:none;"/>
  </g>
  <g id="axes_1">
   <g id="patch_2">
    <path d="M 9 67.68 
L 64.8 67.68 
L 64.8 17.28 
L 9 17.28 
z
" style="fill:none;"/>
   </g>
   <g id="matplotlib.axis_1">
    <g id="xtick_1">
     <g id="line2d_1">
      <defs>
       <path d="M 0 0 
L 0 3.5 
" id="mcd15462bdc" style="stroke:#a9a9a9;stroke-width:2;"/>
      </defs>
      <g>
       <use style="fill:#a9a9a9;stroke:#a9a9a9;stroke-width:2;" x="9" xlink:href="#mcd15462bdc" y="67.68"/>
      </g>
     </g>
    </g>
    <g id="xtick_2">
     <g id="line2d_2">
      <g>
       <use style="fill:#a9a9a9;stroke:#a9a9a9;stroke-width:2;" x="36.9" xlink:href="#mcd15462bdc" y="67.68"/>
      </g>
     </g>
    </g>
    <g id="xtick_3">
     <g id="line2d_3">
      <g>
       <use style="fill:#a9a9a9;stroke:#a9a9a9;stroke-width:2;" x="64.8" xlink:href="#mcd15462bdc" y="67.68"/>
      </g>
     </g>
    </g>
   </g>
   <g id="matplotlib.axis_2">
    <g id="ytick_1">
     <g id="line2d_4">
      <defs>
       <path d="M 0 0 
L -3.5 0 
" id="m3773367e26" style="stroke:#a9a9a9;stroke-width:2;"/>
      </defs>
      <g>
       <use style="fill:#a9a9a9;stroke:#a9a9a9;stroke-width:2;" x="9" xlink:href="#m3773367e26" y="67.68"/>
      </g>
     </g>
    </g>
    <g id="ytick_2">
     <g id="line2d_5">
      <g>
       <use style="fill:#a9a9a9;stroke:#a9a9a9;stroke-width:2;" x="9" xlink:href="#m3773367e26" y="55.080758"/>
      </g>
     </g>
    </g>
    <g id="ytick_3">
     <g id="line2d_6">
      <g>
       <use style="fill:#a9a9a9;stroke:#a9a9a9;stroke-width:2;" x="9" xlink:href="#m3773367e26" y="42.481517"/>
      </g>
     </g>
    </g>
   </g>
   <g id="line2d_7">
    <path clip-path="url(#p7bff347566)" d="M 10.86031 58.242326 
L 11.79031 56.791799 
L 12.72031 55.304773 
L 13.65031 53.475373 
L 14.58031 52.714564 
L 15.51031 51.194205 
L 16.44031 49.698762 
L 17.37031 48.706383 
L 18.30031 47.891458 
L 19.23031 47.069274 
L 20.16031 46.271082 
L 21.09031 45.644979 
L 22.02031 44.875096 
L 22.95031 43.991894 
L 23.88031 42.4901 
L 24.81031 41.994083 
L 25.74031 41.445261 
L 26.67031 40.747706 
L 27.60031 40.047714 
L 28.53031 39.841001 
L 29.46031 38.71363 
L 30.39031 37.790408 
L 31.32031 36.754574 
L 32.25031 36.053929 
L 33.18031 34.721078 
L 34.11031 34.142465 
L 35.04031 33.495316 
L 35.97031 32.484508 
L 36.90031 31.690307 
L 37.83031 31.458651 
L 38.76031 30.541781 
L 39.69031 30.27888 
L 40.62031 29.790508 
L 41.55031 29.478984 
L 42.48031 28.677405 
L 43.41031 28.058279 
L 44.34031 27.872371 
L 45.27031 27.137358 
L 46.20031 26.519001 
L 47.13031 24.998476 
L 48.06031 24.087683 
L 48.99031 24.383385 
L 49.92031 23.849286 
L 50.85031 23.484848 
L 51.78031 22.926485 
L 52.71031 22.661136 
L 53.64031 22.524495 
L 54.57031 22.306247 
L 55.50031 21.404095 
L 56.43031 20.608812 
L 57.36031 20.315331 
L 58.29031 20.465023 
L 59.22031 20.18887 
L 60.15031 19.34702 
L 61.08031 18.856292 
L 62.01031 18.278705 
L 62.94031 18.176387 
L 63.87031 17.909962 
" style="fill:none;stroke:#fc8d62;stroke-linecap:square;stroke-width:2;"/>
   </g>
   <g id="line2d_8">
    <path clip-path="url(#p7bff347566)" d="M 10.86031 58.385933 
L 11.79031 57.186163 
L 12.72031 55.015631 
L 13.65031 53.110463 
L 14.58031 52.126356 
L 15.51031 49.959355 
L 16.44031 48.621107 
L 17.37031 47.441094 
L 18.30031 46.568222 
L 19.23031 45.160076 
L 20.16031 44.011868 
L 21.09031 42.547619 
L 22.02031 41.008104 
L 22.95031 40.169593 
L 23.88031 39.062666 
L 24.81031 37.980479 
L 25.74031 36.896481 
L 26.67031 36.009112 
L 27.60031 34.605958 
L 28.53031 33.415072 
L 29.46031 32.675527 
L 30.39031 31.959504 
L 31.32031 31.1563 
L 32.25031 30.847874 
L 33.18031 29.290126 
L 34.11031 29.243155 
L 35.04031 27.423312 
L 35.97031 27.13124 
L 36.90031 26.335908 
L 37.83031 26.218783 
L 38.76031 25.961539 
L 39.69031 25.401131 
L 40.62031 25.734178 
L 41.55031 25.160055 
L 42.48031 23.784664 
L 43.41031 23.09732 
L 44.34031 23.032499 
L 45.27031 22.971565 
L 46.20031 22.155783 
L 47.13031 21.783206 
L 48.06031 21.665133 
L 48.99031 20.613392 
L 49.92031 20.196867 
L 50.85031 19.633676 
L 51.78031 18.6832 
L 52.71031 17.128826 
L 53.64031 15.612043 
L 54.57031 14.84823 
L 55.50031 14.047431 
L 56.43031 13.647653 
L 57.36031 13.414029 
L 58.29031 13.369534 
L 59.22031 12.904924 
L 60.15031 12.149614 
L 61.08031 12.704017 
L 62.01031 11.533008 
L 62.94031 10.639926 
L 63.87031 10.743637 
" style="fill:none;stroke:#fc8d62;stroke-dasharray:1.5,1.5;stroke-dashoffset:0;stroke-opacity:0.7;stroke-width:1.5;"/>
   </g>
   <g id="patch_3">
    <path d="M 9 67.68 
L 9 17.28 
" style="fill:none;stroke:#a9a9a9;stroke-linecap:square;stroke-linejoin:miter;stroke-width:2;"/>
   </g>
   <g id="patch_4">
    <path d="M 64.8 67.68 
L 64.8 17.28 
" style="fill:none;"/>
   </g>
   <g id="patch_5">
    <path d="M 9 67.68 
L 64.8 67.68 
" style="fill:none;stroke:#a9a9a9;stroke-linecap:square;stroke-linejoin:miter;stroke-width:2;"/>
   </g>
   <g id="patch_6">
    <path d="M 9 17.28 
L 64.8 17.28 
" style="fill:none;"/>
   </g>
  </g>
  <g id="axes_2">
   <g id="patch_7">
    <path d="M 9 128.16 
L 64.8 128.16 
L 64.8 77.76 
L 9 77.76 
z
" style="fill:none;"/>
   </g>
   <g id="matplotlib.axis_3">
    <g id="xtick_4">
     <g id="line2d_9">
      <g>
       <use style="fill:#a9a9a9;stroke:#a9a9a9;stroke-width:2;" x="9" xlink:href="#mcd15462bdc" y="128.16"/>
      </g>
     </g>
    </g>
    <g id="xtick_5">
     <g id="line2d_10">
      <g>
       <use style="fill:#a9a9a9;stroke:#a9a9a9;stroke-width:2;" x="36.9" xlink:href="#mcd15462bdc" y="128.16"/>
      </g>
     </g>
    </g>
    <g id="xtick_6">
     <g id="line2d_11">
      <g>
       <use style="fill:#a9a9a9;stroke:#a9a9a9;stroke-width:2;" x="64.8" xlink:href="#mcd15462bdc" y="128.16"/>
      </g>
     </g>
    </g>
   </g>
   <g id="matplotlib.axis_4">
    <g id="ytick_4">
     <g id="line2d_12">
      <g>
       <use style="fill:#a9a9a9;stroke:#a9a9a9;stroke-width:2;" x="9" xlink:href="#m3773367e26" y="128.16"/>
      </g>
     </g>
    </g>
    <g id="ytick_5">
     <g id="line2d_13">
      <g>
       <use style="fill:#a9a9a9;stroke:#a9a9a9;stroke-width:2;" x="9" xlink:href="#m3773367e26" y="102.96"/>
      </g>
     </g>
    </g>
    <g id="ytick_6">
     <g id="line2d_14">
      <g>
       <use style="fill:#a9a9a9;stroke:#a9a9a9;stroke-width:2;" x="9" xlink:href="#m3773367e26" y="77.76"/>
      </g>
     </g>
    </g>
   </g>
   <g id="line2d_15">
    <path clip-path="url(#p9dcc74d8c2)" d="M 10.86031 117.691013 
L 11.79031 115.998955 
L 12.72031 115.351374 
L 13.65031 114.272745 
L 14.58031 113.676319 
L 15.51031 113.219104 
L 16.44031 113.082636 
L 17.37031 112.903956 
L 18.30031 112.662591 
L 19.23031 112.4275 
L 20.16031 112.404743 
L 21.09031 112.199065 
L 22.02031 112.267331 
L 22.95031 112.044606 
L 23.88031 111.783778 
L 24.81031 111.591138 
L 25.74031 111.613208 
L 26.67031 111.497892 
L 27.60031 111.380602 
L 28.53031 111.343673 
L 29.46031 111.178934 
L 30.39031 111.11021 
L 31.32031 110.9886 
L 32.25031 110.903111 
L 33.18031 110.8385 
L 34.11031 110.682993 
L 35.04031 110.649262 
L 35.97031 110.637981 
L 36.90031 110.543308 
L 37.83031 110.594272 
L 38.76031 110.484531 
L 39.69031 110.456146 
L 40.62031 110.35773 
L 41.55031 110.23398 
L 42.48031 110.316065 
L 43.41031 110.377907 
L 44.34031 110.434366 
L 45.27031 110.451184 
L 46.20031 110.482103 
L 47.13031 110.296632 
L 48.06031 110.273338 
L 48.99031 110.275741 
L 49.92031 110.223231 
L 50.85031 110.190288 
L 51.78031 110.088224 
L 52.71031 110.076801 
L 53.64031 110.114823 
L 54.57031 110.060235 
L 55.50031 110.065635 
L 56.43031 110.038032 
L 57.36031 109.972839 
L 58.29031 110.041576 
L 59.22031 110.074763 
L 60.15031 110.096691 
L 61.08031 110.136206 
L 62.01031 110.108255 
L 62.94031 110.091676 
L 63.87031 110.062022 
" style="fill:none;stroke:#fc8d62;stroke-linecap:square;stroke-width:2;"/>
   </g>
   <g id="line2d_16">
    <path clip-path="url(#p9dcc74d8c2)" d="M 10.86031 108.60595 
L 11.79031 104.869325 
L 12.72031 102.537599 
L 13.65031 101.299524 
L 14.58031 100.038913 
L 15.51031 98.985846 
L 16.44031 98.382202 
L 17.37031 97.835888 
L 18.30031 97.488064 
L 19.23031 97.29091 
L 20.16031 97.124935 
L 21.09031 97.000928 
L 22.02031 96.786864 
L 22.95031 96.708313 
L 23.88031 96.682122 
L 24.81031 96.575642 
L 25.74031 96.329153 
L 26.67031 96.306508 
L 27.60031 96.246878 
L 28.53031 96.141977 
L 29.46031 96.035726 
L 30.39031 96.077447 
L 31.32031 95.983925 
L 32.25031 95.802038 
L 33.18031 95.796492 
L 34.11031 95.755197 
L 35.04031 95.686631 
L 35.97031 95.653692 
L 36.90031 95.627148 
L 37.83031 95.56073 
L 38.76031 95.496246 
L 39.69031 95.457027 
L 40.62031 95.451993 
L 41.55031 95.474299 
L 42.48031 95.436427 
L 43.41031 95.425368 
L 44.34031 95.320158 
L 45.27031 95.244842 
L 46.20031 95.221302 
L 47.13031 95.169534 
L 48.06031 95.133096 
L 48.99031 95.126852 
L 49.92031 95.165371 
L 50.85031 95.168917 
L 51.78031 95.16303 
L 52.71031 95.084299 
L 53.64031 95.05308 
L 54.57031 95.111083 
L 55.50031 95.072817 
L 56.43031 95.026052 
L 57.36031 95.022228 
L 58.29031 95.005718 
L 59.22031 94.970495 
L 60.15031 94.975436 
L 61.08031 94.972933 
L 62.01031 94.960845 
L 62.94031 94.962598 
L 63.87031 94.961947 
" style="fill:none;stroke:#fc8d62;stroke-dasharray:1.5,1.5;stroke-dashoffset:0;stroke-opacity:0.7;stroke-width:1.5;"/>
   </g>
   <g id="patch_8">
    <path d="M 9 128.16 
L 9 77.76 
" style="fill:none;stroke:#a9a9a9;stroke-linecap:square;stroke-linejoin:miter;stroke-width:2;"/>
   </g>
   <g id="patch_9">
    <path d="M 64.8 128.16 
L 64.8 77.76 
" style="fill:none;"/>
   </g>
   <g id="patch_10">
    <path d="M 9 128.16 
L 64.8 128.16 
" style="fill:none;stroke:#a9a9a9;stroke-linecap:square;stroke-linejoin:miter;stroke-width:2;"/>
   </g>
   <g id="patch_11">
    <path d="M 9 77.76 
L 64.8 77.76 
" style="fill:none;"/>
   </g>
  </g>
 </g>
 <defs>
  <clipPath id="p7bff347566">
   <rect height="50.4" width="55.8" x="9" y="17.28"/>
  </clipPath>
  <clipPath id="p9dcc74d8c2">
   <rect height="50.4" width="55.8" x="9" y="77.76"/>
  </clipPath>
 </defs>
</svg>
