<?xml version="1.0" encoding="utf-8" standalone="no"?>
<!DOCTYPE svg PUBLIC "-//W3C//DTD SVG 1.1//EN"
  "http://www.w3.org/Graphics/SVG/1.1/DTD/svg11.dtd">
<!-- Created with matplotlib (https://matplotlib.org/) -->
<svg height="144pt" version="1.1" viewBox="0 0 72 144" width="72pt" xmlns="http://www.w3.org/2000/svg" xmlns:xlink="http://www.w3.org/1999/xlink">
 <metadata>
  <rdf:RDF xmlns:cc="http://creativecommons.org/ns#" xmlns:dc="http://purl.org/dc/elements/1.1/" xmlns:rdf="http://www.w3.org/1999/02/22-rdf-syntax-ns#">
   <cc:Work>
    <dc:type rdf:resource="http://purl.org/dc/dcmitype/StillImage"/>
    <dc:date>2021-10-13T14:18:59.261648</dc:date>
    <dc:format>image/svg+xml</dc:format>
    <dc:creator>
     <cc:Agent>
      <dc:title>Matplotlib v3.3.2, https://matplotlib.org/</dc:title>
     </cc:Agent>
    </dc:creator>
   </cc:Work>
  </rdf:RDF>
 </metadata>
 <defs>
  <style type="text/css">*{stroke-linecap:butt;stroke-linejoin:round;}</style>
 </defs>
 <g id="figure_1">
  <g id="patch_1">
   <path d="M 0 144 
L 72 144 
L 72 0 
L 0 0 
z
" style="fill:none;"/>
  </g>
  <g id="axes_1">
   <g id="patch_2">
    <path d="M 9 67.68 
L 64.8 67.68 
L 64.8 17.28 
L 9 17.28 
z
" style="fill:none;"/>
   </g>
   <g id="matplotlib.axis_1">
    <g id="xtick_1">
     <g id="line2d_1">
      <defs>
       <path d="M 0 0 
L 0 3.5 
" id="mfa487efc61" style="stroke:#a9a9a9;stroke-width:2;"/>
      </defs>
      <g>
       <use style="fill:#a9a9a9;stroke:#a9a9a9;stroke-width:2;" x="9" xlink:href="#mfa487efc61" y="67.68"/>
      </g>
     </g>
    </g>
    <g id="xtick_2">
     <g id="line2d_2">
      <g>
       <use style="fill:#a9a9a9;stroke:#a9a9a9;stroke-width:2;" x="36.9" xlink:href="#mfa487efc61" y="67.68"/>
      </g>
     </g>
    </g>
    <g id="xtick_3">
     <g id="line2d_3">
      <g>
       <use style="fill:#a9a9a9;stroke:#a9a9a9;stroke-width:2;" x="64.8" xlink:href="#mfa487efc61" y="67.68"/>
      </g>
     </g>
    </g>
   </g>
   <g id="matplotlib.axis_2">
    <g id="ytick_1">
     <g id="line2d_4">
      <defs>
       <path d="M 0 0 
L -3.5 0 
" id="m8e7acbd2ea" style="stroke:#a9a9a9;stroke-width:2;"/>
      </defs>
      <g>
       <use style="fill:#a9a9a9;stroke:#a9a9a9;stroke-width:2;" x="9" xlink:href="#m8e7acbd2ea" y="67.68"/>
      </g>
     </g>
    </g>
    <g id="ytick_2">
     <g id="line2d_5">
      <g>
       <use style="fill:#a9a9a9;stroke:#a9a9a9;stroke-width:2;" x="9" xlink:href="#m8e7acbd2ea" y="48.423147"/>
      </g>
     </g>
    </g>
    <g id="ytick_3">
     <g id="line2d_6">
      <g>
       <use style="fill:#a9a9a9;stroke:#a9a9a9;stroke-width:2;" x="9" xlink:href="#m8e7acbd2ea" y="29.166295"/>
      </g>
     </g>
    </g>
   </g>
   <g id="line2d_7">
    <path clip-path="url(#pf44591a4d2)" d="M 10.86031 57.969196 
L 11.79031 56.641616 
L 12.72031 55.007864 
L 13.65031 53.409041 
L 14.58031 51.897346 
L 15.51031 49.592283 
L 16.44031 48.069052 
L 17.37031 47.313221 
L 18.30031 45.887178 
L 19.23031 45.156459 
L 20.16031 44.444701 
L 21.09031 43.020402 
L 22.02031 41.838793 
L 22.95031 41.129096 
L 23.88031 40.690293 
L 24.81031 39.514267 
L 25.74031 39.461475 
L 26.67031 38.877812 
L 27.60031 38.043318 
L 28.53031 38.189127 
L 29.46031 37.92769 
L 30.39031 37.393291 
L 31.32031 36.751098 
L 32.25031 36.22144 
L 33.18031 36.032285 
L 34.11031 35.215425 
L 35.04031 33.942789 
L 35.97031 33.463062 
L 36.90031 33.382106 
L 37.83031 33.150275 
L 38.76031 32.595896 
L 39.69031 31.481303 
L 40.62031 30.436182 
L 41.55031 29.894408 
L 42.48031 29.906196 
L 43.41031 29.868868 
L 44.34031 28.902447 
L 45.27031 29.161077 
L 46.20031 28.654769 
L 47.13031 27.855349 
L 48.06031 27.195698 
L 48.99031 26.661148 
L 49.92031 26.742736 
L 50.85031 26.126483 
L 51.78031 25.392087 
L 52.71031 24.907795 
L 53.64031 24.172321 
L 54.57031 23.547385 
L 55.50031 22.985153 
L 56.43031 22.355052 
L 57.36031 22.094557 
L 58.29031 21.583059 
L 59.22031 21.527386 
L 60.15031 21.024533 
L 61.08031 20.34171 
L 62.01031 19.510186 
L 62.94031 18.418684 
L 63.87031 18.242843 
" style="fill:none;stroke:#fc8d62;stroke-linecap:square;stroke-width:2;"/>
   </g>
   <g id="line2d_8">
    <path clip-path="url(#pf44591a4d2)" d="M 10.86031 56.202306 
L 11.79031 54.841397 
L 12.72031 53.246334 
L 13.65031 51.800655 
L 14.58031 50.571668 
L 15.51031 48.887111 
L 16.44031 47.963041 
L 17.37031 46.353556 
L 18.30031 45.038182 
L 19.23031 44.303065 
L 20.16031 43.312977 
L 21.09031 41.833463 
L 22.02031 40.877661 
L 22.95031 40.000629 
L 23.88031 39.288952 
L 24.81031 38.574848 
L 25.74031 37.445883 
L 26.67031 36.898656 
L 27.60031 36.654942 
L 28.53031 35.964817 
L 29.46031 34.547326 
L 30.39031 33.996008 
L 31.32031 33.438508 
L 32.25031 32.367023 
L 33.18031 31.393875 
L 34.11031 30.544341 
L 35.04031 31.059031 
L 35.97031 30.548528 
L 36.90031 29.463419 
L 37.83031 29.251622 
L 38.76031 28.524055 
L 39.69031 28.091929 
L 40.62031 27.853131 
L 41.55031 27.122958 
L 42.48031 27.228525 
L 43.41031 25.645118 
L 44.34031 25.163649 
L 45.27031 24.922907 
L 46.20031 24.72563 
L 47.13031 24.205978 
L 48.06031 24.105514 
L 48.99031 23.308 
L 49.92031 22.329646 
L 50.85031 21.835292 
L 51.78031 21.956126 
L 52.71031 20.706252 
L 53.64031 20.548942 
L 54.57031 20.52135 
L 55.50031 19.627963 
L 56.43031 19.484421 
L 57.36031 18.990653 
L 58.29031 18.062868 
L 59.22031 17.521339 
L 60.15031 16.786595 
L 61.08031 15.969663 
L 62.01031 14.918571 
L 62.94031 14.101465 
L 63.87031 13.090117 
" style="fill:none;stroke:#fc8d62;stroke-dasharray:1.5,1.5;stroke-dashoffset:0;stroke-opacity:0.7;stroke-width:1.5;"/>
   </g>
   <g id="patch_3">
    <path d="M 9 67.68 
L 9 17.28 
" style="fill:none;stroke:#a9a9a9;stroke-linecap:square;stroke-linejoin:miter;stroke-width:2;"/>
   </g>
   <g id="patch_4">
    <path d="M 64.8 67.68 
L 64.8 17.28 
" style="fill:none;"/>
   </g>
   <g id="patch_5">
    <path d="M 9 67.68 
L 64.8 67.68 
" style="fill:none;stroke:#a9a9a9;stroke-linecap:square;stroke-linejoin:miter;stroke-width:2;"/>
   </g>
   <g id="patch_6">
    <path d="M 9 17.28 
L 64.8 17.28 
" style="fill:none;"/>
   </g>
  </g>
  <g id="axes_2">
   <g id="patch_7">
    <path d="M 9 128.16 
L 64.8 128.16 
L 64.8 77.76 
L 9 77.76 
z
" style="fill:none;"/>
   </g>
   <g id="matplotlib.axis_3">
    <g id="xtick_4">
     <g id="line2d_9">
      <g>
       <use style="fill:#a9a9a9;stroke:#a9a9a9;stroke-width:2;" x="9" xlink:href="#mfa487efc61" y="128.16"/>
      </g>
     </g>
    </g>
    <g id="xtick_5">
     <g id="line2d_10">
      <g>
       <use style="fill:#a9a9a9;stroke:#a9a9a9;stroke-width:2;" x="36.9" xlink:href="#mfa487efc61" y="128.16"/>
      </g>
     </g>
    </g>
    <g id="xtick_6">
     <g id="line2d_11">
      <g>
       <use style="fill:#a9a9a9;stroke:#a9a9a9;stroke-width:2;" x="64.8" xlink:href="#mfa487efc61" y="128.16"/>
      </g>
     </g>
    </g>
   </g>
   <g id="matplotlib.axis_4">
    <g id="ytick_4">
     <g id="line2d_12">
      <g>
       <use style="fill:#a9a9a9;stroke:#a9a9a9;stroke-width:2;" x="9" xlink:href="#m8e7acbd2ea" y="128.16"/>
      </g>
     </g>
    </g>
    <g id="ytick_5">
     <g id="line2d_13">
      <g>
       <use style="fill:#a9a9a9;stroke:#a9a9a9;stroke-width:2;" x="9" xlink:href="#m8e7acbd2ea" y="102.96"/>
      </g>
     </g>
    </g>
    <g id="ytick_6">
     <g id="line2d_14">
      <g>
       <use style="fill:#a9a9a9;stroke:#a9a9a9;stroke-width:2;" x="9" xlink:href="#m8e7acbd2ea" y="77.76"/>
      </g>
     </g>
    </g>
   </g>
   <g id="line2d_15">
    <path clip-path="url(#p46ede80276)" d="M 10.86031 109.687891 
L 11.79031 105.464169 
L 12.72031 101.590261 
L 13.65031 99.087584 
L 14.58031 97.120027 
L 15.51031 95.163262 
L 16.44031 94.059805 
L 17.37031 93.141311 
L 18.30031 92.217405 
L 19.23031 91.87953 
L 20.16031 91.43188 
L 21.09031 90.614914 
L 22.02031 89.886374 
L 22.95031 89.551006 
L 23.88031 89.306406 
L 24.81031 88.971295 
L 25.74031 88.905202 
L 26.67031 88.715151 
L 27.60031 88.446151 
L 28.53031 88.309308 
L 29.46031 88.162193 
L 30.39031 88.043679 
L 31.32031 87.839259 
L 32.25031 87.679384 
L 33.18031 87.580034 
L 34.11031 87.40652 
L 35.04031 87.136571 
L 35.97031 87.104153 
L 36.90031 87.081536 
L 37.83031 86.961843 
L 38.76031 86.938332 
L 39.69031 86.723447 
L 40.62031 86.569261 
L 41.55031 86.476091 
L 42.48031 86.40936 
L 43.41031 86.351513 
L 44.34031 86.203589 
L 45.27031 86.208998 
L 46.20031 86.20773 
L 47.13031 86.094815 
L 48.06031 85.984581 
L 48.99031 85.933669 
L 49.92031 85.928226 
L 50.85031 85.830175 
L 51.78031 85.72739 
L 52.71031 85.652733 
L 53.64031 85.613115 
L 54.57031 85.536088 
L 55.50031 85.473057 
L 56.43031 85.411309 
L 57.36031 85.352329 
L 58.29031 85.288492 
L 59.22031 85.256667 
L 60.15031 85.175845 
L 61.08031 85.133015 
L 62.01031 85.138296 
L 62.94031 85.065468 
L 63.87031 85.027968 
" style="fill:none;stroke:#fc8d62;stroke-linecap:square;stroke-width:2;"/>
   </g>
   <g id="line2d_16">
    <path clip-path="url(#p46ede80276)" d="M 10.86031 111.532888 
L 11.79031 108.135101 
L 12.72031 106.303775 
L 13.65031 104.488404 
L 14.58031 102.61669 
L 15.51031 101.061577 
L 16.44031 100.36061 
L 17.37031 99.965243 
L 18.30031 99.443008 
L 19.23031 98.710732 
L 20.16031 97.982588 
L 21.09031 97.642658 
L 22.02031 97.381302 
L 22.95031 97.07826 
L 23.88031 96.757357 
L 24.81031 96.294643 
L 25.74031 96.071725 
L 26.67031 95.736331 
L 27.60031 95.352625 
L 28.53031 95.130007 
L 29.46031 95.134043 
L 30.39031 94.944865 
L 31.32031 94.734083 
L 32.25031 94.567137 
L 33.18031 94.511951 
L 34.11031 94.419578 
L 35.04031 94.495984 
L 35.97031 94.495857 
L 36.90031 94.366516 
L 37.83031 94.378666 
L 38.76031 94.254659 
L 39.69031 94.21766 
L 40.62031 94.229561 
L 41.55031 94.141652 
L 42.48031 94.091411 
L 43.41031 93.926784 
L 44.34031 93.847389 
L 45.27031 93.79835 
L 46.20031 93.735024 
L 47.13031 93.725204 
L 48.06031 93.648043 
L 48.99031 93.493228 
L 49.92031 93.478549 
L 50.85031 93.424437 
L 51.78031 93.374982 
L 52.71031 93.220391 
L 53.64031 93.133225 
L 54.57031 93.076682 
L 55.50031 93.019246 
L 56.43031 93.019048 
L 57.36031 92.925218 
L 58.29031 92.85179 
L 59.22031 92.828299 
L 60.15031 92.795719 
L 61.08031 92.712627 
L 62.01031 92.687267 
L 62.94031 92.706968 
L 63.87031 92.664133 
" style="fill:none;stroke:#fc8d62;stroke-dasharray:1.5,1.5;stroke-dashoffset:0;stroke-opacity:0.7;stroke-width:1.5;"/>
   </g>
   <g id="patch_8">
    <path d="M 9 128.16 
L 9 77.76 
" style="fill:none;stroke:#a9a9a9;stroke-linecap:square;stroke-linejoin:miter;stroke-width:2;"/>
   </g>
   <g id="patch_9">
    <path d="M 64.8 128.16 
L 64.8 77.76 
" style="fill:none;"/>
   </g>
   <g id="patch_10">
    <path d="M 9 128.16 
L 64.8 128.16 
" style="fill:none;stroke:#a9a9a9;stroke-linecap:square;stroke-linejoin:miter;stroke-width:2;"/>
   </g>
   <g id="patch_11">
    <path d="M 9 77.76 
L 64.8 77.76 
" style="fill:none;"/>
   </g>
  </g>
 </g>
 <defs>
  <clipPath id="pf44591a4d2">
   <rect height="50.4" width="55.8" x="9" y="17.28"/>
  </clipPath>
  <clipPath id="p46ede80276">
   <rect height="50.4" width="55.8" x="9" y="77.76"/>
  </clipPath>
 </defs>
</svg>
