<?xml version="1.0" encoding="utf-8" standalone="no"?>
<!DOCTYPE svg PUBLIC "-//W3C//DTD SVG 1.1//EN"
  "http://www.w3.org/Graphics/SVG/1.1/DTD/svg11.dtd">
<!-- Created with matplotlib (https://matplotlib.org/) -->
<svg height="144pt" version="1.1" viewBox="0 0 72 144" width="72pt" xmlns="http://www.w3.org/2000/svg" xmlns:xlink="http://www.w3.org/1999/xlink">
 <metadata>
  <rdf:RDF xmlns:cc="http://creativecommons.org/ns#" xmlns:dc="http://purl.org/dc/elements/1.1/" xmlns:rdf="http://www.w3.org/1999/02/22-rdf-syntax-ns#">
   <cc:Work>
    <dc:type rdf:resource="http://purl.org/dc/dcmitype/StillImage"/>
    <dc:date>2021-10-13T15:41:58.901026</dc:date>
    <dc:format>image/svg+xml</dc:format>
    <dc:creator>
     <cc:Agent>
      <dc:title>Matplotlib v3.3.2, https://matplotlib.org/</dc:title>
     </cc:Agent>
    </dc:creator>
   </cc:Work>
  </rdf:RDF>
 </metadata>
 <defs>
  <style type="text/css">*{stroke-linecap:butt;stroke-linejoin:round;}</style>
 </defs>
 <g id="figure_1">
  <g id="patch_1">
   <path d="M 0 144 
L 72 144 
L 72 0 
L 0 0 
z
" style="fill:none;"/>
  </g>
  <g id="axes_1">
   <g id="patch_2">
    <path d="M 9 67.68 
L 64.8 67.68 
L 64.8 17.28 
L 9 17.28 
z
" style="fill:none;"/>
   </g>
   <g id="matplotlib.axis_1">
    <g id="xtick_1">
     <g id="line2d_1">
      <defs>
       <path d="M 0 0 
L 0 3.5 
" id="mad6577ab16" style="stroke:#a9a9a9;stroke-width:2;"/>
      </defs>
      <g>
       <use style="fill:#a9a9a9;stroke:#a9a9a9;stroke-width:2;" x="9" xlink:href="#mad6577ab16" y="67.68"/>
      </g>
     </g>
    </g>
    <g id="xtick_2">
     <g id="line2d_2">
      <g>
       <use style="fill:#a9a9a9;stroke:#a9a9a9;stroke-width:2;" x="36.9" xlink:href="#mad6577ab16" y="67.68"/>
      </g>
     </g>
    </g>
    <g id="xtick_3">
     <g id="line2d_3">
      <g>
       <use style="fill:#a9a9a9;stroke:#a9a9a9;stroke-width:2;" x="64.8" xlink:href="#mad6577ab16" y="67.68"/>
      </g>
     </g>
    </g>
   </g>
   <g id="matplotlib.axis_2">
    <g id="ytick_1">
     <g id="line2d_4">
      <defs>
       <path d="M 0 0 
L -3.5 0 
" id="m648f98d401" style="stroke:#a9a9a9;stroke-width:2;"/>
      </defs>
      <g>
       <use style="fill:#a9a9a9;stroke:#a9a9a9;stroke-width:2;" x="9" xlink:href="#m648f98d401" y="67.68"/>
      </g>
     </g>
    </g>
    <g id="ytick_2">
     <g id="line2d_5">
      <g>
       <use style="fill:#a9a9a9;stroke:#a9a9a9;stroke-width:2;" x="9" xlink:href="#m648f98d401" y="52.424366"/>
      </g>
     </g>
    </g>
    <g id="ytick_3">
     <g id="line2d_6">
      <g>
       <use style="fill:#a9a9a9;stroke:#a9a9a9;stroke-width:2;" x="9" xlink:href="#m648f98d401" y="37.168731"/>
      </g>
     </g>
    </g>
   </g>
   <g id="line2d_7">
    <path clip-path="url(#p7fb853a530)" d="M 10.86031 58.07297 
L 11.79031 54.889878 
L 12.72031 53.378066 
L 13.65031 53.217699 
L 14.58031 51.646563 
L 15.51031 50.225042 
L 16.44031 48.781604 
L 17.37031 47.840007 
L 18.30031 46.940694 
L 19.23031 45.002581 
L 20.16031 44.987612 
L 21.09031 44.713273 
L 22.02031 43.626818 
L 22.95031 43.188182 
L 23.88031 42.018945 
L 24.81031 41.417368 
L 25.74031 40.680127 
L 26.67031 39.622526 
L 27.60031 38.915423 
L 28.53031 38.285567 
L 29.46031 37.251324 
L 30.39031 36.408439 
L 31.32031 36.007022 
L 32.25031 35.290947 
L 33.18031 34.670557 
L 34.11031 34.06954 
L 35.04031 33.251393 
L 35.97031 32.565732 
L 36.90031 31.835279 
L 37.83031 31.6873 
L 38.76031 31.268187 
L 39.69031 30.930939 
L 40.62031 30.029876 
L 41.55031 29.375633 
L 42.48031 28.615306 
L 43.41031 27.480117 
L 44.34031 26.994379 
L 45.27031 26.485784 
L 46.20031 26.195569 
L 47.13031 25.943668 
L 48.06031 25.439538 
L 48.99031 25.166688 
L 49.92031 24.541411 
L 50.85031 24.46033 
L 51.78031 23.680804 
L 52.71031 23.344327 
L 53.64031 22.74384 
L 54.57031 22.711719 
L 55.50031 22.291248 
L 56.43031 21.547889 
L 57.36031 21.511419 
L 58.29031 21.032571 
L 59.22031 20.678013 
L 60.15031 20.222587 
L 61.08031 19.865854 
L 62.01031 18.804695 
L 62.94031 18.736335 
L 63.87031 18.042782 
" style="fill:none;stroke:#fc8d62;stroke-linecap:square;stroke-width:2;"/>
   </g>
   <g id="line2d_8">
    <path clip-path="url(#p7fb853a530)" d="M 10.86031 59.25793 
L 11.79031 57.939473 
L 12.72031 56.642545 
L 13.65031 55.797077 
L 14.58031 55.598519 
L 15.51031 54.259259 
L 16.44031 52.800174 
L 17.37031 51.933219 
L 18.30031 51.001291 
L 19.23031 50.056714 
L 20.16031 49.339256 
L 21.09031 48.230021 
L 22.02031 47.364123 
L 22.95031 47.122362 
L 23.88031 47.082255 
L 24.81031 46.467013 
L 25.74031 46.277399 
L 26.67031 45.102009 
L 27.60031 44.801422 
L 28.53031 44.411619 
L 29.46031 43.723726 
L 30.39031 43.330336 
L 31.32031 42.772707 
L 32.25031 42.149829 
L 33.18031 41.137096 
L 34.11031 40.951803 
L 35.04031 40.240988 
L 35.97031 39.628479 
L 36.90031 38.255124 
L 37.83031 37.881902 
L 38.76031 37.432976 
L 39.69031 36.493478 
L 40.62031 35.82431 
L 41.55031 35.378716 
L 42.48031 34.773991 
L 43.41031 34.504833 
L 44.34031 33.806454 
L 45.27031 33.886288 
L 46.20031 33.754885 
L 47.13031 33.571622 
L 48.06031 33.183008 
L 48.99031 32.998454 
L 49.92031 32.537544 
L 50.85031 32.13875 
L 51.78031 31.513609 
L 52.71031 31.272851 
L 53.64031 31.037195 
L 54.57031 30.891221 
L 55.50031 31.056828 
L 56.43031 30.426099 
L 57.36031 29.911225 
L 58.29031 29.581388 
L 59.22031 29.473592 
L 60.15031 29.436205 
L 61.08031 29.342015 
L 62.01031 28.848823 
L 62.94031 28.070505 
L 63.87031 28.013311 
" style="fill:none;stroke:#fc8d62;stroke-dasharray:1.5,1.5;stroke-dashoffset:0;stroke-opacity:0.7;stroke-width:1.5;"/>
   </g>
   <g id="patch_3">
    <path d="M 9 67.68 
L 9 17.28 
" style="fill:none;stroke:#a9a9a9;stroke-linecap:square;stroke-linejoin:miter;stroke-width:2;"/>
   </g>
   <g id="patch_4">
    <path d="M 64.8 67.68 
L 64.8 17.28 
" style="fill:none;"/>
   </g>
   <g id="patch_5">
    <path d="M 9 67.68 
L 64.8 67.68 
" style="fill:none;stroke:#a9a9a9;stroke-linecap:square;stroke-linejoin:miter;stroke-width:2;"/>
   </g>
   <g id="patch_6">
    <path d="M 9 17.28 
L 64.8 17.28 
" style="fill:none;"/>
   </g>
  </g>
  <g id="axes_2">
   <g id="patch_7">
    <path d="M 9 128.16 
L 64.8 128.16 
L 64.8 77.76 
L 9 77.76 
z
" style="fill:none;"/>
   </g>
   <g id="matplotlib.axis_3">
    <g id="xtick_4">
     <g id="line2d_9">
      <g>
       <use style="fill:#a9a9a9;stroke:#a9a9a9;stroke-width:2;" x="9" xlink:href="#mad6577ab16" y="128.16"/>
      </g>
     </g>
    </g>
    <g id="xtick_5">
     <g id="line2d_10">
      <g>
       <use style="fill:#a9a9a9;stroke:#a9a9a9;stroke-width:2;" x="36.9" xlink:href="#mad6577ab16" y="128.16"/>
      </g>
     </g>
    </g>
    <g id="xtick_6">
     <g id="line2d_11">
      <g>
       <use style="fill:#a9a9a9;stroke:#a9a9a9;stroke-width:2;" x="64.8" xlink:href="#mad6577ab16" y="128.16"/>
      </g>
     </g>
    </g>
   </g>
   <g id="matplotlib.axis_4">
    <g id="ytick_4">
     <g id="line2d_12">
      <g>
       <use style="fill:#a9a9a9;stroke:#a9a9a9;stroke-width:2;" x="9" xlink:href="#m648f98d401" y="128.16"/>
      </g>
     </g>
    </g>
    <g id="ytick_5">
     <g id="line2d_13">
      <g>
       <use style="fill:#a9a9a9;stroke:#a9a9a9;stroke-width:2;" x="9" xlink:href="#m648f98d401" y="102.96"/>
      </g>
     </g>
    </g>
    <g id="ytick_6">
     <g id="line2d_14">
      <g>
       <use style="fill:#a9a9a9;stroke:#a9a9a9;stroke-width:2;" x="9" xlink:href="#m648f98d401" y="77.76"/>
      </g>
     </g>
    </g>
   </g>
   <g id="line2d_15">
    <path clip-path="url(#pdf80e53928)" d="M 10.86031 105.475085 
L 11.79031 100.461524 
L 12.72031 97.134514 
L 13.65031 95.479371 
L 14.58031 93.354548 
L 15.51031 92.035042 
L 16.44031 90.749678 
L 17.37031 89.614572 
L 18.30031 88.956459 
L 19.23031 88.035969 
L 20.16031 87.949197 
L 21.09031 87.600625 
L 22.02031 87.026379 
L 22.95031 86.849897 
L 23.88031 86.375343 
L 24.81031 85.98184 
L 25.74031 85.72635 
L 26.67031 85.422781 
L 27.60031 85.210756 
L 28.53031 85.00967 
L 29.46031 84.745543 
L 30.39031 84.61244 
L 31.32031 84.545928 
L 32.25031 84.390954 
L 33.18031 84.259721 
L 34.11031 84.162714 
L 35.04031 84.033428 
L 35.97031 83.952949 
L 36.90031 83.835855 
L 37.83031 83.800439 
L 38.76031 83.70351 
L 39.69031 83.636163 
L 40.62031 83.546665 
L 41.55031 83.499352 
L 42.48031 83.443253 
L 43.41031 83.374328 
L 44.34031 83.341472 
L 45.27031 83.264551 
L 46.20031 83.235473 
L 47.13031 83.193432 
L 48.06031 83.145074 
L 48.99031 83.10973 
L 49.92031 83.058835 
L 50.85031 83.024081 
L 51.78031 82.956702 
L 52.71031 82.930644 
L 53.64031 82.895234 
L 54.57031 82.905966 
L 55.50031 82.877479 
L 56.43031 82.846818 
L 57.36031 82.809626 
L 58.29031 82.788807 
L 59.22031 82.752001 
L 60.15031 82.692362 
L 61.08031 82.653189 
L 62.01031 82.621438 
L 62.94031 82.59278 
L 63.87031 82.540365 
" style="fill:none;stroke:#fc8d62;stroke-linecap:square;stroke-width:2;"/>
   </g>
   <g id="line2d_16">
    <path clip-path="url(#pdf80e53928)" d="M 10.86031 110.817113 
L 11.79031 108.048202 
L 12.72031 105.977153 
L 13.65031 104.328872 
L 14.58031 103.01612 
L 15.51031 101.567292 
L 16.44031 100.253859 
L 17.37031 99.121381 
L 18.30031 98.301115 
L 19.23031 97.434445 
L 20.16031 96.913931 
L 21.09031 96.318355 
L 22.02031 95.83664 
L 22.95031 95.554049 
L 23.88031 95.121424 
L 24.81031 94.803774 
L 25.74031 94.529523 
L 26.67031 94.148481 
L 27.60031 94.166298 
L 28.53031 93.897399 
L 29.46031 93.866 
L 30.39031 93.723163 
L 31.32031 93.559186 
L 32.25031 93.432968 
L 33.18031 93.252476 
L 34.11031 93.179192 
L 35.04031 93.047962 
L 35.97031 92.86052 
L 36.90031 92.628203 
L 37.83031 92.474771 
L 38.76031 92.406519 
L 39.69031 92.438657 
L 40.62031 92.341661 
L 41.55031 92.234846 
L 42.48031 92.163814 
L 43.41031 92.175461 
L 44.34031 92.02806 
L 45.27031 91.963813 
L 46.20031 92.050942 
L 47.13031 91.947642 
L 48.06031 91.906986 
L 48.99031 91.88412 
L 49.92031 91.835943 
L 50.85031 91.762756 
L 51.78031 91.666896 
L 52.71031 91.644133 
L 53.64031 91.644296 
L 54.57031 91.565345 
L 55.50031 91.43765 
L 56.43031 91.401211 
L 57.36031 91.34633 
L 58.29031 91.311023 
L 59.22031 91.383762 
L 60.15031 91.323908 
L 61.08031 91.310649 
L 62.01031 91.301125 
L 62.94031 91.230372 
L 63.87031 91.246912 
" style="fill:none;stroke:#fc8d62;stroke-dasharray:1.5,1.5;stroke-dashoffset:0;stroke-opacity:0.7;stroke-width:1.5;"/>
   </g>
   <g id="patch_8">
    <path d="M 9 128.16 
L 9 77.76 
" style="fill:none;stroke:#a9a9a9;stroke-linecap:square;stroke-linejoin:miter;stroke-width:2;"/>
   </g>
   <g id="patch_9">
    <path d="M 64.8 128.16 
L 64.8 77.76 
" style="fill:none;"/>
   </g>
   <g id="patch_10">
    <path d="M 9 128.16 
L 64.8 128.16 
" style="fill:none;stroke:#a9a9a9;stroke-linecap:square;stroke-linejoin:miter;stroke-width:2;"/>
   </g>
   <g id="patch_11">
    <path d="M 9 77.76 
L 64.8 77.76 
" style="fill:none;"/>
   </g>
  </g>
 </g>
 <defs>
  <clipPath id="p7fb853a530">
   <rect height="50.4" width="55.8" x="9" y="17.28"/>
  </clipPath>
  <clipPath id="pdf80e53928">
   <rect height="50.4" width="55.8" x="9" y="77.76"/>
  </clipPath>
 </defs>
</svg>
