<?xml version="1.0" encoding="utf-8" standalone="no"?>
<!DOCTYPE svg PUBLIC "-//W3C//DTD SVG 1.1//EN"
  "http://www.w3.org/Graphics/SVG/1.1/DTD/svg11.dtd">
<!-- Created with matplotlib (https://matplotlib.org/) -->
<svg height="144pt" version="1.1" viewBox="0 0 72 144" width="72pt" xmlns="http://www.w3.org/2000/svg" xmlns:xlink="http://www.w3.org/1999/xlink">
 <metadata>
  <rdf:RDF xmlns:cc="http://creativecommons.org/ns#" xmlns:dc="http://purl.org/dc/elements/1.1/" xmlns:rdf="http://www.w3.org/1999/02/22-rdf-syntax-ns#">
   <cc:Work>
    <dc:type rdf:resource="http://purl.org/dc/dcmitype/StillImage"/>
    <dc:date>2021-10-14T18:22:41.378658</dc:date>
    <dc:format>image/svg+xml</dc:format>
    <dc:creator>
     <cc:Agent>
      <dc:title>Matplotlib v3.3.2, https://matplotlib.org/</dc:title>
     </cc:Agent>
    </dc:creator>
   </cc:Work>
  </rdf:RDF>
 </metadata>
 <defs>
  <style type="text/css">*{stroke-linecap:butt;stroke-linejoin:round;}</style>
 </defs>
 <g id="figure_1">
  <g id="patch_1">
   <path d="M 0 144 
L 72 144 
L 72 0 
L 0 0 
z
" style="fill:none;"/>
  </g>
  <g id="axes_1">
   <g id="patch_2">
    <path d="M 9 67.68 
L 64.8 67.68 
L 64.8 17.28 
L 9 17.28 
z
" style="fill:none;"/>
   </g>
   <g id="matplotlib.axis_1">
    <g id="xtick_1">
     <g id="line2d_1">
      <defs>
       <path d="M 0 0 
L 0 3.5 
" id="m0788c659f7" style="stroke:#a9a9a9;stroke-width:2;"/>
      </defs>
      <g>
       <use style="fill:#a9a9a9;stroke:#a9a9a9;stroke-width:2;" x="9" xlink:href="#m0788c659f7" y="67.68"/>
      </g>
     </g>
    </g>
    <g id="xtick_2">
     <g id="line2d_2">
      <g>
       <use style="fill:#a9a9a9;stroke:#a9a9a9;stroke-width:2;" x="36.9" xlink:href="#m0788c659f7" y="67.68"/>
      </g>
     </g>
    </g>
    <g id="xtick_3">
     <g id="line2d_3">
      <g>
       <use style="fill:#a9a9a9;stroke:#a9a9a9;stroke-width:2;" x="64.8" xlink:href="#m0788c659f7" y="67.68"/>
      </g>
     </g>
    </g>
   </g>
   <g id="matplotlib.axis_2">
    <g id="ytick_1">
     <g id="line2d_4">
      <defs>
       <path d="M 0 0 
L -3.5 0 
" id="m340223132e" style="stroke:#a9a9a9;stroke-width:2;"/>
      </defs>
      <g>
       <use style="fill:#a9a9a9;stroke:#a9a9a9;stroke-width:2;" x="9" xlink:href="#m340223132e" y="67.68"/>
      </g>
     </g>
    </g>
    <g id="ytick_2">
     <g id="line2d_5">
      <g>
       <use style="fill:#a9a9a9;stroke:#a9a9a9;stroke-width:2;" x="9" xlink:href="#m340223132e" y="42.48"/>
      </g>
     </g>
    </g>
    <g id="ytick_3">
     <g id="line2d_6">
      <g>
       <use style="fill:#a9a9a9;stroke:#a9a9a9;stroke-width:2;" x="9" xlink:href="#m340223132e" y="17.28"/>
      </g>
     </g>
    </g>
   </g>
   <g id="line2d_7">
    <path clip-path="url(#paf33e63e15)" d="M 10.860031 59.023695 
L 11.790031 59.127992 
L 12.720031 60.261682 
L 13.650031 60.231894 
L 14.580031 60.98386 
L 15.510031 61.114588 
L 16.440031 60.720592 
L 17.370031 59.602225 
L 18.300031 60.067071 
L 19.230031 61.507459 
L 20.160031 61.907452 
L 21.090031 61.461997 
L 22.020031 61.151995 
L 22.950031 60.213174 
L 23.880031 60.613528 
L 24.810031 60.403109 
L 25.740031 60.355942 
L 26.670031 59.914266 
L 27.600031 59.696548 
L 28.530031 59.708122 
L 29.460031 59.699637 
L 30.390031 59.082011 
L 31.320031 59.200223 
L 32.250031 59.405402 
L 33.180031 59.377808 
L 34.110031 59.483407 
L 35.040031 59.380019 
L 35.970031 58.898752 
L 36.900031 58.913636 
L 37.830031 58.539817 
L 38.760031 58.783754 
L 39.690031 58.790262 
L 40.620031 58.625552 
L 41.550031 58.964078 
L 42.480031 58.685536 
L 43.410031 58.348344 
L 44.340031 58.012618 
L 45.270031 58.233952 
L 46.200031 57.613392 
L 47.130031 57.253215 
L 48.060031 56.88982 
L 48.990031 56.805704 
L 49.920031 56.66251 
L 50.850031 56.770416 
L 51.780031 56.096817 
L 52.710031 55.69492 
L 53.640031 56.097995 
L 54.570031 55.918925 
L 55.500031 54.915522 
L 56.430031 54.685259 
L 57.360031 54.733031 
L 58.290031 54.813383 
L 59.220031 55.104404 
L 60.150031 55.270312 
L 61.080031 55.384403 
L 62.010031 55.369998 
L 62.940031 55.090701 
L 63.870031 54.534074 
" style="fill:none;stroke:#fc8d62;stroke-linecap:square;stroke-width:2;"/>
   </g>
   <g id="line2d_8">
    <path clip-path="url(#paf33e63e15)" d="M 10.860031 58.565415 
L 11.790031 60.138403 
L 12.720031 60.191046 
L 13.650031 60.649385 
L 14.580031 61.59833 
L 15.510031 61.626198 
L 16.440031 62.08894 
L 17.370031 62.126394 
L 18.300031 61.976117 
L 19.230031 61.833317 
L 20.160031 62.437869 
L 21.090031 62.116083 
L 22.020031 62.503074 
L 22.950031 62.492365 
L 23.880031 62.524003 
L 24.810031 62.530376 
L 25.740031 63.225121 
L 26.670031 63.466709 
L 27.600031 63.372797 
L 28.530031 63.489092 
L 29.460031 63.192786 
L 30.390031 63.400638 
L 31.320031 63.04305 
L 32.250031 63.062117 
L 33.180031 63.171829 
L 34.110031 62.996586 
L 35.040031 63.002196 
L 35.970031 62.942492 
L 36.900031 63.137125 
L 37.830031 63.06962 
L 38.760031 63.193188 
L 39.690031 63.11575 
L 40.620031 63.252401 
L 41.550031 63.277043 
L 42.480031 63.293007 
L 43.410031 63.2979 
L 44.340031 63.072922 
L 45.270031 62.984395 
L 46.200031 62.971672 
L 47.130031 63.211229 
L 48.060031 63.580339 
L 48.990031 63.513328 
L 49.920031 63.45877 
L 50.850031 63.430569 
L 51.780031 63.389447 
L 52.710031 63.526276 
L 53.640031 63.443967 
L 54.570031 63.494153 
L 55.500031 63.562001 
L 56.430031 63.77655 
L 57.360031 63.628921 
L 58.290031 63.744691 
L 59.220031 63.893413 
L 60.150031 63.848637 
L 61.080031 63.944006 
L 62.010031 64.041813 
L 62.940031 64.017834 
L 63.870031 64.162376 
" style="fill:none;stroke:#fc8d62;stroke-dasharray:1.5,1.5;stroke-dashoffset:0;stroke-opacity:0.7;stroke-width:1.5;"/>
   </g>
   <g id="patch_3">
    <path d="M 9 67.68 
L 9 17.28 
" style="fill:none;stroke:#a9a9a9;stroke-linecap:square;stroke-linejoin:miter;stroke-width:2;"/>
   </g>
   <g id="patch_4">
    <path d="M 64.8 67.68 
L 64.8 17.28 
" style="fill:none;"/>
   </g>
   <g id="patch_5">
    <path d="M 9 67.68 
L 64.8 67.68 
" style="fill:none;stroke:#a9a9a9;stroke-linecap:square;stroke-linejoin:miter;stroke-width:2;"/>
   </g>
   <g id="patch_6">
    <path d="M 9 17.28 
L 64.8 17.28 
" style="fill:none;"/>
   </g>
  </g>
  <g id="axes_2">
   <g id="patch_7">
    <path d="M 9 128.16 
L 64.8 128.16 
L 64.8 77.76 
L 9 77.76 
z
" style="fill:none;"/>
   </g>
   <g id="matplotlib.axis_3">
    <g id="xtick_4">
     <g id="line2d_9">
      <g>
       <use style="fill:#a9a9a9;stroke:#a9a9a9;stroke-width:2;" x="9" xlink:href="#m0788c659f7" y="128.16"/>
      </g>
     </g>
    </g>
    <g id="xtick_5">
     <g id="line2d_10">
      <g>
       <use style="fill:#a9a9a9;stroke:#a9a9a9;stroke-width:2;" x="36.9" xlink:href="#m0788c659f7" y="128.16"/>
      </g>
     </g>
    </g>
    <g id="xtick_6">
     <g id="line2d_11">
      <g>
       <use style="fill:#a9a9a9;stroke:#a9a9a9;stroke-width:2;" x="64.8" xlink:href="#m0788c659f7" y="128.16"/>
      </g>
     </g>
    </g>
   </g>
   <g id="matplotlib.axis_4">
    <g id="ytick_4">
     <g id="line2d_12">
      <g>
       <use style="fill:#a9a9a9;stroke:#a9a9a9;stroke-width:2;" x="9" xlink:href="#m340223132e" y="128.16"/>
      </g>
     </g>
    </g>
    <g id="ytick_5">
     <g id="line2d_13">
      <g>
       <use style="fill:#a9a9a9;stroke:#a9a9a9;stroke-width:2;" x="9" xlink:href="#m340223132e" y="102.96"/>
      </g>
     </g>
    </g>
    <g id="ytick_6">
     <g id="line2d_14">
      <g>
       <use style="fill:#a9a9a9;stroke:#a9a9a9;stroke-width:2;" x="9" xlink:href="#m340223132e" y="77.76"/>
      </g>
     </g>
    </g>
   </g>
   <g id="line2d_15">
    <path clip-path="url(#p59f4c1e198)" d="M 10.860031 127.876711 
L 11.790031 127.717086 
L 12.720031 127.678821 
L 13.650031 127.550376 
L 14.580031 127.518176 
L 15.510031 127.439671 
L 16.440031 127.248706 
L 17.370031 127.080166 
L 18.300031 127.088638 
L 19.230031 127.023018 
L 20.160031 126.992266 
L 21.090031 126.900503 
L 22.020031 126.752334 
L 22.950031 126.621757 
L 23.880031 126.459975 
L 24.810031 126.244152 
L 25.740031 126.269958 
L 26.670031 126.200059 
L 27.600031 126.132612 
L 28.530031 126.012396 
L 29.460031 125.907326 
L 30.390031 125.781598 
L 31.320031 125.68819 
L 32.250031 125.652163 
L 33.180031 125.59322 
L 34.110031 125.588809 
L 35.040031 125.61659 
L 35.970031 125.510322 
L 36.900031 125.384104 
L 37.830031 125.270931 
L 38.760031 125.23224 
L 39.690031 125.242374 
L 40.620031 125.178711 
L 41.550031 125.031693 
L 42.480031 124.877293 
L 43.410031 124.686836 
L 44.340031 124.493358 
L 45.270031 124.499588 
L 46.200031 124.270899 
L 47.130031 124.147064 
L 48.060031 123.920996 
L 48.990031 123.702231 
L 49.920031 123.705693 
L 50.850031 123.587402 
L 51.780031 123.282237 
L 52.710031 123.133045 
L 53.640031 123.162739 
L 54.570031 123.084491 
L 55.500031 122.928492 
L 56.430031 122.853569 
L 57.360031 122.790722 
L 58.290031 122.758716 
L 59.220031 122.67733 
L 60.150031 122.631144 
L 61.080031 122.601201 
L 62.010031 122.579016 
L 62.940031 122.497338 
L 63.870031 122.368014 
" style="fill:none;stroke:#fc8d62;stroke-linecap:square;stroke-width:2;"/>
   </g>
   <g id="line2d_16">
    <path clip-path="url(#p59f4c1e198)" d="M 10.860031 127.821978 
L 11.790031 127.839715 
L 12.720031 127.967951 
L 13.650031 127.976394 
L 14.580031 127.985363 
L 15.510031 127.987944 
L 16.440031 128.02255 
L 17.370031 127.983911 
L 18.300031 127.896351 
L 19.230031 127.800144 
L 20.160031 127.886001 
L 21.090031 127.841628 
L 22.020031 127.888576 
L 22.950031 127.838552 
L 23.880031 127.839174 
L 24.810031 127.809394 
L 25.740031 127.855304 
L 26.670031 127.885948 
L 27.600031 127.858435 
L 28.530031 127.848885 
L 29.460031 127.842302 
L 30.390031 127.863174 
L 31.320031 127.844677 
L 32.250031 127.828901 
L 33.180031 127.82462 
L 34.110031 127.858754 
L 35.040031 127.815374 
L 35.970031 127.796412 
L 36.900031 127.788127 
L 37.830031 127.768713 
L 38.760031 127.784261 
L 39.690031 127.668471 
L 40.620031 127.697924 
L 41.550031 127.645651 
L 42.480031 127.693638 
L 43.410031 127.667425 
L 44.340031 127.699934 
L 45.270031 127.691806 
L 46.200031 127.734253 
L 47.130031 127.753216 
L 48.060031 127.720843 
L 48.990031 127.714913 
L 49.920031 127.696916 
L 50.850031 127.699267 
L 51.780031 127.68568 
L 52.710031 127.704137 
L 53.640031 127.692074 
L 54.570031 127.647029 
L 55.500031 127.667076 
L 56.430031 127.681633 
L 57.360031 127.665367 
L 58.290031 127.667159 
L 59.220031 127.66769 
L 60.150031 127.684509 
L 61.080031 127.671763 
L 62.010031 127.660728 
L 62.940031 127.582298 
L 63.870031 127.595374 
" style="fill:none;stroke:#fc8d62;stroke-dasharray:1.5,1.5;stroke-dashoffset:0;stroke-opacity:0.7;stroke-width:1.5;"/>
   </g>
   <g id="patch_8">
    <path d="M 9 128.16 
L 9 77.76 
" style="fill:none;stroke:#a9a9a9;stroke-linecap:square;stroke-linejoin:miter;stroke-width:2;"/>
   </g>
   <g id="patch_9">
    <path d="M 64.8 128.16 
L 64.8 77.76 
" style="fill:none;"/>
   </g>
   <g id="patch_10">
    <path d="M 9 128.16 
L 64.8 128.16 
" style="fill:none;stroke:#a9a9a9;stroke-linecap:square;stroke-linejoin:miter;stroke-width:2;"/>
   </g>
   <g id="patch_11">
    <path d="M 9 77.76 
L 64.8 77.76 
" style="fill:none;"/>
   </g>
  </g>
 </g>
 <defs>
  <clipPath id="paf33e63e15">
   <rect height="50.4" width="55.8" x="9" y="17.28"/>
  </clipPath>
  <clipPath id="p59f4c1e198">
   <rect height="50.4" width="55.8" x="9" y="77.76"/>
  </clipPath>
 </defs>
</svg>
