<?xml version="1.0" encoding="utf-8" standalone="no"?>
<!DOCTYPE svg PUBLIC "-//W3C//DTD SVG 1.1//EN"
  "http://www.w3.org/Graphics/SVG/1.1/DTD/svg11.dtd">
<!-- Created with matplotlib (https://matplotlib.org/) -->
<svg height="144pt" version="1.1" viewBox="0 0 72 144" width="72pt" xmlns="http://www.w3.org/2000/svg" xmlns:xlink="http://www.w3.org/1999/xlink">
 <metadata>
  <rdf:RDF xmlns:cc="http://creativecommons.org/ns#" xmlns:dc="http://purl.org/dc/elements/1.1/" xmlns:rdf="http://www.w3.org/1999/02/22-rdf-syntax-ns#">
   <cc:Work>
    <dc:type rdf:resource="http://purl.org/dc/dcmitype/StillImage"/>
    <dc:date>2021-10-13T14:22:02.580313</dc:date>
    <dc:format>image/svg+xml</dc:format>
    <dc:creator>
     <cc:Agent>
      <dc:title>Matplotlib v3.3.2, https://matplotlib.org/</dc:title>
     </cc:Agent>
    </dc:creator>
   </cc:Work>
  </rdf:RDF>
 </metadata>
 <defs>
  <style type="text/css">*{stroke-linecap:butt;stroke-linejoin:round;}</style>
 </defs>
 <g id="figure_1">
  <g id="patch_1">
   <path d="M 0 144 
L 72 144 
L 72 0 
L 0 0 
z
" style="fill:none;"/>
  </g>
  <g id="axes_1">
   <g id="patch_2">
    <path d="M 9 67.68 
L 64.8 67.68 
L 64.8 17.28 
L 9 17.28 
z
" style="fill:none;"/>
   </g>
   <g id="matplotlib.axis_1">
    <g id="xtick_1">
     <g id="line2d_1">
      <defs>
       <path d="M 0 0 
L 0 3.5 
" id="m13bb419461" style="stroke:#a9a9a9;stroke-width:2;"/>
      </defs>
      <g>
       <use style="fill:#a9a9a9;stroke:#a9a9a9;stroke-width:2;" x="9" xlink:href="#m13bb419461" y="67.68"/>
      </g>
     </g>
    </g>
    <g id="xtick_2">
     <g id="line2d_2">
      <g>
       <use style="fill:#a9a9a9;stroke:#a9a9a9;stroke-width:2;" x="36.9" xlink:href="#m13bb419461" y="67.68"/>
      </g>
     </g>
    </g>
    <g id="xtick_3">
     <g id="line2d_3">
      <g>
       <use style="fill:#a9a9a9;stroke:#a9a9a9;stroke-width:2;" x="64.8" xlink:href="#m13bb419461" y="67.68"/>
      </g>
     </g>
    </g>
   </g>
   <g id="matplotlib.axis_2">
    <g id="ytick_1">
     <g id="line2d_4">
      <defs>
       <path d="M 0 0 
L -3.5 0 
" id="me658b85010" style="stroke:#a9a9a9;stroke-width:2;"/>
      </defs>
      <g>
       <use style="fill:#a9a9a9;stroke:#a9a9a9;stroke-width:2;" x="9" xlink:href="#me658b85010" y="67.68"/>
      </g>
     </g>
    </g>
    <g id="ytick_2">
     <g id="line2d_5">
      <g>
       <use style="fill:#a9a9a9;stroke:#a9a9a9;stroke-width:2;" x="9" xlink:href="#me658b85010" y="62.499236"/>
      </g>
     </g>
    </g>
    <g id="ytick_3">
     <g id="line2d_6">
      <g>
       <use style="fill:#a9a9a9;stroke:#a9a9a9;stroke-width:2;" x="9" xlink:href="#me658b85010" y="57.318472"/>
      </g>
     </g>
    </g>
   </g>
   <g id="line2d_7">
    <path clip-path="url(#p0aca6bce4f)" d="M 10.86031 58.604243 
L 11.79031 57.059844 
L 12.72031 55.634488 
L 13.65031 54.510401 
L 14.58031 53.309784 
L 15.51031 52.20106 
L 16.44031 50.845626 
L 17.37031 49.71115 
L 18.30031 48.493671 
L 19.23031 47.967713 
L 20.16031 46.421318 
L 21.09031 45.741263 
L 22.02031 44.357156 
L 22.95031 43.201101 
L 23.88031 42.469796 
L 24.81031 41.925658 
L 25.74031 40.9372 
L 26.67031 39.745133 
L 27.60031 38.48891 
L 28.53031 37.527391 
L 29.46031 36.951637 
L 30.39031 35.530132 
L 31.32031 35.602618 
L 32.25031 34.149469 
L 33.18031 33.273963 
L 34.11031 31.901895 
L 35.04031 31.54917 
L 35.97031 31.463748 
L 36.90031 31.559599 
L 37.83031 31.248489 
L 38.76031 30.907184 
L 39.69031 30.264127 
L 40.62031 29.615663 
L 41.55031 28.787711 
L 42.48031 28.188517 
L 43.41031 27.20867 
L 44.34031 26.898334 
L 45.27031 26.88172 
L 46.20031 26.193755 
L 47.13031 25.630109 
L 48.06031 25.797677 
L 48.99031 26.149069 
L 49.92031 26.12375 
L 50.85031 25.546422 
L 51.78031 25.19547 
L 52.71031 24.202514 
L 53.64031 23.665089 
L 54.57031 23.287999 
L 55.50031 22.658501 
L 56.43031 21.413438 
L 57.36031 21.274683 
L 58.29031 21.597307 
L 59.22031 21.287864 
L 60.15031 20.839985 
L 61.08031 20.236267 
L 62.01031 19.592534 
L 62.94031 18.917531 
L 63.87031 17.539038 
" style="fill:none;stroke:#fc8d62;stroke-linecap:square;stroke-width:2;"/>
   </g>
   <g id="line2d_8">
    <path clip-path="url(#p0aca6bce4f)" d="M 10.86031 58.725714 
L 11.79031 57.28285 
L 12.72031 55.413504 
L 13.65031 53.440274 
L 14.58031 51.989145 
L 15.51031 51.079848 
L 16.44031 50.358115 
L 17.37031 49.400493 
L 18.30031 48.814715 
L 19.23031 47.665468 
L 20.16031 46.539333 
L 21.09031 45.485812 
L 22.02031 43.379532 
L 22.95031 41.990294 
L 23.88031 40.870452 
L 24.81031 40.279759 
L 25.74031 38.766582 
L 26.67031 38.862357 
L 27.60031 38.687472 
L 28.53031 37.880116 
L 29.46031 36.813243 
L 30.39031 36.72347 
L 31.32031 36.416098 
L 32.25031 35.989328 
L 33.18031 35.626734 
L 34.11031 35.782661 
L 35.04031 35.388222 
L 35.97031 34.589174 
L 36.90031 34.420423 
L 37.83031 33.614323 
L 38.76031 32.581342 
L 39.69031 31.540465 
L 40.62031 31.260216 
L 41.55031 31.016877 
L 42.48031 30.695941 
L 43.41031 29.710191 
L 44.34031 29.348214 
L 45.27031 28.434816 
L 46.20031 27.209582 
L 47.13031 26.806379 
L 48.06031 26.120783 
L 48.99031 25.968848 
L 49.92031 25.70317 
L 50.85031 24.779322 
L 51.78031 23.779504 
L 52.71031 23.378458 
L 53.64031 23.168556 
L 54.57031 23.463382 
L 55.50031 23.446864 
L 56.43031 22.560066 
L 57.36031 22.613398 
L 58.29031 21.86789 
L 59.22031 20.774747 
L 60.15031 19.861686 
L 61.08031 19.063462 
L 62.01031 18.746147 
L 62.94031 18.272738 
L 63.87031 18.068322 
" style="fill:none;stroke:#fc8d62;stroke-dasharray:1.5,1.5;stroke-dashoffset:0;stroke-opacity:0.7;stroke-width:1.5;"/>
   </g>
   <g id="patch_3">
    <path d="M 9 67.68 
L 9 17.28 
" style="fill:none;stroke:#a9a9a9;stroke-linecap:square;stroke-linejoin:miter;stroke-width:2;"/>
   </g>
   <g id="patch_4">
    <path d="M 64.8 67.68 
L 64.8 17.28 
" style="fill:none;"/>
   </g>
   <g id="patch_5">
    <path d="M 9 67.68 
L 64.8 67.68 
" style="fill:none;stroke:#a9a9a9;stroke-linecap:square;stroke-linejoin:miter;stroke-width:2;"/>
   </g>
   <g id="patch_6">
    <path d="M 9 17.28 
L 64.8 17.28 
" style="fill:none;"/>
   </g>
  </g>
  <g id="axes_2">
   <g id="patch_7">
    <path d="M 9 128.16 
L 64.8 128.16 
L 64.8 77.76 
L 9 77.76 
z
" style="fill:none;"/>
   </g>
   <g id="matplotlib.axis_3">
    <g id="xtick_4">
     <g id="line2d_9">
      <g>
       <use style="fill:#a9a9a9;stroke:#a9a9a9;stroke-width:2;" x="9" xlink:href="#m13bb419461" y="128.16"/>
      </g>
     </g>
    </g>
    <g id="xtick_5">
     <g id="line2d_10">
      <g>
       <use style="fill:#a9a9a9;stroke:#a9a9a9;stroke-width:2;" x="36.9" xlink:href="#m13bb419461" y="128.16"/>
      </g>
     </g>
    </g>
    <g id="xtick_6">
     <g id="line2d_11">
      <g>
       <use style="fill:#a9a9a9;stroke:#a9a9a9;stroke-width:2;" x="64.8" xlink:href="#m13bb419461" y="128.16"/>
      </g>
     </g>
    </g>
   </g>
   <g id="matplotlib.axis_4">
    <g id="ytick_4">
     <g id="line2d_12">
      <g>
       <use style="fill:#a9a9a9;stroke:#a9a9a9;stroke-width:2;" x="9" xlink:href="#me658b85010" y="128.16"/>
      </g>
     </g>
    </g>
    <g id="ytick_5">
     <g id="line2d_13">
      <g>
       <use style="fill:#a9a9a9;stroke:#a9a9a9;stroke-width:2;" x="9" xlink:href="#me658b85010" y="102.96"/>
      </g>
     </g>
    </g>
    <g id="ytick_6">
     <g id="line2d_14">
      <g>
       <use style="fill:#a9a9a9;stroke:#a9a9a9;stroke-width:2;" x="9" xlink:href="#me658b85010" y="77.76"/>
      </g>
     </g>
    </g>
   </g>
   <g id="line2d_15">
    <path clip-path="url(#pc19c39fd3b)" d="M 10.86031 87.537213 
L 11.79031 86.738671 
L 12.72031 86.293815 
L 13.65031 85.956745 
L 14.58031 85.7459 
L 15.51031 85.547744 
L 16.44031 85.289758 
L 17.37031 85.194775 
L 18.30031 85.050835 
L 19.23031 85.007597 
L 20.16031 84.895907 
L 21.09031 84.859163 
L 22.02031 84.845616 
L 22.95031 84.81654 
L 23.88031 84.810918 
L 24.81031 84.800367 
L 25.74031 84.81085 
L 26.67031 84.742567 
L 27.60031 84.688876 
L 28.53031 84.637986 
L 29.46031 84.660722 
L 30.39031 84.621293 
L 31.32031 84.584917 
L 32.25031 84.557148 
L 33.18031 84.532632 
L 34.11031 84.48854 
L 35.04031 84.482015 
L 35.97031 84.457354 
L 36.90031 84.454385 
L 37.83031 84.43289 
L 38.76031 84.433541 
L 39.69031 84.416511 
L 40.62031 84.41533 
L 41.55031 84.408907 
L 42.48031 84.406041 
L 43.41031 84.41577 
L 44.34031 84.420222 
L 45.27031 84.425163 
L 46.20031 84.41879 
L 47.13031 84.413009 
L 48.06031 84.428952 
L 48.99031 84.448337 
L 49.92031 84.453331 
L 50.85031 84.459483 
L 51.78031 84.451234 
L 52.71031 84.446506 
L 53.64031 84.417763 
L 54.57031 84.402016 
L 55.50031 84.404828 
L 56.43031 84.398975 
L 57.36031 84.399498 
L 58.29031 84.388729 
L 59.22031 84.378787 
L 60.15031 84.365319 
L 61.08031 84.354513 
L 62.01031 84.353351 
L 62.94031 84.344718 
L 63.87031 84.339561 
" style="fill:none;stroke:#fc8d62;stroke-linecap:square;stroke-width:2;"/>
   </g>
   <g id="line2d_16">
    <path clip-path="url(#pc19c39fd3b)" d="M 10.86031 94.078728 
L 11.79031 93.198355 
L 12.72031 92.21938 
L 13.65031 91.795098 
L 14.58031 91.557941 
L 15.51031 91.293784 
L 16.44031 91.15142 
L 17.37031 91.061919 
L 18.30031 90.951847 
L 19.23031 90.892255 
L 20.16031 90.884068 
L 21.09031 90.850684 
L 22.02031 90.820742 
L 22.95031 90.78925 
L 23.88031 90.730267 
L 24.81031 90.731131 
L 25.74031 90.650166 
L 26.67031 90.614104 
L 27.60031 90.614859 
L 28.53031 90.597059 
L 29.46031 90.562553 
L 30.39031 90.574262 
L 31.32031 90.589962 
L 32.25031 90.587927 
L 33.18031 90.58759 
L 34.11031 90.573372 
L 35.04031 90.534025 
L 35.97031 90.52615 
L 36.90031 90.522896 
L 37.83031 90.50925 
L 38.76031 90.498133 
L 39.69031 90.494706 
L 40.62031 90.488075 
L 41.55031 90.503773 
L 42.48031 90.506185 
L 43.41031 90.499845 
L 44.34031 90.507009 
L 45.27031 90.478265 
L 46.20031 90.48152 
L 47.13031 90.488572 
L 48.06031 90.486907 
L 48.99031 90.486914 
L 49.92031 90.47269 
L 50.85031 90.471868 
L 51.78031 90.483577 
L 52.71031 90.471162 
L 53.64031 90.488296 
L 54.57031 90.479202 
L 55.50031 90.470217 
L 56.43031 90.454851 
L 57.36031 90.438081 
L 58.29031 90.432972 
L 59.22031 90.425056 
L 60.15031 90.397312 
L 61.08031 90.380785 
L 62.01031 90.377093 
L 62.94031 90.374391 
L 63.87031 90.368451 
" style="fill:none;stroke:#fc8d62;stroke-dasharray:1.5,1.5;stroke-dashoffset:0;stroke-opacity:0.7;stroke-width:1.5;"/>
   </g>
   <g id="patch_8">
    <path d="M 9 128.16 
L 9 77.76 
" style="fill:none;stroke:#a9a9a9;stroke-linecap:square;stroke-linejoin:miter;stroke-width:2;"/>
   </g>
   <g id="patch_9">
    <path d="M 64.8 128.16 
L 64.8 77.76 
" style="fill:none;"/>
   </g>
   <g id="patch_10">
    <path d="M 9 128.16 
L 64.8 128.16 
" style="fill:none;stroke:#a9a9a9;stroke-linecap:square;stroke-linejoin:miter;stroke-width:2;"/>
   </g>
   <g id="patch_11">
    <path d="M 9 77.76 
L 64.8 77.76 
" style="fill:none;"/>
   </g>
  </g>
 </g>
 <defs>
  <clipPath id="p0aca6bce4f">
   <rect height="50.4" width="55.8" x="9" y="17.28"/>
  </clipPath>
  <clipPath id="pc19c39fd3b">
   <rect height="50.4" width="55.8" x="9" y="77.76"/>
  </clipPath>
 </defs>
</svg>
