<?xml version="1.0" encoding="utf-8" standalone="no"?>
<!DOCTYPE svg PUBLIC "-//W3C//DTD SVG 1.1//EN"
  "http://www.w3.org/Graphics/SVG/1.1/DTD/svg11.dtd">
<!-- Created with matplotlib (https://matplotlib.org/) -->
<svg height="144pt" version="1.1" viewBox="0 0 72 144" width="72pt" xmlns="http://www.w3.org/2000/svg" xmlns:xlink="http://www.w3.org/1999/xlink">
 <metadata>
  <rdf:RDF xmlns:cc="http://creativecommons.org/ns#" xmlns:dc="http://purl.org/dc/elements/1.1/" xmlns:rdf="http://www.w3.org/1999/02/22-rdf-syntax-ns#">
   <cc:Work>
    <dc:type rdf:resource="http://purl.org/dc/dcmitype/StillImage"/>
    <dc:date>2021-10-13T15:52:06.433487</dc:date>
    <dc:format>image/svg+xml</dc:format>
    <dc:creator>
     <cc:Agent>
      <dc:title>Matplotlib v3.3.2, https://matplotlib.org/</dc:title>
     </cc:Agent>
    </dc:creator>
   </cc:Work>
  </rdf:RDF>
 </metadata>
 <defs>
  <style type="text/css">*{stroke-linecap:butt;stroke-linejoin:round;}</style>
 </defs>
 <g id="figure_1">
  <g id="patch_1">
   <path d="M 0 144 
L 72 144 
L 72 0 
L 0 0 
z
" style="fill:none;"/>
  </g>
  <g id="axes_1">
   <g id="patch_2">
    <path d="M 9 67.68 
L 64.8 67.68 
L 64.8 17.28 
L 9 17.28 
z
" style="fill:none;"/>
   </g>
   <g id="matplotlib.axis_1">
    <g id="xtick_1">
     <g id="line2d_1">
      <defs>
       <path d="M 0 0 
L 0 3.5 
" id="madf6ef49ba" style="stroke:#a9a9a9;stroke-width:2;"/>
      </defs>
      <g>
       <use style="fill:#a9a9a9;stroke:#a9a9a9;stroke-width:2;" x="9" xlink:href="#madf6ef49ba" y="67.68"/>
      </g>
     </g>
    </g>
    <g id="xtick_2">
     <g id="line2d_2">
      <g>
       <use style="fill:#a9a9a9;stroke:#a9a9a9;stroke-width:2;" x="36.9" xlink:href="#madf6ef49ba" y="67.68"/>
      </g>
     </g>
    </g>
    <g id="xtick_3">
     <g id="line2d_3">
      <g>
       <use style="fill:#a9a9a9;stroke:#a9a9a9;stroke-width:2;" x="64.8" xlink:href="#madf6ef49ba" y="67.68"/>
      </g>
     </g>
    </g>
   </g>
   <g id="matplotlib.axis_2">
    <g id="ytick_1">
     <g id="line2d_4">
      <defs>
       <path d="M 0 0 
L -3.5 0 
" id="m818c49cff9" style="stroke:#a9a9a9;stroke-width:2;"/>
      </defs>
      <g>
       <use style="fill:#a9a9a9;stroke:#a9a9a9;stroke-width:2;" x="9" xlink:href="#m818c49cff9" y="67.68"/>
      </g>
     </g>
    </g>
    <g id="ytick_2">
     <g id="line2d_5">
      <g>
       <use style="fill:#a9a9a9;stroke:#a9a9a9;stroke-width:2;" x="9" xlink:href="#m818c49cff9" y="63.024649"/>
      </g>
     </g>
    </g>
    <g id="ytick_3">
     <g id="line2d_6">
      <g>
       <use style="fill:#a9a9a9;stroke:#a9a9a9;stroke-width:2;" x="9" xlink:href="#m818c49cff9" y="58.369298"/>
      </g>
     </g>
    </g>
   </g>
   <g id="line2d_7">
    <path clip-path="url(#p11e33c1427)" d="M 10.86031 58.008201 
L 11.79031 56.265466 
L 12.72031 55.825548 
L 13.65031 54.535103 
L 14.58031 52.215519 
L 15.51031 51.59571 
L 16.44031 50.73828 
L 17.37031 49.433545 
L 18.30031 48.874126 
L 19.23031 47.85141 
L 20.16031 46.578802 
L 21.09031 45.358985 
L 22.02031 45.103497 
L 22.95031 43.925513 
L 23.88031 43.426367 
L 24.81031 42.919418 
L 25.74031 40.908577 
L 26.67031 40.060415 
L 27.60031 39.009673 
L 28.53031 37.454693 
L 29.46031 35.891958 
L 30.39031 34.693428 
L 31.32031 33.87703 
L 32.25031 33.518611 
L 33.18031 32.678844 
L 34.11031 32.061028 
L 35.04031 31.283223 
L 35.97031 31.060498 
L 36.90031 30.75714 
L 37.83031 29.933512 
L 38.76031 30.473941 
L 39.69031 30.707378 
L 40.62031 29.585797 
L 41.55031 29.320047 
L 42.48031 28.381852 
L 43.41031 27.824708 
L 44.34031 26.90908 
L 45.27031 26.49973 
L 46.20031 25.556999 
L 47.13031 25.735058 
L 48.06031 25.482999 
L 48.99031 24.866862 
L 49.92031 23.95127 
L 50.85031 22.731434 
L 51.78031 22.26791 
L 52.71031 21.559745 
L 53.64031 21.316053 
L 54.57031 21.365559 
L 55.50031 20.900467 
L 56.43031 21.122 
L 57.36031 20.475265 
L 58.29031 19.911878 
L 59.22031 19.270521 
L 60.15031 19.308903 
L 61.08031 19.025234 
L 62.01031 17.916249 
L 62.94031 17.512768 
L 63.87031 17.852542 
" style="fill:none;stroke:#fc8d62;stroke-linecap:square;stroke-width:2;"/>
   </g>
   <g id="line2d_8">
    <path clip-path="url(#p11e33c1427)" d="M 10.86031 58.172537 
L 11.79031 57.916744 
L 12.72031 56.300776 
L 13.65031 55.019404 
L 14.58031 53.157942 
L 15.51031 52.452371 
L 16.44031 51.10313 
L 17.37031 49.959936 
L 18.30031 49.015198 
L 19.23031 48.223707 
L 20.16031 47.105592 
L 21.09031 46.025441 
L 22.02031 44.593613 
L 22.95031 42.791771 
L 23.88031 42.262694 
L 24.81031 40.94486 
L 25.74031 39.963636 
L 26.67031 38.482685 
L 27.60031 37.781737 
L 28.53031 35.397639 
L 29.46031 33.576202 
L 30.39031 32.250001 
L 31.32031 30.532373 
L 32.25031 28.957637 
L 33.18031 28.849407 
L 34.11031 29.156167 
L 35.04031 29.662808 
L 35.97031 29.317583 
L 36.90031 29.332177 
L 37.83031 29.20336 
L 38.76031 29.051924 
L 39.69031 28.772953 
L 40.62031 28.938786 
L 41.55031 28.670287 
L 42.48031 27.535734 
L 43.41031 26.385036 
L 44.34031 26.305179 
L 45.27031 24.648345 
L 46.20031 24.56706 
L 47.13031 23.615099 
L 48.06031 22.654866 
L 48.99031 21.542392 
L 49.92031 21.163895 
L 50.85031 19.519828 
L 51.78031 19.085949 
L 52.71031 19.12913 
L 53.64031 18.006216 
L 54.57031 16.757689 
L 55.50031 15.792483 
L 56.43031 14.844077 
L 57.36031 15.034201 
L 58.29031 14.422227 
L 59.22031 14.299795 
L 60.15031 13.023715 
L 61.08031 11.596046 
L 62.01031 12.499236 
L 62.94031 11.694112 
L 63.87031 11.283041 
" style="fill:none;stroke:#fc8d62;stroke-dasharray:1.5,1.5;stroke-dashoffset:0;stroke-opacity:0.7;stroke-width:1.5;"/>
   </g>
   <g id="patch_3">
    <path d="M 9 67.68 
L 9 17.28 
" style="fill:none;stroke:#a9a9a9;stroke-linecap:square;stroke-linejoin:miter;stroke-width:2;"/>
   </g>
   <g id="patch_4">
    <path d="M 64.8 67.68 
L 64.8 17.28 
" style="fill:none;"/>
   </g>
   <g id="patch_5">
    <path d="M 9 67.68 
L 64.8 67.68 
" style="fill:none;stroke:#a9a9a9;stroke-linecap:square;stroke-linejoin:miter;stroke-width:2;"/>
   </g>
   <g id="patch_6">
    <path d="M 9 17.28 
L 64.8 17.28 
" style="fill:none;"/>
   </g>
  </g>
  <g id="axes_2">
   <g id="patch_7">
    <path d="M 9 128.16 
L 64.8 128.16 
L 64.8 77.76 
L 9 77.76 
z
" style="fill:none;"/>
   </g>
   <g id="matplotlib.axis_3">
    <g id="xtick_4">
     <g id="line2d_9">
      <g>
       <use style="fill:#a9a9a9;stroke:#a9a9a9;stroke-width:2;" x="9" xlink:href="#madf6ef49ba" y="128.16"/>
      </g>
     </g>
    </g>
    <g id="xtick_5">
     <g id="line2d_10">
      <g>
       <use style="fill:#a9a9a9;stroke:#a9a9a9;stroke-width:2;" x="36.9" xlink:href="#madf6ef49ba" y="128.16"/>
      </g>
     </g>
    </g>
    <g id="xtick_6">
     <g id="line2d_11">
      <g>
       <use style="fill:#a9a9a9;stroke:#a9a9a9;stroke-width:2;" x="64.8" xlink:href="#madf6ef49ba" y="128.16"/>
      </g>
     </g>
    </g>
   </g>
   <g id="matplotlib.axis_4">
    <g id="ytick_4">
     <g id="line2d_12">
      <g>
       <use style="fill:#a9a9a9;stroke:#a9a9a9;stroke-width:2;" x="9" xlink:href="#m818c49cff9" y="128.16"/>
      </g>
     </g>
    </g>
    <g id="ytick_5">
     <g id="line2d_13">
      <g>
       <use style="fill:#a9a9a9;stroke:#a9a9a9;stroke-width:2;" x="9" xlink:href="#m818c49cff9" y="102.96"/>
      </g>
     </g>
    </g>
    <g id="ytick_6">
     <g id="line2d_14">
      <g>
       <use style="fill:#a9a9a9;stroke:#a9a9a9;stroke-width:2;" x="9" xlink:href="#m818c49cff9" y="77.76"/>
      </g>
     </g>
    </g>
   </g>
   <g id="line2d_15">
    <path clip-path="url(#pb4cb17cb8e)" d="M 10.86031 88.907458 
L 11.79031 88.230974 
L 12.72031 88.177589 
L 13.65031 87.777931 
L 14.58031 87.400775 
L 15.51031 87.374621 
L 16.44031 87.267091 
L 17.37031 87.149096 
L 18.30031 87.147894 
L 19.23031 87.012589 
L 20.16031 86.965375 
L 21.09031 86.920841 
L 22.02031 86.901026 
L 22.95031 86.886451 
L 23.88031 86.896928 
L 24.81031 86.864195 
L 25.74031 86.836503 
L 26.67031 86.804129 
L 27.60031 86.782732 
L 28.53031 86.725194 
L 29.46031 86.687809 
L 30.39031 86.6762 
L 31.32031 86.646979 
L 32.25031 86.632877 
L 33.18031 86.623617 
L 34.11031 86.606634 
L 35.04031 86.599634 
L 35.97031 86.584776 
L 36.90031 86.554744 
L 37.83031 86.545894 
L 38.76031 86.530439 
L 39.69031 86.548045 
L 40.62031 86.537512 
L 41.55031 86.527772 
L 42.48031 86.543485 
L 43.41031 86.545689 
L 44.34031 86.548434 
L 45.27031 86.571416 
L 46.20031 86.572971 
L 47.13031 86.588211 
L 48.06031 86.585357 
L 48.99031 86.588784 
L 49.92031 86.580239 
L 50.85031 86.565242 
L 51.78031 86.558186 
L 52.71031 86.553853 
L 53.64031 86.555986 
L 54.57031 86.550164 
L 55.50031 86.544596 
L 56.43031 86.545456 
L 57.36031 86.544269 
L 58.29031 86.548007 
L 59.22031 86.529851 
L 60.15031 86.512316 
L 61.08031 86.515529 
L 62.01031 86.513451 
L 62.94031 86.514616 
L 63.87031 86.513834 
" style="fill:none;stroke:#fc8d62;stroke-linecap:square;stroke-width:2;"/>
   </g>
   <g id="line2d_16">
    <path clip-path="url(#pb4cb17cb8e)" d="M 10.86031 93.337801 
L 11.79031 93.215215 
L 12.72031 92.692229 
L 13.65031 92.455459 
L 14.58031 92.130626 
L 15.51031 91.993248 
L 16.44031 91.877642 
L 17.37031 91.745816 
L 18.30031 91.660917 
L 19.23031 91.649558 
L 20.16031 91.662424 
L 21.09031 91.643346 
L 22.02031 91.62153 
L 22.95031 91.566612 
L 23.88031 91.553131 
L 24.81031 91.486572 
L 25.74031 91.424845 
L 26.67031 91.432108 
L 27.60031 91.41151 
L 28.53031 91.358816 
L 29.46031 91.328374 
L 30.39031 91.312276 
L 31.32031 91.293684 
L 32.25031 91.281896 
L 33.18031 91.278698 
L 34.11031 91.251668 
L 35.04031 91.24423 
L 35.97031 91.235791 
L 36.90031 91.234664 
L 37.83031 91.233122 
L 38.76031 91.222495 
L 39.69031 91.201375 
L 40.62031 91.19324 
L 41.55031 91.193996 
L 42.48031 91.189993 
L 43.41031 91.188874 
L 44.34031 91.193592 
L 45.27031 91.188245 
L 46.20031 91.194698 
L 47.13031 91.193678 
L 48.06031 91.189904 
L 48.99031 91.190982 
L 49.92031 91.197138 
L 50.85031 91.209964 
L 51.78031 91.204764 
L 52.71031 91.208864 
L 53.64031 91.204848 
L 54.57031 91.202562 
L 55.50031 91.198355 
L 56.43031 91.192378 
L 57.36031 91.197806 
L 58.29031 91.198945 
L 59.22031 91.203842 
L 60.15031 91.209134 
L 61.08031 91.209107 
L 62.01031 91.207701 
L 62.94031 91.197965 
L 63.87031 91.188297 
" style="fill:none;stroke:#fc8d62;stroke-dasharray:1.5,1.5;stroke-dashoffset:0;stroke-opacity:0.7;stroke-width:1.5;"/>
   </g>
   <g id="patch_8">
    <path d="M 9 128.16 
L 9 77.76 
" style="fill:none;stroke:#a9a9a9;stroke-linecap:square;stroke-linejoin:miter;stroke-width:2;"/>
   </g>
   <g id="patch_9">
    <path d="M 64.8 128.16 
L 64.8 77.76 
" style="fill:none;"/>
   </g>
   <g id="patch_10">
    <path d="M 9 128.16 
L 64.8 128.16 
" style="fill:none;stroke:#a9a9a9;stroke-linecap:square;stroke-linejoin:miter;stroke-width:2;"/>
   </g>
   <g id="patch_11">
    <path d="M 9 77.76 
L 64.8 77.76 
" style="fill:none;"/>
   </g>
  </g>
 </g>
 <defs>
  <clipPath id="p11e33c1427">
   <rect height="50.4" width="55.8" x="9" y="17.28"/>
  </clipPath>
  <clipPath id="pb4cb17cb8e">
   <rect height="50.4" width="55.8" x="9" y="77.76"/>
  </clipPath>
 </defs>
</svg>
