<?xml version="1.0" encoding="utf-8" standalone="no"?>
<!DOCTYPE svg PUBLIC "-//W3C//DTD SVG 1.1//EN"
  "http://www.w3.org/Graphics/SVG/1.1/DTD/svg11.dtd">
<!-- Created with matplotlib (https://matplotlib.org/) -->
<svg height="216pt" version="1.1" viewBox="0 0 72 216" width="72pt" xmlns="http://www.w3.org/2000/svg" xmlns:xlink="http://www.w3.org/1999/xlink">
 <metadata>
  <rdf:RDF xmlns:cc="http://creativecommons.org/ns#" xmlns:dc="http://purl.org/dc/elements/1.1/" xmlns:rdf="http://www.w3.org/1999/02/22-rdf-syntax-ns#">
   <cc:Work>
    <dc:type rdf:resource="http://purl.org/dc/dcmitype/StillImage"/>
    <dc:date>2021-10-13T00:31:42.678552</dc:date>
    <dc:format>image/svg+xml</dc:format>
    <dc:creator>
     <cc:Agent>
      <dc:title>Matplotlib v3.3.2, https://matplotlib.org/</dc:title>
     </cc:Agent>
    </dc:creator>
   </cc:Work>
  </rdf:RDF>
 </metadata>
 <defs>
  <style type="text/css">*{stroke-linecap:butt;stroke-linejoin:round;}</style>
 </defs>
 <g id="figure_1">
  <g id="patch_1">
   <path d="M 0 216 
L 72 216 
L 72 0 
L 0 0 
z
" style="fill:none;"/>
  </g>
  <g id="axes_1">
   <g id="patch_2">
    <path d="M 9 74.837647 
L 64.8 74.837647 
L 64.8 25.92 
L 9 25.92 
z
" style="fill:none;"/>
   </g>
   <g id="matplotlib.axis_1">
    <g id="xtick_1">
     <g id="line2d_1">
      <defs>
       <path d="M 0 0 
L 0 3.5 
" id="mb45443d313" style="stroke:#a9a9a9;stroke-width:2;"/>
      </defs>
      <g>
       <use style="fill:#a9a9a9;stroke:#a9a9a9;stroke-width:2;" x="9" xlink:href="#mb45443d313" y="74.837647"/>
      </g>
     </g>
    </g>
    <g id="xtick_2">
     <g id="line2d_2">
      <g>
       <use style="fill:#a9a9a9;stroke:#a9a9a9;stroke-width:2;" x="36.9" xlink:href="#mb45443d313" y="74.837647"/>
      </g>
     </g>
    </g>
    <g id="xtick_3">
     <g id="line2d_3">
      <g>
       <use style="fill:#a9a9a9;stroke:#a9a9a9;stroke-width:2;" x="64.8" xlink:href="#mb45443d313" y="74.837647"/>
      </g>
     </g>
    </g>
   </g>
   <g id="matplotlib.axis_2">
    <g id="ytick_1">
     <g id="line2d_4">
      <defs>
       <path d="M 0 0 
L -3.5 0 
" id="m7a015cc1d7" style="stroke:#a9a9a9;stroke-width:2;"/>
      </defs>
      <g>
       <use style="fill:#a9a9a9;stroke:#a9a9a9;stroke-width:2;" x="9" xlink:href="#m7a015cc1d7" y="74.837647"/>
      </g>
     </g>
    </g>
    <g id="ytick_2">
     <g id="line2d_5">
      <g>
       <use style="fill:#a9a9a9;stroke:#a9a9a9;stroke-width:2;" x="9" xlink:href="#m7a015cc1d7" y="70.361413"/>
      </g>
     </g>
    </g>
    <g id="ytick_3">
     <g id="line2d_6">
      <g>
       <use style="fill:#a9a9a9;stroke:#a9a9a9;stroke-width:2;" x="9" xlink:href="#m7a015cc1d7" y="65.88518"/>
      </g>
     </g>
    </g>
   </g>
   <g id="line2d_7">
    <path clip-path="url(#p17c1e3a1a7)" d="M 10.86031 66.357271 
L 11.79031 65.095742 
L 12.72031 63.37597 
L 13.65031 62.544047 
L 14.58031 60.913239 
L 15.51031 59.819522 
L 16.44031 59.493887 
L 17.37031 58.559873 
L 18.30031 57.398912 
L 19.23031 56.046205 
L 20.16031 55.002724 
L 21.09031 53.664915 
L 22.02031 52.725958 
L 22.95031 51.389441 
L 23.88031 50.188232 
L 24.81031 48.757035 
L 25.74031 47.430324 
L 26.67031 45.912757 
L 27.60031 45.024405 
L 28.53031 43.524924 
L 29.46031 42.196445 
L 30.39031 41.085675 
L 31.32031 40.971284 
L 32.25031 40.716907 
L 33.18031 40.156794 
L 34.11031 39.766932 
L 35.04031 39.294409 
L 35.97031 39.516474 
L 36.90031 39.298984 
L 37.83031 38.484613 
L 38.76031 38.376871 
L 39.69031 37.46183 
L 40.62031 36.570698 
L 41.55031 36.00262 
L 42.48031 35.45997 
L 43.41031 34.995193 
L 44.34031 34.752428 
L 45.27031 34.494344 
L 46.20031 33.570608 
L 47.13031 33.171497 
L 48.06031 33.069705 
L 48.99031 32.626557 
L 49.92031 32.533807 
L 50.85031 32.302294 
L 51.78031 31.657276 
L 52.71031 30.865713 
L 53.64031 29.743703 
L 54.57031 28.795766 
L 55.50031 28.712292 
L 56.43031 28.481819 
L 57.36031 28.559026 
L 58.29031 28.071102 
L 59.22031 28.276791 
L 60.15031 27.971665 
L 61.08031 27.407754 
L 62.01031 27.113084 
L 62.94031 26.442445 
L 63.87031 26.143812 
" style="fill:none;stroke:#fc8d62;stroke-linecap:square;stroke-width:2;"/>
   </g>
   <g id="line2d_8">
    <path clip-path="url(#p17c1e3a1a7)" d="M 10.86031 66.887937 
L 11.79031 65.197022 
L 12.72031 63.761062 
L 13.65031 62.20085 
L 14.58031 61.517385 
L 15.51031 61.734719 
L 16.44031 60.757794 
L 17.37031 60.014274 
L 18.30031 58.93185 
L 19.23031 57.838259 
L 20.16031 56.783081 
L 21.09031 55.661875 
L 22.02031 54.89025 
L 22.95031 54.112423 
L 23.88031 53.565715 
L 24.81031 52.785462 
L 25.74031 52.09535 
L 26.67031 51.256987 
L 27.60031 50.441054 
L 28.53031 49.385049 
L 29.46031 48.205952 
L 30.39031 47.087972 
L 31.32031 45.93569 
L 32.25031 45.534464 
L 33.18031 45.134049 
L 34.11031 44.494177 
L 35.04031 43.926164 
L 35.97031 43.597022 
L 36.90031 43.860508 
L 37.83031 43.7146 
L 38.76031 43.522402 
L 39.69031 43.210139 
L 40.62031 43.004714 
L 41.55031 42.8488 
L 42.48031 42.256789 
L 43.41031 42.332962 
L 44.34031 42.01801 
L 45.27031 41.474718 
L 46.20031 41.229958 
L 47.13031 40.629698 
L 48.06031 39.598078 
L 48.99031 39.204648 
L 49.92031 38.372778 
L 50.85031 37.582234 
L 51.78031 36.44637 
L 52.71031 35.951726 
L 53.64031 35.074928 
L 54.57031 34.631723 
L 55.50031 34.132201 
L 56.43031 33.139672 
L 57.36031 32.839426 
L 58.29031 32.784321 
L 59.22031 31.6634 
L 60.15031 31.516916 
L 61.08031 31.471925 
L 62.01031 31.209467 
L 62.94031 31.019096 
L 63.87031 30.72157 
" style="fill:none;stroke:#fc8d62;stroke-dasharray:1.5,1.5;stroke-dashoffset:0;stroke-opacity:0.7;stroke-width:1.5;"/>
   </g>
   <g id="patch_3">
    <path d="M 9 74.837647 
L 9 25.92 
" style="fill:none;stroke:#a9a9a9;stroke-linecap:square;stroke-linejoin:miter;stroke-width:2;"/>
   </g>
   <g id="patch_4">
    <path d="M 64.8 74.837647 
L 64.8 25.92 
" style="fill:none;"/>
   </g>
   <g id="patch_5">
    <path d="M 9 74.837647 
L 64.8 74.837647 
" style="fill:none;stroke:#a9a9a9;stroke-linecap:square;stroke-linejoin:miter;stroke-width:2;"/>
   </g>
   <g id="patch_6">
    <path d="M 9 25.92 
L 64.8 25.92 
" style="fill:none;"/>
   </g>
  </g>
  <g id="axes_2">
   <g id="patch_7">
    <path d="M 9 133.538824 
L 64.8 133.538824 
L 64.8 84.621176 
L 9 84.621176 
z
" style="fill:none;"/>
   </g>
   <g id="matplotlib.axis_3">
    <g id="xtick_4">
     <g id="line2d_9">
      <g>
       <use style="fill:#a9a9a9;stroke:#a9a9a9;stroke-width:2;" x="9" xlink:href="#mb45443d313" y="133.538824"/>
      </g>
     </g>
    </g>
    <g id="xtick_5">
     <g id="line2d_10">
      <g>
       <use style="fill:#a9a9a9;stroke:#a9a9a9;stroke-width:2;" x="36.9" xlink:href="#mb45443d313" y="133.538824"/>
      </g>
     </g>
    </g>
    <g id="xtick_6">
     <g id="line2d_11">
      <g>
       <use style="fill:#a9a9a9;stroke:#a9a9a9;stroke-width:2;" x="64.8" xlink:href="#mb45443d313" y="133.538824"/>
      </g>
     </g>
    </g>
   </g>
   <g id="matplotlib.axis_4">
    <g id="ytick_4">
     <g id="line2d_12">
      <g>
       <use style="fill:#a9a9a9;stroke:#a9a9a9;stroke-width:2;" x="9" xlink:href="#m7a015cc1d7" y="133.538824"/>
      </g>
     </g>
    </g>
    <g id="ytick_5">
     <g id="line2d_13">
      <g>
       <use style="fill:#a9a9a9;stroke:#a9a9a9;stroke-width:2;" x="9" xlink:href="#m7a015cc1d7" y="109.08"/>
      </g>
     </g>
    </g>
    <g id="ytick_6">
     <g id="line2d_14">
      <g>
       <use style="fill:#a9a9a9;stroke:#a9a9a9;stroke-width:2;" x="9" xlink:href="#m7a015cc1d7" y="84.621176"/>
      </g>
     </g>
    </g>
   </g>
   <g id="line2d_15">
    <path clip-path="url(#p61fc35968b)" d="M 10.86031 94.168383 
L 11.79031 93.478917 
L 12.72031 92.532839 
L 13.65031 92.216916 
L 14.58031 91.877749 
L 15.51031 91.652301 
L 16.44031 91.627424 
L 17.37031 91.503467 
L 18.30031 91.39548 
L 19.23031 91.310112 
L 20.16031 91.251017 
L 21.09031 91.209214 
L 22.02031 91.185752 
L 22.95031 91.14524 
L 23.88031 91.102938 
L 24.81031 91.015281 
L 25.74031 91.021342 
L 26.67031 90.97909 
L 27.60031 90.960228 
L 28.53031 90.946542 
L 29.46031 90.923598 
L 30.39031 90.919639 
L 31.32031 90.915881 
L 32.25031 90.904438 
L 33.18031 90.889649 
L 34.11031 90.863873 
L 35.04031 90.846577 
L 35.97031 90.839189 
L 36.90031 90.829196 
L 37.83031 90.812908 
L 38.76031 90.816606 
L 39.69031 90.824336 
L 40.62031 90.828946 
L 41.55031 90.829991 
L 42.48031 90.826605 
L 43.41031 90.844423 
L 44.34031 90.853005 
L 45.27031 90.852795 
L 46.20031 90.857553 
L 47.13031 90.856906 
L 48.06031 90.848114 
L 48.99031 90.850059 
L 49.92031 90.850806 
L 50.85031 90.854275 
L 51.78031 90.8609 
L 52.71031 90.856146 
L 53.64031 90.842574 
L 54.57031 90.827072 
L 55.50031 90.825755 
L 56.43031 90.835484 
L 57.36031 90.829376 
L 58.29031 90.823979 
L 59.22031 90.831559 
L 60.15031 90.822209 
L 61.08031 90.802253 
L 62.01031 90.789358 
L 62.94031 90.784106 
L 63.87031 90.776587 
" style="fill:none;stroke:#fc8d62;stroke-linecap:square;stroke-width:2;"/>
   </g>
   <g id="line2d_16">
    <path clip-path="url(#p61fc35968b)" d="M 10.86031 102.289802 
L 11.79031 101.235928 
L 12.72031 100.599563 
L 13.65031 100.462008 
L 14.58031 100.205002 
L 15.51031 100.114513 
L 16.44031 99.750606 
L 17.37031 99.651635 
L 18.30031 99.610619 
L 19.23031 99.58035 
L 20.16031 99.540119 
L 21.09031 99.499894 
L 22.02031 99.460975 
L 22.95031 99.426601 
L 23.88031 99.447552 
L 24.81031 99.48138 
L 25.74031 99.495208 
L 26.67031 99.447876 
L 27.60031 99.354066 
L 28.53031 99.32995 
L 29.46031 99.355877 
L 30.39031 99.350928 
L 31.32031 99.291529 
L 32.25031 99.265223 
L 33.18031 99.262374 
L 34.11031 99.28409 
L 35.04031 99.284193 
L 35.97031 99.255169 
L 36.90031 99.257005 
L 37.83031 99.263152 
L 38.76031 99.258541 
L 39.69031 99.264917 
L 40.62031 99.260513 
L 41.55031 99.220693 
L 42.48031 99.232685 
L 43.41031 99.233369 
L 44.34031 99.251012 
L 45.27031 99.247273 
L 46.20031 99.237931 
L 47.13031 99.257471 
L 48.06031 99.226149 
L 48.99031 99.21441 
L 49.92031 99.232557 
L 50.85031 99.226223 
L 51.78031 99.225994 
L 52.71031 99.19403 
L 53.64031 99.201183 
L 54.57031 99.211109 
L 55.50031 99.224026 
L 56.43031 99.213021 
L 57.36031 99.197868 
L 58.29031 99.192898 
L 59.22031 99.186995 
L 60.15031 99.156945 
L 61.08031 99.153514 
L 62.01031 99.146519 
L 62.94031 99.16313 
L 63.87031 99.177092 
" style="fill:none;stroke:#fc8d62;stroke-dasharray:1.5,1.5;stroke-dashoffset:0;stroke-opacity:0.7;stroke-width:1.5;"/>
   </g>
   <g id="patch_8">
    <path d="M 9 133.538824 
L 9 84.621176 
" style="fill:none;stroke:#a9a9a9;stroke-linecap:square;stroke-linejoin:miter;stroke-width:2;"/>
   </g>
   <g id="patch_9">
    <path d="M 64.8 133.538824 
L 64.8 84.621176 
" style="fill:none;"/>
   </g>
   <g id="patch_10">
    <path d="M 9 133.538824 
L 64.8 133.538824 
" style="fill:none;stroke:#a9a9a9;stroke-linecap:square;stroke-linejoin:miter;stroke-width:2;"/>
   </g>
   <g id="patch_11">
    <path d="M 9 84.621176 
L 64.8 84.621176 
" style="fill:none;"/>
   </g>
  </g>
  <g id="axes_3">
   <g id="patch_12">
    <path d="M 9 192.24 
L 64.8 192.24 
L 64.8 143.322353 
L 9 143.322353 
z
" style="fill:none;"/>
   </g>
   <g id="matplotlib.axis_5">
    <g id="xtick_7">
     <g id="line2d_17">
      <g>
       <use style="fill:#a9a9a9;stroke:#a9a9a9;stroke-width:2;" x="9" xlink:href="#mb45443d313" y="156.210377"/>
      </g>
     </g>
    </g>
    <g id="xtick_8">
     <g id="line2d_18">
      <g>
       <use style="fill:#a9a9a9;stroke:#a9a9a9;stroke-width:2;" x="36.9" xlink:href="#mb45443d313" y="156.210377"/>
      </g>
     </g>
    </g>
    <g id="xtick_9">
     <g id="line2d_19">
      <g>
       <use style="fill:#a9a9a9;stroke:#a9a9a9;stroke-width:2;" x="64.8" xlink:href="#mb45443d313" y="156.210377"/>
      </g>
     </g>
    </g>
   </g>
   <g id="matplotlib.axis_6">
    <g id="ytick_7">
     <g id="line2d_20">
      <g>
       <use style="fill:#a9a9a9;stroke:#a9a9a9;stroke-width:2;" x="9" xlink:href="#m7a015cc1d7" y="156.210377"/>
      </g>
     </g>
    </g>
    <g id="ytick_8">
     <g id="line2d_21">
      <g>
       <use style="fill:#a9a9a9;stroke:#a9a9a9;stroke-width:2;" x="9" xlink:href="#m7a015cc1d7" y="180.230126"/>
      </g>
     </g>
    </g>
   </g>
   <g id="line2d_22">
    <path clip-path="url(#p80df4ef70f)" d="M 10.86031 151.340848 
L 11.79031 156.210377 
L 12.72031 149.067895 
L 13.65031 148.357966 
L 14.58031 147.635922 
L 15.51031 148.193928 
L 16.44031 148.283354 
L 17.37031 147.150561 
L 18.30031 156.21038 
L 19.23031 146.439195 
L 20.16031 145.726713 
L 21.09031 144.664341 
L 22.02031 144.840958 
L 22.95031 145.002106 
L 23.88031 145.01453 
L 24.81031 144.443296 
L 25.74031 144.177211 
L 26.67031 144.147574 
L 27.60031 143.724202 
L 28.53031 143.698536 
L 29.46031 143.551211 
L 30.39031 143.561913 
L 31.32031 143.670458 
L 32.25031 143.752665 
L 33.18031 143.70663 
L 34.11031 143.463048 
L 35.04031 143.322353 
L 35.97031 143.338552 
L 36.90031 156.210377 
L 37.83031 143.415329 
L 38.76031 143.549825 
L 39.69031 143.564705 
L 40.62031 143.638826 
L 41.55031 143.791091 
L 42.48031 143.885741 
L 43.41031 143.854237 
L 44.34031 144.055517 
L 45.27031 143.91348 
L 46.20031 156.210379 
L 47.13031 143.886599 
L 48.06031 143.868473 
L 48.99031 143.904037 
L 49.92031 143.898588 
L 50.85031 143.970747 
L 51.78031 143.968445 
L 52.71031 143.863944 
L 53.64031 143.888385 
L 54.57031 143.809048 
L 55.50031 143.671914 
L 56.43031 143.727847 
L 57.36031 143.731657 
L 58.29031 143.786494 
L 59.22031 143.87558 
L 60.15031 143.934674 
L 61.08031 143.903413 
L 62.01031 143.876666 
L 62.94031 143.912498 
L 63.87031 143.832321 
" style="fill:none;stroke:#fc8d62;stroke-linecap:square;stroke-width:2;"/>
   </g>
   <g id="line2d_23">
    <path clip-path="url(#p80df4ef70f)" d="M 10.86031 156.188518 
L 11.79031 156.210349 
L 12.72031 156.210357 
L 13.65031 156.447095 
L 14.58031 156.210446 
L 15.51031 156.534399 
L 16.44031 156.210374 
L 17.37031 156.210368 
L 18.30031 156.210373 
L 19.23031 156.210375 
L 20.16031 156.210377 
L 21.09031 156.210466 
L 22.02031 156.210375 
L 22.95031 156.210369 
L 23.88031 156.21036 
L 24.81031 156.22747 
L 25.74031 156.236889 
L 26.67031 156.210373 
L 27.60031 156.210378 
L 28.53031 156.210376 
L 29.46031 156.22668 
L 30.39031 156.230873 
L 31.32031 156.210367 
L 32.25031 156.215378 
L 33.18031 156.210368 
L 34.11031 156.213227 
L 35.04031 156.21175 
L 35.97031 156.210323 
L 36.90031 156.211358 
L 37.83031 156.21163 
L 38.76031 156.210237 
L 39.69031 156.210253 
L 40.62031 156.21146 
L 41.55031 156.211016 
L 42.48031 156.210178 
L 43.41031 156.210148 
L 44.34031 156.210199 
L 45.27031 156.210152 
L 46.20031 156.210081 
L 47.13031 156.209901 
L 48.06031 156.210308 
L 48.99031 156.209979 
L 49.92031 156.210058 
L 50.85031 156.209581 
L 51.78031 156.209347 
L 52.71031 156.208275 
L 53.64031 156.208536 
L 54.57031 156.20925 
L 55.50031 156.20941 
L 56.43031 156.208976 
L 57.36031 156.209904 
L 58.29031 156.209888 
L 59.22031 156.209866 
L 60.15031 156.20926 
L 61.08031 156.210534 
L 62.01031 156.209321 
L 62.94031 156.209941 
L 63.87031 156.209995 
" style="fill:none;stroke:#fc8d62;stroke-dasharray:1.5,1.5;stroke-dashoffset:0;stroke-opacity:0.7;stroke-width:1.5;"/>
   </g>
   <g id="line2d_24">
    <path clip-path="url(#p80df4ef70f)" d="M 9 180.230126 
L 64.8 180.230126 
" style="fill:none;stroke:#66c2a5;stroke-dasharray:1.5,1.5;stroke-dashoffset:0;stroke-opacity:0.7;stroke-width:1.5;"/>
   </g>
   <g id="patch_13">
    <path d="M 9 192.24 
L 9 143.322353 
" style="fill:none;stroke:#a9a9a9;stroke-linecap:square;stroke-linejoin:miter;stroke-width:2;"/>
   </g>
   <g id="patch_14">
    <path d="M 64.8 192.24 
L 64.8 143.322353 
" style="fill:none;"/>
   </g>
   <g id="patch_15">
    <path d="M 9 156.210377 
L 64.8 156.210377 
" style="fill:none;stroke:#a9a9a9;stroke-linecap:square;stroke-linejoin:miter;stroke-width:2;"/>
   </g>
   <g id="patch_16">
    <path d="M 9 143.322353 
L 64.8 143.322353 
" style="fill:none;"/>
   </g>
  </g>
 </g>
 <defs>
  <clipPath id="p17c1e3a1a7">
   <rect height="48.917647" width="55.8" x="9" y="25.92"/>
  </clipPath>
  <clipPath id="p61fc35968b">
   <rect height="48.917647" width="55.8" x="9" y="84.621176"/>
  </clipPath>
  <clipPath id="p80df4ef70f">
   <rect height="48.917647" width="55.8" x="9" y="143.322353"/>
  </clipPath>
 </defs>
</svg>
