<?xml version="1.0" encoding="utf-8" standalone="no"?>
<!DOCTYPE svg PUBLIC "-//W3C//DTD SVG 1.1//EN"
  "http://www.w3.org/Graphics/SVG/1.1/DTD/svg11.dtd">
<!-- Created with matplotlib (https://matplotlib.org/) -->
<svg height="144pt" version="1.1" viewBox="0 0 72 144" width="72pt" xmlns="http://www.w3.org/2000/svg" xmlns:xlink="http://www.w3.org/1999/xlink">
 <metadata>
  <rdf:RDF xmlns:cc="http://creativecommons.org/ns#" xmlns:dc="http://purl.org/dc/elements/1.1/" xmlns:rdf="http://www.w3.org/1999/02/22-rdf-syntax-ns#">
   <cc:Work>
    <dc:type rdf:resource="http://purl.org/dc/dcmitype/StillImage"/>
    <dc:date>2021-10-12T18:36:40.471365</dc:date>
    <dc:format>image/svg+xml</dc:format>
    <dc:creator>
     <cc:Agent>
      <dc:title>Matplotlib v3.3.2, https://matplotlib.org/</dc:title>
     </cc:Agent>
    </dc:creator>
   </cc:Work>
  </rdf:RDF>
 </metadata>
 <defs>
  <style type="text/css">*{stroke-linecap:butt;stroke-linejoin:round;}</style>
 </defs>
 <g id="figure_1">
  <g id="patch_1">
   <path d="M 0 144 
L 72 144 
L 72 0 
L 0 0 
z
" style="fill:none;"/>
  </g>
  <g id="axes_1">
   <g id="patch_2">
    <path d="M 9 67.68 
L 64.8 67.68 
L 64.8 17.28 
L 9 17.28 
z
" style="fill:none;"/>
   </g>
   <g id="matplotlib.axis_1">
    <g id="xtick_1">
     <g id="line2d_1">
      <defs>
       <path d="M 0 0 
L 0 3.5 
" id="maec301d301" style="stroke:#a9a9a9;stroke-width:2;"/>
      </defs>
      <g>
       <use style="fill:#a9a9a9;stroke:#a9a9a9;stroke-width:2;" x="9" xlink:href="#maec301d301" y="67.68"/>
      </g>
     </g>
    </g>
    <g id="xtick_2">
     <g id="line2d_2">
      <g>
       <use style="fill:#a9a9a9;stroke:#a9a9a9;stroke-width:2;" x="36.9" xlink:href="#maec301d301" y="67.68"/>
      </g>
     </g>
    </g>
    <g id="xtick_3">
     <g id="line2d_3">
      <g>
       <use style="fill:#a9a9a9;stroke:#a9a9a9;stroke-width:2;" x="64.8" xlink:href="#maec301d301" y="67.68"/>
      </g>
     </g>
    </g>
   </g>
   <g id="matplotlib.axis_2">
    <g id="ytick_1">
     <g id="line2d_4">
      <defs>
       <path d="M 0 0 
L -3.5 0 
" id="ma282d68874" style="stroke:#a9a9a9;stroke-width:2;"/>
      </defs>
      <g>
       <use style="fill:#a9a9a9;stroke:#a9a9a9;stroke-width:2;" x="9" xlink:href="#ma282d68874" y="67.68"/>
      </g>
     </g>
    </g>
    <g id="ytick_2">
     <g id="line2d_5">
      <g>
       <use style="fill:#a9a9a9;stroke:#a9a9a9;stroke-width:2;" x="9" xlink:href="#ma282d68874" y="42.48"/>
      </g>
     </g>
    </g>
    <g id="ytick_3">
     <g id="line2d_6">
      <g>
       <use style="fill:#a9a9a9;stroke:#a9a9a9;stroke-width:2;" x="9" xlink:href="#ma282d68874" y="17.28"/>
      </g>
     </g>
    </g>
   </g>
   <g id="line2d_7">
    <path clip-path="url(#p72d5c8d3ee)" d="M 10.86031 55.374423 
L 11.79031 57.929685 
L 12.72031 59.849827 
L 13.65031 60.444534 
L 14.58031 60.87042 
L 15.51031 59.724304 
L 16.44031 59.291309 
L 17.37031 59.341893 
L 18.30031 59.055995 
L 19.23031 59.017904 
L 20.16031 58.364943 
L 21.09031 57.723453 
L 22.02031 57.540799 
L 22.95031 57.281318 
L 23.88031 56.789536 
L 24.81031 56.636568 
L 25.74031 56.581138 
L 26.67031 56.629571 
L 27.60031 56.360503 
L 28.53031 56.34019 
L 29.46031 56.024997 
L 30.39031 55.695539 
L 31.32031 55.84935 
L 32.25031 55.923655 
L 33.18031 55.414574 
L 34.11031 55.226973 
L 35.04031 55.261708 
L 35.97031 55.474003 
L 36.90031 55.217772 
L 37.83031 55.178075 
L 38.76031 54.770137 
L 39.69031 54.601355 
L 40.62031 54.592158 
L 41.55031 54.530208 
L 42.48031 54.418545 
L 43.41031 54.206813 
L 44.34031 53.94182 
L 45.27031 53.598787 
L 46.20031 53.234067 
L 47.13031 53.005296 
L 48.06031 52.682989 
L 48.99031 52.101168 
L 49.92031 51.71076 
L 50.85031 51.197936 
L 51.78031 51.012373 
L 52.71031 50.645599 
L 53.64031 50.549241 
L 54.57031 50.224649 
L 55.50031 49.974731 
L 56.43031 49.888125 
L 57.36031 49.484914 
L 58.29031 49.001506 
L 59.22031 48.453309 
L 60.15031 48.293319 
L 61.08031 48.193933 
L 62.01031 47.87153 
L 62.94031 47.853635 
L 63.87031 47.344828 
" style="fill:none;stroke:#fc8d62;stroke-linecap:square;stroke-width:2;"/>
   </g>
   <g id="line2d_8">
    <path clip-path="url(#p72d5c8d3ee)" d="M 10.86031 52.664334 
L 11.79031 55.680761 
L 12.72031 57.698595 
L 13.65031 58.714128 
L 14.58031 57.881528 
L 15.51031 56.931579 
L 16.44031 56.136786 
L 17.37031 54.976342 
L 18.30031 56.043248 
L 19.23031 55.668043 
L 20.16031 55.344595 
L 21.09031 54.832147 
L 22.02031 55.20402 
L 22.95031 54.98197 
L 23.88031 54.768433 
L 24.81031 54.88068 
L 25.74031 54.075287 
L 26.67031 53.847837 
L 27.60031 53.48885 
L 28.53031 52.685193 
L 29.46031 52.29361 
L 30.39031 52.540136 
L 31.32031 52.22972 
L 32.25031 52.146935 
L 33.18031 51.791022 
L 34.11031 51.7588 
L 35.04031 52.177522 
L 35.97031 51.80884 
L 36.90031 51.550534 
L 37.83031 51.369588 
L 38.76031 51.120368 
L 39.69031 50.921842 
L 40.62031 50.288469 
L 41.55031 49.871561 
L 42.48031 49.381876 
L 43.41031 48.837554 
L 44.34031 48.684211 
L 45.27031 48.226626 
L 46.20031 47.67452 
L 47.13031 47.477559 
L 48.06031 47.23809 
L 48.99031 46.741608 
L 49.92031 46.678906 
L 50.85031 46.559933 
L 51.78031 46.263525 
L 52.71031 45.862659 
L 53.64031 45.433226 
L 54.57031 45.676641 
L 55.50031 45.312846 
L 56.43031 45.276145 
L 57.36031 45.264617 
L 58.29031 45.019061 
L 59.22031 44.927263 
L 60.15031 44.672096 
L 61.08031 44.177511 
L 62.01031 43.99546 
L 62.94031 44.011629 
L 63.87031 44.569938 
" style="fill:none;stroke:#fc8d62;stroke-dasharray:1.5,1.5;stroke-dashoffset:0;stroke-opacity:0.7;stroke-width:1.5;"/>
   </g>
   <g id="patch_3">
    <path d="M 9 67.68 
L 9 17.28 
" style="fill:none;stroke:#a9a9a9;stroke-linecap:square;stroke-linejoin:miter;stroke-width:2;"/>
   </g>
   <g id="patch_4">
    <path d="M 64.8 67.68 
L 64.8 17.28 
" style="fill:none;"/>
   </g>
   <g id="patch_5">
    <path d="M 9 67.68 
L 64.8 67.68 
" style="fill:none;stroke:#a9a9a9;stroke-linecap:square;stroke-linejoin:miter;stroke-width:2;"/>
   </g>
   <g id="patch_6">
    <path d="M 9 17.28 
L 64.8 17.28 
" style="fill:none;"/>
   </g>
  </g>
  <g id="axes_2">
   <g id="patch_7">
    <path d="M 9 128.16 
L 64.8 128.16 
L 64.8 77.76 
L 9 77.76 
z
" style="fill:none;"/>
   </g>
   <g id="matplotlib.axis_3">
    <g id="xtick_4">
     <g id="line2d_9">
      <g>
       <use style="fill:#a9a9a9;stroke:#a9a9a9;stroke-width:2;" x="9" xlink:href="#maec301d301" y="128.16"/>
      </g>
     </g>
    </g>
    <g id="xtick_5">
     <g id="line2d_10">
      <g>
       <use style="fill:#a9a9a9;stroke:#a9a9a9;stroke-width:2;" x="36.9" xlink:href="#maec301d301" y="128.16"/>
      </g>
     </g>
    </g>
    <g id="xtick_6">
     <g id="line2d_11">
      <g>
       <use style="fill:#a9a9a9;stroke:#a9a9a9;stroke-width:2;" x="64.8" xlink:href="#maec301d301" y="128.16"/>
      </g>
     </g>
    </g>
   </g>
   <g id="matplotlib.axis_4">
    <g id="ytick_4">
     <g id="line2d_12">
      <g>
       <use style="fill:#a9a9a9;stroke:#a9a9a9;stroke-width:2;" x="9" xlink:href="#ma282d68874" y="128.16"/>
      </g>
     </g>
    </g>
    <g id="ytick_5">
     <g id="line2d_13">
      <g>
       <use style="fill:#a9a9a9;stroke:#a9a9a9;stroke-width:2;" x="9" xlink:href="#ma282d68874" y="102.96"/>
      </g>
     </g>
    </g>
    <g id="ytick_6">
     <g id="line2d_14">
      <g>
       <use style="fill:#a9a9a9;stroke:#a9a9a9;stroke-width:2;" x="9" xlink:href="#ma282d68874" y="77.76"/>
      </g>
     </g>
    </g>
   </g>
   <g id="line2d_15">
    <path clip-path="url(#pdfaf416898)" d="M 10.86031 128.127409 
L 11.79031 127.777837 
L 12.72031 127.348105 
L 13.65031 126.842683 
L 14.58031 126.439645 
L 15.51031 125.91804 
L 16.44031 125.84907 
L 17.37031 125.641568 
L 18.30031 125.015235 
L 19.23031 124.95078 
L 20.16031 124.546958 
L 21.09031 124.529693 
L 22.02031 124.310602 
L 22.95031 124.177823 
L 23.88031 123.66807 
L 24.81031 123.358606 
L 25.74031 123.266432 
L 26.67031 122.98625 
L 27.60031 122.995815 
L 28.53031 122.423281 
L 29.46031 122.193558 
L 30.39031 122.078876 
L 31.32031 121.962868 
L 32.25031 121.879665 
L 33.18031 121.439176 
L 34.11031 121.147995 
L 35.04031 121.10033 
L 35.97031 121.120194 
L 36.90031 120.831682 
L 37.83031 120.518408 
L 38.76031 120.214063 
L 39.69031 120.114092 
L 40.62031 120.293432 
L 41.55031 120.105241 
L 42.48031 119.840846 
L 43.41031 119.837527 
L 44.34031 119.742576 
L 45.27031 119.472446 
L 46.20031 119.251214 
L 47.13031 119.141049 
L 48.06031 118.910124 
L 48.99031 118.729443 
L 49.92031 118.532169 
L 50.85031 118.079127 
L 51.78031 117.884481 
L 52.71031 117.887328 
L 53.64031 117.981324 
L 54.57031 117.873297 
L 55.50031 117.841024 
L 56.43031 117.657888 
L 57.36031 117.525869 
L 58.29031 117.318862 
L 59.22031 117.139068 
L 60.15031 117.028426 
L 61.08031 116.883845 
L 62.01031 116.658156 
L 62.94031 116.700306 
L 63.87031 116.46573 
" style="fill:none;stroke:#fc8d62;stroke-linecap:square;stroke-width:2;"/>
   </g>
   <g id="line2d_16">
    <path clip-path="url(#pdfaf416898)" d="M 10.86031 127.051244 
L 11.79031 125.797782 
L 12.72031 124.365127 
L 13.65031 122.608288 
L 14.58031 121.511962 
L 15.51031 119.401626 
L 16.44031 118.388392 
L 17.37031 117.527481 
L 18.30031 117.218937 
L 19.23031 116.36643 
L 20.16031 115.551335 
L 21.09031 114.251806 
L 22.02031 114.26895 
L 22.95031 113.953784 
L 23.88031 113.600044 
L 24.81031 113.470211 
L 25.74031 112.636874 
L 26.67031 111.955115 
L 27.60031 111.430156 
L 28.53031 111.051612 
L 29.46031 110.835502 
L 30.39031 110.559093 
L 31.32031 110.308394 
L 32.25031 109.863899 
L 33.18031 109.517492 
L 34.11031 109.426558 
L 35.04031 109.381276 
L 35.97031 109.21148 
L 36.90031 108.789916 
L 37.83031 108.419903 
L 38.76031 108.393013 
L 39.69031 108.040288 
L 40.62031 107.694702 
L 41.55031 107.336409 
L 42.48031 107.138604 
L 43.41031 106.842288 
L 44.34031 106.689984 
L 45.27031 106.23317 
L 46.20031 105.999049 
L 47.13031 105.834388 
L 48.06031 105.503789 
L 48.99031 105.265523 
L 49.92031 105.305288 
L 50.85031 105.353875 
L 51.78031 105.210793 
L 52.71031 104.882995 
L 53.64031 104.692007 
L 54.57031 104.603062 
L 55.50031 104.376705 
L 56.43031 104.343172 
L 57.36031 104.302685 
L 58.29031 104.050198 
L 59.22031 103.921071 
L 60.15031 103.753391 
L 61.08031 103.605415 
L 62.01031 103.547289 
L 62.94031 103.48997 
L 63.87031 103.633827 
" style="fill:none;stroke:#fc8d62;stroke-dasharray:1.5,1.5;stroke-dashoffset:0;stroke-opacity:0.7;stroke-width:1.5;"/>
   </g>
   <g id="patch_8">
    <path d="M 9 128.16 
L 9 77.76 
" style="fill:none;stroke:#a9a9a9;stroke-linecap:square;stroke-linejoin:miter;stroke-width:2;"/>
   </g>
   <g id="patch_9">
    <path d="M 64.8 128.16 
L 64.8 77.76 
" style="fill:none;"/>
   </g>
   <g id="patch_10">
    <path d="M 9 128.16 
L 64.8 128.16 
" style="fill:none;stroke:#a9a9a9;stroke-linecap:square;stroke-linejoin:miter;stroke-width:2;"/>
   </g>
   <g id="patch_11">
    <path d="M 9 77.76 
L 64.8 77.76 
" style="fill:none;"/>
   </g>
  </g>
 </g>
 <defs>
  <clipPath id="p72d5c8d3ee">
   <rect height="50.4" width="55.8" x="9" y="17.28"/>
  </clipPath>
  <clipPath id="pdfaf416898">
   <rect height="50.4" width="55.8" x="9" y="77.76"/>
  </clipPath>
 </defs>
</svg>
