<?xml version="1.0" encoding="utf-8" standalone="no"?>
<!DOCTYPE svg PUBLIC "-//W3C//DTD SVG 1.1//EN"
  "http://www.w3.org/Graphics/SVG/1.1/DTD/svg11.dtd">
<!-- Created with matplotlib (https://matplotlib.org/) -->
<svg height="144pt" version="1.1" viewBox="0 0 72 144" width="72pt" xmlns="http://www.w3.org/2000/svg" xmlns:xlink="http://www.w3.org/1999/xlink">
 <metadata>
  <rdf:RDF xmlns:cc="http://creativecommons.org/ns#" xmlns:dc="http://purl.org/dc/elements/1.1/" xmlns:rdf="http://www.w3.org/1999/02/22-rdf-syntax-ns#">
   <cc:Work>
    <dc:type rdf:resource="http://purl.org/dc/dcmitype/StillImage"/>
    <dc:date>2021-10-13T14:19:57.713869</dc:date>
    <dc:format>image/svg+xml</dc:format>
    <dc:creator>
     <cc:Agent>
      <dc:title>Matplotlib v3.3.2, https://matplotlib.org/</dc:title>
     </cc:Agent>
    </dc:creator>
   </cc:Work>
  </rdf:RDF>
 </metadata>
 <defs>
  <style type="text/css">*{stroke-linecap:butt;stroke-linejoin:round;}</style>
 </defs>
 <g id="figure_1">
  <g id="patch_1">
   <path d="M 0 144 
L 72 144 
L 72 0 
L 0 0 
z
" style="fill:none;"/>
  </g>
  <g id="axes_1">
   <g id="patch_2">
    <path d="M 9 67.68 
L 64.8 67.68 
L 64.8 17.28 
L 9 17.28 
z
" style="fill:none;"/>
   </g>
   <g id="matplotlib.axis_1">
    <g id="xtick_1">
     <g id="line2d_1">
      <defs>
       <path d="M 0 0 
L 0 3.5 
" id="m6d6fbf2a0c" style="stroke:#a9a9a9;stroke-width:2;"/>
      </defs>
      <g>
       <use style="fill:#a9a9a9;stroke:#a9a9a9;stroke-width:2;" x="9" xlink:href="#m6d6fbf2a0c" y="67.68"/>
      </g>
     </g>
    </g>
    <g id="xtick_2">
     <g id="line2d_2">
      <g>
       <use style="fill:#a9a9a9;stroke:#a9a9a9;stroke-width:2;" x="36.9" xlink:href="#m6d6fbf2a0c" y="67.68"/>
      </g>
     </g>
    </g>
    <g id="xtick_3">
     <g id="line2d_3">
      <g>
       <use style="fill:#a9a9a9;stroke:#a9a9a9;stroke-width:2;" x="64.8" xlink:href="#m6d6fbf2a0c" y="67.68"/>
      </g>
     </g>
    </g>
   </g>
   <g id="matplotlib.axis_2">
    <g id="ytick_1">
     <g id="line2d_4">
      <defs>
       <path d="M 0 0 
L -3.5 0 
" id="m99d973a1a8" style="stroke:#a9a9a9;stroke-width:2;"/>
      </defs>
      <g>
       <use style="fill:#a9a9a9;stroke:#a9a9a9;stroke-width:2;" x="9" xlink:href="#m99d973a1a8" y="67.68"/>
      </g>
     </g>
    </g>
    <g id="ytick_2">
     <g id="line2d_5">
      <g>
       <use style="fill:#a9a9a9;stroke:#a9a9a9;stroke-width:2;" x="9" xlink:href="#m99d973a1a8" y="57.823855"/>
      </g>
     </g>
    </g>
    <g id="ytick_3">
     <g id="line2d_6">
      <g>
       <use style="fill:#a9a9a9;stroke:#a9a9a9;stroke-width:2;" x="9" xlink:href="#m99d973a1a8" y="47.967711"/>
      </g>
     </g>
    </g>
   </g>
   <g id="line2d_7">
    <path clip-path="url(#pa5fe4a1df8)" d="M 10.86031 58.516199 
L 11.79031 56.773634 
L 12.72031 54.976473 
L 13.65031 53.677299 
L 14.58031 52.119601 
L 15.51031 50.494333 
L 16.44031 49.101801 
L 17.37031 47.497007 
L 18.30031 46.66431 
L 19.23031 45.549118 
L 20.16031 45.125552 
L 21.09031 43.663514 
L 22.02031 41.748014 
L 22.95031 41.972524 
L 23.88031 41.26208 
L 24.81031 40.408792 
L 25.74031 39.470509 
L 26.67031 38.496822 
L 27.60031 37.184157 
L 28.53031 37.325615 
L 29.46031 35.974035 
L 30.39031 35.432034 
L 31.32031 34.343444 
L 32.25031 33.605709 
L 33.18031 33.580822 
L 34.11031 33.150883 
L 35.04031 32.797352 
L 35.97031 31.890242 
L 36.90031 31.191807 
L 37.83031 30.467814 
L 38.76031 29.993569 
L 39.69031 29.626151 
L 40.62031 28.401965 
L 41.55031 27.927678 
L 42.48031 27.67579 
L 43.41031 27.238978 
L 44.34031 26.635387 
L 45.27031 26.267049 
L 46.20031 26.263707 
L 47.13031 25.695735 
L 48.06031 25.339958 
L 48.99031 25.048658 
L 49.92031 24.376343 
L 50.85031 24.260444 
L 51.78031 23.010659 
L 52.71031 22.470607 
L 53.64031 21.919109 
L 54.57031 21.956717 
L 55.50031 21.579576 
L 56.43031 20.622138 
L 57.36031 20.436984 
L 58.29031 19.860076 
L 59.22031 19.689522 
L 60.15031 19.260365 
L 61.08031 18.237639 
L 62.01031 17.87515 
L 62.94031 17.772807 
L 63.87031 17.791626 
" style="fill:none;stroke:#fc8d62;stroke-linecap:square;stroke-width:2;"/>
   </g>
   <g id="line2d_8">
    <path clip-path="url(#pa5fe4a1df8)" d="M 10.86031 59.024625 
L 11.79031 56.879385 
L 12.72031 54.816152 
L 13.65031 53.178412 
L 14.58031 52.086292 
L 15.51031 51.346277 
L 16.44031 49.66552 
L 17.37031 48.802971 
L 18.30031 47.762363 
L 19.23031 47.072311 
L 20.16031 45.815306 
L 21.09031 45.319707 
L 22.02031 44.850461 
L 22.95031 44.494817 
L 23.88031 43.614956 
L 24.81031 42.613667 
L 25.74031 42.1512 
L 26.67031 41.504751 
L 27.60031 40.400749 
L 28.53031 40.148821 
L 29.46031 39.079288 
L 30.39031 38.593784 
L 31.32031 37.552098 
L 32.25031 37.159753 
L 33.18031 36.790371 
L 34.11031 36.710166 
L 35.04031 36.108838 
L 35.97031 35.475696 
L 36.90031 35.104396 
L 37.83031 34.390304 
L 38.76031 33.53257 
L 39.69031 32.744382 
L 40.62031 32.457657 
L 41.55031 31.461874 
L 42.48031 30.670636 
L 43.41031 30.321394 
L 44.34031 29.911677 
L 45.27031 29.47285 
L 46.20031 28.115914 
L 47.13031 27.996903 
L 48.06031 27.749214 
L 48.99031 26.601221 
L 49.92031 25.830057 
L 50.85031 25.159426 
L 51.78031 25.158573 
L 52.71031 25.158958 
L 53.64031 24.958125 
L 54.57031 25.1318 
L 55.50031 24.679046 
L 56.43031 24.359458 
L 57.36031 24.105914 
L 58.29031 23.206184 
L 59.22031 23.087879 
L 60.15031 22.390284 
L 61.08031 22.119001 
L 62.01031 21.931018 
L 62.94031 21.886763 
L 63.87031 21.438393 
" style="fill:none;stroke:#fc8d62;stroke-dasharray:1.5,1.5;stroke-dashoffset:0;stroke-opacity:0.7;stroke-width:1.5;"/>
   </g>
   <g id="patch_3">
    <path d="M 9 67.68 
L 9 17.28 
" style="fill:none;stroke:#a9a9a9;stroke-linecap:square;stroke-linejoin:miter;stroke-width:2;"/>
   </g>
   <g id="patch_4">
    <path d="M 64.8 67.68 
L 64.8 17.28 
" style="fill:none;"/>
   </g>
   <g id="patch_5">
    <path d="M 9 67.68 
L 64.8 67.68 
" style="fill:none;stroke:#a9a9a9;stroke-linecap:square;stroke-linejoin:miter;stroke-width:2;"/>
   </g>
   <g id="patch_6">
    <path d="M 9 17.28 
L 64.8 17.28 
" style="fill:none;"/>
   </g>
  </g>
  <g id="axes_2">
   <g id="patch_7">
    <path d="M 9 128.16 
L 64.8 128.16 
L 64.8 77.76 
L 9 77.76 
z
" style="fill:none;"/>
   </g>
   <g id="matplotlib.axis_3">
    <g id="xtick_4">
     <g id="line2d_9">
      <g>
       <use style="fill:#a9a9a9;stroke:#a9a9a9;stroke-width:2;" x="9" xlink:href="#m6d6fbf2a0c" y="128.16"/>
      </g>
     </g>
    </g>
    <g id="xtick_5">
     <g id="line2d_10">
      <g>
       <use style="fill:#a9a9a9;stroke:#a9a9a9;stroke-width:2;" x="36.9" xlink:href="#m6d6fbf2a0c" y="128.16"/>
      </g>
     </g>
    </g>
    <g id="xtick_6">
     <g id="line2d_11">
      <g>
       <use style="fill:#a9a9a9;stroke:#a9a9a9;stroke-width:2;" x="64.8" xlink:href="#m6d6fbf2a0c" y="128.16"/>
      </g>
     </g>
    </g>
   </g>
   <g id="matplotlib.axis_4">
    <g id="ytick_4">
     <g id="line2d_12">
      <g>
       <use style="fill:#a9a9a9;stroke:#a9a9a9;stroke-width:2;" x="9" xlink:href="#m99d973a1a8" y="128.16"/>
      </g>
     </g>
    </g>
    <g id="ytick_5">
     <g id="line2d_13">
      <g>
       <use style="fill:#a9a9a9;stroke:#a9a9a9;stroke-width:2;" x="9" xlink:href="#m99d973a1a8" y="102.96"/>
      </g>
     </g>
    </g>
    <g id="ytick_6">
     <g id="line2d_14">
      <g>
       <use style="fill:#a9a9a9;stroke:#a9a9a9;stroke-width:2;" x="9" xlink:href="#m99d973a1a8" y="77.76"/>
      </g>
     </g>
    </g>
   </g>
   <g id="line2d_15">
    <path clip-path="url(#pa267f399c1)" d="M 10.86031 121.621103 
L 11.79031 120.435616 
L 12.72031 120.05323 
L 13.65031 119.817371 
L 14.58031 119.914768 
L 15.51031 119.984062 
L 16.44031 119.941133 
L 17.37031 119.863482 
L 18.30031 119.897202 
L 19.23031 119.76798 
L 20.16031 119.455457 
L 21.09031 119.351216 
L 22.02031 119.289761 
L 22.95031 119.4384 
L 23.88031 119.460551 
L 24.81031 119.50355 
L 25.74031 119.307089 
L 26.67031 119.237488 
L 27.60031 119.231727 
L 28.53031 119.2239 
L 29.46031 119.315287 
L 30.39031 119.363108 
L 31.32031 119.371018 
L 32.25031 119.308878 
L 33.18031 119.209211 
L 34.11031 119.195192 
L 35.04031 119.191458 
L 35.97031 119.112662 
L 36.90031 119.050976 
L 37.83031 119.04346 
L 38.76031 119.006479 
L 39.69031 119.033796 
L 40.62031 119.137607 
L 41.55031 119.207904 
L 42.48031 119.162692 
L 43.41031 119.188948 
L 44.34031 119.197071 
L 45.27031 119.210465 
L 46.20031 119.224192 
L 47.13031 119.206913 
L 48.06031 119.193007 
L 48.99031 119.223262 
L 49.92031 119.223876 
L 50.85031 119.184422 
L 51.78031 119.173891 
L 52.71031 119.180895 
L 53.64031 119.173554 
L 54.57031 119.174131 
L 55.50031 119.183916 
L 56.43031 119.197699 
L 57.36031 119.173199 
L 58.29031 119.154457 
L 59.22031 119.154362 
L 60.15031 119.149468 
L 61.08031 119.118357 
L 62.01031 119.136574 
L 62.94031 119.130208 
L 63.87031 119.113787 
" style="fill:none;stroke:#fc8d62;stroke-linecap:square;stroke-width:2;"/>
   </g>
   <g id="line2d_16">
    <path clip-path="url(#pa267f399c1)" d="M 10.86031 104.898071 
L 11.79031 100.620538 
L 12.72031 98.448175 
L 13.65031 97.544924 
L 14.58031 96.836271 
L 15.51031 96.655038 
L 16.44031 95.914181 
L 17.37031 95.395455 
L 18.30031 95.046304 
L 19.23031 95.039138 
L 20.16031 94.819753 
L 21.09031 94.902238 
L 22.02031 94.836673 
L 22.95031 94.624903 
L 23.88031 94.516038 
L 24.81031 94.416752 
L 25.74031 94.473571 
L 26.67031 94.503952 
L 27.60031 94.388781 
L 28.53031 94.343544 
L 29.46031 94.273865 
L 30.39031 94.274668 
L 31.32031 94.258512 
L 32.25031 94.18081 
L 33.18031 94.110768 
L 34.11031 94.065624 
L 35.04031 94.006959 
L 35.97031 93.949614 
L 36.90031 93.901011 
L 37.83031 93.902165 
L 38.76031 93.851355 
L 39.69031 93.889353 
L 40.62031 93.910982 
L 41.55031 93.945805 
L 42.48031 93.913024 
L 43.41031 93.793873 
L 44.34031 93.683042 
L 45.27031 93.662811 
L 46.20031 93.614527 
L 47.13031 93.578683 
L 48.06031 93.520199 
L 48.99031 93.534729 
L 49.92031 93.530207 
L 50.85031 93.531 
L 51.78031 93.511888 
L 52.71031 93.469606 
L 53.64031 93.461367 
L 54.57031 93.487206 
L 55.50031 93.446677 
L 56.43031 93.409832 
L 57.36031 93.417885 
L 58.29031 93.386404 
L 59.22031 93.419959 
L 60.15031 93.401609 
L 61.08031 93.359565 
L 62.01031 93.331343 
L 62.94031 93.319058 
L 63.87031 93.323216 
" style="fill:none;stroke:#fc8d62;stroke-dasharray:1.5,1.5;stroke-dashoffset:0;stroke-opacity:0.7;stroke-width:1.5;"/>
   </g>
   <g id="patch_8">
    <path d="M 9 128.16 
L 9 77.76 
" style="fill:none;stroke:#a9a9a9;stroke-linecap:square;stroke-linejoin:miter;stroke-width:2;"/>
   </g>
   <g id="patch_9">
    <path d="M 64.8 128.16 
L 64.8 77.76 
" style="fill:none;"/>
   </g>
   <g id="patch_10">
    <path d="M 9 128.16 
L 64.8 128.16 
" style="fill:none;stroke:#a9a9a9;stroke-linecap:square;stroke-linejoin:miter;stroke-width:2;"/>
   </g>
   <g id="patch_11">
    <path d="M 9 77.76 
L 64.8 77.76 
" style="fill:none;"/>
   </g>
  </g>
 </g>
 <defs>
  <clipPath id="pa5fe4a1df8">
   <rect height="50.4" width="55.8" x="9" y="17.28"/>
  </clipPath>
  <clipPath id="pa267f399c1">
   <rect height="50.4" width="55.8" x="9" y="77.76"/>
  </clipPath>
 </defs>
</svg>
