<?xml version="1.0" encoding="utf-8" standalone="no"?>
<!DOCTYPE svg PUBLIC "-//W3C//DTD SVG 1.1//EN"
  "http://www.w3.org/Graphics/SVG/1.1/DTD/svg11.dtd">
<!-- Created with matplotlib (https://matplotlib.org/) -->
<svg height="144pt" version="1.1" viewBox="0 0 72 144" width="72pt" xmlns="http://www.w3.org/2000/svg" xmlns:xlink="http://www.w3.org/1999/xlink">
 <metadata>
  <rdf:RDF xmlns:cc="http://creativecommons.org/ns#" xmlns:dc="http://purl.org/dc/elements/1.1/" xmlns:rdf="http://www.w3.org/1999/02/22-rdf-syntax-ns#">
   <cc:Work>
    <dc:type rdf:resource="http://purl.org/dc/dcmitype/StillImage"/>
    <dc:date>2021-10-13T16:04:04.858674</dc:date>
    <dc:format>image/svg+xml</dc:format>
    <dc:creator>
     <cc:Agent>
      <dc:title>Matplotlib v3.3.2, https://matplotlib.org/</dc:title>
     </cc:Agent>
    </dc:creator>
   </cc:Work>
  </rdf:RDF>
 </metadata>
 <defs>
  <style type="text/css">*{stroke-linecap:butt;stroke-linejoin:round;}</style>
 </defs>
 <g id="figure_1">
  <g id="patch_1">
   <path d="M 0 144 
L 72 144 
L 72 0 
L 0 0 
z
" style="fill:none;"/>
  </g>
  <g id="axes_1">
   <g id="patch_2">
    <path d="M 9 67.68 
L 64.8 67.68 
L 64.8 17.28 
L 9 17.28 
z
" style="fill:none;"/>
   </g>
   <g id="matplotlib.axis_1">
    <g id="xtick_1">
     <g id="line2d_1">
      <defs>
       <path d="M 0 0 
L 0 3.5 
" id="m5144f0929b" style="stroke:#a9a9a9;stroke-width:2;"/>
      </defs>
      <g>
       <use style="fill:#a9a9a9;stroke:#a9a9a9;stroke-width:2;" x="9" xlink:href="#m5144f0929b" y="67.68"/>
      </g>
     </g>
    </g>
    <g id="xtick_2">
     <g id="line2d_2">
      <g>
       <use style="fill:#a9a9a9;stroke:#a9a9a9;stroke-width:2;" x="36.9" xlink:href="#m5144f0929b" y="67.68"/>
      </g>
     </g>
    </g>
    <g id="xtick_3">
     <g id="line2d_3">
      <g>
       <use style="fill:#a9a9a9;stroke:#a9a9a9;stroke-width:2;" x="64.8" xlink:href="#m5144f0929b" y="67.68"/>
      </g>
     </g>
    </g>
   </g>
   <g id="matplotlib.axis_2">
    <g id="ytick_1">
     <g id="line2d_4">
      <defs>
       <path d="M 0 0 
L -3.5 0 
" id="m29e552ee76" style="stroke:#a9a9a9;stroke-width:2;"/>
      </defs>
      <g>
       <use style="fill:#a9a9a9;stroke:#a9a9a9;stroke-width:2;" x="9" xlink:href="#m29e552ee76" y="67.68"/>
      </g>
     </g>
    </g>
    <g id="ytick_2">
     <g id="line2d_5">
      <g>
       <use style="fill:#a9a9a9;stroke:#a9a9a9;stroke-width:2;" x="9" xlink:href="#m29e552ee76" y="64.033329"/>
      </g>
     </g>
    </g>
    <g id="ytick_3">
     <g id="line2d_6">
      <g>
       <use style="fill:#a9a9a9;stroke:#a9a9a9;stroke-width:2;" x="9" xlink:href="#m29e552ee76" y="60.386658"/>
      </g>
     </g>
    </g>
   </g>
   <g id="line2d_7">
    <path clip-path="url(#pdf52ec301b)" d="M 10.86031 59.095555 
L 11.79031 56.912106 
L 12.72031 55.490459 
L 13.65031 53.983433 
L 14.58031 52.585599 
L 15.51031 51.406485 
L 16.44031 50.434075 
L 17.37031 49.41667 
L 18.30031 48.393767 
L 19.23031 47.190031 
L 20.16031 46.759949 
L 21.09031 46.12626 
L 22.02031 44.867096 
L 22.95031 43.832279 
L 23.88031 43.491374 
L 24.81031 42.346878 
L 25.74031 41.583787 
L 26.67031 40.705453 
L 27.60031 39.539032 
L 28.53031 37.732779 
L 29.46031 36.656115 
L 30.39031 35.979452 
L 31.32031 35.606225 
L 32.25031 34.799229 
L 33.18031 33.907747 
L 34.11031 33.112012 
L 35.04031 32.008813 
L 35.97031 31.205921 
L 36.90031 31.442916 
L 37.83031 31.119424 
L 38.76031 29.730482 
L 39.69031 29.000629 
L 40.62031 28.538558 
L 41.55031 27.64215 
L 42.48031 26.81895 
L 43.41031 25.691714 
L 44.34031 24.971757 
L 45.27031 24.825809 
L 46.20031 23.773254 
L 47.13031 23.13986 
L 48.06031 22.505241 
L 48.99031 22.033767 
L 49.92031 21.435559 
L 50.85031 21.364573 
L 51.78031 20.811221 
L 52.71031 21.324181 
L 53.64031 21.513721 
L 54.57031 21.583077 
L 55.50031 21.151257 
L 56.43031 21.043957 
L 57.36031 20.324897 
L 58.29031 19.470852 
L 59.22031 19.907466 
L 60.15031 19.314964 
L 61.08031 18.894552 
L 62.01031 18.422925 
L 62.94031 18.129679 
L 63.87031 17.462334 
" style="fill:none;stroke:#fc8d62;stroke-linecap:square;stroke-width:2;"/>
   </g>
   <g id="line2d_8">
    <path clip-path="url(#pdf52ec301b)" d="M 10.86031 57.324422 
L 11.79031 55.370114 
L 12.72031 53.440953 
L 13.65031 51.364971 
L 14.58031 49.913898 
L 15.51031 48.602418 
L 16.44031 47.799805 
L 17.37031 46.21706 
L 18.30031 45.262987 
L 19.23031 43.530716 
L 20.16031 42.620016 
L 21.09031 41.13482 
L 22.02031 39.690197 
L 22.95031 38.771383 
L 23.88031 36.998791 
L 24.81031 35.628392 
L 25.74031 34.791621 
L 26.67031 34.548225 
L 27.60031 33.706866 
L 28.53031 32.739319 
L 29.46031 32.278524 
L 30.39031 31.450516 
L 31.32031 29.942079 
L 32.25031 29.05492 
L 33.18031 26.911301 
L 34.11031 26.112425 
L 35.04031 25.40888 
L 35.97031 24.254889 
L 36.90031 23.059224 
L 37.83031 23.263969 
L 38.76031 22.53132 
L 39.69031 22.038895 
L 40.62031 22.394875 
L 41.55031 21.835716 
L 42.48031 21.219377 
L 43.41031 20.747113 
L 44.34031 19.896663 
L 45.27031 18.776659 
L 46.20031 19.120301 
L 47.13031 18.845894 
L 48.06031 17.571575 
L 48.99031 16.957283 
L 49.92031 16.269645 
L 50.85031 16.269544 
L 51.78031 15.648895 
L 52.71031 14.685942 
L 53.64031 13.660172 
L 54.57031 13.716015 
L 55.50031 12.716887 
L 56.43031 11.946577 
L 57.36031 11.591608 
L 58.29031 11.855039 
L 59.22031 11.679705 
L 60.15031 11.898941 
L 61.08031 11.857721 
L 62.01031 11.220713 
L 62.94031 11.110486 
L 63.87031 9.826379 
" style="fill:none;stroke:#fc8d62;stroke-dasharray:1.5,1.5;stroke-dashoffset:0;stroke-opacity:0.7;stroke-width:1.5;"/>
   </g>
   <g id="patch_3">
    <path d="M 9 67.68 
L 9 17.28 
" style="fill:none;stroke:#a9a9a9;stroke-linecap:square;stroke-linejoin:miter;stroke-width:2;"/>
   </g>
   <g id="patch_4">
    <path d="M 64.8 67.68 
L 64.8 17.28 
" style="fill:none;"/>
   </g>
   <g id="patch_5">
    <path d="M 9 67.68 
L 64.8 67.68 
" style="fill:none;stroke:#a9a9a9;stroke-linecap:square;stroke-linejoin:miter;stroke-width:2;"/>
   </g>
   <g id="patch_6">
    <path d="M 9 17.28 
L 64.8 17.28 
" style="fill:none;"/>
   </g>
  </g>
  <g id="axes_2">
   <g id="patch_7">
    <path d="M 9 128.16 
L 64.8 128.16 
L 64.8 77.76 
L 9 77.76 
z
" style="fill:none;"/>
   </g>
   <g id="matplotlib.axis_3">
    <g id="xtick_4">
     <g id="line2d_9">
      <g>
       <use style="fill:#a9a9a9;stroke:#a9a9a9;stroke-width:2;" x="9" xlink:href="#m5144f0929b" y="128.16"/>
      </g>
     </g>
    </g>
    <g id="xtick_5">
     <g id="line2d_10">
      <g>
       <use style="fill:#a9a9a9;stroke:#a9a9a9;stroke-width:2;" x="36.9" xlink:href="#m5144f0929b" y="128.16"/>
      </g>
     </g>
    </g>
    <g id="xtick_6">
     <g id="line2d_11">
      <g>
       <use style="fill:#a9a9a9;stroke:#a9a9a9;stroke-width:2;" x="64.8" xlink:href="#m5144f0929b" y="128.16"/>
      </g>
     </g>
    </g>
   </g>
   <g id="matplotlib.axis_4">
    <g id="ytick_4">
     <g id="line2d_12">
      <g>
       <use style="fill:#a9a9a9;stroke:#a9a9a9;stroke-width:2;" x="9" xlink:href="#m29e552ee76" y="128.16"/>
      </g>
     </g>
    </g>
    <g id="ytick_5">
     <g id="line2d_13">
      <g>
       <use style="fill:#a9a9a9;stroke:#a9a9a9;stroke-width:2;" x="9" xlink:href="#m29e552ee76" y="102.96"/>
      </g>
     </g>
    </g>
    <g id="ytick_6">
     <g id="line2d_14">
      <g>
       <use style="fill:#a9a9a9;stroke:#a9a9a9;stroke-width:2;" x="9" xlink:href="#m29e552ee76" y="77.76"/>
      </g>
     </g>
    </g>
   </g>
   <g id="line2d_15">
    <path clip-path="url(#p66f4266939)" d="M 10.86031 127.967907 
L 11.79031 127.965287 
L 12.72031 127.988069 
L 13.65031 128.027006 
L 14.58031 128.033446 
L 15.51031 128.03154 
L 16.44031 128.019629 
L 17.37031 127.999911 
L 18.30031 127.979374 
L 19.23031 127.982652 
L 20.16031 127.969862 
L 21.09031 127.953841 
L 22.02031 127.940006 
L 22.95031 127.944805 
L 23.88031 127.944927 
L 24.81031 127.945645 
L 25.74031 127.944642 
L 26.67031 127.948391 
L 27.60031 127.954896 
L 28.53031 127.951903 
L 29.46031 127.959026 
L 30.39031 127.951158 
L 31.32031 127.935369 
L 32.25031 127.927631 
L 33.18031 127.927785 
L 34.11031 127.925744 
L 35.04031 127.921808 
L 35.97031 127.936984 
L 36.90031 127.93838 
L 37.83031 127.933743 
L 38.76031 127.9394 
L 39.69031 127.937251 
L 40.62031 127.932751 
L 41.55031 127.936032 
L 42.48031 127.93745 
L 43.41031 127.939439 
L 44.34031 127.93352 
L 45.27031 127.925874 
L 46.20031 127.925538 
L 47.13031 127.92567 
L 48.06031 127.926232 
L 48.99031 127.924103 
L 49.92031 127.926666 
L 50.85031 127.926836 
L 51.78031 127.93112 
L 52.71031 127.928532 
L 53.64031 127.928178 
L 54.57031 127.927791 
L 55.50031 127.927484 
L 56.43031 127.926419 
L 57.36031 127.929057 
L 58.29031 127.926673 
L 59.22031 127.925639 
L 60.15031 127.928754 
L 61.08031 127.92596 
L 62.01031 127.924473 
L 62.94031 127.923093 
L 63.87031 127.923323 
" style="fill:none;stroke:#fc8d62;stroke-linecap:square;stroke-width:2;"/>
   </g>
   <g id="line2d_16">
    <path clip-path="url(#p66f4266939)" d="M 10.86031 99.183853 
L 11.79031 98.428878 
L 12.72031 97.886293 
L 13.65031 97.701234 
L 14.58031 97.574441 
L 15.51031 97.279422 
L 16.44031 97.056291 
L 17.37031 97.020119 
L 18.30031 96.872948 
L 19.23031 96.829783 
L 20.16031 96.760671 
L 21.09031 96.719475 
L 22.02031 96.631547 
L 22.95031 96.593154 
L 23.88031 96.517447 
L 24.81031 96.43823 
L 25.74031 96.386725 
L 26.67031 96.427485 
L 27.60031 96.465188 
L 28.53031 96.463717 
L 29.46031 96.430388 
L 30.39031 96.433577 
L 31.32031 96.436099 
L 32.25031 96.435705 
L 33.18031 96.412176 
L 34.11031 96.363512 
L 35.04031 96.30351 
L 35.97031 96.273862 
L 36.90031 96.309585 
L 37.83031 96.280547 
L 38.76031 96.286427 
L 39.69031 96.268957 
L 40.62031 96.28725 
L 41.55031 96.290791 
L 42.48031 96.298692 
L 43.41031 96.297586 
L 44.34031 96.320908 
L 45.27031 96.34062 
L 46.20031 96.351406 
L 47.13031 96.341061 
L 48.06031 96.366998 
L 48.99031 96.359359 
L 49.92031 96.34384 
L 50.85031 96.341554 
L 51.78031 96.329327 
L 52.71031 96.302532 
L 53.64031 96.309698 
L 54.57031 96.299104 
L 55.50031 96.286361 
L 56.43031 96.2725 
L 57.36031 96.272461 
L 58.29031 96.266071 
L 59.22031 96.264822 
L 60.15031 96.2698 
L 61.08031 96.273496 
L 62.01031 96.282187 
L 62.94031 96.256715 
L 63.87031 96.251317 
" style="fill:none;stroke:#fc8d62;stroke-dasharray:1.5,1.5;stroke-dashoffset:0;stroke-opacity:0.7;stroke-width:1.5;"/>
   </g>
   <g id="patch_8">
    <path d="M 9 128.16 
L 9 77.76 
" style="fill:none;stroke:#a9a9a9;stroke-linecap:square;stroke-linejoin:miter;stroke-width:2;"/>
   </g>
   <g id="patch_9">
    <path d="M 64.8 128.16 
L 64.8 77.76 
" style="fill:none;"/>
   </g>
   <g id="patch_10">
    <path d="M 9 128.16 
L 64.8 128.16 
" style="fill:none;stroke:#a9a9a9;stroke-linecap:square;stroke-linejoin:miter;stroke-width:2;"/>
   </g>
   <g id="patch_11">
    <path d="M 9 77.76 
L 64.8 77.76 
" style="fill:none;"/>
   </g>
  </g>
 </g>
 <defs>
  <clipPath id="pdf52ec301b">
   <rect height="50.4" width="55.8" x="9" y="17.28"/>
  </clipPath>
  <clipPath id="p66f4266939">
   <rect height="50.4" width="55.8" x="9" y="77.76"/>
  </clipPath>
 </defs>
</svg>
