<?xml version="1.0" encoding="utf-8" standalone="no"?>
<!DOCTYPE svg PUBLIC "-//W3C//DTD SVG 1.1//EN"
  "http://www.w3.org/Graphics/SVG/1.1/DTD/svg11.dtd">
<!-- Created with matplotlib (https://matplotlib.org/) -->
<svg height="216pt" version="1.1" viewBox="0 0 72 216" width="72pt" xmlns="http://www.w3.org/2000/svg" xmlns:xlink="http://www.w3.org/1999/xlink">
 <metadata>
  <rdf:RDF xmlns:cc="http://creativecommons.org/ns#" xmlns:dc="http://purl.org/dc/elements/1.1/" xmlns:rdf="http://www.w3.org/1999/02/22-rdf-syntax-ns#">
   <cc:Work>
    <dc:type rdf:resource="http://purl.org/dc/dcmitype/StillImage"/>
    <dc:date>2021-10-13T00:21:10.343547</dc:date>
    <dc:format>image/svg+xml</dc:format>
    <dc:creator>
     <cc:Agent>
      <dc:title>Matplotlib v3.3.2, https://matplotlib.org/</dc:title>
     </cc:Agent>
    </dc:creator>
   </cc:Work>
  </rdf:RDF>
 </metadata>
 <defs>
  <style type="text/css">*{stroke-linecap:butt;stroke-linejoin:round;}</style>
 </defs>
 <g id="figure_1">
  <g id="patch_1">
   <path d="M 0 216 
L 72 216 
L 72 0 
L 0 0 
z
" style="fill:none;"/>
  </g>
  <g id="axes_1">
   <g id="patch_2">
    <path d="M 9 74.837647 
L 64.8 74.837647 
L 64.8 25.92 
L 9 25.92 
z
" style="fill:none;"/>
   </g>
   <g id="matplotlib.axis_1">
    <g id="xtick_1">
     <g id="line2d_1">
      <defs>
       <path d="M 0 0 
L 0 3.5 
" id="ma8a5ba805c" style="stroke:#a9a9a9;stroke-width:2;"/>
      </defs>
      <g>
       <use style="fill:#a9a9a9;stroke:#a9a9a9;stroke-width:2;" x="9" xlink:href="#ma8a5ba805c" y="74.837647"/>
      </g>
     </g>
    </g>
    <g id="xtick_2">
     <g id="line2d_2">
      <g>
       <use style="fill:#a9a9a9;stroke:#a9a9a9;stroke-width:2;" x="36.9" xlink:href="#ma8a5ba805c" y="74.837647"/>
      </g>
     </g>
    </g>
    <g id="xtick_3">
     <g id="line2d_3">
      <g>
       <use style="fill:#a9a9a9;stroke:#a9a9a9;stroke-width:2;" x="64.8" xlink:href="#ma8a5ba805c" y="74.837647"/>
      </g>
     </g>
    </g>
   </g>
   <g id="matplotlib.axis_2">
    <g id="ytick_1">
     <g id="line2d_4">
      <defs>
       <path d="M 0 0 
L -3.5 0 
" id="m319c1c269a" style="stroke:#a9a9a9;stroke-width:2;"/>
      </defs>
      <g>
       <use style="fill:#a9a9a9;stroke:#a9a9a9;stroke-width:2;" x="9" xlink:href="#m319c1c269a" y="74.837647"/>
      </g>
     </g>
    </g>
    <g id="ytick_2">
     <g id="line2d_5">
      <g>
       <use style="fill:#a9a9a9;stroke:#a9a9a9;stroke-width:2;" x="9" xlink:href="#m319c1c269a" y="72.821977"/>
      </g>
     </g>
    </g>
    <g id="ytick_3">
     <g id="line2d_6">
      <g>
       <use style="fill:#a9a9a9;stroke:#a9a9a9;stroke-width:2;" x="9" xlink:href="#m319c1c269a" y="70.806307"/>
      </g>
     </g>
    </g>
   </g>
   <g id="line2d_7">
    <path clip-path="url(#pb415661208)" d="M 10.86031 66.403512 
L 11.79031 65.452068 
L 12.72031 64.228389 
L 13.65031 63.548852 
L 14.58031 63.044611 
L 15.51031 62.543737 
L 16.44031 61.893472 
L 17.37031 60.770801 
L 18.30031 60.134671 
L 19.23031 58.903997 
L 20.16031 58.166131 
L 21.09031 56.626091 
L 22.02031 56.289873 
L 22.95031 55.300349 
L 23.88031 53.623381 
L 24.81031 52.325449 
L 25.74031 50.871179 
L 26.67031 49.560086 
L 27.60031 47.535987 
L 28.53031 46.195616 
L 29.46031 44.661792 
L 30.39031 42.371596 
L 31.32031 40.10942 
L 32.25031 38.357358 
L 33.18031 37.200174 
L 34.11031 36.160552 
L 35.04031 37.304125 
L 35.97031 39.215477 
L 36.90031 40.479178 
L 37.83031 40.991602 
L 38.76031 41.990265 
L 39.69031 42.057893 
L 40.62031 41.749457 
L 41.55031 42.12949 
L 42.48031 41.417182 
L 43.41031 41.016897 
L 44.34031 40.733143 
L 45.27031 40.149932 
L 46.20031 38.96205 
L 47.13031 38.17303 
L 48.06031 36.890294 
L 48.99031 36.27508 
L 49.92031 35.110218 
L 50.85031 32.934747 
L 51.78031 31.435012 
L 52.71031 30.231885 
L 53.64031 28.602759 
L 54.57031 27.852471 
L 55.50031 26.681355 
L 56.43031 26.020784 
L 57.36031 26.121394 
L 58.29031 26.676767 
L 59.22031 27.647126 
L 60.15031 28.61425 
L 61.08031 28.819692 
L 62.01031 28.439862 
L 62.94031 28.156939 
L 63.87031 27.676447 
" style="fill:none;stroke:#fc8d62;stroke-linecap:square;stroke-width:2;"/>
   </g>
   <g id="line2d_8">
    <path clip-path="url(#pb415661208)" d="M 10.86031 67.337128 
L 11.79031 66.372137 
L 12.72031 65.377136 
L 13.65031 65.011952 
L 14.58031 64.695804 
L 15.51031 63.723584 
L 16.44031 62.688983 
L 17.37031 62.498797 
L 18.30031 61.667552 
L 19.23031 60.422448 
L 20.16031 59.568734 
L 21.09031 57.225003 
L 22.02031 56.294892 
L 22.95031 54.832194 
L 23.88031 53.133466 
L 24.81031 50.092839 
L 25.74031 47.396273 
L 26.67031 44.696779 
L 27.60031 41.7417 
L 28.53031 39.242614 
L 29.46031 36.185403 
L 30.39031 33.949027 
L 31.32031 33.027671 
L 32.25031 31.498491 
L 33.18031 32.496691 
L 34.11031 32.011462 
L 35.04031 31.948999 
L 35.97031 32.182385 
L 36.90031 32.096498 
L 37.83031 32.171057 
L 38.76031 32.700879 
L 39.69031 32.161924 
L 40.62031 32.147548 
L 41.55031 33.295557 
L 42.48031 35.061299 
L 43.41031 35.75831 
L 44.34031 36.029144 
L 45.27031 35.463553 
L 46.20031 34.327962 
L 47.13031 33.275452 
L 48.06031 32.710004 
L 48.99031 31.543314 
L 49.92031 27.766225 
L 50.85031 25.218758 
L 51.78031 21.134897 
L 52.71031 16.518034 
L 53.64031 13.937199 
L 54.57031 11.850377 
L 55.50031 12.247035 
L 56.43031 11.757436 
L 57.36031 13.120498 
L 58.29031 14.096543 
L 59.22031 15.817846 
L 60.15031 17.885842 
L 61.08031 19.286486 
L 62.01031 20.246238 
L 62.94031 21.095534 
L 63.87031 22.304152 
" style="fill:none;stroke:#fc8d62;stroke-dasharray:1.5,1.5;stroke-dashoffset:0;stroke-opacity:0.7;stroke-width:1.5;"/>
   </g>
   <g id="patch_3">
    <path d="M 9 74.837647 
L 9 25.92 
" style="fill:none;stroke:#a9a9a9;stroke-linecap:square;stroke-linejoin:miter;stroke-width:2;"/>
   </g>
   <g id="patch_4">
    <path d="M 64.8 74.837647 
L 64.8 25.92 
" style="fill:none;"/>
   </g>
   <g id="patch_5">
    <path d="M 9 74.837647 
L 64.8 74.837647 
" style="fill:none;stroke:#a9a9a9;stroke-linecap:square;stroke-linejoin:miter;stroke-width:2;"/>
   </g>
   <g id="patch_6">
    <path d="M 9 25.92 
L 64.8 25.92 
" style="fill:none;"/>
   </g>
  </g>
  <g id="axes_2">
   <g id="patch_7">
    <path d="M 9 133.538824 
L 64.8 133.538824 
L 64.8 84.621176 
L 9 84.621176 
z
" style="fill:none;"/>
   </g>
   <g id="matplotlib.axis_3">
    <g id="xtick_4">
     <g id="line2d_9">
      <g>
       <use style="fill:#a9a9a9;stroke:#a9a9a9;stroke-width:2;" x="9" xlink:href="#ma8a5ba805c" y="133.538824"/>
      </g>
     </g>
    </g>
    <g id="xtick_5">
     <g id="line2d_10">
      <g>
       <use style="fill:#a9a9a9;stroke:#a9a9a9;stroke-width:2;" x="36.9" xlink:href="#ma8a5ba805c" y="133.538824"/>
      </g>
     </g>
    </g>
    <g id="xtick_6">
     <g id="line2d_11">
      <g>
       <use style="fill:#a9a9a9;stroke:#a9a9a9;stroke-width:2;" x="64.8" xlink:href="#ma8a5ba805c" y="133.538824"/>
      </g>
     </g>
    </g>
   </g>
   <g id="matplotlib.axis_4">
    <g id="ytick_4">
     <g id="line2d_12">
      <g>
       <use style="fill:#a9a9a9;stroke:#a9a9a9;stroke-width:2;" x="9" xlink:href="#m319c1c269a" y="133.538824"/>
      </g>
     </g>
    </g>
    <g id="ytick_5">
     <g id="line2d_13">
      <g>
       <use style="fill:#a9a9a9;stroke:#a9a9a9;stroke-width:2;" x="9" xlink:href="#m319c1c269a" y="109.08"/>
      </g>
     </g>
    </g>
    <g id="ytick_6">
     <g id="line2d_14">
      <g>
       <use style="fill:#a9a9a9;stroke:#a9a9a9;stroke-width:2;" x="9" xlink:href="#m319c1c269a" y="84.621176"/>
      </g>
     </g>
    </g>
   </g>
   <g id="line2d_15">
    <path clip-path="url(#pf0735a0bef)" d="M 10.86031 90.153743 
L 11.79031 89.994389 
L 12.72031 89.83491 
L 13.65031 89.721902 
L 14.58031 89.651765 
L 15.51031 89.647485 
L 16.44031 89.624067 
L 17.37031 89.632216 
L 18.30031 89.608977 
L 19.23031 89.582692 
L 20.16031 89.581724 
L 21.09031 89.551223 
L 22.02031 89.563384 
L 22.95031 89.570209 
L 23.88031 89.541629 
L 24.81031 89.536528 
L 25.74031 89.546483 
L 26.67031 89.558182 
L 27.60031 89.546578 
L 28.53031 89.547494 
L 29.46031 89.534789 
L 30.39031 89.527494 
L 31.32031 89.515892 
L 32.25031 89.51241 
L 33.18031 89.511944 
L 34.11031 89.508708 
L 35.04031 89.496347 
L 35.97031 89.495444 
L 36.90031 89.491283 
L 37.83031 89.494095 
L 38.76031 89.486418 
L 39.69031 89.48704 
L 40.62031 89.49123 
L 41.55031 89.491004 
L 42.48031 89.497578 
L 43.41031 89.503207 
L 44.34031 89.509407 
L 45.27031 89.510137 
L 46.20031 89.513084 
L 47.13031 89.523093 
L 48.06031 89.520344 
L 48.99031 89.51534 
L 49.92031 89.515018 
L 50.85031 89.509582 
L 51.78031 89.509323 
L 52.71031 89.504916 
L 53.64031 89.49562 
L 54.57031 89.494934 
L 55.50031 89.494236 
L 56.43031 89.499083 
L 57.36031 89.496544 
L 58.29031 89.496593 
L 59.22031 89.495146 
L 60.15031 89.49186 
L 61.08031 89.492615 
L 62.01031 89.492533 
L 62.94031 89.498726 
L 63.87031 89.502048 
" style="fill:none;stroke:#fc8d62;stroke-linecap:square;stroke-width:2;"/>
   </g>
   <g id="line2d_16">
    <path clip-path="url(#pf0735a0bef)" d="M 10.86031 98.051365 
L 11.79031 97.878403 
L 12.72031 97.738535 
L 13.65031 97.658701 
L 14.58031 97.583766 
L 15.51031 97.564094 
L 16.44031 97.478494 
L 17.37031 97.453686 
L 18.30031 97.422652 
L 19.23031 97.407251 
L 20.16031 97.398672 
L 21.09031 97.384403 
L 22.02031 97.38197 
L 22.95031 97.382921 
L 23.88031 97.362018 
L 24.81031 97.351084 
L 25.74031 97.34232 
L 26.67031 97.336773 
L 27.60031 97.318149 
L 28.53031 97.309009 
L 29.46031 97.303399 
L 30.39031 97.303154 
L 31.32031 97.302299 
L 32.25031 97.294838 
L 33.18031 97.292134 
L 34.11031 97.295018 
L 35.04031 97.295123 
L 35.97031 97.295592 
L 36.90031 97.295274 
L 37.83031 97.297469 
L 38.76031 97.296462 
L 39.69031 97.296057 
L 40.62031 97.287912 
L 41.55031 97.292616 
L 42.48031 97.300214 
L 43.41031 97.305688 
L 44.34031 97.312632 
L 45.27031 97.318 
L 46.20031 97.315867 
L 47.13031 97.317999 
L 48.06031 97.317075 
L 48.99031 97.310635 
L 49.92031 97.304393 
L 50.85031 97.299316 
L 51.78031 97.293274 
L 52.71031 97.283816 
L 53.64031 97.274896 
L 54.57031 97.272571 
L 55.50031 97.277985 
L 56.43031 97.271204 
L 57.36031 97.271104 
L 58.29031 97.272459 
L 59.22031 97.270577 
L 60.15031 97.2709 
L 61.08031 97.266623 
L 62.01031 97.267939 
L 62.94031 97.264593 
L 63.87031 97.264197 
" style="fill:none;stroke:#fc8d62;stroke-dasharray:1.5,1.5;stroke-dashoffset:0;stroke-opacity:0.7;stroke-width:1.5;"/>
   </g>
   <g id="patch_8">
    <path d="M 9 133.538824 
L 9 84.621176 
" style="fill:none;stroke:#a9a9a9;stroke-linecap:square;stroke-linejoin:miter;stroke-width:2;"/>
   </g>
   <g id="patch_9">
    <path d="M 64.8 133.538824 
L 64.8 84.621176 
" style="fill:none;"/>
   </g>
   <g id="patch_10">
    <path d="M 9 133.538824 
L 64.8 133.538824 
" style="fill:none;stroke:#a9a9a9;stroke-linecap:square;stroke-linejoin:miter;stroke-width:2;"/>
   </g>
   <g id="patch_11">
    <path d="M 9 84.621176 
L 64.8 84.621176 
" style="fill:none;"/>
   </g>
  </g>
  <g id="axes_3">
   <g id="patch_12">
    <path d="M 9 192.24 
L 64.8 192.24 
L 64.8 143.322353 
L 9 143.322353 
z
" style="fill:none;"/>
   </g>
   <g id="matplotlib.axis_5">
    <g id="xtick_7">
     <g id="line2d_17">
      <g>
       <use style="fill:#a9a9a9;stroke:#a9a9a9;stroke-width:2;" x="9" xlink:href="#ma8a5ba805c" y="151.993175"/>
      </g>
     </g>
    </g>
    <g id="xtick_8">
     <g id="line2d_18">
      <g>
       <use style="fill:#a9a9a9;stroke:#a9a9a9;stroke-width:2;" x="36.9" xlink:href="#ma8a5ba805c" y="151.993175"/>
      </g>
     </g>
    </g>
    <g id="xtick_9">
     <g id="line2d_19">
      <g>
       <use style="fill:#a9a9a9;stroke:#a9a9a9;stroke-width:2;" x="64.8" xlink:href="#ma8a5ba805c" y="151.993175"/>
      </g>
     </g>
    </g>
   </g>
   <g id="matplotlib.axis_6">
    <g id="ytick_7">
     <g id="line2d_20">
      <g>
       <use style="fill:#a9a9a9;stroke:#a9a9a9;stroke-width:2;" x="9" xlink:href="#m319c1c269a" y="151.993175"/>
      </g>
     </g>
    </g>
    <g id="ytick_8">
     <g id="line2d_21">
      <g>
       <use style="fill:#a9a9a9;stroke:#a9a9a9;stroke-width:2;" x="9" xlink:href="#m319c1c269a" y="178.824392"/>
      </g>
     </g>
    </g>
   </g>
   <g id="line2d_22">
    <path clip-path="url(#pc1f76343b9)" d="M 10.86031 143.36556 
L 11.79031 143.873122 
L 12.72031 143.322353 
L 13.65031 143.620229 
L 14.58031 143.582135 
L 15.51031 143.480034 
L 16.44031 143.614085 
L 17.37031 143.723929 
L 18.30031 143.511232 
L 19.23031 143.489886 
L 20.16031 143.343553 
L 21.09031 143.418185 
L 22.02031 143.42293 
L 22.95031 143.347747 
L 23.88031 143.463973 
L 24.81031 143.484734 
L 25.74031 143.533035 
L 26.67031 151.993175 
L 27.60031 143.566106 
L 28.53031 143.597192 
L 29.46031 143.574112 
L 30.39031 143.545576 
L 31.32031 143.496825 
L 32.25031 143.519411 
L 33.18031 143.513306 
L 34.11031 143.54033 
L 35.04031 143.506769 
L 35.97031 143.525778 
L 36.90031 143.566802 
L 37.83031 143.589721 
L 38.76031 143.630632 
L 39.69031 143.666018 
L 40.62031 143.626849 
L 41.55031 143.649093 
L 42.48031 143.596646 
L 43.41031 143.608827 
L 44.34031 143.573579 
L 45.27031 151.99317 
L 46.20031 151.993176 
L 47.13031 143.612118 
L 48.06031 143.545324 
L 48.99031 143.519977 
L 49.92031 143.518847 
L 50.85031 143.594829 
L 51.78031 143.597219 
L 52.71031 143.598366 
L 53.64031 143.587457 
L 54.57031 143.558004 
L 55.50031 143.540478 
L 56.43031 143.540839 
L 57.36031 143.529403 
L 58.29031 143.527626 
L 59.22031 143.491849 
L 60.15031 143.49841 
L 61.08031 143.473555 
L 62.01031 151.993175 
L 62.94031 143.492505 
L 63.87031 143.493346 
" style="fill:none;stroke:#fc8d62;stroke-linecap:square;stroke-width:2;"/>
   </g>
   <g id="line2d_23">
    <path clip-path="url(#pc1f76343b9)" d="M 10.86031 151.993066 
L 11.79031 151.993171 
L 12.72031 151.992648 
L 13.65031 151.993088 
L 14.58031 151.993182 
L 15.51031 151.993335 
L 16.44031 151.993427 
L 17.37031 151.993178 
L 18.30031 151.99304 
L 19.23031 151.993175 
L 20.16031 151.993266 
L 21.09031 151.993176 
L 22.02031 151.993194 
L 22.95031 151.993524 
L 23.88031 151.993167 
L 24.81031 151.993336 
L 25.74031 151.993175 
L 26.67031 151.993403 
L 27.60031 151.993158 
L 28.53031 151.992879 
L 29.46031 151.993087 
L 30.39031 151.993476 
L 31.32031 151.99305 
L 32.25031 151.993094 
L 33.18031 151.993067 
L 34.11031 151.993234 
L 35.04031 151.993207 
L 35.97031 151.993091 
L 36.90031 151.993095 
L 37.83031 151.993078 
L 38.76031 151.993149 
L 39.69031 151.993155 
L 40.62031 151.992545 
L 41.55031 151.993089 
L 42.48031 151.993165 
L 43.41031 151.993031 
L 44.34031 151.993169 
L 45.27031 151.993149 
L 46.20031 151.993131 
L 47.13031 151.993164 
L 48.06031 151.992619 
L 48.99031 151.993096 
L 49.92031 151.993174 
L 50.85031 151.992739 
L 51.78031 151.993205 
L 52.71031 151.993176 
L 53.64031 151.993176 
L 54.57031 151.993098 
L 55.50031 151.993047 
L 56.43031 151.992651 
L 57.36031 151.993175 
L 58.29031 151.992913 
L 59.22031 151.993196 
L 60.15031 151.992814 
L 61.08031 151.993176 
L 62.01031 151.992793 
L 62.94031 151.993158 
L 63.87031 151.992608 
" style="fill:none;stroke:#fc8d62;stroke-dasharray:1.5,1.5;stroke-dashoffset:0;stroke-opacity:0.7;stroke-width:1.5;"/>
   </g>
   <g id="line2d_24">
    <path clip-path="url(#pc1f76343b9)" d="M 9 178.824392 
L 64.8 178.824392 
" style="fill:none;stroke:#66c2a5;stroke-dasharray:1.5,1.5;stroke-dashoffset:0;stroke-opacity:0.7;stroke-width:1.5;"/>
   </g>
   <g id="patch_13">
    <path d="M 9 192.24 
L 9 143.322353 
" style="fill:none;stroke:#a9a9a9;stroke-linecap:square;stroke-linejoin:miter;stroke-width:2;"/>
   </g>
   <g id="patch_14">
    <path d="M 64.8 192.24 
L 64.8 143.322353 
" style="fill:none;"/>
   </g>
   <g id="patch_15">
    <path d="M 9 151.993175 
L 64.8 151.993175 
" style="fill:none;stroke:#a9a9a9;stroke-linecap:square;stroke-linejoin:miter;stroke-width:2;"/>
   </g>
   <g id="patch_16">
    <path d="M 9 143.322353 
L 64.8 143.322353 
" style="fill:none;"/>
   </g>
  </g>
 </g>
 <defs>
  <clipPath id="pb415661208">
   <rect height="48.917647" width="55.8" x="9" y="25.92"/>
  </clipPath>
  <clipPath id="pf0735a0bef">
   <rect height="48.917647" width="55.8" x="9" y="84.621176"/>
  </clipPath>
  <clipPath id="pc1f76343b9">
   <rect height="48.917647" width="55.8" x="9" y="143.322353"/>
  </clipPath>
 </defs>
</svg>
