<?xml version="1.0" encoding="utf-8" standalone="no"?>
<!DOCTYPE svg PUBLIC "-//W3C//DTD SVG 1.1//EN"
  "http://www.w3.org/Graphics/SVG/1.1/DTD/svg11.dtd">
<!-- Created with matplotlib (https://matplotlib.org/) -->
<svg height="144pt" version="1.1" viewBox="0 0 72 144" width="72pt" xmlns="http://www.w3.org/2000/svg" xmlns:xlink="http://www.w3.org/1999/xlink">
 <metadata>
  <rdf:RDF xmlns:cc="http://creativecommons.org/ns#" xmlns:dc="http://purl.org/dc/elements/1.1/" xmlns:rdf="http://www.w3.org/1999/02/22-rdf-syntax-ns#">
   <cc:Work>
    <dc:type rdf:resource="http://purl.org/dc/dcmitype/StillImage"/>
    <dc:date>2021-10-14T19:29:13.948874</dc:date>
    <dc:format>image/svg+xml</dc:format>
    <dc:creator>
     <cc:Agent>
      <dc:title>Matplotlib v3.3.2, https://matplotlib.org/</dc:title>
     </cc:Agent>
    </dc:creator>
   </cc:Work>
  </rdf:RDF>
 </metadata>
 <defs>
  <style type="text/css">*{stroke-linecap:butt;stroke-linejoin:round;}</style>
 </defs>
 <g id="figure_1">
  <g id="patch_1">
   <path d="M 0 144 
L 72 144 
L 72 0 
L 0 0 
z
" style="fill:none;"/>
  </g>
  <g id="axes_1">
   <g id="patch_2">
    <path d="M 9 67.68 
L 64.8 67.68 
L 64.8 17.28 
L 9 17.28 
z
" style="fill:none;"/>
   </g>
   <g id="matplotlib.axis_1">
    <g id="xtick_1">
     <g id="line2d_1">
      <defs>
       <path d="M 0 0 
L 0 3.5 
" id="m4c45e69739" style="stroke:#a9a9a9;stroke-width:2;"/>
      </defs>
      <g>
       <use style="fill:#a9a9a9;stroke:#a9a9a9;stroke-width:2;" x="9" xlink:href="#m4c45e69739" y="67.68"/>
      </g>
     </g>
    </g>
    <g id="xtick_2">
     <g id="line2d_2">
      <g>
       <use style="fill:#a9a9a9;stroke:#a9a9a9;stroke-width:2;" x="36.9" xlink:href="#m4c45e69739" y="67.68"/>
      </g>
     </g>
    </g>
    <g id="xtick_3">
     <g id="line2d_3">
      <g>
       <use style="fill:#a9a9a9;stroke:#a9a9a9;stroke-width:2;" x="64.8" xlink:href="#m4c45e69739" y="67.68"/>
      </g>
     </g>
    </g>
   </g>
   <g id="matplotlib.axis_2">
    <g id="ytick_1">
     <g id="line2d_4">
      <defs>
       <path d="M 0 0 
L -3.5 0 
" id="m0e66b0cd7d" style="stroke:#a9a9a9;stroke-width:2;"/>
      </defs>
      <g>
       <use style="fill:#a9a9a9;stroke:#a9a9a9;stroke-width:2;" x="9" xlink:href="#m0e66b0cd7d" y="67.68"/>
      </g>
     </g>
    </g>
    <g id="ytick_2">
     <g id="line2d_5">
      <g>
       <use style="fill:#a9a9a9;stroke:#a9a9a9;stroke-width:2;" x="9" xlink:href="#m0e66b0cd7d" y="52.51905"/>
      </g>
     </g>
    </g>
    <g id="ytick_3">
     <g id="line2d_6">
      <g>
       <use style="fill:#a9a9a9;stroke:#a9a9a9;stroke-width:2;" x="9" xlink:href="#m0e66b0cd7d" y="37.358099"/>
      </g>
     </g>
    </g>
   </g>
   <g id="line2d_7">
    <path clip-path="url(#pc3f0b5b048)" d="M 10.860031 58.249821 
L 11.790031 56.986008 
L 12.720031 54.774261 
L 13.650031 53.735697 
L 14.580031 52.608454 
L 15.510031 50.077982 
L 16.440031 49.274223 
L 17.370031 47.839162 
L 18.300031 46.606747 
L 19.230031 46.381538 
L 20.160031 45.531225 
L 21.090031 44.433338 
L 22.020031 43.212058 
L 22.950031 42.631632 
L 23.880031 42.285566 
L 24.810031 41.532453 
L 25.740031 40.648083 
L 26.670031 39.088326 
L 27.600031 38.451682 
L 28.530031 38.268892 
L 29.460031 37.397689 
L 30.390031 36.488146 
L 31.320031 35.7888 
L 32.250031 35.19083 
L 33.180031 34.452828 
L 34.110031 33.910763 
L 35.040031 33.080351 
L 35.970031 33.189872 
L 36.900031 32.526232 
L 37.830031 31.804132 
L 38.760031 31.105464 
L 39.690031 30.347407 
L 40.620031 30.154893 
L 41.550031 29.783894 
L 42.480031 29.598171 
L 43.410031 29.009026 
L 44.340031 28.863085 
L 45.270031 28.624424 
L 46.200031 28.224857 
L 47.130031 27.63461 
L 48.060031 26.894989 
L 48.990031 26.612227 
L 49.920031 26.710501 
L 50.850031 26.060388 
L 51.780031 25.56987 
L 52.710031 25.34292 
L 53.640031 24.593277 
L 54.570031 23.065658 
L 55.500031 22.319032 
L 56.430031 21.822515 
L 57.360031 21.842695 
L 58.290031 21.049105 
L 59.220031 20.6572 
L 60.150031 20.424601 
L 61.080031 19.725955 
L 62.010031 19.270518 
L 62.940031 18.551126 
L 63.870031 18.038048 
" style="fill:none;stroke:#fc8d62;stroke-linecap:square;stroke-width:2;"/>
   </g>
   <g id="line2d_8">
    <path clip-path="url(#pc3f0b5b048)" d="M 10.860031 60.410437 
L 11.790031 58.74885 
L 12.720031 57.226374 
L 13.650031 56.190007 
L 14.580031 55.39837 
L 15.510031 55.085775 
L 16.440031 54.115727 
L 17.370031 53.566672 
L 18.300031 52.773643 
L 19.230031 51.631142 
L 20.160031 50.917652 
L 21.090031 50.107275 
L 22.020031 49.400516 
L 22.950031 48.583037 
L 23.880031 47.862633 
L 24.810031 46.981003 
L 25.740031 46.325336 
L 26.670031 45.586028 
L 27.600031 44.941691 
L 28.530031 45.036117 
L 29.460031 44.294473 
L 30.390031 43.837341 
L 31.320031 43.238491 
L 32.250031 43.276716 
L 33.180031 42.4072 
L 34.110031 41.446134 
L 35.040031 40.759239 
L 35.970031 40.615762 
L 36.900031 39.940409 
L 37.830031 40.005757 
L 38.760031 40.09286 
L 39.690031 39.321436 
L 40.620031 39.095894 
L 41.550031 39.227271 
L 42.480031 38.547389 
L 43.410031 38.501787 
L 44.340031 38.688213 
L 45.270031 38.23742 
L 46.200031 37.619652 
L 47.130031 37.083687 
L 48.060031 36.616968 
L 48.990031 36.43955 
L 49.920031 35.915481 
L 50.850031 35.464998 
L 51.780031 35.047482 
L 52.710031 35.141702 
L 53.640031 34.625394 
L 54.570031 34.146851 
L 55.500031 33.511945 
L 56.430031 33.306877 
L 57.360031 33.093352 
L 58.290031 32.323904 
L 59.220031 32.273014 
L 60.150031 31.807982 
L 61.080031 31.353392 
L 62.010031 30.991677 
L 62.940031 30.597528 
L 63.870031 30.339313 
" style="fill:none;stroke:#fc8d62;stroke-dasharray:1.5,1.5;stroke-dashoffset:0;stroke-opacity:0.7;stroke-width:1.5;"/>
   </g>
   <g id="patch_3">
    <path d="M 9 67.68 
L 9 17.28 
" style="fill:none;stroke:#a9a9a9;stroke-linecap:square;stroke-linejoin:miter;stroke-width:2;"/>
   </g>
   <g id="patch_4">
    <path d="M 64.8 67.68 
L 64.8 17.28 
" style="fill:none;"/>
   </g>
   <g id="patch_5">
    <path d="M 9 67.68 
L 64.8 67.68 
" style="fill:none;stroke:#a9a9a9;stroke-linecap:square;stroke-linejoin:miter;stroke-width:2;"/>
   </g>
   <g id="patch_6">
    <path d="M 9 17.28 
L 64.8 17.28 
" style="fill:none;"/>
   </g>
  </g>
  <g id="axes_2">
   <g id="patch_7">
    <path d="M 9 128.16 
L 64.8 128.16 
L 64.8 77.76 
L 9 77.76 
z
" style="fill:none;"/>
   </g>
   <g id="matplotlib.axis_3">
    <g id="xtick_4">
     <g id="line2d_9">
      <g>
       <use style="fill:#a9a9a9;stroke:#a9a9a9;stroke-width:2;" x="9" xlink:href="#m4c45e69739" y="128.16"/>
      </g>
     </g>
    </g>
    <g id="xtick_5">
     <g id="line2d_10">
      <g>
       <use style="fill:#a9a9a9;stroke:#a9a9a9;stroke-width:2;" x="36.9" xlink:href="#m4c45e69739" y="128.16"/>
      </g>
     </g>
    </g>
    <g id="xtick_6">
     <g id="line2d_11">
      <g>
       <use style="fill:#a9a9a9;stroke:#a9a9a9;stroke-width:2;" x="64.8" xlink:href="#m4c45e69739" y="128.16"/>
      </g>
     </g>
    </g>
   </g>
   <g id="matplotlib.axis_4">
    <g id="ytick_4">
     <g id="line2d_12">
      <g>
       <use style="fill:#a9a9a9;stroke:#a9a9a9;stroke-width:2;" x="9" xlink:href="#m0e66b0cd7d" y="128.16"/>
      </g>
     </g>
    </g>
    <g id="ytick_5">
     <g id="line2d_13">
      <g>
       <use style="fill:#a9a9a9;stroke:#a9a9a9;stroke-width:2;" x="9" xlink:href="#m0e66b0cd7d" y="102.96"/>
      </g>
     </g>
    </g>
    <g id="ytick_6">
     <g id="line2d_14">
      <g>
       <use style="fill:#a9a9a9;stroke:#a9a9a9;stroke-width:2;" x="9" xlink:href="#m0e66b0cd7d" y="77.76"/>
      </g>
     </g>
    </g>
   </g>
   <g id="line2d_15">
    <path clip-path="url(#p238a632887)" d="M 10.860031 126.014845 
L 11.790031 125.690518 
L 12.720031 125.681577 
L 13.650031 125.633531 
L 14.580031 125.486961 
L 15.510031 125.433252 
L 16.440031 125.423484 
L 17.370031 125.488771 
L 18.300031 125.353029 
L 19.230031 125.172219 
L 20.160031 125.349716 
L 21.090031 125.39317 
L 22.020031 125.373574 
L 22.950031 125.360524 
L 23.880031 125.268253 
L 24.810031 125.151769 
L 25.740031 125.176076 
L 26.670031 125.14806 
L 27.600031 125.141794 
L 28.530031 125.153701 
L 29.460031 125.150441 
L 30.390031 125.225187 
L 31.320031 125.222235 
L 32.250031 125.20556 
L 33.180031 125.191875 
L 34.110031 125.230065 
L 35.040031 125.228792 
L 35.970031 125.293879 
L 36.900031 125.258072 
L 37.830031 125.28295 
L 38.760031 125.252987 
L 39.690031 125.260659 
L 40.620031 125.234009 
L 41.550031 125.214879 
L 42.480031 125.226573 
L 43.410031 125.208546 
L 44.340031 125.225466 
L 45.270031 125.216599 
L 46.200031 125.198546 
L 47.130031 125.204967 
L 48.060031 125.236838 
L 48.990031 125.251883 
L 49.920031 125.291015 
L 50.850031 125.297781 
L 51.780031 125.326373 
L 52.710031 125.349869 
L 53.640031 125.363791 
L 54.570031 125.325917 
L 55.500031 125.305799 
L 56.430031 125.300071 
L 57.360031 125.321442 
L 58.290031 125.320616 
L 59.220031 125.315768 
L 60.150031 125.320034 
L 61.080031 125.343372 
L 62.010031 125.312225 
L 62.940031 125.281772 
L 63.870031 125.280889 
" style="fill:none;stroke:#fc8d62;stroke-linecap:square;stroke-width:2;"/>
   </g>
   <g id="line2d_16">
    <path clip-path="url(#p238a632887)" d="M 10.860031 117.425407 
L 11.790031 114.972022 
L 12.720031 111.891068 
L 13.650031 110.345805 
L 14.580031 108.75845 
L 15.510031 108.545286 
L 16.440031 107.561121 
L 17.370031 107.193573 
L 18.300031 106.298488 
L 19.230031 105.863819 
L 20.160031 105.32738 
L 21.090031 105.235637 
L 22.020031 104.966951 
L 22.950031 105.024354 
L 23.880031 104.891182 
L 24.810031 104.553481 
L 25.740031 104.625112 
L 26.670031 104.446883 
L 27.600031 104.288776 
L 28.530031 104.050963 
L 29.460031 104.178954 
L 30.390031 104.037748 
L 31.320031 103.747428 
L 32.250031 103.785229 
L 33.180031 103.649448 
L 34.110031 103.569647 
L 35.040031 103.562001 
L 35.970031 103.354321 
L 36.900031 103.179194 
L 37.830031 103.001383 
L 38.760031 102.940659 
L 39.690031 102.985238 
L 40.620031 102.950162 
L 41.550031 102.849753 
L 42.480031 102.874645 
L 43.410031 102.833245 
L 44.340031 102.818447 
L 45.270031 102.722627 
L 46.200031 102.693063 
L 47.130031 102.653442 
L 48.060031 102.59952 
L 48.990031 102.436136 
L 49.920031 102.436976 
L 50.850031 102.439755 
L 51.780031 102.349495 
L 52.710031 102.274039 
L 53.640031 102.196368 
L 54.570031 102.216432 
L 55.500031 102.231649 
L 56.430031 102.15244 
L 57.360031 102.162219 
L 58.290031 102.056271 
L 59.220031 102.116408 
L 60.150031 102.115604 
L 61.080031 102.023192 
L 62.010031 102.024363 
L 62.940031 101.978283 
L 63.870031 101.983289 
" style="fill:none;stroke:#fc8d62;stroke-dasharray:1.5,1.5;stroke-dashoffset:0;stroke-opacity:0.7;stroke-width:1.5;"/>
   </g>
   <g id="patch_8">
    <path d="M 9 128.16 
L 9 77.76 
" style="fill:none;stroke:#a9a9a9;stroke-linecap:square;stroke-linejoin:miter;stroke-width:2;"/>
   </g>
   <g id="patch_9">
    <path d="M 64.8 128.16 
L 64.8 77.76 
" style="fill:none;"/>
   </g>
   <g id="patch_10">
    <path d="M 9 128.16 
L 64.8 128.16 
" style="fill:none;stroke:#a9a9a9;stroke-linecap:square;stroke-linejoin:miter;stroke-width:2;"/>
   </g>
   <g id="patch_11">
    <path d="M 9 77.76 
L 64.8 77.76 
" style="fill:none;"/>
   </g>
  </g>
 </g>
 <defs>
  <clipPath id="pc3f0b5b048">
   <rect height="50.4" width="55.8" x="9" y="17.28"/>
  </clipPath>
  <clipPath id="p238a632887">
   <rect height="50.4" width="55.8" x="9" y="77.76"/>
  </clipPath>
 </defs>
</svg>
