<?xml version="1.0" encoding="utf-8" standalone="no"?>
<!DOCTYPE svg PUBLIC "-//W3C//DTD SVG 1.1//EN"
  "http://www.w3.org/Graphics/SVG/1.1/DTD/svg11.dtd">
<!-- Created with matplotlib (https://matplotlib.org/) -->
<svg height="144pt" version="1.1" viewBox="0 0 72 144" width="72pt" xmlns="http://www.w3.org/2000/svg" xmlns:xlink="http://www.w3.org/1999/xlink">
 <metadata>
  <rdf:RDF xmlns:cc="http://creativecommons.org/ns#" xmlns:dc="http://purl.org/dc/elements/1.1/" xmlns:rdf="http://www.w3.org/1999/02/22-rdf-syntax-ns#">
   <cc:Work>
    <dc:type rdf:resource="http://purl.org/dc/dcmitype/StillImage"/>
    <dc:date>2021-10-13T14:36:40.168235</dc:date>
    <dc:format>image/svg+xml</dc:format>
    <dc:creator>
     <cc:Agent>
      <dc:title>Matplotlib v3.3.2, https://matplotlib.org/</dc:title>
     </cc:Agent>
    </dc:creator>
   </cc:Work>
  </rdf:RDF>
 </metadata>
 <defs>
  <style type="text/css">*{stroke-linecap:butt;stroke-linejoin:round;}</style>
 </defs>
 <g id="figure_1">
  <g id="patch_1">
   <path d="M 0 144 
L 72 144 
L 72 0 
L 0 0 
z
" style="fill:none;"/>
  </g>
  <g id="axes_1">
   <g id="patch_2">
    <path d="M 9 67.68 
L 64.8 67.68 
L 64.8 17.28 
L 9 17.28 
z
" style="fill:none;"/>
   </g>
   <g id="matplotlib.axis_1">
    <g id="xtick_1">
     <g id="line2d_1">
      <defs>
       <path d="M 0 0 
L 0 3.5 
" id="m6c4ace2d76" style="stroke:#a9a9a9;stroke-width:2;"/>
      </defs>
      <g>
       <use style="fill:#a9a9a9;stroke:#a9a9a9;stroke-width:2;" x="9" xlink:href="#m6c4ace2d76" y="67.68"/>
      </g>
     </g>
    </g>
    <g id="xtick_2">
     <g id="line2d_2">
      <g>
       <use style="fill:#a9a9a9;stroke:#a9a9a9;stroke-width:2;" x="36.9" xlink:href="#m6c4ace2d76" y="67.68"/>
      </g>
     </g>
    </g>
    <g id="xtick_3">
     <g id="line2d_3">
      <g>
       <use style="fill:#a9a9a9;stroke:#a9a9a9;stroke-width:2;" x="64.8" xlink:href="#m6c4ace2d76" y="67.68"/>
      </g>
     </g>
    </g>
   </g>
   <g id="matplotlib.axis_2">
    <g id="ytick_1">
     <g id="line2d_4">
      <defs>
       <path d="M 0 0 
L -3.5 0 
" id="mcc1262725d" style="stroke:#a9a9a9;stroke-width:2;"/>
      </defs>
      <g>
       <use style="fill:#a9a9a9;stroke:#a9a9a9;stroke-width:2;" x="9" xlink:href="#mcc1262725d" y="67.68"/>
      </g>
     </g>
    </g>
    <g id="ytick_2">
     <g id="line2d_5">
      <g>
       <use style="fill:#a9a9a9;stroke:#a9a9a9;stroke-width:2;" x="9" xlink:href="#mcc1262725d" y="65.298515"/>
      </g>
     </g>
    </g>
    <g id="ytick_3">
     <g id="line2d_6">
      <g>
       <use style="fill:#a9a9a9;stroke:#a9a9a9;stroke-width:2;" x="9" xlink:href="#mcc1262725d" y="62.917031"/>
      </g>
     </g>
    </g>
   </g>
   <g id="line2d_7">
    <path clip-path="url(#p668151ee94)" d="M 10.86031 60.445367 
L 11.79031 59.78409 
L 12.72031 58.862129 
L 13.65031 57.987683 
L 14.58031 57.041979 
L 15.51031 56.058002 
L 16.44031 55.428428 
L 17.37031 54.504033 
L 18.30031 53.117103 
L 19.23031 52.55777 
L 20.16031 51.510486 
L 21.09031 51.201814 
L 22.02031 50.685231 
L 22.95031 49.589731 
L 23.88031 48.474537 
L 24.81031 47.285028 
L 25.74031 45.950833 
L 26.67031 44.902866 
L 27.60031 44.130019 
L 28.53031 42.82296 
L 29.46031 41.936643 
L 30.39031 39.837347 
L 31.32031 38.546713 
L 32.25031 35.866806 
L 33.18031 35.211302 
L 34.11031 34.619051 
L 35.04031 34.297729 
L 35.97031 34.736714 
L 36.90031 35.282772 
L 37.83031 34.670233 
L 38.76031 35.093606 
L 39.69031 36.044865 
L 40.62031 37.183439 
L 41.55031 37.488502 
L 42.48031 37.58479 
L 43.41031 37.587361 
L 44.34031 36.414227 
L 45.27031 36.177165 
L 46.20031 35.158323 
L 47.13031 34.086101 
L 48.06031 33.619139 
L 48.99031 32.88341 
L 49.92031 31.909189 
L 50.85031 30.464511 
L 51.78031 28.847315 
L 52.71031 26.558614 
L 53.64031 24.751912 
L 54.57031 22.833646 
L 55.50031 20.330537 
L 56.43031 17.688627 
L 57.36031 17.825568 
L 58.29031 17.399074 
L 59.22031 17.69187 
L 60.15031 18.20393 
L 61.08031 18.04786 
L 62.01031 18.184571 
L 62.94031 18.303452 
L 63.87031 18.439655 
" style="fill:none;stroke:#fc8d62;stroke-linecap:square;stroke-width:2;"/>
   </g>
   <g id="line2d_8">
    <path clip-path="url(#p668151ee94)" d="M 10.86031 59.542326 
L 11.79031 58.785666 
L 12.72031 57.725282 
L 13.65031 55.624265 
L 14.58031 54.572805 
L 15.51031 52.236737 
L 16.44031 51.070916 
L 17.37031 49.427609 
L 18.30031 49.687927 
L 19.23031 48.431017 
L 20.16031 47.662008 
L 21.09031 46.622522 
L 22.02031 47.87155 
L 22.95031 47.222076 
L 23.88031 46.999157 
L 24.81031 46.965579 
L 25.74031 46.729025 
L 26.67031 43.988585 
L 27.60031 41.712288 
L 28.53031 38.923068 
L 29.46031 36.657329 
L 30.39031 34.569654 
L 31.32031 33.164777 
L 32.25031 33.273894 
L 33.18031 33.132964 
L 34.11031 31.532878 
L 35.04031 31.741905 
L 35.97031 32.007943 
L 36.90031 30.733106 
L 37.83031 31.58118 
L 38.76031 30.747566 
L 39.69031 30.508741 
L 40.62031 30.133528 
L 41.55031 29.85061 
L 42.48031 28.882482 
L 43.41031 29.896153 
L 44.34031 27.958598 
L 45.27031 28.479598 
L 46.20031 27.756711 
L 47.13031 27.014408 
L 48.06031 27.920809 
L 48.99031 29.102412 
L 49.92031 28.84926 
L 50.85031 27.538803 
L 51.78031 26.078985 
L 52.71031 23.417948 
L 53.64031 21.493227 
L 54.57031 21.235 
L 55.50031 20.071828 
L 56.43031 19.919318 
L 57.36031 19.889144 
L 58.29031 19.01875 
L 59.22031 18.564277 
L 60.15031 17.90789 
L 61.08031 17.151938 
L 62.01031 17.296347 
L 62.94031 18.444694 
L 63.87031 18.88275 
" style="fill:none;stroke:#fc8d62;stroke-dasharray:1.5,1.5;stroke-dashoffset:0;stroke-opacity:0.7;stroke-width:1.5;"/>
   </g>
   <g id="patch_3">
    <path d="M 9 67.68 
L 9 17.28 
" style="fill:none;stroke:#a9a9a9;stroke-linecap:square;stroke-linejoin:miter;stroke-width:2;"/>
   </g>
   <g id="patch_4">
    <path d="M 64.8 67.68 
L 64.8 17.28 
" style="fill:none;"/>
   </g>
   <g id="patch_5">
    <path d="M 9 67.68 
L 64.8 67.68 
" style="fill:none;stroke:#a9a9a9;stroke-linecap:square;stroke-linejoin:miter;stroke-width:2;"/>
   </g>
   <g id="patch_6">
    <path d="M 9 17.28 
L 64.8 17.28 
" style="fill:none;"/>
   </g>
  </g>
  <g id="axes_2">
   <g id="patch_7">
    <path d="M 9 128.16 
L 64.8 128.16 
L 64.8 77.76 
L 9 77.76 
z
" style="fill:none;"/>
   </g>
   <g id="matplotlib.axis_3">
    <g id="xtick_4">
     <g id="line2d_9">
      <g>
       <use style="fill:#a9a9a9;stroke:#a9a9a9;stroke-width:2;" x="9" xlink:href="#m6c4ace2d76" y="128.16"/>
      </g>
     </g>
    </g>
    <g id="xtick_5">
     <g id="line2d_10">
      <g>
       <use style="fill:#a9a9a9;stroke:#a9a9a9;stroke-width:2;" x="36.9" xlink:href="#m6c4ace2d76" y="128.16"/>
      </g>
     </g>
    </g>
    <g id="xtick_6">
     <g id="line2d_11">
      <g>
       <use style="fill:#a9a9a9;stroke:#a9a9a9;stroke-width:2;" x="64.8" xlink:href="#m6c4ace2d76" y="128.16"/>
      </g>
     </g>
    </g>
   </g>
   <g id="matplotlib.axis_4">
    <g id="ytick_4">
     <g id="line2d_12">
      <g>
       <use style="fill:#a9a9a9;stroke:#a9a9a9;stroke-width:2;" x="9" xlink:href="#mcc1262725d" y="128.16"/>
      </g>
     </g>
    </g>
    <g id="ytick_5">
     <g id="line2d_13">
      <g>
       <use style="fill:#a9a9a9;stroke:#a9a9a9;stroke-width:2;" x="9" xlink:href="#mcc1262725d" y="102.96"/>
      </g>
     </g>
    </g>
    <g id="ytick_6">
     <g id="line2d_14">
      <g>
       <use style="fill:#a9a9a9;stroke:#a9a9a9;stroke-width:2;" x="9" xlink:href="#mcc1262725d" y="77.76"/>
      </g>
     </g>
    </g>
   </g>
   <g id="line2d_15">
    <path clip-path="url(#pdfdcd27ccb)" d="M 10.86031 88.091345 
L 11.79031 87.969541 
L 12.72031 87.762045 
L 13.65031 87.614717 
L 14.58031 87.544438 
L 15.51031 87.434059 
L 16.44031 87.413039 
L 17.37031 87.357723 
L 18.30031 87.320096 
L 19.23031 87.294233 
L 20.16031 87.272102 
L 21.09031 87.287452 
L 22.02031 87.300102 
L 22.95031 87.266792 
L 23.88031 87.247108 
L 24.81031 87.266954 
L 25.74031 87.228711 
L 26.67031 87.225824 
L 27.60031 87.217456 
L 28.53031 87.211841 
L 29.46031 87.218103 
L 30.39031 87.200487 
L 31.32031 87.185396 
L 32.25031 87.180606 
L 33.18031 87.175819 
L 34.11031 87.163949 
L 35.04031 87.151195 
L 35.97031 87.142486 
L 36.90031 87.124356 
L 37.83031 87.124936 
L 38.76031 87.12012 
L 39.69031 87.115947 
L 40.62031 87.109563 
L 41.55031 87.108642 
L 42.48031 87.1124 
L 43.41031 87.119624 
L 44.34031 87.124232 
L 45.27031 87.12913 
L 46.20031 87.129241 
L 47.13031 87.127684 
L 48.06031 87.128323 
L 48.99031 87.12237 
L 49.92031 87.132211 
L 50.85031 87.127701 
L 51.78031 87.122866 
L 52.71031 87.119998 
L 53.64031 87.118468 
L 54.57031 87.113317 
L 55.50031 87.102925 
L 56.43031 87.099083 
L 57.36031 87.093151 
L 58.29031 87.0922 
L 59.22031 87.090729 
L 60.15031 87.085455 
L 61.08031 87.076087 
L 62.01031 87.074608 
L 62.94031 87.071877 
L 63.87031 87.067001 
" style="fill:none;stroke:#fc8d62;stroke-linecap:square;stroke-width:2;"/>
   </g>
   <g id="line2d_16">
    <path clip-path="url(#pdfdcd27ccb)" d="M 10.86031 91.169003 
L 11.79031 90.865056 
L 12.72031 90.706762 
L 13.65031 90.543945 
L 14.58031 90.493581 
L 15.51031 90.446628 
L 16.44031 90.428835 
L 17.37031 90.432949 
L 18.30031 90.419383 
L 19.23031 90.419372 
L 20.16031 90.398956 
L 21.09031 90.376642 
L 22.02031 90.380846 
L 22.95031 90.351874 
L 23.88031 90.347912 
L 24.81031 90.331735 
L 25.74031 90.330851 
L 26.67031 90.319474 
L 27.60031 90.313954 
L 28.53031 90.29734 
L 29.46031 90.276097 
L 30.39031 90.263894 
L 31.32031 90.268476 
L 32.25031 90.274255 
L 33.18031 90.263775 
L 34.11031 90.257765 
L 35.04031 90.252893 
L 35.97031 90.255003 
L 36.90031 90.256639 
L 37.83031 90.251007 
L 38.76031 90.247807 
L 39.69031 90.240842 
L 40.62031 90.23518 
L 41.55031 90.227886 
L 42.48031 90.232499 
L 43.41031 90.230475 
L 44.34031 90.229609 
L 45.27031 90.238621 
L 46.20031 90.244516 
L 47.13031 90.243701 
L 48.06031 90.249671 
L 48.99031 90.253302 
L 49.92031 90.256829 
L 50.85031 90.248518 
L 51.78031 90.244442 
L 52.71031 90.234915 
L 53.64031 90.229784 
L 54.57031 90.222622 
L 55.50031 90.22789 
L 56.43031 90.223998 
L 57.36031 90.216952 
L 58.29031 90.219253 
L 59.22031 90.221202 
L 60.15031 90.220352 
L 61.08031 90.217054 
L 62.01031 90.21546 
L 62.94031 90.208717 
L 63.87031 90.206482 
" style="fill:none;stroke:#fc8d62;stroke-dasharray:1.5,1.5;stroke-dashoffset:0;stroke-opacity:0.7;stroke-width:1.5;"/>
   </g>
   <g id="patch_8">
    <path d="M 9 128.16 
L 9 77.76 
" style="fill:none;stroke:#a9a9a9;stroke-linecap:square;stroke-linejoin:miter;stroke-width:2;"/>
   </g>
   <g id="patch_9">
    <path d="M 64.8 128.16 
L 64.8 77.76 
" style="fill:none;"/>
   </g>
   <g id="patch_10">
    <path d="M 9 128.16 
L 64.8 128.16 
" style="fill:none;stroke:#a9a9a9;stroke-linecap:square;stroke-linejoin:miter;stroke-width:2;"/>
   </g>
   <g id="patch_11">
    <path d="M 9 77.76 
L 64.8 77.76 
" style="fill:none;"/>
   </g>
  </g>
 </g>
 <defs>
  <clipPath id="p668151ee94">
   <rect height="50.4" width="55.8" x="9" y="17.28"/>
  </clipPath>
  <clipPath id="pdfdcd27ccb">
   <rect height="50.4" width="55.8" x="9" y="77.76"/>
  </clipPath>
 </defs>
</svg>
