<?xml version="1.0" encoding="utf-8" standalone="no"?>
<!DOCTYPE svg PUBLIC "-//W3C//DTD SVG 1.1//EN"
  "http://www.w3.org/Graphics/SVG/1.1/DTD/svg11.dtd">
<!-- Created with matplotlib (https://matplotlib.org/) -->
<svg height="144pt" version="1.1" viewBox="0 0 72 144" width="72pt" xmlns="http://www.w3.org/2000/svg" xmlns:xlink="http://www.w3.org/1999/xlink">
 <metadata>
  <rdf:RDF xmlns:cc="http://creativecommons.org/ns#" xmlns:dc="http://purl.org/dc/elements/1.1/" xmlns:rdf="http://www.w3.org/1999/02/22-rdf-syntax-ns#">
   <cc:Work>
    <dc:type rdf:resource="http://purl.org/dc/dcmitype/StillImage"/>
    <dc:date>2021-10-12T18:49:57.848365</dc:date>
    <dc:format>image/svg+xml</dc:format>
    <dc:creator>
     <cc:Agent>
      <dc:title>Matplotlib v3.3.2, https://matplotlib.org/</dc:title>
     </cc:Agent>
    </dc:creator>
   </cc:Work>
  </rdf:RDF>
 </metadata>
 <defs>
  <style type="text/css">*{stroke-linecap:butt;stroke-linejoin:round;}</style>
 </defs>
 <g id="figure_1">
  <g id="patch_1">
   <path d="M 0 144 
L 72 144 
L 72 0 
L 0 0 
z
" style="fill:none;"/>
  </g>
  <g id="axes_1">
   <g id="patch_2">
    <path d="M 9 67.68 
L 64.8 67.68 
L 64.8 17.28 
L 9 17.28 
z
" style="fill:none;"/>
   </g>
   <g id="matplotlib.axis_1">
    <g id="xtick_1">
     <g id="line2d_1">
      <defs>
       <path d="M 0 0 
L 0 3.5 
" id="m3a8fe01e72" style="stroke:#a9a9a9;stroke-width:2;"/>
      </defs>
      <g>
       <use style="fill:#a9a9a9;stroke:#a9a9a9;stroke-width:2;" x="9" xlink:href="#m3a8fe01e72" y="67.68"/>
      </g>
     </g>
    </g>
    <g id="xtick_2">
     <g id="line2d_2">
      <g>
       <use style="fill:#a9a9a9;stroke:#a9a9a9;stroke-width:2;" x="36.9" xlink:href="#m3a8fe01e72" y="67.68"/>
      </g>
     </g>
    </g>
    <g id="xtick_3">
     <g id="line2d_3">
      <g>
       <use style="fill:#a9a9a9;stroke:#a9a9a9;stroke-width:2;" x="64.8" xlink:href="#m3a8fe01e72" y="67.68"/>
      </g>
     </g>
    </g>
   </g>
   <g id="matplotlib.axis_2">
    <g id="ytick_1">
     <g id="line2d_4">
      <defs>
       <path d="M 0 0 
L -3.5 0 
" id="mec4cc9502e" style="stroke:#a9a9a9;stroke-width:2;"/>
      </defs>
      <g>
       <use style="fill:#a9a9a9;stroke:#a9a9a9;stroke-width:2;" x="9" xlink:href="#mec4cc9502e" y="67.68"/>
      </g>
     </g>
    </g>
    <g id="ytick_2">
     <g id="line2d_5">
      <g>
       <use style="fill:#a9a9a9;stroke:#a9a9a9;stroke-width:2;" x="9" xlink:href="#mec4cc9502e" y="44.01401"/>
      </g>
     </g>
    </g>
    <g id="ytick_3">
     <g id="line2d_6">
      <g>
       <use style="fill:#a9a9a9;stroke:#a9a9a9;stroke-width:2;" x="9" xlink:href="#mec4cc9502e" y="20.348021"/>
      </g>
     </g>
    </g>
   </g>
   <g id="line2d_7">
    <path clip-path="url(#p4e245560be)" d="M 10.86031 57.901002 
L 11.79031 56.389569 
L 12.72031 54.826175 
L 13.65031 52.675236 
L 14.58031 51.685163 
L 15.51031 51.216429 
L 16.44031 49.637716 
L 17.37031 48.461925 
L 18.30031 47.705827 
L 19.23031 47.271263 
L 20.16031 46.0398 
L 21.09031 44.882006 
L 22.02031 43.609008 
L 22.95031 42.536154 
L 23.88031 41.55117 
L 24.81031 40.780082 
L 25.74031 39.853643 
L 26.67031 39.178208 
L 27.60031 38.566474 
L 28.53031 38.350665 
L 29.46031 37.161192 
L 30.39031 36.462285 
L 31.32031 36.192207 
L 32.25031 35.594211 
L 33.18031 35.280322 
L 34.11031 34.800096 
L 35.04031 34.534614 
L 35.97031 34.392131 
L 36.90031 34.160797 
L 37.83031 33.456454 
L 38.76031 32.974178 
L 39.69031 32.542045 
L 40.62031 32.000765 
L 41.55031 31.460373 
L 42.48031 31.052995 
L 43.41031 30.031177 
L 44.34031 29.937621 
L 45.27031 29.137481 
L 46.20031 28.371374 
L 47.13031 27.130073 
L 48.06031 26.477608 
L 48.99031 26.351935 
L 49.92031 25.846756 
L 50.85031 24.720449 
L 51.78031 23.833816 
L 52.71031 23.842556 
L 53.64031 23.095074 
L 54.57031 22.787884 
L 55.50031 21.826445 
L 56.43031 21.288836 
L 57.36031 20.849083 
L 58.29031 20.9443 
L 59.22031 20.931564 
L 60.15031 20.909803 
L 61.08031 20.529684 
L 62.01031 19.311602 
L 62.94031 18.695315 
L 63.87031 18.463299 
" style="fill:none;stroke:#fc8d62;stroke-linecap:square;stroke-width:2;"/>
   </g>
   <g id="line2d_8">
    <path clip-path="url(#p4e245560be)" d="M 10.86031 61.829443 
L 11.79031 58.793283 
L 12.72031 58.066038 
L 13.65031 56.635418 
L 14.58031 55.78923 
L 15.51031 54.451908 
L 16.44031 53.454222 
L 17.37031 52.520516 
L 18.30031 51.608228 
L 19.23031 50.405205 
L 20.16031 50.422853 
L 21.09031 49.655719 
L 22.02031 48.761965 
L 22.95031 47.985531 
L 23.88031 48.105215 
L 24.81031 47.218994 
L 25.74031 47.008869 
L 26.67031 46.904305 
L 27.60031 46.438787 
L 28.53031 45.240759 
L 29.46031 44.791155 
L 30.39031 44.112702 
L 31.32031 43.61219 
L 32.25031 43.324981 
L 33.18031 42.944665 
L 34.11031 41.509942 
L 35.04031 40.873813 
L 35.97031 40.275715 
L 36.90031 40.147517 
L 37.83031 40.304098 
L 38.76031 39.721449 
L 39.69031 39.822676 
L 40.62031 39.543546 
L 41.55031 38.839763 
L 42.48031 38.335127 
L 43.41031 37.571117 
L 44.34031 37.758968 
L 45.27031 37.494393 
L 46.20031 37.023453 
L 47.13031 36.547914 
L 48.06031 36.390328 
L 48.99031 35.68774 
L 49.92031 34.826677 
L 50.85031 34.624842 
L 51.78031 34.261056 
L 52.71031 33.728886 
L 53.64031 32.70976 
L 54.57031 32.234455 
L 55.50031 31.667024 
L 56.43031 31.451753 
L 57.36031 31.046627 
L 58.29031 30.456004 
L 59.22031 30.183665 
L 60.15031 30.140532 
L 61.08031 29.727294 
L 62.01031 29.456886 
L 62.94031 28.49661 
L 63.87031 28.281611 
" style="fill:none;stroke:#fc8d62;stroke-dasharray:1.5,1.5;stroke-dashoffset:0;stroke-opacity:0.7;stroke-width:1.5;"/>
   </g>
   <g id="patch_3">
    <path d="M 9 67.68 
L 9 17.28 
" style="fill:none;stroke:#a9a9a9;stroke-linecap:square;stroke-linejoin:miter;stroke-width:2;"/>
   </g>
   <g id="patch_4">
    <path d="M 64.8 67.68 
L 64.8 17.28 
" style="fill:none;"/>
   </g>
   <g id="patch_5">
    <path d="M 9 67.68 
L 64.8 67.68 
" style="fill:none;stroke:#a9a9a9;stroke-linecap:square;stroke-linejoin:miter;stroke-width:2;"/>
   </g>
   <g id="patch_6">
    <path d="M 9 17.28 
L 64.8 17.28 
" style="fill:none;"/>
   </g>
  </g>
  <g id="axes_2">
   <g id="patch_7">
    <path d="M 9 128.16 
L 64.8 128.16 
L 64.8 77.76 
L 9 77.76 
z
" style="fill:none;"/>
   </g>
   <g id="matplotlib.axis_3">
    <g id="xtick_4">
     <g id="line2d_9">
      <g>
       <use style="fill:#a9a9a9;stroke:#a9a9a9;stroke-width:2;" x="9" xlink:href="#m3a8fe01e72" y="128.16"/>
      </g>
     </g>
    </g>
    <g id="xtick_5">
     <g id="line2d_10">
      <g>
       <use style="fill:#a9a9a9;stroke:#a9a9a9;stroke-width:2;" x="36.9" xlink:href="#m3a8fe01e72" y="128.16"/>
      </g>
     </g>
    </g>
    <g id="xtick_6">
     <g id="line2d_11">
      <g>
       <use style="fill:#a9a9a9;stroke:#a9a9a9;stroke-width:2;" x="64.8" xlink:href="#m3a8fe01e72" y="128.16"/>
      </g>
     </g>
    </g>
   </g>
   <g id="matplotlib.axis_4">
    <g id="ytick_4">
     <g id="line2d_12">
      <g>
       <use style="fill:#a9a9a9;stroke:#a9a9a9;stroke-width:2;" x="9" xlink:href="#mec4cc9502e" y="128.16"/>
      </g>
     </g>
    </g>
    <g id="ytick_5">
     <g id="line2d_13">
      <g>
       <use style="fill:#a9a9a9;stroke:#a9a9a9;stroke-width:2;" x="9" xlink:href="#mec4cc9502e" y="102.96"/>
      </g>
     </g>
    </g>
    <g id="ytick_6">
     <g id="line2d_14">
      <g>
       <use style="fill:#a9a9a9;stroke:#a9a9a9;stroke-width:2;" x="9" xlink:href="#mec4cc9502e" y="77.76"/>
      </g>
     </g>
    </g>
   </g>
   <g id="line2d_15">
    <path clip-path="url(#pad87079d79)" d="M 10.86031 121.976132 
L 11.79031 120.647102 
L 12.72031 118.971497 
L 13.65031 117.722259 
L 14.58031 116.377163 
L 15.51031 115.137133 
L 16.44031 114.014189 
L 17.37031 112.785144 
L 18.30031 112.591872 
L 19.23031 112.200878 
L 20.16031 111.321287 
L 21.09031 110.912011 
L 22.02031 110.286578 
L 22.95031 109.343943 
L 23.88031 108.737169 
L 24.81031 108.276315 
L 25.74031 107.851828 
L 26.67031 107.277621 
L 27.60031 107.026304 
L 28.53031 106.662239 
L 29.46031 106.171531 
L 30.39031 105.873173 
L 31.32031 105.561306 
L 32.25031 105.314337 
L 33.18031 104.951444 
L 34.11031 104.701261 
L 35.04031 104.226375 
L 35.97031 104.090084 
L 36.90031 103.961683 
L 37.83031 103.711151 
L 38.76031 103.472382 
L 39.69031 103.348179 
L 40.62031 103.09201 
L 41.55031 102.988896 
L 42.48031 102.643189 
L 43.41031 102.459954 
L 44.34031 102.386686 
L 45.27031 102.28099 
L 46.20031 102.063786 
L 47.13031 101.924987 
L 48.06031 101.867598 
L 48.99031 101.735969 
L 49.92031 101.555213 
L 50.85031 101.25525 
L 51.78031 101.188945 
L 52.71031 100.990254 
L 53.64031 100.853279 
L 54.57031 100.694717 
L 55.50031 100.503658 
L 56.43031 100.369461 
L 57.36031 100.306572 
L 58.29031 100.272443 
L 59.22031 100.25804 
L 60.15031 100.315813 
L 61.08031 100.173896 
L 62.01031 100.053814 
L 62.94031 99.909016 
L 63.87031 99.775423 
" style="fill:none;stroke:#fc8d62;stroke-linecap:square;stroke-width:2;"/>
   </g>
   <g id="line2d_16">
    <path clip-path="url(#pad87079d79)" d="M 10.86031 128.155818 
L 11.79031 128.159484 
L 12.72031 128.134089 
L 13.65031 128.139919 
L 14.58031 128.107803 
L 15.51031 128.087673 
L 16.44031 128.065759 
L 17.37031 128.069056 
L 18.30031 128.024033 
L 19.23031 128.051269 
L 20.16031 128.04462 
L 21.09031 128.013371 
L 22.02031 128.029924 
L 22.95031 127.994006 
L 23.88031 127.993439 
L 24.81031 128.013714 
L 25.74031 128.006755 
L 26.67031 127.948646 
L 27.60031 127.924682 
L 28.53031 127.827964 
L 29.46031 127.757293 
L 30.39031 127.775147 
L 31.32031 127.766205 
L 32.25031 127.740484 
L 33.18031 127.71472 
L 34.11031 127.776346 
L 35.04031 127.757446 
L 35.97031 127.674517 
L 36.90031 127.598007 
L 37.83031 127.635251 
L 38.76031 127.623818 
L 39.69031 127.661078 
L 40.62031 127.719868 
L 41.55031 127.708774 
L 42.48031 127.740057 
L 43.41031 127.66 
L 44.34031 127.655093 
L 45.27031 127.64155 
L 46.20031 127.625355 
L 47.13031 127.634682 
L 48.06031 127.6392 
L 48.99031 127.600418 
L 49.92031 127.639546 
L 50.85031 127.683853 
L 51.78031 127.723774 
L 52.71031 127.700313 
L 53.64031 127.695482 
L 54.57031 127.692884 
L 55.50031 127.709979 
L 56.43031 127.692055 
L 57.36031 127.717223 
L 58.29031 127.721609 
L 59.22031 127.669458 
L 60.15031 127.600822 
L 61.08031 127.565999 
L 62.01031 127.57971 
L 62.94031 127.595687 
L 63.87031 127.5485 
" style="fill:none;stroke:#fc8d62;stroke-dasharray:1.5,1.5;stroke-dashoffset:0;stroke-opacity:0.7;stroke-width:1.5;"/>
   </g>
   <g id="patch_8">
    <path d="M 9 128.16 
L 9 77.76 
" style="fill:none;stroke:#a9a9a9;stroke-linecap:square;stroke-linejoin:miter;stroke-width:2;"/>
   </g>
   <g id="patch_9">
    <path d="M 64.8 128.16 
L 64.8 77.76 
" style="fill:none;"/>
   </g>
   <g id="patch_10">
    <path d="M 9 128.16 
L 64.8 128.16 
" style="fill:none;stroke:#a9a9a9;stroke-linecap:square;stroke-linejoin:miter;stroke-width:2;"/>
   </g>
   <g id="patch_11">
    <path d="M 9 77.76 
L 64.8 77.76 
" style="fill:none;"/>
   </g>
  </g>
 </g>
 <defs>
  <clipPath id="p4e245560be">
   <rect height="50.4" width="55.8" x="9" y="17.28"/>
  </clipPath>
  <clipPath id="pad87079d79">
   <rect height="50.4" width="55.8" x="9" y="77.76"/>
  </clipPath>
 </defs>
</svg>
