<?xml version="1.0" encoding="utf-8" standalone="no"?>
<!DOCTYPE svg PUBLIC "-//W3C//DTD SVG 1.1//EN"
  "http://www.w3.org/Graphics/SVG/1.1/DTD/svg11.dtd">
<!-- Created with matplotlib (https://matplotlib.org/) -->
<svg height="144pt" version="1.1" viewBox="0 0 72 144" width="72pt" xmlns="http://www.w3.org/2000/svg" xmlns:xlink="http://www.w3.org/1999/xlink">
 <metadata>
  <rdf:RDF xmlns:cc="http://creativecommons.org/ns#" xmlns:dc="http://purl.org/dc/elements/1.1/" xmlns:rdf="http://www.w3.org/1999/02/22-rdf-syntax-ns#">
   <cc:Work>
    <dc:type rdf:resource="http://purl.org/dc/dcmitype/StillImage"/>
    <dc:date>2021-10-13T14:22:15.162703</dc:date>
    <dc:format>image/svg+xml</dc:format>
    <dc:creator>
     <cc:Agent>
      <dc:title>Matplotlib v3.3.2, https://matplotlib.org/</dc:title>
     </cc:Agent>
    </dc:creator>
   </cc:Work>
  </rdf:RDF>
 </metadata>
 <defs>
  <style type="text/css">*{stroke-linecap:butt;stroke-linejoin:round;}</style>
 </defs>
 <g id="figure_1">
  <g id="patch_1">
   <path d="M 0 144 
L 72 144 
L 72 0 
L 0 0 
z
" style="fill:none;"/>
  </g>
  <g id="axes_1">
   <g id="patch_2">
    <path d="M 9 67.68 
L 64.8 67.68 
L 64.8 17.28 
L 9 17.28 
z
" style="fill:none;"/>
   </g>
   <g id="matplotlib.axis_1">
    <g id="xtick_1">
     <g id="line2d_1">
      <defs>
       <path d="M 0 0 
L 0 3.5 
" id="mc61de8803d" style="stroke:#a9a9a9;stroke-width:2;"/>
      </defs>
      <g>
       <use style="fill:#a9a9a9;stroke:#a9a9a9;stroke-width:2;" x="9" xlink:href="#mc61de8803d" y="67.68"/>
      </g>
     </g>
    </g>
    <g id="xtick_2">
     <g id="line2d_2">
      <g>
       <use style="fill:#a9a9a9;stroke:#a9a9a9;stroke-width:2;" x="36.9" xlink:href="#mc61de8803d" y="67.68"/>
      </g>
     </g>
    </g>
    <g id="xtick_3">
     <g id="line2d_3">
      <g>
       <use style="fill:#a9a9a9;stroke:#a9a9a9;stroke-width:2;" x="64.8" xlink:href="#mc61de8803d" y="67.68"/>
      </g>
     </g>
    </g>
   </g>
   <g id="matplotlib.axis_2">
    <g id="ytick_1">
     <g id="line2d_4">
      <defs>
       <path d="M 0 0 
L -3.5 0 
" id="m5c7fec241d" style="stroke:#a9a9a9;stroke-width:2;"/>
      </defs>
      <g>
       <use style="fill:#a9a9a9;stroke:#a9a9a9;stroke-width:2;" x="9" xlink:href="#m5c7fec241d" y="67.68"/>
      </g>
     </g>
    </g>
    <g id="ytick_2">
     <g id="line2d_5">
      <g>
       <use style="fill:#a9a9a9;stroke:#a9a9a9;stroke-width:2;" x="9" xlink:href="#m5c7fec241d" y="65.433019"/>
      </g>
     </g>
    </g>
    <g id="ytick_3">
     <g id="line2d_6">
      <g>
       <use style="fill:#a9a9a9;stroke:#a9a9a9;stroke-width:2;" x="9" xlink:href="#m5c7fec241d" y="63.186039"/>
      </g>
     </g>
    </g>
   </g>
   <g id="line2d_7">
    <path clip-path="url(#p27e7b13477)" d="M 10.86031 60.691195 
L 11.79031 59.43139 
L 12.72031 58.247355 
L 13.65031 58.331525 
L 14.58031 57.142354 
L 15.51031 56.703223 
L 16.44031 55.711414 
L 17.37031 54.471276 
L 18.30031 53.273773 
L 19.23031 51.245559 
L 20.16031 49.704402 
L 21.09031 48.674431 
L 22.02031 47.915392 
L 22.95031 45.743649 
L 23.88031 44.14847 
L 24.81031 44.15281 
L 25.74031 43.071162 
L 26.67031 42.697433 
L 27.60031 42.912255 
L 28.53031 42.414318 
L 29.46031 42.239306 
L 30.39031 41.229598 
L 31.32031 38.834601 
L 32.25031 37.446989 
L 33.18031 37.008471 
L 34.11031 35.648773 
L 35.04031 35.098894 
L 35.97031 34.770276 
L 36.90031 34.639899 
L 37.83031 35.059542 
L 38.76031 34.180807 
L 39.69031 34.738936 
L 40.62031 34.565787 
L 41.55031 31.958895 
L 42.48031 31.127638 
L 43.41031 29.763585 
L 44.34031 29.542117 
L 45.27031 26.860098 
L 46.20031 26.010702 
L 47.13031 25.054844 
L 48.06031 24.923944 
L 48.99031 24.358936 
L 49.92031 25.466015 
L 50.85031 26.105491 
L 51.78031 26.924542 
L 52.71031 27.760737 
L 53.64031 27.576962 
L 54.57031 26.459119 
L 55.50031 25.137376 
L 56.43031 24.966903 
L 57.36031 25.047183 
L 58.29031 24.609158 
L 59.22031 22.84967 
L 60.15031 22.15184 
L 61.08031 21.119364 
L 62.01031 20.321253 
L 62.94031 19.228079 
L 63.87031 17.392349 
" style="fill:none;stroke:#fc8d62;stroke-linecap:square;stroke-width:2;"/>
   </g>
   <g id="line2d_8">
    <path clip-path="url(#p27e7b13477)" d="M 10.86031 59.731466 
L 11.79031 59.39173 
L 12.72031 58.361774 
L 13.65031 57.640218 
L 14.58031 57.023099 
L 15.51031 54.946041 
L 16.44031 53.342028 
L 17.37031 53.594125 
L 18.30031 53.216485 
L 19.23031 52.259719 
L 20.16031 51.632713 
L 21.09031 50.702644 
L 22.02031 49.561097 
L 22.95031 47.147479 
L 23.88031 45.715468 
L 24.81031 43.554169 
L 25.74031 42.141797 
L 26.67031 40.531311 
L 27.60031 40.431788 
L 28.53031 38.118488 
L 29.46031 37.126063 
L 30.39031 36.156437 
L 31.32031 35.621684 
L 32.25031 35.081643 
L 33.18031 35.706114 
L 34.11031 35.355648 
L 35.04031 35.009529 
L 35.97031 35.020007 
L 36.90031 35.57502 
L 37.83031 34.699563 
L 38.76031 34.964413 
L 39.69031 34.797797 
L 40.62031 34.888175 
L 41.55031 34.847307 
L 42.48031 35.159989 
L 43.41031 34.140742 
L 44.34031 32.559999 
L 45.27031 30.83357 
L 46.20031 28.046564 
L 47.13031 25.80285 
L 48.06031 26.377103 
L 48.99031 25.462239 
L 49.92031 25.627742 
L 50.85031 24.484395 
L 51.78031 24.778926 
L 52.71031 24.215645 
L 53.64031 24.041177 
L 54.57031 25.024297 
L 55.50031 25.526343 
L 56.43031 24.931059 
L 57.36031 25.042295 
L 58.29031 24.174562 
L 59.22031 24.189058 
L 60.15031 23.087936 
L 61.08031 21.464067 
L 62.01031 20.45385 
L 62.94031 21.845203 
L 63.87031 21.482657 
" style="fill:none;stroke:#fc8d62;stroke-dasharray:1.5,1.5;stroke-dashoffset:0;stroke-opacity:0.7;stroke-width:1.5;"/>
   </g>
   <g id="patch_3">
    <path d="M 9 67.68 
L 9 17.28 
" style="fill:none;stroke:#a9a9a9;stroke-linecap:square;stroke-linejoin:miter;stroke-width:2;"/>
   </g>
   <g id="patch_4">
    <path d="M 64.8 67.68 
L 64.8 17.28 
" style="fill:none;"/>
   </g>
   <g id="patch_5">
    <path d="M 9 67.68 
L 64.8 67.68 
" style="fill:none;stroke:#a9a9a9;stroke-linecap:square;stroke-linejoin:miter;stroke-width:2;"/>
   </g>
   <g id="patch_6">
    <path d="M 9 17.28 
L 64.8 17.28 
" style="fill:none;"/>
   </g>
  </g>
  <g id="axes_2">
   <g id="patch_7">
    <path d="M 9 128.16 
L 64.8 128.16 
L 64.8 77.76 
L 9 77.76 
z
" style="fill:none;"/>
   </g>
   <g id="matplotlib.axis_3">
    <g id="xtick_4">
     <g id="line2d_9">
      <g>
       <use style="fill:#a9a9a9;stroke:#a9a9a9;stroke-width:2;" x="9" xlink:href="#mc61de8803d" y="128.16"/>
      </g>
     </g>
    </g>
    <g id="xtick_5">
     <g id="line2d_10">
      <g>
       <use style="fill:#a9a9a9;stroke:#a9a9a9;stroke-width:2;" x="36.9" xlink:href="#mc61de8803d" y="128.16"/>
      </g>
     </g>
    </g>
    <g id="xtick_6">
     <g id="line2d_11">
      <g>
       <use style="fill:#a9a9a9;stroke:#a9a9a9;stroke-width:2;" x="64.8" xlink:href="#mc61de8803d" y="128.16"/>
      </g>
     </g>
    </g>
   </g>
   <g id="matplotlib.axis_4">
    <g id="ytick_4">
     <g id="line2d_12">
      <g>
       <use style="fill:#a9a9a9;stroke:#a9a9a9;stroke-width:2;" x="9" xlink:href="#m5c7fec241d" y="128.16"/>
      </g>
     </g>
    </g>
    <g id="ytick_5">
     <g id="line2d_13">
      <g>
       <use style="fill:#a9a9a9;stroke:#a9a9a9;stroke-width:2;" x="9" xlink:href="#m5c7fec241d" y="102.96"/>
      </g>
     </g>
    </g>
    <g id="ytick_6">
     <g id="line2d_14">
      <g>
       <use style="fill:#a9a9a9;stroke:#a9a9a9;stroke-width:2;" x="9" xlink:href="#m5c7fec241d" y="77.76"/>
      </g>
     </g>
    </g>
   </g>
   <g id="line2d_15">
    <path clip-path="url(#p8eacb406b8)" d="M 10.86031 89.15673 
L 11.79031 88.866751 
L 12.72031 88.753328 
L 13.65031 88.682598 
L 14.58031 88.591483 
L 15.51031 88.53887 
L 16.44031 88.480836 
L 17.37031 88.405537 
L 18.30031 88.366995 
L 19.23031 88.333698 
L 20.16031 88.312285 
L 21.09031 88.330128 
L 22.02031 88.334012 
L 22.95031 88.332127 
L 23.88031 88.30818 
L 24.81031 88.33472 
L 25.74031 88.343167 
L 26.67031 88.35793 
L 27.60031 88.356802 
L 28.53031 88.355481 
L 29.46031 88.360568 
L 30.39031 88.357689 
L 31.32031 88.33044 
L 32.25031 88.324236 
L 33.18031 88.321368 
L 34.11031 88.304565 
L 35.04031 88.292852 
L 35.97031 88.275942 
L 36.90031 88.268308 
L 37.83031 88.257147 
L 38.76031 88.249765 
L 39.69031 88.240063 
L 40.62031 88.227989 
L 41.55031 88.225252 
L 42.48031 88.225184 
L 43.41031 88.225628 
L 44.34031 88.232193 
L 45.27031 88.234312 
L 46.20031 88.243387 
L 47.13031 88.24672 
L 48.06031 88.250052 
L 48.99031 88.256171 
L 49.92031 88.261262 
L 50.85031 88.264078 
L 51.78031 88.270357 
L 52.71031 88.267531 
L 53.64031 88.263932 
L 54.57031 88.259033 
L 55.50031 88.256897 
L 56.43031 88.252247 
L 57.36031 88.255825 
L 58.29031 88.252482 
L 59.22031 88.248394 
L 60.15031 88.243166 
L 61.08031 88.239229 
L 62.01031 88.234927 
L 62.94031 88.233561 
L 63.87031 88.224491 
" style="fill:none;stroke:#fc8d62;stroke-linecap:square;stroke-width:2;"/>
   </g>
   <g id="line2d_16">
    <path clip-path="url(#p8eacb406b8)" d="M 10.86031 91.501101 
L 11.79031 91.249447 
L 12.72031 91.063128 
L 13.65031 90.988851 
L 14.58031 90.932707 
L 15.51031 90.808766 
L 16.44031 90.731319 
L 17.37031 90.731355 
L 18.30031 90.736927 
L 19.23031 90.728054 
L 20.16031 90.724615 
L 21.09031 90.715662 
L 22.02031 90.684476 
L 22.95031 90.678503 
L 23.88031 90.676751 
L 24.81031 90.65383 
L 25.74031 90.654242 
L 26.67031 90.641403 
L 27.60031 90.639907 
L 28.53031 90.62102 
L 29.46031 90.613443 
L 30.39031 90.614952 
L 31.32031 90.605349 
L 32.25031 90.607584 
L 33.18031 90.607642 
L 34.11031 90.604197 
L 35.04031 90.600336 
L 35.97031 90.602652 
L 36.90031 90.596204 
L 37.83031 90.596386 
L 38.76031 90.592956 
L 39.69031 90.589228 
L 40.62031 90.579563 
L 41.55031 90.580957 
L 42.48031 90.58033 
L 43.41031 90.586115 
L 44.34031 90.593921 
L 45.27031 90.588874 
L 46.20031 90.590987 
L 47.13031 90.593612 
L 48.06031 90.600482 
L 48.99031 90.602881 
L 49.92031 90.606669 
L 50.85031 90.608314 
L 51.78031 90.608136 
L 52.71031 90.603794 
L 53.64031 90.599427 
L 54.57031 90.596478 
L 55.50031 90.597816 
L 56.43031 90.597219 
L 57.36031 90.592937 
L 58.29031 90.58156 
L 59.22031 90.58169 
L 60.15031 90.585444 
L 61.08031 90.576693 
L 62.01031 90.573008 
L 62.94031 90.575432 
L 63.87031 90.576951 
" style="fill:none;stroke:#fc8d62;stroke-dasharray:1.5,1.5;stroke-dashoffset:0;stroke-opacity:0.7;stroke-width:1.5;"/>
   </g>
   <g id="patch_8">
    <path d="M 9 128.16 
L 9 77.76 
" style="fill:none;stroke:#a9a9a9;stroke-linecap:square;stroke-linejoin:miter;stroke-width:2;"/>
   </g>
   <g id="patch_9">
    <path d="M 64.8 128.16 
L 64.8 77.76 
" style="fill:none;"/>
   </g>
   <g id="patch_10">
    <path d="M 9 128.16 
L 64.8 128.16 
" style="fill:none;stroke:#a9a9a9;stroke-linecap:square;stroke-linejoin:miter;stroke-width:2;"/>
   </g>
   <g id="patch_11">
    <path d="M 9 77.76 
L 64.8 77.76 
" style="fill:none;"/>
   </g>
  </g>
 </g>
 <defs>
  <clipPath id="p27e7b13477">
   <rect height="50.4" width="55.8" x="9" y="17.28"/>
  </clipPath>
  <clipPath id="p8eacb406b8">
   <rect height="50.4" width="55.8" x="9" y="77.76"/>
  </clipPath>
 </defs>
</svg>
