<?xml version="1.0" encoding="utf-8" standalone="no"?>
<!DOCTYPE svg PUBLIC "-//W3C//DTD SVG 1.1//EN"
  "http://www.w3.org/Graphics/SVG/1.1/DTD/svg11.dtd">
<!-- Created with matplotlib (https://matplotlib.org/) -->
<svg height="144pt" version="1.1" viewBox="0 0 72 144" width="72pt" xmlns="http://www.w3.org/2000/svg" xmlns:xlink="http://www.w3.org/1999/xlink">
 <metadata>
  <rdf:RDF xmlns:cc="http://creativecommons.org/ns#" xmlns:dc="http://purl.org/dc/elements/1.1/" xmlns:rdf="http://www.w3.org/1999/02/22-rdf-syntax-ns#">
   <cc:Work>
    <dc:type rdf:resource="http://purl.org/dc/dcmitype/StillImage"/>
    <dc:date>2021-10-11T20:21:14.498168</dc:date>
    <dc:format>image/svg+xml</dc:format>
    <dc:creator>
     <cc:Agent>
      <dc:title>Matplotlib v3.3.2, https://matplotlib.org/</dc:title>
     </cc:Agent>
    </dc:creator>
   </cc:Work>
  </rdf:RDF>
 </metadata>
 <defs>
  <style type="text/css">*{stroke-linecap:butt;stroke-linejoin:round;}</style>
 </defs>
 <g id="figure_1">
  <g id="patch_1">
   <path d="M 0 144 
L 72 144 
L 72 0 
L 0 0 
z
" style="fill:none;"/>
  </g>
  <g id="axes_1">
   <g id="patch_2">
    <path d="M 9 67.68 
L 64.8 67.68 
L 64.8 17.28 
L 9 17.28 
z
" style="fill:none;"/>
   </g>
   <g id="matplotlib.axis_1">
    <g id="xtick_1">
     <g id="line2d_1">
      <defs>
       <path d="M 0 0 
L 0 3.5 
" id="m1a8906c5b0" style="stroke:#a9a9a9;stroke-width:2;"/>
      </defs>
      <g>
       <use style="fill:#a9a9a9;stroke:#a9a9a9;stroke-width:2;" x="9" xlink:href="#m1a8906c5b0" y="67.68"/>
      </g>
     </g>
    </g>
    <g id="xtick_2">
     <g id="line2d_2">
      <g>
       <use style="fill:#a9a9a9;stroke:#a9a9a9;stroke-width:2;" x="36.9" xlink:href="#m1a8906c5b0" y="67.68"/>
      </g>
     </g>
    </g>
    <g id="xtick_3">
     <g id="line2d_3">
      <g>
       <use style="fill:#a9a9a9;stroke:#a9a9a9;stroke-width:2;" x="64.8" xlink:href="#m1a8906c5b0" y="67.68"/>
      </g>
     </g>
    </g>
   </g>
   <g id="matplotlib.axis_2">
    <g id="ytick_1">
     <g id="line2d_4">
      <defs>
       <path d="M 0 0 
L -3.5 0 
" id="m25fe793159" style="stroke:#a9a9a9;stroke-width:2;"/>
      </defs>
      <g>
       <use style="fill:#a9a9a9;stroke:#a9a9a9;stroke-width:2;" x="9" xlink:href="#m25fe793159" y="67.68"/>
      </g>
     </g>
    </g>
    <g id="ytick_2">
     <g id="line2d_5">
      <g>
       <use style="fill:#a9a9a9;stroke:#a9a9a9;stroke-width:2;" x="9" xlink:href="#m25fe793159" y="57.405079"/>
      </g>
     </g>
    </g>
    <g id="ytick_3">
     <g id="line2d_6">
      <g>
       <use style="fill:#a9a9a9;stroke:#a9a9a9;stroke-width:2;" x="9" xlink:href="#m25fe793159" y="47.130157"/>
      </g>
     </g>
    </g>
   </g>
   <g id="line2d_7">
    <path clip-path="url(#p0164f568d8)" d="M 10.86031 57.707407 
L 11.79031 55.480768 
L 12.72031 53.215993 
L 13.65031 51.285629 
L 14.58031 49.643642 
L 15.51031 48.719819 
L 16.44031 47.317503 
L 17.37031 45.914872 
L 18.30031 44.818226 
L 19.23031 43.827466 
L 20.16031 43.072424 
L 21.09031 42.036367 
L 22.02031 41.671321 
L 22.95031 40.370199 
L 23.88031 39.308751 
L 24.81031 39.274967 
L 25.74031 39.231155 
L 26.67031 37.678107 
L 27.60031 36.526983 
L 28.53031 35.153989 
L 29.46031 35.230841 
L 30.39031 34.932305 
L 31.32031 33.621975 
L 32.25031 32.790387 
L 33.18031 32.026786 
L 34.11031 31.876941 
L 35.04031 31.179944 
L 35.97031 31.016734 
L 36.90031 30.240648 
L 37.83031 29.829654 
L 38.76031 29.250855 
L 39.69031 28.842221 
L 40.62031 28.707398 
L 41.55031 28.081695 
L 42.48031 26.855922 
L 43.41031 26.517614 
L 44.34031 26.226122 
L 45.27031 25.980159 
L 46.20031 25.037569 
L 47.13031 24.623908 
L 48.06031 23.953222 
L 48.99031 23.357692 
L 49.92031 23.427902 
L 50.85031 22.805544 
L 51.78031 22.762295 
L 52.71031 22.207451 
L 53.64031 22.309497 
L 54.57031 22.300785 
L 55.50031 21.420281 
L 56.43031 20.869265 
L 57.36031 20.006434 
L 58.29031 19.846406 
L 59.22031 18.855133 
L 60.15031 18.99298 
L 61.08031 18.62379 
L 62.01031 18.314027 
L 62.94031 18.434418 
L 63.87031 17.793746 
" style="fill:none;stroke:#fc8d62;stroke-linecap:square;stroke-width:2;"/>
   </g>
   <g id="line2d_8">
    <path clip-path="url(#p0164f568d8)" d="M 10.86031 63.254091 
L 11.79031 62.715956 
L 12.72031 62.390744 
L 13.65031 61.505617 
L 14.58031 61.093963 
L 15.51031 60.13007 
L 16.44031 60.17354 
L 17.37031 60.037722 
L 18.30031 59.707301 
L 19.23031 59.233791 
L 20.16031 58.72604 
L 21.09031 58.16779 
L 22.02031 57.538291 
L 22.95031 56.902463 
L 23.88031 56.641606 
L 24.81031 56.355658 
L 25.74031 55.761124 
L 26.67031 55.311705 
L 27.60031 55.316909 
L 28.53031 54.943187 
L 29.46031 54.643642 
L 30.39031 54.278112 
L 31.32031 54.210651 
L 32.25031 54.108915 
L 33.18031 53.961542 
L 34.11031 53.527678 
L 35.04031 52.934214 
L 35.97031 52.442074 
L 36.90031 52.237459 
L 37.83031 51.987432 
L 38.76031 51.496583 
L 39.69031 51.261381 
L 40.62031 51.207753 
L 41.55031 51.238761 
L 42.48031 50.986428 
L 43.41031 50.971089 
L 44.34031 50.745581 
L 45.27031 50.43526 
L 46.20031 50.355002 
L 47.13031 49.94675 
L 48.06031 49.727259 
L 48.99031 49.635892 
L 49.92031 49.528818 
L 50.85031 48.939889 
L 51.78031 48.888855 
L 52.71031 48.549086 
L 53.64031 48.144675 
L 54.57031 47.826104 
L 55.50031 47.453354 
L 56.43031 47.172457 
L 57.36031 46.763245 
L 58.29031 46.408045 
L 59.22031 46.266888 
L 60.15031 46.310743 
L 61.08031 46.064163 
L 62.01031 46.027988 
L 62.94031 45.777848 
L 63.87031 45.776622 
" style="fill:none;stroke:#fc8d62;stroke-dasharray:1.5,1.5;stroke-dashoffset:0;stroke-opacity:0.7;stroke-width:1.5;"/>
   </g>
   <g id="patch_3">
    <path d="M 9 67.68 
L 9 17.28 
" style="fill:none;stroke:#a9a9a9;stroke-linecap:square;stroke-linejoin:miter;stroke-width:2;"/>
   </g>
   <g id="patch_4">
    <path d="M 64.8 67.68 
L 64.8 17.28 
" style="fill:none;"/>
   </g>
   <g id="patch_5">
    <path d="M 9 67.68 
L 64.8 67.68 
" style="fill:none;stroke:#a9a9a9;stroke-linecap:square;stroke-linejoin:miter;stroke-width:2;"/>
   </g>
   <g id="patch_6">
    <path d="M 9 17.28 
L 64.8 17.28 
" style="fill:none;"/>
   </g>
  </g>
  <g id="axes_2">
   <g id="patch_7">
    <path d="M 9 128.16 
L 64.8 128.16 
L 64.8 77.76 
L 9 77.76 
z
" style="fill:none;"/>
   </g>
   <g id="matplotlib.axis_3">
    <g id="xtick_4">
     <g id="line2d_9">
      <g>
       <use style="fill:#a9a9a9;stroke:#a9a9a9;stroke-width:2;" x="9" xlink:href="#m1a8906c5b0" y="128.16"/>
      </g>
     </g>
    </g>
    <g id="xtick_5">
     <g id="line2d_10">
      <g>
       <use style="fill:#a9a9a9;stroke:#a9a9a9;stroke-width:2;" x="36.9" xlink:href="#m1a8906c5b0" y="128.16"/>
      </g>
     </g>
    </g>
    <g id="xtick_6">
     <g id="line2d_11">
      <g>
       <use style="fill:#a9a9a9;stroke:#a9a9a9;stroke-width:2;" x="64.8" xlink:href="#m1a8906c5b0" y="128.16"/>
      </g>
     </g>
    </g>
   </g>
   <g id="matplotlib.axis_4">
    <g id="ytick_4">
     <g id="line2d_12">
      <g>
       <use style="fill:#a9a9a9;stroke:#a9a9a9;stroke-width:2;" x="9" xlink:href="#m25fe793159" y="128.16"/>
      </g>
     </g>
    </g>
    <g id="ytick_5">
     <g id="line2d_13">
      <g>
       <use style="fill:#a9a9a9;stroke:#a9a9a9;stroke-width:2;" x="9" xlink:href="#m25fe793159" y="102.96"/>
      </g>
     </g>
    </g>
    <g id="ytick_6">
     <g id="line2d_14">
      <g>
       <use style="fill:#a9a9a9;stroke:#a9a9a9;stroke-width:2;" x="9" xlink:href="#m25fe793159" y="77.76"/>
      </g>
     </g>
    </g>
   </g>
   <g id="line2d_15">
    <path clip-path="url(#p460776cf9d)" d="M 10.86031 102.626456 
L 11.79031 99.423104 
L 12.72031 97.497748 
L 13.65031 96.099023 
L 14.58031 95.258677 
L 15.51031 94.912071 
L 16.44031 94.489644 
L 17.37031 93.801391 
L 18.30031 93.340151 
L 19.23031 93.075928 
L 20.16031 92.681141 
L 21.09031 92.383032 
L 22.02031 92.199382 
L 22.95031 91.856861 
L 23.88031 91.650517 
L 24.81031 91.477963 
L 25.74031 91.35141 
L 26.67031 91.067453 
L 27.60031 90.891304 
L 28.53031 90.734892 
L 29.46031 90.668861 
L 30.39031 90.653381 
L 31.32031 90.579506 
L 32.25031 90.494822 
L 33.18031 90.536444 
L 34.11031 90.566164 
L 35.04031 90.457292 
L 35.97031 90.383091 
L 36.90031 90.337532 
L 37.83031 90.313392 
L 38.76031 90.208918 
L 39.69031 90.232775 
L 40.62031 90.18483 
L 41.55031 90.087229 
L 42.48031 90.003847 
L 43.41031 90.006523 
L 44.34031 89.993113 
L 45.27031 89.927392 
L 46.20031 89.830657 
L 47.13031 89.837608 
L 48.06031 89.77324 
L 48.99031 89.701045 
L 49.92031 89.685876 
L 50.85031 89.618368 
L 51.78031 89.543471 
L 52.71031 89.485171 
L 53.64031 89.486257 
L 54.57031 89.438811 
L 55.50031 89.415027 
L 56.43031 89.400016 
L 57.36031 89.406802 
L 58.29031 89.360111 
L 59.22031 89.309012 
L 60.15031 89.282151 
L 61.08031 89.278919 
L 62.01031 89.274099 
L 62.94031 89.264083 
L 63.87031 89.229582 
" style="fill:none;stroke:#fc8d62;stroke-linecap:square;stroke-width:2;"/>
   </g>
   <g id="line2d_16">
    <path clip-path="url(#p460776cf9d)" d="M 10.86031 118.181405 
L 11.79031 115.368648 
L 12.72031 113.435328 
L 13.65031 111.642763 
L 14.58031 110.479086 
L 15.51031 109.230668 
L 16.44031 108.103305 
L 17.37031 107.25593 
L 18.30031 106.983909 
L 19.23031 105.987051 
L 20.16031 105.477325 
L 21.09031 104.948842 
L 22.02031 104.161527 
L 22.95031 103.517332 
L 23.88031 103.271342 
L 24.81031 103.014875 
L 25.74031 102.409133 
L 26.67031 102.09024 
L 27.60031 101.600003 
L 28.53031 101.112578 
L 29.46031 101.09205 
L 30.39031 100.756679 
L 31.32031 100.605871 
L 32.25031 100.385224 
L 33.18031 100.133055 
L 34.11031 99.843811 
L 35.04031 99.348211 
L 35.97031 98.97943 
L 36.90031 98.995901 
L 37.83031 98.956699 
L 38.76031 98.884197 
L 39.69031 98.6542 
L 40.62031 98.529317 
L 41.55031 98.441479 
L 42.48031 98.312315 
L 43.41031 98.411059 
L 44.34031 98.233736 
L 45.27031 98.241735 
L 46.20031 98.166156 
L 47.13031 97.744992 
L 48.06031 97.54799 
L 48.99031 97.458052 
L 49.92031 97.408208 
L 50.85031 97.192363 
L 51.78031 97.15823 
L 52.71031 97.034384 
L 53.64031 96.841488 
L 54.57031 96.791348 
L 55.50031 96.726032 
L 56.43031 96.720552 
L 57.36031 96.729477 
L 58.29031 96.650968 
L 59.22031 96.577283 
L 60.15031 96.543268 
L 61.08031 96.506401 
L 62.01031 96.462272 
L 62.94031 96.372238 
L 63.87031 96.391392 
" style="fill:none;stroke:#fc8d62;stroke-dasharray:1.5,1.5;stroke-dashoffset:0;stroke-opacity:0.7;stroke-width:1.5;"/>
   </g>
   <g id="patch_8">
    <path d="M 9 128.16 
L 9 77.76 
" style="fill:none;stroke:#a9a9a9;stroke-linecap:square;stroke-linejoin:miter;stroke-width:2;"/>
   </g>
   <g id="patch_9">
    <path d="M 64.8 128.16 
L 64.8 77.76 
" style="fill:none;"/>
   </g>
   <g id="patch_10">
    <path d="M 9 128.16 
L 64.8 128.16 
" style="fill:none;stroke:#a9a9a9;stroke-linecap:square;stroke-linejoin:miter;stroke-width:2;"/>
   </g>
   <g id="patch_11">
    <path d="M 9 77.76 
L 64.8 77.76 
" style="fill:none;"/>
   </g>
  </g>
 </g>
 <defs>
  <clipPath id="p0164f568d8">
   <rect height="50.4" width="55.8" x="9" y="17.28"/>
  </clipPath>
  <clipPath id="p460776cf9d">
   <rect height="50.4" width="55.8" x="9" y="77.76"/>
  </clipPath>
 </defs>
</svg>
