<?xml version="1.0" encoding="utf-8" standalone="no"?>
<!DOCTYPE svg PUBLIC "-//W3C//DTD SVG 1.1//EN"
  "http://www.w3.org/Graphics/SVG/1.1/DTD/svg11.dtd">
<!-- Created with matplotlib (https://matplotlib.org/) -->
<svg height="144pt" version="1.1" viewBox="0 0 72 144" width="72pt" xmlns="http://www.w3.org/2000/svg" xmlns:xlink="http://www.w3.org/1999/xlink">
 <metadata>
  <rdf:RDF xmlns:cc="http://creativecommons.org/ns#" xmlns:dc="http://purl.org/dc/elements/1.1/" xmlns:rdf="http://www.w3.org/1999/02/22-rdf-syntax-ns#">
   <cc:Work>
    <dc:type rdf:resource="http://purl.org/dc/dcmitype/StillImage"/>
    <dc:date>2021-10-13T15:48:17.497527</dc:date>
    <dc:format>image/svg+xml</dc:format>
    <dc:creator>
     <cc:Agent>
      <dc:title>Matplotlib v3.3.2, https://matplotlib.org/</dc:title>
     </cc:Agent>
    </dc:creator>
   </cc:Work>
  </rdf:RDF>
 </metadata>
 <defs>
  <style type="text/css">*{stroke-linecap:butt;stroke-linejoin:round;}</style>
 </defs>
 <g id="figure_1">
  <g id="patch_1">
   <path d="M 0 144 
L 72 144 
L 72 0 
L 0 0 
z
" style="fill:none;"/>
  </g>
  <g id="axes_1">
   <g id="patch_2">
    <path d="M 9 67.68 
L 64.8 67.68 
L 64.8 17.28 
L 9 17.28 
z
" style="fill:none;"/>
   </g>
   <g id="matplotlib.axis_1">
    <g id="xtick_1">
     <g id="line2d_1">
      <defs>
       <path d="M 0 0 
L 0 3.5 
" id="mfff5fdc531" style="stroke:#a9a9a9;stroke-width:2;"/>
      </defs>
      <g>
       <use style="fill:#a9a9a9;stroke:#a9a9a9;stroke-width:2;" x="9" xlink:href="#mfff5fdc531" y="67.68"/>
      </g>
     </g>
    </g>
    <g id="xtick_2">
     <g id="line2d_2">
      <g>
       <use style="fill:#a9a9a9;stroke:#a9a9a9;stroke-width:2;" x="36.9" xlink:href="#mfff5fdc531" y="67.68"/>
      </g>
     </g>
    </g>
    <g id="xtick_3">
     <g id="line2d_3">
      <g>
       <use style="fill:#a9a9a9;stroke:#a9a9a9;stroke-width:2;" x="64.8" xlink:href="#mfff5fdc531" y="67.68"/>
      </g>
     </g>
    </g>
   </g>
   <g id="matplotlib.axis_2">
    <g id="ytick_1">
     <g id="line2d_4">
      <defs>
       <path d="M 0 0 
L -3.5 0 
" id="mc832aebe60" style="stroke:#a9a9a9;stroke-width:2;"/>
      </defs>
      <g>
       <use style="fill:#a9a9a9;stroke:#a9a9a9;stroke-width:2;" x="9" xlink:href="#mc832aebe60" y="67.68"/>
      </g>
     </g>
    </g>
    <g id="ytick_2">
     <g id="line2d_5">
      <g>
       <use style="fill:#a9a9a9;stroke:#a9a9a9;stroke-width:2;" x="9" xlink:href="#mc832aebe60" y="66.323932"/>
      </g>
     </g>
    </g>
    <g id="ytick_3">
     <g id="line2d_6">
      <g>
       <use style="fill:#a9a9a9;stroke:#a9a9a9;stroke-width:2;" x="9" xlink:href="#mc832aebe60" y="64.967864"/>
      </g>
     </g>
    </g>
   </g>
   <g id="line2d_7">
    <path clip-path="url(#pebdba0bbfa)" d="M 10.86031 62.065295 
L 11.79031 61.849864 
L 12.72031 60.895325 
L 13.65031 60.249931 
L 14.58031 59.64751 
L 15.51031 59.588574 
L 16.44031 59.308792 
L 17.37031 58.660081 
L 18.30031 58.321091 
L 19.23031 57.329362 
L 20.16031 56.303715 
L 21.09031 55.01425 
L 22.02031 54.33944 
L 22.95031 52.70048 
L 23.88031 51.152117 
L 24.81031 49.841593 
L 25.74031 48.51133 
L 26.67031 46.022915 
L 27.60031 42.873872 
L 28.53031 40.433808 
L 29.46031 37.749483 
L 30.39031 36.125745 
L 31.32031 34.320686 
L 32.25031 34.437639 
L 33.18031 35.795776 
L 34.11031 38.091628 
L 35.04031 40.020364 
L 35.97031 41.434364 
L 36.90031 40.749179 
L 37.83031 41.571786 
L 38.76031 41.140934 
L 39.69031 40.882873 
L 40.62031 41.186914 
L 41.55031 41.081394 
L 42.48031 41.177227 
L 43.41031 40.134214 
L 44.34031 39.060142 
L 45.27031 38.288013 
L 46.20031 36.128776 
L 47.13031 33.762291 
L 48.06031 31.126685 
L 48.99031 29.607212 
L 49.92031 25.919317 
L 50.85031 23.329057 
L 51.78031 20.127148 
L 52.71031 19.244268 
L 53.64031 18.012174 
L 54.57031 17.97773 
L 55.50031 17.347803 
L 56.43031 18.01047 
L 57.36031 19.268173 
L 58.29031 22.234746 
L 59.22031 25.353852 
L 60.15031 26.613007 
L 61.08031 27.002082 
L 62.01031 26.776683 
L 62.94031 26.694618 
L 63.87031 26.325638 
" style="fill:none;stroke:#fc8d62;stroke-linecap:square;stroke-width:2;"/>
   </g>
   <g id="line2d_8">
    <path clip-path="url(#pebdba0bbfa)" d="M 10.86031 62.439346 
L 11.79031 61.556504 
L 12.72031 61.165939 
L 13.65031 60.646565 
L 14.58031 59.911247 
L 15.51031 58.966854 
L 16.44031 58.515733 
L 17.37031 57.66943 
L 18.30031 56.788178 
L 19.23031 55.667896 
L 20.16031 55.088928 
L 21.09031 54.197145 
L 22.02031 53.310037 
L 22.95031 52.5554 
L 23.88031 51.955807 
L 24.81031 50.960293 
L 25.74031 50.275414 
L 26.67031 48.819508 
L 27.60031 46.51632 
L 28.53031 43.817523 
L 29.46031 41.133872 
L 30.39031 37.847715 
L 31.32031 34.932735 
L 32.25031 33.439017 
L 33.18031 34.366876 
L 34.11031 34.784409 
L 35.04031 36.229794 
L 35.97031 38.309669 
L 36.90031 38.544313 
L 37.83031 39.698839 
L 38.76031 40.071236 
L 39.69031 40.215178 
L 40.62031 39.999404 
L 41.55031 40.774771 
L 42.48031 41.064147 
L 43.41031 40.696134 
L 44.34031 39.441202 
L 45.27031 38.737082 
L 46.20031 37.148268 
L 47.13031 36.401481 
L 48.06031 34.819695 
L 48.99031 32.819911 
L 49.92031 31.458484 
L 50.85031 30.633899 
L 51.78031 29.947411 
L 52.71031 27.258633 
L 53.64031 24.072656 
L 54.57031 19.359554 
L 55.50031 14.630041 
L 56.43031 11.065028 
L 57.36031 11.221186 
L 58.29031 11.182018 
L 59.22031 13.803722 
L 60.15031 17.778781 
L 61.08031 19.646206 
L 62.01031 20.597958 
L 62.94031 23.651698 
L 63.87031 24.198345 
" style="fill:none;stroke:#fc8d62;stroke-dasharray:1.5,1.5;stroke-dashoffset:0;stroke-opacity:0.7;stroke-width:1.5;"/>
   </g>
   <g id="patch_3">
    <path d="M 9 67.68 
L 9 17.28 
" style="fill:none;stroke:#a9a9a9;stroke-linecap:square;stroke-linejoin:miter;stroke-width:2;"/>
   </g>
   <g id="patch_4">
    <path d="M 64.8 67.68 
L 64.8 17.28 
" style="fill:none;"/>
   </g>
   <g id="patch_5">
    <path d="M 9 67.68 
L 64.8 67.68 
" style="fill:none;stroke:#a9a9a9;stroke-linecap:square;stroke-linejoin:miter;stroke-width:2;"/>
   </g>
   <g id="patch_6">
    <path d="M 9 17.28 
L 64.8 17.28 
" style="fill:none;"/>
   </g>
  </g>
  <g id="axes_2">
   <g id="patch_7">
    <path d="M 9 128.16 
L 64.8 128.16 
L 64.8 77.76 
L 9 77.76 
z
" style="fill:none;"/>
   </g>
   <g id="matplotlib.axis_3">
    <g id="xtick_4">
     <g id="line2d_9">
      <g>
       <use style="fill:#a9a9a9;stroke:#a9a9a9;stroke-width:2;" x="9" xlink:href="#mfff5fdc531" y="128.16"/>
      </g>
     </g>
    </g>
    <g id="xtick_5">
     <g id="line2d_10">
      <g>
       <use style="fill:#a9a9a9;stroke:#a9a9a9;stroke-width:2;" x="36.9" xlink:href="#mfff5fdc531" y="128.16"/>
      </g>
     </g>
    </g>
    <g id="xtick_6">
     <g id="line2d_11">
      <g>
       <use style="fill:#a9a9a9;stroke:#a9a9a9;stroke-width:2;" x="64.8" xlink:href="#mfff5fdc531" y="128.16"/>
      </g>
     </g>
    </g>
   </g>
   <g id="matplotlib.axis_4">
    <g id="ytick_4">
     <g id="line2d_12">
      <g>
       <use style="fill:#a9a9a9;stroke:#a9a9a9;stroke-width:2;" x="9" xlink:href="#mc832aebe60" y="128.16"/>
      </g>
     </g>
    </g>
    <g id="ytick_5">
     <g id="line2d_13">
      <g>
       <use style="fill:#a9a9a9;stroke:#a9a9a9;stroke-width:2;" x="9" xlink:href="#mc832aebe60" y="102.96"/>
      </g>
     </g>
    </g>
    <g id="ytick_6">
     <g id="line2d_14">
      <g>
       <use style="fill:#a9a9a9;stroke:#a9a9a9;stroke-width:2;" x="9" xlink:href="#mc832aebe60" y="77.76"/>
      </g>
     </g>
    </g>
   </g>
   <g id="line2d_15">
    <path clip-path="url(#pbf954735e9)" d="M 10.86031 89.213024 
L 11.79031 89.18127 
L 12.72031 89.025379 
L 13.65031 88.945192 
L 14.58031 88.869413 
L 15.51031 88.846568 
L 16.44031 88.822895 
L 17.37031 88.803961 
L 18.30031 88.775485 
L 19.23031 88.759906 
L 20.16031 88.765263 
L 21.09031 88.75787 
L 22.02031 88.758339 
L 22.95031 88.745081 
L 23.88031 88.73845 
L 24.81031 88.741458 
L 25.74031 88.738642 
L 26.67031 88.736556 
L 27.60031 88.735133 
L 28.53031 88.733745 
L 29.46031 88.729266 
L 30.39031 88.728353 
L 31.32031 88.722268 
L 32.25031 88.727291 
L 33.18031 88.726735 
L 34.11031 88.724133 
L 35.04031 88.721787 
L 35.97031 88.721344 
L 36.90031 88.713564 
L 37.83031 88.707963 
L 38.76031 88.703977 
L 39.69031 88.699055 
L 40.62031 88.697594 
L 41.55031 88.698957 
L 42.48031 88.701666 
L 43.41031 88.705647 
L 44.34031 88.710403 
L 45.27031 88.71338 
L 46.20031 88.714994 
L 47.13031 88.712878 
L 48.06031 88.714513 
L 48.99031 88.716475 
L 49.92031 88.716989 
L 50.85031 88.718876 
L 51.78031 88.72175 
L 52.71031 88.723811 
L 53.64031 88.724026 
L 54.57031 88.723128 
L 55.50031 88.723574 
L 56.43031 88.723706 
L 57.36031 88.721146 
L 58.29031 88.721841 
L 59.22031 88.715303 
L 60.15031 88.712003 
L 61.08031 88.711607 
L 62.01031 88.708166 
L 62.94031 88.706898 
L 63.87031 88.705004 
" style="fill:none;stroke:#fc8d62;stroke-linecap:square;stroke-width:2;"/>
   </g>
   <g id="line2d_16">
    <path clip-path="url(#pbf954735e9)" d="M 10.86031 91.180685 
L 11.79031 91.015612 
L 12.72031 90.953335 
L 13.65031 90.834224 
L 14.58031 90.779613 
L 15.51031 90.729323 
L 16.44031 90.715043 
L 17.37031 90.684086 
L 18.30031 90.662027 
L 19.23031 90.648491 
L 20.16031 90.657937 
L 21.09031 90.673996 
L 22.02031 90.681217 
L 22.95031 90.688127 
L 23.88031 90.688496 
L 24.81031 90.67399 
L 25.74031 90.673053 
L 26.67031 90.664624 
L 27.60031 90.656338 
L 28.53031 90.649466 
L 29.46031 90.642771 
L 30.39031 90.639961 
L 31.32031 90.627913 
L 32.25031 90.625778 
L 33.18031 90.622905 
L 34.11031 90.620662 
L 35.04031 90.619638 
L 35.97031 90.61291 
L 36.90031 90.611625 
L 37.83031 90.608473 
L 38.76031 90.601234 
L 39.69031 90.598639 
L 40.62031 90.59661 
L 41.55031 90.598595 
L 42.48031 90.599152 
L 43.41031 90.601586 
L 44.34031 90.605865 
L 45.27031 90.60883 
L 46.20031 90.613905 
L 47.13031 90.616067 
L 48.06031 90.61725 
L 48.99031 90.613888 
L 49.92031 90.615562 
L 50.85031 90.615807 
L 51.78031 90.617529 
L 52.71031 90.618277 
L 53.64031 90.618456 
L 54.57031 90.615158 
L 55.50031 90.61184 
L 56.43031 90.609001 
L 57.36031 90.605093 
L 58.29031 90.604896 
L 59.22031 90.602703 
L 60.15031 90.60121 
L 61.08031 90.600115 
L 62.01031 90.599224 
L 62.94031 90.597454 
L 63.87031 90.597181 
" style="fill:none;stroke:#fc8d62;stroke-dasharray:1.5,1.5;stroke-dashoffset:0;stroke-opacity:0.7;stroke-width:1.5;"/>
   </g>
   <g id="patch_8">
    <path d="M 9 128.16 
L 9 77.76 
" style="fill:none;stroke:#a9a9a9;stroke-linecap:square;stroke-linejoin:miter;stroke-width:2;"/>
   </g>
   <g id="patch_9">
    <path d="M 64.8 128.16 
L 64.8 77.76 
" style="fill:none;"/>
   </g>
   <g id="patch_10">
    <path d="M 9 128.16 
L 64.8 128.16 
" style="fill:none;stroke:#a9a9a9;stroke-linecap:square;stroke-linejoin:miter;stroke-width:2;"/>
   </g>
   <g id="patch_11">
    <path d="M 9 77.76 
L 64.8 77.76 
" style="fill:none;"/>
   </g>
  </g>
 </g>
 <defs>
  <clipPath id="pebdba0bbfa">
   <rect height="50.4" width="55.8" x="9" y="17.28"/>
  </clipPath>
  <clipPath id="pbf954735e9">
   <rect height="50.4" width="55.8" x="9" y="77.76"/>
  </clipPath>
 </defs>
</svg>
