<?xml version="1.0" encoding="utf-8" standalone="no"?>
<!DOCTYPE svg PUBLIC "-//W3C//DTD SVG 1.1//EN"
  "http://www.w3.org/Graphics/SVG/1.1/DTD/svg11.dtd">
<!-- Created with matplotlib (https://matplotlib.org/) -->
<svg height="144pt" version="1.1" viewBox="0 0 72 144" width="72pt" xmlns="http://www.w3.org/2000/svg" xmlns:xlink="http://www.w3.org/1999/xlink">
 <metadata>
  <rdf:RDF xmlns:cc="http://creativecommons.org/ns#" xmlns:dc="http://purl.org/dc/elements/1.1/" xmlns:rdf="http://www.w3.org/1999/02/22-rdf-syntax-ns#">
   <cc:Work>
    <dc:type rdf:resource="http://purl.org/dc/dcmitype/StillImage"/>
    <dc:date>2021-10-13T15:31:43.045472</dc:date>
    <dc:format>image/svg+xml</dc:format>
    <dc:creator>
     <cc:Agent>
      <dc:title>Matplotlib v3.3.2, https://matplotlib.org/</dc:title>
     </cc:Agent>
    </dc:creator>
   </cc:Work>
  </rdf:RDF>
 </metadata>
 <defs>
  <style type="text/css">*{stroke-linecap:butt;stroke-linejoin:round;}</style>
 </defs>
 <g id="figure_1">
  <g id="patch_1">
   <path d="M 0 144 
L 72 144 
L 72 0 
L 0 0 
z
" style="fill:none;"/>
  </g>
  <g id="axes_1">
   <g id="patch_2">
    <path d="M 9 67.68 
L 64.8 67.68 
L 64.8 17.28 
L 9 17.28 
z
" style="fill:none;"/>
   </g>
   <g id="matplotlib.axis_1">
    <g id="xtick_1">
     <g id="line2d_1">
      <defs>
       <path d="M 0 0 
L 0 3.5 
" id="m161a7f4c55" style="stroke:#a9a9a9;stroke-width:2;"/>
      </defs>
      <g>
       <use style="fill:#a9a9a9;stroke:#a9a9a9;stroke-width:2;" x="9" xlink:href="#m161a7f4c55" y="67.68"/>
      </g>
     </g>
    </g>
    <g id="xtick_2">
     <g id="line2d_2">
      <g>
       <use style="fill:#a9a9a9;stroke:#a9a9a9;stroke-width:2;" x="36.9" xlink:href="#m161a7f4c55" y="67.68"/>
      </g>
     </g>
    </g>
    <g id="xtick_3">
     <g id="line2d_3">
      <g>
       <use style="fill:#a9a9a9;stroke:#a9a9a9;stroke-width:2;" x="64.8" xlink:href="#m161a7f4c55" y="67.68"/>
      </g>
     </g>
    </g>
   </g>
   <g id="matplotlib.axis_2">
    <g id="ytick_1">
     <g id="line2d_4">
      <defs>
       <path d="M 0 0 
L -3.5 0 
" id="m8d704b78b4" style="stroke:#a9a9a9;stroke-width:2;"/>
      </defs>
      <g>
       <use style="fill:#a9a9a9;stroke:#a9a9a9;stroke-width:2;" x="9" xlink:href="#m8d704b78b4" y="67.68"/>
      </g>
     </g>
    </g>
    <g id="ytick_2">
     <g id="line2d_5">
      <g>
       <use style="fill:#a9a9a9;stroke:#a9a9a9;stroke-width:2;" x="9" xlink:href="#m8d704b78b4" y="42.48"/>
      </g>
     </g>
    </g>
    <g id="ytick_3">
     <g id="line2d_6">
      <g>
       <use style="fill:#a9a9a9;stroke:#a9a9a9;stroke-width:2;" x="9" xlink:href="#m8d704b78b4" y="17.28"/>
      </g>
     </g>
    </g>
   </g>
   <g id="line2d_7">
    <path clip-path="url(#p3c92e4db08)" d="M 10.86031 56.783771 
L 11.79031 58.343415 
L 12.72031 58.739665 
L 13.65031 58.311262 
L 14.58031 57.675908 
L 15.51031 57.244926 
L 16.44031 57.561195 
L 17.37031 57.030309 
L 18.30031 55.64401 
L 19.23031 55.269196 
L 20.16031 54.788271 
L 21.09031 54.561136 
L 22.02031 54.312141 
L 22.95031 53.308376 
L 23.88031 53.625488 
L 24.81031 53.349056 
L 25.74031 53.7839 
L 26.67031 53.522634 
L 27.60031 53.520854 
L 28.53031 53.727935 
L 29.46031 53.36547 
L 30.39031 53.359392 
L 31.32031 52.815568 
L 32.25031 52.259487 
L 33.18031 52.302622 
L 34.11031 51.902819 
L 35.04031 51.789141 
L 35.97031 51.494697 
L 36.90031 50.807571 
L 37.83031 50.729189 
L 38.76031 50.2324 
L 39.69031 49.676863 
L 40.62031 49.370591 
L 41.55031 49.422882 
L 42.48031 49.523903 
L 43.41031 49.233986 
L 44.34031 49.166994 
L 45.27031 48.902514 
L 46.20031 48.876678 
L 47.13031 48.480542 
L 48.06031 48.396511 
L 48.99031 48.526351 
L 49.92031 48.136237 
L 50.85031 48.035291 
L 51.78031 48.046886 
L 52.71031 48.20391 
L 53.64031 47.801129 
L 54.57031 47.758038 
L 55.50031 47.608484 
L 56.43031 47.47545 
L 57.36031 47.625202 
L 58.29031 47.416234 
L 59.22031 47.400518 
L 60.15031 47.225901 
L 61.08031 47.292691 
L 62.01031 47.285618 
L 62.94031 46.726884 
L 63.87031 46.371599 
" style="fill:none;stroke:#fc8d62;stroke-linecap:square;stroke-width:2;"/>
   </g>
   <g id="line2d_8">
    <path clip-path="url(#p3c92e4db08)" d="M 10.86031 56.030661 
L 11.79031 58.034767 
L 12.72031 59.714377 
L 13.65031 60.181869 
L 14.58031 58.991856 
L 15.51031 58.112197 
L 16.44031 58.499076 
L 17.37031 57.244292 
L 18.30031 57.051549 
L 19.23031 56.90871 
L 20.16031 56.296577 
L 21.09031 56.068249 
L 22.02031 55.302434 
L 22.95031 54.624966 
L 23.88031 55.04209 
L 24.81031 54.40546 
L 25.74031 54.810313 
L 26.67031 54.16821 
L 27.60031 53.366211 
L 28.53031 53.385282 
L 29.46031 53.099294 
L 30.39031 53.021127 
L 31.32031 51.552136 
L 32.25031 51.307325 
L 33.18031 51.110125 
L 34.11031 50.726197 
L 35.04031 50.74135 
L 35.97031 50.154795 
L 36.90031 49.792646 
L 37.83031 49.723252 
L 38.76031 49.575401 
L 39.69031 49.792109 
L 40.62031 49.703958 
L 41.55031 49.182458 
L 42.48031 49.127677 
L 43.41031 48.494668 
L 44.34031 48.345523 
L 45.27031 48.479823 
L 46.20031 48.096084 
L 47.13031 47.611573 
L 48.06031 47.953849 
L 48.99031 47.540123 
L 49.92031 47.497732 
L 50.85031 47.190185 
L 51.78031 46.831185 
L 52.71031 46.838437 
L 53.64031 47.068191 
L 54.57031 46.816065 
L 55.50031 46.132964 
L 56.43031 45.785338 
L 57.36031 45.721314 
L 58.29031 45.311462 
L 59.22031 44.699466 
L 60.15031 44.847729 
L 61.08031 45.069093 
L 62.01031 44.421839 
L 62.94031 43.790675 
L 63.87031 43.475135 
" style="fill:none;stroke:#fc8d62;stroke-dasharray:1.5,1.5;stroke-dashoffset:0;stroke-opacity:0.7;stroke-width:1.5;"/>
   </g>
   <g id="patch_3">
    <path d="M 9 67.68 
L 9 17.28 
" style="fill:none;stroke:#a9a9a9;stroke-linecap:square;stroke-linejoin:miter;stroke-width:2;"/>
   </g>
   <g id="patch_4">
    <path d="M 64.8 67.68 
L 64.8 17.28 
" style="fill:none;"/>
   </g>
   <g id="patch_5">
    <path d="M 9 67.68 
L 64.8 67.68 
" style="fill:none;stroke:#a9a9a9;stroke-linecap:square;stroke-linejoin:miter;stroke-width:2;"/>
   </g>
   <g id="patch_6">
    <path d="M 9 17.28 
L 64.8 17.28 
" style="fill:none;"/>
   </g>
  </g>
  <g id="axes_2">
   <g id="patch_7">
    <path d="M 9 128.16 
L 64.8 128.16 
L 64.8 77.76 
L 9 77.76 
z
" style="fill:none;"/>
   </g>
   <g id="matplotlib.axis_3">
    <g id="xtick_4">
     <g id="line2d_9">
      <g>
       <use style="fill:#a9a9a9;stroke:#a9a9a9;stroke-width:2;" x="9" xlink:href="#m161a7f4c55" y="128.16"/>
      </g>
     </g>
    </g>
    <g id="xtick_5">
     <g id="line2d_10">
      <g>
       <use style="fill:#a9a9a9;stroke:#a9a9a9;stroke-width:2;" x="36.9" xlink:href="#m161a7f4c55" y="128.16"/>
      </g>
     </g>
    </g>
    <g id="xtick_6">
     <g id="line2d_11">
      <g>
       <use style="fill:#a9a9a9;stroke:#a9a9a9;stroke-width:2;" x="64.8" xlink:href="#m161a7f4c55" y="128.16"/>
      </g>
     </g>
    </g>
   </g>
   <g id="matplotlib.axis_4">
    <g id="ytick_4">
     <g id="line2d_12">
      <g>
       <use style="fill:#a9a9a9;stroke:#a9a9a9;stroke-width:2;" x="9" xlink:href="#m8d704b78b4" y="128.16"/>
      </g>
     </g>
    </g>
    <g id="ytick_5">
     <g id="line2d_13">
      <g>
       <use style="fill:#a9a9a9;stroke:#a9a9a9;stroke-width:2;" x="9" xlink:href="#m8d704b78b4" y="102.96"/>
      </g>
     </g>
    </g>
    <g id="ytick_6">
     <g id="line2d_14">
      <g>
       <use style="fill:#a9a9a9;stroke:#a9a9a9;stroke-width:2;" x="9" xlink:href="#m8d704b78b4" y="77.76"/>
      </g>
     </g>
    </g>
   </g>
   <g id="line2d_15">
    <path clip-path="url(#paeabc39082)" d="M 10.86031 127.576582 
L 11.79031 126.813675 
L 12.72031 125.997147 
L 13.65031 125.154354 
L 14.58031 124.168076 
L 15.51031 123.796329 
L 16.44031 123.766955 
L 17.37031 123.505302 
L 18.30031 122.876907 
L 19.23031 122.544267 
L 20.16031 122.306935 
L 21.09031 121.830582 
L 22.02031 121.327363 
L 22.95031 120.873744 
L 23.88031 120.707566 
L 24.81031 120.834992 
L 25.74031 120.889583 
L 26.67031 120.553616 
L 27.60031 120.449557 
L 28.53031 120.32723 
L 29.46031 119.997994 
L 30.39031 119.904976 
L 31.32031 119.911561 
L 32.25031 119.902803 
L 33.18031 119.892019 
L 34.11031 119.539546 
L 35.04031 119.343852 
L 35.97031 119.340586 
L 36.90031 119.010749 
L 37.83031 118.92376 
L 38.76031 118.597147 
L 39.69031 118.160588 
L 40.62031 118.021048 
L 41.55031 118.01665 
L 42.48031 117.824614 
L 43.41031 117.484565 
L 44.34031 117.280006 
L 45.27031 117.232762 
L 46.20031 117.314663 
L 47.13031 117.066738 
L 48.06031 116.973408 
L 48.99031 116.990628 
L 49.92031 116.894436 
L 50.85031 116.668196 
L 51.78031 116.65557 
L 52.71031 116.56468 
L 53.64031 116.534676 
L 54.57031 116.468393 
L 55.50031 116.488419 
L 56.43031 116.408661 
L 57.36031 116.170396 
L 58.29031 116.058765 
L 59.22031 115.696145 
L 60.15031 115.562994 
L 61.08031 115.325883 
L 62.01031 115.156797 
L 62.94031 114.9843 
L 63.87031 114.993 
" style="fill:none;stroke:#fc8d62;stroke-linecap:square;stroke-width:2;"/>
   </g>
   <g id="line2d_16">
    <path clip-path="url(#paeabc39082)" d="M 10.86031 126.996703 
L 11.79031 125.407906 
L 12.72031 124.323235 
L 13.65031 123.495241 
L 14.58031 122.494379 
L 15.51031 121.188641 
L 16.44031 120.437659 
L 17.37031 119.195128 
L 18.30031 118.291338 
L 19.23031 117.963032 
L 20.16031 116.971766 
L 21.09031 116.604783 
L 22.02031 116.092783 
L 22.95031 115.536061 
L 23.88031 114.753597 
L 24.81031 114.452354 
L 25.74031 114.317453 
L 26.67031 113.848853 
L 27.60031 113.21594 
L 28.53031 112.660156 
L 29.46031 112.219056 
L 30.39031 112.069986 
L 31.32031 111.709308 
L 32.25031 111.117809 
L 33.18031 110.670067 
L 34.11031 110.04497 
L 35.04031 109.639828 
L 35.97031 109.671986 
L 36.90031 109.430919 
L 37.83031 109.442468 
L 38.76031 108.966453 
L 39.69031 108.943671 
L 40.62031 108.619621 
L 41.55031 108.296062 
L 42.48031 107.889022 
L 43.41031 107.632801 
L 44.34031 107.258213 
L 45.27031 106.945192 
L 46.20031 106.63748 
L 47.13031 106.486998 
L 48.06031 106.207129 
L 48.99031 106.179573 
L 49.92031 106.020067 
L 50.85031 105.829641 
L 51.78031 105.572483 
L 52.71031 105.506135 
L 53.64031 105.554683 
L 54.57031 105.427059 
L 55.50031 105.253117 
L 56.43031 104.7213 
L 57.36031 104.665213 
L 58.29031 104.524141 
L 59.22031 104.297148 
L 60.15031 104.113364 
L 61.08031 104.130777 
L 62.01031 103.781223 
L 62.94031 103.607654 
L 63.87031 103.677214 
" style="fill:none;stroke:#fc8d62;stroke-dasharray:1.5,1.5;stroke-dashoffset:0;stroke-opacity:0.7;stroke-width:1.5;"/>
   </g>
   <g id="patch_8">
    <path d="M 9 128.16 
L 9 77.76 
" style="fill:none;stroke:#a9a9a9;stroke-linecap:square;stroke-linejoin:miter;stroke-width:2;"/>
   </g>
   <g id="patch_9">
    <path d="M 64.8 128.16 
L 64.8 77.76 
" style="fill:none;"/>
   </g>
   <g id="patch_10">
    <path d="M 9 128.16 
L 64.8 128.16 
" style="fill:none;stroke:#a9a9a9;stroke-linecap:square;stroke-linejoin:miter;stroke-width:2;"/>
   </g>
   <g id="patch_11">
    <path d="M 9 77.76 
L 64.8 77.76 
" style="fill:none;"/>
   </g>
  </g>
 </g>
 <defs>
  <clipPath id="p3c92e4db08">
   <rect height="50.4" width="55.8" x="9" y="17.28"/>
  </clipPath>
  <clipPath id="paeabc39082">
   <rect height="50.4" width="55.8" x="9" y="77.76"/>
  </clipPath>
 </defs>
</svg>
