<?xml version="1.0" encoding="utf-8" standalone="no"?>
<!DOCTYPE svg PUBLIC "-//W3C//DTD SVG 1.1//EN"
  "http://www.w3.org/Graphics/SVG/1.1/DTD/svg11.dtd">
<!-- Created with matplotlib (https://matplotlib.org/) -->
<svg height="144pt" version="1.1" viewBox="0 0 72 144" width="72pt" xmlns="http://www.w3.org/2000/svg" xmlns:xlink="http://www.w3.org/1999/xlink">
 <metadata>
  <rdf:RDF xmlns:cc="http://creativecommons.org/ns#" xmlns:dc="http://purl.org/dc/elements/1.1/" xmlns:rdf="http://www.w3.org/1999/02/22-rdf-syntax-ns#">
   <cc:Work>
    <dc:type rdf:resource="http://purl.org/dc/dcmitype/StillImage"/>
    <dc:date>2021-10-14T18:23:12.686501</dc:date>
    <dc:format>image/svg+xml</dc:format>
    <dc:creator>
     <cc:Agent>
      <dc:title>Matplotlib v3.3.2, https://matplotlib.org/</dc:title>
     </cc:Agent>
    </dc:creator>
   </cc:Work>
  </rdf:RDF>
 </metadata>
 <defs>
  <style type="text/css">*{stroke-linecap:butt;stroke-linejoin:round;}</style>
 </defs>
 <g id="figure_1">
  <g id="patch_1">
   <path d="M 0 144 
L 72 144 
L 72 0 
L 0 0 
z
" style="fill:none;"/>
  </g>
  <g id="axes_1">
   <g id="patch_2">
    <path d="M 9 67.68 
L 64.8 67.68 
L 64.8 17.28 
L 9 17.28 
z
" style="fill:none;"/>
   </g>
   <g id="matplotlib.axis_1">
    <g id="xtick_1">
     <g id="line2d_1">
      <defs>
       <path d="M 0 0 
L 0 3.5 
" id="m2e8f1ebfc2" style="stroke:#a9a9a9;stroke-width:2;"/>
      </defs>
      <g>
       <use style="fill:#a9a9a9;stroke:#a9a9a9;stroke-width:2;" x="9" xlink:href="#m2e8f1ebfc2" y="67.68"/>
      </g>
     </g>
    </g>
    <g id="xtick_2">
     <g id="line2d_2">
      <g>
       <use style="fill:#a9a9a9;stroke:#a9a9a9;stroke-width:2;" x="36.9" xlink:href="#m2e8f1ebfc2" y="67.68"/>
      </g>
     </g>
    </g>
    <g id="xtick_3">
     <g id="line2d_3">
      <g>
       <use style="fill:#a9a9a9;stroke:#a9a9a9;stroke-width:2;" x="64.8" xlink:href="#m2e8f1ebfc2" y="67.68"/>
      </g>
     </g>
    </g>
   </g>
   <g id="matplotlib.axis_2">
    <g id="ytick_1">
     <g id="line2d_4">
      <defs>
       <path d="M 0 0 
L -3.5 0 
" id="m8a9e501cb5" style="stroke:#a9a9a9;stroke-width:2;"/>
      </defs>
      <g>
       <use style="fill:#a9a9a9;stroke:#a9a9a9;stroke-width:2;" x="9" xlink:href="#m8a9e501cb5" y="67.68"/>
      </g>
     </g>
    </g>
    <g id="ytick_2">
     <g id="line2d_5">
      <g>
       <use style="fill:#a9a9a9;stroke:#a9a9a9;stroke-width:2;" x="9" xlink:href="#m8a9e501cb5" y="42.48"/>
      </g>
     </g>
    </g>
    <g id="ytick_3">
     <g id="line2d_6">
      <g>
       <use style="fill:#a9a9a9;stroke:#a9a9a9;stroke-width:2;" x="9" xlink:href="#m8a9e501cb5" y="17.28"/>
      </g>
     </g>
    </g>
   </g>
   <g id="line2d_7">
    <path clip-path="url(#p590aae3ded)" d="M 10.860031 61.571475 
L 11.790031 61.203918 
L 12.720031 61.196647 
L 13.650031 61.701306 
L 14.580031 60.727745 
L 15.510031 60.365757 
L 16.440031 59.429289 
L 17.370031 58.846268 
L 18.300031 59.168814 
L 19.230031 58.581364 
L 20.160031 56.94256 
L 21.090031 57.000539 
L 22.020031 57.363002 
L 22.950031 57.355366 
L 23.880031 57.560205 
L 24.810031 57.175905 
L 25.740031 56.373579 
L 26.670031 56.147526 
L 27.600031 55.733408 
L 28.530031 55.711244 
L 29.460031 55.499921 
L 30.390031 55.353134 
L 31.320031 54.77779 
L 32.250031 54.685148 
L 33.180031 54.352758 
L 34.110031 54.41261 
L 35.040031 54.006875 
L 35.970031 54.17185 
L 36.900031 54.378903 
L 37.830031 53.919334 
L 38.760031 53.176122 
L 39.690031 53.886389 
L 40.620031 54.164547 
L 41.550031 53.696304 
L 42.480031 53.922331 
L 43.410031 53.671687 
L 44.340031 53.65874 
L 45.270031 53.905165 
L 46.200031 53.959578 
L 47.130031 54.057195 
L 48.060031 53.706121 
L 48.990031 53.571441 
L 49.920031 53.115459 
L 50.850031 52.884463 
L 51.780031 52.424327 
L 52.710031 52.095215 
L 53.640031 51.67927 
L 54.570031 51.881847 
L 55.500031 51.735967 
L 56.430031 51.449532 
L 57.360031 51.416778 
L 58.290031 51.342649 
L 59.220031 50.888698 
L 60.150031 50.240643 
L 61.080031 50.748214 
L 62.010031 50.533903 
L 62.940031 50.256504 
L 63.870031 49.884247 
" style="fill:none;stroke:#fc8d62;stroke-linecap:square;stroke-width:2;"/>
   </g>
   <g id="line2d_8">
    <path clip-path="url(#p590aae3ded)" d="M 10.860031 60.722073 
L 11.790031 62.565615 
L 12.720031 61.958925 
L 13.650031 61.255968 
L 14.580031 61.427257 
L 15.510031 61.241251 
L 16.440031 61.411255 
L 17.370031 60.754544 
L 18.300031 60.049982 
L 19.230031 59.837518 
L 20.160031 59.721419 
L 21.090031 59.844462 
L 22.020031 59.222777 
L 22.950031 59.229792 
L 23.880031 59.424882 
L 24.810031 59.150612 
L 25.740031 58.74345 
L 26.670031 58.95207 
L 27.600031 58.803918 
L 28.530031 58.457766 
L 29.460031 58.211618 
L 30.390031 57.433516 
L 31.320031 57.49265 
L 32.250031 57.005854 
L 33.180031 56.988245 
L 34.110031 56.731729 
L 35.040031 56.34853 
L 35.970031 56.312405 
L 36.900031 56.063608 
L 37.830031 55.594745 
L 38.760031 55.718124 
L 39.690031 55.507079 
L 40.620031 55.527325 
L 41.550031 55.59694 
L 42.480031 55.583107 
L 43.410031 55.54287 
L 44.340031 55.534647 
L 45.270031 55.443703 
L 46.200031 55.95195 
L 47.130031 55.317667 
L 48.060031 55.294918 
L 48.990031 54.690498 
L 49.920031 54.488986 
L 50.850031 54.128118 
L 51.780031 54.318515 
L 52.710031 53.783924 
L 53.640031 54.013219 
L 54.570031 54.329617 
L 55.500031 53.955869 
L 56.430031 53.824079 
L 57.360031 53.672343 
L 58.290031 53.880871 
L 59.220031 53.569189 
L 60.150031 53.261907 
L 61.080031 53.257539 
L 62.010031 53.391162 
L 62.940031 53.175026 
L 63.870031 52.998609 
" style="fill:none;stroke:#fc8d62;stroke-dasharray:1.5,1.5;stroke-dashoffset:0;stroke-opacity:0.7;stroke-width:1.5;"/>
   </g>
   <g id="patch_3">
    <path d="M 9 67.68 
L 9 17.28 
" style="fill:none;stroke:#a9a9a9;stroke-linecap:square;stroke-linejoin:miter;stroke-width:2;"/>
   </g>
   <g id="patch_4">
    <path d="M 64.8 67.68 
L 64.8 17.28 
" style="fill:none;"/>
   </g>
   <g id="patch_5">
    <path d="M 9 67.68 
L 64.8 67.68 
" style="fill:none;stroke:#a9a9a9;stroke-linecap:square;stroke-linejoin:miter;stroke-width:2;"/>
   </g>
   <g id="patch_6">
    <path d="M 9 17.28 
L 64.8 17.28 
" style="fill:none;"/>
   </g>
  </g>
  <g id="axes_2">
   <g id="patch_7">
    <path d="M 9 128.16 
L 64.8 128.16 
L 64.8 77.76 
L 9 77.76 
z
" style="fill:none;"/>
   </g>
   <g id="matplotlib.axis_3">
    <g id="xtick_4">
     <g id="line2d_9">
      <g>
       <use style="fill:#a9a9a9;stroke:#a9a9a9;stroke-width:2;" x="9" xlink:href="#m2e8f1ebfc2" y="128.16"/>
      </g>
     </g>
    </g>
    <g id="xtick_5">
     <g id="line2d_10">
      <g>
       <use style="fill:#a9a9a9;stroke:#a9a9a9;stroke-width:2;" x="36.9" xlink:href="#m2e8f1ebfc2" y="128.16"/>
      </g>
     </g>
    </g>
    <g id="xtick_6">
     <g id="line2d_11">
      <g>
       <use style="fill:#a9a9a9;stroke:#a9a9a9;stroke-width:2;" x="64.8" xlink:href="#m2e8f1ebfc2" y="128.16"/>
      </g>
     </g>
    </g>
   </g>
   <g id="matplotlib.axis_4">
    <g id="ytick_4">
     <g id="line2d_12">
      <g>
       <use style="fill:#a9a9a9;stroke:#a9a9a9;stroke-width:2;" x="9" xlink:href="#m8a9e501cb5" y="128.16"/>
      </g>
     </g>
    </g>
    <g id="ytick_5">
     <g id="line2d_13">
      <g>
       <use style="fill:#a9a9a9;stroke:#a9a9a9;stroke-width:2;" x="9" xlink:href="#m8a9e501cb5" y="102.96"/>
      </g>
     </g>
    </g>
    <g id="ytick_6">
     <g id="line2d_14">
      <g>
       <use style="fill:#a9a9a9;stroke:#a9a9a9;stroke-width:2;" x="9" xlink:href="#m8a9e501cb5" y="77.76"/>
      </g>
     </g>
    </g>
   </g>
   <g id="line2d_15">
    <path clip-path="url(#p89c4e08593)" d="M 10.860031 128.095071 
L 11.790031 128.009749 
L 12.720031 127.895645 
L 13.650031 127.745998 
L 14.580031 127.73838 
L 15.510031 127.625067 
L 16.440031 127.557109 
L 17.370031 127.452054 
L 18.300031 127.306582 
L 19.230031 127.187487 
L 20.160031 127.153969 
L 21.090031 127.059995 
L 22.020031 126.94035 
L 22.950031 126.779398 
L 23.880031 126.773545 
L 24.810031 126.707653 
L 25.740031 126.693969 
L 26.670031 126.555717 
L 27.600031 126.475943 
L 28.530031 126.372838 
L 29.460031 126.297948 
L 30.390031 126.131241 
L 31.320031 125.908548 
L 32.250031 125.732638 
L 33.180031 125.826009 
L 34.110031 125.75944 
L 35.040031 125.624715 
L 35.970031 125.596234 
L 36.900031 125.524263 
L 37.830031 125.38471 
L 38.760031 125.304282 
L 39.690031 125.177013 
L 40.620031 125.088725 
L 41.550031 125.117674 
L 42.480031 125.076275 
L 43.410031 124.929412 
L 44.340031 124.886185 
L 45.270031 124.743105 
L 46.200031 124.589247 
L 47.130031 124.512871 
L 48.060031 124.442739 
L 48.990031 124.232412 
L 49.920031 124.249234 
L 50.850031 124.239496 
L 51.780031 124.279674 
L 52.710031 124.218843 
L 53.640031 124.024773 
L 54.570031 123.942745 
L 55.500031 123.92977 
L 56.430031 123.863463 
L 57.360031 123.787152 
L 58.290031 123.730206 
L 59.220031 123.626128 
L 60.150031 123.552302 
L 61.080031 123.296458 
L 62.010031 123.321735 
L 62.940031 123.292561 
L 63.870031 123.339785 
" style="fill:none;stroke:#fc8d62;stroke-linecap:square;stroke-width:2;"/>
   </g>
   <g id="line2d_16">
    <path clip-path="url(#p89c4e08593)" d="M 10.860031 127.494007 
L 11.790031 127.150633 
L 12.720031 126.646478 
L 13.650031 126.072817 
L 14.580031 125.866027 
L 15.510031 125.339067 
L 16.440031 125.016438 
L 17.370031 124.77686 
L 18.300031 124.400666 
L 19.230031 124.130338 
L 20.160031 123.581181 
L 21.090031 123.030791 
L 22.020031 122.654725 
L 22.950031 122.339025 
L 23.880031 121.99381 
L 24.810031 121.534858 
L 25.740031 120.976794 
L 26.670031 120.497201 
L 27.600031 120.022129 
L 28.530031 119.872102 
L 29.460031 119.54892 
L 30.390031 118.994408 
L 31.320031 118.75417 
L 32.250031 118.94992 
L 33.180031 118.856742 
L 34.110031 118.560005 
L 35.040031 118.33155 
L 35.970031 118.307203 
L 36.900031 117.99983 
L 37.830031 117.940284 
L 38.760031 117.698695 
L 39.690031 117.340453 
L 40.620031 116.932715 
L 41.550031 116.673621 
L 42.480031 116.564396 
L 43.410031 116.583155 
L 44.340031 116.474882 
L 45.270031 116.361176 
L 46.200031 116.119621 
L 47.130031 115.873675 
L 48.060031 115.360176 
L 48.990031 115.135347 
L 49.920031 115.018452 
L 50.850031 114.489304 
L 51.780031 114.376148 
L 52.710031 114.214352 
L 53.640031 113.790189 
L 54.570031 113.435716 
L 55.500031 113.175475 
L 56.430031 112.901137 
L 57.360031 112.829702 
L 58.290031 112.661438 
L 59.220031 112.773952 
L 60.150031 112.527054 
L 61.080031 112.424169 
L 62.010031 112.155304 
L 62.940031 111.851236 
L 63.870031 111.674142 
" style="fill:none;stroke:#fc8d62;stroke-dasharray:1.5,1.5;stroke-dashoffset:0;stroke-opacity:0.7;stroke-width:1.5;"/>
   </g>
   <g id="patch_8">
    <path d="M 9 128.16 
L 9 77.76 
" style="fill:none;stroke:#a9a9a9;stroke-linecap:square;stroke-linejoin:miter;stroke-width:2;"/>
   </g>
   <g id="patch_9">
    <path d="M 64.8 128.16 
L 64.8 77.76 
" style="fill:none;"/>
   </g>
   <g id="patch_10">
    <path d="M 9 128.16 
L 64.8 128.16 
" style="fill:none;stroke:#a9a9a9;stroke-linecap:square;stroke-linejoin:miter;stroke-width:2;"/>
   </g>
   <g id="patch_11">
    <path d="M 9 77.76 
L 64.8 77.76 
" style="fill:none;"/>
   </g>
  </g>
 </g>
 <defs>
  <clipPath id="p590aae3ded">
   <rect height="50.4" width="55.8" x="9" y="17.28"/>
  </clipPath>
  <clipPath id="p89c4e08593">
   <rect height="50.4" width="55.8" x="9" y="77.76"/>
  </clipPath>
 </defs>
</svg>
