<?xml version="1.0" encoding="utf-8" standalone="no"?>
<!DOCTYPE svg PUBLIC "-//W3C//DTD SVG 1.1//EN"
  "http://www.w3.org/Graphics/SVG/1.1/DTD/svg11.dtd">
<!-- Created with matplotlib (https://matplotlib.org/) -->
<svg height="216pt" version="1.1" viewBox="0 0 72 216" width="72pt" xmlns="http://www.w3.org/2000/svg" xmlns:xlink="http://www.w3.org/1999/xlink">
 <metadata>
  <rdf:RDF xmlns:cc="http://creativecommons.org/ns#" xmlns:dc="http://purl.org/dc/elements/1.1/" xmlns:rdf="http://www.w3.org/1999/02/22-rdf-syntax-ns#">
   <cc:Work>
    <dc:type rdf:resource="http://purl.org/dc/dcmitype/StillImage"/>
    <dc:date>2021-10-13T00:18:33.432992</dc:date>
    <dc:format>image/svg+xml</dc:format>
    <dc:creator>
     <cc:Agent>
      <dc:title>Matplotlib v3.3.2, https://matplotlib.org/</dc:title>
     </cc:Agent>
    </dc:creator>
   </cc:Work>
  </rdf:RDF>
 </metadata>
 <defs>
  <style type="text/css">*{stroke-linecap:butt;stroke-linejoin:round;}</style>
 </defs>
 <g id="figure_1">
  <g id="patch_1">
   <path d="M 0 216 
L 72 216 
L 72 0 
L 0 0 
z
" style="fill:none;"/>
  </g>
  <g id="axes_1">
   <g id="patch_2">
    <path d="M 9 74.837647 
L 64.8 74.837647 
L 64.8 25.92 
L 9 25.92 
z
" style="fill:none;"/>
   </g>
   <g id="matplotlib.axis_1">
    <g id="xtick_1">
     <g id="line2d_1">
      <defs>
       <path d="M 0 0 
L 0 3.5 
" id="md1d36330ac" style="stroke:#a9a9a9;stroke-width:2;"/>
      </defs>
      <g>
       <use style="fill:#a9a9a9;stroke:#a9a9a9;stroke-width:2;" x="9" xlink:href="#md1d36330ac" y="74.837647"/>
      </g>
     </g>
    </g>
    <g id="xtick_2">
     <g id="line2d_2">
      <g>
       <use style="fill:#a9a9a9;stroke:#a9a9a9;stroke-width:2;" x="36.9" xlink:href="#md1d36330ac" y="74.837647"/>
      </g>
     </g>
    </g>
    <g id="xtick_3">
     <g id="line2d_3">
      <g>
       <use style="fill:#a9a9a9;stroke:#a9a9a9;stroke-width:2;" x="64.8" xlink:href="#md1d36330ac" y="74.837647"/>
      </g>
     </g>
    </g>
   </g>
   <g id="matplotlib.axis_2">
    <g id="ytick_1">
     <g id="line2d_4">
      <defs>
       <path d="M 0 0 
L -3.5 0 
" id="m90ed28eb84" style="stroke:#a9a9a9;stroke-width:2;"/>
      </defs>
      <g>
       <use style="fill:#a9a9a9;stroke:#a9a9a9;stroke-width:2;" x="9" xlink:href="#m90ed28eb84" y="74.837647"/>
      </g>
     </g>
    </g>
    <g id="ytick_2">
     <g id="line2d_5">
      <g>
       <use style="fill:#a9a9a9;stroke:#a9a9a9;stroke-width:2;" x="9" xlink:href="#m90ed28eb84" y="67.562897"/>
      </g>
     </g>
    </g>
    <g id="ytick_3">
     <g id="line2d_6">
      <g>
       <use style="fill:#a9a9a9;stroke:#a9a9a9;stroke-width:2;" x="9" xlink:href="#m90ed28eb84" y="60.288146"/>
      </g>
     </g>
    </g>
   </g>
   <g id="line2d_7">
    <path clip-path="url(#pa9a1c87e7f)" d="M 10.86031 66.632036 
L 11.79031 65.245026 
L 12.72031 63.831689 
L 13.65031 62.374372 
L 14.58031 60.648762 
L 15.51031 59.896422 
L 16.44031 59.119228 
L 17.37031 57.663533 
L 18.30031 56.52608 
L 19.23031 55.567427 
L 20.16031 54.39345 
L 21.09031 53.495421 
L 22.02031 53.181141 
L 22.95031 52.652477 
L 23.88031 51.792715 
L 24.81031 51.070222 
L 25.74031 50.946505 
L 26.67031 50.405816 
L 27.60031 50.140316 
L 28.53031 49.961435 
L 29.46031 49.318894 
L 30.39031 48.709089 
L 31.32031 48.341475 
L 32.25031 47.560898 
L 33.18031 46.748024 
L 34.11031 46.084806 
L 35.04031 45.643708 
L 35.97031 44.854227 
L 36.90031 44.263967 
L 37.83031 43.096592 
L 38.76031 41.993184 
L 39.69031 41.324008 
L 40.62031 40.213187 
L 41.55031 39.383584 
L 42.48031 38.80764 
L 43.41031 38.183271 
L 44.34031 37.760733 
L 45.27031 36.984758 
L 46.20031 36.553468 
L 47.13031 35.975833 
L 48.06031 35.123152 
L 48.99031 34.158651 
L 49.92031 34.461855 
L 50.85031 33.604481 
L 51.78031 32.519152 
L 52.71031 32.177473 
L 53.64031 31.454669 
L 54.57031 30.822068 
L 55.50031 30.28977 
L 56.43031 29.752987 
L 57.36031 29.85036 
L 58.29031 29.037226 
L 59.22031 28.084248 
L 60.15031 27.845669 
L 61.08031 27.043917 
L 62.01031 26.944484 
L 62.94031 26.562967 
L 63.87031 26.283738 
" style="fill:none;stroke:#fc8d62;stroke-linecap:square;stroke-width:2;"/>
   </g>
   <g id="line2d_8">
    <path clip-path="url(#pa9a1c87e7f)" d="M 10.86031 66.777268 
L 11.79031 64.870434 
L 12.72031 63.339138 
L 13.65031 62.18623 
L 14.58031 60.91537 
L 15.51031 59.84786 
L 16.44031 58.863658 
L 17.37031 57.602382 
L 18.30031 56.066988 
L 19.23031 54.771585 
L 20.16031 53.389965 
L 21.09031 52.87849 
L 22.02031 51.831481 
L 22.95031 50.982582 
L 23.88031 50.186323 
L 24.81031 49.85668 
L 25.74031 49.417069 
L 26.67031 49.687186 
L 27.60031 48.971188 
L 28.53031 48.431897 
L 29.46031 47.986226 
L 30.39031 47.757006 
L 31.32031 47.694767 
L 32.25031 46.335346 
L 33.18031 45.841552 
L 34.11031 44.703103 
L 35.04031 43.972851 
L 35.97031 43.208884 
L 36.90031 42.863693 
L 37.83031 42.269225 
L 38.76031 41.444843 
L 39.69031 40.948235 
L 40.62031 39.53746 
L 41.55031 38.92259 
L 42.48031 38.865089 
L 43.41031 38.10581 
L 44.34031 37.216681 
L 45.27031 36.606187 
L 46.20031 36.529999 
L 47.13031 35.346829 
L 48.06031 35.089071 
L 48.99031 34.828447 
L 49.92031 34.582893 
L 50.85031 33.646888 
L 51.78031 33.03534 
L 52.71031 32.867183 
L 53.64031 32.773154 
L 54.57031 32.127868 
L 55.50031 31.90165 
L 56.43031 31.768671 
L 57.36031 31.332731 
L 58.29031 30.6928 
L 59.22031 30.034987 
L 60.15031 29.871049 
L 61.08031 28.889001 
L 62.01031 28.055806 
L 62.94031 27.496443 
L 63.87031 26.466123 
" style="fill:none;stroke:#fc8d62;stroke-dasharray:1.5,1.5;stroke-dashoffset:0;stroke-opacity:0.7;stroke-width:1.5;"/>
   </g>
   <g id="patch_3">
    <path d="M 9 74.837647 
L 9 25.92 
" style="fill:none;stroke:#a9a9a9;stroke-linecap:square;stroke-linejoin:miter;stroke-width:2;"/>
   </g>
   <g id="patch_4">
    <path d="M 64.8 74.837647 
L 64.8 25.92 
" style="fill:none;"/>
   </g>
   <g id="patch_5">
    <path d="M 9 74.837647 
L 64.8 74.837647 
" style="fill:none;stroke:#a9a9a9;stroke-linecap:square;stroke-linejoin:miter;stroke-width:2;"/>
   </g>
   <g id="patch_6">
    <path d="M 9 25.92 
L 64.8 25.92 
" style="fill:none;"/>
   </g>
  </g>
  <g id="axes_2">
   <g id="patch_7">
    <path d="M 9 133.538824 
L 64.8 133.538824 
L 64.8 84.621176 
L 9 84.621176 
z
" style="fill:none;"/>
   </g>
   <g id="matplotlib.axis_3">
    <g id="xtick_4">
     <g id="line2d_9">
      <g>
       <use style="fill:#a9a9a9;stroke:#a9a9a9;stroke-width:2;" x="9" xlink:href="#md1d36330ac" y="133.538824"/>
      </g>
     </g>
    </g>
    <g id="xtick_5">
     <g id="line2d_10">
      <g>
       <use style="fill:#a9a9a9;stroke:#a9a9a9;stroke-width:2;" x="36.9" xlink:href="#md1d36330ac" y="133.538824"/>
      </g>
     </g>
    </g>
    <g id="xtick_6">
     <g id="line2d_11">
      <g>
       <use style="fill:#a9a9a9;stroke:#a9a9a9;stroke-width:2;" x="64.8" xlink:href="#md1d36330ac" y="133.538824"/>
      </g>
     </g>
    </g>
   </g>
   <g id="matplotlib.axis_4">
    <g id="ytick_4">
     <g id="line2d_12">
      <g>
       <use style="fill:#a9a9a9;stroke:#a9a9a9;stroke-width:2;" x="9" xlink:href="#m90ed28eb84" y="133.538824"/>
      </g>
     </g>
    </g>
    <g id="ytick_5">
     <g id="line2d_13">
      <g>
       <use style="fill:#a9a9a9;stroke:#a9a9a9;stroke-width:2;" x="9" xlink:href="#m90ed28eb84" y="109.08"/>
      </g>
     </g>
    </g>
    <g id="ytick_6">
     <g id="line2d_14">
      <g>
       <use style="fill:#a9a9a9;stroke:#a9a9a9;stroke-width:2;" x="9" xlink:href="#m90ed28eb84" y="84.621176"/>
      </g>
     </g>
    </g>
   </g>
   <g id="line2d_15">
    <path clip-path="url(#p6a35f3db1a)" d="M 10.86031 100.524354 
L 11.79031 98.710912 
L 12.72031 97.195031 
L 13.65031 96.46467 
L 14.58031 95.64353 
L 15.51031 95.22519 
L 16.44031 95.111655 
L 17.37031 94.803193 
L 18.30031 94.639633 
L 19.23031 94.520189 
L 20.16031 94.440877 
L 21.09031 94.35923 
L 22.02031 94.249527 
L 22.95031 94.146841 
L 23.88031 94.094058 
L 24.81031 93.981508 
L 25.74031 93.94922 
L 26.67031 93.941721 
L 27.60031 93.906867 
L 28.53031 93.828554 
L 29.46031 93.798879 
L 30.39031 93.747709 
L 31.32031 93.68876 
L 32.25031 93.68067 
L 33.18031 93.627829 
L 34.11031 93.608769 
L 35.04031 93.597691 
L 35.97031 93.580677 
L 36.90031 93.55661 
L 37.83031 93.538287 
L 38.76031 93.511631 
L 39.69031 93.473777 
L 40.62031 93.448133 
L 41.55031 93.450475 
L 42.48031 93.429948 
L 43.41031 93.421502 
L 44.34031 93.414696 
L 45.27031 93.418556 
L 46.20031 93.419833 
L 47.13031 93.410656 
L 48.06031 93.397934 
L 48.99031 93.38201 
L 49.92031 93.398982 
L 50.85031 93.367734 
L 51.78031 93.34176 
L 52.71031 93.339783 
L 53.64031 93.329696 
L 54.57031 93.320788 
L 55.50031 93.319382 
L 56.43031 93.312181 
L 57.36031 93.304309 
L 58.29031 93.301492 
L 59.22031 93.292393 
L 60.15031 93.285742 
L 61.08031 93.274551 
L 62.01031 93.266802 
L 62.94031 93.264122 
L 63.87031 93.240081 
" style="fill:none;stroke:#fc8d62;stroke-linecap:square;stroke-width:2;"/>
   </g>
   <g id="line2d_16">
    <path clip-path="url(#p6a35f3db1a)" d="M 10.86031 104.946381 
L 11.79031 102.557245 
L 12.72031 101.51187 
L 13.65031 100.782616 
L 14.58031 100.316349 
L 15.51031 100.18805 
L 16.44031 99.891396 
L 17.37031 99.723938 
L 18.30031 99.478265 
L 19.23031 99.325463 
L 20.16031 99.195993 
L 21.09031 99.041577 
L 22.02031 98.93183 
L 22.95031 98.87134 
L 23.88031 98.813171 
L 24.81031 98.79621 
L 25.74031 98.756056 
L 26.67031 98.751256 
L 27.60031 98.658437 
L 28.53031 98.626508 
L 29.46031 98.583675 
L 30.39031 98.59517 
L 31.32031 98.577404 
L 32.25031 98.485105 
L 33.18031 98.426489 
L 34.11031 98.377955 
L 35.04031 98.331981 
L 35.97031 98.344867 
L 36.90031 98.33627 
L 37.83031 98.278798 
L 38.76031 98.274365 
L 39.69031 98.311696 
L 40.62031 98.298193 
L 41.55031 98.287789 
L 42.48031 98.269015 
L 43.41031 98.295015 
L 44.34031 98.292359 
L 45.27031 98.254287 
L 46.20031 98.271126 
L 47.13031 98.258624 
L 48.06031 98.233426 
L 48.99031 98.233384 
L 49.92031 98.2205 
L 50.85031 98.190275 
L 51.78031 98.16343 
L 52.71031 98.162158 
L 53.64031 98.174645 
L 54.57031 98.159646 
L 55.50031 98.174946 
L 56.43031 98.153337 
L 57.36031 98.148582 
L 58.29031 98.13507 
L 59.22031 98.125642 
L 60.15031 98.13467 
L 61.08031 98.101693 
L 62.01031 98.101379 
L 62.94031 98.096896 
L 63.87031 98.094145 
" style="fill:none;stroke:#fc8d62;stroke-dasharray:1.5,1.5;stroke-dashoffset:0;stroke-opacity:0.7;stroke-width:1.5;"/>
   </g>
   <g id="patch_8">
    <path d="M 9 133.538824 
L 9 84.621176 
" style="fill:none;stroke:#a9a9a9;stroke-linecap:square;stroke-linejoin:miter;stroke-width:2;"/>
   </g>
   <g id="patch_9">
    <path d="M 64.8 133.538824 
L 64.8 84.621176 
" style="fill:none;"/>
   </g>
   <g id="patch_10">
    <path d="M 9 133.538824 
L 64.8 133.538824 
" style="fill:none;stroke:#a9a9a9;stroke-linecap:square;stroke-linejoin:miter;stroke-width:2;"/>
   </g>
   <g id="patch_11">
    <path d="M 9 84.621176 
L 64.8 84.621176 
" style="fill:none;"/>
   </g>
  </g>
  <g id="axes_3">
   <g id="patch_12">
    <path d="M 9 192.24 
L 64.8 192.24 
L 64.8 143.322353 
L 9 143.322353 
z
" style="fill:none;"/>
   </g>
   <g id="matplotlib.axis_5">
    <g id="xtick_7">
     <g id="line2d_17">
      <g>
       <use style="fill:#a9a9a9;stroke:#a9a9a9;stroke-width:2;" x="9" xlink:href="#md1d36330ac" y="149.765102"/>
      </g>
     </g>
    </g>
    <g id="xtick_8">
     <g id="line2d_18">
      <g>
       <use style="fill:#a9a9a9;stroke:#a9a9a9;stroke-width:2;" x="36.9" xlink:href="#md1d36330ac" y="149.765102"/>
      </g>
     </g>
    </g>
    <g id="xtick_9">
     <g id="line2d_19">
      <g>
       <use style="fill:#a9a9a9;stroke:#a9a9a9;stroke-width:2;" x="64.8" xlink:href="#md1d36330ac" y="149.765102"/>
      </g>
     </g>
    </g>
   </g>
   <g id="matplotlib.axis_6">
    <g id="ytick_7">
     <g id="line2d_20">
      <g>
       <use style="fill:#a9a9a9;stroke:#a9a9a9;stroke-width:2;" x="9" xlink:href="#m90ed28eb84" y="149.765102"/>
      </g>
     </g>
    </g>
    <g id="ytick_8">
     <g id="line2d_21">
      <g>
       <use style="fill:#a9a9a9;stroke:#a9a9a9;stroke-width:2;" x="9" xlink:href="#m90ed28eb84" y="178.081701"/>
      </g>
     </g>
    </g>
   </g>
   <g id="line2d_22">
    <path clip-path="url(#p8a7731f9a5)" d="M 10.86031 146.7907 
L 11.79031 144.407878 
L 12.72031 143.322353 
L 13.65031 144.738476 
L 14.58031 145.974104 
L 15.51031 146.645329 
L 16.44031 145.867711 
L 17.37031 146.02122 
L 18.30031 144.746753 
L 19.23031 144.042516 
L 20.16031 145.418084 
L 21.09031 145.755643 
L 22.02031 145.005614 
L 22.95031 144.346284 
L 23.88031 144.235281 
L 24.81031 143.914505 
L 25.74031 144.171467 
L 26.67031 143.997907 
L 27.60031 143.415391 
L 28.53031 143.582391 
L 29.46031 143.897158 
L 30.39031 143.765717 
L 31.32031 143.89184 
L 32.25031 143.95728 
L 33.18031 144.032021 
L 34.11031 143.976348 
L 35.04031 143.96882 
L 35.97031 143.698061 
L 36.90031 143.637519 
L 37.83031 143.716161 
L 38.76031 143.667392 
L 39.69031 143.767159 
L 40.62031 143.917765 
L 41.55031 143.801882 
L 42.48031 143.72556 
L 43.41031 143.450708 
L 44.34031 143.571936 
L 45.27031 143.725067 
L 46.20031 143.792144 
L 47.13031 143.659033 
L 48.06031 143.77233 
L 48.99031 143.79683 
L 49.92031 143.90418 
L 50.85031 143.945248 
L 51.78031 143.795027 
L 52.71031 143.940805 
L 53.64031 144.001008 
L 54.57031 143.912967 
L 55.50031 144.276306 
L 56.43031 144.302987 
L 57.36031 144.250815 
L 58.29031 144.152473 
L 59.22031 144.339384 
L 60.15031 144.291718 
L 61.08031 144.199024 
L 62.01031 144.208277 
L 62.94031 144.174222 
L 63.87031 144.072264 
" style="fill:none;stroke:#fc8d62;stroke-linecap:square;stroke-width:2;"/>
   </g>
   <g id="line2d_23">
    <path clip-path="url(#p8a7731f9a5)" d="M 10.86031 149.844134 
L 11.79031 149.87175 
L 12.72031 149.752579 
L 13.65031 149.748312 
L 14.58031 149.764871 
L 15.51031 149.76489 
L 16.44031 149.704176 
L 17.37031 149.682779 
L 18.30031 149.740727 
L 19.23031 149.72238 
L 20.16031 149.721177 
L 21.09031 149.680897 
L 22.02031 149.673163 
L 22.95031 149.749255 
L 23.88031 149.751959 
L 24.81031 149.748619 
L 25.74031 149.74747 
L 26.67031 149.755622 
L 27.60031 149.760418 
L 28.53031 149.764741 
L 29.46031 149.765102 
L 30.39031 149.764887 
L 31.32031 149.765166 
L 32.25031 149.76508 
L 33.18031 149.764861 
L 34.11031 149.764044 
L 35.04031 149.765307 
L 35.97031 149.764366 
L 36.90031 149.765084 
L 37.83031 149.765104 
L 38.76031 149.765111 
L 39.69031 149.764765 
L 40.62031 149.764954 
L 41.55031 149.764986 
L 42.48031 149.764842 
L 43.41031 149.764967 
L 44.34031 149.765089 
L 45.27031 149.765064 
L 46.20031 149.764907 
L 47.13031 149.764972 
L 48.06031 149.764819 
L 48.99031 149.764811 
L 49.92031 149.764597 
L 50.85031 149.765096 
L 51.78031 149.764599 
L 52.71031 149.764754 
L 53.64031 149.765121 
L 54.57031 149.764693 
L 55.50031 149.763612 
L 56.43031 149.765111 
L 57.36031 149.765102 
L 58.29031 149.764603 
L 59.22031 149.763889 
L 60.15031 149.765126 
L 61.08031 149.764011 
L 62.01031 149.764786 
L 62.94031 149.765105 
L 63.87031 149.763748 
" style="fill:none;stroke:#fc8d62;stroke-dasharray:1.5,1.5;stroke-dashoffset:0;stroke-opacity:0.7;stroke-width:1.5;"/>
   </g>
   <g id="line2d_24">
    <path clip-path="url(#p8a7731f9a5)" d="M 9 178.081701 
L 64.8 178.081701 
" style="fill:none;stroke:#66c2a5;stroke-dasharray:1.5,1.5;stroke-dashoffset:0;stroke-opacity:0.7;stroke-width:1.5;"/>
   </g>
   <g id="patch_13">
    <path d="M 9 192.24 
L 9 143.322353 
" style="fill:none;stroke:#a9a9a9;stroke-linecap:square;stroke-linejoin:miter;stroke-width:2;"/>
   </g>
   <g id="patch_14">
    <path d="M 64.8 192.24 
L 64.8 143.322353 
" style="fill:none;"/>
   </g>
   <g id="patch_15">
    <path d="M 9 149.765102 
L 64.8 149.765102 
" style="fill:none;stroke:#a9a9a9;stroke-linecap:square;stroke-linejoin:miter;stroke-width:2;"/>
   </g>
   <g id="patch_16">
    <path d="M 9 143.322353 
L 64.8 143.322353 
" style="fill:none;"/>
   </g>
  </g>
 </g>
 <defs>
  <clipPath id="pa9a1c87e7f">
   <rect height="48.917647" width="55.8" x="9" y="25.92"/>
  </clipPath>
  <clipPath id="p6a35f3db1a">
   <rect height="48.917647" width="55.8" x="9" y="84.621176"/>
  </clipPath>
  <clipPath id="p8a7731f9a5">
   <rect height="48.917647" width="55.8" x="9" y="143.322353"/>
  </clipPath>
 </defs>
</svg>
