<?xml version="1.0" encoding="utf-8" standalone="no"?>
<!DOCTYPE svg PUBLIC "-//W3C//DTD SVG 1.1//EN"
  "http://www.w3.org/Graphics/SVG/1.1/DTD/svg11.dtd">
<!-- Created with matplotlib (https://matplotlib.org/) -->
<svg height="144pt" version="1.1" viewBox="0 0 72 144" width="72pt" xmlns="http://www.w3.org/2000/svg" xmlns:xlink="http://www.w3.org/1999/xlink">
 <metadata>
  <rdf:RDF xmlns:cc="http://creativecommons.org/ns#" xmlns:dc="http://purl.org/dc/elements/1.1/" xmlns:rdf="http://www.w3.org/1999/02/22-rdf-syntax-ns#">
   <cc:Work>
    <dc:type rdf:resource="http://purl.org/dc/dcmitype/StillImage"/>
    <dc:date>2021-10-14T21:15:18.379877</dc:date>
    <dc:format>image/svg+xml</dc:format>
    <dc:creator>
     <cc:Agent>
      <dc:title>Matplotlib v3.3.2, https://matplotlib.org/</dc:title>
     </cc:Agent>
    </dc:creator>
   </cc:Work>
  </rdf:RDF>
 </metadata>
 <defs>
  <style type="text/css">*{stroke-linecap:butt;stroke-linejoin:round;}</style>
 </defs>
 <g id="figure_1">
  <g id="patch_1">
   <path d="M 0 144 
L 72 144 
L 72 0 
L 0 0 
z
" style="fill:none;"/>
  </g>
  <g id="axes_1">
   <g id="patch_2">
    <path d="M 9 67.68 
L 64.8 67.68 
L 64.8 17.28 
L 9 17.28 
z
" style="fill:none;"/>
   </g>
   <g id="matplotlib.axis_1">
    <g id="xtick_1">
     <g id="line2d_1">
      <defs>
       <path d="M 0 0 
L 0 3.5 
" id="m54dd9ab7d0" style="stroke:#a9a9a9;stroke-width:2;"/>
      </defs>
      <g>
       <use style="fill:#a9a9a9;stroke:#a9a9a9;stroke-width:2;" x="9" xlink:href="#m54dd9ab7d0" y="67.68"/>
      </g>
     </g>
    </g>
    <g id="xtick_2">
     <g id="line2d_2">
      <g>
       <use style="fill:#a9a9a9;stroke:#a9a9a9;stroke-width:2;" x="36.9" xlink:href="#m54dd9ab7d0" y="67.68"/>
      </g>
     </g>
    </g>
    <g id="xtick_3">
     <g id="line2d_3">
      <g>
       <use style="fill:#a9a9a9;stroke:#a9a9a9;stroke-width:2;" x="64.8" xlink:href="#m54dd9ab7d0" y="67.68"/>
      </g>
     </g>
    </g>
   </g>
   <g id="matplotlib.axis_2">
    <g id="ytick_1">
     <g id="line2d_4">
      <defs>
       <path d="M 0 0 
L -3.5 0 
" id="mc47dc87f2c" style="stroke:#a9a9a9;stroke-width:2;"/>
      </defs>
      <g>
       <use style="fill:#a9a9a9;stroke:#a9a9a9;stroke-width:2;" x="9" xlink:href="#mc47dc87f2c" y="67.68"/>
      </g>
     </g>
    </g>
    <g id="ytick_2">
     <g id="line2d_5">
      <g>
       <use style="fill:#a9a9a9;stroke:#a9a9a9;stroke-width:2;" x="9" xlink:href="#mc47dc87f2c" y="62.962637"/>
      </g>
     </g>
    </g>
    <g id="ytick_3">
     <g id="line2d_6">
      <g>
       <use style="fill:#a9a9a9;stroke:#a9a9a9;stroke-width:2;" x="9" xlink:href="#mc47dc87f2c" y="58.245274"/>
      </g>
     </g>
    </g>
   </g>
   <g id="line2d_7">
    <path clip-path="url(#pc8f6df8d81)" d="M 10.860031 60.542258 
L 11.790031 58.75049 
L 12.720031 57.044947 
L 13.650031 55.40721 
L 14.580031 53.30551 
L 15.510031 52.572891 
L 16.440031 52.438453 
L 17.370031 51.897954 
L 18.300031 51.12537 
L 19.230031 49.095973 
L 20.160031 48.291721 
L 21.090031 48.069521 
L 22.020031 47.302898 
L 22.950031 46.454229 
L 23.880031 45.828718 
L 24.810031 45.034344 
L 25.740031 44.040364 
L 26.670031 42.758697 
L 27.600031 41.114372 
L 28.530031 40.069729 
L 29.460031 39.615164 
L 30.390031 39.019442 
L 31.320031 38.731069 
L 32.250031 38.347801 
L 33.180031 37.57027 
L 34.110031 36.875357 
L 35.040031 36.415781 
L 35.970031 35.216023 
L 36.900031 33.949643 
L 37.830031 33.812026 
L 38.760031 33.409578 
L 39.690031 32.726249 
L 40.620031 31.983807 
L 41.550031 31.405459 
L 42.480031 31.120495 
L 43.410031 30.773976 
L 44.340031 30.832883 
L 45.270031 30.774446 
L 46.200031 30.033407 
L 47.130031 29.204058 
L 48.060031 28.86319 
L 48.990031 28.589953 
L 49.920031 27.50418 
L 50.850031 26.076971 
L 51.780031 25.008573 
L 52.710031 24.200386 
L 53.640031 24.136808 
L 54.570031 22.882319 
L 55.500031 21.903272 
L 56.430031 21.485188 
L 57.360031 20.871439 
L 58.290031 21.382228 
L 59.220031 21.148024 
L 60.150031 20.810247 
L 61.080031 19.858806 
L 62.010031 18.682599 
L 62.940031 18.704706 
L 63.870031 17.515868 
" style="fill:none;stroke:#fc8d62;stroke-linecap:square;stroke-width:2;"/>
   </g>
   <g id="line2d_8">
    <path clip-path="url(#pc8f6df8d81)" d="M 10.860031 60.261095 
L 11.790031 58.335907 
L 12.720031 56.799144 
L 13.650031 55.595212 
L 14.580031 54.391807 
L 15.510031 54.377852 
L 16.440031 52.524875 
L 17.370031 51.869285 
L 18.300031 51.248299 
L 19.230031 50.190198 
L 20.160031 48.976867 
L 21.090031 47.176064 
L 22.020031 45.643826 
L 22.950031 44.683949 
L 23.880031 44.493941 
L 24.810031 43.962888 
L 25.740031 42.833068 
L 26.670031 41.415665 
L 27.600031 39.820695 
L 28.530031 38.971071 
L 29.460031 38.021103 
L 30.390031 38.186693 
L 31.320031 37.85597 
L 32.250031 37.673311 
L 33.180031 36.376775 
L 34.110031 36.093181 
L 35.040031 36.612965 
L 35.970031 35.836718 
L 36.900031 35.833681 
L 37.830031 35.013338 
L 38.760031 34.558055 
L 39.690031 34.341659 
L 40.620031 35.247611 
L 41.550031 34.623336 
L 42.480031 34.842499 
L 43.410031 34.677234 
L 44.340031 33.937632 
L 45.270031 32.637351 
L 46.200031 32.09368 
L 47.130031 32.229739 
L 48.060031 31.965574 
L 48.990031 30.741341 
L 49.920031 29.982021 
L 50.850031 29.402399 
L 51.780031 29.19608 
L 52.710031 29.704454 
L 53.640031 29.627545 
L 54.570031 28.621891 
L 55.500031 28.239097 
L 56.430031 27.802953 
L 57.360031 27.022028 
L 58.290031 26.786623 
L 59.220031 26.620676 
L 60.150031 26.285908 
L 61.080031 25.414026 
L 62.010031 25.231822 
L 62.940031 24.725761 
L 63.870031 25.185981 
" style="fill:none;stroke:#fc8d62;stroke-dasharray:1.5,1.5;stroke-dashoffset:0;stroke-opacity:0.7;stroke-width:1.5;"/>
   </g>
   <g id="patch_3">
    <path d="M 9 67.68 
L 9 17.28 
" style="fill:none;stroke:#a9a9a9;stroke-linecap:square;stroke-linejoin:miter;stroke-width:2;"/>
   </g>
   <g id="patch_4">
    <path d="M 64.8 67.68 
L 64.8 17.28 
" style="fill:none;"/>
   </g>
   <g id="patch_5">
    <path d="M 9 67.68 
L 64.8 67.68 
" style="fill:none;stroke:#a9a9a9;stroke-linecap:square;stroke-linejoin:miter;stroke-width:2;"/>
   </g>
   <g id="patch_6">
    <path d="M 9 17.28 
L 64.8 17.28 
" style="fill:none;"/>
   </g>
  </g>
  <g id="axes_2">
   <g id="patch_7">
    <path d="M 9 128.16 
L 64.8 128.16 
L 64.8 77.76 
L 9 77.76 
z
" style="fill:none;"/>
   </g>
   <g id="matplotlib.axis_3">
    <g id="xtick_4">
     <g id="line2d_9">
      <g>
       <use style="fill:#a9a9a9;stroke:#a9a9a9;stroke-width:2;" x="9" xlink:href="#m54dd9ab7d0" y="128.16"/>
      </g>
     </g>
    </g>
    <g id="xtick_5">
     <g id="line2d_10">
      <g>
       <use style="fill:#a9a9a9;stroke:#a9a9a9;stroke-width:2;" x="36.9" xlink:href="#m54dd9ab7d0" y="128.16"/>
      </g>
     </g>
    </g>
    <g id="xtick_6">
     <g id="line2d_11">
      <g>
       <use style="fill:#a9a9a9;stroke:#a9a9a9;stroke-width:2;" x="64.8" xlink:href="#m54dd9ab7d0" y="128.16"/>
      </g>
     </g>
    </g>
   </g>
   <g id="matplotlib.axis_4">
    <g id="ytick_4">
     <g id="line2d_12">
      <g>
       <use style="fill:#a9a9a9;stroke:#a9a9a9;stroke-width:2;" x="9" xlink:href="#mc47dc87f2c" y="128.16"/>
      </g>
     </g>
    </g>
    <g id="ytick_5">
     <g id="line2d_13">
      <g>
       <use style="fill:#a9a9a9;stroke:#a9a9a9;stroke-width:2;" x="9" xlink:href="#mc47dc87f2c" y="102.96"/>
      </g>
     </g>
    </g>
    <g id="ytick_6">
     <g id="line2d_14">
      <g>
       <use style="fill:#a9a9a9;stroke:#a9a9a9;stroke-width:2;" x="9" xlink:href="#mc47dc87f2c" y="77.76"/>
      </g>
     </g>
    </g>
   </g>
   <g id="line2d_15">
    <path clip-path="url(#pcf92f8433c)" d="M 10.860031 91.21476 
L 11.790031 89.784634 
L 12.720031 88.909007 
L 13.650031 88.404828 
L 14.580031 87.987259 
L 15.510031 87.878144 
L 16.440031 87.754908 
L 17.370031 87.734944 
L 18.300031 87.644856 
L 19.230031 87.531875 
L 20.160031 87.49939 
L 21.090031 87.500631 
L 22.020031 87.448637 
L 22.950031 87.421682 
L 23.880031 87.420553 
L 24.810031 87.372177 
L 25.740031 87.343598 
L 26.670031 87.289919 
L 27.600031 87.218695 
L 28.530031 87.200434 
L 29.460031 87.17986 
L 30.390031 87.172073 
L 31.320031 87.179567 
L 32.250031 87.175789 
L 33.180031 87.148208 
L 34.110031 87.100423 
L 35.040031 87.093587 
L 35.970031 87.054876 
L 36.900031 87.0386 
L 37.830031 87.040426 
L 38.760031 87.019532 
L 39.690031 87.010623 
L 40.620031 86.990545 
L 41.550031 86.984288 
L 42.480031 86.988715 
L 43.410031 86.980983 
L 44.340031 86.973667 
L 45.270031 86.973781 
L 46.200031 86.957204 
L 47.130031 86.954782 
L 48.060031 86.946356 
L 48.990031 86.937354 
L 49.920031 86.92614 
L 50.850031 86.904001 
L 51.780031 86.885139 
L 52.710031 86.872369 
L 53.640031 86.861033 
L 54.570031 86.843785 
L 55.500031 86.836616 
L 56.430031 86.828521 
L 57.360031 86.814003 
L 58.290031 86.817538 
L 59.220031 86.805378 
L 60.150031 86.796369 
L 61.080031 86.797441 
L 62.010031 86.779867 
L 62.940031 86.768139 
L 63.870031 86.766715 
" style="fill:none;stroke:#fc8d62;stroke-linecap:square;stroke-width:2;"/>
   </g>
   <g id="line2d_16">
    <path clip-path="url(#pcf92f8433c)" d="M 10.860031 94.049195 
L 11.790031 92.786846 
L 12.720031 92.203696 
L 13.650031 91.778638 
L 14.580031 91.383342 
L 15.510031 91.374717 
L 16.440031 91.158504 
L 17.370031 91.080693 
L 18.300031 91.013049 
L 19.230031 90.987029 
L 20.160031 90.936543 
L 21.090031 90.829566 
L 22.020031 90.82068 
L 22.950031 90.757292 
L 23.880031 90.775324 
L 24.810031 90.74994 
L 25.740031 90.735749 
L 26.670031 90.729127 
L 27.600031 90.692276 
L 28.530031 90.671628 
L 29.460031 90.614155 
L 30.390031 90.602156 
L 31.320031 90.597399 
L 32.250031 90.570019 
L 33.180031 90.531737 
L 34.110031 90.510407 
L 35.040031 90.503301 
L 35.970031 90.484018 
L 36.900031 90.44969 
L 37.830031 90.436402 
L 38.760031 90.423806 
L 39.690031 90.411037 
L 40.620031 90.405946 
L 41.550031 90.403193 
L 42.480031 90.388407 
L 43.410031 90.398037 
L 44.340031 90.39095 
L 45.270031 90.384467 
L 46.200031 90.387779 
L 47.130031 90.387067 
L 48.060031 90.39747 
L 48.990031 90.401952 
L 49.920031 90.392616 
L 50.850031 90.391843 
L 51.780031 90.397185 
L 52.710031 90.404892 
L 53.640031 90.402177 
L 54.570031 90.392391 
L 55.500031 90.389406 
L 56.430031 90.373402 
L 57.360031 90.364801 
L 58.290031 90.348354 
L 59.220031 90.341069 
L 60.150031 90.326875 
L 61.080031 90.32176 
L 62.010031 90.307714 
L 62.940031 90.308655 
L 63.870031 90.316413 
" style="fill:none;stroke:#fc8d62;stroke-dasharray:1.5,1.5;stroke-dashoffset:0;stroke-opacity:0.7;stroke-width:1.5;"/>
   </g>
   <g id="patch_8">
    <path d="M 9 128.16 
L 9 77.76 
" style="fill:none;stroke:#a9a9a9;stroke-linecap:square;stroke-linejoin:miter;stroke-width:2;"/>
   </g>
   <g id="patch_9">
    <path d="M 64.8 128.16 
L 64.8 77.76 
" style="fill:none;"/>
   </g>
   <g id="patch_10">
    <path d="M 9 128.16 
L 64.8 128.16 
" style="fill:none;stroke:#a9a9a9;stroke-linecap:square;stroke-linejoin:miter;stroke-width:2;"/>
   </g>
   <g id="patch_11">
    <path d="M 9 77.76 
L 64.8 77.76 
" style="fill:none;"/>
   </g>
  </g>
 </g>
 <defs>
  <clipPath id="pc8f6df8d81">
   <rect height="50.4" width="55.8" x="9" y="17.28"/>
  </clipPath>
  <clipPath id="pcf92f8433c">
   <rect height="50.4" width="55.8" x="9" y="77.76"/>
  </clipPath>
 </defs>
</svg>
