<?xml version="1.0" encoding="utf-8" standalone="no"?>
<!DOCTYPE svg PUBLIC "-//W3C//DTD SVG 1.1//EN"
  "http://www.w3.org/Graphics/SVG/1.1/DTD/svg11.dtd">
<!-- Created with matplotlib (https://matplotlib.org/) -->
<svg height="144pt" version="1.1" viewBox="0 0 72 144" width="72pt" xmlns="http://www.w3.org/2000/svg" xmlns:xlink="http://www.w3.org/1999/xlink">
 <metadata>
  <rdf:RDF xmlns:cc="http://creativecommons.org/ns#" xmlns:dc="http://purl.org/dc/elements/1.1/" xmlns:rdf="http://www.w3.org/1999/02/22-rdf-syntax-ns#">
   <cc:Work>
    <dc:type rdf:resource="http://purl.org/dc/dcmitype/StillImage"/>
    <dc:date>2021-10-14T21:14:18.720395</dc:date>
    <dc:format>image/svg+xml</dc:format>
    <dc:creator>
     <cc:Agent>
      <dc:title>Matplotlib v3.3.2, https://matplotlib.org/</dc:title>
     </cc:Agent>
    </dc:creator>
   </cc:Work>
  </rdf:RDF>
 </metadata>
 <defs>
  <style type="text/css">*{stroke-linecap:butt;stroke-linejoin:round;}</style>
 </defs>
 <g id="figure_1">
  <g id="patch_1">
   <path d="M 0 144 
L 72 144 
L 72 0 
L 0 0 
z
" style="fill:none;"/>
  </g>
  <g id="axes_1">
   <g id="patch_2">
    <path d="M 9 67.68 
L 64.8 67.68 
L 64.8 17.28 
L 9 17.28 
z
" style="fill:none;"/>
   </g>
   <g id="matplotlib.axis_1">
    <g id="xtick_1">
     <g id="line2d_1">
      <defs>
       <path d="M 0 0 
L 0 3.5 
" id="m548c741a86" style="stroke:#a9a9a9;stroke-width:2;"/>
      </defs>
      <g>
       <use style="fill:#a9a9a9;stroke:#a9a9a9;stroke-width:2;" x="9" xlink:href="#m548c741a86" y="67.68"/>
      </g>
     </g>
    </g>
    <g id="xtick_2">
     <g id="line2d_2">
      <g>
       <use style="fill:#a9a9a9;stroke:#a9a9a9;stroke-width:2;" x="36.9" xlink:href="#m548c741a86" y="67.68"/>
      </g>
     </g>
    </g>
    <g id="xtick_3">
     <g id="line2d_3">
      <g>
       <use style="fill:#a9a9a9;stroke:#a9a9a9;stroke-width:2;" x="64.8" xlink:href="#m548c741a86" y="67.68"/>
      </g>
     </g>
    </g>
   </g>
   <g id="matplotlib.axis_2">
    <g id="ytick_1">
     <g id="line2d_4">
      <defs>
       <path d="M 0 0 
L -3.5 0 
" id="m1adb10d3dd" style="stroke:#a9a9a9;stroke-width:2;"/>
      </defs>
      <g>
       <use style="fill:#a9a9a9;stroke:#a9a9a9;stroke-width:2;" x="9" xlink:href="#m1adb10d3dd" y="67.68"/>
      </g>
     </g>
    </g>
    <g id="ytick_2">
     <g id="line2d_5">
      <g>
       <use style="fill:#a9a9a9;stroke:#a9a9a9;stroke-width:2;" x="9" xlink:href="#m1adb10d3dd" y="59.268345"/>
      </g>
     </g>
    </g>
    <g id="ytick_3">
     <g id="line2d_6">
      <g>
       <use style="fill:#a9a9a9;stroke:#a9a9a9;stroke-width:2;" x="9" xlink:href="#m1adb10d3dd" y="50.856691"/>
      </g>
     </g>
    </g>
   </g>
   <g id="line2d_7">
    <path clip-path="url(#p1e77e3faa4)" d="M 10.860031 57.516246 
L 11.790031 54.957438 
L 12.720031 54.002253 
L 13.650031 52.413392 
L 14.580031 51.037032 
L 15.510031 50.802222 
L 16.440031 49.360209 
L 17.370031 47.945785 
L 18.300031 46.121391 
L 19.230031 45.332096 
L 20.160031 43.416145 
L 21.090031 42.782145 
L 22.020031 41.465233 
L 22.950031 40.524932 
L 23.880031 39.927664 
L 24.810031 38.953285 
L 25.740031 38.553914 
L 26.670031 38.224024 
L 27.600031 37.205969 
L 28.530031 35.8254 
L 29.460031 34.898957 
L 30.390031 33.931925 
L 31.320031 33.980228 
L 32.250031 33.296242 
L 33.180031 32.414967 
L 34.110031 31.972509 
L 35.040031 30.283787 
L 35.970031 29.403315 
L 36.900031 29.252764 
L 37.830031 29.148268 
L 38.760031 29.15035 
L 39.690031 28.399544 
L 40.620031 28.216432 
L 41.550031 26.998163 
L 42.480031 26.583691 
L 43.410031 26.430863 
L 44.340031 26.023217 
L 45.270031 25.747978 
L 46.200031 25.76041 
L 47.130031 25.127951 
L 48.060031 24.671903 
L 48.990031 24.523946 
L 49.920031 24.650461 
L 50.850031 23.940991 
L 51.780031 23.7771 
L 52.710031 23.491355 
L 53.640031 22.88199 
L 54.570031 22.716175 
L 55.500031 22.038219 
L 56.430031 22.008912 
L 57.360031 21.19174 
L 58.290031 20.676074 
L 59.220031 20.048895 
L 60.150031 19.616903 
L 61.080031 19.003509 
L 62.010031 18.650832 
L 62.940031 18.165795 
L 63.870031 17.700583 
" style="fill:none;stroke:#fc8d62;stroke-linecap:square;stroke-width:2;"/>
   </g>
   <g id="line2d_8">
    <path clip-path="url(#p1e77e3faa4)" d="M 10.860031 57.656731 
L 11.790031 55.035661 
L 12.720031 53.948066 
L 13.650031 52.961365 
L 14.580031 50.445264 
L 15.510031 48.709838 
L 16.440031 46.747348 
L 17.370031 45.95439 
L 18.300031 45.358432 
L 19.230031 44.805561 
L 20.160031 43.456194 
L 21.090031 42.122394 
L 22.020031 41.808845 
L 22.950031 40.652507 
L 23.880031 40.479389 
L 24.810031 39.423352 
L 25.740031 39.553004 
L 26.670031 39.165512 
L 27.600031 38.272307 
L 28.530031 37.152086 
L 29.460031 36.388166 
L 30.390031 36.048616 
L 31.320031 35.373649 
L 32.250031 33.894888 
L 33.180031 32.816662 
L 34.110031 32.043095 
L 35.040031 31.722368 
L 35.970031 30.891621 
L 36.900031 30.913352 
L 37.830031 30.258294 
L 38.760031 29.594726 
L 39.690031 28.447417 
L 40.620031 28.324928 
L 41.550031 28.085857 
L 42.480031 27.481606 
L 43.410031 27.308511 
L 44.340031 26.935155 
L 45.270031 25.651479 
L 46.200031 25.171515 
L 47.130031 25.250763 
L 48.060031 24.78807 
L 48.990031 24.82699 
L 49.920031 23.860638 
L 50.850031 23.743681 
L 51.780031 22.813556 
L 52.710031 22.087078 
L 53.640031 21.437256 
L 54.570031 21.21213 
L 55.500031 21.171433 
L 56.430031 21.207615 
L 57.360031 21.428438 
L 58.290031 21.18982 
L 59.220031 20.427497 
L 60.150031 19.602388 
L 61.080031 19.737722 
L 62.010031 19.160341 
L 62.940031 18.851706 
L 63.870031 18.213972 
" style="fill:none;stroke:#fc8d62;stroke-dasharray:1.5,1.5;stroke-dashoffset:0;stroke-opacity:0.7;stroke-width:1.5;"/>
   </g>
   <g id="patch_3">
    <path d="M 9 67.68 
L 9 17.28 
" style="fill:none;stroke:#a9a9a9;stroke-linecap:square;stroke-linejoin:miter;stroke-width:2;"/>
   </g>
   <g id="patch_4">
    <path d="M 64.8 67.68 
L 64.8 17.28 
" style="fill:none;"/>
   </g>
   <g id="patch_5">
    <path d="M 9 67.68 
L 64.8 67.68 
" style="fill:none;stroke:#a9a9a9;stroke-linecap:square;stroke-linejoin:miter;stroke-width:2;"/>
   </g>
   <g id="patch_6">
    <path d="M 9 17.28 
L 64.8 17.28 
" style="fill:none;"/>
   </g>
  </g>
  <g id="axes_2">
   <g id="patch_7">
    <path d="M 9 128.16 
L 64.8 128.16 
L 64.8 77.76 
L 9 77.76 
z
" style="fill:none;"/>
   </g>
   <g id="matplotlib.axis_3">
    <g id="xtick_4">
     <g id="line2d_9">
      <g>
       <use style="fill:#a9a9a9;stroke:#a9a9a9;stroke-width:2;" x="9" xlink:href="#m548c741a86" y="128.16"/>
      </g>
     </g>
    </g>
    <g id="xtick_5">
     <g id="line2d_10">
      <g>
       <use style="fill:#a9a9a9;stroke:#a9a9a9;stroke-width:2;" x="36.9" xlink:href="#m548c741a86" y="128.16"/>
      </g>
     </g>
    </g>
    <g id="xtick_6">
     <g id="line2d_11">
      <g>
       <use style="fill:#a9a9a9;stroke:#a9a9a9;stroke-width:2;" x="64.8" xlink:href="#m548c741a86" y="128.16"/>
      </g>
     </g>
    </g>
   </g>
   <g id="matplotlib.axis_4">
    <g id="ytick_4">
     <g id="line2d_12">
      <g>
       <use style="fill:#a9a9a9;stroke:#a9a9a9;stroke-width:2;" x="9" xlink:href="#m1adb10d3dd" y="128.16"/>
      </g>
     </g>
    </g>
    <g id="ytick_5">
     <g id="line2d_13">
      <g>
       <use style="fill:#a9a9a9;stroke:#a9a9a9;stroke-width:2;" x="9" xlink:href="#m1adb10d3dd" y="102.96"/>
      </g>
     </g>
    </g>
    <g id="ytick_6">
     <g id="line2d_14">
      <g>
       <use style="fill:#a9a9a9;stroke:#a9a9a9;stroke-width:2;" x="9" xlink:href="#m1adb10d3dd" y="77.76"/>
      </g>
     </g>
    </g>
   </g>
   <g id="line2d_15">
    <path clip-path="url(#p6738ddb2fc)" d="M 10.860031 116.841962 
L 11.790031 115.515103 
L 12.720031 114.777489 
L 13.650031 114.693752 
L 14.580031 114.561594 
L 15.510031 114.547615 
L 16.440031 114.431274 
L 17.370031 114.106227 
L 18.300031 113.929886 
L 19.230031 113.811495 
L 20.160031 113.897124 
L 21.090031 113.94659 
L 22.020031 113.932848 
L 22.950031 113.88806 
L 23.880031 113.85802 
L 24.810031 113.743615 
L 25.740031 113.696136 
L 26.670031 113.543849 
L 27.600031 113.50349 
L 28.530031 113.485477 
L 29.460031 113.546975 
L 30.390031 113.398826 
L 31.320031 113.39457 
L 32.250031 113.411203 
L 33.180031 113.444433 
L 34.110031 113.472263 
L 35.040031 113.485076 
L 35.970031 113.526564 
L 36.900031 113.619195 
L 37.830031 113.660047 
L 38.760031 113.685919 
L 39.690031 113.691611 
L 40.620031 113.75984 
L 41.550031 113.690777 
L 42.480031 113.6623 
L 43.410031 113.70075 
L 44.340031 113.699986 
L 45.270031 113.661322 
L 46.200031 113.656159 
L 47.130031 113.667279 
L 48.060031 113.606043 
L 48.990031 113.569943 
L 49.920031 113.540709 
L 50.850031 113.49139 
L 51.780031 113.472175 
L 52.710031 113.517307 
L 53.640031 113.565057 
L 54.570031 113.556263 
L 55.500031 113.559328 
L 56.430031 113.547567 
L 57.360031 113.565062 
L 58.290031 113.596976 
L 59.220031 113.592594 
L 60.150031 113.594065 
L 61.080031 113.57816 
L 62.010031 113.619633 
L 62.940031 113.669402 
L 63.870031 113.668842 
" style="fill:none;stroke:#fc8d62;stroke-linecap:square;stroke-width:2;"/>
   </g>
   <g id="line2d_16">
    <path clip-path="url(#p6738ddb2fc)" d="M 10.860031 100.548149 
L 11.790031 98.857166 
L 12.720031 96.64571 
L 13.650031 95.466627 
L 14.580031 94.44904 
L 15.510031 94.108019 
L 16.440031 93.783295 
L 17.370031 93.489522 
L 18.300031 93.253798 
L 19.230031 93.077917 
L 20.160031 93.152881 
L 21.090031 92.971409 
L 22.020031 92.945871 
L 22.950031 92.84261 
L 23.880031 92.822418 
L 24.810031 92.720328 
L 25.740031 92.662469 
L 26.670031 92.556595 
L 27.600031 92.589882 
L 28.530031 92.562273 
L 29.460031 92.614943 
L 30.390031 92.540941 
L 31.320031 92.571513 
L 32.250031 92.556941 
L 33.180031 92.503023 
L 34.110031 92.424238 
L 35.040031 92.406371 
L 35.970031 92.370299 
L 36.900031 92.393879 
L 37.830031 92.39286 
L 38.760031 92.343492 
L 39.690031 92.333283 
L 40.620031 92.316479 
L 41.550031 92.335214 
L 42.480031 92.336491 
L 43.410031 92.305608 
L 44.340031 92.296188 
L 45.270031 92.291471 
L 46.200031 92.264598 
L 47.130031 92.26519 
L 48.060031 92.251941 
L 48.990031 92.260429 
L 49.920031 92.234068 
L 50.850031 92.208661 
L 51.780031 92.239836 
L 52.710031 92.254248 
L 53.640031 92.246795 
L 54.570031 92.273884 
L 55.500031 92.271728 
L 56.430031 92.272052 
L 57.360031 92.231343 
L 58.290031 92.225972 
L 59.220031 92.2351 
L 60.150031 92.215597 
L 61.080031 92.227279 
L 62.010031 92.238262 
L 62.940031 92.252629 
L 63.870031 92.263146 
" style="fill:none;stroke:#fc8d62;stroke-dasharray:1.5,1.5;stroke-dashoffset:0;stroke-opacity:0.7;stroke-width:1.5;"/>
   </g>
   <g id="patch_8">
    <path d="M 9 128.16 
L 9 77.76 
" style="fill:none;stroke:#a9a9a9;stroke-linecap:square;stroke-linejoin:miter;stroke-width:2;"/>
   </g>
   <g id="patch_9">
    <path d="M 64.8 128.16 
L 64.8 77.76 
" style="fill:none;"/>
   </g>
   <g id="patch_10">
    <path d="M 9 128.16 
L 64.8 128.16 
" style="fill:none;stroke:#a9a9a9;stroke-linecap:square;stroke-linejoin:miter;stroke-width:2;"/>
   </g>
   <g id="patch_11">
    <path d="M 9 77.76 
L 64.8 77.76 
" style="fill:none;"/>
   </g>
  </g>
 </g>
 <defs>
  <clipPath id="p1e77e3faa4">
   <rect height="50.4" width="55.8" x="9" y="17.28"/>
  </clipPath>
  <clipPath id="p6738ddb2fc">
   <rect height="50.4" width="55.8" x="9" y="77.76"/>
  </clipPath>
 </defs>
</svg>
