<?xml version="1.0" encoding="utf-8" standalone="no"?>
<!DOCTYPE svg PUBLIC "-//W3C//DTD SVG 1.1//EN"
  "http://www.w3.org/Graphics/SVG/1.1/DTD/svg11.dtd">
<!-- Created with matplotlib (https://matplotlib.org/) -->
<svg height="144pt" version="1.1" viewBox="0 0 72 144" width="72pt" xmlns="http://www.w3.org/2000/svg" xmlns:xlink="http://www.w3.org/1999/xlink">
 <metadata>
  <rdf:RDF xmlns:cc="http://creativecommons.org/ns#" xmlns:dc="http://purl.org/dc/elements/1.1/" xmlns:rdf="http://www.w3.org/1999/02/22-rdf-syntax-ns#">
   <cc:Work>
    <dc:type rdf:resource="http://purl.org/dc/dcmitype/StillImage"/>
    <dc:date>2021-10-13T14:21:00.972704</dc:date>
    <dc:format>image/svg+xml</dc:format>
    <dc:creator>
     <cc:Agent>
      <dc:title>Matplotlib v3.3.2, https://matplotlib.org/</dc:title>
     </cc:Agent>
    </dc:creator>
   </cc:Work>
  </rdf:RDF>
 </metadata>
 <defs>
  <style type="text/css">*{stroke-linecap:butt;stroke-linejoin:round;}</style>
 </defs>
 <g id="figure_1">
  <g id="patch_1">
   <path d="M 0 144 
L 72 144 
L 72 0 
L 0 0 
z
" style="fill:none;"/>
  </g>
  <g id="axes_1">
   <g id="patch_2">
    <path d="M 9 67.68 
L 64.8 67.68 
L 64.8 17.28 
L 9 17.28 
z
" style="fill:none;"/>
   </g>
   <g id="matplotlib.axis_1">
    <g id="xtick_1">
     <g id="line2d_1">
      <defs>
       <path d="M 0 0 
L 0 3.5 
" id="m1375553ca5" style="stroke:#a9a9a9;stroke-width:2;"/>
      </defs>
      <g>
       <use style="fill:#a9a9a9;stroke:#a9a9a9;stroke-width:2;" x="9" xlink:href="#m1375553ca5" y="67.68"/>
      </g>
     </g>
    </g>
    <g id="xtick_2">
     <g id="line2d_2">
      <g>
       <use style="fill:#a9a9a9;stroke:#a9a9a9;stroke-width:2;" x="36.9" xlink:href="#m1375553ca5" y="67.68"/>
      </g>
     </g>
    </g>
    <g id="xtick_3">
     <g id="line2d_3">
      <g>
       <use style="fill:#a9a9a9;stroke:#a9a9a9;stroke-width:2;" x="64.8" xlink:href="#m1375553ca5" y="67.68"/>
      </g>
     </g>
    </g>
   </g>
   <g id="matplotlib.axis_2">
    <g id="ytick_1">
     <g id="line2d_4">
      <defs>
       <path d="M 0 0 
L -3.5 0 
" id="ma2003bde2a" style="stroke:#a9a9a9;stroke-width:2;"/>
      </defs>
      <g>
       <use style="fill:#a9a9a9;stroke:#a9a9a9;stroke-width:2;" x="9" xlink:href="#ma2003bde2a" y="67.68"/>
      </g>
     </g>
    </g>
    <g id="ytick_2">
     <g id="line2d_5">
      <g>
       <use style="fill:#a9a9a9;stroke:#a9a9a9;stroke-width:2;" x="9" xlink:href="#ma2003bde2a" y="48.289942"/>
      </g>
     </g>
    </g>
    <g id="ytick_3">
     <g id="line2d_6">
      <g>
       <use style="fill:#a9a9a9;stroke:#a9a9a9;stroke-width:2;" x="9" xlink:href="#ma2003bde2a" y="28.899884"/>
      </g>
     </g>
    </g>
   </g>
   <g id="line2d_7">
    <path clip-path="url(#p0300be9e76)" d="M 10.86031 58.405708 
L 11.79031 55.934235 
L 12.72031 55.020999 
L 13.65031 53.68246 
L 14.58031 52.500547 
L 15.51031 51.041663 
L 16.44031 49.257582 
L 17.37031 48.340097 
L 18.30031 47.962538 
L 19.23031 47.545426 
L 20.16031 46.828058 
L 21.09031 45.068194 
L 22.02031 43.830448 
L 22.95031 42.348894 
L 23.88031 40.950561 
L 24.81031 39.373497 
L 25.74031 39.609015 
L 26.67031 39.463104 
L 27.60031 38.358517 
L 28.53031 38.22848 
L 29.46031 37.582799 
L 30.39031 36.203613 
L 31.32031 35.155658 
L 32.25031 35.230964 
L 33.18031 34.97697 
L 34.11031 34.36508 
L 35.04031 32.84484 
L 35.97031 31.960341 
L 36.90031 31.617178 
L 37.83031 29.840241 
L 38.76031 29.80258 
L 39.69031 28.965843 
L 40.62031 28.881945 
L 41.55031 28.62691 
L 42.48031 27.978176 
L 43.41031 26.66463 
L 44.34031 26.478517 
L 45.27031 26.63413 
L 46.20031 26.055472 
L 47.13031 25.447297 
L 48.06031 25.284409 
L 48.99031 25.009689 
L 49.92031 24.793151 
L 50.85031 24.518882 
L 51.78031 24.320808 
L 52.71031 24.14648 
L 53.64031 23.604733 
L 54.57031 22.289317 
L 55.50031 22.302445 
L 56.43031 22.422746 
L 57.36031 21.97836 
L 58.29031 21.722304 
L 59.22031 21.27708 
L 60.15031 20.626263 
L 61.08031 20.25914 
L 62.01031 19.535377 
L 62.94031 19.178523 
L 63.87031 18.249503 
" style="fill:none;stroke:#fc8d62;stroke-linecap:square;stroke-width:2;"/>
   </g>
   <g id="line2d_8">
    <path clip-path="url(#p0300be9e76)" d="M 10.86031 58.08713 
L 11.79031 55.600142 
L 12.72031 54.358733 
L 13.65031 52.499556 
L 14.58031 51.393874 
L 15.51031 50.621616 
L 16.44031 49.396475 
L 17.37031 47.622245 
L 18.30031 46.721492 
L 19.23031 46.114305 
L 20.16031 44.738693 
L 21.09031 44.057324 
L 22.02031 43.538321 
L 22.95031 43.121154 
L 23.88031 42.98657 
L 24.81031 41.889916 
L 25.74031 40.370673 
L 26.67031 39.681931 
L 27.60031 38.609591 
L 28.53031 38.407929 
L 29.46031 37.469498 
L 30.39031 36.599653 
L 31.32031 35.960471 
L 32.25031 34.916273 
L 33.18031 34.759498 
L 34.11031 34.21996 
L 35.04031 33.249119 
L 35.97031 31.769232 
L 36.90031 31.274671 
L 37.83031 30.56622 
L 38.76031 30.658764 
L 39.69031 29.666963 
L 40.62031 28.94521 
L 41.55031 28.23363 
L 42.48031 28.119685 
L 43.41031 28.077161 
L 44.34031 27.281381 
L 45.27031 26.704373 
L 46.20031 26.736682 
L 47.13031 26.433249 
L 48.06031 25.679629 
L 48.99031 24.809687 
L 49.92031 24.589922 
L 50.85031 25.050402 
L 51.78031 24.609784 
L 52.71031 24.401451 
L 53.64031 24.196731 
L 54.57031 24.189345 
L 55.50031 23.638091 
L 56.43031 23.918184 
L 57.36031 23.400768 
L 58.29031 22.680628 
L 59.22031 22.312916 
L 60.15031 21.587509 
L 61.08031 21.081539 
L 62.01031 21.164666 
L 62.94031 20.941815 
L 63.87031 20.486072 
" style="fill:none;stroke:#fc8d62;stroke-dasharray:1.5,1.5;stroke-dashoffset:0;stroke-opacity:0.7;stroke-width:1.5;"/>
   </g>
   <g id="patch_3">
    <path d="M 9 67.68 
L 9 17.28 
" style="fill:none;stroke:#a9a9a9;stroke-linecap:square;stroke-linejoin:miter;stroke-width:2;"/>
   </g>
   <g id="patch_4">
    <path d="M 64.8 67.68 
L 64.8 17.28 
" style="fill:none;"/>
   </g>
   <g id="patch_5">
    <path d="M 9 67.68 
L 64.8 67.68 
" style="fill:none;stroke:#a9a9a9;stroke-linecap:square;stroke-linejoin:miter;stroke-width:2;"/>
   </g>
   <g id="patch_6">
    <path d="M 9 17.28 
L 64.8 17.28 
" style="fill:none;"/>
   </g>
  </g>
  <g id="axes_2">
   <g id="patch_7">
    <path d="M 9 128.16 
L 64.8 128.16 
L 64.8 77.76 
L 9 77.76 
z
" style="fill:none;"/>
   </g>
   <g id="matplotlib.axis_3">
    <g id="xtick_4">
     <g id="line2d_9">
      <g>
       <use style="fill:#a9a9a9;stroke:#a9a9a9;stroke-width:2;" x="9" xlink:href="#m1375553ca5" y="128.16"/>
      </g>
     </g>
    </g>
    <g id="xtick_5">
     <g id="line2d_10">
      <g>
       <use style="fill:#a9a9a9;stroke:#a9a9a9;stroke-width:2;" x="36.9" xlink:href="#m1375553ca5" y="128.16"/>
      </g>
     </g>
    </g>
    <g id="xtick_6">
     <g id="line2d_11">
      <g>
       <use style="fill:#a9a9a9;stroke:#a9a9a9;stroke-width:2;" x="64.8" xlink:href="#m1375553ca5" y="128.16"/>
      </g>
     </g>
    </g>
   </g>
   <g id="matplotlib.axis_4">
    <g id="ytick_4">
     <g id="line2d_12">
      <g>
       <use style="fill:#a9a9a9;stroke:#a9a9a9;stroke-width:2;" x="9" xlink:href="#ma2003bde2a" y="128.16"/>
      </g>
     </g>
    </g>
    <g id="ytick_5">
     <g id="line2d_13">
      <g>
       <use style="fill:#a9a9a9;stroke:#a9a9a9;stroke-width:2;" x="9" xlink:href="#ma2003bde2a" y="102.96"/>
      </g>
     </g>
    </g>
    <g id="ytick_6">
     <g id="line2d_14">
      <g>
       <use style="fill:#a9a9a9;stroke:#a9a9a9;stroke-width:2;" x="9" xlink:href="#ma2003bde2a" y="77.76"/>
      </g>
     </g>
    </g>
   </g>
   <g id="line2d_15">
    <path clip-path="url(#p76e8275236)" d="M 10.86031 125.431631 
L 11.79031 124.853807 
L 12.72031 124.165538 
L 13.65031 123.578274 
L 14.58031 123.149901 
L 15.51031 122.631014 
L 16.44031 122.472482 
L 17.37031 121.988372 
L 18.30031 121.963019 
L 19.23031 121.679608 
L 20.16031 121.460335 
L 21.09031 121.314387 
L 22.02031 121.089742 
L 22.95031 120.925462 
L 23.88031 120.847145 
L 24.81031 120.873939 
L 25.74031 120.95818 
L 26.67031 121.051991 
L 27.60031 120.961427 
L 28.53031 121.188178 
L 29.46031 120.967784 
L 30.39031 121.094658 
L 31.32031 120.928712 
L 32.25031 120.833202 
L 33.18031 120.746295 
L 34.11031 120.817269 
L 35.04031 120.834693 
L 35.97031 120.719653 
L 36.90031 120.686265 
L 37.83031 120.617483 
L 38.76031 120.746873 
L 39.69031 120.67181 
L 40.62031 120.626616 
L 41.55031 120.531039 
L 42.48031 120.506913 
L 43.41031 120.500316 
L 44.34031 120.450626 
L 45.27031 120.412235 
L 46.20031 120.394165 
L 47.13031 120.337614 
L 48.06031 120.2575 
L 48.99031 120.272191 
L 49.92031 120.267471 
L 50.85031 120.256216 
L 51.78031 120.295801 
L 52.71031 120.282893 
L 53.64031 120.278703 
L 54.57031 120.340863 
L 55.50031 120.281185 
L 56.43031 120.283163 
L 57.36031 120.249547 
L 58.29031 120.186554 
L 59.22031 120.172207 
L 60.15031 120.160548 
L 61.08031 120.184043 
L 62.01031 120.141884 
L 62.94031 120.12246 
L 63.87031 120.139145 
" style="fill:none;stroke:#fc8d62;stroke-linecap:square;stroke-width:2;"/>
   </g>
   <g id="line2d_16">
    <path clip-path="url(#p76e8275236)" d="M 10.86031 115.674414 
L 11.79031 111.658886 
L 12.72031 109.31573 
L 13.65031 107.625075 
L 14.58031 106.027059 
L 15.51031 104.976945 
L 16.44031 104.540226 
L 17.37031 104.101925 
L 18.30031 103.39333 
L 19.23031 102.966194 
L 20.16031 102.196224 
L 21.09031 101.747962 
L 22.02031 101.452559 
L 22.95031 100.708267 
L 23.88031 100.268073 
L 24.81031 100.050628 
L 25.74031 99.631276 
L 26.67031 99.450218 
L 27.60031 99.379564 
L 28.53031 99.265172 
L 29.46031 98.98676 
L 30.39031 98.853283 
L 31.32031 98.580496 
L 32.25031 98.45998 
L 33.18031 98.221415 
L 34.11031 97.955711 
L 35.04031 97.660347 
L 35.97031 97.435999 
L 36.90031 97.264608 
L 37.83031 97.16143 
L 38.76031 97.224408 
L 39.69031 97.129518 
L 40.62031 97.02073 
L 41.55031 96.8987 
L 42.48031 96.804632 
L 43.41031 96.716665 
L 44.34031 96.533556 
L 45.27031 96.397037 
L 46.20031 96.457896 
L 47.13031 96.41735 
L 48.06031 96.256575 
L 48.99031 96.162248 
L 49.92031 96.214477 
L 50.85031 96.243255 
L 51.78031 96.250073 
L 52.71031 96.159463 
L 53.64031 96.076956 
L 54.57031 95.965633 
L 55.50031 95.985584 
L 56.43031 96.124571 
L 57.36031 95.94395 
L 58.29031 95.829862 
L 59.22031 95.850585 
L 60.15031 95.736551 
L 61.08031 95.66397 
L 62.01031 95.63686 
L 62.94031 95.598042 
L 63.87031 95.56571 
" style="fill:none;stroke:#fc8d62;stroke-dasharray:1.5,1.5;stroke-dashoffset:0;stroke-opacity:0.7;stroke-width:1.5;"/>
   </g>
   <g id="patch_8">
    <path d="M 9 128.16 
L 9 77.76 
" style="fill:none;stroke:#a9a9a9;stroke-linecap:square;stroke-linejoin:miter;stroke-width:2;"/>
   </g>
   <g id="patch_9">
    <path d="M 64.8 128.16 
L 64.8 77.76 
" style="fill:none;"/>
   </g>
   <g id="patch_10">
    <path d="M 9 128.16 
L 64.8 128.16 
" style="fill:none;stroke:#a9a9a9;stroke-linecap:square;stroke-linejoin:miter;stroke-width:2;"/>
   </g>
   <g id="patch_11">
    <path d="M 9 77.76 
L 64.8 77.76 
" style="fill:none;"/>
   </g>
  </g>
 </g>
 <defs>
  <clipPath id="p0300be9e76">
   <rect height="50.4" width="55.8" x="9" y="17.28"/>
  </clipPath>
  <clipPath id="p76e8275236">
   <rect height="50.4" width="55.8" x="9" y="77.76"/>
  </clipPath>
 </defs>
</svg>
