<?xml version="1.0" encoding="utf-8" standalone="no"?>
<!DOCTYPE svg PUBLIC "-//W3C//DTD SVG 1.1//EN"
  "http://www.w3.org/Graphics/SVG/1.1/DTD/svg11.dtd">
<!-- Created with matplotlib (https://matplotlib.org/) -->
<svg height="144pt" version="1.1" viewBox="0 0 72 144" width="72pt" xmlns="http://www.w3.org/2000/svg" xmlns:xlink="http://www.w3.org/1999/xlink">
 <metadata>
  <rdf:RDF xmlns:cc="http://creativecommons.org/ns#" xmlns:dc="http://purl.org/dc/elements/1.1/" xmlns:rdf="http://www.w3.org/1999/02/22-rdf-syntax-ns#">
   <cc:Work>
    <dc:type rdf:resource="http://purl.org/dc/dcmitype/StillImage"/>
    <dc:date>2021-10-11T19:16:09.685910</dc:date>
    <dc:format>image/svg+xml</dc:format>
    <dc:creator>
     <cc:Agent>
      <dc:title>Matplotlib v3.3.2, https://matplotlib.org/</dc:title>
     </cc:Agent>
    </dc:creator>
   </cc:Work>
  </rdf:RDF>
 </metadata>
 <defs>
  <style type="text/css">*{stroke-linecap:butt;stroke-linejoin:round;}</style>
 </defs>
 <g id="figure_1">
  <g id="patch_1">
   <path d="M 0 144 
L 72 144 
L 72 0 
L 0 0 
z
" style="fill:none;"/>
  </g>
  <g id="axes_1">
   <g id="patch_2">
    <path d="M 9 67.68 
L 64.8 67.68 
L 64.8 17.28 
L 9 17.28 
z
" style="fill:none;"/>
   </g>
   <g id="matplotlib.axis_1">
    <g id="xtick_1">
     <g id="line2d_1">
      <defs>
       <path d="M 0 0 
L 0 3.5 
" id="m1263f05697" style="stroke:#a9a9a9;stroke-width:2;"/>
      </defs>
      <g>
       <use style="fill:#a9a9a9;stroke:#a9a9a9;stroke-width:2;" x="9" xlink:href="#m1263f05697" y="67.68"/>
      </g>
     </g>
    </g>
    <g id="xtick_2">
     <g id="line2d_2">
      <g>
       <use style="fill:#a9a9a9;stroke:#a9a9a9;stroke-width:2;" x="36.9" xlink:href="#m1263f05697" y="67.68"/>
      </g>
     </g>
    </g>
    <g id="xtick_3">
     <g id="line2d_3">
      <g>
       <use style="fill:#a9a9a9;stroke:#a9a9a9;stroke-width:2;" x="64.8" xlink:href="#m1263f05697" y="67.68"/>
      </g>
     </g>
    </g>
   </g>
   <g id="matplotlib.axis_2">
    <g id="ytick_1">
     <g id="line2d_4">
      <defs>
       <path d="M 0 0 
L -3.5 0 
" id="mb2f1ced4cd" style="stroke:#a9a9a9;stroke-width:2;"/>
      </defs>
      <g>
       <use style="fill:#a9a9a9;stroke:#a9a9a9;stroke-width:2;" x="9" xlink:href="#mb2f1ced4cd" y="67.68"/>
      </g>
     </g>
    </g>
    <g id="ytick_2">
     <g id="line2d_5">
      <g>
       <use style="fill:#a9a9a9;stroke:#a9a9a9;stroke-width:2;" x="9" xlink:href="#mb2f1ced4cd" y="52.780145"/>
      </g>
     </g>
    </g>
    <g id="ytick_3">
     <g id="line2d_6">
      <g>
       <use style="fill:#a9a9a9;stroke:#a9a9a9;stroke-width:2;" x="9" xlink:href="#mb2f1ced4cd" y="37.880289"/>
      </g>
     </g>
    </g>
   </g>
   <g id="line2d_7">
    <path clip-path="url(#p9912bb4d82)" d="M 10.86031 59.004673 
L 11.79031 57.416757 
L 12.72031 55.884889 
L 13.65031 54.524114 
L 14.58031 53.18753 
L 15.51031 50.913981 
L 16.44031 49.556929 
L 17.37031 48.992006 
L 18.30031 47.502482 
L 19.23031 47.266754 
L 20.16031 46.453893 
L 21.09031 45.421653 
L 22.02031 44.147204 
L 22.95031 43.022584 
L 23.88031 41.719004 
L 24.81031 41.309495 
L 25.74031 39.934994 
L 26.67031 39.280277 
L 27.60031 38.458852 
L 28.53031 37.685012 
L 29.46031 36.958788 
L 30.39031 36.101869 
L 31.32031 35.242131 
L 32.25031 35.221358 
L 33.18031 34.193089 
L 34.11031 34.174774 
L 35.04031 33.567589 
L 35.97031 33.687119 
L 36.90031 33.871669 
L 37.83031 33.062353 
L 38.76031 32.636592 
L 39.69031 32.319456 
L 40.62031 32.068479 
L 41.55031 31.608252 
L 42.48031 31.075817 
L 43.41031 30.400993 
L 44.34031 30.443246 
L 45.27031 30.20352 
L 46.20031 29.54085 
L 47.13031 29.068566 
L 48.06031 28.82655 
L 48.99031 27.878276 
L 49.92031 27.501364 
L 50.85031 27.625959 
L 51.78031 27.044402 
L 52.71031 26.26009 
L 53.64031 26.319226 
L 54.57031 25.196127 
L 55.50031 24.362963 
L 56.43031 23.438119 
L 57.36031 23.286114 
L 58.29031 22.337947 
L 59.22031 22.009969 
L 60.15031 21.558053 
L 61.08031 20.264171 
L 62.01031 19.707964 
L 62.94031 19.040789 
L 63.87031 18.024993 
" style="fill:none;stroke:#fc8d62;stroke-linecap:square;stroke-width:2;"/>
   </g>
   <g id="line2d_8">
    <path clip-path="url(#p9912bb4d82)" d="M 10.86031 61.49845 
L 11.79031 60.669442 
L 12.72031 60.111288 
L 13.65031 59.253919 
L 14.58031 58.61205 
L 15.51031 58.242361 
L 16.44031 57.428431 
L 17.37031 56.70823 
L 18.30031 55.821701 
L 19.23031 55.361659 
L 20.16031 54.949978 
L 21.09031 54.796227 
L 22.02031 53.996811 
L 22.95031 53.594596 
L 23.88031 53.336517 
L 24.81031 52.478263 
L 25.74031 51.973703 
L 26.67031 51.430064 
L 27.60031 51.536696 
L 28.53031 50.968129 
L 29.46031 50.357534 
L 30.39031 50.098588 
L 31.32031 49.335007 
L 32.25031 49.290422 
L 33.18031 48.816136 
L 34.11031 48.894951 
L 35.04031 48.217427 
L 35.97031 48.248498 
L 36.90031 48.082184 
L 37.83031 47.311401 
L 38.76031 47.20276 
L 39.69031 46.519675 
L 40.62031 46.771391 
L 41.55031 46.566386 
L 42.48031 46.305774 
L 43.41031 46.017264 
L 44.34031 45.693265 
L 45.27031 45.22217 
L 46.20031 45.232135 
L 47.13031 44.993207 
L 48.06031 44.930846 
L 48.99031 44.16012 
L 49.92031 44.092371 
L 50.85031 43.977411 
L 51.78031 43.503643 
L 52.71031 43.43029 
L 53.64031 42.926392 
L 54.57031 42.702037 
L 55.50031 42.597198 
L 56.43031 42.73108 
L 57.36031 42.301537 
L 58.29031 42.290089 
L 59.22031 42.177783 
L 60.15031 42.009446 
L 61.08031 42.140134 
L 62.01031 41.965314 
L 62.94031 41.887024 
L 63.87031 41.774902 
" style="fill:none;stroke:#fc8d62;stroke-dasharray:1.5,1.5;stroke-dashoffset:0;stroke-opacity:0.7;stroke-width:1.5;"/>
   </g>
   <g id="patch_3">
    <path d="M 9 67.68 
L 9 17.28 
" style="fill:none;stroke:#a9a9a9;stroke-linecap:square;stroke-linejoin:miter;stroke-width:2;"/>
   </g>
   <g id="patch_4">
    <path d="M 64.8 67.68 
L 64.8 17.28 
" style="fill:none;"/>
   </g>
   <g id="patch_5">
    <path d="M 9 67.68 
L 64.8 67.68 
" style="fill:none;stroke:#a9a9a9;stroke-linecap:square;stroke-linejoin:miter;stroke-width:2;"/>
   </g>
   <g id="patch_6">
    <path d="M 9 17.28 
L 64.8 17.28 
" style="fill:none;"/>
   </g>
  </g>
  <g id="axes_2">
   <g id="patch_7">
    <path d="M 9 128.16 
L 64.8 128.16 
L 64.8 77.76 
L 9 77.76 
z
" style="fill:none;"/>
   </g>
   <g id="matplotlib.axis_3">
    <g id="xtick_4">
     <g id="line2d_9">
      <g>
       <use style="fill:#a9a9a9;stroke:#a9a9a9;stroke-width:2;" x="9" xlink:href="#m1263f05697" y="128.16"/>
      </g>
     </g>
    </g>
    <g id="xtick_5">
     <g id="line2d_10">
      <g>
       <use style="fill:#a9a9a9;stroke:#a9a9a9;stroke-width:2;" x="36.9" xlink:href="#m1263f05697" y="128.16"/>
      </g>
     </g>
    </g>
    <g id="xtick_6">
     <g id="line2d_11">
      <g>
       <use style="fill:#a9a9a9;stroke:#a9a9a9;stroke-width:2;" x="64.8" xlink:href="#m1263f05697" y="128.16"/>
      </g>
     </g>
    </g>
   </g>
   <g id="matplotlib.axis_4">
    <g id="ytick_4">
     <g id="line2d_12">
      <g>
       <use style="fill:#a9a9a9;stroke:#a9a9a9;stroke-width:2;" x="9" xlink:href="#mb2f1ced4cd" y="128.16"/>
      </g>
     </g>
    </g>
    <g id="ytick_5">
     <g id="line2d_13">
      <g>
       <use style="fill:#a9a9a9;stroke:#a9a9a9;stroke-width:2;" x="9" xlink:href="#mb2f1ced4cd" y="102.96"/>
      </g>
     </g>
    </g>
    <g id="ytick_6">
     <g id="line2d_14">
      <g>
       <use style="fill:#a9a9a9;stroke:#a9a9a9;stroke-width:2;" x="9" xlink:href="#mb2f1ced4cd" y="77.76"/>
      </g>
     </g>
    </g>
   </g>
   <g id="line2d_15">
    <path clip-path="url(#p273d7b7114)" d="M 10.86031 110.590652 
L 11.79031 106.198592 
L 12.72031 103.025625 
L 13.65031 100.335448 
L 14.58031 99.2402 
L 15.51031 97.322838 
L 16.44031 95.95544 
L 17.37031 94.772449 
L 18.30031 93.664831 
L 19.23031 93.489799 
L 20.16031 92.712923 
L 21.09031 92.277919 
L 22.02031 91.733101 
L 22.95031 91.094316 
L 23.88031 90.579462 
L 24.81031 90.33639 
L 25.74031 89.853758 
L 26.67031 89.669237 
L 27.60031 89.332242 
L 28.53031 89.050724 
L 29.46031 88.769821 
L 30.39031 88.662986 
L 31.32031 88.41083 
L 32.25031 88.250516 
L 33.18031 88.031811 
L 34.11031 87.815076 
L 35.04031 87.60377 
L 35.97031 87.63131 
L 36.90031 87.511095 
L 37.83031 87.425126 
L 38.76031 87.344355 
L 39.69031 87.223199 
L 40.62031 87.14873 
L 41.55031 87.094122 
L 42.48031 86.918707 
L 43.41031 86.814127 
L 44.34031 86.751633 
L 45.27031 86.715058 
L 46.20031 86.618796 
L 47.13031 86.618642 
L 48.06031 86.519199 
L 48.99031 86.418453 
L 49.92031 86.365882 
L 50.85031 86.373533 
L 51.78031 86.339313 
L 52.71031 86.341635 
L 53.64031 86.271455 
L 54.57031 86.169026 
L 55.50031 86.072324 
L 56.43031 86.000892 
L 57.36031 85.952818 
L 58.29031 85.924205 
L 59.22031 85.934809 
L 60.15031 85.864115 
L 61.08031 85.772415 
L 62.01031 85.731005 
L 62.94031 85.701723 
L 63.87031 85.639052 
" style="fill:none;stroke:#fc8d62;stroke-linecap:square;stroke-width:2;"/>
   </g>
   <g id="line2d_16">
    <path clip-path="url(#p273d7b7114)" d="M 10.86031 118.68314 
L 11.79031 115.703534 
L 12.72031 113.73493 
L 13.65031 111.802279 
L 14.58031 109.932713 
L 15.51031 107.897935 
L 16.44031 106.691008 
L 17.37031 105.466329 
L 18.30031 104.494537 
L 19.23031 104.208259 
L 20.16031 103.694327 
L 21.09031 103.21651 
L 22.02031 102.211561 
L 22.95031 101.332053 
L 23.88031 100.67628 
L 24.81031 100.104364 
L 25.74031 99.746532 
L 26.67031 99.643077 
L 27.60031 99.274813 
L 28.53031 98.953823 
L 29.46031 98.547775 
L 30.39031 98.13454 
L 31.32031 97.879588 
L 32.25031 97.477462 
L 33.18031 97.445853 
L 34.11031 97.260469 
L 35.04031 96.965047 
L 35.97031 96.771987 
L 36.90031 96.508704 
L 37.83031 96.008112 
L 38.76031 95.981511 
L 39.69031 95.871113 
L 40.62031 96.021342 
L 41.55031 95.980065 
L 42.48031 95.827007 
L 43.41031 95.6497 
L 44.34031 95.540449 
L 45.27031 95.520246 
L 46.20031 95.37978 
L 47.13031 95.239404 
L 48.06031 95.122762 
L 48.99031 94.757339 
L 49.92031 94.633963 
L 50.85031 94.64391 
L 51.78031 94.493531 
L 52.71031 94.392586 
L 53.64031 94.219465 
L 54.57031 94.131191 
L 55.50031 94.130075 
L 56.43031 94.134873 
L 57.36031 94.089896 
L 58.29031 94.096738 
L 59.22031 93.989676 
L 60.15031 94.008427 
L 61.08031 94.02664 
L 62.01031 93.92197 
L 62.94031 93.867979 
L 63.87031 93.817828 
" style="fill:none;stroke:#fc8d62;stroke-dasharray:1.5,1.5;stroke-dashoffset:0;stroke-opacity:0.7;stroke-width:1.5;"/>
   </g>
   <g id="patch_8">
    <path d="M 9 128.16 
L 9 77.76 
" style="fill:none;stroke:#a9a9a9;stroke-linecap:square;stroke-linejoin:miter;stroke-width:2;"/>
   </g>
   <g id="patch_9">
    <path d="M 64.8 128.16 
L 64.8 77.76 
" style="fill:none;"/>
   </g>
   <g id="patch_10">
    <path d="M 9 128.16 
L 64.8 128.16 
" style="fill:none;stroke:#a9a9a9;stroke-linecap:square;stroke-linejoin:miter;stroke-width:2;"/>
   </g>
   <g id="patch_11">
    <path d="M 9 77.76 
L 64.8 77.76 
" style="fill:none;"/>
   </g>
  </g>
 </g>
 <defs>
  <clipPath id="p9912bb4d82">
   <rect height="50.4" width="55.8" x="9" y="17.28"/>
  </clipPath>
  <clipPath id="p273d7b7114">
   <rect height="50.4" width="55.8" x="9" y="77.76"/>
  </clipPath>
 </defs>
</svg>
