<?xml version="1.0" encoding="utf-8" standalone="no"?>
<!DOCTYPE svg PUBLIC "-//W3C//DTD SVG 1.1//EN"
  "http://www.w3.org/Graphics/SVG/1.1/DTD/svg11.dtd">
<!-- Created with matplotlib (https://matplotlib.org/) -->
<svg height="144pt" version="1.1" viewBox="0 0 72 144" width="72pt" xmlns="http://www.w3.org/2000/svg" xmlns:xlink="http://www.w3.org/1999/xlink">
 <metadata>
  <rdf:RDF xmlns:cc="http://creativecommons.org/ns#" xmlns:dc="http://purl.org/dc/elements/1.1/" xmlns:rdf="http://www.w3.org/1999/02/22-rdf-syntax-ns#">
   <cc:Work>
    <dc:type rdf:resource="http://purl.org/dc/dcmitype/StillImage"/>
    <dc:date>2021-10-13T14:42:56.079970</dc:date>
    <dc:format>image/svg+xml</dc:format>
    <dc:creator>
     <cc:Agent>
      <dc:title>Matplotlib v3.3.2, https://matplotlib.org/</dc:title>
     </cc:Agent>
    </dc:creator>
   </cc:Work>
  </rdf:RDF>
 </metadata>
 <defs>
  <style type="text/css">*{stroke-linecap:butt;stroke-linejoin:round;}</style>
 </defs>
 <g id="figure_1">
  <g id="patch_1">
   <path d="M 0 144 
L 72 144 
L 72 0 
L 0 0 
z
" style="fill:none;"/>
  </g>
  <g id="axes_1">
   <g id="patch_2">
    <path d="M 9 67.68 
L 64.8 67.68 
L 64.8 17.28 
L 9 17.28 
z
" style="fill:none;"/>
   </g>
   <g id="matplotlib.axis_1">
    <g id="xtick_1">
     <g id="line2d_1">
      <defs>
       <path d="M 0 0 
L 0 3.5 
" id="m8186cc7e84" style="stroke:#a9a9a9;stroke-width:2;"/>
      </defs>
      <g>
       <use style="fill:#a9a9a9;stroke:#a9a9a9;stroke-width:2;" x="9" xlink:href="#m8186cc7e84" y="67.68"/>
      </g>
     </g>
    </g>
    <g id="xtick_2">
     <g id="line2d_2">
      <g>
       <use style="fill:#a9a9a9;stroke:#a9a9a9;stroke-width:2;" x="36.9" xlink:href="#m8186cc7e84" y="67.68"/>
      </g>
     </g>
    </g>
    <g id="xtick_3">
     <g id="line2d_3">
      <g>
       <use style="fill:#a9a9a9;stroke:#a9a9a9;stroke-width:2;" x="64.8" xlink:href="#m8186cc7e84" y="67.68"/>
      </g>
     </g>
    </g>
   </g>
   <g id="matplotlib.axis_2">
    <g id="ytick_1">
     <g id="line2d_4">
      <defs>
       <path d="M 0 0 
L -3.5 0 
" id="ma02e9222ad" style="stroke:#a9a9a9;stroke-width:2;"/>
      </defs>
      <g>
       <use style="fill:#a9a9a9;stroke:#a9a9a9;stroke-width:2;" x="9" xlink:href="#ma02e9222ad" y="67.68"/>
      </g>
     </g>
    </g>
    <g id="ytick_2">
     <g id="line2d_5">
      <g>
       <use style="fill:#a9a9a9;stroke:#a9a9a9;stroke-width:2;" x="9" xlink:href="#ma02e9222ad" y="65.154204"/>
      </g>
     </g>
    </g>
    <g id="ytick_3">
     <g id="line2d_6">
      <g>
       <use style="fill:#a9a9a9;stroke:#a9a9a9;stroke-width:2;" x="9" xlink:href="#ma02e9222ad" y="62.628409"/>
      </g>
     </g>
    </g>
   </g>
   <g id="line2d_7">
    <path clip-path="url(#pe78c3ae63a)" d="M 10.86031 59.481522 
L 11.79031 58.077436 
L 12.72031 57.599418 
L 13.65031 56.511532 
L 14.58031 55.84446 
L 15.51031 54.493788 
L 16.44031 53.457399 
L 17.37031 52.278133 
L 18.30031 51.71984 
L 19.23031 50.891211 
L 20.16031 49.207015 
L 21.09031 47.768478 
L 22.02031 46.817796 
L 22.95031 46.27303 
L 23.88031 44.438177 
L 24.81031 43.648329 
L 25.74031 42.673473 
L 26.67031 41.395389 
L 27.60031 39.760974 
L 28.53031 37.479788 
L 29.46031 35.078367 
L 30.39031 32.690847 
L 31.32031 31.347928 
L 32.25031 30.289918 
L 33.18031 30.767478 
L 34.11031 31.161845 
L 35.04031 31.43983 
L 35.97031 31.838115 
L 36.90031 32.203219 
L 37.83031 31.972055 
L 38.76031 32.937794 
L 39.69031 33.390344 
L 40.62031 32.775447 
L 41.55031 32.422278 
L 42.48031 31.854841 
L 43.41031 30.767876 
L 44.34031 29.895449 
L 45.27031 29.223856 
L 46.20031 28.342641 
L 47.13031 27.304974 
L 48.06031 25.740434 
L 48.99031 24.76774 
L 49.92031 23.650447 
L 50.85031 21.824377 
L 51.78031 20.380343 
L 52.71031 19.698519 
L 53.64031 18.8556 
L 54.57031 18.532989 
L 55.50031 17.828466 
L 56.43031 17.642406 
L 57.36031 17.40629 
L 58.29031 18.175558 
L 59.22031 17.90481 
L 60.15031 18.047374 
L 61.08031 17.815804 
L 62.01031 18.084962 
L 62.94031 18.836489 
L 63.87031 18.802869 
" style="fill:none;stroke:#fc8d62;stroke-linecap:square;stroke-width:2;"/>
   </g>
   <g id="line2d_8">
    <path clip-path="url(#pe78c3ae63a)" d="M 10.86031 60.006783 
L 11.79031 59.153531 
L 12.72031 58.431509 
L 13.65031 57.245273 
L 14.58031 56.374347 
L 15.51031 55.541507 
L 16.44031 54.756914 
L 17.37031 54.137508 
L 18.30031 53.334724 
L 19.23031 52.049151 
L 20.16031 50.616542 
L 21.09031 48.800681 
L 22.02031 48.014244 
L 22.95031 46.531701 
L 23.88031 45.664085 
L 24.81031 44.780841 
L 25.74031 43.634535 
L 26.67031 42.825655 
L 27.60031 40.695364 
L 28.53031 39.705719 
L 29.46031 38.291379 
L 30.39031 36.567232 
L 31.32031 34.841237 
L 32.25031 34.329593 
L 33.18031 33.929333 
L 34.11031 34.551008 
L 35.04031 34.928395 
L 35.97031 35.515992 
L 36.90031 36.279614 
L 37.83031 36.378124 
L 38.76031 35.949053 
L 39.69031 35.91948 
L 40.62031 35.777676 
L 41.55031 35.670761 
L 42.48031 35.427211 
L 43.41031 35.473497 
L 44.34031 35.009601 
L 45.27031 34.405681 
L 46.20031 33.288546 
L 47.13031 32.412471 
L 48.06031 30.96838 
L 48.99031 29.978775 
L 49.92031 28.694729 
L 50.85031 28.035717 
L 51.78031 27.237279 
L 52.71031 25.876338 
L 53.64031 25.58909 
L 54.57031 24.728009 
L 55.50031 23.862285 
L 56.43031 23.779928 
L 57.36031 23.897981 
L 58.29031 24.166132 
L 59.22031 24.555314 
L 60.15031 24.783892 
L 61.08031 24.752499 
L 62.01031 24.336314 
L 62.94031 24.19072 
L 63.87031 24.167726 
" style="fill:none;stroke:#fc8d62;stroke-dasharray:1.5,1.5;stroke-dashoffset:0;stroke-opacity:0.7;stroke-width:1.5;"/>
   </g>
   <g id="patch_3">
    <path d="M 9 67.68 
L 9 17.28 
" style="fill:none;stroke:#a9a9a9;stroke-linecap:square;stroke-linejoin:miter;stroke-width:2;"/>
   </g>
   <g id="patch_4">
    <path d="M 64.8 67.68 
L 64.8 17.28 
" style="fill:none;"/>
   </g>
   <g id="patch_5">
    <path d="M 9 67.68 
L 64.8 67.68 
" style="fill:none;stroke:#a9a9a9;stroke-linecap:square;stroke-linejoin:miter;stroke-width:2;"/>
   </g>
   <g id="patch_6">
    <path d="M 9 17.28 
L 64.8 17.28 
" style="fill:none;"/>
   </g>
  </g>
  <g id="axes_2">
   <g id="patch_7">
    <path d="M 9 128.16 
L 64.8 128.16 
L 64.8 77.76 
L 9 77.76 
z
" style="fill:none;"/>
   </g>
   <g id="matplotlib.axis_3">
    <g id="xtick_4">
     <g id="line2d_9">
      <g>
       <use style="fill:#a9a9a9;stroke:#a9a9a9;stroke-width:2;" x="9" xlink:href="#m8186cc7e84" y="128.16"/>
      </g>
     </g>
    </g>
    <g id="xtick_5">
     <g id="line2d_10">
      <g>
       <use style="fill:#a9a9a9;stroke:#a9a9a9;stroke-width:2;" x="36.9" xlink:href="#m8186cc7e84" y="128.16"/>
      </g>
     </g>
    </g>
    <g id="xtick_6">
     <g id="line2d_11">
      <g>
       <use style="fill:#a9a9a9;stroke:#a9a9a9;stroke-width:2;" x="64.8" xlink:href="#m8186cc7e84" y="128.16"/>
      </g>
     </g>
    </g>
   </g>
   <g id="matplotlib.axis_4">
    <g id="ytick_4">
     <g id="line2d_12">
      <g>
       <use style="fill:#a9a9a9;stroke:#a9a9a9;stroke-width:2;" x="9" xlink:href="#ma02e9222ad" y="128.16"/>
      </g>
     </g>
    </g>
    <g id="ytick_5">
     <g id="line2d_13">
      <g>
       <use style="fill:#a9a9a9;stroke:#a9a9a9;stroke-width:2;" x="9" xlink:href="#ma02e9222ad" y="102.96"/>
      </g>
     </g>
    </g>
    <g id="ytick_6">
     <g id="line2d_14">
      <g>
       <use style="fill:#a9a9a9;stroke:#a9a9a9;stroke-width:2;" x="9" xlink:href="#ma02e9222ad" y="77.76"/>
      </g>
     </g>
    </g>
   </g>
   <g id="line2d_15">
    <path clip-path="url(#p7fc2a69b3c)" d="M 10.86031 81.884387 
L 11.79031 81.417209 
L 12.72031 81.284736 
L 13.65031 81.132987 
L 14.58031 81.058748 
L 15.51031 80.935795 
L 16.44031 80.856616 
L 17.37031 80.794272 
L 18.30031 80.77425 
L 19.23031 80.743066 
L 20.16031 80.722938 
L 21.09031 80.708904 
L 22.02031 80.695784 
L 22.95031 80.683972 
L 23.88031 80.666154 
L 24.81031 80.658241 
L 25.74031 80.655424 
L 26.67031 80.643337 
L 27.60031 80.629624 
L 28.53031 80.61417 
L 29.46031 80.601207 
L 30.39031 80.584343 
L 31.32031 80.572515 
L 32.25031 80.563952 
L 33.18031 80.563768 
L 34.11031 80.560745 
L 35.04031 80.558318 
L 35.97031 80.56171 
L 36.90031 80.556569 
L 37.83031 80.552155 
L 38.76031 80.546505 
L 39.69031 80.54185 
L 40.62031 80.535602 
L 41.55031 80.532387 
L 42.48031 80.534048 
L 43.41031 80.531228 
L 44.34031 80.532923 
L 45.27031 80.533383 
L 46.20031 80.539816 
L 47.13031 80.540301 
L 48.06031 80.542655 
L 48.99031 80.546849 
L 49.92031 80.547084 
L 50.85031 80.544093 
L 51.78031 80.5432 
L 52.71031 80.537942 
L 53.64031 80.534392 
L 54.57031 80.534557 
L 55.50031 80.530765 
L 56.43031 80.528336 
L 57.36031 80.526399 
L 58.29031 80.527067 
L 59.22031 80.52263 
L 60.15031 80.519751 
L 61.08031 80.516477 
L 62.01031 80.512831 
L 62.94031 80.509389 
L 63.87031 80.506987 
" style="fill:none;stroke:#fc8d62;stroke-linecap:square;stroke-width:2;"/>
   </g>
   <g id="line2d_16">
    <path clip-path="url(#p7fc2a69b3c)" d="M 10.86031 91.767993 
L 11.79031 91.408522 
L 12.72031 91.337256 
L 13.65031 91.276225 
L 14.58031 91.15901 
L 15.51031 91.098768 
L 16.44031 91.045418 
L 17.37031 90.970328 
L 18.30031 90.948182 
L 19.23031 90.933629 
L 20.16031 90.917083 
L 21.09031 90.905082 
L 22.02031 90.906323 
L 22.95031 90.904125 
L 23.88031 90.927017 
L 24.81031 90.94559 
L 25.74031 90.939363 
L 26.67031 90.938326 
L 27.60031 90.930004 
L 28.53031 90.919833 
L 29.46031 90.916673 
L 30.39031 90.894379 
L 31.32031 90.899151 
L 32.25031 90.88866 
L 33.18031 90.878682 
L 34.11031 90.888072 
L 35.04031 90.879578 
L 35.97031 90.887204 
L 36.90031 90.877807 
L 37.83031 90.87881 
L 38.76031 90.874163 
L 39.69031 90.866611 
L 40.62031 90.869341 
L 41.55031 90.871733 
L 42.48031 90.876429 
L 43.41031 90.885678 
L 44.34031 90.879672 
L 45.27031 90.886454 
L 46.20031 90.895223 
L 47.13031 90.90317 
L 48.06031 90.922684 
L 48.99031 90.927795 
L 49.92031 90.927303 
L 50.85031 90.932867 
L 51.78031 90.918489 
L 52.71031 90.914387 
L 53.64031 90.909666 
L 54.57031 90.908624 
L 55.50031 90.905043 
L 56.43031 90.900702 
L 57.36031 90.900221 
L 58.29031 90.900201 
L 59.22031 90.895184 
L 60.15031 90.894721 
L 61.08031 90.898269 
L 62.01031 90.899951 
L 62.94031 90.898003 
L 63.87031 90.896277 
" style="fill:none;stroke:#fc8d62;stroke-dasharray:1.5,1.5;stroke-dashoffset:0;stroke-opacity:0.7;stroke-width:1.5;"/>
   </g>
   <g id="patch_8">
    <path d="M 9 128.16 
L 9 77.76 
" style="fill:none;stroke:#a9a9a9;stroke-linecap:square;stroke-linejoin:miter;stroke-width:2;"/>
   </g>
   <g id="patch_9">
    <path d="M 64.8 128.16 
L 64.8 77.76 
" style="fill:none;"/>
   </g>
   <g id="patch_10">
    <path d="M 9 128.16 
L 64.8 128.16 
" style="fill:none;stroke:#a9a9a9;stroke-linecap:square;stroke-linejoin:miter;stroke-width:2;"/>
   </g>
   <g id="patch_11">
    <path d="M 9 77.76 
L 64.8 77.76 
" style="fill:none;"/>
   </g>
  </g>
 </g>
 <defs>
  <clipPath id="pe78c3ae63a">
   <rect height="50.4" width="55.8" x="9" y="17.28"/>
  </clipPath>
  <clipPath id="p7fc2a69b3c">
   <rect height="50.4" width="55.8" x="9" y="77.76"/>
  </clipPath>
 </defs>
</svg>
