<?xml version="1.0" encoding="utf-8" standalone="no"?>
<!DOCTYPE svg PUBLIC "-//W3C//DTD SVG 1.1//EN"
  "http://www.w3.org/Graphics/SVG/1.1/DTD/svg11.dtd">
<!-- Created with matplotlib (https://matplotlib.org/) -->
<svg height="144pt" version="1.1" viewBox="0 0 72 144" width="72pt" xmlns="http://www.w3.org/2000/svg" xmlns:xlink="http://www.w3.org/1999/xlink">
 <metadata>
  <rdf:RDF xmlns:cc="http://creativecommons.org/ns#" xmlns:dc="http://purl.org/dc/elements/1.1/" xmlns:rdf="http://www.w3.org/1999/02/22-rdf-syntax-ns#">
   <cc:Work>
    <dc:type rdf:resource="http://purl.org/dc/dcmitype/StillImage"/>
    <dc:date>2021-10-14T18:26:03.280911</dc:date>
    <dc:format>image/svg+xml</dc:format>
    <dc:creator>
     <cc:Agent>
      <dc:title>Matplotlib v3.3.2, https://matplotlib.org/</dc:title>
     </cc:Agent>
    </dc:creator>
   </cc:Work>
  </rdf:RDF>
 </metadata>
 <defs>
  <style type="text/css">*{stroke-linecap:butt;stroke-linejoin:round;}</style>
 </defs>
 <g id="figure_1">
  <g id="patch_1">
   <path d="M 0 144 
L 72 144 
L 72 0 
L 0 0 
z
" style="fill:none;"/>
  </g>
  <g id="axes_1">
   <g id="patch_2">
    <path d="M 9 67.68 
L 64.8 67.68 
L 64.8 17.28 
L 9 17.28 
z
" style="fill:none;"/>
   </g>
   <g id="matplotlib.axis_1">
    <g id="xtick_1">
     <g id="line2d_1">
      <defs>
       <path d="M 0 0 
L 0 3.5 
" id="m8698ef67a1" style="stroke:#a9a9a9;stroke-width:2;"/>
      </defs>
      <g>
       <use style="fill:#a9a9a9;stroke:#a9a9a9;stroke-width:2;" x="9" xlink:href="#m8698ef67a1" y="67.68"/>
      </g>
     </g>
    </g>
    <g id="xtick_2">
     <g id="line2d_2">
      <g>
       <use style="fill:#a9a9a9;stroke:#a9a9a9;stroke-width:2;" x="36.9" xlink:href="#m8698ef67a1" y="67.68"/>
      </g>
     </g>
    </g>
    <g id="xtick_3">
     <g id="line2d_3">
      <g>
       <use style="fill:#a9a9a9;stroke:#a9a9a9;stroke-width:2;" x="64.8" xlink:href="#m8698ef67a1" y="67.68"/>
      </g>
     </g>
    </g>
   </g>
   <g id="matplotlib.axis_2">
    <g id="ytick_1">
     <g id="line2d_4">
      <defs>
       <path d="M 0 0 
L -3.5 0 
" id="m3670d10747" style="stroke:#a9a9a9;stroke-width:2;"/>
      </defs>
      <g>
       <use style="fill:#a9a9a9;stroke:#a9a9a9;stroke-width:2;" x="9" xlink:href="#m3670d10747" y="67.68"/>
      </g>
     </g>
    </g>
    <g id="ytick_2">
     <g id="line2d_5">
      <g>
       <use style="fill:#a9a9a9;stroke:#a9a9a9;stroke-width:2;" x="9" xlink:href="#m3670d10747" y="55.056744"/>
      </g>
     </g>
    </g>
    <g id="ytick_3">
     <g id="line2d_6">
      <g>
       <use style="fill:#a9a9a9;stroke:#a9a9a9;stroke-width:2;" x="9" xlink:href="#m3670d10747" y="42.433488"/>
      </g>
     </g>
    </g>
   </g>
   <g id="line2d_7">
    <path clip-path="url(#pef8d848e7d)" d="M 10.860031 57.413067 
L 11.790031 55.680671 
L 12.720031 54.260833 
L 13.650031 52.834169 
L 14.580031 51.612449 
L 15.510031 49.55775 
L 16.440031 48.555228 
L 17.370031 47.916838 
L 18.300031 46.73779 
L 19.230031 46.03557 
L 20.160031 45.071533 
L 21.090031 44.943581 
L 22.020031 44.296794 
L 22.950031 42.64349 
L 23.880031 41.834057 
L 24.810031 41.056505 
L 25.740031 39.997094 
L 26.670031 38.874323 
L 27.600031 38.330034 
L 28.530031 37.474976 
L 29.460031 37.421704 
L 30.390031 36.827285 
L 31.320031 35.584841 
L 32.250031 34.716429 
L 33.180031 33.865081 
L 34.110031 33.442693 
L 35.040031 33.14341 
L 35.970031 32.322147 
L 36.900031 32.752307 
L 37.830031 32.138557 
L 38.760031 31.550556 
L 39.690031 31.260904 
L 40.620031 30.541556 
L 41.550031 29.705413 
L 42.480031 29.366774 
L 43.410031 28.928804 
L 44.340031 28.845277 
L 45.270031 27.874757 
L 46.200031 27.043949 
L 47.130031 26.010684 
L 48.060031 25.056623 
L 48.990031 24.307984 
L 49.920031 23.844671 
L 50.850031 23.530597 
L 51.780031 22.799985 
L 52.710031 22.405088 
L 53.640031 21.912126 
L 54.570031 21.395071 
L 55.500031 21.308183 
L 56.430031 20.394764 
L 57.360031 20.028252 
L 58.290031 19.549933 
L 59.220031 19.512136 
L 60.150031 19.523285 
L 61.080031 18.90269 
L 62.010031 18.431525 
L 62.940031 18.233978 
L 63.870031 17.911163 
" style="fill:none;stroke:#fc8d62;stroke-linecap:square;stroke-width:2;"/>
   </g>
   <g id="line2d_8">
    <path clip-path="url(#pef8d848e7d)" d="M 10.860031 57.418275 
L 11.790031 55.609883 
L 12.720031 53.628164 
L 13.650031 52.219579 
L 14.580031 50.275828 
L 15.510031 49.376058 
L 16.440031 48.510064 
L 17.370031 47.760889 
L 18.300031 47.007825 
L 19.230031 46.090245 
L 20.160031 45.306231 
L 21.090031 44.226927 
L 22.020031 43.561009 
L 22.950031 42.150908 
L 23.880031 41.85076 
L 24.810031 41.21643 
L 25.740031 39.805597 
L 26.670031 37.920025 
L 27.600031 37.104459 
L 28.530031 36.163467 
L 29.460031 35.436496 
L 30.390031 34.952363 
L 31.320031 35.199317 
L 32.250031 33.923862 
L 33.180031 33.389562 
L 34.110031 32.46469 
L 35.040031 31.98146 
L 35.970031 31.165589 
L 36.900031 30.972456 
L 37.830031 30.829928 
L 38.760031 30.471948 
L 39.690031 29.816353 
L 40.620031 29.108492 
L 41.550031 28.416983 
L 42.480031 27.759325 
L 43.410031 27.389867 
L 44.340031 26.532365 
L 45.270031 26.445222 
L 46.200031 25.723606 
L 47.130031 25.383856 
L 48.060031 25.332314 
L 48.990031 24.018113 
L 49.920031 23.381095 
L 50.850031 23.05124 
L 51.780031 21.134851 
L 52.710031 20.856506 
L 53.640031 20.58889 
L 54.570031 19.331878 
L 55.500031 18.65517 
L 56.430031 18.005714 
L 57.360031 17.926733 
L 58.290031 18.036633 
L 59.220031 17.311665 
L 60.150031 16.684326 
L 61.080031 16.354928 
L 62.010031 16.02598 
L 62.940031 15.393502 
L 63.870031 14.727391 
" style="fill:none;stroke:#fc8d62;stroke-dasharray:1.5,1.5;stroke-dashoffset:0;stroke-opacity:0.7;stroke-width:1.5;"/>
   </g>
   <g id="patch_3">
    <path d="M 9 67.68 
L 9 17.28 
" style="fill:none;stroke:#a9a9a9;stroke-linecap:square;stroke-linejoin:miter;stroke-width:2;"/>
   </g>
   <g id="patch_4">
    <path d="M 64.8 67.68 
L 64.8 17.28 
" style="fill:none;"/>
   </g>
   <g id="patch_5">
    <path d="M 9 67.68 
L 64.8 67.68 
" style="fill:none;stroke:#a9a9a9;stroke-linecap:square;stroke-linejoin:miter;stroke-width:2;"/>
   </g>
   <g id="patch_6">
    <path d="M 9 17.28 
L 64.8 17.28 
" style="fill:none;"/>
   </g>
  </g>
  <g id="axes_2">
   <g id="patch_7">
    <path d="M 9 128.16 
L 64.8 128.16 
L 64.8 77.76 
L 9 77.76 
z
" style="fill:none;"/>
   </g>
   <g id="matplotlib.axis_3">
    <g id="xtick_4">
     <g id="line2d_9">
      <g>
       <use style="fill:#a9a9a9;stroke:#a9a9a9;stroke-width:2;" x="9" xlink:href="#m8698ef67a1" y="128.16"/>
      </g>
     </g>
    </g>
    <g id="xtick_5">
     <g id="line2d_10">
      <g>
       <use style="fill:#a9a9a9;stroke:#a9a9a9;stroke-width:2;" x="36.9" xlink:href="#m8698ef67a1" y="128.16"/>
      </g>
     </g>
    </g>
    <g id="xtick_6">
     <g id="line2d_11">
      <g>
       <use style="fill:#a9a9a9;stroke:#a9a9a9;stroke-width:2;" x="64.8" xlink:href="#m8698ef67a1" y="128.16"/>
      </g>
     </g>
    </g>
   </g>
   <g id="matplotlib.axis_4">
    <g id="ytick_4">
     <g id="line2d_12">
      <g>
       <use style="fill:#a9a9a9;stroke:#a9a9a9;stroke-width:2;" x="9" xlink:href="#m3670d10747" y="128.16"/>
      </g>
     </g>
    </g>
    <g id="ytick_5">
     <g id="line2d_13">
      <g>
       <use style="fill:#a9a9a9;stroke:#a9a9a9;stroke-width:2;" x="9" xlink:href="#m3670d10747" y="102.96"/>
      </g>
     </g>
    </g>
    <g id="ytick_6">
     <g id="line2d_14">
      <g>
       <use style="fill:#a9a9a9;stroke:#a9a9a9;stroke-width:2;" x="9" xlink:href="#m3670d10747" y="77.76"/>
      </g>
     </g>
    </g>
   </g>
   <g id="line2d_15">
    <path clip-path="url(#p803790d163)" d="M 10.860031 99.915184 
L 11.790031 96.471119 
L 12.720031 94.698831 
L 13.650031 92.86054 
L 14.580031 91.537304 
L 15.510031 90.374342 
L 16.440031 89.69505 
L 17.370031 89.320317 
L 18.300031 88.760412 
L 19.230031 88.330009 
L 20.160031 88.07542 
L 21.090031 87.944422 
L 22.020031 87.729445 
L 22.950031 87.494689 
L 23.880031 87.320006 
L 24.810031 87.258174 
L 25.740031 87.066695 
L 26.670031 86.863825 
L 27.600031 86.755115 
L 28.530031 86.654956 
L 29.460031 86.563908 
L 30.390031 86.540981 
L 31.320031 86.449879 
L 32.250031 86.360905 
L 33.180031 86.264323 
L 34.110031 86.148324 
L 35.040031 86.135519 
L 35.970031 86.082644 
L 36.900031 86.031716 
L 37.830031 86.031923 
L 38.760031 85.972339 
L 39.690031 85.957688 
L 40.620031 85.919376 
L 41.550031 85.881151 
L 42.480031 85.871554 
L 43.410031 85.84644 
L 44.340031 85.813882 
L 45.270031 85.828434 
L 46.200031 85.851898 
L 47.130031 85.840133 
L 48.060031 85.804902 
L 48.990031 85.753435 
L 49.920031 85.744409 
L 50.850031 85.657205 
L 51.780031 85.655512 
L 52.710031 85.629507 
L 53.640031 85.624537 
L 54.570031 85.58102 
L 55.500031 85.594043 
L 56.430031 85.518948 
L 57.360031 85.511726 
L 58.290031 85.468258 
L 59.220031 85.443312 
L 60.150031 85.442676 
L 61.080031 85.405219 
L 62.010031 85.374253 
L 62.940031 85.393324 
L 63.870031 85.39997 
" style="fill:none;stroke:#fc8d62;stroke-linecap:square;stroke-width:2;"/>
   </g>
   <g id="line2d_16">
    <path clip-path="url(#p803790d163)" d="M 10.860031 103.914868 
L 11.790031 101.177355 
L 12.720031 98.681169 
L 13.650031 96.960389 
L 14.580031 95.599369 
L 15.510031 94.944487 
L 16.440031 94.33923 
L 17.370031 94.036365 
L 18.300031 93.760114 
L 19.230031 93.53152 
L 20.160031 93.244382 
L 21.090031 93.013557 
L 22.020031 92.761356 
L 22.950031 92.6567 
L 23.880031 92.571605 
L 24.810031 92.509379 
L 25.740031 92.232097 
L 26.670031 92.074295 
L 27.600031 92.024308 
L 28.530031 91.90707 
L 29.460031 91.862318 
L 30.390031 91.759772 
L 31.320031 91.810711 
L 32.250031 91.664677 
L 33.180031 91.707142 
L 34.110031 91.687847 
L 35.040031 91.691271 
L 35.970031 91.546605 
L 36.900031 91.426136 
L 37.830031 91.375893 
L 38.760031 91.389134 
L 39.690031 91.327143 
L 40.620031 91.320702 
L 41.550031 91.263033 
L 42.480031 91.21643 
L 43.410031 91.147611 
L 44.340031 91.124975 
L 45.270031 91.13821 
L 46.200031 91.12533 
L 47.130031 91.105127 
L 48.060031 91.041498 
L 48.990031 90.980367 
L 49.920031 90.969494 
L 50.850031 90.956202 
L 51.780031 90.893528 
L 52.710031 90.898572 
L 53.640031 90.85729 
L 54.570031 90.850016 
L 55.500031 90.844207 
L 56.430031 90.809154 
L 57.360031 90.810212 
L 58.290031 90.830093 
L 59.220031 90.828072 
L 60.150031 90.814847 
L 61.080031 90.835832 
L 62.010031 90.825503 
L 62.940031 90.785675 
L 63.870031 90.73903 
" style="fill:none;stroke:#fc8d62;stroke-dasharray:1.5,1.5;stroke-dashoffset:0;stroke-opacity:0.7;stroke-width:1.5;"/>
   </g>
   <g id="patch_8">
    <path d="M 9 128.16 
L 9 77.76 
" style="fill:none;stroke:#a9a9a9;stroke-linecap:square;stroke-linejoin:miter;stroke-width:2;"/>
   </g>
   <g id="patch_9">
    <path d="M 64.8 128.16 
L 64.8 77.76 
" style="fill:none;"/>
   </g>
   <g id="patch_10">
    <path d="M 9 128.16 
L 64.8 128.16 
" style="fill:none;stroke:#a9a9a9;stroke-linecap:square;stroke-linejoin:miter;stroke-width:2;"/>
   </g>
   <g id="patch_11">
    <path d="M 9 77.76 
L 64.8 77.76 
" style="fill:none;"/>
   </g>
  </g>
 </g>
 <defs>
  <clipPath id="pef8d848e7d">
   <rect height="50.4" width="55.8" x="9" y="17.28"/>
  </clipPath>
  <clipPath id="p803790d163">
   <rect height="50.4" width="55.8" x="9" y="77.76"/>
  </clipPath>
 </defs>
</svg>
