<?xml version="1.0" encoding="utf-8" standalone="no"?>
<!DOCTYPE svg PUBLIC "-//W3C//DTD SVG 1.1//EN"
  "http://www.w3.org/Graphics/SVG/1.1/DTD/svg11.dtd">
<!-- Created with matplotlib (https://matplotlib.org/) -->
<svg height="144pt" version="1.1" viewBox="0 0 72 144" width="72pt" xmlns="http://www.w3.org/2000/svg" xmlns:xlink="http://www.w3.org/1999/xlink">
 <metadata>
  <rdf:RDF xmlns:cc="http://creativecommons.org/ns#" xmlns:dc="http://purl.org/dc/elements/1.1/" xmlns:rdf="http://www.w3.org/1999/02/22-rdf-syntax-ns#">
   <cc:Work>
    <dc:type rdf:resource="http://purl.org/dc/dcmitype/StillImage"/>
    <dc:date>2021-10-14T20:03:04.537990</dc:date>
    <dc:format>image/svg+xml</dc:format>
    <dc:creator>
     <cc:Agent>
      <dc:title>Matplotlib v3.3.2, https://matplotlib.org/</dc:title>
     </cc:Agent>
    </dc:creator>
   </cc:Work>
  </rdf:RDF>
 </metadata>
 <defs>
  <style type="text/css">*{stroke-linecap:butt;stroke-linejoin:round;}</style>
 </defs>
 <g id="figure_1">
  <g id="patch_1">
   <path d="M 0 144 
L 72 144 
L 72 0 
L 0 0 
z
" style="fill:none;"/>
  </g>
  <g id="axes_1">
   <g id="patch_2">
    <path d="M 9 67.68 
L 64.8 67.68 
L 64.8 17.28 
L 9 17.28 
z
" style="fill:none;"/>
   </g>
   <g id="matplotlib.axis_1">
    <g id="xtick_1">
     <g id="line2d_1">
      <defs>
       <path d="M 0 0 
L 0 3.5 
" id="m18543bfb7b" style="stroke:#a9a9a9;stroke-width:2;"/>
      </defs>
      <g>
       <use style="fill:#a9a9a9;stroke:#a9a9a9;stroke-width:2;" x="9" xlink:href="#m18543bfb7b" y="67.68"/>
      </g>
     </g>
    </g>
    <g id="xtick_2">
     <g id="line2d_2">
      <g>
       <use style="fill:#a9a9a9;stroke:#a9a9a9;stroke-width:2;" x="36.9" xlink:href="#m18543bfb7b" y="67.68"/>
      </g>
     </g>
    </g>
    <g id="xtick_3">
     <g id="line2d_3">
      <g>
       <use style="fill:#a9a9a9;stroke:#a9a9a9;stroke-width:2;" x="64.8" xlink:href="#m18543bfb7b" y="67.68"/>
      </g>
     </g>
    </g>
   </g>
   <g id="matplotlib.axis_2">
    <g id="ytick_1">
     <g id="line2d_4">
      <defs>
       <path d="M 0 0 
L -3.5 0 
" id="m91f6da7150" style="stroke:#a9a9a9;stroke-width:2;"/>
      </defs>
      <g>
       <use style="fill:#a9a9a9;stroke:#a9a9a9;stroke-width:2;" x="9" xlink:href="#m91f6da7150" y="67.68"/>
      </g>
     </g>
    </g>
    <g id="ytick_2">
     <g id="line2d_5">
      <g>
       <use style="fill:#a9a9a9;stroke:#a9a9a9;stroke-width:2;" x="9" xlink:href="#m91f6da7150" y="42.48"/>
      </g>
     </g>
    </g>
    <g id="ytick_3">
     <g id="line2d_6">
      <g>
       <use style="fill:#a9a9a9;stroke:#a9a9a9;stroke-width:2;" x="9" xlink:href="#m91f6da7150" y="17.28"/>
      </g>
     </g>
    </g>
   </g>
   <g id="line2d_7">
    <path clip-path="url(#p83928b2ef4)" d="M 10.860031 59.796579 
L 11.790031 59.19861 
L 12.720031 57.537265 
L 13.650031 56.193229 
L 14.580031 55.593584 
L 15.510031 55.401717 
L 16.440031 54.660179 
L 17.370031 53.044772 
L 18.300031 53.268849 
L 19.230031 51.764785 
L 20.160031 51.455713 
L 21.090031 50.570744 
L 22.020031 50.127523 
L 22.950031 48.837998 
L 23.880031 48.033784 
L 24.810031 47.016587 
L 25.740031 46.729964 
L 26.670031 45.982148 
L 27.600031 45.167856 
L 28.530031 44.962313 
L 29.460031 45.327629 
L 30.390031 44.388993 
L 31.320031 44.027486 
L 32.250031 43.266209 
L 33.180031 42.975098 
L 34.110031 42.476035 
L 35.040031 42.200624 
L 35.970031 41.0066 
L 36.900031 40.681665 
L 37.830031 39.910483 
L 38.760031 39.822674 
L 39.690031 39.834436 
L 40.620031 40.311704 
L 41.550031 39.64956 
L 42.480031 39.479325 
L 43.410031 38.828156 
L 44.340031 38.370858 
L 45.270031 38.205285 
L 46.200031 37.978359 
L 47.130031 37.387038 
L 48.060031 36.679547 
L 48.990031 36.644598 
L 49.920031 36.749567 
L 50.850031 36.594327 
L 51.780031 36.170055 
L 52.710031 36.400678 
L 53.640031 36.932561 
L 54.570031 35.646274 
L 55.500031 34.849694 
L 56.430031 34.600206 
L 57.360031 33.384833 
L 58.290031 33.154668 
L 59.220031 33.148102 
L 60.150031 32.745499 
L 61.080031 33.530445 
L 62.010031 33.400096 
L 62.940031 33.415752 
L 63.870031 33.032055 
" style="fill:none;stroke:#fc8d62;stroke-linecap:square;stroke-width:2;"/>
   </g>
   <g id="line2d_8">
    <path clip-path="url(#p83928b2ef4)" d="M 10.860031 60.939379 
L 11.790031 61.095223 
L 12.720031 60.786736 
L 13.650031 59.869673 
L 14.580031 59.698686 
L 15.510031 59.62525 
L 16.440031 58.904941 
L 17.370031 59.100719 
L 18.300031 58.900702 
L 19.230031 58.544383 
L 20.160031 58.209553 
L 21.090031 58.053371 
L 22.020031 57.744407 
L 22.950031 57.499202 
L 23.880031 56.893147 
L 24.810031 56.439918 
L 25.740031 56.57518 
L 26.670031 56.081922 
L 27.600031 56.436348 
L 28.530031 55.574253 
L 29.460031 55.490532 
L 30.390031 55.794207 
L 31.320031 55.671192 
L 32.250031 55.367642 
L 33.180031 54.67054 
L 34.110031 53.914884 
L 35.040031 53.77573 
L 35.970031 54.119573 
L 36.900031 54.084013 
L 37.830031 54.054565 
L 38.760031 53.469561 
L 39.690031 53.622128 
L 40.620031 53.682445 
L 41.550031 53.43323 
L 42.480031 53.127776 
L 43.410031 52.570192 
L 44.340031 52.357669 
L 45.270031 52.252876 
L 46.200031 52.116778 
L 47.130031 51.756164 
L 48.060031 51.484473 
L 48.990031 51.2292 
L 49.920031 50.790104 
L 50.850031 50.704551 
L 51.780031 50.46332 
L 52.710031 50.595536 
L 53.640031 50.717123 
L 54.570031 51.09987 
L 55.500031 50.900039 
L 56.430031 51.182397 
L 57.360031 50.775186 
L 58.290031 50.475228 
L 59.220031 50.479143 
L 60.150031 50.217429 
L 61.080031 49.847192 
L 62.010031 49.923201 
L 62.940031 49.545117 
L 63.870031 49.451775 
" style="fill:none;stroke:#fc8d62;stroke-dasharray:1.5,1.5;stroke-dashoffset:0;stroke-opacity:0.7;stroke-width:1.5;"/>
   </g>
   <g id="patch_3">
    <path d="M 9 67.68 
L 9 17.28 
" style="fill:none;stroke:#a9a9a9;stroke-linecap:square;stroke-linejoin:miter;stroke-width:2;"/>
   </g>
   <g id="patch_4">
    <path d="M 64.8 67.68 
L 64.8 17.28 
" style="fill:none;"/>
   </g>
   <g id="patch_5">
    <path d="M 9 67.68 
L 64.8 67.68 
" style="fill:none;stroke:#a9a9a9;stroke-linecap:square;stroke-linejoin:miter;stroke-width:2;"/>
   </g>
   <g id="patch_6">
    <path d="M 9 17.28 
L 64.8 17.28 
" style="fill:none;"/>
   </g>
  </g>
  <g id="axes_2">
   <g id="patch_7">
    <path d="M 9 128.16 
L 64.8 128.16 
L 64.8 77.76 
L 9 77.76 
z
" style="fill:none;"/>
   </g>
   <g id="matplotlib.axis_3">
    <g id="xtick_4">
     <g id="line2d_9">
      <g>
       <use style="fill:#a9a9a9;stroke:#a9a9a9;stroke-width:2;" x="9" xlink:href="#m18543bfb7b" y="128.16"/>
      </g>
     </g>
    </g>
    <g id="xtick_5">
     <g id="line2d_10">
      <g>
       <use style="fill:#a9a9a9;stroke:#a9a9a9;stroke-width:2;" x="36.9" xlink:href="#m18543bfb7b" y="128.16"/>
      </g>
     </g>
    </g>
    <g id="xtick_6">
     <g id="line2d_11">
      <g>
       <use style="fill:#a9a9a9;stroke:#a9a9a9;stroke-width:2;" x="64.8" xlink:href="#m18543bfb7b" y="128.16"/>
      </g>
     </g>
    </g>
   </g>
   <g id="matplotlib.axis_4">
    <g id="ytick_4">
     <g id="line2d_12">
      <g>
       <use style="fill:#a9a9a9;stroke:#a9a9a9;stroke-width:2;" x="9" xlink:href="#m91f6da7150" y="128.16"/>
      </g>
     </g>
    </g>
    <g id="ytick_5">
     <g id="line2d_13">
      <g>
       <use style="fill:#a9a9a9;stroke:#a9a9a9;stroke-width:2;" x="9" xlink:href="#m91f6da7150" y="102.96"/>
      </g>
     </g>
    </g>
    <g id="ytick_6">
     <g id="line2d_14">
      <g>
       <use style="fill:#a9a9a9;stroke:#a9a9a9;stroke-width:2;" x="9" xlink:href="#m91f6da7150" y="77.76"/>
      </g>
     </g>
    </g>
   </g>
   <g id="line2d_15">
    <path clip-path="url(#p4982940f94)" d="M 10.860031 123.607908 
L 11.790031 121.79151 
L 12.720031 119.72895 
L 13.650031 117.59582 
L 14.580031 115.851041 
L 15.510031 114.778974 
L 16.440031 113.478629 
L 17.370031 112.078802 
L 18.300031 111.049306 
L 19.230031 110.262768 
L 20.160031 109.691882 
L 21.090031 109.005494 
L 22.020031 108.794658 
L 22.950031 107.868474 
L 23.880031 106.864985 
L 24.810031 106.069105 
L 25.740031 105.462861 
L 26.670031 105.046909 
L 27.600031 104.312149 
L 28.530031 103.95428 
L 29.460031 103.803098 
L 30.390031 103.275741 
L 31.320031 102.968338 
L 32.250031 102.351574 
L 33.180031 102.17728 
L 34.110031 101.725668 
L 35.040031 101.434035 
L 35.970031 101.109147 
L 36.900031 100.67825 
L 37.830031 100.200292 
L 38.760031 99.997897 
L 39.690031 99.839185 
L 40.620031 99.859917 
L 41.550031 99.544938 
L 42.480031 99.291106 
L 43.410031 99.126772 
L 44.340031 98.972526 
L 45.270031 98.870512 
L 46.200031 98.603741 
L 47.130031 98.459115 
L 48.060031 98.155332 
L 48.990031 97.955477 
L 49.920031 97.753422 
L 50.850031 97.724735 
L 51.780031 97.501391 
L 52.710031 97.275056 
L 53.640031 97.27431 
L 54.570031 96.97767 
L 55.500031 96.830817 
L 56.430031 96.886209 
L 57.360031 96.564402 
L 58.290031 96.383383 
L 59.220031 96.347503 
L 60.150031 96.265536 
L 61.080031 96.400616 
L 62.010031 96.35111 
L 62.940031 96.306325 
L 63.870031 96.188737 
" style="fill:none;stroke:#fc8d62;stroke-linecap:square;stroke-width:2;"/>
   </g>
   <g id="line2d_16">
    <path clip-path="url(#p4982940f94)" d="M 10.860031 126.558249 
L 11.790031 125.849235 
L 12.720031 124.663026 
L 13.650031 123.947603 
L 14.580031 123.47325 
L 15.510031 122.507214 
L 16.440031 121.523962 
L 17.370031 121.565963 
L 18.300031 121.161958 
L 19.230031 120.725505 
L 20.160031 120.019115 
L 21.090031 119.123855 
L 22.020031 118.723126 
L 22.950031 118.411299 
L 23.880031 117.677853 
L 24.810031 116.848027 
L 25.740031 116.51676 
L 26.670031 116.35739 
L 27.600031 115.672503 
L 28.530031 115.084701 
L 29.460031 114.479795 
L 30.390031 114.609136 
L 31.320031 114.444739 
L 32.250031 114.322195 
L 33.180031 113.97838 
L 34.110031 113.575453 
L 35.040031 113.560717 
L 35.970031 113.315192 
L 36.900031 112.848743 
L 37.830031 112.707041 
L 38.760031 111.975441 
L 39.690031 111.515345 
L 40.620031 111.199971 
L 41.550031 111.182532 
L 42.480031 110.999976 
L 43.410031 110.699351 
L 44.340031 110.733606 
L 45.270031 110.667572 
L 46.200031 110.096496 
L 47.130031 109.430123 
L 48.060031 109.327095 
L 48.990031 109.21528 
L 49.920031 108.891914 
L 50.850031 108.779315 
L 51.780031 108.678884 
L 52.710031 108.575154 
L 53.640031 108.422651 
L 54.570031 108.143374 
L 55.500031 108.360702 
L 56.430031 108.343874 
L 57.360031 108.058404 
L 58.290031 107.778715 
L 59.220031 107.563879 
L 60.150031 107.472692 
L 61.080031 107.30661 
L 62.010031 106.92387 
L 62.940031 106.732417 
L 63.870031 106.746609 
" style="fill:none;stroke:#fc8d62;stroke-dasharray:1.5,1.5;stroke-dashoffset:0;stroke-opacity:0.7;stroke-width:1.5;"/>
   </g>
   <g id="patch_8">
    <path d="M 9 128.16 
L 9 77.76 
" style="fill:none;stroke:#a9a9a9;stroke-linecap:square;stroke-linejoin:miter;stroke-width:2;"/>
   </g>
   <g id="patch_9">
    <path d="M 64.8 128.16 
L 64.8 77.76 
" style="fill:none;"/>
   </g>
   <g id="patch_10">
    <path d="M 9 128.16 
L 64.8 128.16 
" style="fill:none;stroke:#a9a9a9;stroke-linecap:square;stroke-linejoin:miter;stroke-width:2;"/>
   </g>
   <g id="patch_11">
    <path d="M 9 77.76 
L 64.8 77.76 
" style="fill:none;"/>
   </g>
  </g>
 </g>
 <defs>
  <clipPath id="p83928b2ef4">
   <rect height="50.4" width="55.8" x="9" y="17.28"/>
  </clipPath>
  <clipPath id="p4982940f94">
   <rect height="50.4" width="55.8" x="9" y="77.76"/>
  </clipPath>
 </defs>
</svg>
