<?xml version="1.0" encoding="utf-8" standalone="no"?>
<!DOCTYPE svg PUBLIC "-//W3C//DTD SVG 1.1//EN"
  "http://www.w3.org/Graphics/SVG/1.1/DTD/svg11.dtd">
<!-- Created with matplotlib (https://matplotlib.org/) -->
<svg height="144pt" version="1.1" viewBox="0 0 72 144" width="72pt" xmlns="http://www.w3.org/2000/svg" xmlns:xlink="http://www.w3.org/1999/xlink">
 <metadata>
  <rdf:RDF xmlns:cc="http://creativecommons.org/ns#" xmlns:dc="http://purl.org/dc/elements/1.1/" xmlns:rdf="http://www.w3.org/1999/02/22-rdf-syntax-ns#">
   <cc:Work>
    <dc:type rdf:resource="http://purl.org/dc/dcmitype/StillImage"/>
    <dc:date>2021-10-13T15:34:52.783574</dc:date>
    <dc:format>image/svg+xml</dc:format>
    <dc:creator>
     <cc:Agent>
      <dc:title>Matplotlib v3.3.2, https://matplotlib.org/</dc:title>
     </cc:Agent>
    </dc:creator>
   </cc:Work>
  </rdf:RDF>
 </metadata>
 <defs>
  <style type="text/css">*{stroke-linecap:butt;stroke-linejoin:round;}</style>
 </defs>
 <g id="figure_1">
  <g id="patch_1">
   <path d="M 0 144 
L 72 144 
L 72 0 
L 0 0 
z
" style="fill:none;"/>
  </g>
  <g id="axes_1">
   <g id="patch_2">
    <path d="M 9 67.68 
L 64.8 67.68 
L 64.8 17.28 
L 9 17.28 
z
" style="fill:none;"/>
   </g>
   <g id="matplotlib.axis_1">
    <g id="xtick_1">
     <g id="line2d_1">
      <defs>
       <path d="M 0 0 
L 0 3.5 
" id="m2bde73af78" style="stroke:#a9a9a9;stroke-width:2;"/>
      </defs>
      <g>
       <use style="fill:#a9a9a9;stroke:#a9a9a9;stroke-width:2;" x="9" xlink:href="#m2bde73af78" y="67.68"/>
      </g>
     </g>
    </g>
    <g id="xtick_2">
     <g id="line2d_2">
      <g>
       <use style="fill:#a9a9a9;stroke:#a9a9a9;stroke-width:2;" x="36.9" xlink:href="#m2bde73af78" y="67.68"/>
      </g>
     </g>
    </g>
    <g id="xtick_3">
     <g id="line2d_3">
      <g>
       <use style="fill:#a9a9a9;stroke:#a9a9a9;stroke-width:2;" x="64.8" xlink:href="#m2bde73af78" y="67.68"/>
      </g>
     </g>
    </g>
   </g>
   <g id="matplotlib.axis_2">
    <g id="ytick_1">
     <g id="line2d_4">
      <defs>
       <path d="M 0 0 
L -3.5 0 
" id="md5f4d3606a" style="stroke:#a9a9a9;stroke-width:2;"/>
      </defs>
      <g>
       <use style="fill:#a9a9a9;stroke:#a9a9a9;stroke-width:2;" x="9" xlink:href="#md5f4d3606a" y="67.68"/>
      </g>
     </g>
    </g>
    <g id="ytick_2">
     <g id="line2d_5">
      <g>
       <use style="fill:#a9a9a9;stroke:#a9a9a9;stroke-width:2;" x="9" xlink:href="#md5f4d3606a" y="59.115095"/>
      </g>
     </g>
    </g>
    <g id="ytick_3">
     <g id="line2d_6">
      <g>
       <use style="fill:#a9a9a9;stroke:#a9a9a9;stroke-width:2;" x="9" xlink:href="#md5f4d3606a" y="50.550191"/>
      </g>
     </g>
    </g>
   </g>
   <g id="line2d_7">
    <path clip-path="url(#pebf090e7d3)" d="M 10.86031 59.207475 
L 11.79031 57.833375 
L 12.72031 56.478487 
L 13.65031 54.968564 
L 14.58031 53.878873 
L 15.51031 52.764531 
L 16.44031 51.489037 
L 17.37031 50.460869 
L 18.30031 49.104541 
L 19.23031 47.398938 
L 20.16031 46.479137 
L 21.09031 45.581906 
L 22.02031 44.854871 
L 22.95031 44.187594 
L 23.88031 42.865679 
L 24.81031 42.726777 
L 25.74031 41.803125 
L 26.67031 41.002323 
L 27.60031 39.525215 
L 28.53031 38.279555 
L 29.46031 37.069328 
L 30.39031 36.195486 
L 31.32031 35.830302 
L 32.25031 34.593435 
L 33.18031 34.05041 
L 34.11031 33.053463 
L 35.04031 32.44882 
L 35.97031 32.184629 
L 36.90031 31.976043 
L 37.83031 31.641016 
L 38.76031 30.725895 
L 39.69031 30.162193 
L 40.62031 29.285878 
L 41.55031 28.660369 
L 42.48031 27.779699 
L 43.41031 27.57987 
L 44.34031 27.689249 
L 45.27031 27.619589 
L 46.20031 27.077194 
L 47.13031 26.190889 
L 48.06031 26.026809 
L 48.99031 25.433921 
L 49.92031 24.717735 
L 50.85031 23.648 
L 51.78031 22.987496 
L 52.71031 22.894489 
L 53.64031 22.111556 
L 54.57031 22.226469 
L 55.50031 21.815895 
L 56.43031 21.174668 
L 57.36031 20.344928 
L 58.29031 20.625194 
L 59.22031 20.342963 
L 60.15031 19.989936 
L 61.08031 20.046098 
L 62.01031 19.793763 
L 62.94031 18.916717 
L 63.87031 17.708245 
" style="fill:none;stroke:#fc8d62;stroke-linecap:square;stroke-width:2;"/>
   </g>
   <g id="line2d_8">
    <path clip-path="url(#pebf090e7d3)" d="M 10.86031 58.567897 
L 11.79031 56.309749 
L 12.72031 54.830516 
L 13.65031 53.402491 
L 14.58031 51.719619 
L 15.51031 50.349618 
L 16.44031 49.297496 
L 17.37031 48.005244 
L 18.30031 47.343702 
L 19.23031 45.880098 
L 20.16031 45.284718 
L 21.09031 44.853123 
L 22.02031 43.625961 
L 22.95031 43.072444 
L 23.88031 42.380334 
L 24.81031 41.162301 
L 25.74031 40.191898 
L 26.67031 39.412742 
L 27.60031 38.301764 
L 28.53031 37.26246 
L 29.46031 36.080281 
L 30.39031 34.401373 
L 31.32031 33.550832 
L 32.25031 32.326834 
L 33.18031 31.544539 
L 34.11031 31.300341 
L 35.04031 30.94279 
L 35.97031 30.558861 
L 36.90031 30.691237 
L 37.83031 30.504331 
L 38.76031 30.141233 
L 39.69031 29.193947 
L 40.62031 28.137867 
L 41.55031 28.424841 
L 42.48031 27.635005 
L 43.41031 27.866703 
L 44.34031 26.816593 
L 45.27031 26.386455 
L 46.20031 25.569849 
L 47.13031 24.820937 
L 48.06031 23.798428 
L 48.99031 23.375578 
L 49.92031 23.209842 
L 50.85031 22.761468 
L 51.78031 22.515193 
L 52.71031 22.195001 
L 53.64031 22.16869 
L 54.57031 21.143481 
L 55.50031 20.771853 
L 56.43031 20.076749 
L 57.36031 19.741774 
L 58.29031 20.125781 
L 59.22031 20.715459 
L 60.15031 20.341528 
L 61.08031 19.990897 
L 62.01031 19.70698 
L 62.94031 19.65149 
L 63.87031 19.406477 
" style="fill:none;stroke:#fc8d62;stroke-dasharray:1.5,1.5;stroke-dashoffset:0;stroke-opacity:0.7;stroke-width:1.5;"/>
   </g>
   <g id="patch_3">
    <path d="M 9 67.68 
L 9 17.28 
" style="fill:none;stroke:#a9a9a9;stroke-linecap:square;stroke-linejoin:miter;stroke-width:2;"/>
   </g>
   <g id="patch_4">
    <path d="M 64.8 67.68 
L 64.8 17.28 
" style="fill:none;"/>
   </g>
   <g id="patch_5">
    <path d="M 9 67.68 
L 64.8 67.68 
" style="fill:none;stroke:#a9a9a9;stroke-linecap:square;stroke-linejoin:miter;stroke-width:2;"/>
   </g>
   <g id="patch_6">
    <path d="M 9 17.28 
L 64.8 17.28 
" style="fill:none;"/>
   </g>
  </g>
  <g id="axes_2">
   <g id="patch_7">
    <path d="M 9 128.16 
L 64.8 128.16 
L 64.8 77.76 
L 9 77.76 
z
" style="fill:none;"/>
   </g>
   <g id="matplotlib.axis_3">
    <g id="xtick_4">
     <g id="line2d_9">
      <g>
       <use style="fill:#a9a9a9;stroke:#a9a9a9;stroke-width:2;" x="9" xlink:href="#m2bde73af78" y="128.16"/>
      </g>
     </g>
    </g>
    <g id="xtick_5">
     <g id="line2d_10">
      <g>
       <use style="fill:#a9a9a9;stroke:#a9a9a9;stroke-width:2;" x="36.9" xlink:href="#m2bde73af78" y="128.16"/>
      </g>
     </g>
    </g>
    <g id="xtick_6">
     <g id="line2d_11">
      <g>
       <use style="fill:#a9a9a9;stroke:#a9a9a9;stroke-width:2;" x="64.8" xlink:href="#m2bde73af78" y="128.16"/>
      </g>
     </g>
    </g>
   </g>
   <g id="matplotlib.axis_4">
    <g id="ytick_4">
     <g id="line2d_12">
      <g>
       <use style="fill:#a9a9a9;stroke:#a9a9a9;stroke-width:2;" x="9" xlink:href="#md5f4d3606a" y="128.16"/>
      </g>
     </g>
    </g>
    <g id="ytick_5">
     <g id="line2d_13">
      <g>
       <use style="fill:#a9a9a9;stroke:#a9a9a9;stroke-width:2;" x="9" xlink:href="#md5f4d3606a" y="102.96"/>
      </g>
     </g>
    </g>
    <g id="ytick_6">
     <g id="line2d_14">
      <g>
       <use style="fill:#a9a9a9;stroke:#a9a9a9;stroke-width:2;" x="9" xlink:href="#md5f4d3606a" y="77.76"/>
      </g>
     </g>
    </g>
   </g>
   <g id="line2d_15">
    <path clip-path="url(#p19e4c277db)" d="M 10.86031 94.197755 
L 11.79031 92.132848 
L 12.72031 90.747892 
L 13.65031 89.419546 
L 14.58031 88.652041 
L 15.51031 88.231756 
L 16.44031 87.867606 
L 17.37031 87.54052 
L 18.30031 87.19559 
L 19.23031 86.9477 
L 20.16031 86.796939 
L 21.09031 86.722136 
L 22.02031 86.648427 
L 22.95031 86.656026 
L 23.88031 86.487529 
L 24.81031 86.427304 
L 25.74031 86.326716 
L 26.67031 86.249093 
L 27.60031 86.145791 
L 28.53031 86.052685 
L 29.46031 86.036779 
L 30.39031 85.958244 
L 31.32031 85.895163 
L 32.25031 85.83183 
L 33.18031 85.809395 
L 34.11031 85.713613 
L 35.04031 85.689724 
L 35.97031 85.635612 
L 36.90031 85.598442 
L 37.83031 85.569723 
L 38.76031 85.484443 
L 39.69031 85.437598 
L 40.62031 85.372371 
L 41.55031 85.35711 
L 42.48031 85.351178 
L 43.41031 85.348612 
L 44.34031 85.361875 
L 45.27031 85.342527 
L 46.20031 85.350376 
L 47.13031 85.356962 
L 48.06031 85.353146 
L 48.99031 85.338277 
L 49.92031 85.297878 
L 50.85031 85.283523 
L 51.78031 85.283196 
L 52.71031 85.29719 
L 53.64031 85.276039 
L 54.57031 85.267517 
L 55.50031 85.267384 
L 56.43031 85.262483 
L 57.36031 85.219958 
L 58.29031 85.219898 
L 59.22031 85.198431 
L 60.15031 85.186031 
L 61.08031 85.183058 
L 62.01031 85.177705 
L 62.94031 85.168669 
L 63.87031 85.152871 
" style="fill:none;stroke:#fc8d62;stroke-linecap:square;stroke-width:2;"/>
   </g>
   <g id="line2d_16">
    <path clip-path="url(#p19e4c277db)" d="M 10.86031 99.161601 
L 11.79031 96.653267 
L 12.72031 95.49421 
L 13.65031 94.621082 
L 14.58031 93.889964 
L 15.51031 93.403733 
L 16.44031 93.088302 
L 17.37031 92.801628 
L 18.30031 92.545095 
L 19.23031 92.370611 
L 20.16031 92.149244 
L 21.09031 92.096519 
L 22.02031 92.049398 
L 22.95031 92.029753 
L 23.88031 91.951013 
L 24.81031 91.7689 
L 25.74031 91.678857 
L 26.67031 91.675524 
L 27.60031 91.642633 
L 28.53031 91.664812 
L 29.46031 91.674061 
L 30.39031 91.573 
L 31.32031 91.573611 
L 32.25031 91.480418 
L 33.18031 91.399364 
L 34.11031 91.38724 
L 35.04031 91.347873 
L 35.97031 91.284697 
L 36.90031 91.291648 
L 37.83031 91.281888 
L 38.76031 91.235915 
L 39.69031 91.184103 
L 40.62031 91.204628 
L 41.55031 91.211866 
L 42.48031 91.213373 
L 43.41031 91.178236 
L 44.34031 91.167656 
L 45.27031 91.150103 
L 46.20031 91.134442 
L 47.13031 91.159767 
L 48.06031 91.154013 
L 48.99031 91.129658 
L 49.92031 91.121533 
L 50.85031 91.092776 
L 51.78031 91.087596 
L 52.71031 91.063047 
L 53.64031 91.072211 
L 54.57031 91.071445 
L 55.50031 91.054169 
L 56.43031 91.027313 
L 57.36031 91.01708 
L 58.29031 91.026294 
L 59.22031 91.017367 
L 60.15031 91.017114 
L 61.08031 90.985755 
L 62.01031 90.967447 
L 62.94031 90.93714 
L 63.87031 90.928171 
" style="fill:none;stroke:#fc8d62;stroke-dasharray:1.5,1.5;stroke-dashoffset:0;stroke-opacity:0.7;stroke-width:1.5;"/>
   </g>
   <g id="patch_8">
    <path d="M 9 128.16 
L 9 77.76 
" style="fill:none;stroke:#a9a9a9;stroke-linecap:square;stroke-linejoin:miter;stroke-width:2;"/>
   </g>
   <g id="patch_9">
    <path d="M 64.8 128.16 
L 64.8 77.76 
" style="fill:none;"/>
   </g>
   <g id="patch_10">
    <path d="M 9 128.16 
L 64.8 128.16 
" style="fill:none;stroke:#a9a9a9;stroke-linecap:square;stroke-linejoin:miter;stroke-width:2;"/>
   </g>
   <g id="patch_11">
    <path d="M 9 77.76 
L 64.8 77.76 
" style="fill:none;"/>
   </g>
  </g>
 </g>
 <defs>
  <clipPath id="pebf090e7d3">
   <rect height="50.4" width="55.8" x="9" y="17.28"/>
  </clipPath>
  <clipPath id="p19e4c277db">
   <rect height="50.4" width="55.8" x="9" y="77.76"/>
  </clipPath>
 </defs>
</svg>
