<?xml version="1.0" encoding="utf-8" standalone="no"?>
<!DOCTYPE svg PUBLIC "-//W3C//DTD SVG 1.1//EN"
  "http://www.w3.org/Graphics/SVG/1.1/DTD/svg11.dtd">
<!-- Created with matplotlib (https://matplotlib.org/) -->
<svg height="144pt" version="1.1" viewBox="0 0 72 144" width="72pt" xmlns="http://www.w3.org/2000/svg" xmlns:xlink="http://www.w3.org/1999/xlink">
 <metadata>
  <rdf:RDF xmlns:cc="http://creativecommons.org/ns#" xmlns:dc="http://purl.org/dc/elements/1.1/" xmlns:rdf="http://www.w3.org/1999/02/22-rdf-syntax-ns#">
   <cc:Work>
    <dc:type rdf:resource="http://purl.org/dc/dcmitype/StillImage"/>
    <dc:date>2021-10-11T20:13:24.066981</dc:date>
    <dc:format>image/svg+xml</dc:format>
    <dc:creator>
     <cc:Agent>
      <dc:title>Matplotlib v3.3.2, https://matplotlib.org/</dc:title>
     </cc:Agent>
    </dc:creator>
   </cc:Work>
  </rdf:RDF>
 </metadata>
 <defs>
  <style type="text/css">*{stroke-linecap:butt;stroke-linejoin:round;}</style>
 </defs>
 <g id="figure_1">
  <g id="patch_1">
   <path d="M 0 144 
L 72 144 
L 72 0 
L 0 0 
z
" style="fill:none;"/>
  </g>
  <g id="axes_1">
   <g id="patch_2">
    <path d="M 9 67.68 
L 64.8 67.68 
L 64.8 17.28 
L 9 17.28 
z
" style="fill:none;"/>
   </g>
   <g id="matplotlib.axis_1">
    <g id="xtick_1">
     <g id="line2d_1">
      <defs>
       <path d="M 0 0 
L 0 3.5 
" id="mc3df92b581" style="stroke:#a9a9a9;stroke-width:2;"/>
      </defs>
      <g>
       <use style="fill:#a9a9a9;stroke:#a9a9a9;stroke-width:2;" x="9" xlink:href="#mc3df92b581" y="67.68"/>
      </g>
     </g>
    </g>
    <g id="xtick_2">
     <g id="line2d_2">
      <g>
       <use style="fill:#a9a9a9;stroke:#a9a9a9;stroke-width:2;" x="36.9" xlink:href="#mc3df92b581" y="67.68"/>
      </g>
     </g>
    </g>
    <g id="xtick_3">
     <g id="line2d_3">
      <g>
       <use style="fill:#a9a9a9;stroke:#a9a9a9;stroke-width:2;" x="64.8" xlink:href="#mc3df92b581" y="67.68"/>
      </g>
     </g>
    </g>
   </g>
   <g id="matplotlib.axis_2">
    <g id="ytick_1">
     <g id="line2d_4">
      <defs>
       <path d="M 0 0 
L -3.5 0 
" id="mb0493d07e9" style="stroke:#a9a9a9;stroke-width:2;"/>
      </defs>
      <g>
       <use style="fill:#a9a9a9;stroke:#a9a9a9;stroke-width:2;" x="9" xlink:href="#mb0493d07e9" y="67.68"/>
      </g>
     </g>
    </g>
    <g id="ytick_2">
     <g id="line2d_5">
      <g>
       <use style="fill:#a9a9a9;stroke:#a9a9a9;stroke-width:2;" x="9" xlink:href="#mb0493d07e9" y="55.77399"/>
      </g>
     </g>
    </g>
    <g id="ytick_3">
     <g id="line2d_6">
      <g>
       <use style="fill:#a9a9a9;stroke:#a9a9a9;stroke-width:2;" x="9" xlink:href="#mb0493d07e9" y="43.86798"/>
      </g>
     </g>
    </g>
   </g>
   <g id="line2d_7">
    <path clip-path="url(#pd041f18f38)" d="M 10.86031 58.925463 
L 11.79031 56.486039 
L 12.72031 54.30927 
L 13.65031 52.912159 
L 14.58031 50.369579 
L 15.51031 49.344072 
L 16.44031 48.687529 
L 17.37031 48.522729 
L 18.30031 47.41321 
L 19.23031 45.695535 
L 20.16031 45.455994 
L 21.09031 44.959811 
L 22.02031 44.20741 
L 22.95031 43.546236 
L 23.88031 42.851549 
L 24.81031 42.046125 
L 25.74031 40.894173 
L 26.67031 40.651705 
L 27.60031 39.124207 
L 28.53031 37.949459 
L 29.46031 37.343049 
L 30.39031 36.319717 
L 31.32031 35.616819 
L 32.25031 34.399416 
L 33.18031 33.073926 
L 34.11031 32.656359 
L 35.04031 32.333844 
L 35.97031 31.784549 
L 36.90031 30.760377 
L 37.83031 30.021549 
L 38.76031 30.012556 
L 39.69031 29.492467 
L 40.62031 29.001185 
L 41.55031 28.500368 
L 42.48031 27.965043 
L 43.41031 27.304289 
L 44.34031 26.990218 
L 45.27031 26.446648 
L 46.20031 25.908484 
L 47.13031 25.157028 
L 48.06031 24.320837 
L 48.99031 24.05935 
L 49.92031 22.12457 
L 50.85031 21.871226 
L 51.78031 21.781076 
L 52.71031 21.168657 
L 53.64031 20.710471 
L 54.57031 20.955362 
L 55.50031 21.697541 
L 56.43031 21.600412 
L 57.36031 20.56624 
L 58.29031 20.089754 
L 59.22031 19.817099 
L 60.15031 19.63989 
L 61.08031 18.482488 
L 62.01031 17.902499 
L 62.94031 17.875301 
L 63.87031 18.156768 
" style="fill:none;stroke:#fc8d62;stroke-linecap:square;stroke-width:2;"/>
   </g>
   <g id="line2d_8">
    <path clip-path="url(#pd041f18f38)" d="M 10.86031 62.865594 
L 11.79031 62.106053 
L 12.72031 61.825688 
L 13.65031 60.878133 
L 14.58031 60.165261 
L 15.51031 59.832563 
L 16.44031 59.727425 
L 17.37031 59.735384 
L 18.30031 59.203964 
L 19.23031 58.956601 
L 20.16031 58.516805 
L 21.09031 58.107707 
L 22.02031 57.513577 
L 22.95031 57.045128 
L 23.88031 56.559864 
L 24.81031 56.492558 
L 25.74031 56.066951 
L 26.67031 55.604022 
L 27.60031 55.017033 
L 28.53031 55.438751 
L 29.46031 55.465493 
L 30.39031 54.810349 
L 31.32031 55.017837 
L 32.25031 54.728379 
L 33.18031 54.44635 
L 34.11031 54.393914 
L 35.04031 54.52879 
L 35.97031 54.428575 
L 36.90031 54.252038 
L 37.83031 54.080737 
L 38.76031 53.840164 
L 39.69031 53.562726 
L 40.62031 53.15343 
L 41.55031 53.148017 
L 42.48031 52.796621 
L 43.41031 52.523584 
L 44.34031 52.309989 
L 45.27031 52.072619 
L 46.20031 52.11311 
L 47.13031 51.950346 
L 48.06031 51.880935 
L 48.99031 51.644793 
L 49.92031 51.343865 
L 50.85031 51.094572 
L 51.78031 51.183922 
L 52.71031 50.819898 
L 53.64031 50.864094 
L 54.57031 50.629994 
L 55.50031 50.510482 
L 56.43031 50.338254 
L 57.36031 49.779335 
L 58.29031 49.833574 
L 59.22031 49.830731 
L 60.15031 49.627346 
L 61.08031 49.320466 
L 62.01031 49.255555 
L 62.94031 49.431954 
L 63.87031 49.263648 
" style="fill:none;stroke:#fc8d62;stroke-dasharray:1.5,1.5;stroke-dashoffset:0;stroke-opacity:0.7;stroke-width:1.5;"/>
   </g>
   <g id="patch_3">
    <path d="M 9 67.68 
L 9 17.28 
" style="fill:none;stroke:#a9a9a9;stroke-linecap:square;stroke-linejoin:miter;stroke-width:2;"/>
   </g>
   <g id="patch_4">
    <path d="M 64.8 67.68 
L 64.8 17.28 
" style="fill:none;"/>
   </g>
   <g id="patch_5">
    <path d="M 9 67.68 
L 64.8 67.68 
" style="fill:none;stroke:#a9a9a9;stroke-linecap:square;stroke-linejoin:miter;stroke-width:2;"/>
   </g>
   <g id="patch_6">
    <path d="M 9 17.28 
L 64.8 17.28 
" style="fill:none;"/>
   </g>
  </g>
  <g id="axes_2">
   <g id="patch_7">
    <path d="M 9 128.16 
L 64.8 128.16 
L 64.8 77.76 
L 9 77.76 
z
" style="fill:none;"/>
   </g>
   <g id="matplotlib.axis_3">
    <g id="xtick_4">
     <g id="line2d_9">
      <g>
       <use style="fill:#a9a9a9;stroke:#a9a9a9;stroke-width:2;" x="9" xlink:href="#mc3df92b581" y="128.16"/>
      </g>
     </g>
    </g>
    <g id="xtick_5">
     <g id="line2d_10">
      <g>
       <use style="fill:#a9a9a9;stroke:#a9a9a9;stroke-width:2;" x="36.9" xlink:href="#mc3df92b581" y="128.16"/>
      </g>
     </g>
    </g>
    <g id="xtick_6">
     <g id="line2d_11">
      <g>
       <use style="fill:#a9a9a9;stroke:#a9a9a9;stroke-width:2;" x="64.8" xlink:href="#mc3df92b581" y="128.16"/>
      </g>
     </g>
    </g>
   </g>
   <g id="matplotlib.axis_4">
    <g id="ytick_4">
     <g id="line2d_12">
      <g>
       <use style="fill:#a9a9a9;stroke:#a9a9a9;stroke-width:2;" x="9" xlink:href="#mb0493d07e9" y="128.16"/>
      </g>
     </g>
    </g>
    <g id="ytick_5">
     <g id="line2d_13">
      <g>
       <use style="fill:#a9a9a9;stroke:#a9a9a9;stroke-width:2;" x="9" xlink:href="#mb0493d07e9" y="102.96"/>
      </g>
     </g>
    </g>
    <g id="ytick_6">
     <g id="line2d_14">
      <g>
       <use style="fill:#a9a9a9;stroke:#a9a9a9;stroke-width:2;" x="9" xlink:href="#mb0493d07e9" y="77.76"/>
      </g>
     </g>
    </g>
   </g>
   <g id="line2d_15">
    <path clip-path="url(#pf60cab1ab4)" d="M 10.86031 109.016724 
L 11.79031 105.598076 
L 12.72031 102.959099 
L 13.65031 101.305652 
L 14.58031 99.619031 
L 15.51031 98.471198 
L 16.44031 97.721575 
L 17.37031 97.020293 
L 18.30031 96.652342 
L 19.23031 96.248402 
L 20.16031 95.899143 
L 21.09031 95.728173 
L 22.02031 95.530935 
L 22.95031 95.48727 
L 23.88031 95.323377 
L 24.81031 94.948485 
L 25.74031 94.797118 
L 26.67031 94.626258 
L 27.60031 94.47794 
L 28.53031 94.304262 
L 29.46031 94.144358 
L 30.39031 93.933632 
L 31.32031 93.722736 
L 32.25031 93.595287 
L 33.18031 93.415584 
L 34.11031 93.315074 
L 35.04031 93.139676 
L 35.97031 93.071608 
L 36.90031 92.966408 
L 37.83031 92.915035 
L 38.76031 92.838071 
L 39.69031 92.702733 
L 40.62031 92.653178 
L 41.55031 92.513828 
L 42.48031 92.438331 
L 43.41031 92.350559 
L 44.34031 92.352751 
L 45.27031 92.333644 
L 46.20031 92.28306 
L 47.13031 92.300645 
L 48.06031 92.227639 
L 48.99031 92.221681 
L 49.92031 92.206372 
L 50.85031 92.194535 
L 51.78031 92.218049 
L 52.71031 92.159514 
L 53.64031 92.06117 
L 54.57031 92.039209 
L 55.50031 91.978394 
L 56.43031 92.016532 
L 57.36031 92.010085 
L 58.29031 91.952532 
L 59.22031 91.904365 
L 60.15031 91.9236 
L 61.08031 91.870925 
L 62.01031 91.82524 
L 62.94031 91.794325 
L 63.87031 91.787048 
" style="fill:none;stroke:#fc8d62;stroke-linecap:square;stroke-width:2;"/>
   </g>
   <g id="line2d_16">
    <path clip-path="url(#pf60cab1ab4)" d="M 10.86031 119.756206 
L 11.79031 116.764173 
L 12.72031 114.148705 
L 13.65031 111.521543 
L 14.58031 109.700087 
L 15.51031 108.291017 
L 16.44031 107.671237 
L 17.37031 106.942129 
L 18.30031 105.91975 
L 19.23031 105.034203 
L 20.16031 103.857144 
L 21.09031 103.304866 
L 22.02031 102.452363 
L 22.95031 101.826682 
L 23.88031 101.52526 
L 24.81031 101.019318 
L 25.74031 100.299535 
L 26.67031 99.856789 
L 27.60031 99.406395 
L 28.53031 99.358078 
L 29.46031 99.09098 
L 30.39031 98.513765 
L 31.32031 98.354193 
L 32.25031 98.097427 
L 33.18031 97.837909 
L 34.11031 97.525963 
L 35.04031 97.451039 
L 35.97031 97.3848 
L 36.90031 97.284567 
L 37.83031 97.04671 
L 38.76031 96.747452 
L 39.69031 96.698468 
L 40.62031 96.372351 
L 41.55031 96.340462 
L 42.48031 96.102268 
L 43.41031 96.067444 
L 44.34031 95.956165 
L 45.27031 95.765794 
L 46.20031 95.682552 
L 47.13031 95.598685 
L 48.06031 95.422724 
L 48.99031 95.29471 
L 49.92031 95.250825 
L 50.85031 95.14893 
L 51.78031 95.122705 
L 52.71031 94.960941 
L 53.64031 94.890004 
L 54.57031 94.742108 
L 55.50031 94.623428 
L 56.43031 94.530266 
L 57.36031 94.387316 
L 58.29031 94.33291 
L 59.22031 94.262018 
L 60.15031 94.273727 
L 61.08031 94.23094 
L 62.01031 94.17167 
L 62.94031 94.330801 
L 63.87031 94.273737 
" style="fill:none;stroke:#fc8d62;stroke-dasharray:1.5,1.5;stroke-dashoffset:0;stroke-opacity:0.7;stroke-width:1.5;"/>
   </g>
   <g id="patch_8">
    <path d="M 9 128.16 
L 9 77.76 
" style="fill:none;stroke:#a9a9a9;stroke-linecap:square;stroke-linejoin:miter;stroke-width:2;"/>
   </g>
   <g id="patch_9">
    <path d="M 64.8 128.16 
L 64.8 77.76 
" style="fill:none;"/>
   </g>
   <g id="patch_10">
    <path d="M 9 128.16 
L 64.8 128.16 
" style="fill:none;stroke:#a9a9a9;stroke-linecap:square;stroke-linejoin:miter;stroke-width:2;"/>
   </g>
   <g id="patch_11">
    <path d="M 9 77.76 
L 64.8 77.76 
" style="fill:none;"/>
   </g>
  </g>
 </g>
 <defs>
  <clipPath id="pd041f18f38">
   <rect height="50.4" width="55.8" x="9" y="17.28"/>
  </clipPath>
  <clipPath id="pf60cab1ab4">
   <rect height="50.4" width="55.8" x="9" y="77.76"/>
  </clipPath>
 </defs>
</svg>
