<?xml version="1.0" encoding="utf-8" standalone="no"?>
<!DOCTYPE svg PUBLIC "-//W3C//DTD SVG 1.1//EN"
  "http://www.w3.org/Graphics/SVG/1.1/DTD/svg11.dtd">
<!-- Created with matplotlib (https://matplotlib.org/) -->
<svg height="144pt" version="1.1" viewBox="0 0 72 144" width="72pt" xmlns="http://www.w3.org/2000/svg" xmlns:xlink="http://www.w3.org/1999/xlink">
 <metadata>
  <rdf:RDF xmlns:cc="http://creativecommons.org/ns#" xmlns:dc="http://purl.org/dc/elements/1.1/" xmlns:rdf="http://www.w3.org/1999/02/22-rdf-syntax-ns#">
   <cc:Work>
    <dc:type rdf:resource="http://purl.org/dc/dcmitype/StillImage"/>
    <dc:date>2021-10-11T20:20:46.127576</dc:date>
    <dc:format>image/svg+xml</dc:format>
    <dc:creator>
     <cc:Agent>
      <dc:title>Matplotlib v3.3.2, https://matplotlib.org/</dc:title>
     </cc:Agent>
    </dc:creator>
   </cc:Work>
  </rdf:RDF>
 </metadata>
 <defs>
  <style type="text/css">*{stroke-linecap:butt;stroke-linejoin:round;}</style>
 </defs>
 <g id="figure_1">
  <g id="patch_1">
   <path d="M 0 144 
L 72 144 
L 72 0 
L 0 0 
z
" style="fill:none;"/>
  </g>
  <g id="axes_1">
   <g id="patch_2">
    <path d="M 9 67.68 
L 64.8 67.68 
L 64.8 17.28 
L 9 17.28 
z
" style="fill:none;"/>
   </g>
   <g id="matplotlib.axis_1">
    <g id="xtick_1">
     <g id="line2d_1">
      <defs>
       <path d="M 0 0 
L 0 3.5 
" id="maa55662ed7" style="stroke:#a9a9a9;stroke-width:2;"/>
      </defs>
      <g>
       <use style="fill:#a9a9a9;stroke:#a9a9a9;stroke-width:2;" x="9" xlink:href="#maa55662ed7" y="67.68"/>
      </g>
     </g>
    </g>
    <g id="xtick_2">
     <g id="line2d_2">
      <g>
       <use style="fill:#a9a9a9;stroke:#a9a9a9;stroke-width:2;" x="36.9" xlink:href="#maa55662ed7" y="67.68"/>
      </g>
     </g>
    </g>
    <g id="xtick_3">
     <g id="line2d_3">
      <g>
       <use style="fill:#a9a9a9;stroke:#a9a9a9;stroke-width:2;" x="64.8" xlink:href="#maa55662ed7" y="67.68"/>
      </g>
     </g>
    </g>
   </g>
   <g id="matplotlib.axis_2">
    <g id="ytick_1">
     <g id="line2d_4">
      <defs>
       <path d="M 0 0 
L -3.5 0 
" id="m7bec9519fe" style="stroke:#a9a9a9;stroke-width:2;"/>
      </defs>
      <g>
       <use style="fill:#a9a9a9;stroke:#a9a9a9;stroke-width:2;" x="9" xlink:href="#m7bec9519fe" y="67.68"/>
      </g>
     </g>
    </g>
    <g id="ytick_2">
     <g id="line2d_5">
      <g>
       <use style="fill:#a9a9a9;stroke:#a9a9a9;stroke-width:2;" x="9" xlink:href="#m7bec9519fe" y="58.032635"/>
      </g>
     </g>
    </g>
    <g id="ytick_3">
     <g id="line2d_6">
      <g>
       <use style="fill:#a9a9a9;stroke:#a9a9a9;stroke-width:2;" x="9" xlink:href="#m7bec9519fe" y="48.38527"/>
      </g>
     </g>
    </g>
   </g>
   <g id="line2d_7">
    <path clip-path="url(#pb22e1eb011)" d="M 10.86031 57.723009 
L 11.79031 55.404721 
L 12.72031 53.935493 
L 13.65031 52.136259 
L 14.58031 51.616852 
L 15.51031 50.628143 
L 16.44031 49.411291 
L 17.37031 48.351803 
L 18.30031 46.593396 
L 19.23031 46.224242 
L 20.16031 45.242343 
L 21.09031 43.829973 
L 22.02031 43.238738 
L 22.95031 42.116106 
L 23.88031 41.363912 
L 24.81031 40.539641 
L 25.74031 39.263918 
L 26.67031 38.335203 
L 27.60031 38.389825 
L 28.53031 37.741443 
L 29.46031 38.154814 
L 30.39031 37.794568 
L 31.32031 36.957748 
L 32.25031 36.527698 
L 33.18031 35.622735 
L 34.11031 34.867515 
L 35.04031 34.24945 
L 35.97031 33.721454 
L 36.90031 33.639326 
L 37.83031 33.553807 
L 38.76031 32.884561 
L 39.69031 32.348158 
L 40.62031 31.981442 
L 41.55031 31.230839 
L 42.48031 30.571789 
L 43.41031 29.893334 
L 44.34031 29.412869 
L 45.27031 29.343745 
L 46.20031 28.885947 
L 47.13031 27.636705 
L 48.06031 27.535745 
L 48.99031 27.204149 
L 49.92031 26.333336 
L 50.85031 25.616239 
L 51.78031 24.842393 
L 52.71031 23.913986 
L 53.64031 23.876318 
L 54.57031 23.56886 
L 55.50031 22.914126 
L 56.43031 21.504709 
L 57.36031 21.004233 
L 58.29031 20.464281 
L 59.22031 20.168532 
L 60.15031 19.107342 
L 61.08031 18.551502 
L 62.01031 18.028496 
L 62.94031 17.762368 
L 63.87031 17.763078 
" style="fill:none;stroke:#fc8d62;stroke-linecap:square;stroke-width:2;"/>
   </g>
   <g id="line2d_8">
    <path clip-path="url(#pb22e1eb011)" d="M 10.86031 62.683341 
L 11.79031 61.438261 
L 12.72031 60.844889 
L 13.65031 60.098335 
L 14.58031 59.112753 
L 15.51031 58.308717 
L 16.44031 57.850968 
L 17.37031 57.722746 
L 18.30031 57.123109 
L 19.23031 56.384934 
L 20.16031 55.768664 
L 21.09031 55.524454 
L 22.02031 55.260188 
L 22.95031 55.028758 
L 23.88031 54.642084 
L 24.81031 54.303669 
L 25.74031 53.929457 
L 26.67031 53.622976 
L 27.60031 53.431156 
L 28.53031 52.619376 
L 29.46031 52.779184 
L 30.39031 52.752247 
L 31.32031 52.316452 
L 32.25031 52.114545 
L 33.18031 51.984164 
L 34.11031 51.810538 
L 35.04031 51.550977 
L 35.97031 51.474396 
L 36.90031 51.330456 
L 37.83031 51.260066 
L 38.76031 50.781565 
L 39.69031 50.751612 
L 40.62031 50.636124 
L 41.55031 50.377805 
L 42.48031 49.977725 
L 43.41031 49.708158 
L 44.34031 49.522675 
L 45.27031 49.069789 
L 46.20031 48.610387 
L 47.13031 48.281582 
L 48.06031 48.035667 
L 48.99031 47.564416 
L 49.92031 47.041332 
L 50.85031 46.592917 
L 51.78031 46.314346 
L 52.71031 46.044417 
L 53.64031 46.170977 
L 54.57031 45.858822 
L 55.50031 46.108442 
L 56.43031 45.749921 
L 57.36031 45.753126 
L 58.29031 45.681817 
L 59.22031 45.37962 
L 60.15031 44.996367 
L 61.08031 44.787211 
L 62.01031 44.839581 
L 62.94031 44.630858 
L 63.87031 44.507116 
" style="fill:none;stroke:#fc8d62;stroke-dasharray:1.5,1.5;stroke-dashoffset:0;stroke-opacity:0.7;stroke-width:1.5;"/>
   </g>
   <g id="patch_3">
    <path d="M 9 67.68 
L 9 17.28 
" style="fill:none;stroke:#a9a9a9;stroke-linecap:square;stroke-linejoin:miter;stroke-width:2;"/>
   </g>
   <g id="patch_4">
    <path d="M 64.8 67.68 
L 64.8 17.28 
" style="fill:none;"/>
   </g>
   <g id="patch_5">
    <path d="M 9 67.68 
L 64.8 67.68 
" style="fill:none;stroke:#a9a9a9;stroke-linecap:square;stroke-linejoin:miter;stroke-width:2;"/>
   </g>
   <g id="patch_6">
    <path d="M 9 17.28 
L 64.8 17.28 
" style="fill:none;"/>
   </g>
  </g>
  <g id="axes_2">
   <g id="patch_7">
    <path d="M 9 128.16 
L 64.8 128.16 
L 64.8 77.76 
L 9 77.76 
z
" style="fill:none;"/>
   </g>
   <g id="matplotlib.axis_3">
    <g id="xtick_4">
     <g id="line2d_9">
      <g>
       <use style="fill:#a9a9a9;stroke:#a9a9a9;stroke-width:2;" x="9" xlink:href="#maa55662ed7" y="128.16"/>
      </g>
     </g>
    </g>
    <g id="xtick_5">
     <g id="line2d_10">
      <g>
       <use style="fill:#a9a9a9;stroke:#a9a9a9;stroke-width:2;" x="36.9" xlink:href="#maa55662ed7" y="128.16"/>
      </g>
     </g>
    </g>
    <g id="xtick_6">
     <g id="line2d_11">
      <g>
       <use style="fill:#a9a9a9;stroke:#a9a9a9;stroke-width:2;" x="64.8" xlink:href="#maa55662ed7" y="128.16"/>
      </g>
     </g>
    </g>
   </g>
   <g id="matplotlib.axis_4">
    <g id="ytick_4">
     <g id="line2d_12">
      <g>
       <use style="fill:#a9a9a9;stroke:#a9a9a9;stroke-width:2;" x="9" xlink:href="#m7bec9519fe" y="128.16"/>
      </g>
     </g>
    </g>
    <g id="ytick_5">
     <g id="line2d_13">
      <g>
       <use style="fill:#a9a9a9;stroke:#a9a9a9;stroke-width:2;" x="9" xlink:href="#m7bec9519fe" y="102.96"/>
      </g>
     </g>
    </g>
    <g id="ytick_6">
     <g id="line2d_14">
      <g>
       <use style="fill:#a9a9a9;stroke:#a9a9a9;stroke-width:2;" x="9" xlink:href="#m7bec9519fe" y="77.76"/>
      </g>
     </g>
    </g>
   </g>
   <g id="line2d_15">
    <path clip-path="url(#pe75770f979)" d="M 10.86031 103.197052 
L 11.79031 100.04263 
L 12.72031 98.19929 
L 13.65031 96.845822 
L 14.58031 95.871843 
L 15.51031 95.303117 
L 16.44031 94.844713 
L 17.37031 94.603289 
L 18.30031 94.070757 
L 19.23031 93.848383 
L 20.16031 93.607518 
L 21.09031 93.257672 
L 22.02031 93.159115 
L 22.95031 92.862377 
L 23.88031 92.629441 
L 24.81031 92.444284 
L 25.74031 92.149497 
L 26.67031 92.117392 
L 27.60031 91.959442 
L 28.53031 92.020737 
L 29.46031 91.937626 
L 30.39031 91.840044 
L 31.32031 91.784249 
L 32.25031 91.757389 
L 33.18031 91.660601 
L 34.11031 91.569694 
L 35.04031 91.476259 
L 35.97031 91.525859 
L 36.90031 91.484557 
L 37.83031 91.530325 
L 38.76031 91.516914 
L 39.69031 91.412996 
L 40.62031 91.35151 
L 41.55031 91.371576 
L 42.48031 91.287595 
L 43.41031 91.203941 
L 44.34031 91.160333 
L 45.27031 91.128132 
L 46.20031 91.119724 
L 47.13031 91.095808 
L 48.06031 91.075322 
L 48.99031 91.071254 
L 49.92031 91.057137 
L 50.85031 91.05529 
L 51.78031 91.008994 
L 52.71031 90.918357 
L 53.64031 90.920184 
L 54.57031 90.915797 
L 55.50031 90.88433 
L 56.43031 90.910506 
L 57.36031 90.922839 
L 58.29031 90.902525 
L 59.22031 90.915703 
L 60.15031 90.868111 
L 61.08031 90.827018 
L 62.01031 90.773926 
L 62.94031 90.711909 
L 63.87031 90.701455 
" style="fill:none;stroke:#fc8d62;stroke-linecap:square;stroke-width:2;"/>
   </g>
   <g id="line2d_16">
    <path clip-path="url(#pe75770f979)" d="M 10.86031 113.032736 
L 11.79031 109.453115 
L 12.72031 107.398941 
L 13.65031 105.612993 
L 14.58031 104.006137 
L 15.51031 102.26682 
L 16.44031 101.112073 
L 17.37031 100.565029 
L 18.30031 99.364288 
L 19.23031 98.687786 
L 20.16031 97.75774 
L 21.09031 97.461719 
L 22.02031 96.787298 
L 22.95031 96.337259 
L 23.88031 95.686014 
L 24.81031 95.336348 
L 25.74031 94.785942 
L 26.67031 94.198794 
L 27.60031 93.78183 
L 28.53031 93.368017 
L 29.46031 93.246379 
L 30.39031 93.222434 
L 31.32031 93.019287 
L 32.25031 92.660599 
L 33.18031 92.594478 
L 34.11031 92.459878 
L 35.04031 92.400613 
L 35.97031 92.064097 
L 36.90031 91.859992 
L 37.83031 91.823008 
L 38.76031 91.597325 
L 39.69031 91.604755 
L 40.62031 91.63091 
L 41.55031 91.605047 
L 42.48031 91.361233 
L 43.41031 91.215492 
L 44.34031 91.114278 
L 45.27031 90.927856 
L 46.20031 90.800556 
L 47.13031 90.712526 
L 48.06031 90.622799 
L 48.99031 90.594647 
L 49.92031 90.506119 
L 50.85031 90.419344 
L 51.78031 90.288109 
L 52.71031 90.247206 
L 53.64031 90.190576 
L 54.57031 90.136031 
L 55.50031 90.181014 
L 56.43031 90.118663 
L 57.36031 90.074797 
L 58.29031 90.034419 
L 59.22031 89.991378 
L 60.15031 89.909544 
L 61.08031 89.837217 
L 62.01031 89.881147 
L 62.94031 89.807794 
L 63.87031 89.812156 
" style="fill:none;stroke:#fc8d62;stroke-dasharray:1.5,1.5;stroke-dashoffset:0;stroke-opacity:0.7;stroke-width:1.5;"/>
   </g>
   <g id="patch_8">
    <path d="M 9 128.16 
L 9 77.76 
" style="fill:none;stroke:#a9a9a9;stroke-linecap:square;stroke-linejoin:miter;stroke-width:2;"/>
   </g>
   <g id="patch_9">
    <path d="M 64.8 128.16 
L 64.8 77.76 
" style="fill:none;"/>
   </g>
   <g id="patch_10">
    <path d="M 9 128.16 
L 64.8 128.16 
" style="fill:none;stroke:#a9a9a9;stroke-linecap:square;stroke-linejoin:miter;stroke-width:2;"/>
   </g>
   <g id="patch_11">
    <path d="M 9 77.76 
L 64.8 77.76 
" style="fill:none;"/>
   </g>
  </g>
 </g>
 <defs>
  <clipPath id="pb22e1eb011">
   <rect height="50.4" width="55.8" x="9" y="17.28"/>
  </clipPath>
  <clipPath id="pe75770f979">
   <rect height="50.4" width="55.8" x="9" y="77.76"/>
  </clipPath>
 </defs>
</svg>
