<?xml version="1.0" encoding="utf-8" standalone="no"?>
<!DOCTYPE svg PUBLIC "-//W3C//DTD SVG 1.1//EN"
  "http://www.w3.org/Graphics/SVG/1.1/DTD/svg11.dtd">
<!-- Created with matplotlib (https://matplotlib.org/) -->
<svg height="144pt" version="1.1" viewBox="0 0 72 144" width="72pt" xmlns="http://www.w3.org/2000/svg" xmlns:xlink="http://www.w3.org/1999/xlink">
 <metadata>
  <rdf:RDF xmlns:cc="http://creativecommons.org/ns#" xmlns:dc="http://purl.org/dc/elements/1.1/" xmlns:rdf="http://www.w3.org/1999/02/22-rdf-syntax-ns#">
   <cc:Work>
    <dc:type rdf:resource="http://purl.org/dc/dcmitype/StillImage"/>
    <dc:date>2021-10-14T17:56:55.513812</dc:date>
    <dc:format>image/svg+xml</dc:format>
    <dc:creator>
     <cc:Agent>
      <dc:title>Matplotlib v3.3.2, https://matplotlib.org/</dc:title>
     </cc:Agent>
    </dc:creator>
   </cc:Work>
  </rdf:RDF>
 </metadata>
 <defs>
  <style type="text/css">*{stroke-linecap:butt;stroke-linejoin:round;}</style>
 </defs>
 <g id="figure_1">
  <g id="patch_1">
   <path d="M 0 144 
L 72 144 
L 72 0 
L 0 0 
z
" style="fill:none;"/>
  </g>
  <g id="axes_1">
   <g id="patch_2">
    <path d="M 9 67.68 
L 64.8 67.68 
L 64.8 17.28 
L 9 17.28 
z
" style="fill:none;"/>
   </g>
   <g id="matplotlib.axis_1">
    <g id="xtick_1">
     <g id="line2d_1">
      <defs>
       <path d="M 0 0 
L 0 3.5 
" id="m193b7a0eb5" style="stroke:#a9a9a9;stroke-width:2;"/>
      </defs>
      <g>
       <use style="fill:#a9a9a9;stroke:#a9a9a9;stroke-width:2;" x="9" xlink:href="#m193b7a0eb5" y="67.68"/>
      </g>
     </g>
    </g>
    <g id="xtick_2">
     <g id="line2d_2">
      <g>
       <use style="fill:#a9a9a9;stroke:#a9a9a9;stroke-width:2;" x="36.9" xlink:href="#m193b7a0eb5" y="67.68"/>
      </g>
     </g>
    </g>
    <g id="xtick_3">
     <g id="line2d_3">
      <g>
       <use style="fill:#a9a9a9;stroke:#a9a9a9;stroke-width:2;" x="64.8" xlink:href="#m193b7a0eb5" y="67.68"/>
      </g>
     </g>
    </g>
   </g>
   <g id="matplotlib.axis_2">
    <g id="ytick_1">
     <g id="line2d_4">
      <defs>
       <path d="M 0 0 
L -3.5 0 
" id="m9965cd4aa9" style="stroke:#a9a9a9;stroke-width:2;"/>
      </defs>
      <g>
       <use style="fill:#a9a9a9;stroke:#a9a9a9;stroke-width:2;" x="9" xlink:href="#m9965cd4aa9" y="67.68"/>
      </g>
     </g>
    </g>
    <g id="ytick_2">
     <g id="line2d_5">
      <g>
       <use style="fill:#a9a9a9;stroke:#a9a9a9;stroke-width:2;" x="9" xlink:href="#m9965cd4aa9" y="42.48"/>
      </g>
     </g>
    </g>
    <g id="ytick_3">
     <g id="line2d_6">
      <g>
       <use style="fill:#a9a9a9;stroke:#a9a9a9;stroke-width:2;" x="9" xlink:href="#m9965cd4aa9" y="17.28"/>
      </g>
     </g>
    </g>
   </g>
   <g id="line2d_7">
    <path clip-path="url(#p56d4007237)" d="M 10.860031 59.234637 
L 11.790031 60.474289 
L 12.720031 60.945036 
L 13.650031 61.441975 
L 14.580031 62.245897 
L 15.510031 61.440332 
L 16.440031 60.629809 
L 17.370031 60.052266 
L 18.300031 60.19884 
L 19.230031 59.898803 
L 20.160031 59.804607 
L 21.090031 60.325904 
L 22.020031 60.911404 
L 22.950031 60.633807 
L 23.880031 60.021409 
L 24.810031 60.161817 
L 25.740031 59.796903 
L 26.670031 59.453574 
L 27.600031 59.711758 
L 28.530031 58.518539 
L 29.460031 58.791732 
L 30.390031 58.90225 
L 31.320031 58.904279 
L 32.250031 58.837484 
L 33.180031 58.700978 
L 34.110031 57.96878 
L 35.040031 57.631211 
L 35.970031 57.824159 
L 36.900031 57.032566 
L 37.830031 56.747515 
L 38.760031 56.256064 
L 39.690031 56.768572 
L 40.620031 56.585876 
L 41.550031 57.026626 
L 42.480031 57.095548 
L 43.410031 57.054334 
L 44.340031 57.141596 
L 45.270031 57.170035 
L 46.200031 57.298225 
L 47.130031 56.934994 
L 48.060031 55.95324 
L 48.990031 56.348823 
L 49.920031 56.297067 
L 50.850031 56.521192 
L 51.780031 56.450674 
L 52.710031 56.384693 
L 53.640031 55.843454 
L 54.570031 55.733068 
L 55.500031 55.904978 
L 56.430031 55.875208 
L 57.360031 55.587711 
L 58.290031 55.502151 
L 59.220031 55.404675 
L 60.150031 55.590628 
L 61.080031 55.167393 
L 62.010031 54.981436 
L 62.940031 54.692642 
L 63.870031 55.106317 
" style="fill:none;stroke:#fc8d62;stroke-linecap:square;stroke-width:2;"/>
   </g>
   <g id="line2d_8">
    <path clip-path="url(#p56d4007237)" d="M 10.860031 55.431133 
L 11.790031 58.13735 
L 12.720031 59.492321 
L 13.650031 60.577434 
L 14.580031 61.069461 
L 15.510031 60.688055 
L 16.440031 61.552424 
L 17.370031 62.059603 
L 18.300031 61.643818 
L 19.230031 60.727934 
L 20.160031 61.054882 
L 21.090031 62.034221 
L 22.020031 62.519279 
L 22.950031 62.617912 
L 23.880031 62.20827 
L 24.810031 63.030599 
L 25.740031 62.664707 
L 26.670031 62.956053 
L 27.600031 63.453476 
L 28.530031 62.967588 
L 29.460031 62.758223 
L 30.390031 62.620644 
L 31.320031 62.451303 
L 32.250031 62.63735 
L 33.180031 61.957075 
L 34.110031 61.894362 
L 35.040031 61.777671 
L 35.970031 61.818034 
L 36.900031 62.186063 
L 37.830031 61.856012 
L 38.760031 61.579254 
L 39.690031 61.473257 
L 40.620031 60.814528 
L 41.550031 60.79582 
L 42.480031 60.980093 
L 43.410031 61.309178 
L 44.340031 61.660779 
L 45.270031 60.939593 
L 46.200031 61.198472 
L 47.130031 61.235638 
L 48.060031 61.522264 
L 48.990031 61.425638 
L 49.920031 61.126996 
L 50.850031 61.202858 
L 51.780031 61.819585 
L 52.710031 61.76193 
L 53.640031 61.719265 
L 54.570031 61.752763 
L 55.500031 61.842137 
L 56.430031 61.404125 
L 57.360031 61.581218 
L 58.290031 61.578537 
L 59.220031 61.29561 
L 60.150031 61.491109 
L 61.080031 61.609936 
L 62.010031 61.423844 
L 62.940031 61.68586 
L 63.870031 61.830604 
" style="fill:none;stroke:#fc8d62;stroke-dasharray:1.5,1.5;stroke-dashoffset:0;stroke-opacity:0.7;stroke-width:1.5;"/>
   </g>
   <g id="patch_3">
    <path d="M 9 67.68 
L 9 17.28 
" style="fill:none;stroke:#a9a9a9;stroke-linecap:square;stroke-linejoin:miter;stroke-width:2;"/>
   </g>
   <g id="patch_4">
    <path d="M 64.8 67.68 
L 64.8 17.28 
" style="fill:none;"/>
   </g>
   <g id="patch_5">
    <path d="M 9 67.68 
L 64.8 67.68 
" style="fill:none;stroke:#a9a9a9;stroke-linecap:square;stroke-linejoin:miter;stroke-width:2;"/>
   </g>
   <g id="patch_6">
    <path d="M 9 17.28 
L 64.8 17.28 
" style="fill:none;"/>
   </g>
  </g>
  <g id="axes_2">
   <g id="patch_7">
    <path d="M 9 128.16 
L 64.8 128.16 
L 64.8 77.76 
L 9 77.76 
z
" style="fill:none;"/>
   </g>
   <g id="matplotlib.axis_3">
    <g id="xtick_4">
     <g id="line2d_9">
      <g>
       <use style="fill:#a9a9a9;stroke:#a9a9a9;stroke-width:2;" x="9" xlink:href="#m193b7a0eb5" y="128.16"/>
      </g>
     </g>
    </g>
    <g id="xtick_5">
     <g id="line2d_10">
      <g>
       <use style="fill:#a9a9a9;stroke:#a9a9a9;stroke-width:2;" x="36.9" xlink:href="#m193b7a0eb5" y="128.16"/>
      </g>
     </g>
    </g>
    <g id="xtick_6">
     <g id="line2d_11">
      <g>
       <use style="fill:#a9a9a9;stroke:#a9a9a9;stroke-width:2;" x="64.8" xlink:href="#m193b7a0eb5" y="128.16"/>
      </g>
     </g>
    </g>
   </g>
   <g id="matplotlib.axis_4">
    <g id="ytick_4">
     <g id="line2d_12">
      <g>
       <use style="fill:#a9a9a9;stroke:#a9a9a9;stroke-width:2;" x="9" xlink:href="#m9965cd4aa9" y="128.16"/>
      </g>
     </g>
    </g>
    <g id="ytick_5">
     <g id="line2d_13">
      <g>
       <use style="fill:#a9a9a9;stroke:#a9a9a9;stroke-width:2;" x="9" xlink:href="#m9965cd4aa9" y="102.96"/>
      </g>
     </g>
    </g>
    <g id="ytick_6">
     <g id="line2d_14">
      <g>
       <use style="fill:#a9a9a9;stroke:#a9a9a9;stroke-width:2;" x="9" xlink:href="#m9965cd4aa9" y="77.76"/>
      </g>
     </g>
    </g>
   </g>
   <g id="line2d_15">
    <path clip-path="url(#p44c8e36447)" d="M 10.860031 127.845267 
L 11.790031 127.926911 
L 12.720031 127.985602 
L 13.650031 128.018482 
L 14.580031 128.084745 
L 15.510031 128.049944 
L 16.440031 128.015922 
L 17.370031 127.950976 
L 18.300031 128.00657 
L 19.230031 127.96747 
L 20.160031 127.95762 
L 21.090031 127.988761 
L 22.020031 127.98807 
L 22.950031 127.967619 
L 23.880031 127.962111 
L 24.810031 127.932192 
L 25.740031 127.908908 
L 26.670031 127.932329 
L 27.600031 127.903916 
L 28.530031 127.879284 
L 29.460031 127.880519 
L 30.390031 127.873127 
L 31.320031 127.835792 
L 32.250031 127.820224 
L 33.180031 127.792308 
L 34.110031 127.767466 
L 35.040031 127.745259 
L 35.970031 127.774064 
L 36.900031 127.74447 
L 37.830031 127.767987 
L 38.760031 127.747857 
L 39.690031 127.742431 
L 40.620031 127.734062 
L 41.550031 127.748584 
L 42.480031 127.741289 
L 43.410031 127.772115 
L 44.340031 127.767536 
L 45.270031 127.766746 
L 46.200031 127.733154 
L 47.130031 127.720646 
L 48.060031 127.705294 
L 48.990031 127.687375 
L 49.920031 127.676641 
L 50.850031 127.705865 
L 51.780031 127.709325 
L 52.710031 127.70807 
L 53.640031 127.694935 
L 54.570031 127.699754 
L 55.500031 127.717566 
L 56.430031 127.733022 
L 57.360031 127.695501 
L 58.290031 127.696698 
L 59.220031 127.692117 
L 60.150031 127.687431 
L 61.080031 127.629453 
L 62.010031 127.631351 
L 62.940031 127.636701 
L 63.870031 127.637618 
" style="fill:none;stroke:#fc8d62;stroke-linecap:square;stroke-width:2;"/>
   </g>
   <g id="line2d_16">
    <path clip-path="url(#p44c8e36447)" d="M 10.860031 128.103716 
L 11.790031 128.135933 
L 12.720031 128.159987 
L 13.650031 128.14895 
L 14.580031 128.123353 
L 15.510031 128.1327 
L 16.440031 128.142038 
L 17.370031 128.136285 
L 18.300031 128.072243 
L 19.230031 128.027204 
L 20.160031 128.012378 
L 21.090031 127.979669 
L 22.020031 127.941148 
L 22.950031 127.895693 
L 23.880031 127.867186 
L 24.810031 127.871719 
L 25.740031 127.785344 
L 26.670031 127.791329 
L 27.600031 127.753101 
L 28.530031 127.681508 
L 29.460031 127.636211 
L 30.390031 127.609268 
L 31.320031 127.551243 
L 32.250031 127.555253 
L 33.180031 127.529782 
L 34.110031 127.508067 
L 35.040031 127.506408 
L 35.970031 127.489258 
L 36.900031 127.499686 
L 37.830031 127.49084 
L 38.760031 127.466548 
L 39.690031 127.402804 
L 40.620031 127.394014 
L 41.550031 127.390392 
L 42.480031 127.390684 
L 43.410031 127.351551 
L 44.340031 127.321714 
L 45.270031 127.351124 
L 46.200031 127.254378 
L 47.130031 127.17281 
L 48.060031 127.161345 
L 48.990031 127.123756 
L 49.920031 127.171612 
L 50.850031 127.156943 
L 51.780031 127.123964 
L 52.710031 127.121313 
L 53.640031 127.110185 
L 54.570031 127.144218 
L 55.500031 127.026057 
L 56.430031 127.020645 
L 57.360031 127.025412 
L 58.290031 126.921218 
L 59.220031 126.905786 
L 60.150031 126.865819 
L 61.080031 126.81725 
L 62.010031 126.756589 
L 62.940031 126.770281 
L 63.870031 126.701258 
" style="fill:none;stroke:#fc8d62;stroke-dasharray:1.5,1.5;stroke-dashoffset:0;stroke-opacity:0.7;stroke-width:1.5;"/>
   </g>
   <g id="patch_8">
    <path d="M 9 128.16 
L 9 77.76 
" style="fill:none;stroke:#a9a9a9;stroke-linecap:square;stroke-linejoin:miter;stroke-width:2;"/>
   </g>
   <g id="patch_9">
    <path d="M 64.8 128.16 
L 64.8 77.76 
" style="fill:none;"/>
   </g>
   <g id="patch_10">
    <path d="M 9 128.16 
L 64.8 128.16 
" style="fill:none;stroke:#a9a9a9;stroke-linecap:square;stroke-linejoin:miter;stroke-width:2;"/>
   </g>
   <g id="patch_11">
    <path d="M 9 77.76 
L 64.8 77.76 
" style="fill:none;"/>
   </g>
  </g>
 </g>
 <defs>
  <clipPath id="p56d4007237">
   <rect height="50.4" width="55.8" x="9" y="17.28"/>
  </clipPath>
  <clipPath id="p44c8e36447">
   <rect height="50.4" width="55.8" x="9" y="77.76"/>
  </clipPath>
 </defs>
</svg>
