<?xml version="1.0" encoding="utf-8" standalone="no"?>
<!DOCTYPE svg PUBLIC "-//W3C//DTD SVG 1.1//EN"
  "http://www.w3.org/Graphics/SVG/1.1/DTD/svg11.dtd">
<!-- Created with matplotlib (https://matplotlib.org/) -->
<svg height="144pt" version="1.1" viewBox="0 0 72 144" width="72pt" xmlns="http://www.w3.org/2000/svg" xmlns:xlink="http://www.w3.org/1999/xlink">
 <metadata>
  <rdf:RDF xmlns:cc="http://creativecommons.org/ns#" xmlns:dc="http://purl.org/dc/elements/1.1/" xmlns:rdf="http://www.w3.org/1999/02/22-rdf-syntax-ns#">
   <cc:Work>
    <dc:type rdf:resource="http://purl.org/dc/dcmitype/StillImage"/>
    <dc:date>2021-10-13T14:18:44.218986</dc:date>
    <dc:format>image/svg+xml</dc:format>
    <dc:creator>
     <cc:Agent>
      <dc:title>Matplotlib v3.3.2, https://matplotlib.org/</dc:title>
     </cc:Agent>
    </dc:creator>
   </cc:Work>
  </rdf:RDF>
 </metadata>
 <defs>
  <style type="text/css">*{stroke-linecap:butt;stroke-linejoin:round;}</style>
 </defs>
 <g id="figure_1">
  <g id="patch_1">
   <path d="M 0 144 
L 72 144 
L 72 0 
L 0 0 
z
" style="fill:none;"/>
  </g>
  <g id="axes_1">
   <g id="patch_2">
    <path d="M 9 67.68 
L 64.8 67.68 
L 64.8 17.28 
L 9 17.28 
z
" style="fill:none;"/>
   </g>
   <g id="matplotlib.axis_1">
    <g id="xtick_1">
     <g id="line2d_1">
      <defs>
       <path d="M 0 0 
L 0 3.5 
" id="ma3c6b3e9d3" style="stroke:#a9a9a9;stroke-width:2;"/>
      </defs>
      <g>
       <use style="fill:#a9a9a9;stroke:#a9a9a9;stroke-width:2;" x="9" xlink:href="#ma3c6b3e9d3" y="67.68"/>
      </g>
     </g>
    </g>
    <g id="xtick_2">
     <g id="line2d_2">
      <g>
       <use style="fill:#a9a9a9;stroke:#a9a9a9;stroke-width:2;" x="36.9" xlink:href="#ma3c6b3e9d3" y="67.68"/>
      </g>
     </g>
    </g>
    <g id="xtick_3">
     <g id="line2d_3">
      <g>
       <use style="fill:#a9a9a9;stroke:#a9a9a9;stroke-width:2;" x="64.8" xlink:href="#ma3c6b3e9d3" y="67.68"/>
      </g>
     </g>
    </g>
   </g>
   <g id="matplotlib.axis_2">
    <g id="ytick_1">
     <g id="line2d_4">
      <defs>
       <path d="M 0 0 
L -3.5 0 
" id="m3dc628eee9" style="stroke:#a9a9a9;stroke-width:2;"/>
      </defs>
      <g>
       <use style="fill:#a9a9a9;stroke:#a9a9a9;stroke-width:2;" x="9" xlink:href="#m3dc628eee9" y="67.68"/>
      </g>
     </g>
    </g>
    <g id="ytick_2">
     <g id="line2d_5">
      <g>
       <use style="fill:#a9a9a9;stroke:#a9a9a9;stroke-width:2;" x="9" xlink:href="#m3dc628eee9" y="53.867618"/>
      </g>
     </g>
    </g>
    <g id="ytick_3">
     <g id="line2d_6">
      <g>
       <use style="fill:#a9a9a9;stroke:#a9a9a9;stroke-width:2;" x="9" xlink:href="#m3dc628eee9" y="40.055235"/>
      </g>
     </g>
    </g>
   </g>
   <g id="line2d_7">
    <path clip-path="url(#pe66708aab0)" d="M 10.86031 57.941036 
L 11.79031 55.577012 
L 12.72031 53.751876 
L 13.65031 52.540838 
L 14.58031 51.499381 
L 15.51031 50.750117 
L 16.44031 49.549401 
L 17.37031 48.241404 
L 18.30031 47.402726 
L 19.23031 46.665446 
L 20.16031 45.666603 
L 21.09031 44.988628 
L 22.02031 43.499022 
L 22.95031 42.388785 
L 23.88031 40.976477 
L 24.81031 39.468152 
L 25.74031 38.935354 
L 26.67031 38.328495 
L 27.60031 37.085335 
L 28.53031 36.148389 
L 29.46031 35.408534 
L 30.39031 34.945558 
L 31.32031 34.417736 
L 32.25031 33.193149 
L 33.18031 32.21263 
L 34.11031 31.865417 
L 35.04031 31.090136 
L 35.97031 30.578727 
L 36.90031 30.878446 
L 37.83031 30.396666 
L 38.76031 29.808515 
L 39.69031 29.169451 
L 40.62031 29.37021 
L 41.55031 28.853873 
L 42.48031 29.089948 
L 43.41031 28.803842 
L 44.34031 27.69085 
L 45.27031 27.061748 
L 46.20031 26.346293 
L 47.13031 26.078348 
L 48.06031 25.340473 
L 48.99031 24.640229 
L 49.92031 24.520667 
L 50.85031 24.001369 
L 51.78031 23.90618 
L 52.71031 23.535113 
L 53.64031 22.742184 
L 54.57031 22.233468 
L 55.50031 21.389894 
L 56.43031 21.102442 
L 57.36031 20.262583 
L 58.29031 20.064483 
L 59.22031 19.553163 
L 60.15031 19.73584 
L 61.08031 19.233448 
L 62.01031 19.015801 
L 62.94031 18.317256 
L 63.87031 17.970619 
" style="fill:none;stroke:#fc8d62;stroke-linecap:square;stroke-width:2;"/>
   </g>
   <g id="line2d_8">
    <path clip-path="url(#pe66708aab0)" d="M 10.86031 57.166906 
L 11.79031 54.928151 
L 12.72031 54.044592 
L 13.65031 52.460019 
L 14.58031 51.083843 
L 15.51031 50.022616 
L 16.44031 48.867552 
L 17.37031 48.15997 
L 18.30031 46.56704 
L 19.23031 45.989414 
L 20.16031 43.950753 
L 21.09031 43.217351 
L 22.02031 42.15481 
L 22.95031 41.445305 
L 23.88031 40.708678 
L 24.81031 40.353529 
L 25.74031 39.312931 
L 26.67031 38.370263 
L 27.60031 37.407623 
L 28.53031 36.522949 
L 29.46031 35.630968 
L 30.39031 34.718133 
L 31.32031 33.743898 
L 32.25031 33.317322 
L 33.18031 33.000061 
L 34.11031 31.80794 
L 35.04031 31.098723 
L 35.97031 30.886428 
L 36.90031 30.463817 
L 37.83031 30.294016 
L 38.76031 29.940451 
L 39.69031 28.888216 
L 40.62031 28.839481 
L 41.55031 28.205627 
L 42.48031 27.233421 
L 43.41031 26.304118 
L 44.34031 25.749898 
L 45.27031 25.524293 
L 46.20031 24.986828 
L 47.13031 24.071347 
L 48.06031 23.423224 
L 48.99031 23.074781 
L 49.92031 22.547492 
L 50.85031 22.012718 
L 51.78031 21.409054 
L 52.71031 21.021162 
L 53.64031 20.179184 
L 54.57031 19.771764 
L 55.50031 19.931847 
L 56.43031 19.922015 
L 57.36031 18.621909 
L 58.29031 17.925562 
L 59.22031 17.543108 
L 60.15031 17.430726 
L 61.08031 16.769462 
L 62.01031 16.608921 
L 62.94031 15.950936 
L 63.87031 15.260621 
" style="fill:none;stroke:#fc8d62;stroke-dasharray:1.5,1.5;stroke-dashoffset:0;stroke-opacity:0.7;stroke-width:1.5;"/>
   </g>
   <g id="patch_3">
    <path d="M 9 67.68 
L 9 17.28 
" style="fill:none;stroke:#a9a9a9;stroke-linecap:square;stroke-linejoin:miter;stroke-width:2;"/>
   </g>
   <g id="patch_4">
    <path d="M 64.8 67.68 
L 64.8 17.28 
" style="fill:none;"/>
   </g>
   <g id="patch_5">
    <path d="M 9 67.68 
L 64.8 67.68 
" style="fill:none;stroke:#a9a9a9;stroke-linecap:square;stroke-linejoin:miter;stroke-width:2;"/>
   </g>
   <g id="patch_6">
    <path d="M 9 17.28 
L 64.8 17.28 
" style="fill:none;"/>
   </g>
  </g>
  <g id="axes_2">
   <g id="patch_7">
    <path d="M 9 128.16 
L 64.8 128.16 
L 64.8 77.76 
L 9 77.76 
z
" style="fill:none;"/>
   </g>
   <g id="matplotlib.axis_3">
    <g id="xtick_4">
     <g id="line2d_9">
      <g>
       <use style="fill:#a9a9a9;stroke:#a9a9a9;stroke-width:2;" x="9" xlink:href="#ma3c6b3e9d3" y="128.16"/>
      </g>
     </g>
    </g>
    <g id="xtick_5">
     <g id="line2d_10">
      <g>
       <use style="fill:#a9a9a9;stroke:#a9a9a9;stroke-width:2;" x="36.9" xlink:href="#ma3c6b3e9d3" y="128.16"/>
      </g>
     </g>
    </g>
    <g id="xtick_6">
     <g id="line2d_11">
      <g>
       <use style="fill:#a9a9a9;stroke:#a9a9a9;stroke-width:2;" x="64.8" xlink:href="#ma3c6b3e9d3" y="128.16"/>
      </g>
     </g>
    </g>
   </g>
   <g id="matplotlib.axis_4">
    <g id="ytick_4">
     <g id="line2d_12">
      <g>
       <use style="fill:#a9a9a9;stroke:#a9a9a9;stroke-width:2;" x="9" xlink:href="#m3dc628eee9" y="128.16"/>
      </g>
     </g>
    </g>
    <g id="ytick_5">
     <g id="line2d_13">
      <g>
       <use style="fill:#a9a9a9;stroke:#a9a9a9;stroke-width:2;" x="9" xlink:href="#m3dc628eee9" y="102.96"/>
      </g>
     </g>
    </g>
    <g id="ytick_6">
     <g id="line2d_14">
      <g>
       <use style="fill:#a9a9a9;stroke:#a9a9a9;stroke-width:2;" x="9" xlink:href="#m3dc628eee9" y="77.76"/>
      </g>
     </g>
    </g>
   </g>
   <g id="line2d_15">
    <path clip-path="url(#p8e0ef7fc8f)" d="M 10.86031 102.626283 
L 11.79031 97.879694 
L 12.72031 95.190699 
L 13.65031 93.390896 
L 14.58031 92.271131 
L 15.51031 91.387786 
L 16.44031 90.708552 
L 17.37031 90.291677 
L 18.30031 89.894073 
L 19.23031 89.539367 
L 20.16031 88.977398 
L 21.09031 88.708651 
L 22.02031 88.291611 
L 22.95031 88.03579 
L 23.88031 87.755546 
L 24.81031 87.507296 
L 25.74031 87.438131 
L 26.67031 87.285356 
L 27.60031 87.200989 
L 28.53031 87.02682 
L 29.46031 86.927831 
L 30.39031 86.935834 
L 31.32031 86.838327 
L 32.25031 86.707306 
L 33.18031 86.58196 
L 34.11031 86.516149 
L 35.04031 86.500085 
L 35.97031 86.433468 
L 36.90031 86.441416 
L 37.83031 86.418434 
L 38.76031 86.335824 
L 39.69031 86.292945 
L 40.62031 86.260628 
L 41.55031 86.21224 
L 42.48031 86.220772 
L 43.41031 86.190933 
L 44.34031 86.169772 
L 45.27031 86.121504 
L 46.20031 86.115411 
L 47.13031 86.162552 
L 48.06031 86.111405 
L 48.99031 86.096612 
L 49.92031 86.06243 
L 50.85031 86.049319 
L 51.78031 86.039982 
L 52.71031 86.023743 
L 53.64031 85.983228 
L 54.57031 85.989325 
L 55.50031 85.922867 
L 56.43031 85.918866 
L 57.36031 85.852983 
L 58.29031 85.872024 
L 59.22031 85.866402 
L 60.15031 85.855795 
L 61.08031 85.835698 
L 62.01031 85.852748 
L 62.94031 85.819629 
L 63.87031 85.800149 
" style="fill:none;stroke:#fc8d62;stroke-linecap:square;stroke-width:2;"/>
   </g>
   <g id="line2d_16">
    <path clip-path="url(#p8e0ef7fc8f)" d="M 10.86031 104.64001 
L 11.79031 101.799584 
L 12.72031 99.917574 
L 13.65031 98.192311 
L 14.58031 97.186316 
L 15.51031 96.566634 
L 16.44031 95.714791 
L 17.37031 95.594392 
L 18.30031 95.033728 
L 19.23031 94.873647 
L 20.16031 94.460438 
L 21.09031 94.268006 
L 22.02031 93.991572 
L 22.95031 93.829949 
L 23.88031 93.7192 
L 24.81031 93.637823 
L 25.74031 93.382197 
L 26.67031 93.250662 
L 27.60031 93.074257 
L 28.53031 93.015706 
L 29.46031 92.908654 
L 30.39031 92.725354 
L 31.32031 92.685734 
L 32.25031 92.534116 
L 33.18031 92.473141 
L 34.11031 92.358381 
L 35.04031 92.306052 
L 35.97031 92.288563 
L 36.90031 92.314131 
L 37.83031 92.236084 
L 38.76031 92.220071 
L 39.69031 92.123335 
L 40.62031 92.131155 
L 41.55031 92.09305 
L 42.48031 92.069107 
L 43.41031 92.092284 
L 44.34031 92.008668 
L 45.27031 91.964827 
L 46.20031 91.965474 
L 47.13031 91.936605 
L 48.06031 91.859632 
L 48.99031 91.868073 
L 49.92031 91.847286 
L 50.85031 91.817816 
L 51.78031 91.763497 
L 52.71031 91.768315 
L 53.64031 91.729698 
L 54.57031 91.720178 
L 55.50031 91.694145 
L 56.43031 91.732966 
L 57.36031 91.659763 
L 58.29031 91.636285 
L 59.22031 91.623151 
L 60.15031 91.607697 
L 61.08031 91.550115 
L 62.01031 91.526184 
L 62.94031 91.520152 
L 63.87031 91.541391 
" style="fill:none;stroke:#fc8d62;stroke-dasharray:1.5,1.5;stroke-dashoffset:0;stroke-opacity:0.7;stroke-width:1.5;"/>
   </g>
   <g id="patch_8">
    <path d="M 9 128.16 
L 9 77.76 
" style="fill:none;stroke:#a9a9a9;stroke-linecap:square;stroke-linejoin:miter;stroke-width:2;"/>
   </g>
   <g id="patch_9">
    <path d="M 64.8 128.16 
L 64.8 77.76 
" style="fill:none;"/>
   </g>
   <g id="patch_10">
    <path d="M 9 128.16 
L 64.8 128.16 
" style="fill:none;stroke:#a9a9a9;stroke-linecap:square;stroke-linejoin:miter;stroke-width:2;"/>
   </g>
   <g id="patch_11">
    <path d="M 9 77.76 
L 64.8 77.76 
" style="fill:none;"/>
   </g>
  </g>
 </g>
 <defs>
  <clipPath id="pe66708aab0">
   <rect height="50.4" width="55.8" x="9" y="17.28"/>
  </clipPath>
  <clipPath id="p8e0ef7fc8f">
   <rect height="50.4" width="55.8" x="9" y="77.76"/>
  </clipPath>
 </defs>
</svg>
