<?xml version="1.0" encoding="utf-8" standalone="no"?>
<!DOCTYPE svg PUBLIC "-//W3C//DTD SVG 1.1//EN"
  "http://www.w3.org/Graphics/SVG/1.1/DTD/svg11.dtd">
<!-- Created with matplotlib (https://matplotlib.org/) -->
<svg height="144pt" version="1.1" viewBox="0 0 72 144" width="72pt" xmlns="http://www.w3.org/2000/svg" xmlns:xlink="http://www.w3.org/1999/xlink">
 <metadata>
  <rdf:RDF xmlns:cc="http://creativecommons.org/ns#" xmlns:dc="http://purl.org/dc/elements/1.1/" xmlns:rdf="http://www.w3.org/1999/02/22-rdf-syntax-ns#">
   <cc:Work>
    <dc:type rdf:resource="http://purl.org/dc/dcmitype/StillImage"/>
    <dc:date>2021-10-13T15:31:51.785160</dc:date>
    <dc:format>image/svg+xml</dc:format>
    <dc:creator>
     <cc:Agent>
      <dc:title>Matplotlib v3.3.2, https://matplotlib.org/</dc:title>
     </cc:Agent>
    </dc:creator>
   </cc:Work>
  </rdf:RDF>
 </metadata>
 <defs>
  <style type="text/css">*{stroke-linecap:butt;stroke-linejoin:round;}</style>
 </defs>
 <g id="figure_1">
  <g id="patch_1">
   <path d="M 0 144 
L 72 144 
L 72 0 
L 0 0 
z
" style="fill:none;"/>
  </g>
  <g id="axes_1">
   <g id="patch_2">
    <path d="M 9 67.68 
L 64.8 67.68 
L 64.8 17.28 
L 9 17.28 
z
" style="fill:none;"/>
   </g>
   <g id="matplotlib.axis_1">
    <g id="xtick_1">
     <g id="line2d_1">
      <defs>
       <path d="M 0 0 
L 0 3.5 
" id="m14605372b4" style="stroke:#a9a9a9;stroke-width:2;"/>
      </defs>
      <g>
       <use style="fill:#a9a9a9;stroke:#a9a9a9;stroke-width:2;" x="9" xlink:href="#m14605372b4" y="67.68"/>
      </g>
     </g>
    </g>
    <g id="xtick_2">
     <g id="line2d_2">
      <g>
       <use style="fill:#a9a9a9;stroke:#a9a9a9;stroke-width:2;" x="36.9" xlink:href="#m14605372b4" y="67.68"/>
      </g>
     </g>
    </g>
    <g id="xtick_3">
     <g id="line2d_3">
      <g>
       <use style="fill:#a9a9a9;stroke:#a9a9a9;stroke-width:2;" x="64.8" xlink:href="#m14605372b4" y="67.68"/>
      </g>
     </g>
    </g>
   </g>
   <g id="matplotlib.axis_2">
    <g id="ytick_1">
     <g id="line2d_4">
      <defs>
       <path d="M 0 0 
L -3.5 0 
" id="md9c4fcfa7b" style="stroke:#a9a9a9;stroke-width:2;"/>
      </defs>
      <g>
       <use style="fill:#a9a9a9;stroke:#a9a9a9;stroke-width:2;" x="9" xlink:href="#md9c4fcfa7b" y="67.68"/>
      </g>
     </g>
    </g>
    <g id="ytick_2">
     <g id="line2d_5">
      <g>
       <use style="fill:#a9a9a9;stroke:#a9a9a9;stroke-width:2;" x="9" xlink:href="#md9c4fcfa7b" y="42.48"/>
      </g>
     </g>
    </g>
    <g id="ytick_3">
     <g id="line2d_6">
      <g>
       <use style="fill:#a9a9a9;stroke:#a9a9a9;stroke-width:2;" x="9" xlink:href="#md9c4fcfa7b" y="17.28"/>
      </g>
     </g>
    </g>
   </g>
   <g id="line2d_7">
    <path clip-path="url(#p9b6f8b63f8)" d="M 10.86031 52.764404 
L 11.79031 56.377123 
L 12.72031 58.369133 
L 13.65031 59.656409 
L 14.58031 59.881182 
L 15.51031 59.885582 
L 16.44031 59.898899 
L 17.37031 59.650728 
L 18.30031 60.532023 
L 19.23031 61.336095 
L 20.16031 61.736451 
L 21.09031 61.432712 
L 22.02031 60.858552 
L 22.95031 61.381141 
L 23.88031 61.284124 
L 24.81031 61.173936 
L 25.74031 60.831572 
L 26.67031 60.879228 
L 27.60031 60.81375 
L 28.53031 60.390493 
L 29.46031 60.664685 
L 30.39031 60.436753 
L 31.32031 60.312099 
L 32.25031 60.312274 
L 33.18031 60.36575 
L 34.11031 60.591414 
L 35.04031 60.611773 
L 35.97031 60.531396 
L 36.90031 60.676572 
L 37.83031 60.73067 
L 38.76031 60.438399 
L 39.69031 60.137633 
L 40.62031 60.280729 
L 41.55031 60.623491 
L 42.48031 60.858491 
L 43.41031 60.54057 
L 44.34031 60.737627 
L 45.27031 60.872183 
L 46.20031 61.027755 
L 47.13031 61.253356 
L 48.06031 61.233756 
L 48.99031 60.885513 
L 49.92031 60.641675 
L 50.85031 60.633531 
L 51.78031 60.889282 
L 52.71031 60.63639 
L 53.64031 60.545385 
L 54.57031 60.487491 
L 55.50031 60.259226 
L 56.43031 59.965933 
L 57.36031 59.900495 
L 58.29031 59.685949 
L 59.22031 59.542829 
L 60.15031 59.351944 
L 61.08031 59.399776 
L 62.01031 59.66048 
L 62.94031 59.171134 
L 63.87031 58.969688 
" style="fill:none;stroke:#fc8d62;stroke-linecap:square;stroke-width:2;"/>
   </g>
   <g id="line2d_8">
    <path clip-path="url(#p9b6f8b63f8)" d="M 10.86031 54.325513 
L 11.79031 56.172394 
L 12.72031 58.5091 
L 13.65031 59.426717 
L 14.58031 59.631346 
L 15.51031 60.322871 
L 16.44031 59.886382 
L 17.37031 59.469813 
L 18.30031 59.351161 
L 19.23031 60.31013 
L 20.16031 60.496443 
L 21.09031 60.466021 
L 22.02031 61.640258 
L 22.95031 61.658491 
L 23.88031 61.48968 
L 24.81031 61.566921 
L 25.74031 61.930855 
L 26.67031 62.38878 
L 27.60031 61.958413 
L 28.53031 62.108528 
L 29.46031 62.845323 
L 30.39031 63.001576 
L 31.32031 62.990055 
L 32.25031 63.000188 
L 33.18031 62.986729 
L 34.11031 63.231545 
L 35.04031 63.425762 
L 35.97031 63.376168 
L 36.90031 63.135315 
L 37.83031 62.717074 
L 38.76031 62.40573 
L 39.69031 62.507338 
L 40.62031 62.59064 
L 41.55031 62.151319 
L 42.48031 62.291948 
L 43.41031 61.944603 
L 44.34031 61.892644 
L 45.27031 61.963789 
L 46.20031 61.999417 
L 47.13031 61.817813 
L 48.06031 61.71728 
L 48.99031 61.612973 
L 49.92031 61.418153 
L 50.85031 61.433389 
L 51.78031 61.542806 
L 52.71031 61.665061 
L 53.64031 62.193101 
L 54.57031 62.200514 
L 55.50031 62.051839 
L 56.43031 61.789054 
L 57.36031 61.648724 
L 58.29031 61.615333 
L 59.22031 61.560356 
L 60.15031 61.397211 
L 61.08031 61.155554 
L 62.01031 61.053862 
L 62.94031 60.86086 
L 63.87031 60.650135 
" style="fill:none;stroke:#fc8d62;stroke-dasharray:1.5,1.5;stroke-dashoffset:0;stroke-opacity:0.7;stroke-width:1.5;"/>
   </g>
   <g id="patch_3">
    <path d="M 9 67.68 
L 9 17.28 
" style="fill:none;stroke:#a9a9a9;stroke-linecap:square;stroke-linejoin:miter;stroke-width:2;"/>
   </g>
   <g id="patch_4">
    <path d="M 64.8 67.68 
L 64.8 17.28 
" style="fill:none;"/>
   </g>
   <g id="patch_5">
    <path d="M 9 67.68 
L 64.8 67.68 
" style="fill:none;stroke:#a9a9a9;stroke-linecap:square;stroke-linejoin:miter;stroke-width:2;"/>
   </g>
   <g id="patch_6">
    <path d="M 9 17.28 
L 64.8 17.28 
" style="fill:none;"/>
   </g>
  </g>
  <g id="axes_2">
   <g id="patch_7">
    <path d="M 9 128.16 
L 64.8 128.16 
L 64.8 77.76 
L 9 77.76 
z
" style="fill:none;"/>
   </g>
   <g id="matplotlib.axis_3">
    <g id="xtick_4">
     <g id="line2d_9">
      <g>
       <use style="fill:#a9a9a9;stroke:#a9a9a9;stroke-width:2;" x="9" xlink:href="#m14605372b4" y="128.16"/>
      </g>
     </g>
    </g>
    <g id="xtick_5">
     <g id="line2d_10">
      <g>
       <use style="fill:#a9a9a9;stroke:#a9a9a9;stroke-width:2;" x="36.9" xlink:href="#m14605372b4" y="128.16"/>
      </g>
     </g>
    </g>
    <g id="xtick_6">
     <g id="line2d_11">
      <g>
       <use style="fill:#a9a9a9;stroke:#a9a9a9;stroke-width:2;" x="64.8" xlink:href="#m14605372b4" y="128.16"/>
      </g>
     </g>
    </g>
   </g>
   <g id="matplotlib.axis_4">
    <g id="ytick_4">
     <g id="line2d_12">
      <g>
       <use style="fill:#a9a9a9;stroke:#a9a9a9;stroke-width:2;" x="9" xlink:href="#md9c4fcfa7b" y="128.16"/>
      </g>
     </g>
    </g>
    <g id="ytick_5">
     <g id="line2d_13">
      <g>
       <use style="fill:#a9a9a9;stroke:#a9a9a9;stroke-width:2;" x="9" xlink:href="#md9c4fcfa7b" y="102.96"/>
      </g>
     </g>
    </g>
    <g id="ytick_6">
     <g id="line2d_14">
      <g>
       <use style="fill:#a9a9a9;stroke:#a9a9a9;stroke-width:2;" x="9" xlink:href="#md9c4fcfa7b" y="77.76"/>
      </g>
     </g>
    </g>
   </g>
   <g id="line2d_15">
    <path clip-path="url(#pe4bc3b71ab)" d="M 10.86031 127.532424 
L 11.79031 127.656754 
L 12.72031 127.826418 
L 13.65031 127.905455 
L 14.58031 127.859214 
L 15.51031 127.801663 
L 16.44031 127.856476 
L 17.37031 127.767422 
L 18.30031 127.829126 
L 19.23031 127.802772 
L 20.16031 127.83729 
L 21.09031 127.756454 
L 22.02031 127.68336 
L 22.95031 127.709444 
L 23.88031 127.693914 
L 24.81031 127.737133 
L 25.74031 127.76521 
L 26.67031 127.720367 
L 27.60031 127.731133 
L 28.53031 127.640822 
L 29.46031 127.672854 
L 30.39031 127.696879 
L 31.32031 127.720014 
L 32.25031 127.66893 
L 33.18031 127.679968 
L 34.11031 127.752419 
L 35.04031 127.740474 
L 35.97031 127.757745 
L 36.90031 127.826777 
L 37.83031 127.831175 
L 38.76031 127.860137 
L 39.69031 127.87528 
L 40.62031 127.891379 
L 41.55031 127.922076 
L 42.48031 127.942256 
L 43.41031 127.895401 
L 44.34031 127.928673 
L 45.27031 127.918661 
L 46.20031 127.936456 
L 47.13031 127.906899 
L 48.06031 127.887632 
L 48.99031 127.798773 
L 49.92031 127.806004 
L 50.85031 127.804418 
L 51.78031 127.815505 
L 52.71031 127.75392 
L 53.64031 127.753743 
L 54.57031 127.754372 
L 55.50031 127.681555 
L 56.43031 127.636454 
L 57.36031 127.638312 
L 58.29031 127.599235 
L 59.22031 127.602286 
L 60.15031 127.599105 
L 61.08031 127.600802 
L 62.01031 127.630702 
L 62.94031 127.607511 
L 63.87031 127.589492 
" style="fill:none;stroke:#fc8d62;stroke-linecap:square;stroke-width:2;"/>
   </g>
   <g id="line2d_16">
    <path clip-path="url(#pe4bc3b71ab)" d="M 10.86031 128.126253 
L 11.79031 128.149897 
L 12.72031 128.156418 
L 13.65031 128.157853 
L 14.58031 128.159755 
L 15.51031 128.141006 
L 16.44031 128.07877 
L 17.37031 128.065412 
L 18.30031 127.993539 
L 19.23031 127.947343 
L 20.16031 127.907862 
L 21.09031 127.87113 
L 22.02031 127.849417 
L 22.95031 127.759161 
L 23.88031 127.589091 
L 24.81031 127.628693 
L 25.74031 127.653244 
L 26.67031 127.626637 
L 27.60031 127.480813 
L 28.53031 127.45113 
L 29.46031 127.492607 
L 30.39031 127.438021 
L 31.32031 127.361609 
L 32.25031 127.279504 
L 33.18031 127.159746 
L 34.11031 127.194938 
L 35.04031 127.091641 
L 35.97031 127.052025 
L 36.90031 126.95762 
L 37.83031 126.878772 
L 38.76031 126.744571 
L 39.69031 126.623547 
L 40.62031 126.471267 
L 41.55031 126.484981 
L 42.48031 126.379222 
L 43.41031 126.255928 
L 44.34031 126.251348 
L 45.27031 126.053445 
L 46.20031 125.894409 
L 47.13031 125.721132 
L 48.06031 125.626869 
L 48.99031 125.551495 
L 49.92031 125.470237 
L 50.85031 125.291852 
L 51.78031 125.10353 
L 52.71031 125.198147 
L 53.64031 125.167329 
L 54.57031 125.153315 
L 55.50031 125.077982 
L 56.43031 125.087867 
L 57.36031 125.071202 
L 58.29031 124.900703 
L 59.22031 124.899005 
L 60.15031 124.87221 
L 61.08031 124.767822 
L 62.01031 124.635994 
L 62.94031 124.54629 
L 63.87031 124.573263 
" style="fill:none;stroke:#fc8d62;stroke-dasharray:1.5,1.5;stroke-dashoffset:0;stroke-opacity:0.7;stroke-width:1.5;"/>
   </g>
   <g id="patch_8">
    <path d="M 9 128.16 
L 9 77.76 
" style="fill:none;stroke:#a9a9a9;stroke-linecap:square;stroke-linejoin:miter;stroke-width:2;"/>
   </g>
   <g id="patch_9">
    <path d="M 64.8 128.16 
L 64.8 77.76 
" style="fill:none;"/>
   </g>
   <g id="patch_10">
    <path d="M 9 128.16 
L 64.8 128.16 
" style="fill:none;stroke:#a9a9a9;stroke-linecap:square;stroke-linejoin:miter;stroke-width:2;"/>
   </g>
   <g id="patch_11">
    <path d="M 9 77.76 
L 64.8 77.76 
" style="fill:none;"/>
   </g>
  </g>
 </g>
 <defs>
  <clipPath id="p9b6f8b63f8">
   <rect height="50.4" width="55.8" x="9" y="17.28"/>
  </clipPath>
  <clipPath id="pe4bc3b71ab">
   <rect height="50.4" width="55.8" x="9" y="77.76"/>
  </clipPath>
 </defs>
</svg>
