<?xml version="1.0" encoding="utf-8" standalone="no"?>
<!DOCTYPE svg PUBLIC "-//W3C//DTD SVG 1.1//EN"
  "http://www.w3.org/Graphics/SVG/1.1/DTD/svg11.dtd">
<!-- Created with matplotlib (https://matplotlib.org/) -->
<svg height="144pt" version="1.1" viewBox="0 0 72 144" width="72pt" xmlns="http://www.w3.org/2000/svg" xmlns:xlink="http://www.w3.org/1999/xlink">
 <metadata>
  <rdf:RDF xmlns:cc="http://creativecommons.org/ns#" xmlns:dc="http://purl.org/dc/elements/1.1/" xmlns:rdf="http://www.w3.org/1999/02/22-rdf-syntax-ns#">
   <cc:Work>
    <dc:type rdf:resource="http://purl.org/dc/dcmitype/StillImage"/>
    <dc:date>2021-10-14T20:17:50.408583</dc:date>
    <dc:format>image/svg+xml</dc:format>
    <dc:creator>
     <cc:Agent>
      <dc:title>Matplotlib v3.3.2, https://matplotlib.org/</dc:title>
     </cc:Agent>
    </dc:creator>
   </cc:Work>
  </rdf:RDF>
 </metadata>
 <defs>
  <style type="text/css">*{stroke-linecap:butt;stroke-linejoin:round;}</style>
 </defs>
 <g id="figure_1">
  <g id="patch_1">
   <path d="M 0 144 
L 72 144 
L 72 0 
L 0 0 
z
" style="fill:none;"/>
  </g>
  <g id="axes_1">
   <g id="patch_2">
    <path d="M 9 67.68 
L 64.8 67.68 
L 64.8 17.28 
L 9 17.28 
z
" style="fill:none;"/>
   </g>
   <g id="matplotlib.axis_1">
    <g id="xtick_1">
     <g id="line2d_1">
      <defs>
       <path d="M 0 0 
L 0 3.5 
" id="m6b3f1e6311" style="stroke:#a9a9a9;stroke-width:2;"/>
      </defs>
      <g>
       <use style="fill:#a9a9a9;stroke:#a9a9a9;stroke-width:2;" x="9" xlink:href="#m6b3f1e6311" y="67.68"/>
      </g>
     </g>
    </g>
    <g id="xtick_2">
     <g id="line2d_2">
      <g>
       <use style="fill:#a9a9a9;stroke:#a9a9a9;stroke-width:2;" x="36.9" xlink:href="#m6b3f1e6311" y="67.68"/>
      </g>
     </g>
    </g>
    <g id="xtick_3">
     <g id="line2d_3">
      <g>
       <use style="fill:#a9a9a9;stroke:#a9a9a9;stroke-width:2;" x="64.8" xlink:href="#m6b3f1e6311" y="67.68"/>
      </g>
     </g>
    </g>
   </g>
   <g id="matplotlib.axis_2">
    <g id="ytick_1">
     <g id="line2d_4">
      <defs>
       <path d="M 0 0 
L -3.5 0 
" id="m376c57ae4b" style="stroke:#a9a9a9;stroke-width:2;"/>
      </defs>
      <g>
       <use style="fill:#a9a9a9;stroke:#a9a9a9;stroke-width:2;" x="9" xlink:href="#m376c57ae4b" y="67.68"/>
      </g>
     </g>
    </g>
    <g id="ytick_2">
     <g id="line2d_5">
      <g>
       <use style="fill:#a9a9a9;stroke:#a9a9a9;stroke-width:2;" x="9" xlink:href="#m376c57ae4b" y="42.48"/>
      </g>
     </g>
    </g>
    <g id="ytick_3">
     <g id="line2d_6">
      <g>
       <use style="fill:#a9a9a9;stroke:#a9a9a9;stroke-width:2;" x="9" xlink:href="#m376c57ae4b" y="17.28"/>
      </g>
     </g>
    </g>
   </g>
   <g id="line2d_7">
    <path clip-path="url(#pf6d997567a)" d="M 10.860031 57.745583 
L 11.790031 56.375317 
L 12.720031 53.3736 
L 13.650031 50.881937 
L 14.580031 50.260247 
L 15.510031 48.744661 
L 16.440031 48.515175 
L 17.370031 47.372994 
L 18.300031 45.991635 
L 19.230031 45.314445 
L 20.160031 44.25256 
L 21.090031 43.209981 
L 22.020031 42.789324 
L 22.950031 42.431556 
L 23.880031 41.785657 
L 24.810031 40.494474 
L 25.740031 40.265424 
L 26.670031 39.806749 
L 27.600031 39.51453 
L 28.530031 38.928102 
L 29.460031 38.502034 
L 30.390031 39.140413 
L 31.320031 37.980847 
L 32.250031 36.743673 
L 33.180031 35.762508 
L 34.110031 35.18361 
L 35.040031 34.704236 
L 35.970031 34.654944 
L 36.900031 34.221566 
L 37.830031 34.212688 
L 38.760031 34.205391 
L 39.690031 33.621615 
L 40.620031 33.026401 
L 41.550031 32.714183 
L 42.480031 32.303866 
L 43.410031 31.734433 
L 44.340031 30.810948 
L 45.270031 29.568873 
L 46.200031 29.387132 
L 47.130031 28.806764 
L 48.060031 28.190551 
L 48.990031 27.716136 
L 49.920031 27.267164 
L 50.850031 27.096029 
L 51.780031 26.564824 
L 52.710031 26.78757 
L 53.640031 26.17768 
L 54.570031 25.972556 
L 55.500031 26.044907 
L 56.430031 26.407813 
L 57.360031 26.209916 
L 58.290031 26.119737 
L 59.220031 25.558962 
L 60.150031 25.087734 
L 61.080031 24.279227 
L 62.010031 23.851212 
L 62.940031 23.254746 
L 63.870031 23.006306 
" style="fill:none;stroke:#fc8d62;stroke-linecap:square;stroke-width:2;"/>
   </g>
   <g id="line2d_8">
    <path clip-path="url(#pf6d997567a)" d="M 10.860031 60.827302 
L 11.790031 59.380806 
L 12.720031 58.825778 
L 13.650031 58.093308 
L 14.580031 56.520546 
L 15.510031 57.048705 
L 16.440031 57.691738 
L 17.370031 57.434902 
L 18.300031 56.760447 
L 19.230031 56.784819 
L 20.160031 55.628192 
L 21.090031 55.831255 
L 22.020031 55.141645 
L 22.950031 55.443152 
L 23.880031 54.146221 
L 24.810031 54.369086 
L 25.740031 54.060933 
L 26.670031 53.410875 
L 27.600031 53.589437 
L 28.530031 53.106188 
L 29.460031 52.212915 
L 30.390031 51.94565 
L 31.320031 51.207344 
L 32.250031 51.201945 
L 33.180031 51.525831 
L 34.110031 51.223124 
L 35.040031 51.096219 
L 35.970031 50.680217 
L 36.900031 50.342509 
L 37.830031 50.42011 
L 38.760031 49.56753 
L 39.690031 49.55092 
L 40.620031 49.07233 
L 41.550031 48.208223 
L 42.480031 48.217397 
L 43.410031 47.973164 
L 44.340031 47.746079 
L 45.270031 47.213417 
L 46.200031 46.85257 
L 47.130031 46.295761 
L 48.060031 45.768511 
L 48.990031 45.690227 
L 49.920031 44.986388 
L 50.850031 44.612542 
L 51.780031 44.686249 
L 52.710031 45.104849 
L 53.640031 44.942114 
L 54.570031 45.028268 
L 55.500031 45.188096 
L 56.430031 45.335349 
L 57.360031 45.126016 
L 58.290031 44.970701 
L 59.220031 45.193425 
L 60.150031 45.219378 
L 61.080031 45.406228 
L 62.010031 45.774153 
L 62.940031 45.717004 
L 63.870031 45.77146 
" style="fill:none;stroke:#fc8d62;stroke-dasharray:1.5,1.5;stroke-dashoffset:0;stroke-opacity:0.7;stroke-width:1.5;"/>
   </g>
   <g id="patch_3">
    <path d="M 9 67.68 
L 9 17.28 
" style="fill:none;stroke:#a9a9a9;stroke-linecap:square;stroke-linejoin:miter;stroke-width:2;"/>
   </g>
   <g id="patch_4">
    <path d="M 64.8 67.68 
L 64.8 17.28 
" style="fill:none;"/>
   </g>
   <g id="patch_5">
    <path d="M 9 67.68 
L 64.8 67.68 
" style="fill:none;stroke:#a9a9a9;stroke-linecap:square;stroke-linejoin:miter;stroke-width:2;"/>
   </g>
   <g id="patch_6">
    <path d="M 9 17.28 
L 64.8 17.28 
" style="fill:none;"/>
   </g>
  </g>
  <g id="axes_2">
   <g id="patch_7">
    <path d="M 9 128.16 
L 64.8 128.16 
L 64.8 77.76 
L 9 77.76 
z
" style="fill:none;"/>
   </g>
   <g id="matplotlib.axis_3">
    <g id="xtick_4">
     <g id="line2d_9">
      <g>
       <use style="fill:#a9a9a9;stroke:#a9a9a9;stroke-width:2;" x="9" xlink:href="#m6b3f1e6311" y="128.16"/>
      </g>
     </g>
    </g>
    <g id="xtick_5">
     <g id="line2d_10">
      <g>
       <use style="fill:#a9a9a9;stroke:#a9a9a9;stroke-width:2;" x="36.9" xlink:href="#m6b3f1e6311" y="128.16"/>
      </g>
     </g>
    </g>
    <g id="xtick_6">
     <g id="line2d_11">
      <g>
       <use style="fill:#a9a9a9;stroke:#a9a9a9;stroke-width:2;" x="64.8" xlink:href="#m6b3f1e6311" y="128.16"/>
      </g>
     </g>
    </g>
   </g>
   <g id="matplotlib.axis_4">
    <g id="ytick_4">
     <g id="line2d_12">
      <g>
       <use style="fill:#a9a9a9;stroke:#a9a9a9;stroke-width:2;" x="9" xlink:href="#m376c57ae4b" y="128.16"/>
      </g>
     </g>
    </g>
    <g id="ytick_5">
     <g id="line2d_13">
      <g>
       <use style="fill:#a9a9a9;stroke:#a9a9a9;stroke-width:2;" x="9" xlink:href="#m376c57ae4b" y="102.96"/>
      </g>
     </g>
    </g>
    <g id="ytick_6">
     <g id="line2d_14">
      <g>
       <use style="fill:#a9a9a9;stroke:#a9a9a9;stroke-width:2;" x="9" xlink:href="#m376c57ae4b" y="77.76"/>
      </g>
     </g>
    </g>
   </g>
   <g id="line2d_15">
    <path clip-path="url(#pb172f5ada1)" d="M 10.860031 117.848066 
L 11.790031 114.146847 
L 12.720031 110.499026 
L 13.650031 107.617217 
L 14.580031 105.847661 
L 15.510031 103.929181 
L 16.440031 102.278782 
L 17.370031 100.556007 
L 18.300031 99.346802 
L 19.230031 98.604872 
L 20.160031 97.494129 
L 21.090031 96.930284 
L 22.020031 96.182181 
L 22.950031 95.477292 
L 23.880031 94.876942 
L 24.810031 94.345291 
L 25.740031 94.155588 
L 26.670031 93.676494 
L 27.600031 93.292337 
L 28.530031 92.954341 
L 29.460031 92.538702 
L 30.390031 92.476705 
L 31.320031 91.869222 
L 32.250031 91.365304 
L 33.180031 91.085333 
L 34.110031 90.844677 
L 35.040031 90.600561 
L 35.970031 90.431486 
L 36.900031 90.264324 
L 37.830031 90.158629 
L 38.760031 90.021416 
L 39.690031 89.977063 
L 40.620031 89.802362 
L 41.550031 89.606457 
L 42.480031 89.30004 
L 43.410031 89.059586 
L 44.340031 88.83714 
L 45.270031 88.639406 
L 46.200031 88.488108 
L 47.130031 88.225022 
L 48.060031 88.105712 
L 48.990031 88.029043 
L 49.920031 87.936204 
L 50.850031 87.809378 
L 51.780031 87.691878 
L 52.710031 87.559104 
L 53.640031 87.447128 
L 54.570031 87.42525 
L 55.500031 87.331773 
L 56.430031 87.35244 
L 57.360031 87.292851 
L 58.290031 87.165331 
L 59.220031 87.04483 
L 60.150031 86.984493 
L 61.080031 86.771791 
L 62.010031 86.583937 
L 62.940031 86.460798 
L 63.870031 86.41892 
" style="fill:none;stroke:#fc8d62;stroke-linecap:square;stroke-width:2;"/>
   </g>
   <g id="line2d_16">
    <path clip-path="url(#pb172f5ada1)" d="M 10.860031 125.462819 
L 11.790031 124.854373 
L 12.720031 123.671846 
L 13.650031 122.467704 
L 14.580031 121.364044 
L 15.510031 120.350311 
L 16.440031 119.594559 
L 17.370031 118.54049 
L 18.300031 118.171537 
L 19.230031 117.787761 
L 20.160031 117.012574 
L 21.090031 116.321372 
L 22.020031 115.808489 
L 22.950031 115.099362 
L 23.880031 114.294681 
L 24.810031 113.550564 
L 25.740031 112.865004 
L 26.670031 111.943507 
L 27.600031 111.429272 
L 28.530031 110.354165 
L 29.460031 110.094729 
L 30.390031 109.794002 
L 31.320031 109.192452 
L 32.250031 108.64434 
L 33.180031 108.404503 
L 34.110031 107.911316 
L 35.040031 107.254578 
L 35.970031 107.143978 
L 36.900031 106.351264 
L 37.830031 106.053054 
L 38.760031 105.863246 
L 39.690031 105.486268 
L 40.620031 105.04075 
L 41.550031 104.580257 
L 42.480031 104.291891 
L 43.410031 104.165387 
L 44.340031 104.162167 
L 45.270031 104.166428 
L 46.200031 103.833932 
L 47.130031 103.572074 
L 48.060031 103.407548 
L 48.990031 103.379213 
L 49.920031 102.864876 
L 50.850031 102.742475 
L 51.780031 102.641516 
L 52.710031 102.595993 
L 53.640031 102.676029 
L 54.570031 102.313335 
L 55.500031 102.362369 
L 56.430031 102.258226 
L 57.360031 102.199571 
L 58.290031 102.206876 
L 59.220031 102.178916 
L 60.150031 102.306425 
L 61.080031 102.24832 
L 62.010031 102.161805 
L 62.940031 101.996313 
L 63.870031 101.82479 
" style="fill:none;stroke:#fc8d62;stroke-dasharray:1.5,1.5;stroke-dashoffset:0;stroke-opacity:0.7;stroke-width:1.5;"/>
   </g>
   <g id="patch_8">
    <path d="M 9 128.16 
L 9 77.76 
" style="fill:none;stroke:#a9a9a9;stroke-linecap:square;stroke-linejoin:miter;stroke-width:2;"/>
   </g>
   <g id="patch_9">
    <path d="M 64.8 128.16 
L 64.8 77.76 
" style="fill:none;"/>
   </g>
   <g id="patch_10">
    <path d="M 9 128.16 
L 64.8 128.16 
" style="fill:none;stroke:#a9a9a9;stroke-linecap:square;stroke-linejoin:miter;stroke-width:2;"/>
   </g>
   <g id="patch_11">
    <path d="M 9 77.76 
L 64.8 77.76 
" style="fill:none;"/>
   </g>
  </g>
 </g>
 <defs>
  <clipPath id="pf6d997567a">
   <rect height="50.4" width="55.8" x="9" y="17.28"/>
  </clipPath>
  <clipPath id="pb172f5ada1">
   <rect height="50.4" width="55.8" x="9" y="77.76"/>
  </clipPath>
 </defs>
</svg>
