<?xml version="1.0" encoding="utf-8" standalone="no"?>
<!DOCTYPE svg PUBLIC "-//W3C//DTD SVG 1.1//EN"
  "http://www.w3.org/Graphics/SVG/1.1/DTD/svg11.dtd">
<!-- Created with matplotlib (https://matplotlib.org/) -->
<svg height="144pt" version="1.1" viewBox="0 0 72 144" width="72pt" xmlns="http://www.w3.org/2000/svg" xmlns:xlink="http://www.w3.org/1999/xlink">
 <metadata>
  <rdf:RDF xmlns:cc="http://creativecommons.org/ns#" xmlns:dc="http://purl.org/dc/elements/1.1/" xmlns:rdf="http://www.w3.org/1999/02/22-rdf-syntax-ns#">
   <cc:Work>
    <dc:type rdf:resource="http://purl.org/dc/dcmitype/StillImage"/>
    <dc:date>2021-10-12T18:50:24.819682</dc:date>
    <dc:format>image/svg+xml</dc:format>
    <dc:creator>
     <cc:Agent>
      <dc:title>Matplotlib v3.3.2, https://matplotlib.org/</dc:title>
     </cc:Agent>
    </dc:creator>
   </cc:Work>
  </rdf:RDF>
 </metadata>
 <defs>
  <style type="text/css">*{stroke-linecap:butt;stroke-linejoin:round;}</style>
 </defs>
 <g id="figure_1">
  <g id="patch_1">
   <path d="M 0 144 
L 72 144 
L 72 0 
L 0 0 
z
" style="fill:none;"/>
  </g>
  <g id="axes_1">
   <g id="patch_2">
    <path d="M 9 67.68 
L 64.8 67.68 
L 64.8 17.28 
L 9 17.28 
z
" style="fill:none;"/>
   </g>
   <g id="matplotlib.axis_1">
    <g id="xtick_1">
     <g id="line2d_1">
      <defs>
       <path d="M 0 0 
L 0 3.5 
" id="m394579aae2" style="stroke:#a9a9a9;stroke-width:2;"/>
      </defs>
      <g>
       <use style="fill:#a9a9a9;stroke:#a9a9a9;stroke-width:2;" x="9" xlink:href="#m394579aae2" y="67.68"/>
      </g>
     </g>
    </g>
    <g id="xtick_2">
     <g id="line2d_2">
      <g>
       <use style="fill:#a9a9a9;stroke:#a9a9a9;stroke-width:2;" x="36.9" xlink:href="#m394579aae2" y="67.68"/>
      </g>
     </g>
    </g>
    <g id="xtick_3">
     <g id="line2d_3">
      <g>
       <use style="fill:#a9a9a9;stroke:#a9a9a9;stroke-width:2;" x="64.8" xlink:href="#m394579aae2" y="67.68"/>
      </g>
     </g>
    </g>
   </g>
   <g id="matplotlib.axis_2">
    <g id="ytick_1">
     <g id="line2d_4">
      <defs>
       <path d="M 0 0 
L -3.5 0 
" id="m225611f3c9" style="stroke:#a9a9a9;stroke-width:2;"/>
      </defs>
      <g>
       <use style="fill:#a9a9a9;stroke:#a9a9a9;stroke-width:2;" x="9" xlink:href="#m225611f3c9" y="67.68"/>
      </g>
     </g>
    </g>
    <g id="ytick_2">
     <g id="line2d_5">
      <g>
       <use style="fill:#a9a9a9;stroke:#a9a9a9;stroke-width:2;" x="9" xlink:href="#m225611f3c9" y="65.203467"/>
      </g>
     </g>
    </g>
    <g id="ytick_3">
     <g id="line2d_6">
      <g>
       <use style="fill:#a9a9a9;stroke:#a9a9a9;stroke-width:2;" x="9" xlink:href="#m225611f3c9" y="62.726934"/>
      </g>
     </g>
    </g>
   </g>
   <g id="line2d_7">
    <path clip-path="url(#paef258fd8f)" d="M 10.86031 61.242984 
L 11.79031 59.054674 
L 12.72031 58.522766 
L 13.65031 57.700686 
L 14.58031 56.708884 
L 15.51031 55.128552 
L 16.44031 54.240248 
L 17.37031 53.489939 
L 18.30031 53.380996 
L 19.23031 52.328319 
L 20.16031 51.415632 
L 21.09031 49.768671 
L 22.02031 49.017116 
L 22.95031 47.460998 
L 23.88031 45.323845 
L 24.81031 43.340546 
L 25.74031 41.257219 
L 26.67031 40.528364 
L 27.60031 38.947734 
L 28.53031 37.780223 
L 29.46031 37.381362 
L 30.39031 35.988669 
L 31.32031 33.627002 
L 32.25031 31.930611 
L 33.18031 30.321715 
L 34.11031 31.705601 
L 35.04031 31.992324 
L 35.97031 33.210922 
L 36.90031 34.089339 
L 37.83031 34.859617 
L 38.76031 35.958095 
L 39.69031 35.928007 
L 40.62031 35.810367 
L 41.55031 35.053439 
L 42.48031 33.987438 
L 43.41031 34.662888 
L 44.34031 34.234889 
L 45.27031 32.6506 
L 46.20031 31.314468 
L 47.13031 30.10079 
L 48.06031 29.367167 
L 48.99031 28.758123 
L 49.92031 26.868283 
L 50.85031 26.506315 
L 51.78031 24.920972 
L 52.71031 23.83696 
L 53.64031 22.521732 
L 54.57031 20.029398 
L 55.50031 18.251957 
L 56.43031 17.403827 
L 57.36031 17.788275 
L 58.29031 18.018643 
L 59.22031 18.628989 
L 60.15031 19.789588 
L 61.08031 20.907919 
L 62.01031 20.994111 
L 62.94031 20.792843 
L 63.87031 21.299585 
" style="fill:none;stroke:#fc8d62;stroke-linecap:square;stroke-width:2;"/>
   </g>
   <g id="line2d_8">
    <path clip-path="url(#paef258fd8f)" d="M 10.86031 60.720021 
L 11.79031 59.744282 
L 12.72031 58.453058 
L 13.65031 56.828373 
L 14.58031 56.652894 
L 15.51031 56.007836 
L 16.44031 55.573118 
L 17.37031 54.822071 
L 18.30031 54.388181 
L 19.23031 53.955937 
L 20.16031 53.114475 
L 21.09031 52.871566 
L 22.02031 51.964449 
L 22.95031 51.566266 
L 23.88031 50.082743 
L 24.81031 48.865917 
L 25.74031 46.338444 
L 26.67031 44.140537 
L 27.60031 42.594131 
L 28.53031 40.430087 
L 29.46031 38.763832 
L 30.39031 36.331779 
L 31.32031 35.372045 
L 32.25031 35.712193 
L 33.18031 35.745031 
L 34.11031 36.100749 
L 35.04031 37.415752 
L 35.97031 37.347919 
L 36.90031 37.744954 
L 37.83031 37.692726 
L 38.76031 36.745149 
L 39.69031 34.745261 
L 40.62031 33.661925 
L 41.55031 31.966199 
L 42.48031 32.150854 
L 43.41031 32.391772 
L 44.34031 31.555573 
L 45.27031 30.023855 
L 46.20031 29.925431 
L 47.13031 30.149581 
L 48.06031 28.469482 
L 48.99031 27.416666 
L 49.92031 24.81253 
L 50.85031 23.394099 
L 51.78031 21.974134 
L 52.71031 22.178436 
L 53.64031 21.541153 
L 54.57031 21.18545 
L 55.50031 22.121639 
L 56.43031 22.42048 
L 57.36031 24.328751 
L 58.29031 23.380193 
L 59.22031 24.371261 
L 60.15031 25.018925 
L 61.08031 24.193283 
L 62.01031 23.725448 
L 62.94031 24.016248 
L 63.87031 23.394231 
" style="fill:none;stroke:#fc8d62;stroke-dasharray:1.5,1.5;stroke-dashoffset:0;stroke-opacity:0.7;stroke-width:1.5;"/>
   </g>
   <g id="patch_3">
    <path d="M 9 67.68 
L 9 17.28 
" style="fill:none;stroke:#a9a9a9;stroke-linecap:square;stroke-linejoin:miter;stroke-width:2;"/>
   </g>
   <g id="patch_4">
    <path d="M 64.8 67.68 
L 64.8 17.28 
" style="fill:none;"/>
   </g>
   <g id="patch_5">
    <path d="M 9 67.68 
L 64.8 67.68 
" style="fill:none;stroke:#a9a9a9;stroke-linecap:square;stroke-linejoin:miter;stroke-width:2;"/>
   </g>
   <g id="patch_6">
    <path d="M 9 17.28 
L 64.8 17.28 
" style="fill:none;"/>
   </g>
  </g>
  <g id="axes_2">
   <g id="patch_7">
    <path d="M 9 128.16 
L 64.8 128.16 
L 64.8 77.76 
L 9 77.76 
z
" style="fill:none;"/>
   </g>
   <g id="matplotlib.axis_3">
    <g id="xtick_4">
     <g id="line2d_9">
      <g>
       <use style="fill:#a9a9a9;stroke:#a9a9a9;stroke-width:2;" x="9" xlink:href="#m394579aae2" y="128.16"/>
      </g>
     </g>
    </g>
    <g id="xtick_5">
     <g id="line2d_10">
      <g>
       <use style="fill:#a9a9a9;stroke:#a9a9a9;stroke-width:2;" x="36.9" xlink:href="#m394579aae2" y="128.16"/>
      </g>
     </g>
    </g>
    <g id="xtick_6">
     <g id="line2d_11">
      <g>
       <use style="fill:#a9a9a9;stroke:#a9a9a9;stroke-width:2;" x="64.8" xlink:href="#m394579aae2" y="128.16"/>
      </g>
     </g>
    </g>
   </g>
   <g id="matplotlib.axis_4">
    <g id="ytick_4">
     <g id="line2d_12">
      <g>
       <use style="fill:#a9a9a9;stroke:#a9a9a9;stroke-width:2;" x="9" xlink:href="#m225611f3c9" y="128.16"/>
      </g>
     </g>
    </g>
    <g id="ytick_5">
     <g id="line2d_13">
      <g>
       <use style="fill:#a9a9a9;stroke:#a9a9a9;stroke-width:2;" x="9" xlink:href="#m225611f3c9" y="102.96"/>
      </g>
     </g>
    </g>
    <g id="ytick_6">
     <g id="line2d_14">
      <g>
       <use style="fill:#a9a9a9;stroke:#a9a9a9;stroke-width:2;" x="9" xlink:href="#m225611f3c9" y="77.76"/>
      </g>
     </g>
    </g>
   </g>
   <g id="line2d_15">
    <path clip-path="url(#p4f6ff260df)" d="M 10.86031 88.980231 
L 11.79031 88.317825 
L 12.72031 88.203891 
L 13.65031 88.132675 
L 14.58031 87.999757 
L 15.51031 87.904522 
L 16.44031 87.834291 
L 17.37031 87.801959 
L 18.30031 87.804023 
L 19.23031 87.783791 
L 20.16031 87.798909 
L 21.09031 87.761384 
L 22.02031 87.760685 
L 22.95031 87.732777 
L 23.88031 87.723681 
L 24.81031 87.707024 
L 25.74031 87.70313 
L 26.67031 87.715393 
L 27.60031 87.693677 
L 28.53031 87.681784 
L 29.46031 87.687727 
L 30.39031 87.681034 
L 31.32031 87.664305 
L 32.25031 87.648277 
L 33.18031 87.653173 
L 34.11031 87.638998 
L 35.04031 87.63469 
L 35.97031 87.626419 
L 36.90031 87.629101 
L 37.83031 87.618838 
L 38.76031 87.612759 
L 39.69031 87.618548 
L 40.62031 87.616049 
L 41.55031 87.611612 
L 42.48031 87.612023 
L 43.41031 87.613667 
L 44.34031 87.615908 
L 45.27031 87.607645 
L 46.20031 87.6004 
L 47.13031 87.600991 
L 48.06031 87.603894 
L 48.99031 87.611026 
L 49.92031 87.609051 
L 50.85031 87.610233 
L 51.78031 87.614924 
L 52.71031 87.616418 
L 53.64031 87.613922 
L 54.57031 87.609752 
L 55.50031 87.608724 
L 56.43031 87.616938 
L 57.36031 87.613448 
L 58.29031 87.607984 
L 59.22031 87.608249 
L 60.15031 87.610068 
L 61.08031 87.60439 
L 62.01031 87.605535 
L 62.94031 87.606099 
L 63.87031 87.60513 
" style="fill:none;stroke:#fc8d62;stroke-linecap:square;stroke-width:2;"/>
   </g>
   <g id="line2d_16">
    <path clip-path="url(#p4f6ff260df)" d="M 10.86031 92.057133 
L 11.79031 91.862625 
L 12.72031 91.701411 
L 13.65031 91.539314 
L 14.58031 91.49758 
L 15.51031 91.430747 
L 16.44031 91.385205 
L 17.37031 91.299225 
L 18.30031 91.303334 
L 19.23031 91.284104 
L 20.16031 91.274228 
L 21.09031 91.279843 
L 22.02031 91.256507 
L 22.95031 91.250828 
L 23.88031 91.243419 
L 24.81031 91.224976 
L 25.74031 91.198863 
L 26.67031 91.173467 
L 27.60031 91.168593 
L 28.53031 91.152543 
L 29.46031 91.136512 
L 30.39031 91.133714 
L 31.32031 91.118986 
L 32.25031 91.122487 
L 33.18031 91.132174 
L 34.11031 91.147014 
L 35.04031 91.154019 
L 35.97031 91.152158 
L 36.90031 91.139224 
L 37.83031 91.14774 
L 38.76031 91.147126 
L 39.69031 91.146143 
L 40.62031 91.149203 
L 41.55031 91.141891 
L 42.48031 91.144073 
L 43.41031 91.152374 
L 44.34031 91.15701 
L 45.27031 91.158154 
L 46.20031 91.16202 
L 47.13031 91.16571 
L 48.06031 91.16852 
L 48.99031 91.166145 
L 49.92031 91.158111 
L 50.85031 91.160063 
L 51.78031 91.157401 
L 52.71031 91.150803 
L 53.64031 91.148781 
L 54.57031 91.15159 
L 55.50031 91.153432 
L 56.43031 91.158144 
L 57.36031 91.15753 
L 58.29031 91.158524 
L 59.22031 91.162886 
L 60.15031 91.162039 
L 61.08031 91.156955 
L 62.01031 91.154117 
L 62.94031 91.148116 
L 63.87031 91.147936 
" style="fill:none;stroke:#fc8d62;stroke-dasharray:1.5,1.5;stroke-dashoffset:0;stroke-opacity:0.7;stroke-width:1.5;"/>
   </g>
   <g id="patch_8">
    <path d="M 9 128.16 
L 9 77.76 
" style="fill:none;stroke:#a9a9a9;stroke-linecap:square;stroke-linejoin:miter;stroke-width:2;"/>
   </g>
   <g id="patch_9">
    <path d="M 64.8 128.16 
L 64.8 77.76 
" style="fill:none;"/>
   </g>
   <g id="patch_10">
    <path d="M 9 128.16 
L 64.8 128.16 
" style="fill:none;stroke:#a9a9a9;stroke-linecap:square;stroke-linejoin:miter;stroke-width:2;"/>
   </g>
   <g id="patch_11">
    <path d="M 9 77.76 
L 64.8 77.76 
" style="fill:none;"/>
   </g>
  </g>
 </g>
 <defs>
  <clipPath id="paef258fd8f">
   <rect height="50.4" width="55.8" x="9" y="17.28"/>
  </clipPath>
  <clipPath id="p4f6ff260df">
   <rect height="50.4" width="55.8" x="9" y="77.76"/>
  </clipPath>
 </defs>
</svg>
