<?xml version="1.0" encoding="utf-8" standalone="no"?>
<!DOCTYPE svg PUBLIC "-//W3C//DTD SVG 1.1//EN"
  "http://www.w3.org/Graphics/SVG/1.1/DTD/svg11.dtd">
<!-- Created with matplotlib (https://matplotlib.org/) -->
<svg height="144pt" version="1.1" viewBox="0 0 72 144" width="72pt" xmlns="http://www.w3.org/2000/svg" xmlns:xlink="http://www.w3.org/1999/xlink">
 <metadata>
  <rdf:RDF xmlns:cc="http://creativecommons.org/ns#" xmlns:dc="http://purl.org/dc/elements/1.1/" xmlns:rdf="http://www.w3.org/1999/02/22-rdf-syntax-ns#">
   <cc:Work>
    <dc:type rdf:resource="http://purl.org/dc/dcmitype/StillImage"/>
    <dc:date>2021-10-14T18:38:04.382709</dc:date>
    <dc:format>image/svg+xml</dc:format>
    <dc:creator>
     <cc:Agent>
      <dc:title>Matplotlib v3.3.2, https://matplotlib.org/</dc:title>
     </cc:Agent>
    </dc:creator>
   </cc:Work>
  </rdf:RDF>
 </metadata>
 <defs>
  <style type="text/css">*{stroke-linecap:butt;stroke-linejoin:round;}</style>
 </defs>
 <g id="figure_1">
  <g id="patch_1">
   <path d="M 0 144 
L 72 144 
L 72 0 
L 0 0 
z
" style="fill:none;"/>
  </g>
  <g id="axes_1">
   <g id="patch_2">
    <path d="M 9 67.68 
L 64.8 67.68 
L 64.8 17.28 
L 9 17.28 
z
" style="fill:none;"/>
   </g>
   <g id="matplotlib.axis_1">
    <g id="xtick_1">
     <g id="line2d_1">
      <defs>
       <path d="M 0 0 
L 0 3.5 
" id="m7fc88dd10d" style="stroke:#a9a9a9;stroke-width:2;"/>
      </defs>
      <g>
       <use style="fill:#a9a9a9;stroke:#a9a9a9;stroke-width:2;" x="9" xlink:href="#m7fc88dd10d" y="67.68"/>
      </g>
     </g>
    </g>
    <g id="xtick_2">
     <g id="line2d_2">
      <g>
       <use style="fill:#a9a9a9;stroke:#a9a9a9;stroke-width:2;" x="36.9" xlink:href="#m7fc88dd10d" y="67.68"/>
      </g>
     </g>
    </g>
    <g id="xtick_3">
     <g id="line2d_3">
      <g>
       <use style="fill:#a9a9a9;stroke:#a9a9a9;stroke-width:2;" x="64.8" xlink:href="#m7fc88dd10d" y="67.68"/>
      </g>
     </g>
    </g>
   </g>
   <g id="matplotlib.axis_2">
    <g id="ytick_1">
     <g id="line2d_4">
      <defs>
       <path d="M 0 0 
L -3.5 0 
" id="m0e9260630b" style="stroke:#a9a9a9;stroke-width:2;"/>
      </defs>
      <g>
       <use style="fill:#a9a9a9;stroke:#a9a9a9;stroke-width:2;" x="9" xlink:href="#m0e9260630b" y="67.68"/>
      </g>
     </g>
    </g>
    <g id="ytick_2">
     <g id="line2d_5">
      <g>
       <use style="fill:#a9a9a9;stroke:#a9a9a9;stroke-width:2;" x="9" xlink:href="#m0e9260630b" y="58.395742"/>
      </g>
     </g>
    </g>
    <g id="ytick_3">
     <g id="line2d_6">
      <g>
       <use style="fill:#a9a9a9;stroke:#a9a9a9;stroke-width:2;" x="9" xlink:href="#m0e9260630b" y="49.111483"/>
      </g>
     </g>
    </g>
   </g>
   <g id="line2d_7">
    <path clip-path="url(#p4cdafb0501)" d="M 10.860031 57.95699 
L 11.790031 55.95634 
L 12.720031 53.960187 
L 13.650031 52.787277 
L 14.580031 52.003569 
L 15.510031 51.684308 
L 16.440031 51.312467 
L 17.370031 50.112422 
L 18.300031 49.345691 
L 19.230031 47.892135 
L 20.160031 47.155192 
L 21.090031 46.233797 
L 22.020031 45.082423 
L 22.950031 44.346428 
L 23.880031 42.897182 
L 24.810031 41.9199 
L 25.740031 41.285986 
L 26.670031 40.274352 
L 27.600031 39.346633 
L 28.530031 38.626074 
L 29.460031 37.883685 
L 30.390031 37.20422 
L 31.320031 36.202238 
L 32.250031 36.170838 
L 33.180031 35.438845 
L 34.110031 35.196988 
L 35.040031 34.065388 
L 35.970031 33.662428 
L 36.900031 33.133989 
L 37.830031 32.162826 
L 38.760031 31.471145 
L 39.690031 31.103081 
L 40.620031 31.028553 
L 41.550031 29.811452 
L 42.480031 29.571733 
L 43.410031 29.125863 
L 44.340031 28.333565 
L 45.270031 28.216026 
L 46.200031 27.205671 
L 47.130031 27.003284 
L 48.060031 25.973151 
L 48.990031 25.263664 
L 49.920031 24.24511 
L 50.850031 24.13898 
L 51.780031 22.701494 
L 52.710031 22.545539 
L 53.640031 22.788076 
L 54.570031 22.17366 
L 55.500031 21.422982 
L 56.430031 20.779156 
L 57.360031 19.932472 
L 58.290031 19.831417 
L 59.220031 19.413902 
L 60.150031 19.248734 
L 61.080031 18.723576 
L 62.010031 17.92887 
L 62.940031 17.814248 
L 63.870031 17.744213 
" style="fill:none;stroke:#fc8d62;stroke-linecap:square;stroke-width:2;"/>
   </g>
   <g id="line2d_8">
    <path clip-path="url(#p4cdafb0501)" d="M 10.860031 57.461815 
L 11.790031 55.587067 
L 12.720031 53.41134 
L 13.650031 52.056214 
L 14.580031 50.528277 
L 15.510031 49.628965 
L 16.440031 48.541175 
L 17.370031 46.539202 
L 18.300031 45.749951 
L 19.230031 44.639217 
L 20.160031 44.011163 
L 21.090031 43.23991 
L 22.020031 42.154584 
L 22.950031 41.370101 
L 23.880031 40.480555 
L 24.810031 39.914443 
L 25.740031 38.845182 
L 26.670031 38.221164 
L 27.600031 37.551899 
L 28.530031 36.87597 
L 29.460031 36.318832 
L 30.390031 35.961778 
L 31.320031 34.86804 
L 32.250031 34.341239 
L 33.180031 33.333365 
L 34.110031 32.243022 
L 35.040031 31.858131 
L 35.970031 30.32097 
L 36.900031 30.019919 
L 37.830031 29.159833 
L 38.760031 28.437138 
L 39.690031 27.203886 
L 40.620031 26.23976 
L 41.550031 25.917556 
L 42.480031 26.213328 
L 43.410031 25.940773 
L 44.340031 24.828564 
L 45.270031 24.089222 
L 46.200031 23.444849 
L 47.130031 22.95384 
L 48.060031 22.775305 
L 48.990031 22.737602 
L 49.920031 22.054834 
L 50.850031 21.094029 
L 51.780031 20.243496 
L 52.710031 19.965796 
L 53.640031 19.018465 
L 54.570031 17.921468 
L 55.500031 17.487657 
L 56.430031 16.97027 
L 57.360031 16.499355 
L 58.290031 15.110607 
L 59.220031 15.262628 
L 60.150031 14.052838 
L 61.080031 14.056712 
L 62.010031 14.546015 
L 62.940031 13.747624 
L 63.870031 13.206912 
" style="fill:none;stroke:#fc8d62;stroke-dasharray:1.5,1.5;stroke-dashoffset:0;stroke-opacity:0.7;stroke-width:1.5;"/>
   </g>
   <g id="patch_3">
    <path d="M 9 67.68 
L 9 17.28 
" style="fill:none;stroke:#a9a9a9;stroke-linecap:square;stroke-linejoin:miter;stroke-width:2;"/>
   </g>
   <g id="patch_4">
    <path d="M 64.8 67.68 
L 64.8 17.28 
" style="fill:none;"/>
   </g>
   <g id="patch_5">
    <path d="M 9 67.68 
L 64.8 67.68 
" style="fill:none;stroke:#a9a9a9;stroke-linecap:square;stroke-linejoin:miter;stroke-width:2;"/>
   </g>
   <g id="patch_6">
    <path d="M 9 17.28 
L 64.8 17.28 
" style="fill:none;"/>
   </g>
  </g>
  <g id="axes_2">
   <g id="patch_7">
    <path d="M 9 128.16 
L 64.8 128.16 
L 64.8 77.76 
L 9 77.76 
z
" style="fill:none;"/>
   </g>
   <g id="matplotlib.axis_3">
    <g id="xtick_4">
     <g id="line2d_9">
      <g>
       <use style="fill:#a9a9a9;stroke:#a9a9a9;stroke-width:2;" x="9" xlink:href="#m7fc88dd10d" y="128.16"/>
      </g>
     </g>
    </g>
    <g id="xtick_5">
     <g id="line2d_10">
      <g>
       <use style="fill:#a9a9a9;stroke:#a9a9a9;stroke-width:2;" x="36.9" xlink:href="#m7fc88dd10d" y="128.16"/>
      </g>
     </g>
    </g>
    <g id="xtick_6">
     <g id="line2d_11">
      <g>
       <use style="fill:#a9a9a9;stroke:#a9a9a9;stroke-width:2;" x="64.8" xlink:href="#m7fc88dd10d" y="128.16"/>
      </g>
     </g>
    </g>
   </g>
   <g id="matplotlib.axis_4">
    <g id="ytick_4">
     <g id="line2d_12">
      <g>
       <use style="fill:#a9a9a9;stroke:#a9a9a9;stroke-width:2;" x="9" xlink:href="#m0e9260630b" y="128.16"/>
      </g>
     </g>
    </g>
    <g id="ytick_5">
     <g id="line2d_13">
      <g>
       <use style="fill:#a9a9a9;stroke:#a9a9a9;stroke-width:2;" x="9" xlink:href="#m0e9260630b" y="102.96"/>
      </g>
     </g>
    </g>
    <g id="ytick_6">
     <g id="line2d_14">
      <g>
       <use style="fill:#a9a9a9;stroke:#a9a9a9;stroke-width:2;" x="9" xlink:href="#m0e9260630b" y="77.76"/>
      </g>
     </g>
    </g>
   </g>
   <g id="line2d_15">
    <path clip-path="url(#pc7ed79622d)" d="M 10.860031 95.521545 
L 11.790031 93.891443 
L 12.720031 91.987144 
L 13.650031 91.31865 
L 14.580031 90.815111 
L 15.510031 90.524457 
L 16.440031 90.138325 
L 17.370031 89.810989 
L 18.300031 89.470697 
L 19.230031 89.200733 
L 20.160031 89.143223 
L 21.090031 88.927046 
L 22.020031 88.793159 
L 22.950031 88.661049 
L 23.880031 88.47074 
L 24.810031 88.339737 
L 25.740031 88.202612 
L 26.670031 88.104627 
L 27.600031 87.980911 
L 28.530031 87.904167 
L 29.460031 87.824699 
L 30.390031 87.778339 
L 31.320031 87.724321 
L 32.250031 87.733323 
L 33.180031 87.696513 
L 34.110031 87.664408 
L 35.040031 87.605461 
L 35.970031 87.590997 
L 36.900031 87.58041 
L 37.830031 87.558894 
L 38.760031 87.541445 
L 39.690031 87.474157 
L 40.620031 87.453161 
L 41.550031 87.429479 
L 42.480031 87.439375 
L 43.410031 87.41413 
L 44.340031 87.397103 
L 45.270031 87.38035 
L 46.200031 87.351424 
L 47.130031 87.362715 
L 48.060031 87.323907 
L 48.990031 87.308559 
L 49.920031 87.327094 
L 50.850031 87.326906 
L 51.780031 87.302756 
L 52.710031 87.282606 
L 53.640031 87.288838 
L 54.570031 87.264223 
L 55.500031 87.25812 
L 56.430031 87.263556 
L 57.360031 87.257012 
L 58.290031 87.248705 
L 59.220031 87.24249 
L 60.150031 87.230399 
L 61.080031 87.211621 
L 62.010031 87.186905 
L 62.940031 87.181502 
L 63.870031 87.178831 
" style="fill:none;stroke:#fc8d62;stroke-linecap:square;stroke-width:2;"/>
   </g>
   <g id="line2d_16">
    <path clip-path="url(#pc7ed79622d)" d="M 10.860031 98.474185 
L 11.790031 95.862271 
L 12.720031 94.076717 
L 13.650031 93.441757 
L 14.580031 92.716904 
L 15.510031 92.214655 
L 16.440031 91.905647 
L 17.370031 91.533633 
L 18.300031 91.365395 
L 19.230031 91.241597 
L 20.160031 91.025722 
L 21.090031 90.81136 
L 22.020031 90.654293 
L 22.950031 90.582071 
L 23.880031 90.57063 
L 24.810031 90.44106 
L 25.740031 90.391467 
L 26.670031 90.3819 
L 27.600031 90.37323 
L 28.530031 90.342464 
L 29.460031 90.305883 
L 30.390031 90.301059 
L 31.320031 90.27317 
L 32.250031 90.264065 
L 33.180031 90.253421 
L 34.110031 90.184572 
L 35.040031 90.178061 
L 35.970031 90.144584 
L 36.900031 90.155304 
L 37.830031 90.108605 
L 38.760031 90.090854 
L 39.690031 90.021659 
L 40.620031 90.032966 
L 41.550031 90.03265 
L 42.480031 90.003477 
L 43.410031 90.021438 
L 44.340031 89.993879 
L 45.270031 89.964498 
L 46.200031 89.95603 
L 47.130031 89.955381 
L 48.060031 89.93426 
L 48.990031 89.922875 
L 49.920031 89.890806 
L 50.850031 89.869232 
L 51.780031 89.856041 
L 52.710031 89.865421 
L 53.640031 89.842781 
L 54.570031 89.824349 
L 55.500031 89.849771 
L 56.430031 89.850821 
L 57.360031 89.798448 
L 58.290031 89.766023 
L 59.220031 89.740063 
L 60.150031 89.712928 
L 61.080031 89.709071 
L 62.010031 89.728629 
L 62.940031 89.723848 
L 63.870031 89.66808 
" style="fill:none;stroke:#fc8d62;stroke-dasharray:1.5,1.5;stroke-dashoffset:0;stroke-opacity:0.7;stroke-width:1.5;"/>
   </g>
   <g id="patch_8">
    <path d="M 9 128.16 
L 9 77.76 
" style="fill:none;stroke:#a9a9a9;stroke-linecap:square;stroke-linejoin:miter;stroke-width:2;"/>
   </g>
   <g id="patch_9">
    <path d="M 64.8 128.16 
L 64.8 77.76 
" style="fill:none;"/>
   </g>
   <g id="patch_10">
    <path d="M 9 128.16 
L 64.8 128.16 
" style="fill:none;stroke:#a9a9a9;stroke-linecap:square;stroke-linejoin:miter;stroke-width:2;"/>
   </g>
   <g id="patch_11">
    <path d="M 9 77.76 
L 64.8 77.76 
" style="fill:none;"/>
   </g>
  </g>
 </g>
 <defs>
  <clipPath id="p4cdafb0501">
   <rect height="50.4" width="55.8" x="9" y="17.28"/>
  </clipPath>
  <clipPath id="pc7ed79622d">
   <rect height="50.4" width="55.8" x="9" y="77.76"/>
  </clipPath>
 </defs>
</svg>
