<?xml version="1.0" encoding="utf-8" standalone="no"?>
<!DOCTYPE svg PUBLIC "-//W3C//DTD SVG 1.1//EN"
  "http://www.w3.org/Graphics/SVG/1.1/DTD/svg11.dtd">
<!-- Created with matplotlib (https://matplotlib.org/) -->
<svg height="216pt" version="1.1" viewBox="0 0 72 216" width="72pt" xmlns="http://www.w3.org/2000/svg" xmlns:xlink="http://www.w3.org/1999/xlink">
 <metadata>
  <rdf:RDF xmlns:cc="http://creativecommons.org/ns#" xmlns:dc="http://purl.org/dc/elements/1.1/" xmlns:rdf="http://www.w3.org/1999/02/22-rdf-syntax-ns#">
   <cc:Work>
    <dc:type rdf:resource="http://purl.org/dc/dcmitype/StillImage"/>
    <dc:date>2021-10-13T00:19:50.610833</dc:date>
    <dc:format>image/svg+xml</dc:format>
    <dc:creator>
     <cc:Agent>
      <dc:title>Matplotlib v3.3.2, https://matplotlib.org/</dc:title>
     </cc:Agent>
    </dc:creator>
   </cc:Work>
  </rdf:RDF>
 </metadata>
 <defs>
  <style type="text/css">*{stroke-linecap:butt;stroke-linejoin:round;}</style>
 </defs>
 <g id="figure_1">
  <g id="patch_1">
   <path d="M 0 216 
L 72 216 
L 72 0 
L 0 0 
z
" style="fill:none;"/>
  </g>
  <g id="axes_1">
   <g id="patch_2">
    <path d="M 9 74.837647 
L 64.8 74.837647 
L 64.8 25.92 
L 9 25.92 
z
" style="fill:none;"/>
   </g>
   <g id="matplotlib.axis_1">
    <g id="xtick_1">
     <g id="line2d_1">
      <defs>
       <path d="M 0 0 
L 0 3.5 
" id="m22f87e50cc" style="stroke:#a9a9a9;stroke-width:2;"/>
      </defs>
      <g>
       <use style="fill:#a9a9a9;stroke:#a9a9a9;stroke-width:2;" x="9" xlink:href="#m22f87e50cc" y="74.837647"/>
      </g>
     </g>
    </g>
    <g id="xtick_2">
     <g id="line2d_2">
      <g>
       <use style="fill:#a9a9a9;stroke:#a9a9a9;stroke-width:2;" x="36.9" xlink:href="#m22f87e50cc" y="74.837647"/>
      </g>
     </g>
    </g>
    <g id="xtick_3">
     <g id="line2d_3">
      <g>
       <use style="fill:#a9a9a9;stroke:#a9a9a9;stroke-width:2;" x="64.8" xlink:href="#m22f87e50cc" y="74.837647"/>
      </g>
     </g>
    </g>
   </g>
   <g id="matplotlib.axis_2">
    <g id="ytick_1">
     <g id="line2d_4">
      <defs>
       <path d="M 0 0 
L -3.5 0 
" id="ma283878bb3" style="stroke:#a9a9a9;stroke-width:2;"/>
      </defs>
      <g>
       <use style="fill:#a9a9a9;stroke:#a9a9a9;stroke-width:2;" x="9" xlink:href="#ma283878bb3" y="74.837647"/>
      </g>
     </g>
    </g>
    <g id="ytick_2">
     <g id="line2d_5">
      <g>
       <use style="fill:#a9a9a9;stroke:#a9a9a9;stroke-width:2;" x="9" xlink:href="#ma283878bb3" y="69.405708"/>
      </g>
     </g>
    </g>
    <g id="ytick_3">
     <g id="line2d_6">
      <g>
       <use style="fill:#a9a9a9;stroke:#a9a9a9;stroke-width:2;" x="9" xlink:href="#ma283878bb3" y="63.973768"/>
      </g>
     </g>
    </g>
   </g>
   <g id="line2d_7">
    <path clip-path="url(#pc67874069a)" d="M 10.86031 66.061144 
L 11.79031 64.642279 
L 12.72031 62.44402 
L 13.65031 62.469773 
L 14.58031 61.026382 
L 15.51031 60.082927 
L 16.44031 58.905024 
L 17.37031 57.719507 
L 18.30031 56.404492 
L 19.23031 55.055985 
L 20.16031 53.402884 
L 21.09031 51.209536 
L 22.02031 49.616157 
L 22.95031 49.115431 
L 23.88031 48.607029 
L 24.81031 48.145479 
L 25.74031 47.06586 
L 26.67031 46.20312 
L 27.60031 44.944342 
L 28.53031 45.015034 
L 29.46031 44.351743 
L 30.39031 44.012946 
L 31.32031 44.105625 
L 32.25031 43.80529 
L 33.18031 43.332264 
L 34.11031 42.635991 
L 35.04031 42.440794 
L 35.97031 41.478479 
L 36.90031 41.19202 
L 37.83031 40.095211 
L 38.76031 40.082028 
L 39.69031 39.740492 
L 40.62031 38.948527 
L 41.55031 38.231996 
L 42.48031 37.558492 
L 43.41031 36.728961 
L 44.34031 36.197122 
L 45.27031 35.92427 
L 46.20031 35.580236 
L 47.13031 35.000075 
L 48.06031 34.281899 
L 48.99031 33.438246 
L 49.92031 33.056011 
L 50.85031 31.923066 
L 51.78031 31.201401 
L 52.71031 30.341106 
L 53.64031 29.972094 
L 54.57031 29.472245 
L 55.50031 29.057039 
L 56.43031 28.977253 
L 57.36031 28.797908 
L 58.29031 28.833847 
L 59.22031 28.840635 
L 60.15031 27.931575 
L 61.08031 27.728601 
L 62.01031 27.20969 
L 62.94031 26.527393 
L 63.87031 26.191597 
" style="fill:none;stroke:#fc8d62;stroke-linecap:square;stroke-width:2;"/>
   </g>
   <g id="line2d_8">
    <path clip-path="url(#pc67874069a)" d="M 10.86031 65.742963 
L 11.79031 63.358303 
L 12.72031 62.476487 
L 13.65031 60.95616 
L 14.58031 58.874436 
L 15.51031 58.036141 
L 16.44031 57.481445 
L 17.37031 56.470684 
L 18.30031 55.429709 
L 19.23031 54.309546 
L 20.16031 53.252216 
L 21.09031 52.366177 
L 22.02031 51.131627 
L 22.95031 49.562838 
L 23.88031 47.774917 
L 24.81031 46.426056 
L 25.74031 45.700635 
L 26.67031 45.488454 
L 27.60031 45.075172 
L 28.53031 43.662922 
L 29.46031 43.209805 
L 30.39031 43.032055 
L 31.32031 42.389404 
L 32.25031 40.595016 
L 33.18031 40.13336 
L 34.11031 40.380906 
L 35.04031 39.853746 
L 35.97031 39.4668 
L 36.90031 38.283098 
L 37.83031 37.297521 
L 38.76031 37.054045 
L 39.69031 37.170918 
L 40.62031 36.437263 
L 41.55031 36.022302 
L 42.48031 36.443335 
L 43.41031 36.113468 
L 44.34031 35.664521 
L 45.27031 35.555622 
L 46.20031 35.81358 
L 47.13031 35.565517 
L 48.06031 34.703455 
L 48.99031 34.423062 
L 49.92031 33.59353 
L 50.85031 32.382441 
L 51.78031 31.548796 
L 52.71031 31.203399 
L 53.64031 30.544793 
L 54.57031 30.920458 
L 55.50031 30.242465 
L 56.43031 29.377399 
L 57.36031 28.878898 
L 58.29031 28.330666 
L 59.22031 27.801736 
L 60.15031 27.088195 
L 61.08031 26.469847 
L 62.01031 26.28719 
L 62.94031 25.652566 
L 63.87031 25.51597 
" style="fill:none;stroke:#fc8d62;stroke-dasharray:1.5,1.5;stroke-dashoffset:0;stroke-opacity:0.7;stroke-width:1.5;"/>
   </g>
   <g id="patch_3">
    <path d="M 9 74.837647 
L 9 25.92 
" style="fill:none;stroke:#a9a9a9;stroke-linecap:square;stroke-linejoin:miter;stroke-width:2;"/>
   </g>
   <g id="patch_4">
    <path d="M 64.8 74.837647 
L 64.8 25.92 
" style="fill:none;"/>
   </g>
   <g id="patch_5">
    <path d="M 9 74.837647 
L 64.8 74.837647 
" style="fill:none;stroke:#a9a9a9;stroke-linecap:square;stroke-linejoin:miter;stroke-width:2;"/>
   </g>
   <g id="patch_6">
    <path d="M 9 25.92 
L 64.8 25.92 
" style="fill:none;"/>
   </g>
  </g>
  <g id="axes_2">
   <g id="patch_7">
    <path d="M 9 133.538824 
L 64.8 133.538824 
L 64.8 84.621176 
L 9 84.621176 
z
" style="fill:none;"/>
   </g>
   <g id="matplotlib.axis_3">
    <g id="xtick_4">
     <g id="line2d_9">
      <g>
       <use style="fill:#a9a9a9;stroke:#a9a9a9;stroke-width:2;" x="9" xlink:href="#m22f87e50cc" y="133.538824"/>
      </g>
     </g>
    </g>
    <g id="xtick_5">
     <g id="line2d_10">
      <g>
       <use style="fill:#a9a9a9;stroke:#a9a9a9;stroke-width:2;" x="36.9" xlink:href="#m22f87e50cc" y="133.538824"/>
      </g>
     </g>
    </g>
    <g id="xtick_6">
     <g id="line2d_11">
      <g>
       <use style="fill:#a9a9a9;stroke:#a9a9a9;stroke-width:2;" x="64.8" xlink:href="#m22f87e50cc" y="133.538824"/>
      </g>
     </g>
    </g>
   </g>
   <g id="matplotlib.axis_4">
    <g id="ytick_4">
     <g id="line2d_12">
      <g>
       <use style="fill:#a9a9a9;stroke:#a9a9a9;stroke-width:2;" x="9" xlink:href="#ma283878bb3" y="133.538824"/>
      </g>
     </g>
    </g>
    <g id="ytick_5">
     <g id="line2d_13">
      <g>
       <use style="fill:#a9a9a9;stroke:#a9a9a9;stroke-width:2;" x="9" xlink:href="#ma283878bb3" y="109.08"/>
      </g>
     </g>
    </g>
    <g id="ytick_6">
     <g id="line2d_14">
      <g>
       <use style="fill:#a9a9a9;stroke:#a9a9a9;stroke-width:2;" x="9" xlink:href="#ma283878bb3" y="84.621176"/>
      </g>
     </g>
    </g>
   </g>
   <g id="line2d_15">
    <path clip-path="url(#p2856017e22)" d="M 10.86031 113.238472 
L 11.79031 111.857945 
L 12.72031 110.810514 
L 13.65031 110.681739 
L 14.58031 110.690614 
L 15.51031 110.324091 
L 16.44031 110.370969 
L 17.37031 110.276997 
L 18.30031 110.197256 
L 19.23031 110.2264 
L 20.16031 110.159408 
L 21.09031 110.091915 
L 22.02031 110.023874 
L 22.95031 110.026478 
L 23.88031 110.048051 
L 24.81031 110.124227 
L 25.74031 110.074066 
L 26.67031 110.083336 
L 27.60031 110.063927 
L 28.53031 110.06876 
L 29.46031 110.099234 
L 30.39031 110.037674 
L 31.32031 110.077823 
L 32.25031 110.061514 
L 33.18031 110.026236 
L 34.11031 110.041812 
L 35.04031 109.957266 
L 35.97031 109.88243 
L 36.90031 109.908613 
L 37.83031 109.862407 
L 38.76031 109.870257 
L 39.69031 109.818559 
L 40.62031 109.805915 
L 41.55031 109.798685 
L 42.48031 109.794437 
L 43.41031 109.787087 
L 44.34031 109.794191 
L 45.27031 109.801886 
L 46.20031 109.792893 
L 47.13031 109.789854 
L 48.06031 109.821075 
L 48.99031 109.803793 
L 49.92031 109.803028 
L 50.85031 109.812203 
L 51.78031 109.825574 
L 52.71031 109.834743 
L 53.64031 109.833703 
L 54.57031 109.787691 
L 55.50031 109.791904 
L 56.43031 109.815725 
L 57.36031 109.800624 
L 58.29031 109.787543 
L 59.22031 109.764992 
L 60.15031 109.754278 
L 61.08031 109.75017 
L 62.01031 109.756799 
L 62.94031 109.741959 
L 63.87031 109.739454 
" style="fill:none;stroke:#fc8d62;stroke-linecap:square;stroke-width:2;"/>
   </g>
   <g id="line2d_16">
    <path clip-path="url(#p2856017e22)" d="M 10.86031 102.10199 
L 11.79031 101.186544 
L 12.72031 100.616519 
L 13.65031 100.207382 
L 14.58031 100.062948 
L 15.51031 99.984665 
L 16.44031 99.885103 
L 17.37031 99.655634 
L 18.30031 99.567305 
L 19.23031 99.570562 
L 20.16031 99.516005 
L 21.09031 99.478909 
L 22.02031 99.394459 
L 22.95031 99.397036 
L 23.88031 99.360834 
L 24.81031 99.346419 
L 25.74031 99.288919 
L 26.67031 99.314645 
L 27.60031 99.327647 
L 28.53031 99.326864 
L 29.46031 99.312561 
L 30.39031 99.272394 
L 31.32031 99.294338 
L 32.25031 99.274631 
L 33.18031 99.285883 
L 34.11031 99.320245 
L 35.04031 99.299316 
L 35.97031 99.25047 
L 36.90031 99.242444 
L 37.83031 99.221395 
L 38.76031 99.240925 
L 39.69031 99.228531 
L 40.62031 99.222428 
L 41.55031 99.217948 
L 42.48031 99.222738 
L 43.41031 99.209314 
L 44.34031 99.211737 
L 45.27031 99.231495 
L 46.20031 99.241942 
L 47.13031 99.216172 
L 48.06031 99.214305 
L 48.99031 99.196577 
L 49.92031 99.177736 
L 50.85031 99.17098 
L 51.78031 99.163771 
L 52.71031 99.171757 
L 53.64031 99.155215 
L 54.57031 99.156548 
L 55.50031 99.173243 
L 56.43031 99.170999 
L 57.36031 99.187425 
L 58.29031 99.196982 
L 59.22031 99.205106 
L 60.15031 99.20786 
L 61.08031 99.215456 
L 62.01031 99.208596 
L 62.94031 99.197513 
L 63.87031 99.191312 
" style="fill:none;stroke:#fc8d62;stroke-dasharray:1.5,1.5;stroke-dashoffset:0;stroke-opacity:0.7;stroke-width:1.5;"/>
   </g>
   <g id="patch_8">
    <path d="M 9 133.538824 
L 9 84.621176 
" style="fill:none;stroke:#a9a9a9;stroke-linecap:square;stroke-linejoin:miter;stroke-width:2;"/>
   </g>
   <g id="patch_9">
    <path d="M 64.8 133.538824 
L 64.8 84.621176 
" style="fill:none;"/>
   </g>
   <g id="patch_10">
    <path d="M 9 133.538824 
L 64.8 133.538824 
" style="fill:none;stroke:#a9a9a9;stroke-linecap:square;stroke-linejoin:miter;stroke-width:2;"/>
   </g>
   <g id="patch_11">
    <path d="M 9 84.621176 
L 64.8 84.621176 
" style="fill:none;"/>
   </g>
  </g>
  <g id="axes_3">
   <g id="patch_12">
    <path d="M 9 192.24 
L 64.8 192.24 
L 64.8 143.322353 
L 9 143.322353 
z
" style="fill:none;"/>
   </g>
   <g id="matplotlib.axis_5">
    <g id="xtick_7">
     <g id="line2d_17">
      <g>
       <use style="fill:#a9a9a9;stroke:#a9a9a9;stroke-width:2;" x="9" xlink:href="#m22f87e50cc" y="143.407646"/>
      </g>
     </g>
    </g>
    <g id="xtick_8">
     <g id="line2d_18">
      <g>
       <use style="fill:#a9a9a9;stroke:#a9a9a9;stroke-width:2;" x="36.9" xlink:href="#m22f87e50cc" y="143.407646"/>
      </g>
     </g>
    </g>
    <g id="xtick_9">
     <g id="line2d_19">
      <g>
       <use style="fill:#a9a9a9;stroke:#a9a9a9;stroke-width:2;" x="64.8" xlink:href="#m22f87e50cc" y="143.407646"/>
      </g>
     </g>
    </g>
   </g>
   <g id="matplotlib.axis_6">
    <g id="ytick_7">
     <g id="line2d_20">
      <g>
       <use style="fill:#a9a9a9;stroke:#a9a9a9;stroke-width:2;" x="9" xlink:href="#ma283878bb3" y="143.407646"/>
      </g>
     </g>
    </g>
    <g id="ytick_8">
     <g id="line2d_21">
      <g>
       <use style="fill:#a9a9a9;stroke:#a9a9a9;stroke-width:2;" x="9" xlink:href="#ma283878bb3" y="175.962549"/>
      </g>
     </g>
    </g>
   </g>
   <g id="line2d_22">
    <path clip-path="url(#p996bd719f6)" d="M 10.86031 155.363828 
L 11.79031 151.576414 
L 12.72031 150.960019 
L 13.65031 150.572593 
L 14.58031 151.173154 
L 15.51031 150.733293 
L 16.44031 151.214342 
L 17.37031 152.039762 
L 18.30031 152.289467 
L 19.23031 153.271301 
L 20.16031 153.571543 
L 21.09031 153.931144 
L 22.02031 154.352119 
L 22.95031 154.645894 
L 23.88031 154.323518 
L 24.81031 154.293612 
L 25.74031 154.418388 
L 26.67031 154.589699 
L 27.60031 154.443055 
L 28.53031 154.369538 
L 29.46031 154.491204 
L 30.39031 154.703934 
L 31.32031 154.608016 
L 32.25031 154.594937 
L 33.18031 154.679699 
L 34.11031 154.862177 
L 35.04031 154.863835 
L 35.97031 154.392578 
L 36.90031 154.677526 
L 37.83031 154.634411 
L 38.76031 154.679561 
L 39.69031 154.36404 
L 40.62031 154.557448 
L 41.55031 154.559075 
L 42.48031 154.531321 
L 43.41031 154.550246 
L 44.34031 154.662937 
L 45.27031 154.647677 
L 46.20031 154.43512 
L 47.13031 154.652326 
L 48.06031 154.637176 
L 48.99031 154.617361 
L 49.92031 154.716874 
L 50.85031 154.702042 
L 51.78031 154.693781 
L 52.71031 154.661918 
L 53.64031 154.555729 
L 54.57031 154.537458 
L 55.50031 154.51757 
L 56.43031 154.781668 
L 57.36031 154.74406 
L 58.29031 154.843837 
L 59.22031 155.061031 
L 60.15031 155.163171 
L 61.08031 155.114166 
L 62.01031 155.141232 
L 62.94031 155.117101 
L 63.87031 155.169772 
" style="fill:none;stroke:#fc8d62;stroke-linecap:square;stroke-width:2;"/>
   </g>
   <g id="line2d_23">
    <path clip-path="url(#p996bd719f6)" d="M 10.86031 143.407907 
L 11.79031 143.407619 
L 12.72031 143.40192 
L 13.65031 143.353897 
L 14.58031 143.390883 
L 15.51031 143.397807 
L 16.44031 143.386033 
L 17.37031 143.322353 
L 18.30031 143.354264 
L 19.23031 143.396749 
L 20.16031 143.403372 
L 21.09031 143.405978 
L 22.02031 143.389042 
L 22.95031 143.395952 
L 23.88031 143.391638 
L 24.81031 143.391934 
L 25.74031 143.40115 
L 26.67031 143.406479 
L 27.60031 143.407166 
L 28.53031 143.406687 
L 29.46031 143.407352 
L 30.39031 143.406639 
L 31.32031 143.405621 
L 32.25031 143.407646 
L 33.18031 143.40773 
L 34.11031 143.407646 
L 35.04031 143.407654 
L 35.97031 143.407649 
L 36.90031 143.407646 
L 37.83031 143.407646 
L 38.76031 143.407894 
L 39.69031 143.407639 
L 40.62031 143.407646 
L 41.55031 143.407646 
L 42.48031 143.40765 
L 43.41031 143.407668 
L 44.34031 143.407693 
L 45.27031 143.407652 
L 46.20031 143.407675 
L 47.13031 143.407651 
L 48.06031 143.407516 
L 48.99031 143.407636 
L 49.92031 143.407646 
L 50.85031 143.407652 
L 51.78031 143.407621 
L 52.71031 143.407767 
L 53.64031 143.407524 
L 54.57031 143.407639 
L 55.50031 143.407642 
L 56.43031 143.407715 
L 57.36031 143.407599 
L 58.29031 143.407651 
L 59.22031 143.407648 
L 60.15031 143.407782 
L 61.08031 143.407665 
L 62.01031 143.407629 
L 62.94031 143.407717 
L 63.87031 143.407486 
" style="fill:none;stroke:#fc8d62;stroke-dasharray:1.5,1.5;stroke-dashoffset:0;stroke-opacity:0.7;stroke-width:1.5;"/>
   </g>
   <g id="line2d_24">
    <path clip-path="url(#p996bd719f6)" d="M 9 175.962549 
L 64.8 175.962549 
" style="fill:none;stroke:#66c2a5;stroke-dasharray:1.5,1.5;stroke-dashoffset:0;stroke-opacity:0.7;stroke-width:1.5;"/>
   </g>
   <g id="patch_13">
    <path d="M 9 192.24 
L 9 143.322353 
" style="fill:none;stroke:#a9a9a9;stroke-linecap:square;stroke-linejoin:miter;stroke-width:2;"/>
   </g>
   <g id="patch_14">
    <path d="M 64.8 192.24 
L 64.8 143.322353 
" style="fill:none;"/>
   </g>
   <g id="patch_15">
    <path d="M 9 143.407646 
L 64.8 143.407646 
" style="fill:none;stroke:#a9a9a9;stroke-linecap:square;stroke-linejoin:miter;stroke-width:2;"/>
   </g>
   <g id="patch_16">
    <path d="M 9 143.322353 
L 64.8 143.322353 
" style="fill:none;"/>
   </g>
  </g>
 </g>
 <defs>
  <clipPath id="pc67874069a">
   <rect height="48.917647" width="55.8" x="9" y="25.92"/>
  </clipPath>
  <clipPath id="p2856017e22">
   <rect height="48.917647" width="55.8" x="9" y="84.621176"/>
  </clipPath>
  <clipPath id="p996bd719f6">
   <rect height="48.917647" width="55.8" x="9" y="143.322353"/>
  </clipPath>
 </defs>
</svg>
