<?xml version="1.0" encoding="utf-8" standalone="no"?>
<!DOCTYPE svg PUBLIC "-//W3C//DTD SVG 1.1//EN"
  "http://www.w3.org/Graphics/SVG/1.1/DTD/svg11.dtd">
<!-- Created with matplotlib (https://matplotlib.org/) -->
<svg height="144pt" version="1.1" viewBox="0 0 72 144" width="72pt" xmlns="http://www.w3.org/2000/svg" xmlns:xlink="http://www.w3.org/1999/xlink">
 <metadata>
  <rdf:RDF xmlns:cc="http://creativecommons.org/ns#" xmlns:dc="http://purl.org/dc/elements/1.1/" xmlns:rdf="http://www.w3.org/1999/02/22-rdf-syntax-ns#">
   <cc:Work>
    <dc:type rdf:resource="http://purl.org/dc/dcmitype/StillImage"/>
    <dc:date>2021-10-15T00:35:34.699488</dc:date>
    <dc:format>image/svg+xml</dc:format>
    <dc:creator>
     <cc:Agent>
      <dc:title>Matplotlib v3.3.2, https://matplotlib.org/</dc:title>
     </cc:Agent>
    </dc:creator>
   </cc:Work>
  </rdf:RDF>
 </metadata>
 <defs>
  <style type="text/css">*{stroke-linecap:butt;stroke-linejoin:round;}</style>
 </defs>
 <g id="figure_1">
  <g id="patch_1">
   <path d="M 0 144 
L 72 144 
L 72 0 
L 0 0 
z
" style="fill:none;"/>
  </g>
  <g id="axes_1">
   <g id="patch_2">
    <path d="M 9 67.68 
L 64.8 67.68 
L 64.8 17.28 
L 9 17.28 
z
" style="fill:none;"/>
   </g>
   <g id="matplotlib.axis_1">
    <g id="xtick_1">
     <g id="line2d_1">
      <defs>
       <path d="M 0 0 
L 0 3.5 
" id="m28ffbb269d" style="stroke:#a9a9a9;stroke-width:2;"/>
      </defs>
      <g>
       <use style="fill:#a9a9a9;stroke:#a9a9a9;stroke-width:2;" x="9" xlink:href="#m28ffbb269d" y="67.68"/>
      </g>
     </g>
    </g>
    <g id="xtick_2">
     <g id="line2d_2">
      <g>
       <use style="fill:#a9a9a9;stroke:#a9a9a9;stroke-width:2;" x="36.9" xlink:href="#m28ffbb269d" y="67.68"/>
      </g>
     </g>
    </g>
    <g id="xtick_3">
     <g id="line2d_3">
      <g>
       <use style="fill:#a9a9a9;stroke:#a9a9a9;stroke-width:2;" x="64.8" xlink:href="#m28ffbb269d" y="67.68"/>
      </g>
     </g>
    </g>
   </g>
   <g id="matplotlib.axis_2">
    <g id="ytick_1">
     <g id="line2d_4">
      <defs>
       <path d="M 0 0 
L -3.5 0 
" id="mc21b729fd3" style="stroke:#a9a9a9;stroke-width:2;"/>
      </defs>
      <g>
       <use style="fill:#a9a9a9;stroke:#a9a9a9;stroke-width:2;" x="9" xlink:href="#mc21b729fd3" y="67.68"/>
      </g>
     </g>
    </g>
    <g id="ytick_2">
     <g id="line2d_5">
      <g>
       <use style="fill:#a9a9a9;stroke:#a9a9a9;stroke-width:2;" x="9" xlink:href="#mc21b729fd3" y="59.632028"/>
      </g>
     </g>
    </g>
    <g id="ytick_3">
     <g id="line2d_6">
      <g>
       <use style="fill:#a9a9a9;stroke:#a9a9a9;stroke-width:2;" x="9" xlink:href="#mc21b729fd3" y="51.584056"/>
      </g>
     </g>
    </g>
   </g>
   <g id="line2d_7">
    <path clip-path="url(#pf3f28a0cf5)" d="M 10.860031 57.531509 
L 11.790031 56.1334 
L 12.720031 54.620207 
L 13.650031 51.968915 
L 14.580031 50.600462 
L 15.510031 49.872916 
L 16.440031 48.935307 
L 17.370031 47.268574 
L 18.300031 45.717802 
L 19.230031 45.043222 
L 20.160031 43.901248 
L 21.090031 42.485768 
L 22.020031 40.899876 
L 22.950031 39.745103 
L 23.880031 38.557274 
L 24.810031 38.387231 
L 25.740031 38.103975 
L 26.670031 37.751571 
L 27.600031 37.34383 
L 28.530031 37.376968 
L 29.460031 36.64214 
L 30.390031 35.114051 
L 31.320031 34.662698 
L 32.250031 34.44238 
L 33.180031 33.369056 
L 34.110031 33.251157 
L 35.040031 32.523484 
L 35.970031 32.215217 
L 36.900031 31.681503 
L 37.830031 30.917386 
L 38.760031 29.674363 
L 39.690031 29.646686 
L 40.620031 29.431646 
L 41.550031 28.967062 
L 42.480031 28.318599 
L 43.410031 28.433877 
L 44.340031 28.157902 
L 45.270031 27.552425 
L 46.200031 27.889981 
L 47.130031 27.171001 
L 48.060031 25.861881 
L 48.990031 25.109509 
L 49.920031 25.298509 
L 50.850031 25.354941 
L 51.780031 24.263073 
L 52.710031 23.744066 
L 53.640031 22.807921 
L 54.570031 21.588419 
L 55.500031 21.469548 
L 56.430031 21.915921 
L 57.360031 21.556437 
L 58.290031 20.691969 
L 59.220031 20.499444 
L 60.150031 20.243276 
L 61.080031 19.149785 
L 62.010031 19.055356 
L 62.940031 18.251575 
L 63.870031 17.682399 
" style="fill:none;stroke:#fc8d62;stroke-linecap:square;stroke-width:2;"/>
   </g>
   <g id="line2d_8">
    <path clip-path="url(#pf3f28a0cf5)" d="M 10.860031 65.926208 
L 11.790031 65.577436 
L 12.720031 66.296193 
L 13.650031 65.904808 
L 14.580031 65.999892 
L 15.510031 65.465159 
L 16.440031 65.353275 
L 17.370031 65.421085 
L 18.300031 65.265682 
L 19.230031 65.223564 
L 20.160031 65.112339 
L 21.090031 65.114387 
L 22.020031 65.140496 
L 22.950031 65.27832 
L 23.880031 65.248673 
L 24.810031 65.085109 
L 25.740031 64.974026 
L 26.670031 65.073362 
L 27.600031 64.8195 
L 28.530031 64.832485 
L 29.460031 64.713834 
L 30.390031 64.733516 
L 31.320031 64.65282 
L 32.250031 64.55182 
L 33.180031 64.396034 
L 34.110031 64.380236 
L 35.040031 64.404783 
L 35.970031 64.143424 
L 36.900031 64.057723 
L 37.830031 63.976358 
L 38.760031 63.851461 
L 39.690031 63.889064 
L 40.620031 63.932955 
L 41.550031 63.761663 
L 42.480031 63.902822 
L 43.410031 63.816744 
L 44.340031 63.851165 
L 45.270031 63.808156 
L 46.200031 63.834978 
L 47.130031 63.683555 
L 48.060031 63.867514 
L 48.990031 63.953258 
L 49.920031 64.017632 
L 50.850031 64.01358 
L 51.780031 63.93461 
L 52.710031 64.028277 
L 53.640031 63.994512 
L 54.570031 63.921821 
L 55.500031 63.841286 
L 56.430031 63.716962 
L 57.360031 63.693185 
L 58.290031 63.589524 
L 59.220031 63.478389 
L 60.150031 63.425431 
L 61.080031 63.343045 
L 62.010031 63.362704 
L 62.940031 63.317285 
L 63.870031 63.345079 
" style="fill:none;stroke:#fc8d62;stroke-dasharray:1.5,1.5;stroke-dashoffset:0;stroke-opacity:0.7;stroke-width:1.5;"/>
   </g>
   <g id="patch_3">
    <path d="M 9 67.68 
L 9 17.28 
" style="fill:none;stroke:#a9a9a9;stroke-linecap:square;stroke-linejoin:miter;stroke-width:2;"/>
   </g>
   <g id="patch_4">
    <path d="M 64.8 67.68 
L 64.8 17.28 
" style="fill:none;"/>
   </g>
   <g id="patch_5">
    <path d="M 9 67.68 
L 64.8 67.68 
" style="fill:none;stroke:#a9a9a9;stroke-linecap:square;stroke-linejoin:miter;stroke-width:2;"/>
   </g>
   <g id="patch_6">
    <path d="M 9 17.28 
L 64.8 17.28 
" style="fill:none;"/>
   </g>
  </g>
  <g id="axes_2">
   <g id="patch_7">
    <path d="M 9 128.16 
L 64.8 128.16 
L 64.8 77.76 
L 9 77.76 
z
" style="fill:none;"/>
   </g>
   <g id="matplotlib.axis_3">
    <g id="xtick_4">
     <g id="line2d_9">
      <g>
       <use style="fill:#a9a9a9;stroke:#a9a9a9;stroke-width:2;" x="9" xlink:href="#m28ffbb269d" y="128.16"/>
      </g>
     </g>
    </g>
    <g id="xtick_5">
     <g id="line2d_10">
      <g>
       <use style="fill:#a9a9a9;stroke:#a9a9a9;stroke-width:2;" x="36.9" xlink:href="#m28ffbb269d" y="128.16"/>
      </g>
     </g>
    </g>
    <g id="xtick_6">
     <g id="line2d_11">
      <g>
       <use style="fill:#a9a9a9;stroke:#a9a9a9;stroke-width:2;" x="64.8" xlink:href="#m28ffbb269d" y="128.16"/>
      </g>
     </g>
    </g>
   </g>
   <g id="matplotlib.axis_4">
    <g id="ytick_4">
     <g id="line2d_12">
      <g>
       <use style="fill:#a9a9a9;stroke:#a9a9a9;stroke-width:2;" x="9" xlink:href="#mc21b729fd3" y="128.16"/>
      </g>
     </g>
    </g>
    <g id="ytick_5">
     <g id="line2d_13">
      <g>
       <use style="fill:#a9a9a9;stroke:#a9a9a9;stroke-width:2;" x="9" xlink:href="#mc21b729fd3" y="102.96"/>
      </g>
     </g>
    </g>
    <g id="ytick_6">
     <g id="line2d_14">
      <g>
       <use style="fill:#a9a9a9;stroke:#a9a9a9;stroke-width:2;" x="9" xlink:href="#mc21b729fd3" y="77.76"/>
      </g>
     </g>
    </g>
   </g>
   <g id="line2d_15">
    <path clip-path="url(#pa1994d7b0f)" d="M 10.860031 109.036163 
L 11.790031 106.88931 
L 12.720031 105.816932 
L 13.650031 104.768046 
L 14.580031 104.21304 
L 15.510031 103.681396 
L 16.440031 103.386505 
L 17.370031 102.943834 
L 18.300031 102.694183 
L 19.230031 102.500148 
L 20.160031 102.297632 
L 21.090031 102.397828 
L 22.020031 102.124468 
L 22.950031 101.959087 
L 23.880031 101.798185 
L 24.810031 101.760459 
L 25.740031 101.685135 
L 26.670031 101.577505 
L 27.600031 101.481943 
L 28.530031 101.522824 
L 29.460031 101.452365 
L 30.390031 101.391714 
L 31.320031 101.2675 
L 32.250031 101.276852 
L 33.180031 101.241361 
L 34.110031 101.262679 
L 35.040031 101.233423 
L 35.970031 101.19845 
L 36.900031 101.174548 
L 37.830031 101.120046 
L 38.760031 101.069576 
L 39.690031 101.105913 
L 40.620031 101.081692 
L 41.550031 101.020711 
L 42.480031 101.013016 
L 43.410031 101.011147 
L 44.340031 100.983137 
L 45.270031 100.967206 
L 46.200031 100.942874 
L 47.130031 100.919365 
L 48.060031 100.927907 
L 48.990031 100.938871 
L 49.920031 100.927316 
L 50.850031 100.946058 
L 51.780031 100.936615 
L 52.710031 100.945633 
L 53.640031 100.961513 
L 54.570031 100.927871 
L 55.500031 100.900666 
L 56.430031 100.874352 
L 57.360031 100.870788 
L 58.290031 100.873465 
L 59.220031 100.835728 
L 60.150031 100.786025 
L 61.080031 100.757269 
L 62.010031 100.770811 
L 62.940031 100.767069 
L 63.870031 100.749264 
" style="fill:none;stroke:#fc8d62;stroke-linecap:square;stroke-width:2;"/>
   </g>
   <g id="line2d_16">
    <path clip-path="url(#pa1994d7b0f)" d="M 10.860031 128.13449 
L 11.790031 128.144392 
L 12.720031 128.123669 
L 13.650031 128.118984 
L 14.580031 128.134542 
L 15.510031 128.138042 
L 16.440031 128.12326 
L 17.370031 128.136664 
L 18.300031 128.12892 
L 19.230031 128.13037 
L 20.160031 128.137473 
L 21.090031 128.124329 
L 22.020031 128.130611 
L 22.950031 128.106284 
L 23.880031 128.128769 
L 24.810031 128.128465 
L 25.740031 128.131933 
L 26.670031 128.138187 
L 27.600031 128.132947 
L 28.530031 128.131773 
L 29.460031 128.126201 
L 30.390031 128.111617 
L 31.320031 128.104164 
L 32.250031 128.11861 
L 33.180031 128.119486 
L 34.110031 128.13776 
L 35.040031 128.152061 
L 35.970031 128.150188 
L 36.900031 128.153391 
L 37.830031 128.159595 
L 38.760031 128.159483 
L 39.690031 128.158369 
L 40.620031 128.159943 
L 41.550031 128.158532 
L 42.480031 128.154793 
L 43.410031 128.159758 
L 44.340031 128.159959 
L 45.270031 128.159876 
L 46.200031 128.159483 
L 47.130031 128.159999 
L 48.060031 128.159845 
L 48.990031 128.159739 
L 49.920031 128.159979 
L 50.850031 128.159869 
L 51.780031 128.159722 
L 52.710031 128.158706 
L 53.640031 128.15966 
L 54.570031 128.159985 
L 55.500031 128.159385 
L 56.430031 128.159988 
L 57.360031 128.159988 
L 58.290031 128.159895 
L 59.220031 128.159424 
L 60.150031 128.158296 
L 61.080031 128.159346 
L 62.010031 128.156584 
L 62.940031 128.158005 
L 63.870031 128.156068 
" style="fill:none;stroke:#fc8d62;stroke-dasharray:1.5,1.5;stroke-dashoffset:0;stroke-opacity:0.7;stroke-width:1.5;"/>
   </g>
   <g id="patch_8">
    <path d="M 9 128.16 
L 9 77.76 
" style="fill:none;stroke:#a9a9a9;stroke-linecap:square;stroke-linejoin:miter;stroke-width:2;"/>
   </g>
   <g id="patch_9">
    <path d="M 64.8 128.16 
L 64.8 77.76 
" style="fill:none;"/>
   </g>
   <g id="patch_10">
    <path d="M 9 128.16 
L 64.8 128.16 
" style="fill:none;stroke:#a9a9a9;stroke-linecap:square;stroke-linejoin:miter;stroke-width:2;"/>
   </g>
   <g id="patch_11">
    <path d="M 9 77.76 
L 64.8 77.76 
" style="fill:none;"/>
   </g>
  </g>
 </g>
 <defs>
  <clipPath id="pf3f28a0cf5">
   <rect height="50.4" width="55.8" x="9" y="17.28"/>
  </clipPath>
  <clipPath id="pa1994d7b0f">
   <rect height="50.4" width="55.8" x="9" y="77.76"/>
  </clipPath>
 </defs>
</svg>
