<?xml version="1.0" encoding="utf-8" standalone="no"?>
<!DOCTYPE svg PUBLIC "-//W3C//DTD SVG 1.1//EN"
  "http://www.w3.org/Graphics/SVG/1.1/DTD/svg11.dtd">
<!-- Created with matplotlib (https://matplotlib.org/) -->
<svg height="144pt" version="1.1" viewBox="0 0 72 144" width="72pt" xmlns="http://www.w3.org/2000/svg" xmlns:xlink="http://www.w3.org/1999/xlink">
 <metadata>
  <rdf:RDF xmlns:cc="http://creativecommons.org/ns#" xmlns:dc="http://purl.org/dc/elements/1.1/" xmlns:rdf="http://www.w3.org/1999/02/22-rdf-syntax-ns#">
   <cc:Work>
    <dc:type rdf:resource="http://purl.org/dc/dcmitype/StillImage"/>
    <dc:date>2021-10-13T14:14:45.189790</dc:date>
    <dc:format>image/svg+xml</dc:format>
    <dc:creator>
     <cc:Agent>
      <dc:title>Matplotlib v3.3.2, https://matplotlib.org/</dc:title>
     </cc:Agent>
    </dc:creator>
   </cc:Work>
  </rdf:RDF>
 </metadata>
 <defs>
  <style type="text/css">*{stroke-linecap:butt;stroke-linejoin:round;}</style>
 </defs>
 <g id="figure_1">
  <g id="patch_1">
   <path d="M 0 144 
L 72 144 
L 72 0 
L 0 0 
z
" style="fill:none;"/>
  </g>
  <g id="axes_1">
   <g id="patch_2">
    <path d="M 9 67.68 
L 64.8 67.68 
L 64.8 17.28 
L 9 17.28 
z
" style="fill:none;"/>
   </g>
   <g id="matplotlib.axis_1">
    <g id="xtick_1">
     <g id="line2d_1">
      <defs>
       <path d="M 0 0 
L 0 3.5 
" id="m60636d9112" style="stroke:#a9a9a9;stroke-width:2;"/>
      </defs>
      <g>
       <use style="fill:#a9a9a9;stroke:#a9a9a9;stroke-width:2;" x="9" xlink:href="#m60636d9112" y="67.68"/>
      </g>
     </g>
    </g>
    <g id="xtick_2">
     <g id="line2d_2">
      <g>
       <use style="fill:#a9a9a9;stroke:#a9a9a9;stroke-width:2;" x="36.9" xlink:href="#m60636d9112" y="67.68"/>
      </g>
     </g>
    </g>
    <g id="xtick_3">
     <g id="line2d_3">
      <g>
       <use style="fill:#a9a9a9;stroke:#a9a9a9;stroke-width:2;" x="64.8" xlink:href="#m60636d9112" y="67.68"/>
      </g>
     </g>
    </g>
   </g>
   <g id="matplotlib.axis_2">
    <g id="ytick_1">
     <g id="line2d_4">
      <defs>
       <path d="M 0 0 
L -3.5 0 
" id="m076f52bb87" style="stroke:#a9a9a9;stroke-width:2;"/>
      </defs>
      <g>
       <use style="fill:#a9a9a9;stroke:#a9a9a9;stroke-width:2;" x="9" xlink:href="#m076f52bb87" y="67.68"/>
      </g>
     </g>
    </g>
    <g id="ytick_2">
     <g id="line2d_5">
      <g>
       <use style="fill:#a9a9a9;stroke:#a9a9a9;stroke-width:2;" x="9" xlink:href="#m076f52bb87" y="61.205798"/>
      </g>
     </g>
    </g>
    <g id="ytick_3">
     <g id="line2d_6">
      <g>
       <use style="fill:#a9a9a9;stroke:#a9a9a9;stroke-width:2;" x="9" xlink:href="#m076f52bb87" y="54.731596"/>
      </g>
     </g>
    </g>
   </g>
   <g id="line2d_7">
    <path clip-path="url(#pb0f2cd1291)" d="M 10.86031 58.995838 
L 11.79031 57.138553 
L 12.72031 54.97062 
L 13.65031 53.078053 
L 14.58031 52.011555 
L 15.51031 50.439542 
L 16.44031 49.409585 
L 17.37031 48.13309 
L 18.30031 47.869714 
L 19.23031 46.120124 
L 20.16031 45.036677 
L 21.09031 44.424678 
L 22.02031 43.945264 
L 22.95031 43.651948 
L 23.88031 42.601887 
L 24.81031 40.744987 
L 25.74031 40.514683 
L 26.67031 39.665384 
L 27.60031 38.821275 
L 28.53031 38.646098 
L 29.46031 37.346108 
L 30.39031 36.521099 
L 31.32031 35.695981 
L 32.25031 35.45251 
L 33.18031 34.5137 
L 34.11031 34.020631 
L 35.04031 33.167326 
L 35.97031 32.903599 
L 36.90031 32.277343 
L 37.83031 31.334923 
L 38.76031 30.650081 
L 39.69031 29.906314 
L 40.62031 29.073257 
L 41.55031 28.673187 
L 42.48031 28.366616 
L 43.41031 27.744393 
L 44.34031 26.833213 
L 45.27031 26.765622 
L 46.20031 27.145772 
L 47.13031 26.895502 
L 48.06031 26.25135 
L 48.99031 25.87489 
L 49.92031 25.16654 
L 50.85031 25.067953 
L 51.78031 24.532238 
L 52.71031 24.07013 
L 53.64031 23.750907 
L 54.57031 23.229318 
L 55.50031 22.43677 
L 56.43031 21.958949 
L 57.36031 21.900668 
L 58.29031 21.491997 
L 59.22031 20.57241 
L 60.15031 19.317867 
L 61.08031 18.645447 
L 62.01031 17.879299 
L 62.94031 17.60371 
L 63.87031 17.901215 
" style="fill:none;stroke:#fc8d62;stroke-linecap:square;stroke-width:2;"/>
   </g>
   <g id="line2d_8">
    <path clip-path="url(#pb0f2cd1291)" d="M 10.86031 59.322912 
L 11.79031 56.908823 
L 12.72031 55.112365 
L 13.65031 53.587755 
L 14.58031 52.354959 
L 15.51031 50.338992 
L 16.44031 48.737808 
L 17.37031 48.511198 
L 18.30031 47.022221 
L 19.23031 45.735949 
L 20.16031 45.430269 
L 21.09031 45.199122 
L 22.02031 44.497823 
L 22.95031 43.095148 
L 23.88031 42.088209 
L 24.81031 40.823911 
L 25.74031 39.966509 
L 26.67031 39.640152 
L 27.60031 38.230868 
L 28.53031 38.034714 
L 29.46031 36.403886 
L 30.39031 36.154419 
L 31.32031 35.865843 
L 32.25031 35.607856 
L 33.18031 34.738354 
L 34.11031 34.750719 
L 35.04031 34.321539 
L 35.97031 34.053382 
L 36.90031 33.188559 
L 37.83031 32.935207 
L 38.76031 33.029228 
L 39.69031 32.256709 
L 40.62031 31.886228 
L 41.55031 31.297576 
L 42.48031 30.601632 
L 43.41031 30.075874 
L 44.34031 30.095521 
L 45.27031 28.498911 
L 46.20031 28.593619 
L 47.13031 27.600185 
L 48.06031 27.678585 
L 48.99031 26.96163 
L 49.92031 26.671424 
L 50.85031 25.984594 
L 51.78031 25.642002 
L 52.71031 25.564931 
L 53.64031 24.915806 
L 54.57031 24.365934 
L 55.50031 24.790178 
L 56.43031 23.884071 
L 57.36031 24.181441 
L 58.29031 22.111756 
L 59.22031 21.932202 
L 60.15031 21.444411 
L 61.08031 21.140546 
L 62.01031 20.455364 
L 62.94031 20.358958 
L 63.87031 19.992955 
" style="fill:none;stroke:#fc8d62;stroke-dasharray:1.5,1.5;stroke-dashoffset:0;stroke-opacity:0.7;stroke-width:1.5;"/>
   </g>
   <g id="patch_3">
    <path d="M 9 67.68 
L 9 17.28 
" style="fill:none;stroke:#a9a9a9;stroke-linecap:square;stroke-linejoin:miter;stroke-width:2;"/>
   </g>
   <g id="patch_4">
    <path d="M 64.8 67.68 
L 64.8 17.28 
" style="fill:none;"/>
   </g>
   <g id="patch_5">
    <path d="M 9 67.68 
L 64.8 67.68 
" style="fill:none;stroke:#a9a9a9;stroke-linecap:square;stroke-linejoin:miter;stroke-width:2;"/>
   </g>
   <g id="patch_6">
    <path d="M 9 17.28 
L 64.8 17.28 
" style="fill:none;"/>
   </g>
  </g>
  <g id="axes_2">
   <g id="patch_7">
    <path d="M 9 128.16 
L 64.8 128.16 
L 64.8 77.76 
L 9 77.76 
z
" style="fill:none;"/>
   </g>
   <g id="matplotlib.axis_3">
    <g id="xtick_4">
     <g id="line2d_9">
      <g>
       <use style="fill:#a9a9a9;stroke:#a9a9a9;stroke-width:2;" x="9" xlink:href="#m60636d9112" y="128.16"/>
      </g>
     </g>
    </g>
    <g id="xtick_5">
     <g id="line2d_10">
      <g>
       <use style="fill:#a9a9a9;stroke:#a9a9a9;stroke-width:2;" x="36.9" xlink:href="#m60636d9112" y="128.16"/>
      </g>
     </g>
    </g>
    <g id="xtick_6">
     <g id="line2d_11">
      <g>
       <use style="fill:#a9a9a9;stroke:#a9a9a9;stroke-width:2;" x="64.8" xlink:href="#m60636d9112" y="128.16"/>
      </g>
     </g>
    </g>
   </g>
   <g id="matplotlib.axis_4">
    <g id="ytick_4">
     <g id="line2d_12">
      <g>
       <use style="fill:#a9a9a9;stroke:#a9a9a9;stroke-width:2;" x="9" xlink:href="#m076f52bb87" y="128.16"/>
      </g>
     </g>
    </g>
    <g id="ytick_5">
     <g id="line2d_13">
      <g>
       <use style="fill:#a9a9a9;stroke:#a9a9a9;stroke-width:2;" x="9" xlink:href="#m076f52bb87" y="102.96"/>
      </g>
     </g>
    </g>
    <g id="ytick_6">
     <g id="line2d_14">
      <g>
       <use style="fill:#a9a9a9;stroke:#a9a9a9;stroke-width:2;" x="9" xlink:href="#m076f52bb87" y="77.76"/>
      </g>
     </g>
    </g>
   </g>
   <g id="line2d_15">
    <path clip-path="url(#p6d3efcbca4)" d="M 10.86031 93.072343 
L 11.79031 91.420118 
L 12.72031 90.151395 
L 13.65031 89.241286 
L 14.58031 88.827036 
L 15.51031 88.50348 
L 16.44031 88.287469 
L 17.37031 88.034083 
L 18.30031 87.947406 
L 19.23031 87.762992 
L 20.16031 87.686963 
L 21.09031 87.628823 
L 22.02031 87.562405 
L 22.95031 87.507118 
L 23.88031 87.476793 
L 24.81031 87.388024 
L 25.74031 87.325313 
L 26.67031 87.282155 
L 27.60031 87.266393 
L 28.53031 87.212158 
L 29.46031 87.133594 
L 30.39031 87.102045 
L 31.32031 87.090822 
L 32.25031 87.056757 
L 33.18031 87.053878 
L 34.11031 87.042953 
L 35.04031 87.051452 
L 35.97031 87.025398 
L 36.90031 87.023133 
L 37.83031 87.017507 
L 38.76031 87.01094 
L 39.69031 86.993679 
L 40.62031 86.972244 
L 41.55031 86.942489 
L 42.48031 86.937992 
L 43.41031 86.925516 
L 44.34031 86.92087 
L 45.27031 86.9292 
L 46.20031 86.935524 
L 47.13031 86.936626 
L 48.06031 86.946417 
L 48.99031 86.952076 
L 49.92031 86.925293 
L 50.85031 86.910961 
L 51.78031 86.925074 
L 52.71031 86.920754 
L 53.64031 86.904394 
L 54.57031 86.904947 
L 55.50031 86.886139 
L 56.43031 86.886509 
L 57.36031 86.88523 
L 58.29031 86.871817 
L 59.22031 86.851801 
L 60.15031 86.84372 
L 61.08031 86.828132 
L 62.01031 86.839344 
L 62.94031 86.830598 
L 63.87031 86.819368 
" style="fill:none;stroke:#fc8d62;stroke-linecap:square;stroke-width:2;"/>
   </g>
   <g id="line2d_16">
    <path clip-path="url(#p6d3efcbca4)" d="M 10.86031 95.188321 
L 11.79031 93.215094 
L 12.72031 92.210037 
L 13.65031 91.737696 
L 14.58031 91.377258 
L 15.51031 91.029275 
L 16.44031 90.920087 
L 17.37031 90.719538 
L 18.30031 90.630668 
L 19.23031 90.593814 
L 20.16031 90.414736 
L 21.09031 90.495742 
L 22.02031 90.517045 
L 22.95031 90.41854 
L 23.88031 90.404679 
L 24.81031 90.334457 
L 25.74031 90.281596 
L 26.67031 90.242735 
L 27.60031 90.21713 
L 28.53031 90.246471 
L 29.46031 90.18068 
L 30.39031 90.126144 
L 31.32031 90.099304 
L 32.25031 90.086364 
L 33.18031 90.019639 
L 34.11031 89.973813 
L 35.04031 89.981531 
L 35.97031 89.945304 
L 36.90031 89.930939 
L 37.83031 89.925355 
L 38.76031 89.893097 
L 39.69031 89.854758 
L 40.62031 89.840017 
L 41.55031 89.823719 
L 42.48031 89.803328 
L 43.41031 89.808053 
L 44.34031 89.803775 
L 45.27031 89.790497 
L 46.20031 89.797889 
L 47.13031 89.795002 
L 48.06031 89.783223 
L 48.99031 89.771956 
L 49.92031 89.783217 
L 50.85031 89.780067 
L 51.78031 89.78665 
L 52.71031 89.760249 
L 53.64031 89.770889 
L 54.57031 89.779 
L 55.50031 89.79779 
L 56.43031 89.80122 
L 57.36031 89.796271 
L 58.29031 89.789939 
L 59.22031 89.774253 
L 60.15031 89.770609 
L 61.08031 89.773227 
L 62.01031 89.766206 
L 62.94031 89.763124 
L 63.87031 89.751385 
" style="fill:none;stroke:#fc8d62;stroke-dasharray:1.5,1.5;stroke-dashoffset:0;stroke-opacity:0.7;stroke-width:1.5;"/>
   </g>
   <g id="patch_8">
    <path d="M 9 128.16 
L 9 77.76 
" style="fill:none;stroke:#a9a9a9;stroke-linecap:square;stroke-linejoin:miter;stroke-width:2;"/>
   </g>
   <g id="patch_9">
    <path d="M 64.8 128.16 
L 64.8 77.76 
" style="fill:none;"/>
   </g>
   <g id="patch_10">
    <path d="M 9 128.16 
L 64.8 128.16 
" style="fill:none;stroke:#a9a9a9;stroke-linecap:square;stroke-linejoin:miter;stroke-width:2;"/>
   </g>
   <g id="patch_11">
    <path d="M 9 77.76 
L 64.8 77.76 
" style="fill:none;"/>
   </g>
  </g>
 </g>
 <defs>
  <clipPath id="pb0f2cd1291">
   <rect height="50.4" width="55.8" x="9" y="17.28"/>
  </clipPath>
  <clipPath id="p6d3efcbca4">
   <rect height="50.4" width="55.8" x="9" y="77.76"/>
  </clipPath>
 </defs>
</svg>
