<?xml version="1.0" encoding="utf-8" standalone="no"?>
<!DOCTYPE svg PUBLIC "-//W3C//DTD SVG 1.1//EN"
  "http://www.w3.org/Graphics/SVG/1.1/DTD/svg11.dtd">
<!-- Created with matplotlib (https://matplotlib.org/) -->
<svg height="144pt" version="1.1" viewBox="0 0 72 144" width="72pt" xmlns="http://www.w3.org/2000/svg" xmlns:xlink="http://www.w3.org/1999/xlink">
 <metadata>
  <rdf:RDF xmlns:cc="http://creativecommons.org/ns#" xmlns:dc="http://purl.org/dc/elements/1.1/" xmlns:rdf="http://www.w3.org/1999/02/22-rdf-syntax-ns#">
   <cc:Work>
    <dc:type rdf:resource="http://purl.org/dc/dcmitype/StillImage"/>
    <dc:date>2021-10-13T14:36:32.480479</dc:date>
    <dc:format>image/svg+xml</dc:format>
    <dc:creator>
     <cc:Agent>
      <dc:title>Matplotlib v3.3.2, https://matplotlib.org/</dc:title>
     </cc:Agent>
    </dc:creator>
   </cc:Work>
  </rdf:RDF>
 </metadata>
 <defs>
  <style type="text/css">*{stroke-linecap:butt;stroke-linejoin:round;}</style>
 </defs>
 <g id="figure_1">
  <g id="patch_1">
   <path d="M 0 144 
L 72 144 
L 72 0 
L 0 0 
z
" style="fill:none;"/>
  </g>
  <g id="axes_1">
   <g id="patch_2">
    <path d="M 9 67.68 
L 64.8 67.68 
L 64.8 17.28 
L 9 17.28 
z
" style="fill:none;"/>
   </g>
   <g id="matplotlib.axis_1">
    <g id="xtick_1">
     <g id="line2d_1">
      <defs>
       <path d="M 0 0 
L 0 3.5 
" id="ma078c0560d" style="stroke:#a9a9a9;stroke-width:2;"/>
      </defs>
      <g>
       <use style="fill:#a9a9a9;stroke:#a9a9a9;stroke-width:2;" x="9" xlink:href="#ma078c0560d" y="67.68"/>
      </g>
     </g>
    </g>
    <g id="xtick_2">
     <g id="line2d_2">
      <g>
       <use style="fill:#a9a9a9;stroke:#a9a9a9;stroke-width:2;" x="36.9" xlink:href="#ma078c0560d" y="67.68"/>
      </g>
     </g>
    </g>
    <g id="xtick_3">
     <g id="line2d_3">
      <g>
       <use style="fill:#a9a9a9;stroke:#a9a9a9;stroke-width:2;" x="64.8" xlink:href="#ma078c0560d" y="67.68"/>
      </g>
     </g>
    </g>
   </g>
   <g id="matplotlib.axis_2">
    <g id="ytick_1">
     <g id="line2d_4">
      <defs>
       <path d="M 0 0 
L -3.5 0 
" id="m699e612f86" style="stroke:#a9a9a9;stroke-width:2;"/>
      </defs>
      <g>
       <use style="fill:#a9a9a9;stroke:#a9a9a9;stroke-width:2;" x="9" xlink:href="#m699e612f86" y="67.68"/>
      </g>
     </g>
    </g>
    <g id="ytick_2">
     <g id="line2d_5">
      <g>
       <use style="fill:#a9a9a9;stroke:#a9a9a9;stroke-width:2;" x="9" xlink:href="#m699e612f86" y="62.411384"/>
      </g>
     </g>
    </g>
    <g id="ytick_3">
     <g id="line2d_6">
      <g>
       <use style="fill:#a9a9a9;stroke:#a9a9a9;stroke-width:2;" x="9" xlink:href="#m699e612f86" y="57.142769"/>
      </g>
     </g>
    </g>
   </g>
   <g id="line2d_7">
    <path clip-path="url(#peff341f4f0)" d="M 10.86031 57.822937 
L 11.79031 55.385764 
L 12.72031 53.383207 
L 13.65031 52.742045 
L 14.58031 51.536988 
L 15.51031 50.62085 
L 16.44031 49.446648 
L 17.37031 48.943348 
L 18.30031 48.084422 
L 19.23031 47.472267 
L 20.16031 46.360015 
L 21.09031 45.371521 
L 22.02031 44.417059 
L 22.95031 43.50032 
L 23.88031 42.513374 
L 24.81031 41.279629 
L 25.74031 40.378139 
L 26.67031 39.402328 
L 27.60031 38.995923 
L 28.53031 37.958038 
L 29.46031 37.65283 
L 30.39031 36.707401 
L 31.32031 36.404331 
L 32.25031 35.994026 
L 33.18031 35.602138 
L 34.11031 34.569255 
L 35.04031 34.474809 
L 35.97031 33.914835 
L 36.90031 33.921941 
L 37.83031 33.045015 
L 38.76031 32.801255 
L 39.69031 32.259837 
L 40.62031 32.029339 
L 41.55031 31.937084 
L 42.48031 31.71778 
L 43.41031 31.358433 
L 44.34031 31.109613 
L 45.27031 30.24942 
L 46.20031 29.562418 
L 47.13031 28.95539 
L 48.06031 27.921525 
L 48.99031 27.069549 
L 49.92031 26.953645 
L 50.85031 26.121743 
L 51.78031 25.666197 
L 52.71031 25.241728 
L 53.64031 24.108842 
L 54.57031 23.354223 
L 55.50031 22.500694 
L 56.43031 22.032849 
L 57.36031 21.433821 
L 58.29031 21.008354 
L 59.22031 19.921466 
L 60.15031 19.469165 
L 61.08031 18.786093 
L 62.01031 17.80658 
L 62.94031 17.646013 
L 63.87031 17.543431 
" style="fill:none;stroke:#fc8d62;stroke-linecap:square;stroke-width:2;"/>
   </g>
   <g id="line2d_8">
    <path clip-path="url(#peff341f4f0)" d="M 10.86031 61.620915 
L 11.79031 60.372465 
L 12.72031 59.217535 
L 13.65031 58.240087 
L 14.58031 57.571319 
L 15.51031 57.187932 
L 16.44031 56.533085 
L 17.37031 55.770533 
L 18.30031 54.898974 
L 19.23031 54.30034 
L 20.16031 53.54182 
L 21.09031 52.881401 
L 22.02031 52.396363 
L 22.95031 51.709481 
L 23.88031 51.097823 
L 24.81031 50.644086 
L 25.74031 50.200635 
L 26.67031 49.768287 
L 27.60031 49.277919 
L 28.53031 48.566502 
L 29.46031 47.999299 
L 30.39031 47.94547 
L 31.32031 47.207192 
L 32.25031 47.077755 
L 33.18031 46.760385 
L 34.11031 46.860194 
L 35.04031 46.516053 
L 35.97031 45.78475 
L 36.90031 45.296524 
L 37.83031 44.314464 
L 38.76031 43.740412 
L 39.69031 43.248074 
L 40.62031 43.143625 
L 41.55031 42.746964 
L 42.48031 42.721237 
L 43.41031 42.44393 
L 44.34031 42.102948 
L 45.27031 41.90648 
L 46.20031 41.638232 
L 47.13031 41.710419 
L 48.06031 41.475071 
L 48.99031 41.157765 
L 49.92031 40.697028 
L 50.85031 40.536072 
L 51.78031 40.367649 
L 52.71031 39.891745 
L 53.64031 39.306578 
L 54.57031 38.753554 
L 55.50031 38.329126 
L 56.43031 37.976643 
L 57.36031 37.388926 
L 58.29031 37.505314 
L 59.22031 37.484213 
L 60.15031 37.261977 
L 61.08031 37.099583 
L 62.01031 36.697077 
L 62.94031 35.99127 
L 63.87031 35.771126 
" style="fill:none;stroke:#fc8d62;stroke-dasharray:1.5,1.5;stroke-dashoffset:0;stroke-opacity:0.7;stroke-width:1.5;"/>
   </g>
   <g id="patch_3">
    <path d="M 9 67.68 
L 9 17.28 
" style="fill:none;stroke:#a9a9a9;stroke-linecap:square;stroke-linejoin:miter;stroke-width:2;"/>
   </g>
   <g id="patch_4">
    <path d="M 64.8 67.68 
L 64.8 17.28 
" style="fill:none;"/>
   </g>
   <g id="patch_5">
    <path d="M 9 67.68 
L 64.8 67.68 
" style="fill:none;stroke:#a9a9a9;stroke-linecap:square;stroke-linejoin:miter;stroke-width:2;"/>
   </g>
   <g id="patch_6">
    <path d="M 9 17.28 
L 64.8 17.28 
" style="fill:none;"/>
   </g>
  </g>
  <g id="axes_2">
   <g id="patch_7">
    <path d="M 9 128.16 
L 64.8 128.16 
L 64.8 77.76 
L 9 77.76 
z
" style="fill:none;"/>
   </g>
   <g id="matplotlib.axis_3">
    <g id="xtick_4">
     <g id="line2d_9">
      <g>
       <use style="fill:#a9a9a9;stroke:#a9a9a9;stroke-width:2;" x="9" xlink:href="#ma078c0560d" y="128.16"/>
      </g>
     </g>
    </g>
    <g id="xtick_5">
     <g id="line2d_10">
      <g>
       <use style="fill:#a9a9a9;stroke:#a9a9a9;stroke-width:2;" x="36.9" xlink:href="#ma078c0560d" y="128.16"/>
      </g>
     </g>
    </g>
    <g id="xtick_6">
     <g id="line2d_11">
      <g>
       <use style="fill:#a9a9a9;stroke:#a9a9a9;stroke-width:2;" x="64.8" xlink:href="#ma078c0560d" y="128.16"/>
      </g>
     </g>
    </g>
   </g>
   <g id="matplotlib.axis_4">
    <g id="ytick_4">
     <g id="line2d_12">
      <g>
       <use style="fill:#a9a9a9;stroke:#a9a9a9;stroke-width:2;" x="9" xlink:href="#m699e612f86" y="128.16"/>
      </g>
     </g>
    </g>
    <g id="ytick_5">
     <g id="line2d_13">
      <g>
       <use style="fill:#a9a9a9;stroke:#a9a9a9;stroke-width:2;" x="9" xlink:href="#m699e612f86" y="102.96"/>
      </g>
     </g>
    </g>
    <g id="ytick_6">
     <g id="line2d_14">
      <g>
       <use style="fill:#a9a9a9;stroke:#a9a9a9;stroke-width:2;" x="9" xlink:href="#m699e612f86" y="77.76"/>
      </g>
     </g>
    </g>
   </g>
   <g id="line2d_15">
    <path clip-path="url(#p8b93afa522)" d="M 10.86031 87.306673 
L 11.79031 85.642913 
L 12.72031 84.693327 
L 13.65031 84.286323 
L 14.58031 83.965351 
L 15.51031 83.665297 
L 16.44031 83.452393 
L 17.37031 83.306097 
L 18.30031 83.192457 
L 19.23031 83.096282 
L 20.16031 82.952022 
L 21.09031 82.831944 
L 22.02031 82.792377 
L 22.95031 82.725754 
L 23.88031 82.624117 
L 24.81031 82.549909 
L 25.74031 82.532948 
L 26.67031 82.505538 
L 27.60031 82.458527 
L 28.53031 82.413024 
L 29.46031 82.402759 
L 30.39031 82.385145 
L 31.32031 82.350718 
L 32.25031 82.325644 
L 33.18031 82.301519 
L 34.11031 82.263149 
L 35.04031 82.26267 
L 35.97031 82.247896 
L 36.90031 82.249707 
L 37.83031 82.221414 
L 38.76031 82.214756 
L 39.69031 82.202118 
L 40.62031 82.210319 
L 41.55031 82.204762 
L 42.48031 82.19069 
L 43.41031 82.189178 
L 44.34031 82.182143 
L 45.27031 82.18589 
L 46.20031 82.168018 
L 47.13031 82.170943 
L 48.06031 82.173153 
L 48.99031 82.170527 
L 49.92031 82.181506 
L 50.85031 82.182908 
L 51.78031 82.172087 
L 52.71031 82.167665 
L 53.64031 82.158877 
L 54.57031 82.141595 
L 55.50031 82.127128 
L 56.43031 82.1147 
L 57.36031 82.109015 
L 58.29031 82.102618 
L 59.22031 82.088013 
L 60.15031 82.0787 
L 61.08031 82.079145 
L 62.01031 82.072045 
L 62.94031 82.065781 
L 63.87031 82.056856 
" style="fill:none;stroke:#fc8d62;stroke-linecap:square;stroke-width:2;"/>
   </g>
   <g id="line2d_16">
    <path clip-path="url(#p8b93afa522)" d="M 10.86031 98.080901 
L 11.79031 96.046391 
L 12.72031 94.774039 
L 13.65031 93.903583 
L 14.58031 93.276144 
L 15.51031 92.972562 
L 16.44031 92.644871 
L 17.37031 92.425824 
L 18.30031 92.102042 
L 19.23031 91.919004 
L 20.16031 91.758579 
L 21.09031 91.671 
L 22.02031 91.558218 
L 22.95031 91.462493 
L 23.88031 91.312732 
L 24.81031 91.25143 
L 25.74031 91.180948 
L 26.67031 91.100718 
L 27.60031 91.026578 
L 28.53031 90.997107 
L 29.46031 90.940875 
L 30.39031 90.920246 
L 31.32031 90.880712 
L 32.25031 90.818826 
L 33.18031 90.842035 
L 34.11031 90.87963 
L 35.04031 90.829592 
L 35.97031 90.792728 
L 36.90031 90.807047 
L 37.83031 90.742109 
L 38.76031 90.717693 
L 39.69031 90.778891 
L 40.62031 90.75219 
L 41.55031 90.731116 
L 42.48031 90.708677 
L 43.41031 90.671759 
L 44.34031 90.67468 
L 45.27031 90.666009 
L 46.20031 90.682202 
L 47.13031 90.687993 
L 48.06031 90.671759 
L 48.99031 90.632557 
L 49.92031 90.633253 
L 50.85031 90.610069 
L 51.78031 90.606962 
L 52.71031 90.560819 
L 53.64031 90.560538 
L 54.57031 90.563544 
L 55.50031 90.519617 
L 56.43031 90.504339 
L 57.36031 90.488762 
L 58.29031 90.492663 
L 59.22031 90.483752 
L 60.15031 90.4948 
L 61.08031 90.48133 
L 62.01031 90.450169 
L 62.94031 90.433828 
L 63.87031 90.428393 
" style="fill:none;stroke:#fc8d62;stroke-dasharray:1.5,1.5;stroke-dashoffset:0;stroke-opacity:0.7;stroke-width:1.5;"/>
   </g>
   <g id="patch_8">
    <path d="M 9 128.16 
L 9 77.76 
" style="fill:none;stroke:#a9a9a9;stroke-linecap:square;stroke-linejoin:miter;stroke-width:2;"/>
   </g>
   <g id="patch_9">
    <path d="M 64.8 128.16 
L 64.8 77.76 
" style="fill:none;"/>
   </g>
   <g id="patch_10">
    <path d="M 9 128.16 
L 64.8 128.16 
" style="fill:none;stroke:#a9a9a9;stroke-linecap:square;stroke-linejoin:miter;stroke-width:2;"/>
   </g>
   <g id="patch_11">
    <path d="M 9 77.76 
L 64.8 77.76 
" style="fill:none;"/>
   </g>
  </g>
 </g>
 <defs>
  <clipPath id="peff341f4f0">
   <rect height="50.4" width="55.8" x="9" y="17.28"/>
  </clipPath>
  <clipPath id="p8b93afa522">
   <rect height="50.4" width="55.8" x="9" y="77.76"/>
  </clipPath>
 </defs>
</svg>
