<?xml version="1.0" encoding="utf-8" standalone="no"?>
<!DOCTYPE svg PUBLIC "-//W3C//DTD SVG 1.1//EN"
  "http://www.w3.org/Graphics/SVG/1.1/DTD/svg11.dtd">
<!-- Created with matplotlib (https://matplotlib.org/) -->
<svg height="144pt" version="1.1" viewBox="0 0 72 144" width="72pt" xmlns="http://www.w3.org/2000/svg" xmlns:xlink="http://www.w3.org/1999/xlink">
 <metadata>
  <rdf:RDF xmlns:cc="http://creativecommons.org/ns#" xmlns:dc="http://purl.org/dc/elements/1.1/" xmlns:rdf="http://www.w3.org/1999/02/22-rdf-syntax-ns#">
   <cc:Work>
    <dc:type rdf:resource="http://purl.org/dc/dcmitype/StillImage"/>
    <dc:date>2021-10-13T14:21:03.537100</dc:date>
    <dc:format>image/svg+xml</dc:format>
    <dc:creator>
     <cc:Agent>
      <dc:title>Matplotlib v3.3.2, https://matplotlib.org/</dc:title>
     </cc:Agent>
    </dc:creator>
   </cc:Work>
  </rdf:RDF>
 </metadata>
 <defs>
  <style type="text/css">*{stroke-linecap:butt;stroke-linejoin:round;}</style>
 </defs>
 <g id="figure_1">
  <g id="patch_1">
   <path d="M 0 144 
L 72 144 
L 72 0 
L 0 0 
z
" style="fill:none;"/>
  </g>
  <g id="axes_1">
   <g id="patch_2">
    <path d="M 9 67.68 
L 64.8 67.68 
L 64.8 17.28 
L 9 17.28 
z
" style="fill:none;"/>
   </g>
   <g id="matplotlib.axis_1">
    <g id="xtick_1">
     <g id="line2d_1">
      <defs>
       <path d="M 0 0 
L 0 3.5 
" id="mab6696fbb3" style="stroke:#a9a9a9;stroke-width:2;"/>
      </defs>
      <g>
       <use style="fill:#a9a9a9;stroke:#a9a9a9;stroke-width:2;" x="9" xlink:href="#mab6696fbb3" y="67.68"/>
      </g>
     </g>
    </g>
    <g id="xtick_2">
     <g id="line2d_2">
      <g>
       <use style="fill:#a9a9a9;stroke:#a9a9a9;stroke-width:2;" x="36.9" xlink:href="#mab6696fbb3" y="67.68"/>
      </g>
     </g>
    </g>
    <g id="xtick_3">
     <g id="line2d_3">
      <g>
       <use style="fill:#a9a9a9;stroke:#a9a9a9;stroke-width:2;" x="64.8" xlink:href="#mab6696fbb3" y="67.68"/>
      </g>
     </g>
    </g>
   </g>
   <g id="matplotlib.axis_2">
    <g id="ytick_1">
     <g id="line2d_4">
      <defs>
       <path d="M 0 0 
L -3.5 0 
" id="m428b60d58c" style="stroke:#a9a9a9;stroke-width:2;"/>
      </defs>
      <g>
       <use style="fill:#a9a9a9;stroke:#a9a9a9;stroke-width:2;" x="9" xlink:href="#m428b60d58c" y="67.68"/>
      </g>
     </g>
    </g>
    <g id="ytick_2">
     <g id="line2d_5">
      <g>
       <use style="fill:#a9a9a9;stroke:#a9a9a9;stroke-width:2;" x="9" xlink:href="#m428b60d58c" y="54.700952"/>
      </g>
     </g>
    </g>
    <g id="ytick_3">
     <g id="line2d_6">
      <g>
       <use style="fill:#a9a9a9;stroke:#a9a9a9;stroke-width:2;" x="9" xlink:href="#m428b60d58c" y="41.721904"/>
      </g>
     </g>
    </g>
   </g>
   <g id="line2d_7">
    <path clip-path="url(#p3d2160d336)" d="M 10.86031 58.986189 
L 11.79031 57.328133 
L 12.72031 55.597537 
L 13.65031 53.568206 
L 14.58031 51.75335 
L 15.51031 51.039621 
L 16.44031 50.064941 
L 17.37031 49.183811 
L 18.30031 48.22648 
L 19.23031 47.944256 
L 20.16031 46.828587 
L 21.09031 46.177442 
L 22.02031 45.100857 
L 22.95031 44.495427 
L 23.88031 42.964587 
L 24.81031 42.38093 
L 25.74031 42.485837 
L 26.67031 41.096533 
L 27.60031 40.403752 
L 28.53031 39.681373 
L 29.46031 39.298866 
L 30.39031 38.810997 
L 31.32031 37.594519 
L 32.25031 37.312089 
L 33.18031 37.096841 
L 34.11031 36.015544 
L 35.04031 35.543349 
L 35.97031 35.013367 
L 36.90031 34.110102 
L 37.83031 33.569511 
L 38.76031 32.340545 
L 39.69031 31.896098 
L 40.62031 30.681314 
L 41.55031 30.895483 
L 42.48031 30.091864 
L 43.41031 29.853921 
L 44.34031 29.54199 
L 45.27031 28.714011 
L 46.20031 27.830863 
L 47.13031 27.037148 
L 48.06031 26.720964 
L 48.99031 25.314196 
L 49.92031 24.733931 
L 50.85031 23.823879 
L 51.78031 23.307169 
L 52.71031 22.628604 
L 53.64031 22.991341 
L 54.57031 22.302947 
L 55.50031 21.810888 
L 56.43031 20.953684 
L 57.36031 19.744566 
L 58.29031 19.439455 
L 59.22031 19.730827 
L 60.15031 19.180355 
L 61.08031 18.680173 
L 62.01031 18.711397 
L 62.94031 18.259128 
L 63.87031 17.928952 
" style="fill:none;stroke:#fc8d62;stroke-linecap:square;stroke-width:2;"/>
   </g>
   <g id="line2d_8">
    <path clip-path="url(#p3d2160d336)" d="M 10.86031 58.002041 
L 11.79031 56.319866 
L 12.72031 53.653433 
L 13.65031 51.766942 
L 14.58031 50.776058 
L 15.51031 50.006425 
L 16.44031 48.559521 
L 17.37031 47.681686 
L 18.30031 46.417568 
L 19.23031 46.18583 
L 20.16031 45.647703 
L 21.09031 44.588653 
L 22.02031 42.593108 
L 22.95031 42.492682 
L 23.88031 41.217088 
L 24.81031 40.342798 
L 25.74031 39.167017 
L 26.67031 38.317709 
L 27.60031 36.933179 
L 28.53031 35.362174 
L 29.46031 34.598054 
L 30.39031 33.890756 
L 31.32031 33.310905 
L 32.25031 32.027062 
L 33.18031 32.317225 
L 34.11031 32.270488 
L 35.04031 31.429992 
L 35.97031 30.692475 
L 36.90031 30.482277 
L 37.83031 29.545556 
L 38.76031 28.485053 
L 39.69031 27.988111 
L 40.62031 27.030754 
L 41.55031 25.742548 
L 42.48031 25.45847 
L 43.41031 24.436448 
L 44.34031 22.812707 
L 45.27031 21.987956 
L 46.20031 22.157715 
L 47.13031 22.612154 
L 48.06031 21.604071 
L 48.99031 20.673393 
L 49.92031 20.508615 
L 50.85031 19.505324 
L 51.78031 19.343644 
L 52.71031 18.439177 
L 53.64031 17.129332 
L 54.57031 16.969142 
L 55.50031 17.003082 
L 56.43031 16.339153 
L 57.36031 16.283768 
L 58.29031 15.823428 
L 59.22031 15.914142 
L 60.15031 15.501317 
L 61.08031 14.089149 
L 62.01031 13.403085 
L 62.94031 13.595437 
L 63.87031 13.253829 
" style="fill:none;stroke:#fc8d62;stroke-dasharray:1.5,1.5;stroke-dashoffset:0;stroke-opacity:0.7;stroke-width:1.5;"/>
   </g>
   <g id="patch_3">
    <path d="M 9 67.68 
L 9 17.28 
" style="fill:none;stroke:#a9a9a9;stroke-linecap:square;stroke-linejoin:miter;stroke-width:2;"/>
   </g>
   <g id="patch_4">
    <path d="M 64.8 67.68 
L 64.8 17.28 
" style="fill:none;"/>
   </g>
   <g id="patch_5">
    <path d="M 9 67.68 
L 64.8 67.68 
" style="fill:none;stroke:#a9a9a9;stroke-linecap:square;stroke-linejoin:miter;stroke-width:2;"/>
   </g>
   <g id="patch_6">
    <path d="M 9 17.28 
L 64.8 17.28 
" style="fill:none;"/>
   </g>
  </g>
  <g id="axes_2">
   <g id="patch_7">
    <path d="M 9 128.16 
L 64.8 128.16 
L 64.8 77.76 
L 9 77.76 
z
" style="fill:none;"/>
   </g>
   <g id="matplotlib.axis_3">
    <g id="xtick_4">
     <g id="line2d_9">
      <g>
       <use style="fill:#a9a9a9;stroke:#a9a9a9;stroke-width:2;" x="9" xlink:href="#mab6696fbb3" y="128.16"/>
      </g>
     </g>
    </g>
    <g id="xtick_5">
     <g id="line2d_10">
      <g>
       <use style="fill:#a9a9a9;stroke:#a9a9a9;stroke-width:2;" x="36.9" xlink:href="#mab6696fbb3" y="128.16"/>
      </g>
     </g>
    </g>
    <g id="xtick_6">
     <g id="line2d_11">
      <g>
       <use style="fill:#a9a9a9;stroke:#a9a9a9;stroke-width:2;" x="64.8" xlink:href="#mab6696fbb3" y="128.16"/>
      </g>
     </g>
    </g>
   </g>
   <g id="matplotlib.axis_4">
    <g id="ytick_4">
     <g id="line2d_12">
      <g>
       <use style="fill:#a9a9a9;stroke:#a9a9a9;stroke-width:2;" x="9" xlink:href="#m428b60d58c" y="128.16"/>
      </g>
     </g>
    </g>
    <g id="ytick_5">
     <g id="line2d_13">
      <g>
       <use style="fill:#a9a9a9;stroke:#a9a9a9;stroke-width:2;" x="9" xlink:href="#m428b60d58c" y="102.96"/>
      </g>
     </g>
    </g>
    <g id="ytick_6">
     <g id="line2d_14">
      <g>
       <use style="fill:#a9a9a9;stroke:#a9a9a9;stroke-width:2;" x="9" xlink:href="#m428b60d58c" y="77.76"/>
      </g>
     </g>
    </g>
   </g>
   <g id="line2d_15">
    <path clip-path="url(#p8b91c29837)" d="M 10.86031 100.820471 
L 11.79031 96.945287 
L 12.72031 93.608289 
L 13.65031 91.465868 
L 14.58031 90.307563 
L 15.51031 89.367008 
L 16.44031 88.407624 
L 17.37031 88.067135 
L 18.30031 87.386497 
L 19.23031 87.213111 
L 20.16031 86.848516 
L 21.09031 86.484073 
L 22.02031 86.000418 
L 22.95031 85.764382 
L 23.88031 85.400101 
L 24.81031 85.200641 
L 25.74031 85.138598 
L 26.67031 84.887337 
L 27.60031 84.715053 
L 28.53031 84.568369 
L 29.46031 84.408198 
L 30.39031 84.274934 
L 31.32031 84.167916 
L 32.25031 84.126681 
L 33.18031 83.991637 
L 34.11031 83.843793 
L 35.04031 83.73608 
L 35.97031 83.623037 
L 36.90031 83.528002 
L 37.83031 83.488961 
L 38.76031 83.378408 
L 39.69031 83.325563 
L 40.62031 83.218206 
L 41.55031 83.278138 
L 42.48031 83.179974 
L 43.41031 83.150367 
L 44.34031 83.146129 
L 45.27031 83.09665 
L 46.20031 83.041974 
L 47.13031 82.965084 
L 48.06031 82.946068 
L 48.99031 82.867379 
L 49.92031 82.832446 
L 50.85031 82.770605 
L 51.78031 82.72353 
L 52.71031 82.675213 
L 53.64031 82.658006 
L 54.57031 82.623568 
L 55.50031 82.579218 
L 56.43031 82.565053 
L 57.36031 82.537671 
L 58.29031 82.529073 
L 59.22031 82.544186 
L 60.15031 82.528406 
L 61.08031 82.502549 
L 62.01031 82.508608 
L 62.94031 82.477955 
L 63.87031 82.469537 
" style="fill:none;stroke:#fc8d62;stroke-linecap:square;stroke-width:2;"/>
   </g>
   <g id="line2d_16">
    <path clip-path="url(#p8b91c29837)" d="M 10.86031 104.813834 
L 11.79031 101.297186 
L 12.72031 98.103819 
L 13.65031 97.14262 
L 14.58031 96.332628 
L 15.51031 95.695043 
L 16.44031 95.327049 
L 17.37031 94.52865 
L 18.30031 94.166089 
L 19.23031 93.832257 
L 20.16031 93.585777 
L 21.09031 93.569131 
L 22.02031 93.223958 
L 22.95031 93.313272 
L 23.88031 93.219155 
L 24.81031 93.051318 
L 25.74031 92.929633 
L 26.67031 92.91972 
L 27.60031 92.750466 
L 28.53031 92.646849 
L 29.46031 92.596666 
L 30.39031 92.473031 
L 31.32031 92.385452 
L 32.25031 92.239936 
L 33.18031 92.175335 
L 34.11031 92.225784 
L 35.04031 92.280725 
L 35.97031 92.224717 
L 36.90031 92.241474 
L 37.83031 92.162576 
L 38.76031 92.152744 
L 39.69031 92.151227 
L 40.62031 92.092961 
L 41.55031 91.998208 
L 42.48031 91.92081 
L 43.41031 91.873604 
L 44.34031 91.829415 
L 45.27031 91.792073 
L 46.20031 91.752909 
L 47.13031 91.794759 
L 48.06031 91.673959 
L 48.99031 91.640327 
L 49.92031 91.621349 
L 50.85031 91.553674 
L 51.78031 91.507583 
L 52.71031 91.492358 
L 53.64031 91.454493 
L 54.57031 91.459789 
L 55.50031 91.411853 
L 56.43031 91.377103 
L 57.36031 91.405718 
L 58.29031 91.369053 
L 59.22031 91.296191 
L 60.15031 91.295704 
L 61.08031 91.291538 
L 62.01031 91.267493 
L 62.94031 91.273974 
L 63.87031 91.233379 
" style="fill:none;stroke:#fc8d62;stroke-dasharray:1.5,1.5;stroke-dashoffset:0;stroke-opacity:0.7;stroke-width:1.5;"/>
   </g>
   <g id="patch_8">
    <path d="M 9 128.16 
L 9 77.76 
" style="fill:none;stroke:#a9a9a9;stroke-linecap:square;stroke-linejoin:miter;stroke-width:2;"/>
   </g>
   <g id="patch_9">
    <path d="M 64.8 128.16 
L 64.8 77.76 
" style="fill:none;"/>
   </g>
   <g id="patch_10">
    <path d="M 9 128.16 
L 64.8 128.16 
" style="fill:none;stroke:#a9a9a9;stroke-linecap:square;stroke-linejoin:miter;stroke-width:2;"/>
   </g>
   <g id="patch_11">
    <path d="M 9 77.76 
L 64.8 77.76 
" style="fill:none;"/>
   </g>
  </g>
 </g>
 <defs>
  <clipPath id="p3d2160d336">
   <rect height="50.4" width="55.8" x="9" y="17.28"/>
  </clipPath>
  <clipPath id="p8b91c29837">
   <rect height="50.4" width="55.8" x="9" y="77.76"/>
  </clipPath>
 </defs>
</svg>
