<?xml version="1.0" encoding="utf-8" standalone="no"?>
<!DOCTYPE svg PUBLIC "-//W3C//DTD SVG 1.1//EN"
  "http://www.w3.org/Graphics/SVG/1.1/DTD/svg11.dtd">
<!-- Created with matplotlib (https://matplotlib.org/) -->
<svg height="144pt" version="1.1" viewBox="0 0 72 144" width="72pt" xmlns="http://www.w3.org/2000/svg" xmlns:xlink="http://www.w3.org/1999/xlink">
 <metadata>
  <rdf:RDF xmlns:cc="http://creativecommons.org/ns#" xmlns:dc="http://purl.org/dc/elements/1.1/" xmlns:rdf="http://www.w3.org/1999/02/22-rdf-syntax-ns#">
   <cc:Work>
    <dc:type rdf:resource="http://purl.org/dc/dcmitype/StillImage"/>
    <dc:date>2021-10-13T14:47:28.015213</dc:date>
    <dc:format>image/svg+xml</dc:format>
    <dc:creator>
     <cc:Agent>
      <dc:title>Matplotlib v3.3.2, https://matplotlib.org/</dc:title>
     </cc:Agent>
    </dc:creator>
   </cc:Work>
  </rdf:RDF>
 </metadata>
 <defs>
  <style type="text/css">*{stroke-linecap:butt;stroke-linejoin:round;}</style>
 </defs>
 <g id="figure_1">
  <g id="patch_1">
   <path d="M 0 144 
L 72 144 
L 72 0 
L 0 0 
z
" style="fill:none;"/>
  </g>
  <g id="axes_1">
   <g id="patch_2">
    <path d="M 9 67.68 
L 64.8 67.68 
L 64.8 17.28 
L 9 17.28 
z
" style="fill:none;"/>
   </g>
   <g id="matplotlib.axis_1">
    <g id="xtick_1">
     <g id="line2d_1">
      <defs>
       <path d="M 0 0 
L 0 3.5 
" id="med296e5a12" style="stroke:#a9a9a9;stroke-width:2;"/>
      </defs>
      <g>
       <use style="fill:#a9a9a9;stroke:#a9a9a9;stroke-width:2;" x="9" xlink:href="#med296e5a12" y="67.68"/>
      </g>
     </g>
    </g>
    <g id="xtick_2">
     <g id="line2d_2">
      <g>
       <use style="fill:#a9a9a9;stroke:#a9a9a9;stroke-width:2;" x="36.9" xlink:href="#med296e5a12" y="67.68"/>
      </g>
     </g>
    </g>
    <g id="xtick_3">
     <g id="line2d_3">
      <g>
       <use style="fill:#a9a9a9;stroke:#a9a9a9;stroke-width:2;" x="64.8" xlink:href="#med296e5a12" y="67.68"/>
      </g>
     </g>
    </g>
   </g>
   <g id="matplotlib.axis_2">
    <g id="ytick_1">
     <g id="line2d_4">
      <defs>
       <path d="M 0 0 
L -3.5 0 
" id="mca536bd961" style="stroke:#a9a9a9;stroke-width:2;"/>
      </defs>
      <g>
       <use style="fill:#a9a9a9;stroke:#a9a9a9;stroke-width:2;" x="9" xlink:href="#mca536bd961" y="67.68"/>
      </g>
     </g>
    </g>
    <g id="ytick_2">
     <g id="line2d_5">
      <g>
       <use style="fill:#a9a9a9;stroke:#a9a9a9;stroke-width:2;" x="9" xlink:href="#mca536bd961" y="60.5852"/>
      </g>
     </g>
    </g>
    <g id="ytick_3">
     <g id="line2d_6">
      <g>
       <use style="fill:#a9a9a9;stroke:#a9a9a9;stroke-width:2;" x="9" xlink:href="#mca536bd961" y="53.490401"/>
      </g>
     </g>
    </g>
   </g>
   <g id="line2d_7">
    <path clip-path="url(#pbf0e497b22)" d="M 10.86031 57.99192 
L 11.79031 56.95962 
L 12.72031 55.39377 
L 13.65031 53.845045 
L 14.58031 52.513301 
L 15.51031 50.969012 
L 16.44031 49.435736 
L 17.37031 48.10183 
L 18.30031 46.839086 
L 19.23031 46.42933 
L 20.16031 45.486704 
L 21.09031 44.601055 
L 22.02031 43.931464 
L 22.95031 43.478143 
L 23.88031 42.930624 
L 24.81031 41.906451 
L 25.74031 41.561898 
L 26.67031 40.53615 
L 27.60031 39.871962 
L 28.53031 39.666606 
L 29.46031 38.518247 
L 30.39031 37.562118 
L 31.32031 37.292239 
L 32.25031 36.002252 
L 33.18031 35.256152 
L 34.11031 34.872789 
L 35.04031 34.178759 
L 35.97031 33.397332 
L 36.90031 32.801953 
L 37.83031 32.085724 
L 38.76031 30.792669 
L 39.69031 30.091992 
L 40.62031 28.981009 
L 41.55031 28.109473 
L 42.48031 28.138438 
L 43.41031 27.100723 
L 44.34031 26.416254 
L 45.27031 25.696679 
L 46.20031 25.091408 
L 47.13031 24.904992 
L 48.06031 24.148024 
L 48.99031 23.508599 
L 49.92031 23.313385 
L 50.85031 22.926618 
L 51.78031 22.130355 
L 52.71031 21.744846 
L 53.64031 21.499993 
L 54.57031 20.885513 
L 55.50031 20.060804 
L 56.43031 19.67764 
L 57.36031 19.378909 
L 58.29031 19.210603 
L 59.22031 19.073824 
L 60.15031 18.273875 
L 61.08031 18.548477 
L 62.01031 18.599702 
L 62.94031 18.286332 
L 63.87031 17.63474 
" style="fill:none;stroke:#fc8d62;stroke-linecap:square;stroke-width:2;"/>
   </g>
   <g id="line2d_8">
    <path clip-path="url(#pbf0e497b22)" d="M 10.86031 56.300861 
L 11.79031 53.212192 
L 12.72031 51.23209 
L 13.65031 49.6231 
L 14.58031 48.521478 
L 15.51031 46.592054 
L 16.44031 44.95795 
L 17.37031 43.425044 
L 18.30031 42.190043 
L 19.23031 40.893846 
L 20.16031 39.39663 
L 21.09031 37.260448 
L 22.02031 35.785131 
L 22.95031 34.663399 
L 23.88031 33.758529 
L 24.81031 32.623566 
L 25.74031 32.052167 
L 26.67031 30.848458 
L 27.60031 29.134068 
L 28.53031 27.546001 
L 29.46031 26.867086 
L 30.39031 25.850044 
L 31.32031 24.713992 
L 32.25031 24.338007 
L 33.18031 23.522323 
L 34.11031 22.944991 
L 35.04031 22.263424 
L 35.97031 22.01146 
L 36.90031 20.811428 
L 37.83031 19.870784 
L 38.76031 19.301818 
L 39.69031 19.224475 
L 40.62031 17.97516 
L 41.55031 17.048604 
L 42.48031 16.087629 
L 43.41031 15.355614 
L 44.34031 13.532794 
L 45.27031 13.313793 
L 46.20031 11.691828 
L 47.13031 11.189725 
L 48.06031 10.716683 
L 48.99031 10.97114 
L 49.92031 9.849094 
L 50.85031 8.784051 
L 51.78031 9.258746 
L 52.71031 8.235135 
L 53.64031 7.124778 
L 54.57031 6.431952 
L 55.50031 4.902946 
L 56.43031 5.103662 
L 57.36031 5.024786 
L 58.29031 3.798906 
L 59.22031 3.002986 
L 60.15031 2.149343 
L 61.08031 1.573315 
L 62.01031 0.01301 
L 62.94031 -0.96335 
L 62.970853 -1 
" style="fill:none;stroke:#fc8d62;stroke-dasharray:1.5,1.5;stroke-dashoffset:0;stroke-opacity:0.7;stroke-width:1.5;"/>
   </g>
   <g id="patch_3">
    <path d="M 9 67.68 
L 9 17.28 
" style="fill:none;stroke:#a9a9a9;stroke-linecap:square;stroke-linejoin:miter;stroke-width:2;"/>
   </g>
   <g id="patch_4">
    <path d="M 64.8 67.68 
L 64.8 17.28 
" style="fill:none;"/>
   </g>
   <g id="patch_5">
    <path d="M 9 67.68 
L 64.8 67.68 
" style="fill:none;stroke:#a9a9a9;stroke-linecap:square;stroke-linejoin:miter;stroke-width:2;"/>
   </g>
   <g id="patch_6">
    <path d="M 9 17.28 
L 64.8 17.28 
" style="fill:none;"/>
   </g>
  </g>
  <g id="axes_2">
   <g id="patch_7">
    <path d="M 9 128.16 
L 64.8 128.16 
L 64.8 77.76 
L 9 77.76 
z
" style="fill:none;"/>
   </g>
   <g id="matplotlib.axis_3">
    <g id="xtick_4">
     <g id="line2d_9">
      <g>
       <use style="fill:#a9a9a9;stroke:#a9a9a9;stroke-width:2;" x="9" xlink:href="#med296e5a12" y="128.16"/>
      </g>
     </g>
    </g>
    <g id="xtick_5">
     <g id="line2d_10">
      <g>
       <use style="fill:#a9a9a9;stroke:#a9a9a9;stroke-width:2;" x="36.9" xlink:href="#med296e5a12" y="128.16"/>
      </g>
     </g>
    </g>
    <g id="xtick_6">
     <g id="line2d_11">
      <g>
       <use style="fill:#a9a9a9;stroke:#a9a9a9;stroke-width:2;" x="64.8" xlink:href="#med296e5a12" y="128.16"/>
      </g>
     </g>
    </g>
   </g>
   <g id="matplotlib.axis_4">
    <g id="ytick_4">
     <g id="line2d_12">
      <g>
       <use style="fill:#a9a9a9;stroke:#a9a9a9;stroke-width:2;" x="9" xlink:href="#mca536bd961" y="128.16"/>
      </g>
     </g>
    </g>
    <g id="ytick_5">
     <g id="line2d_13">
      <g>
       <use style="fill:#a9a9a9;stroke:#a9a9a9;stroke-width:2;" x="9" xlink:href="#mca536bd961" y="102.96"/>
      </g>
     </g>
    </g>
    <g id="ytick_6">
     <g id="line2d_14">
      <g>
       <use style="fill:#a9a9a9;stroke:#a9a9a9;stroke-width:2;" x="9" xlink:href="#mca536bd961" y="77.76"/>
      </g>
     </g>
    </g>
   </g>
   <g id="line2d_15">
    <path clip-path="url(#p56723a409c)" d="M 10.86031 127.698164 
L 11.79031 127.610403 
L 12.72031 127.43379 
L 13.65031 127.303525 
L 14.58031 127.299117 
L 15.51031 127.250525 
L 16.44031 127.257061 
L 17.37031 127.346848 
L 18.30031 127.241327 
L 19.23031 127.284523 
L 20.16031 127.315843 
L 21.09031 127.263257 
L 22.02031 127.257116 
L 22.95031 127.210589 
L 23.88031 127.129303 
L 24.81031 127.104952 
L 25.74031 127.135454 
L 26.67031 127.157459 
L 27.60031 127.167893 
L 28.53031 127.136686 
L 29.46031 127.185818 
L 30.39031 127.19554 
L 31.32031 127.198498 
L 32.25031 127.185682 
L 33.18031 127.193146 
L 34.11031 127.198138 
L 35.04031 127.210335 
L 35.97031 127.182557 
L 36.90031 127.177618 
L 37.83031 127.187548 
L 38.76031 127.206965 
L 39.69031 127.224072 
L 40.62031 127.249412 
L 41.55031 127.267705 
L 42.48031 127.283159 
L 43.41031 127.263714 
L 44.34031 127.271371 
L 45.27031 127.284698 
L 46.20031 127.27431 
L 47.13031 127.253111 
L 48.06031 127.248766 
L 48.99031 127.254797 
L 49.92031 127.249142 
L 50.85031 127.244428 
L 51.78031 127.243645 
L 52.71031 127.251832 
L 53.64031 127.24159 
L 54.57031 127.2363 
L 55.50031 127.227711 
L 56.43031 127.240702 
L 57.36031 127.22651 
L 58.29031 127.219304 
L 59.22031 127.228359 
L 60.15031 127.231301 
L 61.08031 127.233148 
L 62.01031 127.223522 
L 62.94031 127.223595 
L 63.87031 127.218796 
" style="fill:none;stroke:#fc8d62;stroke-linecap:square;stroke-width:2;"/>
   </g>
   <g id="line2d_16">
    <path clip-path="url(#p56723a409c)" d="M 10.86031 100.808982 
L 11.79031 98.802324 
L 12.72031 97.76041 
L 13.65031 97.352233 
L 14.58031 97.106919 
L 15.51031 96.460769 
L 16.44031 95.995782 
L 17.37031 95.764211 
L 18.30031 95.716072 
L 19.23031 95.744623 
L 20.16031 95.719943 
L 21.09031 95.57584 
L 22.02031 95.386229 
L 22.95031 95.373128 
L 23.88031 95.331932 
L 24.81031 95.293661 
L 25.74031 95.334368 
L 26.67031 95.257814 
L 27.60031 95.320723 
L 28.53031 95.280991 
L 29.46031 95.175778 
L 30.39031 95.126863 
L 31.32031 95.037267 
L 32.25031 95.031872 
L 33.18031 94.964893 
L 34.11031 95.004141 
L 35.04031 94.995642 
L 35.97031 94.968533 
L 36.90031 94.912704 
L 37.83031 94.894141 
L 38.76031 94.910048 
L 39.69031 94.973275 
L 40.62031 94.962475 
L 41.55031 95.002488 
L 42.48031 94.944256 
L 43.41031 94.912796 
L 44.34031 94.880139 
L 45.27031 94.919397 
L 46.20031 94.914855 
L 47.13031 94.892378 
L 48.06031 94.89122 
L 48.99031 94.90081 
L 49.92031 94.86739 
L 50.85031 94.867444 
L 51.78031 94.892428 
L 52.71031 94.910087 
L 53.64031 94.916999 
L 54.57031 94.90263 
L 55.50031 94.906251 
L 56.43031 94.905488 
L 57.36031 94.900028 
L 58.29031 94.878921 
L 59.22031 94.824301 
L 60.15031 94.818145 
L 61.08031 94.791815 
L 62.01031 94.818542 
L 62.94031 94.824149 
L 63.87031 94.813294 
" style="fill:none;stroke:#fc8d62;stroke-dasharray:1.5,1.5;stroke-dashoffset:0;stroke-opacity:0.7;stroke-width:1.5;"/>
   </g>
   <g id="patch_8">
    <path d="M 9 128.16 
L 9 77.76 
" style="fill:none;stroke:#a9a9a9;stroke-linecap:square;stroke-linejoin:miter;stroke-width:2;"/>
   </g>
   <g id="patch_9">
    <path d="M 64.8 128.16 
L 64.8 77.76 
" style="fill:none;"/>
   </g>
   <g id="patch_10">
    <path d="M 9 128.16 
L 64.8 128.16 
" style="fill:none;stroke:#a9a9a9;stroke-linecap:square;stroke-linejoin:miter;stroke-width:2;"/>
   </g>
   <g id="patch_11">
    <path d="M 9 77.76 
L 64.8 77.76 
" style="fill:none;"/>
   </g>
  </g>
 </g>
 <defs>
  <clipPath id="pbf0e497b22">
   <rect height="50.4" width="55.8" x="9" y="17.28"/>
  </clipPath>
  <clipPath id="p56723a409c">
   <rect height="50.4" width="55.8" x="9" y="77.76"/>
  </clipPath>
 </defs>
</svg>
