<?xml version="1.0" encoding="utf-8" standalone="no"?>
<!DOCTYPE svg PUBLIC "-//W3C//DTD SVG 1.1//EN"
  "http://www.w3.org/Graphics/SVG/1.1/DTD/svg11.dtd">
<!-- Created with matplotlib (https://matplotlib.org/) -->
<svg height="144pt" version="1.1" viewBox="0 0 72 144" width="72pt" xmlns="http://www.w3.org/2000/svg" xmlns:xlink="http://www.w3.org/1999/xlink">
 <metadata>
  <rdf:RDF xmlns:cc="http://creativecommons.org/ns#" xmlns:dc="http://purl.org/dc/elements/1.1/" xmlns:rdf="http://www.w3.org/1999/02/22-rdf-syntax-ns#">
   <cc:Work>
    <dc:type rdf:resource="http://purl.org/dc/dcmitype/StillImage"/>
    <dc:date>2021-10-13T15:44:28.234021</dc:date>
    <dc:format>image/svg+xml</dc:format>
    <dc:creator>
     <cc:Agent>
      <dc:title>Matplotlib v3.3.2, https://matplotlib.org/</dc:title>
     </cc:Agent>
    </dc:creator>
   </cc:Work>
  </rdf:RDF>
 </metadata>
 <defs>
  <style type="text/css">*{stroke-linecap:butt;stroke-linejoin:round;}</style>
 </defs>
 <g id="figure_1">
  <g id="patch_1">
   <path d="M 0 144 
L 72 144 
L 72 0 
L 0 0 
z
" style="fill:none;"/>
  </g>
  <g id="axes_1">
   <g id="patch_2">
    <path d="M 9 67.68 
L 64.8 67.68 
L 64.8 17.28 
L 9 17.28 
z
" style="fill:none;"/>
   </g>
   <g id="matplotlib.axis_1">
    <g id="xtick_1">
     <g id="line2d_1">
      <defs>
       <path d="M 0 0 
L 0 3.5 
" id="ma6643bf755" style="stroke:#a9a9a9;stroke-width:2;"/>
      </defs>
      <g>
       <use style="fill:#a9a9a9;stroke:#a9a9a9;stroke-width:2;" x="9" xlink:href="#ma6643bf755" y="67.68"/>
      </g>
     </g>
    </g>
    <g id="xtick_2">
     <g id="line2d_2">
      <g>
       <use style="fill:#a9a9a9;stroke:#a9a9a9;stroke-width:2;" x="36.9" xlink:href="#ma6643bf755" y="67.68"/>
      </g>
     </g>
    </g>
    <g id="xtick_3">
     <g id="line2d_3">
      <g>
       <use style="fill:#a9a9a9;stroke:#a9a9a9;stroke-width:2;" x="64.8" xlink:href="#ma6643bf755" y="67.68"/>
      </g>
     </g>
    </g>
   </g>
   <g id="matplotlib.axis_2">
    <g id="ytick_1">
     <g id="line2d_4">
      <defs>
       <path d="M 0 0 
L -3.5 0 
" id="mfd18d9e912" style="stroke:#a9a9a9;stroke-width:2;"/>
      </defs>
      <g>
       <use style="fill:#a9a9a9;stroke:#a9a9a9;stroke-width:2;" x="9" xlink:href="#mfd18d9e912" y="67.68"/>
      </g>
     </g>
    </g>
    <g id="ytick_2">
     <g id="line2d_5">
      <g>
       <use style="fill:#a9a9a9;stroke:#a9a9a9;stroke-width:2;" x="9" xlink:href="#mfd18d9e912" y="44.946218"/>
      </g>
     </g>
    </g>
    <g id="ytick_3">
     <g id="line2d_6">
      <g>
       <use style="fill:#a9a9a9;stroke:#a9a9a9;stroke-width:2;" x="9" xlink:href="#mfd18d9e912" y="22.212436"/>
      </g>
     </g>
    </g>
   </g>
   <g id="line2d_7">
    <path clip-path="url(#p8ea8d8b040)" d="M 10.86031 56.611351 
L 11.79031 54.985019 
L 12.72031 53.657439 
L 13.65031 53.593603 
L 14.58031 51.038543 
L 15.51031 49.885353 
L 16.44031 48.420363 
L 17.37031 48.222185 
L 18.30031 48.228804 
L 19.23031 47.672864 
L 20.16031 47.435823 
L 21.09031 45.595695 
L 22.02031 44.503129 
L 22.95031 43.209355 
L 23.88031 41.838602 
L 24.81031 41.313059 
L 25.74031 39.748126 
L 26.67031 39.040661 
L 27.60031 38.823161 
L 28.53031 38.069503 
L 29.46031 37.0571 
L 30.39031 35.992402 
L 31.32031 35.490009 
L 32.25031 34.160231 
L 33.18031 32.891298 
L 34.11031 33.189268 
L 35.04031 34.034306 
L 35.97031 34.415923 
L 36.90031 32.732727 
L 37.83031 32.29135 
L 38.76031 31.917041 
L 39.69031 31.674447 
L 40.62031 31.193076 
L 41.55031 30.069982 
L 42.48031 29.980766 
L 43.41031 29.019481 
L 44.34031 29.149107 
L 45.27031 28.876094 
L 46.20031 28.498082 
L 47.13031 28.381141 
L 48.06031 27.7803 
L 48.99031 27.262692 
L 49.92031 26.494579 
L 50.85031 25.918144 
L 51.78031 24.941244 
L 52.71031 24.60989 
L 53.64031 24.108084 
L 54.57031 24.279418 
L 55.50031 22.872517 
L 56.43031 22.769138 
L 57.36031 22.300726 
L 58.29031 22.152409 
L 59.22031 21.244676 
L 60.15031 20.900081 
L 61.08031 20.410779 
L 62.01031 19.154305 
L 62.94031 18.416689 
L 63.87031 18.734376 
" style="fill:none;stroke:#fc8d62;stroke-linecap:square;stroke-width:2;"/>
   </g>
   <g id="line2d_8">
    <path clip-path="url(#p8ea8d8b040)" d="M 10.86031 62.784197 
L 11.79031 63.835851 
L 12.72031 62.756307 
L 13.65031 62.893244 
L 14.58031 63.705216 
L 15.51031 63.62185 
L 16.44031 64.845536 
L 17.37031 63.62207 
L 18.30031 63.172935 
L 19.23031 63.690591 
L 20.16031 64.251315 
L 21.09031 63.271466 
L 22.02031 62.96197 
L 22.95031 61.917912 
L 23.88031 62.214642 
L 24.81031 63.114962 
L 25.74031 63.157673 
L 26.67031 63.384407 
L 27.60031 63.048213 
L 28.53031 62.293516 
L 29.46031 62.130477 
L 30.39031 62.504089 
L 31.32031 62.61232 
L 32.25031 62.370868 
L 33.18031 62.140332 
L 34.11031 61.966569 
L 35.04031 62.54077 
L 35.97031 62.582857 
L 36.90031 62.544337 
L 37.83031 62.292805 
L 38.76031 62.747933 
L 39.69031 62.656199 
L 40.62031 62.520173 
L 41.55031 62.734426 
L 42.48031 62.735359 
L 43.41031 62.823067 
L 44.34031 62.8454 
L 45.27031 62.060531 
L 46.20031 62.23804 
L 47.13031 61.775528 
L 48.06031 61.886546 
L 48.99031 62.166174 
L 49.92031 62.0218 
L 50.85031 62.086833 
L 51.78031 62.458564 
L 52.71031 62.788518 
L 53.64031 62.392904 
L 54.57031 62.369908 
L 55.50031 62.193174 
L 56.43031 61.949506 
L 57.36031 61.876649 
L 58.29031 61.390475 
L 59.22031 61.629149 
L 60.15031 61.406402 
L 61.08031 61.414972 
L 62.01031 61.745644 
L 62.94031 61.447809 
L 63.87031 61.623687 
" style="fill:none;stroke:#fc8d62;stroke-dasharray:1.5,1.5;stroke-dashoffset:0;stroke-opacity:0.7;stroke-width:1.5;"/>
   </g>
   <g id="patch_3">
    <path d="M 9 67.68 
L 9 17.28 
" style="fill:none;stroke:#a9a9a9;stroke-linecap:square;stroke-linejoin:miter;stroke-width:2;"/>
   </g>
   <g id="patch_4">
    <path d="M 64.8 67.68 
L 64.8 17.28 
" style="fill:none;"/>
   </g>
   <g id="patch_5">
    <path d="M 9 67.68 
L 64.8 67.68 
" style="fill:none;stroke:#a9a9a9;stroke-linecap:square;stroke-linejoin:miter;stroke-width:2;"/>
   </g>
   <g id="patch_6">
    <path d="M 9 17.28 
L 64.8 17.28 
" style="fill:none;"/>
   </g>
  </g>
  <g id="axes_2">
   <g id="patch_7">
    <path d="M 9 128.16 
L 64.8 128.16 
L 64.8 77.76 
L 9 77.76 
z
" style="fill:none;"/>
   </g>
   <g id="matplotlib.axis_3">
    <g id="xtick_4">
     <g id="line2d_9">
      <g>
       <use style="fill:#a9a9a9;stroke:#a9a9a9;stroke-width:2;" x="9" xlink:href="#ma6643bf755" y="128.16"/>
      </g>
     </g>
    </g>
    <g id="xtick_5">
     <g id="line2d_10">
      <g>
       <use style="fill:#a9a9a9;stroke:#a9a9a9;stroke-width:2;" x="36.9" xlink:href="#ma6643bf755" y="128.16"/>
      </g>
     </g>
    </g>
    <g id="xtick_6">
     <g id="line2d_11">
      <g>
       <use style="fill:#a9a9a9;stroke:#a9a9a9;stroke-width:2;" x="64.8" xlink:href="#ma6643bf755" y="128.16"/>
      </g>
     </g>
    </g>
   </g>
   <g id="matplotlib.axis_4">
    <g id="ytick_4">
     <g id="line2d_12">
      <g>
       <use style="fill:#a9a9a9;stroke:#a9a9a9;stroke-width:2;" x="9" xlink:href="#mfd18d9e912" y="128.16"/>
      </g>
     </g>
    </g>
    <g id="ytick_5">
     <g id="line2d_13">
      <g>
       <use style="fill:#a9a9a9;stroke:#a9a9a9;stroke-width:2;" x="9" xlink:href="#mfd18d9e912" y="102.96"/>
      </g>
     </g>
    </g>
    <g id="ytick_6">
     <g id="line2d_14">
      <g>
       <use style="fill:#a9a9a9;stroke:#a9a9a9;stroke-width:2;" x="9" xlink:href="#mfd18d9e912" y="77.76"/>
      </g>
     </g>
    </g>
   </g>
   <g id="line2d_15">
    <path clip-path="url(#p9f5350c23e)" d="M 10.86031 126.162359 
L 11.79031 125.278519 
L 12.72031 124.885987 
L 13.65031 124.39466 
L 14.58031 123.959151 
L 15.51031 123.488096 
L 16.44031 122.930042 
L 17.37031 122.621696 
L 18.30031 122.477769 
L 19.23031 122.243012 
L 20.16031 122.10586 
L 21.09031 121.838472 
L 22.02031 121.55347 
L 22.95031 121.356295 
L 23.88031 121.036608 
L 24.81031 120.899955 
L 25.74031 120.697509 
L 26.67031 120.546445 
L 27.60031 120.424507 
L 28.53031 120.334572 
L 29.46031 120.284341 
L 30.39031 120.118822 
L 31.32031 119.997261 
L 32.25031 119.940292 
L 33.18031 119.844912 
L 34.11031 119.78271 
L 35.04031 119.758032 
L 35.97031 119.686029 
L 36.90031 119.567133 
L 37.83031 119.533241 
L 38.76031 119.453365 
L 39.69031 119.38632 
L 40.62031 119.353549 
L 41.55031 119.30584 
L 42.48031 119.253001 
L 43.41031 119.195495 
L 44.34031 119.1756 
L 45.27031 119.107791 
L 46.20031 119.077954 
L 47.13031 119.067143 
L 48.06031 119.026408 
L 48.99031 119.032237 
L 49.92031 119.005671 
L 50.85031 118.965631 
L 51.78031 118.963899 
L 52.71031 118.920193 
L 53.64031 118.853088 
L 54.57031 118.837974 
L 55.50031 118.750245 
L 56.43031 118.750557 
L 57.36031 118.720818 
L 58.29031 118.729465 
L 59.22031 118.66858 
L 60.15031 118.648706 
L 61.08031 118.63015 
L 62.01031 118.603506 
L 62.94031 118.561551 
L 63.87031 118.559721 
" style="fill:none;stroke:#fc8d62;stroke-linecap:square;stroke-width:2;"/>
   </g>
   <g id="line2d_16">
    <path clip-path="url(#p9f5350c23e)" d="M 10.86031 128.159947 
L 11.79031 128.15443 
L 12.72031 128.153383 
L 13.65031 128.137346 
L 14.58031 128.112782 
L 15.51031 128.133071 
L 16.44031 128.124798 
L 17.37031 128.093282 
L 18.30031 128.085679 
L 19.23031 128.058645 
L 20.16031 128.056842 
L 21.09031 128.029933 
L 22.02031 128.05289 
L 22.95031 128.0561 
L 23.88031 128.046609 
L 24.81031 128.083661 
L 25.74031 128.087154 
L 26.67031 128.072673 
L 27.60031 128.074902 
L 28.53031 128.057638 
L 29.46031 128.055437 
L 30.39031 128.039935 
L 31.32031 128.044438 
L 32.25031 128.024154 
L 33.18031 127.997065 
L 34.11031 127.980084 
L 35.04031 127.992616 
L 35.97031 127.986248 
L 36.90031 127.988404 
L 37.83031 127.960035 
L 38.76031 127.985197 
L 39.69031 127.989047 
L 40.62031 127.994583 
L 41.55031 128.005474 
L 42.48031 128.013955 
L 43.41031 127.994529 
L 44.34031 128.014976 
L 45.27031 128.004945 
L 46.20031 128.015879 
L 47.13031 128.010713 
L 48.06031 127.972236 
L 48.99031 127.96173 
L 49.92031 127.977289 
L 50.85031 127.962793 
L 51.78031 127.96152 
L 52.71031 127.974684 
L 53.64031 127.965771 
L 54.57031 127.964124 
L 55.50031 127.947822 
L 56.43031 127.938286 
L 57.36031 127.911419 
L 58.29031 127.907231 
L 59.22031 127.912545 
L 60.15031 127.894804 
L 61.08031 127.883987 
L 62.01031 127.878451 
L 62.94031 127.845525 
L 63.87031 127.851325 
" style="fill:none;stroke:#fc8d62;stroke-dasharray:1.5,1.5;stroke-dashoffset:0;stroke-opacity:0.7;stroke-width:1.5;"/>
   </g>
   <g id="patch_8">
    <path d="M 9 128.16 
L 9 77.76 
" style="fill:none;stroke:#a9a9a9;stroke-linecap:square;stroke-linejoin:miter;stroke-width:2;"/>
   </g>
   <g id="patch_9">
    <path d="M 64.8 128.16 
L 64.8 77.76 
" style="fill:none;"/>
   </g>
   <g id="patch_10">
    <path d="M 9 128.16 
L 64.8 128.16 
" style="fill:none;stroke:#a9a9a9;stroke-linecap:square;stroke-linejoin:miter;stroke-width:2;"/>
   </g>
   <g id="patch_11">
    <path d="M 9 77.76 
L 64.8 77.76 
" style="fill:none;"/>
   </g>
  </g>
 </g>
 <defs>
  <clipPath id="p8ea8d8b040">
   <rect height="50.4" width="55.8" x="9" y="17.28"/>
  </clipPath>
  <clipPath id="p9f5350c23e">
   <rect height="50.4" width="55.8" x="9" y="77.76"/>
  </clipPath>
 </defs>
</svg>
