<?xml version="1.0" encoding="utf-8" standalone="no"?>
<!DOCTYPE svg PUBLIC "-//W3C//DTD SVG 1.1//EN"
  "http://www.w3.org/Graphics/SVG/1.1/DTD/svg11.dtd">
<!-- Created with matplotlib (https://matplotlib.org/) -->
<svg height="144pt" version="1.1" viewBox="0 0 72 144" width="72pt" xmlns="http://www.w3.org/2000/svg" xmlns:xlink="http://www.w3.org/1999/xlink">
 <metadata>
  <rdf:RDF xmlns:cc="http://creativecommons.org/ns#" xmlns:dc="http://purl.org/dc/elements/1.1/" xmlns:rdf="http://www.w3.org/1999/02/22-rdf-syntax-ns#">
   <cc:Work>
    <dc:type rdf:resource="http://purl.org/dc/dcmitype/StillImage"/>
    <dc:date>2021-10-13T14:47:22.551510</dc:date>
    <dc:format>image/svg+xml</dc:format>
    <dc:creator>
     <cc:Agent>
      <dc:title>Matplotlib v3.3.2, https://matplotlib.org/</dc:title>
     </cc:Agent>
    </dc:creator>
   </cc:Work>
  </rdf:RDF>
 </metadata>
 <defs>
  <style type="text/css">*{stroke-linecap:butt;stroke-linejoin:round;}</style>
 </defs>
 <g id="figure_1">
  <g id="patch_1">
   <path d="M 0 144 
L 72 144 
L 72 0 
L 0 0 
z
" style="fill:none;"/>
  </g>
  <g id="axes_1">
   <g id="patch_2">
    <path d="M 9 67.68 
L 64.8 67.68 
L 64.8 17.28 
L 9 17.28 
z
" style="fill:none;"/>
   </g>
   <g id="matplotlib.axis_1">
    <g id="xtick_1">
     <g id="line2d_1">
      <defs>
       <path d="M 0 0 
L 0 3.5 
" id="m8c2405c47b" style="stroke:#a9a9a9;stroke-width:2;"/>
      </defs>
      <g>
       <use style="fill:#a9a9a9;stroke:#a9a9a9;stroke-width:2;" x="9" xlink:href="#m8c2405c47b" y="67.68"/>
      </g>
     </g>
    </g>
    <g id="xtick_2">
     <g id="line2d_2">
      <g>
       <use style="fill:#a9a9a9;stroke:#a9a9a9;stroke-width:2;" x="36.9" xlink:href="#m8c2405c47b" y="67.68"/>
      </g>
     </g>
    </g>
    <g id="xtick_3">
     <g id="line2d_3">
      <g>
       <use style="fill:#a9a9a9;stroke:#a9a9a9;stroke-width:2;" x="64.8" xlink:href="#m8c2405c47b" y="67.68"/>
      </g>
     </g>
    </g>
   </g>
   <g id="matplotlib.axis_2">
    <g id="ytick_1">
     <g id="line2d_4">
      <defs>
       <path d="M 0 0 
L -3.5 0 
" id="m1ec5e5bcbb" style="stroke:#a9a9a9;stroke-width:2;"/>
      </defs>
      <g>
       <use style="fill:#a9a9a9;stroke:#a9a9a9;stroke-width:2;" x="9" xlink:href="#m1ec5e5bcbb" y="67.68"/>
      </g>
     </g>
    </g>
    <g id="ytick_2">
     <g id="line2d_5">
      <g>
       <use style="fill:#a9a9a9;stroke:#a9a9a9;stroke-width:2;" x="9" xlink:href="#m1ec5e5bcbb" y="64.092506"/>
      </g>
     </g>
    </g>
    <g id="ytick_3">
     <g id="line2d_6">
      <g>
       <use style="fill:#a9a9a9;stroke:#a9a9a9;stroke-width:2;" x="9" xlink:href="#m1ec5e5bcbb" y="60.505012"/>
      </g>
     </g>
    </g>
   </g>
   <g id="line2d_7">
    <path clip-path="url(#p7109cdc878)" d="M 10.86031 58.970573 
L 11.79031 57.389978 
L 12.72031 55.99345 
L 13.65031 54.073331 
L 14.58031 53.121992 
L 15.51031 52.181357 
L 16.44031 51.651142 
L 17.37031 50.791239 
L 18.30031 49.88886 
L 19.23031 49.022982 
L 20.16031 48.558548 
L 21.09031 47.972484 
L 22.02031 46.66171 
L 22.95031 45.559633 
L 23.88031 44.350668 
L 24.81031 42.432379 
L 25.74031 41.965132 
L 26.67031 41.159524 
L 27.60031 39.633614 
L 28.53031 38.046621 
L 29.46031 36.395199 
L 30.39031 35.211981 
L 31.32031 33.804892 
L 32.25031 33.285239 
L 33.18031 32.387345 
L 34.11031 31.845136 
L 35.04031 32.594328 
L 35.97031 32.797892 
L 36.90031 32.782774 
L 37.83031 32.077494 
L 38.76031 31.895067 
L 39.69031 31.825569 
L 40.62031 31.812484 
L 41.55031 31.975251 
L 42.48031 31.940507 
L 43.41031 31.524935 
L 44.34031 30.611363 
L 45.27031 29.598014 
L 46.20031 28.638437 
L 47.13031 27.579067 
L 48.06031 26.150371 
L 48.99031 26.04349 
L 49.92031 25.672593 
L 50.85031 25.120931 
L 51.78031 24.224572 
L 52.71031 23.27518 
L 53.64031 22.013092 
L 54.57031 20.788171 
L 55.50031 20.145623 
L 56.43031 19.608338 
L 57.36031 19.479656 
L 58.29031 18.601238 
L 59.22031 17.777038 
L 60.15031 17.767646 
L 61.08031 17.527797 
L 62.01031 17.459375 
L 62.94031 17.734627 
L 63.87031 17.589353 
" style="fill:none;stroke:#fc8d62;stroke-linecap:square;stroke-width:2;"/>
   </g>
   <g id="line2d_8">
    <path clip-path="url(#p7109cdc878)" d="M 10.86031 58.602447 
L 11.79031 57.998146 
L 12.72031 56.658098 
L 13.65031 55.599417 
L 14.58031 54.523754 
L 15.51031 53.624843 
L 16.44031 52.786439 
L 17.37031 51.614762 
L 18.30031 49.774191 
L 19.23031 49.621027 
L 20.16031 48.66329 
L 21.09031 47.516046 
L 22.02031 46.262129 
L 22.95031 45.505385 
L 23.88031 43.883255 
L 24.81031 42.874156 
L 25.74031 41.650587 
L 26.67031 40.96445 
L 27.60031 39.73068 
L 28.53031 38.205847 
L 29.46031 37.021379 
L 30.39031 35.601938 
L 31.32031 34.622618 
L 32.25031 33.952863 
L 33.18031 34.148412 
L 34.11031 33.247534 
L 35.04031 33.376795 
L 35.97031 33.338521 
L 36.90031 33.090028 
L 37.83031 32.895508 
L 38.76031 32.893117 
L 39.69031 32.10498 
L 40.62031 32.051228 
L 41.55031 31.748951 
L 42.48031 30.529604 
L 43.41031 29.699212 
L 44.34031 28.096393 
L 45.27031 27.862712 
L 46.20031 26.603559 
L 47.13031 25.889107 
L 48.06031 24.918473 
L 48.99031 24.048765 
L 49.92031 24.036823 
L 50.85031 23.221712 
L 51.78031 23.022594 
L 52.71031 22.453965 
L 53.64031 21.684982 
L 54.57031 21.260291 
L 55.50031 20.568002 
L 56.43031 20.366085 
L 57.36031 20.168079 
L 58.29031 19.458882 
L 59.22031 19.829206 
L 60.15031 20.147625 
L 61.08031 19.562962 
L 62.01031 18.47937 
L 62.94031 18.072676 
L 63.87031 17.532004 
" style="fill:none;stroke:#fc8d62;stroke-dasharray:1.5,1.5;stroke-dashoffset:0;stroke-opacity:0.7;stroke-width:1.5;"/>
   </g>
   <g id="patch_3">
    <path d="M 9 67.68 
L 9 17.28 
" style="fill:none;stroke:#a9a9a9;stroke-linecap:square;stroke-linejoin:miter;stroke-width:2;"/>
   </g>
   <g id="patch_4">
    <path d="M 64.8 67.68 
L 64.8 17.28 
" style="fill:none;"/>
   </g>
   <g id="patch_5">
    <path d="M 9 67.68 
L 64.8 67.68 
" style="fill:none;stroke:#a9a9a9;stroke-linecap:square;stroke-linejoin:miter;stroke-width:2;"/>
   </g>
   <g id="patch_6">
    <path d="M 9 17.28 
L 64.8 17.28 
" style="fill:none;"/>
   </g>
  </g>
  <g id="axes_2">
   <g id="patch_7">
    <path d="M 9 128.16 
L 64.8 128.16 
L 64.8 77.76 
L 9 77.76 
z
" style="fill:none;"/>
   </g>
   <g id="matplotlib.axis_3">
    <g id="xtick_4">
     <g id="line2d_9">
      <g>
       <use style="fill:#a9a9a9;stroke:#a9a9a9;stroke-width:2;" x="9" xlink:href="#m8c2405c47b" y="128.16"/>
      </g>
     </g>
    </g>
    <g id="xtick_5">
     <g id="line2d_10">
      <g>
       <use style="fill:#a9a9a9;stroke:#a9a9a9;stroke-width:2;" x="36.9" xlink:href="#m8c2405c47b" y="128.16"/>
      </g>
     </g>
    </g>
    <g id="xtick_6">
     <g id="line2d_11">
      <g>
       <use style="fill:#a9a9a9;stroke:#a9a9a9;stroke-width:2;" x="64.8" xlink:href="#m8c2405c47b" y="128.16"/>
      </g>
     </g>
    </g>
   </g>
   <g id="matplotlib.axis_4">
    <g id="ytick_4">
     <g id="line2d_12">
      <g>
       <use style="fill:#a9a9a9;stroke:#a9a9a9;stroke-width:2;" x="9" xlink:href="#m1ec5e5bcbb" y="128.16"/>
      </g>
     </g>
    </g>
    <g id="ytick_5">
     <g id="line2d_13">
      <g>
       <use style="fill:#a9a9a9;stroke:#a9a9a9;stroke-width:2;" x="9" xlink:href="#m1ec5e5bcbb" y="102.96"/>
      </g>
     </g>
    </g>
    <g id="ytick_6">
     <g id="line2d_14">
      <g>
       <use style="fill:#a9a9a9;stroke:#a9a9a9;stroke-width:2;" x="9" xlink:href="#m1ec5e5bcbb" y="77.76"/>
      </g>
     </g>
    </g>
   </g>
   <g id="line2d_15">
    <path clip-path="url(#pea6b13ddef)" d="M 10.86031 85.798814 
L 11.79031 85.045398 
L 12.72031 84.799725 
L 13.65031 84.508478 
L 14.58031 84.406388 
L 15.51031 84.324453 
L 16.44031 84.231307 
L 17.37031 84.169088 
L 18.30031 84.171864 
L 19.23031 84.127697 
L 20.16031 84.091455 
L 21.09031 84.096573 
L 22.02031 84.080813 
L 22.95031 84.062552 
L 23.88031 84.019026 
L 24.81031 83.998946 
L 25.74031 83.972314 
L 26.67031 83.982377 
L 27.60031 83.977113 
L 28.53031 83.962675 
L 29.46031 83.943096 
L 30.39031 83.921079 
L 31.32031 83.939695 
L 32.25031 83.940708 
L 33.18031 83.976817 
L 34.11031 83.948963 
L 35.04031 83.938418 
L 35.97031 83.922449 
L 36.90031 83.914504 
L 37.83031 83.897002 
L 38.76031 83.893847 
L 39.69031 83.87633 
L 40.62031 83.874027 
L 41.55031 83.892082 
L 42.48031 83.892901 
L 43.41031 83.910065 
L 44.34031 83.918343 
L 45.27031 83.907232 
L 46.20031 83.893496 
L 47.13031 83.882556 
L 48.06031 83.874572 
L 48.99031 83.883398 
L 49.92031 83.879718 
L 50.85031 83.881147 
L 51.78031 83.875824 
L 52.71031 83.876855 
L 53.64031 83.870611 
L 54.57031 83.859184 
L 55.50031 83.850109 
L 56.43031 83.842405 
L 57.36031 83.836523 
L 58.29031 83.837045 
L 59.22031 83.834802 
L 60.15031 83.823221 
L 61.08031 83.823646 
L 62.01031 83.820653 
L 62.94031 83.819646 
L 63.87031 83.817167 
" style="fill:none;stroke:#fc8d62;stroke-linecap:square;stroke-width:2;"/>
   </g>
   <g id="line2d_16">
    <path clip-path="url(#pea6b13ddef)" d="M 10.86031 93.321347 
L 11.79031 93.029044 
L 12.72031 92.608454 
L 13.65031 92.463449 
L 14.58031 92.247908 
L 15.51031 92.088296 
L 16.44031 92.023225 
L 17.37031 91.913881 
L 18.30031 91.821955 
L 19.23031 91.808508 
L 20.16031 91.753345 
L 21.09031 91.677781 
L 22.02031 91.690029 
L 22.95031 91.714372 
L 23.88031 91.727257 
L 24.81031 91.673747 
L 25.74031 91.667008 
L 26.67031 91.664966 
L 27.60031 91.658727 
L 28.53031 91.645806 
L 29.46031 91.628418 
L 30.39031 91.635984 
L 31.32031 91.626351 
L 32.25031 91.589464 
L 33.18031 91.600736 
L 34.11031 91.585817 
L 35.04031 91.573458 
L 35.97031 91.577332 
L 36.90031 91.566275 
L 37.83031 91.567036 
L 38.76031 91.582239 
L 39.69031 91.571865 
L 40.62031 91.548146 
L 41.55031 91.534739 
L 42.48031 91.532286 
L 43.41031 91.518384 
L 44.34031 91.517378 
L 45.27031 91.513487 
L 46.20031 91.523437 
L 47.13031 91.514308 
L 48.06031 91.522808 
L 48.99031 91.519503 
L 49.92031 91.521309 
L 50.85031 91.511078 
L 51.78031 91.511914 
L 52.71031 91.531602 
L 53.64031 91.527047 
L 54.57031 91.536911 
L 55.50031 91.524903 
L 56.43031 91.51947 
L 57.36031 91.509614 
L 58.29031 91.508149 
L 59.22031 91.496897 
L 60.15031 91.496238 
L 61.08031 91.495928 
L 62.01031 91.500807 
L 62.94031 91.496825 
L 63.87031 91.501614 
" style="fill:none;stroke:#fc8d62;stroke-dasharray:1.5,1.5;stroke-dashoffset:0;stroke-opacity:0.7;stroke-width:1.5;"/>
   </g>
   <g id="patch_8">
    <path d="M 9 128.16 
L 9 77.76 
" style="fill:none;stroke:#a9a9a9;stroke-linecap:square;stroke-linejoin:miter;stroke-width:2;"/>
   </g>
   <g id="patch_9">
    <path d="M 64.8 128.16 
L 64.8 77.76 
" style="fill:none;"/>
   </g>
   <g id="patch_10">
    <path d="M 9 128.16 
L 64.8 128.16 
" style="fill:none;stroke:#a9a9a9;stroke-linecap:square;stroke-linejoin:miter;stroke-width:2;"/>
   </g>
   <g id="patch_11">
    <path d="M 9 77.76 
L 64.8 77.76 
" style="fill:none;"/>
   </g>
  </g>
 </g>
 <defs>
  <clipPath id="p7109cdc878">
   <rect height="50.4" width="55.8" x="9" y="17.28"/>
  </clipPath>
  <clipPath id="pea6b13ddef">
   <rect height="50.4" width="55.8" x="9" y="77.76"/>
  </clipPath>
 </defs>
</svg>
