<?xml version="1.0" encoding="utf-8" standalone="no"?>
<!DOCTYPE svg PUBLIC "-//W3C//DTD SVG 1.1//EN"
  "http://www.w3.org/Graphics/SVG/1.1/DTD/svg11.dtd">
<!-- Created with matplotlib (https://matplotlib.org/) -->
<svg height="144pt" version="1.1" viewBox="0 0 72 144" width="72pt" xmlns="http://www.w3.org/2000/svg" xmlns:xlink="http://www.w3.org/1999/xlink">
 <metadata>
  <rdf:RDF xmlns:cc="http://creativecommons.org/ns#" xmlns:dc="http://purl.org/dc/elements/1.1/" xmlns:rdf="http://www.w3.org/1999/02/22-rdf-syntax-ns#">
   <cc:Work>
    <dc:type rdf:resource="http://purl.org/dc/dcmitype/StillImage"/>
    <dc:date>2021-10-13T14:10:37.252546</dc:date>
    <dc:format>image/svg+xml</dc:format>
    <dc:creator>
     <cc:Agent>
      <dc:title>Matplotlib v3.3.2, https://matplotlib.org/</dc:title>
     </cc:Agent>
    </dc:creator>
   </cc:Work>
  </rdf:RDF>
 </metadata>
 <defs>
  <style type="text/css">*{stroke-linecap:butt;stroke-linejoin:round;}</style>
 </defs>
 <g id="figure_1">
  <g id="patch_1">
   <path d="M 0 144 
L 72 144 
L 72 0 
L 0 0 
z
" style="fill:none;"/>
  </g>
  <g id="axes_1">
   <g id="patch_2">
    <path d="M 9 67.68 
L 64.8 67.68 
L 64.8 17.28 
L 9 17.28 
z
" style="fill:none;"/>
   </g>
   <g id="matplotlib.axis_1">
    <g id="xtick_1">
     <g id="line2d_1">
      <defs>
       <path d="M 0 0 
L 0 3.5 
" id="m35cc79b70f" style="stroke:#a9a9a9;stroke-width:2;"/>
      </defs>
      <g>
       <use style="fill:#a9a9a9;stroke:#a9a9a9;stroke-width:2;" x="9" xlink:href="#m35cc79b70f" y="67.68"/>
      </g>
     </g>
    </g>
    <g id="xtick_2">
     <g id="line2d_2">
      <g>
       <use style="fill:#a9a9a9;stroke:#a9a9a9;stroke-width:2;" x="36.9" xlink:href="#m35cc79b70f" y="67.68"/>
      </g>
     </g>
    </g>
    <g id="xtick_3">
     <g id="line2d_3">
      <g>
       <use style="fill:#a9a9a9;stroke:#a9a9a9;stroke-width:2;" x="64.8" xlink:href="#m35cc79b70f" y="67.68"/>
      </g>
     </g>
    </g>
   </g>
   <g id="matplotlib.axis_2">
    <g id="ytick_1">
     <g id="line2d_4">
      <defs>
       <path d="M 0 0 
L -3.5 0 
" id="m5c078116d9" style="stroke:#a9a9a9;stroke-width:2;"/>
      </defs>
      <g>
       <use style="fill:#a9a9a9;stroke:#a9a9a9;stroke-width:2;" x="9" xlink:href="#m5c078116d9" y="67.68"/>
      </g>
     </g>
    </g>
    <g id="ytick_2">
     <g id="line2d_5">
      <g>
       <use style="fill:#a9a9a9;stroke:#a9a9a9;stroke-width:2;" x="9" xlink:href="#m5c078116d9" y="42.48"/>
      </g>
     </g>
    </g>
    <g id="ytick_3">
     <g id="line2d_6">
      <g>
       <use style="fill:#a9a9a9;stroke:#a9a9a9;stroke-width:2;" x="9" xlink:href="#m5c078116d9" y="17.28"/>
      </g>
     </g>
    </g>
   </g>
   <g id="line2d_7">
    <path clip-path="url(#p27bab92758)" d="M 10.86031 53.563082 
L 11.79031 52.501478 
L 12.72031 52.75584 
L 13.65031 52.009667 
L 14.58031 50.604338 
L 15.51031 50.09485 
L 16.44031 50.360535 
L 17.37031 49.583294 
L 18.30031 49.084047 
L 19.23031 47.947296 
L 20.16031 47.395471 
L 21.09031 46.90476 
L 22.02031 46.112244 
L 22.95031 45.458382 
L 23.88031 44.895393 
L 24.81031 44.249287 
L 25.74031 43.402775 
L 26.67031 42.849589 
L 27.60031 42.506715 
L 28.53031 41.543241 
L 29.46031 41.244817 
L 30.39031 40.612905 
L 31.32031 40.641413 
L 32.25031 39.437158 
L 33.18031 38.5181 
L 34.11031 37.6476 
L 35.04031 37.321024 
L 35.97031 36.405523 
L 36.90031 36.450022 
L 37.83031 35.314836 
L 38.76031 34.818484 
L 39.69031 34.228112 
L 40.62031 33.647643 
L 41.55031 32.694704 
L 42.48031 32.434873 
L 43.41031 32.143012 
L 44.34031 31.333217 
L 45.27031 30.950906 
L 46.20031 30.142536 
L 47.13031 29.884872 
L 48.06031 29.451941 
L 48.99031 29.338362 
L 49.92031 29.078847 
L 50.85031 29.14898 
L 51.78031 28.316297 
L 52.71031 28.059737 
L 53.64031 27.241622 
L 54.57031 26.862548 
L 55.50031 25.783651 
L 56.43031 25.30893 
L 57.36031 24.963143 
L 58.29031 25.00374 
L 59.22031 24.641926 
L 60.15031 24.720708 
L 61.08031 24.185113 
L 62.01031 24.431473 
L 62.94031 23.800269 
L 63.87031 23.706556 
" style="fill:none;stroke:#fc8d62;stroke-linecap:square;stroke-width:2;"/>
   </g>
   <g id="line2d_8">
    <path clip-path="url(#p27bab92758)" d="M 10.86031 52.605186 
L 11.79031 53.473751 
L 12.72031 52.193505 
L 13.65031 52.116392 
L 14.58031 52.100692 
L 15.51031 50.639164 
L 16.44031 49.799599 
L 17.37031 48.914472 
L 18.30031 47.924551 
L 19.23031 46.805443 
L 20.16031 46.258863 
L 21.09031 45.963536 
L 22.02031 44.664276 
L 22.95031 44.015612 
L 23.88031 43.960386 
L 24.81031 43.149822 
L 25.74031 43.019786 
L 26.67031 42.845334 
L 27.60031 42.296039 
L 28.53031 41.157582 
L 29.46031 41.058765 
L 30.39031 40.065246 
L 31.32031 39.552753 
L 32.25031 39.066763 
L 33.18031 37.939115 
L 34.11031 38.001023 
L 35.04031 37.417521 
L 35.97031 36.831053 
L 36.90031 36.14968 
L 37.83031 35.559804 
L 38.76031 34.804203 
L 39.69031 34.551033 
L 40.62031 33.769384 
L 41.55031 33.031513 
L 42.48031 32.502831 
L 43.41031 31.6608 
L 44.34031 31.411985 
L 45.27031 31.410302 
L 46.20031 30.808457 
L 47.13031 30.476807 
L 48.06031 29.465896 
L 48.99031 27.863813 
L 49.92031 27.278529 
L 50.85031 27.320924 
L 51.78031 26.93981 
L 52.71031 26.475021 
L 53.64031 26.480796 
L 54.57031 25.295614 
L 55.50031 25.008554 
L 56.43031 24.459186 
L 57.36031 24.332235 
L 58.29031 24.436689 
L 59.22031 23.826656 
L 60.15031 23.19982 
L 61.08031 22.890412 
L 62.01031 22.826719 
L 62.94031 21.653749 
L 63.87031 21.096969 
" style="fill:none;stroke:#fc8d62;stroke-dasharray:1.5,1.5;stroke-dashoffset:0;stroke-opacity:0.7;stroke-width:1.5;"/>
   </g>
   <g id="patch_3">
    <path d="M 9 67.68 
L 9 17.28 
" style="fill:none;stroke:#a9a9a9;stroke-linecap:square;stroke-linejoin:miter;stroke-width:2;"/>
   </g>
   <g id="patch_4">
    <path d="M 64.8 67.68 
L 64.8 17.28 
" style="fill:none;"/>
   </g>
   <g id="patch_5">
    <path d="M 9 67.68 
L 64.8 67.68 
" style="fill:none;stroke:#a9a9a9;stroke-linecap:square;stroke-linejoin:miter;stroke-width:2;"/>
   </g>
   <g id="patch_6">
    <path d="M 9 17.28 
L 64.8 17.28 
" style="fill:none;"/>
   </g>
  </g>
  <g id="axes_2">
   <g id="patch_7">
    <path d="M 9 128.16 
L 64.8 128.16 
L 64.8 77.76 
L 9 77.76 
z
" style="fill:none;"/>
   </g>
   <g id="matplotlib.axis_3">
    <g id="xtick_4">
     <g id="line2d_9">
      <g>
       <use style="fill:#a9a9a9;stroke:#a9a9a9;stroke-width:2;" x="9" xlink:href="#m35cc79b70f" y="128.16"/>
      </g>
     </g>
    </g>
    <g id="xtick_5">
     <g id="line2d_10">
      <g>
       <use style="fill:#a9a9a9;stroke:#a9a9a9;stroke-width:2;" x="36.9" xlink:href="#m35cc79b70f" y="128.16"/>
      </g>
     </g>
    </g>
    <g id="xtick_6">
     <g id="line2d_11">
      <g>
       <use style="fill:#a9a9a9;stroke:#a9a9a9;stroke-width:2;" x="64.8" xlink:href="#m35cc79b70f" y="128.16"/>
      </g>
     </g>
    </g>
   </g>
   <g id="matplotlib.axis_4">
    <g id="ytick_4">
     <g id="line2d_12">
      <g>
       <use style="fill:#a9a9a9;stroke:#a9a9a9;stroke-width:2;" x="9" xlink:href="#m5c078116d9" y="128.16"/>
      </g>
     </g>
    </g>
    <g id="ytick_5">
     <g id="line2d_13">
      <g>
       <use style="fill:#a9a9a9;stroke:#a9a9a9;stroke-width:2;" x="9" xlink:href="#m5c078116d9" y="102.96"/>
      </g>
     </g>
    </g>
    <g id="ytick_6">
     <g id="line2d_14">
      <g>
       <use style="fill:#a9a9a9;stroke:#a9a9a9;stroke-width:2;" x="9" xlink:href="#m5c078116d9" y="77.76"/>
      </g>
     </g>
    </g>
   </g>
   <g id="line2d_15">
    <path clip-path="url(#pdafc1bd3fe)" d="M 10.86031 116.348179 
L 11.79031 113.332403 
L 12.72031 111.305534 
L 13.65031 109.466385 
L 14.58031 107.736884 
L 15.51031 106.414654 
L 16.44031 105.342822 
L 17.37031 104.222082 
L 18.30031 103.479267 
L 19.23031 102.064654 
L 20.16031 101.142984 
L 21.09031 100.17943 
L 22.02031 99.318759 
L 22.95031 98.726196 
L 23.88031 98.123419 
L 24.81031 97.69711 
L 25.74031 97.244739 
L 26.67031 96.895197 
L 27.60031 96.492352 
L 28.53031 95.994898 
L 29.46031 95.978286 
L 30.39031 95.919772 
L 31.32031 95.864736 
L 32.25031 95.459955 
L 33.18031 95.074568 
L 34.11031 94.607175 
L 35.04031 94.412907 
L 35.97031 93.985528 
L 36.90031 93.919498 
L 37.83031 93.641968 
L 38.76031 93.448137 
L 39.69031 93.165822 
L 40.62031 93.009397 
L 41.55031 92.694043 
L 42.48031 92.586758 
L 43.41031 92.534593 
L 44.34031 92.47435 
L 45.27031 92.302579 
L 46.20031 92.058588 
L 47.13031 92.007129 
L 48.06031 91.881115 
L 48.99031 91.898396 
L 49.92031 91.802593 
L 50.85031 91.837456 
L 51.78031 91.6026 
L 52.71031 91.61963 
L 53.64031 91.402674 
L 54.57031 91.243911 
L 55.50031 90.94562 
L 56.43031 90.872864 
L 57.36031 90.782777 
L 58.29031 90.672038 
L 59.22031 90.599732 
L 60.15031 90.635219 
L 61.08031 90.518784 
L 62.01031 90.441103 
L 62.94031 90.378097 
L 63.87031 90.4104 
" style="fill:none;stroke:#fc8d62;stroke-linecap:square;stroke-width:2;"/>
   </g>
   <g id="line2d_16">
    <path clip-path="url(#pdafc1bd3fe)" d="M 10.86031 117.872797 
L 11.79031 114.742247 
L 12.72031 111.948847 
L 13.65031 110.342482 
L 14.58031 109.390711 
L 15.51031 107.051299 
L 16.44031 105.876252 
L 17.37031 104.517347 
L 18.30031 103.422784 
L 19.23031 102.12085 
L 20.16031 101.564095 
L 21.09031 101.435218 
L 22.02031 101.03834 
L 22.95031 100.712518 
L 23.88031 100.387747 
L 24.81031 99.935108 
L 25.74031 99.625504 
L 26.67031 99.229915 
L 27.60031 98.763464 
L 28.53031 98.382605 
L 29.46031 98.143914 
L 30.39031 97.867556 
L 31.32031 97.658939 
L 32.25031 97.462626 
L 33.18031 97.304898 
L 34.11031 97.254893 
L 35.04031 97.21865 
L 35.97031 96.908208 
L 36.90031 96.603378 
L 37.83031 96.220324 
L 38.76031 96.050066 
L 39.69031 95.961961 
L 40.62031 95.736002 
L 41.55031 95.512569 
L 42.48031 95.325538 
L 43.41031 95.189592 
L 44.34031 95.260334 
L 45.27031 95.319505 
L 46.20031 95.1929 
L 47.13031 95.036437 
L 48.06031 94.866155 
L 48.99031 94.767687 
L 49.92031 94.754262 
L 50.85031 94.734475 
L 51.78031 94.572458 
L 52.71031 94.611164 
L 53.64031 94.651804 
L 54.57031 94.638985 
L 55.50031 94.624705 
L 56.43031 94.534845 
L 57.36031 94.39755 
L 58.29031 94.343294 
L 59.22031 94.264111 
L 60.15031 94.227164 
L 61.08031 94.173155 
L 62.01031 94.166795 
L 62.94031 94.101877 
L 63.87031 94.096967 
" style="fill:none;stroke:#fc8d62;stroke-dasharray:1.5,1.5;stroke-dashoffset:0;stroke-opacity:0.7;stroke-width:1.5;"/>
   </g>
   <g id="patch_8">
    <path d="M 9 128.16 
L 9 77.76 
" style="fill:none;stroke:#a9a9a9;stroke-linecap:square;stroke-linejoin:miter;stroke-width:2;"/>
   </g>
   <g id="patch_9">
    <path d="M 64.8 128.16 
L 64.8 77.76 
" style="fill:none;"/>
   </g>
   <g id="patch_10">
    <path d="M 9 128.16 
L 64.8 128.16 
" style="fill:none;stroke:#a9a9a9;stroke-linecap:square;stroke-linejoin:miter;stroke-width:2;"/>
   </g>
   <g id="patch_11">
    <path d="M 9 77.76 
L 64.8 77.76 
" style="fill:none;"/>
   </g>
  </g>
 </g>
 <defs>
  <clipPath id="p27bab92758">
   <rect height="50.4" width="55.8" x="9" y="17.28"/>
  </clipPath>
  <clipPath id="pdafc1bd3fe">
   <rect height="50.4" width="55.8" x="9" y="77.76"/>
  </clipPath>
 </defs>
</svg>
