<?xml version="1.0" encoding="utf-8" standalone="no"?>
<!DOCTYPE svg PUBLIC "-//W3C//DTD SVG 1.1//EN"
  "http://www.w3.org/Graphics/SVG/1.1/DTD/svg11.dtd">
<!-- Created with matplotlib (https://matplotlib.org/) -->
<svg height="144pt" version="1.1" viewBox="0 0 72 144" width="72pt" xmlns="http://www.w3.org/2000/svg" xmlns:xlink="http://www.w3.org/1999/xlink">
 <metadata>
  <rdf:RDF xmlns:cc="http://creativecommons.org/ns#" xmlns:dc="http://purl.org/dc/elements/1.1/" xmlns:rdf="http://www.w3.org/1999/02/22-rdf-syntax-ns#">
   <cc:Work>
    <dc:type rdf:resource="http://purl.org/dc/dcmitype/StillImage"/>
    <dc:date>2021-10-14T20:27:37.043761</dc:date>
    <dc:format>image/svg+xml</dc:format>
    <dc:creator>
     <cc:Agent>
      <dc:title>Matplotlib v3.3.2, https://matplotlib.org/</dc:title>
     </cc:Agent>
    </dc:creator>
   </cc:Work>
  </rdf:RDF>
 </metadata>
 <defs>
  <style type="text/css">*{stroke-linecap:butt;stroke-linejoin:round;}</style>
 </defs>
 <g id="figure_1">
  <g id="patch_1">
   <path d="M 0 144 
L 72 144 
L 72 0 
L 0 0 
z
" style="fill:none;"/>
  </g>
  <g id="axes_1">
   <g id="patch_2">
    <path d="M 9 67.68 
L 64.8 67.68 
L 64.8 17.28 
L 9 17.28 
z
" style="fill:none;"/>
   </g>
   <g id="matplotlib.axis_1">
    <g id="xtick_1">
     <g id="line2d_1">
      <defs>
       <path d="M 0 0 
L 0 3.5 
" id="mdc4dcfe56d" style="stroke:#a9a9a9;stroke-width:2;"/>
      </defs>
      <g>
       <use style="fill:#a9a9a9;stroke:#a9a9a9;stroke-width:2;" x="9" xlink:href="#mdc4dcfe56d" y="67.68"/>
      </g>
     </g>
    </g>
    <g id="xtick_2">
     <g id="line2d_2">
      <g>
       <use style="fill:#a9a9a9;stroke:#a9a9a9;stroke-width:2;" x="36.9" xlink:href="#mdc4dcfe56d" y="67.68"/>
      </g>
     </g>
    </g>
    <g id="xtick_3">
     <g id="line2d_3">
      <g>
       <use style="fill:#a9a9a9;stroke:#a9a9a9;stroke-width:2;" x="64.8" xlink:href="#mdc4dcfe56d" y="67.68"/>
      </g>
     </g>
    </g>
   </g>
   <g id="matplotlib.axis_2">
    <g id="ytick_1">
     <g id="line2d_4">
      <defs>
       <path d="M 0 0 
L -3.5 0 
" id="me911121d5b" style="stroke:#a9a9a9;stroke-width:2;"/>
      </defs>
      <g>
       <use style="fill:#a9a9a9;stroke:#a9a9a9;stroke-width:2;" x="9" xlink:href="#me911121d5b" y="67.68"/>
      </g>
     </g>
    </g>
    <g id="ytick_2">
     <g id="line2d_5">
      <g>
       <use style="fill:#a9a9a9;stroke:#a9a9a9;stroke-width:2;" x="9" xlink:href="#me911121d5b" y="50.644816"/>
      </g>
     </g>
    </g>
    <g id="ytick_3">
     <g id="line2d_6">
      <g>
       <use style="fill:#a9a9a9;stroke:#a9a9a9;stroke-width:2;" x="9" xlink:href="#me911121d5b" y="33.609632"/>
      </g>
     </g>
    </g>
   </g>
   <g id="line2d_7">
    <path clip-path="url(#pdf5679e102)" d="M 10.860031 57.1847 
L 11.790031 55.721193 
L 12.720031 53.655468 
L 13.650031 52.715104 
L 14.580031 51.25345 
L 15.510031 49.514582 
L 16.440031 48.46471 
L 17.370031 47.209219 
L 18.300031 46.258183 
L 19.230031 46.516952 
L 20.160031 45.96171 
L 21.090031 45.799649 
L 22.020031 45.023895 
L 22.950031 44.228039 
L 23.880031 43.678682 
L 24.810031 42.917837 
L 25.740031 41.992617 
L 26.670031 41.044025 
L 27.600031 39.837134 
L 28.530031 38.766953 
L 29.460031 38.306396 
L 30.390031 37.736481 
L 31.320031 36.736361 
L 32.250031 36.325295 
L 33.180031 35.584354 
L 34.110031 34.811451 
L 35.040031 34.608084 
L 35.970031 33.962396 
L 36.900031 33.252821 
L 37.830031 32.330307 
L 38.760031 31.461792 
L 39.690031 30.36017 
L 40.620031 29.776338 
L 41.550031 29.483113 
L 42.480031 29.574643 
L 43.410031 29.020595 
L 44.340031 28.441982 
L 45.270031 27.149038 
L 46.200031 27.196177 
L 47.130031 26.614589 
L 48.060031 26.397147 
L 48.990031 26.281168 
L 49.920031 25.388317 
L 50.850031 24.606957 
L 51.780031 23.873912 
L 52.710031 22.626041 
L 53.640031 22.251482 
L 54.570031 21.798893 
L 55.500031 21.242557 
L 56.430031 20.529081 
L 57.360031 20.095012 
L 58.290031 19.81328 
L 59.220031 19.839197 
L 60.150031 19.118362 
L 61.080031 18.805893 
L 62.010031 18.292022 
L 62.940031 18.131759 
L 63.870031 18.437165 
" style="fill:none;stroke:#fc8d62;stroke-linecap:square;stroke-width:2;"/>
   </g>
   <g id="line2d_8">
    <path clip-path="url(#pdf5679e102)" d="M 10.860031 56.551254 
L 11.790031 54.370885 
L 12.720031 51.962476 
L 13.650031 50.15177 
L 14.580031 49.354474 
L 15.510031 47.565174 
L 16.440031 45.801366 
L 17.370031 44.80546 
L 18.300031 43.971636 
L 19.230031 42.564955 
L 20.160031 41.834337 
L 21.090031 40.639252 
L 22.020031 39.432946 
L 22.950031 38.479442 
L 23.880031 37.301888 
L 24.810031 36.746253 
L 25.740031 35.724515 
L 26.670031 34.224714 
L 27.600031 34.017121 
L 28.530031 33.297666 
L 29.460031 32.748292 
L 30.390031 32.032894 
L 31.320031 30.823734 
L 32.250031 30.168568 
L 33.180031 30.043883 
L 34.110031 29.944399 
L 35.040031 29.263569 
L 35.970031 29.16463 
L 36.900031 28.724618 
L 37.830031 27.648993 
L 38.760031 27.659249 
L 39.690031 27.0687 
L 40.620031 26.222523 
L 41.550031 25.778376 
L 42.480031 25.765379 
L 43.410031 24.831553 
L 44.340031 23.735771 
L 45.270031 23.214192 
L 46.200031 22.161936 
L 47.130031 21.827467 
L 48.060031 21.193492 
L 48.990031 20.628421 
L 49.920031 19.686945 
L 50.850031 19.745468 
L 51.780031 19.268911 
L 52.710031 19.319907 
L 53.640031 18.923774 
L 54.570031 18.524351 
L 55.500031 17.894114 
L 56.430031 16.768565 
L 57.360031 16.709577 
L 58.290031 15.543834 
L 59.220031 14.983396 
L 60.150031 14.534315 
L 61.080031 13.605018 
L 62.010031 13.459268 
L 62.940031 12.631982 
L 63.870031 11.758593 
" style="fill:none;stroke:#fc8d62;stroke-dasharray:1.5,1.5;stroke-dashoffset:0;stroke-opacity:0.7;stroke-width:1.5;"/>
   </g>
   <g id="patch_3">
    <path d="M 9 67.68 
L 9 17.28 
" style="fill:none;stroke:#a9a9a9;stroke-linecap:square;stroke-linejoin:miter;stroke-width:2;"/>
   </g>
   <g id="patch_4">
    <path d="M 64.8 67.68 
L 64.8 17.28 
" style="fill:none;"/>
   </g>
   <g id="patch_5">
    <path d="M 9 67.68 
L 64.8 67.68 
" style="fill:none;stroke:#a9a9a9;stroke-linecap:square;stroke-linejoin:miter;stroke-width:2;"/>
   </g>
   <g id="patch_6">
    <path d="M 9 17.28 
L 64.8 17.28 
" style="fill:none;"/>
   </g>
  </g>
  <g id="axes_2">
   <g id="patch_7">
    <path d="M 9 128.16 
L 64.8 128.16 
L 64.8 77.76 
L 9 77.76 
z
" style="fill:none;"/>
   </g>
   <g id="matplotlib.axis_3">
    <g id="xtick_4">
     <g id="line2d_9">
      <g>
       <use style="fill:#a9a9a9;stroke:#a9a9a9;stroke-width:2;" x="9" xlink:href="#mdc4dcfe56d" y="128.16"/>
      </g>
     </g>
    </g>
    <g id="xtick_5">
     <g id="line2d_10">
      <g>
       <use style="fill:#a9a9a9;stroke:#a9a9a9;stroke-width:2;" x="36.9" xlink:href="#mdc4dcfe56d" y="128.16"/>
      </g>
     </g>
    </g>
    <g id="xtick_6">
     <g id="line2d_11">
      <g>
       <use style="fill:#a9a9a9;stroke:#a9a9a9;stroke-width:2;" x="64.8" xlink:href="#mdc4dcfe56d" y="128.16"/>
      </g>
     </g>
    </g>
   </g>
   <g id="matplotlib.axis_4">
    <g id="ytick_4">
     <g id="line2d_12">
      <g>
       <use style="fill:#a9a9a9;stroke:#a9a9a9;stroke-width:2;" x="9" xlink:href="#me911121d5b" y="128.16"/>
      </g>
     </g>
    </g>
    <g id="ytick_5">
     <g id="line2d_13">
      <g>
       <use style="fill:#a9a9a9;stroke:#a9a9a9;stroke-width:2;" x="9" xlink:href="#me911121d5b" y="102.96"/>
      </g>
     </g>
    </g>
    <g id="ytick_6">
     <g id="line2d_14">
      <g>
       <use style="fill:#a9a9a9;stroke:#a9a9a9;stroke-width:2;" x="9" xlink:href="#me911121d5b" y="77.76"/>
      </g>
     </g>
    </g>
   </g>
   <g id="line2d_15">
    <path clip-path="url(#p5ddb1c1443)" d="M 10.860031 121.076361 
L 11.790031 119.3687 
L 12.720031 118.277331 
L 13.650031 116.406316 
L 14.580031 116.609955 
L 15.510031 116.185589 
L 16.440031 115.985981 
L 17.370031 115.712855 
L 18.300031 115.255256 
L 19.230031 114.857744 
L 20.160031 114.750505 
L 21.090031 114.61731 
L 22.020031 114.561119 
L 22.950031 114.320924 
L 23.880031 114.109569 
L 24.810031 113.900518 
L 25.740031 113.945326 
L 26.670031 114.006144 
L 27.600031 113.953458 
L 28.530031 113.744658 
L 29.460031 113.533958 
L 30.390031 113.406587 
L 31.320031 113.240299 
L 32.250031 113.101913 
L 33.180031 113.09271 
L 34.110031 113.010986 
L 35.040031 112.906062 
L 35.970031 112.715769 
L 36.900031 112.652673 
L 37.830031 112.677543 
L 38.760031 112.620573 
L 39.690031 112.571613 
L 40.620031 112.651405 
L 41.550031 112.647046 
L 42.480031 112.529697 
L 43.410031 112.526916 
L 44.340031 112.471034 
L 45.270031 112.487971 
L 46.200031 112.428859 
L 47.130031 112.448614 
L 48.060031 112.484015 
L 48.990031 112.343802 
L 49.920031 112.356447 
L 50.850031 112.332298 
L 51.780031 112.306163 
L 52.710031 112.300612 
L 53.640031 112.363656 
L 54.570031 112.340008 
L 55.500031 112.281507 
L 56.430031 112.314057 
L 57.360031 112.283526 
L 58.290031 112.255234 
L 59.220031 112.254167 
L 60.150031 112.162822 
L 61.080031 112.12777 
L 62.010031 112.115025 
L 62.940031 112.109451 
L 63.870031 112.118644 
" style="fill:none;stroke:#fc8d62;stroke-linecap:square;stroke-width:2;"/>
   </g>
   <g id="line2d_16">
    <path clip-path="url(#p5ddb1c1443)" d="M 10.860031 107.807798 
L 11.790031 104.557358 
L 12.720031 101.190637 
L 13.650031 99.506287 
L 14.580031 98.682568 
L 15.510031 98.004085 
L 16.440031 97.589711 
L 17.370031 96.94844 
L 18.300031 96.835638 
L 19.230031 96.182531 
L 20.160031 95.843535 
L 21.090031 95.673456 
L 22.020031 95.547449 
L 22.950031 95.521463 
L 23.880031 95.225171 
L 24.810031 94.992439 
L 25.740031 94.778006 
L 26.670031 94.622871 
L 27.600031 94.417031 
L 28.530031 94.236888 
L 29.460031 94.10873 
L 30.390031 93.902234 
L 31.320031 93.687439 
L 32.250031 93.72072 
L 33.180031 93.778619 
L 34.110031 93.718552 
L 35.040031 93.660295 
L 35.970031 93.602643 
L 36.900031 93.570224 
L 37.830031 93.492547 
L 38.760031 93.490158 
L 39.690031 93.322851 
L 40.620031 93.310556 
L 41.550031 93.258002 
L 42.480031 93.188932 
L 43.410031 93.150557 
L 44.340031 93.153233 
L 45.270031 93.117398 
L 46.200031 92.96959 
L 47.130031 92.931303 
L 48.060031 92.849374 
L 48.990031 92.793172 
L 49.920031 92.698283 
L 50.850031 92.642937 
L 51.780031 92.602314 
L 52.710031 92.611642 
L 53.640031 92.568409 
L 54.570031 92.582198 
L 55.500031 92.550576 
L 56.430031 92.532916 
L 57.360031 92.515758 
L 58.290031 92.451557 
L 59.220031 92.424565 
L 60.150031 92.408544 
L 61.080031 92.371811 
L 62.010031 92.324896 
L 62.940031 92.345894 
L 63.870031 92.292011 
" style="fill:none;stroke:#fc8d62;stroke-dasharray:1.5,1.5;stroke-dashoffset:0;stroke-opacity:0.7;stroke-width:1.5;"/>
   </g>
   <g id="patch_8">
    <path d="M 9 128.16 
L 9 77.76 
" style="fill:none;stroke:#a9a9a9;stroke-linecap:square;stroke-linejoin:miter;stroke-width:2;"/>
   </g>
   <g id="patch_9">
    <path d="M 64.8 128.16 
L 64.8 77.76 
" style="fill:none;"/>
   </g>
   <g id="patch_10">
    <path d="M 9 128.16 
L 64.8 128.16 
" style="fill:none;stroke:#a9a9a9;stroke-linecap:square;stroke-linejoin:miter;stroke-width:2;"/>
   </g>
   <g id="patch_11">
    <path d="M 9 77.76 
L 64.8 77.76 
" style="fill:none;"/>
   </g>
  </g>
 </g>
 <defs>
  <clipPath id="pdf5679e102">
   <rect height="50.4" width="55.8" x="9" y="17.28"/>
  </clipPath>
  <clipPath id="p5ddb1c1443">
   <rect height="50.4" width="55.8" x="9" y="77.76"/>
  </clipPath>
 </defs>
</svg>
