<?xml version="1.0" encoding="utf-8" standalone="no"?>
<!DOCTYPE svg PUBLIC "-//W3C//DTD SVG 1.1//EN"
  "http://www.w3.org/Graphics/SVG/1.1/DTD/svg11.dtd">
<!-- Created with matplotlib (https://matplotlib.org/) -->
<svg height="144pt" version="1.1" viewBox="0 0 72 144" width="72pt" xmlns="http://www.w3.org/2000/svg" xmlns:xlink="http://www.w3.org/1999/xlink">
 <metadata>
  <rdf:RDF xmlns:cc="http://creativecommons.org/ns#" xmlns:dc="http://purl.org/dc/elements/1.1/" xmlns:rdf="http://www.w3.org/1999/02/22-rdf-syntax-ns#">
   <cc:Work>
    <dc:type rdf:resource="http://purl.org/dc/dcmitype/StillImage"/>
    <dc:date>2021-10-13T15:54:14.725163</dc:date>
    <dc:format>image/svg+xml</dc:format>
    <dc:creator>
     <cc:Agent>
      <dc:title>Matplotlib v3.3.2, https://matplotlib.org/</dc:title>
     </cc:Agent>
    </dc:creator>
   </cc:Work>
  </rdf:RDF>
 </metadata>
 <defs>
  <style type="text/css">*{stroke-linecap:butt;stroke-linejoin:round;}</style>
 </defs>
 <g id="figure_1">
  <g id="patch_1">
   <path d="M 0 144 
L 72 144 
L 72 0 
L 0 0 
z
" style="fill:none;"/>
  </g>
  <g id="axes_1">
   <g id="patch_2">
    <path d="M 9 67.68 
L 64.8 67.68 
L 64.8 17.28 
L 9 17.28 
z
" style="fill:none;"/>
   </g>
   <g id="matplotlib.axis_1">
    <g id="xtick_1">
     <g id="line2d_1">
      <defs>
       <path d="M 0 0 
L 0 3.5 
" id="m8bc3cb1ec3" style="stroke:#a9a9a9;stroke-width:2;"/>
      </defs>
      <g>
       <use style="fill:#a9a9a9;stroke:#a9a9a9;stroke-width:2;" x="9" xlink:href="#m8bc3cb1ec3" y="67.68"/>
      </g>
     </g>
    </g>
    <g id="xtick_2">
     <g id="line2d_2">
      <g>
       <use style="fill:#a9a9a9;stroke:#a9a9a9;stroke-width:2;" x="36.9" xlink:href="#m8bc3cb1ec3" y="67.68"/>
      </g>
     </g>
    </g>
    <g id="xtick_3">
     <g id="line2d_3">
      <g>
       <use style="fill:#a9a9a9;stroke:#a9a9a9;stroke-width:2;" x="64.8" xlink:href="#m8bc3cb1ec3" y="67.68"/>
      </g>
     </g>
    </g>
   </g>
   <g id="matplotlib.axis_2">
    <g id="ytick_1">
     <g id="line2d_4">
      <defs>
       <path d="M 0 0 
L -3.5 0 
" id="m157301fa43" style="stroke:#a9a9a9;stroke-width:2;"/>
      </defs>
      <g>
       <use style="fill:#a9a9a9;stroke:#a9a9a9;stroke-width:2;" x="9" xlink:href="#m157301fa43" y="67.68"/>
      </g>
     </g>
    </g>
    <g id="ytick_2">
     <g id="line2d_5">
      <g>
       <use style="fill:#a9a9a9;stroke:#a9a9a9;stroke-width:2;" x="9" xlink:href="#m157301fa43" y="61.833977"/>
      </g>
     </g>
    </g>
    <g id="ytick_3">
     <g id="line2d_6">
      <g>
       <use style="fill:#a9a9a9;stroke:#a9a9a9;stroke-width:2;" x="9" xlink:href="#m157301fa43" y="55.987954"/>
      </g>
     </g>
    </g>
   </g>
   <g id="line2d_7">
    <path clip-path="url(#p52cbc1d63a)" d="M 10.86031 58.103354 
L 11.79031 56.502514 
L 12.72031 55.214933 
L 13.65031 53.808645 
L 14.58031 52.171099 
L 15.51031 51.105222 
L 16.44031 49.615219 
L 17.37031 48.518039 
L 18.30031 47.457719 
L 19.23031 47.095586 
L 20.16031 45.73805 
L 21.09031 44.069409 
L 22.02031 42.948788 
L 22.95031 42.142831 
L 23.88031 40.879925 
L 24.81031 39.472549 
L 25.74031 38.750909 
L 26.67031 38.36374 
L 27.60031 37.358108 
L 28.53031 35.900962 
L 29.46031 34.876648 
L 30.39031 34.327495 
L 31.32031 32.897501 
L 32.25031 31.897947 
L 33.18031 31.612403 
L 34.11031 31.517094 
L 35.04031 30.815538 
L 35.97031 29.932803 
L 36.90031 28.713633 
L 37.83031 27.768545 
L 38.76031 27.191765 
L 39.69031 27.066535 
L 40.62031 26.347024 
L 41.55031 26.03268 
L 42.48031 25.616098 
L 43.41031 25.298481 
L 44.34031 25.037829 
L 45.27031 25.403743 
L 46.20031 25.151488 
L 47.13031 24.549511 
L 48.06031 25.044861 
L 48.99031 24.766389 
L 49.92031 24.05721 
L 50.85031 23.296012 
L 51.78031 23.410574 
L 52.71031 23.385767 
L 53.64031 22.627202 
L 54.57031 21.396072 
L 55.50031 21.140299 
L 56.43031 20.729334 
L 57.36031 20.49155 
L 58.29031 19.45442 
L 59.22031 18.734377 
L 60.15031 18.425371 
L 61.08031 17.732693 
L 62.01031 17.819861 
L 62.94031 17.572301 
L 63.87031 17.726761 
" style="fill:none;stroke:#fc8d62;stroke-linecap:square;stroke-width:2;"/>
   </g>
   <g id="line2d_8">
    <path clip-path="url(#p52cbc1d63a)" d="M 10.86031 58.043638 
L 11.79031 56.145179 
L 12.72031 54.241784 
L 13.65031 52.903705 
L 14.58031 51.185951 
L 15.51031 49.541787 
L 16.44031 48.74415 
L 17.37031 47.232805 
L 18.30031 45.555278 
L 19.23031 44.698732 
L 20.16031 43.753507 
L 21.09031 42.931722 
L 22.02031 41.595204 
L 22.95031 40.432025 
L 23.88031 39.11403 
L 24.81031 38.020967 
L 25.74031 37.253871 
L 26.67031 37.020728 
L 27.60031 36.125323 
L 28.53031 35.106037 
L 29.46031 34.109083 
L 30.39031 33.045731 
L 31.32031 32.5536 
L 32.25031 32.111021 
L 33.18031 31.621273 
L 34.11031 31.487719 
L 35.04031 30.914427 
L 35.97031 29.843858 
L 36.90031 28.513052 
L 37.83031 27.630356 
L 38.76031 27.287108 
L 39.69031 26.565389 
L 40.62031 25.467301 
L 41.55031 24.764897 
L 42.48031 24.121323 
L 43.41031 24.098138 
L 44.34031 23.868027 
L 45.27031 23.40379 
L 46.20031 23.183864 
L 47.13031 21.77375 
L 48.06031 20.998427 
L 48.99031 20.915607 
L 49.92031 20.317928 
L 50.85031 19.857061 
L 51.78031 18.69405 
L 52.71031 18.752374 
L 53.64031 17.949531 
L 54.57031 17.190155 
L 55.50031 17.344658 
L 56.43031 16.669706 
L 57.36031 16.159138 
L 58.29031 16.497959 
L 59.22031 16.50531 
L 60.15031 16.763226 
L 61.08031 16.782835 
L 62.01031 16.267778 
L 62.94031 16.18004 
L 63.87031 16.12927 
" style="fill:none;stroke:#fc8d62;stroke-dasharray:1.5,1.5;stroke-dashoffset:0;stroke-opacity:0.7;stroke-width:1.5;"/>
   </g>
   <g id="patch_3">
    <path d="M 9 67.68 
L 9 17.28 
" style="fill:none;stroke:#a9a9a9;stroke-linecap:square;stroke-linejoin:miter;stroke-width:2;"/>
   </g>
   <g id="patch_4">
    <path d="M 64.8 67.68 
L 64.8 17.28 
" style="fill:none;"/>
   </g>
   <g id="patch_5">
    <path d="M 9 67.68 
L 64.8 67.68 
" style="fill:none;stroke:#a9a9a9;stroke-linecap:square;stroke-linejoin:miter;stroke-width:2;"/>
   </g>
   <g id="patch_6">
    <path d="M 9 17.28 
L 64.8 17.28 
" style="fill:none;"/>
   </g>
  </g>
  <g id="axes_2">
   <g id="patch_7">
    <path d="M 9 128.16 
L 64.8 128.16 
L 64.8 77.76 
L 9 77.76 
z
" style="fill:none;"/>
   </g>
   <g id="matplotlib.axis_3">
    <g id="xtick_4">
     <g id="line2d_9">
      <g>
       <use style="fill:#a9a9a9;stroke:#a9a9a9;stroke-width:2;" x="9" xlink:href="#m8bc3cb1ec3" y="128.16"/>
      </g>
     </g>
    </g>
    <g id="xtick_5">
     <g id="line2d_10">
      <g>
       <use style="fill:#a9a9a9;stroke:#a9a9a9;stroke-width:2;" x="36.9" xlink:href="#m8bc3cb1ec3" y="128.16"/>
      </g>
     </g>
    </g>
    <g id="xtick_6">
     <g id="line2d_11">
      <g>
       <use style="fill:#a9a9a9;stroke:#a9a9a9;stroke-width:2;" x="64.8" xlink:href="#m8bc3cb1ec3" y="128.16"/>
      </g>
     </g>
    </g>
   </g>
   <g id="matplotlib.axis_4">
    <g id="ytick_4">
     <g id="line2d_12">
      <g>
       <use style="fill:#a9a9a9;stroke:#a9a9a9;stroke-width:2;" x="9" xlink:href="#m157301fa43" y="128.16"/>
      </g>
     </g>
    </g>
    <g id="ytick_5">
     <g id="line2d_13">
      <g>
       <use style="fill:#a9a9a9;stroke:#a9a9a9;stroke-width:2;" x="9" xlink:href="#m157301fa43" y="102.96"/>
      </g>
     </g>
    </g>
    <g id="ytick_6">
     <g id="line2d_14">
      <g>
       <use style="fill:#a9a9a9;stroke:#a9a9a9;stroke-width:2;" x="9" xlink:href="#m157301fa43" y="77.76"/>
      </g>
     </g>
    </g>
   </g>
   <g id="line2d_15">
    <path clip-path="url(#pd9e0674204)" d="M 10.86031 104.286778 
L 11.79031 103.104041 
L 12.72031 103.031813 
L 13.65031 102.974886 
L 14.58031 102.399286 
L 15.51031 102.404426 
L 16.44031 102.138351 
L 17.37031 102.01481 
L 18.30031 101.972668 
L 19.23031 101.967873 
L 20.16031 102.074064 
L 21.09031 102.077853 
L 22.02031 102.110072 
L 22.95031 102.097278 
L 23.88031 102.07283 
L 24.81031 101.96471 
L 25.74031 101.856407 
L 26.67031 101.854777 
L 27.60031 101.832413 
L 28.53031 101.772822 
L 29.46031 101.746449 
L 30.39031 101.710586 
L 31.32031 101.679324 
L 32.25031 101.724267 
L 33.18031 101.732332 
L 34.11031 101.754313 
L 35.04031 101.73444 
L 35.97031 101.707201 
L 36.90031 101.694675 
L 37.83031 101.717816 
L 38.76031 101.729201 
L 39.69031 101.679905 
L 40.62031 101.633833 
L 41.55031 101.613086 
L 42.48031 101.599895 
L 43.41031 101.604058 
L 44.34031 101.569322 
L 45.27031 101.548265 
L 46.20031 101.540916 
L 47.13031 101.608546 
L 48.06031 101.65212 
L 48.99031 101.63104 
L 49.92031 101.642644 
L 50.85031 101.617901 
L 51.78031 101.648361 
L 52.71031 101.626226 
L 53.64031 101.6231 
L 54.57031 101.628003 
L 55.50031 101.662395 
L 56.43031 101.641499 
L 57.36031 101.648099 
L 58.29031 101.660775 
L 59.22031 101.672493 
L 60.15031 101.667157 
L 61.08031 101.672032 
L 62.01031 101.668027 
L 62.94031 101.675289 
L 63.87031 101.689122 
" style="fill:none;stroke:#fc8d62;stroke-linecap:square;stroke-width:2;"/>
   </g>
   <g id="line2d_16">
    <path clip-path="url(#pd9e0674204)" d="M 10.86031 95.545878 
L 11.79031 94.480439 
L 12.72031 94.177021 
L 13.65031 93.875225 
L 14.58031 93.559271 
L 15.51031 93.280704 
L 16.44031 93.229082 
L 17.37031 93.121497 
L 18.30031 92.985236 
L 19.23031 93.023398 
L 20.16031 92.939809 
L 21.09031 92.873531 
L 22.02031 92.867953 
L 22.95031 92.835935 
L 23.88031 92.80647 
L 24.81031 92.784621 
L 25.74031 92.760132 
L 26.67031 92.79385 
L 27.60031 92.738008 
L 28.53031 92.718757 
L 29.46031 92.668952 
L 30.39031 92.677934 
L 31.32031 92.670563 
L 32.25031 92.629806 
L 33.18031 92.618386 
L 34.11031 92.619413 
L 35.04031 92.604819 
L 35.97031 92.571212 
L 36.90031 92.559879 
L 37.83031 92.536638 
L 38.76031 92.527204 
L 39.69031 92.544647 
L 40.62031 92.522902 
L 41.55031 92.528713 
L 42.48031 92.529786 
L 43.41031 92.546168 
L 44.34031 92.539534 
L 45.27031 92.507154 
L 46.20031 92.521879 
L 47.13031 92.487457 
L 48.06031 92.471145 
L 48.99031 92.460629 
L 49.92031 92.468297 
L 50.85031 92.469538 
L 51.78031 92.456605 
L 52.71031 92.446064 
L 53.64031 92.440497 
L 54.57031 92.447293 
L 55.50031 92.443987 
L 56.43031 92.430587 
L 57.36031 92.422264 
L 58.29031 92.436047 
L 59.22031 92.446782 
L 60.15031 92.438989 
L 61.08031 92.426563 
L 62.01031 92.42786 
L 62.94031 92.415764 
L 63.87031 92.401496 
" style="fill:none;stroke:#fc8d62;stroke-dasharray:1.5,1.5;stroke-dashoffset:0;stroke-opacity:0.7;stroke-width:1.5;"/>
   </g>
   <g id="patch_8">
    <path d="M 9 128.16 
L 9 77.76 
" style="fill:none;stroke:#a9a9a9;stroke-linecap:square;stroke-linejoin:miter;stroke-width:2;"/>
   </g>
   <g id="patch_9">
    <path d="M 64.8 128.16 
L 64.8 77.76 
" style="fill:none;"/>
   </g>
   <g id="patch_10">
    <path d="M 9 128.16 
L 64.8 128.16 
" style="fill:none;stroke:#a9a9a9;stroke-linecap:square;stroke-linejoin:miter;stroke-width:2;"/>
   </g>
   <g id="patch_11">
    <path d="M 9 77.76 
L 64.8 77.76 
" style="fill:none;"/>
   </g>
  </g>
 </g>
 <defs>
  <clipPath id="p52cbc1d63a">
   <rect height="50.4" width="55.8" x="9" y="17.28"/>
  </clipPath>
  <clipPath id="pd9e0674204">
   <rect height="50.4" width="55.8" x="9" y="77.76"/>
  </clipPath>
 </defs>
</svg>
