<?xml version="1.0" encoding="utf-8" standalone="no"?>
<!DOCTYPE svg PUBLIC "-//W3C//DTD SVG 1.1//EN"
  "http://www.w3.org/Graphics/SVG/1.1/DTD/svg11.dtd">
<!-- Created with matplotlib (https://matplotlib.org/) -->
<svg height="144pt" version="1.1" viewBox="0 0 72 144" width="72pt" xmlns="http://www.w3.org/2000/svg" xmlns:xlink="http://www.w3.org/1999/xlink">
 <metadata>
  <rdf:RDF xmlns:cc="http://creativecommons.org/ns#" xmlns:dc="http://purl.org/dc/elements/1.1/" xmlns:rdf="http://www.w3.org/1999/02/22-rdf-syntax-ns#">
   <cc:Work>
    <dc:type rdf:resource="http://purl.org/dc/dcmitype/StillImage"/>
    <dc:date>2021-10-14T18:45:27.352595</dc:date>
    <dc:format>image/svg+xml</dc:format>
    <dc:creator>
     <cc:Agent>
      <dc:title>Matplotlib v3.3.2, https://matplotlib.org/</dc:title>
     </cc:Agent>
    </dc:creator>
   </cc:Work>
  </rdf:RDF>
 </metadata>
 <defs>
  <style type="text/css">*{stroke-linecap:butt;stroke-linejoin:round;}</style>
 </defs>
 <g id="figure_1">
  <g id="patch_1">
   <path d="M 0 144 
L 72 144 
L 72 0 
L 0 0 
z
" style="fill:none;"/>
  </g>
  <g id="axes_1">
   <g id="patch_2">
    <path d="M 9 67.68 
L 64.8 67.68 
L 64.8 17.28 
L 9 17.28 
z
" style="fill:none;"/>
   </g>
   <g id="matplotlib.axis_1">
    <g id="xtick_1">
     <g id="line2d_1">
      <defs>
       <path d="M 0 0 
L 0 3.5 
" id="m5125bb952c" style="stroke:#a9a9a9;stroke-width:2;"/>
      </defs>
      <g>
       <use style="fill:#a9a9a9;stroke:#a9a9a9;stroke-width:2;" x="9" xlink:href="#m5125bb952c" y="67.68"/>
      </g>
     </g>
    </g>
    <g id="xtick_2">
     <g id="line2d_2">
      <g>
       <use style="fill:#a9a9a9;stroke:#a9a9a9;stroke-width:2;" x="36.9" xlink:href="#m5125bb952c" y="67.68"/>
      </g>
     </g>
    </g>
    <g id="xtick_3">
     <g id="line2d_3">
      <g>
       <use style="fill:#a9a9a9;stroke:#a9a9a9;stroke-width:2;" x="64.8" xlink:href="#m5125bb952c" y="67.68"/>
      </g>
     </g>
    </g>
   </g>
   <g id="matplotlib.axis_2">
    <g id="ytick_1">
     <g id="line2d_4">
      <defs>
       <path d="M 0 0 
L -3.5 0 
" id="mde656929fd" style="stroke:#a9a9a9;stroke-width:2;"/>
      </defs>
      <g>
       <use style="fill:#a9a9a9;stroke:#a9a9a9;stroke-width:2;" x="9" xlink:href="#mde656929fd" y="67.68"/>
      </g>
     </g>
    </g>
    <g id="ytick_2">
     <g id="line2d_5">
      <g>
       <use style="fill:#a9a9a9;stroke:#a9a9a9;stroke-width:2;" x="9" xlink:href="#mde656929fd" y="42.48"/>
      </g>
     </g>
    </g>
    <g id="ytick_3">
     <g id="line2d_6">
      <g>
       <use style="fill:#a9a9a9;stroke:#a9a9a9;stroke-width:2;" x="9" xlink:href="#mde656929fd" y="17.28"/>
      </g>
     </g>
    </g>
   </g>
   <g id="line2d_7">
    <path clip-path="url(#pad45a8db6d)" d="M 10.860031 53.917851 
L 11.790031 55.506417 
L 12.720031 55.381339 
L 13.650031 55.505705 
L 14.580031 55.462262 
L 15.510031 55.783573 
L 16.440031 55.761045 
L 17.370031 55.880073 
L 18.300031 55.745249 
L 19.230031 55.986935 
L 20.160031 55.810216 
L 21.090031 55.951813 
L 22.020031 55.448094 
L 22.950031 55.896996 
L 23.880031 55.722922 
L 24.810031 55.326612 
L 25.740031 55.26273 
L 26.670031 55.127845 
L 27.600031 54.641532 
L 28.530031 54.90641 
L 29.460031 54.798542 
L 30.390031 54.857686 
L 31.320031 54.710884 
L 32.250031 54.848399 
L 33.180031 54.463863 
L 34.110031 54.291361 
L 35.040031 54.136349 
L 35.970031 54.04959 
L 36.900031 53.262114 
L 37.830031 52.646509 
L 38.760031 52.638335 
L 39.690031 52.614831 
L 40.620031 52.432312 
L 41.550031 52.250152 
L 42.480031 52.013522 
L 43.410031 51.956539 
L 44.340031 51.702582 
L 45.270031 51.748732 
L 46.200031 51.58955 
L 47.130031 51.663181 
L 48.060031 51.615947 
L 48.990031 51.510151 
L 49.920031 51.339061 
L 50.850031 51.159135 
L 51.780031 50.895331 
L 52.710031 50.81552 
L 53.640031 50.752039 
L 54.570031 50.771487 
L 55.500031 50.772928 
L 56.430031 50.501848 
L 57.360031 50.213379 
L 58.290031 50.21865 
L 59.220031 50.090866 
L 60.150031 49.586334 
L 61.080031 49.281234 
L 62.010031 48.980396 
L 62.940031 48.960606 
L 63.870031 48.785707 
" style="fill:none;stroke:#fc8d62;stroke-linecap:square;stroke-width:2;"/>
   </g>
   <g id="line2d_8">
    <path clip-path="url(#pad45a8db6d)" d="M 10.860031 55.047369 
L 11.790031 57.016949 
L 12.720031 58.165906 
L 13.650031 58.143616 
L 14.580031 58.021642 
L 15.510031 58.257557 
L 16.440031 57.843492 
L 17.370031 57.153193 
L 18.300031 56.588468 
L 19.230031 56.289547 
L 20.160031 56.189174 
L 21.090031 56.301915 
L 22.020031 55.882711 
L 22.950031 55.481364 
L 23.880031 55.302989 
L 24.810031 54.944056 
L 25.740031 54.589375 
L 26.670031 54.698823 
L 27.600031 54.319825 
L 28.530031 53.975896 
L 29.460031 53.622404 
L 30.390031 53.081087 
L 31.320031 53.160886 
L 32.250031 53.132519 
L 33.180031 52.984224 
L 34.110031 52.660914 
L 35.040031 52.265053 
L 35.970031 52.410309 
L 36.900031 52.417585 
L 37.830031 52.52893 
L 38.760031 52.650001 
L 39.690031 52.578058 
L 40.620031 52.549202 
L 41.550031 52.574271 
L 42.480031 52.386633 
L 43.410031 52.498803 
L 44.340031 52.074814 
L 45.270031 52.418696 
L 46.200031 52.404765 
L 47.130031 52.291039 
L 48.060031 52.056894 
L 48.990031 52.057249 
L 49.920031 52.015856 
L 50.850031 52.169938 
L 51.780031 51.902926 
L 52.710031 51.934603 
L 53.640031 51.502494 
L 54.570031 51.279348 
L 55.500031 51.195449 
L 56.430031 50.822561 
L 57.360031 50.602888 
L 58.290031 50.257743 
L 59.220031 49.74136 
L 60.150031 49.603938 
L 61.080031 49.298982 
L 62.010031 48.975963 
L 62.940031 48.919721 
L 63.870031 48.513582 
" style="fill:none;stroke:#fc8d62;stroke-dasharray:1.5,1.5;stroke-dashoffset:0;stroke-opacity:0.7;stroke-width:1.5;"/>
   </g>
   <g id="patch_3">
    <path d="M 9 67.68 
L 9 17.28 
" style="fill:none;stroke:#a9a9a9;stroke-linecap:square;stroke-linejoin:miter;stroke-width:2;"/>
   </g>
   <g id="patch_4">
    <path d="M 64.8 67.68 
L 64.8 17.28 
" style="fill:none;"/>
   </g>
   <g id="patch_5">
    <path d="M 9 67.68 
L 64.8 67.68 
" style="fill:none;stroke:#a9a9a9;stroke-linecap:square;stroke-linejoin:miter;stroke-width:2;"/>
   </g>
   <g id="patch_6">
    <path d="M 9 17.28 
L 64.8 17.28 
" style="fill:none;"/>
   </g>
  </g>
  <g id="axes_2">
   <g id="patch_7">
    <path d="M 9 128.16 
L 64.8 128.16 
L 64.8 77.76 
L 9 77.76 
z
" style="fill:none;"/>
   </g>
   <g id="matplotlib.axis_3">
    <g id="xtick_4">
     <g id="line2d_9">
      <g>
       <use style="fill:#a9a9a9;stroke:#a9a9a9;stroke-width:2;" x="9" xlink:href="#m5125bb952c" y="128.16"/>
      </g>
     </g>
    </g>
    <g id="xtick_5">
     <g id="line2d_10">
      <g>
       <use style="fill:#a9a9a9;stroke:#a9a9a9;stroke-width:2;" x="36.9" xlink:href="#m5125bb952c" y="128.16"/>
      </g>
     </g>
    </g>
    <g id="xtick_6">
     <g id="line2d_11">
      <g>
       <use style="fill:#a9a9a9;stroke:#a9a9a9;stroke-width:2;" x="64.8" xlink:href="#m5125bb952c" y="128.16"/>
      </g>
     </g>
    </g>
   </g>
   <g id="matplotlib.axis_4">
    <g id="ytick_4">
     <g id="line2d_12">
      <g>
       <use style="fill:#a9a9a9;stroke:#a9a9a9;stroke-width:2;" x="9" xlink:href="#mde656929fd" y="128.16"/>
      </g>
     </g>
    </g>
    <g id="ytick_5">
     <g id="line2d_13">
      <g>
       <use style="fill:#a9a9a9;stroke:#a9a9a9;stroke-width:2;" x="9" xlink:href="#mde656929fd" y="102.96"/>
      </g>
     </g>
    </g>
    <g id="ytick_6">
     <g id="line2d_14">
      <g>
       <use style="fill:#a9a9a9;stroke:#a9a9a9;stroke-width:2;" x="9" xlink:href="#mde656929fd" y="77.76"/>
      </g>
     </g>
    </g>
   </g>
   <g id="line2d_15">
    <path clip-path="url(#p595e723fc2)" d="M 10.860031 124.212798 
L 11.790031 122.913658 
L 12.720031 121.84175 
L 13.650031 121.060048 
L 14.580031 119.983533 
L 15.510031 118.946285 
L 16.440031 118.190326 
L 17.370031 117.583265 
L 18.300031 116.601312 
L 19.230031 116.051251 
L 20.160031 115.197794 
L 21.090031 114.71802 
L 22.020031 113.910453 
L 22.950031 113.909575 
L 23.880031 113.012905 
L 24.810031 111.788357 
L 25.740031 111.549793 
L 26.670031 111.13225 
L 27.600031 110.483843 
L 28.530031 110.230616 
L 29.460031 109.454661 
L 30.390031 108.803359 
L 31.320031 108.268978 
L 32.250031 108.130752 
L 33.180031 107.67559 
L 34.110031 107.242564 
L 35.040031 106.567868 
L 35.970031 106.386924 
L 36.900031 105.653368 
L 37.830031 104.872799 
L 38.760031 104.722486 
L 39.690031 104.769207 
L 40.620031 104.30869 
L 41.550031 103.987903 
L 42.480031 103.836889 
L 43.410031 103.625874 
L 44.340031 103.17394 
L 45.270031 103.084105 
L 46.200031 102.852171 
L 47.130031 102.814349 
L 48.060031 102.691263 
L 48.990031 102.435733 
L 49.920031 102.215959 
L 50.850031 101.917584 
L 51.780031 101.613896 
L 52.710031 101.308129 
L 53.640031 101.081675 
L 54.570031 101.021362 
L 55.500031 100.938041 
L 56.430031 100.598685 
L 57.360031 100.466782 
L 58.290031 100.411535 
L 59.220031 100.26737 
L 60.150031 99.928596 
L 61.080031 99.570471 
L 62.010031 99.36833 
L 62.940031 99.123867 
L 63.870031 98.934322 
" style="fill:none;stroke:#fc8d62;stroke-linecap:square;stroke-width:2;"/>
   </g>
   <g id="line2d_16">
    <path clip-path="url(#p595e723fc2)" d="M 10.860031 125.184334 
L 11.790031 125.25233 
L 12.720031 124.866916 
L 13.650031 124.168142 
L 14.580031 123.589438 
L 15.510031 122.93769 
L 16.440031 122.790762 
L 17.370031 122.299886 
L 18.300031 121.632545 
L 19.230031 121.155639 
L 20.160031 120.709426 
L 21.090031 119.96042 
L 22.020031 119.455902 
L 22.950031 119.076606 
L 23.880031 118.802178 
L 24.810031 118.182073 
L 25.740031 117.560495 
L 26.670031 117.200705 
L 27.600031 116.573296 
L 28.530031 116.183332 
L 29.460031 115.57977 
L 30.390031 115.247463 
L 31.320031 114.636053 
L 32.250031 114.37109 
L 33.180031 114.312653 
L 34.110031 114.322771 
L 35.040031 113.957971 
L 35.970031 113.74335 
L 36.900031 113.155766 
L 37.830031 112.938867 
L 38.760031 112.709423 
L 39.690031 112.289846 
L 40.620031 111.587729 
L 41.550031 111.422703 
L 42.480031 111.231894 
L 43.410031 111.094701 
L 44.340031 110.558446 
L 45.270031 110.650038 
L 46.200031 110.424525 
L 47.130031 110.409176 
L 48.060031 110.395251 
L 48.990031 110.35058 
L 49.920031 109.96991 
L 50.850031 109.668968 
L 51.780031 109.639232 
L 52.710031 109.578234 
L 53.640031 109.067962 
L 54.570031 108.717231 
L 55.500031 108.567196 
L 56.430031 108.104881 
L 57.360031 107.808556 
L 58.290031 107.5952 
L 59.220031 107.194327 
L 60.150031 106.965705 
L 61.080031 106.906175 
L 62.010031 106.785066 
L 62.940031 106.65969 
L 63.870031 106.564938 
" style="fill:none;stroke:#fc8d62;stroke-dasharray:1.5,1.5;stroke-dashoffset:0;stroke-opacity:0.7;stroke-width:1.5;"/>
   </g>
   <g id="patch_8">
    <path d="M 9 128.16 
L 9 77.76 
" style="fill:none;stroke:#a9a9a9;stroke-linecap:square;stroke-linejoin:miter;stroke-width:2;"/>
   </g>
   <g id="patch_9">
    <path d="M 64.8 128.16 
L 64.8 77.76 
" style="fill:none;"/>
   </g>
   <g id="patch_10">
    <path d="M 9 128.16 
L 64.8 128.16 
" style="fill:none;stroke:#a9a9a9;stroke-linecap:square;stroke-linejoin:miter;stroke-width:2;"/>
   </g>
   <g id="patch_11">
    <path d="M 9 77.76 
L 64.8 77.76 
" style="fill:none;"/>
   </g>
  </g>
 </g>
 <defs>
  <clipPath id="pad45a8db6d">
   <rect height="50.4" width="55.8" x="9" y="17.28"/>
  </clipPath>
  <clipPath id="p595e723fc2">
   <rect height="50.4" width="55.8" x="9" y="77.76"/>
  </clipPath>
 </defs>
</svg>
