<?xml version="1.0" encoding="utf-8" standalone="no"?>
<!DOCTYPE svg PUBLIC "-//W3C//DTD SVG 1.1//EN"
  "http://www.w3.org/Graphics/SVG/1.1/DTD/svg11.dtd">
<!-- Created with matplotlib (https://matplotlib.org/) -->
<svg height="216pt" version="1.1" viewBox="0 0 72 216" width="72pt" xmlns="http://www.w3.org/2000/svg" xmlns:xlink="http://www.w3.org/1999/xlink">
 <metadata>
  <rdf:RDF xmlns:cc="http://creativecommons.org/ns#" xmlns:dc="http://purl.org/dc/elements/1.1/" xmlns:rdf="http://www.w3.org/1999/02/22-rdf-syntax-ns#">
   <cc:Work>
    <dc:type rdf:resource="http://purl.org/dc/dcmitype/StillImage"/>
    <dc:date>2021-10-13T00:29:58.335730</dc:date>
    <dc:format>image/svg+xml</dc:format>
    <dc:creator>
     <cc:Agent>
      <dc:title>Matplotlib v3.3.2, https://matplotlib.org/</dc:title>
     </cc:Agent>
    </dc:creator>
   </cc:Work>
  </rdf:RDF>
 </metadata>
 <defs>
  <style type="text/css">*{stroke-linecap:butt;stroke-linejoin:round;}</style>
 </defs>
 <g id="figure_1">
  <g id="patch_1">
   <path d="M 0 216 
L 72 216 
L 72 0 
L 0 0 
z
" style="fill:none;"/>
  </g>
  <g id="axes_1">
   <g id="patch_2">
    <path d="M 9 74.837647 
L 64.8 74.837647 
L 64.8 25.92 
L 9 25.92 
z
" style="fill:none;"/>
   </g>
   <g id="matplotlib.axis_1">
    <g id="xtick_1">
     <g id="line2d_1">
      <defs>
       <path d="M 0 0 
L 0 3.5 
" id="m211dc8a9dc" style="stroke:#a9a9a9;stroke-width:2;"/>
      </defs>
      <g>
       <use style="fill:#a9a9a9;stroke:#a9a9a9;stroke-width:2;" x="9" xlink:href="#m211dc8a9dc" y="74.837647"/>
      </g>
     </g>
    </g>
    <g id="xtick_2">
     <g id="line2d_2">
      <g>
       <use style="fill:#a9a9a9;stroke:#a9a9a9;stroke-width:2;" x="36.9" xlink:href="#m211dc8a9dc" y="74.837647"/>
      </g>
     </g>
    </g>
    <g id="xtick_3">
     <g id="line2d_3">
      <g>
       <use style="fill:#a9a9a9;stroke:#a9a9a9;stroke-width:2;" x="64.8" xlink:href="#m211dc8a9dc" y="74.837647"/>
      </g>
     </g>
    </g>
   </g>
   <g id="matplotlib.axis_2">
    <g id="ytick_1">
     <g id="line2d_4">
      <defs>
       <path d="M 0 0 
L -3.5 0 
" id="m685d2bd3dd" style="stroke:#a9a9a9;stroke-width:2;"/>
      </defs>
      <g>
       <use style="fill:#a9a9a9;stroke:#a9a9a9;stroke-width:2;" x="9" xlink:href="#m685d2bd3dd" y="74.837647"/>
      </g>
     </g>
    </g>
    <g id="ytick_2">
     <g id="line2d_5">
      <g>
       <use style="fill:#a9a9a9;stroke:#a9a9a9;stroke-width:2;" x="9" xlink:href="#m685d2bd3dd" y="72.218668"/>
      </g>
     </g>
    </g>
    <g id="ytick_3">
     <g id="line2d_6">
      <g>
       <use style="fill:#a9a9a9;stroke:#a9a9a9;stroke-width:2;" x="9" xlink:href="#m685d2bd3dd" y="69.599688"/>
      </g>
     </g>
    </g>
   </g>
   <g id="line2d_7">
    <path clip-path="url(#p8f3af6901f)" d="M 10.86031 66.061069 
L 11.79031 64.90579 
L 12.72031 63.403192 
L 13.65031 62.403784 
L 14.58031 61.944027 
L 15.51031 61.559653 
L 16.44031 60.827222 
L 17.37031 60.848469 
L 18.30031 59.847397 
L 19.23031 58.807416 
L 20.16031 57.864681 
L 21.09031 55.746403 
L 22.02031 55.399184 
L 22.95031 55.275948 
L 23.88031 54.850677 
L 24.81031 53.144741 
L 25.74031 51.547387 
L 26.67031 49.375329 
L 27.60031 46.745181 
L 28.53031 44.848067 
L 29.46031 41.854726 
L 30.39031 39.729817 
L 31.32031 37.593302 
L 32.25031 35.269564 
L 33.18031 34.998324 
L 34.11031 33.609327 
L 35.04031 34.641999 
L 35.97031 35.789981 
L 36.90031 35.783674 
L 37.83031 36.69895 
L 38.76031 37.367744 
L 39.69031 37.039098 
L 40.62031 36.66555 
L 41.55031 37.607735 
L 42.48031 37.908312 
L 43.41031 37.758565 
L 44.34031 37.518875 
L 45.27031 36.366638 
L 46.20031 36.181296 
L 47.13031 35.90619 
L 48.06031 35.927077 
L 48.99031 35.803007 
L 49.92031 34.26677 
L 50.85031 32.923327 
L 51.78031 32.312887 
L 52.71031 31.174946 
L 53.64031 29.903008 
L 54.57031 29.53862 
L 55.50031 27.747594 
L 56.43031 26.97136 
L 57.36031 26.370405 
L 58.29031 26.634723 
L 59.22031 26.050949 
L 60.15031 27.410206 
L 61.08031 28.614941 
L 62.01031 29.815162 
L 62.94031 29.672444 
L 63.87031 29.9146 
" style="fill:none;stroke:#fc8d62;stroke-linecap:square;stroke-width:2;"/>
   </g>
   <g id="line2d_8">
    <path clip-path="url(#p8f3af6901f)" d="M 10.86031 67.778883 
L 11.79031 66.029363 
L 12.72031 65.419523 
L 13.65031 64.427209 
L 14.58031 62.486463 
L 15.51031 60.552416 
L 16.44031 59.116069 
L 17.37031 57.192859 
L 18.30031 56.041018 
L 19.23031 55.360178 
L 20.16031 55.212553 
L 21.09031 54.206578 
L 22.02031 53.076859 
L 22.95031 51.599525 
L 23.88031 50.647551 
L 24.81031 49.935425 
L 25.74031 48.047143 
L 26.67031 46.39256 
L 27.60031 43.668321 
L 28.53031 41.355938 
L 29.46031 40.860469 
L 30.39031 40.136438 
L 31.32031 39.662957 
L 32.25031 39.959459 
L 33.18031 39.405033 
L 34.11031 40.504765 
L 35.04031 39.992561 
L 35.97031 38.950482 
L 36.90031 39.69006 
L 37.83031 38.339931 
L 38.76031 37.814807 
L 39.69031 37.134986 
L 40.62031 34.975921 
L 41.55031 32.843826 
L 42.48031 32.346227 
L 43.41031 30.960823 
L 44.34031 29.12755 
L 45.27031 28.875874 
L 46.20031 26.082083 
L 47.13031 25.931751 
L 48.06031 25.026217 
L 48.99031 23.64559 
L 49.92031 23.643291 
L 50.85031 23.219675 
L 51.78031 23.34329 
L 52.71031 25.172594 
L 53.64031 23.774081 
L 54.57031 23.762062 
L 55.50031 24.162951 
L 56.43031 24.328636 
L 57.36031 23.22013 
L 58.29031 24.26944 
L 59.22031 23.185477 
L 60.15031 24.121798 
L 61.08031 24.803613 
L 62.01031 23.990417 
L 62.94031 24.221457 
L 63.87031 23.154311 
" style="fill:none;stroke:#fc8d62;stroke-dasharray:1.5,1.5;stroke-dashoffset:0;stroke-opacity:0.7;stroke-width:1.5;"/>
   </g>
   <g id="patch_3">
    <path d="M 9 74.837647 
L 9 25.92 
" style="fill:none;stroke:#a9a9a9;stroke-linecap:square;stroke-linejoin:miter;stroke-width:2;"/>
   </g>
   <g id="patch_4">
    <path d="M 64.8 74.837647 
L 64.8 25.92 
" style="fill:none;"/>
   </g>
   <g id="patch_5">
    <path d="M 9 74.837647 
L 64.8 74.837647 
" style="fill:none;stroke:#a9a9a9;stroke-linecap:square;stroke-linejoin:miter;stroke-width:2;"/>
   </g>
   <g id="patch_6">
    <path d="M 9 25.92 
L 64.8 25.92 
" style="fill:none;"/>
   </g>
  </g>
  <g id="axes_2">
   <g id="patch_7">
    <path d="M 9 133.538824 
L 64.8 133.538824 
L 64.8 84.621176 
L 9 84.621176 
z
" style="fill:none;"/>
   </g>
   <g id="matplotlib.axis_3">
    <g id="xtick_4">
     <g id="line2d_9">
      <g>
       <use style="fill:#a9a9a9;stroke:#a9a9a9;stroke-width:2;" x="9" xlink:href="#m211dc8a9dc" y="133.538824"/>
      </g>
     </g>
    </g>
    <g id="xtick_5">
     <g id="line2d_10">
      <g>
       <use style="fill:#a9a9a9;stroke:#a9a9a9;stroke-width:2;" x="36.9" xlink:href="#m211dc8a9dc" y="133.538824"/>
      </g>
     </g>
    </g>
    <g id="xtick_6">
     <g id="line2d_11">
      <g>
       <use style="fill:#a9a9a9;stroke:#a9a9a9;stroke-width:2;" x="64.8" xlink:href="#m211dc8a9dc" y="133.538824"/>
      </g>
     </g>
    </g>
   </g>
   <g id="matplotlib.axis_4">
    <g id="ytick_4">
     <g id="line2d_12">
      <g>
       <use style="fill:#a9a9a9;stroke:#a9a9a9;stroke-width:2;" x="9" xlink:href="#m685d2bd3dd" y="133.538824"/>
      </g>
     </g>
    </g>
    <g id="ytick_5">
     <g id="line2d_13">
      <g>
       <use style="fill:#a9a9a9;stroke:#a9a9a9;stroke-width:2;" x="9" xlink:href="#m685d2bd3dd" y="109.08"/>
      </g>
     </g>
    </g>
    <g id="ytick_6">
     <g id="line2d_14">
      <g>
       <use style="fill:#a9a9a9;stroke:#a9a9a9;stroke-width:2;" x="9" xlink:href="#m685d2bd3dd" y="84.621176"/>
      </g>
     </g>
    </g>
   </g>
   <g id="line2d_15">
    <path clip-path="url(#pbd272f15c9)" d="M 10.86031 94.782399 
L 11.79031 94.400148 
L 12.72031 94.264554 
L 13.65031 94.185555 
L 14.58031 94.146978 
L 15.51031 94.098461 
L 16.44031 94.049017 
L 17.37031 94.044549 
L 18.30031 94.00831 
L 19.23031 93.989347 
L 20.16031 93.986131 
L 21.09031 93.947223 
L 22.02031 93.953594 
L 22.95031 93.947105 
L 23.88031 93.95474 
L 24.81031 93.918986 
L 25.74031 93.902146 
L 26.67031 93.876625 
L 27.60031 93.857472 
L 28.53031 93.845801 
L 29.46031 93.848574 
L 30.39031 93.835045 
L 31.32031 93.839166 
L 32.25031 93.832146 
L 33.18031 93.826101 
L 34.11031 93.824811 
L 35.04031 93.826032 
L 35.97031 93.831531 
L 36.90031 93.831155 
L 37.83031 93.826502 
L 38.76031 93.831934 
L 39.69031 93.823682 
L 40.62031 93.818414 
L 41.55031 93.814345 
L 42.48031 93.819506 
L 43.41031 93.826282 
L 44.34031 93.825437 
L 45.27031 93.835623 
L 46.20031 93.833161 
L 47.13031 93.828309 
L 48.06031 93.833805 
L 48.99031 93.835299 
L 49.92031 93.831197 
L 50.85031 93.831792 
L 51.78031 93.832929 
L 52.71031 93.834403 
L 53.64031 93.831162 
L 54.57031 93.825944 
L 55.50031 93.816904 
L 56.43031 93.811174 
L 57.36031 93.80314 
L 58.29031 93.803148 
L 59.22031 93.8066 
L 60.15031 93.80366 
L 61.08031 93.80629 
L 62.01031 93.807096 
L 62.94031 93.805191 
L 63.87031 93.805992 
" style="fill:none;stroke:#fc8d62;stroke-linecap:square;stroke-width:2;"/>
   </g>
   <g id="line2d_16">
    <path clip-path="url(#pbd272f15c9)" d="M 10.86031 97.775995 
L 11.79031 97.476791 
L 12.72031 97.346115 
L 13.65031 97.200008 
L 14.58031 97.04364 
L 15.51031 96.937406 
L 16.44031 96.887052 
L 17.37031 96.842294 
L 18.30031 96.832275 
L 19.23031 96.845163 
L 20.16031 96.844078 
L 21.09031 96.834073 
L 22.02031 96.829845 
L 22.95031 96.836276 
L 23.88031 96.836857 
L 24.81031 96.856482 
L 25.74031 96.860257 
L 26.67031 96.874105 
L 27.60031 96.83647 
L 28.53031 96.825872 
L 29.46031 96.823522 
L 30.39031 96.824393 
L 31.32031 96.833967 
L 32.25031 96.826805 
L 33.18031 96.816798 
L 34.11031 96.818417 
L 35.04031 96.811138 
L 35.97031 96.804729 
L 36.90031 96.785412 
L 37.83031 96.777679 
L 38.76031 96.77424 
L 39.69031 96.773554 
L 40.62031 96.765886 
L 41.55031 96.765473 
L 42.48031 96.760721 
L 43.41031 96.764278 
L 44.34031 96.76537 
L 45.27031 96.772917 
L 46.20031 96.776431 
L 47.13031 96.783237 
L 48.06031 96.782622 
L 48.99031 96.779426 
L 49.92031 96.783879 
L 50.85031 96.78709 
L 51.78031 96.785846 
L 52.71031 96.788317 
L 53.64031 96.791454 
L 54.57031 96.786623 
L 55.50031 96.788968 
L 56.43031 96.788624 
L 57.36031 96.786527 
L 58.29031 96.783136 
L 59.22031 96.778757 
L 60.15031 96.776147 
L 61.08031 96.769972 
L 62.01031 96.765991 
L 62.94031 96.768383 
L 63.87031 96.766316 
" style="fill:none;stroke:#fc8d62;stroke-dasharray:1.5,1.5;stroke-dashoffset:0;stroke-opacity:0.7;stroke-width:1.5;"/>
   </g>
   <g id="patch_8">
    <path d="M 9 133.538824 
L 9 84.621176 
" style="fill:none;stroke:#a9a9a9;stroke-linecap:square;stroke-linejoin:miter;stroke-width:2;"/>
   </g>
   <g id="patch_9">
    <path d="M 64.8 133.538824 
L 64.8 84.621176 
" style="fill:none;"/>
   </g>
   <g id="patch_10">
    <path d="M 9 133.538824 
L 64.8 133.538824 
" style="fill:none;stroke:#a9a9a9;stroke-linecap:square;stroke-linejoin:miter;stroke-width:2;"/>
   </g>
   <g id="patch_11">
    <path d="M 9 84.621176 
L 64.8 84.621176 
" style="fill:none;"/>
   </g>
  </g>
  <g id="axes_3">
   <g id="patch_12">
    <path d="M 9 192.24 
L 64.8 192.24 
L 64.8 143.322353 
L 9 143.322353 
z
" style="fill:none;"/>
   </g>
   <g id="matplotlib.axis_5">
    <g id="xtick_7">
     <g id="line2d_17">
      <g>
       <use style="fill:#a9a9a9;stroke:#a9a9a9;stroke-width:2;" x="9" xlink:href="#m211dc8a9dc" y="145.229958"/>
      </g>
     </g>
    </g>
    <g id="xtick_8">
     <g id="line2d_18">
      <g>
       <use style="fill:#a9a9a9;stroke:#a9a9a9;stroke-width:2;" x="36.9" xlink:href="#m211dc8a9dc" y="145.229958"/>
      </g>
     </g>
    </g>
    <g id="xtick_9">
     <g id="line2d_19">
      <g>
       <use style="fill:#a9a9a9;stroke:#a9a9a9;stroke-width:2;" x="64.8" xlink:href="#m211dc8a9dc" y="145.229958"/>
      </g>
     </g>
    </g>
   </g>
   <g id="matplotlib.axis_6">
    <g id="ytick_7">
     <g id="line2d_20">
      <g>
       <use style="fill:#a9a9a9;stroke:#a9a9a9;stroke-width:2;" x="9" xlink:href="#m685d2bd3dd" y="145.229958"/>
      </g>
     </g>
    </g>
    <g id="ytick_8">
     <g id="line2d_21">
      <g>
       <use style="fill:#a9a9a9;stroke:#a9a9a9;stroke-width:2;" x="9" xlink:href="#m685d2bd3dd" y="176.569986"/>
      </g>
     </g>
    </g>
   </g>
   <g id="line2d_22">
    <path clip-path="url(#pd68f2b7917)" d="M 10.86031 143.522945 
L 11.79031 143.322353 
L 12.72031 143.710724 
L 13.65031 143.678691 
L 14.58031 143.725334 
L 15.51031 143.831948 
L 16.44031 143.724717 
L 17.37031 143.690869 
L 18.30031 143.670742 
L 19.23031 143.663527 
L 20.16031 143.711437 
L 21.09031 143.675924 
L 22.02031 143.744669 
L 22.95031 143.757247 
L 23.88031 143.75881 
L 24.81031 143.731196 
L 25.74031 143.707104 
L 26.67031 143.660187 
L 27.60031 143.646249 
L 28.53031 143.676397 
L 29.46031 143.689475 
L 30.39031 143.666461 
L 31.32031 143.655027 
L 32.25031 143.58668 
L 33.18031 143.608685 
L 34.11031 143.623452 
L 35.04031 143.636026 
L 35.97031 143.649936 
L 36.90031 143.620756 
L 37.83031 143.624688 
L 38.76031 143.663822 
L 39.69031 143.697883 
L 40.62031 143.708451 
L 41.55031 143.718641 
L 42.48031 143.725198 
L 43.41031 143.725123 
L 44.34031 143.72174 
L 45.27031 143.736448 
L 46.20031 143.733305 
L 47.13031 143.743801 
L 48.06031 143.738946 
L 48.99031 143.740334 
L 49.92031 143.723081 
L 50.85031 143.697292 
L 51.78031 143.693086 
L 52.71031 143.684293 
L 53.64031 143.675558 
L 54.57031 143.689804 
L 55.50031 143.694472 
L 56.43031 143.69595 
L 57.36031 143.69361 
L 58.29031 143.699305 
L 59.22031 143.688354 
L 60.15031 143.684619 
L 61.08031 143.704735 
L 62.01031 143.70406 
L 62.94031 143.69816 
L 63.87031 143.690799 
" style="fill:none;stroke:#fc8d62;stroke-linecap:square;stroke-width:2;"/>
   </g>
   <g id="line2d_23">
    <path clip-path="url(#pd68f2b7917)" d="M 10.86031 145.228089 
L 11.79031 145.229758 
L 12.72031 145.229996 
L 13.65031 145.229892 
L 14.58031 145.229911 
L 15.51031 145.229937 
L 16.44031 145.229959 
L 17.37031 145.229282 
L 18.30031 145.22993 
L 19.23031 145.229959 
L 20.16031 145.229927 
L 21.09031 145.22995 
L 22.02031 145.229958 
L 22.95031 145.229928 
L 23.88031 145.229736 
L 24.81031 145.229601 
L 25.74031 145.230021 
L 26.67031 145.230004 
L 27.60031 145.230165 
L 28.53031 145.229895 
L 29.46031 145.230094 
L 30.39031 145.229745 
L 31.32031 145.229799 
L 32.25031 145.230014 
L 33.18031 145.229821 
L 34.11031 145.23001 
L 35.04031 145.229993 
L 35.97031 145.229963 
L 36.90031 145.22997 
L 37.83031 145.230064 
L 38.76031 145.229961 
L 39.69031 145.229649 
L 40.62031 145.229944 
L 41.55031 145.229804 
L 42.48031 145.229816 
L 43.41031 145.229879 
L 44.34031 145.229836 
L 45.27031 145.229846 
L 46.20031 145.229824 
L 47.13031 145.229982 
L 48.06031 145.229951 
L 48.99031 145.229965 
L 49.92031 145.229838 
L 50.85031 145.230017 
L 51.78031 145.22974 
L 52.71031 145.230187 
L 53.64031 145.229782 
L 54.57031 145.229179 
L 55.50031 145.230067 
L 56.43031 145.229743 
L 57.36031 145.230004 
L 58.29031 145.229395 
L 59.22031 145.229747 
L 60.15031 145.229983 
L 61.08031 145.229958 
L 62.01031 145.229343 
L 62.94031 145.230017 
L 63.87031 145.229326 
" style="fill:none;stroke:#fc8d62;stroke-dasharray:1.5,1.5;stroke-dashoffset:0;stroke-opacity:0.7;stroke-width:1.5;"/>
   </g>
   <g id="line2d_24">
    <path clip-path="url(#pd68f2b7917)" d="M 9 176.569986 
L 64.8 176.569986 
" style="fill:none;stroke:#66c2a5;stroke-dasharray:1.5,1.5;stroke-dashoffset:0;stroke-opacity:0.7;stroke-width:1.5;"/>
   </g>
   <g id="patch_13">
    <path d="M 9 192.24 
L 9 143.322353 
" style="fill:none;stroke:#a9a9a9;stroke-linecap:square;stroke-linejoin:miter;stroke-width:2;"/>
   </g>
   <g id="patch_14">
    <path d="M 64.8 192.24 
L 64.8 143.322353 
" style="fill:none;"/>
   </g>
   <g id="patch_15">
    <path d="M 9 145.229958 
L 64.8 145.229958 
" style="fill:none;stroke:#a9a9a9;stroke-linecap:square;stroke-linejoin:miter;stroke-width:2;"/>
   </g>
   <g id="patch_16">
    <path d="M 9 143.322353 
L 64.8 143.322353 
" style="fill:none;"/>
   </g>
  </g>
 </g>
 <defs>
  <clipPath id="p8f3af6901f">
   <rect height="48.917647" width="55.8" x="9" y="25.92"/>
  </clipPath>
  <clipPath id="pbd272f15c9">
   <rect height="48.917647" width="55.8" x="9" y="84.621176"/>
  </clipPath>
  <clipPath id="pd68f2b7917">
   <rect height="48.917647" width="55.8" x="9" y="143.322353"/>
  </clipPath>
 </defs>
</svg>
