<?xml version="1.0" encoding="utf-8" standalone="no"?>
<!DOCTYPE svg PUBLIC "-//W3C//DTD SVG 1.1//EN"
  "http://www.w3.org/Graphics/SVG/1.1/DTD/svg11.dtd">
<!-- Created with matplotlib (https://matplotlib.org/) -->
<svg height="144pt" version="1.1" viewBox="0 0 72 144" width="72pt" xmlns="http://www.w3.org/2000/svg" xmlns:xlink="http://www.w3.org/1999/xlink">
 <metadata>
  <rdf:RDF xmlns:cc="http://creativecommons.org/ns#" xmlns:dc="http://purl.org/dc/elements/1.1/" xmlns:rdf="http://www.w3.org/1999/02/22-rdf-syntax-ns#">
   <cc:Work>
    <dc:type rdf:resource="http://purl.org/dc/dcmitype/StillImage"/>
    <dc:date>2021-10-15T00:40:22.068421</dc:date>
    <dc:format>image/svg+xml</dc:format>
    <dc:creator>
     <cc:Agent>
      <dc:title>Matplotlib v3.3.2, https://matplotlib.org/</dc:title>
     </cc:Agent>
    </dc:creator>
   </cc:Work>
  </rdf:RDF>
 </metadata>
 <defs>
  <style type="text/css">*{stroke-linecap:butt;stroke-linejoin:round;}</style>
 </defs>
 <g id="figure_1">
  <g id="patch_1">
   <path d="M 0 144 
L 72 144 
L 72 0 
L 0 0 
z
" style="fill:none;"/>
  </g>
  <g id="axes_1">
   <g id="patch_2">
    <path d="M 9 67.68 
L 64.8 67.68 
L 64.8 17.28 
L 9 17.28 
z
" style="fill:none;"/>
   </g>
   <g id="matplotlib.axis_1">
    <g id="xtick_1">
     <g id="line2d_1">
      <defs>
       <path d="M 0 0 
L 0 3.5 
" id="mbbc166e435" style="stroke:#a9a9a9;stroke-width:2;"/>
      </defs>
      <g>
       <use style="fill:#a9a9a9;stroke:#a9a9a9;stroke-width:2;" x="9" xlink:href="#mbbc166e435" y="67.68"/>
      </g>
     </g>
    </g>
    <g id="xtick_2">
     <g id="line2d_2">
      <g>
       <use style="fill:#a9a9a9;stroke:#a9a9a9;stroke-width:2;" x="36.9" xlink:href="#mbbc166e435" y="67.68"/>
      </g>
     </g>
    </g>
    <g id="xtick_3">
     <g id="line2d_3">
      <g>
       <use style="fill:#a9a9a9;stroke:#a9a9a9;stroke-width:2;" x="64.8" xlink:href="#mbbc166e435" y="67.68"/>
      </g>
     </g>
    </g>
   </g>
   <g id="matplotlib.axis_2">
    <g id="ytick_1">
     <g id="line2d_4">
      <defs>
       <path d="M 0 0 
L -3.5 0 
" id="m491d213983" style="stroke:#a9a9a9;stroke-width:2;"/>
      </defs>
      <g>
       <use style="fill:#a9a9a9;stroke:#a9a9a9;stroke-width:2;" x="9" xlink:href="#m491d213983" y="67.68"/>
      </g>
     </g>
    </g>
    <g id="ytick_2">
     <g id="line2d_5">
      <g>
       <use style="fill:#a9a9a9;stroke:#a9a9a9;stroke-width:2;" x="9" xlink:href="#m491d213983" y="65.78322"/>
      </g>
     </g>
    </g>
    <g id="ytick_3">
     <g id="line2d_6">
      <g>
       <use style="fill:#a9a9a9;stroke:#a9a9a9;stroke-width:2;" x="9" xlink:href="#m491d213983" y="63.886441"/>
      </g>
     </g>
    </g>
   </g>
   <g id="line2d_7">
    <path clip-path="url(#p6768c9f237)" d="M 10.860031 60.652076 
L 11.790031 59.60872 
L 12.720031 58.608299 
L 13.650031 57.77457 
L 14.580031 57.137878 
L 15.510031 56.375645 
L 16.440031 55.615831 
L 17.370031 55.066965 
L 18.300031 53.809376 
L 19.230031 53.220505 
L 20.160031 51.22634 
L 21.090031 49.662443 
L 22.020031 48.311853 
L 22.950031 46.598952 
L 23.880031 45.763762 
L 24.810031 44.447518 
L 25.740031 43.075771 
L 26.670031 41.35143 
L 27.600031 40.714996 
L 28.530031 37.33544 
L 29.460031 35.11015 
L 30.390031 33.019871 
L 31.320031 30.262199 
L 32.250031 30.128867 
L 33.180031 30.117876 
L 34.110031 31.670354 
L 35.040031 33.447282 
L 35.970031 34.159119 
L 36.900031 34.158679 
L 37.830031 33.784157 
L 38.760031 33.649315 
L 39.690031 33.710373 
L 40.620031 34.224612 
L 41.550031 34.091993 
L 42.480031 33.330411 
L 43.410031 32.948738 
L 44.340031 32.163143 
L 45.270031 30.908577 
L 46.200031 30.076958 
L 47.130031 28.9977 
L 48.060031 28.267771 
L 48.990031 26.692187 
L 49.920031 25.62345 
L 50.850031 24.808868 
L 51.780031 22.839373 
L 52.710031 21.517258 
L 53.640031 18.980145 
L 54.570031 18.329026 
L 55.500031 17.551755 
L 56.430031 17.374839 
L 57.360031 18.325265 
L 58.290031 18.845638 
L 59.220031 19.665873 
L 60.150031 20.636555 
L 61.080031 21.091162 
L 62.010031 21.076043 
L 62.940031 19.848221 
L 63.870031 18.430049 
" style="fill:none;stroke:#fc8d62;stroke-linecap:square;stroke-width:2;"/>
   </g>
   <g id="line2d_8">
    <path clip-path="url(#p6768c9f237)" d="M 10.860031 61.220553 
L 11.790031 60.418519 
L 12.720031 59.544661 
L 13.650031 59.018923 
L 14.580031 58.268446 
L 15.510031 57.219549 
L 16.440031 56.145151 
L 17.370031 55.665856 
L 18.300031 54.494762 
L 19.230031 53.368334 
L 20.160031 52.138323 
L 21.090031 50.547377 
L 22.020031 49.169275 
L 22.950031 48.364909 
L 23.880031 46.914473 
L 24.810031 45.904552 
L 25.740031 43.98048 
L 26.670031 42.321253 
L 27.600031 41.046805 
L 28.530031 40.653934 
L 29.460031 38.949784 
L 30.390031 36.096944 
L 31.320031 34.722849 
L 32.250031 34.163495 
L 33.180031 32.990432 
L 34.110031 32.850443 
L 35.040031 34.83167 
L 35.970031 36.111059 
L 36.900031 36.774373 
L 37.830031 36.439348 
L 38.760031 36.719447 
L 39.690031 35.950031 
L 40.620031 35.628503 
L 41.550031 35.253782 
L 42.480031 34.476379 
L 43.410031 33.800438 
L 44.340031 34.068301 
L 45.270031 33.466837 
L 46.200031 32.075513 
L 47.130031 31.215275 
L 48.060031 30.181709 
L 48.990031 28.632176 
L 49.920031 27.143272 
L 50.850031 25.452484 
L 51.780031 23.521838 
L 52.710031 22.222898 
L 53.640031 20.821893 
L 54.570031 19.273874 
L 55.500031 18.803484 
L 56.430031 18.695197 
L 57.360031 19.089941 
L 58.290031 20.93105 
L 59.220031 21.459267 
L 60.150031 22.165415 
L 61.080031 22.17004 
L 62.010031 21.260483 
L 62.940031 19.369734 
L 63.870031 18.928284 
" style="fill:none;stroke:#fc8d62;stroke-dasharray:1.5,1.5;stroke-dashoffset:0;stroke-opacity:0.7;stroke-width:1.5;"/>
   </g>
   <g id="patch_3">
    <path d="M 9 67.68 
L 9 17.28 
" style="fill:none;stroke:#a9a9a9;stroke-linecap:square;stroke-linejoin:miter;stroke-width:2;"/>
   </g>
   <g id="patch_4">
    <path d="M 64.8 67.68 
L 64.8 17.28 
" style="fill:none;"/>
   </g>
   <g id="patch_5">
    <path d="M 9 67.68 
L 64.8 67.68 
" style="fill:none;stroke:#a9a9a9;stroke-linecap:square;stroke-linejoin:miter;stroke-width:2;"/>
   </g>
   <g id="patch_6">
    <path d="M 9 17.28 
L 64.8 17.28 
" style="fill:none;"/>
   </g>
  </g>
  <g id="axes_2">
   <g id="patch_7">
    <path d="M 9 128.16 
L 64.8 128.16 
L 64.8 77.76 
L 9 77.76 
z
" style="fill:none;"/>
   </g>
   <g id="matplotlib.axis_3">
    <g id="xtick_4">
     <g id="line2d_9">
      <g>
       <use style="fill:#a9a9a9;stroke:#a9a9a9;stroke-width:2;" x="9" xlink:href="#mbbc166e435" y="128.16"/>
      </g>
     </g>
    </g>
    <g id="xtick_5">
     <g id="line2d_10">
      <g>
       <use style="fill:#a9a9a9;stroke:#a9a9a9;stroke-width:2;" x="36.9" xlink:href="#mbbc166e435" y="128.16"/>
      </g>
     </g>
    </g>
    <g id="xtick_6">
     <g id="line2d_11">
      <g>
       <use style="fill:#a9a9a9;stroke:#a9a9a9;stroke-width:2;" x="64.8" xlink:href="#mbbc166e435" y="128.16"/>
      </g>
     </g>
    </g>
   </g>
   <g id="matplotlib.axis_4">
    <g id="ytick_4">
     <g id="line2d_12">
      <g>
       <use style="fill:#a9a9a9;stroke:#a9a9a9;stroke-width:2;" x="9" xlink:href="#m491d213983" y="128.16"/>
      </g>
     </g>
    </g>
    <g id="ytick_5">
     <g id="line2d_13">
      <g>
       <use style="fill:#a9a9a9;stroke:#a9a9a9;stroke-width:2;" x="9" xlink:href="#m491d213983" y="102.96"/>
      </g>
     </g>
    </g>
    <g id="ytick_6">
     <g id="line2d_14">
      <g>
       <use style="fill:#a9a9a9;stroke:#a9a9a9;stroke-width:2;" x="9" xlink:href="#m491d213983" y="77.76"/>
      </g>
     </g>
    </g>
   </g>
   <g id="line2d_15">
    <path clip-path="url(#p0e91c07090)" d="M 10.860031 83.207374 
L 11.790031 82.868343 
L 12.720031 82.726513 
L 13.650031 82.620751 
L 14.580031 82.580608 
L 15.510031 82.526505 
L 16.440031 82.468892 
L 17.370031 82.434831 
L 18.300031 82.435414 
L 19.230031 82.449396 
L 20.160031 82.422827 
L 21.090031 82.409638 
L 22.020031 82.409949 
L 22.950031 82.400669 
L 23.880031 82.410044 
L 24.810031 82.393534 
L 25.740031 82.375089 
L 26.670031 82.37477 
L 27.600031 82.379066 
L 28.530031 82.369291 
L 29.460031 82.359766 
L 30.390031 82.34507 
L 31.320031 82.344531 
L 32.250031 82.338518 
L 33.180031 82.333751 
L 34.110031 82.333562 
L 35.040031 82.335634 
L 35.970031 82.323181 
L 36.900031 82.315802 
L 37.830031 82.314996 
L 38.760031 82.308634 
L 39.690031 82.298435 
L 40.620031 82.296112 
L 41.550031 82.303339 
L 42.480031 82.309278 
L 43.410031 82.311457 
L 44.340031 82.316128 
L 45.270031 82.322135 
L 46.200031 82.32354 
L 47.130031 82.329275 
L 48.060031 82.335861 
L 48.990031 82.337528 
L 49.920031 82.339196 
L 50.850031 82.339062 
L 51.780031 82.331824 
L 52.710031 82.329837 
L 53.640031 82.324266 
L 54.570031 82.324645 
L 55.500031 82.324803 
L 56.430031 82.322324 
L 57.360031 82.32252 
L 58.290031 82.320073 
L 59.220031 82.31439 
L 60.150031 82.311528 
L 61.080031 82.308188 
L 62.010031 82.305201 
L 62.940031 82.304064 
L 63.870031 82.303304 
" style="fill:none;stroke:#fc8d62;stroke-linecap:square;stroke-width:2;"/>
   </g>
   <g id="line2d_16">
    <path clip-path="url(#p0e91c07090)" d="M 10.860031 91.363088 
L 11.790031 91.144819 
L 12.720031 91.015359 
L 13.650031 90.929237 
L 14.580031 90.860878 
L 15.510031 90.749989 
L 16.440031 90.671522 
L 17.370031 90.662044 
L 18.300031 90.621302 
L 19.230031 90.617012 
L 20.160031 90.62763 
L 21.090031 90.645786 
L 22.020031 90.632139 
L 22.950031 90.631933 
L 23.880031 90.624532 
L 24.810031 90.623234 
L 25.740031 90.62259 
L 26.670031 90.614747 
L 27.600031 90.615431 
L 28.530031 90.621325 
L 29.460031 90.61673 
L 30.390031 90.601739 
L 31.320031 90.585093 
L 32.250031 90.585891 
L 33.180031 90.584462 
L 34.110031 90.580714 
L 35.040031 90.570838 
L 35.970031 90.572088 
L 36.900031 90.572734 
L 37.830031 90.561938 
L 38.760031 90.560935 
L 39.690031 90.551592 
L 40.620031 90.542586 
L 41.550031 90.547698 
L 42.480031 90.547146 
L 43.410031 90.55112 
L 44.340031 90.552105 
L 45.270031 90.55839 
L 46.200031 90.565327 
L 47.130031 90.565944 
L 48.060031 90.566724 
L 48.990031 90.565587 
L 49.920031 90.563418 
L 50.850031 90.561549 
L 51.780031 90.561451 
L 52.710031 90.557832 
L 53.640031 90.563151 
L 54.570031 90.563471 
L 55.500031 90.558106 
L 56.430031 90.561839 
L 57.360031 90.558371 
L 58.290031 90.557281 
L 59.220031 90.555298 
L 60.150031 90.558427 
L 61.080031 90.558552 
L 62.010031 90.554238 
L 62.940031 90.552632 
L 63.870031 90.546796 
" style="fill:none;stroke:#fc8d62;stroke-dasharray:1.5,1.5;stroke-dashoffset:0;stroke-opacity:0.7;stroke-width:1.5;"/>
   </g>
   <g id="patch_8">
    <path d="M 9 128.16 
L 9 77.76 
" style="fill:none;stroke:#a9a9a9;stroke-linecap:square;stroke-linejoin:miter;stroke-width:2;"/>
   </g>
   <g id="patch_9">
    <path d="M 64.8 128.16 
L 64.8 77.76 
" style="fill:none;"/>
   </g>
   <g id="patch_10">
    <path d="M 9 128.16 
L 64.8 128.16 
" style="fill:none;stroke:#a9a9a9;stroke-linecap:square;stroke-linejoin:miter;stroke-width:2;"/>
   </g>
   <g id="patch_11">
    <path d="M 9 77.76 
L 64.8 77.76 
" style="fill:none;"/>
   </g>
  </g>
 </g>
 <defs>
  <clipPath id="p6768c9f237">
   <rect height="50.4" width="55.8" x="9" y="17.28"/>
  </clipPath>
  <clipPath id="p0e91c07090">
   <rect height="50.4" width="55.8" x="9" y="77.76"/>
  </clipPath>
 </defs>
</svg>
