<?xml version="1.0" encoding="utf-8" standalone="no"?>
<!DOCTYPE svg PUBLIC "-//W3C//DTD SVG 1.1//EN"
  "http://www.w3.org/Graphics/SVG/1.1/DTD/svg11.dtd">
<!-- Created with matplotlib (https://matplotlib.org/) -->
<svg height="144pt" version="1.1" viewBox="0 0 216 144" width="216pt" xmlns="http://www.w3.org/2000/svg" xmlns:xlink="http://www.w3.org/1999/xlink">
 <metadata>
  <rdf:RDF xmlns:cc="http://creativecommons.org/ns#" xmlns:dc="http://purl.org/dc/elements/1.1/" xmlns:rdf="http://www.w3.org/1999/02/22-rdf-syntax-ns#">
   <cc:Work>
    <dc:type rdf:resource="http://purl.org/dc/dcmitype/StillImage"/>
    <dc:date>2021-10-05T13:00:31.847796</dc:date>
    <dc:format>image/svg+xml</dc:format>
    <dc:creator>
     <cc:Agent>
      <dc:title>Matplotlib v3.3.2, https://matplotlib.org/</dc:title>
     </cc:Agent>
    </dc:creator>
   </cc:Work>
  </rdf:RDF>
 </metadata>
 <defs>
  <style type="text/css">*{stroke-linecap:butt;stroke-linejoin:round;}</style>
 </defs>
 <g id="figure_1">
  <g id="patch_1">
   <path d="M 0 144 
L 216 144 
L 216 0 
L 0 0 
z
" style="fill:none;"/>
  </g>
  <g id="axes_1">
   <g id="patch_2">
    <path d="M 27 67.68 
L 194.4 67.68 
L 194.4 17.28 
L 27 17.28 
z
" style="fill:none;"/>
   </g>
   <g id="PolyCollection_1">
    <path clip-path="url(#pde15b4d08c)" d="M 27 55.891761 
L 27 55.891761 
L 30.416327 55.891761 
L 33.832653 55.891761 
L 37.24898 55.891761 
L 40.665306 55.891761 
L 44.081633 55.891761 
L 47.497959 55.848889 
L 50.914286 55.749375 
L 54.330612 55.498936 
L 57.746939 55.01348 
L 61.163265 54.346936 
L 64.579592 53.485917 
L 67.995918 51.09443 
L 71.412245 49.859793 
L 74.828571 46.072131 
L 78.244898 41.709306 
L 81.661224 37.590423 
L 85.077551 32.964316 
L 88.493878 27.3853 
L 91.910204 24.83531 
L 95.326531 18.248334 
L 98.742857 17.288423 
L 102.159184 17.28 
L 105.57551 20.411368 
L 108.991837 25.082695 
L 112.408163 34.780243 
L 115.82449 36.384684 
L 119.240816 41.816577 
L 122.657143 49.473904 
L 126.073469 53.768692 
L 129.489796 57.634591 
L 132.906122 59.213983 
L 136.322449 59.172278 
L 139.738776 60.126244 
L 143.155102 59.675723 
L 146.571429 58.511105 
L 149.987755 57.058072 
L 153.404082 55.825664 
L 156.820408 55.904026 
L 160.236735 55.290629 
L 163.653061 54.998127 
L 167.069388 55.2443 
L 170.485714 55.446134 
L 173.902041 55.703926 
L 177.318367 55.817722 
L 180.734694 55.89176 
L 184.15102 55.891761 
L 187.567347 55.891761 
L 190.983673 55.891761 
L 194.4 55.891761 
L 194.4 55.891761 
L 194.4 55.891761 
L 190.983673 55.891761 
L 187.567347 55.891761 
L 184.15102 55.891761 
L 180.734694 55.891761 
L 177.318367 55.947235 
L 173.902041 56.025113 
L 170.485714 56.189844 
L 167.069388 56.482712 
L 163.653061 56.899672 
L 160.236735 57.380688 
L 156.820408 58.793422 
L 153.404082 59.374018 
L 149.987755 61.397299 
L 146.571429 63.444518 
L 143.155102 65.24215 
L 139.738776 66.468351 
L 136.322449 67.68 
L 132.906122 66.999403 
L 129.489796 67.647464 
L 126.073469 65.113187 
L 122.657143 60.521485 
L 119.240816 54.515584 
L 115.82449 48.365172 
L 112.408163 40.479732 
L 108.991837 37.284067 
L 105.57551 33.236262 
L 102.159184 29.670373 
L 98.742857 29.867259 
L 95.326531 30.369883 
L 91.910204 33.169272 
L 88.493878 37.497077 
L 85.077551 40.538477 
L 81.661224 44.227319 
L 78.244898 47.793779 
L 74.828571 51.097321 
L 71.412245 53.577914 
L 67.995918 54.576587 
L 64.579592 55.722209 
L 61.163265 56.323163 
L 57.746939 56.360793 
L 54.330612 56.247477 
L 50.914286 56.056503 
L 47.497959 55.950495 
L 44.081633 55.891761 
L 40.665306 55.891761 
L 37.24898 55.891761 
L 33.832653 55.891761 
L 30.416327 55.891761 
L 27 55.891761 
z
" style="fill:#fc8d62;fill-opacity:0.3;"/>
   </g>
   <g id="PolyCollection_2">
    <path clip-path="url(#pde15b4d08c)" d="M 27 55.891761 
L 27 55.891761 
L 30.416327 55.891761 
L 33.832653 55.891761 
L 37.24898 55.891761 
L 40.665306 55.891761 
L 44.081633 55.89176 
L 47.497959 55.837821 
L 50.914286 55.485187 
L 54.330612 55.321525 
L 57.746939 54.804694 
L 61.163265 54.10641 
L 64.579592 53.313742 
L 67.995918 52.33476 
L 71.412245 50.821439 
L 74.828571 50.217701 
L 78.244898 48.727345 
L 81.661224 47.122104 
L 85.077551 46.216774 
L 88.493878 44.907544 
L 91.910204 43.491678 
L 95.326531 43.049937 
L 98.742857 41.223111 
L 102.159184 40.799219 
L 105.57551 39.080319 
L 108.991837 37.996869 
L 112.408163 43.356914 
L 115.82449 40.277944 
L 119.240816 40.356491 
L 122.657143 40.717533 
L 126.073469 41.075933 
L 129.489796 43.453737 
L 132.906122 44.1403 
L 136.322449 45.18745 
L 139.738776 47.733201 
L 143.155102 48.745179 
L 146.571429 49.972114 
L 149.987755 51.197459 
L 153.404082 51.567675 
L 156.820408 52.814535 
L 160.236735 53.888793 
L 163.653061 54.543858 
L 167.069388 54.850902 
L 170.485714 55.249836 
L 173.902041 55.694507 
L 177.318367 55.776949 
L 180.734694 55.89176 
L 184.15102 55.891761 
L 187.567347 55.891761 
L 190.983673 55.891761 
L 194.4 55.891761 
L 194.4 55.891761 
L 194.4 55.891761 
L 190.983673 55.891761 
L 187.567347 55.891761 
L 184.15102 55.891761 
L 180.734694 55.891761 
L 177.318367 55.98991 
L 173.902041 56.140831 
L 170.485714 56.272293 
L 167.069388 56.420126 
L 163.653061 56.492222 
L 160.236735 56.590623 
L 156.820408 56.507913 
L 153.404082 56.647777 
L 149.987755 56.630166 
L 146.571429 55.67501 
L 143.155102 54.957368 
L 139.738776 53.558436 
L 136.322449 52.810171 
L 132.906122 52.857819 
L 129.489796 50.822558 
L 126.073469 50.724211 
L 122.657143 49.373751 
L 119.240816 50.134976 
L 115.82449 50.567172 
L 112.408163 46.804042 
L 108.991837 48.157422 
L 105.57551 48.139537 
L 102.159184 50.033272 
L 98.742857 51.690556 
L 95.326531 50.476008 
L 91.910204 52.162207 
L 88.493878 53.042105 
L 85.077551 52.943124 
L 81.661224 53.845805 
L 78.244898 54.383511 
L 74.828571 54.675199 
L 71.412245 55.900499 
L 67.995918 56.171803 
L 64.579592 55.922411 
L 61.163265 56.147316 
L 57.746939 56.276204 
L 54.330612 56.306386 
L 50.914286 56.089962 
L 47.497959 55.951856 
L 44.081633 55.891761 
L 40.665306 55.891761 
L 37.24898 55.891761 
L 33.832653 55.891761 
L 30.416327 55.891761 
L 27 55.891761 
z
" style="fill:#fc8d62;fill-opacity:0.15;"/>
   </g>
   <g id="matplotlib.axis_1">
    <g id="xtick_1">
     <g id="line2d_1">
      <defs>
       <path d="M 0 0 
L 0 3.5 
" id="m7174035293" style="stroke:#a9a9a9;stroke-width:2;"/>
      </defs>
      <g>
       <use style="fill:#a9a9a9;stroke:#a9a9a9;stroke-width:2;" x="44.081633" xlink:href="#m7174035293" y="55.891761"/>
      </g>
     </g>
    </g>
    <g id="xtick_2">
     <g id="line2d_2">
      <g>
       <use style="fill:#a9a9a9;stroke:#a9a9a9;stroke-width:2;" x="78.244898" xlink:href="#m7174035293" y="55.891761"/>
      </g>
     </g>
    </g>
    <g id="xtick_3">
     <g id="line2d_3">
      <g>
       <use style="fill:#a9a9a9;stroke:#a9a9a9;stroke-width:2;" x="112.408163" xlink:href="#m7174035293" y="55.891761"/>
      </g>
     </g>
    </g>
    <g id="xtick_4">
     <g id="line2d_4">
      <g>
       <use style="fill:#a9a9a9;stroke:#a9a9a9;stroke-width:2;" x="146.571429" xlink:href="#m7174035293" y="55.891761"/>
      </g>
     </g>
    </g>
    <g id="xtick_5">
     <g id="line2d_5">
      <g>
       <use style="fill:#a9a9a9;stroke:#a9a9a9;stroke-width:2;" x="180.734694" xlink:href="#m7174035293" y="55.891761"/>
      </g>
     </g>
    </g>
   </g>
   <g id="matplotlib.axis_2"/>
   <g id="line2d_6">
    <path clip-path="url(#pde15b4d08c)" d="M 27 55.891761 
L 30.416327 55.891761 
L 33.832653 55.891761 
L 37.24898 55.891761 
L 40.665306 55.891761 
L 44.081633 55.891761 
L 47.497959 55.899692 
L 50.914286 55.902939 
L 54.330612 55.873206 
L 57.746939 55.687136 
L 61.163265 55.335049 
L 64.579592 54.604063 
L 67.995918 52.835508 
L 71.412245 51.718854 
L 74.828571 48.584726 
L 78.244898 44.751543 
L 81.661224 40.908871 
L 85.077551 36.751397 
L 88.493878 32.441189 
L 91.910204 29.002291 
L 95.326531 24.309109 
L 98.742857 23.577841 
L 102.159184 23.475186 
L 105.57551 26.823815 
L 108.991837 31.183381 
L 112.408163 37.629988 
L 115.82449 42.374928 
L 119.240816 48.16608 
L 122.657143 54.997694 
L 126.073469 59.44094 
L 129.489796 62.641027 
L 132.906122 63.106693 
L 136.322449 63.426139 
L 139.738776 63.297297 
L 143.155102 62.458937 
L 146.571429 60.977812 
L 149.987755 59.227686 
L 153.404082 57.599841 
L 156.820408 57.348724 
L 160.236735 56.335659 
L 163.653061 55.9489 
L 167.069388 55.863506 
L 170.485714 55.817989 
L 173.902041 55.86452 
L 177.318367 55.882478 
L 180.734694 55.891761 
L 184.15102 55.891761 
L 187.567347 55.891761 
L 190.983673 55.891761 
L 194.4 55.891761 
" style="fill:none;stroke:#fc8d62;stroke-linecap:square;stroke-width:2;"/>
   </g>
   <g id="line2d_7">
    <path clip-path="url(#pde15b4d08c)" d="M 27 55.891761 
L 30.416327 55.891761 
L 33.832653 55.891761 
L 37.24898 55.891761 
L 40.665306 55.891761 
L 44.081633 55.891761 
L 47.497959 55.894839 
L 50.914286 55.787574 
L 54.330612 55.813956 
L 57.746939 55.540449 
L 61.163265 55.126863 
L 64.579592 54.618077 
L 67.995918 54.253282 
L 71.412245 53.360969 
L 74.828571 52.44645 
L 78.244898 51.555428 
L 81.661224 50.483954 
L 85.077551 49.579949 
L 88.493878 48.974824 
L 91.910204 47.826942 
L 95.326531 46.762973 
L 98.742857 46.456833 
L 102.159184 45.416246 
L 105.57551 43.609928 
L 108.991837 43.077146 
L 112.408163 45.080478 
L 115.82449 45.422558 
L 119.240816 45.245734 
L 122.657143 45.045642 
L 126.073469 45.900072 
L 129.489796 47.138148 
L 132.906122 48.49906 
L 136.322449 48.99881 
L 139.738776 50.645819 
L 143.155102 51.851273 
L 146.571429 52.823562 
L 149.987755 53.913813 
L 153.404082 54.107726 
L 156.820408 54.661224 
L 160.236735 55.239708 
L 163.653061 55.51804 
L 167.069388 55.635514 
L 170.485714 55.761065 
L 173.902041 55.917669 
L 177.318367 55.88343 
L 180.734694 55.891761 
L 184.15102 55.891761 
L 187.567347 55.891761 
L 190.983673 55.891761 
L 194.4 55.891761 
" style="fill:none;stroke:#fc8d62;stroke-dasharray:1.5,2.475;stroke-dashoffset:0;stroke-opacity:0.7;stroke-width:1.5;"/>
   </g>
   <g id="patch_3">
    <path d="M 112.408163 67.68 
L 112.408163 17.28 
" style="fill:none;stroke:#a9a9a9;stroke-linecap:square;stroke-linejoin:miter;stroke-width:2;"/>
   </g>
   <g id="patch_4">
    <path d="M 194.4 67.68 
L 194.4 17.28 
" style="fill:none;"/>
   </g>
   <g id="patch_5">
    <path d="M 27 55.891761 
L 194.4 55.891761 
" style="fill:none;stroke:#a9a9a9;stroke-linecap:square;stroke-linejoin:miter;stroke-width:2;"/>
   </g>
   <g id="patch_6">
    <path d="M 27 17.28 
L 194.4 17.28 
" style="fill:none;"/>
   </g>
   <g id="legend_1">
    <g id="line2d_8">
     <path d="M 152.47 26.448906 
L 166.47 26.448906 
" style="fill:none;stroke:#fc8d62;stroke-linecap:square;stroke-width:2;"/>
    </g>
    <g id="line2d_9"/>
    <g id="text_1">
     <!-- $\theta$ -->
     <g transform="translate(172.07 28.898906)scale(0.07 -0.07)">
      <defs>
       <path d="M 45.515625 34.671875 
L 14.453125 34.671875 
Q 12.359375 20.0625 14.5 13.875 
Q 17.1875 6.25 24.46875 6.25 
Q 31.78125 6.25 37.359375 13.921875 
Q 42.234375 20.65625 45.515625 34.671875 
z
M 47.015625 42.96875 
Q 48.34375 56.84375 46.625 61.71875 
Q 43.953125 69.4375 36.765625 69.4375 
Q 29.296875 69.4375 23.828125 61.8125 
Q 19.53125 55.671875 16.15625 42.96875 
z
M 38.1875 76.765625 
Q 49.90625 76.765625 54.59375 66.40625 
Q 59.28125 56.109375 55.71875 37.84375 
Q 52.203125 19.625 43.453125 9.28125 
Q 34.765625 -1.125 23.046875 -1.125 
Q 11.28125 -1.125 6.640625 9.28125 
Q 2 19.625 5.515625 37.84375 
Q 9.078125 56.109375 17.71875 66.40625 
Q 26.421875 76.765625 38.1875 76.765625 
z
" id="DejaVuSans-Oblique-952"/>
      </defs>
      <use transform="translate(0 0.234375)" xlink:href="#DejaVuSans-Oblique-952"/>
     </g>
    </g>
    <g id="line2d_10">
     <path d="M 152.47 36.723594 
L 166.47 36.723594 
" style="fill:none;stroke:#fc8d62;stroke-dasharray:1.5,2.475;stroke-dashoffset:0;stroke-opacity:0.7;stroke-width:1.5;"/>
    </g>
    <g id="line2d_11"/>
    <g id="text_2">
     <!-- No $\theta$ -->
     <g transform="translate(172.07 39.173594)scale(0.07 -0.07)">
      <defs>
       <path d="M 9.8125 72.90625 
L 23.09375 72.90625 
L 55.421875 11.921875 
L 55.421875 72.90625 
L 64.984375 72.90625 
L 64.984375 0 
L 51.703125 0 
L 19.390625 60.984375 
L 19.390625 0 
L 9.8125 0 
z
" id="DejaVuSans-78"/>
       <path d="M 30.609375 48.390625 
Q 23.390625 48.390625 19.1875 42.75 
Q 14.984375 37.109375 14.984375 27.296875 
Q 14.984375 17.484375 19.15625 11.84375 
Q 23.34375 6.203125 30.609375 6.203125 
Q 37.796875 6.203125 41.984375 11.859375 
Q 46.1875 17.53125 46.1875 27.296875 
Q 46.1875 37.015625 41.984375 42.703125 
Q 37.796875 48.390625 30.609375 48.390625 
z
M 30.609375 56 
Q 42.328125 56 49.015625 48.375 
Q 55.71875 40.765625 55.71875 27.296875 
Q 55.71875 13.875 49.015625 6.21875 
Q 42.328125 -1.421875 30.609375 -1.421875 
Q 18.84375 -1.421875 12.171875 6.21875 
Q 5.515625 13.875 5.515625 27.296875 
Q 5.515625 40.765625 12.171875 48.375 
Q 18.84375 56 30.609375 56 
z
" id="DejaVuSans-111"/>
       <path id="DejaVuSans-32"/>
      </defs>
      <use transform="translate(0 0.234375)" xlink:href="#DejaVuSans-78"/>
      <use transform="translate(74.804688 0.234375)" xlink:href="#DejaVuSans-111"/>
      <use transform="translate(135.986328 0.234375)" xlink:href="#DejaVuSans-32"/>
      <use transform="translate(167.773438 0.234375)" xlink:href="#DejaVuSans-Oblique-952"/>
     </g>
    </g>
   </g>
  </g>
  <g id="axes_2">
   <g id="patch_7">
    <path d="M 27 128.16 
L 194.4 128.16 
L 194.4 77.76 
L 27 77.76 
z
" style="fill:none;"/>
   </g>
   <g id="PolyCollection_3">
    <path clip-path="url(#p6ed83b83ec)" d="M 27 119.090835 
L 27 118.985341 
L 30.416327 119.138204 
L 33.832653 119.215173 
L 37.24898 119.19376 
L 40.665306 119.082167 
L 44.081633 118.91443 
L 47.497959 118.704984 
L 50.914286 118.329559 
L 54.330612 117.651053 
L 57.746939 116.562776 
L 61.163265 114.991577 
L 64.579592 112.901063 
L 67.995918 110.293186 
L 71.412245 107.206939 
L 74.828571 103.715803 
L 78.244898 99.924442 
L 81.661224 95.964392 
L 85.077551 91.989156 
L 88.493878 88.168881 
L 91.910204 84.684398 
L 95.326531 81.721157 
L 98.742857 79.46324 
L 102.159184 78.087771 
L 105.57551 77.76 
L 108.991837 78.629308 
L 112.408163 80.544876 
L 115.82449 84.380134 
L 119.240816 88.989983 
L 122.657143 94.278897 
L 126.073469 99.888927 
L 129.489796 105.49458 
L 132.906122 110.8133 
L 136.322449 115.612768 
L 139.738776 119.715028 
L 143.155102 122.999384 
L 146.571429 125.407051 
L 149.987755 126.943823 
L 153.404082 127.667912 
L 156.820408 127.674261 
L 160.236735 127.084942 
L 163.653061 126.041871 
L 167.069388 124.69951 
L 170.485714 123.217436 
L 173.902041 121.753582 
L 177.318367 120.459114 
L 180.734694 119.476476 
L 184.15102 118.901783 
L 187.567347 118.668889 
L 190.983673 118.670809 
L 194.4 118.805917 
L 194.4 118.932095 
L 194.4 118.932095 
L 190.983673 118.815706 
L 187.567347 118.828898 
L 184.15102 119.075546 
L 180.734694 119.670078 
L 177.318367 120.689052 
L 173.902041 122.03791 
L 170.485714 123.564544 
L 167.069388 125.10612 
L 163.653061 126.495119 
L 160.236735 127.565489 
L 156.820408 128.16 
L 153.404082 128.138995 
L 149.987755 127.390437 
L 146.571429 125.840011 
L 143.155102 123.45775 
L 139.738776 120.256256 
L 136.322449 116.289245 
L 132.906122 111.661012 
L 129.489796 106.533231 
L 126.073469 101.124633 
L 122.657143 95.706061 
L 119.240816 90.592616 
L 115.82449 86.132889 
L 112.408163 82.414189 
L 108.991837 80.574981 
L 105.57551 79.738977 
L 102.159184 80.05651 
L 98.742857 81.379728 
L 95.326531 83.546745 
L 91.910204 86.385464 
L 88.493878 89.718231 
L 85.077551 93.367122 
L 81.661224 97.159616 
L 78.244898 100.934375 
L 74.828571 104.546643 
L 71.412245 107.873246 
L 67.995918 110.816685 
L 64.579592 113.30842 
L 61.163265 115.311521 
L 57.746939 116.822141 
L 54.330612 117.870099 
L 50.914286 118.520016 
L 47.497959 118.871632 
L 44.081633 119.057382 
L 40.665306 119.199283 
L 37.24898 119.28792 
L 33.832653 119.297809 
L 30.416327 119.226305 
L 27 119.090835 
z
" style="fill:#66c2a5;fill-opacity:0.3;"/>
   </g>
   <g id="matplotlib.axis_3">
    <g id="xtick_6">
     <g id="line2d_12">
      <g>
       <use style="fill:#a9a9a9;stroke:#a9a9a9;stroke-width:2;" x="44.081633" xlink:href="#m7174035293" y="121.894039"/>
      </g>
     </g>
    </g>
    <g id="xtick_7">
     <g id="line2d_13">
      <g>
       <use style="fill:#a9a9a9;stroke:#a9a9a9;stroke-width:2;" x="78.244898" xlink:href="#m7174035293" y="121.894039"/>
      </g>
     </g>
    </g>
    <g id="xtick_8">
     <g id="line2d_14">
      <g>
       <use style="fill:#a9a9a9;stroke:#a9a9a9;stroke-width:2;" x="112.408163" xlink:href="#m7174035293" y="121.894039"/>
      </g>
     </g>
    </g>
    <g id="xtick_9">
     <g id="line2d_15">
      <g>
       <use style="fill:#a9a9a9;stroke:#a9a9a9;stroke-width:2;" x="146.571429" xlink:href="#m7174035293" y="121.894039"/>
      </g>
     </g>
    </g>
    <g id="xtick_10">
     <g id="line2d_16">
      <g>
       <use style="fill:#a9a9a9;stroke:#a9a9a9;stroke-width:2;" x="180.734694" xlink:href="#m7174035293" y="121.894039"/>
      </g>
     </g>
    </g>
   </g>
   <g id="matplotlib.axis_4"/>
   <g id="line2d_17">
    <path clip-path="url(#p6ed83b83ec)" d="M 27 119.038088 
L 30.416327 119.182255 
L 33.832653 119.256491 
L 37.24898 119.24084 
L 40.665306 119.140725 
L 44.081633 118.985906 
L 47.497959 118.788308 
L 50.914286 118.424788 
L 54.330612 117.760576 
L 57.746939 116.692459 
L 61.163265 115.151549 
L 64.579592 113.104741 
L 67.995918 110.554935 
L 71.412245 107.540092 
L 74.828571 104.131223 
L 78.244898 100.429408 
L 81.661224 96.562004 
L 85.077551 92.678139 
L 88.493878 88.943556 
L 91.910204 85.534931 
L 95.326531 82.633951 
L 98.742857 80.421484 
L 102.159184 79.07214 
L 105.57551 78.749489 
L 108.991837 79.602144 
L 112.408163 81.479533 
L 115.82449 85.256512 
L 119.240816 89.7913 
L 122.657143 94.992479 
L 126.073469 100.50678 
L 129.489796 106.013906 
L 132.906122 111.237156 
L 136.322449 115.951007 
L 139.738776 119.985642 
L 143.155102 123.228567 
L 146.571429 125.623531 
L 149.987755 127.16713 
L 153.404082 127.903453 
L 156.820408 127.917131 
L 160.236735 127.325216 
L 163.653061 126.268495 
L 167.069388 124.902815 
L 170.485714 123.39099 
L 173.902041 121.895746 
L 177.318367 120.574083 
L 180.734694 119.573277 
L 184.15102 118.988664 
L 187.567347 118.748894 
L 190.983673 118.743258 
L 194.4 118.869006 
" style="fill:none;stroke:#66c2a5;stroke-linecap:square;stroke-width:2;"/>
   </g>
   <g id="patch_8">
    <path d="M 112.408163 128.16 
L 112.408163 77.76 
" style="fill:none;stroke:#a9a9a9;stroke-linecap:square;stroke-linejoin:miter;stroke-width:2;"/>
   </g>
   <g id="patch_9">
    <path d="M 194.4 128.16 
L 194.4 77.76 
" style="fill:none;"/>
   </g>
   <g id="patch_10">
    <path d="M 27 121.894039 
L 194.4 121.894039 
" style="fill:none;stroke:#a9a9a9;stroke-linecap:square;stroke-linejoin:miter;stroke-width:2;"/>
   </g>
   <g id="patch_11">
    <path d="M 27 77.76 
L 194.4 77.76 
" style="fill:none;"/>
   </g>
  </g>
 </g>
 <defs>
  <clipPath id="pde15b4d08c">
   <rect height="50.4" width="167.4" x="27" y="17.28"/>
  </clipPath>
  <clipPath id="p6ed83b83ec">
   <rect height="50.4" width="167.4" x="27" y="77.76"/>
  </clipPath>
 </defs>
</svg>
