<?xml version="1.0" encoding="utf-8" standalone="no"?>
<!DOCTYPE svg PUBLIC "-//W3C//DTD SVG 1.1//EN"
  "http://www.w3.org/Graphics/SVG/1.1/DTD/svg11.dtd">
<!-- Created with matplotlib (https://matplotlib.org/) -->
<svg height="144pt" version="1.1" viewBox="0 0 144 144" width="144pt" xmlns="http://www.w3.org/2000/svg" xmlns:xlink="http://www.w3.org/1999/xlink">
 <metadata>
  <rdf:RDF xmlns:cc="http://creativecommons.org/ns#" xmlns:dc="http://purl.org/dc/elements/1.1/" xmlns:rdf="http://www.w3.org/1999/02/22-rdf-syntax-ns#">
   <cc:Work>
    <dc:type rdf:resource="http://purl.org/dc/dcmitype/StillImage"/>
    <dc:date>2021-10-11T19:03:38.025494</dc:date>
    <dc:format>image/svg+xml</dc:format>
    <dc:creator>
     <cc:Agent>
      <dc:title>Matplotlib v3.3.2, https://matplotlib.org/</dc:title>
     </cc:Agent>
    </dc:creator>
   </cc:Work>
  </rdf:RDF>
 </metadata>
 <defs>
  <style type="text/css">*{stroke-linecap:butt;stroke-linejoin:round;}</style>
 </defs>
 <g id="figure_1">
  <g id="patch_1">
   <path d="M 0 144 
L 144 144 
L 144 0 
L 0 0 
z
" style="fill:none;"/>
  </g>
  <g id="axes_1">
   <g id="patch_2">
    <path d="M 18 67.68 
L 129.6 67.68 
L 129.6 17.28 
L 18 17.28 
z
" style="fill:none;"/>
   </g>
   <g id="PolyCollection_1">
    <path clip-path="url(#p8f20619fd1)" d="M 18 61.5835 
L 18 61.5835 
L 20.277551 61.5835 
L 22.555102 61.5835 
L 24.832653 61.5835 
L 27.110204 61.5835 
L 29.387755 61.583459 
L 31.665306 61.542694 
L 33.942857 61.450286 
L 36.220408 61.442428 
L 38.497959 61.316529 
L 40.77551 61.162822 
L 43.053061 60.538335 
L 45.330612 59.48688 
L 47.608163 57.862838 
L 49.885714 54.692155 
L 52.163265 50.618694 
L 54.440816 45.401052 
L 56.718367 39.376144 
L 58.995918 33.055425 
L 61.273469 26.679347 
L 63.55102 21.147377 
L 65.828571 18.39116 
L 68.106122 17.28 
L 70.383673 18.840068 
L 72.661224 23.048469 
L 74.938776 47.497571 
L 77.216327 37.06422 
L 79.493878 45.177804 
L 81.771429 52.332224 
L 84.04898 58.168664 
L 86.326531 62.24678 
L 88.604082 64.683049 
L 90.881633 65.247093 
L 93.159184 64.957356 
L 95.436735 63.769036 
L 97.714286 62.213355 
L 99.991837 61.036943 
L 102.269388 60.063947 
L 104.546939 59.603619 
L 106.82449 59.664989 
L 109.102041 59.948101 
L 111.379592 60.497081 
L 113.657143 60.956749 
L 115.934694 61.369593 
L 118.212245 61.527032 
L 120.489796 61.583371 
L 122.767347 61.5835 
L 125.044898 61.5835 
L 127.322449 61.5835 
L 129.6 61.5835 
L 129.6 61.5835 
L 129.6 61.5835 
L 127.322449 61.5835 
L 125.044898 61.5835 
L 122.767347 61.5835 
L 120.489796 61.583795 
L 118.212245 61.61101 
L 115.934694 61.598195 
L 113.657143 61.326243 
L 111.379592 61.047793 
L 109.102041 60.668502 
L 106.82449 60.662731 
L 104.546939 60.779407 
L 102.269388 61.290967 
L 99.991837 62.596165 
L 97.714286 63.905358 
L 95.436735 65.746545 
L 93.159184 67.192129 
L 90.881633 67.68 
L 88.604082 67.609783 
L 86.326531 65.646408 
L 84.04898 61.205026 
L 81.771429 55.385057 
L 79.493878 48.255188 
L 77.216327 40.272924 
L 74.938776 48.747516 
L 72.661224 26.391291 
L 70.383673 21.942023 
L 68.106122 20.596723 
L 65.828571 21.538688 
L 63.55102 25.05392 
L 61.273469 29.917387 
L 58.995918 35.819552 
L 56.718367 41.806956 
L 54.440816 47.566354 
L 52.163265 52.534171 
L 49.885714 56.197044 
L 47.608163 58.962863 
L 45.330612 60.704057 
L 43.053061 61.482204 
L 40.77551 61.755464 
L 38.497959 61.857508 
L 36.220408 61.762503 
L 33.942857 61.664787 
L 31.665306 61.616792 
L 29.387755 61.583527 
L 27.110204 61.5835 
L 24.832653 61.5835 
L 22.555102 61.5835 
L 20.277551 61.5835 
L 18 61.5835 
z
" style="fill:#fc8d62;fill-opacity:0.2;"/>
   </g>
   <g id="PolyCollection_2">
    <path clip-path="url(#p8f20619fd1)" d="M 18 61.5835 
L 18 61.5835 
L 20.277551 61.5835 
L 22.555102 61.5835 
L 24.832653 61.5835 
L 27.110204 61.5835 
L 29.387755 61.583432 
L 31.665306 61.511731 
L 33.942857 61.341525 
L 36.220408 61.029426 
L 38.497959 60.546512 
L 40.77551 59.639461 
L 43.053061 58.807983 
L 45.330612 57.777774 
L 47.608163 56.040175 
L 49.885714 54.445853 
L 52.163265 52.362386 
L 54.440816 49.94062 
L 56.718367 48.307704 
L 58.995918 46.618608 
L 61.273469 44.232123 
L 63.55102 42.536259 
L 65.828571 40.235947 
L 68.106122 39.271325 
L 70.383673 38.458292 
L 72.661224 37.741899 
L 74.938776 52.251949 
L 77.216327 38.249523 
L 79.493878 38.746827 
L 81.771429 40.411502 
L 84.04898 42.069337 
L 86.326531 44.10375 
L 88.604082 45.841545 
L 90.881633 48.05032 
L 93.159184 49.813985 
L 95.436735 52.60397 
L 97.714286 54.086025 
L 99.991837 55.874516 
L 102.269388 57.165216 
L 104.546939 58.369216 
L 106.82449 59.384918 
L 109.102041 60.219759 
L 111.379592 60.836519 
L 113.657143 61.265355 
L 115.934694 61.434591 
L 118.212245 61.541458 
L 120.489796 61.583303 
L 122.767347 61.5835 
L 125.044898 61.5835 
L 127.322449 61.5835 
L 129.6 61.5835 
L 129.6 61.5835 
L 129.6 61.5835 
L 127.322449 61.5835 
L 125.044898 61.5835 
L 122.767347 61.5835 
L 120.489796 61.5839 
L 118.212245 61.626092 
L 115.934694 61.658344 
L 113.657143 61.619909 
L 111.379592 61.414718 
L 109.102041 61.123278 
L 106.82449 60.511665 
L 104.546939 59.644084 
L 102.269388 58.779783 
L 99.991837 57.542586 
L 97.714286 56.085969 
L 95.436735 54.466025 
L 93.159184 52.476266 
L 90.881633 50.406237 
L 88.604082 49.037279 
L 86.326531 46.926389 
L 84.04898 45.568706 
L 81.771429 43.371208 
L 79.493878 42.219545 
L 77.216327 41.601651 
L 74.938776 53.196532 
L 72.661224 40.861985 
L 70.383673 41.942014 
L 68.106122 42.730113 
L 65.828571 43.706622 
L 63.55102 45.302118 
L 61.273469 47.223826 
L 58.995918 49.163198 
L 56.718367 51.345473 
L 54.440816 52.517909 
L 52.163265 54.577035 
L 49.885714 55.943113 
L 47.608163 57.509451 
L 45.330612 58.871706 
L 43.053061 59.967829 
L 40.77551 60.576004 
L 38.497959 61.08554 
L 36.220408 61.373627 
L 33.942857 61.575328 
L 31.665306 61.611293 
L 29.387755 61.583545 
L 27.110204 61.5835 
L 24.832653 61.5835 
L 22.555102 61.5835 
L 20.277551 61.5835 
L 18 61.5835 
z
" style="fill:#fc8d62;fill-opacity:0.2;"/>
   </g>
   <g id="matplotlib.axis_1">
    <g id="xtick_1">
     <g id="line2d_1">
      <defs>
       <path d="M 0 0 
L 0 3.5 
" id="m59b620b99c" style="stroke:#a9a9a9;stroke-width:2;"/>
      </defs>
      <g>
       <use style="fill:#a9a9a9;stroke:#a9a9a9;stroke-width:2;" x="29.387755" xlink:href="#m59b620b99c" y="61.5835"/>
      </g>
     </g>
    </g>
    <g id="xtick_2">
     <g id="line2d_2">
      <g>
       <use style="fill:#a9a9a9;stroke:#a9a9a9;stroke-width:2;" x="52.163265" xlink:href="#m59b620b99c" y="61.5835"/>
      </g>
     </g>
    </g>
    <g id="xtick_3">
     <g id="line2d_3">
      <g>
       <use style="fill:#a9a9a9;stroke:#a9a9a9;stroke-width:2;" x="74.938776" xlink:href="#m59b620b99c" y="61.5835"/>
      </g>
     </g>
    </g>
    <g id="xtick_4">
     <g id="line2d_4">
      <g>
       <use style="fill:#a9a9a9;stroke:#a9a9a9;stroke-width:2;" x="97.714286" xlink:href="#m59b620b99c" y="61.5835"/>
      </g>
     </g>
    </g>
    <g id="xtick_5">
     <g id="line2d_5">
      <g>
       <use style="fill:#a9a9a9;stroke:#a9a9a9;stroke-width:2;" x="120.489796" xlink:href="#m59b620b99c" y="61.5835"/>
      </g>
     </g>
    </g>
   </g>
   <g id="matplotlib.axis_2"/>
   <g id="line2d_6">
    <path clip-path="url(#p8f20619fd1)" d="M 18 61.5835 
L 20.277551 61.5835 
L 22.555102 61.5835 
L 24.832653 61.5835 
L 27.110204 61.5835 
L 29.387755 61.583493 
L 31.665306 61.579743 
L 33.942857 61.557536 
L 36.220408 61.602466 
L 38.497959 61.587018 
L 40.77551 61.459143 
L 43.053061 61.010269 
L 45.330612 60.095468 
L 47.608163 58.412851 
L 49.885714 55.444599 
L 52.163265 51.576433 
L 54.440816 46.483703 
L 56.718367 40.59155 
L 58.995918 34.437488 
L 61.273469 28.298367 
L 63.55102 23.100649 
L 65.828571 19.964924 
L 68.106122 18.938361 
L 70.383673 20.391045 
L 72.661224 24.71988 
L 74.938776 48.122543 
L 77.216327 38.668572 
L 79.493878 46.716496 
L 81.771429 53.85864 
L 84.04898 59.686845 
L 86.326531 63.946594 
L 88.604082 66.146416 
L 90.881633 66.463546 
L 93.159184 66.074743 
L 95.436735 64.757791 
L 97.714286 63.059357 
L 99.991837 61.816554 
L 102.269388 60.677457 
L 104.546939 60.191513 
L 106.82449 60.16386 
L 109.102041 60.308302 
L 111.379592 60.772437 
L 113.657143 61.141496 
L 115.934694 61.483894 
L 118.212245 61.569021 
L 120.489796 61.583583 
L 122.767347 61.5835 
L 125.044898 61.5835 
L 127.322449 61.5835 
L 129.6 61.5835 
" style="fill:none;stroke:#fc8d62;stroke-linecap:square;stroke-width:2;"/>
   </g>
   <g id="line2d_7">
    <path clip-path="url(#p8f20619fd1)" d="M 18 61.5835 
L 20.277551 61.5835 
L 22.555102 61.5835 
L 24.832653 61.5835 
L 27.110204 61.5835 
L 29.387755 61.583488 
L 31.665306 61.561512 
L 33.942857 61.458426 
L 36.220408 61.201526 
L 38.497959 60.816026 
L 40.77551 60.107733 
L 43.053061 59.387906 
L 45.330612 58.32474 
L 47.608163 56.774813 
L 49.885714 55.194483 
L 52.163265 53.46971 
L 54.440816 51.229264 
L 56.718367 49.826589 
L 58.995918 47.890903 
L 61.273469 45.727975 
L 63.55102 43.919188 
L 65.828571 41.971285 
L 68.106122 41.000719 
L 70.383673 40.200153 
L 72.661224 39.301942 
L 74.938776 52.724241 
L 77.216327 39.925587 
L 79.493878 40.483186 
L 81.771429 41.891355 
L 84.04898 43.819021 
L 86.326531 45.515069 
L 88.604082 47.439412 
L 90.881633 49.228278 
L 93.159184 51.145125 
L 95.436735 53.534998 
L 97.714286 55.085997 
L 99.991837 56.708551 
L 102.269388 57.9725 
L 104.546939 59.00665 
L 106.82449 59.948292 
L 109.102041 60.671518 
L 111.379592 61.125619 
L 113.657143 61.442632 
L 115.934694 61.546468 
L 118.212245 61.583775 
L 120.489796 61.583602 
L 122.767347 61.5835 
L 125.044898 61.5835 
L 127.322449 61.5835 
L 129.6 61.5835 
" style="fill:none;stroke:#fc8d62;stroke-dasharray:1.5,1.5;stroke-dashoffset:0;stroke-opacity:0.7;stroke-width:1.5;"/>
   </g>
   <g id="patch_3">
    <path d="M 74.938776 67.68 
L 74.938776 17.28 
" style="fill:none;stroke:#a9a9a9;stroke-linecap:square;stroke-linejoin:miter;stroke-width:2;"/>
   </g>
   <g id="patch_4">
    <path d="M 129.6 67.68 
L 129.6 17.28 
" style="fill:none;"/>
   </g>
   <g id="patch_5">
    <path d="M 18 61.5835 
L 129.6 61.5835 
" style="fill:none;stroke:#a9a9a9;stroke-linecap:square;stroke-linejoin:miter;stroke-width:2;"/>
   </g>
   <g id="patch_6">
    <path d="M 18 17.28 
L 129.6 17.28 
" style="fill:none;"/>
   </g>
   <g id="legend_1">
    <g id="line2d_8">
     <path d="M 87.67 26.448906 
L 101.67 26.448906 
" style="fill:none;stroke:#fc8d62;stroke-linecap:square;stroke-width:2;"/>
    </g>
    <g id="line2d_9"/>
    <g id="text_1">
     <!-- $\theta$ -->
     <g transform="translate(107.27 28.898906)scale(0.07 -0.07)">
      <defs>
       <path d="M 45.515625 34.671875 
L 14.453125 34.671875 
Q 12.359375 20.0625 14.5 13.875 
Q 17.1875 6.25 24.46875 6.25 
Q 31.78125 6.25 37.359375 13.921875 
Q 42.234375 20.65625 45.515625 34.671875 
z
M 47.015625 42.96875 
Q 48.34375 56.84375 46.625 61.71875 
Q 43.953125 69.4375 36.765625 69.4375 
Q 29.296875 69.4375 23.828125 61.8125 
Q 19.53125 55.671875 16.15625 42.96875 
z
M 38.1875 76.765625 
Q 49.90625 76.765625 54.59375 66.40625 
Q 59.28125 56.109375 55.71875 37.84375 
Q 52.203125 19.625 43.453125 9.28125 
Q 34.765625 -1.125 23.046875 -1.125 
Q 11.28125 -1.125 6.640625 9.28125 
Q 2 19.625 5.515625 37.84375 
Q 9.078125 56.109375 17.71875 66.40625 
Q 26.421875 76.765625 38.1875 76.765625 
z
" id="DejaVuSans-Oblique-952"/>
      </defs>
      <use transform="translate(0 0.234375)" xlink:href="#DejaVuSans-Oblique-952"/>
     </g>
    </g>
    <g id="line2d_10">
     <path d="M 87.67 36.723594 
L 101.67 36.723594 
" style="fill:none;stroke:#fc8d62;stroke-dasharray:1.5,1.5;stroke-dashoffset:0;stroke-opacity:0.7;stroke-width:1.5;"/>
    </g>
    <g id="line2d_11"/>
    <g id="text_2">
     <!-- No $\theta$ -->
     <g transform="translate(107.27 39.173594)scale(0.07 -0.07)">
      <defs>
       <path d="M 9.8125 72.90625 
L 23.09375 72.90625 
L 55.421875 11.921875 
L 55.421875 72.90625 
L 64.984375 72.90625 
L 64.984375 0 
L 51.703125 0 
L 19.390625 60.984375 
L 19.390625 0 
L 9.8125 0 
z
" id="DejaVuSans-78"/>
       <path d="M 30.609375 48.390625 
Q 23.390625 48.390625 19.1875 42.75 
Q 14.984375 37.109375 14.984375 27.296875 
Q 14.984375 17.484375 19.15625 11.84375 
Q 23.34375 6.203125 30.609375 6.203125 
Q 37.796875 6.203125 41.984375 11.859375 
Q 46.1875 17.53125 46.1875 27.296875 
Q 46.1875 37.015625 41.984375 42.703125 
Q 37.796875 48.390625 30.609375 48.390625 
z
M 30.609375 56 
Q 42.328125 56 49.015625 48.375 
Q 55.71875 40.765625 55.71875 27.296875 
Q 55.71875 13.875 49.015625 6.21875 
Q 42.328125 -1.421875 30.609375 -1.421875 
Q 18.84375 -1.421875 12.171875 6.21875 
Q 5.515625 13.875 5.515625 27.296875 
Q 5.515625 40.765625 12.171875 48.375 
Q 18.84375 56 30.609375 56 
z
" id="DejaVuSans-111"/>
       <path id="DejaVuSans-32"/>
      </defs>
      <use transform="translate(0 0.234375)" xlink:href="#DejaVuSans-78"/>
      <use transform="translate(74.804688 0.234375)" xlink:href="#DejaVuSans-111"/>
      <use transform="translate(135.986328 0.234375)" xlink:href="#DejaVuSans-32"/>
      <use transform="translate(167.773438 0.234375)" xlink:href="#DejaVuSans-Oblique-952"/>
     </g>
    </g>
   </g>
  </g>
  <g id="axes_2">
   <g id="patch_7">
    <path d="M 18 128.16 
L 129.6 128.16 
L 129.6 77.76 
L 18 77.76 
z
" style="fill:none;"/>
   </g>
   <g id="PolyCollection_3">
    <path clip-path="url(#p6f2e7135b7)" d="M 18 120.454854 
L 18 120.374428 
L 20.277551 120.596317 
L 22.555102 120.662582 
L 24.832653 120.580917 
L 27.110204 120.400256 
L 29.387755 120.199315 
L 31.665306 120.027427 
L 33.942857 119.743868 
L 36.220408 119.186261 
L 38.497959 118.22693 
L 40.77551 116.77441 
L 43.053061 114.778325 
L 45.330612 112.231084 
L 47.608163 109.164671 
L 49.885714 105.647367 
L 52.163265 101.780227 
L 54.440816 97.692949 
L 56.718367 93.540053 
L 58.995918 89.496094 
L 61.273469 85.750458 
L 63.55102 82.501944 
L 65.828571 79.953432 
L 68.106122 78.307035 
L 70.383673 77.76 
L 72.661224 78.501479 
L 74.938776 80.700192 
L 77.216327 84.446036 
L 79.493878 89.336735 
L 81.771429 94.923264 
L 84.04898 100.786556 
L 86.326531 106.561569 
L 88.604082 111.946432 
L 90.881633 116.707286 
L 93.159184 120.679872 
L 95.436735 123.768642 
L 97.714286 125.943941 
L 99.991837 127.23527 
L 102.269388 127.720389 
L 104.546939 127.512808 
L 106.82449 126.751583 
L 109.102041 125.591779 
L 111.379592 124.196328 
L 113.657143 122.729063 
L 115.934694 121.349536 
L 118.212245 120.21155 
L 120.489796 119.46647 
L 122.767347 119.211426 
L 125.044898 119.326427 
L 127.322449 119.647496 
L 129.6 120.033422 
L 129.6 120.141414 
L 129.6 120.141414 
L 127.322449 119.782295 
L 125.044898 119.482462 
L 122.767347 119.380489 
L 120.489796 119.641702 
L 118.212245 120.395102 
L 115.934694 121.557938 
L 113.657143 122.980191 
L 111.379592 124.498771 
L 109.102041 125.943844 
L 106.82449 127.144483 
L 104.546939 127.934507 
L 102.269388 128.16 
L 99.991837 127.688309 
L 97.714286 126.417259 
L 95.436735 124.284055 
L 93.159184 121.270899 
L 90.881633 117.410347 
L 88.604082 112.792292 
L 86.326531 107.571073 
L 84.04898 101.969399 
L 81.771429 96.278207 
L 79.493878 90.852059 
L 77.216327 86.100055 
L 74.938776 82.462 
L 72.661224 80.33249 
L 70.383673 79.618467 
L 68.106122 80.150536 
L 65.828571 81.740812 
L 63.55102 84.195157 
L 61.273469 87.316288 
L 58.995918 90.907721 
L 56.718367 94.778311 
L 54.440816 98.747166 
L 52.163265 102.648693 
L 49.885714 106.337372 
L 47.608163 109.691866 
L 45.330612 112.618981 
L 43.053061 115.056532 
L 40.77551 116.975871 
L 38.497959 118.383379 
L 36.220408 119.320389 
L 33.942857 119.865983 
L 31.665306 120.140429 
L 29.387755 120.302184 
L 27.110204 120.488493 
L 24.832653 120.65142 
L 22.555102 120.719702 
L 20.277551 120.656323 
L 18 120.454854 
z
" style="fill:#66c2a5;fill-opacity:0.2;"/>
   </g>
   <g id="matplotlib.axis_3">
    <g id="xtick_6">
     <g id="line2d_12">
      <g>
       <use style="fill:#a9a9a9;stroke:#a9a9a9;stroke-width:2;" x="29.387755" xlink:href="#m59b620b99c" y="122.121342"/>
      </g>
     </g>
    </g>
    <g id="xtick_7">
     <g id="line2d_13">
      <g>
       <use style="fill:#a9a9a9;stroke:#a9a9a9;stroke-width:2;" x="52.163265" xlink:href="#m59b620b99c" y="122.121342"/>
      </g>
     </g>
    </g>
    <g id="xtick_8">
     <g id="line2d_14">
      <g>
       <use style="fill:#a9a9a9;stroke:#a9a9a9;stroke-width:2;" x="74.938776" xlink:href="#m59b620b99c" y="122.121342"/>
      </g>
     </g>
    </g>
    <g id="xtick_9">
     <g id="line2d_15">
      <g>
       <use style="fill:#a9a9a9;stroke:#a9a9a9;stroke-width:2;" x="97.714286" xlink:href="#m59b620b99c" y="122.121342"/>
      </g>
     </g>
    </g>
    <g id="xtick_10">
     <g id="line2d_16">
      <g>
       <use style="fill:#a9a9a9;stroke:#a9a9a9;stroke-width:2;" x="120.489796" xlink:href="#m59b620b99c" y="122.121342"/>
      </g>
     </g>
    </g>
   </g>
   <g id="matplotlib.axis_4"/>
   <g id="line2d_17">
    <path clip-path="url(#p6f2e7135b7)" d="M 18 120.414641 
L 20.277551 120.62632 
L 22.555102 120.691142 
L 24.832653 120.616168 
L 27.110204 120.444375 
L 29.387755 120.250749 
L 31.665306 120.083928 
L 33.942857 119.804925 
L 36.220408 119.253325 
L 38.497959 118.305154 
L 40.77551 116.87514 
L 43.053061 114.917429 
L 45.330612 112.425032 
L 47.608163 109.428268 
L 49.885714 105.99237 
L 52.163265 102.21446 
L 54.440816 98.220058 
L 56.718367 94.159182 
L 58.995918 90.201908 
L 61.273469 86.533373 
L 63.55102 83.34855 
L 65.828571 80.847122 
L 68.106122 79.228785 
L 70.383673 78.689234 
L 72.661224 79.416984 
L 74.938776 81.581096 
L 77.216327 85.273045 
L 79.493878 90.094397 
L 81.771429 95.600735 
L 84.04898 101.377978 
L 86.326531 107.066321 
L 88.604082 112.369362 
L 90.881633 117.058817 
L 93.159184 120.975385 
L 95.436735 124.026349 
L 97.714286 126.1806 
L 99.991837 127.461789 
L 102.269388 127.940195 
L 104.546939 127.723657 
L 106.82449 126.948033 
L 109.102041 125.767812 
L 111.379592 124.34755 
L 113.657143 122.854627 
L 115.934694 121.453737 
L 118.212245 120.303326 
L 120.489796 119.554086 
L 122.767347 119.295957 
L 125.044898 119.404444 
L 127.322449 119.714895 
L 129.6 120.087418 
" style="fill:none;stroke:#66c2a5;stroke-linecap:square;stroke-width:2;"/>
   </g>
   <g id="patch_8">
    <path d="M 74.938776 128.16 
L 74.938776 77.76 
" style="fill:none;stroke:#a9a9a9;stroke-linecap:square;stroke-linejoin:miter;stroke-width:2;"/>
   </g>
   <g id="patch_9">
    <path d="M 129.6 128.16 
L 129.6 77.76 
" style="fill:none;"/>
   </g>
   <g id="patch_10">
    <path d="M 18 122.121342 
L 129.6 122.121342 
" style="fill:none;stroke:#a9a9a9;stroke-linecap:square;stroke-linejoin:miter;stroke-width:2;"/>
   </g>
   <g id="patch_11">
    <path d="M 18 77.76 
L 129.6 77.76 
" style="fill:none;"/>
   </g>
  </g>
 </g>
 <defs>
  <clipPath id="p8f20619fd1">
   <rect height="50.4" width="111.6" x="18" y="17.28"/>
  </clipPath>
  <clipPath id="p6f2e7135b7">
   <rect height="50.4" width="111.6" x="18" y="77.76"/>
  </clipPath>
 </defs>
</svg>
