<?xml version="1.0" encoding="utf-8" standalone="no"?>
<!DOCTYPE svg PUBLIC "-//W3C//DTD SVG 1.1//EN"
  "http://www.w3.org/Graphics/SVG/1.1/DTD/svg11.dtd">
<!-- Created with matplotlib (https://matplotlib.org/) -->
<svg height="144pt" version="1.1" viewBox="0 0 144 144" width="144pt" xmlns="http://www.w3.org/2000/svg" xmlns:xlink="http://www.w3.org/1999/xlink">
 <metadata>
  <rdf:RDF xmlns:cc="http://creativecommons.org/ns#" xmlns:dc="http://purl.org/dc/elements/1.1/" xmlns:rdf="http://www.w3.org/1999/02/22-rdf-syntax-ns#">
   <cc:Work>
    <dc:type rdf:resource="http://purl.org/dc/dcmitype/StillImage"/>
    <dc:date>2021-10-11T19:18:00.120883</dc:date>
    <dc:format>image/svg+xml</dc:format>
    <dc:creator>
     <cc:Agent>
      <dc:title>Matplotlib v3.3.2, https://matplotlib.org/</dc:title>
     </cc:Agent>
    </dc:creator>
   </cc:Work>
  </rdf:RDF>
 </metadata>
 <defs>
  <style type="text/css">*{stroke-linecap:butt;stroke-linejoin:round;}</style>
 </defs>
 <g id="figure_1">
  <g id="patch_1">
   <path d="M 0 144 
L 144 144 
L 144 0 
L 0 0 
z
" style="fill:none;"/>
  </g>
  <g id="axes_1">
   <g id="patch_2">
    <path d="M 18 67.68 
L 129.6 67.68 
L 129.6 17.28 
L 18 17.28 
z
" style="fill:none;"/>
   </g>
   <g id="PolyCollection_1">
    <path clip-path="url(#p49090d7a86)" d="M 18 63.394307 
L 18 63.394307 
L 20.277551 63.394307 
L 22.555102 63.394307 
L 24.832653 63.394307 
L 27.110204 63.394307 
L 29.387755 63.394199 
L 31.665306 63.246747 
L 33.942857 63.018238 
L 36.220408 62.657734 
L 38.497959 62.027155 
L 40.77551 60.856769 
L 43.053061 58.548983 
L 45.330612 56.448753 
L 47.608163 52.905666 
L 49.885714 49.108732 
L 52.163265 44.503792 
L 54.440816 38.549182 
L 56.718367 32.978733 
L 58.995918 29.335911 
L 61.273469 23.133394 
L 63.55102 20.076979 
L 65.828571 17.7928 
L 68.106122 17.28 
L 70.383673 18.324496 
L 72.661224 22.513327 
L 74.938776 43.34531 
L 77.216327 32.172818 
L 79.493878 37.555697 
L 81.771429 43.492035 
L 84.04898 48.61634 
L 86.326531 52.899178 
L 88.604082 56.865496 
L 90.881633 58.608182 
L 93.159184 60.246621 
L 95.436735 61.042568 
L 97.714286 61.36206 
L 99.991837 61.299045 
L 102.269388 61.25045 
L 104.546939 61.709434 
L 106.82449 61.687704 
L 109.102041 61.933827 
L 111.379592 62.240542 
L 113.657143 62.810026 
L 115.934694 63.050867 
L 118.212245 63.286156 
L 120.489796 63.393999 
L 122.767347 63.394307 
L 125.044898 63.394307 
L 127.322449 63.394307 
L 129.6 63.394307 
L 129.6 63.394307 
L 129.6 63.394307 
L 127.322449 63.394307 
L 125.044898 63.394307 
L 122.767347 63.394307 
L 120.489796 63.394727 
L 118.212245 63.51807 
L 115.934694 63.659944 
L 113.657143 63.727498 
L 111.379592 63.601262 
L 109.102041 63.772884 
L 106.82449 64.376568 
L 104.546939 64.748209 
L 102.269388 65.242583 
L 99.991837 65.569496 
L 97.714286 66.334617 
L 95.436735 66.885601 
L 93.159184 67.68 
L 90.881633 64.879439 
L 88.604082 64.590612 
L 86.326531 61.499574 
L 84.04898 57.855263 
L 81.771429 52.801975 
L 79.493878 48.815738 
L 77.216327 40.397024 
L 74.938776 45.790181 
L 72.661224 31.579196 
L 70.383673 28.497105 
L 68.106122 27.293677 
L 65.828571 26.66508 
L 63.55102 28.640351 
L 61.273469 32.024189 
L 58.995918 36.56693 
L 56.718367 40.284476 
L 54.440816 45.01175 
L 52.163265 49.716585 
L 49.885714 53.96792 
L 47.608163 57.543474 
L 45.330612 59.570573 
L 43.053061 61.633169 
L 40.77551 62.738349 
L 38.497959 63.475808 
L 36.220408 63.536293 
L 33.942857 63.62165 
L 31.665306 63.466015 
L 29.387755 63.394389 
L 27.110204 63.394307 
L 24.832653 63.394307 
L 22.555102 63.394307 
L 20.277551 63.394307 
L 18 63.394307 
z
" style="fill:#fc8d62;fill-opacity:0.2;"/>
   </g>
   <g id="PolyCollection_2">
    <path clip-path="url(#p49090d7a86)" d="M 18 63.394307 
L 18 63.394307 
L 20.277551 63.394307 
L 22.555102 63.394307 
L 24.832653 63.394307 
L 27.110204 63.394307 
L 29.387755 63.394307 
L 31.665306 63.277606 
L 33.942857 63.013071 
L 36.220408 62.577273 
L 38.497959 61.470131 
L 40.77551 60.938188 
L 43.053061 59.349838 
L 45.330612 57.59873 
L 47.608163 56.044091 
L 49.885714 53.701053 
L 52.163265 51.985097 
L 54.440816 49.009205 
L 56.718367 46.075363 
L 58.995918 43.431348 
L 61.273469 41.456308 
L 63.55102 37.755961 
L 65.828571 34.923324 
L 68.106122 33.89918 
L 70.383673 32.388224 
L 72.661224 32.191681 
L 74.938776 45.83686 
L 77.216327 31.696116 
L 79.493878 34.287049 
L 81.771429 34.207116 
L 84.04898 38.319332 
L 86.326531 40.671928 
L 88.604082 41.879478 
L 90.881633 44.464322 
L 93.159184 46.989491 
L 95.436735 51.126349 
L 97.714286 52.668998 
L 99.991837 54.868114 
L 102.269388 57.268677 
L 104.546939 58.529188 
L 106.82449 59.72476 
L 109.102041 61.574431 
L 111.379592 62.294319 
L 113.657143 62.62681 
L 115.934694 63.015138 
L 118.212245 63.321174 
L 120.489796 63.394297 
L 122.767347 63.394307 
L 125.044898 63.394307 
L 127.322449 63.394307 
L 129.6 63.394307 
L 129.6 63.394307 
L 129.6 63.394307 
L 127.322449 63.394307 
L 125.044898 63.394307 
L 122.767347 63.394307 
L 120.489796 63.394326 
L 118.212245 63.492232 
L 115.934694 63.603635 
L 113.657143 63.602189 
L 111.379592 63.96469 
L 109.102041 63.181534 
L 106.82449 62.919855 
L 104.546939 62.342597 
L 102.269388 61.080429 
L 99.991837 59.840954 
L 97.714286 58.216853 
L 95.436735 56.015228 
L 93.159184 54.137247 
L 90.881633 52.500817 
L 88.604082 49.609029 
L 86.326531 48.604614 
L 84.04898 46.188503 
L 81.771429 44.362948 
L 79.493878 42.977011 
L 77.216327 41.12137 
L 74.938776 48.143991 
L 72.661224 42.307384 
L 70.383673 40.992892 
L 68.106122 43.615996 
L 65.828571 43.622484 
L 63.55102 45.279659 
L 61.273469 48.536588 
L 58.995918 50.478051 
L 56.718367 52.636778 
L 54.440816 53.950807 
L 52.163265 56.415071 
L 49.885714 58.803593 
L 47.608163 59.815651 
L 45.330612 61.447902 
L 43.053061 62.932159 
L 40.77551 62.539476 
L 38.497959 63.071446 
L 36.220408 63.542119 
L 33.942857 63.569996 
L 31.665306 63.46267 
L 29.387755 63.394308 
L 27.110204 63.394307 
L 24.832653 63.394307 
L 22.555102 63.394307 
L 20.277551 63.394307 
L 18 63.394307 
z
" style="fill:#fc8d62;fill-opacity:0.2;"/>
   </g>
   <g id="matplotlib.axis_1">
    <g id="xtick_1">
     <g id="line2d_1">
      <defs>
       <path d="M 0 0 
L 0 3.5 
" id="m8c6abb1b62" style="stroke:#a9a9a9;stroke-width:2;"/>
      </defs>
      <g>
       <use style="fill:#a9a9a9;stroke:#a9a9a9;stroke-width:2;" x="29.387755" xlink:href="#m8c6abb1b62" y="63.394307"/>
      </g>
     </g>
    </g>
    <g id="xtick_2">
     <g id="line2d_2">
      <g>
       <use style="fill:#a9a9a9;stroke:#a9a9a9;stroke-width:2;" x="52.163265" xlink:href="#m8c6abb1b62" y="63.394307"/>
      </g>
     </g>
    </g>
    <g id="xtick_3">
     <g id="line2d_3">
      <g>
       <use style="fill:#a9a9a9;stroke:#a9a9a9;stroke-width:2;" x="74.938776" xlink:href="#m8c6abb1b62" y="63.394307"/>
      </g>
     </g>
    </g>
    <g id="xtick_4">
     <g id="line2d_4">
      <g>
       <use style="fill:#a9a9a9;stroke:#a9a9a9;stroke-width:2;" x="97.714286" xlink:href="#m8c6abb1b62" y="63.394307"/>
      </g>
     </g>
    </g>
    <g id="xtick_5">
     <g id="line2d_5">
      <g>
       <use style="fill:#a9a9a9;stroke:#a9a9a9;stroke-width:2;" x="120.489796" xlink:href="#m8c6abb1b62" y="63.394307"/>
      </g>
     </g>
    </g>
   </g>
   <g id="matplotlib.axis_2"/>
   <g id="line2d_6">
    <path clip-path="url(#p49090d7a86)" d="M 18 63.394307 
L 20.277551 63.394307 
L 22.555102 63.394307 
L 24.832653 63.394307 
L 27.110204 63.394307 
L 29.387755 63.394294 
L 31.665306 63.356381 
L 33.942857 63.319944 
L 36.220408 63.097014 
L 38.497959 62.751481 
L 40.77551 61.797559 
L 43.053061 60.091076 
L 45.330612 58.009663 
L 47.608163 55.22457 
L 49.885714 51.538326 
L 52.163265 47.110188 
L 54.440816 41.780466 
L 56.718367 36.631605 
L 58.995918 32.95142 
L 61.273469 27.578792 
L 63.55102 24.358665 
L 65.828571 22.22894 
L 68.106122 22.286838 
L 70.383673 23.4108 
L 72.661224 27.046261 
L 74.938776 44.567745 
L 77.216327 36.284921 
L 79.493878 43.185718 
L 81.771429 48.147005 
L 84.04898 53.235802 
L 86.326531 57.199376 
L 88.604082 60.728054 
L 90.881633 61.743811 
L 93.159184 63.96331 
L 95.436735 63.964084 
L 97.714286 63.848338 
L 99.991837 63.43427 
L 102.269388 63.246516 
L 104.546939 63.228822 
L 106.82449 63.032136 
L 109.102041 62.853356 
L 111.379592 62.920902 
L 113.657143 63.268762 
L 115.934694 63.355406 
L 118.212245 63.402113 
L 120.489796 63.394363 
L 122.767347 63.394307 
L 125.044898 63.394307 
L 127.322449 63.394307 
L 129.6 63.394307 
" style="fill:none;stroke:#fc8d62;stroke-linecap:square;stroke-width:2;"/>
   </g>
   <g id="line2d_7">
    <path clip-path="url(#p49090d7a86)" d="M 18 63.394307 
L 20.277551 63.394307 
L 22.555102 63.394307 
L 24.832653 63.394307 
L 27.110204 63.394307 
L 29.387755 63.394307 
L 31.665306 63.370138 
L 33.942857 63.291533 
L 36.220408 63.059696 
L 38.497959 62.270789 
L 40.77551 61.738832 
L 43.053061 61.140998 
L 45.330612 59.523316 
L 47.608163 57.929871 
L 49.885714 56.252323 
L 52.163265 54.200084 
L 54.440816 51.480006 
L 56.718367 49.356071 
L 58.995918 46.9547 
L 61.273469 44.996448 
L 63.55102 41.51781 
L 65.828571 39.272904 
L 68.106122 38.757588 
L 70.383673 36.690558 
L 72.661224 37.249532 
L 74.938776 46.990426 
L 77.216327 36.408743 
L 79.493878 38.63203 
L 81.771429 39.285032 
L 84.04898 42.253917 
L 86.326531 44.638271 
L 88.604082 45.744254 
L 90.881633 48.482569 
L 93.159184 50.563369 
L 95.436735 53.570788 
L 97.714286 55.442926 
L 99.991837 57.354534 
L 102.269388 59.174553 
L 104.546939 60.435892 
L 106.82449 61.322307 
L 109.102041 62.377982 
L 111.379592 63.129504 
L 113.657143 63.114499 
L 115.934694 63.309387 
L 118.212245 63.406703 
L 120.489796 63.394311 
L 122.767347 63.394307 
L 125.044898 63.394307 
L 127.322449 63.394307 
L 129.6 63.394307 
" style="fill:none;stroke:#fc8d62;stroke-dasharray:1.5,1.5;stroke-dashoffset:0;stroke-opacity:0.7;stroke-width:1.5;"/>
   </g>
   <g id="patch_3">
    <path d="M 74.938776 67.68 
L 74.938776 17.28 
" style="fill:none;stroke:#a9a9a9;stroke-linecap:square;stroke-linejoin:miter;stroke-width:2;"/>
   </g>
   <g id="patch_4">
    <path d="M 129.6 67.68 
L 129.6 17.28 
" style="fill:none;"/>
   </g>
   <g id="patch_5">
    <path d="M 18 63.394307 
L 129.6 63.394307 
" style="fill:none;stroke:#a9a9a9;stroke-linecap:square;stroke-linejoin:miter;stroke-width:2;"/>
   </g>
   <g id="patch_6">
    <path d="M 18 17.28 
L 129.6 17.28 
" style="fill:none;"/>
   </g>
   <g id="legend_1">
    <g id="line2d_8">
     <path d="M 87.67 26.448906 
L 101.67 26.448906 
" style="fill:none;stroke:#fc8d62;stroke-linecap:square;stroke-width:2;"/>
    </g>
    <g id="line2d_9"/>
    <g id="text_1">
     <!-- $\theta$ -->
     <g transform="translate(107.27 28.898906)scale(0.07 -0.07)">
      <defs>
       <path d="M 45.515625 34.671875 
L 14.453125 34.671875 
Q 12.359375 20.0625 14.5 13.875 
Q 17.1875 6.25 24.46875 6.25 
Q 31.78125 6.25 37.359375 13.921875 
Q 42.234375 20.65625 45.515625 34.671875 
z
M 47.015625 42.96875 
Q 48.34375 56.84375 46.625 61.71875 
Q 43.953125 69.4375 36.765625 69.4375 
Q 29.296875 69.4375 23.828125 61.8125 
Q 19.53125 55.671875 16.15625 42.96875 
z
M 38.1875 76.765625 
Q 49.90625 76.765625 54.59375 66.40625 
Q 59.28125 56.109375 55.71875 37.84375 
Q 52.203125 19.625 43.453125 9.28125 
Q 34.765625 -1.125 23.046875 -1.125 
Q 11.28125 -1.125 6.640625 9.28125 
Q 2 19.625 5.515625 37.84375 
Q 9.078125 56.109375 17.71875 66.40625 
Q 26.421875 76.765625 38.1875 76.765625 
z
" id="DejaVuSans-Oblique-952"/>
      </defs>
      <use transform="translate(0 0.234375)" xlink:href="#DejaVuSans-Oblique-952"/>
     </g>
    </g>
    <g id="line2d_10">
     <path d="M 87.67 36.723594 
L 101.67 36.723594 
" style="fill:none;stroke:#fc8d62;stroke-dasharray:1.5,1.5;stroke-dashoffset:0;stroke-opacity:0.7;stroke-width:1.5;"/>
    </g>
    <g id="line2d_11"/>
    <g id="text_2">
     <!-- No $\theta$ -->
     <g transform="translate(107.27 39.173594)scale(0.07 -0.07)">
      <defs>
       <path d="M 9.8125 72.90625 
L 23.09375 72.90625 
L 55.421875 11.921875 
L 55.421875 72.90625 
L 64.984375 72.90625 
L 64.984375 0 
L 51.703125 0 
L 19.390625 60.984375 
L 19.390625 0 
L 9.8125 0 
z
" id="DejaVuSans-78"/>
       <path d="M 30.609375 48.390625 
Q 23.390625 48.390625 19.1875 42.75 
Q 14.984375 37.109375 14.984375 27.296875 
Q 14.984375 17.484375 19.15625 11.84375 
Q 23.34375 6.203125 30.609375 6.203125 
Q 37.796875 6.203125 41.984375 11.859375 
Q 46.1875 17.53125 46.1875 27.296875 
Q 46.1875 37.015625 41.984375 42.703125 
Q 37.796875 48.390625 30.609375 48.390625 
z
M 30.609375 56 
Q 42.328125 56 49.015625 48.375 
Q 55.71875 40.765625 55.71875 27.296875 
Q 55.71875 13.875 49.015625 6.21875 
Q 42.328125 -1.421875 30.609375 -1.421875 
Q 18.84375 -1.421875 12.171875 6.21875 
Q 5.515625 13.875 5.515625 27.296875 
Q 5.515625 40.765625 12.171875 48.375 
Q 18.84375 56 30.609375 56 
z
" id="DejaVuSans-111"/>
       <path id="DejaVuSans-32"/>
      </defs>
      <use transform="translate(0 0.234375)" xlink:href="#DejaVuSans-78"/>
      <use transform="translate(74.804688 0.234375)" xlink:href="#DejaVuSans-111"/>
      <use transform="translate(135.986328 0.234375)" xlink:href="#DejaVuSans-32"/>
      <use transform="translate(167.773438 0.234375)" xlink:href="#DejaVuSans-Oblique-952"/>
     </g>
    </g>
   </g>
  </g>
  <g id="axes_2">
   <g id="patch_7">
    <path d="M 18 128.16 
L 129.6 128.16 
L 129.6 77.76 
L 18 77.76 
z
" style="fill:none;"/>
   </g>
   <g id="PolyCollection_3">
    <path clip-path="url(#pa0a31162ce)" d="M 18 120.550808 
L 18 120.476538 
L 20.277551 120.690045 
L 22.555102 120.749432 
L 24.832653 120.663854 
L 27.110204 120.481148 
L 29.387755 120.278978 
L 31.665306 120.106326 
L 33.942857 119.822822 
L 36.220408 119.266356 
L 38.497959 118.309687 
L 40.77551 116.861552 
L 43.053061 114.87037 
L 45.330612 112.326987 
L 47.608163 109.262937 
L 49.885714 105.74626 
L 52.163265 101.877562 
L 54.440816 97.786315 
L 56.718367 93.626846 
L 58.995918 89.573681 
L 61.273469 85.816312 
L 63.55102 82.553763 
L 65.828571 79.989266 
L 68.106122 78.325415 
L 70.383673 77.76 
L 72.661224 78.48273 
L 74.938776 80.662362 
L 77.216327 84.390991 
L 79.493878 89.266503 
L 81.771429 94.842006 
L 84.04898 100.699743 
L 86.326531 106.475604 
L 88.604082 111.868315 
L 90.881633 116.644163 
L 93.159184 120.637963 
L 95.436735 123.75173 
L 97.714286 125.952142 
L 99.991837 127.266113 
L 102.269388 127.770892 
L 104.546939 127.580627 
L 106.82449 126.834569 
L 109.102041 125.687787 
L 111.379592 124.30322 
L 113.657143 122.844912 
L 115.934694 121.472904 
L 118.212245 120.341039 
L 120.489796 119.599186 
L 122.767347 119.342796 
L 125.044898 119.452716 
L 127.322449 119.766455 
L 129.6 120.144061 
L 129.6 120.240908 
L 129.6 120.240908 
L 127.322449 119.88621 
L 125.044898 119.590971 
L 122.767347 119.493253 
L 120.489796 119.75794 
L 118.212245 120.513047 
L 115.934694 121.673506 
L 113.657143 123.08753 
L 111.379592 124.59211 
L 109.102041 126.01832 
L 106.82449 127.196251 
L 104.546939 127.960932 
L 102.269388 128.16 
L 99.991837 127.662819 
L 97.714286 126.369861 
L 95.436735 124.21989 
L 93.159184 121.194519 
L 90.881633 117.324436 
L 88.604082 112.698552 
L 86.326531 107.471286 
L 84.04898 101.86593 
L 81.771429 96.173841 
L 79.493878 90.749683 
L 77.216327 86.00238 
L 74.938776 82.370818 
L 72.661224 80.250376 
L 70.383673 79.54671 
L 68.106122 80.090867 
L 65.828571 81.694758 
L 63.55102 84.163909 
L 61.273469 87.300613 
L 58.995918 90.907872 
L 56.718367 94.794011 
L 54.440816 98.777657 
L 52.163265 102.692811 
L 49.885714 106.393615 
L 47.608163 109.758604 
L 45.330612 112.694459 
L 43.053061 115.139273 
L 40.77551 117.064615 
L 38.497959 118.476046 
L 36.220408 119.414454 
L 33.942857 119.959811 
L 31.665306 120.233362 
L 29.387755 120.394155 
L 27.110204 120.579965 
L 24.832653 120.743415 
L 22.555102 120.812851 
L 20.277551 120.750382 
L 18 120.550808 
z
" style="fill:#66c2a5;fill-opacity:0.2;"/>
   </g>
   <g id="matplotlib.axis_3">
    <g id="xtick_6">
     <g id="line2d_12">
      <g>
       <use style="fill:#a9a9a9;stroke:#a9a9a9;stroke-width:2;" x="29.387755" xlink:href="#m8c6abb1b62" y="122.204504"/>
      </g>
     </g>
    </g>
    <g id="xtick_7">
     <g id="line2d_13">
      <g>
       <use style="fill:#a9a9a9;stroke:#a9a9a9;stroke-width:2;" x="52.163265" xlink:href="#m8c6abb1b62" y="122.204504"/>
      </g>
     </g>
    </g>
    <g id="xtick_8">
     <g id="line2d_14">
      <g>
       <use style="fill:#a9a9a9;stroke:#a9a9a9;stroke-width:2;" x="74.938776" xlink:href="#m8c6abb1b62" y="122.204504"/>
      </g>
     </g>
    </g>
    <g id="xtick_9">
     <g id="line2d_15">
      <g>
       <use style="fill:#a9a9a9;stroke:#a9a9a9;stroke-width:2;" x="97.714286" xlink:href="#m8c6abb1b62" y="122.204504"/>
      </g>
     </g>
    </g>
    <g id="xtick_10">
     <g id="line2d_16">
      <g>
       <use style="fill:#a9a9a9;stroke:#a9a9a9;stroke-width:2;" x="120.489796" xlink:href="#m8c6abb1b62" y="122.204504"/>
      </g>
     </g>
    </g>
   </g>
   <g id="matplotlib.axis_4"/>
   <g id="line2d_17">
    <path clip-path="url(#pa0a31162ce)" d="M 18 120.513673 
L 20.277551 120.720213 
L 22.555102 120.781141 
L 24.832653 120.703635 
L 27.110204 120.530556 
L 29.387755 120.336567 
L 31.665306 120.169844 
L 33.942857 119.891316 
L 36.220408 119.340405 
L 38.497959 118.392866 
L 40.77551 116.963084 
L 43.053061 115.004822 
L 45.330612 112.510723 
L 47.608163 109.510771 
L 49.885714 106.069938 
L 52.163265 102.285186 
L 54.440816 98.281986 
L 56.718367 94.210429 
L 58.995918 90.240777 
L 61.273469 86.558463 
L 63.55102 83.358836 
L 65.828571 80.842012 
L 68.106122 79.208141 
L 70.383673 78.653355 
L 72.661224 79.366553 
L 74.938776 81.51659 
L 77.216327 85.196686 
L 79.493878 90.008093 
L 81.771429 95.507923 
L 84.04898 101.282836 
L 86.326531 106.973445 
L 88.604082 112.283433 
L 90.881633 116.9843 
L 93.159184 120.916241 
L 95.436735 123.98581 
L 97.714286 126.161002 
L 99.991837 127.464466 
L 102.269388 127.965446 
L 104.546939 127.77078 
L 106.82449 127.01541 
L 109.102041 125.853053 
L 111.379592 124.447665 
L 113.657143 122.966221 
L 115.934694 121.573205 
L 118.212245 120.427043 
L 120.489796 119.678563 
L 122.767347 119.418025 
L 125.044898 119.521843 
L 127.322449 119.826333 
L 129.6 120.192485 
" style="fill:none;stroke:#66c2a5;stroke-linecap:square;stroke-width:2;"/>
   </g>
   <g id="patch_8">
    <path d="M 74.938776 128.16 
L 74.938776 77.76 
" style="fill:none;stroke:#a9a9a9;stroke-linecap:square;stroke-linejoin:miter;stroke-width:2;"/>
   </g>
   <g id="patch_9">
    <path d="M 129.6 128.16 
L 129.6 77.76 
" style="fill:none;"/>
   </g>
   <g id="patch_10">
    <path d="M 18 122.204504 
L 129.6 122.204504 
" style="fill:none;stroke:#a9a9a9;stroke-linecap:square;stroke-linejoin:miter;stroke-width:2;"/>
   </g>
   <g id="patch_11">
    <path d="M 18 77.76 
L 129.6 77.76 
" style="fill:none;"/>
   </g>
  </g>
 </g>
 <defs>
  <clipPath id="p49090d7a86">
   <rect height="50.4" width="111.6" x="18" y="17.28"/>
  </clipPath>
  <clipPath id="pa0a31162ce">
   <rect height="50.4" width="111.6" x="18" y="77.76"/>
  </clipPath>
 </defs>
</svg>
