<?xml version="1.0" encoding="utf-8" standalone="no"?>
<!DOCTYPE svg PUBLIC "-//W3C//DTD SVG 1.1//EN"
  "http://www.w3.org/Graphics/SVG/1.1/DTD/svg11.dtd">
<!-- Created with matplotlib (https://matplotlib.org/) -->
<svg height="144pt" version="1.1" viewBox="0 0 144 144" width="144pt" xmlns="http://www.w3.org/2000/svg" xmlns:xlink="http://www.w3.org/1999/xlink">
 <metadata>
  <rdf:RDF xmlns:cc="http://creativecommons.org/ns#" xmlns:dc="http://purl.org/dc/elements/1.1/" xmlns:rdf="http://www.w3.org/1999/02/22-rdf-syntax-ns#">
   <cc:Work>
    <dc:type rdf:resource="http://purl.org/dc/dcmitype/StillImage"/>
    <dc:date>2021-10-11T19:05:07.400080</dc:date>
    <dc:format>image/svg+xml</dc:format>
    <dc:creator>
     <cc:Agent>
      <dc:title>Matplotlib v3.3.2, https://matplotlib.org/</dc:title>
     </cc:Agent>
    </dc:creator>
   </cc:Work>
  </rdf:RDF>
 </metadata>
 <defs>
  <style type="text/css">*{stroke-linecap:butt;stroke-linejoin:round;}</style>
 </defs>
 <g id="figure_1">
  <g id="patch_1">
   <path d="M 0 144 
L 144 144 
L 144 0 
L 0 0 
z
" style="fill:none;"/>
  </g>
  <g id="axes_1">
   <g id="patch_2">
    <path d="M 18 67.68 
L 129.6 67.68 
L 129.6 17.28 
L 18 17.28 
z
" style="fill:none;"/>
   </g>
   <g id="PolyCollection_1">
    <path clip-path="url(#p2403f1c7bb)" d="M 18 58.926545 
L 18 58.926545 
L 20.277551 58.926545 
L 22.555102 58.926545 
L 24.832653 58.926545 
L 27.110204 58.926545 
L 29.387755 58.926543 
L 31.665306 58.872013 
L 33.942857 58.651225 
L 36.220408 58.341672 
L 38.497959 58.01055 
L 40.77551 56.893893 
L 43.053061 55.463762 
L 45.330612 53.380964 
L 47.608163 50.641842 
L 49.885714 46.716869 
L 52.163265 42.31163 
L 54.440816 37.349513 
L 56.718367 32.39773 
L 58.995918 26.762069 
L 61.273469 23.356785 
L 63.55102 18.712638 
L 65.828571 17.28 
L 68.106122 17.606193 
L 70.383673 19.396053 
L 72.661224 21.783745 
L 74.938776 45.782547 
L 77.216327 35.241902 
L 79.493878 40.324126 
L 81.771429 46.711727 
L 84.04898 52.48766 
L 86.326531 57.22841 
L 88.604082 60.165714 
L 90.881633 62.198143 
L 93.159184 62.887907 
L 95.436735 63.606058 
L 97.714286 62.692273 
L 99.991837 61.692512 
L 102.269388 60.978085 
L 104.546939 60.128364 
L 106.82449 59.429332 
L 109.102041 59.000468 
L 111.379592 58.819257 
L 113.657143 58.809454 
L 115.934694 58.872642 
L 118.212245 58.877027 
L 120.489796 58.926472 
L 122.767347 58.926545 
L 125.044898 58.926545 
L 127.322449 58.926545 
L 129.6 58.926545 
L 129.6 58.926545 
L 129.6 58.926545 
L 127.322449 58.926545 
L 125.044898 58.926545 
L 122.767347 58.926545 
L 120.489796 58.92667 
L 118.212245 58.982895 
L 115.934694 59.116275 
L 113.657143 59.354933 
L 111.379592 59.568508 
L 109.102041 60.242501 
L 106.82449 60.959111 
L 104.546939 61.905606 
L 102.269388 63.20554 
L 99.991837 64.622707 
L 97.714286 65.821821 
L 95.436735 67.105944 
L 93.159184 67.394081 
L 90.881633 67.68 
L 88.604082 65.197576 
L 86.326531 63.411425 
L 84.04898 58.609884 
L 81.771429 52.78834 
L 79.493878 46.646281 
L 77.216327 41.123181 
L 74.938776 48.15835 
L 72.661224 29.24183 
L 70.383673 26.523813 
L 68.106122 24.763539 
L 65.828571 24.25094 
L 63.55102 25.579843 
L 61.273469 28.675884 
L 58.995918 32.850823 
L 56.718367 37.572304 
L 54.440816 41.521524 
L 52.163265 46.270987 
L 49.885714 50.100032 
L 47.608163 53.059833 
L 45.330612 55.550483 
L 43.053061 57.134998 
L 40.77551 58.195843 
L 38.497959 58.700295 
L 36.220408 58.979196 
L 33.942857 58.965352 
L 31.665306 58.972617 
L 29.387755 58.926546 
L 27.110204 58.926545 
L 24.832653 58.926545 
L 22.555102 58.926545 
L 20.277551 58.926545 
L 18 58.926545 
z
" style="fill:#fc8d62;fill-opacity:0.2;"/>
   </g>
   <g id="PolyCollection_2">
    <path clip-path="url(#p2403f1c7bb)" d="M 18 58.926545 
L 18 58.926545 
L 20.277551 58.926545 
L 22.555102 58.926545 
L 24.832653 58.926545 
L 27.110204 58.926545 
L 29.387755 58.926544 
L 31.665306 58.839596 
L 33.942857 58.650785 
L 36.220408 58.337175 
L 38.497959 57.830052 
L 40.77551 57.25889 
L 43.053061 56.345186 
L 45.330612 55.449758 
L 47.608163 54.043963 
L 49.885714 52.550646 
L 52.163265 51.382106 
L 54.440816 49.277802 
L 56.718367 47.284644 
L 58.995918 45.950141 
L 61.273469 43.634907 
L 63.55102 43.030178 
L 65.828571 41.611491 
L 68.106122 40.353855 
L 70.383673 38.864164 
L 72.661224 39.161 
L 74.938776 51.104897 
L 77.216327 38.60769 
L 79.493878 40.76856 
L 81.771429 40.658981 
L 84.04898 42.758335 
L 86.326531 44.228991 
L 88.604082 46.057755 
L 90.881633 47.267602 
L 93.159184 49.364362 
L 95.436735 50.576925 
L 97.714286 51.716044 
L 99.991837 53.914099 
L 102.269388 55.086914 
L 104.546939 56.282357 
L 106.82449 57.060904 
L 109.102041 57.615855 
L 111.379592 58.139797 
L 113.657143 58.531269 
L 115.934694 58.728853 
L 118.212245 58.891417 
L 120.489796 58.926502 
L 122.767347 58.926545 
L 125.044898 58.926545 
L 127.322449 58.926545 
L 129.6 58.926545 
L 129.6 58.926545 
L 129.6 58.926545 
L 127.322449 58.926545 
L 125.044898 58.926545 
L 122.767347 58.926545 
L 120.489796 58.926612 
L 118.212245 58.992677 
L 115.934694 59.083944 
L 113.657143 59.235107 
L 111.379592 59.297103 
L 109.102041 59.077072 
L 106.82449 58.809471 
L 104.546939 58.084383 
L 102.269388 57.841867 
L 99.991837 57.066357 
L 97.714286 55.514923 
L 95.436735 55.026617 
L 93.159184 53.861746 
L 90.881633 52.577391 
L 88.604082 51.119768 
L 86.326531 49.231586 
L 84.04898 47.685223 
L 81.771429 46.977041 
L 79.493878 46.10022 
L 77.216327 45.570757 
L 74.938776 53.433747 
L 72.661224 44.810965 
L 70.383673 45.258888 
L 68.106122 46.093203 
L 65.828571 47.265573 
L 63.55102 47.864116 
L 61.273469 49.037031 
L 58.995918 50.947505 
L 56.718367 51.62789 
L 54.440816 53.185624 
L 52.163265 55.09094 
L 49.885714 55.405617 
L 47.608163 56.71291 
L 45.330612 57.332528 
L 43.053061 58.028718 
L 40.77551 58.661376 
L 38.497959 58.834209 
L 36.220408 58.921932 
L 33.942857 59.010685 
L 31.665306 58.962378 
L 29.387755 58.926546 
L 27.110204 58.926545 
L 24.832653 58.926545 
L 22.555102 58.926545 
L 20.277551 58.926545 
L 18 58.926545 
z
" style="fill:#fc8d62;fill-opacity:0.2;"/>
   </g>
   <g id="matplotlib.axis_1">
    <g id="xtick_1">
     <g id="line2d_1">
      <defs>
       <path d="M 0 0 
L 0 3.5 
" id="mcae8c03c6e" style="stroke:#a9a9a9;stroke-width:2;"/>
      </defs>
      <g>
       <use style="fill:#a9a9a9;stroke:#a9a9a9;stroke-width:2;" x="29.387755" xlink:href="#mcae8c03c6e" y="58.926545"/>
      </g>
     </g>
    </g>
    <g id="xtick_2">
     <g id="line2d_2">
      <g>
       <use style="fill:#a9a9a9;stroke:#a9a9a9;stroke-width:2;" x="52.163265" xlink:href="#mcae8c03c6e" y="58.926545"/>
      </g>
     </g>
    </g>
    <g id="xtick_3">
     <g id="line2d_3">
      <g>
       <use style="fill:#a9a9a9;stroke:#a9a9a9;stroke-width:2;" x="74.938776" xlink:href="#mcae8c03c6e" y="58.926545"/>
      </g>
     </g>
    </g>
    <g id="xtick_4">
     <g id="line2d_4">
      <g>
       <use style="fill:#a9a9a9;stroke:#a9a9a9;stroke-width:2;" x="97.714286" xlink:href="#mcae8c03c6e" y="58.926545"/>
      </g>
     </g>
    </g>
    <g id="xtick_5">
     <g id="line2d_5">
      <g>
       <use style="fill:#a9a9a9;stroke:#a9a9a9;stroke-width:2;" x="120.489796" xlink:href="#mcae8c03c6e" y="58.926545"/>
      </g>
     </g>
    </g>
   </g>
   <g id="matplotlib.axis_2"/>
   <g id="line2d_6">
    <path clip-path="url(#p2403f1c7bb)" d="M 18 58.926545 
L 20.277551 58.926545 
L 22.555102 58.926545 
L 24.832653 58.926545 
L 27.110204 58.926545 
L 29.387755 58.926545 
L 31.665306 58.922315 
L 33.942857 58.808288 
L 36.220408 58.660434 
L 38.497959 58.355423 
L 40.77551 57.544868 
L 43.053061 56.29938 
L 45.330612 54.465723 
L 47.608163 51.850837 
L 49.885714 48.40845 
L 52.163265 44.291308 
L 54.440816 39.435518 
L 56.718367 34.985017 
L 58.995918 29.806446 
L 61.273469 26.016335 
L 63.55102 22.146241 
L 65.828571 20.76547 
L 68.106122 21.184866 
L 70.383673 22.959933 
L 72.661224 25.512788 
L 74.938776 46.970448 
L 77.216327 38.182541 
L 79.493878 43.485204 
L 81.771429 49.750034 
L 84.04898 55.548772 
L 86.326531 60.319917 
L 88.604082 62.681645 
L 90.881633 64.939071 
L 93.159184 65.140994 
L 95.436735 65.356001 
L 97.714286 64.257047 
L 99.991837 63.157609 
L 102.269388 62.091813 
L 104.546939 61.016985 
L 106.82449 60.194221 
L 109.102041 59.621485 
L 111.379592 59.193883 
L 113.657143 59.082193 
L 115.934694 58.994459 
L 118.212245 58.929961 
L 120.489796 58.926571 
L 122.767347 58.926545 
L 125.044898 58.926545 
L 127.322449 58.926545 
L 129.6 58.926545 
" style="fill:none;stroke:#fc8d62;stroke-linecap:square;stroke-width:2;"/>
   </g>
   <g id="line2d_7">
    <path clip-path="url(#p2403f1c7bb)" d="M 18 58.926545 
L 20.277551 58.926545 
L 22.555102 58.926545 
L 24.832653 58.926545 
L 27.110204 58.926545 
L 29.387755 58.926545 
L 31.665306 58.900987 
L 33.942857 58.830735 
L 36.220408 58.629554 
L 38.497959 58.33213 
L 40.77551 57.960133 
L 43.053061 57.186952 
L 45.330612 56.391143 
L 47.608163 55.378437 
L 49.885714 53.978132 
L 52.163265 53.236523 
L 54.440816 51.231713 
L 56.718367 49.456267 
L 58.995918 48.448823 
L 61.273469 46.335969 
L 63.55102 45.447147 
L 65.828571 44.438532 
L 68.106122 43.223529 
L 70.383673 42.061526 
L 72.661224 41.985982 
L 74.938776 52.269322 
L 77.216327 42.089223 
L 79.493878 43.43439 
L 81.771429 43.818011 
L 84.04898 45.221779 
L 86.326531 46.730289 
L 88.604082 48.588761 
L 90.881633 49.922497 
L 93.159184 51.613054 
L 95.436735 52.801771 
L 97.714286 53.615483 
L 99.991837 55.490228 
L 102.269388 56.464391 
L 104.546939 57.18337 
L 106.82449 57.935187 
L 109.102041 58.346463 
L 111.379592 58.71845 
L 113.657143 58.883188 
L 115.934694 58.906399 
L 118.212245 58.942047 
L 120.489796 58.926557 
L 122.767347 58.926545 
L 125.044898 58.926545 
L 127.322449 58.926545 
L 129.6 58.926545 
" style="fill:none;stroke:#fc8d62;stroke-dasharray:1.5,1.5;stroke-dashoffset:0;stroke-opacity:0.7;stroke-width:1.5;"/>
   </g>
   <g id="patch_3">
    <path d="M 74.938776 67.68 
L 74.938776 17.28 
" style="fill:none;stroke:#a9a9a9;stroke-linecap:square;stroke-linejoin:miter;stroke-width:2;"/>
   </g>
   <g id="patch_4">
    <path d="M 129.6 67.68 
L 129.6 17.28 
" style="fill:none;"/>
   </g>
   <g id="patch_5">
    <path d="M 18 58.926545 
L 129.6 58.926545 
" style="fill:none;stroke:#a9a9a9;stroke-linecap:square;stroke-linejoin:miter;stroke-width:2;"/>
   </g>
   <g id="patch_6">
    <path d="M 18 17.28 
L 129.6 17.28 
" style="fill:none;"/>
   </g>
   <g id="legend_1">
    <g id="line2d_8">
     <path d="M 87.67 26.448906 
L 101.67 26.448906 
" style="fill:none;stroke:#fc8d62;stroke-linecap:square;stroke-width:2;"/>
    </g>
    <g id="line2d_9"/>
    <g id="text_1">
     <!-- $\theta$ -->
     <g transform="translate(107.27 28.898906)scale(0.07 -0.07)">
      <defs>
       <path d="M 45.515625 34.671875 
L 14.453125 34.671875 
Q 12.359375 20.0625 14.5 13.875 
Q 17.1875 6.25 24.46875 6.25 
Q 31.78125 6.25 37.359375 13.921875 
Q 42.234375 20.65625 45.515625 34.671875 
z
M 47.015625 42.96875 
Q 48.34375 56.84375 46.625 61.71875 
Q 43.953125 69.4375 36.765625 69.4375 
Q 29.296875 69.4375 23.828125 61.8125 
Q 19.53125 55.671875 16.15625 42.96875 
z
M 38.1875 76.765625 
Q 49.90625 76.765625 54.59375 66.40625 
Q 59.28125 56.109375 55.71875 37.84375 
Q 52.203125 19.625 43.453125 9.28125 
Q 34.765625 -1.125 23.046875 -1.125 
Q 11.28125 -1.125 6.640625 9.28125 
Q 2 19.625 5.515625 37.84375 
Q 9.078125 56.109375 17.71875 66.40625 
Q 26.421875 76.765625 38.1875 76.765625 
z
" id="DejaVuSans-Oblique-952"/>
      </defs>
      <use transform="translate(0 0.234375)" xlink:href="#DejaVuSans-Oblique-952"/>
     </g>
    </g>
    <g id="line2d_10">
     <path d="M 87.67 36.723594 
L 101.67 36.723594 
" style="fill:none;stroke:#fc8d62;stroke-dasharray:1.5,1.5;stroke-dashoffset:0;stroke-opacity:0.7;stroke-width:1.5;"/>
    </g>
    <g id="line2d_11"/>
    <g id="text_2">
     <!-- No $\theta$ -->
     <g transform="translate(107.27 39.173594)scale(0.07 -0.07)">
      <defs>
       <path d="M 9.8125 72.90625 
L 23.09375 72.90625 
L 55.421875 11.921875 
L 55.421875 72.90625 
L 64.984375 72.90625 
L 64.984375 0 
L 51.703125 0 
L 19.390625 60.984375 
L 19.390625 0 
L 9.8125 0 
z
" id="DejaVuSans-78"/>
       <path d="M 30.609375 48.390625 
Q 23.390625 48.390625 19.1875 42.75 
Q 14.984375 37.109375 14.984375 27.296875 
Q 14.984375 17.484375 19.15625 11.84375 
Q 23.34375 6.203125 30.609375 6.203125 
Q 37.796875 6.203125 41.984375 11.859375 
Q 46.1875 17.53125 46.1875 27.296875 
Q 46.1875 37.015625 41.984375 42.703125 
Q 37.796875 48.390625 30.609375 48.390625 
z
M 30.609375 56 
Q 42.328125 56 49.015625 48.375 
Q 55.71875 40.765625 55.71875 27.296875 
Q 55.71875 13.875 49.015625 6.21875 
Q 42.328125 -1.421875 30.609375 -1.421875 
Q 18.84375 -1.421875 12.171875 6.21875 
Q 5.515625 13.875 5.515625 27.296875 
Q 5.515625 40.765625 12.171875 48.375 
Q 18.84375 56 30.609375 56 
z
" id="DejaVuSans-111"/>
       <path id="DejaVuSans-32"/>
      </defs>
      <use transform="translate(0 0.234375)" xlink:href="#DejaVuSans-78"/>
      <use transform="translate(74.804688 0.234375)" xlink:href="#DejaVuSans-111"/>
      <use transform="translate(135.986328 0.234375)" xlink:href="#DejaVuSans-32"/>
      <use transform="translate(167.773438 0.234375)" xlink:href="#DejaVuSans-Oblique-952"/>
     </g>
    </g>
   </g>
  </g>
  <g id="axes_2">
   <g id="patch_7">
    <path d="M 18 128.16 
L 129.6 128.16 
L 129.6 77.76 
L 18 77.76 
z
" style="fill:none;"/>
   </g>
   <g id="PolyCollection_3">
    <path clip-path="url(#p4e483edb92)" d="M 18 120.488396 
L 18 120.408908 
L 20.277551 120.628832 
L 22.555102 120.692867 
L 24.832653 120.609405 
L 27.110204 120.427073 
L 29.387755 120.224437 
L 31.665306 120.051029 
L 33.942857 119.766134 
L 36.220408 119.207532 
L 38.497959 118.248086 
L 40.77551 116.796444 
L 43.053061 114.801422 
L 45.330612 112.254597 
L 47.608163 109.188047 
L 49.885714 105.670244 
L 52.163265 101.80219 
L 54.440816 97.713603 
L 56.718367 93.558949 
L 58.995918 89.512741 
L 61.273469 85.764357 
L 63.55102 82.512643 
L 65.828571 79.960596 
L 68.106122 78.310542 
L 70.383673 77.76 
L 72.661224 78.498454 
L 74.938776 80.695161 
L 77.216327 84.439703 
L 79.493878 89.330202 
L 81.771429 94.917168 
L 84.04898 100.781316 
L 86.326531 106.557476 
L 88.604082 111.943732 
L 90.881633 116.706404 
L 93.159184 120.68135 
L 95.436735 123.772988 
L 97.714286 125.95136 
L 99.991837 127.245594 
L 102.269388 127.733399 
L 104.546939 127.52845 
L 106.82449 126.769706 
L 109.102041 125.612208 
L 111.379592 124.2189 
L 113.657143 122.753664 
L 115.934694 121.376258 
L 118.212245 120.240707 
L 120.489796 119.498245 
L 122.767347 119.245303 
L 125.044898 119.361697 
L 127.322449 119.683339 
L 129.6 120.069018 
L 129.6 120.174649 
L 129.6 120.174649 
L 127.322449 119.81498 
L 125.044898 119.514297 
L 122.767347 119.411262 
L 120.489796 119.67128 
L 118.212245 120.423085 
L 115.934694 121.583499 
L 113.657143 123.002378 
L 111.379592 124.51691 
L 109.102041 125.957573 
L 106.82449 127.153617 
L 104.546939 127.93902 
L 102.269388 128.16 
L 99.991837 127.68395 
L 97.714286 126.409005 
L 95.436735 124.272442 
L 93.159184 121.256206 
L 90.881633 117.392658 
L 88.604082 112.771755 
L 86.326531 107.548073 
L 84.04898 101.944616 
L 81.771429 96.252422 
L 79.493878 90.826109 
L 77.216327 86.074768 
L 74.938776 82.438303 
L 72.661224 80.31035 
L 70.383673 79.598603 
L 68.106122 80.133403 
L 65.828571 81.726755 
L 63.55102 84.184415 
L 61.273469 87.309008 
L 58.995918 90.903934 
L 56.718367 94.777934 
L 54.440816 98.75002 
L 52.163265 102.654532 
L 49.885714 106.345929 
L 47.608163 109.702972 
L 45.330612 112.632529 
L 43.053061 115.072747 
L 40.77551 116.99522 
L 38.497959 118.405642 
L 36.220408 119.344679 
L 33.942857 119.891646 
L 31.665306 120.167461 
L 29.387755 120.330825 
L 27.110204 120.518711 
L 24.832653 120.683358 
L 22.555102 120.753008 
L 20.277551 120.690019 
L 18 120.488396 
z
" style="fill:#66c2a5;fill-opacity:0.2;"/>
   </g>
   <g id="matplotlib.axis_3">
    <g id="xtick_6">
     <g id="line2d_12">
      <g>
       <use style="fill:#a9a9a9;stroke:#a9a9a9;stroke-width:2;" x="29.387755" xlink:href="#mcae8c03c6e" y="122.14699"/>
      </g>
     </g>
    </g>
    <g id="xtick_7">
     <g id="line2d_13">
      <g>
       <use style="fill:#a9a9a9;stroke:#a9a9a9;stroke-width:2;" x="52.163265" xlink:href="#mcae8c03c6e" y="122.14699"/>
      </g>
     </g>
    </g>
    <g id="xtick_8">
     <g id="line2d_14">
      <g>
       <use style="fill:#a9a9a9;stroke:#a9a9a9;stroke-width:2;" x="74.938776" xlink:href="#mcae8c03c6e" y="122.14699"/>
      </g>
     </g>
    </g>
    <g id="xtick_9">
     <g id="line2d_15">
      <g>
       <use style="fill:#a9a9a9;stroke:#a9a9a9;stroke-width:2;" x="97.714286" xlink:href="#mcae8c03c6e" y="122.14699"/>
      </g>
     </g>
    </g>
    <g id="xtick_10">
     <g id="line2d_16">
      <g>
       <use style="fill:#a9a9a9;stroke:#a9a9a9;stroke-width:2;" x="120.489796" xlink:href="#mcae8c03c6e" y="122.14699"/>
      </g>
     </g>
    </g>
   </g>
   <g id="matplotlib.axis_4"/>
   <g id="line2d_17">
    <path clip-path="url(#p4e483edb92)" d="M 18 120.448652 
L 20.277551 120.659425 
L 22.555102 120.722938 
L 24.832653 120.646382 
L 27.110204 120.472892 
L 29.387755 120.277631 
L 31.665306 120.109245 
L 33.942857 119.82889 
L 36.220408 119.276105 
L 38.497959 118.326864 
L 40.77551 116.895832 
L 43.053061 114.937085 
L 45.330612 112.443563 
L 47.608163 109.445509 
L 49.885714 106.008086 
L 52.163265 102.228361 
L 54.440816 98.231812 
L 56.718367 94.168441 
L 58.995918 90.208337 
L 61.273469 86.536683 
L 63.55102 83.348529 
L 65.828571 80.843675 
L 68.106122 79.221972 
L 70.383673 78.679302 
L 72.661224 79.404402 
L 74.938776 81.566732 
L 77.216327 85.257236 
L 79.493878 90.078155 
L 81.771429 95.584795 
L 84.04898 101.362966 
L 86.326531 107.052774 
L 88.604082 112.357744 
L 90.881633 117.049531 
L 93.159184 120.968778 
L 95.436735 124.022715 
L 97.714286 126.180182 
L 99.991837 127.464772 
L 102.269388 127.946699 
L 104.546939 127.733735 
L 106.82449 126.961661 
L 109.102041 125.784891 
L 111.379592 124.367905 
L 113.657143 122.878021 
L 115.934694 121.479879 
L 118.212245 120.331896 
L 120.489796 119.584762 
L 122.767347 119.328282 
L 125.044898 119.437997 
L 127.322449 119.74916 
L 129.6 120.121834 
" style="fill:none;stroke:#66c2a5;stroke-linecap:square;stroke-width:2;"/>
   </g>
   <g id="patch_8">
    <path d="M 74.938776 128.16 
L 74.938776 77.76 
" style="fill:none;stroke:#a9a9a9;stroke-linecap:square;stroke-linejoin:miter;stroke-width:2;"/>
   </g>
   <g id="patch_9">
    <path d="M 129.6 128.16 
L 129.6 77.76 
" style="fill:none;"/>
   </g>
   <g id="patch_10">
    <path d="M 18 122.14699 
L 129.6 122.14699 
" style="fill:none;stroke:#a9a9a9;stroke-linecap:square;stroke-linejoin:miter;stroke-width:2;"/>
   </g>
   <g id="patch_11">
    <path d="M 18 77.76 
L 129.6 77.76 
" style="fill:none;"/>
   </g>
  </g>
 </g>
 <defs>
  <clipPath id="p2403f1c7bb">
   <rect height="50.4" width="111.6" x="18" y="17.28"/>
  </clipPath>
  <clipPath id="p4e483edb92">
   <rect height="50.4" width="111.6" x="18" y="77.76"/>
  </clipPath>
 </defs>
</svg>
