<?xml version="1.0" encoding="utf-8" standalone="no"?>
<!DOCTYPE svg PUBLIC "-//W3C//DTD SVG 1.1//EN"
  "http://www.w3.org/Graphics/SVG/1.1/DTD/svg11.dtd">
<!-- Created with matplotlib (https://matplotlib.org/) -->
<svg height="144pt" version="1.1" viewBox="0 0 144 144" width="144pt" xmlns="http://www.w3.org/2000/svg" xmlns:xlink="http://www.w3.org/1999/xlink">
 <metadata>
  <rdf:RDF xmlns:cc="http://creativecommons.org/ns#" xmlns:dc="http://purl.org/dc/elements/1.1/" xmlns:rdf="http://www.w3.org/1999/02/22-rdf-syntax-ns#">
   <cc:Work>
    <dc:type rdf:resource="http://purl.org/dc/dcmitype/StillImage"/>
    <dc:date>2021-10-11T19:20:19.656141</dc:date>
    <dc:format>image/svg+xml</dc:format>
    <dc:creator>
     <cc:Agent>
      <dc:title>Matplotlib v3.3.2, https://matplotlib.org/</dc:title>
     </cc:Agent>
    </dc:creator>
   </cc:Work>
  </rdf:RDF>
 </metadata>
 <defs>
  <style type="text/css">*{stroke-linecap:butt;stroke-linejoin:round;}</style>
 </defs>
 <g id="figure_1">
  <g id="patch_1">
   <path d="M 0 144 
L 144 144 
L 144 0 
L 0 0 
z
" style="fill:none;"/>
  </g>
  <g id="axes_1">
   <g id="patch_2">
    <path d="M 18 67.68 
L 129.6 67.68 
L 129.6 17.28 
L 18 17.28 
z
" style="fill:none;"/>
   </g>
   <g id="PolyCollection_1">
    <path clip-path="url(#pcd974a7d01)" d="M 18 63.733535 
L 18 63.733535 
L 20.277551 63.733535 
L 22.555102 63.733535 
L 24.832653 63.733535 
L 27.110204 63.733535 
L 29.387755 63.733535 
L 31.665306 63.637231 
L 33.942857 63.468049 
L 36.220408 62.91914 
L 38.497959 62.378366 
L 40.77551 61.669341 
L 43.053061 59.600186 
L 45.330612 57.980424 
L 47.608163 54.974643 
L 49.885714 50.805676 
L 52.163265 45.973806 
L 54.440816 42.44499 
L 56.718367 36.550648 
L 58.995918 30.980723 
L 61.273469 25.088219 
L 63.55102 22.289143 
L 65.828571 20.06419 
L 68.106122 18.100669 
L 70.383673 17.28 
L 72.661224 21.977244 
L 74.938776 48.148937 
L 77.216327 31.692297 
L 79.493878 38.483494 
L 81.771429 41.823412 
L 84.04898 48.969026 
L 86.326531 52.422149 
L 88.604082 57.169837 
L 90.881633 59.406674 
L 93.159184 60.644176 
L 95.436735 61.15614 
L 97.714286 62.831085 
L 99.991837 62.564298 
L 102.269388 62.091685 
L 104.546939 62.641241 
L 106.82449 62.459622 
L 109.102041 62.323628 
L 111.379592 62.983319 
L 113.657143 63.313047 
L 115.934694 63.298629 
L 118.212245 63.652862 
L 120.489796 63.733521 
L 122.767347 63.733535 
L 125.044898 63.733535 
L 127.322449 63.733535 
L 129.6 63.733535 
L 129.6 63.733535 
L 129.6 63.733535 
L 127.322449 63.733535 
L 125.044898 63.733535 
L 122.767347 63.733535 
L 120.489796 63.733565 
L 118.212245 63.822482 
L 115.934694 63.94388 
L 113.657143 64.130354 
L 111.379592 64.273689 
L 109.102041 64.184543 
L 106.82449 64.909193 
L 104.546939 65.006187 
L 102.269388 65.816513 
L 99.991837 66.293389 
L 97.714286 67.68 
L 95.436735 66.776056 
L 93.159184 66.953786 
L 90.881633 65.50612 
L 88.604082 64.842523 
L 86.326531 61.559833 
L 84.04898 57.00952 
L 81.771429 52.477893 
L 79.493878 48.471857 
L 77.216327 40.893311 
L 74.938776 50.896893 
L 72.661224 31.876631 
L 70.383673 26.734175 
L 68.106122 29.687616 
L 65.828571 28.503705 
L 63.55102 31.028311 
L 61.273469 32.642822 
L 58.995918 37.502206 
L 56.718367 42.671474 
L 54.440816 48.244335 
L 52.163265 51.008333 
L 49.885714 54.959908 
L 47.608163 58.475295 
L 45.330612 60.875731 
L 43.053061 62.267716 
L 40.77551 63.594355 
L 38.497959 63.757933 
L 36.220408 63.848092 
L 33.942857 63.96954 
L 31.665306 63.797133 
L 29.387755 63.733535 
L 27.110204 63.733535 
L 24.832653 63.733535 
L 22.555102 63.733535 
L 20.277551 63.733535 
L 18 63.733535 
z
" style="fill:#fc8d62;fill-opacity:0.2;"/>
   </g>
   <g id="PolyCollection_2">
    <path clip-path="url(#pcd974a7d01)" d="M 18 63.733535 
L 18 63.733535 
L 20.277551 63.733535 
L 22.555102 63.733535 
L 24.832653 63.733535 
L 27.110204 63.733535 
L 29.387755 63.733535 
L 31.665306 63.598103 
L 33.942857 63.375002 
L 36.220408 62.97851 
L 38.497959 62.01936 
L 40.77551 61.245247 
L 43.053061 59.977357 
L 45.330612 58.230831 
L 47.608163 57.18261 
L 49.885714 54.886951 
L 52.163265 52.29085 
L 54.440816 50.226609 
L 56.718367 48.208936 
L 58.995918 43.859544 
L 61.273469 42.813817 
L 63.55102 40.188484 
L 65.828571 38.834517 
L 68.106122 37.030809 
L 70.383673 34.9528 
L 72.661224 35.269673 
L 74.938776 52.385884 
L 77.216327 34.417857 
L 79.493878 36.871058 
L 81.771429 38.916965 
L 84.04898 39.014069 
L 86.326531 41.440752 
L 88.604082 44.766541 
L 90.881633 47.538977 
L 93.159184 49.30626 
L 95.436735 51.043874 
L 97.714286 54.293649 
L 99.991837 55.484416 
L 102.269388 58.583681 
L 104.546939 59.136724 
L 106.82449 60.968016 
L 109.102041 61.525759 
L 111.379592 62.563458 
L 113.657143 63.025307 
L 115.934694 63.43217 
L 118.212245 63.636999 
L 120.489796 63.733513 
L 122.767347 63.733535 
L 125.044898 63.733535 
L 127.322449 63.733535 
L 129.6 63.733535 
L 129.6 63.733535 
L 129.6 63.733535 
L 127.322449 63.733535 
L 125.044898 63.733535 
L 122.767347 63.733535 
L 120.489796 63.733581 
L 118.212245 63.826968 
L 115.934694 63.949544 
L 113.657143 63.938645 
L 111.379592 64.221012 
L 109.102041 63.634672 
L 106.82449 63.459337 
L 104.546939 63.096697 
L 102.269388 61.733361 
L 99.991837 60.038429 
L 97.714286 59.039579 
L 95.436735 56.913634 
L 93.159184 54.635543 
L 90.881633 54.464969 
L 88.604082 51.158839 
L 86.326531 49.966988 
L 84.04898 48.089687 
L 81.771429 46.360534 
L 79.493878 45.421166 
L 77.216327 43.072787 
L 74.938776 55.248539 
L 72.661224 43.653752 
L 70.383673 43.986618 
L 68.106122 44.025996 
L 65.828571 47.239863 
L 63.55102 48.781702 
L 61.273469 50.05489 
L 58.995918 51.651704 
L 56.718367 53.530315 
L 54.440816 55.988874 
L 52.163265 57.966351 
L 49.885714 59.225445 
L 47.608163 60.198772 
L 45.330612 62.137272 
L 43.053061 62.538464 
L 40.77551 63.333606 
L 38.497959 63.575451 
L 36.220408 63.875605 
L 33.942857 63.877809 
L 31.665306 63.820675 
L 29.387755 63.733535 
L 27.110204 63.733535 
L 24.832653 63.733535 
L 22.555102 63.733535 
L 20.277551 63.733535 
L 18 63.733535 
z
" style="fill:#fc8d62;fill-opacity:0.2;"/>
   </g>
   <g id="matplotlib.axis_1">
    <g id="xtick_1">
     <g id="line2d_1">
      <defs>
       <path d="M 0 0 
L 0 3.5 
" id="ma7e28330ca" style="stroke:#a9a9a9;stroke-width:2;"/>
      </defs>
      <g>
       <use style="fill:#a9a9a9;stroke:#a9a9a9;stroke-width:2;" x="29.387755" xlink:href="#ma7e28330ca" y="63.733535"/>
      </g>
     </g>
    </g>
    <g id="xtick_2">
     <g id="line2d_2">
      <g>
       <use style="fill:#a9a9a9;stroke:#a9a9a9;stroke-width:2;" x="52.163265" xlink:href="#ma7e28330ca" y="63.733535"/>
      </g>
     </g>
    </g>
    <g id="xtick_3">
     <g id="line2d_3">
      <g>
       <use style="fill:#a9a9a9;stroke:#a9a9a9;stroke-width:2;" x="74.938776" xlink:href="#ma7e28330ca" y="63.733535"/>
      </g>
     </g>
    </g>
    <g id="xtick_4">
     <g id="line2d_4">
      <g>
       <use style="fill:#a9a9a9;stroke:#a9a9a9;stroke-width:2;" x="97.714286" xlink:href="#ma7e28330ca" y="63.733535"/>
      </g>
     </g>
    </g>
    <g id="xtick_5">
     <g id="line2d_5">
      <g>
       <use style="fill:#a9a9a9;stroke:#a9a9a9;stroke-width:2;" x="120.489796" xlink:href="#ma7e28330ca" y="63.733535"/>
      </g>
     </g>
    </g>
   </g>
   <g id="matplotlib.axis_2"/>
   <g id="line2d_6">
    <path clip-path="url(#pcd974a7d01)" d="M 18 63.733535 
L 20.277551 63.733535 
L 22.555102 63.733535 
L 24.832653 63.733535 
L 27.110204 63.733535 
L 29.387755 63.733535 
L 31.665306 63.717182 
L 33.942857 63.718795 
L 36.220408 63.383616 
L 38.497959 63.06815 
L 40.77551 62.631848 
L 43.053061 60.933951 
L 45.330612 59.428078 
L 47.608163 56.724969 
L 49.885714 52.882792 
L 52.163265 48.491069 
L 54.440816 45.344663 
L 56.718367 39.611061 
L 58.995918 34.241464 
L 61.273469 28.86552 
L 63.55102 26.658727 
L 65.828571 24.283948 
L 68.106122 23.894142 
L 70.383673 22.007088 
L 72.661224 26.926938 
L 74.938776 49.522915 
L 77.216327 36.292804 
L 79.493878 43.477676 
L 81.771429 47.150652 
L 84.04898 52.989273 
L 86.326531 56.990991 
L 88.604082 61.00618 
L 90.881633 62.456397 
L 93.159184 63.798981 
L 95.436735 63.966098 
L 97.714286 65.255543 
L 99.991837 64.428844 
L 102.269388 63.954099 
L 104.546939 63.823714 
L 106.82449 63.684408 
L 109.102041 63.254086 
L 111.379592 63.628504 
L 113.657143 63.7217 
L 115.934694 63.621254 
L 118.212245 63.737672 
L 120.489796 63.733543 
L 122.767347 63.733535 
L 125.044898 63.733535 
L 127.322449 63.733535 
L 129.6 63.733535 
" style="fill:none;stroke:#fc8d62;stroke-linecap:square;stroke-width:2;"/>
   </g>
   <g id="line2d_7">
    <path clip-path="url(#pcd974a7d01)" d="M 18 63.733535 
L 20.277551 63.733535 
L 22.555102 63.733535 
L 24.832653 63.733535 
L 27.110204 63.733535 
L 29.387755 63.733535 
L 31.665306 63.709389 
L 33.942857 63.626405 
L 36.220408 63.427058 
L 38.497959 62.797405 
L 40.77551 62.289427 
L 43.053061 61.257911 
L 45.330612 60.184051 
L 47.608163 58.690691 
L 49.885714 57.056198 
L 52.163265 55.128601 
L 54.440816 53.107742 
L 56.718367 50.869626 
L 58.995918 47.755624 
L 61.273469 46.434354 
L 63.55102 44.485093 
L 65.828571 43.03719 
L 68.106122 40.528402 
L 70.383673 39.469709 
L 72.661224 39.461712 
L 74.938776 53.817211 
L 77.216327 38.745322 
L 79.493878 41.146112 
L 81.771429 42.63875 
L 84.04898 43.551878 
L 86.326531 45.70387 
L 88.604082 47.96269 
L 90.881633 51.001973 
L 93.159184 51.970902 
L 95.436735 53.978754 
L 97.714286 56.666614 
L 99.991837 57.761423 
L 102.269388 60.158521 
L 104.546939 61.116711 
L 106.82449 62.213676 
L 109.102041 62.580215 
L 111.379592 63.392235 
L 113.657143 63.481976 
L 115.934694 63.690857 
L 118.212245 63.731984 
L 120.489796 63.733547 
L 122.767347 63.733535 
L 125.044898 63.733535 
L 127.322449 63.733535 
L 129.6 63.733535 
" style="fill:none;stroke:#fc8d62;stroke-dasharray:1.5,1.5;stroke-dashoffset:0;stroke-opacity:0.7;stroke-width:1.5;"/>
   </g>
   <g id="patch_3">
    <path d="M 74.938776 67.68 
L 74.938776 17.28 
" style="fill:none;stroke:#a9a9a9;stroke-linecap:square;stroke-linejoin:miter;stroke-width:2;"/>
   </g>
   <g id="patch_4">
    <path d="M 129.6 67.68 
L 129.6 17.28 
" style="fill:none;"/>
   </g>
   <g id="patch_5">
    <path d="M 18 63.733535 
L 129.6 63.733535 
" style="fill:none;stroke:#a9a9a9;stroke-linecap:square;stroke-linejoin:miter;stroke-width:2;"/>
   </g>
   <g id="patch_6">
    <path d="M 18 17.28 
L 129.6 17.28 
" style="fill:none;"/>
   </g>
   <g id="legend_1">
    <g id="line2d_8">
     <path d="M 87.67 26.448906 
L 101.67 26.448906 
" style="fill:none;stroke:#fc8d62;stroke-linecap:square;stroke-width:2;"/>
    </g>
    <g id="line2d_9"/>
    <g id="text_1">
     <!-- $\theta$ -->
     <g transform="translate(107.27 28.898906)scale(0.07 -0.07)">
      <defs>
       <path d="M 45.515625 34.671875 
L 14.453125 34.671875 
Q 12.359375 20.0625 14.5 13.875 
Q 17.1875 6.25 24.46875 6.25 
Q 31.78125 6.25 37.359375 13.921875 
Q 42.234375 20.65625 45.515625 34.671875 
z
M 47.015625 42.96875 
Q 48.34375 56.84375 46.625 61.71875 
Q 43.953125 69.4375 36.765625 69.4375 
Q 29.296875 69.4375 23.828125 61.8125 
Q 19.53125 55.671875 16.15625 42.96875 
z
M 38.1875 76.765625 
Q 49.90625 76.765625 54.59375 66.40625 
Q 59.28125 56.109375 55.71875 37.84375 
Q 52.203125 19.625 43.453125 9.28125 
Q 34.765625 -1.125 23.046875 -1.125 
Q 11.28125 -1.125 6.640625 9.28125 
Q 2 19.625 5.515625 37.84375 
Q 9.078125 56.109375 17.71875 66.40625 
Q 26.421875 76.765625 38.1875 76.765625 
z
" id="DejaVuSans-Oblique-952"/>
      </defs>
      <use transform="translate(0 0.234375)" xlink:href="#DejaVuSans-Oblique-952"/>
     </g>
    </g>
    <g id="line2d_10">
     <path d="M 87.67 36.723594 
L 101.67 36.723594 
" style="fill:none;stroke:#fc8d62;stroke-dasharray:1.5,1.5;stroke-dashoffset:0;stroke-opacity:0.7;stroke-width:1.5;"/>
    </g>
    <g id="line2d_11"/>
    <g id="text_2">
     <!-- No $\theta$ -->
     <g transform="translate(107.27 39.173594)scale(0.07 -0.07)">
      <defs>
       <path d="M 9.8125 72.90625 
L 23.09375 72.90625 
L 55.421875 11.921875 
L 55.421875 72.90625 
L 64.984375 72.90625 
L 64.984375 0 
L 51.703125 0 
L 19.390625 60.984375 
L 19.390625 0 
L 9.8125 0 
z
" id="DejaVuSans-78"/>
       <path d="M 30.609375 48.390625 
Q 23.390625 48.390625 19.1875 42.75 
Q 14.984375 37.109375 14.984375 27.296875 
Q 14.984375 17.484375 19.15625 11.84375 
Q 23.34375 6.203125 30.609375 6.203125 
Q 37.796875 6.203125 41.984375 11.859375 
Q 46.1875 17.53125 46.1875 27.296875 
Q 46.1875 37.015625 41.984375 42.703125 
Q 37.796875 48.390625 30.609375 48.390625 
z
M 30.609375 56 
Q 42.328125 56 49.015625 48.375 
Q 55.71875 40.765625 55.71875 27.296875 
Q 55.71875 13.875 49.015625 6.21875 
Q 42.328125 -1.421875 30.609375 -1.421875 
Q 18.84375 -1.421875 12.171875 6.21875 
Q 5.515625 13.875 5.515625 27.296875 
Q 5.515625 40.765625 12.171875 48.375 
Q 18.84375 56 30.609375 56 
z
" id="DejaVuSans-111"/>
       <path id="DejaVuSans-32"/>
      </defs>
      <use transform="translate(0 0.234375)" xlink:href="#DejaVuSans-78"/>
      <use transform="translate(74.804688 0.234375)" xlink:href="#DejaVuSans-111"/>
      <use transform="translate(135.986328 0.234375)" xlink:href="#DejaVuSans-32"/>
      <use transform="translate(167.773438 0.234375)" xlink:href="#DejaVuSans-Oblique-952"/>
     </g>
    </g>
   </g>
  </g>
  <g id="axes_2">
   <g id="patch_7">
    <path d="M 18 128.16 
L 129.6 128.16 
L 129.6 77.76 
L 18 77.76 
z
" style="fill:none;"/>
   </g>
   <g id="PolyCollection_3">
    <path clip-path="url(#p9961349dac)" d="M 18 120.539706 
L 18 120.46207 
L 20.277551 120.680722 
L 22.555102 120.744631 
L 24.832653 120.661874 
L 27.110204 120.480757 
L 29.387755 120.279285 
L 31.665306 120.106775 
L 33.942857 119.822755 
L 36.220408 119.265521 
L 38.497959 118.307895 
L 40.77551 116.857907 
L 43.053061 114.863695 
L 45.330612 112.316586 
L 47.608163 109.248579 
L 49.885714 105.728291 
L 52.163265 101.856769 
L 54.440816 97.76373 
L 56.718367 93.603751 
L 58.995918 89.551453 
L 61.273469 85.796339 
L 63.55102 82.537351 
L 65.828571 79.977555 
L 68.106122 78.319285 
L 70.383673 77.76 
L 72.661224 78.48902 
L 74.938776 80.675305 
L 77.216327 84.408953 
L 79.493878 89.289116 
L 81.771429 94.86802 
L 84.04898 100.727722 
L 86.326531 106.503972 
L 88.604082 111.895303 
L 90.881633 116.667885 
L 93.159184 120.656559 
L 95.436735 123.763626 
L 97.714286 125.956488 
L 99.991837 127.262809 
L 102.269388 127.760644 
L 104.546939 127.56464 
L 106.82449 126.814231 
L 109.102041 125.664585 
L 111.379592 124.278478 
L 113.657143 122.81951 
L 115.934694 121.446961 
L 118.212245 120.313864 
L 120.489796 119.570542 
L 122.767347 119.314233 
L 125.044898 119.426061 
L 127.322449 119.74308 
L 129.6 120.124852 
L 129.6 120.227549 
L 129.6 120.227549 
L 127.322449 119.869971 
L 125.044898 119.57142 
L 122.767347 119.469932 
L 120.489796 119.730291 
L 118.212245 120.481557 
L 115.934694 121.640421 
L 113.657143 123.055911 
L 111.379592 124.564409 
L 109.102041 125.99625 
L 106.82449 127.180948 
L 104.546939 127.953087 
L 102.269388 128.16 
L 99.991837 127.670741 
L 97.714286 126.385726 
L 95.436735 124.243942 
L 93.159184 121.227184 
L 90.881633 117.36633 
L 88.604082 112.750105 
L 86.326531 107.532547 
L 84.04898 101.936489 
L 81.771429 96.252801 
L 79.493878 90.835736 
L 77.216327 86.093774 
L 74.938776 82.465933 
L 72.661224 80.345808 
L 70.383673 79.64045 
L 68.106122 80.180487 
L 65.828571 81.778113 
L 63.55102 84.239202 
L 61.273469 87.366436 
L 58.995918 90.963261 
L 56.718367 94.838468 
L 54.440816 98.811146 
L 52.163265 102.715739 
L 49.885714 106.406856 
L 47.608163 109.76336 
L 45.330612 112.692324 
L 43.053061 115.132246 
L 40.77551 117.05486 
L 38.497959 118.465812 
L 36.220408 119.405225 
L 33.942857 119.951813 
L 31.665306 120.226305 
L 29.387755 120.387567 
L 27.110204 120.573269 
L 24.832653 120.735806 
L 22.555102 120.803972 
L 20.277551 120.740581 
L 18 120.539706 
z
" style="fill:#66c2a5;fill-opacity:0.2;"/>
   </g>
   <g id="matplotlib.axis_3">
    <g id="xtick_6">
     <g id="line2d_12">
      <g>
       <use style="fill:#a9a9a9;stroke:#a9a9a9;stroke-width:2;" x="29.387755" xlink:href="#ma7e28330ca" y="122.19373"/>
      </g>
     </g>
    </g>
    <g id="xtick_7">
     <g id="line2d_13">
      <g>
       <use style="fill:#a9a9a9;stroke:#a9a9a9;stroke-width:2;" x="52.163265" xlink:href="#ma7e28330ca" y="122.19373"/>
      </g>
     </g>
    </g>
    <g id="xtick_8">
     <g id="line2d_14">
      <g>
       <use style="fill:#a9a9a9;stroke:#a9a9a9;stroke-width:2;" x="74.938776" xlink:href="#ma7e28330ca" y="122.19373"/>
      </g>
     </g>
    </g>
    <g id="xtick_9">
     <g id="line2d_15">
      <g>
       <use style="fill:#a9a9a9;stroke:#a9a9a9;stroke-width:2;" x="97.714286" xlink:href="#ma7e28330ca" y="122.19373"/>
      </g>
     </g>
    </g>
    <g id="xtick_10">
     <g id="line2d_16">
      <g>
       <use style="fill:#a9a9a9;stroke:#a9a9a9;stroke-width:2;" x="120.489796" xlink:href="#ma7e28330ca" y="122.19373"/>
      </g>
     </g>
    </g>
   </g>
   <g id="matplotlib.axis_4"/>
   <g id="line2d_17">
    <path clip-path="url(#p9961349dac)" d="M 18 120.500888 
L 20.277551 120.710651 
L 22.555102 120.774301 
L 24.832653 120.69884 
L 27.110204 120.527013 
L 29.387755 120.333426 
L 31.665306 120.16654 
L 33.942857 119.887284 
L 36.220408 119.335373 
L 38.497959 118.386854 
L 40.77551 116.956383 
L 43.053061 114.997971 
L 45.330612 112.504455 
L 47.608163 109.50597 
L 49.885714 106.067573 
L 52.163265 102.286254 
L 54.440816 98.287438 
L 56.718367 94.221109 
L 58.995918 90.257357 
L 61.273469 86.581387 
L 63.55102 83.388277 
L 65.828571 80.877834 
L 68.106122 79.249886 
L 70.383673 78.700225 
L 72.661224 79.417414 
L 74.938776 81.570619 
L 77.216327 85.251364 
L 79.493878 90.062426 
L 81.771429 95.560411 
L 84.04898 101.332106 
L 86.326531 107.018259 
L 88.604082 112.322704 
L 90.881633 117.017108 
L 93.159184 120.941872 
L 95.436735 124.003784 
L 97.714286 126.171107 
L 99.991837 127.466775 
L 102.269388 127.960322 
L 104.546939 127.758863 
L 106.82449 126.997589 
L 109.102041 125.830417 
L 111.379592 124.421443 
L 113.657143 122.937711 
L 115.934694 121.543691 
L 118.212245 120.397711 
L 120.489796 119.650416 
L 122.767347 119.392082 
L 125.044898 119.49874 
L 127.322449 119.806525 
L 129.6 120.176201 
" style="fill:none;stroke:#66c2a5;stroke-linecap:square;stroke-width:2;"/>
   </g>
   <g id="patch_8">
    <path d="M 74.938776 128.16 
L 74.938776 77.76 
" style="fill:none;stroke:#a9a9a9;stroke-linecap:square;stroke-linejoin:miter;stroke-width:2;"/>
   </g>
   <g id="patch_9">
    <path d="M 129.6 128.16 
L 129.6 77.76 
" style="fill:none;"/>
   </g>
   <g id="patch_10">
    <path d="M 18 122.19373 
L 129.6 122.19373 
" style="fill:none;stroke:#a9a9a9;stroke-linecap:square;stroke-linejoin:miter;stroke-width:2;"/>
   </g>
   <g id="patch_11">
    <path d="M 18 77.76 
L 129.6 77.76 
" style="fill:none;"/>
   </g>
  </g>
 </g>
 <defs>
  <clipPath id="pcd974a7d01">
   <rect height="50.4" width="111.6" x="18" y="17.28"/>
  </clipPath>
  <clipPath id="p9961349dac">
   <rect height="50.4" width="111.6" x="18" y="77.76"/>
  </clipPath>
 </defs>
</svg>
