<?xml version="1.0" encoding="utf-8" standalone="no"?>
<!DOCTYPE svg PUBLIC "-//W3C//DTD SVG 1.1//EN"
  "http://www.w3.org/Graphics/SVG/1.1/DTD/svg11.dtd">
<!-- Created with matplotlib (https://matplotlib.org/) -->
<svg height="144pt" version="1.1" viewBox="0 0 144 144" width="144pt" xmlns="http://www.w3.org/2000/svg" xmlns:xlink="http://www.w3.org/1999/xlink">
 <metadata>
  <rdf:RDF xmlns:cc="http://creativecommons.org/ns#" xmlns:dc="http://purl.org/dc/elements/1.1/" xmlns:rdf="http://www.w3.org/1999/02/22-rdf-syntax-ns#">
   <cc:Work>
    <dc:type rdf:resource="http://purl.org/dc/dcmitype/StillImage"/>
    <dc:date>2021-10-11T18:35:18.612752</dc:date>
    <dc:format>image/svg+xml</dc:format>
    <dc:creator>
     <cc:Agent>
      <dc:title>Matplotlib v3.3.2, https://matplotlib.org/</dc:title>
     </cc:Agent>
    </dc:creator>
   </cc:Work>
  </rdf:RDF>
 </metadata>
 <defs>
  <style type="text/css">*{stroke-linecap:butt;stroke-linejoin:round;}</style>
 </defs>
 <g id="figure_1">
  <g id="patch_1">
   <path d="M 0 144 
L 144 144 
L 144 0 
L 0 0 
z
" style="fill:none;"/>
  </g>
  <g id="axes_1">
   <g id="patch_2">
    <path d="M 18 67.68 
L 129.6 67.68 
L 129.6 17.28 
L 18 17.28 
z
" style="fill:none;"/>
   </g>
   <g id="PolyCollection_1">
    <path clip-path="url(#p16ce5edb8d)" d="M 18 66.568232 
L 18 66.568232 
L 20.277551 66.568232 
L 22.555102 66.568232 
L 24.832653 66.568232 
L 27.110204 66.568232 
L 29.387755 66.566682 
L 31.665306 66.461022 
L 33.942857 66.142217 
L 36.220408 65.488411 
L 38.497959 64.542046 
L 40.77551 62.863831 
L 43.053061 60.573744 
L 45.330612 57.752579 
L 47.608163 53.702635 
L 49.885714 49.188052 
L 52.163265 44.508446 
L 54.440816 39.100274 
L 56.718367 33.657318 
L 58.995918 28.396471 
L 61.273469 23.629013 
L 63.55102 19.642058 
L 65.828571 17.453155 
L 68.106122 17.28 
L 70.383673 17.985217 
L 72.661224 21.302419 
L 74.938776 42.500722 
L 77.216327 31.491984 
L 79.493878 38.150562 
L 81.771429 44.050118 
L 84.04898 49.946065 
L 86.326531 54.89401 
L 88.604082 58.118997 
L 90.881633 61.213631 
L 93.159184 63.607147 
L 95.436735 64.785237 
L 97.714286 65.184665 
L 99.991837 66.040921 
L 102.269388 66.288228 
L 104.546939 66.341894 
L 106.82449 66.406781 
L 109.102041 66.523483 
L 111.379592 66.597261 
L 113.657143 66.652987 
L 115.934694 66.678591 
L 118.212245 66.608235 
L 120.489796 66.571488 
L 122.767347 66.568278 
L 125.044898 66.568233 
L 127.322449 66.568232 
L 129.6 66.568232 
L 129.6 66.568232 
L 129.6 66.568232 
L 127.322449 66.568232 
L 125.044898 66.568234 
L 122.767347 66.568354 
L 120.489796 66.576662 
L 118.212245 66.672081 
L 115.934694 66.856441 
L 113.657143 67.020714 
L 111.379592 67.012175 
L 109.102041 67.25246 
L 106.82449 67.452938 
L 104.546939 67.437834 
L 102.269388 67.68 
L 99.991837 67.543489 
L 97.714286 67.049256 
L 95.436735 66.418551 
L 93.159184 65.115718 
L 90.881633 63.051219 
L 88.604082 60.477829 
L 86.326531 57.286362 
L 84.04898 52.555813 
L 81.771429 47.168003 
L 79.493878 41.253866 
L 77.216327 35.228646 
L 74.938776 43.975036 
L 72.661224 24.904624 
L 70.383673 21.669054 
L 68.106122 20.348854 
L 65.828571 20.768586 
L 63.55102 22.440913 
L 61.273469 26.62179 
L 58.995918 31.012292 
L 56.718367 35.95365 
L 54.440816 41.202294 
L 52.163265 46.600588 
L 49.885714 51.163716 
L 47.608163 55.31539 
L 45.330612 59.048513 
L 43.053061 61.834773 
L 40.77551 63.717805 
L 38.497959 65.062446 
L 36.220408 65.888389 
L 33.942857 66.331515 
L 31.665306 66.542362 
L 29.387755 66.568898 
L 27.110204 66.568232 
L 24.832653 66.568232 
L 22.555102 66.568232 
L 20.277551 66.568232 
L 18 66.568232 
z
" style="fill:#fc8d62;fill-opacity:0.2;"/>
   </g>
   <g id="PolyCollection_2">
    <path clip-path="url(#p16ce5edb8d)" d="M 18 66.568232 
L 18 66.568232 
L 20.277551 66.568232 
L 22.555102 66.568232 
L 24.832653 66.568232 
L 27.110204 66.568232 
L 29.387755 66.567631 
L 31.665306 66.452484 
L 33.942857 66.05216 
L 36.220408 65.361626 
L 38.497959 64.312693 
L 40.77551 62.949434 
L 43.053061 60.930614 
L 45.330612 58.812596 
L 47.608163 56.104263 
L 49.885714 53.02345 
L 52.163265 49.688076 
L 54.440816 46.346221 
L 56.718367 43.15258 
L 58.995918 39.988533 
L 61.273469 36.243428 
L 63.55102 33.689287 
L 65.828571 30.503155 
L 68.106122 29.012876 
L 70.383673 28.007155 
L 72.661224 28.479018 
L 74.938776 41.100449 
L 77.216327 29.747779 
L 79.493878 32.242004 
L 81.771429 35.510135 
L 84.04898 38.331667 
L 86.326531 41.620813 
L 88.604082 44.750742 
L 90.881633 48.494022 
L 93.159184 51.662013 
L 95.436735 54.885603 
L 97.714286 57.612504 
L 99.991837 60.143949 
L 102.269388 62.124706 
L 104.546939 63.679857 
L 106.82449 64.972889 
L 109.102041 65.756496 
L 111.379592 66.295023 
L 113.657143 66.599691 
L 115.934694 66.601386 
L 118.212245 66.609289 
L 120.489796 66.571556 
L 122.767347 66.568275 
L 125.044898 66.568233 
L 127.322449 66.568232 
L 129.6 66.568232 
L 129.6 66.568232 
L 129.6 66.568232 
L 127.322449 66.568232 
L 125.044898 66.568234 
L 122.767347 66.568366 
L 120.489796 66.575608 
L 118.212245 66.687427 
L 115.934694 66.835851 
L 113.657143 66.957566 
L 111.379592 66.887814 
L 109.102041 66.551787 
L 106.82449 66.053243 
L 104.546939 64.771763 
L 102.269388 63.605847 
L 99.991837 61.777261 
L 97.714286 59.549367 
L 95.436735 56.996735 
L 93.159184 53.868693 
L 90.881633 50.714492 
L 88.604082 47.467352 
L 86.326531 44.386215 
L 84.04898 41.546417 
L 81.771429 38.154093 
L 79.493878 35.19347 
L 77.216327 33.037408 
L 74.938776 43.127551 
L 72.661224 30.849858 
L 70.383673 31.292561 
L 68.106122 31.5221 
L 65.828571 34.094943 
L 63.55102 36.442123 
L 61.273469 39.226085 
L 58.995918 42.292336 
L 56.718367 45.36604 
L 54.440816 48.692352 
L 52.163265 51.729944 
L 49.885714 54.762244 
L 47.608163 57.536343 
L 45.330612 59.928981 
L 43.053061 62.128388 
L 40.77551 63.783774 
L 38.497959 64.972187 
L 36.220408 65.768465 
L 33.942857 66.341917 
L 31.665306 66.534425 
L 29.387755 66.568465 
L 27.110204 66.568232 
L 24.832653 66.568232 
L 22.555102 66.568232 
L 20.277551 66.568232 
L 18 66.568232 
z
" style="fill:#fc8d62;fill-opacity:0.2;"/>
   </g>
   <g id="matplotlib.axis_1">
    <g id="xtick_1">
     <g id="line2d_1">
      <defs>
       <path d="M 0 0 
L 0 3.5 
" id="mcfa2d3912f" style="stroke:#a9a9a9;stroke-width:2;"/>
      </defs>
      <g>
       <use style="fill:#a9a9a9;stroke:#a9a9a9;stroke-width:2;" x="29.387755" xlink:href="#mcfa2d3912f" y="66.568232"/>
      </g>
     </g>
    </g>
    <g id="xtick_2">
     <g id="line2d_2">
      <g>
       <use style="fill:#a9a9a9;stroke:#a9a9a9;stroke-width:2;" x="52.163265" xlink:href="#mcfa2d3912f" y="66.568232"/>
      </g>
     </g>
    </g>
    <g id="xtick_3">
     <g id="line2d_3">
      <g>
       <use style="fill:#a9a9a9;stroke:#a9a9a9;stroke-width:2;" x="74.938776" xlink:href="#mcfa2d3912f" y="66.568232"/>
      </g>
     </g>
    </g>
    <g id="xtick_4">
     <g id="line2d_4">
      <g>
       <use style="fill:#a9a9a9;stroke:#a9a9a9;stroke-width:2;" x="97.714286" xlink:href="#mcfa2d3912f" y="66.568232"/>
      </g>
     </g>
    </g>
    <g id="xtick_5">
     <g id="line2d_5">
      <g>
       <use style="fill:#a9a9a9;stroke:#a9a9a9;stroke-width:2;" x="120.489796" xlink:href="#mcfa2d3912f" y="66.568232"/>
      </g>
     </g>
    </g>
   </g>
   <g id="matplotlib.axis_2"/>
   <g id="line2d_6">
    <path clip-path="url(#p16ce5edb8d)" d="M 18 66.568232 
L 20.277551 66.568232 
L 22.555102 66.568232 
L 24.832653 66.568232 
L 27.110204 66.568232 
L 29.387755 66.56779 
L 31.665306 66.501692 
L 33.942857 66.236866 
L 36.220408 65.6884 
L 38.497959 64.802246 
L 40.77551 63.290818 
L 43.053061 61.204258 
L 45.330612 58.400546 
L 47.608163 54.509012 
L 49.885714 50.175884 
L 52.163265 45.554517 
L 54.440816 40.151284 
L 56.718367 34.805484 
L 58.995918 29.704381 
L 61.273469 25.125401 
L 63.55102 21.041486 
L 65.828571 19.110871 
L 68.106122 18.814427 
L 70.383673 19.827136 
L 72.661224 23.103522 
L 74.938776 43.237879 
L 77.216327 33.360315 
L 79.493878 39.702214 
L 81.771429 45.609061 
L 84.04898 51.250939 
L 86.326531 56.090186 
L 88.604082 59.298413 
L 90.881633 62.132425 
L 93.159184 64.361433 
L 95.436735 65.601894 
L 97.714286 66.11696 
L 99.991837 66.792205 
L 102.269388 66.984114 
L 104.546939 66.889864 
L 106.82449 66.929859 
L 109.102041 66.887972 
L 111.379592 66.804718 
L 113.657143 66.83685 
L 115.934694 66.767516 
L 118.212245 66.640158 
L 120.489796 66.574075 
L 122.767347 66.568316 
L 125.044898 66.568233 
L 127.322449 66.568232 
L 129.6 66.568232 
" style="fill:none;stroke:#fc8d62;stroke-linecap:square;stroke-width:2;"/>
   </g>
   <g id="line2d_7">
    <path clip-path="url(#p16ce5edb8d)" d="M 18 66.568232 
L 20.277551 66.568232 
L 22.555102 66.568232 
L 24.832653 66.568232 
L 27.110204 66.568232 
L 29.387755 66.568048 
L 31.665306 66.493455 
L 33.942857 66.197039 
L 36.220408 65.565045 
L 38.497959 64.64244 
L 40.77551 63.366604 
L 43.053061 61.529501 
L 45.330612 59.370789 
L 47.608163 56.820303 
L 49.885714 53.892847 
L 52.163265 50.70901 
L 54.440816 47.519287 
L 56.718367 44.25931 
L 58.995918 41.140435 
L 61.273469 37.734757 
L 63.55102 35.065705 
L 65.828571 32.299049 
L 68.106122 30.267488 
L 70.383673 29.649858 
L 72.661224 29.664438 
L 74.938776 42.114 
L 77.216327 31.392593 
L 79.493878 33.717737 
L 81.771429 36.832114 
L 84.04898 39.939042 
L 86.326531 43.003514 
L 88.604082 46.109047 
L 90.881633 49.604257 
L 93.159184 52.765353 
L 95.436735 55.941169 
L 97.714286 58.580936 
L 99.991837 60.960605 
L 102.269388 62.865276 
L 104.546939 64.22581 
L 106.82449 65.513066 
L 109.102041 66.154141 
L 111.379592 66.591418 
L 113.657143 66.778628 
L 115.934694 66.718619 
L 118.212245 66.648358 
L 120.489796 66.573582 
L 122.767347 66.56832 
L 125.044898 66.568233 
L 127.322449 66.568232 
L 129.6 66.568232 
" style="fill:none;stroke:#fc8d62;stroke-dasharray:1.5,1.5;stroke-dashoffset:0;stroke-opacity:0.7;stroke-width:1.5;"/>
   </g>
   <g id="patch_3">
    <path d="M 74.938776 67.68 
L 74.938776 17.28 
" style="fill:none;stroke:#a9a9a9;stroke-linecap:square;stroke-linejoin:miter;stroke-width:2;"/>
   </g>
   <g id="patch_4">
    <path d="M 129.6 67.68 
L 129.6 17.28 
" style="fill:none;"/>
   </g>
   <g id="patch_5">
    <path d="M 18 66.568232 
L 129.6 66.568232 
" style="fill:none;stroke:#a9a9a9;stroke-linecap:square;stroke-linejoin:miter;stroke-width:2;"/>
   </g>
   <g id="patch_6">
    <path d="M 18 17.28 
L 129.6 17.28 
" style="fill:none;"/>
   </g>
   <g id="legend_1">
    <g id="line2d_8">
     <path d="M 87.67 26.448906 
L 101.67 26.448906 
" style="fill:none;stroke:#fc8d62;stroke-linecap:square;stroke-width:2;"/>
    </g>
    <g id="line2d_9"/>
    <g id="text_1">
     <!-- $\theta$ -->
     <g transform="translate(107.27 28.898906)scale(0.07 -0.07)">
      <defs>
       <path d="M 45.515625 34.671875 
L 14.453125 34.671875 
Q 12.359375 20.0625 14.5 13.875 
Q 17.1875 6.25 24.46875 6.25 
Q 31.78125 6.25 37.359375 13.921875 
Q 42.234375 20.65625 45.515625 34.671875 
z
M 47.015625 42.96875 
Q 48.34375 56.84375 46.625 61.71875 
Q 43.953125 69.4375 36.765625 69.4375 
Q 29.296875 69.4375 23.828125 61.8125 
Q 19.53125 55.671875 16.15625 42.96875 
z
M 38.1875 76.765625 
Q 49.90625 76.765625 54.59375 66.40625 
Q 59.28125 56.109375 55.71875 37.84375 
Q 52.203125 19.625 43.453125 9.28125 
Q 34.765625 -1.125 23.046875 -1.125 
Q 11.28125 -1.125 6.640625 9.28125 
Q 2 19.625 5.515625 37.84375 
Q 9.078125 56.109375 17.71875 66.40625 
Q 26.421875 76.765625 38.1875 76.765625 
z
" id="DejaVuSans-Oblique-952"/>
      </defs>
      <use transform="translate(0 0.234375)" xlink:href="#DejaVuSans-Oblique-952"/>
     </g>
    </g>
    <g id="line2d_10">
     <path d="M 87.67 36.723594 
L 101.67 36.723594 
" style="fill:none;stroke:#fc8d62;stroke-dasharray:1.5,1.5;stroke-dashoffset:0;stroke-opacity:0.7;stroke-width:1.5;"/>
    </g>
    <g id="line2d_11"/>
    <g id="text_2">
     <!-- No $\theta$ -->
     <g transform="translate(107.27 39.173594)scale(0.07 -0.07)">
      <defs>
       <path d="M 9.8125 72.90625 
L 23.09375 72.90625 
L 55.421875 11.921875 
L 55.421875 72.90625 
L 64.984375 72.90625 
L 64.984375 0 
L 51.703125 0 
L 19.390625 60.984375 
L 19.390625 0 
L 9.8125 0 
z
" id="DejaVuSans-78"/>
       <path d="M 30.609375 48.390625 
Q 23.390625 48.390625 19.1875 42.75 
Q 14.984375 37.109375 14.984375 27.296875 
Q 14.984375 17.484375 19.15625 11.84375 
Q 23.34375 6.203125 30.609375 6.203125 
Q 37.796875 6.203125 41.984375 11.859375 
Q 46.1875 17.53125 46.1875 27.296875 
Q 46.1875 37.015625 41.984375 42.703125 
Q 37.796875 48.390625 30.609375 48.390625 
z
M 30.609375 56 
Q 42.328125 56 49.015625 48.375 
Q 55.71875 40.765625 55.71875 27.296875 
Q 55.71875 13.875 49.015625 6.21875 
Q 42.328125 -1.421875 30.609375 -1.421875 
Q 18.84375 -1.421875 12.171875 6.21875 
Q 5.515625 13.875 5.515625 27.296875 
Q 5.515625 40.765625 12.171875 48.375 
Q 18.84375 56 30.609375 56 
z
" id="DejaVuSans-111"/>
       <path id="DejaVuSans-32"/>
      </defs>
      <use transform="translate(0 0.234375)" xlink:href="#DejaVuSans-78"/>
      <use transform="translate(74.804688 0.234375)" xlink:href="#DejaVuSans-111"/>
      <use transform="translate(135.986328 0.234375)" xlink:href="#DejaVuSans-32"/>
      <use transform="translate(167.773438 0.234375)" xlink:href="#DejaVuSans-Oblique-952"/>
     </g>
    </g>
   </g>
  </g>
  <g id="axes_2">
   <g id="patch_7">
    <path d="M 18 128.16 
L 129.6 128.16 
L 129.6 77.76 
L 18 77.76 
z
" style="fill:none;"/>
   </g>
   <g id="PolyCollection_3">
    <path clip-path="url(#p4dc03011fe)" d="M 18 118.373275 
L 18 118.223885 
L 20.277551 118.157055 
L 22.555102 117.93587 
L 24.832653 117.553142 
L 27.110204 117.034467 
L 29.387755 116.434521 
L 31.665306 115.791221 
L 33.942857 114.997032 
L 36.220408 113.930812 
L 38.497959 112.503423 
L 40.77551 110.659584 
L 43.053061 108.378993 
L 45.330612 105.676691 
L 47.608163 102.601518 
L 49.885714 99.23303 
L 52.163265 95.677305 
L 54.440816 92.062195 
L 56.718367 88.532436 
L 58.995918 85.244559 
L 61.273469 82.361531 
L 63.55102 80.047499 
L 65.828571 78.462851 
L 68.106122 77.76 
L 70.383673 78.080121 
L 72.661224 79.551035 
L 74.938776 82.27852 
L 77.216327 86.301397 
L 79.493878 91.268067 
L 81.771429 96.78624 
L 84.04898 102.486194 
L 86.326531 108.042435 
L 88.604082 113.183518 
L 90.881633 117.697893 
L 93.159184 121.436558 
L 95.436735 124.313123 
L 97.714286 126.302239 
L 99.991837 127.434868 
L 102.269388 127.788278 
L 104.546939 127.473781 
L 106.82449 126.625968 
L 109.102041 125.393604 
L 111.379592 123.931327 
L 113.657143 122.392596 
L 115.934694 120.92461 
L 118.212245 119.6662 
L 120.489796 118.748191 
L 122.767347 118.25113 
L 125.044898 118.079206 
L 127.322449 118.09622 
L 129.6 118.178604 
L 129.6 118.339619 
L 129.6 118.339619 
L 127.322449 118.273351 
L 125.044898 118.270688 
L 122.767347 118.451609 
L 120.489796 118.952674 
L 118.212245 119.875499 
L 115.934694 121.148357 
L 113.657143 122.642829 
L 111.379592 124.215248 
L 109.102041 125.710997 
L 106.82449 126.970494 
L 104.546939 127.836053 
L 102.269388 128.16 
L 99.991837 127.813893 
L 97.714286 126.698164 
L 95.436735 124.750047 
L 93.159184 121.948626 
L 90.881633 118.319805 
L 88.604082 113.943425 
L 86.326531 108.959255 
L 84.04898 103.569149 
L 81.771429 98.035266 
L 79.493878 92.674171 
L 77.216327 87.847066 
L 74.938776 83.938317 
L 72.661224 81.292714 
L 70.383673 79.867855 
L 68.106122 79.556418 
L 65.828571 80.230896 
L 63.55102 81.752206 
L 61.273469 83.97172 
L 58.995918 86.734343 
L 56.718367 89.882489 
L 54.440816 93.260636 
L 52.163265 96.720292 
L 49.885714 100.124859 
L 47.608163 103.354207 
L 45.330612 106.308718 
L 43.053061 108.912817 
L 40.77551 111.118089 
L 38.497959 112.906134 
L 36.220408 114.291152 
L 33.942857 115.322237 
L 31.665306 116.083857 
L 29.387755 116.694059 
L 27.110204 117.258952 
L 24.832653 117.744043 
L 22.555102 118.099845 
L 20.277551 118.306304 
L 18 118.373275 
z
" style="fill:#66c2a5;fill-opacity:0.2;"/>
   </g>
   <g id="matplotlib.axis_3">
    <g id="xtick_6">
     <g id="line2d_12">
      <g>
       <use style="fill:#a9a9a9;stroke:#a9a9a9;stroke-width:2;" x="29.387755" xlink:href="#mcfa2d3912f" y="122.84871"/>
      </g>
     </g>
    </g>
    <g id="xtick_7">
     <g id="line2d_13">
      <g>
       <use style="fill:#a9a9a9;stroke:#a9a9a9;stroke-width:2;" x="52.163265" xlink:href="#mcfa2d3912f" y="122.84871"/>
      </g>
     </g>
    </g>
    <g id="xtick_8">
     <g id="line2d_14">
      <g>
       <use style="fill:#a9a9a9;stroke:#a9a9a9;stroke-width:2;" x="74.938776" xlink:href="#mcfa2d3912f" y="122.84871"/>
      </g>
     </g>
    </g>
    <g id="xtick_9">
     <g id="line2d_15">
      <g>
       <use style="fill:#a9a9a9;stroke:#a9a9a9;stroke-width:2;" x="97.714286" xlink:href="#mcfa2d3912f" y="122.84871"/>
      </g>
     </g>
    </g>
    <g id="xtick_10">
     <g id="line2d_16">
      <g>
       <use style="fill:#a9a9a9;stroke:#a9a9a9;stroke-width:2;" x="120.489796" xlink:href="#mcfa2d3912f" y="122.84871"/>
      </g>
     </g>
    </g>
   </g>
   <g id="matplotlib.axis_4"/>
   <g id="line2d_17">
    <path clip-path="url(#p4dc03011fe)" d="M 18 118.29858 
L 20.277551 118.231679 
L 22.555102 118.017858 
L 24.832653 117.648593 
L 27.110204 117.14671 
L 29.387755 116.56429 
L 31.665306 115.937539 
L 33.942857 115.159634 
L 36.220408 114.110982 
L 38.497959 112.704779 
L 40.77551 110.888836 
L 43.053061 108.645905 
L 45.330612 105.992705 
L 47.608163 102.977863 
L 49.885714 99.678944 
L 52.163265 96.198798 
L 54.440816 92.661416 
L 56.718367 89.207462 
L 58.995918 85.989451 
L 61.273469 83.166625 
L 63.55102 80.899852 
L 65.828571 79.346873 
L 68.106122 78.658209 
L 70.383673 78.973988 
L 72.661224 80.421875 
L 74.938776 83.108419 
L 77.216327 87.074232 
L 79.493878 91.971119 
L 81.771429 97.410753 
L 84.04898 103.027671 
L 86.326531 108.500845 
L 88.604082 113.563471 
L 90.881633 118.008849 
L 93.159184 121.692592 
L 95.436735 124.531585 
L 97.714286 126.500202 
L 99.991837 127.62438 
L 102.269388 127.974139 
L 104.546939 127.654917 
L 106.82449 126.798231 
L 109.102041 125.552301 
L 111.379592 124.073288 
L 113.657143 122.517712 
L 115.934694 121.036483 
L 118.212245 119.770849 
L 120.489796 118.850433 
L 122.767347 118.351369 
L 125.044898 118.174947 
L 127.322449 118.184786 
L 129.6 118.259112 
" style="fill:none;stroke:#66c2a5;stroke-linecap:square;stroke-width:2;"/>
   </g>
   <g id="patch_8">
    <path d="M 74.938776 128.16 
L 74.938776 77.76 
" style="fill:none;stroke:#a9a9a9;stroke-linecap:square;stroke-linejoin:miter;stroke-width:2;"/>
   </g>
   <g id="patch_9">
    <path d="M 129.6 128.16 
L 129.6 77.76 
" style="fill:none;"/>
   </g>
   <g id="patch_10">
    <path d="M 18 122.84871 
L 129.6 122.84871 
" style="fill:none;stroke:#a9a9a9;stroke-linecap:square;stroke-linejoin:miter;stroke-width:2;"/>
   </g>
   <g id="patch_11">
    <path d="M 18 77.76 
L 129.6 77.76 
" style="fill:none;"/>
   </g>
  </g>
 </g>
 <defs>
  <clipPath id="p16ce5edb8d">
   <rect height="50.4" width="111.6" x="18" y="17.28"/>
  </clipPath>
  <clipPath id="p4dc03011fe">
   <rect height="50.4" width="111.6" x="18" y="77.76"/>
  </clipPath>
 </defs>
</svg>
