<?xml version="1.0" encoding="utf-8" standalone="no"?>
<!DOCTYPE svg PUBLIC "-//W3C//DTD SVG 1.1//EN"
  "http://www.w3.org/Graphics/SVG/1.1/DTD/svg11.dtd">
<!-- Created with matplotlib (https://matplotlib.org/) -->
<svg height="144pt" version="1.1" viewBox="0 0 144 144" width="144pt" xmlns="http://www.w3.org/2000/svg" xmlns:xlink="http://www.w3.org/1999/xlink">
 <metadata>
  <rdf:RDF xmlns:cc="http://creativecommons.org/ns#" xmlns:dc="http://purl.org/dc/elements/1.1/" xmlns:rdf="http://www.w3.org/1999/02/22-rdf-syntax-ns#">
   <cc:Work>
    <dc:type rdf:resource="http://purl.org/dc/dcmitype/StillImage"/>
    <dc:date>2021-10-11T20:09:32.631014</dc:date>
    <dc:format>image/svg+xml</dc:format>
    <dc:creator>
     <cc:Agent>
      <dc:title>Matplotlib v3.3.2, https://matplotlib.org/</dc:title>
     </cc:Agent>
    </dc:creator>
   </cc:Work>
  </rdf:RDF>
 </metadata>
 <defs>
  <style type="text/css">*{stroke-linecap:butt;stroke-linejoin:round;}</style>
 </defs>
 <g id="figure_1">
  <g id="patch_1">
   <path d="M 0 144 
L 144 144 
L 144 0 
L 0 0 
z
" style="fill:none;"/>
  </g>
  <g id="axes_1">
   <g id="patch_2">
    <path d="M 18 67.68 
L 129.6 67.68 
L 129.6 17.28 
L 18 17.28 
z
" style="fill:none;"/>
   </g>
   <g id="PolyCollection_1">
    <path clip-path="url(#p3e280ec501)" d="M 18 66.105792 
L 18 66.105792 
L 20.277551 66.105792 
L 22.555102 66.105792 
L 24.832653 66.105792 
L 27.110204 66.105792 
L 29.387755 66.105761 
L 31.665306 65.982593 
L 33.942857 65.802869 
L 36.220408 65.452539 
L 38.497959 64.67209 
L 40.77551 63.315782 
L 43.053061 62.189012 
L 45.330612 59.519911 
L 47.608163 57.117126 
L 49.885714 53.369314 
L 52.163265 48.029536 
L 54.440816 42.913609 
L 56.718367 36.765034 
L 58.995918 30.704053 
L 61.273469 25.687453 
L 63.55102 21.5935 
L 65.828571 18.982111 
L 68.106122 17.28 
L 70.383673 19.196312 
L 72.661224 21.598115 
L 74.938776 43.872095 
L 77.216327 31.601947 
L 79.493878 37.367171 
L 81.771429 43.132764 
L 84.04898 48.084368 
L 86.326531 53.404584 
L 88.604082 57.171007 
L 90.881633 59.929313 
L 93.159184 61.151779 
L 95.436735 61.853379 
L 97.714286 62.305558 
L 99.991837 62.906599 
L 102.269388 63.103334 
L 104.546939 63.167958 
L 106.82449 63.898178 
L 109.102041 64.545713 
L 111.379592 64.978751 
L 113.657143 65.465569 
L 115.934694 65.70581 
L 118.212245 66.020132 
L 120.489796 66.10567 
L 122.767347 66.105792 
L 125.044898 66.105792 
L 127.322449 66.105792 
L 129.6 66.105792 
L 129.6 66.105792 
L 129.6 66.105792 
L 127.322449 66.105792 
L 125.044898 66.105792 
L 122.767347 66.105792 
L 120.489796 66.105976 
L 118.212245 66.197367 
L 115.934694 66.287789 
L 113.657143 66.234596 
L 111.379592 66.387734 
L 109.102041 66.57949 
L 106.82449 66.164627 
L 104.546939 66.713371 
L 102.269388 66.865078 
L 99.991837 66.276193 
L 97.714286 67.14615 
L 95.436735 67.68 
L 93.159184 67.411712 
L 90.881633 66.633287 
L 88.604082 64.584687 
L 86.326531 61.727989 
L 84.04898 57.785038 
L 81.771429 52.735731 
L 79.493878 45.845369 
L 77.216327 40.991113 
L 74.938776 46.796901 
L 72.661224 30.29 
L 70.383673 28.311568 
L 68.106122 27.726884 
L 65.828571 28.531621 
L 63.55102 30.897242 
L 61.273469 33.850791 
L 58.995918 37.891149 
L 56.718367 43.337655 
L 54.440816 49.045134 
L 52.163265 53.144384 
L 49.885714 57.230111 
L 47.608163 60.370368 
L 45.330612 63.354078 
L 43.053061 64.653571 
L 40.77551 65.444674 
L 38.497959 66.109811 
L 36.220408 66.190898 
L 33.942857 66.323747 
L 31.665306 66.187096 
L 29.387755 66.105815 
L 27.110204 66.105792 
L 24.832653 66.105792 
L 22.555102 66.105792 
L 20.277551 66.105792 
L 18 66.105792 
z
" style="fill:#fc8d62;fill-opacity:0.2;"/>
   </g>
   <g id="PolyCollection_2">
    <path clip-path="url(#p3e280ec501)" d="M 18 66.105792 
L 18 66.105792 
L 20.277551 66.105792 
L 22.555102 66.105792 
L 24.832653 66.105792 
L 27.110204 66.105792 
L 29.387755 66.105792 
L 31.665306 66.004058 
L 33.942857 65.73724 
L 36.220408 65.174596 
L 38.497959 64.431765 
L 40.77551 63.349822 
L 43.053061 62.228024 
L 45.330612 60.861462 
L 47.608163 58.497241 
L 49.885714 56.02608 
L 52.163265 52.049275 
L 54.440816 50.55434 
L 56.718367 47.873672 
L 58.995918 45.205231 
L 61.273469 42.481778 
L 63.55102 39.992378 
L 65.828571 37.72078 
L 68.106122 34.909148 
L 70.383673 32.982097 
L 72.661224 32.490605 
L 74.938776 47.337475 
L 77.216327 32.981234 
L 79.493878 34.624706 
L 81.771429 35.683718 
L 84.04898 39.424719 
L 86.326531 41.098226 
L 88.604082 44.150145 
L 90.881633 46.329711 
L 93.159184 49.636912 
L 95.436735 52.571221 
L 97.714286 55.934287 
L 99.991837 57.573563 
L 102.269388 59.864373 
L 104.546939 60.802987 
L 106.82449 62.795904 
L 109.102041 63.791562 
L 111.379592 64.893279 
L 113.657143 65.346168 
L 115.934694 65.805553 
L 118.212245 66.004257 
L 120.489796 66.10579 
L 122.767347 66.105792 
L 125.044898 66.105792 
L 127.322449 66.105792 
L 129.6 66.105792 
L 129.6 66.105792 
L 129.6 66.105792 
L 127.322449 66.105792 
L 125.044898 66.105792 
L 122.767347 66.105792 
L 120.489796 66.105795 
L 118.212245 66.181954 
L 115.934694 66.285024 
L 113.657143 66.31838 
L 111.379592 66.265245 
L 109.102041 66.036824 
L 106.82449 65.322466 
L 104.546939 64.098333 
L 102.269388 63.031767 
L 99.991837 61.914295 
L 97.714286 60.803847 
L 95.436735 57.590484 
L 93.159184 55.447639 
L 90.881633 52.677033 
L 88.604082 51.151394 
L 86.326531 47.819541 
L 84.04898 45.662066 
L 81.771429 44.360664 
L 79.493878 44.06498 
L 77.216327 42.001089 
L 74.938776 49.967246 
L 72.661224 41.535817 
L 70.383673 41.845857 
L 68.106122 44.472745 
L 65.828571 43.973718 
L 63.55102 47.205954 
L 61.273469 48.521454 
L 58.995918 51.880421 
L 56.718367 54.145852 
L 54.440816 56.438612 
L 52.163265 57.75807 
L 49.885714 60.181061 
L 47.608163 61.635527 
L 45.330612 63.980472 
L 43.053061 64.482963 
L 40.77551 65.491986 
L 38.497959 65.796152 
L 36.220408 66.281028 
L 33.942857 66.202563 
L 31.665306 66.195214 
L 29.387755 66.105792 
L 27.110204 66.105792 
L 24.832653 66.105792 
L 22.555102 66.105792 
L 20.277551 66.105792 
L 18 66.105792 
z
" style="fill:#fc8d62;fill-opacity:0.2;"/>
   </g>
   <g id="matplotlib.axis_1">
    <g id="xtick_1">
     <g id="line2d_1">
      <defs>
       <path d="M 0 0 
L 0 3.5 
" id="mcea29ec9bb" style="stroke:#a9a9a9;stroke-width:2;"/>
      </defs>
      <g>
       <use style="fill:#a9a9a9;stroke:#a9a9a9;stroke-width:2;" x="29.387755" xlink:href="#mcea29ec9bb" y="66.105792"/>
      </g>
     </g>
    </g>
    <g id="xtick_2">
     <g id="line2d_2">
      <g>
       <use style="fill:#a9a9a9;stroke:#a9a9a9;stroke-width:2;" x="52.163265" xlink:href="#mcea29ec9bb" y="66.105792"/>
      </g>
     </g>
    </g>
    <g id="xtick_3">
     <g id="line2d_3">
      <g>
       <use style="fill:#a9a9a9;stroke:#a9a9a9;stroke-width:2;" x="74.938776" xlink:href="#mcea29ec9bb" y="66.105792"/>
      </g>
     </g>
    </g>
    <g id="xtick_4">
     <g id="line2d_4">
      <g>
       <use style="fill:#a9a9a9;stroke:#a9a9a9;stroke-width:2;" x="97.714286" xlink:href="#mcea29ec9bb" y="66.105792"/>
      </g>
     </g>
    </g>
    <g id="xtick_5">
     <g id="line2d_5">
      <g>
       <use style="fill:#a9a9a9;stroke:#a9a9a9;stroke-width:2;" x="120.489796" xlink:href="#mcea29ec9bb" y="66.105792"/>
      </g>
     </g>
    </g>
   </g>
   <g id="matplotlib.axis_2"/>
   <g id="line2d_6">
    <path clip-path="url(#p3e280ec501)" d="M 18 66.105792 
L 20.277551 66.105792 
L 22.555102 66.105792 
L 24.832653 66.105792 
L 27.110204 66.105792 
L 29.387755 66.105788 
L 31.665306 66.084844 
L 33.942857 66.063308 
L 36.220408 65.821718 
L 38.497959 65.39095 
L 40.77551 64.380228 
L 43.053061 63.421292 
L 45.330612 61.436995 
L 47.608163 58.743747 
L 49.885714 55.299713 
L 52.163265 50.58696 
L 54.440816 45.979371 
L 56.718367 40.051344 
L 58.995918 34.297601 
L 61.273469 29.769122 
L 63.55102 26.245371 
L 65.828571 23.756866 
L 68.106122 22.503442 
L 70.383673 23.75394 
L 72.661224 25.944058 
L 74.938776 45.334498 
L 77.216327 36.29653 
L 79.493878 41.60627 
L 81.771429 47.934248 
L 84.04898 52.934703 
L 86.326531 57.566286 
L 88.604082 60.877847 
L 90.881633 63.2813 
L 93.159184 64.281746 
L 95.436735 64.766689 
L 97.714286 64.725854 
L 99.991837 64.591396 
L 102.269388 64.984206 
L 104.546939 64.940664 
L 106.82449 65.031402 
L 109.102041 65.562601 
L 111.379592 65.683243 
L 113.657143 65.850082 
L 115.934694 65.996799 
L 118.212245 66.108749 
L 120.489796 66.105823 
L 122.767347 66.105792 
L 125.044898 66.105792 
L 127.322449 66.105792 
L 129.6 66.105792 
" style="fill:none;stroke:#fc8d62;stroke-linecap:square;stroke-width:2;"/>
   </g>
   <g id="line2d_7">
    <path clip-path="url(#p3e280ec501)" d="M 18 66.105792 
L 20.277551 66.105792 
L 22.555102 66.105792 
L 24.832653 66.105792 
L 27.110204 66.105792 
L 29.387755 66.105792 
L 31.665306 66.099636 
L 33.942857 65.969901 
L 36.220408 65.727812 
L 38.497959 65.113959 
L 40.77551 64.420904 
L 43.053061 63.355494 
L 45.330612 62.420967 
L 47.608163 60.066384 
L 49.885714 58.10357 
L 52.163265 54.903672 
L 54.440816 53.496476 
L 56.718367 51.009762 
L 58.995918 48.542826 
L 61.273469 45.501616 
L 63.55102 43.599166 
L 65.828571 40.847249 
L 68.106122 39.690946 
L 70.383673 37.413977 
L 72.661224 37.013211 
L 74.938776 48.65236 
L 77.216327 37.491162 
L 79.493878 39.344843 
L 81.771429 40.022191 
L 84.04898 42.543393 
L 86.326531 44.458884 
L 88.604082 47.650769 
L 90.881633 49.503372 
L 93.159184 52.542275 
L 95.436735 55.080853 
L 97.714286 58.369067 
L 99.991837 59.743929 
L 102.269388 61.44807 
L 104.546939 62.45066 
L 106.82449 64.059185 
L 109.102041 64.914193 
L 111.379592 65.579262 
L 113.657143 65.832274 
L 115.934694 66.045289 
L 118.212245 66.093106 
L 120.489796 66.105793 
L 122.767347 66.105792 
L 125.044898 66.105792 
L 127.322449 66.105792 
L 129.6 66.105792 
" style="fill:none;stroke:#fc8d62;stroke-dasharray:1.5,1.5;stroke-dashoffset:0;stroke-opacity:0.7;stroke-width:1.5;"/>
   </g>
   <g id="patch_3">
    <path d="M 74.938776 67.68 
L 74.938776 17.28 
" style="fill:none;stroke:#a9a9a9;stroke-linecap:square;stroke-linejoin:miter;stroke-width:2;"/>
   </g>
   <g id="patch_4">
    <path d="M 129.6 67.68 
L 129.6 17.28 
" style="fill:none;"/>
   </g>
   <g id="patch_5">
    <path d="M 18 66.105792 
L 129.6 66.105792 
" style="fill:none;stroke:#a9a9a9;stroke-linecap:square;stroke-linejoin:miter;stroke-width:2;"/>
   </g>
   <g id="patch_6">
    <path d="M 18 17.28 
L 129.6 17.28 
" style="fill:none;"/>
   </g>
   <g id="legend_1">
    <g id="line2d_8">
     <path d="M 87.67 26.448906 
L 101.67 26.448906 
" style="fill:none;stroke:#fc8d62;stroke-linecap:square;stroke-width:2;"/>
    </g>
    <g id="line2d_9"/>
    <g id="text_1">
     <!-- $\theta$ -->
     <g transform="translate(107.27 28.898906)scale(0.07 -0.07)">
      <defs>
       <path d="M 45.515625 34.671875 
L 14.453125 34.671875 
Q 12.359375 20.0625 14.5 13.875 
Q 17.1875 6.25 24.46875 6.25 
Q 31.78125 6.25 37.359375 13.921875 
Q 42.234375 20.65625 45.515625 34.671875 
z
M 47.015625 42.96875 
Q 48.34375 56.84375 46.625 61.71875 
Q 43.953125 69.4375 36.765625 69.4375 
Q 29.296875 69.4375 23.828125 61.8125 
Q 19.53125 55.671875 16.15625 42.96875 
z
M 38.1875 76.765625 
Q 49.90625 76.765625 54.59375 66.40625 
Q 59.28125 56.109375 55.71875 37.84375 
Q 52.203125 19.625 43.453125 9.28125 
Q 34.765625 -1.125 23.046875 -1.125 
Q 11.28125 -1.125 6.640625 9.28125 
Q 2 19.625 5.515625 37.84375 
Q 9.078125 56.109375 17.71875 66.40625 
Q 26.421875 76.765625 38.1875 76.765625 
z
" id="DejaVuSans-Oblique-952"/>
      </defs>
      <use transform="translate(0 0.234375)" xlink:href="#DejaVuSans-Oblique-952"/>
     </g>
    </g>
    <g id="line2d_10">
     <path d="M 87.67 36.723594 
L 101.67 36.723594 
" style="fill:none;stroke:#fc8d62;stroke-dasharray:1.5,1.5;stroke-dashoffset:0;stroke-opacity:0.7;stroke-width:1.5;"/>
    </g>
    <g id="line2d_11"/>
    <g id="text_2">
     <!-- No $\theta$ -->
     <g transform="translate(107.27 39.173594)scale(0.07 -0.07)">
      <defs>
       <path d="M 9.8125 72.90625 
L 23.09375 72.90625 
L 55.421875 11.921875 
L 55.421875 72.90625 
L 64.984375 72.90625 
L 64.984375 0 
L 51.703125 0 
L 19.390625 60.984375 
L 19.390625 0 
L 9.8125 0 
z
" id="DejaVuSans-78"/>
       <path d="M 30.609375 48.390625 
Q 23.390625 48.390625 19.1875 42.75 
Q 14.984375 37.109375 14.984375 27.296875 
Q 14.984375 17.484375 19.15625 11.84375 
Q 23.34375 6.203125 30.609375 6.203125 
Q 37.796875 6.203125 41.984375 11.859375 
Q 46.1875 17.53125 46.1875 27.296875 
Q 46.1875 37.015625 41.984375 42.703125 
Q 37.796875 48.390625 30.609375 48.390625 
z
M 30.609375 56 
Q 42.328125 56 49.015625 48.375 
Q 55.71875 40.765625 55.71875 27.296875 
Q 55.71875 13.875 49.015625 6.21875 
Q 42.328125 -1.421875 30.609375 -1.421875 
Q 18.84375 -1.421875 12.171875 6.21875 
Q 5.515625 13.875 5.515625 27.296875 
Q 5.515625 40.765625 12.171875 48.375 
Q 18.84375 56 30.609375 56 
z
" id="DejaVuSans-111"/>
       <path id="DejaVuSans-32"/>
      </defs>
      <use transform="translate(0 0.234375)" xlink:href="#DejaVuSans-78"/>
      <use transform="translate(74.804688 0.234375)" xlink:href="#DejaVuSans-111"/>
      <use transform="translate(135.986328 0.234375)" xlink:href="#DejaVuSans-32"/>
      <use transform="translate(167.773438 0.234375)" xlink:href="#DejaVuSans-Oblique-952"/>
     </g>
    </g>
   </g>
  </g>
  <g id="axes_2">
   <g id="patch_7">
    <path d="M 18 128.16 
L 129.6 128.16 
L 129.6 77.76 
L 18 77.76 
z
" style="fill:none;"/>
   </g>
   <g id="PolyCollection_3">
    <path clip-path="url(#p111ba2abde)" d="M 18 119.870344 
L 18 119.785761 
L 20.277551 119.915453 
L 22.555102 119.886568 
L 24.832653 119.702055 
L 27.110204 119.401781 
L 29.387755 119.054475 
L 31.665306 118.705173 
L 33.942857 118.224805 
L 36.220408 117.466422 
L 38.497959 116.317159 
L 40.77551 114.69971 
L 43.053061 112.574989 
L 45.330612 109.943478 
L 47.608163 106.844276 
L 49.885714 103.350886 
L 52.163265 99.56721 
L 54.440816 95.623425 
L 56.718367 91.671436 
L 58.995918 87.880138 
L 61.273469 84.430021 
L 63.55102 81.507661 
L 65.828571 79.300588 
L 68.106122 77.992611 
L 70.383673 77.76 
L 72.661224 78.768652 
L 74.938776 81.162958 
L 77.216327 85.014217 
L 79.493878 89.938104 
L 81.771429 95.506998 
L 84.04898 101.319985 
L 86.326531 107.026281 
L 88.604082 112.334806 
L 90.881633 117.019383 
L 93.159184 120.92061 
L 95.436735 123.945606 
L 97.714286 126.065984 
L 99.991837 127.312249 
L 102.269388 127.762197 
L 104.546939 127.528696 
L 106.82449 126.749087 
L 109.102041 125.576114 
L 111.379592 124.169829 
L 113.657143 122.690336 
L 115.934694 121.292597 
L 118.212245 120.124605 
L 120.489796 119.329825 
L 122.767347 118.999693 
L 125.044898 119.023425 
L 127.322449 119.247655 
L 129.6 119.537688 
L 129.6 119.646186 
L 129.6 119.646186 
L 127.322449 119.380794 
L 125.044898 119.176063 
L 122.767347 119.163971 
L 120.489796 119.499185 
L 118.212245 120.300817 
L 115.934694 121.490349 
L 113.657143 122.925808 
L 111.379592 124.451035 
L 109.102041 125.901543 
L 106.82449 127.110256 
L 104.546939 127.913781 
L 102.269388 128.16 
L 99.991837 127.717352 
L 97.714286 126.484628 
L 95.436735 124.399378 
L 93.159184 121.443564 
L 90.881633 117.647751 
L 88.604082 113.098501 
L 86.326531 107.945314 
L 84.04898 102.404028 
L 81.771429 96.755791 
L 79.493878 91.341736 
L 77.216327 86.553559 
L 74.938776 82.810253 
L 72.661224 80.48874 
L 70.383673 79.514467 
L 68.106122 79.742048 
L 65.828571 81.006469 
L 63.55102 83.134106 
L 61.273469 85.945432 
L 58.995918 89.258693 
L 56.718367 92.894283 
L 54.440816 96.679705 
L 52.163265 100.454579 
L 49.885714 104.075455 
L 47.608163 107.42038 
L 45.330612 110.392678 
L 43.053061 112.924397 
L 40.77551 114.978884 
L 38.497959 116.551789 
L 36.220408 117.673622 
L 33.942857 118.412453 
L 31.665306 118.875343 
L 29.387755 119.20553 
L 27.110204 119.528686 
L 24.832653 119.802658 
L 22.555102 119.965145 
L 20.277551 119.986965 
L 18 119.870344 
z
" style="fill:#66c2a5;fill-opacity:0.2;"/>
   </g>
   <g id="matplotlib.axis_3">
    <g id="xtick_6">
     <g id="line2d_12">
      <g>
       <use style="fill:#a9a9a9;stroke:#a9a9a9;stroke-width:2;" x="29.387755" xlink:href="#mcea29ec9bb" y="122.265138"/>
      </g>
     </g>
    </g>
    <g id="xtick_7">
     <g id="line2d_13">
      <g>
       <use style="fill:#a9a9a9;stroke:#a9a9a9;stroke-width:2;" x="52.163265" xlink:href="#mcea29ec9bb" y="122.265138"/>
      </g>
     </g>
    </g>
    <g id="xtick_8">
     <g id="line2d_14">
      <g>
       <use style="fill:#a9a9a9;stroke:#a9a9a9;stroke-width:2;" x="74.938776" xlink:href="#mcea29ec9bb" y="122.265138"/>
      </g>
     </g>
    </g>
    <g id="xtick_9">
     <g id="line2d_15">
      <g>
       <use style="fill:#a9a9a9;stroke:#a9a9a9;stroke-width:2;" x="97.714286" xlink:href="#mcea29ec9bb" y="122.265138"/>
      </g>
     </g>
    </g>
    <g id="xtick_10">
     <g id="line2d_16">
      <g>
       <use style="fill:#a9a9a9;stroke:#a9a9a9;stroke-width:2;" x="120.489796" xlink:href="#mcea29ec9bb" y="122.265138"/>
      </g>
     </g>
    </g>
   </g>
   <g id="matplotlib.axis_4"/>
   <g id="line2d_17">
    <path clip-path="url(#p111ba2abde)" d="M 18 119.828053 
L 20.277551 119.951209 
L 22.555102 119.925857 
L 24.832653 119.752356 
L 27.110204 119.465233 
L 29.387755 119.130003 
L 31.665306 118.790258 
L 33.942857 118.318629 
L 36.220408 117.570022 
L 38.497959 116.434474 
L 40.77551 114.839297 
L 43.053061 112.749693 
L 45.330612 110.168078 
L 47.608163 107.132328 
L 49.885714 103.713171 
L 52.163265 100.010895 
L 54.440816 96.151565 
L 56.718367 92.28286 
L 58.995918 88.569416 
L 61.273469 85.187726 
L 63.55102 82.320883 
L 65.828571 80.153529 
L 68.106122 78.867329 
L 70.383673 78.637234 
L 72.661224 79.628696 
L 74.938776 81.986606 
L 77.216327 85.783888 
L 79.493878 90.63992 
L 81.771429 96.131395 
L 84.04898 101.862006 
L 86.326531 107.485797 
L 88.604082 112.716653 
L 90.881633 117.333567 
L 93.159184 121.182087 
L 95.436735 124.172492 
L 97.714286 126.275306 
L 99.991837 127.514801 
L 102.269388 127.961098 
L 104.546939 127.721239 
L 106.82449 126.929671 
L 109.102041 125.738828 
L 111.379592 124.310432 
L 113.657143 122.808072 
L 115.934694 121.391473 
L 118.212245 120.212711 
L 120.489796 119.414505 
L 122.767347 119.081832 
L 125.044898 119.099744 
L 127.322449 119.314225 
L 129.6 119.591937 
" style="fill:none;stroke:#66c2a5;stroke-linecap:square;stroke-width:2;"/>
   </g>
   <g id="patch_8">
    <path d="M 74.938776 128.16 
L 74.938776 77.76 
" style="fill:none;stroke:#a9a9a9;stroke-linecap:square;stroke-linejoin:miter;stroke-width:2;"/>
   </g>
   <g id="patch_9">
    <path d="M 129.6 128.16 
L 129.6 77.76 
" style="fill:none;"/>
   </g>
   <g id="patch_10">
    <path d="M 18 122.265138 
L 129.6 122.265138 
" style="fill:none;stroke:#a9a9a9;stroke-linecap:square;stroke-linejoin:miter;stroke-width:2;"/>
   </g>
   <g id="patch_11">
    <path d="M 18 77.76 
L 129.6 77.76 
" style="fill:none;"/>
   </g>
  </g>
 </g>
 <defs>
  <clipPath id="p3e280ec501">
   <rect height="50.4" width="111.6" x="18" y="17.28"/>
  </clipPath>
  <clipPath id="p111ba2abde">
   <rect height="50.4" width="111.6" x="18" y="77.76"/>
  </clipPath>
 </defs>
</svg>
