<?xml version="1.0" encoding="utf-8" standalone="no"?>
<!DOCTYPE svg PUBLIC "-//W3C//DTD SVG 1.1//EN"
  "http://www.w3.org/Graphics/SVG/1.1/DTD/svg11.dtd">
<!-- Created with matplotlib (https://matplotlib.org/) -->
<svg height="144pt" version="1.1" viewBox="0 0 72 144" width="72pt" xmlns="http://www.w3.org/2000/svg" xmlns:xlink="http://www.w3.org/1999/xlink">
 <metadata>
  <rdf:RDF xmlns:cc="http://creativecommons.org/ns#" xmlns:dc="http://purl.org/dc/elements/1.1/" xmlns:rdf="http://www.w3.org/1999/02/22-rdf-syntax-ns#">
   <cc:Work>
    <dc:type rdf:resource="http://purl.org/dc/dcmitype/StillImage"/>
    <dc:date>2021-10-11T20:10:55.509730</dc:date>
    <dc:format>image/svg+xml</dc:format>
    <dc:creator>
     <cc:Agent>
      <dc:title>Matplotlib v3.3.2, https://matplotlib.org/</dc:title>
     </cc:Agent>
    </dc:creator>
   </cc:Work>
  </rdf:RDF>
 </metadata>
 <defs>
  <style type="text/css">*{stroke-linecap:butt;stroke-linejoin:round;}</style>
 </defs>
 <g id="figure_1">
  <g id="patch_1">
   <path d="M 0 144 
L 72 144 
L 72 0 
L 0 0 
z
" style="fill:none;"/>
  </g>
  <g id="axes_1">
   <g id="patch_2">
    <path d="M 9 67.68 
L 64.8 67.68 
L 64.8 17.28 
L 9 17.28 
z
" style="fill:none;"/>
   </g>
   <g id="matplotlib.axis_1">
    <g id="xtick_1">
     <g id="line2d_1">
      <defs>
       <path d="M 0 0 
L 0 3.5 
" id="m1f84fcf60b" style="stroke:#a9a9a9;stroke-width:2;"/>
      </defs>
      <g>
       <use style="fill:#a9a9a9;stroke:#a9a9a9;stroke-width:2;" x="9" xlink:href="#m1f84fcf60b" y="67.68"/>
      </g>
     </g>
    </g>
    <g id="xtick_2">
     <g id="line2d_2">
      <g>
       <use style="fill:#a9a9a9;stroke:#a9a9a9;stroke-width:2;" x="36.9" xlink:href="#m1f84fcf60b" y="67.68"/>
      </g>
     </g>
    </g>
    <g id="xtick_3">
     <g id="line2d_3">
      <g>
       <use style="fill:#a9a9a9;stroke:#a9a9a9;stroke-width:2;" x="64.8" xlink:href="#m1f84fcf60b" y="67.68"/>
      </g>
     </g>
    </g>
   </g>
   <g id="matplotlib.axis_2">
    <g id="ytick_1">
     <g id="line2d_4">
      <defs>
       <path d="M 0 0 
L -3.5 0 
" id="m8dc7abcdfc" style="stroke:#a9a9a9;stroke-width:2;"/>
      </defs>
      <g>
       <use style="fill:#a9a9a9;stroke:#a9a9a9;stroke-width:2;" x="9" xlink:href="#m8dc7abcdfc" y="67.68"/>
      </g>
     </g>
    </g>
    <g id="ytick_2">
     <g id="line2d_5">
      <g>
       <use style="fill:#a9a9a9;stroke:#a9a9a9;stroke-width:2;" x="9" xlink:href="#m8dc7abcdfc" y="55.349227"/>
      </g>
     </g>
    </g>
    <g id="ytick_3">
     <g id="line2d_6">
      <g>
       <use style="fill:#a9a9a9;stroke:#a9a9a9;stroke-width:2;" x="9" xlink:href="#m8dc7abcdfc" y="43.018454"/>
      </g>
     </g>
    </g>
   </g>
   <g id="line2d_7">
    <path clip-path="url(#p252fe65aa5)" d="M 10.86031 56.033311 
L 11.79031 53.573764 
L 12.72031 53.73106 
L 13.65031 51.932069 
L 14.58031 50.26031 
L 15.51031 49.918963 
L 16.44031 49.108922 
L 17.37031 48.125178 
L 18.30031 46.757493 
L 19.23031 46.084742 
L 20.16031 45.277106 
L 21.09031 44.508962 
L 22.02031 44.735091 
L 22.95031 44.060212 
L 23.88031 43.602257 
L 24.81031 42.726595 
L 25.74031 41.908564 
L 26.67031 40.449814 
L 27.60031 40.083022 
L 28.53031 39.526506 
L 29.46031 38.643566 
L 30.39031 38.586251 
L 31.32031 37.976634 
L 32.25031 37.480007 
L 33.18031 36.812776 
L 34.11031 35.759918 
L 35.04031 35.340669 
L 35.97031 34.768785 
L 36.90031 34.266735 
L 37.83031 33.856765 
L 38.76031 32.739872 
L 39.69031 31.435678 
L 40.62031 30.595802 
L 41.55031 30.394955 
L 42.48031 29.49194 
L 43.41031 29.472283 
L 44.34031 29.102563 
L 45.27031 28.296704 
L 46.20031 27.964036 
L 47.13031 27.550509 
L 48.06031 26.882722 
L 48.99031 26.801161 
L 49.92031 26.537328 
L 50.85031 25.833618 
L 51.78031 25.436503 
L 52.71031 24.416877 
L 53.64031 23.972467 
L 54.57031 23.482689 
L 55.50031 22.433376 
L 56.43031 21.761529 
L 57.36031 21.546203 
L 58.29031 21.177302 
L 59.22031 20.825267 
L 60.15031 20.448913 
L 61.08031 19.397657 
L 62.01031 18.717182 
L 62.94031 18.638387 
L 63.87031 17.896539 
" style="fill:none;stroke:#fc8d62;stroke-linecap:square;stroke-width:2;"/>
   </g>
   <g id="line2d_8">
    <path clip-path="url(#p252fe65aa5)" d="M 10.86031 62.562455 
L 11.79031 61.56773 
L 12.72031 61.22396 
L 13.65031 60.334808 
L 14.58031 59.384521 
L 15.51031 58.588252 
L 16.44031 57.915229 
L 17.37031 57.045076 
L 18.30031 56.439562 
L 19.23031 55.977745 
L 20.16031 55.421316 
L 21.09031 55.129907 
L 22.02031 54.362873 
L 22.95031 53.578687 
L 23.88031 53.053781 
L 24.81031 52.945762 
L 25.74031 52.494946 
L 26.67031 52.24347 
L 27.60031 52.115963 
L 28.53031 52.05454 
L 29.46031 51.799328 
L 30.39031 51.724848 
L 31.32031 51.644175 
L 32.25031 51.62429 
L 33.18031 51.314698 
L 34.11031 50.996896 
L 35.04031 50.383505 
L 35.97031 50.040759 
L 36.90031 49.81691 
L 37.83031 49.624093 
L 38.76031 49.355714 
L 39.69031 48.879272 
L 40.62031 48.830391 
L 41.55031 48.760137 
L 42.48031 48.474045 
L 43.41031 48.387115 
L 44.34031 48.324047 
L 45.27031 47.838902 
L 46.20031 47.78591 
L 47.13031 47.19426 
L 48.06031 47.162486 
L 48.99031 46.945449 
L 49.92031 46.176918 
L 50.85031 46.287887 
L 51.78031 45.899066 
L 52.71031 45.561185 
L 53.64031 45.017933 
L 54.57031 45.088728 
L 55.50031 44.815851 
L 56.43031 44.455474 
L 57.36031 44.153964 
L 58.29031 43.774593 
L 59.22031 43.803826 
L 60.15031 43.482732 
L 61.08031 43.335399 
L 62.01031 42.509389 
L 62.94031 42.323832 
L 63.87031 42.298784 
" style="fill:none;stroke:#fc8d62;stroke-dasharray:1.5,1.5;stroke-dashoffset:0;stroke-opacity:0.7;stroke-width:1.5;"/>
   </g>
   <g id="patch_3">
    <path d="M 9 67.68 
L 9 17.28 
" style="fill:none;stroke:#a9a9a9;stroke-linecap:square;stroke-linejoin:miter;stroke-width:2;"/>
   </g>
   <g id="patch_4">
    <path d="M 64.8 67.68 
L 64.8 17.28 
" style="fill:none;"/>
   </g>
   <g id="patch_5">
    <path d="M 9 67.68 
L 64.8 67.68 
" style="fill:none;stroke:#a9a9a9;stroke-linecap:square;stroke-linejoin:miter;stroke-width:2;"/>
   </g>
   <g id="patch_6">
    <path d="M 9 17.28 
L 64.8 17.28 
" style="fill:none;"/>
   </g>
  </g>
  <g id="axes_2">
   <g id="patch_7">
    <path d="M 9 128.16 
L 64.8 128.16 
L 64.8 77.76 
L 9 77.76 
z
" style="fill:none;"/>
   </g>
   <g id="matplotlib.axis_3">
    <g id="xtick_4">
     <g id="line2d_9">
      <g>
       <use style="fill:#a9a9a9;stroke:#a9a9a9;stroke-width:2;" x="9" xlink:href="#m1f84fcf60b" y="128.16"/>
      </g>
     </g>
    </g>
    <g id="xtick_5">
     <g id="line2d_10">
      <g>
       <use style="fill:#a9a9a9;stroke:#a9a9a9;stroke-width:2;" x="36.9" xlink:href="#m1f84fcf60b" y="128.16"/>
      </g>
     </g>
    </g>
    <g id="xtick_6">
     <g id="line2d_11">
      <g>
       <use style="fill:#a9a9a9;stroke:#a9a9a9;stroke-width:2;" x="64.8" xlink:href="#m1f84fcf60b" y="128.16"/>
      </g>
     </g>
    </g>
   </g>
   <g id="matplotlib.axis_4">
    <g id="ytick_4">
     <g id="line2d_12">
      <g>
       <use style="fill:#a9a9a9;stroke:#a9a9a9;stroke-width:2;" x="9" xlink:href="#m8dc7abcdfc" y="128.16"/>
      </g>
     </g>
    </g>
    <g id="ytick_5">
     <g id="line2d_13">
      <g>
       <use style="fill:#a9a9a9;stroke:#a9a9a9;stroke-width:2;" x="9" xlink:href="#m8dc7abcdfc" y="102.96"/>
      </g>
     </g>
    </g>
    <g id="ytick_6">
     <g id="line2d_14">
      <g>
       <use style="fill:#a9a9a9;stroke:#a9a9a9;stroke-width:2;" x="9" xlink:href="#m8dc7abcdfc" y="77.76"/>
      </g>
     </g>
    </g>
   </g>
   <g id="line2d_15">
    <path clip-path="url(#p61619654f2)" d="M 10.86031 102.925023 
L 11.79031 99.801273 
L 12.72031 98.648097 
L 13.65031 96.795554 
L 14.58031 95.56525 
L 15.51031 94.70884 
L 16.44031 94.002982 
L 17.37031 93.214106 
L 18.30031 92.307203 
L 19.23031 91.88341 
L 20.16031 91.487373 
L 21.09031 91.318308 
L 22.02031 91.120111 
L 22.95031 90.882661 
L 23.88031 90.613458 
L 24.81031 90.328999 
L 25.74031 90.054136 
L 26.67031 89.953146 
L 27.60031 89.751796 
L 28.53031 89.594042 
L 29.46031 89.445109 
L 30.39031 89.349714 
L 31.32031 89.155893 
L 32.25031 89.036175 
L 33.18031 88.883411 
L 34.11031 88.648749 
L 35.04031 88.560596 
L 35.97031 88.373313 
L 36.90031 88.289855 
L 37.83031 88.212955 
L 38.76031 88.099169 
L 39.69031 88.009059 
L 40.62031 87.94378 
L 41.55031 87.941707 
L 42.48031 87.84734 
L 43.41031 87.819344 
L 44.34031 87.705083 
L 45.27031 87.627613 
L 46.20031 87.579394 
L 47.13031 87.545163 
L 48.06031 87.524575 
L 48.99031 87.481231 
L 49.92031 87.477302 
L 50.85031 87.412308 
L 51.78031 87.341802 
L 52.71031 87.205514 
L 53.64031 87.155908 
L 54.57031 87.120882 
L 55.50031 87.086059 
L 56.43031 87.090447 
L 57.36031 87.137854 
L 58.29031 87.079957 
L 59.22031 87.046999 
L 60.15031 87.038006 
L 61.08031 86.985588 
L 62.01031 86.929742 
L 62.94031 86.937853 
L 63.87031 86.913667 
" style="fill:none;stroke:#fc8d62;stroke-linecap:square;stroke-width:2;"/>
   </g>
   <g id="line2d_16">
    <path clip-path="url(#p61619654f2)" d="M 10.86031 119.209126 
L 11.79031 115.837964 
L 12.72031 112.578167 
L 13.65031 110.294849 
L 14.58031 108.712725 
L 15.51031 107.102719 
L 16.44031 105.556026 
L 17.37031 104.436228 
L 18.30031 103.451077 
L 19.23031 102.721965 
L 20.16031 101.997503 
L 21.09031 101.632669 
L 22.02031 100.888145 
L 22.95031 100.722574 
L 23.88031 100.243207 
L 24.81031 99.929031 
L 25.74031 99.544697 
L 26.67031 99.304362 
L 27.60031 99.063601 
L 28.53031 99.007274 
L 29.46031 98.713187 
L 30.39031 98.351937 
L 31.32031 98.120432 
L 32.25031 98.09019 
L 33.18031 97.950313 
L 34.11031 97.5446 
L 35.04031 97.178387 
L 35.97031 97.068255 
L 36.90031 96.875921 
L 37.83031 96.784122 
L 38.76031 96.595437 
L 39.69031 96.331772 
L 40.62031 96.444116 
L 41.55031 96.298519 
L 42.48031 96.227229 
L 43.41031 96.127982 
L 44.34031 96.036677 
L 45.27031 95.876506 
L 46.20031 95.810148 
L 47.13031 95.611203 
L 48.06031 95.54527 
L 48.99031 95.584487 
L 49.92031 95.313825 
L 50.85031 95.273055 
L 51.78031 95.240555 
L 52.71031 95.067041 
L 53.64031 95.016704 
L 54.57031 94.997748 
L 55.50031 94.86871 
L 56.43031 94.82814 
L 57.36031 94.806255 
L 58.29031 94.710734 
L 59.22031 94.695013 
L 60.15031 94.646743 
L 61.08031 94.668254 
L 62.01031 94.462516 
L 62.94031 94.4864 
L 63.87031 94.333415 
" style="fill:none;stroke:#fc8d62;stroke-dasharray:1.5,1.5;stroke-dashoffset:0;stroke-opacity:0.7;stroke-width:1.5;"/>
   </g>
   <g id="patch_8">
    <path d="M 9 128.16 
L 9 77.76 
" style="fill:none;stroke:#a9a9a9;stroke-linecap:square;stroke-linejoin:miter;stroke-width:2;"/>
   </g>
   <g id="patch_9">
    <path d="M 64.8 128.16 
L 64.8 77.76 
" style="fill:none;"/>
   </g>
   <g id="patch_10">
    <path d="M 9 128.16 
L 64.8 128.16 
" style="fill:none;stroke:#a9a9a9;stroke-linecap:square;stroke-linejoin:miter;stroke-width:2;"/>
   </g>
   <g id="patch_11">
    <path d="M 9 77.76 
L 64.8 77.76 
" style="fill:none;"/>
   </g>
  </g>
 </g>
 <defs>
  <clipPath id="p252fe65aa5">
   <rect height="50.4" width="55.8" x="9" y="17.28"/>
  </clipPath>
  <clipPath id="p61619654f2">
   <rect height="50.4" width="55.8" x="9" y="77.76"/>
  </clipPath>
 </defs>
</svg>
