<?xml version="1.0" encoding="utf-8" standalone="no"?>
<!DOCTYPE svg PUBLIC "-//W3C//DTD SVG 1.1//EN"
  "http://www.w3.org/Graphics/SVG/1.1/DTD/svg11.dtd">
<!-- Created with matplotlib (https://matplotlib.org/) -->
<svg height="144pt" version="1.1" viewBox="0 0 72 144" width="72pt" xmlns="http://www.w3.org/2000/svg" xmlns:xlink="http://www.w3.org/1999/xlink">
 <metadata>
  <rdf:RDF xmlns:cc="http://creativecommons.org/ns#" xmlns:dc="http://purl.org/dc/elements/1.1/" xmlns:rdf="http://www.w3.org/1999/02/22-rdf-syntax-ns#">
   <cc:Work>
    <dc:type rdf:resource="http://purl.org/dc/dcmitype/StillImage"/>
    <dc:date>2021-10-11T18:49:17.473923</dc:date>
    <dc:format>image/svg+xml</dc:format>
    <dc:creator>
     <cc:Agent>
      <dc:title>Matplotlib v3.3.2, https://matplotlib.org/</dc:title>
     </cc:Agent>
    </dc:creator>
   </cc:Work>
  </rdf:RDF>
 </metadata>
 <defs>
  <style type="text/css">*{stroke-linecap:butt;stroke-linejoin:round;}</style>
 </defs>
 <g id="figure_1">
  <g id="patch_1">
   <path d="M 0 144 
L 72 144 
L 72 0 
L 0 0 
z
" style="fill:none;"/>
  </g>
  <g id="axes_1">
   <g id="patch_2">
    <path d="M 9 67.68 
L 64.8 67.68 
L 64.8 17.28 
L 9 17.28 
z
" style="fill:none;"/>
   </g>
   <g id="matplotlib.axis_1">
    <g id="xtick_1">
     <g id="line2d_1">
      <defs>
       <path d="M 0 0 
L 0 3.5 
" id="m0616638274" style="stroke:#a9a9a9;stroke-width:2;"/>
      </defs>
      <g>
       <use style="fill:#a9a9a9;stroke:#a9a9a9;stroke-width:2;" x="9" xlink:href="#m0616638274" y="67.68"/>
      </g>
     </g>
    </g>
    <g id="xtick_2">
     <g id="line2d_2">
      <g>
       <use style="fill:#a9a9a9;stroke:#a9a9a9;stroke-width:2;" x="36.9" xlink:href="#m0616638274" y="67.68"/>
      </g>
     </g>
    </g>
    <g id="xtick_3">
     <g id="line2d_3">
      <g>
       <use style="fill:#a9a9a9;stroke:#a9a9a9;stroke-width:2;" x="64.8" xlink:href="#m0616638274" y="67.68"/>
      </g>
     </g>
    </g>
   </g>
   <g id="matplotlib.axis_2">
    <g id="ytick_1">
     <g id="line2d_4">
      <defs>
       <path d="M 0 0 
L -3.5 0 
" id="m1bc37fdae1" style="stroke:#a9a9a9;stroke-width:2;"/>
      </defs>
      <g>
       <use style="fill:#a9a9a9;stroke:#a9a9a9;stroke-width:2;" x="9" xlink:href="#m1bc37fdae1" y="67.68"/>
      </g>
     </g>
    </g>
    <g id="ytick_2">
     <g id="line2d_5">
      <g>
       <use style="fill:#a9a9a9;stroke:#a9a9a9;stroke-width:2;" x="9" xlink:href="#m1bc37fdae1" y="52.681934"/>
      </g>
     </g>
    </g>
    <g id="ytick_3">
     <g id="line2d_6">
      <g>
       <use style="fill:#a9a9a9;stroke:#a9a9a9;stroke-width:2;" x="9" xlink:href="#m1bc37fdae1" y="37.683869"/>
      </g>
     </g>
    </g>
   </g>
   <g id="line2d_7">
    <path clip-path="url(#pbc27af69c5)" d="M 10.86031 57.994257 
L 11.79031 55.755397 
L 12.72031 54.47984 
L 13.65031 53.035894 
L 14.58031 51.988322 
L 15.51031 50.741146 
L 16.44031 49.354263 
L 17.37031 47.673812 
L 18.30031 46.539378 
L 19.23031 45.528125 
L 20.16031 45.090249 
L 21.09031 44.423036 
L 22.02031 43.214361 
L 22.95031 42.41069 
L 23.88031 41.866138 
L 24.81031 41.54178 
L 25.74031 40.449765 
L 26.67031 39.467184 
L 27.60031 39.290197 
L 28.53031 38.327001 
L 29.46031 37.861262 
L 30.39031 37.917804 
L 31.32031 37.024965 
L 32.25031 36.016037 
L 33.18031 35.293216 
L 34.11031 34.543224 
L 35.04031 33.733644 
L 35.97031 33.236711 
L 36.90031 33.047976 
L 37.83031 32.369456 
L 38.76031 31.792038 
L 39.69031 30.815124 
L 40.62031 30.314687 
L 41.55031 29.791253 
L 42.48031 28.992007 
L 43.41031 28.676766 
L 44.34031 27.704516 
L 45.27031 26.986763 
L 46.20031 26.330288 
L 47.13031 25.657601 
L 48.06031 25.579232 
L 48.99031 25.631824 
L 49.92031 25.104761 
L 50.85031 25.192412 
L 51.78031 24.417626 
L 52.71031 23.062561 
L 53.64031 22.047227 
L 54.57031 21.524287 
L 55.50031 21.51729 
L 56.43031 20.853047 
L 57.36031 20.398227 
L 58.29031 20.060861 
L 59.22031 19.997653 
L 60.15031 19.52513 
L 61.08031 18.984978 
L 62.01031 18.763282 
L 62.94031 18.658543 
L 63.87031 18.029903 
" style="fill:none;stroke:#fc8d62;stroke-linecap:square;stroke-width:2;"/>
   </g>
   <g id="line2d_8">
    <path clip-path="url(#pbc27af69c5)" d="M 10.86031 59.944715 
L 11.79031 58.482907 
L 12.72031 56.684843 
L 13.65031 55.239256 
L 14.58031 54.175884 
L 15.51031 53.05228 
L 16.44031 51.759151 
L 17.37031 50.960928 
L 18.30031 50.549621 
L 19.23031 49.067451 
L 20.16031 47.921926 
L 21.09031 47.339386 
L 22.02031 46.070089 
L 22.95031 45.761968 
L 23.88031 45.471083 
L 24.81031 44.718957 
L 25.74031 44.031453 
L 26.67031 43.517467 
L 27.60031 43.525407 
L 28.53031 42.762214 
L 29.46031 42.532096 
L 30.39031 42.392994 
L 31.32031 42.132861 
L 32.25031 41.721689 
L 33.18031 41.052835 
L 34.11031 40.573921 
L 35.04031 40.155607 
L 35.97031 40.287741 
L 36.90031 39.744206 
L 37.83031 39.409948 
L 38.76031 38.631556 
L 39.69031 38.130233 
L 40.62031 37.482103 
L 41.55031 37.126478 
L 42.48031 36.440285 
L 43.41031 36.286002 
L 44.34031 36.270467 
L 45.27031 36.059301 
L 46.20031 35.65767 
L 47.13031 35.670809 
L 48.06031 34.747975 
L 48.99031 33.92984 
L 49.92031 33.439344 
L 50.85031 33.533805 
L 51.78031 33.511492 
L 52.71031 32.972435 
L 53.64031 32.946621 
L 54.57031 32.470277 
L 55.50031 31.457268 
L 56.43031 31.186618 
L 57.36031 31.253644 
L 58.29031 31.155572 
L 59.22031 30.867088 
L 60.15031 30.914639 
L 61.08031 30.787108 
L 62.01031 30.140087 
L 62.94031 29.862811 
L 63.87031 29.581043 
" style="fill:none;stroke:#fc8d62;stroke-dasharray:1.5,1.5;stroke-dashoffset:0;stroke-opacity:0.7;stroke-width:1.5;"/>
   </g>
   <g id="patch_3">
    <path d="M 9 67.68 
L 9 17.28 
" style="fill:none;stroke:#a9a9a9;stroke-linecap:square;stroke-linejoin:miter;stroke-width:2;"/>
   </g>
   <g id="patch_4">
    <path d="M 64.8 67.68 
L 64.8 17.28 
" style="fill:none;"/>
   </g>
   <g id="patch_5">
    <path d="M 9 67.68 
L 64.8 67.68 
" style="fill:none;stroke:#a9a9a9;stroke-linecap:square;stroke-linejoin:miter;stroke-width:2;"/>
   </g>
   <g id="patch_6">
    <path d="M 9 17.28 
L 64.8 17.28 
" style="fill:none;"/>
   </g>
  </g>
  <g id="axes_2">
   <g id="patch_7">
    <path d="M 9 128.16 
L 64.8 128.16 
L 64.8 77.76 
L 9 77.76 
z
" style="fill:none;"/>
   </g>
   <g id="matplotlib.axis_3">
    <g id="xtick_4">
     <g id="line2d_9">
      <g>
       <use style="fill:#a9a9a9;stroke:#a9a9a9;stroke-width:2;" x="9" xlink:href="#m0616638274" y="128.16"/>
      </g>
     </g>
    </g>
    <g id="xtick_5">
     <g id="line2d_10">
      <g>
       <use style="fill:#a9a9a9;stroke:#a9a9a9;stroke-width:2;" x="36.9" xlink:href="#m0616638274" y="128.16"/>
      </g>
     </g>
    </g>
    <g id="xtick_6">
     <g id="line2d_11">
      <g>
       <use style="fill:#a9a9a9;stroke:#a9a9a9;stroke-width:2;" x="64.8" xlink:href="#m0616638274" y="128.16"/>
      </g>
     </g>
    </g>
   </g>
   <g id="matplotlib.axis_4">
    <g id="ytick_4">
     <g id="line2d_12">
      <g>
       <use style="fill:#a9a9a9;stroke:#a9a9a9;stroke-width:2;" x="9" xlink:href="#m1bc37fdae1" y="128.16"/>
      </g>
     </g>
    </g>
    <g id="ytick_5">
     <g id="line2d_13">
      <g>
       <use style="fill:#a9a9a9;stroke:#a9a9a9;stroke-width:2;" x="9" xlink:href="#m1bc37fdae1" y="102.96"/>
      </g>
     </g>
    </g>
    <g id="ytick_6">
     <g id="line2d_14">
      <g>
       <use style="fill:#a9a9a9;stroke:#a9a9a9;stroke-width:2;" x="9" xlink:href="#m1bc37fdae1" y="77.76"/>
      </g>
     </g>
    </g>
   </g>
   <g id="line2d_15">
    <path clip-path="url(#pc7c1025287)" d="M 10.86031 105.563824 
L 11.79031 100.482109 
L 12.72031 97.224908 
L 13.65031 95.363627 
L 14.58031 93.717723 
L 15.51031 92.148713 
L 16.44031 90.7612 
L 17.37031 89.554894 
L 18.30031 88.787854 
L 19.23031 88.345234 
L 20.16031 87.948021 
L 21.09031 87.365267 
L 22.02031 86.992497 
L 22.95031 86.612167 
L 23.88031 86.373986 
L 24.81031 86.2922 
L 25.74031 86.040601 
L 26.67031 85.874677 
L 27.60031 85.768484 
L 28.53031 85.589851 
L 29.46031 85.476033 
L 30.39031 85.332137 
L 31.32031 85.17089 
L 32.25031 84.887586 
L 33.18031 84.825113 
L 34.11031 84.655111 
L 35.04031 84.503523 
L 35.97031 84.392496 
L 36.90031 84.349956 
L 37.83031 84.255428 
L 38.76031 84.176315 
L 39.69031 84.09969 
L 40.62031 83.977605 
L 41.55031 83.888314 
L 42.48031 83.816959 
L 43.41031 83.774406 
L 44.34031 83.6821 
L 45.27031 83.567937 
L 46.20031 83.522535 
L 47.13031 83.486446 
L 48.06031 83.445618 
L 48.99031 83.39908 
L 49.92031 83.333353 
L 50.85031 83.337147 
L 51.78031 83.294468 
L 52.71031 83.192759 
L 53.64031 83.125785 
L 54.57031 83.120335 
L 55.50031 83.122204 
L 56.43031 83.087394 
L 57.36031 83.05123 
L 58.29031 83.034449 
L 59.22031 83.035489 
L 60.15031 83.013996 
L 61.08031 82.992348 
L 62.01031 82.97352 
L 62.94031 82.95285 
L 63.87031 82.924858 
" style="fill:none;stroke:#fc8d62;stroke-linecap:square;stroke-width:2;"/>
   </g>
   <g id="line2d_16">
    <path clip-path="url(#pc7c1025287)" d="M 10.86031 114.233086 
L 11.79031 111.125814 
L 12.72031 108.533249 
L 13.65031 105.739741 
L 14.58031 104.174221 
L 15.51031 102.461474 
L 16.44031 100.872913 
L 17.37031 99.937795 
L 18.30031 99.493488 
L 19.23031 99.023445 
L 20.16031 98.281793 
L 21.09031 97.699551 
L 22.02031 97.378554 
L 22.95031 97.212378 
L 23.88031 97.132607 
L 24.81031 96.934894 
L 25.74031 96.586015 
L 26.67031 96.532234 
L 27.60031 96.363145 
L 28.53031 96.276167 
L 29.46031 96.28526 
L 30.39031 95.910344 
L 31.32031 95.829512 
L 32.25031 95.478504 
L 33.18031 95.136568 
L 34.11031 94.991199 
L 35.04031 94.94416 
L 35.97031 94.962763 
L 36.90031 94.859309 
L 37.83031 94.587824 
L 38.76031 94.441283 
L 39.69031 94.216425 
L 40.62031 94.081686 
L 41.55031 94.026059 
L 42.48031 93.912167 
L 43.41031 93.822186 
L 44.34031 93.82685 
L 45.27031 93.871695 
L 46.20031 93.803046 
L 47.13031 93.677676 
L 48.06031 93.629818 
L 48.99031 93.496503 
L 49.92031 93.411641 
L 50.85031 93.377915 
L 51.78031 93.372686 
L 52.71031 93.305588 
L 53.64031 93.353818 
L 54.57031 93.289629 
L 55.50031 93.170669 
L 56.43031 93.141258 
L 57.36031 93.151657 
L 58.29031 93.129702 
L 59.22031 93.094689 
L 60.15031 93.128025 
L 61.08031 93.131724 
L 62.01031 93.097543 
L 62.94031 93.076498 
L 63.87031 93.047584 
" style="fill:none;stroke:#fc8d62;stroke-dasharray:1.5,1.5;stroke-dashoffset:0;stroke-opacity:0.7;stroke-width:1.5;"/>
   </g>
   <g id="patch_8">
    <path d="M 9 128.16 
L 9 77.76 
" style="fill:none;stroke:#a9a9a9;stroke-linecap:square;stroke-linejoin:miter;stroke-width:2;"/>
   </g>
   <g id="patch_9">
    <path d="M 64.8 128.16 
L 64.8 77.76 
" style="fill:none;"/>
   </g>
   <g id="patch_10">
    <path d="M 9 128.16 
L 64.8 128.16 
" style="fill:none;stroke:#a9a9a9;stroke-linecap:square;stroke-linejoin:miter;stroke-width:2;"/>
   </g>
   <g id="patch_11">
    <path d="M 9 77.76 
L 64.8 77.76 
" style="fill:none;"/>
   </g>
  </g>
 </g>
 <defs>
  <clipPath id="pbc27af69c5">
   <rect height="50.4" width="55.8" x="9" y="17.28"/>
  </clipPath>
  <clipPath id="pc7c1025287">
   <rect height="50.4" width="55.8" x="9" y="77.76"/>
  </clipPath>
 </defs>
</svg>
