<?xml version="1.0" encoding="utf-8" standalone="no"?>
<!DOCTYPE svg PUBLIC "-//W3C//DTD SVG 1.1//EN"
  "http://www.w3.org/Graphics/SVG/1.1/DTD/svg11.dtd">
<!-- Created with matplotlib (https://matplotlib.org/) -->
<svg height="396pt" version="1.1" viewBox="0 0 216 396" width="216pt" xmlns="http://www.w3.org/2000/svg" xmlns:xlink="http://www.w3.org/1999/xlink">
 <metadata>
  <rdf:RDF xmlns:cc="http://creativecommons.org/ns#" xmlns:dc="http://purl.org/dc/elements/1.1/" xmlns:rdf="http://www.w3.org/1999/02/22-rdf-syntax-ns#">
   <cc:Work>
    <dc:type rdf:resource="http://purl.org/dc/dcmitype/StillImage"/>
    <dc:date>2021-10-05T12:41:00.601512</dc:date>
    <dc:format>image/svg+xml</dc:format>
    <dc:creator>
     <cc:Agent>
      <dc:title>Matplotlib v3.3.2, https://matplotlib.org/</dc:title>
     </cc:Agent>
    </dc:creator>
   </cc:Work>
  </rdf:RDF>
 </metadata>
 <defs>
  <style type="text/css">*{stroke-linecap:butt;stroke-linejoin:round;}</style>
 </defs>
 <g id="figure_1">
  <g id="patch_1">
   <path d="M 0 396 
L 216 396 
L 216 0 
L 0 0 
z
" style="fill:none;"/>
  </g>
  <g id="axes_1">
   <g id="patch_2">
    <path d="M 27 113.806957 
L 194.4 113.806957 
L 194.4 47.52 
L 27 47.52 
z
" style="fill:none;"/>
   </g>
   <g id="matplotlib.axis_1">
    <g id="xtick_1">
     <g id="line2d_1">
      <defs>
       <path d="M 0 0 
L 0 3.5 
" id="m2d003f04f1" style="stroke:#000000;stroke-width:0.8;"/>
      </defs>
      <g>
       <use style="stroke:#000000;stroke-width:0.8;" x="52.7538" xlink:href="#m2d003f04f1" y="113.806957"/>
      </g>
     </g>
    </g>
    <g id="xtick_2">
     <g id="line2d_2">
      <g>
       <use style="stroke:#000000;stroke-width:0.8;" x="81.369069" xlink:href="#m2d003f04f1" y="113.806957"/>
      </g>
     </g>
    </g>
    <g id="xtick_3">
     <g id="line2d_3">
      <g>
       <use style="stroke:#000000;stroke-width:0.8;" x="109.984337" xlink:href="#m2d003f04f1" y="113.806957"/>
      </g>
     </g>
    </g>
    <g id="xtick_4">
     <g id="line2d_4">
      <g>
       <use style="stroke:#000000;stroke-width:0.8;" x="138.599606" xlink:href="#m2d003f04f1" y="113.806957"/>
      </g>
     </g>
    </g>
    <g id="xtick_5">
     <g id="line2d_5">
      <g>
       <use style="stroke:#000000;stroke-width:0.8;" x="167.214875" xlink:href="#m2d003f04f1" y="113.806957"/>
      </g>
     </g>
    </g>
   </g>
   <g id="matplotlib.axis_2">
    <g id="ytick_1">
     <g id="line2d_6">
      <defs>
       <path d="M 0 0 
L -3.5 0 
" id="m3d8230a06b" style="stroke:#000000;stroke-width:0.8;"/>
      </defs>
      <g>
       <use style="stroke:#000000;stroke-width:0.8;" x="27" xlink:href="#m3d8230a06b" y="113.806957"/>
      </g>
     </g>
     <g id="text_1">
      <!-- 0 -->
      <g transform="translate(17.04625 116.46641)scale(0.07 -0.07)">
       <defs>
        <path d="M 31.78125 66.40625 
Q 24.171875 66.40625 20.328125 58.90625 
Q 16.5 51.421875 16.5 36.375 
Q 16.5 21.390625 20.328125 13.890625 
Q 24.171875 6.390625 31.78125 6.390625 
Q 39.453125 6.390625 43.28125 13.890625 
Q 47.125 21.390625 47.125 36.375 
Q 47.125 51.421875 43.28125 58.90625 
Q 39.453125 66.40625 31.78125 66.40625 
z
M 31.78125 74.21875 
Q 44.046875 74.21875 50.515625 64.515625 
Q 56.984375 54.828125 56.984375 36.375 
Q 56.984375 17.96875 50.515625 8.265625 
Q 44.046875 -1.421875 31.78125 -1.421875 
Q 19.53125 -1.421875 13.0625 8.265625 
Q 6.59375 17.96875 6.59375 36.375 
Q 6.59375 54.828125 13.0625 64.515625 
Q 19.53125 74.21875 31.78125 74.21875 
z
" id="DejaVuSans-48"/>
       </defs>
       <use xlink:href="#DejaVuSans-48"/>
      </g>
     </g>
    </g>
    <g id="ytick_2">
     <g id="line2d_7">
      <g>
       <use style="stroke:#000000;stroke-width:0.8;" x="27" xlink:href="#m3d8230a06b" y="87.293244"/>
      </g>
     </g>
     <g id="text_2">
      <!-- 20 -->
      <g transform="translate(12.5925 89.952697)scale(0.07 -0.07)">
       <defs>
        <path d="M 19.1875 8.296875 
L 53.609375 8.296875 
L 53.609375 0 
L 7.328125 0 
L 7.328125 8.296875 
Q 12.9375 14.109375 22.625 23.890625 
Q 32.328125 33.6875 34.8125 36.53125 
Q 39.546875 41.84375 41.421875 45.53125 
Q 43.3125 49.21875 43.3125 52.78125 
Q 43.3125 58.59375 39.234375 62.25 
Q 35.15625 65.921875 28.609375 65.921875 
Q 23.96875 65.921875 18.8125 64.3125 
Q 13.671875 62.703125 7.8125 59.421875 
L 7.8125 69.390625 
Q 13.765625 71.78125 18.9375 73 
Q 24.125 74.21875 28.421875 74.21875 
Q 39.75 74.21875 46.484375 68.546875 
Q 53.21875 62.890625 53.21875 53.421875 
Q 53.21875 48.921875 51.53125 44.890625 
Q 49.859375 40.875 45.40625 35.40625 
Q 44.1875 33.984375 37.640625 27.21875 
Q 31.109375 20.453125 19.1875 8.296875 
z
" id="DejaVuSans-50"/>
       </defs>
       <use xlink:href="#DejaVuSans-50"/>
       <use x="63.623047" xlink:href="#DejaVuSans-48"/>
      </g>
     </g>
    </g>
    <g id="ytick_3">
     <g id="line2d_8">
      <g>
       <use style="stroke:#000000;stroke-width:0.8;" x="27" xlink:href="#m3d8230a06b" y="60.779532"/>
      </g>
     </g>
     <g id="text_3">
      <!-- 40 -->
      <g transform="translate(12.5925 63.438985)scale(0.07 -0.07)">
       <defs>
        <path d="M 37.796875 64.3125 
L 12.890625 25.390625 
L 37.796875 25.390625 
z
M 35.203125 72.90625 
L 47.609375 72.90625 
L 47.609375 25.390625 
L 58.015625 25.390625 
L 58.015625 17.1875 
L 47.609375 17.1875 
L 47.609375 0 
L 37.796875 0 
L 37.796875 17.1875 
L 4.890625 17.1875 
L 4.890625 26.703125 
z
" id="DejaVuSans-52"/>
       </defs>
       <use xlink:href="#DejaVuSans-52"/>
       <use x="63.623047" xlink:href="#DejaVuSans-48"/>
      </g>
     </g>
    </g>
   </g>
   <g id="line2d_9">
    <path clip-path="url(#pc70bb077e6)" d="M 27 104.483278 
L 28.430771 102.067427 
L 29.861543 100.658291 
L 31.29239 99.846878 
L 32.723165 98.127237 
L 34.153805 97.48752 
L 35.584503 96.916699 
L 37.015323 95.648566 
L 38.446022 95.089731 
L 39.876807 94.115373 
L 41.307664 93.534536 
L 42.738326 92.701302 
L 44.16904 92.099826 
L 45.599767 90.883019 
L 47.030465 90.119646 
L 48.461222 89.646985 
L 49.891883 88.335169 
L 51.322586 87.625674 
L 52.753359 86.998593 
L 54.184135 86.171548 
L 55.614857 85.312327 
L 57.045668 84.625966 
L 58.476455 83.586052 
L 59.907086 82.948445 
L 61.337875 82.040254 
L 62.768572 81.536841 
L 64.19929 81.115043 
L 65.630046 80.815283 
L 67.060903 79.826199 
L 68.491686 79.142659 
L 69.922437 78.456431 
L 71.353083 78.293823 
L 72.783972 78.045937 
L 74.214623 77.482777 
L 75.645391 77.319009 
L 77.076099 76.57986 
L 78.506799 75.994828 
L 79.937571 75.502526 
L 81.368493 75.152412 
L 82.799149 74.344717 
L 84.22987 74.031757 
L 85.660689 73.793224 
L 87.091508 73.440264 
L 88.522358 72.963119 
L 89.953129 72.792869 
L 91.383854 72.699866 
L 92.81461 72.399209 
L 94.24539 72.230282 
L 95.676174 71.749328 
L 97.107003 71.473924 
L 98.537788 71.024268 
L 99.968716 70.237689 
L 101.399435 69.379094 
L 102.830154 68.765794 
L 104.26092 68.64452 
L 105.691761 68.37988 
L 107.122496 68.098517 
L 108.553217 67.944714 
L 109.983932 67.847382 
L 111.414651 67.007441 
L 112.845458 66.523547 
L 114.276243 65.969387 
L 115.706982 66.017655 
L 117.13784 65.297808 
L 118.568648 64.98132 
L 119.999543 64.76901 
L 121.430424 64.560897 
L 122.861209 64.634481 
L 124.291934 63.931385 
L 125.722665 63.361065 
L 127.153402 63.060817 
L 128.584168 62.753492 
L 130.015011 62.519716 
L 131.445717 62.269164 
L 132.876396 62.25761 
L 134.307263 61.92659 
L 135.738148 61.689074 
L 137.168919 61.321763 
L 138.599673 60.792936 
L 140.030497 60.156614 
L 141.461252 59.805512 
L 142.892057 59.426248 
L 144.322869 59.367587 
L 145.753626 59.087394 
L 147.184443 58.477275 
L 148.615187 57.90186 
L 150.045962 57.677117 
L 151.476775 57.529049 
L 152.907601 56.582014 
L 154.338208 56.112344 
L 155.768972 55.901806 
L 157.199831 55.476978 
L 158.630599 54.964294 
L 160.061319 54.60482 
L 161.492082 54.637387 
L 162.922977 54.442012 
L 164.353665 53.977074 
L 165.78438 53.420075 
L 167.215171 52.892634 
L 168.646017 52.783099 
L 170.07671 52.512072 
L 171.507524 52.056886 
L 172.938399 51.600244 
L 174.369109 51.475544 
L 175.799977 51.067314 
L 177.230766 50.660071 
L 178.661571 50.598441 
L 180.092226 50.226336 
L 181.523118 50.094472 
L 182.953941 49.749285 
L 184.38475 49.559268 
L 185.815419 49.233716 
L 187.246074 49.114469 
L 188.676753 48.921873 
L 190.107522 48.382376 
L 191.538301 48.131513 
L 192.969148 47.610162 
L 194.4 47.52 
" style="fill:none;stroke:#fc8d62;stroke-linecap:square;stroke-width:2;"/>
   </g>
   <g id="line2d_10">
    <path clip-path="url(#pc70bb077e6)" d="M 27 109.650689 
L 28.430771 108.894715 
L 29.861543 108.192449 
L 31.29239 107.571242 
L 32.723165 106.845141 
L 34.153805 106.491466 
L 35.584503 105.804705 
L 37.015323 105.186194 
L 38.446022 104.750974 
L 39.876807 104.461668 
L 41.307664 103.876464 
L 42.738326 103.380976 
L 44.16904 102.931313 
L 45.599767 102.414548 
L 47.030465 102.178049 
L 48.461222 101.878438 
L 49.891883 101.551245 
L 51.322586 101.242441 
L 52.753359 100.746262 
L 54.184135 100.573704 
L 55.614857 100.243276 
L 57.045668 100.074286 
L 58.476455 99.60805 
L 59.907086 99.299858 
L 61.337875 99.350333 
L 62.768572 99.068369 
L 64.19929 98.807321 
L 65.630046 98.730135 
L 67.060903 98.57295 
L 68.491686 98.178634 
L 69.922437 97.862328 
L 71.353083 97.497296 
L 72.783972 97.189531 
L 74.214623 97.033942 
L 75.645391 96.798594 
L 77.076099 96.51149 
L 78.506799 96.277497 
L 79.937571 96.118432 
L 81.368493 95.781194 
L 82.799149 95.4893 
L 84.22987 95.287973 
L 85.660689 95.003814 
L 87.091508 94.806738 
L 88.522358 94.410913 
L 89.953129 94.161671 
L 91.383854 93.991034 
L 92.81461 93.567811 
L 94.24539 93.231592 
L 95.676174 93.137788 
L 97.107003 93.200105 
L 98.537788 92.892428 
L 99.968716 92.588639 
L 101.399435 92.318391 
L 102.830154 92.086467 
L 104.26092 92.041542 
L 105.691761 91.662565 
L 107.122496 91.57974 
L 108.553217 91.389475 
L 109.983932 91.250821 
L 111.414651 91.032326 
L 112.845458 90.890275 
L 114.276243 90.587326 
L 115.706982 90.425755 
L 117.13784 90.308219 
L 118.568648 89.878565 
L 119.999543 89.842465 
L 121.430424 89.854687 
L 122.861209 89.519188 
L 124.291934 89.387766 
L 125.722665 89.352769 
L 127.153402 89.135066 
L 128.584168 88.82655 
L 130.015011 88.824431 
L 131.445717 88.58224 
L 132.876396 88.378054 
L 134.307263 88.300044 
L 135.738148 88.118594 
L 137.168919 87.914145 
L 138.599673 87.846483 
L 140.030497 87.644311 
L 141.461252 87.428064 
L 142.892057 87.292609 
L 144.322869 87.306384 
L 145.753626 86.987487 
L 147.184443 86.861178 
L 148.615187 86.758471 
L 150.045962 86.54632 
L 151.476775 86.37772 
L 152.907601 86.116867 
L 154.338208 86.019312 
L 155.768972 85.88284 
L 157.199831 85.856742 
L 158.630599 85.699985 
L 160.061319 85.583033 
L 161.492082 85.498581 
L 162.922977 85.391698 
L 164.353665 85.175719 
L 165.78438 85.021792 
L 167.215171 85.137805 
L 168.646017 85.15464 
L 170.07671 84.948545 
L 171.507524 84.62895 
L 172.938399 84.464122 
L 174.369109 84.400224 
L 175.799977 84.265335 
L 177.230766 84.119244 
L 178.661571 84.205267 
L 180.092226 84.010124 
L 181.523118 83.716881 
L 182.953941 83.516511 
L 184.38475 83.449059 
L 185.815419 83.230143 
L 187.246074 83.202173 
L 188.676753 83.184043 
L 190.107522 83.133233 
L 191.538301 83.162078 
L 192.969148 83.101319 
L 194.4 82.960164 
" style="fill:none;stroke:#fc8d62;stroke-dasharray:1.5,2.475;stroke-dashoffset:0;stroke-opacity:0.7;stroke-width:1.5;"/>
   </g>
   <g id="patch_3">
    <path d="M 27 113.806957 
L 27 47.52 
" style="fill:none;stroke:#a9a9a9;stroke-linecap:square;stroke-linejoin:miter;stroke-width:2;"/>
   </g>
   <g id="patch_4">
    <path d="M 194.4 113.806957 
L 194.4 47.52 
" style="fill:none;"/>
   </g>
   <g id="patch_5">
    <path d="M 27 113.806957 
L 194.4 113.806957 
" style="fill:none;stroke:#a9a9a9;stroke-linecap:square;stroke-linejoin:miter;stroke-width:2;"/>
   </g>
   <g id="patch_6">
    <path d="M 27 47.52 
L 194.4 47.52 
" style="fill:none;"/>
   </g>
   <g id="text_4">
    <!-- SNR -->
    <g transform="translate(101.349844 44.52)scale(0.09 -0.09)">
     <defs>
      <path d="M 53.515625 70.515625 
L 53.515625 60.890625 
Q 47.90625 63.578125 42.921875 64.890625 
Q 37.9375 66.21875 33.296875 66.21875 
Q 25.25 66.21875 20.875 63.09375 
Q 16.5 59.96875 16.5 54.203125 
Q 16.5 49.359375 19.40625 46.890625 
Q 22.3125 44.4375 30.421875 42.921875 
L 36.375 41.703125 
Q 47.40625 39.59375 52.65625 34.296875 
Q 57.90625 29 57.90625 20.125 
Q 57.90625 9.515625 50.796875 4.046875 
Q 43.703125 -1.421875 29.984375 -1.421875 
Q 24.8125 -1.421875 18.96875 -0.25 
Q 13.140625 0.921875 6.890625 3.21875 
L 6.890625 13.375 
Q 12.890625 10.015625 18.65625 8.296875 
Q 24.421875 6.59375 29.984375 6.59375 
Q 38.421875 6.59375 43.015625 9.90625 
Q 47.609375 13.234375 47.609375 19.390625 
Q 47.609375 24.75 44.3125 27.78125 
Q 41.015625 30.8125 33.5 32.328125 
L 27.484375 33.5 
Q 16.453125 35.6875 11.515625 40.375 
Q 6.59375 45.0625 6.59375 53.421875 
Q 6.59375 63.09375 13.40625 68.65625 
Q 20.21875 74.21875 32.171875 74.21875 
Q 37.3125 74.21875 42.625 73.28125 
Q 47.953125 72.359375 53.515625 70.515625 
z
" id="DejaVuSans-83"/>
      <path d="M 9.8125 72.90625 
L 23.09375 72.90625 
L 55.421875 11.921875 
L 55.421875 72.90625 
L 64.984375 72.90625 
L 64.984375 0 
L 51.703125 0 
L 19.390625 60.984375 
L 19.390625 0 
L 9.8125 0 
z
" id="DejaVuSans-78"/>
      <path d="M 44.390625 34.1875 
Q 47.5625 33.109375 50.5625 29.59375 
Q 53.5625 26.078125 56.59375 19.921875 
L 66.609375 0 
L 56 0 
L 46.6875 18.703125 
Q 43.0625 26.03125 39.671875 28.421875 
Q 36.28125 30.8125 30.421875 30.8125 
L 19.671875 30.8125 
L 19.671875 0 
L 9.8125 0 
L 9.8125 72.90625 
L 32.078125 72.90625 
Q 44.578125 72.90625 50.734375 67.671875 
Q 56.890625 62.453125 56.890625 51.90625 
Q 56.890625 45.015625 53.6875 40.46875 
Q 50.484375 35.9375 44.390625 34.1875 
z
M 19.671875 64.796875 
L 19.671875 38.921875 
L 32.078125 38.921875 
Q 39.203125 38.921875 42.84375 42.21875 
Q 46.484375 45.515625 46.484375 51.90625 
Q 46.484375 58.296875 42.84375 61.546875 
Q 39.203125 64.796875 32.078125 64.796875 
z
" id="DejaVuSans-82"/>
     </defs>
     <use xlink:href="#DejaVuSans-83"/>
     <use x="63.476562" xlink:href="#DejaVuSans-78"/>
     <use x="138.28125" xlink:href="#DejaVuSans-82"/>
    </g>
   </g>
   <g id="legend_1">
    <g id="patch_7">
     <path d="M 31.9 73.669375 
L 70.33 73.669375 
Q 71.73 73.669375 71.73 72.269375 
L 71.73 52.42 
Q 71.73 51.02 70.33 51.02 
L 31.9 51.02 
Q 30.5 51.02 30.5 52.42 
L 30.5 72.269375 
Q 30.5 73.669375 31.9 73.669375 
z
" style="fill:#ffffff;opacity:0.8;stroke:#cccccc;stroke-linejoin:miter;"/>
    </g>
    <g id="line2d_11">
     <path d="M 33.3 56.688906 
L 47.3 56.688906 
" style="fill:none;stroke:#fc8d62;stroke-linecap:square;stroke-width:2;"/>
    </g>
    <g id="line2d_12"/>
    <g id="text_5">
     <!-- $\theta$ -->
     <g transform="translate(52.9 59.138906)scale(0.07 -0.07)">
      <defs>
       <path d="M 45.515625 34.671875 
L 14.453125 34.671875 
Q 12.359375 20.0625 14.5 13.875 
Q 17.1875 6.25 24.46875 6.25 
Q 31.78125 6.25 37.359375 13.921875 
Q 42.234375 20.65625 45.515625 34.671875 
z
M 47.015625 42.96875 
Q 48.34375 56.84375 46.625 61.71875 
Q 43.953125 69.4375 36.765625 69.4375 
Q 29.296875 69.4375 23.828125 61.8125 
Q 19.53125 55.671875 16.15625 42.96875 
z
M 38.1875 76.765625 
Q 49.90625 76.765625 54.59375 66.40625 
Q 59.28125 56.109375 55.71875 37.84375 
Q 52.203125 19.625 43.453125 9.28125 
Q 34.765625 -1.125 23.046875 -1.125 
Q 11.28125 -1.125 6.640625 9.28125 
Q 2 19.625 5.515625 37.84375 
Q 9.078125 56.109375 17.71875 66.40625 
Q 26.421875 76.765625 38.1875 76.765625 
z
" id="DejaVuSans-Oblique-952"/>
      </defs>
      <use transform="translate(0 0.234375)" xlink:href="#DejaVuSans-Oblique-952"/>
     </g>
    </g>
    <g id="line2d_13">
     <path d="M 33.3 66.963594 
L 47.3 66.963594 
" style="fill:none;stroke:#fc8d62;stroke-dasharray:1.5,2.475;stroke-dashoffset:0;stroke-opacity:0.7;stroke-width:1.5;"/>
    </g>
    <g id="line2d_14"/>
    <g id="text_6">
     <!-- No $\theta$ -->
     <g transform="translate(52.9 69.413594)scale(0.07 -0.07)">
      <defs>
       <path d="M 30.609375 48.390625 
Q 23.390625 48.390625 19.1875 42.75 
Q 14.984375 37.109375 14.984375 27.296875 
Q 14.984375 17.484375 19.15625 11.84375 
Q 23.34375 6.203125 30.609375 6.203125 
Q 37.796875 6.203125 41.984375 11.859375 
Q 46.1875 17.53125 46.1875 27.296875 
Q 46.1875 37.015625 41.984375 42.703125 
Q 37.796875 48.390625 30.609375 48.390625 
z
M 30.609375 56 
Q 42.328125 56 49.015625 48.375 
Q 55.71875 40.765625 55.71875 27.296875 
Q 55.71875 13.875 49.015625 6.21875 
Q 42.328125 -1.421875 30.609375 -1.421875 
Q 18.84375 -1.421875 12.171875 6.21875 
Q 5.515625 13.875 5.515625 27.296875 
Q 5.515625 40.765625 12.171875 48.375 
Q 18.84375 56 30.609375 56 
z
" id="DejaVuSans-111"/>
       <path id="DejaVuSans-32"/>
      </defs>
      <use transform="translate(0 0.234375)" xlink:href="#DejaVuSans-78"/>
      <use transform="translate(74.804688 0.234375)" xlink:href="#DejaVuSans-111"/>
      <use transform="translate(135.986328 0.234375)" xlink:href="#DejaVuSans-32"/>
      <use transform="translate(167.773438 0.234375)" xlink:href="#DejaVuSans-Oblique-952"/>
     </g>
    </g>
   </g>
  </g>
  <g id="axes_2">
   <g id="patch_8">
    <path d="M 27 193.351304 
L 194.4 193.351304 
L 194.4 127.064348 
L 27 127.064348 
z
" style="fill:none;"/>
   </g>
   <g id="matplotlib.axis_3">
    <g id="xtick_6">
     <g id="line2d_15">
      <g>
       <use style="stroke:#000000;stroke-width:0.8;" x="52.7538" xlink:href="#m2d003f04f1" y="193.351304"/>
      </g>
     </g>
    </g>
    <g id="xtick_7">
     <g id="line2d_16">
      <g>
       <use style="stroke:#000000;stroke-width:0.8;" x="81.369069" xlink:href="#m2d003f04f1" y="193.351304"/>
      </g>
     </g>
    </g>
    <g id="xtick_8">
     <g id="line2d_17">
      <g>
       <use style="stroke:#000000;stroke-width:0.8;" x="109.984337" xlink:href="#m2d003f04f1" y="193.351304"/>
      </g>
     </g>
    </g>
    <g id="xtick_9">
     <g id="line2d_18">
      <g>
       <use style="stroke:#000000;stroke-width:0.8;" x="138.599606" xlink:href="#m2d003f04f1" y="193.351304"/>
      </g>
     </g>
    </g>
    <g id="xtick_10">
     <g id="line2d_19">
      <g>
       <use style="stroke:#000000;stroke-width:0.8;" x="167.214875" xlink:href="#m2d003f04f1" y="193.351304"/>
      </g>
     </g>
    </g>
   </g>
   <g id="matplotlib.axis_4">
    <g id="ytick_4">
     <g id="line2d_20">
      <g>
       <use style="stroke:#000000;stroke-width:0.8;" x="27" xlink:href="#m3d8230a06b" y="193.351304"/>
      </g>
     </g>
     <g id="text_7">
      <!-- 0.0 -->
      <g transform="translate(10.367812 196.010757)scale(0.07 -0.07)">
       <defs>
        <path d="M 10.6875 12.40625 
L 21 12.40625 
L 21 0 
L 10.6875 0 
z
" id="DejaVuSans-46"/>
       </defs>
       <use xlink:href="#DejaVuSans-48"/>
       <use x="63.623047" xlink:href="#DejaVuSans-46"/>
       <use x="95.410156" xlink:href="#DejaVuSans-48"/>
      </g>
     </g>
    </g>
    <g id="ytick_5">
     <g id="line2d_21">
      <g>
       <use style="stroke:#000000;stroke-width:0.8;" x="27" xlink:href="#m3d8230a06b" y="160.864747"/>
      </g>
     </g>
     <g id="text_8">
      <!-- 0.1 -->
      <g transform="translate(10.367812 163.5242)scale(0.07 -0.07)">
       <defs>
        <path d="M 12.40625 8.296875 
L 28.515625 8.296875 
L 28.515625 63.921875 
L 10.984375 60.40625 
L 10.984375 69.390625 
L 28.421875 72.90625 
L 38.28125 72.90625 
L 38.28125 8.296875 
L 54.390625 8.296875 
L 54.390625 0 
L 12.40625 0 
z
" id="DejaVuSans-49"/>
       </defs>
       <use xlink:href="#DejaVuSans-48"/>
       <use x="63.623047" xlink:href="#DejaVuSans-46"/>
       <use x="95.410156" xlink:href="#DejaVuSans-49"/>
      </g>
     </g>
    </g>
    <g id="ytick_6">
     <g id="line2d_22">
      <g>
       <use style="stroke:#000000;stroke-width:0.8;" x="27" xlink:href="#m3d8230a06b" y="128.378189"/>
      </g>
     </g>
     <g id="text_9">
      <!-- 0.2 -->
      <g transform="translate(10.367812 131.037642)scale(0.07 -0.07)">
       <use xlink:href="#DejaVuSans-48"/>
       <use x="63.623047" xlink:href="#DejaVuSans-46"/>
       <use x="95.410156" xlink:href="#DejaVuSans-50"/>
      </g>
     </g>
    </g>
   </g>
   <g id="line2d_23">
    <path clip-path="url(#pf962dbd8d2)" d="M 27 192.359633 
L 28.430771 191.747967 
L 29.861543 191.189202 
L 31.29239 190.303731 
L 32.723165 189.817599 
L 34.153805 189.24271 
L 35.584503 188.275556 
L 37.015323 187.694772 
L 38.446022 186.997746 
L 39.876807 186.457373 
L 41.307664 185.702423 
L 42.738326 185.254082 
L 44.16904 184.746854 
L 45.599767 184.443385 
L 47.030465 183.606227 
L 48.461222 182.706819 
L 49.891883 182.471595 
L 51.322586 181.780766 
L 52.753359 181.250228 
L 54.184135 180.933366 
L 55.614857 180.401867 
L 57.045668 180.161465 
L 58.476455 179.870199 
L 59.907086 179.634875 
L 61.337875 179.224802 
L 62.768572 178.691181 
L 64.19929 178.050301 
L 65.630046 177.290894 
L 67.060903 176.990771 
L 68.491686 176.618597 
L 69.922437 176.280817 
L 71.353083 175.063702 
L 72.783972 173.884512 
L 74.214623 173.570288 
L 75.645391 172.717137 
L 77.076099 172.557468 
L 78.506799 172.259595 
L 79.937571 171.872295 
L 81.368493 171.198648 
L 82.799149 171.070725 
L 84.22987 170.294741 
L 85.660689 169.382295 
L 87.091508 168.741557 
L 88.522358 168.258107 
L 89.953129 167.606659 
L 91.383854 166.634097 
L 92.81461 165.813334 
L 94.24539 165.028589 
L 95.676174 164.527268 
L 97.107003 163.865912 
L 98.537788 163.154903 
L 99.968716 163.250861 
L 101.399435 163.296702 
L 102.830154 162.840661 
L 104.26092 162.096464 
L 105.691761 161.206205 
L 107.122496 160.838909 
L 108.553217 159.929433 
L 109.983932 159.013711 
L 111.414651 159.081472 
L 112.845458 158.874314 
L 114.276243 158.59096 
L 115.706982 157.52917 
L 117.13784 157.365141 
L 118.568648 156.781404 
L 119.999543 156.23317 
L 121.430424 155.681545 
L 122.861209 154.456002 
L 124.291934 154.314261 
L 125.722665 153.687611 
L 127.153402 152.963349 
L 128.584168 152.24212 
L 130.015011 151.320913 
L 131.445717 150.290697 
L 132.876396 148.889885 
L 134.307263 148.261646 
L 135.738148 147.588688 
L 137.168919 147.028028 
L 138.599673 146.574402 
L 140.030497 146.531484 
L 141.461252 146.207937 
L 142.892057 145.746246 
L 144.322869 144.794488 
L 145.753626 144.13163 
L 147.184443 143.905377 
L 148.615187 143.781126 
L 150.045962 142.783076 
L 151.476775 141.730796 
L 152.907601 142.495211 
L 154.338208 141.894438 
L 155.768972 140.836318 
L 157.199831 140.590663 
L 158.630599 140.25225 
L 160.061319 139.90196 
L 161.492082 138.570033 
L 162.922977 137.769726 
L 164.353665 137.624866 
L 165.78438 137.376329 
L 167.215171 137.161352 
L 168.646017 136.048754 
L 170.07671 135.475088 
L 171.507524 135.397472 
L 172.938399 135.154581 
L 174.369109 134.483529 
L 175.799977 134.450497 
L 177.230766 134.215311 
L 178.661571 133.417874 
L 180.092226 133.152421 
L 181.523118 132.076942 
L 182.953941 131.631142 
L 184.38475 131.002387 
L 185.815419 130.287232 
L 187.246074 129.411934 
L 188.676753 128.855935 
L 190.107522 128.909787 
L 191.538301 128.072724 
L 192.969148 128.148548 
L 194.4 127.064348 
" style="fill:none;stroke:#fc8d62;stroke-linecap:square;stroke-width:2;"/>
   </g>
   <g id="line2d_24">
    <path clip-path="url(#pf962dbd8d2)" d="M 27 192.343514 
L 28.430771 191.938205 
L 29.861543 191.468946 
L 31.29239 191.092358 
L 32.723165 190.665171 
L 34.153805 190.112729 
L 35.584503 189.752546 
L 37.015323 189.389098 
L 38.446022 189.03149 
L 39.876807 188.554961 
L 41.307664 188.101165 
L 42.738326 187.641014 
L 44.16904 187.200652 
L 45.599767 186.961768 
L 47.030465 186.313942 
L 48.461222 185.923525 
L 49.891883 185.243779 
L 51.322586 184.981885 
L 52.753359 184.862392 
L 54.184135 184.56925 
L 55.614857 184.274872 
L 57.045668 183.655029 
L 58.476455 183.265177 
L 59.907086 182.947725 
L 61.337875 182.166753 
L 62.768572 181.790203 
L 64.19929 181.511385 
L 65.630046 180.704214 
L 67.060903 180.188164 
L 68.491686 180.004308 
L 69.922437 179.745564 
L 71.353083 179.688117 
L 72.783972 179.156203 
L 74.214623 178.525638 
L 75.645391 177.985022 
L 77.076099 177.749229 
L 78.506799 177.03166 
L 79.937571 176.404276 
L 81.368493 176.056964 
L 82.799149 175.58573 
L 84.22987 174.894288 
L 85.660689 174.614683 
L 87.091508 174.041423 
L 88.522358 173.780397 
L 89.953129 173.19722 
L 91.383854 172.8258 
L 92.81461 172.822735 
L 94.24539 172.780529 
L 95.676174 172.114714 
L 97.107003 171.262585 
L 98.537788 171.111132 
L 99.968716 170.840799 
L 101.399435 170.586588 
L 102.830154 170.092038 
L 104.26092 169.437057 
L 105.691761 169.563462 
L 107.122496 168.932806 
L 108.553217 168.534455 
L 109.983932 168.194639 
L 111.414651 168.016422 
L 112.845458 167.515267 
L 114.276243 167.505699 
L 115.706982 166.814635 
L 117.13784 166.358096 
L 118.568648 166.425328 
L 119.999543 165.411222 
L 121.430424 164.671203 
L 122.861209 164.589892 
L 124.291934 164.010945 
L 125.722665 163.297623 
L 127.153402 162.904825 
L 128.584168 162.804465 
L 130.015011 162.219855 
L 131.445717 161.922387 
L 132.876396 161.585769 
L 134.307263 161.077424 
L 135.738148 160.71165 
L 137.168919 160.315527 
L 138.599673 159.774891 
L 140.030497 159.499883 
L 141.461252 159.085571 
L 142.892057 158.685464 
L 144.322869 157.885825 
L 145.753626 157.75415 
L 147.184443 157.308206 
L 148.615187 157.159826 
L 150.045962 157.095732 
L 151.476775 156.676239 
L 152.907601 156.44919 
L 154.338208 155.878289 
L 155.768972 155.781431 
L 157.199831 154.903858 
L 158.630599 154.487108 
L 160.061319 154.0445 
L 161.492082 153.469299 
L 162.922977 152.646719 
L 164.353665 152.530087 
L 165.78438 152.016068 
L 167.215171 150.775653 
L 168.646017 149.94419 
L 170.07671 149.842212 
L 171.507524 150.04867 
L 172.938399 149.667267 
L 174.369109 149.20061 
L 175.799977 149.231178 
L 177.230766 149.022229 
L 178.661571 148.143959 
L 180.092226 147.969682 
L 181.523118 147.923281 
L 182.953941 147.67301 
L 184.38475 146.79887 
L 185.815419 146.861206 
L 187.246074 146.046384 
L 188.676753 145.423573 
L 190.107522 144.432645 
L 191.538301 143.667538 
L 192.969148 143.078687 
L 194.4 142.851604 
" style="fill:none;stroke:#fc8d62;stroke-dasharray:1.5,2.475;stroke-dashoffset:0;stroke-opacity:0.7;stroke-width:1.5;"/>
   </g>
   <g id="patch_9">
    <path d="M 27 193.351304 
L 27 127.064348 
" style="fill:none;stroke:#a9a9a9;stroke-linecap:square;stroke-linejoin:miter;stroke-width:2;"/>
   </g>
   <g id="patch_10">
    <path d="M 194.4 193.351304 
L 194.4 127.064348 
" style="fill:none;"/>
   </g>
   <g id="patch_11">
    <path d="M 27 193.351304 
L 194.4 193.351304 
" style="fill:none;stroke:#a9a9a9;stroke-linecap:square;stroke-linejoin:miter;stroke-width:2;"/>
   </g>
   <g id="patch_12">
    <path d="M 27 127.064348 
L 194.4 127.064348 
" style="fill:none;"/>
   </g>
   <g id="text_10">
    <!-- Variance -->
    <g transform="translate(91.26 124.064348)scale(0.09 -0.09)">
     <defs>
      <path d="M 28.609375 0 
L 0.78125 72.90625 
L 11.078125 72.90625 
L 34.1875 11.53125 
L 57.328125 72.90625 
L 67.578125 72.90625 
L 39.796875 0 
z
" id="DejaVuSans-86"/>
      <path d="M 34.28125 27.484375 
Q 23.390625 27.484375 19.1875 25 
Q 14.984375 22.515625 14.984375 16.5 
Q 14.984375 11.71875 18.140625 8.90625 
Q 21.296875 6.109375 26.703125 6.109375 
Q 34.1875 6.109375 38.703125 11.40625 
Q 43.21875 16.703125 43.21875 25.484375 
L 43.21875 27.484375 
z
M 52.203125 31.203125 
L 52.203125 0 
L 43.21875 0 
L 43.21875 8.296875 
Q 40.140625 3.328125 35.546875 0.953125 
Q 30.953125 -1.421875 24.3125 -1.421875 
Q 15.921875 -1.421875 10.953125 3.296875 
Q 6 8.015625 6 15.921875 
Q 6 25.140625 12.171875 29.828125 
Q 18.359375 34.515625 30.609375 34.515625 
L 43.21875 34.515625 
L 43.21875 35.40625 
Q 43.21875 41.609375 39.140625 45 
Q 35.0625 48.390625 27.6875 48.390625 
Q 23 48.390625 18.546875 47.265625 
Q 14.109375 46.140625 10.015625 43.890625 
L 10.015625 52.203125 
Q 14.9375 54.109375 19.578125 55.046875 
Q 24.21875 56 28.609375 56 
Q 40.484375 56 46.34375 49.84375 
Q 52.203125 43.703125 52.203125 31.203125 
z
" id="DejaVuSans-97"/>
      <path d="M 41.109375 46.296875 
Q 39.59375 47.171875 37.8125 47.578125 
Q 36.03125 48 33.890625 48 
Q 26.265625 48 22.1875 43.046875 
Q 18.109375 38.09375 18.109375 28.8125 
L 18.109375 0 
L 9.078125 0 
L 9.078125 54.6875 
L 18.109375 54.6875 
L 18.109375 46.1875 
Q 20.953125 51.171875 25.484375 53.578125 
Q 30.03125 56 36.53125 56 
Q 37.453125 56 38.578125 55.875 
Q 39.703125 55.765625 41.0625 55.515625 
z
" id="DejaVuSans-114"/>
      <path d="M 9.421875 54.6875 
L 18.40625 54.6875 
L 18.40625 0 
L 9.421875 0 
z
M 9.421875 75.984375 
L 18.40625 75.984375 
L 18.40625 64.59375 
L 9.421875 64.59375 
z
" id="DejaVuSans-105"/>
      <path d="M 54.890625 33.015625 
L 54.890625 0 
L 45.90625 0 
L 45.90625 32.71875 
Q 45.90625 40.484375 42.875 44.328125 
Q 39.84375 48.1875 33.796875 48.1875 
Q 26.515625 48.1875 22.3125 43.546875 
Q 18.109375 38.921875 18.109375 30.90625 
L 18.109375 0 
L 9.078125 0 
L 9.078125 54.6875 
L 18.109375 54.6875 
L 18.109375 46.1875 
Q 21.34375 51.125 25.703125 53.5625 
Q 30.078125 56 35.796875 56 
Q 45.21875 56 50.046875 50.171875 
Q 54.890625 44.34375 54.890625 33.015625 
z
" id="DejaVuSans-110"/>
      <path d="M 48.78125 52.59375 
L 48.78125 44.1875 
Q 44.96875 46.296875 41.140625 47.34375 
Q 37.3125 48.390625 33.40625 48.390625 
Q 24.65625 48.390625 19.8125 42.84375 
Q 14.984375 37.3125 14.984375 27.296875 
Q 14.984375 17.28125 19.8125 11.734375 
Q 24.65625 6.203125 33.40625 6.203125 
Q 37.3125 6.203125 41.140625 7.25 
Q 44.96875 8.296875 48.78125 10.40625 
L 48.78125 2.09375 
Q 45.015625 0.34375 40.984375 -0.53125 
Q 36.96875 -1.421875 32.421875 -1.421875 
Q 20.0625 -1.421875 12.78125 6.34375 
Q 5.515625 14.109375 5.515625 27.296875 
Q 5.515625 40.671875 12.859375 48.328125 
Q 20.21875 56 33.015625 56 
Q 37.15625 56 41.109375 55.140625 
Q 45.0625 54.296875 48.78125 52.59375 
z
" id="DejaVuSans-99"/>
      <path d="M 56.203125 29.59375 
L 56.203125 25.203125 
L 14.890625 25.203125 
Q 15.484375 15.921875 20.484375 11.0625 
Q 25.484375 6.203125 34.421875 6.203125 
Q 39.59375 6.203125 44.453125 7.46875 
Q 49.3125 8.734375 54.109375 11.28125 
L 54.109375 2.78125 
Q 49.265625 0.734375 44.1875 -0.34375 
Q 39.109375 -1.421875 33.890625 -1.421875 
Q 20.796875 -1.421875 13.15625 6.1875 
Q 5.515625 13.8125 5.515625 26.8125 
Q 5.515625 40.234375 12.765625 48.109375 
Q 20.015625 56 32.328125 56 
Q 43.359375 56 49.78125 48.890625 
Q 56.203125 41.796875 56.203125 29.59375 
z
M 47.21875 32.234375 
Q 47.125 39.59375 43.09375 43.984375 
Q 39.0625 48.390625 32.421875 48.390625 
Q 24.90625 48.390625 20.390625 44.140625 
Q 15.875 39.890625 15.1875 32.171875 
z
" id="DejaVuSans-101"/>
     </defs>
     <use xlink:href="#DejaVuSans-86"/>
     <use x="60.658203" xlink:href="#DejaVuSans-97"/>
     <use x="121.9375" xlink:href="#DejaVuSans-114"/>
     <use x="163.050781" xlink:href="#DejaVuSans-105"/>
     <use x="190.833984" xlink:href="#DejaVuSans-97"/>
     <use x="252.113281" xlink:href="#DejaVuSans-110"/>
     <use x="315.492188" xlink:href="#DejaVuSans-99"/>
     <use x="370.472656" xlink:href="#DejaVuSans-101"/>
    </g>
   </g>
  </g>
  <g id="axes_3">
   <g id="patch_13">
    <path d="M 27 272.895652 
L 194.4 272.895652 
L 194.4 206.608696 
L 27 206.608696 
z
" style="fill:none;"/>
   </g>
   <g id="matplotlib.axis_5">
    <g id="xtick_11">
     <g id="line2d_25">
      <g>
       <use style="stroke:#000000;stroke-width:0.8;" x="52.7538" xlink:href="#m2d003f04f1" y="272.895652"/>
      </g>
     </g>
    </g>
    <g id="xtick_12">
     <g id="line2d_26">
      <g>
       <use style="stroke:#000000;stroke-width:0.8;" x="81.369069" xlink:href="#m2d003f04f1" y="272.895652"/>
      </g>
     </g>
    </g>
    <g id="xtick_13">
     <g id="line2d_27">
      <g>
       <use style="stroke:#000000;stroke-width:0.8;" x="109.984337" xlink:href="#m2d003f04f1" y="272.895652"/>
      </g>
     </g>
    </g>
    <g id="xtick_14">
     <g id="line2d_28">
      <g>
       <use style="stroke:#000000;stroke-width:0.8;" x="138.599606" xlink:href="#m2d003f04f1" y="272.895652"/>
      </g>
     </g>
    </g>
    <g id="xtick_15">
     <g id="line2d_29">
      <g>
       <use style="stroke:#000000;stroke-width:0.8;" x="167.214875" xlink:href="#m2d003f04f1" y="272.895652"/>
      </g>
     </g>
    </g>
   </g>
   <g id="matplotlib.axis_6">
    <g id="ytick_7">
     <g id="line2d_30">
      <g>
       <use style="stroke:#000000;stroke-width:0.8;" x="27" xlink:href="#m3d8230a06b" y="256.83788"/>
      </g>
     </g>
     <g id="text_11">
      <!-- 0.25 -->
      <g transform="translate(5.914062 259.497333)scale(0.07 -0.07)">
       <defs>
        <path d="M 10.796875 72.90625 
L 49.515625 72.90625 
L 49.515625 64.59375 
L 19.828125 64.59375 
L 19.828125 46.734375 
Q 21.96875 47.46875 24.109375 47.828125 
Q 26.265625 48.1875 28.421875 48.1875 
Q 40.625 48.1875 47.75 41.5 
Q 54.890625 34.8125 54.890625 23.390625 
Q 54.890625 11.625 47.5625 5.09375 
Q 40.234375 -1.421875 26.90625 -1.421875 
Q 22.3125 -1.421875 17.546875 -0.640625 
Q 12.796875 0.140625 7.71875 1.703125 
L 7.71875 11.625 
Q 12.109375 9.234375 16.796875 8.0625 
Q 21.484375 6.890625 26.703125 6.890625 
Q 35.15625 6.890625 40.078125 11.328125 
Q 45.015625 15.765625 45.015625 23.390625 
Q 45.015625 31 40.078125 35.4375 
Q 35.15625 39.890625 26.703125 39.890625 
Q 22.75 39.890625 18.8125 39.015625 
Q 14.890625 38.140625 10.796875 36.28125 
z
" id="DejaVuSans-53"/>
       </defs>
       <use xlink:href="#DejaVuSans-48"/>
       <use x="63.623047" xlink:href="#DejaVuSans-46"/>
       <use x="95.410156" xlink:href="#DejaVuSans-50"/>
       <use x="159.033203" xlink:href="#DejaVuSans-53"/>
      </g>
     </g>
    </g>
    <g id="ytick_8">
     <g id="line2d_31">
      <g>
       <use style="stroke:#000000;stroke-width:0.8;" x="27" xlink:href="#m3d8230a06b" y="238.544786"/>
      </g>
     </g>
     <g id="text_12">
      <!-- 0.50 -->
      <g transform="translate(5.914062 241.204239)scale(0.07 -0.07)">
       <use xlink:href="#DejaVuSans-48"/>
       <use x="63.623047" xlink:href="#DejaVuSans-46"/>
       <use x="95.410156" xlink:href="#DejaVuSans-53"/>
       <use x="159.033203" xlink:href="#DejaVuSans-48"/>
      </g>
     </g>
    </g>
    <g id="ytick_9">
     <g id="line2d_32">
      <g>
       <use style="stroke:#000000;stroke-width:0.8;" x="27" xlink:href="#m3d8230a06b" y="220.251691"/>
      </g>
     </g>
     <g id="text_13">
      <!-- 0.75 -->
      <g transform="translate(5.914062 222.911144)scale(0.07 -0.07)">
       <defs>
        <path d="M 8.203125 72.90625 
L 55.078125 72.90625 
L 55.078125 68.703125 
L 28.609375 0 
L 18.3125 0 
L 43.21875 64.59375 
L 8.203125 64.59375 
z
" id="DejaVuSans-55"/>
       </defs>
       <use xlink:href="#DejaVuSans-48"/>
       <use x="63.623047" xlink:href="#DejaVuSans-46"/>
       <use x="95.410156" xlink:href="#DejaVuSans-55"/>
       <use x="159.033203" xlink:href="#DejaVuSans-53"/>
      </g>
     </g>
    </g>
   </g>
   <g id="line2d_33">
    <path clip-path="url(#pee9db1ca5b)" d="M 27 270.886034 
L 28.430771 271.016998 
L 29.861543 271.12529 
L 31.29239 271.124158 
L 32.723165 271.298798 
L 34.153805 271.436943 
L 35.584503 271.534801 
L 37.015323 271.558149 
L 38.446022 271.555385 
L 39.876807 271.55092 
L 41.307664 271.616546 
L 42.738326 271.665733 
L 44.16904 271.663224 
L 45.599767 271.677788 
L 47.030465 271.696486 
L 48.461222 271.710133 
L 49.891883 271.75226 
L 51.322586 271.783532 
L 52.753359 271.769178 
L 54.184135 271.855417 
L 55.614857 271.88569 
L 57.045668 271.895285 
L 58.476455 271.94163 
L 59.907086 271.974069 
L 61.337875 272.066463 
L 62.768572 272.075296 
L 64.19929 272.127688 
L 65.630046 272.138639 
L 67.060903 272.161923 
L 68.491686 272.16059 
L 69.922437 272.190267 
L 71.353083 272.206094 
L 72.783972 272.193184 
L 74.214623 272.220125 
L 75.645391 272.169527 
L 77.076099 272.204681 
L 78.506799 272.234802 
L 79.937571 272.262607 
L 81.368493 272.272105 
L 82.799149 272.295696 
L 84.22987 272.286164 
L 85.660689 272.308892 
L 87.091508 272.348161 
L 88.522358 272.336193 
L 89.953129 272.3481 
L 91.383854 272.360636 
L 92.81461 272.341083 
L 94.24539 272.370786 
L 95.676174 272.41967 
L 97.107003 272.41762 
L 98.537788 272.389587 
L 99.968716 272.428942 
L 101.399435 272.456959 
L 102.830154 272.469618 
L 104.26092 272.441349 
L 105.691761 272.423114 
L 107.122496 272.463269 
L 108.553217 272.469442 
L 109.983932 272.464809 
L 111.414651 272.456748 
L 112.845458 272.48154 
L 114.276243 272.503648 
L 115.706982 272.505479 
L 117.13784 272.513876 
L 118.568648 272.521607 
L 119.999543 272.565296 
L 121.430424 272.573296 
L 122.861209 272.564249 
L 124.291934 272.584745 
L 125.722665 272.617965 
L 127.153402 272.58755 
L 128.584168 272.590447 
L 130.015011 272.589227 
L 131.445717 272.598202 
L 132.876396 272.601609 
L 134.307263 272.591369 
L 135.738148 272.56724 
L 137.168919 272.570895 
L 138.599673 272.601167 
L 140.030497 272.623551 
L 141.461252 272.614158 
L 142.892057 272.618616 
L 144.322869 272.622471 
L 145.753626 272.611844 
L 147.184443 272.626368 
L 148.615187 272.644495 
L 150.045962 272.639058 
L 151.476775 272.658866 
L 152.907601 272.715239 
L 154.338208 272.694787 
L 155.768972 272.698784 
L 157.199831 272.69943 
L 158.630599 272.708025 
L 160.061319 272.682999 
L 161.492082 272.686738 
L 162.922977 272.694384 
L 164.353665 272.723179 
L 165.78438 272.73861 
L 167.215171 272.778853 
L 168.646017 272.76795 
L 170.07671 272.782178 
L 171.507524 272.797619 
L 172.938399 272.812198 
L 174.369109 272.829968 
L 175.799977 272.837789 
L 177.230766 272.846566 
L 178.661571 272.867493 
L 180.092226 272.887737 
L 181.523118 272.877082 
L 182.953941 272.890041 
L 184.38475 272.871663 
L 185.815419 272.87385 
L 187.246074 272.885676 
L 188.676753 272.895319 
L 190.107522 272.894245 
L 191.538301 272.895652 
L 192.969148 272.894937 
L 194.4 272.891346 
" style="fill:none;stroke:#fc8d62;stroke-linecap:square;stroke-width:2;"/>
   </g>
   <g id="line2d_34">
    <path clip-path="url(#pee9db1ca5b)" d="M 27 270.761439 
L 28.430771 271.005298 
L 29.861543 271.213481 
L 31.29239 271.601266 
L 32.723165 271.750841 
L 34.153805 271.927301 
L 35.584503 272.102626 
L 37.015323 272.29855 
L 38.446022 272.410989 
L 39.876807 272.28018 
L 41.307664 272.117551 
L 42.738326 271.709791 
L 44.16904 271.439808 
L 45.599767 270.493605 
L 47.030465 269.619268 
L 48.461222 269.678388 
L 49.891883 269.679122 
L 51.322586 270.072125 
L 52.753359 268.117406 
L 54.184135 267.161246 
L 55.614857 266.335421 
L 57.045668 265.841145 
L 58.476455 265.350755 
L 59.907086 265.84312 
L 61.337875 264.750883 
L 62.768572 262.690144 
L 64.19929 263.039307 
L 65.630046 261.577725 
L 67.060903 262.444954 
L 68.491686 262.138011 
L 69.922437 261.526451 
L 71.353083 260.488321 
L 72.783972 258.873495 
L 74.214623 256.205068 
L 75.645391 253.514095 
L 77.076099 254.079635 
L 78.506799 253.313765 
L 79.937571 251.614391 
L 81.368493 251.532362 
L 82.799149 249.876143 
L 84.22987 248.428365 
L 85.660689 247.535075 
L 87.091508 246.014105 
L 88.522358 246.510684 
L 89.953129 245.7016 
L 91.383854 248.244224 
L 92.81461 247.322533 
L 94.24539 248.319184 
L 95.676174 248.892423 
L 97.107003 248.441227 
L 98.537788 247.657018 
L 99.968716 247.755079 
L 101.399435 247.930773 
L 102.830154 246.666292 
L 104.26092 246.533226 
L 105.691761 246.515877 
L 107.122496 245.146259 
L 108.553217 242.747929 
L 109.983932 242.162241 
L 111.414651 241.592527 
L 112.845458 243.361915 
L 114.276243 242.893318 
L 115.706982 242.248505 
L 117.13784 241.997038 
L 118.568648 241.926852 
L 119.999543 240.918237 
L 121.430424 241.967978 
L 122.861209 241.007088 
L 124.291934 240.27267 
L 125.722665 240.795925 
L 127.153402 241.023989 
L 128.584168 239.445963 
L 130.015011 239.118566 
L 131.445717 238.715024 
L 132.876396 238.1014 
L 134.307263 237.024581 
L 135.738148 237.210666 
L 137.168919 234.245864 
L 138.599673 233.554438 
L 140.030497 233.36305 
L 141.461252 232.633104 
L 142.892057 232.682705 
L 144.322869 231.232477 
L 145.753626 230.631826 
L 147.184443 231.796609 
L 148.615187 231.233292 
L 150.045962 229.329629 
L 151.476775 228.977832 
L 152.907601 228.029067 
L 154.338208 226.666523 
L 155.768972 222.561695 
L 157.199831 222.313006 
L 158.630599 220.712255 
L 160.061319 222.372852 
L 161.492082 221.957943 
L 162.922977 220.199378 
L 164.353665 220.540012 
L 165.78438 217.601997 
L 167.215171 216.793713 
L 168.646017 218.709347 
L 170.07671 216.75986 
L 171.507524 216.246591 
L 172.938399 216.027449 
L 174.369109 216.440017 
L 175.799977 216.36642 
L 177.230766 216.245759 
L 178.661571 216.656755 
L 180.092226 216.773256 
L 181.523118 217.477405 
L 182.953941 217.087979 
L 184.38475 216.374173 
L 185.815419 216.677292 
L 187.246074 216.481077 
L 188.676753 213.099551 
L 190.107522 211.749516 
L 191.538301 210.927568 
L 192.969148 210.426189 
L 194.4 206.608696 
" style="fill:none;stroke:#fc8d62;stroke-dasharray:1.5,2.475;stroke-dashoffset:0;stroke-opacity:0.7;stroke-width:1.5;"/>
   </g>
   <g id="patch_14">
    <path d="M 27 272.895652 
L 27 206.608696 
" style="fill:none;stroke:#a9a9a9;stroke-linecap:square;stroke-linejoin:miter;stroke-width:2;"/>
   </g>
   <g id="patch_15">
    <path d="M 194.4 272.895652 
L 194.4 206.608696 
" style="fill:none;"/>
   </g>
   <g id="patch_16">
    <path d="M 27 272.895652 
L 194.4 272.895652 
" style="fill:none;stroke:#a9a9a9;stroke-linecap:square;stroke-linejoin:miter;stroke-width:2;"/>
   </g>
   <g id="patch_17">
    <path d="M 27 206.608696 
L 194.4 206.608696 
" style="fill:none;"/>
   </g>
   <g id="text_14">
    <!-- L2 Error -->
    <g transform="translate(92.932734 203.608696)scale(0.09 -0.09)">
     <defs>
      <path d="M 9.8125 72.90625 
L 19.671875 72.90625 
L 19.671875 8.296875 
L 55.171875 8.296875 
L 55.171875 0 
L 9.8125 0 
z
" id="DejaVuSans-76"/>
      <path d="M 9.8125 72.90625 
L 55.90625 72.90625 
L 55.90625 64.59375 
L 19.671875 64.59375 
L 19.671875 43.015625 
L 54.390625 43.015625 
L 54.390625 34.71875 
L 19.671875 34.71875 
L 19.671875 8.296875 
L 56.78125 8.296875 
L 56.78125 0 
L 9.8125 0 
z
" id="DejaVuSans-69"/>
     </defs>
     <use xlink:href="#DejaVuSans-76"/>
     <use x="55.712891" xlink:href="#DejaVuSans-50"/>
     <use x="119.335938" xlink:href="#DejaVuSans-32"/>
     <use x="151.123047" xlink:href="#DejaVuSans-69"/>
     <use x="214.306641" xlink:href="#DejaVuSans-114"/>
     <use x="253.669922" xlink:href="#DejaVuSans-114"/>
     <use x="292.533203" xlink:href="#DejaVuSans-111"/>
     <use x="353.714844" xlink:href="#DejaVuSans-114"/>
    </g>
   </g>
  </g>
  <g id="axes_4">
   <g id="patch_18">
    <path d="M 27 352.44 
L 194.4 352.44 
L 194.4 286.153043 
L 27 286.153043 
z
" style="fill:none;"/>
   </g>
   <g id="matplotlib.axis_7">
    <g id="xtick_16">
     <g id="line2d_35">
      <g>
       <use style="stroke:#000000;stroke-width:0.8;" x="52.7538" xlink:href="#m2d003f04f1" y="352.44"/>
      </g>
     </g>
     <g id="text_15">
      <!-- 10 -->
      <g transform="translate(48.30005 363.258906)scale(0.07 -0.07)">
       <use xlink:href="#DejaVuSans-49"/>
       <use x="63.623047" xlink:href="#DejaVuSans-48"/>
      </g>
     </g>
    </g>
    <g id="xtick_17">
     <g id="line2d_36">
      <g>
       <use style="stroke:#000000;stroke-width:0.8;" x="81.369069" xlink:href="#m2d003f04f1" y="352.44"/>
      </g>
     </g>
     <g id="text_16">
      <!-- 20 -->
      <g transform="translate(76.915319 363.258906)scale(0.07 -0.07)">
       <use xlink:href="#DejaVuSans-50"/>
       <use x="63.623047" xlink:href="#DejaVuSans-48"/>
      </g>
     </g>
    </g>
    <g id="xtick_18">
     <g id="line2d_37">
      <g>
       <use style="stroke:#000000;stroke-width:0.8;" x="109.984337" xlink:href="#m2d003f04f1" y="352.44"/>
      </g>
     </g>
     <g id="text_17">
      <!-- 30 -->
      <g transform="translate(105.530587 363.258906)scale(0.07 -0.07)">
       <defs>
        <path d="M 40.578125 39.3125 
Q 47.65625 37.796875 51.625 33 
Q 55.609375 28.21875 55.609375 21.1875 
Q 55.609375 10.40625 48.1875 4.484375 
Q 40.765625 -1.421875 27.09375 -1.421875 
Q 22.515625 -1.421875 17.65625 -0.515625 
Q 12.796875 0.390625 7.625 2.203125 
L 7.625 11.71875 
Q 11.71875 9.328125 16.59375 8.109375 
Q 21.484375 6.890625 26.8125 6.890625 
Q 36.078125 6.890625 40.9375 10.546875 
Q 45.796875 14.203125 45.796875 21.1875 
Q 45.796875 27.640625 41.28125 31.265625 
Q 36.765625 34.90625 28.71875 34.90625 
L 20.21875 34.90625 
L 20.21875 43.015625 
L 29.109375 43.015625 
Q 36.375 43.015625 40.234375 45.921875 
Q 44.09375 48.828125 44.09375 54.296875 
Q 44.09375 59.90625 40.109375 62.90625 
Q 36.140625 65.921875 28.71875 65.921875 
Q 24.65625 65.921875 20.015625 65.03125 
Q 15.375 64.15625 9.8125 62.3125 
L 9.8125 71.09375 
Q 15.4375 72.65625 20.34375 73.4375 
Q 25.25 74.21875 29.59375 74.21875 
Q 40.828125 74.21875 47.359375 69.109375 
Q 53.90625 64.015625 53.90625 55.328125 
Q 53.90625 49.265625 50.4375 45.09375 
Q 46.96875 40.921875 40.578125 39.3125 
z
" id="DejaVuSans-51"/>
       </defs>
       <use xlink:href="#DejaVuSans-51"/>
       <use x="63.623047" xlink:href="#DejaVuSans-48"/>
      </g>
     </g>
    </g>
    <g id="xtick_19">
     <g id="line2d_38">
      <g>
       <use style="stroke:#000000;stroke-width:0.8;" x="138.599606" xlink:href="#m2d003f04f1" y="352.44"/>
      </g>
     </g>
     <g id="text_18">
      <!-- 40 -->
      <g transform="translate(134.145856 363.258906)scale(0.07 -0.07)">
       <use xlink:href="#DejaVuSans-52"/>
       <use x="63.623047" xlink:href="#DejaVuSans-48"/>
      </g>
     </g>
    </g>
    <g id="xtick_20">
     <g id="line2d_39">
      <g>
       <use style="stroke:#000000;stroke-width:0.8;" x="167.214875" xlink:href="#m2d003f04f1" y="352.44"/>
      </g>
     </g>
     <g id="text_19">
      <!-- 50 -->
      <g transform="translate(162.761125 363.258906)scale(0.07 -0.07)">
       <use xlink:href="#DejaVuSans-53"/>
       <use x="63.623047" xlink:href="#DejaVuSans-48"/>
      </g>
     </g>
    </g>
    <g id="text_20">
     <!-- Exploration time -->
     <g transform="translate(81.773594 372.033594)scale(0.07 -0.07)">
      <defs>
       <path d="M 54.890625 54.6875 
L 35.109375 28.078125 
L 55.90625 0 
L 45.3125 0 
L 29.390625 21.484375 
L 13.484375 0 
L 2.875 0 
L 24.125 28.609375 
L 4.6875 54.6875 
L 15.28125 54.6875 
L 29.78125 35.203125 
L 44.28125 54.6875 
z
" id="DejaVuSans-120"/>
       <path d="M 18.109375 8.203125 
L 18.109375 -20.796875 
L 9.078125 -20.796875 
L 9.078125 54.6875 
L 18.109375 54.6875 
L 18.109375 46.390625 
Q 20.953125 51.265625 25.265625 53.625 
Q 29.59375 56 35.59375 56 
Q 45.5625 56 51.78125 48.09375 
Q 58.015625 40.1875 58.015625 27.296875 
Q 58.015625 14.40625 51.78125 6.484375 
Q 45.5625 -1.421875 35.59375 -1.421875 
Q 29.59375 -1.421875 25.265625 0.953125 
Q 20.953125 3.328125 18.109375 8.203125 
z
M 48.6875 27.296875 
Q 48.6875 37.203125 44.609375 42.84375 
Q 40.53125 48.484375 33.40625 48.484375 
Q 26.265625 48.484375 22.1875 42.84375 
Q 18.109375 37.203125 18.109375 27.296875 
Q 18.109375 17.390625 22.1875 11.75 
Q 26.265625 6.109375 33.40625 6.109375 
Q 40.53125 6.109375 44.609375 11.75 
Q 48.6875 17.390625 48.6875 27.296875 
z
" id="DejaVuSans-112"/>
       <path d="M 9.421875 75.984375 
L 18.40625 75.984375 
L 18.40625 0 
L 9.421875 0 
z
" id="DejaVuSans-108"/>
       <path d="M 18.3125 70.21875 
L 18.3125 54.6875 
L 36.8125 54.6875 
L 36.8125 47.703125 
L 18.3125 47.703125 
L 18.3125 18.015625 
Q 18.3125 11.328125 20.140625 9.421875 
Q 21.96875 7.515625 27.59375 7.515625 
L 36.8125 7.515625 
L 36.8125 0 
L 27.59375 0 
Q 17.1875 0 13.234375 3.875 
Q 9.28125 7.765625 9.28125 18.015625 
L 9.28125 47.703125 
L 2.6875 47.703125 
L 2.6875 54.6875 
L 9.28125 54.6875 
L 9.28125 70.21875 
z
" id="DejaVuSans-116"/>
       <path d="M 52 44.1875 
Q 55.375 50.25 60.0625 53.125 
Q 64.75 56 71.09375 56 
Q 79.640625 56 84.28125 50.015625 
Q 88.921875 44.046875 88.921875 33.015625 
L 88.921875 0 
L 79.890625 0 
L 79.890625 32.71875 
Q 79.890625 40.578125 77.09375 44.375 
Q 74.3125 48.1875 68.609375 48.1875 
Q 61.625 48.1875 57.5625 43.546875 
Q 53.515625 38.921875 53.515625 30.90625 
L 53.515625 0 
L 44.484375 0 
L 44.484375 32.71875 
Q 44.484375 40.625 41.703125 44.40625 
Q 38.921875 48.1875 33.109375 48.1875 
Q 26.21875 48.1875 22.15625 43.53125 
Q 18.109375 38.875 18.109375 30.90625 
L 18.109375 0 
L 9.078125 0 
L 9.078125 54.6875 
L 18.109375 54.6875 
L 18.109375 46.1875 
Q 21.1875 51.21875 25.484375 53.609375 
Q 29.78125 56 35.6875 56 
Q 41.65625 56 45.828125 52.96875 
Q 50 49.953125 52 44.1875 
z
" id="DejaVuSans-109"/>
      </defs>
      <use xlink:href="#DejaVuSans-69"/>
      <use x="63.183594" xlink:href="#DejaVuSans-120"/>
      <use x="122.363281" xlink:href="#DejaVuSans-112"/>
      <use x="185.839844" xlink:href="#DejaVuSans-108"/>
      <use x="213.623047" xlink:href="#DejaVuSans-111"/>
      <use x="274.804688" xlink:href="#DejaVuSans-114"/>
      <use x="315.917969" xlink:href="#DejaVuSans-97"/>
      <use x="377.197266" xlink:href="#DejaVuSans-116"/>
      <use x="416.40625" xlink:href="#DejaVuSans-105"/>
      <use x="444.189453" xlink:href="#DejaVuSans-111"/>
      <use x="505.371094" xlink:href="#DejaVuSans-110"/>
      <use x="568.75" xlink:href="#DejaVuSans-32"/>
      <use x="600.537109" xlink:href="#DejaVuSans-116"/>
      <use x="639.746094" xlink:href="#DejaVuSans-105"/>
      <use x="667.529297" xlink:href="#DejaVuSans-109"/>
      <use x="764.941406" xlink:href="#DejaVuSans-101"/>
     </g>
    </g>
   </g>
   <g id="matplotlib.axis_8">
    <g id="ytick_10">
     <g id="line2d_40">
      <g>
       <use style="stroke:#000000;stroke-width:0.8;" x="27" xlink:href="#m3d8230a06b" y="352.44"/>
      </g>
     </g>
     <g id="text_21">
      <!-- 0.00 -->
      <g transform="translate(5.914062 355.099453)scale(0.07 -0.07)">
       <use xlink:href="#DejaVuSans-48"/>
       <use x="63.623047" xlink:href="#DejaVuSans-46"/>
       <use x="95.410156" xlink:href="#DejaVuSans-48"/>
       <use x="159.033203" xlink:href="#DejaVuSans-48"/>
      </g>
     </g>
    </g>
    <g id="ytick_11">
     <g id="line2d_41">
      <g>
       <use style="stroke:#000000;stroke-width:0.8;" x="27" xlink:href="#m3d8230a06b" y="331.784518"/>
      </g>
     </g>
     <g id="text_22">
      <!-- 0.25 -->
      <g transform="translate(5.914062 334.443971)scale(0.07 -0.07)">
       <use xlink:href="#DejaVuSans-48"/>
       <use x="63.623047" xlink:href="#DejaVuSans-46"/>
       <use x="95.410156" xlink:href="#DejaVuSans-50"/>
       <use x="159.033203" xlink:href="#DejaVuSans-53"/>
      </g>
     </g>
    </g>
    <g id="ytick_12">
     <g id="line2d_42">
      <g>
       <use style="stroke:#000000;stroke-width:0.8;" x="27" xlink:href="#m3d8230a06b" y="311.129036"/>
      </g>
     </g>
     <g id="text_23">
      <!-- 0.50 -->
      <g transform="translate(5.914062 313.78849)scale(0.07 -0.07)">
       <use xlink:href="#DejaVuSans-48"/>
       <use x="63.623047" xlink:href="#DejaVuSans-46"/>
       <use x="95.410156" xlink:href="#DejaVuSans-53"/>
       <use x="159.033203" xlink:href="#DejaVuSans-48"/>
      </g>
     </g>
    </g>
    <g id="ytick_13">
     <g id="line2d_43">
      <g>
       <use style="stroke:#000000;stroke-width:0.8;" x="27" xlink:href="#m3d8230a06b" y="290.473555"/>
      </g>
     </g>
     <g id="text_24">
      <!-- 0.75 -->
      <g transform="translate(5.914062 293.133008)scale(0.07 -0.07)">
       <use xlink:href="#DejaVuSans-48"/>
       <use x="63.623047" xlink:href="#DejaVuSans-46"/>
       <use x="95.410156" xlink:href="#DejaVuSans-55"/>
       <use x="159.033203" xlink:href="#DejaVuSans-53"/>
      </g>
     </g>
    </g>
   </g>
   <g id="line2d_44">
    <path clip-path="url(#p701f237b80)" d="M 27 307.412525 
L 28.430771 303.257598 
L 29.861543 299.908646 
L 31.29239 299.299339 
L 32.723165 297.239842 
L 34.153805 295.060384 
L 35.584503 293.88728 
L 37.015323 292.969808 
L 38.446022 292.281548 
L 39.876807 291.561928 
L 41.307664 291.117896 
L 42.738326 290.429594 
L 44.16904 289.910944 
L 45.599767 289.472002 
L 47.030465 289.436502 
L 48.461222 289.344497 
L 49.891883 288.998971 
L 51.322586 288.991376 
L 52.753359 288.721522 
L 54.184135 288.429451 
L 55.614857 288.408641 
L 57.045668 288.256988 
L 58.476455 288.281185 
L 59.907086 288.127846 
L 61.337875 288.036739 
L 62.768572 288.008454 
L 64.19929 287.973321 
L 65.630046 288.009841 
L 67.060903 288.010415 
L 68.491686 287.938988 
L 69.922437 287.897179 
L 71.353083 287.831627 
L 72.783972 287.854626 
L 74.214623 287.746801 
L 75.645391 287.607334 
L 77.076099 287.554894 
L 78.506799 287.428465 
L 79.937571 287.332143 
L 81.368493 287.319301 
L 82.799149 287.324845 
L 84.22987 287.27099 
L 85.660689 287.270942 
L 87.091508 287.222201 
L 88.522358 287.170608 
L 89.953129 287.033502 
L 91.383854 287.038711 
L 92.81461 287.016674 
L 94.24539 286.909179 
L 95.676174 286.883648 
L 97.107003 286.914628 
L 98.537788 286.9342 
L 99.968716 286.87828 
L 101.399435 286.874429 
L 102.830154 286.889817 
L 104.26092 286.8668 
L 105.691761 286.804793 
L 107.122496 286.74188 
L 108.553217 286.724517 
L 109.983932 286.743008 
L 111.414651 286.752508 
L 112.845458 286.690083 
L 114.276243 286.655662 
L 115.706982 286.670252 
L 117.13784 286.640504 
L 118.568648 286.620109 
L 119.999543 286.582523 
L 121.430424 286.535065 
L 122.861209 286.49399 
L 124.291934 286.556804 
L 125.722665 286.52366 
L 127.153402 286.503489 
L 128.584168 286.486409 
L 130.015011 286.487789 
L 131.445717 286.443293 
L 132.876396 286.482115 
L 134.307263 286.482734 
L 135.738148 286.490647 
L 137.168919 286.475337 
L 138.599673 286.458103 
L 140.030497 286.442567 
L 141.461252 286.427068 
L 142.892057 286.439935 
L 144.322869 286.387452 
L 145.753626 286.392903 
L 147.184443 286.367369 
L 148.615187 286.348818 
L 150.045962 286.356886 
L 151.476775 286.324492 
L 152.907601 286.291726 
L 154.338208 286.330583 
L 155.768972 286.336099 
L 157.199831 286.332554 
L 158.630599 286.288114 
L 160.061319 286.257923 
L 161.492082 286.242769 
L 162.922977 286.210738 
L 164.353665 286.189367 
L 165.78438 286.240088 
L 167.215171 286.228662 
L 168.646017 286.215972 
L 170.07671 286.242066 
L 171.507524 286.232502 
L 172.938399 286.242587 
L 174.369109 286.243829 
L 175.799977 286.239593 
L 177.230766 286.200756 
L 178.661571 286.160882 
L 180.092226 286.153043 
L 181.523118 286.206196 
L 182.953941 286.219815 
L 184.38475 286.186903 
L 185.815419 286.20195 
L 187.246074 286.176009 
L 188.676753 286.175123 
L 190.107522 286.164505 
L 191.538301 286.162617 
L 192.969148 286.171056 
L 194.4 286.202819 
" style="fill:none;stroke:#fc8d62;stroke-linecap:square;stroke-width:2;"/>
   </g>
   <g id="line2d_45">
    <path clip-path="url(#p701f237b80)" d="M 27 330.576857 
L 28.430771 324.875326 
L 29.861543 320.797421 
L 31.29239 317.064566 
L 32.723165 314.739688 
L 34.153805 313.196887 
L 35.584503 311.276182 
L 37.015323 309.434029 
L 38.446022 308.078221 
L 39.876807 307.683362 
L 41.307664 306.723554 
L 42.738326 305.47596 
L 44.16904 304.891561 
L 45.599767 304.127283 
L 47.030465 303.59776 
L 48.461222 302.999199 
L 49.891883 302.534583 
L 51.322586 302.085881 
L 52.753359 301.645061 
L 54.184135 300.854101 
L 55.614857 300.182485 
L 57.045668 300.18794 
L 58.476455 299.869633 
L 59.907086 299.525204 
L 61.337875 299.6012 
L 62.768572 299.414367 
L 64.19929 299.173496 
L 65.630046 299.335899 
L 67.060903 299.575436 
L 68.491686 299.534549 
L 69.922437 299.115035 
L 71.353083 299.061737 
L 72.783972 298.952481 
L 74.214623 298.94228 
L 75.645391 298.684038 
L 77.076099 298.567769 
L 78.506799 298.454191 
L 79.937571 298.3505 
L 81.368493 298.133321 
L 82.799149 297.960319 
L 84.22987 297.785904 
L 85.660689 297.702238 
L 87.091508 297.723601 
L 88.522358 297.592886 
L 89.953129 297.499621 
L 91.383854 297.255752 
L 92.81461 297.280888 
L 94.24539 297.142316 
L 95.676174 297.216551 
L 97.107003 297.212283 
L 98.537788 297.036192 
L 99.968716 297.041987 
L 101.399435 296.93268 
L 102.830154 296.823842 
L 104.26092 296.641531 
L 105.691761 296.504507 
L 107.122496 296.562289 
L 108.553217 296.512069 
L 109.983932 296.545555 
L 111.414651 296.41699 
L 112.845458 296.405102 
L 114.276243 296.39103 
L 115.706982 296.382777 
L 117.13784 296.439413 
L 118.568648 296.210745 
L 119.999543 296.217135 
L 121.430424 296.183023 
L 122.861209 296.058572 
L 124.291934 296.055404 
L 125.722665 296.107322 
L 127.153402 296.077309 
L 128.584168 296.055834 
L 130.015011 296.078374 
L 131.445717 296.049966 
L 132.876396 295.989722 
L 134.307263 296.021383 
L 135.738148 295.990838 
L 137.168919 296.048561 
L 138.599673 296.018388 
L 140.030497 295.998003 
L 141.461252 296.016431 
L 142.892057 296.033079 
L 144.322869 296.041544 
L 145.753626 295.924367 
L 147.184443 295.886753 
L 148.615187 295.904187 
L 150.045962 295.78953 
L 151.476775 295.777257 
L 152.907601 295.723954 
L 154.338208 295.727406 
L 155.768972 295.738412 
L 157.199831 295.753267 
L 158.630599 295.731007 
L 160.061319 295.66462 
L 161.492082 295.672498 
L 162.922977 295.685785 
L 164.353665 295.615236 
L 165.78438 295.62227 
L 167.215171 295.655788 
L 168.646017 295.652911 
L 170.07671 295.556797 
L 171.507524 295.470264 
L 172.938399 295.473267 
L 174.369109 295.468758 
L 175.799977 295.412837 
L 177.230766 295.369954 
L 178.661571 295.375282 
L 180.092226 295.349708 
L 181.523118 295.322108 
L 182.953941 295.306283 
L 184.38475 295.283067 
L 185.815419 295.224974 
L 187.246074 295.21463 
L 188.676753 295.119164 
L 190.107522 295.129694 
L 191.538301 295.132317 
L 192.969148 295.097612 
L 194.4 295.069936 
" style="fill:none;stroke:#fc8d62;stroke-dasharray:1.5,2.475;stroke-dashoffset:0;stroke-opacity:0.7;stroke-width:1.5;"/>
   </g>
   <g id="patch_19">
    <path d="M 27 352.44 
L 27 286.153043 
" style="fill:none;stroke:#a9a9a9;stroke-linecap:square;stroke-linejoin:miter;stroke-width:2;"/>
   </g>
   <g id="patch_20">
    <path d="M 194.4 352.44 
L 194.4 286.153043 
" style="fill:none;"/>
   </g>
   <g id="patch_21">
    <path d="M 27 352.44 
L 194.4 352.44 
" style="fill:none;stroke:#a9a9a9;stroke-linecap:square;stroke-linejoin:miter;stroke-width:2;"/>
   </g>
   <g id="patch_22">
    <path d="M 27 286.153043 
L 194.4 286.153043 
" style="fill:none;"/>
   </g>
   <g id="text_25">
    <!-- R2 -->
    <g transform="translate(104.710078 283.153043)scale(0.09 -0.09)">
     <use xlink:href="#DejaVuSans-82"/>
     <use x="69.482422" xlink:href="#DejaVuSans-50"/>
    </g>
   </g>
  </g>
 </g>
 <defs>
  <clipPath id="pc70bb077e6">
   <rect height="66.286957" width="167.4" x="27" y="47.52"/>
  </clipPath>
  <clipPath id="pf962dbd8d2">
   <rect height="66.286957" width="167.4" x="27" y="127.064348"/>
  </clipPath>
  <clipPath id="pee9db1ca5b">
   <rect height="66.286957" width="167.4" x="27" y="206.608696"/>
  </clipPath>
  <clipPath id="p701f237b80">
   <rect height="66.286957" width="167.4" x="27" y="286.153043"/>
  </clipPath>
 </defs>
</svg>
