<?xml version="1.0" encoding="utf-8" standalone="no"?>
<!DOCTYPE svg PUBLIC "-//W3C//DTD SVG 1.1//EN"
  "http://www.w3.org/Graphics/SVG/1.1/DTD/svg11.dtd">
<!-- Created with matplotlib (https://matplotlib.org/) -->
<svg height="144pt" version="1.1" viewBox="0 0 72 144" width="72pt" xmlns="http://www.w3.org/2000/svg" xmlns:xlink="http://www.w3.org/1999/xlink">
 <metadata>
  <rdf:RDF xmlns:cc="http://creativecommons.org/ns#" xmlns:dc="http://purl.org/dc/elements/1.1/" xmlns:rdf="http://www.w3.org/1999/02/22-rdf-syntax-ns#">
   <cc:Work>
    <dc:type rdf:resource="http://purl.org/dc/dcmitype/StillImage"/>
    <dc:date>2021-10-11T18:34:44.522041</dc:date>
    <dc:format>image/svg+xml</dc:format>
    <dc:creator>
     <cc:Agent>
      <dc:title>Matplotlib v3.3.2, https://matplotlib.org/</dc:title>
     </cc:Agent>
    </dc:creator>
   </cc:Work>
  </rdf:RDF>
 </metadata>
 <defs>
  <style type="text/css">*{stroke-linecap:butt;stroke-linejoin:round;}</style>
 </defs>
 <g id="figure_1">
  <g id="patch_1">
   <path d="M 0 144 
L 72 144 
L 72 0 
L 0 0 
z
" style="fill:none;"/>
  </g>
  <g id="axes_1">
   <g id="patch_2">
    <path d="M 9 67.68 
L 64.8 67.68 
L 64.8 17.28 
L 9 17.28 
z
" style="fill:none;"/>
   </g>
   <g id="matplotlib.axis_1">
    <g id="xtick_1">
     <g id="line2d_1">
      <defs>
       <path d="M 0 0 
L 0 3.5 
" id="m1bd6d3e857" style="stroke:#a9a9a9;stroke-width:2;"/>
      </defs>
      <g>
       <use style="fill:#a9a9a9;stroke:#a9a9a9;stroke-width:2;" x="9" xlink:href="#m1bd6d3e857" y="67.68"/>
      </g>
     </g>
    </g>
    <g id="xtick_2">
     <g id="line2d_2">
      <g>
       <use style="fill:#a9a9a9;stroke:#a9a9a9;stroke-width:2;" x="36.9" xlink:href="#m1bd6d3e857" y="67.68"/>
      </g>
     </g>
    </g>
    <g id="xtick_3">
     <g id="line2d_3">
      <g>
       <use style="fill:#a9a9a9;stroke:#a9a9a9;stroke-width:2;" x="64.8" xlink:href="#m1bd6d3e857" y="67.68"/>
      </g>
     </g>
    </g>
   </g>
   <g id="matplotlib.axis_2">
    <g id="ytick_1">
     <g id="line2d_4">
      <defs>
       <path d="M 0 0 
L -3.5 0 
" id="mde51268fe9" style="stroke:#a9a9a9;stroke-width:2;"/>
      </defs>
      <g>
       <use style="fill:#a9a9a9;stroke:#a9a9a9;stroke-width:2;" x="9" xlink:href="#mde51268fe9" y="67.68"/>
      </g>
     </g>
    </g>
    <g id="ytick_2">
     <g id="line2d_5">
      <g>
       <use style="fill:#a9a9a9;stroke:#a9a9a9;stroke-width:2;" x="9" xlink:href="#mde51268fe9" y="62.284808"/>
      </g>
     </g>
    </g>
    <g id="ytick_3">
     <g id="line2d_6">
      <g>
       <use style="fill:#a9a9a9;stroke:#a9a9a9;stroke-width:2;" x="9" xlink:href="#mde51268fe9" y="56.889616"/>
      </g>
     </g>
    </g>
   </g>
   <g id="line2d_7">
    <path clip-path="url(#p5ad052cc64)" d="M 10.86031 57.891515 
L 11.79031 55.419981 
L 12.72031 54.094751 
L 13.65031 52.944279 
L 14.58031 51.911982 
L 15.51031 50.115841 
L 16.44031 48.945315 
L 17.37031 47.645028 
L 18.30031 45.863217 
L 19.23031 44.720245 
L 20.16031 44.097646 
L 21.09031 42.453703 
L 22.02031 41.557773 
L 22.95031 41.291567 
L 23.88031 40.744495 
L 24.81031 40.24354 
L 25.74031 39.308941 
L 26.67031 39.135728 
L 27.60031 38.34957 
L 28.53031 38.119958 
L 29.46031 37.193051 
L 30.39031 36.351803 
L 31.32031 35.236835 
L 32.25031 34.273169 
L 33.18031 33.162274 
L 34.11031 32.609535 
L 35.04031 32.315647 
L 35.97031 31.610531 
L 36.90031 30.841644 
L 37.83031 30.636554 
L 38.76031 30.048535 
L 39.69031 30.092395 
L 40.62031 28.960227 
L 41.55031 28.667597 
L 42.48031 28.055272 
L 43.41031 27.368763 
L 44.34031 27.681703 
L 45.27031 26.904204 
L 46.20031 25.974864 
L 47.13031 25.294241 
L 48.06031 25.085041 
L 48.99031 25.249506 
L 49.92031 25.549132 
L 50.85031 25.174713 
L 51.78031 24.648824 
L 52.71031 24.654243 
L 53.64031 23.56847 
L 54.57031 22.91754 
L 55.50031 21.968939 
L 56.43031 21.51649 
L 57.36031 21.043262 
L 58.29031 20.366994 
L 59.22031 19.801701 
L 60.15031 19.256979 
L 61.08031 18.553192 
L 62.01031 18.142127 
L 62.94031 17.54976 
L 63.87031 17.575689 
" style="fill:none;stroke:#fc8d62;stroke-linecap:square;stroke-width:2;"/>
   </g>
   <g id="line2d_8">
    <path clip-path="url(#p5ad052cc64)" d="M 10.86031 58.374454 
L 11.79031 56.311932 
L 12.72031 55.212413 
L 13.65031 53.877468 
L 14.58031 53.25898 
L 15.51031 52.231075 
L 16.44031 50.659967 
L 17.37031 50.030206 
L 18.30031 48.92339 
L 19.23031 48.392894 
L 20.16031 47.503165 
L 21.09031 46.223123 
L 22.02031 45.200692 
L 22.95031 44.439588 
L 23.88031 43.489285 
L 24.81031 42.766856 
L 25.74031 42.019581 
L 26.67031 41.340763 
L 27.60031 39.628782 
L 28.53031 39.308494 
L 29.46031 38.702381 
L 30.39031 38.193527 
L 31.32031 37.47424 
L 32.25031 36.857915 
L 33.18031 35.85955 
L 34.11031 35.486678 
L 35.04031 34.953543 
L 35.97031 34.712795 
L 36.90031 34.083952 
L 37.83031 33.504993 
L 38.76031 33.180657 
L 39.69031 32.322935 
L 40.62031 31.988707 
L 41.55031 31.471498 
L 42.48031 31.101194 
L 43.41031 30.863411 
L 44.34031 30.278748 
L 45.27031 29.606903 
L 46.20031 28.684345 
L 47.13031 27.928837 
L 48.06031 27.557053 
L 48.99031 26.857233 
L 49.92031 25.605517 
L 50.85031 24.830647 
L 51.78031 24.22575 
L 52.71031 23.860881 
L 53.64031 23.47981 
L 54.57031 22.591194 
L 55.50031 22.208857 
L 56.43031 21.529625 
L 57.36031 21.612259 
L 58.29031 21.289443 
L 59.22031 20.599737 
L 60.15031 20.303638 
L 61.08031 20.0579 
L 62.01031 19.49148 
L 62.94031 19.678921 
L 63.87031 19.118239 
" style="fill:none;stroke:#fc8d62;stroke-dasharray:1.5,1.5;stroke-dashoffset:0;stroke-opacity:0.7;stroke-width:1.5;"/>
   </g>
   <g id="patch_3">
    <path d="M 9 67.68 
L 9 17.28 
" style="fill:none;stroke:#a9a9a9;stroke-linecap:square;stroke-linejoin:miter;stroke-width:2;"/>
   </g>
   <g id="patch_4">
    <path d="M 64.8 67.68 
L 64.8 17.28 
" style="fill:none;"/>
   </g>
   <g id="patch_5">
    <path d="M 9 67.68 
L 64.8 67.68 
" style="fill:none;stroke:#a9a9a9;stroke-linecap:square;stroke-linejoin:miter;stroke-width:2;"/>
   </g>
   <g id="patch_6">
    <path d="M 9 17.28 
L 64.8 17.28 
" style="fill:none;"/>
   </g>
  </g>
  <g id="axes_2">
   <g id="patch_7">
    <path d="M 9 128.16 
L 64.8 128.16 
L 64.8 77.76 
L 9 77.76 
z
" style="fill:none;"/>
   </g>
   <g id="matplotlib.axis_3">
    <g id="xtick_4">
     <g id="line2d_9">
      <g>
       <use style="fill:#a9a9a9;stroke:#a9a9a9;stroke-width:2;" x="9" xlink:href="#m1bd6d3e857" y="128.16"/>
      </g>
     </g>
    </g>
    <g id="xtick_5">
     <g id="line2d_10">
      <g>
       <use style="fill:#a9a9a9;stroke:#a9a9a9;stroke-width:2;" x="36.9" xlink:href="#m1bd6d3e857" y="128.16"/>
      </g>
     </g>
    </g>
    <g id="xtick_6">
     <g id="line2d_11">
      <g>
       <use style="fill:#a9a9a9;stroke:#a9a9a9;stroke-width:2;" x="64.8" xlink:href="#m1bd6d3e857" y="128.16"/>
      </g>
     </g>
    </g>
   </g>
   <g id="matplotlib.axis_4">
    <g id="ytick_4">
     <g id="line2d_12">
      <g>
       <use style="fill:#a9a9a9;stroke:#a9a9a9;stroke-width:2;" x="9" xlink:href="#mde51268fe9" y="128.16"/>
      </g>
     </g>
    </g>
    <g id="ytick_5">
     <g id="line2d_13">
      <g>
       <use style="fill:#a9a9a9;stroke:#a9a9a9;stroke-width:2;" x="9" xlink:href="#mde51268fe9" y="102.96"/>
      </g>
     </g>
    </g>
    <g id="ytick_6">
     <g id="line2d_14">
      <g>
       <use style="fill:#a9a9a9;stroke:#a9a9a9;stroke-width:2;" x="9" xlink:href="#mde51268fe9" y="77.76"/>
      </g>
     </g>
    </g>
   </g>
   <g id="line2d_15">
    <path clip-path="url(#p75f4a011a7)" d="M 10.86031 85.195476 
L 11.79031 83.797612 
L 12.72031 83.132087 
L 13.65031 82.710444 
L 14.58031 82.381444 
L 15.51031 82.146548 
L 16.44031 81.953868 
L 17.37031 81.809998 
L 18.30031 81.662121 
L 19.23031 81.59242 
L 20.16031 81.539768 
L 21.09031 81.493756 
L 22.02031 81.461632 
L 22.95031 81.477744 
L 23.88031 81.447234 
L 24.81031 81.461957 
L 25.74031 81.426252 
L 26.67031 81.416452 
L 27.60031 81.404572 
L 28.53031 81.392896 
L 29.46031 81.360217 
L 30.39031 81.318113 
L 31.32031 81.292839 
L 32.25031 81.27878 
L 33.18031 81.261498 
L 34.11031 81.257446 
L 35.04031 81.23318 
L 35.97031 81.221653 
L 36.90031 81.204455 
L 37.83031 81.209023 
L 38.76031 81.196778 
L 39.69031 81.191016 
L 40.62031 81.163831 
L 41.55031 81.165517 
L 42.48031 81.156843 
L 43.41031 81.156782 
L 44.34031 81.147118 
L 45.27031 81.139925 
L 46.20031 81.136223 
L 47.13031 81.125768 
L 48.06031 81.125321 
L 48.99031 81.142643 
L 49.92031 81.149568 
L 50.85031 81.151572 
L 51.78031 81.144581 
L 52.71031 81.143561 
L 53.64031 81.1307 
L 54.57031 81.1224 
L 55.50031 81.115166 
L 56.43031 81.108628 
L 57.36031 81.105785 
L 58.29031 81.093596 
L 59.22031 81.09311 
L 60.15031 81.076246 
L 61.08031 81.065568 
L 62.01031 81.060727 
L 62.94031 81.060623 
L 63.87031 81.060408 
" style="fill:none;stroke:#fc8d62;stroke-linecap:square;stroke-width:2;"/>
   </g>
   <g id="line2d_16">
    <path clip-path="url(#p75f4a011a7)" d="M 10.86031 95.550791 
L 11.79031 93.96636 
L 12.72031 93.318511 
L 13.65031 92.929182 
L 14.58031 92.820736 
L 15.51031 92.65159 
L 16.44031 92.455515 
L 17.37031 92.274176 
L 18.30031 92.237704 
L 19.23031 92.271236 
L 20.16031 92.126637 
L 21.09031 92.086869 
L 22.02031 92.040789 
L 22.95031 92.055428 
L 23.88031 92.029493 
L 24.81031 91.979628 
L 25.74031 91.992205 
L 26.67031 91.944125 
L 27.60031 91.863351 
L 28.53031 91.824963 
L 29.46031 91.770978 
L 30.39031 91.720561 
L 31.32031 91.664577 
L 32.25031 91.652829 
L 33.18031 91.632194 
L 34.11031 91.649826 
L 35.04031 91.654752 
L 35.97031 91.612622 
L 36.90031 91.591563 
L 37.83031 91.5623 
L 38.76031 91.549665 
L 39.69031 91.544112 
L 40.62031 91.547883 
L 41.55031 91.53808 
L 42.48031 91.532185 
L 43.41031 91.542716 
L 44.34031 91.539571 
L 45.27031 91.530061 
L 46.20031 91.545995 
L 47.13031 91.529533 
L 48.06031 91.492367 
L 48.99031 91.500279 
L 49.92031 91.471749 
L 50.85031 91.461168 
L 51.78031 91.46726 
L 52.71031 91.431641 
L 53.64031 91.454268 
L 54.57031 91.439733 
L 55.50031 91.443359 
L 56.43031 91.473241 
L 57.36031 91.449563 
L 58.29031 91.454736 
L 59.22031 91.4596 
L 60.15031 91.449537 
L 61.08031 91.436862 
L 62.01031 91.445069 
L 62.94031 91.42744 
L 63.87031 91.415498 
" style="fill:none;stroke:#fc8d62;stroke-dasharray:1.5,1.5;stroke-dashoffset:0;stroke-opacity:0.7;stroke-width:1.5;"/>
   </g>
   <g id="patch_8">
    <path d="M 9 128.16 
L 9 77.76 
" style="fill:none;stroke:#a9a9a9;stroke-linecap:square;stroke-linejoin:miter;stroke-width:2;"/>
   </g>
   <g id="patch_9">
    <path d="M 64.8 128.16 
L 64.8 77.76 
" style="fill:none;"/>
   </g>
   <g id="patch_10">
    <path d="M 9 128.16 
L 64.8 128.16 
" style="fill:none;stroke:#a9a9a9;stroke-linecap:square;stroke-linejoin:miter;stroke-width:2;"/>
   </g>
   <g id="patch_11">
    <path d="M 9 77.76 
L 64.8 77.76 
" style="fill:none;"/>
   </g>
  </g>
 </g>
 <defs>
  <clipPath id="p5ad052cc64">
   <rect height="50.4" width="55.8" x="9" y="17.28"/>
  </clipPath>
  <clipPath id="p75f4a011a7">
   <rect height="50.4" width="55.8" x="9" y="77.76"/>
  </clipPath>
 </defs>
</svg>
