<?xml version="1.0" encoding="utf-8" standalone="no"?>
<!DOCTYPE svg PUBLIC "-//W3C//DTD SVG 1.1//EN"
  "http://www.w3.org/Graphics/SVG/1.1/DTD/svg11.dtd">
<!-- Created with matplotlib (https://matplotlib.org/) -->
<svg height="144pt" version="1.1" viewBox="0 0 72 144" width="72pt" xmlns="http://www.w3.org/2000/svg" xmlns:xlink="http://www.w3.org/1999/xlink">
 <metadata>
  <rdf:RDF xmlns:cc="http://creativecommons.org/ns#" xmlns:dc="http://purl.org/dc/elements/1.1/" xmlns:rdf="http://www.w3.org/1999/02/22-rdf-syntax-ns#">
   <cc:Work>
    <dc:type rdf:resource="http://purl.org/dc/dcmitype/StillImage"/>
    <dc:date>2021-10-11T18:59:22.269520</dc:date>
    <dc:format>image/svg+xml</dc:format>
    <dc:creator>
     <cc:Agent>
      <dc:title>Matplotlib v3.3.2, https://matplotlib.org/</dc:title>
     </cc:Agent>
    </dc:creator>
   </cc:Work>
  </rdf:RDF>
 </metadata>
 <defs>
  <style type="text/css">*{stroke-linecap:butt;stroke-linejoin:round;}</style>
 </defs>
 <g id="figure_1">
  <g id="patch_1">
   <path d="M 0 144 
L 72 144 
L 72 0 
L 0 0 
z
" style="fill:none;"/>
  </g>
  <g id="axes_1">
   <g id="patch_2">
    <path d="M 9 67.68 
L 64.8 67.68 
L 64.8 17.28 
L 9 17.28 
z
" style="fill:none;"/>
   </g>
   <g id="matplotlib.axis_1">
    <g id="xtick_1">
     <g id="line2d_1">
      <defs>
       <path d="M 0 0 
L 0 3.5 
" id="m5a867c5345" style="stroke:#a9a9a9;stroke-width:2;"/>
      </defs>
      <g>
       <use style="fill:#a9a9a9;stroke:#a9a9a9;stroke-width:2;" x="9" xlink:href="#m5a867c5345" y="67.68"/>
      </g>
     </g>
    </g>
    <g id="xtick_2">
     <g id="line2d_2">
      <g>
       <use style="fill:#a9a9a9;stroke:#a9a9a9;stroke-width:2;" x="36.9" xlink:href="#m5a867c5345" y="67.68"/>
      </g>
     </g>
    </g>
    <g id="xtick_3">
     <g id="line2d_3">
      <g>
       <use style="fill:#a9a9a9;stroke:#a9a9a9;stroke-width:2;" x="64.8" xlink:href="#m5a867c5345" y="67.68"/>
      </g>
     </g>
    </g>
   </g>
   <g id="matplotlib.axis_2">
    <g id="ytick_1">
     <g id="line2d_4">
      <defs>
       <path d="M 0 0 
L -3.5 0 
" id="mc180fc9bcf" style="stroke:#a9a9a9;stroke-width:2;"/>
      </defs>
      <g>
       <use style="fill:#a9a9a9;stroke:#a9a9a9;stroke-width:2;" x="9" xlink:href="#mc180fc9bcf" y="67.68"/>
      </g>
     </g>
    </g>
    <g id="ytick_2">
     <g id="line2d_5">
      <g>
       <use style="fill:#a9a9a9;stroke:#a9a9a9;stroke-width:2;" x="9" xlink:href="#mc180fc9bcf" y="57.056738"/>
      </g>
     </g>
    </g>
    <g id="ytick_3">
     <g id="line2d_6">
      <g>
       <use style="fill:#a9a9a9;stroke:#a9a9a9;stroke-width:2;" x="9" xlink:href="#mc180fc9bcf" y="46.433477"/>
      </g>
     </g>
    </g>
   </g>
   <g id="line2d_7">
    <path clip-path="url(#p21039baeed)" d="M 10.86031 58.638658 
L 11.79031 56.204972 
L 12.72031 54.420172 
L 13.65031 52.729686 
L 14.58031 51.293859 
L 15.51031 50.56023 
L 16.44031 48.730575 
L 17.37031 48.480137 
L 18.30031 47.497145 
L 19.23031 46.840942 
L 20.16031 46.454746 
L 21.09031 45.555444 
L 22.02031 44.531824 
L 22.95031 43.731028 
L 23.88031 42.960777 
L 24.81031 42.114248 
L 25.74031 41.567244 
L 26.67031 41.28873 
L 27.60031 40.475938 
L 28.53031 39.262476 
L 29.46031 39.354133 
L 30.39031 39.117141 
L 31.32031 38.300342 
L 32.25031 37.87386 
L 33.18031 36.767409 
L 34.11031 35.847704 
L 35.04031 35.052789 
L 35.97031 35.116635 
L 36.90031 34.031575 
L 37.83031 33.003182 
L 38.76031 31.99169 
L 39.69031 31.096377 
L 40.62031 30.859526 
L 41.55031 30.268195 
L 42.48031 29.427112 
L 43.41031 28.873317 
L 44.34031 28.314555 
L 45.27031 27.470192 
L 46.20031 27.211966 
L 47.13031 27.140074 
L 48.06031 26.166723 
L 48.99031 25.661482 
L 49.92031 25.794151 
L 50.85031 25.713199 
L 51.78031 25.018597 
L 52.71031 24.523582 
L 53.64031 23.896451 
L 54.57031 23.622511 
L 55.50031 22.512183 
L 56.43031 21.800996 
L 57.36031 21.911722 
L 58.29031 20.992289 
L 59.22031 20.092861 
L 60.15031 19.883974 
L 61.08031 19.518341 
L 62.01031 18.932624 
L 62.94031 18.523681 
L 63.87031 17.811163 
" style="fill:none;stroke:#fc8d62;stroke-linecap:square;stroke-width:2;"/>
   </g>
   <g id="line2d_8">
    <path clip-path="url(#p21039baeed)" d="M 10.86031 63.678 
L 11.79031 63.280338 
L 12.72031 63.037185 
L 13.65031 62.303181 
L 14.58031 61.837499 
L 15.51031 61.78041 
L 16.44031 61.651935 
L 17.37031 61.126473 
L 18.30031 60.722562 
L 19.23031 60.542794 
L 20.16031 59.92819 
L 21.09031 59.523453 
L 22.02031 59.340059 
L 22.95031 59.070751 
L 23.88031 58.931115 
L 24.81031 58.563104 
L 25.74031 58.636929 
L 26.67031 58.04817 
L 27.60031 58.011053 
L 28.53031 57.809132 
L 29.46031 57.389972 
L 30.39031 57.002106 
L 31.32031 56.52629 
L 32.25031 56.19908 
L 33.18031 55.805211 
L 34.11031 55.542778 
L 35.04031 55.14022 
L 35.97031 54.858757 
L 36.90031 54.697439 
L 37.83031 54.757525 
L 38.76031 54.860126 
L 39.69031 54.590177 
L 40.62031 53.963654 
L 41.55031 53.744114 
L 42.48031 53.837899 
L 43.41031 53.357771 
L 44.34031 53.199679 
L 45.27031 52.702767 
L 46.20031 52.664637 
L 47.13031 52.745438 
L 48.06031 52.590291 
L 48.99031 52.374668 
L 49.92031 52.26656 
L 50.85031 52.322894 
L 51.78031 52.152783 
L 52.71031 51.966065 
L 53.64031 52.069156 
L 54.57031 52.161872 
L 55.50031 52.037978 
L 56.43031 51.859428 
L 57.36031 51.458459 
L 58.29031 51.281559 
L 59.22031 51.370761 
L 60.15031 51.311514 
L 61.08031 51.392473 
L 62.01031 51.198022 
L 62.94031 51.043307 
L 63.87031 51.246135 
" style="fill:none;stroke:#fc8d62;stroke-dasharray:1.5,1.5;stroke-dashoffset:0;stroke-opacity:0.7;stroke-width:1.5;"/>
   </g>
   <g id="patch_3">
    <path d="M 9 67.68 
L 9 17.28 
" style="fill:none;stroke:#a9a9a9;stroke-linecap:square;stroke-linejoin:miter;stroke-width:2;"/>
   </g>
   <g id="patch_4">
    <path d="M 64.8 67.68 
L 64.8 17.28 
" style="fill:none;"/>
   </g>
   <g id="patch_5">
    <path d="M 9 67.68 
L 64.8 67.68 
" style="fill:none;stroke:#a9a9a9;stroke-linecap:square;stroke-linejoin:miter;stroke-width:2;"/>
   </g>
   <g id="patch_6">
    <path d="M 9 17.28 
L 64.8 17.28 
" style="fill:none;"/>
   </g>
  </g>
  <g id="axes_2">
   <g id="patch_7">
    <path d="M 9 128.16 
L 64.8 128.16 
L 64.8 77.76 
L 9 77.76 
z
" style="fill:none;"/>
   </g>
   <g id="matplotlib.axis_3">
    <g id="xtick_4">
     <g id="line2d_9">
      <g>
       <use style="fill:#a9a9a9;stroke:#a9a9a9;stroke-width:2;" x="9" xlink:href="#m5a867c5345" y="128.16"/>
      </g>
     </g>
    </g>
    <g id="xtick_5">
     <g id="line2d_10">
      <g>
       <use style="fill:#a9a9a9;stroke:#a9a9a9;stroke-width:2;" x="36.9" xlink:href="#m5a867c5345" y="128.16"/>
      </g>
     </g>
    </g>
    <g id="xtick_6">
     <g id="line2d_11">
      <g>
       <use style="fill:#a9a9a9;stroke:#a9a9a9;stroke-width:2;" x="64.8" xlink:href="#m5a867c5345" y="128.16"/>
      </g>
     </g>
    </g>
   </g>
   <g id="matplotlib.axis_4">
    <g id="ytick_4">
     <g id="line2d_12">
      <g>
       <use style="fill:#a9a9a9;stroke:#a9a9a9;stroke-width:2;" x="9" xlink:href="#mc180fc9bcf" y="128.16"/>
      </g>
     </g>
    </g>
    <g id="ytick_5">
     <g id="line2d_13">
      <g>
       <use style="fill:#a9a9a9;stroke:#a9a9a9;stroke-width:2;" x="9" xlink:href="#mc180fc9bcf" y="102.96"/>
      </g>
     </g>
    </g>
    <g id="ytick_6">
     <g id="line2d_14">
      <g>
       <use style="fill:#a9a9a9;stroke:#a9a9a9;stroke-width:2;" x="9" xlink:href="#mc180fc9bcf" y="77.76"/>
      </g>
     </g>
    </g>
   </g>
   <g id="line2d_15">
    <path clip-path="url(#p4747d143ca)" d="M 10.86031 106.171791 
L 11.79031 102.744217 
L 12.72031 100.91596 
L 13.65031 99.680156 
L 14.58031 98.629976 
L 15.51031 97.729037 
L 16.44031 96.543738 
L 17.37031 96.202768 
L 18.30031 95.787638 
L 19.23031 95.530996 
L 20.16031 95.291929 
L 21.09031 95.035295 
L 22.02031 94.722952 
L 22.95031 94.568042 
L 23.88031 94.368158 
L 24.81031 94.068683 
L 25.74031 94.044488 
L 26.67031 93.837678 
L 27.60031 93.643752 
L 28.53031 93.545642 
L 29.46031 93.561282 
L 30.39031 93.477175 
L 31.32031 93.430985 
L 32.25031 93.498474 
L 33.18031 93.336753 
L 34.11031 93.269289 
L 35.04031 93.1018 
L 35.97031 93.064763 
L 36.90031 92.966906 
L 37.83031 92.850488 
L 38.76031 92.804332 
L 39.69031 92.764386 
L 40.62031 92.726249 
L 41.55031 92.698402 
L 42.48031 92.702194 
L 43.41031 92.608818 
L 44.34031 92.591567 
L 45.27031 92.543125 
L 46.20031 92.482723 
L 47.13031 92.499516 
L 48.06031 92.437733 
L 48.99031 92.387016 
L 49.92031 92.392274 
L 50.85031 92.4434 
L 51.78031 92.448454 
L 52.71031 92.417761 
L 53.64031 92.401665 
L 54.57031 92.416002 
L 55.50031 92.389012 
L 56.43031 92.365089 
L 57.36031 92.400371 
L 58.29031 92.332971 
L 59.22031 92.332965 
L 60.15031 92.308208 
L 61.08031 92.264983 
L 62.01031 92.215137 
L 62.94031 92.211765 
L 63.87031 92.223155 
" style="fill:none;stroke:#fc8d62;stroke-linecap:square;stroke-width:2;"/>
   </g>
   <g id="line2d_16">
    <path clip-path="url(#p4747d143ca)" d="M 10.86031 121.676426 
L 11.79031 119.312188 
L 12.72031 116.060523 
L 13.65031 113.909783 
L 14.58031 112.180137 
L 15.51031 111.458545 
L 16.44031 110.135717 
L 17.37031 109.336487 
L 18.30031 108.444316 
L 19.23031 107.54012 
L 20.16031 106.816324 
L 21.09031 106.085213 
L 22.02031 105.302376 
L 22.95031 104.732234 
L 23.88031 103.908551 
L 24.81031 103.103333 
L 25.74031 102.668861 
L 26.67031 101.934546 
L 27.60031 101.692198 
L 28.53031 101.095963 
L 29.46031 100.806751 
L 30.39031 100.173746 
L 31.32031 99.372423 
L 32.25031 99.077268 
L 33.18031 98.786083 
L 34.11031 98.460193 
L 35.04031 97.94934 
L 35.97031 97.794173 
L 36.90031 97.690978 
L 37.83031 97.704781 
L 38.76031 97.474799 
L 39.69031 97.411487 
L 40.62031 96.883161 
L 41.55031 96.845649 
L 42.48031 96.794431 
L 43.41031 96.700251 
L 44.34031 96.550202 
L 45.27031 96.331729 
L 46.20031 96.1313 
L 47.13031 96.175018 
L 48.06031 96.006862 
L 48.99031 95.851612 
L 49.92031 95.699997 
L 50.85031 95.6772 
L 51.78031 95.545638 
L 52.71031 95.395039 
L 53.64031 95.396936 
L 54.57031 95.251514 
L 55.50031 95.182553 
L 56.43031 95.014849 
L 57.36031 94.802576 
L 58.29031 94.742761 
L 59.22031 94.700564 
L 60.15031 94.767724 
L 61.08031 94.656671 
L 62.01031 94.672879 
L 62.94031 94.583849 
L 63.87031 94.554835 
" style="fill:none;stroke:#fc8d62;stroke-dasharray:1.5,1.5;stroke-dashoffset:0;stroke-opacity:0.7;stroke-width:1.5;"/>
   </g>
   <g id="patch_8">
    <path d="M 9 128.16 
L 9 77.76 
" style="fill:none;stroke:#a9a9a9;stroke-linecap:square;stroke-linejoin:miter;stroke-width:2;"/>
   </g>
   <g id="patch_9">
    <path d="M 64.8 128.16 
L 64.8 77.76 
" style="fill:none;"/>
   </g>
   <g id="patch_10">
    <path d="M 9 128.16 
L 64.8 128.16 
" style="fill:none;stroke:#a9a9a9;stroke-linecap:square;stroke-linejoin:miter;stroke-width:2;"/>
   </g>
   <g id="patch_11">
    <path d="M 9 77.76 
L 64.8 77.76 
" style="fill:none;"/>
   </g>
  </g>
 </g>
 <defs>
  <clipPath id="p21039baeed">
   <rect height="50.4" width="55.8" x="9" y="17.28"/>
  </clipPath>
  <clipPath id="p4747d143ca">
   <rect height="50.4" width="55.8" x="9" y="77.76"/>
  </clipPath>
 </defs>
</svg>
