<?xml version="1.0" encoding="utf-8" standalone="no"?>
<!DOCTYPE svg PUBLIC "-//W3C//DTD SVG 1.1//EN"
  "http://www.w3.org/Graphics/SVG/1.1/DTD/svg11.dtd">
<!-- Created with matplotlib (https://matplotlib.org/) -->
<svg height="144pt" version="1.1" viewBox="0 0 72 144" width="72pt" xmlns="http://www.w3.org/2000/svg" xmlns:xlink="http://www.w3.org/1999/xlink">
 <metadata>
  <rdf:RDF xmlns:cc="http://creativecommons.org/ns#" xmlns:dc="http://purl.org/dc/elements/1.1/" xmlns:rdf="http://www.w3.org/1999/02/22-rdf-syntax-ns#">
   <cc:Work>
    <dc:type rdf:resource="http://purl.org/dc/dcmitype/StillImage"/>
    <dc:date>2021-10-11T19:01:21.735174</dc:date>
    <dc:format>image/svg+xml</dc:format>
    <dc:creator>
     <cc:Agent>
      <dc:title>Matplotlib v3.3.2, https://matplotlib.org/</dc:title>
     </cc:Agent>
    </dc:creator>
   </cc:Work>
  </rdf:RDF>
 </metadata>
 <defs>
  <style type="text/css">*{stroke-linecap:butt;stroke-linejoin:round;}</style>
 </defs>
 <g id="figure_1">
  <g id="patch_1">
   <path d="M 0 144 
L 72 144 
L 72 0 
L 0 0 
z
" style="fill:none;"/>
  </g>
  <g id="axes_1">
   <g id="patch_2">
    <path d="M 9 67.68 
L 64.8 67.68 
L 64.8 17.28 
L 9 17.28 
z
" style="fill:none;"/>
   </g>
   <g id="matplotlib.axis_1">
    <g id="xtick_1">
     <g id="line2d_1">
      <defs>
       <path d="M 0 0 
L 0 3.5 
" id="me5d175d669" style="stroke:#a9a9a9;stroke-width:2;"/>
      </defs>
      <g>
       <use style="fill:#a9a9a9;stroke:#a9a9a9;stroke-width:2;" x="9" xlink:href="#me5d175d669" y="67.68"/>
      </g>
     </g>
    </g>
    <g id="xtick_2">
     <g id="line2d_2">
      <g>
       <use style="fill:#a9a9a9;stroke:#a9a9a9;stroke-width:2;" x="36.9" xlink:href="#me5d175d669" y="67.68"/>
      </g>
     </g>
    </g>
    <g id="xtick_3">
     <g id="line2d_3">
      <g>
       <use style="fill:#a9a9a9;stroke:#a9a9a9;stroke-width:2;" x="64.8" xlink:href="#me5d175d669" y="67.68"/>
      </g>
     </g>
    </g>
   </g>
   <g id="matplotlib.axis_2">
    <g id="ytick_1">
     <g id="line2d_4">
      <defs>
       <path d="M 0 0 
L -3.5 0 
" id="mef6dad936f" style="stroke:#a9a9a9;stroke-width:2;"/>
      </defs>
      <g>
       <use style="fill:#a9a9a9;stroke:#a9a9a9;stroke-width:2;" x="9" xlink:href="#mef6dad936f" y="67.68"/>
      </g>
     </g>
    </g>
    <g id="ytick_2">
     <g id="line2d_5">
      <g>
       <use style="fill:#a9a9a9;stroke:#a9a9a9;stroke-width:2;" x="9" xlink:href="#mef6dad936f" y="58.481976"/>
      </g>
     </g>
    </g>
    <g id="ytick_3">
     <g id="line2d_6">
      <g>
       <use style="fill:#a9a9a9;stroke:#a9a9a9;stroke-width:2;" x="9" xlink:href="#mef6dad936f" y="49.283953"/>
      </g>
     </g>
    </g>
   </g>
   <g id="line2d_7">
    <path clip-path="url(#p6fd3587334)" d="M 10.86031 57.222986 
L 11.79031 55.080644 
L 12.72031 53.347953 
L 13.65031 51.993811 
L 14.58031 50.409521 
L 15.51031 49.349976 
L 16.44031 48.113396 
L 17.37031 47.343473 
L 18.30031 46.928798 
L 19.23031 45.757612 
L 20.16031 45.414282 
L 21.09031 44.817482 
L 22.02031 43.848102 
L 22.95031 42.634104 
L 23.88031 42.064447 
L 24.81031 41.410023 
L 25.74031 40.254364 
L 26.67031 39.259876 
L 27.60031 38.560607 
L 28.53031 37.84605 
L 29.46031 37.107289 
L 30.39031 36.576578 
L 31.32031 35.91339 
L 32.25031 35.77614 
L 33.18031 34.962572 
L 34.11031 34.353036 
L 35.04031 34.002721 
L 35.97031 33.21025 
L 36.90031 33.144756 
L 37.83031 32.694263 
L 38.76031 32.03271 
L 39.69031 31.379847 
L 40.62031 30.64397 
L 41.55031 29.583994 
L 42.48031 28.884259 
L 43.41031 27.427354 
L 44.34031 27.423609 
L 45.27031 26.80594 
L 46.20031 26.084387 
L 47.13031 25.367793 
L 48.06031 24.838725 
L 48.99031 24.386671 
L 49.92031 23.867275 
L 50.85031 23.120442 
L 51.78031 22.855406 
L 52.71031 22.158031 
L 53.64031 21.685448 
L 54.57031 21.972337 
L 55.50031 21.11463 
L 56.43031 20.862144 
L 57.36031 20.240624 
L 58.29031 19.898839 
L 59.22031 19.850931 
L 60.15031 18.913992 
L 61.08031 18.210084 
L 62.01031 18.275099 
L 62.94031 17.932282 
L 63.87031 17.739901 
" style="fill:none;stroke:#fc8d62;stroke-linecap:square;stroke-width:2;"/>
   </g>
   <g id="line2d_8">
    <path clip-path="url(#p6fd3587334)" d="M 10.86031 59.822908 
L 11.79031 57.875534 
L 12.72031 56.168467 
L 13.65031 55.467045 
L 14.58031 54.400049 
L 15.51031 52.966347 
L 16.44031 52.003572 
L 17.37031 50.337208 
L 18.30031 49.551318 
L 19.23031 48.780514 
L 20.16031 47.498453 
L 21.09031 46.967091 
L 22.02031 46.017955 
L 22.95031 45.617822 
L 23.88031 45.051154 
L 24.81031 43.701286 
L 25.74031 43.197082 
L 26.67031 42.280044 
L 27.60031 41.964883 
L 28.53031 41.332107 
L 29.46031 40.886349 
L 30.39031 39.819732 
L 31.32031 39.388035 
L 32.25031 39.59363 
L 33.18031 39.309505 
L 34.11031 38.539045 
L 35.04031 37.815674 
L 35.97031 37.144216 
L 36.90031 37.063131 
L 37.83031 36.874448 
L 38.76031 37.042554 
L 39.69031 36.288011 
L 40.62031 36.147729 
L 41.55031 35.930522 
L 42.48031 35.927269 
L 43.41031 35.693003 
L 44.34031 35.200401 
L 45.27031 34.783615 
L 46.20031 34.261793 
L 47.13031 33.618575 
L 48.06031 33.19459 
L 48.99031 32.864342 
L 49.92031 33.122117 
L 50.85031 32.431228 
L 51.78031 32.126422 
L 52.71031 31.752163 
L 53.64031 31.039121 
L 54.57031 30.159921 
L 55.50031 29.399417 
L 56.43031 28.568383 
L 57.36031 28.282254 
L 58.29031 27.31677 
L 59.22031 27.656703 
L 60.15031 27.127205 
L 61.08031 26.619502 
L 62.01031 26.168645 
L 62.94031 26.174684 
L 63.87031 25.570339 
" style="fill:none;stroke:#fc8d62;stroke-dasharray:1.5,1.5;stroke-dashoffset:0;stroke-opacity:0.7;stroke-width:1.5;"/>
   </g>
   <g id="patch_3">
    <path d="M 9 67.68 
L 9 17.28 
" style="fill:none;stroke:#a9a9a9;stroke-linecap:square;stroke-linejoin:miter;stroke-width:2;"/>
   </g>
   <g id="patch_4">
    <path d="M 64.8 67.68 
L 64.8 17.28 
" style="fill:none;"/>
   </g>
   <g id="patch_5">
    <path d="M 9 67.68 
L 64.8 67.68 
" style="fill:none;stroke:#a9a9a9;stroke-linecap:square;stroke-linejoin:miter;stroke-width:2;"/>
   </g>
   <g id="patch_6">
    <path d="M 9 17.28 
L 64.8 17.28 
" style="fill:none;"/>
   </g>
  </g>
  <g id="axes_2">
   <g id="patch_7">
    <path d="M 9 128.16 
L 64.8 128.16 
L 64.8 77.76 
L 9 77.76 
z
" style="fill:none;"/>
   </g>
   <g id="matplotlib.axis_3">
    <g id="xtick_4">
     <g id="line2d_9">
      <g>
       <use style="fill:#a9a9a9;stroke:#a9a9a9;stroke-width:2;" x="9" xlink:href="#me5d175d669" y="128.16"/>
      </g>
     </g>
    </g>
    <g id="xtick_5">
     <g id="line2d_10">
      <g>
       <use style="fill:#a9a9a9;stroke:#a9a9a9;stroke-width:2;" x="36.9" xlink:href="#me5d175d669" y="128.16"/>
      </g>
     </g>
    </g>
    <g id="xtick_6">
     <g id="line2d_11">
      <g>
       <use style="fill:#a9a9a9;stroke:#a9a9a9;stroke-width:2;" x="64.8" xlink:href="#me5d175d669" y="128.16"/>
      </g>
     </g>
    </g>
   </g>
   <g id="matplotlib.axis_4">
    <g id="ytick_4">
     <g id="line2d_12">
      <g>
       <use style="fill:#a9a9a9;stroke:#a9a9a9;stroke-width:2;" x="9" xlink:href="#mef6dad936f" y="128.16"/>
      </g>
     </g>
    </g>
    <g id="ytick_5">
     <g id="line2d_13">
      <g>
       <use style="fill:#a9a9a9;stroke:#a9a9a9;stroke-width:2;" x="9" xlink:href="#mef6dad936f" y="102.96"/>
      </g>
     </g>
    </g>
    <g id="ytick_6">
     <g id="line2d_14">
      <g>
       <use style="fill:#a9a9a9;stroke:#a9a9a9;stroke-width:2;" x="9" xlink:href="#mef6dad936f" y="77.76"/>
      </g>
     </g>
    </g>
   </g>
   <g id="line2d_15">
    <path clip-path="url(#p64cb065b93)" d="M 10.86031 100.421477 
L 11.79031 97.715589 
L 12.72031 96.309071 
L 13.65031 94.981598 
L 14.58031 94.380548 
L 15.51031 94.031367 
L 16.44031 93.662166 
L 17.37031 93.153966 
L 18.30031 92.727162 
L 19.23031 92.513353 
L 20.16031 92.416723 
L 21.09031 92.390191 
L 22.02031 92.276005 
L 22.95031 92.168349 
L 23.88031 92.006313 
L 24.81031 91.968395 
L 25.74031 91.882474 
L 26.67031 91.774185 
L 27.60031 91.707353 
L 28.53031 91.670627 
L 29.46031 91.605549 
L 30.39031 91.540338 
L 31.32031 91.473069 
L 32.25031 91.415715 
L 33.18031 91.369292 
L 34.11031 91.300893 
L 35.04031 91.277063 
L 35.97031 91.228609 
L 36.90031 91.178054 
L 37.83031 91.177986 
L 38.76031 91.165675 
L 39.69031 91.148796 
L 40.62031 91.15109 
L 41.55031 91.16639 
L 42.48031 91.179064 
L 43.41031 91.132314 
L 44.34031 91.125575 
L 45.27031 91.121907 
L 46.20031 91.098999 
L 47.13031 91.109738 
L 48.06031 91.107614 
L 48.99031 91.052432 
L 49.92031 91.028487 
L 50.85031 91.023567 
L 51.78031 91.028879 
L 52.71031 91.02392 
L 53.64031 91.009514 
L 54.57031 90.985212 
L 55.50031 90.975803 
L 56.43031 90.964322 
L 57.36031 90.951687 
L 58.29031 90.910475 
L 59.22031 90.918079 
L 60.15031 90.911636 
L 61.08031 90.894184 
L 62.01031 90.873292 
L 62.94031 90.855527 
L 63.87031 90.836821 
" style="fill:none;stroke:#fc8d62;stroke-linecap:square;stroke-width:2;"/>
   </g>
   <g id="line2d_16">
    <path clip-path="url(#p64cb065b93)" d="M 10.86031 108.735701 
L 11.79031 106.010743 
L 12.72031 104.460329 
L 13.65031 103.451033 
L 14.58031 103.004719 
L 15.51031 102.290566 
L 16.44031 101.921035 
L 17.37031 101.580366 
L 18.30031 101.453202 
L 19.23031 101.131353 
L 20.16031 100.951572 
L 21.09031 101.128762 
L 22.02031 101.016343 
L 22.95031 101.014669 
L 23.88031 100.826253 
L 24.81031 100.829996 
L 25.74031 100.674518 
L 26.67031 100.531802 
L 27.60031 100.446637 
L 28.53031 100.324983 
L 29.46031 100.311037 
L 30.39031 100.217907 
L 31.32031 100.318105 
L 32.25031 100.356367 
L 33.18031 100.388605 
L 34.11031 100.391707 
L 35.04031 100.373276 
L 35.97031 100.295578 
L 36.90031 100.316063 
L 37.83031 100.316976 
L 38.76031 100.254373 
L 39.69031 100.250807 
L 40.62031 100.202596 
L 41.55031 100.168163 
L 42.48031 100.184843 
L 43.41031 100.19709 
L 44.34031 100.160335 
L 45.27031 100.204709 
L 46.20031 100.182927 
L 47.13031 100.148531 
L 48.06031 100.15489 
L 48.99031 100.107214 
L 49.92031 100.121824 
L 50.85031 100.142227 
L 51.78031 100.132639 
L 52.71031 100.141778 
L 53.64031 100.145341 
L 54.57031 100.118404 
L 55.50031 100.154833 
L 56.43031 100.144485 
L 57.36031 100.145353 
L 58.29031 100.150363 
L 59.22031 100.151295 
L 60.15031 100.133977 
L 61.08031 100.089892 
L 62.01031 100.065551 
L 62.94031 100.083389 
L 63.87031 100.077962 
" style="fill:none;stroke:#fc8d62;stroke-dasharray:1.5,1.5;stroke-dashoffset:0;stroke-opacity:0.7;stroke-width:1.5;"/>
   </g>
   <g id="patch_8">
    <path d="M 9 128.16 
L 9 77.76 
" style="fill:none;stroke:#a9a9a9;stroke-linecap:square;stroke-linejoin:miter;stroke-width:2;"/>
   </g>
   <g id="patch_9">
    <path d="M 64.8 128.16 
L 64.8 77.76 
" style="fill:none;"/>
   </g>
   <g id="patch_10">
    <path d="M 9 128.16 
L 64.8 128.16 
" style="fill:none;stroke:#a9a9a9;stroke-linecap:square;stroke-linejoin:miter;stroke-width:2;"/>
   </g>
   <g id="patch_11">
    <path d="M 9 77.76 
L 64.8 77.76 
" style="fill:none;"/>
   </g>
  </g>
 </g>
 <defs>
  <clipPath id="p6fd3587334">
   <rect height="50.4" width="55.8" x="9" y="17.28"/>
  </clipPath>
  <clipPath id="p64cb065b93">
   <rect height="50.4" width="55.8" x="9" y="77.76"/>
  </clipPath>
 </defs>
</svg>
