<?xml version="1.0" encoding="utf-8" standalone="no"?>
<!DOCTYPE svg PUBLIC "-//W3C//DTD SVG 1.1//EN"
  "http://www.w3.org/Graphics/SVG/1.1/DTD/svg11.dtd">
<!-- Created with matplotlib (https://matplotlib.org/) -->
<svg height="396pt" version="1.1" viewBox="0 0 216 396" width="216pt" xmlns="http://www.w3.org/2000/svg" xmlns:xlink="http://www.w3.org/1999/xlink">
 <metadata>
  <rdf:RDF xmlns:cc="http://creativecommons.org/ns#" xmlns:dc="http://purl.org/dc/elements/1.1/" xmlns:rdf="http://www.w3.org/1999/02/22-rdf-syntax-ns#">
   <cc:Work>
    <dc:type rdf:resource="http://purl.org/dc/dcmitype/StillImage"/>
    <dc:date>2021-10-05T12:43:18.433099</dc:date>
    <dc:format>image/svg+xml</dc:format>
    <dc:creator>
     <cc:Agent>
      <dc:title>Matplotlib v3.3.2, https://matplotlib.org/</dc:title>
     </cc:Agent>
    </dc:creator>
   </cc:Work>
  </rdf:RDF>
 </metadata>
 <defs>
  <style type="text/css">*{stroke-linecap:butt;stroke-linejoin:round;}</style>
 </defs>
 <g id="figure_1">
  <g id="patch_1">
   <path d="M 0 396 
L 216 396 
L 216 0 
L 0 0 
z
" style="fill:none;"/>
  </g>
  <g id="axes_1">
   <g id="patch_2">
    <path d="M 27 113.806957 
L 194.4 113.806957 
L 194.4 47.52 
L 27 47.52 
z
" style="fill:none;"/>
   </g>
   <g id="matplotlib.axis_1">
    <g id="xtick_1">
     <g id="line2d_1">
      <defs>
       <path d="M 0 0 
L 0 3.5 
" id="md31331934e" style="stroke:#000000;stroke-width:0.8;"/>
      </defs>
      <g>
       <use style="stroke:#000000;stroke-width:0.8;" x="52.753823" xlink:href="#md31331934e" y="113.806957"/>
      </g>
     </g>
    </g>
    <g id="xtick_2">
     <g id="line2d_2">
      <g>
       <use style="stroke:#000000;stroke-width:0.8;" x="81.369245" xlink:href="#md31331934e" y="113.806957"/>
      </g>
     </g>
    </g>
    <g id="xtick_3">
     <g id="line2d_3">
      <g>
       <use style="stroke:#000000;stroke-width:0.8;" x="109.984668" xlink:href="#md31331934e" y="113.806957"/>
      </g>
     </g>
    </g>
    <g id="xtick_4">
     <g id="line2d_4">
      <g>
       <use style="stroke:#000000;stroke-width:0.8;" x="138.60009" xlink:href="#md31331934e" y="113.806957"/>
      </g>
     </g>
    </g>
    <g id="xtick_5">
     <g id="line2d_5">
      <g>
       <use style="stroke:#000000;stroke-width:0.8;" x="167.215512" xlink:href="#md31331934e" y="113.806957"/>
      </g>
     </g>
    </g>
   </g>
   <g id="matplotlib.axis_2">
    <g id="ytick_1">
     <g id="line2d_6">
      <defs>
       <path d="M 0 0 
L -3.5 0 
" id="m1c6bdd380f" style="stroke:#000000;stroke-width:0.8;"/>
      </defs>
      <g>
       <use style="stroke:#000000;stroke-width:0.8;" x="27" xlink:href="#m1c6bdd380f" y="113.806957"/>
      </g>
     </g>
     <g id="text_1">
      <!-- 0.0 -->
      <g transform="translate(10.367812 116.46641)scale(0.07 -0.07)">
       <defs>
        <path d="M 31.78125 66.40625 
Q 24.171875 66.40625 20.328125 58.90625 
Q 16.5 51.421875 16.5 36.375 
Q 16.5 21.390625 20.328125 13.890625 
Q 24.171875 6.390625 31.78125 6.390625 
Q 39.453125 6.390625 43.28125 13.890625 
Q 47.125 21.390625 47.125 36.375 
Q 47.125 51.421875 43.28125 58.90625 
Q 39.453125 66.40625 31.78125 66.40625 
z
M 31.78125 74.21875 
Q 44.046875 74.21875 50.515625 64.515625 
Q 56.984375 54.828125 56.984375 36.375 
Q 56.984375 17.96875 50.515625 8.265625 
Q 44.046875 -1.421875 31.78125 -1.421875 
Q 19.53125 -1.421875 13.0625 8.265625 
Q 6.59375 17.96875 6.59375 36.375 
Q 6.59375 54.828125 13.0625 64.515625 
Q 19.53125 74.21875 31.78125 74.21875 
z
" id="DejaVuSans-48"/>
        <path d="M 10.6875 12.40625 
L 21 12.40625 
L 21 0 
L 10.6875 0 
z
" id="DejaVuSans-46"/>
       </defs>
       <use xlink:href="#DejaVuSans-48"/>
       <use x="63.623047" xlink:href="#DejaVuSans-46"/>
       <use x="95.410156" xlink:href="#DejaVuSans-48"/>
      </g>
     </g>
    </g>
    <g id="ytick_2">
     <g id="line2d_7">
      <g>
       <use style="stroke:#000000;stroke-width:0.8;" x="27" xlink:href="#m1c6bdd380f" y="96.714645"/>
      </g>
     </g>
     <g id="text_2">
      <!-- 2.5 -->
      <g transform="translate(10.367812 99.374098)scale(0.07 -0.07)">
       <defs>
        <path d="M 19.1875 8.296875 
L 53.609375 8.296875 
L 53.609375 0 
L 7.328125 0 
L 7.328125 8.296875 
Q 12.9375 14.109375 22.625 23.890625 
Q 32.328125 33.6875 34.8125 36.53125 
Q 39.546875 41.84375 41.421875 45.53125 
Q 43.3125 49.21875 43.3125 52.78125 
Q 43.3125 58.59375 39.234375 62.25 
Q 35.15625 65.921875 28.609375 65.921875 
Q 23.96875 65.921875 18.8125 64.3125 
Q 13.671875 62.703125 7.8125 59.421875 
L 7.8125 69.390625 
Q 13.765625 71.78125 18.9375 73 
Q 24.125 74.21875 28.421875 74.21875 
Q 39.75 74.21875 46.484375 68.546875 
Q 53.21875 62.890625 53.21875 53.421875 
Q 53.21875 48.921875 51.53125 44.890625 
Q 49.859375 40.875 45.40625 35.40625 
Q 44.1875 33.984375 37.640625 27.21875 
Q 31.109375 20.453125 19.1875 8.296875 
z
" id="DejaVuSans-50"/>
        <path d="M 10.796875 72.90625 
L 49.515625 72.90625 
L 49.515625 64.59375 
L 19.828125 64.59375 
L 19.828125 46.734375 
Q 21.96875 47.46875 24.109375 47.828125 
Q 26.265625 48.1875 28.421875 48.1875 
Q 40.625 48.1875 47.75 41.5 
Q 54.890625 34.8125 54.890625 23.390625 
Q 54.890625 11.625 47.5625 5.09375 
Q 40.234375 -1.421875 26.90625 -1.421875 
Q 22.3125 -1.421875 17.546875 -0.640625 
Q 12.796875 0.140625 7.71875 1.703125 
L 7.71875 11.625 
Q 12.109375 9.234375 16.796875 8.0625 
Q 21.484375 6.890625 26.703125 6.890625 
Q 35.15625 6.890625 40.078125 11.328125 
Q 45.015625 15.765625 45.015625 23.390625 
Q 45.015625 31 40.078125 35.4375 
Q 35.15625 39.890625 26.703125 39.890625 
Q 22.75 39.890625 18.8125 39.015625 
Q 14.890625 38.140625 10.796875 36.28125 
z
" id="DejaVuSans-53"/>
       </defs>
       <use xlink:href="#DejaVuSans-50"/>
       <use x="63.623047" xlink:href="#DejaVuSans-46"/>
       <use x="95.410156" xlink:href="#DejaVuSans-53"/>
      </g>
     </g>
    </g>
    <g id="ytick_3">
     <g id="line2d_8">
      <g>
       <use style="stroke:#000000;stroke-width:0.8;" x="27" xlink:href="#m1c6bdd380f" y="79.622334"/>
      </g>
     </g>
     <g id="text_3">
      <!-- 5.0 -->
      <g transform="translate(10.367812 82.281787)scale(0.07 -0.07)">
       <use xlink:href="#DejaVuSans-53"/>
       <use x="63.623047" xlink:href="#DejaVuSans-46"/>
       <use x="95.410156" xlink:href="#DejaVuSans-48"/>
      </g>
     </g>
    </g>
    <g id="ytick_4">
     <g id="line2d_9">
      <g>
       <use style="stroke:#000000;stroke-width:0.8;" x="27" xlink:href="#m1c6bdd380f" y="62.530022"/>
      </g>
     </g>
     <g id="text_4">
      <!-- 7.5 -->
      <g transform="translate(10.367812 65.189475)scale(0.07 -0.07)">
       <defs>
        <path d="M 8.203125 72.90625 
L 55.078125 72.90625 
L 55.078125 68.703125 
L 28.609375 0 
L 18.3125 0 
L 43.21875 64.59375 
L 8.203125 64.59375 
z
" id="DejaVuSans-55"/>
       </defs>
       <use xlink:href="#DejaVuSans-55"/>
       <use x="63.623047" xlink:href="#DejaVuSans-46"/>
       <use x="95.410156" xlink:href="#DejaVuSans-53"/>
      </g>
     </g>
    </g>
   </g>
   <g id="line2d_10">
    <path clip-path="url(#pd363fc913b)" d="M 27 103.972099 
L 28.430606 101.683097 
L 29.861386 100.586322 
L 31.292064 98.723194 
L 32.722858 97.679354 
L 34.153728 98.198104 
L 35.584551 96.271904 
L 37.015301 95.457941 
L 38.446074 93.807082 
L 39.87691 92.222949 
L 41.307834 91.689896 
L 42.738555 90.44641 
L 44.169321 90.073727 
L 45.600063 89.436058 
L 47.030937 87.775622 
L 48.461711 87.020181 
L 49.892494 85.7541 
L 51.323186 85.539863 
L 52.753825 85.356806 
L 54.184584 84.705262 
L 55.615426 84.184128 
L 57.046178 83.855144 
L 58.476962 83.096941 
L 59.907718 82.439691 
L 61.338495 82.424054 
L 62.769251 81.830089 
L 64.200064 80.725392 
L 65.630983 79.699336 
L 67.061726 79.406614 
L 68.492489 79.599691 
L 69.923241 78.607973 
L 71.353974 77.847049 
L 72.784769 77.434763 
L 74.21551 76.71627 
L 75.64633 75.878133 
L 77.077259 75.335035 
L 78.50798 75.259434 
L 79.938634 74.284499 
L 81.369398 73.617645 
L 82.800072 73.348389 
L 84.230809 73.247331 
L 85.661702 72.974178 
L 87.092412 72.654302 
L 88.523212 71.74231 
L 89.953998 71.437003 
L 91.384863 70.669469 
L 92.815662 70.243182 
L 94.246481 69.231994 
L 95.677428 68.792147 
L 97.108209 68.524208 
L 98.538986 68.286449 
L 99.969733 67.904312 
L 101.400393 67.512367 
L 102.831229 67.869963 
L 104.262048 67.501958 
L 105.692709 66.879875 
L 107.123481 65.734746 
L 108.554276 64.667369 
L 109.984979 64.059418 
L 111.415652 64.004885 
L 112.846472 64.317511 
L 114.277259 64.420153 
L 115.707954 64.18649 
L 117.138761 63.244314 
L 118.569581 62.890909 
L 120.000269 62.44843 
L 121.431218 62.005994 
L 122.862076 61.824778 
L 124.292814 61.547262 
L 125.723595 61.032308 
L 127.154273 60.952767 
L 128.585033 60.400841 
L 130.015887 59.958767 
L 131.446656 59.648232 
L 132.877532 58.961578 
L 134.308317 58.188456 
L 135.739045 58.427585 
L 137.16974 57.593633 
L 138.600489 57.612712 
L 140.031185 57.442257 
L 141.461942 56.917153 
L 142.892692 56.457139 
L 144.323422 56.399386 
L 145.754185 55.786311 
L 147.184914 55.502159 
L 148.615645 55.071845 
L 150.046428 54.899979 
L 151.477149 54.364685 
L 152.908017 53.877795 
L 154.338759 53.840063 
L 155.769659 53.78643 
L 157.200345 53.623263 
L 158.631072 53.53183 
L 160.06188 53.119317 
L 161.492572 52.944126 
L 162.923374 52.989891 
L 164.354085 53.086187 
L 165.784915 52.413988 
L 167.215818 52.512816 
L 168.646656 52.418184 
L 170.077539 51.684332 
L 171.508201 51.87643 
L 172.938862 52.080709 
L 174.369591 51.829218 
L 175.800429 51.703475 
L 177.231165 51.030145 
L 178.661887 50.308648 
L 180.092686 49.989197 
L 181.523389 49.009547 
L 182.954201 49.008304 
L 184.384997 49.312932 
L 185.81567 49.252088 
L 187.24636 48.83529 
L 188.677093 48.879367 
L 190.10788 48.013937 
L 191.53861 47.662084 
L 192.969226 47.841909 
L 194.4 47.52 
" style="fill:none;stroke:#fc8d62;stroke-linecap:square;stroke-width:2;"/>
   </g>
   <g id="line2d_11">
    <path clip-path="url(#pd363fc913b)" d="M 27 105.11247 
L 28.430606 103.744937 
L 29.861386 104.248087 
L 31.292064 103.583785 
L 32.722858 102.911471 
L 34.153728 101.988579 
L 35.584551 102.436411 
L 37.015301 102.025093 
L 38.446074 101.459815 
L 39.87691 100.974265 
L 41.307834 100.673923 
L 42.738555 100.648029 
L 44.169321 99.696412 
L 45.600063 98.894199 
L 47.030937 98.924842 
L 48.461711 98.517897 
L 49.892494 98.662856 
L 51.323186 98.128165 
L 52.753825 97.394782 
L 54.184584 96.938746 
L 55.615426 96.638226 
L 57.046178 95.87944 
L 58.476962 95.863143 
L 59.907718 95.038096 
L 61.338495 94.564348 
L 62.769251 93.867088 
L 64.200064 93.477717 
L 65.630983 92.779347 
L 67.061726 91.343477 
L 68.492489 90.703161 
L 69.923241 90.691442 
L 71.353974 90.29688 
L 72.784769 89.99526 
L 74.21551 90.137406 
L 75.64633 90.114528 
L 77.077259 89.683042 
L 78.50798 89.09567 
L 79.938634 89.110611 
L 81.369398 89.336971 
L 82.800072 89.295595 
L 84.230809 89.107522 
L 85.661702 88.723515 
L 87.092412 88.2068 
L 88.523212 88.361125 
L 89.953998 88.236524 
L 91.384863 88.011865 
L 92.815662 88.012471 
L 94.246481 87.711173 
L 95.677428 87.327117 
L 97.108209 87.184074 
L 98.538986 86.905657 
L 99.969733 86.531854 
L 101.400393 86.200675 
L 102.831229 85.671823 
L 104.262048 85.58009 
L 105.692709 85.584349 
L 107.123481 85.40503 
L 108.554276 85.193186 
L 109.984979 85.412693 
L 111.415652 85.532324 
L 112.846472 85.484076 
L 114.277259 85.167477 
L 115.707954 85.471114 
L 117.138761 85.565393 
L 118.569581 85.131007 
L 120.000269 84.710297 
L 121.431218 84.463316 
L 122.862076 84.255518 
L 124.292814 84.019507 
L 125.723595 83.91822 
L 127.154273 83.969338 
L 128.585033 83.626911 
L 130.015887 83.474685 
L 131.446656 83.229308 
L 132.877532 83.060675 
L 134.308317 82.92258 
L 135.739045 82.979605 
L 137.16974 82.751605 
L 138.600489 82.332993 
L 140.031185 82.04512 
L 141.461942 81.94412 
L 142.892692 82.005301 
L 144.323422 82.37728 
L 145.754185 82.438945 
L 147.184914 82.371893 
L 148.615645 82.003538 
L 150.046428 81.63008 
L 151.477149 81.392271 
L 152.908017 80.973497 
L 154.338759 81.142301 
L 155.769659 81.034869 
L 157.200345 80.514267 
L 158.631072 80.18777 
L 160.06188 80.049706 
L 161.492572 79.961595 
L 162.923374 79.884299 
L 164.354085 79.463534 
L 165.784915 79.265208 
L 167.215818 78.842699 
L 168.646656 78.870571 
L 170.077539 78.689449 
L 171.508201 78.34676 
L 172.938862 78.44025 
L 174.369591 78.08981 
L 175.800429 77.812948 
L 177.231165 77.869619 
L 178.661887 77.930809 
L 180.092686 77.512745 
L 181.523389 77.28903 
L 182.954201 77.046425 
L 184.384997 76.462386 
L 185.81567 76.380921 
L 187.24636 76.580388 
L 188.677093 76.165562 
L 190.10788 75.932959 
L 191.53861 75.387278 
L 192.969226 75.266612 
L 194.4 75.050589 
" style="fill:none;stroke:#fc8d62;stroke-dasharray:1.5,2.475;stroke-dashoffset:0;stroke-opacity:0.7;stroke-width:1.5;"/>
   </g>
   <g id="patch_3">
    <path d="M 27 113.806957 
L 27 47.52 
" style="fill:none;stroke:#a9a9a9;stroke-linecap:square;stroke-linejoin:miter;stroke-width:2;"/>
   </g>
   <g id="patch_4">
    <path d="M 194.4 113.806957 
L 194.4 47.52 
" style="fill:none;"/>
   </g>
   <g id="patch_5">
    <path d="M 27 113.806957 
L 194.4 113.806957 
" style="fill:none;stroke:#a9a9a9;stroke-linecap:square;stroke-linejoin:miter;stroke-width:2;"/>
   </g>
   <g id="patch_6">
    <path d="M 27 47.52 
L 194.4 47.52 
" style="fill:none;"/>
   </g>
   <g id="text_5">
    <!-- SNR -->
    <g transform="translate(101.349844 44.52)scale(0.09 -0.09)">
     <defs>
      <path d="M 53.515625 70.515625 
L 53.515625 60.890625 
Q 47.90625 63.578125 42.921875 64.890625 
Q 37.9375 66.21875 33.296875 66.21875 
Q 25.25 66.21875 20.875 63.09375 
Q 16.5 59.96875 16.5 54.203125 
Q 16.5 49.359375 19.40625 46.890625 
Q 22.3125 44.4375 30.421875 42.921875 
L 36.375 41.703125 
Q 47.40625 39.59375 52.65625 34.296875 
Q 57.90625 29 57.90625 20.125 
Q 57.90625 9.515625 50.796875 4.046875 
Q 43.703125 -1.421875 29.984375 -1.421875 
Q 24.8125 -1.421875 18.96875 -0.25 
Q 13.140625 0.921875 6.890625 3.21875 
L 6.890625 13.375 
Q 12.890625 10.015625 18.65625 8.296875 
Q 24.421875 6.59375 29.984375 6.59375 
Q 38.421875 6.59375 43.015625 9.90625 
Q 47.609375 13.234375 47.609375 19.390625 
Q 47.609375 24.75 44.3125 27.78125 
Q 41.015625 30.8125 33.5 32.328125 
L 27.484375 33.5 
Q 16.453125 35.6875 11.515625 40.375 
Q 6.59375 45.0625 6.59375 53.421875 
Q 6.59375 63.09375 13.40625 68.65625 
Q 20.21875 74.21875 32.171875 74.21875 
Q 37.3125 74.21875 42.625 73.28125 
Q 47.953125 72.359375 53.515625 70.515625 
z
" id="DejaVuSans-83"/>
      <path d="M 9.8125 72.90625 
L 23.09375 72.90625 
L 55.421875 11.921875 
L 55.421875 72.90625 
L 64.984375 72.90625 
L 64.984375 0 
L 51.703125 0 
L 19.390625 60.984375 
L 19.390625 0 
L 9.8125 0 
z
" id="DejaVuSans-78"/>
      <path d="M 44.390625 34.1875 
Q 47.5625 33.109375 50.5625 29.59375 
Q 53.5625 26.078125 56.59375 19.921875 
L 66.609375 0 
L 56 0 
L 46.6875 18.703125 
Q 43.0625 26.03125 39.671875 28.421875 
Q 36.28125 30.8125 30.421875 30.8125 
L 19.671875 30.8125 
L 19.671875 0 
L 9.8125 0 
L 9.8125 72.90625 
L 32.078125 72.90625 
Q 44.578125 72.90625 50.734375 67.671875 
Q 56.890625 62.453125 56.890625 51.90625 
Q 56.890625 45.015625 53.6875 40.46875 
Q 50.484375 35.9375 44.390625 34.1875 
z
M 19.671875 64.796875 
L 19.671875 38.921875 
L 32.078125 38.921875 
Q 39.203125 38.921875 42.84375 42.21875 
Q 46.484375 45.515625 46.484375 51.90625 
Q 46.484375 58.296875 42.84375 61.546875 
Q 39.203125 64.796875 32.078125 64.796875 
z
" id="DejaVuSans-82"/>
     </defs>
     <use xlink:href="#DejaVuSans-83"/>
     <use x="63.476562" xlink:href="#DejaVuSans-78"/>
     <use x="138.28125" xlink:href="#DejaVuSans-82"/>
    </g>
   </g>
   <g id="legend_1">
    <g id="patch_7">
     <path d="M 31.9 73.669375 
L 70.33 73.669375 
Q 71.73 73.669375 71.73 72.269375 
L 71.73 52.42 
Q 71.73 51.02 70.33 51.02 
L 31.9 51.02 
Q 30.5 51.02 30.5 52.42 
L 30.5 72.269375 
Q 30.5 73.669375 31.9 73.669375 
z
" style="fill:#ffffff;opacity:0.8;stroke:#cccccc;stroke-linejoin:miter;"/>
    </g>
    <g id="line2d_12">
     <path d="M 33.3 56.688906 
L 47.3 56.688906 
" style="fill:none;stroke:#fc8d62;stroke-linecap:square;stroke-width:2;"/>
    </g>
    <g id="line2d_13"/>
    <g id="text_6">
     <!-- $\theta$ -->
     <g transform="translate(52.9 59.138906)scale(0.07 -0.07)">
      <defs>
       <path d="M 45.515625 34.671875 
L 14.453125 34.671875 
Q 12.359375 20.0625 14.5 13.875 
Q 17.1875 6.25 24.46875 6.25 
Q 31.78125 6.25 37.359375 13.921875 
Q 42.234375 20.65625 45.515625 34.671875 
z
M 47.015625 42.96875 
Q 48.34375 56.84375 46.625 61.71875 
Q 43.953125 69.4375 36.765625 69.4375 
Q 29.296875 69.4375 23.828125 61.8125 
Q 19.53125 55.671875 16.15625 42.96875 
z
M 38.1875 76.765625 
Q 49.90625 76.765625 54.59375 66.40625 
Q 59.28125 56.109375 55.71875 37.84375 
Q 52.203125 19.625 43.453125 9.28125 
Q 34.765625 -1.125 23.046875 -1.125 
Q 11.28125 -1.125 6.640625 9.28125 
Q 2 19.625 5.515625 37.84375 
Q 9.078125 56.109375 17.71875 66.40625 
Q 26.421875 76.765625 38.1875 76.765625 
z
" id="DejaVuSans-Oblique-952"/>
      </defs>
      <use transform="translate(0 0.234375)" xlink:href="#DejaVuSans-Oblique-952"/>
     </g>
    </g>
    <g id="line2d_14">
     <path d="M 33.3 66.963594 
L 47.3 66.963594 
" style="fill:none;stroke:#fc8d62;stroke-dasharray:1.5,2.475;stroke-dashoffset:0;stroke-opacity:0.7;stroke-width:1.5;"/>
    </g>
    <g id="line2d_15"/>
    <g id="text_7">
     <!-- No $\theta$ -->
     <g transform="translate(52.9 69.413594)scale(0.07 -0.07)">
      <defs>
       <path d="M 30.609375 48.390625 
Q 23.390625 48.390625 19.1875 42.75 
Q 14.984375 37.109375 14.984375 27.296875 
Q 14.984375 17.484375 19.15625 11.84375 
Q 23.34375 6.203125 30.609375 6.203125 
Q 37.796875 6.203125 41.984375 11.859375 
Q 46.1875 17.53125 46.1875 27.296875 
Q 46.1875 37.015625 41.984375 42.703125 
Q 37.796875 48.390625 30.609375 48.390625 
z
M 30.609375 56 
Q 42.328125 56 49.015625 48.375 
Q 55.71875 40.765625 55.71875 27.296875 
Q 55.71875 13.875 49.015625 6.21875 
Q 42.328125 -1.421875 30.609375 -1.421875 
Q 18.84375 -1.421875 12.171875 6.21875 
Q 5.515625 13.875 5.515625 27.296875 
Q 5.515625 40.765625 12.171875 48.375 
Q 18.84375 56 30.609375 56 
z
" id="DejaVuSans-111"/>
       <path id="DejaVuSans-32"/>
      </defs>
      <use transform="translate(0 0.234375)" xlink:href="#DejaVuSans-78"/>
      <use transform="translate(74.804688 0.234375)" xlink:href="#DejaVuSans-111"/>
      <use transform="translate(135.986328 0.234375)" xlink:href="#DejaVuSans-32"/>
      <use transform="translate(167.773438 0.234375)" xlink:href="#DejaVuSans-Oblique-952"/>
     </g>
    </g>
   </g>
  </g>
  <g id="axes_2">
   <g id="patch_8">
    <path d="M 27 193.351304 
L 194.4 193.351304 
L 194.4 127.064348 
L 27 127.064348 
z
" style="fill:none;"/>
   </g>
   <g id="matplotlib.axis_3">
    <g id="xtick_6">
     <g id="line2d_16">
      <g>
       <use style="stroke:#000000;stroke-width:0.8;" x="52.753823" xlink:href="#md31331934e" y="193.351304"/>
      </g>
     </g>
    </g>
    <g id="xtick_7">
     <g id="line2d_17">
      <g>
       <use style="stroke:#000000;stroke-width:0.8;" x="81.369245" xlink:href="#md31331934e" y="193.351304"/>
      </g>
     </g>
    </g>
    <g id="xtick_8">
     <g id="line2d_18">
      <g>
       <use style="stroke:#000000;stroke-width:0.8;" x="109.984668" xlink:href="#md31331934e" y="193.351304"/>
      </g>
     </g>
    </g>
    <g id="xtick_9">
     <g id="line2d_19">
      <g>
       <use style="stroke:#000000;stroke-width:0.8;" x="138.60009" xlink:href="#md31331934e" y="193.351304"/>
      </g>
     </g>
    </g>
    <g id="xtick_10">
     <g id="line2d_20">
      <g>
       <use style="stroke:#000000;stroke-width:0.8;" x="167.215512" xlink:href="#md31331934e" y="193.351304"/>
      </g>
     </g>
    </g>
   </g>
   <g id="matplotlib.axis_4">
    <g id="ytick_5">
     <g id="line2d_21">
      <g>
       <use style="stroke:#000000;stroke-width:0.8;" x="27" xlink:href="#m1c6bdd380f" y="193.351304"/>
      </g>
     </g>
     <g id="text_8">
      <!-- 0.00 -->
      <g transform="translate(5.914062 196.010757)scale(0.07 -0.07)">
       <use xlink:href="#DejaVuSans-48"/>
       <use x="63.623047" xlink:href="#DejaVuSans-46"/>
       <use x="95.410156" xlink:href="#DejaVuSans-48"/>
       <use x="159.033203" xlink:href="#DejaVuSans-48"/>
      </g>
     </g>
    </g>
    <g id="ytick_6">
     <g id="line2d_22">
      <g>
       <use style="stroke:#000000;stroke-width:0.8;" x="27" xlink:href="#m1c6bdd380f" y="176.236535"/>
      </g>
     </g>
     <g id="text_9">
      <!-- 0.05 -->
      <g transform="translate(5.914062 178.895988)scale(0.07 -0.07)">
       <use xlink:href="#DejaVuSans-48"/>
       <use x="63.623047" xlink:href="#DejaVuSans-46"/>
       <use x="95.410156" xlink:href="#DejaVuSans-48"/>
       <use x="159.033203" xlink:href="#DejaVuSans-53"/>
      </g>
     </g>
    </g>
    <g id="ytick_7">
     <g id="line2d_23">
      <g>
       <use style="stroke:#000000;stroke-width:0.8;" x="27" xlink:href="#m1c6bdd380f" y="159.121765"/>
      </g>
     </g>
     <g id="text_10">
      <!-- 0.10 -->
      <g transform="translate(5.914062 161.781218)scale(0.07 -0.07)">
       <defs>
        <path d="M 12.40625 8.296875 
L 28.515625 8.296875 
L 28.515625 63.921875 
L 10.984375 60.40625 
L 10.984375 69.390625 
L 28.421875 72.90625 
L 38.28125 72.90625 
L 38.28125 8.296875 
L 54.390625 8.296875 
L 54.390625 0 
L 12.40625 0 
z
" id="DejaVuSans-49"/>
       </defs>
       <use xlink:href="#DejaVuSans-48"/>
       <use x="63.623047" xlink:href="#DejaVuSans-46"/>
       <use x="95.410156" xlink:href="#DejaVuSans-49"/>
       <use x="159.033203" xlink:href="#DejaVuSans-48"/>
      </g>
     </g>
    </g>
    <g id="ytick_8">
     <g id="line2d_24">
      <g>
       <use style="stroke:#000000;stroke-width:0.8;" x="27" xlink:href="#m1c6bdd380f" y="142.006995"/>
      </g>
     </g>
     <g id="text_11">
      <!-- 0.15 -->
      <g transform="translate(5.914062 144.666448)scale(0.07 -0.07)">
       <use xlink:href="#DejaVuSans-48"/>
       <use x="63.623047" xlink:href="#DejaVuSans-46"/>
       <use x="95.410156" xlink:href="#DejaVuSans-49"/>
       <use x="159.033203" xlink:href="#DejaVuSans-53"/>
      </g>
     </g>
    </g>
   </g>
   <g id="line2d_25">
    <path clip-path="url(#p138a06311c)" d="M 27 192.413021 
L 28.430606 191.839487 
L 29.861386 191.35034 
L 31.292064 190.879992 
L 32.722858 190.090599 
L 34.153728 189.524863 
L 35.584551 188.793152 
L 37.015301 187.936611 
L 38.446074 187.155535 
L 39.87691 186.58777 
L 41.307834 185.959693 
L 42.738555 185.411473 
L 44.169321 184.574012 
L 45.600063 183.971401 
L 47.030937 183.400112 
L 48.461711 182.615172 
L 49.892494 182.086116 
L 51.323186 181.260165 
L 52.753825 180.764072 
L 54.184584 180.515658 
L 55.615426 179.845651 
L 57.046178 179.259081 
L 58.476962 178.574504 
L 59.907718 177.800872 
L 61.338495 177.079953 
L 62.769251 176.227502 
L 64.200064 175.991843 
L 65.630983 175.734211 
L 67.061726 175.293046 
L 68.492489 174.843865 
L 69.923241 174.678431 
L 71.353974 174.085515 
L 72.784769 173.438182 
L 74.21551 172.930784 
L 75.64633 172.8276 
L 77.077259 172.637704 
L 78.50798 171.896852 
L 79.938634 171.787251 
L 81.369398 171.510676 
L 82.800072 170.60867 
L 84.230809 170.091958 
L 85.661702 169.381028 
L 87.092412 168.222081 
L 88.523212 167.72201 
L 89.953998 167.208048 
L 91.384863 167.068007 
L 92.815662 166.773605 
L 94.246481 166.650094 
L 95.677428 166.428529 
L 97.108209 165.918323 
L 98.538986 165.561567 
L 99.969733 165.107879 
L 101.400393 164.734987 
L 102.831229 163.858675 
L 104.262048 163.154824 
L 105.692709 162.402259 
L 107.123481 162.132277 
L 108.554276 162.384377 
L 109.984979 162.011702 
L 111.415652 161.542876 
L 112.846472 160.332686 
L 114.277259 159.690449 
L 115.707954 159.042131 
L 117.138761 158.999777 
L 118.569581 157.962776 
L 120.000269 158.063714 
L 121.431218 157.474584 
L 122.862076 156.629995 
L 124.292814 156.39773 
L 125.723595 155.703063 
L 127.154273 154.92712 
L 128.585033 154.434794 
L 130.015887 153.898185 
L 131.446656 153.338776 
L 132.877532 152.997693 
L 134.308317 152.595431 
L 135.739045 151.797856 
L 137.16974 151.394755 
L 138.600489 150.970689 
L 140.031185 150.558237 
L 141.461942 149.87854 
L 142.892692 149.16751 
L 144.323422 148.55791 
L 145.754185 148.447712 
L 147.184914 147.259478 
L 148.615645 146.337824 
L 150.046428 145.727633 
L 151.477149 145.515911 
L 152.908017 144.701819 
L 154.338759 144.777686 
L 155.769659 144.540691 
L 157.200345 143.814773 
L 158.631072 143.253274 
L 160.06188 143.026454 
L 161.492572 142.259628 
L 162.923374 140.661757 
L 164.354085 139.838769 
L 165.784915 140.020596 
L 167.215818 138.954953 
L 168.646656 138.058495 
L 170.077539 137.85962 
L 171.508201 137.093724 
L 172.938862 136.332176 
L 174.369591 135.362898 
L 175.800429 134.234352 
L 177.231165 134.095596 
L 178.661887 133.542258 
L 180.092686 132.88265 
L 181.523389 132.35571 
L 182.954201 131.305065 
L 184.384997 130.632284 
L 185.81567 130.263799 
L 187.24636 130.232381 
L 188.677093 129.110899 
L 190.10788 128.884009 
L 191.53861 128.024832 
L 192.969226 127.293593 
L 194.4 127.064348 
" style="fill:none;stroke:#fc8d62;stroke-linecap:square;stroke-width:2;"/>
   </g>
   <g id="line2d_26">
    <path clip-path="url(#p138a06311c)" d="M 27 192.29475 
L 28.430606 191.758298 
L 29.861386 191.347858 
L 31.292064 190.605927 
L 32.722858 190.222628 
L 34.153728 189.7836 
L 35.584551 189.217141 
L 37.015301 188.530786 
L 38.446074 187.885828 
L 39.87691 187.317536 
L 41.307834 186.93145 
L 42.738555 186.515872 
L 44.169321 185.838987 
L 45.600063 185.30176 
L 47.030937 184.954324 
L 48.461711 184.69303 
L 49.892494 183.77076 
L 51.323186 183.153605 
L 52.753825 182.656442 
L 54.184584 182.268956 
L 55.615426 181.746335 
L 57.046178 181.483904 
L 58.476962 181.212247 
L 59.907718 180.517104 
L 61.338495 179.921655 
L 62.769251 179.437856 
L 64.200064 178.729513 
L 65.630983 178.118582 
L 67.061726 177.609022 
L 68.492489 177.151197 
L 69.923241 176.292233 
L 71.353974 175.612377 
L 72.784769 175.336855 
L 74.21551 174.844907 
L 75.64633 174.556579 
L 77.077259 174.086181 
L 78.50798 173.690109 
L 79.938634 173.073843 
L 81.369398 172.48513 
L 82.800072 172.570478 
L 84.230809 171.840058 
L 85.661702 171.596047 
L 87.092412 170.976543 
L 88.523212 169.703008 
L 89.953998 169.115621 
L 91.384863 168.493607 
L 92.815662 167.920495 
L 94.246481 166.987001 
L 95.677428 166.335168 
L 97.108209 165.750465 
L 98.538986 165.135036 
L 99.969733 164.943405 
L 101.400393 164.447132 
L 102.831229 164.038641 
L 104.262048 163.725442 
L 105.692709 162.924153 
L 107.123481 161.512699 
L 108.554276 161.448784 
L 109.984979 160.27175 
L 111.415652 159.355353 
L 112.846472 159.031673 
L 114.277259 158.690945 
L 115.707954 157.691786 
L 117.138761 156.695753 
L 118.569581 156.741873 
L 120.000269 156.550773 
L 121.431218 155.671547 
L 122.862076 154.761393 
L 124.292814 154.370232 
L 125.723595 153.724188 
L 127.154273 153.304329 
L 128.585033 152.603761 
L 130.015887 152.134553 
L 131.446656 151.536253 
L 132.877532 151.562786 
L 134.308317 151.305311 
L 135.739045 150.67658 
L 137.16974 150.623714 
L 138.600489 149.995814 
L 140.031185 149.315255 
L 141.461942 149.047856 
L 142.892692 148.285694 
L 144.323422 147.538902 
L 145.754185 146.867812 
L 147.184914 146.910536 
L 148.615645 146.708548 
L 150.046428 146.467132 
L 151.477149 146.144566 
L 152.908017 145.410068 
L 154.338759 144.78993 
L 155.769659 144.182567 
L 157.200345 143.823567 
L 158.631072 143.53372 
L 160.06188 142.524922 
L 161.492572 142.012743 
L 162.923374 141.219009 
L 164.354085 140.673068 
L 165.784915 140.137175 
L 167.215818 140.603293 
L 168.646656 139.874188 
L 170.077539 139.742168 
L 171.508201 139.674791 
L 172.938862 139.167515 
L 174.369591 138.139828 
L 175.800429 137.560715 
L 177.231165 137.038644 
L 178.661887 135.729991 
L 180.092686 135.395861 
L 181.523389 134.550319 
L 182.954201 133.602037 
L 184.384997 133.859005 
L 185.81567 133.514704 
L 187.24636 132.17057 
L 188.677093 131.293621 
L 190.10788 131.054958 
L 191.53861 131.234203 
L 192.969226 130.959655 
L 194.4 131.000168 
" style="fill:none;stroke:#fc8d62;stroke-dasharray:1.5,2.475;stroke-dashoffset:0;stroke-opacity:0.7;stroke-width:1.5;"/>
   </g>
   <g id="patch_9">
    <path d="M 27 193.351304 
L 27 127.064348 
" style="fill:none;stroke:#a9a9a9;stroke-linecap:square;stroke-linejoin:miter;stroke-width:2;"/>
   </g>
   <g id="patch_10">
    <path d="M 194.4 193.351304 
L 194.4 127.064348 
" style="fill:none;"/>
   </g>
   <g id="patch_11">
    <path d="M 27 193.351304 
L 194.4 193.351304 
" style="fill:none;stroke:#a9a9a9;stroke-linecap:square;stroke-linejoin:miter;stroke-width:2;"/>
   </g>
   <g id="patch_12">
    <path d="M 27 127.064348 
L 194.4 127.064348 
" style="fill:none;"/>
   </g>
   <g id="text_12">
    <!-- Variance -->
    <g transform="translate(91.26 124.064348)scale(0.09 -0.09)">
     <defs>
      <path d="M 28.609375 0 
L 0.78125 72.90625 
L 11.078125 72.90625 
L 34.1875 11.53125 
L 57.328125 72.90625 
L 67.578125 72.90625 
L 39.796875 0 
z
" id="DejaVuSans-86"/>
      <path d="M 34.28125 27.484375 
Q 23.390625 27.484375 19.1875 25 
Q 14.984375 22.515625 14.984375 16.5 
Q 14.984375 11.71875 18.140625 8.90625 
Q 21.296875 6.109375 26.703125 6.109375 
Q 34.1875 6.109375 38.703125 11.40625 
Q 43.21875 16.703125 43.21875 25.484375 
L 43.21875 27.484375 
z
M 52.203125 31.203125 
L 52.203125 0 
L 43.21875 0 
L 43.21875 8.296875 
Q 40.140625 3.328125 35.546875 0.953125 
Q 30.953125 -1.421875 24.3125 -1.421875 
Q 15.921875 -1.421875 10.953125 3.296875 
Q 6 8.015625 6 15.921875 
Q 6 25.140625 12.171875 29.828125 
Q 18.359375 34.515625 30.609375 34.515625 
L 43.21875 34.515625 
L 43.21875 35.40625 
Q 43.21875 41.609375 39.140625 45 
Q 35.0625 48.390625 27.6875 48.390625 
Q 23 48.390625 18.546875 47.265625 
Q 14.109375 46.140625 10.015625 43.890625 
L 10.015625 52.203125 
Q 14.9375 54.109375 19.578125 55.046875 
Q 24.21875 56 28.609375 56 
Q 40.484375 56 46.34375 49.84375 
Q 52.203125 43.703125 52.203125 31.203125 
z
" id="DejaVuSans-97"/>
      <path d="M 41.109375 46.296875 
Q 39.59375 47.171875 37.8125 47.578125 
Q 36.03125 48 33.890625 48 
Q 26.265625 48 22.1875 43.046875 
Q 18.109375 38.09375 18.109375 28.8125 
L 18.109375 0 
L 9.078125 0 
L 9.078125 54.6875 
L 18.109375 54.6875 
L 18.109375 46.1875 
Q 20.953125 51.171875 25.484375 53.578125 
Q 30.03125 56 36.53125 56 
Q 37.453125 56 38.578125 55.875 
Q 39.703125 55.765625 41.0625 55.515625 
z
" id="DejaVuSans-114"/>
      <path d="M 9.421875 54.6875 
L 18.40625 54.6875 
L 18.40625 0 
L 9.421875 0 
z
M 9.421875 75.984375 
L 18.40625 75.984375 
L 18.40625 64.59375 
L 9.421875 64.59375 
z
" id="DejaVuSans-105"/>
      <path d="M 54.890625 33.015625 
L 54.890625 0 
L 45.90625 0 
L 45.90625 32.71875 
Q 45.90625 40.484375 42.875 44.328125 
Q 39.84375 48.1875 33.796875 48.1875 
Q 26.515625 48.1875 22.3125 43.546875 
Q 18.109375 38.921875 18.109375 30.90625 
L 18.109375 0 
L 9.078125 0 
L 9.078125 54.6875 
L 18.109375 54.6875 
L 18.109375 46.1875 
Q 21.34375 51.125 25.703125 53.5625 
Q 30.078125 56 35.796875 56 
Q 45.21875 56 50.046875 50.171875 
Q 54.890625 44.34375 54.890625 33.015625 
z
" id="DejaVuSans-110"/>
      <path d="M 48.78125 52.59375 
L 48.78125 44.1875 
Q 44.96875 46.296875 41.140625 47.34375 
Q 37.3125 48.390625 33.40625 48.390625 
Q 24.65625 48.390625 19.8125 42.84375 
Q 14.984375 37.3125 14.984375 27.296875 
Q 14.984375 17.28125 19.8125 11.734375 
Q 24.65625 6.203125 33.40625 6.203125 
Q 37.3125 6.203125 41.140625 7.25 
Q 44.96875 8.296875 48.78125 10.40625 
L 48.78125 2.09375 
Q 45.015625 0.34375 40.984375 -0.53125 
Q 36.96875 -1.421875 32.421875 -1.421875 
Q 20.0625 -1.421875 12.78125 6.34375 
Q 5.515625 14.109375 5.515625 27.296875 
Q 5.515625 40.671875 12.859375 48.328125 
Q 20.21875 56 33.015625 56 
Q 37.15625 56 41.109375 55.140625 
Q 45.0625 54.296875 48.78125 52.59375 
z
" id="DejaVuSans-99"/>
      <path d="M 56.203125 29.59375 
L 56.203125 25.203125 
L 14.890625 25.203125 
Q 15.484375 15.921875 20.484375 11.0625 
Q 25.484375 6.203125 34.421875 6.203125 
Q 39.59375 6.203125 44.453125 7.46875 
Q 49.3125 8.734375 54.109375 11.28125 
L 54.109375 2.78125 
Q 49.265625 0.734375 44.1875 -0.34375 
Q 39.109375 -1.421875 33.890625 -1.421875 
Q 20.796875 -1.421875 13.15625 6.1875 
Q 5.515625 13.8125 5.515625 26.8125 
Q 5.515625 40.234375 12.765625 48.109375 
Q 20.015625 56 32.328125 56 
Q 43.359375 56 49.78125 48.890625 
Q 56.203125 41.796875 56.203125 29.59375 
z
M 47.21875 32.234375 
Q 47.125 39.59375 43.09375 43.984375 
Q 39.0625 48.390625 32.421875 48.390625 
Q 24.90625 48.390625 20.390625 44.140625 
Q 15.875 39.890625 15.1875 32.171875 
z
" id="DejaVuSans-101"/>
     </defs>
     <use xlink:href="#DejaVuSans-86"/>
     <use x="60.658203" xlink:href="#DejaVuSans-97"/>
     <use x="121.9375" xlink:href="#DejaVuSans-114"/>
     <use x="163.050781" xlink:href="#DejaVuSans-105"/>
     <use x="190.833984" xlink:href="#DejaVuSans-97"/>
     <use x="252.113281" xlink:href="#DejaVuSans-110"/>
     <use x="315.492188" xlink:href="#DejaVuSans-99"/>
     <use x="370.472656" xlink:href="#DejaVuSans-101"/>
    </g>
   </g>
  </g>
  <g id="axes_3">
   <g id="patch_13">
    <path d="M 27 272.895652 
L 194.4 272.895652 
L 194.4 206.608696 
L 27 206.608696 
z
" style="fill:none;"/>
   </g>
   <g id="matplotlib.axis_5">
    <g id="xtick_11">
     <g id="line2d_27">
      <g>
       <use style="stroke:#000000;stroke-width:0.8;" x="52.753823" xlink:href="#md31331934e" y="272.895652"/>
      </g>
     </g>
    </g>
    <g id="xtick_12">
     <g id="line2d_28">
      <g>
       <use style="stroke:#000000;stroke-width:0.8;" x="81.369245" xlink:href="#md31331934e" y="272.895652"/>
      </g>
     </g>
    </g>
    <g id="xtick_13">
     <g id="line2d_29">
      <g>
       <use style="stroke:#000000;stroke-width:0.8;" x="109.984668" xlink:href="#md31331934e" y="272.895652"/>
      </g>
     </g>
    </g>
    <g id="xtick_14">
     <g id="line2d_30">
      <g>
       <use style="stroke:#000000;stroke-width:0.8;" x="138.60009" xlink:href="#md31331934e" y="272.895652"/>
      </g>
     </g>
    </g>
    <g id="xtick_15">
     <g id="line2d_31">
      <g>
       <use style="stroke:#000000;stroke-width:0.8;" x="167.215512" xlink:href="#md31331934e" y="272.895652"/>
      </g>
     </g>
    </g>
   </g>
   <g id="matplotlib.axis_6">
    <g id="ytick_9">
     <g id="line2d_32">
      <g>
       <use style="stroke:#000000;stroke-width:0.8;" x="27" xlink:href="#m1c6bdd380f" y="257.329261"/>
      </g>
     </g>
     <g id="text_13">
      <!-- 0.05 -->
      <g transform="translate(5.914062 259.988715)scale(0.07 -0.07)">
       <use xlink:href="#DejaVuSans-48"/>
       <use x="63.623047" xlink:href="#DejaVuSans-46"/>
       <use x="95.410156" xlink:href="#DejaVuSans-48"/>
       <use x="159.033203" xlink:href="#DejaVuSans-53"/>
      </g>
     </g>
    </g>
    <g id="ytick_10">
     <g id="line2d_33">
      <g>
       <use style="stroke:#000000;stroke-width:0.8;" x="27" xlink:href="#m1c6bdd380f" y="225.763573"/>
      </g>
     </g>
     <g id="text_14">
      <!-- 0.06 -->
      <g transform="translate(5.914062 228.423027)scale(0.07 -0.07)">
       <defs>
        <path d="M 33.015625 40.375 
Q 26.375 40.375 22.484375 35.828125 
Q 18.609375 31.296875 18.609375 23.390625 
Q 18.609375 15.53125 22.484375 10.953125 
Q 26.375 6.390625 33.015625 6.390625 
Q 39.65625 6.390625 43.53125 10.953125 
Q 47.40625 15.53125 47.40625 23.390625 
Q 47.40625 31.296875 43.53125 35.828125 
Q 39.65625 40.375 33.015625 40.375 
z
M 52.59375 71.296875 
L 52.59375 62.3125 
Q 48.875 64.0625 45.09375 64.984375 
Q 41.3125 65.921875 37.59375 65.921875 
Q 27.828125 65.921875 22.671875 59.328125 
Q 17.53125 52.734375 16.796875 39.40625 
Q 19.671875 43.65625 24.015625 45.921875 
Q 28.375 48.1875 33.59375 48.1875 
Q 44.578125 48.1875 50.953125 41.515625 
Q 57.328125 34.859375 57.328125 23.390625 
Q 57.328125 12.15625 50.6875 5.359375 
Q 44.046875 -1.421875 33.015625 -1.421875 
Q 20.359375 -1.421875 13.671875 8.265625 
Q 6.984375 17.96875 6.984375 36.375 
Q 6.984375 53.65625 15.1875 63.9375 
Q 23.390625 74.21875 37.203125 74.21875 
Q 40.921875 74.21875 44.703125 73.484375 
Q 48.484375 72.75 52.59375 71.296875 
z
" id="DejaVuSans-54"/>
       </defs>
       <use xlink:href="#DejaVuSans-48"/>
       <use x="63.623047" xlink:href="#DejaVuSans-46"/>
       <use x="95.410156" xlink:href="#DejaVuSans-48"/>
       <use x="159.033203" xlink:href="#DejaVuSans-54"/>
      </g>
     </g>
    </g>
   </g>
   <g id="line2d_34">
    <path clip-path="url(#pd0f0d4d808)" d="M 27 206.608696 
L 28.430606 208.116304 
L 29.861386 209.345801 
L 31.292064 210.85827 
L 32.722858 211.265884 
L 34.153728 212.111295 
L 35.584551 213.176723 
L 37.015301 213.275861 
L 38.446074 214.122489 
L 39.87691 214.65902 
L 41.307834 215.123162 
L 42.738555 216.258893 
L 44.169321 217.200145 
L 45.600063 216.876462 
L 47.030937 217.565804 
L 48.461711 219.029633 
L 49.892494 219.535636 
L 51.323186 219.383692 
L 52.753825 219.941721 
L 54.184584 221.764978 
L 55.615426 221.799391 
L 57.046178 222.002453 
L 58.476962 222.58609 
L 59.907718 223.004625 
L 61.338495 223.107076 
L 62.769251 224.260749 
L 64.200064 224.751227 
L 65.630983 225.612062 
L 67.061726 226.48145 
L 68.492489 227.50685 
L 69.923241 228.278738 
L 71.353974 229.827228 
L 72.784769 230.229878 
L 74.21551 230.474758 
L 75.64633 231.721305 
L 77.077259 232.922553 
L 78.50798 233.124121 
L 79.938634 233.393434 
L 81.369398 234.983623 
L 82.800072 236.383084 
L 84.230809 236.321127 
L 85.661702 235.791064 
L 87.092412 235.883419 
L 88.523212 237.109664 
L 89.953998 237.203362 
L 91.384863 237.563539 
L 92.815662 237.817187 
L 94.246481 238.840807 
L 95.677428 238.163671 
L 97.108209 237.153442 
L 98.538986 237.438457 
L 99.969733 238.83902 
L 101.400393 239.108012 
L 102.831229 239.424186 
L 104.262048 239.383273 
L 105.692709 240.173907 
L 107.123481 240.807766 
L 108.554276 241.656741 
L 109.984979 241.881767 
L 111.415652 241.24702 
L 112.846472 240.099679 
L 114.277259 241.037303 
L 115.707954 241.553641 
L 117.138761 241.492632 
L 118.569581 240.937569 
L 120.000269 242.087846 
L 121.431218 241.557689 
L 122.862076 241.345038 
L 124.292814 241.535771 
L 125.723595 241.462984 
L 127.154273 241.303049 
L 128.585033 241.701588 
L 130.015887 242.511888 
L 131.446656 242.79955 
L 132.877532 243.439944 
L 134.308317 243.231424 
L 135.739045 244.291688 
L 137.16974 244.40113 
L 138.600489 244.602904 
L 140.031185 243.860434 
L 141.461942 243.559177 
L 142.892692 243.958724 
L 144.323422 244.740977 
L 145.754185 244.944236 
L 147.184914 244.644279 
L 148.615645 245.168874 
L 150.046428 245.143944 
L 151.477149 245.202832 
L 152.908017 246.262395 
L 154.338759 246.868833 
L 155.769659 248.875096 
L 157.200345 249.452041 
L 158.631072 249.692165 
L 160.06188 250.026487 
L 161.492572 250.463295 
L 162.923374 250.279308 
L 164.354085 249.840121 
L 165.784915 250.34217 
L 167.215818 251.032932 
L 168.646656 251.865592 
L 170.077539 252.627085 
L 171.508201 252.666885 
L 172.938862 252.317824 
L 174.369591 252.686409 
L 175.800429 252.364065 
L 177.231165 252.274089 
L 178.661887 252.681528 
L 180.092686 253.35484 
L 181.523389 254.141388 
L 182.954201 255.461299 
L 184.384997 256.032346 
L 185.81567 255.746454 
L 187.24636 256.083052 
L 188.677093 256.389862 
L 190.10788 256.969711 
L 191.53861 258.609325 
L 192.969226 258.689612 
L 194.4 258.878283 
" style="fill:none;stroke:#fc8d62;stroke-linecap:square;stroke-width:2;"/>
   </g>
   <g id="line2d_35">
    <path clip-path="url(#pd0f0d4d808)" d="M 27 206.814831 
L 28.430606 207.8855 
L 29.861386 208.35908 
L 31.292064 208.628927 
L 32.722858 209.852108 
L 34.153728 210.591189 
L 35.584551 211.463267 
L 37.015301 211.840746 
L 38.446074 211.997088 
L 39.87691 212.640088 
L 41.307834 213.157798 
L 42.738555 213.809902 
L 44.169321 214.096466 
L 45.600063 215.235299 
L 47.030937 215.932721 
L 48.461711 216.721441 
L 49.892494 216.589089 
L 51.323186 217.079788 
L 52.753825 217.681942 
L 54.184584 218.661009 
L 55.615426 219.182782 
L 57.046178 219.447168 
L 58.476962 220.764533 
L 59.907718 221.949895 
L 61.338495 223.210209 
L 62.769251 223.930559 
L 64.200064 225.464169 
L 65.630983 225.2633 
L 67.061726 225.308011 
L 68.492489 226.447759 
L 69.923241 227.058647 
L 71.353974 226.472216 
L 72.784769 228.237568 
L 74.21551 228.430543 
L 75.64633 230.030652 
L 77.077259 230.539289 
L 78.50798 230.269833 
L 79.938634 232.165555 
L 81.369398 233.721199 
L 82.800072 233.64895 
L 84.230809 232.690474 
L 85.661702 233.021857 
L 87.092412 233.323426 
L 88.523212 233.707466 
L 89.953998 233.859466 
L 91.384863 233.95133 
L 92.815662 234.429026 
L 94.246481 233.728163 
L 95.677428 234.891399 
L 97.108209 235.197346 
L 98.538986 235.462968 
L 99.969733 236.236043 
L 101.400393 236.443225 
L 102.831229 236.734986 
L 104.262048 237.708323 
L 105.692709 237.554406 
L 107.123481 237.334547 
L 108.554276 237.57846 
L 109.984979 237.640107 
L 111.415652 237.902813 
L 112.846472 238.644226 
L 114.277259 239.798458 
L 115.707954 239.815353 
L 117.138761 240.444828 
L 118.569581 242.420825 
L 120.000269 243.205217 
L 121.431218 243.614228 
L 122.862076 244.323183 
L 124.292814 244.774012 
L 125.723595 244.264768 
L 127.154273 244.594994 
L 128.585033 243.984893 
L 130.015887 244.015975 
L 131.446656 244.462477 
L 132.877532 244.105063 
L 134.308317 244.406238 
L 135.739045 245.061042 
L 137.16974 247.383568 
L 138.600489 247.525682 
L 140.031185 248.013597 
L 141.461942 248.791177 
L 142.892692 250.106115 
L 144.323422 249.704718 
L 145.754185 250.628414 
L 147.184914 251.673625 
L 148.615645 252.761807 
L 150.046428 254.96484 
L 151.477149 256.90969 
L 152.908017 257.515206 
L 154.338759 256.929662 
L 155.769659 255.85431 
L 157.200345 256.696109 
L 158.631072 257.165402 
L 160.06188 257.21395 
L 161.492572 259.028205 
L 162.923374 259.63842 
L 164.354085 259.683741 
L 165.784915 259.212067 
L 167.215818 260.757265 
L 168.646656 261.742451 
L 170.077539 262.620417 
L 171.508201 263.748566 
L 172.938862 265.10127 
L 174.369591 265.632808 
L 175.800429 263.387471 
L 177.231165 263.78121 
L 178.661887 263.778847 
L 180.092686 263.919282 
L 181.523389 264.669477 
L 182.954201 262.92931 
L 184.384997 265.031905 
L 185.81567 267.323412 
L 187.24636 269.425933 
L 188.677093 270.98834 
L 190.10788 271.003659 
L 191.53861 271.53291 
L 192.969226 271.854262 
L 194.4 272.895652 
" style="fill:none;stroke:#fc8d62;stroke-dasharray:1.5,2.475;stroke-dashoffset:0;stroke-opacity:0.7;stroke-width:1.5;"/>
   </g>
   <g id="patch_14">
    <path d="M 27 272.895652 
L 27 206.608696 
" style="fill:none;stroke:#a9a9a9;stroke-linecap:square;stroke-linejoin:miter;stroke-width:2;"/>
   </g>
   <g id="patch_15">
    <path d="M 194.4 272.895652 
L 194.4 206.608696 
" style="fill:none;"/>
   </g>
   <g id="patch_16">
    <path d="M 27 272.895652 
L 194.4 272.895652 
" style="fill:none;stroke:#a9a9a9;stroke-linecap:square;stroke-linejoin:miter;stroke-width:2;"/>
   </g>
   <g id="patch_17">
    <path d="M 27 206.608696 
L 194.4 206.608696 
" style="fill:none;"/>
   </g>
   <g id="text_15">
    <!-- L2 Error -->
    <g transform="translate(92.932734 203.608696)scale(0.09 -0.09)">
     <defs>
      <path d="M 9.8125 72.90625 
L 19.671875 72.90625 
L 19.671875 8.296875 
L 55.171875 8.296875 
L 55.171875 0 
L 9.8125 0 
z
" id="DejaVuSans-76"/>
      <path d="M 9.8125 72.90625 
L 55.90625 72.90625 
L 55.90625 64.59375 
L 19.671875 64.59375 
L 19.671875 43.015625 
L 54.390625 43.015625 
L 54.390625 34.71875 
L 19.671875 34.71875 
L 19.671875 8.296875 
L 56.78125 8.296875 
L 56.78125 0 
L 9.8125 0 
z
" id="DejaVuSans-69"/>
     </defs>
     <use xlink:href="#DejaVuSans-76"/>
     <use x="55.712891" xlink:href="#DejaVuSans-50"/>
     <use x="119.335938" xlink:href="#DejaVuSans-32"/>
     <use x="151.123047" xlink:href="#DejaVuSans-69"/>
     <use x="214.306641" xlink:href="#DejaVuSans-114"/>
     <use x="253.669922" xlink:href="#DejaVuSans-114"/>
     <use x="292.533203" xlink:href="#DejaVuSans-111"/>
     <use x="353.714844" xlink:href="#DejaVuSans-114"/>
    </g>
   </g>
  </g>
  <g id="axes_4">
   <g id="patch_18">
    <path d="M 27 352.44 
L 194.4 352.44 
L 194.4 286.153043 
L 27 286.153043 
z
" style="fill:none;"/>
   </g>
   <g id="matplotlib.axis_7">
    <g id="xtick_16">
     <g id="line2d_36">
      <g>
       <use style="stroke:#000000;stroke-width:0.8;" x="52.753823" xlink:href="#md31331934e" y="352.44"/>
      </g>
     </g>
     <g id="text_16">
      <!-- 10 -->
      <g transform="translate(48.300073 363.258906)scale(0.07 -0.07)">
       <use xlink:href="#DejaVuSans-49"/>
       <use x="63.623047" xlink:href="#DejaVuSans-48"/>
      </g>
     </g>
    </g>
    <g id="xtick_17">
     <g id="line2d_37">
      <g>
       <use style="stroke:#000000;stroke-width:0.8;" x="81.369245" xlink:href="#md31331934e" y="352.44"/>
      </g>
     </g>
     <g id="text_17">
      <!-- 20 -->
      <g transform="translate(76.915495 363.258906)scale(0.07 -0.07)">
       <use xlink:href="#DejaVuSans-50"/>
       <use x="63.623047" xlink:href="#DejaVuSans-48"/>
      </g>
     </g>
    </g>
    <g id="xtick_18">
     <g id="line2d_38">
      <g>
       <use style="stroke:#000000;stroke-width:0.8;" x="109.984668" xlink:href="#md31331934e" y="352.44"/>
      </g>
     </g>
     <g id="text_18">
      <!-- 30 -->
      <g transform="translate(105.530918 363.258906)scale(0.07 -0.07)">
       <defs>
        <path d="M 40.578125 39.3125 
Q 47.65625 37.796875 51.625 33 
Q 55.609375 28.21875 55.609375 21.1875 
Q 55.609375 10.40625 48.1875 4.484375 
Q 40.765625 -1.421875 27.09375 -1.421875 
Q 22.515625 -1.421875 17.65625 -0.515625 
Q 12.796875 0.390625 7.625 2.203125 
L 7.625 11.71875 
Q 11.71875 9.328125 16.59375 8.109375 
Q 21.484375 6.890625 26.8125 6.890625 
Q 36.078125 6.890625 40.9375 10.546875 
Q 45.796875 14.203125 45.796875 21.1875 
Q 45.796875 27.640625 41.28125 31.265625 
Q 36.765625 34.90625 28.71875 34.90625 
L 20.21875 34.90625 
L 20.21875 43.015625 
L 29.109375 43.015625 
Q 36.375 43.015625 40.234375 45.921875 
Q 44.09375 48.828125 44.09375 54.296875 
Q 44.09375 59.90625 40.109375 62.90625 
Q 36.140625 65.921875 28.71875 65.921875 
Q 24.65625 65.921875 20.015625 65.03125 
Q 15.375 64.15625 9.8125 62.3125 
L 9.8125 71.09375 
Q 15.4375 72.65625 20.34375 73.4375 
Q 25.25 74.21875 29.59375 74.21875 
Q 40.828125 74.21875 47.359375 69.109375 
Q 53.90625 64.015625 53.90625 55.328125 
Q 53.90625 49.265625 50.4375 45.09375 
Q 46.96875 40.921875 40.578125 39.3125 
z
" id="DejaVuSans-51"/>
       </defs>
       <use xlink:href="#DejaVuSans-51"/>
       <use x="63.623047" xlink:href="#DejaVuSans-48"/>
      </g>
     </g>
    </g>
    <g id="xtick_19">
     <g id="line2d_39">
      <g>
       <use style="stroke:#000000;stroke-width:0.8;" x="138.60009" xlink:href="#md31331934e" y="352.44"/>
      </g>
     </g>
     <g id="text_19">
      <!-- 40 -->
      <g transform="translate(134.14634 363.258906)scale(0.07 -0.07)">
       <defs>
        <path d="M 37.796875 64.3125 
L 12.890625 25.390625 
L 37.796875 25.390625 
z
M 35.203125 72.90625 
L 47.609375 72.90625 
L 47.609375 25.390625 
L 58.015625 25.390625 
L 58.015625 17.1875 
L 47.609375 17.1875 
L 47.609375 0 
L 37.796875 0 
L 37.796875 17.1875 
L 4.890625 17.1875 
L 4.890625 26.703125 
z
" id="DejaVuSans-52"/>
       </defs>
       <use xlink:href="#DejaVuSans-52"/>
       <use x="63.623047" xlink:href="#DejaVuSans-48"/>
      </g>
     </g>
    </g>
    <g id="xtick_20">
     <g id="line2d_40">
      <g>
       <use style="stroke:#000000;stroke-width:0.8;" x="167.215512" xlink:href="#md31331934e" y="352.44"/>
      </g>
     </g>
     <g id="text_20">
      <!-- 50 -->
      <g transform="translate(162.761762 363.258906)scale(0.07 -0.07)">
       <use xlink:href="#DejaVuSans-53"/>
       <use x="63.623047" xlink:href="#DejaVuSans-48"/>
      </g>
     </g>
    </g>
    <g id="text_21">
     <!-- Exploration time -->
     <g transform="translate(81.773594 372.033594)scale(0.07 -0.07)">
      <defs>
       <path d="M 54.890625 54.6875 
L 35.109375 28.078125 
L 55.90625 0 
L 45.3125 0 
L 29.390625 21.484375 
L 13.484375 0 
L 2.875 0 
L 24.125 28.609375 
L 4.6875 54.6875 
L 15.28125 54.6875 
L 29.78125 35.203125 
L 44.28125 54.6875 
z
" id="DejaVuSans-120"/>
       <path d="M 18.109375 8.203125 
L 18.109375 -20.796875 
L 9.078125 -20.796875 
L 9.078125 54.6875 
L 18.109375 54.6875 
L 18.109375 46.390625 
Q 20.953125 51.265625 25.265625 53.625 
Q 29.59375 56 35.59375 56 
Q 45.5625 56 51.78125 48.09375 
Q 58.015625 40.1875 58.015625 27.296875 
Q 58.015625 14.40625 51.78125 6.484375 
Q 45.5625 -1.421875 35.59375 -1.421875 
Q 29.59375 -1.421875 25.265625 0.953125 
Q 20.953125 3.328125 18.109375 8.203125 
z
M 48.6875 27.296875 
Q 48.6875 37.203125 44.609375 42.84375 
Q 40.53125 48.484375 33.40625 48.484375 
Q 26.265625 48.484375 22.1875 42.84375 
Q 18.109375 37.203125 18.109375 27.296875 
Q 18.109375 17.390625 22.1875 11.75 
Q 26.265625 6.109375 33.40625 6.109375 
Q 40.53125 6.109375 44.609375 11.75 
Q 48.6875 17.390625 48.6875 27.296875 
z
" id="DejaVuSans-112"/>
       <path d="M 9.421875 75.984375 
L 18.40625 75.984375 
L 18.40625 0 
L 9.421875 0 
z
" id="DejaVuSans-108"/>
       <path d="M 18.3125 70.21875 
L 18.3125 54.6875 
L 36.8125 54.6875 
L 36.8125 47.703125 
L 18.3125 47.703125 
L 18.3125 18.015625 
Q 18.3125 11.328125 20.140625 9.421875 
Q 21.96875 7.515625 27.59375 7.515625 
L 36.8125 7.515625 
L 36.8125 0 
L 27.59375 0 
Q 17.1875 0 13.234375 3.875 
Q 9.28125 7.765625 9.28125 18.015625 
L 9.28125 47.703125 
L 2.6875 47.703125 
L 2.6875 54.6875 
L 9.28125 54.6875 
L 9.28125 70.21875 
z
" id="DejaVuSans-116"/>
       <path d="M 52 44.1875 
Q 55.375 50.25 60.0625 53.125 
Q 64.75 56 71.09375 56 
Q 79.640625 56 84.28125 50.015625 
Q 88.921875 44.046875 88.921875 33.015625 
L 88.921875 0 
L 79.890625 0 
L 79.890625 32.71875 
Q 79.890625 40.578125 77.09375 44.375 
Q 74.3125 48.1875 68.609375 48.1875 
Q 61.625 48.1875 57.5625 43.546875 
Q 53.515625 38.921875 53.515625 30.90625 
L 53.515625 0 
L 44.484375 0 
L 44.484375 32.71875 
Q 44.484375 40.625 41.703125 44.40625 
Q 38.921875 48.1875 33.109375 48.1875 
Q 26.21875 48.1875 22.15625 43.53125 
Q 18.109375 38.875 18.109375 30.90625 
L 18.109375 0 
L 9.078125 0 
L 9.078125 54.6875 
L 18.109375 54.6875 
L 18.109375 46.1875 
Q 21.1875 51.21875 25.484375 53.609375 
Q 29.78125 56 35.6875 56 
Q 41.65625 56 45.828125 52.96875 
Q 50 49.953125 52 44.1875 
z
" id="DejaVuSans-109"/>
      </defs>
      <use xlink:href="#DejaVuSans-69"/>
      <use x="63.183594" xlink:href="#DejaVuSans-120"/>
      <use x="122.363281" xlink:href="#DejaVuSans-112"/>
      <use x="185.839844" xlink:href="#DejaVuSans-108"/>
      <use x="213.623047" xlink:href="#DejaVuSans-111"/>
      <use x="274.804688" xlink:href="#DejaVuSans-114"/>
      <use x="315.917969" xlink:href="#DejaVuSans-97"/>
      <use x="377.197266" xlink:href="#DejaVuSans-116"/>
      <use x="416.40625" xlink:href="#DejaVuSans-105"/>
      <use x="444.189453" xlink:href="#DejaVuSans-111"/>
      <use x="505.371094" xlink:href="#DejaVuSans-110"/>
      <use x="568.75" xlink:href="#DejaVuSans-32"/>
      <use x="600.537109" xlink:href="#DejaVuSans-116"/>
      <use x="639.746094" xlink:href="#DejaVuSans-105"/>
      <use x="667.529297" xlink:href="#DejaVuSans-109"/>
      <use x="764.941406" xlink:href="#DejaVuSans-101"/>
     </g>
    </g>
   </g>
   <g id="matplotlib.axis_8">
    <g id="ytick_11">
     <g id="line2d_41">
      <g>
       <use style="stroke:#000000;stroke-width:0.8;" x="27" xlink:href="#m1c6bdd380f" y="352.44"/>
      </g>
     </g>
     <g id="text_22">
      <!-- 0.0 -->
      <g transform="translate(10.367812 355.099453)scale(0.07 -0.07)">
       <use xlink:href="#DejaVuSans-48"/>
       <use x="63.623047" xlink:href="#DejaVuSans-46"/>
       <use x="95.410156" xlink:href="#DejaVuSans-48"/>
      </g>
     </g>
    </g>
    <g id="ytick_12">
     <g id="line2d_42">
      <g>
       <use style="stroke:#000000;stroke-width:0.8;" x="27" xlink:href="#m1c6bdd380f" y="334.101576"/>
      </g>
     </g>
     <g id="text_23">
      <!-- 0.2 -->
      <g transform="translate(10.367812 336.761029)scale(0.07 -0.07)">
       <use xlink:href="#DejaVuSans-48"/>
       <use x="63.623047" xlink:href="#DejaVuSans-46"/>
       <use x="95.410156" xlink:href="#DejaVuSans-50"/>
      </g>
     </g>
    </g>
    <g id="ytick_13">
     <g id="line2d_43">
      <g>
       <use style="stroke:#000000;stroke-width:0.8;" x="27" xlink:href="#m1c6bdd380f" y="315.763152"/>
      </g>
     </g>
     <g id="text_24">
      <!-- 0.4 -->
      <g transform="translate(10.367812 318.422606)scale(0.07 -0.07)">
       <use xlink:href="#DejaVuSans-48"/>
       <use x="63.623047" xlink:href="#DejaVuSans-46"/>
       <use x="95.410156" xlink:href="#DejaVuSans-52"/>
      </g>
     </g>
    </g>
    <g id="ytick_14">
     <g id="line2d_44">
      <g>
       <use style="stroke:#000000;stroke-width:0.8;" x="27" xlink:href="#m1c6bdd380f" y="297.424729"/>
      </g>
     </g>
     <g id="text_25">
      <!-- 0.6 -->
      <g transform="translate(10.367812 300.084182)scale(0.07 -0.07)">
       <use xlink:href="#DejaVuSans-48"/>
       <use x="63.623047" xlink:href="#DejaVuSans-46"/>
       <use x="95.410156" xlink:href="#DejaVuSans-54"/>
      </g>
     </g>
    </g>
   </g>
   <g id="line2d_45">
    <path clip-path="url(#p97f69461b7)" d="M 27 347.190834 
L 28.430606 343.736919 
L 29.861386 341.461033 
L 31.292064 338.841324 
L 32.722858 337.343852 
L 34.153728 335.552965 
L 35.584551 334.208217 
L 37.015301 333.110728 
L 38.446074 331.350718 
L 39.87691 329.595887 
L 41.307834 328.552664 
L 42.738555 326.511182 
L 44.169321 325.825605 
L 45.600063 324.661258 
L 47.030937 323.232036 
L 48.461711 322.054764 
L 49.892494 320.687775 
L 51.323186 320.146553 
L 52.753825 319.253669 
L 54.184584 317.420384 
L 55.615426 316.846037 
L 57.046178 315.841087 
L 58.476962 314.979272 
L 59.907718 314.133474 
L 61.338495 313.458217 
L 62.769251 312.860332 
L 64.200064 311.848543 
L 65.630983 310.865425 
L 67.061726 310.019391 
L 68.492489 309.024246 
L 69.923241 307.835419 
L 71.353974 307.312563 
L 72.784769 306.807903 
L 74.21551 305.938384 
L 75.64633 304.865193 
L 77.077259 304.135549 
L 78.50798 304.121099 
L 79.938634 303.388255 
L 81.369398 302.496009 
L 82.800072 302.42771 
L 84.230809 301.827102 
L 85.661702 301.547971 
L 87.092412 301.777536 
L 88.523212 301.379295 
L 89.953998 300.922934 
L 91.384863 300.457115 
L 92.815662 299.975885 
L 94.246481 299.50993 
L 95.677428 298.939349 
L 97.108209 298.456857 
L 98.538986 297.879233 
L 99.969733 297.5017 
L 101.400393 297.281668 
L 102.831229 297.171025 
L 104.262048 296.817537 
L 105.692709 296.703222 
L 107.123481 296.525162 
L 108.554276 295.642779 
L 109.984979 295.204417 
L 111.415652 294.680063 
L 112.846472 294.802574 
L 114.277259 294.578504 
L 115.707954 294.382626 
L 117.138761 294.006056 
L 118.569581 294.033621 
L 120.000269 293.571948 
L 121.431218 293.477771 
L 122.862076 293.451907 
L 124.292814 293.051509 
L 125.723595 292.88523 
L 127.154273 292.715049 
L 128.585033 292.527228 
L 130.015887 292.286622 
L 131.446656 292.24037 
L 132.877532 291.86767 
L 134.308317 291.736505 
L 135.739045 291.466638 
L 137.16974 291.298003 
L 138.600489 291.115671 
L 140.031185 290.837647 
L 141.461942 290.739331 
L 142.892692 290.543866 
L 144.323422 290.398969 
L 145.754185 290.235467 
L 147.184914 290.216026 
L 148.615645 290.030312 
L 150.046428 290.028061 
L 151.477149 289.768289 
L 152.908017 289.719653 
L 154.338759 289.333202 
L 155.769659 289.067771 
L 157.200345 288.947917 
L 158.631072 288.751345 
L 160.06188 288.58845 
L 161.492572 288.501528 
L 162.923374 288.610359 
L 164.354085 288.577339 
L 165.784915 288.279399 
L 167.215818 288.353482 
L 168.646656 288.276599 
L 170.077539 288.036716 
L 171.508201 287.953361 
L 172.938862 287.884625 
L 174.369591 287.891184 
L 175.800429 287.880555 
L 177.231165 287.606976 
L 178.661887 287.569843 
L 180.092686 287.557296 
L 181.523389 287.465881 
L 182.954201 287.425107 
L 184.384997 287.207031 
L 185.81567 287.044393 
L 187.24636 286.769484 
L 188.677093 286.794511 
L 190.10788 286.639428 
L 191.53861 286.526904 
L 192.969226 286.373407 
L 194.4 286.153043 
" style="fill:none;stroke:#fc8d62;stroke-linecap:square;stroke-width:2;"/>
   </g>
   <g id="line2d_46">
    <path clip-path="url(#p97f69461b7)" d="M 27 347.76283 
L 28.430606 346.534254 
L 29.861386 346.065204 
L 31.292064 345.540094 
L 32.722858 344.402081 
L 34.153728 343.271191 
L 35.584551 342.178146 
L 37.015301 342.156697 
L 38.446074 342.231717 
L 39.87691 341.225673 
L 41.307834 339.761875 
L 42.738555 339.323699 
L 44.169321 339.229786 
L 45.600063 337.962948 
L 47.030937 337.141296 
L 48.461711 335.406218 
L 49.892494 334.837808 
L 51.323186 334.631404 
L 52.753825 333.796792 
L 54.184584 332.620478 
L 55.615426 332.223826 
L 57.046178 331.077446 
L 58.476962 329.738719 
L 59.907718 329.238125 
L 61.338495 328.324165 
L 62.769251 327.958559 
L 64.200064 327.432584 
L 65.630983 327.050359 
L 67.061726 326.715186 
L 68.492489 326.079028 
L 69.923241 326.028251 
L 71.353974 325.74294 
L 72.784769 324.917637 
L 74.21551 324.467728 
L 75.64633 323.78158 
L 77.077259 323.014617 
L 78.50798 322.447469 
L 79.938634 321.935187 
L 81.369398 321.420436 
L 82.800072 320.753499 
L 84.230809 320.282275 
L 85.661702 319.534504 
L 87.092412 319.269598 
L 88.523212 319.535824 
L 89.953998 319.037406 
L 91.384863 318.483929 
L 92.815662 317.964199 
L 94.246481 317.938435 
L 95.677428 317.47029 
L 97.108209 317.123738 
L 98.538986 316.642226 
L 99.969733 316.000098 
L 101.400393 315.512091 
L 102.831229 315.2595 
L 104.262048 314.40072 
L 105.692709 314.395581 
L 107.123481 314.55813 
L 108.554276 313.934431 
L 109.984979 314.006026 
L 111.415652 314.103215 
L 112.846472 313.922881 
L 114.277259 313.461784 
L 115.707954 313.508635 
L 117.138761 313.277894 
L 118.569581 312.284413 
L 120.000269 312.012564 
L 121.431218 311.963649 
L 122.862076 311.364017 
L 124.292814 310.867148 
L 125.723595 310.55705 
L 127.154273 310.09444 
L 128.585033 310.104046 
L 130.015887 309.539486 
L 131.446656 309.270988 
L 132.877532 308.84543 
L 134.308317 308.508378 
L 135.739045 308.335198 
L 137.16974 307.905229 
L 138.600489 307.972776 
L 140.031185 307.833015 
L 141.461942 307.571811 
L 142.892692 307.374027 
L 144.323422 307.430158 
L 145.754185 307.372142 
L 147.184914 306.817606 
L 148.615645 306.588902 
L 150.046428 306.171475 
L 151.477149 305.865816 
L 152.908017 305.962117 
L 154.338759 305.809727 
L 155.769659 305.597953 
L 157.200345 305.524442 
L 158.631072 305.269103 
L 160.06188 305.399985 
L 161.492572 305.501805 
L 162.923374 305.509352 
L 164.354085 305.434716 
L 165.784915 305.453018 
L 167.215818 305.109681 
L 168.646656 305.233236 
L 170.077539 304.914272 
L 171.508201 304.726606 
L 172.938862 304.422569 
L 174.369591 304.457034 
L 175.800429 304.335565 
L 177.231165 304.224009 
L 178.661887 304.384948 
L 180.092686 304.267529 
L 181.523389 304.273563 
L 182.954201 304.314311 
L 184.384997 304.195467 
L 185.81567 304.269055 
L 187.24636 304.166771 
L 188.677093 304.201984 
L 190.10788 303.966799 
L 191.53861 303.714048 
L 192.969226 303.487366 
L 194.4 303.112886 
" style="fill:none;stroke:#fc8d62;stroke-dasharray:1.5,2.475;stroke-dashoffset:0;stroke-opacity:0.7;stroke-width:1.5;"/>
   </g>
   <g id="patch_19">
    <path d="M 27 352.44 
L 27 286.153043 
" style="fill:none;stroke:#a9a9a9;stroke-linecap:square;stroke-linejoin:miter;stroke-width:2;"/>
   </g>
   <g id="patch_20">
    <path d="M 194.4 352.44 
L 194.4 286.153043 
" style="fill:none;"/>
   </g>
   <g id="patch_21">
    <path d="M 27 352.44 
L 194.4 352.44 
" style="fill:none;stroke:#a9a9a9;stroke-linecap:square;stroke-linejoin:miter;stroke-width:2;"/>
   </g>
   <g id="patch_22">
    <path d="M 27 286.153043 
L 194.4 286.153043 
" style="fill:none;"/>
   </g>
   <g id="text_26">
    <!-- R2 -->
    <g transform="translate(104.710078 283.153043)scale(0.09 -0.09)">
     <use xlink:href="#DejaVuSans-82"/>
     <use x="69.482422" xlink:href="#DejaVuSans-50"/>
    </g>
   </g>
  </g>
 </g>
 <defs>
  <clipPath id="pd363fc913b">
   <rect height="66.286957" width="167.4" x="27" y="47.52"/>
  </clipPath>
  <clipPath id="p138a06311c">
   <rect height="66.286957" width="167.4" x="27" y="127.064348"/>
  </clipPath>
  <clipPath id="pd0f0d4d808">
   <rect height="66.286957" width="167.4" x="27" y="206.608696"/>
  </clipPath>
  <clipPath id="p97f69461b7">
   <rect height="66.286957" width="167.4" x="27" y="286.153043"/>
  </clipPath>
 </defs>
</svg>
